<?xml version="1.0" encoding="utf-8" standalone="no"?>
<!DOCTYPE svg PUBLIC "-//W3C//DTD SVG 1.1//EN"
  "http://www.w3.org/Graphics/SVG/1.1/DTD/svg11.dtd">
<!-- Created with matplotlib (http://matplotlib.org/) -->
<svg height="360pt" version="1.1" viewBox="0 0 1152 360" width="1152pt" xmlns="http://www.w3.org/2000/svg" xmlns:xlink="http://www.w3.org/1999/xlink">
 <defs>
  <style type="text/css">
*{stroke-linecap:butt;stroke-linejoin:round;}
  </style>
 </defs>
 <g id="figure_1">
  <g id="patch_1">
   <path d="M 0 360 
L 1152 360 
L 1152 0 
L 0 0 
z
" style="fill:#ffffff;"/>
  </g>
  <g id="axes_1">
   <g id="patch_2">
    <path d="M 144 320.4 
L 1036.8 320.4 
L 1036.8 43.2 
L 144 43.2 
z
" style="fill:#eaeaf2;"/>
   </g>
   <g id="matplotlib.axis_1">
    <g id="xtick_1">
     <g id="line2d_1">
      <path clip-path="url(#pbe08ebaee0)" d="M 184.581818 320.4 
L 184.581818 43.2 
" style="fill:none;stroke:#ffffff;stroke-linecap:round;stroke-width:0.8;"/>
     </g>
     <g id="line2d_2"/>
     <g id="text_1">
      <!-- 0.000 -->
      <defs>
       <path d="M 51.703125 34.421875 
Q 51.703125 24.515625 49.828125 17.75 
Q 47.953125 10.984375 44.703125 6.8125 
Q 41.453125 2.640625 37.0625 0.828125 
Q 32.671875 -0.984375 27.6875 -0.984375 
Q 22.65625 -0.984375 18.3125 0.828125 
Q 13.96875 2.640625 10.765625 6.78125 
Q 7.5625 10.9375 5.734375 17.703125 
Q 3.90625 24.46875 3.90625 34.421875 
Q 3.90625 44.828125 5.734375 51.640625 
Q 7.5625 58.453125 10.78125 62.5 
Q 14.015625 66.546875 18.40625 68.1875 
Q 22.796875 69.828125 27.984375 69.828125 
Q 32.90625 69.828125 37.21875 68.1875 
Q 41.546875 66.546875 44.765625 62.5 
Q 48 58.453125 49.84375 51.640625 
Q 51.703125 44.828125 51.703125 34.421875 
M 42.78125 34.421875 
Q 42.78125 42.625 41.796875 48.0625 
Q 40.828125 53.515625 38.921875 56.765625 
Q 37.015625 60.015625 34.25 61.359375 
Q 31.5 62.703125 27.984375 62.703125 
Q 24.265625 62.703125 21.4375 61.328125 
Q 18.609375 59.96875 16.671875 56.71875 
Q 14.75 53.46875 13.765625 48.015625 
Q 12.796875 42.578125 12.796875 34.421875 
Q 12.796875 26.515625 13.796875 21.09375 
Q 14.796875 15.671875 16.71875 12.375 
Q 18.65625 9.078125 21.4375 7.640625 
Q 24.21875 6.203125 27.78125 6.203125 
Q 31.25 6.203125 34.03125 7.640625 
Q 36.8125 9.078125 38.734375 12.375 
Q 40.671875 15.671875 41.71875 21.09375 
Q 42.78125 26.515625 42.78125 34.421875 
" id="LiberationSans-30"/>
       <path d="M 9.125 0 
L 9.125 10.6875 
L 18.65625 10.6875 
L 18.65625 0 
z
" id="LiberationSans-2e"/>
      </defs>
      <g style="fill:#262626;" transform="translate(174.573068 331.7975)scale(0.08 -0.08)">
       <use xlink:href="#LiberationSans-30"/>
       <use x="55.615234" xlink:href="#LiberationSans-2e"/>
       <use x="83.398438" xlink:href="#LiberationSans-30"/>
       <use x="139.013672" xlink:href="#LiberationSans-30"/>
       <use x="194.628906" xlink:href="#LiberationSans-30"/>
      </g>
     </g>
    </g>
    <g id="xtick_2">
     <g id="line2d_3">
      <path clip-path="url(#pbe08ebaee0)" d="M 311.238448 320.4 
L 311.238448 43.2 
" style="fill:none;stroke:#ffffff;stroke-linecap:round;stroke-width:0.8;"/>
     </g>
     <g id="line2d_4"/>
     <g id="text_2">
      <!-- 0.005 -->
      <defs>
       <path d="M 51.421875 22.40625 
Q 51.421875 17.234375 49.859375 12.9375 
Q 48.296875 8.640625 45.21875 5.53125 
Q 42.140625 2.4375 37.578125 0.71875 
Q 33.015625 -0.984375 27 -0.984375 
Q 21.578125 -0.984375 17.546875 0.28125 
Q 13.53125 1.5625 10.734375 3.78125 
Q 7.953125 6 6.3125 8.984375 
Q 4.6875 11.96875 4 15.375 
L 12.890625 16.40625 
Q 13.421875 14.453125 14.390625 12.625 
Q 15.375 10.796875 17.0625 9.34375 
Q 18.75 7.90625 21.21875 7.046875 
Q 23.6875 6.203125 27.203125 6.203125 
Q 30.609375 6.203125 33.390625 7.25 
Q 36.1875 8.296875 38.15625 10.34375 
Q 40.140625 12.40625 41.203125 15.375 
Q 42.28125 18.359375 42.28125 22.21875 
Q 42.28125 25.390625 41.25 28.046875 
Q 40.234375 30.71875 38.328125 32.640625 
Q 36.421875 34.578125 33.65625 35.640625 
Q 30.90625 36.71875 27.390625 36.71875 
Q 25.203125 36.71875 23.34375 36.328125 
Q 21.484375 35.9375 19.890625 35.25 
Q 18.3125 34.578125 17.015625 33.671875 
Q 15.71875 32.765625 14.59375 31.78125 
L 6 31.78125 
L 8.296875 68.796875 
L 47.40625 68.796875 
L 47.40625 61.328125 
L 16.3125 61.328125 
L 14.984375 39.5 
Q 17.328125 41.3125 20.84375 42.59375 
Q 24.359375 43.890625 29.203125 43.890625 
Q 34.328125 43.890625 38.421875 42.328125 
Q 42.53125 40.765625 45.40625 37.90625 
Q 48.296875 35.0625 49.859375 31.109375 
Q 51.421875 27.15625 51.421875 22.40625 
" id="LiberationSans-35"/>
      </defs>
      <g style="fill:#262626;" transform="translate(301.229698 331.7975)scale(0.08 -0.08)">
       <use xlink:href="#LiberationSans-30"/>
       <use x="55.615234" xlink:href="#LiberationSans-2e"/>
       <use x="83.398438" xlink:href="#LiberationSans-30"/>
       <use x="139.013672" xlink:href="#LiberationSans-30"/>
       <use x="194.628906" xlink:href="#LiberationSans-35"/>
      </g>
     </g>
    </g>
    <g id="xtick_3">
     <g id="line2d_5">
      <path clip-path="url(#pbe08ebaee0)" d="M 437.895078 320.4 
L 437.895078 43.2 
" style="fill:none;stroke:#ffffff;stroke-linecap:round;stroke-width:0.8;"/>
     </g>
     <g id="line2d_6"/>
     <g id="text_3">
      <!-- 0.010 -->
      <defs>
       <path d="M 7.625 0 
L 7.625 7.46875 
L 25.140625 7.46875 
L 25.140625 60.40625 
L 9.625 49.3125 
L 9.625 57.625 
L 25.875 68.796875 
L 33.984375 68.796875 
L 33.984375 7.46875 
L 50.734375 7.46875 
L 50.734375 0 
z
" id="LiberationSans-31"/>
      </defs>
      <g style="fill:#262626;" transform="translate(427.886328 331.7975)scale(0.08 -0.08)">
       <use xlink:href="#LiberationSans-30"/>
       <use x="55.615234" xlink:href="#LiberationSans-2e"/>
       <use x="83.398438" xlink:href="#LiberationSans-30"/>
       <use x="139.013672" xlink:href="#LiberationSans-31"/>
       <use x="194.628906" xlink:href="#LiberationSans-30"/>
      </g>
     </g>
    </g>
    <g id="xtick_4">
     <g id="line2d_7">
      <path clip-path="url(#pbe08ebaee0)" d="M 564.551708 320.4 
L 564.551708 43.2 
" style="fill:none;stroke:#ffffff;stroke-linecap:round;stroke-width:0.8;"/>
     </g>
     <g id="line2d_8"/>
     <g id="text_4">
      <!-- 0.015 -->
      <g style="fill:#262626;" transform="translate(554.542958 331.7975)scale(0.08 -0.08)">
       <use xlink:href="#LiberationSans-30"/>
       <use x="55.615234" xlink:href="#LiberationSans-2e"/>
       <use x="83.398438" xlink:href="#LiberationSans-30"/>
       <use x="139.013672" xlink:href="#LiberationSans-31"/>
       <use x="194.628906" xlink:href="#LiberationSans-35"/>
      </g>
     </g>
    </g>
    <g id="xtick_5">
     <g id="line2d_9">
      <path clip-path="url(#pbe08ebaee0)" d="M 691.208338 320.4 
L 691.208338 43.2 
" style="fill:none;stroke:#ffffff;stroke-linecap:round;stroke-width:0.8;"/>
     </g>
     <g id="line2d_10"/>
     <g id="text_5">
      <!-- 0.020 -->
      <defs>
       <path d="M 5.03125 0 
L 5.03125 6.203125 
Q 7.515625 11.921875 11.109375 16.28125 
Q 14.703125 20.65625 18.65625 24.1875 
Q 22.609375 27.734375 26.484375 30.765625 
Q 30.375 33.796875 33.5 36.8125 
Q 36.625 39.84375 38.546875 43.15625 
Q 40.484375 46.484375 40.484375 50.6875 
Q 40.484375 53.609375 39.59375 55.828125 
Q 38.71875 58.0625 37.0625 59.5625 
Q 35.40625 61.078125 33.078125 61.828125 
Q 30.765625 62.59375 27.9375 62.59375 
Q 25.296875 62.59375 22.96875 61.859375 
Q 20.65625 61.140625 18.84375 59.671875 
Q 17.046875 58.203125 15.890625 56.03125 
Q 14.75 53.859375 14.40625 50.984375 
L 5.421875 51.8125 
Q 5.859375 55.515625 7.46875 58.78125 
Q 9.078125 62.0625 11.90625 64.53125 
Q 14.75 67 18.71875 68.40625 
Q 22.703125 69.828125 27.9375 69.828125 
Q 33.0625 69.828125 37.0625 68.609375 
Q 41.0625 67.390625 43.8125 64.984375 
Q 46.578125 62.59375 48.046875 59.078125 
Q 49.515625 55.5625 49.515625 50.984375 
Q 49.515625 47.515625 48.265625 44.390625 
Q 47.015625 41.265625 44.9375 38.421875 
Q 42.875 35.59375 40.140625 32.953125 
Q 37.40625 30.328125 34.421875 27.8125 
Q 31.453125 25.296875 28.421875 22.828125 
Q 25.390625 20.359375 22.71875 17.859375 
Q 20.0625 15.375 17.96875 12.8125 
Q 15.875 10.25 14.703125 7.46875 
L 50.59375 7.46875 
L 50.59375 0 
z
" id="LiberationSans-32"/>
      </defs>
      <g style="fill:#262626;" transform="translate(681.199588 331.7975)scale(0.08 -0.08)">
       <use xlink:href="#LiberationSans-30"/>
       <use x="55.615234" xlink:href="#LiberationSans-2e"/>
       <use x="83.398438" xlink:href="#LiberationSans-30"/>
       <use x="139.013672" xlink:href="#LiberationSans-32"/>
       <use x="194.628906" xlink:href="#LiberationSans-30"/>
      </g>
     </g>
    </g>
    <g id="xtick_6">
     <g id="line2d_11">
      <path clip-path="url(#pbe08ebaee0)" d="M 817.864968 320.4 
L 817.864968 43.2 
" style="fill:none;stroke:#ffffff;stroke-linecap:round;stroke-width:0.8;"/>
     </g>
     <g id="line2d_12"/>
     <g id="text_6">
      <!-- 0.025 -->
      <g style="fill:#262626;" transform="translate(807.856218 331.7975)scale(0.08 -0.08)">
       <use xlink:href="#LiberationSans-30"/>
       <use x="55.615234" xlink:href="#LiberationSans-2e"/>
       <use x="83.398438" xlink:href="#LiberationSans-30"/>
       <use x="139.013672" xlink:href="#LiberationSans-32"/>
       <use x="194.628906" xlink:href="#LiberationSans-35"/>
      </g>
     </g>
    </g>
    <g id="xtick_7">
     <g id="line2d_13">
      <path clip-path="url(#pbe08ebaee0)" d="M 944.521598 320.4 
L 944.521598 43.2 
" style="fill:none;stroke:#ffffff;stroke-linecap:round;stroke-width:0.8;"/>
     </g>
     <g id="line2d_14"/>
     <g id="text_7">
      <!-- 0.030 -->
      <defs>
       <path d="M 51.21875 19 
Q 51.21875 14.265625 49.671875 10.546875 
Q 48.140625 6.84375 45.1875 4.265625 
Q 42.234375 1.703125 37.859375 0.359375 
Q 33.5 -0.984375 27.875 -0.984375 
Q 21.484375 -0.984375 17.109375 0.609375 
Q 12.75 2.203125 9.90625 4.8125 
Q 7.078125 7.421875 5.65625 10.765625 
Q 4.25 14.109375 3.8125 17.671875 
L 12.890625 18.5 
Q 13.28125 15.765625 14.328125 13.515625 
Q 15.375 11.28125 17.1875 9.671875 
Q 19 8.0625 21.625 7.171875 
Q 24.265625 6.296875 27.875 6.296875 
Q 34.515625 6.296875 38.296875 9.5625 
Q 42.09375 12.84375 42.09375 19.28125 
Q 42.09375 23.09375 40.40625 25.40625 
Q 38.71875 27.734375 36.203125 29.03125 
Q 33.6875 30.328125 30.734375 30.765625 
Q 27.78125 31.203125 25.296875 31.203125 
L 20.3125 31.203125 
L 20.3125 38.8125 
L 25.09375 38.8125 
Q 27.59375 38.8125 30.265625 39.328125 
Q 32.953125 39.84375 35.171875 41.1875 
Q 37.40625 42.53125 38.84375 44.828125 
Q 40.28125 47.125 40.28125 50.6875 
Q 40.28125 56.203125 37.03125 59.390625 
Q 33.796875 62.59375 27.390625 62.59375 
Q 21.578125 62.59375 17.984375 59.609375 
Q 14.40625 56.640625 13.8125 51.21875 
L 4.984375 51.90625 
Q 5.515625 56.453125 7.46875 59.8125 
Q 9.421875 63.1875 12.421875 65.40625 
Q 15.4375 67.625 19.28125 68.71875 
Q 23.140625 69.828125 27.484375 69.828125 
Q 33.25 69.828125 37.390625 68.375 
Q 41.546875 66.9375 44.1875 64.46875 
Q 46.828125 62.015625 48.0625 58.6875 
Q 49.3125 55.375 49.3125 51.609375 
Q 49.3125 48.578125 48.484375 45.9375 
Q 47.65625 43.3125 45.890625 41.203125 
Q 44.140625 39.109375 41.421875 37.59375 
Q 38.71875 36.078125 34.90625 35.296875 
L 34.90625 35.109375 
Q 39.0625 34.671875 42.140625 33.21875 
Q 45.21875 31.78125 47.21875 29.625 
Q 49.21875 27.484375 50.21875 24.75 
Q 51.21875 22.015625 51.21875 19 
" id="LiberationSans-33"/>
      </defs>
      <g style="fill:#262626;" transform="translate(934.512848 331.7975)scale(0.08 -0.08)">
       <use xlink:href="#LiberationSans-30"/>
       <use x="55.615234" xlink:href="#LiberationSans-2e"/>
       <use x="83.398438" xlink:href="#LiberationSans-30"/>
       <use x="139.013672" xlink:href="#LiberationSans-33"/>
       <use x="194.628906" xlink:href="#LiberationSans-30"/>
      </g>
     </g>
    </g>
   </g>
   <g id="matplotlib.axis_2">
    <g id="ytick_1">
     <g id="line2d_15">
      <path clip-path="url(#pbe08ebaee0)" d="M 144 301.9842 
L 1036.8 301.9842 
" style="fill:none;stroke:#ffffff;stroke-linecap:round;stroke-width:0.8;"/>
     </g>
     <g id="line2d_16"/>
     <g id="text_8">
      <!-- −2 -->
      <defs>
       <path d="M 4.9375 29.6875 
L 4.9375 36.8125 
L 53.515625 36.8125 
L 53.515625 29.6875 
z
" id="LiberationSans-2212"/>
      </defs>
      <g style="fill:#262626;" transform="translate(129.27875 304.88295)scale(0.08 -0.08)">
       <use xlink:href="#LiberationSans-2212"/>
       <use x="58.398438" xlink:href="#LiberationSans-32"/>
      </g>
     </g>
    </g>
    <g id="ytick_2">
     <g id="line2d_17">
      <path clip-path="url(#pbe08ebaee0)" d="M 144 242.858757 
L 1036.8 242.858757 
" style="fill:none;stroke:#ffffff;stroke-linecap:round;stroke-width:0.8;"/>
     </g>
     <g id="line2d_18"/>
     <g id="text_9">
      <!-- −1 -->
      <g style="fill:#262626;" transform="translate(129.27875 245.757507)scale(0.08 -0.08)">
       <use xlink:href="#LiberationSans-2212"/>
       <use x="58.398438" xlink:href="#LiberationSans-31"/>
      </g>
     </g>
    </g>
    <g id="ytick_3">
     <g id="line2d_19">
      <path clip-path="url(#pbe08ebaee0)" d="M 144 183.733315 
L 1036.8 183.733315 
" style="fill:none;stroke:#ffffff;stroke-linecap:round;stroke-width:0.8;"/>
     </g>
     <g id="line2d_20"/>
     <g id="text_10">
      <!-- 0 -->
      <g style="fill:#262626;" transform="translate(133.95125 186.632065)scale(0.08 -0.08)">
       <use xlink:href="#LiberationSans-30"/>
      </g>
     </g>
    </g>
    <g id="ytick_4">
     <g id="line2d_21">
      <path clip-path="url(#pbe08ebaee0)" d="M 144 124.607872 
L 1036.8 124.607872 
" style="fill:none;stroke:#ffffff;stroke-linecap:round;stroke-width:0.8;"/>
     </g>
     <g id="line2d_22"/>
     <g id="text_11">
      <!-- 1 -->
      <g style="fill:#262626;" transform="translate(133.95125 127.506622)scale(0.08 -0.08)">
       <use xlink:href="#LiberationSans-31"/>
      </g>
     </g>
    </g>
    <g id="ytick_5">
     <g id="line2d_23">
      <path clip-path="url(#pbe08ebaee0)" d="M 144 65.48243 
L 1036.8 65.48243 
" style="fill:none;stroke:#ffffff;stroke-linecap:round;stroke-width:0.8;"/>
     </g>
     <g id="line2d_24"/>
     <g id="text_12">
      <!-- 2 -->
      <g style="fill:#262626;" transform="translate(133.95125 68.38118)scale(0.08 -0.08)">
       <use xlink:href="#LiberationSans-32"/>
      </g>
     </g>
    </g>
   </g>
   <g id="line2d_25">
    <path clip-path="url(#pbe08ebaee0)" d="M 184.581818 144.185281 
L 188.028257 231.42557 
L 188.602664 240.373083 
L 189.17707 246.176798 
L 189.751477 248.584413 
L 190.325883 247.535327 
L 190.90029 243.163322 
L 191.474696 235.787054 
L 192.623509 214.084023 
L 194.921135 162.391107 
L 195.495541 151.922555 
L 196.069948 143.584968 
L 196.644354 137.710343 
L 197.218761 134.454502 
L 197.793167 133.790268 
L 198.367574 135.512689 
L 198.94198 139.255939 
L 200.090793 150.710528 
L 201.239606 163.249917 
L 201.814013 168.315802 
L 202.388419 171.829299 
L 202.962826 173.367631 
L 203.537232 172.657589 
L 204.111639 169.595754 
L 204.686045 164.257332 
L 205.260452 156.893028 
L 206.409265 137.866635 
L 208.132484 108.015361 
L 208.706891 100.500289 
L 209.281297 95.261665 
L 209.855704 92.777423 
L 210.43011 93.370991 
L 211.004517 97.18789 
L 211.578923 104.18358 
L 212.153329 114.123353 
L 213.302142 141.028935 
L 216.174175 216.707736 
L 216.748581 227.28383 
L 217.322988 234.944739 
L 217.897394 239.382518 
L 218.471801 240.477111 
L 219.046207 238.301604 
L 219.620614 233.115271 
L 220.19502 225.3449 
L 221.343833 204.413307 
L 223.067053 170.095453 
L 223.641459 160.631036 
L 224.215866 153.068769 
L 224.790272 147.75014 
L 225.364679 144.845488 
L 225.939085 144.345269 
L 226.513492 146.063327 
L 227.087898 149.651928 
L 228.236711 160.4056 
L 229.385524 171.778891 
L 229.959931 176.090392 
L 230.534337 178.727679 
L 231.108743 179.257903 
L 231.68315 177.395923 
L 232.257556 173.026221 
L 232.831963 166.21359 
L 233.406369 157.201872 
L 234.555182 134.361598 
L 236.278402 97.692638 
L 236.852808 87.725239 
L 237.427215 80.014917 
L 238.001621 75.091498 
L 238.576028 73.334199 
L 239.150434 74.945981 
L 239.724841 79.938924 
L 240.299247 88.131605 
L 240.873654 99.158666 
L 242.022467 127.472149 
L 244.320093 188.437205 
L 244.894499 200.182077 
L 245.468906 209.318462 
L 246.043312 215.492779 
L 246.617719 218.534094 
L 247.192125 218.461802 
L 247.766532 215.481142 
L 248.340938 209.966881 
L 249.489751 193.513115 
L 251.21297 165.307174 
L 251.787377 157.635219 
L 252.361783 151.730369 
L 252.93619 147.935845 
L 253.510596 146.427872 
L 254.085003 147.205181 
L 254.659409 150.090444 
L 255.233816 154.743546 
L 256.382629 167.33354 
L 257.531442 180.134251 
L 258.105848 184.980306 
L 258.680255 188.009606 
L 259.254661 188.767716 
L 259.829068 186.946261 
L 260.403474 182.406647 
L 260.977881 175.192738 
L 261.552287 165.531604 
L 262.7011 140.612964 
L 264.998726 86.947037 
L 265.573133 77.045442 
L 266.147539 69.849814 
L 266.721946 65.797446 
L 267.296352 65.152815 
L 267.870759 67.99046 
L 268.445165 74.18975 
L 269.019572 83.441889 
L 270.168384 109.052053 
L 272.46601 168.773589 
L 273.614823 191.149006 
L 274.18923 198.523212 
L 274.763636 203.016046 
L 275.338043 204.603828 
L 275.912449 203.447186 
L 276.486856 199.876987 
L 277.061262 194.369338 
L 278.210075 179.959741 
L 279.358888 165.477301 
L 279.933295 159.795675 
L 280.507701 155.833733 
L 281.082108 153.933841 
L 281.656514 154.27443 
L 282.230921 156.857792 
L 282.805327 161.509741 
L 283.379734 167.891186 
L 286.251766 205.922512 
L 286.826173 210.210593 
L 287.400579 212.06035 
L 287.974986 211.128302 
L 288.549392 207.240652 
L 289.123798 200.408098 
L 289.698205 190.828764 
L 290.847018 165.092728 
L 293.144644 105.821044 
L 293.71905 93.806952 
L 294.293457 84.296136 
L 294.867863 77.781523 
L 295.44227 74.588547 
L 296.016676 74.855562 
L 296.591083 78.526003 
L 297.165489 85.352759 
L 297.739896 94.914492 
L 298.888709 119.858621 
L 300.611928 160.907196 
L 301.760741 182.376923 
L 302.335148 189.724747 
L 302.909554 194.443126 
L 303.483961 196.478214 
L 304.058367 195.958324 
L 304.632774 193.181963 
L 305.20718 188.594756 
L 306.355993 176.302639 
L 307.504806 164.185533 
L 308.079213 159.754982 
L 308.653619 157.086733 
L 309.228025 156.525525 
L 309.802432 158.254119 
L 310.376838 162.279376 
L 310.951245 168.430151 
L 312.100058 185.604099 
L 313.823277 214.755727 
L 314.397684 222.631059 
L 314.97209 228.484845 
L 315.546497 231.787273 
L 316.120903 232.149499 
L 316.69531 229.351378 
L 317.269716 223.358537 
L 317.844123 214.327666 
L 318.992936 188.680813 
L 321.864968 111.198667 
L 322.439375 99.460047 
L 323.013781 90.478082 
L 323.588188 84.633587 
L 324.162594 82.12495 
L 324.737001 82.957743 
L 325.311407 86.946509 
L 325.885814 93.728569 
L 327.034627 113.494743 
L 329.332252 158.419785 
L 329.906659 166.813321 
L 330.481065 173.056051 
L 331.055472 176.898174 
L 331.629878 178.267933 
L 332.204285 177.273578 
L 332.778691 174.193358 
L 333.353098 169.45424 
L 335.650724 145.712738 
L 336.22513 141.748323 
L 336.799537 139.674107 
L 337.373943 139.844737 
L 337.94835 142.453966 
L 338.522756 147.518961 
L 339.097163 154.876336 
L 340.245976 174.971801 
L 342.543602 219.536625 
L 343.118008 227.463381 
L 343.692415 232.827499 
L 344.266821 235.187207 
L 344.841228 234.267004 
L 345.415634 229.97711 
L 345.990041 222.421247 
L 346.564447 211.892224 
L 347.71326 183.922202 
L 350.010886 120.317669 
L 351.159699 96.733859 
L 351.734105 89.057379 
L 352.308512 84.515764 
L 352.882918 83.16923 
L 353.457325 84.888142 
L 354.031731 89.364383 
L 354.606138 96.134017 
L 355.754951 114.120993 
L 357.47817 141.872169 
L 358.052577 148.755633 
L 358.626983 153.660286 
L 359.20139 156.330799 
L 359.775796 156.686456 
L 360.350203 154.82496 
L 360.924609 151.014253 
L 362.073422 139.340454 
L 363.222235 126.231807 
L 363.796642 120.772921 
L 364.371048 116.865146 
L 364.945455 115.015312 
L 365.519861 115.598082 
L 366.094268 118.82793 
L 366.668674 124.741552 
L 367.24308 133.191913 
L 368.391893 156.244499 
L 370.689519 209.621866 
L 371.263926 220.207073 
L 371.838332 228.324366 
L 372.412739 233.475689 
L 372.987145 235.32508 
L 373.561552 233.720528 
L 374.135958 228.704321 
L 374.710365 220.511221 
L 375.284771 209.554549 
L 376.433584 181.73641 
L 378.156804 136.399537 
L 379.305617 112.471455 
L 379.880023 104.154244 
L 380.45443 98.708586 
L 381.028836 96.238035 
L 381.603243 96.658738 
L 382.177649 99.708468 
L 382.752056 104.967117 
L 383.900869 119.832746 
L 385.049682 136.078774 
L 385.624088 143.070172 
L 386.198494 148.557529 
L 386.772901 152.128704 
L 387.347307 153.526594 
L 387.921714 152.666326 
L 388.49612 149.640832 
L 389.070527 144.714427 
L 390.21934 130.954778 
L 391.368153 116.001986 
L 391.942559 109.750103 
L 392.516966 105.166666 
L 393.091372 102.787412 
L 393.665779 103.018632 
L 394.240185 106.107355 
L 394.814592 112.121734 
L 395.388998 120.94294 
L 396.537811 145.631531 
L 399.409844 218.944239 
L 399.98425 229.65273 
L 400.558657 237.53075 
L 401.133063 242.182523 
L 401.70747 243.392578 
L 402.281876 241.138667 
L 402.856283 235.592572 
L 403.430689 227.108754 
L 404.579502 203.512626 
L 406.877128 149.829394 
L 407.451534 139.260327 
L 408.025941 130.962106 
L 408.600347 125.248289 
L 409.174754 122.253351 
L 409.74916 121.927474 
L 410.323567 124.043411 
L 410.897973 128.214924 
L 412.046786 140.565774 
L 413.195599 153.993443 
L 413.770006 159.496987 
L 414.344412 163.451801 
L 414.918819 165.446032 
L 415.493225 165.219993 
L 416.067632 162.684986 
L 416.642038 157.930622 
L 417.216445 151.220162 
L 418.365258 133.743384 
L 420.088477 106.807167 
L 420.662884 100.375373 
L 421.23729 96.239567 
L 421.811697 94.848827 
L 422.386103 96.494736 
L 422.96051 101.2896 
L 423.534916 109.156043 
L 424.109323 119.828702 
L 425.258135 147.684865 
L 427.555761 209.845011 
L 428.130168 222.247507 
L 428.704574 232.056832 
L 429.278981 238.823688 
L 429.853387 242.273628 
L 430.427794 242.322475 
L 431.0022 239.079731 
L 431.576607 232.839798 
L 432.151013 224.061597 
L 433.299826 201.356584 
L 435.023046 165.215487 
L 435.597452 155.381534 
L 436.171859 147.557222 
L 436.746265 142.070037 
L 437.320672 139.073492 
L 437.895078 138.539949 
L 438.469485 140.265465 
L 439.043891 143.886326 
L 440.192704 154.731613 
L 441.341517 166.19915 
L 441.915924 170.565132 
L 442.49033 173.274823 
L 443.064737 173.909936 
L 443.639143 172.20237 
L 444.21355 168.054703 
L 444.787956 161.549329 
L 445.362362 152.945621 
L 446.511175 131.266579 
L 448.234395 97.216352 
L 448.808801 88.313478 
L 449.383208 81.726858 
L 449.957614 77.956116 
L 450.532021 77.346499 
L 451.106427 80.064838 
L 451.680834 86.086708 
L 452.25524 95.195653 
L 453.404053 120.92845 
L 456.276086 196.855267 
L 456.850492 208.011202 
L 457.424899 216.404253 
L 457.999305 221.709652 
L 458.573712 223.788323 
L 459.148118 222.692796 
L 459.722525 218.66093 
L 460.296931 212.097913 
L 461.445744 193.655928 
L 463.168964 162.979386 
L 463.74337 154.641503 
L 464.317776 148.141843 
L 464.892183 143.81251 
L 465.466589 141.816053 
L 466.040996 142.13646 
L 466.615402 144.582135 
L 467.189809 148.800636 
L 468.338622 160.504305 
L 469.487435 172.388906 
L 470.061841 176.782521 
L 470.636248 179.381945 
L 471.210654 179.751815 
L 471.785061 177.605395 
L 472.359467 172.826858 
L 472.933874 165.482354 
L 473.50828 155.819117 
L 474.657093 131.342501 
L 476.380313 91.553115 
L 476.954719 80.43178 
L 477.529126 71.544334 
L 478.103532 65.443583 
L 478.677939 62.532785 
L 479.252345 63.039326 
L 479.826752 66.999378 
L 480.401158 74.254535 
L 480.975565 84.460674 
L 482.124378 111.554248 
L 484.422003 172.081632 
L 484.99641 184.155006 
L 485.570816 193.786954 
L 486.145223 200.613969 
L 486.719629 204.452544 
L 487.294036 205.307423 
L 487.868442 203.367706 
L 488.442849 198.991135 
L 489.017255 192.677607 
L 491.889288 154.576306 
L 492.463694 150.032006 
L 493.038101 147.575861 
L 493.612507 147.373549 
L 494.186914 149.413845 
L 494.76132 153.50981 
L 495.335727 159.311826 
L 498.207759 194.021667 
L 498.782166 197.619511 
L 499.356572 198.813798 
L 499.930979 197.287183 
L 500.505385 192.893444 
L 501.079792 185.670638 
L 501.654198 175.842322 
L 502.803011 150.114365 
L 505.100637 93.112634 
L 505.675043 82.096844 
L 506.24945 73.713768 
L 506.823856 68.42421 
L 507.398263 66.517535 
L 507.972669 68.093821 
L 508.547076 73.057878 
L 509.121482 81.125496 
L 510.270295 104.608627 
L 513.142328 173.513817 
L 513.716734 183.372348 
L 514.291141 190.709708 
L 514.865547 195.310907 
L 515.439954 197.145155 
L 516.01436 196.364193 
L 516.588767 193.288724 
L 517.163173 188.38389 
L 520.035206 158.051484 
L 520.609612 155.107813 
L 521.184019 154.259288 
L 521.758425 155.674558 
L 522.332831 159.345922 
L 522.907238 165.088755 
L 524.056051 181.244915 
L 525.77927 208.338953 
L 526.353677 215.420238 
L 526.928083 220.457038 
L 527.50249 222.945826 
L 528.076896 222.527561 
L 528.651303 219.013907 
L 529.225709 212.40262 
L 529.800116 202.881052 
L 530.948929 176.740998 
L 533.820961 101.446568 
L 534.395368 90.693643 
L 534.969774 82.830011 
L 535.544181 78.203602 
L 536.118587 76.976865 
L 536.692994 79.118199 
L 537.2674 84.405591 
L 537.841807 92.442204 
L 538.99062 114.469921 
L 541.288246 162.460619 
L 541.862652 171.297604 
L 542.437058 177.872141 
L 543.011465 181.950715 
L 543.585871 183.47989 
L 544.160278 182.586678 
L 544.734684 179.566982 
L 545.309091 174.86289 
L 547.606717 151.163678 
L 548.181123 147.181632 
L 548.75553 145.060437 
L 549.329936 145.139363 
L 549.904343 147.595042 
L 550.478749 152.427274 
L 551.053156 159.456626 
L 552.201969 178.561762 
L 553.925188 210.845874 
L 554.499595 219.76259 
L 555.074001 226.62461 
L 555.648408 230.881618 
L 556.222814 232.124017 
L 556.797221 230.111259 
L 557.371627 224.789583 
L 557.946034 216.297967 
L 558.52044 204.961886 
L 559.669253 175.871514 
L 561.966879 112.375373 
L 562.541285 99.85688 
L 563.115692 89.954051 
L 563.690098 83.064763 
L 564.264505 79.406823 
L 564.838911 79.006922 
L 565.413318 81.70173 
L 565.987724 87.151018 
L 566.562131 94.861923 
L 567.710944 114.544122 
L 569.434163 144.180804 
L 570.00857 151.510154 
L 570.582976 156.782039 
L 571.157383 159.754382 
L 571.731789 160.361552 
L 572.306196 158.716633 
L 572.880602 155.101722 
L 574.029415 143.799542 
L 575.178228 131.063868 
L 575.752635 125.783599 
L 576.327041 122.034607 
L 576.901448 120.307362 
L 577.475854 120.957039 
L 578.050261 124.176842 
L 578.624667 129.981948 
L 579.199074 138.205181 
L 580.347887 160.383501 
L 582.645512 210.193549 
L 583.219919 219.558828 
L 583.794325 226.370015 
L 584.368732 230.161588 
L 584.943138 230.633766 
L 585.517545 227.672659 
L 586.091951 221.358778 
L 586.666358 211.963335 
L 587.815171 185.86095 
L 590.687203 111.060361 
L 591.26161 100.357332 
L 591.836016 92.385368 
L 592.410423 87.406275 
L 592.984829 85.494995 
L 593.559236 86.538287 
L 594.133642 90.245481 
L 594.708049 96.170545 
L 595.856862 112.312571 
L 597.005675 129.673582 
L 597.580081 137.151032 
L 598.154488 143.081756 
L 598.728894 147.062734 
L 599.303301 148.848913 
L 599.877707 148.368993 
L 600.452113 145.729474 
L 601.02652 141.206744 
L 602.175333 128.340216 
L 603.324146 114.403866 
L 603.898552 108.689797 
L 604.472959 104.644253 
L 605.047365 102.782397 
L 605.621772 103.486498 
L 606.196178 106.977487 
L 606.770585 113.296918 
L 607.344991 122.300552 
L 608.493804 146.900438 
L 611.365837 216.956745 
L 611.940243 226.5571 
L 612.51465 233.230567 
L 613.089056 236.616288 
L 613.663463 236.536563 
L 614.237869 233.007947 
L 614.812276 226.240174 
L 615.386682 216.622979 
L 616.535495 191.143037 
L 618.833121 135.682306 
L 619.407528 125.093633 
L 619.981934 116.922091 
L 620.55634 111.460559 
L 621.130747 108.820055 
L 621.705153 108.926191 
L 622.27956 111.527686 
L 622.853966 116.216352 
L 624.002779 129.626604 
L 625.151592 144.079103 
L 625.725999 150.076396 
L 626.300405 154.519458 
L 626.874812 157.006617 
L 627.449218 157.290974 
L 628.023625 155.297817 
L 628.598031 151.130426 
L 629.172438 145.063904 
L 630.321251 129.075844 
L 631.470064 112.049429 
L 632.04447 104.853914 
L 632.618877 99.408871 
L 633.193283 96.265178 
L 633.76769 95.843926 
L 634.342096 98.406103 
L 634.916503 104.03242 
L 635.490909 112.614653 
L 636.065316 123.859105 
L 637.214129 152.335923 
L 639.511754 213.382192 
L 640.086161 225.050743 
L 640.660567 233.985958 
L 641.234974 239.770028 
L 641.80938 242.163706 
L 642.383787 241.119939 
L 642.958193 236.785432 
L 643.5326 229.490027 
L 644.681413 208.109168 
L 646.979039 157.691591 
L 647.553445 147.621243 
L 648.127852 139.680992 
L 648.702258 134.182468 
L 649.276665 131.260559 
L 649.851071 130.867803 
L 650.425478 132.780839 
L 650.999884 136.618435 
L 652.148697 147.931851 
L 653.29751 159.871374 
L 653.871917 164.477934 
L 654.446323 167.442515 
L 655.02073 168.360013 
L 655.595136 166.977916 
L 656.169543 163.21538 
L 656.743949 157.170827 
L 657.318356 149.117551 
L 658.467169 128.844787 
L 660.190388 97.659983 
L 660.764794 89.867277 
L 661.339201 84.430741 
L 661.913607 81.819778 
L 662.488014 82.346074 
L 663.06242 86.141184 
L 663.636827 93.145482 
L 664.211233 103.109203 
L 665.360046 130.055289 
L 667.657672 192.5617 
L 668.806485 215.964493 
L 669.380892 223.537335 
L 669.955298 227.908732 
L 670.529705 228.973344 
L 671.104111 226.81832 
L 671.678518 221.715224 
L 672.252924 214.100336 
L 673.401737 193.715462 
L 675.124957 160.760013 
L 675.699363 151.850064 
L 676.27377 144.862749 
L 676.848176 140.11794 
L 677.422583 137.763379 
L 677.996989 137.767193 
L 678.571395 139.922418 
L 679.145802 143.863207 
L 680.294615 155.013295 
L 681.443428 166.3324 
L 682.017834 170.452536 
L 682.592241 172.801638 
L 683.166647 172.961842 
L 683.741054 170.66633 
L 684.31546 165.820152 
L 684.889867 158.509715 
L 686.03868 137.721515 
L 688.910712 77.439349 
L 689.485119 69.602057 
L 690.059525 64.608989 
L 690.633932 62.828916 
L 691.208338 64.452161 
L 691.782745 69.477047 
L 692.357151 77.708401 
L 692.931558 88.768244 
L 694.080371 117.090691 
L 696.377997 177.770956 
L 696.952403 189.411156 
L 697.526809 198.453395 
L 698.101216 204.559908 
L 698.675622 207.576153 
L 699.250029 207.537326 
L 699.824435 204.662726 
L 700.398842 199.338368 
L 701.547655 183.541565 
L 703.270874 156.987016 
L 703.845281 150.002233 
L 704.419687 144.823579 
L 704.994094 141.772221 
L 705.5685 141.0009 
L 706.142907 142.484673 
L 706.717313 146.023626 
L 707.29172 151.257363 
L 710.163752 182.870305 
L 710.738159 185.851927 
L 711.312565 186.47198 
L 711.886972 184.437697 
L 712.461378 179.62861 
L 713.035785 172.108064 
L 713.610191 162.12275 
L 714.759004 136.575235 
L 717.05663 82.068787 
L 717.631036 72.068634 
L 718.205443 64.811142 
L 718.779849 60.723698 
L 719.354256 60.058755 
L 719.928662 62.877763 
L 720.503069 69.047053 
L 721.077475 78.245952 
L 722.226288 103.644233 
L 724.523914 162.471555 
L 725.672727 184.280269 
L 726.247134 191.392888 
L 726.82154 195.663095 
L 727.395947 197.085326 
L 727.970353 195.836709 
L 728.54476 192.261879 
L 729.119166 186.847006 
L 731.991199 154.2176 
L 732.565605 150.875334 
L 733.140012 149.630598 
L 733.714418 150.638604 
L 734.288825 153.877754 
L 734.863231 159.150589 
L 736.012044 174.216016 
L 737.735263 199.277193 
L 738.30967 205.608896 
L 738.884076 209.89075 
L 739.458483 211.64472 
L 740.032889 210.54042 
L 740.607296 206.419815 
L 741.181702 199.310922 
L 741.756109 189.429553 
L 742.904922 163.078035 
L 745.202548 102.837838 
L 745.776954 90.656926 
L 746.351361 81.000737 
L 746.925767 74.352101 
L 747.500174 71.024304 
L 748.07458 71.142541 
L 748.648987 74.637185 
L 749.223393 81.249285 
L 749.7978 90.547931 
L 750.946613 114.798808 
L 752.669832 154.416526 
L 753.818645 174.790727 
L 754.393052 181.599491 
L 754.967458 185.81181 
L 755.541865 187.394359 
L 756.116271 186.494597 
L 756.690677 183.427637 
L 757.265084 178.652129 
L 759.56271 154.608385 
L 760.137116 150.52764 
L 760.711523 148.286988 
L 761.285929 148.211541 
L 761.860336 150.462081 
L 762.434742 155.022354 
L 763.009149 161.698228 
L 764.157962 179.808681 
L 765.881181 209.851036 
L 766.455588 217.855258 
L 767.029994 223.754917 
L 767.604401 227.027492 
L 768.178807 227.295049 
L 768.753214 224.351053 
L 769.32762 218.176379 
L 769.902027 208.943458 
L 771.05084 182.890415 
L 773.922872 104.782177 
L 774.497279 92.987799 
L 775.071685 83.954795 
L 775.646091 78.050777 
L 776.220498 75.459922 
L 776.794904 76.173708 
L 777.369311 79.993832 
L 777.943717 86.547098 
L 779.09253 105.65021 
L 781.390156 148.495116 
L 781.964563 156.277207 
L 782.538969 161.908939 
L 783.113376 165.162647 
L 783.687782 165.988936 
L 784.262189 164.517393 
L 784.836595 161.045361 
L 785.411002 156.015564 
L 787.708628 132.277436 
L 788.283034 128.598822 
L 788.857441 126.904167 
L 789.431847 127.530697 
L 790.006254 130.652027 
L 790.58066 136.263636 
L 791.155067 144.180144 
L 792.30388 165.349258 
L 794.601506 211.474159 
L 795.175912 219.631434 
L 795.750318 225.16721 
L 796.324725 227.648928 
L 796.899131 226.812961 
L 797.473538 222.583035 
L 798.047944 215.076897 
L 798.622351 204.600758 
L 799.771164 176.790217 
L 802.06879 113.847408 
L 803.217603 90.700748 
L 803.792009 83.228373 
L 804.366416 78.860188 
L 804.940822 77.640424 
L 805.515229 79.424687 
L 806.089635 83.892437 
L 806.664042 90.570637 
L 807.812855 108.110624 
L 808.961668 126.637127 
L 809.536074 134.599314 
L 810.110481 140.954714 
L 810.684887 145.309789 
L 811.259294 147.431953 
L 811.8337 147.263912 
L 812.408107 144.9262 
L 812.982513 140.707752 
L 814.131326 128.491998 
L 815.280139 115.275934 
L 815.854545 109.933486 
L 816.428952 106.24901 
L 817.003358 104.718453 
L 817.577765 105.701659 
L 818.152171 109.395304 
L 818.726578 115.816428 
L 819.300984 124.79769 
L 820.449797 148.90504 
L 822.747423 203.970071 
L 823.32183 214.851799 
L 823.896236 223.21938 
L 824.470643 228.583212 
L 825.045049 230.618368 
L 825.619456 229.185457 
L 826.193862 224.339874 
L 826.768269 216.328845 
L 827.342675 205.576452 
L 828.491488 178.262453 
L 830.214708 133.930554 
L 831.363521 110.752313 
L 831.937927 102.791449 
L 832.512334 97.666119 
L 833.08674 95.461744 
L 833.661146 96.077443 
L 834.235553 99.23622 
L 834.809959 104.506497 
L 835.958772 119.078647 
L 837.107585 134.617492 
L 837.681992 141.122318 
L 838.256398 146.055433 
L 838.830805 149.024918 
L 839.405211 149.79626 
L 839.979618 148.308341 
L 840.554024 144.677741 
L 841.128431 139.191056 
L 842.277244 124.52067 
L 843.426057 109.022233 
L 844.000463 102.648345 
L 844.57487 98.04072 
L 845.149276 95.72711 
L 845.723683 96.101811 
L 846.298089 99.396741 
L 846.872496 105.662885 
L 847.446902 114.763361 
L 848.595715 140.023458 
L 851.467748 214.290859 
L 852.042154 225.080955 
L 852.616561 233.016268 
L 853.190967 237.712316 
L 853.765373 238.966441 
L 854.33978 236.769648 
L 854.914186 231.306282 
L 855.488593 222.941592 
L 856.637406 199.721562 
L 858.935032 147.321385 
L 859.509438 137.130776 
L 860.083845 129.201845 
L 860.658251 123.828331 
L 861.232658 121.124535 
L 861.807064 121.021329 
L 862.381471 123.274221 
L 862.955877 127.482893 
L 864.10469 139.573464 
L 865.253503 152.286013 
L 865.82791 157.277723 
L 866.402316 160.636264 
L 866.976723 161.968536 
L 867.551129 161.036406 
L 868.125536 157.774357 
L 868.699942 152.295559 
L 869.274349 144.885936 
L 870.423162 126.165787 
L 871.571975 106.44127 
L 872.146381 97.949935 
L 872.720787 91.268209 
L 873.295194 86.965415 
L 873.8696 85.481108 
L 874.444007 87.094189 
L 875.018413 91.902142 
L 875.59282 99.81175 
L 876.167226 110.541954 
L 877.316039 138.500931 
L 879.613665 200.59713 
L 880.188072 212.925798 
L 880.762478 222.652611 
L 881.336885 229.340547 
L 881.911291 232.728938 
L 882.485698 232.747794 
L 883.060104 229.520074 
L 883.634511 223.351801 
L 884.208917 214.710679 
L 885.35773 192.49228 
L 887.08095 157.55633 
L 887.655356 148.205096 
L 888.229763 140.874281 
L 888.804169 135.870078 
L 889.378576 133.323984 
L 889.952982 133.186855 
L 890.527389 135.234999 
L 891.101795 139.087856 
L 892.250608 150.078082 
L 893.399421 161.235872 
L 893.973827 165.285255 
L 894.548234 167.585274 
L 895.12264 167.734004 
L 895.697047 165.482854 
L 896.271453 160.755945 
L 896.84586 153.658024 
L 897.994673 133.634889 
L 900.292299 86.546688 
L 900.866705 77.415562 
L 901.441112 70.671967 
L 902.015518 66.807594 
L 902.589925 66.156648 
L 903.164331 68.872775 
L 903.738738 74.917314 
L 904.313144 84.059662 
L 905.461957 109.841883 
L 908.33399 185.5298 
L 908.908396 196.598838 
L 909.482803 204.91698 
L 910.057209 210.174661 
L 910.631616 212.248468 
L 911.206022 211.205883 
L 911.780428 207.297881 
L 912.354835 200.939873 
L 913.503648 183.172761 
L 915.226867 154.129018 
L 915.801274 146.456888 
L 916.37568 140.653647 
L 916.950087 137.029257 
L 917.524493 135.722958 
L 918.0989 136.695516 
L 918.673306 139.73346 
L 919.247713 144.46502 
L 922.119745 173.438468 
L 922.694152 175.914277 
L 923.268558 176.073883 
L 923.842965 173.647423 
L 924.417371 168.538286 
L 924.991778 160.833001 
L 926.140591 138.871131 
L 929.012623 73.838894 
L 929.58703 64.864114 
L 930.161436 58.720136 
L 930.735843 55.8 
L 931.310249 56.318797 
L 931.884655 60.299388 
L 932.459062 67.570169 
L 933.033468 77.775032 
L 934.182281 104.779416 
L 936.479907 164.730873 
L 937.054314 176.61314 
L 937.62872 186.061385 
L 938.203127 192.729161 
L 938.777533 196.450622 
L 939.35194 197.247595 
L 939.926346 195.324508 
L 940.500753 191.051577 
L 941.075159 184.937394 
L 943.947192 149.240153 
L 944.521598 145.384737 
L 945.096005 143.643501 
L 945.670411 144.158587 
L 946.244818 146.894849 
L 946.819224 151.642315 
L 947.968037 165.553244 
L 949.691257 188.604762 
L 950.265663 194.225543 
L 950.840069 197.805582 
L 951.414476 198.891303 
L 951.988882 197.179622 
L 952.563289 192.54113 
L 953.137695 185.032105 
L 953.712102 174.894536 
L 954.860915 148.546802 
L 957.158541 90.615779 
L 957.732947 79.453324 
L 958.307354 70.949136 
L 958.88176 65.553928 
L 959.456167 63.544968 
L 960.030573 65.009283 
L 960.60498 69.838793 
L 961.179386 77.737669 
L 962.328199 100.746652 
L 965.200232 167.665855 
L 965.774638 177.062404 
L 966.349045 183.954779 
L 966.923451 188.147888 
L 967.497858 189.630496 
L 968.072264 188.572333 
L 968.646671 185.309389 
L 969.221077 180.318382 
L 971.518703 155.425607 
L 972.093109 151.143587 
L 972.667516 148.692407 
L 973.241922 148.384065 
L 973.816329 150.364554 
L 974.390735 154.602646 
L 974.965142 160.890592 
L 976.113955 177.988971 
L 977.837174 205.905357 
L 978.411581 213.075739 
L 978.985987 218.111862 
L 979.560394 220.518565 
L 980.1348 219.948754 
L 980.709207 216.228666 
L 981.283613 209.372171 
L 981.85802 199.583111 
L 983.006833 172.902197 
L 985.878865 96.641168 
L 986.453272 85.766024 
L 987.027678 77.786154 
L 987.602085 73.036706 
L 988.176491 71.666419 
L 988.750898 73.630179 
L 989.325304 78.693778 
L 989.89971 86.450559 
L 991.048523 107.728346 
L 992.771743 143.449187 
L 993.920556 161.762852 
L 994.494962 167.727965 
L 995.069369 171.226534 
L 995.643775 172.226812 
L 996.218182 170.876242 
L 996.218182 170.876242 
" style="fill:none;stroke:#4c72b0;stroke-linecap:round;stroke-width:1.4;"/>
   </g>
   <g id="line2d_26">
    <path clip-path="url(#pbe08ebaee0)" d="M 184.581818 161.239567 
L 193.772322 175.805355 
L 224.215866 224.446298 
L 231.68315 235.757665 
L 238.001621 244.939089 
L 243.745686 252.910075 
L 248.915345 259.732899 
L 254.085003 266.185265 
L 258.680255 271.581784 
L 263.275507 276.63555 
L 267.296352 280.759635 
L 271.317197 284.591637 
L 275.338043 288.119194 
L 279.358888 291.330928 
L 282.805327 293.824602 
L 286.251766 296.072725 
L 289.698205 298.069986 
L 293.144644 299.811673 
L 296.591083 301.293686 
L 300.037522 302.512542 
L 303.483961 303.465391 
L 306.9304 304.150016 
L 309.802432 304.514487 
L 312.674464 304.691015 
L 315.546497 304.679343 
L 318.418529 304.479525 
L 321.290562 304.091926 
L 324.737001 303.379914 
L 328.183439 302.400253 
L 331.629878 301.155344 
L 335.076317 299.64822 
L 338.522756 297.882543 
L 341.969195 295.862592 
L 345.415634 293.593253 
L 348.862073 291.080008 
L 352.882918 287.847742 
L 356.903764 284.302378 
L 360.924609 280.455539 
L 364.945455 276.31983 
L 369.540706 271.257003 
L 374.135958 265.856241 
L 379.305617 259.405233 
L 384.475275 252.590645 
L 390.21934 244.637314 
L 396.537811 235.486152 
L 403.430689 225.106517 
L 412.046786 211.69836 
L 424.683729 191.559066 
L 439.618298 167.830677 
L 448.234395 154.569776 
L 455.127273 144.35654 
L 461.445744 135.394409 
L 467.189809 127.64191 
L 472.359467 121.030538 
L 477.529126 114.802897 
L 482.124378 109.61663 
L 486.719629 104.782356 
L 490.740475 100.857398 
L 494.76132 97.23064 
L 498.782166 93.913969 
L 502.803011 90.918262 
L 506.24945 88.613458 
L 509.695889 86.557272 
L 513.142328 84.754674 
L 516.588767 83.210031 
L 520.035206 81.927089 
L 523.481644 80.908973 
L 526.928083 80.158172 
L 530.374522 79.676539 
L 533.246555 79.481682 
L 536.118587 79.474955 
L 538.99062 79.656401 
L 541.862652 80.025752 
L 545.309091 80.716171 
L 548.75553 81.67473 
L 552.201969 82.899196 
L 555.648408 84.386701 
L 559.094847 86.133748 
L 562.541285 88.136219 
L 565.987724 90.389387 
L 569.434163 92.887926 
L 573.455009 96.105088 
L 577.475854 99.637783 
L 581.496699 103.474613 
L 585.517545 107.603191 
L 590.112797 112.661659 
L 594.708049 118.062388 
L 599.877707 124.51887 
L 605.047365 131.345116 
L 610.79143 139.319053 
L 617.109902 148.502642 
L 624.002779 158.929826 
L 632.04447 171.504836 
L 643.5326 189.924675 
L 661.339201 218.491296 
L 669.955298 231.858835 
L 676.848176 242.153268 
L 683.166647 251.186745 
L 688.910712 259.001656 
L 694.080371 265.6673 
L 699.250029 271.947511 
L 703.845281 277.179162 
L 708.440533 282.057631 
L 712.461378 286.020348 
L 716.482224 289.684076 
L 720.503069 293.036987 
L 724.523914 296.068265 
L 727.970353 298.403076 
L 731.416792 300.488867 
L 734.863231 302.320709 
L 738.30967 303.894279 
L 741.756109 305.205875 
L 745.202548 306.252416 
L 748.648987 307.031457 
L 752.095426 307.541192 
L 754.967458 307.759392 
L 757.83949 307.789425 
L 760.711523 307.631272 
L 763.583555 307.285228 
L 767.029994 306.622833 
L 770.476433 305.692402 
L 773.922872 304.496211 
L 777.369311 303.037175 
L 780.81575 301.318833 
L 784.262189 299.345346 
L 787.708628 297.121485 
L 791.155067 294.652618 
L 795.175912 291.470588 
L 799.196757 287.973638 
L 803.217603 284.173228 
L 807.238448 280.081803 
L 811.8337 275.066765 
L 816.428952 269.710576 
L 821.59861 263.30562 
L 826.768269 256.532496 
L 832.512334 248.619561 
L 838.830805 239.505605 
L 845.723683 229.157544 
L 853.765373 216.679174 
L 865.253503 198.40574 
L 883.060104 170.085731 
L 891.101795 157.712952 
L 897.994673 147.49019 
L 904.313144 138.518235 
L 910.057209 130.755939 
L 915.226867 124.135083 
L 920.396526 117.897359 
L 924.991778 112.701656 
L 929.58703 107.857532 
L 933.607875 103.923638 
L 937.62872 100.287671 
L 941.649566 96.961538 
L 945.670411 93.956141 
L 949.11685 91.642866 
L 952.563289 89.578074 
L 956.009728 87.76675 
L 959.456167 86.213276 
L 962.902606 84.921416 
L 966.349045 83.89431 
L 969.795483 83.134465 
L 973.241922 82.643748 
L 976.113955 82.441304 
L 978.985987 82.426985 
L 981.85802 82.600842 
L 984.730052 82.96262 
L 988.176491 83.643982 
L 991.62293 84.593535 
L 995.069369 85.809063 
L 996.218182 86.27287 
L 996.218182 86.27287 
" style="fill:none;stroke:#55a868;stroke-linecap:round;stroke-width:1.4;"/>
   </g>
   <g id="patch_3">
    <path d="M 144 320.4 
L 144 43.2 
" style="fill:none;"/>
   </g>
   <g id="patch_4">
    <path d="M 1036.8 320.4 
L 1036.8 43.2 
" style="fill:none;"/>
   </g>
   <g id="patch_5">
    <path d="M 144 320.4 
L 1036.8 320.4 
" style="fill:none;"/>
   </g>
   <g id="patch_6">
    <path d="M 144 43.2 
L 1036.8 43.2 
" style="fill:none;"/>
   </g>
   <g id="legend_1">
    <g id="line2d_27">
     <path d="M 1002.75125 53.3975 
L 1018.75125 53.3975 
" style="fill:none;stroke:#4c72b0;stroke-linecap:round;stroke-width:1.4;"/>
    </g>
    <g id="line2d_28"/>
    <g id="text_13">
     <!-- a -->
     <defs>
      <path d="M 20.21875 -0.984375 
Q 12.25 -0.984375 8.25 3.21875 
Q 4.25 7.421875 4.25 14.75 
Q 4.25 19.96875 6.21875 23.3125 
Q 8.203125 26.65625 11.390625 28.5625 
Q 14.59375 30.46875 18.6875 31.203125 
Q 22.796875 31.9375 27.046875 32.03125 
L 38.921875 32.234375 
L 38.921875 35.109375 
Q 38.921875 38.375 38.234375 40.671875 
Q 37.546875 42.96875 36.125 44.375 
Q 34.71875 45.796875 32.59375 46.453125 
Q 30.46875 47.125 27.59375 47.125 
Q 25.046875 47.125 23 46.75 
Q 20.953125 46.390625 19.4375 45.4375 
Q 17.921875 44.484375 16.984375 42.84375 
Q 16.0625 41.21875 15.765625 38.71875 
L 6.59375 39.546875 
Q 7.078125 42.671875 8.4375 45.28125 
Q 9.8125 47.90625 12.328125 49.796875 
Q 14.84375 51.703125 18.625 52.75 
Q 22.40625 53.8125 27.78125 53.8125 
Q 37.75 53.8125 42.765625 49.234375 
Q 47.796875 44.671875 47.796875 36.03125 
L 47.796875 13.28125 
Q 47.796875 9.375 48.828125 7.390625 
Q 49.859375 5.421875 52.734375 5.421875 
Q 53.46875 5.421875 54.203125 5.515625 
Q 54.9375 5.609375 55.609375 5.765625 
L 55.609375 0.296875 
Q 53.953125 -0.09375 52.3125 -0.28125 
Q 50.6875 -0.484375 48.828125 -0.484375 
Q 46.34375 -0.484375 44.5625 0.171875 
Q 42.78125 0.828125 41.65625 2.171875 
Q 40.53125 3.515625 39.9375 5.484375 
Q 39.359375 7.46875 39.203125 10.109375 
L 38.921875 10.109375 
Q 37.5 7.5625 35.8125 5.515625 
Q 34.125 3.46875 31.875 2.03125 
Q 29.640625 0.59375 26.78125 -0.1875 
Q 23.921875 -0.984375 20.21875 -0.984375 
M 22.21875 5.609375 
Q 26.421875 5.609375 29.5625 7.140625 
Q 32.71875 8.6875 34.78125 11.078125 
Q 36.859375 13.484375 37.890625 16.3125 
Q 38.921875 19.140625 38.921875 21.734375 
L 38.921875 26.078125 
L 29.296875 25.875 
Q 26.078125 25.828125 23.171875 25.40625 
Q 20.265625 25 18.0625 23.78125 
Q 15.875 22.5625 14.578125 20.359375 
Q 13.28125 18.171875 13.28125 14.59375 
Q 13.28125 10.296875 15.59375 7.953125 
Q 17.921875 5.609375 22.21875 5.609375 
" id="LiberationSans-61"/>
     </defs>
     <g style="fill:#262626;" transform="translate(1025.15125 56.1975)scale(0.08 -0.08)">
      <use xlink:href="#LiberationSans-61"/>
     </g>
    </g>
    <g id="line2d_29">
     <path d="M 1002.75125 64.855 
L 1018.75125 64.855 
" style="fill:none;stroke:#55a868;stroke-linecap:round;stroke-width:1.4;"/>
    </g>
    <g id="line2d_30"/>
    <g id="text_14">
     <!-- b -->
     <defs>
      <path d="M 51.421875 26.65625 
Q 51.421875 -0.984375 31.984375 -0.984375 
Q 25.984375 -0.984375 22 1.1875 
Q 18.015625 3.375 15.53125 8.203125 
L 15.4375 8.203125 
Q 15.4375 6.9375 15.359375 5.5625 
Q 15.28125 4.203125 15.203125 3.03125 
Q 15.140625 1.859375 15.0625 1.03125 
Q 14.984375 0.203125 14.9375 0 
L 6.453125 0 
Q 6.5 0.4375 6.546875 1.484375 
Q 6.59375 2.546875 6.640625 4 
Q 6.6875 5.46875 6.703125 7.21875 
Q 6.734375 8.984375 6.734375 10.890625 
L 6.734375 72.46875 
L 15.53125 72.46875 
L 15.53125 51.8125 
Q 15.53125 50.34375 15.5 49 
Q 15.484375 47.65625 15.4375 46.625 
Q 15.375 45.40625 15.328125 44.34375 
L 15.53125 44.34375 
Q 17.96875 49.421875 22 51.609375 
Q 26.03125 53.8125 31.984375 53.8125 
Q 42 53.8125 46.703125 47.0625 
Q 51.421875 40.328125 51.421875 26.65625 
M 42.1875 26.375 
Q 42.1875 31.84375 41.5 35.75 
Q 40.828125 39.65625 39.3125 42.15625 
Q 37.796875 44.671875 35.453125 45.84375 
Q 33.109375 47.015625 29.734375 47.015625 
Q 26.265625 47.015625 23.609375 45.890625 
Q 20.953125 44.78125 19.171875 42.28125 
Q 17.390625 39.796875 16.453125 35.734375 
Q 15.53125 31.6875 15.53125 25.828125 
Q 15.53125 20.171875 16.453125 16.3125 
Q 17.390625 12.453125 19.171875 10.03125 
Q 20.953125 7.625 23.578125 6.5625 
Q 26.21875 5.515625 29.640625 5.515625 
Q 32.859375 5.515625 35.203125 6.640625 
Q 37.546875 7.765625 39.109375 10.25 
Q 40.671875 12.75 41.421875 16.71875 
Q 42.1875 20.703125 42.1875 26.375 
" id="LiberationSans-62"/>
     </defs>
     <g style="fill:#262626;" transform="translate(1025.15125 67.655)scale(0.08 -0.08)">
      <use xlink:href="#LiberationSans-62"/>
     </g>
    </g>
   </g>
  </g>
 </g>
 <defs>
  <clipPath id="pbe08ebaee0">
   <rect height="277.2" width="892.8" x="144" y="43.2"/>
  </clipPath>
 </defs>
</svg>
