<?xml version="1.0" encoding="utf-8" standalone="no"?>
<!DOCTYPE svg PUBLIC "-//W3C//DTD SVG 1.1//EN"
  "http://www.w3.org/Graphics/SVG/1.1/DTD/svg11.dtd">
<!-- Created with matplotlib (http://matplotlib.org/) -->
<svg height="360pt" version="1.1" viewBox="0 0 1152 360" width="1152pt" xmlns="http://www.w3.org/2000/svg" xmlns:xlink="http://www.w3.org/1999/xlink">
 <defs>
  <style type="text/css">
*{stroke-linecap:butt;stroke-linejoin:round;}
  </style>
 </defs>
 <g id="figure_1">
  <g id="patch_1">
   <path d="M 0 360 
L 1152 360 
L 1152 0 
L 0 0 
z
" style="fill:#ffffff;"/>
  </g>
  <g id="axes_1">
   <g id="patch_2">
    <path d="M 144 320.4 
L 1036.8 320.4 
L 1036.8 43.2 
L 144 43.2 
z
" style="fill:#eaeaf2;"/>
   </g>
   <g id="matplotlib.axis_1">
    <g id="xtick_1">
     <g id="line2d_1">
      <path clip-path="url(#p7e9e76fb48)" d="M 184.581818 320.4 
L 184.581818 43.2 
" style="fill:none;stroke:#ffffff;stroke-linecap:round;stroke-width:0.8;"/>
     </g>
     <g id="line2d_2"/>
     <g id="text_1">
      <!-- 0.000 -->
      <defs>
       <path d="M 51.703125 34.421875 
Q 51.703125 24.515625 49.828125 17.75 
Q 47.953125 10.984375 44.703125 6.8125 
Q 41.453125 2.640625 37.0625 0.828125 
Q 32.671875 -0.984375 27.6875 -0.984375 
Q 22.65625 -0.984375 18.3125 0.828125 
Q 13.96875 2.640625 10.765625 6.78125 
Q 7.5625 10.9375 5.734375 17.703125 
Q 3.90625 24.46875 3.90625 34.421875 
Q 3.90625 44.828125 5.734375 51.640625 
Q 7.5625 58.453125 10.78125 62.5 
Q 14.015625 66.546875 18.40625 68.1875 
Q 22.796875 69.828125 27.984375 69.828125 
Q 32.90625 69.828125 37.21875 68.1875 
Q 41.546875 66.546875 44.765625 62.5 
Q 48 58.453125 49.84375 51.640625 
Q 51.703125 44.828125 51.703125 34.421875 
M 42.78125 34.421875 
Q 42.78125 42.625 41.796875 48.0625 
Q 40.828125 53.515625 38.921875 56.765625 
Q 37.015625 60.015625 34.25 61.359375 
Q 31.5 62.703125 27.984375 62.703125 
Q 24.265625 62.703125 21.4375 61.328125 
Q 18.609375 59.96875 16.671875 56.71875 
Q 14.75 53.46875 13.765625 48.015625 
Q 12.796875 42.578125 12.796875 34.421875 
Q 12.796875 26.515625 13.796875 21.09375 
Q 14.796875 15.671875 16.71875 12.375 
Q 18.65625 9.078125 21.4375 7.640625 
Q 24.21875 6.203125 27.78125 6.203125 
Q 31.25 6.203125 34.03125 7.640625 
Q 36.8125 9.078125 38.734375 12.375 
Q 40.671875 15.671875 41.71875 21.09375 
Q 42.78125 26.515625 42.78125 34.421875 
" id="LiberationSans-30"/>
       <path d="M 9.125 0 
L 9.125 10.6875 
L 18.65625 10.6875 
L 18.65625 0 
z
" id="LiberationSans-2e"/>
      </defs>
      <g style="fill:#262626;" transform="translate(174.573068 331.7975)scale(0.08 -0.08)">
       <use xlink:href="#LiberationSans-30"/>
       <use x="55.615234" xlink:href="#LiberationSans-2e"/>
       <use x="83.398438" xlink:href="#LiberationSans-30"/>
       <use x="139.013672" xlink:href="#LiberationSans-30"/>
       <use x="194.628906" xlink:href="#LiberationSans-30"/>
      </g>
     </g>
    </g>
    <g id="xtick_2">
     <g id="line2d_3">
      <path clip-path="url(#p7e9e76fb48)" d="M 311.238448 320.4 
L 311.238448 43.2 
" style="fill:none;stroke:#ffffff;stroke-linecap:round;stroke-width:0.8;"/>
     </g>
     <g id="line2d_4"/>
     <g id="text_2">
      <!-- 0.005 -->
      <defs>
       <path d="M 51.421875 22.40625 
Q 51.421875 17.234375 49.859375 12.9375 
Q 48.296875 8.640625 45.21875 5.53125 
Q 42.140625 2.4375 37.578125 0.71875 
Q 33.015625 -0.984375 27 -0.984375 
Q 21.578125 -0.984375 17.546875 0.28125 
Q 13.53125 1.5625 10.734375 3.78125 
Q 7.953125 6 6.3125 8.984375 
Q 4.6875 11.96875 4 15.375 
L 12.890625 16.40625 
Q 13.421875 14.453125 14.390625 12.625 
Q 15.375 10.796875 17.0625 9.34375 
Q 18.75 7.90625 21.21875 7.046875 
Q 23.6875 6.203125 27.203125 6.203125 
Q 30.609375 6.203125 33.390625 7.25 
Q 36.1875 8.296875 38.15625 10.34375 
Q 40.140625 12.40625 41.203125 15.375 
Q 42.28125 18.359375 42.28125 22.21875 
Q 42.28125 25.390625 41.25 28.046875 
Q 40.234375 30.71875 38.328125 32.640625 
Q 36.421875 34.578125 33.65625 35.640625 
Q 30.90625 36.71875 27.390625 36.71875 
Q 25.203125 36.71875 23.34375 36.328125 
Q 21.484375 35.9375 19.890625 35.25 
Q 18.3125 34.578125 17.015625 33.671875 
Q 15.71875 32.765625 14.59375 31.78125 
L 6 31.78125 
L 8.296875 68.796875 
L 47.40625 68.796875 
L 47.40625 61.328125 
L 16.3125 61.328125 
L 14.984375 39.5 
Q 17.328125 41.3125 20.84375 42.59375 
Q 24.359375 43.890625 29.203125 43.890625 
Q 34.328125 43.890625 38.421875 42.328125 
Q 42.53125 40.765625 45.40625 37.90625 
Q 48.296875 35.0625 49.859375 31.109375 
Q 51.421875 27.15625 51.421875 22.40625 
" id="LiberationSans-35"/>
      </defs>
      <g style="fill:#262626;" transform="translate(301.229698 331.7975)scale(0.08 -0.08)">
       <use xlink:href="#LiberationSans-30"/>
       <use x="55.615234" xlink:href="#LiberationSans-2e"/>
       <use x="83.398438" xlink:href="#LiberationSans-30"/>
       <use x="139.013672" xlink:href="#LiberationSans-30"/>
       <use x="194.628906" xlink:href="#LiberationSans-35"/>
      </g>
     </g>
    </g>
    <g id="xtick_3">
     <g id="line2d_5">
      <path clip-path="url(#p7e9e76fb48)" d="M 437.895078 320.4 
L 437.895078 43.2 
" style="fill:none;stroke:#ffffff;stroke-linecap:round;stroke-width:0.8;"/>
     </g>
     <g id="line2d_6"/>
     <g id="text_3">
      <!-- 0.010 -->
      <defs>
       <path d="M 7.625 0 
L 7.625 7.46875 
L 25.140625 7.46875 
L 25.140625 60.40625 
L 9.625 49.3125 
L 9.625 57.625 
L 25.875 68.796875 
L 33.984375 68.796875 
L 33.984375 7.46875 
L 50.734375 7.46875 
L 50.734375 0 
z
" id="LiberationSans-31"/>
      </defs>
      <g style="fill:#262626;" transform="translate(427.886328 331.7975)scale(0.08 -0.08)">
       <use xlink:href="#LiberationSans-30"/>
       <use x="55.615234" xlink:href="#LiberationSans-2e"/>
       <use x="83.398438" xlink:href="#LiberationSans-30"/>
       <use x="139.013672" xlink:href="#LiberationSans-31"/>
       <use x="194.628906" xlink:href="#LiberationSans-30"/>
      </g>
     </g>
    </g>
    <g id="xtick_4">
     <g id="line2d_7">
      <path clip-path="url(#p7e9e76fb48)" d="M 564.551708 320.4 
L 564.551708 43.2 
" style="fill:none;stroke:#ffffff;stroke-linecap:round;stroke-width:0.8;"/>
     </g>
     <g id="line2d_8"/>
     <g id="text_4">
      <!-- 0.015 -->
      <g style="fill:#262626;" transform="translate(554.542958 331.7975)scale(0.08 -0.08)">
       <use xlink:href="#LiberationSans-30"/>
       <use x="55.615234" xlink:href="#LiberationSans-2e"/>
       <use x="83.398438" xlink:href="#LiberationSans-30"/>
       <use x="139.013672" xlink:href="#LiberationSans-31"/>
       <use x="194.628906" xlink:href="#LiberationSans-35"/>
      </g>
     </g>
    </g>
    <g id="xtick_5">
     <g id="line2d_9">
      <path clip-path="url(#p7e9e76fb48)" d="M 691.208338 320.4 
L 691.208338 43.2 
" style="fill:none;stroke:#ffffff;stroke-linecap:round;stroke-width:0.8;"/>
     </g>
     <g id="line2d_10"/>
     <g id="text_5">
      <!-- 0.020 -->
      <defs>
       <path d="M 5.03125 0 
L 5.03125 6.203125 
Q 7.515625 11.921875 11.109375 16.28125 
Q 14.703125 20.65625 18.65625 24.1875 
Q 22.609375 27.734375 26.484375 30.765625 
Q 30.375 33.796875 33.5 36.8125 
Q 36.625 39.84375 38.546875 43.15625 
Q 40.484375 46.484375 40.484375 50.6875 
Q 40.484375 53.609375 39.59375 55.828125 
Q 38.71875 58.0625 37.0625 59.5625 
Q 35.40625 61.078125 33.078125 61.828125 
Q 30.765625 62.59375 27.9375 62.59375 
Q 25.296875 62.59375 22.96875 61.859375 
Q 20.65625 61.140625 18.84375 59.671875 
Q 17.046875 58.203125 15.890625 56.03125 
Q 14.75 53.859375 14.40625 50.984375 
L 5.421875 51.8125 
Q 5.859375 55.515625 7.46875 58.78125 
Q 9.078125 62.0625 11.90625 64.53125 
Q 14.75 67 18.71875 68.40625 
Q 22.703125 69.828125 27.9375 69.828125 
Q 33.0625 69.828125 37.0625 68.609375 
Q 41.0625 67.390625 43.8125 64.984375 
Q 46.578125 62.59375 48.046875 59.078125 
Q 49.515625 55.5625 49.515625 50.984375 
Q 49.515625 47.515625 48.265625 44.390625 
Q 47.015625 41.265625 44.9375 38.421875 
Q 42.875 35.59375 40.140625 32.953125 
Q 37.40625 30.328125 34.421875 27.8125 
Q 31.453125 25.296875 28.421875 22.828125 
Q 25.390625 20.359375 22.71875 17.859375 
Q 20.0625 15.375 17.96875 12.8125 
Q 15.875 10.25 14.703125 7.46875 
L 50.59375 7.46875 
L 50.59375 0 
z
" id="LiberationSans-32"/>
      </defs>
      <g style="fill:#262626;" transform="translate(681.199588 331.7975)scale(0.08 -0.08)">
       <use xlink:href="#LiberationSans-30"/>
       <use x="55.615234" xlink:href="#LiberationSans-2e"/>
       <use x="83.398438" xlink:href="#LiberationSans-30"/>
       <use x="139.013672" xlink:href="#LiberationSans-32"/>
       <use x="194.628906" xlink:href="#LiberationSans-30"/>
      </g>
     </g>
    </g>
    <g id="xtick_6">
     <g id="line2d_11">
      <path clip-path="url(#p7e9e76fb48)" d="M 817.864968 320.4 
L 817.864968 43.2 
" style="fill:none;stroke:#ffffff;stroke-linecap:round;stroke-width:0.8;"/>
     </g>
     <g id="line2d_12"/>
     <g id="text_6">
      <!-- 0.025 -->
      <g style="fill:#262626;" transform="translate(807.856218 331.7975)scale(0.08 -0.08)">
       <use xlink:href="#LiberationSans-30"/>
       <use x="55.615234" xlink:href="#LiberationSans-2e"/>
       <use x="83.398438" xlink:href="#LiberationSans-30"/>
       <use x="139.013672" xlink:href="#LiberationSans-32"/>
       <use x="194.628906" xlink:href="#LiberationSans-35"/>
      </g>
     </g>
    </g>
    <g id="xtick_7">
     <g id="line2d_13">
      <path clip-path="url(#p7e9e76fb48)" d="M 944.521598 320.4 
L 944.521598 43.2 
" style="fill:none;stroke:#ffffff;stroke-linecap:round;stroke-width:0.8;"/>
     </g>
     <g id="line2d_14"/>
     <g id="text_7">
      <!-- 0.030 -->
      <defs>
       <path d="M 51.21875 19 
Q 51.21875 14.265625 49.671875 10.546875 
Q 48.140625 6.84375 45.1875 4.265625 
Q 42.234375 1.703125 37.859375 0.359375 
Q 33.5 -0.984375 27.875 -0.984375 
Q 21.484375 -0.984375 17.109375 0.609375 
Q 12.75 2.203125 9.90625 4.8125 
Q 7.078125 7.421875 5.65625 10.765625 
Q 4.25 14.109375 3.8125 17.671875 
L 12.890625 18.5 
Q 13.28125 15.765625 14.328125 13.515625 
Q 15.375 11.28125 17.1875 9.671875 
Q 19 8.0625 21.625 7.171875 
Q 24.265625 6.296875 27.875 6.296875 
Q 34.515625 6.296875 38.296875 9.5625 
Q 42.09375 12.84375 42.09375 19.28125 
Q 42.09375 23.09375 40.40625 25.40625 
Q 38.71875 27.734375 36.203125 29.03125 
Q 33.6875 30.328125 30.734375 30.765625 
Q 27.78125 31.203125 25.296875 31.203125 
L 20.3125 31.203125 
L 20.3125 38.8125 
L 25.09375 38.8125 
Q 27.59375 38.8125 30.265625 39.328125 
Q 32.953125 39.84375 35.171875 41.1875 
Q 37.40625 42.53125 38.84375 44.828125 
Q 40.28125 47.125 40.28125 50.6875 
Q 40.28125 56.203125 37.03125 59.390625 
Q 33.796875 62.59375 27.390625 62.59375 
Q 21.578125 62.59375 17.984375 59.609375 
Q 14.40625 56.640625 13.8125 51.21875 
L 4.984375 51.90625 
Q 5.515625 56.453125 7.46875 59.8125 
Q 9.421875 63.1875 12.421875 65.40625 
Q 15.4375 67.625 19.28125 68.71875 
Q 23.140625 69.828125 27.484375 69.828125 
Q 33.25 69.828125 37.390625 68.375 
Q 41.546875 66.9375 44.1875 64.46875 
Q 46.828125 62.015625 48.0625 58.6875 
Q 49.3125 55.375 49.3125 51.609375 
Q 49.3125 48.578125 48.484375 45.9375 
Q 47.65625 43.3125 45.890625 41.203125 
Q 44.140625 39.109375 41.421875 37.59375 
Q 38.71875 36.078125 34.90625 35.296875 
L 34.90625 35.109375 
Q 39.0625 34.671875 42.140625 33.21875 
Q 45.21875 31.78125 47.21875 29.625 
Q 49.21875 27.484375 50.21875 24.75 
Q 51.21875 22.015625 51.21875 19 
" id="LiberationSans-33"/>
      </defs>
      <g style="fill:#262626;" transform="translate(934.512848 331.7975)scale(0.08 -0.08)">
       <use xlink:href="#LiberationSans-30"/>
       <use x="55.615234" xlink:href="#LiberationSans-2e"/>
       <use x="83.398438" xlink:href="#LiberationSans-30"/>
       <use x="139.013672" xlink:href="#LiberationSans-33"/>
       <use x="194.628906" xlink:href="#LiberationSans-30"/>
      </g>
     </g>
    </g>
   </g>
   <g id="matplotlib.axis_2">
    <g id="ytick_1">
     <g id="line2d_15">
      <path clip-path="url(#p7e9e76fb48)" d="M 144 273.990358 
L 1036.8 273.990358 
" style="fill:none;stroke:#ffffff;stroke-linecap:round;stroke-width:0.8;"/>
     </g>
     <g id="line2d_16"/>
     <g id="text_8">
      <!-- 1 -->
      <g style="fill:#262626;" transform="translate(133.95125 276.889108)scale(0.08 -0.08)">
       <use xlink:href="#LiberationSans-31"/>
      </g>
     </g>
    </g>
    <g id="ytick_2">
     <g id="line2d_17">
      <path clip-path="url(#p7e9e76fb48)" d="M 144 216.537396 
L 1036.8 216.537396 
" style="fill:none;stroke:#ffffff;stroke-linecap:round;stroke-width:0.8;"/>
     </g>
     <g id="line2d_18"/>
     <g id="text_9">
      <!-- 2 -->
      <g style="fill:#262626;" transform="translate(133.95125 219.436146)scale(0.08 -0.08)">
       <use xlink:href="#LiberationSans-32"/>
      </g>
     </g>
    </g>
    <g id="ytick_3">
     <g id="line2d_19">
      <path clip-path="url(#p7e9e76fb48)" d="M 144 159.084435 
L 1036.8 159.084435 
" style="fill:none;stroke:#ffffff;stroke-linecap:round;stroke-width:0.8;"/>
     </g>
     <g id="line2d_20"/>
     <g id="text_10">
      <!-- 3 -->
      <g style="fill:#262626;" transform="translate(133.95125 161.983185)scale(0.08 -0.08)">
       <use xlink:href="#LiberationSans-33"/>
      </g>
     </g>
    </g>
    <g id="ytick_4">
     <g id="line2d_21">
      <path clip-path="url(#p7e9e76fb48)" d="M 144 101.631473 
L 1036.8 101.631473 
" style="fill:none;stroke:#ffffff;stroke-linecap:round;stroke-width:0.8;"/>
     </g>
     <g id="line2d_22"/>
     <g id="text_11">
      <!-- 4 -->
      <defs>
       <path d="M 43.015625 15.578125 
L 43.015625 0 
L 34.71875 0 
L 34.71875 15.578125 
L 2.296875 15.578125 
L 2.296875 22.40625 
L 33.796875 68.796875 
L 43.015625 68.796875 
L 43.015625 22.515625 
L 52.6875 22.515625 
L 52.6875 15.578125 
z
M 34.71875 58.890625 
Q 34.625 58.640625 34.234375 57.9375 
Q 33.84375 57.234375 33.34375 56.34375 
Q 32.859375 55.46875 32.34375 54.5625 
Q 31.84375 53.65625 31.453125 53.078125 
L 13.8125 27.09375 
Q 13.578125 26.703125 13.109375 26.0625 
Q 12.640625 25.4375 12.15625 24.78125 
Q 11.671875 24.125 11.171875 23.484375 
Q 10.6875 22.859375 10.40625 22.515625 
L 34.71875 22.515625 
z
" id="LiberationSans-34"/>
      </defs>
      <g style="fill:#262626;" transform="translate(133.95125 104.530223)scale(0.08 -0.08)">
       <use xlink:href="#LiberationSans-34"/>
      </g>
     </g>
    </g>
    <g id="ytick_5">
     <g id="line2d_23">
      <path clip-path="url(#p7e9e76fb48)" d="M 144 44.178511 
L 1036.8 44.178511 
" style="fill:none;stroke:#ffffff;stroke-linecap:round;stroke-width:0.8;"/>
     </g>
     <g id="line2d_24"/>
     <g id="text_12">
      <!-- 5 -->
      <g style="fill:#262626;" transform="translate(133.95125 47.077261)scale(0.08 -0.08)">
       <use xlink:href="#LiberationSans-35"/>
      </g>
     </g>
    </g>
   </g>
   <g id="line2d_25">
    <path clip-path="url(#p7e9e76fb48)" d="M 184.581818 186.155637 
L 185.156225 157.287417 
L 185.730631 129.874776 
L 186.305038 105.914218 
L 186.879444 87.146948 
L 187.453851 74.927831 
L 188.028257 70.123438 
L 188.602664 73.046868 
L 189.17707 83.434277 
L 189.751477 100.464866 
L 190.90029 148.79659 
L 192.623509 228.198891 
L 193.197915 248.462215 
L 193.772322 262.824735 
L 194.346728 270.210391 
L 194.921135 270.073473 
L 195.495541 262.439219 
L 196.069948 247.901285 
L 196.644354 227.576277 
L 197.793167 176.103473 
L 198.94198 123.431033 
L 199.516387 101.688162 
L 200.090793 85.311615 
L 200.6652 75.551197 
L 201.239606 73.154069 
L 201.814013 78.307855 
L 202.388419 90.62603 
L 202.962826 109.17671 
L 204.111639 158.977305 
L 205.834858 236.162539 
L 206.409265 254.609868 
L 206.983671 266.75125 
L 207.558078 271.626157 
L 208.132484 268.817787 
L 208.706891 258.48489 
L 209.281297 241.350217 
L 210.43011 192.023771 
L 212.153329 108.658454 
L 212.727736 86.485669 
L 213.302142 70.030441 
L 213.876549 60.467583 
L 214.450955 58.453535 
L 215.025362 64.077514 
L 215.599768 76.85547 
L 216.174175 95.76727 
L 217.322988 145.731743 
L 218.471801 198.83193 
L 219.046207 221.464428 
L 219.620614 239.094702 
L 220.19502 250.377949 
L 220.769427 254.455653 
L 221.343833 251.020492 
L 221.91824 240.339547 
L 222.492646 223.234086 
L 223.641459 175.395627 
L 225.364679 98.21143 
L 225.939085 79.026408 
L 226.513492 65.880908 
L 227.087898 59.829339 
L 227.662305 61.394227 
L 228.236711 70.526094 
L 228.811118 86.606501 
L 229.959931 134.609624 
L 231.68315 218.617204 
L 232.257556 241.679838 
L 232.831963 259.269697 
L 233.406369 270.122239 
L 233.980776 273.477692 
L 234.555182 269.137933 
L 235.129589 257.481038 
L 235.703995 239.432412 
L 236.852808 190.141629 
L 238.576028 112.468879 
L 239.150434 93.532551 
L 239.724841 80.746996 
L 240.299247 75.08027 
L 240.873654 76.958583 
L 241.44806 86.234555 
L 242.022467 102.198804 
L 243.17128 148.907419 
L 244.894499 227.940861 
L 245.468906 248.64931 
L 246.043312 263.669771 
L 246.617719 271.852015 
L 247.192125 272.564026 
L 247.766532 265.740348 
L 248.340938 251.887633 
L 248.915345 232.046974 
L 250.064157 180.735558 
L 251.21297 127.064897 
L 251.787377 104.463011 
L 252.361783 87.080822 
L 252.93619 76.264417 
L 253.510596 72.870609 
L 254.085003 77.202233 
L 254.659409 88.985174 
L 255.233816 107.388866 
L 256.382629 158.365696 
L 258.105848 241.397974 
L 258.680255 262.771629 
L 259.254661 278.195981 
L 259.829068 286.598019 
L 260.403474 287.436097 
L 260.977881 280.740087 
L 261.552287 267.108397 
L 262.126694 247.662068 
L 263.275507 197.877767 
L 264.42432 146.81369 
L 264.998726 125.844453 
L 265.573133 110.218452 
L 266.147539 101.182263 
L 266.721946 99.479273 
L 267.296352 105.293182 
L 267.870759 118.233819 
L 268.445165 137.366357 
L 269.593978 188.202785 
L 271.317197 266.639107 
L 271.891604 285.43864 
L 272.46601 297.910597 
L 273.040417 303.102357 
L 273.614823 300.605391 
L 274.18923 290.586594 
L 274.763636 273.776241 
L 275.912449 225.153353 
L 277.635669 143.026908 
L 278.210075 121.31455 
L 278.784482 105.337224 
L 279.358888 96.263595 
L 279.933295 94.742864 
L 280.507701 100.856387 
L 281.082108 114.112112 
L 281.656514 133.48224 
L 282.805327 184.278576 
L 283.95414 238.06617 
L 284.528547 260.982032 
L 285.102953 278.855138 
L 285.67736 290.342027 
L 286.251766 294.586437 
L 286.826173 291.283812 
L 287.400579 280.704108 
L 287.974986 263.671145 
L 289.123798 215.897806 
L 290.847018 138.604246 
L 291.421424 119.31619 
L 291.995831 106.026087 
L 292.570237 99.78217 
L 293.144644 101.100522 
L 293.71905 109.92542 
L 294.293457 125.632849 
L 294.867863 147.076904 
L 296.591083 228.565373 
L 297.739896 276.95045 
L 298.314302 293.678485 
L 298.888709 303.617781 
L 299.463115 306.017681 
L 300.037522 300.689759 
L 300.611928 288.021856 
L 301.186335 268.948719 
L 302.335148 217.600947 
L 304.058367 136.906059 
L 304.632774 116.989443 
L 305.20718 103.236574 
L 305.781587 96.613197 
L 306.355993 97.542405 
L 306.9304 105.873307 
L 307.504806 120.89307 
L 308.653619 165.703354 
L 310.376838 241.851043 
L 310.951245 261.592194 
L 311.525651 275.648194 
L 312.100058 282.873447 
L 312.674464 282.64097 
L 313.248871 274.89031 
L 313.823277 260.132649 
L 314.397684 239.412718 
L 315.546497 186.427669 
L 316.69531 131.1931 
L 317.269716 107.842408 
L 317.844123 89.725912 
L 318.418529 78.18235 
L 318.992936 74.060326 
L 319.567342 77.654078 
L 320.141749 88.681001 
L 320.716155 106.302655 
L 321.864968 155.611645 
L 323.588188 235.830561 
L 324.162594 256.182973 
L 324.737001 270.54969 
L 325.311407 277.863213 
L 325.885814 277.588422 
L 326.46022 269.762292 
L 327.034627 254.990437 
L 327.609033 234.400752 
L 328.757846 182.343491 
L 329.906659 129.051638 
L 330.481065 106.990366 
L 331.055472 90.286875 
L 331.629878 80.186413 
L 332.204285 77.43037 
L 332.778691 82.200183 
L 333.353098 94.103573 
L 333.927504 112.204171 
L 335.076317 160.991502 
L 336.22513 213.707348 
L 336.799537 236.422989 
L 337.373943 254.258118 
L 337.94835 265.795897 
L 338.522756 270.091924 
L 339.097163 266.74613 
L 339.671569 255.933634 
L 340.245976 238.392208 
L 341.394789 188.518758 
L 343.118008 105.087813 
L 343.692415 83.09014 
L 344.266821 66.895358 
L 344.841228 57.665585 
L 345.415634 56.042407 
L 345.990041 62.098963 
L 346.564447 75.334877 
L 347.138854 94.714408 
L 348.287666 145.589882 
L 349.436479 199.504863 
L 350.010886 222.496295 
L 350.585292 240.452693 
L 351.159699 252.032113 
L 351.734105 256.380781 
L 352.308512 253.197215 
L 352.882918 242.754607 
L 353.457325 225.879752 
L 354.606138 178.493954 
L 356.329357 101.960952 
L 356.903764 82.965229 
L 357.47817 69.979616 
L 358.052577 64.046771 
L 358.626983 65.676917 
L 359.20139 74.808635 
L 359.775796 90.812833 
L 360.924609 138.404313 
L 362.647829 221.117473 
L 363.222235 243.587216 
L 363.796642 260.522302 
L 364.371048 270.674014 
L 364.945455 273.300364 
L 365.519861 268.222018 
L 366.094268 255.83584 
L 366.668674 237.085014 
L 367.817487 186.53181 
L 369.540706 107.466769 
L 370.115113 88.214116 
L 370.689519 75.181988 
L 371.263926 69.331867 
L 371.838332 71.081678 
L 372.412739 80.274899 
L 372.987145 96.193048 
L 374.135958 142.888153 
L 375.859178 222.033575 
L 376.433584 242.814899 
L 377.007991 257.933181 
L 377.582397 266.245174 
L 378.156804 267.126677 
L 378.73121 260.520048 
L 379.305617 246.938872 
L 379.880023 227.429458 
L 381.028836 176.967635 
L 382.177649 124.376991 
L 382.752056 102.381389 
L 383.326462 85.632478 
L 383.900869 75.460295 
L 384.475275 72.703992 
L 385.049682 77.648074 
L 385.624088 90.000421 
L 386.198494 108.913786 
L 387.347307 160.676094 
L 389.070527 244.187251 
L 389.644933 265.530977 
L 390.21934 280.840438 
L 390.793746 289.053148 
L 391.368153 289.640029 
L 391.942559 282.644658 
L 392.516966 268.679331 
L 393.091372 248.878242 
L 394.240185 198.365242 
L 395.388998 146.595933 
L 395.963405 125.2907 
L 396.537811 109.338523 
L 397.112218 99.982305 
L 397.686624 97.960347 
L 398.261031 103.45064 
L 398.835437 116.057528 
L 399.409844 134.841749 
L 400.558657 184.929724 
L 401.70747 238.858563 
L 402.281876 262.15363 
L 402.856283 280.555949 
L 403.430689 292.65437 
L 404.005096 297.510824 
L 404.579502 294.731793 
L 405.153909 284.498687 
L 405.728315 267.554843 
L 406.877128 218.947168 
L 408.600347 137.605943 
L 409.174754 116.345941 
L 409.74916 100.899792 
L 410.323567 92.421612 
L 410.897973 91.544033 
L 411.47238 98.330768 
L 412.046786 112.272043 
L 412.621193 132.323248 
L 413.770006 184.410738 
L 414.918819 239.327031 
L 415.493225 262.733195 
L 416.067632 281.046779 
L 416.642038 292.927495 
L 417.216445 297.524332 
L 417.790851 294.539299 
L 418.365258 284.249367 
L 418.939664 267.48497 
L 420.088477 220.204937 
L 421.811697 143.558168 
L 422.386103 124.447322 
L 422.96051 111.302752 
L 423.534916 105.162818 
L 424.109323 106.533183 
L 424.683729 115.348042 
L 425.258135 130.974534 
L 426.406948 177.618561 
L 428.130168 258.43657 
L 428.704574 280.162542 
L 429.278981 296.308878 
L 429.853387 305.635545 
L 430.427794 307.410063 
L 431.0022 301.462955 
L 431.576607 288.200781 
L 432.151013 268.57576 
L 433.299826 216.309746 
L 435.023046 134.83326 
L 435.597452 114.823874 
L 436.171859 101.055345 
L 436.746265 94.48507 
L 437.320672 95.525976 
L 437.895078 104.016084 
L 438.469485 119.231455 
L 439.618298 164.502782 
L 441.341517 241.422056 
L 441.915924 261.434364 
L 442.49033 275.77273 
L 443.064737 283.296954 
L 443.639143 283.386426 
L 444.21355 275.987221 
L 444.787956 261.616356 
L 445.362362 241.322859 
L 446.511175 189.314964 
L 447.659988 135.202031 
L 448.234395 112.446235 
L 448.808801 94.930642 
L 449.383208 83.978579 
L 449.957614 80.421849 
L 450.532021 84.537427 
L 451.106427 96.025969 
L 451.680834 114.033798 
L 452.829647 163.840681 
L 454.552866 244.033307 
L 455.127273 264.175639 
L 455.701679 278.244834 
L 456.276086 285.185937 
L 456.850492 284.478373 
L 457.424899 276.174722 
L 457.999305 260.896289 
L 458.573712 239.785807 
L 459.722525 186.694506 
L 460.871338 132.436101 
L 461.445744 109.927136 
L 462.020151 92.799324 
L 462.594557 82.294664 
L 463.168964 79.149675 
L 463.74337 83.540083 
L 464.317776 95.067907 
L 464.892183 112.791922 
L 466.040996 160.81221 
L 467.189809 212.74888 
L 467.764215 235.083117 
L 468.338622 252.554341 
L 468.913028 263.757303 
L 469.487435 267.760414 
L 470.061841 264.176792 
L 470.636248 253.194181 
L 471.210654 235.561489 
L 472.359467 185.77406 
L 474.082687 103.172382 
L 474.657093 81.61825 
L 475.2315 65.931549 
L 475.805906 57.258565 
L 476.380313 56.223216 
L 476.954719 62.880099 
L 477.529126 76.710434 
L 478.103532 96.661202 
L 479.252345 148.551317 
L 480.401158 203.243834 
L 480.975565 226.52326 
L 481.549971 244.701116 
L 482.124378 256.439713 
L 482.698784 260.891793 
L 483.273191 257.763872 
L 483.847597 247.337741 
L 484.422003 230.448529 
L 485.570816 182.968709 
L 487.294036 106.177573 
L 487.868442 87.059255 
L 488.442849 73.92372 
L 489.017255 67.805767 
L 489.591662 69.207143 
L 490.166068 78.058204 
L 490.740475 93.722756 
L 491.889288 140.440104 
L 493.612507 221.36793 
L 494.186914 243.143973 
L 494.76132 259.357373 
L 495.335727 268.776071 
L 495.910133 270.676236 
L 496.48454 264.89723 
L 497.058946 251.854146 
L 497.633353 232.506935 
L 498.782166 180.996997 
L 500.505385 101.199517 
L 501.079792 81.892757 
L 501.654198 68.891837 
L 502.228605 63.148022 
L 502.803011 65.06716 
L 503.377417 74.479712 
L 503.951824 90.65418 
L 505.100637 137.926053 
L 506.823856 217.976459 
L 507.398263 239.056534 
L 507.972669 254.474183 
L 508.547076 263.0905 
L 509.121482 264.286792 
L 509.695889 258.011268 
L 510.270295 244.782874 
L 510.844702 225.651955 
L 511.993515 176.029647 
L 513.142328 124.36953 
L 513.716734 102.854849 
L 514.291141 86.58187 
L 514.865547 76.866421 
L 515.439954 74.53224 
L 516.01436 79.848111 
L 516.588767 92.506862 
L 517.163173 111.647819 
L 518.311986 163.588436 
L 520.035206 246.618026 
L 520.609612 267.614416 
L 521.184019 282.499597 
L 521.758425 290.225459 
L 522.332831 290.279173 
L 522.907238 282.72149 
L 523.481644 268.181804 
L 524.056051 247.810378 
L 525.204864 196.222928 
L 526.353677 143.529363 
L 526.928083 121.829464 
L 527.50249 105.527258 
L 528.076896 95.862138 
L 528.651303 93.567047 
L 529.225709 98.813575 
L 529.800116 111.19947 
L 530.374522 129.779526 
L 531.523335 179.493601 
L 533.246555 256.243792 
L 533.820961 274.529894 
L 534.395368 286.547294 
L 534.969774 291.368693 
L 535.544181 288.611691 
L 536.118587 278.468255 
L 536.692994 261.690815 
L 537.841807 213.670271 
L 539.565026 133.847387 
L 540.139433 113.237667 
L 540.713839 98.492748 
L 541.288246 90.749945 
L 541.862652 90.623465 
L 542.437058 98.157947 
L 543.011465 112.82492 
L 543.585871 133.562427 
L 544.734684 186.846953 
L 545.883497 242.663245 
L 546.457904 266.398328 
L 547.03231 284.962291 
L 547.606717 297.020449 
L 548.181123 301.729801 
L 548.75553 298.801962 
L 549.329936 288.524208 
L 549.904343 271.737086 
L 551.053156 224.34143 
L 552.776375 147.419755 
L 553.350782 128.192107 
L 553.925188 114.911927 
L 554.499595 108.611264 
L 555.074001 109.788732 
L 555.648408 118.37158 
L 556.222814 133.720969 
L 557.371627 179.661215 
L 559.094847 259.070726 
L 559.669253 280.261613 
L 560.24366 295.86099 
L 560.818066 304.644908 
L 561.392472 305.898247 
L 561.966879 299.469214 
L 562.541285 285.78138 
L 563.115692 265.802328 
L 564.264505 213.091165 
L 565.987724 131.689164 
L 566.562131 111.897179 
L 567.136537 98.429149 
L 567.710944 92.230154 
L 568.28535 93.698981 
L 568.859757 102.658623 
L 569.434163 118.370199 
L 570.582976 164.659954 
L 572.306196 243.028251 
L 572.880602 263.484059 
L 573.455009 278.246701 
L 574.029415 286.179702 
L 574.603822 286.667549 
L 575.178228 279.661984 
L 575.752635 265.685409 
L 576.327041 245.791139 
L 577.475854 194.603947 
L 578.624667 141.327858 
L 579.199074 118.980851 
L 579.77348 101.854037 
L 580.347887 91.258106 
L 580.922293 88.011152 
L 581.496699 92.376246 
L 582.071106 104.040899 
L 582.645512 122.139973 
L 583.794325 171.842353 
L 585.517545 251.133712 
L 586.091951 270.797577 
L 586.666358 284.31861 
L 587.240764 290.657745 
L 587.815171 289.312005 
L 588.389577 280.352306 
L 588.963984 264.418016 
L 589.53839 242.668691 
L 591.26161 159.873456 
L 592.410423 110.27997 
L 592.984829 92.815045 
L 593.559236 82.026507 
L 594.133642 78.644559 
L 594.708049 82.837388 
L 595.282455 94.199118 
L 595.856862 111.781136 
L 597.005675 159.567261 
L 598.154488 211.320665 
L 598.728894 233.586123 
L 599.303301 251.010775 
L 599.877707 262.197062 
L 600.452113 266.222278 
L 601.02652 262.70882 
L 601.600926 251.85322 
L 602.175333 234.411804 
L 603.324146 185.217754 
L 605.047365 104.016285 
L 605.621772 83.035348 
L 606.196178 67.952999 
L 606.770585 59.898504 
L 607.344991 59.477371 
L 607.919398 66.725376 
L 608.493804 81.105526 
L 609.068211 101.548177 
L 610.217024 154.19483 
L 611.365837 209.286548 
L 611.940243 232.625751 
L 612.51465 250.7747 
L 613.089056 262.403215 
L 613.663463 266.674039 
L 614.237869 263.30534 
L 614.812276 252.5913 
L 615.386682 235.379246 
L 616.535495 187.191753 
L 618.258715 109.287551 
L 618.833121 89.793573 
L 619.407528 76.276483 
L 619.981934 69.766129 
L 620.55634 70.758401 
L 621.130747 79.177711 
L 621.705153 94.382692 
L 622.27956 115.214681 
L 625.151592 240.442671 
L 625.725999 256.052026 
L 626.300405 264.886812 
L 626.874812 266.23943 
L 627.449218 259.96563 
L 628.023625 246.496048 
L 628.598031 226.804392 
L 629.746844 174.892745 
L 630.895657 119.295465 
L 631.470064 95.267368 
L 632.04447 76.211471 
L 632.618877 63.541795 
L 633.193283 58.195464 
L 633.76769 60.562459 
L 634.342096 70.456608 
L 634.916503 87.129994 
L 636.065316 135.392601 
L 637.788535 216.753469 
L 638.362942 238.202601 
L 638.937348 253.955574 
L 639.511754 262.877303 
L 640.086161 264.354503 
L 640.660567 258.341571 
L 641.234974 245.363561 
L 641.80938 226.476024 
L 642.958193 177.33152 
L 644.107006 126.133061 
L 644.681413 104.831509 
L 645.255819 88.748667 
L 645.830226 79.189638 
L 646.404632 76.966428 
L 646.979039 82.335935 
L 647.553445 94.979875 
L 648.127852 114.028142 
L 649.276665 165.525236 
L 650.999884 247.244596 
L 651.574291 267.659203 
L 652.148697 281.911636 
L 652.723104 288.970719 
L 653.29751 288.34206 
L 653.871917 280.105359 
L 654.446323 264.908456 
L 655.02073 243.918584 
L 656.743949 163.590496 
L 657.892762 115.824812 
L 658.467169 99.326663 
L 659.041575 89.535377 
L 659.615981 87.176083 
L 660.190388 92.41119 
L 660.764794 104.828795 
L 661.339201 123.474452 
L 662.488014 173.39118 
L 664.211233 250.568618 
L 664.78564 269.033023 
L 665.360046 281.254633 
L 665.934453 286.313223 
L 666.508859 283.833957 
L 667.083266 274.016012 
L 667.657672 257.617794 
L 668.806485 210.529998 
L 670.529705 132.511626 
L 671.104111 112.579825 
L 671.678518 98.528739 
L 672.252924 91.478867 
L 672.827331 92.026445 
L 673.401737 100.197953 
L 673.976144 115.447577 
L 674.55055 136.697809 
L 675.699363 190.749764 
L 676.848176 246.945272 
L 677.422583 270.72283 
L 677.996989 289.238158 
L 678.571395 301.165976 
L 679.145802 305.6752 
L 679.720208 302.490998 
L 680.294615 291.914906 
L 680.869021 274.801477 
L 682.017834 226.7189 
L 683.741054 148.806793 
L 684.31546 129.273668 
L 684.889867 115.698308 
L 685.464273 109.108447 
L 686.03868 109.997271 
L 686.613086 118.286309 
L 687.187493 133.331554 
L 687.761899 153.972348 
L 690.633932 277.783978 
L 691.208338 293.039424 
L 691.782745 301.509589 
L 692.357151 302.493851 
L 692.931558 295.854941 
L 693.505964 282.030007 
L 694.080371 261.998341 
L 695.229184 209.467992 
L 696.377997 153.341248 
L 696.952403 129.077276 
L 697.526809 109.798461 
L 698.101216 96.912102 
L 698.675622 91.347424 
L 699.250029 93.485781 
L 699.824435 103.132147 
L 700.398842 119.53003 
L 701.547655 167.128317 
L 703.270874 247.133017 
L 703.845281 268.025685 
L 704.419687 283.171418 
L 704.994094 291.438116 
L 705.5685 292.216432 
L 706.142907 285.465249 
L 706.717313 271.714209 
L 707.29172 252.02313 
L 708.440533 201.193257 
L 709.589346 148.215948 
L 710.163752 125.989235 
L 710.738159 108.954651 
L 711.312565 98.4141 
L 711.886972 95.175882 
L 712.461378 99.4931 
L 713.035785 111.044027 
L 713.610191 128.955895 
L 714.759004 178.04564 
L 716.482224 255.844545 
L 717.05663 274.889533 
L 717.631036 287.753892 
L 718.205443 293.415973 
L 718.779849 291.391488 
L 719.354256 281.770323 
L 719.928662 265.210083 
L 721.077475 216.40689 
L 722.800695 131.854716 
L 723.375101 108.776697 
L 723.949508 91.219165 
L 724.523914 80.412524 
L 725.098321 77.077378 
L 725.672727 81.37087 
L 726.247134 92.875564 
L 726.82154 110.631664 
L 727.970353 158.821342 
L 729.119166 211.01073 
L 729.693573 233.500626 
L 730.267979 251.156171 
L 730.842386 262.584106 
L 731.416792 266.867453 
L 731.991199 263.634991 
L 732.565605 253.089454 
L 733.140012 235.992331 
L 734.288825 187.60042 
L 736.012044 107.852989 
L 736.58645 87.392794 
L 737.160857 72.827944 
L 737.735263 65.27183 
L 738.30967 65.313139 
L 738.884076 72.970833 
L 739.458483 87.692098 
L 740.032889 108.39342 
L 741.181702 161.269244 
L 742.330515 216.175031 
L 742.904922 239.269276 
L 743.479328 257.081752 
L 744.053735 268.293788 
L 744.628141 272.082096 
L 745.202548 268.180381 
L 745.776954 256.898965 
L 746.351361 239.100942 
L 747.500174 189.741647 
L 749.223393 110.224992 
L 749.7978 90.250052 
L 750.372206 76.2792 
L 750.946613 69.338236 
L 751.521019 69.917666 
L 752.095426 77.936018 
L 752.669832 92.746379 
L 753.244239 113.185693 
L 756.116271 236.479343 
L 756.690677 251.744284 
L 757.265084 260.271939 
L 757.83949 261.367421 
L 758.413897 254.899139 
L 758.988303 241.309409 
L 759.56271 221.581732 
L 760.711523 169.875426 
L 761.860336 114.859045 
L 762.434742 91.249632 
L 763.009149 72.683619 
L 763.583555 60.560356 
L 764.157962 55.8 
L 764.732368 58.774191 
L 765.306775 69.278033 
L 765.881181 86.54552 
L 767.029994 135.885929 
L 768.753214 218.424355 
L 769.32762 240.129691 
L 769.902027 256.072837 
L 770.476433 265.12432 
L 771.05084 266.678424 
L 771.625246 260.698238 
L 772.199653 247.717741 
L 772.774059 228.80078 
L 773.922872 179.542181 
L 775.071685 128.176045 
L 775.646091 106.768457 
L 776.220498 90.558786 
L 776.794904 80.845298 
L 777.369311 78.432088 
L 777.943717 83.567882 
L 778.518124 95.926837 
L 779.09253 114.632763 
L 780.241343 165.260722 
L 781.964563 245.252667 
L 782.538969 265.012656 
L 783.113376 278.594403 
L 783.687782 284.984061 
L 784.262189 283.705603 
L 784.836595 274.857142 
L 785.411002 259.103969 
L 786.559815 212.043292 
L 788.283034 130.477138 
L 788.857441 108.493687 
L 789.431847 92.074611 
L 790.006254 82.444397 
L 790.58066 80.316566 
L 791.155067 85.840466 
L 791.729473 98.590615 
L 792.30388 117.599409 
L 793.452693 168.288643 
L 795.175912 246.631139 
L 795.750318 265.475637 
L 796.324725 278.076539 
L 796.899131 283.518387 
L 797.473538 281.43196 
L 798.047944 272.022067 
L 798.622351 256.051922 
L 799.771164 209.890834 
L 801.494383 133.4102 
L 802.06879 114.002164 
L 802.643196 100.460841 
L 803.217603 93.892141 
L 803.792009 94.876924 
L 804.366416 103.426444 
L 804.940822 118.980778 
L 805.515229 140.45036 
L 806.664042 194.651674 
L 807.812855 250.592829 
L 808.387261 274.100312 
L 808.961668 292.262591 
L 809.536074 303.767647 
L 810.110481 307.8 
L 810.684887 304.101855 
L 811.259294 292.992226 
L 811.8337 275.342598 
L 812.982513 226.239237 
L 814.705732 147.078196 
L 815.280139 127.222496 
L 815.854545 113.370005 
L 816.428952 106.543865 
L 817.003358 107.231129 
L 817.577765 115.346486 
L 818.152171 130.239245 
L 818.726578 150.743035 
L 821.59861 274.045141 
L 822.173017 289.257468 
L 822.747423 297.722546 
L 823.32183 298.750368 
L 823.896236 292.21423 
L 824.470643 278.560898 
L 825.045049 258.777442 
L 826.193862 206.990715 
L 827.342675 151.931366 
L 827.917082 128.30614 
L 828.491488 109.720164 
L 829.065895 97.565074 
L 829.640301 92.752362 
L 830.214708 95.644502 
L 830.789114 106.027438 
L 831.363521 123.126515 
L 832.512334 171.958345 
L 834.235553 253.237324 
L 834.809959 274.385832 
L 835.384366 289.707224 
L 835.958772 298.076528 
L 836.533179 298.89361 
L 837.107585 292.127779 
L 837.681992 278.319418 
L 838.256398 258.538509 
L 839.405211 207.464601 
L 840.554024 154.190075 
L 841.128431 131.797273 
L 841.702837 114.581247 
L 842.277244 103.838662 
L 842.85165 100.371381 
L 843.426057 104.425669 
L 844.000463 115.673411 
L 844.57487 133.236761 
L 845.723683 181.484113 
L 847.446902 257.6994 
L 848.021309 276.165393 
L 848.595715 288.447899 
L 849.170122 293.541878 
L 849.744528 290.98048 
L 850.318935 280.870873 
L 850.893341 263.886794 
L 852.042154 214.482993 
L 853.765373 129.758988 
L 854.33978 106.820186 
L 854.914186 89.489534 
L 855.488593 78.986146 
L 856.062999 76.017031 
L 856.637406 80.724347 
L 857.211812 92.675237 
L 857.786219 110.895011 
L 858.935032 160.012632 
L 860.083845 213.068704 
L 860.658251 235.95664 
L 861.232658 253.986003 
L 861.807064 265.766165 
L 862.381471 270.384604 
L 862.955877 267.475626 
L 863.530284 257.247722 
L 864.10469 240.467531 
L 865.253503 192.720335 
L 866.976723 113.952873 
L 867.551129 93.799755 
L 868.125536 79.515237 
L 868.699942 72.199917 
L 869.274349 72.429005 
L 869.848755 80.208229 
L 870.423162 94.972723 
L 870.997568 115.629007 
L 872.146381 168.125088 
L 873.295194 222.260651 
L 873.8696 244.836704 
L 874.444007 262.056934 
L 875.018413 272.617535 
L 875.59282 275.71226 
L 876.167226 271.093106 
L 876.741633 259.088922 
L 877.316039 240.580579 
L 878.464852 189.899833 
L 880.188072 108.804698 
L 880.762478 88.428826 
L 881.336885 74.117231 
L 881.911291 66.890225 
L 882.485698 67.231105 
L 883.060104 75.050315 
L 883.634511 89.692868 
L 884.208917 109.988477 
L 887.08095 232.808662 
L 887.655356 248.038882 
L 888.229763 256.565932 
L 888.804169 257.703741 
L 889.378576 251.329556 
L 889.952982 237.893673 
L 890.527389 218.385845 
L 891.676202 167.329232 
L 892.825014 113.229377 
L 893.399421 90.159892 
L 893.973827 72.17165 
L 894.548234 60.648122 
L 895.12264 56.491753 
L 895.697047 60.05555 
L 896.271453 71.116074 
L 896.84586 88.889868 
L 897.994673 139.032978 
L 899.717892 222.116561 
L 900.292299 243.81904 
L 900.866705 259.67438 
L 901.441112 268.562214 
L 902.015518 269.888071 
L 902.589925 263.627532 
L 903.164331 250.327387 
L 903.738738 231.063698 
L 904.887551 181.071529 
L 906.036364 128.963496 
L 906.61077 107.188585 
L 907.185177 90.612322 
L 907.759583 80.529056 
L 908.33399 77.737581 
L 908.908396 82.480738 
L 909.482803 94.42705 
L 910.057209 112.695788 
L 911.206022 162.367478 
L 912.929241 240.761876 
L 913.503648 259.978039 
L 914.078054 273.031536 
L 914.652461 278.923948 
L 915.226867 277.195321 
L 915.801274 267.959517 
L 916.37568 251.896288 
L 917.524493 204.493327 
L 919.247713 123.190374 
L 919.822119 101.495769 
L 920.396526 85.452185 
L 920.970932 76.270907 
L 921.545339 74.650041 
L 922.119745 80.722242 
L 922.694152 94.045045 
L 923.268558 113.634538 
L 924.417371 165.452711 
L 926.140591 245.266092 
L 926.714997 264.525778 
L 927.289404 277.506428 
L 927.86381 283.297253 
L 928.438217 281.534986 
L 929.012623 272.430826 
L 929.58703 256.753963 
L 930.735843 211.15926 
L 932.459062 135.483604 
L 933.033468 116.315295 
L 933.607875 102.985386 
L 934.182281 96.58887 
L 934.756688 97.69505 
L 935.331094 106.30388 
L 935.905501 121.845313 
L 936.479907 143.221707 
L 937.62872 196.978176 
L 938.777533 252.136663 
L 939.35194 275.143123 
L 939.926346 292.747532 
L 940.500753 303.653706 
L 941.075159 307.063967 
L 941.649566 302.739348 
L 942.223972 291.017701 
L 942.798379 272.788358 
L 943.947192 222.683444 
L 945.670411 142.561214 
L 946.244818 122.543031 
L 946.819224 108.602381 
L 947.393631 101.755343 
L 947.968037 102.480053 
L 948.542444 110.681291 
L 949.11685 125.698369 
L 949.691257 146.355695 
L 952.563289 270.675391 
L 953.137695 286.137954 
L 953.712102 294.878461 
L 954.286508 296.21397 
L 954.860915 290.024997 
L 955.435321 276.764808 
L 956.009728 257.425418 
L 957.158541 206.687247 
L 958.307354 152.872023 
L 958.88176 129.922678 
L 959.456167 112.031715 
L 960.030573 100.575077 
L 960.60498 96.446953 
L 961.179386 99.991821 
L 961.753793 110.977933 
L 962.328199 128.614241 
L 963.477012 178.26904 
L 965.200232 260.04291 
L 965.774638 281.157303 
L 966.349045 296.355518 
L 966.923451 304.523618 
L 967.497858 305.074633 
L 968.072264 297.992257 
L 968.646671 283.831516 
L 969.221077 263.676358 
L 970.36989 211.835939 
L 971.518703 157.825478 
L 972.093109 135.085869 
L 972.667516 117.536677 
L 973.241922 106.471318 
L 973.816329 102.686827 
L 974.390735 106.423846 
L 974.965142 117.348675 
L 975.539548 134.578763 
L 976.688361 182.118571 
L 978.411581 257.199707 
L 978.985987 275.295899 
L 979.560394 287.231562 
L 980.1348 292.015423 
L 980.709207 289.194912 
L 981.283613 278.891057 
L 981.85802 261.790081 
L 983.006833 212.422382 
L 984.730052 128.478712 
L 985.304459 105.979793 
L 985.878865 89.161959 
L 986.453272 79.229475 
L 987.027678 76.872453 
L 987.602085 82.215049 
L 988.176491 94.8063 
L 988.750898 113.6543 
L 989.89971 163.932809 
L 991.048523 217.952302 
L 991.62293 241.2342 
L 992.197336 259.598485 
L 992.771743 271.657813 
L 993.346149 276.505189 
L 993.920556 273.781917 
L 994.494962 263.704112 
L 995.069369 247.045783 
L 996.218182 199.481083 
L 996.218182 199.481083 
" style="fill:none;stroke:#4c72b0;stroke-linecap:round;stroke-width:1.4;"/>
   </g>
   <g id="line2d_26">
    <path clip-path="url(#p7e9e76fb48)" d="M 184.581818 249.741341 
L 199.516387 249.661496 
L 214.450955 249.361647 
L 229.385524 248.843732 
L 244.894499 248.078438 
L 260.403474 247.086146 
L 275.912449 245.872977 
L 291.995831 244.389499 
L 308.079213 242.686103 
L 324.737001 240.701808 
L 341.969195 238.427918 
L 360.350203 235.773263 
L 379.305617 232.81096 
L 399.98425 229.349841 
L 422.386103 225.37136 
L 448.234395 220.547842 
L 481.549971 214.086252 
L 563.690098 198.049722 
L 589.53839 193.288054 
L 611.940243 189.380328 
L 632.618877 185.997881 
L 651.574291 183.118249 
L 669.955298 180.552702 
L 687.187493 178.369692 
L 703.845281 176.47937 
L 719.928662 174.871818 
L 736.012044 173.488597 
L 751.521019 172.375693 
L 767.029994 171.486598 
L 782.538969 170.826826 
L 797.473538 170.412149 
L 812.408107 170.216563 
L 827.342675 170.241439 
L 842.277244 170.486965 
L 857.211812 170.952141 
L 872.146381 171.634785 
L 887.655356 172.570257 
L 903.164331 173.73156 
L 918.673306 175.112319 
L 934.756688 176.767824 
L 951.414476 178.711981 
L 968.646671 180.955705 
L 986.453272 183.506256 
L 996.218182 184.998388 
L 996.218182 184.998388 
" style="fill:none;stroke:#55a868;stroke-linecap:round;stroke-width:1.4;"/>
   </g>
   <g id="patch_3">
    <path d="M 144 320.4 
L 144 43.2 
" style="fill:none;"/>
   </g>
   <g id="patch_4">
    <path d="M 1036.8 320.4 
L 1036.8 43.2 
" style="fill:none;"/>
   </g>
   <g id="patch_5">
    <path d="M 144 320.4 
L 1036.8 320.4 
" style="fill:none;"/>
   </g>
   <g id="patch_6">
    <path d="M 144 43.2 
L 1036.8 43.2 
" style="fill:none;"/>
   </g>
   <g id="legend_1">
    <g id="line2d_27">
     <path d="M 1002.75125 53.3975 
L 1018.75125 53.3975 
" style="fill:none;stroke:#4c72b0;stroke-linecap:round;stroke-width:1.4;"/>
    </g>
    <g id="line2d_28"/>
    <g id="text_13">
     <!-- a -->
     <defs>
      <path d="M 20.21875 -0.984375 
Q 12.25 -0.984375 8.25 3.21875 
Q 4.25 7.421875 4.25 14.75 
Q 4.25 19.96875 6.21875 23.3125 
Q 8.203125 26.65625 11.390625 28.5625 
Q 14.59375 30.46875 18.6875 31.203125 
Q 22.796875 31.9375 27.046875 32.03125 
L 38.921875 32.234375 
L 38.921875 35.109375 
Q 38.921875 38.375 38.234375 40.671875 
Q 37.546875 42.96875 36.125 44.375 
Q 34.71875 45.796875 32.59375 46.453125 
Q 30.46875 47.125 27.59375 47.125 
Q 25.046875 47.125 23 46.75 
Q 20.953125 46.390625 19.4375 45.4375 
Q 17.921875 44.484375 16.984375 42.84375 
Q 16.0625 41.21875 15.765625 38.71875 
L 6.59375 39.546875 
Q 7.078125 42.671875 8.4375 45.28125 
Q 9.8125 47.90625 12.328125 49.796875 
Q 14.84375 51.703125 18.625 52.75 
Q 22.40625 53.8125 27.78125 53.8125 
Q 37.75 53.8125 42.765625 49.234375 
Q 47.796875 44.671875 47.796875 36.03125 
L 47.796875 13.28125 
Q 47.796875 9.375 48.828125 7.390625 
Q 49.859375 5.421875 52.734375 5.421875 
Q 53.46875 5.421875 54.203125 5.515625 
Q 54.9375 5.609375 55.609375 5.765625 
L 55.609375 0.296875 
Q 53.953125 -0.09375 52.3125 -0.28125 
Q 50.6875 -0.484375 48.828125 -0.484375 
Q 46.34375 -0.484375 44.5625 0.171875 
Q 42.78125 0.828125 41.65625 2.171875 
Q 40.53125 3.515625 39.9375 5.484375 
Q 39.359375 7.46875 39.203125 10.109375 
L 38.921875 10.109375 
Q 37.5 7.5625 35.8125 5.515625 
Q 34.125 3.46875 31.875 2.03125 
Q 29.640625 0.59375 26.78125 -0.1875 
Q 23.921875 -0.984375 20.21875 -0.984375 
M 22.21875 5.609375 
Q 26.421875 5.609375 29.5625 7.140625 
Q 32.71875 8.6875 34.78125 11.078125 
Q 36.859375 13.484375 37.890625 16.3125 
Q 38.921875 19.140625 38.921875 21.734375 
L 38.921875 26.078125 
L 29.296875 25.875 
Q 26.078125 25.828125 23.171875 25.40625 
Q 20.265625 25 18.0625 23.78125 
Q 15.875 22.5625 14.578125 20.359375 
Q 13.28125 18.171875 13.28125 14.59375 
Q 13.28125 10.296875 15.59375 7.953125 
Q 17.921875 5.609375 22.21875 5.609375 
" id="LiberationSans-61"/>
     </defs>
     <g style="fill:#262626;" transform="translate(1025.15125 56.1975)scale(0.08 -0.08)">
      <use xlink:href="#LiberationSans-61"/>
     </g>
    </g>
    <g id="line2d_29">
     <path d="M 1002.75125 64.855 
L 1018.75125 64.855 
" style="fill:none;stroke:#55a868;stroke-linecap:round;stroke-width:1.4;"/>
    </g>
    <g id="line2d_30"/>
    <g id="text_14">
     <!-- b -->
     <defs>
      <path d="M 51.421875 26.65625 
Q 51.421875 -0.984375 31.984375 -0.984375 
Q 25.984375 -0.984375 22 1.1875 
Q 18.015625 3.375 15.53125 8.203125 
L 15.4375 8.203125 
Q 15.4375 6.9375 15.359375 5.5625 
Q 15.28125 4.203125 15.203125 3.03125 
Q 15.140625 1.859375 15.0625 1.03125 
Q 14.984375 0.203125 14.9375 0 
L 6.453125 0 
Q 6.5 0.4375 6.546875 1.484375 
Q 6.59375 2.546875 6.640625 4 
Q 6.6875 5.46875 6.703125 7.21875 
Q 6.734375 8.984375 6.734375 10.890625 
L 6.734375 72.46875 
L 15.53125 72.46875 
L 15.53125 51.8125 
Q 15.53125 50.34375 15.5 49 
Q 15.484375 47.65625 15.4375 46.625 
Q 15.375 45.40625 15.328125 44.34375 
L 15.53125 44.34375 
Q 17.96875 49.421875 22 51.609375 
Q 26.03125 53.8125 31.984375 53.8125 
Q 42 53.8125 46.703125 47.0625 
Q 51.421875 40.328125 51.421875 26.65625 
M 42.1875 26.375 
Q 42.1875 31.84375 41.5 35.75 
Q 40.828125 39.65625 39.3125 42.15625 
Q 37.796875 44.671875 35.453125 45.84375 
Q 33.109375 47.015625 29.734375 47.015625 
Q 26.265625 47.015625 23.609375 45.890625 
Q 20.953125 44.78125 19.171875 42.28125 
Q 17.390625 39.796875 16.453125 35.734375 
Q 15.53125 31.6875 15.53125 25.828125 
Q 15.53125 20.171875 16.453125 16.3125 
Q 17.390625 12.453125 19.171875 10.03125 
Q 20.953125 7.625 23.578125 6.5625 
Q 26.21875 5.515625 29.640625 5.515625 
Q 32.859375 5.515625 35.203125 6.640625 
Q 37.546875 7.765625 39.109375 10.25 
Q 40.671875 12.75 41.421875 16.71875 
Q 42.1875 20.703125 42.1875 26.375 
" id="LiberationSans-62"/>
     </defs>
     <g style="fill:#262626;" transform="translate(1025.15125 67.655)scale(0.08 -0.08)">
      <use xlink:href="#LiberationSans-62"/>
     </g>
    </g>
   </g>
  </g>
 </g>
 <defs>
  <clipPath id="p7e9e76fb48">
   <rect height="277.2" width="892.8" x="144" y="43.2"/>
  </clipPath>
 </defs>
</svg>
