<?xml version="1.0" encoding="utf-8" standalone="no"?>
<!DOCTYPE svg PUBLIC "-//W3C//DTD SVG 1.1//EN"
  "http://www.w3.org/Graphics/SVG/1.1/DTD/svg11.dtd">
<!-- Created with matplotlib (http://matplotlib.org/) -->
<svg height="360pt" version="1.1" viewBox="0 0 1152 360" width="1152pt" xmlns="http://www.w3.org/2000/svg" xmlns:xlink="http://www.w3.org/1999/xlink">
 <defs>
  <style type="text/css">
*{stroke-linecap:butt;stroke-linejoin:round;}
  </style>
 </defs>
 <g id="figure_1">
  <g id="patch_1">
   <path d="M 0 360 
L 1152 360 
L 1152 0 
L 0 0 
z
" style="fill:#ffffff;"/>
  </g>
  <g id="axes_1">
   <g id="patch_2">
    <path d="M 144 320.4 
L 1036.8 320.4 
L 1036.8 43.2 
L 144 43.2 
z
" style="fill:#eaeaf2;"/>
   </g>
   <g id="matplotlib.axis_1">
    <g id="xtick_1">
     <g id="line2d_1">
      <path clip-path="url(#pe4fedec01a)" d="M 184.581818 320.4 
L 184.581818 43.2 
" style="fill:none;stroke:#ffffff;stroke-linecap:round;stroke-width:0.8;"/>
     </g>
     <g id="line2d_2"/>
     <g id="text_1">
      <!-- 0.000 -->
      <defs>
       <path d="M 51.703125 34.421875 
Q 51.703125 24.515625 49.828125 17.75 
Q 47.953125 10.984375 44.703125 6.8125 
Q 41.453125 2.640625 37.0625 0.828125 
Q 32.671875 -0.984375 27.6875 -0.984375 
Q 22.65625 -0.984375 18.3125 0.828125 
Q 13.96875 2.640625 10.765625 6.78125 
Q 7.5625 10.9375 5.734375 17.703125 
Q 3.90625 24.46875 3.90625 34.421875 
Q 3.90625 44.828125 5.734375 51.640625 
Q 7.5625 58.453125 10.78125 62.5 
Q 14.015625 66.546875 18.40625 68.1875 
Q 22.796875 69.828125 27.984375 69.828125 
Q 32.90625 69.828125 37.21875 68.1875 
Q 41.546875 66.546875 44.765625 62.5 
Q 48 58.453125 49.84375 51.640625 
Q 51.703125 44.828125 51.703125 34.421875 
M 42.78125 34.421875 
Q 42.78125 42.625 41.796875 48.0625 
Q 40.828125 53.515625 38.921875 56.765625 
Q 37.015625 60.015625 34.25 61.359375 
Q 31.5 62.703125 27.984375 62.703125 
Q 24.265625 62.703125 21.4375 61.328125 
Q 18.609375 59.96875 16.671875 56.71875 
Q 14.75 53.46875 13.765625 48.015625 
Q 12.796875 42.578125 12.796875 34.421875 
Q 12.796875 26.515625 13.796875 21.09375 
Q 14.796875 15.671875 16.71875 12.375 
Q 18.65625 9.078125 21.4375 7.640625 
Q 24.21875 6.203125 27.78125 6.203125 
Q 31.25 6.203125 34.03125 7.640625 
Q 36.8125 9.078125 38.734375 12.375 
Q 40.671875 15.671875 41.71875 21.09375 
Q 42.78125 26.515625 42.78125 34.421875 
" id="LiberationSans-30"/>
       <path d="M 9.125 0 
L 9.125 10.6875 
L 18.65625 10.6875 
L 18.65625 0 
z
" id="LiberationSans-2e"/>
      </defs>
      <g style="fill:#262626;" transform="translate(174.573068 331.7975)scale(0.08 -0.08)">
       <use xlink:href="#LiberationSans-30"/>
       <use x="55.615234" xlink:href="#LiberationSans-2e"/>
       <use x="83.398438" xlink:href="#LiberationSans-30"/>
       <use x="139.013672" xlink:href="#LiberationSans-30"/>
       <use x="194.628906" xlink:href="#LiberationSans-30"/>
      </g>
     </g>
    </g>
    <g id="xtick_2">
     <g id="line2d_3">
      <path clip-path="url(#pe4fedec01a)" d="M 311.238448 320.4 
L 311.238448 43.2 
" style="fill:none;stroke:#ffffff;stroke-linecap:round;stroke-width:0.8;"/>
     </g>
     <g id="line2d_4"/>
     <g id="text_2">
      <!-- 0.005 -->
      <defs>
       <path d="M 51.421875 22.40625 
Q 51.421875 17.234375 49.859375 12.9375 
Q 48.296875 8.640625 45.21875 5.53125 
Q 42.140625 2.4375 37.578125 0.71875 
Q 33.015625 -0.984375 27 -0.984375 
Q 21.578125 -0.984375 17.546875 0.28125 
Q 13.53125 1.5625 10.734375 3.78125 
Q 7.953125 6 6.3125 8.984375 
Q 4.6875 11.96875 4 15.375 
L 12.890625 16.40625 
Q 13.421875 14.453125 14.390625 12.625 
Q 15.375 10.796875 17.0625 9.34375 
Q 18.75 7.90625 21.21875 7.046875 
Q 23.6875 6.203125 27.203125 6.203125 
Q 30.609375 6.203125 33.390625 7.25 
Q 36.1875 8.296875 38.15625 10.34375 
Q 40.140625 12.40625 41.203125 15.375 
Q 42.28125 18.359375 42.28125 22.21875 
Q 42.28125 25.390625 41.25 28.046875 
Q 40.234375 30.71875 38.328125 32.640625 
Q 36.421875 34.578125 33.65625 35.640625 
Q 30.90625 36.71875 27.390625 36.71875 
Q 25.203125 36.71875 23.34375 36.328125 
Q 21.484375 35.9375 19.890625 35.25 
Q 18.3125 34.578125 17.015625 33.671875 
Q 15.71875 32.765625 14.59375 31.78125 
L 6 31.78125 
L 8.296875 68.796875 
L 47.40625 68.796875 
L 47.40625 61.328125 
L 16.3125 61.328125 
L 14.984375 39.5 
Q 17.328125 41.3125 20.84375 42.59375 
Q 24.359375 43.890625 29.203125 43.890625 
Q 34.328125 43.890625 38.421875 42.328125 
Q 42.53125 40.765625 45.40625 37.90625 
Q 48.296875 35.0625 49.859375 31.109375 
Q 51.421875 27.15625 51.421875 22.40625 
" id="LiberationSans-35"/>
      </defs>
      <g style="fill:#262626;" transform="translate(301.229698 331.7975)scale(0.08 -0.08)">
       <use xlink:href="#LiberationSans-30"/>
       <use x="55.615234" xlink:href="#LiberationSans-2e"/>
       <use x="83.398438" xlink:href="#LiberationSans-30"/>
       <use x="139.013672" xlink:href="#LiberationSans-30"/>
       <use x="194.628906" xlink:href="#LiberationSans-35"/>
      </g>
     </g>
    </g>
    <g id="xtick_3">
     <g id="line2d_5">
      <path clip-path="url(#pe4fedec01a)" d="M 437.895078 320.4 
L 437.895078 43.2 
" style="fill:none;stroke:#ffffff;stroke-linecap:round;stroke-width:0.8;"/>
     </g>
     <g id="line2d_6"/>
     <g id="text_3">
      <!-- 0.010 -->
      <defs>
       <path d="M 7.625 0 
L 7.625 7.46875 
L 25.140625 7.46875 
L 25.140625 60.40625 
L 9.625 49.3125 
L 9.625 57.625 
L 25.875 68.796875 
L 33.984375 68.796875 
L 33.984375 7.46875 
L 50.734375 7.46875 
L 50.734375 0 
z
" id="LiberationSans-31"/>
      </defs>
      <g style="fill:#262626;" transform="translate(427.886328 331.7975)scale(0.08 -0.08)">
       <use xlink:href="#LiberationSans-30"/>
       <use x="55.615234" xlink:href="#LiberationSans-2e"/>
       <use x="83.398438" xlink:href="#LiberationSans-30"/>
       <use x="139.013672" xlink:href="#LiberationSans-31"/>
       <use x="194.628906" xlink:href="#LiberationSans-30"/>
      </g>
     </g>
    </g>
    <g id="xtick_4">
     <g id="line2d_7">
      <path clip-path="url(#pe4fedec01a)" d="M 564.551708 320.4 
L 564.551708 43.2 
" style="fill:none;stroke:#ffffff;stroke-linecap:round;stroke-width:0.8;"/>
     </g>
     <g id="line2d_8"/>
     <g id="text_4">
      <!-- 0.015 -->
      <g style="fill:#262626;" transform="translate(554.542958 331.7975)scale(0.08 -0.08)">
       <use xlink:href="#LiberationSans-30"/>
       <use x="55.615234" xlink:href="#LiberationSans-2e"/>
       <use x="83.398438" xlink:href="#LiberationSans-30"/>
       <use x="139.013672" xlink:href="#LiberationSans-31"/>
       <use x="194.628906" xlink:href="#LiberationSans-35"/>
      </g>
     </g>
    </g>
    <g id="xtick_5">
     <g id="line2d_9">
      <path clip-path="url(#pe4fedec01a)" d="M 691.208338 320.4 
L 691.208338 43.2 
" style="fill:none;stroke:#ffffff;stroke-linecap:round;stroke-width:0.8;"/>
     </g>
     <g id="line2d_10"/>
     <g id="text_5">
      <!-- 0.020 -->
      <defs>
       <path d="M 5.03125 0 
L 5.03125 6.203125 
Q 7.515625 11.921875 11.109375 16.28125 
Q 14.703125 20.65625 18.65625 24.1875 
Q 22.609375 27.734375 26.484375 30.765625 
Q 30.375 33.796875 33.5 36.8125 
Q 36.625 39.84375 38.546875 43.15625 
Q 40.484375 46.484375 40.484375 50.6875 
Q 40.484375 53.609375 39.59375 55.828125 
Q 38.71875 58.0625 37.0625 59.5625 
Q 35.40625 61.078125 33.078125 61.828125 
Q 30.765625 62.59375 27.9375 62.59375 
Q 25.296875 62.59375 22.96875 61.859375 
Q 20.65625 61.140625 18.84375 59.671875 
Q 17.046875 58.203125 15.890625 56.03125 
Q 14.75 53.859375 14.40625 50.984375 
L 5.421875 51.8125 
Q 5.859375 55.515625 7.46875 58.78125 
Q 9.078125 62.0625 11.90625 64.53125 
Q 14.75 67 18.71875 68.40625 
Q 22.703125 69.828125 27.9375 69.828125 
Q 33.0625 69.828125 37.0625 68.609375 
Q 41.0625 67.390625 43.8125 64.984375 
Q 46.578125 62.59375 48.046875 59.078125 
Q 49.515625 55.5625 49.515625 50.984375 
Q 49.515625 47.515625 48.265625 44.390625 
Q 47.015625 41.265625 44.9375 38.421875 
Q 42.875 35.59375 40.140625 32.953125 
Q 37.40625 30.328125 34.421875 27.8125 
Q 31.453125 25.296875 28.421875 22.828125 
Q 25.390625 20.359375 22.71875 17.859375 
Q 20.0625 15.375 17.96875 12.8125 
Q 15.875 10.25 14.703125 7.46875 
L 50.59375 7.46875 
L 50.59375 0 
z
" id="LiberationSans-32"/>
      </defs>
      <g style="fill:#262626;" transform="translate(681.199588 331.7975)scale(0.08 -0.08)">
       <use xlink:href="#LiberationSans-30"/>
       <use x="55.615234" xlink:href="#LiberationSans-2e"/>
       <use x="83.398438" xlink:href="#LiberationSans-30"/>
       <use x="139.013672" xlink:href="#LiberationSans-32"/>
       <use x="194.628906" xlink:href="#LiberationSans-30"/>
      </g>
     </g>
    </g>
    <g id="xtick_6">
     <g id="line2d_11">
      <path clip-path="url(#pe4fedec01a)" d="M 817.864968 320.4 
L 817.864968 43.2 
" style="fill:none;stroke:#ffffff;stroke-linecap:round;stroke-width:0.8;"/>
     </g>
     <g id="line2d_12"/>
     <g id="text_6">
      <!-- 0.025 -->
      <g style="fill:#262626;" transform="translate(807.856218 331.7975)scale(0.08 -0.08)">
       <use xlink:href="#LiberationSans-30"/>
       <use x="55.615234" xlink:href="#LiberationSans-2e"/>
       <use x="83.398438" xlink:href="#LiberationSans-30"/>
       <use x="139.013672" xlink:href="#LiberationSans-32"/>
       <use x="194.628906" xlink:href="#LiberationSans-35"/>
      </g>
     </g>
    </g>
    <g id="xtick_7">
     <g id="line2d_13">
      <path clip-path="url(#pe4fedec01a)" d="M 944.521598 320.4 
L 944.521598 43.2 
" style="fill:none;stroke:#ffffff;stroke-linecap:round;stroke-width:0.8;"/>
     </g>
     <g id="line2d_14"/>
     <g id="text_7">
      <!-- 0.030 -->
      <defs>
       <path d="M 51.21875 19 
Q 51.21875 14.265625 49.671875 10.546875 
Q 48.140625 6.84375 45.1875 4.265625 
Q 42.234375 1.703125 37.859375 0.359375 
Q 33.5 -0.984375 27.875 -0.984375 
Q 21.484375 -0.984375 17.109375 0.609375 
Q 12.75 2.203125 9.90625 4.8125 
Q 7.078125 7.421875 5.65625 10.765625 
Q 4.25 14.109375 3.8125 17.671875 
L 12.890625 18.5 
Q 13.28125 15.765625 14.328125 13.515625 
Q 15.375 11.28125 17.1875 9.671875 
Q 19 8.0625 21.625 7.171875 
Q 24.265625 6.296875 27.875 6.296875 
Q 34.515625 6.296875 38.296875 9.5625 
Q 42.09375 12.84375 42.09375 19.28125 
Q 42.09375 23.09375 40.40625 25.40625 
Q 38.71875 27.734375 36.203125 29.03125 
Q 33.6875 30.328125 30.734375 30.765625 
Q 27.78125 31.203125 25.296875 31.203125 
L 20.3125 31.203125 
L 20.3125 38.8125 
L 25.09375 38.8125 
Q 27.59375 38.8125 30.265625 39.328125 
Q 32.953125 39.84375 35.171875 41.1875 
Q 37.40625 42.53125 38.84375 44.828125 
Q 40.28125 47.125 40.28125 50.6875 
Q 40.28125 56.203125 37.03125 59.390625 
Q 33.796875 62.59375 27.390625 62.59375 
Q 21.578125 62.59375 17.984375 59.609375 
Q 14.40625 56.640625 13.8125 51.21875 
L 4.984375 51.90625 
Q 5.515625 56.453125 7.46875 59.8125 
Q 9.421875 63.1875 12.421875 65.40625 
Q 15.4375 67.625 19.28125 68.71875 
Q 23.140625 69.828125 27.484375 69.828125 
Q 33.25 69.828125 37.390625 68.375 
Q 41.546875 66.9375 44.1875 64.46875 
Q 46.828125 62.015625 48.0625 58.6875 
Q 49.3125 55.375 49.3125 51.609375 
Q 49.3125 48.578125 48.484375 45.9375 
Q 47.65625 43.3125 45.890625 41.203125 
Q 44.140625 39.109375 41.421875 37.59375 
Q 38.71875 36.078125 34.90625 35.296875 
L 34.90625 35.109375 
Q 39.0625 34.671875 42.140625 33.21875 
Q 45.21875 31.78125 47.21875 29.625 
Q 49.21875 27.484375 50.21875 24.75 
Q 51.21875 22.015625 51.21875 19 
" id="LiberationSans-33"/>
      </defs>
      <g style="fill:#262626;" transform="translate(934.512848 331.7975)scale(0.08 -0.08)">
       <use xlink:href="#LiberationSans-30"/>
       <use x="55.615234" xlink:href="#LiberationSans-2e"/>
       <use x="83.398438" xlink:href="#LiberationSans-30"/>
       <use x="139.013672" xlink:href="#LiberationSans-33"/>
       <use x="194.628906" xlink:href="#LiberationSans-30"/>
      </g>
     </g>
    </g>
   </g>
   <g id="matplotlib.axis_2">
    <g id="ytick_1">
     <g id="line2d_15">
      <path clip-path="url(#pe4fedec01a)" d="M 144 318.51741 
L 1036.8 318.51741 
" style="fill:none;stroke:#ffffff;stroke-linecap:round;stroke-width:0.8;"/>
     </g>
     <g id="line2d_16"/>
     <g id="text_8">
      <!-- −4 -->
      <defs>
       <path d="M 4.9375 29.6875 
L 4.9375 36.8125 
L 53.515625 36.8125 
L 53.515625 29.6875 
z
" id="LiberationSans-2212"/>
       <path d="M 43.015625 15.578125 
L 43.015625 0 
L 34.71875 0 
L 34.71875 15.578125 
L 2.296875 15.578125 
L 2.296875 22.40625 
L 33.796875 68.796875 
L 43.015625 68.796875 
L 43.015625 22.515625 
L 52.6875 22.515625 
L 52.6875 15.578125 
z
M 34.71875 58.890625 
Q 34.625 58.640625 34.234375 57.9375 
Q 33.84375 57.234375 33.34375 56.34375 
Q 32.859375 55.46875 32.34375 54.5625 
Q 31.84375 53.65625 31.453125 53.078125 
L 13.8125 27.09375 
Q 13.578125 26.703125 13.109375 26.0625 
Q 12.640625 25.4375 12.15625 24.78125 
Q 11.671875 24.125 11.171875 23.484375 
Q 10.6875 22.859375 10.40625 22.515625 
L 34.71875 22.515625 
z
" id="LiberationSans-34"/>
      </defs>
      <g style="fill:#262626;" transform="translate(129.27875 321.41616)scale(0.08 -0.08)">
       <use xlink:href="#LiberationSans-2212"/>
       <use x="58.398438" xlink:href="#LiberationSans-34"/>
      </g>
     </g>
    </g>
    <g id="ytick_2">
     <g id="line2d_17">
      <path clip-path="url(#pe4fedec01a)" d="M 144 286.43806 
L 1036.8 286.43806 
" style="fill:none;stroke:#ffffff;stroke-linecap:round;stroke-width:0.8;"/>
     </g>
     <g id="line2d_18"/>
     <g id="text_9">
      <!-- −3 -->
      <g style="fill:#262626;" transform="translate(129.27875 289.33681)scale(0.08 -0.08)">
       <use xlink:href="#LiberationSans-2212"/>
       <use x="58.398438" xlink:href="#LiberationSans-33"/>
      </g>
     </g>
    </g>
    <g id="ytick_3">
     <g id="line2d_19">
      <path clip-path="url(#pe4fedec01a)" d="M 144 254.35871 
L 1036.8 254.35871 
" style="fill:none;stroke:#ffffff;stroke-linecap:round;stroke-width:0.8;"/>
     </g>
     <g id="line2d_20"/>
     <g id="text_10">
      <!-- −2 -->
      <g style="fill:#262626;" transform="translate(129.27875 257.25746)scale(0.08 -0.08)">
       <use xlink:href="#LiberationSans-2212"/>
       <use x="58.398438" xlink:href="#LiberationSans-32"/>
      </g>
     </g>
    </g>
    <g id="ytick_4">
     <g id="line2d_21">
      <path clip-path="url(#pe4fedec01a)" d="M 144 222.27936 
L 1036.8 222.27936 
" style="fill:none;stroke:#ffffff;stroke-linecap:round;stroke-width:0.8;"/>
     </g>
     <g id="line2d_22"/>
     <g id="text_11">
      <!-- −1 -->
      <g style="fill:#262626;" transform="translate(129.27875 225.17811)scale(0.08 -0.08)">
       <use xlink:href="#LiberationSans-2212"/>
       <use x="58.398438" xlink:href="#LiberationSans-31"/>
      </g>
     </g>
    </g>
    <g id="ytick_5">
     <g id="line2d_23">
      <path clip-path="url(#pe4fedec01a)" d="M 144 190.20001 
L 1036.8 190.20001 
" style="fill:none;stroke:#ffffff;stroke-linecap:round;stroke-width:0.8;"/>
     </g>
     <g id="line2d_24"/>
     <g id="text_12">
      <!-- 0 -->
      <g style="fill:#262626;" transform="translate(133.95125 193.09876)scale(0.08 -0.08)">
       <use xlink:href="#LiberationSans-30"/>
      </g>
     </g>
    </g>
    <g id="ytick_6">
     <g id="line2d_25">
      <path clip-path="url(#pe4fedec01a)" d="M 144 158.12066 
L 1036.8 158.12066 
" style="fill:none;stroke:#ffffff;stroke-linecap:round;stroke-width:0.8;"/>
     </g>
     <g id="line2d_26"/>
     <g id="text_13">
      <!-- 1 -->
      <g style="fill:#262626;" transform="translate(133.95125 161.01941)scale(0.08 -0.08)">
       <use xlink:href="#LiberationSans-31"/>
      </g>
     </g>
    </g>
    <g id="ytick_7">
     <g id="line2d_27">
      <path clip-path="url(#pe4fedec01a)" d="M 144 126.04131 
L 1036.8 126.04131 
" style="fill:none;stroke:#ffffff;stroke-linecap:round;stroke-width:0.8;"/>
     </g>
     <g id="line2d_28"/>
     <g id="text_14">
      <!-- 2 -->
      <g style="fill:#262626;" transform="translate(133.95125 128.94006)scale(0.08 -0.08)">
       <use xlink:href="#LiberationSans-32"/>
      </g>
     </g>
    </g>
    <g id="ytick_8">
     <g id="line2d_29">
      <path clip-path="url(#pe4fedec01a)" d="M 144 93.96196 
L 1036.8 93.96196 
" style="fill:none;stroke:#ffffff;stroke-linecap:round;stroke-width:0.8;"/>
     </g>
     <g id="line2d_30"/>
     <g id="text_15">
      <!-- 3 -->
      <g style="fill:#262626;" transform="translate(133.95125 96.86071)scale(0.08 -0.08)">
       <use xlink:href="#LiberationSans-33"/>
      </g>
     </g>
    </g>
    <g id="ytick_9">
     <g id="line2d_31">
      <path clip-path="url(#pe4fedec01a)" d="M 144 61.88261 
L 1036.8 61.88261 
" style="fill:none;stroke:#ffffff;stroke-linecap:round;stroke-width:0.8;"/>
     </g>
     <g id="line2d_32"/>
     <g id="text_16">
      <!-- 4 -->
      <g style="fill:#262626;" transform="translate(133.95125 64.78136)scale(0.08 -0.08)">
       <use xlink:href="#LiberationSans-34"/>
      </g>
     </g>
    </g>
   </g>
   <g id="line2d_33">
    <path clip-path="url(#pe4fedec01a)" d="M 184.581818 84.133989 
L 185.156225 84.977857 
L 185.730631 84.862818 
L 186.305038 83.810859 
L 186.879444 81.913654 
L 188.028257 76.254926 
L 189.751477 66.676192 
L 190.325883 64.236701 
L 190.90029 62.562694 
L 191.474696 61.823089 
L 192.049102 62.125523 
L 192.623509 63.50835 
L 193.197915 65.937271 
L 193.772322 69.30684 
L 194.921135 78.132439 
L 196.644354 92.724377 
L 197.218761 96.813959 
L 197.793167 100.085537 
L 198.367574 102.344102 
L 198.94198 103.456309 
L 199.516387 103.359264 
L 200.090793 102.064717 
L 200.6652 99.658357 
L 201.239606 96.294268 
L 202.388419 87.587338 
L 204.111639 73.741586 
L 204.686045 70.038696 
L 205.260452 67.179632 
L 205.834858 65.31851 
L 206.409265 64.542054 
L 206.983671 64.864602 
L 207.558078 66.227943 
L 208.132484 68.506012 
L 209.281297 75.021899 
L 211.004517 85.907961 
L 211.578923 88.796201 
L 212.153329 90.95462 
L 212.727736 92.242232 
L 213.302142 92.583277 
L 213.876549 91.972535 
L 214.450955 90.475859 
L 215.025362 88.225854 
L 216.174175 82.272936 
L 217.322988 76.081093 
L 217.897394 73.573558 
L 218.471801 71.790047 
L 219.046207 70.930198 
L 219.620614 71.137015 
L 220.19502 72.486646 
L 220.769427 74.982567 
L 221.343833 78.554572 
L 222.492646 88.305439 
L 225.364679 116.021453 
L 225.939085 119.9136 
L 226.513492 122.739531 
L 227.087898 124.389823 
L 227.662305 124.827781 
L 228.236711 124.091383 
L 228.811118 122.290322 
L 229.385524 119.598351 
L 230.534337 112.482549 
L 232.257556 101.601576 
L 232.831963 98.971578 
L 233.406369 97.177353 
L 233.980776 96.335376 
L 234.555182 96.492728 
L 235.129589 97.624506 
L 235.703995 99.6361 
L 236.852808 105.617871 
L 238.576028 115.906294 
L 239.150434 118.64788 
L 239.724841 120.66238 
L 240.299247 121.785492 
L 240.873654 121.91453 
L 241.44806 121.015983 
L 242.022467 119.12841 
L 242.596873 116.360471 
L 243.745686 108.924053 
L 245.468906 96.846365 
L 246.043312 93.684859 
L 246.617719 91.369821 
L 247.192125 90.083783 
L 247.766532 89.946525 
L 248.340938 91.006816 
L 248.915345 93.238822 
L 249.489751 96.543398 
L 250.638564 105.64819 
L 252.93619 126.477705 
L 253.510596 130.578287 
L 254.085003 133.759854 
L 254.659409 135.874133 
L 255.233816 136.841713 
L 255.808222 136.656539 
L 256.382629 135.38554 
L 256.957035 133.16343 
L 258.105848 126.681787 
L 259.829068 115.740546 
L 260.403474 112.818936 
L 260.977881 110.621202 
L 261.552287 109.287627 
L 262.126694 108.89265 
L 262.7011 109.439959 
L 263.275507 110.862385 
L 263.849913 113.026635 
L 264.998726 118.776035 
L 266.147539 124.739736 
L 266.721946 127.136418 
L 267.296352 128.820694 
L 267.870759 129.60139 
L 268.445165 129.344601 
L 269.019572 127.983444 
L 269.593978 125.523356 
L 270.168384 122.042577 
L 271.317197 112.665045 
L 273.614823 91.293928 
L 274.18923 87.052851 
L 274.763636 83.746939 
L 275.338043 81.540034 
L 275.912449 80.528671 
L 276.486856 80.735919 
L 277.061262 82.110023 
L 277.635669 84.527952 
L 278.784482 91.700126 
L 281.082108 107.909523 
L 281.656514 110.766823 
L 282.230921 112.722493 
L 282.805327 113.663117 
L 283.379734 113.545763 
L 283.95414 112.400105 
L 284.528547 110.325685 
L 285.67736 104.089315 
L 287.400579 93.140555 
L 287.974986 90.10821 
L 288.549392 87.765768 
L 289.123798 86.275115 
L 289.698205 85.736112 
L 290.272611 86.179448 
L 290.847018 87.564196 
L 291.421424 89.780216 
L 292.570237 95.966432 
L 294.293457 105.853439 
L 294.867863 108.227798 
L 295.44227 109.743852 
L 296.016676 110.231096 
L 296.591083 109.582537 
L 297.165489 107.762407 
L 297.739896 104.809187 
L 298.314302 100.833736 
L 299.463115 90.577227 
L 301.760741 68.350883 
L 302.335148 64.090199 
L 302.909554 60.814163 
L 303.483961 58.662442 
L 304.058367 57.704487 
L 304.632774 57.935577 
L 305.20718 59.277743 
L 305.781587 61.585515 
L 306.9304 68.243256 
L 308.653619 79.352523 
L 309.228025 82.287524 
L 309.802432 84.475116 
L 310.376838 85.775715 
L 310.951245 86.116461 
L 311.525651 85.495721 
L 312.100058 83.982753 
L 312.674464 81.712556 
L 313.823277 75.707803 
L 314.97209 69.423776 
L 315.546497 66.835036 
L 316.120903 64.930975 
L 316.69531 63.896766 
L 317.269716 63.859815 
L 317.844123 64.880453 
L 318.418529 66.94712 
L 318.992936 69.976382 
L 320.141749 78.263214 
L 322.439375 96.72541 
L 323.013781 100.119955 
L 323.588188 102.551586 
L 324.162594 103.869444 
L 324.737001 103.990941 
L 325.311407 102.907347 
L 325.885814 100.684551 
L 326.46022 97.458919 
L 327.609033 88.840516 
L 329.332252 74.585827 
L 329.906659 70.621088 
L 330.481065 67.459952 
L 331.055472 65.275789 
L 331.629878 64.176741 
L 332.204285 64.199308 
L 332.778691 65.306714 
L 333.353098 67.392155 
L 333.927504 70.286693 
L 335.076317 77.592028 
L 336.22513 85.159182 
L 336.799537 88.38627 
L 337.373943 90.946525 
L 337.94835 92.678936 
L 338.522756 93.485107 
L 339.097163 93.336007 
L 339.671569 92.273991 
L 340.245976 90.409959 
L 341.394789 85.013 
L 342.543602 79.020367 
L 343.118008 76.473794 
L 343.692415 74.567615 
L 344.266821 73.514449 
L 344.841228 73.474348 
L 345.415634 74.543377 
L 345.990041 76.74643 
L 346.564447 80.034755 
L 347.71326 89.323195 
L 350.585292 116.986482 
L 351.159699 121.050073 
L 351.734105 124.08007 
L 352.308512 125.94794 
L 352.882918 126.596493 
L 353.457325 126.04327 
L 354.031731 124.379037 
L 354.606138 121.761474 
L 355.754951 114.563935 
L 357.47817 102.960032 
L 358.052577 99.961002 
L 358.626983 97.761123 
L 359.20139 96.498341 
L 359.775796 96.242756 
L 360.350203 96.992553 
L 360.924609 98.67479 
L 361.499016 101.150985 
L 362.647829 107.667288 
L 363.796642 114.588171 
L 364.371048 117.54405 
L 364.945455 119.850939 
L 365.519861 121.327176 
L 366.094268 121.849347 
L 366.668674 121.361186 
L 367.24308 119.87793 
L 367.817487 117.485845 
L 368.9663 110.639171 
L 370.689519 98.86793 
L 371.263926 95.645587 
L 371.838332 93.20054 
L 372.412739 91.729827 
L 372.987145 91.371135 
L 373.561552 92.193266 
L 374.135958 94.191121 
L 374.710365 97.285536 
L 375.859178 106.109864 
L 378.73121 131.487808 
L 379.305617 134.919971 
L 379.880023 137.303566 
L 380.45443 138.538312 
L 381.028836 138.596681 
L 381.603243 137.524996 
L 382.177649 135.43965 
L 382.752056 132.518712 
L 383.900869 125.112808 
L 385.049682 117.420595 
L 385.624088 114.130693 
L 386.198494 111.509191 
L 386.772901 109.716883 
L 387.347307 108.851106 
L 387.921714 108.939386 
L 388.49612 109.937843 
L 389.070527 111.734447 
L 390.21934 116.9847 
L 391.368153 122.82672 
L 391.942559 125.306306 
L 392.516966 127.159033 
L 393.091372 128.179666 
L 393.665779 128.216257 
L 394.240185 127.181119 
L 394.814592 125.057516 
L 395.388998 121.901628 
L 396.537811 113.060038 
L 399.409844 87.62505 
L 399.98425 84.162347 
L 400.558657 81.762624 
L 401.133063 80.541439 
L 401.70747 80.542193 
L 402.281876 81.733329 
L 402.856283 84.010439 
L 403.430689 87.203135 
L 404.579502 95.394493 
L 406.302721 107.990016 
L 406.877128 111.17373 
L 407.451534 113.48648 
L 408.025941 114.793717 
L 408.600347 115.030025 
L 409.174754 114.202718 
L 409.74916 112.390572 
L 410.323567 109.737774 
L 411.47238 102.747926 
L 413.195599 91.906425 
L 413.770006 89.213965 
L 414.344412 87.318564 
L 414.918819 86.341601 
L 415.493225 86.33711 
L 416.067632 87.287848 
L 416.642038 89.106214 
L 417.216445 91.639952 
L 420.088477 106.737177 
L 420.662884 108.40587 
L 421.23729 109.10412 
L 421.811697 108.706372 
L 422.386103 107.156246 
L 422.96051 104.471005 
L 423.534916 100.741138 
L 424.683729 90.839643 
L 426.981355 68.538078 
L 427.555761 64.105667 
L 428.130168 60.620471 
L 428.704574 58.240636 
L 429.278981 57.056007 
L 429.853387 57.082752 
L 430.427794 58.26282 
L 431.0022 60.468291 
L 431.576607 63.510288 
L 433.299826 75.143927 
L 434.448639 82.237689 
L 435.023046 84.842417 
L 435.597452 86.587277 
L 436.171859 87.37657 
L 436.746265 87.185105 
L 437.320672 86.059364 
L 437.895078 84.113806 
L 439.043891 78.507204 
L 440.767111 69.501687 
L 441.341517 67.371631 
L 441.915924 66.041743 
L 442.49033 65.658517 
L 443.064737 66.303986 
L 443.639143 67.989489 
L 444.21355 70.654199 
L 445.362362 78.342119 
L 447.659988 96.462761 
L 448.234395 99.959433 
L 448.808801 102.550121 
L 449.383208 104.067377 
L 449.957614 104.409409 
L 450.532021 103.547042 
L 451.106427 101.525924 
L 451.680834 98.463829 
L 452.829647 89.999618 
L 455.127273 71.253683 
L 455.701679 67.818952 
L 456.276086 65.334429 
L 456.850492 63.928911 
L 457.424899 63.66074 
L 457.999305 64.514699 
L 458.573712 66.403801 
L 459.148118 69.175835 
L 460.296931 76.502424 
L 462.020151 88.018458 
L 462.594557 90.970213 
L 463.168964 93.141393 
L 463.74337 94.411548 
L 464.317776 94.727995 
L 464.892183 94.109326 
L 465.466589 92.644068 
L 466.040996 90.484573 
L 468.913028 77.485487 
L 469.487435 76.242336 
L 470.061841 75.952066 
L 470.636248 76.73016 
L 471.210654 78.622868 
L 471.785061 81.603282 
L 472.359467 85.572281 
L 473.50828 95.757472 
L 475.805906 117.789766 
L 476.380313 121.998243 
L 476.954719 125.212726 
L 477.529126 127.286416 
L 478.103532 128.14202 
L 478.677939 127.776571 
L 479.252345 126.261372 
L 479.826752 123.73708 
L 480.975565 116.509999 
L 482.698784 104.272217 
L 483.273191 100.929912 
L 483.847597 98.345841 
L 484.422003 96.678508 
L 484.99641 96.020523 
L 485.570816 96.393084 
L 486.145223 97.745277 
L 486.719629 99.958226 
L 487.868442 106.207297 
L 489.591662 116.414434 
L 490.166068 119.008368 
L 490.740475 120.836969 
L 491.314881 121.75677 
L 491.889288 121.689016 
L 492.463694 120.62546 
L 493.038101 118.629385 
L 493.612507 115.831767 
L 494.76132 108.63963 
L 495.910133 101.036002 
L 496.48454 97.772658 
L 497.058946 95.21177 
L 497.633353 93.563705 
L 498.207759 92.983253 
L 498.782166 93.558873 
L 499.356572 95.306293 
L 499.930979 98.16688 
L 500.505385 102.01092 
L 501.654198 111.827002 
L 503.377417 127.789107 
L 504.52623 135.937111 
L 505.100637 138.568609 
L 505.675043 140.056383 
L 506.24945 140.351687 
L 506.823856 139.480035 
L 507.398263 137.538863 
L 507.972669 134.690464 
L 509.121482 127.173986 
L 510.844702 115.377152 
L 511.419108 112.34736 
L 511.993515 110.107478 
L 512.567921 108.777127 
L 513.142328 108.407479 
L 513.716734 108.978172 
L 514.291141 110.399083 
L 514.865547 112.516834 
L 517.73758 125.38697 
L 518.311986 126.646645 
L 518.886393 126.981734 
L 519.460799 126.284184 
L 520.035206 124.515096 
L 520.609612 121.70815 
L 521.184019 117.968158 
L 522.332831 108.422204 
L 524.056051 92.795256 
L 525.204864 84.773661 
L 525.77927 82.194519 
L 526.353677 80.768808 
L 526.928083 80.55999 
L 527.50249 81.556906 
L 528.076896 83.674427 
L 528.651303 86.75895 
L 529.800116 94.935889 
L 531.523335 108.060252 
L 532.097742 111.541318 
L 532.672148 114.187039 
L 533.246555 115.84265 
L 533.820961 116.420749 
L 534.395368 115.906344 
L 534.969774 114.357064 
L 535.544181 111.898525 
L 536.692994 105.03721 
L 538.416213 93.67437 
L 538.99062 90.640607 
L 539.565026 88.344998 
L 540.139433 86.929754 
L 540.713839 86.471964 
L 541.288246 86.978212 
L 541.862652 88.383994 
L 542.437058 90.557969 
L 543.585871 96.407756 
L 544.734684 102.56692 
L 545.309091 105.085603 
L 545.883497 106.898665 
L 546.457904 107.806243 
L 547.03231 107.664914 
L 547.606717 106.397961 
L 548.181123 104.001234 
L 548.75553 100.544213 
L 549.904343 91.067827 
L 552.776375 64.273457 
L 553.350782 60.604148 
L 553.925188 58.013999 
L 554.499595 56.612631 
L 555.074001 56.436937 
L 555.648408 57.449093 
L 556.222814 59.539466 
L 556.797221 62.534227 
L 557.946034 70.294858 
L 559.669253 82.231419 
L 560.24366 85.232843 
L 560.818066 87.406141 
L 561.392472 88.633413 
L 561.966879 88.866131 
L 562.541285 88.127788 
L 563.115692 86.511681 
L 563.690098 84.173982 
L 566.562131 69.865982 
L 567.136537 68.241416 
L 567.710944 67.507502 
L 568.28535 67.76756 
L 568.859757 69.055847 
L 569.434163 71.334595 
L 570.00857 74.49593 
L 571.157383 82.728574 
L 572.880602 96.030827 
L 573.455009 99.609055 
L 574.029415 102.34471 
L 574.603822 104.054772 
L 575.178228 104.618845 
L 575.752635 103.987451 
L 576.327041 102.185678 
L 576.901448 99.311929 
L 578.050261 91.06791 
L 580.347887 71.944559 
L 580.922293 68.266556 
L 581.496699 65.506265 
L 582.071106 63.812255 
L 582.645512 63.26425 
L 583.219919 63.868591 
L 583.794325 65.558547 
L 584.368732 68.199476 
L 585.517545 75.517724 
L 587.240764 87.703224 
L 587.815171 91.033008 
L 588.389577 93.633482 
L 588.963984 95.36286 
L 589.53839 96.145125 
L 590.112797 95.975003 
L 590.687203 94.918117 
L 591.26161 93.106327 
L 592.410423 88.017709 
L 593.559236 82.65002 
L 594.133642 80.525791 
L 594.708049 79.096777 
L 595.282455 78.554332 
L 595.856862 79.03274 
L 596.431268 80.599416 
L 597.005675 83.249558 
L 597.580081 86.905611 
L 598.728894 96.592015 
L 601.02652 118.427732 
L 601.600926 122.754279 
L 602.175333 126.133224 
L 602.749739 128.400441 
L 603.324146 129.459045 
L 603.898552 129.2856 
L 604.472959 127.931527 
L 605.047365 125.519594 
L 606.196178 118.316902 
L 608.493804 101.88311 
L 609.068211 98.939176 
L 609.642617 96.886464 
L 610.217024 95.839438 
L 610.79143 95.842091 
L 611.365837 96.865751 
L 611.940243 98.811781 
L 612.51465 101.518943 
L 614.237869 111.921423 
L 615.386682 118.150932 
L 615.961089 120.328427 
L 616.535495 121.647292 
L 617.109902 122.006699 
L 617.684308 121.374906 
L 618.258715 119.791777 
L 618.833121 117.36642 
L 619.981934 110.725092 
L 621.705153 100.055511 
L 622.27956 97.392821 
L 622.853966 95.575008 
L 623.428373 94.773069 
L 624.002779 95.094636 
L 624.577186 96.576232 
L 625.151592 99.180192 
L 625.725999 102.796483 
L 626.874812 112.308055 
L 629.172438 132.95362 
L 629.746844 136.801832 
L 630.321251 139.658548 
L 630.895657 141.38399 
L 631.470064 141.908576 
L 632.04447 141.236932 
L 632.618877 139.447011 
L 633.193283 136.684392 
L 634.342096 129.096988 
L 636.065316 116.553623 
L 636.639722 113.134258 
L 637.214129 110.461426 
L 637.788535 108.676272 
L 638.362942 107.853265 
L 638.937348 107.995639 
L 639.511754 109.035671 
L 640.086161 110.839766 
L 641.234974 115.937523 
L 642.383787 121.353634 
L 642.958193 123.524141 
L 643.5326 125.020501 
L 644.107006 125.657284 
L 644.681413 125.30664 
L 645.255819 123.90765 
L 645.830226 121.471196 
L 646.404632 118.080006 
L 647.553445 109.090235 
L 649.851071 89.293586 
L 650.425478 85.579629 
L 650.999884 82.834714 
L 651.574291 81.210167 
L 652.148697 80.789131 
L 652.723104 81.580928 
L 653.29751 83.520257 
L 653.871917 86.471278 
L 655.02073 94.568642 
L 656.743949 108.114336 
L 657.318356 111.861507 
L 657.892762 114.813777 
L 658.467169 116.797208 
L 659.041575 117.703049 
L 659.615981 117.494195 
L 660.190388 116.206875 
L 660.764794 113.947463 
L 661.913607 107.237327 
L 664.211233 92.033904 
L 664.78564 89.345806 
L 665.360046 87.495414 
L 665.934453 86.582434 
L 666.508859 86.637263 
L 667.083266 87.618897 
L 667.657672 89.417717 
L 668.806485 94.734195 
L 670.529705 103.288783 
L 671.104111 105.237682 
L 671.678518 106.352183 
L 672.252924 106.471796 
L 672.827331 105.499851 
L 673.401737 103.410722 
L 673.976144 100.252366 
L 675.124957 91.268754 
L 677.996989 64.599769 
L 678.571395 60.772049 
L 679.145802 57.990134 
L 679.720208 56.382688 
L 680.294615 56.007054 
L 680.869021 56.84582 
L 681.443428 58.808282 
L 682.017834 61.736702 
L 683.166647 69.592823 
L 684.889867 82.267936 
L 685.464273 85.642551 
L 686.03868 88.225257 
L 686.613086 89.876737 
L 687.187493 90.525496 
L 687.761899 90.171973 
L 688.336306 88.887818 
L 688.910712 86.81036 
L 690.059525 81.089852 
L 691.208338 74.958827 
L 691.782745 72.395234 
L 692.357151 70.479149 
L 692.931558 69.392719 
L 693.505964 69.260009 
L 694.080371 70.138059 
L 694.654777 72.012465 
L 695.229184 74.7978 
L 696.377997 82.440295 
L 698.101216 95.436283 
L 698.675622 99.075889 
L 699.250029 101.942419 
L 699.824435 103.838375 
L 700.398842 104.625464 
L 700.973248 104.234165 
L 701.547655 102.668796 
L 702.122061 100.007725 
L 702.696468 96.398711 
L 703.845281 87.215551 
L 705.5685 72.701569 
L 706.142907 68.812181 
L 706.717313 65.802387 
L 707.29172 63.839512 
L 707.866126 63.024085 
L 708.440533 63.383867 
L 709.014939 64.872708 
L 709.589346 67.374274 
L 710.738159 74.653507 
L 713.035785 91.141228 
L 713.610191 94.158113 
L 714.184598 96.33836 
L 714.759004 97.583089 
L 715.333411 97.863207 
L 715.907817 97.221063 
L 716.482224 95.767255 
L 717.05663 93.672787 
L 719.354256 83.669515 
L 719.928662 82.059609 
L 720.503069 81.264325 
L 721.077475 81.436017 
L 721.651882 82.66295 
L 722.226288 84.962552 
L 722.800695 88.279405 
L 723.949508 97.400857 
L 726.82154 123.316159 
L 727.395947 126.83926 
L 727.970353 129.287287 
L 728.54476 130.544379 
L 729.119166 130.566791 
L 729.693573 129.385743 
L 730.267979 127.105361 
L 730.842386 123.89585 
L 731.991199 115.630195 
L 733.714418 102.825971 
L 734.288825 99.549152 
L 734.863231 97.132951 
L 735.437638 95.7129 
L 736.012044 95.355418 
L 736.58645 96.054159 
L 737.160857 97.731222 
L 737.735263 100.243153 
L 738.884076 106.935879 
L 740.607296 117.294433 
L 741.181702 119.814592 
L 741.756109 121.530823 
L 742.330515 122.32078 
L 742.904922 122.129375 
L 743.479328 120.972763 
L 744.053735 118.937489 
L 745.202548 112.890798 
L 746.925767 102.481804 
L 747.500174 99.731165 
L 748.07458 97.75149 
L 748.648987 96.728987 
L 749.223393 96.789874 
L 749.7978 97.991319 
L 750.372206 100.316933 
L 750.946613 103.677129 
L 752.095426 112.812615 
L 754.393052 133.494332 
L 754.967458 137.505842 
L 755.541865 140.564036 
L 756.116271 142.510735 
L 756.690677 143.256027 
L 757.265084 142.783687 
L 757.83949 141.151766 
L 758.413897 138.488294 
L 759.56271 130.871456 
L 761.860336 113.86943 
L 762.434742 110.781622 
L 763.009149 108.554887 
L 763.583555 107.286485 
L 764.157962 107.003174 
L 764.732368 107.659978 
L 765.306775 109.143831 
L 765.881181 111.281807 
L 768.178807 121.590721 
L 768.753214 123.319868 
L 769.32762 124.259514 
L 769.902027 124.262696 
L 770.476433 123.246757 
L 771.05084 121.19963 
L 771.625246 118.181369 
L 772.774059 109.807603 
L 775.071685 90.385535 
L 775.646091 86.576966 
L 776.220498 83.68008 
L 776.794904 81.862752 
L 777.369311 81.227313 
L 777.943717 81.803535 
L 778.518124 83.546385 
L 779.09253 86.338667 
L 780.241343 94.290509 
L 782.538969 112.126212 
L 783.113376 115.356547 
L 783.687782 117.645151 
L 784.262189 118.862688 
L 784.836595 118.950268 
L 785.411002 117.922599 
L 785.985408 115.866256 
L 786.559815 112.933181 
L 787.708628 105.302961 
L 789.431847 93.382944 
L 790.006254 90.313251 
L 790.58066 88.034312 
L 791.155067 86.667867 
L 791.729473 86.267947 
L 792.30388 86.817307 
L 792.878286 88.228706 
L 793.452693 90.350955 
L 796.324725 103.439813 
L 796.899131 104.758048 
L 797.473538 105.141933 
L 798.047944 104.475341 
L 798.622351 102.711242 
L 799.196757 99.875676 
L 799.771164 96.066859 
L 800.919977 86.244559 
L 803.217603 65.089344 
L 803.792009 61.129347 
L 804.366416 58.174791 
L 804.940822 56.372542 
L 805.515229 55.8 
L 806.089635 56.460241 
L 806.664042 58.282021 
L 807.238448 61.12465 
L 808.387261 69.022836 
L 810.110481 82.345548 
L 810.684887 86.066979 
L 811.259294 89.03703 
L 811.8337 91.095896 
L 812.408107 92.149627 
L 812.982513 92.175694 
L 813.55692 91.22375 
L 814.131326 89.411537 
L 815.280139 83.961764 
L 817.003358 74.940684 
L 817.577765 72.73846 
L 818.152171 71.300365 
L 818.726578 70.770528 
L 819.300984 71.228498 
L 819.875391 72.683385 
L 820.449797 75.072789 
L 821.59861 82.075221 
L 823.896236 98.368941 
L 824.470643 101.352313 
L 825.045049 103.426946 
L 825.619456 104.43745 
L 826.193862 104.294635 
L 826.768269 102.98196 
L 827.342675 100.557205 
L 827.917082 97.149251 
L 829.065895 88.2031 
L 830.789114 73.5322 
L 831.363521 69.464594 
L 831.937927 66.232976 
L 832.512334 64.022309 
L 833.08674 62.953213 
L 833.661146 63.074616 
L 834.235553 64.361146 
L 834.809959 66.715415 
L 835.384366 69.975044 
L 836.533179 78.307139 
L 838.256398 91.300127 
L 838.830805 94.717212 
L 839.405211 97.336438 
L 839.979618 99.036686 
L 840.554024 99.765249 
L 841.128431 99.540984 
L 841.702837 98.452595 
L 842.277244 96.652184 
L 843.426057 91.772581 
L 844.57487 86.896705 
L 845.149276 85.111779 
L 845.723683 84.064423 
L 846.298089 83.924226 
L 846.872496 84.799855 
L 847.446902 86.730957 
L 848.021309 89.684683 
L 849.170122 98.179231 
L 852.042154 123.683723 
L 852.616561 127.330549 
L 853.190967 129.946344 
L 853.765373 131.396994 
L 854.33978 131.618713 
L 854.914186 130.622322 
L 855.488593 128.492645 
L 856.062999 125.383056 
L 857.211812 117.116947 
L 858.935032 103.76434 
L 859.509438 100.184014 
L 860.083845 97.428719 
L 860.658251 95.654127 
L 861.232658 94.948585 
L 861.807064 95.328003 
L 862.381471 96.7356 
L 862.955877 99.046479 
L 864.10469 105.596518 
L 865.82791 116.454046 
L 866.402316 119.307852 
L 866.976723 121.416572 
L 867.551129 122.63704 
L 868.125536 122.891114 
L 868.699942 122.171117 
L 869.274349 120.54048 
L 869.848755 118.129552 
L 870.997568 111.766303 
L 872.146381 105.037516 
L 872.720787 102.212561 
L 873.295194 100.079193 
L 873.8696 98.837761 
L 874.444007 98.632367 
L 875.018413 99.540555 
L 875.59282 101.567401 
L 876.167226 104.644401 
L 877.316039 113.33417 
L 879.613665 133.898129 
L 880.188072 138.042127 
L 880.762478 141.277226 
L 881.336885 143.427895 
L 881.911291 144.384505 
L 882.485698 144.110145 
L 883.060104 142.642658 
L 883.634511 140.09178 
L 884.208917 136.631569 
L 885.35773 127.926959 
L 887.08095 114.553396 
L 887.655356 111.071796 
L 888.229763 108.420026 
L 888.804169 106.717491 
L 889.378576 106.014238 
L 889.952982 106.288248 
L 890.527389 107.447592 
L 891.101795 109.337309 
L 892.250608 114.443088 
L 893.399421 119.607209 
L 893.973827 121.563641 
L 894.548234 122.805192 
L 895.12264 123.166596 
L 895.697047 122.543873 
L 896.271453 120.902001 
L 896.84586 118.277918 
L 897.420266 114.778674 
L 898.569079 105.889516 
L 900.292299 91.643193 
L 900.866705 87.760362 
L 901.441112 84.725383 
L 902.015518 82.721671 
L 902.589925 81.870143 
L 903.164331 82.22088 
L 903.738738 83.749437 
L 904.313144 86.358041 
L 904.887551 89.881603 
L 906.036364 98.743048 
L 907.759583 112.327481 
L 908.33399 115.805604 
L 908.908396 118.374871 
L 909.482803 119.886251 
L 910.057209 120.259531 
L 910.631616 119.487904 
L 911.206022 117.637709 
L 911.780428 114.843325 
L 912.929241 107.238303 
L 914.652461 94.677799 
L 915.226867 91.240544 
L 915.801274 88.54311 
L 916.37568 86.728537 
L 916.950087 85.874165 
L 917.524493 85.986599 
L 918.0989 87.001495 
L 918.673306 88.788159 
L 919.822119 93.880924 
L 920.970932 99.32935 
L 921.545339 101.523222 
L 922.119745 103.041164 
L 922.694152 103.691349 
L 923.268558 103.33882 
L 923.842965 101.915332 
L 924.417371 99.424752 
L 924.991778 95.943651 
L 926.140591 86.64945 
L 928.438217 65.745369 
L 929.012623 61.679443 
L 929.58703 58.571781 
L 930.161436 56.58651 
L 930.735843 55.820579 
L 931.310249 56.297511 
L 931.884655 57.965949 
L 932.459062 60.703112 
L 933.607875 68.588227 
L 935.905501 86.500928 
L 936.479907 89.833434 
L 937.054314 92.279986 
L 937.62872 93.724842 
L 938.203127 94.122732 
L 938.777533 93.501104 
L 939.35194 91.957485 
L 939.926346 89.652161 
L 941.075159 83.638828 
L 942.223972 77.483911 
L 942.798379 75.003196 
L 943.372785 73.217034 
L 943.947192 72.288809 
L 944.521598 72.320153 
L 945.096005 73.343692 
L 945.670411 75.320479 
L 946.244818 78.142281 
L 947.393631 85.587868 
L 949.11685 97.499074 
L 949.691257 100.585373 
L 950.265663 102.831162 
L 950.840069 104.064854 
L 951.414476 104.17807 
L 951.988882 103.133442 
L 952.563289 100.967732 
L 953.137695 97.790065 
L 954.286508 89.153497 
L 956.584134 70.231769 
L 957.158541 66.807163 
L 957.732947 64.371002 
L 958.307354 63.063169 
L 958.88176 62.953377 
L 959.456167 64.037111 
L 960.030573 66.236458 
L 960.60498 69.40576 
L 961.753793 77.797186 
L 963.477012 91.513865 
L 964.051419 95.311709 
L 964.625825 98.354577 
L 965.200232 100.499878 
L 965.774638 101.671653 
L 966.349045 101.865197 
L 966.923451 101.146837 
L 967.497858 99.648905 
L 968.646671 95.112875 
L 969.795483 90.186663 
L 970.36989 88.233545 
L 970.944296 86.936403 
L 971.518703 86.481118 
L 972.093109 86.996191 
L 972.667516 88.543339 
L 973.241922 91.112568 
L 973.816329 94.622081 
L 974.965142 103.808701 
L 977.262768 123.858706 
L 977.837174 127.608851 
L 978.411581 130.379141 
L 978.985987 132.018032 
L 979.560394 132.442078 
L 980.1348 131.641617 
L 980.709207 129.681618 
L 981.283613 126.697643 
L 982.432426 118.496945 
L 984.155646 104.704421 
L 984.730052 100.852107 
L 985.304459 97.784377 
L 985.878865 95.675997 
L 986.453272 94.636595 
L 987.027678 94.704147 
L 987.602085 95.843233 
L 988.176491 97.948185 
L 988.750898 100.850885 
L 989.89971 108.139748 
L 991.048523 115.644163 
L 991.62293 118.819812 
L 992.197336 121.312947 
L 992.771743 122.960418 
L 993.346149 123.661476 
L 993.920556 123.384639 
L 994.494962 122.169828 
L 995.069369 120.125656 
L 996.218182 114.278592 
L 996.218182 114.278592 
" style="fill:none;stroke:#4c72b0;stroke-linecap:round;stroke-width:1.4;"/>
   </g>
   <g id="line2d_34">
    <path clip-path="url(#pe4fedec01a)" d="M 184.581818 281.191709 
L 190.90029 273.279671 
L 194.921135 268.595391 
L 198.367574 264.953147 
L 201.239606 262.255303 
L 203.537232 260.354054 
L 205.834858 258.705721 
L 208.132484 257.329693 
L 210.43011 256.242122 
L 212.727736 255.455736 
L 214.450955 255.069239 
L 216.174175 254.859882 
L 217.897394 254.828982 
L 219.620614 254.976664 
L 221.343833 255.301859 
L 223.067053 255.80231 
L 225.364679 256.736109 
L 227.662305 257.963961 
L 229.959931 259.471083 
L 232.257556 261.239377 
L 235.129589 263.784442 
L 238.001621 266.656652 
L 241.44806 270.459205 
L 245.468906 275.256141 
L 254.085003 286.044479 
L 258.680255 291.589225 
L 262.126694 295.440004 
L 264.998726 298.363205 
L 267.870759 300.968083 
L 270.168384 302.789841 
L 272.46601 304.354731 
L 274.763636 305.643971 
L 277.061262 306.642049 
L 279.358888 307.336915 
L 281.082108 307.65386 
L 282.805327 307.79322 
L 284.528547 307.75398 
L 286.251766 307.536323 
L 287.974986 307.141621 
L 290.272611 306.344537 
L 292.570237 305.246665 
L 294.867863 303.860856 
L 297.165489 302.20338 
L 299.463115 300.293736 
L 302.335148 297.586603 
L 305.20718 294.570654 
L 308.653619 290.622476 
L 313.248871 284.973494 
L 324.737001 270.600891 
L 328.183439 266.688677 
L 331.055472 263.711334 
L 333.927504 261.049902 
L 336.22513 259.181363 
L 338.522756 257.568505 
L 340.820382 256.230299 
L 343.118008 255.18245 
L 345.415634 254.437215 
L 347.138854 254.082228 
L 348.862073 253.904703 
L 350.585292 253.905744 
L 352.308512 254.085265 
L 354.031731 254.441983 
L 355.754951 254.973433 
L 358.052577 255.947391 
L 360.350203 257.213628 
L 362.647829 258.756909 
L 364.945455 260.558706 
L 367.817487 263.141318 
L 370.689519 266.045619 
L 374.135958 269.878657 
L 378.156804 274.6991 
L 392.516966 292.322295 
L 395.963405 296.025212 
L 398.835437 298.793828 
L 401.70747 301.218642 
L 404.005096 302.880238 
L 406.302721 304.272698 
L 408.600347 305.379291 
L 410.897973 306.186677 
L 412.621193 306.58984 
L 414.344412 306.816345 
L 416.067632 306.864598 
L 417.790851 306.734194 
L 419.514071 306.425926 
L 421.23729 305.941774 
L 423.534916 305.028263 
L 425.832542 303.818475 
L 428.130168 302.326594 
L 430.427794 300.570153 
L 432.72542 298.569828 
L 435.597452 295.762628 
L 439.043891 292.013055 
L 443.064737 287.240072 
L 448.808801 280.007494 
L 455.701679 271.366512 
L 459.722525 266.686715 
L 463.168964 263.049555 
L 466.040996 260.356733 
L 468.338622 258.459958 
L 470.636248 256.81645 
L 472.933874 255.445546 
L 475.2315 254.363342 
L 477.529126 253.582507 
L 479.252345 253.200258 
L 480.975565 252.995191 
L 482.698784 252.968597 
L 484.422003 253.120574 
L 486.145223 253.450026 
L 487.868442 253.954671 
L 490.166068 254.893915 
L 492.463694 256.126992 
L 494.76132 257.639062 
L 497.058946 259.411971 
L 499.930979 261.962261 
L 502.803011 264.839012 
L 506.24945 268.646005 
L 510.270295 273.446603 
L 525.204864 291.744514 
L 528.651303 295.414221 
L 531.523335 298.148744 
L 534.395368 300.534304 
L 536.692994 302.161268 
L 538.99062 303.516676 
L 541.288246 304.584236 
L 543.585871 305.351075 
L 545.309091 305.723126 
L 547.03231 305.918148 
L 548.75553 305.934758 
L 550.478749 305.772766 
L 552.201969 305.433174 
L 553.925188 304.918175 
L 556.222814 303.964632 
L 558.52044 302.716505 
L 560.818066 301.188433 
L 563.115692 299.398384 
L 565.987724 296.824803 
L 568.859757 293.922406 
L 572.306196 290.081164 
L 576.327041 285.235381 
L 584.368732 275.051037 
L 589.53839 268.711556 
L 592.984829 264.803579 
L 595.856862 261.830622 
L 598.728894 259.174278 
L 601.02652 257.310257 
L 603.324146 255.702263 
L 605.621772 254.369212 
L 607.919398 253.326753 
L 610.217024 252.587085 
L 611.940243 252.236353 
L 613.663463 252.063118 
L 615.386682 252.068462 
L 617.109902 252.252269 
L 618.833121 252.613232 
L 621.130747 253.365613 
L 623.428373 254.419246 
L 625.725999 255.761425 
L 628.023625 257.376017 
L 630.321251 259.243653 
L 633.193283 261.899689 
L 636.065316 264.866301 
L 639.511754 268.757841 
L 644.107006 274.336026 
L 656.169543 289.22368 
L 659.615981 293.041829 
L 662.488014 295.930268 
L 665.360046 298.494198 
L 667.657672 300.279258 
L 669.955298 301.804429 
L 672.252924 303.051403 
L 674.55055 304.005181 
L 676.848176 304.654243 
L 678.571395 304.936181 
L 680.294615 305.040234 
L 682.017834 304.965629 
L 683.741054 304.712786 
L 685.464273 304.283316 
L 687.761899 303.440931 
L 690.059525 302.299464 
L 692.357151 300.872291 
L 694.654777 299.176179 
L 696.952403 297.231095 
L 699.824435 294.484802 
L 702.696468 291.43609 
L 706.142907 287.457908 
L 710.738159 281.786014 
L 721.651882 268.122792 
L 725.098321 264.190049 
L 727.970353 261.190512 
L 730.842386 258.502711 
L 733.140012 256.610405 
L 735.437638 254.971718 
L 737.735263 253.605934 
L 740.032889 252.529092 
L 742.330515 251.753802 
L 744.053735 251.375794 
L 745.776954 251.175011 
L 747.500174 251.152716 
L 749.223393 251.308981 
L 750.946613 251.642682 
L 752.669832 252.151511 
L 754.967458 253.096189 
L 757.265084 254.334477 
L 759.56271 255.85148 
L 761.860336 257.628989 
L 764.732368 260.184484 
L 767.604401 263.065755 
L 771.05084 266.877161 
L 775.071685 271.681387 
L 790.006254 289.977437 
L 793.452693 293.643429 
L 796.324725 296.37405 
L 799.196757 298.755061 
L 801.494383 300.377984 
L 803.792009 301.729048 
L 806.089635 302.792018 
L 808.387261 303.554082 
L 810.110481 303.922464 
L 811.8337 304.113774 
L 813.55692 304.126655 
L 815.280139 303.960943 
L 817.003358 303.617668 
L 818.726578 303.099047 
L 821.024204 302.140819 
L 823.32183 300.888224 
L 825.619456 299.35596 
L 827.917082 297.562048 
L 830.789114 294.98418 
L 833.661146 292.078177 
L 837.107585 288.233614 
L 841.128431 283.385472 
L 849.170122 273.201655 
L 854.33978 266.866238 
L 857.786219 262.962498 
L 860.658251 259.993926 
L 863.530284 257.342667 
L 865.82791 255.483161 
L 868.125536 253.880027 
L 870.423162 252.552126 
L 872.720787 251.515053 
L 875.018413 250.780945 
L 876.741633 250.43446 
L 878.464852 250.265511 
L 880.188072 250.27515 
L 881.911291 250.463236 
L 883.634511 250.828435 
L 885.932137 251.586352 
L 888.229763 252.645335 
L 890.527389 253.992621 
L 892.825014 255.61202 
L 895.12264 257.48411 
L 897.994673 260.145144 
L 900.866705 263.116043 
L 904.313144 267.011692 
L 908.908396 272.593447 
L 920.970932 287.479523 
L 924.417371 291.294414 
L 927.289404 294.179296 
L 930.161436 296.738979 
L 932.459062 298.520206 
L 934.756688 300.041208 
L 937.054314 301.283733 
L 939.35194 302.232837 
L 941.649566 302.877064 
L 943.372785 303.155304 
L 945.096005 303.25563 
L 946.819224 303.177294 
L 948.542444 302.920742 
L 950.265663 302.487614 
L 952.563289 301.640474 
L 954.860915 300.494449 
L 957.158541 299.062971 
L 959.456167 297.362865 
L 961.753793 295.414149 
L 964.625825 292.663898 
L 967.497858 289.611951 
L 970.944296 285.630934 
L 975.539548 279.957182 
L 986.453272 266.298789 
L 989.89971 262.370185 
L 992.771743 259.374958 
L 995.643775 256.692174 
L 996.218182 256.197573 
L 996.218182 256.197573 
" style="fill:none;stroke:#55a868;stroke-linecap:round;stroke-width:1.4;"/>
   </g>
   <g id="patch_3">
    <path d="M 144 320.4 
L 144 43.2 
" style="fill:none;"/>
   </g>
   <g id="patch_4">
    <path d="M 1036.8 320.4 
L 1036.8 43.2 
" style="fill:none;"/>
   </g>
   <g id="patch_5">
    <path d="M 144 320.4 
L 1036.8 320.4 
" style="fill:none;"/>
   </g>
   <g id="patch_6">
    <path d="M 144 43.2 
L 1036.8 43.2 
" style="fill:none;"/>
   </g>
   <g id="legend_1">
    <g id="line2d_35">
     <path d="M 1002.75125 53.3975 
L 1018.75125 53.3975 
" style="fill:none;stroke:#4c72b0;stroke-linecap:round;stroke-width:1.4;"/>
    </g>
    <g id="line2d_36"/>
    <g id="text_17">
     <!-- a -->
     <defs>
      <path d="M 20.21875 -0.984375 
Q 12.25 -0.984375 8.25 3.21875 
Q 4.25 7.421875 4.25 14.75 
Q 4.25 19.96875 6.21875 23.3125 
Q 8.203125 26.65625 11.390625 28.5625 
Q 14.59375 30.46875 18.6875 31.203125 
Q 22.796875 31.9375 27.046875 32.03125 
L 38.921875 32.234375 
L 38.921875 35.109375 
Q 38.921875 38.375 38.234375 40.671875 
Q 37.546875 42.96875 36.125 44.375 
Q 34.71875 45.796875 32.59375 46.453125 
Q 30.46875 47.125 27.59375 47.125 
Q 25.046875 47.125 23 46.75 
Q 20.953125 46.390625 19.4375 45.4375 
Q 17.921875 44.484375 16.984375 42.84375 
Q 16.0625 41.21875 15.765625 38.71875 
L 6.59375 39.546875 
Q 7.078125 42.671875 8.4375 45.28125 
Q 9.8125 47.90625 12.328125 49.796875 
Q 14.84375 51.703125 18.625 52.75 
Q 22.40625 53.8125 27.78125 53.8125 
Q 37.75 53.8125 42.765625 49.234375 
Q 47.796875 44.671875 47.796875 36.03125 
L 47.796875 13.28125 
Q 47.796875 9.375 48.828125 7.390625 
Q 49.859375 5.421875 52.734375 5.421875 
Q 53.46875 5.421875 54.203125 5.515625 
Q 54.9375 5.609375 55.609375 5.765625 
L 55.609375 0.296875 
Q 53.953125 -0.09375 52.3125 -0.28125 
Q 50.6875 -0.484375 48.828125 -0.484375 
Q 46.34375 -0.484375 44.5625 0.171875 
Q 42.78125 0.828125 41.65625 2.171875 
Q 40.53125 3.515625 39.9375 5.484375 
Q 39.359375 7.46875 39.203125 10.109375 
L 38.921875 10.109375 
Q 37.5 7.5625 35.8125 5.515625 
Q 34.125 3.46875 31.875 2.03125 
Q 29.640625 0.59375 26.78125 -0.1875 
Q 23.921875 -0.984375 20.21875 -0.984375 
M 22.21875 5.609375 
Q 26.421875 5.609375 29.5625 7.140625 
Q 32.71875 8.6875 34.78125 11.078125 
Q 36.859375 13.484375 37.890625 16.3125 
Q 38.921875 19.140625 38.921875 21.734375 
L 38.921875 26.078125 
L 29.296875 25.875 
Q 26.078125 25.828125 23.171875 25.40625 
Q 20.265625 25 18.0625 23.78125 
Q 15.875 22.5625 14.578125 20.359375 
Q 13.28125 18.171875 13.28125 14.59375 
Q 13.28125 10.296875 15.59375 7.953125 
Q 17.921875 5.609375 22.21875 5.609375 
" id="LiberationSans-61"/>
     </defs>
     <g style="fill:#262626;" transform="translate(1025.15125 56.1975)scale(0.08 -0.08)">
      <use xlink:href="#LiberationSans-61"/>
     </g>
    </g>
    <g id="line2d_37">
     <path d="M 1002.75125 64.855 
L 1018.75125 64.855 
" style="fill:none;stroke:#55a868;stroke-linecap:round;stroke-width:1.4;"/>
    </g>
    <g id="line2d_38"/>
    <g id="text_18">
     <!-- b -->
     <defs>
      <path d="M 51.421875 26.65625 
Q 51.421875 -0.984375 31.984375 -0.984375 
Q 25.984375 -0.984375 22 1.1875 
Q 18.015625 3.375 15.53125 8.203125 
L 15.4375 8.203125 
Q 15.4375 6.9375 15.359375 5.5625 
Q 15.28125 4.203125 15.203125 3.03125 
Q 15.140625 1.859375 15.0625 1.03125 
Q 14.984375 0.203125 14.9375 0 
L 6.453125 0 
Q 6.5 0.4375 6.546875 1.484375 
Q 6.59375 2.546875 6.640625 4 
Q 6.6875 5.46875 6.703125 7.21875 
Q 6.734375 8.984375 6.734375 10.890625 
L 6.734375 72.46875 
L 15.53125 72.46875 
L 15.53125 51.8125 
Q 15.53125 50.34375 15.5 49 
Q 15.484375 47.65625 15.4375 46.625 
Q 15.375 45.40625 15.328125 44.34375 
L 15.53125 44.34375 
Q 17.96875 49.421875 22 51.609375 
Q 26.03125 53.8125 31.984375 53.8125 
Q 42 53.8125 46.703125 47.0625 
Q 51.421875 40.328125 51.421875 26.65625 
M 42.1875 26.375 
Q 42.1875 31.84375 41.5 35.75 
Q 40.828125 39.65625 39.3125 42.15625 
Q 37.796875 44.671875 35.453125 45.84375 
Q 33.109375 47.015625 29.734375 47.015625 
Q 26.265625 47.015625 23.609375 45.890625 
Q 20.953125 44.78125 19.171875 42.28125 
Q 17.390625 39.796875 16.453125 35.734375 
Q 15.53125 31.6875 15.53125 25.828125 
Q 15.53125 20.171875 16.453125 16.3125 
Q 17.390625 12.453125 19.171875 10.03125 
Q 20.953125 7.625 23.578125 6.5625 
Q 26.21875 5.515625 29.640625 5.515625 
Q 32.859375 5.515625 35.203125 6.640625 
Q 37.546875 7.765625 39.109375 10.25 
Q 40.671875 12.75 41.421875 16.71875 
Q 42.1875 20.703125 42.1875 26.375 
" id="LiberationSans-62"/>
     </defs>
     <g style="fill:#262626;" transform="translate(1025.15125 67.655)scale(0.08 -0.08)">
      <use xlink:href="#LiberationSans-62"/>
     </g>
    </g>
   </g>
  </g>
 </g>
 <defs>
  <clipPath id="pe4fedec01a">
   <rect height="277.2" width="892.8" x="144" y="43.2"/>
  </clipPath>
 </defs>
</svg>
