<?xml version="1.0" encoding="utf-8" standalone="no"?>
<!DOCTYPE svg PUBLIC "-//W3C//DTD SVG 1.1//EN"
  "http://www.w3.org/Graphics/SVG/1.1/DTD/svg11.dtd">
<!-- Created with matplotlib (http://matplotlib.org/) -->
<svg height="360pt" version="1.1" viewBox="0 0 1152 360" width="1152pt" xmlns="http://www.w3.org/2000/svg" xmlns:xlink="http://www.w3.org/1999/xlink">
 <defs>
  <style type="text/css">
*{stroke-linecap:butt;stroke-linejoin:round;}
  </style>
 </defs>
 <g id="figure_1">
  <g id="patch_1">
   <path d="M 0 360 
L 1152 360 
L 1152 0 
L 0 0 
z
" style="fill:#ffffff;"/>
  </g>
  <g id="axes_1">
   <g id="patch_2">
    <path d="M 144 320.4 
L 1036.8 320.4 
L 1036.8 43.2 
L 144 43.2 
z
" style="fill:#eaeaf2;"/>
   </g>
   <g id="matplotlib.axis_1">
    <g id="xtick_1">
     <g id="line2d_1">
      <path clip-path="url(#pdb1f08d1c2)" d="M 184.581818 320.4 
L 184.581818 43.2 
" style="fill:none;stroke:#ffffff;stroke-linecap:round;stroke-width:0.8;"/>
     </g>
     <g id="line2d_2"/>
     <g id="text_1">
      <!-- 0 -->
      <defs>
       <path d="M 51.703125 34.421875 
Q 51.703125 24.515625 49.828125 17.75 
Q 47.953125 10.984375 44.703125 6.8125 
Q 41.453125 2.640625 37.0625 0.828125 
Q 32.671875 -0.984375 27.6875 -0.984375 
Q 22.65625 -0.984375 18.3125 0.828125 
Q 13.96875 2.640625 10.765625 6.78125 
Q 7.5625 10.9375 5.734375 17.703125 
Q 3.90625 24.46875 3.90625 34.421875 
Q 3.90625 44.828125 5.734375 51.640625 
Q 7.5625 58.453125 10.78125 62.5 
Q 14.015625 66.546875 18.40625 68.1875 
Q 22.796875 69.828125 27.984375 69.828125 
Q 32.90625 69.828125 37.21875 68.1875 
Q 41.546875 66.546875 44.765625 62.5 
Q 48 58.453125 49.84375 51.640625 
Q 51.703125 44.828125 51.703125 34.421875 
M 42.78125 34.421875 
Q 42.78125 42.625 41.796875 48.0625 
Q 40.828125 53.515625 38.921875 56.765625 
Q 37.015625 60.015625 34.25 61.359375 
Q 31.5 62.703125 27.984375 62.703125 
Q 24.265625 62.703125 21.4375 61.328125 
Q 18.609375 59.96875 16.671875 56.71875 
Q 14.75 53.46875 13.765625 48.015625 
Q 12.796875 42.578125 12.796875 34.421875 
Q 12.796875 26.515625 13.796875 21.09375 
Q 14.796875 15.671875 16.71875 12.375 
Q 18.65625 9.078125 21.4375 7.640625 
Q 24.21875 6.203125 27.78125 6.203125 
Q 31.25 6.203125 34.03125 7.640625 
Q 36.8125 9.078125 38.734375 12.375 
Q 40.671875 15.671875 41.71875 21.09375 
Q 42.78125 26.515625 42.78125 34.421875 
" id="LiberationSans-30"/>
      </defs>
      <g style="fill:#262626;" transform="translate(182.357443 331.7975)scale(0.08 -0.08)">
       <use xlink:href="#LiberationSans-30"/>
      </g>
     </g>
    </g>
    <g id="xtick_2">
     <g id="line2d_3">
      <path clip-path="url(#pdb1f08d1c2)" d="M 299.625952 320.4 
L 299.625952 43.2 
" style="fill:none;stroke:#ffffff;stroke-linecap:round;stroke-width:0.8;"/>
     </g>
     <g id="line2d_4"/>
     <g id="text_2">
      <!-- 200 -->
      <defs>
       <path d="M 5.03125 0 
L 5.03125 6.203125 
Q 7.515625 11.921875 11.109375 16.28125 
Q 14.703125 20.65625 18.65625 24.1875 
Q 22.609375 27.734375 26.484375 30.765625 
Q 30.375 33.796875 33.5 36.8125 
Q 36.625 39.84375 38.546875 43.15625 
Q 40.484375 46.484375 40.484375 50.6875 
Q 40.484375 53.609375 39.59375 55.828125 
Q 38.71875 58.0625 37.0625 59.5625 
Q 35.40625 61.078125 33.078125 61.828125 
Q 30.765625 62.59375 27.9375 62.59375 
Q 25.296875 62.59375 22.96875 61.859375 
Q 20.65625 61.140625 18.84375 59.671875 
Q 17.046875 58.203125 15.890625 56.03125 
Q 14.75 53.859375 14.40625 50.984375 
L 5.421875 51.8125 
Q 5.859375 55.515625 7.46875 58.78125 
Q 9.078125 62.0625 11.90625 64.53125 
Q 14.75 67 18.71875 68.40625 
Q 22.703125 69.828125 27.9375 69.828125 
Q 33.0625 69.828125 37.0625 68.609375 
Q 41.0625 67.390625 43.8125 64.984375 
Q 46.578125 62.59375 48.046875 59.078125 
Q 49.515625 55.5625 49.515625 50.984375 
Q 49.515625 47.515625 48.265625 44.390625 
Q 47.015625 41.265625 44.9375 38.421875 
Q 42.875 35.59375 40.140625 32.953125 
Q 37.40625 30.328125 34.421875 27.8125 
Q 31.453125 25.296875 28.421875 22.828125 
Q 25.390625 20.359375 22.71875 17.859375 
Q 20.0625 15.375 17.96875 12.8125 
Q 15.875 10.25 14.703125 7.46875 
L 50.59375 7.46875 
L 50.59375 0 
z
" id="LiberationSans-32"/>
      </defs>
      <g style="fill:#262626;" transform="translate(292.952827 331.7975)scale(0.08 -0.08)">
       <use xlink:href="#LiberationSans-32"/>
       <use x="55.615234" xlink:href="#LiberationSans-30"/>
       <use x="111.230469" xlink:href="#LiberationSans-30"/>
      </g>
     </g>
    </g>
    <g id="xtick_3">
     <g id="line2d_5">
      <path clip-path="url(#pdb1f08d1c2)" d="M 414.670086 320.4 
L 414.670086 43.2 
" style="fill:none;stroke:#ffffff;stroke-linecap:round;stroke-width:0.8;"/>
     </g>
     <g id="line2d_6"/>
     <g id="text_3">
      <!-- 400 -->
      <defs>
       <path d="M 43.015625 15.578125 
L 43.015625 0 
L 34.71875 0 
L 34.71875 15.578125 
L 2.296875 15.578125 
L 2.296875 22.40625 
L 33.796875 68.796875 
L 43.015625 68.796875 
L 43.015625 22.515625 
L 52.6875 22.515625 
L 52.6875 15.578125 
z
M 34.71875 58.890625 
Q 34.625 58.640625 34.234375 57.9375 
Q 33.84375 57.234375 33.34375 56.34375 
Q 32.859375 55.46875 32.34375 54.5625 
Q 31.84375 53.65625 31.453125 53.078125 
L 13.8125 27.09375 
Q 13.578125 26.703125 13.109375 26.0625 
Q 12.640625 25.4375 12.15625 24.78125 
Q 11.671875 24.125 11.171875 23.484375 
Q 10.6875 22.859375 10.40625 22.515625 
L 34.71875 22.515625 
z
" id="LiberationSans-34"/>
      </defs>
      <g style="fill:#262626;" transform="translate(407.996961 331.7975)scale(0.08 -0.08)">
       <use xlink:href="#LiberationSans-34"/>
       <use x="55.615234" xlink:href="#LiberationSans-30"/>
       <use x="111.230469" xlink:href="#LiberationSans-30"/>
      </g>
     </g>
    </g>
    <g id="xtick_4">
     <g id="line2d_7">
      <path clip-path="url(#pdb1f08d1c2)" d="M 529.714219 320.4 
L 529.714219 43.2 
" style="fill:none;stroke:#ffffff;stroke-linecap:round;stroke-width:0.8;"/>
     </g>
     <g id="line2d_8"/>
     <g id="text_4">
      <!-- 600 -->
      <defs>
       <path d="M 51.21875 22.515625 
Q 51.21875 17.328125 49.78125 13 
Q 48.34375 8.6875 45.53125 5.578125 
Q 42.71875 2.484375 38.5625 0.75 
Q 34.421875 -0.984375 29 -0.984375 
Q 23 -0.984375 18.5 1.3125 
Q 14.015625 3.609375 11.03125 7.921875 
Q 8.0625 12.25 6.5625 18.53125 
Q 5.078125 24.8125 5.078125 32.8125 
Q 5.078125 42 6.765625 48.921875 
Q 8.453125 55.859375 11.625 60.5 
Q 14.796875 65.140625 19.359375 67.484375 
Q 23.921875 69.828125 29.6875 69.828125 
Q 33.203125 69.828125 36.28125 69.09375 
Q 39.359375 68.359375 41.875 66.71875 
Q 44.390625 65.09375 46.28125 62.40625 
Q 48.1875 59.71875 49.3125 55.8125 
L 40.921875 54.296875 
Q 39.546875 58.734375 36.546875 60.71875 
Q 33.546875 62.703125 29.59375 62.703125 
Q 25.984375 62.703125 23.046875 60.984375 
Q 20.125 59.28125 18.0625 55.875 
Q 16.015625 52.484375 14.90625 47.359375 
Q 13.8125 42.234375 13.8125 35.40625 
Q 16.21875 39.84375 20.5625 42.15625 
Q 24.90625 44.484375 30.515625 44.484375 
Q 35.203125 44.484375 39.015625 42.96875 
Q 42.828125 41.453125 45.53125 38.59375 
Q 48.25 35.75 49.734375 31.671875 
Q 51.21875 27.59375 51.21875 22.515625 
M 42.28125 22.125 
Q 42.28125 25.6875 41.40625 28.5625 
Q 40.53125 31.453125 38.765625 33.46875 
Q 37.015625 35.5 34.421875 36.59375 
Q 31.84375 37.703125 28.421875 37.703125 
Q 26.03125 37.703125 23.578125 36.984375 
Q 21.140625 36.28125 19.15625 34.6875 
Q 17.1875 33.109375 15.9375 30.515625 
Q 14.703125 27.9375 14.703125 24.21875 
Q 14.703125 20.40625 15.671875 17.109375 
Q 16.65625 13.8125 18.484375 11.375 
Q 20.3125 8.9375 22.890625 7.515625 
Q 25.484375 6.109375 28.71875 6.109375 
Q 31.890625 6.109375 34.40625 7.203125 
Q 36.921875 8.296875 38.671875 10.375 
Q 40.4375 12.453125 41.359375 15.421875 
Q 42.28125 18.40625 42.28125 22.125 
" id="LiberationSans-36"/>
      </defs>
      <g style="fill:#262626;" transform="translate(523.041094 331.7975)scale(0.08 -0.08)">
       <use xlink:href="#LiberationSans-36"/>
       <use x="55.615234" xlink:href="#LiberationSans-30"/>
       <use x="111.230469" xlink:href="#LiberationSans-30"/>
      </g>
     </g>
    </g>
    <g id="xtick_5">
     <g id="line2d_9">
      <path clip-path="url(#pdb1f08d1c2)" d="M 644.758353 320.4 
L 644.758353 43.2 
" style="fill:none;stroke:#ffffff;stroke-linecap:round;stroke-width:0.8;"/>
     </g>
     <g id="line2d_10"/>
     <g id="text_5">
      <!-- 800 -->
      <defs>
       <path d="M 51.265625 19.1875 
Q 51.265625 14.796875 49.875 11.109375 
Q 48.484375 7.421875 45.625 4.734375 
Q 42.78125 2.046875 38.328125 0.53125 
Q 33.890625 -0.984375 27.828125 -0.984375 
Q 21.78125 -0.984375 17.359375 0.53125 
Q 12.9375 2.046875 10.03125 4.703125 
Q 7.125 7.375 5.734375 11.0625 
Q 4.34375 14.75 4.34375 19.09375 
Q 4.34375 22.859375 5.484375 25.78125 
Q 6.640625 28.71875 8.5625 30.828125 
Q 10.5 32.953125 12.96875 34.25 
Q 15.4375 35.546875 18.0625 35.984375 
L 18.0625 36.1875 
Q 15.1875 36.859375 12.90625 38.375 
Q 10.640625 39.890625 9.09375 42.015625 
Q 7.5625 44.140625 6.75 46.71875 
Q 5.953125 49.3125 5.953125 52.203125 
Q 5.953125 55.8125 7.34375 59 
Q 8.734375 62.203125 11.46875 64.625 
Q 14.203125 67.046875 18.25 68.4375 
Q 22.3125 69.828125 27.640625 69.828125 
Q 33.25 69.828125 37.375 68.40625 
Q 41.5 67 44.203125 64.578125 
Q 46.921875 62.15625 48.234375 58.9375 
Q 49.5625 55.71875 49.5625 52.09375 
Q 49.5625 49.265625 48.75 46.671875 
Q 47.953125 44.09375 46.40625 41.96875 
Q 44.875 39.84375 42.59375 38.34375 
Q 40.328125 36.859375 37.359375 36.28125 
L 37.359375 36.078125 
Q 40.328125 35.59375 42.859375 34.296875 
Q 45.40625 33.015625 47.265625 30.890625 
Q 49.125 28.765625 50.1875 25.828125 
Q 51.265625 22.90625 51.265625 19.1875 
M 40.4375 51.609375 
Q 40.4375 54.203125 39.765625 56.34375 
Q 39.109375 58.5 37.59375 60.03125 
Q 36.078125 61.578125 33.640625 62.421875 
Q 31.203125 63.28125 27.640625 63.28125 
Q 24.171875 63.28125 21.78125 62.421875 
Q 19.390625 61.578125 17.84375 60.03125 
Q 16.3125 58.5 15.625 56.34375 
Q 14.9375 54.203125 14.9375 51.609375 
Q 14.9375 49.5625 15.46875 47.40625 
Q 16.015625 45.265625 17.421875 43.5 
Q 18.84375 41.75 21.328125 40.625 
Q 23.828125 39.5 27.734375 39.5 
Q 31.890625 39.5 34.40625 40.625 
Q 36.921875 41.75 38.25 43.5 
Q 39.59375 45.265625 40.015625 47.40625 
Q 40.4375 49.5625 40.4375 51.609375 
M 42.140625 20.015625 
Q 42.140625 22.515625 41.453125 24.828125 
Q 40.765625 27.15625 39.109375 28.9375 
Q 37.453125 30.71875 34.640625 31.8125 
Q 31.84375 32.90625 27.640625 32.90625 
Q 23.78125 32.90625 21.0625 31.8125 
Q 18.359375 30.71875 16.671875 28.90625 
Q 14.984375 27.09375 14.203125 24.71875 
Q 13.421875 22.359375 13.421875 19.828125 
Q 13.421875 16.65625 14.203125 14.03125 
Q 14.984375 11.421875 16.6875 9.546875 
Q 18.40625 7.671875 21.1875 6.640625 
Q 23.96875 5.609375 27.9375 5.609375 
Q 31.9375 5.609375 34.671875 6.640625 
Q 37.40625 7.671875 39.0625 9.546875 
Q 40.71875 11.421875 41.421875 14.078125 
Q 42.140625 16.75 42.140625 20.015625 
" id="LiberationSans-38"/>
      </defs>
      <g style="fill:#262626;" transform="translate(638.085228 331.7975)scale(0.08 -0.08)">
       <use xlink:href="#LiberationSans-38"/>
       <use x="55.615234" xlink:href="#LiberationSans-30"/>
       <use x="111.230469" xlink:href="#LiberationSans-30"/>
      </g>
     </g>
    </g>
    <g id="xtick_6">
     <g id="line2d_11">
      <path clip-path="url(#pdb1f08d1c2)" d="M 759.802487 320.4 
L 759.802487 43.2 
" style="fill:none;stroke:#ffffff;stroke-linecap:round;stroke-width:0.8;"/>
     </g>
     <g id="line2d_12"/>
     <g id="text_6">
      <!-- 1000 -->
      <defs>
       <path d="M 7.625 0 
L 7.625 7.46875 
L 25.140625 7.46875 
L 25.140625 60.40625 
L 9.625 49.3125 
L 9.625 57.625 
L 25.875 68.796875 
L 33.984375 68.796875 
L 33.984375 7.46875 
L 50.734375 7.46875 
L 50.734375 0 
z
" id="LiberationSans-31"/>
      </defs>
      <g style="fill:#262626;" transform="translate(750.904987 331.7975)scale(0.08 -0.08)">
       <use xlink:href="#LiberationSans-31"/>
       <use x="55.615234" xlink:href="#LiberationSans-30"/>
       <use x="111.230469" xlink:href="#LiberationSans-30"/>
       <use x="166.845703" xlink:href="#LiberationSans-30"/>
      </g>
     </g>
    </g>
    <g id="xtick_7">
     <g id="line2d_13">
      <path clip-path="url(#pdb1f08d1c2)" d="M 874.846621 320.4 
L 874.846621 43.2 
" style="fill:none;stroke:#ffffff;stroke-linecap:round;stroke-width:0.8;"/>
     </g>
     <g id="line2d_14"/>
     <g id="text_7">
      <!-- 1200 -->
      <g style="fill:#262626;" transform="translate(865.949121 331.7975)scale(0.08 -0.08)">
       <use xlink:href="#LiberationSans-31"/>
       <use x="55.615234" xlink:href="#LiberationSans-32"/>
       <use x="111.230469" xlink:href="#LiberationSans-30"/>
       <use x="166.845703" xlink:href="#LiberationSans-30"/>
      </g>
     </g>
    </g>
    <g id="xtick_8">
     <g id="line2d_15">
      <path clip-path="url(#pdb1f08d1c2)" d="M 989.890754 320.4 
L 989.890754 43.2 
" style="fill:none;stroke:#ffffff;stroke-linecap:round;stroke-width:0.8;"/>
     </g>
     <g id="line2d_16"/>
     <g id="text_8">
      <!-- 1400 -->
      <g style="fill:#262626;" transform="translate(980.993254 331.7975)scale(0.08 -0.08)">
       <use xlink:href="#LiberationSans-31"/>
       <use x="55.615234" xlink:href="#LiberationSans-34"/>
       <use x="111.230469" xlink:href="#LiberationSans-30"/>
       <use x="166.845703" xlink:href="#LiberationSans-30"/>
      </g>
     </g>
    </g>
   </g>
   <g id="matplotlib.axis_2">
    <g id="ytick_1">
     <g id="line2d_17">
      <path clip-path="url(#pdb1f08d1c2)" d="M 144 292.333263 
L 1036.8 292.333263 
" style="fill:none;stroke:#ffffff;stroke-linecap:round;stroke-width:0.8;"/>
     </g>
     <g id="line2d_18"/>
     <g id="text_9">
      <!-- −15000 -->
      <defs>
       <path d="M 4.9375 29.6875 
L 4.9375 36.8125 
L 53.515625 36.8125 
L 53.515625 29.6875 
z
" id="LiberationSans-2212"/>
       <path d="M 51.421875 22.40625 
Q 51.421875 17.234375 49.859375 12.9375 
Q 48.296875 8.640625 45.21875 5.53125 
Q 42.140625 2.4375 37.578125 0.71875 
Q 33.015625 -0.984375 27 -0.984375 
Q 21.578125 -0.984375 17.546875 0.28125 
Q 13.53125 1.5625 10.734375 3.78125 
Q 7.953125 6 6.3125 8.984375 
Q 4.6875 11.96875 4 15.375 
L 12.890625 16.40625 
Q 13.421875 14.453125 14.390625 12.625 
Q 15.375 10.796875 17.0625 9.34375 
Q 18.75 7.90625 21.21875 7.046875 
Q 23.6875 6.203125 27.203125 6.203125 
Q 30.609375 6.203125 33.390625 7.25 
Q 36.1875 8.296875 38.15625 10.34375 
Q 40.140625 12.40625 41.203125 15.375 
Q 42.28125 18.359375 42.28125 22.21875 
Q 42.28125 25.390625 41.25 28.046875 
Q 40.234375 30.71875 38.328125 32.640625 
Q 36.421875 34.578125 33.65625 35.640625 
Q 30.90625 36.71875 27.390625 36.71875 
Q 25.203125 36.71875 23.34375 36.328125 
Q 21.484375 35.9375 19.890625 35.25 
Q 18.3125 34.578125 17.015625 33.671875 
Q 15.71875 32.765625 14.59375 31.78125 
L 6 31.78125 
L 8.296875 68.796875 
L 47.40625 68.796875 
L 47.40625 61.328125 
L 16.3125 61.328125 
L 14.984375 39.5 
Q 17.328125 41.3125 20.84375 42.59375 
Q 24.359375 43.890625 29.203125 43.890625 
Q 34.328125 43.890625 38.421875 42.328125 
Q 42.53125 40.765625 45.40625 37.90625 
Q 48.296875 35.0625 49.859375 31.109375 
Q 51.421875 27.15625 51.421875 22.40625 
" id="LiberationSans-35"/>
      </defs>
      <g style="fill:#262626;" transform="translate(111.48375 295.232013)scale(0.08 -0.08)">
       <use xlink:href="#LiberationSans-2212"/>
       <use x="58.398438" xlink:href="#LiberationSans-31"/>
       <use x="114.013672" xlink:href="#LiberationSans-35"/>
       <use x="169.628906" xlink:href="#LiberationSans-30"/>
       <use x="225.244141" xlink:href="#LiberationSans-30"/>
       <use x="280.859375" xlink:href="#LiberationSans-30"/>
      </g>
     </g>
    </g>
    <g id="ytick_2">
     <g id="line2d_19">
      <path clip-path="url(#pdb1f08d1c2)" d="M 144 253.662553 
L 1036.8 253.662553 
" style="fill:none;stroke:#ffffff;stroke-linecap:round;stroke-width:0.8;"/>
     </g>
     <g id="line2d_20"/>
     <g id="text_10">
      <!-- −10000 -->
      <g style="fill:#262626;" transform="translate(111.48375 256.561303)scale(0.08 -0.08)">
       <use xlink:href="#LiberationSans-2212"/>
       <use x="58.398438" xlink:href="#LiberationSans-31"/>
       <use x="114.013672" xlink:href="#LiberationSans-30"/>
       <use x="169.628906" xlink:href="#LiberationSans-30"/>
       <use x="225.244141" xlink:href="#LiberationSans-30"/>
       <use x="280.859375" xlink:href="#LiberationSans-30"/>
      </g>
     </g>
    </g>
    <g id="ytick_3">
     <g id="line2d_21">
      <path clip-path="url(#pdb1f08d1c2)" d="M 144 214.991844 
L 1036.8 214.991844 
" style="fill:none;stroke:#ffffff;stroke-linecap:round;stroke-width:0.8;"/>
     </g>
     <g id="line2d_22"/>
     <g id="text_11">
      <!-- −5000 -->
      <g style="fill:#262626;" transform="translate(115.9325 217.890594)scale(0.08 -0.08)">
       <use xlink:href="#LiberationSans-2212"/>
       <use x="58.398438" xlink:href="#LiberationSans-35"/>
       <use x="114.013672" xlink:href="#LiberationSans-30"/>
       <use x="169.628906" xlink:href="#LiberationSans-30"/>
       <use x="225.244141" xlink:href="#LiberationSans-30"/>
      </g>
     </g>
    </g>
    <g id="ytick_4">
     <g id="line2d_23">
      <path clip-path="url(#pdb1f08d1c2)" d="M 144 176.321134 
L 1036.8 176.321134 
" style="fill:none;stroke:#ffffff;stroke-linecap:round;stroke-width:0.8;"/>
     </g>
     <g id="line2d_24"/>
     <g id="text_12">
      <!-- 0 -->
      <g style="fill:#262626;" transform="translate(133.95125 179.219884)scale(0.08 -0.08)">
       <use xlink:href="#LiberationSans-30"/>
      </g>
     </g>
    </g>
    <g id="ytick_5">
     <g id="line2d_25">
      <path clip-path="url(#pdb1f08d1c2)" d="M 144 137.650424 
L 1036.8 137.650424 
" style="fill:none;stroke:#ffffff;stroke-linecap:round;stroke-width:0.8;"/>
     </g>
     <g id="line2d_26"/>
     <g id="text_13">
      <!-- 5000 -->
      <g style="fill:#262626;" transform="translate(120.605 140.549174)scale(0.08 -0.08)">
       <use xlink:href="#LiberationSans-35"/>
       <use x="55.615234" xlink:href="#LiberationSans-30"/>
       <use x="111.230469" xlink:href="#LiberationSans-30"/>
       <use x="166.845703" xlink:href="#LiberationSans-30"/>
      </g>
     </g>
    </g>
    <g id="ytick_6">
     <g id="line2d_27">
      <path clip-path="url(#pdb1f08d1c2)" d="M 144 98.979714 
L 1036.8 98.979714 
" style="fill:none;stroke:#ffffff;stroke-linecap:round;stroke-width:0.8;"/>
     </g>
     <g id="line2d_28"/>
     <g id="text_14">
      <!-- 10000 -->
      <g style="fill:#262626;" transform="translate(116.15625 101.878464)scale(0.08 -0.08)">
       <use xlink:href="#LiberationSans-31"/>
       <use x="55.615234" xlink:href="#LiberationSans-30"/>
       <use x="111.230469" xlink:href="#LiberationSans-30"/>
       <use x="166.845703" xlink:href="#LiberationSans-30"/>
       <use x="222.460938" xlink:href="#LiberationSans-30"/>
      </g>
     </g>
    </g>
    <g id="ytick_7">
     <g id="line2d_29">
      <path clip-path="url(#pdb1f08d1c2)" d="M 144 60.309005 
L 1036.8 60.309005 
" style="fill:none;stroke:#ffffff;stroke-linecap:round;stroke-width:0.8;"/>
     </g>
     <g id="line2d_30"/>
     <g id="text_15">
      <!-- 15000 -->
      <g style="fill:#262626;" transform="translate(116.15625 63.207755)scale(0.08 -0.08)">
       <use xlink:href="#LiberationSans-31"/>
       <use x="55.615234" xlink:href="#LiberationSans-35"/>
       <use x="111.230469" xlink:href="#LiberationSans-30"/>
       <use x="166.845703" xlink:href="#LiberationSans-30"/>
       <use x="222.460938" xlink:href="#LiberationSans-30"/>
      </g>
     </g>
    </g>
   </g>
   <g id="line2d_31">
    <path clip-path="url(#pdb1f08d1c2)" d="M 184.581818 176.321133 
L 187.457922 176.322119 
L 188.033142 178.690117 
L 188.608363 185.434737 
L 189.183584 190.707102 
L 189.758804 188.188865 
L 190.334025 176.984902 
L 190.909246 163.361574 
L 191.484466 156.50866 
L 192.059687 161.685972 
L 193.210128 189.57173 
L 193.785349 192.585493 
L 194.36057 182.646997 
L 194.93579 167.742114 
L 195.511011 159.601388 
L 196.086232 164.739179 
L 197.236673 193.274528 
L 197.811894 195.104967 
L 198.387114 183.475973 
L 198.962335 166.588722 
L 199.537556 156.125433 
L 200.112776 158.913978 
L 201.263218 187.80734 
L 201.838438 194.200691 
L 202.413659 187.960785 
L 203.5641 162.370289 
L 204.139321 161.182015 
L 204.714542 171.579424 
L 205.289762 186.69053 
L 205.864983 195.55115 
L 206.440204 190.477089 
L 207.590645 154.992845 
L 208.165866 148.356642 
L 208.741086 159.505408 
L 209.891528 205.785353 
L 210.466748 211.711717 
L 211.041969 195.973356 
L 212.19241 143.689242 
L 212.767631 138.473337 
L 213.342852 154.719211 
L 214.493293 205.751555 
L 215.068514 210.085845 
L 215.643734 193.928991 
L 216.218955 168.288145 
L 216.794176 149.228976 
L 217.369396 147.95176 
L 217.944617 164.968883 
L 218.519838 189.856346 
L 219.095058 206.395577 
L 219.670279 202.437862 
L 220.2455 179.012747 
L 220.82072 150.627541 
L 221.395941 135.653391 
L 221.971162 144.900873 
L 223.121603 209.868129 
L 223.696824 227.423703 
L 224.272044 215.265477 
L 225.422486 141.956485 
L 225.997706 123.492149 
L 226.572927 133.653033 
L 227.723368 200.789329 
L 228.298589 219.040667 
L 228.87381 211.673201 
L 230.024251 159.928311 
L 230.599472 147.710764 
L 231.174692 154.844814 
L 232.325134 194.539137 
L 232.900354 198.34418 
L 233.475575 182.793288 
L 234.050796 158.544982 
L 234.626016 143.229989 
L 235.201237 149.360224 
L 235.776458 176.457656 
L 236.351678 209.767508 
L 236.926899 226.559026 
L 237.50212 212.044285 
L 238.652561 133.909806 
L 239.227782 119.466915 
L 239.803002 138.275111 
L 240.953444 215.862321 
L 241.528664 225.325044 
L 242.103885 203.472303 
L 242.679106 168.185358 
L 243.254326 144.065044 
L 243.829547 145.352315 
L 244.979988 196.067713 
L 245.555209 204.999023 
L 246.13043 187.202298 
L 246.70565 156.532481 
L 247.280871 138.052445 
L 247.856092 148.442336 
L 249.006533 221.410021 
L 249.581754 228.936579 
L 250.156974 196.509023 
L 250.732195 146.739278 
L 251.307416 116.521212 
L 251.882636 127.862249 
L 253.033078 219.430932 
L 253.608298 231.064087 
L 254.183519 201.985337 
L 254.75874 158.896499 
L 255.33396 135.008596 
L 255.909181 144.780916 
L 257.059622 202.9412 
L 257.634843 202.517987 
L 258.785284 156.144536 
L 259.360505 152.922183 
L 259.935726 172.721494 
L 260.510946 198.418815 
L 261.086167 205.041329 
L 261.661388 183.782075 
L 262.236608 152.680105 
L 262.811829 139.695641 
L 263.38705 158.588448 
L 263.96227 196.265011 
L 264.537491 219.198443 
L 265.112712 204.124523 
L 265.687932 164.247906 
L 266.263153 135.26653 
L 266.838374 141.53567 
L 267.988815 210.814247 
L 268.564036 211.012628 
L 269.714477 151.017496 
L 270.289698 146.546312 
L 270.864918 169.986609 
L 271.440139 197.965285 
L 272.01536 202.08882 
L 273.165801 152.804547 
L 273.741022 150.267285 
L 274.891463 208.220989 
L 275.466684 209.15102 
L 276.617125 136.584273 
L 277.192346 134.620342 
L 278.342787 221.337862 
L 278.918008 225.705022 
L 280.068449 132.663063 
L 280.64367 125.333184 
L 281.218891 166.030317 
L 281.794111 215.624574 
L 282.369332 224.559054 
L 283.519773 144.720899 
L 284.094994 135.603197 
L 284.670215 165.937584 
L 285.245435 204.035735 
L 285.820656 210.241456 
L 286.971097 148.699187 
L 287.546318 146.315911 
L 288.696759 210.763201 
L 289.27198 207.663048 
L 290.422421 134.66056 
L 290.997642 140.340049 
L 292.148083 225.91601 
L 292.723304 218.247221 
L 293.873745 127.091155 
L 294.448966 131.842316 
L 295.599407 222.722428 
L 296.174628 219.303782 
L 297.325069 137.596981 
L 297.90029 137.990262 
L 299.050731 211.788981 
L 299.625952 209.596042 
L 300.776393 140.002067 
L 301.351614 143.746165 
L 302.502055 222.07655 
L 303.077276 214.837161 
L 304.227717 120.714509 
L 304.802938 125.930028 
L 305.953379 241.837282 
L 306.5286 242.361734 
L 307.679041 112.203937 
L 308.254262 99.297588 
L 308.829483 153.59954 
L 309.404703 229.387093 
L 309.979924 256.626276 
L 310.555145 212.051168 
L 311.130365 140.61407 
L 311.705586 104.280077 
L 312.280807 130.973385 
L 312.856027 196.854971 
L 313.431248 241.655143 
L 314.006469 224.607316 
L 314.581689 164.589137 
L 315.15691 116.665609 
L 315.732131 121.840291 
L 316.882572 239.025303 
L 317.457793 245.705823 
L 318.033013 188.756319 
L 318.608234 117.207463 
L 319.183455 90.770696 
L 319.758675 133.405463 
L 320.333896 216.345009 
L 320.909117 272.139418 
L 321.484337 251.334731 
L 322.634779 97.859037 
L 323.209999 83.7945 
L 323.78522 137.446475 
L 324.360441 218.384734 
L 324.935661 263.621808 
L 325.510882 240.281405 
L 326.661323 116.120275 
L 327.236544 108.32132 
L 327.811765 151.880395 
L 328.386985 213.281902 
L 328.962206 243.34049 
L 329.537427 216.567211 
L 330.112647 154.663448 
L 330.687868 106.868539 
L 331.263089 109.677657 
L 331.838309 165.656061 
L 332.41353 240.88869 
L 332.988751 278.725814 
L 333.563971 242.831197 
L 334.714413 74.758702 
L 335.289633 57.930756 
L 335.864854 115.717558 
L 336.440075 216.282827 
L 337.015295 295.530557 
L 337.590516 297.66518 
L 338.165737 222.284134 
L 338.740957 124.125498 
L 339.316178 65.592197 
L 339.891399 76.26686 
L 340.466619 145.506534 
L 341.04184 229.709606 
L 341.617061 273.457316 
L 342.192281 248.585012 
L 343.342723 111.180401 
L 343.917943 92.068485 
L 344.493164 130.012418 
L 345.643605 268.242958 
L 346.218826 273.368373 
L 346.794047 209.463479 
L 347.369267 117.677699 
L 347.944488 57.254792 
L 348.519709 63.718988 
L 349.094929 135.23567 
L 349.67015 236.084318 
L 350.245371 307.8 
L 350.820591 303.840893 
L 351.395812 228.015056 
L 351.971033 130.907412 
L 352.546253 67.936416 
L 353.121474 65.890735 
L 353.696695 118.59636 
L 354.271915 194.492191 
L 354.847136 249.609321 
L 355.422357 254.183834 
L 355.997577 213.899473 
L 356.572798 161.759755 
L 357.148019 130.570049 
L 357.723239 134.995989 
L 358.29846 170.367391 
L 358.873681 214.24751 
L 359.448901 233.160812 
L 360.024122 206.763413 
L 361.174563 99.344379 
L 361.749784 91.301258 
L 362.325005 133.727822 
L 363.475446 276.555613 
L 364.050667 290.29377 
L 364.625888 237.012028 
L 365.201108 150.323048 
L 365.776329 83.230681 
L 366.35155 70.061758 
L 366.92677 113.276044 
L 367.501991 186.61373 
L 368.077212 245.740162 
L 368.652432 254.975811 
L 369.227653 214.970033 
L 369.802874 159.792112 
L 370.378094 127.126887 
L 370.953315 134.449959 
L 372.103756 219.696522 
L 372.678977 231.126037 
L 373.254198 194.068437 
L 373.829418 133.834089 
L 374.404639 95.71668 
L 374.97986 108.846855 
L 375.55508 170.753743 
L 376.130301 246.436003 
L 376.705522 282.515543 
L 377.280742 248.583542 
L 378.431184 98.014494 
L 379.006404 81.218257 
L 379.581625 123.35162 
L 380.156846 193.557752 
L 380.732066 242.146261 
L 381.307287 238.291101 
L 382.457728 150.15746 
L 383.032949 135.59407 
L 383.60817 155.809571 
L 384.18339 191.051658 
L 384.758611 209.691713 
L 385.333832 194.411679 
L 385.909052 158.715752 
L 386.484273 134.177176 
L 387.059494 142.947538 
L 388.209935 225.43046 
L 388.785156 232.076486 
L 389.360376 192.358032 
L 389.935597 137.9758 
L 390.510818 112.539831 
L 391.086038 136.213421 
L 391.661259 192.505599 
L 392.23648 235.1225 
L 392.8117 227.282014 
L 393.962142 134.08367 
L 394.537362 127.162386 
L 395.112583 161.078068 
L 395.687804 205.205524 
L 396.263024 219.389322 
L 396.838245 193.300824 
L 397.413466 154.490977 
L 397.988686 138.527631 
L 398.563907 159.893275 
L 399.139128 200.600307 
L 399.714348 219.890881 
L 400.289569 194.429931 
L 400.86479 146.863334 
L 401.44001 122.665524 
L 402.015231 147.654537 
L 402.590452 205.616826 
L 403.165672 242.288647 
L 403.740893 216.895757 
L 404.316114 152.098265 
L 404.891334 108.661545 
L 405.466555 125.377888 
L 406.041776 189.133049 
L 406.616996 240.333301 
L 407.192217 229.571784 
L 408.342658 125.691275 
L 408.917879 128.330938 
L 410.06832 217.589897 
L 410.643541 215.255732 
L 411.793982 140.743694 
L 412.369203 143.728145 
L 413.519644 215.696501 
L 414.094865 206.631313 
L 414.670086 163.622059 
L 415.245306 131.417789 
L 415.820527 143.71113 
L 416.395748 193.416913 
L 416.970968 231.255893 
L 417.546189 213.936133 
L 418.12141 157.85935 
L 418.69663 119.072629 
L 419.271851 134.170138 
L 419.847072 190.766345 
L 420.422292 232.967846 
L 420.997513 217.835301 
L 421.572734 164.890149 
L 422.147954 127.646002 
L 422.723175 138.404426 
L 423.298396 185.293744 
L 423.873616 220.150826 
L 424.448837 207.561653 
L 425.024058 164.548764 
L 425.599278 135.823388 
L 426.174499 149.265017 
L 426.74972 193.730301 
L 427.32494 222.463643 
L 427.900161 200.621498 
L 428.475382 149.192239 
L 429.050602 120.693009 
L 429.625823 146.829072 
L 430.201044 209.876018 
L 430.776264 247.205937 
L 431.351485 214.558577 
L 431.926706 141.969324 
L 432.501926 99.167499 
L 433.077147 126.581707 
L 433.652368 203.167655 
L 434.227588 256.437563 
L 434.802809 233.033276 
L 435.37803 159.261396 
L 435.95325 105.351333 
L 436.528471 116.34093 
L 437.678912 238.260938 
L 438.254133 233.314103 
L 439.404574 123.955038 
L 439.979795 122.011138 
L 441.130236 229.039675 
L 441.705457 233.70839 
L 442.855898 121.211196 
L 443.431119 108.858534 
L 444.00634 159.0774 
L 444.58156 232.265353 
L 445.156781 259.686676 
L 445.732002 212.293479 
L 446.307222 132.426553 
L 446.882443 88.287263 
L 447.457664 115.444929 
L 448.608105 257.755461 
L 449.183326 252.435145 
L 450.333767 119.646347 
L 450.908988 101.455491 
L 451.484208 142.691074 
L 452.059429 208.296165 
L 452.63465 242.448434 
L 453.20987 218.19896 
L 453.785091 160.457171 
L 454.360312 118.894357 
L 454.935533 126.33143 
L 456.085974 236.072021 
L 456.661195 246.226098 
L 457.236415 194.974956 
L 457.811636 121.84555 
L 458.386857 84.487479 
L 458.962077 113.63282 
L 460.112519 273.518416 
L 460.687739 284.633151 
L 461.26296 215.663399 
L 461.838181 118.305711 
L 462.413401 61.456751 
L 462.988622 80.619635 
L 464.139063 253.188837 
L 464.714284 287.459207 
L 465.289505 243.886598 
L 465.864725 159.890491 
L 466.439946 96.159073 
L 467.015167 90.64463 
L 467.590387 142.726806 
L 468.165608 216.913855 
L 468.740829 260.142217 
L 469.316049 239.200327 
L 470.466491 104.218977 
L 471.041711 86.564096 
L 471.616932 129.562291 
L 472.767373 280.51008 
L 473.342594 285.77007 
L 473.917815 217.497319 
L 474.493035 120.39099 
L 475.068256 56.236206 
L 475.643477 60.307458 
L 476.218697 128.749046 
L 476.793918 224.25634 
L 477.369139 290.639486 
L 477.944359 288.226434 
L 478.51958 224.539796 
L 479.094801 144.942173 
L 479.670021 94.896088 
L 480.245242 94.319121 
L 480.820463 136.22216 
L 481.395683 193.818238 
L 481.970904 231.261462 
L 482.546125 226.149349 
L 483.696566 144.162417 
L 484.271787 126.758819 
L 484.847007 145.573356 
L 485.997449 241.740296 
L 486.572669 256.129745 
L 487.14789 216.513381 
L 488.298331 80.901931 
L 488.873552 67.521866 
L 489.448773 111.705626 
L 490.599214 272.646778 
L 491.174435 299.57242 
L 491.749655 258.15609 
L 492.900097 104.975917 
L 493.475317 77.972238 
L 494.050538 103.361415 
L 495.200979 223.277507 
L 495.7762 244.723741 
L 496.351421 217.840096 
L 496.926641 166.747117 
L 497.501862 128.810996 
L 498.077083 127.935491 
L 498.652303 165.701229 
L 499.227524 221.203674 
L 499.802745 255.138228 
L 500.377965 234.983131 
L 501.528407 97.31378 
L 502.103627 70.23887 
L 502.678848 103.630718 
L 503.829289 260.752441 
L 504.40451 289.635594 
L 504.979731 250.552887 
L 506.130172 110.746979 
L 506.705393 93.259543 
L 507.280613 123.325246 
L 507.855834 176.878412 
L 508.431055 217.002798 
L 509.006275 219.5232 
L 510.156717 159.744547 
L 510.731937 150.014378 
L 511.307158 168.18675 
L 511.882379 201.005499 
L 512.457599 220.659191 
L 513.03282 204.359873 
L 514.183261 116.580843 
L 514.758482 111.458366 
L 515.333703 151.192675 
L 515.908923 213.861344 
L 516.484144 254.77627 
L 517.059365 240.257352 
L 518.209806 124.075845 
L 518.785027 107.875292 
L 519.360247 140.917403 
L 519.935468 196.598353 
L 520.510689 229.986179 
L 521.085909 216.19195 
L 521.66113 172.429631 
L 522.236351 137.858627 
L 522.811571 139.139556 
L 523.962013 213.609443 
L 524.537233 218.76216 
L 525.112454 182.346858 
L 525.687675 136.332913 
L 526.262895 121.694348 
L 526.838116 155.002281 
L 527.413337 214.006359 
L 527.988557 246.068013 
L 528.563778 216.275866 
L 529.138999 148.72092 
L 529.714219 102.770759 
L 530.28944 117.643591 
L 531.439881 244.82444 
L 532.015102 243.810571 
L 533.165543 124.791562 
L 533.740764 112.627536 
L 534.315985 155.186586 
L 534.891205 212.136785 
L 535.466426 230.049444 
L 536.041647 197.329616 
L 536.616867 150.73899 
L 537.192088 133.059979 
L 537.767309 158.77252 
L 538.342529 202.779865 
L 538.91775 218.980495 
L 539.492971 189.590446 
L 540.068191 145.018896 
L 540.643412 129.344188 
L 541.218633 160.719204 
L 541.793853 213.142688 
L 542.369074 232.331635 
L 542.944295 194.795292 
L 543.519515 137.668135 
L 544.094736 115.687936 
L 544.669957 150.414079 
L 545.245178 211.702358 
L 545.820398 238.436657 
L 546.395619 204.631342 
L 546.97084 147.818501 
L 547.54606 121.678957 
L 548.121281 147.703417 
L 548.696502 199.671127 
L 549.271722 224.425486 
L 549.846943 198.895238 
L 550.422164 153.658706 
L 550.997384 133.833934 
L 551.572605 158.557202 
L 552.147826 204.561966 
L 552.723046 221.524951 
L 553.298267 187.92954 
L 553.873488 138.507754 
L 554.448708 124.13184 
L 555.023929 164.232593 
L 555.59915 225.147777 
L 556.17437 241.680589 
L 556.749591 190.737188 
L 557.324812 122.615871 
L 557.900032 103.255844 
L 558.475253 153.489173 
L 559.050474 229.315552 
L 559.625694 254.175327 
L 560.200915 203.239738 
L 560.776136 130.507789 
L 561.351356 103.401091 
L 561.926577 143.953518 
L 562.501798 213.425293 
L 563.077018 242.800879 
L 563.652239 206.292713 
L 564.22746 145.772897 
L 564.80268 118.588935 
L 565.377901 148.107448 
L 565.953122 206.413133 
L 566.528342 233.340013 
L 567.103563 200.359852 
L 567.678784 142.005365 
L 568.254004 115.049328 
L 568.829225 147.179042 
L 569.404446 213.592969 
L 569.979666 249.400732 
L 570.554887 215.092697 
L 571.130108 142.870351 
L 571.705328 99.016065 
L 572.280549 122.227153 
L 572.85577 195.309767 
L 573.43099 252.651701 
L 574.006211 240.542123 
L 575.156652 114.715986 
L 575.731873 109.841311 
L 576.307094 161.030271 
L 576.882314 222.500613 
L 577.457535 238.922826 
L 578.032756 199.663625 
L 578.607976 144.499316 
L 579.183197 120.858751 
L 579.758418 147.885092 
L 580.333638 203.381736 
L 580.908859 236.161505 
L 581.48408 212.529679 
L 582.0593 151.830587 
L 582.634521 107.157255 
L 583.209742 118.000908 
L 584.360183 252.558969 
L 584.935404 265.191839 
L 585.510624 203.702471 
L 586.085845 117.230588 
L 586.661066 73.243584 
L 587.236286 104.609628 
L 588.386728 268.879478 
L 588.961948 275.441897 
L 589.537169 208.62997 
L 590.11239 124.300212 
L 590.68761 83.425582 
L 591.262831 110.172797 
L 592.413272 246.672436 
L 592.988493 252.485417 
L 593.563714 199.025094 
L 594.138934 131.360324 
L 594.714155 100.090183 
L 595.289376 126.482555 
L 596.439817 255.286723 
L 597.015038 259.942677 
L 597.590258 199.378931 
L 598.165479 117.204447 
L 598.7407 71.351039 
L 599.31592 92.059978 
L 600.466362 257.031545 
L 601.041582 295.786557 
L 601.616803 257.920972 
L 602.767244 95.343121 
L 603.342465 71.605492 
L 603.917686 107.638241 
L 605.068127 240.73973 
L 605.643348 256.352488 
L 606.218568 222.040508 
L 606.793789 167.637703 
L 607.36901 129.482165 
L 607.94423 126.845828 
L 608.519451 157.765303 
L 609.094672 202.428735 
L 609.669892 229.355228 
L 610.245113 215.043508 
L 611.395554 115.634648 
L 611.970775 98.163762 
L 612.545996 127.1835 
L 613.696437 262.000732 
L 614.271658 290.337854 
L 614.846878 252.65812 
L 615.99732 88.636073 
L 616.57254 55.8 
L 617.147761 83.784446 
L 618.298202 237.98305 
L 618.873423 280.499252 
L 619.448644 262.552949 
L 620.599085 138.291894 
L 621.174306 106.322741 
L 621.749526 117.711574 
L 622.899968 215.574998 
L 623.475188 237.807949 
L 624.050409 211.801123 
L 625.20085 107.775135 
L 625.776071 100.827324 
L 626.351292 141.769783 
L 627.501733 275.925281 
L 628.076954 284.801756 
L 628.652174 228.210343 
L 629.227395 140.484987 
L 629.802616 74.388237 
L 630.377836 63.424317 
L 630.953057 109.274089 
L 632.103498 250.646238 
L 632.678719 267.046486 
L 633.25394 233.365226 
L 633.82916 179.164715 
L 634.404381 138.577593 
L 634.979602 129.462133 
L 635.554822 150.268135 
L 636.130043 183.467868 
L 636.705264 202.938029 
L 637.280485 192.21611 
L 638.430926 134.06534 
L 639.006147 136.400741 
L 639.581367 171.434162 
L 640.156588 222.827303 
L 640.731809 256.121237 
L 641.307029 240.265086 
L 642.457471 112.439983 
L 643.032691 83.717159 
L 643.607912 109.666829 
L 644.758353 238.005943 
L 645.333574 255.524935 
L 645.908795 219.593349 
L 646.484015 162.620024 
L 647.059236 126.24125 
L 647.634457 131.373395 
L 648.784898 210.217326 
L 649.360119 216.852059 
L 649.935339 183.411223 
L 650.51056 139.249613 
L 651.085781 122.379129 
L 651.661001 149.964802 
L 652.236222 207.362345 
L 652.811443 250.358837 
L 653.386663 236.924865 
L 654.537105 106.188012 
L 655.112325 91.617585 
L 655.687546 141.21625 
L 656.262767 220.290427 
L 656.837987 264.117566 
L 657.413208 235.551822 
L 657.988429 162.911447 
L 658.563649 108.051863 
L 659.13887 110.869798 
L 660.289311 223.863446 
L 660.864532 235.71625 
L 661.439753 196.290379 
L 662.014973 145.999508 
L 662.590194 127.616148 
L 663.165415 154.460427 
L 663.740635 201.530105 
L 664.315856 222.943392 
L 664.891077 196.840044 
L 665.466297 148.987207 
L 666.041518 124.65838 
L 666.616739 148.32586 
L 667.191959 203.519327 
L 667.76718 238.288085 
L 668.342401 214.688356 
L 668.917621 153.649193 
L 669.492842 112.00865 
L 670.068063 127.102292 
L 671.218504 238.660406 
L 671.793725 229.761966 
L 672.944166 124.819173 
L 673.519387 125.573562 
L 674.669828 220.294217 
L 675.245049 220.953397 
L 676.39549 137.394347 
L 676.970711 136.60005 
L 678.121152 220.390584 
L 678.696373 216.328613 
L 679.846814 123.263837 
L 680.422035 129.627025 
L 681.572476 242.127467 
L 682.147697 233.589207 
L 683.298138 106.857711 
L 683.873359 111.850873 
L 685.0238 246.497799 
L 685.599021 243.601285 
L 686.749462 114.895728 
L 687.324683 112.453672 
L 688.475124 229.754851 
L 689.050345 232.754538 
L 690.200786 130.871758 
L 690.776007 127.457753 
L 691.926448 223.362196 
L 692.501669 222.374855 
L 693.65211 124.466883 
L 694.227331 126.438007 
L 695.377772 236.982948 
L 695.952993 234.771138 
L 697.103434 115.018778 
L 697.678655 111.348232 
L 698.829096 235.287856 
L 699.404317 245.65238 
L 700.554758 129.019044 
L 701.129979 110.47497 
L 701.705199 150.161559 
L 702.28042 210.827782 
L 702.855641 234.81414 
L 703.430861 203.214602 
L 704.006082 151.094915 
L 704.581303 126.3288 
L 705.156523 150.27324 
L 705.731744 202.076755 
L 706.306965 230.677998 
L 706.882185 204.798941 
L 707.457406 147.690501 
L 708.032627 112.190093 
L 708.607847 132.7097 
L 709.758289 253.836571 
L 710.333509 242.709925 
L 711.483951 100.535824 
L 712.059171 89.551022 
L 712.634392 149.20995 
L 713.209613 234.440504 
L 713.784833 272.582585 
L 714.360054 231.527826 
L 714.935275 149.959311 
L 715.510495 94.473803 
L 716.085716 104.107373 
L 717.236157 236.234592 
L 717.811378 250.205779 
L 718.386599 203.264487 
L 718.961819 138.531807 
L 719.53704 107.736233 
L 720.112261 133.251167 
L 720.687481 196.652878 
L 721.262702 247.087372 
L 721.837923 239.388885 
L 722.988364 109.527924 
L 723.563585 88.403275 
L 724.138805 130.943376 
L 724.714026 211.739869 
L 725.289247 273.220651 
L 725.864467 266.416927 
L 727.014909 114.358205 
L 727.59013 76.729362 
L 728.16535 103.02993 
L 729.315792 241.611909 
L 729.891012 261.016175 
L 730.466233 224.42332 
L 731.041454 164.281318 
L 731.616674 122.338757 
L 732.191895 120.595249 
L 732.767116 155.042576 
L 733.342336 200.874096 
L 733.917557 224.750397 
L 734.492778 208.267084 
L 735.643219 125.557474 
L 736.21844 120.511488 
L 736.79366 155.360449 
L 737.368881 214.081535 
L 737.944102 260.963583 
L 738.519322 258.439159 
L 739.094543 200.005706 
L 739.669764 120.681407 
L 740.244984 69.569093 
L 740.820205 75.607911 
L 741.395426 136.482027 
L 741.970646 221.971984 
L 742.545867 283.742951 
L 743.121088 283.865924 
L 743.696308 225.152727 
L 744.271529 147.35685 
L 744.84675 94.846589 
L 745.42197 90.151191 
L 745.997191 130.379789 
L 746.572412 191.762658 
L 747.147632 237.346917 
L 747.722853 238.444701 
L 748.298074 197.356685 
L 748.873294 144.827863 
L 749.448515 115.338198 
L 750.023736 126.38495 
L 750.598956 174.16173 
L 751.174177 234.872146 
L 751.749398 268.716287 
L 752.324618 245.596307 
L 753.47506 97.634747 
L 754.05028 60.781561 
L 754.625501 82.480469 
L 755.200722 152.759689 
L 755.775942 237.4917 
L 756.351163 290.163836 
L 756.926384 281.23941 
L 757.501604 220.97281 
L 758.076825 148.894242 
L 758.652046 102.388073 
L 759.227266 97.734518 
L 759.802487 129.982254 
L 760.377708 178.272002 
L 760.952928 213.54989 
L 761.528149 216.504255 
L 762.10337 191.620968 
L 762.67859 161.715052 
L 763.253811 148.76516 
L 763.829032 161.977162 
L 764.979473 229.65307 
L 765.554694 233.436071 
L 766.129914 194.036109 
L 766.705135 132.027935 
L 767.280356 87.467444 
L 767.855576 89.165088 
L 768.430797 139.857903 
L 769.006018 215.939663 
L 769.581238 273.613546 
L 770.156459 274.853329 
L 770.73168 219.667828 
L 771.3069 146.73982 
L 771.882121 100.432032 
L 772.457342 102.410348 
L 773.032562 146.207479 
L 773.607783 201.429484 
L 774.183004 229.329705 
L 774.758224 211.975838 
L 775.333445 167.676683 
L 775.908666 133.816687 
L 776.483886 136.518919 
L 777.059107 177.013984 
L 777.634328 229.419267 
L 778.209548 250.384669 
L 778.784769 213.572629 
L 779.35999 140.432627 
L 779.93521 84.670778 
L 780.510431 87.311215 
L 781.085652 151.22191 
L 781.660872 237.422789 
L 782.236093 283.014395 
L 782.811314 252.047664 
L 783.961755 103.009976 
L 784.536976 91.968715 
L 785.112196 140.264409 
L 785.687417 208.377141 
L 786.262638 241.905884 
L 786.837858 218.437713 
L 787.413079 165.298512 
L 787.9883 128.943869 
L 788.56352 136.152321 
L 789.713962 221.685589 
L 790.289182 222.290553 
L 791.439624 130.106619 
L 792.014844 118.203234 
L 792.590065 156.70124 
L 793.165286 218.196795 
L 793.740506 247.857616 
L 794.315727 214.616738 
L 794.890948 147.039595 
L 795.466168 103.842866 
L 796.041389 120.667177 
L 797.19183 242.130948 
L 797.767051 239.007901 
L 798.917492 126.674517 
L 799.492713 117.383183 
L 800.067934 159.961877 
L 800.643154 214.700034 
L 801.218375 228.949031 
L 801.793596 191.709988 
L 802.368816 142.346131 
L 802.944037 127.226734 
L 803.519258 161.721394 
L 804.094478 215.600985 
L 804.669699 232.794833 
L 805.24492 191.229698 
L 805.82014 130.846313 
L 806.395361 110.012468 
L 806.970582 152.816535 
L 807.545802 225.374078 
L 808.121023 255.183859 
L 808.696244 207.726777 
L 809.271464 129.631588 
L 809.846685 94.34155 
L 810.421906 134.046005 
L 810.997126 214.198785 
L 811.572347 256.567497 
L 812.147568 220.867858 
L 812.722788 148.322689 
L 813.298009 108.021158 
L 813.87323 132.818596 
L 814.44845 197.179264 
L 815.023671 235.879131 
L 815.598892 212.116135 
L 816.174112 156.025972 
L 816.749333 123.843589 
L 817.324554 145.211167 
L 817.899774 200.387618 
L 818.474995 231.583898 
L 819.050216 203.684296 
L 819.625437 146.160146 
L 820.200657 116.769014 
L 820.775878 146.026345 
L 821.351099 210.65183 
L 821.926319 245.204728 
L 822.50154 210.940855 
L 823.076761 142.737788 
L 823.651981 106.007807 
L 824.227202 133.954432 
L 824.802423 202.27529 
L 825.377643 244.425281 
L 825.952864 220.040459 
L 826.528085 158.53369 
L 827.103305 118.817015 
L 827.678526 133.467568 
L 828.253747 187.086982 
L 828.828967 226.512235 
L 829.404188 213.674487 
L 829.979409 166.048879 
L 830.554629 131.293424 
L 831.12985 141.690353 
L 831.705071 189.664308 
L 832.280291 228.026348 
L 832.855512 214.022678 
L 833.430733 158.88861 
L 834.005953 115.682445 
L 834.581174 126.540948 
L 835.731615 248.054759 
L 836.306836 243.677621 
L 837.457277 106.760261 
L 838.032498 95.473054 
L 838.607719 153.320569 
L 839.182939 232.799551 
L 839.75816 262.194859 
L 840.333381 217.036287 
L 840.908601 142.23097 
L 841.483822 101.113564 
L 842.059043 123.58318 
L 842.634263 189.006828 
L 843.209484 239.401337 
L 843.784705 230.987287 
L 844.935146 124.996208 
L 845.510367 119.888194 
L 846.085587 165.461393 
L 846.660808 224.483801 
L 847.236029 242.955484 
L 847.811249 201.373644 
L 848.38647 134.909599 
L 848.961691 98.74305 
L 849.536911 122.865606 
L 850.687353 256.474687 
L 851.262573 258.789516 
L 851.837794 197.565894 
L 852.413015 122.56645 
L 852.988235 88.324387 
L 853.563456 115.674711 
L 854.713897 241.833802 
L 855.289118 248.585321 
L 855.864339 205.133442 
L 856.439559 149.561235 
L 857.01478 121.060844 
L 857.590001 134.427375 
L 858.740442 214.595778 
L 859.315663 218.695415 
L 859.890883 185.915956 
L 860.466104 143.32566 
L 861.041325 124.085126 
L 861.616545 144.016628 
L 862.766987 243.679168 
L 863.342207 251.846963 
L 863.917428 205.118515 
L 864.492649 132.299713 
L 865.067869 82.090669 
L 865.64309 86.30887 
L 866.218311 144.903038 
L 866.793531 226.665525 
L 867.368752 281.185271 
L 867.943973 271.866403 
L 869.669635 87.242381 
L 870.244855 96.558155 
L 870.820076 148.45417 
L 871.395297 211.576833 
L 871.970517 246.549154 
L 872.545738 232.747732 
L 873.696179 135.801113 
L 874.2714 118.052882 
L 874.846621 140.169666 
L 875.997062 241.270911 
L 876.572283 253.465101 
L 877.147503 212.080867 
L 877.722724 140.312903 
L 878.297945 83.277086 
L 878.873165 74.383596 
L 879.448386 119.718971 
L 880.598827 272.781352 
L 881.174048 296.272261 
L 881.749269 255.765466 
L 882.89971 108.728214 
L 883.474931 79.23213 
L 884.050151 96.737587 
L 885.200593 204.168067 
L 885.775813 235.813546 
L 886.351034 229.51896 
L 887.501475 162.670837 
L 888.076696 146.472528 
L 888.651917 155.663086 
L 889.802358 215.65203 
L 890.377579 220.961905 
L 890.952799 188.564745 
L 891.52802 135.328789 
L 892.103241 95.933236 
L 892.678461 96.711291 
L 893.253682 142.204596 
L 894.404123 277.061426 
L 894.979344 288.497129 
L 895.554565 238.057066 
L 896.129785 156.240904 
L 896.705006 90.669379 
L 897.280227 73.178617 
L 897.855447 108.048073 
L 899.005889 234.346843 
L 899.581109 251.152747 
L 900.15633 219.137498 
L 900.731551 166.264429 
L 901.306771 129.785575 
L 901.881992 131.435268 
L 902.457213 170.140015 
L 903.032433 221.765096 
L 903.607654 245.666765 
L 904.182875 214.752162 
L 905.333316 85.90128 
L 905.908537 78.770402 
L 906.483757 132.982715 
L 907.058978 222.096813 
L 907.634199 290.501045 
L 908.209419 287.93795 
L 908.78464 215.137632 
L 909.359861 124.437493 
L 909.935082 74.070364 
L 910.510302 89.145753 
L 911.660744 223.996782 
L 912.235964 249.179071 
L 912.811185 218.754272 
L 913.386406 164.941504 
L 913.961626 131.133946 
L 914.536847 139.230664 
L 915.687288 221.934705 
L 916.262509 224.180314 
L 916.83773 181.006585 
L 917.41295 126.729197 
L 917.988171 105.777252 
L 918.563392 137.874792 
L 919.138612 205.512492 
L 919.713833 258.169238 
L 920.289054 248.786409 
L 921.439495 112.393501 
L 922.014716 92.537948 
L 922.589936 136.503064 
L 923.165157 210.659641 
L 923.740378 253.362391 
L 924.315598 229.862665 
L 924.890819 165.871148 
L 925.46604 117.536241 
L 926.04126 121.411433 
L 927.191702 224.611569 
L 927.766922 229.85671 
L 928.917364 131.371229 
L 929.492584 119.171161 
L 930.067805 161.310479 
L 930.643026 224.327108 
L 931.218246 247.073374 
L 931.793467 202.158272 
L 932.368688 129.706532 
L 932.943908 95.794795 
L 933.519129 133.283728 
L 934.09435 214.986507 
L 934.66957 265.81057 
L 935.244791 234.146838 
L 935.820012 151.008215 
L 936.395232 93.193803 
L 936.970453 109.040286 
L 938.120894 248.415402 
L 938.696115 241.877422 
L 939.846556 121.021864 
L 940.421777 118.959246 
L 941.572218 224.422392 
L 942.147439 226.021735 
L 943.29788 130.01381 
L 943.873101 128.715634 
L 945.023542 228.814766 
L 945.598763 227.358272 
L 946.749204 118.888556 
L 947.324425 118.680817 
L 948.474866 237.348618 
L 949.050087 239.957963 
L 950.200528 121.165178 
L 950.775749 113.208138 
L 951.35097 163.576583 
L 951.92619 223.857026 
L 952.501411 234.508564 
L 953.651852 138.606596 
L 954.227073 126.580856 
L 954.802294 162.926296 
L 955.377514 211.269788 
L 955.952735 221.185731 
L 956.527956 183.906571 
L 957.103176 139.366398 
L 957.678397 131.648266 
L 958.253618 171.781943 
L 958.828838 223.689196 
L 959.404059 230.889836 
L 960.5545 121.244608 
L 961.129721 109.408045 
L 961.704942 160.940942 
L 962.280162 233.242408 
L 962.855383 255.014481 
L 963.430604 202.972291 
L 964.005824 128.02861 
L 964.581045 97.033804 
L 965.156266 135.534827 
L 965.731486 210.011443 
L 966.306707 250.913143 
L 966.881928 222.359387 
L 967.457148 157.267688 
L 968.032369 114.92535 
L 968.60759 128.384767 
L 969.758031 229.274561 
L 970.333252 221.61428 
L 971.483693 127.400443 
L 972.058914 128.084451 
L 973.209355 229.292736 
L 973.784576 236.617819 
L 974.359796 187.556909 
L 974.935017 125.608056 
L 975.510238 103.533191 
L 976.085458 141.25554 
L 976.660679 211.653943 
L 977.2359 255.51488 
L 977.81112 234.418307 
L 978.961562 113.570792 
L 979.536782 108.096334 
L 980.112003 153.183211 
L 980.687224 211.927809 
L 981.262444 237.210719 
L 981.837665 213.323434 
L 982.412886 165.787465 
L 982.988106 133.414899 
L 983.563327 137.953525 
L 984.713768 210.646029 
L 985.288989 216.49714 
L 985.86421 184.81763 
L 986.43943 141.926167 
L 987.014651 123.065225 
L 987.589872 145.556573 
L 988.740313 245.875587 
L 989.315534 245.512701 
L 989.890754 191.353599 
L 990.465975 121.396506 
L 991.041196 84.870319 
L 991.616416 106.326221 
L 992.766858 247.384286 
L 993.342078 273.633655 
L 993.917299 235.859023 
L 994.49252 164.06801 
L 995.06774 107.471029 
L 995.642961 97.589889 
L 996.218182 135.274805 
L 996.218182 135.274805 
" style="fill:none;stroke:#4c72b0;stroke-linecap:round;stroke-width:1.4;"/>
   </g>
   <g id="patch_3">
    <path d="M 144 320.4 
L 144 43.2 
" style="fill:none;"/>
   </g>
   <g id="patch_4">
    <path d="M 1036.8 320.4 
L 1036.8 43.2 
" style="fill:none;"/>
   </g>
   <g id="patch_5">
    <path d="M 144 320.4 
L 1036.8 320.4 
" style="fill:none;"/>
   </g>
   <g id="patch_6">
    <path d="M 144 43.2 
L 1036.8 43.2 
" style="fill:none;"/>
   </g>
  </g>
 </g>
 <defs>
  <clipPath id="pdb1f08d1c2">
   <rect height="277.2" width="892.8" x="144" y="43.2"/>
  </clipPath>
 </defs>
</svg>
