<?xml version="1.0" encoding="utf-8" standalone="no"?>
<!DOCTYPE svg PUBLIC "-//W3C//DTD SVG 1.1//EN"
  "http://www.w3.org/Graphics/SVG/1.1/DTD/svg11.dtd">
<!-- Created with matplotlib (http://matplotlib.org/) -->
<svg height="360pt" version="1.1" viewBox="0 0 1152 360" width="1152pt" xmlns="http://www.w3.org/2000/svg" xmlns:xlink="http://www.w3.org/1999/xlink">
 <defs>
  <style type="text/css">
*{stroke-linecap:butt;stroke-linejoin:round;}
  </style>
 </defs>
 <g id="figure_1">
  <g id="patch_1">
   <path d="M 0 360 
L 1152 360 
L 1152 0 
L 0 0 
z
" style="fill:#ffffff;"/>
  </g>
  <g id="axes_1">
   <g id="patch_2">
    <path d="M 144 320.4 
L 1036.8 320.4 
L 1036.8 43.2 
L 144 43.2 
z
" style="fill:#eaeaf2;"/>
   </g>
   <g id="matplotlib.axis_1">
    <g id="xtick_1">
     <g id="line2d_1">
      <path clip-path="url(#p27863b9e35)" d="M 184.581818 320.4 
L 184.581818 43.2 
" style="fill:none;stroke:#ffffff;stroke-linecap:round;stroke-width:0.8;"/>
     </g>
     <g id="line2d_2"/>
     <g id="text_1">
      <!-- 0.000 -->
      <defs>
       <path d="M 51.703125 34.421875 
Q 51.703125 24.515625 49.828125 17.75 
Q 47.953125 10.984375 44.703125 6.8125 
Q 41.453125 2.640625 37.0625 0.828125 
Q 32.671875 -0.984375 27.6875 -0.984375 
Q 22.65625 -0.984375 18.3125 0.828125 
Q 13.96875 2.640625 10.765625 6.78125 
Q 7.5625 10.9375 5.734375 17.703125 
Q 3.90625 24.46875 3.90625 34.421875 
Q 3.90625 44.828125 5.734375 51.640625 
Q 7.5625 58.453125 10.78125 62.5 
Q 14.015625 66.546875 18.40625 68.1875 
Q 22.796875 69.828125 27.984375 69.828125 
Q 32.90625 69.828125 37.21875 68.1875 
Q 41.546875 66.546875 44.765625 62.5 
Q 48 58.453125 49.84375 51.640625 
Q 51.703125 44.828125 51.703125 34.421875 
M 42.78125 34.421875 
Q 42.78125 42.625 41.796875 48.0625 
Q 40.828125 53.515625 38.921875 56.765625 
Q 37.015625 60.015625 34.25 61.359375 
Q 31.5 62.703125 27.984375 62.703125 
Q 24.265625 62.703125 21.4375 61.328125 
Q 18.609375 59.96875 16.671875 56.71875 
Q 14.75 53.46875 13.765625 48.015625 
Q 12.796875 42.578125 12.796875 34.421875 
Q 12.796875 26.515625 13.796875 21.09375 
Q 14.796875 15.671875 16.71875 12.375 
Q 18.65625 9.078125 21.4375 7.640625 
Q 24.21875 6.203125 27.78125 6.203125 
Q 31.25 6.203125 34.03125 7.640625 
Q 36.8125 9.078125 38.734375 12.375 
Q 40.671875 15.671875 41.71875 21.09375 
Q 42.78125 26.515625 42.78125 34.421875 
" id="LiberationSans-30"/>
       <path d="M 9.125 0 
L 9.125 10.6875 
L 18.65625 10.6875 
L 18.65625 0 
z
" id="LiberationSans-2e"/>
      </defs>
      <g style="fill:#262626;" transform="translate(174.573068 331.7975)scale(0.08 -0.08)">
       <use xlink:href="#LiberationSans-30"/>
       <use x="55.615234" xlink:href="#LiberationSans-2e"/>
       <use x="83.398438" xlink:href="#LiberationSans-30"/>
       <use x="139.013672" xlink:href="#LiberationSans-30"/>
       <use x="194.628906" xlink:href="#LiberationSans-30"/>
      </g>
     </g>
    </g>
    <g id="xtick_2">
     <g id="line2d_3">
      <path clip-path="url(#p27863b9e35)" d="M 311.238448 320.4 
L 311.238448 43.2 
" style="fill:none;stroke:#ffffff;stroke-linecap:round;stroke-width:0.8;"/>
     </g>
     <g id="line2d_4"/>
     <g id="text_2">
      <!-- 0.005 -->
      <defs>
       <path d="M 51.421875 22.40625 
Q 51.421875 17.234375 49.859375 12.9375 
Q 48.296875 8.640625 45.21875 5.53125 
Q 42.140625 2.4375 37.578125 0.71875 
Q 33.015625 -0.984375 27 -0.984375 
Q 21.578125 -0.984375 17.546875 0.28125 
Q 13.53125 1.5625 10.734375 3.78125 
Q 7.953125 6 6.3125 8.984375 
Q 4.6875 11.96875 4 15.375 
L 12.890625 16.40625 
Q 13.421875 14.453125 14.390625 12.625 
Q 15.375 10.796875 17.0625 9.34375 
Q 18.75 7.90625 21.21875 7.046875 
Q 23.6875 6.203125 27.203125 6.203125 
Q 30.609375 6.203125 33.390625 7.25 
Q 36.1875 8.296875 38.15625 10.34375 
Q 40.140625 12.40625 41.203125 15.375 
Q 42.28125 18.359375 42.28125 22.21875 
Q 42.28125 25.390625 41.25 28.046875 
Q 40.234375 30.71875 38.328125 32.640625 
Q 36.421875 34.578125 33.65625 35.640625 
Q 30.90625 36.71875 27.390625 36.71875 
Q 25.203125 36.71875 23.34375 36.328125 
Q 21.484375 35.9375 19.890625 35.25 
Q 18.3125 34.578125 17.015625 33.671875 
Q 15.71875 32.765625 14.59375 31.78125 
L 6 31.78125 
L 8.296875 68.796875 
L 47.40625 68.796875 
L 47.40625 61.328125 
L 16.3125 61.328125 
L 14.984375 39.5 
Q 17.328125 41.3125 20.84375 42.59375 
Q 24.359375 43.890625 29.203125 43.890625 
Q 34.328125 43.890625 38.421875 42.328125 
Q 42.53125 40.765625 45.40625 37.90625 
Q 48.296875 35.0625 49.859375 31.109375 
Q 51.421875 27.15625 51.421875 22.40625 
" id="LiberationSans-35"/>
      </defs>
      <g style="fill:#262626;" transform="translate(301.229698 331.7975)scale(0.08 -0.08)">
       <use xlink:href="#LiberationSans-30"/>
       <use x="55.615234" xlink:href="#LiberationSans-2e"/>
       <use x="83.398438" xlink:href="#LiberationSans-30"/>
       <use x="139.013672" xlink:href="#LiberationSans-30"/>
       <use x="194.628906" xlink:href="#LiberationSans-35"/>
      </g>
     </g>
    </g>
    <g id="xtick_3">
     <g id="line2d_5">
      <path clip-path="url(#p27863b9e35)" d="M 437.895078 320.4 
L 437.895078 43.2 
" style="fill:none;stroke:#ffffff;stroke-linecap:round;stroke-width:0.8;"/>
     </g>
     <g id="line2d_6"/>
     <g id="text_3">
      <!-- 0.010 -->
      <defs>
       <path d="M 7.625 0 
L 7.625 7.46875 
L 25.140625 7.46875 
L 25.140625 60.40625 
L 9.625 49.3125 
L 9.625 57.625 
L 25.875 68.796875 
L 33.984375 68.796875 
L 33.984375 7.46875 
L 50.734375 7.46875 
L 50.734375 0 
z
" id="LiberationSans-31"/>
      </defs>
      <g style="fill:#262626;" transform="translate(427.886328 331.7975)scale(0.08 -0.08)">
       <use xlink:href="#LiberationSans-30"/>
       <use x="55.615234" xlink:href="#LiberationSans-2e"/>
       <use x="83.398438" xlink:href="#LiberationSans-30"/>
       <use x="139.013672" xlink:href="#LiberationSans-31"/>
       <use x="194.628906" xlink:href="#LiberationSans-30"/>
      </g>
     </g>
    </g>
    <g id="xtick_4">
     <g id="line2d_7">
      <path clip-path="url(#p27863b9e35)" d="M 564.551708 320.4 
L 564.551708 43.2 
" style="fill:none;stroke:#ffffff;stroke-linecap:round;stroke-width:0.8;"/>
     </g>
     <g id="line2d_8"/>
     <g id="text_4">
      <!-- 0.015 -->
      <g style="fill:#262626;" transform="translate(554.542958 331.7975)scale(0.08 -0.08)">
       <use xlink:href="#LiberationSans-30"/>
       <use x="55.615234" xlink:href="#LiberationSans-2e"/>
       <use x="83.398438" xlink:href="#LiberationSans-30"/>
       <use x="139.013672" xlink:href="#LiberationSans-31"/>
       <use x="194.628906" xlink:href="#LiberationSans-35"/>
      </g>
     </g>
    </g>
    <g id="xtick_5">
     <g id="line2d_9">
      <path clip-path="url(#p27863b9e35)" d="M 691.208338 320.4 
L 691.208338 43.2 
" style="fill:none;stroke:#ffffff;stroke-linecap:round;stroke-width:0.8;"/>
     </g>
     <g id="line2d_10"/>
     <g id="text_5">
      <!-- 0.020 -->
      <defs>
       <path d="M 5.03125 0 
L 5.03125 6.203125 
Q 7.515625 11.921875 11.109375 16.28125 
Q 14.703125 20.65625 18.65625 24.1875 
Q 22.609375 27.734375 26.484375 30.765625 
Q 30.375 33.796875 33.5 36.8125 
Q 36.625 39.84375 38.546875 43.15625 
Q 40.484375 46.484375 40.484375 50.6875 
Q 40.484375 53.609375 39.59375 55.828125 
Q 38.71875 58.0625 37.0625 59.5625 
Q 35.40625 61.078125 33.078125 61.828125 
Q 30.765625 62.59375 27.9375 62.59375 
Q 25.296875 62.59375 22.96875 61.859375 
Q 20.65625 61.140625 18.84375 59.671875 
Q 17.046875 58.203125 15.890625 56.03125 
Q 14.75 53.859375 14.40625 50.984375 
L 5.421875 51.8125 
Q 5.859375 55.515625 7.46875 58.78125 
Q 9.078125 62.0625 11.90625 64.53125 
Q 14.75 67 18.71875 68.40625 
Q 22.703125 69.828125 27.9375 69.828125 
Q 33.0625 69.828125 37.0625 68.609375 
Q 41.0625 67.390625 43.8125 64.984375 
Q 46.578125 62.59375 48.046875 59.078125 
Q 49.515625 55.5625 49.515625 50.984375 
Q 49.515625 47.515625 48.265625 44.390625 
Q 47.015625 41.265625 44.9375 38.421875 
Q 42.875 35.59375 40.140625 32.953125 
Q 37.40625 30.328125 34.421875 27.8125 
Q 31.453125 25.296875 28.421875 22.828125 
Q 25.390625 20.359375 22.71875 17.859375 
Q 20.0625 15.375 17.96875 12.8125 
Q 15.875 10.25 14.703125 7.46875 
L 50.59375 7.46875 
L 50.59375 0 
z
" id="LiberationSans-32"/>
      </defs>
      <g style="fill:#262626;" transform="translate(681.199588 331.7975)scale(0.08 -0.08)">
       <use xlink:href="#LiberationSans-30"/>
       <use x="55.615234" xlink:href="#LiberationSans-2e"/>
       <use x="83.398438" xlink:href="#LiberationSans-30"/>
       <use x="139.013672" xlink:href="#LiberationSans-32"/>
       <use x="194.628906" xlink:href="#LiberationSans-30"/>
      </g>
     </g>
    </g>
    <g id="xtick_6">
     <g id="line2d_11">
      <path clip-path="url(#p27863b9e35)" d="M 817.864968 320.4 
L 817.864968 43.2 
" style="fill:none;stroke:#ffffff;stroke-linecap:round;stroke-width:0.8;"/>
     </g>
     <g id="line2d_12"/>
     <g id="text_6">
      <!-- 0.025 -->
      <g style="fill:#262626;" transform="translate(807.856218 331.7975)scale(0.08 -0.08)">
       <use xlink:href="#LiberationSans-30"/>
       <use x="55.615234" xlink:href="#LiberationSans-2e"/>
       <use x="83.398438" xlink:href="#LiberationSans-30"/>
       <use x="139.013672" xlink:href="#LiberationSans-32"/>
       <use x="194.628906" xlink:href="#LiberationSans-35"/>
      </g>
     </g>
    </g>
    <g id="xtick_7">
     <g id="line2d_13">
      <path clip-path="url(#p27863b9e35)" d="M 944.521598 320.4 
L 944.521598 43.2 
" style="fill:none;stroke:#ffffff;stroke-linecap:round;stroke-width:0.8;"/>
     </g>
     <g id="line2d_14"/>
     <g id="text_7">
      <!-- 0.030 -->
      <defs>
       <path d="M 51.21875 19 
Q 51.21875 14.265625 49.671875 10.546875 
Q 48.140625 6.84375 45.1875 4.265625 
Q 42.234375 1.703125 37.859375 0.359375 
Q 33.5 -0.984375 27.875 -0.984375 
Q 21.484375 -0.984375 17.109375 0.609375 
Q 12.75 2.203125 9.90625 4.8125 
Q 7.078125 7.421875 5.65625 10.765625 
Q 4.25 14.109375 3.8125 17.671875 
L 12.890625 18.5 
Q 13.28125 15.765625 14.328125 13.515625 
Q 15.375 11.28125 17.1875 9.671875 
Q 19 8.0625 21.625 7.171875 
Q 24.265625 6.296875 27.875 6.296875 
Q 34.515625 6.296875 38.296875 9.5625 
Q 42.09375 12.84375 42.09375 19.28125 
Q 42.09375 23.09375 40.40625 25.40625 
Q 38.71875 27.734375 36.203125 29.03125 
Q 33.6875 30.328125 30.734375 30.765625 
Q 27.78125 31.203125 25.296875 31.203125 
L 20.3125 31.203125 
L 20.3125 38.8125 
L 25.09375 38.8125 
Q 27.59375 38.8125 30.265625 39.328125 
Q 32.953125 39.84375 35.171875 41.1875 
Q 37.40625 42.53125 38.84375 44.828125 
Q 40.28125 47.125 40.28125 50.6875 
Q 40.28125 56.203125 37.03125 59.390625 
Q 33.796875 62.59375 27.390625 62.59375 
Q 21.578125 62.59375 17.984375 59.609375 
Q 14.40625 56.640625 13.8125 51.21875 
L 4.984375 51.90625 
Q 5.515625 56.453125 7.46875 59.8125 
Q 9.421875 63.1875 12.421875 65.40625 
Q 15.4375 67.625 19.28125 68.71875 
Q 23.140625 69.828125 27.484375 69.828125 
Q 33.25 69.828125 37.390625 68.375 
Q 41.546875 66.9375 44.1875 64.46875 
Q 46.828125 62.015625 48.0625 58.6875 
Q 49.3125 55.375 49.3125 51.609375 
Q 49.3125 48.578125 48.484375 45.9375 
Q 47.65625 43.3125 45.890625 41.203125 
Q 44.140625 39.109375 41.421875 37.59375 
Q 38.71875 36.078125 34.90625 35.296875 
L 34.90625 35.109375 
Q 39.0625 34.671875 42.140625 33.21875 
Q 45.21875 31.78125 47.21875 29.625 
Q 49.21875 27.484375 50.21875 24.75 
Q 51.21875 22.015625 51.21875 19 
" id="LiberationSans-33"/>
      </defs>
      <g style="fill:#262626;" transform="translate(934.512848 331.7975)scale(0.08 -0.08)">
       <use xlink:href="#LiberationSans-30"/>
       <use x="55.615234" xlink:href="#LiberationSans-2e"/>
       <use x="83.398438" xlink:href="#LiberationSans-30"/>
       <use x="139.013672" xlink:href="#LiberationSans-33"/>
       <use x="194.628906" xlink:href="#LiberationSans-30"/>
      </g>
     </g>
    </g>
   </g>
   <g id="matplotlib.axis_2">
    <g id="ytick_1">
     <g id="line2d_15">
      <path clip-path="url(#p27863b9e35)" d="M 144 281.66042 
L 1036.8 281.66042 
" style="fill:none;stroke:#ffffff;stroke-linecap:round;stroke-width:0.8;"/>
     </g>
     <g id="line2d_16"/>
     <g id="text_8">
      <!-- −1.5 -->
      <defs>
       <path d="M 4.9375 29.6875 
L 4.9375 36.8125 
L 53.515625 36.8125 
L 53.515625 29.6875 
z
" id="LiberationSans-2212"/>
      </defs>
      <g style="fill:#262626;" transform="translate(122.6075 284.55917)scale(0.08 -0.08)">
       <use xlink:href="#LiberationSans-2212"/>
       <use x="58.398438" xlink:href="#LiberationSans-31"/>
       <use x="114.013672" xlink:href="#LiberationSans-2e"/>
       <use x="141.796875" xlink:href="#LiberationSans-35"/>
      </g>
     </g>
    </g>
    <g id="ytick_2">
     <g id="line2d_17">
      <path clip-path="url(#p27863b9e35)" d="M 144 237.600865 
L 1036.8 237.600865 
" style="fill:none;stroke:#ffffff;stroke-linecap:round;stroke-width:0.8;"/>
     </g>
     <g id="line2d_18"/>
     <g id="text_9">
      <!-- −1.0 -->
      <g style="fill:#262626;" transform="translate(122.6075 240.499615)scale(0.08 -0.08)">
       <use xlink:href="#LiberationSans-2212"/>
       <use x="58.398438" xlink:href="#LiberationSans-31"/>
       <use x="114.013672" xlink:href="#LiberationSans-2e"/>
       <use x="141.796875" xlink:href="#LiberationSans-30"/>
      </g>
     </g>
    </g>
    <g id="ytick_3">
     <g id="line2d_19">
      <path clip-path="url(#p27863b9e35)" d="M 144 193.54131 
L 1036.8 193.54131 
" style="fill:none;stroke:#ffffff;stroke-linecap:round;stroke-width:0.8;"/>
     </g>
     <g id="line2d_20"/>
     <g id="text_10">
      <!-- −0.5 -->
      <g style="fill:#262626;" transform="translate(122.6075 196.44006)scale(0.08 -0.08)">
       <use xlink:href="#LiberationSans-2212"/>
       <use x="58.398438" xlink:href="#LiberationSans-30"/>
       <use x="114.013672" xlink:href="#LiberationSans-2e"/>
       <use x="141.796875" xlink:href="#LiberationSans-35"/>
      </g>
     </g>
    </g>
    <g id="ytick_4">
     <g id="line2d_21">
      <path clip-path="url(#p27863b9e35)" d="M 144 149.481756 
L 1036.8 149.481756 
" style="fill:none;stroke:#ffffff;stroke-linecap:round;stroke-width:0.8;"/>
     </g>
     <g id="line2d_22"/>
     <g id="text_11">
      <!-- 0.0 -->
      <g style="fill:#262626;" transform="translate(127.28 152.380506)scale(0.08 -0.08)">
       <use xlink:href="#LiberationSans-30"/>
       <use x="55.615234" xlink:href="#LiberationSans-2e"/>
       <use x="83.398438" xlink:href="#LiberationSans-30"/>
      </g>
     </g>
    </g>
    <g id="ytick_5">
     <g id="line2d_23">
      <path clip-path="url(#p27863b9e35)" d="M 144 105.422201 
L 1036.8 105.422201 
" style="fill:none;stroke:#ffffff;stroke-linecap:round;stroke-width:0.8;"/>
     </g>
     <g id="line2d_24"/>
     <g id="text_12">
      <!-- 0.5 -->
      <g style="fill:#262626;" transform="translate(127.28 108.320951)scale(0.08 -0.08)">
       <use xlink:href="#LiberationSans-30"/>
       <use x="55.615234" xlink:href="#LiberationSans-2e"/>
       <use x="83.398438" xlink:href="#LiberationSans-35"/>
      </g>
     </g>
    </g>
    <g id="ytick_6">
     <g id="line2d_25">
      <path clip-path="url(#p27863b9e35)" d="M 144 61.362646 
L 1036.8 61.362646 
" style="fill:none;stroke:#ffffff;stroke-linecap:round;stroke-width:0.8;"/>
     </g>
     <g id="line2d_26"/>
     <g id="text_13">
      <!-- 1.0 -->
      <g style="fill:#262626;" transform="translate(127.28 64.261396)scale(0.08 -0.08)">
       <use xlink:href="#LiberationSans-31"/>
       <use x="55.615234" xlink:href="#LiberationSans-2e"/>
       <use x="83.398438" xlink:href="#LiberationSans-30"/>
      </g>
     </g>
    </g>
   </g>
   <g id="line2d_27">
    <path clip-path="url(#p27863b9e35)" d="M 184.581818 161.537374 
L 185.156225 163.545176 
L 185.730631 166.58914 
L 186.305038 170.697773 
L 187.453851 181.85039 
L 189.17707 203.19056 
L 190.325883 217.305829 
L 191.474696 228.540918 
L 192.049102 232.460299 
L 192.623509 235.02934 
L 193.197915 236.173947 
L 193.772322 235.898321 
L 194.346728 234.284706 
L 194.921135 231.488154 
L 196.069948 223.26727 
L 198.367574 204.515168 
L 198.94198 201.027605 
L 199.516387 198.457365 
L 200.090793 196.916554 
L 200.6652 196.443324 
L 201.239606 197.000758 
L 201.814013 198.480716 
L 202.388419 200.712384 
L 203.537232 206.513515 
L 204.686045 212.33854 
L 205.260452 214.611728 
L 205.834858 216.17051 
L 206.409265 216.862482 
L 206.983671 216.600075 
L 207.558078 215.367089 
L 208.132484 213.220379 
L 208.706891 210.286589 
L 209.855704 202.860949 
L 211.004517 195.095458 
L 211.578923 191.794965 
L 212.153329 189.238954 
L 212.727736 187.648569 
L 213.302142 187.189203 
L 213.876549 187.958738 
L 214.450955 189.980101 
L 215.025362 193.198655 
L 215.599768 197.484609 
L 216.748581 208.411819 
L 218.471801 226.379363 
L 219.620614 235.800888 
L 220.19502 238.955794 
L 220.769427 240.8469 
L 221.343833 241.393729 
L 221.91824 240.593272 
L 222.492646 238.519135 
L 223.067053 235.315734 
L 224.215866 226.387036 
L 226.513492 206.099478 
L 227.087898 202.060825 
L 227.662305 198.817597 
L 228.236711 196.454224 
L 228.811118 194.982682 
L 229.385524 194.342425 
L 229.959931 194.405239 
L 230.534337 194.984676 
L 232.257556 197.386474 
L 232.831963 197.528706 
L 233.406369 196.934046 
L 233.980776 195.414576 
L 234.555182 192.840954 
L 235.129589 189.152485 
L 235.703995 184.362675 
L 236.852808 171.902889 
L 240.299247 128.771373 
L 240.873654 123.77094 
L 241.44806 120.026849 
L 242.022467 117.64906 
L 242.596873 116.670779 
L 243.17128 117.046459 
L 243.745686 118.654813 
L 244.320093 121.306668 
L 245.468906 128.721262 
L 247.192125 140.635321 
L 247.766532 143.658626 
L 248.340938 145.825431 
L 248.915345 146.993849 
L 249.489751 147.093668 
L 250.064157 146.129675 
L 250.638564 144.179987 
L 251.21297 141.389534 
L 252.361783 134.130878 
L 254.085003 122.926577 
L 254.659409 120.124841 
L 255.233816 118.122378 
L 255.808222 117.035824 
L 256.382629 116.912657 
L 256.957035 117.727348 
L 257.531442 119.382456 
L 258.680255 124.504961 
L 260.403474 132.923911 
L 260.977881 134.801695 
L 261.552287 135.787525 
L 262.126694 135.688811 
L 262.7011 134.375884 
L 263.275507 131.791454 
L 263.849913 127.955422 
L 264.42432 122.964716 
L 265.573133 110.256642 
L 267.870759 81.720149 
L 269.019572 70.766519 
L 269.593978 66.984789 
L 270.168384 64.510819 
L 270.742791 63.384387 
L 271.317197 63.567828 
L 271.891604 64.949649 
L 272.46601 67.352901 
L 273.614823 74.267297 
L 275.338043 85.739497 
L 275.912449 88.800478 
L 276.486856 91.145401 
L 277.061262 92.661864 
L 277.635669 93.308212 
L 278.210075 93.115789 
L 278.784482 92.186228 
L 279.358888 90.683964 
L 281.082108 85.057087 
L 281.656514 83.687024 
L 282.230921 82.997403 
L 282.805327 83.199037 
L 283.379734 84.449676 
L 283.95414 86.842124 
L 284.528547 90.396613 
L 285.102953 95.057963 
L 286.251766 107.121202 
L 289.123798 141.253372 
L 289.698205 146.395114 
L 290.272611 150.390205 
L 290.847018 153.094968 
L 291.421424 154.439921 
L 291.995831 154.434026 
L 292.570237 153.163913 
L 293.144644 150.788154 
L 294.293457 143.647954 
L 296.016676 131.319113 
L 296.591083 127.962058 
L 297.165489 125.39686 
L 297.739896 123.79395 
L 298.314302 123.255283 
L 298.888709 123.808867 
L 299.463115 125.40821 
L 300.037522 127.936731 
L 301.186335 135.022848 
L 302.909554 146.975442 
L 303.483961 150.272914 
L 304.058367 152.863232 
L 304.632774 154.602731 
L 305.20718 155.413787 
L 305.781587 155.290778 
L 306.355993 154.301173 
L 306.9304 152.581673 
L 308.079213 147.790377 
L 309.228025 142.972648 
L 309.802432 141.270107 
L 310.376838 140.393708 
L 310.951245 140.561158 
L 311.525651 141.932647 
L 312.100058 144.599491 
L 312.674464 148.577182 
L 313.248871 153.803305 
L 314.397684 167.384107 
L 317.844123 213.630297 
L 318.418529 219.057603 
L 318.992936 223.255176 
L 319.567342 226.147164 
L 320.141749 227.734958 
L 320.716155 228.095804 
L 321.290562 227.376501 
L 321.864968 225.78264 
L 323.013781 220.997666 
L 324.162594 215.949441 
L 324.737001 213.985121 
L 325.311407 212.673203 
L 325.885814 212.152493 
L 326.46022 212.493648 
L 327.034627 213.694776 
L 327.609033 215.681971 
L 328.757846 221.39599 
L 330.481065 230.820076 
L 331.055472 233.129618 
L 331.629878 234.615607 
L 332.204285 235.093577 
L 332.778691 234.439444 
L 333.353098 232.599106 
L 333.927504 229.593448 
L 334.501911 225.518416 
L 335.650724 214.885322 
L 337.94835 191.316861 
L 338.522756 186.705469 
L 339.097163 183.132739 
L 339.671569 180.773672 
L 340.245976 179.732577 
L 340.820382 180.036661 
L 341.394789 181.63453 
L 341.969195 184.399725 
L 343.118008 192.605077 
L 345.415634 211.842846 
L 345.990041 215.55129 
L 346.564447 218.355456 
L 347.138854 220.122375 
L 347.71326 220.791018 
L 348.287666 220.375039 
L 348.862073 218.960542 
L 349.436479 216.699031 
L 350.585292 210.496111 
L 352.308512 200.870282 
L 352.882918 198.576246 
L 353.457325 197.05874 
L 354.031731 196.42386 
L 354.606138 196.707641 
L 355.180544 197.872792 
L 355.754951 199.810389 
L 356.903764 205.252836 
L 358.052577 211.084886 
L 358.626983 213.428859 
L 359.20139 215.018315 
L 359.775796 215.612562 
L 360.350203 215.022269 
L 360.924609 213.122578 
L 361.499016 209.862099 
L 362.073422 205.267216 
L 363.222235 192.559517 
L 364.945455 168.15577 
L 366.668674 144.590916 
L 367.817487 133.089718 
L 368.391893 129.13019 
L 368.9663 126.435794 
L 369.540706 124.963967 
L 370.115113 124.599413 
L 370.689519 125.162946 
L 371.263926 126.424427 
L 373.561552 133.020442 
L 374.135958 133.755258 
L 374.710365 133.725216 
L 375.284771 132.831214 
L 375.859178 131.04533 
L 376.433584 128.412466 
L 377.582397 121.124952 
L 379.880023 104.768309 
L 380.45443 101.837674 
L 381.028836 99.837015 
L 381.603243 98.919969 
L 382.177649 99.173713 
L 382.752056 100.611856 
L 383.326462 103.172147 
L 383.900869 106.71919 
L 385.049682 115.915792 
L 386.772901 130.682564 
L 387.347307 134.636862 
L 387.921714 137.649959 
L 388.49612 139.517906 
L 389.070527 140.103024 
L 389.644933 139.342413 
L 390.21934 137.251689 
L 390.793746 133.923688 
L 391.942559 124.271495 
L 394.814592 95.309048 
L 395.388998 90.949531 
L 395.963405 87.565114 
L 396.537811 85.24933 
L 397.112218 84.021828 
L 397.686624 83.82841 
L 398.261031 84.545985 
L 398.835437 85.992118 
L 399.98425 90.127518 
L 401.133063 94.167384 
L 401.70747 95.524375 
L 402.281876 96.171526 
L 402.856283 95.97611 
L 403.430689 94.87263 
L 404.005096 92.868208 
L 404.579502 90.043086 
L 405.728315 82.585898 
L 407.451534 70.604548 
L 408.025941 67.545279 
L 408.600347 65.407946 
L 409.174754 64.409203 
L 409.74916 64.706495 
L 410.323567 66.38712 
L 410.897973 69.461765 
L 411.47238 73.862945 
L 412.621193 86.009673 
L 416.067632 129.563068 
L 416.642038 134.800104 
L 417.216445 138.896331 
L 417.790851 141.782946 
L 418.365258 143.468032 
L 418.939664 144.034626 
L 419.514071 143.633918 
L 420.088477 142.474062 
L 421.23729 138.902586 
L 422.386103 135.503439 
L 422.96051 134.508965 
L 423.534916 134.250223 
L 424.109323 134.854137 
L 424.683729 136.378733 
L 425.258135 138.809341 
L 425.832542 142.059732 
L 426.981355 150.357689 
L 428.704574 163.686795 
L 429.278981 167.291233 
L 429.853387 170.069666 
L 430.427794 171.841427 
L 431.0022 172.487908 
L 431.576607 171.961679 
L 432.151013 170.29096 
L 432.72542 167.579136 
L 433.874233 159.784276 
L 435.597452 146.236447 
L 436.171859 142.455386 
L 436.746265 139.525038 
L 437.320672 137.676024 
L 437.895078 137.077967 
L 438.469485 137.829 
L 439.043891 139.949843 
L 439.618298 143.382827 
L 440.192704 147.995941 
L 441.341517 159.9196 
L 443.639143 186.671561 
L 444.787956 197.040554 
L 445.362362 200.785444 
L 445.936769 203.476561 
L 446.511175 205.135674 
L 447.085582 205.856015 
L 447.659988 205.794699 
L 448.234395 205.160888 
L 449.957614 202.359734 
L 450.532021 201.99037 
L 451.106427 202.279802 
L 451.680834 203.385649 
L 452.25524 205.401988 
L 452.829647 208.351899 
L 453.404053 212.184791 
L 454.552866 221.947372 
L 456.850492 243.133061 
L 457.424899 247.111331 
L 457.999305 250.034953 
L 458.573712 251.715639 
L 459.148118 252.030983 
L 459.722525 250.933009 
L 460.296931 248.451962 
L 460.871338 244.695088 
L 462.020151 234.12637 
L 464.892183 203.174731 
L 465.466589 198.572691 
L 466.040996 195.023444 
L 466.615402 192.628817 
L 467.189809 191.414731 
L 467.764215 191.330896 
L 468.338622 192.255483 
L 468.913028 194.00443 
L 470.061841 199.011016 
L 471.210654 204.20879 
L 471.785061 206.215978 
L 472.359467 207.536287 
L 472.933874 208.01599 
L 473.50828 207.567069 
L 474.082687 206.173134 
L 474.657093 203.890458 
L 475.805906 197.219199 
L 478.103532 181.950775 
L 478.677939 179.276179 
L 479.252345 177.520641 
L 479.826752 176.832016 
L 480.401158 177.290301 
L 480.975565 178.901029 
L 481.549971 181.593539 
L 482.124378 185.224242 
L 483.273191 194.413879 
L 484.99641 208.665295 
L 485.570816 212.30725 
L 486.145223 214.940535 
L 486.719629 216.365146 
L 487.294036 216.448347 
L 487.868442 215.132707 
L 488.442849 212.439321 
L 489.017255 208.466004 
L 490.166068 197.409748 
L 493.612507 158.920844 
L 494.186914 154.481671 
L 494.76132 151.033182 
L 495.335727 148.585722 
L 495.910133 147.076536 
L 496.48454 146.375296 
L 497.058946 146.294131 
L 497.633353 146.601511 
L 498.782166 147.340032 
L 499.356572 147.24865 
L 499.930979 146.538287 
L 500.505385 145.028014 
L 501.079792 142.595946 
L 501.654198 139.188668 
L 502.228605 134.826053 
L 503.377417 123.675212 
L 506.24945 92.425867 
L 506.823856 87.858879 
L 507.398263 84.441316 
L 507.972669 82.328928 
L 508.547076 81.606219 
L 509.121482 82.280464 
L 509.695889 84.280675 
L 510.270295 87.461571 
L 511.419108 96.469458 
L 513.716734 116.817733 
L 514.291141 120.647663 
L 514.865547 123.502069 
L 515.439954 125.247561 
L 516.01436 125.824703 
L 516.588767 125.250548 
L 517.163173 123.616158 
L 517.73758 121.079309 
L 518.886393 114.189615 
L 520.609612 103.325891 
L 521.184019 100.602786 
L 521.758425 98.665426 
L 522.332831 97.630977 
L 522.907238 97.546994 
L 523.481644 98.388219 
L 524.056051 100.058322 
L 525.204864 105.188409 
L 526.928083 113.666761 
L 527.50249 115.622356 
L 528.076896 116.740575 
L 528.651303 116.846669 
L 529.225709 115.829556 
L 529.800116 113.650467 
L 530.374522 110.346879 
L 531.523335 100.886138 
L 534.395368 72.305086 
L 534.969774 68.145447 
L 535.544181 65.125063 
L 536.118587 63.410142 
L 536.692994 63.094694 
L 537.2674 64.195098 
L 537.841807 66.649655 
L 538.416213 70.323132 
L 539.565026 80.477702 
L 542.437058 109.193171 
L 543.011465 113.392463 
L 543.585871 116.67524 
L 544.160278 118.999932 
L 544.734684 120.398752 
L 545.309091 120.974303 
L 545.883497 120.891476 
L 546.457904 120.365161 
L 547.606717 118.995512 
L 548.181123 118.68092 
L 548.75553 118.942404 
L 549.329936 119.982593 
L 549.904343 121.950323 
L 550.478749 124.929379 
L 551.053156 128.931585 
L 552.201969 139.68535 
L 555.648408 178.104392 
L 556.222814 182.482455 
L 556.797221 185.646877 
L 557.371627 187.478286 
L 557.946034 187.932517 
L 558.52044 187.043895 
L 559.094847 184.923494 
L 559.669253 181.752485 
L 560.818066 173.263218 
L 562.541285 159.703081 
L 563.115692 156.168291 
L 563.690098 153.538874 
L 564.264505 151.978392 
L 564.838911 151.579351 
L 565.413318 152.358472 
L 565.987724 154.256946 
L 566.562131 157.145631 
L 567.710944 165.08794 
L 569.434163 178.52477 
L 570.582976 185.46946 
L 571.157383 187.750805 
L 571.731789 189.112018 
L 572.306196 189.54717 
L 572.880602 189.122774 
L 573.455009 187.973281 
L 574.603822 184.317724 
L 575.752635 180.57445 
L 576.327041 179.355463 
L 576.901448 178.905576 
L 577.475854 179.424183 
L 578.050261 181.052015 
L 578.624667 183.860568 
L 579.199074 187.846012 
L 580.347887 198.95353 
L 582.071106 220.279258 
L 583.219919 234.192232 
L 584.368732 245.034622 
L 584.943138 248.710405 
L 585.517545 251.027042 
L 586.091951 251.930609 
L 586.666358 251.445573 
L 587.240764 249.672479 
L 587.815171 246.780759 
L 588.963984 238.590585 
L 591.26161 220.559984 
L 591.836016 217.255424 
L 592.410423 214.79903 
L 592.984829 213.262504 
L 593.559236 212.644026 
L 594.133642 212.869467 
L 594.708049 213.798465 
L 595.856862 216.94144 
L 597.005675 220.111329 
L 597.580081 221.053177 
L 598.154488 221.259257 
L 598.728894 220.555039 
L 599.303301 218.826774 
L 599.877707 216.030407 
L 600.452113 212.195832 
L 601.600926 201.892309 
L 604.472959 171.898047 
L 605.047365 167.464089 
L 605.621772 164.138972 
L 606.196178 162.074697 
L 606.770585 161.351062 
L 607.344991 161.97018 
L 607.919398 163.85596 
L 608.493804 166.858593 
L 609.642617 175.305901 
L 611.365837 189.692954 
L 611.940243 193.720693 
L 612.51465 196.919703 
L 613.089056 199.097758 
L 613.663463 200.129874 
L 614.237869 199.965162 
L 614.812276 198.628801 
L 615.386682 196.219017 
L 615.961089 192.899283 
L 617.109902 184.434412 
L 618.833121 171.172873 
L 619.407528 167.621777 
L 619.981934 164.828135 
L 620.55634 162.898671 
L 621.130747 161.869859 
L 621.705153 161.705317 
L 622.27956 162.298152 
L 622.853966 163.478119 
L 624.577186 168.153308 
L 625.151592 169.182265 
L 625.725999 169.501968 
L 626.300405 168.890481 
L 626.874812 167.178775 
L 627.449218 164.263094 
L 628.023625 160.113113 
L 628.598031 154.775339 
L 629.746844 141.09212 
L 633.193283 94.908224 
L 633.76769 89.559942 
L 634.342096 85.488579 
L 634.916503 82.78469 
L 635.490909 81.461163 
L 636.065316 81.45329 
L 636.639722 82.623816 
L 637.214129 84.772612 
L 638.362942 90.975218 
L 640.086161 100.725148 
L 640.660567 103.033673 
L 641.234974 104.548395 
L 641.80938 105.168515 
L 642.383787 104.865561 
L 642.958193 103.684364 
L 643.5326 101.739102 
L 644.681413 96.303869 
L 645.830226 90.436588 
L 646.404632 88.002301 
L 646.979039 86.228228 
L 647.553445 85.312627 
L 648.127852 85.398056 
L 648.702258 86.560572 
L 649.276665 88.80337 
L 649.851071 92.055266 
L 650.999884 100.955274 
L 653.29751 121.196966 
L 653.871917 125.056732 
L 654.446323 127.908992 
L 655.02073 129.571564 
L 655.595136 129.930533 
L 656.169543 128.947854 
L 656.743949 126.664131 
L 657.318356 123.196358 
L 658.467169 113.51129 
L 660.764794 91.073503 
L 661.339201 86.579864 
L 661.913607 83.034612 
L 662.488014 80.59415 
L 663.06242 79.343443 
L 663.636827 79.291852 
L 664.211233 80.373946 
L 664.78564 82.455211 
L 665.934453 88.797077 
L 667.657672 99.881339 
L 668.232079 102.950959 
L 668.806485 105.353863 
L 669.380892 106.956603 
L 669.955298 107.693319 
L 670.529705 107.570487 
L 671.104111 106.666745 
L 671.678518 105.127811 
L 673.976144 97.237809 
L 674.55055 96.185527 
L 675.124957 96.018941 
L 675.699363 96.933915 
L 676.27377 99.06585 
L 676.848176 102.479567 
L 677.422583 107.163728 
L 678.571395 119.918372 
L 680.294615 144.239293 
L 682.017834 167.626953 
L 683.166647 178.873326 
L 683.741054 182.624793 
L 684.31546 185.037185 
L 684.889867 186.139118 
L 685.464273 186.034456 
L 686.03868 184.894647 
L 686.613086 182.946755 
L 689.485119 170.809857 
L 690.059525 169.733846 
L 690.633932 169.53595 
L 691.208338 170.274925 
L 691.782745 171.936159 
L 692.357151 174.433471 
L 693.505964 181.277957 
L 695.229184 192.610694 
L 695.80359 195.625123 
L 696.377997 197.867232 
L 696.952403 199.16768 
L 697.526809 199.419542 
L 698.101216 198.586712 
L 698.675622 196.70759 
L 699.250029 193.893817 
L 700.398842 186.233523 
L 702.122061 173.710147 
L 702.696468 170.455332 
L 703.270874 168.117634 
L 703.845281 166.907028 
L 704.419687 166.970039 
L 704.994094 168.380104 
L 705.5685 171.132583 
L 706.142907 175.144762 
L 707.29172 186.261593 
L 710.163752 219.370865 
L 710.738159 224.548556 
L 711.312565 228.699643 
L 711.886972 231.705969 
L 712.461378 233.523517 
L 713.035785 234.183818 
L 713.610191 233.79039 
L 714.184598 232.51044 
L 714.759004 230.562405 
L 717.05663 221.313548 
L 717.631036 219.897035 
L 718.205443 219.224946 
L 718.779849 219.39121 
L 719.354256 220.41886 
L 719.928662 222.258032 
L 720.503069 224.788915 
L 723.375101 240.029681 
L 723.949508 241.71358 
L 724.523914 242.361236 
L 725.098321 241.806697 
L 725.672727 239.950819 
L 726.247134 236.768936 
L 726.82154 232.313732 
L 727.970353 220.163149 
L 731.416792 176.960286 
L 731.991199 171.868368 
L 732.565605 167.973867 
L 733.140012 165.361448 
L 733.714418 164.038224 
L 734.288825 163.934345 
L 734.863231 164.908552 
L 735.437638 166.758291 
L 736.58645 172.054745 
L 737.735263 177.575076 
L 738.30967 179.733803 
L 738.884076 181.192491 
L 739.458483 181.795028 
L 740.032889 181.45249 
L 740.607296 180.148442 
L 741.181702 177.93932 
L 741.756109 174.949886 
L 742.904922 167.411772 
L 744.628141 155.989908 
L 745.202548 153.186342 
L 745.776954 151.240266 
L 746.351361 150.287541 
L 746.925767 150.396188 
L 747.500174 151.560568 
L 748.07458 153.700447 
L 748.648987 156.665027 
L 749.7978 164.169011 
L 750.946613 171.88479 
L 751.521019 175.062137 
L 752.095426 177.406743 
L 752.669832 178.683132 
L 753.244239 178.713642 
L 753.818645 177.389972 
L 754.393052 174.680319 
L 754.967458 170.631633 
L 755.541865 165.366845 
L 756.690677 152.010497 
L 759.56271 115.505355 
L 760.711523 105.467786 
L 761.285929 102.11884 
L 761.860336 99.911608 
L 762.434742 98.774702 
L 763.009149 98.569045 
L 763.583555 99.098566 
L 764.157962 100.124622 
L 765.306775 102.603577 
L 765.881181 103.527714 
L 766.455588 103.928232 
L 767.029994 103.624627 
L 767.604401 102.496128 
L 768.178807 100.490513 
L 768.753214 97.628271 
L 769.902027 89.76984 
L 772.199653 71.607779 
L 772.774059 68.145008 
L 773.348466 65.635929 
L 773.922872 64.275155 
L 774.497279 64.195171 
L 775.071685 65.456653 
L 775.646091 68.043407 
L 776.220498 71.86226 
L 777.369311 82.472646 
L 780.241343 113.273329 
L 780.81575 117.767244 
L 781.390156 121.153554 
L 781.964563 123.31402 
L 782.538969 124.20643 
L 783.113376 123.86625 
L 783.687782 122.40326 
L 784.262189 119.99342 
L 785.411002 113.290321 
L 787.134221 102.727288 
L 787.708628 100.142898 
L 788.283034 98.370302 
L 788.857441 97.528025 
L 789.431847 97.663935 
L 790.006254 98.752677 
L 790.58066 100.698066 
L 791.729473 106.467393 
L 793.452693 116.189068 
L 794.027099 118.665118 
L 794.601506 120.374495 
L 795.175912 121.154807 
L 795.750318 120.907636 
L 796.324725 119.606423 
L 796.899131 117.299596 
L 797.473538 114.108724 
L 798.622351 105.882018 
L 800.34557 93.07556 
L 800.919977 89.890328 
L 801.494383 87.703827 
L 802.06879 86.72322 
L 802.643196 87.090943 
L 803.217603 88.875513 
L 803.792009 92.067047 
L 804.366416 96.577774 
L 805.515229 108.853854 
L 808.961668 151.890663 
L 809.536074 157.059441 
L 810.110481 161.167017 
L 810.684887 164.177449 
L 811.259294 166.129699 
L 811.8337 167.133521 
L 812.408107 167.360665 
L 812.982513 167.032011 
L 814.131326 165.737863 
L 814.705732 165.305605 
L 815.280139 165.346113 
L 815.854545 166.060553 
L 816.428952 167.595446 
L 817.003358 170.031976 
L 817.577765 173.379734 
L 818.726578 182.485843 
L 821.59861 209.61488 
L 822.173017 213.630582 
L 822.747423 216.59035 
L 823.32183 218.330284 
L 823.896236 218.754659 
L 824.470643 217.843118 
L 825.045049 215.653018 
L 825.619456 212.316758 
L 826.768269 203.061027 
L 829.065895 182.386333 
L 829.640301 178.541429 
L 830.214708 175.72424 
L 830.789114 174.084964 
L 831.363521 173.700278 
L 831.937927 174.569462 
L 832.512334 176.615533 
L 833.08674 179.691287 
L 834.235553 188.059096 
L 835.958772 202.061514 
L 837.107585 209.233895 
L 837.681992 211.571872 
L 838.256398 212.949851 
L 838.830805 213.361521 
L 839.405211 212.872961 
L 839.979618 211.617518 
L 841.128431 207.613658 
L 842.277244 203.303555 
L 842.85165 201.697897 
L 843.426057 200.77744 
L 844.000463 200.728612 
L 844.57487 201.678549 
L 845.149276 203.685254 
L 845.723683 206.732309 
L 846.298089 210.728517 
L 847.446902 220.86199 
L 849.170122 237.469376 
L 850.318935 245.963753 
L 850.893341 248.622623 
L 851.467748 249.969122 
L 852.042154 249.898294 
L 852.616561 248.382204 
L 853.190967 245.471668 
L 853.765373 241.292982 
L 854.914186 229.960866 
L 857.786219 197.577725 
L 858.360625 192.647578 
L 858.935032 188.690345 
L 859.509438 185.774146 
L 860.083845 183.892189 
L 860.658251 182.964715 
L 861.232658 182.845768 
L 861.807064 183.334348 
L 863.530284 185.93708 
L 864.10469 186.308962 
L 864.679097 186.041841 
L 865.253503 184.964625 
L 865.82791 182.967498 
L 866.402316 180.010204 
L 866.976723 176.125613 
L 868.125536 166.058509 
L 870.423162 143.090277 
L 870.997568 138.378641 
L 871.571975 134.604726 
L 872.146381 131.961134 
L 872.720787 130.576827 
L 873.295194 130.5079 
L 873.8696 131.733024 
L 874.444007 134.153881 
L 875.018413 137.600555 
L 876.167226 146.597862 
L 877.890446 160.82591 
L 878.464852 164.532183 
L 879.039259 167.28558 
L 879.613665 168.905506 
L 880.188072 169.281436 
L 880.762478 168.378964 
L 881.336885 166.240916 
L 881.911291 162.98347 
L 883.060104 153.886045 
L 885.35773 132.750385 
L 886.506543 124.887379 
L 887.08095 122.261086 
L 887.655356 120.578828 
L 888.229763 119.805271 
L 888.804169 119.835075 
L 889.378576 120.500636 
L 891.676202 124.747871 
L 892.250608 124.89998 
L 892.825014 124.22468 
L 893.399421 122.567702 
L 893.973827 119.840307 
L 894.548234 116.026655 
L 895.697047 105.452147 
L 897.420266 85.125675 
L 898.569079 71.873786 
L 899.717892 61.666756 
L 900.292299 58.313493 
L 900.866705 56.336023 
L 901.441112 55.8 
L 902.015518 56.692501 
L 902.589925 58.923058 
L 903.164331 62.329639 
L 904.313144 71.731977 
L 906.61077 92.7182 
L 907.185177 96.775314 
L 907.759583 99.941609 
L 908.33399 102.118207 
L 908.908396 103.280174 
L 909.482803 103.476799 
L 910.057209 102.826909 
L 910.631616 101.509589 
L 912.929241 94.435475 
L 913.503648 93.505305 
L 914.078054 93.351945 
L 914.652461 94.113055 
L 915.226867 95.859684 
L 915.801274 98.590583 
L 916.37568 102.231395 
L 917.524493 111.609351 
L 919.822119 131.756357 
L 920.396526 135.44354 
L 920.970932 138.100158 
L 921.545339 139.566348 
L 922.119745 139.751659 
L 922.694152 138.641762 
L 923.268558 136.300266 
L 923.842965 132.865516 
L 924.991778 123.590908 
L 926.714997 108.025228 
L 927.289404 103.643109 
L 927.86381 100.129848 
L 928.438217 97.694713 
L 929.012623 96.481272 
L 929.58703 96.559242 
L 930.161436 97.921146 
L 930.735843 100.483979 
L 931.310249 104.095755 
L 932.459062 113.582921 
L 934.756688 134.013186 
L 935.331094 137.93459 
L 935.905501 141.027121 
L 936.479907 143.222868 
L 937.054314 144.526572 
L 937.62872 145.014802 
L 938.203127 144.830258 
L 938.777533 144.171563 
L 939.926346 142.418789 
L 940.500753 141.862048 
L 941.075159 141.867972 
L 941.649566 142.664218 
L 942.223972 144.430708 
L 942.798379 147.286281 
L 943.372785 151.279329 
L 943.947192 156.383054 
L 945.096005 169.445587 
L 948.542444 213.512995 
L 949.11685 218.51006 
L 949.691257 222.214501 
L 950.265663 224.524046 
L 950.840069 225.413772 
L 951.414476 224.937337 
L 951.988882 223.223183 
L 952.563289 220.465986 
L 953.712102 212.852441 
L 955.435321 200.634001 
L 956.009728 197.478411 
L 956.584134 195.144866 
L 957.158541 193.761657 
L 957.732947 193.385031 
L 958.307354 193.996714 
L 958.88176 195.506427 
L 959.456167 197.759189 
L 960.60498 203.623582 
L 961.753793 209.576676 
L 962.328199 211.935127 
L 962.902606 213.583338 
L 963.477012 214.357335 
L 964.051419 214.15592 
L 964.625825 212.948411 
L 965.200232 210.777626 
L 965.774638 207.757904 
L 966.923451 199.941268 
L 968.646671 187.732574 
L 969.221077 184.680842 
L 969.795483 182.565643 
L 970.36989 181.575256 
L 970.944296 181.832894 
L 971.518703 183.387937 
L 972.093109 186.211886 
L 972.667516 190.199324 
L 973.816329 200.898446 
L 976.113955 225.319957 
L 976.688361 230.262789 
L 977.262768 234.210026 
L 977.837174 236.986385 
L 978.411581 238.487194 
L 978.985987 238.683913 
L 979.560394 237.624713 
L 980.1348 235.430071 
L 980.709207 232.283694 
L 981.85802 224.104708 
L 983.581239 211.249354 
L 984.155646 207.830567 
L 984.730052 205.157436 
L 985.304459 203.32653 
L 985.878865 202.363053 
L 986.453272 202.219481 
L 987.027678 202.779152 
L 987.602085 203.86456 
L 989.325304 207.871233 
L 989.89971 208.565852 
L 990.474117 208.515269 
L 991.048523 207.515496 
L 991.62293 205.41839 
L 992.197336 202.142884 
L 992.771743 197.681845 
L 993.920556 185.551378 
L 995.643775 162.362547 
L 996.218182 154.42908 
L 996.218182 154.42908 
" style="fill:none;stroke:#4c72b0;stroke-linecap:round;stroke-width:1.4;"/>
   </g>
   <g id="line2d_28">
    <path clip-path="url(#p27863b9e35)" d="M 184.581818 307.8 
L 732.565605 304.102215 
L 996.218182 302.400066 
L 996.218182 302.400066 
" style="fill:none;stroke:#55a868;stroke-linecap:round;stroke-width:1.4;"/>
   </g>
   <g id="patch_3">
    <path d="M 144 320.4 
L 144 43.2 
" style="fill:none;"/>
   </g>
   <g id="patch_4">
    <path d="M 1036.8 320.4 
L 1036.8 43.2 
" style="fill:none;"/>
   </g>
   <g id="patch_5">
    <path d="M 144 320.4 
L 1036.8 320.4 
" style="fill:none;"/>
   </g>
   <g id="patch_6">
    <path d="M 144 43.2 
L 1036.8 43.2 
" style="fill:none;"/>
   </g>
   <g id="legend_1">
    <g id="line2d_29">
     <path d="M 1002.75125 53.3975 
L 1018.75125 53.3975 
" style="fill:none;stroke:#4c72b0;stroke-linecap:round;stroke-width:1.4;"/>
    </g>
    <g id="line2d_30"/>
    <g id="text_14">
     <!-- a -->
     <defs>
      <path d="M 20.21875 -0.984375 
Q 12.25 -0.984375 8.25 3.21875 
Q 4.25 7.421875 4.25 14.75 
Q 4.25 19.96875 6.21875 23.3125 
Q 8.203125 26.65625 11.390625 28.5625 
Q 14.59375 30.46875 18.6875 31.203125 
Q 22.796875 31.9375 27.046875 32.03125 
L 38.921875 32.234375 
L 38.921875 35.109375 
Q 38.921875 38.375 38.234375 40.671875 
Q 37.546875 42.96875 36.125 44.375 
Q 34.71875 45.796875 32.59375 46.453125 
Q 30.46875 47.125 27.59375 47.125 
Q 25.046875 47.125 23 46.75 
Q 20.953125 46.390625 19.4375 45.4375 
Q 17.921875 44.484375 16.984375 42.84375 
Q 16.0625 41.21875 15.765625 38.71875 
L 6.59375 39.546875 
Q 7.078125 42.671875 8.4375 45.28125 
Q 9.8125 47.90625 12.328125 49.796875 
Q 14.84375 51.703125 18.625 52.75 
Q 22.40625 53.8125 27.78125 53.8125 
Q 37.75 53.8125 42.765625 49.234375 
Q 47.796875 44.671875 47.796875 36.03125 
L 47.796875 13.28125 
Q 47.796875 9.375 48.828125 7.390625 
Q 49.859375 5.421875 52.734375 5.421875 
Q 53.46875 5.421875 54.203125 5.515625 
Q 54.9375 5.609375 55.609375 5.765625 
L 55.609375 0.296875 
Q 53.953125 -0.09375 52.3125 -0.28125 
Q 50.6875 -0.484375 48.828125 -0.484375 
Q 46.34375 -0.484375 44.5625 0.171875 
Q 42.78125 0.828125 41.65625 2.171875 
Q 40.53125 3.515625 39.9375 5.484375 
Q 39.359375 7.46875 39.203125 10.109375 
L 38.921875 10.109375 
Q 37.5 7.5625 35.8125 5.515625 
Q 34.125 3.46875 31.875 2.03125 
Q 29.640625 0.59375 26.78125 -0.1875 
Q 23.921875 -0.984375 20.21875 -0.984375 
M 22.21875 5.609375 
Q 26.421875 5.609375 29.5625 7.140625 
Q 32.71875 8.6875 34.78125 11.078125 
Q 36.859375 13.484375 37.890625 16.3125 
Q 38.921875 19.140625 38.921875 21.734375 
L 38.921875 26.078125 
L 29.296875 25.875 
Q 26.078125 25.828125 23.171875 25.40625 
Q 20.265625 25 18.0625 23.78125 
Q 15.875 22.5625 14.578125 20.359375 
Q 13.28125 18.171875 13.28125 14.59375 
Q 13.28125 10.296875 15.59375 7.953125 
Q 17.921875 5.609375 22.21875 5.609375 
" id="LiberationSans-61"/>
     </defs>
     <g style="fill:#262626;" transform="translate(1025.15125 56.1975)scale(0.08 -0.08)">
      <use xlink:href="#LiberationSans-61"/>
     </g>
    </g>
    <g id="line2d_31">
     <path d="M 1002.75125 64.855 
L 1018.75125 64.855 
" style="fill:none;stroke:#55a868;stroke-linecap:round;stroke-width:1.4;"/>
    </g>
    <g id="line2d_32"/>
    <g id="text_15">
     <!-- b -->
     <defs>
      <path d="M 51.421875 26.65625 
Q 51.421875 -0.984375 31.984375 -0.984375 
Q 25.984375 -0.984375 22 1.1875 
Q 18.015625 3.375 15.53125 8.203125 
L 15.4375 8.203125 
Q 15.4375 6.9375 15.359375 5.5625 
Q 15.28125 4.203125 15.203125 3.03125 
Q 15.140625 1.859375 15.0625 1.03125 
Q 14.984375 0.203125 14.9375 0 
L 6.453125 0 
Q 6.5 0.4375 6.546875 1.484375 
Q 6.59375 2.546875 6.640625 4 
Q 6.6875 5.46875 6.703125 7.21875 
Q 6.734375 8.984375 6.734375 10.890625 
L 6.734375 72.46875 
L 15.53125 72.46875 
L 15.53125 51.8125 
Q 15.53125 50.34375 15.5 49 
Q 15.484375 47.65625 15.4375 46.625 
Q 15.375 45.40625 15.328125 44.34375 
L 15.53125 44.34375 
Q 17.96875 49.421875 22 51.609375 
Q 26.03125 53.8125 31.984375 53.8125 
Q 42 53.8125 46.703125 47.0625 
Q 51.421875 40.328125 51.421875 26.65625 
M 42.1875 26.375 
Q 42.1875 31.84375 41.5 35.75 
Q 40.828125 39.65625 39.3125 42.15625 
Q 37.796875 44.671875 35.453125 45.84375 
Q 33.109375 47.015625 29.734375 47.015625 
Q 26.265625 47.015625 23.609375 45.890625 
Q 20.953125 44.78125 19.171875 42.28125 
Q 17.390625 39.796875 16.453125 35.734375 
Q 15.53125 31.6875 15.53125 25.828125 
Q 15.53125 20.171875 16.453125 16.3125 
Q 17.390625 12.453125 19.171875 10.03125 
Q 20.953125 7.625 23.578125 6.5625 
Q 26.21875 5.515625 29.640625 5.515625 
Q 32.859375 5.515625 35.203125 6.640625 
Q 37.546875 7.765625 39.109375 10.25 
Q 40.671875 12.75 41.421875 16.71875 
Q 42.1875 20.703125 42.1875 26.375 
" id="LiberationSans-62"/>
     </defs>
     <g style="fill:#262626;" transform="translate(1025.15125 67.655)scale(0.08 -0.08)">
      <use xlink:href="#LiberationSans-62"/>
     </g>
    </g>
   </g>
  </g>
 </g>
 <defs>
  <clipPath id="p27863b9e35">
   <rect height="277.2" width="892.8" x="144" y="43.2"/>
  </clipPath>
 </defs>
</svg>
