<?xml version="1.0" encoding="utf-8" standalone="no"?>
<!DOCTYPE svg PUBLIC "-//W3C//DTD SVG 1.1//EN"
  "http://www.w3.org/Graphics/SVG/1.1/DTD/svg11.dtd">
<!-- Created with matplotlib (http://matplotlib.org/) -->
<svg height="360pt" version="1.1" viewBox="0 0 1152 360" width="1152pt" xmlns="http://www.w3.org/2000/svg" xmlns:xlink="http://www.w3.org/1999/xlink">
 <defs>
  <style type="text/css">
*{stroke-linecap:butt;stroke-linejoin:round;}
  </style>
 </defs>
 <g id="figure_1">
  <g id="patch_1">
   <path d="M 0 360 
L 1152 360 
L 1152 0 
L 0 0 
z
" style="fill:#ffffff;"/>
  </g>
  <g id="axes_1">
   <g id="patch_2">
    <path d="M 144 320.4 
L 1036.8 320.4 
L 1036.8 43.2 
L 144 43.2 
z
" style="fill:#eaeaf2;"/>
   </g>
   <g id="matplotlib.axis_1">
    <g id="xtick_1">
     <g id="line2d_1">
      <path clip-path="url(#p8dff6efb88)" d="M 184.581818 320.4 
L 184.581818 43.2 
" style="fill:none;stroke:#ffffff;stroke-linecap:round;stroke-width:0.8;"/>
     </g>
     <g id="line2d_2"/>
     <g id="text_1">
      <!-- 0 -->
      <defs>
       <path d="M 51.703125 34.421875 
Q 51.703125 24.515625 49.828125 17.75 
Q 47.953125 10.984375 44.703125 6.8125 
Q 41.453125 2.640625 37.0625 0.828125 
Q 32.671875 -0.984375 27.6875 -0.984375 
Q 22.65625 -0.984375 18.3125 0.828125 
Q 13.96875 2.640625 10.765625 6.78125 
Q 7.5625 10.9375 5.734375 17.703125 
Q 3.90625 24.46875 3.90625 34.421875 
Q 3.90625 44.828125 5.734375 51.640625 
Q 7.5625 58.453125 10.78125 62.5 
Q 14.015625 66.546875 18.40625 68.1875 
Q 22.796875 69.828125 27.984375 69.828125 
Q 32.90625 69.828125 37.21875 68.1875 
Q 41.546875 66.546875 44.765625 62.5 
Q 48 58.453125 49.84375 51.640625 
Q 51.703125 44.828125 51.703125 34.421875 
M 42.78125 34.421875 
Q 42.78125 42.625 41.796875 48.0625 
Q 40.828125 53.515625 38.921875 56.765625 
Q 37.015625 60.015625 34.25 61.359375 
Q 31.5 62.703125 27.984375 62.703125 
Q 24.265625 62.703125 21.4375 61.328125 
Q 18.609375 59.96875 16.671875 56.71875 
Q 14.75 53.46875 13.765625 48.015625 
Q 12.796875 42.578125 12.796875 34.421875 
Q 12.796875 26.515625 13.796875 21.09375 
Q 14.796875 15.671875 16.71875 12.375 
Q 18.65625 9.078125 21.4375 7.640625 
Q 24.21875 6.203125 27.78125 6.203125 
Q 31.25 6.203125 34.03125 7.640625 
Q 36.8125 9.078125 38.734375 12.375 
Q 40.671875 15.671875 41.71875 21.09375 
Q 42.78125 26.515625 42.78125 34.421875 
" id="LiberationSans-30"/>
      </defs>
      <g style="fill:#262626;" transform="translate(182.357443 331.7975)scale(0.08 -0.08)">
       <use xlink:href="#LiberationSans-30"/>
      </g>
     </g>
    </g>
    <g id="xtick_2">
     <g id="line2d_3">
      <path clip-path="url(#p8dff6efb88)" d="M 299.625952 320.4 
L 299.625952 43.2 
" style="fill:none;stroke:#ffffff;stroke-linecap:round;stroke-width:0.8;"/>
     </g>
     <g id="line2d_4"/>
     <g id="text_2">
      <!-- 200 -->
      <defs>
       <path d="M 5.03125 0 
L 5.03125 6.203125 
Q 7.515625 11.921875 11.109375 16.28125 
Q 14.703125 20.65625 18.65625 24.1875 
Q 22.609375 27.734375 26.484375 30.765625 
Q 30.375 33.796875 33.5 36.8125 
Q 36.625 39.84375 38.546875 43.15625 
Q 40.484375 46.484375 40.484375 50.6875 
Q 40.484375 53.609375 39.59375 55.828125 
Q 38.71875 58.0625 37.0625 59.5625 
Q 35.40625 61.078125 33.078125 61.828125 
Q 30.765625 62.59375 27.9375 62.59375 
Q 25.296875 62.59375 22.96875 61.859375 
Q 20.65625 61.140625 18.84375 59.671875 
Q 17.046875 58.203125 15.890625 56.03125 
Q 14.75 53.859375 14.40625 50.984375 
L 5.421875 51.8125 
Q 5.859375 55.515625 7.46875 58.78125 
Q 9.078125 62.0625 11.90625 64.53125 
Q 14.75 67 18.71875 68.40625 
Q 22.703125 69.828125 27.9375 69.828125 
Q 33.0625 69.828125 37.0625 68.609375 
Q 41.0625 67.390625 43.8125 64.984375 
Q 46.578125 62.59375 48.046875 59.078125 
Q 49.515625 55.5625 49.515625 50.984375 
Q 49.515625 47.515625 48.265625 44.390625 
Q 47.015625 41.265625 44.9375 38.421875 
Q 42.875 35.59375 40.140625 32.953125 
Q 37.40625 30.328125 34.421875 27.8125 
Q 31.453125 25.296875 28.421875 22.828125 
Q 25.390625 20.359375 22.71875 17.859375 
Q 20.0625 15.375 17.96875 12.8125 
Q 15.875 10.25 14.703125 7.46875 
L 50.59375 7.46875 
L 50.59375 0 
z
" id="LiberationSans-32"/>
      </defs>
      <g style="fill:#262626;" transform="translate(292.952827 331.7975)scale(0.08 -0.08)">
       <use xlink:href="#LiberationSans-32"/>
       <use x="55.615234" xlink:href="#LiberationSans-30"/>
       <use x="111.230469" xlink:href="#LiberationSans-30"/>
      </g>
     </g>
    </g>
    <g id="xtick_3">
     <g id="line2d_5">
      <path clip-path="url(#p8dff6efb88)" d="M 414.670086 320.4 
L 414.670086 43.2 
" style="fill:none;stroke:#ffffff;stroke-linecap:round;stroke-width:0.8;"/>
     </g>
     <g id="line2d_6"/>
     <g id="text_3">
      <!-- 400 -->
      <defs>
       <path d="M 43.015625 15.578125 
L 43.015625 0 
L 34.71875 0 
L 34.71875 15.578125 
L 2.296875 15.578125 
L 2.296875 22.40625 
L 33.796875 68.796875 
L 43.015625 68.796875 
L 43.015625 22.515625 
L 52.6875 22.515625 
L 52.6875 15.578125 
z
M 34.71875 58.890625 
Q 34.625 58.640625 34.234375 57.9375 
Q 33.84375 57.234375 33.34375 56.34375 
Q 32.859375 55.46875 32.34375 54.5625 
Q 31.84375 53.65625 31.453125 53.078125 
L 13.8125 27.09375 
Q 13.578125 26.703125 13.109375 26.0625 
Q 12.640625 25.4375 12.15625 24.78125 
Q 11.671875 24.125 11.171875 23.484375 
Q 10.6875 22.859375 10.40625 22.515625 
L 34.71875 22.515625 
z
" id="LiberationSans-34"/>
      </defs>
      <g style="fill:#262626;" transform="translate(407.996961 331.7975)scale(0.08 -0.08)">
       <use xlink:href="#LiberationSans-34"/>
       <use x="55.615234" xlink:href="#LiberationSans-30"/>
       <use x="111.230469" xlink:href="#LiberationSans-30"/>
      </g>
     </g>
    </g>
    <g id="xtick_4">
     <g id="line2d_7">
      <path clip-path="url(#p8dff6efb88)" d="M 529.714219 320.4 
L 529.714219 43.2 
" style="fill:none;stroke:#ffffff;stroke-linecap:round;stroke-width:0.8;"/>
     </g>
     <g id="line2d_8"/>
     <g id="text_4">
      <!-- 600 -->
      <defs>
       <path d="M 51.21875 22.515625 
Q 51.21875 17.328125 49.78125 13 
Q 48.34375 8.6875 45.53125 5.578125 
Q 42.71875 2.484375 38.5625 0.75 
Q 34.421875 -0.984375 29 -0.984375 
Q 23 -0.984375 18.5 1.3125 
Q 14.015625 3.609375 11.03125 7.921875 
Q 8.0625 12.25 6.5625 18.53125 
Q 5.078125 24.8125 5.078125 32.8125 
Q 5.078125 42 6.765625 48.921875 
Q 8.453125 55.859375 11.625 60.5 
Q 14.796875 65.140625 19.359375 67.484375 
Q 23.921875 69.828125 29.6875 69.828125 
Q 33.203125 69.828125 36.28125 69.09375 
Q 39.359375 68.359375 41.875 66.71875 
Q 44.390625 65.09375 46.28125 62.40625 
Q 48.1875 59.71875 49.3125 55.8125 
L 40.921875 54.296875 
Q 39.546875 58.734375 36.546875 60.71875 
Q 33.546875 62.703125 29.59375 62.703125 
Q 25.984375 62.703125 23.046875 60.984375 
Q 20.125 59.28125 18.0625 55.875 
Q 16.015625 52.484375 14.90625 47.359375 
Q 13.8125 42.234375 13.8125 35.40625 
Q 16.21875 39.84375 20.5625 42.15625 
Q 24.90625 44.484375 30.515625 44.484375 
Q 35.203125 44.484375 39.015625 42.96875 
Q 42.828125 41.453125 45.53125 38.59375 
Q 48.25 35.75 49.734375 31.671875 
Q 51.21875 27.59375 51.21875 22.515625 
M 42.28125 22.125 
Q 42.28125 25.6875 41.40625 28.5625 
Q 40.53125 31.453125 38.765625 33.46875 
Q 37.015625 35.5 34.421875 36.59375 
Q 31.84375 37.703125 28.421875 37.703125 
Q 26.03125 37.703125 23.578125 36.984375 
Q 21.140625 36.28125 19.15625 34.6875 
Q 17.1875 33.109375 15.9375 30.515625 
Q 14.703125 27.9375 14.703125 24.21875 
Q 14.703125 20.40625 15.671875 17.109375 
Q 16.65625 13.8125 18.484375 11.375 
Q 20.3125 8.9375 22.890625 7.515625 
Q 25.484375 6.109375 28.71875 6.109375 
Q 31.890625 6.109375 34.40625 7.203125 
Q 36.921875 8.296875 38.671875 10.375 
Q 40.4375 12.453125 41.359375 15.421875 
Q 42.28125 18.40625 42.28125 22.125 
" id="LiberationSans-36"/>
      </defs>
      <g style="fill:#262626;" transform="translate(523.041094 331.7975)scale(0.08 -0.08)">
       <use xlink:href="#LiberationSans-36"/>
       <use x="55.615234" xlink:href="#LiberationSans-30"/>
       <use x="111.230469" xlink:href="#LiberationSans-30"/>
      </g>
     </g>
    </g>
    <g id="xtick_5">
     <g id="line2d_9">
      <path clip-path="url(#p8dff6efb88)" d="M 644.758353 320.4 
L 644.758353 43.2 
" style="fill:none;stroke:#ffffff;stroke-linecap:round;stroke-width:0.8;"/>
     </g>
     <g id="line2d_10"/>
     <g id="text_5">
      <!-- 800 -->
      <defs>
       <path d="M 51.265625 19.1875 
Q 51.265625 14.796875 49.875 11.109375 
Q 48.484375 7.421875 45.625 4.734375 
Q 42.78125 2.046875 38.328125 0.53125 
Q 33.890625 -0.984375 27.828125 -0.984375 
Q 21.78125 -0.984375 17.359375 0.53125 
Q 12.9375 2.046875 10.03125 4.703125 
Q 7.125 7.375 5.734375 11.0625 
Q 4.34375 14.75 4.34375 19.09375 
Q 4.34375 22.859375 5.484375 25.78125 
Q 6.640625 28.71875 8.5625 30.828125 
Q 10.5 32.953125 12.96875 34.25 
Q 15.4375 35.546875 18.0625 35.984375 
L 18.0625 36.1875 
Q 15.1875 36.859375 12.90625 38.375 
Q 10.640625 39.890625 9.09375 42.015625 
Q 7.5625 44.140625 6.75 46.71875 
Q 5.953125 49.3125 5.953125 52.203125 
Q 5.953125 55.8125 7.34375 59 
Q 8.734375 62.203125 11.46875 64.625 
Q 14.203125 67.046875 18.25 68.4375 
Q 22.3125 69.828125 27.640625 69.828125 
Q 33.25 69.828125 37.375 68.40625 
Q 41.5 67 44.203125 64.578125 
Q 46.921875 62.15625 48.234375 58.9375 
Q 49.5625 55.71875 49.5625 52.09375 
Q 49.5625 49.265625 48.75 46.671875 
Q 47.953125 44.09375 46.40625 41.96875 
Q 44.875 39.84375 42.59375 38.34375 
Q 40.328125 36.859375 37.359375 36.28125 
L 37.359375 36.078125 
Q 40.328125 35.59375 42.859375 34.296875 
Q 45.40625 33.015625 47.265625 30.890625 
Q 49.125 28.765625 50.1875 25.828125 
Q 51.265625 22.90625 51.265625 19.1875 
M 40.4375 51.609375 
Q 40.4375 54.203125 39.765625 56.34375 
Q 39.109375 58.5 37.59375 60.03125 
Q 36.078125 61.578125 33.640625 62.421875 
Q 31.203125 63.28125 27.640625 63.28125 
Q 24.171875 63.28125 21.78125 62.421875 
Q 19.390625 61.578125 17.84375 60.03125 
Q 16.3125 58.5 15.625 56.34375 
Q 14.9375 54.203125 14.9375 51.609375 
Q 14.9375 49.5625 15.46875 47.40625 
Q 16.015625 45.265625 17.421875 43.5 
Q 18.84375 41.75 21.328125 40.625 
Q 23.828125 39.5 27.734375 39.5 
Q 31.890625 39.5 34.40625 40.625 
Q 36.921875 41.75 38.25 43.5 
Q 39.59375 45.265625 40.015625 47.40625 
Q 40.4375 49.5625 40.4375 51.609375 
M 42.140625 20.015625 
Q 42.140625 22.515625 41.453125 24.828125 
Q 40.765625 27.15625 39.109375 28.9375 
Q 37.453125 30.71875 34.640625 31.8125 
Q 31.84375 32.90625 27.640625 32.90625 
Q 23.78125 32.90625 21.0625 31.8125 
Q 18.359375 30.71875 16.671875 28.90625 
Q 14.984375 27.09375 14.203125 24.71875 
Q 13.421875 22.359375 13.421875 19.828125 
Q 13.421875 16.65625 14.203125 14.03125 
Q 14.984375 11.421875 16.6875 9.546875 
Q 18.40625 7.671875 21.1875 6.640625 
Q 23.96875 5.609375 27.9375 5.609375 
Q 31.9375 5.609375 34.671875 6.640625 
Q 37.40625 7.671875 39.0625 9.546875 
Q 40.71875 11.421875 41.421875 14.078125 
Q 42.140625 16.75 42.140625 20.015625 
" id="LiberationSans-38"/>
      </defs>
      <g style="fill:#262626;" transform="translate(638.085228 331.7975)scale(0.08 -0.08)">
       <use xlink:href="#LiberationSans-38"/>
       <use x="55.615234" xlink:href="#LiberationSans-30"/>
       <use x="111.230469" xlink:href="#LiberationSans-30"/>
      </g>
     </g>
    </g>
    <g id="xtick_6">
     <g id="line2d_11">
      <path clip-path="url(#p8dff6efb88)" d="M 759.802487 320.4 
L 759.802487 43.2 
" style="fill:none;stroke:#ffffff;stroke-linecap:round;stroke-width:0.8;"/>
     </g>
     <g id="line2d_12"/>
     <g id="text_6">
      <!-- 1000 -->
      <defs>
       <path d="M 7.625 0 
L 7.625 7.46875 
L 25.140625 7.46875 
L 25.140625 60.40625 
L 9.625 49.3125 
L 9.625 57.625 
L 25.875 68.796875 
L 33.984375 68.796875 
L 33.984375 7.46875 
L 50.734375 7.46875 
L 50.734375 0 
z
" id="LiberationSans-31"/>
      </defs>
      <g style="fill:#262626;" transform="translate(750.904987 331.7975)scale(0.08 -0.08)">
       <use xlink:href="#LiberationSans-31"/>
       <use x="55.615234" xlink:href="#LiberationSans-30"/>
       <use x="111.230469" xlink:href="#LiberationSans-30"/>
       <use x="166.845703" xlink:href="#LiberationSans-30"/>
      </g>
     </g>
    </g>
    <g id="xtick_7">
     <g id="line2d_13">
      <path clip-path="url(#p8dff6efb88)" d="M 874.846621 320.4 
L 874.846621 43.2 
" style="fill:none;stroke:#ffffff;stroke-linecap:round;stroke-width:0.8;"/>
     </g>
     <g id="line2d_14"/>
     <g id="text_7">
      <!-- 1200 -->
      <g style="fill:#262626;" transform="translate(865.949121 331.7975)scale(0.08 -0.08)">
       <use xlink:href="#LiberationSans-31"/>
       <use x="55.615234" xlink:href="#LiberationSans-32"/>
       <use x="111.230469" xlink:href="#LiberationSans-30"/>
       <use x="166.845703" xlink:href="#LiberationSans-30"/>
      </g>
     </g>
    </g>
    <g id="xtick_8">
     <g id="line2d_15">
      <path clip-path="url(#p8dff6efb88)" d="M 989.890754 320.4 
L 989.890754 43.2 
" style="fill:none;stroke:#ffffff;stroke-linecap:round;stroke-width:0.8;"/>
     </g>
     <g id="line2d_16"/>
     <g id="text_8">
      <!-- 1400 -->
      <g style="fill:#262626;" transform="translate(980.993254 331.7975)scale(0.08 -0.08)">
       <use xlink:href="#LiberationSans-31"/>
       <use x="55.615234" xlink:href="#LiberationSans-34"/>
       <use x="111.230469" xlink:href="#LiberationSans-30"/>
       <use x="166.845703" xlink:href="#LiberationSans-30"/>
      </g>
     </g>
    </g>
   </g>
   <g id="matplotlib.axis_2">
    <g id="ytick_1">
     <g id="line2d_17">
      <path clip-path="url(#p8dff6efb88)" d="M 144 294.411922 
L 1036.8 294.411922 
" style="fill:none;stroke:#ffffff;stroke-linecap:round;stroke-width:0.8;"/>
     </g>
     <g id="line2d_18"/>
     <g id="text_9">
      <!-- −6000 -->
      <defs>
       <path d="M 4.9375 29.6875 
L 4.9375 36.8125 
L 53.515625 36.8125 
L 53.515625 29.6875 
z
" id="LiberationSans-2212"/>
      </defs>
      <g style="fill:#262626;" transform="translate(115.9325 297.310672)scale(0.08 -0.08)">
       <use xlink:href="#LiberationSans-2212"/>
       <use x="58.398438" xlink:href="#LiberationSans-36"/>
       <use x="114.013672" xlink:href="#LiberationSans-30"/>
       <use x="169.628906" xlink:href="#LiberationSans-30"/>
       <use x="225.244141" xlink:href="#LiberationSans-30"/>
      </g>
     </g>
    </g>
    <g id="ytick_2">
     <g id="line2d_19">
      <path clip-path="url(#p8dff6efb88)" d="M 144 258.329835 
L 1036.8 258.329835 
" style="fill:none;stroke:#ffffff;stroke-linecap:round;stroke-width:0.8;"/>
     </g>
     <g id="line2d_20"/>
     <g id="text_10">
      <!-- −4000 -->
      <g style="fill:#262626;" transform="translate(115.9325 261.228585)scale(0.08 -0.08)">
       <use xlink:href="#LiberationSans-2212"/>
       <use x="58.398438" xlink:href="#LiberationSans-34"/>
       <use x="114.013672" xlink:href="#LiberationSans-30"/>
       <use x="169.628906" xlink:href="#LiberationSans-30"/>
       <use x="225.244141" xlink:href="#LiberationSans-30"/>
      </g>
     </g>
    </g>
    <g id="ytick_3">
     <g id="line2d_21">
      <path clip-path="url(#p8dff6efb88)" d="M 144 222.247749 
L 1036.8 222.247749 
" style="fill:none;stroke:#ffffff;stroke-linecap:round;stroke-width:0.8;"/>
     </g>
     <g id="line2d_22"/>
     <g id="text_11">
      <!-- −2000 -->
      <g style="fill:#262626;" transform="translate(115.9325 225.146499)scale(0.08 -0.08)">
       <use xlink:href="#LiberationSans-2212"/>
       <use x="58.398438" xlink:href="#LiberationSans-32"/>
       <use x="114.013672" xlink:href="#LiberationSans-30"/>
       <use x="169.628906" xlink:href="#LiberationSans-30"/>
       <use x="225.244141" xlink:href="#LiberationSans-30"/>
      </g>
     </g>
    </g>
    <g id="ytick_4">
     <g id="line2d_23">
      <path clip-path="url(#p8dff6efb88)" d="M 144 186.165662 
L 1036.8 186.165662 
" style="fill:none;stroke:#ffffff;stroke-linecap:round;stroke-width:0.8;"/>
     </g>
     <g id="line2d_24"/>
     <g id="text_12">
      <!-- 0 -->
      <g style="fill:#262626;" transform="translate(133.95125 189.064412)scale(0.08 -0.08)">
       <use xlink:href="#LiberationSans-30"/>
      </g>
     </g>
    </g>
    <g id="ytick_5">
     <g id="line2d_25">
      <path clip-path="url(#p8dff6efb88)" d="M 144 150.083575 
L 1036.8 150.083575 
" style="fill:none;stroke:#ffffff;stroke-linecap:round;stroke-width:0.8;"/>
     </g>
     <g id="line2d_26"/>
     <g id="text_13">
      <!-- 2000 -->
      <g style="fill:#262626;" transform="translate(120.605 152.982325)scale(0.08 -0.08)">
       <use xlink:href="#LiberationSans-32"/>
       <use x="55.615234" xlink:href="#LiberationSans-30"/>
       <use x="111.230469" xlink:href="#LiberationSans-30"/>
       <use x="166.845703" xlink:href="#LiberationSans-30"/>
      </g>
     </g>
    </g>
    <g id="ytick_6">
     <g id="line2d_27">
      <path clip-path="url(#p8dff6efb88)" d="M 144 114.001488 
L 1036.8 114.001488 
" style="fill:none;stroke:#ffffff;stroke-linecap:round;stroke-width:0.8;"/>
     </g>
     <g id="line2d_28"/>
     <g id="text_14">
      <!-- 4000 -->
      <g style="fill:#262626;" transform="translate(120.605 116.900238)scale(0.08 -0.08)">
       <use xlink:href="#LiberationSans-34"/>
       <use x="55.615234" xlink:href="#LiberationSans-30"/>
       <use x="111.230469" xlink:href="#LiberationSans-30"/>
       <use x="166.845703" xlink:href="#LiberationSans-30"/>
      </g>
     </g>
    </g>
    <g id="ytick_7">
     <g id="line2d_29">
      <path clip-path="url(#p8dff6efb88)" d="M 144 77.919402 
L 1036.8 77.919402 
" style="fill:none;stroke:#ffffff;stroke-linecap:round;stroke-width:0.8;"/>
     </g>
     <g id="line2d_30"/>
     <g id="text_15">
      <!-- 6000 -->
      <g style="fill:#262626;" transform="translate(120.605 80.818152)scale(0.08 -0.08)">
       <use xlink:href="#LiberationSans-36"/>
       <use x="55.615234" xlink:href="#LiberationSans-30"/>
       <use x="111.230469" xlink:href="#LiberationSans-30"/>
       <use x="166.845703" xlink:href="#LiberationSans-30"/>
      </g>
     </g>
    </g>
   </g>
   <g id="line2d_31">
    <path clip-path="url(#p8dff6efb88)" d="M 184.581818 186.165661 
L 187.457922 186.16796 
L 188.033142 185.937499 
L 188.608363 185.124317 
L 189.183584 184.049862 
L 189.758804 183.614406 
L 190.334025 184.823823 
L 190.909246 187.951408 
L 191.484466 191.909876 
L 192.059687 194.151349 
L 192.634908 192.263156 
L 193.210128 185.61513 
L 193.785349 176.540675 
L 194.36057 170.133976 
L 194.93579 171.579424 
L 195.511011 182.241681 
L 196.086232 197.645015 
L 196.661452 209.507164 
L 197.236673 210.744419 
L 197.811894 199.553343 
L 198.962335 163.611291 
L 199.537556 157.372337 
L 200.112776 165.132151 
L 201.263218 199.706565 
L 201.838438 209.116936 
L 202.413659 207.011727 
L 202.98888 195.696294 
L 203.5641 181.643981 
L 204.139321 172.247087 
L 204.714542 171.922024 
L 205.289762 179.776354 
L 205.864983 190.386977 
L 206.440204 197.100465 
L 207.015424 195.596689 
L 207.590645 186.198362 
L 208.165866 174.089132 
L 208.741086 167.306998 
L 209.316307 171.901782 
L 211.041969 214.727159 
L 211.61719 210.983823 
L 212.19241 194.411483 
L 212.767631 172.792071 
L 213.342852 157.112546 
L 213.918072 155.591506 
L 214.493293 168.346523 
L 215.643734 204.329024 
L 216.218955 210.440607 
L 216.794176 204.643118 
L 217.944617 176.5712 
L 218.519838 170.336342 
L 219.095058 175.801804 
L 220.2455 201.892887 
L 220.82072 204.513403 
L 221.395941 193.105077 
L 222.546382 150.858438 
L 223.121603 146.91214 
L 223.696824 167.03097 
L 224.847265 235.966338 
L 225.422486 246.559678 
L 225.997706 227.8439 
L 227.148148 143.814673 
L 227.723368 120.389822 
L 228.298589 129.324649 
L 230.024251 233.007427 
L 230.599472 236.244712 
L 231.174692 217.181463 
L 232.325134 162.489679 
L 232.900354 154.952312 
L 233.475575 165.74284 
L 234.050796 185.534732 
L 234.626016 201.397931 
L 235.201237 204.526212 
L 235.776458 193.431187 
L 236.351678 174.625131 
L 236.926899 160.120168 
L 237.50212 161.164023 
L 238.07734 178.713196 
L 238.652561 202.29504 
L 239.227782 218.650184 
L 239.803002 220.165812 
L 240.378223 207.888702 
L 241.528664 171.178137 
L 242.103885 161.35165 
L 242.679106 158.747245 
L 243.254326 160.68341 
L 243.829547 166.685484 
L 244.404768 178.03635 
L 246.13043 227.507074 
L 246.70565 226.685304 
L 247.280871 208.264677 
L 248.431312 153.841344 
L 249.006533 142.083816 
L 249.581754 147.209817 
L 250.156974 164.940374 
L 250.732195 186.732014 
L 251.307416 204.169613 
L 251.882636 212.729835 
L 252.457857 212.437029 
L 253.033078 205.754446 
L 254.183519 186.384572 
L 254.75874 179.51871 
L 255.33396 176.826229 
L 255.909181 176.686465 
L 256.484402 175.395195 
L 257.634843 167.765061 
L 258.210064 169.612698 
L 258.785284 180.217855 
L 259.935726 218.196632 
L 260.510946 228.550026 
L 261.086167 220.919026 
L 262.811829 148.470345 
L 263.38705 144.594949 
L 263.96227 156.220597 
L 265.112712 198.071885 
L 265.687932 210.287259 
L 266.263153 209.858964 
L 266.838374 200.079293 
L 267.413594 187.944303 
L 267.988815 180.571676 
L 268.564036 182.454637 
L 269.714477 206.519206 
L 270.289698 207.154792 
L 270.864918 186.034749 
L 271.440139 150.862227 
L 272.01536 123.473397 
L 272.590581 123.454634 
L 273.165801 156.957754 
L 274.316243 270.587822 
L 274.891463 291.976922 
L 275.466684 259.789536 
L 276.617125 118.136676 
L 277.192346 81.646862 
L 277.767567 92.951921 
L 278.342787 144.187221 
L 278.918008 210.613982 
L 279.493229 258.822356 
L 280.068449 265.489423 
L 280.64367 232.932917 
L 281.218891 185.082086 
L 281.794111 148.721476 
L 282.369332 139.115884 
L 282.944553 157.867925 
L 284.094994 222.836247 
L 284.670215 224.351154 
L 285.245435 195.053582 
L 285.820656 154.997955 
L 286.395877 129.978636 
L 286.971097 134.526062 
L 287.546318 167.601969 
L 288.121539 214.793911 
L 288.696759 251.669804 
L 289.27198 256.810419 
L 289.847201 228.303225 
L 290.997642 147.603834 
L 291.572863 131.161588 
L 292.148083 135.785146 
L 292.723304 154.817545 
L 293.873745 199.003488 
L 294.448966 213.165346 
L 295.024187 220.025994 
L 295.599407 219.072525 
L 296.174628 210.366098 
L 297.90029 170.069966 
L 298.475511 163.65477 
L 299.050731 160.847764 
L 299.625952 160.496505 
L 300.201173 164.200872 
L 300.776393 174.530398 
L 302.502055 226.920559 
L 303.077276 229.59785 
L 303.652497 215.038728 
L 304.802938 163.458122 
L 305.378159 148.431737 
L 305.953379 147.182936 
L 306.5286 157.406074 
L 308.254262 202.995917 
L 308.829483 211.660543 
L 309.404703 214.464662 
L 309.979924 210.326949 
L 310.555145 200.279332 
L 311.705586 176.122592 
L 312.280807 168.975939 
L 312.856027 166.398812 
L 313.431248 167.173314 
L 314.006469 170.680692 
L 314.581689 177.139926 
L 315.732131 194.795234 
L 316.307351 201.415666 
L 316.882572 203.130719 
L 317.457793 201.429684 
L 318.033013 200.324958 
L 318.608234 201.506051 
L 319.183455 200.876581 
L 319.758675 192.370247 
L 320.333896 172.845978 
L 321.484337 123.03085 
L 322.059558 125.506442 
L 322.634779 163.610749 
L 323.78522 273.365963 
L 324.360441 286.373374 
L 324.935661 254.434774 
L 326.086103 119.710757 
L 326.661323 80.905194 
L 327.236544 94.561362 
L 328.962206 258.13409 
L 329.537427 262.061084 
L 330.112647 229.675787 
L 330.687868 178.572782 
L 331.263089 137.947185 
L 331.838309 132.833451 
L 332.41353 164.449297 
L 332.988751 209.505721 
L 333.563971 238.651928 
L 334.139192 234.877381 
L 334.714413 198.034179 
L 335.289633 144.445929 
L 335.864854 105.226325 
L 336.440075 110.005939 
L 337.015295 160.751064 
L 337.590516 228.05065 
L 338.165737 274.473141 
L 338.740957 278.680493 
L 339.316178 241.055356 
L 340.466619 124.814929 
L 341.04184 102.801789 
L 341.617061 120.231241 
L 342.767502 202.19024 
L 343.342723 226.959528 
L 343.917943 229.88795 
L 344.493164 214.15183 
L 345.068385 190.563581 
L 345.643605 174.132412 
L 346.218826 174.295341 
L 347.369267 202.942912 
L 347.944488 205.436924 
L 348.519709 190.14447 
L 349.67015 130.802571 
L 350.245371 123.175179 
L 350.820591 151.699151 
L 351.971033 256.770368 
L 352.546253 276.852214 
L 353.121474 256.440036 
L 354.847136 101.330542 
L 355.422357 103.188228 
L 355.997577 143.069759 
L 356.572798 196.073388 
L 357.148019 235.492761 
L 357.723239 246.590348 
L 358.29846 228.477862 
L 359.448901 158.5515 
L 360.024122 148.57787 
L 360.599343 166.931564 
L 361.174563 199.096634 
L 361.749784 222.648079 
L 362.325005 222.682899 
L 362.900226 197.131369 
L 364.050667 123.679606 
L 364.625888 122.3581 
L 365.201108 157.242802 
L 365.776329 208.810419 
L 366.35155 248.700068 
L 366.92677 259.564384 
L 367.501991 240.36276 
L 368.652432 163.851417 
L 369.227653 139.587296 
L 369.802874 133.43512 
L 370.378094 140.746974 
L 370.953315 156.060934 
L 372.103756 199.916076 
L 372.678977 222.74965 
L 373.254198 237.962039 
L 373.829418 237.286402 
L 374.404639 217.295121 
L 375.55508 154.205051 
L 376.130301 137.549921 
L 376.705522 140.206284 
L 377.280742 158.98665 
L 378.431184 206.998918 
L 379.006404 215.780035 
L 379.581625 210.17342 
L 380.732066 183.315267 
L 381.307287 178.178026 
L 381.882508 183.745889 
L 382.457728 196.862954 
L 383.032949 206.890671 
L 383.60817 201.505799 
L 384.18339 178.308842 
L 384.758611 150.08574 
L 385.333832 135.050695 
L 385.909052 143.616944 
L 386.484273 174.225973 
L 387.059494 214.882853 
L 387.634714 246.097828 
L 388.209935 250.297422 
L 388.785156 225.564594 
L 389.935597 153.644697 
L 390.510818 137.607652 
L 391.086038 140.698624 
L 391.661259 157.906532 
L 392.8117 198.523127 
L 393.386921 207.532752 
L 393.962142 206.975645 
L 395.112583 194.84371 
L 395.687804 192.667798 
L 396.263024 196.271443 
L 396.838245 202.424936 
L 397.413466 201.203774 
L 397.988686 183.558316 
L 399.139128 129.102924 
L 399.714348 126.730166 
L 400.289569 152.948493 
L 401.44001 251.916786 
L 402.015231 278.09019 
L 402.590452 260.994497 
L 404.316114 107.405142 
L 404.891334 105.915854 
L 405.466555 139.71647 
L 406.616996 236.585868 
L 407.192217 249.321942 
L 407.767438 226.023378 
L 408.917879 150.295738 
L 409.4931 141.713253 
L 410.06832 163.13176 
L 411.218762 242.016402 
L 411.793982 246.019169 
L 412.369203 207.840893 
L 412.944424 148.737713 
L 413.519644 104.588754 
L 414.094865 99.957258 
L 414.670086 137.817109 
L 415.820527 262.602315 
L 416.395748 286.300308 
L 416.970968 261.900519 
L 418.12141 153.304803 
L 418.69663 121.357904 
L 419.271851 118.026806 
L 419.847072 137.991385 
L 420.997513 197.487138 
L 421.572734 215.102954 
L 422.147954 220.886552 
L 422.723175 217.729008 
L 423.298396 208.807713 
L 424.448837 186.302699 
L 425.024058 178.388024 
L 426.174499 169.042114 
L 426.74972 165.76918 
L 427.32494 165.668872 
L 427.900161 171.236662 
L 428.475382 182.286423 
L 429.625823 207.03969 
L 430.201044 211.503766 
L 430.776264 208.43733 
L 432.501926 184.907223 
L 434.227588 157.94081 
L 434.802809 155.017079 
L 435.37803 163.406886 
L 437.103692 220.781553 
L 437.678912 223.477607 
L 438.254133 214.16464 
L 439.979795 169.467035 
L 440.555016 160.97369 
L 441.130236 156.831467 
L 441.705457 158.735699 
L 442.280678 167.834699 
L 444.00634 209.042246 
L 444.58156 213.107976 
L 445.156781 211.38235 
L 445.732002 207.454634 
L 446.307222 201.575996 
L 446.882443 191.527225 
L 447.457664 175.311791 
L 448.608105 133.745606 
L 449.183326 128.99125 
L 449.758546 151.243975 
L 450.908988 243.559272 
L 451.484208 267.819965 
L 452.059429 257.407036 
L 452.63465 216.036217 
L 453.20987 160.459701 
L 453.785091 116.875246 
L 454.360312 108.172969 
L 454.935533 137.723295 
L 456.085974 228.782756 
L 456.661195 243.669142 
L 457.236415 226.373735 
L 458.386857 143.969285 
L 458.962077 130.804195 
L 459.537298 159.068556 
L 460.687739 255.846666 
L 461.26296 262.964399 
L 461.838181 225.903586 
L 462.988622 91.539487 
L 463.563843 68.74066 
L 464.139063 109.300353 
L 465.289505 269.557859 
L 465.864725 305.194513 
L 466.439946 286.385462 
L 467.015167 225.062873 
L 467.590387 151.274104 
L 468.165608 101.19361 
L 468.740829 96.911569 
L 469.316049 132.008615 
L 469.89127 181.083157 
L 470.466491 219.381748 
L 471.041711 233.838939 
L 471.616932 223.07908 
L 472.767373 171.574427 
L 473.342594 165.557739 
L 473.917815 181.195282 
L 474.493035 204.901646 
L 475.068256 218.672735 
L 475.643477 212.082703 
L 476.218697 185.373144 
L 476.793918 149.247192 
L 477.369139 123.836924 
L 477.944359 128.816252 
L 478.51958 165.675006 
L 479.094801 214.544584 
L 479.670021 249.698459 
L 480.245242 256.037721 
L 480.820463 232.98253 
L 481.970904 152.390664 
L 482.546125 132.360415 
L 483.121345 138.528828 
L 484.847007 207.937413 
L 485.422228 210.194708 
L 485.997449 197.618333 
L 486.572669 178.378372 
L 487.14789 167.622536 
L 487.723111 176.853236 
L 488.873552 226.950327 
L 489.448773 232.44166 
L 490.023993 211.743171 
L 491.174435 125.388454 
L 491.749655 103.868195 
L 492.324876 122.89897 
L 493.475317 231.045644 
L 494.050538 264.588454 
L 494.625759 263.88359 
L 495.200979 233.477757 
L 496.351421 150.688852 
L 496.926641 132.196602 
L 497.501862 134.681034 
L 498.077083 150.527565 
L 499.227524 191.426863 
L 499.802745 207.308863 
L 500.377965 216.609562 
L 500.953186 218.014418 
L 501.528407 211.280057 
L 503.254069 170.550183 
L 503.829289 164.278629 
L 504.40451 165.662196 
L 504.979731 173.654595 
L 505.554951 184.937211 
L 506.130172 193.422599 
L 506.705393 193.661102 
L 507.855834 176.52018 
L 508.431055 174.509308 
L 509.006275 185.092413 
L 510.156717 230.69222 
L 510.731937 236.749681 
L 511.307158 211.8792 
L 512.457599 119.131098 
L 513.03282 102.333444 
L 513.608041 123.280538 
L 515.333703 270.74081 
L 515.908923 268.580395 
L 516.484144 231.005051 
L 517.059365 181.050575 
L 517.634585 142.268195 
L 518.209806 127.174878 
L 518.785027 136.550628 
L 519.935468 190.797844 
L 520.510689 207.785507 
L 521.085909 208.425423 
L 522.236351 186.725964 
L 522.811571 182.609772 
L 523.386792 189.218243 
L 524.537233 216.555258 
L 525.112454 212.979163 
L 525.687675 187.764093 
L 526.262895 152.595249 
L 526.838116 127.836804 
L 527.413337 127.901751 
L 527.988557 154.596181 
L 529.138999 238.715433 
L 529.714219 256.074705 
L 530.28944 241.017109 
L 531.439881 164.149996 
L 532.015102 140.271954 
L 532.590323 139.230083 
L 533.165543 158.712065 
L 533.740764 188.276915 
L 534.315985 211.103074 
L 534.891205 213.095708 
L 535.466426 193.616883 
L 536.041647 167.589521 
L 536.616867 153.396993 
L 537.192088 162.071668 
L 537.767309 193.5786 
L 538.342529 235.212944 
L 538.91775 260.843674 
L 539.492971 245.792212 
L 541.218633 84.690746 
L 541.793853 91.108667 
L 542.369074 141.507044 
L 543.519515 274.684943 
L 544.094736 291.279456 
L 544.669957 258.900654 
L 545.820398 145.717643 
L 546.395619 117.601218 
L 546.97084 120.71853 
L 547.54606 148.137849 
L 548.121281 184.115712 
L 548.696502 210.351665 
L 549.271722 216.836338 
L 549.846943 207.11889 
L 550.422164 192.312318 
L 550.997384 182.231957 
L 551.572605 181.448019 
L 552.147826 189.527105 
L 552.723046 200.523825 
L 553.298267 204.321627 
L 553.873488 194.972704 
L 555.023929 161.014824 
L 555.59915 155.57148 
L 556.17437 161.565076 
L 557.900032 197.957198 
L 559.050474 214.916771 
L 559.625694 220.49903 
L 560.200915 216.913734 
L 560.776136 200.443885 
L 561.926577 143.763437 
L 562.501798 126.355273 
L 563.077018 133.545892 
L 563.652239 163.973916 
L 564.22746 202.333143 
L 564.80268 231.204405 
L 565.377901 240.388739 
L 565.953122 229.652514 
L 567.678784 162.853386 
L 568.254004 154.422807 
L 568.829225 155.583387 
L 569.404446 163.580621 
L 570.554887 186.07768 
L 571.130108 193.257542 
L 571.705328 195.743796 
L 572.280549 196.960538 
L 572.85577 201.708436 
L 573.43099 209.589611 
L 574.006211 214.12982 
L 574.581432 208.333955 
L 575.156652 190.128503 
L 576.307094 138.880989 
L 576.882314 130.313478 
L 577.457535 147.0792 
L 578.607976 220.741322 
L 579.183197 242.120319 
L 579.758418 239.631918 
L 580.333638 216.017094 
L 581.48408 153.36921 
L 582.0593 144.443584 
L 582.634521 157.991325 
L 583.784962 205.770864 
L 584.360183 211.532091 
L 584.935404 196.625985 
L 586.085845 139.98005 
L 586.661066 140.639269 
L 587.236286 178.248657 
L 587.811507 234.425633 
L 588.386728 274.900173 
L 588.961948 273.876885 
L 589.537169 226.55613 
L 590.68761 78.390092 
L 591.262831 55.8 
L 591.838052 99.897903 
L 592.988493 268.915418 
L 593.563714 307.8 
L 594.138934 290.928016 
L 594.714155 229.757513 
L 595.289376 154.220026 
L 595.864596 102.626069 
L 596.439817 99.515252 
L 597.015038 138.6746 
L 597.590258 191.710757 
L 598.165479 229.748854 
L 598.7407 237.378411 
L 599.31592 214.113583 
L 599.891141 173.507489 
L 600.466362 141.890235 
L 601.041582 142.879787 
L 601.616803 177.901655 
L 602.192024 223.258769 
L 602.767244 250.566774 
L 603.342465 244.70127 
L 603.917686 207.705585 
L 604.492906 155.728618 
L 605.068127 115.209336 
L 605.643348 109.420687 
L 606.218568 140.235872 
L 607.36901 227.609547 
L 607.94423 245.119823 
L 608.519451 238.684402 
L 609.094672 215.423002 
L 609.669892 187.332409 
L 610.245113 166.012193 
L 610.820334 157.229813 
L 611.395554 159.65922 
L 612.545996 177.33946 
L 613.121216 183.073012 
L 613.696437 183.04117 
L 614.271658 179.1565 
L 614.846878 179.714636 
L 615.422099 191.983447 
L 616.57254 231.62873 
L 617.147761 232.155529 
L 617.722982 210.769676 
L 618.873423 133.420507 
L 619.448644 113.060287 
L 620.023864 125.311058 
L 621.749526 241.104247 
L 622.324747 247.683996 
L 622.899968 231.414403 
L 624.050409 172.878632 
L 624.62563 155.472435 
L 625.20085 153.354777 
L 625.776071 161.983808 
L 626.926512 185.699806 
L 627.501733 191.619758 
L 628.076954 191.491955 
L 628.652174 188.317074 
L 629.227395 187.779626 
L 629.802616 192.91368 
L 630.377836 200.722745 
L 630.953057 204.854198 
L 631.528278 201.66981 
L 632.103498 191.920033 
L 632.678719 180.204973 
L 633.25394 171.526131 
L 633.82916 167.709494 
L 634.404381 166.030775 
L 634.979602 163.407607 
L 635.554822 162.707434 
L 636.130043 170.043031 
L 636.705264 189.295368 
L 637.855705 247.622476 
L 638.430926 256.703074 
L 639.006147 230.60021 
L 640.156588 118.951229 
L 640.731809 90.090431 
L 641.307029 102.64826 
L 641.88225 151.420597 
L 642.457471 215.607743 
L 643.032691 265.053011 
L 643.607912 275.58465 
L 644.183133 245.268661 
L 645.333574 150.086462 
L 645.908795 129.758896 
L 646.484015 138.154296 
L 647.634457 202.37074 
L 648.209677 219.237961 
L 648.784898 208.61774 
L 649.935339 154.323581 
L 650.51056 148.660858 
L 651.085781 168.035676 
L 652.236222 241.698519 
L 652.811443 252.87693 
L 653.386663 227.105119 
L 654.537105 131.47929 
L 655.112325 111.635225 
L 655.687546 124.031587 
L 656.262767 160.967195 
L 656.837987 205.062753 
L 657.413208 235.982575 
L 657.988429 241.781869 
L 658.563649 225.291814 
L 659.714091 175.975323 
L 660.289311 163.47905 
L 660.864532 163.763196 
L 662.014973 186.622734 
L 662.590194 189.720271 
L 663.165415 179.312014 
L 663.740635 163.21078 
L 664.315856 155.281561 
L 664.891077 165.405472 
L 665.466297 194.316389 
L 666.041518 232.47702 
L 666.616739 259.860077 
L 667.191959 253.865579 
L 667.76718 209.757032 
L 668.342401 148.497587 
L 668.917621 102.392257 
L 669.492842 93.435781 
L 670.068063 124.563076 
L 671.218504 239.023213 
L 671.793725 268.528257 
L 672.368945 257.68144 
L 674.094607 142.235541 
L 674.669828 137.786078 
L 675.245049 157.289889 
L 675.820269 188.505748 
L 676.39549 212.002421 
L 676.970711 212.600301 
L 677.545931 191.501355 
L 678.121152 164.785763 
L 678.696373 150.688491 
L 679.271593 158.401579 
L 679.846814 185.788617 
L 680.422035 220.554236 
L 680.997255 242.664076 
L 681.572476 236.892566 
L 682.147697 206.510186 
L 682.722917 169.073884 
L 683.298138 142.599429 
L 683.873359 135.071262 
L 684.448579 143.979388 
L 686.174241 200.218805 
L 686.749462 218.661009 
L 687.324683 233.501751 
L 687.899903 237.194753 
L 688.475124 223.759047 
L 689.050345 194.117468 
L 689.625565 156.689844 
L 690.200786 126.597384 
L 690.776007 119.351019 
L 691.351227 140.079636 
L 692.501669 215.434549 
L 693.076889 236.727129 
L 693.65211 236.514245 
L 694.227331 217.825348 
L 695.377772 168.092866 
L 695.952993 160.070195 
L 696.528213 167.522589 
L 697.103434 182.11451 
L 697.678655 193.342263 
L 698.253875 194.204787 
L 698.829096 183.262443 
L 699.404317 165.967451 
L 699.979537 155.187386 
L 700.554758 164.221439 
L 701.705199 225.840803 
L 702.28042 243.158761 
L 702.855641 235.057611 
L 703.430861 203.82833 
L 704.006082 162.151049 
L 704.581303 129.647042 
L 705.156523 122.609772 
L 705.731744 142.605202 
L 706.882185 208.121431 
L 707.457406 225.612944 
L 708.032627 225.757634 
L 708.607847 211.923942 
L 709.183068 192.033078 
L 709.758289 176.706635 
L 710.333509 173.568305 
L 710.90873 181.724751 
L 711.483951 192.485169 
L 712.059171 195.864689 
L 712.634392 185.971051 
L 713.784833 138.966143 
L 714.360054 132.375209 
L 714.935275 159.60221 
L 716.085716 264.409487 
L 716.660937 283.717913 
L 717.236157 258.497437 
L 718.961819 73.565737 
L 719.53704 79.223949 
L 720.112261 136.530783 
L 720.687481 212.537337 
L 721.262702 268.663023 
L 721.837923 282.388288 
L 722.413143 251.77354 
L 723.563585 136.041329 
L 724.138805 113.777779 
L 724.714026 137.551725 
L 725.864467 233.310156 
L 726.439688 247.065008 
L 727.014909 222.252078 
L 728.16535 116.385793 
L 728.740571 99.354146 
L 729.315792 134.970413 
L 730.466233 266.058258 
L 731.041454 289.187236 
L 731.616674 264.414358 
L 732.767116 136.805187 
L 733.342336 95.627949 
L 733.917557 98.622581 
L 734.492778 136.922995 
L 735.067998 185.797819 
L 735.643219 223.572322 
L 736.21844 240.183793 
L 736.79366 235.582786 
L 738.519322 176.750691 
L 739.094543 169.470733 
L 739.669764 169.728594 
L 740.244984 172.91926 
L 740.820205 175.173489 
L 741.395426 174.096348 
L 741.970646 170.061757 
L 742.545867 168.24414 
L 743.121088 176.159323 
L 744.271529 217.624912 
L 744.84675 229.937202 
L 745.42197 225.146764 
L 745.997191 204.57348 
L 747.147632 152.145666 
L 747.722853 142.186469 
L 748.298074 149.037916 
L 750.023736 201.540997 
L 750.598956 209.977494 
L 751.174177 211.280057 
L 751.749398 206.569721 
L 752.899839 189.525969 
L 753.47506 183.783649 
L 754.05028 180.970365 
L 754.625501 178.99045 
L 755.200722 175.356118 
L 756.351163 161.908216 
L 756.926384 160.790032 
L 757.501604 172.226051 
L 758.652046 217.736947 
L 759.227266 229.31641 
L 759.802487 224.911509 
L 760.377708 208.074885 
L 761.528149 168.935563 
L 762.10337 157.375404 
L 762.67859 150.501045 
L 763.253811 147.363347 
L 763.829032 151.861881 
L 764.404252 168.201816 
L 766.129914 254.714771 
L 766.705135 254.473202 
L 767.280356 221.937804 
L 768.430797 125.25044 
L 769.006018 106.840998 
L 769.581238 122.080628 
L 770.156459 163.478869 
L 770.73168 212.901767 
L 771.3069 246.170713 
L 771.882121 246.522694 
L 772.457342 216.521521 
L 773.032562 175.785567 
L 773.607783 147.160024 
L 774.183004 144.435646 
L 774.758224 168.657605 
L 775.333445 208.304909 
L 775.908666 238.725175 
L 776.483886 235.122559 
L 777.059107 194.15162 
L 777.634328 140.114816 
L 778.209548 105.811396 
L 778.784769 111.145411 
L 779.35999 155.842276 
L 780.510431 276.23521 
L 781.085652 287.512125 
L 781.660872 248.904833 
L 782.811314 127.363046 
L 783.386534 102.175945 
L 783.961755 113.175028 
L 784.536976 150.294655 
L 785.112196 194.898573 
L 785.687417 226.284252 
L 786.262638 233.640848 
L 786.837858 220.804646 
L 787.9883 182.114131 
L 788.56352 174.244303 
L 789.138741 178.325493 
L 789.713962 189.712441 
L 790.289182 197.216288 
L 790.864403 190.075607 
L 792.014844 147.324378 
L 792.590065 140.868391 
L 793.165286 156.540284 
L 794.890948 255.669503 
L 795.466168 249.351891 
L 796.041389 213.4089 
L 796.61661 167.087439 
L 797.19183 132.833992 
L 797.767051 123.474299 
L 798.342272 139.512245 
L 799.492713 205.603443 
L 800.067934 224.108321 
L 800.643154 220.749079 
L 801.793596 180.107263 
L 802.368816 168.399708 
L 802.944037 172.643539 
L 803.519258 191.509888 
L 804.094478 214.181057 
L 804.669699 222.083395 
L 805.24492 203.065736 
L 806.395361 130.458528 
L 806.970582 120.252349 
L 807.545802 141.354777 
L 808.696244 235.76031 
L 809.271464 264.49879 
L 809.846685 257.505721 
L 810.421906 221.410103 
L 810.997126 177.226451 
L 811.572347 143.948538 
L 812.147568 129.939487 
L 812.722788 134.021815 
L 813.298009 149.915613 
L 815.023671 214.115027 
L 815.598892 229.18471 
L 816.174112 232.8023 
L 816.749333 222.058859 
L 817.324554 199.287147 
L 817.899774 171.629488 
L 818.474995 149.430489 
L 819.050216 141.93173 
L 819.625437 152.092265 
L 820.775878 196.674173 
L 821.351099 210.851222 
L 821.926319 211.244155 
L 822.50154 198.360758 
L 823.076761 179.220726 
L 823.651981 167.226175 
L 824.227202 173.539078 
L 825.377643 220.225167 
L 825.952864 227.983718 
L 826.528085 211.243073 
L 827.678526 129.887349 
L 828.253747 106.584996 
L 828.828967 123.469608 
L 830.554629 270.490761 
L 831.12985 269.183507 
L 831.705071 233.69443 
L 832.855512 135.662467 
L 833.430733 117.410704 
L 834.005953 129.902503 
L 835.156395 192.195321 
L 835.731615 212.897256 
L 836.306836 217.690761 
L 836.882057 207.633601 
L 837.457277 190.838761 
L 838.032498 179.892069 
L 838.607719 183.321221 
L 839.75816 211.163512 
L 840.333381 210.627152 
L 840.908601 192.04881 
L 842.059043 127.792603 
L 842.634263 118.253221 
L 843.209484 144.663324 
L 844.359925 248.114275 
L 844.935146 271.611652 
L 845.510367 257.621183 
L 846.085587 212.461745 
L 846.660808 155.669804 
L 847.236029 114.67893 
L 847.811249 110.579824 
L 848.38647 142.832699 
L 848.961691 190.694884 
L 849.536911 228.495723 
L 850.112132 239.58483 
L 850.687353 220.482613 
L 851.837794 143.101872 
L 852.413015 134.680313 
L 852.988235 165.792272 
L 853.563456 218.233616 
L 854.138677 258.568879 
L 854.713897 261.536631 
L 855.289118 221.508968 
L 856.439559 88.455732 
L 857.01478 68.51641 
L 857.590001 110.592994 
L 858.740442 269.664482 
L 859.315663 304.759182 
L 859.890883 286.803473 
L 860.466104 227.439961 
L 861.041325 155.248545 
L 861.616545 104.88589 
L 862.191766 97.368729 
L 862.766987 127.569435 
L 863.917428 211.010163 
L 864.492649 229.281771 
L 865.067869 225.290731 
L 866.218311 183.451098 
L 866.793531 173.624394 
L 867.368752 179.60814 
L 867.943973 193.250434 
L 868.519193 202.507925 
L 869.094414 200.042075 
L 869.669635 185.607553 
L 870.244855 165.393024 
L 870.820076 150.364835 
L 871.395297 151.015395 
L 871.970517 168.193698 
L 872.545738 192.242517 
L 873.120959 211.456138 
L 873.696179 219.69025 
L 874.2714 217.619499 
L 874.846621 209.075442 
L 875.997062 185.280005 
L 877.147503 156.511779 
L 877.722724 148.467098 
L 878.297945 151.845103 
L 878.873165 166.802571 
L 880.023607 208.269187 
L 880.598827 219.743291 
L 881.174048 220.700549 
L 881.749269 213.935879 
L 882.324489 202.897936 
L 884.625372 150.140765 
L 885.200593 148.238157 
L 885.775813 159.258167 
L 886.926255 203.266839 
L 887.501475 218.581087 
L 888.076696 222.821093 
L 888.651917 217.776456 
L 889.802358 196.430853 
L 890.377579 182.425086 
L 891.52802 148.048726 
L 892.103241 140.041389 
L 892.678461 147.400692 
L 893.253682 170.036229 
L 894.404123 229.482387 
L 894.979344 241.163783 
L 895.554565 229.723235 
L 897.280227 149.123972 
L 897.855447 146.774487 
L 898.430668 162.242517 
L 899.581109 209.25477 
L 900.15633 212.179042 
L 900.731551 193.211357 
L 901.306771 164.805608 
L 901.881992 146.568097 
L 902.457213 152.347004 
L 903.032433 184.559022 
L 903.607654 232.161843 
L 904.182875 268.87248 
L 904.758095 264.760024 
L 905.333316 212.379839 
L 905.908537 137.708141 
L 906.483757 81.938405 
L 907.058978 73.473006 
L 907.634199 116.370097 
L 908.78464 266.965902 
L 909.359861 301.498805 
L 909.935082 280.128106 
L 911.085523 155.05695 
L 911.660744 114.699857 
L 912.235964 110.475366 
L 912.811185 138.484267 
L 913.961626 217.995475 
L 914.536847 227.359137 
L 915.112068 210.201022 
L 915.687288 182.491784 
L 916.262509 163.023513 
L 916.83773 162.580245 
L 917.41295 182.034768 
L 917.988171 212.033632 
L 918.563392 233.362475 
L 919.138612 227.993641 
L 919.713833 195.116238 
L 920.289054 153.297767 
L 920.864274 125.925716 
L 921.439495 125.494535 
L 922.014716 150.593054 
L 923.165157 224.522905 
L 923.740378 240.178742 
L 924.315598 232.953304 
L 926.04126 168.110727 
L 926.616481 159.212523 
L 927.191702 160.585808 
L 928.342143 179.635201 
L 928.917364 184.552416 
L 929.492584 182.343234 
L 930.067805 177.933732 
L 930.643026 178.617109 
L 931.218246 188.637736 
L 932.368688 228.250906 
L 932.943908 235.996828 
L 933.519129 217.924754 
L 934.66957 135.804991 
L 935.244791 113.635796 
L 935.820012 121.722333 
L 936.395232 156.26588 
L 937.545674 240.038202 
L 938.120894 252.390363 
L 938.696115 238.235 
L 939.846556 179.470234 
L 940.421777 158.330497 
L 940.996998 149.497422 
L 941.572218 152.252469 
L 942.147439 162.991942 
L 943.29788 188.671725 
L 943.873101 196.992074 
L 944.448322 201.290028 
L 945.023542 201.98892 
L 945.598763 200.251387 
L 946.173984 197.118758 
L 946.749204 192.74146 
L 947.899646 182.281714 
L 948.474866 180.311271 
L 949.050087 181.818023 
L 949.625308 183.700516 
L 950.200528 181.58192 
L 950.775749 172.703201 
L 951.35097 159.356852 
L 951.92619 152.143141 
L 952.501411 165.227949 
L 953.651852 242.493768 
L 954.227073 264.988243 
L 954.802294 252.783477 
L 955.377514 206.584695 
L 956.527956 90.776712 
L 957.103176 81.277742 
L 957.678397 121.595324 
L 958.828838 249.958972 
L 959.404059 277.273292 
L 959.97928 264.606856 
L 960.5545 221.317011 
L 961.129721 168.870814 
L 961.704942 133.142314 
L 962.280162 129.664181 
L 962.855383 153.758716 
L 963.430604 187.119198 
L 964.005824 210.670992 
L 964.581045 213.832324 
L 965.156266 195.803332 
L 965.731486 166.96945 
L 966.306707 147.443449 
L 966.881928 155.235195 
L 968.032369 230.211246 
L 968.60759 251.796272 
L 969.18281 241.990062 
L 969.758031 203.67693 
L 970.333252 152.592002 
L 970.908472 113.774532 
L 971.483693 108.993656 
L 972.058914 140.119687 
L 973.209355 229.67254 
L 973.784576 247.152687 
L 974.359796 238.05477 
L 976.085458 154.500023 
L 976.660679 155.25919 
L 977.81112 196.718842 
L 978.386341 207.866872 
L 978.961562 199.906821 
L 979.536782 173.914711 
L 980.112003 142.357859 
L 980.687224 128.879576 
L 981.262444 152.191851 
L 982.412886 261.180501 
L 982.988106 284.708186 
L 983.563327 262.434894 
L 984.138548 201.196972 
L 984.713768 125.812959 
L 985.288989 73.683004 
L 985.86421 75.244456 
L 986.43943 129.337638 
L 987.014651 204.880719 
L 987.589872 263.638412 
L 988.165092 282.61777 
L 988.740313 258.960731 
L 989.890754 152.367932 
L 990.465975 123.63739 
L 991.041196 132.040186 
L 992.191637 202.653191 
L 992.766858 221.955303 
L 993.342078 216.210494 
L 993.917299 189.129968 
L 994.49252 156.079335 
L 995.06774 140.04175 
L 995.642961 154.772442 
L 996.218182 192.47355 
L 996.218182 192.47355 
" style="fill:none;stroke:#4c72b0;stroke-linecap:round;stroke-width:1.4;"/>
   </g>
   <g id="patch_3">
    <path d="M 144 320.4 
L 144 43.2 
" style="fill:none;"/>
   </g>
   <g id="patch_4">
    <path d="M 1036.8 320.4 
L 1036.8 43.2 
" style="fill:none;"/>
   </g>
   <g id="patch_5">
    <path d="M 144 320.4 
L 1036.8 320.4 
" style="fill:none;"/>
   </g>
   <g id="patch_6">
    <path d="M 144 43.2 
L 1036.8 43.2 
" style="fill:none;"/>
   </g>
  </g>
 </g>
 <defs>
  <clipPath id="p8dff6efb88">
   <rect height="277.2" width="892.8" x="144" y="43.2"/>
  </clipPath>
 </defs>
</svg>
