<?xml version="1.0" encoding="utf-8" standalone="no"?>
<!DOCTYPE svg PUBLIC "-//W3C//DTD SVG 1.1//EN"
  "http://www.w3.org/Graphics/SVG/1.1/DTD/svg11.dtd">
<!-- Created with matplotlib (http://matplotlib.org/) -->
<svg height="360pt" version="1.1" viewBox="0 0 1152 360" width="1152pt" xmlns="http://www.w3.org/2000/svg" xmlns:xlink="http://www.w3.org/1999/xlink">
 <defs>
  <style type="text/css">
*{stroke-linecap:butt;stroke-linejoin:round;}
  </style>
 </defs>
 <g id="figure_1">
  <g id="patch_1">
   <path d="M 0 360 
L 1152 360 
L 1152 0 
L 0 0 
z
" style="fill:#ffffff;"/>
  </g>
  <g id="axes_1">
   <g id="patch_2">
    <path d="M 144 320.4 
L 1036.8 320.4 
L 1036.8 43.2 
L 144 43.2 
z
" style="fill:#eaeaf2;"/>
   </g>
   <g id="matplotlib.axis_1">
    <g id="xtick_1">
     <g id="line2d_1">
      <path clip-path="url(#p7d463ac4aa)" d="M 184.581818 320.4 
L 184.581818 43.2 
" style="fill:none;stroke:#ffffff;stroke-linecap:round;stroke-width:0.8;"/>
     </g>
     <g id="line2d_2"/>
     <g id="text_1">
      <!-- 0.000 -->
      <defs>
       <path d="M 51.703125 34.421875 
Q 51.703125 24.515625 49.828125 17.75 
Q 47.953125 10.984375 44.703125 6.8125 
Q 41.453125 2.640625 37.0625 0.828125 
Q 32.671875 -0.984375 27.6875 -0.984375 
Q 22.65625 -0.984375 18.3125 0.828125 
Q 13.96875 2.640625 10.765625 6.78125 
Q 7.5625 10.9375 5.734375 17.703125 
Q 3.90625 24.46875 3.90625 34.421875 
Q 3.90625 44.828125 5.734375 51.640625 
Q 7.5625 58.453125 10.78125 62.5 
Q 14.015625 66.546875 18.40625 68.1875 
Q 22.796875 69.828125 27.984375 69.828125 
Q 32.90625 69.828125 37.21875 68.1875 
Q 41.546875 66.546875 44.765625 62.5 
Q 48 58.453125 49.84375 51.640625 
Q 51.703125 44.828125 51.703125 34.421875 
M 42.78125 34.421875 
Q 42.78125 42.625 41.796875 48.0625 
Q 40.828125 53.515625 38.921875 56.765625 
Q 37.015625 60.015625 34.25 61.359375 
Q 31.5 62.703125 27.984375 62.703125 
Q 24.265625 62.703125 21.4375 61.328125 
Q 18.609375 59.96875 16.671875 56.71875 
Q 14.75 53.46875 13.765625 48.015625 
Q 12.796875 42.578125 12.796875 34.421875 
Q 12.796875 26.515625 13.796875 21.09375 
Q 14.796875 15.671875 16.71875 12.375 
Q 18.65625 9.078125 21.4375 7.640625 
Q 24.21875 6.203125 27.78125 6.203125 
Q 31.25 6.203125 34.03125 7.640625 
Q 36.8125 9.078125 38.734375 12.375 
Q 40.671875 15.671875 41.71875 21.09375 
Q 42.78125 26.515625 42.78125 34.421875 
" id="LiberationSans-30"/>
       <path d="M 9.125 0 
L 9.125 10.6875 
L 18.65625 10.6875 
L 18.65625 0 
z
" id="LiberationSans-2e"/>
      </defs>
      <g style="fill:#262626;" transform="translate(174.573068 331.7975)scale(0.08 -0.08)">
       <use xlink:href="#LiberationSans-30"/>
       <use x="55.615234" xlink:href="#LiberationSans-2e"/>
       <use x="83.398438" xlink:href="#LiberationSans-30"/>
       <use x="139.013672" xlink:href="#LiberationSans-30"/>
       <use x="194.628906" xlink:href="#LiberationSans-30"/>
      </g>
     </g>
    </g>
    <g id="xtick_2">
     <g id="line2d_3">
      <path clip-path="url(#p7d463ac4aa)" d="M 311.238448 320.4 
L 311.238448 43.2 
" style="fill:none;stroke:#ffffff;stroke-linecap:round;stroke-width:0.8;"/>
     </g>
     <g id="line2d_4"/>
     <g id="text_2">
      <!-- 0.005 -->
      <defs>
       <path d="M 51.421875 22.40625 
Q 51.421875 17.234375 49.859375 12.9375 
Q 48.296875 8.640625 45.21875 5.53125 
Q 42.140625 2.4375 37.578125 0.71875 
Q 33.015625 -0.984375 27 -0.984375 
Q 21.578125 -0.984375 17.546875 0.28125 
Q 13.53125 1.5625 10.734375 3.78125 
Q 7.953125 6 6.3125 8.984375 
Q 4.6875 11.96875 4 15.375 
L 12.890625 16.40625 
Q 13.421875 14.453125 14.390625 12.625 
Q 15.375 10.796875 17.0625 9.34375 
Q 18.75 7.90625 21.21875 7.046875 
Q 23.6875 6.203125 27.203125 6.203125 
Q 30.609375 6.203125 33.390625 7.25 
Q 36.1875 8.296875 38.15625 10.34375 
Q 40.140625 12.40625 41.203125 15.375 
Q 42.28125 18.359375 42.28125 22.21875 
Q 42.28125 25.390625 41.25 28.046875 
Q 40.234375 30.71875 38.328125 32.640625 
Q 36.421875 34.578125 33.65625 35.640625 
Q 30.90625 36.71875 27.390625 36.71875 
Q 25.203125 36.71875 23.34375 36.328125 
Q 21.484375 35.9375 19.890625 35.25 
Q 18.3125 34.578125 17.015625 33.671875 
Q 15.71875 32.765625 14.59375 31.78125 
L 6 31.78125 
L 8.296875 68.796875 
L 47.40625 68.796875 
L 47.40625 61.328125 
L 16.3125 61.328125 
L 14.984375 39.5 
Q 17.328125 41.3125 20.84375 42.59375 
Q 24.359375 43.890625 29.203125 43.890625 
Q 34.328125 43.890625 38.421875 42.328125 
Q 42.53125 40.765625 45.40625 37.90625 
Q 48.296875 35.0625 49.859375 31.109375 
Q 51.421875 27.15625 51.421875 22.40625 
" id="LiberationSans-35"/>
      </defs>
      <g style="fill:#262626;" transform="translate(301.229698 331.7975)scale(0.08 -0.08)">
       <use xlink:href="#LiberationSans-30"/>
       <use x="55.615234" xlink:href="#LiberationSans-2e"/>
       <use x="83.398438" xlink:href="#LiberationSans-30"/>
       <use x="139.013672" xlink:href="#LiberationSans-30"/>
       <use x="194.628906" xlink:href="#LiberationSans-35"/>
      </g>
     </g>
    </g>
    <g id="xtick_3">
     <g id="line2d_5">
      <path clip-path="url(#p7d463ac4aa)" d="M 437.895078 320.4 
L 437.895078 43.2 
" style="fill:none;stroke:#ffffff;stroke-linecap:round;stroke-width:0.8;"/>
     </g>
     <g id="line2d_6"/>
     <g id="text_3">
      <!-- 0.010 -->
      <defs>
       <path d="M 7.625 0 
L 7.625 7.46875 
L 25.140625 7.46875 
L 25.140625 60.40625 
L 9.625 49.3125 
L 9.625 57.625 
L 25.875 68.796875 
L 33.984375 68.796875 
L 33.984375 7.46875 
L 50.734375 7.46875 
L 50.734375 0 
z
" id="LiberationSans-31"/>
      </defs>
      <g style="fill:#262626;" transform="translate(427.886328 331.7975)scale(0.08 -0.08)">
       <use xlink:href="#LiberationSans-30"/>
       <use x="55.615234" xlink:href="#LiberationSans-2e"/>
       <use x="83.398438" xlink:href="#LiberationSans-30"/>
       <use x="139.013672" xlink:href="#LiberationSans-31"/>
       <use x="194.628906" xlink:href="#LiberationSans-30"/>
      </g>
     </g>
    </g>
    <g id="xtick_4">
     <g id="line2d_7">
      <path clip-path="url(#p7d463ac4aa)" d="M 564.551708 320.4 
L 564.551708 43.2 
" style="fill:none;stroke:#ffffff;stroke-linecap:round;stroke-width:0.8;"/>
     </g>
     <g id="line2d_8"/>
     <g id="text_4">
      <!-- 0.015 -->
      <g style="fill:#262626;" transform="translate(554.542958 331.7975)scale(0.08 -0.08)">
       <use xlink:href="#LiberationSans-30"/>
       <use x="55.615234" xlink:href="#LiberationSans-2e"/>
       <use x="83.398438" xlink:href="#LiberationSans-30"/>
       <use x="139.013672" xlink:href="#LiberationSans-31"/>
       <use x="194.628906" xlink:href="#LiberationSans-35"/>
      </g>
     </g>
    </g>
    <g id="xtick_5">
     <g id="line2d_9">
      <path clip-path="url(#p7d463ac4aa)" d="M 691.208338 320.4 
L 691.208338 43.2 
" style="fill:none;stroke:#ffffff;stroke-linecap:round;stroke-width:0.8;"/>
     </g>
     <g id="line2d_10"/>
     <g id="text_5">
      <!-- 0.020 -->
      <defs>
       <path d="M 5.03125 0 
L 5.03125 6.203125 
Q 7.515625 11.921875 11.109375 16.28125 
Q 14.703125 20.65625 18.65625 24.1875 
Q 22.609375 27.734375 26.484375 30.765625 
Q 30.375 33.796875 33.5 36.8125 
Q 36.625 39.84375 38.546875 43.15625 
Q 40.484375 46.484375 40.484375 50.6875 
Q 40.484375 53.609375 39.59375 55.828125 
Q 38.71875 58.0625 37.0625 59.5625 
Q 35.40625 61.078125 33.078125 61.828125 
Q 30.765625 62.59375 27.9375 62.59375 
Q 25.296875 62.59375 22.96875 61.859375 
Q 20.65625 61.140625 18.84375 59.671875 
Q 17.046875 58.203125 15.890625 56.03125 
Q 14.75 53.859375 14.40625 50.984375 
L 5.421875 51.8125 
Q 5.859375 55.515625 7.46875 58.78125 
Q 9.078125 62.0625 11.90625 64.53125 
Q 14.75 67 18.71875 68.40625 
Q 22.703125 69.828125 27.9375 69.828125 
Q 33.0625 69.828125 37.0625 68.609375 
Q 41.0625 67.390625 43.8125 64.984375 
Q 46.578125 62.59375 48.046875 59.078125 
Q 49.515625 55.5625 49.515625 50.984375 
Q 49.515625 47.515625 48.265625 44.390625 
Q 47.015625 41.265625 44.9375 38.421875 
Q 42.875 35.59375 40.140625 32.953125 
Q 37.40625 30.328125 34.421875 27.8125 
Q 31.453125 25.296875 28.421875 22.828125 
Q 25.390625 20.359375 22.71875 17.859375 
Q 20.0625 15.375 17.96875 12.8125 
Q 15.875 10.25 14.703125 7.46875 
L 50.59375 7.46875 
L 50.59375 0 
z
" id="LiberationSans-32"/>
      </defs>
      <g style="fill:#262626;" transform="translate(681.199588 331.7975)scale(0.08 -0.08)">
       <use xlink:href="#LiberationSans-30"/>
       <use x="55.615234" xlink:href="#LiberationSans-2e"/>
       <use x="83.398438" xlink:href="#LiberationSans-30"/>
       <use x="139.013672" xlink:href="#LiberationSans-32"/>
       <use x="194.628906" xlink:href="#LiberationSans-30"/>
      </g>
     </g>
    </g>
    <g id="xtick_6">
     <g id="line2d_11">
      <path clip-path="url(#p7d463ac4aa)" d="M 817.864968 320.4 
L 817.864968 43.2 
" style="fill:none;stroke:#ffffff;stroke-linecap:round;stroke-width:0.8;"/>
     </g>
     <g id="line2d_12"/>
     <g id="text_6">
      <!-- 0.025 -->
      <g style="fill:#262626;" transform="translate(807.856218 331.7975)scale(0.08 -0.08)">
       <use xlink:href="#LiberationSans-30"/>
       <use x="55.615234" xlink:href="#LiberationSans-2e"/>
       <use x="83.398438" xlink:href="#LiberationSans-30"/>
       <use x="139.013672" xlink:href="#LiberationSans-32"/>
       <use x="194.628906" xlink:href="#LiberationSans-35"/>
      </g>
     </g>
    </g>
    <g id="xtick_7">
     <g id="line2d_13">
      <path clip-path="url(#p7d463ac4aa)" d="M 944.521598 320.4 
L 944.521598 43.2 
" style="fill:none;stroke:#ffffff;stroke-linecap:round;stroke-width:0.8;"/>
     </g>
     <g id="line2d_14"/>
     <g id="text_7">
      <!-- 0.030 -->
      <defs>
       <path d="M 51.21875 19 
Q 51.21875 14.265625 49.671875 10.546875 
Q 48.140625 6.84375 45.1875 4.265625 
Q 42.234375 1.703125 37.859375 0.359375 
Q 33.5 -0.984375 27.875 -0.984375 
Q 21.484375 -0.984375 17.109375 0.609375 
Q 12.75 2.203125 9.90625 4.8125 
Q 7.078125 7.421875 5.65625 10.765625 
Q 4.25 14.109375 3.8125 17.671875 
L 12.890625 18.5 
Q 13.28125 15.765625 14.328125 13.515625 
Q 15.375 11.28125 17.1875 9.671875 
Q 19 8.0625 21.625 7.171875 
Q 24.265625 6.296875 27.875 6.296875 
Q 34.515625 6.296875 38.296875 9.5625 
Q 42.09375 12.84375 42.09375 19.28125 
Q 42.09375 23.09375 40.40625 25.40625 
Q 38.71875 27.734375 36.203125 29.03125 
Q 33.6875 30.328125 30.734375 30.765625 
Q 27.78125 31.203125 25.296875 31.203125 
L 20.3125 31.203125 
L 20.3125 38.8125 
L 25.09375 38.8125 
Q 27.59375 38.8125 30.265625 39.328125 
Q 32.953125 39.84375 35.171875 41.1875 
Q 37.40625 42.53125 38.84375 44.828125 
Q 40.28125 47.125 40.28125 50.6875 
Q 40.28125 56.203125 37.03125 59.390625 
Q 33.796875 62.59375 27.390625 62.59375 
Q 21.578125 62.59375 17.984375 59.609375 
Q 14.40625 56.640625 13.8125 51.21875 
L 4.984375 51.90625 
Q 5.515625 56.453125 7.46875 59.8125 
Q 9.421875 63.1875 12.421875 65.40625 
Q 15.4375 67.625 19.28125 68.71875 
Q 23.140625 69.828125 27.484375 69.828125 
Q 33.25 69.828125 37.390625 68.375 
Q 41.546875 66.9375 44.1875 64.46875 
Q 46.828125 62.015625 48.0625 58.6875 
Q 49.3125 55.375 49.3125 51.609375 
Q 49.3125 48.578125 48.484375 45.9375 
Q 47.65625 43.3125 45.890625 41.203125 
Q 44.140625 39.109375 41.421875 37.59375 
Q 38.71875 36.078125 34.90625 35.296875 
L 34.90625 35.109375 
Q 39.0625 34.671875 42.140625 33.21875 
Q 45.21875 31.78125 47.21875 29.625 
Q 49.21875 27.484375 50.21875 24.75 
Q 51.21875 22.015625 51.21875 19 
" id="LiberationSans-33"/>
      </defs>
      <g style="fill:#262626;" transform="translate(934.512848 331.7975)scale(0.08 -0.08)">
       <use xlink:href="#LiberationSans-30"/>
       <use x="55.615234" xlink:href="#LiberationSans-2e"/>
       <use x="83.398438" xlink:href="#LiberationSans-30"/>
       <use x="139.013672" xlink:href="#LiberationSans-33"/>
       <use x="194.628906" xlink:href="#LiberationSans-30"/>
      </g>
     </g>
    </g>
   </g>
   <g id="matplotlib.axis_2">
    <g id="ytick_1">
     <g id="line2d_15">
      <path clip-path="url(#p7d463ac4aa)" d="M 144 288.124093 
L 1036.8 288.124093 
" style="fill:none;stroke:#ffffff;stroke-linecap:round;stroke-width:0.8;"/>
     </g>
     <g id="line2d_16"/>
     <g id="text_8">
      <!-- −3 -->
      <defs>
       <path d="M 4.9375 29.6875 
L 4.9375 36.8125 
L 53.515625 36.8125 
L 53.515625 29.6875 
z
" id="LiberationSans-2212"/>
      </defs>
      <g style="fill:#262626;" transform="translate(129.27875 291.022843)scale(0.08 -0.08)">
       <use xlink:href="#LiberationSans-2212"/>
       <use x="58.398438" xlink:href="#LiberationSans-33"/>
      </g>
     </g>
    </g>
    <g id="ytick_2">
     <g id="line2d_17">
      <path clip-path="url(#p7d463ac4aa)" d="M 144 242.72093 
L 1036.8 242.72093 
" style="fill:none;stroke:#ffffff;stroke-linecap:round;stroke-width:0.8;"/>
     </g>
     <g id="line2d_18"/>
     <g id="text_9">
      <!-- −2 -->
      <g style="fill:#262626;" transform="translate(129.27875 245.61968)scale(0.08 -0.08)">
       <use xlink:href="#LiberationSans-2212"/>
       <use x="58.398438" xlink:href="#LiberationSans-32"/>
      </g>
     </g>
    </g>
    <g id="ytick_3">
     <g id="line2d_19">
      <path clip-path="url(#p7d463ac4aa)" d="M 144 197.317767 
L 1036.8 197.317767 
" style="fill:none;stroke:#ffffff;stroke-linecap:round;stroke-width:0.8;"/>
     </g>
     <g id="line2d_20"/>
     <g id="text_10">
      <!-- −1 -->
      <g style="fill:#262626;" transform="translate(129.27875 200.216517)scale(0.08 -0.08)">
       <use xlink:href="#LiberationSans-2212"/>
       <use x="58.398438" xlink:href="#LiberationSans-31"/>
      </g>
     </g>
    </g>
    <g id="ytick_4">
     <g id="line2d_21">
      <path clip-path="url(#p7d463ac4aa)" d="M 144 151.914604 
L 1036.8 151.914604 
" style="fill:none;stroke:#ffffff;stroke-linecap:round;stroke-width:0.8;"/>
     </g>
     <g id="line2d_22"/>
     <g id="text_11">
      <!-- 0 -->
      <g style="fill:#262626;" transform="translate(133.95125 154.813354)scale(0.08 -0.08)">
       <use xlink:href="#LiberationSans-30"/>
      </g>
     </g>
    </g>
    <g id="ytick_5">
     <g id="line2d_23">
      <path clip-path="url(#p7d463ac4aa)" d="M 144 106.511441 
L 1036.8 106.511441 
" style="fill:none;stroke:#ffffff;stroke-linecap:round;stroke-width:0.8;"/>
     </g>
     <g id="line2d_24"/>
     <g id="text_12">
      <!-- 1 -->
      <g style="fill:#262626;" transform="translate(133.95125 109.410191)scale(0.08 -0.08)">
       <use xlink:href="#LiberationSans-31"/>
      </g>
     </g>
    </g>
    <g id="ytick_6">
     <g id="line2d_25">
      <path clip-path="url(#p7d463ac4aa)" d="M 144 61.108278 
L 1036.8 61.108278 
" style="fill:none;stroke:#ffffff;stroke-linecap:round;stroke-width:0.8;"/>
     </g>
     <g id="line2d_26"/>
     <g id="text_13">
      <!-- 2 -->
      <g style="fill:#262626;" transform="translate(133.95125 64.007028)scale(0.08 -0.08)">
       <use xlink:href="#LiberationSans-32"/>
      </g>
     </g>
    </g>
   </g>
   <g id="line2d_27">
    <path clip-path="url(#p7d463ac4aa)" d="M 184.581818 94.864273 
L 186.879444 90.748092 
L 188.028257 89.324134 
L 188.602664 88.90546 
L 189.17707 88.682185 
L 189.751477 88.627659 
L 192.049102 88.966636 
L 192.623509 88.821084 
L 193.197915 88.432279 
L 193.772322 87.73954 
L 194.346728 86.699123 
L 194.921135 85.287994 
L 196.069948 81.377447 
L 197.218761 76.286105 
L 200.090793 62.648297 
L 201.239606 58.742067 
L 201.814013 57.384004 
L 202.388419 56.450589 
L 202.962826 55.933043 
L 203.537232 55.8 
L 204.111639 56.000353 
L 204.686045 56.467454 
L 205.834858 57.889774 
L 207.558078 60.085007 
L 208.132484 60.590905 
L 208.706891 60.931567 
L 209.281297 61.106829 
L 210.43011 61.064517 
L 211.578923 60.842032 
L 212.153329 60.833567 
L 212.727736 60.991209 
L 213.302142 61.381918 
L 213.876549 62.060847 
L 214.450955 63.066537 
L 215.025362 64.417285 
L 216.174175 68.114399 
L 217.322988 72.851127 
L 219.620614 82.899842 
L 220.769427 86.747306 
L 221.343833 88.120332 
L 221.91824 89.077128 
L 222.492646 89.610489 
L 223.067053 89.737465 
L 223.641459 89.497881 
L 224.215866 88.951309 
L 225.364679 87.246936 
L 227.087898 84.458106 
L 227.662305 83.780445 
L 228.236711 83.321207 
L 228.811118 83.106739 
L 229.385524 83.141413 
L 229.959931 83.407968 
L 231.108743 84.472674 
L 232.831963 86.459661 
L 233.406369 86.949986 
L 233.980776 87.255849 
L 234.555182 87.339395 
L 235.129589 87.182393 
L 235.703995 86.788317 
L 236.278402 86.182821 
L 237.427215 84.542401 
L 238.576028 82.827219 
L 239.150434 82.160782 
L 239.724841 81.739448 
L 240.299247 81.641217 
L 240.873654 81.929174 
L 241.44806 82.646987 
L 242.022467 83.815718 
L 242.596873 85.432172 
L 243.745686 89.875982 
L 244.894499 95.50907 
L 247.192125 107.503264 
L 248.340938 112.513516 
L 249.489751 116.347737 
L 250.638564 119.039991 
L 251.787377 120.937022 
L 253.510596 123.464572 
L 254.659409 125.673263 
L 255.808222 128.612331 
L 257.531442 134.102461 
L 259.254661 139.438472 
L 259.829068 140.809537 
L 260.403474 141.852276 
L 260.977881 142.511503 
L 261.552287 142.751569 
L 262.126694 142.559352 
L 262.7011 141.94571 
L 263.275507 140.945257 
L 264.42432 138.028372 
L 267.296352 129.528003 
L 267.870759 128.341726 
L 268.445165 127.480011 
L 269.019572 126.969032 
L 269.593978 126.811404 
L 270.168384 126.986748 
L 270.742791 127.453876 
L 271.891604 129.017726 
L 273.614823 131.81296 
L 274.763636 133.167278 
L 275.338043 133.557959 
L 275.912449 133.742794 
L 276.486856 133.737351 
L 277.635669 133.315938 
L 278.784482 132.761827 
L 279.358888 132.619806 
L 279.933295 132.665717 
L 280.507701 132.962185 
L 281.082108 133.556804 
L 281.656514 134.477963 
L 282.230921 135.732008 
L 283.379734 139.147981 
L 285.102953 145.652489 
L 286.251766 149.890753 
L 287.400579 153.173912 
L 287.974986 154.267698 
L 288.549392 154.931654 
L 289.123798 155.145796 
L 289.698205 154.914372 
L 290.272611 154.265112 
L 290.847018 153.246865 
L 291.995831 150.380351 
L 294.867863 142.154528 
L 296.016676 139.763204 
L 297.165489 138.078452 
L 299.463115 135.400638 
L 300.037522 134.487916 
L 300.611928 133.350361 
L 301.760741 130.24451 
L 302.909554 125.972243 
L 304.632774 117.981723 
L 306.355993 109.927205 
L 307.504806 105.716157 
L 308.079213 104.175308 
L 308.653619 103.0653 
L 309.228025 102.397829 
L 309.802432 102.160118 
L 310.376838 102.315879 
L 310.951245 102.807869 
L 312.100058 104.49193 
L 313.823277 107.426512 
L 314.397684 108.174714 
L 314.97209 108.700949 
L 315.546497 108.96912 
L 316.120903 108.965198 
L 316.69531 108.697478 
L 317.269716 108.195189 
L 318.418529 106.689639 
L 320.141749 104.186656 
L 320.716155 103.557723 
L 321.290562 103.118422 
L 321.864968 102.896163 
L 322.439375 102.897561 
L 323.013781 103.107369 
L 324.162594 103.987061 
L 325.311407 105.037332 
L 325.885814 105.421612 
L 326.46022 105.598049 
L 327.034627 105.488951 
L 327.609033 105.029763 
L 328.183439 104.173902 
L 328.757846 102.896385 
L 329.332252 101.195977 
L 330.481065 96.641697 
L 332.204285 87.897491 
L 333.927504 79.03078 
L 335.076317 74.215429 
L 336.22513 70.758701 
L 336.799537 69.56088 
L 337.373943 68.683322 
L 337.94835 68.076999 
L 338.522756 67.678674 
L 341.394789 66.303824 
L 341.969195 65.73827 
L 343.118008 64.12076 
L 345.990041 59.033482 
L 346.564447 58.379835 
L 347.138854 58.020972 
L 347.71326 58.013944 
L 348.287666 58.397872 
L 348.862073 59.190497 
L 349.436479 60.386218 
L 350.585292 63.847555 
L 352.308512 70.676265 
L 353.457325 75.244067 
L 354.606138 78.966818 
L 355.180544 80.340938 
L 355.754951 81.339475 
L 356.329357 81.953653 
L 356.903764 82.198434 
L 357.47817 82.110844 
L 358.052577 81.746773 
L 359.20139 80.479175 
L 360.924609 78.42419 
L 361.499016 77.979259 
L 362.073422 77.731553 
L 362.647829 77.698132 
L 363.222235 77.874456 
L 363.796642 78.235055 
L 364.945455 79.317527 
L 366.094268 80.442538 
L 366.668674 80.839843 
L 367.24308 81.038216 
L 367.817487 80.985879 
L 368.391893 80.648558 
L 368.9663 80.012783 
L 369.540706 79.087707 
L 370.689519 76.518787 
L 372.987145 70.53842 
L 373.561552 69.397888 
L 374.135958 68.575244 
L 374.710365 68.137405 
L 375.284771 68.131464 
L 375.859178 68.581663 
L 376.433584 69.487936 
L 377.007991 70.826127 
L 378.156804 74.593922 
L 379.880023 81.817457 
L 381.603243 88.880775 
L 382.752056 92.659635 
L 383.900869 95.538325 
L 385.049682 97.753871 
L 386.772901 100.89373 
L 387.921714 103.631404 
L 389.070527 107.289715 
L 390.21934 111.878311 
L 393.665779 126.753287 
L 394.240185 128.527652 
L 394.814592 129.903818 
L 395.388998 130.842838 
L 395.963405 131.328908 
L 396.537811 131.370615 
L 397.112218 131.000506 
L 397.686624 130.273016 
L 398.835437 128.05037 
L 400.558657 124.169878 
L 401.70747 122.237392 
L 402.281876 121.656256 
L 402.856283 121.369841 
L 403.430689 121.37828 
L 404.005096 121.659675 
L 404.579502 122.172513 
L 405.728315 123.652441 
L 407.451534 125.944481 
L 408.025941 126.466215 
L 408.600347 126.792333 
L 409.174754 126.905781 
L 409.74916 126.810921 
L 410.323567 126.533558 
L 411.47238 125.630534 
L 412.621193 124.734439 
L 413.195599 124.490808 
L 413.770006 124.48783 
L 414.344412 124.791303 
L 414.918819 125.450737 
L 415.493225 126.495322 
L 416.067632 127.93129 
L 417.216445 131.882905 
L 418.939664 139.599205 
L 420.662884 147.312285 
L 421.811697 151.248073 
L 422.386103 152.665923 
L 422.96051 153.681791 
L 423.534916 154.298622 
L 424.109323 154.542062 
L 424.683729 154.457909 
L 425.258135 154.108147 
L 426.406948 152.909592 
L 428.130168 150.994261 
L 428.704574 150.565382 
L 429.278981 150.294871 
L 429.853387 150.18407 
L 431.0022 150.342254 
L 432.151013 150.665229 
L 432.72542 150.716251 
L 433.299826 150.593333 
L 433.874233 150.226443 
L 434.448639 149.556656 
L 435.023046 148.54115 
L 435.597452 147.15708 
L 436.746265 143.304989 
L 437.895078 138.270791 
L 440.767111 124.705556 
L 441.915924 120.780951 
L 442.49033 119.400875 
L 443.064737 118.43578 
L 443.639143 117.875644 
L 444.21355 117.68738 
L 444.787956 117.817568 
L 445.362362 118.196584 
L 446.511175 119.373516 
L 447.659988 120.549132 
L 448.234395 120.952616 
L 448.808801 121.163594 
L 449.383208 121.154162 
L 449.957614 120.918065 
L 450.532021 120.47064 
L 451.680834 119.099457 
L 453.404053 116.781955 
L 453.97846 116.218656 
L 454.552866 115.861657 
L 455.127273 115.751554 
L 455.701679 115.909555 
L 456.276086 116.335128 
L 456.850492 117.005249 
L 457.999305 118.881596 
L 459.722525 121.88497 
L 460.296931 122.57685 
L 460.871338 122.970282 
L 461.445744 122.996373 
L 462.020151 122.604871 
L 462.594557 121.767642 
L 463.168964 120.480637 
L 463.74337 118.764208 
L 464.892183 114.236746 
L 466.615402 105.865674 
L 468.338622 97.743922 
L 469.487435 93.415298 
L 470.636248 90.199852 
L 471.785061 87.923323 
L 474.657093 83.22677 
L 475.805906 80.490531 
L 476.954719 76.974956 
L 479.826752 67.058104 
L 480.401158 65.491631 
L 480.975565 64.252004 
L 481.549971 63.400135 
L 482.124378 62.977981 
L 482.698784 63.005251 
L 483.273191 63.477645 
L 483.847597 64.366751 
L 484.422003 65.621601 
L 485.570816 68.931986 
L 487.868442 76.16347 
L 489.017255 78.702023 
L 489.591662 79.506908 
L 490.166068 79.983963 
L 490.740475 80.148244 
L 491.314881 80.035852 
L 491.889288 79.700554 
L 493.038101 78.636044 
L 494.186914 77.543697 
L 494.76132 77.157137 
L 495.335727 76.943694 
L 495.910133 76.931013 
L 496.48454 77.125869 
L 497.058946 77.513531 
L 498.207759 78.70848 
L 499.356572 80.044178 
L 499.930979 80.575281 
L 500.505385 80.91296 
L 501.079792 80.990281 
L 501.654198 80.754698 
L 502.228605 80.17246 
L 502.803011 79.231718 
L 503.377417 77.944104 
L 504.52623 74.490067 
L 507.398263 64.380434 
L 507.972669 62.850231 
L 508.547076 61.673398 
L 509.121482 60.8989 
L 509.695889 60.552962 
L 510.270295 60.637827 
L 510.844702 61.13217 
L 511.419108 61.993167 
L 512.567921 64.558764 
L 515.439954 72.248654 
L 516.588767 74.52324 
L 517.73758 76.133475 
L 520.035206 78.762617 
L 520.609612 79.687715 
L 521.184019 80.851764 
L 521.758425 82.301759 
L 522.907238 86.152795 
L 524.056051 91.206996 
L 528.076896 110.89745 
L 528.651303 112.814446 
L 529.225709 114.308805 
L 529.800116 115.361644 
L 530.374522 115.9785 
L 530.948929 116.188703 
L 531.523335 116.04312 
L 532.097742 115.610433 
L 533.246555 114.217166 
L 534.395368 112.709874 
L 534.969774 112.115468 
L 535.544181 111.709348 
L 536.118587 111.529728 
L 536.692994 111.593237 
L 537.2674 111.894376 
L 537.841807 112.406631 
L 538.99062 113.87074 
L 540.713839 116.174977 
L 541.288246 116.700515 
L 541.862652 117.01559 
L 542.437058 117.090794 
L 543.011465 116.917408 
L 543.585871 116.508737 
L 544.734684 115.145386 
L 546.457904 112.773054 
L 547.03231 112.235727 
L 547.606717 111.966621 
L 548.181123 112.035942 
L 548.75553 112.496685 
L 549.329936 113.380742 
L 549.904343 114.696437 
L 550.478749 116.427688 
L 551.627562 120.957118 
L 555.648408 139.417043 
L 556.797221 142.825318 
L 557.371627 144.032421 
L 557.946034 144.935796 
L 558.52044 145.580504 
L 559.669253 146.342956 
L 561.392472 147.23251 
L 561.966879 147.713706 
L 562.541285 148.354878 
L 563.690098 150.1438 
L 567.136537 156.580168 
L 567.710944 157.063972 
L 568.28535 157.187996 
L 568.859757 156.907503 
L 569.434163 156.198828 
L 570.00857 155.061641 
L 570.582976 153.51959 
L 571.731789 149.427618 
L 575.178228 135.249135 
L 575.752635 133.540007 
L 576.327041 132.179807 
L 576.901448 131.183335 
L 577.475854 130.541767 
L 578.050261 130.224016 
L 578.624667 130.179649 
L 579.199074 130.343142 
L 581.496699 131.546977 
L 582.071106 131.631609 
L 582.645512 131.52974 
L 583.219919 131.223394 
L 583.794325 130.716065 
L 584.943138 129.215751 
L 586.666358 126.609867 
L 587.240764 125.93448 
L 587.815171 125.473652 
L 588.389577 125.2831 
L 588.963984 125.401489 
L 589.53839 125.846873 
L 590.112797 126.614587 
L 590.687203 127.676774 
L 591.836016 130.465864 
L 593.559236 135.081224 
L 594.133642 136.356416 
L 594.708049 137.349652 
L 595.282455 137.988803 
L 595.856862 138.220678 
L 596.431268 138.014343 
L 597.005675 137.362893 
L 597.580081 136.283572 
L 598.154488 134.816217 
L 599.303301 130.969824 
L 602.749739 117.953242 
L 603.898552 114.806741 
L 605.047365 112.422761 
L 607.344991 108.332986 
L 608.493804 105.572982 
L 609.642617 101.821753 
L 610.79143 97.04805 
L 614.237869 80.98111 
L 615.386682 77.277443 
L 615.961089 76.055846 
L 616.535495 75.292553 
L 617.109902 74.986165 
L 617.684308 75.111058 
L 618.258715 75.619135 
L 618.833121 76.443125 
L 619.981934 78.702393 
L 621.705153 82.250451 
L 622.27956 83.149755 
L 622.853966 83.81287 
L 623.428373 84.213424 
L 624.002779 84.347567 
L 624.577186 84.233443 
L 625.151592 83.909054 
L 626.300405 82.858047 
L 627.449218 81.732818 
L 628.023625 81.315401 
L 628.598031 81.070702 
L 629.172438 81.036659 
L 629.746844 81.2317 
L 630.321251 81.652837 
L 631.470064 83.054276 
L 633.193283 85.643613 
L 633.76769 86.318336 
L 634.342096 86.760931 
L 634.916503 86.900367 
L 635.490909 86.68115 
L 636.065316 86.067613 
L 636.639722 85.046843 
L 637.214129 83.630052 
L 638.362942 79.770415 
L 642.383787 63.981993 
L 642.958193 62.577735 
L 643.5326 61.548415 
L 644.107006 60.896358 
L 644.681413 60.601161 
L 645.255819 60.621963 
L 645.830226 60.901147 
L 646.979039 61.950431 
L 648.702258 63.648808 
L 649.276665 64.008636 
L 649.851071 64.210547 
L 650.425478 64.252111 
L 651.574291 63.949965 
L 652.723104 63.474688 
L 653.29751 63.346809 
L 653.871917 63.395466 
L 654.446323 63.694104 
L 655.02073 64.305832 
L 655.595136 65.278242 
L 656.169543 66.63929 
L 656.743949 68.394543 
L 657.892762 72.992525 
L 659.615981 81.699993 
L 661.339201 90.431532 
L 662.488014 95.0579 
L 663.06242 96.823365 
L 663.636827 98.18823 
L 664.211233 99.155778 
L 664.78564 99.752532 
L 665.360046 100.025817 
L 665.934453 100.039893 
L 667.083266 99.601335 
L 668.232079 99.083352 
L 668.806485 98.975992 
L 669.380892 99.039841 
L 669.955298 99.303949 
L 670.529705 99.776028 
L 671.678518 101.268656 
L 673.976144 104.9931 
L 674.55055 105.678407 
L 675.124957 106.135771 
L 675.699363 106.321304 
L 676.27377 106.210238 
L 676.848176 105.799538 
L 677.422583 105.108946 
L 678.571395 103.075635 
L 680.294615 99.535584 
L 680.869021 98.590173 
L 681.443428 97.91205 
L 682.017834 97.575545 
L 682.592241 97.637237 
L 683.166647 98.132199 
L 683.741054 99.071711 
L 684.31546 100.442617 
L 685.464273 104.311582 
L 687.187493 111.853719 
L 688.910712 119.398289 
L 690.059525 123.477292 
L 691.208338 126.529398 
L 692.357151 128.706717 
L 694.654777 132.251929 
L 695.80359 134.651299 
L 696.952403 137.890279 
L 698.101216 141.904033 
L 700.398842 150.448027 
L 701.547655 153.652832 
L 702.122061 154.711532 
L 702.696468 155.337189 
L 703.270874 155.503283 
L 703.845281 155.207215 
L 704.419687 154.470746 
L 704.994094 153.338753 
L 706.142907 150.164929 
L 709.014939 141.124735 
L 709.589346 139.801299 
L 710.163752 138.76566 
L 710.738159 138.030309 
L 711.312565 137.584929 
L 711.886972 137.397999 
L 712.461378 137.419909 
L 713.610191 137.828745 
L 714.759004 138.240843 
L 715.333411 138.280168 
L 715.907817 138.141336 
L 716.482224 137.795891 
L 717.05663 137.236067 
L 718.205443 135.549387 
L 720.503069 131.438034 
L 721.077475 130.695032 
L 721.651882 130.217484 
L 722.226288 130.063227 
L 722.800695 130.271811 
L 723.375101 130.861107 
L 723.949508 131.825426 
L 724.523914 133.135278 
L 725.672727 136.564772 
L 727.970353 144.26157 
L 729.119166 147.037113 
L 729.693573 147.897372 
L 730.267979 148.356055 
L 730.842386 148.404893 
L 731.416792 148.059152 
L 731.991199 147.35588 
L 732.565605 146.350642 
L 733.714418 143.720941 
L 736.012044 138.131916 
L 737.160857 136.086353 
L 738.30967 134.684179 
L 740.607296 132.423906 
L 741.181702 131.575302 
L 741.756109 130.476237 
L 742.330515 129.075911 
L 743.479328 125.261365 
L 744.628141 120.132145 
L 746.351361 110.831711 
L 748.07458 101.667533 
L 749.223393 96.848221 
L 749.7978 95.025888 
L 750.372206 93.637129 
L 750.946613 92.683504 
L 751.521019 92.14263 
L 752.095426 91.970115 
L 752.669832 92.10301 
L 753.244239 92.464501 
L 755.541865 94.499935 
L 756.116271 94.775839 
L 756.690677 94.853414 
L 757.265084 94.713996 
L 757.83949 94.360836 
L 758.988303 93.129262 
L 761.285929 90.179494 
L 761.860336 89.736846 
L 762.434742 89.527172 
L 763.009149 89.582397 
L 763.583555 89.913875 
L 764.157962 90.510783 
L 765.306775 92.348554 
L 767.604401 96.600796 
L 768.178807 97.274535 
L 768.753214 97.628233 
L 769.32762 97.602573 
L 769.902027 97.15873 
L 770.476433 96.281137 
L 771.05084 94.97866 
L 772.199653 91.252002 
L 773.922872 83.91844 
L 775.646091 76.641758 
L 776.794904 72.865068 
L 777.369311 71.427505 
L 777.943717 70.297088 
L 778.518124 69.451406 
L 779.09253 68.848827 
L 780.241343 68.134843 
L 781.390156 67.610234 
L 781.964563 67.249579 
L 782.538969 66.75179 
L 783.113376 66.083322 
L 784.262189 64.20184 
L 785.985408 60.44901 
L 787.134221 58.062229 
L 787.708628 57.148741 
L 788.283034 56.528927 
L 788.857441 56.270077 
L 789.431847 56.422805 
L 790.006254 57.017068 
L 790.58066 58.059601 
L 791.155067 59.532946 
L 792.30388 63.587168 
L 794.027099 71.276969 
L 795.750318 78.642964 
L 796.899131 82.309931 
L 797.473538 83.644251 
L 798.047944 84.642272 
L 798.622351 85.329573 
L 799.196757 85.751467 
L 799.771164 85.968983 
L 802.06879 86.264139 
L 802.643196 86.54095 
L 803.217603 86.998843 
L 803.792009 87.65661 
L 804.940822 89.540297 
L 807.812855 95.307593 
L 808.387261 96.07791 
L 808.961668 96.561439 
L 809.536074 96.714622 
L 810.110481 96.514248 
L 810.684887 95.959844 
L 811.259294 95.07446 
L 812.408107 92.513677 
L 814.705732 86.530273 
L 815.280139 85.404933 
L 815.854545 84.597385 
L 816.428952 84.166368 
L 817.003358 84.14907 
L 817.577765 84.559038 
L 818.152171 85.38574 
L 818.726578 86.595787 
L 819.875391 89.936311 
L 823.32183 101.742243 
L 824.470643 104.603377 
L 825.619456 106.744923 
L 827.917082 110.454694 
L 829.065895 113.092485 
L 830.214708 116.794768 
L 831.363521 121.619449 
L 833.661146 133.172823 
L 834.809959 138.576192 
L 835.958772 142.781533 
L 836.533179 144.27101 
L 837.107585 145.304365 
L 837.681992 145.875782 
L 838.256398 146.003813 
L 838.830805 145.729943 
L 839.405211 145.115585 
L 840.554024 143.183597 
L 842.277244 139.86033 
L 843.426057 138.270637 
L 844.000463 137.809265 
L 844.57487 137.586834 
L 845.149276 137.588352 
L 845.723683 137.778772 
L 846.872496 138.507201 
L 848.021309 139.245901 
L 848.595715 139.446535 
L 849.170122 139.457605 
L 849.744528 139.239656 
L 850.318935 138.77248 
L 850.893341 138.057287 
L 852.042154 135.996483 
L 854.33978 131.13235 
L 854.914186 130.243914 
L 855.488593 129.649106 
L 856.062999 129.409469 
L 856.637406 129.567327 
L 857.211812 130.142569 
L 857.786219 131.13095 
L 858.360625 132.504072 
L 859.509438 136.181548 
L 862.381471 146.816045 
L 863.530284 149.814343 
L 864.10469 150.811195 
L 864.679097 151.456227 
L 865.253503 151.765149 
L 865.82791 151.774366 
L 866.402316 151.537523 
L 867.551129 150.597558 
L 868.699942 149.523434 
L 869.274349 149.100671 
L 869.848755 148.817143 
L 870.423162 148.697424 
L 870.997568 148.745088 
L 872.146381 149.25048 
L 873.8696 150.219645 
L 874.444007 150.303263 
L 875.018413 150.136757 
L 875.59282 149.652527 
L 876.167226 148.79782 
L 876.741633 147.539084 
L 877.316039 145.86501 
L 878.464852 141.344139 
L 879.613665 135.605049 
L 882.485698 120.479316 
L 883.634511 115.97565 
L 884.208917 114.282021 
L 884.783324 112.972501 
L 885.35773 112.026817 
L 885.932137 111.403529 
L 886.506543 111.043628 
L 887.655356 110.81978 
L 888.804169 110.732127 
L 889.378576 110.560877 
L 889.952982 110.234403 
L 890.527389 109.722798 
L 891.101795 109.017189 
L 892.250608 107.09486 
L 894.548234 102.65292 
L 895.12264 101.824501 
L 895.697047 101.243957 
L 896.271453 100.959002 
L 896.84586 100.998553 
L 897.420266 101.369849 
L 897.994673 102.057112 
L 898.569079 103.021864 
L 899.717892 105.529706 
L 901.441112 109.436739 
L 902.015518 110.40121 
L 902.589925 111.055972 
L 903.164331 111.338525 
L 903.738738 111.207157 
L 904.313144 110.643524 
L 904.887551 109.653635 
L 905.461957 108.26715 
L 906.61077 104.525855 
L 910.057209 91.328678 
L 911.206022 88.141512 
L 912.354835 85.876642 
L 913.503648 84.247785 
L 915.226867 81.887558 
L 916.37568 79.618128 
L 917.524493 76.433073 
L 918.673306 72.37783 
L 921.545339 61.511803 
L 922.119745 59.892968 
L 922.694152 58.648132 
L 923.268558 57.832012 
L 923.842965 57.478009 
L 924.417371 57.595809 
L 924.991778 58.170623 
L 925.566184 59.16409 
L 926.714997 62.152312 
L 930.161436 72.872883 
L 930.735843 74.09497 
L 931.310249 75.044884 
L 931.884655 75.728829 
L 932.459062 76.174313 
L 933.033468 76.427297 
L 934.182281 76.605705 
L 935.331094 76.819255 
L 935.905501 77.105826 
L 936.479907 77.579931 
L 937.054314 78.271082 
L 937.62872 79.188273 
L 938.777533 81.628839 
L 941.649566 88.580011 
L 942.223972 89.493946 
L 942.798379 90.079518 
L 943.372785 90.291074 
L 943.947192 90.104305 
L 944.521598 89.518439 
L 945.096005 88.556807 
L 946.244818 85.711802 
L 949.11685 77.149001 
L 949.691257 75.923304 
L 950.265663 75.030755 
L 950.840069 74.508288 
L 951.414476 74.369635 
L 951.988882 74.605118 
L 952.563289 75.183098 
L 953.137695 76.052959 
L 954.286508 78.397857 
L 956.584134 83.424018 
L 957.732947 85.197546 
L 958.88176 86.325282 
L 961.179386 88.020745 
L 961.753793 88.732381 
L 962.328199 89.702154 
L 962.902606 90.985156 
L 963.477012 92.618967 
L 964.625825 96.982308 
L 965.774638 102.647904 
L 969.221077 121.618431 
L 970.36989 126.215555 
L 970.944296 127.901573 
L 971.518703 129.160092 
L 972.093109 130.006727 
L 972.667516 130.479448 
L 973.241922 130.63542 
L 973.816329 130.546533 
L 974.965142 129.962138 
L 976.113955 129.378027 
L 976.688361 129.257299 
L 977.262768 129.31125 
L 977.837174 129.560113 
L 978.411581 130.002417 
L 979.560394 131.357957 
L 981.283613 133.744103 
L 981.85802 134.356816 
L 982.432426 134.76587 
L 983.006833 134.919218 
L 983.581239 134.781868 
L 984.155646 134.33924 
L 984.730052 133.599061 
L 985.878865 131.368338 
L 988.176491 125.885073 
L 988.750898 124.820644 
L 989.325304 124.051446 
L 989.89971 123.642864 
L 990.474117 123.640521 
L 991.048523 124.06721 
L 991.62293 124.921399 
L 992.197336 126.177394 
L 993.346149 129.683752 
L 996.218182 140.444999 
L 996.218182 140.444999 
" style="fill:none;stroke:#4c72b0;stroke-linecap:round;stroke-width:1.4;"/>
   </g>
   <g id="line2d_28">
    <path clip-path="url(#p7d463ac4aa)" d="M 184.581818 226.581922 
L 188.602664 236.560269 
L 196.069948 255.916094 
L 201.239606 269.014986 
L 204.686045 277.208997 
L 207.558078 283.543003 
L 210.43011 289.316809 
L 212.727736 293.46875 
L 215.025362 297.158102 
L 217.322988 300.346226 
L 219.046207 302.388083 
L 220.769427 304.117043 
L 222.492646 305.522893 
L 224.215866 306.597317 
L 225.939085 307.333947 
L 227.662305 307.728394 
L 228.811118 307.8 
L 229.959931 307.718222 
L 231.108743 307.483253 
L 232.831963 306.844981 
L 234.555182 305.867148 
L 236.278402 304.555435 
L 238.001621 302.917478 
L 239.724841 300.962833 
L 241.44806 298.702912 
L 243.745686 295.237884 
L 246.043312 291.289822 
L 248.340938 286.899768 
L 251.21297 280.860603 
L 254.085003 274.300576 
L 257.531442 265.891594 
L 262.7011 252.593222 
L 271.317197 230.338965 
L 274.763636 222.013703 
L 277.635669 215.547022 
L 280.507701 209.621034 
L 282.805327 205.334573 
L 285.102953 201.500542 
L 287.400579 198.158796 
L 289.123798 195.996638 
L 290.847018 194.143663 
L 292.570237 192.610689 
L 294.293457 191.406654 
L 296.016676 190.538566 
L 297.739896 190.011459 
L 298.888709 189.851068 
L 300.037522 189.844015 
L 301.186335 189.9903 
L 302.335148 190.289521 
L 304.058367 191.023255 
L 305.781587 192.094837 
L 307.504806 193.497916 
L 309.228025 195.224193 
L 310.951245 197.263473 
L 312.674464 199.603721 
L 314.97209 203.168129 
L 317.269716 207.205533 
L 319.567342 211.673664 
L 322.439375 217.792915 
L 325.885814 225.786187 
L 329.906659 235.769085 
L 337.373943 255.127208 
L 342.543602 268.222957 
L 345.990041 276.412816 
L 348.862073 282.742192 
L 351.734105 288.51039 
L 354.031731 292.657207 
L 356.329357 296.340928 
L 358.626983 299.522977 
L 360.350203 301.560026 
L 362.073422 303.283996 
L 363.796642 304.684703 
L 365.519861 305.753864 
L 367.24308 306.485142 
L 368.9663 306.874182 
L 370.115113 306.942169 
L 371.263926 306.856772 
L 372.412739 306.618194 
L 374.135958 305.974548 
L 375.859178 304.991419 
L 377.582397 303.674518 
L 379.305617 302.031516 
L 381.028836 300.071998 
L 382.752056 297.807407 
L 385.049682 294.336516 
L 387.347307 290.383067 
L 389.644933 285.988161 
L 392.516966 279.943765 
L 395.388998 273.37952 
L 398.835437 264.966915 
L 404.005096 251.666241 
L 412.621193 229.416767 
L 416.067632 221.096351 
L 418.939664 214.634893 
L 421.811697 208.715123 
L 424.109323 204.434288 
L 426.406948 200.606405 
L 428.704574 197.271266 
L 430.427794 195.114324 
L 432.151013 193.266759 
L 433.874233 191.739357 
L 435.597452 190.541025 
L 437.320672 189.678738 
L 439.043891 189.157498 
L 440.192704 189.001039 
L 441.341517 188.997923 
L 442.49033 189.148139 
L 443.639143 189.451277 
L 445.362362 190.190836 
L 447.085582 191.268155 
L 448.808801 192.67685 
L 450.532021 194.408591 
L 452.25524 196.453152 
L 453.97846 198.798468 
L 456.276086 202.369254 
L 458.573712 206.412544 
L 460.871338 210.886012 
L 463.74337 217.011081 
L 467.189809 225.00997 
L 471.210654 234.997392 
L 478.677939 254.357758 
L 483.847597 267.450328 
L 487.294036 275.63601 
L 490.166068 281.960736 
L 493.038101 287.723309 
L 495.335727 291.864988 
L 497.633353 295.543065 
L 499.930979 298.719027 
L 501.654198 300.75126 
L 503.377417 302.47023 
L 505.100637 303.865787 
L 506.823856 304.929678 
L 508.547076 305.655598 
L 510.270295 306.039225 
L 511.419108 306.10359 
L 512.567921 306.01457 
L 513.716734 305.77238 
L 515.439954 305.123355 
L 517.163173 304.134925 
L 518.886393 302.812834 
L 520.609612 301.164784 
L 522.332831 299.20039 
L 524.056051 296.931127 
L 526.353677 293.454372 
L 528.651303 289.495535 
L 530.948929 285.095778 
L 533.820961 279.046152 
L 536.692994 272.477688 
L 540.139433 264.061464 
L 545.309091 250.758493 
L 553.925188 228.51381 
L 557.371627 220.198243 
L 560.24366 213.74201 
L 563.115692 207.828457 
L 565.413318 203.553249 
L 567.710944 199.731512 
L 570.00857 196.402977 
L 571.731789 194.251251 
L 573.455009 192.409094 
L 575.178228 190.88726 
L 576.901448 189.694627 
L 578.624667 188.838137 
L 580.347887 188.32276 
L 581.496699 188.17023 
L 582.645512 188.171047 
L 583.794325 188.32519 
L 584.943138 188.632241 
L 586.666358 189.377619 
L 588.389577 190.460668 
L 590.112797 191.874972 
L 591.836016 193.612169 
L 593.559236 195.662001 
L 595.282455 198.012377 
L 597.580081 201.589528 
L 599.877707 205.638691 
L 602.175333 210.117481 
L 605.047365 216.24835 
L 608.493804 224.252833 
L 612.51465 234.24475 
L 620.55634 255.092553 
L 625.151592 266.696659 
L 628.598031 274.878142 
L 631.470064 281.1982 
L 634.342096 286.955129 
L 636.639722 291.091656 
L 638.937348 294.764077 
L 641.234974 297.933939 
L 642.958193 299.961347 
L 644.681413 301.67531 
L 646.404632 303.06571 
L 648.127852 304.124323 
L 649.851071 304.844878 
L 651.574291 305.223087 
L 652.723104 305.283825 
L 653.871917 305.191179 
L 655.02073 304.945374 
L 656.743949 304.290967 
L 658.467169 303.297233 
L 660.190388 301.969948 
L 661.913607 300.316847 
L 663.636827 298.347576 
L 665.360046 296.073638 
L 667.657672 292.591018 
L 669.955298 288.626792 
L 672.252924 284.222183 
L 675.124957 278.167328 
L 677.996989 271.594648 
L 681.443428 263.174806 
L 686.613086 249.869544 
L 695.229184 227.629662 
L 698.675622 219.318946 
L 701.547655 212.867939 
L 704.419687 206.960605 
L 706.717313 202.691023 
L 709.014939 198.87543 
L 711.312565 195.553499 
L 713.035785 193.406987 
L 714.759004 191.570234 
L 716.482224 190.053967 
L 718.205443 188.86703 
L 719.928662 188.016333 
L 721.651882 187.506814 
L 722.800695 187.358209 
L 723.949508 187.362955 
L 725.098321 187.521023 
L 726.247134 187.831982 
L 727.970353 188.583173 
L 729.693573 189.671945 
L 731.416792 191.09185 
L 733.140012 192.834495 
L 734.863231 194.889591 
L 736.58645 197.245017 
L 738.884076 200.828521 
L 741.181702 204.883543 
L 743.479328 209.367641 
L 746.351361 215.504291 
L 749.7978 223.514346 
L 753.818645 233.51073 
L 761.860336 254.360496 
L 766.455588 265.961522 
L 769.902027 274.138783 
L 772.774059 280.454154 
L 775.646091 286.205421 
L 777.943717 290.336783 
L 780.241343 294.003534 
L 782.538969 297.167285 
L 784.262189 299.18986 
L 785.985408 300.898809 
L 787.708628 302.284043 
L 789.431847 303.337372 
L 791.155067 304.052557 
L 792.878286 304.425341 
L 794.027099 304.482449 
L 795.175912 304.386174 
L 796.324725 304.13675 
L 798.047944 303.476956 
L 799.771164 302.477914 
L 801.494383 301.145433 
L 803.217603 299.487278 
L 804.940822 297.513128 
L 806.664042 295.234515 
L 808.961668 291.746028 
L 811.259294 287.776413 
L 813.55692 283.366951 
L 816.428952 277.306868 
L 819.300984 270.729975 
L 822.747423 262.306518 
L 827.917082 248.99897 
L 836.533179 226.763898 
L 839.979618 218.458037 
L 842.85165 212.012257 
L 845.723683 206.111143 
L 848.021309 201.847187 
L 850.318935 198.037739 
L 852.616561 194.722409 
L 854.33978 192.581108 
L 856.062999 190.749759 
L 857.786219 189.239055 
L 859.509438 188.05781 
L 861.232658 187.212903 
L 862.955877 186.709238 
L 864.10469 186.564555 
L 865.253503 186.573228 
L 866.402316 186.735216 
L 868.125536 187.264594 
L 869.848755 188.134686 
L 871.571975 189.340329 
L 873.295194 190.874387 
L 875.018413 192.727799 
L 876.741633 194.889628 
L 878.464852 197.347126 
L 880.762478 201.058449 
L 883.060104 205.230615 
L 885.35773 209.819965 
L 888.229763 216.069798 
L 891.676202 224.186334 
L 895.697047 234.263433 
L 909.482803 269.402425 
L 912.929241 277.266139 
L 915.801274 283.249575 
L 918.0989 287.592409 
L 920.396526 291.49114 
L 922.694152 294.90496 
L 924.417371 297.125396 
L 926.140591 299.03976 
L 927.86381 300.636757 
L 929.58703 301.906955 
L 931.310249 302.842842 
L 933.033468 303.438869 
L 934.182281 303.64557 
L 935.331094 303.699045 
L 936.479907 303.599138 
L 937.62872 303.346092 
L 939.35194 302.680908 
L 941.075159 301.676554 
L 942.798379 300.338874 
L 944.521598 298.675663 
L 946.244818 296.696631 
L 947.968037 294.413342 
L 950.265663 290.918986 
L 952.563289 286.943981 
L 954.860915 282.529668 
L 957.732947 276.464358 
L 960.60498 269.883253 
L 964.051419 261.456185 
L 969.221077 248.146358 
L 977.262768 227.347845 
L 981.283613 217.615101 
L 984.155646 211.174552 
L 987.027678 205.279658 
L 989.325304 201.021328 
L 991.62293 197.218024 
L 993.920556 193.909294 
L 995.643775 191.773204 
L 996.218182 191.129529 
L 996.218182 191.129529 
" style="fill:none;stroke:#55a868;stroke-linecap:round;stroke-width:1.4;"/>
   </g>
   <g id="patch_3">
    <path d="M 144 320.4 
L 144 43.2 
" style="fill:none;"/>
   </g>
   <g id="patch_4">
    <path d="M 1036.8 320.4 
L 1036.8 43.2 
" style="fill:none;"/>
   </g>
   <g id="patch_5">
    <path d="M 144 320.4 
L 1036.8 320.4 
" style="fill:none;"/>
   </g>
   <g id="patch_6">
    <path d="M 144 43.2 
L 1036.8 43.2 
" style="fill:none;"/>
   </g>
   <g id="legend_1">
    <g id="line2d_29">
     <path d="M 1002.75125 53.3975 
L 1018.75125 53.3975 
" style="fill:none;stroke:#4c72b0;stroke-linecap:round;stroke-width:1.4;"/>
    </g>
    <g id="line2d_30"/>
    <g id="text_14">
     <!-- a -->
     <defs>
      <path d="M 20.21875 -0.984375 
Q 12.25 -0.984375 8.25 3.21875 
Q 4.25 7.421875 4.25 14.75 
Q 4.25 19.96875 6.21875 23.3125 
Q 8.203125 26.65625 11.390625 28.5625 
Q 14.59375 30.46875 18.6875 31.203125 
Q 22.796875 31.9375 27.046875 32.03125 
L 38.921875 32.234375 
L 38.921875 35.109375 
Q 38.921875 38.375 38.234375 40.671875 
Q 37.546875 42.96875 36.125 44.375 
Q 34.71875 45.796875 32.59375 46.453125 
Q 30.46875 47.125 27.59375 47.125 
Q 25.046875 47.125 23 46.75 
Q 20.953125 46.390625 19.4375 45.4375 
Q 17.921875 44.484375 16.984375 42.84375 
Q 16.0625 41.21875 15.765625 38.71875 
L 6.59375 39.546875 
Q 7.078125 42.671875 8.4375 45.28125 
Q 9.8125 47.90625 12.328125 49.796875 
Q 14.84375 51.703125 18.625 52.75 
Q 22.40625 53.8125 27.78125 53.8125 
Q 37.75 53.8125 42.765625 49.234375 
Q 47.796875 44.671875 47.796875 36.03125 
L 47.796875 13.28125 
Q 47.796875 9.375 48.828125 7.390625 
Q 49.859375 5.421875 52.734375 5.421875 
Q 53.46875 5.421875 54.203125 5.515625 
Q 54.9375 5.609375 55.609375 5.765625 
L 55.609375 0.296875 
Q 53.953125 -0.09375 52.3125 -0.28125 
Q 50.6875 -0.484375 48.828125 -0.484375 
Q 46.34375 -0.484375 44.5625 0.171875 
Q 42.78125 0.828125 41.65625 2.171875 
Q 40.53125 3.515625 39.9375 5.484375 
Q 39.359375 7.46875 39.203125 10.109375 
L 38.921875 10.109375 
Q 37.5 7.5625 35.8125 5.515625 
Q 34.125 3.46875 31.875 2.03125 
Q 29.640625 0.59375 26.78125 -0.1875 
Q 23.921875 -0.984375 20.21875 -0.984375 
M 22.21875 5.609375 
Q 26.421875 5.609375 29.5625 7.140625 
Q 32.71875 8.6875 34.78125 11.078125 
Q 36.859375 13.484375 37.890625 16.3125 
Q 38.921875 19.140625 38.921875 21.734375 
L 38.921875 26.078125 
L 29.296875 25.875 
Q 26.078125 25.828125 23.171875 25.40625 
Q 20.265625 25 18.0625 23.78125 
Q 15.875 22.5625 14.578125 20.359375 
Q 13.28125 18.171875 13.28125 14.59375 
Q 13.28125 10.296875 15.59375 7.953125 
Q 17.921875 5.609375 22.21875 5.609375 
" id="LiberationSans-61"/>
     </defs>
     <g style="fill:#262626;" transform="translate(1025.15125 56.1975)scale(0.08 -0.08)">
      <use xlink:href="#LiberationSans-61"/>
     </g>
    </g>
    <g id="line2d_31">
     <path d="M 1002.75125 64.855 
L 1018.75125 64.855 
" style="fill:none;stroke:#55a868;stroke-linecap:round;stroke-width:1.4;"/>
    </g>
    <g id="line2d_32"/>
    <g id="text_15">
     <!-- b -->
     <defs>
      <path d="M 51.421875 26.65625 
Q 51.421875 -0.984375 31.984375 -0.984375 
Q 25.984375 -0.984375 22 1.1875 
Q 18.015625 3.375 15.53125 8.203125 
L 15.4375 8.203125 
Q 15.4375 6.9375 15.359375 5.5625 
Q 15.28125 4.203125 15.203125 3.03125 
Q 15.140625 1.859375 15.0625 1.03125 
Q 14.984375 0.203125 14.9375 0 
L 6.453125 0 
Q 6.5 0.4375 6.546875 1.484375 
Q 6.59375 2.546875 6.640625 4 
Q 6.6875 5.46875 6.703125 7.21875 
Q 6.734375 8.984375 6.734375 10.890625 
L 6.734375 72.46875 
L 15.53125 72.46875 
L 15.53125 51.8125 
Q 15.53125 50.34375 15.5 49 
Q 15.484375 47.65625 15.4375 46.625 
Q 15.375 45.40625 15.328125 44.34375 
L 15.53125 44.34375 
Q 17.96875 49.421875 22 51.609375 
Q 26.03125 53.8125 31.984375 53.8125 
Q 42 53.8125 46.703125 47.0625 
Q 51.421875 40.328125 51.421875 26.65625 
M 42.1875 26.375 
Q 42.1875 31.84375 41.5 35.75 
Q 40.828125 39.65625 39.3125 42.15625 
Q 37.796875 44.671875 35.453125 45.84375 
Q 33.109375 47.015625 29.734375 47.015625 
Q 26.265625 47.015625 23.609375 45.890625 
Q 20.953125 44.78125 19.171875 42.28125 
Q 17.390625 39.796875 16.453125 35.734375 
Q 15.53125 31.6875 15.53125 25.828125 
Q 15.53125 20.171875 16.453125 16.3125 
Q 17.390625 12.453125 19.171875 10.03125 
Q 20.953125 7.625 23.578125 6.5625 
Q 26.21875 5.515625 29.640625 5.515625 
Q 32.859375 5.515625 35.203125 6.640625 
Q 37.546875 7.765625 39.109375 10.25 
Q 40.671875 12.75 41.421875 16.71875 
Q 42.1875 20.703125 42.1875 26.375 
" id="LiberationSans-62"/>
     </defs>
     <g style="fill:#262626;" transform="translate(1025.15125 67.655)scale(0.08 -0.08)">
      <use xlink:href="#LiberationSans-62"/>
     </g>
    </g>
   </g>
  </g>
 </g>
 <defs>
  <clipPath id="p7d463ac4aa">
   <rect height="277.2" width="892.8" x="144" y="43.2"/>
  </clipPath>
 </defs>
</svg>
