<?xml version="1.0" encoding="utf-8" standalone="no"?>
<!DOCTYPE svg PUBLIC "-//W3C//DTD SVG 1.1//EN"
  "http://www.w3.org/Graphics/SVG/1.1/DTD/svg11.dtd">
<!-- Created with matplotlib (http://matplotlib.org/) -->
<svg height="360pt" version="1.1" viewBox="0 0 1152 360" width="1152pt" xmlns="http://www.w3.org/2000/svg" xmlns:xlink="http://www.w3.org/1999/xlink">
 <defs>
  <style type="text/css">
*{stroke-linecap:butt;stroke-linejoin:round;}
  </style>
 </defs>
 <g id="figure_1">
  <g id="patch_1">
   <path d="M 0 360 
L 1152 360 
L 1152 0 
L 0 0 
z
" style="fill:#ffffff;"/>
  </g>
  <g id="axes_1">
   <g id="patch_2">
    <path d="M 144 320.4 
L 1036.8 320.4 
L 1036.8 43.2 
L 144 43.2 
z
" style="fill:#eaeaf2;"/>
   </g>
   <g id="matplotlib.axis_1">
    <g id="xtick_1">
     <g id="line2d_1">
      <path clip-path="url(#pd5599c43cd)" d="M 184.581818 320.4 
L 184.581818 43.2 
" style="fill:none;stroke:#ffffff;stroke-linecap:round;stroke-width:0.8;"/>
     </g>
     <g id="line2d_2"/>
     <g id="text_1">
      <!-- 0 -->
      <defs>
       <path d="M 51.703125 34.421875 
Q 51.703125 24.515625 49.828125 17.75 
Q 47.953125 10.984375 44.703125 6.8125 
Q 41.453125 2.640625 37.0625 0.828125 
Q 32.671875 -0.984375 27.6875 -0.984375 
Q 22.65625 -0.984375 18.3125 0.828125 
Q 13.96875 2.640625 10.765625 6.78125 
Q 7.5625 10.9375 5.734375 17.703125 
Q 3.90625 24.46875 3.90625 34.421875 
Q 3.90625 44.828125 5.734375 51.640625 
Q 7.5625 58.453125 10.78125 62.5 
Q 14.015625 66.546875 18.40625 68.1875 
Q 22.796875 69.828125 27.984375 69.828125 
Q 32.90625 69.828125 37.21875 68.1875 
Q 41.546875 66.546875 44.765625 62.5 
Q 48 58.453125 49.84375 51.640625 
Q 51.703125 44.828125 51.703125 34.421875 
M 42.78125 34.421875 
Q 42.78125 42.625 41.796875 48.0625 
Q 40.828125 53.515625 38.921875 56.765625 
Q 37.015625 60.015625 34.25 61.359375 
Q 31.5 62.703125 27.984375 62.703125 
Q 24.265625 62.703125 21.4375 61.328125 
Q 18.609375 59.96875 16.671875 56.71875 
Q 14.75 53.46875 13.765625 48.015625 
Q 12.796875 42.578125 12.796875 34.421875 
Q 12.796875 26.515625 13.796875 21.09375 
Q 14.796875 15.671875 16.71875 12.375 
Q 18.65625 9.078125 21.4375 7.640625 
Q 24.21875 6.203125 27.78125 6.203125 
Q 31.25 6.203125 34.03125 7.640625 
Q 36.8125 9.078125 38.734375 12.375 
Q 40.671875 15.671875 41.71875 21.09375 
Q 42.78125 26.515625 42.78125 34.421875 
" id="LiberationSans-30"/>
      </defs>
      <g style="fill:#262626;" transform="translate(182.357443 331.7975)scale(0.08 -0.08)">
       <use xlink:href="#LiberationSans-30"/>
      </g>
     </g>
    </g>
    <g id="xtick_2">
     <g id="line2d_3">
      <path clip-path="url(#pd5599c43cd)" d="M 299.625952 320.4 
L 299.625952 43.2 
" style="fill:none;stroke:#ffffff;stroke-linecap:round;stroke-width:0.8;"/>
     </g>
     <g id="line2d_4"/>
     <g id="text_2">
      <!-- 200 -->
      <defs>
       <path d="M 5.03125 0 
L 5.03125 6.203125 
Q 7.515625 11.921875 11.109375 16.28125 
Q 14.703125 20.65625 18.65625 24.1875 
Q 22.609375 27.734375 26.484375 30.765625 
Q 30.375 33.796875 33.5 36.8125 
Q 36.625 39.84375 38.546875 43.15625 
Q 40.484375 46.484375 40.484375 50.6875 
Q 40.484375 53.609375 39.59375 55.828125 
Q 38.71875 58.0625 37.0625 59.5625 
Q 35.40625 61.078125 33.078125 61.828125 
Q 30.765625 62.59375 27.9375 62.59375 
Q 25.296875 62.59375 22.96875 61.859375 
Q 20.65625 61.140625 18.84375 59.671875 
Q 17.046875 58.203125 15.890625 56.03125 
Q 14.75 53.859375 14.40625 50.984375 
L 5.421875 51.8125 
Q 5.859375 55.515625 7.46875 58.78125 
Q 9.078125 62.0625 11.90625 64.53125 
Q 14.75 67 18.71875 68.40625 
Q 22.703125 69.828125 27.9375 69.828125 
Q 33.0625 69.828125 37.0625 68.609375 
Q 41.0625 67.390625 43.8125 64.984375 
Q 46.578125 62.59375 48.046875 59.078125 
Q 49.515625 55.5625 49.515625 50.984375 
Q 49.515625 47.515625 48.265625 44.390625 
Q 47.015625 41.265625 44.9375 38.421875 
Q 42.875 35.59375 40.140625 32.953125 
Q 37.40625 30.328125 34.421875 27.8125 
Q 31.453125 25.296875 28.421875 22.828125 
Q 25.390625 20.359375 22.71875 17.859375 
Q 20.0625 15.375 17.96875 12.8125 
Q 15.875 10.25 14.703125 7.46875 
L 50.59375 7.46875 
L 50.59375 0 
z
" id="LiberationSans-32"/>
      </defs>
      <g style="fill:#262626;" transform="translate(292.952827 331.7975)scale(0.08 -0.08)">
       <use xlink:href="#LiberationSans-32"/>
       <use x="55.615234" xlink:href="#LiberationSans-30"/>
       <use x="111.230469" xlink:href="#LiberationSans-30"/>
      </g>
     </g>
    </g>
    <g id="xtick_3">
     <g id="line2d_5">
      <path clip-path="url(#pd5599c43cd)" d="M 414.670086 320.4 
L 414.670086 43.2 
" style="fill:none;stroke:#ffffff;stroke-linecap:round;stroke-width:0.8;"/>
     </g>
     <g id="line2d_6"/>
     <g id="text_3">
      <!-- 400 -->
      <defs>
       <path d="M 43.015625 15.578125 
L 43.015625 0 
L 34.71875 0 
L 34.71875 15.578125 
L 2.296875 15.578125 
L 2.296875 22.40625 
L 33.796875 68.796875 
L 43.015625 68.796875 
L 43.015625 22.515625 
L 52.6875 22.515625 
L 52.6875 15.578125 
z
M 34.71875 58.890625 
Q 34.625 58.640625 34.234375 57.9375 
Q 33.84375 57.234375 33.34375 56.34375 
Q 32.859375 55.46875 32.34375 54.5625 
Q 31.84375 53.65625 31.453125 53.078125 
L 13.8125 27.09375 
Q 13.578125 26.703125 13.109375 26.0625 
Q 12.640625 25.4375 12.15625 24.78125 
Q 11.671875 24.125 11.171875 23.484375 
Q 10.6875 22.859375 10.40625 22.515625 
L 34.71875 22.515625 
z
" id="LiberationSans-34"/>
      </defs>
      <g style="fill:#262626;" transform="translate(407.996961 331.7975)scale(0.08 -0.08)">
       <use xlink:href="#LiberationSans-34"/>
       <use x="55.615234" xlink:href="#LiberationSans-30"/>
       <use x="111.230469" xlink:href="#LiberationSans-30"/>
      </g>
     </g>
    </g>
    <g id="xtick_4">
     <g id="line2d_7">
      <path clip-path="url(#pd5599c43cd)" d="M 529.714219 320.4 
L 529.714219 43.2 
" style="fill:none;stroke:#ffffff;stroke-linecap:round;stroke-width:0.8;"/>
     </g>
     <g id="line2d_8"/>
     <g id="text_4">
      <!-- 600 -->
      <defs>
       <path d="M 51.21875 22.515625 
Q 51.21875 17.328125 49.78125 13 
Q 48.34375 8.6875 45.53125 5.578125 
Q 42.71875 2.484375 38.5625 0.75 
Q 34.421875 -0.984375 29 -0.984375 
Q 23 -0.984375 18.5 1.3125 
Q 14.015625 3.609375 11.03125 7.921875 
Q 8.0625 12.25 6.5625 18.53125 
Q 5.078125 24.8125 5.078125 32.8125 
Q 5.078125 42 6.765625 48.921875 
Q 8.453125 55.859375 11.625 60.5 
Q 14.796875 65.140625 19.359375 67.484375 
Q 23.921875 69.828125 29.6875 69.828125 
Q 33.203125 69.828125 36.28125 69.09375 
Q 39.359375 68.359375 41.875 66.71875 
Q 44.390625 65.09375 46.28125 62.40625 
Q 48.1875 59.71875 49.3125 55.8125 
L 40.921875 54.296875 
Q 39.546875 58.734375 36.546875 60.71875 
Q 33.546875 62.703125 29.59375 62.703125 
Q 25.984375 62.703125 23.046875 60.984375 
Q 20.125 59.28125 18.0625 55.875 
Q 16.015625 52.484375 14.90625 47.359375 
Q 13.8125 42.234375 13.8125 35.40625 
Q 16.21875 39.84375 20.5625 42.15625 
Q 24.90625 44.484375 30.515625 44.484375 
Q 35.203125 44.484375 39.015625 42.96875 
Q 42.828125 41.453125 45.53125 38.59375 
Q 48.25 35.75 49.734375 31.671875 
Q 51.21875 27.59375 51.21875 22.515625 
M 42.28125 22.125 
Q 42.28125 25.6875 41.40625 28.5625 
Q 40.53125 31.453125 38.765625 33.46875 
Q 37.015625 35.5 34.421875 36.59375 
Q 31.84375 37.703125 28.421875 37.703125 
Q 26.03125 37.703125 23.578125 36.984375 
Q 21.140625 36.28125 19.15625 34.6875 
Q 17.1875 33.109375 15.9375 30.515625 
Q 14.703125 27.9375 14.703125 24.21875 
Q 14.703125 20.40625 15.671875 17.109375 
Q 16.65625 13.8125 18.484375 11.375 
Q 20.3125 8.9375 22.890625 7.515625 
Q 25.484375 6.109375 28.71875 6.109375 
Q 31.890625 6.109375 34.40625 7.203125 
Q 36.921875 8.296875 38.671875 10.375 
Q 40.4375 12.453125 41.359375 15.421875 
Q 42.28125 18.40625 42.28125 22.125 
" id="LiberationSans-36"/>
      </defs>
      <g style="fill:#262626;" transform="translate(523.041094 331.7975)scale(0.08 -0.08)">
       <use xlink:href="#LiberationSans-36"/>
       <use x="55.615234" xlink:href="#LiberationSans-30"/>
       <use x="111.230469" xlink:href="#LiberationSans-30"/>
      </g>
     </g>
    </g>
    <g id="xtick_5">
     <g id="line2d_9">
      <path clip-path="url(#pd5599c43cd)" d="M 644.758353 320.4 
L 644.758353 43.2 
" style="fill:none;stroke:#ffffff;stroke-linecap:round;stroke-width:0.8;"/>
     </g>
     <g id="line2d_10"/>
     <g id="text_5">
      <!-- 800 -->
      <defs>
       <path d="M 51.265625 19.1875 
Q 51.265625 14.796875 49.875 11.109375 
Q 48.484375 7.421875 45.625 4.734375 
Q 42.78125 2.046875 38.328125 0.53125 
Q 33.890625 -0.984375 27.828125 -0.984375 
Q 21.78125 -0.984375 17.359375 0.53125 
Q 12.9375 2.046875 10.03125 4.703125 
Q 7.125 7.375 5.734375 11.0625 
Q 4.34375 14.75 4.34375 19.09375 
Q 4.34375 22.859375 5.484375 25.78125 
Q 6.640625 28.71875 8.5625 30.828125 
Q 10.5 32.953125 12.96875 34.25 
Q 15.4375 35.546875 18.0625 35.984375 
L 18.0625 36.1875 
Q 15.1875 36.859375 12.90625 38.375 
Q 10.640625 39.890625 9.09375 42.015625 
Q 7.5625 44.140625 6.75 46.71875 
Q 5.953125 49.3125 5.953125 52.203125 
Q 5.953125 55.8125 7.34375 59 
Q 8.734375 62.203125 11.46875 64.625 
Q 14.203125 67.046875 18.25 68.4375 
Q 22.3125 69.828125 27.640625 69.828125 
Q 33.25 69.828125 37.375 68.40625 
Q 41.5 67 44.203125 64.578125 
Q 46.921875 62.15625 48.234375 58.9375 
Q 49.5625 55.71875 49.5625 52.09375 
Q 49.5625 49.265625 48.75 46.671875 
Q 47.953125 44.09375 46.40625 41.96875 
Q 44.875 39.84375 42.59375 38.34375 
Q 40.328125 36.859375 37.359375 36.28125 
L 37.359375 36.078125 
Q 40.328125 35.59375 42.859375 34.296875 
Q 45.40625 33.015625 47.265625 30.890625 
Q 49.125 28.765625 50.1875 25.828125 
Q 51.265625 22.90625 51.265625 19.1875 
M 40.4375 51.609375 
Q 40.4375 54.203125 39.765625 56.34375 
Q 39.109375 58.5 37.59375 60.03125 
Q 36.078125 61.578125 33.640625 62.421875 
Q 31.203125 63.28125 27.640625 63.28125 
Q 24.171875 63.28125 21.78125 62.421875 
Q 19.390625 61.578125 17.84375 60.03125 
Q 16.3125 58.5 15.625 56.34375 
Q 14.9375 54.203125 14.9375 51.609375 
Q 14.9375 49.5625 15.46875 47.40625 
Q 16.015625 45.265625 17.421875 43.5 
Q 18.84375 41.75 21.328125 40.625 
Q 23.828125 39.5 27.734375 39.5 
Q 31.890625 39.5 34.40625 40.625 
Q 36.921875 41.75 38.25 43.5 
Q 39.59375 45.265625 40.015625 47.40625 
Q 40.4375 49.5625 40.4375 51.609375 
M 42.140625 20.015625 
Q 42.140625 22.515625 41.453125 24.828125 
Q 40.765625 27.15625 39.109375 28.9375 
Q 37.453125 30.71875 34.640625 31.8125 
Q 31.84375 32.90625 27.640625 32.90625 
Q 23.78125 32.90625 21.0625 31.8125 
Q 18.359375 30.71875 16.671875 28.90625 
Q 14.984375 27.09375 14.203125 24.71875 
Q 13.421875 22.359375 13.421875 19.828125 
Q 13.421875 16.65625 14.203125 14.03125 
Q 14.984375 11.421875 16.6875 9.546875 
Q 18.40625 7.671875 21.1875 6.640625 
Q 23.96875 5.609375 27.9375 5.609375 
Q 31.9375 5.609375 34.671875 6.640625 
Q 37.40625 7.671875 39.0625 9.546875 
Q 40.71875 11.421875 41.421875 14.078125 
Q 42.140625 16.75 42.140625 20.015625 
" id="LiberationSans-38"/>
      </defs>
      <g style="fill:#262626;" transform="translate(638.085228 331.7975)scale(0.08 -0.08)">
       <use xlink:href="#LiberationSans-38"/>
       <use x="55.615234" xlink:href="#LiberationSans-30"/>
       <use x="111.230469" xlink:href="#LiberationSans-30"/>
      </g>
     </g>
    </g>
    <g id="xtick_6">
     <g id="line2d_11">
      <path clip-path="url(#pd5599c43cd)" d="M 759.802487 320.4 
L 759.802487 43.2 
" style="fill:none;stroke:#ffffff;stroke-linecap:round;stroke-width:0.8;"/>
     </g>
     <g id="line2d_12"/>
     <g id="text_6">
      <!-- 1000 -->
      <defs>
       <path d="M 7.625 0 
L 7.625 7.46875 
L 25.140625 7.46875 
L 25.140625 60.40625 
L 9.625 49.3125 
L 9.625 57.625 
L 25.875 68.796875 
L 33.984375 68.796875 
L 33.984375 7.46875 
L 50.734375 7.46875 
L 50.734375 0 
z
" id="LiberationSans-31"/>
      </defs>
      <g style="fill:#262626;" transform="translate(750.904987 331.7975)scale(0.08 -0.08)">
       <use xlink:href="#LiberationSans-31"/>
       <use x="55.615234" xlink:href="#LiberationSans-30"/>
       <use x="111.230469" xlink:href="#LiberationSans-30"/>
       <use x="166.845703" xlink:href="#LiberationSans-30"/>
      </g>
     </g>
    </g>
    <g id="xtick_7">
     <g id="line2d_13">
      <path clip-path="url(#pd5599c43cd)" d="M 874.846621 320.4 
L 874.846621 43.2 
" style="fill:none;stroke:#ffffff;stroke-linecap:round;stroke-width:0.8;"/>
     </g>
     <g id="line2d_14"/>
     <g id="text_7">
      <!-- 1200 -->
      <g style="fill:#262626;" transform="translate(865.949121 331.7975)scale(0.08 -0.08)">
       <use xlink:href="#LiberationSans-31"/>
       <use x="55.615234" xlink:href="#LiberationSans-32"/>
       <use x="111.230469" xlink:href="#LiberationSans-30"/>
       <use x="166.845703" xlink:href="#LiberationSans-30"/>
      </g>
     </g>
    </g>
    <g id="xtick_8">
     <g id="line2d_15">
      <path clip-path="url(#pd5599c43cd)" d="M 989.890754 320.4 
L 989.890754 43.2 
" style="fill:none;stroke:#ffffff;stroke-linecap:round;stroke-width:0.8;"/>
     </g>
     <g id="line2d_16"/>
     <g id="text_8">
      <!-- 1400 -->
      <g style="fill:#262626;" transform="translate(980.993254 331.7975)scale(0.08 -0.08)">
       <use xlink:href="#LiberationSans-31"/>
       <use x="55.615234" xlink:href="#LiberationSans-34"/>
       <use x="111.230469" xlink:href="#LiberationSans-30"/>
       <use x="166.845703" xlink:href="#LiberationSans-30"/>
      </g>
     </g>
    </g>
   </g>
   <g id="matplotlib.axis_2">
    <g id="ytick_1">
     <g id="line2d_17">
      <path clip-path="url(#pd5599c43cd)" d="M 144 289.117204 
L 1036.8 289.117204 
" style="fill:none;stroke:#ffffff;stroke-linecap:round;stroke-width:0.8;"/>
     </g>
     <g id="line2d_18"/>
     <g id="text_9">
      <!-- −10000 -->
      <defs>
       <path d="M 4.9375 29.6875 
L 4.9375 36.8125 
L 53.515625 36.8125 
L 53.515625 29.6875 
z
" id="LiberationSans-2212"/>
      </defs>
      <g style="fill:#262626;" transform="translate(111.48375 292.015954)scale(0.08 -0.08)">
       <use xlink:href="#LiberationSans-2212"/>
       <use x="58.398438" xlink:href="#LiberationSans-31"/>
       <use x="114.013672" xlink:href="#LiberationSans-30"/>
       <use x="169.628906" xlink:href="#LiberationSans-30"/>
       <use x="225.244141" xlink:href="#LiberationSans-30"/>
       <use x="280.859375" xlink:href="#LiberationSans-30"/>
      </g>
     </g>
    </g>
    <g id="ytick_2">
     <g id="line2d_19">
      <path clip-path="url(#pd5599c43cd)" d="M 144 234.405957 
L 1036.8 234.405957 
" style="fill:none;stroke:#ffffff;stroke-linecap:round;stroke-width:0.8;"/>
     </g>
     <g id="line2d_20"/>
     <g id="text_10">
      <!-- −5000 -->
      <defs>
       <path d="M 51.421875 22.40625 
Q 51.421875 17.234375 49.859375 12.9375 
Q 48.296875 8.640625 45.21875 5.53125 
Q 42.140625 2.4375 37.578125 0.71875 
Q 33.015625 -0.984375 27 -0.984375 
Q 21.578125 -0.984375 17.546875 0.28125 
Q 13.53125 1.5625 10.734375 3.78125 
Q 7.953125 6 6.3125 8.984375 
Q 4.6875 11.96875 4 15.375 
L 12.890625 16.40625 
Q 13.421875 14.453125 14.390625 12.625 
Q 15.375 10.796875 17.0625 9.34375 
Q 18.75 7.90625 21.21875 7.046875 
Q 23.6875 6.203125 27.203125 6.203125 
Q 30.609375 6.203125 33.390625 7.25 
Q 36.1875 8.296875 38.15625 10.34375 
Q 40.140625 12.40625 41.203125 15.375 
Q 42.28125 18.359375 42.28125 22.21875 
Q 42.28125 25.390625 41.25 28.046875 
Q 40.234375 30.71875 38.328125 32.640625 
Q 36.421875 34.578125 33.65625 35.640625 
Q 30.90625 36.71875 27.390625 36.71875 
Q 25.203125 36.71875 23.34375 36.328125 
Q 21.484375 35.9375 19.890625 35.25 
Q 18.3125 34.578125 17.015625 33.671875 
Q 15.71875 32.765625 14.59375 31.78125 
L 6 31.78125 
L 8.296875 68.796875 
L 47.40625 68.796875 
L 47.40625 61.328125 
L 16.3125 61.328125 
L 14.984375 39.5 
Q 17.328125 41.3125 20.84375 42.59375 
Q 24.359375 43.890625 29.203125 43.890625 
Q 34.328125 43.890625 38.421875 42.328125 
Q 42.53125 40.765625 45.40625 37.90625 
Q 48.296875 35.0625 49.859375 31.109375 
Q 51.421875 27.15625 51.421875 22.40625 
" id="LiberationSans-35"/>
      </defs>
      <g style="fill:#262626;" transform="translate(115.9325 237.304707)scale(0.08 -0.08)">
       <use xlink:href="#LiberationSans-2212"/>
       <use x="58.398438" xlink:href="#LiberationSans-35"/>
       <use x="114.013672" xlink:href="#LiberationSans-30"/>
       <use x="169.628906" xlink:href="#LiberationSans-30"/>
       <use x="225.244141" xlink:href="#LiberationSans-30"/>
      </g>
     </g>
    </g>
    <g id="ytick_3">
     <g id="line2d_21">
      <path clip-path="url(#pd5599c43cd)" d="M 144 179.694711 
L 1036.8 179.694711 
" style="fill:none;stroke:#ffffff;stroke-linecap:round;stroke-width:0.8;"/>
     </g>
     <g id="line2d_22"/>
     <g id="text_11">
      <!-- 0 -->
      <g style="fill:#262626;" transform="translate(133.95125 182.593461)scale(0.08 -0.08)">
       <use xlink:href="#LiberationSans-30"/>
      </g>
     </g>
    </g>
    <g id="ytick_4">
     <g id="line2d_23">
      <path clip-path="url(#pd5599c43cd)" d="M 144 124.983465 
L 1036.8 124.983465 
" style="fill:none;stroke:#ffffff;stroke-linecap:round;stroke-width:0.8;"/>
     </g>
     <g id="line2d_24"/>
     <g id="text_12">
      <!-- 5000 -->
      <g style="fill:#262626;" transform="translate(120.605 127.882215)scale(0.08 -0.08)">
       <use xlink:href="#LiberationSans-35"/>
       <use x="55.615234" xlink:href="#LiberationSans-30"/>
       <use x="111.230469" xlink:href="#LiberationSans-30"/>
       <use x="166.845703" xlink:href="#LiberationSans-30"/>
      </g>
     </g>
    </g>
    <g id="ytick_5">
     <g id="line2d_25">
      <path clip-path="url(#pd5599c43cd)" d="M 144 70.272219 
L 1036.8 70.272219 
" style="fill:none;stroke:#ffffff;stroke-linecap:round;stroke-width:0.8;"/>
     </g>
     <g id="line2d_26"/>
     <g id="text_13">
      <!-- 10000 -->
      <g style="fill:#262626;" transform="translate(116.15625 73.170969)scale(0.08 -0.08)">
       <use xlink:href="#LiberationSans-31"/>
       <use x="55.615234" xlink:href="#LiberationSans-30"/>
       <use x="111.230469" xlink:href="#LiberationSans-30"/>
       <use x="166.845703" xlink:href="#LiberationSans-30"/>
       <use x="222.460938" xlink:href="#LiberationSans-30"/>
      </g>
     </g>
    </g>
   </g>
   <g id="line2d_27">
    <path clip-path="url(#pd5599c43cd)" d="M 184.581818 179.694711 
L 187.457922 179.696105 
L 188.033142 181.05573 
L 188.608363 185.647864 
L 189.183584 191.237143 
L 189.758804 193.671793 
L 190.334025 189.392356 
L 190.909246 178.358674 
L 191.484466 165.064377 
L 192.059687 156.22665 
L 192.634908 157.168888 
L 193.210128 168.624985 
L 194.36057 199.647137 
L 194.93579 202.980584 
L 195.511011 193.896547 
L 196.661452 164.204535 
L 197.236673 160.632985 
L 197.811894 168.754815 
L 198.387114 183.05895 
L 198.962335 193.798723 
L 199.537556 193.177204 
L 200.112776 181.355898 
L 200.687997 166.861532 
L 201.263218 160.676644 
L 201.838438 168.48755 
L 202.98888 202.079708 
L 203.5641 202.946772 
L 204.139321 186.283674 
L 204.714542 163.007453 
L 205.289762 149.868657 
L 205.864983 156.954091 
L 207.015424 203.312681 
L 207.590645 208.506857 
L 208.165866 191.790055 
L 208.741086 166.545191 
L 209.316307 152.41448 
L 209.891528 160.04659 
L 211.041969 203.118456 
L 211.61719 202.741167 
L 212.767631 159.556486 
L 213.342852 153.294894 
L 213.918072 169.286914 
L 214.493293 194.741945 
L 215.068514 207.716061 
L 215.643734 196.353629 
L 216.218955 170.543336 
L 216.794176 152.629058 
L 217.369396 157.775198 
L 218.519838 203.586128 
L 219.095058 203.760328 
L 220.2455 160.146164 
L 220.82072 155.389459 
L 221.395941 171.964001 
L 221.971162 194.540389 
L 222.546382 202.457653 
L 223.121603 189.369564 
L 223.696824 168.672365 
L 224.272044 159.323416 
L 224.847265 169.171331 
L 225.422486 188.731368 
L 225.997706 199.093568 
L 226.572927 190.279182 
L 227.148148 171.282419 
L 227.723368 160.414249 
L 228.298589 168.236644 
L 228.87381 188.10441 
L 229.44903 200.814237 
L 230.024251 193.170748 
L 230.599472 172.240851 
L 231.174692 157.978286 
L 231.749913 164.142711 
L 232.325134 185.916365 
L 232.900354 202.731647 
L 233.475575 197.735088 
L 234.626016 157.835489 
L 235.201237 160.025799 
L 236.351678 199.909422 
L 236.926899 199.312304 
L 238.07734 160.505289 
L 238.652561 159.714492 
L 239.803002 200.348973 
L 240.378223 202.491903 
L 241.528664 159.009046 
L 242.103885 153.774602 
L 242.679106 172.509647 
L 243.254326 199.162395 
L 243.829547 208.422274 
L 244.404768 191.162079 
L 244.979988 163.618468 
L 245.555209 150.391258 
L 246.13043 162.914116 
L 246.70565 190.553898 
L 247.280871 208.504122 
L 247.856092 201.03538 
L 249.006533 156.379295 
L 249.581754 156.591465 
L 250.732195 196.158091 
L 251.307416 200.97662 
L 251.882636 187.625719 
L 252.457857 169.312443 
L 253.033078 161.229228 
L 253.608298 169.105798 
L 254.183519 185.838675 
L 254.75874 196.852924 
L 255.33396 192.848061 
L 256.484402 164.892474 
L 257.059622 163.645933 
L 257.634843 174.967375 
L 258.210064 190.046933 
L 258.785284 196.926894 
L 259.360505 190.585587 
L 259.935726 176.917371 
L 260.510946 166.35403 
L 261.086167 165.52603 
L 261.661388 173.76585 
L 262.236608 184.565763 
L 262.811829 190.573627 
L 263.38705 188.680847 
L 264.537491 175.59685 
L 265.112712 173.769013 
L 265.687932 176.664026 
L 266.263153 181.830179 
L 266.838374 184.960231 
L 267.413594 182.864385 
L 268.564036 170.285788 
L 269.139256 169.444537 
L 269.714477 175.923793 
L 270.864918 198.32203 
L 271.440139 199.864231 
L 272.01536 188.899517 
L 273.165801 155.538055 
L 273.741022 152.079429 
L 274.316243 162.365362 
L 275.466684 201.538833 
L 276.041905 210.497362 
L 276.617125 203.917678 
L 277.767567 166.698492 
L 278.342787 155.174225 
L 278.918008 155.453252 
L 279.493229 166.503283 
L 280.64367 197.732571 
L 281.218891 202.290347 
L 281.794111 194.651562 
L 282.944553 164.403684 
L 283.519773 156.910432 
L 284.094994 159.788134 
L 284.670215 171.866462 
L 285.820656 203.050505 
L 286.395877 208.053082 
L 286.971097 201.456657 
L 288.696759 159.250322 
L 289.27198 155.130675 
L 289.847201 158.279088 
L 290.422421 166.42034 
L 291.572863 185.181998 
L 292.148083 191.551623 
L 292.723304 195.124924 
L 293.298525 195.618091 
L 293.873745 192.905508 
L 294.448966 187.474377 
L 295.599407 174.958315 
L 296.174628 171.625908 
L 296.749849 171.937762 
L 297.325069 175.640477 
L 297.90029 180.455978 
L 298.475511 182.877538 
L 299.050731 180.698358 
L 300.201173 167.803003 
L 300.776393 164.291198 
L 301.351614 166.311027 
L 301.926835 173.786455 
L 303.652497 207.168073 
L 304.227717 210.853751 
L 304.802938 203.836049 
L 305.378159 185.626822 
L 306.5286 139.665556 
L 307.103821 129.584681 
L 307.679041 135.656863 
L 308.254262 156.966128 
L 309.979924 250.572802 
L 310.555145 261.39217 
L 311.130365 244.198067 
L 311.705586 198.622395 
L 312.856027 87.587453 
L 313.431248 65.165471 
L 314.006469 79.702687 
L 314.581689 126.422809 
L 315.732131 255.897957 
L 316.307351 300.702857 
L 316.882572 307.8 
L 317.457793 270.770881 
L 319.183455 71.276827 
L 319.758675 55.8 
L 320.333896 82.030869 
L 320.909117 140.062869 
L 322.059558 270.262614 
L 322.634779 293.991976 
L 323.209999 271.187891 
L 324.935661 95.625301 
L 325.510882 83.610821 
L 326.086103 110.480717 
L 327.236544 224.354298 
L 327.811765 260.344012 
L 328.386985 255.79335 
L 328.962206 216.118505 
L 329.537427 164.6129 
L 330.112647 126.883149 
L 330.687868 118.081422 
L 331.263089 139.947866 
L 332.41353 219.517277 
L 332.988751 230.548158 
L 333.563971 207.338991 
L 334.139192 166.152036 
L 334.714413 134.031392 
L 335.289633 130.317921 
L 335.864854 158.904109 
L 337.015295 246.687976 
L 337.590516 245.521094 
L 338.165737 198.305945 
L 338.740957 134.563623 
L 339.316178 95.323951 
L 339.891399 104.35634 
L 340.466619 158.986614 
L 341.04184 229.923684 
L 341.617061 270.949787 
L 342.192281 251.498626 
L 343.342723 122.046784 
L 343.917943 100.714432 
L 344.493164 133.098565 
L 345.068385 197.387125 
L 345.643605 246.681629 
L 346.218826 241.254821 
L 347.369267 127.144012 
L 347.944488 109.003842 
L 348.519709 145.301471 
L 349.094929 211.956511 
L 349.67015 256.974565 
L 350.245371 240.544997 
L 351.395812 114.660547 
L 351.971033 104.056742 
L 352.546253 150.803343 
L 353.121474 219.608316 
L 353.696695 253.778334 
L 354.271915 225.979331 
L 354.847136 164.325228 
L 355.422357 121.493653 
L 355.997577 128.91414 
L 357.148019 226.273021 
L 357.723239 229.866237 
L 358.873681 143.248596 
L 359.448901 131.328985 
L 360.024122 162.339647 
L 360.599343 209.292292 
L 361.174563 228.116681 
L 361.749784 201.29307 
L 362.325005 155.816973 
L 362.900226 133.105787 
L 363.475446 152.887623 
L 364.050667 199.011939 
L 364.625888 227.682492 
L 365.201108 210.068426 
L 365.776329 164.355647 
L 366.35155 133.473228 
L 366.92677 144.538249 
L 368.077212 224.791112 
L 368.652432 217.416802 
L 369.802874 140.493884 
L 370.378094 142.523234 
L 371.528536 217.353556 
L 372.103756 216.361313 
L 373.254198 142.769872 
L 373.829418 141.729155 
L 374.97986 219.657994 
L 375.55508 222.06135 
L 376.705522 139.659429 
L 377.280742 133.341155 
L 377.855963 170.963442 
L 378.431184 219.398006 
L 379.006404 230.273289 
L 379.581625 192.946213 
L 380.156846 144.845726 
L 380.732066 129.038444 
L 381.307287 158.869422 
L 381.882508 207.747574 
L 382.457728 228.976523 
L 383.032949 203.936389 
L 383.60817 159.879283 
L 384.18339 136.594614 
L 384.758611 152.492936 
L 385.333832 192.589933 
L 385.909052 218.821897 
L 386.484273 207.262395 
L 387.059494 171.84136 
L 387.634714 145.718809 
L 388.209935 150.812316 
L 389.360376 212.410176 
L 389.935597 211.998201 
L 391.086038 152.808292 
L 391.661259 145.787088 
L 392.23648 167.134979 
L 392.8117 198.775149 
L 393.386921 212.94569 
L 393.962142 198.704024 
L 394.537362 170.888345 
L 395.112583 152.518979 
L 395.687804 156.040304 
L 396.838245 197.248158 
L 397.413466 201.407307 
L 397.988686 188.464727 
L 398.563907 171.190275 
L 399.139128 162.995635 
L 399.714348 168.892063 
L 400.289569 183.410349 
L 400.86479 194.170432 
L 401.44001 191.466383 
L 402.590452 163.812255 
L 403.165672 161.494468 
L 403.740893 173.699814 
L 404.316114 193.513787 
L 404.891334 206.540207 
L 405.466555 201.010541 
L 406.616996 156.63403 
L 407.192217 147.792474 
L 407.767438 158.215623 
L 408.917879 205.354614 
L 409.4931 212.220109 
L 410.06832 198.621191 
L 410.643541 174.788469 
L 411.218762 156.230043 
L 411.793982 152.880401 
L 412.369203 165.268669 
L 412.944424 186.197438 
L 413.519644 202.870395 
L 414.094865 204.077763 
L 414.670086 189.06085 
L 415.245306 167.973921 
L 415.820527 153.848462 
L 416.395748 154.230784 
L 416.970968 169.135966 
L 418.12141 210.808559 
L 418.69663 214.125812 
L 419.271851 199.047502 
L 420.422292 152.228024 
L 420.997513 143.125495 
L 421.572734 148.989337 
L 422.147954 166.274699 
L 422.723175 187.419655 
L 423.298396 203.649264 
L 423.873616 209.367027 
L 424.448837 204.80028 
L 426.74972 163.606869 
L 427.32494 160.496097 
L 427.900161 161.602249 
L 428.475382 166.31803 
L 430.201044 189.615709 
L 430.776264 193.506237 
L 431.351485 193.267368 
L 431.926706 189.598694 
L 433.077147 179.112335 
L 433.652368 175.402253 
L 434.227588 173.929339 
L 434.802809 174.263055 
L 435.95325 176.902621 
L 437.678912 180.804868 
L 438.829354 182.483037 
L 439.404574 183.278703 
L 440.555016 185.508405 
L 441.130236 184.991154 
L 441.705457 180.32766 
L 443.431119 152.743076 
L 444.00634 153.322468 
L 444.58156 163.338456 
L 445.156781 181.178962 
L 446.307222 224.399489 
L 446.882443 238.736353 
L 447.457664 237.759319 
L 448.032884 215.7631 
L 449.758546 101.400839 
L 450.333767 93.612584 
L 450.908988 111.733167 
L 451.484208 149.597289 
L 452.63465 239.201508 
L 453.20987 267.413909 
L 453.785091 270.955477 
L 454.360312 245.297872 
L 456.085974 98.431878 
L 456.661195 82.956693 
L 457.236415 98.746359 
L 457.811636 140.003125 
L 458.962077 245.566176 
L 459.537298 277.07876 
L 460.112519 275.177435 
L 460.687739 238.56445 
L 461.838181 125.131842 
L 462.413401 91.164146 
L 462.988622 88.984997 
L 463.563843 117.087866 
L 465.289505 250.962237 
L 465.864725 256.730991 
L 466.439946 231.990784 
L 467.590387 148.108815 
L 468.165608 124.690103 
L 468.740829 127.084705 
L 469.316049 153.811258 
L 469.89127 193.447915 
L 470.466491 225.376742 
L 471.041711 229.581301 
L 471.616932 202.047429 
L 472.192153 159.078419 
L 472.767373 126.185799 
L 473.342594 121.681204 
L 473.917815 149.54586 
L 475.068256 245.588717 
L 475.643477 258.26772 
L 476.218697 225.076049 
L 477.369139 112.775307 
L 477.944359 97.565471 
L 478.51958 126.342164 
L 479.670021 242.353641 
L 480.245242 259.1129 
L 480.820463 223.63397 
L 481.395683 161.504973 
L 481.970904 115.014529 
L 482.546125 112.458201 
L 483.121345 155.623733 
L 483.696566 219.109678 
L 484.271787 257.870626 
L 484.847007 239.323733 
L 485.997449 114.465337 
L 486.572669 97.705751 
L 487.14789 136.221264 
L 487.723111 205.912888 
L 488.298331 257.522881 
L 488.873552 251.441179 
L 490.023993 132.764061 
L 490.599214 110.126954 
L 491.174435 138.923453 
L 491.749655 196.1849 
L 492.324876 236.036134 
L 492.900097 226.364936 
L 494.050538 135.367878 
L 494.625759 130.477568 
L 495.200979 167.642152 
L 495.7762 217.284839 
L 496.351421 235.548766 
L 496.926641 204.954128 
L 497.501862 152.935988 
L 498.077083 123.44203 
L 498.652303 139.864267 
L 499.802745 231.08586 
L 500.377965 225.870784 
L 501.528407 137.963599 
L 502.103627 132.875125 
L 502.678848 169.235508 
L 503.254069 215.113131 
L 503.829289 226.987222 
L 504.40451 194.547392 
L 504.979731 150.115514 
L 505.554951 133.449374 
L 506.130172 159.015064 
L 506.705393 205.065082 
L 507.280613 227.142602 
L 507.855834 202.515429 
L 508.431055 155.886894 
L 509.006275 131.246152 
L 509.581496 151.911246 
L 510.156717 202.056511 
L 510.731937 233.57752 
L 511.307158 212.659988 
L 511.882379 159.475185 
L 512.457599 124.319818 
L 513.03282 138.93155 
L 513.608041 192.679878 
L 514.183261 235.386164 
L 514.758482 224.562967 
L 515.908923 130.054213 
L 516.484144 133.653775 
L 517.634585 225.381009 
L 518.209806 224.94693 
L 519.360247 139.44704 
L 519.935468 135.314043 
L 521.085909 217.629848 
L 521.66113 224.715064 
L 522.811571 146.257495 
L 523.386792 135.2369 
L 523.962013 165.462565 
L 524.537233 210.013058 
L 525.112454 225.549848 
L 525.687675 197.84276 
L 526.262895 155.207271 
L 526.838116 135.364705 
L 527.413337 153.998371 
L 527.988557 194.588644 
L 528.563778 219.954091 
L 529.138999 208.407939 
L 529.714219 174.417505 
L 530.28944 148.725191 
L 530.864661 150.744036 
L 532.015102 202.75769 
L 532.590323 205.722821 
L 533.740764 162.468547 
L 534.315985 155.526456 
L 534.891205 170.204947 
L 535.466426 194.200085 
L 536.041647 205.560657 
L 536.616867 193.244608 
L 537.192088 168.129957 
L 537.767309 151.65859 
L 538.342529 157.428985 
L 539.492971 207.617143 
L 540.068191 211.35797 
L 540.643412 190.008657 
L 541.218633 160.907964 
L 541.793853 146.024644 
L 542.369074 155.492644 
L 543.519515 207.870128 
L 544.094736 211.258286 
L 544.669957 191.184292 
L 545.245178 163.966322 
L 545.820398 149.359842 
L 546.395619 156.451295 
L 547.54606 204.660657 
L 548.121281 210.68524 
L 548.696502 193.091854 
L 549.271722 164.644413 
L 549.846943 145.582359 
L 550.422164 148.331927 
L 550.997384 172.093306 
L 551.572605 203.758468 
L 552.147826 222.84 
L 552.723046 215.07538 
L 553.873488 152.059076 
L 554.448708 135.212061 
L 555.023929 141.870419 
L 555.59915 167.256328 
L 556.17437 198.155161 
L 556.749591 217.958225 
L 557.324812 217.054723 
L 557.900032 198.819356 
L 558.475253 175.726866 
L 559.050474 158.970529 
L 559.625694 153.494699 
L 560.200915 158.75431 
L 561.351356 183.128389 
L 561.926577 191.04434 
L 562.501798 192.484231 
L 563.077018 189.298756 
L 564.22746 179.386876 
L 564.80268 176.339117 
L 565.377901 175.542708 
L 565.953122 176.741792 
L 566.528342 178.845353 
L 567.103563 180.507623 
L 567.678784 181.100571 
L 568.254004 180.857019 
L 569.404446 179.816768 
L 569.979666 178.924087 
L 570.554887 177.534088 
L 571.705328 173.535385 
L 572.280549 172.763639 
L 572.85577 174.733692 
L 574.581432 188.362603 
L 575.156652 189.429483 
L 575.731873 188.059897 
L 576.882314 183.584156 
L 577.457535 183.309308 
L 578.032756 184.49234 
L 578.607976 184.091559 
L 579.183197 178.64639 
L 580.333638 155.898164 
L 580.908859 148.675842 
L 581.48408 150.507903 
L 582.0593 161.936754 
L 583.784962 218.244255 
L 584.360183 228.15104 
L 584.935404 225.352997 
L 585.510624 207.690784 
L 587.236286 127.08186 
L 587.811507 121.273605 
L 588.386728 132.836061 
L 588.961948 157.85245 
L 590.11239 219.442213 
L 590.68761 240.904122 
L 591.262831 246.347891 
L 591.838052 230.788122 
L 592.413272 196.402322 
L 593.563714 118.762578 
L 594.138934 102.846857 
L 594.714155 110.700985 
L 595.289376 138.638517 
L 596.439817 215.955903 
L 597.015038 243.769568 
L 597.590258 252.649313 
L 598.165479 239.406565 
L 598.7407 208.511015 
L 599.891141 138.704717 
L 600.466362 121.889106 
L 601.041582 124.003368 
L 601.616803 142.823927 
L 603.342465 225.738821 
L 603.917686 229.782529 
L 604.492906 212.400985 
L 605.643348 148.536219 
L 606.218568 129.99031 
L 606.793789 132.547185 
L 607.36901 155.852426 
L 608.519451 227.657763 
L 609.094672 243.91138 
L 609.669892 229.87707 
L 611.395554 115.418954 
L 611.970775 114.404936 
L 612.545996 142.66034 
L 613.696437 234.933593 
L 614.271658 252.629945 
L 614.846878 230.364 
L 615.99732 130.078723 
L 616.57254 107.761678 
L 617.147761 124.213131 
L 618.298202 231.437982 
L 618.873423 262.044547 
L 619.448644 241.532426 
L 620.599085 120.094796 
L 621.174306 94.039878 
L 621.749526 116.774043 
L 622.899968 240.14276 
L 623.475188 264.942055 
L 624.050409 234.426748 
L 625.20085 122.291015 
L 625.776071 112.641593 
L 626.351292 146.138553 
L 626.926512 200.289447 
L 627.501733 236.17138 
L 628.076954 226.580936 
L 629.227395 136.842784 
L 629.802616 126.374116 
L 630.377836 156.760195 
L 630.953057 207.748559 
L 631.528278 240.194736 
L 632.103498 225.82034 
L 633.25394 128.342736 
L 633.82916 119.813799 
L 634.404381 155.198626 
L 634.979602 208.932511 
L 635.554822 238.04524 
L 636.130043 219.309264 
L 636.705264 171.345841 
L 637.280485 134.850967 
L 637.855705 137.005933 
L 639.006147 216.912146 
L 639.581367 224.359112 
L 640.156588 190.99521 
L 640.731809 147.955404 
L 641.307029 132.466103 
L 641.88225 158.443878 
L 642.457471 206.068596 
L 643.032691 232.103052 
L 643.607912 210.059343 
L 644.183133 159.703878 
L 644.758353 126.513629 
L 645.333574 139.956948 
L 646.484015 235.560365 
L 647.059236 228.118979 
L 648.209677 126.902517 
L 648.784898 124.493362 
L 649.935339 226.488036 
L 650.51056 236.700547 
L 651.085781 193.723331 
L 651.661001 140.888353 
L 652.236222 125.454857 
L 652.811443 160.648085 
L 653.386663 214.640863 
L 653.961884 234.033593 
L 654.537105 199.861058 
L 655.112325 147.429191 
L 655.687546 125.413386 
L 656.262767 153.933046 
L 656.837987 208.536948 
L 657.413208 235.826918 
L 657.988429 208.378176 
L 658.563649 154.849459 
L 659.13887 125.34259 
L 659.714091 145.613653 
L 660.289311 198.335052 
L 660.864532 233.208875 
L 661.439753 216.963246 
L 662.014973 168.602116 
L 662.590194 133.694043 
L 663.165415 140.826857 
L 664.315856 218.733374 
L 664.891077 216.136559 
L 666.041518 148.477897 
L 666.616739 145.461556 
L 667.76718 206.283064 
L 668.342401 211.948742 
L 668.917621 186.822996 
L 669.492842 156.208158 
L 670.068063 147.376888 
L 670.643283 168.34541 
L 671.218504 201.467708 
L 671.793725 215.304401 
L 672.368945 196.144413 
L 672.944166 162.124413 
L 673.519387 143.00535 
L 674.094607 154.581374 
L 674.669828 188.454693 
L 675.245049 215.717033 
L 675.820269 211.996778 
L 676.970711 151.270468 
L 677.545931 144.595587 
L 678.121152 166.253362 
L 678.696373 198.838833 
L 679.271593 214.489094 
L 679.846814 199.903404 
L 680.422035 168.528365 
L 680.997255 146.559939 
L 681.572476 151.018687 
L 682.722917 210.769933 
L 683.298138 218.166347 
L 683.873359 193.556243 
L 684.448579 156.28366 
L 685.0238 134.748219 
L 685.599021 144.698881 
L 686.749462 219.930128 
L 687.324683 231.621483 
L 687.899903 206.793739 
L 688.475124 164.025301 
L 689.050345 133.177131 
L 689.625565 132.342784 
L 690.200786 160.469945 
L 690.776007 199.496571 
L 691.351227 224.068815 
L 691.926448 219.141301 
L 693.076889 160.857739 
L 693.65211 145.663331 
L 694.227331 151.177678 
L 695.377772 195.208632 
L 695.952993 206.442383 
L 696.528213 200.046091 
L 697.678655 165.131453 
L 698.253875 158.23521 
L 698.829096 163.661909 
L 699.979537 193.693459 
L 700.554758 201.951793 
L 701.129979 198.405191 
L 702.855641 163.108888 
L 703.430861 161.081836 
L 704.006082 164.954298 
L 705.731744 186.309202 
L 706.306965 190.626007 
L 706.882185 193.095246 
L 707.457406 192.901459 
L 708.032627 189.578692 
L 709.758289 171.825538 
L 710.333509 169.323144 
L 710.90873 169.938317 
L 711.483951 172.052382 
L 712.059171 173.4761 
L 713.209613 173.696258 
L 713.784833 175.506204 
L 714.360054 179.911478 
L 716.085716 201.158152 
L 716.660937 203.154237 
L 717.236157 197.141471 
L 717.811378 183.258481 
L 718.961819 151.891331 
L 719.53704 146.064365 
L 720.112261 150.532304 
L 720.687481 163.749337 
L 722.413143 214.944948 
L 722.988364 220.257739 
L 723.563585 212.526274 
L 724.138805 191.995769 
L 725.289247 141.001933 
L 725.864467 128.658967 
L 726.439688 132.179088 
L 727.014909 150.107635 
L 728.740571 227.797495 
L 729.315792 238.099514 
L 729.891012 231.920863 
L 730.466233 210.108255 
L 731.616674 150.779489 
L 732.191895 132.316085 
L 732.767116 128.534334 
L 733.342336 138.644207 
L 735.067998 200.117653 
L 735.643219 212.210043 
L 736.21844 214.475635 
L 736.79366 206.779623 
L 738.519322 158.394967 
L 739.094543 151.136973 
L 739.669764 153.757641 
L 740.244984 165.321301 
L 741.395426 200.583246 
L 741.970646 213.014188 
L 742.545867 213.623672 
L 743.121088 200.086796 
L 744.271529 153.987866 
L 744.84675 140.018663 
L 745.42197 140.353933 
L 745.997191 154.957897 
L 747.722853 225.834347 
L 748.298074 226.579295 
L 748.873294 205.218711 
L 750.023736 136.001325 
L 750.598956 120.303684 
L 751.174177 130.290784 
L 751.749398 164.197204 
L 752.899839 250.53155 
L 753.47506 259.329337 
L 754.05028 227.226091 
L 755.200722 113.070748 
L 755.775942 88.297167 
L 756.351163 104.925337 
L 756.926384 156.331477 
L 757.501604 220.631526 
L 758.076825 265.080693 
L 758.652046 264.214723 
L 759.227266 219.79521 
L 759.802487 160.005666 
L 760.377708 117.662225 
L 760.952928 111.588839 
L 761.528149 142.094188 
L 762.10337 191.932195 
L 762.67859 230.154347 
L 763.253811 230.941094 
L 763.829032 195.578043 
L 764.404252 151.400681 
L 764.979473 128.641131 
L 765.554694 140.855307 
L 766.705135 225.752827 
L 767.280356 240.366748 
L 767.855576 212.228973 
L 768.430797 161.272012 
L 769.006018 123.569289 
L 769.581238 122.53448 
L 770.156459 157.653957 
L 770.73168 206.310967 
L 771.3069 234.141155 
L 771.882121 221.293641 
L 773.032562 144.729191 
L 773.607783 138.51848 
L 774.183004 164.97476 
L 774.758224 203.473641 
L 775.333445 221.465106 
L 775.908666 201.740827 
L 776.483886 160.807185 
L 777.059107 133.218274 
L 777.634328 141.981374 
L 778.784769 227.527003 
L 779.35999 233.977678 
L 779.93521 194.498371 
L 780.510431 142.242565 
L 781.085652 120.042821 
L 781.660872 145.993021 
L 782.236093 201.365726 
L 782.811314 238.724644 
L 783.386534 223.239064 
L 784.536976 126.761033 
L 785.112196 129.504693 
L 786.262638 227.709957 
L 786.837858 234.24817 
L 787.9883 138.163951 
L 788.56352 123.44586 
L 789.138741 159.914079 
L 789.713962 216.763331 
L 790.289182 239.301301 
L 790.864403 204.486237 
L 791.439624 146.557751 
L 792.014844 118.70535 
L 792.590065 145.924195 
L 793.165286 206.28952 
L 793.740506 242.846699 
L 794.315727 219.58304 
L 794.890948 161.034018 
L 795.466168 121.782529 
L 796.041389 134.703356 
L 797.19183 231.684182 
L 797.767051 224.279562 
L 798.917492 137.201362 
L 799.492713 137.608413 
L 800.643154 217.183514 
L 801.218375 219.151696 
L 802.368816 146.891818 
L 802.944037 141.713726 
L 803.519258 172.982462 
L 804.094478 211.768304 
L 804.669699 219.300511 
L 805.24492 188.599185 
L 805.82014 150.310723 
L 806.395361 138.834711 
L 806.970582 164.724401 
L 807.545802 205.610881 
L 808.121023 222.414675 
L 808.696244 199.22597 
L 809.271464 159.604304 
L 809.846685 138.760742 
L 810.421906 153.60248 
L 810.997126 191.511574 
L 811.572347 217.914675 
L 812.147568 208.660377 
L 813.298009 146.841374 
L 813.87323 148.646298 
L 815.023671 211.214407 
L 815.598892 214.786067 
L 816.174112 185.519238 
L 816.749333 149.851915 
L 817.324554 138.339793 
L 817.899774 162.015976 
L 818.474995 204.273629 
L 819.050216 228.925422 
L 819.625437 212.28062 
L 820.200657 167.495198 
L 820.775878 131.527696 
L 821.351099 131.957726 
L 821.926319 169.610772 
L 822.50154 217.062492 
L 823.076761 235.978468 
L 823.651981 211.193726 
L 824.227202 164.290103 
L 824.802423 131.2351 
L 825.377643 133.964644 
L 826.528085 211.16648 
L 827.103305 228.171173 
L 827.678526 208.634444 
L 828.253747 169.94915 
L 828.828967 141.173726 
L 829.404188 140.5289 
L 829.979409 166.909131 
L 830.554629 202.309167 
L 831.12985 221.513362 
L 831.705071 210.465848 
L 832.855512 147.733495 
L 833.430733 138.316486 
L 834.005953 153.764644 
L 835.156395 212.431842 
L 835.731615 220.118881 
L 836.306836 204.447173 
L 837.457277 155.926833 
L 838.032498 148.654395 
L 838.607719 156.018419 
L 839.75816 188.029324 
L 840.333381 196.786614 
L 840.908601 196.283271 
L 842.634263 176.718934 
L 843.209484 174.161752 
L 843.784705 174.894959 
L 844.935146 180.853342 
L 845.510367 180.696619 
L 846.085587 176.902501 
L 846.660808 171.742891 
L 847.236029 168.74896 
L 847.811249 170.411263 
L 848.38647 177.217627 
L 849.536911 198.286687 
L 850.112132 203.904547 
L 850.687353 200.199173 
L 851.262573 187.213404 
L 852.413015 156.137143 
L 852.988235 150.493459 
L 853.563456 154.865653 
L 854.138677 167.548267 
L 855.289118 200.907246 
L 855.864339 210.683927 
L 856.439559 209.057362 
L 857.01478 195.160815 
L 858.165221 153.400815 
L 858.740442 142.049544 
L 859.315663 143.859502 
L 859.890883 158.215404 
L 861.616545 225.117191 
L 862.191766 231.685933 
L 862.766987 220.77662 
L 863.342207 195.16738 
L 864.492649 138.742249 
L 865.067869 126.902079 
L 865.64309 130.825204 
L 866.218311 147.586432 
L 867.368752 193.391672 
L 867.943973 209.672535 
L 868.519193 216.455088 
L 869.094414 213.376924 
L 869.669635 202.677155 
L 870.820076 173.352682 
L 871.395297 162.581471 
L 871.970517 157.824657 
L 872.545738 159.493678 
L 873.120959 166.387951 
L 874.2714 186.188849 
L 874.846621 193.610736 
L 875.421841 196.319708 
L 875.997062 193.627915 
L 876.572283 186.720697 
L 877.722724 171.036492 
L 878.297945 167.09296 
L 878.873165 167.153143 
L 879.448386 170.698541 
L 881.174048 188.026348 
L 881.749269 190.433139 
L 882.324489 188.031808 
L 882.89971 180.48462 
L 883.474931 170.357405 
L 884.050151 162.401909 
L 884.625372 160.926565 
L 885.200593 167.938249 
L 885.775813 182.71997 
L 886.926255 220.017119 
L 887.501475 226.311429 
L 888.076696 212.262128 
L 889.802358 111.259915 
L 890.377579 107.97155 
L 890.952799 131.661191 
L 892.678461 260.881277 
L 893.253682 265.384888 
L 893.828903 233.676438 
L 894.979344 128.10135 
L 895.554565 100.771441 
L 896.129785 107.194541 
L 896.705006 143.973957 
L 897.855447 238.926419 
L 898.430668 249.21476 
L 899.005889 222.189593 
L 900.15633 135.514286 
L 900.731551 122.63679 
L 901.306771 141.408547 
L 902.457213 221.462699 
L 903.032433 233.97724 
L 903.607654 211.711842 
L 904.182875 171.328979 
L 904.758095 139.241653 
L 905.333316 132.648948 
L 905.908537 153.283514 
L 906.483757 188.851295 
L 907.058978 216.997933 
L 907.634199 218.331574 
L 908.209419 193.122164 
L 908.78464 161.428158 
L 909.359861 145.180559 
L 909.935082 154.266784 
L 911.085523 212.796875 
L 911.660744 218.248632 
L 912.235964 191.966225 
L 912.811185 153.066748 
L 913.386406 131.122833 
L 913.961626 143.0129 
L 915.112068 225.956243 
L 915.687288 236.080888 
L 916.262509 203.497058 
L 916.83773 153.74648 
L 917.41295 124.860036 
L 917.988171 137.348207 
L 919.138612 225.597775 
L 919.713833 229.280717 
L 920.289054 190.339944 
L 920.864274 143.424875 
L 921.439495 127.247416 
L 922.014716 155.454237 
L 922.589936 207.471611 
L 923.165157 238.041739 
L 923.740378 216.957119 
L 924.315598 162.065435 
L 924.890819 121.453386 
L 925.46604 129.337386 
L 926.616481 236.02935 
L 927.191702 240.366748 
L 928.342143 131.922055 
L 928.917364 115.375514 
L 929.492584 154.463964 
L 930.067805 216.471173 
L 930.643026 244.220061 
L 931.218246 213.206772 
L 931.793467 155.856036 
L 932.368688 123.681447 
L 932.943908 142.573131 
L 933.519129 195.164207 
L 934.09435 231.647854 
L 934.66957 217.723951 
L 935.244791 170.220409 
L 935.820012 134.63431 
L 936.395232 141.686152 
L 937.545674 224.068924 
L 938.120894 219.090748 
L 939.271336 138.07893 
L 939.846556 137.86304 
L 940.996998 219.582602 
L 941.572218 223.820535 
L 942.72266 145.427198 
L 943.29788 135.918821 
L 943.873101 166.104109 
L 944.448322 208.403234 
L 945.023542 222.163331 
L 945.598763 195.725982 
L 946.173984 156.83121 
L 946.749204 140.591818 
L 947.324425 160.619854 
L 947.899646 199.088316 
L 948.474866 218.75493 
L 949.050087 200.154967 
L 949.625308 162.182517 
L 950.200528 140.248669 
L 950.775749 154.520535 
L 951.35097 195.039246 
L 951.92619 224.606188 
L 952.501411 212.65014 
L 953.651852 133.186213 
L 954.227073 136.011283 
L 955.377514 224.549836 
L 955.952735 233.229666 
L 956.527956 195.661641 
L 957.103176 145.837313 
L 957.678397 124.866383 
L 958.253618 148.918541 
L 958.828838 199.289982 
L 959.404059 233.135562 
L 959.97928 220.996559 
L 961.129721 135.098809 
L 961.704942 131.18772 
L 962.280162 166.10772 
L 962.855383 212.916584 
L 963.430604 232.513167 
L 964.005824 208.304863 
L 964.581045 161.485605 
L 965.156266 129.522091 
L 965.731486 135.400486 
L 966.881928 220.324049 
L 967.457148 235.359137 
L 968.032369 208.843112 
L 968.60759 162.577641 
L 969.18281 130.417277 
L 969.758031 132.122079 
L 970.333252 164.644304 
L 970.908472 205.690869 
L 971.483693 227.154091 
L 972.058914 216.137653 
L 973.209355 154.91566 
L 973.784576 144.414164 
L 974.359796 155.375562 
L 975.510238 198.989398 
L 976.085458 203.798845 
L 976.660679 192.216474 
L 977.2359 174.445725 
L 977.81112 162.642857 
L 978.386341 162.786857 
L 978.961562 174.091612 
L 979.536782 190.305892 
L 980.112003 201.513447 
L 980.687224 199.450067 
L 981.262444 184.2804 
L 981.837665 165.06372 
L 982.412886 152.739246 
L 982.988106 153.298942 
L 983.563327 166.320328 
L 984.713768 205.268389 
L 985.288989 212.308742 
L 985.86421 203.878286 
L 987.014651 164.333544 
L 987.589872 152.006881 
L 988.165092 151.684304 
L 988.740313 162.76924 
L 989.890754 199.508608 
L 990.465975 208.832608 
L 991.041196 203.451866 
L 991.616416 185.329105 
L 992.191637 163.079562 
L 992.766858 147.23431 
L 993.342078 144.6991 
L 993.917299 156.874213 
L 995.642961 227.794322 
L 996.218182 231.404061 
L 996.218182 231.404061 
" style="fill:none;stroke:#4c72b0;stroke-linecap:round;stroke-width:1.4;"/>
   </g>
   <g id="patch_3">
    <path d="M 144 320.4 
L 144 43.2 
" style="fill:none;"/>
   </g>
   <g id="patch_4">
    <path d="M 1036.8 320.4 
L 1036.8 43.2 
" style="fill:none;"/>
   </g>
   <g id="patch_5">
    <path d="M 144 320.4 
L 1036.8 320.4 
" style="fill:none;"/>
   </g>
   <g id="patch_6">
    <path d="M 144 43.2 
L 1036.8 43.2 
" style="fill:none;"/>
   </g>
  </g>
 </g>
 <defs>
  <clipPath id="pd5599c43cd">
   <rect height="277.2" width="892.8" x="144" y="43.2"/>
  </clipPath>
 </defs>
</svg>
