<?xml version="1.0" encoding="utf-8" standalone="no"?>
<!DOCTYPE svg PUBLIC "-//W3C//DTD SVG 1.1//EN"
  "http://www.w3.org/Graphics/SVG/1.1/DTD/svg11.dtd">
<!-- Created with matplotlib (http://matplotlib.org/) -->
<svg height="360pt" version="1.1" viewBox="0 0 1152 360" width="1152pt" xmlns="http://www.w3.org/2000/svg" xmlns:xlink="http://www.w3.org/1999/xlink">
 <defs>
  <style type="text/css">
*{stroke-linecap:butt;stroke-linejoin:round;}
  </style>
 </defs>
 <g id="figure_1">
  <g id="patch_1">
   <path d="M 0 360 
L 1152 360 
L 1152 0 
L 0 0 
z
" style="fill:#ffffff;"/>
  </g>
  <g id="axes_1">
   <g id="patch_2">
    <path d="M 144 320.4 
L 1036.8 320.4 
L 1036.8 43.2 
L 144 43.2 
z
" style="fill:#eaeaf2;"/>
   </g>
   <g id="matplotlib.axis_1">
    <g id="xtick_1">
     <g id="line2d_1">
      <path clip-path="url(#p5e8e9fd87c)" d="M 184.581818 320.4 
L 184.581818 43.2 
" style="fill:none;stroke:#ffffff;stroke-linecap:round;"/>
     </g>
     <g id="line2d_2"/>
     <g id="text_1">
      <!-- 0 -->
      <defs>
       <path d="M 51.703125 34.421875 
Q 51.703125 24.515625 49.828125 17.75 
Q 47.953125 10.984375 44.703125 6.8125 
Q 41.453125 2.640625 37.0625 0.828125 
Q 32.671875 -0.984375 27.6875 -0.984375 
Q 22.65625 -0.984375 18.3125 0.828125 
Q 13.96875 2.640625 10.765625 6.78125 
Q 7.5625 10.9375 5.734375 17.703125 
Q 3.90625 24.46875 3.90625 34.421875 
Q 3.90625 44.828125 5.734375 51.640625 
Q 7.5625 58.453125 10.78125 62.5 
Q 14.015625 66.546875 18.40625 68.1875 
Q 22.796875 69.828125 27.984375 69.828125 
Q 32.90625 69.828125 37.21875 68.1875 
Q 41.546875 66.546875 44.765625 62.5 
Q 48 58.453125 49.84375 51.640625 
Q 51.703125 44.828125 51.703125 34.421875 
M 42.78125 34.421875 
Q 42.78125 42.625 41.796875 48.0625 
Q 40.828125 53.515625 38.921875 56.765625 
Q 37.015625 60.015625 34.25 61.359375 
Q 31.5 62.703125 27.984375 62.703125 
Q 24.265625 62.703125 21.4375 61.328125 
Q 18.609375 59.96875 16.671875 56.71875 
Q 14.75 53.46875 13.765625 48.015625 
Q 12.796875 42.578125 12.796875 34.421875 
Q 12.796875 26.515625 13.796875 21.09375 
Q 14.796875 15.671875 16.71875 12.375 
Q 18.65625 9.078125 21.4375 7.640625 
Q 24.21875 6.203125 27.78125 6.203125 
Q 31.25 6.203125 34.03125 7.640625 
Q 36.8125 9.078125 38.734375 12.375 
Q 40.671875 15.671875 41.71875 21.09375 
Q 42.78125 26.515625 42.78125 34.421875 
" id="LiberationSans-30"/>
      </defs>
      <g style="fill:#262626;" transform="translate(181.801349 334.646875)scale(0.1 -0.1)">
       <use xlink:href="#LiberationSans-30"/>
      </g>
     </g>
    </g>
    <g id="xtick_2">
     <g id="line2d_3">
      <path clip-path="url(#p5e8e9fd87c)" d="M 333.889464 320.4 
L 333.889464 43.2 
" style="fill:none;stroke:#ffffff;stroke-linecap:round;"/>
     </g>
     <g id="line2d_4"/>
     <g id="text_2">
      <!-- 500 -->
      <defs>
       <path d="M 51.421875 22.40625 
Q 51.421875 17.234375 49.859375 12.9375 
Q 48.296875 8.640625 45.21875 5.53125 
Q 42.140625 2.4375 37.578125 0.71875 
Q 33.015625 -0.984375 27 -0.984375 
Q 21.578125 -0.984375 17.546875 0.28125 
Q 13.53125 1.5625 10.734375 3.78125 
Q 7.953125 6 6.3125 8.984375 
Q 4.6875 11.96875 4 15.375 
L 12.890625 16.40625 
Q 13.421875 14.453125 14.390625 12.625 
Q 15.375 10.796875 17.0625 9.34375 
Q 18.75 7.90625 21.21875 7.046875 
Q 23.6875 6.203125 27.203125 6.203125 
Q 30.609375 6.203125 33.390625 7.25 
Q 36.1875 8.296875 38.15625 10.34375 
Q 40.140625 12.40625 41.203125 15.375 
Q 42.28125 18.359375 42.28125 22.21875 
Q 42.28125 25.390625 41.25 28.046875 
Q 40.234375 30.71875 38.328125 32.640625 
Q 36.421875 34.578125 33.65625 35.640625 
Q 30.90625 36.71875 27.390625 36.71875 
Q 25.203125 36.71875 23.34375 36.328125 
Q 21.484375 35.9375 19.890625 35.25 
Q 18.3125 34.578125 17.015625 33.671875 
Q 15.71875 32.765625 14.59375 31.78125 
L 6 31.78125 
L 8.296875 68.796875 
L 47.40625 68.796875 
L 47.40625 61.328125 
L 16.3125 61.328125 
L 14.984375 39.5 
Q 17.328125 41.3125 20.84375 42.59375 
Q 24.359375 43.890625 29.203125 43.890625 
Q 34.328125 43.890625 38.421875 42.328125 
Q 42.53125 40.765625 45.40625 37.90625 
Q 48.296875 35.0625 49.859375 31.109375 
Q 51.421875 27.15625 51.421875 22.40625 
" id="LiberationSans-35"/>
      </defs>
      <g style="fill:#262626;" transform="translate(325.548058 334.646875)scale(0.1 -0.1)">
       <use xlink:href="#LiberationSans-35"/>
       <use x="55.615234" xlink:href="#LiberationSans-30"/>
       <use x="111.230469" xlink:href="#LiberationSans-30"/>
      </g>
     </g>
    </g>
    <g id="xtick_3">
     <g id="line2d_5">
      <path clip-path="url(#p5e8e9fd87c)" d="M 483.19711 320.4 
L 483.19711 43.2 
" style="fill:none;stroke:#ffffff;stroke-linecap:round;"/>
     </g>
     <g id="line2d_6"/>
     <g id="text_3">
      <!-- 1000 -->
      <defs>
       <path d="M 7.625 0 
L 7.625 7.46875 
L 25.140625 7.46875 
L 25.140625 60.40625 
L 9.625 49.3125 
L 9.625 57.625 
L 25.875 68.796875 
L 33.984375 68.796875 
L 33.984375 7.46875 
L 50.734375 7.46875 
L 50.734375 0 
z
" id="LiberationSans-31"/>
      </defs>
      <g style="fill:#262626;" transform="translate(472.075235 334.646875)scale(0.1 -0.1)">
       <use xlink:href="#LiberationSans-31"/>
       <use x="55.615234" xlink:href="#LiberationSans-30"/>
       <use x="111.230469" xlink:href="#LiberationSans-30"/>
       <use x="166.845703" xlink:href="#LiberationSans-30"/>
      </g>
     </g>
    </g>
    <g id="xtick_4">
     <g id="line2d_7">
      <path clip-path="url(#p5e8e9fd87c)" d="M 632.504756 320.4 
L 632.504756 43.2 
" style="fill:none;stroke:#ffffff;stroke-linecap:round;"/>
     </g>
     <g id="line2d_8"/>
     <g id="text_4">
      <!-- 1500 -->
      <g style="fill:#262626;" transform="translate(621.382881 334.646875)scale(0.1 -0.1)">
       <use xlink:href="#LiberationSans-31"/>
       <use x="55.615234" xlink:href="#LiberationSans-35"/>
       <use x="111.230469" xlink:href="#LiberationSans-30"/>
       <use x="166.845703" xlink:href="#LiberationSans-30"/>
      </g>
     </g>
    </g>
    <g id="xtick_5">
     <g id="line2d_9">
      <path clip-path="url(#p5e8e9fd87c)" d="M 781.812402 320.4 
L 781.812402 43.2 
" style="fill:none;stroke:#ffffff;stroke-linecap:round;"/>
     </g>
     <g id="line2d_10"/>
     <g id="text_5">
      <!-- 2000 -->
      <defs>
       <path d="M 5.03125 0 
L 5.03125 6.203125 
Q 7.515625 11.921875 11.109375 16.28125 
Q 14.703125 20.65625 18.65625 24.1875 
Q 22.609375 27.734375 26.484375 30.765625 
Q 30.375 33.796875 33.5 36.8125 
Q 36.625 39.84375 38.546875 43.15625 
Q 40.484375 46.484375 40.484375 50.6875 
Q 40.484375 53.609375 39.59375 55.828125 
Q 38.71875 58.0625 37.0625 59.5625 
Q 35.40625 61.078125 33.078125 61.828125 
Q 30.765625 62.59375 27.9375 62.59375 
Q 25.296875 62.59375 22.96875 61.859375 
Q 20.65625 61.140625 18.84375 59.671875 
Q 17.046875 58.203125 15.890625 56.03125 
Q 14.75 53.859375 14.40625 50.984375 
L 5.421875 51.8125 
Q 5.859375 55.515625 7.46875 58.78125 
Q 9.078125 62.0625 11.90625 64.53125 
Q 14.75 67 18.71875 68.40625 
Q 22.703125 69.828125 27.9375 69.828125 
Q 33.0625 69.828125 37.0625 68.609375 
Q 41.0625 67.390625 43.8125 64.984375 
Q 46.578125 62.59375 48.046875 59.078125 
Q 49.515625 55.5625 49.515625 50.984375 
Q 49.515625 47.515625 48.265625 44.390625 
Q 47.015625 41.265625 44.9375 38.421875 
Q 42.875 35.59375 40.140625 32.953125 
Q 37.40625 30.328125 34.421875 27.8125 
Q 31.453125 25.296875 28.421875 22.828125 
Q 25.390625 20.359375 22.71875 17.859375 
Q 20.0625 15.375 17.96875 12.8125 
Q 15.875 10.25 14.703125 7.46875 
L 50.59375 7.46875 
L 50.59375 0 
z
" id="LiberationSans-32"/>
      </defs>
      <g style="fill:#262626;" transform="translate(770.690527 334.646875)scale(0.1 -0.1)">
       <use xlink:href="#LiberationSans-32"/>
       <use x="55.615234" xlink:href="#LiberationSans-30"/>
       <use x="111.230469" xlink:href="#LiberationSans-30"/>
       <use x="166.845703" xlink:href="#LiberationSans-30"/>
      </g>
     </g>
    </g>
    <g id="xtick_6">
     <g id="line2d_11">
      <path clip-path="url(#p5e8e9fd87c)" d="M 931.120048 320.4 
L 931.120048 43.2 
" style="fill:none;stroke:#ffffff;stroke-linecap:round;"/>
     </g>
     <g id="line2d_12"/>
     <g id="text_6">
      <!-- 2500 -->
      <g style="fill:#262626;" transform="translate(919.998173 334.646875)scale(0.1 -0.1)">
       <use xlink:href="#LiberationSans-32"/>
       <use x="55.615234" xlink:href="#LiberationSans-35"/>
       <use x="111.230469" xlink:href="#LiberationSans-30"/>
       <use x="166.845703" xlink:href="#LiberationSans-30"/>
      </g>
     </g>
    </g>
   </g>
   <g id="matplotlib.axis_2">
    <g id="ytick_1">
     <g id="line2d_13">
      <path clip-path="url(#p5e8e9fd87c)" d="M 144 318.770144 
L 1036.8 318.770144 
" style="fill:none;stroke:#ffffff;stroke-linecap:round;"/>
     </g>
     <g id="line2d_14"/>
     <g id="text_7">
      <!-- −30000 -->
      <defs>
       <path d="M 4.9375 29.6875 
L 4.9375 36.8125 
L 53.515625 36.8125 
L 53.515625 29.6875 
z
" id="LiberationSans-2212"/>
       <path d="M 51.21875 19 
Q 51.21875 14.265625 49.671875 10.546875 
Q 48.140625 6.84375 45.1875 4.265625 
Q 42.234375 1.703125 37.859375 0.359375 
Q 33.5 -0.984375 27.875 -0.984375 
Q 21.484375 -0.984375 17.109375 0.609375 
Q 12.75 2.203125 9.90625 4.8125 
Q 7.078125 7.421875 5.65625 10.765625 
Q 4.25 14.109375 3.8125 17.671875 
L 12.890625 18.5 
Q 13.28125 15.765625 14.328125 13.515625 
Q 15.375 11.28125 17.1875 9.671875 
Q 19 8.0625 21.625 7.171875 
Q 24.265625 6.296875 27.875 6.296875 
Q 34.515625 6.296875 38.296875 9.5625 
Q 42.09375 12.84375 42.09375 19.28125 
Q 42.09375 23.09375 40.40625 25.40625 
Q 38.71875 27.734375 36.203125 29.03125 
Q 33.6875 30.328125 30.734375 30.765625 
Q 27.78125 31.203125 25.296875 31.203125 
L 20.3125 31.203125 
L 20.3125 38.8125 
L 25.09375 38.8125 
Q 27.59375 38.8125 30.265625 39.328125 
Q 32.953125 39.84375 35.171875 41.1875 
Q 37.40625 42.53125 38.84375 44.828125 
Q 40.28125 47.125 40.28125 50.6875 
Q 40.28125 56.203125 37.03125 59.390625 
Q 33.796875 62.59375 27.390625 62.59375 
Q 21.578125 62.59375 17.984375 59.609375 
Q 14.40625 56.640625 13.8125 51.21875 
L 4.984375 51.90625 
Q 5.515625 56.453125 7.46875 59.8125 
Q 9.421875 63.1875 12.421875 65.40625 
Q 15.4375 67.625 19.28125 68.71875 
Q 23.140625 69.828125 27.484375 69.828125 
Q 33.25 69.828125 37.390625 68.375 
Q 41.546875 66.9375 44.1875 64.46875 
Q 46.828125 62.015625 48.0625 58.6875 
Q 49.3125 55.375 49.3125 51.609375 
Q 49.3125 48.578125 48.484375 45.9375 
Q 47.65625 43.3125 45.890625 41.203125 
Q 44.140625 39.109375 41.421875 37.59375 
Q 38.71875 36.078125 34.90625 35.296875 
L 34.90625 35.109375 
Q 39.0625 34.671875 42.140625 33.21875 
Q 45.21875 31.78125 47.21875 29.625 
Q 49.21875 27.484375 50.21875 24.75 
Q 51.21875 22.015625 51.21875 19 
" id="LiberationSans-33"/>
      </defs>
      <g style="fill:#262626;" transform="translate(103.354687 322.393581)scale(0.1 -0.1)">
       <use xlink:href="#LiberationSans-2212"/>
       <use x="58.398438" xlink:href="#LiberationSans-33"/>
       <use x="114.013672" xlink:href="#LiberationSans-30"/>
       <use x="169.628906" xlink:href="#LiberationSans-30"/>
       <use x="225.244141" xlink:href="#LiberationSans-30"/>
       <use x="280.859375" xlink:href="#LiberationSans-30"/>
      </g>
     </g>
    </g>
    <g id="ytick_2">
     <g id="line2d_15">
      <path clip-path="url(#p5e8e9fd87c)" d="M 144 276.430723 
L 1036.8 276.430723 
" style="fill:none;stroke:#ffffff;stroke-linecap:round;"/>
     </g>
     <g id="line2d_16"/>
     <g id="text_8">
      <!-- −20000 -->
      <g style="fill:#262626;" transform="translate(103.354687 280.05416)scale(0.1 -0.1)">
       <use xlink:href="#LiberationSans-2212"/>
       <use x="58.398438" xlink:href="#LiberationSans-32"/>
       <use x="114.013672" xlink:href="#LiberationSans-30"/>
       <use x="169.628906" xlink:href="#LiberationSans-30"/>
       <use x="225.244141" xlink:href="#LiberationSans-30"/>
       <use x="280.859375" xlink:href="#LiberationSans-30"/>
      </g>
     </g>
    </g>
    <g id="ytick_3">
     <g id="line2d_17">
      <path clip-path="url(#p5e8e9fd87c)" d="M 144 234.091302 
L 1036.8 234.091302 
" style="fill:none;stroke:#ffffff;stroke-linecap:round;"/>
     </g>
     <g id="line2d_18"/>
     <g id="text_9">
      <!-- −10000 -->
      <g style="fill:#262626;" transform="translate(103.354687 237.714739)scale(0.1 -0.1)">
       <use xlink:href="#LiberationSans-2212"/>
       <use x="58.398438" xlink:href="#LiberationSans-31"/>
       <use x="114.013672" xlink:href="#LiberationSans-30"/>
       <use x="169.628906" xlink:href="#LiberationSans-30"/>
       <use x="225.244141" xlink:href="#LiberationSans-30"/>
       <use x="280.859375" xlink:href="#LiberationSans-30"/>
      </g>
     </g>
    </g>
    <g id="ytick_4">
     <g id="line2d_19">
      <path clip-path="url(#p5e8e9fd87c)" d="M 144 191.751881 
L 1036.8 191.751881 
" style="fill:none;stroke:#ffffff;stroke-linecap:round;"/>
     </g>
     <g id="line2d_20"/>
     <g id="text_10">
      <!-- 0 -->
      <g style="fill:#262626;" transform="translate(131.439063 195.375318)scale(0.1 -0.1)">
       <use xlink:href="#LiberationSans-30"/>
      </g>
     </g>
    </g>
    <g id="ytick_5">
     <g id="line2d_21">
      <path clip-path="url(#p5e8e9fd87c)" d="M 144 149.41246 
L 1036.8 149.41246 
" style="fill:none;stroke:#ffffff;stroke-linecap:round;"/>
     </g>
     <g id="line2d_22"/>
     <g id="text_11">
      <!-- 10000 -->
      <g style="fill:#262626;" transform="translate(109.195312 153.035897)scale(0.1 -0.1)">
       <use xlink:href="#LiberationSans-31"/>
       <use x="55.615234" xlink:href="#LiberationSans-30"/>
       <use x="111.230469" xlink:href="#LiberationSans-30"/>
       <use x="166.845703" xlink:href="#LiberationSans-30"/>
       <use x="222.460938" xlink:href="#LiberationSans-30"/>
      </g>
     </g>
    </g>
    <g id="ytick_6">
     <g id="line2d_23">
      <path clip-path="url(#p5e8e9fd87c)" d="M 144 107.073039 
L 1036.8 107.073039 
" style="fill:none;stroke:#ffffff;stroke-linecap:round;"/>
     </g>
     <g id="line2d_24"/>
     <g id="text_12">
      <!-- 20000 -->
      <g style="fill:#262626;" transform="translate(109.195312 110.696476)scale(0.1 -0.1)">
       <use xlink:href="#LiberationSans-32"/>
       <use x="55.615234" xlink:href="#LiberationSans-30"/>
       <use x="111.230469" xlink:href="#LiberationSans-30"/>
       <use x="166.845703" xlink:href="#LiberationSans-30"/>
       <use x="222.460938" xlink:href="#LiberationSans-30"/>
      </g>
     </g>
    </g>
    <g id="ytick_7">
     <g id="line2d_25">
      <path clip-path="url(#p5e8e9fd87c)" d="M 144 64.733618 
L 1036.8 64.733618 
" style="fill:none;stroke:#ffffff;stroke-linecap:round;"/>
     </g>
     <g id="line2d_26"/>
     <g id="text_13">
      <!-- 30000 -->
      <g style="fill:#262626;" transform="translate(109.195312 68.357055)scale(0.1 -0.1)">
       <use xlink:href="#LiberationSans-33"/>
       <use x="55.615234" xlink:href="#LiberationSans-30"/>
       <use x="111.230469" xlink:href="#LiberationSans-30"/>
       <use x="166.845703" xlink:href="#LiberationSans-30"/>
       <use x="222.460938" xlink:href="#LiberationSans-30"/>
      </g>
     </g>
    </g>
   </g>
   <g id="line2d_27">
    <path clip-path="url(#p5e8e9fd87c)" d="M 184.581818 190.51557 
L 184.880433 189.973625 
L 185.179049 190.164153 
L 185.477664 190.05407 
L 186.074895 189.004052 
L 186.37351 189.042158 
L 186.970741 191.091386 
L 187.866586 194.999315 
L 188.165202 195.625938 
L 188.463817 195.651342 
L 188.762432 195.151736 
L 189.658278 193.055935 
L 189.956893 192.861174 
L 190.554124 193.623283 
L 190.852739 193.508967 
L 191.44997 191.646032 
L 191.748585 191.612161 
L 192.345816 193.69526 
L 192.644431 193.305738 
L 193.241662 188.390131 
L 193.838892 184.435629 
L 194.137508 183.135809 
L 194.436123 182.513419 
L 194.734738 182.945281 
L 195.630584 187.890526 
L 195.929199 187.771975 
L 196.227815 187.183457 
L 196.52643 187.390921 
L 196.825045 188.436704 
L 198.019506 193.915425 
L 198.318122 194.313416 
L 198.616737 193.614815 
L 199.213967 190.807712 
L 199.512583 190.248831 
L 199.811198 190.468996 
L 201.005659 192.806132 
L 202.20012 196.03663 
L 202.498736 196.413451 
L 202.797351 196.574341 
L 203.394582 197.429597 
L 203.693197 198.128198 
L 203.991812 198.534656 
L 204.290427 198.424574 
L 204.589043 197.895331 
L 205.186273 196.006993 
L 206.380734 191.154895 
L 207.27658 184.660028 
L 207.575196 183.914854 
L 207.873811 184.295909 
L 208.471042 186.53143 
L 209.366887 191.121024 
L 209.665503 190.820414 
L 209.964118 189.347002 
L 210.262733 188.559489 
L 210.561349 189.545997 
L 211.158579 193.466627 
L 211.457194 193.094041 
L 212.054425 190.265767 
L 212.35304 190.392785 
L 212.950271 192.509757 
L 213.547502 193.813811 
L 214.443347 195.194076 
L 214.741963 196.61668 
L 215.339193 200.372187 
L 215.637809 200.194361 
L 216.533654 195.448112 
L 217.130885 195.609002 
L 217.4295 195.100929 
L 218.026731 193.030531 
L 218.623961 189.45285 
L 219.221192 185.870935 
L 219.818423 184.77011 
L 220.714269 181.717438 
L 221.012884 182.77169 
L 221.610114 186.654215 
L 221.90873 187.750806 
L 222.207345 188.394365 
L 222.50596 188.479044 
L 222.804576 187.85242 
L 223.103191 186.633045 
L 223.401806 186.184247 
L 223.700421 187.683063 
L 224.297652 193.072871 
L 224.596267 193.487797 
L 225.193498 190.401253 
L 225.492113 190.61295 
L 226.686574 197.624359 
L 227.283805 199.093537 
L 227.58242 199.27983 
L 227.881036 198.750587 
L 228.179651 197.975776 
L 228.478266 197.929202 
L 228.776881 198.42034 
L 229.075497 198.454211 
L 229.374112 197.086648 
L 229.971343 192.933151 
L 230.269958 192.539394 
L 230.568573 192.831536 
L 230.867188 192.027087 
L 231.763034 184.829386 
L 232.06165 184.922532 
L 232.360265 185.261248 
L 232.65888 184.596519 
L 232.957495 183.626946 
L 233.256111 184.223932 
L 233.853341 189.973625 
L 234.151957 191.188767 
L 234.749187 189.296194 
L 235.047803 189.711121 
L 235.645033 193.221059 
L 235.943648 193.843448 
L 236.540879 193.530137 
L 236.839494 194.008572 
L 237.13811 195.041654 
L 237.436725 196.91729 
L 238.033955 201.837131 
L 238.332571 202.738961 
L 239.228417 200.71937 
L 239.527032 200.905664 
L 239.825647 199.842944 
L 240.721493 191.552886 
L 241.020108 191.895835 
L 241.318724 192.484353 
L 241.617339 191.39623 
L 242.513185 182.886006 
L 242.8118 182.33136 
L 243.110415 182.77169 
L 243.707646 184.19006 
L 244.006261 184.274739 
L 244.603492 183.241657 
L 244.902107 183.79207 
L 245.499338 187.492535 
L 245.797953 187.805847 
L 246.096568 186.81087 
L 246.395184 186.349371 
L 246.693799 188.110691 
L 247.29103 195.410007 
L 247.589645 197.628593 
L 248.186875 198.8395 
L 249.082721 203.390988 
L 249.381337 203.094612 
L 249.679952 201.066554 
L 250.277182 195.113631 
L 250.575798 193.712196 
L 250.874413 193.640219 
L 251.173028 193.403118 
L 251.471644 191.425867 
L 252.068874 185.011445 
L 252.367489 184.240868 
L 252.96472 186.616109 
L 253.263335 186.163077 
L 253.561951 185.002977 
L 253.860566 185.036849 
L 254.756412 191.789986 
L 255.055027 191.324253 
L 255.652258 187.386687 
L 255.950873 186.336669 
L 256.249488 186.616109 
L 256.548104 188.191136 
L 258.04118 201.227443 
L 258.638411 206.706164 
L 258.937026 206.126114 
L 259.235641 202.205484 
L 259.832872 191.929706 
L 260.131487 189.905882 
L 260.430102 190.121813 
L 260.728718 190.583313 
L 261.027333 189.905882 
L 261.624564 186.899783 
L 262.520409 184.676964 
L 262.819025 184.118083 
L 263.11764 184.609221 
L 264.013486 189.092965 
L 264.312101 189.728057 
L 264.610716 190.909326 
L 265.207947 194.368457 
L 265.506562 194.139824 
L 266.103793 190.862753 
L 266.402408 191.586757 
L 266.999639 198.513486 
L 267.298254 201.94298 
L 267.596869 204.021845 
L 267.895485 204.559556 
L 268.1941 202.988763 
L 268.791331 194.389627 
L 269.089946 189.943988 
L 269.388561 187.200393 
L 269.687176 185.947146 
L 270.284407 184.380588 
L 271.777483 179.98999 
L 272.076099 181.099283 
L 273.27056 191.413166 
L 274.465021 204.898271 
L 275.360867 211.812299 
L 275.659482 210.313483 
L 275.958098 204.153097 
L 276.555328 187.128416 
L 276.853943 182.28902 
L 277.152559 180.650485 
L 277.451174 180.286366 
L 277.749789 179.697848 
L 278.34702 177.48773 
L 278.645635 177.34801 
L 278.94425 178.567385 
L 279.242866 180.472659 
L 279.541481 181.556548 
L 279.840096 180.658953 
L 280.138712 178.584321 
L 280.437327 177.885721 
L 280.735942 180.713994 
L 282.826249 221.635044 
L 283.124865 223.506447 
L 283.42348 221.969526 
L 283.722095 217.117428 
L 284.916556 187.022568 
L 285.513787 179.765591 
L 286.409633 165.222 
L 286.708248 166.255082 
L 287.604094 178.105886 
L 288.49994 183.927556 
L 289.09717 186.929421 
L 289.395786 189.482488 
L 289.694401 193.305738 
L 290.291632 205.698486 
L 291.187477 234.967728 
L 291.486093 238.050038 
L 291.784708 233.972752 
L 292.381939 212.659087 
L 293.5764 163.27862 
L 293.875015 159.81949 
L 294.17363 160.547728 
L 294.472246 163.265918 
L 294.770861 167.059531 
L 295.368092 179.333729 
L 295.666707 185.942912 
L 295.965322 190.015965 
L 296.263937 190.854285 
L 296.562553 189.308896 
L 297.458399 178.330284 
L 297.757014 178.910335 
L 298.055629 185.439073 
L 299.548706 236.779855 
L 299.847321 242.732778 
L 300.145936 241.941031 
L 300.444551 232.884628 
L 301.340397 183.787836 
L 301.937628 152.816549 
L 302.236243 146.550315 
L 302.534859 150.348161 
L 303.132089 171.251133 
L 303.430704 177.576643 
L 304.625166 190.253065 
L 304.923781 188.000608 
L 305.521011 178.923036 
L 305.819627 177.822211 
L 306.118242 179.896843 
L 306.416857 184.503372 
L 306.715473 191.320019 
L 307.312703 212.218757 
L 307.909934 234.98043 
L 308.208549 242.576122 
L 308.507164 244.405185 
L 308.80578 237.626644 
L 309.104395 221.567301 
L 310.000241 159.387627 
L 310.298856 151.444752 
L 310.597471 152.228031 
L 311.493317 170.14184 
L 312.090548 175.129424 
L 312.389163 180.574274 
L 312.986394 194.330352 
L 313.285009 195.837635 
L 313.583624 192.25572 
L 314.180855 181.272874 
L 314.47947 177.60628 
L 314.778085 175.383461 
L 315.076701 175.629029 
L 315.375316 180.282132 
L 315.673931 190.481698 
L 316.569777 232.215666 
L 316.868393 241.293237 
L 317.167008 246.179207 
L 317.465623 244.705795 
L 317.764238 234.002389 
L 318.9587 154.112136 
L 319.257315 153.993585 
L 319.854545 164.929858 
L 320.451776 167.995232 
L 320.750391 172.639866 
L 321.646237 196.65902 
L 321.944852 200.456866 
L 322.243468 201.748218 
L 322.542083 200.113917 
L 322.840698 194.495475 
L 323.736544 171.712633 
L 324.03516 168.596452 
L 324.333775 166.826664 
L 324.63239 168.321245 
L 324.931005 177.983101 
L 325.528236 226.664967 
L 325.826851 251.636758 
L 326.125467 264.808552 
L 326.424082 263.470626 
L 326.722697 250.315768 
L 327.917158 164.239725 
L 328.215774 155.970836 
L 328.514389 155.331511 
L 328.813004 157.29606 
L 329.410235 158.633986 
L 329.70885 162.402194 
L 330.306081 183.02996 
L 330.903311 204.635767 
L 331.201927 211.177207 
L 331.500542 213.226435 
L 331.799157 209.881621 
L 332.396388 190.4944 
L 332.993618 170.340836 
L 333.292234 163.587698 
L 333.590849 160.535026 
L 333.889464 162.817121 
L 334.188079 171.66606 
L 334.78531 207.874732 
L 335.382541 253.22872 
L 335.681156 267.55638 
L 335.979771 268.691077 
L 336.278387 254.858788 
L 337.472848 157.905748 
L 337.771463 151.186482 
L 338.070078 152.160288 
L 338.667309 159.552751 
L 338.965924 162.059245 
L 339.264539 166.259316 
L 339.563155 174.769539 
L 340.459001 206.138816 
L 340.757616 209.127979 
L 341.056231 207.510613 
L 341.354846 201.388333 
L 342.549308 164.100005 
L 342.847923 164.125409 
L 343.445154 168.748873 
L 343.743769 172.208004 
L 344.042384 178.630894 
L 344.340999 189.088731 
L 344.93823 221.431815 
L 345.535461 257.974969 
L 345.834076 266.967862 
L 346.132691 263.91519 
L 346.431306 249.210709 
L 347.924383 142.811744 
L 348.222998 141.622006 
L 348.521613 148.794304 
L 349.716075 188.424002 
L 350.01469 196.587043 
L 350.313305 199.313702 
L 350.611921 195.431177 
L 351.209151 181.370255 
L 351.507766 178.317583 
L 352.104997 174.951599 
L 352.403612 172.50438 
L 352.702228 171.285005 
L 353.000843 172.195302 
L 353.299458 175.078617 
L 354.493919 191.277679 
L 355.09115 195.494686 
L 355.389765 200.050407 
L 355.986996 217.511185 
L 356.882842 242.571888 
L 357.181457 249.30809 
L 357.480072 253.516628 
L 357.778688 251.844221 
L 358.077303 240.658146 
L 358.674533 189.91435 
L 359.271764 143.078483 
L 359.570379 137.756417 
L 359.868995 142.811744 
L 360.466225 158.041234 
L 361.660686 177.534303 
L 362.556532 199.593142 
L 362.855148 202.531498 
L 363.153763 199.868348 
L 363.750993 190.219194 
L 364.049609 189.296194 
L 364.348224 188.923608 
L 364.646839 186.450985 
L 364.945455 183.034194 
L 365.24407 181.819053 
L 365.8413 184.621922 
L 366.139916 181.789415 
L 366.737146 172.284215 
L 367.035762 172.428169 
L 367.334377 175.836493 
L 367.632992 180.752099 
L 367.931607 187.547576 
L 369.126069 221.588471 
L 369.424684 228.582943 
L 370.619145 268.445508 
L 370.91776 268.415871 
L 371.216376 260.959899 
L 371.514991 240.713187 
L 372.410837 134.707979 
L 372.709452 126.193521 
L 373.306683 142.320607 
L 373.605298 140.550819 
L 373.903913 132.56137 
L 374.202529 129.534102 
L 374.501144 137.320321 
L 376.292836 226.580289 
L 376.591451 229.848892 
L 376.890066 226.681903 
L 377.487297 214.780292 
L 378.084527 195.824933 
L 378.681758 179.503086 
L 379.577604 166.627668 
L 379.876219 164.785904 
L 380.47345 170.103735 
L 380.772065 168.68113 
L 381.369296 158.104743 
L 381.667911 162.4403 
L 381.966526 177.106675 
L 382.563757 216.139387 
L 382.862372 229.446667 
L 383.160987 235.95847 
L 383.459603 236.428438 
L 384.355449 225.47523 
L 384.654064 224.497189 
L 384.952679 224.514125 
L 385.251294 227.134935 
L 385.54991 236.466543 
L 386.14714 266.049097 
L 386.445756 261.484907 
L 386.744371 229.649897 
L 387.341601 130.232702 
L 387.640217 104.579247 
L 387.938832 106.281292 
L 388.536063 141.351034 
L 388.834678 150.898574 
L 389.431908 157.401909 
L 389.730524 165.310912 
L 390.924985 216.2283 
L 391.2236 215.504296 
L 392.119446 197.573551 
L 392.716677 189.901648 
L 393.313907 176.793363 
L 393.612523 172.978582 
L 393.911138 172.792288 
L 394.209753 175.303016 
L 394.806984 184.795514 
L 395.70283 205.203115 
L 396.001445 206.943265 
L 396.30006 203.556111 
L 397.793137 166.288953 
L 398.091752 162.944139 
L 398.390367 166.64037 
L 398.688983 180.383746 
L 399.286213 218.425716 
L 399.584828 224.25162 
L 399.883444 216.901497 
L 400.480674 195.926548 
L 400.77929 196.167883 
L 401.37652 207.6461 
L 401.675135 210.258442 
L 401.973751 211.168739 
L 402.272366 215.042796 
L 402.570981 226.872431 
L 403.168212 270.935066 
L 403.466827 280.198931 
L 403.765443 260.786307 
L 404.661288 115.566327 
L 404.959904 109.062992 
L 405.85575 156.055515 
L 406.154365 154.349236 
L 406.45298 153.671806 
L 406.751595 161.767103 
L 407.647441 203.348648 
L 407.946057 206.706164 
L 408.244672 203.454497 
L 408.841902 190.985537 
L 409.140518 190.621418 
L 409.737748 197.281409 
L 410.036364 193.707962 
L 410.633594 173.50359 
L 410.93221 168.439796 
L 411.230825 170.747294 
L 411.828055 188.296984 
L 412.425286 204.144629 
L 412.723901 207.984815 
L 413.022517 209.212658 
L 413.918362 210.262676 
L 414.216978 209.957832 
L 414.515593 206.807779 
L 414.814208 198.094326 
L 415.411439 160.450347 
L 415.710054 142.871019 
L 416.008669 139.860687 
L 416.307285 154.878479 
L 416.904515 203.52224 
L 417.203131 215.131709 
L 417.501746 217.519653 
L 417.800361 217.875304 
L 418.098977 218.899918 
L 418.397592 216.304511 
L 418.696207 204.915207 
L 419.293438 172.009009 
L 419.592053 169.921675 
L 419.890668 182.513419 
L 420.487899 221.457219 
L 421.383745 263.881319 
L 421.980975 302.79548 
L 422.279591 294.391105 
L 422.578206 252.792624 
L 423.175436 130.169193 
L 423.474052 97.792238 
L 423.772667 94.485529 
L 424.369898 112.928581 
L 424.668513 115.282653 
L 424.967128 121.849497 
L 425.265744 140.652434 
L 425.862974 197.63706 
L 426.161589 215.881117 
L 426.460205 222.020333 
L 426.75882 219.221697 
L 427.953281 191.345422 
L 428.251896 185.756619 
L 429.147742 160.141269 
L 429.446358 161.106608 
L 430.043588 176.221781 
L 430.342203 180.239792 
L 430.640819 182.509185 
L 430.939434 188.064117 
L 431.83528 218.950725 
L 432.133895 219.725536 
L 432.731126 214.411939 
L 433.029741 214.132499 
L 433.328356 213.018972 
L 433.626972 206.231963 
L 434.821433 152.223797 
L 435.120048 158.240229 
L 435.717279 180.299068 
L 436.314509 196.523534 
L 436.613125 206.803545 
L 436.91174 212.985101 
L 437.210355 207.129559 
L 437.807586 172.059816 
L 438.106201 168.28314 
L 438.404816 180.421852 
L 439.002047 208.882411 
L 439.300662 212.875018 
L 439.599278 219.039638 
L 439.897893 234.362274 
L 440.793739 296.567352 
L 441.092354 307.8 
L 441.390969 306.805024 
L 441.689585 282.201586 
L 442.286815 154.984328 
L 442.58543 89.680005 
L 442.884046 55.8 
L 443.182661 57.972012 
L 445.272968 220.690875 
L 445.571583 237.076231 
L 445.870199 238.786744 
L 446.168814 227.126467 
L 446.766045 193.479329 
L 447.06466 185.083422 
L 447.66189 179.511554 
L 448.557736 164.354042 
L 448.856352 163.308258 
L 449.154967 164.455656 
L 449.453582 168.558346 
L 449.752197 177.271799 
L 450.648043 213.827655 
L 451.245274 225.225427 
L 451.543889 229.874296 
L 451.842505 232.207198 
L 452.14112 230.314626 
L 452.73835 218.307166 
L 453.036966 207.773118 
L 453.634196 167.025659 
L 453.932812 146.279343 
L 454.231427 136.490469 
L 454.530042 138.522761 
L 455.127273 155.208727 
L 455.425888 169.125694 
L 456.321734 232.804184 
L 456.620349 224.586102 
L 457.21758 171.132583 
L 457.516195 159.641664 
L 457.81481 166.10266 
L 458.710656 207.730778 
L 459.606502 234.832242 
L 460.502348 264.338584 
L 461.099579 276.777906 
L 461.398194 274.927674 
L 461.696809 257.382217 
L 461.995424 216.825286 
L 462.592655 99.037017 
L 462.89127 64.441476 
L 463.189886 65.152778 
L 464.085731 148.400548 
L 464.981577 194.334586 
L 465.578808 229.057145 
L 465.877423 230.11563 
L 466.176039 218.755964 
L 466.773269 185.087656 
L 467.071884 175.040511 
L 467.3705 171.213028 
L 467.96773 170.213817 
L 468.564961 167.042595 
L 468.863576 166.898641 
L 469.162191 169.680341 
L 469.460807 176.429244 
L 471.551114 245.036042 
L 471.849729 245.158827 
L 472.148344 235.51814 
L 473.342806 173.960856 
L 473.940036 158.904958 
L 474.537267 151.647981 
L 475.134497 142.604281 
L 475.433113 149.967106 
L 476.328958 227.740389 
L 476.627574 227.545627 
L 477.52342 170.417047 
L 477.822035 173.219916 
L 478.419266 194.889232 
L 479.315111 217.020047 
L 480.210957 251.632524 
L 480.509573 250.717993 
L 481.106803 236.822195 
L 481.405418 244.20619 
L 482.002649 274.402665 
L 482.301264 259.105432 
L 482.898495 147.426741 
L 483.19711 94.828478 
L 483.495725 72.134549 
L 483.794341 79.637094 
L 484.988802 171.18339 
L 486.481878 219.412225 
L 486.780494 214.390769 
L 487.67634 169.680341 
L 487.974955 169.079121 
L 488.27357 173.38504 
L 488.572185 175.379227 
L 488.870801 172.936242 
L 489.169416 169.316222 
L 489.468031 168.532942 
L 489.766647 171.594083 
L 490.065262 177.212524 
L 490.662492 195.405773 
L 491.558338 234.67982 
L 491.856954 238.659725 
L 492.155569 235.048173 
L 494.245876 174.68486 
L 494.544491 169.654937 
L 494.843107 169.278116 
L 495.141722 170.192648 
L 495.440337 166.830898 
L 496.037568 150.386267 
L 496.336183 155.149451 
L 497.232029 219.801747 
L 497.530644 215.64825 
L 498.127875 182.644671 
L 498.42649 180.701292 
L 499.023721 192.420844 
L 499.322336 191.629097 
L 499.620951 192.361569 
L 499.919567 202.023424 
L 500.516797 230.754956 
L 500.815412 234.374976 
L 501.114028 233.020115 
L 501.412643 233.164069 
L 501.711258 235.526608 
L 502.308489 237.986529 
L 502.607104 245.421331 
L 502.905719 259.892945 
L 503.204335 267.353151 
L 503.50295 247.915123 
L 504.398796 85.37832 
L 504.697411 74.154139 
L 504.996026 91.492132 
L 505.593257 138.789499 
L 507.086334 213.861527 
L 507.384949 222.308241 
L 507.683564 222.185457 
L 507.982179 210.885065 
L 508.57941 171.50517 
L 508.878025 161.250562 
L 509.176641 161.572342 
L 509.475256 166.703879 
L 509.773871 169.781955 
L 510.072486 168.693832 
L 510.371102 166.36093 
L 510.669717 166.504884 
L 510.968332 171.36545 
L 511.266948 181.984176 
L 512.162793 230.242649 
L 512.461409 236.005044 
L 512.760024 233.6171 
L 513.357255 222.155819 
L 513.954485 214.16637 
L 514.253101 207.30315 
L 515.148946 174.557842 
L 515.447562 172.817692 
L 515.746177 180.874884 
L 516.044792 192.687582 
L 516.343408 197.641294 
L 516.642023 188.910906 
L 517.239253 154.700654 
L 517.537869 152.283073 
L 517.836484 163.490317 
L 518.433715 191.184533 
L 518.73233 194.190632 
L 519.329561 188.843163 
L 519.628176 189.833905 
L 520.225406 197.586253 
L 520.524022 197.408428 
L 520.822637 195.185608 
L 521.121252 196.735231 
L 521.419868 206.18539 
L 522.017098 232.558615 
L 522.315713 236.593562 
L 522.614329 234.764499 
L 523.211559 229.734576 
L 523.80879 221.101568 
L 524.107405 224.213515 
L 524.704636 257.598148 
L 525.003251 258.614295 
L 525.301866 229.146058 
L 526.197712 89.866298 
L 526.496328 81.487327 
L 526.794943 91.132247 
L 527.093558 112.200343 
L 528.288019 222.075374 
L 528.586635 224.238919 
L 528.88525 218.866046 
L 529.183865 210.753813 
L 529.48248 199.529633 
L 530.079711 168.469433 
L 530.378326 159.840659 
L 530.676942 160.361434 
L 530.975557 164.891752 
L 531.274172 166.881705 
L 531.572787 165.984109 
L 531.871403 166.66154 
L 532.170018 171.50517 
L 533.065864 197.035841 
L 533.96171 231.707593 
L 534.260325 230.445878 
L 535.156171 211.613303 
L 535.454786 205.690018 
L 536.350632 178.791784 
L 536.649247 178.304881 
L 536.947863 182.517653 
L 537.843709 202.713557 
L 538.142324 202.539965 
L 538.440939 192.251486 
L 539.03817 159.679769 
L 539.336785 153.993585 
L 539.6354 157.126702 
L 540.232631 165.840155 
L 540.531246 170.226519 
L 540.829862 179.426875 
L 541.427092 203.539176 
L 541.725707 207.074517 
L 542.024323 203.886359 
L 542.322938 199.288298 
L 542.621553 198.030817 
L 542.920169 202.099635 
L 543.816014 230.691446 
L 544.11463 232.457 
L 544.413245 226.639564 
L 545.010476 212.40505 
L 545.309091 211.803831 
L 545.607706 214.149435 
L 545.906321 219.75094 
L 546.204937 232.224133 
L 546.802167 266.561404 
L 547.100783 259.613505 
L 547.399398 221.876379 
L 547.996629 110.333174 
L 548.295244 80.526222 
L 548.593859 77.854604 
L 548.892474 94.299236 
L 549.489705 155.615185 
L 550.086936 218.882982 
L 550.385551 230.166438 
L 550.684166 225.170386 
L 551.878627 175.561286 
L 552.177243 165.691967 
L 552.475858 161.394516 
L 552.774473 162.986478 
L 553.073089 166.043384 
L 553.371704 165.937536 
L 553.670319 164.15928 
L 553.968934 166.568393 
L 554.26755 176.458882 
L 554.86478 204.927909 
L 555.462011 222.020333 
L 555.760626 227.151871 
L 556.059241 229.446667 
L 556.357857 227.359334 
L 556.656472 220.991485 
L 557.850933 184.905597 
L 558.149548 182.293254 
L 558.448164 183.101937 
L 558.746779 185.278183 
L 559.045394 188.284282 
L 559.34401 194.389627 
L 559.94124 211.702216 
L 560.239856 210.398162 
L 561.135701 177.538537 
L 561.434317 176.861107 
L 561.732932 173.490889 
L 562.628778 139.975003 
L 562.927393 151.719958 
L 563.524624 193.809577 
L 563.823239 204.673872 
L 565.0177 224.501423 
L 565.316315 221.025357 
L 565.614931 215.449255 
L 565.913546 212.417752 
L 566.212161 211.858872 
L 566.510777 210.148359 
L 567.108007 200.401825 
L 567.406623 198.183239 
L 567.705238 199.229023 
L 568.003853 202.36214 
L 568.302468 208.840071 
L 568.601084 222.354814 
L 569.49693 280.707004 
L 569.795545 267.992476 
L 570.09416 227.897045 
L 570.990006 73.751915 
L 571.288621 60.736776 
L 571.587237 75.69106 
L 572.781698 220.521517 
L 573.080313 227.985957 
L 573.378928 222.617319 
L 574.57339 177.470794 
L 574.872005 172.614463 
L 575.469235 166.8436 
L 576.066466 159.921104 
L 576.365081 163.240515 
L 576.962312 189.05486 
L 577.260927 201.731282 
L 577.559542 208.387039 
L 577.858158 210.330419 
L 578.156773 211.151804 
L 578.754004 214.475448 
L 579.052619 214.170604 
L 579.351234 210.969744 
L 579.948465 197.852991 
L 580.24708 191.201468 
L 580.545695 187.539109 
L 580.844311 187.69153 
L 581.441541 190.926262 
L 581.740157 191.260744 
L 582.038772 193.174485 
L 582.636002 205.40211 
L 582.934618 207.125325 
L 583.233233 201.727049 
L 583.531848 193.568242 
L 583.830464 189.588336 
L 584.129079 190.253065 
L 584.427694 188.707677 
L 584.726309 178.016973 
L 585.32354 142.498432 
L 585.622155 136.350749 
L 585.920771 142.659322 
L 586.518001 175.777217 
L 587.413847 235.196361 
L 587.712462 242.487209 
L 588.011078 239.510748 
L 588.608308 219.399523 
L 589.504154 185.925977 
L 589.802769 181.332149 
L 590.101385 183.834409 
L 590.698615 195.01625 
L 590.997231 198.51772 
L 591.295846 203.907529 
L 591.893076 226.415165 
L 593.087538 282.684255 
L 593.386153 280.245505 
L 593.684768 249.498617 
L 594.580614 74.543662 
L 594.879229 57.86193 
L 595.177845 73.108355 
L 596.372306 194.927337 
L 596.670921 207.408999 
L 596.969536 211.600601 
L 597.268152 209.267699 
L 598.761228 179.20671 
L 599.358459 174.98547 
L 599.657074 174.409654 
L 599.955689 175.057447 
L 600.55292 179.058522 
L 600.851535 181.391425 
L 601.150151 184.617688 
L 601.448766 190.168387 
L 602.344612 210.622561 
L 602.643227 212.256863 
L 602.941842 211.202611 
L 603.240458 208.289659 
L 604.136303 194.525113 
L 604.434919 194.139824 
L 604.733534 195.664043 
L 605.032149 195.189842 
L 605.330765 191.633331 
L 605.62938 189.821203 
L 605.927995 194.77915 
L 606.22661 204.813592 
L 606.525226 210.580221 
L 606.823841 204.288583 
L 607.421072 178.097418 
L 607.719687 178.906101 
L 608.018302 186.959058 
L 608.316918 189.19458 
L 608.615533 177.881487 
L 609.212763 143.645831 
L 609.511379 140.711709 
L 609.809994 148.281997 
L 610.407225 175.324186 
L 611.30307 226.93594 
L 611.601686 235.124384 
L 611.900301 234.764499 
L 612.198916 228.709962 
L 613.094762 199.876816 
L 613.691993 181.75131 
L 613.990608 178.470005 
L 614.289223 180.328705 
L 614.587839 186.582238 
L 615.185069 206.86282 
L 616.080915 239.536151 
L 617.275376 271.278015 
L 617.573992 273.255266 
L 617.872607 256.967291 
L 618.171222 216.499273 
L 618.768453 105.243976 
L 619.067068 73.756148 
L 619.365683 72.14725 
L 619.664299 93.037521 
L 620.560144 176.86534 
L 621.157375 209.758837 
L 621.45599 215.991199 
L 621.754606 215.936158 
L 622.053221 211.1264 
L 622.650452 192.391206 
L 622.949067 182.830965 
L 623.247682 177.737533 
L 623.546297 177.779872 
L 623.844913 179.685146 
L 624.143528 179.253284 
L 624.740759 172.390064 
L 625.039374 172.589059 
L 625.337989 176.755258 
L 626.233835 196.455791 
L 626.831066 209.229594 
L 627.129681 212.84538 
L 627.428296 214.280687 
L 627.726911 214.111329 
L 628.025527 211.994358 
L 628.622757 201.625434 
L 628.921373 196.705593 
L 629.219988 193.978934 
L 629.518603 192.772261 
L 629.817219 192.340399 
L 630.115834 193.987402 
L 630.713064 203.208928 
L 631.01168 202.175846 
L 631.907526 174.710264 
L 632.206141 175.667135 
L 632.504756 178.04661 
L 632.803371 173.96509 
L 633.400602 151.961293 
L 633.699217 148.09147 
L 633.997833 151.813105 
L 634.595063 166.305889 
L 635.192294 187.242733 
L 635.789524 212.252629 
L 636.08814 221.110035 
L 636.386755 226.601458 
L 636.68537 227.3551 
L 636.983986 220.834829 
L 637.879831 180.337173 
L 638.178447 175.548584 
L 638.477062 175.692539 
L 638.775677 179.117798 
L 639.074293 186.158843 
L 639.970138 220.754384 
L 640.268754 225.822413 
L 640.865984 230.420474 
L 641.76183 240.319431 
L 642.359061 254.189825 
L 642.657676 255.261012 
L 642.956291 238.096611 
L 643.553522 148.459823 
L 643.852137 105.150829 
L 644.150753 83.832931 
L 644.449368 86.898305 
L 645.046598 132.760366 
L 645.643829 179.740187 
L 645.942444 195.325328 
L 646.24106 204.24201 
L 646.539675 207.315852 
L 646.83829 206.181156 
L 648.032751 193.195655 
L 648.331367 191.078684 
L 648.629982 187.467132 
L 649.525828 172.080986 
L 649.824443 172.618697 
L 650.421674 180.654719 
L 651.018904 191.883133 
L 651.91475 216.393424 
L 652.213365 219.458798 
L 652.511981 218.404546 
L 653.109211 208.306595 
L 653.407827 203.289373 
L 653.706442 201.189338 
L 654.005057 202.294397 
L 654.303672 203.96257 
L 654.602288 203.039571 
L 655.199518 195.888442 
L 655.498134 196.167883 
L 655.796749 198.665908 
L 656.095364 197.967308 
L 656.39398 190.443593 
L 656.99121 171.187624 
L 657.289825 171.297707 
L 657.887056 181.069645 
L 658.185671 179.215178 
L 658.782902 166.441375 
L 659.081517 163.714716 
L 659.380132 164.582674 
L 659.678748 167.004489 
L 659.977363 170.738826 
L 660.275978 177.360712 
L 660.873209 202.959126 
L 661.171824 216.977708 
L 661.470439 225.674225 
L 661.769055 226.482908 
L 662.06767 220.335224 
L 662.963516 193.610581 
L 663.560747 183.165446 
L 663.859362 181.234769 
L 664.157977 182.534589 
L 664.456592 187.15382 
L 665.053823 203.386754 
L 665.651054 220.44954 
L 665.949669 223.938309 
L 666.248284 223.019543 
L 666.845515 218.341037 
L 667.14413 218.815239 
L 667.442745 221.054994 
L 667.741361 225.750436 
L 668.637207 250.612144 
L 668.935822 236.805259 
L 669.533052 150.83083 
L 669.831668 109.109565 
L 670.130283 90.31933 
L 670.428898 95.26034 
L 671.921975 180.244026 
L 672.519205 205.999096 
L 672.817821 212.481261 
L 673.116436 213.501641 
L 673.415051 209.335442 
L 674.310897 187.115714 
L 675.206743 173.452783 
L 675.505358 170.916652 
L 675.803974 172.318087 
L 676.401204 182.720882 
L 676.998435 196.269497 
L 677.595665 213.264541 
L 677.894281 215.944626 
L 678.192896 212.56594 
L 678.790126 202.734727 
L 679.088742 201.968383 
L 679.387357 202.336736 
L 679.685972 201.646604 
L 680.880433 193.961999 
L 681.179049 193.860384 
L 681.477664 194.461604 
L 681.776279 193.492031 
L 682.074895 188.415535 
L 682.672125 174.629819 
L 682.970741 176.323396 
L 683.567971 189.905882 
L 683.866586 188.529851 
L 684.463817 174.752603 
L 684.762432 173.52476 
L 685.061048 175.722176 
L 685.359663 176.408075 
L 685.956893 171.297707 
L 686.255509 172.635632 
L 686.554124 178.567385 
L 688.0472 221.757829 
L 688.345816 219.844087 
L 688.943046 204.572258 
L 689.540277 189.482488 
L 689.838892 183.800538 
L 690.137508 181.827521 
L 690.436123 185.481413 
L 691.331969 206.147284 
L 692.227815 217.744051 
L 692.52643 217.976918 
L 692.825045 213.217967 
L 693.12366 206.549509 
L 693.422276 203.255502 
L 693.720891 205.478321 
L 694.318122 217.320657 
L 695.213967 240.078096 
L 695.512583 234.290297 
L 695.811198 209.983236 
L 696.707044 108.360157 
L 697.005659 104.308275 
L 697.304275 115.253015 
L 698.797351 195.664043 
L 699.095966 205.579936 
L 699.394582 210.190699 
L 699.693197 209.695328 
L 699.991812 205.499491 
L 700.589043 193.784173 
L 700.887658 189.982093 
L 702.082119 182.068855 
L 702.380734 181.54808 
L 702.67935 183.584607 
L 704.471042 204.364794 
L 704.769657 205.406344 
L 705.366887 202.484924 
L 705.964118 199.851412 
L 706.561349 196.227158 
L 706.859964 196.879185 
L 707.457194 201.794792 
L 707.75581 200.990343 
L 708.35304 194.796085 
L 708.950271 192.23455 
L 709.846117 182.877538 
L 710.144732 184.405991 
L 710.443347 186.599173 
L 710.741963 185.324757 
L 711.339193 174.646755 
L 711.637809 174.752603 
L 712.235039 185.25278 
L 712.533654 185.69311 
L 713.130885 178.796018 
L 713.4295 180.455723 
L 714.325346 198.530422 
L 714.922577 202.895617 
L 715.221192 204.762785 
L 715.519807 205.266624 
L 715.818423 202.874447 
L 716.714269 188.411301 
L 717.012884 188.13186 
L 717.311499 190.210726 
L 717.90873 196.506598 
L 718.804576 207.197302 
L 719.103191 207.62493 
L 719.999037 201.807493 
L 720.297652 201.887938 
L 720.596267 202.916786 
L 720.894883 204.551088 
L 721.193498 207.201536 
L 721.790728 215.914988 
L 722.387959 225.102643 
L 722.686574 227.249251 
L 722.98519 223.684272 
L 723.283805 209.919726 
L 724.478266 116.734895 
L 724.776881 121.773286 
L 725.971343 176.162506 
L 726.568573 194.245673 
L 726.867188 200.113917 
L 727.165804 201.820195 
L 727.464419 199.775201 
L 728.06165 192.619839 
L 728.360265 190.972836 
L 728.957495 189.736524 
L 729.554726 187.420558 
L 729.853341 187.687296 
L 730.450572 190.460529 
L 731.047803 190.896625 
L 731.346418 192.87811 
L 731.943648 200.935301 
L 732.242264 202.230888 
L 733.13811 198.475381 
L 733.436725 199.453422 
L 734.332571 203.505304 
L 734.631186 203.666194 
L 734.929801 201.608498 
L 735.228417 198.217111 
L 735.527032 196.684423 
L 735.825647 198.873372 
L 736.124262 202.006489 
L 736.422878 201.01998 
L 737.318724 180.650485 
L 737.617339 182.377933 
L 737.915954 185.485647 
L 738.21457 184.732005 
L 738.8118 177.199822 
L 739.110415 178.48694 
L 739.409031 182.187406 
L 739.707646 184.206996 
L 740.006261 183.529565 
L 740.304877 183.165446 
L 740.603492 185.67194 
L 741.200722 193.335375 
L 741.499338 193.915425 
L 742.096568 191.938174 
L 742.395184 191.607927 
L 742.693799 191.599459 
L 742.992414 191.993216 
L 743.589645 194.165228 
L 743.88826 193.703728 
L 744.485491 188.843163 
L 744.784106 188.470576 
L 745.082721 191.010941 
L 745.679952 198.873372 
L 745.978567 201.04115 
L 746.277182 201.536521 
L 746.575798 200.57965 
L 747.173028 197.471937 
L 747.471644 197.662464 
L 748.068874 201.638136 
L 748.367489 202.18008 
L 748.96472 200.372187 
L 749.263335 200.249403 
L 749.561951 201.1597 
L 749.860566 202.683919 
L 750.159181 205.169243 
L 750.457797 209.564075 
L 751.055027 222.299773 
L 751.353642 224.192345 
L 751.652258 217.600097 
L 751.950873 201.036916 
L 752.846719 138.950389 
L 753.145334 135.652148 
L 753.443949 142.443391 
L 754.04118 163.033052 
L 755.534256 193.106742 
L 755.832872 195.786828 
L 756.131487 195.960419 
L 756.430102 195.219479 
L 756.728718 195.384603 
L 757.624564 199.783669 
L 757.923179 198.843734 
L 758.819025 190.9559 
L 759.11764 190.651056 
L 759.416255 191.201468 
L 759.714871 191.442803 
L 760.312101 190.346212 
L 760.610716 190.701863 
L 760.909332 192.666412 
L 761.506562 198.123964 
L 761.805178 198.661674 
L 762.402408 196.989267 
L 762.701023 198.65744 
L 763.298254 206.799311 
L 763.596869 208.005985 
L 763.895485 205.859376 
L 764.492715 200.389123 
L 764.791331 198.881839 
L 765.089946 196.167883 
L 765.687176 186.535664 
L 765.985792 184.51184 
L 766.583022 185.989486 
L 766.881638 184.101148 
L 767.478868 177.127845 
L 767.777483 177.805276 
L 768.673329 188.559489 
L 769.27056 193.081339 
L 769.86779 199.241724 
L 770.166406 200.820985 
L 770.465021 199.944559 
L 770.763636 196.684423 
L 771.659482 183.000323 
L 771.958098 180.815608 
L 772.256713 180.273664 
L 772.555328 180.942627 
L 772.853943 182.907176 
L 774.048405 194.652131 
L 774.94425 201.511117 
L 775.242866 202.213952 
L 775.541481 201.130063 
L 776.138712 198.051987 
L 776.437327 197.683634 
L 777.034557 197.738675 
L 777.333173 198.094326 
L 777.631788 198.682844 
L 777.930403 198.754821 
L 778.229019 197.603189 
L 778.527634 195.5963 
L 778.826249 194.368457 
L 779.124865 195.164438 
L 779.722095 200.270572 
L 780.319326 206.600316 
L 780.916556 216.139387 
L 781.215172 218.87028 
L 781.513787 216.757543 
L 781.812402 207.722311 
L 782.409633 171.729569 
L 782.708248 153.066352 
L 783.006863 141.990359 
L 783.305479 141.334098 
L 785.09717 183.0723 
L 785.694401 193.25493 
L 785.993016 195.426943 
L 786.590247 197.175561 
L 786.888862 197.768313 
L 787.187477 197.869927 
L 787.486093 197.814886 
L 787.784708 197.632826 
L 788.083323 197.150157 
L 788.381939 195.871507 
L 789.277784 188.766952 
L 789.5764 187.827017 
L 789.875015 187.928631 
L 790.472246 189.245387 
L 791.069476 191.002473 
L 791.368092 192.073661 
L 791.965322 195.579365 
L 792.562553 200.765944 
L 793.159783 205.406344 
L 793.458399 205.317431 
L 793.757014 203.039571 
L 794.354244 197.670932 
L 794.951475 196.070502 
L 795.25009 193.271866 
L 795.847321 185.502582 
L 796.145936 184.63039 
L 796.444551 185.604197 
L 796.743167 185.688876 
L 797.639013 179.94765 
L 797.937628 182.068855 
L 798.833474 193.13638 
L 799.430704 198.805628 
L 799.72932 200.490737 
L 800.027935 200.427228 
L 800.32655 198.200175 
L 800.923781 188.546787 
L 801.521011 179.215178 
L 801.819627 178.304881 
L 802.118242 179.8291 
L 803.014088 186.688086 
L 804.208549 203.577281 
L 804.507164 203.433327 
L 804.80578 202.717791 
L 805.40301 201.871003 
L 805.701626 200.816751 
L 806.000241 199.322169 
L 806.298856 198.483849 
L 806.597471 198.67861 
L 806.896087 199.305234 
L 807.194702 199.571972 
L 807.493317 198.932647 
L 807.791933 197.467703 
L 808.389163 192.742623 
L 808.687778 191.574055 
L 808.986394 192.442013 
L 810.47947 205.507959 
L 811.375316 219.352949 
L 811.673931 218.963427 
L 811.972547 212.519367 
L 812.271162 199.411082 
L 813.167008 150.106826 
L 813.465623 146.114219 
L 813.764238 149.933235 
L 814.361469 163.244749 
L 815.257315 178.364156 
L 815.854545 191.908537 
L 816.153161 196.37958 
L 816.451776 198.466913 
L 816.750391 199.008858 
L 817.049007 199.262894 
L 817.646237 200.964939 
L 817.944852 200.939535 
L 818.243468 199.195151 
L 819.139314 190.261533 
L 819.437929 188.792355 
L 819.736544 187.958269 
L 820.03516 187.59415 
L 820.931005 188.500213 
L 821.229621 188.377429 
L 821.528236 189.279259 
L 821.826851 191.967812 
L 822.424082 198.852202 
L 822.722697 199.622779 
L 823.319928 197.963074 
L 823.618543 197.912267 
L 823.917158 198.07739 
L 824.215774 197.810652 
L 824.813004 196.548937 
L 825.11162 195.401539 
L 825.410235 192.793431 
L 826.007465 186.0911 
L 826.306081 185.316289 
L 826.604696 186.137674 
L 826.903311 186.25199 
L 827.201927 184.477968 
L 827.500542 181.882562 
L 827.799157 180.451489 
L 828.097772 181.209365 
L 828.993618 187.907461 
L 830.188079 198.530422 
L 830.486695 200.033472 
L 830.78531 200.897196 
L 831.083925 200.037706 
L 831.382541 196.79874 
L 832.577002 175.612094 
L 832.875617 174.833048 
L 833.174232 177.060102 
L 834.070078 189.393575 
L 834.667309 194.554751 
L 835.264539 202.916786 
L 835.563155 204.614597 
L 835.86177 203.302075 
L 836.160385 201.083489 
L 836.459001 200.359485 
L 836.757616 201.248613 
L 837.056231 201.680475 
L 837.354846 200.075811 
L 837.952077 195.511621 
L 838.250692 195.15597 
L 838.549308 195.033186 
L 838.847923 193.669857 
L 839.146538 191.519014 
L 839.445154 190.37585 
L 839.743769 191.616395 
L 840.340999 196.853781 
L 841.236845 200.952237 
L 841.535461 204.923675 
L 842.132691 215.974264 
L 842.431306 219.204762 
L 842.729922 218.667051 
L 843.028537 213.556683 
L 843.625768 191.315785 
L 844.222998 164.895986 
L 844.521613 156.931941 
L 844.820229 155.166387 
L 845.118844 159.256375 
L 845.716075 172.652568 
L 847.507766 197.755611 
L 847.806382 198.53889 
L 848.104997 198.898775 
L 848.702228 202.205484 
L 849.000843 202.527264 
L 849.299458 199.974196 
L 849.896689 191.756115 
L 850.195304 190.117579 
L 850.493919 189.668781 
L 850.792535 188.402833 
L 851.389765 183.766666 
L 851.68838 183.961427 
L 852.584226 192.598669 
L 852.882842 191.629097 
L 853.181457 189.757694 
L 853.480072 189.677249 
L 853.778688 192.209147 
L 854.375918 198.831032 
L 854.674533 199.453422 
L 855.271764 197.213666 
L 855.570379 196.896121 
L 855.868995 196.955396 
L 856.16761 196.320304 
L 856.466225 193.974701 
L 857.063456 187.094545 
L 857.362071 186.069931 
L 857.959302 189.359704 
L 858.257917 189.389341 
L 858.556532 186.975994 
L 858.855148 183.61001 
L 859.153763 181.899498 
L 859.452378 182.576928 
L 860.348224 188.783887 
L 860.945455 192.53516 
L 861.542685 195.850337 
L 861.8413 196.210222 
L 862.139916 196.138245 
L 862.438531 195.858805 
L 862.737146 194.639429 
L 863.035762 191.849262 
L 863.931607 181.340617 
L 864.827453 177.534303 
L 865.126069 177.0474 
L 865.424684 178.736743 
L 866.021915 189.245387 
L 866.619145 198.475381 
L 866.91776 200.257871 
L 867.216376 200.948003 
L 867.514991 201.223209 
L 867.813606 201.274017 
L 868.112222 201.189338 
L 868.410837 200.9226 
L 868.709452 200.448398 
L 869.008067 199.639715 
L 869.306683 198.479615 
L 870.202529 193.57671 
L 870.501144 193.280334 
L 870.799759 193.915425 
L 871.39699 195.604768 
L 871.99422 196.625148 
L 872.292836 197.543914 
L 872.890066 201.096191 
L 874.084527 209.060236 
L 874.383143 210.169529 
L 874.681758 210.54635 
L 874.980373 210.347355 
L 875.278989 209.039067 
L 875.577604 205.491023 
L 875.876219 198.623569 
L 877.07068 159.319884 
L 877.369296 158.786408 
L 877.667911 162.893332 
L 878.563757 181.251704 
L 878.862372 184.266271 
L 879.758218 189.029456 
L 880.654064 197.565083 
L 880.952679 198.1409 
L 881.251294 197.992712 
L 881.848525 198.001179 
L 882.14714 196.790272 
L 882.445756 193.246462 
L 883.042986 183.538033 
L 883.341601 181.747076 
L 883.640217 183.017258 
L 884.237447 187.373985 
L 884.536063 187.932865 
L 884.834678 188.093755 
L 885.133293 188.961713 
L 886.029139 194.512411 
L 886.62637 198.42034 
L 886.924985 199.385679 
L 887.2236 198.682844 
L 887.820831 195.490452 
L 888.119446 195.930782 
L 888.418061 197.649762 
L 888.716677 198.704014 
L 889.015292 197.387258 
L 889.911138 187.429026 
L 890.209753 186.400178 
L 890.508368 186.264692 
L 891.105599 186.730426 
L 891.404214 187.174989 
L 891.70283 187.213095 
L 892.001445 187.043737 
L 892.30006 187.2512 
L 892.598675 188.538319 
L 893.195906 192.992426 
L 893.494521 194.114421 
L 894.091752 195.384603 
L 894.390367 196.142479 
L 894.688983 195.79953 
L 894.987598 193.428522 
L 895.584828 187.57298 
L 895.883444 187.115714 
L 896.182059 187.382453 
L 896.480674 186.074165 
L 897.077905 179.265986 
L 897.37652 178.444601 
L 897.675135 180.531934 
L 898.272366 187.031035 
L 899.466827 194.385393 
L 900.064058 196.493896 
L 900.362673 197.577785 
L 900.959904 201.007278 
L 901.258519 201.659305 
L 901.557134 201.345994 
L 902.45298 199.051197 
L 903.348826 194.817255 
L 903.647441 195.143269 
L 903.946057 196.045098 
L 904.244672 196.07897 
L 905.140518 191.629097 
L 905.439133 193.369247 
L 906.036364 201.015746 
L 906.334979 203.20046 
L 906.633594 203.52224 
L 907.230825 201.955681 
L 907.52944 201.612732 
L 907.828055 201.832897 
L 908.425286 202.692387 
L 908.723901 202.099635 
L 909.022517 198.894541 
L 909.321132 192.175275 
L 910.216978 166.310123 
L 910.515593 163.981455 
L 910.814208 165.852857 
L 912.008669 183.999533 
L 912.307285 186.277394 
L 912.904515 189.037924 
L 913.501746 194.796085 
L 913.800361 197.827588 
L 914.098977 199.364509 
L 914.397592 199.271362 
L 916.487899 191.286147 
L 917.383745 187.725402 
L 917.68236 188.462108 
L 918.578206 195.270287 
L 918.876821 195.426943 
L 919.474052 193.733366 
L 919.772667 193.987402 
L 920.369898 196.47696 
L 920.668513 196.866483 
L 920.967128 196.189052 
L 921.564359 193.809577 
L 921.862974 193.559774 
L 922.161589 193.792641 
L 922.460205 193.153316 
L 922.75882 190.917794 
L 923.356051 185.180803 
L 923.654666 184.660028 
L 923.953281 185.316289 
L 924.251896 185.540688 
L 924.849127 182.839433 
L 925.147742 183.000323 
L 926.043588 190.104877 
L 926.640819 190.900859 
L 927.536665 194.982379 
L 927.83528 194.381159 
L 928.133895 193.43699 
L 928.432511 193.212591 
L 928.731126 193.25493 
L 929.029741 192.391206 
L 930.224202 183.195084 
L 930.821433 180.760567 
L 931.120048 181.446466 
L 931.418663 185.117294 
L 932.015894 195.388837 
L 932.314509 197.112052 
L 932.91174 196.049332 
L 933.210355 197.095116 
L 933.50897 198.974986 
L 933.807586 199.910687 
L 934.106201 199.207853 
L 934.404816 198.009647 
L 934.703432 197.666698 
L 935.002047 198.102794 
L 935.300662 198.051987 
L 935.599278 196.629382 
L 936.196508 192.708752 
L 936.495123 192.53516 
L 937.390969 195.122099 
L 937.689585 195.020484 
L 937.9882 194.690237 
L 938.286815 194.656365 
L 939.182661 195.846103 
L 940.078507 196.320304 
L 940.377122 196.540469 
L 940.675738 196.565873 
L 940.974353 196.730997 
L 941.272968 197.459235 
L 941.870199 200.473802 
L 942.168814 200.952237 
L 942.467429 199.813307 
L 943.06466 193.801109 
L 943.66189 183.817473 
L 944.259121 171.331578 
L 944.557736 168.024869 
L 944.856352 168.511773 
L 945.154967 172.474743 
L 946.050813 188.021778 
L 946.349428 189.588336 
L 946.648043 189.109901 
L 946.946659 188.356259 
L 947.245274 189.156474 
L 948.14112 197.222134 
L 948.439735 196.841079 
L 949.036966 194.677535 
L 949.335581 194.592856 
L 949.634196 194.266843 
L 950.231427 191.692606 
L 950.530042 191.273445 
L 951.127273 192.344633 
L 951.425888 191.853496 
L 951.724503 190.9559 
L 952.023119 190.943198 
L 952.620349 193.381949 
L 952.918964 193.233761 
L 953.21758 192.022853 
L 953.516195 191.463973 
L 953.81481 192.505523 
L 954.113426 194.249907 
L 954.412041 195.096695 
L 954.710656 194.622494 
L 955.009272 194.368457 
L 955.307887 195.774126 
L 955.606502 197.996946 
L 955.905117 199.14011 
L 956.203733 197.531212 
L 956.800963 191.379294 
L 957.099579 190.807712 
L 957.398194 191.51478 
L 957.696809 191.531716 
L 957.995424 189.986327 
L 958.29404 187.831251 
L 958.592655 186.590705 
L 958.89127 186.785467 
L 959.488501 189.275025 
L 960.085731 191.574055 
L 960.384347 192.361569 
L 960.981577 193.166018 
L 961.578808 194.567452 
L 961.877423 194.17793 
L 962.176039 192.149871 
L 962.773269 187.15382 
L 963.669115 183.961427 
L 963.96773 182.094259 
L 964.266346 181.442232 
L 964.564961 183.21202 
L 965.162191 189.770396 
L 965.460807 191.404698 
L 965.759422 192.251486 
L 966.058037 193.483563 
L 966.655268 197.289877 
L 966.953883 198.123964 
L 967.252498 197.95884 
L 967.551114 197.438065 
L 967.849729 197.141689 
L 968.148344 197.247538 
L 968.745575 198.428808 
L 969.04419 198.416106 
L 969.342806 197.184029 
L 969.940036 193.314206 
L 970.238651 193.521669 
L 970.835882 196.19752 
L 971.134497 194.817255 
L 971.731728 189.584103 
L 972.030343 190.51557 
L 972.627574 195.875741 
L 972.926189 195.676745 
L 973.224804 193.987402 
L 973.52342 193.398884 
L 973.822035 194.872296 
L 974.12065 197.031607 
L 974.419266 198.001179 
L 975.016496 197.476171 
L 975.315111 198.623569 
L 975.613727 200.465334 
L 975.912342 201.075021 
L 976.210957 199.093537 
L 976.808188 188.411301 
L 977.405418 176.568965 
L 977.704034 172.876967 
L 978.002649 171.771908 
L 978.301264 172.910839 
L 978.898495 178.78755 
L 979.495725 185.007211 
L 979.794341 187.031035 
L 980.092956 188.216539 
L 980.391571 188.944777 
L 980.690187 190.257299 
L 981.586033 196.303369 
L 981.884648 196.142479 
L 982.183263 195.172906 
L 982.481878 194.605558 
L 982.780494 194.592856 
L 983.079109 194.300714 
L 983.377724 192.85694 
L 983.974955 188.991351 
L 984.27357 189.143773 
L 984.870801 192.331931 
L 985.169416 193.01783 
L 985.766647 192.145638 
L 986.065262 192.348867 
L 986.961108 195.096695 
L 987.558338 194.673301 
L 987.856954 194.808787 
L 988.155569 195.19831 
L 988.454184 195.151736 
L 988.7528 194.419264 
L 989.051415 194.021274 
L 989.35003 194.525113 
L 989.648645 195.930782 
L 989.947261 196.701359 
L 990.245876 195.630172 
L 990.843107 190.549441 
L 991.141722 189.300428 
L 991.738952 188.263113 
L 992.336183 186.298563 
L 992.634798 186.544132 
L 992.933414 187.869356 
L 993.530644 191.578289 
L 993.829259 192.539394 
L 994.127875 192.632541 
L 994.42649 192.13717 
L 994.725105 192.060959 
L 995.023721 192.120234 
L 995.322336 192.99666 
L 995.919567 190.147217 
L 996.218182 191.705308 
L 996.218182 191.705308 
" style="fill:none;stroke:#4c72b0;stroke-linecap:round;stroke-width:1.75;"/>
   </g>
   <g id="patch_3">
    <path d="M 144 320.4 
L 144 43.2 
" style="fill:none;"/>
   </g>
   <g id="patch_4">
    <path d="M 1036.8 320.4 
L 1036.8 43.2 
" style="fill:none;"/>
   </g>
   <g id="patch_5">
    <path d="M 144 320.4 
L 1036.8 320.4 
" style="fill:none;"/>
   </g>
   <g id="patch_6">
    <path d="M 144 43.2 
L 1036.8 43.2 
" style="fill:none;"/>
   </g>
  </g>
 </g>
 <defs>
  <clipPath id="p5e8e9fd87c">
   <rect height="277.2" width="892.8" x="144" y="43.2"/>
  </clipPath>
 </defs>
</svg>
