<?xml version="1.0" encoding="utf-8" standalone="no"?>
<!DOCTYPE svg PUBLIC "-//W3C//DTD SVG 1.1//EN"
  "http://www.w3.org/Graphics/SVG/1.1/DTD/svg11.dtd">
<!-- Created with matplotlib (http://matplotlib.org/) -->
<svg height="288pt" version="1.1" viewBox="0 0 432 288" width="432pt" xmlns="http://www.w3.org/2000/svg" xmlns:xlink="http://www.w3.org/1999/xlink">
 <defs>
  <style type="text/css">
*{stroke-linecap:butt;stroke-linejoin:round;stroke-miterlimit:100000;}
  </style>
 </defs>
 <g id="figure_1">
  <g id="patch_1">
   <path d="M 0 288 
L 432 288 
L 432 0 
L 0 0 
z
" style="fill:#ffffff;"/>
  </g>
  <g id="axes_1">
   <g id="patch_2">
    <path d="M 54 252 
L 388.8 252 
L 388.8 28.8 
L 54 28.8 
z
" style="fill:#eaeaf2;"/>
   </g>
   <g id="matplotlib.axis_1">
    <g id="xtick_1">
     <g id="line2d_1">
      <path clip-path="url(#p3ebe39c9a7)" d="M 54 252 
L 54 28.8 
" style="fill:none;stroke:#ffffff;stroke-linecap:round;"/>
     </g>
     <g id="line2d_2"/>
     <g id="line2d_3"/>
     <g id="text_1">
      <!-- 0.00 -->
      <defs>
       <path d="M 51.703125 34.421875 
Q 51.703125 24.515625 49.828125 17.75 
Q 47.953125 10.984375 44.703125 6.8125 
Q 41.453125 2.640625 37.0625 0.828125 
Q 32.671875 -0.984375 27.6875 -0.984375 
Q 22.65625 -0.984375 18.3125 0.828125 
Q 13.96875 2.640625 10.765625 6.78125 
Q 7.5625 10.9375 5.734375 17.703125 
Q 3.90625 24.46875 3.90625 34.421875 
Q 3.90625 44.828125 5.734375 51.640625 
Q 7.5625 58.453125 10.78125 62.5 
Q 14.015625 66.546875 18.40625 68.1875 
Q 22.796875 69.828125 27.984375 69.828125 
Q 32.90625 69.828125 37.21875 68.1875 
Q 41.546875 66.546875 44.765625 62.5 
Q 48 58.453125 49.84375 51.640625 
Q 51.703125 44.828125 51.703125 34.421875 
M 42.78125 34.421875 
Q 42.78125 42.625 41.796875 48.0625 
Q 40.828125 53.515625 38.921875 56.765625 
Q 37.015625 60.015625 34.25 61.359375 
Q 31.5 62.703125 27.984375 62.703125 
Q 24.265625 62.703125 21.4375 61.328125 
Q 18.609375 59.96875 16.671875 56.71875 
Q 14.75 53.46875 13.765625 48.015625 
Q 12.796875 42.578125 12.796875 34.421875 
Q 12.796875 26.515625 13.796875 21.09375 
Q 14.796875 15.671875 16.71875 12.375 
Q 18.65625 9.078125 21.4375 7.640625 
Q 24.21875 6.203125 27.78125 6.203125 
Q 31.25 6.203125 34.03125 7.640625 
Q 36.8125 9.078125 38.734375 12.375 
Q 40.671875 15.671875 41.71875 21.09375 
Q 42.78125 26.515625 42.78125 34.421875 
" id="LiberationSans-30"/>
       <path d="M 9.125 0 
L 9.125 10.6875 
L 18.65625 10.6875 
L 18.65625 0 
z
" id="LiberationSans-2e"/>
      </defs>
      <g style="fill:#262626;" transform="translate(44.26953125 266.246875)scale(0.1 -0.1)">
       <use xlink:href="#LiberationSans-30"/>
       <use x="55.615234375" xlink:href="#LiberationSans-2e"/>
       <use x="83.3984375" xlink:href="#LiberationSans-30"/>
       <use x="139.013671875" xlink:href="#LiberationSans-30"/>
      </g>
     </g>
    </g>
    <g id="xtick_2">
     <g id="line2d_4">
      <path clip-path="url(#p3ebe39c9a7)" d="M 120.96 252 
L 120.96 28.8 
" style="fill:none;stroke:#ffffff;stroke-linecap:round;"/>
     </g>
     <g id="line2d_5"/>
     <g id="line2d_6"/>
     <g id="text_2">
      <!-- 0.02 -->
      <defs>
       <path d="M 5.03125 0 
L 5.03125 6.203125 
Q 7.515625 11.921875 11.109375 16.28125 
Q 14.703125 20.65625 18.65625 24.1875 
Q 22.609375 27.734375 26.484375 30.765625 
Q 30.375 33.796875 33.5 36.8125 
Q 36.625 39.84375 38.546875 43.15625 
Q 40.484375 46.484375 40.484375 50.6875 
Q 40.484375 53.609375 39.59375 55.828125 
Q 38.71875 58.0625 37.0625 59.5625 
Q 35.40625 61.078125 33.078125 61.828125 
Q 30.765625 62.59375 27.9375 62.59375 
Q 25.296875 62.59375 22.96875 61.859375 
Q 20.65625 61.140625 18.84375 59.671875 
Q 17.046875 58.203125 15.890625 56.03125 
Q 14.75 53.859375 14.40625 50.984375 
L 5.421875 51.8125 
Q 5.859375 55.515625 7.46875 58.78125 
Q 9.078125 62.0625 11.90625 64.53125 
Q 14.75 67 18.71875 68.40625 
Q 22.703125 69.828125 27.9375 69.828125 
Q 33.0625 69.828125 37.0625 68.609375 
Q 41.0625 67.390625 43.8125 64.984375 
Q 46.578125 62.59375 48.046875 59.078125 
Q 49.515625 55.5625 49.515625 50.984375 
Q 49.515625 47.515625 48.265625 44.390625 
Q 47.015625 41.265625 44.9375 38.421875 
Q 42.875 35.59375 40.140625 32.953125 
Q 37.40625 30.328125 34.421875 27.8125 
Q 31.453125 25.296875 28.421875 22.828125 
Q 25.390625 20.359375 22.71875 17.859375 
Q 20.0625 15.375 17.96875 12.8125 
Q 15.875 10.25 14.703125 7.46875 
L 50.59375 7.46875 
L 50.59375 0 
z
" id="LiberationSans-32"/>
      </defs>
      <g style="fill:#262626;" transform="translate(111.22953125 266.246875)scale(0.1 -0.1)">
       <use xlink:href="#LiberationSans-30"/>
       <use x="55.615234375" xlink:href="#LiberationSans-2e"/>
       <use x="83.3984375" xlink:href="#LiberationSans-30"/>
       <use x="139.013671875" xlink:href="#LiberationSans-32"/>
      </g>
     </g>
    </g>
    <g id="xtick_3">
     <g id="line2d_7">
      <path clip-path="url(#p3ebe39c9a7)" d="M 187.92 252 
L 187.92 28.8 
" style="fill:none;stroke:#ffffff;stroke-linecap:round;"/>
     </g>
     <g id="line2d_8"/>
     <g id="line2d_9"/>
     <g id="text_3">
      <!-- 0.04 -->
      <defs>
       <path d="M 43.015625 15.578125 
L 43.015625 0 
L 34.71875 0 
L 34.71875 15.578125 
L 2.296875 15.578125 
L 2.296875 22.40625 
L 33.796875 68.796875 
L 43.015625 68.796875 
L 43.015625 22.515625 
L 52.6875 22.515625 
L 52.6875 15.578125 
z
M 34.71875 58.890625 
Q 34.625 58.640625 34.234375 57.9375 
Q 33.84375 57.234375 33.34375 56.34375 
Q 32.859375 55.46875 32.34375 54.5625 
Q 31.84375 53.65625 31.453125 53.078125 
L 13.8125 27.09375 
Q 13.578125 26.703125 13.109375 26.0625 
Q 12.640625 25.4375 12.15625 24.78125 
Q 11.671875 24.125 11.171875 23.484375 
Q 10.6875 22.859375 10.40625 22.515625 
L 34.71875 22.515625 
z
" id="LiberationSans-34"/>
      </defs>
      <g style="fill:#262626;" transform="translate(178.18953125 266.246875)scale(0.1 -0.1)">
       <use xlink:href="#LiberationSans-30"/>
       <use x="55.615234375" xlink:href="#LiberationSans-2e"/>
       <use x="83.3984375" xlink:href="#LiberationSans-30"/>
       <use x="139.013671875" xlink:href="#LiberationSans-34"/>
      </g>
     </g>
    </g>
    <g id="xtick_4">
     <g id="line2d_10">
      <path clip-path="url(#p3ebe39c9a7)" d="M 254.88 252 
L 254.88 28.8 
" style="fill:none;stroke:#ffffff;stroke-linecap:round;"/>
     </g>
     <g id="line2d_11"/>
     <g id="line2d_12"/>
     <g id="text_4">
      <!-- 0.06 -->
      <defs>
       <path d="M 51.21875 22.515625 
Q 51.21875 17.328125 49.78125 13 
Q 48.34375 8.6875 45.53125 5.578125 
Q 42.71875 2.484375 38.5625 0.75 
Q 34.421875 -0.984375 29 -0.984375 
Q 23 -0.984375 18.5 1.3125 
Q 14.015625 3.609375 11.03125 7.921875 
Q 8.0625 12.25 6.5625 18.53125 
Q 5.078125 24.8125 5.078125 32.8125 
Q 5.078125 42 6.765625 48.921875 
Q 8.453125 55.859375 11.625 60.5 
Q 14.796875 65.140625 19.359375 67.484375 
Q 23.921875 69.828125 29.6875 69.828125 
Q 33.203125 69.828125 36.28125 69.09375 
Q 39.359375 68.359375 41.875 66.71875 
Q 44.390625 65.09375 46.28125 62.40625 
Q 48.1875 59.71875 49.3125 55.8125 
L 40.921875 54.296875 
Q 39.546875 58.734375 36.546875 60.71875 
Q 33.546875 62.703125 29.59375 62.703125 
Q 25.984375 62.703125 23.046875 60.984375 
Q 20.125 59.28125 18.0625 55.875 
Q 16.015625 52.484375 14.90625 47.359375 
Q 13.8125 42.234375 13.8125 35.40625 
Q 16.21875 39.84375 20.5625 42.15625 
Q 24.90625 44.484375 30.515625 44.484375 
Q 35.203125 44.484375 39.015625 42.96875 
Q 42.828125 41.453125 45.53125 38.59375 
Q 48.25 35.75 49.734375 31.671875 
Q 51.21875 27.59375 51.21875 22.515625 
M 42.28125 22.125 
Q 42.28125 25.6875 41.40625 28.5625 
Q 40.53125 31.453125 38.765625 33.46875 
Q 37.015625 35.5 34.421875 36.59375 
Q 31.84375 37.703125 28.421875 37.703125 
Q 26.03125 37.703125 23.578125 36.984375 
Q 21.140625 36.28125 19.15625 34.6875 
Q 17.1875 33.109375 15.9375 30.515625 
Q 14.703125 27.9375 14.703125 24.21875 
Q 14.703125 20.40625 15.671875 17.109375 
Q 16.65625 13.8125 18.484375 11.375 
Q 20.3125 8.9375 22.890625 7.515625 
Q 25.484375 6.109375 28.71875 6.109375 
Q 31.890625 6.109375 34.40625 7.203125 
Q 36.921875 8.296875 38.671875 10.375 
Q 40.4375 12.453125 41.359375 15.421875 
Q 42.28125 18.40625 42.28125 22.125 
" id="LiberationSans-36"/>
      </defs>
      <g style="fill:#262626;" transform="translate(245.14953125 266.246875)scale(0.1 -0.1)">
       <use xlink:href="#LiberationSans-30"/>
       <use x="55.615234375" xlink:href="#LiberationSans-2e"/>
       <use x="83.3984375" xlink:href="#LiberationSans-30"/>
       <use x="139.013671875" xlink:href="#LiberationSans-36"/>
      </g>
     </g>
    </g>
    <g id="xtick_5">
     <g id="line2d_13">
      <path clip-path="url(#p3ebe39c9a7)" d="M 321.84 252 
L 321.84 28.8 
" style="fill:none;stroke:#ffffff;stroke-linecap:round;"/>
     </g>
     <g id="line2d_14"/>
     <g id="line2d_15"/>
     <g id="text_5">
      <!-- 0.08 -->
      <defs>
       <path d="M 51.265625 19.1875 
Q 51.265625 14.796875 49.875 11.109375 
Q 48.484375 7.421875 45.625 4.734375 
Q 42.78125 2.046875 38.328125 0.53125 
Q 33.890625 -0.984375 27.828125 -0.984375 
Q 21.78125 -0.984375 17.359375 0.53125 
Q 12.9375 2.046875 10.03125 4.703125 
Q 7.125 7.375 5.734375 11.0625 
Q 4.34375 14.75 4.34375 19.09375 
Q 4.34375 22.859375 5.484375 25.78125 
Q 6.640625 28.71875 8.5625 30.828125 
Q 10.5 32.953125 12.96875 34.25 
Q 15.4375 35.546875 18.0625 35.984375 
L 18.0625 36.1875 
Q 15.1875 36.859375 12.90625 38.375 
Q 10.640625 39.890625 9.09375 42.015625 
Q 7.5625 44.140625 6.75 46.71875 
Q 5.953125 49.3125 5.953125 52.203125 
Q 5.953125 55.8125 7.34375 59 
Q 8.734375 62.203125 11.46875 64.625 
Q 14.203125 67.046875 18.25 68.4375 
Q 22.3125 69.828125 27.640625 69.828125 
Q 33.25 69.828125 37.375 68.40625 
Q 41.5 67 44.203125 64.578125 
Q 46.921875 62.15625 48.234375 58.9375 
Q 49.5625 55.71875 49.5625 52.09375 
Q 49.5625 49.265625 48.75 46.671875 
Q 47.953125 44.09375 46.40625 41.96875 
Q 44.875 39.84375 42.59375 38.34375 
Q 40.328125 36.859375 37.359375 36.28125 
L 37.359375 36.078125 
Q 40.328125 35.59375 42.859375 34.296875 
Q 45.40625 33.015625 47.265625 30.890625 
Q 49.125 28.765625 50.1875 25.828125 
Q 51.265625 22.90625 51.265625 19.1875 
M 40.4375 51.609375 
Q 40.4375 54.203125 39.765625 56.34375 
Q 39.109375 58.5 37.59375 60.03125 
Q 36.078125 61.578125 33.640625 62.421875 
Q 31.203125 63.28125 27.640625 63.28125 
Q 24.171875 63.28125 21.78125 62.421875 
Q 19.390625 61.578125 17.84375 60.03125 
Q 16.3125 58.5 15.625 56.34375 
Q 14.9375 54.203125 14.9375 51.609375 
Q 14.9375 49.5625 15.46875 47.40625 
Q 16.015625 45.265625 17.421875 43.5 
Q 18.84375 41.75 21.328125 40.625 
Q 23.828125 39.5 27.734375 39.5 
Q 31.890625 39.5 34.40625 40.625 
Q 36.921875 41.75 38.25 43.5 
Q 39.59375 45.265625 40.015625 47.40625 
Q 40.4375 49.5625 40.4375 51.609375 
M 42.140625 20.015625 
Q 42.140625 22.515625 41.453125 24.828125 
Q 40.765625 27.15625 39.109375 28.9375 
Q 37.453125 30.71875 34.640625 31.8125 
Q 31.84375 32.90625 27.640625 32.90625 
Q 23.78125 32.90625 21.0625 31.8125 
Q 18.359375 30.71875 16.671875 28.90625 
Q 14.984375 27.09375 14.203125 24.71875 
Q 13.421875 22.359375 13.421875 19.828125 
Q 13.421875 16.65625 14.203125 14.03125 
Q 14.984375 11.421875 16.6875 9.546875 
Q 18.40625 7.671875 21.1875 6.640625 
Q 23.96875 5.609375 27.9375 5.609375 
Q 31.9375 5.609375 34.671875 6.640625 
Q 37.40625 7.671875 39.0625 9.546875 
Q 40.71875 11.421875 41.421875 14.078125 
Q 42.140625 16.75 42.140625 20.015625 
" id="LiberationSans-38"/>
      </defs>
      <g style="fill:#262626;" transform="translate(312.10953125 266.246875)scale(0.1 -0.1)">
       <use xlink:href="#LiberationSans-30"/>
       <use x="55.615234375" xlink:href="#LiberationSans-2e"/>
       <use x="83.3984375" xlink:href="#LiberationSans-30"/>
       <use x="139.013671875" xlink:href="#LiberationSans-38"/>
      </g>
     </g>
    </g>
    <g id="xtick_6">
     <g id="line2d_16">
      <path clip-path="url(#p3ebe39c9a7)" d="M 388.8 252 
L 388.8 28.8 
" style="fill:none;stroke:#ffffff;stroke-linecap:round;"/>
     </g>
     <g id="line2d_17"/>
     <g id="line2d_18"/>
     <g id="text_6">
      <!-- 0.10 -->
      <defs>
       <path d="M 7.625 0 
L 7.625 7.46875 
L 25.140625 7.46875 
L 25.140625 60.40625 
L 9.625 49.3125 
L 9.625 57.625 
L 25.875 68.796875 
L 33.984375 68.796875 
L 33.984375 7.46875 
L 50.734375 7.46875 
L 50.734375 0 
z
" id="LiberationSans-31"/>
      </defs>
      <g style="fill:#262626;" transform="translate(379.06953125 266.246875)scale(0.1 -0.1)">
       <use xlink:href="#LiberationSans-30"/>
       <use x="55.615234375" xlink:href="#LiberationSans-2e"/>
       <use x="83.3984375" xlink:href="#LiberationSans-31"/>
       <use x="139.013671875" xlink:href="#LiberationSans-30"/>
      </g>
     </g>
    </g>
   </g>
   <g id="matplotlib.axis_2">
    <g id="ytick_1">
     <g id="line2d_19">
      <path clip-path="url(#p3ebe39c9a7)" d="M 54 252 
L 388.8 252 
" style="fill:none;stroke:#ffffff;stroke-linecap:round;"/>
     </g>
     <g id="line2d_20"/>
     <g id="line2d_21"/>
     <g id="text_7">
      <!-- 0 -->
      <g style="fill:#262626;" transform="translate(41.4390625 254.5859375)scale(0.1 -0.1)">
       <use xlink:href="#LiberationSans-30"/>
      </g>
     </g>
    </g>
    <g id="ytick_2">
     <g id="line2d_22">
      <path clip-path="url(#p3ebe39c9a7)" d="M 54 214.8 
L 388.8 214.8 
" style="fill:none;stroke:#ffffff;stroke-linecap:round;"/>
     </g>
     <g id="line2d_23"/>
     <g id="line2d_24"/>
     <g id="text_8">
      <!-- 2 -->
      <g style="fill:#262626;" transform="translate(41.4390625 217.3859375)scale(0.1 -0.1)">
       <use xlink:href="#LiberationSans-32"/>
      </g>
     </g>
    </g>
    <g id="ytick_3">
     <g id="line2d_25">
      <path clip-path="url(#p3ebe39c9a7)" d="M 54 177.6 
L 388.8 177.6 
" style="fill:none;stroke:#ffffff;stroke-linecap:round;"/>
     </g>
     <g id="line2d_26"/>
     <g id="line2d_27"/>
     <g id="text_9">
      <!-- 4 -->
      <g style="fill:#262626;" transform="translate(41.4390625 180.1859375)scale(0.1 -0.1)">
       <use xlink:href="#LiberationSans-34"/>
      </g>
     </g>
    </g>
    <g id="ytick_4">
     <g id="line2d_28">
      <path clip-path="url(#p3ebe39c9a7)" d="M 54 140.4 
L 388.8 140.4 
" style="fill:none;stroke:#ffffff;stroke-linecap:round;"/>
     </g>
     <g id="line2d_29"/>
     <g id="line2d_30"/>
     <g id="text_10">
      <!-- 6 -->
      <g style="fill:#262626;" transform="translate(41.4390625 142.9859375)scale(0.1 -0.1)">
       <use xlink:href="#LiberationSans-36"/>
      </g>
     </g>
    </g>
    <g id="ytick_5">
     <g id="line2d_31">
      <path clip-path="url(#p3ebe39c9a7)" d="M 54 103.2 
L 388.8 103.2 
" style="fill:none;stroke:#ffffff;stroke-linecap:round;"/>
     </g>
     <g id="line2d_32"/>
     <g id="line2d_33"/>
     <g id="text_11">
      <!-- 8 -->
      <g style="fill:#262626;" transform="translate(41.4390625 105.7859375)scale(0.1 -0.1)">
       <use xlink:href="#LiberationSans-38"/>
      </g>
     </g>
    </g>
    <g id="ytick_6">
     <g id="line2d_34">
      <path clip-path="url(#p3ebe39c9a7)" d="M 54 66 
L 388.8 66 
" style="fill:none;stroke:#ffffff;stroke-linecap:round;"/>
     </g>
     <g id="line2d_35"/>
     <g id="line2d_36"/>
     <g id="text_12">
      <!-- 10 -->
      <g style="fill:#262626;" transform="translate(35.878125 68.5859375)scale(0.1 -0.1)">
       <use xlink:href="#LiberationSans-31"/>
       <use x="55.615234375" xlink:href="#LiberationSans-30"/>
      </g>
     </g>
    </g>
    <g id="ytick_7">
     <g id="line2d_37">
      <path clip-path="url(#p3ebe39c9a7)" d="M 54 28.8 
L 388.8 28.8 
" style="fill:none;stroke:#ffffff;stroke-linecap:round;"/>
     </g>
     <g id="line2d_38"/>
     <g id="line2d_39"/>
     <g id="text_13">
      <!-- 12 -->
      <g style="fill:#262626;" transform="translate(35.878125 31.3859375)scale(0.1 -0.1)">
       <use xlink:href="#LiberationSans-31"/>
       <use x="55.615234375" xlink:href="#LiberationSans-32"/>
      </g>
     </g>
    </g>
   </g>
   <g id="line2d_40">
    <path clip-path="url(#p3ebe39c9a7)" d="M 54 251.878229 
L 55.7856 249.689136 
L 56.232 248.885225 
L 56.5296 248.710218 
L 56.976 248.500429 
L 57.2736 248.39718 
L 57.72 248.522284 
L 58.0176 248.336321 
L 58.1664 248.362993 
L 58.3152 248.113418 
L 58.6128 247.022528 
L 59.208 244.246888 
L 59.6544 243.519516 
L 60.1008 242.900787 
L 60.2496 242.922977 
L 60.5472 243.194239 
L 60.9936 243.139574 
L 61.2912 243.401108 
L 61.7376 243.631135 
L 62.184 244.026217 
L 62.4816 243.92096 
L 62.928 243.238637 
L 63.5232 241.892462 
L 64.1184 240.403867 
L 64.416 240.20096 
L 64.7136 240.429349 
L 64.8624 240.629969 
L 65.0112 240.620074 
L 65.3088 239.93245 
L 65.7552 238.631585 
L 66.0528 238.364284 
L 66.3504 238.733476 
L 66.648 238.995122 
L 66.9456 239.04709 
L 67.2432 239.442731 
L 67.9872 240.344794 
L 68.2848 240.643882 
L 68.5824 240.696148 
L 68.88 240.576196 
L 69.0288 240.353164 
L 69.7728 238.277013 
L 70.368 238.073269 
L 70.6656 238.334896 
L 70.9632 238.68785 
L 71.2608 238.274446 
L 71.7072 237.09967 
L 72.3024 235.015317 
L 72.6 234.883462 
L 73.0464 234.99389 
L 73.4928 234.693611 
L 74.5344 236.530008 
L 74.6832 236.569924 
L 74.9808 236.203169 
L 76.32 233.76895 
L 76.4688 233.879527 
L 77.2128 235.293108 
L 77.3616 235.150576 
L 78.4032 233.220696 
L 80.04 235.76804 
L 80.1888 235.807937 
L 80.3376 235.662206 
L 80.6352 234.641922 
L 81.2304 232.399134 
L 81.528 231.589848 
L 81.6768 231.547998 
L 81.9744 232.278978 
L 82.4208 233.456842 
L 82.5696 233.542309 
L 82.8672 232.83921 
L 83.3136 231.540186 
L 84.2064 229.899666 
L 84.6528 230.08548 
L 84.8016 230.044746 
L 84.9504 230.178294 
L 85.248 230.785584 
L 85.5456 230.519046 
L 85.8432 229.954164 
L 86.5872 227.737416 
L 86.8848 228.296532 
L 87.48 229.61211 
L 88.0752 229.116978 
L 88.3728 228.928746 
L 88.5216 228.784596 
L 88.6704 228.853044 
L 89.4144 230.473476 
L 89.712 230.400564 
L 89.8608 230.534112 
L 90.1584 231.224358 
L 90.3072 231.291132 
L 90.456 231.10569 
L 90.7536 229.868976 
L 91.2 227.503242 
L 91.3488 227.579874 
L 91.7952 228.83091 
L 92.2416 229.73115 
L 92.5392 229.689672 
L 92.8368 229.374216 
L 93.1344 228.93879 
L 93.2832 228.910704 
L 93.5808 229.31265 
L 94.6224 231.694566 
L 94.92 232.303716 
L 95.0688 232.079214 
L 95.5152 229.987272 
L 95.8128 229.13316 
L 96.2592 229.766304 
L 96.5568 229.554264 
L 96.8544 229.021188 
L 97.3008 227.588988 
L 97.5984 226.489542 
L 97.7472 226.251276 
L 97.896 226.289778 
L 98.0448 226.576404 
L 98.3424 227.360766 
L 98.4912 227.207502 
L 98.7888 225.983064 
L 99.2352 222.507654 
L 99.5328 220.806684 
L 99.8304 221.396304 
L 100.128 220.748652 
L 100.5744 219.26586 
L 101.1696 217.055436 
L 101.4672 216.530544 
L 101.9136 215.201574 
L 102.36 216.119112 
L 102.5088 215.583246 
L 102.8064 212.90466 
L 103.4016 205.147902 
L 103.5504 204.43701 
L 103.6992 204.604224 
L 103.9968 206.145234 
L 104.1456 206.355972 
L 104.2944 206.198802 
L 104.4432 205.529574 
L 105.1872 199.872198 
L 105.336 199.6968 
L 105.4848 199.732698 
L 105.7824 200.353194 
L 106.08 201.55587 
L 106.5264 203.837904 
L 106.6752 203.544024 
L 106.824 202.320144 
L 107.1216 196.958322 
L 107.568 188.916798 
L 107.7168 188.271936 
L 108.0144 189.73092 
L 108.1632 189.21291 
L 108.9072 182.331096 
L 109.056 181.99518 
L 109.2048 182.341698 
L 109.5024 184.699992 
L 109.9488 188.23827 
L 110.2464 188.778786 
L 110.3952 188.931492 
L 110.6928 190.66371 
L 110.8416 190.421352 
L 111.1392 187.012158 
L 111.8832 173.964816 
L 112.1808 175.737396 
L 112.3296 174.996372 
L 112.9248 166.804746 
L 113.0736 166.695564 
L 113.3712 168.036624 
L 113.6688 170.693448 
L 114.1152 174.680358 
L 114.5616 176.048946 
L 115.008 179.432844 
L 115.1568 179.044104 
L 115.4544 174.896118 
L 115.9008 165.59463 
L 116.0496 164.595252 
L 116.3472 166.246932 
L 116.6448 162.962916 
L 116.9424 159.81561 
L 117.0912 159.288114 
L 117.24 159.238266 
L 117.3888 159.425568 
L 117.5376 159.86397 
L 117.8352 162.517074 
L 118.4304 169.08678 
L 118.728 170.360694 
L 119.0256 170.816394 
L 119.1744 171.506826 
L 119.472 173.676144 
L 119.6208 172.68402 
L 119.9184 167.425056 
L 120.3648 158.60382 
L 120.5136 158.552112 
L 120.6624 160.279866 
L 120.8112 159.780828 
L 121.2576 155.52552 
L 121.5552 154.752504 
L 121.704 154.593102 
L 121.8528 154.894422 
L 122.0016 156.002796 
L 122.448 160.815918 
L 122.7456 163.072842 
L 123.0432 166.172718 
L 123.192 166.681614 
L 123.3408 166.620792 
L 123.7872 165.348366 
L 123.936 165.93501 
L 124.0848 167.177862 
L 124.2336 165.640758 
L 124.9776 146.6589 
L 125.2752 149.030028 
L 125.424 148.628826 
L 126.168 143.387346 
L 126.3168 142.931832 
L 126.4656 143.35368 
L 127.0608 148.522062 
L 127.2096 148.726848 
L 127.3584 149.256762 
L 127.9536 153.87477 
L 128.4 151.82133 
L 128.5488 152.088984 
L 128.8464 154.484478 
L 128.9952 152.774208 
L 129.7392 133.851126 
L 130.0368 136.581792 
L 130.1856 135.835932 
L 130.632 132.341178 
L 130.9296 131.62173 
L 131.0784 131.809776 
L 131.2272 132.831846 
L 131.6736 138.14103 
L 131.9712 139.964016 
L 132.5664 145.25088 
L 133.0128 144.502602 
L 133.1616 144.646938 
L 133.3104 145.128864 
L 133.4592 146.232774 
L 133.7568 149.503212 
L 133.9056 148.87788 
L 134.2032 142.195272 
L 134.6496 129.728808 
L 134.7984 129.046932 
L 135.096 132.024048 
L 135.2448 131.050524 
L 135.6912 125.340138 
L 135.84 124.968324 
L 135.9888 125.586216 
L 136.2864 129.600468 
L 137.0304 139.842372 
L 137.4768 142.864872 
L 138.072 145.105242 
L 138.3696 147.822144 
L 139.1136 157.285266 
L 139.2624 157.822434 
L 139.4112 157.396866 
L 139.7088 153.95103 
L 140.1552 143.990172 
L 140.4528 138.175998 
L 140.6016 138.062352 
L 140.7504 140.435898 
L 140.8992 139.985964 
L 141.4944 131.440194 
L 141.792 130.66197 
L 141.9408 130.903956 
L 142.0896 131.630286 
L 142.3872 134.89812 
L 142.8336 140.707272 
L 143.28 146.863128 
L 143.8752 154.11843 
L 144.6192 159.805566 
L 144.9168 160.115628 
L 145.0656 160.608156 
L 145.3632 163.187046 
L 145.6608 165.100056 
L 145.8096 164.699226 
L 146.1072 162.069558 
L 146.4048 155.472882 
L 147.1488 133.644108 
L 147.2976 134.923974 
L 147.4464 134.894958 
L 148.6368 112.733058 
L 148.7856 111.95502 
L 148.9344 112.7325 
L 149.3808 118.046892 
L 149.8272 116.46924 
L 149.976 116.607438 
L 150.1248 117.374874 
L 150.4224 121.537926 
L 150.72 125.558688 
L 151.0176 127.55298 
L 151.6128 128.99169 
L 151.7616 129.477336 
L 151.9104 129.355134 
L 152.0592 128.79081 
L 152.208 128.66619 
L 152.6544 132.463008 
L 152.952 129.779586 
L 153.2496 126.85176 
L 153.5472 125.562036 
L 153.9936 124.155318 
L 154.1424 122.61747 
L 154.7376 110.796426 
L 154.8864 112.676328 
L 155.0352 109.74069 
L 155.4816 95.963484 
L 155.7792 94.00509 
L 155.928 93.845502 
L 156.0768 94.008066 
L 156.2256 94.946064 
L 156.8208 103.04004 
L 157.1184 105.638646 
L 157.5648 113.46162 
L 158.0112 120.114654 
L 158.6064 125.23542 
L 159.3504 134.686452 
L 159.648 138.307686 
L 159.9456 141.740502 
L 160.0944 142.307616 
L 160.2432 142.25907 
L 160.392 141.882048 
L 160.5408 141.877584 
L 160.8384 144.776208 
L 160.9872 144.553008 
L 161.136 143.760834 
L 161.2848 143.710614 
L 161.5824 146.899026 
L 161.88 150.128358 
L 162.1776 151.291974 
L 162.3264 151.637376 
L 162.4752 151.59348 
L 162.624 150.385596 
L 162.9216 141.685632 
L 163.2192 131.26089 
L 163.368 131.92956 
L 163.5168 130.995282 
L 163.9632 117.420072 
L 164.2608 115.59225 
L 164.5584 114.288204 
L 164.7072 114.422496 
L 164.856 116.06748 
L 165.1536 120.841356 
L 165.4512 124.064178 
L 166.4928 140.524992 
L 166.7904 141.414444 
L 166.9392 141.824946 
L 167.088 142.987446 
L 167.5344 148.071756 
L 168.1296 150.45795 
L 168.576 152.157618 
L 168.8736 154.989468 
L 169.0224 154.081602 
L 169.4688 147.291858 
L 169.7664 149.699256 
L 169.9152 149.690142 
L 170.5104 148.699134 
L 170.6592 149.7186 
L 170.808 151.526892 
L 171.1056 151.930512 
L 171.4032 154.394826 
L 171.552 153.657522 
L 171.8496 148.488024 
L 172.1472 136.790298 
L 172.4448 121.097106 
L 172.5936 118.019736 
L 172.7424 120.788532 
L 172.8912 117.664848 
L 173.4864 95.397114 
L 173.784 88.092708 
L 173.9328 86.734536 
L 174.0816 88.245042 
L 174.3792 92.562474 
L 174.6768 94.0116 
L 174.9744 97.94271 
L 175.5696 108.828732 
L 175.7184 109.599516 
L 176.016 109.85136 
L 176.1648 110.744718 
L 176.6112 116.553684 
L 176.9088 121.491798 
L 177.0576 122.495826 
L 177.504 123.303624 
L 177.9504 125.384778 
L 178.0992 126.797262 
L 178.3968 130.48992 
L 178.8432 128.144088 
L 178.992 128.764212 
L 179.2896 132.762654 
L 179.5872 136.107492 
L 179.736 136.614528 
L 179.8848 137.687004 
L 180.0336 140.0373 
L 180.48 142.171278 
L 180.7776 144.771 
L 180.9264 145.09464 
L 181.0752 144.803736 
L 181.224 143.010324 
L 181.5216 132.978228 
L 182.1168 102.743556 
L 182.4144 102.262374 
L 182.712 85.682706 
L 183.0096 69.33405 
L 183.3072 63.10398 
L 183.456 62.85474 
L 183.6048 64.76868 
L 183.9024 69.910278 
L 184.2 68.98716 
L 184.3488 69.606168 
L 184.6464 75.850746 
L 185.2416 86.7204 
L 185.688 89.953266 
L 185.9856 92.225442 
L 186.7296 101.844246 
L 186.8784 101.91381 
L 187.3248 100.502442 
L 187.4736 100.604556 
L 187.6224 101.383338 
L 187.7712 103.18233 
L 188.0688 107.204208 
L 188.2176 105.971772 
L 188.664 100.757076 
L 188.8128 100.54857 
L 188.9616 101.71572 
L 189.1104 105.062604 
L 189.2592 105.748572 
L 189.408 104.984112 
L 189.5568 105.046422 
L 189.8544 108.92415 
L 190.0032 108.969348 
L 190.152 109.649736 
L 190.5984 116.01447 
L 190.7472 116.65338 
L 190.896 116.414184 
L 191.0448 115.21095 
L 191.3424 109.830342 
L 192.0864 88.703346 
L 192.2352 89.895048 
L 192.384 90.174048 
L 192.6816 75.882552 
L 192.9792 61.67736 
L 193.128 59.35236 
L 193.2768 59.40072 
L 193.4256 60.83664 
L 194.0208 69.79347 
L 194.1696 70.099998 
L 194.3184 71.518434 
L 194.9136 82.03971 
L 195.5088 88.150926 
L 195.8064 90.84867 
L 196.104 96.010728 
L 196.4016 100.505604 
L 196.5504 101.180226 
L 196.6992 100.942332 
L 196.9968 97.953498 
L 197.2944 95.330526 
L 197.4432 96.178314 
L 197.8896 103.229574 
L 198.0384 103.929492 
L 198.1872 104.013936 
L 198.336 103.743492 
L 198.4848 103.117416 
L 198.9312 99.77109 
L 199.2288 103.4232 
L 199.5264 103.020138 
L 200.4192 115.075914 
L 200.7168 118.516728 
L 200.8656 119.020788 
L 201.0144 118.27995 
L 201.9072 105.694632 
L 202.3536 94.060704 
L 202.5024 95.68467 
L 202.6512 94.823676 
L 203.3952 67.152642 
L 203.544 67.715664 
L 203.8416 72.904692 
L 204.1392 79.774788 
L 206.8176 110.82972 
L 207.4128 107.117346 
L 207.5616 107.931468 
L 207.8592 111.959856 
L 208.1568 117.281874 
L 208.4544 119.435196 
L 208.9008 121.507422 
L 209.0496 121.103802 
L 209.3472 119.319318 
L 209.7936 122.6928 
L 209.9424 123.238338 
L 211.1328 140.822592 
L 211.2816 140.721408 
L 212.0256 133.034958 
L 212.472 126.87687 
L 212.9184 115.880364 
L 213.0672 118.481388 
L 213.216 115.58109 
L 213.8112 89.599494 
L 213.96 88.024074 
L 214.1088 87.984456 
L 214.2576 89.36811 
L 214.704 96.352782 
L 215.0016 97.314216 
L 215.1504 98.89782 
L 215.448 103.625382 
L 215.7456 104.294796 
L 216.6384 109.953846 
L 217.0848 115.374444 
L 217.3824 113.367318 
L 217.68 111.956694 
L 217.8288 112.10196 
L 218.1264 113.54067 
L 218.424 117.68568 
L 218.7216 121.237164 
L 219.0192 124.140624 
L 219.4656 131.61429 
L 219.6144 132.212838 
L 220.0608 130.019154 
L 220.3584 134.214384 
L 221.4 149.500236 
L 221.8464 154.016502 
L 221.9952 153.363456 
L 222.888 143.55084 
L 223.1856 142.336074 
L 223.3344 140.103144 
L 223.7808 131.142966 
L 223.9296 132.317556 
L 224.0784 128.224812 
L 224.6736 101.67945 
L 224.8224 100.168386 
L 225.12 104.029002 
L 225.5664 105.10743 
L 225.7152 106.529214 
L 226.1616 112.332972 
L 226.4592 112.361058 
L 226.9056 114.083418 
L 227.2032 115.78848 
L 227.5008 120.168408 
L 227.7984 123.699246 
L 227.9472 123.42192 
L 228.2448 121.464456 
L 228.3936 121.278828 
L 228.5424 121.7814 
L 228.84 124.269894 
L 229.2864 130.377576 
L 229.584 133.565802 
L 230.0304 139.553514 
L 230.4768 144.226206 
L 230.7744 142.197504 
L 231.072 140.840448 
L 231.2208 140.780556 
L 231.3696 141.154044 
L 231.5184 142.425168 
L 231.816 146.037474 
L 232.1136 148.06506 
L 232.56 152.56719 
L 232.7088 152.901246 
L 232.8576 152.142924 
L 233.304 147.689154 
L 233.4528 147.446052 
L 233.8992 148.241202 
L 234.048 147.809682 
L 234.1968 146.15949 
L 234.792 133.294428 
L 234.9408 133.220214 
L 235.2384 119.692062 
L 235.536 104.99304 
L 235.6848 101.373108 
L 235.8336 101.190828 
L 235.9824 104.516136 
L 236.1312 105.150582 
L 236.28 104.659356 
L 236.4288 104.67126 
L 236.5776 105.964518 
L 237.024 112.85154 
L 237.1728 113.404518 
L 237.3216 113.521884 
L 237.4704 113.793258 
L 238.0656 115.844652 
L 238.2144 117.391056 
L 238.512 122.012226 
L 238.6608 122.64258 
L 238.8096 122.56167 
L 239.256 120.605322 
L 239.4048 120.671352 
L 239.5536 121.64283 
L 240.5952 136.662702 
L 240.8928 140.320206 
L 241.1904 141.514512 
L 241.6368 146.050308 
L 241.9344 147.515616 
L 242.0832 146.849736 
L 242.5296 140.487792 
L 242.6784 141.237744 
L 242.976 144.678 
L 243.1248 145.281756 
L 243.2736 145.298682 
L 243.72 143.416176 
L 243.8688 143.516616 
L 244.3152 144.957744 
L 244.6128 147.52566 
L 245.0592 152.026116 
L 245.208 152.584488 
L 245.3568 151.799196 
L 245.5056 148.845516 
L 246.1008 131.434614 
L 246.2496 132.05511 
L 246.3984 127.055616 
L 246.9936 95.653422 
L 247.1424 95.68002 
L 247.2912 98.774874 
L 247.44 99.376584 
L 247.5888 99.229644 
L 247.7376 99.614664 
L 247.8864 101.16516 
L 248.3328 108.571866 
L 248.7792 111.649422 
L 248.928 111.92526 
L 249.0768 111.930654 
L 249.2256 112.26285 
L 249.3744 113.660268 
L 249.672 118.551324 
L 250.1184 122.062074 
L 250.8624 126.72714 
L 252.3504 148.431294 
L 252.648 150.560622 
L 253.2432 158.541696 
L 253.392 159.284208 
L 253.5408 158.17974 
L 254.136 148.433712 
L 254.2848 149.182176 
L 254.4336 150.986562 
L 254.5824 150.635766 
L 255.3264 141.993834 
L 255.4752 142.855386 
L 256.368 153.624414 
L 256.6656 156.13746 
L 256.8144 156.128718 
L 256.9632 154.864104 
L 257.2608 148.50123 
L 257.856 127.560048 
L 258.0048 130.319916 
L 258.1536 126.429168 
L 258.7488 94.110552 
L 258.8976 92.838498 
L 259.0464 94.591734 
L 259.344 99.723102 
L 259.7904 105.07302 
L 260.3856 115.102512 
L 261.7248 130.433376 
L 262.0224 133.872516 
L 262.7664 138.350652 
L 263.6592 151.052034 
L 264.1056 155.931186 
L 264.2544 156.230646 
L 264.4032 157.142976 
L 264.7008 159.77283 
L 264.8496 160.575234 
L 265.296 164.5242 
L 265.4448 163.21569 
L 265.8912 155.330406 
L 266.04 154.442628 
L 266.1888 155.011974 
L 266.3376 157.121028 
L 266.4864 157.34739 
L 266.784 153.884442 
L 267.0816 150.452928 
L 267.2304 149.941056 
L 267.3792 150.397314 
L 268.4208 160.325064 
L 268.5696 160.892178 
L 268.7184 160.294746 
L 269.016 155.985126 
L 269.4624 144.115536 
L 269.9088 129.453714 
L 270.0576 129.763776 
L 270.2064 129.315516 
L 270.504 114.803424 
L 270.8016 99.6474 
L 270.9504 96.282474 
L 271.0992 95.86695 
L 271.6944 103.470072 
L 271.992 105.818694 
L 273.1824 121.83348 
L 273.6288 125.249184 
L 274.3728 134.524074 
L 275.1168 137.539692 
L 275.5632 143.441472 
L 276.1584 151.813704 
L 276.456 154.12587 
L 276.7536 157.303494 
L 277.0512 158.277204 
L 277.3488 159.361026 
L 277.4976 158.58894 
L 278.0928 151.822632 
L 278.2416 151.562418 
L 278.3904 152.202816 
L 278.688 155.33115 
L 278.8368 155.479392 
L 279.1344 153.499608 
L 279.432 151.574322 
L 279.5808 152.275728 
L 279.8784 155.556024 
L 280.3248 157.58268 
L 280.6224 160.669164 
L 280.7712 160.86372 
L 281.0688 158.756154 
L 281.5152 153.601908 
L 281.9616 145.748244 
L 282.408 136.178916 
L 282.5568 138.055842 
L 282.7056 136.346502 
L 283.4496 107.140968 
L 283.5984 107.0967 
L 284.9376 126.606798 
L 285.384 133.394496 
L 286.2768 140.399256 
L 286.5744 144.49107 
L 286.7232 145.167924 
L 286.872 145.136118 
L 287.1696 144.58128 
L 287.3184 144.786624 
L 287.616 146.809932 
L 289.2528 162.494568 
L 289.5504 162.468342 
L 289.848 163.957086 
L 289.9968 164.69625 
L 290.1456 164.782368 
L 290.8896 162.264486 
L 291.0384 162.858942 
L 291.336 165.383706 
L 291.4848 164.841144 
L 291.9312 161.220654 
L 292.08 161.379312 
L 292.3776 164.287236 
L 292.824 167.79687 
L 293.1216 170.189946 
L 293.4192 172.417668 
L 293.568 172.123044 
L 294.7584 163.727934 
L 295.056 158.191644 
L 295.3536 152.245968 
L 295.5024 153.665892 
L 295.6512 151.840116 
L 296.3952 123.336732 
L 296.544 122.055936 
L 296.6928 122.310756 
L 297.288 128.79081 
L 297.5856 130.42761 
L 298.4784 140.420274 
L 298.776 141.447366 
L 299.0736 144.038346 
L 299.52 149.083782 
L 299.6688 149.272386 
L 299.8176 149.192778 
L 299.9664 149.447598 
L 300.264 151.479834 
L 301.1568 159.88443 
L 301.9008 168.613968 
L 302.0496 169.357596 
L 302.3472 169.853658 
L 302.6448 172.5501 
L 302.9424 174.719976 
L 303.0912 174.778194 
L 303.24 174.714396 
L 303.6864 175.042686 
L 303.984 174.602424 
L 304.1328 175.039152 
L 304.4304 177.45027 
L 304.5792 177.488772 
L 305.1744 173.974488 
L 305.3232 174.461064 
L 306.216 181.280196 
L 306.3648 181.963746 
L 306.5136 182.11608 
L 306.6624 181.912596 
L 306.96 180.328806 
L 307.2576 178.867218 
L 307.4064 179.049312 
L 307.704 179.824188 
L 307.8528 179.55207 
L 308.0016 178.657968 
L 308.2992 174.577314 
L 308.5968 169.167132 
L 308.7456 169.228698 
L 308.8944 169.075992 
L 309.192 158.842644 
L 309.6384 143.514012 
L 309.7872 141.800394 
L 309.936 141.744408 
L 310.5312 146.877636 
L 310.8288 148.456776 
L 311.2752 154.17423 
L 311.8704 160.15413 
L 312.3168 163.974198 
L 312.912 170.038542 
L 313.656 173.304144 
L 314.9952 182.44902 
L 315.5904 187.361466 
L 315.888 188.649516 
L 316.1856 190.329282 
L 316.3344 190.540392 
L 316.632 189.944076 
L 316.7808 190.178994 
L 317.2272 192.079542 
L 317.376 192.146874 
L 317.5248 192.376212 
L 318.12 195.324684 
L 318.2688 195.49785 
L 318.5664 195.419172 
L 318.7152 195.592152 
L 318.864 196.284258 
L 319.3104 199.258212 
L 319.7568 201.977718 
L 319.9056 202.26174 
L 320.0544 202.145862 
L 320.5008 201.063714 
L 320.6496 201.071898 
L 321.096 201.398886 
L 321.2448 201.272778 
L 321.3936 200.888316 
L 321.6912 198.909648 
L 322.4352 190.707792 
L 322.584 191.381856 
L 322.7328 188.9832 
L 323.4768 167.311596 
L 323.6256 166.63902 
L 323.7744 167.017344 
L 326.6016 191.507964 
L 327.9408 195.289344 
L 328.0896 195.387366 
L 328.2384 195.68571 
L 328.8336 197.813922 
L 328.9824 198.115986 
L 329.28 199.62612 
L 329.4288 199.706844 
L 329.5776 199.956084 
L 329.8752 200.968854 
L 330.024 200.984478 
L 330.3216 200.538636 
L 330.4704 200.75049 
L 331.0656 202.300614 
L 332.8512 212.986128 
L 333.5952 215.501034 
L 334.0416 215.215338 
L 334.3392 215.602962 
L 334.6368 215.880288 
L 335.232 215.343306 
L 335.5296 215.223708 
L 335.6784 214.971492 
L 335.8272 214.48008 
L 336.1248 212.04069 
L 336.5712 206.123844 
L 336.72 206.237862 
L 336.8688 205.86549 
L 337.1664 199.104576 
L 337.6128 188.78325 
L 337.9104 186.624906 
L 338.0592 186.414354 
L 338.208 186.802908 
L 339.3984 194.572872 
L 339.696 195.647208 
L 340.1424 198.746898 
L 341.3328 206.641668 
L 342.0768 208.550028 
L 342.2256 208.447542 
L 342.672 206.940756 
L 342.8208 206.875842 
L 343.1184 207.342702 
L 343.8624 209.870814 
L 344.16 210.430488 
L 344.3088 210.20394 
L 344.6064 209.275428 
L 344.7552 209.219814 
L 345.0528 210.211194 
L 345.4992 212.280816 
L 345.7968 212.42757 
L 345.9456 212.507736 
L 346.0944 212.90745 
L 346.392 214.147698 
L 346.5408 214.134306 
L 347.136 213.41895 
L 347.2848 213.720642 
L 347.88 215.98575 
L 348.0288 216.050664 
L 348.4752 215.565204 
L 348.624 215.63514 
L 349.9632 217.483236 
L 350.2608 218.425698 
L 350.4096 218.615046 
L 350.5584 218.524464 
L 350.7072 218.154882 
L 351.0048 216.296742 
L 351.6 210.615186 
L 351.7488 211.53012 
L 351.8976 210.46527 
L 352.344 199.79817 
L 352.6416 194.690982 
L 352.9392 192.81201 
L 353.088 192.6939 
L 353.2368 193.168758 
L 353.9808 197.756076 
L 355.0224 202.495542 
L 355.4688 204.989616 
L 356.064 207.998166 
L 356.6592 211.152168 
L 356.808 211.462044 
L 356.9568 211.483248 
L 357.2544 210.796164 
L 357.552 210.205056 
L 357.7008 210.342696 
L 358.1472 211.601916 
L 358.4448 212.974038 
L 359.04 213.923568 
L 359.1888 213.971556 
L 359.6352 213.355896 
L 359.784 213.653124 
L 360.2304 215.437422 
L 360.3792 215.562414 
L 360.6768 215.482062 
L 360.8256 215.665644 
L 361.1232 216.736446 
L 361.272 216.66372 
L 361.8672 215.200458 
L 362.016 215.258676 
L 362.1648 215.583618 
L 362.4624 216.654978 
L 362.6112 216.497064 
L 363.2064 215.286576 
L 363.504 215.047194 
L 363.8016 215.293644 
L 364.0992 215.510148 
L 364.3968 215.667876 
L 364.5456 215.919534 
L 364.8432 217.096356 
L 365.2896 218.98407 
L 365.4384 219.107946 
L 365.5872 219.001368 
L 365.736 218.693724 
L 366.0336 217.013958 
L 366.6288 210.585426 
L 366.7776 210.759708 
L 366.9264 210.66336 
L 367.224 205.621458 
L 367.3728 202.166136 
L 367.3728 202.166136 
" style="fill:none;stroke:#4c72b0;stroke-linecap:round;stroke-width:1.75;"/>
   </g>
   <g id="line2d_41">
    <path clip-path="url(#p3ebe39c9a7)" d="M 54 242.918464 
L 54.1488 243.567858 
L 54.2976 244.019161 
L 54.5952 244.320416 
L 54.744 244.173451 
L 55.0416 243.311508 
L 55.488 240.75254 
L 56.0832 235.61908 
L 57.4224 223.107195 
L 57.8688 220.474096 
L 58.1664 219.449737 
L 58.464 219.050379 
L 58.6128 219.083129 
L 58.9104 219.587478 
L 59.3568 221.292399 
L 60.1008 225.650253 
L 60.8448 229.795989 
L 61.2912 231.150521 
L 61.44 231.313499 
L 61.5888 231.311676 
L 61.7376 231.136012 
L 62.0352 230.239123 
L 62.4816 227.506955 
L 63.0768 221.482701 
L 63.9696 209.105197 
L 65.0112 194.893061 
L 65.6064 189.476994 
L 66.0528 187.404368 
L 66.3504 187.04807 
L 66.4992 187.173523 
L 66.7968 187.998879 
L 67.2432 190.503189 
L 67.8384 195.525375 
L 69.1776 207.447266 
L 69.624 209.763346 
L 69.9216 210.546894 
L 70.0704 210.696765 
L 70.2192 210.685213 
L 70.5168 210.192707 
L 70.8144 209.123617 
L 71.2608 206.645805 
L 72.8976 195.979627 
L 73.1952 195.102168 
L 73.4928 194.853606 
L 73.6416 194.984354 
L 73.9392 195.772666 
L 74.2368 197.255596 
L 74.6832 200.672303 
L 75.4272 208.667869 
L 76.6176 221.952736 
L 77.064 225.220744 
L 77.3616 226.510597 
L 77.6592 226.998473 
L 77.808 226.929817 
L 78.1056 226.166768 
L 78.4032 224.599546 
L 78.8496 220.907413 
L 79.5936 212.228219 
L 80.9328 196.044083 
L 81.528 191.604886 
L 81.9744 189.998021 
L 82.272 189.751219 
L 82.4208 189.85701 
L 82.7184 190.473403 
L 83.1648 192.190238 
L 84.504 198.293255 
L 84.8016 198.848528 
L 84.9504 198.920202 
L 85.0992 198.840482 
L 85.3968 198.198438 
L 85.6944 196.890385 
L 86.1408 193.710196 
L 86.736 187.5565 
L 88.6704 165.569538 
L 89.1168 163.255137 
L 89.4144 162.713629 
L 89.5632 162.755829 
L 89.8608 163.46057 
L 90.1584 164.954288 
L 90.6048 168.487968 
L 91.3488 176.712135 
L 92.5392 190.049379 
L 93.1344 194.105536 
L 93.432 195.123624 
L 93.7296 195.430778 
L 93.8784 195.323485 
L 94.176 194.620626 
L 94.6224 192.514589 
L 95.3664 187.277002 
L 96.2592 181.17493 
L 96.7056 179.37629 
L 97.0032 178.887742 
L 97.152 178.87829 
L 97.3008 179.029282 
L 97.5984 179.808905 
L 98.0448 182.091983 
L 98.64 186.744672 
L 99.9792 198.204162 
L 100.4256 200.352909 
L 100.7232 200.921666 
L 100.872 200.915559 
L 101.0208 200.707473 
L 101.3184 199.675972 
L 101.7648 196.624799 
L 102.36 190.112803 
L 103.4016 175.013415 
L 104.2944 163.083436 
L 104.8896 157.825324 
L 105.336 155.781112 
L 105.6336 155.344822 
L 105.7824 155.38967 
L 106.08 155.956196 
L 106.5264 157.788051 
L 107.4192 163.174997 
L 108.0144 166.284946 
L 108.4608 167.54165 
L 108.7584 167.681761 
L 109.056 167.205327 
L 109.3536 166.107321 
L 109.8 163.38353 
L 110.544 156.765879 
L 111.7344 145.915458 
L 112.1808 143.529782 
L 112.4784 142.796019 
L 112.6272 142.714349 
L 112.776 142.829676 
L 113.0736 143.656277 
L 113.3712 145.259294 
L 113.8176 148.982001 
L 114.5616 157.728686 
L 115.9008 174.073368 
L 116.3472 177.559326 
L 116.7936 179.408976 
L 117.0912 179.66498 
L 117.24 179.502178 
L 117.5376 178.624716 
L 117.984 176.089427 
L 118.5792 171.087524 
L 119.9184 159.276145 
L 120.3648 156.961579 
L 120.6624 156.156999 
L 120.96 155.975571 
L 121.2576 156.399277 
L 121.5552 157.37042 
L 122.0016 159.63946 
L 123.4896 168.304985 
L 123.7872 169.051884 
L 123.936 169.191334 
L 124.0848 169.159655 
L 124.3824 168.551333 
L 124.68 167.188747 
L 125.1264 163.749156 
L 125.7216 156.896578 
L 128.1024 126.001503 
L 128.5488 123.811319 
L 128.8464 123.366758 
L 128.9952 123.443584 
L 129.2928 124.160354 
L 129.7392 126.467626 
L 130.3344 131.152973 
L 131.5248 141.12131 
L 131.9712 143.459729 
L 132.2688 144.297114 
L 132.5664 144.504605 
L 132.7152 144.370685 
L 133.0128 143.646907 
L 133.4592 141.551933 
L 134.2032 136.317616 
L 135.096 130.095102 
L 135.5424 128.23914 
L 135.84 127.751859 
L 135.9888 127.763096 
L 136.1376 127.952046 
L 136.4352 128.871231 
L 136.8816 131.565449 
L 137.4768 137.244775 
L 139.56 159.77124 
L 140.0064 161.561818 
L 140.1552 161.754044 
L 140.304 161.737953 
L 140.4528 161.513929 
L 140.7504 160.45688 
L 141.1968 157.470885 
L 141.792 151.451186 
L 143.5776 131.521216 
L 144.024 128.788116 
L 144.3216 127.781156 
L 144.6192 127.427699 
L 144.768 127.483691 
L 145.0656 128.015451 
L 145.512 129.662506 
L 147 136.552602 
L 147.2976 137.031299 
L 147.4464 137.054437 
L 147.5952 136.920193 
L 147.8928 136.153918 
L 148.1904 134.706321 
L 148.6368 131.301413 
L 149.232 124.849905 
L 151.0176 103.409439 
L 151.464 100.473274 
L 151.7616 99.491451 
L 151.9104 99.312097 
L 152.0592 99.342756 
L 152.3568 100.025028 
L 152.6544 101.493964 
L 153.1008 104.978921 
L 153.8448 113.073267 
L 155.0352 126.085481 
L 155.4816 129.242766 
L 155.928 130.928269 
L 156.2256 131.188233 
L 156.3744 131.066124 
L 156.672 130.354406 
L 157.1184 128.295205 
L 157.8624 123.320342 
L 158.6064 118.557652 
L 159.0528 116.786975 
L 159.3504 116.297966 
L 159.4992 116.287386 
L 159.648 116.438962 
L 159.9456 117.231949 
L 160.392 119.591309 
L 160.9872 124.513773 
L 162.624 139.621017 
L 163.0704 141.581352 
L 163.368 141.950288 
L 163.5168 141.830484 
L 163.8144 140.969815 
L 164.112 139.295375 
L 164.5584 135.386096 
L 165.3024 126.086396 
L 166.7904 106.274705 
L 167.3856 101.436807 
L 167.832 99.676953 
L 168.1296 99.405914 
L 168.2784 99.524292 
L 168.576 100.217082 
L 169.0224 102.180256 
L 170.6592 111.074134 
L 170.9568 111.671941 
L 171.1056 111.754559 
L 171.2544 111.684029 
L 171.552 111.071573 
L 171.8496 109.836257 
L 172.296 106.918477 
L 173.04 100.057621 
L 174.0816 90.217333 
L 174.528 87.454141 
L 174.8256 86.437371 
L 175.1232 86.180484 
L 175.272 86.351722 
L 175.5696 87.300321 
L 176.016 90.179594 
L 176.6112 96.310934 
L 178.8432 122.613811 
L 179.2896 124.66649 
L 179.5872 125.077113 
L 179.736 124.999132 
L 180.0336 124.308994 
L 180.48 122.105585 
L 181.0752 117.65361 
L 182.2656 108.336849 
L 182.712 106.259572 
L 183.0096 105.589745 
L 183.1584 105.486616 
L 183.3072 105.539837 
L 183.6048 106.105451 
L 183.9024 107.241836 
L 184.3488 109.82692 
L 186.1344 121.60635 
L 186.432 122.245314 
L 186.5808 122.304313 
L 186.7296 122.178224 
L 187.0272 121.351325 
L 187.3248 119.751695 
L 187.7712 115.978193 
L 188.3664 108.845194 
L 190.3008 83.37187 
L 190.7472 80.243984 
L 191.0448 79.136182 
L 191.3424 78.831207 
L 191.4912 78.972188 
L 191.7888 79.803617 
L 192.2352 82.242901 
L 192.9792 88.353188 
L 194.0208 96.898687 
L 194.4672 99.144934 
L 194.7648 99.917918 
L 195.0624 100.066293 
L 195.36 99.597156 
L 195.6576 98.557785 
L 196.104 96.123496 
L 197.8896 84.986139 
L 198.1872 84.428693 
L 198.336 84.402464 
L 198.4848 84.554817 
L 198.7824 85.411113 
L 199.08 87.00332 
L 199.5264 90.681834 
L 200.2704 99.436929 
L 201.7584 117.915716 
L 202.2048 121.266325 
L 202.5024 122.5529 
L 202.8 123.022585 
L 202.9488 122.948311 
L 203.2464 122.199149 
L 203.544 120.702396 
L 203.9904 117.275577 
L 204.8832 107.964289 
L 205.776 99.159529 
L 206.2224 96.209935 
L 206.6688 94.639115 
L 206.9664 94.400376 
L 207.1152 94.515879 
L 207.4128 95.179082 
L 207.8592 97.07519 
L 209.6448 106.351488 
L 209.9424 106.666948 
L 210.0912 106.583764 
L 210.3888 105.903887 
L 210.6864 104.526501 
L 211.1328 101.209421 
L 211.728 94.871646 
L 213.5136 74.018065 
L 213.96 71.296498 
L 214.2576 70.465274 
L 214.4064 70.362091 
L 214.5552 70.468849 
L 214.8528 71.301167 
L 215.1504 72.91421 
L 215.5968 76.597269 
L 216.3408 84.957501 
L 217.5312 98.246481 
L 218.1264 102.263103 
L 218.424 103.293507 
L 218.7216 103.649879 
L 218.8704 103.584558 
L 219.168 103.006881 
L 219.6144 101.20833 
L 220.5072 95.953949 
L 221.1024 92.944888 
L 221.5488 91.787674 
L 221.6976 91.685321 
L 221.8464 91.740179 
L 222.144 92.342114 
L 222.4416 93.60927 
L 222.888 96.690871 
L 223.4832 102.565803 
L 225.12 119.992702 
L 225.5664 122.495403 
L 225.864 123.210638 
L 226.0128 123.260742 
L 226.1616 123.102265 
L 226.4592 122.164835 
L 226.9056 119.296049 
L 227.5008 113.240089 
L 229.584 89.298145 
L 230.0304 87.011191 
L 230.328 86.37809 
L 230.4768 86.325565 
L 230.6256 86.441564 
L 230.9232 87.142249 
L 231.3696 89.170912 
L 232.2624 95.0091 
L 233.0064 99.12854 
L 233.304 100.039306 
L 233.6016 100.378544 
L 233.7504 100.316017 
L 234.048 99.712668 
L 234.3456 98.482794 
L 234.792 95.580468 
L 235.536 88.811899 
L 236.5776 79.334381 
L 237.024 76.818068 
L 237.3216 75.992151 
L 237.4704 75.867233 
L 237.6192 75.943253 
L 237.9168 76.709363 
L 238.2144 78.286461 
L 238.6608 82.060957 
L 239.256 89.182016 
L 241.0416 112.64036 
L 241.488 116.113784 
L 241.9344 117.940816 
L 242.232 118.226693 
L 242.3808 118.103547 
L 242.6784 117.372143 
L 243.1248 115.267069 
L 244.0176 109.220979 
L 244.7616 104.905941 
L 245.208 103.62052 
L 245.3568 103.479806 
L 245.5056 103.493276 
L 245.8032 103.989984 
L 246.1008 105.099466 
L 246.5472 107.790034 
L 247.2912 114.111788 
L 248.3328 122.798767 
L 248.7792 124.957388 
L 249.0768 125.555752 
L 249.2256 125.57328 
L 249.3744 125.395576 
L 249.672 124.447616 
L 250.1184 121.587829 
L 250.7136 115.477291 
L 252.9456 88.778168 
L 253.392 86.618144 
L 253.6896 86.159613 
L 253.8384 86.2239 
L 254.136 86.912093 
L 254.5824 89.188892 
L 255.1776 93.906173 
L 256.5168 105.346287 
L 256.9632 107.599855 
L 257.2608 108.371473 
L 257.5584 108.521235 
L 257.856 108.062944 
L 258.1536 107.050298 
L 258.6 104.69839 
L 260.2368 94.978784 
L 260.5344 94.380247 
L 260.6832 94.32846 
L 260.832 94.454335 
L 261.1296 95.262636 
L 261.4272 96.826634 
L 261.8736 100.533875 
L 262.4688 107.596804 
L 264.4032 133.35972 
L 264.8496 136.640252 
L 265.1472 137.84575 
L 265.4448 138.235816 
L 265.5936 138.13019 
L 265.8912 137.350521 
L 266.3376 134.929908 
L 266.9328 130.046233 
L 268.272 118.511282 
L 268.7184 116.327391 
L 269.016 115.626547 
L 269.1648 115.515518 
L 269.3136 115.56385 
L 269.6112 116.122601 
L 270.0576 117.992554 
L 270.6528 121.847111 
L 271.6944 128.978766 
L 272.1408 130.808013 
L 272.4384 131.295689 
L 272.5872 131.28885 
L 272.736 131.106472 
L 273.0336 130.204975 
L 273.48 127.541153 
L 274.0752 121.889807 
L 276.1584 99.127154 
L 276.6048 97.228957 
L 276.7536 97.000238 
L 276.9024 96.980294 
L 277.0512 97.169206 
L 277.3488 98.160639 
L 277.7952 101.066135 
L 278.3904 107.026626 
L 280.176 127.163637 
L 280.6224 130.009211 
L 280.92 131.092491 
L 281.2176 131.518519 
L 281.3664 131.496158 
L 281.664 131.024055 
L 282.1104 129.441628 
L 283.7472 122.155235 
L 284.0448 121.89586 
L 284.1936 121.994105 
L 284.4912 122.68383 
L 284.7888 124.052164 
L 285.2352 127.342023 
L 285.8304 133.667288 
L 287.7648 156.264319 
L 288.2112 158.712885 
L 288.5088 159.341601 
L 288.6576 159.342396 
L 288.8064 159.134782 
L 289.104 158.112143 
L 289.5504 155.192785 
L 290.1456 149.318734 
L 291.7824 131.594221 
L 292.2288 128.853632 
L 292.5264 127.867908 
L 292.824 127.580281 
L 292.9728 127.692036 
L 293.2704 128.392335 
L 293.7168 130.4637 
L 294.4608 135.555691 
L 295.3536 141.340663 
L 295.8 142.930364 
L 296.0976 143.264878 
L 296.2464 143.193679 
L 296.544 142.564373 
L 296.8416 141.302493 
L 297.288 138.354677 
L 298.032 131.562735 
L 299.0736 122.252052 
L 299.52 119.885216 
L 299.8176 119.180568 
L 299.9664 119.121555 
L 300.1152 119.266367 
L 300.4128 120.176706 
L 300.7104 121.903465 
L 301.1568 125.903958 
L 301.9008 135.413677 
L 303.3888 155.918501 
L 303.984 161.105254 
L 304.4304 163.129478 
L 304.728 163.5707 
L 304.8768 163.534188 
L 305.1744 162.996587 
L 305.6208 161.239727 
L 307.4064 152.433695 
L 307.704 152.153327 
L 307.8528 152.237989 
L 308.1504 152.877664 
L 308.448 154.142334 
L 308.8944 157.117111 
L 309.6384 164.136609 
L 310.8288 175.527559 
L 311.2752 178.073151 
L 311.5728 178.900074 
L 311.7216 179.024404 
L 311.8704 178.949203 
L 312.168 178.195546 
L 312.4656 176.656264 
L 312.912 173.013331 
L 313.656 164.361981 
L 314.9952 148.077102 
L 315.4416 144.57458 
L 315.888 142.685859 
L 316.1856 142.389863 
L 316.3344 142.528191 
L 316.632 143.347353 
L 317.0784 145.771055 
L 317.6736 150.578933 
L 319.0128 161.794483 
L 319.4592 163.880635 
L 319.7568 164.531151 
L 319.9056 164.622964 
L 320.0544 164.56003 
L 320.352 163.987816 
L 320.7984 162.143983 
L 321.5424 157.396444 
L 322.4352 151.909331 
L 322.8816 150.512302 
L 323.0304 150.356969 
L 323.1792 150.376478 
L 323.328 150.579248 
L 323.6256 151.555877 
L 324.072 154.460354 
L 324.6672 160.780881 
L 325.56 173.660704 
L 326.6016 188.4622 
L 327.1968 194.228335 
L 327.6432 196.591041 
L 327.9408 197.162371 
L 328.0896 197.152621 
L 328.3872 196.577578 
L 328.6848 195.336467 
L 329.1312 192.492452 
L 330.9168 179.477289 
L 331.2144 178.540475 
L 331.512 178.215463 
L 331.6608 178.289475 
L 331.9584 178.902323 
L 332.4048 180.884374 
L 333 185.001486 
L 334.1904 193.917411 
L 334.6368 195.870776 
L 334.9344 196.403226 
L 335.0832 196.409013 
L 335.232 196.233578 
L 335.5296 195.331567 
L 335.976 192.641155 
L 336.5712 186.933601 
L 338.6544 164.131015 
L 339.1008 162.256458 
L 339.2496 162.034243 
L 339.3984 162.019291 
L 339.5472 162.211184 
L 339.8448 163.200593 
L 340.2912 166.076475 
L 340.8864 171.933893 
L 342.672 191.334761 
L 343.1184 193.953982 
L 343.416 194.89648 
L 343.7136 195.197171 
L 343.8624 195.119821 
L 344.16 194.556558 
L 344.6064 192.893255 
L 346.0944 186.251882 
L 346.392 185.878598 
L 346.5408 185.91445 
L 346.8384 186.476988 
L 347.136 187.727022 
L 347.5824 190.888318 
L 348.1776 197.204814 
L 350.4096 224.014514 
L 350.856 226.084726 
L 351.1536 226.431296 
L 351.3024 226.291408 
L 351.6 225.406632 
L 352.0464 222.706558 
L 352.6416 217.161781 
L 354.2784 200.561259 
L 354.7248 198.137335 
L 355.0224 197.348291 
L 355.1712 197.209612 
L 355.32 197.238923 
L 355.6176 197.778623 
L 355.9152 198.897933 
L 356.5104 202.431749 
L 357.8496 211.194155 
L 358.296 212.553452 
L 358.4448 212.709302 
L 358.5936 212.704118 
L 358.8912 212.198104 
L 359.1888 211.03602 
L 359.6352 208.164387 
L 360.3792 201.213709 
L 361.5696 189.820485 
L 362.016 187.293855 
L 362.3136 186.500104 
L 362.4624 186.400544 
L 362.6112 186.506857 
L 362.9088 187.344362 
L 363.2064 189.000502 
L 363.6528 192.890909 
L 364.3968 202.181302 
L 365.8848 222.080406 
L 366.48 227.015099 
L 366.9264 228.881127 
L 367.224 229.241559 
L 367.3728 229.173913 
L 367.3728 229.173913 
" style="fill:none;stroke:#55a868;stroke-linecap:round;stroke-width:1.75;"/>
   </g>
   <g id="patch_3">
    <path d="M 388.8 252 
L 388.8 28.8 
" style="fill:none;"/>
   </g>
   <g id="patch_4">
    <path d="M 54 252 
L 388.8 252 
" style="fill:none;"/>
   </g>
   <g id="patch_5">
    <path d="M 54 28.8 
L 388.8 28.8 
" style="fill:none;"/>
   </g>
   <g id="patch_6">
    <path d="M 54 252 
L 54 28.8 
" style="fill:none;"/>
   </g>
   <g id="text_14">
    <!-- exp : 1, sin : 3 -->
    <defs>
     <path id="LiberationSans-20"/>
     <path d="M 40.28125 0 
L 40.28125 33.5 
Q 40.28125 37.359375 39.71875 39.9375 
Q 39.15625 42.53125 37.890625 44.109375 
Q 36.625 45.703125 34.546875 46.359375 
Q 32.46875 47.015625 29.390625 47.015625 
Q 26.265625 47.015625 23.75 45.921875 
Q 21.234375 44.828125 19.453125 42.75 
Q 17.671875 40.671875 16.6875 37.625 
Q 15.71875 34.578125 15.71875 30.609375 
L 15.71875 0 
L 6.9375 0 
L 6.9375 41.546875 
Q 6.9375 43.21875 6.90625 45.046875 
Q 6.890625 46.875 6.828125 48.5 
Q 6.78125 50.140625 6.734375 51.3125 
Q 6.6875 52.484375 6.640625 52.828125 
L 14.9375 52.828125 
Q 14.984375 52.59375 15.03125 51.515625 
Q 15.09375 50.4375 15.15625 49.046875 
Q 15.234375 47.65625 15.28125 46.21875 
Q 15.328125 44.78125 15.328125 43.796875 
L 15.484375 43.796875 
Q 16.75 46.09375 18.265625 47.953125 
Q 19.78125 49.8125 21.78125 51.09375 
Q 23.78125 52.390625 26.359375 53.09375 
Q 28.953125 53.8125 32.375 53.8125 
Q 36.765625 53.8125 39.9375 52.734375 
Q 43.109375 51.65625 45.15625 49.40625 
Q 47.21875 47.171875 48.171875 43.625 
Q 49.125 40.09375 49.125 35.203125 
L 49.125 0 
z
" id="LiberationSans-6e"/>
     <path d="M 46.390625 14.59375 
Q 46.390625 10.890625 44.9375 7.984375 
Q 43.5 5.078125 40.765625 3.09375 
Q 38.03125 1.125 34.046875 0.0625 
Q 30.078125 -0.984375 24.953125 -0.984375 
Q 20.359375 -0.984375 16.671875 -0.265625 
Q 12.984375 0.4375 10.203125 2 
Q 7.421875 3.5625 5.53125 6.125 
Q 3.65625 8.6875 2.78125 12.40625 
L 10.546875 13.921875 
Q 11.671875 9.671875 15.1875 7.6875 
Q 18.703125 5.71875 24.953125 5.71875 
Q 27.78125 5.71875 30.140625 6.109375 
Q 32.515625 6.5 34.21875 7.453125 
Q 35.9375 8.40625 36.890625 9.984375 
Q 37.84375 11.578125 37.84375 13.921875 
Q 37.84375 16.3125 36.71875 17.84375 
Q 35.59375 19.390625 33.59375 20.40625 
Q 31.59375 21.4375 28.734375 22.1875 
Q 25.875 22.953125 22.46875 23.875 
Q 19.28125 24.703125 16.15625 25.734375 
Q 13.03125 26.765625 10.515625 28.4375 
Q 8.015625 30.125 6.453125 32.609375 
Q 4.890625 35.109375 4.890625 38.875 
Q 4.890625 46.09375 10.03125 49.875 
Q 15.1875 53.65625 25.046875 53.65625 
Q 33.796875 53.65625 38.9375 50.578125 
Q 44.09375 47.515625 45.453125 40.71875 
L 37.546875 39.75 
Q 37.109375 41.796875 35.9375 43.1875 
Q 34.765625 44.578125 33.109375 45.4375 
Q 31.453125 46.296875 29.375 46.65625 
Q 27.296875 47.015625 25.046875 47.015625 
Q 19.09375 47.015625 16.25 45.203125 
Q 13.421875 43.40625 13.421875 39.75 
Q 13.421875 37.59375 14.46875 36.203125 
Q 15.53125 34.8125 17.40625 33.859375 
Q 19.28125 32.90625 21.921875 32.203125 
Q 24.5625 31.5 27.734375 30.71875 
Q 29.828125 30.171875 32.03125 29.5625 
Q 34.234375 28.953125 36.296875 28.09375 
Q 38.375 27.25 40.203125 26.09375 
Q 42.046875 24.953125 43.40625 23.34375 
Q 44.78125 21.734375 45.578125 19.578125 
Q 46.390625 17.4375 46.390625 14.59375 
" id="LiberationSans-73"/>
     <path d="M 51.21875 19 
Q 51.21875 14.265625 49.671875 10.546875 
Q 48.140625 6.84375 45.1875 4.265625 
Q 42.234375 1.703125 37.859375 0.359375 
Q 33.5 -0.984375 27.875 -0.984375 
Q 21.484375 -0.984375 17.109375 0.609375 
Q 12.75 2.203125 9.90625 4.8125 
Q 7.078125 7.421875 5.65625 10.765625 
Q 4.25 14.109375 3.8125 17.671875 
L 12.890625 18.5 
Q 13.28125 15.765625 14.328125 13.515625 
Q 15.375 11.28125 17.1875 9.671875 
Q 19 8.0625 21.625 7.171875 
Q 24.265625 6.296875 27.875 6.296875 
Q 34.515625 6.296875 38.296875 9.5625 
Q 42.09375 12.84375 42.09375 19.28125 
Q 42.09375 23.09375 40.40625 25.40625 
Q 38.71875 27.734375 36.203125 29.03125 
Q 33.6875 30.328125 30.734375 30.765625 
Q 27.78125 31.203125 25.296875 31.203125 
L 20.3125 31.203125 
L 20.3125 38.8125 
L 25.09375 38.8125 
Q 27.59375 38.8125 30.265625 39.328125 
Q 32.953125 39.84375 35.171875 41.1875 
Q 37.40625 42.53125 38.84375 44.828125 
Q 40.28125 47.125 40.28125 50.6875 
Q 40.28125 56.203125 37.03125 59.390625 
Q 33.796875 62.59375 27.390625 62.59375 
Q 21.578125 62.59375 17.984375 59.609375 
Q 14.40625 56.640625 13.8125 51.21875 
L 4.984375 51.90625 
Q 5.515625 56.453125 7.46875 59.8125 
Q 9.421875 63.1875 12.421875 65.40625 
Q 15.4375 67.625 19.28125 68.71875 
Q 23.140625 69.828125 27.484375 69.828125 
Q 33.25 69.828125 37.390625 68.375 
Q 41.546875 66.9375 44.1875 64.46875 
Q 46.828125 62.015625 48.0625 58.6875 
Q 49.3125 55.375 49.3125 51.609375 
Q 49.3125 48.578125 48.484375 45.9375 
Q 47.65625 43.3125 45.890625 41.203125 
Q 44.140625 39.109375 41.421875 37.59375 
Q 38.71875 36.078125 34.90625 35.296875 
L 34.90625 35.109375 
Q 39.0625 34.671875 42.140625 33.21875 
Q 45.21875 31.78125 47.21875 29.625 
Q 49.21875 27.484375 50.21875 24.75 
Q 51.21875 22.015625 51.21875 19 
" id="LiberationSans-33"/>
     <path d="M 51.421875 26.65625 
Q 51.421875 20.65625 50.4375 15.578125 
Q 49.46875 10.5 47.1875 6.828125 
Q 44.921875 3.171875 41.1875 1.09375 
Q 37.453125 -0.984375 31.984375 -0.984375 
Q 26.3125 -0.984375 22.0625 1.171875 
Q 17.828125 3.328125 15.578125 8.203125 
L 15.328125 8.203125 
Q 15.375 8.109375 15.40625 7.328125 
Q 15.4375 6.546875 15.453125 5.375 
Q 15.484375 4.203125 15.5 2.75 
Q 15.53125 1.3125 15.53125 -0.09375 
L 15.53125 -20.75 
L 6.734375 -20.75 
L 6.734375 42.046875 
Q 6.734375 43.953125 6.703125 45.703125 
Q 6.6875 47.46875 6.640625 48.90625 
Q 6.59375 50.34375 6.546875 51.359375 
Q 6.5 52.390625 6.453125 52.828125 
L 14.9375 52.828125 
Q 14.984375 52.6875 15.0625 51.796875 
Q 15.140625 50.921875 15.203125 49.671875 
Q 15.28125 48.4375 15.359375 47.015625 
Q 15.4375 45.609375 15.4375 44.34375 
L 15.625 44.34375 
Q 16.84375 46.875 18.40625 48.65625 
Q 19.96875 50.4375 21.96875 51.578125 
Q 23.96875 52.734375 26.4375 53.25 
Q 28.90625 53.765625 31.984375 53.765625 
Q 37.453125 53.765625 41.1875 51.8125 
Q 44.921875 49.859375 47.1875 46.3125 
Q 49.46875 42.78125 50.4375 37.765625 
Q 51.421875 32.765625 51.421875 26.65625 
M 42.1875 26.46875 
Q 42.1875 31.34375 41.59375 35.15625 
Q 41.015625 38.96875 39.578125 41.59375 
Q 38.140625 44.234375 35.734375 45.59375 
Q 33.34375 46.96875 29.734375 46.96875 
Q 26.8125 46.96875 24.21875 46.140625 
Q 21.625 45.3125 19.703125 42.96875 
Q 17.78125 40.625 16.65625 36.5 
Q 15.53125 32.375 15.53125 25.78125 
Q 15.53125 20.171875 16.453125 16.28125 
Q 17.390625 12.40625 19.171875 10.015625 
Q 20.953125 7.625 23.578125 6.5625 
Q 26.21875 5.515625 29.640625 5.515625 
Q 33.296875 5.515625 35.71875 6.921875 
Q 38.140625 8.34375 39.578125 11.03125 
Q 41.015625 13.71875 41.59375 17.59375 
Q 42.1875 21.484375 42.1875 26.46875 
" id="LiberationSans-70"/>
     <path d="M 9.125 42.71875 
L 9.125 52.828125 
L 18.65625 52.828125 
L 18.65625 42.71875 
z
M 9.125 0 
L 9.125 10.109375 
L 18.65625 10.109375 
L 18.65625 0 
z
" id="LiberationSans-3a"/>
     <path d="M 18.796875 10.6875 
L 18.796875 2.484375 
Q 18.796875 -0.09375 18.578125 -2.21875 
Q 18.359375 -4.34375 17.875 -6.171875 
Q 17.390625 -8.015625 16.671875 -9.625 
Q 15.96875 -11.234375 14.984375 -12.796875 
L 8.984375 -12.796875 
Q 11.1875 -9.625 12.375 -6.390625 
Q 13.578125 -3.171875 13.578125 0 
L 9.28125 0 
L 9.28125 10.6875 
z
" id="LiberationSans-2c"/>
     <path d="M 6.6875 64.0625 
L 6.6875 72.46875 
L 15.484375 72.46875 
L 15.484375 64.0625 
z
M 6.6875 0 
L 6.6875 52.828125 
L 15.484375 52.828125 
L 15.484375 0 
z
" id="LiberationSans-69"/>
     <path d="M 39.109375 0 
L 24.90625 21.6875 
L 10.59375 0 
L 1.125 0 
L 19.921875 27.15625 
L 2 52.828125 
L 11.71875 52.828125 
L 24.90625 32.28125 
L 37.984375 52.828125 
L 47.796875 52.828125 
L 29.890625 27.25 
L 48.921875 0 
z
" id="LiberationSans-78"/>
     <path d="M 13.484375 24.5625 
Q 13.484375 20.40625 14.328125 16.90625 
Q 15.1875 13.421875 16.96875 10.90625 
Q 18.75 8.40625 21.53125 7 
Q 24.3125 5.609375 28.21875 5.609375 
Q 33.9375 5.609375 37.375 7.90625 
Q 40.828125 10.203125 42.046875 13.71875 
L 49.75 11.53125 
Q 48.921875 9.328125 47.4375 7.109375 
Q 45.953125 4.890625 43.453125 3.09375 
Q 40.96875 1.3125 37.234375 0.15625 
Q 33.5 -0.984375 28.21875 -0.984375 
Q 16.5 -0.984375 10.375 6 
Q 4.25 12.984375 4.25 26.765625 
Q 4.25 34.1875 6.09375 39.328125 
Q 7.953125 44.484375 11.171875 47.703125 
Q 14.40625 50.921875 18.703125 52.359375 
Q 23 53.8125 27.875 53.8125 
Q 34.515625 53.8125 38.984375 51.65625 
Q 43.453125 49.515625 46.15625 45.71875 
Q 48.875 41.9375 50.015625 36.8125 
Q 51.171875 31.6875 51.171875 25.734375 
L 51.171875 24.5625 
z
M 42.09375 31.296875 
Q 41.359375 39.65625 37.84375 43.484375 
Q 34.328125 47.3125 27.734375 47.3125 
Q 25.53125 47.3125 23.109375 46.609375 
Q 20.703125 45.90625 18.65625 44.09375 
Q 16.609375 42.28125 15.1875 39.171875 
Q 13.765625 36.078125 13.578125 31.296875 
z
" id="LiberationSans-65"/>
    </defs>
    <g style="fill:#262626;" transform="translate(184.0490625 23.8)scale(0.12 -0.12)">
     <use xlink:href="#LiberationSans-65"/>
     <use x="55.615234375" xlink:href="#LiberationSans-78"/>
     <use x="105.615234375" xlink:href="#LiberationSans-70"/>
     <use x="161.23046875" xlink:href="#LiberationSans-20"/>
     <use x="189.013671875" xlink:href="#LiberationSans-3a"/>
     <use x="216.796875" xlink:href="#LiberationSans-20"/>
     <use x="244.580078125" xlink:href="#LiberationSans-31"/>
     <use x="300.1953125" xlink:href="#LiberationSans-2c"/>
     <use x="327.978515625" xlink:href="#LiberationSans-20"/>
     <use x="355.76171875" xlink:href="#LiberationSans-73"/>
     <use x="405.76171875" xlink:href="#LiberationSans-69"/>
     <use x="427.978515625" xlink:href="#LiberationSans-6e"/>
     <use x="483.59375" xlink:href="#LiberationSans-20"/>
     <use x="511.376953125" xlink:href="#LiberationSans-3a"/>
     <use x="539.16015625" xlink:href="#LiberationSans-20"/>
     <use x="566.943359375" xlink:href="#LiberationSans-33"/>
    </g>
   </g>
  </g>
 </g>
 <defs>
  <clipPath id="p3ebe39c9a7">
   <rect height="223.2" width="334.8" x="54.0" y="28.8"/>
  </clipPath>
 </defs>
</svg>
