<?xml version="1.0" encoding="utf-8" standalone="no"?>
<!DOCTYPE svg PUBLIC "-//W3C//DTD SVG 1.1//EN"
  "http://www.w3.org/Graphics/SVG/1.1/DTD/svg11.dtd">
<!-- Created with matplotlib (http://matplotlib.org/) -->
<svg height="360pt" version="1.1" viewBox="0 0 1152 360" width="1152pt" xmlns="http://www.w3.org/2000/svg" xmlns:xlink="http://www.w3.org/1999/xlink">
 <defs>
  <style type="text/css">
*{stroke-linecap:butt;stroke-linejoin:round;}
  </style>
 </defs>
 <g id="figure_1">
  <g id="patch_1">
   <path d="M 0 360 
L 1152 360 
L 1152 0 
L 0 0 
z
" style="fill:#ffffff;"/>
  </g>
  <g id="axes_1">
   <g id="patch_2">
    <path d="M 144 320.4 
L 1036.8 320.4 
L 1036.8 43.2 
L 144 43.2 
z
" style="fill:#eaeaf2;"/>
   </g>
   <g id="matplotlib.axis_1">
    <g id="xtick_1">
     <g id="line2d_1">
      <path clip-path="url(#p2decd0ac2c)" d="M 184.581818 320.4 
L 184.581818 43.2 
" style="fill:none;stroke:#ffffff;stroke-linecap:round;stroke-width:0.8;"/>
     </g>
     <g id="line2d_2"/>
     <g id="text_1">
      <!-- 0.000 -->
      <defs>
       <path d="M 51.703125 34.421875 
Q 51.703125 24.515625 49.828125 17.75 
Q 47.953125 10.984375 44.703125 6.8125 
Q 41.453125 2.640625 37.0625 0.828125 
Q 32.671875 -0.984375 27.6875 -0.984375 
Q 22.65625 -0.984375 18.3125 0.828125 
Q 13.96875 2.640625 10.765625 6.78125 
Q 7.5625 10.9375 5.734375 17.703125 
Q 3.90625 24.46875 3.90625 34.421875 
Q 3.90625 44.828125 5.734375 51.640625 
Q 7.5625 58.453125 10.78125 62.5 
Q 14.015625 66.546875 18.40625 68.1875 
Q 22.796875 69.828125 27.984375 69.828125 
Q 32.90625 69.828125 37.21875 68.1875 
Q 41.546875 66.546875 44.765625 62.5 
Q 48 58.453125 49.84375 51.640625 
Q 51.703125 44.828125 51.703125 34.421875 
M 42.78125 34.421875 
Q 42.78125 42.625 41.796875 48.0625 
Q 40.828125 53.515625 38.921875 56.765625 
Q 37.015625 60.015625 34.25 61.359375 
Q 31.5 62.703125 27.984375 62.703125 
Q 24.265625 62.703125 21.4375 61.328125 
Q 18.609375 59.96875 16.671875 56.71875 
Q 14.75 53.46875 13.765625 48.015625 
Q 12.796875 42.578125 12.796875 34.421875 
Q 12.796875 26.515625 13.796875 21.09375 
Q 14.796875 15.671875 16.71875 12.375 
Q 18.65625 9.078125 21.4375 7.640625 
Q 24.21875 6.203125 27.78125 6.203125 
Q 31.25 6.203125 34.03125 7.640625 
Q 36.8125 9.078125 38.734375 12.375 
Q 40.671875 15.671875 41.71875 21.09375 
Q 42.78125 26.515625 42.78125 34.421875 
" id="LiberationSans-30"/>
       <path d="M 9.125 0 
L 9.125 10.6875 
L 18.65625 10.6875 
L 18.65625 0 
z
" id="LiberationSans-2e"/>
      </defs>
      <g style="fill:#262626;" transform="translate(174.573068 331.7975)scale(0.08 -0.08)">
       <use xlink:href="#LiberationSans-30"/>
       <use x="55.615234" xlink:href="#LiberationSans-2e"/>
       <use x="83.398438" xlink:href="#LiberationSans-30"/>
       <use x="139.013672" xlink:href="#LiberationSans-30"/>
       <use x="194.628906" xlink:href="#LiberationSans-30"/>
      </g>
     </g>
    </g>
    <g id="xtick_2">
     <g id="line2d_3">
      <path clip-path="url(#p2decd0ac2c)" d="M 311.238448 320.4 
L 311.238448 43.2 
" style="fill:none;stroke:#ffffff;stroke-linecap:round;stroke-width:0.8;"/>
     </g>
     <g id="line2d_4"/>
     <g id="text_2">
      <!-- 0.005 -->
      <defs>
       <path d="M 51.421875 22.40625 
Q 51.421875 17.234375 49.859375 12.9375 
Q 48.296875 8.640625 45.21875 5.53125 
Q 42.140625 2.4375 37.578125 0.71875 
Q 33.015625 -0.984375 27 -0.984375 
Q 21.578125 -0.984375 17.546875 0.28125 
Q 13.53125 1.5625 10.734375 3.78125 
Q 7.953125 6 6.3125 8.984375 
Q 4.6875 11.96875 4 15.375 
L 12.890625 16.40625 
Q 13.421875 14.453125 14.390625 12.625 
Q 15.375 10.796875 17.0625 9.34375 
Q 18.75 7.90625 21.21875 7.046875 
Q 23.6875 6.203125 27.203125 6.203125 
Q 30.609375 6.203125 33.390625 7.25 
Q 36.1875 8.296875 38.15625 10.34375 
Q 40.140625 12.40625 41.203125 15.375 
Q 42.28125 18.359375 42.28125 22.21875 
Q 42.28125 25.390625 41.25 28.046875 
Q 40.234375 30.71875 38.328125 32.640625 
Q 36.421875 34.578125 33.65625 35.640625 
Q 30.90625 36.71875 27.390625 36.71875 
Q 25.203125 36.71875 23.34375 36.328125 
Q 21.484375 35.9375 19.890625 35.25 
Q 18.3125 34.578125 17.015625 33.671875 
Q 15.71875 32.765625 14.59375 31.78125 
L 6 31.78125 
L 8.296875 68.796875 
L 47.40625 68.796875 
L 47.40625 61.328125 
L 16.3125 61.328125 
L 14.984375 39.5 
Q 17.328125 41.3125 20.84375 42.59375 
Q 24.359375 43.890625 29.203125 43.890625 
Q 34.328125 43.890625 38.421875 42.328125 
Q 42.53125 40.765625 45.40625 37.90625 
Q 48.296875 35.0625 49.859375 31.109375 
Q 51.421875 27.15625 51.421875 22.40625 
" id="LiberationSans-35"/>
      </defs>
      <g style="fill:#262626;" transform="translate(301.229698 331.7975)scale(0.08 -0.08)">
       <use xlink:href="#LiberationSans-30"/>
       <use x="55.615234" xlink:href="#LiberationSans-2e"/>
       <use x="83.398438" xlink:href="#LiberationSans-30"/>
       <use x="139.013672" xlink:href="#LiberationSans-30"/>
       <use x="194.628906" xlink:href="#LiberationSans-35"/>
      </g>
     </g>
    </g>
    <g id="xtick_3">
     <g id="line2d_5">
      <path clip-path="url(#p2decd0ac2c)" d="M 437.895078 320.4 
L 437.895078 43.2 
" style="fill:none;stroke:#ffffff;stroke-linecap:round;stroke-width:0.8;"/>
     </g>
     <g id="line2d_6"/>
     <g id="text_3">
      <!-- 0.010 -->
      <defs>
       <path d="M 7.625 0 
L 7.625 7.46875 
L 25.140625 7.46875 
L 25.140625 60.40625 
L 9.625 49.3125 
L 9.625 57.625 
L 25.875 68.796875 
L 33.984375 68.796875 
L 33.984375 7.46875 
L 50.734375 7.46875 
L 50.734375 0 
z
" id="LiberationSans-31"/>
      </defs>
      <g style="fill:#262626;" transform="translate(427.886328 331.7975)scale(0.08 -0.08)">
       <use xlink:href="#LiberationSans-30"/>
       <use x="55.615234" xlink:href="#LiberationSans-2e"/>
       <use x="83.398438" xlink:href="#LiberationSans-30"/>
       <use x="139.013672" xlink:href="#LiberationSans-31"/>
       <use x="194.628906" xlink:href="#LiberationSans-30"/>
      </g>
     </g>
    </g>
    <g id="xtick_4">
     <g id="line2d_7">
      <path clip-path="url(#p2decd0ac2c)" d="M 564.551708 320.4 
L 564.551708 43.2 
" style="fill:none;stroke:#ffffff;stroke-linecap:round;stroke-width:0.8;"/>
     </g>
     <g id="line2d_8"/>
     <g id="text_4">
      <!-- 0.015 -->
      <g style="fill:#262626;" transform="translate(554.542958 331.7975)scale(0.08 -0.08)">
       <use xlink:href="#LiberationSans-30"/>
       <use x="55.615234" xlink:href="#LiberationSans-2e"/>
       <use x="83.398438" xlink:href="#LiberationSans-30"/>
       <use x="139.013672" xlink:href="#LiberationSans-31"/>
       <use x="194.628906" xlink:href="#LiberationSans-35"/>
      </g>
     </g>
    </g>
    <g id="xtick_5">
     <g id="line2d_9">
      <path clip-path="url(#p2decd0ac2c)" d="M 691.208338 320.4 
L 691.208338 43.2 
" style="fill:none;stroke:#ffffff;stroke-linecap:round;stroke-width:0.8;"/>
     </g>
     <g id="line2d_10"/>
     <g id="text_5">
      <!-- 0.020 -->
      <defs>
       <path d="M 5.03125 0 
L 5.03125 6.203125 
Q 7.515625 11.921875 11.109375 16.28125 
Q 14.703125 20.65625 18.65625 24.1875 
Q 22.609375 27.734375 26.484375 30.765625 
Q 30.375 33.796875 33.5 36.8125 
Q 36.625 39.84375 38.546875 43.15625 
Q 40.484375 46.484375 40.484375 50.6875 
Q 40.484375 53.609375 39.59375 55.828125 
Q 38.71875 58.0625 37.0625 59.5625 
Q 35.40625 61.078125 33.078125 61.828125 
Q 30.765625 62.59375 27.9375 62.59375 
Q 25.296875 62.59375 22.96875 61.859375 
Q 20.65625 61.140625 18.84375 59.671875 
Q 17.046875 58.203125 15.890625 56.03125 
Q 14.75 53.859375 14.40625 50.984375 
L 5.421875 51.8125 
Q 5.859375 55.515625 7.46875 58.78125 
Q 9.078125 62.0625 11.90625 64.53125 
Q 14.75 67 18.71875 68.40625 
Q 22.703125 69.828125 27.9375 69.828125 
Q 33.0625 69.828125 37.0625 68.609375 
Q 41.0625 67.390625 43.8125 64.984375 
Q 46.578125 62.59375 48.046875 59.078125 
Q 49.515625 55.5625 49.515625 50.984375 
Q 49.515625 47.515625 48.265625 44.390625 
Q 47.015625 41.265625 44.9375 38.421875 
Q 42.875 35.59375 40.140625 32.953125 
Q 37.40625 30.328125 34.421875 27.8125 
Q 31.453125 25.296875 28.421875 22.828125 
Q 25.390625 20.359375 22.71875 17.859375 
Q 20.0625 15.375 17.96875 12.8125 
Q 15.875 10.25 14.703125 7.46875 
L 50.59375 7.46875 
L 50.59375 0 
z
" id="LiberationSans-32"/>
      </defs>
      <g style="fill:#262626;" transform="translate(681.199588 331.7975)scale(0.08 -0.08)">
       <use xlink:href="#LiberationSans-30"/>
       <use x="55.615234" xlink:href="#LiberationSans-2e"/>
       <use x="83.398438" xlink:href="#LiberationSans-30"/>
       <use x="139.013672" xlink:href="#LiberationSans-32"/>
       <use x="194.628906" xlink:href="#LiberationSans-30"/>
      </g>
     </g>
    </g>
    <g id="xtick_6">
     <g id="line2d_11">
      <path clip-path="url(#p2decd0ac2c)" d="M 817.864968 320.4 
L 817.864968 43.2 
" style="fill:none;stroke:#ffffff;stroke-linecap:round;stroke-width:0.8;"/>
     </g>
     <g id="line2d_12"/>
     <g id="text_6">
      <!-- 0.025 -->
      <g style="fill:#262626;" transform="translate(807.856218 331.7975)scale(0.08 -0.08)">
       <use xlink:href="#LiberationSans-30"/>
       <use x="55.615234" xlink:href="#LiberationSans-2e"/>
       <use x="83.398438" xlink:href="#LiberationSans-30"/>
       <use x="139.013672" xlink:href="#LiberationSans-32"/>
       <use x="194.628906" xlink:href="#LiberationSans-35"/>
      </g>
     </g>
    </g>
    <g id="xtick_7">
     <g id="line2d_13">
      <path clip-path="url(#p2decd0ac2c)" d="M 944.521598 320.4 
L 944.521598 43.2 
" style="fill:none;stroke:#ffffff;stroke-linecap:round;stroke-width:0.8;"/>
     </g>
     <g id="line2d_14"/>
     <g id="text_7">
      <!-- 0.030 -->
      <defs>
       <path d="M 51.21875 19 
Q 51.21875 14.265625 49.671875 10.546875 
Q 48.140625 6.84375 45.1875 4.265625 
Q 42.234375 1.703125 37.859375 0.359375 
Q 33.5 -0.984375 27.875 -0.984375 
Q 21.484375 -0.984375 17.109375 0.609375 
Q 12.75 2.203125 9.90625 4.8125 
Q 7.078125 7.421875 5.65625 10.765625 
Q 4.25 14.109375 3.8125 17.671875 
L 12.890625 18.5 
Q 13.28125 15.765625 14.328125 13.515625 
Q 15.375 11.28125 17.1875 9.671875 
Q 19 8.0625 21.625 7.171875 
Q 24.265625 6.296875 27.875 6.296875 
Q 34.515625 6.296875 38.296875 9.5625 
Q 42.09375 12.84375 42.09375 19.28125 
Q 42.09375 23.09375 40.40625 25.40625 
Q 38.71875 27.734375 36.203125 29.03125 
Q 33.6875 30.328125 30.734375 30.765625 
Q 27.78125 31.203125 25.296875 31.203125 
L 20.3125 31.203125 
L 20.3125 38.8125 
L 25.09375 38.8125 
Q 27.59375 38.8125 30.265625 39.328125 
Q 32.953125 39.84375 35.171875 41.1875 
Q 37.40625 42.53125 38.84375 44.828125 
Q 40.28125 47.125 40.28125 50.6875 
Q 40.28125 56.203125 37.03125 59.390625 
Q 33.796875 62.59375 27.390625 62.59375 
Q 21.578125 62.59375 17.984375 59.609375 
Q 14.40625 56.640625 13.8125 51.21875 
L 4.984375 51.90625 
Q 5.515625 56.453125 7.46875 59.8125 
Q 9.421875 63.1875 12.421875 65.40625 
Q 15.4375 67.625 19.28125 68.71875 
Q 23.140625 69.828125 27.484375 69.828125 
Q 33.25 69.828125 37.390625 68.375 
Q 41.546875 66.9375 44.1875 64.46875 
Q 46.828125 62.015625 48.0625 58.6875 
Q 49.3125 55.375 49.3125 51.609375 
Q 49.3125 48.578125 48.484375 45.9375 
Q 47.65625 43.3125 45.890625 41.203125 
Q 44.140625 39.109375 41.421875 37.59375 
Q 38.71875 36.078125 34.90625 35.296875 
L 34.90625 35.109375 
Q 39.0625 34.671875 42.140625 33.21875 
Q 45.21875 31.78125 47.21875 29.625 
Q 49.21875 27.484375 50.21875 24.75 
Q 51.21875 22.015625 51.21875 19 
" id="LiberationSans-33"/>
      </defs>
      <g style="fill:#262626;" transform="translate(934.512848 331.7975)scale(0.08 -0.08)">
       <use xlink:href="#LiberationSans-30"/>
       <use x="55.615234" xlink:href="#LiberationSans-2e"/>
       <use x="83.398438" xlink:href="#LiberationSans-30"/>
       <use x="139.013672" xlink:href="#LiberationSans-33"/>
       <use x="194.628906" xlink:href="#LiberationSans-30"/>
      </g>
     </g>
    </g>
   </g>
   <g id="matplotlib.axis_2">
    <g id="ytick_1">
     <g id="line2d_15">
      <path clip-path="url(#p2decd0ac2c)" d="M 144 304.285383 
L 1036.8 304.285383 
" style="fill:none;stroke:#ffffff;stroke-linecap:round;stroke-width:0.8;"/>
     </g>
     <g id="line2d_16"/>
     <g id="text_8">
      <!-- 0 -->
      <g style="fill:#262626;" transform="translate(133.95125 307.184133)scale(0.08 -0.08)">
       <use xlink:href="#LiberationSans-30"/>
      </g>
     </g>
    </g>
    <g id="ytick_2">
     <g id="line2d_17">
      <path clip-path="url(#p2decd0ac2c)" d="M 144 257.985897 
L 1036.8 257.985897 
" style="fill:none;stroke:#ffffff;stroke-linecap:round;stroke-width:0.8;"/>
     </g>
     <g id="line2d_18"/>
     <g id="text_9">
      <!-- 2 -->
      <g style="fill:#262626;" transform="translate(133.95125 260.884647)scale(0.08 -0.08)">
       <use xlink:href="#LiberationSans-32"/>
      </g>
     </g>
    </g>
    <g id="ytick_3">
     <g id="line2d_19">
      <path clip-path="url(#p2decd0ac2c)" d="M 144 211.686412 
L 1036.8 211.686412 
" style="fill:none;stroke:#ffffff;stroke-linecap:round;stroke-width:0.8;"/>
     </g>
     <g id="line2d_20"/>
     <g id="text_10">
      <!-- 4 -->
      <defs>
       <path d="M 43.015625 15.578125 
L 43.015625 0 
L 34.71875 0 
L 34.71875 15.578125 
L 2.296875 15.578125 
L 2.296875 22.40625 
L 33.796875 68.796875 
L 43.015625 68.796875 
L 43.015625 22.515625 
L 52.6875 22.515625 
L 52.6875 15.578125 
z
M 34.71875 58.890625 
Q 34.625 58.640625 34.234375 57.9375 
Q 33.84375 57.234375 33.34375 56.34375 
Q 32.859375 55.46875 32.34375 54.5625 
Q 31.84375 53.65625 31.453125 53.078125 
L 13.8125 27.09375 
Q 13.578125 26.703125 13.109375 26.0625 
Q 12.640625 25.4375 12.15625 24.78125 
Q 11.671875 24.125 11.171875 23.484375 
Q 10.6875 22.859375 10.40625 22.515625 
L 34.71875 22.515625 
z
" id="LiberationSans-34"/>
      </defs>
      <g style="fill:#262626;" transform="translate(133.95125 214.585162)scale(0.08 -0.08)">
       <use xlink:href="#LiberationSans-34"/>
      </g>
     </g>
    </g>
    <g id="ytick_4">
     <g id="line2d_21">
      <path clip-path="url(#p2decd0ac2c)" d="M 144 165.386926 
L 1036.8 165.386926 
" style="fill:none;stroke:#ffffff;stroke-linecap:round;stroke-width:0.8;"/>
     </g>
     <g id="line2d_22"/>
     <g id="text_11">
      <!-- 6 -->
      <defs>
       <path d="M 51.21875 22.515625 
Q 51.21875 17.328125 49.78125 13 
Q 48.34375 8.6875 45.53125 5.578125 
Q 42.71875 2.484375 38.5625 0.75 
Q 34.421875 -0.984375 29 -0.984375 
Q 23 -0.984375 18.5 1.3125 
Q 14.015625 3.609375 11.03125 7.921875 
Q 8.0625 12.25 6.5625 18.53125 
Q 5.078125 24.8125 5.078125 32.8125 
Q 5.078125 42 6.765625 48.921875 
Q 8.453125 55.859375 11.625 60.5 
Q 14.796875 65.140625 19.359375 67.484375 
Q 23.921875 69.828125 29.6875 69.828125 
Q 33.203125 69.828125 36.28125 69.09375 
Q 39.359375 68.359375 41.875 66.71875 
Q 44.390625 65.09375 46.28125 62.40625 
Q 48.1875 59.71875 49.3125 55.8125 
L 40.921875 54.296875 
Q 39.546875 58.734375 36.546875 60.71875 
Q 33.546875 62.703125 29.59375 62.703125 
Q 25.984375 62.703125 23.046875 60.984375 
Q 20.125 59.28125 18.0625 55.875 
Q 16.015625 52.484375 14.90625 47.359375 
Q 13.8125 42.234375 13.8125 35.40625 
Q 16.21875 39.84375 20.5625 42.15625 
Q 24.90625 44.484375 30.515625 44.484375 
Q 35.203125 44.484375 39.015625 42.96875 
Q 42.828125 41.453125 45.53125 38.59375 
Q 48.25 35.75 49.734375 31.671875 
Q 51.21875 27.59375 51.21875 22.515625 
M 42.28125 22.125 
Q 42.28125 25.6875 41.40625 28.5625 
Q 40.53125 31.453125 38.765625 33.46875 
Q 37.015625 35.5 34.421875 36.59375 
Q 31.84375 37.703125 28.421875 37.703125 
Q 26.03125 37.703125 23.578125 36.984375 
Q 21.140625 36.28125 19.15625 34.6875 
Q 17.1875 33.109375 15.9375 30.515625 
Q 14.703125 27.9375 14.703125 24.21875 
Q 14.703125 20.40625 15.671875 17.109375 
Q 16.65625 13.8125 18.484375 11.375 
Q 20.3125 8.9375 22.890625 7.515625 
Q 25.484375 6.109375 28.71875 6.109375 
Q 31.890625 6.109375 34.40625 7.203125 
Q 36.921875 8.296875 38.671875 10.375 
Q 40.4375 12.453125 41.359375 15.421875 
Q 42.28125 18.40625 42.28125 22.125 
" id="LiberationSans-36"/>
      </defs>
      <g style="fill:#262626;" transform="translate(133.95125 168.285676)scale(0.08 -0.08)">
       <use xlink:href="#LiberationSans-36"/>
      </g>
     </g>
    </g>
    <g id="ytick_5">
     <g id="line2d_23">
      <path clip-path="url(#p2decd0ac2c)" d="M 144 119.08744 
L 1036.8 119.08744 
" style="fill:none;stroke:#ffffff;stroke-linecap:round;stroke-width:0.8;"/>
     </g>
     <g id="line2d_24"/>
     <g id="text_12">
      <!-- 8 -->
      <defs>
       <path d="M 51.265625 19.1875 
Q 51.265625 14.796875 49.875 11.109375 
Q 48.484375 7.421875 45.625 4.734375 
Q 42.78125 2.046875 38.328125 0.53125 
Q 33.890625 -0.984375 27.828125 -0.984375 
Q 21.78125 -0.984375 17.359375 0.53125 
Q 12.9375 2.046875 10.03125 4.703125 
Q 7.125 7.375 5.734375 11.0625 
Q 4.34375 14.75 4.34375 19.09375 
Q 4.34375 22.859375 5.484375 25.78125 
Q 6.640625 28.71875 8.5625 30.828125 
Q 10.5 32.953125 12.96875 34.25 
Q 15.4375 35.546875 18.0625 35.984375 
L 18.0625 36.1875 
Q 15.1875 36.859375 12.90625 38.375 
Q 10.640625 39.890625 9.09375 42.015625 
Q 7.5625 44.140625 6.75 46.71875 
Q 5.953125 49.3125 5.953125 52.203125 
Q 5.953125 55.8125 7.34375 59 
Q 8.734375 62.203125 11.46875 64.625 
Q 14.203125 67.046875 18.25 68.4375 
Q 22.3125 69.828125 27.640625 69.828125 
Q 33.25 69.828125 37.375 68.40625 
Q 41.5 67 44.203125 64.578125 
Q 46.921875 62.15625 48.234375 58.9375 
Q 49.5625 55.71875 49.5625 52.09375 
Q 49.5625 49.265625 48.75 46.671875 
Q 47.953125 44.09375 46.40625 41.96875 
Q 44.875 39.84375 42.59375 38.34375 
Q 40.328125 36.859375 37.359375 36.28125 
L 37.359375 36.078125 
Q 40.328125 35.59375 42.859375 34.296875 
Q 45.40625 33.015625 47.265625 30.890625 
Q 49.125 28.765625 50.1875 25.828125 
Q 51.265625 22.90625 51.265625 19.1875 
M 40.4375 51.609375 
Q 40.4375 54.203125 39.765625 56.34375 
Q 39.109375 58.5 37.59375 60.03125 
Q 36.078125 61.578125 33.640625 62.421875 
Q 31.203125 63.28125 27.640625 63.28125 
Q 24.171875 63.28125 21.78125 62.421875 
Q 19.390625 61.578125 17.84375 60.03125 
Q 16.3125 58.5 15.625 56.34375 
Q 14.9375 54.203125 14.9375 51.609375 
Q 14.9375 49.5625 15.46875 47.40625 
Q 16.015625 45.265625 17.421875 43.5 
Q 18.84375 41.75 21.328125 40.625 
Q 23.828125 39.5 27.734375 39.5 
Q 31.890625 39.5 34.40625 40.625 
Q 36.921875 41.75 38.25 43.5 
Q 39.59375 45.265625 40.015625 47.40625 
Q 40.4375 49.5625 40.4375 51.609375 
M 42.140625 20.015625 
Q 42.140625 22.515625 41.453125 24.828125 
Q 40.765625 27.15625 39.109375 28.9375 
Q 37.453125 30.71875 34.640625 31.8125 
Q 31.84375 32.90625 27.640625 32.90625 
Q 23.78125 32.90625 21.0625 31.8125 
Q 18.359375 30.71875 16.671875 28.90625 
Q 14.984375 27.09375 14.203125 24.71875 
Q 13.421875 22.359375 13.421875 19.828125 
Q 13.421875 16.65625 14.203125 14.03125 
Q 14.984375 11.421875 16.6875 9.546875 
Q 18.40625 7.671875 21.1875 6.640625 
Q 23.96875 5.609375 27.9375 5.609375 
Q 31.9375 5.609375 34.671875 6.640625 
Q 37.40625 7.671875 39.0625 9.546875 
Q 40.71875 11.421875 41.421875 14.078125 
Q 42.140625 16.75 42.140625 20.015625 
" id="LiberationSans-38"/>
      </defs>
      <g style="fill:#262626;" transform="translate(133.95125 121.98619)scale(0.08 -0.08)">
       <use xlink:href="#LiberationSans-38"/>
      </g>
     </g>
    </g>
    <g id="ytick_6">
     <g id="line2d_25">
      <path clip-path="url(#p2decd0ac2c)" d="M 144 72.787954 
L 1036.8 72.787954 
" style="fill:none;stroke:#ffffff;stroke-linecap:round;stroke-width:0.8;"/>
     </g>
     <g id="line2d_26"/>
     <g id="text_13">
      <!-- 10 -->
      <g style="fill:#262626;" transform="translate(129.5025 75.686704)scale(0.08 -0.08)">
       <use xlink:href="#LiberationSans-31"/>
       <use x="55.615234" xlink:href="#LiberationSans-30"/>
      </g>
     </g>
    </g>
   </g>
   <g id="line2d_27">
    <path clip-path="url(#p2decd0ac2c)" d="M 184.581818 302.464627 
L 186.305038 254.31445 
L 187.453851 222.227709 
L 188.602664 197.002543 
L 189.17707 188.027574 
L 189.751477 181.386992 
L 190.325883 176.590743 
L 192.049102 165.52372 
L 192.623509 160.412792 
L 193.197915 153.836677 
L 194.346728 136.806707 
L 195.495541 118.448217 
L 196.069948 110.745882 
L 196.644354 104.957664 
L 197.218761 101.466649 
L 197.793167 100.307481 
L 198.367574 101.157802 
L 198.94198 103.395236 
L 200.090793 108.748621 
L 200.6652 110.273426 
L 201.239606 110.290091 
L 201.814013 108.63814 
L 202.388419 105.516616 
L 204.111639 93.481661 
L 204.686045 91.157147 
L 205.260452 90.716108 
L 205.834858 92.372318 
L 206.409265 95.979459 
L 207.558078 106.860124 
L 208.706891 117.273234 
L 209.281297 120.412969 
L 209.855704 121.612073 
L 210.43011 120.877689 
L 211.004517 118.567468 
L 212.727736 109.221991 
L 213.302142 107.847911 
L 213.876549 108.213523 
L 214.450955 110.375926 
L 215.025362 114.036253 
L 216.748581 127.164967 
L 217.322988 129.598718 
L 217.897394 130.054607 
L 218.471801 128.367778 
L 219.046207 124.735797 
L 220.19502 113.96237 
L 221.343833 103.846116 
L 221.91824 100.813824 
L 222.492646 99.594219 
L 223.067053 100.098523 
L 223.641459 101.898605 
L 224.790272 106.511448 
L 225.364679 107.716345 
L 225.939085 107.302772 
L 226.513492 104.939882 
L 227.087898 100.64998 
L 228.236711 88.073335 
L 229.385524 75.263207 
L 229.959931 70.747396 
L 230.534337 68.179103 
L 231.108743 67.666235 
L 231.68315 68.957198 
L 232.831963 74.497671 
L 233.406369 77.152851 
L 233.980776 78.721132 
L 234.555182 78.698702 
L 235.129589 76.90664 
L 235.703995 73.525272 
L 237.427215 59.958206 
L 238.001621 56.943426 
L 238.576028 55.8 
L 239.150434 56.804609 
L 239.724841 59.874282 
L 240.299247 64.580834 
L 242.022467 81.012982 
L 242.596873 84.661057 
L 243.17128 86.543126 
L 243.745686 86.626619 
L 244.320093 85.23193 
L 245.468906 80.630647 
L 246.043312 79.027085 
L 246.617719 78.850285 
L 247.192125 80.534995 
L 247.766532 84.177252 
L 248.340938 89.513454 
L 250.064157 108.991978 
L 250.638564 113.935222 
L 251.21297 117.026654 
L 251.787377 118.041471 
L 252.361783 117.116368 
L 252.93619 114.72181 
L 254.085003 108.496351 
L 254.659409 106.274881 
L 255.233816 105.502939 
L 255.808222 106.475085 
L 256.382629 109.130754 
L 257.531442 117.600045 
L 258.105848 121.914355 
L 258.680255 125.189179 
L 259.254661 126.761871 
L 259.829068 126.247922 
L 260.403474 123.612567 
L 260.977881 119.178294 
L 263.275507 97.796245 
L 263.849913 95.20623 
L 264.42432 94.467562 
L 264.998726 95.373268 
L 266.721946 101.748471 
L 267.296352 102.504465 
L 267.870759 101.534888 
L 268.445165 98.62685 
L 269.019572 93.927376 
L 271.317197 69.818412 
L 271.891604 66.332825 
L 272.46601 64.9111 
L 273.040417 65.533959 
L 273.614823 67.831834 
L 275.338043 77.635858 
L 275.912449 79.303992 
L 276.486856 79.295144 
L 277.061262 77.548698 
L 277.635669 74.359614 
L 279.358888 62.915433 
L 279.933295 61.103172 
L 280.507701 61.279061 
L 281.082108 63.594675 
L 281.656514 67.839482 
L 283.95414 90.821206 
L 284.528547 94.257908 
L 285.102953 95.830781 
L 285.67736 95.628941 
L 286.251766 94.080708 
L 287.400579 89.815361 
L 287.974986 88.700229 
L 288.549392 89.141338 
L 289.123798 91.463886 
L 289.698205 95.640136 
L 290.847018 107.754487 
L 291.995831 119.787277 
L 292.570237 123.805878 
L 293.144644 125.814513 
L 293.71905 125.714477 
L 294.293457 123.766831 
L 295.44227 116.81539 
L 296.016676 113.418858 
L 296.591083 111.09091 
L 297.165489 110.337678 
L 297.739896 111.33968 
L 298.314302 113.918333 
L 300.037522 125.037978 
L 300.611928 127.245874 
L 301.186335 127.602775 
L 301.760741 125.843415 
L 302.335148 122.062205 
L 303.483961 110.454476 
L 304.632774 98.687839 
L 305.20718 94.657707 
L 305.781587 92.465833 
L 306.355993 92.142916 
L 306.9304 93.366552 
L 308.653619 99.462378 
L 309.228025 99.742778 
L 309.802432 98.237411 
L 310.376838 94.854345 
L 310.951245 89.860475 
L 312.674464 71.911317 
L 313.248871 67.633498 
L 313.823277 65.273075 
L 314.397684 65.044868 
L 314.97209 66.801689 
L 315.546497 70.063047 
L 316.69531 78.094226 
L 317.269716 81.242726 
L 317.844123 82.952871 
L 318.418529 82.927894 
L 318.992936 81.226394 
L 319.567342 78.251199 
L 320.716155 71.313555 
L 321.290562 68.978367 
L 321.864968 68.321813 
L 322.439375 69.717401 
L 323.013781 73.188632 
L 323.588188 78.402483 
L 325.311407 97.419933 
L 325.885814 102.199353 
L 326.46022 105.204089 
L 327.034627 106.28406 
L 327.609033 105.649071 
L 328.183439 103.826966 
L 329.332252 99.680542 
L 329.906659 98.924126 
L 330.481065 99.82146 
L 331.055472 102.582113 
L 331.629878 107.056226 
L 333.927504 129.490419 
L 334.501911 132.387462 
L 335.076317 133.170168 
L 335.650724 131.86879 
L 336.22513 128.863654 
L 337.94835 116.852752 
L 338.522756 114.440292 
L 339.097163 113.706001 
L 339.671569 114.712464 
L 340.245976 117.166962 
L 341.969195 126.482214 
L 342.543602 127.633202 
L 343.118008 126.836126 
L 343.692415 123.950177 
L 344.266821 119.196184 
L 346.564447 94.930819 
L 347.138854 91.374771 
L 347.71326 89.760395 
L 348.287666 89.994902 
L 348.862073 91.646419 
L 350.010886 96.321077 
L 350.585292 97.741408 
L 351.159699 97.674335 
L 351.734105 95.797045 
L 352.308512 92.139507 
L 353.457325 81.285643 
L 354.606138 70.793106 
L 355.180544 67.633254 
L 355.754951 66.529338 
L 356.329357 67.568724 
L 356.903764 70.47898 
L 359.20139 87.055718 
L 359.775796 88.767842 
L 360.350203 88.712303 
L 360.924609 87.065757 
L 362.647829 78.621494 
L 363.222235 77.244924 
L 363.796642 77.674759 
L 364.371048 80.166136 
L 364.945455 84.614722 
L 366.094268 97.330368 
L 367.24308 109.871095 
L 367.817487 114.161405 
L 368.391893 116.532587 
L 368.9663 116.958355 
L 369.540706 115.765717 
L 371.263926 109.364239 
L 371.838332 108.852654 
L 372.412739 110.060762 
L 372.987145 113.078935 
L 373.561552 117.639453 
L 375.284771 133.897379 
L 375.859178 137.499893 
L 376.433584 139.144542 
L 377.007991 138.628038 
L 377.582397 136.109392 
L 378.73121 127.274105 
L 379.880023 118.646696 
L 380.45443 116.219917 
L 381.028836 115.550309 
L 381.603243 116.580917 
L 382.177649 118.910975 
L 383.326462 124.650341 
L 383.900869 126.444161 
L 384.475275 126.608517 
L 385.049682 124.779235 
L 385.624088 120.942217 
L 386.772901 108.906758 
L 387.921714 96.065247 
L 388.49612 91.342259 
L 389.070527 88.477459 
L 389.644933 87.61587 
L 390.21934 88.542124 
L 390.793746 90.723225 
L 391.942559 95.776391 
L 392.516966 97.077234 
L 393.091372 96.785065 
L 393.665779 94.691134 
L 394.240185 90.945736 
L 396.537811 71.996578 
L 397.112218 70.080492 
L 397.686624 70.302111 
L 398.261031 72.619077 
L 398.835437 76.639425 
L 400.558657 91.601235 
L 401.133063 94.945619 
L 401.70747 96.580805 
L 402.281876 96.442816 
L 402.856283 94.822921 
L 404.579502 87.777087 
L 405.153909 87.285835 
L 405.728315 88.681303 
L 406.302721 92.09557 
L 406.877128 97.299722 
L 409.174754 122.491529 
L 409.74916 126.060455 
L 410.323567 127.60844 
L 410.897973 127.234688 
L 411.47238 125.37735 
L 412.621193 120.111108 
L 413.195599 118.311025 
L 413.770006 117.94388 
L 414.344412 119.332464 
L 414.918819 122.446816 
L 416.067632 132.056409 
L 417.216445 141.123832 
L 417.790851 143.523372 
L 418.365258 143.849816 
L 418.939664 142.028008 
L 419.514071 138.342374 
L 421.811697 118.920298 
L 422.386103 116.588507 
L 422.96051 116.065607 
L 423.534916 117.175813 
L 425.258135 124.284691 
L 425.832542 125.321928 
L 426.406948 124.616758 
L 426.981355 121.921963 
L 427.555761 117.349442 
L 428.704574 104.647198 
L 429.853387 92.481908 
L 430.427794 88.509912 
L 431.0022 86.536714 
L 431.576607 86.581446 
L 432.151013 88.309801 
L 433.874233 96.651393 
L 434.448639 97.908945 
L 435.023046 97.494074 
L 435.597452 95.3159 
L 436.171859 91.641057 
L 437.895078 78.278271 
L 438.469485 75.696921 
L 439.043891 75.084541 
L 439.618298 76.632275 
L 440.192704 80.168935 
L 441.341517 90.957495 
L 442.49033 101.376573 
L 443.064737 104.628075 
L 443.639143 106.073131 
L 444.21355 105.768365 
L 444.787956 104.113993 
L 445.936769 99.567772 
L 446.511175 98.28357 
L 447.085582 98.563101 
L 447.659988 100.763557 
L 448.234395 104.892122 
L 449.383208 117.250175 
L 450.532021 130.053588 
L 451.106427 134.627527 
L 451.680834 137.264368 
L 452.25524 137.826859 
L 452.829647 136.538567 
L 453.404053 133.940181 
L 454.552866 127.91079 
L 455.127273 126.05882 
L 455.701679 125.760582 
L 456.276086 127.225877 
L 456.850492 130.305669 
L 458.573712 143.330713 
L 459.148118 146.299492 
L 459.722525 147.44117 
L 460.296931 146.452498 
L 460.871338 143.388024 
L 461.445744 138.651181 
L 463.168964 121.812902 
L 463.74337 117.951128 
L 464.317776 115.855696 
L 464.892183 115.59043 
L 465.466589 116.863771 
L 467.189809 123.221448 
L 467.764215 123.611707 
L 468.338622 122.188389 
L 468.913028 118.825559 
L 469.487435 113.757547 
L 471.785061 89.994821 
L 472.359467 86.990665 
L 472.933874 86.076841 
L 473.50828 87.145173 
L 474.082687 89.748796 
L 475.2315 96.633844 
L 475.805906 99.29627 
L 476.380313 100.557034 
L 476.954719 100.091711 
L 477.529126 97.928781 
L 478.677939 90.296119 
L 479.252345 86.29657 
L 479.826752 83.268848 
L 480.401158 81.891725 
L 480.975565 82.574389 
L 481.549971 85.379969 
L 482.124378 90.012483 
L 484.422003 112.684919 
L 484.99641 115.673752 
L 485.570816 116.79017 
L 486.145223 116.211033 
L 486.719629 114.437655 
L 487.868442 110.321261 
L 488.442849 109.558978 
L 489.017255 110.466502 
L 489.591662 113.285793 
L 490.166068 117.900112 
L 492.463694 142.073356 
L 493.038101 145.67011 
L 493.612507 147.201418 
L 494.186914 146.657745 
L 494.76132 144.383004 
L 496.48454 134.196618 
L 497.058946 132.273341 
L 497.633353 132.001998 
L 498.207759 133.475199 
L 498.782166 136.42841 
L 500.505385 147.569035 
L 501.079792 149.414875 
L 501.654198 149.311196 
L 502.228605 147.07855 
L 502.803011 142.8996 
L 503.951824 130.993371 
L 505.100637 119.721397 
L 505.675043 116.149085 
L 506.24945 114.452928 
L 506.823856 114.574503 
L 507.398263 116.111883 
L 508.547076 120.620828 
L 509.121482 121.987522 
L 509.695889 121.862156 
L 510.270295 119.891808 
L 510.844702 116.073462 
L 511.993515 104.586765 
L 513.142328 92.984469 
L 513.716734 89.122921 
L 514.291141 87.26196 
L 514.865547 87.528762 
L 515.439954 89.689404 
L 516.588767 97.276958 
L 517.163173 101.103467 
L 517.73758 103.919447 
L 518.311986 105.193137 
L 518.886393 104.712713 
L 519.460799 102.625199 
L 521.184019 92.584249 
L 521.758425 90.590926 
L 522.332831 90.39951 
L 522.907238 92.302051 
L 523.481644 96.232772 
L 524.630457 108.249785 
L 525.77927 120.622417 
L 526.353677 125.002281 
L 526.928083 127.540869 
L 527.50249 128.176806 
L 528.076896 127.204348 
L 529.800116 121.344743 
L 530.374522 120.983246 
L 530.948929 122.362265 
L 531.523335 125.604336 
L 532.097742 130.472448 
L 533.820961 148.32028 
L 534.395368 152.659656 
L 534.969774 155.102051 
L 535.544181 155.405103 
L 536.118587 153.687936 
L 536.692994 150.407917 
L 538.416213 138.748574 
L 538.99062 136.774325 
L 539.565026 136.526411 
L 540.139433 137.978304 
L 540.713839 140.755755 
L 541.862652 147.522267 
L 542.437058 149.887682 
L 543.011465 150.633492 
L 543.585871 149.361041 
L 544.160278 146.018025 
L 544.734684 140.910537 
L 546.457904 121.93861 
L 547.03231 117.095095 
L 547.606717 114.020465 
L 548.181123 112.894836 
L 548.75553 113.537744 
L 549.329936 115.444602 
L 550.478749 120.029808 
L 551.053156 121.127587 
L 551.627562 120.625279 
L 552.201969 118.28347 
L 552.776375 114.221063 
L 555.074001 92.983124 
L 555.648408 90.27659 
L 556.222814 89.679834 
L 556.797221 91.19101 
L 557.371627 94.455021 
L 559.094847 107.648384 
L 559.669253 110.566291 
L 560.24366 111.822591 
L 560.818066 111.322736 
L 561.392472 109.329193 
L 563.115692 100.946671 
L 563.690098 99.95807 
L 564.264505 100.872904 
L 564.838911 103.860369 
L 565.413318 108.727988 
L 567.710944 133.866902 
L 568.28535 137.720082 
L 568.859757 139.617374 
L 569.434163 139.621627 
L 570.00857 138.139159 
L 571.157383 133.540008 
L 571.731789 132.030855 
L 572.306196 131.948204 
L 572.880602 133.643358 
L 573.455009 137.117764 
L 574.603822 147.709735 
L 575.752635 158.161772 
L 576.327041 161.36944 
L 576.901448 162.537521 
L 577.475854 161.550489 
L 578.050261 158.653967 
L 579.199074 149.589186 
L 579.77348 145.037436 
L 580.347887 141.512311 
L 580.922293 139.548626 
L 581.496699 139.360154 
L 582.071106 140.801574 
L 583.794325 149.071673 
L 584.368732 150.548848 
L 584.943138 150.27453 
L 585.517545 147.9662 
L 586.091951 143.698999 
L 587.240764 131.247776 
L 588.389577 118.787289 
L 588.963984 114.493703 
L 589.53839 112.123642 
L 590.112797 111.733329 
L 590.687203 113.023085 
L 592.410423 120.223301 
L 592.984829 121.154717 
L 593.559236 120.407233 
L 594.133642 117.859222 
L 594.708049 113.747986 
L 596.431268 98.524361 
L 597.005675 95.157864 
L 597.580081 93.721749 
L 598.154488 94.446627 
L 598.728894 97.20132 
L 599.877707 106.673732 
L 601.02652 116.185457 
L 601.600926 119.111514 
L 602.175333 120.281018 
L 602.749739 119.719121 
L 603.324146 117.798421 
L 604.472959 112.63314 
L 605.047365 111.00172 
L 605.621772 110.935745 
L 606.196178 112.825202 
L 606.770585 116.713627 
L 607.919398 128.928569 
L 609.068211 142.131588 
L 609.642617 147.088225 
L 610.217024 150.192206 
L 610.79143 151.269185 
L 611.365837 150.505977 
L 611.940243 148.41316 
L 613.089056 143.277003 
L 613.663463 141.819244 
L 614.237869 141.90622 
L 614.812276 143.777157 
L 615.386682 147.313225 
L 617.684308 165.947171 
L 618.258715 167.911796 
L 618.833121 167.751048 
L 619.407528 165.479011 
L 619.981934 161.462564 
L 621.705153 146.156147 
L 622.27956 142.602225 
L 622.853966 140.749056 
L 623.428373 140.692271 
L 624.002779 142.1704 
L 625.725999 149.279042 
L 626.300405 149.950021 
L 626.874812 148.782812 
L 627.449218 145.616253 
L 628.023625 140.650263 
L 630.321251 116.006121 
L 630.895657 112.496011 
L 631.470064 111.02004 
L 632.04447 111.508196 
L 632.618877 113.547082 
L 633.76769 119.427959 
L 634.342096 121.654781 
L 634.916503 122.503814 
L 635.490909 121.623168 
L 636.065316 119.010906 
L 637.214129 110.279299 
L 638.362942 101.83828 
L 638.937348 99.672394 
L 639.511754 99.555561 
L 640.086161 101.591062 
L 640.660567 105.521232 
L 642.958193 126.463057 
L 643.5326 129.265942 
L 644.107006 130.245233 
L 644.681413 129.545866 
L 645.255819 127.643119 
L 646.404632 123.194849 
L 646.979039 122.242971 
L 647.553445 122.975607 
L 648.127852 125.668109 
L 648.702258 130.238468 
L 649.851071 143.03263 
L 650.999884 155.475029 
L 651.574291 159.630789 
L 652.148697 161.785399 
L 652.723104 161.89049 
L 653.29751 160.25379 
L 655.02073 151.708593 
L 655.595136 150.241672 
L 656.169543 150.41347 
L 656.743949 152.346568 
L 657.318356 155.805064 
L 659.041575 168.880775 
L 659.615981 171.49134 
L 660.190388 172.168399 
L 660.764794 170.693419 
L 661.339201 167.209707 
L 662.488014 156.385408 
L 663.636827 145.714003 
L 664.211233 142.290206 
L 664.78564 140.679086 
L 665.360046 140.855307 
L 665.934453 142.44618 
L 667.083266 147.124069 
L 667.657672 148.604102 
L 668.232079 148.58687 
L 668.806485 146.688567 
L 669.380892 142.871828 
L 670.529705 131.060855 
L 671.678518 118.618745 
L 672.252924 114.169764 
L 672.827331 111.649696 
L 673.401737 111.224476 
L 673.976144 112.698395 
L 674.55055 115.552452 
L 675.699363 122.335678 
L 676.27377 124.670103 
L 676.848176 125.491732 
L 677.422583 124.559875 
L 677.996989 121.991827 
L 680.294615 107.441489 
L 680.869021 106.513455 
L 681.443428 107.695794 
L 682.017834 110.962381 
L 682.592241 115.935008 
L 684.31546 133.794374 
L 684.889867 138.077757 
L 685.464273 140.59714 
L 686.03868 141.257589 
L 686.613086 140.321525 
L 688.336306 134.466198 
L 688.910712 134.080367 
L 689.485119 135.45889 
L 690.059525 138.757561 
L 690.633932 143.771748 
L 692.931558 167.743808 
L 693.505964 170.886015 
L 694.080371 171.928862 
L 694.654777 170.951958 
L 695.229184 168.378079 
L 696.952403 158.462414 
L 697.526809 156.95919 
L 698.101216 157.164238 
L 698.675622 159.081203 
L 699.250029 162.362581 
L 700.398842 170.310099 
L 700.973248 173.345855 
L 701.547655 174.786918 
L 702.122061 174.199872 
L 702.696468 171.493214 
L 703.270874 166.935931 
L 705.5685 144.08946 
L 706.142907 140.980991 
L 706.717313 139.764686 
L 707.29172 140.293855 
L 707.866126 142.091774 
L 709.014939 146.526399 
L 709.589346 147.573234 
L 710.163752 147.008195 
L 710.738159 144.560382 
L 711.312565 140.315923 
L 712.461378 128.426481 
L 713.610191 117.217747 
L 714.184598 113.789015 
L 714.759004 112.423371 
L 715.333411 113.159033 
L 715.907817 115.678078 
L 717.631036 127.034954 
L 718.205443 129.47449 
L 718.779849 130.28746 
L 719.354256 129.349362 
L 719.928662 126.893964 
L 721.651882 116.834924 
L 722.226288 115.209015 
L 722.800695 115.489886 
L 723.375101 117.884715 
L 723.949508 122.23905 
L 725.098321 134.619095 
L 726.247134 146.558911 
L 726.82154 150.503854 
L 727.395947 152.562197 
L 727.970353 152.761763 
L 728.54476 151.47774 
L 729.693573 147.212156 
L 730.267979 145.836639 
L 730.842386 145.887576 
L 731.416792 147.745327 
L 731.991199 151.443828 
L 733.140012 162.777175 
L 734.288825 174.428325 
L 734.863231 178.377278 
L 735.437638 180.33928 
L 736.012044 180.15895 
L 736.58645 178.042856 
L 737.735263 170.344357 
L 738.30967 166.353526 
L 738.884076 163.315928 
L 739.458483 161.788274 
L 740.032889 162.013415 
L 740.607296 163.876059 
L 741.756109 170.455695 
L 742.330515 173.644077 
L 742.904922 175.696882 
L 743.479328 176.00091 
L 744.053735 174.237593 
L 744.628141 170.443869 
L 745.776954 158.599864 
L 746.925767 146.208212 
L 747.500174 141.770952 
L 748.07458 139.176172 
L 748.648987 138.515665 
L 749.223393 139.523527 
L 750.946613 146.002342 
L 751.521019 146.731378 
L 752.095426 145.766734 
L 752.669832 142.955266 
L 753.244239 138.503644 
L 754.967458 121.626249 
L 755.541865 117.5101 
L 756.116271 115.266472 
L 756.690677 115.164867 
L 757.265084 117.114308 
L 757.83949 120.681084 
L 759.56271 133.610809 
L 760.137116 136.111428 
L 760.711523 136.894867 
L 761.285929 135.95558 
L 761.860336 133.638809 
L 763.009149 127.565829 
L 763.583555 125.427732 
L 764.157962 124.846703 
L 764.732368 126.246147 
L 765.306775 129.707241 
L 765.881181 134.951357 
L 768.178807 159.745872 
L 768.753214 163.133305 
L 769.32762 164.549989 
L 769.902027 164.146998 
L 770.476433 162.405182 
L 771.625246 157.883462 
L 772.199653 156.69509 
L 772.774059 157.052076 
L 773.348466 159.223523 
L 773.922872 163.121779 
L 776.220498 184.162732 
L 776.794904 186.936325 
L 777.369311 187.609341 
L 777.943717 186.155272 
L 778.518124 182.903565 
L 780.241343 169.357898 
L 780.81575 166.213401 
L 781.390156 164.713777 
L 781.964563 164.985356 
L 782.538969 166.796192 
L 784.262189 175.087796 
L 784.836595 176.199964 
L 785.411002 175.457076 
L 785.985408 172.661627 
L 786.559815 167.977339 
L 788.857441 143.166698 
L 789.431847 139.314504 
L 790.006254 137.429857 
L 790.58066 137.479751 
L 791.155067 139.083772 
L 792.30388 144.184672 
L 792.878286 146.07105 
L 793.452693 146.592636 
L 794.027099 145.369945 
L 794.601506 142.369984 
L 795.750318 132.622816 
L 796.899131 122.787452 
L 797.473538 119.814791 
L 798.047944 118.860884 
L 798.622351 120.069229 
L 799.196757 123.221308 
L 800.34557 132.973207 
L 800.919977 137.964926 
L 801.494383 141.978862 
L 802.06879 144.45526 
L 802.643196 145.149472 
L 803.217603 144.175382 
L 803.792009 141.982586 
L 804.940822 136.862418 
L 805.515229 135.541476 
L 806.089635 135.913837 
L 806.664042 138.289188 
L 807.238448 142.621841 
L 808.387261 155.295816 
L 809.536074 168.162464 
L 810.110481 172.705186 
L 810.684887 175.322807 
L 811.259294 175.929419 
L 811.8337 174.797151 
L 813.55692 167.572039 
L 814.131326 166.479251 
L 814.705732 167.023836 
L 815.280139 169.358638 
L 815.854545 173.277185 
L 817.577765 188.24341 
L 818.152171 191.6389 
L 818.726578 193.135975 
L 819.300984 192.477021 
L 819.875391 189.765218 
L 820.449797 185.445804 
L 822.173017 170.405375 
L 822.747423 167.268798 
L 823.32183 165.887602 
L 823.896236 166.268372 
L 824.470643 168.067046 
L 825.619456 173.235186 
L 826.193862 174.995617 
L 826.768269 175.257583 
L 827.342675 173.605625 
L 827.917082 169.966654 
L 828.491488 164.626562 
L 830.214708 145.226473 
L 830.789114 140.338835 
L 831.363521 137.295481 
L 831.937927 136.299684 
L 832.512334 137.193261 
L 833.08674 139.488549 
L 834.235553 145.284559 
L 834.809959 147.187117 
L 835.384366 147.593726 
L 835.958772 146.234884 
L 836.533179 143.19771 
L 837.681992 134.069027 
L 838.256398 129.501553 
L 838.830805 126.024767 
L 839.405211 124.289791 
L 839.979618 124.66317 
L 840.554024 127.159122 
L 841.128431 131.436354 
L 842.85165 147.866336 
L 843.426057 151.888062 
L 844.000463 154.218137 
L 844.57487 154.729521 
L 845.149276 153.653668 
L 846.872496 147.26085 
L 847.446902 146.665891 
L 848.021309 147.857688 
L 848.595715 151.026447 
L 849.170122 156.001682 
L 851.467748 181.083358 
L 852.042154 184.78568 
L 852.616561 186.44415 
L 853.190967 186.099652 
L 853.765373 184.140448 
L 855.488593 175.785957 
L 856.062999 174.720671 
L 856.637406 175.358529 
L 857.211812 177.733442 
L 857.786219 181.525236 
L 859.509438 194.471269 
L 860.083845 196.678599 
L 860.658251 196.865539 
L 861.232658 194.900789 
L 861.807064 191.01487 
L 864.10469 169.732718 
L 864.679097 166.754353 
L 865.253503 165.613251 
L 865.82791 166.195373 
L 866.402316 168.051281 
L 867.551129 172.669399 
L 868.125536 173.832362 
L 868.699942 173.371251 
L 869.274349 170.982758 
L 869.848755 166.718721 
L 870.997568 154.445023 
L 872.146381 142.335406 
L 872.720787 138.296978 
L 873.295194 136.258467 
L 873.8696 136.297268 
L 874.444007 138.132489 
L 876.167226 147.738163 
L 876.741633 149.698524 
L 877.316039 150.054178 
L 877.890446 148.650934 
L 878.464852 145.693616 
L 880.188072 133.751193 
L 880.762478 131.387308 
L 881.336885 130.917047 
L 881.911291 132.586095 
L 882.485698 136.279279 
L 883.634511 147.654063 
L 884.783324 159.086599 
L 885.35773 162.937557 
L 885.932137 164.970794 
L 886.506543 165.180474 
L 887.08095 163.911431 
L 888.229763 159.618584 
L 888.804169 158.199361 
L 889.378576 158.208834 
L 889.952982 160.057107 
L 890.527389 163.811848 
L 891.676202 175.571264 
L 892.825014 188.149582 
L 893.399421 192.726103 
L 893.973827 195.385552 
L 894.548234 195.933667 
L 895.12264 194.538171 
L 895.697047 191.695824 
L 896.84586 184.699953 
L 897.420266 182.154988 
L 897.994673 181.081806 
L 898.569079 181.75172 
L 899.143486 184.079356 
L 900.292299 191.738956 
L 900.866705 195.557246 
L 901.441112 198.285554 
L 902.015518 199.283035 
L 902.589925 198.194641 
L 903.164331 195.017959 
L 903.738738 190.105392 
L 905.461957 172.124881 
L 906.036364 167.720149 
L 906.61077 165.075775 
L 907.185177 164.317519 
L 907.759583 165.212275 
L 909.482803 171.451424 
L 910.057209 172.130385 
L 910.631616 171.096271 
L 911.206022 168.163452 
L 911.780428 163.506426 
L 914.078054 140.534433 
L 914.652461 137.549843 
L 915.226867 136.669459 
L 915.801274 137.842228 
L 916.37568 140.669908 
L 918.0989 151.790627 
L 918.673306 153.813748 
L 919.247713 154.146636 
L 919.822119 152.75351 
L 920.396526 149.952223 
L 921.545339 142.756766 
L 922.119745 139.984505 
L 922.694152 138.747148 
L 923.268558 139.501863 
L 923.842965 142.368499 
L 924.417371 147.105522 
L 926.714997 171.12709 
L 927.289404 174.606333 
L 927.86381 176.17543 
L 928.438217 175.95088 
L 929.012623 174.384377 
L 930.161436 170.144225 
L 930.735843 169.067885 
L 931.310249 169.543777 
L 931.884655 171.871563 
L 932.459062 175.996005 
L 933.607875 187.746982 
L 934.756688 199.020797 
L 935.331094 202.538211 
L 935.905501 203.999104 
L 936.479907 203.336725 
L 937.054314 200.842678 
L 939.35194 186.460068 
L 939.926346 185.382008 
L 940.500753 186.061209 
L 941.075159 188.294956 
L 942.798379 198.108436 
L 943.372785 199.798767 
L 943.947192 199.629096 
L 944.521598 197.364669 
L 945.096005 193.131411 
L 946.244818 180.878706 
L 947.393631 168.875297 
L 947.968037 164.858206 
L 948.542444 162.736142 
L 949.11685 162.511747 
L 949.691257 163.836876 
L 951.414476 170.123158 
L 951.988882 170.441346 
L 952.563289 168.992417 
L 953.137695 165.711402 
L 953.712102 160.890575 
L 955.435321 144.019972 
L 956.009728 140.274646 
L 956.584134 138.498339 
L 957.158541 138.874348 
L 957.732947 141.223656 
L 958.88176 149.578265 
L 959.456167 154.002812 
L 960.030573 157.530631 
L 960.60498 159.580784 
L 961.179386 159.879732 
L 961.753793 158.510926 
L 962.328199 155.898417 
L 963.477012 149.817018 
L 964.051419 147.966805 
L 964.625825 147.808441 
L 965.200232 149.68672 
L 965.774638 153.593722 
L 966.923451 165.756492 
L 968.072264 178.654903 
L 968.646671 183.39487 
L 969.221077 186.29321 
L 969.795483 187.228007 
L 970.36989 186.436646 
L 970.944296 184.468898 
L 972.093109 180.100744 
L 972.667516 179.257579 
L 973.241922 180.059952 
L 973.816329 182.691566 
L 974.390735 186.976505 
L 976.688361 207.785744 
L 977.262768 210.090903 
L 977.837174 210.255916 
L 978.411581 208.343548 
L 978.985987 204.763334 
L 980.709207 191.397514 
L 981.283613 188.65007 
L 981.85802 187.610275 
L 982.432426 188.315683 
L 983.006833 190.450432 
L 984.155646 196.390121 
L 984.730052 198.584359 
L 985.304459 199.28737 
L 985.878865 198.051409 
L 986.453272 194.766387 
L 987.027678 189.682953 
L 989.325304 165.108818 
L 989.89971 161.70527 
L 990.474117 160.291499 
L 991.048523 160.745845 
L 991.62293 162.611635 
L 992.771743 167.644309 
L 993.346149 169.210427 
L 993.920556 169.286735 
L 994.494962 167.57465 
L 995.069369 164.130323 
L 996.218182 153.930282 
L 996.218182 153.930282 
" style="fill:none;stroke:#4c72b0;stroke-linecap:round;stroke-width:1.4;"/>
   </g>
   <g id="line2d_28">
    <path clip-path="url(#p2decd0ac2c)" d="M 184.581818 304.978514 
L 200.6652 303.730577 
L 217.897394 302.163768 
L 235.703995 300.320873 
L 255.233816 298.07465 
L 277.635669 295.26577 
L 305.781587 291.496247 
L 382.752056 281.05888 
L 405.153909 278.327157 
L 424.683729 276.16786 
L 442.49033 274.418636 
L 459.148118 272.998987 
L 475.2315 271.847277 
L 490.740475 270.955532 
L 506.24945 270.290235 
L 521.184019 269.871596 
L 536.118587 269.675868 
L 551.053156 269.705401 
L 565.987724 269.959879 
L 580.922293 270.436319 
L 596.431268 271.159973 
L 611.940243 272.107714 
L 628.023625 273.314311 
L 644.681413 274.786685 
L 662.488014 276.586864 
L 681.443428 278.726728 
L 702.696468 281.350454 
L 728.54476 284.773083 
L 784.836595 292.53989 
L 813.55692 296.338434 
L 835.958772 299.078805 
L 855.488593 301.245732 
L 873.295194 303.001976 
L 889.952982 304.428242 
L 906.036364 305.586379 
L 921.545339 306.484351 
L 937.054314 307.155897 
L 951.988882 307.580567 
L 966.923451 307.782335 
L 981.85802 307.758843 
L 996.218182 307.52409 
L 996.218182 307.52409 
" style="fill:none;stroke:#55a868;stroke-linecap:round;stroke-width:1.4;"/>
   </g>
   <g id="patch_3">
    <path d="M 144 320.4 
L 144 43.2 
" style="fill:none;"/>
   </g>
   <g id="patch_4">
    <path d="M 1036.8 320.4 
L 1036.8 43.2 
" style="fill:none;"/>
   </g>
   <g id="patch_5">
    <path d="M 144 320.4 
L 1036.8 320.4 
" style="fill:none;"/>
   </g>
   <g id="patch_6">
    <path d="M 144 43.2 
L 1036.8 43.2 
" style="fill:none;"/>
   </g>
   <g id="legend_1">
    <g id="line2d_29">
     <path d="M 1002.75125 53.3975 
L 1018.75125 53.3975 
" style="fill:none;stroke:#4c72b0;stroke-linecap:round;stroke-width:1.4;"/>
    </g>
    <g id="line2d_30"/>
    <g id="text_14">
     <!-- a -->
     <defs>
      <path d="M 20.21875 -0.984375 
Q 12.25 -0.984375 8.25 3.21875 
Q 4.25 7.421875 4.25 14.75 
Q 4.25 19.96875 6.21875 23.3125 
Q 8.203125 26.65625 11.390625 28.5625 
Q 14.59375 30.46875 18.6875 31.203125 
Q 22.796875 31.9375 27.046875 32.03125 
L 38.921875 32.234375 
L 38.921875 35.109375 
Q 38.921875 38.375 38.234375 40.671875 
Q 37.546875 42.96875 36.125 44.375 
Q 34.71875 45.796875 32.59375 46.453125 
Q 30.46875 47.125 27.59375 47.125 
Q 25.046875 47.125 23 46.75 
Q 20.953125 46.390625 19.4375 45.4375 
Q 17.921875 44.484375 16.984375 42.84375 
Q 16.0625 41.21875 15.765625 38.71875 
L 6.59375 39.546875 
Q 7.078125 42.671875 8.4375 45.28125 
Q 9.8125 47.90625 12.328125 49.796875 
Q 14.84375 51.703125 18.625 52.75 
Q 22.40625 53.8125 27.78125 53.8125 
Q 37.75 53.8125 42.765625 49.234375 
Q 47.796875 44.671875 47.796875 36.03125 
L 47.796875 13.28125 
Q 47.796875 9.375 48.828125 7.390625 
Q 49.859375 5.421875 52.734375 5.421875 
Q 53.46875 5.421875 54.203125 5.515625 
Q 54.9375 5.609375 55.609375 5.765625 
L 55.609375 0.296875 
Q 53.953125 -0.09375 52.3125 -0.28125 
Q 50.6875 -0.484375 48.828125 -0.484375 
Q 46.34375 -0.484375 44.5625 0.171875 
Q 42.78125 0.828125 41.65625 2.171875 
Q 40.53125 3.515625 39.9375 5.484375 
Q 39.359375 7.46875 39.203125 10.109375 
L 38.921875 10.109375 
Q 37.5 7.5625 35.8125 5.515625 
Q 34.125 3.46875 31.875 2.03125 
Q 29.640625 0.59375 26.78125 -0.1875 
Q 23.921875 -0.984375 20.21875 -0.984375 
M 22.21875 5.609375 
Q 26.421875 5.609375 29.5625 7.140625 
Q 32.71875 8.6875 34.78125 11.078125 
Q 36.859375 13.484375 37.890625 16.3125 
Q 38.921875 19.140625 38.921875 21.734375 
L 38.921875 26.078125 
L 29.296875 25.875 
Q 26.078125 25.828125 23.171875 25.40625 
Q 20.265625 25 18.0625 23.78125 
Q 15.875 22.5625 14.578125 20.359375 
Q 13.28125 18.171875 13.28125 14.59375 
Q 13.28125 10.296875 15.59375 7.953125 
Q 17.921875 5.609375 22.21875 5.609375 
" id="LiberationSans-61"/>
     </defs>
     <g style="fill:#262626;" transform="translate(1025.15125 56.1975)scale(0.08 -0.08)">
      <use xlink:href="#LiberationSans-61"/>
     </g>
    </g>
    <g id="line2d_31">
     <path d="M 1002.75125 64.855 
L 1018.75125 64.855 
" style="fill:none;stroke:#55a868;stroke-linecap:round;stroke-width:1.4;"/>
    </g>
    <g id="line2d_32"/>
    <g id="text_15">
     <!-- b -->
     <defs>
      <path d="M 51.421875 26.65625 
Q 51.421875 -0.984375 31.984375 -0.984375 
Q 25.984375 -0.984375 22 1.1875 
Q 18.015625 3.375 15.53125 8.203125 
L 15.4375 8.203125 
Q 15.4375 6.9375 15.359375 5.5625 
Q 15.28125 4.203125 15.203125 3.03125 
Q 15.140625 1.859375 15.0625 1.03125 
Q 14.984375 0.203125 14.9375 0 
L 6.453125 0 
Q 6.5 0.4375 6.546875 1.484375 
Q 6.59375 2.546875 6.640625 4 
Q 6.6875 5.46875 6.703125 7.21875 
Q 6.734375 8.984375 6.734375 10.890625 
L 6.734375 72.46875 
L 15.53125 72.46875 
L 15.53125 51.8125 
Q 15.53125 50.34375 15.5 49 
Q 15.484375 47.65625 15.4375 46.625 
Q 15.375 45.40625 15.328125 44.34375 
L 15.53125 44.34375 
Q 17.96875 49.421875 22 51.609375 
Q 26.03125 53.8125 31.984375 53.8125 
Q 42 53.8125 46.703125 47.0625 
Q 51.421875 40.328125 51.421875 26.65625 
M 42.1875 26.375 
Q 42.1875 31.84375 41.5 35.75 
Q 40.828125 39.65625 39.3125 42.15625 
Q 37.796875 44.671875 35.453125 45.84375 
Q 33.109375 47.015625 29.734375 47.015625 
Q 26.265625 47.015625 23.609375 45.890625 
Q 20.953125 44.78125 19.171875 42.28125 
Q 17.390625 39.796875 16.453125 35.734375 
Q 15.53125 31.6875 15.53125 25.828125 
Q 15.53125 20.171875 16.453125 16.3125 
Q 17.390625 12.453125 19.171875 10.03125 
Q 20.953125 7.625 23.578125 6.5625 
Q 26.21875 5.515625 29.640625 5.515625 
Q 32.859375 5.515625 35.203125 6.640625 
Q 37.546875 7.765625 39.109375 10.25 
Q 40.671875 12.75 41.421875 16.71875 
Q 42.1875 20.703125 42.1875 26.375 
" id="LiberationSans-62"/>
     </defs>
     <g style="fill:#262626;" transform="translate(1025.15125 67.655)scale(0.08 -0.08)">
      <use xlink:href="#LiberationSans-62"/>
     </g>
    </g>
   </g>
  </g>
 </g>
 <defs>
  <clipPath id="p2decd0ac2c">
   <rect height="277.2" width="892.8" x="144" y="43.2"/>
  </clipPath>
 </defs>
</svg>
