<?xml version="1.0" encoding="utf-8" standalone="no"?>
<!DOCTYPE svg PUBLIC "-//W3C//DTD SVG 1.1//EN"
  "http://www.w3.org/Graphics/SVG/1.1/DTD/svg11.dtd">
<!-- Created with matplotlib (http://matplotlib.org/) -->
<svg height="360pt" version="1.1" viewBox="0 0 1152 360" width="1152pt" xmlns="http://www.w3.org/2000/svg" xmlns:xlink="http://www.w3.org/1999/xlink">
 <defs>
  <style type="text/css">
*{stroke-linecap:butt;stroke-linejoin:round;}
  </style>
 </defs>
 <g id="figure_1">
  <g id="patch_1">
   <path d="M 0 360 
L 1152 360 
L 1152 0 
L 0 0 
z
" style="fill:#ffffff;"/>
  </g>
  <g id="axes_1">
   <g id="patch_2">
    <path d="M 144 320.4 
L 1036.8 320.4 
L 1036.8 43.2 
L 144 43.2 
z
" style="fill:#eaeaf2;"/>
   </g>
   <g id="matplotlib.axis_1">
    <g id="xtick_1">
     <g id="line2d_1">
      <path clip-path="url(#p3e7f5d7ca9)" d="M 184.581818 320.4 
L 184.581818 43.2 
" style="fill:none;stroke:#ffffff;stroke-linecap:round;stroke-width:0.8;"/>
     </g>
     <g id="line2d_2"/>
     <g id="text_1">
      <!-- 0 -->
      <defs>
       <path d="M 51.703125 34.421875 
Q 51.703125 24.515625 49.828125 17.75 
Q 47.953125 10.984375 44.703125 6.8125 
Q 41.453125 2.640625 37.0625 0.828125 
Q 32.671875 -0.984375 27.6875 -0.984375 
Q 22.65625 -0.984375 18.3125 0.828125 
Q 13.96875 2.640625 10.765625 6.78125 
Q 7.5625 10.9375 5.734375 17.703125 
Q 3.90625 24.46875 3.90625 34.421875 
Q 3.90625 44.828125 5.734375 51.640625 
Q 7.5625 58.453125 10.78125 62.5 
Q 14.015625 66.546875 18.40625 68.1875 
Q 22.796875 69.828125 27.984375 69.828125 
Q 32.90625 69.828125 37.21875 68.1875 
Q 41.546875 66.546875 44.765625 62.5 
Q 48 58.453125 49.84375 51.640625 
Q 51.703125 44.828125 51.703125 34.421875 
M 42.78125 34.421875 
Q 42.78125 42.625 41.796875 48.0625 
Q 40.828125 53.515625 38.921875 56.765625 
Q 37.015625 60.015625 34.25 61.359375 
Q 31.5 62.703125 27.984375 62.703125 
Q 24.265625 62.703125 21.4375 61.328125 
Q 18.609375 59.96875 16.671875 56.71875 
Q 14.75 53.46875 13.765625 48.015625 
Q 12.796875 42.578125 12.796875 34.421875 
Q 12.796875 26.515625 13.796875 21.09375 
Q 14.796875 15.671875 16.71875 12.375 
Q 18.65625 9.078125 21.4375 7.640625 
Q 24.21875 6.203125 27.78125 6.203125 
Q 31.25 6.203125 34.03125 7.640625 
Q 36.8125 9.078125 38.734375 12.375 
Q 40.671875 15.671875 41.71875 21.09375 
Q 42.78125 26.515625 42.78125 34.421875 
" id="LiberationSans-30"/>
      </defs>
      <g style="fill:#262626;" transform="translate(182.357443 331.7975)scale(0.08 -0.08)">
       <use xlink:href="#LiberationSans-30"/>
      </g>
     </g>
    </g>
    <g id="xtick_2">
     <g id="line2d_3">
      <path clip-path="url(#p3e7f5d7ca9)" d="M 299.625952 320.4 
L 299.625952 43.2 
" style="fill:none;stroke:#ffffff;stroke-linecap:round;stroke-width:0.8;"/>
     </g>
     <g id="line2d_4"/>
     <g id="text_2">
      <!-- 200 -->
      <defs>
       <path d="M 5.03125 0 
L 5.03125 6.203125 
Q 7.515625 11.921875 11.109375 16.28125 
Q 14.703125 20.65625 18.65625 24.1875 
Q 22.609375 27.734375 26.484375 30.765625 
Q 30.375 33.796875 33.5 36.8125 
Q 36.625 39.84375 38.546875 43.15625 
Q 40.484375 46.484375 40.484375 50.6875 
Q 40.484375 53.609375 39.59375 55.828125 
Q 38.71875 58.0625 37.0625 59.5625 
Q 35.40625 61.078125 33.078125 61.828125 
Q 30.765625 62.59375 27.9375 62.59375 
Q 25.296875 62.59375 22.96875 61.859375 
Q 20.65625 61.140625 18.84375 59.671875 
Q 17.046875 58.203125 15.890625 56.03125 
Q 14.75 53.859375 14.40625 50.984375 
L 5.421875 51.8125 
Q 5.859375 55.515625 7.46875 58.78125 
Q 9.078125 62.0625 11.90625 64.53125 
Q 14.75 67 18.71875 68.40625 
Q 22.703125 69.828125 27.9375 69.828125 
Q 33.0625 69.828125 37.0625 68.609375 
Q 41.0625 67.390625 43.8125 64.984375 
Q 46.578125 62.59375 48.046875 59.078125 
Q 49.515625 55.5625 49.515625 50.984375 
Q 49.515625 47.515625 48.265625 44.390625 
Q 47.015625 41.265625 44.9375 38.421875 
Q 42.875 35.59375 40.140625 32.953125 
Q 37.40625 30.328125 34.421875 27.8125 
Q 31.453125 25.296875 28.421875 22.828125 
Q 25.390625 20.359375 22.71875 17.859375 
Q 20.0625 15.375 17.96875 12.8125 
Q 15.875 10.25 14.703125 7.46875 
L 50.59375 7.46875 
L 50.59375 0 
z
" id="LiberationSans-32"/>
      </defs>
      <g style="fill:#262626;" transform="translate(292.952827 331.7975)scale(0.08 -0.08)">
       <use xlink:href="#LiberationSans-32"/>
       <use x="55.615234" xlink:href="#LiberationSans-30"/>
       <use x="111.230469" xlink:href="#LiberationSans-30"/>
      </g>
     </g>
    </g>
    <g id="xtick_3">
     <g id="line2d_5">
      <path clip-path="url(#p3e7f5d7ca9)" d="M 414.670086 320.4 
L 414.670086 43.2 
" style="fill:none;stroke:#ffffff;stroke-linecap:round;stroke-width:0.8;"/>
     </g>
     <g id="line2d_6"/>
     <g id="text_3">
      <!-- 400 -->
      <defs>
       <path d="M 43.015625 15.578125 
L 43.015625 0 
L 34.71875 0 
L 34.71875 15.578125 
L 2.296875 15.578125 
L 2.296875 22.40625 
L 33.796875 68.796875 
L 43.015625 68.796875 
L 43.015625 22.515625 
L 52.6875 22.515625 
L 52.6875 15.578125 
z
M 34.71875 58.890625 
Q 34.625 58.640625 34.234375 57.9375 
Q 33.84375 57.234375 33.34375 56.34375 
Q 32.859375 55.46875 32.34375 54.5625 
Q 31.84375 53.65625 31.453125 53.078125 
L 13.8125 27.09375 
Q 13.578125 26.703125 13.109375 26.0625 
Q 12.640625 25.4375 12.15625 24.78125 
Q 11.671875 24.125 11.171875 23.484375 
Q 10.6875 22.859375 10.40625 22.515625 
L 34.71875 22.515625 
z
" id="LiberationSans-34"/>
      </defs>
      <g style="fill:#262626;" transform="translate(407.996961 331.7975)scale(0.08 -0.08)">
       <use xlink:href="#LiberationSans-34"/>
       <use x="55.615234" xlink:href="#LiberationSans-30"/>
       <use x="111.230469" xlink:href="#LiberationSans-30"/>
      </g>
     </g>
    </g>
    <g id="xtick_4">
     <g id="line2d_7">
      <path clip-path="url(#p3e7f5d7ca9)" d="M 529.714219 320.4 
L 529.714219 43.2 
" style="fill:none;stroke:#ffffff;stroke-linecap:round;stroke-width:0.8;"/>
     </g>
     <g id="line2d_8"/>
     <g id="text_4">
      <!-- 600 -->
      <defs>
       <path d="M 51.21875 22.515625 
Q 51.21875 17.328125 49.78125 13 
Q 48.34375 8.6875 45.53125 5.578125 
Q 42.71875 2.484375 38.5625 0.75 
Q 34.421875 -0.984375 29 -0.984375 
Q 23 -0.984375 18.5 1.3125 
Q 14.015625 3.609375 11.03125 7.921875 
Q 8.0625 12.25 6.5625 18.53125 
Q 5.078125 24.8125 5.078125 32.8125 
Q 5.078125 42 6.765625 48.921875 
Q 8.453125 55.859375 11.625 60.5 
Q 14.796875 65.140625 19.359375 67.484375 
Q 23.921875 69.828125 29.6875 69.828125 
Q 33.203125 69.828125 36.28125 69.09375 
Q 39.359375 68.359375 41.875 66.71875 
Q 44.390625 65.09375 46.28125 62.40625 
Q 48.1875 59.71875 49.3125 55.8125 
L 40.921875 54.296875 
Q 39.546875 58.734375 36.546875 60.71875 
Q 33.546875 62.703125 29.59375 62.703125 
Q 25.984375 62.703125 23.046875 60.984375 
Q 20.125 59.28125 18.0625 55.875 
Q 16.015625 52.484375 14.90625 47.359375 
Q 13.8125 42.234375 13.8125 35.40625 
Q 16.21875 39.84375 20.5625 42.15625 
Q 24.90625 44.484375 30.515625 44.484375 
Q 35.203125 44.484375 39.015625 42.96875 
Q 42.828125 41.453125 45.53125 38.59375 
Q 48.25 35.75 49.734375 31.671875 
Q 51.21875 27.59375 51.21875 22.515625 
M 42.28125 22.125 
Q 42.28125 25.6875 41.40625 28.5625 
Q 40.53125 31.453125 38.765625 33.46875 
Q 37.015625 35.5 34.421875 36.59375 
Q 31.84375 37.703125 28.421875 37.703125 
Q 26.03125 37.703125 23.578125 36.984375 
Q 21.140625 36.28125 19.15625 34.6875 
Q 17.1875 33.109375 15.9375 30.515625 
Q 14.703125 27.9375 14.703125 24.21875 
Q 14.703125 20.40625 15.671875 17.109375 
Q 16.65625 13.8125 18.484375 11.375 
Q 20.3125 8.9375 22.890625 7.515625 
Q 25.484375 6.109375 28.71875 6.109375 
Q 31.890625 6.109375 34.40625 7.203125 
Q 36.921875 8.296875 38.671875 10.375 
Q 40.4375 12.453125 41.359375 15.421875 
Q 42.28125 18.40625 42.28125 22.125 
" id="LiberationSans-36"/>
      </defs>
      <g style="fill:#262626;" transform="translate(523.041094 331.7975)scale(0.08 -0.08)">
       <use xlink:href="#LiberationSans-36"/>
       <use x="55.615234" xlink:href="#LiberationSans-30"/>
       <use x="111.230469" xlink:href="#LiberationSans-30"/>
      </g>
     </g>
    </g>
    <g id="xtick_5">
     <g id="line2d_9">
      <path clip-path="url(#p3e7f5d7ca9)" d="M 644.758353 320.4 
L 644.758353 43.2 
" style="fill:none;stroke:#ffffff;stroke-linecap:round;stroke-width:0.8;"/>
     </g>
     <g id="line2d_10"/>
     <g id="text_5">
      <!-- 800 -->
      <defs>
       <path d="M 51.265625 19.1875 
Q 51.265625 14.796875 49.875 11.109375 
Q 48.484375 7.421875 45.625 4.734375 
Q 42.78125 2.046875 38.328125 0.53125 
Q 33.890625 -0.984375 27.828125 -0.984375 
Q 21.78125 -0.984375 17.359375 0.53125 
Q 12.9375 2.046875 10.03125 4.703125 
Q 7.125 7.375 5.734375 11.0625 
Q 4.34375 14.75 4.34375 19.09375 
Q 4.34375 22.859375 5.484375 25.78125 
Q 6.640625 28.71875 8.5625 30.828125 
Q 10.5 32.953125 12.96875 34.25 
Q 15.4375 35.546875 18.0625 35.984375 
L 18.0625 36.1875 
Q 15.1875 36.859375 12.90625 38.375 
Q 10.640625 39.890625 9.09375 42.015625 
Q 7.5625 44.140625 6.75 46.71875 
Q 5.953125 49.3125 5.953125 52.203125 
Q 5.953125 55.8125 7.34375 59 
Q 8.734375 62.203125 11.46875 64.625 
Q 14.203125 67.046875 18.25 68.4375 
Q 22.3125 69.828125 27.640625 69.828125 
Q 33.25 69.828125 37.375 68.40625 
Q 41.5 67 44.203125 64.578125 
Q 46.921875 62.15625 48.234375 58.9375 
Q 49.5625 55.71875 49.5625 52.09375 
Q 49.5625 49.265625 48.75 46.671875 
Q 47.953125 44.09375 46.40625 41.96875 
Q 44.875 39.84375 42.59375 38.34375 
Q 40.328125 36.859375 37.359375 36.28125 
L 37.359375 36.078125 
Q 40.328125 35.59375 42.859375 34.296875 
Q 45.40625 33.015625 47.265625 30.890625 
Q 49.125 28.765625 50.1875 25.828125 
Q 51.265625 22.90625 51.265625 19.1875 
M 40.4375 51.609375 
Q 40.4375 54.203125 39.765625 56.34375 
Q 39.109375 58.5 37.59375 60.03125 
Q 36.078125 61.578125 33.640625 62.421875 
Q 31.203125 63.28125 27.640625 63.28125 
Q 24.171875 63.28125 21.78125 62.421875 
Q 19.390625 61.578125 17.84375 60.03125 
Q 16.3125 58.5 15.625 56.34375 
Q 14.9375 54.203125 14.9375 51.609375 
Q 14.9375 49.5625 15.46875 47.40625 
Q 16.015625 45.265625 17.421875 43.5 
Q 18.84375 41.75 21.328125 40.625 
Q 23.828125 39.5 27.734375 39.5 
Q 31.890625 39.5 34.40625 40.625 
Q 36.921875 41.75 38.25 43.5 
Q 39.59375 45.265625 40.015625 47.40625 
Q 40.4375 49.5625 40.4375 51.609375 
M 42.140625 20.015625 
Q 42.140625 22.515625 41.453125 24.828125 
Q 40.765625 27.15625 39.109375 28.9375 
Q 37.453125 30.71875 34.640625 31.8125 
Q 31.84375 32.90625 27.640625 32.90625 
Q 23.78125 32.90625 21.0625 31.8125 
Q 18.359375 30.71875 16.671875 28.90625 
Q 14.984375 27.09375 14.203125 24.71875 
Q 13.421875 22.359375 13.421875 19.828125 
Q 13.421875 16.65625 14.203125 14.03125 
Q 14.984375 11.421875 16.6875 9.546875 
Q 18.40625 7.671875 21.1875 6.640625 
Q 23.96875 5.609375 27.9375 5.609375 
Q 31.9375 5.609375 34.671875 6.640625 
Q 37.40625 7.671875 39.0625 9.546875 
Q 40.71875 11.421875 41.421875 14.078125 
Q 42.140625 16.75 42.140625 20.015625 
" id="LiberationSans-38"/>
      </defs>
      <g style="fill:#262626;" transform="translate(638.085228 331.7975)scale(0.08 -0.08)">
       <use xlink:href="#LiberationSans-38"/>
       <use x="55.615234" xlink:href="#LiberationSans-30"/>
       <use x="111.230469" xlink:href="#LiberationSans-30"/>
      </g>
     </g>
    </g>
    <g id="xtick_6">
     <g id="line2d_11">
      <path clip-path="url(#p3e7f5d7ca9)" d="M 759.802487 320.4 
L 759.802487 43.2 
" style="fill:none;stroke:#ffffff;stroke-linecap:round;stroke-width:0.8;"/>
     </g>
     <g id="line2d_12"/>
     <g id="text_6">
      <!-- 1000 -->
      <defs>
       <path d="M 7.625 0 
L 7.625 7.46875 
L 25.140625 7.46875 
L 25.140625 60.40625 
L 9.625 49.3125 
L 9.625 57.625 
L 25.875 68.796875 
L 33.984375 68.796875 
L 33.984375 7.46875 
L 50.734375 7.46875 
L 50.734375 0 
z
" id="LiberationSans-31"/>
      </defs>
      <g style="fill:#262626;" transform="translate(750.904987 331.7975)scale(0.08 -0.08)">
       <use xlink:href="#LiberationSans-31"/>
       <use x="55.615234" xlink:href="#LiberationSans-30"/>
       <use x="111.230469" xlink:href="#LiberationSans-30"/>
       <use x="166.845703" xlink:href="#LiberationSans-30"/>
      </g>
     </g>
    </g>
    <g id="xtick_7">
     <g id="line2d_13">
      <path clip-path="url(#p3e7f5d7ca9)" d="M 874.846621 320.4 
L 874.846621 43.2 
" style="fill:none;stroke:#ffffff;stroke-linecap:round;stroke-width:0.8;"/>
     </g>
     <g id="line2d_14"/>
     <g id="text_7">
      <!-- 1200 -->
      <g style="fill:#262626;" transform="translate(865.949121 331.7975)scale(0.08 -0.08)">
       <use xlink:href="#LiberationSans-31"/>
       <use x="55.615234" xlink:href="#LiberationSans-32"/>
       <use x="111.230469" xlink:href="#LiberationSans-30"/>
       <use x="166.845703" xlink:href="#LiberationSans-30"/>
      </g>
     </g>
    </g>
    <g id="xtick_8">
     <g id="line2d_15">
      <path clip-path="url(#p3e7f5d7ca9)" d="M 989.890754 320.4 
L 989.890754 43.2 
" style="fill:none;stroke:#ffffff;stroke-linecap:round;stroke-width:0.8;"/>
     </g>
     <g id="line2d_16"/>
     <g id="text_8">
      <!-- 1400 -->
      <g style="fill:#262626;" transform="translate(980.993254 331.7975)scale(0.08 -0.08)">
       <use xlink:href="#LiberationSans-31"/>
       <use x="55.615234" xlink:href="#LiberationSans-34"/>
       <use x="111.230469" xlink:href="#LiberationSans-30"/>
       <use x="166.845703" xlink:href="#LiberationSans-30"/>
      </g>
     </g>
    </g>
   </g>
   <g id="matplotlib.axis_2">
    <g id="ytick_1">
     <g id="line2d_17">
      <path clip-path="url(#p3e7f5d7ca9)" d="M 144 307.8 
L 1036.8 307.8 
" style="fill:none;stroke:#ffffff;stroke-linecap:round;stroke-width:0.8;"/>
     </g>
     <g id="line2d_18"/>
     <g id="text_9">
      <!-- −1.00 -->
      <defs>
       <path d="M 4.9375 29.6875 
L 4.9375 36.8125 
L 53.515625 36.8125 
L 53.515625 29.6875 
z
" id="LiberationSans-2212"/>
       <path d="M 9.125 0 
L 9.125 10.6875 
L 18.65625 10.6875 
L 18.65625 0 
z
" id="LiberationSans-2e"/>
      </defs>
      <g style="fill:#262626;" transform="translate(118.15875 310.69875)scale(0.08 -0.08)">
       <use xlink:href="#LiberationSans-2212"/>
       <use x="58.398438" xlink:href="#LiberationSans-31"/>
       <use x="114.013672" xlink:href="#LiberationSans-2e"/>
       <use x="141.796875" xlink:href="#LiberationSans-30"/>
       <use x="197.412109" xlink:href="#LiberationSans-30"/>
      </g>
     </g>
    </g>
    <g id="ytick_2">
     <g id="line2d_19">
      <path clip-path="url(#p3e7f5d7ca9)" d="M 144 276.3 
L 1036.8 276.3 
" style="fill:none;stroke:#ffffff;stroke-linecap:round;stroke-width:0.8;"/>
     </g>
     <g id="line2d_20"/>
     <g id="text_10">
      <!-- −0.75 -->
      <defs>
       <path d="M 50.59375 61.671875 
Q 45.40625 53.765625 41.0625 46.453125 
Q 36.71875 39.15625 33.59375 31.75 
Q 30.46875 24.359375 28.734375 16.578125 
Q 27 8.796875 27 0 
L 17.828125 0 
Q 17.828125 8.25 19.78125 16.1875 
Q 21.734375 24.125 25.046875 31.765625 
Q 28.375 39.40625 32.765625 46.78125 
Q 37.15625 54.15625 42.09375 61.328125 
L 5.125 61.328125 
L 5.125 68.796875 
L 50.59375 68.796875 
z
" id="LiberationSans-37"/>
       <path d="M 51.421875 22.40625 
Q 51.421875 17.234375 49.859375 12.9375 
Q 48.296875 8.640625 45.21875 5.53125 
Q 42.140625 2.4375 37.578125 0.71875 
Q 33.015625 -0.984375 27 -0.984375 
Q 21.578125 -0.984375 17.546875 0.28125 
Q 13.53125 1.5625 10.734375 3.78125 
Q 7.953125 6 6.3125 8.984375 
Q 4.6875 11.96875 4 15.375 
L 12.890625 16.40625 
Q 13.421875 14.453125 14.390625 12.625 
Q 15.375 10.796875 17.0625 9.34375 
Q 18.75 7.90625 21.21875 7.046875 
Q 23.6875 6.203125 27.203125 6.203125 
Q 30.609375 6.203125 33.390625 7.25 
Q 36.1875 8.296875 38.15625 10.34375 
Q 40.140625 12.40625 41.203125 15.375 
Q 42.28125 18.359375 42.28125 22.21875 
Q 42.28125 25.390625 41.25 28.046875 
Q 40.234375 30.71875 38.328125 32.640625 
Q 36.421875 34.578125 33.65625 35.640625 
Q 30.90625 36.71875 27.390625 36.71875 
Q 25.203125 36.71875 23.34375 36.328125 
Q 21.484375 35.9375 19.890625 35.25 
Q 18.3125 34.578125 17.015625 33.671875 
Q 15.71875 32.765625 14.59375 31.78125 
L 6 31.78125 
L 8.296875 68.796875 
L 47.40625 68.796875 
L 47.40625 61.328125 
L 16.3125 61.328125 
L 14.984375 39.5 
Q 17.328125 41.3125 20.84375 42.59375 
Q 24.359375 43.890625 29.203125 43.890625 
Q 34.328125 43.890625 38.421875 42.328125 
Q 42.53125 40.765625 45.40625 37.90625 
Q 48.296875 35.0625 49.859375 31.109375 
Q 51.421875 27.15625 51.421875 22.40625 
" id="LiberationSans-35"/>
      </defs>
      <g style="fill:#262626;" transform="translate(118.15875 279.19875)scale(0.08 -0.08)">
       <use xlink:href="#LiberationSans-2212"/>
       <use x="58.398438" xlink:href="#LiberationSans-30"/>
       <use x="114.013672" xlink:href="#LiberationSans-2e"/>
       <use x="141.796875" xlink:href="#LiberationSans-37"/>
       <use x="197.412109" xlink:href="#LiberationSans-35"/>
      </g>
     </g>
    </g>
    <g id="ytick_3">
     <g id="line2d_21">
      <path clip-path="url(#p3e7f5d7ca9)" d="M 144 244.8 
L 1036.8 244.8 
" style="fill:none;stroke:#ffffff;stroke-linecap:round;stroke-width:0.8;"/>
     </g>
     <g id="line2d_22"/>
     <g id="text_11">
      <!-- −0.50 -->
      <g style="fill:#262626;" transform="translate(118.15875 247.69875)scale(0.08 -0.08)">
       <use xlink:href="#LiberationSans-2212"/>
       <use x="58.398438" xlink:href="#LiberationSans-30"/>
       <use x="114.013672" xlink:href="#LiberationSans-2e"/>
       <use x="141.796875" xlink:href="#LiberationSans-35"/>
       <use x="197.412109" xlink:href="#LiberationSans-30"/>
      </g>
     </g>
    </g>
    <g id="ytick_4">
     <g id="line2d_23">
      <path clip-path="url(#p3e7f5d7ca9)" d="M 144 213.3 
L 1036.8 213.3 
" style="fill:none;stroke:#ffffff;stroke-linecap:round;stroke-width:0.8;"/>
     </g>
     <g id="line2d_24"/>
     <g id="text_12">
      <!-- −0.25 -->
      <g style="fill:#262626;" transform="translate(118.15875 216.19875)scale(0.08 -0.08)">
       <use xlink:href="#LiberationSans-2212"/>
       <use x="58.398438" xlink:href="#LiberationSans-30"/>
       <use x="114.013672" xlink:href="#LiberationSans-2e"/>
       <use x="141.796875" xlink:href="#LiberationSans-32"/>
       <use x="197.412109" xlink:href="#LiberationSans-35"/>
      </g>
     </g>
    </g>
    <g id="ytick_5">
     <g id="line2d_25">
      <path clip-path="url(#p3e7f5d7ca9)" d="M 144 181.8 
L 1036.8 181.8 
" style="fill:none;stroke:#ffffff;stroke-linecap:round;stroke-width:0.8;"/>
     </g>
     <g id="line2d_26"/>
     <g id="text_13">
      <!-- 0.00 -->
      <g style="fill:#262626;" transform="translate(122.83125 184.69875)scale(0.08 -0.08)">
       <use xlink:href="#LiberationSans-30"/>
       <use x="55.615234" xlink:href="#LiberationSans-2e"/>
       <use x="83.398438" xlink:href="#LiberationSans-30"/>
       <use x="139.013672" xlink:href="#LiberationSans-30"/>
      </g>
     </g>
    </g>
    <g id="ytick_6">
     <g id="line2d_27">
      <path clip-path="url(#p3e7f5d7ca9)" d="M 144 150.3 
L 1036.8 150.3 
" style="fill:none;stroke:#ffffff;stroke-linecap:round;stroke-width:0.8;"/>
     </g>
     <g id="line2d_28"/>
     <g id="text_14">
      <!-- 0.25 -->
      <g style="fill:#262626;" transform="translate(122.83125 153.19875)scale(0.08 -0.08)">
       <use xlink:href="#LiberationSans-30"/>
       <use x="55.615234" xlink:href="#LiberationSans-2e"/>
       <use x="83.398438" xlink:href="#LiberationSans-32"/>
       <use x="139.013672" xlink:href="#LiberationSans-35"/>
      </g>
     </g>
    </g>
    <g id="ytick_7">
     <g id="line2d_29">
      <path clip-path="url(#p3e7f5d7ca9)" d="M 144 118.8 
L 1036.8 118.8 
" style="fill:none;stroke:#ffffff;stroke-linecap:round;stroke-width:0.8;"/>
     </g>
     <g id="line2d_30"/>
     <g id="text_15">
      <!-- 0.50 -->
      <g style="fill:#262626;" transform="translate(122.83125 121.69875)scale(0.08 -0.08)">
       <use xlink:href="#LiberationSans-30"/>
       <use x="55.615234" xlink:href="#LiberationSans-2e"/>
       <use x="83.398438" xlink:href="#LiberationSans-35"/>
       <use x="139.013672" xlink:href="#LiberationSans-30"/>
      </g>
     </g>
    </g>
    <g id="ytick_8">
     <g id="line2d_31">
      <path clip-path="url(#p3e7f5d7ca9)" d="M 144 87.3 
L 1036.8 87.3 
" style="fill:none;stroke:#ffffff;stroke-linecap:round;stroke-width:0.8;"/>
     </g>
     <g id="line2d_32"/>
     <g id="text_16">
      <!-- 0.75 -->
      <g style="fill:#262626;" transform="translate(122.83125 90.19875)scale(0.08 -0.08)">
       <use xlink:href="#LiberationSans-30"/>
       <use x="55.615234" xlink:href="#LiberationSans-2e"/>
       <use x="83.398438" xlink:href="#LiberationSans-37"/>
       <use x="139.013672" xlink:href="#LiberationSans-35"/>
      </g>
     </g>
    </g>
    <g id="ytick_9">
     <g id="line2d_33">
      <path clip-path="url(#p3e7f5d7ca9)" d="M 144 55.8 
L 1036.8 55.8 
" style="fill:none;stroke:#ffffff;stroke-linecap:round;stroke-width:0.8;"/>
     </g>
     <g id="line2d_34"/>
     <g id="text_17">
      <!-- 1.00 -->
      <g style="fill:#262626;" transform="translate(122.83125 58.69875)scale(0.08 -0.08)">
       <use xlink:href="#LiberationSans-31"/>
       <use x="55.615234" xlink:href="#LiberationSans-2e"/>
       <use x="83.398438" xlink:href="#LiberationSans-30"/>
       <use x="139.013672" xlink:href="#LiberationSans-30"/>
      </g>
     </g>
    </g>
   </g>
   <g id="line2d_35">
    <path clip-path="url(#p3e7f5d7ca9)" d="M 184.581818 215.970137 
L 188.033142 215.988167 
L 188.608363 216.305979 
L 189.183584 217.670766 
L 189.758804 220.759259 
L 190.334025 225.065273 
L 190.909246 227.65912 
L 191.484466 224.011166 
L 192.059687 211.695866 
L 193.210128 174.461045 
L 193.785349 162.566216 
L 194.36057 161.829164 
L 194.93579 172.752567 
L 196.086232 214.972637 
L 196.661452 235.643963 
L 197.236673 250.306387 
L 197.811894 257.198889 
L 198.387114 256.711401 
L 198.962335 251.027656 
L 199.537556 243.490036 
L 200.112776 237.882443 
L 200.687997 237.678451 
L 201.263218 245.232841 
L 202.413659 277.444739 
L 202.98888 282.692684 
L 203.5641 261.429639 
L 204.139321 211.580278 
L 205.289762 88.713637 
L 205.864983 55.8 
L 206.440204 57.702604 
L 207.015424 92.52141 
L 208.741086 263.84893 
L 209.316307 297.486006 
L 209.891528 307.8 
L 210.466748 296.342944 
L 211.041969 269.294553 
L 212.19241 204.254895 
L 212.767631 182.686593 
L 213.342852 174.595 
L 213.918072 179.781787 
L 214.493293 194.664873 
L 215.643734 231.204565 
L 216.218955 242.864055 
L 216.794176 246.612249 
L 217.369396 242.772712 
L 217.944617 233.558575 
L 219.095058 211.878275 
L 219.670279 205.180768 
L 220.2455 203.231959 
L 220.82072 205.841293 
L 221.395941 211.672093 
L 222.546382 225.025875 
L 223.121603 229.030104 
L 223.696824 230.038914 
L 224.272044 228.240338 
L 225.422486 220.082517 
L 225.997706 216.217679 
L 226.572927 213.825012 
L 227.148148 213.277865 
L 227.723368 214.42822 
L 229.44903 221.633325 
L 230.024251 223.045423 
L 230.599472 223.350936 
L 231.174692 222.631876 
L 232.325134 219.427752 
L 232.900354 217.880919 
L 233.475575 216.885966 
L 234.050796 216.613355 
L 234.626016 217.04282 
L 235.776458 219.16349 
L 236.351678 220.178673 
L 236.926899 220.752157 
L 237.50212 220.841388 
L 238.07734 220.522045 
L 239.227782 219.140723 
L 239.803002 218.452065 
L 240.378223 218.013839 
L 240.953444 217.857403 
L 241.528664 217.99119 
L 242.103885 218.396924 
L 243.254326 219.433808 
L 243.829547 219.696235 
L 244.404768 219.736363 
L 245.555209 219.40392 
L 247.280871 218.646705 
L 248.431312 218.4815 
L 249.581754 218.701392 
L 251.307416 219.149226 
L 252.457857 219.036242 
L 254.183519 218.645739 
L 255.33396 218.667834 
L 257.634843 218.934976 
L 258.785284 218.775216 
L 261.086167 218.370804 
L 262.236608 218.486373 
L 263.96227 218.799561 
L 265.112712 218.708001 
L 267.413594 218.241267 
L 269.714477 218.319234 
L 272.01536 218.261015 
L 277.767567 217.997681 
L 280.068449 218.179182 
L 281.218891 218.018771 
L 282.944553 217.77713 
L 284.670215 217.810581 
L 288.696759 218.076674 
L 292.723304 217.717998 
L 295.024187 218.07693 
L 297.325069 217.913619 
L 301.926835 217.604157 
L 305.378159 217.862354 
L 307.679041 217.533127 
L 308.829483 217.365866 
L 309.979924 217.513531 
L 311.705586 217.691463 
L 314.006469 217.529302 
L 318.033013 217.296835 
L 320.333896 217.491027 
L 326.086103 217.248137 
L 328.386985 217.524723 
L 330.112647 217.498137 
L 332.41353 217.312264 
L 341.617061 217.316435 
L 343.342723 217.182406 
L 350.245371 217.153417 
L 351.971033 216.94693 
L 353.696695 217.151693 
L 355.422357 217.289099 
L 357.148019 217.098221 
L 358.873681 216.84059 
L 360.599343 216.921234 
L 364.050667 217.180198 
L 365.776329 216.989563 
L 367.501991 216.862264 
L 372.103756 217.142872 
L 373.829418 217.152567 
L 376.130301 216.894575 
L 382.457728 217.00502 
L 387.059494 216.92297 
L 388.785156 216.986097 
L 390.510818 216.895066 
L 392.23648 216.867012 
L 394.537362 216.694452 
L 396.263024 216.778274 
L 397.988686 216.938453 
L 401.44001 216.740573 
L 402.590452 216.660036 
L 406.041776 216.792706 
L 407.767438 216.869267 
L 408.917879 216.90484 
L 413.519644 216.748555 
L 415.245306 216.935969 
L 416.395748 216.870392 
L 418.12141 216.680613 
L 419.271851 216.745135 
L 420.997513 216.898854 
L 422.723175 216.839122 
L 425.599278 216.627354 
L 428.475382 216.762543 
L 430.201044 216.616511 
L 433.652368 216.684949 
L 436.528471 216.572598 
L 440.555016 216.735462 
L 441.705457 216.689648 
L 444.00634 216.515585 
L 449.183326 216.678196 
L 450.908988 216.700827 
L 453.785091 216.572993 
L 457.811636 216.644054 
L 459.537298 216.618214 
L 467.015167 216.517775 
L 469.316049 216.514987 
L 471.616932 216.616738 
L 473.342594 216.599014 
L 476.218697 216.33628 
L 477.369139 216.401575 
L 479.670021 216.636459 
L 483.696566 216.413585 
L 485.422228 216.431757 
L 487.14789 216.578799 
L 492.324876 216.49022 
L 497.501862 216.455913 
L 507.280613 216.487768 
L 508.431055 216.499834 
L 511.307158 216.306565 
L 513.03282 216.452578 
L 514.183261 216.451338 
L 517.059365 216.28572 
L 520.510689 216.312142 
L 522.236351 216.376468 
L 524.537233 216.43185 
L 527.413337 216.258404 
L 532.015102 216.31973 
L 534.315985 216.209789 
L 536.616867 216.423323 
L 539.492971 216.239232 
L 542.944295 216.315514 
L 545.820398 216.19159 
L 553.298267 216.269036 
L 557.324812 216.219259 
L 565.953122 216.223347 
L 567.103563 216.339367 
L 568.829225 216.231127 
L 571.130108 216.096146 
L 587.236286 216.144011 
L 590.11239 216.142757 
L 597.590258 216.163177 
L 599.891141 216.015484 
L 603.342465 216.174187 
L 605.643348 215.923967 
L 609.094672 216.149159 
L 617.147761 215.994327 
L 622.324747 215.989162 
L 643.607912 216.039879 
L 644.758353 216.086618 
L 648.209677 215.826034 
L 650.51056 215.993151 
L 653.961884 215.874572 
L 655.687546 215.799005 
L 659.13887 215.912564 
L 662.590194 215.91185 
L 676.39549 215.879493 
L 678.696373 215.98308 
L 682.722917 215.847185 
L 684.448579 215.916218 
L 686.749462 215.921484 
L 689.050345 215.740477 
L 693.65211 215.802128 
L 702.28042 215.797644 
L 704.006082 215.881496 
L 705.156523 215.784387 
L 706.882185 215.577073 
L 708.607847 215.684874 
L 711.483951 215.932238 
L 714.935275 215.720099 
L 718.961819 215.86383 
L 722.413143 215.699614 
L 723.563585 215.670567 
L 726.439688 215.87736 
L 732.191895 215.572614 
L 734.492778 215.810586 
L 741.970646 215.561546 
L 747.147632 215.623097 
L 749.448515 215.572632 
L 753.47506 215.700002 
L 755.775942 215.682288 
L 760.377708 215.746218 
L 762.10337 215.624052 
L 764.979473 215.690217 
L 767.855576 215.606032 
L 770.156459 215.645317 
L 772.457342 215.562612 
L 774.758224 215.520924 
L 777.634328 215.624934 
L 779.35999 215.590533 
L 782.811314 215.395755 
L 786.262638 215.639975 
L 789.713962 215.551201 
L 792.014844 215.532277 
L 793.740506 215.620868 
L 795.466168 215.716667 
L 800.643154 215.612096 
L 803.519258 215.740935 
L 806.395361 215.483491 
L 808.696244 215.579718 
L 810.421906 215.558986 
L 812.722788 215.572133 
L 816.749333 215.330259 
L 821.351099 215.511795 
L 823.651981 215.247195 
L 825.377643 215.393157 
L 827.103305 215.535544 
L 835.731615 215.549228 
L 840.908601 215.549234 
L 842.634263 215.471471 
L 844.935146 215.685934 
L 846.085587 215.728113 
L 847.811249 215.52322 
L 850.112132 215.24504 
L 851.837794 215.410109 
L 853.563456 215.573046 
L 855.289118 215.483793 
L 858.165221 215.216075 
L 862.191766 215.50002 
L 865.64309 215.182136 
L 869.669635 215.589401 
L 871.395297 215.500761 
L 873.696179 215.398219 
L 875.997062 215.627181 
L 877.147503 215.711466 
L 881.174048 215.637822 
L 882.89971 215.646753 
L 885.200593 215.476705 
L 886.926255 215.772281 
L 888.076696 215.914941 
L 889.227137 215.72067 
L 890.952799 215.213147 
L 892.103241 215.201109 
L 893.253682 215.47487 
L 894.979344 215.924284 
L 896.129785 215.854781 
L 899.005889 215.268645 
L 900.15633 215.447361 
L 904.182875 216.565851 
L 906.483757 216.582581 
L 907.058978 216.798687 
L 907.634199 217.194878 
L 908.209419 217.802307 
L 908.78464 218.669334 
L 909.359861 219.887087 
L 909.935082 221.565538 
L 910.510302 223.854286 
L 911.085523 226.970619 
L 911.660744 231.233803 
L 912.235964 237.062531 
L 913.961626 260.284604 
L 914.536847 256.351161 
L 915.112068 234.407783 
L 916.83773 112.905162 
L 917.41295 95.831437 
L 917.988171 104.252099 
L 918.563392 135.31916 
L 920.289054 262.478794 
L 920.864274 283.525813 
L 921.439495 286.896603 
L 922.014716 274.832899 
L 923.740378 206.073299 
L 924.315598 193.076936 
L 924.890819 190.839541 
L 925.46604 198.790648 
L 926.04126 214.184539 
L 927.766922 269.299288 
L 928.342143 281.874154 
L 928.917364 286.144755 
L 929.492584 274.340282 
L 930.067805 240.5075 
L 931.793467 95.371174 
L 932.368688 82.156714 
L 932.943908 98.62754 
L 933.519129 138.749333 
L 934.66957 239.695283 
L 935.244791 275.936702 
L 935.820012 293.347782 
L 936.395232 291.428803 
L 936.970453 273.998784 
L 938.696115 199.780382 
L 939.271336 189.503733 
L 939.846556 191.47519 
L 940.421777 204.275433 
L 942.147439 263.69347 
L 942.72266 266.624317 
L 943.29788 248.237669 
L 943.873101 210.560439 
L 945.023542 127.134449 
L 945.598763 109.18005 
L 946.173984 116.393138 
L 946.749204 145.600405 
L 948.474866 263.747131 
L 949.050087 282.162582 
L 949.625308 283.989627 
L 950.200528 271.844248 
L 951.92619 212.16842 
L 952.501411 205.042965 
L 953.076632 209.989125 
L 953.651852 225.966721 
L 954.227073 247.717432 
L 954.802294 264.481618 
L 955.377514 262.993507 
L 955.952735 236.949093 
L 957.678397 110.388216 
L 958.253618 100.000437 
L 958.828838 116.41701 
L 959.404059 153.830689 
L 960.5545 245.985083 
L 961.129721 279.025968 
L 961.704942 295.034755 
L 962.280162 293.448594 
L 962.855383 277.832796 
L 964.005824 231.470011 
L 964.581045 215.222502 
L 965.156266 210.569553 
L 965.731486 218.76111 
L 966.881928 250.974981 
L 967.457148 249.714141 
L 968.032369 224.622706 
L 969.18281 135.666971 
L 969.758031 104.0414 
L 970.333252 97.836037 
L 970.908472 118.845178 
L 972.058914 209.126383 
L 972.634134 253.590372 
L 973.209355 284.208218 
L 973.784576 296.633148 
L 974.359796 291.313195 
L 974.935017 272.706772 
L 976.085458 224.659184 
L 976.660679 209.879514 
L 977.2359 207.668259 
L 977.81112 217.873313 
L 978.386341 234.162638 
L 978.961562 244.424569 
L 979.536782 237.964315 
L 980.112003 213.828523 
L 981.262444 151.363853 
L 981.837665 136.119146 
L 982.412886 139.704186 
L 982.988106 160.276935 
L 984.713768 250.863713 
L 985.288989 267.501244 
L 985.86421 272.074478 
L 986.43943 265.776786 
L 988.165092 223.121041 
L 988.740313 216.864006 
L 989.315534 219.276889 
L 990.465975 237.868041 
L 991.041196 237.135921 
L 991.616416 220.282839 
L 993.342078 132.300324 
L 993.917299 125.658569 
L 994.49252 139.367423 
L 995.06774 169.240128 
L 996.218182 242.077879 
L 996.218182 242.077879 
" style="fill:none;stroke:#4c72b0;stroke-linecap:round;stroke-width:1.4;"/>
   </g>
   <g id="patch_3">
    <path d="M 144 320.4 
L 144 43.2 
" style="fill:none;"/>
   </g>
   <g id="patch_4">
    <path d="M 1036.8 320.4 
L 1036.8 43.2 
" style="fill:none;"/>
   </g>
   <g id="patch_5">
    <path d="M 144 320.4 
L 1036.8 320.4 
" style="fill:none;"/>
   </g>
   <g id="patch_6">
    <path d="M 144 43.2 
L 1036.8 43.2 
" style="fill:none;"/>
   </g>
  </g>
 </g>
 <defs>
  <clipPath id="p3e7f5d7ca9">
   <rect height="277.2" width="892.8" x="144" y="43.2"/>
  </clipPath>
 </defs>
</svg>
