<?xml version="1.0" encoding="utf-8" standalone="no"?>
<!DOCTYPE svg PUBLIC "-//W3C//DTD SVG 1.1//EN"
  "http://www.w3.org/Graphics/SVG/1.1/DTD/svg11.dtd">
<!-- Created with matplotlib (http://matplotlib.org/) -->
<svg height="360pt" version="1.1" viewBox="0 0 1152 360" width="1152pt" xmlns="http://www.w3.org/2000/svg" xmlns:xlink="http://www.w3.org/1999/xlink">
 <defs>
  <style type="text/css">
*{stroke-linecap:butt;stroke-linejoin:round;}
  </style>
 </defs>
 <g id="figure_1">
  <g id="patch_1">
   <path d="M 0 360 
L 1152 360 
L 1152 0 
L 0 0 
z
" style="fill:#ffffff;"/>
  </g>
  <g id="axes_1">
   <g id="patch_2">
    <path d="M 144 320.4 
L 1036.8 320.4 
L 1036.8 43.2 
L 144 43.2 
z
" style="fill:#eaeaf2;"/>
   </g>
   <g id="matplotlib.axis_1">
    <g id="xtick_1">
     <g id="line2d_1">
      <path clip-path="url(#p04622c2a1d)" d="M 184.581818 320.4 
L 184.581818 43.2 
" style="fill:none;stroke:#ffffff;stroke-linecap:round;stroke-width:0.8;"/>
     </g>
     <g id="line2d_2"/>
     <g id="text_1">
      <!-- 0.000 -->
      <defs>
       <path d="M 51.703125 34.421875 
Q 51.703125 24.515625 49.828125 17.75 
Q 47.953125 10.984375 44.703125 6.8125 
Q 41.453125 2.640625 37.0625 0.828125 
Q 32.671875 -0.984375 27.6875 -0.984375 
Q 22.65625 -0.984375 18.3125 0.828125 
Q 13.96875 2.640625 10.765625 6.78125 
Q 7.5625 10.9375 5.734375 17.703125 
Q 3.90625 24.46875 3.90625 34.421875 
Q 3.90625 44.828125 5.734375 51.640625 
Q 7.5625 58.453125 10.78125 62.5 
Q 14.015625 66.546875 18.40625 68.1875 
Q 22.796875 69.828125 27.984375 69.828125 
Q 32.90625 69.828125 37.21875 68.1875 
Q 41.546875 66.546875 44.765625 62.5 
Q 48 58.453125 49.84375 51.640625 
Q 51.703125 44.828125 51.703125 34.421875 
M 42.78125 34.421875 
Q 42.78125 42.625 41.796875 48.0625 
Q 40.828125 53.515625 38.921875 56.765625 
Q 37.015625 60.015625 34.25 61.359375 
Q 31.5 62.703125 27.984375 62.703125 
Q 24.265625 62.703125 21.4375 61.328125 
Q 18.609375 59.96875 16.671875 56.71875 
Q 14.75 53.46875 13.765625 48.015625 
Q 12.796875 42.578125 12.796875 34.421875 
Q 12.796875 26.515625 13.796875 21.09375 
Q 14.796875 15.671875 16.71875 12.375 
Q 18.65625 9.078125 21.4375 7.640625 
Q 24.21875 6.203125 27.78125 6.203125 
Q 31.25 6.203125 34.03125 7.640625 
Q 36.8125 9.078125 38.734375 12.375 
Q 40.671875 15.671875 41.71875 21.09375 
Q 42.78125 26.515625 42.78125 34.421875 
" id="LiberationSans-30"/>
       <path d="M 9.125 0 
L 9.125 10.6875 
L 18.65625 10.6875 
L 18.65625 0 
z
" id="LiberationSans-2e"/>
      </defs>
      <g style="fill:#262626;" transform="translate(174.573068 331.7975)scale(0.08 -0.08)">
       <use xlink:href="#LiberationSans-30"/>
       <use x="55.615234" xlink:href="#LiberationSans-2e"/>
       <use x="83.398438" xlink:href="#LiberationSans-30"/>
       <use x="139.013672" xlink:href="#LiberationSans-30"/>
       <use x="194.628906" xlink:href="#LiberationSans-30"/>
      </g>
     </g>
    </g>
    <g id="xtick_2">
     <g id="line2d_3">
      <path clip-path="url(#p04622c2a1d)" d="M 311.238448 320.4 
L 311.238448 43.2 
" style="fill:none;stroke:#ffffff;stroke-linecap:round;stroke-width:0.8;"/>
     </g>
     <g id="line2d_4"/>
     <g id="text_2">
      <!-- 0.005 -->
      <defs>
       <path d="M 51.421875 22.40625 
Q 51.421875 17.234375 49.859375 12.9375 
Q 48.296875 8.640625 45.21875 5.53125 
Q 42.140625 2.4375 37.578125 0.71875 
Q 33.015625 -0.984375 27 -0.984375 
Q 21.578125 -0.984375 17.546875 0.28125 
Q 13.53125 1.5625 10.734375 3.78125 
Q 7.953125 6 6.3125 8.984375 
Q 4.6875 11.96875 4 15.375 
L 12.890625 16.40625 
Q 13.421875 14.453125 14.390625 12.625 
Q 15.375 10.796875 17.0625 9.34375 
Q 18.75 7.90625 21.21875 7.046875 
Q 23.6875 6.203125 27.203125 6.203125 
Q 30.609375 6.203125 33.390625 7.25 
Q 36.1875 8.296875 38.15625 10.34375 
Q 40.140625 12.40625 41.203125 15.375 
Q 42.28125 18.359375 42.28125 22.21875 
Q 42.28125 25.390625 41.25 28.046875 
Q 40.234375 30.71875 38.328125 32.640625 
Q 36.421875 34.578125 33.65625 35.640625 
Q 30.90625 36.71875 27.390625 36.71875 
Q 25.203125 36.71875 23.34375 36.328125 
Q 21.484375 35.9375 19.890625 35.25 
Q 18.3125 34.578125 17.015625 33.671875 
Q 15.71875 32.765625 14.59375 31.78125 
L 6 31.78125 
L 8.296875 68.796875 
L 47.40625 68.796875 
L 47.40625 61.328125 
L 16.3125 61.328125 
L 14.984375 39.5 
Q 17.328125 41.3125 20.84375 42.59375 
Q 24.359375 43.890625 29.203125 43.890625 
Q 34.328125 43.890625 38.421875 42.328125 
Q 42.53125 40.765625 45.40625 37.90625 
Q 48.296875 35.0625 49.859375 31.109375 
Q 51.421875 27.15625 51.421875 22.40625 
" id="LiberationSans-35"/>
      </defs>
      <g style="fill:#262626;" transform="translate(301.229698 331.7975)scale(0.08 -0.08)">
       <use xlink:href="#LiberationSans-30"/>
       <use x="55.615234" xlink:href="#LiberationSans-2e"/>
       <use x="83.398438" xlink:href="#LiberationSans-30"/>
       <use x="139.013672" xlink:href="#LiberationSans-30"/>
       <use x="194.628906" xlink:href="#LiberationSans-35"/>
      </g>
     </g>
    </g>
    <g id="xtick_3">
     <g id="line2d_5">
      <path clip-path="url(#p04622c2a1d)" d="M 437.895078 320.4 
L 437.895078 43.2 
" style="fill:none;stroke:#ffffff;stroke-linecap:round;stroke-width:0.8;"/>
     </g>
     <g id="line2d_6"/>
     <g id="text_3">
      <!-- 0.010 -->
      <defs>
       <path d="M 7.625 0 
L 7.625 7.46875 
L 25.140625 7.46875 
L 25.140625 60.40625 
L 9.625 49.3125 
L 9.625 57.625 
L 25.875 68.796875 
L 33.984375 68.796875 
L 33.984375 7.46875 
L 50.734375 7.46875 
L 50.734375 0 
z
" id="LiberationSans-31"/>
      </defs>
      <g style="fill:#262626;" transform="translate(427.886328 331.7975)scale(0.08 -0.08)">
       <use xlink:href="#LiberationSans-30"/>
       <use x="55.615234" xlink:href="#LiberationSans-2e"/>
       <use x="83.398438" xlink:href="#LiberationSans-30"/>
       <use x="139.013672" xlink:href="#LiberationSans-31"/>
       <use x="194.628906" xlink:href="#LiberationSans-30"/>
      </g>
     </g>
    </g>
    <g id="xtick_4">
     <g id="line2d_7">
      <path clip-path="url(#p04622c2a1d)" d="M 564.551708 320.4 
L 564.551708 43.2 
" style="fill:none;stroke:#ffffff;stroke-linecap:round;stroke-width:0.8;"/>
     </g>
     <g id="line2d_8"/>
     <g id="text_4">
      <!-- 0.015 -->
      <g style="fill:#262626;" transform="translate(554.542958 331.7975)scale(0.08 -0.08)">
       <use xlink:href="#LiberationSans-30"/>
       <use x="55.615234" xlink:href="#LiberationSans-2e"/>
       <use x="83.398438" xlink:href="#LiberationSans-30"/>
       <use x="139.013672" xlink:href="#LiberationSans-31"/>
       <use x="194.628906" xlink:href="#LiberationSans-35"/>
      </g>
     </g>
    </g>
    <g id="xtick_5">
     <g id="line2d_9">
      <path clip-path="url(#p04622c2a1d)" d="M 691.208338 320.4 
L 691.208338 43.2 
" style="fill:none;stroke:#ffffff;stroke-linecap:round;stroke-width:0.8;"/>
     </g>
     <g id="line2d_10"/>
     <g id="text_5">
      <!-- 0.020 -->
      <defs>
       <path d="M 5.03125 0 
L 5.03125 6.203125 
Q 7.515625 11.921875 11.109375 16.28125 
Q 14.703125 20.65625 18.65625 24.1875 
Q 22.609375 27.734375 26.484375 30.765625 
Q 30.375 33.796875 33.5 36.8125 
Q 36.625 39.84375 38.546875 43.15625 
Q 40.484375 46.484375 40.484375 50.6875 
Q 40.484375 53.609375 39.59375 55.828125 
Q 38.71875 58.0625 37.0625 59.5625 
Q 35.40625 61.078125 33.078125 61.828125 
Q 30.765625 62.59375 27.9375 62.59375 
Q 25.296875 62.59375 22.96875 61.859375 
Q 20.65625 61.140625 18.84375 59.671875 
Q 17.046875 58.203125 15.890625 56.03125 
Q 14.75 53.859375 14.40625 50.984375 
L 5.421875 51.8125 
Q 5.859375 55.515625 7.46875 58.78125 
Q 9.078125 62.0625 11.90625 64.53125 
Q 14.75 67 18.71875 68.40625 
Q 22.703125 69.828125 27.9375 69.828125 
Q 33.0625 69.828125 37.0625 68.609375 
Q 41.0625 67.390625 43.8125 64.984375 
Q 46.578125 62.59375 48.046875 59.078125 
Q 49.515625 55.5625 49.515625 50.984375 
Q 49.515625 47.515625 48.265625 44.390625 
Q 47.015625 41.265625 44.9375 38.421875 
Q 42.875 35.59375 40.140625 32.953125 
Q 37.40625 30.328125 34.421875 27.8125 
Q 31.453125 25.296875 28.421875 22.828125 
Q 25.390625 20.359375 22.71875 17.859375 
Q 20.0625 15.375 17.96875 12.8125 
Q 15.875 10.25 14.703125 7.46875 
L 50.59375 7.46875 
L 50.59375 0 
z
" id="LiberationSans-32"/>
      </defs>
      <g style="fill:#262626;" transform="translate(681.199588 331.7975)scale(0.08 -0.08)">
       <use xlink:href="#LiberationSans-30"/>
       <use x="55.615234" xlink:href="#LiberationSans-2e"/>
       <use x="83.398438" xlink:href="#LiberationSans-30"/>
       <use x="139.013672" xlink:href="#LiberationSans-32"/>
       <use x="194.628906" xlink:href="#LiberationSans-30"/>
      </g>
     </g>
    </g>
    <g id="xtick_6">
     <g id="line2d_11">
      <path clip-path="url(#p04622c2a1d)" d="M 817.864968 320.4 
L 817.864968 43.2 
" style="fill:none;stroke:#ffffff;stroke-linecap:round;stroke-width:0.8;"/>
     </g>
     <g id="line2d_12"/>
     <g id="text_6">
      <!-- 0.025 -->
      <g style="fill:#262626;" transform="translate(807.856218 331.7975)scale(0.08 -0.08)">
       <use xlink:href="#LiberationSans-30"/>
       <use x="55.615234" xlink:href="#LiberationSans-2e"/>
       <use x="83.398438" xlink:href="#LiberationSans-30"/>
       <use x="139.013672" xlink:href="#LiberationSans-32"/>
       <use x="194.628906" xlink:href="#LiberationSans-35"/>
      </g>
     </g>
    </g>
    <g id="xtick_7">
     <g id="line2d_13">
      <path clip-path="url(#p04622c2a1d)" d="M 944.521598 320.4 
L 944.521598 43.2 
" style="fill:none;stroke:#ffffff;stroke-linecap:round;stroke-width:0.8;"/>
     </g>
     <g id="line2d_14"/>
     <g id="text_7">
      <!-- 0.030 -->
      <defs>
       <path d="M 51.21875 19 
Q 51.21875 14.265625 49.671875 10.546875 
Q 48.140625 6.84375 45.1875 4.265625 
Q 42.234375 1.703125 37.859375 0.359375 
Q 33.5 -0.984375 27.875 -0.984375 
Q 21.484375 -0.984375 17.109375 0.609375 
Q 12.75 2.203125 9.90625 4.8125 
Q 7.078125 7.421875 5.65625 10.765625 
Q 4.25 14.109375 3.8125 17.671875 
L 12.890625 18.5 
Q 13.28125 15.765625 14.328125 13.515625 
Q 15.375 11.28125 17.1875 9.671875 
Q 19 8.0625 21.625 7.171875 
Q 24.265625 6.296875 27.875 6.296875 
Q 34.515625 6.296875 38.296875 9.5625 
Q 42.09375 12.84375 42.09375 19.28125 
Q 42.09375 23.09375 40.40625 25.40625 
Q 38.71875 27.734375 36.203125 29.03125 
Q 33.6875 30.328125 30.734375 30.765625 
Q 27.78125 31.203125 25.296875 31.203125 
L 20.3125 31.203125 
L 20.3125 38.8125 
L 25.09375 38.8125 
Q 27.59375 38.8125 30.265625 39.328125 
Q 32.953125 39.84375 35.171875 41.1875 
Q 37.40625 42.53125 38.84375 44.828125 
Q 40.28125 47.125 40.28125 50.6875 
Q 40.28125 56.203125 37.03125 59.390625 
Q 33.796875 62.59375 27.390625 62.59375 
Q 21.578125 62.59375 17.984375 59.609375 
Q 14.40625 56.640625 13.8125 51.21875 
L 4.984375 51.90625 
Q 5.515625 56.453125 7.46875 59.8125 
Q 9.421875 63.1875 12.421875 65.40625 
Q 15.4375 67.625 19.28125 68.71875 
Q 23.140625 69.828125 27.484375 69.828125 
Q 33.25 69.828125 37.390625 68.375 
Q 41.546875 66.9375 44.1875 64.46875 
Q 46.828125 62.015625 48.0625 58.6875 
Q 49.3125 55.375 49.3125 51.609375 
Q 49.3125 48.578125 48.484375 45.9375 
Q 47.65625 43.3125 45.890625 41.203125 
Q 44.140625 39.109375 41.421875 37.59375 
Q 38.71875 36.078125 34.90625 35.296875 
L 34.90625 35.109375 
Q 39.0625 34.671875 42.140625 33.21875 
Q 45.21875 31.78125 47.21875 29.625 
Q 49.21875 27.484375 50.21875 24.75 
Q 51.21875 22.015625 51.21875 19 
" id="LiberationSans-33"/>
      </defs>
      <g style="fill:#262626;" transform="translate(934.512848 331.7975)scale(0.08 -0.08)">
       <use xlink:href="#LiberationSans-30"/>
       <use x="55.615234" xlink:href="#LiberationSans-2e"/>
       <use x="83.398438" xlink:href="#LiberationSans-30"/>
       <use x="139.013672" xlink:href="#LiberationSans-33"/>
       <use x="194.628906" xlink:href="#LiberationSans-30"/>
      </g>
     </g>
    </g>
   </g>
   <g id="matplotlib.axis_2">
    <g id="ytick_1">
     <g id="line2d_15">
      <path clip-path="url(#p04622c2a1d)" d="M 144 313.58021 
L 1036.8 313.58021 
" style="fill:none;stroke:#ffffff;stroke-linecap:round;stroke-width:0.8;"/>
     </g>
     <g id="line2d_16"/>
     <g id="text_8">
      <!-- −8 -->
      <defs>
       <path d="M 4.9375 29.6875 
L 4.9375 36.8125 
L 53.515625 36.8125 
L 53.515625 29.6875 
z
" id="LiberationSans-2212"/>
       <path d="M 51.265625 19.1875 
Q 51.265625 14.796875 49.875 11.109375 
Q 48.484375 7.421875 45.625 4.734375 
Q 42.78125 2.046875 38.328125 0.53125 
Q 33.890625 -0.984375 27.828125 -0.984375 
Q 21.78125 -0.984375 17.359375 0.53125 
Q 12.9375 2.046875 10.03125 4.703125 
Q 7.125 7.375 5.734375 11.0625 
Q 4.34375 14.75 4.34375 19.09375 
Q 4.34375 22.859375 5.484375 25.78125 
Q 6.640625 28.71875 8.5625 30.828125 
Q 10.5 32.953125 12.96875 34.25 
Q 15.4375 35.546875 18.0625 35.984375 
L 18.0625 36.1875 
Q 15.1875 36.859375 12.90625 38.375 
Q 10.640625 39.890625 9.09375 42.015625 
Q 7.5625 44.140625 6.75 46.71875 
Q 5.953125 49.3125 5.953125 52.203125 
Q 5.953125 55.8125 7.34375 59 
Q 8.734375 62.203125 11.46875 64.625 
Q 14.203125 67.046875 18.25 68.4375 
Q 22.3125 69.828125 27.640625 69.828125 
Q 33.25 69.828125 37.375 68.40625 
Q 41.5 67 44.203125 64.578125 
Q 46.921875 62.15625 48.234375 58.9375 
Q 49.5625 55.71875 49.5625 52.09375 
Q 49.5625 49.265625 48.75 46.671875 
Q 47.953125 44.09375 46.40625 41.96875 
Q 44.875 39.84375 42.59375 38.34375 
Q 40.328125 36.859375 37.359375 36.28125 
L 37.359375 36.078125 
Q 40.328125 35.59375 42.859375 34.296875 
Q 45.40625 33.015625 47.265625 30.890625 
Q 49.125 28.765625 50.1875 25.828125 
Q 51.265625 22.90625 51.265625 19.1875 
M 40.4375 51.609375 
Q 40.4375 54.203125 39.765625 56.34375 
Q 39.109375 58.5 37.59375 60.03125 
Q 36.078125 61.578125 33.640625 62.421875 
Q 31.203125 63.28125 27.640625 63.28125 
Q 24.171875 63.28125 21.78125 62.421875 
Q 19.390625 61.578125 17.84375 60.03125 
Q 16.3125 58.5 15.625 56.34375 
Q 14.9375 54.203125 14.9375 51.609375 
Q 14.9375 49.5625 15.46875 47.40625 
Q 16.015625 45.265625 17.421875 43.5 
Q 18.84375 41.75 21.328125 40.625 
Q 23.828125 39.5 27.734375 39.5 
Q 31.890625 39.5 34.40625 40.625 
Q 36.921875 41.75 38.25 43.5 
Q 39.59375 45.265625 40.015625 47.40625 
Q 40.4375 49.5625 40.4375 51.609375 
M 42.140625 20.015625 
Q 42.140625 22.515625 41.453125 24.828125 
Q 40.765625 27.15625 39.109375 28.9375 
Q 37.453125 30.71875 34.640625 31.8125 
Q 31.84375 32.90625 27.640625 32.90625 
Q 23.78125 32.90625 21.0625 31.8125 
Q 18.359375 30.71875 16.671875 28.90625 
Q 14.984375 27.09375 14.203125 24.71875 
Q 13.421875 22.359375 13.421875 19.828125 
Q 13.421875 16.65625 14.203125 14.03125 
Q 14.984375 11.421875 16.6875 9.546875 
Q 18.40625 7.671875 21.1875 6.640625 
Q 23.96875 5.609375 27.9375 5.609375 
Q 31.9375 5.609375 34.671875 6.640625 
Q 37.40625 7.671875 39.0625 9.546875 
Q 40.71875 11.421875 41.421875 14.078125 
Q 42.140625 16.75 42.140625 20.015625 
" id="LiberationSans-38"/>
      </defs>
      <g style="fill:#262626;" transform="translate(129.27875 316.47896)scale(0.08 -0.08)">
       <use xlink:href="#LiberationSans-2212"/>
       <use x="58.398438" xlink:href="#LiberationSans-38"/>
      </g>
     </g>
    </g>
    <g id="ytick_2">
     <g id="line2d_17">
      <path clip-path="url(#p04622c2a1d)" d="M 144 276.194609 
L 1036.8 276.194609 
" style="fill:none;stroke:#ffffff;stroke-linecap:round;stroke-width:0.8;"/>
     </g>
     <g id="line2d_18"/>
     <g id="text_9">
      <!-- −6 -->
      <defs>
       <path d="M 51.21875 22.515625 
Q 51.21875 17.328125 49.78125 13 
Q 48.34375 8.6875 45.53125 5.578125 
Q 42.71875 2.484375 38.5625 0.75 
Q 34.421875 -0.984375 29 -0.984375 
Q 23 -0.984375 18.5 1.3125 
Q 14.015625 3.609375 11.03125 7.921875 
Q 8.0625 12.25 6.5625 18.53125 
Q 5.078125 24.8125 5.078125 32.8125 
Q 5.078125 42 6.765625 48.921875 
Q 8.453125 55.859375 11.625 60.5 
Q 14.796875 65.140625 19.359375 67.484375 
Q 23.921875 69.828125 29.6875 69.828125 
Q 33.203125 69.828125 36.28125 69.09375 
Q 39.359375 68.359375 41.875 66.71875 
Q 44.390625 65.09375 46.28125 62.40625 
Q 48.1875 59.71875 49.3125 55.8125 
L 40.921875 54.296875 
Q 39.546875 58.734375 36.546875 60.71875 
Q 33.546875 62.703125 29.59375 62.703125 
Q 25.984375 62.703125 23.046875 60.984375 
Q 20.125 59.28125 18.0625 55.875 
Q 16.015625 52.484375 14.90625 47.359375 
Q 13.8125 42.234375 13.8125 35.40625 
Q 16.21875 39.84375 20.5625 42.15625 
Q 24.90625 44.484375 30.515625 44.484375 
Q 35.203125 44.484375 39.015625 42.96875 
Q 42.828125 41.453125 45.53125 38.59375 
Q 48.25 35.75 49.734375 31.671875 
Q 51.21875 27.59375 51.21875 22.515625 
M 42.28125 22.125 
Q 42.28125 25.6875 41.40625 28.5625 
Q 40.53125 31.453125 38.765625 33.46875 
Q 37.015625 35.5 34.421875 36.59375 
Q 31.84375 37.703125 28.421875 37.703125 
Q 26.03125 37.703125 23.578125 36.984375 
Q 21.140625 36.28125 19.15625 34.6875 
Q 17.1875 33.109375 15.9375 30.515625 
Q 14.703125 27.9375 14.703125 24.21875 
Q 14.703125 20.40625 15.671875 17.109375 
Q 16.65625 13.8125 18.484375 11.375 
Q 20.3125 8.9375 22.890625 7.515625 
Q 25.484375 6.109375 28.71875 6.109375 
Q 31.890625 6.109375 34.40625 7.203125 
Q 36.921875 8.296875 38.671875 10.375 
Q 40.4375 12.453125 41.359375 15.421875 
Q 42.28125 18.40625 42.28125 22.125 
" id="LiberationSans-36"/>
      </defs>
      <g style="fill:#262626;" transform="translate(129.27875 279.093359)scale(0.08 -0.08)">
       <use xlink:href="#LiberationSans-2212"/>
       <use x="58.398438" xlink:href="#LiberationSans-36"/>
      </g>
     </g>
    </g>
    <g id="ytick_3">
     <g id="line2d_19">
      <path clip-path="url(#p04622c2a1d)" d="M 144 238.809008 
L 1036.8 238.809008 
" style="fill:none;stroke:#ffffff;stroke-linecap:round;stroke-width:0.8;"/>
     </g>
     <g id="line2d_20"/>
     <g id="text_10">
      <!-- −4 -->
      <defs>
       <path d="M 43.015625 15.578125 
L 43.015625 0 
L 34.71875 0 
L 34.71875 15.578125 
L 2.296875 15.578125 
L 2.296875 22.40625 
L 33.796875 68.796875 
L 43.015625 68.796875 
L 43.015625 22.515625 
L 52.6875 22.515625 
L 52.6875 15.578125 
z
M 34.71875 58.890625 
Q 34.625 58.640625 34.234375 57.9375 
Q 33.84375 57.234375 33.34375 56.34375 
Q 32.859375 55.46875 32.34375 54.5625 
Q 31.84375 53.65625 31.453125 53.078125 
L 13.8125 27.09375 
Q 13.578125 26.703125 13.109375 26.0625 
Q 12.640625 25.4375 12.15625 24.78125 
Q 11.671875 24.125 11.171875 23.484375 
Q 10.6875 22.859375 10.40625 22.515625 
L 34.71875 22.515625 
z
" id="LiberationSans-34"/>
      </defs>
      <g style="fill:#262626;" transform="translate(129.27875 241.707758)scale(0.08 -0.08)">
       <use xlink:href="#LiberationSans-2212"/>
       <use x="58.398438" xlink:href="#LiberationSans-34"/>
      </g>
     </g>
    </g>
    <g id="ytick_4">
     <g id="line2d_21">
      <path clip-path="url(#p04622c2a1d)" d="M 144 201.423407 
L 1036.8 201.423407 
" style="fill:none;stroke:#ffffff;stroke-linecap:round;stroke-width:0.8;"/>
     </g>
     <g id="line2d_22"/>
     <g id="text_11">
      <!-- −2 -->
      <g style="fill:#262626;" transform="translate(129.27875 204.322157)scale(0.08 -0.08)">
       <use xlink:href="#LiberationSans-2212"/>
       <use x="58.398438" xlink:href="#LiberationSans-32"/>
      </g>
     </g>
    </g>
    <g id="ytick_5">
     <g id="line2d_23">
      <path clip-path="url(#p04622c2a1d)" d="M 144 164.037806 
L 1036.8 164.037806 
" style="fill:none;stroke:#ffffff;stroke-linecap:round;stroke-width:0.8;"/>
     </g>
     <g id="line2d_24"/>
     <g id="text_12">
      <!-- 0 -->
      <g style="fill:#262626;" transform="translate(133.95125 166.936556)scale(0.08 -0.08)">
       <use xlink:href="#LiberationSans-30"/>
      </g>
     </g>
    </g>
    <g id="ytick_6">
     <g id="line2d_25">
      <path clip-path="url(#p04622c2a1d)" d="M 144 126.652205 
L 1036.8 126.652205 
" style="fill:none;stroke:#ffffff;stroke-linecap:round;stroke-width:0.8;"/>
     </g>
     <g id="line2d_26"/>
     <g id="text_13">
      <!-- 2 -->
      <g style="fill:#262626;" transform="translate(133.95125 129.550955)scale(0.08 -0.08)">
       <use xlink:href="#LiberationSans-32"/>
      </g>
     </g>
    </g>
    <g id="ytick_7">
     <g id="line2d_27">
      <path clip-path="url(#p04622c2a1d)" d="M 144 89.266604 
L 1036.8 89.266604 
" style="fill:none;stroke:#ffffff;stroke-linecap:round;stroke-width:0.8;"/>
     </g>
     <g id="line2d_28"/>
     <g id="text_14">
      <!-- 4 -->
      <g style="fill:#262626;" transform="translate(133.95125 92.165354)scale(0.08 -0.08)">
       <use xlink:href="#LiberationSans-34"/>
      </g>
     </g>
    </g>
    <g id="ytick_8">
     <g id="line2d_29">
      <path clip-path="url(#p04622c2a1d)" d="M 144 51.881003 
L 1036.8 51.881003 
" style="fill:none;stroke:#ffffff;stroke-linecap:round;stroke-width:0.8;"/>
     </g>
     <g id="line2d_30"/>
     <g id="text_15">
      <!-- 6 -->
      <g style="fill:#262626;" transform="translate(133.95125 54.779753)scale(0.08 -0.08)">
       <use xlink:href="#LiberationSans-36"/>
      </g>
     </g>
    </g>
   </g>
   <g id="line2d_31">
    <path clip-path="url(#p04622c2a1d)" d="M 184.581818 307.8 
L 186.305038 223.467239 
L 186.879444 201.540889 
L 187.453851 186.794723 
L 188.028257 180.160831 
L 188.602664 181.221892 
L 189.17707 188.283364 
L 190.325883 209.239341 
L 190.90029 216.882723 
L 191.474696 219.148665 
L 192.049102 214.650309 
L 192.623509 203.319736 
L 193.772322 166.297646 
L 194.921135 128.616718 
L 195.495541 116.875847 
L 196.069948 112.499611 
L 196.644354 115.961808 
L 197.218761 126.382668 
L 199.516387 186.854991 
L 200.090793 192.390414 
L 200.6652 190.639929 
L 201.239606 181.991042 
L 202.388419 151.620568 
L 202.962826 135.654442 
L 203.537232 123.250517 
L 204.111639 116.81582 
L 204.686045 117.682639 
L 205.260452 125.863343 
L 205.834858 140.04417 
L 207.558078 191.775713 
L 208.132484 202.068167 
L 208.706891 205.235743 
L 209.281297 200.782059 
L 209.855704 189.565079 
L 212.153329 127.338678 
L 212.727736 121.557178 
L 213.302142 123.062026 
L 213.876549 131.427465 
L 215.025362 160.987051 
L 215.599768 176.377612 
L 216.174175 188.073833 
L 216.748581 193.664222 
L 217.322988 191.817941 
L 217.897394 182.527686 
L 218.471801 167.113353 
L 220.19502 110.970376 
L 220.769427 98.964394 
L 221.343833 93.95116 
L 221.91824 96.419322 
L 222.492646 105.505468 
L 224.790272 157.840135 
L 225.364679 160.888432 
L 225.939085 156.599734 
L 226.513492 145.431454 
L 227.662305 110.326804 
L 228.236711 92.242056 
L 228.811118 77.926602 
L 229.385524 69.80224 
L 229.959931 69.206311 
L 230.534337 76.150962 
L 231.108743 89.32185 
L 232.831963 139.454181 
L 233.406369 149.755246 
L 233.980776 153.25214 
L 234.555182 149.482091 
L 235.129589 139.332435 
L 236.852808 94.890483 
L 237.427215 85.412718 
L 238.001621 82.643478 
L 238.576028 87.461796 
L 239.150434 99.394029 
L 240.299247 136.667834 
L 241.44806 172.020599 
L 242.022467 181.902951 
L 242.596873 184.443944 
L 243.17128 179.631162 
L 243.745686 168.776013 
L 245.468906 126.583669 
L 246.043312 119.190217 
L 246.617719 118.681592 
L 247.192125 125.485486 
L 247.766532 138.679588 
L 249.489751 192.021502 
L 250.064157 204.317154 
L 250.638564 209.809011 
L 251.21297 207.611835 
L 251.787377 198.194346 
L 252.93619 165.60366 
L 253.510596 148.28305 
L 254.085003 134.389611 
L 254.659409 126.325484 
L 255.233816 125.404423 
L 255.808222 131.615688 
L 256.382629 143.627818 
L 258.105848 187.733064 
L 258.680255 195.246227 
L 259.254661 195.633985 
L 259.829068 188.486882 
L 260.403474 174.746881 
L 262.7011 105.218721 
L 263.275507 98.374322 
L 263.849913 99.074793 
L 264.42432 106.854545 
L 264.998726 119.98229 
L 266.147539 151.097283 
L 266.721946 162.909567 
L 267.296352 168.842286 
L 267.870759 167.615789 
L 268.445165 159.276236 
L 269.019572 145.1891 
L 270.742791 95.450227 
L 271.317197 86.315897 
L 271.891604 84.450332 
L 272.46601 90.266196 
L 273.040417 102.824005 
L 275.338043 169.250289 
L 275.912449 175.793786 
L 276.486856 175.019456 
L 277.061262 167.411285 
L 278.210075 139.619055 
L 278.784482 125.266614 
L 279.358888 114.682817 
L 279.933295 110.224996 
L 280.507701 113.152872 
L 281.082108 123.397357 
L 281.656514 139.569671 
L 283.379734 196.452309 
L 283.95414 208.220491 
L 284.528547 212.834044 
L 285.102953 209.875633 
L 285.67736 200.278681 
L 287.974986 146.450273 
L 288.549392 143.124329 
L 289.123798 147.078936 
L 289.698205 157.795278 
L 290.847018 191.463941 
L 291.421424 208.536814 
L 291.995831 221.675253 
L 292.570237 228.514571 
L 293.144644 227.792472 
L 293.71905 219.578043 
L 294.293457 205.260195 
L 296.016676 152.849475 
L 296.591083 142.176091 
L 297.165489 138.435298 
L 297.739896 142.028613 
L 298.314302 152.009282 
L 300.037522 195.658741 
L 300.611928 204.798978 
L 301.186335 207.270511 
L 301.760741 202.265353 
L 302.335148 190.329019 
L 303.483961 153.813033 
L 304.058367 135.154481 
L 304.632774 120.342309 
L 305.20718 111.75072 
L 305.781587 110.648837 
L 306.355993 116.973899 
L 306.9304 129.3452 
L 308.653619 175.723061 
L 309.228025 184.39919 
L 309.802432 186.200692 
L 310.376838 180.760143 
L 310.951245 169.057089 
L 312.674464 121.247656 
L 313.248871 111.109319 
L 313.823277 107.843518 
L 314.397684 112.256492 
L 314.97209 123.799035 
L 316.120903 160.112398 
L 317.269716 194.175386 
L 317.844123 203.38097 
L 318.418529 205.324254 
L 318.992936 200.079195 
L 319.567342 189.034352 
L 321.290562 148.100835 
L 321.864968 141.686212 
L 322.439375 142.332 
L 323.013781 150.37669 
L 323.588188 164.81107 
L 325.311407 221.319654 
L 325.885814 234.462907 
L 326.46022 240.766337 
L 327.034627 239.416248 
L 327.609033 230.95441 
L 328.757846 200.812665 
L 329.332252 185.017975 
L 329.906659 172.814546 
L 330.481065 166.536681 
L 331.055472 167.409434 
L 331.629878 175.32665 
L 332.204285 188.870135 
L 333.927504 236.046516 
L 334.501911 244.089351 
L 335.076317 244.844575 
L 335.650724 237.979924 
L 336.22513 224.512048 
L 337.94835 169.668599 
L 338.522756 156.666727 
L 339.097163 150.288127 
L 339.671569 151.338367 
L 340.245976 159.269177 
L 341.394789 187.651717 
L 341.969195 202.232885 
L 342.543602 213.022309 
L 343.118008 217.710719 
L 343.692415 215.102795 
L 344.266821 205.336631 
L 344.841228 189.861862 
L 346.564447 136.658476 
L 347.138854 126.590282 
L 347.71326 123.820317 
L 348.287666 128.688125 
L 348.862073 140.184784 
L 350.585292 189.395471 
L 351.159699 200.67989 
L 351.734105 205.465545 
L 352.308512 202.97699 
L 352.882918 193.791509 
L 354.031731 163.545725 
L 354.606138 148.387304 
L 355.180544 137.265167 
L 355.754951 132.48593 
L 356.329357 135.236997 
L 356.903764 145.369416 
L 357.47817 161.422274 
L 359.20139 217.554488 
L 359.775796 228.990376 
L 360.350203 233.3283 
L 360.924609 230.232817 
L 361.499016 220.714598 
L 363.222235 178.613754 
L 363.796642 170.035672 
L 364.371048 168.080611 
L 364.945455 173.491088 
L 365.519861 185.655947 
L 367.817487 254.099233 
L 368.391893 261.758543 
L 368.9663 261.825664 
L 369.540706 254.443057 
L 370.115113 241.064219 
L 371.838332 192.372059 
L 372.412739 183.156725 
L 372.987145 180.867447 
L 373.561552 185.812491 
L 374.135958 196.956298 
L 375.859178 242.423765 
L 376.433584 251.601855 
L 377.007991 253.904508 
L 377.582397 248.602363 
L 378.156804 236.321816 
L 379.305617 199.22271 
L 379.880023 180.377553 
L 380.45443 165.426735 
L 381.028836 156.689319 
L 381.603243 155.359788 
L 382.177649 161.295361 
L 382.752056 173.045204 
L 384.475275 215.869782 
L 385.049682 222.872979 
L 385.624088 222.871887 
L 386.198494 215.593057 
L 386.772901 202.1065 
L 388.49612 149.846083 
L 389.070527 138.550236 
L 389.644933 134.222874 
L 390.21934 137.599279 
L 390.793746 148.058017 
L 391.942559 181.854032 
L 392.516966 199.241693 
L 393.091372 212.88775 
L 393.665779 220.495392 
L 394.240185 220.894099 
L 394.814592 214.249866 
L 395.388998 202.033363 
L 396.537811 171.493219 
L 397.112218 159.365043 
L 397.686624 152.929518 
L 398.261031 153.73715 
L 398.835437 162.043205 
L 399.409844 176.75836 
L 401.133063 233.750077 
L 401.70747 246.936387 
L 402.281876 253.302731 
L 402.856283 252.111795 
L 403.430689 243.981829 
L 404.579502 215.24105 
L 405.153909 200.54907 
L 405.728315 189.679277 
L 406.302721 184.897686 
L 406.877128 187.340411 
L 407.451534 196.806003 
L 408.025941 211.790006 
L 409.174754 247.590688 
L 409.74916 262.170791 
L 410.323567 270.922563 
L 410.897973 272.289361 
L 411.47238 266.012599 
L 412.046786 253.178699 
L 413.770006 200.876433 
L 414.344412 188.893191 
L 414.918819 183.519758 
L 415.493225 185.473098 
L 416.067632 194.116413 
L 417.216445 223.086352 
L 417.790851 237.486272 
L 418.365258 247.800665 
L 418.939664 251.778288 
L 419.514071 248.302957 
L 420.088477 237.598772 
L 421.23729 201.64291 
L 422.386103 165.632401 
L 422.96051 154.889959 
L 423.534916 151.411572 
L 424.109323 155.460276 
L 424.683729 165.955798 
L 426.406948 210.710533 
L 426.981355 220.073461 
L 427.555761 222.824601 
L 428.130168 218.281982 
L 428.704574 207.117122 
L 431.0022 144.575001 
L 431.576607 138.773414 
L 432.151013 140.593564 
L 432.72542 149.811526 
L 433.299826 164.900431 
L 435.023046 217.571601 
L 435.597452 227.739497 
L 436.171859 230.862817 
L 436.746265 226.694616 
L 437.320672 216.328485 
L 439.043891 173.501115 
L 439.618298 165.271807 
L 440.192704 163.871071 
L 440.767111 169.956095 
L 441.341517 182.828953 
L 443.639143 253.404345 
L 444.21355 261.437107 
L 444.787956 261.919727 
L 445.362362 255.069814 
L 445.936769 242.405745 
L 447.659988 197.19394 
L 448.234395 189.493758 
L 448.808801 188.776815 
L 449.383208 195.255795 
L 449.957614 207.804423 
L 451.680834 256.155468 
L 452.25524 265.833487 
L 452.829647 268.477641 
L 453.404053 263.432437 
L 453.97846 251.399134 
L 455.127273 214.982926 
L 455.701679 196.609262 
L 456.276086 182.183355 
L 456.850492 173.961122 
L 457.424899 173.055189 
L 457.999305 179.236535 
L 458.573712 190.978999 
L 459.722525 220.416869 
L 460.296931 231.925065 
L 460.871338 237.746005 
L 461.445744 236.393004 
L 462.020151 227.682188 
L 462.594557 212.769099 
L 464.317776 156.779948 
L 464.892183 144.434959 
L 465.466589 139.082268 
L 466.040996 141.384614 
L 466.615402 150.648272 
L 467.764215 181.489859 
L 468.338622 197.09325 
L 468.913028 208.792524 
L 469.487435 214.361749 
L 470.061841 212.720708 
L 470.636248 204.130692 
L 471.210654 190.147303 
L 472.359467 156.82094 
L 472.933874 143.692489 
L 473.50828 136.473485 
L 474.082687 136.647932 
L 474.657093 144.393626 
L 475.2315 158.548028 
L 476.954719 213.460588 
L 477.529126 225.851646 
L 478.103532 231.463798 
L 478.677939 229.642803 
L 479.252345 221.08896 
L 480.401158 192.354992 
L 480.975565 178.133841 
L 481.549971 168.012983 
L 482.124378 164.192981 
L 482.698784 167.724207 
L 483.273191 178.313596 
L 484.422003 213.31086 
L 485.570816 247.276834 
L 486.145223 256.657532 
L 486.719629 258.632996 
L 487.294036 253.018187 
L 487.868442 240.967641 
L 489.591662 192.071158 
L 490.166068 181.517962 
L 490.740475 177.614438 
L 491.314881 180.984399 
L 491.889288 190.898502 
L 494.186914 247.125971 
L 494.76132 251.122384 
L 495.335727 247.530352 
L 495.910133 236.653524 
L 497.058946 200.442271 
L 498.207759 164.449461 
L 498.782166 153.751024 
L 499.356572 150.249551 
L 499.930979 154.125714 
L 500.505385 164.223269 
L 502.228605 206.0406 
L 502.803011 213.884112 
L 503.377417 214.947521 
L 503.951824 208.639989 
L 504.52623 195.724503 
L 506.823856 127.417187 
L 507.398263 120.478123 
L 507.972669 121.179908 
L 508.547076 129.225498 
L 509.121482 143.025388 
L 510.844702 190.90737 
L 511.419108 199.266402 
L 511.993515 200.594905 
L 512.567921 194.739622 
L 513.142328 182.88165 
L 514.865547 137.258223 
L 515.439954 128.655155 
L 516.01436 127.077645 
L 516.588767 133.10347 
L 517.163173 145.954789 
L 519.460799 215.944857 
L 520.035206 223.761564 
L 520.609612 224.119659 
L 521.184019 217.316641 
L 521.758425 204.939198 
L 522.907238 174.330876 
L 523.481644 162.288146 
L 524.056051 155.921665 
L 524.630457 156.659706 
L 525.204864 164.620731 
L 525.77927 178.589477 
L 527.50249 230.292021 
L 528.076896 240.771038 
L 528.651303 244.130259 
L 529.225709 239.786054 
L 529.800116 228.511051 
L 532.097742 163.577635 
L 532.672148 156.62799 
L 533.246555 156.932649 
L 533.820961 164.170755 
L 534.395368 176.735911 
L 535.544181 206.929765 
L 536.118587 218.365486 
L 536.692994 223.867818 
L 537.2674 222.023071 
L 537.841807 212.730797 
L 538.416213 197.225115 
L 540.139433 139.832838 
L 540.713839 127.129975 
L 541.288246 121.390342 
L 541.862652 123.199322 
L 542.437058 131.787494 
L 543.585871 160.523405 
L 544.160278 174.670588 
L 544.734684 184.687133 
L 545.309091 188.418272 
L 545.883497 184.87414 
L 546.457904 174.411012 
L 547.606717 140.275885 
L 548.181123 122.375333 
L 548.75553 108.057071 
L 549.329936 99.799864 
L 549.904343 99.023358 
L 550.478749 105.831436 
L 551.053156 118.993301 
L 552.776375 170.270027 
L 553.350782 181.284529 
L 553.925188 185.542202 
L 554.499595 182.478396 
L 555.074001 172.881173 
L 557.371627 118.578832 
L 557.946034 115.135066 
L 558.52044 119.190393 
L 559.094847 130.366188 
L 560.24366 166.44476 
L 561.392472 201.186691 
L 561.966879 210.897095 
L 562.541285 213.247494 
L 563.115692 208.129732 
L 563.690098 196.768334 
L 565.413318 151.419746 
L 565.987724 142.481931 
L 566.562131 140.300252 
L 567.136537 145.404231 
L 567.710944 156.971227 
L 570.00857 217.907156 
L 570.582976 222.617155 
L 571.157383 219.659151 
L 571.731789 209.411386 
L 572.880602 174.675108 
L 574.029415 140.548268 
L 574.603822 130.842109 
L 575.178228 128.271947 
L 575.752635 132.929607 
L 576.327041 143.577292 
L 578.050261 185.220811 
L 578.624667 192.425695 
L 579.199074 192.654793 
L 579.77348 185.403321 
L 580.347887 171.520013 
L 582.645512 100.071984 
L 583.219919 92.496111 
L 583.794325 92.509734 
L 584.368732 99.74095 
L 584.943138 112.537352 
L 586.091951 143.798643 
L 586.666358 156.066427 
L 587.240764 162.629937 
L 587.815171 162.115208 
L 588.389577 154.464815 
L 588.963984 140.949108 
L 590.687203 91.69987 
L 591.26161 82.342221 
L 591.836016 80.160167 
L 592.410423 85.656892 
L 592.984829 97.980735 
L 595.282455 165.155348 
L 595.856862 172.188085 
L 596.431268 171.864809 
L 597.005675 164.569031 
L 597.580081 151.96086 
L 598.728894 121.833637 
L 599.303301 110.492425 
L 599.877707 105.07017 
L 600.452113 106.915063 
L 601.02652 116.055896 
L 601.600926 131.193504 
L 603.324146 185.853473 
L 603.898552 197.138351 
L 604.472959 201.291543 
L 605.047365 197.802826 
L 605.621772 187.516216 
L 607.919398 128.497583 
L 608.493804 123.389343 
L 609.068211 125.530369 
L 609.642617 134.504865 
L 610.79143 165.229349 
L 611.365837 181.178803 
L 611.940243 193.411322 
L 612.51465 199.504091 
L 613.089056 198.111736 
L 613.663463 189.211389 
L 614.237869 174.108762 
L 615.961089 118.352254 
L 616.535495 106.293451 
L 617.109902 101.150072 
L 617.684308 103.423534 
L 618.258715 112.263231 
L 620.55634 163.240586 
L 621.130747 165.852527 
L 621.705153 161.073219 
L 622.27956 149.350065 
L 623.428373 112.916166 
L 624.002779 94.055584 
L 624.577186 78.898702 
L 625.151592 69.880344 
L 625.725999 68.354448 
L 626.300405 74.351148 
L 626.874812 86.573069 
L 628.598031 133.965073 
L 629.172438 143.399832 
L 629.746844 146.047775 
L 630.321251 141.438216 
L 630.895657 130.450832 
L 632.618877 83.476874 
L 633.193283 73.16308 
L 633.76769 69.580861 
L 634.342096 73.625216 
L 634.916503 84.838508 
L 636.065316 120.889877 
L 637.214129 155.341115 
L 637.788535 164.884178 
L 638.362942 167.146204 
L 638.937348 162.10169 
L 639.511754 151.049693 
L 641.234974 108.404465 
L 641.80938 100.906042 
L 642.383787 100.32641 
L 642.958193 107.103306 
L 643.5326 120.32371 
L 645.255819 174.102433 
L 645.830226 186.649083 
L 646.404632 192.424516 
L 646.979039 190.526195 
L 647.553445 181.405049 
L 648.702258 149.339878 
L 649.276665 132.229759 
L 649.851071 118.508625 
L 650.425478 110.582493 
L 650.999884 109.772448 
L 651.574291 116.076415 
L 652.148697 128.170598 
L 653.871917 172.479781 
L 654.446323 180.02943 
L 655.02073 180.418158 
L 655.595136 173.221204 
L 656.169543 159.366064 
L 658.467169 88.576315 
L 659.041575 81.227357 
L 659.615981 81.368654 
L 660.190388 88.548756 
L 660.764794 101.048955 
L 661.913607 130.856431 
L 662.488014 141.991945 
L 663.06242 147.226727 
L 663.636827 145.272658 
L 664.211233 136.166602 
L 664.78564 121.266243 
L 666.508859 68.791978 
L 667.083266 58.669194 
L 667.657672 55.8 
L 668.232079 60.615024 
L 668.806485 72.192303 
L 671.104111 135.121154 
L 671.678518 140.906524 
L 672.252924 139.408947 
L 672.827331 131.103386 
L 673.976144 101.968421 
L 674.55055 86.968268 
L 675.124957 75.759403 
L 675.699363 70.71007 
L 676.27377 73.093774 
L 676.848176 82.855892 
L 677.422583 98.620415 
L 679.145802 154.788786 
L 679.720208 166.480691 
L 680.294615 171.081955 
L 680.869021 168.160497 
L 681.443428 158.635062 
L 683.166647 114.900714 
L 683.741054 105.258803 
L 684.31546 102.083831 
L 684.889867 106.217063 
L 685.464273 117.148245 
L 686.613086 151.376429 
L 687.187493 168.792964 
L 687.761899 182.307777 
L 688.336306 189.542478 
L 688.910712 189.217813 
L 689.485119 181.384871 
L 690.059525 167.415939 
L 691.782745 115.752012 
L 692.357151 105.219923 
L 692.931558 101.575238 
L 693.505964 105.229003 
L 694.080371 115.243821 
L 695.80359 158.885768 
L 696.377997 167.979359 
L 696.952403 170.36693 
L 697.526809 165.227132 
L 698.101216 153.092287 
L 699.250029 115.949392 
L 699.824435 96.855727 
L 700.398842 81.532655 
L 700.973248 72.365119 
L 701.547655 70.636632 
L 702.122061 76.300275 
L 702.696468 87.990241 
L 704.419687 132.298702 
L 704.994094 140.283138 
L 705.5685 141.384072 
L 706.142907 135.225726 
L 706.717313 122.77996 
L 708.440533 72.568788 
L 709.014939 61.589546 
L 709.589346 57.483904 
L 710.163752 61.075541 
L 710.738159 71.83281 
L 711.886972 106.74071 
L 712.461378 124.989274 
L 713.035785 139.663928 
L 713.610191 148.395472 
L 714.184598 149.917744 
L 714.759004 144.294249 
L 715.333411 132.904034 
L 717.05663 91.091458 
L 717.631036 84.446463 
L 718.205443 84.909026 
L 718.779849 92.830303 
L 719.354256 107.21275 
L 721.077475 164.052702 
L 721.651882 177.460648 
L 722.226288 184.08831 
L 722.800695 183.106087 
L 723.375101 175.039278 
L 724.523914 145.714226 
L 725.098321 130.324507 
L 725.672727 118.521386 
L 726.247134 112.643344 
L 726.82154 113.922695 
L 727.395947 122.261478 
L 727.970353 136.248299 
L 729.693573 184.893239 
L 730.267979 193.448541 
L 730.842386 194.70465 
L 731.416792 188.311924 
L 731.991199 175.270449 
L 734.288825 108.483934 
L 734.863231 102.207759 
L 735.437638 103.311373 
L 736.012044 111.257744 
L 737.160857 139.592504 
L 737.735263 154.117303 
L 738.30967 164.825031 
L 738.884076 169.39804 
L 739.458483 166.629896 
L 740.032889 156.647022 
L 740.607296 140.889191 
L 742.330515 86.406393 
L 742.904922 75.785756 
L 743.479328 72.421656 
L 744.053735 76.670646 
L 744.628141 87.540468 
L 746.351361 134.939799 
L 746.925767 145.657783 
L 747.500174 149.89059 
L 748.07458 146.85502 
L 748.648987 137.120411 
L 749.7978 105.75058 
L 750.372206 90.01867 
L 750.946613 78.32516 
L 751.521019 72.989896 
L 752.095426 75.216428 
L 752.669832 84.872635 
L 753.244239 100.512717 
L 754.967458 155.872363 
L 755.541865 167.206159 
L 756.116271 171.507067 
L 756.690677 168.427659 
L 757.265084 158.966805 
L 758.988303 117.213689 
L 759.56271 108.809367 
L 760.137116 107.068006 
L 760.711523 112.74282 
L 761.285929 125.233108 
L 762.434742 162.346734 
L 763.009149 181.018566 
L 763.583555 195.673932 
L 764.157962 203.981526 
L 764.732368 204.72952 
L 765.306775 198.04275 
L 765.881181 185.358352 
L 767.604401 138.63682 
L 768.178807 130.032049 
L 768.753214 128.337484 
L 769.32762 133.869585 
L 769.902027 145.600452 
L 771.625246 192.855302 
L 772.199653 202.622138 
L 772.774059 205.490353 
L 773.348466 200.71456 
L 773.922872 188.905345 
L 775.071685 152.535411 
L 775.646091 133.936388 
L 776.220498 119.154714 
L 776.794904 110.517625 
L 777.369311 109.231345 
L 777.943717 115.166201 
L 778.518124 126.883466 
L 780.241343 169.485626 
L 780.81575 176.371115 
L 781.390156 176.218897 
L 781.964563 168.745424 
L 782.538969 155.011633 
L 784.262189 101.661054 
L 784.836595 89.901661 
L 785.411002 85.081634 
L 785.985408 87.953745 
L 786.559815 97.914274 
L 787.708628 130.790278 
L 788.283034 147.773712 
L 788.857441 161.055309 
L 789.431847 168.333958 
L 790.006254 168.431609 
L 790.58066 161.505663 
L 791.155067 149.019463 
L 792.30388 117.964769 
L 792.878286 105.598535 
L 793.452693 98.95058 
L 794.027099 99.585581 
L 794.601506 107.774249 
L 795.175912 122.4416 
L 796.899131 179.790962 
L 797.473538 193.263487 
L 798.047944 199.986018 
L 798.622351 199.20781 
L 799.196757 191.533156 
L 800.34557 163.785881 
L 800.919977 149.620186 
L 801.494383 139.296856 
L 802.06879 135.087924 
L 802.643196 138.138269 
L 803.217603 148.255763 
L 803.792009 163.943496 
L 805.515229 216.756727 
L 806.089635 226.402593 
L 806.664042 228.68131 
L 807.238448 223.316269 
L 807.812855 211.376582 
L 809.536074 161.533168 
L 810.110481 150.281563 
L 810.684887 145.601849 
L 811.259294 148.21955 
L 811.8337 157.506751 
L 812.982513 187.726788 
L 813.55692 202.734026 
L 814.131326 213.636171 
L 814.705732 218.170556 
L 815.280139 215.206922 
L 815.854545 204.95488 
L 816.428952 188.929104 
L 818.152171 134.0195 
L 818.726578 123.340658 
L 819.300984 119.866707 
L 819.875391 123.875443 
L 820.449797 134.301019 
L 822.173017 178.762171 
L 822.747423 188.00742 
L 823.32183 190.623466 
L 823.896236 185.919668 
L 824.470643 174.559072 
L 826.768269 110.839537 
L 827.342675 104.677358 
L 827.917082 106.139327 
L 828.491488 115.019498 
L 829.065895 129.807346 
L 830.789114 181.894973 
L 831.363521 191.980651 
L 831.937927 195.068633 
L 832.512334 190.902416 
L 833.08674 180.566481 
L 834.809959 137.956598 
L 835.384366 129.851738 
L 835.958772 128.617536 
L 836.533179 134.924747 
L 837.107585 148.088566 
L 839.405211 220.647187 
L 839.979618 229.365963 
L 840.554024 230.587576 
L 841.128431 224.513866 
L 841.702837 212.648638 
L 843.426057 169.880904 
L 844.000463 163.006752 
L 844.57487 163.130152 
L 845.149276 170.472216 
L 845.723683 183.914152 
L 847.446902 235.145517 
L 848.021309 245.830861 
L 848.595715 249.483915 
L 849.170122 245.43157 
L 849.744528 234.357624 
L 850.893341 199.704257 
L 851.467748 182.118658 
L 852.042154 168.417835 
L 852.616561 160.863596 
L 853.190967 160.57779 
L 853.765373 167.34176 
L 854.33978 179.638507 
L 855.488593 210.118847 
L 856.062999 222.112569 
L 856.637406 228.385408 
L 857.211812 227.438981 
L 857.786219 219.076624 
L 858.360625 204.44236 
L 860.083845 148.818034 
L 860.658251 136.447397 
L 861.232658 131.013696 
L 861.807064 133.195666 
L 862.381471 142.31588 
L 863.530284 172.854368 
L 864.10469 188.313524 
L 864.679097 199.874992 
L 865.253503 205.308172 
L 865.82791 203.525329 
L 866.402316 194.779575 
L 866.976723 180.619995 
L 868.125536 146.873655 
L 868.699942 133.51138 
L 869.274349 126.057906 
L 869.848755 126.013354 
L 870.423162 133.572967 
L 870.997568 147.59057 
L 872.720787 202.492901 
L 873.295194 215.02133 
L 873.8696 220.831779 
L 874.444007 219.259284 
L 875.018413 210.993064 
L 876.167226 182.91902 
L 876.741633 169.064467 
L 877.316039 159.33917 
L 877.890446 155.952565 
L 878.464852 159.966407 
L 879.039259 171.099296 
L 880.188072 207.400497 
L 881.336885 242.968261 
L 881.911291 253.243483 
L 882.485698 256.156844 
L 883.060104 251.506259 
L 883.634511 240.429832 
L 885.35773 194.402949 
L 885.932137 184.776405 
L 886.506543 181.79044 
L 887.08095 186.076742 
L 887.655356 196.913765 
L 889.952982 256.939689 
L 890.527389 261.880044 
L 891.101795 259.201837 
L 891.676202 249.191871 
L 892.250608 233.432611 
L 893.973827 179.756705 
L 894.548234 169.564051 
L 895.12264 166.507133 
L 895.697047 170.778587 
L 896.271453 181.233673 
L 897.994673 223.963284 
L 898.569079 232.05589 
L 899.143486 233.328987 
L 899.717892 227.18083 
L 900.292299 214.364016 
L 902.589925 145.767869 
L 903.164331 138.613351 
L 903.738738 139.069991 
L 904.313144 146.858282 
L 904.887551 160.404736 
L 906.61077 207.648024 
L 907.185177 215.841391 
L 907.759583 217.019846 
L 908.33399 211.021875 
L 908.908396 199.021136 
L 910.631616 152.947899 
L 911.206022 144.205536 
L 911.780428 142.514504 
L 912.354835 148.468758 
L 912.929241 161.306154 
L 915.226867 231.998481 
L 915.801274 240.178087 
L 916.37568 240.956101 
L 916.950087 234.616995 
L 917.524493 222.735685 
L 918.673306 193.187177 
L 919.247713 181.705752 
L 919.822119 175.927949 
L 920.396526 177.291157 
L 920.970932 185.924002 
L 921.545339 200.620086 
L 923.268558 254.865635 
L 923.842965 266.294665 
L 924.417371 270.633347 
L 924.991778 267.280416 
L 925.566184 256.990915 
L 926.714997 224.357374 
L 927.289404 208.029377 
L 927.86381 195.707799 
L 928.438217 189.583367 
L 929.012623 190.688285 
L 929.58703 198.710191 
L 930.161436 212.049656 
L 931.310249 243.772469 
L 931.884655 255.954675 
L 932.459062 262.177872 
L 933.033468 261.01383 
L 933.607875 252.346543 
L 934.182281 237.395945 
L 935.905501 181.170341 
L 936.479907 168.691941 
L 937.054314 163.108714 
L 937.62872 165.019525 
L 938.203127 173.668693 
L 939.35194 202.446929 
L 939.926346 216.585998 
L 940.500753 226.573521 
L 941.075159 230.248194 
L 941.649566 226.61111 
L 942.223972 216.009209 
L 943.372785 181.433972 
L 943.947192 163.230963 
L 944.521598 148.563891 
L 945.096005 139.924522 
L 945.670411 138.749098 
L 946.244818 145.159534 
L 946.819224 157.942086 
L 948.542444 208.304241 
L 949.11685 219.099686 
L 949.691257 223.174366 
L 950.265663 219.954944 
L 950.840069 210.220753 
L 953.137695 155.492719 
L 953.712102 151.997965 
L 954.286508 156.0485 
L 954.860915 167.280164 
L 956.009728 203.697177 
L 957.158541 239.104589 
L 957.732947 249.258091 
L 958.307354 252.109147 
L 958.88176 247.534833 
L 959.456167 236.745504 
L 961.179386 193.194138 
L 961.753793 184.876364 
L 962.328199 183.33349 
L 962.902606 189.10384 
L 963.477012 201.373096 
L 965.774638 265.515918 
L 966.349045 271.091792 
L 966.923451 268.995651 
L 967.497858 259.587784 
L 968.072264 244.513353 
L 969.795483 193.609919 
L 970.36989 184.486851 
L 970.944296 182.453916 
L 971.518703 187.612465 
L 972.093109 198.733515 
L 973.816329 241.668425 
L 974.390735 249.248972 
L 974.965142 249.809339 
L 975.539548 242.830981 
L 976.113955 229.149578 
L 978.411581 157.673741 
L 978.985987 149.899172 
L 979.560394 149.66107 
L 980.1348 156.603175 
L 980.709207 169.087264 
L 981.85802 199.692164 
L 982.432426 211.622224 
L 983.006833 217.837671 
L 983.581239 216.957162 
L 984.155646 208.914772 
L 984.730052 194.973569 
L 986.453272 144.232707 
L 987.027678 134.327645 
L 987.602085 131.595835 
L 988.176491 136.558187 
L 988.750898 148.380344 
L 991.048523 214.091717 
L 991.62293 220.90237 
L 992.197336 220.401291 
L 992.771743 212.961713 
L 993.346149 200.234934 
L 994.494962 169.929444 
L 995.069369 158.532547 
L 995.643775 153.087475 
L 996.218182 154.954439 
L 996.218182 154.954439 
" style="fill:none;stroke:#4c72b0;stroke-linecap:round;stroke-width:1.4;"/>
   </g>
   <g id="line2d_32">
    <path clip-path="url(#p04622c2a1d)" d="M 184.581818 164.149963 
L 996.218182 164.149963 
L 996.218182 164.149963 
" style="fill:none;stroke:#55a868;stroke-linecap:round;stroke-width:1.4;"/>
   </g>
   <g id="patch_3">
    <path d="M 144 320.4 
L 144 43.2 
" style="fill:none;"/>
   </g>
   <g id="patch_4">
    <path d="M 1036.8 320.4 
L 1036.8 43.2 
" style="fill:none;"/>
   </g>
   <g id="patch_5">
    <path d="M 144 320.4 
L 1036.8 320.4 
" style="fill:none;"/>
   </g>
   <g id="patch_6">
    <path d="M 144 43.2 
L 1036.8 43.2 
" style="fill:none;"/>
   </g>
   <g id="legend_1">
    <g id="line2d_33">
     <path d="M 1002.75125 53.3975 
L 1018.75125 53.3975 
" style="fill:none;stroke:#4c72b0;stroke-linecap:round;stroke-width:1.4;"/>
    </g>
    <g id="line2d_34"/>
    <g id="text_16">
     <!-- a -->
     <defs>
      <path d="M 20.21875 -0.984375 
Q 12.25 -0.984375 8.25 3.21875 
Q 4.25 7.421875 4.25 14.75 
Q 4.25 19.96875 6.21875 23.3125 
Q 8.203125 26.65625 11.390625 28.5625 
Q 14.59375 30.46875 18.6875 31.203125 
Q 22.796875 31.9375 27.046875 32.03125 
L 38.921875 32.234375 
L 38.921875 35.109375 
Q 38.921875 38.375 38.234375 40.671875 
Q 37.546875 42.96875 36.125 44.375 
Q 34.71875 45.796875 32.59375 46.453125 
Q 30.46875 47.125 27.59375 47.125 
Q 25.046875 47.125 23 46.75 
Q 20.953125 46.390625 19.4375 45.4375 
Q 17.921875 44.484375 16.984375 42.84375 
Q 16.0625 41.21875 15.765625 38.71875 
L 6.59375 39.546875 
Q 7.078125 42.671875 8.4375 45.28125 
Q 9.8125 47.90625 12.328125 49.796875 
Q 14.84375 51.703125 18.625 52.75 
Q 22.40625 53.8125 27.78125 53.8125 
Q 37.75 53.8125 42.765625 49.234375 
Q 47.796875 44.671875 47.796875 36.03125 
L 47.796875 13.28125 
Q 47.796875 9.375 48.828125 7.390625 
Q 49.859375 5.421875 52.734375 5.421875 
Q 53.46875 5.421875 54.203125 5.515625 
Q 54.9375 5.609375 55.609375 5.765625 
L 55.609375 0.296875 
Q 53.953125 -0.09375 52.3125 -0.28125 
Q 50.6875 -0.484375 48.828125 -0.484375 
Q 46.34375 -0.484375 44.5625 0.171875 
Q 42.78125 0.828125 41.65625 2.171875 
Q 40.53125 3.515625 39.9375 5.484375 
Q 39.359375 7.46875 39.203125 10.109375 
L 38.921875 10.109375 
Q 37.5 7.5625 35.8125 5.515625 
Q 34.125 3.46875 31.875 2.03125 
Q 29.640625 0.59375 26.78125 -0.1875 
Q 23.921875 -0.984375 20.21875 -0.984375 
M 22.21875 5.609375 
Q 26.421875 5.609375 29.5625 7.140625 
Q 32.71875 8.6875 34.78125 11.078125 
Q 36.859375 13.484375 37.890625 16.3125 
Q 38.921875 19.140625 38.921875 21.734375 
L 38.921875 26.078125 
L 29.296875 25.875 
Q 26.078125 25.828125 23.171875 25.40625 
Q 20.265625 25 18.0625 23.78125 
Q 15.875 22.5625 14.578125 20.359375 
Q 13.28125 18.171875 13.28125 14.59375 
Q 13.28125 10.296875 15.59375 7.953125 
Q 17.921875 5.609375 22.21875 5.609375 
" id="LiberationSans-61"/>
     </defs>
     <g style="fill:#262626;" transform="translate(1025.15125 56.1975)scale(0.08 -0.08)">
      <use xlink:href="#LiberationSans-61"/>
     </g>
    </g>
    <g id="line2d_35">
     <path d="M 1002.75125 64.855 
L 1018.75125 64.855 
" style="fill:none;stroke:#55a868;stroke-linecap:round;stroke-width:1.4;"/>
    </g>
    <g id="line2d_36"/>
    <g id="text_17">
     <!-- b -->
     <defs>
      <path d="M 51.421875 26.65625 
Q 51.421875 -0.984375 31.984375 -0.984375 
Q 25.984375 -0.984375 22 1.1875 
Q 18.015625 3.375 15.53125 8.203125 
L 15.4375 8.203125 
Q 15.4375 6.9375 15.359375 5.5625 
Q 15.28125 4.203125 15.203125 3.03125 
Q 15.140625 1.859375 15.0625 1.03125 
Q 14.984375 0.203125 14.9375 0 
L 6.453125 0 
Q 6.5 0.4375 6.546875 1.484375 
Q 6.59375 2.546875 6.640625 4 
Q 6.6875 5.46875 6.703125 7.21875 
Q 6.734375 8.984375 6.734375 10.890625 
L 6.734375 72.46875 
L 15.53125 72.46875 
L 15.53125 51.8125 
Q 15.53125 50.34375 15.5 49 
Q 15.484375 47.65625 15.4375 46.625 
Q 15.375 45.40625 15.328125 44.34375 
L 15.53125 44.34375 
Q 17.96875 49.421875 22 51.609375 
Q 26.03125 53.8125 31.984375 53.8125 
Q 42 53.8125 46.703125 47.0625 
Q 51.421875 40.328125 51.421875 26.65625 
M 42.1875 26.375 
Q 42.1875 31.84375 41.5 35.75 
Q 40.828125 39.65625 39.3125 42.15625 
Q 37.796875 44.671875 35.453125 45.84375 
Q 33.109375 47.015625 29.734375 47.015625 
Q 26.265625 47.015625 23.609375 45.890625 
Q 20.953125 44.78125 19.171875 42.28125 
Q 17.390625 39.796875 16.453125 35.734375 
Q 15.53125 31.6875 15.53125 25.828125 
Q 15.53125 20.171875 16.453125 16.3125 
Q 17.390625 12.453125 19.171875 10.03125 
Q 20.953125 7.625 23.578125 6.5625 
Q 26.21875 5.515625 29.640625 5.515625 
Q 32.859375 5.515625 35.203125 6.640625 
Q 37.546875 7.765625 39.109375 10.25 
Q 40.671875 12.75 41.421875 16.71875 
Q 42.1875 20.703125 42.1875 26.375 
" id="LiberationSans-62"/>
     </defs>
     <g style="fill:#262626;" transform="translate(1025.15125 67.655)scale(0.08 -0.08)">
      <use xlink:href="#LiberationSans-62"/>
     </g>
    </g>
   </g>
  </g>
 </g>
 <defs>
  <clipPath id="p04622c2a1d">
   <rect height="277.2" width="892.8" x="144" y="43.2"/>
  </clipPath>
 </defs>
</svg>
