<?xml version="1.0" encoding="utf-8" standalone="no"?>
<!DOCTYPE svg PUBLIC "-//W3C//DTD SVG 1.1//EN"
  "http://www.w3.org/Graphics/SVG/1.1/DTD/svg11.dtd">
<!-- Created with matplotlib (http://matplotlib.org/) -->
<svg height="360pt" version="1.1" viewBox="0 0 1152 360" width="1152pt" xmlns="http://www.w3.org/2000/svg" xmlns:xlink="http://www.w3.org/1999/xlink">
 <defs>
  <style type="text/css">
*{stroke-linecap:butt;stroke-linejoin:round;}
  </style>
 </defs>
 <g id="figure_1">
  <g id="patch_1">
   <path d="M 0 360 
L 1152 360 
L 1152 0 
L 0 0 
z
" style="fill:#ffffff;"/>
  </g>
  <g id="axes_1">
   <g id="patch_2">
    <path d="M 144 320.4 
L 1036.8 320.4 
L 1036.8 43.2 
L 144 43.2 
z
" style="fill:#eaeaf2;"/>
   </g>
   <g id="matplotlib.axis_1">
    <g id="xtick_1">
     <g id="line2d_1">
      <path clip-path="url(#p8b5703de3d)" d="M 184.581818 320.4 
L 184.581818 43.2 
" style="fill:none;stroke:#ffffff;stroke-linecap:round;stroke-width:0.8;"/>
     </g>
     <g id="line2d_2"/>
     <g id="text_1">
      <!-- 0 -->
      <defs>
       <path d="M 51.703125 34.421875 
Q 51.703125 24.515625 49.828125 17.75 
Q 47.953125 10.984375 44.703125 6.8125 
Q 41.453125 2.640625 37.0625 0.828125 
Q 32.671875 -0.984375 27.6875 -0.984375 
Q 22.65625 -0.984375 18.3125 0.828125 
Q 13.96875 2.640625 10.765625 6.78125 
Q 7.5625 10.9375 5.734375 17.703125 
Q 3.90625 24.46875 3.90625 34.421875 
Q 3.90625 44.828125 5.734375 51.640625 
Q 7.5625 58.453125 10.78125 62.5 
Q 14.015625 66.546875 18.40625 68.1875 
Q 22.796875 69.828125 27.984375 69.828125 
Q 32.90625 69.828125 37.21875 68.1875 
Q 41.546875 66.546875 44.765625 62.5 
Q 48 58.453125 49.84375 51.640625 
Q 51.703125 44.828125 51.703125 34.421875 
M 42.78125 34.421875 
Q 42.78125 42.625 41.796875 48.0625 
Q 40.828125 53.515625 38.921875 56.765625 
Q 37.015625 60.015625 34.25 61.359375 
Q 31.5 62.703125 27.984375 62.703125 
Q 24.265625 62.703125 21.4375 61.328125 
Q 18.609375 59.96875 16.671875 56.71875 
Q 14.75 53.46875 13.765625 48.015625 
Q 12.796875 42.578125 12.796875 34.421875 
Q 12.796875 26.515625 13.796875 21.09375 
Q 14.796875 15.671875 16.71875 12.375 
Q 18.65625 9.078125 21.4375 7.640625 
Q 24.21875 6.203125 27.78125 6.203125 
Q 31.25 6.203125 34.03125 7.640625 
Q 36.8125 9.078125 38.734375 12.375 
Q 40.671875 15.671875 41.71875 21.09375 
Q 42.78125 26.515625 42.78125 34.421875 
" id="LiberationSans-30"/>
      </defs>
      <g style="fill:#262626;" transform="translate(182.357443 331.7975)scale(0.08 -0.08)">
       <use xlink:href="#LiberationSans-30"/>
      </g>
     </g>
    </g>
    <g id="xtick_2">
     <g id="line2d_3">
      <path clip-path="url(#p8b5703de3d)" d="M 299.625952 320.4 
L 299.625952 43.2 
" style="fill:none;stroke:#ffffff;stroke-linecap:round;stroke-width:0.8;"/>
     </g>
     <g id="line2d_4"/>
     <g id="text_2">
      <!-- 200 -->
      <defs>
       <path d="M 5.03125 0 
L 5.03125 6.203125 
Q 7.515625 11.921875 11.109375 16.28125 
Q 14.703125 20.65625 18.65625 24.1875 
Q 22.609375 27.734375 26.484375 30.765625 
Q 30.375 33.796875 33.5 36.8125 
Q 36.625 39.84375 38.546875 43.15625 
Q 40.484375 46.484375 40.484375 50.6875 
Q 40.484375 53.609375 39.59375 55.828125 
Q 38.71875 58.0625 37.0625 59.5625 
Q 35.40625 61.078125 33.078125 61.828125 
Q 30.765625 62.59375 27.9375 62.59375 
Q 25.296875 62.59375 22.96875 61.859375 
Q 20.65625 61.140625 18.84375 59.671875 
Q 17.046875 58.203125 15.890625 56.03125 
Q 14.75 53.859375 14.40625 50.984375 
L 5.421875 51.8125 
Q 5.859375 55.515625 7.46875 58.78125 
Q 9.078125 62.0625 11.90625 64.53125 
Q 14.75 67 18.71875 68.40625 
Q 22.703125 69.828125 27.9375 69.828125 
Q 33.0625 69.828125 37.0625 68.609375 
Q 41.0625 67.390625 43.8125 64.984375 
Q 46.578125 62.59375 48.046875 59.078125 
Q 49.515625 55.5625 49.515625 50.984375 
Q 49.515625 47.515625 48.265625 44.390625 
Q 47.015625 41.265625 44.9375 38.421875 
Q 42.875 35.59375 40.140625 32.953125 
Q 37.40625 30.328125 34.421875 27.8125 
Q 31.453125 25.296875 28.421875 22.828125 
Q 25.390625 20.359375 22.71875 17.859375 
Q 20.0625 15.375 17.96875 12.8125 
Q 15.875 10.25 14.703125 7.46875 
L 50.59375 7.46875 
L 50.59375 0 
z
" id="LiberationSans-32"/>
      </defs>
      <g style="fill:#262626;" transform="translate(292.952827 331.7975)scale(0.08 -0.08)">
       <use xlink:href="#LiberationSans-32"/>
       <use x="55.615234" xlink:href="#LiberationSans-30"/>
       <use x="111.230469" xlink:href="#LiberationSans-30"/>
      </g>
     </g>
    </g>
    <g id="xtick_3">
     <g id="line2d_5">
      <path clip-path="url(#p8b5703de3d)" d="M 414.670086 320.4 
L 414.670086 43.2 
" style="fill:none;stroke:#ffffff;stroke-linecap:round;stroke-width:0.8;"/>
     </g>
     <g id="line2d_6"/>
     <g id="text_3">
      <!-- 400 -->
      <defs>
       <path d="M 43.015625 15.578125 
L 43.015625 0 
L 34.71875 0 
L 34.71875 15.578125 
L 2.296875 15.578125 
L 2.296875 22.40625 
L 33.796875 68.796875 
L 43.015625 68.796875 
L 43.015625 22.515625 
L 52.6875 22.515625 
L 52.6875 15.578125 
z
M 34.71875 58.890625 
Q 34.625 58.640625 34.234375 57.9375 
Q 33.84375 57.234375 33.34375 56.34375 
Q 32.859375 55.46875 32.34375 54.5625 
Q 31.84375 53.65625 31.453125 53.078125 
L 13.8125 27.09375 
Q 13.578125 26.703125 13.109375 26.0625 
Q 12.640625 25.4375 12.15625 24.78125 
Q 11.671875 24.125 11.171875 23.484375 
Q 10.6875 22.859375 10.40625 22.515625 
L 34.71875 22.515625 
z
" id="LiberationSans-34"/>
      </defs>
      <g style="fill:#262626;" transform="translate(407.996961 331.7975)scale(0.08 -0.08)">
       <use xlink:href="#LiberationSans-34"/>
       <use x="55.615234" xlink:href="#LiberationSans-30"/>
       <use x="111.230469" xlink:href="#LiberationSans-30"/>
      </g>
     </g>
    </g>
    <g id="xtick_4">
     <g id="line2d_7">
      <path clip-path="url(#p8b5703de3d)" d="M 529.714219 320.4 
L 529.714219 43.2 
" style="fill:none;stroke:#ffffff;stroke-linecap:round;stroke-width:0.8;"/>
     </g>
     <g id="line2d_8"/>
     <g id="text_4">
      <!-- 600 -->
      <defs>
       <path d="M 51.21875 22.515625 
Q 51.21875 17.328125 49.78125 13 
Q 48.34375 8.6875 45.53125 5.578125 
Q 42.71875 2.484375 38.5625 0.75 
Q 34.421875 -0.984375 29 -0.984375 
Q 23 -0.984375 18.5 1.3125 
Q 14.015625 3.609375 11.03125 7.921875 
Q 8.0625 12.25 6.5625 18.53125 
Q 5.078125 24.8125 5.078125 32.8125 
Q 5.078125 42 6.765625 48.921875 
Q 8.453125 55.859375 11.625 60.5 
Q 14.796875 65.140625 19.359375 67.484375 
Q 23.921875 69.828125 29.6875 69.828125 
Q 33.203125 69.828125 36.28125 69.09375 
Q 39.359375 68.359375 41.875 66.71875 
Q 44.390625 65.09375 46.28125 62.40625 
Q 48.1875 59.71875 49.3125 55.8125 
L 40.921875 54.296875 
Q 39.546875 58.734375 36.546875 60.71875 
Q 33.546875 62.703125 29.59375 62.703125 
Q 25.984375 62.703125 23.046875 60.984375 
Q 20.125 59.28125 18.0625 55.875 
Q 16.015625 52.484375 14.90625 47.359375 
Q 13.8125 42.234375 13.8125 35.40625 
Q 16.21875 39.84375 20.5625 42.15625 
Q 24.90625 44.484375 30.515625 44.484375 
Q 35.203125 44.484375 39.015625 42.96875 
Q 42.828125 41.453125 45.53125 38.59375 
Q 48.25 35.75 49.734375 31.671875 
Q 51.21875 27.59375 51.21875 22.515625 
M 42.28125 22.125 
Q 42.28125 25.6875 41.40625 28.5625 
Q 40.53125 31.453125 38.765625 33.46875 
Q 37.015625 35.5 34.421875 36.59375 
Q 31.84375 37.703125 28.421875 37.703125 
Q 26.03125 37.703125 23.578125 36.984375 
Q 21.140625 36.28125 19.15625 34.6875 
Q 17.1875 33.109375 15.9375 30.515625 
Q 14.703125 27.9375 14.703125 24.21875 
Q 14.703125 20.40625 15.671875 17.109375 
Q 16.65625 13.8125 18.484375 11.375 
Q 20.3125 8.9375 22.890625 7.515625 
Q 25.484375 6.109375 28.71875 6.109375 
Q 31.890625 6.109375 34.40625 7.203125 
Q 36.921875 8.296875 38.671875 10.375 
Q 40.4375 12.453125 41.359375 15.421875 
Q 42.28125 18.40625 42.28125 22.125 
" id="LiberationSans-36"/>
      </defs>
      <g style="fill:#262626;" transform="translate(523.041094 331.7975)scale(0.08 -0.08)">
       <use xlink:href="#LiberationSans-36"/>
       <use x="55.615234" xlink:href="#LiberationSans-30"/>
       <use x="111.230469" xlink:href="#LiberationSans-30"/>
      </g>
     </g>
    </g>
    <g id="xtick_5">
     <g id="line2d_9">
      <path clip-path="url(#p8b5703de3d)" d="M 644.758353 320.4 
L 644.758353 43.2 
" style="fill:none;stroke:#ffffff;stroke-linecap:round;stroke-width:0.8;"/>
     </g>
     <g id="line2d_10"/>
     <g id="text_5">
      <!-- 800 -->
      <defs>
       <path d="M 51.265625 19.1875 
Q 51.265625 14.796875 49.875 11.109375 
Q 48.484375 7.421875 45.625 4.734375 
Q 42.78125 2.046875 38.328125 0.53125 
Q 33.890625 -0.984375 27.828125 -0.984375 
Q 21.78125 -0.984375 17.359375 0.53125 
Q 12.9375 2.046875 10.03125 4.703125 
Q 7.125 7.375 5.734375 11.0625 
Q 4.34375 14.75 4.34375 19.09375 
Q 4.34375 22.859375 5.484375 25.78125 
Q 6.640625 28.71875 8.5625 30.828125 
Q 10.5 32.953125 12.96875 34.25 
Q 15.4375 35.546875 18.0625 35.984375 
L 18.0625 36.1875 
Q 15.1875 36.859375 12.90625 38.375 
Q 10.640625 39.890625 9.09375 42.015625 
Q 7.5625 44.140625 6.75 46.71875 
Q 5.953125 49.3125 5.953125 52.203125 
Q 5.953125 55.8125 7.34375 59 
Q 8.734375 62.203125 11.46875 64.625 
Q 14.203125 67.046875 18.25 68.4375 
Q 22.3125 69.828125 27.640625 69.828125 
Q 33.25 69.828125 37.375 68.40625 
Q 41.5 67 44.203125 64.578125 
Q 46.921875 62.15625 48.234375 58.9375 
Q 49.5625 55.71875 49.5625 52.09375 
Q 49.5625 49.265625 48.75 46.671875 
Q 47.953125 44.09375 46.40625 41.96875 
Q 44.875 39.84375 42.59375 38.34375 
Q 40.328125 36.859375 37.359375 36.28125 
L 37.359375 36.078125 
Q 40.328125 35.59375 42.859375 34.296875 
Q 45.40625 33.015625 47.265625 30.890625 
Q 49.125 28.765625 50.1875 25.828125 
Q 51.265625 22.90625 51.265625 19.1875 
M 40.4375 51.609375 
Q 40.4375 54.203125 39.765625 56.34375 
Q 39.109375 58.5 37.59375 60.03125 
Q 36.078125 61.578125 33.640625 62.421875 
Q 31.203125 63.28125 27.640625 63.28125 
Q 24.171875 63.28125 21.78125 62.421875 
Q 19.390625 61.578125 17.84375 60.03125 
Q 16.3125 58.5 15.625 56.34375 
Q 14.9375 54.203125 14.9375 51.609375 
Q 14.9375 49.5625 15.46875 47.40625 
Q 16.015625 45.265625 17.421875 43.5 
Q 18.84375 41.75 21.328125 40.625 
Q 23.828125 39.5 27.734375 39.5 
Q 31.890625 39.5 34.40625 40.625 
Q 36.921875 41.75 38.25 43.5 
Q 39.59375 45.265625 40.015625 47.40625 
Q 40.4375 49.5625 40.4375 51.609375 
M 42.140625 20.015625 
Q 42.140625 22.515625 41.453125 24.828125 
Q 40.765625 27.15625 39.109375 28.9375 
Q 37.453125 30.71875 34.640625 31.8125 
Q 31.84375 32.90625 27.640625 32.90625 
Q 23.78125 32.90625 21.0625 31.8125 
Q 18.359375 30.71875 16.671875 28.90625 
Q 14.984375 27.09375 14.203125 24.71875 
Q 13.421875 22.359375 13.421875 19.828125 
Q 13.421875 16.65625 14.203125 14.03125 
Q 14.984375 11.421875 16.6875 9.546875 
Q 18.40625 7.671875 21.1875 6.640625 
Q 23.96875 5.609375 27.9375 5.609375 
Q 31.9375 5.609375 34.671875 6.640625 
Q 37.40625 7.671875 39.0625 9.546875 
Q 40.71875 11.421875 41.421875 14.078125 
Q 42.140625 16.75 42.140625 20.015625 
" id="LiberationSans-38"/>
      </defs>
      <g style="fill:#262626;" transform="translate(638.085228 331.7975)scale(0.08 -0.08)">
       <use xlink:href="#LiberationSans-38"/>
       <use x="55.615234" xlink:href="#LiberationSans-30"/>
       <use x="111.230469" xlink:href="#LiberationSans-30"/>
      </g>
     </g>
    </g>
    <g id="xtick_6">
     <g id="line2d_11">
      <path clip-path="url(#p8b5703de3d)" d="M 759.802487 320.4 
L 759.802487 43.2 
" style="fill:none;stroke:#ffffff;stroke-linecap:round;stroke-width:0.8;"/>
     </g>
     <g id="line2d_12"/>
     <g id="text_6">
      <!-- 1000 -->
      <defs>
       <path d="M 7.625 0 
L 7.625 7.46875 
L 25.140625 7.46875 
L 25.140625 60.40625 
L 9.625 49.3125 
L 9.625 57.625 
L 25.875 68.796875 
L 33.984375 68.796875 
L 33.984375 7.46875 
L 50.734375 7.46875 
L 50.734375 0 
z
" id="LiberationSans-31"/>
      </defs>
      <g style="fill:#262626;" transform="translate(750.904987 331.7975)scale(0.08 -0.08)">
       <use xlink:href="#LiberationSans-31"/>
       <use x="55.615234" xlink:href="#LiberationSans-30"/>
       <use x="111.230469" xlink:href="#LiberationSans-30"/>
       <use x="166.845703" xlink:href="#LiberationSans-30"/>
      </g>
     </g>
    </g>
    <g id="xtick_7">
     <g id="line2d_13">
      <path clip-path="url(#p8b5703de3d)" d="M 874.846621 320.4 
L 874.846621 43.2 
" style="fill:none;stroke:#ffffff;stroke-linecap:round;stroke-width:0.8;"/>
     </g>
     <g id="line2d_14"/>
     <g id="text_7">
      <!-- 1200 -->
      <g style="fill:#262626;" transform="translate(865.949121 331.7975)scale(0.08 -0.08)">
       <use xlink:href="#LiberationSans-31"/>
       <use x="55.615234" xlink:href="#LiberationSans-32"/>
       <use x="111.230469" xlink:href="#LiberationSans-30"/>
       <use x="166.845703" xlink:href="#LiberationSans-30"/>
      </g>
     </g>
    </g>
    <g id="xtick_8">
     <g id="line2d_15">
      <path clip-path="url(#p8b5703de3d)" d="M 989.890754 320.4 
L 989.890754 43.2 
" style="fill:none;stroke:#ffffff;stroke-linecap:round;stroke-width:0.8;"/>
     </g>
     <g id="line2d_16"/>
     <g id="text_8">
      <!-- 1400 -->
      <g style="fill:#262626;" transform="translate(980.993254 331.7975)scale(0.08 -0.08)">
       <use xlink:href="#LiberationSans-31"/>
       <use x="55.615234" xlink:href="#LiberationSans-34"/>
       <use x="111.230469" xlink:href="#LiberationSans-30"/>
       <use x="166.845703" xlink:href="#LiberationSans-30"/>
      </g>
     </g>
    </g>
   </g>
   <g id="matplotlib.axis_2">
    <g id="ytick_1">
     <g id="line2d_17">
      <path clip-path="url(#p8b5703de3d)" d="M 144 307.8 
L 1036.8 307.8 
" style="fill:none;stroke:#ffffff;stroke-linecap:round;stroke-width:0.8;"/>
     </g>
     <g id="line2d_18"/>
     <g id="text_9">
      <!-- −1.00 -->
      <defs>
       <path d="M 4.9375 29.6875 
L 4.9375 36.8125 
L 53.515625 36.8125 
L 53.515625 29.6875 
z
" id="LiberationSans-2212"/>
       <path d="M 9.125 0 
L 9.125 10.6875 
L 18.65625 10.6875 
L 18.65625 0 
z
" id="LiberationSans-2e"/>
      </defs>
      <g style="fill:#262626;" transform="translate(118.15875 310.69875)scale(0.08 -0.08)">
       <use xlink:href="#LiberationSans-2212"/>
       <use x="58.398438" xlink:href="#LiberationSans-31"/>
       <use x="114.013672" xlink:href="#LiberationSans-2e"/>
       <use x="141.796875" xlink:href="#LiberationSans-30"/>
       <use x="197.412109" xlink:href="#LiberationSans-30"/>
      </g>
     </g>
    </g>
    <g id="ytick_2">
     <g id="line2d_19">
      <path clip-path="url(#p8b5703de3d)" d="M 144 276.3 
L 1036.8 276.3 
" style="fill:none;stroke:#ffffff;stroke-linecap:round;stroke-width:0.8;"/>
     </g>
     <g id="line2d_20"/>
     <g id="text_10">
      <!-- −0.75 -->
      <defs>
       <path d="M 50.59375 61.671875 
Q 45.40625 53.765625 41.0625 46.453125 
Q 36.71875 39.15625 33.59375 31.75 
Q 30.46875 24.359375 28.734375 16.578125 
Q 27 8.796875 27 0 
L 17.828125 0 
Q 17.828125 8.25 19.78125 16.1875 
Q 21.734375 24.125 25.046875 31.765625 
Q 28.375 39.40625 32.765625 46.78125 
Q 37.15625 54.15625 42.09375 61.328125 
L 5.125 61.328125 
L 5.125 68.796875 
L 50.59375 68.796875 
z
" id="LiberationSans-37"/>
       <path d="M 51.421875 22.40625 
Q 51.421875 17.234375 49.859375 12.9375 
Q 48.296875 8.640625 45.21875 5.53125 
Q 42.140625 2.4375 37.578125 0.71875 
Q 33.015625 -0.984375 27 -0.984375 
Q 21.578125 -0.984375 17.546875 0.28125 
Q 13.53125 1.5625 10.734375 3.78125 
Q 7.953125 6 6.3125 8.984375 
Q 4.6875 11.96875 4 15.375 
L 12.890625 16.40625 
Q 13.421875 14.453125 14.390625 12.625 
Q 15.375 10.796875 17.0625 9.34375 
Q 18.75 7.90625 21.21875 7.046875 
Q 23.6875 6.203125 27.203125 6.203125 
Q 30.609375 6.203125 33.390625 7.25 
Q 36.1875 8.296875 38.15625 10.34375 
Q 40.140625 12.40625 41.203125 15.375 
Q 42.28125 18.359375 42.28125 22.21875 
Q 42.28125 25.390625 41.25 28.046875 
Q 40.234375 30.71875 38.328125 32.640625 
Q 36.421875 34.578125 33.65625 35.640625 
Q 30.90625 36.71875 27.390625 36.71875 
Q 25.203125 36.71875 23.34375 36.328125 
Q 21.484375 35.9375 19.890625 35.25 
Q 18.3125 34.578125 17.015625 33.671875 
Q 15.71875 32.765625 14.59375 31.78125 
L 6 31.78125 
L 8.296875 68.796875 
L 47.40625 68.796875 
L 47.40625 61.328125 
L 16.3125 61.328125 
L 14.984375 39.5 
Q 17.328125 41.3125 20.84375 42.59375 
Q 24.359375 43.890625 29.203125 43.890625 
Q 34.328125 43.890625 38.421875 42.328125 
Q 42.53125 40.765625 45.40625 37.90625 
Q 48.296875 35.0625 49.859375 31.109375 
Q 51.421875 27.15625 51.421875 22.40625 
" id="LiberationSans-35"/>
      </defs>
      <g style="fill:#262626;" transform="translate(118.15875 279.19875)scale(0.08 -0.08)">
       <use xlink:href="#LiberationSans-2212"/>
       <use x="58.398438" xlink:href="#LiberationSans-30"/>
       <use x="114.013672" xlink:href="#LiberationSans-2e"/>
       <use x="141.796875" xlink:href="#LiberationSans-37"/>
       <use x="197.412109" xlink:href="#LiberationSans-35"/>
      </g>
     </g>
    </g>
    <g id="ytick_3">
     <g id="line2d_21">
      <path clip-path="url(#p8b5703de3d)" d="M 144 244.8 
L 1036.8 244.8 
" style="fill:none;stroke:#ffffff;stroke-linecap:round;stroke-width:0.8;"/>
     </g>
     <g id="line2d_22"/>
     <g id="text_11">
      <!-- −0.50 -->
      <g style="fill:#262626;" transform="translate(118.15875 247.69875)scale(0.08 -0.08)">
       <use xlink:href="#LiberationSans-2212"/>
       <use x="58.398438" xlink:href="#LiberationSans-30"/>
       <use x="114.013672" xlink:href="#LiberationSans-2e"/>
       <use x="141.796875" xlink:href="#LiberationSans-35"/>
       <use x="197.412109" xlink:href="#LiberationSans-30"/>
      </g>
     </g>
    </g>
    <g id="ytick_4">
     <g id="line2d_23">
      <path clip-path="url(#p8b5703de3d)" d="M 144 213.3 
L 1036.8 213.3 
" style="fill:none;stroke:#ffffff;stroke-linecap:round;stroke-width:0.8;"/>
     </g>
     <g id="line2d_24"/>
     <g id="text_12">
      <!-- −0.25 -->
      <g style="fill:#262626;" transform="translate(118.15875 216.19875)scale(0.08 -0.08)">
       <use xlink:href="#LiberationSans-2212"/>
       <use x="58.398438" xlink:href="#LiberationSans-30"/>
       <use x="114.013672" xlink:href="#LiberationSans-2e"/>
       <use x="141.796875" xlink:href="#LiberationSans-32"/>
       <use x="197.412109" xlink:href="#LiberationSans-35"/>
      </g>
     </g>
    </g>
    <g id="ytick_5">
     <g id="line2d_25">
      <path clip-path="url(#p8b5703de3d)" d="M 144 181.8 
L 1036.8 181.8 
" style="fill:none;stroke:#ffffff;stroke-linecap:round;stroke-width:0.8;"/>
     </g>
     <g id="line2d_26"/>
     <g id="text_13">
      <!-- 0.00 -->
      <g style="fill:#262626;" transform="translate(122.83125 184.69875)scale(0.08 -0.08)">
       <use xlink:href="#LiberationSans-30"/>
       <use x="55.615234" xlink:href="#LiberationSans-2e"/>
       <use x="83.398438" xlink:href="#LiberationSans-30"/>
       <use x="139.013672" xlink:href="#LiberationSans-30"/>
      </g>
     </g>
    </g>
    <g id="ytick_6">
     <g id="line2d_27">
      <path clip-path="url(#p8b5703de3d)" d="M 144 150.3 
L 1036.8 150.3 
" style="fill:none;stroke:#ffffff;stroke-linecap:round;stroke-width:0.8;"/>
     </g>
     <g id="line2d_28"/>
     <g id="text_14">
      <!-- 0.25 -->
      <g style="fill:#262626;" transform="translate(122.83125 153.19875)scale(0.08 -0.08)">
       <use xlink:href="#LiberationSans-30"/>
       <use x="55.615234" xlink:href="#LiberationSans-2e"/>
       <use x="83.398438" xlink:href="#LiberationSans-32"/>
       <use x="139.013672" xlink:href="#LiberationSans-35"/>
      </g>
     </g>
    </g>
    <g id="ytick_7">
     <g id="line2d_29">
      <path clip-path="url(#p8b5703de3d)" d="M 144 118.8 
L 1036.8 118.8 
" style="fill:none;stroke:#ffffff;stroke-linecap:round;stroke-width:0.8;"/>
     </g>
     <g id="line2d_30"/>
     <g id="text_15">
      <!-- 0.50 -->
      <g style="fill:#262626;" transform="translate(122.83125 121.69875)scale(0.08 -0.08)">
       <use xlink:href="#LiberationSans-30"/>
       <use x="55.615234" xlink:href="#LiberationSans-2e"/>
       <use x="83.398438" xlink:href="#LiberationSans-35"/>
       <use x="139.013672" xlink:href="#LiberationSans-30"/>
      </g>
     </g>
    </g>
    <g id="ytick_8">
     <g id="line2d_31">
      <path clip-path="url(#p8b5703de3d)" d="M 144 87.3 
L 1036.8 87.3 
" style="fill:none;stroke:#ffffff;stroke-linecap:round;stroke-width:0.8;"/>
     </g>
     <g id="line2d_32"/>
     <g id="text_16">
      <!-- 0.75 -->
      <g style="fill:#262626;" transform="translate(122.83125 90.19875)scale(0.08 -0.08)">
       <use xlink:href="#LiberationSans-30"/>
       <use x="55.615234" xlink:href="#LiberationSans-2e"/>
       <use x="83.398438" xlink:href="#LiberationSans-37"/>
       <use x="139.013672" xlink:href="#LiberationSans-35"/>
      </g>
     </g>
    </g>
    <g id="ytick_9">
     <g id="line2d_33">
      <path clip-path="url(#p8b5703de3d)" d="M 144 55.8 
L 1036.8 55.8 
" style="fill:none;stroke:#ffffff;stroke-linecap:round;stroke-width:0.8;"/>
     </g>
     <g id="line2d_34"/>
     <g id="text_17">
      <!-- 1.00 -->
      <g style="fill:#262626;" transform="translate(122.83125 58.69875)scale(0.08 -0.08)">
       <use xlink:href="#LiberationSans-31"/>
       <use x="55.615234" xlink:href="#LiberationSans-2e"/>
       <use x="83.398438" xlink:href="#LiberationSans-30"/>
       <use x="139.013672" xlink:href="#LiberationSans-30"/>
      </g>
     </g>
    </g>
   </g>
   <g id="line2d_35">
    <path clip-path="url(#p8b5703de3d)" d="M 184.581818 156.38542 
L 187.457922 156.38604 
L 188.033142 152.392659 
L 188.608363 137.485712 
L 189.758804 93.551192 
L 190.334025 83.91651 
L 190.909246 93.187078 
L 191.484466 120.248143 
L 193.210128 224.623996 
L 193.785349 240.512788 
L 194.36057 240.220135 
L 194.93579 224.512672 
L 196.086232 166.225689 
L 196.661452 137.635247 
L 197.236673 118.181152 
L 197.811894 111.578777 
L 198.387114 118.06025 
L 198.962335 134.722577 
L 200.112776 178.306936 
L 200.687997 194.854827 
L 201.263218 202.759019 
L 201.838438 199.902012 
L 202.413659 185.574682 
L 203.5641 136.412086 
L 204.139321 121.459491 
L 204.714542 123.381712 
L 205.864983 152.584862 
L 206.440204 161.131159 
L 207.015424 160.809343 
L 208.741086 142.354292 
L 209.316307 142.253127 
L 209.891528 145.904137 
L 211.61719 162.040759 
L 212.19241 165.357454 
L 212.767631 166.607255 
L 213.342852 165.691039 
L 213.918072 163.02129 
L 215.068514 155.947615 
L 215.643734 153.49487 
L 216.218955 152.610068 
L 216.794176 153.281783 
L 217.369396 155.040508 
L 218.519838 159.019968 
L 219.095058 160.068311 
L 219.670279 160.142874 
L 220.2455 159.363645 
L 221.971162 155.525654 
L 222.546382 155.020202 
L 223.121603 155.229332 
L 223.696824 156.050734 
L 225.422486 159.355979 
L 225.997706 159.786057 
L 226.572927 159.664752 
L 227.148148 159.049063 
L 228.87381 156.193135 
L 229.44903 155.652739 
L 230.024251 155.567933 
L 230.599472 155.953718 
L 231.174692 156.733037 
L 232.900354 159.539908 
L 233.475575 160.030601 
L 234.050796 160.125261 
L 234.626016 159.839322 
L 235.201237 159.261752 
L 237.50212 156.075583 
L 238.07734 155.700614 
L 238.652561 155.782955 
L 239.227782 156.419034 
L 239.803002 157.652766 
L 240.378223 159.472282 
L 242.679106 168.65028 
L 243.254326 169.676508 
L 243.829547 169.155178 
L 244.404768 166.496368 
L 244.979988 161.24734 
L 245.555209 153.228002 
L 246.70565 132.968316 
L 247.280871 127.234953 
L 247.856092 129.226886 
L 248.431312 135.282603 
L 249.006533 136.556905 
L 249.581754 128.363755 
L 250.156974 114.568644 
L 250.732195 104.063346 
L 251.307416 104.4085 
L 251.882636 117.804009 
L 253.608298 187.112614 
L 254.183519 198.479779 
L 254.75874 199.406642 
L 255.33396 191.72748 
L 257.059622 151.748668 
L 257.634843 143.725869 
L 258.210064 141.386254 
L 258.785284 144.404512 
L 259.360505 151.183937 
L 260.510946 166.513528 
L 261.086167 170.849694 
L 261.661388 171.624737 
L 262.236608 169.166408 
L 263.96227 155.286219 
L 264.537491 152.932939 
L 265.112712 152.821108 
L 265.687932 154.686481 
L 267.413594 164.016746 
L 267.988815 165.574999 
L 268.564036 165.623321 
L 269.139256 164.305072 
L 270.864918 157.507018 
L 271.440139 156.212983 
L 272.01536 155.942643 
L 272.590581 156.637178 
L 273.165801 158.024221 
L 274.316243 161.309906 
L 274.891463 162.451833 
L 275.466684 162.972774 
L 276.041905 162.814197 
L 276.617125 162.088108 
L 278.918008 157.746269 
L 279.493229 157.181926 
L 280.068449 156.998338 
L 280.64367 157.201328 
L 281.218891 157.761033 
L 281.794111 158.630109 
L 282.944553 160.97249 
L 284.094994 163.232126 
L 284.670215 163.845578 
L 285.245435 163.77893 
L 285.820656 162.757174 
L 286.395877 160.552971 
L 286.971097 157.000414 
L 287.546318 152.086415 
L 289.27198 133.15888 
L 289.847201 129.185564 
L 290.422421 130.142615 
L 290.997642 138.528809 
L 292.148083 166.030555 
L 292.723304 170.930538 
L 293.298525 168.335509 
L 293.873745 164.608711 
L 294.448966 165.290368 
L 295.024187 171.313126 
L 295.599407 179.511866 
L 296.174628 185.358595 
L 296.749849 185.53302 
L 297.325069 179.404528 
L 299.050731 149.132015 
L 299.625952 143.936803 
L 300.201173 142.811403 
L 300.776393 145.231376 
L 301.351614 150.080462 
L 302.502055 161.244137 
L 303.077276 164.874723 
L 303.652497 166.115677 
L 304.227717 164.960526 
L 304.802938 162.053739 
L 305.953379 155.257022 
L 306.5286 153.286625 
L 307.103821 152.926191 
L 307.679041 154.05898 
L 309.404703 160.755869 
L 309.979924 162.062683 
L 310.555145 162.296805 
L 311.130365 161.500907 
L 312.280807 158.13994 
L 312.856027 156.472744 
L 313.431248 155.33806 
L 314.006469 154.940578 
L 314.581689 155.293458 
L 315.15691 156.236836 
L 316.882572 159.75823 
L 317.457793 160.303346 
L 318.033013 160.338927 
L 318.608234 159.913244 
L 319.758675 158.194081 
L 320.909117 156.38284 
L 321.484337 155.780578 
L 322.059558 155.477488 
L 322.634779 155.492515 
L 323.209999 155.813003 
L 323.78522 156.391539 
L 326.086103 159.302524 
L 326.661323 159.558298 
L 327.236544 159.362226 
L 327.811765 158.605797 
L 328.386985 157.225095 
L 328.962206 155.214835 
L 330.112647 149.760489 
L 331.263089 144.318563 
L 331.838309 142.632749 
L 332.41353 142.278455 
L 332.988751 143.678714 
L 333.563971 147.062982 
L 334.714413 157.88314 
L 335.289633 161.484184 
L 335.864854 160.548936 
L 336.440075 158.409579 
L 337.015295 165.985976 
L 337.590516 191.651838 
L 338.740957 269.621982 
L 339.316178 289.583601 
L 339.891399 280.839516 
L 340.466619 244.333798 
L 342.192281 92.14578 
L 342.767502 69.279513 
L 343.342723 68.337386 
L 343.917943 85.603394 
L 345.643605 171.846998 
L 346.218826 188.048664 
L 346.794047 191.74328 
L 347.369267 184.050896 
L 349.094929 136.317922 
L 349.67015 127.724878 
L 350.245371 126.701762 
L 350.820591 132.326862 
L 352.546253 161.561869 
L 353.121474 166.367542 
L 353.696695 166.562385 
L 354.271915 162.752653 
L 355.997577 144.210836 
L 356.572798 141.275464 
L 357.148019 141.309591 
L 357.723239 143.925476 
L 359.448901 156.375312 
L 360.024122 158.453277 
L 360.599343 158.622092 
L 361.174563 157.100659 
L 362.900226 149.050005 
L 363.475446 147.459084 
L 364.050667 147.005618 
L 364.625888 147.639877 
L 365.201108 149.075089 
L 366.35155 152.614973 
L 366.92677 153.936085 
L 367.501991 154.65039 
L 368.077212 154.717613 
L 368.652432 154.228033 
L 369.802874 152.273518 
L 371.528536 149.103917 
L 372.678977 147.441291 
L 373.254198 146.870959 
L 373.829418 146.633629 
L 374.404639 146.867848 
L 374.97986 147.651058 
L 375.55508 148.962258 
L 376.705522 152.295472 
L 377.280742 153.325258 
L 377.855963 152.789116 
L 378.431184 149.404007 
L 379.006404 141.467244 
L 379.581625 126.985421 
L 380.156846 104.625316 
L 380.732066 76.890421 
L 381.307287 55.8 
L 381.882508 61.480957 
L 382.457728 103.880559 
L 383.60817 232.985495 
L 384.18339 271.10469 
L 384.758611 274.894588 
L 385.333832 248.44503 
L 387.059494 120.518288 
L 387.634714 99.534039 
L 388.209935 95.706223 
L 388.785156 106.763818 
L 389.935597 153.101146 
L 390.510818 175.404134 
L 391.086038 189.766855 
L 391.661259 193.728406 
L 392.23648 187.849836 
L 393.386921 160.221778 
L 393.962142 147.289909 
L 394.537362 139.42524 
L 395.112583 137.767086 
L 395.687804 141.656496 
L 397.413466 164.885029 
L 397.988686 169.11585 
L 398.563907 169.761144 
L 399.139128 167.212491 
L 400.86479 153.349225 
L 401.44001 151.062549 
L 402.015231 150.970864 
L 402.590452 152.750041 
L 404.316114 160.893138 
L 404.891334 161.925399 
L 405.466555 161.595995 
L 406.041776 160.165532 
L 407.192217 156.138155 
L 407.767438 154.648601 
L 408.342658 154.012636 
L 408.917879 154.328594 
L 409.4931 155.41906 
L 410.643541 158.387474 
L 411.218762 159.425161 
L 411.793982 159.773811 
L 412.369203 159.361049 
L 412.944424 158.287209 
L 414.670086 153.815893 
L 415.245306 152.941781 
L 415.820527 152.721806 
L 416.395748 153.220589 
L 416.970968 154.32697 
L 418.69663 158.671756 
L 419.271851 159.435831 
L 419.847072 159.399775 
L 420.422292 158.380221 
L 420.997513 156.252326 
L 421.572734 152.95288 
L 422.147954 148.528772 
L 423.298396 137.190094 
L 424.448837 126.072705 
L 425.024058 123.287451 
L 425.599278 124.908123 
L 426.174499 133.201903 
L 427.900161 178.232217 
L 428.475382 184.078119 
L 429.050602 186.809218 
L 429.625823 190.416475 
L 430.201044 195.235275 
L 430.776264 198.406373 
L 431.351485 196.604373 
L 431.926706 188.357456 
L 433.652368 146.439078 
L 434.227588 138.57261 
L 434.802809 136.76711 
L 435.37803 140.151718 
L 436.528471 154.849 
L 437.103692 161.994868 
L 437.678912 166.827862 
L 438.254133 168.596076 
L 438.829354 167.348949 
L 439.404574 163.838773 
L 440.555016 154.982478 
L 441.130236 152.108684 
L 441.705457 151.248301 
L 442.280678 152.361994 
L 442.855898 154.890676 
L 444.00634 160.759806 
L 444.58156 162.544102 
L 445.156781 162.998393 
L 445.732002 162.160494 
L 446.307222 160.394093 
L 447.457664 156.285859 
L 448.032884 154.908838 
L 448.608105 154.364092 
L 449.183326 154.667949 
L 449.758546 155.609362 
L 451.484208 159.210343 
L 452.059429 159.781497 
L 452.63465 159.8336 
L 453.20987 159.42657 
L 454.360312 157.816822 
L 455.510753 156.264864 
L 456.085974 155.778313 
L 456.661195 155.551881 
L 457.236415 155.593567 
L 457.811636 155.875418 
L 458.962077 156.928077 
L 460.687739 158.640551 
L 461.26296 158.992521 
L 461.838181 159.094677 
L 462.413401 158.862393 
L 462.988622 158.230385 
L 463.563843 157.186024 
L 464.714284 154.183245 
L 465.289505 152.603355 
L 465.864725 151.358313 
L 466.439946 150.758278 
L 467.015167 151.098037 
L 467.590387 152.639392 
L 468.165608 155.51406 
L 468.740829 159.671519 
L 470.466491 174.403331 
L 471.041711 175.248231 
L 471.616932 169.642722 
L 472.767373 140.599252 
L 473.342594 136.355063 
L 473.917815 152.287737 
L 475.068256 213.010264 
L 475.643477 228.399796 
L 476.218697 222.804884 
L 476.793918 199.178207 
L 477.944359 135.774814 
L 478.51958 114.733541 
L 479.094801 106.766735 
L 479.670021 110.948845 
L 480.245242 124.025207 
L 481.395683 159.207762 
L 481.970904 172.635847 
L 482.546125 179.34731 
L 483.121345 178.701627 
L 483.696566 171.976455 
L 484.847007 151.593461 
L 485.422228 143.964366 
L 485.997449 140.594002 
L 486.572669 141.661503 
L 487.14789 146.130772 
L 488.298331 158.118064 
L 488.873552 162.207405 
L 489.448773 163.71685 
L 490.023993 162.645363 
L 490.599214 159.640921 
L 491.749655 152.083337 
L 492.324876 149.666422 
L 492.900097 148.979418 
L 493.475317 150.000104 
L 494.050538 152.257271 
L 495.200979 157.512453 
L 495.7762 159.125406 
L 496.351421 159.529757 
L 496.926641 158.753796 
L 497.501862 157.128719 
L 498.652303 153.314519 
L 499.227524 152.06081 
L 499.802745 151.622531 
L 500.377965 152.016878 
L 500.953186 153.104806 
L 502.678848 157.593968 
L 503.254069 158.467064 
L 503.829289 158.714336 
L 504.40451 158.325672 
L 504.979731 157.408217 
L 507.280613 152.537654 
L 507.855834 151.999037 
L 508.431055 152.037247 
L 509.006275 152.746409 
L 509.581496 154.159677 
L 510.156717 156.246065 
L 511.307158 161.861619 
L 512.457599 167.188768 
L 513.03282 168.330453 
L 513.608041 167.322114 
L 514.183261 163.019103 
L 514.758482 154.205743 
L 515.333703 140.377818 
L 515.908923 123.572665 
L 516.484144 110.793331 
L 517.059365 110.991819 
L 517.634585 125.126592 
L 518.209806 143.946088 
L 518.785027 156.850247 
L 519.360247 159.416352 
L 519.935468 154.228237 
L 520.510689 147.1307 
L 521.085909 143.260785 
L 521.66113 144.911598 
L 522.236351 151.220591 
L 523.386792 166.226807 
L 523.962013 170.582175 
L 524.537233 172.046458 
L 525.112454 170.92101 
L 525.687675 167.785011 
L 527.413337 155.498382 
L 527.988557 153.596001 
L 528.563778 153.621372 
L 529.138999 155.299034 
L 530.28944 160.452944 
L 530.864661 162.256942 
L 531.439881 162.889597 
L 532.015102 162.356746 
L 532.590323 160.985275 
L 533.740764 157.769283 
L 534.315985 156.8406 
L 534.891205 156.668243 
L 535.466426 157.227297 
L 536.616867 159.618058 
L 537.192088 160.767434 
L 537.767309 161.476698 
L 538.342529 161.593808 
L 538.91775 161.126235 
L 540.068191 159.101337 
L 540.643412 158.05054 
L 541.218633 157.287933 
L 541.793853 156.967459 
L 542.369074 157.139662 
L 542.944295 157.751198 
L 544.669957 160.51217 
L 545.245178 161.104922 
L 545.820398 161.314475 
L 546.395619 161.120284 
L 546.97084 160.588274 
L 549.271722 157.560887 
L 549.846943 157.221998 
L 550.422164 157.23246 
L 550.997384 157.622038 
L 551.572605 158.381913 
L 552.723046 160.76757 
L 553.873488 163.373883 
L 554.448708 164.274397 
L 555.023929 164.599961 
L 555.59915 164.150433 
L 556.17437 162.802336 
L 556.749591 160.528796 
L 557.900032 153.968155 
L 558.475253 150.627849 
L 559.050474 148.399704 
L 559.625694 148.690363 
L 560.200915 153.417351 
L 560.776136 164.606572 
L 561.926577 200.799123 
L 562.501798 206.476629 
L 563.077018 190.831779 
L 564.22746 130.092252 
L 564.80268 114.579534 
L 565.377901 118.085384 
L 565.953122 136.110392 
L 567.103563 179.169482 
L 567.678784 189.481057 
L 568.254004 189.427923 
L 568.829225 181.405989 
L 570.554887 143.716438 
L 571.130108 136.420788 
L 571.705328 134.641442 
L 572.280549 138.14418 
L 573.43099 153.981529 
L 574.006211 161.500567 
L 574.581432 166.089863 
L 575.156652 166.989599 
L 575.731873 164.62276 
L 577.457535 151.354472 
L 578.032756 149.195018 
L 578.607976 149.165704 
L 579.183197 150.952537 
L 580.908859 159.188098 
L 581.48408 160.322777 
L 582.0593 160.080974 
L 582.634521 158.697725 
L 583.784962 154.658752 
L 584.360183 153.174367 
L 584.935404 152.583861 
L 585.510624 152.972189 
L 586.085845 154.160091 
L 587.236286 157.446597 
L 587.811507 158.699699 
L 588.386728 159.283005 
L 588.961948 159.126072 
L 589.537169 158.343144 
L 591.262831 154.756975 
L 591.838052 154.054711 
L 592.413272 153.896373 
L 592.988493 154.29789 
L 593.563714 155.169746 
L 595.864596 159.731026 
L 596.439817 160.25959 
L 597.015038 160.32653 
L 597.590258 159.866594 
L 598.165479 158.885722 
L 599.31592 155.829906 
L 600.466362 152.789237 
L 601.041582 152.07834 
L 601.616803 152.426154 
L 602.192024 154.265883 
L 602.767244 158.001236 
L 603.342465 163.952771 
L 603.917686 172.240425 
L 605.643348 202.086016 
L 606.218568 202.919249 
L 606.793789 191.916295 
L 607.36901 173.422314 
L 607.94423 159.092796 
L 608.519451 156.705118 
L 609.094672 164.380617 
L 609.669892 174.079809 
L 610.245113 177.984726 
L 610.820334 172.752956 
L 611.395554 160.01188 
L 612.545996 131.586627 
L 613.121216 124.607741 
L 613.696437 124.11276 
L 614.271658 128.79165 
L 616.57254 159.018967 
L 617.147761 161.139253 
L 617.722982 159.905645 
L 618.298202 156.137178 
L 619.448644 146.741064 
L 620.023864 143.888189 
L 620.599085 143.227874 
L 621.174306 144.593277 
L 622.899968 153.02756 
L 623.475188 154.526256 
L 624.050409 154.662354 
L 624.62563 153.586652 
L 626.351292 148.146671 
L 626.926512 147.384268 
L 627.501733 147.59875 
L 628.076954 148.658959 
L 629.802616 153.289625 
L 630.377836 154.06754 
L 630.953057 154.134991 
L 631.528278 153.54326 
L 633.82916 149.49856 
L 634.404381 149.304787 
L 634.979602 149.635407 
L 635.554822 150.399074 
L 637.855705 154.381004 
L 638.430926 154.781014 
L 639.006147 154.732459 
L 639.581367 154.276131 
L 640.156588 153.496158 
L 641.88225 150.577971 
L 642.457471 149.892328 
L 643.032691 149.602593 
L 643.607912 149.850764 
L 644.183133 150.768584 
L 644.758353 152.426708 
L 645.333574 154.801806 
L 647.634457 166.482464 
L 648.209677 167.252549 
L 648.784898 165.431492 
L 649.360119 159.867533 
L 649.935339 149.549604 
L 651.085781 119.616267 
L 651.661001 111.820191 
L 652.236222 116.005412 
L 652.811443 126.902875 
L 653.386663 134.668811 
L 653.961884 133.837863 
L 655.112325 118.971605 
L 655.687546 117.558172 
L 656.262767 124.825286 
L 657.413208 156.30886 
L 657.988429 171.017654 
L 658.563649 180.124735 
L 659.13887 182.719911 
L 659.714091 179.579487 
L 660.289311 172.423017 
L 661.439753 154.859865 
L 662.014973 148.590657 
L 662.590194 145.754359 
L 663.165415 146.541166 
L 663.740635 150.210697 
L 664.891077 160.251563 
L 665.466297 163.609706 
L 666.041518 164.719355 
L 666.616739 163.622978 
L 667.191959 160.929676 
L 668.342401 154.56889 
L 668.917621 152.642765 
L 669.492842 152.164648 
L 670.068063 153.101374 
L 670.643283 155.062442 
L 671.793725 159.62433 
L 672.368945 161.041448 
L 672.944166 161.43071 
L 673.519387 160.799893 
L 674.094607 159.384802 
L 675.245049 155.888441 
L 675.820269 154.635223 
L 676.39549 154.080068 
L 676.970711 154.267861 
L 677.545931 155.088601 
L 679.271593 158.754831 
L 679.846814 159.515805 
L 680.422035 159.779712 
L 680.997255 159.529592 
L 681.572476 158.874794 
L 683.873359 155.206644 
L 684.448579 154.670682 
L 685.0238 154.464381 
L 685.599021 154.645247 
L 686.174241 155.253045 
L 686.749462 156.294275 
L 687.899903 159.393547 
L 689.050345 162.779147 
L 689.625565 163.901435 
L 690.200786 164.158357 
L 690.776007 163.147685 
L 691.351227 160.530342 
L 691.926448 156.119491 
L 693.076889 142.785395 
L 693.65211 136.030666 
L 694.227331 132.746833 
L 694.802551 136.917568 
L 695.952993 157.959375 
L 696.528213 151.896808 
L 697.103434 127.108315 
L 697.678655 93.969267 
L 698.253875 68.71025 
L 698.829096 63.723006 
L 699.404317 82.181499 
L 701.705199 219.092282 
L 702.28042 225.332293 
L 702.855641 216.990726 
L 703.430861 198.496891 
L 704.581303 154.267711 
L 705.156523 139.108621 
L 705.731744 132.778724 
L 706.306965 135.399859 
L 706.882185 144.876645 
L 708.032627 169.596393 
L 708.607847 177.745743 
L 709.183068 180.469161 
L 709.758289 177.915355 
L 710.333509 171.608987 
L 711.483951 156.806025 
L 712.059171 152.307688 
L 712.634392 151.120059 
L 713.209613 153.061672 
L 713.784833 157.189617 
L 714.935275 166.476388 
L 715.510495 169.139379 
L 716.085716 169.560857 
L 716.660937 167.879515 
L 718.386599 158.099747 
L 718.961819 156.186636 
L 719.53704 155.771575 
L 720.112261 156.764039 
L 721.262702 161.115715 
L 721.837923 163.230279 
L 722.413143 164.57264 
L 722.988364 164.900391 
L 723.563585 164.266424 
L 724.138805 162.915508 
L 725.289247 159.500322 
L 725.864467 158.141948 
L 726.439688 157.330328 
L 727.014909 157.140537 
L 727.59013 157.533513 
L 728.16535 158.389448 
L 730.466233 162.92946 
L 731.041454 163.540287 
L 731.616674 163.695801 
L 732.191895 163.327846 
L 732.767116 162.390435 
L 733.342336 160.861044 
L 734.492778 156.279373 
L 735.643219 151.441247 
L 736.21844 150.336557 
L 736.79366 151.415677 
L 737.368881 156.08802 
L 737.944102 166.112711 
L 738.519322 182.946303 
L 739.669764 226.06198 
L 740.244984 229.270948 
L 740.820205 205.54471 
L 741.970646 117.747618 
L 742.545867 88.364633 
L 743.121088 81.437229 
L 743.696308 95.061123 
L 745.42197 175.272344 
L 745.997191 190.4945 
L 746.572412 195.521753 
L 747.147632 191.258799 
L 747.722853 179.982103 
L 748.873294 151.00995 
L 749.448515 140.858313 
L 750.023736 136.748248 
L 750.598956 138.808822 
L 751.174177 145.514938 
L 752.324618 162.37517 
L 752.899839 167.77067 
L 753.47506 169.554975 
L 754.05028 167.912621 
L 754.625501 163.857489 
L 755.775942 154.359138 
L 756.351163 151.432691 
L 756.926384 150.544622 
L 757.501604 151.599887 
L 758.652046 156.837825 
L 759.227266 159.273015 
L 759.802487 160.666372 
L 760.377708 160.785649 
L 760.952928 159.788531 
L 762.67859 154.977918 
L 763.253811 154.385588 
L 763.829032 154.64077 
L 764.404252 155.551716 
L 765.554694 157.963046 
L 766.129914 158.734861 
L 766.705135 158.885946 
L 767.280356 158.383337 
L 767.855576 157.366701 
L 769.006018 154.903802 
L 769.581238 154.095668 
L 770.156459 153.862664 
L 770.73168 154.2539 
L 771.3069 155.180208 
L 773.032562 158.870541 
L 773.607783 159.535829 
L 774.183004 159.611097 
L 774.758224 159.02709 
L 775.333445 157.837652 
L 776.483886 154.347529 
L 777.059107 152.562553 
L 777.634328 151.176645 
L 778.209548 150.547296 
L 778.784769 151.02011 
L 779.35999 152.90519 
L 779.93521 156.462813 
L 780.510431 161.86191 
L 781.085652 169.086585 
L 782.811314 195.869193 
L 783.386534 200.078721 
L 783.961755 195.735409 
L 784.536976 181.734178 
L 785.112196 163.766922 
L 785.687417 149.325983 
L 786.262638 140.830312 
L 787.413079 131.666353 
L 787.9883 127.430379 
L 788.56352 124.84546 
L 789.138741 126.005521 
L 789.713962 131.962991 
L 791.439624 163.161345 
L 792.014844 169.096259 
L 792.590065 170.583585 
L 793.165286 168.253158 
L 794.315727 157.673534 
L 794.890948 152.464724 
L 795.466168 148.90188 
L 796.041389 147.545129 
L 796.61661 148.399461 
L 797.19183 150.953898 
L 798.342272 157.495249 
L 798.917492 159.647868 
L 799.492713 160.314834 
L 800.067934 159.498893 
L 800.643154 157.582389 
L 801.793596 152.92412 
L 802.368816 151.351799 
L 802.944037 150.736305 
L 803.519258 151.117482 
L 804.094478 152.296347 
L 805.24492 155.523997 
L 805.82014 156.789807 
L 806.395361 157.483212 
L 806.970582 157.525501 
L 807.545802 156.987167 
L 808.696244 154.971584 
L 809.271464 153.971719 
L 809.846685 153.217861 
L 810.421906 152.803428 
L 810.997126 152.744771 
L 811.572347 153.000482 
L 812.722788 154.115172 
L 814.44845 155.984661 
L 815.023671 156.376208 
L 815.598892 156.556174 
L 816.174112 156.488246 
L 816.749333 156.153618 
L 817.324554 155.556203 
L 818.474995 153.758082 
L 819.625437 151.882754 
L 820.200657 151.370466 
L 820.775878 151.424281 
L 821.351099 152.220354 
L 821.926319 153.852927 
L 822.50154 156.30177 
L 824.802423 168.437354 
L 825.377643 169.095141 
L 825.952864 166.971029 
L 826.528085 160.930838 
L 827.103305 150.261255 
L 828.253747 123.498336 
L 828.828967 119.739064 
L 829.404188 125.899155 
L 829.979409 134.268188 
L 830.554629 136.287344 
L 831.12985 129.734944 
L 831.705071 119.543055 
L 832.280291 113.226284 
L 832.855512 116.138467 
L 833.430733 129.041426 
L 835.156395 183.474098 
L 835.731615 191.090208 
L 836.306836 190.916075 
L 836.882057 184.483215 
L 838.607719 153.532283 
L 839.182939 147.584992 
L 839.75816 146.079485 
L 840.333381 148.703586 
L 842.059043 165.75166 
L 842.634263 168.750181 
L 843.209484 168.956982 
L 843.784705 166.706718 
L 845.510367 155.559378 
L 846.085587 153.785311 
L 846.660808 153.799715 
L 847.236029 155.378409 
L 848.961691 162.945356 
L 849.536911 164.157919 
L 850.112132 164.144745 
L 850.687353 163.033298 
L 852.413015 157.458833 
L 852.988235 156.36952 
L 853.563456 156.082445 
L 854.138677 156.543903 
L 854.713897 157.550979 
L 855.864339 160.048272 
L 856.439559 161.003262 
L 857.01478 161.527061 
L 857.590001 161.568674 
L 858.165221 161.172281 
L 858.740442 160.448725 
L 860.466104 157.725156 
L 861.041325 157.024677 
L 861.616545 156.575294 
L 862.191766 156.447198 
L 862.766987 156.680159 
L 863.342207 157.294427 
L 863.917428 158.270059 
L 865.067869 160.977167 
L 866.218311 163.597991 
L 866.793531 164.241826 
L 867.368752 164.033664 
L 867.943973 162.681872 
L 868.519193 159.969791 
L 869.094414 155.80156 
L 870.244855 144.046037 
L 870.820076 138.021237 
L 871.395297 134.213596 
L 871.970517 135.634759 
L 872.545738 145.070758 
L 873.120959 160.435808 
L 873.696179 171.607917 
L 874.2714 168.596076 
L 875.997062 122.307697 
L 876.572283 125.738537 
L 877.147503 141.684303 
L 878.297945 183.126464 
L 878.873165 194.828527 
L 879.448386 196.648708 
L 880.023607 190.167624 
L 882.324489 144.986705 
L 882.89971 141.932085 
L 883.474931 144.001507 
L 884.050151 149.946289 
L 885.200593 164.899516 
L 885.775813 169.688905 
L 886.351034 171.106908 
L 886.926255 169.296206 
L 888.076696 160.462157 
L 888.651917 156.346834 
L 889.227137 153.926221 
L 889.802358 153.599248 
L 890.377579 155.157554 
L 892.103241 163.541939 
L 892.678461 164.923774 
L 893.253682 164.900051 
L 893.828903 163.603921 
L 895.554565 157.331918 
L 896.129785 156.298065 
L 896.705006 156.258058 
L 897.280227 157.107898 
L 899.005889 161.683937 
L 899.581109 162.604188 
L 900.15633 162.836122 
L 900.731551 162.38533 
L 901.306771 161.402611 
L 903.032433 157.728199 
L 903.607654 157.05224 
L 904.182875 156.893712 
L 904.758095 157.254725 
L 905.333316 158.02968 
L 907.634199 162.074983 
L 908.209419 162.596653 
L 908.78464 162.677399 
L 909.359861 162.24197 
L 909.935082 161.23612 
L 910.510302 159.651247 
L 911.660744 155.071489 
L 912.811185 150.228684 
L 913.386406 148.764596 
L 913.961626 148.695419 
L 914.536847 150.652447 
L 915.112068 155.250352 
L 915.687288 162.819593 
L 916.83773 182.768767 
L 917.41295 187.883087 
L 917.988171 185.221797 
L 918.563392 180.518649 
L 919.138612 184.670911 
L 919.713833 202.312943 
L 920.289054 227.25641 
L 920.864274 246.964753 
L 921.439495 250.193652 
L 922.014716 232.793472 
L 922.589936 198.822309 
L 923.740378 121.459491 
L 924.315598 97.364424 
L 924.890819 89.016538 
L 925.46604 95.343567 
L 926.04126 112.302873 
L 927.191702 155.571832 
L 927.766922 171.325328 
L 928.342143 178.770707 
L 928.917364 177.457174 
L 929.492584 169.151144 
L 930.643026 145.39637 
L 931.218246 136.941 
L 931.793467 133.553572 
L 932.368688 135.348134 
L 932.943908 141.070413 
L 934.09435 155.805842 
L 934.66957 160.737921 
L 935.244791 162.465494 
L 935.820012 160.998673 
L 936.395232 157.181348 
L 937.545674 147.940648 
L 938.120894 145.026471 
L 938.696115 144.186481 
L 939.271336 145.360688 
L 939.846556 148.014005 
L 940.996998 154.420133 
L 941.572218 156.581004 
L 942.147439 157.424667 
L 942.72266 156.934324 
L 943.29788 155.411282 
L 944.448322 151.313734 
L 945.023542 149.747266 
L 945.598763 148.949181 
L 946.173984 149.014128 
L 946.749204 149.83093 
L 949.050087 154.958332 
L 949.625308 155.524147 
L 950.200528 155.629502 
L 950.775749 155.324376 
L 951.35097 154.699684 
L 952.501411 152.854734 
L 954.227073 149.819408 
L 954.802294 149.105375 
L 955.377514 148.759054 
L 955.952735 148.923318 
L 956.527956 149.723689 
L 957.103176 151.229487 
L 958.253618 155.909355 
L 958.828838 158.24108 
L 959.404059 159.447508 
L 959.97928 158.082037 
L 960.5545 152.05854 
L 961.129721 138.728416 
L 961.704942 116.097972 
L 962.280162 87.311667 
L 962.855383 67.637354 
L 963.430604 79.440678 
L 964.005824 130.44222 
L 965.156266 270.997741 
L 965.731486 307.8 
L 966.306707 304.402898 
L 966.881928 265.708121 
L 968.60759 97.620617 
L 969.18281 70.696106 
L 969.758031 66.58293 
L 970.333252 82.277754 
L 972.634134 192.693865 
L 973.209355 197.67868 
L 973.784576 189.928057 
L 975.510238 137.971603 
L 976.085458 128.201678 
L 976.660679 126.488252 
L 977.2359 131.918024 
L 978.961562 162.367732 
L 979.536782 167.704021 
L 980.112003 168.338377 
L 980.687224 164.87132 
L 982.412886 147.034689 
L 982.988106 144.305341 
L 983.563327 144.472716 
L 984.138548 147.079413 
L 985.86421 158.365997 
L 986.43943 159.828467 
L 987.014651 159.457187 
L 987.589872 157.595363 
L 988.740313 152.264228 
L 989.315534 150.322411 
L 989.890754 149.554271 
L 990.465975 150.065295 
L 991.041196 151.616868 
L 992.191637 155.812381 
L 992.766858 157.36866 
L 993.342078 158.045266 
L 993.917299 157.732089 
L 994.49252 156.552684 
L 996.218182 151.226717 
L 996.218182 151.226717 
" style="fill:none;stroke:#4c72b0;stroke-linecap:round;stroke-width:1.4;"/>
   </g>
   <g id="patch_3">
    <path d="M 144 320.4 
L 144 43.2 
" style="fill:none;"/>
   </g>
   <g id="patch_4">
    <path d="M 1036.8 320.4 
L 1036.8 43.2 
" style="fill:none;"/>
   </g>
   <g id="patch_5">
    <path d="M 144 320.4 
L 1036.8 320.4 
" style="fill:none;"/>
   </g>
   <g id="patch_6">
    <path d="M 144 43.2 
L 1036.8 43.2 
" style="fill:none;"/>
   </g>
  </g>
 </g>
 <defs>
  <clipPath id="p8b5703de3d">
   <rect height="277.2" width="892.8" x="144" y="43.2"/>
  </clipPath>
 </defs>
</svg>
