<?xml version="1.0" encoding="utf-8" standalone="no"?>
<!DOCTYPE svg PUBLIC "-//W3C//DTD SVG 1.1//EN"
  "http://www.w3.org/Graphics/SVG/1.1/DTD/svg11.dtd">
<!-- Created with matplotlib (http://matplotlib.org/) -->
<svg height="396pt" version="1.1" viewBox="0 0 576 396" width="576pt" xmlns="http://www.w3.org/2000/svg" xmlns:xlink="http://www.w3.org/1999/xlink">
 <defs>
  <style type="text/css">
*{stroke-linecap:butt;stroke-linejoin:round;}
  </style>
 </defs>
 <g id="figure_1">
  <g id="patch_1">
   <path d="M 0 396 
L 576 396 
L 576 0 
L 0 0 
z
" style="fill:#ffffff;"/>
  </g>
  <g id="axes_1">
   <g id="patch_2">
    <path d="M 72 352.44 
L 518.4 352.44 
L 518.4 47.52 
L 72 47.52 
z
" style="fill:#eaeaf2;"/>
   </g>
   <g id="matplotlib.axis_1">
    <g id="xtick_1">
     <g id="line2d_1">
      <path clip-path="url(#peee55e12cb)" d="M 92.290909 352.44 
L 92.290909 47.52 
" style="fill:none;stroke:#ffffff;stroke-linecap:round;"/>
     </g>
     <g id="line2d_2"/>
     <g id="text_1">
      <!-- 0.000 -->
      <defs>
       <path d="M 51.703125 34.421875 
Q 51.703125 24.515625 49.828125 17.75 
Q 47.953125 10.984375 44.703125 6.8125 
Q 41.453125 2.640625 37.0625 0.828125 
Q 32.671875 -0.984375 27.6875 -0.984375 
Q 22.65625 -0.984375 18.3125 0.828125 
Q 13.96875 2.640625 10.765625 6.78125 
Q 7.5625 10.9375 5.734375 17.703125 
Q 3.90625 24.46875 3.90625 34.421875 
Q 3.90625 44.828125 5.734375 51.640625 
Q 7.5625 58.453125 10.78125 62.5 
Q 14.015625 66.546875 18.40625 68.1875 
Q 22.796875 69.828125 27.984375 69.828125 
Q 32.90625 69.828125 37.21875 68.1875 
Q 41.546875 66.546875 44.765625 62.5 
Q 48 58.453125 49.84375 51.640625 
Q 51.703125 44.828125 51.703125 34.421875 
M 42.78125 34.421875 
Q 42.78125 42.625 41.796875 48.0625 
Q 40.828125 53.515625 38.921875 56.765625 
Q 37.015625 60.015625 34.25 61.359375 
Q 31.5 62.703125 27.984375 62.703125 
Q 24.265625 62.703125 21.4375 61.328125 
Q 18.609375 59.96875 16.671875 56.71875 
Q 14.75 53.46875 13.765625 48.015625 
Q 12.796875 42.578125 12.796875 34.421875 
Q 12.796875 26.515625 13.796875 21.09375 
Q 14.796875 15.671875 16.71875 12.375 
Q 18.65625 9.078125 21.4375 7.640625 
Q 24.21875 6.203125 27.78125 6.203125 
Q 31.25 6.203125 34.03125 7.640625 
Q 36.8125 9.078125 38.734375 12.375 
Q 40.671875 15.671875 41.71875 21.09375 
Q 42.78125 26.515625 42.78125 34.421875 
" id="LiberationSans-30"/>
       <path d="M 9.125 0 
L 9.125 10.6875 
L 18.65625 10.6875 
L 18.65625 0 
z
" id="LiberationSans-2e"/>
      </defs>
      <g style="fill:#262626;" transform="translate(79.779972 366.686875)scale(0.1 -0.1)">
       <use xlink:href="#LiberationSans-30"/>
       <use x="55.615234" xlink:href="#LiberationSans-2e"/>
       <use x="83.398438" xlink:href="#LiberationSans-30"/>
       <use x="139.013672" xlink:href="#LiberationSans-30"/>
       <use x="194.628906" xlink:href="#LiberationSans-30"/>
      </g>
     </g>
    </g>
    <g id="xtick_2">
     <g id="line2d_3">
      <path clip-path="url(#peee55e12cb)" d="M 155.619224 352.44 
L 155.619224 47.52 
" style="fill:none;stroke:#ffffff;stroke-linecap:round;"/>
     </g>
     <g id="line2d_4"/>
     <g id="text_2">
      <!-- 0.005 -->
      <defs>
       <path d="M 51.421875 22.40625 
Q 51.421875 17.234375 49.859375 12.9375 
Q 48.296875 8.640625 45.21875 5.53125 
Q 42.140625 2.4375 37.578125 0.71875 
Q 33.015625 -0.984375 27 -0.984375 
Q 21.578125 -0.984375 17.546875 0.28125 
Q 13.53125 1.5625 10.734375 3.78125 
Q 7.953125 6 6.3125 8.984375 
Q 4.6875 11.96875 4 15.375 
L 12.890625 16.40625 
Q 13.421875 14.453125 14.390625 12.625 
Q 15.375 10.796875 17.0625 9.34375 
Q 18.75 7.90625 21.21875 7.046875 
Q 23.6875 6.203125 27.203125 6.203125 
Q 30.609375 6.203125 33.390625 7.25 
Q 36.1875 8.296875 38.15625 10.34375 
Q 40.140625 12.40625 41.203125 15.375 
Q 42.28125 18.359375 42.28125 22.21875 
Q 42.28125 25.390625 41.25 28.046875 
Q 40.234375 30.71875 38.328125 32.640625 
Q 36.421875 34.578125 33.65625 35.640625 
Q 30.90625 36.71875 27.390625 36.71875 
Q 25.203125 36.71875 23.34375 36.328125 
Q 21.484375 35.9375 19.890625 35.25 
Q 18.3125 34.578125 17.015625 33.671875 
Q 15.71875 32.765625 14.59375 31.78125 
L 6 31.78125 
L 8.296875 68.796875 
L 47.40625 68.796875 
L 47.40625 61.328125 
L 16.3125 61.328125 
L 14.984375 39.5 
Q 17.328125 41.3125 20.84375 42.59375 
Q 24.359375 43.890625 29.203125 43.890625 
Q 34.328125 43.890625 38.421875 42.328125 
Q 42.53125 40.765625 45.40625 37.90625 
Q 48.296875 35.0625 49.859375 31.109375 
Q 51.421875 27.15625 51.421875 22.40625 
" id="LiberationSans-35"/>
      </defs>
      <g style="fill:#262626;" transform="translate(143.108287 366.686875)scale(0.1 -0.1)">
       <use xlink:href="#LiberationSans-30"/>
       <use x="55.615234" xlink:href="#LiberationSans-2e"/>
       <use x="83.398438" xlink:href="#LiberationSans-30"/>
       <use x="139.013672" xlink:href="#LiberationSans-30"/>
       <use x="194.628906" xlink:href="#LiberationSans-35"/>
      </g>
     </g>
    </g>
    <g id="xtick_3">
     <g id="line2d_5">
      <path clip-path="url(#peee55e12cb)" d="M 218.947539 352.44 
L 218.947539 47.52 
" style="fill:none;stroke:#ffffff;stroke-linecap:round;"/>
     </g>
     <g id="line2d_6"/>
     <g id="text_3">
      <!-- 0.010 -->
      <defs>
       <path d="M 7.625 0 
L 7.625 7.46875 
L 25.140625 7.46875 
L 25.140625 60.40625 
L 9.625 49.3125 
L 9.625 57.625 
L 25.875 68.796875 
L 33.984375 68.796875 
L 33.984375 7.46875 
L 50.734375 7.46875 
L 50.734375 0 
z
" id="LiberationSans-31"/>
      </defs>
      <g style="fill:#262626;" transform="translate(206.436602 366.686875)scale(0.1 -0.1)">
       <use xlink:href="#LiberationSans-30"/>
       <use x="55.615234" xlink:href="#LiberationSans-2e"/>
       <use x="83.398438" xlink:href="#LiberationSans-30"/>
       <use x="139.013672" xlink:href="#LiberationSans-31"/>
       <use x="194.628906" xlink:href="#LiberationSans-30"/>
      </g>
     </g>
    </g>
    <g id="xtick_4">
     <g id="line2d_7">
      <path clip-path="url(#peee55e12cb)" d="M 282.275854 352.44 
L 282.275854 47.52 
" style="fill:none;stroke:#ffffff;stroke-linecap:round;"/>
     </g>
     <g id="line2d_8"/>
     <g id="text_4">
      <!-- 0.015 -->
      <g style="fill:#262626;" transform="translate(269.764917 366.686875)scale(0.1 -0.1)">
       <use xlink:href="#LiberationSans-30"/>
       <use x="55.615234" xlink:href="#LiberationSans-2e"/>
       <use x="83.398438" xlink:href="#LiberationSans-30"/>
       <use x="139.013672" xlink:href="#LiberationSans-31"/>
       <use x="194.628906" xlink:href="#LiberationSans-35"/>
      </g>
     </g>
    </g>
    <g id="xtick_5">
     <g id="line2d_9">
      <path clip-path="url(#peee55e12cb)" d="M 345.604169 352.44 
L 345.604169 47.52 
" style="fill:none;stroke:#ffffff;stroke-linecap:round;"/>
     </g>
     <g id="line2d_10"/>
     <g id="text_5">
      <!-- 0.020 -->
      <defs>
       <path d="M 5.03125 0 
L 5.03125 6.203125 
Q 7.515625 11.921875 11.109375 16.28125 
Q 14.703125 20.65625 18.65625 24.1875 
Q 22.609375 27.734375 26.484375 30.765625 
Q 30.375 33.796875 33.5 36.8125 
Q 36.625 39.84375 38.546875 43.15625 
Q 40.484375 46.484375 40.484375 50.6875 
Q 40.484375 53.609375 39.59375 55.828125 
Q 38.71875 58.0625 37.0625 59.5625 
Q 35.40625 61.078125 33.078125 61.828125 
Q 30.765625 62.59375 27.9375 62.59375 
Q 25.296875 62.59375 22.96875 61.859375 
Q 20.65625 61.140625 18.84375 59.671875 
Q 17.046875 58.203125 15.890625 56.03125 
Q 14.75 53.859375 14.40625 50.984375 
L 5.421875 51.8125 
Q 5.859375 55.515625 7.46875 58.78125 
Q 9.078125 62.0625 11.90625 64.53125 
Q 14.75 67 18.71875 68.40625 
Q 22.703125 69.828125 27.9375 69.828125 
Q 33.0625 69.828125 37.0625 68.609375 
Q 41.0625 67.390625 43.8125 64.984375 
Q 46.578125 62.59375 48.046875 59.078125 
Q 49.515625 55.5625 49.515625 50.984375 
Q 49.515625 47.515625 48.265625 44.390625 
Q 47.015625 41.265625 44.9375 38.421875 
Q 42.875 35.59375 40.140625 32.953125 
Q 37.40625 30.328125 34.421875 27.8125 
Q 31.453125 25.296875 28.421875 22.828125 
Q 25.390625 20.359375 22.71875 17.859375 
Q 20.0625 15.375 17.96875 12.8125 
Q 15.875 10.25 14.703125 7.46875 
L 50.59375 7.46875 
L 50.59375 0 
z
" id="LiberationSans-32"/>
      </defs>
      <g style="fill:#262626;" transform="translate(333.093232 366.686875)scale(0.1 -0.1)">
       <use xlink:href="#LiberationSans-30"/>
       <use x="55.615234" xlink:href="#LiberationSans-2e"/>
       <use x="83.398438" xlink:href="#LiberationSans-30"/>
       <use x="139.013672" xlink:href="#LiberationSans-32"/>
       <use x="194.628906" xlink:href="#LiberationSans-30"/>
      </g>
     </g>
    </g>
    <g id="xtick_6">
     <g id="line2d_11">
      <path clip-path="url(#peee55e12cb)" d="M 408.932484 352.44 
L 408.932484 47.52 
" style="fill:none;stroke:#ffffff;stroke-linecap:round;"/>
     </g>
     <g id="line2d_12"/>
     <g id="text_6">
      <!-- 0.025 -->
      <g style="fill:#262626;" transform="translate(396.421547 366.686875)scale(0.1 -0.1)">
       <use xlink:href="#LiberationSans-30"/>
       <use x="55.615234" xlink:href="#LiberationSans-2e"/>
       <use x="83.398438" xlink:href="#LiberationSans-30"/>
       <use x="139.013672" xlink:href="#LiberationSans-32"/>
       <use x="194.628906" xlink:href="#LiberationSans-35"/>
      </g>
     </g>
    </g>
    <g id="xtick_7">
     <g id="line2d_13">
      <path clip-path="url(#peee55e12cb)" d="M 472.260799 352.44 
L 472.260799 47.52 
" style="fill:none;stroke:#ffffff;stroke-linecap:round;"/>
     </g>
     <g id="line2d_14"/>
     <g id="text_7">
      <!-- 0.030 -->
      <defs>
       <path d="M 51.21875 19 
Q 51.21875 14.265625 49.671875 10.546875 
Q 48.140625 6.84375 45.1875 4.265625 
Q 42.234375 1.703125 37.859375 0.359375 
Q 33.5 -0.984375 27.875 -0.984375 
Q 21.484375 -0.984375 17.109375 0.609375 
Q 12.75 2.203125 9.90625 4.8125 
Q 7.078125 7.421875 5.65625 10.765625 
Q 4.25 14.109375 3.8125 17.671875 
L 12.890625 18.5 
Q 13.28125 15.765625 14.328125 13.515625 
Q 15.375 11.28125 17.1875 9.671875 
Q 19 8.0625 21.625 7.171875 
Q 24.265625 6.296875 27.875 6.296875 
Q 34.515625 6.296875 38.296875 9.5625 
Q 42.09375 12.84375 42.09375 19.28125 
Q 42.09375 23.09375 40.40625 25.40625 
Q 38.71875 27.734375 36.203125 29.03125 
Q 33.6875 30.328125 30.734375 30.765625 
Q 27.78125 31.203125 25.296875 31.203125 
L 20.3125 31.203125 
L 20.3125 38.8125 
L 25.09375 38.8125 
Q 27.59375 38.8125 30.265625 39.328125 
Q 32.953125 39.84375 35.171875 41.1875 
Q 37.40625 42.53125 38.84375 44.828125 
Q 40.28125 47.125 40.28125 50.6875 
Q 40.28125 56.203125 37.03125 59.390625 
Q 33.796875 62.59375 27.390625 62.59375 
Q 21.578125 62.59375 17.984375 59.609375 
Q 14.40625 56.640625 13.8125 51.21875 
L 4.984375 51.90625 
Q 5.515625 56.453125 7.46875 59.8125 
Q 9.421875 63.1875 12.421875 65.40625 
Q 15.4375 67.625 19.28125 68.71875 
Q 23.140625 69.828125 27.484375 69.828125 
Q 33.25 69.828125 37.390625 68.375 
Q 41.546875 66.9375 44.1875 64.46875 
Q 46.828125 62.015625 48.0625 58.6875 
Q 49.3125 55.375 49.3125 51.609375 
Q 49.3125 48.578125 48.484375 45.9375 
Q 47.65625 43.3125 45.890625 41.203125 
Q 44.140625 39.109375 41.421875 37.59375 
Q 38.71875 36.078125 34.90625 35.296875 
L 34.90625 35.109375 
Q 39.0625 34.671875 42.140625 33.21875 
Q 45.21875 31.78125 47.21875 29.625 
Q 49.21875 27.484375 50.21875 24.75 
Q 51.21875 22.015625 51.21875 19 
" id="LiberationSans-33"/>
      </defs>
      <g style="fill:#262626;" transform="translate(459.749862 366.686875)scale(0.1 -0.1)">
       <use xlink:href="#LiberationSans-30"/>
       <use x="55.615234" xlink:href="#LiberationSans-2e"/>
       <use x="83.398438" xlink:href="#LiberationSans-30"/>
       <use x="139.013672" xlink:href="#LiberationSans-33"/>
       <use x="194.628906" xlink:href="#LiberationSans-30"/>
      </g>
     </g>
    </g>
   </g>
   <g id="matplotlib.axis_2">
    <g id="ytick_1">
     <g id="line2d_15">
      <path clip-path="url(#peee55e12cb)" d="M 72 319.861483 
L 518.4 319.861483 
" style="fill:none;stroke:#ffffff;stroke-linecap:round;"/>
     </g>
     <g id="line2d_16"/>
     <g id="text_8">
      <!-- 0.0 -->
      <g style="fill:#262626;" transform="translate(51.1 323.484921)scale(0.1 -0.1)">
       <use xlink:href="#LiberationSans-30"/>
       <use x="55.615234" xlink:href="#LiberationSans-2e"/>
       <use x="83.398438" xlink:href="#LiberationSans-30"/>
      </g>
     </g>
    </g>
    <g id="ytick_2">
     <g id="line2d_17">
      <path clip-path="url(#peee55e12cb)" d="M 72 284.14601 
L 518.4 284.14601 
" style="fill:none;stroke:#ffffff;stroke-linecap:round;"/>
     </g>
     <g id="line2d_18"/>
     <g id="text_9">
      <!-- 0.1 -->
      <g style="fill:#262626;" transform="translate(51.1 287.769448)scale(0.1 -0.1)">
       <use xlink:href="#LiberationSans-30"/>
       <use x="55.615234" xlink:href="#LiberationSans-2e"/>
       <use x="83.398438" xlink:href="#LiberationSans-31"/>
      </g>
     </g>
    </g>
    <g id="ytick_3">
     <g id="line2d_19">
      <path clip-path="url(#peee55e12cb)" d="M 72 248.430538 
L 518.4 248.430538 
" style="fill:none;stroke:#ffffff;stroke-linecap:round;"/>
     </g>
     <g id="line2d_20"/>
     <g id="text_10">
      <!-- 0.2 -->
      <g style="fill:#262626;" transform="translate(51.1 252.053975)scale(0.1 -0.1)">
       <use xlink:href="#LiberationSans-30"/>
       <use x="55.615234" xlink:href="#LiberationSans-2e"/>
       <use x="83.398438" xlink:href="#LiberationSans-32"/>
      </g>
     </g>
    </g>
    <g id="ytick_4">
     <g id="line2d_21">
      <path clip-path="url(#peee55e12cb)" d="M 72 212.715065 
L 518.4 212.715065 
" style="fill:none;stroke:#ffffff;stroke-linecap:round;"/>
     </g>
     <g id="line2d_22"/>
     <g id="text_11">
      <!-- 0.3 -->
      <g style="fill:#262626;" transform="translate(51.1 216.338502)scale(0.1 -0.1)">
       <use xlink:href="#LiberationSans-30"/>
       <use x="55.615234" xlink:href="#LiberationSans-2e"/>
       <use x="83.398438" xlink:href="#LiberationSans-33"/>
      </g>
     </g>
    </g>
    <g id="ytick_5">
     <g id="line2d_23">
      <path clip-path="url(#peee55e12cb)" d="M 72 176.999592 
L 518.4 176.999592 
" style="fill:none;stroke:#ffffff;stroke-linecap:round;"/>
     </g>
     <g id="line2d_24"/>
     <g id="text_12">
      <!-- 0.4 -->
      <defs>
       <path d="M 43.015625 15.578125 
L 43.015625 0 
L 34.71875 0 
L 34.71875 15.578125 
L 2.296875 15.578125 
L 2.296875 22.40625 
L 33.796875 68.796875 
L 43.015625 68.796875 
L 43.015625 22.515625 
L 52.6875 22.515625 
L 52.6875 15.578125 
z
M 34.71875 58.890625 
Q 34.625 58.640625 34.234375 57.9375 
Q 33.84375 57.234375 33.34375 56.34375 
Q 32.859375 55.46875 32.34375 54.5625 
Q 31.84375 53.65625 31.453125 53.078125 
L 13.8125 27.09375 
Q 13.578125 26.703125 13.109375 26.0625 
Q 12.640625 25.4375 12.15625 24.78125 
Q 11.671875 24.125 11.171875 23.484375 
Q 10.6875 22.859375 10.40625 22.515625 
L 34.71875 22.515625 
z
" id="LiberationSans-34"/>
      </defs>
      <g style="fill:#262626;" transform="translate(51.1 180.62303)scale(0.1 -0.1)">
       <use xlink:href="#LiberationSans-30"/>
       <use x="55.615234" xlink:href="#LiberationSans-2e"/>
       <use x="83.398438" xlink:href="#LiberationSans-34"/>
      </g>
     </g>
    </g>
    <g id="ytick_6">
     <g id="line2d_25">
      <path clip-path="url(#peee55e12cb)" d="M 72 141.28412 
L 518.4 141.28412 
" style="fill:none;stroke:#ffffff;stroke-linecap:round;"/>
     </g>
     <g id="line2d_26"/>
     <g id="text_13">
      <!-- 0.5 -->
      <g style="fill:#262626;" transform="translate(51.1 144.907557)scale(0.1 -0.1)">
       <use xlink:href="#LiberationSans-30"/>
       <use x="55.615234" xlink:href="#LiberationSans-2e"/>
       <use x="83.398438" xlink:href="#LiberationSans-35"/>
      </g>
     </g>
    </g>
    <g id="ytick_7">
     <g id="line2d_27">
      <path clip-path="url(#peee55e12cb)" d="M 72 105.568647 
L 518.4 105.568647 
" style="fill:none;stroke:#ffffff;stroke-linecap:round;"/>
     </g>
     <g id="line2d_28"/>
     <g id="text_14">
      <!-- 0.6 -->
      <defs>
       <path d="M 51.21875 22.515625 
Q 51.21875 17.328125 49.78125 13 
Q 48.34375 8.6875 45.53125 5.578125 
Q 42.71875 2.484375 38.5625 0.75 
Q 34.421875 -0.984375 29 -0.984375 
Q 23 -0.984375 18.5 1.3125 
Q 14.015625 3.609375 11.03125 7.921875 
Q 8.0625 12.25 6.5625 18.53125 
Q 5.078125 24.8125 5.078125 32.8125 
Q 5.078125 42 6.765625 48.921875 
Q 8.453125 55.859375 11.625 60.5 
Q 14.796875 65.140625 19.359375 67.484375 
Q 23.921875 69.828125 29.6875 69.828125 
Q 33.203125 69.828125 36.28125 69.09375 
Q 39.359375 68.359375 41.875 66.71875 
Q 44.390625 65.09375 46.28125 62.40625 
Q 48.1875 59.71875 49.3125 55.8125 
L 40.921875 54.296875 
Q 39.546875 58.734375 36.546875 60.71875 
Q 33.546875 62.703125 29.59375 62.703125 
Q 25.984375 62.703125 23.046875 60.984375 
Q 20.125 59.28125 18.0625 55.875 
Q 16.015625 52.484375 14.90625 47.359375 
Q 13.8125 42.234375 13.8125 35.40625 
Q 16.21875 39.84375 20.5625 42.15625 
Q 24.90625 44.484375 30.515625 44.484375 
Q 35.203125 44.484375 39.015625 42.96875 
Q 42.828125 41.453125 45.53125 38.59375 
Q 48.25 35.75 49.734375 31.671875 
Q 51.21875 27.59375 51.21875 22.515625 
M 42.28125 22.125 
Q 42.28125 25.6875 41.40625 28.5625 
Q 40.53125 31.453125 38.765625 33.46875 
Q 37.015625 35.5 34.421875 36.59375 
Q 31.84375 37.703125 28.421875 37.703125 
Q 26.03125 37.703125 23.578125 36.984375 
Q 21.140625 36.28125 19.15625 34.6875 
Q 17.1875 33.109375 15.9375 30.515625 
Q 14.703125 27.9375 14.703125 24.21875 
Q 14.703125 20.40625 15.671875 17.109375 
Q 16.65625 13.8125 18.484375 11.375 
Q 20.3125 8.9375 22.890625 7.515625 
Q 25.484375 6.109375 28.71875 6.109375 
Q 31.890625 6.109375 34.40625 7.203125 
Q 36.921875 8.296875 38.671875 10.375 
Q 40.4375 12.453125 41.359375 15.421875 
Q 42.28125 18.40625 42.28125 22.125 
" id="LiberationSans-36"/>
      </defs>
      <g style="fill:#262626;" transform="translate(51.1 109.192084)scale(0.1 -0.1)">
       <use xlink:href="#LiberationSans-30"/>
       <use x="55.615234" xlink:href="#LiberationSans-2e"/>
       <use x="83.398438" xlink:href="#LiberationSans-36"/>
      </g>
     </g>
    </g>
    <g id="ytick_8">
     <g id="line2d_29">
      <path clip-path="url(#peee55e12cb)" d="M 72 69.853174 
L 518.4 69.853174 
" style="fill:none;stroke:#ffffff;stroke-linecap:round;"/>
     </g>
     <g id="line2d_30"/>
     <g id="text_15">
      <!-- 0.7 -->
      <defs>
       <path d="M 50.59375 61.671875 
Q 45.40625 53.765625 41.0625 46.453125 
Q 36.71875 39.15625 33.59375 31.75 
Q 30.46875 24.359375 28.734375 16.578125 
Q 27 8.796875 27 0 
L 17.828125 0 
Q 17.828125 8.25 19.78125 16.1875 
Q 21.734375 24.125 25.046875 31.765625 
Q 28.375 39.40625 32.765625 46.78125 
Q 37.15625 54.15625 42.09375 61.328125 
L 5.125 61.328125 
L 5.125 68.796875 
L 50.59375 68.796875 
z
" id="LiberationSans-37"/>
      </defs>
      <g style="fill:#262626;" transform="translate(51.1 73.476612)scale(0.1 -0.1)">
       <use xlink:href="#LiberationSans-30"/>
       <use x="55.615234" xlink:href="#LiberationSans-2e"/>
       <use x="83.398438" xlink:href="#LiberationSans-37"/>
      </g>
     </g>
    </g>
   </g>
   <g id="line2d_31">
    <path clip-path="url(#peee55e12cb)" d="M 92.290909 219.218483 
L 93.152519 225.630882 
L 93.726925 228.519778 
L 94.301332 230.221831 
L 94.588535 230.623296 
L 94.875738 230.729336 
L 95.162942 230.547273 
L 95.450145 230.087598 
L 96.024551 228.392337 
L 96.598958 225.784479 
L 97.460567 220.560234 
L 100.619803 199.099802 
L 101.19421 196.551787 
L 101.768616 194.762453 
L 102.343023 193.774061 
L 102.630226 193.579211 
L 102.917429 193.57689 
L 103.204632 193.757877 
L 103.779039 194.617995 
L 104.353445 196.028851 
L 105.502258 199.798727 
L 106.651071 203.435191 
L 107.225478 204.654982 
L 107.512681 205.024702 
L 107.799884 205.203611 
L 108.087087 205.17121 
L 108.374291 204.909363 
L 108.661494 204.402553 
L 109.2359 202.606321 
L 109.810307 199.718055 
L 110.384713 195.725119 
L 111.246323 187.76689 
L 112.395136 174.084864 
L 114.692762 141.993204 
L 116.128778 124.031412 
L 116.990388 115.637284 
L 117.851998 109.516748 
L 118.426404 106.762458 
L 119.000811 105.036396 
L 119.575217 104.253692 
L 119.86242 104.176995 
L 120.149624 104.284144 
L 120.72403 104.959572 
L 121.298437 106.08315 
L 123.021656 109.977717 
L 123.596063 110.746135 
L 123.883266 110.926488 
L 124.170469 110.946469 
L 124.457672 110.790934 
L 124.744876 110.447561 
L 125.319282 109.163133 
L 125.893688 107.056665 
L 126.468095 104.143628 
L 127.329705 98.421525 
L 128.478518 88.981773 
L 130.48894 71.964853 
L 131.35055 66.44117 
L 131.924957 63.857335 
L 132.499363 62.328363 
L 132.786566 61.993004 
L 133.07377 61.955496 
L 133.360973 62.220607 
L 133.648176 62.789773 
L 134.222583 64.829266 
L 134.796989 68.019047 
L 135.658599 74.717885 
L 136.807412 86.338407 
L 139.966647 120.544085 
L 140.828257 127.212018 
L 141.689867 131.94062 
L 142.264273 133.992308 
L 142.83868 135.222557 
L 143.413086 135.736444 
L 143.70029 135.76927 
L 144.274696 135.495192 
L 145.136306 134.608684 
L 145.997915 133.795726 
L 146.572322 133.653401 
L 146.859525 133.777534 
L 147.146728 134.06188 
L 147.721135 135.188816 
L 148.295541 137.164378 
L 148.869948 140.073842 
L 149.444354 143.952541 
L 150.305964 151.536337 
L 151.454777 164.453877 
L 155.475622 213.750007 
L 156.337232 220.322914 
L 156.911639 223.301023 
L 157.486045 225.103688 
L 157.773248 225.566786 
L 158.060452 225.745704 
L 158.347655 225.650424 
L 158.634858 225.293962 
L 159.209265 223.86363 
L 159.783671 221.611836 
L 160.645281 217.117513 
L 163.23011 202.502359 
L 163.804517 200.326175 
L 164.378923 198.85972 
L 164.953329 198.170373 
L 165.240533 198.124214 
L 165.527736 198.274323 
L 165.814939 198.614597 
L 166.389346 199.825619 
L 166.963752 201.648066 
L 167.825362 205.187489 
L 169.548581 212.678587 
L 170.122988 214.49185 
L 170.697394 215.613623 
L 170.984598 215.859241 
L 171.271801 215.869184 
L 171.559004 215.627517 
L 171.846207 215.12113 
L 172.420614 213.27696 
L 172.99502 210.294326 
L 173.569427 206.183692 
L 174.431036 198.054694 
L 175.579849 184.260264 
L 179.313492 135.543675 
L 180.175101 127.713341 
L 181.036711 122.124132 
L 181.611118 119.666413 
L 182.185524 118.163798 
L 182.759931 117.510498 
L 183.047134 117.457557 
L 183.334337 117.558624 
L 183.908743 118.126495 
L 184.770353 119.499817 
L 185.631963 120.844609 
L 186.206369 121.373263 
L 186.493573 121.45577 
L 186.780776 121.389555 
L 187.067979 121.156858 
L 187.642386 120.134199 
L 188.216792 118.301303 
L 188.791199 115.621375 
L 189.652808 110.060811 
L 190.514418 102.906731 
L 192.237638 85.975615 
L 193.673654 72.651959 
L 194.535263 66.570371 
L 195.10967 63.705503 
L 195.684076 61.948381 
L 195.97128 61.512529 
L 196.258483 61.38 
L 196.545686 61.55279 
L 196.832889 62.029537 
L 197.407296 63.872828 
L 197.981702 66.833601 
L 198.843312 73.086191 
L 199.992125 83.846846 
L 202.576954 109.505033 
L 203.438564 116.009566 
L 204.300174 120.716352 
L 204.87458 122.787925 
L 205.448987 124.034966 
L 205.73619 124.372765 
L 206.023393 124.538508 
L 206.310596 124.549381 
L 206.885003 124.187028 
L 207.746613 123.034774 
L 208.608222 121.780537 
L 209.182629 121.251068 
L 209.469832 121.157409 
L 209.757035 121.210299 
L 210.044239 121.432009 
L 210.331442 121.842744 
L 210.905848 123.300148 
L 211.480255 125.69297 
L 212.054661 129.084016 
L 212.916271 136.052497 
L 213.777881 145.097401 
L 214.926694 159.614873 
L 217.798726 197.791611 
L 218.660336 206.646377 
L 219.521946 213.237417 
L 220.096352 216.229052 
L 220.670759 218.072762 
L 220.957962 218.573764 
L 221.245165 218.805801 
L 221.532368 218.781414 
L 221.819572 218.516014 
L 222.393978 217.336839 
L 222.968384 215.439954 
L 223.829994 211.692943 
L 225.553214 203.685904 
L 226.414823 200.823447 
L 226.98923 199.709641 
L 227.276433 199.42976 
L 227.563636 199.344735 
L 227.85084 199.458202 
L 228.138043 199.770533 
L 228.712449 200.976952 
L 229.286856 202.902505 
L 230.148466 206.887516 
L 233.020498 222.115132 
L 233.594904 223.902357 
L 234.169311 224.806532 
L 234.456514 224.881755 
L 234.743717 224.686701 
L 235.030921 224.210797 
L 235.605327 222.390014 
L 236.179734 219.399488 
L 236.75414 215.272498 
L 237.61575 207.15056 
L 238.764563 193.520185 
L 242.211002 149.931043 
L 243.072611 142.160291 
L 243.934221 136.53276 
L 244.508628 133.998527 
L 245.083034 132.381127 
L 245.657441 131.576855 
L 245.944644 131.435465 
L 246.231847 131.439738 
L 246.806254 131.789768 
L 247.955067 133.122408 
L 248.529473 133.670631 
L 249.10388 133.861127 
L 249.391083 133.763573 
L 249.678286 133.509943 
L 250.252693 132.465822 
L 250.827099 130.618646 
L 251.401506 127.905727 
L 252.263115 122.202278 
L 253.124725 114.717382 
L 254.560741 99.526992 
L 256.571164 77.971884 
L 257.432774 70.759067 
L 258.00718 67.119028 
L 258.581587 64.574603 
L 259.155993 63.211092 
L 259.443196 62.984767 
L 259.7304 63.062112 
L 260.017603 63.438985 
L 260.592009 65.058421 
L 261.166416 67.74633 
L 262.028025 73.459737 
L 263.176838 83.196847 
L 265.474464 103.221693 
L 266.336074 108.82605 
L 266.910481 111.609894 
L 267.484887 113.569182 
L 268.059294 114.708533 
L 268.346497 114.986316 
L 268.6337 115.084017 
L 268.920903 115.016143 
L 269.49531 114.454774 
L 270.069716 113.467001 
L 271.792936 109.970577 
L 272.367342 109.349854 
L 272.654545 109.258946 
L 272.941749 109.344947 
L 273.228952 109.628336 
L 273.516155 110.127262 
L 274.090562 111.831161 
L 274.664968 114.546376 
L 275.239375 118.312755 
L 276.100984 125.891108 
L 276.962594 135.532666 
L 278.39861 154.751278 
L 280.696236 186.053929 
L 281.557846 195.479413 
L 282.419456 202.733329 
L 282.993862 206.21271 
L 283.568269 208.576758 
L 284.142675 209.859154 
L 284.429878 210.119222 
L 284.717082 210.14422 
L 285.004285 209.951799 
L 285.578691 208.997124 
L 286.153098 207.439637 
L 287.301911 203.362659 
L 288.450724 199.468834 
L 289.02513 198.098759 
L 289.599537 197.331211 
L 289.88674 197.210854 
L 290.173943 197.280356 
L 290.461146 197.546542 
L 291.035553 198.680158 
L 291.609959 200.601435 
L 292.184366 203.248612 
L 293.045976 208.327655 
L 296.205211 228.613193 
L 296.779618 230.707365 
L 297.354024 231.831576 
L 297.641228 231.989615 
L 297.928431 231.862514 
L 298.215634 231.442339 
L 298.790041 229.707392 
L 299.364447 226.787371 
L 299.938854 222.737866 
L 300.800463 214.790159 
L 301.949276 201.586262 
L 304.821309 166.538811 
L 305.682918 158.419665 
L 306.544528 152.277712 
L 307.118935 149.354345 
L 307.693341 147.342831 
L 308.267748 146.164677 
L 308.842154 145.695704 
L 309.129357 145.67756 
L 309.703764 145.957518 
L 311.426983 147.432623 
L 311.714186 147.488947 
L 312.00139 147.423435 
L 312.288593 147.213821 
L 312.862999 146.283716 
L 313.437406 144.566212 
L 314.011812 141.973331 
L 314.586219 138.466697 
L 315.447829 131.537873 
L 316.596642 119.656927 
L 320.330284 77.463908 
L 321.191893 71.307779 
L 321.7663 68.589144 
L 322.340706 67.060978 
L 322.62791 66.748964 
L 322.915113 66.734653 
L 323.202316 67.011162 
L 323.489519 67.568418 
L 324.063926 69.469773 
L 324.638332 72.300466 
L 325.499942 77.894394 
L 328.946381 102.598931 
L 329.520787 105.126078 
L 330.095194 106.86588 
L 330.6696 107.796801 
L 330.956804 107.966463 
L 331.244007 107.949346 
L 331.53121 107.757093 
L 332.105617 106.907926 
L 332.680023 105.565758 
L 334.977649 99.195536 
L 335.552056 98.430108 
L 335.839259 98.312126 
L 336.126462 98.399041 
L 336.413665 98.709337 
L 336.700869 99.258925 
L 337.275275 101.12544 
L 337.849682 104.066795 
L 338.424088 108.099641 
L 339.285698 116.101838 
L 340.434511 129.83195 
L 342.444933 158.047343 
L 343.88095 176.851594 
L 344.742559 185.995111 
L 345.604169 192.941946 
L 346.178576 196.239839 
L 346.752982 198.468223 
L 347.327389 199.683362 
L 347.614592 199.941982 
L 347.901795 199.990114 
L 348.188998 199.847469 
L 348.763405 199.079203 
L 349.337811 197.832485 
L 351.348234 192.824483 
L 351.92264 192.069905 
L 352.209844 191.91621 
L 352.497047 191.933348 
L 352.78425 192.134217 
L 353.071453 192.528742 
L 353.64586 193.922826 
L 354.220266 196.13135 
L 355.081876 200.877825 
L 355.943486 207.032347 
L 359.102721 231.473828 
L 359.677128 234.33969 
L 360.251534 236.232306 
L 360.538738 236.772063 
L 360.825941 237.024327 
L 361.113144 236.980632 
L 361.400347 236.635765 
L 361.687551 235.987834 
L 362.261957 233.791971 
L 362.836364 230.444436 
L 363.697973 223.499463 
L 364.846786 211.520705 
L 368.006022 176.140696 
L 368.867632 169.138978 
L 369.729241 164.096741 
L 370.303648 161.855204 
L 370.878054 160.455922 
L 371.452461 159.797999 
L 371.739664 159.703664 
L 372.314071 159.877593 
L 373.17568 160.674859 
L 374.03729 161.474432 
L 374.611697 161.649276 
L 374.8989 161.553245 
L 375.186103 161.304494 
L 375.76051 160.269705 
L 376.334916 158.411251 
L 376.909323 155.639784 
L 377.483729 151.915523 
L 378.345339 144.584186 
L 379.494152 132.019278 
L 383.514997 83.822422 
L 384.376607 77.459221 
L 384.951013 74.625331 
L 385.52542 72.974721 
L 385.812623 72.591757 
L 386.099826 72.496313 
L 386.38703 72.678836 
L 386.674233 73.126709 
L 387.248639 74.753794 
L 387.823046 77.222854 
L 388.684655 82.084809 
L 391.269485 98.089522 
L 392.131094 101.623826 
L 392.705501 103.067498 
L 392.992704 103.493125 
L 393.279907 103.718789 
L 393.567111 103.74671 
L 393.854314 103.582348 
L 394.42872 102.714318 
L 395.003127 101.219246 
L 395.864737 98.132904 
L 397.587956 91.379046 
L 398.162362 89.757803 
L 398.736769 88.802263 
L 399.023972 88.630697 
L 399.311175 88.689189 
L 399.598379 88.994048 
L 399.885582 89.55879 
L 400.459988 91.506958 
L 401.034395 94.579804 
L 401.608801 98.770792 
L 402.470411 107.010176 
L 403.619224 120.950121 
L 407.352866 170.23952 
L 408.214476 178.197385 
L 409.076086 183.888009 
L 409.650492 186.39165 
L 410.224899 187.918042 
L 410.512102 188.34494 
L 410.799305 188.569346 
L 411.086508 188.610662 
L 411.373712 188.49047 
L 411.948118 187.860928 
L 412.809728 186.334734 
L 413.671338 184.765223 
L 414.245744 184.049335 
L 414.532947 183.862962 
L 414.820151 183.819041 
L 415.107354 183.935813 
L 415.394557 184.22896 
L 415.968964 185.393038 
L 416.54337 187.378156 
L 417.117776 190.200231 
L 417.979386 195.909411 
L 419.128199 205.700553 
L 421.713028 229.466189 
L 422.574638 235.254458 
L 423.149045 237.937963 
L 423.723451 239.521847 
L 424.010654 239.873106 
L 424.297858 239.921807 
L 424.585061 239.665504 
L 424.872264 239.105106 
L 425.446671 237.092327 
L 426.021077 233.956358 
L 426.882687 227.423968 
L 428.0315 216.248254 
L 430.616329 189.483564 
L 431.477939 182.584553 
L 432.339548 177.493372 
L 432.913955 175.179343 
L 433.488361 173.706619 
L 434.062768 172.998745 
L 434.349971 172.895005 
L 434.637174 172.933347 
L 435.211581 173.349034 
L 436.073191 174.450182 
L 436.9348 175.482358 
L 437.509207 175.771493 
L 437.79641 175.719963 
L 438.083613 175.507055 
L 438.370816 175.112218 
L 438.945223 173.706289 
L 439.519629 171.388096 
L 440.094036 168.090722 
L 440.955646 161.288851 
L 441.817255 152.428814 
L 442.966068 138.163797 
L 445.838101 100.5456 
L 446.69971 91.840781 
L 447.56132 85.405376 
L 448.135727 82.52666 
L 448.710133 80.807675 
L 448.997336 80.374641 
L 449.28454 80.214906 
L 449.571743 80.316342 
L 449.858946 80.663917 
L 450.433353 82.024131 
L 451.007759 84.126011 
L 451.869369 88.227934 
L 453.879792 98.365106 
L 454.454198 100.476944 
L 455.028605 101.943739 
L 455.603011 102.669218 
L 455.890214 102.737277 
L 456.177417 102.606425 
L 456.464621 102.278907 
L 457.039027 101.058991 
L 457.613434 99.158743 
L 458.475043 95.322175 
L 460.772669 83.87796 
L 461.347076 81.921461 
L 461.921482 80.740521 
L 462.208686 80.493277 
L 462.495889 80.498024 
L 462.783092 80.768729 
L 463.070295 81.316389 
L 463.644702 83.270812 
L 464.219108 86.384966 
L 464.793515 90.629367 
L 465.655124 98.923565 
L 466.803937 112.791667 
L 470.250376 157.210235 
L 471.111986 165.185995 
L 471.973596 170.99299 
L 472.548002 173.625228 
L 473.122409 175.318326 
L 473.696815 176.17218 
L 473.984019 176.327547 
L 474.271222 176.329594 
L 474.845628 175.968219 
L 475.707238 174.900735 
L 476.568848 173.854486 
L 477.143254 173.522284 
L 477.430457 173.538125 
L 477.717661 173.703337 
L 478.004864 174.036188 
L 478.57927 175.264917 
L 479.153677 177.31578 
L 479.728083 180.230967 
L 480.589693 186.188761 
L 481.451303 193.808296 
L 482.887319 208.806152 
L 484.610539 226.502633 
L 485.472148 233.439914 
L 486.046555 236.907042 
L 486.620961 239.283948 
L 487.195368 240.482021 
L 487.482571 240.625295 
L 487.769774 240.464076 
L 488.056977 240.002057 
L 488.631384 238.206794 
L 489.20579 235.333049 
L 490.0674 229.316449 
L 491.216213 219.121336 
L 493.513839 198.009458 
L 494.375449 191.965013 
L 495.237058 187.661906 
L 495.811465 185.836872 
L 496.385871 184.824572 
L 496.673075 184.601312 
L 496.960278 184.548995 
L 497.247481 184.650959 
L 497.821888 185.239005 
L 498.109091 185.680509 
L 498.109091 185.680509 
" style="fill:none;stroke:#4c72b0;stroke-linecap:round;stroke-width:1.75;"/>
   </g>
   <g id="line2d_32">
    <path clip-path="url(#peee55e12cb)" d="M 92.290909 338.118073 
L 498.109091 338.58 
L 498.109091 338.58 
" style="fill:none;stroke:#55a868;stroke-linecap:round;stroke-width:1.75;"/>
   </g>
   <g id="patch_3">
    <path d="M 72 352.44 
L 72 47.52 
" style="fill:none;"/>
   </g>
   <g id="patch_4">
    <path d="M 518.4 352.44 
L 518.4 47.52 
" style="fill:none;"/>
   </g>
   <g id="patch_5">
    <path d="M 72 352.44 
L 518.4 352.44 
" style="fill:none;"/>
   </g>
   <g id="patch_6">
    <path d="M 72 47.52 
L 518.4 47.52 
" style="fill:none;"/>
   </g>
   <g id="legend_1">
    <g id="line2d_33">
     <path d="M 475.839062 60.266875 
L 495.839062 60.266875 
" style="fill:none;stroke:#4c72b0;stroke-linecap:round;stroke-width:1.75;"/>
    </g>
    <g id="line2d_34"/>
    <g id="text_16">
     <!-- a -->
     <defs>
      <path d="M 20.21875 -0.984375 
Q 12.25 -0.984375 8.25 3.21875 
Q 4.25 7.421875 4.25 14.75 
Q 4.25 19.96875 6.21875 23.3125 
Q 8.203125 26.65625 11.390625 28.5625 
Q 14.59375 30.46875 18.6875 31.203125 
Q 22.796875 31.9375 27.046875 32.03125 
L 38.921875 32.234375 
L 38.921875 35.109375 
Q 38.921875 38.375 38.234375 40.671875 
Q 37.546875 42.96875 36.125 44.375 
Q 34.71875 45.796875 32.59375 46.453125 
Q 30.46875 47.125 27.59375 47.125 
Q 25.046875 47.125 23 46.75 
Q 20.953125 46.390625 19.4375 45.4375 
Q 17.921875 44.484375 16.984375 42.84375 
Q 16.0625 41.21875 15.765625 38.71875 
L 6.59375 39.546875 
Q 7.078125 42.671875 8.4375 45.28125 
Q 9.8125 47.90625 12.328125 49.796875 
Q 14.84375 51.703125 18.625 52.75 
Q 22.40625 53.8125 27.78125 53.8125 
Q 37.75 53.8125 42.765625 49.234375 
Q 47.796875 44.671875 47.796875 36.03125 
L 47.796875 13.28125 
Q 47.796875 9.375 48.828125 7.390625 
Q 49.859375 5.421875 52.734375 5.421875 
Q 53.46875 5.421875 54.203125 5.515625 
Q 54.9375 5.609375 55.609375 5.765625 
L 55.609375 0.296875 
Q 53.953125 -0.09375 52.3125 -0.28125 
Q 50.6875 -0.484375 48.828125 -0.484375 
Q 46.34375 -0.484375 44.5625 0.171875 
Q 42.78125 0.828125 41.65625 2.171875 
Q 40.53125 3.515625 39.9375 5.484375 
Q 39.359375 7.46875 39.203125 10.109375 
L 38.921875 10.109375 
Q 37.5 7.5625 35.8125 5.515625 
Q 34.125 3.46875 31.875 2.03125 
Q 29.640625 0.59375 26.78125 -0.1875 
Q 23.921875 -0.984375 20.21875 -0.984375 
M 22.21875 5.609375 
Q 26.421875 5.609375 29.5625 7.140625 
Q 32.71875 8.6875 34.78125 11.078125 
Q 36.859375 13.484375 37.890625 16.3125 
Q 38.921875 19.140625 38.921875 21.734375 
L 38.921875 26.078125 
L 29.296875 25.875 
Q 26.078125 25.828125 23.171875 25.40625 
Q 20.265625 25 18.0625 23.78125 
Q 15.875 22.5625 14.578125 20.359375 
Q 13.28125 18.171875 13.28125 14.59375 
Q 13.28125 10.296875 15.59375 7.953125 
Q 17.921875 5.609375 22.21875 5.609375 
" id="LiberationSans-61"/>
     </defs>
     <g style="fill:#262626;" transform="translate(503.839062 63.766875)scale(0.1 -0.1)">
      <use xlink:href="#LiberationSans-61"/>
     </g>
    </g>
    <g id="line2d_35">
     <path d="M 475.839062 74.58875 
L 495.839062 74.58875 
" style="fill:none;stroke:#55a868;stroke-linecap:round;stroke-width:1.75;"/>
    </g>
    <g id="line2d_36"/>
    <g id="text_17">
     <!-- b -->
     <defs>
      <path d="M 51.421875 26.65625 
Q 51.421875 -0.984375 31.984375 -0.984375 
Q 25.984375 -0.984375 22 1.1875 
Q 18.015625 3.375 15.53125 8.203125 
L 15.4375 8.203125 
Q 15.4375 6.9375 15.359375 5.5625 
Q 15.28125 4.203125 15.203125 3.03125 
Q 15.140625 1.859375 15.0625 1.03125 
Q 14.984375 0.203125 14.9375 0 
L 6.453125 0 
Q 6.5 0.4375 6.546875 1.484375 
Q 6.59375 2.546875 6.640625 4 
Q 6.6875 5.46875 6.703125 7.21875 
Q 6.734375 8.984375 6.734375 10.890625 
L 6.734375 72.46875 
L 15.53125 72.46875 
L 15.53125 51.8125 
Q 15.53125 50.34375 15.5 49 
Q 15.484375 47.65625 15.4375 46.625 
Q 15.375 45.40625 15.328125 44.34375 
L 15.53125 44.34375 
Q 17.96875 49.421875 22 51.609375 
Q 26.03125 53.8125 31.984375 53.8125 
Q 42 53.8125 46.703125 47.0625 
Q 51.421875 40.328125 51.421875 26.65625 
M 42.1875 26.375 
Q 42.1875 31.84375 41.5 35.75 
Q 40.828125 39.65625 39.3125 42.15625 
Q 37.796875 44.671875 35.453125 45.84375 
Q 33.109375 47.015625 29.734375 47.015625 
Q 26.265625 47.015625 23.609375 45.890625 
Q 20.953125 44.78125 19.171875 42.28125 
Q 17.390625 39.796875 16.453125 35.734375 
Q 15.53125 31.6875 15.53125 25.828125 
Q 15.53125 20.171875 16.453125 16.3125 
Q 17.390625 12.453125 19.171875 10.03125 
Q 20.953125 7.625 23.578125 6.5625 
Q 26.21875 5.515625 29.640625 5.515625 
Q 32.859375 5.515625 35.203125 6.640625 
Q 37.546875 7.765625 39.109375 10.25 
Q 40.671875 12.75 41.421875 16.71875 
Q 42.1875 20.703125 42.1875 26.375 
" id="LiberationSans-62"/>
     </defs>
     <g style="fill:#262626;" transform="translate(503.839062 78.08875)scale(0.1 -0.1)">
      <use xlink:href="#LiberationSans-62"/>
     </g>
    </g>
   </g>
  </g>
 </g>
 <defs>
  <clipPath id="peee55e12cb">
   <rect height="304.92" width="446.4" x="72" y="47.52"/>
  </clipPath>
 </defs>
</svg>
