<?xml version="1.0" encoding="utf-8" standalone="no"?>
<!DOCTYPE svg PUBLIC "-//W3C//DTD SVG 1.1//EN"
  "http://www.w3.org/Graphics/SVG/1.1/DTD/svg11.dtd">
<!-- Created with matplotlib (http://matplotlib.org/) -->
<svg height="396pt" version="1.1" viewBox="0 0 576 396" width="576pt" xmlns="http://www.w3.org/2000/svg" xmlns:xlink="http://www.w3.org/1999/xlink">
 <defs>
  <style type="text/css">
*{stroke-linecap:butt;stroke-linejoin:round;}
  </style>
 </defs>
 <g id="figure_1">
  <g id="patch_1">
   <path d="M 0 396 
L 576 396 
L 576 0 
L 0 0 
z
" style="fill:#ffffff;"/>
  </g>
  <g id="axes_1">
   <g id="patch_2">
    <path d="M 72 352.44 
L 518.4 352.44 
L 518.4 47.52 
L 72 47.52 
z
" style="fill:#eaeaf2;"/>
   </g>
   <g id="matplotlib.axis_1">
    <g id="xtick_1">
     <g id="line2d_1">
      <path clip-path="url(#paf7a9fa888)" d="M 92.290909 352.44 
L 92.290909 47.52 
" style="fill:none;stroke:#ffffff;stroke-linecap:round;"/>
     </g>
     <g id="line2d_2"/>
     <g id="text_1">
      <!-- 0.00 -->
      <defs>
       <path d="M 51.703125 34.421875 
Q 51.703125 24.515625 49.828125 17.75 
Q 47.953125 10.984375 44.703125 6.8125 
Q 41.453125 2.640625 37.0625 0.828125 
Q 32.671875 -0.984375 27.6875 -0.984375 
Q 22.65625 -0.984375 18.3125 0.828125 
Q 13.96875 2.640625 10.765625 6.78125 
Q 7.5625 10.9375 5.734375 17.703125 
Q 3.90625 24.46875 3.90625 34.421875 
Q 3.90625 44.828125 5.734375 51.640625 
Q 7.5625 58.453125 10.78125 62.5 
Q 14.015625 66.546875 18.40625 68.1875 
Q 22.796875 69.828125 27.984375 69.828125 
Q 32.90625 69.828125 37.21875 68.1875 
Q 41.546875 66.546875 44.765625 62.5 
Q 48 58.453125 49.84375 51.640625 
Q 51.703125 44.828125 51.703125 34.421875 
M 42.78125 34.421875 
Q 42.78125 42.625 41.796875 48.0625 
Q 40.828125 53.515625 38.921875 56.765625 
Q 37.015625 60.015625 34.25 61.359375 
Q 31.5 62.703125 27.984375 62.703125 
Q 24.265625 62.703125 21.4375 61.328125 
Q 18.609375 59.96875 16.671875 56.71875 
Q 14.75 53.46875 13.765625 48.015625 
Q 12.796875 42.578125 12.796875 34.421875 
Q 12.796875 26.515625 13.796875 21.09375 
Q 14.796875 15.671875 16.71875 12.375 
Q 18.65625 9.078125 21.4375 7.640625 
Q 24.21875 6.203125 27.78125 6.203125 
Q 31.25 6.203125 34.03125 7.640625 
Q 36.8125 9.078125 38.734375 12.375 
Q 40.671875 15.671875 41.71875 21.09375 
Q 42.78125 26.515625 42.78125 34.421875 
" id="LiberationSans-30"/>
       <path d="M 9.125 0 
L 9.125 10.6875 
L 18.65625 10.6875 
L 18.65625 0 
z
" id="LiberationSans-2e"/>
      </defs>
      <g style="fill:#262626;" transform="translate(82.56044 366.686875)scale(0.1 -0.1)">
       <use xlink:href="#LiberationSans-30"/>
       <use x="55.615234" xlink:href="#LiberationSans-2e"/>
       <use x="83.398438" xlink:href="#LiberationSans-30"/>
       <use x="139.013672" xlink:href="#LiberationSans-30"/>
      </g>
     </g>
    </g>
    <g id="xtick_2">
     <g id="line2d_3">
      <path clip-path="url(#paf7a9fa888)" d="M 158.087166 352.44 
L 158.087166 47.52 
" style="fill:none;stroke:#ffffff;stroke-linecap:round;"/>
     </g>
     <g id="line2d_4"/>
     <g id="text_2">
      <!-- 0.01 -->
      <defs>
       <path d="M 7.625 0 
L 7.625 7.46875 
L 25.140625 7.46875 
L 25.140625 60.40625 
L 9.625 49.3125 
L 9.625 57.625 
L 25.875 68.796875 
L 33.984375 68.796875 
L 33.984375 7.46875 
L 50.734375 7.46875 
L 50.734375 0 
z
" id="LiberationSans-31"/>
      </defs>
      <g style="fill:#262626;" transform="translate(148.356697 366.686875)scale(0.1 -0.1)">
       <use xlink:href="#LiberationSans-30"/>
       <use x="55.615234" xlink:href="#LiberationSans-2e"/>
       <use x="83.398438" xlink:href="#LiberationSans-30"/>
       <use x="139.013672" xlink:href="#LiberationSans-31"/>
      </g>
     </g>
    </g>
    <g id="xtick_3">
     <g id="line2d_5">
      <path clip-path="url(#paf7a9fa888)" d="M 223.883422 352.44 
L 223.883422 47.52 
" style="fill:none;stroke:#ffffff;stroke-linecap:round;"/>
     </g>
     <g id="line2d_6"/>
     <g id="text_3">
      <!-- 0.02 -->
      <defs>
       <path d="M 5.03125 0 
L 5.03125 6.203125 
Q 7.515625 11.921875 11.109375 16.28125 
Q 14.703125 20.65625 18.65625 24.1875 
Q 22.609375 27.734375 26.484375 30.765625 
Q 30.375 33.796875 33.5 36.8125 
Q 36.625 39.84375 38.546875 43.15625 
Q 40.484375 46.484375 40.484375 50.6875 
Q 40.484375 53.609375 39.59375 55.828125 
Q 38.71875 58.0625 37.0625 59.5625 
Q 35.40625 61.078125 33.078125 61.828125 
Q 30.765625 62.59375 27.9375 62.59375 
Q 25.296875 62.59375 22.96875 61.859375 
Q 20.65625 61.140625 18.84375 59.671875 
Q 17.046875 58.203125 15.890625 56.03125 
Q 14.75 53.859375 14.40625 50.984375 
L 5.421875 51.8125 
Q 5.859375 55.515625 7.46875 58.78125 
Q 9.078125 62.0625 11.90625 64.53125 
Q 14.75 67 18.71875 68.40625 
Q 22.703125 69.828125 27.9375 69.828125 
Q 33.0625 69.828125 37.0625 68.609375 
Q 41.0625 67.390625 43.8125 64.984375 
Q 46.578125 62.59375 48.046875 59.078125 
Q 49.515625 55.5625 49.515625 50.984375 
Q 49.515625 47.515625 48.265625 44.390625 
Q 47.015625 41.265625 44.9375 38.421875 
Q 42.875 35.59375 40.140625 32.953125 
Q 37.40625 30.328125 34.421875 27.8125 
Q 31.453125 25.296875 28.421875 22.828125 
Q 25.390625 20.359375 22.71875 17.859375 
Q 20.0625 15.375 17.96875 12.8125 
Q 15.875 10.25 14.703125 7.46875 
L 50.59375 7.46875 
L 50.59375 0 
z
" id="LiberationSans-32"/>
      </defs>
      <g style="fill:#262626;" transform="translate(214.152954 366.686875)scale(0.1 -0.1)">
       <use xlink:href="#LiberationSans-30"/>
       <use x="55.615234" xlink:href="#LiberationSans-2e"/>
       <use x="83.398438" xlink:href="#LiberationSans-30"/>
       <use x="139.013672" xlink:href="#LiberationSans-32"/>
      </g>
     </g>
    </g>
    <g id="xtick_4">
     <g id="line2d_7">
      <path clip-path="url(#paf7a9fa888)" d="M 289.679679 352.44 
L 289.679679 47.52 
" style="fill:none;stroke:#ffffff;stroke-linecap:round;"/>
     </g>
     <g id="line2d_8"/>
     <g id="text_4">
      <!-- 0.03 -->
      <defs>
       <path d="M 51.21875 19 
Q 51.21875 14.265625 49.671875 10.546875 
Q 48.140625 6.84375 45.1875 4.265625 
Q 42.234375 1.703125 37.859375 0.359375 
Q 33.5 -0.984375 27.875 -0.984375 
Q 21.484375 -0.984375 17.109375 0.609375 
Q 12.75 2.203125 9.90625 4.8125 
Q 7.078125 7.421875 5.65625 10.765625 
Q 4.25 14.109375 3.8125 17.671875 
L 12.890625 18.5 
Q 13.28125 15.765625 14.328125 13.515625 
Q 15.375 11.28125 17.1875 9.671875 
Q 19 8.0625 21.625 7.171875 
Q 24.265625 6.296875 27.875 6.296875 
Q 34.515625 6.296875 38.296875 9.5625 
Q 42.09375 12.84375 42.09375 19.28125 
Q 42.09375 23.09375 40.40625 25.40625 
Q 38.71875 27.734375 36.203125 29.03125 
Q 33.6875 30.328125 30.734375 30.765625 
Q 27.78125 31.203125 25.296875 31.203125 
L 20.3125 31.203125 
L 20.3125 38.8125 
L 25.09375 38.8125 
Q 27.59375 38.8125 30.265625 39.328125 
Q 32.953125 39.84375 35.171875 41.1875 
Q 37.40625 42.53125 38.84375 44.828125 
Q 40.28125 47.125 40.28125 50.6875 
Q 40.28125 56.203125 37.03125 59.390625 
Q 33.796875 62.59375 27.390625 62.59375 
Q 21.578125 62.59375 17.984375 59.609375 
Q 14.40625 56.640625 13.8125 51.21875 
L 4.984375 51.90625 
Q 5.515625 56.453125 7.46875 59.8125 
Q 9.421875 63.1875 12.421875 65.40625 
Q 15.4375 67.625 19.28125 68.71875 
Q 23.140625 69.828125 27.484375 69.828125 
Q 33.25 69.828125 37.390625 68.375 
Q 41.546875 66.9375 44.1875 64.46875 
Q 46.828125 62.015625 48.0625 58.6875 
Q 49.3125 55.375 49.3125 51.609375 
Q 49.3125 48.578125 48.484375 45.9375 
Q 47.65625 43.3125 45.890625 41.203125 
Q 44.140625 39.109375 41.421875 37.59375 
Q 38.71875 36.078125 34.90625 35.296875 
L 34.90625 35.109375 
Q 39.0625 34.671875 42.140625 33.21875 
Q 45.21875 31.78125 47.21875 29.625 
Q 49.21875 27.484375 50.21875 24.75 
Q 51.21875 22.015625 51.21875 19 
" id="LiberationSans-33"/>
      </defs>
      <g style="fill:#262626;" transform="translate(279.94921 366.686875)scale(0.1 -0.1)">
       <use xlink:href="#LiberationSans-30"/>
       <use x="55.615234" xlink:href="#LiberationSans-2e"/>
       <use x="83.398438" xlink:href="#LiberationSans-30"/>
       <use x="139.013672" xlink:href="#LiberationSans-33"/>
      </g>
     </g>
    </g>
    <g id="xtick_5">
     <g id="line2d_9">
      <path clip-path="url(#paf7a9fa888)" d="M 355.475936 352.44 
L 355.475936 47.52 
" style="fill:none;stroke:#ffffff;stroke-linecap:round;"/>
     </g>
     <g id="line2d_10"/>
     <g id="text_5">
      <!-- 0.04 -->
      <defs>
       <path d="M 43.015625 15.578125 
L 43.015625 0 
L 34.71875 0 
L 34.71875 15.578125 
L 2.296875 15.578125 
L 2.296875 22.40625 
L 33.796875 68.796875 
L 43.015625 68.796875 
L 43.015625 22.515625 
L 52.6875 22.515625 
L 52.6875 15.578125 
z
M 34.71875 58.890625 
Q 34.625 58.640625 34.234375 57.9375 
Q 33.84375 57.234375 33.34375 56.34375 
Q 32.859375 55.46875 32.34375 54.5625 
Q 31.84375 53.65625 31.453125 53.078125 
L 13.8125 27.09375 
Q 13.578125 26.703125 13.109375 26.0625 
Q 12.640625 25.4375 12.15625 24.78125 
Q 11.671875 24.125 11.171875 23.484375 
Q 10.6875 22.859375 10.40625 22.515625 
L 34.71875 22.515625 
z
" id="LiberationSans-34"/>
      </defs>
      <g style="fill:#262626;" transform="translate(345.745467 366.686875)scale(0.1 -0.1)">
       <use xlink:href="#LiberationSans-30"/>
       <use x="55.615234" xlink:href="#LiberationSans-2e"/>
       <use x="83.398438" xlink:href="#LiberationSans-30"/>
       <use x="139.013672" xlink:href="#LiberationSans-34"/>
      </g>
     </g>
    </g>
    <g id="xtick_6">
     <g id="line2d_11">
      <path clip-path="url(#paf7a9fa888)" d="M 421.272193 352.44 
L 421.272193 47.52 
" style="fill:none;stroke:#ffffff;stroke-linecap:round;"/>
     </g>
     <g id="line2d_12"/>
     <g id="text_6">
      <!-- 0.05 -->
      <defs>
       <path d="M 51.421875 22.40625 
Q 51.421875 17.234375 49.859375 12.9375 
Q 48.296875 8.640625 45.21875 5.53125 
Q 42.140625 2.4375 37.578125 0.71875 
Q 33.015625 -0.984375 27 -0.984375 
Q 21.578125 -0.984375 17.546875 0.28125 
Q 13.53125 1.5625 10.734375 3.78125 
Q 7.953125 6 6.3125 8.984375 
Q 4.6875 11.96875 4 15.375 
L 12.890625 16.40625 
Q 13.421875 14.453125 14.390625 12.625 
Q 15.375 10.796875 17.0625 9.34375 
Q 18.75 7.90625 21.21875 7.046875 
Q 23.6875 6.203125 27.203125 6.203125 
Q 30.609375 6.203125 33.390625 7.25 
Q 36.1875 8.296875 38.15625 10.34375 
Q 40.140625 12.40625 41.203125 15.375 
Q 42.28125 18.359375 42.28125 22.21875 
Q 42.28125 25.390625 41.25 28.046875 
Q 40.234375 30.71875 38.328125 32.640625 
Q 36.421875 34.578125 33.65625 35.640625 
Q 30.90625 36.71875 27.390625 36.71875 
Q 25.203125 36.71875 23.34375 36.328125 
Q 21.484375 35.9375 19.890625 35.25 
Q 18.3125 34.578125 17.015625 33.671875 
Q 15.71875 32.765625 14.59375 31.78125 
L 6 31.78125 
L 8.296875 68.796875 
L 47.40625 68.796875 
L 47.40625 61.328125 
L 16.3125 61.328125 
L 14.984375 39.5 
Q 17.328125 41.3125 20.84375 42.59375 
Q 24.359375 43.890625 29.203125 43.890625 
Q 34.328125 43.890625 38.421875 42.328125 
Q 42.53125 40.765625 45.40625 37.90625 
Q 48.296875 35.0625 49.859375 31.109375 
Q 51.421875 27.15625 51.421875 22.40625 
" id="LiberationSans-35"/>
      </defs>
      <g style="fill:#262626;" transform="translate(411.541724 366.686875)scale(0.1 -0.1)">
       <use xlink:href="#LiberationSans-30"/>
       <use x="55.615234" xlink:href="#LiberationSans-2e"/>
       <use x="83.398438" xlink:href="#LiberationSans-30"/>
       <use x="139.013672" xlink:href="#LiberationSans-35"/>
      </g>
     </g>
    </g>
    <g id="xtick_7">
     <g id="line2d_13">
      <path clip-path="url(#paf7a9fa888)" d="M 487.068449 352.44 
L 487.068449 47.52 
" style="fill:none;stroke:#ffffff;stroke-linecap:round;"/>
     </g>
     <g id="line2d_14"/>
     <g id="text_7">
      <!-- 0.06 -->
      <defs>
       <path d="M 51.21875 22.515625 
Q 51.21875 17.328125 49.78125 13 
Q 48.34375 8.6875 45.53125 5.578125 
Q 42.71875 2.484375 38.5625 0.75 
Q 34.421875 -0.984375 29 -0.984375 
Q 23 -0.984375 18.5 1.3125 
Q 14.015625 3.609375 11.03125 7.921875 
Q 8.0625 12.25 6.5625 18.53125 
Q 5.078125 24.8125 5.078125 32.8125 
Q 5.078125 42 6.765625 48.921875 
Q 8.453125 55.859375 11.625 60.5 
Q 14.796875 65.140625 19.359375 67.484375 
Q 23.921875 69.828125 29.6875 69.828125 
Q 33.203125 69.828125 36.28125 69.09375 
Q 39.359375 68.359375 41.875 66.71875 
Q 44.390625 65.09375 46.28125 62.40625 
Q 48.1875 59.71875 49.3125 55.8125 
L 40.921875 54.296875 
Q 39.546875 58.734375 36.546875 60.71875 
Q 33.546875 62.703125 29.59375 62.703125 
Q 25.984375 62.703125 23.046875 60.984375 
Q 20.125 59.28125 18.0625 55.875 
Q 16.015625 52.484375 14.90625 47.359375 
Q 13.8125 42.234375 13.8125 35.40625 
Q 16.21875 39.84375 20.5625 42.15625 
Q 24.90625 44.484375 30.515625 44.484375 
Q 35.203125 44.484375 39.015625 42.96875 
Q 42.828125 41.453125 45.53125 38.59375 
Q 48.25 35.75 49.734375 31.671875 
Q 51.21875 27.59375 51.21875 22.515625 
M 42.28125 22.125 
Q 42.28125 25.6875 41.40625 28.5625 
Q 40.53125 31.453125 38.765625 33.46875 
Q 37.015625 35.5 34.421875 36.59375 
Q 31.84375 37.703125 28.421875 37.703125 
Q 26.03125 37.703125 23.578125 36.984375 
Q 21.140625 36.28125 19.15625 34.6875 
Q 17.1875 33.109375 15.9375 30.515625 
Q 14.703125 27.9375 14.703125 24.21875 
Q 14.703125 20.40625 15.671875 17.109375 
Q 16.65625 13.8125 18.484375 11.375 
Q 20.3125 8.9375 22.890625 7.515625 
Q 25.484375 6.109375 28.71875 6.109375 
Q 31.890625 6.109375 34.40625 7.203125 
Q 36.921875 8.296875 38.671875 10.375 
Q 40.4375 12.453125 41.359375 15.421875 
Q 42.28125 18.40625 42.28125 22.125 
" id="LiberationSans-36"/>
      </defs>
      <g style="fill:#262626;" transform="translate(477.33798 366.686875)scale(0.1 -0.1)">
       <use xlink:href="#LiberationSans-30"/>
       <use x="55.615234" xlink:href="#LiberationSans-2e"/>
       <use x="83.398438" xlink:href="#LiberationSans-30"/>
       <use x="139.013672" xlink:href="#LiberationSans-36"/>
      </g>
     </g>
    </g>
   </g>
   <g id="matplotlib.axis_2">
    <g id="ytick_1">
     <g id="line2d_15">
      <path clip-path="url(#paf7a9fa888)" d="M 72 325.002327 
L 518.4 325.002327 
" style="fill:none;stroke:#ffffff;stroke-linecap:round;"/>
     </g>
     <g id="line2d_16"/>
     <g id="text_8">
      <!-- 0.0 -->
      <g style="fill:#262626;" transform="translate(51.1 328.625764)scale(0.1 -0.1)">
       <use xlink:href="#LiberationSans-30"/>
       <use x="55.615234" xlink:href="#LiberationSans-2e"/>
       <use x="83.398438" xlink:href="#LiberationSans-30"/>
      </g>
     </g>
    </g>
    <g id="ytick_2">
     <g id="line2d_17">
      <path clip-path="url(#paf7a9fa888)" d="M 72 270.122865 
L 518.4 270.122865 
" style="fill:none;stroke:#ffffff;stroke-linecap:round;"/>
     </g>
     <g id="line2d_18"/>
     <g id="text_9">
      <!-- 0.2 -->
      <g style="fill:#262626;" transform="translate(51.1 273.746302)scale(0.1 -0.1)">
       <use xlink:href="#LiberationSans-30"/>
       <use x="55.615234" xlink:href="#LiberationSans-2e"/>
       <use x="83.398438" xlink:href="#LiberationSans-32"/>
      </g>
     </g>
    </g>
    <g id="ytick_3">
     <g id="line2d_19">
      <path clip-path="url(#paf7a9fa888)" d="M 72 215.243403 
L 518.4 215.243403 
" style="fill:none;stroke:#ffffff;stroke-linecap:round;"/>
     </g>
     <g id="line2d_20"/>
     <g id="text_10">
      <!-- 0.4 -->
      <g style="fill:#262626;" transform="translate(51.1 218.86684)scale(0.1 -0.1)">
       <use xlink:href="#LiberationSans-30"/>
       <use x="55.615234" xlink:href="#LiberationSans-2e"/>
       <use x="83.398438" xlink:href="#LiberationSans-34"/>
      </g>
     </g>
    </g>
    <g id="ytick_4">
     <g id="line2d_21">
      <path clip-path="url(#paf7a9fa888)" d="M 72 160.36394 
L 518.4 160.36394 
" style="fill:none;stroke:#ffffff;stroke-linecap:round;"/>
     </g>
     <g id="line2d_22"/>
     <g id="text_11">
      <!-- 0.6 -->
      <g style="fill:#262626;" transform="translate(51.1 163.987378)scale(0.1 -0.1)">
       <use xlink:href="#LiberationSans-30"/>
       <use x="55.615234" xlink:href="#LiberationSans-2e"/>
       <use x="83.398438" xlink:href="#LiberationSans-36"/>
      </g>
     </g>
    </g>
    <g id="ytick_5">
     <g id="line2d_23">
      <path clip-path="url(#paf7a9fa888)" d="M 72 105.484478 
L 518.4 105.484478 
" style="fill:none;stroke:#ffffff;stroke-linecap:round;"/>
     </g>
     <g id="line2d_24"/>
     <g id="text_12">
      <!-- 0.8 -->
      <defs>
       <path d="M 51.265625 19.1875 
Q 51.265625 14.796875 49.875 11.109375 
Q 48.484375 7.421875 45.625 4.734375 
Q 42.78125 2.046875 38.328125 0.53125 
Q 33.890625 -0.984375 27.828125 -0.984375 
Q 21.78125 -0.984375 17.359375 0.53125 
Q 12.9375 2.046875 10.03125 4.703125 
Q 7.125 7.375 5.734375 11.0625 
Q 4.34375 14.75 4.34375 19.09375 
Q 4.34375 22.859375 5.484375 25.78125 
Q 6.640625 28.71875 8.5625 30.828125 
Q 10.5 32.953125 12.96875 34.25 
Q 15.4375 35.546875 18.0625 35.984375 
L 18.0625 36.1875 
Q 15.1875 36.859375 12.90625 38.375 
Q 10.640625 39.890625 9.09375 42.015625 
Q 7.5625 44.140625 6.75 46.71875 
Q 5.953125 49.3125 5.953125 52.203125 
Q 5.953125 55.8125 7.34375 59 
Q 8.734375 62.203125 11.46875 64.625 
Q 14.203125 67.046875 18.25 68.4375 
Q 22.3125 69.828125 27.640625 69.828125 
Q 33.25 69.828125 37.375 68.40625 
Q 41.5 67 44.203125 64.578125 
Q 46.921875 62.15625 48.234375 58.9375 
Q 49.5625 55.71875 49.5625 52.09375 
Q 49.5625 49.265625 48.75 46.671875 
Q 47.953125 44.09375 46.40625 41.96875 
Q 44.875 39.84375 42.59375 38.34375 
Q 40.328125 36.859375 37.359375 36.28125 
L 37.359375 36.078125 
Q 40.328125 35.59375 42.859375 34.296875 
Q 45.40625 33.015625 47.265625 30.890625 
Q 49.125 28.765625 50.1875 25.828125 
Q 51.265625 22.90625 51.265625 19.1875 
M 40.4375 51.609375 
Q 40.4375 54.203125 39.765625 56.34375 
Q 39.109375 58.5 37.59375 60.03125 
Q 36.078125 61.578125 33.640625 62.421875 
Q 31.203125 63.28125 27.640625 63.28125 
Q 24.171875 63.28125 21.78125 62.421875 
Q 19.390625 61.578125 17.84375 60.03125 
Q 16.3125 58.5 15.625 56.34375 
Q 14.9375 54.203125 14.9375 51.609375 
Q 14.9375 49.5625 15.46875 47.40625 
Q 16.015625 45.265625 17.421875 43.5 
Q 18.84375 41.75 21.328125 40.625 
Q 23.828125 39.5 27.734375 39.5 
Q 31.890625 39.5 34.40625 40.625 
Q 36.921875 41.75 38.25 43.5 
Q 39.59375 45.265625 40.015625 47.40625 
Q 40.4375 49.5625 40.4375 51.609375 
M 42.140625 20.015625 
Q 42.140625 22.515625 41.453125 24.828125 
Q 40.765625 27.15625 39.109375 28.9375 
Q 37.453125 30.71875 34.640625 31.8125 
Q 31.84375 32.90625 27.640625 32.90625 
Q 23.78125 32.90625 21.0625 31.8125 
Q 18.359375 30.71875 16.671875 28.90625 
Q 14.984375 27.09375 14.203125 24.71875 
Q 13.421875 22.359375 13.421875 19.828125 
Q 13.421875 16.65625 14.203125 14.03125 
Q 14.984375 11.421875 16.6875 9.546875 
Q 18.40625 7.671875 21.1875 6.640625 
Q 23.96875 5.609375 27.9375 5.609375 
Q 31.9375 5.609375 34.671875 6.640625 
Q 37.40625 7.671875 39.0625 9.546875 
Q 40.71875 11.421875 41.421875 14.078125 
Q 42.140625 16.75 42.140625 20.015625 
" id="LiberationSans-38"/>
      </defs>
      <g style="fill:#262626;" transform="translate(51.1 109.107916)scale(0.1 -0.1)">
       <use xlink:href="#LiberationSans-30"/>
       <use x="55.615234" xlink:href="#LiberationSans-2e"/>
       <use x="83.398438" xlink:href="#LiberationSans-38"/>
      </g>
     </g>
    </g>
    <g id="ytick_6">
     <g id="line2d_25">
      <path clip-path="url(#paf7a9fa888)" d="M 72 50.605016 
L 518.4 50.605016 
" style="fill:none;stroke:#ffffff;stroke-linecap:round;"/>
     </g>
     <g id="line2d_26"/>
     <g id="text_13">
      <!-- 1.0 -->
      <g style="fill:#262626;" transform="translate(51.1 54.228453)scale(0.1 -0.1)">
       <use xlink:href="#LiberationSans-31"/>
       <use x="55.615234" xlink:href="#LiberationSans-2e"/>
       <use x="83.398438" xlink:href="#LiberationSans-30"/>
      </g>
     </g>
    </g>
   </g>
   <g id="line2d_27">
    <path clip-path="url(#paf7a9fa888)" d="M 92.290909 121.622588 
L 92.738503 102.866263 
L 93.036898 97.758949 
L 93.186096 98.381317 
L 93.335294 101.24513 
L 93.63369 113.197242 
L 94.827273 180.743672 
L 94.976471 183.087446 
L 95.125668 183.007248 
L 95.274866 180.530488 
L 95.573262 169.220473 
L 96.766845 108.454925 
L 96.916043 107.122365 
L 97.065241 108.02095 
L 97.363636 115.926601 
L 97.960428 145.495392 
L 98.408021 163.36258 
L 98.557219 166.006602 
L 98.706417 166.55974 
L 98.855615 164.964184 
L 99.154011 155.81726 
L 100.347594 101.54167 
L 100.496791 100.773038 
L 100.645989 102.325842 
L 100.944385 112.036758 
L 101.541176 148.141678 
L 101.98877 173.071524 
L 102.287166 181.012848 
L 102.436364 181.500619 
L 102.585561 179.595277 
L 102.883957 169.269783 
L 104.226738 104.669436 
L 104.375936 104.669998 
L 104.525134 106.754105 
L 104.823529 116.16405 
L 105.718717 152.697829 
L 105.867914 154.716878 
L 106.017112 154.633531 
L 106.16631 152.364635 
L 106.464706 141.664113 
L 107.061497 105.419083 
L 107.509091 81.759494 
L 107.807487 75.046072 
L 107.956684 75.209612 
L 108.105882 77.753897 
L 108.404278 89.210481 
L 109.597861 151.308806 
L 109.747059 152.736708 
L 109.896257 151.852451 
L 110.194652 143.650669 
L 110.791444 111.843618 
L 111.239037 90.924513 
L 111.537433 85.315931 
L 111.686631 85.679879 
L 111.835829 88.129492 
L 112.134225 98.366729 
L 113.029412 138.800148 
L 113.17861 141.588729 
L 113.327807 142.245593 
L 113.477005 140.656147 
L 113.775401 131.011236 
L 114.222995 104.933442 
L 114.819786 70.016561 
L 115.118182 61.923483 
L 115.26738 61.38 
L 115.416578 63.264541 
L 115.714973 73.712481 
L 116.311765 110.316124 
L 116.759358 134.497421 
L 117.057754 141.948992 
L 117.206952 142.392166 
L 117.35615 140.671033 
L 117.654545 131.652782 
L 118.69893 90.07958 
L 118.848128 89.289916 
L 118.997326 90.644855 
L 119.295722 99.513045 
L 119.892513 132.788218 
L 120.340107 155.274192 
L 120.638503 161.691149 
L 120.787701 161.486744 
L 120.936898 158.950327 
L 121.235294 147.587205 
L 122.428877 85.773887 
L 122.578075 84.458311 
L 122.727273 85.524083 
L 123.025668 94.366287 
L 123.473262 119.373839 
L 124.070053 152.900632 
L 124.368449 160.850737 
L 124.517647 161.648327 
L 124.666845 160.313386 
L 124.965241 152.052925 
L 126.009626 111.565364 
L 126.158824 110.797756 
L 126.308021 112.203237 
L 126.606417 121.361989 
L 127.054011 146.766539 
L 127.650802 181.488795 
L 127.949198 189.796906 
L 128.098396 190.489317 
L 128.247594 188.760795 
L 128.545989 178.585698 
L 129.142781 142.100515 
L 129.590374 117.68288 
L 129.88877 110.135419 
L 130.037968 109.729527 
L 130.187166 111.57537 
L 130.485561 121.183642 
L 131.529947 168.977005 
L 131.679144 171.034837 
L 131.828342 170.96755 
L 131.97754 168.776793 
L 132.275936 158.742176 
L 133.320321 110.515087 
L 133.469519 108.585868 
L 133.618717 108.895257 
L 133.767914 111.469579 
L 134.06631 122.789563 
L 135.259893 184.582865 
L 135.409091 185.894679 
L 135.558289 184.783786 
L 135.856684 175.664858 
L 136.304278 149.615642 
L 136.90107 113.582988 
L 137.199465 104.183892 
L 137.348663 102.701928 
L 137.497861 103.416591 
L 137.796257 110.73023 
L 138.840642 152.228652 
L 138.98984 153.620344 
L 139.139037 152.897175 
L 139.437433 145.162882 
L 139.885027 121.644047 
L 140.481818 88.252725 
L 140.780214 80.060879 
L 140.929412 79.324682 
L 141.07861 80.963184 
L 141.377005 90.887429 
L 141.973797 126.940824 
L 142.42139 151.169986 
L 142.719786 158.504165 
L 142.868984 158.7226 
L 143.018182 156.609604 
L 143.316578 146.16184 
L 144.51016 88.576632 
L 144.659358 87.425349 
L 144.808556 88.432138 
L 145.106952 96.320887 
L 146.300535 143.200106 
L 146.449733 143.048042 
L 146.59893 140.698845 
L 146.897326 129.93482 
L 148.090909 69.450955 
L 148.240107 68.162222 
L 148.389305 69.298975 
L 148.687701 78.539157 
L 149.135294 105.116809 
L 149.732086 142.539699 
L 150.030481 152.702479 
L 150.179679 154.506941 
L 150.328877 154.042709 
L 150.627273 146.926223 
L 151.224064 118.807472 
L 151.671658 102.013033 
L 151.820856 99.718009 
L 151.970053 99.50288 
L 152.119251 101.420622 
L 152.417647 111.146337 
L 153.61123 166.76099 
L 153.760428 167.660285 
L 153.909626 166.258624 
L 154.208021 156.949149 
L 154.804813 122.228264 
L 155.252406 98.876569 
L 155.550802 92.157628 
L 155.7 92.2998 
L 155.849198 94.830896 
L 156.147594 106.345714 
L 157.341176 171.527551 
L 157.490374 173.77656 
L 157.639572 173.81554 
L 157.78877 171.731945 
L 158.087166 162.229659 
L 158.982353 124.891858 
L 159.131551 122.654004 
L 159.280749 122.483342 
L 159.429947 124.457444 
L 159.728342 134.425687 
L 160.921925 193.89526 
L 161.071123 195.373705 
L 161.220321 194.46487 
L 161.518717 185.728634 
L 161.96631 159.818484 
L 162.563102 122.932372 
L 162.861497 113.03564 
L 163.010695 111.425161 
L 163.159893 112.151303 
L 163.458289 120.069015 
L 164.05508 151.192439 
L 164.502674 171.349604 
L 164.80107 176.337663 
L 164.950267 175.641748 
L 165.248663 168.172044 
L 165.696257 146.583689 
L 166.293048 119.506664 
L 166.591444 115.339954 
L 166.740642 116.528638 
L 167.039037 125.254961 
L 167.486631 149.585697 
L 168.083422 181.486737 
L 168.381818 187.895255 
L 168.531016 187.592025 
L 168.680214 184.875529 
L 168.97861 172.859827 
L 170.32139 100.652169 
L 170.470588 100.08678 
L 170.619786 101.728735 
L 170.918182 110.686515 
L 171.962567 152.586355 
L 172.111765 153.486093 
L 172.260963 152.266922 
L 172.559358 143.765228 
L 173.15615 111.674071 
L 173.603743 90.418827 
L 173.902139 84.884608 
L 174.051337 85.518766 
L 174.349733 93.565247 
L 174.797326 118.351518 
L 175.394118 153.942083 
L 175.692513 163.210211 
L 175.841711 164.463874 
L 175.990909 163.329723 
L 176.289305 154.379199 
L 176.886096 120.074529 
L 177.33369 96.685737 
L 177.632086 89.423476 
L 177.781283 89.030552 
L 177.930481 90.802589 
L 178.228877 100.010558 
L 179.273262 144.268716 
L 179.42246 145.647233 
L 179.571658 144.884308 
L 179.870053 137.127393 
L 180.317647 114.171919 
L 180.914439 83.319552 
L 181.212834 77.080996 
L 181.362032 77.417469 
L 181.51123 80.15369 
L 181.809626 92.23092 
L 183.152406 166.060052 
L 183.301604 166.761449 
L 183.450802 165.177634 
L 183.749198 156.031775 
L 184.793583 109.878495 
L 184.942781 108.079463 
L 185.091979 108.403563 
L 185.241176 110.844358 
L 185.539572 121.340997 
L 186.583957 170.672733 
L 186.733155 172.739636 
L 186.882353 172.584285 
L 187.031551 170.188778 
L 187.329947 159.330808 
L 188.523529 101.070414 
L 188.672727 100.30973 
L 188.821925 101.96065 
L 189.120321 112.074898 
L 189.717112 149.479553 
L 190.164706 175.783648 
L 190.463102 185.024142 
L 190.612299 186.341176 
L 190.761497 185.414595 
L 191.059893 177.567366 
L 192.253476 131.767481 
L 192.402674 132.043582 
L 192.551872 134.427001 
L 192.850267 144.870451 
L 193.894652 195.50259 
L 194.04385 197.793012 
L 194.193048 197.785427 
L 194.342246 195.426172 
L 194.640642 184.173161 
L 195.237433 146.134544 
L 195.685027 121.072578 
L 195.983422 113.424783 
L 196.13262 113.092957 
L 196.281818 115.106329 
L 196.580214 125.351171 
L 197.773797 181.044539 
L 197.922995 181.817233 
L 198.072193 180.412885 
L 198.370588 171.695301 
L 199.564171 121.447221 
L 199.713369 121.144344 
L 199.862567 123.013892 
L 200.160963 132.722524 
L 201.354545 187.623194 
L 201.503743 188.155372 
L 201.652941 186.285677 
L 201.951337 175.701521 
L 202.548128 136.922288 
L 203.14492 103.032337 
L 203.443316 97.27833 
L 203.592513 97.867159 
L 203.890909 105.336943 
L 204.487701 134.354082 
L 204.935294 151.859659 
L 205.084492 154.40015 
L 205.23369 154.87058 
L 205.382888 153.222297 
L 205.681283 144.094483 
L 206.874866 91.741501 
L 207.024064 91.277374 
L 207.173262 93.093105 
L 207.471658 103.132294 
L 208.068449 138.754007 
L 208.516043 162.281762 
L 208.814439 168.97434 
L 208.963636 168.808824 
L 209.112834 166.26425 
L 209.41123 154.800644 
L 210.604813 91.947619 
L 210.754011 90.243639 
L 210.903209 90.789826 
L 211.201604 98.112682 
L 211.798396 127.339697 
L 212.245989 145.773005 
L 212.544385 149.632943 
L 212.693583 148.413004 
L 212.991979 140.031258 
L 213.58877 109.430838 
L 214.036364 90.72747 
L 214.185561 87.951424 
L 214.334759 87.422237 
L 214.483957 89.25172 
L 214.782353 99.696666 
L 215.229947 127.694392 
L 215.826738 166.297091 
L 216.125134 176.643428 
L 216.274332 178.40533 
L 216.423529 177.796202 
L 216.721925 170.054012 
L 217.318717 139.310051 
L 217.76631 119.62225 
L 218.064706 115.030232 
L 218.213904 115.936618 
L 218.512299 123.825831 
L 219.109091 154.176158 
L 219.556684 173.644726 
L 219.85508 178.102276 
L 220.004278 177.080089 
L 220.302674 168.762167 
L 220.750267 145.299367 
L 221.347059 115.009896 
L 221.645455 109.481452 
L 221.794652 110.204267 
L 222.093048 118.656147 
L 222.540642 144.747744 
L 223.286631 190.275478 
L 223.585027 197.45601 
L 223.734225 197.602363 
L 223.883422 195.500006 
L 224.181818 185.534601 
L 225.226203 139.824635 
L 225.375401 138.364163 
L 225.524599 139.011209 
L 225.822995 146.318967 
L 226.270588 167.733337 
L 226.86738 194.861688 
L 227.165775 198.974302 
L 227.314973 197.663018 
L 227.613369 188.379207 
L 228.060963 162.146185 
L 228.657754 125.499334 
L 228.95615 116.001655 
L 229.105348 114.674515 
L 229.254545 115.746721 
L 229.552941 124.559458 
L 230.149733 158.25271 
L 230.597326 180.725084 
L 230.895722 187.171523 
L 231.04492 187.111279 
L 231.194118 184.865254 
L 231.492513 174.674805 
L 232.536898 127.034534 
L 232.686096 125.177841 
L 232.835294 125.452726 
L 232.984492 127.842102 
L 233.282888 138.185986 
L 234.327273 185.322594 
L 234.476471 186.730455 
L 234.625668 185.804823 
L 234.924064 177.007849 
L 235.371658 150.325506 
L 236.117647 103.269855 
L 236.416043 95.480813 
L 236.565241 95.101373 
L 236.714439 97.044068 
L 237.012834 106.974776 
L 238.057219 155.813999 
L 238.206417 157.95902 
L 238.355615 157.978593 
L 238.504813 155.883849 
L 238.803209 146.104158 
L 239.847594 99.676874 
L 239.996791 98.035237 
L 240.145989 98.598651 
L 240.295187 101.377216 
L 240.593583 112.898747 
L 241.787166 172.228271 
L 241.936364 173.02863 
L 242.085561 171.431592 
L 242.383957 161.516929 
L 242.980749 125.154735 
L 243.428342 100.340073 
L 243.726738 92.398827 
L 243.875936 91.802076 
L 244.025134 93.484041 
L 244.323529 102.910612 
L 245.517112 155.079484 
L 245.66631 155.585644 
L 245.815508 153.990263 
L 246.113904 145.154221 
L 247.158289 100.46448 
L 247.307487 98.997959 
L 247.456684 99.796143 
L 247.75508 108.211128 
L 248.202674 134.285008 
L 248.948663 180.885691 
L 249.247059 188.602671 
L 249.396257 188.914527 
L 249.545455 186.861031 
L 249.84385 176.522824 
L 251.037433 121.341499 
L 251.186631 120.750762 
L 251.335829 122.349362 
L 251.634225 131.466928 
L 252.827807 182.98379 
L 252.977005 183.425948 
L 253.126203 181.70677 
L 253.424599 172.352445 
L 254.618182 119.641602 
L 254.76738 119.379008 
L 254.916578 121.482847 
L 255.214973 132.382261 
L 255.811765 170.928116 
L 256.259358 197.616739 
L 256.557754 206.753464 
L 256.706952 207.873601 
L 256.85615 206.637681 
L 257.154545 197.798502 
L 258.348128 143.358763 
L 258.497326 142.265985 
L 258.646524 143.295351 
L 258.94492 151.179476 
L 260.138503 198.3681 
L 260.287701 198.228283 
L 260.436898 195.842774 
L 260.735294 184.798282 
L 262.078075 117.097236 
L 262.227273 117.227904 
L 262.376471 119.7332 
L 262.674866 131.057227 
L 263.868449 191.543364 
L 264.017647 192.747361 
L 264.166845 191.6755 
L 264.465241 183.258833 
L 265.062032 151.87764 
L 265.509626 131.973474 
L 265.808021 127.18991 
L 265.957219 127.954003 
L 266.255615 135.415747 
L 266.852406 164.090058 
L 267.3 181.348364 
L 267.449198 183.67975 
L 267.598396 183.799584 
L 267.747594 181.606911 
L 268.045989 170.615559 
L 268.642781 131.79019 
L 269.090374 104.616807 
L 269.38877 95.12401 
L 269.537968 93.862307 
L 269.687166 95.004449 
L 269.985561 103.862258 
L 270.582353 136.752103 
L 271.029947 157.801226 
L 271.328342 163.185884 
L 271.47754 162.654216 
L 271.775936 155.4989 
L 272.223529 134.478922 
L 272.820321 108.427794 
L 273.118717 104.771502 
L 273.267914 106.17211 
L 273.56631 115.171667 
L 274.163102 148.404053 
L 274.610695 170.295236 
L 274.909091 176.055046 
L 275.058289 175.46849 
L 275.207487 172.529054 
L 275.505882 160.342383 
L 276.699465 95.803347 
L 276.848663 94.167487 
L 276.997861 94.886845 
L 277.296257 102.916428 
L 277.74385 126.30678 
L 278.340642 157.011344 
L 278.639037 163.47595 
L 278.788235 163.576221 
L 278.937433 161.60091 
L 279.235829 152.303613 
L 280.131016 114.210571 
L 280.280214 111.737568 
L 280.429412 111.387357 
L 280.57861 113.282327 
L 280.877005 123.567861 
L 281.473797 161.101729 
L 281.92139 187.746854 
L 282.219786 197.0602 
L 282.368984 198.246817 
L 282.518182 197.018625 
L 282.816578 187.897472 
L 283.413369 153.88395 
L 283.860963 131.587435 
L 284.159358 125.43587 
L 284.308556 125.678763 
L 284.457754 128.120681 
L 284.75615 138.712086 
L 285.800535 187.373162 
L 285.949733 189.323341 
L 286.09893 189.139099 
L 286.248128 186.842334 
L 286.546524 176.705892 
L 287.590909 130.525943 
L 287.740107 129.216042 
L 287.889305 130.202025 
L 288.187701 138.964134 
L 288.635294 165.072477 
L 289.381283 209.571693 
L 289.679679 215.879363 
L 289.828877 215.459904 
L 289.978075 212.695945 
L 290.276471 201.103476 
L 291.320856 147.08073 
L 291.470053 144.309402 
L 291.619251 143.684866 
L 291.768449 145.19103 
L 292.066845 153.823498 
L 293.11123 196.35838 
L 293.260428 197.490281 
L 293.409626 196.446159 
L 293.708021 187.962677 
L 294.155615 163.319755 
L 294.752406 128.920723 
L 295.050802 120.475873 
L 295.2 119.655355 
L 295.349198 121.22435 
L 295.647594 131.011806 
L 296.244385 166.578326 
L 296.691979 190.206902 
L 296.990374 197.123213 
L 297.139572 197.161609 
L 297.28877 194.903998 
L 297.587166 184.314469 
L 298.780749 128.286904 
L 298.929947 127.411851 
L 299.079144 128.65455 
L 299.37754 136.818417 
L 300.421925 179.447374 
L 300.571123 180.708979 
L 300.720321 179.751569 
L 301.018717 171.191324 
L 301.46631 145.441427 
L 302.212299 100.940444 
L 302.510695 94.481109 
L 302.659893 94.843867 
L 302.809091 97.585159 
L 303.107487 109.288711 
L 304.151872 165.542778 
L 304.450267 169.674367 
L 304.599465 168.433301 
L 304.897861 160.001939 
L 306.091444 111.40689 
L 306.240642 111.339724 
L 306.38984 113.42191 
L 306.688235 123.446827 
L 307.881818 178.033907 
L 308.031016 178.524898 
L 308.180214 176.680045 
L 308.47861 166.43255 
L 309.075401 129.941279 
L 309.522995 105.513766 
L 309.82139 98.153607 
L 309.970588 97.972349 
L 310.119786 100.164985 
L 310.418182 110.923308 
L 311.611765 171.9403 
L 311.760963 173.691854 
L 311.91016 173.29352 
L 312.208556 166.606734 
L 312.805348 140.180276 
L 313.252941 125.174535 
L 313.402139 123.577763 
L 313.551337 124.120743 
L 313.700535 126.862467 
L 313.99893 138.451779 
L 315.192513 203.584103 
L 315.341711 205.610903 
L 315.490909 205.231883 
L 315.640107 202.480974 
L 315.938503 190.721524 
L 317.132086 130.17528 
L 317.281283 129.143365 
L 317.430481 130.405205 
L 317.728877 139.218363 
L 318.325668 171.241158 
L 318.773262 191.368767 
L 319.071658 196.189451 
L 319.220856 195.421942 
L 319.519251 187.931361 
L 320.116043 159.179962 
L 320.563636 141.797961 
L 320.712834 139.381497 
L 320.862032 139.140071 
L 321.01123 141.16524 
L 321.309626 151.64854 
L 321.906417 188.597799 
L 322.354011 213.598162 
L 322.652406 221.372827 
L 322.801604 221.728593 
L 322.950802 219.666669 
L 323.249198 208.979446 
L 324.591979 143.171331 
L 324.741176 143.185049 
L 324.890374 145.325374 
L 325.18877 154.98391 
L 326.083957 193.359178 
L 326.233155 195.82885 
L 326.382353 196.228993 
L 326.531551 194.472114 
L 326.829947 184.861425 
L 327.426738 150.898704 
L 327.874332 128.840437 
L 328.172727 123.044313 
L 328.321925 123.603105 
L 328.471123 126.493098 
L 328.769519 138.473823 
L 329.963102 200.068999 
L 330.112299 201.139551 
L 330.261497 199.840078 
L 330.559893 190.651722 
L 331.156684 156.396399 
L 331.604278 133.417565 
L 331.902674 126.425479 
L 332.051872 126.113253 
L 332.20107 127.904871 
L 332.499465 136.902068 
L 333.394652 174.528023 
L 333.54385 177.01198 
L 333.693048 177.41436 
L 333.842246 175.620322 
L 334.140642 165.711306 
L 334.737433 129.75569 
L 335.185027 104.995352 
L 335.483422 97.167072 
L 335.63262 96.756667 
L 335.781818 98.766034 
L 336.080214 109.413315 
L 336.826203 155.239448 
L 337.273797 174.337161 
L 337.422995 176.695643 
L 337.572193 176.780503 
L 337.72139 174.647003 
L 338.019786 164.647483 
L 339.064171 118.326541 
L 339.213369 116.752891 
L 339.362567 117.314393 
L 339.660963 124.592694 
L 340.108556 146.495265 
L 340.705348 175.426877 
L 341.003743 180.8116 
L 341.152941 180.177434 
L 341.451337 172.242657 
L 341.89893 147.797393 
L 342.495722 112.820388 
L 342.794118 103.940655 
L 342.943316 102.917416 
L 343.092513 104.314278 
L 343.390909 113.910475 
L 343.987701 150.089242 
L 344.435294 175.368828 
L 344.73369 184.033661 
L 344.882888 185.142703 
L 345.032086 184.0835 
L 345.330481 176.255593 
L 346.374866 135.907647 
L 346.524064 134.993287 
L 346.673262 136.21735 
L 346.971658 144.92514 
L 347.419251 169.505533 
L 348.016043 203.095819 
L 348.314439 210.937493 
L 348.463636 211.443547 
L 348.612834 209.56767 
L 348.91123 199.235595 
L 349.508021 163.099396 
L 349.955615 139.592436 
L 350.254011 132.960855 
L 350.403209 133.099469 
L 350.552406 135.543119 
L 350.850802 146.489848 
L 351.895187 199.889716 
L 352.193583 203.538987 
L 352.342781 202.154923 
L 352.641176 193.658242 
L 353.685561 149.503852 
L 353.834759 147.942649 
L 353.983957 148.560967 
L 354.282353 156.294541 
L 354.729947 180.347392 
L 355.326738 215.214872 
L 355.625134 224.231524 
L 355.774332 225.335513 
L 355.923529 224.007289 
L 356.221925 214.451515 
L 356.669519 187.836593 
L 357.26631 151.445884 
L 357.564706 142.109194 
L 357.713904 140.726935 
L 357.863102 141.588157 
L 358.161497 149.334713 
L 359.35508 195.504005 
L 359.504278 195.301487 
L 359.653476 192.969349 
L 359.951872 182.521737 
L 361.145455 127.326299 
L 361.294652 126.800002 
L 361.44385 128.588444 
L 361.742246 138.620966 
L 362.339037 174.085277 
L 362.786631 197.187917 
L 363.085027 203.487664 
L 363.234225 203.117689 
L 363.383422 200.376278 
L 363.681818 188.576457 
L 364.875401 125.283004 
L 365.024599 123.488761 
L 365.173797 123.886381 
L 365.472193 130.674337 
L 366.068984 157.59182 
L 366.516578 173.191835 
L 366.665775 175.045692 
L 366.814973 174.798443 
L 366.964171 172.397044 
L 367.262567 161.64335 
L 368.45615 101.995094 
L 368.605348 100.801846 
L 368.754545 102.011293 
L 369.052941 111.305675 
L 369.500535 137.663429 
L 370.097326 174.092515 
L 370.395722 183.436023 
L 370.54492 184.752913 
L 370.694118 183.75221 
L 370.992513 175.429417 
L 371.589305 144.489868 
L 372.036898 125.396771 
L 372.335294 121.360162 
L 372.484492 122.535695 
L 372.782888 130.850253 
L 373.379679 161.19582 
L 373.827273 179.750054 
L 373.976471 182.578836 
L 374.125668 183.256063 
L 374.274866 181.698371 
L 374.573262 172.275376 
L 375.170053 138.081203 
L 375.617647 115.680203 
L 375.916043 109.783917 
L 376.065241 110.375416 
L 376.214439 113.372258 
L 376.512834 125.84063 
L 377.706417 194.223856 
L 377.855615 196.723086 
L 378.004813 196.968444 
L 378.154011 195.04609 
L 378.452406 185.7292 
L 379.347594 147.940588 
L 379.496791 145.509738 
L 379.645989 145.123302 
L 379.795187 146.86392 
L 380.093583 156.333994 
L 380.690374 189.51647 
L 381.137968 210.616794 
L 381.436364 215.704824 
L 381.585561 214.802709 
L 381.883957 206.24477 
L 382.331551 181.050983 
L 382.928342 145.977928 
L 383.226738 137.32348 
L 383.375936 136.405164 
L 383.525134 137.86415 
L 383.823529 147.346557 
L 384.420321 181.815989 
L 384.867914 204.460726 
L 385.16631 210.999538 
L 385.315508 211.029271 
L 385.464706 208.925611 
L 385.763102 199.237837 
L 386.807487 156.260011 
L 386.956684 155.367025 
L 387.105882 156.635005 
L 387.404278 165.362649 
L 388.00107 198.347217 
L 388.448663 220.40073 
L 388.747059 226.312316 
L 388.896257 225.76654 
L 389.045455 222.819938 
L 389.34385 210.405195 
L 390.537433 140.899772 
L 390.686631 138.251509 
L 390.835829 137.919036 
L 390.985027 139.83762 
L 391.283422 149.468547 
L 392.327807 194.53198 
L 392.477005 195.914711 
L 392.626203 195.168322 
L 392.924599 187.55697 
L 393.372193 165.298351 
L 393.968984 136.15222 
L 394.26738 130.684309 
L 394.416578 131.254648 
L 394.714973 138.973911 
L 395.162567 162.776722 
L 395.759358 196.236471 
L 396.057754 204.166404 
L 396.206952 204.703129 
L 396.35615 202.828976 
L 396.654545 192.356976 
L 397.251337 155.037304 
L 397.69893 129.612481 
L 397.997326 121.178511 
L 398.146524 120.266868 
L 398.295722 121.56851 
L 398.594118 129.98727 
L 399.638503 173.053649 
L 399.787701 174.435338 
L 399.936898 173.708357 
L 400.235294 166.102231 
L 400.682888 143.488285 
L 401.279679 113.055991 
L 401.578075 106.904167 
L 401.727273 107.233835 
L 401.876471 109.923479 
L 402.174866 121.772631 
L 403.368449 189.609441 
L 403.517647 192.047618 
L 403.666845 192.119867 
L 403.816043 189.872897 
L 404.114439 179.320589 
L 405.158824 128.060694 
L 405.308021 125.59521 
L 405.457219 125.287155 
L 405.606417 127.135572 
L 405.904813 136.586628 
L 406.949198 184.09063 
L 407.098396 186.153923 
L 407.247594 186.059428 
L 407.396791 183.787511 
L 407.695187 173.354478 
L 408.88877 118.508414 
L 409.037968 118.270459 
L 409.187166 120.443253 
L 409.485561 131.572275 
L 410.082353 170.724865 
L 410.529947 197.948741 
L 410.828342 207.575027 
L 410.97754 209.014151 
L 411.126738 208.163077 
L 411.425134 200.333298 
L 412.618717 153.311027 
L 412.767914 153.366324 
L 412.917112 155.532422 
L 413.215508 165.575456 
L 414.409091 218.163031 
L 414.558289 218.331443 
L 414.707487 216.206872 
L 415.005882 205.603651 
L 416.348663 140.466957 
L 416.497861 140.952982 
L 416.647059 143.801832 
L 416.945455 155.742746 
L 418.139037 217.56311 
L 418.288235 218.930465 
L 418.437433 218.067805 
L 418.735829 210.264021 
L 419.929412 161.314093 
L 420.07861 160.929987 
L 420.227807 162.674704 
L 420.526203 172.021895 
L 421.719786 224.829889 
L 421.868984 225.129518 
L 422.018182 223.053434 
L 422.316578 212.154491 
L 422.913369 173.239701 
L 423.360963 145.899094 
L 423.659358 136.195574 
L 423.808556 134.771652 
L 423.957754 135.699837 
L 424.25615 143.93791 
L 424.852941 174.699414 
L 425.300535 193.505262 
L 425.59893 197.286117 
L 425.748128 195.975957 
L 426.046524 187.403791 
L 427.240107 135.085736 
L 427.389305 134.342514 
L 427.538503 135.815154 
L 427.836898 144.983574 
L 428.43369 178.217136 
L 428.881283 199.541315 
L 429.179679 204.661711 
L 429.328877 203.700008 
L 429.627273 194.81079 
L 430.074866 168.448852 
L 430.820856 123.958121 
L 431.119251 117.503463 
L 431.268449 117.706125 
L 431.417647 120.117473 
L 431.716043 130.500163 
L 432.61123 171.773259 
L 432.909626 175.813009 
L 433.058824 174.706409 
L 433.357219 166.569378 
L 433.954011 136.365855 
L 434.401604 117.703092 
L 434.550802 114.865522 
L 434.7 114.230791 
L 434.849198 115.907698 
L 435.147594 125.897756 
L 435.595187 152.826255 
L 436.191979 189.329788 
L 436.490374 198.396974 
L 436.639572 199.479274 
L 436.78877 198.171856 
L 437.087166 189.003048 
L 437.683957 155.475599 
L 438.131551 133.96895 
L 438.429947 128.379692 
L 438.579144 128.866169 
L 438.87754 136.090848 
L 439.325134 157.717702 
L 439.921925 185.597395 
L 440.220321 190.529565 
L 440.369519 189.827112 
L 440.667914 182.292823 
L 441.115508 160.288607 
L 441.712299 132.217391 
L 442.010695 127.796849 
L 442.159893 129.050562 
L 442.458289 138.488636 
L 442.905882 165.796744 
L 443.651872 212.446846 
L 443.950267 219.742213 
L 444.099465 219.8801 
L 444.248663 217.729432 
L 444.547059 207.563734 
L 445.591444 160.600886 
L 445.740642 158.967995 
L 445.88984 159.461935 
L 446.188235 166.543587 
L 446.635829 187.894298 
L 447.23262 215.618607 
L 447.531016 220.365689 
L 447.680214 219.45883 
L 447.97861 211.154564 
L 448.426203 186.784121 
L 449.022995 153.18708 
L 449.32139 145.355788 
L 449.470588 144.873849 
L 449.619786 146.789786 
L 449.918182 157.257118 
L 450.514973 193.940378 
L 450.962567 218.196948 
L 451.260963 225.553313 
L 451.41016 225.857107 
L 451.559358 223.913084 
L 451.857754 214.140667 
L 452.902139 166.206917 
L 453.051337 164.131353 
L 453.200535 164.157396 
L 453.349733 166.273587 
L 453.648128 176.021657 
L 454.692513 221.187004 
L 454.841711 222.403346 
L 454.990909 221.323071 
L 455.289305 212.340813 
L 455.736898 185.722116 
L 456.482888 139.679616 
L 456.781283 132.556924 
L 456.930481 132.549245 
L 457.079679 134.882001 
L 457.378075 145.623316 
L 458.42246 196.948007 
L 458.571658 199.322165 
L 458.720856 199.523565 
L 458.870053 197.559186 
L 459.168449 187.872027 
L 460.212834 139.819118 
L 460.362032 137.698478 
L 460.51123 137.726886 
L 460.660428 139.91797 
L 460.958824 150.124245 
L 462.003209 200.837635 
L 462.152406 203.159542 
L 462.301604 203.165658 
L 462.450802 200.795361 
L 462.749198 189.421807 
L 463.345989 150.636394 
L 463.793583 124.546639 
L 464.091979 116.034075 
L 464.241176 115.233415 
L 464.390374 116.763377 
L 464.68877 126.029805 
L 465.882353 178.822134 
L 466.031551 179.459192 
L 466.180749 177.98713 
L 466.479144 169.352452 
L 467.523529 124.38535 
L 467.672727 122.706018 
L 467.821925 123.241827 
L 467.971123 126.035391 
L 468.269519 137.837978 
L 469.463102 203.593196 
L 469.612299 205.626529 
L 469.761497 205.25685 
L 469.910695 202.527625 
L 470.209091 190.883201 
L 471.253476 135.029477 
L 471.551872 131.182408 
L 471.70107 132.630945 
L 471.999465 141.646999 
L 473.193048 195.224398 
L 473.342246 196.150674 
L 473.491444 194.950453 
L 473.78984 186.715211 
L 474.983422 138.640178 
L 475.13262 138.873467 
L 475.281818 141.436726 
L 475.580214 153.130056 
L 476.177005 192.695395 
L 476.624599 219.636463 
L 476.922995 228.723615 
L 477.072193 229.764331 
L 477.22139 228.418758 
L 477.519786 219.290972 
L 478.713369 163.651652 
L 478.862567 162.50196 
L 479.011765 163.512713 
L 479.31016 171.490891 
L 479.906952 200.935695 
L 480.354545 218.615945 
L 480.503743 221.15806 
L 480.652941 221.572999 
L 480.802139 219.791712 
L 481.100535 210.090074 
L 481.697326 176.227467 
L 482.14492 154.767695 
L 482.443316 149.606229 
L 482.592513 150.528276 
L 482.890909 159.239498 
L 483.338503 184.933638 
L 483.935294 221.1573 
L 484.23369 230.603594 
L 484.382888 231.975362 
L 484.532086 231.008583 
L 484.830481 222.622292 
L 485.427273 190.676021 
L 485.874866 169.944664 
L 486.173262 164.500305 
L 486.32246 164.91911 
L 486.620856 171.690592 
L 487.217647 199.145922 
L 487.665241 215.789201 
L 487.814439 217.993627 
L 487.963636 218.030009 
L 488.112834 215.799085 
L 488.41123 204.869955 
L 489.008021 166.702744 
L 489.455615 140.406456 
L 489.754011 131.613308 
L 489.903209 130.718416 
L 490.052406 132.230133 
L 490.350802 141.808769 
L 490.947594 175.883712 
L 491.395187 197.411872 
L 491.693583 202.8513 
L 491.842781 202.258211 
L 492.141176 194.793475 
L 492.58877 172.836917 
L 493.185561 144.709413 
L 493.483957 139.714645 
L 493.633155 140.386408 
L 493.931551 147.836379 
L 494.379144 169.610875 
L 494.975936 197.235848 
L 495.274332 201.491531 
L 495.423529 200.205696 
L 495.721925 190.859226 
L 496.169519 164.213932 
L 496.76631 126.457344 
L 497.064706 116.242863 
L 497.213904 114.541686 
L 497.363102 115.240924 
L 497.661497 123.347439 
L 498.109091 147.065943 
L 498.109091 147.065943 
" style="fill:none;stroke:#4c72b0;stroke-linecap:round;stroke-width:1.75;"/>
   </g>
   <g id="line2d_28">
    <path clip-path="url(#paf7a9fa888)" d="M 92.290909 338.58 
L 498.109091 338.563268 
L 498.109091 338.563268 
" style="fill:none;stroke:#55a868;stroke-linecap:round;stroke-width:1.75;"/>
   </g>
   <g id="patch_3">
    <path d="M 72 352.44 
L 72 47.52 
" style="fill:none;"/>
   </g>
   <g id="patch_4">
    <path d="M 518.4 352.44 
L 518.4 47.52 
" style="fill:none;"/>
   </g>
   <g id="patch_5">
    <path d="M 72 352.44 
L 518.4 352.44 
" style="fill:none;"/>
   </g>
   <g id="patch_6">
    <path d="M 72 47.52 
L 518.4 47.52 
" style="fill:none;"/>
   </g>
   <g id="legend_1">
    <g id="line2d_29">
     <path d="M 475.839062 60.266875 
L 495.839062 60.266875 
" style="fill:none;stroke:#4c72b0;stroke-linecap:round;stroke-width:1.75;"/>
    </g>
    <g id="line2d_30"/>
    <g id="text_14">
     <!-- a -->
     <defs>
      <path d="M 20.21875 -0.984375 
Q 12.25 -0.984375 8.25 3.21875 
Q 4.25 7.421875 4.25 14.75 
Q 4.25 19.96875 6.21875 23.3125 
Q 8.203125 26.65625 11.390625 28.5625 
Q 14.59375 30.46875 18.6875 31.203125 
Q 22.796875 31.9375 27.046875 32.03125 
L 38.921875 32.234375 
L 38.921875 35.109375 
Q 38.921875 38.375 38.234375 40.671875 
Q 37.546875 42.96875 36.125 44.375 
Q 34.71875 45.796875 32.59375 46.453125 
Q 30.46875 47.125 27.59375 47.125 
Q 25.046875 47.125 23 46.75 
Q 20.953125 46.390625 19.4375 45.4375 
Q 17.921875 44.484375 16.984375 42.84375 
Q 16.0625 41.21875 15.765625 38.71875 
L 6.59375 39.546875 
Q 7.078125 42.671875 8.4375 45.28125 
Q 9.8125 47.90625 12.328125 49.796875 
Q 14.84375 51.703125 18.625 52.75 
Q 22.40625 53.8125 27.78125 53.8125 
Q 37.75 53.8125 42.765625 49.234375 
Q 47.796875 44.671875 47.796875 36.03125 
L 47.796875 13.28125 
Q 47.796875 9.375 48.828125 7.390625 
Q 49.859375 5.421875 52.734375 5.421875 
Q 53.46875 5.421875 54.203125 5.515625 
Q 54.9375 5.609375 55.609375 5.765625 
L 55.609375 0.296875 
Q 53.953125 -0.09375 52.3125 -0.28125 
Q 50.6875 -0.484375 48.828125 -0.484375 
Q 46.34375 -0.484375 44.5625 0.171875 
Q 42.78125 0.828125 41.65625 2.171875 
Q 40.53125 3.515625 39.9375 5.484375 
Q 39.359375 7.46875 39.203125 10.109375 
L 38.921875 10.109375 
Q 37.5 7.5625 35.8125 5.515625 
Q 34.125 3.46875 31.875 2.03125 
Q 29.640625 0.59375 26.78125 -0.1875 
Q 23.921875 -0.984375 20.21875 -0.984375 
M 22.21875 5.609375 
Q 26.421875 5.609375 29.5625 7.140625 
Q 32.71875 8.6875 34.78125 11.078125 
Q 36.859375 13.484375 37.890625 16.3125 
Q 38.921875 19.140625 38.921875 21.734375 
L 38.921875 26.078125 
L 29.296875 25.875 
Q 26.078125 25.828125 23.171875 25.40625 
Q 20.265625 25 18.0625 23.78125 
Q 15.875 22.5625 14.578125 20.359375 
Q 13.28125 18.171875 13.28125 14.59375 
Q 13.28125 10.296875 15.59375 7.953125 
Q 17.921875 5.609375 22.21875 5.609375 
" id="LiberationSans-61"/>
     </defs>
     <g style="fill:#262626;" transform="translate(503.839062 63.766875)scale(0.1 -0.1)">
      <use xlink:href="#LiberationSans-61"/>
     </g>
    </g>
    <g id="line2d_31">
     <path d="M 475.839062 74.58875 
L 495.839062 74.58875 
" style="fill:none;stroke:#55a868;stroke-linecap:round;stroke-width:1.75;"/>
    </g>
    <g id="line2d_32"/>
    <g id="text_15">
     <!-- b -->
     <defs>
      <path d="M 51.421875 26.65625 
Q 51.421875 -0.984375 31.984375 -0.984375 
Q 25.984375 -0.984375 22 1.1875 
Q 18.015625 3.375 15.53125 8.203125 
L 15.4375 8.203125 
Q 15.4375 6.9375 15.359375 5.5625 
Q 15.28125 4.203125 15.203125 3.03125 
Q 15.140625 1.859375 15.0625 1.03125 
Q 14.984375 0.203125 14.9375 0 
L 6.453125 0 
Q 6.5 0.4375 6.546875 1.484375 
Q 6.59375 2.546875 6.640625 4 
Q 6.6875 5.46875 6.703125 7.21875 
Q 6.734375 8.984375 6.734375 10.890625 
L 6.734375 72.46875 
L 15.53125 72.46875 
L 15.53125 51.8125 
Q 15.53125 50.34375 15.5 49 
Q 15.484375 47.65625 15.4375 46.625 
Q 15.375 45.40625 15.328125 44.34375 
L 15.53125 44.34375 
Q 17.96875 49.421875 22 51.609375 
Q 26.03125 53.8125 31.984375 53.8125 
Q 42 53.8125 46.703125 47.0625 
Q 51.421875 40.328125 51.421875 26.65625 
M 42.1875 26.375 
Q 42.1875 31.84375 41.5 35.75 
Q 40.828125 39.65625 39.3125 42.15625 
Q 37.796875 44.671875 35.453125 45.84375 
Q 33.109375 47.015625 29.734375 47.015625 
Q 26.265625 47.015625 23.609375 45.890625 
Q 20.953125 44.78125 19.171875 42.28125 
Q 17.390625 39.796875 16.453125 35.734375 
Q 15.53125 31.6875 15.53125 25.828125 
Q 15.53125 20.171875 16.453125 16.3125 
Q 17.390625 12.453125 19.171875 10.03125 
Q 20.953125 7.625 23.578125 6.5625 
Q 26.21875 5.515625 29.640625 5.515625 
Q 32.859375 5.515625 35.203125 6.640625 
Q 37.546875 7.765625 39.109375 10.25 
Q 40.671875 12.75 41.421875 16.71875 
Q 42.1875 20.703125 42.1875 26.375 
" id="LiberationSans-62"/>
     </defs>
     <g style="fill:#262626;" transform="translate(503.839062 78.08875)scale(0.1 -0.1)">
      <use xlink:href="#LiberationSans-62"/>
     </g>
    </g>
   </g>
  </g>
 </g>
 <defs>
  <clipPath id="paf7a9fa888">
   <rect height="304.92" width="446.4" x="72" y="47.52"/>
  </clipPath>
 </defs>
</svg>
