<?xml version="1.0" encoding="utf-8" standalone="no"?>
<!DOCTYPE svg PUBLIC "-//W3C//DTD SVG 1.1//EN"
  "http://www.w3.org/Graphics/SVG/1.1/DTD/svg11.dtd">
<!-- Created with matplotlib (http://matplotlib.org/) -->
<svg height="396pt" version="1.1" viewBox="0 0 576 396" width="576pt" xmlns="http://www.w3.org/2000/svg" xmlns:xlink="http://www.w3.org/1999/xlink">
 <defs>
  <style type="text/css">
*{stroke-linecap:butt;stroke-linejoin:round;}
  </style>
 </defs>
 <g id="figure_1">
  <g id="patch_1">
   <path d="M 0 396 
L 576 396 
L 576 0 
L 0 0 
z
" style="fill:#ffffff;"/>
  </g>
  <g id="axes_1">
   <g id="patch_2">
    <path d="M 72 352.44 
L 518.4 352.44 
L 518.4 47.52 
L 72 47.52 
z
" style="fill:#eaeaf2;"/>
   </g>
   <g id="matplotlib.axis_1">
    <g id="xtick_1">
     <g id="line2d_1">
      <path clip-path="url(#p9a25c4534b)" d="M 92.290909 352.44 
L 92.290909 47.52 
" style="fill:none;stroke:#ffffff;stroke-linecap:round;"/>
     </g>
     <g id="line2d_2"/>
     <g id="text_1">
      <!-- 0.00 -->
      <defs>
       <path d="M 51.703125 34.421875 
Q 51.703125 24.515625 49.828125 17.75 
Q 47.953125 10.984375 44.703125 6.8125 
Q 41.453125 2.640625 37.0625 0.828125 
Q 32.671875 -0.984375 27.6875 -0.984375 
Q 22.65625 -0.984375 18.3125 0.828125 
Q 13.96875 2.640625 10.765625 6.78125 
Q 7.5625 10.9375 5.734375 17.703125 
Q 3.90625 24.46875 3.90625 34.421875 
Q 3.90625 44.828125 5.734375 51.640625 
Q 7.5625 58.453125 10.78125 62.5 
Q 14.015625 66.546875 18.40625 68.1875 
Q 22.796875 69.828125 27.984375 69.828125 
Q 32.90625 69.828125 37.21875 68.1875 
Q 41.546875 66.546875 44.765625 62.5 
Q 48 58.453125 49.84375 51.640625 
Q 51.703125 44.828125 51.703125 34.421875 
M 42.78125 34.421875 
Q 42.78125 42.625 41.796875 48.0625 
Q 40.828125 53.515625 38.921875 56.765625 
Q 37.015625 60.015625 34.25 61.359375 
Q 31.5 62.703125 27.984375 62.703125 
Q 24.265625 62.703125 21.4375 61.328125 
Q 18.609375 59.96875 16.671875 56.71875 
Q 14.75 53.46875 13.765625 48.015625 
Q 12.796875 42.578125 12.796875 34.421875 
Q 12.796875 26.515625 13.796875 21.09375 
Q 14.796875 15.671875 16.71875 12.375 
Q 18.65625 9.078125 21.4375 7.640625 
Q 24.21875 6.203125 27.78125 6.203125 
Q 31.25 6.203125 34.03125 7.640625 
Q 36.8125 9.078125 38.734375 12.375 
Q 40.671875 15.671875 41.71875 21.09375 
Q 42.78125 26.515625 42.78125 34.421875 
" id="LiberationSans-30"/>
       <path d="M 9.125 0 
L 9.125 10.6875 
L 18.65625 10.6875 
L 18.65625 0 
z
" id="LiberationSans-2e"/>
      </defs>
      <g style="fill:#262626;" transform="translate(82.56044 366.686875)scale(0.1 -0.1)">
       <use xlink:href="#LiberationSans-30"/>
       <use x="55.615234" xlink:href="#LiberationSans-2e"/>
       <use x="83.398438" xlink:href="#LiberationSans-30"/>
       <use x="139.013672" xlink:href="#LiberationSans-30"/>
      </g>
     </g>
    </g>
    <g id="xtick_2">
     <g id="line2d_3">
      <path clip-path="url(#p9a25c4534b)" d="M 158.087166 352.44 
L 158.087166 47.52 
" style="fill:none;stroke:#ffffff;stroke-linecap:round;"/>
     </g>
     <g id="line2d_4"/>
     <g id="text_2">
      <!-- 0.01 -->
      <defs>
       <path d="M 7.625 0 
L 7.625 7.46875 
L 25.140625 7.46875 
L 25.140625 60.40625 
L 9.625 49.3125 
L 9.625 57.625 
L 25.875 68.796875 
L 33.984375 68.796875 
L 33.984375 7.46875 
L 50.734375 7.46875 
L 50.734375 0 
z
" id="LiberationSans-31"/>
      </defs>
      <g style="fill:#262626;" transform="translate(148.356697 366.686875)scale(0.1 -0.1)">
       <use xlink:href="#LiberationSans-30"/>
       <use x="55.615234" xlink:href="#LiberationSans-2e"/>
       <use x="83.398438" xlink:href="#LiberationSans-30"/>
       <use x="139.013672" xlink:href="#LiberationSans-31"/>
      </g>
     </g>
    </g>
    <g id="xtick_3">
     <g id="line2d_5">
      <path clip-path="url(#p9a25c4534b)" d="M 223.883422 352.44 
L 223.883422 47.52 
" style="fill:none;stroke:#ffffff;stroke-linecap:round;"/>
     </g>
     <g id="line2d_6"/>
     <g id="text_3">
      <!-- 0.02 -->
      <defs>
       <path d="M 5.03125 0 
L 5.03125 6.203125 
Q 7.515625 11.921875 11.109375 16.28125 
Q 14.703125 20.65625 18.65625 24.1875 
Q 22.609375 27.734375 26.484375 30.765625 
Q 30.375 33.796875 33.5 36.8125 
Q 36.625 39.84375 38.546875 43.15625 
Q 40.484375 46.484375 40.484375 50.6875 
Q 40.484375 53.609375 39.59375 55.828125 
Q 38.71875 58.0625 37.0625 59.5625 
Q 35.40625 61.078125 33.078125 61.828125 
Q 30.765625 62.59375 27.9375 62.59375 
Q 25.296875 62.59375 22.96875 61.859375 
Q 20.65625 61.140625 18.84375 59.671875 
Q 17.046875 58.203125 15.890625 56.03125 
Q 14.75 53.859375 14.40625 50.984375 
L 5.421875 51.8125 
Q 5.859375 55.515625 7.46875 58.78125 
Q 9.078125 62.0625 11.90625 64.53125 
Q 14.75 67 18.71875 68.40625 
Q 22.703125 69.828125 27.9375 69.828125 
Q 33.0625 69.828125 37.0625 68.609375 
Q 41.0625 67.390625 43.8125 64.984375 
Q 46.578125 62.59375 48.046875 59.078125 
Q 49.515625 55.5625 49.515625 50.984375 
Q 49.515625 47.515625 48.265625 44.390625 
Q 47.015625 41.265625 44.9375 38.421875 
Q 42.875 35.59375 40.140625 32.953125 
Q 37.40625 30.328125 34.421875 27.8125 
Q 31.453125 25.296875 28.421875 22.828125 
Q 25.390625 20.359375 22.71875 17.859375 
Q 20.0625 15.375 17.96875 12.8125 
Q 15.875 10.25 14.703125 7.46875 
L 50.59375 7.46875 
L 50.59375 0 
z
" id="LiberationSans-32"/>
      </defs>
      <g style="fill:#262626;" transform="translate(214.152954 366.686875)scale(0.1 -0.1)">
       <use xlink:href="#LiberationSans-30"/>
       <use x="55.615234" xlink:href="#LiberationSans-2e"/>
       <use x="83.398438" xlink:href="#LiberationSans-30"/>
       <use x="139.013672" xlink:href="#LiberationSans-32"/>
      </g>
     </g>
    </g>
    <g id="xtick_4">
     <g id="line2d_7">
      <path clip-path="url(#p9a25c4534b)" d="M 289.679679 352.44 
L 289.679679 47.52 
" style="fill:none;stroke:#ffffff;stroke-linecap:round;"/>
     </g>
     <g id="line2d_8"/>
     <g id="text_4">
      <!-- 0.03 -->
      <defs>
       <path d="M 51.21875 19 
Q 51.21875 14.265625 49.671875 10.546875 
Q 48.140625 6.84375 45.1875 4.265625 
Q 42.234375 1.703125 37.859375 0.359375 
Q 33.5 -0.984375 27.875 -0.984375 
Q 21.484375 -0.984375 17.109375 0.609375 
Q 12.75 2.203125 9.90625 4.8125 
Q 7.078125 7.421875 5.65625 10.765625 
Q 4.25 14.109375 3.8125 17.671875 
L 12.890625 18.5 
Q 13.28125 15.765625 14.328125 13.515625 
Q 15.375 11.28125 17.1875 9.671875 
Q 19 8.0625 21.625 7.171875 
Q 24.265625 6.296875 27.875 6.296875 
Q 34.515625 6.296875 38.296875 9.5625 
Q 42.09375 12.84375 42.09375 19.28125 
Q 42.09375 23.09375 40.40625 25.40625 
Q 38.71875 27.734375 36.203125 29.03125 
Q 33.6875 30.328125 30.734375 30.765625 
Q 27.78125 31.203125 25.296875 31.203125 
L 20.3125 31.203125 
L 20.3125 38.8125 
L 25.09375 38.8125 
Q 27.59375 38.8125 30.265625 39.328125 
Q 32.953125 39.84375 35.171875 41.1875 
Q 37.40625 42.53125 38.84375 44.828125 
Q 40.28125 47.125 40.28125 50.6875 
Q 40.28125 56.203125 37.03125 59.390625 
Q 33.796875 62.59375 27.390625 62.59375 
Q 21.578125 62.59375 17.984375 59.609375 
Q 14.40625 56.640625 13.8125 51.21875 
L 4.984375 51.90625 
Q 5.515625 56.453125 7.46875 59.8125 
Q 9.421875 63.1875 12.421875 65.40625 
Q 15.4375 67.625 19.28125 68.71875 
Q 23.140625 69.828125 27.484375 69.828125 
Q 33.25 69.828125 37.390625 68.375 
Q 41.546875 66.9375 44.1875 64.46875 
Q 46.828125 62.015625 48.0625 58.6875 
Q 49.3125 55.375 49.3125 51.609375 
Q 49.3125 48.578125 48.484375 45.9375 
Q 47.65625 43.3125 45.890625 41.203125 
Q 44.140625 39.109375 41.421875 37.59375 
Q 38.71875 36.078125 34.90625 35.296875 
L 34.90625 35.109375 
Q 39.0625 34.671875 42.140625 33.21875 
Q 45.21875 31.78125 47.21875 29.625 
Q 49.21875 27.484375 50.21875 24.75 
Q 51.21875 22.015625 51.21875 19 
" id="LiberationSans-33"/>
      </defs>
      <g style="fill:#262626;" transform="translate(279.94921 366.686875)scale(0.1 -0.1)">
       <use xlink:href="#LiberationSans-30"/>
       <use x="55.615234" xlink:href="#LiberationSans-2e"/>
       <use x="83.398438" xlink:href="#LiberationSans-30"/>
       <use x="139.013672" xlink:href="#LiberationSans-33"/>
      </g>
     </g>
    </g>
    <g id="xtick_5">
     <g id="line2d_9">
      <path clip-path="url(#p9a25c4534b)" d="M 355.475936 352.44 
L 355.475936 47.52 
" style="fill:none;stroke:#ffffff;stroke-linecap:round;"/>
     </g>
     <g id="line2d_10"/>
     <g id="text_5">
      <!-- 0.04 -->
      <defs>
       <path d="M 43.015625 15.578125 
L 43.015625 0 
L 34.71875 0 
L 34.71875 15.578125 
L 2.296875 15.578125 
L 2.296875 22.40625 
L 33.796875 68.796875 
L 43.015625 68.796875 
L 43.015625 22.515625 
L 52.6875 22.515625 
L 52.6875 15.578125 
z
M 34.71875 58.890625 
Q 34.625 58.640625 34.234375 57.9375 
Q 33.84375 57.234375 33.34375 56.34375 
Q 32.859375 55.46875 32.34375 54.5625 
Q 31.84375 53.65625 31.453125 53.078125 
L 13.8125 27.09375 
Q 13.578125 26.703125 13.109375 26.0625 
Q 12.640625 25.4375 12.15625 24.78125 
Q 11.671875 24.125 11.171875 23.484375 
Q 10.6875 22.859375 10.40625 22.515625 
L 34.71875 22.515625 
z
" id="LiberationSans-34"/>
      </defs>
      <g style="fill:#262626;" transform="translate(345.745467 366.686875)scale(0.1 -0.1)">
       <use xlink:href="#LiberationSans-30"/>
       <use x="55.615234" xlink:href="#LiberationSans-2e"/>
       <use x="83.398438" xlink:href="#LiberationSans-30"/>
       <use x="139.013672" xlink:href="#LiberationSans-34"/>
      </g>
     </g>
    </g>
    <g id="xtick_6">
     <g id="line2d_11">
      <path clip-path="url(#p9a25c4534b)" d="M 421.272193 352.44 
L 421.272193 47.52 
" style="fill:none;stroke:#ffffff;stroke-linecap:round;"/>
     </g>
     <g id="line2d_12"/>
     <g id="text_6">
      <!-- 0.05 -->
      <defs>
       <path d="M 51.421875 22.40625 
Q 51.421875 17.234375 49.859375 12.9375 
Q 48.296875 8.640625 45.21875 5.53125 
Q 42.140625 2.4375 37.578125 0.71875 
Q 33.015625 -0.984375 27 -0.984375 
Q 21.578125 -0.984375 17.546875 0.28125 
Q 13.53125 1.5625 10.734375 3.78125 
Q 7.953125 6 6.3125 8.984375 
Q 4.6875 11.96875 4 15.375 
L 12.890625 16.40625 
Q 13.421875 14.453125 14.390625 12.625 
Q 15.375 10.796875 17.0625 9.34375 
Q 18.75 7.90625 21.21875 7.046875 
Q 23.6875 6.203125 27.203125 6.203125 
Q 30.609375 6.203125 33.390625 7.25 
Q 36.1875 8.296875 38.15625 10.34375 
Q 40.140625 12.40625 41.203125 15.375 
Q 42.28125 18.359375 42.28125 22.21875 
Q 42.28125 25.390625 41.25 28.046875 
Q 40.234375 30.71875 38.328125 32.640625 
Q 36.421875 34.578125 33.65625 35.640625 
Q 30.90625 36.71875 27.390625 36.71875 
Q 25.203125 36.71875 23.34375 36.328125 
Q 21.484375 35.9375 19.890625 35.25 
Q 18.3125 34.578125 17.015625 33.671875 
Q 15.71875 32.765625 14.59375 31.78125 
L 6 31.78125 
L 8.296875 68.796875 
L 47.40625 68.796875 
L 47.40625 61.328125 
L 16.3125 61.328125 
L 14.984375 39.5 
Q 17.328125 41.3125 20.84375 42.59375 
Q 24.359375 43.890625 29.203125 43.890625 
Q 34.328125 43.890625 38.421875 42.328125 
Q 42.53125 40.765625 45.40625 37.90625 
Q 48.296875 35.0625 49.859375 31.109375 
Q 51.421875 27.15625 51.421875 22.40625 
" id="LiberationSans-35"/>
      </defs>
      <g style="fill:#262626;" transform="translate(411.541724 366.686875)scale(0.1 -0.1)">
       <use xlink:href="#LiberationSans-30"/>
       <use x="55.615234" xlink:href="#LiberationSans-2e"/>
       <use x="83.398438" xlink:href="#LiberationSans-30"/>
       <use x="139.013672" xlink:href="#LiberationSans-35"/>
      </g>
     </g>
    </g>
    <g id="xtick_7">
     <g id="line2d_13">
      <path clip-path="url(#p9a25c4534b)" d="M 487.068449 352.44 
L 487.068449 47.52 
" style="fill:none;stroke:#ffffff;stroke-linecap:round;"/>
     </g>
     <g id="line2d_14"/>
     <g id="text_7">
      <!-- 0.06 -->
      <defs>
       <path d="M 51.21875 22.515625 
Q 51.21875 17.328125 49.78125 13 
Q 48.34375 8.6875 45.53125 5.578125 
Q 42.71875 2.484375 38.5625 0.75 
Q 34.421875 -0.984375 29 -0.984375 
Q 23 -0.984375 18.5 1.3125 
Q 14.015625 3.609375 11.03125 7.921875 
Q 8.0625 12.25 6.5625 18.53125 
Q 5.078125 24.8125 5.078125 32.8125 
Q 5.078125 42 6.765625 48.921875 
Q 8.453125 55.859375 11.625 60.5 
Q 14.796875 65.140625 19.359375 67.484375 
Q 23.921875 69.828125 29.6875 69.828125 
Q 33.203125 69.828125 36.28125 69.09375 
Q 39.359375 68.359375 41.875 66.71875 
Q 44.390625 65.09375 46.28125 62.40625 
Q 48.1875 59.71875 49.3125 55.8125 
L 40.921875 54.296875 
Q 39.546875 58.734375 36.546875 60.71875 
Q 33.546875 62.703125 29.59375 62.703125 
Q 25.984375 62.703125 23.046875 60.984375 
Q 20.125 59.28125 18.0625 55.875 
Q 16.015625 52.484375 14.90625 47.359375 
Q 13.8125 42.234375 13.8125 35.40625 
Q 16.21875 39.84375 20.5625 42.15625 
Q 24.90625 44.484375 30.515625 44.484375 
Q 35.203125 44.484375 39.015625 42.96875 
Q 42.828125 41.453125 45.53125 38.59375 
Q 48.25 35.75 49.734375 31.671875 
Q 51.21875 27.59375 51.21875 22.515625 
M 42.28125 22.125 
Q 42.28125 25.6875 41.40625 28.5625 
Q 40.53125 31.453125 38.765625 33.46875 
Q 37.015625 35.5 34.421875 36.59375 
Q 31.84375 37.703125 28.421875 37.703125 
Q 26.03125 37.703125 23.578125 36.984375 
Q 21.140625 36.28125 19.15625 34.6875 
Q 17.1875 33.109375 15.9375 30.515625 
Q 14.703125 27.9375 14.703125 24.21875 
Q 14.703125 20.40625 15.671875 17.109375 
Q 16.65625 13.8125 18.484375 11.375 
Q 20.3125 8.9375 22.890625 7.515625 
Q 25.484375 6.109375 28.71875 6.109375 
Q 31.890625 6.109375 34.40625 7.203125 
Q 36.921875 8.296875 38.671875 10.375 
Q 40.4375 12.453125 41.359375 15.421875 
Q 42.28125 18.40625 42.28125 22.125 
" id="LiberationSans-36"/>
      </defs>
      <g style="fill:#262626;" transform="translate(477.33798 366.686875)scale(0.1 -0.1)">
       <use xlink:href="#LiberationSans-30"/>
       <use x="55.615234" xlink:href="#LiberationSans-2e"/>
       <use x="83.398438" xlink:href="#LiberationSans-30"/>
       <use x="139.013672" xlink:href="#LiberationSans-36"/>
      </g>
     </g>
    </g>
   </g>
   <g id="matplotlib.axis_2">
    <g id="ytick_1">
     <g id="line2d_15">
      <path clip-path="url(#p9a25c4534b)" d="M 72 315.06301 
L 518.4 315.06301 
" style="fill:none;stroke:#ffffff;stroke-linecap:round;"/>
     </g>
     <g id="line2d_16"/>
     <g id="text_8">
      <!-- −0.4 -->
      <defs>
       <path d="M 4.9375 29.6875 
L 4.9375 36.8125 
L 53.515625 36.8125 
L 53.515625 29.6875 
z
" id="LiberationSans-2212"/>
      </defs>
      <g style="fill:#262626;" transform="translate(45.259375 318.686448)scale(0.1 -0.1)">
       <use xlink:href="#LiberationSans-2212"/>
       <use x="58.398438" xlink:href="#LiberationSans-30"/>
       <use x="114.013672" xlink:href="#LiberationSans-2e"/>
       <use x="141.796875" xlink:href="#LiberationSans-34"/>
      </g>
     </g>
    </g>
    <g id="ytick_2">
     <g id="line2d_17">
      <path clip-path="url(#p9a25c4534b)" d="M 72 275.042133 
L 518.4 275.042133 
" style="fill:none;stroke:#ffffff;stroke-linecap:round;"/>
     </g>
     <g id="line2d_18"/>
     <g id="text_9">
      <!-- −0.2 -->
      <g style="fill:#262626;" transform="translate(45.259375 278.66557)scale(0.1 -0.1)">
       <use xlink:href="#LiberationSans-2212"/>
       <use x="58.398438" xlink:href="#LiberationSans-30"/>
       <use x="114.013672" xlink:href="#LiberationSans-2e"/>
       <use x="141.796875" xlink:href="#LiberationSans-32"/>
      </g>
     </g>
    </g>
    <g id="ytick_3">
     <g id="line2d_19">
      <path clip-path="url(#p9a25c4534b)" d="M 72 235.021255 
L 518.4 235.021255 
" style="fill:none;stroke:#ffffff;stroke-linecap:round;"/>
     </g>
     <g id="line2d_20"/>
     <g id="text_10">
      <!-- 0.0 -->
      <g style="fill:#262626;" transform="translate(51.1 238.644693)scale(0.1 -0.1)">
       <use xlink:href="#LiberationSans-30"/>
       <use x="55.615234" xlink:href="#LiberationSans-2e"/>
       <use x="83.398438" xlink:href="#LiberationSans-30"/>
      </g>
     </g>
    </g>
    <g id="ytick_4">
     <g id="line2d_21">
      <path clip-path="url(#p9a25c4534b)" d="M 72 195.000378 
L 518.4 195.000378 
" style="fill:none;stroke:#ffffff;stroke-linecap:round;"/>
     </g>
     <g id="line2d_22"/>
     <g id="text_11">
      <!-- 0.2 -->
      <g style="fill:#262626;" transform="translate(51.1 198.623815)scale(0.1 -0.1)">
       <use xlink:href="#LiberationSans-30"/>
       <use x="55.615234" xlink:href="#LiberationSans-2e"/>
       <use x="83.398438" xlink:href="#LiberationSans-32"/>
      </g>
     </g>
    </g>
    <g id="ytick_5">
     <g id="line2d_23">
      <path clip-path="url(#p9a25c4534b)" d="M 72 154.9795 
L 518.4 154.9795 
" style="fill:none;stroke:#ffffff;stroke-linecap:round;"/>
     </g>
     <g id="line2d_24"/>
     <g id="text_12">
      <!-- 0.4 -->
      <g style="fill:#262626;" transform="translate(51.1 158.602938)scale(0.1 -0.1)">
       <use xlink:href="#LiberationSans-30"/>
       <use x="55.615234" xlink:href="#LiberationSans-2e"/>
       <use x="83.398438" xlink:href="#LiberationSans-34"/>
      </g>
     </g>
    </g>
    <g id="ytick_6">
     <g id="line2d_25">
      <path clip-path="url(#p9a25c4534b)" d="M 72 114.958623 
L 518.4 114.958623 
" style="fill:none;stroke:#ffffff;stroke-linecap:round;"/>
     </g>
     <g id="line2d_26"/>
     <g id="text_13">
      <!-- 0.6 -->
      <g style="fill:#262626;" transform="translate(51.1 118.582061)scale(0.1 -0.1)">
       <use xlink:href="#LiberationSans-30"/>
       <use x="55.615234" xlink:href="#LiberationSans-2e"/>
       <use x="83.398438" xlink:href="#LiberationSans-36"/>
      </g>
     </g>
    </g>
    <g id="ytick_7">
     <g id="line2d_27">
      <path clip-path="url(#p9a25c4534b)" d="M 72 74.937746 
L 518.4 74.937746 
" style="fill:none;stroke:#ffffff;stroke-linecap:round;"/>
     </g>
     <g id="line2d_28"/>
     <g id="text_14">
      <!-- 0.8 -->
      <defs>
       <path d="M 51.265625 19.1875 
Q 51.265625 14.796875 49.875 11.109375 
Q 48.484375 7.421875 45.625 4.734375 
Q 42.78125 2.046875 38.328125 0.53125 
Q 33.890625 -0.984375 27.828125 -0.984375 
Q 21.78125 -0.984375 17.359375 0.53125 
Q 12.9375 2.046875 10.03125 4.703125 
Q 7.125 7.375 5.734375 11.0625 
Q 4.34375 14.75 4.34375 19.09375 
Q 4.34375 22.859375 5.484375 25.78125 
Q 6.640625 28.71875 8.5625 30.828125 
Q 10.5 32.953125 12.96875 34.25 
Q 15.4375 35.546875 18.0625 35.984375 
L 18.0625 36.1875 
Q 15.1875 36.859375 12.90625 38.375 
Q 10.640625 39.890625 9.09375 42.015625 
Q 7.5625 44.140625 6.75 46.71875 
Q 5.953125 49.3125 5.953125 52.203125 
Q 5.953125 55.8125 7.34375 59 
Q 8.734375 62.203125 11.46875 64.625 
Q 14.203125 67.046875 18.25 68.4375 
Q 22.3125 69.828125 27.640625 69.828125 
Q 33.25 69.828125 37.375 68.40625 
Q 41.5 67 44.203125 64.578125 
Q 46.921875 62.15625 48.234375 58.9375 
Q 49.5625 55.71875 49.5625 52.09375 
Q 49.5625 49.265625 48.75 46.671875 
Q 47.953125 44.09375 46.40625 41.96875 
Q 44.875 39.84375 42.59375 38.34375 
Q 40.328125 36.859375 37.359375 36.28125 
L 37.359375 36.078125 
Q 40.328125 35.59375 42.859375 34.296875 
Q 45.40625 33.015625 47.265625 30.890625 
Q 49.125 28.765625 50.1875 25.828125 
Q 51.265625 22.90625 51.265625 19.1875 
M 40.4375 51.609375 
Q 40.4375 54.203125 39.765625 56.34375 
Q 39.109375 58.5 37.59375 60.03125 
Q 36.078125 61.578125 33.640625 62.421875 
Q 31.203125 63.28125 27.640625 63.28125 
Q 24.171875 63.28125 21.78125 62.421875 
Q 19.390625 61.578125 17.84375 60.03125 
Q 16.3125 58.5 15.625 56.34375 
Q 14.9375 54.203125 14.9375 51.609375 
Q 14.9375 49.5625 15.46875 47.40625 
Q 16.015625 45.265625 17.421875 43.5 
Q 18.84375 41.75 21.328125 40.625 
Q 23.828125 39.5 27.734375 39.5 
Q 31.890625 39.5 34.40625 40.625 
Q 36.921875 41.75 38.25 43.5 
Q 39.59375 45.265625 40.015625 47.40625 
Q 40.4375 49.5625 40.4375 51.609375 
M 42.140625 20.015625 
Q 42.140625 22.515625 41.453125 24.828125 
Q 40.765625 27.15625 39.109375 28.9375 
Q 37.453125 30.71875 34.640625 31.8125 
Q 31.84375 32.90625 27.640625 32.90625 
Q 23.78125 32.90625 21.0625 31.8125 
Q 18.359375 30.71875 16.671875 28.90625 
Q 14.984375 27.09375 14.203125 24.71875 
Q 13.421875 22.359375 13.421875 19.828125 
Q 13.421875 16.65625 14.203125 14.03125 
Q 14.984375 11.421875 16.6875 9.546875 
Q 18.40625 7.671875 21.1875 6.640625 
Q 23.96875 5.609375 27.9375 5.609375 
Q 31.9375 5.609375 34.671875 6.640625 
Q 37.40625 7.671875 39.0625 9.546875 
Q 40.71875 11.421875 41.421875 14.078125 
Q 42.140625 16.75 42.140625 20.015625 
" id="LiberationSans-38"/>
      </defs>
      <g style="fill:#262626;" transform="translate(51.1 78.561183)scale(0.1 -0.1)">
       <use xlink:href="#LiberationSans-30"/>
       <use x="55.615234" xlink:href="#LiberationSans-2e"/>
       <use x="83.398438" xlink:href="#LiberationSans-38"/>
      </g>
     </g>
    </g>
   </g>
   <g id="line2d_29">
    <path clip-path="url(#p9a25c4534b)" d="M 92.290909 192.727538 
L 92.887701 232.18305 
L 93.186096 243.058056 
L 93.484492 246.309017 
L 93.63369 245.444257 
L 93.932086 240.508032 
L 94.379679 232.364942 
L 94.528877 231.416724 
L 94.678075 232.01447 
L 94.827273 234.403098 
L 95.125668 244.864377 
L 95.573262 272.262239 
L 96.319251 318.993786 
L 96.617647 325.606246 
L 96.766845 324.865127 
L 96.916043 321.323595 
L 97.214439 306.450697 
L 97.81123 257.117795 
L 98.408021 212.926682 
L 98.706417 202.823055 
L 98.855615 201.502803 
L 99.004813 202.561226 
L 99.303209 210.663971 
L 100.347594 251.54094 
L 100.496791 252.98431 
L 100.645989 252.680222 
L 100.944385 247.397172 
L 101.839572 222.498539 
L 101.98877 222.107511 
L 102.137968 223.819058 
L 102.436364 233.992031 
L 102.883957 263.98437 
L 103.779144 330.641098 
L 104.07754 338.58 
L 104.226738 338.294393 
L 104.375936 335.153534 
L 104.674332 321.160453 
L 105.271123 274.918251 
L 105.867914 234.674242 
L 106.16631 225.407743 
L 106.315508 223.878758 
L 106.464706 224.192388 
L 106.763102 228.946758 
L 107.359893 241.554213 
L 107.509091 242.535235 
L 107.658289 241.922359 
L 107.807487 239.546721 
L 108.105882 229.525322 
L 108.702674 195.897979 
L 109.150267 174.043915 
L 109.448663 168.759171 
L 109.597861 169.898442 
L 109.896257 180.063208 
L 110.34385 211.560259 
L 111.239037 281.191413 
L 111.537433 290.240814 
L 111.686631 290.769023 
L 111.835829 288.702318 
L 112.134225 277.851294 
L 113.327807 216.21918 
L 113.626203 213.219831 
L 113.775401 214.194544 
L 114.073797 219.581193 
L 114.52139 229.283215 
L 114.670588 230.935098 
L 114.819786 231.058708 
L 114.968984 229.343587 
L 115.26738 219.789002 
L 115.714973 191.583191 
L 116.61016 127.973629 
L 116.908556 120.56436 
L 117.057754 121.080061 
L 117.206952 124.458762 
L 117.505348 139.035304 
L 118.102139 187.143661 
L 118.69893 229.455339 
L 118.997326 239.101781 
L 119.146524 240.499017 
L 119.295722 239.786858 
L 119.594118 233.327681 
L 120.340107 210.162902 
L 120.489305 208.167878 
L 120.638503 207.822595 
L 120.787701 209.220667 
L 121.086096 216.920205 
L 122.130481 255.864139 
L 122.279679 256.458156 
L 122.428877 254.681503 
L 122.727273 243.77936 
L 123.174866 212.020033 
L 124.070053 142.98396 
L 124.368449 134.606325 
L 124.517647 134.605942 
L 124.666845 137.36327 
L 124.965241 150.160634 
L 126.308021 230.161394 
L 126.457219 232.487894 
L 126.606417 233.014097 
L 126.755615 232.000167 
L 127.054011 226.915212 
L 127.501604 218.974518 
L 127.650802 218.195364 
L 127.8 218.998194 
L 128.098396 226.145668 
L 128.545989 250.085393 
L 129.441176 307.119323 
L 129.739572 313.418383 
L 129.88877 312.50688 
L 130.187166 302.449325 
L 130.634759 270.862871 
L 131.529947 201.808402 
L 131.828342 192.617426 
L 131.97754 191.762298 
L 132.126738 193.27137 
L 132.425134 202.180328 
L 133.469519 244.430548 
L 133.618717 245.953733 
L 133.767914 245.736248 
L 134.06631 240.700322 
L 134.961497 217.677191 
L 135.110695 217.755631 
L 135.259893 219.956913 
L 135.558289 231.111084 
L 136.005882 262.358081 
L 136.90107 329.928182 
L 137.199465 337.782223 
L 137.348663 337.436015 
L 137.497861 334.24366 
L 137.796257 320.234123 
L 138.542246 262.893304 
L 138.98984 235.778308 
L 139.288235 227.358893 
L 139.437433 226.234776 
L 139.586631 226.922442 
L 139.885027 232.29 
L 140.481818 245.471538 
L 140.631016 246.478774 
L 140.780214 245.864411 
L 140.929412 243.472994 
L 141.227807 233.433876 
L 142.42139 175.589907 
L 142.570588 174.494306 
L 142.719786 175.996161 
L 143.018182 186.840351 
L 143.465775 219.023494 
L 144.360963 288.172642 
L 144.659358 296.652807 
L 144.808556 296.87944 
L 144.957754 294.520663 
L 145.25615 283.168517 
L 146.449733 221.287358 
L 146.59893 218.975767 
L 146.748128 218.418384 
L 146.897326 219.418061 
L 147.195722 224.718813 
L 147.643316 233.875443 
L 147.792513 235.239214 
L 147.941711 235.033909 
L 148.090909 232.96088 
L 148.389305 222.659598 
L 148.836898 193.47452 
L 149.732086 129.275562 
L 150.030481 122.015121 
L 150.179679 122.617609 
L 150.328877 126.070161 
L 150.627273 140.694997 
L 151.373262 200.443013 
L 151.820856 228.929373 
L 152.119251 237.592946 
L 152.268449 238.502624 
L 152.417647 237.324905 
L 152.716043 230.04753 
L 153.462032 205.705887 
L 153.61123 203.596364 
L 153.760428 203.15274 
L 153.909626 204.454753 
L 154.208021 211.91366 
L 155.252406 248.64232 
L 155.401604 248.754418 
L 155.550802 246.483746 
L 155.849198 234.618873 
L 156.296791 201.699681 
L 157.042781 140.082058 
L 157.341176 126.632883 
L 157.490374 123.926864 
L 157.639572 124.049525 
L 157.78877 126.920451 
L 158.087166 139.859955 
L 159.429947 218.221138 
L 159.579144 220.25896 
L 159.728342 220.522314 
L 159.87754 219.283675 
L 160.325134 210.720871 
L 160.623529 205.934856 
L 160.772727 205.247432 
L 160.921925 206.176761 
L 161.220321 213.628941 
L 161.667914 237.942342 
L 162.563102 294.520316 
L 162.861497 300.348102 
L 163.010695 299.190757 
L 163.309091 288.700008 
L 163.756684 256.822367 
L 164.502674 196.824649 
L 164.80107 183.575079 
L 164.950267 180.62556 
L 165.099465 180.174896 
L 165.248663 182.07397 
L 165.547059 191.668961 
L 166.591444 234.923874 
L 166.740642 236.485442 
L 166.88984 236.316442 
L 167.039037 234.553021 
L 167.337433 227.417135 
L 167.934225 211.533259 
L 168.083422 210.170877 
L 168.23262 210.699933 
L 168.381818 213.372785 
L 168.680214 225.473548 
L 169.127807 257.928933 
L 169.873797 318.541902 
L 170.172193 331.656113 
L 170.32139 334.15075 
L 170.470588 333.755331 
L 170.619786 330.526668 
L 170.918182 316.541798 
L 172.260963 229.56999 
L 172.41016 226.875448 
L 172.559358 226.193911 
L 172.708556 227.293945 
L 173.006952 233.354192 
L 173.603743 247.289287 
L 173.752941 248.373725 
L 173.902139 247.811762 
L 174.051337 245.461435 
L 174.349733 235.527127 
L 175.543316 179.718697 
L 175.692513 179.052808 
L 175.841711 180.989504 
L 176.140107 192.65554 
L 176.587701 225.734492 
L 177.33369 286.986938 
L 177.632086 300.20049 
L 177.781283 302.90199 
L 177.930481 302.908176 
L 178.079679 300.340165 
L 178.378075 288.656648 
L 179.571658 227.20117 
L 179.720856 225.041792 
L 179.870053 224.616644 
L 180.019251 225.715525 
L 180.317647 231.074176 
L 180.765241 239.893779 
L 180.914439 241.03821 
L 181.063636 240.572881 
L 181.212834 238.21113 
L 181.51123 227.302711 
L 181.958824 197.349223 
L 182.854011 132.955848 
L 183.152406 125.956257 
L 183.301604 126.696618 
L 183.6 136.491612 
L 184.047594 167.152459 
L 184.793583 224.088894 
L 185.091979 236.359542 
L 185.241176 239.069509 
L 185.390374 239.518042 
L 185.539572 237.900469 
L 185.837968 229.853082 
L 186.583957 204.419132 
L 186.733155 202.203042 
L 186.882353 201.665464 
L 187.031551 202.872194 
L 187.329947 210.081452 
L 188.374332 244.480875 
L 188.523529 244.089042 
L 188.672727 241.301762 
L 188.971123 228.427538 
L 189.418717 194.273509 
L 190.164706 131.870432 
L 190.463102 118.490523 
L 190.612299 115.854868 
L 190.761497 116.050803 
L 190.910695 118.982243 
L 191.209091 131.948678 
L 192.551872 208.077251 
L 192.70107 209.759507 
L 192.850267 209.693317 
L 193.148663 205.559049 
L 193.745455 194.14867 
L 193.894652 193.480416 
L 194.04385 194.461749 
L 194.342246 202.063443 
L 194.78984 226.50331 
L 195.685027 282.110034 
L 195.983422 287.300666 
L 196.13262 285.817044 
L 196.431016 274.737622 
L 196.87861 242.347311 
L 197.624599 182.893152 
L 197.922995 170.242238 
L 198.072193 167.622794 
L 198.22139 167.501968 
L 198.370588 169.715889 
L 198.668984 179.846175 
L 199.564171 220.347805 
L 199.862567 225.154847 
L 200.011765 224.976629 
L 200.31016 220.194562 
L 201.05615 201.352486 
L 201.205348 200.364287 
L 201.354545 201.302121 
L 201.652941 209.775877 
L 201.951337 226.998204 
L 203.294118 325.275748 
L 203.443316 327.706908 
L 203.592513 327.248798 
L 203.741711 323.974136 
L 204.040107 310.005291 
L 205.382888 225.855955 
L 205.532086 223.634295 
L 205.681283 223.409453 
L 205.830481 224.936854 
L 206.128877 231.723525 
L 206.725668 246.504227 
L 206.874866 247.695931 
L 207.024064 247.219719 
L 207.173262 244.947213 
L 207.471658 235.20117 
L 208.665241 181.854878 
L 208.814439 181.676267 
L 208.963636 184.105314 
L 209.262032 196.707807 
L 209.709626 230.855065 
L 210.455615 292.527472 
L 210.754011 305.521493 
L 210.903209 308.079418 
L 211.052406 307.940388 
L 211.201604 305.240728 
L 211.5 293.386985 
L 212.693583 233.022881 
L 212.842781 231.095531 
L 212.991979 230.881188 
L 213.141176 232.1567 
L 213.58877 241.093401 
L 213.887166 246.434368 
L 214.036364 247.435578 
L 214.185561 246.787127 
L 214.334759 244.214512 
L 214.633155 232.85776 
L 215.080749 202.380086 
L 215.826738 145.450559 
L 216.125134 133.591837 
L 216.274332 131.673386 
L 216.423529 132.61912 
L 216.721925 142.752024 
L 217.169519 173.536775 
L 217.915508 229.326754 
L 218.213904 240.79913 
L 218.363102 243.089934 
L 218.512299 243.126219 
L 218.661497 241.117252 
L 218.959893 232.394287 
L 219.705882 206.071598 
L 220.004278 203.178401 
L 220.153476 204.315155 
L 220.451872 211.315148 
L 221.347059 242.124969 
L 221.496257 243.446624 
L 221.645455 242.55394 
L 221.94385 233.491867 
L 222.391444 203.178484 
L 223.435829 118.783069 
L 223.734225 110.815863 
L 223.883422 111.057137 
L 224.03262 114.017531 
L 224.331016 126.937754 
L 225.524599 197.240244 
L 225.822995 201.687929 
L 225.972193 201.241694 
L 226.270588 196.469631 
L 226.86738 184.41566 
L 227.016578 183.706095 
L 227.165775 184.676396 
L 227.464171 192.293495 
L 227.911765 216.639679 
L 228.806952 270.797579 
L 228.95615 274.314121 
L 229.105348 275.192738 
L 229.254545 273.305193 
L 229.552941 261.485167 
L 230.000535 228.360778 
L 230.746524 169.079134 
L 231.04492 156.870895 
L 231.194118 154.501365 
L 231.343316 154.628865 
L 231.492513 157.074965 
L 231.790909 167.572945 
L 232.686096 208.11855 
L 232.984492 212.732272 
L 233.13369 212.473237 
L 233.432086 207.627981 
L 234.178075 189.557351 
L 234.327273 188.882668 
L 234.476471 190.168703 
L 234.774866 199.387928 
L 235.22246 228.958982 
L 236.266845 311.284597 
L 236.565241 318.756659 
L 236.714439 318.198862 
L 236.863636 314.844772 
L 237.162032 300.835204 
L 238.504813 219.357463 
L 238.654011 217.596895 
L 238.803209 217.817701 
L 239.101604 223.061158 
L 239.847594 242.879585 
L 239.996791 244.184544 
L 240.145989 243.803561 
L 240.295187 241.621936 
L 240.593583 232.10092 
L 241.787166 181.466714 
L 241.936364 181.812269 
L 242.085561 184.770884 
L 242.383957 198.38511 
L 242.831551 233.717656 
L 243.57754 296.036114 
L 243.875936 308.919476 
L 244.025134 311.392925 
L 244.174332 311.170848 
L 244.323529 308.404623 
L 244.621925 296.518484 
L 245.66631 241.257824 
L 245.964706 236.220028 
L 246.113904 236.289785 
L 246.412299 240.444407 
L 247.009091 252.557973 
L 247.158289 253.491721 
L 247.307487 252.737393 
L 247.456684 250.032803 
L 247.75508 238.390622 
L 248.202674 207.644043 
L 248.948663 151.26003 
L 249.247059 139.930653 
L 249.396257 138.300209 
L 249.545455 139.52867 
L 249.84385 150.147563 
L 250.291444 181.264142 
L 251.037433 236.236637 
L 251.335829 247.042805 
L 251.485027 248.981028 
L 251.634225 248.671876 
L 251.93262 242.32491 
L 252.977005 207.85465 
L 253.126203 207.237213 
L 253.275401 208.351302 
L 253.573797 215.227365 
L 254.468984 244.441561 
L 254.618182 245.318311 
L 254.76738 243.952469 
L 255.065775 233.918176 
L 255.513369 202.310023 
L 256.557754 116.847348 
L 256.85615 108.961919 
L 257.005348 109.24505 
L 257.154545 112.227164 
L 257.452941 125.076293 
L 258.646524 192.954748 
L 258.94492 196.522702 
L 259.094118 195.667235 
L 259.392513 190.195985 
L 259.989305 177.354577 
L 260.138503 176.561418 
L 260.287701 177.475368 
L 260.586096 185.007715 
L 261.03369 209.087274 
L 261.779679 255.946717 
L 262.078075 264.45728 
L 262.227273 264.863114 
L 262.376471 262.504311 
L 262.674866 249.810477 
L 263.12246 215.753734 
L 263.868449 156.298283 
L 264.166845 144.381783 
L 264.316043 142.183514 
L 264.465241 142.478673 
L 264.614439 145.074473 
L 264.912834 155.770995 
L 265.808021 195.849272 
L 266.106417 200.107825 
L 266.255615 199.689523 
L 266.554011 194.628807 
L 267.3 176.964633 
L 267.449198 176.530717 
L 267.598396 178.091681 
L 267.896791 187.907842 
L 268.344385 218.269305 
L 269.38877 300.707994 
L 269.687166 307.860275 
L 269.836364 307.145914 
L 270.134759 297.651547 
L 270.582353 268.873737 
L 271.328342 219.333414 
L 271.626738 210.347588 
L 271.775936 209.012187 
L 271.925134 209.643294 
L 272.223529 215.61439 
L 272.969519 236.467074 
L 273.118717 237.866386 
L 273.267914 237.565209 
L 273.417112 235.462622 
L 273.715508 226.153617 
L 274.759893 179.88374 
L 274.909091 178.284402 
L 275.058289 179.166908 
L 275.356684 188.775523 
L 275.804278 220.368134 
L 276.699465 296.9725 
L 276.997861 309.814077 
L 277.147059 312.242774 
L 277.296257 311.980867 
L 277.445455 309.194632 
L 277.74385 297.378167 
L 278.788235 243.901805 
L 279.086631 239.604966 
L 279.235829 240.019574 
L 279.534225 244.750031 
L 280.131016 257.379779 
L 280.280214 258.313806 
L 280.429412 257.523491 
L 280.57861 254.759126 
L 280.877005 242.983003 
L 281.324599 212.21051 
L 282.070588 156.79612 
L 282.368984 146.162537 
L 282.518182 144.901317 
L 282.66738 146.492187 
L 282.965775 157.751843 
L 283.413369 189.423411 
L 284.159358 243.946562 
L 284.457754 254.238843 
L 284.606952 255.902113 
L 284.75615 255.325974 
L 285.054545 248.520646 
L 286.09893 213.723457 
L 286.248128 213.158646 
L 286.397326 214.314723 
L 286.695722 221.188335 
L 287.590909 249.125576 
L 287.740107 249.607152 
L 287.889305 247.817625 
L 288.187701 236.909628 
L 288.635294 204.152185 
L 289.530481 125.826925 
L 289.828877 112.627739 
L 289.978075 110.156204 
L 290.127273 110.502391 
L 290.276471 113.523765 
L 290.574866 126.326699 
L 291.768449 191.794335 
L 291.917647 194.071274 
L 292.066845 194.475467 
L 292.216043 193.205971 
L 292.514439 187.022284 
L 293.11123 173.342775 
L 293.260428 172.446301 
L 293.409626 173.280825 
L 293.708021 180.671785 
L 294.155615 204.374549 
L 294.901604 249.586719 
L 295.2 257.108419 
L 295.349198 256.991019 
L 295.498396 254.110475 
L 295.796791 240.441766 
L 296.244385 205.298375 
L 296.990374 145.383924 
L 297.28877 133.628291 
L 297.437968 131.531729 
L 297.587166 131.922356 
L 297.885561 139.209614 
L 299.079144 187.192545 
L 299.228342 188.204759 
L 299.37754 187.549604 
L 299.675936 182.120807 
L 300.421925 164.48485 
L 300.571123 164.214196 
L 300.720321 165.97138 
L 301.018717 176.223069 
L 301.46631 207.124025 
L 302.361497 281.693919 
L 302.659893 293.852485 
L 302.809091 295.77752 
L 302.958289 294.835411 
L 303.256684 284.978207 
L 303.704278 256.070123 
L 304.450267 207.621197 
L 304.748663 199.358718 
L 304.897861 198.391802 
L 305.047059 199.376745 
L 305.345455 205.964292 
L 306.091444 227.601115 
L 306.240642 229.052588 
L 306.38984 228.792282 
L 306.539037 226.733174 
L 306.837433 217.575128 
L 307.881818 173.422014 
L 308.031016 172.325366 
L 308.180214 173.7324 
L 308.47861 184.393453 
L 308.926203 217.344769 
L 309.82139 295.056848 
L 310.119786 307.878338 
L 310.268984 310.27877 
L 310.418182 309.99725 
L 310.56738 307.21481 
L 310.865775 295.525362 
L 311.91016 244.097083 
L 312.208556 240.624094 
L 312.357754 241.425682 
L 312.65615 246.818384 
L 313.252941 260.153982 
L 313.402139 261.141129 
L 313.551337 260.370391 
L 313.700535 257.604694 
L 313.99893 245.820324 
L 314.446524 215.230493 
L 315.192513 161.164025 
L 315.490909 151.37858 
L 315.640107 150.561703 
L 315.789305 152.589222 
L 316.087701 164.635556 
L 316.535294 197.077215 
L 317.281283 251.519955 
L 317.579679 261.455864 
L 317.728877 262.92541 
L 317.878075 262.164989 
L 318.176471 255.070054 
L 319.220856 220.53019 
L 319.370053 220.095711 
L 319.519251 221.369421 
L 319.817647 228.385887 
L 320.712834 255.450776 
L 320.862032 255.603236 
L 321.01123 253.456349 
L 321.309626 241.808368 
L 321.757219 208.103312 
L 322.652406 129.328256 
L 322.950802 116.33837 
L 323.1 113.985447 
L 323.249198 114.438409 
L 323.398396 117.539396 
L 323.696791 130.367504 
L 324.741176 189.842699 
L 325.039572 195.482637 
L 325.18877 195.469889 
L 325.337968 193.806689 
L 325.785561 182.665471 
L 326.233155 172.479103 
L 326.382353 171.484323 
L 326.531551 172.240963 
L 326.829947 179.48276 
L 327.27754 202.770798 
L 328.023529 246.221066 
L 328.321925 252.698813 
L 328.471123 252.029841 
L 328.620321 248.598855 
L 328.918717 233.896677 
L 329.515508 183.812964 
L 330.112299 137.005918 
L 330.410695 125.313403 
L 330.559893 123.264786 
L 330.709091 123.693973 
L 331.007487 130.976528 
L 332.20107 177.201661 
L 332.350267 177.889668 
L 332.499465 176.928587 
L 332.797861 170.99413 
L 333.394652 154.963363 
L 333.54385 153.033715 
L 333.693048 152.851837 
L 333.842246 154.728858 
L 334.140642 165.257285 
L 334.588235 196.445772 
L 335.483422 270.237672 
L 335.781818 281.787017 
L 335.931016 283.393619 
L 336.080214 282.145237 
L 336.37861 271.77388 
L 336.826203 242.519849 
L 337.572193 194.812216 
L 337.870588 187.130465 
L 338.019786 186.45996 
L 338.168984 187.726371 
L 338.46738 194.785916 
L 339.213369 216.865827 
L 339.362567 218.307834 
L 339.511765 218.02963 
L 339.660963 215.958209 
L 339.959358 206.848435 
L 341.003743 164.522554 
L 341.152941 163.891878 
L 341.302139 165.787111 
L 341.600535 177.4289 
L 342.048128 211.635539 
L 342.943316 290.29619 
L 343.241711 303.069531 
L 343.390909 305.433338 
L 343.540107 305.127615 
L 343.689305 302.348009 
L 343.987701 290.793559 
L 345.032086 241.507826 
L 345.181283 239.314705 
L 345.330481 238.894921 
L 345.479679 240.102708 
L 345.778075 246.199201 
L 346.374866 260.344994 
L 346.524064 261.41778 
L 346.673262 260.70228 
L 346.82246 257.974218 
L 347.120856 246.269635 
L 347.568449 216.017855 
L 348.314439 163.598216 
L 348.612834 154.785033 
L 348.762032 154.474337 
L 348.91123 157.000041 
L 349.209626 169.955377 
L 349.806417 215.994971 
L 350.403209 258.045276 
L 350.701604 267.771991 
L 350.850802 269.124862 
L 351 268.259331 
L 351.298396 261.038411 
L 352.193583 229.264906 
L 352.342781 227.342234 
L 352.491979 227.118692 
L 352.641176 228.589254 
L 352.939572 235.903064 
L 353.685561 260.590315 
L 353.834759 262.544215 
L 353.983957 262.4433 
L 354.133155 260.015696 
L 354.431551 247.783934 
L 354.879144 213.371 
L 355.774332 134.610749 
L 356.072727 121.968562 
L 356.221925 119.799107 
L 356.371123 120.42073 
L 356.669519 129.205117 
L 357.117112 154.93695 
L 357.713904 189.347011 
L 358.012299 198.06557 
L 358.161497 199.53364 
L 358.310695 199.14834 
L 358.609091 193.836338 
L 359.35508 174.573696 
L 359.504278 173.510122 
L 359.653476 174.21502 
L 359.951872 181.349337 
L 360.399465 204.259424 
L 361.145455 245.958274 
L 361.44385 251.3868 
L 361.593048 250.162685 
L 361.891444 239.520057 
L 362.339037 206.587823 
L 363.234225 131.605377 
L 363.53262 119.921184 
L 363.681818 117.887701 
L 363.831016 118.319129 
L 364.129412 125.514711 
L 365.322995 169.577913 
L 365.472193 169.888192 
L 365.62139 168.567463 
L 365.919786 162.018768 
L 366.516578 145.388424 
L 366.665775 143.443119 
L 366.814973 143.286023 
L 366.964171 145.216357 
L 367.262567 155.880548 
L 367.71016 187.126651 
L 368.605348 259.646792 
L 368.903743 270.424453 
L 369.052941 271.633157 
L 369.202139 270.000335 
L 369.500535 258.962146 
L 370.097326 217.895763 
L 370.694118 181.796467 
L 370.992513 174.537614 
L 371.141711 174.082889 
L 371.290909 175.549232 
L 371.589305 182.916202 
L 372.335294 205.037954 
L 372.484492 206.395176 
L 372.63369 206.026072 
L 372.782888 203.871768 
L 373.081283 194.676394 
L 374.125668 153.762528 
L 374.274866 153.541222 
L 374.424064 155.868019 
L 374.72246 168.377058 
L 375.170053 203.670416 
L 376.065241 282.982976 
L 376.363636 295.632583 
L 376.512834 297.927371 
L 376.662032 297.568644 
L 376.81123 294.766535 
L 377.109626 283.30585 
L 378.004813 239.637245 
L 378.303209 234.314612 
L 378.452406 234.314931 
L 378.601604 235.923129 
L 378.9 242.715315 
L 379.496791 257.678416 
L 379.645989 258.845577 
L 379.795187 258.197426 
L 379.944385 255.522659 
L 380.242781 243.940042 
L 380.690374 214.114904 
L 381.436364 163.535671 
L 381.734759 155.779229 
L 381.883957 156.017352 
L 382.033155 159.084026 
L 382.331551 173.034614 
L 382.928342 220.389704 
L 383.525134 262.723267 
L 383.823529 272.363119 
L 383.972727 273.664819 
L 384.121925 272.762392 
L 384.420321 265.55894 
L 385.315508 234.876622 
L 385.464706 233.241055 
L 385.613904 233.304179 
L 385.763102 235.046603 
L 386.061497 242.805881 
L 386.807487 267.652473 
L 386.956684 269.469768 
L 387.105882 269.193332 
L 387.25508 266.564461 
L 387.553476 253.912745 
L 388.00107 219.047953 
L 388.896257 140.816141 
L 389.194652 128.681151 
L 389.34385 126.771467 
L 389.493048 127.635686 
L 389.791444 136.794779 
L 390.388235 172.278296 
L 390.835829 196.339966 
L 391.134225 204.450604 
L 391.283422 205.600124 
L 391.43262 204.905768 
L 391.731016 199.053543 
L 392.477005 179.165659 
L 392.626203 178.084704 
L 392.775401 178.786198 
L 393.073797 185.899972 
L 393.52139 208.53882 
L 394.26738 248.618038 
L 394.565775 253.041832 
L 394.714973 251.284045 
L 395.013369 239.590795 
L 395.460963 205.346381 
L 396.35615 129.351477 
L 396.654545 117.669418 
L 396.803743 115.642325 
L 396.952941 116.06358 
L 397.251337 123.137194 
L 398.295722 163.204265 
L 398.44492 164.814208 
L 398.594118 164.71435 
L 398.743316 163.000972 
L 399.041711 155.769649 
L 399.638503 138.385403 
L 399.787701 136.380239 
L 399.936898 136.20087 
L 400.086096 138.134413 
L 400.384492 148.82467 
L 400.832086 179.941454 
L 401.727273 250.767482 
L 402.025668 260.630203 
L 402.174866 261.370217 
L 402.324064 259.282822 
L 402.62246 247.439201 
L 403.219251 205.476879 
L 403.816043 169.498659 
L 404.114439 162.50506 
L 404.263636 162.184578 
L 404.412834 163.767753 
L 404.71123 171.272528 
L 405.457219 193.011242 
L 405.606417 194.201752 
L 405.755615 193.6615 
L 406.054011 187.351868 
L 406.501604 168.227832 
L 407.098396 144.146258 
L 407.247594 141.914031 
L 407.396791 142.031293 
L 407.545989 144.718251 
L 407.844385 157.949903 
L 408.291979 194.110928 
L 409.187166 273.666164 
L 409.485561 286.075792 
L 409.634759 288.248273 
L 409.783957 287.786479 
L 410.082353 279.987359 
L 410.679144 249.784677 
L 411.126738 231.22506 
L 411.425134 226.681595 
L 411.574332 227.070807 
L 411.872727 232.318402 
L 412.618717 252.166829 
L 412.767914 253.412168 
L 412.917112 252.818572 
L 413.06631 250.187889 
L 413.364706 238.719813 
L 413.812299 209.335976 
L 414.558289 160.6696 
L 414.856684 154.007109 
L 415.005882 154.813403 
L 415.304278 164.743183 
L 415.751872 196.153083 
L 416.647059 264.943388 
L 416.945455 274.581788 
L 417.094652 275.880047 
L 417.24385 274.99162 
L 417.542246 267.915852 
L 418.437433 238.695041 
L 418.586631 237.410194 
L 418.735829 237.823517 
L 419.034225 243.470888 
L 420.07861 275.317783 
L 420.227807 274.938041 
L 420.377005 272.182385 
L 420.675401 259.266604 
L 421.122995 224.198953 
L 422.018182 147.012325 
L 422.316578 135.550202 
L 422.465775 133.980667 
L 422.614973 135.166161 
L 422.913369 144.852636 
L 423.51016 180.66421 
L 423.957754 204.314546 
L 424.25615 211.967163 
L 424.405348 212.874211 
L 424.554545 211.947459 
L 424.852941 205.709016 
L 425.59893 185.566931 
L 425.748128 184.53718 
L 425.897326 185.301247 
L 426.195722 192.518071 
L 426.643316 215.050775 
L 427.240107 248.495981 
L 427.538503 256.774912 
L 427.687701 257.256422 
L 427.836898 255.009358 
L 428.135294 242.353736 
L 428.582888 206.925486 
L 429.478075 130.124543 
L 429.776471 118.487971 
L 429.925668 116.483377 
L 430.074866 116.906937 
L 430.373262 123.873462 
L 431.417647 161.949276 
L 431.566845 163.138432 
L 431.716043 162.620329 
L 432.014439 157.036283 
L 432.909626 132.282569 
L 433.058824 132.055613 
L 433.208021 133.963647 
L 433.506417 144.611953 
L 433.954011 175.472206 
L 434.849198 244.290334 
L 435.147594 253.127399 
L 435.296791 253.343429 
L 435.445989 250.746278 
L 435.744385 237.986812 
L 436.341176 194.900524 
L 436.937968 158.788398 
L 437.236364 151.917941 
L 437.385561 151.656978 
L 437.534759 153.280071 
L 437.833155 160.763522 
L 438.429947 179.200698 
L 438.728342 182.65255 
L 438.87754 181.861358 
L 439.175936 175.096888 
L 439.623529 155.601076 
L 440.220321 131.875328 
L 440.369519 129.868989 
L 440.518717 130.246855 
L 440.667914 133.214754 
L 440.96631 147.006842 
L 441.413904 183.785642 
L 442.309091 263.097594 
L 442.607487 275.12115 
L 442.756684 277.102323 
L 442.905882 276.471158 
L 443.204278 268.453925 
L 444.397861 217.92649 
L 444.547059 216.894592 
L 444.696257 217.619791 
L 444.994652 223.472071 
L 445.740642 244.107935 
L 445.88984 245.391586 
L 446.039037 244.815901 
L 446.188235 242.19607 
L 446.486631 230.786576 
L 447.083422 190.716289 
L 447.680214 154.978472 
L 447.97861 149.396774 
L 448.127807 150.765458 
L 448.426203 161.783255 
L 448.873797 194.520339 
L 449.768984 264.342094 
L 450.06738 274.019047 
L 450.216578 275.339311 
L 450.365775 274.493791 
L 450.664171 267.612845 
L 451.559358 240.102759 
L 451.708556 239.213442 
L 451.857754 240.022142 
L 452.15615 246.402883 
L 453.200535 279.292218 
L 453.349733 278.868547 
L 453.49893 276.048346 
L 453.797326 263.001691 
L 454.24492 227.950559 
L 455.140107 152.282723 
L 455.438503 141.649746 
L 455.587701 140.497035 
L 455.736898 142.079459 
L 456.035294 152.442014 
L 457.378075 219.695681 
L 457.527273 220.441661 
L 457.676471 219.365138 
L 457.974866 212.908295 
L 458.720856 192.928102 
L 458.870053 192.028916 
L 459.019251 192.932895 
L 459.317647 200.400858 
L 459.765241 223.033682 
L 460.362032 255.749705 
L 460.660428 263.313897 
L 460.809626 263.384854 
L 460.958824 260.711516 
L 461.257219 247.220309 
L 461.704813 210.797324 
L 462.6 133.52703 
L 462.898396 122.024963 
L 463.047594 120.082195 
L 463.196791 120.544005 
L 463.495187 127.46597 
L 464.539572 163.704741 
L 464.68877 164.490856 
L 464.837968 163.571571 
L 465.136364 157.245639 
L 466.031551 131.315142 
L 466.180749 131.039717 
L 466.329947 132.917794 
L 466.628342 143.504171 
L 467.075936 174.051354 
L 467.971123 240.683062 
L 468.269519 248.42652 
L 468.418717 248.08411 
L 468.567914 244.942463 
L 468.86631 231.196344 
L 470.209091 145.881385 
L 470.358289 143.535637 
L 470.507487 143.273332 
L 470.656684 144.872751 
L 470.95508 152.200758 
L 471.551872 169.79117 
L 471.850267 172.620564 
L 471.999465 171.506769 
L 472.297861 164.145548 
L 472.894652 136.722841 
L 473.342246 120.408556 
L 473.491444 118.552539 
L 473.640642 119.113603 
L 473.78984 122.283093 
L 474.088235 136.471163 
L 474.535829 173.609558 
L 475.431016 252.158823 
L 475.729412 263.634097 
L 475.87861 265.345952 
L 476.027807 264.469468 
L 476.326203 256.087833 
L 477.519786 206.413652 
L 477.668984 205.65342 
L 477.818182 206.644956 
L 478.116578 212.962702 
L 478.862567 234.055213 
L 479.011765 235.317205 
L 479.160963 234.70231 
L 479.31016 232.039259 
L 479.608556 220.589637 
L 480.205348 180.983876 
L 480.652941 152.784063 
L 480.951337 143.09572 
L 481.100535 142.164855 
L 481.249733 144.065566 
L 481.548128 156.111817 
L 481.995722 190.092793 
L 482.741711 252.539306 
L 483.040107 266.874258 
L 483.338503 271.886427 
L 483.487701 271.08819 
L 483.786096 264.420457 
L 484.532086 240.81991 
L 484.681283 238.727658 
L 484.830481 238.255647 
L 484.979679 239.48215 
L 485.278075 246.643208 
L 486.32246 280.786847 
L 486.471658 280.359839 
L 486.620856 277.519012 
L 486.919251 264.439428 
L 487.366845 229.574872 
L 488.262032 155.814183 
L 488.560428 146.142559 
L 488.709626 145.472203 
L 488.858824 147.516687 
L 489.157219 158.684903 
L 490.350802 224.084873 
L 490.5 226.705648 
L 490.649198 227.369519 
L 490.798396 226.224063 
L 491.096791 219.714993 
L 491.842781 200.319821 
L 491.991979 199.633888 
L 492.141176 200.759098 
L 492.439572 208.636227 
L 492.887166 231.59539 
L 493.483957 263.873539 
L 493.782353 270.869888 
L 493.931551 270.604905 
L 494.080749 267.58081 
L 494.379144 253.407551 
L 494.826738 216.223062 
L 495.721925 138.921347 
L 496.020321 127.680153 
L 496.169519 125.857868 
L 496.318717 126.413638 
L 496.617112 133.394372 
L 497.661497 168.105141 
L 497.810695 168.529338 
L 497.959893 167.249552 
L 498.109091 164.404226 
L 498.109091 164.404226 
" style="fill:none;stroke:#4c72b0;stroke-linecap:round;stroke-width:1.75;"/>
   </g>
   <g id="line2d_30">
    <path clip-path="url(#p9a25c4534b)" d="M 92.290909 218.870803 
L 93.186096 221.394396 
L 94.081283 223.260937 
L 94.827273 224.302999 
L 95.424064 224.796043 
L 96.020856 224.984256 
L 96.468449 224.924908 
L 97.065241 224.578672 
L 97.662032 223.928425 
L 98.408021 222.691912 
L 99.154011 220.991482 
L 100.049198 218.352756 
L 101.093583 214.478029 
L 102.287166 209.054893 
L 103.629947 201.7833 
L 105.121925 192.412607 
L 106.912299 179.674567 
L 109.299465 160.867279 
L 116.61016 101.768789 
L 118.400535 89.599733 
L 119.892513 80.815675 
L 121.235294 74.147554 
L 122.428877 69.31138 
L 123.473262 65.982112 
L 124.368449 63.829653 
L 125.114439 62.54454 
L 125.71123 61.854951 
L 126.308021 61.46912 
L 126.904813 61.388492 
L 127.352406 61.528535 
L 127.949198 61.982055 
L 128.545989 62.738869 
L 129.291979 64.106986 
L 130.037968 65.93653 
L 130.933155 68.725861 
L 131.97754 72.768752 
L 133.171123 78.371817 
L 134.513904 85.827063 
L 136.005882 95.374537 
L 137.796257 108.281382 
L 140.183422 127.231505 
L 147.046524 182.898213 
L 148.986096 196.24132 
L 150.478075 205.111287 
L 151.820856 211.86667 
L 153.014439 216.786995 
L 154.058824 220.193988 
L 154.954011 222.415426 
L 155.7 223.759258 
L 156.445989 224.633345 
L 157.042781 224.990883 
L 157.639572 225.043138 
L 158.087166 224.88183 
L 158.683957 224.400066 
L 159.280749 223.615233 
L 160.026738 222.212577 
L 160.921925 219.922188 
L 161.817112 216.987791 
L 162.861497 212.783556 
L 164.05508 207.008796 
L 165.397861 199.379682 
L 167.039037 188.632131 
L 168.97861 174.307556 
L 171.664171 152.585728 
L 177.035294 108.723751 
L 178.974866 94.76838 
L 180.616043 84.429573 
L 182.108021 76.462734 
L 183.301604 71.202285 
L 184.345989 67.479294 
L 185.241176 64.976225 
L 186.136364 63.13073 
L 186.882353 62.10649 
L 187.479144 61.627822 
L 188.075936 61.454038 
L 188.523529 61.524213 
L 189.120321 61.884855 
L 189.717112 62.549426 
L 190.463102 63.803659 
L 191.209091 65.521514 
L 192.104278 68.180635 
L 193.148663 72.078251 
L 194.342246 77.526067 
L 195.685027 84.823156 
L 197.177005 94.218866 
L 198.96738 106.981653 
L 201.354545 125.811905 
L 208.665241 184.90341 
L 210.455615 197.053976 
L 211.947594 205.818472 
L 213.290374 212.466229 
L 214.483957 217.28248 
L 215.528342 220.593187 
L 216.423529 222.729089 
L 217.169519 224.000067 
L 217.76631 224.678195 
L 218.363102 225.052479 
L 218.959893 225.121525 
L 219.407487 224.9728 
L 220.004278 224.507751 
L 220.60107 223.739505 
L 221.347059 222.357309 
L 222.093048 220.514004 
L 222.988235 217.708709 
L 224.03262 213.648143 
L 225.226203 208.026409 
L 226.568984 200.552496 
L 228.060963 190.987663 
L 229.851337 178.06534 
L 232.238503 159.10471 
L 239.101604 103.477192 
L 241.041176 90.162799 
L 242.533155 81.319313 
L 243.875936 74.590551 
L 245.069519 69.695736 
L 246.113904 66.312216 
L 247.009091 64.111561 
L 247.75508 62.785399 
L 248.50107 61.9292 
L 249.097861 61.586067 
L 249.694652 61.548248 
L 250.291444 61.815886 
L 250.888235 62.387984 
L 251.485027 63.26241 
L 252.231016 64.775512 
L 253.126203 67.195337 
L 254.02139 70.25478 
L 255.065775 74.597979 
L 256.259358 80.520524 
L 257.602139 88.29926 
L 259.243316 99.201913 
L 261.182888 113.665021 
L 264.017647 136.735154 
L 268.941176 176.966136 
L 271.029947 192.040722 
L 272.671123 202.359889 
L 274.013904 209.578098 
L 275.207487 214.948705 
L 276.251872 218.774226 
L 277.147059 221.368833 
L 278.042246 223.308448 
L 278.788235 224.412538 
L 279.385027 224.955685 
L 279.981818 225.194227 
L 280.429412 225.172659 
L 281.026203 224.876692 
L 281.622995 224.276422 
L 282.219786 223.374094 
L 282.965775 221.826658 
L 283.860963 219.366709 
L 284.905348 215.69202 
L 285.949733 211.191025 
L 287.143316 205.101641 
L 288.635294 196.206927 
L 290.276471 185.01032 
L 292.365241 169.109157 
L 295.647594 142.052175 
L 299.37754 111.658151 
L 301.46631 96.375882 
L 303.107487 85.840721 
L 304.599465 77.664282 
L 305.793048 72.218195 
L 306.837433 68.322025 
L 307.881818 65.284083 
L 308.777005 63.389815 
L 309.522995 62.32419 
L 310.119786 61.812105 
L 310.716578 61.604761 
L 311.164171 61.649749 
L 311.760963 61.976886 
L 312.357754 62.608156 
L 313.103743 63.821237 
L 313.849733 65.498693 
L 314.74492 68.110658 
L 315.789305 71.955584 
L 316.982888 77.346984 
L 318.325668 84.586449 
L 319.817647 93.926662 
L 321.608021 106.636442 
L 323.845989 124.204356 
L 331.604278 186.718028 
L 333.394652 198.656147 
L 334.886631 207.205981 
L 336.229412 213.635668 
L 337.422995 218.241734 
L 338.46738 221.358471 
L 339.362567 223.322401 
L 340.108556 224.447142 
L 340.705348 225.006978 
L 341.302139 225.262291 
L 341.749733 225.253317 
L 342.346524 224.974113 
L 342.943316 224.390517 
L 343.540107 223.504709 
L 344.286096 221.977614 
L 345.181283 219.541466 
L 346.076471 216.466356 
L 347.120856 212.105906 
L 348.314439 206.165277 
L 349.657219 198.368647 
L 351.298396 187.448202 
L 353.237968 172.970625 
L 356.072727 149.893519 
L 360.847059 110.834828 
L 362.935829 95.654478 
L 364.577005 85.225104 
L 366.068984 77.161773 
L 367.262567 71.815971 
L 368.306952 68.013427 
L 369.202139 65.439274 
L 370.097326 63.520652 
L 370.843316 62.434352 
L 371.440107 61.905566 
L 372.036898 61.681446 
L 372.484492 61.71384 
L 373.081283 62.024219 
L 373.678075 62.638828 
L 374.274866 63.555374 
L 375.020856 65.12034 
L 375.916043 67.600849 
L 376.960428 71.298672 
L 378.004813 75.82166 
L 379.198396 81.934495 
L 380.690374 90.855551 
L 382.331551 102.076734 
L 384.420321 118.001638 
L 387.702674 145.077118 
L 391.43262 175.463289 
L 393.52139 190.728481 
L 395.162567 201.244594 
L 396.654545 209.400004 
L 397.848128 214.827114 
L 398.892513 218.705386 
L 399.936898 221.724467 
L 400.832086 223.601987 
L 401.578075 224.653365 
L 402.174866 225.153932 
L 402.771658 225.3497 
L 403.219251 225.296022 
L 403.816043 224.957328 
L 404.412834 224.314577 
L 405.158824 223.087328 
L 405.904813 221.395992 
L 406.8 218.767881 
L 407.844385 214.905014 
L 409.037968 209.494578 
L 410.380749 202.235955 
L 411.872727 192.877753 
L 413.663102 180.151643 
L 415.90107 162.572347 
L 423.659358 100.103646 
L 425.449733 88.193398 
L 426.941711 79.670849 
L 428.284492 73.268389 
L 429.478075 68.688271 
L 430.52246 65.595306 
L 431.417647 63.65235 
L 432.163636 62.545389 
L 432.760428 61.999908 
L 433.357219 61.759014 
L 433.804813 61.778813 
L 434.401604 62.072431 
L 434.998396 62.670371 
L 435.595187 63.570404 
L 436.341176 65.115041 
L 437.236364 67.57177 
L 438.280749 71.242947 
L 439.325134 75.740763 
L 440.518717 81.827 
L 442.010695 90.718643 
L 443.651872 101.913148 
L 445.740642 117.813825 
L 449.022995 144.875507 
L 452.752941 175.283263 
L 454.841711 190.576908 
L 456.482888 201.122645 
L 457.974866 209.309781 
L 459.168449 214.765052 
L 460.212834 218.669634 
L 461.257219 221.716269 
L 462.152406 223.618159 
L 462.898396 224.69022 
L 463.495187 225.20749 
L 464.091979 225.420036 
L 464.539572 225.378951 
L 465.136364 225.057012 
L 465.733155 224.430916 
L 466.479144 223.224252 
L 467.225134 221.553129 
L 468.120321 218.948616 
L 469.164706 215.112124 
L 470.358289 209.729939 
L 471.70107 202.500185 
L 473.193048 193.169807 
L 474.983422 180.470302 
L 477.22139 162.912608 
L 484.979679 100.409835 
L 486.770053 88.469144 
L 488.262032 79.915985 
L 489.604813 73.482528 
L 490.798396 68.872602 
L 491.842781 65.752176 
L 492.737968 63.784909 
L 493.483957 62.657298 
L 494.080749 62.095129 
L 494.67754 61.837464 
L 495.125134 61.844669 
L 495.721925 62.121521 
L 496.318717 62.702786 
L 496.915508 63.586296 
L 497.661497 65.110587 
L 498.109091 66.245748 
L 498.109091 66.245748 
" style="fill:none;stroke:#55a868;stroke-linecap:round;stroke-width:1.75;"/>
   </g>
   <g id="patch_3">
    <path d="M 72 352.44 
L 72 47.52 
" style="fill:none;"/>
   </g>
   <g id="patch_4">
    <path d="M 518.4 352.44 
L 518.4 47.52 
" style="fill:none;"/>
   </g>
   <g id="patch_5">
    <path d="M 72 352.44 
L 518.4 352.44 
" style="fill:none;"/>
   </g>
   <g id="patch_6">
    <path d="M 72 47.52 
L 518.4 47.52 
" style="fill:none;"/>
   </g>
   <g id="legend_1">
    <g id="line2d_31">
     <path d="M 81 60.266875 
L 101 60.266875 
" style="fill:none;stroke:#4c72b0;stroke-linecap:round;stroke-width:1.75;"/>
    </g>
    <g id="line2d_32"/>
    <g id="text_15">
     <!-- a -->
     <defs>
      <path d="M 20.21875 -0.984375 
Q 12.25 -0.984375 8.25 3.21875 
Q 4.25 7.421875 4.25 14.75 
Q 4.25 19.96875 6.21875 23.3125 
Q 8.203125 26.65625 11.390625 28.5625 
Q 14.59375 30.46875 18.6875 31.203125 
Q 22.796875 31.9375 27.046875 32.03125 
L 38.921875 32.234375 
L 38.921875 35.109375 
Q 38.921875 38.375 38.234375 40.671875 
Q 37.546875 42.96875 36.125 44.375 
Q 34.71875 45.796875 32.59375 46.453125 
Q 30.46875 47.125 27.59375 47.125 
Q 25.046875 47.125 23 46.75 
Q 20.953125 46.390625 19.4375 45.4375 
Q 17.921875 44.484375 16.984375 42.84375 
Q 16.0625 41.21875 15.765625 38.71875 
L 6.59375 39.546875 
Q 7.078125 42.671875 8.4375 45.28125 
Q 9.8125 47.90625 12.328125 49.796875 
Q 14.84375 51.703125 18.625 52.75 
Q 22.40625 53.8125 27.78125 53.8125 
Q 37.75 53.8125 42.765625 49.234375 
Q 47.796875 44.671875 47.796875 36.03125 
L 47.796875 13.28125 
Q 47.796875 9.375 48.828125 7.390625 
Q 49.859375 5.421875 52.734375 5.421875 
Q 53.46875 5.421875 54.203125 5.515625 
Q 54.9375 5.609375 55.609375 5.765625 
L 55.609375 0.296875 
Q 53.953125 -0.09375 52.3125 -0.28125 
Q 50.6875 -0.484375 48.828125 -0.484375 
Q 46.34375 -0.484375 44.5625 0.171875 
Q 42.78125 0.828125 41.65625 2.171875 
Q 40.53125 3.515625 39.9375 5.484375 
Q 39.359375 7.46875 39.203125 10.109375 
L 38.921875 10.109375 
Q 37.5 7.5625 35.8125 5.515625 
Q 34.125 3.46875 31.875 2.03125 
Q 29.640625 0.59375 26.78125 -0.1875 
Q 23.921875 -0.984375 20.21875 -0.984375 
M 22.21875 5.609375 
Q 26.421875 5.609375 29.5625 7.140625 
Q 32.71875 8.6875 34.78125 11.078125 
Q 36.859375 13.484375 37.890625 16.3125 
Q 38.921875 19.140625 38.921875 21.734375 
L 38.921875 26.078125 
L 29.296875 25.875 
Q 26.078125 25.828125 23.171875 25.40625 
Q 20.265625 25 18.0625 23.78125 
Q 15.875 22.5625 14.578125 20.359375 
Q 13.28125 18.171875 13.28125 14.59375 
Q 13.28125 10.296875 15.59375 7.953125 
Q 17.921875 5.609375 22.21875 5.609375 
" id="LiberationSans-61"/>
     </defs>
     <g style="fill:#262626;" transform="translate(109 63.766875)scale(0.1 -0.1)">
      <use xlink:href="#LiberationSans-61"/>
     </g>
    </g>
    <g id="line2d_33">
     <path d="M 81 74.58875 
L 101 74.58875 
" style="fill:none;stroke:#55a868;stroke-linecap:round;stroke-width:1.75;"/>
    </g>
    <g id="line2d_34"/>
    <g id="text_16">
     <!-- b -->
     <defs>
      <path d="M 51.421875 26.65625 
Q 51.421875 -0.984375 31.984375 -0.984375 
Q 25.984375 -0.984375 22 1.1875 
Q 18.015625 3.375 15.53125 8.203125 
L 15.4375 8.203125 
Q 15.4375 6.9375 15.359375 5.5625 
Q 15.28125 4.203125 15.203125 3.03125 
Q 15.140625 1.859375 15.0625 1.03125 
Q 14.984375 0.203125 14.9375 0 
L 6.453125 0 
Q 6.5 0.4375 6.546875 1.484375 
Q 6.59375 2.546875 6.640625 4 
Q 6.6875 5.46875 6.703125 7.21875 
Q 6.734375 8.984375 6.734375 10.890625 
L 6.734375 72.46875 
L 15.53125 72.46875 
L 15.53125 51.8125 
Q 15.53125 50.34375 15.5 49 
Q 15.484375 47.65625 15.4375 46.625 
Q 15.375 45.40625 15.328125 44.34375 
L 15.53125 44.34375 
Q 17.96875 49.421875 22 51.609375 
Q 26.03125 53.8125 31.984375 53.8125 
Q 42 53.8125 46.703125 47.0625 
Q 51.421875 40.328125 51.421875 26.65625 
M 42.1875 26.375 
Q 42.1875 31.84375 41.5 35.75 
Q 40.828125 39.65625 39.3125 42.15625 
Q 37.796875 44.671875 35.453125 45.84375 
Q 33.109375 47.015625 29.734375 47.015625 
Q 26.265625 47.015625 23.609375 45.890625 
Q 20.953125 44.78125 19.171875 42.28125 
Q 17.390625 39.796875 16.453125 35.734375 
Q 15.53125 31.6875 15.53125 25.828125 
Q 15.53125 20.171875 16.453125 16.3125 
Q 17.390625 12.453125 19.171875 10.03125 
Q 20.953125 7.625 23.578125 6.5625 
Q 26.21875 5.515625 29.640625 5.515625 
Q 32.859375 5.515625 35.203125 6.640625 
Q 37.546875 7.765625 39.109375 10.25 
Q 40.671875 12.75 41.421875 16.71875 
Q 42.1875 20.703125 42.1875 26.375 
" id="LiberationSans-62"/>
     </defs>
     <g style="fill:#262626;" transform="translate(109 78.08875)scale(0.1 -0.1)">
      <use xlink:href="#LiberationSans-62"/>
     </g>
    </g>
   </g>
  </g>
 </g>
 <defs>
  <clipPath id="p9a25c4534b">
   <rect height="304.92" width="446.4" x="72" y="47.52"/>
  </clipPath>
 </defs>
</svg>
