<?xml version="1.0" encoding="utf-8" standalone="no"?>
<!DOCTYPE svg PUBLIC "-//W3C//DTD SVG 1.1//EN"
  "http://www.w3.org/Graphics/SVG/1.1/DTD/svg11.dtd">
<!-- Created with matplotlib (http://matplotlib.org/) -->
<svg height="396pt" version="1.1" viewBox="0 0 576 396" width="576pt" xmlns="http://www.w3.org/2000/svg" xmlns:xlink="http://www.w3.org/1999/xlink">
 <defs>
  <style type="text/css">
*{stroke-linecap:butt;stroke-linejoin:round;}
  </style>
 </defs>
 <g id="figure_1">
  <g id="patch_1">
   <path d="M 0 396 
L 576 396 
L 576 0 
L 0 0 
z
" style="fill:#ffffff;"/>
  </g>
  <g id="axes_1">
   <g id="patch_2">
    <path d="M 72 352.44 
L 518.4 352.44 
L 518.4 47.52 
L 72 47.52 
z
" style="fill:#eaeaf2;"/>
   </g>
   <g id="matplotlib.axis_1">
    <g id="xtick_1">
     <g id="line2d_1">
      <path clip-path="url(#p80434dc60a)" d="M 92.290909 352.44 
L 92.290909 47.52 
" style="fill:none;stroke:#ffffff;stroke-linecap:round;"/>
     </g>
     <g id="line2d_2"/>
     <g id="text_1">
      <!-- 0 -->
      <defs>
       <path d="M 51.703125 34.421875 
Q 51.703125 24.515625 49.828125 17.75 
Q 47.953125 10.984375 44.703125 6.8125 
Q 41.453125 2.640625 37.0625 0.828125 
Q 32.671875 -0.984375 27.6875 -0.984375 
Q 22.65625 -0.984375 18.3125 0.828125 
Q 13.96875 2.640625 10.765625 6.78125 
Q 7.5625 10.9375 5.734375 17.703125 
Q 3.90625 24.46875 3.90625 34.421875 
Q 3.90625 44.828125 5.734375 51.640625 
Q 7.5625 58.453125 10.78125 62.5 
Q 14.015625 66.546875 18.40625 68.1875 
Q 22.796875 69.828125 27.984375 69.828125 
Q 32.90625 69.828125 37.21875 68.1875 
Q 41.546875 66.546875 44.765625 62.5 
Q 48 58.453125 49.84375 51.640625 
Q 51.703125 44.828125 51.703125 34.421875 
M 42.78125 34.421875 
Q 42.78125 42.625 41.796875 48.0625 
Q 40.828125 53.515625 38.921875 56.765625 
Q 37.015625 60.015625 34.25 61.359375 
Q 31.5 62.703125 27.984375 62.703125 
Q 24.265625 62.703125 21.4375 61.328125 
Q 18.609375 59.96875 16.671875 56.71875 
Q 14.75 53.46875 13.765625 48.015625 
Q 12.796875 42.578125 12.796875 34.421875 
Q 12.796875 26.515625 13.796875 21.09375 
Q 14.796875 15.671875 16.71875 12.375 
Q 18.65625 9.078125 21.4375 7.640625 
Q 24.21875 6.203125 27.78125 6.203125 
Q 31.25 6.203125 34.03125 7.640625 
Q 36.8125 9.078125 38.734375 12.375 
Q 40.671875 15.671875 41.71875 21.09375 
Q 42.78125 26.515625 42.78125 34.421875 
" id="LiberationSans-30"/>
      </defs>
      <g style="fill:#262626;" transform="translate(89.51044 366.686875)scale(0.1 -0.1)">
       <use xlink:href="#LiberationSans-30"/>
      </g>
     </g>
    </g>
    <g id="xtick_2">
     <g id="line2d_3">
      <path clip-path="url(#p80434dc60a)" d="M 166.944732 352.44 
L 166.944732 47.52 
" style="fill:none;stroke:#ffffff;stroke-linecap:round;"/>
     </g>
     <g id="line2d_4"/>
     <g id="text_2">
      <!-- 500 -->
      <defs>
       <path d="M 51.421875 22.40625 
Q 51.421875 17.234375 49.859375 12.9375 
Q 48.296875 8.640625 45.21875 5.53125 
Q 42.140625 2.4375 37.578125 0.71875 
Q 33.015625 -0.984375 27 -0.984375 
Q 21.578125 -0.984375 17.546875 0.28125 
Q 13.53125 1.5625 10.734375 3.78125 
Q 7.953125 6 6.3125 8.984375 
Q 4.6875 11.96875 4 15.375 
L 12.890625 16.40625 
Q 13.421875 14.453125 14.390625 12.625 
Q 15.375 10.796875 17.0625 9.34375 
Q 18.75 7.90625 21.21875 7.046875 
Q 23.6875 6.203125 27.203125 6.203125 
Q 30.609375 6.203125 33.390625 7.25 
Q 36.1875 8.296875 38.15625 10.34375 
Q 40.140625 12.40625 41.203125 15.375 
Q 42.28125 18.359375 42.28125 22.21875 
Q 42.28125 25.390625 41.25 28.046875 
Q 40.234375 30.71875 38.328125 32.640625 
Q 36.421875 34.578125 33.65625 35.640625 
Q 30.90625 36.71875 27.390625 36.71875 
Q 25.203125 36.71875 23.34375 36.328125 
Q 21.484375 35.9375 19.890625 35.25 
Q 18.3125 34.578125 17.015625 33.671875 
Q 15.71875 32.765625 14.59375 31.78125 
L 6 31.78125 
L 8.296875 68.796875 
L 47.40625 68.796875 
L 47.40625 61.328125 
L 16.3125 61.328125 
L 14.984375 39.5 
Q 17.328125 41.3125 20.84375 42.59375 
Q 24.359375 43.890625 29.203125 43.890625 
Q 34.328125 43.890625 38.421875 42.328125 
Q 42.53125 40.765625 45.40625 37.90625 
Q 48.296875 35.0625 49.859375 31.109375 
Q 51.421875 27.15625 51.421875 22.40625 
" id="LiberationSans-35"/>
      </defs>
      <g style="fill:#262626;" transform="translate(158.603326 366.686875)scale(0.1 -0.1)">
       <use xlink:href="#LiberationSans-35"/>
       <use x="55.615234" xlink:href="#LiberationSans-30"/>
       <use x="111.230469" xlink:href="#LiberationSans-30"/>
      </g>
     </g>
    </g>
    <g id="xtick_3">
     <g id="line2d_5">
      <path clip-path="url(#p80434dc60a)" d="M 241.598555 352.44 
L 241.598555 47.52 
" style="fill:none;stroke:#ffffff;stroke-linecap:round;"/>
     </g>
     <g id="line2d_6"/>
     <g id="text_3">
      <!-- 1000 -->
      <defs>
       <path d="M 7.625 0 
L 7.625 7.46875 
L 25.140625 7.46875 
L 25.140625 60.40625 
L 9.625 49.3125 
L 9.625 57.625 
L 25.875 68.796875 
L 33.984375 68.796875 
L 33.984375 7.46875 
L 50.734375 7.46875 
L 50.734375 0 
z
" id="LiberationSans-31"/>
      </defs>
      <g style="fill:#262626;" transform="translate(230.47668 366.686875)scale(0.1 -0.1)">
       <use xlink:href="#LiberationSans-31"/>
       <use x="55.615234" xlink:href="#LiberationSans-30"/>
       <use x="111.230469" xlink:href="#LiberationSans-30"/>
       <use x="166.845703" xlink:href="#LiberationSans-30"/>
      </g>
     </g>
    </g>
    <g id="xtick_4">
     <g id="line2d_7">
      <path clip-path="url(#p80434dc60a)" d="M 316.252378 352.44 
L 316.252378 47.52 
" style="fill:none;stroke:#ffffff;stroke-linecap:round;"/>
     </g>
     <g id="line2d_8"/>
     <g id="text_4">
      <!-- 1500 -->
      <g style="fill:#262626;" transform="translate(305.130503 366.686875)scale(0.1 -0.1)">
       <use xlink:href="#LiberationSans-31"/>
       <use x="55.615234" xlink:href="#LiberationSans-35"/>
       <use x="111.230469" xlink:href="#LiberationSans-30"/>
       <use x="166.845703" xlink:href="#LiberationSans-30"/>
      </g>
     </g>
    </g>
    <g id="xtick_5">
     <g id="line2d_9">
      <path clip-path="url(#p80434dc60a)" d="M 390.906201 352.44 
L 390.906201 47.52 
" style="fill:none;stroke:#ffffff;stroke-linecap:round;"/>
     </g>
     <g id="line2d_10"/>
     <g id="text_5">
      <!-- 2000 -->
      <defs>
       <path d="M 5.03125 0 
L 5.03125 6.203125 
Q 7.515625 11.921875 11.109375 16.28125 
Q 14.703125 20.65625 18.65625 24.1875 
Q 22.609375 27.734375 26.484375 30.765625 
Q 30.375 33.796875 33.5 36.8125 
Q 36.625 39.84375 38.546875 43.15625 
Q 40.484375 46.484375 40.484375 50.6875 
Q 40.484375 53.609375 39.59375 55.828125 
Q 38.71875 58.0625 37.0625 59.5625 
Q 35.40625 61.078125 33.078125 61.828125 
Q 30.765625 62.59375 27.9375 62.59375 
Q 25.296875 62.59375 22.96875 61.859375 
Q 20.65625 61.140625 18.84375 59.671875 
Q 17.046875 58.203125 15.890625 56.03125 
Q 14.75 53.859375 14.40625 50.984375 
L 5.421875 51.8125 
Q 5.859375 55.515625 7.46875 58.78125 
Q 9.078125 62.0625 11.90625 64.53125 
Q 14.75 67 18.71875 68.40625 
Q 22.703125 69.828125 27.9375 69.828125 
Q 33.0625 69.828125 37.0625 68.609375 
Q 41.0625 67.390625 43.8125 64.984375 
Q 46.578125 62.59375 48.046875 59.078125 
Q 49.515625 55.5625 49.515625 50.984375 
Q 49.515625 47.515625 48.265625 44.390625 
Q 47.015625 41.265625 44.9375 38.421875 
Q 42.875 35.59375 40.140625 32.953125 
Q 37.40625 30.328125 34.421875 27.8125 
Q 31.453125 25.296875 28.421875 22.828125 
Q 25.390625 20.359375 22.71875 17.859375 
Q 20.0625 15.375 17.96875 12.8125 
Q 15.875 10.25 14.703125 7.46875 
L 50.59375 7.46875 
L 50.59375 0 
z
" id="LiberationSans-32"/>
      </defs>
      <g style="fill:#262626;" transform="translate(379.784326 366.686875)scale(0.1 -0.1)">
       <use xlink:href="#LiberationSans-32"/>
       <use x="55.615234" xlink:href="#LiberationSans-30"/>
       <use x="111.230469" xlink:href="#LiberationSans-30"/>
       <use x="166.845703" xlink:href="#LiberationSans-30"/>
      </g>
     </g>
    </g>
    <g id="xtick_6">
     <g id="line2d_11">
      <path clip-path="url(#p80434dc60a)" d="M 465.560024 352.44 
L 465.560024 47.52 
" style="fill:none;stroke:#ffffff;stroke-linecap:round;"/>
     </g>
     <g id="line2d_12"/>
     <g id="text_6">
      <!-- 2500 -->
      <g style="fill:#262626;" transform="translate(454.438149 366.686875)scale(0.1 -0.1)">
       <use xlink:href="#LiberationSans-32"/>
       <use x="55.615234" xlink:href="#LiberationSans-35"/>
       <use x="111.230469" xlink:href="#LiberationSans-30"/>
       <use x="166.845703" xlink:href="#LiberationSans-30"/>
      </g>
     </g>
    </g>
   </g>
   <g id="matplotlib.axis_2">
    <g id="ytick_1">
     <g id="line2d_13">
      <path clip-path="url(#p80434dc60a)" d="M 72 308.220373 
L 518.4 308.220373 
" style="fill:none;stroke:#ffffff;stroke-linecap:round;"/>
     </g>
     <g id="line2d_14"/>
     <g id="text_7">
      <!-- −300 -->
      <defs>
       <path d="M 4.9375 29.6875 
L 4.9375 36.8125 
L 53.515625 36.8125 
L 53.515625 29.6875 
z
" id="LiberationSans-2212"/>
       <path d="M 51.21875 19 
Q 51.21875 14.265625 49.671875 10.546875 
Q 48.140625 6.84375 45.1875 4.265625 
Q 42.234375 1.703125 37.859375 0.359375 
Q 33.5 -0.984375 27.875 -0.984375 
Q 21.484375 -0.984375 17.109375 0.609375 
Q 12.75 2.203125 9.90625 4.8125 
Q 7.078125 7.421875 5.65625 10.765625 
Q 4.25 14.109375 3.8125 17.671875 
L 12.890625 18.5 
Q 13.28125 15.765625 14.328125 13.515625 
Q 15.375 11.28125 17.1875 9.671875 
Q 19 8.0625 21.625 7.171875 
Q 24.265625 6.296875 27.875 6.296875 
Q 34.515625 6.296875 38.296875 9.5625 
Q 42.09375 12.84375 42.09375 19.28125 
Q 42.09375 23.09375 40.40625 25.40625 
Q 38.71875 27.734375 36.203125 29.03125 
Q 33.6875 30.328125 30.734375 30.765625 
Q 27.78125 31.203125 25.296875 31.203125 
L 20.3125 31.203125 
L 20.3125 38.8125 
L 25.09375 38.8125 
Q 27.59375 38.8125 30.265625 39.328125 
Q 32.953125 39.84375 35.171875 41.1875 
Q 37.40625 42.53125 38.84375 44.828125 
Q 40.28125 47.125 40.28125 50.6875 
Q 40.28125 56.203125 37.03125 59.390625 
Q 33.796875 62.59375 27.390625 62.59375 
Q 21.578125 62.59375 17.984375 59.609375 
Q 14.40625 56.640625 13.8125 51.21875 
L 4.984375 51.90625 
Q 5.515625 56.453125 7.46875 59.8125 
Q 9.421875 63.1875 12.421875 65.40625 
Q 15.4375 67.625 19.28125 68.71875 
Q 23.140625 69.828125 27.484375 69.828125 
Q 33.25 69.828125 37.390625 68.375 
Q 41.546875 66.9375 44.1875 64.46875 
Q 46.828125 62.015625 48.0625 58.6875 
Q 49.3125 55.375 49.3125 51.609375 
Q 49.3125 48.578125 48.484375 45.9375 
Q 47.65625 43.3125 45.890625 41.203125 
Q 44.140625 39.109375 41.421875 37.59375 
Q 38.71875 36.078125 34.90625 35.296875 
L 34.90625 35.109375 
Q 39.0625 34.671875 42.140625 33.21875 
Q 45.21875 31.78125 47.21875 29.625 
Q 49.21875 27.484375 50.21875 24.75 
Q 51.21875 22.015625 51.21875 19 
" id="LiberationSans-33"/>
      </defs>
      <g style="fill:#262626;" transform="translate(42.476562 311.84381)scale(0.1 -0.1)">
       <use xlink:href="#LiberationSans-2212"/>
       <use x="58.398438" xlink:href="#LiberationSans-33"/>
       <use x="114.013672" xlink:href="#LiberationSans-30"/>
       <use x="169.628906" xlink:href="#LiberationSans-30"/>
      </g>
     </g>
    </g>
    <g id="ytick_2">
     <g id="line2d_15">
      <path clip-path="url(#p80434dc60a)" d="M 72 245.849539 
L 518.4 245.849539 
" style="fill:none;stroke:#ffffff;stroke-linecap:round;"/>
     </g>
     <g id="line2d_16"/>
     <g id="text_8">
      <!-- −200 -->
      <g style="fill:#262626;" transform="translate(42.476562 249.472976)scale(0.1 -0.1)">
       <use xlink:href="#LiberationSans-2212"/>
       <use x="58.398438" xlink:href="#LiberationSans-32"/>
       <use x="114.013672" xlink:href="#LiberationSans-30"/>
       <use x="169.628906" xlink:href="#LiberationSans-30"/>
      </g>
     </g>
    </g>
    <g id="ytick_3">
     <g id="line2d_17">
      <path clip-path="url(#p80434dc60a)" d="M 72 183.478704 
L 518.4 183.478704 
" style="fill:none;stroke:#ffffff;stroke-linecap:round;"/>
     </g>
     <g id="line2d_18"/>
     <g id="text_9">
      <!-- −100 -->
      <g style="fill:#262626;" transform="translate(42.476562 187.102142)scale(0.1 -0.1)">
       <use xlink:href="#LiberationSans-2212"/>
       <use x="58.398438" xlink:href="#LiberationSans-31"/>
       <use x="114.013672" xlink:href="#LiberationSans-30"/>
       <use x="169.628906" xlink:href="#LiberationSans-30"/>
      </g>
     </g>
    </g>
    <g id="ytick_4">
     <g id="line2d_19">
      <path clip-path="url(#p80434dc60a)" d="M 72 121.10787 
L 518.4 121.10787 
" style="fill:none;stroke:#ffffff;stroke-linecap:round;"/>
     </g>
     <g id="line2d_20"/>
     <g id="text_10">
      <!-- 0 -->
      <g style="fill:#262626;" transform="translate(59.439062 124.731308)scale(0.1 -0.1)">
       <use xlink:href="#LiberationSans-30"/>
      </g>
     </g>
    </g>
    <g id="ytick_5">
     <g id="line2d_21">
      <path clip-path="url(#p80434dc60a)" d="M 72 58.737036 
L 518.4 58.737036 
" style="fill:none;stroke:#ffffff;stroke-linecap:round;"/>
     </g>
     <g id="line2d_22"/>
     <g id="text_11">
      <!-- 100 -->
      <g style="fill:#262626;" transform="translate(48.317188 62.360473)scale(0.1 -0.1)">
       <use xlink:href="#LiberationSans-31"/>
       <use x="55.615234" xlink:href="#LiberationSans-30"/>
       <use x="111.230469" xlink:href="#LiberationSans-30"/>
      </g>
     </g>
    </g>
   </g>
   <g id="line2d_23">
    <path clip-path="url(#p80434dc60a)" d="M 92.290909 121.107839 
L 93.037447 121.187314 
L 93.186755 135.722978 
L 93.783986 338.58 
L 94.082601 218.179965 
L 94.381216 109.503901 
L 94.530524 100.364453 
L 94.978447 128.278146 
L 95.127754 121.60935 
L 95.874293 61.38 
L 96.0236 66.925952 
L 96.322216 100.940885 
L 96.770138 160.033258 
L 96.919446 167.848199 
L 97.068754 166.989477 
L 97.367369 146.120196 
L 97.815292 106.778046 
L 98.113907 95.649094 
L 98.263215 94.191362 
L 98.412523 94.285854 
L 98.56183 94.741598 
L 98.711138 94.599455 
L 98.860446 93.465865 
L 99.606984 83.818531 
L 99.756291 84.667835 
L 100.950753 100.065136 
L 101.398675 102.741156 
L 101.697291 103.596448 
L 101.846598 103.466841 
L 101.995906 102.80677 
L 102.294521 99.979688 
L 102.742444 94.643426 
L 102.891752 93.791253 
L 103.04106 93.976308 
L 103.190367 95.139586 
L 103.488983 100.099689 
L 104.086213 116.29863 
L 104.683444 129.749287 
L 104.982059 133.410767 
L 105.131367 133.564386 
L 105.280674 132.061561 
L 105.57929 122.772323 
L 106.027213 107.301961 
L 106.475135 97.763777 
L 106.923058 92.381673 
L 107.072366 91.551579 
L 107.221674 91.619439 
L 107.520289 93.615991 
L 107.818904 97.632673 
L 108.416135 106.041072 
L 108.565443 106.622493 
L 108.71475 106.278206 
L 109.013365 103.319022 
L 110.207827 84.789645 
L 110.357134 84.748231 
L 110.506442 85.847455 
L 110.805057 91.376629 
L 112.148826 123.734063 
L 112.447441 125.887434 
L 112.596749 125.516116 
L 112.895364 122.239102 
L 113.641902 108.119269 
L 114.089825 102.039484 
L 114.239133 101.166792 
L 114.388441 101.005563 
L 114.537748 101.396192 
L 114.836364 103.585034 
L 115.582902 111.894326 
L 115.73221 112.438948 
L 115.881517 112.345766 
L 116.180132 110.560214 
L 116.777363 103.27424 
L 117.523901 92.275393 
L 117.673209 91.845533 
L 117.822517 91.950254 
L 117.971824 93.227858 
L 118.419747 101.403115 
L 119.166285 117.243448 
L 119.464901 120.544632 
L 119.763516 121.998644 
L 119.912824 122.139733 
L 120.062131 121.977719 
L 120.360747 121.06945 
L 120.808669 118.359637 
L 121.256592 115.527782 
L 121.4059 115.197323 
L 121.555208 115.229718 
L 121.704515 115.594925 
L 122.152438 118.448159 
L 122.749669 121.863218 
L 123.048284 122.679434 
L 123.197592 122.713152 
L 123.346899 122.570129 
L 123.645515 121.695658 
L 123.94413 119.903003 
L 124.541361 114.712365 
L 124.690668 114.724215 
L 124.989284 115.66811 
L 125.287899 116.124116 
L 125.586514 116.637241 
L 125.885129 117.941721 
L 126.183745 119.49458 
L 126.631668 120.724405 
L 127.228898 122.309563 
L 127.378206 122.364031 
L 127.676821 121.914437 
L 128.124744 121.043156 
L 128.423359 120.836477 
L 128.721975 121.063779 
L 129.319205 121.795109 
L 129.617821 121.281796 
L 130.812282 117.007568 
L 130.961589 116.910693 
L 131.110897 117.342817 
L 131.857435 121.516208 
L 132.454666 124.792277 
L 132.902589 127.232424 
L 133.051896 126.968726 
L 133.350512 125.503399 
L 134.246358 119.681468 
L 134.544973 119.107594 
L 134.694281 119.042466 
L 134.843588 119.109116 
L 134.992896 119.458006 
L 135.291511 121.023921 
L 135.888742 124.803791 
L 136.038049 125.235198 
L 136.187357 125.191788 
L 136.336665 124.622598 
L 136.63528 121.994559 
L 137.979049 105.220646 
L 138.128356 105.006091 
L 138.277664 105.074325 
L 138.725587 108.039559 
L 139.024202 112.240234 
L 139.770741 128.588254 
L 140.069356 130.777782 
L 140.218663 130.791441 
L 140.367971 130.330708 
L 140.666586 128.188207 
L 141.413125 121.680295 
L 141.71174 121.137624 
L 141.861048 121.427629 
L 142.010355 122.106097 
L 142.30897 125.125712 
L 143.354124 139.191358 
L 143.503432 139.742716 
L 143.652739 139.376911 
L 143.802047 138.315983 
L 144.100662 133.469707 
L 145.295123 105.37726 
L 145.593739 104.777065 
L 145.743046 104.786358 
L 145.892354 105.147361 
L 146.190969 108.712789 
L 147.236123 131.956778 
L 147.38543 132.642483 
L 147.534738 132.507637 
L 147.684046 131.855113 
L 147.982661 129.046991 
L 148.579892 122.890054 
L 148.878507 121.251334 
L 149.027815 121.105156 
L 149.177122 121.766743 
L 149.475738 125.501085 
L 150.072968 138.787943 
L 150.520891 149.724482 
L 150.819506 152.397571 
L 150.968814 151.963533 
L 151.118122 150.265112 
L 151.416737 142.912589 
L 152.013967 126.880971 
L 152.909813 109.528662 
L 153.059121 108.447776 
L 153.208429 108.249312 
L 153.357736 108.955911 
L 153.656352 113.017125 
L 154.253582 122.687879 
L 154.552197 124.114905 
L 154.701505 123.721788 
L 155.00012 121.365145 
L 156.045274 111.236376 
L 156.343889 110.514059 
L 156.493197 110.833647 
L 156.791812 113.218521 
L 157.687658 123.938215 
L 157.986273 125.010806 
L 158.135581 124.677727 
L 158.434196 121.736163 
L 158.732812 119.717119 
L 158.882119 119.515468 
L 159.031427 118.807465 
L 159.330042 115.555431 
L 159.777965 110.725621 
L 159.927273 110.304306 
L 160.07658 110.600817 
L 160.524503 113.078997 
L 160.823119 114.875907 
L 160.972426 115.260349 
L 161.121734 115.204234 
L 161.420349 113.881772 
L 161.868272 111.020573 
L 162.01758 110.725621 
L 162.166887 110.996872 
L 162.465503 113.516466 
L 162.913426 121.069424 
L 163.510656 132.23202 
L 163.659964 133.321951 
L 163.809272 133.44557 
L 163.958579 133.26326 
L 164.107887 132.622898 
L 164.406502 128.855575 
L 164.854425 116.829904 
L 165.451656 100.421897 
L 165.750271 97.116056 
L 165.899579 96.840002 
L 166.048886 97.621945 
L 166.347502 101.263217 
L 166.795424 111.04022 
L 167.243347 120.647537 
L 167.541963 123.255198 
L 167.69127 123.242761 
L 167.840578 122.594703 
L 168.139193 119.922344 
L 169.035039 111.012277 
L 169.184347 110.46778 
L 169.333654 110.857598 
L 169.63227 114.215581 
L 170.080193 124.717308 
L 170.677423 140.613974 
L 171.125346 146.234397 
L 171.274654 146.433859 
L 171.423961 145.847261 
L 171.573269 144.603338 
L 171.871884 138.139599 
L 172.618423 115.174788 
L 172.917038 109.941058 
L 173.215653 107.878829 
L 173.364961 107.842841 
L 173.514269 108.336631 
L 173.812884 110.654144 
L 174.70873 119.759144 
L 174.858037 119.999328 
L 175.007345 119.590781 
L 175.30596 116.735849 
L 176.351114 103.255591 
L 176.500421 102.571632 
L 176.649729 102.427244 
L 176.799037 102.997189 
L 177.097652 106.250139 
L 177.545575 116.416405 
L 178.142806 128.847217 
L 178.441421 131.637127 
L 178.590728 132.076156 
L 178.740036 131.774094 
L 179.038651 129.462443 
L 179.635882 121.839368 
L 180.233113 112.889141 
L 180.531728 111.335109 
L 180.681036 111.440578 
L 180.979651 113.084611 
L 181.726189 118.229363 
L 181.875497 118.57683 
L 182.024804 118.624762 
L 182.174112 118.390392 
L 182.472727 117.055631 
L 182.92065 113.046128 
L 183.219266 110.412332 
L 183.667188 108.554243 
L 183.965804 106.121468 
L 184.115111 105.715871 
L 184.264419 106.279142 
L 184.563034 110.884043 
L 185.010957 118.400577 
L 185.309573 119.883811 
L 185.757495 119.73318 
L 186.056111 120.519784 
L 186.504034 122.064296 
L 186.653341 122.053318 
L 186.802649 121.716208 
L 187.549187 118.672582 
L 187.847803 119.133521 
L 188.594341 121.022642 
L 188.892956 121.118612 
L 189.93811 120.692523 
L 190.236725 120.809108 
L 190.53534 121.328867 
L 190.684648 121.781413 
L 190.833955 121.778157 
L 190.983263 121.494899 
L 191.132571 122.273693 
L 191.729801 128.605031 
L 191.879109 128.078809 
L 192.625647 121.76577 
L 192.924262 120.914018 
L 193.372185 121.105178 
L 193.969416 120.499802 
L 194.118724 120.500449 
L 194.417339 121.420586 
L 194.865262 123.165447 
L 195.01457 123.347744 
L 195.163877 123.322515 
L 195.313185 123.09788 
L 195.6118 121.729244 
L 196.059723 117.515541 
L 196.656954 111.732536 
L 196.806261 110.992693 
L 196.955569 110.906871 
L 197.254184 112.157281 
L 197.5528 114.130694 
L 198.000722 120.683456 
L 198.597953 129.923301 
L 198.896568 131.980978 
L 199.195184 132.491608 
L 199.344491 132.182311 
L 199.643107 128.749981 
L 200.240337 120.080934 
L 200.538952 118.05556 
L 200.837568 117.274914 
L 200.986875 117.386483 
L 201.285491 118.664019 
L 201.733414 122.272995 
L 202.181337 125.481319 
L 202.330644 125.872297 
L 202.479952 125.675573 
L 202.778567 123.035148 
L 203.22649 114.73775 
L 203.973028 98.127149 
L 204.271644 96.095357 
L 204.420951 96.004171 
L 204.570259 96.709148 
L 204.868874 100.525308 
L 205.167489 106.38985 
L 206.063335 127.137776 
L 206.361951 129.753902 
L 206.511258 129.892054 
L 206.809874 128.093591 
L 207.855027 117.576209 
L 208.004335 117.292995 
L 208.153642 117.620474 
L 208.452258 120.214065 
L 208.900181 127.759907 
L 209.348104 135.618382 
L 209.646719 138.057082 
L 209.796026 138.228477 
L 209.945334 137.479777 
L 210.243949 132.923713 
L 210.990488 112.458844 
L 211.587718 98.81142 
L 211.737026 97.075078 
L 211.886334 97.054932 
L 212.035641 98.669214 
L 212.483564 109.225041 
L 212.931487 118.876953 
L 213.37941 125.330338 
L 213.827333 128.57316 
L 213.976641 128.724097 
L 214.125948 128.330912 
L 214.424564 125.907006 
L 215.021794 119.196828 
L 215.171102 118.727624 
L 215.320409 119.058277 
L 215.619025 122.029667 
L 216.216255 133.146314 
L 216.664178 141.006349 
L 216.962793 143.128517 
L 217.112101 142.458654 
L 217.560024 137.985543 
L 218.007947 129.341818 
L 218.605178 117.26597 
L 218.903793 115.472615 
L 219.053101 115.348809 
L 219.351716 116.28154 
L 220.098254 119.565196 
L 220.396869 120.109587 
L 220.546177 120.127931 
L 220.695485 119.975821 
L 220.9941 119.027173 
L 221.442023 117.114746 
L 221.591331 117.127014 
L 221.889946 117.981308 
L 222.636484 121.284839 
L 222.785792 121.34077 
L 222.935099 121.043099 
L 223.233715 118.776211 
L 223.53233 114.284626 
L 224.577483 93.203034 
L 224.876099 92.53155 
L 225.025406 92.953613 
L 225.174714 95.223537 
L 225.771945 110.853481 
L 226.966406 126.066482 
L 227.115713 126.460647 
L 227.265021 125.617344 
L 227.563636 120.204397 
L 228.011559 112.103019 
L 228.160867 111.816986 
L 228.310175 112.934422 
L 228.60879 118.409895 
L 229.504636 139.9859 
L 229.803251 142.943837 
L 229.952559 143.497752 
L 230.101866 143.353738 
L 230.251174 142.863877 
L 230.400482 141.726545 
L 230.699097 136.55382 
L 231.14702 122.601277 
L 231.594943 109.276372 
L 232.042866 101.885678 
L 232.192173 102.607683 
L 232.490789 108.698569 
L 232.938712 119.501921 
L 233.386635 125.136384 
L 233.834557 128.600042 
L 233.983865 129.246017 
L 234.133173 129.323481 
L 234.28248 129.030525 
L 234.581096 127.460402 
L 234.879711 124.958571 
L 235.327634 119.694347 
L 235.476942 119.0592 
L 235.626249 119.600928 
L 235.924865 124.399965 
L 236.970018 147.684332 
L 237.268633 149.897 
L 237.417941 150.241224 
L 237.567249 149.908289 
L 237.865864 148.40247 
L 238.164479 143.408687 
L 239.060325 122.762606 
L 239.35894 119.864838 
L 239.508248 119.362023 
L 239.657556 119.490058 
L 239.956171 121.201385 
L 241.001325 129.748725 
L 241.150632 129.740867 
L 241.29994 129.242461 
L 241.598555 126.986733 
L 242.345093 119.117224 
L 242.793016 117.579752 
L 242.942324 117.489451 
L 243.091632 118.100635 
L 243.539554 122.579897 
L 244.4354 133.808256 
L 244.734016 135.22214 
L 244.883323 135.193762 
L 245.032631 134.918083 
L 246.675015 122.395067 
L 246.824323 122.289978 
L 246.97363 122.356834 
L 247.272246 122.968704 
L 248.018784 124.863087 
L 248.168092 124.814425 
L 248.616014 124.108375 
L 250.109091 120.484666 
L 250.258399 121.117335 
L 250.706321 123.897693 
L 250.855629 124.310082 
L 251.154244 124.227011 
L 252.199398 122.707457 
L 252.647321 122.077069 
L 252.796629 121.932949 
L 252.945936 121.982509 
L 253.244551 122.556464 
L 253.99109 124.622647 
L 254.140397 124.700268 
L 254.289705 124.581358 
L 255.185551 122.220366 
L 255.633474 120.670762 
L 255.782781 120.433049 
L 255.932089 120.563212 
L 256.230704 121.849908 
L 256.678627 125.889892 
L 257.425166 134.907916 
L 257.723781 135.616574 
L 257.873089 135.562186 
L 258.321011 134.28215 
L 258.619627 132.44695 
L 258.918242 128.617381 
L 259.515473 120.142376 
L 259.66478 119.717506 
L 259.814088 119.802037 
L 259.963396 120.183946 
L 261.008549 125.574352 
L 261.157857 125.612323 
L 261.456472 125.286785 
L 261.755087 123.916959 
L 262.053703 120.997086 
L 263.098856 107.072561 
L 263.248164 106.902975 
L 263.397471 107.371567 
L 263.696087 110.533394 
L 264.14401 119.519684 
L 264.74124 132.864648 
L 265.039856 135.914706 
L 265.338471 137.15601 
L 265.487778 136.651929 
L 265.786394 134.097844 
L 266.383624 124.502284 
L 266.980855 115.807572 
L 267.130163 115.113409 
L 267.27947 115.381448 
L 267.578085 117.751084 
L 268.324624 125.659369 
L 268.473931 125.869933 
L 268.772547 124.28262 
L 269.071162 120.744576 
L 269.369777 115.225976 
L 270.414931 90.231251 
L 270.564238 89.263879 
L 270.713546 89.425732 
L 271.012161 92.472796 
L 271.310777 98.01825 
L 272.35593 124.678182 
L 272.654545 127.320567 
L 272.803853 127.190523 
L 273.102468 124.472671 
L 273.998314 112.561444 
L 274.29693 111.438956 
L 274.446237 111.835947 
L 274.744852 114.686606 
L 275.790006 129.949061 
L 275.939314 130.334575 
L 276.088621 129.917189 
L 276.387237 127.285676 
L 276.685852 122.084934 
L 277.731005 98.339896 
L 277.880313 96.961563 
L 278.029621 96.688815 
L 278.178928 97.465831 
L 278.626851 103.093739 
L 279.074774 111.784116 
L 279.522697 120.505591 
L 279.672005 121.41218 
L 279.821312 121.393061 
L 280.269235 119.309151 
L 280.717158 117.487118 
L 281.015774 117.021339 
L 281.165081 117.085662 
L 281.463697 118.077153 
L 281.91162 119.743652 
L 282.210235 119.96417 
L 282.50885 119.605307 
L 282.658158 119.01168 
L 283.255388 114.515522 
L 283.703311 109.125061 
L 283.852619 108.51339 
L 284.001927 108.799485 
L 284.300542 111.628127 
L 284.897772 121.358116 
L 285.345695 127.058397 
L 285.644311 128.414676 
L 285.793618 128.228312 
L 286.092234 126.586063 
L 286.390849 123.331415 
L 286.988079 114.553569 
L 287.286695 113.310019 
L 287.436002 113.424033 
L 287.58531 113.880463 
L 287.883925 116.610977 
L 288.779771 129.286308 
L 288.929079 129.083977 
L 289.227694 125.673609 
L 289.675617 115.229207 
L 290.571463 90.352562 
L 290.720771 88.68433 
L 290.870078 88.559463 
L 291.168694 90.74369 
L 291.467309 96.004046 
L 292.960385 129.592611 
L 293.109693 129.047241 
L 293.408308 124.946758 
L 294.005539 115.953738 
L 294.154846 115.305929 
L 294.304154 115.440825 
L 294.602769 118.425806 
L 295.050692 125.868168 
L 295.946538 140.647717 
L 296.245154 143.128517 
L 296.394461 143.338894 
L 296.543769 142.579404 
L 296.842384 137.990969 
L 297.439615 122.105317 
L 297.887538 110.41726 
L 298.036845 108.75015 
L 298.186153 109.058761 
L 299.081999 117.224157 
L 299.679229 125.496276 
L 300.127152 131.327518 
L 300.27646 132.322333 
L 300.425768 132.493666 
L 300.724383 130.291601 
L 301.172306 126.578915 
L 301.620229 124.668864 
L 301.769536 124.349201 
L 301.918844 124.550534 
L 302.217459 127.758846 
L 303.411921 146.69538 
L 303.561228 147.031434 
L 303.710536 147.050395 
L 304.009151 145.490376 
L 304.307766 142.477552 
L 305.651535 126.728405 
L 305.800843 126.861149 
L 306.398073 129.11404 
L 307.144612 133.056376 
L 307.293919 133.160722 
L 307.592535 132.431732 
L 308.040458 130.657718 
L 308.786996 127.319419 
L 309.085611 127.326535 
L 309.384226 127.688804 
L 310.727995 133.012155 
L 311.02661 131.88106 
L 311.623841 129.117346 
L 312.071764 129.7733 
L 312.370379 130.297714 
L 312.519687 130.103366 
L 313.266225 127.789159 
L 313.415533 127.717931 
L 313.714148 128.046688 
L 314.012763 128.299103 
L 314.162071 128.232615 
L 314.759302 127.269267 
L 315.057917 126.404008 
L 315.207225 126.334976 
L 315.356532 126.699571 
L 315.655148 128.531933 
L 316.401686 134.017385 
L 316.550993 134.224519 
L 316.700301 134.035473 
L 316.998916 132.90918 
L 317.446839 129.163874 
L 317.894762 125.576198 
L 318.6413 120.913498 
L 318.790608 120.585557 
L 318.939916 120.545973 
L 319.238531 121.243708 
L 319.537146 123.050927 
L 320.134377 127.853463 
L 320.432992 128.629668 
L 320.5823 128.341265 
L 320.880915 126.732996 
L 321.926069 119.463282 
L 322.075376 119.400362 
L 322.224684 119.826673 
L 322.523299 122.65423 
L 322.971222 130.4131 
L 323.71776 143.864555 
L 324.016376 146.009363 
L 324.165683 145.762749 
L 324.314991 144.997521 
L 324.762914 139.449573 
L 325.509452 127.280144 
L 325.957375 120.675602 
L 326.106683 119.546316 
L 326.25599 119.370817 
L 326.405298 120.018888 
L 326.703913 123.36943 
L 327.301144 129.688475 
L 327.599759 130.479525 
L 327.749067 129.991473 
L 327.898374 128.88464 
L 328.346297 121.069368 
L 329.092836 107.694523 
L 329.391451 105.814167 
L 329.540759 106.391035 
L 329.839374 109.843198 
L 330.287297 118.465854 
L 331.183143 139.804027 
L 331.481758 142.29649 
L 331.780373 143.099764 
L 331.929681 142.678636 
L 332.228296 137.276573 
L 332.974834 115.859545 
L 333.27345 113.510167 
L 333.422757 114.142857 
L 333.721373 117.760696 
L 334.318603 125.962516 
L 334.617219 126.884127 
L 334.766526 126.822897 
L 334.915834 126.541374 
L 335.065141 125.452211 
L 335.363757 120.429057 
L 335.81168 108.205902 
L 336.40891 92.962033 
L 336.707526 89.063856 
L 336.856833 88.356571 
L 337.006141 88.858656 
L 337.304756 93.178772 
L 338.648525 119.472638 
L 338.797833 120.36126 
L 338.94714 120.529229 
L 339.096448 120.181669 
L 339.395063 118.365443 
L 340.440217 107.182396 
L 340.589524 107.359779 
L 340.88814 109.260468 
L 341.48537 114.62542 
L 341.634678 115.3019 
L 341.783986 115.397047 
L 341.933293 115.289289 
L 342.381216 114.483963 
L 342.530524 113.832437 
L 342.978447 109.362756 
L 343.277062 106.756216 
L 343.42637 106.191947 
L 343.575677 106.15808 
L 343.724985 106.618439 
L 344.0236 109.195914 
L 344.620831 115.975019 
L 344.919446 117.33257 
L 345.068754 117.274465 
L 345.367369 115.711146 
L 346.263215 108.741979 
L 346.412523 108.584867 
L 346.56183 108.81857 
L 346.860446 110.567199 
L 347.756291 118.560333 
L 347.905599 118.517535 
L 348.054907 117.621659 
L 348.353522 113.621998 
L 349.547983 90.425287 
L 349.846598 88.43809 
L 349.995906 89.222153 
L 350.294521 94.677917 
L 351.339675 126.195896 
L 351.63829 129.796502 
L 351.787598 130.436676 
L 351.936905 130.39364 
L 352.086213 129.762821 
L 352.384828 126.597327 
L 353.429982 110.457738 
L 353.57929 110.263453 
L 353.728597 110.988764 
L 354.027213 114.43469 
L 354.773751 125.741031 
L 354.923058 126.709407 
L 355.072366 126.877447 
L 355.221674 126.107822 
L 355.520289 122.364094 
L 355.968212 111.968048 
L 356.71475 94.13448 
L 357.162673 88.634994 
L 357.311981 87.669307 
L 357.461288 87.614233 
L 357.610596 89.236436 
L 357.909211 98.185528 
L 358.506442 117.273935 
L 358.805057 121.810066 
L 358.954365 122.81544 
L 359.103672 123.029734 
L 359.402288 121.598859 
L 359.700903 119.394531 
L 360.298134 114.536666 
L 360.596749 113.830379 
L 360.746057 114.229926 
L 361.044672 116.087311 
L 361.343287 119.501191 
L 362.239133 133.960378 
L 362.388441 134.682383 
L 362.537748 134.668724 
L 362.687056 134.014392 
L 362.985671 130.968761 
L 363.582902 120.512889 
L 364.180132 111.638293 
L 364.478748 108.614992 
L 364.628055 108.415343 
L 364.926671 111.050885 
L 365.374594 116.544608 
L 366.121132 127.570736 
L 366.270439 127.148429 
L 366.86767 123.190713 
L 367.016978 122.890722 
L 367.166285 123.440483 
L 367.464901 125.434909 
L 367.614208 125.750986 
L 367.763516 125.660966 
L 368.211439 122.970843 
L 368.360747 123.619893 
L 368.808669 129.607268 
L 369.107285 133.036043 
L 369.4059 134.434522 
L 369.704515 134.879038 
L 370.301746 134.500385 
L 370.600361 133.556465 
L 371.048284 130.370126 
L 371.346899 128.355798 
L 371.645515 127.559696 
L 371.794822 127.509737 
L 372.093438 128.338147 
L 372.392053 129.394147 
L 372.541361 129.401008 
L 373.138591 128.24116 
L 373.287899 128.376817 
L 373.885129 130.60857 
L 374.034437 130.5215 
L 374.631668 128.589376 
L 374.780975 128.71574 
L 375.826129 132.105969 
L 375.975436 131.831412 
L 376.274052 129.850639 
L 376.871282 124.151586 
L 377.169898 122.808554 
L 377.617821 122.969309 
L 378.215051 122.07841 
L 378.364359 122.369751 
L 378.662974 124.560925 
L 379.110897 128.220328 
L 379.260205 128.733578 
L 379.409512 128.826635 
L 379.55882 128.587256 
L 379.857435 127.371586 
L 380.305358 124.318502 
L 380.603974 122.582865 
L 380.753281 122.246874 
L 380.902589 122.32823 
L 381.051896 122.687505 
L 381.350512 124.252289 
L 381.798435 128.53555 
L 382.694281 138.121885 
L 382.843588 138.737797 
L 382.992896 138.507025 
L 383.291511 136.818397 
L 383.590126 133.450996 
L 384.038049 125.003503 
L 384.63528 114.242525 
L 384.933895 112.173373 
L 385.083203 112.543481 
L 385.381818 115.559648 
L 385.829741 121.35554 
L 386.277664 124.42298 
L 386.576279 125.362815 
L 386.725587 125.497112 
L 386.874895 125.324276 
L 387.024202 124.873004 
L 387.322818 122.655883 
L 388.069356 115.087475 
L 388.218663 114.974054 
L 388.367971 115.327198 
L 388.666586 117.835017 
L 388.965202 123.293675 
L 390.010355 148.150305 
L 390.159663 148.923641 
L 390.30897 148.950647 
L 390.458278 148.671039 
L 390.607586 147.837016 
L 391.055509 141.692366 
L 391.503432 131.58012 
L 391.951355 119.833703 
L 392.100662 117.999083 
L 392.24997 117.549633 
L 392.399278 118.174214 
L 392.697893 121.12158 
L 393.295123 127.297159 
L 393.743046 129.205413 
L 393.892354 129.517579 
L 394.041662 129.111545 
L 394.340277 126.146286 
L 394.638892 121.203393 
L 395.534738 104.18685 
L 395.684046 103.949155 
L 395.833353 104.765152 
L 396.131969 109.029633 
L 396.729199 124.996099 
L 397.32643 139.039111 
L 397.774353 145.240269 
L 397.92366 145.311995 
L 398.072968 143.780292 
L 398.520891 133.479874 
L 399.118122 117.495152 
L 399.267429 116.292524 
L 399.416737 116.526851 
L 400.013967 121.069772 
L 400.909813 123.369611 
L 401.059121 123.249448 
L 401.208429 122.408857 
L 401.507044 118.470326 
L 402.40289 102.056886 
L 402.850813 100.08341 
L 403.149428 99.183898 
L 403.298736 99.37257 
L 403.597351 101.502534 
L 404.343889 109.377288 
L 404.493197 109.76299 
L 404.642505 109.614609 
L 405.239735 107.051043 
L 405.53835 104.755048 
L 405.836966 102.325579 
L 405.986273 101.783889 
L 406.135581 101.679667 
L 406.284889 101.774658 
L 406.434196 102.022208 
L 406.732812 103.824725 
L 407.180734 107.438865 
L 407.330042 107.009754 
L 407.628657 103.397173 
L 408.225888 93.891671 
L 408.524503 93.047606 
L 408.673811 92.920806 
L 408.823119 93.240207 
L 408.972426 94.339618 
L 409.271042 99.858314 
L 410.465503 133.988196 
L 410.61481 134.905047 
L 410.764118 134.699722 
L 410.913426 133.831396 
L 411.212041 129.801678 
L 412.257194 110.804957 
L 412.55581 109.547935 
L 412.705117 109.867336 
L 413.003733 112.448927 
L 413.899579 123.393144 
L 414.048886 123.715414 
L 414.198194 123.167885 
L 414.496809 119.797128 
L 414.944732 110.354203 
L 415.69127 94.14552 
L 415.840578 93.238897 
L 415.989886 93.915683 
L 416.437809 100.027339 
L 416.736424 106.064773 
L 417.781577 134.75885 
L 417.930885 136.192693 
L 418.080193 136.521824 
L 418.2295 135.885766 
L 418.528116 132.254287 
L 419.274654 120.738572 
L 419.722577 117.282729 
L 419.871884 117.018514 
L 420.021192 117.384662 
L 420.319807 120.036894 
L 421.066346 129.326413 
L 421.215653 130.167234 
L 421.364961 130.116339 
L 421.663576 127.270514 
L 422.111499 119.4093 
L 423.156653 99.274336 
L 423.30596 98.311018 
L 423.455268 98.470189 
L 423.753883 101.930086 
L 424.351114 112.731654 
L 424.948344 118.232943 
L 425.545575 124.226599 
L 425.694883 124.839729 
L 425.84419 124.675563 
L 426.142806 121.713303 
L 426.590728 115.966705 
L 426.740036 115.350138 
L 426.889344 115.415384 
L 427.038651 115.840404 
L 427.337267 118.588494 
L 427.934497 125.185775 
L 428.38242 128.120098 
L 428.681036 128.855949 
L 428.830343 128.767445 
L 429.128958 127.799824 
L 429.427574 125.648997 
L 430.622035 114.753654 
L 430.771343 114.508786 
L 430.92065 115.115885 
L 431.517881 120.614609 
L 431.667188 120.910995 
L 432.563034 124.872461 
L 432.86165 126.50392 
L 433.010957 126.5892 
L 433.160265 126.111271 
L 433.608188 122.954976 
L 433.757495 122.309326 
L 433.906803 122.338072 
L 434.056111 122.252793 
L 434.205418 122.528272 
L 434.653341 126.284836 
L 435.101264 127.481733 
L 435.39988 127.603917 
L 435.549187 127.469508 
L 435.698495 127.155309 
L 436.445033 124.69811 
L 436.594341 124.644858 
L 436.892956 124.988178 
L 437.191571 125.673047 
L 437.93811 128.730958 
L 438.386033 130.900902 
L 438.53534 130.353099 
L 438.833955 128.436256 
L 438.983263 128.4995 
L 439.132571 128.70233 
L 439.281878 128.579709 
L 439.431186 128.308645 
L 440.028417 126.090782 
L 440.177724 126.404065 
L 440.625647 128.752102 
L 440.924262 129.222004 
L 441.222878 130.721024 
L 441.670801 133.918403 
L 441.820108 133.62657 
L 441.969416 132.806955 
L 442.566647 126.253582 
L 443.761108 110.480566 
L 443.910415 110.547739 
L 444.209031 111.73422 
L 444.507646 114.047305 
L 445.403492 125.748541 
L 445.5528 126.195833 
L 445.702107 126.123009 
L 445.851415 125.67939 
L 446.15003 123.445454 
L 446.747261 118.251791 
L 447.045876 117.047535 
L 447.195184 116.943931 
L 447.344491 117.202065 
L 447.493799 117.903001 
L 447.792414 120.814339 
L 448.240337 128.561122 
L 448.837568 137.923234 
L 449.136183 139.386017 
L 449.285491 139.154809 
L 449.434798 138.370558 
L 449.584106 136.755964 
L 449.882721 129.761013 
L 450.629259 109.793614 
L 451.077182 104.505565 
L 451.22649 104.044021 
L 451.375798 104.050881 
L 451.525105 104.471635 
L 451.674413 105.253266 
L 451.973028 109.319471 
L 452.570259 120.817927 
L 452.719567 122.126773 
L 452.868874 122.254502 
L 453.018182 121.528894 
L 453.316797 118.115904 
L 454.063335 108.840774 
L 454.212643 108.252306 
L 454.361951 108.229665 
L 454.511258 108.736927 
L 454.809874 110.896205 
L 455.108489 114.495439 
L 455.407104 120.590943 
L 456.452258 147.891528 
L 456.601565 148.428853 
L 456.750873 147.216987 
L 457.198796 137.533105 
L 457.646719 127.769761 
L 458.542565 113.973894 
L 458.691872 113.37214 
L 458.84118 113.754099 
L 459.139795 116.632114 
L 459.886334 126.587011 
L 460.035641 126.726347 
L 460.184949 126.223563 
L 460.483564 123.512596 
L 461.678025 105.971092 
L 461.827333 105.414682 
L 461.976641 105.410129 
L 462.125948 106.238601 
L 462.424564 110.260958 
L 463.469717 129.447599 
L 463.91764 130.625847 
L 464.066948 130.388463 
L 464.514871 126.162939 
L 465.261409 117.642709 
L 465.709332 111.229827 
L 465.858639 110.583977 
L 466.007947 110.479381 
L 466.306562 110.828845 
L 466.605178 111.359932 
L 467.053101 109.623279 
L 467.351716 107.019297 
L 467.650331 104.362424 
L 468.098254 104.174688 
L 468.247562 104.813178 
L 468.546177 107.894297 
L 469.591331 123.132696 
L 469.740638 122.557805 
L 470.039253 118.840921 
L 470.636484 106.024357 
L 471.084407 96.545425 
L 471.383022 93.997763 
L 471.53233 93.821316 
L 471.681638 94.051714 
L 471.830945 95.107777 
L 473.174714 113.135505 
L 473.324022 113.991108 
L 473.473329 113.795077 
L 473.622637 111.816612 
L 474.219868 99.743739 
L 474.518483 97.463399 
L 474.66779 97.716687 
L 474.966406 100.07287 
L 475.265021 103.971982 
L 475.563636 110.863648 
L 476.60879 145.324906 
L 476.758098 146.652968 
L 476.907405 146.813448 
L 477.056713 145.988781 
L 477.355328 142.193952 
L 478.549789 121.84722 
L 478.699097 121.598926 
L 478.848405 121.680854 
L 478.997712 121.972099 
L 479.14702 122.595733 
L 479.445635 125.350428 
L 480.042866 132.912611 
L 480.192173 133.852227 
L 480.341481 134.046887 
L 480.490789 133.424239 
L 480.789404 129.743611 
L 482.133173 107.788953 
L 482.28248 106.673138 
L 482.431788 106.99965 
L 482.730403 113.831626 
L 483.626249 137.410234 
L 483.924865 140.90113 
L 484.22348 142.472937 
L 484.372787 142.662919 
L 484.522095 142.480234 
L 484.82071 140.624702 
L 485.417941 133.086314 
L 485.865864 128.697715 
L 486.015172 128.274965 
L 486.164479 128.45871 
L 486.463095 130.212889 
L 487.209633 136.56698 
L 487.35894 136.952494 
L 487.508248 137.029585 
L 487.657556 136.80112 
L 487.806863 136.237226 
L 488.105479 133.1833 
L 488.852017 122.187815 
L 489.29994 116.427351 
L 489.449247 115.843566 
L 489.598555 115.834223 
L 489.747863 116.041749 
L 490.046478 118.461669 
L 491.539554 130.093823 
L 491.688862 129.972325 
L 492.136785 128.601539 
L 493.032631 125.521143 
L 493.181939 125.259753 
L 493.331246 125.225075 
L 493.480554 125.636043 
L 494.077784 128.631851 
L 494.3764 128.992043 
L 494.525707 128.993851 
L 495.122938 128.539106 
L 496.168092 126.066233 
L 496.616014 126.115724 
L 496.765322 126.543856 
L 496.91463 126.36716 
L 497.063937 126.452664 
L 497.362553 127.506619 
L 498.109091 130.144219 
L 498.109091 130.144219 
" style="fill:none;stroke:#4c72b0;stroke-linecap:round;stroke-width:1.75;"/>
   </g>
   <g id="patch_3">
    <path d="M 72 352.44 
L 72 47.52 
" style="fill:none;"/>
   </g>
   <g id="patch_4">
    <path d="M 518.4 352.44 
L 518.4 47.52 
" style="fill:none;"/>
   </g>
   <g id="patch_5">
    <path d="M 72 352.44 
L 518.4 352.44 
" style="fill:none;"/>
   </g>
   <g id="patch_6">
    <path d="M 72 47.52 
L 518.4 47.52 
" style="fill:none;"/>
   </g>
  </g>
 </g>
 <defs>
  <clipPath id="p80434dc60a">
   <rect height="304.92" width="446.4" x="72" y="47.52"/>
  </clipPath>
 </defs>
</svg>
