<?xml version="1.0" encoding="utf-8" standalone="no"?>
<!DOCTYPE svg PUBLIC "-//W3C//DTD SVG 1.1//EN"
  "http://www.w3.org/Graphics/SVG/1.1/DTD/svg11.dtd">
<!-- Created with matplotlib (http://matplotlib.org/) -->
<svg height="396pt" version="1.1" viewBox="0 0 576 396" width="576pt" xmlns="http://www.w3.org/2000/svg" xmlns:xlink="http://www.w3.org/1999/xlink">
 <defs>
  <style type="text/css">
*{stroke-linecap:butt;stroke-linejoin:round;}
  </style>
 </defs>
 <g id="figure_1">
  <g id="patch_1">
   <path d="M 0 396 
L 576 396 
L 576 0 
L 0 0 
z
" style="fill:#ffffff;"/>
  </g>
  <g id="axes_1">
   <g id="patch_2">
    <path d="M 72 352.44 
L 518.4 352.44 
L 518.4 47.52 
L 72 47.52 
z
" style="fill:#eaeaf2;"/>
   </g>
   <g id="matplotlib.axis_1">
    <g id="xtick_1">
     <g id="line2d_1">
      <path clip-path="url(#p7ae4cb9c75)" d="M 92.290909 352.44 
L 92.290909 47.52 
" style="fill:none;stroke:#ffffff;stroke-linecap:round;"/>
     </g>
     <g id="line2d_2"/>
     <g id="text_1">
      <!-- 0.00 -->
      <defs>
       <path d="M 51.703125 34.421875 
Q 51.703125 24.515625 49.828125 17.75 
Q 47.953125 10.984375 44.703125 6.8125 
Q 41.453125 2.640625 37.0625 0.828125 
Q 32.671875 -0.984375 27.6875 -0.984375 
Q 22.65625 -0.984375 18.3125 0.828125 
Q 13.96875 2.640625 10.765625 6.78125 
Q 7.5625 10.9375 5.734375 17.703125 
Q 3.90625 24.46875 3.90625 34.421875 
Q 3.90625 44.828125 5.734375 51.640625 
Q 7.5625 58.453125 10.78125 62.5 
Q 14.015625 66.546875 18.40625 68.1875 
Q 22.796875 69.828125 27.984375 69.828125 
Q 32.90625 69.828125 37.21875 68.1875 
Q 41.546875 66.546875 44.765625 62.5 
Q 48 58.453125 49.84375 51.640625 
Q 51.703125 44.828125 51.703125 34.421875 
M 42.78125 34.421875 
Q 42.78125 42.625 41.796875 48.0625 
Q 40.828125 53.515625 38.921875 56.765625 
Q 37.015625 60.015625 34.25 61.359375 
Q 31.5 62.703125 27.984375 62.703125 
Q 24.265625 62.703125 21.4375 61.328125 
Q 18.609375 59.96875 16.671875 56.71875 
Q 14.75 53.46875 13.765625 48.015625 
Q 12.796875 42.578125 12.796875 34.421875 
Q 12.796875 26.515625 13.796875 21.09375 
Q 14.796875 15.671875 16.71875 12.375 
Q 18.65625 9.078125 21.4375 7.640625 
Q 24.21875 6.203125 27.78125 6.203125 
Q 31.25 6.203125 34.03125 7.640625 
Q 36.8125 9.078125 38.734375 12.375 
Q 40.671875 15.671875 41.71875 21.09375 
Q 42.78125 26.515625 42.78125 34.421875 
" id="LiberationSans-30"/>
       <path d="M 9.125 0 
L 9.125 10.6875 
L 18.65625 10.6875 
L 18.65625 0 
z
" id="LiberationSans-2e"/>
      </defs>
      <g style="fill:#262626;" transform="translate(82.56044 366.686875)scale(0.1 -0.1)">
       <use xlink:href="#LiberationSans-30"/>
       <use x="55.615234" xlink:href="#LiberationSans-2e"/>
       <use x="83.398438" xlink:href="#LiberationSans-30"/>
       <use x="139.013672" xlink:href="#LiberationSans-30"/>
      </g>
     </g>
    </g>
    <g id="xtick_2">
     <g id="line2d_3">
      <path clip-path="url(#p7ae4cb9c75)" d="M 158.087166 352.44 
L 158.087166 47.52 
" style="fill:none;stroke:#ffffff;stroke-linecap:round;"/>
     </g>
     <g id="line2d_4"/>
     <g id="text_2">
      <!-- 0.01 -->
      <defs>
       <path d="M 7.625 0 
L 7.625 7.46875 
L 25.140625 7.46875 
L 25.140625 60.40625 
L 9.625 49.3125 
L 9.625 57.625 
L 25.875 68.796875 
L 33.984375 68.796875 
L 33.984375 7.46875 
L 50.734375 7.46875 
L 50.734375 0 
z
" id="LiberationSans-31"/>
      </defs>
      <g style="fill:#262626;" transform="translate(148.356697 366.686875)scale(0.1 -0.1)">
       <use xlink:href="#LiberationSans-30"/>
       <use x="55.615234" xlink:href="#LiberationSans-2e"/>
       <use x="83.398438" xlink:href="#LiberationSans-30"/>
       <use x="139.013672" xlink:href="#LiberationSans-31"/>
      </g>
     </g>
    </g>
    <g id="xtick_3">
     <g id="line2d_5">
      <path clip-path="url(#p7ae4cb9c75)" d="M 223.883422 352.44 
L 223.883422 47.52 
" style="fill:none;stroke:#ffffff;stroke-linecap:round;"/>
     </g>
     <g id="line2d_6"/>
     <g id="text_3">
      <!-- 0.02 -->
      <defs>
       <path d="M 5.03125 0 
L 5.03125 6.203125 
Q 7.515625 11.921875 11.109375 16.28125 
Q 14.703125 20.65625 18.65625 24.1875 
Q 22.609375 27.734375 26.484375 30.765625 
Q 30.375 33.796875 33.5 36.8125 
Q 36.625 39.84375 38.546875 43.15625 
Q 40.484375 46.484375 40.484375 50.6875 
Q 40.484375 53.609375 39.59375 55.828125 
Q 38.71875 58.0625 37.0625 59.5625 
Q 35.40625 61.078125 33.078125 61.828125 
Q 30.765625 62.59375 27.9375 62.59375 
Q 25.296875 62.59375 22.96875 61.859375 
Q 20.65625 61.140625 18.84375 59.671875 
Q 17.046875 58.203125 15.890625 56.03125 
Q 14.75 53.859375 14.40625 50.984375 
L 5.421875 51.8125 
Q 5.859375 55.515625 7.46875 58.78125 
Q 9.078125 62.0625 11.90625 64.53125 
Q 14.75 67 18.71875 68.40625 
Q 22.703125 69.828125 27.9375 69.828125 
Q 33.0625 69.828125 37.0625 68.609375 
Q 41.0625 67.390625 43.8125 64.984375 
Q 46.578125 62.59375 48.046875 59.078125 
Q 49.515625 55.5625 49.515625 50.984375 
Q 49.515625 47.515625 48.265625 44.390625 
Q 47.015625 41.265625 44.9375 38.421875 
Q 42.875 35.59375 40.140625 32.953125 
Q 37.40625 30.328125 34.421875 27.8125 
Q 31.453125 25.296875 28.421875 22.828125 
Q 25.390625 20.359375 22.71875 17.859375 
Q 20.0625 15.375 17.96875 12.8125 
Q 15.875 10.25 14.703125 7.46875 
L 50.59375 7.46875 
L 50.59375 0 
z
" id="LiberationSans-32"/>
      </defs>
      <g style="fill:#262626;" transform="translate(214.152954 366.686875)scale(0.1 -0.1)">
       <use xlink:href="#LiberationSans-30"/>
       <use x="55.615234" xlink:href="#LiberationSans-2e"/>
       <use x="83.398438" xlink:href="#LiberationSans-30"/>
       <use x="139.013672" xlink:href="#LiberationSans-32"/>
      </g>
     </g>
    </g>
    <g id="xtick_4">
     <g id="line2d_7">
      <path clip-path="url(#p7ae4cb9c75)" d="M 289.679679 352.44 
L 289.679679 47.52 
" style="fill:none;stroke:#ffffff;stroke-linecap:round;"/>
     </g>
     <g id="line2d_8"/>
     <g id="text_4">
      <!-- 0.03 -->
      <defs>
       <path d="M 51.21875 19 
Q 51.21875 14.265625 49.671875 10.546875 
Q 48.140625 6.84375 45.1875 4.265625 
Q 42.234375 1.703125 37.859375 0.359375 
Q 33.5 -0.984375 27.875 -0.984375 
Q 21.484375 -0.984375 17.109375 0.609375 
Q 12.75 2.203125 9.90625 4.8125 
Q 7.078125 7.421875 5.65625 10.765625 
Q 4.25 14.109375 3.8125 17.671875 
L 12.890625 18.5 
Q 13.28125 15.765625 14.328125 13.515625 
Q 15.375 11.28125 17.1875 9.671875 
Q 19 8.0625 21.625 7.171875 
Q 24.265625 6.296875 27.875 6.296875 
Q 34.515625 6.296875 38.296875 9.5625 
Q 42.09375 12.84375 42.09375 19.28125 
Q 42.09375 23.09375 40.40625 25.40625 
Q 38.71875 27.734375 36.203125 29.03125 
Q 33.6875 30.328125 30.734375 30.765625 
Q 27.78125 31.203125 25.296875 31.203125 
L 20.3125 31.203125 
L 20.3125 38.8125 
L 25.09375 38.8125 
Q 27.59375 38.8125 30.265625 39.328125 
Q 32.953125 39.84375 35.171875 41.1875 
Q 37.40625 42.53125 38.84375 44.828125 
Q 40.28125 47.125 40.28125 50.6875 
Q 40.28125 56.203125 37.03125 59.390625 
Q 33.796875 62.59375 27.390625 62.59375 
Q 21.578125 62.59375 17.984375 59.609375 
Q 14.40625 56.640625 13.8125 51.21875 
L 4.984375 51.90625 
Q 5.515625 56.453125 7.46875 59.8125 
Q 9.421875 63.1875 12.421875 65.40625 
Q 15.4375 67.625 19.28125 68.71875 
Q 23.140625 69.828125 27.484375 69.828125 
Q 33.25 69.828125 37.390625 68.375 
Q 41.546875 66.9375 44.1875 64.46875 
Q 46.828125 62.015625 48.0625 58.6875 
Q 49.3125 55.375 49.3125 51.609375 
Q 49.3125 48.578125 48.484375 45.9375 
Q 47.65625 43.3125 45.890625 41.203125 
Q 44.140625 39.109375 41.421875 37.59375 
Q 38.71875 36.078125 34.90625 35.296875 
L 34.90625 35.109375 
Q 39.0625 34.671875 42.140625 33.21875 
Q 45.21875 31.78125 47.21875 29.625 
Q 49.21875 27.484375 50.21875 24.75 
Q 51.21875 22.015625 51.21875 19 
" id="LiberationSans-33"/>
      </defs>
      <g style="fill:#262626;" transform="translate(279.94921 366.686875)scale(0.1 -0.1)">
       <use xlink:href="#LiberationSans-30"/>
       <use x="55.615234" xlink:href="#LiberationSans-2e"/>
       <use x="83.398438" xlink:href="#LiberationSans-30"/>
       <use x="139.013672" xlink:href="#LiberationSans-33"/>
      </g>
     </g>
    </g>
    <g id="xtick_5">
     <g id="line2d_9">
      <path clip-path="url(#p7ae4cb9c75)" d="M 355.475936 352.44 
L 355.475936 47.52 
" style="fill:none;stroke:#ffffff;stroke-linecap:round;"/>
     </g>
     <g id="line2d_10"/>
     <g id="text_5">
      <!-- 0.04 -->
      <defs>
       <path d="M 43.015625 15.578125 
L 43.015625 0 
L 34.71875 0 
L 34.71875 15.578125 
L 2.296875 15.578125 
L 2.296875 22.40625 
L 33.796875 68.796875 
L 43.015625 68.796875 
L 43.015625 22.515625 
L 52.6875 22.515625 
L 52.6875 15.578125 
z
M 34.71875 58.890625 
Q 34.625 58.640625 34.234375 57.9375 
Q 33.84375 57.234375 33.34375 56.34375 
Q 32.859375 55.46875 32.34375 54.5625 
Q 31.84375 53.65625 31.453125 53.078125 
L 13.8125 27.09375 
Q 13.578125 26.703125 13.109375 26.0625 
Q 12.640625 25.4375 12.15625 24.78125 
Q 11.671875 24.125 11.171875 23.484375 
Q 10.6875 22.859375 10.40625 22.515625 
L 34.71875 22.515625 
z
" id="LiberationSans-34"/>
      </defs>
      <g style="fill:#262626;" transform="translate(345.745467 366.686875)scale(0.1 -0.1)">
       <use xlink:href="#LiberationSans-30"/>
       <use x="55.615234" xlink:href="#LiberationSans-2e"/>
       <use x="83.398438" xlink:href="#LiberationSans-30"/>
       <use x="139.013672" xlink:href="#LiberationSans-34"/>
      </g>
     </g>
    </g>
    <g id="xtick_6">
     <g id="line2d_11">
      <path clip-path="url(#p7ae4cb9c75)" d="M 421.272193 352.44 
L 421.272193 47.52 
" style="fill:none;stroke:#ffffff;stroke-linecap:round;"/>
     </g>
     <g id="line2d_12"/>
     <g id="text_6">
      <!-- 0.05 -->
      <defs>
       <path d="M 51.421875 22.40625 
Q 51.421875 17.234375 49.859375 12.9375 
Q 48.296875 8.640625 45.21875 5.53125 
Q 42.140625 2.4375 37.578125 0.71875 
Q 33.015625 -0.984375 27 -0.984375 
Q 21.578125 -0.984375 17.546875 0.28125 
Q 13.53125 1.5625 10.734375 3.78125 
Q 7.953125 6 6.3125 8.984375 
Q 4.6875 11.96875 4 15.375 
L 12.890625 16.40625 
Q 13.421875 14.453125 14.390625 12.625 
Q 15.375 10.796875 17.0625 9.34375 
Q 18.75 7.90625 21.21875 7.046875 
Q 23.6875 6.203125 27.203125 6.203125 
Q 30.609375 6.203125 33.390625 7.25 
Q 36.1875 8.296875 38.15625 10.34375 
Q 40.140625 12.40625 41.203125 15.375 
Q 42.28125 18.359375 42.28125 22.21875 
Q 42.28125 25.390625 41.25 28.046875 
Q 40.234375 30.71875 38.328125 32.640625 
Q 36.421875 34.578125 33.65625 35.640625 
Q 30.90625 36.71875 27.390625 36.71875 
Q 25.203125 36.71875 23.34375 36.328125 
Q 21.484375 35.9375 19.890625 35.25 
Q 18.3125 34.578125 17.015625 33.671875 
Q 15.71875 32.765625 14.59375 31.78125 
L 6 31.78125 
L 8.296875 68.796875 
L 47.40625 68.796875 
L 47.40625 61.328125 
L 16.3125 61.328125 
L 14.984375 39.5 
Q 17.328125 41.3125 20.84375 42.59375 
Q 24.359375 43.890625 29.203125 43.890625 
Q 34.328125 43.890625 38.421875 42.328125 
Q 42.53125 40.765625 45.40625 37.90625 
Q 48.296875 35.0625 49.859375 31.109375 
Q 51.421875 27.15625 51.421875 22.40625 
" id="LiberationSans-35"/>
      </defs>
      <g style="fill:#262626;" transform="translate(411.541724 366.686875)scale(0.1 -0.1)">
       <use xlink:href="#LiberationSans-30"/>
       <use x="55.615234" xlink:href="#LiberationSans-2e"/>
       <use x="83.398438" xlink:href="#LiberationSans-30"/>
       <use x="139.013672" xlink:href="#LiberationSans-35"/>
      </g>
     </g>
    </g>
    <g id="xtick_7">
     <g id="line2d_13">
      <path clip-path="url(#p7ae4cb9c75)" d="M 487.068449 352.44 
L 487.068449 47.52 
" style="fill:none;stroke:#ffffff;stroke-linecap:round;"/>
     </g>
     <g id="line2d_14"/>
     <g id="text_7">
      <!-- 0.06 -->
      <defs>
       <path d="M 51.21875 22.515625 
Q 51.21875 17.328125 49.78125 13 
Q 48.34375 8.6875 45.53125 5.578125 
Q 42.71875 2.484375 38.5625 0.75 
Q 34.421875 -0.984375 29 -0.984375 
Q 23 -0.984375 18.5 1.3125 
Q 14.015625 3.609375 11.03125 7.921875 
Q 8.0625 12.25 6.5625 18.53125 
Q 5.078125 24.8125 5.078125 32.8125 
Q 5.078125 42 6.765625 48.921875 
Q 8.453125 55.859375 11.625 60.5 
Q 14.796875 65.140625 19.359375 67.484375 
Q 23.921875 69.828125 29.6875 69.828125 
Q 33.203125 69.828125 36.28125 69.09375 
Q 39.359375 68.359375 41.875 66.71875 
Q 44.390625 65.09375 46.28125 62.40625 
Q 48.1875 59.71875 49.3125 55.8125 
L 40.921875 54.296875 
Q 39.546875 58.734375 36.546875 60.71875 
Q 33.546875 62.703125 29.59375 62.703125 
Q 25.984375 62.703125 23.046875 60.984375 
Q 20.125 59.28125 18.0625 55.875 
Q 16.015625 52.484375 14.90625 47.359375 
Q 13.8125 42.234375 13.8125 35.40625 
Q 16.21875 39.84375 20.5625 42.15625 
Q 24.90625 44.484375 30.515625 44.484375 
Q 35.203125 44.484375 39.015625 42.96875 
Q 42.828125 41.453125 45.53125 38.59375 
Q 48.25 35.75 49.734375 31.671875 
Q 51.21875 27.59375 51.21875 22.515625 
M 42.28125 22.125 
Q 42.28125 25.6875 41.40625 28.5625 
Q 40.53125 31.453125 38.765625 33.46875 
Q 37.015625 35.5 34.421875 36.59375 
Q 31.84375 37.703125 28.421875 37.703125 
Q 26.03125 37.703125 23.578125 36.984375 
Q 21.140625 36.28125 19.15625 34.6875 
Q 17.1875 33.109375 15.9375 30.515625 
Q 14.703125 27.9375 14.703125 24.21875 
Q 14.703125 20.40625 15.671875 17.109375 
Q 16.65625 13.8125 18.484375 11.375 
Q 20.3125 8.9375 22.890625 7.515625 
Q 25.484375 6.109375 28.71875 6.109375 
Q 31.890625 6.109375 34.40625 7.203125 
Q 36.921875 8.296875 38.671875 10.375 
Q 40.4375 12.453125 41.359375 15.421875 
Q 42.28125 18.40625 42.28125 22.125 
" id="LiberationSans-36"/>
      </defs>
      <g style="fill:#262626;" transform="translate(477.33798 366.686875)scale(0.1 -0.1)">
       <use xlink:href="#LiberationSans-30"/>
       <use x="55.615234" xlink:href="#LiberationSans-2e"/>
       <use x="83.398438" xlink:href="#LiberationSans-30"/>
       <use x="139.013672" xlink:href="#LiberationSans-36"/>
      </g>
     </g>
    </g>
   </g>
   <g id="matplotlib.axis_2">
    <g id="ytick_1">
     <g id="line2d_15">
      <path clip-path="url(#p7ae4cb9c75)" d="M 72 319.294051 
L 518.4 319.294051 
" style="fill:none;stroke:#ffffff;stroke-linecap:round;"/>
     </g>
     <g id="line2d_16"/>
     <g id="text_8">
      <!-- 0.0 -->
      <g style="fill:#262626;" transform="translate(51.1 322.917488)scale(0.1 -0.1)">
       <use xlink:href="#LiberationSans-30"/>
       <use x="55.615234" xlink:href="#LiberationSans-2e"/>
       <use x="83.398438" xlink:href="#LiberationSans-30"/>
      </g>
     </g>
    </g>
    <g id="ytick_2">
     <g id="line2d_17">
      <path clip-path="url(#p7ae4cb9c75)" d="M 72 256.875875 
L 518.4 256.875875 
" style="fill:none;stroke:#ffffff;stroke-linecap:round;"/>
     </g>
     <g id="line2d_18"/>
     <g id="text_9">
      <!-- 0.5 -->
      <g style="fill:#262626;" transform="translate(51.1 260.499313)scale(0.1 -0.1)">
       <use xlink:href="#LiberationSans-30"/>
       <use x="55.615234" xlink:href="#LiberationSans-2e"/>
       <use x="83.398438" xlink:href="#LiberationSans-35"/>
      </g>
     </g>
    </g>
    <g id="ytick_3">
     <g id="line2d_19">
      <path clip-path="url(#p7ae4cb9c75)" d="M 72 194.457699 
L 518.4 194.457699 
" style="fill:none;stroke:#ffffff;stroke-linecap:round;"/>
     </g>
     <g id="line2d_20"/>
     <g id="text_10">
      <!-- 1.0 -->
      <g style="fill:#262626;" transform="translate(51.1 198.081137)scale(0.1 -0.1)">
       <use xlink:href="#LiberationSans-31"/>
       <use x="55.615234" xlink:href="#LiberationSans-2e"/>
       <use x="83.398438" xlink:href="#LiberationSans-30"/>
      </g>
     </g>
    </g>
    <g id="ytick_4">
     <g id="line2d_21">
      <path clip-path="url(#p7ae4cb9c75)" d="M 72 132.039524 
L 518.4 132.039524 
" style="fill:none;stroke:#ffffff;stroke-linecap:round;"/>
     </g>
     <g id="line2d_22"/>
     <g id="text_11">
      <!-- 1.5 -->
      <g style="fill:#262626;" transform="translate(51.1 135.662961)scale(0.1 -0.1)">
       <use xlink:href="#LiberationSans-31"/>
       <use x="55.615234" xlink:href="#LiberationSans-2e"/>
       <use x="83.398438" xlink:href="#LiberationSans-35"/>
      </g>
     </g>
    </g>
    <g id="ytick_5">
     <g id="line2d_23">
      <path clip-path="url(#p7ae4cb9c75)" d="M 72 69.621348 
L 518.4 69.621348 
" style="fill:none;stroke:#ffffff;stroke-linecap:round;"/>
     </g>
     <g id="line2d_24"/>
     <g id="text_12">
      <!-- 2.0 -->
      <g style="fill:#262626;" transform="translate(51.1 73.244785)scale(0.1 -0.1)">
       <use xlink:href="#LiberationSans-32"/>
       <use x="55.615234" xlink:href="#LiberationSans-2e"/>
       <use x="83.398438" xlink:href="#LiberationSans-30"/>
      </g>
     </g>
    </g>
   </g>
   <g id="line2d_25">
    <path clip-path="url(#p7ae4cb9c75)" d="M 92.290909 63.247685 
L 92.440107 63.289362 
L 92.589305 63.905323 
L 92.887701 67.280911 
L 93.186096 73.923187 
L 93.63369 89.733545 
L 94.827273 138.964323 
L 95.125668 145.129003 
L 95.424064 147.226339 
L 95.573262 146.822988 
L 95.871658 143.597217 
L 96.468449 131.602713 
L 97.214439 117.483895 
L 98.706417 95.620936 
L 100.049198 63.760819 
L 100.198396 62.640891 
L 100.347594 62.511122 
L 100.496791 63.430557 
L 100.795187 68.432864 
L 101.242781 82.743529 
L 102.585561 132.647384 
L 103.033155 139.138892 
L 103.331551 140.442556 
L 103.480749 140.503876 
L 103.779144 140.053786 
L 104.226738 139.40704 
L 104.525134 139.522299 
L 104.823529 139.82578 
L 104.972727 139.835878 
L 105.121925 139.600103 
L 105.271123 138.995615 
L 105.569519 136.219124 
L 105.867914 130.773297 
L 106.315508 117.196316 
L 107.807487 63.749313 
L 108.105882 61.38 
L 108.25508 61.777378 
L 108.553476 65.402683 
L 109.00107 75.911099 
L 110.045455 102.269968 
L 110.642246 110.690927 
L 111.388235 120.53521 
L 111.985027 132.509103 
L 112.581818 144.316115 
L 112.880214 147.298596 
L 113.029412 147.556239 
L 113.17861 146.859643 
L 113.477005 142.435049 
L 113.924599 128.734144 
L 115.416578 71.79917 
L 115.714973 67.58853 
L 116.013369 66.423428 
L 116.162567 66.73977 
L 116.460963 68.528089 
L 117.35615 75.118387 
L 117.952941 78.190616 
L 118.251337 80.919276 
L 118.549733 85.558645 
L 118.997326 97.086984 
L 119.743316 125.235432 
L 120.340107 144.796047 
L 120.638503 149.752651 
L 120.787701 150.644937 
L 120.936898 150.444435 
L 121.086096 149.181778 
L 121.384492 143.806741 
L 121.981283 125.777267 
L 122.727273 103.58342 
L 123.174866 95.457846 
L 123.771658 89.344204 
L 124.368449 83.244813 
L 125.562032 68.42038 
L 125.71123 68.25893 
L 125.860428 68.910446 
L 126.158824 72.953043 
L 126.457219 80.75643 
L 127.054011 105.129549 
L 127.949198 142.489178 
L 128.396791 151.700304 
L 128.695187 153.298692 
L 128.844385 152.925253 
L 129.142781 150.445287 
L 130.634759 133.552298 
L 131.082353 129.241185 
L 131.529947 121.793095 
L 131.97754 109.899494 
L 133.171123 74.332019 
L 133.469519 71.51523 
L 133.618717 71.705991 
L 133.767914 72.990128 
L 134.06631 78.64719 
L 134.513904 93.08887 
L 135.558289 130.139281 
L 136.005882 138.961402 
L 136.453476 143.372868 
L 137.497861 150.563739 
L 138.094652 155.800078 
L 138.393048 156.698917 
L 138.542246 156.260139 
L 138.840642 153.081027 
L 139.139037 146.487195 
L 139.586631 130.683747 
L 140.780214 82.62954 
L 141.07861 76.951729 
L 141.377005 75.25879 
L 141.526203 75.80573 
L 141.824599 79.163433 
L 142.42139 90.780167 
L 143.16738 103.891633 
L 144.360963 119.971659 
L 144.957754 134.787767 
L 145.852941 157.957773 
L 146.151337 160.994876 
L 146.300535 161.02531 
L 146.449733 159.986033 
L 146.748128 154.731145 
L 147.195722 140.178454 
L 148.389305 94.672632 
L 148.836898 86.294518 
L 149.135294 83.867404 
L 149.43369 83.084321 
L 150.179679 82.609294 
L 150.925668 80.687039 
L 151.074866 80.766827 
L 151.224064 81.276241 
L 151.52246 84.037986 
L 151.820856 89.658941 
L 152.268449 103.662003 
L 153.61123 154.374823 
L 153.909626 158.603481 
L 154.058824 159.138187 
L 154.208021 158.653207 
L 154.506417 154.972095 
L 154.954011 144.756686 
L 155.849198 122.826566 
L 156.445989 114.028836 
L 157.191979 104.461068 
L 157.78877 92.554674 
L 158.534759 77.004979 
L 158.833155 74.199356 
L 158.982353 74.102258 
L 159.131551 74.996378 
L 159.429947 79.882184 
L 159.87754 94.25965 
L 161.369519 151.730546 
L 161.667914 156.07721 
L 161.96631 157.584315 
L 162.115508 157.529589 
L 162.413904 156.443576 
L 163.159893 153.099761 
L 163.905882 151.254562 
L 164.204278 148.973085 
L 164.502674 144.5639 
L 164.950267 133.131243 
L 166.442246 84.014224 
L 166.740642 81.83139 
L 166.88984 82.365703 
L 167.188235 86.476444 
L 167.635829 98.463427 
L 168.680214 130.579553 
L 169.127807 138.895799 
L 170.918182 164.46088 
L 171.365775 170.838896 
L 171.664171 172.250603 
L 171.813369 171.717863 
L 172.111765 167.803092 
L 172.41016 160.058493 
L 173.006952 135.964553 
L 173.902139 99.953373 
L 174.349733 91.492192 
L 174.49893 90.453581 
L 174.648128 90.212996 
L 174.797326 90.665093 
L 175.095722 93.123591 
L 176.289305 106.08653 
L 176.886096 110.919884 
L 177.184492 114.82576 
L 177.632086 124.380904 
L 178.228877 143.60923 
L 178.974866 166.919518 
L 179.273262 171.565717 
L 179.42246 172.352248 
L 179.571658 172.043073 
L 179.870053 168.195546 
L 180.317647 155.693361 
L 181.660428 110.914147 
L 182.108021 103.924135 
L 182.704813 98.941111 
L 183.301604 93.518153 
L 184.047594 85.479287 
L 184.345989 84.341962 
L 184.495187 84.745724 
L 184.793583 87.995459 
L 185.091979 94.78096 
L 185.539572 110.886048 
L 186.733155 158.43863 
L 187.031551 163.809306 
L 187.180749 165.020074 
L 187.329947 165.289493 
L 187.479144 164.698274 
L 187.77754 161.410268 
L 189.567914 133.97937 
L 190.015508 128.305508 
L 190.463102 119.526811 
L 191.209091 98.241942 
L 191.805882 83.808435 
L 192.104278 81.054674 
L 192.253476 81.213736 
L 192.402674 82.459646 
L 192.70107 88.130696 
L 193.148663 103.153571 
L 194.342246 148.595315 
L 194.78984 157.066573 
L 195.088235 159.827241 
L 195.535829 161.652962 
L 195.983422 163.207149 
L 197.027807 168.272119 
L 197.177005 168.001593 
L 197.326203 167.128354 
L 197.624599 163.221297 
L 198.072193 151.512582 
L 198.818182 121.557241 
L 199.414973 100.65915 
L 199.713369 95.076601 
L 199.862567 93.828522 
L 200.011765 93.619447 
L 200.160963 94.401754 
L 200.459358 98.556316 
L 201.05615 113.132144 
L 201.802139 130.910072 
L 202.39893 140.030769 
L 202.995722 148.583176 
L 203.592513 161.291816 
L 204.487701 182.437198 
L 204.786096 185.599832 
L 204.935294 185.809504 
L 205.084492 184.996005 
L 205.382888 180.221519 
L 205.830481 166.063693 
L 207.173262 114.180895 
L 207.620856 107.133978 
L 207.919251 105.82521 
L 208.068449 105.885384 
L 208.366845 106.802206 
L 208.963636 108.865777 
L 209.262032 109.224782 
L 209.560428 109.448314 
L 209.709626 109.737406 
L 210.008021 111.244741 
L 210.306417 114.723233 
L 210.604813 120.780812 
L 211.052406 134.738152 
L 212.245989 176.728332 
L 212.544385 180.80619 
L 212.693583 181.237174 
L 212.842781 180.593214 
L 213.141176 176.33705 
L 213.58877 164.428194 
L 214.633155 133.569729 
L 215.229947 123.528836 
L 216.125134 111.471638 
L 217.467914 88.935269 
L 217.617112 88.575244 
L 217.76631 89.119808 
L 218.064706 93.147395 
L 218.363102 101.044966 
L 218.959893 125.210045 
L 219.705882 155.94657 
L 220.153476 166.534492 
L 220.451872 169.256281 
L 220.60107 169.455293 
L 220.750267 169.018455 
L 221.048663 166.767242 
L 222.093048 156.830853 
L 222.839037 151.518616 
L 223.137433 147.499394 
L 223.585027 137.47261 
L 224.331016 112.171588 
L 224.927807 94.259491 
L 225.226203 89.912736 
L 225.375401 89.310935 
L 225.524599 89.812728 
L 225.822995 94.021212 
L 226.270588 106.856145 
L 227.464171 147.794388 
L 227.911765 156.361808 
L 228.508556 163.009507 
L 229.105348 169.692015 
L 230.149733 182.989548 
L 230.29893 183.495997 
L 230.448128 183.262757 
L 230.597326 182.195341 
L 230.895722 177.352321 
L 231.343316 163.626232 
L 232.686096 112.251522 
L 232.984492 107.585738 
L 233.13369 106.695276 
L 233.282888 106.709908 
L 233.432086 107.540218 
L 233.730481 111.150674 
L 235.371658 136.978236 
L 235.819251 142.75129 
L 236.266845 151.481973 
L 236.863636 168.898267 
L 237.609626 191.256948 
L 237.908021 196.151799 
L 238.057219 197.146154 
L 238.206417 197.067005 
L 238.355615 195.889531 
L 238.654011 190.368934 
L 239.101604 175.75775 
L 240.295187 132.713756 
L 240.742781 124.959769 
L 241.190374 121.586533 
L 241.936364 118.223553 
L 242.831551 112.351761 
L 242.980749 112.116572 
L 243.129947 112.423173 
L 243.279144 113.383964 
L 243.57754 117.592038 
L 244.025134 129.903285 
L 245.66631 186.484853 
L 245.815508 187.609866 
L 245.964706 187.714618 
L 246.113904 186.857596 
L 246.412299 182.675512 
L 247.009091 168.598085 
L 247.75508 151.926429 
L 248.50107 141.092494 
L 249.097861 130.893444 
L 249.694652 115.762201 
L 250.440642 97.383835 
L 250.739037 94.132779 
L 250.888235 93.935494 
L 251.037433 94.786261 
L 251.335829 99.663013 
L 251.783422 113.870185 
L 253.126203 164.229958 
L 253.573797 170.842131 
L 253.872193 172.127795 
L 254.02139 172.148782 
L 254.319786 171.56713 
L 254.76738 170.670299 
L 254.916578 170.603557 
L 255.214973 170.796175 
L 255.513369 170.983268 
L 255.662567 170.823366 
L 255.811765 170.335929 
L 256.11016 167.917952 
L 256.408556 162.983478 
L 256.85615 150.387453 
L 258.19893 103.077995 
L 258.497326 99.355735 
L 258.646524 99.106516 
L 258.795722 99.918855 
L 259.094118 104.429638 
L 259.541711 116.417861 
L 260.586096 146.50995 
L 261.182888 156.653782 
L 261.928877 167.848572 
L 262.674866 183.96478 
L 263.271658 195.141124 
L 263.570053 197.016817 
L 263.719251 196.590159 
L 264.017647 192.731254 
L 264.316043 184.992848 
L 264.912834 161.458588 
L 265.658824 132.349894 
L 266.106417 122.865767 
L 266.404813 120.735344 
L 266.554011 120.759225 
L 266.852406 122.415779 
L 268.344385 135.216412 
L 268.791979 139.176649 
L 269.090374 143.81058 
L 269.537968 155.050022 
L 270.433155 187.819533 
L 270.880749 201.092037 
L 271.179144 205.644443 
L 271.328342 206.322473 
L 271.47754 205.894871 
L 271.775936 201.875562 
L 272.223529 189.563465 
L 273.417112 151.32093 
L 273.864706 143.49891 
L 276.251872 114.902854 
L 276.40107 115.230381 
L 276.550267 116.43044 
L 276.848663 121.612248 
L 277.296257 135.847359 
L 278.639037 186.940185 
L 278.937433 191.33325 
L 279.086631 192.122127 
L 279.235829 192.043185 
L 279.385027 191.193692 
L 279.683422 187.696869 
L 281.175401 165.550623 
L 281.772193 157.906586 
L 282.219786 148.449504 
L 282.816578 129.809861 
L 283.562567 106.557232 
L 283.860963 101.606492 
L 284.01016 100.6288 
L 284.159358 100.740408 
L 284.308556 101.954269 
L 284.606952 107.512158 
L 285.054545 121.948424 
L 286.09893 159.544659 
L 286.546524 168.56672 
L 286.994118 172.987117 
L 288.038503 179.625291 
L 288.784492 185.512959 
L 288.93369 185.801307 
L 289.082888 185.493841 
L 289.232086 184.482579 
L 289.530481 180.057039 
L 289.978075 167.300101 
L 291.470053 113.258155 
L 291.768449 110.330589 
L 291.917647 110.377621 
L 292.066845 111.354 
L 292.365241 115.648098 
L 293.11123 133.036834 
L 293.708021 145.308347 
L 295.050802 167.855599 
L 295.796791 189.261758 
L 296.393583 204.581166 
L 296.691979 208.137586 
L 296.841176 208.440859 
L 296.990374 207.67864 
L 297.28877 202.974397 
L 297.736364 189.183384 
L 298.929947 145.206369 
L 299.37754 137.45128 
L 299.675936 135.542295 
L 299.825134 135.298431 
L 299.974332 135.369098 
L 300.720321 136.649547 
L 301.018717 136.496802 
L 301.317112 136.175666 
L 301.46631 136.177419 
L 301.615508 136.442788 
L 301.764706 137.095219 
L 302.063102 140.015242 
L 302.361497 145.638061 
L 302.809091 159.422449 
L 304.151872 208.88812 
L 304.450267 212.754375 
L 304.599465 213.080562 
L 304.748663 212.364213 
L 305.047059 208.141798 
L 305.494652 196.909029 
L 306.539037 169.473731 
L 307.135829 160.229737 
L 307.73262 151.485975 
L 308.329412 138.93884 
L 309.075401 122.393762 
L 309.373797 119.03192 
L 309.522995 118.622136 
L 309.672193 119.183965 
L 309.970588 123.361532 
L 310.418182 136.630602 
L 311.760963 187.524217 
L 312.059358 192.70155 
L 312.357754 194.674036 
L 312.506952 194.644043 
L 312.805348 193.138647 
L 313.99893 184.03334 
L 314.446524 181.41963 
L 314.74492 178.419915 
L 315.043316 173.45318 
L 315.490909 161.429072 
L 316.982888 111.052442 
L 317.281283 108.665325 
L 317.430481 109.118435 
L 317.728877 113.12637 
L 318.176471 125.139771 
L 319.370053 161.236513 
L 319.817647 168.544917 
L 321.160428 186.136996 
L 321.906417 197.800379 
L 322.204813 199.396969 
L 322.354011 199.006184 
L 322.652406 195.460888 
L 322.950802 188.172922 
L 323.547594 165.119778 
L 324.293583 135.07816 
L 324.741176 124.89305 
L 325.039572 122.691835 
L 325.18877 122.869391 
L 325.487166 125.268108 
L 326.083957 134.364224 
L 326.829947 144.719772 
L 327.575936 153.594444 
L 328.023529 162.556575 
L 328.620321 181.25193 
L 329.515508 211.293151 
L 329.813904 216.494223 
L 329.963102 217.56282 
L 330.112299 217.5339 
L 330.261497 216.406532 
L 330.559893 211.079444 
L 331.007487 197.265936 
L 332.051872 162.370853 
L 332.499465 154.423802 
L 332.947059 150.605149 
L 333.693048 146.289279 
L 334.737433 137.920778 
L 334.886631 137.80513 
L 335.035829 138.340091 
L 335.334225 141.742351 
L 335.63262 148.555913 
L 336.080214 164.546345 
L 337.273797 211.408476 
L 337.572193 216.486587 
L 337.72139 217.514477 
L 337.870588 217.572011 
L 338.019786 216.737431 
L 338.318182 212.864128 
L 339.064171 197.290745 
L 339.660963 186.649445 
L 340.705348 171.44086 
L 341.152941 160.840237 
L 342.495722 125.040626 
L 342.64492 123.841655 
L 342.794118 123.679091 
L 342.943316 124.593216 
L 343.241711 129.58647 
L 343.689305 143.610209 
L 344.882888 186.547105 
L 345.330481 193.883042 
L 345.628877 195.743255 
L 345.778075 196.048014 
L 345.927273 196.094527 
L 346.524064 195.816355 
L 346.82246 196.259737 
L 347.270053 197.306307 
L 347.419251 197.40391 
L 347.568449 197.177301 
L 347.717647 196.501404 
L 348.016043 193.358626 
L 348.314439 187.327739 
L 348.762032 172.785232 
L 350.104813 122.392996 
L 350.403209 118.595792 
L 350.552406 118.287728 
L 350.701604 118.995953 
L 351 123.086851 
L 351.596791 137.875581 
L 352.342781 156.26193 
L 352.939572 165.690317 
L 353.685561 176.788861 
L 354.282353 190.2579 
L 355.028342 207.495132 
L 355.326738 210.817001 
L 355.475936 211.148057 
L 355.625134 210.480135 
L 355.923529 206.054241 
L 356.371123 192.502883 
L 357.713904 142.6947 
L 358.012299 137.875909 
L 358.310695 136.112954 
L 358.459893 136.172542 
L 358.758289 137.574859 
L 359.802674 144.56074 
L 360.250267 146.679384 
L 360.548663 149.109196 
L 360.847059 153.379645 
L 361.294652 164.469422 
L 361.891444 187.056038 
L 362.637433 215.391286 
L 362.935829 222.086468 
L 363.234225 224.620093 
L 363.383422 224.254062 
L 363.681818 220.504277 
L 364.129412 209.202194 
L 365.173797 179.309253 
L 365.62139 171.845815 
L 367.113369 152.539277 
L 367.859358 141.043947 
L 368.008556 140.070712 
L 368.157754 139.86673 
L 368.306952 140.535045 
L 368.605348 144.725219 
L 369.052941 157.931404 
L 370.54492 215.234373 
L 370.843316 219.394027 
L 370.992513 220.15442 
L 371.141711 220.131171 
L 371.290909 219.434315 
L 371.589305 216.553023 
L 372.782888 202.36258 
L 373.379679 196.549088 
L 373.827273 188.954477 
L 374.274866 176.639243 
L 375.617647 133.029748 
L 375.916043 130.126873 
L 376.065241 130.307277 
L 376.214439 131.57596 
L 376.512834 137.109815 
L 376.960428 150.922234 
L 378.004813 184.540837 
L 378.452406 192.046871 
L 378.9 195.89525 
L 379.645989 201.243831 
L 380.690374 210.796976 
L 380.839572 210.879097 
L 380.98877 210.254804 
L 381.287166 206.534932 
L 381.585561 199.288874 
L 382.033155 182.651725 
L 383.07754 139.36919 
L 383.525134 130.432897 
L 383.674332 129.419128 
L 383.823529 129.341009 
L 383.972727 130.11152 
L 384.271123 133.704716 
L 386.061497 162.455795 
L 386.509091 168.971529 
L 386.956684 178.832167 
L 388.448663 219.57621 
L 388.597861 220.677961 
L 388.747059 220.724399 
L 388.896257 219.686949 
L 389.194652 214.474161 
L 389.642246 200.346511 
L 390.686631 162.392499 
L 391.134225 153.559253 
L 391.43262 150.802582 
L 391.731016 149.780389 
L 392.029412 149.579148 
L 392.327807 149.384292 
L 392.626203 148.73636 
L 393.222995 146.758209 
L 393.372193 146.62376 
L 393.52139 146.876298 
L 393.670588 147.641464 
L 393.968984 151.137928 
L 394.26738 157.701687 
L 394.714973 173.172623 
L 395.908556 221.549073 
L 396.206952 227.52583 
L 396.505348 229.348998 
L 396.654545 228.758635 
L 396.952941 225.037164 
L 397.549733 211.595184 
L 398.295722 195.494669 
L 398.892513 187.41116 
L 399.489305 179.347454 
L 400.086096 166.766696 
L 400.981283 146.029348 
L 401.279679 143.154349 
L 401.428877 143.104356 
L 401.578075 144.078951 
L 401.876471 149.147588 
L 402.324064 163.558001 
L 403.666845 214.110741 
L 403.965241 219.036203 
L 404.263636 221.074861 
L 404.412834 221.233443 
L 404.562032 220.977093 
L 405.009626 218.971018 
L 405.457219 217.13113 
L 406.203209 215.30932 
L 406.501604 213.211581 
L 406.8 209.025701 
L 407.247594 197.734758 
L 407.844385 174.780243 
L 408.590374 146.656562 
L 408.88877 140.258989 
L 409.187166 138.041151 
L 409.336364 138.542005 
L 409.634759 142.460511 
L 410.082353 153.660986 
L 411.126738 182.068542 
L 411.574332 189.074006 
L 412.767914 204.346461 
L 413.812299 221.991789 
L 413.961497 222.917514 
L 414.110695 223.023809 
L 414.259893 222.215245 
L 414.558289 217.658458 
L 415.005882 203.869436 
L 416.497861 146.440035 
L 416.796257 142.338878 
L 416.945455 141.549154 
L 417.094652 141.492886 
L 417.24385 142.055185 
L 417.542246 144.499473 
L 418.586631 154.855423 
L 419.183422 159.416765 
L 419.481818 163.12698 
L 419.929412 172.508734 
L 420.526203 192.398919 
L 421.42139 222.752999 
L 421.719786 227.490311 
L 421.868984 228.280554 
L 422.018182 227.973309 
L 422.316578 224.204343 
L 422.764171 212.2523 
L 423.957754 175.092375 
L 424.405348 168.062325 
L 424.852941 164.206982 
L 425.449733 159.472937 
L 426.643316 147.504701 
L 426.792513 147.512213 
L 426.941711 148.281375 
L 427.240107 152.425036 
L 427.538503 160.200196 
L 428.135294 184.396609 
L 429.030481 221.659848 
L 429.478075 230.693455 
L 429.627273 231.786155 
L 429.776471 231.984634 
L 429.925668 231.383933 
L 430.224064 228.296314 
L 431.716043 207.375148 
L 432.312834 200.630455 
L 432.760428 192.109213 
L 433.357219 174.829457 
L 434.103209 152.964591 
L 434.401604 148.404411 
L 434.550802 147.590385 
L 434.7 147.848651 
L 434.849198 149.195768 
L 435.147594 154.994287 
L 435.595187 169.766881 
L 436.639572 207.942098 
L 437.087166 216.860687 
L 437.385561 219.89921 
L 437.833155 221.922184 
L 438.280749 223.438516 
L 438.728342 225.952949 
L 439.175936 228.521349 
L 439.325134 228.910334 
L 439.474332 228.849934 
L 439.623529 228.214988 
L 439.921925 224.811893 
L 440.220321 218.177717 
L 440.667914 202.504303 
L 441.861497 154.687471 
L 442.159893 149.067926 
L 442.309091 147.797359 
L 442.458289 147.536477 
L 442.607487 148.219778 
L 442.905882 151.980089 
L 443.502674 164.866445 
L 444.248663 179.693029 
L 445.740642 201.822752 
L 447.083422 232.393352 
L 447.23262 233.293368 
L 447.381818 233.199138 
L 447.531016 232.056103 
L 447.829412 226.626226 
L 448.277005 211.787252 
L 449.470588 165.177954 
L 449.918182 156.753271 
L 450.216578 154.589119 
L 450.365775 154.280481 
L 450.514973 154.327308 
L 450.813369 154.99535 
L 451.260963 155.965643 
L 451.559358 156.064274 
L 451.857754 155.974451 
L 452.006952 156.07042 
L 452.15615 156.41065 
L 452.454545 158.305176 
L 452.752941 162.518505 
L 453.200535 174.134306 
L 453.946524 203.887369 
L 454.543316 225.486855 
L 454.841711 231.611125 
L 455.140107 233.551766 
L 455.289305 232.941001 
L 455.587701 228.912861 
L 456.035294 217.913316 
L 456.930481 194.028999 
L 457.527273 184.605131 
L 458.42246 173.582726 
L 459.168449 159.250818 
L 459.616043 151.493705 
L 459.914439 149.081173 
L 460.063636 149.118105 
L 460.212834 150.110521 
L 460.51123 155.113431 
L 460.958824 169.58565 
L 462.450802 227.585064 
L 462.749198 231.788434 
L 463.047594 232.928862 
L 463.196791 232.60106 
L 463.495187 230.802555 
L 464.390374 224.346564 
L 464.987166 221.502417 
L 465.285561 218.93487 
L 465.583957 214.502471 
L 466.031551 203.408809 
L 467.523529 155.687381 
L 467.821925 153.635217 
L 467.971123 154.24385 
L 468.269519 158.555963 
L 468.717112 171.039934 
L 469.910695 208.138014 
L 470.358289 215.35307 
L 471.999465 234.915504 
L 472.447059 240.212267 
L 472.596257 241.031234 
L 472.745455 241.147266 
L 472.894652 240.449478 
L 473.193048 236.326575 
L 473.491444 228.485246 
L 474.088235 204.274095 
L 474.983422 167.910575 
L 475.281818 161.323797 
L 475.580214 158.484829 
L 475.729412 158.371812 
L 475.87861 159.004368 
L 476.177005 161.981137 
L 477.519786 179.318422 
L 478.116578 185.23771 
L 478.564171 192.847462 
L 479.011765 204.727702 
L 480.205348 239.208667 
L 480.503743 241.57276 
L 480.652941 241.148177 
L 480.951337 237.06441 
L 481.39893 224.10248 
L 482.741711 177.481791 
L 483.189305 170.467411 
L 483.636898 167.174077 
L 484.23369 163.814318 
L 485.278075 156.10466 
L 485.427273 156.036777 
L 485.576471 156.601458 
L 485.874866 160.015647 
L 486.173262 166.79976 
L 486.620856 182.746003 
L 487.814439 230.051174 
L 488.112834 235.339239 
L 488.262032 236.468051 
L 488.41123 236.618849 
L 488.560428 235.86707 
L 488.858824 232.122195 
L 489.604813 216.723712 
L 490.201604 206.389332 
L 491.395187 190.440882 
L 491.991979 176.098702 
L 492.737968 156.80782 
L 493.036364 152.592569 
L 493.185561 151.837713 
L 493.334759 152.109646 
L 493.483957 153.451786 
L 493.782353 159.295547 
L 494.229947 174.626917 
L 495.423529 221.217136 
L 495.871123 229.69538 
L 496.169519 232.151167 
L 496.467914 232.953845 
L 497.064706 233.234882 
L 497.363102 233.876386 
L 497.959893 235.516495 
L 498.109091 235.463439 
L 498.109091 235.463439 
" style="fill:none;stroke:#4c72b0;stroke-linecap:round;stroke-width:1.75;"/>
   </g>
   <g id="line2d_26">
    <path clip-path="url(#p7ae4cb9c75)" d="M 92.290909 300.33124 
L 94.081283 311.966453 
L 95.573262 320.307625 
L 96.916043 326.581272 
L 98.109626 331.072569 
L 99.154011 334.106661 
L 100.049198 336.012654 
L 100.795187 337.098114 
L 101.391979 337.632403 
L 101.98877 337.867416 
L 102.436364 337.846688 
L 103.033155 337.556487 
L 103.629947 336.967317 
L 104.226738 336.081467 
L 104.972727 334.562296 
L 105.867914 332.14775 
L 106.912299 328.542385 
L 107.956684 324.129086 
L 109.150267 318.163631 
L 110.642246 309.461697 
L 112.283422 298.529428 
L 114.372193 283.050534 
L 117.952941 254.461845 
L 121.235294 228.88797 
L 123.324064 214.351159 
L 124.965241 204.429749 
L 126.308021 197.520546 
L 127.501604 192.411568 
L 128.545989 188.804157 
L 129.441176 186.387782 
L 130.336364 184.617622 
L 131.082353 183.647443 
L 131.679144 183.206255 
L 132.275936 183.064742 
L 132.723529 183.155644 
L 133.320321 183.539191 
L 133.917112 184.221134 
L 134.663102 185.489052 
L 135.409091 187.211334 
L 136.304278 189.862968 
L 137.348663 193.733209 
L 138.542246 199.123471 
L 139.885027 206.319676 
L 141.377005 215.554587 
L 143.16738 228.050701 
L 145.554545 246.389057 
L 152.119251 297.762482 
L 153.909626 309.730996 
L 155.401604 318.413041 
L 156.744385 325.035339 
L 157.937968 329.864139 
L 158.982353 333.210578 
L 159.87754 335.394009 
L 160.623529 336.71567 
L 161.369519 337.576052 
L 161.96631 337.928645 
L 162.563102 337.981272 
L 163.159893 337.733735 
L 163.756684 337.186997 
L 164.353476 336.343183 
L 165.099465 334.875751 
L 165.994652 332.521699 
L 166.88984 329.540213 
L 167.934225 325.303807 
L 169.127807 319.525033 
L 170.470588 311.937196 
L 172.111765 301.312554 
L 174.051337 287.246212 
L 176.886096 264.899905 
L 181.362032 229.633215 
L 183.450802 215.021596 
L 185.091979 205.022828 
L 186.434759 198.039864 
L 187.628342 192.858659 
L 188.672727 189.183819 
L 189.567914 186.707139 
L 190.463102 184.874913 
L 191.209091 183.852057 
L 191.805882 183.368332 
L 192.402674 183.184108 
L 192.850267 183.242964 
L 193.447059 183.583896 
L 194.04385 184.223505 
L 194.78984 185.439152 
L 195.535829 187.110177 
L 196.431016 189.702076 
L 197.475401 193.505728 
L 198.668984 198.824942 
L 200.011765 205.948972 
L 201.503743 215.114964 
L 203.294118 227.546284 
L 205.681283 245.832193 
L 212.395187 298.334629 
L 214.185561 310.248576 
L 215.67754 318.874419 
L 217.020321 325.438982 
L 218.213904 330.211716 
L 219.258289 333.506144 
L 220.153476 335.643287 
L 220.899465 336.925482 
L 221.645455 337.745838 
L 222.242246 338.066171 
L 222.839037 338.086461 
L 223.435829 337.806634 
L 224.03262 337.22778 
L 224.629412 336.352147 
L 225.375401 334.845548 
L 226.270588 332.445697 
L 227.314973 328.856774 
L 228.359358 324.458975 
L 229.552941 318.509845 
L 231.04492 309.825868 
L 232.686096 298.909727 
L 234.774866 283.445163 
L 238.355615 254.863267 
L 241.637968 229.275402 
L 243.726738 214.720271 
L 245.367914 204.779956 
L 246.710695 197.852748 
L 247.904278 192.726152 
L 248.948663 189.102302 
L 249.84385 186.671231 
L 250.739037 184.88595 
L 251.485027 183.902943 
L 252.081818 183.451399 
L 252.67861 183.299488 
L 253.126203 183.382591 
L 253.722995 183.755769 
L 254.319786 184.427413 
L 255.065775 185.682616 
L 255.811765 187.392435 
L 256.706952 190.029548 
L 257.751337 193.883609 
L 258.94492 199.256615 
L 260.287701 206.435302 
L 261.779679 215.653501 
L 263.570053 228.133929 
L 265.957219 246.459641 
L 272.521925 297.850643 
L 274.461497 310.763691 
L 275.953476 319.332944 
L 277.296257 325.839476 
L 278.48984 330.55593 
L 279.534225 333.798198 
L 280.429412 335.888959 
L 281.175401 337.131629 
L 281.772193 337.793121 
L 282.368984 338.156078 
L 282.965775 338.219097 
L 283.562567 337.981939 
L 284.159358 337.445527 
L 284.75615 336.611947 
L 285.502139 335.157115 
L 286.397326 332.817803 
L 287.292513 329.850521 
L 288.336898 325.629842 
L 289.530481 319.867703 
L 290.873262 312.296566 
L 292.514439 301.688982 
L 294.454011 287.637415 
L 297.28877 265.301088 
L 301.764706 230.020775 
L 303.853476 215.391114 
L 305.494652 205.373632 
L 306.837433 198.372796 
L 308.031016 193.174071 
L 309.075401 189.482862 
L 309.970588 186.991533 
L 310.865775 185.144221 
L 311.611765 184.108556 
L 312.208556 183.614484 
L 312.805348 183.419866 
L 313.252941 183.470921 
L 313.849733 183.801476 
L 314.446524 184.430774 
L 315.192513 185.633684 
L 315.938503 187.292212 
L 316.83369 189.869541 
L 317.878075 193.656939 
L 319.071658 198.958796 
L 320.414439 206.065171 
L 321.906417 215.214276 
L 323.696791 227.629672 
L 326.083957 245.902586 
L 332.797861 298.422861 
L 334.588235 310.354396 
L 336.080214 318.998338 
L 337.422995 325.581485 
L 338.616578 330.372258 
L 339.660963 333.683416 
L 340.55615 335.835445 
L 341.302139 337.130329 
L 342.048128 337.963552 
L 342.64492 338.294254 
L 343.241711 338.324936 
L 343.838503 338.055485 
L 344.435294 337.486949 
L 345.032086 336.621537 
L 345.778075 335.127517 
L 346.673262 332.742371 
L 347.717647 329.169907 
L 348.762032 324.787628 
L 349.955615 318.854851 
L 351.447594 310.188872 
L 353.08877 299.288911 
L 355.17754 283.838748 
L 358.609091 256.4665 
L 362.040642 229.662043 
L 364.129412 215.088659 
L 365.770588 205.129485 
L 367.113369 198.184304 
L 368.306952 193.040113 
L 369.351337 189.399841 
L 370.246524 186.954086 
L 371.141711 185.153694 
L 371.887701 184.157863 
L 372.484492 183.695964 
L 373.081283 183.533657 
L 373.528877 183.60896 
L 374.125668 183.971766 
L 374.72246 184.633108 
L 375.468449 185.875592 
L 376.214439 187.572939 
L 377.109626 190.195519 
L 378.154011 194.033381 
L 379.347594 199.389107 
L 380.690374 206.550244 
L 382.182353 215.751688 
L 383.972727 228.216371 
L 386.359893 246.529353 
L 392.924599 297.937695 
L 394.864171 310.869761 
L 396.35615 319.457238 
L 397.69893 325.982449 
L 398.892513 330.717011 
L 399.936898 333.976056 
L 400.832086 336.081733 
L 401.578075 337.337111 
L 402.174866 338.008895 
L 402.771658 338.382214 
L 403.368449 338.455625 
L 403.965241 338.228847 
L 404.562032 337.702764 
L 405.158824 336.879421 
L 405.904813 335.437197 
L 406.8 333.112636 
L 407.695187 330.159571 
L 408.739572 325.954639 
L 409.933155 320.209162 
L 411.275936 312.654759 
L 412.917112 302.064283 
L 414.856684 288.027556 
L 417.691444 265.701315 
L 422.16738 230.407542 
L 424.25615 215.759908 
L 425.897326 205.723758 
L 427.240107 198.705082 
L 428.43369 193.488861 
L 429.478075 189.7813 
L 430.373262 187.275334 
L 431.268449 185.412945 
L 432.014439 184.364476 
L 432.61123 183.860058 
L 433.208021 183.655048 
L 433.655615 183.698301 
L 434.252406 184.018479 
L 434.849198 184.637462 
L 435.595187 185.827629 
L 436.341176 187.473653 
L 437.236364 190.036399 
L 438.280749 193.807527 
L 439.474332 199.092001 
L 440.817112 206.18069 
L 442.309091 215.312864 
L 444.099465 227.712278 
L 446.486631 245.972113 
L 453.200535 298.509984 
L 454.990909 310.45905 
L 456.482888 319.121052 
L 457.825668 325.722752 
L 459.019251 330.531543 
L 460.063636 333.859415 
L 460.958824 336.026319 
L 461.704813 337.333886 
L 462.450802 338.179972 
L 463.047594 338.521041 
L 463.644385 338.562116 
L 464.241176 338.303041 
L 464.837968 337.744826 
L 465.434759 336.889639 
L 466.180749 335.408205 
L 467.075936 333.037777 
L 467.971123 330.040515 
L 469.015508 325.786643 
L 470.209091 319.9894 
L 471.551872 312.383028 
L 473.193048 301.739461 
L 475.13262 287.656739 
L 478.116578 264.095325 
L 482.443316 230.047894 
L 484.532086 215.456325 
L 486.173262 205.47834 
L 487.516043 198.515218 
L 488.709626 193.353457 
L 489.754011 189.69678 
L 490.649198 187.236351 
L 491.544385 185.420856 
L 492.290374 184.412205 
L 492.887166 183.939954 
L 493.483957 183.767252 
L 493.931551 183.834755 
L 494.528342 184.187187 
L 495.125134 184.838224 
L 495.871123 186.067983 
L 496.617112 187.75285 
L 497.512299 190.360886 
L 498.109091 192.444427 
L 498.109091 192.444427 
" style="fill:none;stroke:#55a868;stroke-linecap:round;stroke-width:1.75;"/>
   </g>
   <g id="patch_3">
    <path d="M 72 352.44 
L 72 47.52 
" style="fill:none;"/>
   </g>
   <g id="patch_4">
    <path d="M 518.4 352.44 
L 518.4 47.52 
" style="fill:none;"/>
   </g>
   <g id="patch_5">
    <path d="M 72 352.44 
L 518.4 352.44 
" style="fill:none;"/>
   </g>
   <g id="patch_6">
    <path d="M 72 47.52 
L 518.4 47.52 
" style="fill:none;"/>
   </g>
   <g id="legend_1">
    <g id="line2d_27">
     <path d="M 475.839062 60.266875 
L 495.839062 60.266875 
" style="fill:none;stroke:#4c72b0;stroke-linecap:round;stroke-width:1.75;"/>
    </g>
    <g id="line2d_28"/>
    <g id="text_13">
     <!-- a -->
     <defs>
      <path d="M 20.21875 -0.984375 
Q 12.25 -0.984375 8.25 3.21875 
Q 4.25 7.421875 4.25 14.75 
Q 4.25 19.96875 6.21875 23.3125 
Q 8.203125 26.65625 11.390625 28.5625 
Q 14.59375 30.46875 18.6875 31.203125 
Q 22.796875 31.9375 27.046875 32.03125 
L 38.921875 32.234375 
L 38.921875 35.109375 
Q 38.921875 38.375 38.234375 40.671875 
Q 37.546875 42.96875 36.125 44.375 
Q 34.71875 45.796875 32.59375 46.453125 
Q 30.46875 47.125 27.59375 47.125 
Q 25.046875 47.125 23 46.75 
Q 20.953125 46.390625 19.4375 45.4375 
Q 17.921875 44.484375 16.984375 42.84375 
Q 16.0625 41.21875 15.765625 38.71875 
L 6.59375 39.546875 
Q 7.078125 42.671875 8.4375 45.28125 
Q 9.8125 47.90625 12.328125 49.796875 
Q 14.84375 51.703125 18.625 52.75 
Q 22.40625 53.8125 27.78125 53.8125 
Q 37.75 53.8125 42.765625 49.234375 
Q 47.796875 44.671875 47.796875 36.03125 
L 47.796875 13.28125 
Q 47.796875 9.375 48.828125 7.390625 
Q 49.859375 5.421875 52.734375 5.421875 
Q 53.46875 5.421875 54.203125 5.515625 
Q 54.9375 5.609375 55.609375 5.765625 
L 55.609375 0.296875 
Q 53.953125 -0.09375 52.3125 -0.28125 
Q 50.6875 -0.484375 48.828125 -0.484375 
Q 46.34375 -0.484375 44.5625 0.171875 
Q 42.78125 0.828125 41.65625 2.171875 
Q 40.53125 3.515625 39.9375 5.484375 
Q 39.359375 7.46875 39.203125 10.109375 
L 38.921875 10.109375 
Q 37.5 7.5625 35.8125 5.515625 
Q 34.125 3.46875 31.875 2.03125 
Q 29.640625 0.59375 26.78125 -0.1875 
Q 23.921875 -0.984375 20.21875 -0.984375 
M 22.21875 5.609375 
Q 26.421875 5.609375 29.5625 7.140625 
Q 32.71875 8.6875 34.78125 11.078125 
Q 36.859375 13.484375 37.890625 16.3125 
Q 38.921875 19.140625 38.921875 21.734375 
L 38.921875 26.078125 
L 29.296875 25.875 
Q 26.078125 25.828125 23.171875 25.40625 
Q 20.265625 25 18.0625 23.78125 
Q 15.875 22.5625 14.578125 20.359375 
Q 13.28125 18.171875 13.28125 14.59375 
Q 13.28125 10.296875 15.59375 7.953125 
Q 17.921875 5.609375 22.21875 5.609375 
" id="LiberationSans-61"/>
     </defs>
     <g style="fill:#262626;" transform="translate(503.839062 63.766875)scale(0.1 -0.1)">
      <use xlink:href="#LiberationSans-61"/>
     </g>
    </g>
    <g id="line2d_29">
     <path d="M 475.839062 74.58875 
L 495.839062 74.58875 
" style="fill:none;stroke:#55a868;stroke-linecap:round;stroke-width:1.75;"/>
    </g>
    <g id="line2d_30"/>
    <g id="text_14">
     <!-- b -->
     <defs>
      <path d="M 51.421875 26.65625 
Q 51.421875 -0.984375 31.984375 -0.984375 
Q 25.984375 -0.984375 22 1.1875 
Q 18.015625 3.375 15.53125 8.203125 
L 15.4375 8.203125 
Q 15.4375 6.9375 15.359375 5.5625 
Q 15.28125 4.203125 15.203125 3.03125 
Q 15.140625 1.859375 15.0625 1.03125 
Q 14.984375 0.203125 14.9375 0 
L 6.453125 0 
Q 6.5 0.4375 6.546875 1.484375 
Q 6.59375 2.546875 6.640625 4 
Q 6.6875 5.46875 6.703125 7.21875 
Q 6.734375 8.984375 6.734375 10.890625 
L 6.734375 72.46875 
L 15.53125 72.46875 
L 15.53125 51.8125 
Q 15.53125 50.34375 15.5 49 
Q 15.484375 47.65625 15.4375 46.625 
Q 15.375 45.40625 15.328125 44.34375 
L 15.53125 44.34375 
Q 17.96875 49.421875 22 51.609375 
Q 26.03125 53.8125 31.984375 53.8125 
Q 42 53.8125 46.703125 47.0625 
Q 51.421875 40.328125 51.421875 26.65625 
M 42.1875 26.375 
Q 42.1875 31.84375 41.5 35.75 
Q 40.828125 39.65625 39.3125 42.15625 
Q 37.796875 44.671875 35.453125 45.84375 
Q 33.109375 47.015625 29.734375 47.015625 
Q 26.265625 47.015625 23.609375 45.890625 
Q 20.953125 44.78125 19.171875 42.28125 
Q 17.390625 39.796875 16.453125 35.734375 
Q 15.53125 31.6875 15.53125 25.828125 
Q 15.53125 20.171875 16.453125 16.3125 
Q 17.390625 12.453125 19.171875 10.03125 
Q 20.953125 7.625 23.578125 6.5625 
Q 26.21875 5.515625 29.640625 5.515625 
Q 32.859375 5.515625 35.203125 6.640625 
Q 37.546875 7.765625 39.109375 10.25 
Q 40.671875 12.75 41.421875 16.71875 
Q 42.1875 20.703125 42.1875 26.375 
" id="LiberationSans-62"/>
     </defs>
     <g style="fill:#262626;" transform="translate(503.839062 78.08875)scale(0.1 -0.1)">
      <use xlink:href="#LiberationSans-62"/>
     </g>
    </g>
   </g>
  </g>
 </g>
 <defs>
  <clipPath id="p7ae4cb9c75">
   <rect height="304.92" width="446.4" x="72" y="47.52"/>
  </clipPath>
 </defs>
</svg>
