<?xml version="1.0" encoding="utf-8" standalone="no"?>
<!DOCTYPE svg PUBLIC "-//W3C//DTD SVG 1.1//EN"
  "http://www.w3.org/Graphics/SVG/1.1/DTD/svg11.dtd">
<!-- Created with matplotlib (http://matplotlib.org/) -->
<svg height="396pt" version="1.1" viewBox="0 0 576 396" width="576pt" xmlns="http://www.w3.org/2000/svg" xmlns:xlink="http://www.w3.org/1999/xlink">
 <defs>
  <style type="text/css">
*{stroke-linecap:butt;stroke-linejoin:round;}
  </style>
 </defs>
 <g id="figure_1">
  <g id="patch_1">
   <path d="M 0 396 
L 576 396 
L 576 0 
L 0 0 
z
" style="fill:#ffffff;"/>
  </g>
  <g id="axes_1">
   <g id="patch_2">
    <path d="M 72 352.44 
L 518.4 352.44 
L 518.4 47.52 
L 72 47.52 
z
" style="fill:#eaeaf2;"/>
   </g>
   <g id="matplotlib.axis_1">
    <g id="xtick_1">
     <g id="line2d_1">
      <path clip-path="url(#p1d4b57c89c)" d="M 92.290909 352.44 
L 92.290909 47.52 
" style="fill:none;stroke:#ffffff;stroke-linecap:round;"/>
     </g>
     <g id="line2d_2"/>
     <g id="text_1">
      <!-- 0 -->
      <defs>
       <path d="M 51.703125 34.421875 
Q 51.703125 24.515625 49.828125 17.75 
Q 47.953125 10.984375 44.703125 6.8125 
Q 41.453125 2.640625 37.0625 0.828125 
Q 32.671875 -0.984375 27.6875 -0.984375 
Q 22.65625 -0.984375 18.3125 0.828125 
Q 13.96875 2.640625 10.765625 6.78125 
Q 7.5625 10.9375 5.734375 17.703125 
Q 3.90625 24.46875 3.90625 34.421875 
Q 3.90625 44.828125 5.734375 51.640625 
Q 7.5625 58.453125 10.78125 62.5 
Q 14.015625 66.546875 18.40625 68.1875 
Q 22.796875 69.828125 27.984375 69.828125 
Q 32.90625 69.828125 37.21875 68.1875 
Q 41.546875 66.546875 44.765625 62.5 
Q 48 58.453125 49.84375 51.640625 
Q 51.703125 44.828125 51.703125 34.421875 
M 42.78125 34.421875 
Q 42.78125 42.625 41.796875 48.0625 
Q 40.828125 53.515625 38.921875 56.765625 
Q 37.015625 60.015625 34.25 61.359375 
Q 31.5 62.703125 27.984375 62.703125 
Q 24.265625 62.703125 21.4375 61.328125 
Q 18.609375 59.96875 16.671875 56.71875 
Q 14.75 53.46875 13.765625 48.015625 
Q 12.796875 42.578125 12.796875 34.421875 
Q 12.796875 26.515625 13.796875 21.09375 
Q 14.796875 15.671875 16.71875 12.375 
Q 18.65625 9.078125 21.4375 7.640625 
Q 24.21875 6.203125 27.78125 6.203125 
Q 31.25 6.203125 34.03125 7.640625 
Q 36.8125 9.078125 38.734375 12.375 
Q 40.671875 15.671875 41.71875 21.09375 
Q 42.78125 26.515625 42.78125 34.421875 
" id="LiberationSans-30"/>
      </defs>
      <g style="fill:#262626;" transform="translate(89.51044 366.686875)scale(0.1 -0.1)">
       <use xlink:href="#LiberationSans-30"/>
      </g>
     </g>
    </g>
    <g id="xtick_2">
     <g id="line2d_3">
      <path clip-path="url(#p1d4b57c89c)" d="M 166.944732 352.44 
L 166.944732 47.52 
" style="fill:none;stroke:#ffffff;stroke-linecap:round;"/>
     </g>
     <g id="line2d_4"/>
     <g id="text_2">
      <!-- 500 -->
      <defs>
       <path d="M 51.421875 22.40625 
Q 51.421875 17.234375 49.859375 12.9375 
Q 48.296875 8.640625 45.21875 5.53125 
Q 42.140625 2.4375 37.578125 0.71875 
Q 33.015625 -0.984375 27 -0.984375 
Q 21.578125 -0.984375 17.546875 0.28125 
Q 13.53125 1.5625 10.734375 3.78125 
Q 7.953125 6 6.3125 8.984375 
Q 4.6875 11.96875 4 15.375 
L 12.890625 16.40625 
Q 13.421875 14.453125 14.390625 12.625 
Q 15.375 10.796875 17.0625 9.34375 
Q 18.75 7.90625 21.21875 7.046875 
Q 23.6875 6.203125 27.203125 6.203125 
Q 30.609375 6.203125 33.390625 7.25 
Q 36.1875 8.296875 38.15625 10.34375 
Q 40.140625 12.40625 41.203125 15.375 
Q 42.28125 18.359375 42.28125 22.21875 
Q 42.28125 25.390625 41.25 28.046875 
Q 40.234375 30.71875 38.328125 32.640625 
Q 36.421875 34.578125 33.65625 35.640625 
Q 30.90625 36.71875 27.390625 36.71875 
Q 25.203125 36.71875 23.34375 36.328125 
Q 21.484375 35.9375 19.890625 35.25 
Q 18.3125 34.578125 17.015625 33.671875 
Q 15.71875 32.765625 14.59375 31.78125 
L 6 31.78125 
L 8.296875 68.796875 
L 47.40625 68.796875 
L 47.40625 61.328125 
L 16.3125 61.328125 
L 14.984375 39.5 
Q 17.328125 41.3125 20.84375 42.59375 
Q 24.359375 43.890625 29.203125 43.890625 
Q 34.328125 43.890625 38.421875 42.328125 
Q 42.53125 40.765625 45.40625 37.90625 
Q 48.296875 35.0625 49.859375 31.109375 
Q 51.421875 27.15625 51.421875 22.40625 
" id="LiberationSans-35"/>
      </defs>
      <g style="fill:#262626;" transform="translate(158.603326 366.686875)scale(0.1 -0.1)">
       <use xlink:href="#LiberationSans-35"/>
       <use x="55.615234" xlink:href="#LiberationSans-30"/>
       <use x="111.230469" xlink:href="#LiberationSans-30"/>
      </g>
     </g>
    </g>
    <g id="xtick_3">
     <g id="line2d_5">
      <path clip-path="url(#p1d4b57c89c)" d="M 241.598555 352.44 
L 241.598555 47.52 
" style="fill:none;stroke:#ffffff;stroke-linecap:round;"/>
     </g>
     <g id="line2d_6"/>
     <g id="text_3">
      <!-- 1000 -->
      <defs>
       <path d="M 7.625 0 
L 7.625 7.46875 
L 25.140625 7.46875 
L 25.140625 60.40625 
L 9.625 49.3125 
L 9.625 57.625 
L 25.875 68.796875 
L 33.984375 68.796875 
L 33.984375 7.46875 
L 50.734375 7.46875 
L 50.734375 0 
z
" id="LiberationSans-31"/>
      </defs>
      <g style="fill:#262626;" transform="translate(230.47668 366.686875)scale(0.1 -0.1)">
       <use xlink:href="#LiberationSans-31"/>
       <use x="55.615234" xlink:href="#LiberationSans-30"/>
       <use x="111.230469" xlink:href="#LiberationSans-30"/>
       <use x="166.845703" xlink:href="#LiberationSans-30"/>
      </g>
     </g>
    </g>
    <g id="xtick_4">
     <g id="line2d_7">
      <path clip-path="url(#p1d4b57c89c)" d="M 316.252378 352.44 
L 316.252378 47.52 
" style="fill:none;stroke:#ffffff;stroke-linecap:round;"/>
     </g>
     <g id="line2d_8"/>
     <g id="text_4">
      <!-- 1500 -->
      <g style="fill:#262626;" transform="translate(305.130503 366.686875)scale(0.1 -0.1)">
       <use xlink:href="#LiberationSans-31"/>
       <use x="55.615234" xlink:href="#LiberationSans-35"/>
       <use x="111.230469" xlink:href="#LiberationSans-30"/>
       <use x="166.845703" xlink:href="#LiberationSans-30"/>
      </g>
     </g>
    </g>
    <g id="xtick_5">
     <g id="line2d_9">
      <path clip-path="url(#p1d4b57c89c)" d="M 390.906201 352.44 
L 390.906201 47.52 
" style="fill:none;stroke:#ffffff;stroke-linecap:round;"/>
     </g>
     <g id="line2d_10"/>
     <g id="text_5">
      <!-- 2000 -->
      <defs>
       <path d="M 5.03125 0 
L 5.03125 6.203125 
Q 7.515625 11.921875 11.109375 16.28125 
Q 14.703125 20.65625 18.65625 24.1875 
Q 22.609375 27.734375 26.484375 30.765625 
Q 30.375 33.796875 33.5 36.8125 
Q 36.625 39.84375 38.546875 43.15625 
Q 40.484375 46.484375 40.484375 50.6875 
Q 40.484375 53.609375 39.59375 55.828125 
Q 38.71875 58.0625 37.0625 59.5625 
Q 35.40625 61.078125 33.078125 61.828125 
Q 30.765625 62.59375 27.9375 62.59375 
Q 25.296875 62.59375 22.96875 61.859375 
Q 20.65625 61.140625 18.84375 59.671875 
Q 17.046875 58.203125 15.890625 56.03125 
Q 14.75 53.859375 14.40625 50.984375 
L 5.421875 51.8125 
Q 5.859375 55.515625 7.46875 58.78125 
Q 9.078125 62.0625 11.90625 64.53125 
Q 14.75 67 18.71875 68.40625 
Q 22.703125 69.828125 27.9375 69.828125 
Q 33.0625 69.828125 37.0625 68.609375 
Q 41.0625 67.390625 43.8125 64.984375 
Q 46.578125 62.59375 48.046875 59.078125 
Q 49.515625 55.5625 49.515625 50.984375 
Q 49.515625 47.515625 48.265625 44.390625 
Q 47.015625 41.265625 44.9375 38.421875 
Q 42.875 35.59375 40.140625 32.953125 
Q 37.40625 30.328125 34.421875 27.8125 
Q 31.453125 25.296875 28.421875 22.828125 
Q 25.390625 20.359375 22.71875 17.859375 
Q 20.0625 15.375 17.96875 12.8125 
Q 15.875 10.25 14.703125 7.46875 
L 50.59375 7.46875 
L 50.59375 0 
z
" id="LiberationSans-32"/>
      </defs>
      <g style="fill:#262626;" transform="translate(379.784326 366.686875)scale(0.1 -0.1)">
       <use xlink:href="#LiberationSans-32"/>
       <use x="55.615234" xlink:href="#LiberationSans-30"/>
       <use x="111.230469" xlink:href="#LiberationSans-30"/>
       <use x="166.845703" xlink:href="#LiberationSans-30"/>
      </g>
     </g>
    </g>
    <g id="xtick_6">
     <g id="line2d_11">
      <path clip-path="url(#p1d4b57c89c)" d="M 465.560024 352.44 
L 465.560024 47.52 
" style="fill:none;stroke:#ffffff;stroke-linecap:round;"/>
     </g>
     <g id="line2d_12"/>
     <g id="text_6">
      <!-- 2500 -->
      <g style="fill:#262626;" transform="translate(454.438149 366.686875)scale(0.1 -0.1)">
       <use xlink:href="#LiberationSans-32"/>
       <use x="55.615234" xlink:href="#LiberationSans-35"/>
       <use x="111.230469" xlink:href="#LiberationSans-30"/>
       <use x="166.845703" xlink:href="#LiberationSans-30"/>
      </g>
     </g>
    </g>
   </g>
   <g id="matplotlib.axis_2">
    <g id="ytick_1">
     <g id="line2d_13">
      <path clip-path="url(#p1d4b57c89c)" d="M 72 312.877789 
L 518.4 312.877789 
" style="fill:none;stroke:#ffffff;stroke-linecap:round;"/>
     </g>
     <g id="line2d_14"/>
     <g id="text_7">
      <!-- −10000 -->
      <defs>
       <path d="M 4.9375 29.6875 
L 4.9375 36.8125 
L 53.515625 36.8125 
L 53.515625 29.6875 
z
" id="LiberationSans-2212"/>
      </defs>
      <g style="fill:#262626;" transform="translate(31.354687 316.501227)scale(0.1 -0.1)">
       <use xlink:href="#LiberationSans-2212"/>
       <use x="58.398438" xlink:href="#LiberationSans-31"/>
       <use x="114.013672" xlink:href="#LiberationSans-30"/>
       <use x="169.628906" xlink:href="#LiberationSans-30"/>
       <use x="225.244141" xlink:href="#LiberationSans-30"/>
       <use x="280.859375" xlink:href="#LiberationSans-30"/>
      </g>
     </g>
    </g>
    <g id="ytick_2">
     <g id="line2d_15">
      <path clip-path="url(#p1d4b57c89c)" d="M 72 268.427216 
L 518.4 268.427216 
" style="fill:none;stroke:#ffffff;stroke-linecap:round;"/>
     </g>
     <g id="line2d_16"/>
     <g id="text_8">
      <!-- −5000 -->
      <g style="fill:#262626;" transform="translate(36.915625 272.050653)scale(0.1 -0.1)">
       <use xlink:href="#LiberationSans-2212"/>
       <use x="58.398438" xlink:href="#LiberationSans-35"/>
       <use x="114.013672" xlink:href="#LiberationSans-30"/>
       <use x="169.628906" xlink:href="#LiberationSans-30"/>
       <use x="225.244141" xlink:href="#LiberationSans-30"/>
      </g>
     </g>
    </g>
    <g id="ytick_3">
     <g id="line2d_17">
      <path clip-path="url(#p1d4b57c89c)" d="M 72 223.976642 
L 518.4 223.976642 
" style="fill:none;stroke:#ffffff;stroke-linecap:round;"/>
     </g>
     <g id="line2d_18"/>
     <g id="text_9">
      <!-- 0 -->
      <g style="fill:#262626;" transform="translate(59.439062 227.60008)scale(0.1 -0.1)">
       <use xlink:href="#LiberationSans-30"/>
      </g>
     </g>
    </g>
    <g id="ytick_4">
     <g id="line2d_19">
      <path clip-path="url(#p1d4b57c89c)" d="M 72 179.526069 
L 518.4 179.526069 
" style="fill:none;stroke:#ffffff;stroke-linecap:round;"/>
     </g>
     <g id="line2d_20"/>
     <g id="text_10">
      <!-- 5000 -->
      <g style="fill:#262626;" transform="translate(42.75625 183.149506)scale(0.1 -0.1)">
       <use xlink:href="#LiberationSans-35"/>
       <use x="55.615234" xlink:href="#LiberationSans-30"/>
       <use x="111.230469" xlink:href="#LiberationSans-30"/>
       <use x="166.845703" xlink:href="#LiberationSans-30"/>
      </g>
     </g>
    </g>
    <g id="ytick_5">
     <g id="line2d_21">
      <path clip-path="url(#p1d4b57c89c)" d="M 72 135.075495 
L 518.4 135.075495 
" style="fill:none;stroke:#ffffff;stroke-linecap:round;"/>
     </g>
     <g id="line2d_22"/>
     <g id="text_11">
      <!-- 10000 -->
      <g style="fill:#262626;" transform="translate(37.195312 138.698932)scale(0.1 -0.1)">
       <use xlink:href="#LiberationSans-31"/>
       <use x="55.615234" xlink:href="#LiberationSans-30"/>
       <use x="111.230469" xlink:href="#LiberationSans-30"/>
       <use x="166.845703" xlink:href="#LiberationSans-30"/>
       <use x="222.460938" xlink:href="#LiberationSans-30"/>
      </g>
     </g>
    </g>
    <g id="ytick_6">
     <g id="line2d_23">
      <path clip-path="url(#p1d4b57c89c)" d="M 72 90.624921 
L 518.4 90.624921 
" style="fill:none;stroke:#ffffff;stroke-linecap:round;"/>
     </g>
     <g id="line2d_24"/>
     <g id="text_12">
      <!-- 15000 -->
      <g style="fill:#262626;" transform="translate(37.195312 94.248359)scale(0.1 -0.1)">
       <use xlink:href="#LiberationSans-31"/>
       <use x="55.615234" xlink:href="#LiberationSans-35"/>
       <use x="111.230469" xlink:href="#LiberationSans-30"/>
       <use x="166.845703" xlink:href="#LiberationSans-30"/>
       <use x="222.460938" xlink:href="#LiberationSans-30"/>
      </g>
     </g>
    </g>
   </g>
   <g id="line2d_25">
    <path clip-path="url(#p1d4b57c89c)" d="M 92.290909 223.976642 
L 93.037447 223.977775 
L 93.186755 225.947474 
L 93.336063 234.124175 
L 93.933293 291.565873 
L 94.082601 269.116911 
L 94.679831 78.849075 
L 94.829139 82.498468 
L 95.127754 166.185562 
L 95.575677 295.385777 
L 95.724985 303.146314 
L 95.874293 292.096524 
L 96.620831 189.378983 
L 96.770138 195.316601 
L 97.367369 251.726602 
L 97.516677 254.549658 
L 97.665984 250.762647 
L 98.263215 218.873592 
L 98.412523 218.130494 
L 98.56183 221.491259 
L 99.308368 251.356684 
L 99.606984 257.155173 
L 99.905599 271.485149 
L 100.204214 285.136364 
L 100.353522 266.907451 
L 101.10006 61.38 
L 101.398675 158.074133 
L 101.846598 325.326617 
L 101.995906 338.58 
L 102.145214 327.963425 
L 102.742444 214.59197 
L 102.891752 211.712462 
L 103.04106 225.583299 
L 103.339675 271.36931 
L 103.488983 272.875918 
L 103.63829 246.638878 
L 104.086213 111.918524 
L 104.235521 101.703782 
L 104.384828 120.378357 
L 105.131367 309.222263 
L 105.280674 306.168686 
L 105.57929 262.784482 
L 105.877905 220.450209 
L 106.027213 215.829892 
L 106.17652 225.286734 
L 106.475135 265.163832 
L 106.624443 269.484428 
L 106.773751 247.975596 
L 107.370981 96.9938 
L 107.520289 110.136945 
L 108.266827 305.603631 
L 108.416135 306.000397 
L 108.71475 263.214586 
L 109.162673 196.537659 
L 109.311981 194.705495 
L 109.461288 203.541113 
L 110.058519 263.03954 
L 110.207827 267.829889 
L 110.357134 268.571591 
L 110.506442 268.280084 
L 110.65575 270.167189 
L 110.805057 274.559261 
L 110.954365 274.838055 
L 111.103672 258.803755 
L 111.850211 79.605624 
L 111.999518 104.822435 
L 112.596749 283.802491 
L 112.746057 296.803662 
L 112.895364 291.031755 
L 113.641902 188.658528 
L 113.79121 191.043301 
L 114.089825 217.879037 
L 114.388441 243.993891 
L 114.537748 248.424191 
L 114.687056 246.277317 
L 115.433594 211.91898 
L 115.582902 213.430921 
L 116.32944 234.296999 
L 116.478748 233.323086 
L 117.225286 220.857101 
L 117.374594 221.468634 
L 118.121132 229.304248 
L 118.270439 228.960227 
L 119.016978 224.582133 
L 119.166285 224.858149 
L 119.912824 227.657319 
L 120.062131 227.500444 
L 120.659362 226.320085 
L 120.808669 226.341982 
L 121.107285 226.730889 
L 121.555208 227.345391 
L 121.853823 227.285516 
L 122.749669 226.503648 
L 123.496207 226.875993 
L 124.392053 226.342506 
L 124.690668 226.469306 
L 125.138591 226.77341 
L 125.437207 226.718505 
L 126.034437 226.470328 
L 126.631668 226.450157 
L 127.676821 226.649766 
L 128.124744 226.606623 
L 129.916436 226.70068 
L 130.662974 226.525945 
L 131.409512 226.46879 
L 135.590126 226.140816 
L 135.888742 226.099726 
L 136.63528 226.159983 
L 137.979049 225.884914 
L 138.874895 225.856661 
L 139.920048 225.656154 
L 140.517279 225.717336 
L 140.965202 225.791097 
L 141.413125 225.86845 
L 142.010355 225.720652 
L 142.756893 225.737827 
L 144.8472 225.21652 
L 145.295123 225.182284 
L 145.892354 225.00626 
L 146.489585 224.792291 
L 147.086815 224.596546 
L 147.534738 224.675625 
L 148.430584 224.88915 
L 150.819506 224.971313 
L 151.715352 224.560204 
L 152.312583 224.79562 
L 152.611198 224.636467 
L 153.059121 224.31108 
L 154.104275 223.971478 
L 154.701505 223.495211 
L 155.00012 223.506116 
L 155.746659 223.917975 
L 156.194582 223.94536 
L 156.642505 224.325859 
L 157.090427 224.643597 
L 157.836966 225.040291 
L 158.284889 225.769841 
L 158.583504 226.527998 
L 158.882119 227.825644 
L 159.180734 229.874558 
L 159.47935 233.181289 
L 159.777965 239.255727 
L 160.07658 251.326102 
L 160.673811 286.562694 
L 160.823119 264.055857 
L 161.420349 65.860618 
L 161.569657 70.375907 
L 161.868272 165.972111 
L 162.316195 311.349668 
L 162.465503 318.840389 
L 162.61481 305.253182 
L 163.212041 202.116917 
L 163.361349 202.369752 
L 163.659964 241.647168 
L 163.809272 261.151546 
L 163.958579 261.482525 
L 164.257194 194.044159 
L 164.55581 118.06426 
L 164.705117 111.233096 
L 164.854425 130.098809 
L 165.600963 297.964978 
L 165.750271 294.097244 
L 166.496809 219.950825 
L 166.795424 254.843921 
L 166.944732 273.524185 
L 167.09404 271.450566 
L 167.392655 183.068335 
L 167.69127 79.498054 
L 167.840578 67.863561 
L 167.989886 91.016975 
L 168.736424 318.720373 
L 168.885731 313.446757 
L 169.184347 256.107384 
L 169.482962 195.392167 
L 169.63227 181.906397 
L 169.781577 182.660723 
L 170.080193 214.299574 
L 170.378808 249.589685 
L 170.528116 257.733297 
L 170.677423 258.091568 
L 171.274654 235.705371 
L 171.423961 240.683924 
L 171.722577 259.264175 
L 171.871884 254.238593 
L 172.1705 192.012057 
L 172.469115 125.661752 
L 172.618423 118.594111 
L 172.76773 132.875192 
L 173.514269 273.180404 
L 173.663576 271.507552 
L 173.962191 239.856432 
L 174.260807 205.061056 
L 174.410114 197.240689 
L 174.559422 197.605806 
L 174.858037 215.543008 
L 175.156653 235.295892 
L 175.30596 239.428906 
L 175.455268 238.819311 
L 175.753883 227.907735 
L 176.052498 216.549342 
L 176.201806 214.438705 
L 176.351114 215.166032 
L 176.649729 222.229201 
L 176.948344 229.29406 
L 177.097652 230.637241 
L 177.24696 230.244378 
L 177.545575 226.140087 
L 177.84419 222.018399 
L 177.993498 221.244692 
L 178.142806 221.537026 
L 178.441421 224.177922 
L 178.740036 226.851954 
L 178.889344 227.399683 
L 179.038651 227.305786 
L 179.337267 225.822141 
L 179.635882 224.367581 
L 179.78519 224.167487 
L 179.934497 224.377677 
L 180.681036 226.542765 
L 180.830343 226.398958 
L 181.576881 224.942704 
L 181.726189 224.990702 
L 182.32342 225.655443 
L 182.622035 225.563617 
L 183.069958 225.166744 
L 183.368573 225.244995 
L 183.816496 225.534413 
L 185.160265 225.563714 
L 185.906803 225.518828 
L 186.354726 225.686905 
L 186.802649 225.925933 
L 188.295725 225.982448 
L 190.236725 225.792288 
L 191.431186 225.882318 
L 191.879109 225.866992 
L 192.625647 225.65883 
L 195.462492 225.654002 
L 200.240337 225.475115 
L 200.837568 225.63456 
L 201.285491 225.375777 
L 201.584106 225.260161 
L 202.479952 225.290423 
L 203.525105 225.042825 
L 204.122336 225.021871 
L 205.018182 224.737831 
L 206.511258 224.643143 
L 207.257797 224.796501 
L 207.705719 224.78349 
L 208.601565 225.03237 
L 210.691872 224.617411 
L 211.139795 224.621902 
L 212.184949 224.197449 
L 212.632872 223.881305 
L 214.125948 223.737741 
L 214.573871 223.838985 
L 215.619025 224.366411 
L 216.216255 224.451337 
L 217.112101 224.751244 
L 217.410716 224.848009 
L 217.858639 225.292664 
L 218.45587 226.162837 
L 218.903793 227.294006 
L 219.351716 229.203292 
L 219.650331 231.351864 
L 219.948946 235.093908 
L 220.247562 242.397049 
L 220.844792 266.169127 
L 220.9941 253.833648 
L 221.740638 111.716719 
L 221.889946 133.216572 
L 222.487176 282.073364 
L 222.636484 292.191292 
L 222.785792 286.790281 
L 223.383022 216.815308 
L 223.53233 216.216728 
L 223.830945 245.489742 
L 223.980253 260.505501 
L 224.129561 258.655913 
L 224.428176 189.864472 
L 224.726791 111.647376 
L 224.876099 103.94498 
L 225.025406 123.151184 
L 225.771945 304.169566 
L 225.921252 301.347222 
L 226.219868 261.522975 
L 226.518483 224.85839 
L 226.66779 223.181423 
L 226.817098 235.157739 
L 227.115713 274.312561 
L 227.265021 272.403231 
L 227.563636 188.982395 
L 227.862252 92.611862 
L 228.011559 81.762366 
L 228.160867 102.622131 
L 228.907405 306.375737 
L 229.056713 301.565918 
L 229.355328 250.337966 
L 229.653943 196.518012 
L 229.803251 184.831689 
L 229.952559 185.93753 
L 230.251174 215.057723 
L 230.549789 247.195844 
L 230.699097 254.779645 
L 230.848405 255.571665 
L 231.296328 241.579692 
L 231.445635 241.845506 
L 231.594943 245.127025 
L 231.74425 244.656649 
L 231.893558 231.998468 
L 232.490789 127.365987 
L 232.640096 130.44819 
L 232.938712 181.813228 
L 233.386635 261.842041 
L 233.535942 267.516868 
L 233.68525 261.760697 
L 234.431788 199.571233 
L 234.581096 202.617519 
L 235.327634 238.376228 
L 235.476942 236.295496 
L 236.074172 216.750846 
L 236.22348 215.88478 
L 236.372787 217.394206 
L 236.970018 229.6521 
L 237.119326 230.207581 
L 237.268633 229.340973 
L 237.865864 222.237922 
L 238.015172 222.01575 
L 238.164479 222.67721 
L 238.76171 227.299358 
L 238.911017 227.474404 
L 239.060325 227.117004 
L 239.657556 224.3907 
L 239.806863 224.254596 
L 239.956171 224.432958 
L 240.553402 225.939011 
L 240.702709 225.973664 
L 241.001325 225.530154 
L 241.449247 224.825512 
L 241.747863 224.814306 
L 242.046478 225.076332 
L 242.494401 225.53299 
L 242.793016 225.489509 
L 243.240939 225.219222 
L 243.688862 225.237749 
L 244.136785 225.425686 
L 246.97363 225.824977 
L 247.570861 225.745748 
L 249.959783 225.599808 
L 250.407706 225.584215 
L 251.303552 225.615037 
L 252.647321 225.641236 
L 253.095244 225.628514 
L 253.543167 225.579476 
L 253.99109 225.68101 
L 258.619627 225.497785 
L 259.216857 225.459807 
L 259.66478 225.469381 
L 260.262011 225.49831 
L 261.755087 225.108034 
L 262.501626 225.092574 
L 263.397471 224.881967 
L 264.14401 224.826951 
L 265.039856 224.610841 
L 265.935701 224.89476 
L 266.68224 225.001886 
L 268.324624 224.78585 
L 268.921854 224.605889 
L 269.519085 224.675627 
L 270.265623 224.469339 
L 272.35593 223.706561 
L 272.654545 223.749672 
L 273.550391 224.147489 
L 274.147622 224.160398 
L 275.043468 224.561738 
L 275.790006 224.215311 
L 276.237929 224.467048 
L 276.685852 224.820515 
L 277.133775 224.840219 
L 277.731005 224.844725 
L 278.477544 225.125787 
L 279.074774 225.273879 
L 279.37339 225.517192 
L 279.672005 226.197722 
L 279.97062 227.870708 
L 280.269235 231.296389 
L 280.567851 238.371516 
L 281.015774 257.772058 
L 281.165081 255.719686 
L 281.314389 238.514113 
L 281.91162 121.630974 
L 282.060927 129.715645 
L 282.359542 196.614203 
L 282.658158 268.154023 
L 282.807465 285.946609 
L 282.956773 288.651516 
L 283.106081 278.64658 
L 283.554004 227.272768 
L 283.703311 222.196761 
L 283.852619 228.781047 
L 284.300542 269.526034 
L 284.449849 249.792735 
L 285.04708 83.563503 
L 285.196388 95.096649 
L 285.495003 190.110995 
L 285.793618 290.405535 
L 285.942926 314.734934 
L 286.092234 317.327292 
L 286.390849 274.083551 
L 286.689464 220.50667 
L 286.838772 208.931634 
L 286.988079 212.252981 
L 287.436002 261.588584 
L 287.58531 253.187959 
L 288.182541 124.384243 
L 288.331848 126.594326 
L 288.630464 187.123472 
L 289.078387 281.140969 
L 289.227694 286.250029 
L 289.377002 277.155353 
L 290.12354 196.050925 
L 290.272848 200.523097 
L 291.019386 252.272366 
L 291.168694 253.198094 
L 291.318001 252.490974 
L 291.467309 253.092123 
L 291.765924 262.788927 
L 291.915232 260.98779 
L 292.064539 241.108338 
L 292.66177 91.545048 
L 292.811078 97.865031 
L 293.109693 173.72758 
L 293.557616 284.164852 
L 293.706924 289.963785 
L 293.856231 279.793227 
L 294.453462 196.320029 
L 294.602769 191.864303 
L 294.752077 197.095958 
L 295.349308 244.57246 
L 295.498615 246.557711 
L 295.647923 242.942724 
L 296.245154 214.901346 
L 296.394461 213.989043 
L 296.543769 216.436082 
L 297.140999 234.058655 
L 297.290307 234.629222 
L 297.439615 233.129015 
L 298.036845 222.439275 
L 298.186153 222.167957 
L 298.335461 223.132383 
L 298.932691 229.309804 
L 299.081999 229.352388 
L 299.380614 227.495759 
L 299.828537 224.576086 
L 299.977845 224.48974 
L 300.127152 224.869663 
L 300.724383 227.262411 
L 300.873691 227.308026 
L 301.172306 226.732507 
L 301.620229 225.760586 
L 301.769536 225.708997 
L 302.068152 226.055844 
L 302.516075 226.698529 
L 302.81469 226.6688 
L 303.411921 226.201402 
L 303.710536 226.255872 
L 304.457074 226.722612 
L 306.398073 226.492971 
L 306.995304 226.321579 
L 310.877303 226.091236 
L 311.623841 226.156205 
L 312.519687 225.982208 
L 313.56484 226.061774 
L 314.609994 225.833236 
L 314.908609 225.860111 
L 315.356532 225.957475 
L 316.401686 225.768098 
L 318.790608 225.728946 
L 319.387839 225.608823 
L 320.134377 225.471079 
L 321.030223 225.395656 
L 324.464299 225.083524 
L 325.957375 225.264998 
L 326.554606 225.100006 
L 327.898374 224.904023 
L 330.436604 224.281051 
L 330.884527 224.093643 
L 331.33245 223.924946 
L 331.631066 224.005555 
L 332.377604 224.407516 
L 334.766526 224.500451 
L 337.155449 224.366614 
L 338.051294 223.751813 
L 338.648525 223.818073 
L 339.096448 224.073944 
L 339.395063 224.568408 
L 339.693679 225.434079 
L 339.992294 226.871761 
L 340.290909 229.298149 
L 340.589524 233.873562 
L 340.88814 243.233609 
L 341.336063 260.292672 
L 341.48537 249.394636 
L 342.231908 121.794553 
L 342.381216 142.513143 
L 342.978447 282.666246 
L 343.127754 292.26508 
L 343.277062 287.458107 
L 343.874293 226.267891 
L 344.0236 227.892658 
L 344.471523 268.563946 
L 344.620831 258.412146 
L 345.218061 106.468884 
L 345.367369 108.023765 
L 345.665984 179.318929 
L 346.113907 292.548853 
L 346.263215 299.401887 
L 346.412523 289.70935 
L 347.009753 208.368801 
L 347.159061 207.714578 
L 347.457676 236.879577 
L 347.606984 251.18226 
L 347.756291 250.900799 
L 348.054907 200.765353 
L 348.353522 146.559034 
L 348.50283 142.38797 
L 348.652137 156.576949 
L 349.398675 274.841878 
L 349.547983 270.907913 
L 350.294521 203.101319 
L 350.443829 205.093683 
L 350.742444 225.097623 
L 351.190367 255.132138 
L 351.787598 274.672877 
L 351.936905 273.008736 
L 352.086213 253.620996 
L 352.683444 89.499433 
L 352.832751 91.464148 
L 353.131367 165.24081 
L 353.57929 283.175916 
L 353.728597 291.038422 
L 353.877905 281.938768 
L 354.624443 188.518953 
L 354.773751 192.971923 
L 355.520289 245.79734 
L 355.669597 242.6914 
L 356.266827 213.33393 
L 356.416135 211.958363 
L 356.565443 214.144886 
L 357.162673 232.26903 
L 357.311981 232.97006 
L 357.461288 231.49519 
L 358.058519 220.316484 
L 358.207827 219.888425 
L 358.357134 220.767489 
L 358.954365 227.428754 
L 359.103672 227.66924 
L 359.25298 227.106727 
L 359.850211 223.119679 
L 359.999518 223.025355 
L 360.148826 223.417288 
L 360.746057 226.114848 
L 360.895364 226.213208 
L 361.044672 226.000032 
L 361.641902 224.532886 
L 361.79121 224.544562 
L 362.089825 225.025702 
L 362.537748 225.765751 
L 362.836364 225.720287 
L 363.284287 225.409569 
L 363.582902 225.460029 
L 364.32944 225.89368 
L 364.926671 225.611525 
L 365.374594 225.465345 
L 366.419747 225.420628 
L 366.86767 225.284094 
L 367.166285 225.348627 
L 367.614208 225.535399 
L 367.912824 225.493865 
L 368.360747 225.341959 
L 371.346899 225.580659 
L 371.94413 225.574347 
L 373.586514 225.458482 
L 374.034437 225.472351 
L 374.780975 225.319992 
L 376.124744 225.406333 
L 377.02059 225.342226 
L 377.468513 225.325513 
L 380.305358 225.039393 
L 380.902589 225.067628 
L 382.246358 224.87337 
L 383.291511 224.994889 
L 384.187357 225.1224 
L 384.63528 225.047874 
L 385.232511 225.111528 
L 385.979049 224.84247 
L 386.874895 224.806907 
L 387.621433 224.560052 
L 388.965202 224.28178 
L 389.562432 224.148985 
L 390.607586 224.157108 
L 391.802047 224.481946 
L 392.24997 224.566336 
L 392.697893 224.689182 
L 393.145816 224.515205 
L 393.593739 224.269512 
L 394.190969 224.390334 
L 394.7882 224.503508 
L 395.236123 224.26277 
L 395.833353 224.004042 
L 396.430584 223.772413 
L 397.177122 223.312568 
L 397.475738 223.329722 
L 398.072968 223.674633 
L 398.968814 224.332145 
L 399.416737 225.00345 
L 399.86466 226.197393 
L 400.163275 227.406235 
L 400.46189 229.51505 
L 400.760506 233.679491 
L 401.059121 242.53289 
L 401.507044 265.389464 
L 401.656352 260.647032 
L 401.954967 197.246823 
L 402.253582 117.521963 
L 402.40289 104.971789 
L 402.552197 118.754133 
L 403.298736 299.04646 
L 403.448043 298.702235 
L 403.746659 260.816744 
L 404.045274 218.529233 
L 404.194582 210.607332 
L 404.343889 214.52805 
L 404.791812 247.140103 
L 404.94112 237.282744 
L 405.53835 155.725009 
L 405.687658 162.608358 
L 406.583504 267.958262 
L 406.882119 247.014397 
L 407.180734 223.104813 
L 407.330042 219.550352 
L 407.47935 223.65287 
L 407.777965 243.970332 
L 407.927273 245.38066 
L 408.07658 232.334212 
L 408.673811 146.851163 
L 408.823119 155.517691 
L 409.569657 271.534489 
L 409.718964 271.481504 
L 410.01758 246.013014 
L 410.465503 207.428405 
L 410.61481 206.714173 
L 410.913426 221.871667 
L 411.361349 249.275597 
L 411.659964 255.557886 
L 411.958579 259.701657 
L 412.107887 259.299113 
L 412.257194 249.236214 
L 412.55581 190.306133 
L 412.854425 132.40935 
L 413.003733 127.576683 
L 413.15304 142.064014 
L 413.899579 269.717883 
L 414.048886 267.022933 
L 414.347502 237.010617 
L 414.646117 205.901439 
L 414.795424 199.405521 
L 414.944732 200.34734 
L 415.243347 217.401913 
L 415.541963 235.073461 
L 415.69127 238.425479 
L 415.840578 237.424274 
L 416.139193 226.898058 
L 416.437809 216.449382 
L 416.587116 214.52725 
L 416.736424 215.235357 
L 417.482962 229.140519 
L 417.63227 228.701249 
L 418.378808 220.403643 
L 418.528116 220.805031 
L 419.274654 226.171265 
L 419.423961 226.016986 
L 420.1705 223.051421 
L 420.319807 223.222087 
L 421.066346 225.335283 
L 421.215653 225.286743 
L 421.962191 224.488336 
L 422.260807 224.790619 
L 422.70873 225.298478 
L 423.007345 225.313458 
L 423.903191 224.920283 
L 424.500421 224.947425 
L 425.396267 224.742992 
L 426.142806 224.953684 
L 426.889344 224.857247 
L 427.78519 224.968139 
L 430.622035 225.27219 
L 433.309573 225.139905 
L 434.056111 225.059716 
L 435.549187 225.17278 
L 435.99711 225.13666 
L 436.594341 224.99881 
L 438.386033 224.941042 
L 438.983263 224.908317 
L 439.580494 224.926818 
L 440.327032 224.867814 
L 441.07357 224.788901 
L 441.820108 224.867743 
L 443.761108 225.006135 
L 444.955569 224.714489 
L 445.403492 224.608507 
L 446.597953 224.55936 
L 447.643107 224.344591 
L 449.136183 224.217143 
L 450.181337 224.545638 
L 451.973028 224.621931 
L 452.719567 224.283486 
L 453.615412 224.535462 
L 454.063335 224.275322 
L 454.660566 223.892594 
L 456.004335 223.487028 
L 456.30295 223.386952 
L 456.750873 223.538071 
L 459.289103 225.026218 
L 459.737026 225.823964 
L 460.035641 226.632466 
L 460.334256 228.011474 
L 460.632872 230.447143 
L 460.931487 234.960379 
L 461.230102 243.916636 
L 461.678025 267.720274 
L 461.827333 267.03289 
L 461.976641 249.391169 
L 462.573871 114.563333 
L 462.723179 120.80775 
L 463.021794 190.003602 
L 463.320409 266.041198 
L 463.469717 284.939804 
L 463.619025 287.535628 
L 463.768332 276.151925 
L 464.365563 205.025318 
L 464.514871 205.906684 
L 464.962793 242.987619 
L 465.112101 242.120211 
L 465.410716 203.199644 
L 465.709332 164.944502 
L 465.858639 163.970235 
L 466.157255 198.546024 
L 466.605178 260.02339 
L 466.754485 265.389997 
L 466.903793 261.980016 
L 467.501023 225.238034 
L 467.650331 227.923302 
L 468.098254 252.683889 
L 468.247562 238.206338 
L 468.844792 121.907457 
L 468.9941 130.786904 
L 469.292715 198.809172 
L 469.591331 269.167051 
L 469.740638 285.663192 
L 469.889946 286.621458 
L 470.188561 253.655134 
L 470.636484 199.978044 
L 470.785792 197.825392 
L 470.935099 204.178179 
L 471.53233 251.068911 
L 471.681638 255.232596 
L 471.830945 255.900777 
L 471.980253 254.561393 
L 472.129561 251.195951 
L 472.278868 242.652728 
L 472.577483 201.716062 
L 472.876099 160.725965 
L 473.025406 156.474979 
L 473.174714 165.872453 
L 473.921252 256.420494 
L 474.07056 254.858678 
L 474.369175 234.136799 
L 474.66779 211.982633 
L 474.817098 207.033595 
L 474.966406 207.25887 
L 475.265021 218.610444 
L 475.563636 230.996686 
L 475.712944 233.515024 
L 475.862252 233.028112 
L 476.160867 225.945865 
L 476.459482 218.687104 
L 476.60879 217.308665 
L 476.758098 217.750966 
L 477.056713 222.324023 
L 477.355328 226.950128 
L 477.504636 227.89296 
L 477.653943 227.719203 
L 477.952559 225.103793 
L 478.251174 222.472052 
L 478.400482 222.036472 
L 478.549789 222.297388 
L 479.296328 225.981087 
L 479.445635 225.842588 
L 480.192173 223.894582 
L 480.341481 224.058469 
L 481.088019 225.651718 
L 481.237327 225.644179 
L 481.68525 225.103429 
L 481.983865 224.842057 
L 482.28248 224.862802 
L 482.879711 225.134144 
L 483.327634 224.910958 
L 483.775557 224.645515 
L 484.074172 224.650742 
L 484.970018 224.94931 
L 485.865864 224.819892 
L 486.463095 224.995885 
L 487.209633 224.944491 
L 488.254786 225.228513 
L 489.89717 225.287205 
L 493.032631 225.105731 
L 493.480554 225.066321 
L 494.077784 225.159099 
L 494.97363 225.065281 
L 496.018784 225.140189 
L 496.91463 224.986728 
L 498.109091 225.004695 
L 498.109091 225.004695 
" style="fill:none;stroke:#4c72b0;stroke-linecap:round;stroke-width:1.75;"/>
   </g>
   <g id="patch_3">
    <path d="M 72 352.44 
L 72 47.52 
" style="fill:none;"/>
   </g>
   <g id="patch_4">
    <path d="M 518.4 352.44 
L 518.4 47.52 
" style="fill:none;"/>
   </g>
   <g id="patch_5">
    <path d="M 72 352.44 
L 518.4 352.44 
" style="fill:none;"/>
   </g>
   <g id="patch_6">
    <path d="M 72 47.52 
L 518.4 47.52 
" style="fill:none;"/>
   </g>
  </g>
 </g>
 <defs>
  <clipPath id="p1d4b57c89c">
   <rect height="304.92" width="446.4" x="72" y="47.52"/>
  </clipPath>
 </defs>
</svg>
