<?xml version="1.0" encoding="utf-8" standalone="no"?>
<!DOCTYPE svg PUBLIC "-//W3C//DTD SVG 1.1//EN"
  "http://www.w3.org/Graphics/SVG/1.1/DTD/svg11.dtd">
<!-- Created with matplotlib (http://matplotlib.org/) -->
<svg height="396pt" version="1.1" viewBox="0 0 576 396" width="576pt" xmlns="http://www.w3.org/2000/svg" xmlns:xlink="http://www.w3.org/1999/xlink">
 <defs>
  <style type="text/css">
*{stroke-linecap:butt;stroke-linejoin:round;}
  </style>
 </defs>
 <g id="figure_1">
  <g id="patch_1">
   <path d="M 0 396 
L 576 396 
L 576 0 
L 0 0 
z
" style="fill:#ffffff;"/>
  </g>
  <g id="axes_1">
   <g id="patch_2">
    <path d="M 72 352.44 
L 518.4 352.44 
L 518.4 47.52 
L 72 47.52 
z
" style="fill:#eaeaf2;"/>
   </g>
   <g id="matplotlib.axis_1">
    <g id="xtick_1">
     <g id="line2d_1">
      <path clip-path="url(#pd3875a9bfb)" d="M 92.290909 352.44 
L 92.290909 47.52 
" style="fill:none;stroke:#ffffff;stroke-linecap:round;"/>
     </g>
     <g id="line2d_2"/>
     <g id="text_1">
      <!-- 0.00 -->
      <defs>
       <path d="M 51.703125 34.421875 
Q 51.703125 24.515625 49.828125 17.75 
Q 47.953125 10.984375 44.703125 6.8125 
Q 41.453125 2.640625 37.0625 0.828125 
Q 32.671875 -0.984375 27.6875 -0.984375 
Q 22.65625 -0.984375 18.3125 0.828125 
Q 13.96875 2.640625 10.765625 6.78125 
Q 7.5625 10.9375 5.734375 17.703125 
Q 3.90625 24.46875 3.90625 34.421875 
Q 3.90625 44.828125 5.734375 51.640625 
Q 7.5625 58.453125 10.78125 62.5 
Q 14.015625 66.546875 18.40625 68.1875 
Q 22.796875 69.828125 27.984375 69.828125 
Q 32.90625 69.828125 37.21875 68.1875 
Q 41.546875 66.546875 44.765625 62.5 
Q 48 58.453125 49.84375 51.640625 
Q 51.703125 44.828125 51.703125 34.421875 
M 42.78125 34.421875 
Q 42.78125 42.625 41.796875 48.0625 
Q 40.828125 53.515625 38.921875 56.765625 
Q 37.015625 60.015625 34.25 61.359375 
Q 31.5 62.703125 27.984375 62.703125 
Q 24.265625 62.703125 21.4375 61.328125 
Q 18.609375 59.96875 16.671875 56.71875 
Q 14.75 53.46875 13.765625 48.015625 
Q 12.796875 42.578125 12.796875 34.421875 
Q 12.796875 26.515625 13.796875 21.09375 
Q 14.796875 15.671875 16.71875 12.375 
Q 18.65625 9.078125 21.4375 7.640625 
Q 24.21875 6.203125 27.78125 6.203125 
Q 31.25 6.203125 34.03125 7.640625 
Q 36.8125 9.078125 38.734375 12.375 
Q 40.671875 15.671875 41.71875 21.09375 
Q 42.78125 26.515625 42.78125 34.421875 
" id="LiberationSans-30"/>
       <path d="M 9.125 0 
L 9.125 10.6875 
L 18.65625 10.6875 
L 18.65625 0 
z
" id="LiberationSans-2e"/>
      </defs>
      <g style="fill:#262626;" transform="translate(82.56044 366.686875)scale(0.1 -0.1)">
       <use xlink:href="#LiberationSans-30"/>
       <use x="55.615234" xlink:href="#LiberationSans-2e"/>
       <use x="83.398438" xlink:href="#LiberationSans-30"/>
       <use x="139.013672" xlink:href="#LiberationSans-30"/>
      </g>
     </g>
    </g>
    <g id="xtick_2">
     <g id="line2d_3">
      <path clip-path="url(#pd3875a9bfb)" d="M 158.087166 352.44 
L 158.087166 47.52 
" style="fill:none;stroke:#ffffff;stroke-linecap:round;"/>
     </g>
     <g id="line2d_4"/>
     <g id="text_2">
      <!-- 0.01 -->
      <defs>
       <path d="M 7.625 0 
L 7.625 7.46875 
L 25.140625 7.46875 
L 25.140625 60.40625 
L 9.625 49.3125 
L 9.625 57.625 
L 25.875 68.796875 
L 33.984375 68.796875 
L 33.984375 7.46875 
L 50.734375 7.46875 
L 50.734375 0 
z
" id="LiberationSans-31"/>
      </defs>
      <g style="fill:#262626;" transform="translate(148.356697 366.686875)scale(0.1 -0.1)">
       <use xlink:href="#LiberationSans-30"/>
       <use x="55.615234" xlink:href="#LiberationSans-2e"/>
       <use x="83.398438" xlink:href="#LiberationSans-30"/>
       <use x="139.013672" xlink:href="#LiberationSans-31"/>
      </g>
     </g>
    </g>
    <g id="xtick_3">
     <g id="line2d_5">
      <path clip-path="url(#pd3875a9bfb)" d="M 223.883422 352.44 
L 223.883422 47.52 
" style="fill:none;stroke:#ffffff;stroke-linecap:round;"/>
     </g>
     <g id="line2d_6"/>
     <g id="text_3">
      <!-- 0.02 -->
      <defs>
       <path d="M 5.03125 0 
L 5.03125 6.203125 
Q 7.515625 11.921875 11.109375 16.28125 
Q 14.703125 20.65625 18.65625 24.1875 
Q 22.609375 27.734375 26.484375 30.765625 
Q 30.375 33.796875 33.5 36.8125 
Q 36.625 39.84375 38.546875 43.15625 
Q 40.484375 46.484375 40.484375 50.6875 
Q 40.484375 53.609375 39.59375 55.828125 
Q 38.71875 58.0625 37.0625 59.5625 
Q 35.40625 61.078125 33.078125 61.828125 
Q 30.765625 62.59375 27.9375 62.59375 
Q 25.296875 62.59375 22.96875 61.859375 
Q 20.65625 61.140625 18.84375 59.671875 
Q 17.046875 58.203125 15.890625 56.03125 
Q 14.75 53.859375 14.40625 50.984375 
L 5.421875 51.8125 
Q 5.859375 55.515625 7.46875 58.78125 
Q 9.078125 62.0625 11.90625 64.53125 
Q 14.75 67 18.71875 68.40625 
Q 22.703125 69.828125 27.9375 69.828125 
Q 33.0625 69.828125 37.0625 68.609375 
Q 41.0625 67.390625 43.8125 64.984375 
Q 46.578125 62.59375 48.046875 59.078125 
Q 49.515625 55.5625 49.515625 50.984375 
Q 49.515625 47.515625 48.265625 44.390625 
Q 47.015625 41.265625 44.9375 38.421875 
Q 42.875 35.59375 40.140625 32.953125 
Q 37.40625 30.328125 34.421875 27.8125 
Q 31.453125 25.296875 28.421875 22.828125 
Q 25.390625 20.359375 22.71875 17.859375 
Q 20.0625 15.375 17.96875 12.8125 
Q 15.875 10.25 14.703125 7.46875 
L 50.59375 7.46875 
L 50.59375 0 
z
" id="LiberationSans-32"/>
      </defs>
      <g style="fill:#262626;" transform="translate(214.152954 366.686875)scale(0.1 -0.1)">
       <use xlink:href="#LiberationSans-30"/>
       <use x="55.615234" xlink:href="#LiberationSans-2e"/>
       <use x="83.398438" xlink:href="#LiberationSans-30"/>
       <use x="139.013672" xlink:href="#LiberationSans-32"/>
      </g>
     </g>
    </g>
    <g id="xtick_4">
     <g id="line2d_7">
      <path clip-path="url(#pd3875a9bfb)" d="M 289.679679 352.44 
L 289.679679 47.52 
" style="fill:none;stroke:#ffffff;stroke-linecap:round;"/>
     </g>
     <g id="line2d_8"/>
     <g id="text_4">
      <!-- 0.03 -->
      <defs>
       <path d="M 51.21875 19 
Q 51.21875 14.265625 49.671875 10.546875 
Q 48.140625 6.84375 45.1875 4.265625 
Q 42.234375 1.703125 37.859375 0.359375 
Q 33.5 -0.984375 27.875 -0.984375 
Q 21.484375 -0.984375 17.109375 0.609375 
Q 12.75 2.203125 9.90625 4.8125 
Q 7.078125 7.421875 5.65625 10.765625 
Q 4.25 14.109375 3.8125 17.671875 
L 12.890625 18.5 
Q 13.28125 15.765625 14.328125 13.515625 
Q 15.375 11.28125 17.1875 9.671875 
Q 19 8.0625 21.625 7.171875 
Q 24.265625 6.296875 27.875 6.296875 
Q 34.515625 6.296875 38.296875 9.5625 
Q 42.09375 12.84375 42.09375 19.28125 
Q 42.09375 23.09375 40.40625 25.40625 
Q 38.71875 27.734375 36.203125 29.03125 
Q 33.6875 30.328125 30.734375 30.765625 
Q 27.78125 31.203125 25.296875 31.203125 
L 20.3125 31.203125 
L 20.3125 38.8125 
L 25.09375 38.8125 
Q 27.59375 38.8125 30.265625 39.328125 
Q 32.953125 39.84375 35.171875 41.1875 
Q 37.40625 42.53125 38.84375 44.828125 
Q 40.28125 47.125 40.28125 50.6875 
Q 40.28125 56.203125 37.03125 59.390625 
Q 33.796875 62.59375 27.390625 62.59375 
Q 21.578125 62.59375 17.984375 59.609375 
Q 14.40625 56.640625 13.8125 51.21875 
L 4.984375 51.90625 
Q 5.515625 56.453125 7.46875 59.8125 
Q 9.421875 63.1875 12.421875 65.40625 
Q 15.4375 67.625 19.28125 68.71875 
Q 23.140625 69.828125 27.484375 69.828125 
Q 33.25 69.828125 37.390625 68.375 
Q 41.546875 66.9375 44.1875 64.46875 
Q 46.828125 62.015625 48.0625 58.6875 
Q 49.3125 55.375 49.3125 51.609375 
Q 49.3125 48.578125 48.484375 45.9375 
Q 47.65625 43.3125 45.890625 41.203125 
Q 44.140625 39.109375 41.421875 37.59375 
Q 38.71875 36.078125 34.90625 35.296875 
L 34.90625 35.109375 
Q 39.0625 34.671875 42.140625 33.21875 
Q 45.21875 31.78125 47.21875 29.625 
Q 49.21875 27.484375 50.21875 24.75 
Q 51.21875 22.015625 51.21875 19 
" id="LiberationSans-33"/>
      </defs>
      <g style="fill:#262626;" transform="translate(279.94921 366.686875)scale(0.1 -0.1)">
       <use xlink:href="#LiberationSans-30"/>
       <use x="55.615234" xlink:href="#LiberationSans-2e"/>
       <use x="83.398438" xlink:href="#LiberationSans-30"/>
       <use x="139.013672" xlink:href="#LiberationSans-33"/>
      </g>
     </g>
    </g>
    <g id="xtick_5">
     <g id="line2d_9">
      <path clip-path="url(#pd3875a9bfb)" d="M 355.475936 352.44 
L 355.475936 47.52 
" style="fill:none;stroke:#ffffff;stroke-linecap:round;"/>
     </g>
     <g id="line2d_10"/>
     <g id="text_5">
      <!-- 0.04 -->
      <defs>
       <path d="M 43.015625 15.578125 
L 43.015625 0 
L 34.71875 0 
L 34.71875 15.578125 
L 2.296875 15.578125 
L 2.296875 22.40625 
L 33.796875 68.796875 
L 43.015625 68.796875 
L 43.015625 22.515625 
L 52.6875 22.515625 
L 52.6875 15.578125 
z
M 34.71875 58.890625 
Q 34.625 58.640625 34.234375 57.9375 
Q 33.84375 57.234375 33.34375 56.34375 
Q 32.859375 55.46875 32.34375 54.5625 
Q 31.84375 53.65625 31.453125 53.078125 
L 13.8125 27.09375 
Q 13.578125 26.703125 13.109375 26.0625 
Q 12.640625 25.4375 12.15625 24.78125 
Q 11.671875 24.125 11.171875 23.484375 
Q 10.6875 22.859375 10.40625 22.515625 
L 34.71875 22.515625 
z
" id="LiberationSans-34"/>
      </defs>
      <g style="fill:#262626;" transform="translate(345.745467 366.686875)scale(0.1 -0.1)">
       <use xlink:href="#LiberationSans-30"/>
       <use x="55.615234" xlink:href="#LiberationSans-2e"/>
       <use x="83.398438" xlink:href="#LiberationSans-30"/>
       <use x="139.013672" xlink:href="#LiberationSans-34"/>
      </g>
     </g>
    </g>
    <g id="xtick_6">
     <g id="line2d_11">
      <path clip-path="url(#pd3875a9bfb)" d="M 421.272193 352.44 
L 421.272193 47.52 
" style="fill:none;stroke:#ffffff;stroke-linecap:round;"/>
     </g>
     <g id="line2d_12"/>
     <g id="text_6">
      <!-- 0.05 -->
      <defs>
       <path d="M 51.421875 22.40625 
Q 51.421875 17.234375 49.859375 12.9375 
Q 48.296875 8.640625 45.21875 5.53125 
Q 42.140625 2.4375 37.578125 0.71875 
Q 33.015625 -0.984375 27 -0.984375 
Q 21.578125 -0.984375 17.546875 0.28125 
Q 13.53125 1.5625 10.734375 3.78125 
Q 7.953125 6 6.3125 8.984375 
Q 4.6875 11.96875 4 15.375 
L 12.890625 16.40625 
Q 13.421875 14.453125 14.390625 12.625 
Q 15.375 10.796875 17.0625 9.34375 
Q 18.75 7.90625 21.21875 7.046875 
Q 23.6875 6.203125 27.203125 6.203125 
Q 30.609375 6.203125 33.390625 7.25 
Q 36.1875 8.296875 38.15625 10.34375 
Q 40.140625 12.40625 41.203125 15.375 
Q 42.28125 18.359375 42.28125 22.21875 
Q 42.28125 25.390625 41.25 28.046875 
Q 40.234375 30.71875 38.328125 32.640625 
Q 36.421875 34.578125 33.65625 35.640625 
Q 30.90625 36.71875 27.390625 36.71875 
Q 25.203125 36.71875 23.34375 36.328125 
Q 21.484375 35.9375 19.890625 35.25 
Q 18.3125 34.578125 17.015625 33.671875 
Q 15.71875 32.765625 14.59375 31.78125 
L 6 31.78125 
L 8.296875 68.796875 
L 47.40625 68.796875 
L 47.40625 61.328125 
L 16.3125 61.328125 
L 14.984375 39.5 
Q 17.328125 41.3125 20.84375 42.59375 
Q 24.359375 43.890625 29.203125 43.890625 
Q 34.328125 43.890625 38.421875 42.328125 
Q 42.53125 40.765625 45.40625 37.90625 
Q 48.296875 35.0625 49.859375 31.109375 
Q 51.421875 27.15625 51.421875 22.40625 
" id="LiberationSans-35"/>
      </defs>
      <g style="fill:#262626;" transform="translate(411.541724 366.686875)scale(0.1 -0.1)">
       <use xlink:href="#LiberationSans-30"/>
       <use x="55.615234" xlink:href="#LiberationSans-2e"/>
       <use x="83.398438" xlink:href="#LiberationSans-30"/>
       <use x="139.013672" xlink:href="#LiberationSans-35"/>
      </g>
     </g>
    </g>
    <g id="xtick_7">
     <g id="line2d_13">
      <path clip-path="url(#pd3875a9bfb)" d="M 487.068449 352.44 
L 487.068449 47.52 
" style="fill:none;stroke:#ffffff;stroke-linecap:round;"/>
     </g>
     <g id="line2d_14"/>
     <g id="text_7">
      <!-- 0.06 -->
      <defs>
       <path d="M 51.21875 22.515625 
Q 51.21875 17.328125 49.78125 13 
Q 48.34375 8.6875 45.53125 5.578125 
Q 42.71875 2.484375 38.5625 0.75 
Q 34.421875 -0.984375 29 -0.984375 
Q 23 -0.984375 18.5 1.3125 
Q 14.015625 3.609375 11.03125 7.921875 
Q 8.0625 12.25 6.5625 18.53125 
Q 5.078125 24.8125 5.078125 32.8125 
Q 5.078125 42 6.765625 48.921875 
Q 8.453125 55.859375 11.625 60.5 
Q 14.796875 65.140625 19.359375 67.484375 
Q 23.921875 69.828125 29.6875 69.828125 
Q 33.203125 69.828125 36.28125 69.09375 
Q 39.359375 68.359375 41.875 66.71875 
Q 44.390625 65.09375 46.28125 62.40625 
Q 48.1875 59.71875 49.3125 55.8125 
L 40.921875 54.296875 
Q 39.546875 58.734375 36.546875 60.71875 
Q 33.546875 62.703125 29.59375 62.703125 
Q 25.984375 62.703125 23.046875 60.984375 
Q 20.125 59.28125 18.0625 55.875 
Q 16.015625 52.484375 14.90625 47.359375 
Q 13.8125 42.234375 13.8125 35.40625 
Q 16.21875 39.84375 20.5625 42.15625 
Q 24.90625 44.484375 30.515625 44.484375 
Q 35.203125 44.484375 39.015625 42.96875 
Q 42.828125 41.453125 45.53125 38.59375 
Q 48.25 35.75 49.734375 31.671875 
Q 51.21875 27.59375 51.21875 22.515625 
M 42.28125 22.125 
Q 42.28125 25.6875 41.40625 28.5625 
Q 40.53125 31.453125 38.765625 33.46875 
Q 37.015625 35.5 34.421875 36.59375 
Q 31.84375 37.703125 28.421875 37.703125 
Q 26.03125 37.703125 23.578125 36.984375 
Q 21.140625 36.28125 19.15625 34.6875 
Q 17.1875 33.109375 15.9375 30.515625 
Q 14.703125 27.9375 14.703125 24.21875 
Q 14.703125 20.40625 15.671875 17.109375 
Q 16.65625 13.8125 18.484375 11.375 
Q 20.3125 8.9375 22.890625 7.515625 
Q 25.484375 6.109375 28.71875 6.109375 
Q 31.890625 6.109375 34.40625 7.203125 
Q 36.921875 8.296875 38.671875 10.375 
Q 40.4375 12.453125 41.359375 15.421875 
Q 42.28125 18.40625 42.28125 22.125 
" id="LiberationSans-36"/>
      </defs>
      <g style="fill:#262626;" transform="translate(477.33798 366.686875)scale(0.1 -0.1)">
       <use xlink:href="#LiberationSans-30"/>
       <use x="55.615234" xlink:href="#LiberationSans-2e"/>
       <use x="83.398438" xlink:href="#LiberationSans-30"/>
       <use x="139.013672" xlink:href="#LiberationSans-36"/>
      </g>
     </g>
    </g>
   </g>
   <g id="matplotlib.axis_2">
    <g id="ytick_1">
     <g id="line2d_15">
      <path clip-path="url(#pd3875a9bfb)" d="M 72 330.387246 
L 518.4 330.387246 
" style="fill:none;stroke:#ffffff;stroke-linecap:round;"/>
     </g>
     <g id="line2d_16"/>
     <g id="text_8">
      <!-- 0.00 -->
      <g style="fill:#262626;" transform="translate(45.539062 334.010684)scale(0.1 -0.1)">
       <use xlink:href="#LiberationSans-30"/>
       <use x="55.615234" xlink:href="#LiberationSans-2e"/>
       <use x="83.398438" xlink:href="#LiberationSans-30"/>
       <use x="139.013672" xlink:href="#LiberationSans-30"/>
      </g>
     </g>
    </g>
    <g id="ytick_2">
     <g id="line2d_17">
      <path clip-path="url(#pd3875a9bfb)" d="M 72 288.279159 
L 518.4 288.279159 
" style="fill:none;stroke:#ffffff;stroke-linecap:round;"/>
     </g>
     <g id="line2d_18"/>
     <g id="text_9">
      <!-- 0.25 -->
      <g style="fill:#262626;" transform="translate(45.539062 291.902597)scale(0.1 -0.1)">
       <use xlink:href="#LiberationSans-30"/>
       <use x="55.615234" xlink:href="#LiberationSans-2e"/>
       <use x="83.398438" xlink:href="#LiberationSans-32"/>
       <use x="139.013672" xlink:href="#LiberationSans-35"/>
      </g>
     </g>
    </g>
    <g id="ytick_3">
     <g id="line2d_19">
      <path clip-path="url(#pd3875a9bfb)" d="M 72 246.171072 
L 518.4 246.171072 
" style="fill:none;stroke:#ffffff;stroke-linecap:round;"/>
     </g>
     <g id="line2d_20"/>
     <g id="text_10">
      <!-- 0.50 -->
      <g style="fill:#262626;" transform="translate(45.539062 249.79451)scale(0.1 -0.1)">
       <use xlink:href="#LiberationSans-30"/>
       <use x="55.615234" xlink:href="#LiberationSans-2e"/>
       <use x="83.398438" xlink:href="#LiberationSans-35"/>
       <use x="139.013672" xlink:href="#LiberationSans-30"/>
      </g>
     </g>
    </g>
    <g id="ytick_4">
     <g id="line2d_21">
      <path clip-path="url(#pd3875a9bfb)" d="M 72 204.062985 
L 518.4 204.062985 
" style="fill:none;stroke:#ffffff;stroke-linecap:round;"/>
     </g>
     <g id="line2d_22"/>
     <g id="text_11">
      <!-- 0.75 -->
      <defs>
       <path d="M 50.59375 61.671875 
Q 45.40625 53.765625 41.0625 46.453125 
Q 36.71875 39.15625 33.59375 31.75 
Q 30.46875 24.359375 28.734375 16.578125 
Q 27 8.796875 27 0 
L 17.828125 0 
Q 17.828125 8.25 19.78125 16.1875 
Q 21.734375 24.125 25.046875 31.765625 
Q 28.375 39.40625 32.765625 46.78125 
Q 37.15625 54.15625 42.09375 61.328125 
L 5.125 61.328125 
L 5.125 68.796875 
L 50.59375 68.796875 
z
" id="LiberationSans-37"/>
      </defs>
      <g style="fill:#262626;" transform="translate(45.539062 207.686423)scale(0.1 -0.1)">
       <use xlink:href="#LiberationSans-30"/>
       <use x="55.615234" xlink:href="#LiberationSans-2e"/>
       <use x="83.398438" xlink:href="#LiberationSans-37"/>
       <use x="139.013672" xlink:href="#LiberationSans-35"/>
      </g>
     </g>
    </g>
    <g id="ytick_5">
     <g id="line2d_23">
      <path clip-path="url(#pd3875a9bfb)" d="M 72 161.954898 
L 518.4 161.954898 
" style="fill:none;stroke:#ffffff;stroke-linecap:round;"/>
     </g>
     <g id="line2d_24"/>
     <g id="text_12">
      <!-- 1.00 -->
      <g style="fill:#262626;" transform="translate(45.539062 165.578336)scale(0.1 -0.1)">
       <use xlink:href="#LiberationSans-31"/>
       <use x="55.615234" xlink:href="#LiberationSans-2e"/>
       <use x="83.398438" xlink:href="#LiberationSans-30"/>
       <use x="139.013672" xlink:href="#LiberationSans-30"/>
      </g>
     </g>
    </g>
    <g id="ytick_6">
     <g id="line2d_25">
      <path clip-path="url(#pd3875a9bfb)" d="M 72 119.846811 
L 518.4 119.846811 
" style="fill:none;stroke:#ffffff;stroke-linecap:round;"/>
     </g>
     <g id="line2d_26"/>
     <g id="text_13">
      <!-- 1.25 -->
      <g style="fill:#262626;" transform="translate(45.539062 123.470249)scale(0.1 -0.1)">
       <use xlink:href="#LiberationSans-31"/>
       <use x="55.615234" xlink:href="#LiberationSans-2e"/>
       <use x="83.398438" xlink:href="#LiberationSans-32"/>
       <use x="139.013672" xlink:href="#LiberationSans-35"/>
      </g>
     </g>
    </g>
    <g id="ytick_7">
     <g id="line2d_27">
      <path clip-path="url(#pd3875a9bfb)" d="M 72 77.738724 
L 518.4 77.738724 
" style="fill:none;stroke:#ffffff;stroke-linecap:round;"/>
     </g>
     <g id="line2d_28"/>
     <g id="text_14">
      <!-- 1.50 -->
      <g style="fill:#262626;" transform="translate(45.539062 81.362162)scale(0.1 -0.1)">
       <use xlink:href="#LiberationSans-31"/>
       <use x="55.615234" xlink:href="#LiberationSans-2e"/>
       <use x="83.398438" xlink:href="#LiberationSans-35"/>
       <use x="139.013672" xlink:href="#LiberationSans-30"/>
      </g>
     </g>
    </g>
   </g>
   <g id="line2d_29">
    <path clip-path="url(#pd3875a9bfb)" d="M 92.290909 101.420994 
L 93.186096 94.649478 
L 94.976471 80.636564 
L 95.573262 77.489327 
L 96.170053 75.512358 
L 96.617647 74.770115 
L 96.916043 74.577906 
L 97.214439 74.579226 
L 97.662032 74.831471 
L 98.706417 75.589804 
L 99.004813 75.605785 
L 99.303209 75.452558 
L 99.750802 74.848579 
L 100.198396 73.765303 
L 100.795187 71.633297 
L 101.98877 66.11267 
L 102.734759 63.090134 
L 103.182353 61.906471 
L 103.480749 61.47936 
L 103.779144 61.38 
L 104.07754 61.626975 
L 104.375936 62.225227 
L 104.823529 63.757849 
L 105.420321 66.836344 
L 106.315508 72.887031 
L 107.658289 81.949087 
L 108.404278 85.486045 
L 109.00107 87.251138 
L 109.448663 88.017365 
L 109.896257 88.435174 
L 111.239037 89.34677 
L 111.686631 90.151027 
L 112.134225 91.452184 
L 112.731016 94.076938 
L 113.477005 98.735781 
L 114.819786 109.249152 
L 115.714973 115.585933 
L 116.311765 118.59751 
L 116.759358 120.00973 
L 117.057754 120.522551 
L 117.35615 120.698649 
L 117.654545 120.558543 
L 117.952941 120.135129 
L 118.400535 119.066523 
L 119.295722 116.059869 
L 120.190909 113.22001 
L 120.787701 112.060301 
L 121.235294 111.716679 
L 121.53369 111.739612 
L 121.981283 112.104543 
L 122.578075 113.017046 
L 123.473262 114.46405 
L 123.920856 114.800927 
L 124.219251 114.759238 
L 124.517647 114.45501 
L 124.816043 113.857594 
L 125.263636 112.375388 
L 125.860428 109.315736 
L 126.606417 104.034973 
L 128.993583 85.776814 
L 129.590374 83.160068 
L 130.037968 81.975176 
L 130.485561 81.40274 
L 130.783957 81.306644 
L 131.231551 81.475344 
L 132.723529 82.481215 
L 133.021925 82.369884 
L 133.320321 82.065117 
L 133.767914 81.212864 
L 134.364706 79.35744 
L 135.259893 75.478379 
L 136.304278 70.923806 
L 136.90107 69.234181 
L 137.199465 68.806524 
L 137.497861 68.703777 
L 137.796257 68.945736 
L 138.094652 69.53862 
L 138.542246 71.065309 
L 139.139037 74.145852 
L 140.034225 80.233825 
L 141.377005 89.431887 
L 142.122995 93.064106 
L 142.719786 94.898322 
L 143.16738 95.705259 
L 143.614973 96.150158 
L 144.957754 97.044321 
L 145.405348 97.811628 
L 145.852941 99.064642 
L 146.449733 101.615076 
L 147.195722 106.180049 
L 148.389305 115.400925 
L 149.43369 122.884814 
L 150.030481 125.895993 
L 150.478075 127.311173 
L 150.776471 127.825158 
L 151.074866 128.000278 
L 151.373262 127.855848 
L 151.671658 127.423698 
L 152.119251 126.331878 
L 152.865241 123.787158 
L 153.909626 120.258405 
L 154.506417 118.989053 
L 154.954011 118.561644 
L 155.252406 118.530664 
L 155.550802 118.684103 
L 155.998396 119.191497 
L 157.490374 121.287692 
L 157.78877 121.358352 
L 158.087166 121.191526 
L 158.385561 120.749984 
L 158.833155 119.519623 
L 159.280749 117.584104 
L 159.87754 113.980458 
L 160.772727 106.993223 
L 162.264706 95.041216 
L 163.010695 90.817585 
L 163.607487 88.751997 
L 164.05508 87.961541 
L 164.353476 87.750221 
L 164.651872 87.74497 
L 165.099465 88.013482 
L 166.293048 88.99771 
L 166.591444 89.012877 
L 166.88984 88.851596 
L 167.337433 88.229606 
L 167.785027 87.132655 
L 168.381818 85.011264 
L 170.470588 76.563564 
L 170.918182 75.811141 
L 171.216578 75.705254 
L 171.514973 75.942284 
L 171.813369 76.529723 
L 172.260963 78.050067 
L 172.857754 81.131623 
L 173.752941 87.254665 
L 175.24492 97.444565 
L 175.990909 100.877692 
L 176.587701 102.547394 
L 177.035294 103.25465 
L 177.632086 103.718808 
L 178.527273 104.252229 
L 178.974866 104.852554 
L 179.42246 105.887159 
L 179.870053 107.457169 
L 180.466845 110.440494 
L 181.212834 115.428307 
L 183.450802 131.499388 
L 184.047594 133.886425 
L 184.495187 134.788888 
L 184.793583 134.963168 
L 185.091979 134.814702 
L 185.390374 134.374237 
L 185.837968 133.260032 
L 186.583957 130.647559 
L 187.628342 126.963584 
L 188.225134 125.585487 
L 188.672727 125.074686 
L 188.971123 124.989924 
L 189.269519 125.09265 
L 189.717112 125.532419 
L 191.209091 127.507024 
L 191.507487 127.573708 
L 191.805882 127.408608 
L 192.104278 126.973521 
L 192.551872 125.759165 
L 192.999465 123.843369 
L 193.596257 120.264203 
L 194.491444 113.292097 
L 196.13262 100.289008 
L 196.729412 96.998336 
L 197.326203 94.890043 
L 197.773797 94.076142 
L 198.072193 93.855484 
L 198.370588 93.847021 
L 198.818182 94.123592 
L 200.160963 95.254021 
L 200.459358 95.226885 
L 200.757754 95.01324 
L 201.205348 94.304667 
L 201.652941 93.127318 
L 202.39893 90.309825 
L 204.040107 83.648074 
L 204.487701 82.684476 
L 204.786096 82.412728 
L 205.084492 82.472475 
L 205.382888 82.879296 
L 205.830481 84.14047 
L 206.427273 86.938843 
L 207.173262 91.784849 
L 209.112834 105.126034 
L 209.709626 107.828593 
L 210.306417 109.563489 
L 210.754011 110.307491 
L 211.201604 110.710863 
L 212.395187 111.46658 
L 212.842781 112.160258 
L 213.290374 113.316548 
L 213.887166 115.716452 
L 214.483957 119.105334 
L 215.379144 125.578111 
L 216.871123 136.48506 
L 217.467914 139.492526 
L 217.915508 140.912616 
L 218.213904 141.428861 
L 218.512299 141.602431 
L 218.810695 141.450206 
L 219.109091 141.001839 
L 219.556684 139.866078 
L 220.302674 137.18756 
L 221.496257 132.911707 
L 222.093048 131.614803 
L 222.540642 131.176756 
L 222.839037 131.136265 
L 223.137433 131.27399 
L 223.585027 131.739276 
L 224.927807 133.409128 
L 225.226203 133.471856 
L 225.524599 133.308609 
L 225.822995 132.880232 
L 226.270588 131.68253 
L 226.718182 129.787437 
L 227.314973 126.234549 
L 228.21016 119.281034 
L 229.851337 106.212439 
L 230.597326 102.22558 
L 231.04492 100.727318 
L 231.492513 99.890414 
L 231.790909 99.660561 
L 232.089305 99.64893 
L 232.536898 99.93349 
L 233.879679 101.182175 
L 234.178075 101.197283 
L 234.476471 101.029492 
L 234.924064 100.393504 
L 235.371658 99.289018 
L 235.968449 97.189375 
L 237.908021 89.661826 
L 238.355615 88.913796 
L 238.654011 88.802357 
L 238.952406 89.029778 
L 239.250802 89.606087 
L 239.698396 91.112483 
L 240.295187 94.192916 
L 241.190374 100.379305 
L 242.682353 110.860982 
L 243.428342 114.478833 
L 244.025134 116.278648 
L 244.472727 117.059465 
L 244.920321 117.485568 
L 246.263102 118.397574 
L 246.710695 119.191315 
L 247.158289 120.472176 
L 247.75508 123.047693 
L 248.50107 127.595338 
L 251.186631 145.82017 
L 251.634225 147.242179 
L 251.93262 147.759497 
L 252.231016 147.932475 
L 252.529412 147.776763 
L 252.827807 147.320901 
L 253.275401 146.164407 
L 254.02139 143.421558 
L 255.214973 138.969309 
L 255.811765 137.563831 
L 256.259358 137.043829 
L 256.557754 136.951133 
L 256.85615 137.040182 
L 257.303743 137.441644 
L 258.646524 139.008562 
L 258.94492 139.067346 
L 259.243316 138.906069 
L 259.541711 138.484645 
L 259.989305 137.304223 
L 260.436898 135.430793 
L 261.03369 131.905951 
L 261.928877 124.974457 
L 263.570053 111.846786 
L 264.316043 107.806286 
L 264.763636 106.278252 
L 265.21123 105.41879 
L 265.509626 105.179883 
L 265.808021 105.165122 
L 266.255615 105.457592 
L 267.747594 106.873433 
L 268.045989 106.844756 
L 268.344385 106.624394 
L 268.791979 105.904158 
L 269.239572 104.724823 
L 269.985561 101.958279 
L 271.328342 96.607718 
L 271.775936 95.466497 
L 272.074332 95.040586 
L 272.372727 94.926728 
L 272.671123 95.149464 
L 272.969519 95.720083 
L 273.417112 97.218869 
L 274.013904 100.297147 
L 274.909091 106.511754 
L 276.40107 117.13362 
L 277.147059 120.842236 
L 277.74385 122.706649 
L 278.191444 123.524326 
L 278.639037 123.97338 
L 279.981818 124.855041 
L 280.429412 125.607793 
L 280.877005 126.836791 
L 281.473797 129.333639 
L 282.219786 133.783054 
L 283.711765 144.88368 
L 284.606952 150.497161 
L 285.203743 152.8866 
L 285.651337 153.794547 
L 285.949733 153.967043 
L 286.248128 153.808106 
L 286.546524 153.34515 
L 286.994118 152.16874 
L 287.740107 149.363284 
L 288.93369 144.737323 
L 289.530481 143.224165 
L 289.978075 142.622601 
L 290.276471 142.477829 
L 290.574866 142.518232 
L 291.02246 142.855777 
L 292.514439 144.370473 
L 292.812834 144.324009 
L 293.11123 144.041792 
L 293.409626 143.487924 
L 293.857219 142.0981 
L 294.454011 139.177714 
L 295.2 134.026822 
L 297.736364 114.534781 
L 298.333155 111.998649 
L 298.780749 110.897284 
L 299.228342 110.427217 
L 299.526738 110.409363 
L 299.974332 110.709649 
L 301.46631 112.263562 
L 301.764706 112.27929 
L 302.063102 112.106486 
L 302.510695 111.460467 
L 302.958289 110.354506 
L 303.704278 107.696157 
L 305.196257 102.02238 
L 305.64385 101.078187 
L 305.942246 100.803917 
L 306.240642 100.852546 
L 306.539037 101.24332 
L 306.986631 102.479605 
L 307.434225 104.455968 
L 308.180214 109.083026 
L 310.56738 125.594379 
L 311.164171 128.018229 
L 311.760963 129.479694 
L 312.208556 130.063172 
L 312.805348 130.439576 
L 313.551337 130.883937 
L 313.99893 131.467946 
L 314.446524 132.478219 
L 314.894118 134.01225 
L 315.490909 136.922317 
L 316.236898 141.764661 
L 318.325668 156.248875 
L 318.92246 158.637634 
L 319.370053 159.547125 
L 319.668449 159.71924 
L 319.966845 159.557332 
L 320.265241 159.087679 
L 320.712834 157.892166 
L 321.458824 155.02583 
L 322.801604 149.75389 
L 323.398396 148.328765 
L 323.845989 147.802974 
L 324.144385 147.703481 
L 324.442781 147.779176 
L 324.890374 148.141618 
L 326.083957 149.354358 
L 326.382353 149.405263 
L 326.680749 149.248242 
L 326.979144 148.841404 
L 327.426738 147.69734 
L 327.874332 145.870021 
L 328.471123 142.406458 
L 329.36631 135.529161 
L 331.156684 121.335226 
L 331.753476 118.160803 
L 332.350267 116.200938 
L 332.797861 115.512016 
L 333.096257 115.378455 
L 333.394652 115.458659 
L 333.842246 115.86907 
L 335.185027 117.394246 
L 335.483422 117.454436 
L 335.781818 117.329347 
L 336.080214 117.00073 
L 336.527807 116.118766 
L 337.124599 114.29504 
L 339.213369 106.934731 
L 339.511765 106.511982 
L 339.81016 106.393986 
L 340.108556 106.607581 
L 340.406952 107.166564 
L 340.854545 108.648845 
L 341.451337 111.719584 
L 342.346524 117.983574 
L 343.987701 129.769274 
L 344.73369 133.352053 
L 345.330481 135.102363 
L 345.778075 135.846559 
L 346.225668 136.243886 
L 347.419251 136.963478 
L 347.866845 137.634408 
L 348.314439 138.75913 
L 348.91123 141.096631 
L 349.657219 145.345076 
L 350.850802 153.99381 
L 351.895187 160.946609 
L 352.491979 163.642921 
L 352.939572 164.813393 
L 353.237968 165.158772 
L 353.536364 165.160032 
L 353.834759 164.835811 
L 354.282353 163.810736 
L 354.879144 161.683719 
L 356.669519 154.49916 
L 357.26631 153.169061 
L 357.713904 152.718959 
L 358.012299 152.662231 
L 358.459893 152.871729 
L 359.205882 153.636032 
L 359.802674 154.126636 
L 360.10107 154.173595 
L 360.399465 154.018842 
L 360.697861 153.619614 
L 361.145455 152.494585 
L 361.593048 150.691669 
L 362.18984 147.261282 
L 363.085027 140.416093 
L 364.875401 126.173356 
L 365.472193 122.960265 
L 366.068984 120.964968 
L 366.516578 120.257856 
L 366.814973 120.118346 
L 367.113369 120.198627 
L 367.560963 120.621818 
L 368.903743 122.277913 
L 369.202139 122.382599 
L 369.500535 122.305354 
L 369.79893 122.02657 
L 370.246524 121.219951 
L 370.843316 119.490439 
L 372.932086 112.302088 
L 373.230481 111.881478 
L 373.528877 111.761755 
L 373.827273 111.970892 
L 374.125668 112.523927 
L 374.573262 113.997307 
L 375.170053 117.062651 
L 376.065241 123.347757 
L 377.706417 135.278822 
L 378.452406 138.948439 
L 379.049198 140.758787 
L 379.496791 141.535723 
L 379.944385 141.951457 
L 381.287166 142.807332 
L 381.734759 143.571712 
L 382.182353 144.81356 
L 382.779144 147.315275 
L 383.525134 151.722155 
L 386.061497 168.307544 
L 386.509091 169.733305 
L 386.807487 170.254312 
L 387.105882 170.425932 
L 387.404278 170.258816 
L 387.702674 169.77693 
L 388.150267 168.545636 
L 388.896257 165.562754 
L 390.239037 159.90606 
L 390.835829 158.267581 
L 391.283422 157.582498 
L 391.731016 157.352851 
L 392.17861 157.498258 
L 392.775401 158.034623 
L 393.52139 158.648136 
L 393.819786 158.691136 
L 394.118182 158.538731 
L 394.416578 158.14731 
L 394.864171 157.041862 
L 395.311765 155.264217 
L 395.908556 151.868655 
L 396.803743 145.058868 
L 398.594118 130.774191 
L 399.190909 127.523986 
L 399.787701 125.494228 
L 400.235294 124.769279 
L 400.53369 124.6239 
L 400.832086 124.704235 
L 401.279679 125.140034 
L 402.771658 127.021535 
L 403.070053 127.084878 
L 403.368449 126.957683 
L 403.666845 126.625401 
L 404.114439 125.743462 
L 404.71123 123.949491 
L 406.650802 117.440566 
L 406.949198 117.022458 
L 407.247594 116.901236 
L 407.545989 117.105988 
L 407.844385 117.652986 
L 408.291979 119.117034 
L 408.88877 122.175891 
L 409.783957 128.479699 
L 411.425134 140.551619 
L 412.171123 144.306915 
L 412.767914 146.176934 
L 413.215508 146.986621 
L 413.663102 147.420952 
L 415.15508 148.427867 
L 415.602674 149.291317 
L 416.050267 150.65183 
L 416.647059 153.312517 
L 417.393048 157.859951 
L 419.631016 172.648108 
L 420.227807 174.710493 
L 420.526203 175.232226 
L 420.824599 175.403713 
L 421.122995 175.234347 
L 421.42139 174.746913 
L 421.868984 173.498932 
L 422.614973 170.460396 
L 424.106952 164.107553 
L 424.703743 162.564327 
L 425.151337 161.958284 
L 425.449733 161.804733 
L 425.748128 161.82334 
L 426.195722 162.090482 
L 427.240107 162.930391 
L 427.538503 162.969413 
L 427.836898 162.819429 
L 428.135294 162.436 
L 428.582888 161.350658 
L 429.030481 159.599131 
L 429.627273 156.240015 
L 430.52246 149.468888 
L 432.312834 135.149121 
L 432.909626 131.863362 
L 433.506417 129.800123 
L 433.954011 129.057693 
L 434.252406 128.906524 
L 434.550802 128.986886 
L 434.998396 129.435108 
L 436.490374 131.46792 
L 436.78877 131.577677 
L 437.087166 131.499779 
L 437.385561 131.218288 
L 437.833155 130.412185 
L 438.429947 128.711426 
L 440.369519 122.361195 
L 440.817112 121.845941 
L 441.115508 121.8819 
L 441.413904 122.251206 
L 441.861497 123.449944 
L 442.309091 125.397601 
L 442.905882 128.995553 
L 444.099465 138.098869 
L 445.14385 145.598574 
L 445.88984 149.438336 
L 446.486631 151.367619 
L 446.934225 152.210046 
L 447.381818 152.663145 
L 448.127807 153.012038 
L 448.575401 153.28798 
L 449.022995 153.836714 
L 449.470588 154.803876 
L 449.918182 156.28342 
L 450.514973 159.096199 
L 451.260963 163.764624 
L 453.200535 176.682277 
L 453.797326 179.060456 
L 454.24492 179.974328 
L 454.543316 180.14575 
L 454.841711 179.974357 
L 455.140107 179.48175 
L 455.587701 178.217877 
L 456.33369 175.125443 
L 457.825668 168.562657 
L 458.42246 166.914142 
L 458.870053 166.230654 
L 459.317647 165.99608 
L 459.765241 166.11848 
L 461.257219 167.019431 
L 461.555615 166.871933 
L 461.854011 166.496671 
L 462.301604 165.43194 
L 462.749198 163.707354 
L 463.345989 160.386274 
L 464.091979 154.88236 
L 466.180749 138.372604 
L 466.77754 135.346779 
L 467.225134 133.893535 
L 467.672727 133.133983 
L 467.971123 132.9771 
L 468.269519 133.057459 
L 468.717112 133.51791 
L 470.358289 135.80081 
L 470.656684 135.86761 
L 470.95508 135.739466 
L 471.253476 135.405594 
L 471.70107 134.528507 
L 472.297861 132.773491 
L 473.939037 127.375851 
L 474.386631 126.662466 
L 474.685027 126.538912 
L 474.983422 126.735107 
L 475.281818 127.269768 
L 475.729412 128.713851 
L 476.326203 131.756449 
L 477.072193 136.936988 
L 479.011765 151.337211 
L 479.757754 154.945703 
L 480.354545 156.685993 
L 480.802139 157.411152 
L 481.249733 157.783165 
L 482.443316 158.415506 
L 482.890909 159.044768 
L 483.338503 160.119251 
L 483.935294 162.370018 
L 484.681283 166.465058 
L 486.024064 175.769382 
L 486.919251 181.203021 
L 487.516043 183.576514 
L 487.963636 184.490967 
L 488.262032 184.662383 
L 488.560428 184.489182 
L 488.858824 183.991767 
L 489.306417 182.712795 
L 490.052406 179.568224 
L 491.544385 172.799059 
L 492.141176 171.046152 
L 492.58877 170.285603 
L 493.036364 169.980305 
L 493.483957 170.042559 
L 494.229947 170.561494 
L 494.826738 170.855011 
L 495.125134 170.804283 
L 495.423529 170.553558 
L 495.721925 170.061236 
L 496.169519 168.804933 
L 496.617112 166.885271 
L 497.213904 163.330677 
L 498.109091 156.387783 
L 498.109091 156.387783 
" style="fill:none;stroke:#4c72b0;stroke-linecap:round;stroke-width:1.75;"/>
   </g>
   <g id="line2d_30">
    <path clip-path="url(#pd3875a9bfb)" d="M 92.290909 338.58 
L 498.109091 338.58 
L 498.109091 338.58 
" style="fill:none;stroke:#55a868;stroke-linecap:round;stroke-width:1.75;"/>
   </g>
   <g id="patch_3">
    <path d="M 72 352.44 
L 72 47.52 
" style="fill:none;"/>
   </g>
   <g id="patch_4">
    <path d="M 518.4 352.44 
L 518.4 47.52 
" style="fill:none;"/>
   </g>
   <g id="patch_5">
    <path d="M 72 352.44 
L 518.4 352.44 
" style="fill:none;"/>
   </g>
   <g id="patch_6">
    <path d="M 72 47.52 
L 518.4 47.52 
" style="fill:none;"/>
   </g>
   <g id="legend_1">
    <g id="line2d_31">
     <path d="M 475.839062 60.266875 
L 495.839062 60.266875 
" style="fill:none;stroke:#4c72b0;stroke-linecap:round;stroke-width:1.75;"/>
    </g>
    <g id="line2d_32"/>
    <g id="text_15">
     <!-- a -->
     <defs>
      <path d="M 20.21875 -0.984375 
Q 12.25 -0.984375 8.25 3.21875 
Q 4.25 7.421875 4.25 14.75 
Q 4.25 19.96875 6.21875 23.3125 
Q 8.203125 26.65625 11.390625 28.5625 
Q 14.59375 30.46875 18.6875 31.203125 
Q 22.796875 31.9375 27.046875 32.03125 
L 38.921875 32.234375 
L 38.921875 35.109375 
Q 38.921875 38.375 38.234375 40.671875 
Q 37.546875 42.96875 36.125 44.375 
Q 34.71875 45.796875 32.59375 46.453125 
Q 30.46875 47.125 27.59375 47.125 
Q 25.046875 47.125 23 46.75 
Q 20.953125 46.390625 19.4375 45.4375 
Q 17.921875 44.484375 16.984375 42.84375 
Q 16.0625 41.21875 15.765625 38.71875 
L 6.59375 39.546875 
Q 7.078125 42.671875 8.4375 45.28125 
Q 9.8125 47.90625 12.328125 49.796875 
Q 14.84375 51.703125 18.625 52.75 
Q 22.40625 53.8125 27.78125 53.8125 
Q 37.75 53.8125 42.765625 49.234375 
Q 47.796875 44.671875 47.796875 36.03125 
L 47.796875 13.28125 
Q 47.796875 9.375 48.828125 7.390625 
Q 49.859375 5.421875 52.734375 5.421875 
Q 53.46875 5.421875 54.203125 5.515625 
Q 54.9375 5.609375 55.609375 5.765625 
L 55.609375 0.296875 
Q 53.953125 -0.09375 52.3125 -0.28125 
Q 50.6875 -0.484375 48.828125 -0.484375 
Q 46.34375 -0.484375 44.5625 0.171875 
Q 42.78125 0.828125 41.65625 2.171875 
Q 40.53125 3.515625 39.9375 5.484375 
Q 39.359375 7.46875 39.203125 10.109375 
L 38.921875 10.109375 
Q 37.5 7.5625 35.8125 5.515625 
Q 34.125 3.46875 31.875 2.03125 
Q 29.640625 0.59375 26.78125 -0.1875 
Q 23.921875 -0.984375 20.21875 -0.984375 
M 22.21875 5.609375 
Q 26.421875 5.609375 29.5625 7.140625 
Q 32.71875 8.6875 34.78125 11.078125 
Q 36.859375 13.484375 37.890625 16.3125 
Q 38.921875 19.140625 38.921875 21.734375 
L 38.921875 26.078125 
L 29.296875 25.875 
Q 26.078125 25.828125 23.171875 25.40625 
Q 20.265625 25 18.0625 23.78125 
Q 15.875 22.5625 14.578125 20.359375 
Q 13.28125 18.171875 13.28125 14.59375 
Q 13.28125 10.296875 15.59375 7.953125 
Q 17.921875 5.609375 22.21875 5.609375 
" id="LiberationSans-61"/>
     </defs>
     <g style="fill:#262626;" transform="translate(503.839062 63.766875)scale(0.1 -0.1)">
      <use xlink:href="#LiberationSans-61"/>
     </g>
    </g>
    <g id="line2d_33">
     <path d="M 475.839062 74.58875 
L 495.839062 74.58875 
" style="fill:none;stroke:#55a868;stroke-linecap:round;stroke-width:1.75;"/>
    </g>
    <g id="line2d_34"/>
    <g id="text_16">
     <!-- b -->
     <defs>
      <path d="M 51.421875 26.65625 
Q 51.421875 -0.984375 31.984375 -0.984375 
Q 25.984375 -0.984375 22 1.1875 
Q 18.015625 3.375 15.53125 8.203125 
L 15.4375 8.203125 
Q 15.4375 6.9375 15.359375 5.5625 
Q 15.28125 4.203125 15.203125 3.03125 
Q 15.140625 1.859375 15.0625 1.03125 
Q 14.984375 0.203125 14.9375 0 
L 6.453125 0 
Q 6.5 0.4375 6.546875 1.484375 
Q 6.59375 2.546875 6.640625 4 
Q 6.6875 5.46875 6.703125 7.21875 
Q 6.734375 8.984375 6.734375 10.890625 
L 6.734375 72.46875 
L 15.53125 72.46875 
L 15.53125 51.8125 
Q 15.53125 50.34375 15.5 49 
Q 15.484375 47.65625 15.4375 46.625 
Q 15.375 45.40625 15.328125 44.34375 
L 15.53125 44.34375 
Q 17.96875 49.421875 22 51.609375 
Q 26.03125 53.8125 31.984375 53.8125 
Q 42 53.8125 46.703125 47.0625 
Q 51.421875 40.328125 51.421875 26.65625 
M 42.1875 26.375 
Q 42.1875 31.84375 41.5 35.75 
Q 40.828125 39.65625 39.3125 42.15625 
Q 37.796875 44.671875 35.453125 45.84375 
Q 33.109375 47.015625 29.734375 47.015625 
Q 26.265625 47.015625 23.609375 45.890625 
Q 20.953125 44.78125 19.171875 42.28125 
Q 17.390625 39.796875 16.453125 35.734375 
Q 15.53125 31.6875 15.53125 25.828125 
Q 15.53125 20.171875 16.453125 16.3125 
Q 17.390625 12.453125 19.171875 10.03125 
Q 20.953125 7.625 23.578125 6.5625 
Q 26.21875 5.515625 29.640625 5.515625 
Q 32.859375 5.515625 35.203125 6.640625 
Q 37.546875 7.765625 39.109375 10.25 
Q 40.671875 12.75 41.421875 16.71875 
Q 42.1875 20.703125 42.1875 26.375 
" id="LiberationSans-62"/>
     </defs>
     <g style="fill:#262626;" transform="translate(503.839062 78.08875)scale(0.1 -0.1)">
      <use xlink:href="#LiberationSans-62"/>
     </g>
    </g>
   </g>
  </g>
 </g>
 <defs>
  <clipPath id="pd3875a9bfb">
   <rect height="304.92" width="446.4" x="72" y="47.52"/>
  </clipPath>
 </defs>
</svg>
