<?xml version="1.0" encoding="utf-8" standalone="no"?>
<!DOCTYPE svg PUBLIC "-//W3C//DTD SVG 1.1//EN"
  "http://www.w3.org/Graphics/SVG/1.1/DTD/svg11.dtd">
<!-- Created with matplotlib (http://matplotlib.org/) -->
<svg height="396pt" version="1.1" viewBox="0 0 576 396" width="576pt" xmlns="http://www.w3.org/2000/svg" xmlns:xlink="http://www.w3.org/1999/xlink">
 <defs>
  <style type="text/css">
*{stroke-linecap:butt;stroke-linejoin:round;}
  </style>
 </defs>
 <g id="figure_1">
  <g id="patch_1">
   <path d="M 0 396 
L 576 396 
L 576 0 
L 0 0 
z
" style="fill:#ffffff;"/>
  </g>
  <g id="axes_1">
   <g id="patch_2">
    <path d="M 72 352.44 
L 518.4 352.44 
L 518.4 47.52 
L 72 47.52 
z
" style="fill:#eaeaf2;"/>
   </g>
   <g id="matplotlib.axis_1">
    <g id="xtick_1">
     <g id="line2d_1">
      <path clip-path="url(#pbb23e993a2)" d="M 92.290909 352.44 
L 92.290909 47.52 
" style="fill:none;stroke:#ffffff;stroke-linecap:round;"/>
     </g>
     <g id="line2d_2"/>
     <g id="text_1">
      <!-- 0 -->
      <defs>
       <path d="M 51.703125 34.421875 
Q 51.703125 24.515625 49.828125 17.75 
Q 47.953125 10.984375 44.703125 6.8125 
Q 41.453125 2.640625 37.0625 0.828125 
Q 32.671875 -0.984375 27.6875 -0.984375 
Q 22.65625 -0.984375 18.3125 0.828125 
Q 13.96875 2.640625 10.765625 6.78125 
Q 7.5625 10.9375 5.734375 17.703125 
Q 3.90625 24.46875 3.90625 34.421875 
Q 3.90625 44.828125 5.734375 51.640625 
Q 7.5625 58.453125 10.78125 62.5 
Q 14.015625 66.546875 18.40625 68.1875 
Q 22.796875 69.828125 27.984375 69.828125 
Q 32.90625 69.828125 37.21875 68.1875 
Q 41.546875 66.546875 44.765625 62.5 
Q 48 58.453125 49.84375 51.640625 
Q 51.703125 44.828125 51.703125 34.421875 
M 42.78125 34.421875 
Q 42.78125 42.625 41.796875 48.0625 
Q 40.828125 53.515625 38.921875 56.765625 
Q 37.015625 60.015625 34.25 61.359375 
Q 31.5 62.703125 27.984375 62.703125 
Q 24.265625 62.703125 21.4375 61.328125 
Q 18.609375 59.96875 16.671875 56.71875 
Q 14.75 53.46875 13.765625 48.015625 
Q 12.796875 42.578125 12.796875 34.421875 
Q 12.796875 26.515625 13.796875 21.09375 
Q 14.796875 15.671875 16.71875 12.375 
Q 18.65625 9.078125 21.4375 7.640625 
Q 24.21875 6.203125 27.78125 6.203125 
Q 31.25 6.203125 34.03125 7.640625 
Q 36.8125 9.078125 38.734375 12.375 
Q 40.671875 15.671875 41.71875 21.09375 
Q 42.78125 26.515625 42.78125 34.421875 
" id="LiberationSans-30"/>
      </defs>
      <g style="fill:#262626;" transform="translate(89.51044 366.686875)scale(0.1 -0.1)">
       <use xlink:href="#LiberationSans-30"/>
      </g>
     </g>
    </g>
    <g id="xtick_2">
     <g id="line2d_3">
      <path clip-path="url(#pbb23e993a2)" d="M 166.944732 352.44 
L 166.944732 47.52 
" style="fill:none;stroke:#ffffff;stroke-linecap:round;"/>
     </g>
     <g id="line2d_4"/>
     <g id="text_2">
      <!-- 500 -->
      <defs>
       <path d="M 51.421875 22.40625 
Q 51.421875 17.234375 49.859375 12.9375 
Q 48.296875 8.640625 45.21875 5.53125 
Q 42.140625 2.4375 37.578125 0.71875 
Q 33.015625 -0.984375 27 -0.984375 
Q 21.578125 -0.984375 17.546875 0.28125 
Q 13.53125 1.5625 10.734375 3.78125 
Q 7.953125 6 6.3125 8.984375 
Q 4.6875 11.96875 4 15.375 
L 12.890625 16.40625 
Q 13.421875 14.453125 14.390625 12.625 
Q 15.375 10.796875 17.0625 9.34375 
Q 18.75 7.90625 21.21875 7.046875 
Q 23.6875 6.203125 27.203125 6.203125 
Q 30.609375 6.203125 33.390625 7.25 
Q 36.1875 8.296875 38.15625 10.34375 
Q 40.140625 12.40625 41.203125 15.375 
Q 42.28125 18.359375 42.28125 22.21875 
Q 42.28125 25.390625 41.25 28.046875 
Q 40.234375 30.71875 38.328125 32.640625 
Q 36.421875 34.578125 33.65625 35.640625 
Q 30.90625 36.71875 27.390625 36.71875 
Q 25.203125 36.71875 23.34375 36.328125 
Q 21.484375 35.9375 19.890625 35.25 
Q 18.3125 34.578125 17.015625 33.671875 
Q 15.71875 32.765625 14.59375 31.78125 
L 6 31.78125 
L 8.296875 68.796875 
L 47.40625 68.796875 
L 47.40625 61.328125 
L 16.3125 61.328125 
L 14.984375 39.5 
Q 17.328125 41.3125 20.84375 42.59375 
Q 24.359375 43.890625 29.203125 43.890625 
Q 34.328125 43.890625 38.421875 42.328125 
Q 42.53125 40.765625 45.40625 37.90625 
Q 48.296875 35.0625 49.859375 31.109375 
Q 51.421875 27.15625 51.421875 22.40625 
" id="LiberationSans-35"/>
      </defs>
      <g style="fill:#262626;" transform="translate(158.603326 366.686875)scale(0.1 -0.1)">
       <use xlink:href="#LiberationSans-35"/>
       <use x="55.615234" xlink:href="#LiberationSans-30"/>
       <use x="111.230469" xlink:href="#LiberationSans-30"/>
      </g>
     </g>
    </g>
    <g id="xtick_3">
     <g id="line2d_5">
      <path clip-path="url(#pbb23e993a2)" d="M 241.598555 352.44 
L 241.598555 47.52 
" style="fill:none;stroke:#ffffff;stroke-linecap:round;"/>
     </g>
     <g id="line2d_6"/>
     <g id="text_3">
      <!-- 1000 -->
      <defs>
       <path d="M 7.625 0 
L 7.625 7.46875 
L 25.140625 7.46875 
L 25.140625 60.40625 
L 9.625 49.3125 
L 9.625 57.625 
L 25.875 68.796875 
L 33.984375 68.796875 
L 33.984375 7.46875 
L 50.734375 7.46875 
L 50.734375 0 
z
" id="LiberationSans-31"/>
      </defs>
      <g style="fill:#262626;" transform="translate(230.47668 366.686875)scale(0.1 -0.1)">
       <use xlink:href="#LiberationSans-31"/>
       <use x="55.615234" xlink:href="#LiberationSans-30"/>
       <use x="111.230469" xlink:href="#LiberationSans-30"/>
       <use x="166.845703" xlink:href="#LiberationSans-30"/>
      </g>
     </g>
    </g>
    <g id="xtick_4">
     <g id="line2d_7">
      <path clip-path="url(#pbb23e993a2)" d="M 316.252378 352.44 
L 316.252378 47.52 
" style="fill:none;stroke:#ffffff;stroke-linecap:round;"/>
     </g>
     <g id="line2d_8"/>
     <g id="text_4">
      <!-- 1500 -->
      <g style="fill:#262626;" transform="translate(305.130503 366.686875)scale(0.1 -0.1)">
       <use xlink:href="#LiberationSans-31"/>
       <use x="55.615234" xlink:href="#LiberationSans-35"/>
       <use x="111.230469" xlink:href="#LiberationSans-30"/>
       <use x="166.845703" xlink:href="#LiberationSans-30"/>
      </g>
     </g>
    </g>
    <g id="xtick_5">
     <g id="line2d_9">
      <path clip-path="url(#pbb23e993a2)" d="M 390.906201 352.44 
L 390.906201 47.52 
" style="fill:none;stroke:#ffffff;stroke-linecap:round;"/>
     </g>
     <g id="line2d_10"/>
     <g id="text_5">
      <!-- 2000 -->
      <defs>
       <path d="M 5.03125 0 
L 5.03125 6.203125 
Q 7.515625 11.921875 11.109375 16.28125 
Q 14.703125 20.65625 18.65625 24.1875 
Q 22.609375 27.734375 26.484375 30.765625 
Q 30.375 33.796875 33.5 36.8125 
Q 36.625 39.84375 38.546875 43.15625 
Q 40.484375 46.484375 40.484375 50.6875 
Q 40.484375 53.609375 39.59375 55.828125 
Q 38.71875 58.0625 37.0625 59.5625 
Q 35.40625 61.078125 33.078125 61.828125 
Q 30.765625 62.59375 27.9375 62.59375 
Q 25.296875 62.59375 22.96875 61.859375 
Q 20.65625 61.140625 18.84375 59.671875 
Q 17.046875 58.203125 15.890625 56.03125 
Q 14.75 53.859375 14.40625 50.984375 
L 5.421875 51.8125 
Q 5.859375 55.515625 7.46875 58.78125 
Q 9.078125 62.0625 11.90625 64.53125 
Q 14.75 67 18.71875 68.40625 
Q 22.703125 69.828125 27.9375 69.828125 
Q 33.0625 69.828125 37.0625 68.609375 
Q 41.0625 67.390625 43.8125 64.984375 
Q 46.578125 62.59375 48.046875 59.078125 
Q 49.515625 55.5625 49.515625 50.984375 
Q 49.515625 47.515625 48.265625 44.390625 
Q 47.015625 41.265625 44.9375 38.421875 
Q 42.875 35.59375 40.140625 32.953125 
Q 37.40625 30.328125 34.421875 27.8125 
Q 31.453125 25.296875 28.421875 22.828125 
Q 25.390625 20.359375 22.71875 17.859375 
Q 20.0625 15.375 17.96875 12.8125 
Q 15.875 10.25 14.703125 7.46875 
L 50.59375 7.46875 
L 50.59375 0 
z
" id="LiberationSans-32"/>
      </defs>
      <g style="fill:#262626;" transform="translate(379.784326 366.686875)scale(0.1 -0.1)">
       <use xlink:href="#LiberationSans-32"/>
       <use x="55.615234" xlink:href="#LiberationSans-30"/>
       <use x="111.230469" xlink:href="#LiberationSans-30"/>
       <use x="166.845703" xlink:href="#LiberationSans-30"/>
      </g>
     </g>
    </g>
    <g id="xtick_6">
     <g id="line2d_11">
      <path clip-path="url(#pbb23e993a2)" d="M 465.560024 352.44 
L 465.560024 47.52 
" style="fill:none;stroke:#ffffff;stroke-linecap:round;"/>
     </g>
     <g id="line2d_12"/>
     <g id="text_6">
      <!-- 2500 -->
      <g style="fill:#262626;" transform="translate(454.438149 366.686875)scale(0.1 -0.1)">
       <use xlink:href="#LiberationSans-32"/>
       <use x="55.615234" xlink:href="#LiberationSans-35"/>
       <use x="111.230469" xlink:href="#LiberationSans-30"/>
       <use x="166.845703" xlink:href="#LiberationSans-30"/>
      </g>
     </g>
    </g>
   </g>
   <g id="matplotlib.axis_2">
    <g id="ytick_1">
     <g id="line2d_13">
      <path clip-path="url(#pbb23e993a2)" d="M 72 350.3991 
L 518.4 350.3991 
" style="fill:none;stroke:#ffffff;stroke-linecap:round;"/>
     </g>
     <g id="line2d_14"/>
     <g id="text_7">
      <!-- −10000 -->
      <defs>
       <path d="M 4.9375 29.6875 
L 4.9375 36.8125 
L 53.515625 36.8125 
L 53.515625 29.6875 
z
" id="LiberationSans-2212"/>
      </defs>
      <g style="fill:#262626;" transform="translate(31.354687 354.022538)scale(0.1 -0.1)">
       <use xlink:href="#LiberationSans-2212"/>
       <use x="58.398438" xlink:href="#LiberationSans-31"/>
       <use x="114.013672" xlink:href="#LiberationSans-30"/>
       <use x="169.628906" xlink:href="#LiberationSans-30"/>
       <use x="225.244141" xlink:href="#LiberationSans-30"/>
       <use x="280.859375" xlink:href="#LiberationSans-30"/>
      </g>
     </g>
    </g>
    <g id="ytick_2">
     <g id="line2d_15">
      <path clip-path="url(#pbb23e993a2)" d="M 72 292.183814 
L 518.4 292.183814 
" style="fill:none;stroke:#ffffff;stroke-linecap:round;"/>
     </g>
     <g id="line2d_16"/>
     <g id="text_8">
      <!-- −5000 -->
      <g style="fill:#262626;" transform="translate(36.915625 295.807252)scale(0.1 -0.1)">
       <use xlink:href="#LiberationSans-2212"/>
       <use x="58.398438" xlink:href="#LiberationSans-35"/>
       <use x="114.013672" xlink:href="#LiberationSans-30"/>
       <use x="169.628906" xlink:href="#LiberationSans-30"/>
       <use x="225.244141" xlink:href="#LiberationSans-30"/>
      </g>
     </g>
    </g>
    <g id="ytick_3">
     <g id="line2d_17">
      <path clip-path="url(#pbb23e993a2)" d="M 72 233.968529 
L 518.4 233.968529 
" style="fill:none;stroke:#ffffff;stroke-linecap:round;"/>
     </g>
     <g id="line2d_18"/>
     <g id="text_9">
      <!-- 0 -->
      <g style="fill:#262626;" transform="translate(59.439062 237.591966)scale(0.1 -0.1)">
       <use xlink:href="#LiberationSans-30"/>
      </g>
     </g>
    </g>
    <g id="ytick_4">
     <g id="line2d_19">
      <path clip-path="url(#pbb23e993a2)" d="M 72 175.753243 
L 518.4 175.753243 
" style="fill:none;stroke:#ffffff;stroke-linecap:round;"/>
     </g>
     <g id="line2d_20"/>
     <g id="text_10">
      <!-- 5000 -->
      <g style="fill:#262626;" transform="translate(42.75625 179.376681)scale(0.1 -0.1)">
       <use xlink:href="#LiberationSans-35"/>
       <use x="55.615234" xlink:href="#LiberationSans-30"/>
       <use x="111.230469" xlink:href="#LiberationSans-30"/>
       <use x="166.845703" xlink:href="#LiberationSans-30"/>
      </g>
     </g>
    </g>
    <g id="ytick_5">
     <g id="line2d_21">
      <path clip-path="url(#pbb23e993a2)" d="M 72 117.537957 
L 518.4 117.537957 
" style="fill:none;stroke:#ffffff;stroke-linecap:round;"/>
     </g>
     <g id="line2d_22"/>
     <g id="text_11">
      <!-- 10000 -->
      <g style="fill:#262626;" transform="translate(37.195312 121.161395)scale(0.1 -0.1)">
       <use xlink:href="#LiberationSans-31"/>
       <use x="55.615234" xlink:href="#LiberationSans-30"/>
       <use x="111.230469" xlink:href="#LiberationSans-30"/>
       <use x="166.845703" xlink:href="#LiberationSans-30"/>
       <use x="222.460938" xlink:href="#LiberationSans-30"/>
      </g>
     </g>
    </g>
    <g id="ytick_6">
     <g id="line2d_23">
      <path clip-path="url(#pbb23e993a2)" d="M 72 59.322672 
L 518.4 59.322672 
" style="fill:none;stroke:#ffffff;stroke-linecap:round;"/>
     </g>
     <g id="line2d_24"/>
     <g id="text_12">
      <!-- 15000 -->
      <g style="fill:#262626;" transform="translate(37.195312 62.946109)scale(0.1 -0.1)">
       <use xlink:href="#LiberationSans-31"/>
       <use x="55.615234" xlink:href="#LiberationSans-35"/>
       <use x="111.230469" xlink:href="#LiberationSans-30"/>
       <use x="166.845703" xlink:href="#LiberationSans-30"/>
       <use x="222.460938" xlink:href="#LiberationSans-30"/>
      </g>
     </g>
    </g>
   </g>
   <g id="line2d_25">
    <path clip-path="url(#pbb23e993a2)" d="M 92.290909 233.968528 
L 93.037447 233.970012 
L 93.186755 235.665435 
L 93.336063 242.564831 
L 93.933293 284.92332 
L 94.082601 266.359281 
L 94.679831 118.354252 
L 94.829139 122.516994 
L 95.127754 194.099907 
L 95.575677 308.665144 
L 95.724985 318.741628 
L 95.874293 314.11491 
L 96.322216 274.567985 
L 96.471523 272.522999 
L 96.620831 272.131326 
L 96.770138 259.201129 
L 97.068754 173.176751 
L 97.367369 88.17766 
L 97.516677 84.553177 
L 97.665984 112.277624 
L 98.263215 311.791538 
L 98.412523 326.5469 
L 98.56183 320.15102 
L 99.009753 235.904827 
L 99.308368 201.71109 
L 99.457676 203.469075 
L 99.756291 233.34558 
L 100.054907 265.287305 
L 100.204214 272.54221 
L 100.353522 273.019808 
L 100.801445 258.800259 
L 100.950753 260.578852 
L 101.249368 285.337813 
L 101.398675 297.698665 
L 101.547983 291.276471 
L 101.846598 194.447452 
L 102.145214 79.374345 
L 102.294521 63.52698 
L 102.443829 85.322783 
L 103.190367 337.022275 
L 103.339675 334.665837 
L 103.63829 277.140985 
L 103.936905 211.483806 
L 104.086213 195.594759 
L 104.235521 194.845063 
L 104.534136 227.028754 
L 104.982059 275.780377 
L 105.131367 277.43404 
L 105.429982 264.797947 
L 105.57929 258.369233 
L 105.728597 257.435227 
L 105.877905 264.620157 
L 106.17652 295.718297 
L 106.325828 298.086379 
L 106.475135 271.844442 
L 107.072366 61.38 
L 107.221674 71.242834 
L 107.520289 180.216027 
L 107.968212 333.093093 
L 108.11752 338.58 
L 108.266827 321.251522 
L 108.864058 197.226417 
L 109.013365 191.530168 
L 109.162673 200.111217 
L 109.759904 272.743169 
L 109.909211 276.998707 
L 110.058519 273.779168 
L 110.506442 254.642989 
L 110.65575 258.202854 
L 111.103672 291.602942 
L 111.25298 274.229289 
L 111.850211 79.222985 
L 111.999518 80.734254 
L 112.298134 171.470577 
L 112.746057 320.384347 
L 112.895364 330.526497 
L 113.044672 318.77318 
L 113.79121 195.427099 
L 113.940518 200.704198 
L 114.687056 273.291557 
L 114.836364 271.670029 
L 115.284287 253.546213 
L 115.433594 255.26857 
L 115.881517 287.148192 
L 116.030825 276.30839 
L 116.32944 185.685702 
L 116.628055 97.462998 
L 116.777363 92.661402 
L 116.926671 118.648589 
L 117.523901 307.319672 
L 117.673209 320.435576 
L 117.822517 313.205354 
L 118.569055 199.143097 
L 118.718362 201.796899 
L 119.016978 231.805773 
L 119.315593 262.169993 
L 119.464901 268.461551 
L 119.614208 268.027847 
L 120.062131 251.091624 
L 120.211439 251.185932 
L 120.360747 258.230913 
L 120.659362 284.983864 
L 120.808669 285.659162 
L 120.957977 262.003148 
L 121.555208 90.411963 
L 121.704515 100.826678 
L 122.003131 193.247868 
L 122.301746 292.377439 
L 122.451054 316.862438 
L 122.600361 319.909426 
L 122.749669 304.344988 
L 123.346899 202.716235 
L 123.496207 199.040405 
L 123.645515 206.941966 
L 124.242745 266.658042 
L 124.392053 269.666142 
L 124.541361 266.626489 
L 124.989284 251.532313 
L 125.138591 255.414807 
L 125.586514 286.579429 
L 125.735822 271.817313 
L 126.48236 94.124934 
L 126.780975 174.30962 
L 127.228898 310.897118 
L 127.378206 321.161521 
L 127.527514 311.4405 
L 128.274052 199.222852 
L 128.423359 203.476876 
L 129.169898 269.940103 
L 129.319205 269.031828 
L 129.767128 254.409196 
L 129.916436 256.909194 
L 130.215051 282.652226 
L 130.364359 294.827836 
L 130.513666 288.020374 
L 130.812282 193.05471 
L 131.110897 82.963899 
L 131.260205 68.802449 
L 131.409512 90.900971 
L 132.156051 332.298687 
L 132.305358 329.08043 
L 132.603974 272.562003 
L 132.902589 209.866586 
L 133.051896 195.168972 
L 133.201204 195.033913 
L 133.499819 226.599102 
L 133.798435 263.699774 
L 133.947742 272.918979 
L 134.09705 274.210078 
L 134.395665 261.814996 
L 134.544973 255.600747 
L 134.694281 254.544954 
L 134.843588 261.272196 
L 135.142203 291.083778 
L 135.291511 293.273954 
L 135.440819 268.041353 
L 136.038049 67.661429 
L 136.187357 77.43694 
L 136.485972 182.229927 
L 136.933895 328.947466 
L 137.083203 334.193944 
L 137.232511 317.485808 
L 137.829741 198.588888 
L 137.979049 193.260093 
L 138.128356 201.596056 
L 138.725587 271.464645 
L 138.874895 275.700389 
L 139.024202 272.886262 
L 139.472125 256.153326 
L 139.621433 260.642191 
L 140.069356 296.358665 
L 140.218663 278.24137 
L 140.815894 69.193656 
L 140.965202 70.030791 
L 141.263817 165.484765 
L 141.71174 324.061341 
L 141.861048 335.162181 
L 142.010355 323.011137 
L 142.756893 192.163666 
L 142.906201 197.564648 
L 143.652739 274.367492 
L 143.802047 272.703117 
L 144.24997 253.20903 
L 144.399278 254.758954 
L 144.8472 289.542936 
L 144.996508 280.10065 
L 145.295123 186.147117 
L 145.593739 88.825014 
L 145.743046 81.099846 
L 145.892354 106.715736 
L 146.638892 326.421621 
L 146.7882 320.216105 
L 147.086815 264.655436 
L 147.38543 208.323531 
L 147.534738 196.692932 
L 147.684046 198.561643 
L 147.982661 229.900596 
L 148.281276 263.181308 
L 148.430584 270.539371 
L 148.579892 270.601894 
L 149.177122 251.475495 
L 149.32643 258.195169 
L 149.625045 284.188294 
L 149.774353 283.436036 
L 149.92366 258.33279 
L 150.520891 94.115619 
L 150.670199 106.959076 
L 151.118122 252.164997 
L 151.416737 314.794864 
L 151.566045 315.897928 
L 151.86466 272.132724 
L 152.312583 202.200564 
L 152.46189 199.734099 
L 152.611198 208.24529 
L 153.208429 265.232815 
L 153.357736 267.494712 
L 153.507044 264.131149 
L 153.954967 249.471725 
L 154.104275 253.443288 
L 154.552197 285.670455 
L 154.701505 273.040766 
L 155.00012 182.470705 
L 155.298736 99.658879 
L 155.448043 97.297667 
L 155.597351 124.45079 
L 156.194582 306.580105 
L 156.343889 317.898787 
L 156.493197 309.64677 
L 157.239735 199.804772 
L 157.389043 203.127584 
L 158.135581 267.329264 
L 158.284889 266.480485 
L 158.732812 249.567547 
L 158.882119 249.962364 
L 159.031427 257.259417 
L 159.330042 283.830852 
L 159.47935 284.448167 
L 159.628657 261.262649 
L 160.225888 93.437994 
L 160.375196 103.362535 
L 160.673811 193.328089 
L 160.972426 290.418727 
L 161.121734 314.639429 
L 161.271042 317.919395 
L 161.420349 302.979257 
L 162.01758 203.542892 
L 162.166887 199.776945 
L 162.316195 207.39884 
L 162.913426 266.077519 
L 163.062733 269.26923 
L 163.212041 266.612517 
L 163.659964 252.879764 
L 163.809272 257.372471 
L 164.257194 294.461662 
L 164.406502 281.910796 
L 164.705117 180.02706 
L 165.003733 80.23826 
L 165.15304 74.290986 
L 165.302348 103.007422 
L 165.899579 315.923077 
L 166.048886 331.063242 
L 166.198194 323.20185 
L 166.944732 194.625125 
L 167.09404 197.51598 
L 167.392655 231.301768 
L 167.69127 265.728693 
L 167.840578 272.983133 
L 167.989886 272.67692 
L 168.437809 254.33829 
L 168.587116 255.049099 
L 168.885731 278.764842 
L 169.035039 291.72729 
L 169.184347 287.19034 
L 169.482962 197.423534 
L 169.781577 87.211287 
L 169.930885 70.992508 
L 170.080193 90.56798 
L 170.826731 330.292705 
L 170.976039 328.766416 
L 171.274654 274.789902 
L 171.722577 196.373447 
L 171.871884 195.21147 
L 172.1705 225.338066 
L 172.618423 272.18896 
L 172.76773 274.045445 
L 173.066346 262.231468 
L 173.215653 255.876687 
L 173.364961 254.473466 
L 173.514269 260.658142 
L 173.962191 294.124829 
L 174.111499 272.012684 
L 174.70873 71.92861 
L 174.858037 78.006286 
L 175.156653 176.973668 
L 175.604576 324.662705 
L 175.753883 331.821555 
L 175.903191 317.031263 
L 176.500421 199.576452 
L 176.649729 193.04784 
L 176.799037 200.128682 
L 177.545575 272.876715 
L 177.694883 270.191826 
L 178.142806 250.632887 
L 178.292113 252.623268 
L 178.740036 289.16803 
L 178.889344 282.008947 
L 179.187959 192.804035 
L 179.486574 93.92118 
L 179.635882 83.252647 
L 179.78519 105.659711 
L 180.531728 324.25054 
L 180.681036 319.868326 
L 180.979651 266.818949 
L 181.278266 210.242889 
L 181.427574 197.663032 
L 181.576881 198.41168 
L 181.875497 228.208185 
L 182.174112 261.625447 
L 182.32342 269.4568 
L 182.472727 270.044891 
L 183.069958 250.700999 
L 183.219266 256.400625 
L 183.517881 280.719711 
L 183.667188 280.751846 
L 183.816496 257.970924 
L 184.413727 100.40287 
L 184.563034 111.492882 
L 184.86165 198.496675 
L 185.160265 289.167681 
L 185.309573 310.848683 
L 185.45888 312.734975 
L 185.757495 271.806718 
L 186.205418 203.976712 
L 186.354726 201.078173 
L 186.504034 208.841997 
L 187.101264 264.002726 
L 187.250572 266.50284 
L 187.39988 263.502424 
L 187.847803 249.699114 
L 187.99711 253.493586 
L 188.445033 283.429516 
L 188.594341 269.86582 
L 189.340879 102.629023 
L 189.639494 177.538007 
L 190.087417 305.624094 
L 190.236725 315.272346 
L 190.386033 306.177605 
L 191.132571 200.721663 
L 191.281878 204.609047 
L 192.028417 266.759802 
L 192.177724 265.648239 
L 192.625647 249.984136 
L 192.774955 251.012102 
L 193.07357 271.684815 
L 193.222878 282.809291 
L 193.372185 279.327318 
L 193.670801 204.722217 
L 193.969416 111.452132 
L 194.118724 97.164936 
L 194.268031 113.037916 
L 195.01457 314.657243 
L 195.163877 313.668166 
L 195.462492 268.743313 
L 195.910415 202.771772 
L 196.059723 201.666497 
L 196.358338 226.780618 
L 196.806261 266.517976 
L 196.955569 268.33045 
L 197.254184 259.035914 
L 197.403492 254.142337 
L 197.5528 253.560883 
L 197.702107 259.7416 
L 198.15003 291.458918 
L 198.299338 270.853967 
L 198.896568 79.02156 
L 199.045876 83.955888 
L 199.344491 177.793689 
L 199.792414 320.626639 
L 199.941722 328.155971 
L 200.09103 314.543258 
L 200.68826 202.004495 
L 200.837568 195.449104 
L 200.986875 201.99064 
L 201.733414 272.512753 
L 201.882721 270.417119 
L 202.330644 254.188095 
L 202.479952 257.529769 
L 202.927875 291.064218 
L 203.077182 276.316889 
L 203.375798 173.875334 
L 203.674413 80.86582 
L 203.823721 78.891158 
L 204.122336 164.910879 
L 204.570259 317.110901 
L 204.719567 329.577705 
L 204.868874 319.861341 
L 205.615412 195.494279 
L 205.76472 199.48843 
L 206.511258 272.71313 
L 206.660566 271.833381 
L 207.108489 254.401163 
L 207.257797 255.927917 
L 207.556412 280.464379 
L 207.705719 292.719744 
L 207.855027 286.780272 
L 208.153642 195.595574 
L 208.452258 88.558388 
L 208.601565 74.474946 
L 208.750873 95.433614 
L 209.497411 328.001235 
L 209.646719 325.072657 
L 209.945334 270.883773 
L 210.243949 210.264429 
L 210.393257 195.900622 
L 210.542565 195.571007 
L 210.84118 225.756879 
L 211.139795 261.389558 
L 211.289103 270.127556 
L 211.438411 271.096608 
L 211.737026 258.076759 
L 212.035641 248.955472 
L 212.184949 253.834611 
L 212.632872 289.129142 
L 212.782179 274.303106 
L 213.528718 91.337586 
L 213.827333 173.073011 
L 214.275256 311.897606 
L 214.424564 322.13686 
L 214.573871 312.021022 
L 215.320409 197.565929 
L 215.469717 201.971428 
L 216.216255 268.796988 
L 216.365563 267.327518 
L 216.813486 249.218023 
L 216.962793 249.718907 
L 217.261409 269.776169 
L 217.410716 280.826245 
L 217.560024 277.957396 
L 217.709332 252.288181 
L 218.306562 104.898255 
L 218.45587 119.702402 
L 219.202408 309.631285 
L 219.351716 308.734537 
L 219.650331 266.30712 
L 220.098254 203.847241 
L 220.247562 202.774567 
L 220.546177 226.50987 
L 220.9941 263.974783 
L 221.143408 265.559985 
L 221.442023 256.349395 
L 221.591331 251.393528 
L 221.740638 250.454516 
L 221.889946 255.678406 
L 222.188561 278.363506 
L 222.337869 279.44794 
L 222.487176 259.070145 
L 223.084407 103.835244 
L 223.233715 112.439463 
L 223.53233 195.178869 
L 223.830945 285.487543 
L 223.980253 308.295244 
L 224.129561 311.740774 
L 224.278868 298.247868 
L 224.876099 205.892694 
L 225.025406 202.07412 
L 225.174714 208.834894 
L 225.771945 263.215655 
L 225.921252 266.288025 
L 226.07056 263.87244 
L 226.518483 250.69378 
L 226.66779 254.29067 
L 227.115713 280.968523 
L 227.265021 265.82568 
L 227.862252 104.955306 
L 228.011559 106.913668 
L 228.310175 182.792985 
L 228.758098 305.291568 
L 228.907405 313.336339 
L 229.056713 303.395496 
L 229.803251 202.216282 
L 229.952559 206.832172 
L 230.699097 267.424621 
L 230.848405 266.395724 
L 231.296328 254.432017 
L 231.445635 257.891635 
L 231.893558 290.079681 
L 232.042866 276.803103 
L 232.341481 179.002704 
L 232.640096 87.43134 
L 232.789404 83.797542 
L 232.938712 112.630409 
L 233.535942 312.787136 
L 233.68525 325.819792 
L 233.834557 317.319778 
L 234.581096 196.458092 
L 234.730403 199.781952 
L 235.476942 270.577211 
L 235.626249 269.811447 
L 236.074172 251.586686 
L 236.22348 252.018644 
L 236.372787 259.919972 
L 236.671403 288.818505 
L 236.82071 289.148004 
L 236.970018 263.112265 
L 237.567249 78.600082 
L 237.716556 90.541201 
L 238.015172 190.962918 
L 238.313787 297.534847 
L 238.463095 323.553936 
L 238.612402 326.431983 
L 238.76171 309.36559 
L 239.35894 199.801279 
L 239.508248 196.058735 
L 239.657556 204.78998 
L 240.254786 269.059539 
L 240.404094 272.173009 
L 240.553402 268.854155 
L 241.001325 252.538157 
L 241.150632 256.551635 
L 241.598555 292.055159 
L 241.747863 278.312742 
L 242.046478 177.989059 
L 242.345093 85.277375 
L 242.494401 82.304902 
L 242.643709 112.140236 
L 243.240939 313.859228 
L 243.390247 326.485076 
L 243.539554 317.410128 
L 244.286093 195.718641 
L 244.4354 199.390628 
L 245.181939 270.711921 
L 245.331246 269.91868 
L 245.779169 252.25232 
L 245.928477 253.06454 
L 246.227092 274.219742 
L 246.3764 283.472596 
L 246.525707 275.264939 
L 246.824323 191.435626 
L 247.122938 102.922428 
L 247.272246 95.288075 
L 247.421553 117.889345 
L 248.168092 317.470555 
L 248.317399 312.267972 
L 248.616014 262.389231 
L 248.91463 211.06908 
L 249.063937 200.219498 
L 249.213245 201.618411 
L 249.51186 229.734578 
L 249.810476 260.002754 
L 249.959783 266.747228 
L 250.109091 266.801484 
L 250.706321 248.432233 
L 250.855629 253.826345 
L 251.303552 279.989342 
L 251.45286 261.40516 
L 252.05009 109.612528 
L 252.199398 116.424881 
L 252.498013 194.331953 
L 252.945936 304.402504 
L 253.095244 308.476061 
L 253.244551 296.078534 
L 253.841782 206.932186 
L 253.99109 202.892045 
L 254.140397 209.123293 
L 254.737628 261.470711 
L 254.886936 264.588721 
L 255.036243 262.397498 
L 255.484166 249.460315 
L 255.633474 252.573668 
L 256.081397 279.883041 
L 256.230704 267.18489 
L 256.977243 110.328576 
L 257.275858 181.142465 
L 257.723781 301.559619 
L 257.873089 310.543868 
L 258.022396 301.909842 
L 258.768934 202.890415 
L 258.918242 206.664396 
L 259.66478 265.011131 
L 259.814088 264.094357 
L 260.262011 250.597259 
L 260.411318 252.484366 
L 260.859241 279.80806 
L 261.008549 270.545891 
L 261.307164 191.401396 
L 261.60578 112.453434 
L 261.755087 107.375897 
L 261.904395 129.719273 
L 262.650933 311.087715 
L 262.800241 305.296808 
L 263.546779 203.464418 
L 263.696087 205.492638 
L 263.994702 232.089526 
L 264.293317 259.805986 
L 264.442625 265.949096 
L 264.591933 266.202682 
L 265.039856 253.859528 
L 265.189163 255.556969 
L 265.487778 277.534404 
L 265.637086 288.239962 
L 265.786394 282.215844 
L 266.085009 197.045367 
L 266.383624 97.580593 
L 266.532932 84.591599 
L 266.68224 104.276515 
L 267.428778 322.347366 
L 267.578085 319.741999 
L 267.876701 269.166538 
L 268.175316 212.445057 
L 268.324624 198.989758 
L 268.473931 198.659444 
L 268.772547 226.818795 
L 269.22047 268.640622 
L 269.369777 269.874553 
L 269.668393 258.611991 
L 269.8177 252.888962 
L 269.967008 251.714877 
L 270.116315 257.506366 
L 270.564238 289.026217 
L 270.713546 268.843444 
L 271.310777 84.503111 
L 271.460084 89.766938 
L 271.7587 180.788516 
L 272.206623 317.937558 
L 272.35593 324.902551 
L 272.505238 311.537603 
L 273.102468 203.135385 
L 273.251776 196.997398 
L 273.401084 203.483163 
L 274.147622 271.401307 
L 274.29693 269.252231 
L 274.744852 253.396949 
L 274.89416 256.616836 
L 275.342083 289.844259 
L 275.491391 276.463475 
L 275.790006 179.042989 
L 276.088621 88.928637 
L 276.237929 86.09821 
L 276.387237 115.259411 
L 276.984467 311.93859 
L 277.133775 324.130384 
L 277.283082 315.205049 
L 278.029621 196.590822 
L 278.178928 200.200985 
L 278.925467 269.471354 
L 279.074774 268.527567 
L 279.522697 250.016737 
L 279.672005 250.064124 
L 279.821312 257.308085 
L 280.119928 282.503544 
L 280.269235 280.056406 
L 280.418543 253.543419 
L 281.015774 97.593401 
L 281.165081 112.749168 
L 281.91162 313.826977 
L 282.060927 313.305368 
L 282.359542 268.935773 
L 282.807465 202.464745 
L 282.956773 200.989802 
L 283.255388 225.557514 
L 283.703311 264.776291 
L 283.852619 266.314106 
L 284.151234 255.844785 
L 284.449849 247.378653 
L 284.599157 250.854804 
L 285.04708 279.206812 
L 285.196388 267.268487 
L 285.942926 116.068604 
L 286.241541 182.778082 
L 286.689464 297.870516 
L 286.838772 306.648683 
L 286.988079 298.580394 
L 287.734618 204.067761 
L 287.883925 207.519229 
L 288.630464 263.353509 
L 288.779771 262.566089 
L 289.227694 249.566616 
L 289.377002 251.097445 
L 289.824925 278.190839 
L 289.974232 270.980992 
L 290.272848 197.090892 
L 290.571463 118.766882 
L 290.720771 111.721086 
L 290.870078 131.302147 
L 291.616616 307.51481 
L 291.765924 303.159608 
L 292.064539 259.437134 
L 292.363155 214.171489 
L 292.512462 204.516251 
L 292.66177 205.63643 
L 292.960385 230.350845 
L 293.259001 257.217502 
L 293.408308 263.347106 
L 293.557616 263.651572 
L 294.154846 249.468931 
L 294.304154 255.318985 
L 294.602769 277.504015 
L 294.752077 277.404583 
L 294.901385 256.269524 
L 295.498615 108.853401 
L 295.647923 118.882614 
L 295.946538 200.121114 
L 296.245154 285.588139 
L 296.394461 306.254449 
L 296.543769 308.344727 
L 296.842384 270.366355 
L 297.290307 206.704098 
L 297.439615 203.894978 
L 297.588922 211.087593 
L 298.186153 263.003985 
L 298.335461 265.643699 
L 298.484768 263.255242 
L 298.783384 253.607339 
L 298.932691 252.535479 
L 299.081999 257.360711 
L 299.529922 287.8675 
L 299.679229 271.55907 
L 300.27646 90.560994 
L 300.425768 91.648456 
L 300.724383 175.08598 
L 301.172306 312.799826 
L 301.321613 322.290664 
L 301.470921 311.576956 
L 302.217459 197.754546 
L 302.366767 202.550787 
L 303.113305 269.478456 
L 303.262613 268.022259 
L 303.710536 251.440217 
L 303.859843 253.105873 
L 304.158459 276.305246 
L 304.307766 287.362075 
L 304.457074 281.266003 
L 304.755689 196.374844 
L 305.054305 98.75072 
L 305.203612 86.682692 
L 305.35292 106.863603 
L 306.099458 321.827853 
L 306.248766 318.774112 
L 306.547381 268.216698 
L 306.845996 212.364254 
L 306.995304 199.37689 
L 307.144612 199.405881 
L 307.443227 227.771302 
L 307.741842 260.763861 
L 307.89115 268.903056 
L 308.040458 269.996456 
L 308.339073 258.93299 
L 308.48838 253.454466 
L 308.637688 252.681483 
L 308.786996 258.782329 
L 309.085611 285.200192 
L 309.234919 286.942692 
L 309.384226 264.489639 
L 309.981457 88.294091 
L 310.130765 97.170758 
L 310.42938 189.132862 
L 310.877303 316.468321 
L 311.02661 320.667273 
L 311.175918 305.808636 
L 311.773149 202.234329 
L 311.922456 197.766655 
L 312.071764 205.206219 
L 312.668995 265.736377 
L 312.818302 269.11007 
L 312.96761 266.263459 
L 313.415533 250.17124 
L 313.56484 253.27493 
L 314.012763 281.195446 
L 314.162071 266.414469 
L 314.759302 104.560606 
L 314.908609 106.560883 
L 315.207225 182.903128 
L 315.655148 305.554585 
L 315.804455 313.389314 
L 315.953763 303.194654 
L 316.700301 201.451682 
L 316.849609 206.086318 
L 317.596147 265.860725 
L 317.745455 264.284837 
L 318.193377 248.894695 
L 318.342685 250.209895 
L 318.790608 276.791809 
L 318.939916 268.642252 
L 319.238531 195.991904 
L 319.537146 123.420845 
L 319.686454 118.62833 
L 319.835762 138.954779 
L 320.5823 303.736638 
L 320.731607 298.385023 
L 321.478146 205.624205 
L 321.627453 207.440056 
L 321.926069 231.454327 
L 322.224684 256.323897 
L 322.373992 261.691463 
L 322.523299 261.586559 
L 322.971222 248.235698 
L 323.12053 248.415816 
L 323.269837 254.27402 
L 323.568453 276.066214 
L 323.71776 275.990534 
L 323.867068 255.567215 
L 324.464299 113.805193 
L 324.613606 123.529125 
L 324.912222 201.662305 
L 325.210837 283.657254 
L 325.360144 303.4267 
L 325.509452 305.353509 
L 325.808067 268.738772 
L 326.25599 207.437145 
L 326.405298 204.692411 
L 326.554606 211.564609 
L 327.151836 261.297811 
L 327.301144 263.664495 
L 327.450452 261.105817 
L 327.898374 249.329331 
L 328.047682 253.037877 
L 328.495605 277.298399 
L 328.644913 261.826988 
L 329.242143 113.984496 
L 329.391451 117.607001 
L 329.690066 189.739233 
L 330.137989 300.909587 
L 330.287297 307.25156 
L 330.436604 297.193938 
L 331.183143 204.615334 
L 331.33245 209.357202 
L 332.078989 264.602809 
L 332.228296 263.358632 
L 332.676219 251.621033 
L 332.825527 254.569754 
L 333.27345 287.263226 
L 333.422757 279.054405 
L 333.721373 193.072523 
L 334.019988 100.592652 
L 334.169296 91.382994 
L 334.318603 113.3418 
L 335.065141 319.592619 
L 335.214449 314.983831 
L 335.513064 264.416171 
L 335.81168 211.294723 
L 335.960987 199.693581 
L 336.110295 200.669502 
L 336.40891 229.096946 
L 336.707526 260.618555 
L 336.856833 268.033669 
L 337.006141 268.687543 
L 337.454064 252.952883 
L 337.603371 252.987463 
L 337.752679 259.876194 
L 338.051294 284.093986 
L 338.200602 280.99635 
L 338.34991 253.30753 
L 338.94714 90.644824 
L 339.096448 106.437467 
L 339.842986 318.056085 
L 339.992294 317.646365 
L 340.290909 271.242495 
L 340.738832 201.440039 
L 340.88814 199.882082 
L 341.186755 225.684983 
L 341.634678 267.358139 
L 341.783986 269.24804 
L 342.082601 259.099136 
L 342.381216 251.866702 
L 342.530524 256.974977 
L 342.978447 286.781785 
L 343.127754 268.399377 
L 343.724985 93.772149 
L 343.874293 97.941528 
L 344.172908 182.438919 
L 344.620831 311.948835 
L 344.770138 318.956675 
L 344.919446 306.754169 
L 345.516677 204.461646 
L 345.665984 198.333322 
L 345.815292 204.103971 
L 346.56183 267.835504 
L 346.711138 265.726946 
L 347.159061 248.785833 
L 347.308368 250.329003 
L 347.756291 280.435038 
L 347.905599 272.8759 
L 348.204214 195.090615 
L 348.50283 113.594454 
L 348.652137 106.658685 
L 348.801445 127.536433 
L 349.547983 310.995153 
L 349.697291 306.048018 
L 349.995906 259.886905 
L 350.294521 212.739393 
L 350.443829 202.884128 
L 350.593137 204.305396 
L 350.891752 230.406568 
L 351.190367 258.313346 
L 351.339675 264.527013 
L 351.488983 264.620274 
L 352.086213 249.254582 
L 352.235521 254.89087 
L 352.534136 273.990373 
L 352.683444 270.050596 
L 352.982059 206.403358 
L 353.280674 131.697661 
L 353.429982 121.998413 
L 353.57929 136.845523 
L 354.325828 300.172698 
L 354.475135 298.171839 
L 354.773751 260.177283 
L 355.072366 217.618882 
L 355.221674 207.558 
L 355.370981 207.358555 
L 355.669597 228.621909 
L 356.11752 260.115575 
L 356.266827 261.059128 
L 356.565443 252.626062 
L 356.71475 248.398002 
L 356.864058 247.698488 
L 357.013365 252.39192 
L 357.461288 276.443449 
L 357.610596 260.422952 
L 358.207827 118.190551 
L 358.357134 122.906105 
L 358.65575 193.956115 
L 359.103672 299.349418 
L 359.25298 304.368274 
L 359.402288 293.704281 
L 359.999518 209.727335 
L 360.148826 205.141484 
L 360.298134 210.289927 
L 361.044672 263.000492 
L 361.19398 261.341705 
L 361.641902 249.389525 
L 361.79121 252.116213 
L 362.239133 275.901931 
L 362.388441 262.987568 
L 362.985671 118.502352 
L 363.134979 119.568623 
L 363.433594 186.863165 
L 363.881517 297.64825 
L 364.030825 305.322306 
L 364.180132 296.764659 
L 364.926671 205.454333 
L 365.075978 209.340785 
L 365.822517 263.732141 
L 365.971824 262.924346 
L 366.419747 251.788228 
L 366.569055 254.485226 
L 367.016978 285.934869 
L 367.166285 277.92887 
L 367.464901 194.039247 
L 367.763516 103.474309 
L 367.912824 94.327523 
L 368.062131 115.704176 
L 368.808669 317.688863 
L 368.957977 313.273 
L 369.256592 263.822259 
L 369.555208 211.699552 
L 369.704515 200.310546 
L 369.853823 201.259572 
L 370.152438 229.140072 
L 370.451054 259.977954 
L 370.600361 267.137154 
L 370.749669 267.599499 
L 371.346899 251.030498 
L 371.496207 257.362341 
L 371.794822 282.571074 
L 371.94413 282.931077 
L 372.093438 259.83556 
L 372.690668 94.013161 
L 372.839976 104.426711 
L 373.138591 194.43022 
L 373.437207 290.646582 
L 373.586514 314.418677 
L 373.735822 317.40093 
L 373.885129 302.345875 
L 374.48236 203.508312 
L 374.631668 199.849831 
L 374.780975 207.480225 
L 375.378206 265.547876 
L 375.527514 268.52943 
L 375.676821 265.676183 
L 376.124744 251.102917 
L 376.274052 254.81682 
L 376.721975 285.743225 
L 376.871282 272.18535 
L 377.617821 98.593539 
L 377.916436 174.703505 
L 378.364359 306.74567 
L 378.513666 316.983293 
L 378.662974 307.910441 
L 379.409512 199.320304 
L 379.55882 203.216886 
L 380.305358 266.400614 
L 380.454666 265.111029 
L 380.902589 247.90946 
L 381.051896 248.143019 
L 381.201204 254.979706 
L 381.499819 278.51731 
L 381.649127 277.097207 
L 381.798435 253.744844 
L 382.395665 108.922095 
L 382.544973 121.50335 
L 383.291511 306.904015 
L 383.440819 307.202543 
L 383.739434 267.325422 
L 384.187357 205.497645 
L 384.336665 203.652453 
L 384.485972 211.538994 
L 385.083203 262.33416 
L 385.232511 264.177372 
L 385.381818 261.037356 
L 385.829741 248.020302 
L 385.979049 251.523698 
L 386.426972 272.714178 
L 386.576279 256.820473 
L 387.17351 125.911178 
L 387.322818 131.791504 
L 387.621433 199.325544 
L 388.069356 294.972443 
L 388.218663 298.606241 
L 388.367971 287.949933 
L 388.965202 210.664135 
L 389.114509 207.034412 
L 389.263817 212.300916 
L 389.861048 257.647596 
L 390.010355 260.37475 
L 390.159663 258.426633 
L 390.607586 246.437079 
L 390.756893 248.630165 
L 391.204816 275.853146 
L 391.354124 269.922406 
L 391.652739 201.789215 
L 391.951355 128.001806 
L 392.100662 120.558632 
L 392.24997 137.912143 
L 392.996508 302.089378 
L 393.145816 298.551635 
L 393.444431 258.372493 
L 393.743046 216.006901 
L 393.892354 206.768601 
L 394.041662 207.544261 
L 394.340277 230.189379 
L 394.638892 255.374056 
L 394.7882 261.323542 
L 394.937508 261.912448 
L 395.38543 249.623667 
L 395.534738 249.859206 
L 395.684046 255.610643 
L 395.982661 274.354335 
L 396.131969 270.489306 
L 396.430584 206.476477 
L 396.729199 129.335867 
L 396.878507 118.555677 
L 397.027815 132.967453 
L 397.774353 302.373003 
L 397.92366 301.036962 
L 398.222276 262.670295 
L 398.520891 218.523897 
L 398.670199 207.748713 
L 398.819506 207.123714 
L 399.118122 228.538335 
L 399.566045 261.778902 
L 399.715352 263.256523 
L 400.013967 255.713219 
L 400.163275 251.946224 
L 400.312583 251.964737 
L 400.46189 257.791737 
L 400.760506 281.426212 
L 400.909813 283.0347 
L 401.059121 262.679842 
L 401.656352 98.12316 
L 401.805659 105.285968 
L 402.104275 190.016803 
L 402.552197 310.917493 
L 402.701505 315.674497 
L 402.850813 302.409329 
L 403.448043 205.205404 
L 403.597351 200.520704 
L 403.746659 207.035343 
L 404.343889 263.963838 
L 404.493197 267.546407 
L 404.642505 265.331898 
L 405.090427 251.529985 
L 405.239735 254.987623 
L 405.687658 282.875656 
L 405.836966 267.429511 
L 406.434196 99.789281 
L 406.583504 101.507796 
L 406.882119 180.266791 
L 407.330042 308.378958 
L 407.47935 316.835543 
L 407.628657 306.477646 
L 408.375196 200.521635 
L 408.524503 205.249648 
L 409.271042 267.795685 
L 409.420349 266.446953 
L 409.868272 251.560955 
L 410.01758 253.548192 
L 410.465503 284.335463 
L 410.61481 276.046421 
L 410.913426 193.650368 
L 411.212041 107.549379 
L 411.361349 100.041936 
L 411.510656 121.693365 
L 412.257194 314.146695 
L 412.406502 309.099314 
L 412.705117 260.963073 
L 413.003733 211.589059 
L 413.15304 201.218123 
L 413.302348 202.617618 
L 413.600963 229.697611 
L 413.899579 258.792575 
L 414.048886 265.2979 
L 414.198194 265.429233 
L 414.795424 248.472052 
L 414.944732 254.072945 
L 415.243347 275.975748 
L 415.392655 274.997149 
L 415.541963 253.058602 
L 416.139193 113.86923 
L 416.288501 125.464551 
L 417.184347 304.527551 
L 417.482962 266.6457 
L 417.930885 206.833918 
L 418.080193 204.868221 
L 418.2295 212.296724 
L 418.826731 261.245767 
L 418.976039 263.127052 
L 419.125346 260.196727 
L 419.423961 249.66174 
L 419.573269 247.905152 
L 419.722577 251.446737 
L 420.021192 269.986792 
L 420.1705 271.094047 
L 420.319807 254.61295 
L 420.917038 128.859433 
L 421.066346 135.780649 
L 421.364961 202.555677 
L 421.663576 275.40093 
L 421.812884 293.797193 
L 421.962191 296.56009 
L 422.111499 285.652758 
L 422.70873 211.075833 
L 422.858037 208.012662 
L 423.007345 213.50702 
L 423.604576 257.329974 
L 423.753883 259.780488 
L 423.903191 257.802565 
L 424.351114 247.346867 
L 424.500421 250.360556 
L 424.948344 274.01855 
L 425.097652 262.994437 
L 425.84419 127.162574 
L 426.142806 187.947366 
L 426.590728 292.079726 
L 426.740036 300.012606 
L 426.889344 292.729059 
L 427.635882 207.147 
L 427.78519 210.274442 
L 428.531728 260.583859 
L 428.681036 259.731121 
L 429.128958 247.628978 
L 429.278266 248.836014 
L 429.576881 266.130262 
L 429.726189 274.666136 
L 429.875497 270.410133 
L 430.174112 206.263409 
L 430.472727 130.675052 
L 430.622035 120.601479 
L 430.771343 135.36243 
L 431.517881 301.404184 
L 431.667188 299.572033 
L 431.965804 261.270683 
L 432.264419 218.069585 
L 432.413727 207.785622 
L 432.563034 207.512476 
L 432.86165 229.096783 
L 433.309573 261.556753 
L 433.45888 262.781719 
L 433.757495 255.034079 
L 433.906803 251.347189 
L 434.056111 251.513684 
L 434.205418 257.291202 
L 434.504034 280.74486 
L 434.653341 282.448938 
L 434.802649 262.357679 
L 435.39988 100.507658 
L 435.549187 107.755461 
L 435.847803 191.293697 
L 436.295725 309.485397 
L 436.445033 313.915813 
L 436.594341 300.709909 
L 437.191571 205.204473 
L 437.340879 200.745531 
L 437.490187 207.298476 
L 438.087417 263.092472 
L 438.236725 266.335413 
L 438.386033 263.833436 
L 438.833955 248.506749 
L 438.983263 250.846421 
L 439.431186 283.860542 
L 439.580494 277.640705 
L 439.879109 198.391072 
L 440.177724 109.958327 
L 440.327032 99.952284 
L 440.47634 119.33483 
L 441.222878 314.001041 
L 441.372185 310.567503 
L 441.670801 264.006103 
L 441.969416 213.652442 
L 442.118724 202.259711 
L 442.268031 202.679326 
L 442.566647 228.901505 
L 442.865262 258.84101 
L 443.01457 266.08858 
L 443.163877 266.939454 
L 443.761108 251.815123 
L 443.910415 257.940419 
L 444.209031 280.558571 
L 444.358338 278.759602 
L 444.507646 254.43679 
L 445.104877 103.190218 
L 445.254184 116.101204 
L 446.000722 309.563289 
L 446.15003 310.024355 
L 446.448645 268.581591 
L 446.896568 203.918381 
L 447.045876 201.913912 
L 447.195184 210.082681 
L 447.792414 262.973946 
L 447.941722 264.831363 
L 448.09103 261.409119 
L 448.538952 247.349894 
L 448.68826 250.845257 
L 449.136183 276.996727 
L 449.285491 263.54364 
L 449.882721 118.323747 
L 450.032029 120.152988 
L 450.330644 188.376296 
L 450.778567 297.886118 
L 450.927875 304.847618 
L 451.077182 295.680574 
L 451.823721 204.685192 
L 451.973028 208.894157 
L 452.719567 261.886601 
L 452.868874 260.216288 
L 453.316797 245.146108 
L 453.466105 245.569496 
L 453.615412 251.502158 
L 453.914028 271.68598 
L 454.063335 270.622968 
L 454.212643 251.212711 
L 454.809874 130.448944 
L 454.959181 140.820579 
L 455.705719 294.26373 
L 455.855027 294.466319 
L 456.153642 261.325522 
L 456.601565 210.169654 
L 456.750873 208.763755 
L 456.900181 215.421954 
L 457.497411 257.710585 
L 457.646719 259.290315 
L 457.796026 256.808248 
L 458.094642 248.216021 
L 458.243949 247.23393 
L 458.393257 251.151702 
L 458.84118 272.328094 
L 458.990488 257.674957 
L 459.587718 127.630858 
L 459.737026 131.897456 
L 460.035641 197.074242 
L 460.483564 293.938074 
L 460.632872 298.567353 
L 460.782179 288.81606 
L 461.37941 211.766267 
L 461.528718 207.508284 
L 461.678025 212.197526 
L 462.424564 260.419692 
L 462.573871 258.832044 
L 463.021794 247.278406 
L 463.171102 249.440522 
L 463.619025 274.43246 
L 463.768332 266.062849 
L 464.066948 196.372748 
L 464.365563 128.430037 
L 464.514871 124.637312 
L 464.664178 144.56161 
L 465.261409 290.485791 
L 465.410716 300.825059 
L 465.560024 295.4129 
L 466.306562 207.530523 
L 466.45587 209.544073 
L 466.754485 232.799752 
L 467.053101 256.638143 
L 467.202408 261.858075 
L 467.351716 262.007688 
L 467.799639 251.597049 
L 467.948946 253.54272 
L 468.396869 281.756642 
L 468.546177 274.996683 
L 468.844792 197.886345 
L 469.143408 112.479049 
L 469.292715 103.072623 
L 469.442023 122.191105 
L 470.188561 311.956287 
L 470.337869 308.483745 
L 470.636484 262.9389 
L 470.935099 213.867256 
L 471.084407 202.808564 
L 471.233715 203.283135 
L 471.53233 228.858321 
L 471.830945 257.838542 
L 471.980253 264.760456 
L 472.129561 265.466608 
L 472.726791 250.201046 
L 472.876099 255.816027 
L 473.174714 279.153487 
L 473.324022 279.750543 
L 473.473329 258.404395 
L 474.07056 103.148303 
L 474.219868 112.876077 
L 474.518483 197.034074 
L 474.817098 286.968191 
L 474.966406 309.157529 
L 475.115713 311.920426 
L 475.265021 297.831978 
L 475.862252 205.548409 
L 476.011559 202.217796 
L 476.160867 209.434861 
L 476.758098 263.95464 
L 476.907405 266.845146 
L 477.056713 264.367736 
L 477.504636 252.135074 
L 477.653943 256.372216 
L 477.952559 277.85843 
L 478.101866 279.062322 
L 478.251174 259.365762 
L 478.848405 107.509792 
L 478.997712 115.417757 
L 479.296328 195.329414 
L 479.74425 305.56355 
L 479.893558 309.105484 
L 480.042866 296.121613 
L 480.640096 206.166771 
L 480.789404 202.312686 
L 480.938712 208.753509 
L 481.535942 261.234822 
L 481.68525 264.116945 
L 481.834557 261.605304 
L 482.28248 247.348381 
L 482.431788 249.673499 
L 482.879711 275.347837 
L 483.029019 265.133151 
L 483.327634 191.413504 
L 483.626249 123.914976 
L 483.775557 122.208919 
L 483.924865 144.632749 
L 484.522095 293.59961 
L 484.671403 302.647081 
L 484.82071 295.702812 
L 485.567249 205.786858 
L 485.716556 208.587596 
L 486.463095 261.059245 
L 486.612402 260.264606 
L 487.060325 246.146468 
L 487.209633 246.116662 
L 487.35894 251.412273 
L 487.657556 269.797592 
L 487.806863 267.978481 
L 487.956171 248.470888 
L 488.553402 134.303494 
L 488.702709 145.640222 
L 489.449247 292.153659 
L 489.598555 291.576047 
L 489.89717 259.004478 
L 490.345093 210.840294 
L 490.494401 209.941916 
L 490.793016 228.090636 
L 491.240939 256.879853 
L 491.390247 258.124263 
L 491.688862 251.062283 
L 491.987477 246.210388 
L 492.136785 249.771185 
L 492.584708 271.854338 
L 492.734016 259.367043 
L 493.331246 130.59518 
L 493.480554 132.818306 
L 493.779169 194.552123 
L 494.227092 291.628441 
L 494.3764 297.375919 
L 494.525707 288.800342 
L 495.272246 208.012196 
L 495.421553 212.010655 
L 496.168092 259.945004 
L 496.317399 258.705484 
L 496.765322 247.501021 
L 496.91463 249.468814 
L 497.362553 273.034711 
L 497.51186 264.650429 
L 497.810476 197.022198 
L 498.109091 131.159403 
L 498.109091 131.159403 
" style="fill:none;stroke:#4c72b0;stroke-linecap:round;stroke-width:1.75;"/>
   </g>
   <g id="patch_3">
    <path d="M 72 352.44 
L 72 47.52 
" style="fill:none;"/>
   </g>
   <g id="patch_4">
    <path d="M 518.4 352.44 
L 518.4 47.52 
" style="fill:none;"/>
   </g>
   <g id="patch_5">
    <path d="M 72 352.44 
L 518.4 352.44 
" style="fill:none;"/>
   </g>
   <g id="patch_6">
    <path d="M 72 47.52 
L 518.4 47.52 
" style="fill:none;"/>
   </g>
  </g>
 </g>
 <defs>
  <clipPath id="pbb23e993a2">
   <rect height="304.92" width="446.4" x="72" y="47.52"/>
  </clipPath>
 </defs>
</svg>
