<?xml version="1.0" encoding="utf-8" standalone="no"?>
<!DOCTYPE svg PUBLIC "-//W3C//DTD SVG 1.1//EN"
  "http://www.w3.org/Graphics/SVG/1.1/DTD/svg11.dtd">
<!-- Created with matplotlib (http://matplotlib.org/) -->
<svg height="396pt" version="1.1" viewBox="0 0 576 396" width="576pt" xmlns="http://www.w3.org/2000/svg" xmlns:xlink="http://www.w3.org/1999/xlink">
 <defs>
  <style type="text/css">
*{stroke-linecap:butt;stroke-linejoin:round;}
  </style>
 </defs>
 <g id="figure_1">
  <g id="patch_1">
   <path d="M 0 396 
L 576 396 
L 576 0 
L 0 0 
z
" style="fill:#ffffff;"/>
  </g>
  <g id="axes_1">
   <g id="patch_2">
    <path d="M 72 352.44 
L 518.4 352.44 
L 518.4 47.52 
L 72 47.52 
z
" style="fill:#eaeaf2;"/>
   </g>
   <g id="matplotlib.axis_1">
    <g id="xtick_1">
     <g id="line2d_1">
      <path clip-path="url(#pe0acb4d34b)" d="M 92.290909 352.44 
L 92.290909 47.52 
" style="fill:none;stroke:#ffffff;stroke-linecap:round;"/>
     </g>
     <g id="line2d_2"/>
     <g id="text_1">
      <!-- 0 -->
      <defs>
       <path d="M 51.703125 34.421875 
Q 51.703125 24.515625 49.828125 17.75 
Q 47.953125 10.984375 44.703125 6.8125 
Q 41.453125 2.640625 37.0625 0.828125 
Q 32.671875 -0.984375 27.6875 -0.984375 
Q 22.65625 -0.984375 18.3125 0.828125 
Q 13.96875 2.640625 10.765625 6.78125 
Q 7.5625 10.9375 5.734375 17.703125 
Q 3.90625 24.46875 3.90625 34.421875 
Q 3.90625 44.828125 5.734375 51.640625 
Q 7.5625 58.453125 10.78125 62.5 
Q 14.015625 66.546875 18.40625 68.1875 
Q 22.796875 69.828125 27.984375 69.828125 
Q 32.90625 69.828125 37.21875 68.1875 
Q 41.546875 66.546875 44.765625 62.5 
Q 48 58.453125 49.84375 51.640625 
Q 51.703125 44.828125 51.703125 34.421875 
M 42.78125 34.421875 
Q 42.78125 42.625 41.796875 48.0625 
Q 40.828125 53.515625 38.921875 56.765625 
Q 37.015625 60.015625 34.25 61.359375 
Q 31.5 62.703125 27.984375 62.703125 
Q 24.265625 62.703125 21.4375 61.328125 
Q 18.609375 59.96875 16.671875 56.71875 
Q 14.75 53.46875 13.765625 48.015625 
Q 12.796875 42.578125 12.796875 34.421875 
Q 12.796875 26.515625 13.796875 21.09375 
Q 14.796875 15.671875 16.71875 12.375 
Q 18.65625 9.078125 21.4375 7.640625 
Q 24.21875 6.203125 27.78125 6.203125 
Q 31.25 6.203125 34.03125 7.640625 
Q 36.8125 9.078125 38.734375 12.375 
Q 40.671875 15.671875 41.71875 21.09375 
Q 42.78125 26.515625 42.78125 34.421875 
" id="LiberationSans-30"/>
      </defs>
      <g style="fill:#262626;" transform="translate(89.51044 366.686875)scale(0.1 -0.1)">
       <use xlink:href="#LiberationSans-30"/>
      </g>
     </g>
    </g>
    <g id="xtick_2">
     <g id="line2d_3">
      <path clip-path="url(#pe0acb4d34b)" d="M 166.944732 352.44 
L 166.944732 47.52 
" style="fill:none;stroke:#ffffff;stroke-linecap:round;"/>
     </g>
     <g id="line2d_4"/>
     <g id="text_2">
      <!-- 500 -->
      <defs>
       <path d="M 51.421875 22.40625 
Q 51.421875 17.234375 49.859375 12.9375 
Q 48.296875 8.640625 45.21875 5.53125 
Q 42.140625 2.4375 37.578125 0.71875 
Q 33.015625 -0.984375 27 -0.984375 
Q 21.578125 -0.984375 17.546875 0.28125 
Q 13.53125 1.5625 10.734375 3.78125 
Q 7.953125 6 6.3125 8.984375 
Q 4.6875 11.96875 4 15.375 
L 12.890625 16.40625 
Q 13.421875 14.453125 14.390625 12.625 
Q 15.375 10.796875 17.0625 9.34375 
Q 18.75 7.90625 21.21875 7.046875 
Q 23.6875 6.203125 27.203125 6.203125 
Q 30.609375 6.203125 33.390625 7.25 
Q 36.1875 8.296875 38.15625 10.34375 
Q 40.140625 12.40625 41.203125 15.375 
Q 42.28125 18.359375 42.28125 22.21875 
Q 42.28125 25.390625 41.25 28.046875 
Q 40.234375 30.71875 38.328125 32.640625 
Q 36.421875 34.578125 33.65625 35.640625 
Q 30.90625 36.71875 27.390625 36.71875 
Q 25.203125 36.71875 23.34375 36.328125 
Q 21.484375 35.9375 19.890625 35.25 
Q 18.3125 34.578125 17.015625 33.671875 
Q 15.71875 32.765625 14.59375 31.78125 
L 6 31.78125 
L 8.296875 68.796875 
L 47.40625 68.796875 
L 47.40625 61.328125 
L 16.3125 61.328125 
L 14.984375 39.5 
Q 17.328125 41.3125 20.84375 42.59375 
Q 24.359375 43.890625 29.203125 43.890625 
Q 34.328125 43.890625 38.421875 42.328125 
Q 42.53125 40.765625 45.40625 37.90625 
Q 48.296875 35.0625 49.859375 31.109375 
Q 51.421875 27.15625 51.421875 22.40625 
" id="LiberationSans-35"/>
      </defs>
      <g style="fill:#262626;" transform="translate(158.603326 366.686875)scale(0.1 -0.1)">
       <use xlink:href="#LiberationSans-35"/>
       <use x="55.615234" xlink:href="#LiberationSans-30"/>
       <use x="111.230469" xlink:href="#LiberationSans-30"/>
      </g>
     </g>
    </g>
    <g id="xtick_3">
     <g id="line2d_5">
      <path clip-path="url(#pe0acb4d34b)" d="M 241.598555 352.44 
L 241.598555 47.52 
" style="fill:none;stroke:#ffffff;stroke-linecap:round;"/>
     </g>
     <g id="line2d_6"/>
     <g id="text_3">
      <!-- 1000 -->
      <defs>
       <path d="M 7.625 0 
L 7.625 7.46875 
L 25.140625 7.46875 
L 25.140625 60.40625 
L 9.625 49.3125 
L 9.625 57.625 
L 25.875 68.796875 
L 33.984375 68.796875 
L 33.984375 7.46875 
L 50.734375 7.46875 
L 50.734375 0 
z
" id="LiberationSans-31"/>
      </defs>
      <g style="fill:#262626;" transform="translate(230.47668 366.686875)scale(0.1 -0.1)">
       <use xlink:href="#LiberationSans-31"/>
       <use x="55.615234" xlink:href="#LiberationSans-30"/>
       <use x="111.230469" xlink:href="#LiberationSans-30"/>
       <use x="166.845703" xlink:href="#LiberationSans-30"/>
      </g>
     </g>
    </g>
    <g id="xtick_4">
     <g id="line2d_7">
      <path clip-path="url(#pe0acb4d34b)" d="M 316.252378 352.44 
L 316.252378 47.52 
" style="fill:none;stroke:#ffffff;stroke-linecap:round;"/>
     </g>
     <g id="line2d_8"/>
     <g id="text_4">
      <!-- 1500 -->
      <g style="fill:#262626;" transform="translate(305.130503 366.686875)scale(0.1 -0.1)">
       <use xlink:href="#LiberationSans-31"/>
       <use x="55.615234" xlink:href="#LiberationSans-35"/>
       <use x="111.230469" xlink:href="#LiberationSans-30"/>
       <use x="166.845703" xlink:href="#LiberationSans-30"/>
      </g>
     </g>
    </g>
    <g id="xtick_5">
     <g id="line2d_9">
      <path clip-path="url(#pe0acb4d34b)" d="M 390.906201 352.44 
L 390.906201 47.52 
" style="fill:none;stroke:#ffffff;stroke-linecap:round;"/>
     </g>
     <g id="line2d_10"/>
     <g id="text_5">
      <!-- 2000 -->
      <defs>
       <path d="M 5.03125 0 
L 5.03125 6.203125 
Q 7.515625 11.921875 11.109375 16.28125 
Q 14.703125 20.65625 18.65625 24.1875 
Q 22.609375 27.734375 26.484375 30.765625 
Q 30.375 33.796875 33.5 36.8125 
Q 36.625 39.84375 38.546875 43.15625 
Q 40.484375 46.484375 40.484375 50.6875 
Q 40.484375 53.609375 39.59375 55.828125 
Q 38.71875 58.0625 37.0625 59.5625 
Q 35.40625 61.078125 33.078125 61.828125 
Q 30.765625 62.59375 27.9375 62.59375 
Q 25.296875 62.59375 22.96875 61.859375 
Q 20.65625 61.140625 18.84375 59.671875 
Q 17.046875 58.203125 15.890625 56.03125 
Q 14.75 53.859375 14.40625 50.984375 
L 5.421875 51.8125 
Q 5.859375 55.515625 7.46875 58.78125 
Q 9.078125 62.0625 11.90625 64.53125 
Q 14.75 67 18.71875 68.40625 
Q 22.703125 69.828125 27.9375 69.828125 
Q 33.0625 69.828125 37.0625 68.609375 
Q 41.0625 67.390625 43.8125 64.984375 
Q 46.578125 62.59375 48.046875 59.078125 
Q 49.515625 55.5625 49.515625 50.984375 
Q 49.515625 47.515625 48.265625 44.390625 
Q 47.015625 41.265625 44.9375 38.421875 
Q 42.875 35.59375 40.140625 32.953125 
Q 37.40625 30.328125 34.421875 27.8125 
Q 31.453125 25.296875 28.421875 22.828125 
Q 25.390625 20.359375 22.71875 17.859375 
Q 20.0625 15.375 17.96875 12.8125 
Q 15.875 10.25 14.703125 7.46875 
L 50.59375 7.46875 
L 50.59375 0 
z
" id="LiberationSans-32"/>
      </defs>
      <g style="fill:#262626;" transform="translate(379.784326 366.686875)scale(0.1 -0.1)">
       <use xlink:href="#LiberationSans-32"/>
       <use x="55.615234" xlink:href="#LiberationSans-30"/>
       <use x="111.230469" xlink:href="#LiberationSans-30"/>
       <use x="166.845703" xlink:href="#LiberationSans-30"/>
      </g>
     </g>
    </g>
    <g id="xtick_6">
     <g id="line2d_11">
      <path clip-path="url(#pe0acb4d34b)" d="M 465.560024 352.44 
L 465.560024 47.52 
" style="fill:none;stroke:#ffffff;stroke-linecap:round;"/>
     </g>
     <g id="line2d_12"/>
     <g id="text_6">
      <!-- 2500 -->
      <g style="fill:#262626;" transform="translate(454.438149 366.686875)scale(0.1 -0.1)">
       <use xlink:href="#LiberationSans-32"/>
       <use x="55.615234" xlink:href="#LiberationSans-35"/>
       <use x="111.230469" xlink:href="#LiberationSans-30"/>
       <use x="166.845703" xlink:href="#LiberationSans-30"/>
      </g>
     </g>
    </g>
   </g>
   <g id="matplotlib.axis_2">
    <g id="ytick_1">
     <g id="line2d_13">
      <path clip-path="url(#pe0acb4d34b)" d="M 72 350.647158 
L 518.4 350.647158 
" style="fill:none;stroke:#ffffff;stroke-linecap:round;"/>
     </g>
     <g id="line2d_14"/>
     <g id="text_7">
      <!-- −30000 -->
      <defs>
       <path d="M 4.9375 29.6875 
L 4.9375 36.8125 
L 53.515625 36.8125 
L 53.515625 29.6875 
z
" id="LiberationSans-2212"/>
       <path d="M 51.21875 19 
Q 51.21875 14.265625 49.671875 10.546875 
Q 48.140625 6.84375 45.1875 4.265625 
Q 42.234375 1.703125 37.859375 0.359375 
Q 33.5 -0.984375 27.875 -0.984375 
Q 21.484375 -0.984375 17.109375 0.609375 
Q 12.75 2.203125 9.90625 4.8125 
Q 7.078125 7.421875 5.65625 10.765625 
Q 4.25 14.109375 3.8125 17.671875 
L 12.890625 18.5 
Q 13.28125 15.765625 14.328125 13.515625 
Q 15.375 11.28125 17.1875 9.671875 
Q 19 8.0625 21.625 7.171875 
Q 24.265625 6.296875 27.875 6.296875 
Q 34.515625 6.296875 38.296875 9.5625 
Q 42.09375 12.84375 42.09375 19.28125 
Q 42.09375 23.09375 40.40625 25.40625 
Q 38.71875 27.734375 36.203125 29.03125 
Q 33.6875 30.328125 30.734375 30.765625 
Q 27.78125 31.203125 25.296875 31.203125 
L 20.3125 31.203125 
L 20.3125 38.8125 
L 25.09375 38.8125 
Q 27.59375 38.8125 30.265625 39.328125 
Q 32.953125 39.84375 35.171875 41.1875 
Q 37.40625 42.53125 38.84375 44.828125 
Q 40.28125 47.125 40.28125 50.6875 
Q 40.28125 56.203125 37.03125 59.390625 
Q 33.796875 62.59375 27.390625 62.59375 
Q 21.578125 62.59375 17.984375 59.609375 
Q 14.40625 56.640625 13.8125 51.21875 
L 4.984375 51.90625 
Q 5.515625 56.453125 7.46875 59.8125 
Q 9.421875 63.1875 12.421875 65.40625 
Q 15.4375 67.625 19.28125 68.71875 
Q 23.140625 69.828125 27.484375 69.828125 
Q 33.25 69.828125 37.390625 68.375 
Q 41.546875 66.9375 44.1875 64.46875 
Q 46.828125 62.015625 48.0625 58.6875 
Q 49.3125 55.375 49.3125 51.609375 
Q 49.3125 48.578125 48.484375 45.9375 
Q 47.65625 43.3125 45.890625 41.203125 
Q 44.140625 39.109375 41.421875 37.59375 
Q 38.71875 36.078125 34.90625 35.296875 
L 34.90625 35.109375 
Q 39.0625 34.671875 42.140625 33.21875 
Q 45.21875 31.78125 47.21875 29.625 
Q 49.21875 27.484375 50.21875 24.75 
Q 51.21875 22.015625 51.21875 19 
" id="LiberationSans-33"/>
      </defs>
      <g style="fill:#262626;" transform="translate(31.354687 354.270596)scale(0.1 -0.1)">
       <use xlink:href="#LiberationSans-2212"/>
       <use x="58.398438" xlink:href="#LiberationSans-33"/>
       <use x="114.013672" xlink:href="#LiberationSans-30"/>
       <use x="169.628906" xlink:href="#LiberationSans-30"/>
       <use x="225.244141" xlink:href="#LiberationSans-30"/>
       <use x="280.859375" xlink:href="#LiberationSans-30"/>
      </g>
     </g>
    </g>
    <g id="ytick_2">
     <g id="line2d_15">
      <path clip-path="url(#pe0acb4d34b)" d="M 72 304.073795 
L 518.4 304.073795 
" style="fill:none;stroke:#ffffff;stroke-linecap:round;"/>
     </g>
     <g id="line2d_16"/>
     <g id="text_8">
      <!-- −20000 -->
      <g style="fill:#262626;" transform="translate(31.354687 307.697233)scale(0.1 -0.1)">
       <use xlink:href="#LiberationSans-2212"/>
       <use x="58.398438" xlink:href="#LiberationSans-32"/>
       <use x="114.013672" xlink:href="#LiberationSans-30"/>
       <use x="169.628906" xlink:href="#LiberationSans-30"/>
       <use x="225.244141" xlink:href="#LiberationSans-30"/>
       <use x="280.859375" xlink:href="#LiberationSans-30"/>
      </g>
     </g>
    </g>
    <g id="ytick_3">
     <g id="line2d_17">
      <path clip-path="url(#pe0acb4d34b)" d="M 72 257.500432 
L 518.4 257.500432 
" style="fill:none;stroke:#ffffff;stroke-linecap:round;"/>
     </g>
     <g id="line2d_18"/>
     <g id="text_9">
      <!-- −10000 -->
      <g style="fill:#262626;" transform="translate(31.354687 261.12387)scale(0.1 -0.1)">
       <use xlink:href="#LiberationSans-2212"/>
       <use x="58.398438" xlink:href="#LiberationSans-31"/>
       <use x="114.013672" xlink:href="#LiberationSans-30"/>
       <use x="169.628906" xlink:href="#LiberationSans-30"/>
       <use x="225.244141" xlink:href="#LiberationSans-30"/>
       <use x="280.859375" xlink:href="#LiberationSans-30"/>
      </g>
     </g>
    </g>
    <g id="ytick_4">
     <g id="line2d_19">
      <path clip-path="url(#pe0acb4d34b)" d="M 72 210.927069 
L 518.4 210.927069 
" style="fill:none;stroke:#ffffff;stroke-linecap:round;"/>
     </g>
     <g id="line2d_20"/>
     <g id="text_10">
      <!-- 0 -->
      <g style="fill:#262626;" transform="translate(59.439062 214.550507)scale(0.1 -0.1)">
       <use xlink:href="#LiberationSans-30"/>
      </g>
     </g>
    </g>
    <g id="ytick_5">
     <g id="line2d_21">
      <path clip-path="url(#pe0acb4d34b)" d="M 72 164.353706 
L 518.4 164.353706 
" style="fill:none;stroke:#ffffff;stroke-linecap:round;"/>
     </g>
     <g id="line2d_22"/>
     <g id="text_11">
      <!-- 10000 -->
      <g style="fill:#262626;" transform="translate(37.195312 167.977143)scale(0.1 -0.1)">
       <use xlink:href="#LiberationSans-31"/>
       <use x="55.615234" xlink:href="#LiberationSans-30"/>
       <use x="111.230469" xlink:href="#LiberationSans-30"/>
       <use x="166.845703" xlink:href="#LiberationSans-30"/>
       <use x="222.460938" xlink:href="#LiberationSans-30"/>
      </g>
     </g>
    </g>
    <g id="ytick_6">
     <g id="line2d_23">
      <path clip-path="url(#pe0acb4d34b)" d="M 72 117.780343 
L 518.4 117.780343 
" style="fill:none;stroke:#ffffff;stroke-linecap:round;"/>
     </g>
     <g id="line2d_24"/>
     <g id="text_12">
      <!-- 20000 -->
      <g style="fill:#262626;" transform="translate(37.195312 121.40378)scale(0.1 -0.1)">
       <use xlink:href="#LiberationSans-32"/>
       <use x="55.615234" xlink:href="#LiberationSans-30"/>
       <use x="111.230469" xlink:href="#LiberationSans-30"/>
       <use x="166.845703" xlink:href="#LiberationSans-30"/>
       <use x="222.460938" xlink:href="#LiberationSans-30"/>
      </g>
     </g>
    </g>
    <g id="ytick_7">
     <g id="line2d_25">
      <path clip-path="url(#pe0acb4d34b)" d="M 72 71.20698 
L 518.4 71.20698 
" style="fill:none;stroke:#ffffff;stroke-linecap:round;"/>
     </g>
     <g id="line2d_26"/>
     <g id="text_13">
      <!-- 30000 -->
      <g style="fill:#262626;" transform="translate(37.195312 74.830417)scale(0.1 -0.1)">
       <use xlink:href="#LiberationSans-33"/>
       <use x="55.615234" xlink:href="#LiberationSans-30"/>
       <use x="111.230469" xlink:href="#LiberationSans-30"/>
       <use x="166.845703" xlink:href="#LiberationSans-30"/>
       <use x="222.460938" xlink:href="#LiberationSans-30"/>
      </g>
     </g>
    </g>
   </g>
   <g id="line2d_27">
    <path clip-path="url(#pe0acb4d34b)" d="M 92.290909 209.567127 
L 92.440217 208.970988 
L 92.589524 209.180568 
L 92.738832 209.059477 
L 93.037447 207.904458 
L 93.186755 207.946374 
L 93.48537 210.200525 
L 94.082601 215.188532 
L 94.231908 215.216476 
L 94.530524 213.847219 
L 94.829139 212.361529 
L 94.978447 212.147291 
L 95.277062 212.985612 
L 95.42637 212.859864 
L 95.724985 210.810636 
L 95.874293 210.773377 
L 96.172908 213.064786 
L 96.322216 212.636311 
L 97.068754 201.44939 
L 97.218061 200.764761 
L 97.367369 201.239809 
L 97.815292 206.679578 
L 97.9646 206.549173 
L 98.113907 205.901803 
L 98.263215 206.130013 
L 98.56183 208.89647 
L 99.009753 213.306968 
L 99.159061 213.744757 
L 99.308368 212.976297 
L 99.756291 209.273715 
L 99.905599 209.515896 
L 100.652137 212.966982 
L 101.10006 215.640293 
L 101.995906 218.388122 
L 102.145214 218.267031 
L 102.443829 216.748739 
L 103.190367 210.270385 
L 103.787598 202.306339 
L 103.936905 202.7255 
L 104.235521 205.184573 
L 104.683444 210.233126 
L 104.832751 209.902455 
L 105.131367 207.415437 
L 105.280674 208.500597 
L 105.57929 212.81329 
L 105.728597 212.403445 
L 106.027213 209.292344 
L 106.17652 209.432064 
L 106.624443 212.543165 
L 107.370981 216.278348 
L 107.669597 220.409406 
L 107.818904 220.213798 
L 108.266827 214.992924 
L 108.565443 215.169902 
L 108.71475 214.611022 
L 109.013365 212.333585 
L 109.909211 203.247121 
L 110.357134 199.889182 
L 110.506442 201.048859 
L 110.954365 206.525886 
L 111.103672 207.233801 
L 111.25298 207.326948 
L 111.402288 206.637662 
L 111.700903 204.802672 
L 111.850211 206.451369 
L 112.148826 212.380158 
L 112.298134 212.836577 
L 112.596749 209.441379 
L 112.746057 209.674246 
L 113.343287 217.386794 
L 113.641902 219.00289 
L 113.79121 219.207813 
L 114.239133 217.722123 
L 114.388441 218.262374 
L 114.537748 218.299632 
L 114.836364 214.257064 
L 114.985671 212.226466 
L 115.134979 211.793334 
L 115.284287 212.11469 
L 115.433594 211.229796 
L 115.881517 203.312324 
L 116.030825 203.414786 
L 116.180132 203.787372 
L 116.478748 201.989641 
L 116.628055 202.646325 
L 117.075978 210.307643 
L 117.374594 208.225814 
L 117.523901 208.682233 
L 117.971824 213.227793 
L 118.270439 212.88315 
L 118.419747 213.409429 
L 118.569055 214.545819 
L 119.166285 223.012857 
L 119.614208 220.791307 
L 119.763516 220.99623 
L 119.912824 219.827239 
L 120.360747 210.708174 
L 120.659362 211.732788 
L 120.808669 210.535853 
L 121.256592 201.174607 
L 121.4059 200.564496 
L 121.704515 201.905809 
L 121.853823 202.609066 
L 122.003131 202.702213 
L 122.301746 201.565823 
L 122.451054 202.171277 
L 122.749669 206.241789 
L 122.898977 206.586432 
L 123.197592 204.984308 
L 123.346899 206.92176 
L 123.794822 217.391452 
L 124.093438 218.72345 
L 124.541361 223.730087 
L 124.690668 223.404073 
L 124.989284 217.805955 
L 125.287899 213.083416 
L 125.437207 213.004241 
L 125.586514 212.74343 
L 125.735822 210.568454 
L 126.034437 203.51259 
L 126.183745 202.664954 
L 126.48236 205.27772 
L 126.631668 204.779385 
L 126.780975 203.503275 
L 126.930283 203.540534 
L 127.378206 210.968985 
L 127.527514 210.456678 
L 127.975436 204.970336 
L 128.124744 205.27772 
L 128.423359 209.725476 
L 129.319205 227.376781 
L 129.468513 226.738726 
L 130.065744 208.89647 
L 130.215051 209.133995 
L 130.364359 209.641644 
L 130.513666 208.89647 
L 130.961589 204.653637 
L 131.409512 202.529892 
L 131.55882 203.070143 
L 132.006743 208.002262 
L 132.156051 208.700862 
L 132.454666 212.11469 
L 132.603974 213.805303 
L 132.753281 213.553807 
L 133.051896 209.949028 
L 133.201204 210.745433 
L 133.947742 225.015511 
L 134.09705 223.28764 
L 134.843588 204.541861 
L 135.291511 201.784718 
L 135.888742 197.988989 
L 136.038049 199.209211 
L 136.784588 214.392127 
L 137.232511 225.388098 
L 137.680433 232.993528 
L 137.829741 231.344831 
L 138.128356 214.788001 
L 138.426972 200.517922 
L 138.576279 198.715533 
L 138.874895 197.667633 
L 139.17351 195.236503 
L 139.322818 195.082811 
L 139.770741 199.712203 
L 139.920048 198.724848 
L 140.218663 195.674293 
L 140.367971 198.785393 
L 141.413125 243.798549 
L 141.562432 245.857091 
L 141.71174 244.166478 
L 142.010355 230.599658 
L 142.458278 205.724824 
L 142.906201 191.985682 
L 143.204816 181.7442 
L 143.354124 182.88059 
L 143.951355 198.23117 
L 144.697893 208.430737 
L 144.996508 218.434695 
L 145.295123 236.728712 
L 145.593739 258.464501 
L 145.743046 261.855042 
L 145.892354 257.370027 
L 146.340277 219.217128 
L 146.7882 179.606482 
L 146.937508 175.801439 
L 147.086815 176.6025 
L 147.38543 183.765484 
L 148.131969 209.939714 
L 148.281276 208.239786 
L 148.729199 196.163313 
L 148.878507 196.801368 
L 149.177122 216.022195 
L 149.774353 260.457841 
L 149.92366 267.006056 
L 150.072968 266.135134 
L 150.371583 239.816526 
L 150.968814 168.098204 
L 151.118122 161.205347 
L 151.267429 165.382977 
L 151.715352 195.334307 
L 152.312583 209.278372 
L 152.46189 206.800669 
L 152.760506 196.81534 
L 152.909813 195.604433 
L 153.059121 197.886527 
L 153.357736 210.452021 
L 154.253582 268.845703 
L 154.40289 261.389308 
L 154.701505 219.207813 
L 155.00012 175.32639 
L 155.149428 166.589227 
L 155.298736 167.450835 
L 155.895966 189.792077 
L 156.045274 192.642367 
L 156.642505 215.421399 
L 156.94112 205.128685 
L 157.239735 195.366908 
L 157.389043 192.921807 
L 157.53835 193.191932 
L 157.687658 198.310345 
L 157.986273 225.19249 
L 158.434196 265.422561 
L 158.583504 270.797127 
L 158.732812 269.176374 
L 158.882119 257.402628 
L 159.47935 169.523349 
L 159.628657 169.392944 
L 159.927273 181.422843 
L 160.225888 184.794755 
L 160.375196 189.903853 
L 160.972426 220.502552 
L 161.121734 221.92304 
L 161.271042 220.125308 
L 161.569657 204.462686 
L 161.868272 188.883896 
L 162.166887 183.50933 
L 162.316195 185.15337 
L 162.465503 195.781411 
L 163.062733 291.289407 
L 163.212041 289.817689 
L 163.510656 252.689404 
L 163.958579 180.663698 
L 164.107887 171.56792 
L 164.257194 170.864662 
L 164.55581 173.8407 
L 164.705117 174.497384 
L 164.854425 178.642414 
L 165.302348 214.38747 
L 165.600963 232.294928 
L 165.750271 234.549079 
L 165.899579 230.869783 
L 166.795424 176.588528 
L 166.944732 179.098833 
L 167.09404 188.832666 
L 167.392655 228.662206 
L 167.840578 294.312018 
L 167.989886 295.560184 
L 168.139193 280.344667 
L 168.736424 173.696323 
L 168.885731 166.30513 
L 169.035039 167.376317 
L 169.781577 192.246493 
L 170.2295 226.752698 
L 170.378808 230.040777 
L 170.528116 228.261675 
L 170.826731 210.237783 
L 171.125346 185.828684 
L 171.274654 180.510006 
L 171.423961 180.53795 
L 171.871884 189.428805 
L 172.1705 207.997604 
L 172.618423 264.989429 
L 172.917038 293.664649 
L 173.066346 290.306709 
L 173.364961 249.159143 
L 173.812884 170.012369 
L 173.962191 157.092919 
L 174.111499 155.784207 
L 174.410114 175.060922 
L 175.007345 216.245747 
L 175.156653 219.245072 
L 175.30596 214.974294 
L 175.604576 199.50728 
L 175.903191 194.54256 
L 176.351114 188.413505 
L 176.500421 189.414833 
L 176.799037 196.987661 
L 177.24696 210.405447 
L 177.545575 215.044154 
L 177.84419 228.643576 
L 178.590728 274.238899 
L 178.740036 278.868291 
L 178.889344 277.028643 
L 179.038651 264.723961 
L 179.78519 151.532059 
L 180.083805 166.421563 
L 180.531728 183.248519 
L 180.979651 203.107401 
L 181.427574 222.784647 
L 181.576881 219.855183 
L 181.875497 209.241113 
L 182.174112 207.815968 
L 182.622035 200.000958 
L 182.92065 203.084115 
L 183.069958 199.968357 
L 183.368573 189.512637 
L 183.517881 189.670986 
L 183.816496 198.827309 
L 184.115111 216.618334 
L 184.563034 243.747318 
L 184.86165 263.471137 
L 185.160265 289.379899 
L 185.309573 295.290059 
L 185.45888 295.257458 
L 185.608188 287.055888 
L 185.906803 226.268335 
L 186.205418 148.178777 
L 186.354726 138.812874 
L 186.653341 156.552668 
L 186.802649 154.605901 
L 187.101264 142.487512 
L 187.250572 151.052353 
L 188.146418 249.238318 
L 188.295725 252.833781 
L 188.594341 243.318843 
L 188.892956 226.97625 
L 189.340879 197.453395 
L 189.93811 181.264494 
L 190.236725 187.114108 
L 190.386033 185.549243 
L 190.684648 173.915217 
L 190.833955 178.68433 
L 191.580494 259.554317 
L 191.729801 260.071282 
L 192.327032 246.946908 
L 192.47634 246.965537 
L 192.625647 249.848429 
L 192.924262 277.862306 
L 193.07357 292.654007 
L 193.222878 287.633398 
L 193.521493 196.563844 
L 193.820108 115.037172 
L 193.969416 116.909421 
L 194.417339 165.988431 
L 194.715954 173.142099 
L 195.01457 196.480012 
L 195.462492 237.85113 
L 195.6118 237.054726 
L 196.209031 213.758729 
L 196.507646 201.668284 
L 196.806261 190.27644 
L 196.955569 190.071517 
L 197.254184 197.309018 
L 197.702107 219.30096 
L 198.000722 227.637592 
L 198.15003 223.911723 
L 199.045876 179.238553 
L 199.195184 183.304407 
L 199.493799 220.861167 
L 199.792414 246.676783 
L 200.09103 224.656896 
L 200.240337 215.519203 
L 200.389645 215.784671 
L 200.837568 231.284286 
L 200.986875 232.285613 
L 201.136183 236.547076 
L 201.285491 249.559674 
L 201.733414 308.218825 
L 201.882721 286.864938 
L 202.330644 127.122959 
L 202.479952 119.969291 
L 202.927875 171.661067 
L 203.22649 169.038986 
L 203.375798 177.943813 
L 203.823721 223.683513 
L 203.973028 227.376781 
L 204.122336 223.799947 
L 204.420951 210.084091 
L 204.570259 209.68356 
L 204.868874 217.00955 
L 205.018182 213.078758 
L 205.466105 185.283775 
L 205.615412 187.822024 
L 206.361951 228.783296 
L 206.660566 230.47391 
L 206.959181 231.288943 
L 207.108489 230.953615 
L 207.257797 227.488557 
L 207.407104 217.903759 
L 208.004335 153.846755 
L 208.30295 198.636358 
L 208.601565 236.64488 
L 208.750873 239.271618 
L 208.900181 239.662834 
L 209.049488 240.789909 
L 209.198796 237.934962 
L 209.497411 205.510587 
L 209.646719 189.20991 
L 209.796026 186.913843 
L 210.094642 223.022171 
L 210.990488 333.075028 
L 211.139795 323.830216 
L 211.438411 208.300331 
L 211.737026 107.571462 
L 211.886334 103.934082 
L 212.184949 124.221439 
L 212.334256 126.810918 
L 212.483564 134.034446 
L 212.782179 186.415508 
L 213.080795 237.469229 
L 213.230102 244.222366 
L 213.37941 241.143867 
L 214.573871 176.155396 
L 214.723179 177.217269 
L 215.171102 198.263772 
L 215.320409 200.760104 
L 215.469717 206.870529 
L 215.91764 240.845797 
L 216.066948 241.69809 
L 216.365563 235.853133 
L 216.514871 235.545749 
L 216.664178 234.320869 
L 216.813486 226.855159 
L 217.410716 167.446177 
L 217.560024 174.064252 
L 218.157255 216.175887 
L 218.45587 234.283611 
L 218.605178 227.842514 
L 218.903793 189.265798 
L 219.053101 185.111454 
L 219.650331 234.16252 
L 219.799639 240.943602 
L 220.098254 282.519643 
L 220.546177 338.58 
L 220.695485 337.485526 
L 220.844792 310.421745 
L 221.442023 61.38 
L 221.591331 63.769214 
L 222.785792 260.783854 
L 222.935099 262.665418 
L 223.233715 230.031463 
L 223.53233 203.591764 
L 223.980253 191.883221 
L 224.278868 180.789446 
L 224.428176 179.639084 
L 224.577483 180.901222 
L 224.726791 185.414181 
L 225.025406 209.115365 
L 225.324022 235.210421 
L 225.771945 252.861725 
L 225.921252 255.427917 
L 226.07056 253.346088 
L 226.369175 240.137882 
L 226.66779 209.315631 
L 227.115713 150.139515 
L 227.265021 152.375037 
L 227.563636 170.729599 
L 227.862252 211.178565 
L 228.160867 256.084602 
L 228.310175 247.044712 
L 228.758098 175.60583 
L 228.907405 182.712926 
L 229.355328 228.503856 
L 230.549789 304.455697 
L 230.699097 302.420441 
L 230.848405 283.120439 
L 231.14702 173.454141 
L 231.445635 70.885623 
L 231.594943 71.668056 
L 232.192173 178.740218 
L 232.490789 213.768044 
L 232.789404 251.962859 
L 232.938712 253.127193 
L 233.237327 221.317586 
L 233.535942 192.544563 
L 233.68525 188.334331 
L 233.983865 187.235199 
L 234.28248 183.746854 
L 234.431788 183.588505 
L 234.581096 186.648375 
L 234.879711 205.254433 
L 235.626249 261.631489 
L 235.775557 269.539646 
L 235.924865 269.674709 
L 236.22348 240.687448 
L 236.671403 191.356942 
L 236.970018 174.795454 
L 237.567249 156.864709 
L 237.716556 164.963817 
L 238.164479 250.514428 
L 238.313787 250.30019 
L 238.76171 187.458751 
L 238.911017 190.541908 
L 239.35894 222.318914 
L 239.657556 238.722052 
L 240.105479 276.795776 
L 240.254786 275.789792 
L 240.553402 260.504414 
L 240.702709 268.626809 
L 241.001325 301.842931 
L 241.150632 285.015975 
L 241.747863 79.348003 
L 241.89717 87.600803 
L 242.494401 188.301729 
L 243.240939 241.353447 
L 243.390247 235.829846 
L 243.83817 186.648375 
L 243.987477 185.987033 
L 244.286093 192.917149 
L 244.734016 185.386237 
L 244.883323 188.753491 
L 245.181939 203.447387 
L 245.629862 245.96421 
L 245.928477 262.525698 
L 246.077784 258.55299 
L 247.272246 186.620431 
L 247.421553 186.205928 
L 247.570861 187.211912 
L 247.720169 183.513987 
L 248.018784 165.424893 
L 248.168092 170.664397 
L 248.616014 241.781922 
L 248.765322 237.213075 
L 249.063937 200.909139 
L 249.213245 198.771421 
L 249.51186 211.662928 
L 249.661168 210.792006 
L 249.810476 211.597725 
L 250.109091 239.895701 
L 250.407706 257.812474 
L 250.557014 256.322126 
L 250.706321 256.480475 
L 251.004937 260.523043 
L 251.154244 261.785182 
L 251.303552 269.963464 
L 251.602167 294.088466 
L 251.751475 272.706635 
L 252.348706 81.569553 
L 253.692474 244.539065 
L 253.841782 244.404002 
L 253.99109 231.973572 
L 254.439013 177.375618 
L 254.58832 177.729576 
L 254.886936 186.760151 
L 255.036243 185.563215 
L 255.185551 182.997023 
L 255.334859 183.155373 
L 255.484166 188.501995 
L 255.782781 217.824584 
L 256.081397 253.266913 
L 256.230704 259.605548 
L 256.380012 256.97881 
L 256.827935 240.133225 
L 257.12655 228.033465 
L 257.723781 190.099461 
L 258.171704 217.405424 
L 258.321011 207.801996 
L 258.619627 170.170719 
L 258.768934 167.51138 
L 259.366165 213.609695 
L 259.66478 207.727479 
L 259.814088 208.817296 
L 260.112703 217.344878 
L 260.262011 217.14927 
L 260.411318 214.704169 
L 260.560626 216.408754 
L 260.859241 242.755305 
L 261.157857 260.252918 
L 261.456472 255.255596 
L 261.60578 252.708033 
L 261.904395 243.211724 
L 262.053703 246.634867 
L 262.501626 284.475724 
L 262.650933 252.060663 
L 263.098856 98.852928 
L 263.248164 89.636059 
L 263.397471 100.245472 
L 263.696087 156.412947 
L 264.14401 244.282912 
L 264.293317 246.662811 
L 264.591933 231.829194 
L 264.890548 202.49729 
L 265.189163 175.824725 
L 265.338471 176.397578 
L 265.637086 183.569876 
L 265.786394 182.58252 
L 265.935701 183.327694 
L 266.234317 196.996976 
L 266.532932 216.739425 
L 266.980855 254.878352 
L 267.130163 253.490466 
L 268.324624 196.135369 
L 268.623239 207.890486 
L 268.921854 222.984913 
L 269.071162 222.793962 
L 269.369777 192.400185 
L 269.668393 169.392944 
L 269.967008 178.633099 
L 270.265623 187.249171 
L 270.862854 227.781969 
L 271.310777 217.833899 
L 271.460084 222.309599 
L 272.057315 255.7027 
L 272.654545 232.984214 
L 272.803853 235.564378 
L 272.953161 241.726034 
L 273.251776 276.670028 
L 273.401084 293.217544 
L 273.550391 285.574855 
L 273.849007 180.374943 
L 274.147622 88.578844 
L 274.29693 85.640065 
L 274.595545 133.689804 
L 275.043468 240.77128 
L 275.192775 253.183081 
L 275.342083 247.687425 
L 276.088621 182.261164 
L 276.237929 177.533968 
L 276.387237 179.285126 
L 276.536544 182.647723 
L 276.685852 182.53129 
L 276.83516 180.575208 
L 276.984467 183.225233 
L 277.283082 210.363531 
L 277.581698 236.4353 
L 277.880313 249.867058 
L 278.029621 252.391334 
L 278.178928 250.095267 
L 278.477544 232.960927 
L 278.925467 203.396156 
L 279.074774 200.52258 
L 279.224082 201.412131 
L 279.522697 207.112711 
L 279.821312 224.35417 
L 279.97062 232.872438 
L 280.119928 231.437978 
L 280.567851 195.292391 
L 280.717158 194.547217 
L 280.866466 190.839977 
L 281.314389 153.972503 
L 281.463697 166.891954 
L 281.91162 225.141259 
L 282.50885 246.951565 
L 283.106081 233.044759 
L 283.255388 231.163195 
L 283.703311 218.001563 
L 283.852619 219.151925 
L 284.001927 222.598354 
L 284.151234 229.724078 
L 284.449849 269.004053 
L 284.748465 308.777705 
L 284.897772 294.791724 
L 285.196388 187.668331 
L 285.495003 81.127106 
L 285.644311 66.810454 
L 285.793618 83.260166 
L 286.390849 242.573669 
L 286.540157 250.784553 
L 286.689464 244.879051 
L 287.286695 195.217874 
L 287.58531 186.932472 
L 288.033233 175.913215 
L 288.182541 179.564566 
L 288.929079 231.363461 
L 289.078387 232.266984 
L 289.377002 235.922993 
L 289.526309 235.587665 
L 289.675617 232.066719 
L 290.272848 206.293019 
L 290.422155 206.460683 
L 290.720771 210.018888 
L 290.870078 210.386818 
L 291.019386 212.491934 
L 291.467309 227.837857 
L 291.915232 208.54717 
L 292.064539 209.278372 
L 292.213847 207.578444 
L 292.512462 175.377621 
L 292.811078 149.985823 
L 292.960385 156.925254 
L 293.408308 216.52053 
L 293.706924 258.715997 
L 293.856231 266.73593 
L 294.005539 263.461823 
L 294.602769 215.756727 
L 294.901385 199.465364 
L 295.050692 202.21785 
L 295.797231 235.028784 
L 296.543769 310.952681 
L 296.693076 308.270055 
L 296.842384 274.448479 
L 297.439615 63.648123 
L 297.588922 80.419191 
L 298.186153 214.420071 
L 298.484768 232.760662 
L 298.634076 230.194469 
L 299.380614 197.127382 
L 299.679229 192.484017 
L 299.828537 191.850619 
L 299.977845 192.563192 
L 300.425768 199.530567 
L 300.724383 209.185225 
L 301.172306 231.684817 
L 301.321613 233.482549 
L 301.470921 232.322872 
L 301.769536 224.060757 
L 302.068152 213.977624 
L 302.217459 213.553807 
L 302.366767 215.230448 
L 302.516075 214.708826 
L 302.81469 208.803324 
L 302.963998 214.257064 
L 303.262613 231.638244 
L 303.411921 224.717442 
L 303.710536 195.907159 
L 303.859843 196.796711 
L 304.158459 208.114038 
L 304.457074 174.408895 
L 304.606382 158.010414 
L 304.755689 154.78288 
L 305.054305 176.807423 
L 305.800843 258.636822 
L 305.950151 258.240949 
L 306.248766 242.070677 
L 306.995304 196.317005 
L 307.144612 198.361576 
L 307.443227 215.421399 
L 308.339073 279.506346 
L 308.786996 300.580793 
L 308.936303 282.66402 
L 309.234919 175.312418 
L 309.533534 81.131763 
L 309.682842 79.361976 
L 309.981457 135.198781 
L 310.42938 216.119999 
L 310.727995 237.590319 
L 310.877303 237.529774 
L 311.175918 223.147919 
L 311.623841 195.511286 
L 311.773149 195.557859 
L 311.922456 197.653661 
L 312.071764 197.178612 
L 312.370379 189.62907 
L 312.519687 189.847965 
L 312.818302 201.137348 
L 313.56484 234.129919 
L 313.714148 235.708756 
L 313.863456 235.522462 
L 314.012763 233.193794 
L 314.759302 212.049487 
L 314.908609 211.574439 
L 315.057917 213.386143 
L 315.356532 223.529821 
L 315.50584 222.393431 
L 315.953763 192.18129 
L 316.10307 193.233848 
L 316.252378 195.851271 
L 316.401686 191.361599 
L 316.849609 162.900617 
L 316.998916 166.994416 
L 317.446839 192.931121 
L 318.193377 249.261604 
L 318.342685 250.09061 
L 318.491993 242.918312 
L 319.089223 193.103443 
L 319.238531 193.261792 
L 319.387839 197.029577 
L 319.686454 217.195844 
L 319.985069 242.829823 
L 320.283685 250.705378 
L 320.731607 260.793169 
L 320.880915 264.351374 
L 321.328838 280.787114 
L 321.478146 261.906272 
L 322.075376 92.216224 
L 322.224684 95.588135 
L 323.12053 224.666211 
L 323.269837 228.047437 
L 323.419145 226.799271 
L 324.464299 199.949727 
L 324.762914 189.289084 
L 324.912222 189.880566 
L 325.360144 204.127358 
L 325.65876 220.34886 
L 325.957375 238.032766 
L 326.106683 241.404678 
L 326.25599 240.245001 
L 326.853221 221.308272 
L 327.151836 224.358827 
L 327.301144 223.343528 
L 327.599759 215.477287 
L 327.749067 215.784671 
L 327.898374 218.532499 
L 328.047682 217.764039 
L 328.495605 188.306387 
L 328.644913 188.427477 
L 328.943528 199.176609 
L 329.092836 197.136696 
L 329.540759 180.086188 
L 329.690066 181.040942 
L 329.988682 187.812709 
L 330.287297 207.229144 
L 330.73522 248.241648 
L 330.884527 249.131199 
L 331.183143 231.885082 
L 331.631066 206.297677 
L 331.929681 199.358246 
L 332.078989 200.788048 
L 332.377604 213.823932 
L 332.974834 246.33214 
L 333.124142 245.321498 
L 333.422757 240.175141 
L 333.572065 240.696763 
L 333.721373 243.160494 
L 333.87068 248.32548 
L 334.318603 275.673358 
L 334.467911 260.485785 
L 335.065141 99.351263 
L 335.214449 104.786374 
L 336.110295 214.350211 
L 336.40891 233.729388 
L 336.558218 234.851806 
L 336.707526 230.268987 
L 337.304756 200.648328 
L 337.752679 188.008317 
L 337.901987 189.549895 
L 338.34991 207.671591 
L 338.94714 237.539089 
L 339.096448 233.822534 
L 339.395063 223.008199 
L 339.544371 222.165222 
L 339.693679 222.57041 
L 339.842986 221.811264 
L 340.440217 213.358199 
L 340.589524 213.246422 
L 340.738832 213.907764 
L 340.88814 212.841234 
L 341.336063 192.092801 
L 341.48537 193.955735 
L 341.783986 208.89647 
L 341.933293 207.382836 
L 342.231908 192.227864 
L 342.381216 190.877236 
L 342.679831 194.048882 
L 342.978447 188.427477 
L 343.127754 189.899196 
L 343.42637 206.302334 
L 344.0236 243.933611 
L 344.172908 241.828495 
L 345.068754 200.010273 
L 345.218061 204.029554 
L 345.665984 226.762012 
L 346.263215 239.77461 
L 346.711138 223.581052 
L 346.860446 226.026153 
L 347.308368 247.263607 
L 347.606984 264.085906 
L 347.756291 257.719327 
L 348.054907 188.497337 
L 348.353522 119.196173 
L 348.50283 114.739102 
L 348.801445 145.500808 
L 349.398675 215.230448 
L 349.697291 231.209769 
L 349.846598 230.66486 
L 350.145214 219.366162 
L 350.443829 208.980302 
L 351.190367 199.702888 
L 351.488983 205.640992 
L 352.086213 220.735419 
L 352.384828 225.946979 
L 352.982059 219.836553 
L 353.280674 215.849873 
L 353.429982 216.567103 
L 353.728597 221.974271 
L 353.877905 221.089377 
L 354.325828 212.729458 
L 354.475135 211.458005 
L 354.923058 201.165292 
L 355.221674 205.259091 
L 355.370981 203.857232 
L 355.669597 192.11143 
L 355.818904 192.227864 
L 356.11752 203.778058 
L 356.266827 204.262421 
L 356.565443 196.67562 
L 356.71475 198.501296 
L 357.311981 221.131293 
L 357.759904 225.793287 
L 357.909211 223.161891 
L 358.357134 207.252431 
L 358.506442 206.945046 
L 358.805057 212.477962 
L 359.551595 228.387423 
L 359.999518 221.988243 
L 360.148826 222.076732 
L 360.447441 225.006197 
L 360.746057 232.234383 
L 361.343287 249.974177 
L 361.492595 246.052699 
L 361.641902 230.911699 
L 362.239133 128.408384 
L 362.388441 133.950614 
L 363.134979 204.276393 
L 363.433594 220.125308 
L 363.582902 222.002215 
L 363.73221 219.752721 
L 364.180132 210.070119 
L 364.478748 208.710177 
L 364.777363 206.162614 
L 364.926671 206.456026 
L 365.225286 209.506581 
L 365.523901 209.986287 
L 365.673209 212.16592 
L 365.971824 221.028831 
L 366.121132 222.453976 
L 366.569055 218.322919 
L 366.86767 220.931027 
L 367.166285 223.855835 
L 367.315593 224.032813 
L 367.763516 216.352866 
L 368.062131 222.207138 
L 368.211439 221.121978 
L 368.659362 198.715533 
L 368.808669 200.615726 
L 368.957977 204.034211 
L 369.107285 203.205205 
L 369.4059 194.919804 
L 369.555208 196.335634 
L 369.853823 202.627696 
L 370.152438 201.481991 
L 370.451054 209.050162 
L 370.600361 212.668913 
L 370.749669 213.306968 
L 371.048284 211.131992 
L 371.197592 210.76872 
L 371.346899 210.759405 
L 371.496207 211.192537 
L 371.794822 213.581751 
L 371.94413 213.074101 
L 372.242745 207.727479 
L 372.392053 207.317633 
L 372.690668 214.722798 
L 372.989284 221.145265 
L 373.138591 221.690173 
L 373.287899 220.637615 
L 373.586514 217.21913 
L 373.735822 217.42871 
L 374.183745 222.398088 
L 374.631668 220.274343 
L 374.930283 222.952311 
L 375.079591 225.686168 
L 375.378206 237.594977 
L 375.676821 246.61158 
L 375.826129 239.360107 
L 376.124744 195.31102 
L 376.423359 152.845428 
L 376.572667 149.217363 
L 376.871282 168.806119 
L 377.169898 186.401536 
L 377.916436 215.365511 
L 378.065744 215.556461 
L 378.215051 214.741427 
L 378.364359 214.923064 
L 378.812282 219.762036 
L 378.961589 218.728107 
L 379.409512 210.05149 
L 379.55882 209.716162 
L 379.857435 210.587083 
L 380.156051 209.380833 
L 380.305358 209.77205 
L 380.603974 215.267706 
L 380.753281 217.93636 
L 380.902589 218.527842 
L 381.201204 216.688194 
L 381.350512 218.523185 
L 381.798435 228.806583 
L 382.544973 215.784671 
L 382.992896 202.963024 
L 383.291511 204.588434 
L 383.440819 202.511262 
L 383.739434 194.840629 
L 383.888742 195.585803 
L 384.485972 209.678903 
L 385.083203 220.903083 
L 385.232511 219.939015 
L 385.531126 211.04816 
L 385.829741 201.300355 
L 385.979049 198.897169 
L 386.128356 198.30103 
L 386.277664 199.036889 
L 386.576279 204.635008 
L 387.024202 214.117344 
L 387.621433 222.435347 
L 387.920048 219.268358 
L 388.218663 217.451997 
L 388.517279 217.512543 
L 388.965202 218.630303 
L 389.263817 215.15593 
L 389.413125 213.805303 
L 389.562432 214.680882 
L 390.010355 223.436674 
L 390.607586 240.757308 
L 390.756893 238.433297 
L 390.906201 228.494542 
L 391.503432 156.189395 
L 391.652739 155.467508 
L 392.697893 207.909115 
L 392.996508 214.969637 
L 393.444431 217.545144 
L 393.593739 217.65692 
L 393.743046 217.596375 
L 393.892354 217.396109 
L 394.041662 216.865173 
L 394.190969 215.458657 
L 394.7882 206.609718 
L 394.937508 206.721494 
L 395.38543 209.017561 
L 395.833353 213.0415 
L 396.281276 220.842538 
L 396.579892 225.946979 
L 396.729199 225.849175 
L 397.32643 216.613677 
L 397.475738 215.677552 
L 397.774353 207.881171 
L 397.92366 204.052841 
L 398.072968 203.093429 
L 398.222276 204.164617 
L 398.371583 204.257763 
L 398.819506 197.942415 
L 398.968814 200.275741 
L 399.715352 218.686191 
L 399.86466 220.539811 
L 400.013967 220.469951 
L 400.163275 218.020192 
L 400.909813 196.135369 
L 401.357736 202.362228 
L 401.656352 210.228469 
L 401.954967 221.541138 
L 402.104275 223.935009 
L 402.253582 223.77666 
L 402.552197 222.603011 
L 402.701505 222.058103 
L 403.149428 218.332234 
L 403.298736 218.546471 
L 403.597351 219.529169 
L 403.746659 218.825911 
L 404.045274 214.643623 
L 404.343889 210.731461 
L 404.493197 211.686215 
L 405.239735 226.058755 
L 405.687658 241.288244 
L 405.836966 240.859769 
L 405.986273 233.771304 
L 406.284889 199.52591 
L 406.583504 165.117509 
L 406.732812 160.725641 
L 406.882119 164.926558 
L 407.330042 184.655035 
L 407.628657 196.200572 
L 408.07658 216.017538 
L 408.375196 218.909743 
L 408.524503 219.189184 
L 408.823119 221.061433 
L 408.972426 221.033489 
L 409.121734 219.114666 
L 409.718964 207.671591 
L 410.01758 206.353565 
L 410.465503 207.350235 
L 410.61481 207.215172 
L 410.764118 208.207185 
L 411.361349 219.585057 
L 411.659964 217.759381 
L 411.809272 217.703493 
L 411.958579 217.885129 
L 412.107887 217.591717 
L 412.406502 216.203831 
L 412.55581 214.941693 
L 413.15304 203.847918 
L 413.302348 204.751441 
L 413.451656 204.877189 
L 413.899579 198.496638 
L 414.048886 199.330302 
L 414.646117 209.609043 
L 415.243347 220.036819 
L 415.392655 220.986915 
L 415.541963 220.041476 
L 415.840578 210.410105 
L 416.288501 193.173303 
L 416.437809 192.316353 
L 416.587116 194.766112 
L 417.184347 210.871181 
L 417.482962 218.611674 
L 417.781577 225.076057 
L 418.2295 220.395434 
L 418.528116 221.848523 
L 418.826731 217.107354 
L 418.976039 215.062784 
L 419.274654 214.536505 
L 419.722577 209.413435 
L 419.871884 210.778034 
L 420.319807 218.020192 
L 420.469115 218.960974 
L 420.618423 221.047461 
L 420.917038 231.507838 
L 421.215653 241.125238 
L 421.364961 240.533756 
L 421.514269 234.912351 
L 421.812884 210.447363 
L 422.260807 172.625135 
L 422.410114 170.683026 
L 422.70873 182.847988 
L 423.007345 194.565847 
L 423.30596 202.576465 
L 423.753883 217.531172 
L 424.201806 220.353518 
L 424.351114 222.426032 
L 424.500421 222.77999 
L 424.799037 215.081413 
L 425.097652 209.129337 
L 425.24696 208.63566 
L 425.396267 207.243116 
L 425.694883 202.143333 
L 425.84419 202.35757 
L 426.292113 211.858536 
L 426.441421 210.792006 
L 426.590728 208.733464 
L 426.740036 208.644974 
L 427.337267 219.398764 
L 427.78519 216.585733 
L 427.934497 216.650935 
L 428.083805 215.952335 
L 428.38242 209.292344 
L 428.681036 204.676924 
L 429.128958 208.328275 
L 429.576881 200.089447 
L 429.726189 200.834621 
L 430.622035 214.033512 
L 430.92065 215.831244 
L 431.069958 215.752069 
L 431.219266 215.444685 
L 431.368573 214.103372 
L 431.667188 206.656292 
L 431.965804 199.474679 
L 432.413727 195.287734 
L 432.563034 194.75214 
L 432.712342 196.610417 
L 433.45888 220.283658 
L 433.757495 221.34553 
L 433.906803 221.401418 
L 434.056111 221.308272 
L 434.354726 220.493238 
L 434.653341 218.327576 
L 435.101264 212.934381 
L 435.250572 212.608367 
L 436.146418 217.298305 
L 436.594341 223.581052 
L 437.042264 229.96626 
L 437.340879 231.600985 
L 437.490187 231.38209 
L 437.639494 229.942973 
L 437.788802 226.040125 
L 438.087417 206.99162 
L 438.53534 175.251873 
L 438.684648 174.665048 
L 438.983263 186.485368 
L 439.281878 199.376875 
L 439.580494 204.295022 
L 439.879109 207.932402 
L 440.327032 217.321592 
L 440.47634 217.954989 
L 440.625647 217.791983 
L 440.924262 217.801297 
L 441.07357 216.469299 
L 441.670801 199.921783 
L 441.820108 201.318984 
L 442.118724 206.111383 
L 442.566647 207.857884 
L 443.462492 219.324246 
L 443.6118 218.551129 
L 443.910415 215.039497 
L 444.059723 215.52386 
L 444.358338 218.574415 
L 444.507646 217.125984 
L 444.955569 206.171929 
L 445.104877 205.040196 
L 445.254184 204.891161 
L 445.5528 205.403468 
L 445.702107 205.892488 
L 445.851415 205.934404 
L 446.000722 205.748111 
L 446.15003 205.976321 
L 446.299338 207.392151 
L 446.747261 213.525863 
L 447.195184 215.756727 
L 447.344491 215.379483 
L 447.941722 205.827286 
L 448.09103 206.120698 
L 448.240337 204.681581 
L 448.68826 196.289061 
L 448.986875 202.432088 
L 449.285491 207.862542 
L 450.479952 221.108006 
L 450.629259 221.825236 
L 450.778567 221.480593 
L 451.375798 217.414738 
L 451.674413 214.29898 
L 451.823721 214.657595 
L 451.973028 215.649608 
L 452.122336 215.686867 
L 452.570259 210.792006 
L 452.719567 212.706171 
L 453.167489 223.520506 
L 453.316797 223.874464 
L 453.76472 221.774005 
L 453.914028 222.016187 
L 454.212643 222.961626 
L 454.361951 222.309599 
L 454.511258 218.783995 
L 454.809874 200.988313 
L 455.108489 182.941135 
L 455.257797 180.3796 
L 455.407104 182.438143 
L 456.153642 204.905133 
L 456.452258 207.941716 
L 457.049488 219.30096 
L 457.198796 219.198498 
L 458.393257 208.943044 
L 458.691872 206.497942 
L 458.84118 207.308319 
L 459.289103 214.797315 
L 459.438411 214.969637 
L 459.737026 213.106702 
L 459.886334 213.386143 
L 460.334256 216.553131 
L 460.483564 215.807957 
L 460.782179 213.190534 
L 460.931487 212.915752 
L 461.080795 213.171905 
L 461.230102 212.468647 
L 461.827333 203.126031 
L 462.125948 204.094757 
L 462.424564 201.123376 
L 462.573871 201.300355 
L 463.171102 209.511239 
L 463.320409 209.990944 
L 463.768332 214.480617 
L 464.216255 212.53385 
L 464.365563 212.580423 
L 464.514871 211.630327 
L 465.261409 199.982329 
L 465.410716 198.836624 
L 465.560024 199.591112 
L 465.858639 209.799994 
L 466.157255 216.823257 
L 466.45587 215.654265 
L 466.605178 216.804627 
L 466.903793 219.901756 
L 467.351716 217.433368 
L 467.501023 217.913073 
L 467.650331 217.857185 
L 467.948946 213.823932 
L 468.098254 211.979627 
L 468.247562 211.788676 
L 468.695485 214.634309 
L 468.844792 214.522533 
L 468.9941 214.15926 
L 469.143408 214.122002 
L 469.591331 215.430713 
L 470.039253 215.952335 
L 470.188561 216.194516 
L 470.337869 216.22246 
L 470.487176 216.404097 
L 470.636484 217.205158 
L 471.084407 221.047461 
L 471.233715 219.794637 
L 471.53233 213.18122 
L 471.980253 195.059524 
L 472.278868 184.827356 
L 472.428176 185.36295 
L 472.726791 196.02825 
L 473.025406 206.823956 
L 473.174714 208.54717 
L 473.473329 207.191885 
L 473.622637 208.072122 
L 474.07056 216.944348 
L 474.219868 216.525187 
L 474.518483 214.145288 
L 474.66779 214.052142 
L 474.817098 213.693527 
L 475.265021 210.40079 
L 475.563636 211.579096 
L 475.712944 211.038845 
L 475.862252 210.05149 
L 476.011559 210.037518 
L 476.310175 212.720143 
L 476.459482 212.557137 
L 476.758098 210.61037 
L 477.20602 214.606365 
L 477.504636 213.805303 
L 477.952559 219.054121 
L 478.101866 217.284333 
L 478.400482 210.517223 
L 478.549789 209.888483 
L 478.699097 210.666258 
L 478.848405 210.684888 
L 479.296328 205.249776 
L 479.445635 205.464014 
L 480.341481 212.030858 
L 480.490789 212.482619 
L 480.789404 214.024198 
L 480.938712 213.595723 
L 481.68525 204.015582 
L 482.133173 199.586455 
L 482.28248 201.533222 
L 482.730403 210.545167 
L 483.029019 212.83192 
L 483.476942 217.93636 
L 483.626249 217.754724 
L 483.924865 216.855858 
L 484.074172 216.972292 
L 484.522095 218.257716 
L 484.82071 214.541162 
L 484.970018 212.645626 
L 485.119326 212.873836 
L 485.417941 215.817272 
L 485.567249 214.29898 
L 485.865864 208.542513 
L 486.015172 209.567127 
L 486.313787 215.463315 
L 486.463095 215.24442 
L 486.76171 212.738773 
L 487.209633 217.801297 
L 487.508248 217.223788 
L 487.956171 221.182524 
L 488.105479 219.00289 
L 488.553402 200.238482 
L 488.852017 190.164664 
L 489.001325 188.949099 
L 489.150632 190.201922 
L 490.046478 207.038193 
L 490.195786 207.839255 
L 490.494401 211.751418 
L 490.793016 215.933706 
L 490.942324 215.756727 
L 491.240939 214.066114 
L 491.390247 214.052142 
L 491.539554 213.730785 
L 491.987477 207.890486 
L 492.136785 208.05815 
L 492.584708 212.319613 
L 492.883323 211.360201 
L 493.032631 211.583753 
L 493.480554 214.606365 
L 493.779169 214.140631 
L 493.928477 214.289666 
L 494.077784 214.718141 
L 494.227092 214.66691 
L 494.525707 213.423401 
L 494.675015 213.977624 
L 494.97363 216.371495 
L 495.122938 215.193189 
L 495.570861 208.230471 
L 495.869476 207.089424 
L 496.168092 204.92842 
L 496.317399 205.198545 
L 496.616014 208.957016 
L 496.91463 211.793334 
L 497.063937 211.895795 
L 497.213245 211.350887 
L 497.362553 211.267055 
L 497.51186 211.332257 
L 497.661168 212.296326 
L 497.959783 209.161939 
L 498.109091 210.875838 
L 498.109091 210.875838 
" style="fill:none;stroke:#4c72b0;stroke-linecap:round;stroke-width:1.75;"/>
   </g>
   <g id="patch_3">
    <path d="M 72 352.44 
L 72 47.52 
" style="fill:none;"/>
   </g>
   <g id="patch_4">
    <path d="M 518.4 352.44 
L 518.4 47.52 
" style="fill:none;"/>
   </g>
   <g id="patch_5">
    <path d="M 72 352.44 
L 518.4 352.44 
" style="fill:none;"/>
   </g>
   <g id="patch_6">
    <path d="M 72 47.52 
L 518.4 47.52 
" style="fill:none;"/>
   </g>
  </g>
 </g>
 <defs>
  <clipPath id="pe0acb4d34b">
   <rect height="304.92" width="446.4" x="72" y="47.52"/>
  </clipPath>
 </defs>
</svg>
