<?xml version="1.0" encoding="utf-8" standalone="no"?>
<!DOCTYPE svg PUBLIC "-//W3C//DTD SVG 1.1//EN"
  "http://www.w3.org/Graphics/SVG/1.1/DTD/svg11.dtd">
<!-- Created with matplotlib (http://matplotlib.org/) -->
<svg height="360pt" version="1.1" viewBox="0 0 1152 360" width="1152pt" xmlns="http://www.w3.org/2000/svg" xmlns:xlink="http://www.w3.org/1999/xlink">
 <defs>
  <style type="text/css">
*{stroke-linecap:butt;stroke-linejoin:round;}
  </style>
 </defs>
 <g id="figure_1">
  <g id="patch_1">
   <path d="M 0 360 
L 1152 360 
L 1152 0 
L 0 0 
z
" style="fill:#ffffff;"/>
  </g>
  <g id="axes_1">
   <g id="patch_2">
    <path d="M 144 320.4 
L 1036.8 320.4 
L 1036.8 43.2 
L 144 43.2 
z
" style="fill:#eaeaf2;"/>
   </g>
   <g id="matplotlib.axis_1">
    <g id="xtick_1">
     <g id="line2d_1">
      <path clip-path="url(#pda4c4f437a)" d="M 184.581818 320.4 
L 184.581818 43.2 
" style="fill:none;stroke:#ffffff;stroke-linecap:round;stroke-width:0.8;"/>
     </g>
     <g id="line2d_2"/>
     <g id="text_1">
      <!-- 0.000 -->
      <defs>
       <path d="M 51.703125 34.421875 
Q 51.703125 24.515625 49.828125 17.75 
Q 47.953125 10.984375 44.703125 6.8125 
Q 41.453125 2.640625 37.0625 0.828125 
Q 32.671875 -0.984375 27.6875 -0.984375 
Q 22.65625 -0.984375 18.3125 0.828125 
Q 13.96875 2.640625 10.765625 6.78125 
Q 7.5625 10.9375 5.734375 17.703125 
Q 3.90625 24.46875 3.90625 34.421875 
Q 3.90625 44.828125 5.734375 51.640625 
Q 7.5625 58.453125 10.78125 62.5 
Q 14.015625 66.546875 18.40625 68.1875 
Q 22.796875 69.828125 27.984375 69.828125 
Q 32.90625 69.828125 37.21875 68.1875 
Q 41.546875 66.546875 44.765625 62.5 
Q 48 58.453125 49.84375 51.640625 
Q 51.703125 44.828125 51.703125 34.421875 
M 42.78125 34.421875 
Q 42.78125 42.625 41.796875 48.0625 
Q 40.828125 53.515625 38.921875 56.765625 
Q 37.015625 60.015625 34.25 61.359375 
Q 31.5 62.703125 27.984375 62.703125 
Q 24.265625 62.703125 21.4375 61.328125 
Q 18.609375 59.96875 16.671875 56.71875 
Q 14.75 53.46875 13.765625 48.015625 
Q 12.796875 42.578125 12.796875 34.421875 
Q 12.796875 26.515625 13.796875 21.09375 
Q 14.796875 15.671875 16.71875 12.375 
Q 18.65625 9.078125 21.4375 7.640625 
Q 24.21875 6.203125 27.78125 6.203125 
Q 31.25 6.203125 34.03125 7.640625 
Q 36.8125 9.078125 38.734375 12.375 
Q 40.671875 15.671875 41.71875 21.09375 
Q 42.78125 26.515625 42.78125 34.421875 
" id="LiberationSans-30"/>
       <path d="M 9.125 0 
L 9.125 10.6875 
L 18.65625 10.6875 
L 18.65625 0 
z
" id="LiberationSans-2e"/>
      </defs>
      <g style="fill:#262626;" transform="translate(174.573068 331.7975)scale(0.08 -0.08)">
       <use xlink:href="#LiberationSans-30"/>
       <use x="55.615234" xlink:href="#LiberationSans-2e"/>
       <use x="83.398438" xlink:href="#LiberationSans-30"/>
       <use x="139.013672" xlink:href="#LiberationSans-30"/>
       <use x="194.628906" xlink:href="#LiberationSans-30"/>
      </g>
     </g>
    </g>
    <g id="xtick_2">
     <g id="line2d_3">
      <path clip-path="url(#pda4c4f437a)" d="M 311.238448 320.4 
L 311.238448 43.2 
" style="fill:none;stroke:#ffffff;stroke-linecap:round;stroke-width:0.8;"/>
     </g>
     <g id="line2d_4"/>
     <g id="text_2">
      <!-- 0.005 -->
      <defs>
       <path d="M 51.421875 22.40625 
Q 51.421875 17.234375 49.859375 12.9375 
Q 48.296875 8.640625 45.21875 5.53125 
Q 42.140625 2.4375 37.578125 0.71875 
Q 33.015625 -0.984375 27 -0.984375 
Q 21.578125 -0.984375 17.546875 0.28125 
Q 13.53125 1.5625 10.734375 3.78125 
Q 7.953125 6 6.3125 8.984375 
Q 4.6875 11.96875 4 15.375 
L 12.890625 16.40625 
Q 13.421875 14.453125 14.390625 12.625 
Q 15.375 10.796875 17.0625 9.34375 
Q 18.75 7.90625 21.21875 7.046875 
Q 23.6875 6.203125 27.203125 6.203125 
Q 30.609375 6.203125 33.390625 7.25 
Q 36.1875 8.296875 38.15625 10.34375 
Q 40.140625 12.40625 41.203125 15.375 
Q 42.28125 18.359375 42.28125 22.21875 
Q 42.28125 25.390625 41.25 28.046875 
Q 40.234375 30.71875 38.328125 32.640625 
Q 36.421875 34.578125 33.65625 35.640625 
Q 30.90625 36.71875 27.390625 36.71875 
Q 25.203125 36.71875 23.34375 36.328125 
Q 21.484375 35.9375 19.890625 35.25 
Q 18.3125 34.578125 17.015625 33.671875 
Q 15.71875 32.765625 14.59375 31.78125 
L 6 31.78125 
L 8.296875 68.796875 
L 47.40625 68.796875 
L 47.40625 61.328125 
L 16.3125 61.328125 
L 14.984375 39.5 
Q 17.328125 41.3125 20.84375 42.59375 
Q 24.359375 43.890625 29.203125 43.890625 
Q 34.328125 43.890625 38.421875 42.328125 
Q 42.53125 40.765625 45.40625 37.90625 
Q 48.296875 35.0625 49.859375 31.109375 
Q 51.421875 27.15625 51.421875 22.40625 
" id="LiberationSans-35"/>
      </defs>
      <g style="fill:#262626;" transform="translate(301.229698 331.7975)scale(0.08 -0.08)">
       <use xlink:href="#LiberationSans-30"/>
       <use x="55.615234" xlink:href="#LiberationSans-2e"/>
       <use x="83.398438" xlink:href="#LiberationSans-30"/>
       <use x="139.013672" xlink:href="#LiberationSans-30"/>
       <use x="194.628906" xlink:href="#LiberationSans-35"/>
      </g>
     </g>
    </g>
    <g id="xtick_3">
     <g id="line2d_5">
      <path clip-path="url(#pda4c4f437a)" d="M 437.895078 320.4 
L 437.895078 43.2 
" style="fill:none;stroke:#ffffff;stroke-linecap:round;stroke-width:0.8;"/>
     </g>
     <g id="line2d_6"/>
     <g id="text_3">
      <!-- 0.010 -->
      <defs>
       <path d="M 7.625 0 
L 7.625 7.46875 
L 25.140625 7.46875 
L 25.140625 60.40625 
L 9.625 49.3125 
L 9.625 57.625 
L 25.875 68.796875 
L 33.984375 68.796875 
L 33.984375 7.46875 
L 50.734375 7.46875 
L 50.734375 0 
z
" id="LiberationSans-31"/>
      </defs>
      <g style="fill:#262626;" transform="translate(427.886328 331.7975)scale(0.08 -0.08)">
       <use xlink:href="#LiberationSans-30"/>
       <use x="55.615234" xlink:href="#LiberationSans-2e"/>
       <use x="83.398438" xlink:href="#LiberationSans-30"/>
       <use x="139.013672" xlink:href="#LiberationSans-31"/>
       <use x="194.628906" xlink:href="#LiberationSans-30"/>
      </g>
     </g>
    </g>
    <g id="xtick_4">
     <g id="line2d_7">
      <path clip-path="url(#pda4c4f437a)" d="M 564.551708 320.4 
L 564.551708 43.2 
" style="fill:none;stroke:#ffffff;stroke-linecap:round;stroke-width:0.8;"/>
     </g>
     <g id="line2d_8"/>
     <g id="text_4">
      <!-- 0.015 -->
      <g style="fill:#262626;" transform="translate(554.542958 331.7975)scale(0.08 -0.08)">
       <use xlink:href="#LiberationSans-30"/>
       <use x="55.615234" xlink:href="#LiberationSans-2e"/>
       <use x="83.398438" xlink:href="#LiberationSans-30"/>
       <use x="139.013672" xlink:href="#LiberationSans-31"/>
       <use x="194.628906" xlink:href="#LiberationSans-35"/>
      </g>
     </g>
    </g>
    <g id="xtick_5">
     <g id="line2d_9">
      <path clip-path="url(#pda4c4f437a)" d="M 691.208338 320.4 
L 691.208338 43.2 
" style="fill:none;stroke:#ffffff;stroke-linecap:round;stroke-width:0.8;"/>
     </g>
     <g id="line2d_10"/>
     <g id="text_5">
      <!-- 0.020 -->
      <defs>
       <path d="M 5.03125 0 
L 5.03125 6.203125 
Q 7.515625 11.921875 11.109375 16.28125 
Q 14.703125 20.65625 18.65625 24.1875 
Q 22.609375 27.734375 26.484375 30.765625 
Q 30.375 33.796875 33.5 36.8125 
Q 36.625 39.84375 38.546875 43.15625 
Q 40.484375 46.484375 40.484375 50.6875 
Q 40.484375 53.609375 39.59375 55.828125 
Q 38.71875 58.0625 37.0625 59.5625 
Q 35.40625 61.078125 33.078125 61.828125 
Q 30.765625 62.59375 27.9375 62.59375 
Q 25.296875 62.59375 22.96875 61.859375 
Q 20.65625 61.140625 18.84375 59.671875 
Q 17.046875 58.203125 15.890625 56.03125 
Q 14.75 53.859375 14.40625 50.984375 
L 5.421875 51.8125 
Q 5.859375 55.515625 7.46875 58.78125 
Q 9.078125 62.0625 11.90625 64.53125 
Q 14.75 67 18.71875 68.40625 
Q 22.703125 69.828125 27.9375 69.828125 
Q 33.0625 69.828125 37.0625 68.609375 
Q 41.0625 67.390625 43.8125 64.984375 
Q 46.578125 62.59375 48.046875 59.078125 
Q 49.515625 55.5625 49.515625 50.984375 
Q 49.515625 47.515625 48.265625 44.390625 
Q 47.015625 41.265625 44.9375 38.421875 
Q 42.875 35.59375 40.140625 32.953125 
Q 37.40625 30.328125 34.421875 27.8125 
Q 31.453125 25.296875 28.421875 22.828125 
Q 25.390625 20.359375 22.71875 17.859375 
Q 20.0625 15.375 17.96875 12.8125 
Q 15.875 10.25 14.703125 7.46875 
L 50.59375 7.46875 
L 50.59375 0 
z
" id="LiberationSans-32"/>
      </defs>
      <g style="fill:#262626;" transform="translate(681.199588 331.7975)scale(0.08 -0.08)">
       <use xlink:href="#LiberationSans-30"/>
       <use x="55.615234" xlink:href="#LiberationSans-2e"/>
       <use x="83.398438" xlink:href="#LiberationSans-30"/>
       <use x="139.013672" xlink:href="#LiberationSans-32"/>
       <use x="194.628906" xlink:href="#LiberationSans-30"/>
      </g>
     </g>
    </g>
    <g id="xtick_6">
     <g id="line2d_11">
      <path clip-path="url(#pda4c4f437a)" d="M 817.864968 320.4 
L 817.864968 43.2 
" style="fill:none;stroke:#ffffff;stroke-linecap:round;stroke-width:0.8;"/>
     </g>
     <g id="line2d_12"/>
     <g id="text_6">
      <!-- 0.025 -->
      <g style="fill:#262626;" transform="translate(807.856218 331.7975)scale(0.08 -0.08)">
       <use xlink:href="#LiberationSans-30"/>
       <use x="55.615234" xlink:href="#LiberationSans-2e"/>
       <use x="83.398438" xlink:href="#LiberationSans-30"/>
       <use x="139.013672" xlink:href="#LiberationSans-32"/>
       <use x="194.628906" xlink:href="#LiberationSans-35"/>
      </g>
     </g>
    </g>
    <g id="xtick_7">
     <g id="line2d_13">
      <path clip-path="url(#pda4c4f437a)" d="M 944.521598 320.4 
L 944.521598 43.2 
" style="fill:none;stroke:#ffffff;stroke-linecap:round;stroke-width:0.8;"/>
     </g>
     <g id="line2d_14"/>
     <g id="text_7">
      <!-- 0.030 -->
      <defs>
       <path d="M 51.21875 19 
Q 51.21875 14.265625 49.671875 10.546875 
Q 48.140625 6.84375 45.1875 4.265625 
Q 42.234375 1.703125 37.859375 0.359375 
Q 33.5 -0.984375 27.875 -0.984375 
Q 21.484375 -0.984375 17.109375 0.609375 
Q 12.75 2.203125 9.90625 4.8125 
Q 7.078125 7.421875 5.65625 10.765625 
Q 4.25 14.109375 3.8125 17.671875 
L 12.890625 18.5 
Q 13.28125 15.765625 14.328125 13.515625 
Q 15.375 11.28125 17.1875 9.671875 
Q 19 8.0625 21.625 7.171875 
Q 24.265625 6.296875 27.875 6.296875 
Q 34.515625 6.296875 38.296875 9.5625 
Q 42.09375 12.84375 42.09375 19.28125 
Q 42.09375 23.09375 40.40625 25.40625 
Q 38.71875 27.734375 36.203125 29.03125 
Q 33.6875 30.328125 30.734375 30.765625 
Q 27.78125 31.203125 25.296875 31.203125 
L 20.3125 31.203125 
L 20.3125 38.8125 
L 25.09375 38.8125 
Q 27.59375 38.8125 30.265625 39.328125 
Q 32.953125 39.84375 35.171875 41.1875 
Q 37.40625 42.53125 38.84375 44.828125 
Q 40.28125 47.125 40.28125 50.6875 
Q 40.28125 56.203125 37.03125 59.390625 
Q 33.796875 62.59375 27.390625 62.59375 
Q 21.578125 62.59375 17.984375 59.609375 
Q 14.40625 56.640625 13.8125 51.21875 
L 4.984375 51.90625 
Q 5.515625 56.453125 7.46875 59.8125 
Q 9.421875 63.1875 12.421875 65.40625 
Q 15.4375 67.625 19.28125 68.71875 
Q 23.140625 69.828125 27.484375 69.828125 
Q 33.25 69.828125 37.390625 68.375 
Q 41.546875 66.9375 44.1875 64.46875 
Q 46.828125 62.015625 48.0625 58.6875 
Q 49.3125 55.375 49.3125 51.609375 
Q 49.3125 48.578125 48.484375 45.9375 
Q 47.65625 43.3125 45.890625 41.203125 
Q 44.140625 39.109375 41.421875 37.59375 
Q 38.71875 36.078125 34.90625 35.296875 
L 34.90625 35.109375 
Q 39.0625 34.671875 42.140625 33.21875 
Q 45.21875 31.78125 47.21875 29.625 
Q 49.21875 27.484375 50.21875 24.75 
Q 51.21875 22.015625 51.21875 19 
" id="LiberationSans-33"/>
      </defs>
      <g style="fill:#262626;" transform="translate(934.512848 331.7975)scale(0.08 -0.08)">
       <use xlink:href="#LiberationSans-30"/>
       <use x="55.615234" xlink:href="#LiberationSans-2e"/>
       <use x="83.398438" xlink:href="#LiberationSans-30"/>
       <use x="139.013672" xlink:href="#LiberationSans-33"/>
       <use x="194.628906" xlink:href="#LiberationSans-30"/>
      </g>
     </g>
    </g>
   </g>
   <g id="matplotlib.axis_2">
    <g id="ytick_1">
     <g id="line2d_15">
      <path clip-path="url(#pda4c4f437a)" d="M 144 299.590288 
L 1036.8 299.590288 
" style="fill:none;stroke:#ffffff;stroke-linecap:round;stroke-width:0.8;"/>
     </g>
     <g id="line2d_16"/>
     <g id="text_8">
      <!-- −5 -->
      <defs>
       <path d="M 4.9375 29.6875 
L 4.9375 36.8125 
L 53.515625 36.8125 
L 53.515625 29.6875 
z
" id="LiberationSans-2212"/>
      </defs>
      <g style="fill:#262626;" transform="translate(129.27875 302.489038)scale(0.08 -0.08)">
       <use xlink:href="#LiberationSans-2212"/>
       <use x="58.398438" xlink:href="#LiberationSans-35"/>
      </g>
     </g>
    </g>
    <g id="ytick_2">
     <g id="line2d_17">
      <path clip-path="url(#pda4c4f437a)" d="M 144 243.31854 
L 1036.8 243.31854 
" style="fill:none;stroke:#ffffff;stroke-linecap:round;stroke-width:0.8;"/>
     </g>
     <g id="line2d_18"/>
     <g id="text_9">
      <!-- 0 -->
      <g style="fill:#262626;" transform="translate(133.95125 246.21729)scale(0.08 -0.08)">
       <use xlink:href="#LiberationSans-30"/>
      </g>
     </g>
    </g>
    <g id="ytick_3">
     <g id="line2d_19">
      <path clip-path="url(#pda4c4f437a)" d="M 144 187.046793 
L 1036.8 187.046793 
" style="fill:none;stroke:#ffffff;stroke-linecap:round;stroke-width:0.8;"/>
     </g>
     <g id="line2d_20"/>
     <g id="text_10">
      <!-- 5 -->
      <g style="fill:#262626;" transform="translate(133.95125 189.945543)scale(0.08 -0.08)">
       <use xlink:href="#LiberationSans-35"/>
      </g>
     </g>
    </g>
    <g id="ytick_4">
     <g id="line2d_21">
      <path clip-path="url(#pda4c4f437a)" d="M 144 130.775045 
L 1036.8 130.775045 
" style="fill:none;stroke:#ffffff;stroke-linecap:round;stroke-width:0.8;"/>
     </g>
     <g id="line2d_22"/>
     <g id="text_11">
      <!-- 10 -->
      <g style="fill:#262626;" transform="translate(129.5025 133.673795)scale(0.08 -0.08)">
       <use xlink:href="#LiberationSans-31"/>
       <use x="55.615234" xlink:href="#LiberationSans-30"/>
      </g>
     </g>
    </g>
    <g id="ytick_5">
     <g id="line2d_23">
      <path clip-path="url(#pda4c4f437a)" d="M 144 74.503297 
L 1036.8 74.503297 
" style="fill:none;stroke:#ffffff;stroke-linecap:round;stroke-width:0.8;"/>
     </g>
     <g id="line2d_24"/>
     <g id="text_12">
      <!-- 15 -->
      <g style="fill:#262626;" transform="translate(129.5025 77.402047)scale(0.08 -0.08)">
       <use xlink:href="#LiberationSans-31"/>
       <use x="55.615234" xlink:href="#LiberationSans-35"/>
      </g>
     </g>
    </g>
   </g>
   <g id="line2d_25">
    <path clip-path="url(#pda4c4f437a)" d="M 184.581818 285.456754 
L 185.156225 286.117896 
L 185.730631 284.478935 
L 186.305038 280.46828 
L 186.879444 274.125022 
L 187.453851 265.598838 
L 188.602664 243.100727 
L 192.623509 151.809555 
L 193.772322 135.227592 
L 194.346728 129.517669 
L 194.921135 125.442779 
L 195.495541 122.826539 
L 196.069948 121.422087 
L 196.644354 120.933464 
L 197.218761 121.039939 
L 198.367574 121.784184 
L 198.94198 121.882219 
L 199.516387 121.537563 
L 200.090793 120.653385 
L 200.6652 119.221814 
L 201.814013 115.129544 
L 202.962826 110.853635 
L 203.537232 109.394414 
L 204.111639 108.83261 
L 204.686045 109.487 
L 205.260452 111.634208 
L 205.834858 115.486021 
L 206.409265 121.170653 
L 206.983671 128.719288 
L 208.132484 149.011647 
L 209.281297 174.567719 
L 211.578923 228.342206 
L 212.727736 249.1491 
L 213.302142 256.691001 
L 213.876549 262.028715 
L 214.450955 265.072511 
L 215.025362 265.843297 
L 215.599768 264.468309 
L 216.174175 261.170169 
L 216.748581 256.25008 
L 217.897394 243.009471 
L 220.19502 213.540776 
L 221.343833 201.896848 
L 222.492646 193.317307 
L 224.215866 183.785161 
L 225.364679 176.66681 
L 225.939085 172.05847 
L 226.513492 166.467655 
L 227.662305 151.921439 
L 228.811118 133.10649 
L 231.68315 80.5944 
L 232.257556 72.311753 
L 232.831963 65.733265 
L 233.406369 61.186241 
L 233.980776 58.91389 
L 234.555182 59.05951 
L 235.129589 61.656803 
L 235.703995 66.62697 
L 236.278402 73.782789 
L 237.427215 93.431219 
L 241.44806 173.958477 
L 242.596873 188.521021 
L 243.17128 193.684624 
L 243.745686 197.587334 
L 244.320093 200.438969 
L 244.894499 202.503988 
L 247.192125 208.761391 
L 247.766532 211.09235 
L 248.340938 214.03787 
L 249.489751 221.730597 
L 251.787377 239.292944 
L 252.361783 242.364162 
L 252.93619 244.197988 
L 253.510596 244.472947 
L 254.085003 242.926172 
L 254.659409 239.374093 
L 255.233816 233.728285 
L 255.808222 226.005367 
L 256.957035 204.932387 
L 258.105848 178.340598 
L 260.403474 122.62679 
L 261.552287 100.864041 
L 262.126694 92.743694 
L 262.7011 86.701608 
L 263.275507 82.782225 
L 263.849913 80.92331 
L 264.42432 80.964139 
L 264.998726 82.659879 
L 265.573133 85.701134 
L 266.721946 94.402148 
L 268.445165 108.807469 
L 269.593978 116.354041 
L 270.742791 121.514205 
L 273.040417 129.370141 
L 273.614823 132.371791 
L 274.18923 136.359468 
L 274.763636 141.559 
L 275.338043 148.126788 
L 276.486856 165.553844 
L 277.635669 188.034588 
L 280.507701 249.904669 
L 281.656514 267.873146 
L 282.230921 273.837875 
L 282.805327 277.473646 
L 283.379734 278.673163 
L 283.95414 277.441246 
L 284.528547 273.893767 
L 285.102953 268.249698 
L 286.251766 251.972072 
L 289.698205 192.779051 
L 290.847018 178.712157 
L 291.421424 173.399267 
L 291.995831 169.124431 
L 293.144644 162.903718 
L 294.867863 155.372216 
L 295.44227 152.249773 
L 296.016676 148.470273 
L 297.165489 138.593357 
L 298.314302 125.945126 
L 300.037522 105.612402 
L 300.611928 99.85274 
L 301.186335 95.252188 
L 301.760741 92.17849 
L 302.335148 90.948654 
L 302.909554 91.806442 
L 303.483961 94.904205 
L 304.058367 100.290308 
L 304.632774 107.903023 
L 305.781587 129.022628 
L 306.9304 155.766055 
L 309.228025 211.660016 
L 310.376838 233.742398 
L 310.951245 242.225889 
L 311.525651 248.835095 
L 312.100058 253.574261 
L 312.674464 256.547334 
L 313.248871 257.946083 
L 313.823277 258.032637 
L 314.397684 257.11769 
L 314.97209 255.535886 
L 316.69531 249.961063 
L 317.269716 248.662527 
L 317.844123 247.887119 
L 318.418529 247.652068 
L 318.992936 247.884689 
L 320.716155 249.481184 
L 321.290562 249.393326 
L 321.864968 248.468831 
L 322.439375 246.403417 
L 323.013781 242.935563 
L 323.588188 237.868828 
L 324.162594 231.090105 
L 325.311407 212.432107 
L 326.46022 188.0533 
L 329.332252 121.17147 
L 330.481065 101.51488 
L 331.055472 94.724861 
L 331.629878 90.229932 
L 332.204285 88.097653 
L 332.778691 88.284199 
L 333.353098 90.639377 
L 333.927504 94.918233 
L 334.501911 100.798462 
L 335.650724 115.822197 
L 337.94835 147.90727 
L 339.097163 160.23735 
L 340.245976 169.038622 
L 341.394789 175.264532 
L 342.543602 180.846504 
L 343.118008 184.100746 
L 343.692415 188.007558 
L 344.266821 192.763473 
L 345.415634 205.232925 
L 346.564447 221.427743 
L 349.436479 265.264844 
L 350.010886 271.538927 
L 350.585292 276.058642 
L 351.159699 278.51898 
L 351.734105 278.700587 
L 352.308512 276.484939 
L 352.882918 271.863329 
L 353.457325 264.939043 
L 354.031731 255.922559 
L 355.180544 232.916072 
L 358.626983 155.566394 
L 359.775796 137.492219 
L 360.350203 130.836159 
L 360.924609 125.726337 
L 361.499016 122.017115 
L 362.073422 119.488195 
L 362.647829 117.864728 
L 363.222235 116.840819 
L 364.371048 115.36436 
L 364.945455 114.370236 
L 365.519861 112.936074 
L 366.094268 110.953828 
L 367.24308 105.354465 
L 369.540706 92.369575 
L 370.115113 90.451233 
L 370.689519 89.742738 
L 371.263926 90.547793 
L 371.838332 93.110672 
L 372.412739 97.596019 
L 372.987145 104.073569 
L 373.561552 112.508873 
L 374.710365 134.585431 
L 376.433584 175.796035 
L 378.156804 215.905763 
L 379.305617 236.037814 
L 379.880023 243.147732 
L 380.45443 248.073237 
L 381.028836 250.789775 
L 381.603243 251.380245 
L 382.177649 250.026142 
L 382.752056 246.992581 
L 383.326462 242.608227 
L 384.475275 231.274869 
L 386.198494 213.270038 
L 387.347307 203.682323 
L 388.49612 196.840595 
L 389.644933 191.881667 
L 390.793746 186.905602 
L 391.368153 183.691099 
L 391.942559 179.628242 
L 392.516966 174.498949 
L 393.091372 168.154267 
L 394.240185 151.657727 
L 395.388998 130.781065 
L 397.686624 85.413214 
L 398.835437 67.652549 
L 399.409844 61.448323 
L 399.98425 57.434266 
L 400.558657 55.8 
L 401.133063 56.62786 
L 401.70747 59.887725 
L 402.281876 65.438821 
L 402.856283 73.038379 
L 404.005096 92.996739 
L 407.451534 160.337024 
L 408.600347 175.981937 
L 409.174754 181.872464 
L 409.74916 186.589925 
L 410.323567 190.320994 
L 411.47238 195.845531 
L 412.621193 200.712392 
L 413.770006 206.993265 
L 414.918819 215.863919 
L 416.067632 227.165378 
L 417.790851 244.989055 
L 418.365258 249.831131 
L 418.939664 253.49998 
L 419.514071 255.646625 
L 420.088477 255.974317 
L 420.662884 254.260571 
L 421.23729 250.374766 
L 421.811697 244.29007 
L 422.386103 236.088863 
L 423.534916 214.196697 
L 425.258135 173.121231 
L 426.981355 133.289085 
L 428.130168 113.170883 
L 428.704574 105.892906 
L 429.278981 100.618298 
L 429.853387 97.32606 
L 430.427794 95.894744 
L 431.0022 96.114928 
L 431.576607 97.707191 
L 432.151013 100.344331 
L 433.299826 107.356056 
L 434.448639 114.534447 
L 435.597452 120.044303 
L 436.171859 121.941999 
L 436.746265 123.323057 
L 439.043891 127.587457 
L 439.618298 129.731157 
L 440.192704 132.902173 
L 440.767111 137.349126 
L 441.341517 143.255524 
L 441.915924 150.721969 
L 443.064737 170.25483 
L 444.21355 194.784837 
L 446.511175 247.504379 
L 447.659988 268.494206 
L 448.234395 276.206133 
L 448.808801 281.690787 
L 449.383208 284.793719 
L 449.957614 285.471088 
L 450.532021 283.790874 
L 451.106427 279.927147 
L 451.680834 274.147783 
L 452.829647 258.270171 
L 455.701679 212.38533 
L 456.850492 198.438247 
L 457.999305 188.481217 
L 459.148118 181.562199 
L 460.871338 172.548652 
L 461.445744 168.812604 
L 462.594557 159.014319 
L 463.74337 145.720148 
L 467.189809 99.139109 
L 467.764215 94.047387 
L 468.338622 90.72756 
L 468.913028 89.462581 
L 469.487435 90.448536 
L 470.061841 93.780105 
L 470.636248 99.442274 
L 471.210654 107.308879 
L 472.359467 128.634668 
L 474.082687 168.731152 
L 475.805906 207.474136 
L 476.954719 227.24331 
L 477.529126 234.613901 
L 478.103532 240.230852 
L 478.677939 244.162467 
L 479.252345 246.567671 
L 479.826752 247.680203 
L 480.401158 247.788098 
L 480.975565 247.209871 
L 482.698784 244.469218 
L 483.273191 244.065746 
L 483.847597 244.175916 
L 484.422003 244.829293 
L 484.99641 245.965071 
L 486.719629 250.434539 
L 487.294036 251.359236 
L 487.868442 251.459336 
L 488.442849 250.411297 
L 489.017255 247.928188 
L 489.591662 243.78305 
L 490.166068 237.82863 
L 490.740475 230.012103 
L 491.889288 209.098901 
L 493.038101 182.670214 
L 495.335727 126.008722 
L 496.48454 103.212644 
L 497.058946 94.588347 
L 497.633353 88.138935 
L 498.207759 83.978247 
L 498.782166 82.109397 
L 499.356572 82.427553 
L 499.930979 84.729461 
L 500.505385 88.729039 
L 501.654198 100.389853 
L 504.52623 133.451354 
L 505.675043 142.684926 
L 506.823856 149.066777 
L 509.121482 159.669832 
L 509.695889 163.459059 
L 510.270295 168.188632 
L 510.844702 174.002836 
L 511.993515 189.031581 
L 513.142328 207.888376 
L 515.439954 247.680501 
L 516.01436 255.677721 
L 516.588767 262.061328 
L 517.163173 266.489337 
L 517.73758 268.699597 
L 518.311986 268.526838 
L 518.886393 265.913778 
L 519.460799 260.91557 
L 520.035206 253.697261 
L 521.184019 233.747648 
L 522.907238 196.112612 
L 524.630457 159.908274 
L 525.77927 141.25818 
L 526.353677 134.093931 
L 526.928083 128.370289 
L 527.50249 123.970636 
L 528.076896 120.70008 
L 528.651303 118.304194 
L 529.800116 114.958728 
L 530.948929 111.60803 
L 531.523335 109.342314 
L 532.097742 106.498429 
L 533.246555 99.033342 
L 535.544181 81.500316 
L 536.118587 78.280422 
L 536.692994 76.233135 
L 537.2674 75.688759 
L 537.841807 76.924187 
L 538.416213 80.141323 
L 538.99062 85.450057 
L 539.565026 92.856968 
L 540.713839 113.453444 
L 541.862652 139.908034 
L 544.160278 196.675161 
L 545.309091 219.557475 
L 545.883497 228.32969 
L 546.457904 235.054795 
L 547.03231 239.664613 
L 547.606717 242.198645 
L 548.181123 242.797352 
L 548.75553 241.689074 
L 549.329936 239.171521 
L 550.478749 231.307807 
L 552.201969 217.712015 
L 553.350782 210.57817 
L 553.925188 207.955424 
L 554.499595 205.91753 
L 555.648408 202.965544 
L 556.222814 201.576544 
L 556.797221 199.862774 
L 557.371627 197.523173 
L 557.946034 194.27574 
L 558.52044 189.881865 
L 559.094847 184.167935 
L 559.669253 177.042709 
L 560.818066 158.670233 
L 562.541285 123.772645 
L 564.264505 88.89366 
L 565.413318 71.562422 
L 565.987724 65.830482 
L 566.562131 62.396836 
L 567.136537 61.391784 
L 567.710944 62.834205 
L 568.28535 66.631065 
L 568.859757 72.583873 
L 570.00857 89.71946 
L 571.731789 122.416178 
L 573.455009 153.560351 
L 574.603822 169.547384 
L 575.752635 180.966882 
L 576.901448 188.788451 
L 579.199074 201.750574 
L 580.347887 210.897309 
L 581.496699 223.063904 
L 584.943138 263.942304 
L 585.517545 267.873959 
L 586.091951 270.021274 
L 586.666358 270.123126 
L 587.240764 268.006148 
L 587.815171 263.598638 
L 588.389577 256.938151 
L 588.963984 248.172249 
L 590.112797 225.420743 
L 593.559236 146.101802 
L 594.708049 127.479262 
L 595.282455 120.892898 
L 595.856862 116.182732 
L 596.431268 113.265461 
L 597.005675 111.966687 
L 597.580081 112.037237 
L 598.154488 113.174119 
L 598.728894 115.04466 
L 600.452113 121.821269 
L 601.02652 123.586087 
L 601.600926 124.82881 
L 602.175333 125.510659 
L 602.749739 125.683218 
L 603.324146 125.48396 
L 604.472959 124.878443 
L 605.047365 125.051593 
L 605.621772 125.966598 
L 606.196178 127.933085 
L 606.770585 131.223412 
L 607.344991 136.049659 
L 607.919398 142.544354 
L 608.493804 150.746272 
L 609.642617 171.916322 
L 611.365837 211.705325 
L 613.089056 251.238165 
L 614.237869 271.354908 
L 614.812276 278.431443 
L 615.386682 283.221463 
L 615.961089 285.633613 
L 616.535495 285.688163 
L 617.109902 283.513516 
L 617.684308 279.336003 
L 618.258715 273.463674 
L 619.407528 258.1452 
L 621.705153 224.339356 
L 622.853966 210.819443 
L 624.002779 200.830766 
L 625.151592 193.567423 
L 626.874812 183.614612 
L 628.023625 174.463411 
L 629.172438 161.576899 
L 630.321251 144.871244 
L 633.193283 98.416523 
L 633.76769 91.327997 
L 634.342096 85.908076 
L 634.916503 82.477475 
L 635.490909 81.275403 
L 636.065316 82.443146 
L 636.639722 86.013632 
L 637.214129 91.907722 
L 637.788535 99.937467 
L 638.937348 121.174502 
L 642.383787 195.242205 
L 643.5326 212.650294 
L 644.107006 218.965717 
L 644.681413 223.701389 
L 645.255819 226.984711 
L 645.830226 229.021747 
L 646.404632 230.07807 
L 646.979039 230.455871 
L 648.702258 230.563017 
L 649.276665 231.109521 
L 649.851071 232.184839 
L 650.425478 233.830904 
L 651.574291 238.552528 
L 652.723104 243.885519 
L 653.29751 246.058767 
L 653.871917 247.447935 
L 654.446323 247.710524 
L 655.02073 246.534051 
L 655.595136 243.66033 
L 656.169543 238.906579 
L 656.743949 232.181905 
L 657.318356 223.497982 
L 658.467169 200.829674 
L 660.190388 158.224509 
L 661.913607 115.933581 
L 663.06242 94.000258 
L 663.636827 85.939345 
L 664.211233 80.060117 
L 664.78564 76.41113 
L 665.360046 74.932338 
L 665.934453 75.462484 
L 666.508859 77.752795 
L 667.083266 81.486038 
L 668.232079 91.811042 
L 669.955298 108.953446 
L 671.104111 118.225125 
L 672.252924 124.767901 
L 673.401737 129.295146 
L 674.55055 133.615258 
L 675.124957 136.411884 
L 675.699363 140.005198 
L 676.27377 144.626078 
L 676.848176 150.440602 
L 677.996989 165.894669 
L 679.145802 185.900245 
L 682.017834 240.360555 
L 682.592241 248.675524 
L 683.166647 255.173183 
L 683.741054 259.550433 
L 684.31546 261.596211 
L 684.889867 261.204668 
L 685.464273 258.381848 
L 686.03868 253.245438 
L 686.613086 246.017597 
L 687.761899 226.611364 
L 691.208338 159.254103 
L 692.357151 143.366655 
L 692.931558 137.401911 
L 693.505964 132.668092 
L 694.080371 128.994273 
L 695.229184 123.844159 
L 696.952403 117.326766 
L 697.526809 114.447641 
L 698.675622 106.751607 
L 699.824435 96.609761 
L 701.547655 80.172115 
L 702.122061 75.65342 
L 702.696468 72.235673 
L 703.270874 70.274791 
L 703.845281 70.079877 
L 704.419687 71.890402 
L 704.994094 75.857507 
L 705.5685 82.030736 
L 706.142907 90.351113 
L 707.29172 112.6614 
L 709.014939 155.05481 
L 710.738159 197.139891 
L 711.886972 219.150222 
L 712.461378 227.432069 
L 713.035785 233.717725 
L 713.610191 238.004947 
L 714.184598 240.393974 
L 714.759004 241.076411 
L 715.333411 240.318375 
L 715.907817 238.439093 
L 717.05663 232.711009 
L 718.205443 226.557754 
L 718.779849 223.978193 
L 719.354256 221.938281 
L 719.928662 220.485492 
L 720.503069 219.576695 
L 721.077475 219.082958 
L 722.226288 218.468533 
L 722.800695 217.78827 
L 723.375101 216.449221 
L 723.949508 214.153503 
L 724.523914 210.640962 
L 725.098321 205.711843 
L 725.672727 199.24563 
L 726.82154 181.692064 
L 727.970353 158.96326 
L 730.842386 97.8791 
L 731.416792 88.500612 
L 731.991199 81.022016 
L 732.565605 75.720058 
L 733.140012 72.771635 
L 733.714418 72.244222 
L 734.288825 74.093104 
L 734.863231 78.165588 
L 735.437638 84.211898 
L 736.58645 100.847226 
L 740.032889 158.156938 
L 741.181702 171.556113 
L 742.330515 181.095553 
L 743.479328 188.173062 
L 744.628141 194.924138 
L 745.776954 203.474645 
L 746.925767 215.200289 
L 748.07458 230.197778 
L 750.372206 263.396653 
L 750.946613 270.310713 
L 751.521019 275.871916 
L 752.095426 279.719396 
L 752.669832 281.55435 
L 753.244239 281.160817 
L 753.818645 278.421481 
L 754.393052 273.327415 
L 754.967458 265.981068 
L 756.116271 245.467674 
L 757.83949 205.809092 
L 759.56271 166.528073 
L 760.711523 146.018516 
L 761.285929 138.225253 
L 761.860336 132.181176 
L 762.434742 127.839449 
L 763.009149 125.059753 
L 763.583555 123.622862 
L 764.157962 123.250234 
L 764.732368 123.627239 
L 766.455588 126.098507 
L 767.029994 126.482589 
L 767.604401 126.35818 
L 768.178807 125.674612 
L 768.753214 124.471589 
L 771.05084 118.097043 
L 771.625246 117.525507 
L 772.199653 118.011001 
L 772.774059 119.850117 
L 773.348466 123.284537 
L 773.922872 128.480364 
L 774.497279 135.512185 
L 775.646091 154.870629 
L 776.794904 179.909643 
L 779.666937 246.688609 
L 780.81575 265.55036 
L 781.390156 271.874467 
L 781.964563 275.909744 
L 782.538969 277.629616 
L 783.113376 277.116739 
L 783.687782 274.554935 
L 784.262189 270.214858 
L 785.411002 257.595164 
L 788.283034 220.689294 
L 789.431847 209.65948 
L 790.58066 201.581492 
L 792.878286 188.327092 
L 793.452693 184.04434 
L 794.027099 178.872111 
L 795.175912 165.296519 
L 796.324725 147.345599 
L 799.771164 85.680996 
L 800.34557 78.32181 
L 800.919977 72.852653 
L 801.494383 69.554443 
L 802.06879 68.614536 
L 802.643196 70.114228 
L 803.217603 74.022784 
L 803.792009 80.198432 
L 804.366416 88.39624 
L 805.515229 109.453875 
L 808.387261 168.804482 
L 809.536074 186.904158 
L 810.110481 193.813044 
L 810.684887 199.265696 
L 811.259294 203.359646 
L 811.8337 206.274348 
L 812.408107 208.253476 
L 812.982513 209.583076 
L 814.705732 212.65243 
L 815.280139 214.228872 
L 815.854545 216.370267 
L 816.428952 219.131303 
L 817.577765 226.279173 
L 819.300984 238.019706 
L 819.875391 240.96871 
L 820.449797 242.841116 
L 821.024204 243.299249 
L 821.59861 242.05349 
L 822.173017 238.884651 
L 822.747423 233.662128 
L 823.32183 226.356553 
L 823.896236 217.046052 
L 825.045049 193.249697 
L 829.065895 97.810678 
L 829.640301 88.520351 
L 830.214708 81.27201 
L 830.789114 76.157493 
L 831.363521 73.160279 
L 831.937927 72.160715 
L 832.512334 72.947749 
L 833.08674 75.236336 
L 833.661146 78.689304 
L 834.809959 87.62918 
L 836.533179 101.138111 
L 837.681992 107.662803 
L 838.256398 110.016002 
L 839.405211 113.497911 
L 840.554024 116.9168 
L 841.128431 119.32397 
L 841.702837 122.584522 
L 842.277244 126.948276 
L 842.85165 132.604685 
L 843.426057 139.664389 
L 844.57487 157.969179 
L 845.723683 180.828448 
L 848.021309 229.395336 
L 849.170122 248.09301 
L 849.744528 254.62757 
L 850.318935 258.917054 
L 850.893341 260.807877 
L 851.467748 260.25684 
L 852.042154 257.333157 
L 852.616561 252.213523 
L 853.190967 245.170533 
L 854.33978 226.775081 
L 857.211812 175.345029 
L 858.360625 159.909986 
L 859.509438 149.141457 
L 860.083845 145.296805 
L 861.232658 139.623581 
L 862.381471 134.779422 
L 862.955877 131.974269 
L 863.530284 128.613092 
L 864.679097 119.723731 
L 865.82791 107.980925 
L 868.125536 82.299735 
L 868.699942 77.403267 
L 869.274349 73.881152 
L 869.848755 72.073742 
L 870.423162 72.257806 
L 870.997568 74.62627 
L 871.571975 79.273044 
L 872.146381 86.183954 
L 872.720787 95.234459 
L 873.8696 118.738943 
L 877.890446 213.586952 
L 878.464852 223.041079 
L 879.039259 230.640737 
L 879.613665 236.344218 
L 880.188072 240.213009 
L 880.762478 242.402686 
L 881.336885 243.147799 
L 881.911291 242.741825 
L 882.485698 241.513594 
L 884.783324 234.775734 
L 885.35773 233.863635 
L 885.932137 233.503254 
L 886.506543 233.663883 
L 887.08095 234.227328 
L 888.229763 235.715196 
L 888.804169 236.079353 
L 889.378576 235.769475 
L 889.952982 234.471516 
L 890.527389 231.903116 
L 891.101795 227.837224 
L 891.676202 222.122326 
L 892.250608 214.697874 
L 893.399421 194.98346 
L 894.548234 170.223643 
L 896.84586 117.955308 
L 897.994673 97.777622 
L 898.569079 90.560976 
L 899.143486 85.585923 
L 899.717892 82.967381 
L 900.292299 82.708773 
L 900.866705 84.703976 
L 901.441112 88.746083 
L 902.015518 94.54237 
L 903.164331 109.922162 
L 906.036364 152.14107 
L 907.185177 164.467471 
L 908.33399 173.316777 
L 910.057209 183.091927 
L 911.206022 190.386663 
L 912.354835 200.595144 
L 913.503648 214.640717 
L 914.652461 232.040684 
L 916.950087 268.21279 
L 917.524493 275.264997 
L 918.0989 280.712794 
L 918.673306 284.221319 
L 919.247713 285.532841 
L 919.822119 284.484369 
L 920.396526 281.019482 
L 920.970932 275.193575 
L 921.545339 267.17214 
L 922.694152 245.697352 
L 926.714997 158.155024 
L 927.86381 142.223115 
L 928.438217 136.656318 
L 929.012623 132.577056 
L 929.58703 129.795202 
L 930.161436 128.056354 
L 930.735843 127.064031 
L 932.459062 125.492545 
L 933.033468 124.54844 
L 933.607875 123.09252 
L 934.182281 121.06222 
L 935.331094 115.478025 
L 937.054314 106.188249 
L 937.62872 104.034984 
L 938.203127 102.922929 
L 938.777533 103.172866 
L 939.35194 105.05657 
L 939.926346 108.774859 
L 940.500753 114.439977 
L 941.075159 122.063542 
L 942.223972 142.702524 
L 943.372785 168.729827 
L 945.670411 223.403469 
L 946.819224 244.630369 
L 947.393631 252.411665 
L 947.968037 258.030941 
L 948.542444 261.416283 
L 949.11685 262.605185 
L 949.691257 261.738647 
L 950.265663 259.048804 
L 950.840069 254.840959 
L 951.988882 243.321524 
L 954.286508 218.018311 
L 955.435321 208.376499 
L 956.584134 201.400148 
L 958.88176 189.814568 
L 959.456167 185.832224 
L 960.030573 180.888875 
L 960.60498 174.802685 
L 961.753793 158.878577 
L 962.902606 138.356223 
L 965.774638 81.513319 
L 966.349045 72.488177 
L 966.923451 65.218393 
L 967.497858 60.024401 
L 968.072264 57.138314 
L 968.646671 56.689409 
L 969.221077 58.695959 
L 969.795483 63.063926 
L 970.36989 69.592628 
L 971.518703 87.875584 
L 975.539548 163.001823 
L 976.688361 176.479598 
L 977.262768 181.303731 
L 977.837174 185.028786 
L 978.411581 187.877441 
L 979.560394 192.05123 
L 980.709207 196.125194 
L 981.283613 198.75328 
L 981.85802 201.998388 
L 983.006833 210.522417 
L 986.453272 240.431666 
L 987.027678 242.763727 
L 987.602085 243.41376 
L 988.176491 242.125903 
L 988.750898 238.728806 
L 989.325304 233.150194 
L 989.89971 225.425256 
L 991.048523 204.217167 
L 992.197336 177.425633 
L 994.494962 121.35136 
L 995.643775 99.338734 
L 996.218182 91.021978 
L 996.218182 91.021978 
" style="fill:none;stroke:#4c72b0;stroke-linecap:round;stroke-width:1.4;"/>
   </g>
   <g id="line2d_26">
    <path clip-path="url(#pda4c4f437a)" d="M 184.581818 263.725152 
L 189.17707 261.155697 
L 193.197915 259.155212 
L 197.218761 257.411066 
L 200.6652 256.135938 
L 204.111639 255.0756 
L 207.558078 254.239316 
L 211.004517 253.63438 
L 214.450955 253.266055 
L 217.897394 253.137528 
L 221.343833 253.249877 
L 224.790272 253.602065 
L 228.236711 254.19095 
L 231.68315 255.01131 
L 235.129589 256.05589 
L 238.576028 257.315466 
L 242.596873 259.041777 
L 246.617719 261.024813 
L 250.638564 263.240795 
L 255.233816 266.024396 
L 260.403474 269.423688 
L 266.721946 273.868048 
L 276.486856 281.071167 
L 286.826173 288.640949 
L 293.144644 292.986537 
L 298.314302 296.272479 
L 302.909554 298.932652 
L 306.9304 301.024692 
L 310.951245 302.870452 
L 314.97209 304.447794 
L 318.418529 305.571722 
L 321.864968 306.474562 
L 325.311407 307.148333 
L 328.757846 307.587071 
L 332.204285 307.78687 
L 335.650724 307.745928 
L 339.097163 307.464554 
L 342.543602 306.945171 
L 345.990041 306.19229 
L 349.436479 305.212474 
L 352.882918 304.014281 
L 356.903764 302.354458 
L 360.924609 300.431488 
L 364.945455 298.268274 
L 369.540706 295.535037 
L 374.710365 292.178523 
L 380.45443 288.177205 
L 388.49612 282.275557 
L 402.856283 271.686842 
L 408.600347 267.727981 
L 413.770006 264.423302 
L 418.365258 261.746129 
L 422.386103 259.638973 
L 426.406948 257.777896 
L 430.427794 256.185063 
L 433.874233 255.04774 
L 437.320672 254.131418 
L 440.767111 253.444096 
L 444.21355 252.991761 
L 447.659988 252.778338 
L 451.106427 252.80565 
L 454.552866 253.07341 
L 457.999305 253.579216 
L 461.445744 254.318577 
L 464.892183 255.284951 
L 468.338622 256.469801 
L 472.359467 258.114203 
L 476.380313 260.02194 
L 480.401158 262.170132 
L 484.99641 264.886492 
L 490.166068 268.224424 
L 495.910133 272.205639 
L 503.951824 278.080169 
L 518.311986 288.62353 
L 524.056051 292.565321 
L 529.225709 295.85512 
L 533.820961 298.519422 
L 537.841807 300.615564 
L 541.862652 302.465832 
L 545.883497 304.048037 
L 549.329936 305.176372 
L 552.776375 306.083798 
L 556.222814 306.762296 
L 559.669253 307.205859 
L 563.115692 307.410542 
L 566.562131 307.374499 
L 570.00857 307.097997 
L 573.455009 306.583417 
L 576.901448 305.835228 
L 580.347887 304.859954 
L 583.794325 303.66611 
L 587.815171 302.011072 
L 591.836016 300.09252 
L 595.856862 297.933306 
L 600.452113 295.204067 
L 605.621772 291.851251 
L 611.365837 287.852964 
L 619.407528 281.953529 
L 633.76769 271.362684 
L 640.086161 267.019852 
L 645.255819 263.743033 
L 649.851071 261.095724 
L 653.871917 259.018258 
L 657.892762 257.189824 
L 661.913607 255.632199 
L 665.360046 254.526776 
L 668.806485 253.643652 
L 672.252924 252.990532 
L 675.699363 252.573105 
L 679.145802 252.394988 
L 682.592241 252.457698 
L 686.03868 252.760634 
L 689.485119 253.301089 
L 692.931558 254.074267 
L 696.377997 255.073328 
L 699.824435 256.28945 
L 703.845281 257.968184 
L 707.866126 259.907545 
L 711.886972 262.084276 
L 716.482224 264.82904 
L 721.651882 268.193035 
L 727.970353 272.607293 
L 736.58645 278.938773 
L 748.648987 287.796319 
L 754.967458 292.148849 
L 760.137116 295.442493 
L 764.732368 298.110913 
L 768.753214 300.211148 
L 772.774059 302.065918 
L 776.794904 303.652979 
L 780.241343 304.785715 
L 783.687782 305.697723 
L 787.134221 306.380944 
L 790.58066 306.829331 
L 794.027099 307.038896 
L 797.473538 307.007751 
L 800.919977 306.736122 
L 804.366416 306.226345 
L 807.812855 305.48285 
L 811.259294 304.512119 
L 814.705732 303.322629 
L 818.726578 301.67238 
L 822.747423 299.758252 
L 826.768269 297.603044 
L 831.363521 294.877812 
L 836.533179 291.528703 
L 842.277244 287.533459 
L 850.318935 281.636257 
L 864.679097 271.043316 
L 870.997568 266.697161 
L 876.167226 263.416619 
L 880.762478 260.765307 
L 884.783324 258.683855 
L 888.804169 256.851034 
L 892.825014 255.288674 
L 896.271453 254.178961 
L 899.717892 253.291371 
L 903.164331 252.633651 
L 906.61077 252.21153 
L 910.057209 252.028667 
L 913.503648 252.086621 
L 916.950087 252.384835 
L 920.396526 252.920641 
L 923.842965 253.689287 
L 927.289404 254.683974 
L 930.735843 255.895916 
L 934.756688 257.570072 
L 938.777533 259.505226 
L 942.798379 261.678176 
L 947.393631 264.419196 
L 952.563289 267.779787 
L 958.307354 271.779353 
L 966.349045 277.666729 
L 980.1348 287.788872 
L 986.453272 292.116786 
L 991.62293 295.38291 
L 996.218182 298.021758 
L 996.218182 298.021758 
" style="fill:none;stroke:#55a868;stroke-linecap:round;stroke-width:1.4;"/>
   </g>
   <g id="patch_3">
    <path d="M 144 320.4 
L 144 43.2 
" style="fill:none;"/>
   </g>
   <g id="patch_4">
    <path d="M 1036.8 320.4 
L 1036.8 43.2 
" style="fill:none;"/>
   </g>
   <g id="patch_5">
    <path d="M 144 320.4 
L 1036.8 320.4 
" style="fill:none;"/>
   </g>
   <g id="patch_6">
    <path d="M 144 43.2 
L 1036.8 43.2 
" style="fill:none;"/>
   </g>
   <g id="legend_1">
    <g id="line2d_27">
     <path d="M 1002.75125 53.3975 
L 1018.75125 53.3975 
" style="fill:none;stroke:#4c72b0;stroke-linecap:round;stroke-width:1.4;"/>
    </g>
    <g id="line2d_28"/>
    <g id="text_13">
     <!-- a -->
     <defs>
      <path d="M 20.21875 -0.984375 
Q 12.25 -0.984375 8.25 3.21875 
Q 4.25 7.421875 4.25 14.75 
Q 4.25 19.96875 6.21875 23.3125 
Q 8.203125 26.65625 11.390625 28.5625 
Q 14.59375 30.46875 18.6875 31.203125 
Q 22.796875 31.9375 27.046875 32.03125 
L 38.921875 32.234375 
L 38.921875 35.109375 
Q 38.921875 38.375 38.234375 40.671875 
Q 37.546875 42.96875 36.125 44.375 
Q 34.71875 45.796875 32.59375 46.453125 
Q 30.46875 47.125 27.59375 47.125 
Q 25.046875 47.125 23 46.75 
Q 20.953125 46.390625 19.4375 45.4375 
Q 17.921875 44.484375 16.984375 42.84375 
Q 16.0625 41.21875 15.765625 38.71875 
L 6.59375 39.546875 
Q 7.078125 42.671875 8.4375 45.28125 
Q 9.8125 47.90625 12.328125 49.796875 
Q 14.84375 51.703125 18.625 52.75 
Q 22.40625 53.8125 27.78125 53.8125 
Q 37.75 53.8125 42.765625 49.234375 
Q 47.796875 44.671875 47.796875 36.03125 
L 47.796875 13.28125 
Q 47.796875 9.375 48.828125 7.390625 
Q 49.859375 5.421875 52.734375 5.421875 
Q 53.46875 5.421875 54.203125 5.515625 
Q 54.9375 5.609375 55.609375 5.765625 
L 55.609375 0.296875 
Q 53.953125 -0.09375 52.3125 -0.28125 
Q 50.6875 -0.484375 48.828125 -0.484375 
Q 46.34375 -0.484375 44.5625 0.171875 
Q 42.78125 0.828125 41.65625 2.171875 
Q 40.53125 3.515625 39.9375 5.484375 
Q 39.359375 7.46875 39.203125 10.109375 
L 38.921875 10.109375 
Q 37.5 7.5625 35.8125 5.515625 
Q 34.125 3.46875 31.875 2.03125 
Q 29.640625 0.59375 26.78125 -0.1875 
Q 23.921875 -0.984375 20.21875 -0.984375 
M 22.21875 5.609375 
Q 26.421875 5.609375 29.5625 7.140625 
Q 32.71875 8.6875 34.78125 11.078125 
Q 36.859375 13.484375 37.890625 16.3125 
Q 38.921875 19.140625 38.921875 21.734375 
L 38.921875 26.078125 
L 29.296875 25.875 
Q 26.078125 25.828125 23.171875 25.40625 
Q 20.265625 25 18.0625 23.78125 
Q 15.875 22.5625 14.578125 20.359375 
Q 13.28125 18.171875 13.28125 14.59375 
Q 13.28125 10.296875 15.59375 7.953125 
Q 17.921875 5.609375 22.21875 5.609375 
" id="LiberationSans-61"/>
     </defs>
     <g style="fill:#262626;" transform="translate(1025.15125 56.1975)scale(0.08 -0.08)">
      <use xlink:href="#LiberationSans-61"/>
     </g>
    </g>
    <g id="line2d_29">
     <path d="M 1002.75125 64.855 
L 1018.75125 64.855 
" style="fill:none;stroke:#55a868;stroke-linecap:round;stroke-width:1.4;"/>
    </g>
    <g id="line2d_30"/>
    <g id="text_14">
     <!-- b -->
     <defs>
      <path d="M 51.421875 26.65625 
Q 51.421875 -0.984375 31.984375 -0.984375 
Q 25.984375 -0.984375 22 1.1875 
Q 18.015625 3.375 15.53125 8.203125 
L 15.4375 8.203125 
Q 15.4375 6.9375 15.359375 5.5625 
Q 15.28125 4.203125 15.203125 3.03125 
Q 15.140625 1.859375 15.0625 1.03125 
Q 14.984375 0.203125 14.9375 0 
L 6.453125 0 
Q 6.5 0.4375 6.546875 1.484375 
Q 6.59375 2.546875 6.640625 4 
Q 6.6875 5.46875 6.703125 7.21875 
Q 6.734375 8.984375 6.734375 10.890625 
L 6.734375 72.46875 
L 15.53125 72.46875 
L 15.53125 51.8125 
Q 15.53125 50.34375 15.5 49 
Q 15.484375 47.65625 15.4375 46.625 
Q 15.375 45.40625 15.328125 44.34375 
L 15.53125 44.34375 
Q 17.96875 49.421875 22 51.609375 
Q 26.03125 53.8125 31.984375 53.8125 
Q 42 53.8125 46.703125 47.0625 
Q 51.421875 40.328125 51.421875 26.65625 
M 42.1875 26.375 
Q 42.1875 31.84375 41.5 35.75 
Q 40.828125 39.65625 39.3125 42.15625 
Q 37.796875 44.671875 35.453125 45.84375 
Q 33.109375 47.015625 29.734375 47.015625 
Q 26.265625 47.015625 23.609375 45.890625 
Q 20.953125 44.78125 19.171875 42.28125 
Q 17.390625 39.796875 16.453125 35.734375 
Q 15.53125 31.6875 15.53125 25.828125 
Q 15.53125 20.171875 16.453125 16.3125 
Q 17.390625 12.453125 19.171875 10.03125 
Q 20.953125 7.625 23.578125 6.5625 
Q 26.21875 5.515625 29.640625 5.515625 
Q 32.859375 5.515625 35.203125 6.640625 
Q 37.546875 7.765625 39.109375 10.25 
Q 40.671875 12.75 41.421875 16.71875 
Q 42.1875 20.703125 42.1875 26.375 
" id="LiberationSans-62"/>
     </defs>
     <g style="fill:#262626;" transform="translate(1025.15125 67.655)scale(0.08 -0.08)">
      <use xlink:href="#LiberationSans-62"/>
     </g>
    </g>
   </g>
  </g>
 </g>
 <defs>
  <clipPath id="pda4c4f437a">
   <rect height="277.2" width="892.8" x="144" y="43.2"/>
  </clipPath>
 </defs>
</svg>
