<?xml version="1.0" encoding="utf-8" standalone="no"?>
<!DOCTYPE svg PUBLIC "-//W3C//DTD SVG 1.1//EN"
  "http://www.w3.org/Graphics/SVG/1.1/DTD/svg11.dtd">
<!-- Created with matplotlib (http://matplotlib.org/) -->
<svg height="360pt" version="1.1" viewBox="0 0 1152 360" width="1152pt" xmlns="http://www.w3.org/2000/svg" xmlns:xlink="http://www.w3.org/1999/xlink">
 <defs>
  <style type="text/css">
*{stroke-linecap:butt;stroke-linejoin:round;}
  </style>
 </defs>
 <g id="figure_1">
  <g id="patch_1">
   <path d="M 0 360 
L 1152 360 
L 1152 0 
L 0 0 
z
" style="fill:#ffffff;"/>
  </g>
  <g id="axes_1">
   <g id="patch_2">
    <path d="M 144 320.4 
L 1036.8 320.4 
L 1036.8 43.2 
L 144 43.2 
z
" style="fill:#eaeaf2;"/>
   </g>
   <g id="matplotlib.axis_1">
    <g id="xtick_1">
     <g id="line2d_1">
      <path clip-path="url(#p66a27e9bf7)" d="M 184.581818 320.4 
L 184.581818 43.2 
" style="fill:none;stroke:#ffffff;stroke-linecap:round;stroke-width:0.8;"/>
     </g>
     <g id="line2d_2"/>
     <g id="text_1">
      <!-- 0 -->
      <defs>
       <path d="M 51.703125 34.421875 
Q 51.703125 24.515625 49.828125 17.75 
Q 47.953125 10.984375 44.703125 6.8125 
Q 41.453125 2.640625 37.0625 0.828125 
Q 32.671875 -0.984375 27.6875 -0.984375 
Q 22.65625 -0.984375 18.3125 0.828125 
Q 13.96875 2.640625 10.765625 6.78125 
Q 7.5625 10.9375 5.734375 17.703125 
Q 3.90625 24.46875 3.90625 34.421875 
Q 3.90625 44.828125 5.734375 51.640625 
Q 7.5625 58.453125 10.78125 62.5 
Q 14.015625 66.546875 18.40625 68.1875 
Q 22.796875 69.828125 27.984375 69.828125 
Q 32.90625 69.828125 37.21875 68.1875 
Q 41.546875 66.546875 44.765625 62.5 
Q 48 58.453125 49.84375 51.640625 
Q 51.703125 44.828125 51.703125 34.421875 
M 42.78125 34.421875 
Q 42.78125 42.625 41.796875 48.0625 
Q 40.828125 53.515625 38.921875 56.765625 
Q 37.015625 60.015625 34.25 61.359375 
Q 31.5 62.703125 27.984375 62.703125 
Q 24.265625 62.703125 21.4375 61.328125 
Q 18.609375 59.96875 16.671875 56.71875 
Q 14.75 53.46875 13.765625 48.015625 
Q 12.796875 42.578125 12.796875 34.421875 
Q 12.796875 26.515625 13.796875 21.09375 
Q 14.796875 15.671875 16.71875 12.375 
Q 18.65625 9.078125 21.4375 7.640625 
Q 24.21875 6.203125 27.78125 6.203125 
Q 31.25 6.203125 34.03125 7.640625 
Q 36.8125 9.078125 38.734375 12.375 
Q 40.671875 15.671875 41.71875 21.09375 
Q 42.78125 26.515625 42.78125 34.421875 
" id="LiberationSans-30"/>
      </defs>
      <g style="fill:#262626;" transform="translate(182.357443 331.7975)scale(0.08 -0.08)">
       <use xlink:href="#LiberationSans-30"/>
      </g>
     </g>
    </g>
    <g id="xtick_2">
     <g id="line2d_3">
      <path clip-path="url(#p66a27e9bf7)" d="M 299.625952 320.4 
L 299.625952 43.2 
" style="fill:none;stroke:#ffffff;stroke-linecap:round;stroke-width:0.8;"/>
     </g>
     <g id="line2d_4"/>
     <g id="text_2">
      <!-- 200 -->
      <defs>
       <path d="M 5.03125 0 
L 5.03125 6.203125 
Q 7.515625 11.921875 11.109375 16.28125 
Q 14.703125 20.65625 18.65625 24.1875 
Q 22.609375 27.734375 26.484375 30.765625 
Q 30.375 33.796875 33.5 36.8125 
Q 36.625 39.84375 38.546875 43.15625 
Q 40.484375 46.484375 40.484375 50.6875 
Q 40.484375 53.609375 39.59375 55.828125 
Q 38.71875 58.0625 37.0625 59.5625 
Q 35.40625 61.078125 33.078125 61.828125 
Q 30.765625 62.59375 27.9375 62.59375 
Q 25.296875 62.59375 22.96875 61.859375 
Q 20.65625 61.140625 18.84375 59.671875 
Q 17.046875 58.203125 15.890625 56.03125 
Q 14.75 53.859375 14.40625 50.984375 
L 5.421875 51.8125 
Q 5.859375 55.515625 7.46875 58.78125 
Q 9.078125 62.0625 11.90625 64.53125 
Q 14.75 67 18.71875 68.40625 
Q 22.703125 69.828125 27.9375 69.828125 
Q 33.0625 69.828125 37.0625 68.609375 
Q 41.0625 67.390625 43.8125 64.984375 
Q 46.578125 62.59375 48.046875 59.078125 
Q 49.515625 55.5625 49.515625 50.984375 
Q 49.515625 47.515625 48.265625 44.390625 
Q 47.015625 41.265625 44.9375 38.421875 
Q 42.875 35.59375 40.140625 32.953125 
Q 37.40625 30.328125 34.421875 27.8125 
Q 31.453125 25.296875 28.421875 22.828125 
Q 25.390625 20.359375 22.71875 17.859375 
Q 20.0625 15.375 17.96875 12.8125 
Q 15.875 10.25 14.703125 7.46875 
L 50.59375 7.46875 
L 50.59375 0 
z
" id="LiberationSans-32"/>
      </defs>
      <g style="fill:#262626;" transform="translate(292.952827 331.7975)scale(0.08 -0.08)">
       <use xlink:href="#LiberationSans-32"/>
       <use x="55.615234" xlink:href="#LiberationSans-30"/>
       <use x="111.230469" xlink:href="#LiberationSans-30"/>
      </g>
     </g>
    </g>
    <g id="xtick_3">
     <g id="line2d_5">
      <path clip-path="url(#p66a27e9bf7)" d="M 414.670086 320.4 
L 414.670086 43.2 
" style="fill:none;stroke:#ffffff;stroke-linecap:round;stroke-width:0.8;"/>
     </g>
     <g id="line2d_6"/>
     <g id="text_3">
      <!-- 400 -->
      <defs>
       <path d="M 43.015625 15.578125 
L 43.015625 0 
L 34.71875 0 
L 34.71875 15.578125 
L 2.296875 15.578125 
L 2.296875 22.40625 
L 33.796875 68.796875 
L 43.015625 68.796875 
L 43.015625 22.515625 
L 52.6875 22.515625 
L 52.6875 15.578125 
z
M 34.71875 58.890625 
Q 34.625 58.640625 34.234375 57.9375 
Q 33.84375 57.234375 33.34375 56.34375 
Q 32.859375 55.46875 32.34375 54.5625 
Q 31.84375 53.65625 31.453125 53.078125 
L 13.8125 27.09375 
Q 13.578125 26.703125 13.109375 26.0625 
Q 12.640625 25.4375 12.15625 24.78125 
Q 11.671875 24.125 11.171875 23.484375 
Q 10.6875 22.859375 10.40625 22.515625 
L 34.71875 22.515625 
z
" id="LiberationSans-34"/>
      </defs>
      <g style="fill:#262626;" transform="translate(407.996961 331.7975)scale(0.08 -0.08)">
       <use xlink:href="#LiberationSans-34"/>
       <use x="55.615234" xlink:href="#LiberationSans-30"/>
       <use x="111.230469" xlink:href="#LiberationSans-30"/>
      </g>
     </g>
    </g>
    <g id="xtick_4">
     <g id="line2d_7">
      <path clip-path="url(#p66a27e9bf7)" d="M 529.714219 320.4 
L 529.714219 43.2 
" style="fill:none;stroke:#ffffff;stroke-linecap:round;stroke-width:0.8;"/>
     </g>
     <g id="line2d_8"/>
     <g id="text_4">
      <!-- 600 -->
      <defs>
       <path d="M 51.21875 22.515625 
Q 51.21875 17.328125 49.78125 13 
Q 48.34375 8.6875 45.53125 5.578125 
Q 42.71875 2.484375 38.5625 0.75 
Q 34.421875 -0.984375 29 -0.984375 
Q 23 -0.984375 18.5 1.3125 
Q 14.015625 3.609375 11.03125 7.921875 
Q 8.0625 12.25 6.5625 18.53125 
Q 5.078125 24.8125 5.078125 32.8125 
Q 5.078125 42 6.765625 48.921875 
Q 8.453125 55.859375 11.625 60.5 
Q 14.796875 65.140625 19.359375 67.484375 
Q 23.921875 69.828125 29.6875 69.828125 
Q 33.203125 69.828125 36.28125 69.09375 
Q 39.359375 68.359375 41.875 66.71875 
Q 44.390625 65.09375 46.28125 62.40625 
Q 48.1875 59.71875 49.3125 55.8125 
L 40.921875 54.296875 
Q 39.546875 58.734375 36.546875 60.71875 
Q 33.546875 62.703125 29.59375 62.703125 
Q 25.984375 62.703125 23.046875 60.984375 
Q 20.125 59.28125 18.0625 55.875 
Q 16.015625 52.484375 14.90625 47.359375 
Q 13.8125 42.234375 13.8125 35.40625 
Q 16.21875 39.84375 20.5625 42.15625 
Q 24.90625 44.484375 30.515625 44.484375 
Q 35.203125 44.484375 39.015625 42.96875 
Q 42.828125 41.453125 45.53125 38.59375 
Q 48.25 35.75 49.734375 31.671875 
Q 51.21875 27.59375 51.21875 22.515625 
M 42.28125 22.125 
Q 42.28125 25.6875 41.40625 28.5625 
Q 40.53125 31.453125 38.765625 33.46875 
Q 37.015625 35.5 34.421875 36.59375 
Q 31.84375 37.703125 28.421875 37.703125 
Q 26.03125 37.703125 23.578125 36.984375 
Q 21.140625 36.28125 19.15625 34.6875 
Q 17.1875 33.109375 15.9375 30.515625 
Q 14.703125 27.9375 14.703125 24.21875 
Q 14.703125 20.40625 15.671875 17.109375 
Q 16.65625 13.8125 18.484375 11.375 
Q 20.3125 8.9375 22.890625 7.515625 
Q 25.484375 6.109375 28.71875 6.109375 
Q 31.890625 6.109375 34.40625 7.203125 
Q 36.921875 8.296875 38.671875 10.375 
Q 40.4375 12.453125 41.359375 15.421875 
Q 42.28125 18.40625 42.28125 22.125 
" id="LiberationSans-36"/>
      </defs>
      <g style="fill:#262626;" transform="translate(523.041094 331.7975)scale(0.08 -0.08)">
       <use xlink:href="#LiberationSans-36"/>
       <use x="55.615234" xlink:href="#LiberationSans-30"/>
       <use x="111.230469" xlink:href="#LiberationSans-30"/>
      </g>
     </g>
    </g>
    <g id="xtick_5">
     <g id="line2d_9">
      <path clip-path="url(#p66a27e9bf7)" d="M 644.758353 320.4 
L 644.758353 43.2 
" style="fill:none;stroke:#ffffff;stroke-linecap:round;stroke-width:0.8;"/>
     </g>
     <g id="line2d_10"/>
     <g id="text_5">
      <!-- 800 -->
      <defs>
       <path d="M 51.265625 19.1875 
Q 51.265625 14.796875 49.875 11.109375 
Q 48.484375 7.421875 45.625 4.734375 
Q 42.78125 2.046875 38.328125 0.53125 
Q 33.890625 -0.984375 27.828125 -0.984375 
Q 21.78125 -0.984375 17.359375 0.53125 
Q 12.9375 2.046875 10.03125 4.703125 
Q 7.125 7.375 5.734375 11.0625 
Q 4.34375 14.75 4.34375 19.09375 
Q 4.34375 22.859375 5.484375 25.78125 
Q 6.640625 28.71875 8.5625 30.828125 
Q 10.5 32.953125 12.96875 34.25 
Q 15.4375 35.546875 18.0625 35.984375 
L 18.0625 36.1875 
Q 15.1875 36.859375 12.90625 38.375 
Q 10.640625 39.890625 9.09375 42.015625 
Q 7.5625 44.140625 6.75 46.71875 
Q 5.953125 49.3125 5.953125 52.203125 
Q 5.953125 55.8125 7.34375 59 
Q 8.734375 62.203125 11.46875 64.625 
Q 14.203125 67.046875 18.25 68.4375 
Q 22.3125 69.828125 27.640625 69.828125 
Q 33.25 69.828125 37.375 68.40625 
Q 41.5 67 44.203125 64.578125 
Q 46.921875 62.15625 48.234375 58.9375 
Q 49.5625 55.71875 49.5625 52.09375 
Q 49.5625 49.265625 48.75 46.671875 
Q 47.953125 44.09375 46.40625 41.96875 
Q 44.875 39.84375 42.59375 38.34375 
Q 40.328125 36.859375 37.359375 36.28125 
L 37.359375 36.078125 
Q 40.328125 35.59375 42.859375 34.296875 
Q 45.40625 33.015625 47.265625 30.890625 
Q 49.125 28.765625 50.1875 25.828125 
Q 51.265625 22.90625 51.265625 19.1875 
M 40.4375 51.609375 
Q 40.4375 54.203125 39.765625 56.34375 
Q 39.109375 58.5 37.59375 60.03125 
Q 36.078125 61.578125 33.640625 62.421875 
Q 31.203125 63.28125 27.640625 63.28125 
Q 24.171875 63.28125 21.78125 62.421875 
Q 19.390625 61.578125 17.84375 60.03125 
Q 16.3125 58.5 15.625 56.34375 
Q 14.9375 54.203125 14.9375 51.609375 
Q 14.9375 49.5625 15.46875 47.40625 
Q 16.015625 45.265625 17.421875 43.5 
Q 18.84375 41.75 21.328125 40.625 
Q 23.828125 39.5 27.734375 39.5 
Q 31.890625 39.5 34.40625 40.625 
Q 36.921875 41.75 38.25 43.5 
Q 39.59375 45.265625 40.015625 47.40625 
Q 40.4375 49.5625 40.4375 51.609375 
M 42.140625 20.015625 
Q 42.140625 22.515625 41.453125 24.828125 
Q 40.765625 27.15625 39.109375 28.9375 
Q 37.453125 30.71875 34.640625 31.8125 
Q 31.84375 32.90625 27.640625 32.90625 
Q 23.78125 32.90625 21.0625 31.8125 
Q 18.359375 30.71875 16.671875 28.90625 
Q 14.984375 27.09375 14.203125 24.71875 
Q 13.421875 22.359375 13.421875 19.828125 
Q 13.421875 16.65625 14.203125 14.03125 
Q 14.984375 11.421875 16.6875 9.546875 
Q 18.40625 7.671875 21.1875 6.640625 
Q 23.96875 5.609375 27.9375 5.609375 
Q 31.9375 5.609375 34.671875 6.640625 
Q 37.40625 7.671875 39.0625 9.546875 
Q 40.71875 11.421875 41.421875 14.078125 
Q 42.140625 16.75 42.140625 20.015625 
" id="LiberationSans-38"/>
      </defs>
      <g style="fill:#262626;" transform="translate(638.085228 331.7975)scale(0.08 -0.08)">
       <use xlink:href="#LiberationSans-38"/>
       <use x="55.615234" xlink:href="#LiberationSans-30"/>
       <use x="111.230469" xlink:href="#LiberationSans-30"/>
      </g>
     </g>
    </g>
    <g id="xtick_6">
     <g id="line2d_11">
      <path clip-path="url(#p66a27e9bf7)" d="M 759.802487 320.4 
L 759.802487 43.2 
" style="fill:none;stroke:#ffffff;stroke-linecap:round;stroke-width:0.8;"/>
     </g>
     <g id="line2d_12"/>
     <g id="text_6">
      <!-- 1000 -->
      <defs>
       <path d="M 7.625 0 
L 7.625 7.46875 
L 25.140625 7.46875 
L 25.140625 60.40625 
L 9.625 49.3125 
L 9.625 57.625 
L 25.875 68.796875 
L 33.984375 68.796875 
L 33.984375 7.46875 
L 50.734375 7.46875 
L 50.734375 0 
z
" id="LiberationSans-31"/>
      </defs>
      <g style="fill:#262626;" transform="translate(750.904987 331.7975)scale(0.08 -0.08)">
       <use xlink:href="#LiberationSans-31"/>
       <use x="55.615234" xlink:href="#LiberationSans-30"/>
       <use x="111.230469" xlink:href="#LiberationSans-30"/>
       <use x="166.845703" xlink:href="#LiberationSans-30"/>
      </g>
     </g>
    </g>
    <g id="xtick_7">
     <g id="line2d_13">
      <path clip-path="url(#p66a27e9bf7)" d="M 874.846621 320.4 
L 874.846621 43.2 
" style="fill:none;stroke:#ffffff;stroke-linecap:round;stroke-width:0.8;"/>
     </g>
     <g id="line2d_14"/>
     <g id="text_7">
      <!-- 1200 -->
      <g style="fill:#262626;" transform="translate(865.949121 331.7975)scale(0.08 -0.08)">
       <use xlink:href="#LiberationSans-31"/>
       <use x="55.615234" xlink:href="#LiberationSans-32"/>
       <use x="111.230469" xlink:href="#LiberationSans-30"/>
       <use x="166.845703" xlink:href="#LiberationSans-30"/>
      </g>
     </g>
    </g>
    <g id="xtick_8">
     <g id="line2d_15">
      <path clip-path="url(#p66a27e9bf7)" d="M 989.890754 320.4 
L 989.890754 43.2 
" style="fill:none;stroke:#ffffff;stroke-linecap:round;stroke-width:0.8;"/>
     </g>
     <g id="line2d_16"/>
     <g id="text_8">
      <!-- 1400 -->
      <g style="fill:#262626;" transform="translate(980.993254 331.7975)scale(0.08 -0.08)">
       <use xlink:href="#LiberationSans-31"/>
       <use x="55.615234" xlink:href="#LiberationSans-34"/>
       <use x="111.230469" xlink:href="#LiberationSans-30"/>
       <use x="166.845703" xlink:href="#LiberationSans-30"/>
      </g>
     </g>
    </g>
   </g>
   <g id="matplotlib.axis_2">
    <g id="ytick_1">
     <g id="line2d_17">
      <path clip-path="url(#p66a27e9bf7)" d="M 144 311.970387 
L 1036.8 311.970387 
" style="fill:none;stroke:#ffffff;stroke-linecap:round;stroke-width:0.8;"/>
     </g>
     <g id="line2d_18"/>
     <g id="text_9">
      <!-- −150000 -->
      <defs>
       <path d="M 4.9375 29.6875 
L 4.9375 36.8125 
L 53.515625 36.8125 
L 53.515625 29.6875 
z
" id="LiberationSans-2212"/>
       <path d="M 51.421875 22.40625 
Q 51.421875 17.234375 49.859375 12.9375 
Q 48.296875 8.640625 45.21875 5.53125 
Q 42.140625 2.4375 37.578125 0.71875 
Q 33.015625 -0.984375 27 -0.984375 
Q 21.578125 -0.984375 17.546875 0.28125 
Q 13.53125 1.5625 10.734375 3.78125 
Q 7.953125 6 6.3125 8.984375 
Q 4.6875 11.96875 4 15.375 
L 12.890625 16.40625 
Q 13.421875 14.453125 14.390625 12.625 
Q 15.375 10.796875 17.0625 9.34375 
Q 18.75 7.90625 21.21875 7.046875 
Q 23.6875 6.203125 27.203125 6.203125 
Q 30.609375 6.203125 33.390625 7.25 
Q 36.1875 8.296875 38.15625 10.34375 
Q 40.140625 12.40625 41.203125 15.375 
Q 42.28125 18.359375 42.28125 22.21875 
Q 42.28125 25.390625 41.25 28.046875 
Q 40.234375 30.71875 38.328125 32.640625 
Q 36.421875 34.578125 33.65625 35.640625 
Q 30.90625 36.71875 27.390625 36.71875 
Q 25.203125 36.71875 23.34375 36.328125 
Q 21.484375 35.9375 19.890625 35.25 
Q 18.3125 34.578125 17.015625 33.671875 
Q 15.71875 32.765625 14.59375 31.78125 
L 6 31.78125 
L 8.296875 68.796875 
L 47.40625 68.796875 
L 47.40625 61.328125 
L 16.3125 61.328125 
L 14.984375 39.5 
Q 17.328125 41.3125 20.84375 42.59375 
Q 24.359375 43.890625 29.203125 43.890625 
Q 34.328125 43.890625 38.421875 42.328125 
Q 42.53125 40.765625 45.40625 37.90625 
Q 48.296875 35.0625 49.859375 31.109375 
Q 51.421875 27.15625 51.421875 22.40625 
" id="LiberationSans-35"/>
      </defs>
      <g style="fill:#262626;" transform="translate(107.035 314.869137)scale(0.08 -0.08)">
       <use xlink:href="#LiberationSans-2212"/>
       <use x="58.398438" xlink:href="#LiberationSans-31"/>
       <use x="114.013672" xlink:href="#LiberationSans-35"/>
       <use x="169.628906" xlink:href="#LiberationSans-30"/>
       <use x="225.244141" xlink:href="#LiberationSans-30"/>
       <use x="280.859375" xlink:href="#LiberationSans-30"/>
       <use x="336.474609" xlink:href="#LiberationSans-30"/>
      </g>
     </g>
    </g>
    <g id="ytick_2">
     <g id="line2d_19">
      <path clip-path="url(#p66a27e9bf7)" d="M 144 268.592115 
L 1036.8 268.592115 
" style="fill:none;stroke:#ffffff;stroke-linecap:round;stroke-width:0.8;"/>
     </g>
     <g id="line2d_20"/>
     <g id="text_10">
      <!-- −100000 -->
      <g style="fill:#262626;" transform="translate(107.035 271.490865)scale(0.08 -0.08)">
       <use xlink:href="#LiberationSans-2212"/>
       <use x="58.398438" xlink:href="#LiberationSans-31"/>
       <use x="114.013672" xlink:href="#LiberationSans-30"/>
       <use x="169.628906" xlink:href="#LiberationSans-30"/>
       <use x="225.244141" xlink:href="#LiberationSans-30"/>
       <use x="280.859375" xlink:href="#LiberationSans-30"/>
       <use x="336.474609" xlink:href="#LiberationSans-30"/>
      </g>
     </g>
    </g>
    <g id="ytick_3">
     <g id="line2d_21">
      <path clip-path="url(#p66a27e9bf7)" d="M 144 225.213842 
L 1036.8 225.213842 
" style="fill:none;stroke:#ffffff;stroke-linecap:round;stroke-width:0.8;"/>
     </g>
     <g id="line2d_22"/>
     <g id="text_11">
      <!-- −50000 -->
      <g style="fill:#262626;" transform="translate(111.48375 228.112592)scale(0.08 -0.08)">
       <use xlink:href="#LiberationSans-2212"/>
       <use x="58.398438" xlink:href="#LiberationSans-35"/>
       <use x="114.013672" xlink:href="#LiberationSans-30"/>
       <use x="169.628906" xlink:href="#LiberationSans-30"/>
       <use x="225.244141" xlink:href="#LiberationSans-30"/>
       <use x="280.859375" xlink:href="#LiberationSans-30"/>
      </g>
     </g>
    </g>
    <g id="ytick_4">
     <g id="line2d_23">
      <path clip-path="url(#p66a27e9bf7)" d="M 144 181.83557 
L 1036.8 181.83557 
" style="fill:none;stroke:#ffffff;stroke-linecap:round;stroke-width:0.8;"/>
     </g>
     <g id="line2d_24"/>
     <g id="text_12">
      <!-- 0 -->
      <g style="fill:#262626;" transform="translate(133.95125 184.73432)scale(0.08 -0.08)">
       <use xlink:href="#LiberationSans-30"/>
      </g>
     </g>
    </g>
    <g id="ytick_5">
     <g id="line2d_25">
      <path clip-path="url(#p66a27e9bf7)" d="M 144 138.457298 
L 1036.8 138.457298 
" style="fill:none;stroke:#ffffff;stroke-linecap:round;stroke-width:0.8;"/>
     </g>
     <g id="line2d_26"/>
     <g id="text_13">
      <!-- 50000 -->
      <g style="fill:#262626;" transform="translate(116.15625 141.356048)scale(0.08 -0.08)">
       <use xlink:href="#LiberationSans-35"/>
       <use x="55.615234" xlink:href="#LiberationSans-30"/>
       <use x="111.230469" xlink:href="#LiberationSans-30"/>
       <use x="166.845703" xlink:href="#LiberationSans-30"/>
       <use x="222.460938" xlink:href="#LiberationSans-30"/>
      </g>
     </g>
    </g>
    <g id="ytick_6">
     <g id="line2d_27">
      <path clip-path="url(#p66a27e9bf7)" d="M 144 95.079026 
L 1036.8 95.079026 
" style="fill:none;stroke:#ffffff;stroke-linecap:round;stroke-width:0.8;"/>
     </g>
     <g id="line2d_28"/>
     <g id="text_14">
      <!-- 100000 -->
      <g style="fill:#262626;" transform="translate(111.7075 97.977776)scale(0.08 -0.08)">
       <use xlink:href="#LiberationSans-31"/>
       <use x="55.615234" xlink:href="#LiberationSans-30"/>
       <use x="111.230469" xlink:href="#LiberationSans-30"/>
       <use x="166.845703" xlink:href="#LiberationSans-30"/>
       <use x="222.460938" xlink:href="#LiberationSans-30"/>
       <use x="278.076172" xlink:href="#LiberationSans-30"/>
      </g>
     </g>
    </g>
    <g id="ytick_7">
     <g id="line2d_29">
      <path clip-path="url(#p66a27e9bf7)" d="M 144 51.700753 
L 1036.8 51.700753 
" style="fill:none;stroke:#ffffff;stroke-linecap:round;stroke-width:0.8;"/>
     </g>
     <g id="line2d_30"/>
     <g id="text_15">
      <!-- 150000 -->
      <g style="fill:#262626;" transform="translate(111.7075 54.599503)scale(0.08 -0.08)">
       <use xlink:href="#LiberationSans-31"/>
       <use x="55.615234" xlink:href="#LiberationSans-35"/>
       <use x="111.230469" xlink:href="#LiberationSans-30"/>
       <use x="166.845703" xlink:href="#LiberationSans-30"/>
       <use x="222.460938" xlink:href="#LiberationSans-30"/>
       <use x="278.076172" xlink:href="#LiberationSans-30"/>
      </g>
     </g>
    </g>
   </g>
   <g id="line2d_31">
    <path clip-path="url(#p66a27e9bf7)" d="M 184.581818 181.83557 
L 187.457922 181.835681 
L 188.033142 181.519271 
L 189.183584 179.244239 
L 189.758804 178.759712 
L 190.334025 179.598891 
L 192.059687 184.981501 
L 192.634908 185.464622 
L 193.785349 185.2102 
L 194.36057 184.884273 
L 194.93579 183.608102 
L 195.511011 180.567797 
L 196.661452 171.913398 
L 197.236673 170.679286 
L 197.811894 174.135059 
L 198.387114 182.083281 
L 198.962335 192.017752 
L 199.537556 199.776824 
L 200.112776 201.25663 
L 200.687997 194.692717 
L 201.838438 168.306321 
L 202.413659 159.200614 
L 202.98888 158.633573 
L 203.5641 167.248845 
L 204.714542 198.235073 
L 205.289762 208.720556 
L 205.864983 208.747624 
L 206.440204 197.433616 
L 207.590645 160.463095 
L 208.165866 149.603952 
L 208.741086 150.721724 
L 209.316307 163.789515 
L 210.466748 205.510911 
L 211.041969 218.829255 
L 211.61719 219.014567 
L 212.19241 206.034139 
L 213.342852 164.624113 
L 213.918072 150.913109 
L 214.493293 147.479024 
L 215.068514 153.766618 
L 216.794176 192.452923 
L 217.369396 200.078563 
L 217.944617 203.159461 
L 218.519838 202.176943 
L 219.095058 197.718091 
L 220.2455 182.393696 
L 220.82072 174.932621 
L 221.395941 170.160568 
L 221.971162 169.327532 
L 222.546382 172.481306 
L 223.696824 182.899613 
L 224.272044 184.2915 
L 224.847265 181.485829 
L 225.422486 176.39354 
L 225.997706 172.30198 
L 226.572927 171.995036 
L 227.148148 176.621571 
L 227.723368 185.562978 
L 228.87381 206.434347 
L 229.44903 209.695005 
L 230.024251 202.063379 
L 230.599472 183.456738 
L 231.749913 140.074353 
L 232.325134 133.373278 
L 232.900354 143.576021 
L 233.475575 169.215616 
L 234.626016 239.8639 
L 235.201237 262.24917 
L 235.776458 257.143808 
L 236.351678 219.016302 
L 237.50212 100.927371 
L 238.07734 68.989597 
L 238.652561 75.907564 
L 239.227782 119.615945 
L 240.378223 254.798431 
L 240.953444 300.862079 
L 241.528664 305.346525 
L 242.103885 265.90431 
L 243.254326 132.871738 
L 243.829547 89.062459 
L 244.404768 79.338786 
L 244.979988 102.382018 
L 246.70565 234.26229 
L 247.280871 248.808586 
L 247.856092 239.901552 
L 249.581754 162.400716 
L 250.156974 150.162925 
L 250.732195 150.921177 
L 251.307416 161.123573 
L 251.882636 174.075076 
L 252.457857 184.221844 
L 253.033078 189.787172 
L 253.608298 191.731802 
L 254.183519 191.377836 
L 254.75874 189.445091 
L 255.33396 186.360245 
L 256.484402 178.977966 
L 257.059622 176.590894 
L 257.634843 176.081434 
L 258.210064 177.338484 
L 258.785284 179.99909 
L 259.360505 183.886868 
L 260.510946 193.355538 
L 261.086167 193.130752 
L 261.661388 183.848227 
L 262.236608 167.72965 
L 262.811829 154.86912 
L 263.38705 155.951408 
L 263.96227 174.833354 
L 264.537491 204.841584 
L 265.112712 227.390738 
L 265.687932 222.491856 
L 266.838374 148.817764 
L 267.413594 129.308994 
L 267.988815 142.841974 
L 269.139256 218.926335 
L 269.714477 227.567461 
L 270.289698 203.065938 
L 270.864918 167.753768 
L 271.440139 148.534765 
L 272.01536 157.06701 
L 273.165801 207.59194 
L 273.741022 205.715396 
L 274.891463 158.777763 
L 275.466684 155.093212 
L 276.041905 174.151881 
L 276.617125 200.456388 
L 277.192346 210.847306 
L 277.767567 196.842197 
L 278.342787 172.550885 
L 278.918008 158.518621 
L 279.493229 164.131943 
L 280.068449 182.473698 
L 280.64367 196.590776 
L 281.218891 196.312722 
L 282.369332 176.473452 
L 282.944553 172.75216 
L 283.519773 174.767523 
L 285.245435 189.600411 
L 285.820656 189.42151 
L 286.395877 183.819337 
L 286.971097 176.38103 
L 287.546318 173.330791 
L 288.121539 177.094646 
L 288.696759 183.323367 
L 289.27198 186.898604 
L 289.847201 186.886727 
L 290.422421 184.999833 
L 290.997642 181.945562 
L 291.572863 177.602076 
L 292.148083 174.790809 
L 292.723304 177.716552 
L 293.298525 186.117769 
L 293.873745 192.208443 
L 294.448966 187.638681 
L 295.024187 176.023541 
L 295.599407 170.10435 
L 296.174628 176.842245 
L 296.749849 189.702818 
L 297.325069 193.58579 
L 298.475511 171.842084 
L 299.050731 172.368956 
L 299.625952 184.998289 
L 300.201173 194.45509 
L 300.776393 187.467241 
L 301.351614 172.377025 
L 301.926835 168.369653 
L 303.077276 197.409758 
L 303.652497 193.478212 
L 304.227717 173.76958 
L 304.802938 163.502611 
L 305.378159 176.02342 
L 305.953379 196.679181 
L 306.5286 198.361391 
L 307.103821 179.421804 
L 307.679041 165.255614 
L 308.254262 172.04414 
L 308.829483 189.458339 
L 309.404703 194.895553 
L 310.555145 174.461663 
L 311.130365 175.196265 
L 311.705586 182.098469 
L 312.280807 185.712512 
L 312.856027 184.602479 
L 314.006469 181.039434 
L 314.581689 179.505767 
L 315.15691 179.67823 
L 316.307351 184.707819 
L 316.882572 183.641009 
L 317.457793 180.702313 
L 318.033013 179.746074 
L 319.183455 182.817212 
L 319.758675 182.689422 
L 320.333896 181.899494 
L 320.909117 181.661943 
L 321.484337 181.851933 
L 322.059558 181.853401 
L 323.209999 181.3837 
L 323.78522 181.814333 
L 324.360441 182.523107 
L 324.935661 182.634462 
L 326.086103 181.337223 
L 326.661323 181.035347 
L 327.236544 180.900187 
L 327.811765 181.770891 
L 328.386985 184.217731 
L 328.962206 185.123886 
L 330.112647 175.291342 
L 330.687868 178.305802 
L 331.263089 188.841022 
L 331.838309 191.77171 
L 332.988751 168.248281 
L 333.563971 176.045707 
L 334.139192 194.052367 
L 334.714413 195.312505 
L 335.289633 176.595527 
L 335.864854 165.489423 
L 336.440075 177.752486 
L 337.015295 195.631509 
L 337.590516 192.567442 
L 338.165737 174.93001 
L 338.740957 169.052948 
L 339.891399 192.649687 
L 340.466619 186.9456 
L 341.04184 175.35739 
L 341.617061 174.698526 
L 342.192281 184.218451 
L 342.767502 189.151082 
L 343.917943 175.9093 
L 344.493164 178.014326 
L 345.068385 185.696991 
L 345.643605 187.540724 
L 346.218826 181.16807 
L 346.794047 176.247199 
L 347.369267 179.109558 
L 347.944488 185.177328 
L 348.519709 185.996032 
L 349.094929 181.810016 
L 349.67015 179.077215 
L 350.245371 179.957022 
L 350.820591 181.745394 
L 351.971033 184.046396 
L 352.546253 183.966033 
L 353.696695 177.58797 
L 354.271915 179.488285 
L 354.847136 184.824177 
L 355.422357 186.517977 
L 356.572798 178.46251 
L 357.148019 178.725869 
L 357.723239 181.190942 
L 358.873681 184.94974 
L 359.448901 185.532093 
L 360.024122 181.322774 
L 360.599343 175.040737 
L 361.174563 175.74448 
L 361.749784 185.802019 
L 362.325005 193.341397 
L 362.900226 185.914429 
L 363.475446 171.827422 
L 364.050667 169.836099 
L 365.201108 196.152742 
L 365.776329 189.639564 
L 366.35155 173.123044 
L 366.92677 168.204122 
L 368.077212 195.092577 
L 368.652432 191.469104 
L 369.227653 175.14193 
L 369.802874 167.52022 
L 370.378094 178.438479 
L 370.953315 194.971552 
L 371.528536 195.023953 
L 372.103756 177.539022 
L 372.678977 164.703669 
L 373.254198 172.599815 
L 373.829418 193.032023 
L 374.404639 200.706246 
L 374.97986 185.392198 
L 375.55508 166.301637 
L 376.130301 165.209372 
L 377.280742 198.10702 
L 377.855963 194.555034 
L 378.431184 178.918754 
L 379.006404 169.192105 
L 379.581625 172.85835 
L 380.156846 183.472128 
L 380.732066 189.717324 
L 381.307287 188.067275 
L 382.457728 178.830948 
L 383.032949 177.170437 
L 383.60817 178.343767 
L 384.758611 184.587661 
L 385.333832 185.467199 
L 385.909052 183.926967 
L 386.484273 181.742915 
L 387.059494 180.383005 
L 387.634714 179.501715 
L 388.209935 178.831876 
L 388.785156 179.629065 
L 389.360376 182.949203 
L 389.935597 187.197845 
L 390.510818 187.93125 
L 391.086038 182.756699 
L 391.661259 175.67504 
L 392.23648 173.307411 
L 392.8117 178.466779 
L 393.386921 187.478025 
L 393.962142 191.900631 
L 394.537362 186.704096 
L 395.112583 176.48932 
L 395.687804 170.780097 
L 396.263024 175.402945 
L 396.838245 187.837935 
L 397.413466 196.816343 
L 397.988686 191.529746 
L 399.139128 160.759629 
L 399.714348 163.7883 
L 400.86479 209.600354 
L 401.44001 214.100589 
L 402.015231 190.158637 
L 402.590452 155.674915 
L 403.165672 138.261662 
L 403.740893 152.722503 
L 404.891334 226.663024 
L 405.466555 229.306756 
L 406.041776 197.118777 
L 406.616996 155.599784 
L 407.192217 133.904141 
L 407.767438 144.415998 
L 408.917879 211.634621 
L 409.4931 221.722672 
L 410.06832 205.213162 
L 410.643541 177.738406 
L 411.218762 158.466741 
L 411.793982 156.862005 
L 412.369203 170.399583 
L 412.944424 188.323355 
L 413.519644 198.340482 
L 414.094865 195.006341 
L 415.245306 172.137143 
L 415.820527 169.065614 
L 416.395748 174.623342 
L 417.546189 193.786197 
L 418.12141 195.603747 
L 418.69663 189.776787 
L 419.271851 180.621482 
L 419.847072 173.361555 
L 420.422292 170.558868 
L 420.997513 171.810071 
L 422.147954 179.257131 
L 423.873616 190.690897 
L 424.448837 192.525798 
L 425.024058 191.48524 
L 425.599278 187.850566 
L 426.174499 183.315567 
L 426.74972 179.976872 
L 427.32494 178.439702 
L 427.900161 176.437951 
L 428.475382 171.0087 
L 429.050602 162.641986 
L 429.625823 156.493897 
L 430.201044 158.742366 
L 430.776264 172.416152 
L 432.501926 245.511317 
L 433.077147 245.751459 
L 433.652368 217.06428 
L 434.802809 117.228752 
L 435.37803 88.230464 
L 435.95325 91.655612 
L 436.528471 126.021788 
L 438.254133 279.23454 
L 438.829354 288.217313 
L 439.404574 258.951381 
L 441.130236 93.140017 
L 441.705457 78.668158 
L 442.280678 98.101797 
L 442.855898 143.635015 
L 444.00634 253.161509 
L 444.58156 282.676172 
L 445.156781 277.875933 
L 445.732002 240.179867 
L 446.882443 131.167839 
L 447.457664 97.744794 
L 448.032884 91.938439 
L 448.608105 111.692557 
L 450.333767 219.872242 
L 450.908988 237.649873 
L 451.484208 240.383745 
L 452.059429 231.686662 
L 452.63465 216.008366 
L 454.360312 161.167298 
L 454.935533 150.278484 
L 455.510753 146.508479 
L 456.085974 149.887733 
L 456.661195 159.1935 
L 457.811636 185.228107 
L 458.386857 194.162547 
L 458.962077 196.422295 
L 459.537298 192.711457 
L 460.687739 181.058237 
L 461.26296 179.700093 
L 461.838181 183.349151 
L 462.988622 200.420731 
L 463.563843 205.045982 
L 464.139063 199.427802 
L 464.714284 182.724443 
L 465.864725 142.779162 
L 466.439946 137.152046 
L 467.015167 146.978352 
L 467.590387 170.214444 
L 468.740829 231.671826 
L 469.316049 250.555776 
L 469.89127 245.696108 
L 470.466491 212.606555 
L 471.616932 112.281374 
L 472.192153 86.805921 
L 472.767373 95.197969 
L 473.342594 135.105112 
L 474.493035 253.110062 
L 475.068256 289.44058 
L 475.643477 286.248807 
L 476.218697 244.227927 
L 477.369139 125.509838 
L 477.944359 93.446267 
L 478.51958 92.816415 
L 479.094801 119.208884 
L 480.245242 201.287776 
L 480.820463 229.586806 
L 481.395683 240.416973 
L 481.970904 235.03425 
L 482.546125 217.830687 
L 483.696566 171.073247 
L 484.271787 153.220572 
L 484.847007 144.643473 
L 485.422228 146.520364 
L 485.997449 157.254752 
L 487.14789 188.693866 
L 487.723111 200.221191 
L 488.298331 205.092137 
L 488.873552 203.016747 
L 489.448773 195.58683 
L 490.599214 177.052335 
L 491.174435 171.865335 
L 491.749655 170.654734 
L 492.324876 172.405307 
L 492.900097 175.813833 
L 494.050538 183.969686 
L 494.625759 186.623716 
L 495.200979 185.749331 
L 496.351421 175.864508 
L 496.926641 175.864213 
L 497.501862 184.225114 
L 498.077083 198.426892 
L 498.652303 207.427189 
L 499.227524 198.267694 
L 500.377965 144.864702 
L 500.953186 138.86436 
L 501.528407 160.993525 
L 502.103627 200.436694 
L 502.678848 229.997945 
L 503.254069 225.735249 
L 504.40451 154.213848 
L 504.979731 140.989461 
L 505.554951 158.275529 
L 506.130172 190.601278 
L 506.705393 210.444755 
L 507.280613 202.802805 
L 507.855834 178.545988 
L 508.431055 160.622727 
L 509.006275 163.216661 
L 510.156717 201.755567 
L 510.731937 201.649117 
L 511.882379 165.731387 
L 512.457599 162.329055 
L 513.03282 175.787355 
L 513.608041 193.217075 
L 514.183261 198.199676 
L 514.758482 188.163679 
L 515.333703 174.767818 
L 515.908923 169.620682 
L 516.484144 175.221312 
L 517.059365 184.708435 
L 517.634585 189.705109 
L 518.209806 188.592083 
L 519.935468 175.971878 
L 520.510689 175.372936 
L 521.085909 179.212642 
L 521.66113 185.233668 
L 522.236351 188.405886 
L 522.811571 186.451895 
L 523.386792 181.829879 
L 523.962013 178.544513 
L 524.537233 177.595301 
L 525.112454 177.960997 
L 525.687675 180.368543 
L 526.838116 190.665391 
L 527.413337 187.337809 
L 527.988557 175.825675 
L 528.563778 168.188852 
L 529.138999 174.756201 
L 529.714219 191.093448 
L 530.28944 198.591903 
L 530.864661 186.495498 
L 531.439881 168.850024 
L 532.015102 166.280382 
L 533.165543 197.634457 
L 533.740764 192.986736 
L 534.315985 174.658297 
L 534.891205 165.982287 
L 535.466426 177.455284 
L 536.041647 195.13075 
L 536.616867 195.18159 
L 537.192088 176.995657 
L 537.767309 164.783745 
L 538.342529 174.702352 
L 538.91775 195.404467 
L 539.492971 198.8402 
L 540.643412 162.911625 
L 541.218633 170.884465 
L 541.793853 193.300014 
L 542.369074 200.162977 
L 543.519515 166.491981 
L 544.094736 170.501869 
L 544.669957 187.524249 
L 545.245178 194.422123 
L 546.395619 175.086484 
L 546.97084 175.537496 
L 547.54606 182.15677 
L 548.121281 185.361243 
L 548.696502 183.867938 
L 549.271722 182.035146 
L 550.422164 180.655603 
L 550.997384 180.556033 
L 552.147826 182.948821 
L 552.723046 183.153072 
L 553.298267 182.574503 
L 553.873488 181.532174 
L 554.448708 180.116134 
L 555.023929 179.862214 
L 555.59915 182.230423 
L 556.17437 185.08993 
L 556.749591 183.914248 
L 557.324812 179.443727 
L 557.900032 177.898628 
L 559.050474 186.076065 
L 559.625694 184.079676 
L 560.200915 178.8367 
L 560.776136 178.110279 
L 561.351356 183.222504 
L 561.926577 186.653933 
L 562.501798 182.34519 
L 563.077018 176.30543 
L 563.652239 178.162697 
L 564.22746 187.105657 
L 564.80268 189.926529 
L 565.953122 170.447472 
L 566.528342 177.187345 
L 567.103563 193.320835 
L 567.678784 194.430885 
L 568.254004 175.849724 
L 568.829225 164.201522 
L 569.404446 177.552998 
L 569.979666 198.54731 
L 570.554887 195.473612 
L 571.130108 172.647618 
L 571.705328 163.610102 
L 572.85577 198.300921 
L 573.43099 191.450277 
L 574.006211 172.678243 
L 574.581432 169.04514 
L 575.156652 182.942887 
L 575.731873 192.852524 
L 576.307094 185.870409 
L 576.882314 175.249057 
L 577.457535 175.603813 
L 578.032756 184.260884 
L 578.607976 187.883907 
L 579.758418 177.064056 
L 580.333638 179.05504 
L 580.908859 184.911176 
L 581.48408 186.059911 
L 582.0593 181.259288 
L 582.634521 177.673755 
L 583.209742 179.740408 
L 583.784962 184.170232 
L 584.360183 184.988034 
L 584.935404 182.198699 
L 585.510624 180.085248 
L 586.085845 180.174217 
L 586.661066 181.034324 
L 587.236286 182.108791 
L 587.811507 183.789701 
L 588.386728 184.277012 
L 588.961948 181.678665 
L 589.537169 178.278578 
L 590.11239 178.883358 
L 590.68761 183.09243 
L 591.262831 185.555621 
L 591.838052 183.932493 
L 592.413272 180.994573 
L 592.988493 179.499702 
L 593.563714 178.993035 
L 594.138934 179.903224 
L 595.289376 188.692452 
L 595.864596 186.018233 
L 596.439817 175.876844 
L 597.015038 170.69976 
L 597.590258 179.462761 
L 598.165479 193.795654 
L 598.7407 194.394014 
L 599.31592 178.485345 
L 599.891141 166.073468 
L 600.466362 172.694727 
L 601.041582 190.931473 
L 601.616803 197.750711 
L 602.767244 169.143695 
L 603.342465 169.631267 
L 603.917686 184.885349 
L 604.492906 195.94149 
L 605.068127 188.995996 
L 605.643348 173.716745 
L 606.218568 168.766131 
L 606.793789 179.848975 
L 607.36901 194.069111 
L 607.94423 193.393624 
L 608.519451 178.386564 
L 609.094672 167.205641 
L 609.669892 172.500826 
L 610.245113 188.851121 
L 610.820334 197.488793 
L 611.395554 188.594165 
L 611.970775 173.502196 
L 612.545996 168.099406 
L 613.121216 176.201687 
L 613.696437 188.273661 
L 614.271658 192.347167 
L 614.846878 187.300243 
L 615.422099 180.154107 
L 615.99732 175.807535 
L 616.57254 175.217104 
L 617.147761 177.8935 
L 618.298202 188.867596 
L 618.873423 190.02033 
L 619.448644 184.641181 
L 620.023864 176.277408 
L 620.599085 172.189717 
L 621.174306 176.096798 
L 621.749526 183.86563 
L 622.324747 188.857445 
L 622.899968 188.382323 
L 624.050409 180.10083 
L 624.62563 177.38836 
L 625.20085 176.284921 
L 625.776071 177.494229 
L 626.351292 181.637726 
L 626.926512 187.414528 
L 627.501733 190.685605 
L 628.076954 187.351248 
L 629.227395 171.870193 
L 629.802616 172.383358 
L 630.377836 180.907787 
L 630.953057 191.402822 
L 631.528278 194.316887 
L 632.103498 185.724849 
L 632.678719 172.380408 
L 633.25394 165.701629 
L 633.82916 172.514707 
L 634.979602 205.114607 
L 635.554822 202.323996 
L 636.705264 155.227945 
L 637.280485 146.785232 
L 637.855705 163.556487 
L 639.006147 225.42015 
L 639.581367 224.332396 
L 640.156588 192.914815 
L 640.731809 153.542179 
L 641.307029 132.384513 
L 641.88225 141.36824 
L 643.032691 210.171385 
L 643.607912 226.713343 
L 644.183133 215.892546 
L 645.333574 164.102619 
L 645.908795 153.335698 
L 646.484015 157.905426 
L 647.634457 185.587166 
L 648.209677 193.05484 
L 648.784898 193.134222 
L 649.935339 185.282356 
L 650.51056 182.780453 
L 651.085781 181.728841 
L 652.236222 181.290499 
L 652.811443 180.177705 
L 653.961884 176.662824 
L 654.537105 176.602919 
L 655.112325 178.272045 
L 656.262767 183.64336 
L 656.837987 185.421878 
L 657.413208 185.949531 
L 657.988429 185.595616 
L 658.563649 184.908912 
L 659.13887 184.03995 
L 660.289311 181.750639 
L 660.864532 181.244735 
L 661.439753 182.242991 
L 662.590194 187.734052 
L 663.165415 186.194766 
L 663.740635 177.130841 
L 664.891077 149.87203 
L 665.466297 147.551292 
L 666.041518 159.865083 
L 666.616739 185.733811 
L 667.76718 250.921715 
L 668.342401 264.684774 
L 668.917621 246.979324 
L 669.492842 197.875641 
L 670.643283 83.286208 
L 671.218504 63.709594 
L 671.793725 82.520148 
L 672.368945 132.782466 
L 673.519387 262.289252 
L 674.094607 303.686005 
L 674.669828 307.8 
L 675.245049 270.494686 
L 676.970711 77.551601 
L 677.545931 58.852963 
L 678.121152 78.167572 
L 678.696373 127.031374 
L 679.846814 249.753625 
L 680.422035 289.516058 
L 680.997255 296.466993 
L 681.572476 267.359738 
L 683.298138 103.914139 
L 683.873359 83.264519 
L 684.448579 91.857755 
L 685.0238 123.216255 
L 686.174241 205.514901 
L 686.749462 233.298685 
L 687.324683 244.128071 
L 687.899903 239.089597 
L 688.475124 222.815458 
L 690.200786 160.883604 
L 690.776007 150.836676 
L 691.351227 150.222353 
L 691.926448 158.529986 
L 693.65211 203.759123 
L 694.227331 205.88032 
L 694.802551 193.814827 
L 695.952993 150.179582 
L 696.528213 139.110314 
L 697.103434 144.233028 
L 697.678655 164.991006 
L 699.404317 252.564711 
L 699.979537 254.019271 
L 700.554758 227.137842 
L 701.705199 127.645177 
L 702.28042 93.835804 
L 702.855641 90.346456 
L 703.430861 118.490279 
L 705.156523 277.188821 
L 705.731744 292.035468 
L 706.306965 262.549174 
L 708.032627 75.871127 
L 708.607847 67.16771 
L 709.183068 101.381108 
L 710.90873 285.435898 
L 711.483951 290.935395 
L 712.059171 253.900935 
L 713.209613 139.794737 
L 713.784833 107.366268 
L 714.360054 103.917435 
L 714.935275 125.247573 
L 716.085716 193.44481 
L 716.660937 216.794901 
L 717.236157 226.750648 
L 717.811378 224.392258 
L 718.386599 212.48874 
L 720.112261 162.479491 
L 720.687481 154.989278 
L 721.262702 154.567641 
L 721.837923 159.782317 
L 722.413143 168.883425 
L 724.138805 200.857984 
L 724.714026 205.809613 
L 725.289247 203.764068 
L 725.864467 193.971249 
L 727.014909 166.997772 
L 727.59013 161.295264 
L 728.16535 164.567634 
L 729.315792 186.388094 
L 729.891012 191.635676 
L 730.466233 187.444008 
L 731.041454 178.607871 
L 731.616674 174.097025 
L 732.191895 179.995499 
L 733.342336 207.957966 
L 733.917557 202.933808 
L 735.067998 147.570986 
L 735.643219 137.85139 
L 736.21844 158.052391 
L 736.79366 197.845189 
L 737.368881 228.202085 
L 737.944102 223.460753 
L 739.094543 152.555063 
L 739.669764 143.12506 
L 740.244984 164.459102 
L 740.820205 196.913858 
L 741.395426 211.596535 
L 741.970646 198.38013 
L 742.545867 173.514698 
L 743.121088 159.497669 
L 743.696308 166.163174 
L 744.271529 185.587556 
L 744.84675 198.988727 
L 745.42197 195.377399 
L 745.997191 181.176629 
L 746.572412 170.438623 
L 747.147632 171.706483 
L 747.722853 182.269998 
L 748.298074 190.615593 
L 748.873294 188.787311 
L 749.448515 180.441037 
L 750.023736 174.404473 
L 750.598956 175.549469 
L 751.749398 186.771818 
L 752.324618 187.440182 
L 752.899839 185.122646 
L 754.05028 177.744661 
L 754.625501 175.651121 
L 755.200722 178.103694 
L 755.775942 184.547163 
L 756.351163 189.213043 
L 756.926384 187.229832 
L 757.501604 180.169246 
L 758.076825 175.130408 
L 758.652046 176.720179 
L 759.227266 181.787221 
L 759.802487 185.413705 
L 760.377708 186.54953 
L 760.952928 185.954693 
L 761.528149 182.46956 
L 762.10337 176.010476 
L 762.67859 172.569451 
L 763.253811 178.517063 
L 763.829032 190.774965 
L 764.404252 195.217073 
L 764.979473 183.670957 
L 765.554694 168.775327 
L 766.129914 168.494149 
L 767.280356 197.686772 
L 767.855576 191.122598 
L 768.430797 173.705849 
L 769.006018 167.374469 
L 769.581238 179.147393 
L 770.156459 193.807626 
L 770.73168 191.849618 
L 771.3069 176.857271 
L 771.882121 169.238346 
L 772.457342 178.592489 
L 773.032562 192.796652 
L 773.607783 191.873216 
L 774.183004 176.805417 
L 774.758224 168.332261 
L 775.333445 177.900198 
L 775.908666 193.442468 
L 776.483886 193.314936 
L 777.059107 177.896597 
L 777.634328 168.542125 
L 778.209548 176.595761 
L 778.784769 190.495374 
L 779.35999 191.611645 
L 779.93521 181.021285 
L 780.510431 174.209262 
L 781.085652 177.472644 
L 781.660872 183.774241 
L 782.236093 185.501511 
L 783.386534 182.468025 
L 784.536976 177.981949 
L 785.112196 179.75782 
L 785.687417 184.873724 
L 786.262638 186.663051 
L 787.413079 177.595917 
L 787.9883 178.687913 
L 788.56352 182.953793 
L 789.138741 184.673273 
L 790.864403 180.582034 
L 791.439624 179.580143 
L 792.014844 180.564101 
L 792.590065 184.011121 
L 793.165286 185.577788 
L 794.315727 177.446817 
L 794.890948 179.089665 
L 795.466168 185.091066 
L 796.041389 186.558718 
L 796.61661 180.717408 
L 797.19183 176.263353 
L 797.767051 180.201667 
L 798.342272 187.588431 
L 798.917492 186.63902 
L 799.492713 177.312249 
L 800.067934 173.40325 
L 801.218375 192.999749 
L 801.793596 187.637267 
L 802.368816 171.919818 
L 802.944037 168.905201 
L 804.094478 199.064119 
L 804.669699 187.88723 
L 805.24492 167.258736 
L 805.82014 166.815496 
L 806.395361 187.792535 
L 806.970582 200.166447 
L 807.545802 186.042326 
L 808.121023 167.619469 
L 808.696244 170.025749 
L 809.271464 187.794131 
L 809.846685 194.938671 
L 810.997126 172.966102 
L 811.572347 175.827766 
L 812.147568 185.461499 
L 812.722788 187.743084 
L 813.298009 181.920136 
L 813.87323 177.880938 
L 814.44845 180.061243 
L 815.023671 184.134445 
L 815.598892 184.116096 
L 816.174112 180.73194 
L 816.749333 179.102036 
L 817.324554 181.403905 
L 817.899774 184.578942 
L 818.474995 184.101877 
L 819.050216 180.594622 
L 819.625437 178.787023 
L 820.200657 180.801285 
L 820.775878 183.797049 
L 821.351099 184.007147 
L 821.926319 181.974197 
L 822.50154 180.575744 
L 823.076761 180.70279 
L 824.227202 181.971989 
L 824.802423 182.521022 
L 825.377643 182.757176 
L 825.952864 182.509718 
L 826.528085 182.056311 
L 827.103305 181.124475 
L 827.678526 179.478863 
L 828.253747 179.242929 
L 828.828967 183.017168 
L 829.404188 188.404099 
L 829.979409 187.050714 
L 830.554629 176.834489 
L 831.12985 169.556483 
L 831.705071 176.80481 
L 832.280291 193.538247 
L 832.855512 198.655409 
L 834.005953 163.452726 
L 834.581174 165.473112 
L 835.156395 187.805488 
L 835.731615 204.25884 
L 836.306836 193.712021 
L 836.882057 169.610532 
L 837.457277 160.426918 
L 838.032498 175.708563 
L 838.607719 197.576417 
L 839.182939 199.998487 
L 840.333381 165.277476 
L 840.908601 168.439752 
L 841.483822 186.934886 
L 842.059043 199.129273 
L 842.634263 190.557639 
L 843.209484 172.273871 
L 843.784705 164.992655 
L 844.359925 176.473001 
L 844.935146 194.658708 
L 845.510367 198.684992 
L 846.660808 167.879912 
L 847.236029 166.019939 
L 848.38647 194.669639 
L 848.961691 195.985996 
L 850.112132 173.61537 
L 850.687353 170.755198 
L 851.262573 176.283672 
L 851.837794 183.943537 
L 852.413015 188.237474 
L 852.988235 188.40036 
L 853.563456 185.544352 
L 854.713897 176.922382 
L 855.289118 175.600976 
L 855.864339 178.003577 
L 856.439559 182.19984 
L 857.01478 185.260762 
L 857.590001 186.317717 
L 858.165221 186.313292 
L 858.740442 185.509207 
L 859.315663 182.220394 
L 860.466104 170.697678 
L 861.041325 172.138965 
L 861.616545 182.19099 
L 862.191766 195.695449 
L 862.766987 201.300442 
L 863.342207 191.576595 
L 863.917428 172.621244 
L 864.492649 159.139017 
L 865.067869 161.689486 
L 866.218311 201.370455 
L 866.793531 208.503578 
L 867.368752 194.382302 
L 867.943973 169.972046 
L 868.519193 154.080156 
L 869.094414 158.660815 
L 870.244855 209.055176 
L 870.820076 217.467264 
L 871.395297 197.883622 
L 871.970517 163.371348 
L 872.545738 138.814735 
L 873.120959 141.539845 
L 873.696179 172.101746 
L 874.2714 213.793992 
L 874.846621 238.926322 
L 875.421841 228.108908 
L 876.572283 144.286383 
L 877.147503 123.31455 
L 877.722724 133.929734 
L 878.873165 207.898017 
L 879.448386 230.358332 
L 880.023607 226.285026 
L 881.749269 158.800406 
L 882.324489 153.254581 
L 882.89971 157.967023 
L 884.625372 187.809817 
L 885.200593 193.709765 
L 885.775813 196.640227 
L 886.351034 196.210436 
L 886.926255 192.42438 
L 888.651917 175.467215 
L 889.227137 172.931486 
L 889.802358 172.329309 
L 890.377579 173.269342 
L 890.952799 175.539492 
L 892.103241 182.750158 
L 892.678461 186.374534 
L 893.253682 188.98653 
L 893.828903 189.973933 
L 894.404123 188.889927 
L 894.979344 185.556758 
L 896.705006 170.696464 
L 897.280227 170.471417 
L 897.855447 175.225147 
L 898.430668 184.865213 
L 899.581109 211.299221 
L 900.15633 217.541874 
L 900.731551 208.175638 
L 901.306771 180.914415 
L 902.457213 114.1089 
L 903.032433 104.528115 
L 903.607654 121.089765 
L 904.182875 159.880872 
L 905.333316 259.755093 
L 905.908537 292.421535 
L 906.483757 293.842607 
L 907.058978 257.611079 
L 908.78464 72.268127 
L 909.359861 55.8 
L 909.935082 76.455866 
L 910.510302 125.117351 
L 911.660744 242.698409 
L 912.235964 280.826523 
L 912.811185 290.715901 
L 913.386406 269.25667 
L 913.961626 223.107914 
L 915.112068 119.658543 
L 915.687288 93.770737 
L 916.262509 94.992269 
L 916.83773 119.940762 
L 918.563392 232.165297 
L 919.138612 247.550096 
L 919.713833 244.290566 
L 920.289054 226.382366 
L 921.439495 177.370601 
L 922.014716 159.122794 
L 922.589936 149.077861 
L 923.165157 147.167134 
L 923.740378 151.557796 
L 925.46604 176.626213 
L 926.616481 192.589998 
L 927.191702 197.259062 
L 927.766922 197.051714 
L 928.342143 192.455005 
L 928.917364 186.303619 
L 929.492584 182.156339 
L 930.067805 182.810271 
L 930.643026 189.395084 
L 931.793467 208.993579 
L 932.368688 206.392444 
L 932.943908 187.403909 
L 934.09435 129.503415 
L 934.66957 117.402526 
L 935.244791 127.39445 
L 935.820012 157.330924 
L 936.970453 239.656638 
L 937.545674 265.013754 
L 938.120894 261.594592 
L 938.696115 226.665627 
L 939.846556 121.481385 
L 940.421777 93.687451 
L 940.996998 99.114159 
L 941.572218 135.529525 
L 942.72266 244.463385 
L 943.29788 272.932545 
L 943.873101 261.498379 
L 944.448322 215.93176 
L 945.023542 159.163049 
L 945.598763 116.690428 
L 946.173984 103.703927 
L 946.749204 121.832662 
L 947.899646 203.578322 
L 948.474866 231.044923 
L 949.050087 235.706526 
L 949.625308 222.174674 
L 950.775749 178.562515 
L 951.35097 161.370135 
L 951.92619 151.038472 
L 952.501411 148.496505 
L 953.076632 154.268071 
L 953.651852 167.681587 
L 954.802294 200.563879 
L 955.377514 208.817897 
L 955.952735 208.089922 
L 956.527956 200.18857 
L 958.253618 166.434722 
L 958.828838 159.449345 
L 959.404059 158.874063 
L 959.97928 166.259387 
L 961.129721 195.877204 
L 961.704942 205.155643 
L 962.280162 202.159245 
L 963.430604 174.279787 
L 964.005824 167.433116 
L 964.581045 172.007442 
L 965.156266 184.090191 
L 965.731486 192.644308 
L 966.306707 187.863406 
L 966.881928 172.267191 
L 967.457148 159.9973 
L 968.032369 164.040762 
L 968.60759 186.216862 
L 969.18281 212.74953 
L 969.758031 219.615443 
L 970.333252 195.548136 
L 970.908472 157.959822 
L 971.483693 137.358006 
L 972.058914 150.873287 
L 973.209355 221.92334 
L 973.784576 217.989365 
L 974.935017 151.622083 
L 975.510238 147.901702 
L 976.660679 203.942092 
L 977.2359 211.092393 
L 977.81112 192.282099 
L 978.386341 168.605197 
L 978.961562 160.226163 
L 979.536782 171.46157 
L 980.112003 189.180171 
L 980.687224 195.819164 
L 981.262444 187.965805 
L 981.837665 176.470363 
L 982.412886 172.668613 
L 982.988106 179.313696 
L 983.563327 188.360677 
L 984.138548 189.429553 
L 985.288989 175.21772 
L 985.86421 175.183616 
L 987.014651 187.260283 
L 987.589872 186.645275 
L 988.165092 182.148092 
L 988.740313 178.798761 
L 989.315534 178.730666 
L 990.465975 182.79567 
L 991.041196 183.716834 
L 991.616416 183.548639 
L 992.766858 181.398435 
L 993.342078 180.830088 
L 994.49252 179.096362 
L 995.06774 180.416806 
L 996.218182 189.871421 
L 996.218182 189.871421 
" style="fill:none;stroke:#4c72b0;stroke-linecap:round;stroke-width:1.4;"/>
   </g>
   <g id="patch_3">
    <path d="M 144 320.4 
L 144 43.2 
" style="fill:none;"/>
   </g>
   <g id="patch_4">
    <path d="M 1036.8 320.4 
L 1036.8 43.2 
" style="fill:none;"/>
   </g>
   <g id="patch_5">
    <path d="M 144 320.4 
L 1036.8 320.4 
" style="fill:none;"/>
   </g>
   <g id="patch_6">
    <path d="M 144 43.2 
L 1036.8 43.2 
" style="fill:none;"/>
   </g>
  </g>
 </g>
 <defs>
  <clipPath id="p66a27e9bf7">
   <rect height="277.2" width="892.8" x="144" y="43.2"/>
  </clipPath>
 </defs>
</svg>
