<?xml version="1.0" encoding="utf-8" standalone="no"?>
<!DOCTYPE svg PUBLIC "-//W3C//DTD SVG 1.1//EN"
  "http://www.w3.org/Graphics/SVG/1.1/DTD/svg11.dtd">
<!-- Created with matplotlib (http://matplotlib.org/) -->
<svg height="360pt" version="1.1" viewBox="0 0 1152 360" width="1152pt" xmlns="http://www.w3.org/2000/svg" xmlns:xlink="http://www.w3.org/1999/xlink">
 <defs>
  <style type="text/css">
*{stroke-linecap:butt;stroke-linejoin:round;}
  </style>
 </defs>
 <g id="figure_1">
  <g id="patch_1">
   <path d="M 0 360 
L 1152 360 
L 1152 0 
L 0 0 
z
" style="fill:#ffffff;"/>
  </g>
  <g id="axes_1">
   <g id="patch_2">
    <path d="M 144 320.4 
L 1036.8 320.4 
L 1036.8 43.2 
L 144 43.2 
z
" style="fill:#eaeaf2;"/>
   </g>
   <g id="matplotlib.axis_1">
    <g id="xtick_1">
     <g id="line2d_1">
      <path clip-path="url(#p541bb564c5)" d="M 184.581818 320.4 
L 184.581818 43.2 
" style="fill:none;stroke:#ffffff;stroke-linecap:round;stroke-width:0.8;"/>
     </g>
     <g id="line2d_2"/>
     <g id="text_1">
      <!-- 0.000 -->
      <defs>
       <path d="M 51.703125 34.421875 
Q 51.703125 24.515625 49.828125 17.75 
Q 47.953125 10.984375 44.703125 6.8125 
Q 41.453125 2.640625 37.0625 0.828125 
Q 32.671875 -0.984375 27.6875 -0.984375 
Q 22.65625 -0.984375 18.3125 0.828125 
Q 13.96875 2.640625 10.765625 6.78125 
Q 7.5625 10.9375 5.734375 17.703125 
Q 3.90625 24.46875 3.90625 34.421875 
Q 3.90625 44.828125 5.734375 51.640625 
Q 7.5625 58.453125 10.78125 62.5 
Q 14.015625 66.546875 18.40625 68.1875 
Q 22.796875 69.828125 27.984375 69.828125 
Q 32.90625 69.828125 37.21875 68.1875 
Q 41.546875 66.546875 44.765625 62.5 
Q 48 58.453125 49.84375 51.640625 
Q 51.703125 44.828125 51.703125 34.421875 
M 42.78125 34.421875 
Q 42.78125 42.625 41.796875 48.0625 
Q 40.828125 53.515625 38.921875 56.765625 
Q 37.015625 60.015625 34.25 61.359375 
Q 31.5 62.703125 27.984375 62.703125 
Q 24.265625 62.703125 21.4375 61.328125 
Q 18.609375 59.96875 16.671875 56.71875 
Q 14.75 53.46875 13.765625 48.015625 
Q 12.796875 42.578125 12.796875 34.421875 
Q 12.796875 26.515625 13.796875 21.09375 
Q 14.796875 15.671875 16.71875 12.375 
Q 18.65625 9.078125 21.4375 7.640625 
Q 24.21875 6.203125 27.78125 6.203125 
Q 31.25 6.203125 34.03125 7.640625 
Q 36.8125 9.078125 38.734375 12.375 
Q 40.671875 15.671875 41.71875 21.09375 
Q 42.78125 26.515625 42.78125 34.421875 
" id="LiberationSans-30"/>
       <path d="M 9.125 0 
L 9.125 10.6875 
L 18.65625 10.6875 
L 18.65625 0 
z
" id="LiberationSans-2e"/>
      </defs>
      <g style="fill:#262626;" transform="translate(174.573068 331.7975)scale(0.08 -0.08)">
       <use xlink:href="#LiberationSans-30"/>
       <use x="55.615234" xlink:href="#LiberationSans-2e"/>
       <use x="83.398438" xlink:href="#LiberationSans-30"/>
       <use x="139.013672" xlink:href="#LiberationSans-30"/>
       <use x="194.628906" xlink:href="#LiberationSans-30"/>
      </g>
     </g>
    </g>
    <g id="xtick_2">
     <g id="line2d_3">
      <path clip-path="url(#p541bb564c5)" d="M 311.238448 320.4 
L 311.238448 43.2 
" style="fill:none;stroke:#ffffff;stroke-linecap:round;stroke-width:0.8;"/>
     </g>
     <g id="line2d_4"/>
     <g id="text_2">
      <!-- 0.005 -->
      <defs>
       <path d="M 51.421875 22.40625 
Q 51.421875 17.234375 49.859375 12.9375 
Q 48.296875 8.640625 45.21875 5.53125 
Q 42.140625 2.4375 37.578125 0.71875 
Q 33.015625 -0.984375 27 -0.984375 
Q 21.578125 -0.984375 17.546875 0.28125 
Q 13.53125 1.5625 10.734375 3.78125 
Q 7.953125 6 6.3125 8.984375 
Q 4.6875 11.96875 4 15.375 
L 12.890625 16.40625 
Q 13.421875 14.453125 14.390625 12.625 
Q 15.375 10.796875 17.0625 9.34375 
Q 18.75 7.90625 21.21875 7.046875 
Q 23.6875 6.203125 27.203125 6.203125 
Q 30.609375 6.203125 33.390625 7.25 
Q 36.1875 8.296875 38.15625 10.34375 
Q 40.140625 12.40625 41.203125 15.375 
Q 42.28125 18.359375 42.28125 22.21875 
Q 42.28125 25.390625 41.25 28.046875 
Q 40.234375 30.71875 38.328125 32.640625 
Q 36.421875 34.578125 33.65625 35.640625 
Q 30.90625 36.71875 27.390625 36.71875 
Q 25.203125 36.71875 23.34375 36.328125 
Q 21.484375 35.9375 19.890625 35.25 
Q 18.3125 34.578125 17.015625 33.671875 
Q 15.71875 32.765625 14.59375 31.78125 
L 6 31.78125 
L 8.296875 68.796875 
L 47.40625 68.796875 
L 47.40625 61.328125 
L 16.3125 61.328125 
L 14.984375 39.5 
Q 17.328125 41.3125 20.84375 42.59375 
Q 24.359375 43.890625 29.203125 43.890625 
Q 34.328125 43.890625 38.421875 42.328125 
Q 42.53125 40.765625 45.40625 37.90625 
Q 48.296875 35.0625 49.859375 31.109375 
Q 51.421875 27.15625 51.421875 22.40625 
" id="LiberationSans-35"/>
      </defs>
      <g style="fill:#262626;" transform="translate(301.229698 331.7975)scale(0.08 -0.08)">
       <use xlink:href="#LiberationSans-30"/>
       <use x="55.615234" xlink:href="#LiberationSans-2e"/>
       <use x="83.398438" xlink:href="#LiberationSans-30"/>
       <use x="139.013672" xlink:href="#LiberationSans-30"/>
       <use x="194.628906" xlink:href="#LiberationSans-35"/>
      </g>
     </g>
    </g>
    <g id="xtick_3">
     <g id="line2d_5">
      <path clip-path="url(#p541bb564c5)" d="M 437.895078 320.4 
L 437.895078 43.2 
" style="fill:none;stroke:#ffffff;stroke-linecap:round;stroke-width:0.8;"/>
     </g>
     <g id="line2d_6"/>
     <g id="text_3">
      <!-- 0.010 -->
      <defs>
       <path d="M 7.625 0 
L 7.625 7.46875 
L 25.140625 7.46875 
L 25.140625 60.40625 
L 9.625 49.3125 
L 9.625 57.625 
L 25.875 68.796875 
L 33.984375 68.796875 
L 33.984375 7.46875 
L 50.734375 7.46875 
L 50.734375 0 
z
" id="LiberationSans-31"/>
      </defs>
      <g style="fill:#262626;" transform="translate(427.886328 331.7975)scale(0.08 -0.08)">
       <use xlink:href="#LiberationSans-30"/>
       <use x="55.615234" xlink:href="#LiberationSans-2e"/>
       <use x="83.398438" xlink:href="#LiberationSans-30"/>
       <use x="139.013672" xlink:href="#LiberationSans-31"/>
       <use x="194.628906" xlink:href="#LiberationSans-30"/>
      </g>
     </g>
    </g>
    <g id="xtick_4">
     <g id="line2d_7">
      <path clip-path="url(#p541bb564c5)" d="M 564.551708 320.4 
L 564.551708 43.2 
" style="fill:none;stroke:#ffffff;stroke-linecap:round;stroke-width:0.8;"/>
     </g>
     <g id="line2d_8"/>
     <g id="text_4">
      <!-- 0.015 -->
      <g style="fill:#262626;" transform="translate(554.542958 331.7975)scale(0.08 -0.08)">
       <use xlink:href="#LiberationSans-30"/>
       <use x="55.615234" xlink:href="#LiberationSans-2e"/>
       <use x="83.398438" xlink:href="#LiberationSans-30"/>
       <use x="139.013672" xlink:href="#LiberationSans-31"/>
       <use x="194.628906" xlink:href="#LiberationSans-35"/>
      </g>
     </g>
    </g>
    <g id="xtick_5">
     <g id="line2d_9">
      <path clip-path="url(#p541bb564c5)" d="M 691.208338 320.4 
L 691.208338 43.2 
" style="fill:none;stroke:#ffffff;stroke-linecap:round;stroke-width:0.8;"/>
     </g>
     <g id="line2d_10"/>
     <g id="text_5">
      <!-- 0.020 -->
      <defs>
       <path d="M 5.03125 0 
L 5.03125 6.203125 
Q 7.515625 11.921875 11.109375 16.28125 
Q 14.703125 20.65625 18.65625 24.1875 
Q 22.609375 27.734375 26.484375 30.765625 
Q 30.375 33.796875 33.5 36.8125 
Q 36.625 39.84375 38.546875 43.15625 
Q 40.484375 46.484375 40.484375 50.6875 
Q 40.484375 53.609375 39.59375 55.828125 
Q 38.71875 58.0625 37.0625 59.5625 
Q 35.40625 61.078125 33.078125 61.828125 
Q 30.765625 62.59375 27.9375 62.59375 
Q 25.296875 62.59375 22.96875 61.859375 
Q 20.65625 61.140625 18.84375 59.671875 
Q 17.046875 58.203125 15.890625 56.03125 
Q 14.75 53.859375 14.40625 50.984375 
L 5.421875 51.8125 
Q 5.859375 55.515625 7.46875 58.78125 
Q 9.078125 62.0625 11.90625 64.53125 
Q 14.75 67 18.71875 68.40625 
Q 22.703125 69.828125 27.9375 69.828125 
Q 33.0625 69.828125 37.0625 68.609375 
Q 41.0625 67.390625 43.8125 64.984375 
Q 46.578125 62.59375 48.046875 59.078125 
Q 49.515625 55.5625 49.515625 50.984375 
Q 49.515625 47.515625 48.265625 44.390625 
Q 47.015625 41.265625 44.9375 38.421875 
Q 42.875 35.59375 40.140625 32.953125 
Q 37.40625 30.328125 34.421875 27.8125 
Q 31.453125 25.296875 28.421875 22.828125 
Q 25.390625 20.359375 22.71875 17.859375 
Q 20.0625 15.375 17.96875 12.8125 
Q 15.875 10.25 14.703125 7.46875 
L 50.59375 7.46875 
L 50.59375 0 
z
" id="LiberationSans-32"/>
      </defs>
      <g style="fill:#262626;" transform="translate(681.199588 331.7975)scale(0.08 -0.08)">
       <use xlink:href="#LiberationSans-30"/>
       <use x="55.615234" xlink:href="#LiberationSans-2e"/>
       <use x="83.398438" xlink:href="#LiberationSans-30"/>
       <use x="139.013672" xlink:href="#LiberationSans-32"/>
       <use x="194.628906" xlink:href="#LiberationSans-30"/>
      </g>
     </g>
    </g>
    <g id="xtick_6">
     <g id="line2d_11">
      <path clip-path="url(#p541bb564c5)" d="M 817.864968 320.4 
L 817.864968 43.2 
" style="fill:none;stroke:#ffffff;stroke-linecap:round;stroke-width:0.8;"/>
     </g>
     <g id="line2d_12"/>
     <g id="text_6">
      <!-- 0.025 -->
      <g style="fill:#262626;" transform="translate(807.856218 331.7975)scale(0.08 -0.08)">
       <use xlink:href="#LiberationSans-30"/>
       <use x="55.615234" xlink:href="#LiberationSans-2e"/>
       <use x="83.398438" xlink:href="#LiberationSans-30"/>
       <use x="139.013672" xlink:href="#LiberationSans-32"/>
       <use x="194.628906" xlink:href="#LiberationSans-35"/>
      </g>
     </g>
    </g>
    <g id="xtick_7">
     <g id="line2d_13">
      <path clip-path="url(#p541bb564c5)" d="M 944.521598 320.4 
L 944.521598 43.2 
" style="fill:none;stroke:#ffffff;stroke-linecap:round;stroke-width:0.8;"/>
     </g>
     <g id="line2d_14"/>
     <g id="text_7">
      <!-- 0.030 -->
      <defs>
       <path d="M 51.21875 19 
Q 51.21875 14.265625 49.671875 10.546875 
Q 48.140625 6.84375 45.1875 4.265625 
Q 42.234375 1.703125 37.859375 0.359375 
Q 33.5 -0.984375 27.875 -0.984375 
Q 21.484375 -0.984375 17.109375 0.609375 
Q 12.75 2.203125 9.90625 4.8125 
Q 7.078125 7.421875 5.65625 10.765625 
Q 4.25 14.109375 3.8125 17.671875 
L 12.890625 18.5 
Q 13.28125 15.765625 14.328125 13.515625 
Q 15.375 11.28125 17.1875 9.671875 
Q 19 8.0625 21.625 7.171875 
Q 24.265625 6.296875 27.875 6.296875 
Q 34.515625 6.296875 38.296875 9.5625 
Q 42.09375 12.84375 42.09375 19.28125 
Q 42.09375 23.09375 40.40625 25.40625 
Q 38.71875 27.734375 36.203125 29.03125 
Q 33.6875 30.328125 30.734375 30.765625 
Q 27.78125 31.203125 25.296875 31.203125 
L 20.3125 31.203125 
L 20.3125 38.8125 
L 25.09375 38.8125 
Q 27.59375 38.8125 30.265625 39.328125 
Q 32.953125 39.84375 35.171875 41.1875 
Q 37.40625 42.53125 38.84375 44.828125 
Q 40.28125 47.125 40.28125 50.6875 
Q 40.28125 56.203125 37.03125 59.390625 
Q 33.796875 62.59375 27.390625 62.59375 
Q 21.578125 62.59375 17.984375 59.609375 
Q 14.40625 56.640625 13.8125 51.21875 
L 4.984375 51.90625 
Q 5.515625 56.453125 7.46875 59.8125 
Q 9.421875 63.1875 12.421875 65.40625 
Q 15.4375 67.625 19.28125 68.71875 
Q 23.140625 69.828125 27.484375 69.828125 
Q 33.25 69.828125 37.390625 68.375 
Q 41.546875 66.9375 44.1875 64.46875 
Q 46.828125 62.015625 48.0625 58.6875 
Q 49.3125 55.375 49.3125 51.609375 
Q 49.3125 48.578125 48.484375 45.9375 
Q 47.65625 43.3125 45.890625 41.203125 
Q 44.140625 39.109375 41.421875 37.59375 
Q 38.71875 36.078125 34.90625 35.296875 
L 34.90625 35.109375 
Q 39.0625 34.671875 42.140625 33.21875 
Q 45.21875 31.78125 47.21875 29.625 
Q 49.21875 27.484375 50.21875 24.75 
Q 51.21875 22.015625 51.21875 19 
" id="LiberationSans-33"/>
      </defs>
      <g style="fill:#262626;" transform="translate(934.512848 331.7975)scale(0.08 -0.08)">
       <use xlink:href="#LiberationSans-30"/>
       <use x="55.615234" xlink:href="#LiberationSans-2e"/>
       <use x="83.398438" xlink:href="#LiberationSans-30"/>
       <use x="139.013672" xlink:href="#LiberationSans-33"/>
       <use x="194.628906" xlink:href="#LiberationSans-30"/>
      </g>
     </g>
    </g>
   </g>
   <g id="matplotlib.axis_2">
    <g id="ytick_1">
     <g id="line2d_15">
      <path clip-path="url(#p541bb564c5)" d="M 144 286.165939 
L 1036.8 286.165939 
" style="fill:none;stroke:#ffffff;stroke-linecap:round;stroke-width:0.8;"/>
     </g>
     <g id="line2d_16"/>
     <g id="text_8">
      <!-- −2 -->
      <defs>
       <path d="M 4.9375 29.6875 
L 4.9375 36.8125 
L 53.515625 36.8125 
L 53.515625 29.6875 
z
" id="LiberationSans-2212"/>
      </defs>
      <g style="fill:#262626;" transform="translate(129.27875 289.064689)scale(0.08 -0.08)">
       <use xlink:href="#LiberationSans-2212"/>
       <use x="58.398438" xlink:href="#LiberationSans-32"/>
      </g>
     </g>
    </g>
    <g id="ytick_2">
     <g id="line2d_17">
      <path clip-path="url(#p541bb564c5)" d="M 144 247.483041 
L 1036.8 247.483041 
" style="fill:none;stroke:#ffffff;stroke-linecap:round;stroke-width:0.8;"/>
     </g>
     <g id="line2d_18"/>
     <g id="text_9">
      <!-- 0 -->
      <g style="fill:#262626;" transform="translate(133.95125 250.381791)scale(0.08 -0.08)">
       <use xlink:href="#LiberationSans-30"/>
      </g>
     </g>
    </g>
    <g id="ytick_3">
     <g id="line2d_19">
      <path clip-path="url(#p541bb564c5)" d="M 144 208.800144 
L 1036.8 208.800144 
" style="fill:none;stroke:#ffffff;stroke-linecap:round;stroke-width:0.8;"/>
     </g>
     <g id="line2d_20"/>
     <g id="text_10">
      <!-- 2 -->
      <g style="fill:#262626;" transform="translate(133.95125 211.698894)scale(0.08 -0.08)">
       <use xlink:href="#LiberationSans-32"/>
      </g>
     </g>
    </g>
    <g id="ytick_4">
     <g id="line2d_21">
      <path clip-path="url(#p541bb564c5)" d="M 144 170.117247 
L 1036.8 170.117247 
" style="fill:none;stroke:#ffffff;stroke-linecap:round;stroke-width:0.8;"/>
     </g>
     <g id="line2d_22"/>
     <g id="text_11">
      <!-- 4 -->
      <defs>
       <path d="M 43.015625 15.578125 
L 43.015625 0 
L 34.71875 0 
L 34.71875 15.578125 
L 2.296875 15.578125 
L 2.296875 22.40625 
L 33.796875 68.796875 
L 43.015625 68.796875 
L 43.015625 22.515625 
L 52.6875 22.515625 
L 52.6875 15.578125 
z
M 34.71875 58.890625 
Q 34.625 58.640625 34.234375 57.9375 
Q 33.84375 57.234375 33.34375 56.34375 
Q 32.859375 55.46875 32.34375 54.5625 
Q 31.84375 53.65625 31.453125 53.078125 
L 13.8125 27.09375 
Q 13.578125 26.703125 13.109375 26.0625 
Q 12.640625 25.4375 12.15625 24.78125 
Q 11.671875 24.125 11.171875 23.484375 
Q 10.6875 22.859375 10.40625 22.515625 
L 34.71875 22.515625 
z
" id="LiberationSans-34"/>
      </defs>
      <g style="fill:#262626;" transform="translate(133.95125 173.015997)scale(0.08 -0.08)">
       <use xlink:href="#LiberationSans-34"/>
      </g>
     </g>
    </g>
    <g id="ytick_5">
     <g id="line2d_23">
      <path clip-path="url(#p541bb564c5)" d="M 144 131.43435 
L 1036.8 131.43435 
" style="fill:none;stroke:#ffffff;stroke-linecap:round;stroke-width:0.8;"/>
     </g>
     <g id="line2d_24"/>
     <g id="text_12">
      <!-- 6 -->
      <defs>
       <path d="M 51.21875 22.515625 
Q 51.21875 17.328125 49.78125 13 
Q 48.34375 8.6875 45.53125 5.578125 
Q 42.71875 2.484375 38.5625 0.75 
Q 34.421875 -0.984375 29 -0.984375 
Q 23 -0.984375 18.5 1.3125 
Q 14.015625 3.609375 11.03125 7.921875 
Q 8.0625 12.25 6.5625 18.53125 
Q 5.078125 24.8125 5.078125 32.8125 
Q 5.078125 42 6.765625 48.921875 
Q 8.453125 55.859375 11.625 60.5 
Q 14.796875 65.140625 19.359375 67.484375 
Q 23.921875 69.828125 29.6875 69.828125 
Q 33.203125 69.828125 36.28125 69.09375 
Q 39.359375 68.359375 41.875 66.71875 
Q 44.390625 65.09375 46.28125 62.40625 
Q 48.1875 59.71875 49.3125 55.8125 
L 40.921875 54.296875 
Q 39.546875 58.734375 36.546875 60.71875 
Q 33.546875 62.703125 29.59375 62.703125 
Q 25.984375 62.703125 23.046875 60.984375 
Q 20.125 59.28125 18.0625 55.875 
Q 16.015625 52.484375 14.90625 47.359375 
Q 13.8125 42.234375 13.8125 35.40625 
Q 16.21875 39.84375 20.5625 42.15625 
Q 24.90625 44.484375 30.515625 44.484375 
Q 35.203125 44.484375 39.015625 42.96875 
Q 42.828125 41.453125 45.53125 38.59375 
Q 48.25 35.75 49.734375 31.671875 
Q 51.21875 27.59375 51.21875 22.515625 
M 42.28125 22.125 
Q 42.28125 25.6875 41.40625 28.5625 
Q 40.53125 31.453125 38.765625 33.46875 
Q 37.015625 35.5 34.421875 36.59375 
Q 31.84375 37.703125 28.421875 37.703125 
Q 26.03125 37.703125 23.578125 36.984375 
Q 21.140625 36.28125 19.15625 34.6875 
Q 17.1875 33.109375 15.9375 30.515625 
Q 14.703125 27.9375 14.703125 24.21875 
Q 14.703125 20.40625 15.671875 17.109375 
Q 16.65625 13.8125 18.484375 11.375 
Q 20.3125 8.9375 22.890625 7.515625 
Q 25.484375 6.109375 28.71875 6.109375 
Q 31.890625 6.109375 34.40625 7.203125 
Q 36.921875 8.296875 38.671875 10.375 
Q 40.4375 12.453125 41.359375 15.421875 
Q 42.28125 18.40625 42.28125 22.125 
" id="LiberationSans-36"/>
      </defs>
      <g style="fill:#262626;" transform="translate(133.95125 134.3331)scale(0.08 -0.08)">
       <use xlink:href="#LiberationSans-36"/>
      </g>
     </g>
    </g>
    <g id="ytick_6">
     <g id="line2d_25">
      <path clip-path="url(#p541bb564c5)" d="M 144 92.751452 
L 1036.8 92.751452 
" style="fill:none;stroke:#ffffff;stroke-linecap:round;stroke-width:0.8;"/>
     </g>
     <g id="line2d_26"/>
     <g id="text_13">
      <!-- 8 -->
      <defs>
       <path d="M 51.265625 19.1875 
Q 51.265625 14.796875 49.875 11.109375 
Q 48.484375 7.421875 45.625 4.734375 
Q 42.78125 2.046875 38.328125 0.53125 
Q 33.890625 -0.984375 27.828125 -0.984375 
Q 21.78125 -0.984375 17.359375 0.53125 
Q 12.9375 2.046875 10.03125 4.703125 
Q 7.125 7.375 5.734375 11.0625 
Q 4.34375 14.75 4.34375 19.09375 
Q 4.34375 22.859375 5.484375 25.78125 
Q 6.640625 28.71875 8.5625 30.828125 
Q 10.5 32.953125 12.96875 34.25 
Q 15.4375 35.546875 18.0625 35.984375 
L 18.0625 36.1875 
Q 15.1875 36.859375 12.90625 38.375 
Q 10.640625 39.890625 9.09375 42.015625 
Q 7.5625 44.140625 6.75 46.71875 
Q 5.953125 49.3125 5.953125 52.203125 
Q 5.953125 55.8125 7.34375 59 
Q 8.734375 62.203125 11.46875 64.625 
Q 14.203125 67.046875 18.25 68.4375 
Q 22.3125 69.828125 27.640625 69.828125 
Q 33.25 69.828125 37.375 68.40625 
Q 41.5 67 44.203125 64.578125 
Q 46.921875 62.15625 48.234375 58.9375 
Q 49.5625 55.71875 49.5625 52.09375 
Q 49.5625 49.265625 48.75 46.671875 
Q 47.953125 44.09375 46.40625 41.96875 
Q 44.875 39.84375 42.59375 38.34375 
Q 40.328125 36.859375 37.359375 36.28125 
L 37.359375 36.078125 
Q 40.328125 35.59375 42.859375 34.296875 
Q 45.40625 33.015625 47.265625 30.890625 
Q 49.125 28.765625 50.1875 25.828125 
Q 51.265625 22.90625 51.265625 19.1875 
M 40.4375 51.609375 
Q 40.4375 54.203125 39.765625 56.34375 
Q 39.109375 58.5 37.59375 60.03125 
Q 36.078125 61.578125 33.640625 62.421875 
Q 31.203125 63.28125 27.640625 63.28125 
Q 24.171875 63.28125 21.78125 62.421875 
Q 19.390625 61.578125 17.84375 60.03125 
Q 16.3125 58.5 15.625 56.34375 
Q 14.9375 54.203125 14.9375 51.609375 
Q 14.9375 49.5625 15.46875 47.40625 
Q 16.015625 45.265625 17.421875 43.5 
Q 18.84375 41.75 21.328125 40.625 
Q 23.828125 39.5 27.734375 39.5 
Q 31.890625 39.5 34.40625 40.625 
Q 36.921875 41.75 38.25 43.5 
Q 39.59375 45.265625 40.015625 47.40625 
Q 40.4375 49.5625 40.4375 51.609375 
M 42.140625 20.015625 
Q 42.140625 22.515625 41.453125 24.828125 
Q 40.765625 27.15625 39.109375 28.9375 
Q 37.453125 30.71875 34.640625 31.8125 
Q 31.84375 32.90625 27.640625 32.90625 
Q 23.78125 32.90625 21.0625 31.8125 
Q 18.359375 30.71875 16.671875 28.90625 
Q 14.984375 27.09375 14.203125 24.71875 
Q 13.421875 22.359375 13.421875 19.828125 
Q 13.421875 16.65625 14.203125 14.03125 
Q 14.984375 11.421875 16.6875 9.546875 
Q 18.40625 7.671875 21.1875 6.640625 
Q 23.96875 5.609375 27.9375 5.609375 
Q 31.9375 5.609375 34.671875 6.640625 
Q 37.40625 7.671875 39.0625 9.546875 
Q 40.71875 11.421875 41.421875 14.078125 
Q 42.140625 16.75 42.140625 20.015625 
" id="LiberationSans-38"/>
      </defs>
      <g style="fill:#262626;" transform="translate(133.95125 95.650202)scale(0.08 -0.08)">
       <use xlink:href="#LiberationSans-38"/>
      </g>
     </g>
    </g>
    <g id="ytick_7">
     <g id="line2d_27">
      <path clip-path="url(#p541bb564c5)" d="M 144 54.068555 
L 1036.8 54.068555 
" style="fill:none;stroke:#ffffff;stroke-linecap:round;stroke-width:0.8;"/>
     </g>
     <g id="line2d_28"/>
     <g id="text_14">
      <!-- 10 -->
      <g style="fill:#262626;" transform="translate(129.5025 56.967305)scale(0.08 -0.08)">
       <use xlink:href="#LiberationSans-31"/>
       <use x="55.615234" xlink:href="#LiberationSans-30"/>
      </g>
     </g>
    </g>
   </g>
   <g id="line2d_29">
    <path clip-path="url(#p541bb564c5)" d="M 184.581818 97.552247 
L 185.730631 116.331 
L 187.453851 149.14155 
L 191.474696 229.210088 
L 193.197915 257.813647 
L 194.346728 273.071822 
L 195.495541 284.476129 
L 196.069948 288.53576 
L 196.644354 291.408234 
L 197.218761 293.036644 
L 197.793167 293.376992 
L 198.367574 292.400873 
L 198.94198 290.098011 
L 199.516387 286.478472 
L 200.090793 281.574382 
L 201.239606 268.157116 
L 202.388419 250.566371 
L 204.111639 218.747645 
L 206.983671 162.813811 
L 208.132484 143.535073 
L 209.281297 127.760988 
L 210.43011 116.245681 
L 211.004517 112.230005 
L 211.578923 109.413468 
L 212.153329 107.802415 
L 212.727736 107.388029 
L 213.302142 108.14858 
L 213.876549 110.051662 
L 214.450955 113.056259 
L 215.025362 117.114497 
L 216.174175 128.173682 
L 217.322988 142.747956 
L 218.471801 160.282167 
L 220.19502 190.678652 
L 224.215866 264.866382 
L 225.364679 281.839416 
L 226.513492 294.778063 
L 227.087898 299.425809 
L 227.662305 302.729741 
L 228.236711 304.620414 
L 228.811118 305.053375 
L 229.385524 304.010662 
L 229.959931 301.501436 
L 230.534337 297.561699 
L 231.108743 292.253121 
L 232.257556 277.891724 
L 233.406369 259.330925 
L 235.129589 226.127621 
L 239.150434 144.483976 
L 240.299247 124.653107 
L 241.44806 107.782927 
L 242.596873 94.453014 
L 243.17128 89.275463 
L 243.745686 85.165845 
L 244.320093 82.175109 
L 244.894499 80.347872 
L 245.468906 79.720813 
L 246.043312 80.32072 
L 246.617719 82.162304 
L 247.192125 85.245931 
L 247.766532 89.555445 
L 248.340938 95.056255 
L 249.489751 109.392843 
L 250.638564 127.568839 
L 252.361783 159.750089 
L 255.233816 215.150574 
L 256.382629 233.77324 
L 257.531442 248.5684 
L 258.105848 254.268846 
L 258.680255 258.743768 
L 259.254661 261.951751 
L 259.829068 263.873898 
L 260.403474 264.512342 
L 260.977881 263.888203 
L 261.552287 262.03916 
L 262.126694 259.016801 
L 262.7011 254.883933 
L 263.849913 243.57893 
L 264.998726 228.761658 
L 266.147539 211.123266 
L 267.870759 180.971714 
L 271.891604 107.914303 
L 273.040417 90.723679 
L 274.18923 77.118895 
L 274.763636 71.971598 
L 275.338043 68.070734 
L 275.912449 65.503267 
L 276.486856 64.33599 
L 277.061262 64.612785 
L 277.635669 66.352528 
L 278.210075 69.547761 
L 278.784482 74.164224 
L 279.358888 80.141285 
L 280.507701 95.811605 
L 281.656514 115.616766 
L 283.379734 150.408203 
L 286.826173 222.032364 
L 287.974986 242.310647 
L 289.123798 259.39944 
L 290.272611 272.759047 
L 290.847018 277.913869 
L 291.421424 281.999763 
L 291.995831 284.985381 
L 292.570237 286.845138 
L 293.144644 287.559315 
L 293.71905 287.114657 
L 294.293457 285.505415 
L 294.867863 282.734786 
L 295.44227 278.816612 
L 296.016676 273.77723 
L 297.165489 260.51339 
L 298.314302 243.467012 
L 300.037522 212.646685 
L 303.483961 147.276915 
L 304.632774 129.473352 
L 305.781587 115.729866 
L 306.355993 110.653307 
L 306.9304 106.872063 
L 307.504806 104.428685 
L 308.079213 103.34065 
L 308.653619 103.601336 
L 309.228025 105.181725 
L 309.802432 108.032719 
L 310.376838 112.087896 
L 310.951245 117.266545 
L 312.100058 130.618558 
L 313.248871 147.272157 
L 314.97209 176.54318 
L 319.567342 259.355677 
L 320.716155 276.453376 
L 321.864968 290.293412 
L 322.439375 295.711322 
L 323.013781 299.98985 
L 323.588188 303.038034 
L 324.162594 304.778809 
L 324.737001 305.152181 
L 325.311407 304.118148 
L 325.885814 301.659171 
L 326.46022 297.782054 
L 327.034627 292.519085 
L 328.183439 278.093177 
L 329.332252 259.139429 
L 331.055472 224.683891 
L 334.501911 151.111708 
L 335.650724 130.008508 
L 336.799537 112.27804 
L 337.94835 98.528588 
L 338.522756 93.269937 
L 339.097163 89.128423 
L 339.671569 86.120595 
L 340.245976 84.254309 
L 340.820382 83.530033 
L 341.394789 83.94176 
L 341.969195 85.477484 
L 342.543602 88.119175 
L 343.118008 91.842293 
L 343.692415 96.614879 
L 344.841228 109.135923 
L 345.990041 125.227629 
L 347.71326 154.554273 
L 351.734105 228.533515 
L 352.882918 245.267889 
L 354.031731 257.792695 
L 354.606138 262.198837 
L 355.180544 265.265178 
L 355.754951 266.946947 
L 356.329357 267.225839 
L 356.903764 266.109718 
L 357.47817 263.631471 
L 358.052577 259.84708 
L 358.626983 254.833049 
L 359.775796 241.505984 
L 360.924609 224.549823 
L 362.647829 194.539188 
L 366.668674 120.458387 
L 367.817487 102.20213 
L 368.9663 86.692531 
L 370.115113 74.682963 
L 370.689519 70.215906 
L 371.263926 66.884687 
L 371.838332 64.762594 
L 372.412739 63.911971 
L 372.987145 64.381385 
L 373.561552 66.202832 
L 374.135958 69.389154 
L 374.710365 73.931837 
L 375.284771 79.79936 
L 376.433584 95.262831 
L 377.582397 115.050792 
L 379.305617 150.419461 
L 382.752056 224.268652 
L 383.900869 244.763529 
L 385.049682 261.433416 
L 386.198494 273.667059 
L 386.772901 278.013265 
L 387.347307 281.156237 
L 387.921714 283.096961 
L 388.49612 283.848381 
L 389.070527 283.433348 
L 389.644933 281.882801 
L 390.21934 279.234289 
L 390.793746 275.530935 
L 391.368153 270.820886 
L 392.516966 258.598516 
L 393.665779 243.061359 
L 395.388998 214.915457 
L 399.98425 133.55337 
L 401.133063 118.097218 
L 402.281876 106.931027 
L 402.856283 103.23049 
L 403.430689 100.888492 
L 404.005096 99.951667 
L 404.579502 100.440075 
L 405.153909 102.34674 
L 405.728315 105.638097 
L 406.302721 110.255328 
L 406.877128 116.116478 
L 408.025941 131.144472 
L 409.174754 149.722482 
L 410.897973 181.716315 
L 413.770006 236.525953 
L 415.493225 264.956199 
L 416.642038 280.44962 
L 417.790851 292.442906 
L 418.365258 296.951126 
L 418.939664 300.381127 
L 419.514071 302.674631 
L 420.088477 303.779953 
L 420.662884 303.653883 
L 421.23729 302.263879 
L 421.811697 299.590441 
L 422.386103 295.62951 
L 422.96051 290.394704 
L 424.109323 276.257376 
L 425.258135 257.700645 
L 426.406948 235.590687 
L 428.704574 185.62487 
L 430.427794 148.814432 
L 431.576607 127.257662 
L 432.72542 109.444406 
L 433.874233 96.18369 
L 434.448639 91.415753 
L 435.023046 87.928094 
L 435.597452 85.7243 
L 436.171859 84.789985 
L 436.746265 85.095182 
L 437.320672 86.596869 
L 437.895078 89.241489 
L 438.469485 92.967282 
L 439.043891 97.706297 
L 440.192704 109.930305 
L 441.341517 125.294115 
L 443.064737 152.748545 
L 447.659988 232.026938 
L 448.808801 247.727432 
L 449.957614 259.593926 
L 450.532021 263.793385 
L 451.106427 266.709901 
L 451.680834 268.273316 
L 452.25524 268.436918 
L 452.829647 267.179418 
L 453.404053 264.506139 
L 453.97846 260.449315 
L 454.552866 255.067491 
L 455.701679 240.684828 
L 456.850492 222.276647 
L 458.573712 189.714743 
L 462.020151 122.541379 
L 463.168964 103.625217 
L 464.317776 87.823158 
L 465.466589 75.697408 
L 466.040996 71.152236 
L 466.615402 67.679824 
L 467.189809 65.318847 
L 467.764215 64.102522 
L 468.338622 64.058187 
L 468.913028 65.206404 
L 469.487435 67.559623 
L 470.061841 71.120496 
L 470.636248 75.879973 
L 471.785061 88.888168 
L 472.933874 106.205665 
L 474.082687 127.162839 
L 475.805906 163.227573 
L 478.677939 224.58917 
L 479.826752 245.406896 
L 480.975565 262.228337 
L 482.124378 274.207464 
L 482.698784 278.220185 
L 483.273191 280.878205 
L 483.847597 282.183359 
L 484.422003 282.15902 
L 484.99641 280.847764 
L 485.570816 278.308641 
L 486.145223 274.61424 
L 486.719629 269.847725 
L 487.868442 257.467248 
L 489.017255 241.945125 
L 490.740475 214.536023 
L 495.335727 136.929122 
L 496.48454 121.327531 
L 497.633353 109.158408 
L 498.207759 104.644676 
L 498.782166 101.311042 
L 499.356572 99.239806 
L 499.930979 98.495461 
L 500.505385 99.121766 
L 501.079792 101.139311 
L 501.654198 104.543743 
L 502.228605 109.304758 
L 502.803011 115.365949 
L 503.951824 131.03804 
L 505.100637 150.636397 
L 506.823856 184.702601 
L 509.695889 242.481898 
L 510.844702 262.285474 
L 511.993515 278.770522 
L 513.142328 291.322908 
L 513.716734 295.99374 
L 514.291141 299.548157 
L 514.865547 301.963476 
L 515.439954 303.224899 
L 516.01436 303.324474 
L 516.588767 302.26047 
L 517.163173 300.037215 
L 517.73758 296.66543 
L 518.311986 292.163009 
L 519.460799 279.880989 
L 520.609612 263.527996 
L 521.758425 243.646636 
L 523.481644 208.995541 
L 526.928083 136.885179 
L 528.076896 117.000185 
L 529.225709 101.278866 
L 529.800116 95.265757 
L 530.374522 90.590916 
L 530.948929 87.302435 
L 531.523335 85.422242 
L 532.097742 84.946558 
L 532.672148 85.847174 
L 533.246555 88.073473 
L 533.820961 91.555049 
L 534.395368 96.204761 
L 535.544181 108.596288 
L 536.692994 124.34236 
L 538.416213 152.131941 
L 542.437058 220.38387 
L 543.585871 236.963874 
L 544.734684 250.75459 
L 545.883497 260.960533 
L 546.457904 264.486125 
L 547.03231 266.850061 
L 547.606717 267.983526 
L 548.181123 267.83225 
L 548.75553 266.3594 
L 549.329936 263.548193 
L 549.904343 259.404064 
L 550.478749 253.956235 
L 551.627562 239.38947 
L 552.776375 220.568234 
L 554.499595 186.766142 
L 557.946034 116.303097 
L 559.094847 96.940025 
L 560.24366 81.377398 
L 561.392472 70.227919 
L 561.966879 66.420411 
L 562.541285 63.819045 
L 563.115692 62.428083 
L 563.690098 62.240774 
L 564.264505 63.241192 
L 564.838911 65.405811 
L 565.413318 68.704691 
L 565.987724 73.10221 
L 567.136537 85.023227 
L 568.28535 100.767902 
L 569.434163 119.816197 
L 571.157383 153.052413 
L 575.178228 234.502286 
L 576.327041 253.187021 
L 577.475854 267.613797 
L 578.050261 272.945181 
L 578.624667 276.91312 
L 579.199074 279.467336 
L 579.77348 280.584189 
L 580.347887 280.266969 
L 580.922293 278.545283 
L 581.496699 275.473585 
L 582.071106 271.128937 
L 583.219919 259.024381 
L 584.368732 243.180633 
L 586.091951 214.80779 
L 590.112797 145.775167 
L 591.26161 129.387796 
L 592.410423 115.835865 
L 593.559236 105.757306 
L 594.133642 102.206275 
L 594.708049 99.737784 
L 595.282455 98.411534 
L 595.856862 98.278272 
L 596.431268 99.37737 
L 597.005675 101.734278 
L 597.580081 105.358023 
L 598.154488 110.238913 
L 599.303301 123.628921 
L 600.452113 141.394848 
L 601.600926 162.672943 
L 603.898552 210.845266 
L 605.621772 246.206218 
L 606.770585 266.763881 
L 607.919398 283.565229 
L 609.068211 295.807103 
L 609.642617 300.061847 
L 610.217024 303.031326 
L 610.79143 304.708801 
L 611.365837 305.104456 
L 611.940243 304.243083 
L 612.51465 302.161677 
L 613.089056 298.907112 
L 613.663463 294.534045 
L 614.812276 282.679953 
L 615.961089 267.137757 
L 617.109902 248.508254 
L 618.833121 216.276186 
L 622.853966 136.584408 
L 624.002779 117.563104 
L 625.151592 102.325807 
L 625.725999 96.438571 
L 626.300405 91.840191 
L 626.874812 88.605668 
L 627.449218 86.786035 
L 628.023625 86.406488 
L 628.598031 87.465353 
L 629.172438 89.933955 
L 629.746844 93.757384 
L 630.321251 98.856138 
L 631.470064 112.453905 
L 632.618877 129.707128 
L 634.342096 159.789236 
L 637.214129 210.977956 
L 638.362942 228.773817 
L 639.511754 243.842797 
L 640.660567 255.595687 
L 641.234974 260.075153 
L 641.80938 263.552564 
L 642.383787 265.981037 
L 642.958193 267.318808 
L 643.5326 267.529963 
L 644.107006 266.585636 
L 644.681413 264.465625 
L 645.255819 261.160314 
L 645.830226 256.672767 
L 646.404632 251.02084 
L 647.553445 236.380708 
L 648.702258 217.744006 
L 650.425478 184.172416 
L 653.871917 112.474121 
L 655.02073 92.450156 
L 656.169543 76.46791 
L 656.743949 70.270358 
L 657.318356 65.370802 
L 657.892762 61.815834 
L 658.467169 59.628332 
L 659.041575 58.808678 
L 659.615981 59.336612 
L 660.190388 61.173584 
L 660.764794 64.265431 
L 661.339201 68.5452 
L 662.488014 80.353308 
L 663.636827 95.906713 
L 664.78564 114.457286 
L 666.508859 146.209512 
L 670.529705 223.992711 
L 671.678518 242.919248 
L 672.827331 258.500062 
L 673.976144 269.779185 
L 674.55055 273.555456 
L 675.124957 275.989285 
L 675.699363 277.031636 
L 676.27377 276.657342 
L 676.848176 274.866777 
L 677.422583 271.686718 
L 677.996989 267.170331 
L 678.571395 261.396252 
L 679.720208 246.505411 
L 680.869021 228.065798 
L 683.166647 185.722671 
L 684.889867 154.424256 
L 686.03868 135.962512 
L 687.187493 120.449143 
L 688.336306 108.506559 
L 688.910712 104.013719 
L 689.485119 100.56006 
L 690.059525 98.175216 
L 690.633932 96.881804 
L 691.208338 96.696188 
L 691.782745 97.628807 
L 692.357151 99.684015 
L 692.931558 102.859448 
L 693.505964 107.144951 
L 694.080371 112.521168 
L 695.229184 126.412335 
L 696.377997 144.130744 
L 698.101216 176.391186 
L 702.696468 268.832009 
L 703.845281 286.095326 
L 704.994094 298.637926 
L 705.5685 302.908528 
L 706.142907 305.771949 
L 706.717313 307.205322 
L 707.29172 307.210956 
L 707.866126 305.814929 
L 708.440533 303.064986 
L 709.014939 299.027892 
L 709.589346 293.786407 
L 710.738159 280.081958 
L 711.886972 262.812342 
L 713.610191 232.244426 
L 718.779849 135.013172 
L 719.928662 117.814181 
L 721.077475 104.101911 
L 721.651882 98.810289 
L 722.226288 94.683756 
L 722.800695 91.799305 
L 723.375101 90.218544 
L 723.949508 89.984739 
L 724.523914 91.120184 
L 725.098321 93.624079 
L 725.672727 97.471063 
L 726.247134 102.610517 
L 727.395947 116.43987 
L 728.54476 134.229676 
L 730.267979 165.683997 
L 733.140012 219.167403 
L 734.288825 237.121852 
L 735.437638 251.618026 
L 736.58645 262.040727 
L 737.160857 265.605882 
L 737.735263 268.039583 
L 738.30967 269.331545 
L 738.884076 269.481472 
L 739.458483 268.49744 
L 740.032889 266.394587 
L 740.607296 263.194225 
L 741.181702 258.923419 
L 742.330515 247.308367 
L 743.479328 231.894495 
L 744.628141 213.163603 
L 746.351361 180.347059 
L 750.372206 99.889062 
L 751.521019 81.619646 
L 752.669832 67.711037 
L 753.244239 62.681393 
L 753.818645 59.045056 
L 754.393052 56.853132 
L 754.967458 56.130102 
L 755.541865 56.873698 
L 756.116271 59.055682 
L 756.690677 62.623449 
L 757.265084 67.502359 
L 758.413897 80.802846 
L 759.56271 98.039484 
L 761.285929 128.953939 
L 765.881181 216.559688 
L 767.029994 234.841984 
L 768.178807 250.153129 
L 769.32762 261.801368 
L 769.902027 266.050873 
L 770.476433 269.155351 
L 771.05084 271.054668 
L 771.625246 271.700857 
L 772.199653 271.060819 
L 772.774059 269.118919 
L 773.348466 265.879308 
L 773.922872 261.367789 
L 774.497279 255.633087 
L 775.646091 240.806097 
L 776.794904 222.246742 
L 778.518124 190.019487 
L 780.81575 146.322004 
L 781.964563 127.327174 
L 783.113376 111.784763 
L 784.262189 100.48993 
L 784.836595 96.593121 
L 785.411002 93.907465 
L 785.985408 92.443408 
L 786.559815 92.195656 
L 787.134221 93.145398 
L 787.708628 95.262558 
L 788.283034 98.507914 
L 788.857441 102.834937 
L 790.006254 114.519593 
L 791.155067 129.841503 
L 792.30388 148.252056 
L 794.027099 180.225811 
L 798.047944 259.533019 
L 799.196757 278.356416 
L 800.34557 293.286515 
L 800.919977 298.970039 
L 801.494383 303.327703 
L 802.06879 306.282551 
L 802.643196 307.782087 
L 803.217603 307.8 
L 803.792009 306.337031 
L 804.366416 303.42094 
L 804.940822 299.105567 
L 805.515229 293.469042 
L 806.664042 278.650632 
L 807.812855 259.965712 
L 809.536074 227.280116 
L 812.982513 159.725014 
L 814.705732 131.459976 
L 815.854545 116.34031 
L 817.003358 104.852773 
L 817.577765 100.622887 
L 818.152171 97.473987 
L 818.726578 95.452708 
L 819.300984 94.598247 
L 819.875391 94.940481 
L 820.449797 96.497818 
L 821.024204 99.274936 
L 821.59861 103.260559 
L 822.173017 108.425447 
L 823.32183 122.077072 
L 824.470643 139.589488 
L 826.193862 170.906489 
L 829.065895 225.402291 
L 830.214708 243.838324 
L 831.363521 258.502467 
L 831.937927 264.144474 
L 832.512334 268.557774 
L 833.08674 271.695079 
L 833.661146 273.5319 
L 834.235553 274.065234 
L 834.809959 273.311652 
L 835.384366 271.304967 
L 835.958772 268.093619 
L 836.533179 263.737996 
L 837.681992 251.879803 
L 838.830805 236.360453 
L 839.979618 217.86941 
L 841.702837 186.156317 
L 846.298089 98.228616 
L 847.446902 80.83048 
L 848.595715 67.391783 
L 849.170122 62.451991 
L 849.744528 58.828003 
L 850.318935 56.593523 
L 850.893341 55.8 
L 851.467748 56.474352 
L 852.042154 58.617416 
L 852.616561 62.203247 
L 853.190967 67.179299 
L 854.33978 80.966301 
L 855.488593 99.088234 
L 857.211812 131.803524 
L 860.658251 200.957461 
L 861.807064 220.854311 
L 862.955877 237.74299 
L 864.10469 251.062492 
L 864.679097 256.251815 
L 865.253503 260.406152 
L 865.82791 263.492499 
L 866.402316 265.483622 
L 866.976723 266.358037 
L 867.551129 266.100484 
L 868.125536 264.702871 
L 868.699942 262.165617 
L 869.274349 258.49931 
L 869.848755 253.726532 
L 870.997568 241.022811 
L 872.146381 224.540304 
L 873.8696 194.48637 
L 877.316039 130.023391 
L 878.464852 112.324439 
L 879.613665 98.628568 
L 880.188072 93.568434 
L 880.762478 89.807091 
L 881.336885 87.393577 
L 881.911291 86.351726 
L 882.485698 86.680931 
L 883.060104 88.357664 
L 883.634511 91.33764 
L 884.208917 95.55847 
L 884.783324 100.942636 
L 885.932137 114.833847 
L 887.08095 132.204154 
L 888.804169 162.880446 
L 893.973827 260.981387 
L 895.12264 278.393771 
L 896.271453 292.224041 
L 896.84586 297.521403 
L 897.420266 301.609775 
L 897.994673 304.406782 
L 898.569079 305.846306 
L 899.143486 305.881494 
L 899.717892 304.487373 
L 900.292299 301.662901 
L 900.866705 297.432324 
L 901.441112 291.845715 
L 902.589925 276.931003 
L 903.738738 257.801642 
L 905.461957 223.857913 
L 908.33399 164.882369 
L 909.482803 144.237172 
L 910.631616 126.772578 
L 911.780428 113.128893 
L 912.354835 107.872047 
L 912.929241 103.702334 
L 913.503648 100.638856 
L 914.078054 98.691684 
L 914.652461 97.863231 
L 915.226867 98.149277 
L 915.801274 99.539558 
L 916.37568 102.017863 
L 916.950087 105.561659 
L 917.524493 110.141283 
L 918.673306 122.246469 
L 919.822119 137.904505 
L 920.970932 156.486596 
L 923.268558 198.762375 
L 924.991778 230.24061 
L 926.140591 248.601169 
L 927.289404 263.36479 
L 927.86381 269.059601 
L 928.438217 273.488046 
L 929.012623 276.57302 
L 929.58703 278.26298 
L 930.161436 278.532789 
L 930.735843 277.38366 
L 931.310249 274.842229 
L 931.884655 270.958827 
L 932.459062 265.805066 
L 933.607875 252.061257 
L 934.756688 234.489619 
L 936.479907 203.173201 
L 941.075159 114.208995 
L 942.223972 95.494668 
L 943.372785 79.783364 
L 944.521598 67.82755 
L 945.096005 63.478764 
L 945.670411 60.321345 
L 946.244818 58.422147 
L 946.819224 57.834994 
L 947.393631 58.597849 
L 947.968037 60.730157 
L 948.542444 64.230512 
L 949.11685 69.074851 
L 949.691257 75.215284 
L 950.840069 91.072238 
L 951.988882 110.947868 
L 953.712102 145.668351 
L 956.584134 204.73344 
L 957.732947 224.790264 
L 958.88176 241.215103 
L 960.030573 253.357322 
L 960.60498 257.703802 
L 961.179386 260.872259 
L 961.753793 262.860199 
L 962.328199 263.677597 
L 962.902606 263.344815 
L 963.477012 261.890716 
L 964.051419 259.351091 
L 964.625825 255.767511 
L 965.200232 251.186652 
L 966.349045 239.244704 
L 967.497858 224.005071 
L 969.221077 196.295587 
L 973.816329 115.519085 
L 974.965142 100.019121 
L 976.113955 88.760499 
L 976.688361 85.007796 
L 977.262768 82.617768 
L 977.837174 81.643774 
L 978.411581 82.112846 
L 978.985987 84.024991 
L 979.560394 87.353394 
L 980.1348 92.045525 
L 980.709207 98.025055 
L 981.85802 113.438444 
L 983.006833 132.62034 
L 984.730052 165.946642 
L 988.176491 234.849571 
L 989.89971 263.924314 
L 991.048523 279.588739 
L 992.197336 291.563861 
L 992.771743 295.995834 
L 993.346149 299.307662 
L 993.920556 301.444389 
L 994.494962 302.358997 
L 995.069369 302.014542 
L 995.643775 300.386499 
L 996.218182 297.46518 
L 996.218182 297.46518 
" style="fill:none;stroke:#4c72b0;stroke-linecap:round;stroke-width:1.4;"/>
   </g>
   <g id="line2d_30">
    <path clip-path="url(#p541bb564c5)" d="M 184.581818 266.786896 
L 196.069948 270.425607 
L 204.686045 272.93584 
L 212.727736 275.047996 
L 220.19502 276.768872 
L 227.087898 278.123334 
L 233.406369 279.148555 
L 239.724841 279.952678 
L 246.043312 280.524988 
L 252.361783 280.857854 
L 258.105848 280.948878 
L 263.849913 280.837295 
L 270.168384 280.482064 
L 276.486856 279.887917 
L 282.805327 279.062753 
L 289.123798 278.017543 
L 296.016676 276.642763 
L 302.909554 275.044465 
L 310.376838 273.090163 
L 318.992936 270.593805 
L 328.757846 267.526984 
L 343.118008 262.757606 
L 362.073422 256.491375 
L 371.838332 253.498204 
L 380.45443 251.092102 
L 387.921714 249.23341 
L 394.814592 247.736096 
L 401.70747 246.47288 
L 408.025941 245.537726 
L 414.344412 244.828559 
L 420.662884 244.354808 
L 426.981355 244.122769 
L 432.72542 244.124226 
L 439.043891 244.35944 
L 445.362362 244.836271 
L 451.680834 245.548361 
L 457.999305 246.48622 
L 464.317776 247.637353 
L 471.210654 249.118283 
L 478.677939 250.961092 
L 486.719629 253.18451 
L 495.910133 255.96846 
L 507.398263 259.697178 
L 538.416213 269.90168 
L 547.606717 272.614009 
L 555.648408 274.756279 
L 563.115692 276.509877 
L 570.00857 277.898076 
L 576.327041 278.956737 
L 582.645512 279.796244 
L 588.963984 280.405412 
L 595.282455 280.776122 
L 601.600926 280.903428 
L 607.344991 280.806444 
L 613.663463 280.467079 
L 619.981934 279.888392 
L 626.300405 279.078075 
L 632.618877 278.046902 
L 639.511754 276.686294 
L 646.404632 275.10076 
L 653.871917 273.158462 
L 662.488014 270.673318 
L 672.252924 267.615463 
L 686.613086 262.851513 
L 706.142907 256.395092 
L 715.907817 253.405942 
L 724.523914 251.004637 
L 731.991199 249.150955 
L 738.884076 247.658886 
L 745.776954 246.401425 
L 752.095426 245.471917 
L 758.413897 244.768675 
L 764.732368 244.301049 
L 771.05084 244.075252 
L 776.794904 244.082418 
L 783.113376 244.323871 
L 789.431847 244.806819 
L 795.750318 245.524823 
L 802.06879 246.468314 
L 808.387261 247.624722 
L 815.280139 249.110919 
L 822.747423 250.958767 
L 830.789114 253.186731 
L 839.979618 255.974638 
L 851.467748 259.706291 
L 881.911291 269.729927 
L 891.101795 272.453363 
L 899.143486 274.608052 
L 906.61077 276.375198 
L 913.503648 277.777404 
L 919.822119 278.849975 
L 926.140591 279.704229 
L 932.459062 280.328784 
L 938.777533 280.715316 
L 945.096005 280.858668 
L 950.840069 280.776289 
L 957.158541 280.452808 
L 963.477012 279.889612 
L 969.795483 279.094186 
L 976.113955 278.077109 
L 983.006833 276.730749 
L 989.89971 275.158067 
L 996.218182 273.538827 
L 996.218182 273.538827 
" style="fill:none;stroke:#55a868;stroke-linecap:round;stroke-width:1.4;"/>
   </g>
   <g id="patch_3">
    <path d="M 144 320.4 
L 144 43.2 
" style="fill:none;"/>
   </g>
   <g id="patch_4">
    <path d="M 1036.8 320.4 
L 1036.8 43.2 
" style="fill:none;"/>
   </g>
   <g id="patch_5">
    <path d="M 144 320.4 
L 1036.8 320.4 
" style="fill:none;"/>
   </g>
   <g id="patch_6">
    <path d="M 144 43.2 
L 1036.8 43.2 
" style="fill:none;"/>
   </g>
   <g id="legend_1">
    <g id="line2d_31">
     <path d="M 1002.75125 53.3975 
L 1018.75125 53.3975 
" style="fill:none;stroke:#4c72b0;stroke-linecap:round;stroke-width:1.4;"/>
    </g>
    <g id="line2d_32"/>
    <g id="text_15">
     <!-- a -->
     <defs>
      <path d="M 20.21875 -0.984375 
Q 12.25 -0.984375 8.25 3.21875 
Q 4.25 7.421875 4.25 14.75 
Q 4.25 19.96875 6.21875 23.3125 
Q 8.203125 26.65625 11.390625 28.5625 
Q 14.59375 30.46875 18.6875 31.203125 
Q 22.796875 31.9375 27.046875 32.03125 
L 38.921875 32.234375 
L 38.921875 35.109375 
Q 38.921875 38.375 38.234375 40.671875 
Q 37.546875 42.96875 36.125 44.375 
Q 34.71875 45.796875 32.59375 46.453125 
Q 30.46875 47.125 27.59375 47.125 
Q 25.046875 47.125 23 46.75 
Q 20.953125 46.390625 19.4375 45.4375 
Q 17.921875 44.484375 16.984375 42.84375 
Q 16.0625 41.21875 15.765625 38.71875 
L 6.59375 39.546875 
Q 7.078125 42.671875 8.4375 45.28125 
Q 9.8125 47.90625 12.328125 49.796875 
Q 14.84375 51.703125 18.625 52.75 
Q 22.40625 53.8125 27.78125 53.8125 
Q 37.75 53.8125 42.765625 49.234375 
Q 47.796875 44.671875 47.796875 36.03125 
L 47.796875 13.28125 
Q 47.796875 9.375 48.828125 7.390625 
Q 49.859375 5.421875 52.734375 5.421875 
Q 53.46875 5.421875 54.203125 5.515625 
Q 54.9375 5.609375 55.609375 5.765625 
L 55.609375 0.296875 
Q 53.953125 -0.09375 52.3125 -0.28125 
Q 50.6875 -0.484375 48.828125 -0.484375 
Q 46.34375 -0.484375 44.5625 0.171875 
Q 42.78125 0.828125 41.65625 2.171875 
Q 40.53125 3.515625 39.9375 5.484375 
Q 39.359375 7.46875 39.203125 10.109375 
L 38.921875 10.109375 
Q 37.5 7.5625 35.8125 5.515625 
Q 34.125 3.46875 31.875 2.03125 
Q 29.640625 0.59375 26.78125 -0.1875 
Q 23.921875 -0.984375 20.21875 -0.984375 
M 22.21875 5.609375 
Q 26.421875 5.609375 29.5625 7.140625 
Q 32.71875 8.6875 34.78125 11.078125 
Q 36.859375 13.484375 37.890625 16.3125 
Q 38.921875 19.140625 38.921875 21.734375 
L 38.921875 26.078125 
L 29.296875 25.875 
Q 26.078125 25.828125 23.171875 25.40625 
Q 20.265625 25 18.0625 23.78125 
Q 15.875 22.5625 14.578125 20.359375 
Q 13.28125 18.171875 13.28125 14.59375 
Q 13.28125 10.296875 15.59375 7.953125 
Q 17.921875 5.609375 22.21875 5.609375 
" id="LiberationSans-61"/>
     </defs>
     <g style="fill:#262626;" transform="translate(1025.15125 56.1975)scale(0.08 -0.08)">
      <use xlink:href="#LiberationSans-61"/>
     </g>
    </g>
    <g id="line2d_33">
     <path d="M 1002.75125 64.855 
L 1018.75125 64.855 
" style="fill:none;stroke:#55a868;stroke-linecap:round;stroke-width:1.4;"/>
    </g>
    <g id="line2d_34"/>
    <g id="text_16">
     <!-- b -->
     <defs>
      <path d="M 51.421875 26.65625 
Q 51.421875 -0.984375 31.984375 -0.984375 
Q 25.984375 -0.984375 22 1.1875 
Q 18.015625 3.375 15.53125 8.203125 
L 15.4375 8.203125 
Q 15.4375 6.9375 15.359375 5.5625 
Q 15.28125 4.203125 15.203125 3.03125 
Q 15.140625 1.859375 15.0625 1.03125 
Q 14.984375 0.203125 14.9375 0 
L 6.453125 0 
Q 6.5 0.4375 6.546875 1.484375 
Q 6.59375 2.546875 6.640625 4 
Q 6.6875 5.46875 6.703125 7.21875 
Q 6.734375 8.984375 6.734375 10.890625 
L 6.734375 72.46875 
L 15.53125 72.46875 
L 15.53125 51.8125 
Q 15.53125 50.34375 15.5 49 
Q 15.484375 47.65625 15.4375 46.625 
Q 15.375 45.40625 15.328125 44.34375 
L 15.53125 44.34375 
Q 17.96875 49.421875 22 51.609375 
Q 26.03125 53.8125 31.984375 53.8125 
Q 42 53.8125 46.703125 47.0625 
Q 51.421875 40.328125 51.421875 26.65625 
M 42.1875 26.375 
Q 42.1875 31.84375 41.5 35.75 
Q 40.828125 39.65625 39.3125 42.15625 
Q 37.796875 44.671875 35.453125 45.84375 
Q 33.109375 47.015625 29.734375 47.015625 
Q 26.265625 47.015625 23.609375 45.890625 
Q 20.953125 44.78125 19.171875 42.28125 
Q 17.390625 39.796875 16.453125 35.734375 
Q 15.53125 31.6875 15.53125 25.828125 
Q 15.53125 20.171875 16.453125 16.3125 
Q 17.390625 12.453125 19.171875 10.03125 
Q 20.953125 7.625 23.578125 6.5625 
Q 26.21875 5.515625 29.640625 5.515625 
Q 32.859375 5.515625 35.203125 6.640625 
Q 37.546875 7.765625 39.109375 10.25 
Q 40.671875 12.75 41.421875 16.71875 
Q 42.1875 20.703125 42.1875 26.375 
" id="LiberationSans-62"/>
     </defs>
     <g style="fill:#262626;" transform="translate(1025.15125 67.655)scale(0.08 -0.08)">
      <use xlink:href="#LiberationSans-62"/>
     </g>
    </g>
   </g>
  </g>
 </g>
 <defs>
  <clipPath id="p541bb564c5">
   <rect height="277.2" width="892.8" x="144" y="43.2"/>
  </clipPath>
 </defs>
</svg>
