<?xml version="1.0" encoding="utf-8" standalone="no"?>
<!DOCTYPE svg PUBLIC "-//W3C//DTD SVG 1.1//EN"
  "http://www.w3.org/Graphics/SVG/1.1/DTD/svg11.dtd">
<!-- Created with matplotlib (http://matplotlib.org/) -->
<svg height="360pt" version="1.1" viewBox="0 0 1152 360" width="1152pt" xmlns="http://www.w3.org/2000/svg" xmlns:xlink="http://www.w3.org/1999/xlink">
 <defs>
  <style type="text/css">
*{stroke-linecap:butt;stroke-linejoin:round;}
  </style>
 </defs>
 <g id="figure_1">
  <g id="patch_1">
   <path d="M 0 360 
L 1152 360 
L 1152 0 
L 0 0 
z
" style="fill:#ffffff;"/>
  </g>
  <g id="axes_1">
   <g id="patch_2">
    <path d="M 144 320.4 
L 1036.8 320.4 
L 1036.8 43.2 
L 144 43.2 
z
" style="fill:#eaeaf2;"/>
   </g>
   <g id="matplotlib.axis_1">
    <g id="xtick_1">
     <g id="line2d_1">
      <path clip-path="url(#p7c76abe708)" d="M 184.581818 320.4 
L 184.581818 43.2 
" style="fill:none;stroke:#ffffff;stroke-linecap:round;stroke-width:0.8;"/>
     </g>
     <g id="line2d_2"/>
     <g id="text_1">
      <!-- 0 -->
      <defs>
       <path d="M 51.703125 34.421875 
Q 51.703125 24.515625 49.828125 17.75 
Q 47.953125 10.984375 44.703125 6.8125 
Q 41.453125 2.640625 37.0625 0.828125 
Q 32.671875 -0.984375 27.6875 -0.984375 
Q 22.65625 -0.984375 18.3125 0.828125 
Q 13.96875 2.640625 10.765625 6.78125 
Q 7.5625 10.9375 5.734375 17.703125 
Q 3.90625 24.46875 3.90625 34.421875 
Q 3.90625 44.828125 5.734375 51.640625 
Q 7.5625 58.453125 10.78125 62.5 
Q 14.015625 66.546875 18.40625 68.1875 
Q 22.796875 69.828125 27.984375 69.828125 
Q 32.90625 69.828125 37.21875 68.1875 
Q 41.546875 66.546875 44.765625 62.5 
Q 48 58.453125 49.84375 51.640625 
Q 51.703125 44.828125 51.703125 34.421875 
M 42.78125 34.421875 
Q 42.78125 42.625 41.796875 48.0625 
Q 40.828125 53.515625 38.921875 56.765625 
Q 37.015625 60.015625 34.25 61.359375 
Q 31.5 62.703125 27.984375 62.703125 
Q 24.265625 62.703125 21.4375 61.328125 
Q 18.609375 59.96875 16.671875 56.71875 
Q 14.75 53.46875 13.765625 48.015625 
Q 12.796875 42.578125 12.796875 34.421875 
Q 12.796875 26.515625 13.796875 21.09375 
Q 14.796875 15.671875 16.71875 12.375 
Q 18.65625 9.078125 21.4375 7.640625 
Q 24.21875 6.203125 27.78125 6.203125 
Q 31.25 6.203125 34.03125 7.640625 
Q 36.8125 9.078125 38.734375 12.375 
Q 40.671875 15.671875 41.71875 21.09375 
Q 42.78125 26.515625 42.78125 34.421875 
" id="LiberationSans-30"/>
      </defs>
      <g style="fill:#262626;" transform="translate(182.357443 331.7975)scale(0.08 -0.08)">
       <use xlink:href="#LiberationSans-30"/>
      </g>
     </g>
    </g>
    <g id="xtick_2">
     <g id="line2d_3">
      <path clip-path="url(#p7c76abe708)" d="M 299.625952 320.4 
L 299.625952 43.2 
" style="fill:none;stroke:#ffffff;stroke-linecap:round;stroke-width:0.8;"/>
     </g>
     <g id="line2d_4"/>
     <g id="text_2">
      <!-- 200 -->
      <defs>
       <path d="M 5.03125 0 
L 5.03125 6.203125 
Q 7.515625 11.921875 11.109375 16.28125 
Q 14.703125 20.65625 18.65625 24.1875 
Q 22.609375 27.734375 26.484375 30.765625 
Q 30.375 33.796875 33.5 36.8125 
Q 36.625 39.84375 38.546875 43.15625 
Q 40.484375 46.484375 40.484375 50.6875 
Q 40.484375 53.609375 39.59375 55.828125 
Q 38.71875 58.0625 37.0625 59.5625 
Q 35.40625 61.078125 33.078125 61.828125 
Q 30.765625 62.59375 27.9375 62.59375 
Q 25.296875 62.59375 22.96875 61.859375 
Q 20.65625 61.140625 18.84375 59.671875 
Q 17.046875 58.203125 15.890625 56.03125 
Q 14.75 53.859375 14.40625 50.984375 
L 5.421875 51.8125 
Q 5.859375 55.515625 7.46875 58.78125 
Q 9.078125 62.0625 11.90625 64.53125 
Q 14.75 67 18.71875 68.40625 
Q 22.703125 69.828125 27.9375 69.828125 
Q 33.0625 69.828125 37.0625 68.609375 
Q 41.0625 67.390625 43.8125 64.984375 
Q 46.578125 62.59375 48.046875 59.078125 
Q 49.515625 55.5625 49.515625 50.984375 
Q 49.515625 47.515625 48.265625 44.390625 
Q 47.015625 41.265625 44.9375 38.421875 
Q 42.875 35.59375 40.140625 32.953125 
Q 37.40625 30.328125 34.421875 27.8125 
Q 31.453125 25.296875 28.421875 22.828125 
Q 25.390625 20.359375 22.71875 17.859375 
Q 20.0625 15.375 17.96875 12.8125 
Q 15.875 10.25 14.703125 7.46875 
L 50.59375 7.46875 
L 50.59375 0 
z
" id="LiberationSans-32"/>
      </defs>
      <g style="fill:#262626;" transform="translate(292.952827 331.7975)scale(0.08 -0.08)">
       <use xlink:href="#LiberationSans-32"/>
       <use x="55.615234" xlink:href="#LiberationSans-30"/>
       <use x="111.230469" xlink:href="#LiberationSans-30"/>
      </g>
     </g>
    </g>
    <g id="xtick_3">
     <g id="line2d_5">
      <path clip-path="url(#p7c76abe708)" d="M 414.670086 320.4 
L 414.670086 43.2 
" style="fill:none;stroke:#ffffff;stroke-linecap:round;stroke-width:0.8;"/>
     </g>
     <g id="line2d_6"/>
     <g id="text_3">
      <!-- 400 -->
      <defs>
       <path d="M 43.015625 15.578125 
L 43.015625 0 
L 34.71875 0 
L 34.71875 15.578125 
L 2.296875 15.578125 
L 2.296875 22.40625 
L 33.796875 68.796875 
L 43.015625 68.796875 
L 43.015625 22.515625 
L 52.6875 22.515625 
L 52.6875 15.578125 
z
M 34.71875 58.890625 
Q 34.625 58.640625 34.234375 57.9375 
Q 33.84375 57.234375 33.34375 56.34375 
Q 32.859375 55.46875 32.34375 54.5625 
Q 31.84375 53.65625 31.453125 53.078125 
L 13.8125 27.09375 
Q 13.578125 26.703125 13.109375 26.0625 
Q 12.640625 25.4375 12.15625 24.78125 
Q 11.671875 24.125 11.171875 23.484375 
Q 10.6875 22.859375 10.40625 22.515625 
L 34.71875 22.515625 
z
" id="LiberationSans-34"/>
      </defs>
      <g style="fill:#262626;" transform="translate(407.996961 331.7975)scale(0.08 -0.08)">
       <use xlink:href="#LiberationSans-34"/>
       <use x="55.615234" xlink:href="#LiberationSans-30"/>
       <use x="111.230469" xlink:href="#LiberationSans-30"/>
      </g>
     </g>
    </g>
    <g id="xtick_4">
     <g id="line2d_7">
      <path clip-path="url(#p7c76abe708)" d="M 529.714219 320.4 
L 529.714219 43.2 
" style="fill:none;stroke:#ffffff;stroke-linecap:round;stroke-width:0.8;"/>
     </g>
     <g id="line2d_8"/>
     <g id="text_4">
      <!-- 600 -->
      <defs>
       <path d="M 51.21875 22.515625 
Q 51.21875 17.328125 49.78125 13 
Q 48.34375 8.6875 45.53125 5.578125 
Q 42.71875 2.484375 38.5625 0.75 
Q 34.421875 -0.984375 29 -0.984375 
Q 23 -0.984375 18.5 1.3125 
Q 14.015625 3.609375 11.03125 7.921875 
Q 8.0625 12.25 6.5625 18.53125 
Q 5.078125 24.8125 5.078125 32.8125 
Q 5.078125 42 6.765625 48.921875 
Q 8.453125 55.859375 11.625 60.5 
Q 14.796875 65.140625 19.359375 67.484375 
Q 23.921875 69.828125 29.6875 69.828125 
Q 33.203125 69.828125 36.28125 69.09375 
Q 39.359375 68.359375 41.875 66.71875 
Q 44.390625 65.09375 46.28125 62.40625 
Q 48.1875 59.71875 49.3125 55.8125 
L 40.921875 54.296875 
Q 39.546875 58.734375 36.546875 60.71875 
Q 33.546875 62.703125 29.59375 62.703125 
Q 25.984375 62.703125 23.046875 60.984375 
Q 20.125 59.28125 18.0625 55.875 
Q 16.015625 52.484375 14.90625 47.359375 
Q 13.8125 42.234375 13.8125 35.40625 
Q 16.21875 39.84375 20.5625 42.15625 
Q 24.90625 44.484375 30.515625 44.484375 
Q 35.203125 44.484375 39.015625 42.96875 
Q 42.828125 41.453125 45.53125 38.59375 
Q 48.25 35.75 49.734375 31.671875 
Q 51.21875 27.59375 51.21875 22.515625 
M 42.28125 22.125 
Q 42.28125 25.6875 41.40625 28.5625 
Q 40.53125 31.453125 38.765625 33.46875 
Q 37.015625 35.5 34.421875 36.59375 
Q 31.84375 37.703125 28.421875 37.703125 
Q 26.03125 37.703125 23.578125 36.984375 
Q 21.140625 36.28125 19.15625 34.6875 
Q 17.1875 33.109375 15.9375 30.515625 
Q 14.703125 27.9375 14.703125 24.21875 
Q 14.703125 20.40625 15.671875 17.109375 
Q 16.65625 13.8125 18.484375 11.375 
Q 20.3125 8.9375 22.890625 7.515625 
Q 25.484375 6.109375 28.71875 6.109375 
Q 31.890625 6.109375 34.40625 7.203125 
Q 36.921875 8.296875 38.671875 10.375 
Q 40.4375 12.453125 41.359375 15.421875 
Q 42.28125 18.40625 42.28125 22.125 
" id="LiberationSans-36"/>
      </defs>
      <g style="fill:#262626;" transform="translate(523.041094 331.7975)scale(0.08 -0.08)">
       <use xlink:href="#LiberationSans-36"/>
       <use x="55.615234" xlink:href="#LiberationSans-30"/>
       <use x="111.230469" xlink:href="#LiberationSans-30"/>
      </g>
     </g>
    </g>
    <g id="xtick_5">
     <g id="line2d_9">
      <path clip-path="url(#p7c76abe708)" d="M 644.758353 320.4 
L 644.758353 43.2 
" style="fill:none;stroke:#ffffff;stroke-linecap:round;stroke-width:0.8;"/>
     </g>
     <g id="line2d_10"/>
     <g id="text_5">
      <!-- 800 -->
      <defs>
       <path d="M 51.265625 19.1875 
Q 51.265625 14.796875 49.875 11.109375 
Q 48.484375 7.421875 45.625 4.734375 
Q 42.78125 2.046875 38.328125 0.53125 
Q 33.890625 -0.984375 27.828125 -0.984375 
Q 21.78125 -0.984375 17.359375 0.53125 
Q 12.9375 2.046875 10.03125 4.703125 
Q 7.125 7.375 5.734375 11.0625 
Q 4.34375 14.75 4.34375 19.09375 
Q 4.34375 22.859375 5.484375 25.78125 
Q 6.640625 28.71875 8.5625 30.828125 
Q 10.5 32.953125 12.96875 34.25 
Q 15.4375 35.546875 18.0625 35.984375 
L 18.0625 36.1875 
Q 15.1875 36.859375 12.90625 38.375 
Q 10.640625 39.890625 9.09375 42.015625 
Q 7.5625 44.140625 6.75 46.71875 
Q 5.953125 49.3125 5.953125 52.203125 
Q 5.953125 55.8125 7.34375 59 
Q 8.734375 62.203125 11.46875 64.625 
Q 14.203125 67.046875 18.25 68.4375 
Q 22.3125 69.828125 27.640625 69.828125 
Q 33.25 69.828125 37.375 68.40625 
Q 41.5 67 44.203125 64.578125 
Q 46.921875 62.15625 48.234375 58.9375 
Q 49.5625 55.71875 49.5625 52.09375 
Q 49.5625 49.265625 48.75 46.671875 
Q 47.953125 44.09375 46.40625 41.96875 
Q 44.875 39.84375 42.59375 38.34375 
Q 40.328125 36.859375 37.359375 36.28125 
L 37.359375 36.078125 
Q 40.328125 35.59375 42.859375 34.296875 
Q 45.40625 33.015625 47.265625 30.890625 
Q 49.125 28.765625 50.1875 25.828125 
Q 51.265625 22.90625 51.265625 19.1875 
M 40.4375 51.609375 
Q 40.4375 54.203125 39.765625 56.34375 
Q 39.109375 58.5 37.59375 60.03125 
Q 36.078125 61.578125 33.640625 62.421875 
Q 31.203125 63.28125 27.640625 63.28125 
Q 24.171875 63.28125 21.78125 62.421875 
Q 19.390625 61.578125 17.84375 60.03125 
Q 16.3125 58.5 15.625 56.34375 
Q 14.9375 54.203125 14.9375 51.609375 
Q 14.9375 49.5625 15.46875 47.40625 
Q 16.015625 45.265625 17.421875 43.5 
Q 18.84375 41.75 21.328125 40.625 
Q 23.828125 39.5 27.734375 39.5 
Q 31.890625 39.5 34.40625 40.625 
Q 36.921875 41.75 38.25 43.5 
Q 39.59375 45.265625 40.015625 47.40625 
Q 40.4375 49.5625 40.4375 51.609375 
M 42.140625 20.015625 
Q 42.140625 22.515625 41.453125 24.828125 
Q 40.765625 27.15625 39.109375 28.9375 
Q 37.453125 30.71875 34.640625 31.8125 
Q 31.84375 32.90625 27.640625 32.90625 
Q 23.78125 32.90625 21.0625 31.8125 
Q 18.359375 30.71875 16.671875 28.90625 
Q 14.984375 27.09375 14.203125 24.71875 
Q 13.421875 22.359375 13.421875 19.828125 
Q 13.421875 16.65625 14.203125 14.03125 
Q 14.984375 11.421875 16.6875 9.546875 
Q 18.40625 7.671875 21.1875 6.640625 
Q 23.96875 5.609375 27.9375 5.609375 
Q 31.9375 5.609375 34.671875 6.640625 
Q 37.40625 7.671875 39.0625 9.546875 
Q 40.71875 11.421875 41.421875 14.078125 
Q 42.140625 16.75 42.140625 20.015625 
" id="LiberationSans-38"/>
      </defs>
      <g style="fill:#262626;" transform="translate(638.085228 331.7975)scale(0.08 -0.08)">
       <use xlink:href="#LiberationSans-38"/>
       <use x="55.615234" xlink:href="#LiberationSans-30"/>
       <use x="111.230469" xlink:href="#LiberationSans-30"/>
      </g>
     </g>
    </g>
    <g id="xtick_6">
     <g id="line2d_11">
      <path clip-path="url(#p7c76abe708)" d="M 759.802487 320.4 
L 759.802487 43.2 
" style="fill:none;stroke:#ffffff;stroke-linecap:round;stroke-width:0.8;"/>
     </g>
     <g id="line2d_12"/>
     <g id="text_6">
      <!-- 1000 -->
      <defs>
       <path d="M 7.625 0 
L 7.625 7.46875 
L 25.140625 7.46875 
L 25.140625 60.40625 
L 9.625 49.3125 
L 9.625 57.625 
L 25.875 68.796875 
L 33.984375 68.796875 
L 33.984375 7.46875 
L 50.734375 7.46875 
L 50.734375 0 
z
" id="LiberationSans-31"/>
      </defs>
      <g style="fill:#262626;" transform="translate(750.904987 331.7975)scale(0.08 -0.08)">
       <use xlink:href="#LiberationSans-31"/>
       <use x="55.615234" xlink:href="#LiberationSans-30"/>
       <use x="111.230469" xlink:href="#LiberationSans-30"/>
       <use x="166.845703" xlink:href="#LiberationSans-30"/>
      </g>
     </g>
    </g>
    <g id="xtick_7">
     <g id="line2d_13">
      <path clip-path="url(#p7c76abe708)" d="M 874.846621 320.4 
L 874.846621 43.2 
" style="fill:none;stroke:#ffffff;stroke-linecap:round;stroke-width:0.8;"/>
     </g>
     <g id="line2d_14"/>
     <g id="text_7">
      <!-- 1200 -->
      <g style="fill:#262626;" transform="translate(865.949121 331.7975)scale(0.08 -0.08)">
       <use xlink:href="#LiberationSans-31"/>
       <use x="55.615234" xlink:href="#LiberationSans-32"/>
       <use x="111.230469" xlink:href="#LiberationSans-30"/>
       <use x="166.845703" xlink:href="#LiberationSans-30"/>
      </g>
     </g>
    </g>
    <g id="xtick_8">
     <g id="line2d_15">
      <path clip-path="url(#p7c76abe708)" d="M 989.890754 320.4 
L 989.890754 43.2 
" style="fill:none;stroke:#ffffff;stroke-linecap:round;stroke-width:0.8;"/>
     </g>
     <g id="line2d_16"/>
     <g id="text_8">
      <!-- 1400 -->
      <g style="fill:#262626;" transform="translate(980.993254 331.7975)scale(0.08 -0.08)">
       <use xlink:href="#LiberationSans-31"/>
       <use x="55.615234" xlink:href="#LiberationSans-34"/>
       <use x="111.230469" xlink:href="#LiberationSans-30"/>
       <use x="166.845703" xlink:href="#LiberationSans-30"/>
      </g>
     </g>
    </g>
   </g>
   <g id="matplotlib.axis_2">
    <g id="ytick_1">
     <g id="line2d_17">
      <path clip-path="url(#p7c76abe708)" d="M 144 299.619615 
L 1036.8 299.619615 
" style="fill:none;stroke:#ffffff;stroke-linecap:round;stroke-width:0.8;"/>
     </g>
     <g id="line2d_18"/>
     <g id="text_9">
      <!-- −100000 -->
      <defs>
       <path d="M 4.9375 29.6875 
L 4.9375 36.8125 
L 53.515625 36.8125 
L 53.515625 29.6875 
z
" id="LiberationSans-2212"/>
      </defs>
      <g style="fill:#262626;" transform="translate(107.035 302.518365)scale(0.08 -0.08)">
       <use xlink:href="#LiberationSans-2212"/>
       <use x="58.398438" xlink:href="#LiberationSans-31"/>
       <use x="114.013672" xlink:href="#LiberationSans-30"/>
       <use x="169.628906" xlink:href="#LiberationSans-30"/>
       <use x="225.244141" xlink:href="#LiberationSans-30"/>
       <use x="280.859375" xlink:href="#LiberationSans-30"/>
       <use x="336.474609" xlink:href="#LiberationSans-30"/>
      </g>
     </g>
    </g>
    <g id="ytick_2">
     <g id="line2d_19">
      <path clip-path="url(#p7c76abe708)" d="M 144 239.637324 
L 1036.8 239.637324 
" style="fill:none;stroke:#ffffff;stroke-linecap:round;stroke-width:0.8;"/>
     </g>
     <g id="line2d_20"/>
     <g id="text_10">
      <!-- −50000 -->
      <defs>
       <path d="M 51.421875 22.40625 
Q 51.421875 17.234375 49.859375 12.9375 
Q 48.296875 8.640625 45.21875 5.53125 
Q 42.140625 2.4375 37.578125 0.71875 
Q 33.015625 -0.984375 27 -0.984375 
Q 21.578125 -0.984375 17.546875 0.28125 
Q 13.53125 1.5625 10.734375 3.78125 
Q 7.953125 6 6.3125 8.984375 
Q 4.6875 11.96875 4 15.375 
L 12.890625 16.40625 
Q 13.421875 14.453125 14.390625 12.625 
Q 15.375 10.796875 17.0625 9.34375 
Q 18.75 7.90625 21.21875 7.046875 
Q 23.6875 6.203125 27.203125 6.203125 
Q 30.609375 6.203125 33.390625 7.25 
Q 36.1875 8.296875 38.15625 10.34375 
Q 40.140625 12.40625 41.203125 15.375 
Q 42.28125 18.359375 42.28125 22.21875 
Q 42.28125 25.390625 41.25 28.046875 
Q 40.234375 30.71875 38.328125 32.640625 
Q 36.421875 34.578125 33.65625 35.640625 
Q 30.90625 36.71875 27.390625 36.71875 
Q 25.203125 36.71875 23.34375 36.328125 
Q 21.484375 35.9375 19.890625 35.25 
Q 18.3125 34.578125 17.015625 33.671875 
Q 15.71875 32.765625 14.59375 31.78125 
L 6 31.78125 
L 8.296875 68.796875 
L 47.40625 68.796875 
L 47.40625 61.328125 
L 16.3125 61.328125 
L 14.984375 39.5 
Q 17.328125 41.3125 20.84375 42.59375 
Q 24.359375 43.890625 29.203125 43.890625 
Q 34.328125 43.890625 38.421875 42.328125 
Q 42.53125 40.765625 45.40625 37.90625 
Q 48.296875 35.0625 49.859375 31.109375 
Q 51.421875 27.15625 51.421875 22.40625 
" id="LiberationSans-35"/>
      </defs>
      <g style="fill:#262626;" transform="translate(111.48375 242.536074)scale(0.08 -0.08)">
       <use xlink:href="#LiberationSans-2212"/>
       <use x="58.398438" xlink:href="#LiberationSans-35"/>
       <use x="114.013672" xlink:href="#LiberationSans-30"/>
       <use x="169.628906" xlink:href="#LiberationSans-30"/>
       <use x="225.244141" xlink:href="#LiberationSans-30"/>
       <use x="280.859375" xlink:href="#LiberationSans-30"/>
      </g>
     </g>
    </g>
    <g id="ytick_3">
     <g id="line2d_21">
      <path clip-path="url(#p7c76abe708)" d="M 144 179.655033 
L 1036.8 179.655033 
" style="fill:none;stroke:#ffffff;stroke-linecap:round;stroke-width:0.8;"/>
     </g>
     <g id="line2d_22"/>
     <g id="text_11">
      <!-- 0 -->
      <g style="fill:#262626;" transform="translate(133.95125 182.553783)scale(0.08 -0.08)">
       <use xlink:href="#LiberationSans-30"/>
      </g>
     </g>
    </g>
    <g id="ytick_4">
     <g id="line2d_23">
      <path clip-path="url(#p7c76abe708)" d="M 144 119.672742 
L 1036.8 119.672742 
" style="fill:none;stroke:#ffffff;stroke-linecap:round;stroke-width:0.8;"/>
     </g>
     <g id="line2d_24"/>
     <g id="text_12">
      <!-- 50000 -->
      <g style="fill:#262626;" transform="translate(116.15625 122.571492)scale(0.08 -0.08)">
       <use xlink:href="#LiberationSans-35"/>
       <use x="55.615234" xlink:href="#LiberationSans-30"/>
       <use x="111.230469" xlink:href="#LiberationSans-30"/>
       <use x="166.845703" xlink:href="#LiberationSans-30"/>
       <use x="222.460938" xlink:href="#LiberationSans-30"/>
      </g>
     </g>
    </g>
    <g id="ytick_5">
     <g id="line2d_25">
      <path clip-path="url(#p7c76abe708)" d="M 144 59.690451 
L 1036.8 59.690451 
" style="fill:none;stroke:#ffffff;stroke-linecap:round;stroke-width:0.8;"/>
     </g>
     <g id="line2d_26"/>
     <g id="text_13">
      <!-- 100000 -->
      <g style="fill:#262626;" transform="translate(111.7075 62.589201)scale(0.08 -0.08)">
       <use xlink:href="#LiberationSans-31"/>
       <use x="55.615234" xlink:href="#LiberationSans-30"/>
       <use x="111.230469" xlink:href="#LiberationSans-30"/>
       <use x="166.845703" xlink:href="#LiberationSans-30"/>
       <use x="222.460938" xlink:href="#LiberationSans-30"/>
       <use x="278.076172" xlink:href="#LiberationSans-30"/>
      </g>
     </g>
    </g>
   </g>
   <g id="line2d_27">
    <path clip-path="url(#p7c76abe708)" d="M 184.581818 179.655033 
L 187.457922 179.655186 
L 188.033142 180.601921 
L 188.608363 183.967412 
L 189.183584 188.632607 
L 189.758804 192.177296 
L 190.334025 192.02794 
L 190.909246 187.009858 
L 192.059687 168.999863 
L 192.634908 162.606507 
L 193.210128 161.429174 
L 193.785349 165.637772 
L 195.511011 188.485302 
L 196.086232 191.7573 
L 196.661452 191.63069 
L 197.236673 189.092947 
L 198.387114 181.169286 
L 199.537556 173.064911 
L 200.112776 169.784755 
L 200.687997 167.86585 
L 201.263218 168.34566 
L 201.838438 172.065666 
L 203.5641 192.052053 
L 204.139321 193.889431 
L 204.714542 191.294873 
L 206.440204 173.381114 
L 207.015424 170.426062 
L 207.590645 169.393071 
L 208.165866 169.134559 
L 208.741086 169.330749 
L 209.316307 170.946864 
L 209.891528 175.37243 
L 210.466748 183.202266 
L 211.61719 203.093953 
L 212.19241 206.714364 
L 212.767631 199.262884 
L 213.342852 180.530975 
L 213.918072 157.2099 
L 214.493293 139.803519 
L 215.068514 136.815561 
L 215.643734 150.796833 
L 217.369396 228.725346 
L 217.944617 229.154819 
L 218.519838 208.093477 
L 219.670279 145.772237 
L 220.2455 131.313626 
L 220.82072 136.335943 
L 221.395941 157.54928 
L 222.546382 208.76192 
L 223.121603 217.56756 
L 223.696824 210.837307 
L 225.422486 162.985235 
L 225.997706 156.737359 
L 226.572927 157.452348 
L 227.148148 163.105559 
L 227.723368 171.664696 
L 229.44903 201.288006 
L 230.024251 203.44509 
L 230.599472 197.376321 
L 231.174692 184.122106 
L 232.325134 154.276886 
L 232.900354 150.625164 
L 233.475575 159.197593 
L 234.626016 192.862654 
L 235.201237 203.023414 
L 235.776458 203.682979 
L 236.351678 196.238937 
L 237.50212 173.893854 
L 238.07734 166.149541 
L 238.652561 161.650029 
L 239.227782 160.304506 
L 239.803002 163.210768 
L 240.378223 171.543328 
L 242.103885 212.715353 
L 242.679106 212.275922 
L 243.254326 194.752576 
L 244.404768 140.063362 
L 244.979988 130.894109 
L 245.555209 144.0691 
L 247.280871 237.174211 
L 247.856092 231.670956 
L 248.431312 198.243065 
L 249.006533 155.451939 
L 249.581754 125.882829 
L 250.156974 122.89799 
L 250.732195 146.975242 
L 251.882636 223.262039 
L 252.457857 235.55337 
L 253.033078 218.363525 
L 254.183519 152.235449 
L 254.75874 137.104676 
L 255.33396 142.451137 
L 255.909181 163.328334 
L 256.484402 188.478572 
L 257.059622 205.231482 
L 257.634843 207.416637 
L 258.210064 198.184883 
L 259.360505 174.09885 
L 259.935726 167.553486 
L 260.510946 165.522366 
L 261.086167 166.957262 
L 261.661388 170.768057 
L 262.236608 176.488376 
L 263.38705 189.884809 
L 263.96227 193.076671 
L 264.537491 191.57625 
L 265.112712 185.899826 
L 266.263153 171.811245 
L 266.838374 168.566599 
L 267.413594 168.700216 
L 267.988815 171.146893 
L 268.564036 175.066316 
L 269.139256 180.251402 
L 270.864918 198.267418 
L 271.440139 196.156401 
L 272.01536 184.067559 
L 273.165801 149.647813 
L 273.741022 146.197511 
L 274.316243 158.956824 
L 275.466684 214.221988 
L 276.041905 230.347027 
L 276.617125 220.21086 
L 278.342787 120.915096 
L 278.918008 124.156539 
L 279.493229 154.767541 
L 280.64367 238.863913 
L 281.218891 247.636203 
L 281.794111 220.712671 
L 282.944553 132.735086 
L 283.519773 115.943163 
L 284.094994 128.575794 
L 285.820656 230.185555 
L 286.395877 229.804547 
L 286.971097 207.357015 
L 287.546318 177.661486 
L 288.121539 154.738989 
L 288.696759 145.535787 
L 289.27198 150.202529 
L 290.997642 191.540644 
L 291.572863 197.491127 
L 292.148083 198.638589 
L 292.723304 195.812943 
L 293.298525 189.263405 
L 295.024187 160.365088 
L 295.599407 157.456427 
L 296.174628 163.189774 
L 297.90029 200.80035 
L 298.475511 202.174425 
L 299.050731 195.192966 
L 300.201173 170.876565 
L 300.776393 163.165182 
L 301.351614 161.651229 
L 301.926835 164.93202 
L 302.502055 170.741557 
L 303.652497 185.42395 
L 304.802938 200.790753 
L 305.378159 204.699799 
L 305.953379 200.095079 
L 306.5286 183.973026 
L 307.679041 140.085676 
L 308.254262 133.526492 
L 308.829483 145.369996 
L 309.404703 173.142984 
L 310.555145 237.502554 
L 311.130365 244.690112 
L 311.705586 222.847441 
L 312.856027 136.8182 
L 313.431248 111.001702 
L 314.006469 112.192951 
L 314.581689 138.837444 
L 315.732131 222.61411 
L 316.307351 246.619263 
L 316.882572 243.087985 
L 317.457793 215.66996 
L 318.608234 145.915235 
L 319.183455 128.992791 
L 319.758675 130.310482 
L 320.333896 146.634062 
L 321.484337 193.443282 
L 322.059558 208.844695 
L 322.634779 214.722 
L 323.209999 212.015839 
L 323.78522 202.6658 
L 326.086103 148.956817 
L 326.661323 144.530123 
L 327.236544 148.717127 
L 327.811765 162.987514 
L 328.962206 206.318241 
L 329.537427 220.118847 
L 330.112647 221.160019 
L 330.687868 209.652297 
L 332.41353 151.357428 
L 332.988751 143.913626 
L 333.563971 146.740111 
L 334.139192 156.695252 
L 335.289633 180.982609 
L 335.864854 190.535065 
L 336.440075 197.662077 
L 337.015295 202.810117 
L 337.590516 206.787063 
L 338.165737 209.820367 
L 338.740957 209.457354 
L 339.316178 200.141265 
L 339.891399 178.364862 
L 341.04184 120.922413 
L 341.617061 108.578178 
L 342.192281 117.689848 
L 342.767502 146.711559 
L 344.493164 265.694111 
L 345.068385 280.040676 
L 345.643605 264.735954 
L 346.218826 219.407577 
L 347.369267 99.45907 
L 347.944488 66.172258 
L 348.519709 67.224347 
L 349.094929 100.258994 
L 350.820591 259.629542 
L 351.395812 285.826327 
L 351.971033 283.425956 
L 352.546253 252.707945 
L 354.271915 111.325727 
L 354.847136 94.178349 
L 355.422357 101.277373 
L 355.997577 127.202439 
L 357.148019 195.663107 
L 357.723239 219.144734 
L 358.29846 228.370851 
L 358.873681 223.771888 
L 359.448901 209.671971 
L 360.599343 175.678063 
L 361.174563 164.245703 
L 361.749784 159.077509 
L 362.325005 160.05414 
L 362.900226 165.862465 
L 364.625888 190.949639 
L 365.201108 196.023961 
L 365.776329 198.252783 
L 366.35155 196.921056 
L 366.92677 190.197257 
L 367.501991 176.995574 
L 368.652432 142.844741 
L 369.227653 133.438438 
L 369.802874 135.390142 
L 370.378094 148.952858 
L 372.678977 233.091937 
L 373.254198 242.363999 
L 373.829418 245.589727 
L 374.404639 242.184172 
L 374.97986 227.470996 
L 375.55508 196.202948 
L 376.705522 103.290499 
L 377.280742 69.080079 
L 377.855963 60.050225 
L 378.431184 79.3055 
L 379.006404 120.6291 
L 380.156846 218.911403 
L 380.732066 251.936693 
L 381.307287 265.966431 
L 381.882508 261.626832 
L 382.457728 243.632625 
L 383.60817 194.663562 
L 384.18339 175.259795 
L 384.758611 161.624717 
L 385.333832 152.80768 
L 385.909052 148.77555 
L 386.484273 150.235039 
L 387.059494 157.025994 
L 388.785156 187.729993 
L 389.360376 192.648877 
L 389.935597 192.810949 
L 390.510818 189.125541 
L 392.23648 173.064383 
L 392.8117 170.676236 
L 393.386921 170.573019 
L 393.962142 172.346455 
L 395.687804 180.540191 
L 396.263024 181.758888 
L 396.838245 181.908988 
L 397.988686 181.119609 
L 398.563907 180.285916 
L 399.139128 177.908469 
L 399.714348 173.442547 
L 400.86479 162.523971 
L 401.44001 159.88535 
L 402.015231 160.978227 
L 402.590452 165.731704 
L 404.316114 186.992103 
L 404.891334 190.878848 
L 405.466555 191.819562 
L 406.041776 190.102077 
L 406.616996 186.555552 
L 407.767438 178.426608 
L 408.342658 175.80525 
L 408.917879 174.84227 
L 409.4931 175.508338 
L 410.06832 177.377926 
L 411.218762 182.027105 
L 411.793982 183.572141 
L 412.369203 184.157568 
L 412.944424 183.826274 
L 413.519644 182.849306 
L 414.670086 180.509305 
L 415.245306 179.821812 
L 415.820527 179.683832 
L 416.395748 180.057922 
L 418.69663 182.859671 
L 419.271851 182.976205 
L 419.847072 182.757053 
L 422.147954 181.000448 
L 422.723175 180.909347 
L 423.298396 181.015899 
L 425.599278 181.89632 
L 426.174499 181.886231 
L 427.32494 181.530296 
L 428.475382 181.089006 
L 429.625823 180.914433 
L 431.351485 181.110911 
L 432.501926 181.227817 
L 434.227588 181.078605 
L 435.95325 180.907547 
L 437.678912 181.027152 
L 439.404574 181.130442 
L 442.280678 181.112495 
L 445.156781 180.950579 
L 448.032884 180.818811 
L 453.20987 180.504747 
L 456.085974 180.367121 
L 459.537298 180.484797 
L 462.413401 180.788325 
L 468.740829 181.9236 
L 472.192153 182.758133 
L 474.493035 183.406926 
L 476.218697 183.882849 
L 477.369139 184.422666 
L 478.51958 185.376852 
L 479.670021 186.922608 
L 481.395683 189.935722 
L 481.970904 189.807516 
L 482.546125 187.49004 
L 483.121345 182.551662 
L 484.271787 171.233544 
L 484.847007 168.971 
L 485.422228 169.876912 
L 485.997449 172.95885 
L 486.572669 176.647533 
L 487.14789 179.501611 
L 487.723111 180.673362 
L 488.298331 180.04353 
L 488.873552 178.042841 
L 490.599214 170.227377 
L 491.174435 168.988514 
L 491.749655 169.287298 
L 492.324876 171.399934 
L 493.475317 178.037035 
L 494.050538 179.304097 
L 494.625759 177.989073 
L 495.7762 172.210571 
L 496.351421 171.423364 
L 496.926641 173.579103 
L 497.501862 178.592689 
L 498.652303 193.772465 
L 499.802745 210.350611 
L 500.377965 216.410382 
L 500.953186 215.476697 
L 501.528407 201.253697 
L 502.103627 172.559356 
L 503.254069 106.080035 
L 503.829289 92.491407 
L 504.40451 101.351991 
L 504.979731 130.194476 
L 506.705393 245.013777 
L 507.280613 264.465674 
L 507.855834 267.815565 
L 508.431055 253.615957 
L 509.006275 221.899961 
L 510.156717 133.734991 
L 510.731937 101.951934 
L 511.307158 91.676368 
L 511.882379 104.27097 
L 512.457599 133.863713 
L 513.608041 202.920484 
L 514.183261 223.70003 
L 514.758482 229.088119 
L 515.333703 220.381929 
L 517.059365 171.913767 
L 517.634585 166.356719 
L 518.209806 166.995531 
L 519.360247 174.641857 
L 519.935468 176.539433 
L 520.510689 175.476583 
L 521.085909 171.659598 
L 521.66113 166.729449 
L 522.236351 163.862056 
L 522.811571 166.163097 
L 523.386792 173.914344 
L 524.537233 192.824985 
L 525.112454 196.927054 
L 525.687675 195.942864 
L 526.262895 191.343794 
L 526.838116 185.722062 
L 527.413337 181.702961 
L 527.988557 180.53199 
L 528.563778 180.38113 
L 529.138999 176.844347 
L 529.714219 167.098221 
L 530.28944 153.427657 
L 530.864661 142.627485 
L 531.439881 141.722712 
L 532.015102 153.813943 
L 532.590323 177.211007 
L 533.740764 235.308282 
L 534.315985 252.681313 
L 534.891205 247.478209 
L 535.466426 214.786301 
L 536.616867 112.571439 
L 537.192088 82.668587 
L 537.767309 84.592699 
L 538.342529 117.148328 
L 540.068191 268.735453 
L 540.643412 281.560387 
L 541.218633 259.053232 
L 542.944295 111.99129 
L 543.519515 94.4797 
L 544.094736 104.365262 
L 544.669957 135.314084 
L 545.820398 211.867083 
L 546.395619 233.511333 
L 546.97084 236.653325 
L 547.54606 223.974149 
L 549.271722 156.862483 
L 549.846943 144.121044 
L 550.422164 140.776912 
L 550.997384 146.247297 
L 551.572605 158.826543 
L 552.723046 193.052798 
L 553.298267 205.552027 
L 553.873488 209.791696 
L 554.448708 205.30622 
L 556.17437 171.409472 
L 556.749591 165.199901 
L 557.324812 162.211103 
L 557.900032 160.018151 
L 558.475253 158.263669 
L 559.050474 159.516699 
L 559.625694 166.803468 
L 560.200915 180.995014 
L 561.351356 219.646306 
L 561.926577 230.007887 
L 562.501798 220.634695 
L 563.077018 189.036144 
L 563.652239 146.603111 
L 564.22746 113.155546 
L 564.80268 104.801213 
L 565.377901 126.376843 
L 567.103563 262.296354 
L 567.678784 264.30972 
L 568.254004 227.248222 
L 569.404446 118.80168 
L 569.979666 96.464874 
L 570.554887 109.187238 
L 571.130108 150.26767 
L 571.705328 202.093569 
L 572.280549 240.745797 
L 572.85577 248.334876 
L 573.43099 224.778391 
L 574.581432 151.1812 
L 575.156652 133.413606 
L 575.731873 136.038071 
L 576.307094 154.653335 
L 576.882314 179.101835 
L 577.457535 198.090111 
L 578.032756 205.770003 
L 578.607976 203.419897 
L 579.183197 195.386109 
L 580.908859 166.643075 
L 581.48408 160.888014 
L 582.0593 159.697725 
L 582.634521 164.861241 
L 584.360183 198.576687 
L 584.935404 200.501519 
L 585.510624 194.530042 
L 586.661066 171.857012 
L 587.236286 164.342394 
L 587.811507 162.612985 
L 588.386728 165.457585 
L 588.961948 170.867352 
L 590.11239 185.306877 
L 591.262831 200.001146 
L 591.838052 201.280928 
L 592.413272 192.611328 
L 593.563714 154.171917 
L 594.138934 142.951869 
L 594.714155 147.633727 
L 595.289376 168.310415 
L 596.439817 223.086411 
L 597.015038 227.69413 
L 597.590258 206.201636 
L 598.7407 137.378435 
L 599.31592 126.139073 
L 599.891141 140.538902 
L 601.041582 212.064665 
L 601.616803 232.976651 
L 602.192024 225.131207 
L 603.917686 137.890444 
L 604.492906 137.161899 
L 605.068127 155.182858 
L 606.218568 204.298278 
L 606.793789 211.585886 
L 607.36901 204.129368 
L 608.519451 175.578529 
L 609.094672 166.238794 
L 609.669892 162.115971 
L 610.245113 162.22178 
L 610.820334 165.594944 
L 611.395554 172.454747 
L 613.121216 202.077973 
L 613.696437 201.236062 
L 614.271658 191.114302 
L 615.422099 159.066712 
L 615.99732 151.934937 
L 616.57254 157.701395 
L 617.722982 189.881102 
L 618.298202 200.369558 
L 618.873423 201.407731 
L 619.448644 194.184664 
L 620.599085 172.653013 
L 621.174306 166.425339 
L 621.749526 164.168685 
L 622.324747 164.93322 
L 622.899968 168.753648 
L 623.475188 176.172941 
L 625.20085 207.172629 
L 625.776071 204.144123 
L 626.351292 186.721355 
L 626.926512 161.13718 
L 627.501733 140.597325 
L 628.076954 136.555238 
L 628.652174 152.788845 
L 629.802616 219.349994 
L 630.377836 238.218503 
L 630.953057 227.679375 
L 632.678719 120.637018 
L 633.25394 120.212943 
L 633.82916 146.450277 
L 634.979602 226.13627 
L 635.554822 240.760193 
L 636.130043 225.536927 
L 637.280485 156.230989 
L 637.855705 135.794303 
L 638.430926 135.348754 
L 639.006147 152.202698 
L 640.156588 199.44751 
L 640.731809 209.385376 
L 641.307029 206.510065 
L 642.457471 183.103799 
L 643.032691 172.279923 
L 643.607912 165.220175 
L 644.183133 162.465788 
L 644.758353 163.671192 
L 645.333574 168.397989 
L 645.908795 176.232108 
L 647.059236 193.650341 
L 647.634457 197.091046 
L 648.209677 194.675679 
L 648.784898 187.417605 
L 649.935339 169.7685 
L 650.51056 165.391844 
L 651.085781 165.391844 
L 651.661001 168.385357 
L 652.811443 178.045001 
L 653.961884 191.414741 
L 654.537105 198.979528 
L 655.112325 204.42544 
L 655.687546 202.374166 
L 656.262767 188.158483 
L 657.413208 139.782525 
L 657.988429 128.105053 
L 658.563649 136.095174 
L 659.13887 163.220845 
L 660.289311 240.252263 
L 660.864532 259.22886 
L 661.439753 245.125344 
L 662.014973 199.739384 
L 662.590194 142.209289 
L 663.165415 98.007499 
L 663.740635 85.046285 
L 664.315856 107.513612 
L 664.891077 157.369213 
L 665.466297 217.80413 
L 666.041518 266.278459 
L 666.616739 281.562666 
L 667.191959 256.24822 
L 668.917621 101.411734 
L 669.492842 89.958595 
L 670.068063 109.212431 
L 671.793725 236.1971 
L 672.368945 251.699883 
L 672.944166 242.15802 
L 673.519387 214.650021 
L 674.669828 152.02743 
L 675.245049 134.875374 
L 675.820269 131.790485 
L 676.39549 140.85153 
L 677.545931 176.370415 
L 678.121152 193.982523 
L 678.696373 207.577869 
L 679.271593 214.768067 
L 679.846814 213.789755 
L 680.422035 204.680725 
L 682.147697 159.737914 
L 682.722917 152.000558 
L 683.298138 151.904346 
L 683.873359 158.753244 
L 685.0238 179.462838 
L 685.599021 185.994454 
L 686.174241 188.47261 
L 686.749462 188.391226 
L 687.324683 187.868984 
L 687.899903 188.749104 
L 688.475124 192.221203 
L 689.625565 203.953619 
L 690.200786 203.191604 
L 690.776007 190.074449 
L 692.501669 118.351812 
L 693.076889 116.76624 
L 693.65211 134.505043 
L 694.802551 205.371001 
L 695.377772 241.07402 
L 695.952993 265.572467 
L 696.528213 270.463183 
L 697.103434 249.119565 
L 697.678655 203.51203 
L 698.829096 97.66308 
L 699.404317 72.450604 
L 699.979537 77.980731 
L 700.554758 110.521604 
L 702.28042 247.732414 
L 702.855641 268.099281 
L 703.430861 266.404542 
L 704.006082 243.996117 
L 705.731744 137.931232 
L 706.306965 122.496589 
L 706.882185 123.941322 
L 707.457406 138.781541 
L 708.607847 181.757257 
L 709.183068 196.588514 
L 709.758289 201.610231 
L 710.333509 196.618745 
L 711.483951 172.794199 
L 712.059171 166.972258 
L 712.634392 170.142298 
L 714.360054 200.546265 
L 714.935275 203.011298 
L 715.510495 199.082697 
L 716.660937 180.590089 
L 717.236157 171.836054 
L 717.811378 166.546503 
L 718.386599 166.018179 
L 718.961819 170.459856 
L 720.112261 184.789985 
L 720.687481 185.418852 
L 721.262702 177.994651 
L 722.413143 151.659379 
L 722.988364 144.085055 
L 723.563585 145.647474 
L 724.138805 156.316404 
L 725.864467 207.626215 
L 726.439688 218.593377 
L 727.014909 223.729061 
L 727.59013 224.064242 
L 728.16535 221.824743 
L 728.740571 219.066158 
L 729.315792 215.144156 
L 729.891012 205.06905 
L 730.466233 183.786302 
L 731.616674 121.44354 
L 732.191895 99.803608 
L 732.767116 95.489202 
L 733.342336 109.809374 
L 734.492778 171.689385 
L 735.067998 201.899946 
L 735.643219 222.177679 
L 736.21844 229.733048 
L 736.79366 225.136965 
L 737.368881 211.466521 
L 738.519322 175.587406 
L 739.094543 162.373895 
L 739.669764 156.064958 
L 740.244984 156.992164 
L 740.820205 163.590096 
L 741.970646 182.041069 
L 742.545867 188.033 
L 743.121088 189.731086 
L 743.696308 187.710727 
L 744.84675 181.081124 
L 745.42197 179.582182 
L 745.997191 179.402694 
L 747.147632 180.363635 
L 747.722853 180.61526 
L 748.298074 180.600818 
L 749.448515 180.198329 
L 751.749398 179.042521 
L 752.324618 178.99676 
L 753.47506 179.351867 
L 754.625501 179.760074 
L 755.775942 179.782434 
L 758.076825 179.457395 
L 759.227266 179.693611 
L 760.952928 180.175585 
L 763.829032 180.574549 
L 769.581238 180.956253 
L 777.059107 180.820771 
L 781.660872 180.698111 
L 787.9883 180.75523 
L 791.439624 180.887022 
L 793.740506 180.720495 
L 797.19183 180.646595 
L 808.696244 179.689252 
L 811.572347 179.984421 
L 813.87323 180.420368 
L 816.174112 181.125691 
L 817.899774 181.852245 
L 819.050216 182.50598 
L 820.200657 183.405726 
L 821.351099 184.661875 
L 821.926319 185.501675 
L 822.50154 186.566481 
L 823.076761 187.956342 
L 823.651981 189.823699 
L 824.227202 192.389154 
L 824.802423 195.952222 
L 825.377643 200.83682 
L 826.528085 212.902977 
L 827.103305 213.961665 
L 827.678526 203.936345 
L 828.253747 180.903193 
L 829.404188 122.923063 
L 829.979409 107.55464 
L 830.554629 109.221308 
L 831.12985 126.737577 
L 832.855512 206.889873 
L 833.430733 220.368013 
L 834.005953 222.351868 
L 834.581174 214.168963 
L 835.731615 181.321005 
L 836.306836 165.157553 
L 836.882057 154.281684 
L 837.457277 151.457718 
L 838.032498 157.472262 
L 839.75816 197.530356 
L 840.333381 203.590847 
L 840.908601 202.242924 
L 841.483822 194.77285 
L 842.634263 173.571245 
L 843.209484 166.141263 
L 843.784705 163.600653 
L 844.359925 166.481123 
L 846.085587 187.087295 
L 846.660808 184.060733 
L 847.236029 173.239603 
L 847.811249 159.012248 
L 848.38647 147.919243 
L 848.961691 145.375994 
L 849.536911 153.409422 
L 850.112132 170.458368 
L 851.837794 235.99472 
L 852.413015 249.989668 
L 852.988235 251.724356 
L 853.563456 232.953977 
L 854.138677 190.968173 
L 855.289118 83.763144 
L 855.864339 55.8 
L 856.439559 61.504556 
L 857.01478 99.095458 
L 858.740442 271.738287 
L 859.315663 303.46448 
L 859.890883 307.8 
L 860.466104 280.708039 
L 861.041325 225.554442 
L 862.191766 94.898737 
L 862.766987 58.927477 
L 863.342207 57.784214 
L 863.917428 88.636225 
L 865.64309 239.180259 
L 866.218311 263.344725 
L 866.793531 263.583334 
L 867.368752 242.771159 
L 869.094414 145.211162 
L 869.669635 129.959225 
L 870.244855 129.148985 
L 870.820076 140.283017 
L 872.545738 192.383155 
L 873.120959 201.136131 
L 873.696179 203.264063 
L 874.2714 199.564715 
L 874.846621 191.520298 
L 875.997062 172.26987 
L 876.572283 166.79579 
L 877.147503 166.758601 
L 877.722724 172.45723 
L 878.873165 193.106542 
L 879.448386 198.028329 
L 880.023607 191.772416 
L 880.598827 174.624978 
L 881.174048 153.858569 
L 881.749269 139.806158 
L 882.324489 140.023174 
L 882.89971 156.240586 
L 884.625372 244.508486 
L 885.200593 250.162657 
L 885.775813 226.801834 
L 887.501475 95.230199 
L 888.076696 90.773155 
L 888.651917 117.007369 
L 890.377579 260.123556 
L 890.952799 272.012526 
L 891.52802 249.683278 
L 893.253682 116.676387 
L 893.828903 104.349186 
L 894.404123 116.687304 
L 894.979344 146.633702 
L 896.129785 212.110251 
L 896.705006 227.671217 
L 897.280227 228.00064 
L 897.855447 216.41518 
L 900.15633 144.761175 
L 900.731551 138.88663 
L 901.306771 142.461094 
L 901.881992 156.875319 
L 903.032433 204.381413 
L 903.607654 220.952121 
L 904.182875 223.430709 
L 904.758095 211.295932 
L 906.483757 145.86257 
L 907.058978 140.115667 
L 907.634199 147.411193 
L 909.359861 194.02907 
L 909.935082 203.256985 
L 910.510302 207.380168 
L 911.085523 207.021714 
L 911.660744 201.483189 
L 912.235964 188.398016 
L 913.386406 145.820582 
L 913.961626 132.663467 
L 914.536847 136.052226 
L 915.112068 157.115728 
L 916.262509 224.467443 
L 916.83773 243.31112 
L 917.41295 234.102878 
L 917.988171 198.408137 
L 918.563392 153.269663 
L 919.138612 120.376335 
L 919.713833 113.649201 
L 920.289054 135.006375 
L 921.439495 217.908619 
L 922.014716 241.015117 
L 922.589936 233.600706 
L 924.315598 138.496625 
L 924.890819 132.976095 
L 925.46604 147.226567 
L 926.616481 197.665916 
L 927.191702 209.859116 
L 927.766922 207.239449 
L 929.492584 170.643318 
L 930.067805 164.454921 
L 930.643026 162.86455 
L 931.218246 164.886673 
L 931.793467 169.995173 
L 932.368688 178.098577 
L 933.519129 195.65375 
L 934.09435 198.027249 
L 934.66957 193.462837 
L 936.395232 163.330253 
L 936.970453 161.667304 
L 937.545674 166.405785 
L 938.696115 182.210531 
L 939.271336 188.338682 
L 939.846556 192.534311 
L 940.421777 195.032693 
L 940.996998 194.877579 
L 941.572218 189.225808 
L 942.147439 176.468174 
L 942.72266 160.206975 
L 943.29788 148.736682 
L 943.873101 149.55484 
L 944.448322 165.03555 
L 945.598763 218.00867 
L 946.173984 229.237235 
L 946.749204 214.227626 
L 947.899646 139.835909 
L 948.474866 120.238015 
L 949.050087 129.222403 
L 949.625308 164.075233 
L 950.200528 210.178941 
L 950.775749 243.505822 
L 951.35097 243.110659 
L 951.92619 208.051729 
L 952.501411 159.001331 
L 953.076632 122.706047 
L 953.651852 115.558677 
L 954.227073 139.05554 
L 955.377514 222.34395 
L 955.952735 238.77154 
L 956.527956 223.923643 
L 957.678397 156.561971 
L 958.253618 138.846921 
L 958.828838 140.976053 
L 959.404059 158.80099 
L 959.97928 182.214142 
L 960.5545 199.524167 
L 961.129721 204.533528 
L 961.704942 199.221137 
L 962.855383 179.932255 
L 963.430604 172.590403 
L 964.005824 168.045197 
L 964.581045 166.340164 
L 965.156266 167.566802 
L 965.731486 172.035783 
L 966.881928 186.96769 
L 967.457148 192.102078 
L 968.032369 192.626444 
L 968.60759 188.599784 
L 969.758031 175.355671 
L 970.333252 170.917893 
L 970.908472 169.04455 
L 971.483693 169.194638 
L 972.058914 171.216017 
L 972.634134 175.539864 
L 973.209355 182.409156 
L 974.359796 199.360775 
L 974.935017 201.699245 
L 975.510238 192.934273 
L 976.660679 152.667321 
L 977.2359 141.230138 
L 977.81112 146.620026 
L 978.386341 168.860308 
L 979.536782 228.64437 
L 980.112003 235.049759 
L 980.687224 212.58747 
L 981.837665 132.2809 
L 982.412886 114.830012 
L 982.988106 126.213571 
L 983.563327 161.930266 
L 984.138548 207.548838 
L 984.713768 241.624418 
L 985.288989 246.032756 
L 985.86421 219.118222 
L 987.014651 139.525321 
L 987.589872 122.713005 
L 988.165092 129.887966 
L 988.740313 155.735055 
L 989.315534 188.29745 
L 989.890754 213.136428 
L 990.465975 221.028298 
L 991.041196 212.674085 
L 992.766858 163.532393 
L 993.342078 156.104666 
L 993.917299 155.070092 
L 994.49252 159.160284 
L 995.06774 167.449117 
L 996.218182 193.51874 
L 996.218182 193.51874 
" style="fill:none;stroke:#4c72b0;stroke-linecap:round;stroke-width:1.4;"/>
   </g>
   <g id="patch_3">
    <path d="M 144 320.4 
L 144 43.2 
" style="fill:none;"/>
   </g>
   <g id="patch_4">
    <path d="M 1036.8 320.4 
L 1036.8 43.2 
" style="fill:none;"/>
   </g>
   <g id="patch_5">
    <path d="M 144 320.4 
L 1036.8 320.4 
" style="fill:none;"/>
   </g>
   <g id="patch_6">
    <path d="M 144 43.2 
L 1036.8 43.2 
" style="fill:none;"/>
   </g>
  </g>
 </g>
 <defs>
  <clipPath id="p7c76abe708">
   <rect height="277.2" width="892.8" x="144" y="43.2"/>
  </clipPath>
 </defs>
</svg>
