<?xml version="1.0" encoding="utf-8" standalone="no"?>
<!DOCTYPE svg PUBLIC "-//W3C//DTD SVG 1.1//EN"
  "http://www.w3.org/Graphics/SVG/1.1/DTD/svg11.dtd">
<!-- Created with matplotlib (http://matplotlib.org/) -->
<svg height="360pt" version="1.1" viewBox="0 0 1152 360" width="1152pt" xmlns="http://www.w3.org/2000/svg" xmlns:xlink="http://www.w3.org/1999/xlink">
 <defs>
  <style type="text/css">
*{stroke-linecap:butt;stroke-linejoin:round;}
  </style>
 </defs>
 <g id="figure_1">
  <g id="patch_1">
   <path d="M 0 360 
L 1152 360 
L 1152 0 
L 0 0 
z
" style="fill:#ffffff;"/>
  </g>
  <g id="axes_1">
   <g id="patch_2">
    <path d="M 144 320.4 
L 1036.8 320.4 
L 1036.8 43.2 
L 144 43.2 
z
" style="fill:#eaeaf2;"/>
   </g>
   <g id="matplotlib.axis_1">
    <g id="xtick_1">
     <g id="line2d_1">
      <path clip-path="url(#pbbf27fa47c)" d="M 184.581818 320.4 
L 184.581818 43.2 
" style="fill:none;stroke:#ffffff;stroke-linecap:round;stroke-width:0.8;"/>
     </g>
     <g id="line2d_2"/>
     <g id="text_1">
      <!-- 0.000 -->
      <defs>
       <path d="M 51.703125 34.421875 
Q 51.703125 24.515625 49.828125 17.75 
Q 47.953125 10.984375 44.703125 6.8125 
Q 41.453125 2.640625 37.0625 0.828125 
Q 32.671875 -0.984375 27.6875 -0.984375 
Q 22.65625 -0.984375 18.3125 0.828125 
Q 13.96875 2.640625 10.765625 6.78125 
Q 7.5625 10.9375 5.734375 17.703125 
Q 3.90625 24.46875 3.90625 34.421875 
Q 3.90625 44.828125 5.734375 51.640625 
Q 7.5625 58.453125 10.78125 62.5 
Q 14.015625 66.546875 18.40625 68.1875 
Q 22.796875 69.828125 27.984375 69.828125 
Q 32.90625 69.828125 37.21875 68.1875 
Q 41.546875 66.546875 44.765625 62.5 
Q 48 58.453125 49.84375 51.640625 
Q 51.703125 44.828125 51.703125 34.421875 
M 42.78125 34.421875 
Q 42.78125 42.625 41.796875 48.0625 
Q 40.828125 53.515625 38.921875 56.765625 
Q 37.015625 60.015625 34.25 61.359375 
Q 31.5 62.703125 27.984375 62.703125 
Q 24.265625 62.703125 21.4375 61.328125 
Q 18.609375 59.96875 16.671875 56.71875 
Q 14.75 53.46875 13.765625 48.015625 
Q 12.796875 42.578125 12.796875 34.421875 
Q 12.796875 26.515625 13.796875 21.09375 
Q 14.796875 15.671875 16.71875 12.375 
Q 18.65625 9.078125 21.4375 7.640625 
Q 24.21875 6.203125 27.78125 6.203125 
Q 31.25 6.203125 34.03125 7.640625 
Q 36.8125 9.078125 38.734375 12.375 
Q 40.671875 15.671875 41.71875 21.09375 
Q 42.78125 26.515625 42.78125 34.421875 
" id="LiberationSans-30"/>
       <path d="M 9.125 0 
L 9.125 10.6875 
L 18.65625 10.6875 
L 18.65625 0 
z
" id="LiberationSans-2e"/>
      </defs>
      <g style="fill:#262626;" transform="translate(174.573068 331.7975)scale(0.08 -0.08)">
       <use xlink:href="#LiberationSans-30"/>
       <use x="55.615234" xlink:href="#LiberationSans-2e"/>
       <use x="83.398438" xlink:href="#LiberationSans-30"/>
       <use x="139.013672" xlink:href="#LiberationSans-30"/>
       <use x="194.628906" xlink:href="#LiberationSans-30"/>
      </g>
     </g>
    </g>
    <g id="xtick_2">
     <g id="line2d_3">
      <path clip-path="url(#pbbf27fa47c)" d="M 311.238448 320.4 
L 311.238448 43.2 
" style="fill:none;stroke:#ffffff;stroke-linecap:round;stroke-width:0.8;"/>
     </g>
     <g id="line2d_4"/>
     <g id="text_2">
      <!-- 0.005 -->
      <defs>
       <path d="M 51.421875 22.40625 
Q 51.421875 17.234375 49.859375 12.9375 
Q 48.296875 8.640625 45.21875 5.53125 
Q 42.140625 2.4375 37.578125 0.71875 
Q 33.015625 -0.984375 27 -0.984375 
Q 21.578125 -0.984375 17.546875 0.28125 
Q 13.53125 1.5625 10.734375 3.78125 
Q 7.953125 6 6.3125 8.984375 
Q 4.6875 11.96875 4 15.375 
L 12.890625 16.40625 
Q 13.421875 14.453125 14.390625 12.625 
Q 15.375 10.796875 17.0625 9.34375 
Q 18.75 7.90625 21.21875 7.046875 
Q 23.6875 6.203125 27.203125 6.203125 
Q 30.609375 6.203125 33.390625 7.25 
Q 36.1875 8.296875 38.15625 10.34375 
Q 40.140625 12.40625 41.203125 15.375 
Q 42.28125 18.359375 42.28125 22.21875 
Q 42.28125 25.390625 41.25 28.046875 
Q 40.234375 30.71875 38.328125 32.640625 
Q 36.421875 34.578125 33.65625 35.640625 
Q 30.90625 36.71875 27.390625 36.71875 
Q 25.203125 36.71875 23.34375 36.328125 
Q 21.484375 35.9375 19.890625 35.25 
Q 18.3125 34.578125 17.015625 33.671875 
Q 15.71875 32.765625 14.59375 31.78125 
L 6 31.78125 
L 8.296875 68.796875 
L 47.40625 68.796875 
L 47.40625 61.328125 
L 16.3125 61.328125 
L 14.984375 39.5 
Q 17.328125 41.3125 20.84375 42.59375 
Q 24.359375 43.890625 29.203125 43.890625 
Q 34.328125 43.890625 38.421875 42.328125 
Q 42.53125 40.765625 45.40625 37.90625 
Q 48.296875 35.0625 49.859375 31.109375 
Q 51.421875 27.15625 51.421875 22.40625 
" id="LiberationSans-35"/>
      </defs>
      <g style="fill:#262626;" transform="translate(301.229698 331.7975)scale(0.08 -0.08)">
       <use xlink:href="#LiberationSans-30"/>
       <use x="55.615234" xlink:href="#LiberationSans-2e"/>
       <use x="83.398438" xlink:href="#LiberationSans-30"/>
       <use x="139.013672" xlink:href="#LiberationSans-30"/>
       <use x="194.628906" xlink:href="#LiberationSans-35"/>
      </g>
     </g>
    </g>
    <g id="xtick_3">
     <g id="line2d_5">
      <path clip-path="url(#pbbf27fa47c)" d="M 437.895078 320.4 
L 437.895078 43.2 
" style="fill:none;stroke:#ffffff;stroke-linecap:round;stroke-width:0.8;"/>
     </g>
     <g id="line2d_6"/>
     <g id="text_3">
      <!-- 0.010 -->
      <defs>
       <path d="M 7.625 0 
L 7.625 7.46875 
L 25.140625 7.46875 
L 25.140625 60.40625 
L 9.625 49.3125 
L 9.625 57.625 
L 25.875 68.796875 
L 33.984375 68.796875 
L 33.984375 7.46875 
L 50.734375 7.46875 
L 50.734375 0 
z
" id="LiberationSans-31"/>
      </defs>
      <g style="fill:#262626;" transform="translate(427.886328 331.7975)scale(0.08 -0.08)">
       <use xlink:href="#LiberationSans-30"/>
       <use x="55.615234" xlink:href="#LiberationSans-2e"/>
       <use x="83.398438" xlink:href="#LiberationSans-30"/>
       <use x="139.013672" xlink:href="#LiberationSans-31"/>
       <use x="194.628906" xlink:href="#LiberationSans-30"/>
      </g>
     </g>
    </g>
    <g id="xtick_4">
     <g id="line2d_7">
      <path clip-path="url(#pbbf27fa47c)" d="M 564.551708 320.4 
L 564.551708 43.2 
" style="fill:none;stroke:#ffffff;stroke-linecap:round;stroke-width:0.8;"/>
     </g>
     <g id="line2d_8"/>
     <g id="text_4">
      <!-- 0.015 -->
      <g style="fill:#262626;" transform="translate(554.542958 331.7975)scale(0.08 -0.08)">
       <use xlink:href="#LiberationSans-30"/>
       <use x="55.615234" xlink:href="#LiberationSans-2e"/>
       <use x="83.398438" xlink:href="#LiberationSans-30"/>
       <use x="139.013672" xlink:href="#LiberationSans-31"/>
       <use x="194.628906" xlink:href="#LiberationSans-35"/>
      </g>
     </g>
    </g>
    <g id="xtick_5">
     <g id="line2d_9">
      <path clip-path="url(#pbbf27fa47c)" d="M 691.208338 320.4 
L 691.208338 43.2 
" style="fill:none;stroke:#ffffff;stroke-linecap:round;stroke-width:0.8;"/>
     </g>
     <g id="line2d_10"/>
     <g id="text_5">
      <!-- 0.020 -->
      <defs>
       <path d="M 5.03125 0 
L 5.03125 6.203125 
Q 7.515625 11.921875 11.109375 16.28125 
Q 14.703125 20.65625 18.65625 24.1875 
Q 22.609375 27.734375 26.484375 30.765625 
Q 30.375 33.796875 33.5 36.8125 
Q 36.625 39.84375 38.546875 43.15625 
Q 40.484375 46.484375 40.484375 50.6875 
Q 40.484375 53.609375 39.59375 55.828125 
Q 38.71875 58.0625 37.0625 59.5625 
Q 35.40625 61.078125 33.078125 61.828125 
Q 30.765625 62.59375 27.9375 62.59375 
Q 25.296875 62.59375 22.96875 61.859375 
Q 20.65625 61.140625 18.84375 59.671875 
Q 17.046875 58.203125 15.890625 56.03125 
Q 14.75 53.859375 14.40625 50.984375 
L 5.421875 51.8125 
Q 5.859375 55.515625 7.46875 58.78125 
Q 9.078125 62.0625 11.90625 64.53125 
Q 14.75 67 18.71875 68.40625 
Q 22.703125 69.828125 27.9375 69.828125 
Q 33.0625 69.828125 37.0625 68.609375 
Q 41.0625 67.390625 43.8125 64.984375 
Q 46.578125 62.59375 48.046875 59.078125 
Q 49.515625 55.5625 49.515625 50.984375 
Q 49.515625 47.515625 48.265625 44.390625 
Q 47.015625 41.265625 44.9375 38.421875 
Q 42.875 35.59375 40.140625 32.953125 
Q 37.40625 30.328125 34.421875 27.8125 
Q 31.453125 25.296875 28.421875 22.828125 
Q 25.390625 20.359375 22.71875 17.859375 
Q 20.0625 15.375 17.96875 12.8125 
Q 15.875 10.25 14.703125 7.46875 
L 50.59375 7.46875 
L 50.59375 0 
z
" id="LiberationSans-32"/>
      </defs>
      <g style="fill:#262626;" transform="translate(681.199588 331.7975)scale(0.08 -0.08)">
       <use xlink:href="#LiberationSans-30"/>
       <use x="55.615234" xlink:href="#LiberationSans-2e"/>
       <use x="83.398438" xlink:href="#LiberationSans-30"/>
       <use x="139.013672" xlink:href="#LiberationSans-32"/>
       <use x="194.628906" xlink:href="#LiberationSans-30"/>
      </g>
     </g>
    </g>
    <g id="xtick_6">
     <g id="line2d_11">
      <path clip-path="url(#pbbf27fa47c)" d="M 817.864968 320.4 
L 817.864968 43.2 
" style="fill:none;stroke:#ffffff;stroke-linecap:round;stroke-width:0.8;"/>
     </g>
     <g id="line2d_12"/>
     <g id="text_6">
      <!-- 0.025 -->
      <g style="fill:#262626;" transform="translate(807.856218 331.7975)scale(0.08 -0.08)">
       <use xlink:href="#LiberationSans-30"/>
       <use x="55.615234" xlink:href="#LiberationSans-2e"/>
       <use x="83.398438" xlink:href="#LiberationSans-30"/>
       <use x="139.013672" xlink:href="#LiberationSans-32"/>
       <use x="194.628906" xlink:href="#LiberationSans-35"/>
      </g>
     </g>
    </g>
    <g id="xtick_7">
     <g id="line2d_13">
      <path clip-path="url(#pbbf27fa47c)" d="M 944.521598 320.4 
L 944.521598 43.2 
" style="fill:none;stroke:#ffffff;stroke-linecap:round;stroke-width:0.8;"/>
     </g>
     <g id="line2d_14"/>
     <g id="text_7">
      <!-- 0.030 -->
      <defs>
       <path d="M 51.21875 19 
Q 51.21875 14.265625 49.671875 10.546875 
Q 48.140625 6.84375 45.1875 4.265625 
Q 42.234375 1.703125 37.859375 0.359375 
Q 33.5 -0.984375 27.875 -0.984375 
Q 21.484375 -0.984375 17.109375 0.609375 
Q 12.75 2.203125 9.90625 4.8125 
Q 7.078125 7.421875 5.65625 10.765625 
Q 4.25 14.109375 3.8125 17.671875 
L 12.890625 18.5 
Q 13.28125 15.765625 14.328125 13.515625 
Q 15.375 11.28125 17.1875 9.671875 
Q 19 8.0625 21.625 7.171875 
Q 24.265625 6.296875 27.875 6.296875 
Q 34.515625 6.296875 38.296875 9.5625 
Q 42.09375 12.84375 42.09375 19.28125 
Q 42.09375 23.09375 40.40625 25.40625 
Q 38.71875 27.734375 36.203125 29.03125 
Q 33.6875 30.328125 30.734375 30.765625 
Q 27.78125 31.203125 25.296875 31.203125 
L 20.3125 31.203125 
L 20.3125 38.8125 
L 25.09375 38.8125 
Q 27.59375 38.8125 30.265625 39.328125 
Q 32.953125 39.84375 35.171875 41.1875 
Q 37.40625 42.53125 38.84375 44.828125 
Q 40.28125 47.125 40.28125 50.6875 
Q 40.28125 56.203125 37.03125 59.390625 
Q 33.796875 62.59375 27.390625 62.59375 
Q 21.578125 62.59375 17.984375 59.609375 
Q 14.40625 56.640625 13.8125 51.21875 
L 4.984375 51.90625 
Q 5.515625 56.453125 7.46875 59.8125 
Q 9.421875 63.1875 12.421875 65.40625 
Q 15.4375 67.625 19.28125 68.71875 
Q 23.140625 69.828125 27.484375 69.828125 
Q 33.25 69.828125 37.390625 68.375 
Q 41.546875 66.9375 44.1875 64.46875 
Q 46.828125 62.015625 48.0625 58.6875 
Q 49.3125 55.375 49.3125 51.609375 
Q 49.3125 48.578125 48.484375 45.9375 
Q 47.65625 43.3125 45.890625 41.203125 
Q 44.140625 39.109375 41.421875 37.59375 
Q 38.71875 36.078125 34.90625 35.296875 
L 34.90625 35.109375 
Q 39.0625 34.671875 42.140625 33.21875 
Q 45.21875 31.78125 47.21875 29.625 
Q 49.21875 27.484375 50.21875 24.75 
Q 51.21875 22.015625 51.21875 19 
" id="LiberationSans-33"/>
      </defs>
      <g style="fill:#262626;" transform="translate(934.512848 331.7975)scale(0.08 -0.08)">
       <use xlink:href="#LiberationSans-30"/>
       <use x="55.615234" xlink:href="#LiberationSans-2e"/>
       <use x="83.398438" xlink:href="#LiberationSans-30"/>
       <use x="139.013672" xlink:href="#LiberationSans-33"/>
       <use x="194.628906" xlink:href="#LiberationSans-30"/>
      </g>
     </g>
    </g>
   </g>
   <g id="matplotlib.axis_2">
    <g id="ytick_1">
     <g id="line2d_15">
      <path clip-path="url(#pbbf27fa47c)" d="M 144 307.687277 
L 1036.8 307.687277 
" style="fill:none;stroke:#ffffff;stroke-linecap:round;stroke-width:0.8;"/>
     </g>
     <g id="line2d_16"/>
     <g id="text_8">
      <!-- 0 -->
      <g style="fill:#262626;" transform="translate(133.95125 310.586027)scale(0.08 -0.08)">
       <use xlink:href="#LiberationSans-30"/>
      </g>
     </g>
    </g>
    <g id="ytick_2">
     <g id="line2d_17">
      <path clip-path="url(#pbbf27fa47c)" d="M 144 270.113014 
L 1036.8 270.113014 
" style="fill:none;stroke:#ffffff;stroke-linecap:round;stroke-width:0.8;"/>
     </g>
     <g id="line2d_18"/>
     <g id="text_9">
      <!-- 2 -->
      <g style="fill:#262626;" transform="translate(133.95125 273.011764)scale(0.08 -0.08)">
       <use xlink:href="#LiberationSans-32"/>
      </g>
     </g>
    </g>
    <g id="ytick_3">
     <g id="line2d_19">
      <path clip-path="url(#pbbf27fa47c)" d="M 144 232.538751 
L 1036.8 232.538751 
" style="fill:none;stroke:#ffffff;stroke-linecap:round;stroke-width:0.8;"/>
     </g>
     <g id="line2d_20"/>
     <g id="text_10">
      <!-- 4 -->
      <defs>
       <path d="M 43.015625 15.578125 
L 43.015625 0 
L 34.71875 0 
L 34.71875 15.578125 
L 2.296875 15.578125 
L 2.296875 22.40625 
L 33.796875 68.796875 
L 43.015625 68.796875 
L 43.015625 22.515625 
L 52.6875 22.515625 
L 52.6875 15.578125 
z
M 34.71875 58.890625 
Q 34.625 58.640625 34.234375 57.9375 
Q 33.84375 57.234375 33.34375 56.34375 
Q 32.859375 55.46875 32.34375 54.5625 
Q 31.84375 53.65625 31.453125 53.078125 
L 13.8125 27.09375 
Q 13.578125 26.703125 13.109375 26.0625 
Q 12.640625 25.4375 12.15625 24.78125 
Q 11.671875 24.125 11.171875 23.484375 
Q 10.6875 22.859375 10.40625 22.515625 
L 34.71875 22.515625 
z
" id="LiberationSans-34"/>
      </defs>
      <g style="fill:#262626;" transform="translate(133.95125 235.437501)scale(0.08 -0.08)">
       <use xlink:href="#LiberationSans-34"/>
      </g>
     </g>
    </g>
    <g id="ytick_4">
     <g id="line2d_21">
      <path clip-path="url(#pbbf27fa47c)" d="M 144 194.964488 
L 1036.8 194.964488 
" style="fill:none;stroke:#ffffff;stroke-linecap:round;stroke-width:0.8;"/>
     </g>
     <g id="line2d_22"/>
     <g id="text_11">
      <!-- 6 -->
      <defs>
       <path d="M 51.21875 22.515625 
Q 51.21875 17.328125 49.78125 13 
Q 48.34375 8.6875 45.53125 5.578125 
Q 42.71875 2.484375 38.5625 0.75 
Q 34.421875 -0.984375 29 -0.984375 
Q 23 -0.984375 18.5 1.3125 
Q 14.015625 3.609375 11.03125 7.921875 
Q 8.0625 12.25 6.5625 18.53125 
Q 5.078125 24.8125 5.078125 32.8125 
Q 5.078125 42 6.765625 48.921875 
Q 8.453125 55.859375 11.625 60.5 
Q 14.796875 65.140625 19.359375 67.484375 
Q 23.921875 69.828125 29.6875 69.828125 
Q 33.203125 69.828125 36.28125 69.09375 
Q 39.359375 68.359375 41.875 66.71875 
Q 44.390625 65.09375 46.28125 62.40625 
Q 48.1875 59.71875 49.3125 55.8125 
L 40.921875 54.296875 
Q 39.546875 58.734375 36.546875 60.71875 
Q 33.546875 62.703125 29.59375 62.703125 
Q 25.984375 62.703125 23.046875 60.984375 
Q 20.125 59.28125 18.0625 55.875 
Q 16.015625 52.484375 14.90625 47.359375 
Q 13.8125 42.234375 13.8125 35.40625 
Q 16.21875 39.84375 20.5625 42.15625 
Q 24.90625 44.484375 30.515625 44.484375 
Q 35.203125 44.484375 39.015625 42.96875 
Q 42.828125 41.453125 45.53125 38.59375 
Q 48.25 35.75 49.734375 31.671875 
Q 51.21875 27.59375 51.21875 22.515625 
M 42.28125 22.125 
Q 42.28125 25.6875 41.40625 28.5625 
Q 40.53125 31.453125 38.765625 33.46875 
Q 37.015625 35.5 34.421875 36.59375 
Q 31.84375 37.703125 28.421875 37.703125 
Q 26.03125 37.703125 23.578125 36.984375 
Q 21.140625 36.28125 19.15625 34.6875 
Q 17.1875 33.109375 15.9375 30.515625 
Q 14.703125 27.9375 14.703125 24.21875 
Q 14.703125 20.40625 15.671875 17.109375 
Q 16.65625 13.8125 18.484375 11.375 
Q 20.3125 8.9375 22.890625 7.515625 
Q 25.484375 6.109375 28.71875 6.109375 
Q 31.890625 6.109375 34.40625 7.203125 
Q 36.921875 8.296875 38.671875 10.375 
Q 40.4375 12.453125 41.359375 15.421875 
Q 42.28125 18.40625 42.28125 22.125 
" id="LiberationSans-36"/>
      </defs>
      <g style="fill:#262626;" transform="translate(133.95125 197.863238)scale(0.08 -0.08)">
       <use xlink:href="#LiberationSans-36"/>
      </g>
     </g>
    </g>
    <g id="ytick_5">
     <g id="line2d_23">
      <path clip-path="url(#pbbf27fa47c)" d="M 144 157.390225 
L 1036.8 157.390225 
" style="fill:none;stroke:#ffffff;stroke-linecap:round;stroke-width:0.8;"/>
     </g>
     <g id="line2d_24"/>
     <g id="text_12">
      <!-- 8 -->
      <defs>
       <path d="M 51.265625 19.1875 
Q 51.265625 14.796875 49.875 11.109375 
Q 48.484375 7.421875 45.625 4.734375 
Q 42.78125 2.046875 38.328125 0.53125 
Q 33.890625 -0.984375 27.828125 -0.984375 
Q 21.78125 -0.984375 17.359375 0.53125 
Q 12.9375 2.046875 10.03125 4.703125 
Q 7.125 7.375 5.734375 11.0625 
Q 4.34375 14.75 4.34375 19.09375 
Q 4.34375 22.859375 5.484375 25.78125 
Q 6.640625 28.71875 8.5625 30.828125 
Q 10.5 32.953125 12.96875 34.25 
Q 15.4375 35.546875 18.0625 35.984375 
L 18.0625 36.1875 
Q 15.1875 36.859375 12.90625 38.375 
Q 10.640625 39.890625 9.09375 42.015625 
Q 7.5625 44.140625 6.75 46.71875 
Q 5.953125 49.3125 5.953125 52.203125 
Q 5.953125 55.8125 7.34375 59 
Q 8.734375 62.203125 11.46875 64.625 
Q 14.203125 67.046875 18.25 68.4375 
Q 22.3125 69.828125 27.640625 69.828125 
Q 33.25 69.828125 37.375 68.40625 
Q 41.5 67 44.203125 64.578125 
Q 46.921875 62.15625 48.234375 58.9375 
Q 49.5625 55.71875 49.5625 52.09375 
Q 49.5625 49.265625 48.75 46.671875 
Q 47.953125 44.09375 46.40625 41.96875 
Q 44.875 39.84375 42.59375 38.34375 
Q 40.328125 36.859375 37.359375 36.28125 
L 37.359375 36.078125 
Q 40.328125 35.59375 42.859375 34.296875 
Q 45.40625 33.015625 47.265625 30.890625 
Q 49.125 28.765625 50.1875 25.828125 
Q 51.265625 22.90625 51.265625 19.1875 
M 40.4375 51.609375 
Q 40.4375 54.203125 39.765625 56.34375 
Q 39.109375 58.5 37.59375 60.03125 
Q 36.078125 61.578125 33.640625 62.421875 
Q 31.203125 63.28125 27.640625 63.28125 
Q 24.171875 63.28125 21.78125 62.421875 
Q 19.390625 61.578125 17.84375 60.03125 
Q 16.3125 58.5 15.625 56.34375 
Q 14.9375 54.203125 14.9375 51.609375 
Q 14.9375 49.5625 15.46875 47.40625 
Q 16.015625 45.265625 17.421875 43.5 
Q 18.84375 41.75 21.328125 40.625 
Q 23.828125 39.5 27.734375 39.5 
Q 31.890625 39.5 34.40625 40.625 
Q 36.921875 41.75 38.25 43.5 
Q 39.59375 45.265625 40.015625 47.40625 
Q 40.4375 49.5625 40.4375 51.609375 
M 42.140625 20.015625 
Q 42.140625 22.515625 41.453125 24.828125 
Q 40.765625 27.15625 39.109375 28.9375 
Q 37.453125 30.71875 34.640625 31.8125 
Q 31.84375 32.90625 27.640625 32.90625 
Q 23.78125 32.90625 21.0625 31.8125 
Q 18.359375 30.71875 16.671875 28.90625 
Q 14.984375 27.09375 14.203125 24.71875 
Q 13.421875 22.359375 13.421875 19.828125 
Q 13.421875 16.65625 14.203125 14.03125 
Q 14.984375 11.421875 16.6875 9.546875 
Q 18.40625 7.671875 21.1875 6.640625 
Q 23.96875 5.609375 27.9375 5.609375 
Q 31.9375 5.609375 34.671875 6.640625 
Q 37.40625 7.671875 39.0625 9.546875 
Q 40.71875 11.421875 41.421875 14.078125 
Q 42.140625 16.75 42.140625 20.015625 
" id="LiberationSans-38"/>
      </defs>
      <g style="fill:#262626;" transform="translate(133.95125 160.288975)scale(0.08 -0.08)">
       <use xlink:href="#LiberationSans-38"/>
      </g>
     </g>
    </g>
    <g id="ytick_6">
     <g id="line2d_25">
      <path clip-path="url(#pbbf27fa47c)" d="M 144 119.815962 
L 1036.8 119.815962 
" style="fill:none;stroke:#ffffff;stroke-linecap:round;stroke-width:0.8;"/>
     </g>
     <g id="line2d_26"/>
     <g id="text_13">
      <!-- 10 -->
      <g style="fill:#262626;" transform="translate(129.5025 122.714712)scale(0.08 -0.08)">
       <use xlink:href="#LiberationSans-31"/>
       <use x="55.615234" xlink:href="#LiberationSans-30"/>
      </g>
     </g>
    </g>
    <g id="ytick_7">
     <g id="line2d_27">
      <path clip-path="url(#pbbf27fa47c)" d="M 144 82.241699 
L 1036.8 82.241699 
" style="fill:none;stroke:#ffffff;stroke-linecap:round;stroke-width:0.8;"/>
     </g>
     <g id="line2d_28"/>
     <g id="text_14">
      <!-- 12 -->
      <g style="fill:#262626;" transform="translate(129.5025 85.140449)scale(0.08 -0.08)">
       <use xlink:href="#LiberationSans-31"/>
       <use x="55.615234" xlink:href="#LiberationSans-32"/>
      </g>
     </g>
    </g>
    <g id="ytick_8">
     <g id="line2d_29">
      <path clip-path="url(#pbbf27fa47c)" d="M 144 44.667436 
L 1036.8 44.667436 
" style="fill:none;stroke:#ffffff;stroke-linecap:round;stroke-width:0.8;"/>
     </g>
     <g id="line2d_30"/>
     <g id="text_15">
      <!-- 14 -->
      <g style="fill:#262626;" transform="translate(129.5025 47.566186)scale(0.08 -0.08)">
       <use xlink:href="#LiberationSans-31"/>
       <use x="55.615234" xlink:href="#LiberationSans-34"/>
      </g>
     </g>
    </g>
   </g>
   <g id="line2d_31">
    <path clip-path="url(#pbbf27fa47c)" d="M 184.581818 283.432621 
L 186.305038 243.175925 
L 187.453851 219.685085 
L 188.602664 200.372832 
L 189.751477 185.477295 
L 190.90029 173.898727 
L 194.346728 144.185806 
L 195.495541 135.636813 
L 196.069948 132.291328 
L 196.644354 129.745828 
L 197.218761 128.038642 
L 197.793167 127.114091 
L 198.367574 126.828726 
L 198.94198 126.973698 
L 200.090793 127.604262 
L 200.6652 127.675755 
L 201.239606 127.417495 
L 201.814013 126.816058 
L 204.111639 123.43134 
L 204.686045 123.227939 
L 205.260452 123.540833 
L 205.834858 124.368142 
L 206.983671 127.111196 
L 208.132484 129.947126 
L 208.706891 130.849488 
L 209.281297 131.199048 
L 209.855704 130.942449 
L 210.43011 130.12156 
L 211.578923 127.357673 
L 212.727736 124.434566 
L 213.302142 123.358971 
L 213.876549 122.652952 
L 214.450955 122.28847 
L 216.174175 121.795346 
L 216.748581 121.159145 
L 217.322988 119.988648 
L 217.897394 118.200644 
L 218.471801 115.805002 
L 219.620614 109.67621 
L 221.343833 100.237688 
L 222.492646 95.80678 
L 223.641459 92.978748 
L 224.790272 90.513363 
L 225.364679 88.935208 
L 225.939085 86.947161 
L 227.087898 81.696034 
L 228.811118 72.634817 
L 229.385524 70.139338 
L 229.959931 68.2147 
L 230.534337 66.942492 
L 231.108743 66.310015 
L 231.68315 66.214033 
L 232.257556 66.480982 
L 233.406369 67.262257 
L 233.980776 67.400565 
L 234.555182 67.219983 
L 235.129589 66.715765 
L 236.852808 64.467965 
L 237.427215 64.121404 
L 238.001621 64.295007 
L 238.576028 65.099615 
L 239.150434 66.556801 
L 239.724841 68.593436 
L 242.596873 80.841663 
L 243.17128 82.434396 
L 243.745686 83.603016 
L 244.894499 85.177394 
L 245.468906 85.961472 
L 246.043312 87.003282 
L 246.617719 88.445425 
L 247.192125 90.352294 
L 248.340938 95.357422 
L 250.064157 103.214058 
L 250.638564 105.077367 
L 251.21297 106.320705 
L 251.787377 106.923538 
L 252.361783 106.959064 
L 252.93619 106.579268 
L 254.085003 105.391233 
L 254.659409 104.980163 
L 255.233816 104.873488 
L 255.808222 105.106268 
L 256.957035 106.277814 
L 257.531442 106.881136 
L 258.105848 107.215372 
L 258.680255 107.085578 
L 259.254661 106.354108 
L 259.829068 104.96699 
L 260.403474 102.965113 
L 261.552287 97.702313 
L 262.7011 92.189977 
L 263.849913 87.939087 
L 264.42432 86.468399 
L 265.573133 84.431801 
L 266.721946 82.387045 
L 267.296352 80.898689 
L 267.870759 78.952227 
L 269.019572 73.76409 
L 270.742791 65.087425 
L 271.317197 62.812957 
L 271.891604 61.127495 
L 272.46601 60.084117 
L 273.040417 59.640982 
L 273.614823 59.670668 
L 275.338043 60.631913 
L 275.912449 60.622088 
L 276.486856 60.276979 
L 277.061262 59.624061 
L 278.784482 57.266415 
L 279.358888 57.02146 
L 279.933295 57.347476 
L 280.507701 58.329436 
L 281.082108 59.959296 
L 282.230921 64.683684 
L 283.95414 72.346001 
L 284.528547 74.295871 
L 285.102953 75.811002 
L 286.251766 77.839381 
L 287.400579 79.664702 
L 287.974986 80.981666 
L 288.549392 82.747666 
L 289.698205 87.671979 
L 291.995831 99.024634 
L 292.570237 100.981703 
L 293.144644 102.314174 
L 293.71905 103.031476 
L 294.293457 103.233619 
L 294.867863 103.091148 
L 296.016676 102.603488 
L 296.591083 102.630115 
L 297.165489 102.985409 
L 297.739896 103.672543 
L 299.463115 106.500396 
L 300.037522 107.043156 
L 300.611928 107.062448 
L 301.186335 106.444174 
L 301.760741 105.163444 
L 302.335148 103.290224 
L 304.058367 95.89332 
L 305.20718 91.584264 
L 305.781587 90.036986 
L 306.355993 88.892206 
L 308.653619 85.370154 
L 309.228025 83.841314 
L 309.802432 81.823903 
L 310.951245 76.524064 
L 312.674464 68.045175 
L 313.248871 65.931573 
L 313.823277 64.42028 
L 314.397684 63.534608 
L 314.97209 63.204206 
L 315.546497 63.279804 
L 316.69531 63.840868 
L 317.269716 63.932975 
L 317.844123 63.719071 
L 318.418529 63.165428 
L 319.567342 61.357059 
L 320.141749 60.441335 
L 320.716155 59.801729 
L 321.290562 59.635959 
L 321.864968 60.084757 
L 322.439375 61.205318 
L 323.013781 62.959917 
L 324.162594 67.797134 
L 325.311407 72.989309 
L 326.46022 77.033671 
L 327.034627 78.444343 
L 328.183439 80.44734 
L 328.757846 81.395462 
L 329.332252 82.575128 
L 329.906659 84.150116 
L 330.481065 86.21434 
L 331.629878 91.734094 
L 333.353098 101.148204 
L 333.927504 103.728403 
L 334.501911 105.746148 
L 335.076317 107.145707 
L 335.650724 107.966122 
L 336.22513 108.332081 
L 337.94835 108.644544 
L 338.522756 109.101726 
L 339.097163 109.903162 
L 340.245976 112.335788 
L 341.394789 114.798117 
L 341.969195 115.518518 
L 342.543602 115.664142 
L 343.118008 115.146749 
L 343.692415 113.971089 
L 344.266821 112.234901 
L 347.138854 102.001094 
L 347.71326 100.807843 
L 348.287666 99.971948 
L 350.010886 98.020385 
L 350.585292 96.912373 
L 351.159699 95.330646 
L 351.734105 93.239515 
L 352.882918 87.848092 
L 354.031731 82.07965 
L 354.606138 79.611808 
L 355.180544 77.661681 
L 355.754951 76.316384 
L 356.329357 75.569142 
L 356.903764 75.322618 
L 357.47817 75.408767 
L 358.626983 75.756441 
L 359.20139 75.649556 
L 359.775796 75.209016 
L 360.350203 74.432936 
L 362.073422 71.331786 
L 362.647829 70.702852 
L 363.222235 70.604437 
L 363.796642 71.153875 
L 364.371048 72.379392 
L 364.945455 74.214247 
L 366.094268 79.053803 
L 367.24308 84.011053 
L 368.391893 87.718085 
L 369.540706 90.008605 
L 370.689519 91.973116 
L 371.263926 93.322072 
L 371.838332 95.124278 
L 372.412739 97.445941 
L 373.561552 103.450378 
L 375.284771 113.227481 
L 375.859178 115.834254 
L 376.433584 117.865638 
L 377.007991 119.295799 
L 377.582397 120.192475 
L 378.156804 120.702428 
L 379.305617 121.361592 
L 379.880023 121.900628 
L 380.45443 122.757795 
L 381.028836 123.96555 
L 383.326462 130.022726 
L 383.900869 130.87002 
L 384.475275 131.100145 
L 385.049682 130.652516 
L 385.624088 129.561498 
L 386.772901 126.011306 
L 387.921714 122.037313 
L 388.49612 120.392921 
L 389.070527 119.131498 
L 389.644933 118.258707 
L 390.793746 117.266821 
L 391.368153 116.790826 
L 391.942559 116.05986 
L 392.516966 114.909006 
L 393.091372 113.24311 
L 394.240185 108.438175 
L 395.963405 99.885578 
L 396.537811 97.538821 
L 397.112218 95.730426 
L 397.686624 94.518428 
L 398.261031 93.866255 
L 398.835437 93.651656 
L 400.558657 93.712779 
L 401.133063 93.358708 
L 401.70747 92.651814 
L 402.856283 90.387683 
L 404.005096 88.077854 
L 404.579502 87.433601 
L 405.153909 87.368057 
L 405.728315 87.972806 
L 406.302721 89.246495 
L 406.877128 91.094632 
L 409.74916 102.179981 
L 410.323567 103.611416 
L 411.47238 105.611016 
L 412.621193 107.598492 
L 413.195599 109.072164 
L 413.770006 111.04822 
L 414.918819 116.561313 
L 417.216445 129.785289 
L 417.790851 132.345394 
L 418.365258 134.327297 
L 418.939664 135.735412 
L 419.514071 136.66468 
L 421.811697 139.246553 
L 422.386103 140.450986 
L 423.534916 143.812377 
L 424.683729 147.490494 
L 425.258135 148.927093 
L 425.832542 149.834648 
L 426.406948 150.09249 
L 426.981355 149.668924 
L 427.555761 148.627295 
L 428.704574 145.336009 
L 429.853387 141.86101 
L 430.427794 140.519675 
L 431.0022 139.559293 
L 431.576607 138.953984 
L 433.299826 137.861523 
L 433.874233 137.094118 
L 434.448639 135.847775 
L 435.023046 134.054778 
L 436.171859 129.020903 
L 437.895078 120.475082 
L 438.469485 118.22107 
L 439.043891 116.516235 
L 439.618298 115.388557 
L 440.192704 114.772554 
L 440.767111 114.52364 
L 441.915924 114.335149 
L 442.49033 114.008743 
L 443.064737 113.350656 
L 443.639143 112.329501 
L 445.936769 106.922477 
L 446.511175 106.224314 
L 447.085582 106.143762 
L 447.659988 106.744829 
L 448.234395 107.996579 
L 449.383208 111.902644 
L 450.532021 116.294782 
L 451.680834 119.693481 
L 452.25524 120.842901 
L 454.552866 124.366699 
L 455.127273 125.908989 
L 455.701679 127.993362 
L 456.850492 133.722256 
L 459.148118 146.835198 
L 459.722525 149.269926 
L 460.296931 151.134135 
L 460.871338 152.462234 
L 461.445744 153.37432 
L 463.168964 155.516701 
L 463.74337 156.637575 
L 464.317776 158.125569 
L 465.466589 161.990142 
L 466.615402 165.940448 
L 467.189809 167.414115 
L 467.764215 168.311159 
L 468.338622 168.536578 
L 468.913028 168.088214 
L 469.487435 167.057176 
L 470.636248 163.964795 
L 471.785061 160.924506 
L 472.359467 159.843517 
L 472.933874 159.132264 
L 473.50828 158.733973 
L 474.657093 158.273605 
L 475.2315 157.813605 
L 475.805906 156.947993 
L 476.380313 155.553187 
L 476.954719 153.590435 
L 478.103532 148.270224 
L 479.826752 139.665764 
L 480.401158 137.471935 
L 480.975565 135.828043 
L 481.549971 134.731635 
L 482.124378 134.089791 
L 483.847597 133.09958 
L 484.422003 132.448809 
L 484.99641 131.433669 
L 486.145223 128.402832 
L 487.294036 125.000691 
L 487.868442 123.68685 
L 488.442849 122.895665 
L 489.017255 122.7511 
L 489.591662 123.288316 
L 490.166068 124.447394 
L 491.314881 127.997306 
L 492.463694 131.778515 
L 493.038101 133.294903 
L 493.612507 134.446368 
L 494.186914 135.259609 
L 495.910133 137.086452 
L 496.48454 138.13985 
L 497.058946 139.695577 
L 497.633353 141.823203 
L 498.782166 147.608697 
L 500.505385 157.501003 
L 501.654198 162.499641 
L 502.228605 164.185609 
L 502.803011 165.382959 
L 503.951824 166.933157 
L 504.52623 167.685101 
L 505.100637 168.668684 
L 505.675043 170.000032 
L 506.823856 173.735018 
L 508.547076 179.996665 
L 509.121482 181.436122 
L 509.695889 182.260727 
L 510.270295 182.403011 
L 510.844702 181.890405 
L 511.419108 180.839993 
L 513.716734 175.241193 
L 514.291141 174.382108 
L 514.865547 173.872595 
L 516.588767 173.242945 
L 517.163173 172.699703 
L 517.73758 171.685533 
L 518.311986 170.101678 
L 518.886393 167.939299 
L 520.035206 162.299768 
L 521.758425 153.600248 
L 522.332831 151.442055 
L 522.907238 149.824458 
L 523.481644 148.714803 
L 524.056051 147.994751 
L 525.204864 146.978362 
L 525.77927 146.284714 
L 526.353677 145.263643 
L 526.928083 143.854657 
L 528.076896 140.089344 
L 529.225709 136.169522 
L 529.800116 134.690734 
L 530.374522 133.778879 
L 530.948929 133.53231 
L 531.523335 133.95666 
L 532.097742 134.964213 
L 533.246555 138.023231 
L 534.395368 141.063713 
L 534.969774 142.161412 
L 535.544181 142.901936 
L 536.118587 143.34304 
L 537.2674 143.934218 
L 537.841807 144.485141 
L 538.416213 145.461115 
L 538.99062 146.987792 
L 539.565026 149.106015 
L 540.713839 154.81525 
L 542.437058 164.212953 
L 543.011465 166.726656 
L 543.585871 168.716319 
L 544.160278 170.182789 
L 544.734684 171.217306 
L 546.457904 173.50668 
L 547.03231 174.627287 
L 547.606717 176.129364 
L 548.75553 180.182244 
L 549.904343 184.662348 
L 550.478749 186.531232 
L 551.053156 187.884511 
L 551.627562 188.594964 
L 552.201969 188.623966 
L 552.776375 188.027977 
L 553.350782 186.94774 
L 555.074001 182.858956 
L 555.648408 181.849674 
L 556.222814 181.189039 
L 556.797221 180.849276 
L 557.946034 180.611247 
L 558.52044 180.326343 
L 559.094847 179.66331 
L 559.669253 178.472422 
L 560.24366 176.681867 
L 561.392472 171.478962 
L 563.690098 159.592904 
L 564.264505 157.463747 
L 564.838911 155.855845 
L 565.413318 154.707183 
L 567.710944 151.348811 
L 568.28535 149.937048 
L 569.434163 145.971123 
L 571.157383 139.204802 
L 571.731789 137.56281 
L 572.306196 136.523276 
L 572.880602 136.15704 
L 573.455009 136.440128 
L 574.029415 137.258778 
L 576.327041 141.961611 
L 576.901448 142.613978 
L 577.475854 142.926319 
L 579.199074 143.034207 
L 579.77348 143.432145 
L 580.347887 144.318729 
L 580.922293 145.795048 
L 581.496699 147.872243 
L 582.645512 153.416313 
L 584.368732 162.175595 
L 584.943138 164.407678 
L 585.517545 166.124554 
L 586.091951 167.357495 
L 587.240764 168.900946 
L 587.815171 169.594734 
L 588.389577 170.49563 
L 588.963984 171.743024 
L 589.53839 173.396933 
L 590.687203 177.705277 
L 591.836016 182.230939 
L 592.410423 184.031209 
L 592.984829 185.273208 
L 593.559236 185.855319 
L 594.133642 185.768481 
L 594.708049 185.097032 
L 595.856862 182.693857 
L 597.005675 180.271433 
L 597.580081 179.464237 
L 598.154488 179.000147 
L 598.728894 178.820214 
L 599.877707 178.700046 
L 600.452113 178.355484 
L 601.02652 177.563606 
L 601.600926 176.196353 
L 602.175333 174.210437 
L 603.324146 168.675663 
L 605.047365 159.29377 
L 606.196178 154.635186 
L 606.770585 153.043947 
L 607.919398 150.906901 
L 609.068211 148.93407 
L 609.642617 147.54942 
L 610.217024 145.757253 
L 611.365837 141.047981 
L 613.089056 133.540471 
L 613.663463 131.762692 
L 614.237869 130.613402 
L 614.812276 130.134587 
L 615.386682 130.273183 
L 615.961089 130.89167 
L 617.684308 133.595714 
L 618.258715 134.150287 
L 618.833121 134.362115 
L 619.407528 134.260218 
L 620.55634 133.641908 
L 621.130747 133.51557 
L 621.705153 133.781474 
L 622.27956 134.591806 
L 622.853966 136.020944 
L 623.428373 138.049953 
L 624.577186 143.391044 
L 625.725999 149.044153 
L 626.874812 153.399767 
L 627.449218 154.849848 
L 628.023625 155.864947 
L 630.321251 158.912899 
L 630.895657 160.300232 
L 632.04447 164.278826 
L 633.76769 171.205188 
L 634.342096 172.931189 
L 634.916503 174.065609 
L 635.490909 174.53437 
L 636.065316 174.358093 
L 636.639722 173.647277 
L 638.937348 169.332603 
L 639.511754 168.756698 
L 640.086161 168.509729 
L 641.80938 168.517173 
L 642.383787 168.124652 
L 642.958193 167.223132 
L 643.5326 165.708894 
L 644.107006 163.568173 
L 645.255819 157.811002 
L 646.979039 148.495679 
L 648.127852 144.015861 
L 648.702258 142.471552 
L 649.851071 140.218372 
L 650.999884 137.802572 
L 651.574291 136.103723 
L 652.723104 131.438186 
L 655.02073 120.561905 
L 655.595136 118.699757 
L 656.169543 117.481993 
L 656.743949 116.920986 
L 657.318356 116.935696 
L 657.892762 117.367608 
L 659.041575 118.650012 
L 659.615981 119.101474 
L 660.190388 119.246051 
L 660.764794 119.05154 
L 661.913607 117.967347 
L 662.488014 117.414326 
L 663.06242 117.131985 
L 663.636827 117.310238 
L 664.211233 118.079846 
L 664.78564 119.48687 
L 665.360046 121.482524 
L 666.508859 126.629188 
L 667.657672 131.867639 
L 668.232079 134.015438 
L 668.806485 135.698063 
L 669.380892 136.914382 
L 669.955298 137.753502 
L 671.678518 139.767885 
L 672.252924 140.8971 
L 672.827331 142.457092 
L 673.976144 146.771293 
L 675.699363 153.847626 
L 676.27377 155.517794 
L 676.848176 156.573085 
L 677.422583 156.968338 
L 677.996989 156.753367 
L 678.571395 156.062586 
L 680.294615 153.140105 
L 680.869021 152.505537 
L 681.443428 152.207593 
L 682.017834 152.215925 
L 683.166647 152.618724 
L 683.741054 152.619361 
L 684.31546 152.2127 
L 684.889867 151.243867 
L 685.464273 149.635657 
L 686.03868 147.404237 
L 687.187493 141.578737 
L 688.910712 132.568549 
L 689.485119 130.246272 
L 690.059525 128.390312 
L 691.208338 125.75751 
L 692.357151 123.416384 
L 692.931558 121.87719 
L 693.505964 119.917842 
L 694.654777 114.713343 
L 696.377997 105.751807 
L 696.952403 103.300986 
L 697.526809 101.422635 
L 698.101216 100.193905 
L 698.675622 99.5974 
L 699.250029 99.525783 
L 699.824435 99.802743 
L 700.973248 100.559355 
L 701.547655 100.666945 
L 702.122061 100.448426 
L 702.696468 99.903575 
L 704.419687 97.55206 
L 704.994094 97.180447 
L 705.5685 97.330691 
L 706.142907 98.109429 
L 706.717313 99.533364 
L 707.29172 101.524689 
L 710.163752 113.300617 
L 710.738159 114.761704 
L 711.312565 115.795747 
L 712.461378 117.106028 
L 713.035785 117.763394 
L 713.610191 118.680678 
L 714.184598 119.997285 
L 714.759004 121.77334 
L 715.907817 126.483537 
L 717.05663 131.61097 
L 717.631036 133.779112 
L 718.205443 135.42711 
L 718.779849 136.447377 
L 719.354256 136.824451 
L 719.928662 136.636266 
L 720.503069 136.038406 
L 721.651882 134.436643 
L 722.226288 133.827735 
L 722.800695 133.525069 
L 723.375101 133.559483 
L 723.949508 133.869294 
L 725.098321 134.689402 
L 725.672727 134.787263 
L 726.247134 134.41275 
L 726.82154 133.432201 
L 727.395947 131.796563 
L 727.970353 129.551737 
L 729.119166 123.835239 
L 730.267979 117.920731 
L 731.416792 113.303202 
L 731.991199 111.65216 
L 733.140012 109.241272 
L 734.288825 106.79461 
L 734.863231 105.098464 
L 735.437638 102.944676 
L 736.58645 97.361463 
L 738.30967 88.18525 
L 738.884076 85.768611 
L 739.458483 83.947659 
L 740.032889 82.770551 
L 740.607296 82.190567 
L 741.181702 82.076286 
L 742.904922 82.548284 
L 743.479328 82.360866 
L 744.053735 81.836825 
L 745.202548 79.992714 
L 746.351361 78.168325 
L 746.925767 77.778888 
L 747.500174 77.964207 
L 748.07458 78.804583 
L 748.648987 80.286917 
L 749.7978 84.681385 
L 751.521019 91.740308 
L 752.095426 93.467486 
L 752.669832 94.756008 
L 753.244239 95.665691 
L 754.967458 97.731784 
L 755.541865 98.839494 
L 756.116271 100.395342 
L 756.690677 102.42954 
L 757.83949 107.594223 
L 758.988303 112.969991 
L 759.56271 115.182829 
L 760.137116 116.845662 
L 760.711523 117.878554 
L 761.285929 118.295935 
L 761.860336 118.202204 
L 763.009149 117.211587 
L 763.583555 116.729679 
L 764.157962 116.488056 
L 764.732368 116.576086 
L 765.306775 116.992638 
L 767.029994 118.956443 
L 767.604401 119.1909 
L 768.178807 118.895101 
L 768.753214 117.959326 
L 769.32762 116.363743 
L 770.476433 111.574703 
L 772.199653 103.348083 
L 773.348466 99.333328 
L 774.497279 96.841621 
L 775.646091 94.762493 
L 776.220498 93.390791 
L 776.794904 91.594067 
L 777.943717 86.575624 
L 780.241343 74.377442 
L 780.81575 72.071452 
L 781.390156 70.374019 
L 781.964563 69.303483 
L 782.538969 68.784838 
L 783.113376 68.665286 
L 784.262189 68.810086 
L 784.836595 68.683347 
L 785.411002 68.247684 
L 785.985408 67.473641 
L 788.283034 63.30703 
L 788.857441 62.962864 
L 789.431847 63.236868 
L 790.006254 64.18133 
L 790.58066 65.753509 
L 791.729473 70.191335 
L 792.878286 74.929216 
L 793.452693 76.909427 
L 794.027099 78.480031 
L 794.601506 79.639477 
L 795.750318 81.150506 
L 796.324725 81.861651 
L 796.899131 82.809676 
L 797.473538 84.155542 
L 798.047944 85.989041 
L 799.196757 91.024176 
L 800.919977 99.608491 
L 801.494383 101.884901 
L 802.06879 103.590674 
L 802.643196 104.674966 
L 803.217603 105.181681 
L 803.792009 105.239499 
L 805.515229 104.67563 
L 806.089635 104.852178 
L 806.664042 105.372822 
L 807.812855 107.226987 
L 808.961668 109.071992 
L 809.536074 109.469768 
L 810.110481 109.287542 
L 810.684887 108.441779 
L 811.259294 106.942339 
L 812.408107 102.466755 
L 814.131326 95.137617 
L 814.705732 93.276323 
L 815.280139 91.831122 
L 816.428952 89.870237 
L 817.577765 88.00098 
L 818.152171 86.620803 
L 818.726578 84.767442 
L 819.875391 79.610861 
L 822.173017 67.644856 
L 822.747423 65.507281 
L 823.32183 63.980274 
L 823.896236 63.052129 
L 824.470643 62.621172 
L 825.045049 62.516365 
L 826.193862 62.459972 
L 826.768269 62.143471 
L 827.342675 61.493017 
L 827.917082 60.511065 
L 829.640301 56.849352 
L 830.214708 56.055568 
L 830.789114 55.8 
L 831.363521 56.195619 
L 831.937927 57.265594 
L 832.512334 58.938305 
L 833.661146 63.419914 
L 834.809959 67.969542 
L 835.384366 69.806418 
L 835.958772 71.238815 
L 836.533179 72.296447 
L 838.256398 74.649822 
L 838.830805 75.803105 
L 839.405211 77.411718 
L 839.979618 79.537433 
L 841.128431 85.124672 
L 842.85165 94.174224 
L 843.426057 96.513893 
L 844.000463 98.271975 
L 844.57487 99.427574 
L 845.149276 100.05306 
L 845.723683 100.298713 
L 846.872496 100.455197 
L 847.446902 100.753596 
L 848.021309 101.37304 
L 848.595715 102.341717 
L 850.893341 107.363836 
L 851.467748 107.930009 
L 852.042154 107.875417 
L 852.616561 107.144416 
L 853.190967 105.776431 
L 854.33978 101.707367 
L 855.488593 97.270602 
L 856.062999 95.412118 
L 856.637406 93.943126 
L 857.211812 92.864847 
L 858.360625 91.453617 
L 858.935032 90.76012 
L 859.509438 89.807183 
L 860.083845 88.432773 
L 860.658251 86.545932 
L 861.807064 81.325645 
L 863.530284 72.262813 
L 864.10469 69.776231 
L 864.679097 67.837884 
L 865.253503 66.501 
L 865.82791 65.72421 
L 866.402316 65.381322 
L 868.125536 65.021243 
L 868.699942 64.519327 
L 869.274349 63.666822 
L 870.423162 61.134749 
L 871.571975 58.604684 
L 872.146381 57.867701 
L 872.720787 57.716972 
L 873.295194 58.239394 
L 873.8696 59.428504 
L 874.444007 61.185152 
L 877.316039 71.655304 
L 877.890446 72.945768 
L 879.039259 74.676121 
L 879.613665 75.446968 
L 880.188072 76.424134 
L 880.762478 77.787069 
L 881.336885 79.653776 
L 882.485698 84.933675 
L 884.783324 97.545799 
L 885.35773 99.924109 
L 885.932137 101.719904 
L 886.506543 102.942491 
L 887.08095 103.691121 
L 888.804169 104.923431 
L 889.378576 105.630722 
L 889.952982 106.686661 
L 891.101795 109.738917 
L 892.250608 113.071914 
L 892.825014 114.321348 
L 893.399421 115.035286 
L 893.973827 115.097431 
L 894.548234 114.48117 
L 895.12264 113.254768 
L 896.271453 109.631769 
L 897.420266 105.88076 
L 897.994673 104.417204 
L 898.569079 103.339774 
L 899.143486 102.618242 
L 900.866705 101.153757 
L 901.441112 100.253809 
L 902.015518 98.8749 
L 902.589925 96.953822 
L 903.738738 91.695808 
L 905.461957 82.933792 
L 906.036364 80.637568 
L 906.61077 78.899504 
L 907.185177 77.742714 
L 907.759583 77.097146 
L 908.33399 76.814743 
L 909.482803 76.542411 
L 910.057209 76.167979 
L 910.631616 75.462064 
L 911.206022 74.397588 
L 913.503648 68.928468 
L 914.078054 68.24547 
L 914.652461 68.187076 
L 915.226867 68.812365 
L 915.801274 70.085334 
L 916.950087 74.008895 
L 918.0989 78.375663 
L 919.247713 81.720763 
L 919.822119 82.842771 
L 922.119745 86.324609 
L 922.694152 87.872822 
L 923.268558 89.963457 
L 924.417371 95.686951 
L 926.714997 108.640843 
L 927.289404 111.009546 
L 927.86381 112.805055 
L 928.438217 114.066526 
L 929.012623 114.917967 
L 930.735843 116.928383 
L 931.310249 118.017198 
L 931.884655 119.473108 
L 933.033468 123.256752 
L 934.182281 127.086899 
L 934.756688 128.486207 
L 935.331094 129.303394 
L 935.905501 129.448146 
L 936.479907 128.923429 
L 937.054314 127.825036 
L 938.203127 124.636981 
L 939.35194 121.554147 
L 939.926346 120.465452 
L 940.500753 119.749958 
L 941.075159 119.346721 
L 942.223972 118.863322 
L 942.798379 118.384145 
L 943.372785 117.496758 
L 943.947192 116.081467 
L 944.521598 114.104256 
L 945.670411 108.791266 
L 947.393631 100.320644 
L 947.968037 98.199794 
L 948.542444 96.63654 
L 949.11685 95.623602 
L 949.691257 95.063802 
L 951.414476 94.291132 
L 951.988882 93.7061 
L 952.563289 92.758717 
L 953.712102 89.88661 
L 954.860915 86.694251 
L 955.435321 85.505663 
L 956.009728 84.85007 
L 956.584134 84.847079 
L 957.158541 85.526775 
L 957.732947 86.824309 
L 958.88176 90.624872 
L 960.030573 94.616179 
L 960.60498 96.227395 
L 961.179386 97.472164 
L 961.753793 98.381496 
L 963.477012 100.541308 
L 964.051419 101.721233 
L 964.625825 103.406947 
L 965.200232 105.663456 
L 966.349045 111.684561 
L 968.072264 121.833684 
L 969.221077 126.949438 
L 969.795483 128.689506 
L 970.36989 129.9441 
L 971.518703 131.630233 
L 972.093109 132.462352 
L 972.667516 133.532025 
L 973.241922 134.951779 
L 974.390735 138.853236 
L 976.113955 145.292929 
L 976.688361 146.771962 
L 977.262768 147.631373 
L 977.837174 147.80861 
L 978.411581 147.336172 
L 978.985987 146.335507 
L 981.283613 141.06103 
L 981.85802 140.305734 
L 982.432426 139.901408 
L 984.155646 139.563419 
L 984.730052 139.106717 
L 985.304459 138.177113 
L 985.878865 136.680136 
L 986.453272 134.611812 
L 987.602085 129.199132 
L 988.750898 123.429551 
L 989.89971 118.983024 
L 990.474117 117.551089 
L 991.048523 116.62832 
L 991.62293 116.092515 
L 992.771743 115.429251 
L 993.346149 114.905604 
L 993.920556 114.053856 
L 994.494962 112.817707 
L 995.643775 109.425456 
L 996.218182 107.583978 
L 996.218182 107.583978 
" style="fill:none;stroke:#4c72b0;stroke-linecap:round;stroke-width:1.4;"/>
   </g>
   <g id="line2d_32">
    <path clip-path="url(#pbbf27fa47c)" d="M 184.581818 307.8 
L 996.218182 307.8 
L 996.218182 307.8 
" style="fill:none;stroke:#55a868;stroke-linecap:round;stroke-width:1.4;"/>
   </g>
   <g id="patch_3">
    <path d="M 144 320.4 
L 144 43.2 
" style="fill:none;"/>
   </g>
   <g id="patch_4">
    <path d="M 1036.8 320.4 
L 1036.8 43.2 
" style="fill:none;"/>
   </g>
   <g id="patch_5">
    <path d="M 144 320.4 
L 1036.8 320.4 
" style="fill:none;"/>
   </g>
   <g id="patch_6">
    <path d="M 144 43.2 
L 1036.8 43.2 
" style="fill:none;"/>
   </g>
   <g id="legend_1">
    <g id="line2d_33">
     <path d="M 1002.75125 53.3975 
L 1018.75125 53.3975 
" style="fill:none;stroke:#4c72b0;stroke-linecap:round;stroke-width:1.4;"/>
    </g>
    <g id="line2d_34"/>
    <g id="text_16">
     <!-- a -->
     <defs>
      <path d="M 20.21875 -0.984375 
Q 12.25 -0.984375 8.25 3.21875 
Q 4.25 7.421875 4.25 14.75 
Q 4.25 19.96875 6.21875 23.3125 
Q 8.203125 26.65625 11.390625 28.5625 
Q 14.59375 30.46875 18.6875 31.203125 
Q 22.796875 31.9375 27.046875 32.03125 
L 38.921875 32.234375 
L 38.921875 35.109375 
Q 38.921875 38.375 38.234375 40.671875 
Q 37.546875 42.96875 36.125 44.375 
Q 34.71875 45.796875 32.59375 46.453125 
Q 30.46875 47.125 27.59375 47.125 
Q 25.046875 47.125 23 46.75 
Q 20.953125 46.390625 19.4375 45.4375 
Q 17.921875 44.484375 16.984375 42.84375 
Q 16.0625 41.21875 15.765625 38.71875 
L 6.59375 39.546875 
Q 7.078125 42.671875 8.4375 45.28125 
Q 9.8125 47.90625 12.328125 49.796875 
Q 14.84375 51.703125 18.625 52.75 
Q 22.40625 53.8125 27.78125 53.8125 
Q 37.75 53.8125 42.765625 49.234375 
Q 47.796875 44.671875 47.796875 36.03125 
L 47.796875 13.28125 
Q 47.796875 9.375 48.828125 7.390625 
Q 49.859375 5.421875 52.734375 5.421875 
Q 53.46875 5.421875 54.203125 5.515625 
Q 54.9375 5.609375 55.609375 5.765625 
L 55.609375 0.296875 
Q 53.953125 -0.09375 52.3125 -0.28125 
Q 50.6875 -0.484375 48.828125 -0.484375 
Q 46.34375 -0.484375 44.5625 0.171875 
Q 42.78125 0.828125 41.65625 2.171875 
Q 40.53125 3.515625 39.9375 5.484375 
Q 39.359375 7.46875 39.203125 10.109375 
L 38.921875 10.109375 
Q 37.5 7.5625 35.8125 5.515625 
Q 34.125 3.46875 31.875 2.03125 
Q 29.640625 0.59375 26.78125 -0.1875 
Q 23.921875 -0.984375 20.21875 -0.984375 
M 22.21875 5.609375 
Q 26.421875 5.609375 29.5625 7.140625 
Q 32.71875 8.6875 34.78125 11.078125 
Q 36.859375 13.484375 37.890625 16.3125 
Q 38.921875 19.140625 38.921875 21.734375 
L 38.921875 26.078125 
L 29.296875 25.875 
Q 26.078125 25.828125 23.171875 25.40625 
Q 20.265625 25 18.0625 23.78125 
Q 15.875 22.5625 14.578125 20.359375 
Q 13.28125 18.171875 13.28125 14.59375 
Q 13.28125 10.296875 15.59375 7.953125 
Q 17.921875 5.609375 22.21875 5.609375 
" id="LiberationSans-61"/>
     </defs>
     <g style="fill:#262626;" transform="translate(1025.15125 56.1975)scale(0.08 -0.08)">
      <use xlink:href="#LiberationSans-61"/>
     </g>
    </g>
    <g id="line2d_35">
     <path d="M 1002.75125 64.855 
L 1018.75125 64.855 
" style="fill:none;stroke:#55a868;stroke-linecap:round;stroke-width:1.4;"/>
    </g>
    <g id="line2d_36"/>
    <g id="text_17">
     <!-- b -->
     <defs>
      <path d="M 51.421875 26.65625 
Q 51.421875 -0.984375 31.984375 -0.984375 
Q 25.984375 -0.984375 22 1.1875 
Q 18.015625 3.375 15.53125 8.203125 
L 15.4375 8.203125 
Q 15.4375 6.9375 15.359375 5.5625 
Q 15.28125 4.203125 15.203125 3.03125 
Q 15.140625 1.859375 15.0625 1.03125 
Q 14.984375 0.203125 14.9375 0 
L 6.453125 0 
Q 6.5 0.4375 6.546875 1.484375 
Q 6.59375 2.546875 6.640625 4 
Q 6.6875 5.46875 6.703125 7.21875 
Q 6.734375 8.984375 6.734375 10.890625 
L 6.734375 72.46875 
L 15.53125 72.46875 
L 15.53125 51.8125 
Q 15.53125 50.34375 15.5 49 
Q 15.484375 47.65625 15.4375 46.625 
Q 15.375 45.40625 15.328125 44.34375 
L 15.53125 44.34375 
Q 17.96875 49.421875 22 51.609375 
Q 26.03125 53.8125 31.984375 53.8125 
Q 42 53.8125 46.703125 47.0625 
Q 51.421875 40.328125 51.421875 26.65625 
M 42.1875 26.375 
Q 42.1875 31.84375 41.5 35.75 
Q 40.828125 39.65625 39.3125 42.15625 
Q 37.796875 44.671875 35.453125 45.84375 
Q 33.109375 47.015625 29.734375 47.015625 
Q 26.265625 47.015625 23.609375 45.890625 
Q 20.953125 44.78125 19.171875 42.28125 
Q 17.390625 39.796875 16.453125 35.734375 
Q 15.53125 31.6875 15.53125 25.828125 
Q 15.53125 20.171875 16.453125 16.3125 
Q 17.390625 12.453125 19.171875 10.03125 
Q 20.953125 7.625 23.578125 6.5625 
Q 26.21875 5.515625 29.640625 5.515625 
Q 32.859375 5.515625 35.203125 6.640625 
Q 37.546875 7.765625 39.109375 10.25 
Q 40.671875 12.75 41.421875 16.71875 
Q 42.1875 20.703125 42.1875 26.375 
" id="LiberationSans-62"/>
     </defs>
     <g style="fill:#262626;" transform="translate(1025.15125 67.655)scale(0.08 -0.08)">
      <use xlink:href="#LiberationSans-62"/>
     </g>
    </g>
   </g>
  </g>
 </g>
 <defs>
  <clipPath id="pbbf27fa47c">
   <rect height="277.2" width="892.8" x="144" y="43.2"/>
  </clipPath>
 </defs>
</svg>
