<?xml version="1.0" encoding="utf-8" standalone="no"?>
<!DOCTYPE svg PUBLIC "-//W3C//DTD SVG 1.1//EN"
  "http://www.w3.org/Graphics/SVG/1.1/DTD/svg11.dtd">
<!-- Created with matplotlib (http://matplotlib.org/) -->
<svg height="360pt" version="1.1" viewBox="0 0 1152 360" width="1152pt" xmlns="http://www.w3.org/2000/svg" xmlns:xlink="http://www.w3.org/1999/xlink">
 <defs>
  <style type="text/css">
*{stroke-linecap:butt;stroke-linejoin:round;}
  </style>
 </defs>
 <g id="figure_1">
  <g id="patch_1">
   <path d="M 0 360 
L 1152 360 
L 1152 0 
L 0 0 
z
" style="fill:#ffffff;"/>
  </g>
  <g id="axes_1">
   <g id="patch_2">
    <path d="M 144 320.4 
L 1036.8 320.4 
L 1036.8 43.2 
L 144 43.2 
z
" style="fill:#eaeaf2;"/>
   </g>
   <g id="matplotlib.axis_1">
    <g id="xtick_1">
     <g id="line2d_1">
      <path clip-path="url(#p2d7e2c5698)" d="M 184.581818 320.4 
L 184.581818 43.2 
" style="fill:none;stroke:#ffffff;stroke-linecap:round;stroke-width:0.8;"/>
     </g>
     <g id="line2d_2"/>
     <g id="text_1">
      <!-- 0 -->
      <defs>
       <path d="M 51.703125 34.421875 
Q 51.703125 24.515625 49.828125 17.75 
Q 47.953125 10.984375 44.703125 6.8125 
Q 41.453125 2.640625 37.0625 0.828125 
Q 32.671875 -0.984375 27.6875 -0.984375 
Q 22.65625 -0.984375 18.3125 0.828125 
Q 13.96875 2.640625 10.765625 6.78125 
Q 7.5625 10.9375 5.734375 17.703125 
Q 3.90625 24.46875 3.90625 34.421875 
Q 3.90625 44.828125 5.734375 51.640625 
Q 7.5625 58.453125 10.78125 62.5 
Q 14.015625 66.546875 18.40625 68.1875 
Q 22.796875 69.828125 27.984375 69.828125 
Q 32.90625 69.828125 37.21875 68.1875 
Q 41.546875 66.546875 44.765625 62.5 
Q 48 58.453125 49.84375 51.640625 
Q 51.703125 44.828125 51.703125 34.421875 
M 42.78125 34.421875 
Q 42.78125 42.625 41.796875 48.0625 
Q 40.828125 53.515625 38.921875 56.765625 
Q 37.015625 60.015625 34.25 61.359375 
Q 31.5 62.703125 27.984375 62.703125 
Q 24.265625 62.703125 21.4375 61.328125 
Q 18.609375 59.96875 16.671875 56.71875 
Q 14.75 53.46875 13.765625 48.015625 
Q 12.796875 42.578125 12.796875 34.421875 
Q 12.796875 26.515625 13.796875 21.09375 
Q 14.796875 15.671875 16.71875 12.375 
Q 18.65625 9.078125 21.4375 7.640625 
Q 24.21875 6.203125 27.78125 6.203125 
Q 31.25 6.203125 34.03125 7.640625 
Q 36.8125 9.078125 38.734375 12.375 
Q 40.671875 15.671875 41.71875 21.09375 
Q 42.78125 26.515625 42.78125 34.421875 
" id="LiberationSans-30"/>
      </defs>
      <g style="fill:#262626;" transform="translate(182.357443 331.7975)scale(0.08 -0.08)">
       <use xlink:href="#LiberationSans-30"/>
      </g>
     </g>
    </g>
    <g id="xtick_2">
     <g id="line2d_3">
      <path clip-path="url(#p2d7e2c5698)" d="M 299.625952 320.4 
L 299.625952 43.2 
" style="fill:none;stroke:#ffffff;stroke-linecap:round;stroke-width:0.8;"/>
     </g>
     <g id="line2d_4"/>
     <g id="text_2">
      <!-- 200 -->
      <defs>
       <path d="M 5.03125 0 
L 5.03125 6.203125 
Q 7.515625 11.921875 11.109375 16.28125 
Q 14.703125 20.65625 18.65625 24.1875 
Q 22.609375 27.734375 26.484375 30.765625 
Q 30.375 33.796875 33.5 36.8125 
Q 36.625 39.84375 38.546875 43.15625 
Q 40.484375 46.484375 40.484375 50.6875 
Q 40.484375 53.609375 39.59375 55.828125 
Q 38.71875 58.0625 37.0625 59.5625 
Q 35.40625 61.078125 33.078125 61.828125 
Q 30.765625 62.59375 27.9375 62.59375 
Q 25.296875 62.59375 22.96875 61.859375 
Q 20.65625 61.140625 18.84375 59.671875 
Q 17.046875 58.203125 15.890625 56.03125 
Q 14.75 53.859375 14.40625 50.984375 
L 5.421875 51.8125 
Q 5.859375 55.515625 7.46875 58.78125 
Q 9.078125 62.0625 11.90625 64.53125 
Q 14.75 67 18.71875 68.40625 
Q 22.703125 69.828125 27.9375 69.828125 
Q 33.0625 69.828125 37.0625 68.609375 
Q 41.0625 67.390625 43.8125 64.984375 
Q 46.578125 62.59375 48.046875 59.078125 
Q 49.515625 55.5625 49.515625 50.984375 
Q 49.515625 47.515625 48.265625 44.390625 
Q 47.015625 41.265625 44.9375 38.421875 
Q 42.875 35.59375 40.140625 32.953125 
Q 37.40625 30.328125 34.421875 27.8125 
Q 31.453125 25.296875 28.421875 22.828125 
Q 25.390625 20.359375 22.71875 17.859375 
Q 20.0625 15.375 17.96875 12.8125 
Q 15.875 10.25 14.703125 7.46875 
L 50.59375 7.46875 
L 50.59375 0 
z
" id="LiberationSans-32"/>
      </defs>
      <g style="fill:#262626;" transform="translate(292.952827 331.7975)scale(0.08 -0.08)">
       <use xlink:href="#LiberationSans-32"/>
       <use x="55.615234" xlink:href="#LiberationSans-30"/>
       <use x="111.230469" xlink:href="#LiberationSans-30"/>
      </g>
     </g>
    </g>
    <g id="xtick_3">
     <g id="line2d_5">
      <path clip-path="url(#p2d7e2c5698)" d="M 414.670086 320.4 
L 414.670086 43.2 
" style="fill:none;stroke:#ffffff;stroke-linecap:round;stroke-width:0.8;"/>
     </g>
     <g id="line2d_6"/>
     <g id="text_3">
      <!-- 400 -->
      <defs>
       <path d="M 43.015625 15.578125 
L 43.015625 0 
L 34.71875 0 
L 34.71875 15.578125 
L 2.296875 15.578125 
L 2.296875 22.40625 
L 33.796875 68.796875 
L 43.015625 68.796875 
L 43.015625 22.515625 
L 52.6875 22.515625 
L 52.6875 15.578125 
z
M 34.71875 58.890625 
Q 34.625 58.640625 34.234375 57.9375 
Q 33.84375 57.234375 33.34375 56.34375 
Q 32.859375 55.46875 32.34375 54.5625 
Q 31.84375 53.65625 31.453125 53.078125 
L 13.8125 27.09375 
Q 13.578125 26.703125 13.109375 26.0625 
Q 12.640625 25.4375 12.15625 24.78125 
Q 11.671875 24.125 11.171875 23.484375 
Q 10.6875 22.859375 10.40625 22.515625 
L 34.71875 22.515625 
z
" id="LiberationSans-34"/>
      </defs>
      <g style="fill:#262626;" transform="translate(407.996961 331.7975)scale(0.08 -0.08)">
       <use xlink:href="#LiberationSans-34"/>
       <use x="55.615234" xlink:href="#LiberationSans-30"/>
       <use x="111.230469" xlink:href="#LiberationSans-30"/>
      </g>
     </g>
    </g>
    <g id="xtick_4">
     <g id="line2d_7">
      <path clip-path="url(#p2d7e2c5698)" d="M 529.714219 320.4 
L 529.714219 43.2 
" style="fill:none;stroke:#ffffff;stroke-linecap:round;stroke-width:0.8;"/>
     </g>
     <g id="line2d_8"/>
     <g id="text_4">
      <!-- 600 -->
      <defs>
       <path d="M 51.21875 22.515625 
Q 51.21875 17.328125 49.78125 13 
Q 48.34375 8.6875 45.53125 5.578125 
Q 42.71875 2.484375 38.5625 0.75 
Q 34.421875 -0.984375 29 -0.984375 
Q 23 -0.984375 18.5 1.3125 
Q 14.015625 3.609375 11.03125 7.921875 
Q 8.0625 12.25 6.5625 18.53125 
Q 5.078125 24.8125 5.078125 32.8125 
Q 5.078125 42 6.765625 48.921875 
Q 8.453125 55.859375 11.625 60.5 
Q 14.796875 65.140625 19.359375 67.484375 
Q 23.921875 69.828125 29.6875 69.828125 
Q 33.203125 69.828125 36.28125 69.09375 
Q 39.359375 68.359375 41.875 66.71875 
Q 44.390625 65.09375 46.28125 62.40625 
Q 48.1875 59.71875 49.3125 55.8125 
L 40.921875 54.296875 
Q 39.546875 58.734375 36.546875 60.71875 
Q 33.546875 62.703125 29.59375 62.703125 
Q 25.984375 62.703125 23.046875 60.984375 
Q 20.125 59.28125 18.0625 55.875 
Q 16.015625 52.484375 14.90625 47.359375 
Q 13.8125 42.234375 13.8125 35.40625 
Q 16.21875 39.84375 20.5625 42.15625 
Q 24.90625 44.484375 30.515625 44.484375 
Q 35.203125 44.484375 39.015625 42.96875 
Q 42.828125 41.453125 45.53125 38.59375 
Q 48.25 35.75 49.734375 31.671875 
Q 51.21875 27.59375 51.21875 22.515625 
M 42.28125 22.125 
Q 42.28125 25.6875 41.40625 28.5625 
Q 40.53125 31.453125 38.765625 33.46875 
Q 37.015625 35.5 34.421875 36.59375 
Q 31.84375 37.703125 28.421875 37.703125 
Q 26.03125 37.703125 23.578125 36.984375 
Q 21.140625 36.28125 19.15625 34.6875 
Q 17.1875 33.109375 15.9375 30.515625 
Q 14.703125 27.9375 14.703125 24.21875 
Q 14.703125 20.40625 15.671875 17.109375 
Q 16.65625 13.8125 18.484375 11.375 
Q 20.3125 8.9375 22.890625 7.515625 
Q 25.484375 6.109375 28.71875 6.109375 
Q 31.890625 6.109375 34.40625 7.203125 
Q 36.921875 8.296875 38.671875 10.375 
Q 40.4375 12.453125 41.359375 15.421875 
Q 42.28125 18.40625 42.28125 22.125 
" id="LiberationSans-36"/>
      </defs>
      <g style="fill:#262626;" transform="translate(523.041094 331.7975)scale(0.08 -0.08)">
       <use xlink:href="#LiberationSans-36"/>
       <use x="55.615234" xlink:href="#LiberationSans-30"/>
       <use x="111.230469" xlink:href="#LiberationSans-30"/>
      </g>
     </g>
    </g>
    <g id="xtick_5">
     <g id="line2d_9">
      <path clip-path="url(#p2d7e2c5698)" d="M 644.758353 320.4 
L 644.758353 43.2 
" style="fill:none;stroke:#ffffff;stroke-linecap:round;stroke-width:0.8;"/>
     </g>
     <g id="line2d_10"/>
     <g id="text_5">
      <!-- 800 -->
      <defs>
       <path d="M 51.265625 19.1875 
Q 51.265625 14.796875 49.875 11.109375 
Q 48.484375 7.421875 45.625 4.734375 
Q 42.78125 2.046875 38.328125 0.53125 
Q 33.890625 -0.984375 27.828125 -0.984375 
Q 21.78125 -0.984375 17.359375 0.53125 
Q 12.9375 2.046875 10.03125 4.703125 
Q 7.125 7.375 5.734375 11.0625 
Q 4.34375 14.75 4.34375 19.09375 
Q 4.34375 22.859375 5.484375 25.78125 
Q 6.640625 28.71875 8.5625 30.828125 
Q 10.5 32.953125 12.96875 34.25 
Q 15.4375 35.546875 18.0625 35.984375 
L 18.0625 36.1875 
Q 15.1875 36.859375 12.90625 38.375 
Q 10.640625 39.890625 9.09375 42.015625 
Q 7.5625 44.140625 6.75 46.71875 
Q 5.953125 49.3125 5.953125 52.203125 
Q 5.953125 55.8125 7.34375 59 
Q 8.734375 62.203125 11.46875 64.625 
Q 14.203125 67.046875 18.25 68.4375 
Q 22.3125 69.828125 27.640625 69.828125 
Q 33.25 69.828125 37.375 68.40625 
Q 41.5 67 44.203125 64.578125 
Q 46.921875 62.15625 48.234375 58.9375 
Q 49.5625 55.71875 49.5625 52.09375 
Q 49.5625 49.265625 48.75 46.671875 
Q 47.953125 44.09375 46.40625 41.96875 
Q 44.875 39.84375 42.59375 38.34375 
Q 40.328125 36.859375 37.359375 36.28125 
L 37.359375 36.078125 
Q 40.328125 35.59375 42.859375 34.296875 
Q 45.40625 33.015625 47.265625 30.890625 
Q 49.125 28.765625 50.1875 25.828125 
Q 51.265625 22.90625 51.265625 19.1875 
M 40.4375 51.609375 
Q 40.4375 54.203125 39.765625 56.34375 
Q 39.109375 58.5 37.59375 60.03125 
Q 36.078125 61.578125 33.640625 62.421875 
Q 31.203125 63.28125 27.640625 63.28125 
Q 24.171875 63.28125 21.78125 62.421875 
Q 19.390625 61.578125 17.84375 60.03125 
Q 16.3125 58.5 15.625 56.34375 
Q 14.9375 54.203125 14.9375 51.609375 
Q 14.9375 49.5625 15.46875 47.40625 
Q 16.015625 45.265625 17.421875 43.5 
Q 18.84375 41.75 21.328125 40.625 
Q 23.828125 39.5 27.734375 39.5 
Q 31.890625 39.5 34.40625 40.625 
Q 36.921875 41.75 38.25 43.5 
Q 39.59375 45.265625 40.015625 47.40625 
Q 40.4375 49.5625 40.4375 51.609375 
M 42.140625 20.015625 
Q 42.140625 22.515625 41.453125 24.828125 
Q 40.765625 27.15625 39.109375 28.9375 
Q 37.453125 30.71875 34.640625 31.8125 
Q 31.84375 32.90625 27.640625 32.90625 
Q 23.78125 32.90625 21.0625 31.8125 
Q 18.359375 30.71875 16.671875 28.90625 
Q 14.984375 27.09375 14.203125 24.71875 
Q 13.421875 22.359375 13.421875 19.828125 
Q 13.421875 16.65625 14.203125 14.03125 
Q 14.984375 11.421875 16.6875 9.546875 
Q 18.40625 7.671875 21.1875 6.640625 
Q 23.96875 5.609375 27.9375 5.609375 
Q 31.9375 5.609375 34.671875 6.640625 
Q 37.40625 7.671875 39.0625 9.546875 
Q 40.71875 11.421875 41.421875 14.078125 
Q 42.140625 16.75 42.140625 20.015625 
" id="LiberationSans-38"/>
      </defs>
      <g style="fill:#262626;" transform="translate(638.085228 331.7975)scale(0.08 -0.08)">
       <use xlink:href="#LiberationSans-38"/>
       <use x="55.615234" xlink:href="#LiberationSans-30"/>
       <use x="111.230469" xlink:href="#LiberationSans-30"/>
      </g>
     </g>
    </g>
    <g id="xtick_6">
     <g id="line2d_11">
      <path clip-path="url(#p2d7e2c5698)" d="M 759.802487 320.4 
L 759.802487 43.2 
" style="fill:none;stroke:#ffffff;stroke-linecap:round;stroke-width:0.8;"/>
     </g>
     <g id="line2d_12"/>
     <g id="text_6">
      <!-- 1000 -->
      <defs>
       <path d="M 7.625 0 
L 7.625 7.46875 
L 25.140625 7.46875 
L 25.140625 60.40625 
L 9.625 49.3125 
L 9.625 57.625 
L 25.875 68.796875 
L 33.984375 68.796875 
L 33.984375 7.46875 
L 50.734375 7.46875 
L 50.734375 0 
z
" id="LiberationSans-31"/>
      </defs>
      <g style="fill:#262626;" transform="translate(750.904987 331.7975)scale(0.08 -0.08)">
       <use xlink:href="#LiberationSans-31"/>
       <use x="55.615234" xlink:href="#LiberationSans-30"/>
       <use x="111.230469" xlink:href="#LiberationSans-30"/>
       <use x="166.845703" xlink:href="#LiberationSans-30"/>
      </g>
     </g>
    </g>
    <g id="xtick_7">
     <g id="line2d_13">
      <path clip-path="url(#p2d7e2c5698)" d="M 874.846621 320.4 
L 874.846621 43.2 
" style="fill:none;stroke:#ffffff;stroke-linecap:round;stroke-width:0.8;"/>
     </g>
     <g id="line2d_14"/>
     <g id="text_7">
      <!-- 1200 -->
      <g style="fill:#262626;" transform="translate(865.949121 331.7975)scale(0.08 -0.08)">
       <use xlink:href="#LiberationSans-31"/>
       <use x="55.615234" xlink:href="#LiberationSans-32"/>
       <use x="111.230469" xlink:href="#LiberationSans-30"/>
       <use x="166.845703" xlink:href="#LiberationSans-30"/>
      </g>
     </g>
    </g>
    <g id="xtick_8">
     <g id="line2d_15">
      <path clip-path="url(#p2d7e2c5698)" d="M 989.890754 320.4 
L 989.890754 43.2 
" style="fill:none;stroke:#ffffff;stroke-linecap:round;stroke-width:0.8;"/>
     </g>
     <g id="line2d_16"/>
     <g id="text_8">
      <!-- 1400 -->
      <g style="fill:#262626;" transform="translate(980.993254 331.7975)scale(0.08 -0.08)">
       <use xlink:href="#LiberationSans-31"/>
       <use x="55.615234" xlink:href="#LiberationSans-34"/>
       <use x="111.230469" xlink:href="#LiberationSans-30"/>
       <use x="166.845703" xlink:href="#LiberationSans-30"/>
      </g>
     </g>
    </g>
   </g>
   <g id="matplotlib.axis_2">
    <g id="ytick_1">
     <g id="line2d_17">
      <path clip-path="url(#p2d7e2c5698)" d="M 144 307.8 
L 1036.8 307.8 
" style="fill:none;stroke:#ffffff;stroke-linecap:round;stroke-width:0.8;"/>
     </g>
     <g id="line2d_18"/>
     <g id="text_9">
      <!-- −1.00 -->
      <defs>
       <path d="M 4.9375 29.6875 
L 4.9375 36.8125 
L 53.515625 36.8125 
L 53.515625 29.6875 
z
" id="LiberationSans-2212"/>
       <path d="M 9.125 0 
L 9.125 10.6875 
L 18.65625 10.6875 
L 18.65625 0 
z
" id="LiberationSans-2e"/>
      </defs>
      <g style="fill:#262626;" transform="translate(118.15875 310.69875)scale(0.08 -0.08)">
       <use xlink:href="#LiberationSans-2212"/>
       <use x="58.398438" xlink:href="#LiberationSans-31"/>
       <use x="114.013672" xlink:href="#LiberationSans-2e"/>
       <use x="141.796875" xlink:href="#LiberationSans-30"/>
       <use x="197.412109" xlink:href="#LiberationSans-30"/>
      </g>
     </g>
    </g>
    <g id="ytick_2">
     <g id="line2d_19">
      <path clip-path="url(#p2d7e2c5698)" d="M 144 276.3 
L 1036.8 276.3 
" style="fill:none;stroke:#ffffff;stroke-linecap:round;stroke-width:0.8;"/>
     </g>
     <g id="line2d_20"/>
     <g id="text_10">
      <!-- −0.75 -->
      <defs>
       <path d="M 50.59375 61.671875 
Q 45.40625 53.765625 41.0625 46.453125 
Q 36.71875 39.15625 33.59375 31.75 
Q 30.46875 24.359375 28.734375 16.578125 
Q 27 8.796875 27 0 
L 17.828125 0 
Q 17.828125 8.25 19.78125 16.1875 
Q 21.734375 24.125 25.046875 31.765625 
Q 28.375 39.40625 32.765625 46.78125 
Q 37.15625 54.15625 42.09375 61.328125 
L 5.125 61.328125 
L 5.125 68.796875 
L 50.59375 68.796875 
z
" id="LiberationSans-37"/>
       <path d="M 51.421875 22.40625 
Q 51.421875 17.234375 49.859375 12.9375 
Q 48.296875 8.640625 45.21875 5.53125 
Q 42.140625 2.4375 37.578125 0.71875 
Q 33.015625 -0.984375 27 -0.984375 
Q 21.578125 -0.984375 17.546875 0.28125 
Q 13.53125 1.5625 10.734375 3.78125 
Q 7.953125 6 6.3125 8.984375 
Q 4.6875 11.96875 4 15.375 
L 12.890625 16.40625 
Q 13.421875 14.453125 14.390625 12.625 
Q 15.375 10.796875 17.0625 9.34375 
Q 18.75 7.90625 21.21875 7.046875 
Q 23.6875 6.203125 27.203125 6.203125 
Q 30.609375 6.203125 33.390625 7.25 
Q 36.1875 8.296875 38.15625 10.34375 
Q 40.140625 12.40625 41.203125 15.375 
Q 42.28125 18.359375 42.28125 22.21875 
Q 42.28125 25.390625 41.25 28.046875 
Q 40.234375 30.71875 38.328125 32.640625 
Q 36.421875 34.578125 33.65625 35.640625 
Q 30.90625 36.71875 27.390625 36.71875 
Q 25.203125 36.71875 23.34375 36.328125 
Q 21.484375 35.9375 19.890625 35.25 
Q 18.3125 34.578125 17.015625 33.671875 
Q 15.71875 32.765625 14.59375 31.78125 
L 6 31.78125 
L 8.296875 68.796875 
L 47.40625 68.796875 
L 47.40625 61.328125 
L 16.3125 61.328125 
L 14.984375 39.5 
Q 17.328125 41.3125 20.84375 42.59375 
Q 24.359375 43.890625 29.203125 43.890625 
Q 34.328125 43.890625 38.421875 42.328125 
Q 42.53125 40.765625 45.40625 37.90625 
Q 48.296875 35.0625 49.859375 31.109375 
Q 51.421875 27.15625 51.421875 22.40625 
" id="LiberationSans-35"/>
      </defs>
      <g style="fill:#262626;" transform="translate(118.15875 279.19875)scale(0.08 -0.08)">
       <use xlink:href="#LiberationSans-2212"/>
       <use x="58.398438" xlink:href="#LiberationSans-30"/>
       <use x="114.013672" xlink:href="#LiberationSans-2e"/>
       <use x="141.796875" xlink:href="#LiberationSans-37"/>
       <use x="197.412109" xlink:href="#LiberationSans-35"/>
      </g>
     </g>
    </g>
    <g id="ytick_3">
     <g id="line2d_21">
      <path clip-path="url(#p2d7e2c5698)" d="M 144 244.8 
L 1036.8 244.8 
" style="fill:none;stroke:#ffffff;stroke-linecap:round;stroke-width:0.8;"/>
     </g>
     <g id="line2d_22"/>
     <g id="text_11">
      <!-- −0.50 -->
      <g style="fill:#262626;" transform="translate(118.15875 247.69875)scale(0.08 -0.08)">
       <use xlink:href="#LiberationSans-2212"/>
       <use x="58.398438" xlink:href="#LiberationSans-30"/>
       <use x="114.013672" xlink:href="#LiberationSans-2e"/>
       <use x="141.796875" xlink:href="#LiberationSans-35"/>
       <use x="197.412109" xlink:href="#LiberationSans-30"/>
      </g>
     </g>
    </g>
    <g id="ytick_4">
     <g id="line2d_23">
      <path clip-path="url(#p2d7e2c5698)" d="M 144 213.3 
L 1036.8 213.3 
" style="fill:none;stroke:#ffffff;stroke-linecap:round;stroke-width:0.8;"/>
     </g>
     <g id="line2d_24"/>
     <g id="text_12">
      <!-- −0.25 -->
      <g style="fill:#262626;" transform="translate(118.15875 216.19875)scale(0.08 -0.08)">
       <use xlink:href="#LiberationSans-2212"/>
       <use x="58.398438" xlink:href="#LiberationSans-30"/>
       <use x="114.013672" xlink:href="#LiberationSans-2e"/>
       <use x="141.796875" xlink:href="#LiberationSans-32"/>
       <use x="197.412109" xlink:href="#LiberationSans-35"/>
      </g>
     </g>
    </g>
    <g id="ytick_5">
     <g id="line2d_25">
      <path clip-path="url(#p2d7e2c5698)" d="M 144 181.8 
L 1036.8 181.8 
" style="fill:none;stroke:#ffffff;stroke-linecap:round;stroke-width:0.8;"/>
     </g>
     <g id="line2d_26"/>
     <g id="text_13">
      <!-- 0.00 -->
      <g style="fill:#262626;" transform="translate(122.83125 184.69875)scale(0.08 -0.08)">
       <use xlink:href="#LiberationSans-30"/>
       <use x="55.615234" xlink:href="#LiberationSans-2e"/>
       <use x="83.398438" xlink:href="#LiberationSans-30"/>
       <use x="139.013672" xlink:href="#LiberationSans-30"/>
      </g>
     </g>
    </g>
    <g id="ytick_6">
     <g id="line2d_27">
      <path clip-path="url(#p2d7e2c5698)" d="M 144 150.3 
L 1036.8 150.3 
" style="fill:none;stroke:#ffffff;stroke-linecap:round;stroke-width:0.8;"/>
     </g>
     <g id="line2d_28"/>
     <g id="text_14">
      <!-- 0.25 -->
      <g style="fill:#262626;" transform="translate(122.83125 153.19875)scale(0.08 -0.08)">
       <use xlink:href="#LiberationSans-30"/>
       <use x="55.615234" xlink:href="#LiberationSans-2e"/>
       <use x="83.398438" xlink:href="#LiberationSans-32"/>
       <use x="139.013672" xlink:href="#LiberationSans-35"/>
      </g>
     </g>
    </g>
    <g id="ytick_7">
     <g id="line2d_29">
      <path clip-path="url(#p2d7e2c5698)" d="M 144 118.8 
L 1036.8 118.8 
" style="fill:none;stroke:#ffffff;stroke-linecap:round;stroke-width:0.8;"/>
     </g>
     <g id="line2d_30"/>
     <g id="text_15">
      <!-- 0.50 -->
      <g style="fill:#262626;" transform="translate(122.83125 121.69875)scale(0.08 -0.08)">
       <use xlink:href="#LiberationSans-30"/>
       <use x="55.615234" xlink:href="#LiberationSans-2e"/>
       <use x="83.398438" xlink:href="#LiberationSans-35"/>
       <use x="139.013672" xlink:href="#LiberationSans-30"/>
      </g>
     </g>
    </g>
    <g id="ytick_8">
     <g id="line2d_31">
      <path clip-path="url(#p2d7e2c5698)" d="M 144 87.3 
L 1036.8 87.3 
" style="fill:none;stroke:#ffffff;stroke-linecap:round;stroke-width:0.8;"/>
     </g>
     <g id="line2d_32"/>
     <g id="text_16">
      <!-- 0.75 -->
      <g style="fill:#262626;" transform="translate(122.83125 90.19875)scale(0.08 -0.08)">
       <use xlink:href="#LiberationSans-30"/>
       <use x="55.615234" xlink:href="#LiberationSans-2e"/>
       <use x="83.398438" xlink:href="#LiberationSans-37"/>
       <use x="139.013672" xlink:href="#LiberationSans-35"/>
      </g>
     </g>
    </g>
    <g id="ytick_9">
     <g id="line2d_33">
      <path clip-path="url(#p2d7e2c5698)" d="M 144 55.8 
L 1036.8 55.8 
" style="fill:none;stroke:#ffffff;stroke-linecap:round;stroke-width:0.8;"/>
     </g>
     <g id="line2d_34"/>
     <g id="text_17">
      <!-- 1.00 -->
      <g style="fill:#262626;" transform="translate(122.83125 58.69875)scale(0.08 -0.08)">
       <use xlink:href="#LiberationSans-31"/>
       <use x="55.615234" xlink:href="#LiberationSans-2e"/>
       <use x="83.398438" xlink:href="#LiberationSans-30"/>
       <use x="139.013672" xlink:href="#LiberationSans-30"/>
      </g>
     </g>
    </g>
   </g>
   <g id="line2d_35">
    <path clip-path="url(#p2d7e2c5698)" d="M 184.581818 216.958853 
L 187.457922 216.959009 
L 188.033142 217.129403 
L 188.608363 217.998673 
L 189.183584 220.109773 
L 190.334025 227.772185 
L 190.909246 229.584096 
L 191.484466 225.495388 
L 192.059687 214.072128 
L 193.210128 182.061036 
L 193.785349 172.258203 
L 194.36057 171.778295 
L 194.93579 180.837418 
L 196.086232 215.309833 
L 196.661452 232.040182 
L 197.236673 243.759083 
L 197.811894 248.967879 
L 198.387114 247.895953 
L 198.962335 242.21696 
L 200.112776 227.657691 
L 200.687997 224.199673 
L 201.263218 225.916807 
L 201.838438 233.545426 
L 202.98888 260.666497 
L 203.5641 267.984356 
L 204.139321 257.491409 
L 204.714542 225.299049 
L 205.864983 134.107608 
L 206.440204 104.925785 
L 207.015424 100.561499 
L 207.590645 121.528708 
L 208.741086 206.692215 
L 209.316307 247.865345 
L 209.891528 275.843464 
L 210.466748 286.694498 
L 211.041969 280.827303 
L 211.61719 262.281392 
L 212.767631 213.199024 
L 213.342852 195.358199 
L 213.918072 187.240576 
L 214.493293 189.24933 
L 215.068514 199.15198 
L 216.218955 226.595599 
L 216.794176 236.339809 
L 217.369396 240.360882 
L 217.944617 238.537748 
L 218.519838 232.247069 
L 219.670279 215.705941 
L 220.2455 209.965411 
L 220.82072 207.693113 
L 221.395941 208.951433 
L 221.971162 212.879352 
L 223.121603 222.956313 
L 223.696824 226.346831 
L 224.272044 227.579005 
L 224.847265 226.656387 
L 225.422486 224.13167 
L 226.572927 217.910766 
L 227.148148 215.875315 
L 227.723368 215.165676 
L 228.298589 215.74271 
L 228.87381 217.256242 
L 230.024251 220.971899 
L 230.599472 222.197717 
L 231.174692 222.643746 
L 231.749913 222.298431 
L 232.325134 221.360902 
L 233.475575 219.057123 
L 234.050796 218.317039 
L 234.626016 218.098932 
L 235.201237 218.420999 
L 235.776458 219.155722 
L 236.926899 220.918425 
L 237.50212 221.532595 
L 238.07734 221.864301 
L 238.652561 221.927449 
L 240.378223 221.647642 
L 240.953444 221.911051 
L 241.528664 222.542356 
L 242.103885 223.619432 
L 242.679106 225.187345 
L 243.254326 227.262652 
L 243.829547 229.908501 
L 244.404768 233.325264 
L 244.979988 237.923726 
L 245.555209 244.323933 
L 246.13043 253.215507 
L 247.280871 274.370058 
L 247.856092 273.253263 
L 248.431312 250.090082 
L 249.006533 203.903241 
L 250.156974 97.691025 
L 250.732195 72.271022 
L 251.307416 78.244057 
L 251.882636 112.862214 
L 253.608298 265.980027 
L 254.183519 292.95383 
L 254.75874 298.759807 
L 255.33396 285.660802 
L 256.484402 229.230778 
L 257.059622 202.091171 
L 257.634843 184.367766 
L 258.210064 178.873901 
L 258.785284 184.954621 
L 259.360505 199.099244 
L 260.510946 231.373179 
L 261.086167 240.868326 
L 261.661388 243.149364 
L 262.236608 238.79233 
L 263.96227 210.759865 
L 264.537491 205.31484 
L 265.112712 204.196915 
L 265.687932 207.034149 
L 267.413594 224.211216 
L 267.988815 227.464732 
L 268.564036 228.056835 
L 269.139256 226.22951 
L 270.864918 215.613783 
L 271.440139 213.628668 
L 272.01536 213.279235 
L 272.590581 214.398831 
L 274.316243 220.871516 
L 274.891463 222.062141 
L 275.466684 222.267687 
L 276.041905 221.578557 
L 277.767567 217.788092 
L 278.342787 217.177125 
L 278.918008 217.202978 
L 279.493229 217.775579 
L 281.218891 220.536613 
L 281.794111 221.09072 
L 282.369332 221.325229 
L 282.944553 221.293661 
L 284.094994 221.058268 
L 284.670215 221.190525 
L 285.245435 221.666044 
L 285.820656 222.558078 
L 286.395877 223.914998 
L 286.971097 225.761218 
L 287.546318 228.176468 
L 288.121539 231.34552 
L 288.696759 235.63101 
L 289.27198 241.620026 
L 289.847201 250.050254 
L 290.997642 272.512381 
L 291.572863 275.654647 
L 292.148083 258.631805 
L 292.723304 217.090101 
L 293.873745 107.229196 
L 294.448966 74.605411 
L 295.024187 72.71356 
L 295.599407 101.221496 
L 297.325069 255.900361 
L 297.90029 287.874845 
L 298.475511 298.807749 
L 299.050731 289.820906 
L 299.625952 266.240387 
L 300.776393 207.128779 
L 301.351614 186.587586 
L 301.926835 177.99239 
L 302.502055 181.532941 
L 303.077276 194.289593 
L 304.227717 227.634322 
L 304.802938 238.878379 
L 305.378159 243.001359 
L 305.953379 240.093638 
L 306.5286 232.028504 
L 307.679041 212.053969 
L 308.254262 205.49215 
L 308.829483 203.213005 
L 309.404703 205.175674 
L 309.979924 210.253552 
L 311.130365 222.539516 
L 311.705586 226.472143 
L 312.280807 227.739781 
L 312.856027 226.420834 
L 313.431248 223.252347 
L 314.581689 215.785162 
L 315.15691 213.441732 
L 315.732131 212.713597 
L 316.307351 213.527302 
L 316.882572 215.432527 
L 318.033013 219.907779 
L 318.608234 221.321836 
L 319.183455 221.777748 
L 319.758675 221.315247 
L 320.333896 220.189049 
L 321.484337 217.540787 
L 322.059558 216.737849 
L 322.634779 216.544292 
L 323.209999 216.925175 
L 324.360441 218.634855 
L 324.935661 219.48904 
L 325.510882 220.088285 
L 326.086103 220.366322 
L 326.661323 220.36958 
L 328.386985 219.977467 
L 328.962206 220.179116 
L 329.537427 220.712854 
L 330.112647 221.599381 
L 330.687868 222.829723 
L 331.263089 224.409854 
L 331.838309 226.41674 
L 332.41353 229.017721 
L 332.988751 232.513206 
L 333.563971 237.39096 
L 334.139192 244.314222 
L 335.864854 272.7307 
L 336.440075 266.383474 
L 337.015295 237.483893 
L 338.740957 94.800022 
L 339.316178 79.170929 
L 339.891399 93.105962 
L 340.466619 131.444881 
L 341.617061 232.517263 
L 342.192281 270.448801 
L 342.767502 290.018819 
L 343.342723 290.051272 
L 343.917943 273.794881 
L 345.643605 196.222624 
L 346.218826 182.857605 
L 346.794047 181.010131 
L 347.369267 189.232858 
L 349.094929 232.571597 
L 349.67015 239.634628 
L 350.245371 239.915639 
L 350.820591 234.404442 
L 352.546253 208.267995 
L 353.121474 204.29501 
L 353.696695 204.414496 
L 354.271915 207.985459 
L 355.997577 224.074521 
L 356.572798 226.442788 
L 357.148019 226.289646 
L 357.723239 224.024957 
L 359.448901 214.138275 
L 360.024122 212.722571 
L 360.599343 212.843716 
L 361.174563 214.219247 
L 362.900226 220.13485 
L 363.475446 220.981536 
L 364.050667 220.935488 
L 364.625888 220.138882 
L 366.35155 216.655145 
L 366.92677 216.194169 
L 367.501991 216.286266 
L 368.077212 216.843805 
L 369.802874 219.238366 
L 370.378094 219.60528 
L 370.953315 219.642576 
L 373.254198 218.925738 
L 373.829418 219.172256 
L 374.404639 219.687752 
L 374.97986 220.451499 
L 376.130301 222.621595 
L 377.280742 225.713191 
L 377.855963 227.869162 
L 378.431184 230.79788 
L 379.006404 234.959704 
L 379.581625 240.950687 
L 381.307287 264.988987 
L 381.882508 257.998607 
L 382.457728 230.851107 
L 384.18339 104.776183 
L 384.758611 92.924029 
L 385.333832 107.533687 
L 385.909052 143.439261 
L 387.059494 234.451031 
L 387.634714 267.523501 
L 388.209935 283.747932 
L 388.785156 282.400034 
L 389.360376 266.699889 
L 391.086038 196.919621 
L 391.661259 185.709025 
L 392.23648 184.91639 
L 392.8117 192.984966 
L 394.537362 231.83391 
L 395.112583 237.628824 
L 395.687804 237.332569 
L 396.263024 231.990643 
L 397.988686 208.719838 
L 398.563907 205.473649 
L 399.139128 205.88162 
L 399.714348 209.304898 
L 400.86479 219.64812 
L 401.44001 223.626759 
L 402.015231 225.508812 
L 402.590452 225.140067 
L 403.165672 222.963849 
L 404.316114 216.628273 
L 404.891334 214.210285 
L 405.466555 213.049201 
L 406.041776 213.24184 
L 406.616996 214.531839 
L 408.342658 219.901559 
L 408.917879 220.652153 
L 409.4931 220.573012 
L 410.06832 219.826364 
L 411.793982 216.69214 
L 412.369203 216.256223 
L 412.944424 216.317222 
L 413.519644 216.797932 
L 415.245306 218.943157 
L 415.820527 219.328411 
L 416.395748 219.409789 
L 416.970968 219.242915 
L 418.12141 218.675778 
L 418.69663 218.560042 
L 419.271851 218.68174 
L 419.847072 219.081745 
L 420.422292 219.727605 
L 421.572734 221.549768 
L 422.723175 224.08572 
L 423.298396 225.844587 
L 423.873616 228.275818 
L 424.448837 231.802933 
L 425.024058 236.979891 
L 425.599278 244.267264 
L 426.174499 253.07033 
L 426.74972 259.504097 
L 427.32494 255.370914 
L 427.900161 233.751821 
L 429.625823 122.577401 
L 430.201044 109.527444 
L 430.776264 119.475332 
L 431.351485 148.67756 
L 432.501926 227.374884 
L 433.077147 257.438058 
L 433.652368 273.343738 
L 434.227588 274.025738 
L 434.802809 261.858276 
L 436.528471 201.428224 
L 437.103692 190.660535 
L 437.678912 188.885342 
L 438.254133 195.03109 
L 439.979795 228.755013 
L 440.555016 234.466274 
L 441.130236 234.936471 
L 441.705457 230.865367 
L 443.431119 210.596532 
L 444.00634 207.344245 
L 444.58156 207.246211 
L 445.156781 209.852281 
L 446.882443 222.132516 
L 447.457664 223.969935 
L 448.032884 223.894089 
L 448.608105 222.215824 
L 450.333767 214.782549 
L 450.908988 213.724243 
L 451.484208 213.820237 
L 452.059429 214.870454 
L 453.785091 219.379573 
L 454.360312 220.004646 
L 454.935533 219.918179 
L 455.510753 219.258932 
L 456.661195 217.322218 
L 457.236415 216.588413 
L 457.811636 216.248504 
L 458.386857 216.332252 
L 458.962077 216.77258 
L 460.687739 218.638494 
L 461.26296 218.905074 
L 461.838181 218.908331 
L 462.988622 218.436635 
L 463.563843 218.202323 
L 464.139063 218.10876 
L 464.714284 218.223663 
L 465.289505 218.555629 
L 465.864725 219.076705 
L 467.015167 220.570554 
L 468.165608 222.628221 
L 468.740829 224.012873 
L 469.316049 225.857028 
L 469.89127 228.44322 
L 470.466491 232.171346 
L 471.041711 237.485982 
L 472.192153 250.859852 
L 472.767373 251.278788 
L 473.342594 238.487839 
L 473.917815 210.888656 
L 475.068256 142.955665 
L 475.643477 124.58468 
L 476.218697 125.771296 
L 476.793918 145.697804 
L 478.51958 244.113974 
L 479.094801 263.32025 
L 479.670021 269.064026 
L 480.245242 262.323433 
L 480.820463 246.692373 
L 481.970904 209.361691 
L 482.546125 196.995713 
L 483.121345 192.306531 
L 483.696566 195.185118 
L 484.271787 203.604897 
L 485.422228 224.445552 
L 485.997449 231.15486 
L 486.572669 233.347514 
L 487.14789 231.181658 
L 487.723111 225.891017 
L 488.873552 213.393532 
L 489.448773 209.495313 
L 490.023993 208.31558 
L 490.599214 209.747375 
L 491.174435 213.047197 
L 492.324876 220.701348 
L 492.900097 223.028902 
L 493.475317 223.665849 
L 494.050538 222.71116 
L 494.625759 220.653714 
L 495.7762 215.967055 
L 496.351421 214.566504 
L 496.926641 214.203979 
L 497.501862 214.798357 
L 498.652303 217.540533 
L 499.227524 218.860771 
L 499.802745 219.707309 
L 500.377965 219.957479 
L 500.953186 219.646423 
L 502.103627 218.074004 
L 502.678848 217.276535 
L 503.254069 216.759403 
L 503.829289 216.623151 
L 504.40451 216.835457 
L 505.554951 217.881375 
L 506.130172 218.415024 
L 506.705393 218.796357 
L 507.280613 218.995044 
L 508.431055 218.991443 
L 509.581496 218.955216 
L 510.156717 219.143958 
L 510.731937 219.546742 
L 511.307158 220.192208 
L 511.882379 221.094039 
L 512.457599 222.289212 
L 513.03282 223.862398 
L 513.608041 225.984393 
L 514.183261 228.942366 
L 514.758482 233.150707 
L 516.484144 249.603044 
L 517.059365 243.95257 
L 517.634585 224.108117 
L 519.360247 136.922642 
L 519.935468 130.065883 
L 520.510689 141.684352 
L 521.085909 167.8 
L 522.236351 231.675457 
L 522.811571 254.206424 
L 523.386792 264.759851 
L 523.962013 263.058415 
L 524.537233 251.526241 
L 526.262895 202.746988 
L 526.838116 195.307185 
L 527.413337 195.152296 
L 527.988557 201.111195 
L 529.714219 228.270717 
L 530.28944 232.107178 
L 530.864661 231.680497 
L 531.439881 227.774644 
L 532.590323 215.969094 
L 533.165543 211.414772 
L 533.740764 209.222426 
L 534.315985 209.586414 
L 534.891205 212.043951 
L 536.041647 219.319953 
L 536.616867 222.081243 
L 537.192088 223.344579 
L 537.767309 223.008471 
L 538.342529 221.398837 
L 539.492971 216.863016 
L 540.068191 215.208737 
L 540.643412 214.483577 
L 541.218633 214.736168 
L 541.793853 215.751142 
L 542.944295 218.505523 
L 543.519515 219.476735 
L 544.094736 219.867951 
L 544.669957 219.664555 
L 545.245178 219.009328 
L 546.395619 217.281628 
L 546.97084 216.684982 
L 547.54606 216.464169 
L 548.121281 216.624459 
L 549.271722 217.64536 
L 550.422164 218.604369 
L 550.997384 218.803536 
L 551.572605 218.796504 
L 553.873488 218.207363 
L 554.448708 218.308668 
L 555.023929 218.581837 
L 555.59915 219.016802 
L 556.749591 220.30229 
L 557.324812 221.160137 
L 557.900032 222.242758 
L 558.475253 223.677552 
L 559.050474 225.692293 
L 559.625694 228.622325 
L 560.200915 232.89342 
L 561.926577 249.963836 
L 562.501798 245.057195 
L 563.077018 226.252767 
L 564.80268 139.545909 
L 565.377901 131.355267 
L 565.953122 141.324913 
L 566.528342 165.993584 
L 567.678784 228.908242 
L 568.254004 252.01291 
L 568.829225 263.566842 
L 569.404446 262.994862 
L 569.979666 252.446229 
L 571.705328 204.236866 
L 572.280549 196.256183 
L 572.85577 195.451378 
L 573.43099 200.818259 
L 575.156652 227.556165 
L 575.731873 231.690454 
L 576.307094 231.630097 
L 576.882314 228.052816 
L 578.607976 211.991387 
L 579.183197 209.662506 
L 579.758418 209.83378 
L 580.333638 212.079256 
L 582.0593 221.815155 
L 582.634521 223.171412 
L 583.209742 222.994827 
L 583.784962 221.5664 
L 585.510624 215.591275 
L 586.085845 214.778394 
L 586.661066 214.897547 
L 587.236286 215.770147 
L 588.386728 218.331815 
L 588.961948 219.298453 
L 589.537169 219.760107 
L 590.11239 219.682453 
L 590.68761 219.165176 
L 592.413272 217.044405 
L 592.988493 216.78405 
L 593.563714 216.864402 
L 594.138934 217.224894 
L 595.864596 218.651377 
L 596.439817 218.884852 
L 597.015038 218.943046 
L 599.31592 218.580792 
L 599.891141 218.764986 
L 600.466362 219.176239 
L 601.041582 219.827544 
L 601.616803 220.710494 
L 602.192024 221.831689 
L 602.767244 223.232998 
L 603.342465 225.027232 
L 603.917686 227.438327 
L 604.492906 230.825661 
L 605.068127 235.642934 
L 606.218568 248.725958 
L 606.793789 250.621619 
L 607.36901 240.529292 
L 607.94423 215.573647 
L 609.094672 148.148358 
L 609.669892 127.427741 
L 610.245113 125.569696 
L 610.820334 142.801146 
L 613.121216 261.764852 
L 613.696437 269.611298 
L 614.271658 264.716089 
L 614.846878 250.302009 
L 615.99732 212.880434 
L 616.57254 199.46274 
L 617.147761 193.476429 
L 617.722982 195.164589 
L 618.298202 202.803657 
L 619.448644 223.678671 
L 620.023864 230.974649 
L 620.599085 233.870077 
L 621.174306 232.307426 
L 621.749526 227.392991 
L 622.899968 214.812162 
L 623.475188 210.563304 
L 624.050409 208.984451 
L 624.62563 210.07473 
L 625.20085 213.171747 
L 626.351292 220.93652 
L 626.926512 223.488207 
L 627.501733 224.35112 
L 628.076954 223.542873 
L 628.652174 221.514401 
L 629.802616 216.630759 
L 630.377836 215.057893 
L 630.953057 214.530265 
L 631.528278 215.012386 
L 632.103498 216.221631 
L 633.25394 219.128789 
L 633.82916 220.056337 
L 634.404381 220.365376 
L 634.979602 220.06209 
L 636.130043 218.389578 
L 636.705264 217.556392 
L 637.280485 217.021172 
L 637.855705 216.877281 
L 638.430926 217.101817 
L 639.581367 218.156427 
L 640.731809 219.076201 
L 641.307029 219.269934 
L 641.88225 219.278269 
L 643.607912 218.962186 
L 644.183133 219.07727 
L 644.758353 219.404896 
L 645.333574 219.94687 
L 645.908795 220.690125 
L 646.484015 221.632203 
L 647.059236 222.808211 
L 647.634457 224.321679 
L 648.209677 226.372142 
L 648.784898 229.319925 
L 649.360119 233.68249 
L 649.935339 240.025659 
L 651.085781 256.121876 
L 651.661001 256.289549 
L 652.236222 240.57834 
L 652.811443 207.869686 
L 653.961884 130.624341 
L 654.537105 111.372705 
L 655.112325 114.842941 
L 655.687546 139.406879 
L 657.413208 251.792993 
L 657.988429 272.343356 
L 658.563649 277.448402 
L 659.13887 268.560024 
L 659.714091 250.006 
L 660.864532 207.553652 
L 661.439753 194.117618 
L 662.014973 189.591559 
L 662.590194 193.619025 
L 663.165415 203.722292 
L 664.315856 227.455795 
L 664.891077 234.656935 
L 665.466297 236.591195 
L 666.041518 233.604432 
L 667.191959 219.71482 
L 667.76718 213.073897 
L 668.342401 208.909589 
L 668.917621 207.898303 
L 669.492842 209.802053 
L 670.643283 218.270486 
L 671.218504 222.256476 
L 671.793725 224.709944 
L 672.368945 225.226263 
L 672.944166 223.9646 
L 674.669828 216.22954 
L 675.245049 214.727465 
L 675.820269 214.399569 
L 676.39549 215.158952 
L 678.121152 219.840501 
L 678.696373 220.732707 
L 679.271593 220.901179 
L 679.846814 220.412162 
L 681.572476 217.534243 
L 682.147697 217.023052 
L 682.722917 216.98697 
L 683.298138 217.377915 
L 685.599021 219.869967 
L 686.174241 220.078783 
L 686.749462 220.076988 
L 687.899903 219.809167 
L 688.475124 219.804533 
L 689.050345 220.048641 
L 689.625565 220.618557 
L 690.200786 221.565601 
L 690.776007 222.923504 
L 691.351227 224.768175 
L 691.926448 227.256456 
L 692.501669 230.676427 
L 693.076889 235.504641 
L 693.65211 242.331406 
L 694.802551 260.774058 
L 695.377772 263.92456 
L 695.952993 251.108903 
L 696.528213 218.334507 
L 697.678655 128.641525 
L 698.253875 100.611531 
L 698.829096 97.331954 
L 699.404317 119.215955 
L 700.554758 205.541542 
L 701.129979 246.906143 
L 701.705199 274.85353 
L 702.28042 285.552626 
L 702.855641 279.55894 
L 703.430861 261.000736 
L 704.581303 212.194697 
L 705.156523 194.483449 
L 705.731744 186.397295 
L 706.306965 188.333153 
L 706.882185 198.115581 
L 708.032627 225.300819 
L 708.607847 234.949133 
L 709.183068 238.893868 
L 709.758289 237.023899 
L 710.333509 230.757191 
L 711.483951 214.439852 
L 712.059171 208.835255 
L 712.634392 206.663364 
L 713.209613 207.950338 
L 713.784833 211.844981 
L 714.935275 221.800785 
L 715.510495 225.165107 
L 716.085716 226.378399 
L 716.660937 225.443488 
L 717.236157 222.928261 
L 718.386599 216.748272 
L 718.961819 214.722241 
L 719.53704 213.996245 
L 720.112261 214.551187 
L 720.687481 216.048876 
L 721.837923 219.721421 
L 722.413143 220.884719 
L 722.988364 221.242204 
L 723.563585 220.843526 
L 724.714026 218.793235 
L 725.289247 217.811374 
L 725.864467 217.201242 
L 726.439688 217.065956 
L 727.014909 217.384849 
L 728.16535 218.802282 
L 728.740571 219.502181 
L 729.315792 219.980958 
L 729.891012 220.177051 
L 730.466233 220.117149 
L 732.191895 219.531327 
L 732.767116 219.674131 
L 733.342336 220.155244 
L 733.917557 220.999939 
L 734.492778 222.188338 
L 735.067998 223.712353 
L 735.643219 225.604314 
L 736.21844 227.997216 
L 736.79366 231.165924 
L 737.368881 235.57139 
L 737.944102 241.879648 
L 738.519322 250.69095 
L 739.094543 261.378983 
L 739.669764 269.272387 
L 740.244984 264.184552 
L 740.820205 237.231154 
L 742.545867 95.665307 
L 743.121088 78.365755 
L 743.696308 90.729778 
L 744.271529 128.318964 
L 745.42197 231.127202 
L 745.997191 270.934241 
L 746.572412 292.37263 
L 747.147632 293.839029 
L 747.722853 278.322537 
L 749.448515 199.049705 
L 750.023736 184.528555 
L 750.598956 181.718069 
L 751.174177 189.377912 
L 752.899839 233.340015 
L 753.47506 240.938886 
L 754.05028 241.668705 
L 754.625501 236.424751 
L 756.351163 209.923382 
L 756.926384 205.594118 
L 757.501604 205.402106 
L 758.076825 208.775082 
L 759.802487 225.048437 
L 760.377708 227.563479 
L 760.952928 227.49936 
L 761.528149 225.262945 
L 763.253811 215.186254 
L 763.829032 213.702461 
L 764.404252 213.75704 
L 764.979473 215.094931 
L 766.705135 221.112798 
L 767.280356 221.990609 
L 767.855576 221.924044 
L 768.430797 221.098121 
L 770.156459 217.495825 
L 770.73168 217.006869 
L 771.3069 217.094504 
L 771.882121 217.660879 
L 773.607783 220.11651 
L 774.183004 220.577769 
L 774.758224 220.724483 
L 775.908666 220.426397 
L 776.483886 220.2757 
L 777.059107 220.347932 
L 777.634328 220.744889 
L 778.209548 221.509263 
L 778.784769 222.645074 
L 779.35999 224.151928 
L 779.93521 226.071929 
L 780.510431 228.526946 
L 781.085652 231.776012 
L 781.660872 236.298997 
L 782.236093 242.831105 
L 782.811314 252.169888 
L 783.961755 274.687456 
L 784.536976 273.174467 
L 785.112196 248.126934 
L 785.687417 199.152226 
L 786.837858 88.96823 
L 787.413079 63.889842 
L 787.9883 71.880113 
L 788.56352 109.652707 
L 790.289182 271.00222 
L 790.864403 298.557592 
L 791.439624 303.753235 
L 792.014844 289.156976 
L 794.315727 182.424778 
L 794.890948 177.157468 
L 795.466168 184.014719 
L 796.041389 199.181606 
L 797.19183 233.107683 
L 797.767051 242.849421 
L 798.342272 244.967703 
L 798.917492 240.124862 
L 800.643154 210.392731 
L 801.218375 204.77868 
L 801.793596 203.760646 
L 802.368816 206.904596 
L 804.094478 225.046704 
L 804.669699 228.285001 
L 805.24492 228.690648 
L 805.82014 226.586773 
L 807.545802 215.461537 
L 808.121023 213.518353 
L 808.696244 213.276088 
L 809.271464 214.516301 
L 810.997126 221.190021 
L 811.572347 222.356244 
L 812.147568 222.489927 
L 812.722788 221.716297 
L 814.44845 217.714266 
L 815.023671 217.067567 
L 815.598892 217.042815 
L 816.174112 217.573142 
L 817.899774 220.322265 
L 818.474995 220.897995 
L 819.050216 221.156892 
L 819.625437 221.148017 
L 820.775878 220.865444 
L 821.351099 220.905371 
L 821.926319 221.245006 
L 822.50154 221.967487 
L 823.076761 223.118651 
L 823.651981 224.741229 
L 824.227202 226.914436 
L 824.802423 229.805242 
L 825.377643 233.745306 
L 825.952864 239.27863 
L 826.528085 247.1815 
L 827.103305 258.14071 
L 827.678526 271.252377 
L 828.253747 280.580957 
L 828.828967 273.721002 
L 829.404188 240.519581 
L 831.12985 74.193604 
L 831.705071 55.8 
L 832.280291 72.130885 
L 832.855512 117.264362 
L 834.005953 236.721129 
L 834.581174 281.721476 
L 835.156395 305.036964 
L 835.731615 305.226887 
L 836.306836 286.089941 
L 838.032498 194.138269 
L 838.607719 178.162644 
L 839.182939 175.851612 
L 839.75816 185.500049 
L 841.483822 236.656592 
L 842.059043 244.964016 
L 842.634263 245.289404 
L 843.209484 238.799706 
L 844.935146 208.04782 
L 845.510367 203.340972 
L 846.085587 203.432799 
L 846.660808 207.574734 
L 848.38647 226.288244 
L 848.961691 229.002797 
L 849.536911 228.754976 
L 850.112132 226.043816 
L 851.837794 214.429625 
L 852.413015 212.789578 
L 852.988235 212.95033 
L 853.563456 214.591323 
L 855.289118 221.595005 
L 855.864339 222.570408 
L 856.439559 222.4419 
L 857.01478 221.420755 
L 858.165221 218.38401 
L 858.740442 217.255637 
L 859.315663 216.761788 
L 859.890883 216.938416 
L 860.466104 217.668056 
L 862.191766 220.593307 
L 862.766987 221.052367 
L 863.342207 221.116683 
L 863.917428 220.876888 
L 865.067869 220.235294 
L 865.64309 220.225042 
L 866.218311 220.602269 
L 866.793531 221.39762 
L 867.368752 222.620058 
L 867.943973 224.252077 
L 868.519193 226.309117 
L 869.094414 228.879231 
L 869.669635 232.199004 
L 870.244855 236.698879 
L 870.820076 243.028649 
L 871.395297 251.9957 
L 872.545738 276.084278 
L 873.120959 279.681252 
L 873.696179 261.793125 
L 874.2714 217.42506 
L 875.421841 98.13344 
L 875.997062 61.642732 
L 876.572283 58.289277 
L 877.147503 88.303194 
L 879.448386 294.448994 
L 880.023607 307.8 
L 880.598827 299.048317 
L 881.174048 273.844789 
L 882.324489 208.891248 
L 882.89971 185.721441 
L 883.474931 175.463899 
L 884.050151 178.526755 
L 884.625372 191.895462 
L 885.775813 228.220046 
L 886.351034 240.909875 
L 886.926255 245.962431 
L 887.501475 243.295401 
L 888.076696 234.801866 
L 889.227137 212.906949 
L 889.802358 205.452825 
L 890.377579 202.613857 
L 890.952799 204.41425 
L 891.52802 209.691295 
L 892.678461 223.005177 
L 893.253682 227.442838 
L 893.828903 229.049952 
L 894.404123 227.842745 
L 894.979344 224.546377 
L 896.129785 216.372346 
L 896.705006 213.675712 
L 897.280227 212.726123 
L 897.855447 213.47625 
L 898.430668 215.459386 
L 899.581109 220.362389 
L 900.15633 221.973867 
L 900.731551 222.530579 
L 901.306771 222.06042 
L 901.881992 220.8569 
L 903.032433 218.00009 
L 903.607654 217.110756 
L 904.182875 216.843183 
L 904.758095 217.165905 
L 905.333316 217.919848 
L 906.483757 219.80929 
L 907.058978 220.522821 
L 907.634199 220.911394 
L 908.209419 220.959815 
L 909.935082 220.407454 
L 910.510302 220.563977 
L 911.085523 221.085865 
L 911.660744 222.01045 
L 912.235964 223.325083 
L 912.811185 225.002696 
L 913.386406 227.076146 
L 913.961626 229.696451 
L 914.536847 233.171359 
L 915.112068 238.037311 
L 915.687288 245.056088 
L 916.262509 254.979145 
L 917.41295 277.354362 
L 917.988171 273.645524 
L 918.563392 245.260024 
L 920.289054 83.013634 
L 920.864274 60.763802 
L 921.439495 72.328798 
L 922.014716 113.230013 
L 923.740378 275.363433 
L 924.315598 300.835065 
L 924.890819 303.674316 
L 925.46604 287.028122 
L 927.191702 197.371502 
L 927.766922 180.274411 
L 928.342143 176.382658 
L 928.917364 184.471025 
L 930.643026 234.254102 
L 931.218246 243.286428 
L 931.793467 244.581589 
L 932.368688 239.054411 
L 934.09435 209.096598 
L 934.66957 203.915534 
L 935.244791 203.411286 
L 935.820012 206.994517 
L 937.545674 225.194942 
L 938.120894 228.145515 
L 938.696115 228.241706 
L 939.271336 225.905338 
L 940.996998 214.729444 
L 941.572218 212.960509 
L 942.147439 212.921111 
L 942.72266 214.351172 
L 944.448322 221.12364 
L 945.023542 222.199733 
L 945.598763 222.231436 
L 946.173984 221.363988 
L 947.899646 217.264006 
L 948.474866 216.648441 
L 949.050087 216.689075 
L 949.625308 217.298668 
L 951.35097 220.091715 
L 951.92619 220.602785 
L 952.501411 220.747569 
L 953.076632 220.585735 
L 954.227073 219.953951 
L 954.802294 219.819923 
L 955.377514 219.970533 
L 955.952735 220.466348 
L 956.527956 221.321233 
L 957.103176 222.50892 
L 957.678397 223.999867 
L 958.253618 225.805681 
L 958.828838 228.04544 
L 959.404059 230.98854 
L 959.97928 235.07796 
L 960.5545 240.963471 
L 961.129721 249.391241 
L 962.280162 271.595467 
L 962.855383 274.11105 
L 963.430604 256.52225 
L 964.005824 215.280306 
L 965.156266 109.149934 
L 965.731486 78.6448 
L 966.306707 78.017871 
L 966.881928 106.553834 
L 968.60759 256.203254 
L 969.18281 286.550796 
L 969.758031 296.496471 
L 970.333252 287.237099 
L 970.908472 264.03077 
L 972.058914 206.864006 
L 972.634134 187.341376 
L 973.209355 179.471574 
L 973.784576 183.281704 
L 974.359796 195.84032 
L 975.510238 227.927319 
L 976.085458 238.511319 
L 976.660679 242.197784 
L 977.2359 239.139846 
L 977.81112 231.215955 
L 978.961562 212.076256 
L 979.536782 205.974541 
L 980.112003 204.015474 
L 980.687224 206.06284 
L 981.262444 210.991583 
L 982.412886 222.631527 
L 982.988106 226.238311 
L 983.563327 227.293765 
L 984.138548 225.916254 
L 984.713768 222.810423 
L 985.86421 215.666113 
L 986.43943 213.499668 
L 987.014651 212.88583 
L 987.589872 213.740962 
L 988.165092 215.627883 
L 989.315534 219.950619 
L 989.890754 221.272468 
L 990.465975 221.64913 
L 991.041196 221.128717 
L 992.191637 218.598088 
L 992.766858 217.394997 
L 993.342078 216.659193 
L 993.917299 216.518278 
L 994.49252 216.932911 
L 996.218182 219.529704 
L 996.218182 219.529704 
" style="fill:none;stroke:#4c72b0;stroke-linecap:round;stroke-width:1.4;"/>
   </g>
   <g id="patch_3">
    <path d="M 144 320.4 
L 144 43.2 
" style="fill:none;"/>
   </g>
   <g id="patch_4">
    <path d="M 1036.8 320.4 
L 1036.8 43.2 
" style="fill:none;"/>
   </g>
   <g id="patch_5">
    <path d="M 144 320.4 
L 1036.8 320.4 
" style="fill:none;"/>
   </g>
   <g id="patch_6">
    <path d="M 144 43.2 
L 1036.8 43.2 
" style="fill:none;"/>
   </g>
  </g>
 </g>
 <defs>
  <clipPath id="p2d7e2c5698">
   <rect height="277.2" width="892.8" x="144" y="43.2"/>
  </clipPath>
 </defs>
</svg>
