<?xml version="1.0" encoding="utf-8" standalone="no"?>
<!DOCTYPE svg PUBLIC "-//W3C//DTD SVG 1.1//EN"
  "http://www.w3.org/Graphics/SVG/1.1/DTD/svg11.dtd">
<!-- Created with matplotlib (http://matplotlib.org/) -->
<svg height="360pt" version="1.1" viewBox="0 0 1152 360" width="1152pt" xmlns="http://www.w3.org/2000/svg" xmlns:xlink="http://www.w3.org/1999/xlink">
 <defs>
  <style type="text/css">
*{stroke-linecap:butt;stroke-linejoin:round;}
  </style>
 </defs>
 <g id="figure_1">
  <g id="patch_1">
   <path d="M 0 360 
L 1152 360 
L 1152 0 
L 0 0 
z
" style="fill:#ffffff;"/>
  </g>
  <g id="axes_1">
   <g id="patch_2">
    <path d="M 144 320.4 
L 1036.8 320.4 
L 1036.8 43.2 
L 144 43.2 
z
" style="fill:#eaeaf2;"/>
   </g>
   <g id="matplotlib.axis_1">
    <g id="xtick_1">
     <g id="line2d_1">
      <path clip-path="url(#p4491529140)" d="M 184.581818 320.4 
L 184.581818 43.2 
" style="fill:none;stroke:#ffffff;stroke-linecap:round;stroke-width:0.8;"/>
     </g>
     <g id="line2d_2"/>
     <g id="text_1">
      <!-- 0 -->
      <defs>
       <path d="M 51.703125 34.421875 
Q 51.703125 24.515625 49.828125 17.75 
Q 47.953125 10.984375 44.703125 6.8125 
Q 41.453125 2.640625 37.0625 0.828125 
Q 32.671875 -0.984375 27.6875 -0.984375 
Q 22.65625 -0.984375 18.3125 0.828125 
Q 13.96875 2.640625 10.765625 6.78125 
Q 7.5625 10.9375 5.734375 17.703125 
Q 3.90625 24.46875 3.90625 34.421875 
Q 3.90625 44.828125 5.734375 51.640625 
Q 7.5625 58.453125 10.78125 62.5 
Q 14.015625 66.546875 18.40625 68.1875 
Q 22.796875 69.828125 27.984375 69.828125 
Q 32.90625 69.828125 37.21875 68.1875 
Q 41.546875 66.546875 44.765625 62.5 
Q 48 58.453125 49.84375 51.640625 
Q 51.703125 44.828125 51.703125 34.421875 
M 42.78125 34.421875 
Q 42.78125 42.625 41.796875 48.0625 
Q 40.828125 53.515625 38.921875 56.765625 
Q 37.015625 60.015625 34.25 61.359375 
Q 31.5 62.703125 27.984375 62.703125 
Q 24.265625 62.703125 21.4375 61.328125 
Q 18.609375 59.96875 16.671875 56.71875 
Q 14.75 53.46875 13.765625 48.015625 
Q 12.796875 42.578125 12.796875 34.421875 
Q 12.796875 26.515625 13.796875 21.09375 
Q 14.796875 15.671875 16.71875 12.375 
Q 18.65625 9.078125 21.4375 7.640625 
Q 24.21875 6.203125 27.78125 6.203125 
Q 31.25 6.203125 34.03125 7.640625 
Q 36.8125 9.078125 38.734375 12.375 
Q 40.671875 15.671875 41.71875 21.09375 
Q 42.78125 26.515625 42.78125 34.421875 
" id="LiberationSans-30"/>
      </defs>
      <g style="fill:#262626;" transform="translate(182.357443 331.7975)scale(0.08 -0.08)">
       <use xlink:href="#LiberationSans-30"/>
      </g>
     </g>
    </g>
    <g id="xtick_2">
     <g id="line2d_3">
      <path clip-path="url(#p4491529140)" d="M 286.163341 320.4 
L 286.163341 43.2 
" style="fill:none;stroke:#ffffff;stroke-linecap:round;stroke-width:0.8;"/>
     </g>
     <g id="line2d_4"/>
     <g id="text_2">
      <!-- 100 -->
      <defs>
       <path d="M 7.625 0 
L 7.625 7.46875 
L 25.140625 7.46875 
L 25.140625 60.40625 
L 9.625 49.3125 
L 9.625 57.625 
L 25.875 68.796875 
L 33.984375 68.796875 
L 33.984375 7.46875 
L 50.734375 7.46875 
L 50.734375 0 
z
" id="LiberationSans-31"/>
      </defs>
      <g style="fill:#262626;" transform="translate(279.490216 331.7975)scale(0.08 -0.08)">
       <use xlink:href="#LiberationSans-31"/>
       <use x="55.615234" xlink:href="#LiberationSans-30"/>
       <use x="111.230469" xlink:href="#LiberationSans-30"/>
      </g>
     </g>
    </g>
    <g id="xtick_3">
     <g id="line2d_5">
      <path clip-path="url(#p4491529140)" d="M 387.744863 320.4 
L 387.744863 43.2 
" style="fill:none;stroke:#ffffff;stroke-linecap:round;stroke-width:0.8;"/>
     </g>
     <g id="line2d_6"/>
     <g id="text_3">
      <!-- 200 -->
      <defs>
       <path d="M 5.03125 0 
L 5.03125 6.203125 
Q 7.515625 11.921875 11.109375 16.28125 
Q 14.703125 20.65625 18.65625 24.1875 
Q 22.609375 27.734375 26.484375 30.765625 
Q 30.375 33.796875 33.5 36.8125 
Q 36.625 39.84375 38.546875 43.15625 
Q 40.484375 46.484375 40.484375 50.6875 
Q 40.484375 53.609375 39.59375 55.828125 
Q 38.71875 58.0625 37.0625 59.5625 
Q 35.40625 61.078125 33.078125 61.828125 
Q 30.765625 62.59375 27.9375 62.59375 
Q 25.296875 62.59375 22.96875 61.859375 
Q 20.65625 61.140625 18.84375 59.671875 
Q 17.046875 58.203125 15.890625 56.03125 
Q 14.75 53.859375 14.40625 50.984375 
L 5.421875 51.8125 
Q 5.859375 55.515625 7.46875 58.78125 
Q 9.078125 62.0625 11.90625 64.53125 
Q 14.75 67 18.71875 68.40625 
Q 22.703125 69.828125 27.9375 69.828125 
Q 33.0625 69.828125 37.0625 68.609375 
Q 41.0625 67.390625 43.8125 64.984375 
Q 46.578125 62.59375 48.046875 59.078125 
Q 49.515625 55.5625 49.515625 50.984375 
Q 49.515625 47.515625 48.265625 44.390625 
Q 47.015625 41.265625 44.9375 38.421875 
Q 42.875 35.59375 40.140625 32.953125 
Q 37.40625 30.328125 34.421875 27.8125 
Q 31.453125 25.296875 28.421875 22.828125 
Q 25.390625 20.359375 22.71875 17.859375 
Q 20.0625 15.375 17.96875 12.8125 
Q 15.875 10.25 14.703125 7.46875 
L 50.59375 7.46875 
L 50.59375 0 
z
" id="LiberationSans-32"/>
      </defs>
      <g style="fill:#262626;" transform="translate(381.071738 331.7975)scale(0.08 -0.08)">
       <use xlink:href="#LiberationSans-32"/>
       <use x="55.615234" xlink:href="#LiberationSans-30"/>
       <use x="111.230469" xlink:href="#LiberationSans-30"/>
      </g>
     </g>
    </g>
    <g id="xtick_4">
     <g id="line2d_7">
      <path clip-path="url(#p4491529140)" d="M 489.326385 320.4 
L 489.326385 43.2 
" style="fill:none;stroke:#ffffff;stroke-linecap:round;stroke-width:0.8;"/>
     </g>
     <g id="line2d_8"/>
     <g id="text_4">
      <!-- 300 -->
      <defs>
       <path d="M 51.21875 19 
Q 51.21875 14.265625 49.671875 10.546875 
Q 48.140625 6.84375 45.1875 4.265625 
Q 42.234375 1.703125 37.859375 0.359375 
Q 33.5 -0.984375 27.875 -0.984375 
Q 21.484375 -0.984375 17.109375 0.609375 
Q 12.75 2.203125 9.90625 4.8125 
Q 7.078125 7.421875 5.65625 10.765625 
Q 4.25 14.109375 3.8125 17.671875 
L 12.890625 18.5 
Q 13.28125 15.765625 14.328125 13.515625 
Q 15.375 11.28125 17.1875 9.671875 
Q 19 8.0625 21.625 7.171875 
Q 24.265625 6.296875 27.875 6.296875 
Q 34.515625 6.296875 38.296875 9.5625 
Q 42.09375 12.84375 42.09375 19.28125 
Q 42.09375 23.09375 40.40625 25.40625 
Q 38.71875 27.734375 36.203125 29.03125 
Q 33.6875 30.328125 30.734375 30.765625 
Q 27.78125 31.203125 25.296875 31.203125 
L 20.3125 31.203125 
L 20.3125 38.8125 
L 25.09375 38.8125 
Q 27.59375 38.8125 30.265625 39.328125 
Q 32.953125 39.84375 35.171875 41.1875 
Q 37.40625 42.53125 38.84375 44.828125 
Q 40.28125 47.125 40.28125 50.6875 
Q 40.28125 56.203125 37.03125 59.390625 
Q 33.796875 62.59375 27.390625 62.59375 
Q 21.578125 62.59375 17.984375 59.609375 
Q 14.40625 56.640625 13.8125 51.21875 
L 4.984375 51.90625 
Q 5.515625 56.453125 7.46875 59.8125 
Q 9.421875 63.1875 12.421875 65.40625 
Q 15.4375 67.625 19.28125 68.71875 
Q 23.140625 69.828125 27.484375 69.828125 
Q 33.25 69.828125 37.390625 68.375 
Q 41.546875 66.9375 44.1875 64.46875 
Q 46.828125 62.015625 48.0625 58.6875 
Q 49.3125 55.375 49.3125 51.609375 
Q 49.3125 48.578125 48.484375 45.9375 
Q 47.65625 43.3125 45.890625 41.203125 
Q 44.140625 39.109375 41.421875 37.59375 
Q 38.71875 36.078125 34.90625 35.296875 
L 34.90625 35.109375 
Q 39.0625 34.671875 42.140625 33.21875 
Q 45.21875 31.78125 47.21875 29.625 
Q 49.21875 27.484375 50.21875 24.75 
Q 51.21875 22.015625 51.21875 19 
" id="LiberationSans-33"/>
      </defs>
      <g style="fill:#262626;" transform="translate(482.65326 331.7975)scale(0.08 -0.08)">
       <use xlink:href="#LiberationSans-33"/>
       <use x="55.615234" xlink:href="#LiberationSans-30"/>
       <use x="111.230469" xlink:href="#LiberationSans-30"/>
      </g>
     </g>
    </g>
    <g id="xtick_5">
     <g id="line2d_9">
      <path clip-path="url(#p4491529140)" d="M 590.907908 320.4 
L 590.907908 43.2 
" style="fill:none;stroke:#ffffff;stroke-linecap:round;stroke-width:0.8;"/>
     </g>
     <g id="line2d_10"/>
     <g id="text_5">
      <!-- 400 -->
      <defs>
       <path d="M 43.015625 15.578125 
L 43.015625 0 
L 34.71875 0 
L 34.71875 15.578125 
L 2.296875 15.578125 
L 2.296875 22.40625 
L 33.796875 68.796875 
L 43.015625 68.796875 
L 43.015625 22.515625 
L 52.6875 22.515625 
L 52.6875 15.578125 
z
M 34.71875 58.890625 
Q 34.625 58.640625 34.234375 57.9375 
Q 33.84375 57.234375 33.34375 56.34375 
Q 32.859375 55.46875 32.34375 54.5625 
Q 31.84375 53.65625 31.453125 53.078125 
L 13.8125 27.09375 
Q 13.578125 26.703125 13.109375 26.0625 
Q 12.640625 25.4375 12.15625 24.78125 
Q 11.671875 24.125 11.171875 23.484375 
Q 10.6875 22.859375 10.40625 22.515625 
L 34.71875 22.515625 
z
" id="LiberationSans-34"/>
      </defs>
      <g style="fill:#262626;" transform="translate(584.234783 331.7975)scale(0.08 -0.08)">
       <use xlink:href="#LiberationSans-34"/>
       <use x="55.615234" xlink:href="#LiberationSans-30"/>
       <use x="111.230469" xlink:href="#LiberationSans-30"/>
      </g>
     </g>
    </g>
    <g id="xtick_6">
     <g id="line2d_11">
      <path clip-path="url(#p4491529140)" d="M 692.48943 320.4 
L 692.48943 43.2 
" style="fill:none;stroke:#ffffff;stroke-linecap:round;stroke-width:0.8;"/>
     </g>
     <g id="line2d_12"/>
     <g id="text_6">
      <!-- 500 -->
      <defs>
       <path d="M 51.421875 22.40625 
Q 51.421875 17.234375 49.859375 12.9375 
Q 48.296875 8.640625 45.21875 5.53125 
Q 42.140625 2.4375 37.578125 0.71875 
Q 33.015625 -0.984375 27 -0.984375 
Q 21.578125 -0.984375 17.546875 0.28125 
Q 13.53125 1.5625 10.734375 3.78125 
Q 7.953125 6 6.3125 8.984375 
Q 4.6875 11.96875 4 15.375 
L 12.890625 16.40625 
Q 13.421875 14.453125 14.390625 12.625 
Q 15.375 10.796875 17.0625 9.34375 
Q 18.75 7.90625 21.21875 7.046875 
Q 23.6875 6.203125 27.203125 6.203125 
Q 30.609375 6.203125 33.390625 7.25 
Q 36.1875 8.296875 38.15625 10.34375 
Q 40.140625 12.40625 41.203125 15.375 
Q 42.28125 18.359375 42.28125 22.21875 
Q 42.28125 25.390625 41.25 28.046875 
Q 40.234375 30.71875 38.328125 32.640625 
Q 36.421875 34.578125 33.65625 35.640625 
Q 30.90625 36.71875 27.390625 36.71875 
Q 25.203125 36.71875 23.34375 36.328125 
Q 21.484375 35.9375 19.890625 35.25 
Q 18.3125 34.578125 17.015625 33.671875 
Q 15.71875 32.765625 14.59375 31.78125 
L 6 31.78125 
L 8.296875 68.796875 
L 47.40625 68.796875 
L 47.40625 61.328125 
L 16.3125 61.328125 
L 14.984375 39.5 
Q 17.328125 41.3125 20.84375 42.59375 
Q 24.359375 43.890625 29.203125 43.890625 
Q 34.328125 43.890625 38.421875 42.328125 
Q 42.53125 40.765625 45.40625 37.90625 
Q 48.296875 35.0625 49.859375 31.109375 
Q 51.421875 27.15625 51.421875 22.40625 
" id="LiberationSans-35"/>
      </defs>
      <g style="fill:#262626;" transform="translate(685.816305 331.7975)scale(0.08 -0.08)">
       <use xlink:href="#LiberationSans-35"/>
       <use x="55.615234" xlink:href="#LiberationSans-30"/>
       <use x="111.230469" xlink:href="#LiberationSans-30"/>
      </g>
     </g>
    </g>
    <g id="xtick_7">
     <g id="line2d_13">
      <path clip-path="url(#p4491529140)" d="M 794.070952 320.4 
L 794.070952 43.2 
" style="fill:none;stroke:#ffffff;stroke-linecap:round;stroke-width:0.8;"/>
     </g>
     <g id="line2d_14"/>
     <g id="text_7">
      <!-- 600 -->
      <defs>
       <path d="M 51.21875 22.515625 
Q 51.21875 17.328125 49.78125 13 
Q 48.34375 8.6875 45.53125 5.578125 
Q 42.71875 2.484375 38.5625 0.75 
Q 34.421875 -0.984375 29 -0.984375 
Q 23 -0.984375 18.5 1.3125 
Q 14.015625 3.609375 11.03125 7.921875 
Q 8.0625 12.25 6.5625 18.53125 
Q 5.078125 24.8125 5.078125 32.8125 
Q 5.078125 42 6.765625 48.921875 
Q 8.453125 55.859375 11.625 60.5 
Q 14.796875 65.140625 19.359375 67.484375 
Q 23.921875 69.828125 29.6875 69.828125 
Q 33.203125 69.828125 36.28125 69.09375 
Q 39.359375 68.359375 41.875 66.71875 
Q 44.390625 65.09375 46.28125 62.40625 
Q 48.1875 59.71875 49.3125 55.8125 
L 40.921875 54.296875 
Q 39.546875 58.734375 36.546875 60.71875 
Q 33.546875 62.703125 29.59375 62.703125 
Q 25.984375 62.703125 23.046875 60.984375 
Q 20.125 59.28125 18.0625 55.875 
Q 16.015625 52.484375 14.90625 47.359375 
Q 13.8125 42.234375 13.8125 35.40625 
Q 16.21875 39.84375 20.5625 42.15625 
Q 24.90625 44.484375 30.515625 44.484375 
Q 35.203125 44.484375 39.015625 42.96875 
Q 42.828125 41.453125 45.53125 38.59375 
Q 48.25 35.75 49.734375 31.671875 
Q 51.21875 27.59375 51.21875 22.515625 
M 42.28125 22.125 
Q 42.28125 25.6875 41.40625 28.5625 
Q 40.53125 31.453125 38.765625 33.46875 
Q 37.015625 35.5 34.421875 36.59375 
Q 31.84375 37.703125 28.421875 37.703125 
Q 26.03125 37.703125 23.578125 36.984375 
Q 21.140625 36.28125 19.15625 34.6875 
Q 17.1875 33.109375 15.9375 30.515625 
Q 14.703125 27.9375 14.703125 24.21875 
Q 14.703125 20.40625 15.671875 17.109375 
Q 16.65625 13.8125 18.484375 11.375 
Q 20.3125 8.9375 22.890625 7.515625 
Q 25.484375 6.109375 28.71875 6.109375 
Q 31.890625 6.109375 34.40625 7.203125 
Q 36.921875 8.296875 38.671875 10.375 
Q 40.4375 12.453125 41.359375 15.421875 
Q 42.28125 18.40625 42.28125 22.125 
" id="LiberationSans-36"/>
      </defs>
      <g style="fill:#262626;" transform="translate(787.397827 331.7975)scale(0.08 -0.08)">
       <use xlink:href="#LiberationSans-36"/>
       <use x="55.615234" xlink:href="#LiberationSans-30"/>
       <use x="111.230469" xlink:href="#LiberationSans-30"/>
      </g>
     </g>
    </g>
    <g id="xtick_8">
     <g id="line2d_15">
      <path clip-path="url(#p4491529140)" d="M 895.652475 320.4 
L 895.652475 43.2 
" style="fill:none;stroke:#ffffff;stroke-linecap:round;stroke-width:0.8;"/>
     </g>
     <g id="line2d_16"/>
     <g id="text_8">
      <!-- 700 -->
      <defs>
       <path d="M 50.59375 61.671875 
Q 45.40625 53.765625 41.0625 46.453125 
Q 36.71875 39.15625 33.59375 31.75 
Q 30.46875 24.359375 28.734375 16.578125 
Q 27 8.796875 27 0 
L 17.828125 0 
Q 17.828125 8.25 19.78125 16.1875 
Q 21.734375 24.125 25.046875 31.765625 
Q 28.375 39.40625 32.765625 46.78125 
Q 37.15625 54.15625 42.09375 61.328125 
L 5.125 61.328125 
L 5.125 68.796875 
L 50.59375 68.796875 
z
" id="LiberationSans-37"/>
      </defs>
      <g style="fill:#262626;" transform="translate(888.97935 331.7975)scale(0.08 -0.08)">
       <use xlink:href="#LiberationSans-37"/>
       <use x="55.615234" xlink:href="#LiberationSans-30"/>
       <use x="111.230469" xlink:href="#LiberationSans-30"/>
      </g>
     </g>
    </g>
    <g id="xtick_9">
     <g id="line2d_17">
      <path clip-path="url(#p4491529140)" d="M 997.233997 320.4 
L 997.233997 43.2 
" style="fill:none;stroke:#ffffff;stroke-linecap:round;stroke-width:0.8;"/>
     </g>
     <g id="line2d_18"/>
     <g id="text_9">
      <!-- 800 -->
      <defs>
       <path d="M 51.265625 19.1875 
Q 51.265625 14.796875 49.875 11.109375 
Q 48.484375 7.421875 45.625 4.734375 
Q 42.78125 2.046875 38.328125 0.53125 
Q 33.890625 -0.984375 27.828125 -0.984375 
Q 21.78125 -0.984375 17.359375 0.53125 
Q 12.9375 2.046875 10.03125 4.703125 
Q 7.125 7.375 5.734375 11.0625 
Q 4.34375 14.75 4.34375 19.09375 
Q 4.34375 22.859375 5.484375 25.78125 
Q 6.640625 28.71875 8.5625 30.828125 
Q 10.5 32.953125 12.96875 34.25 
Q 15.4375 35.546875 18.0625 35.984375 
L 18.0625 36.1875 
Q 15.1875 36.859375 12.90625 38.375 
Q 10.640625 39.890625 9.09375 42.015625 
Q 7.5625 44.140625 6.75 46.71875 
Q 5.953125 49.3125 5.953125 52.203125 
Q 5.953125 55.8125 7.34375 59 
Q 8.734375 62.203125 11.46875 64.625 
Q 14.203125 67.046875 18.25 68.4375 
Q 22.3125 69.828125 27.640625 69.828125 
Q 33.25 69.828125 37.375 68.40625 
Q 41.5 67 44.203125 64.578125 
Q 46.921875 62.15625 48.234375 58.9375 
Q 49.5625 55.71875 49.5625 52.09375 
Q 49.5625 49.265625 48.75 46.671875 
Q 47.953125 44.09375 46.40625 41.96875 
Q 44.875 39.84375 42.59375 38.34375 
Q 40.328125 36.859375 37.359375 36.28125 
L 37.359375 36.078125 
Q 40.328125 35.59375 42.859375 34.296875 
Q 45.40625 33.015625 47.265625 30.890625 
Q 49.125 28.765625 50.1875 25.828125 
Q 51.265625 22.90625 51.265625 19.1875 
M 40.4375 51.609375 
Q 40.4375 54.203125 39.765625 56.34375 
Q 39.109375 58.5 37.59375 60.03125 
Q 36.078125 61.578125 33.640625 62.421875 
Q 31.203125 63.28125 27.640625 63.28125 
Q 24.171875 63.28125 21.78125 62.421875 
Q 19.390625 61.578125 17.84375 60.03125 
Q 16.3125 58.5 15.625 56.34375 
Q 14.9375 54.203125 14.9375 51.609375 
Q 14.9375 49.5625 15.46875 47.40625 
Q 16.015625 45.265625 17.421875 43.5 
Q 18.84375 41.75 21.328125 40.625 
Q 23.828125 39.5 27.734375 39.5 
Q 31.890625 39.5 34.40625 40.625 
Q 36.921875 41.75 38.25 43.5 
Q 39.59375 45.265625 40.015625 47.40625 
Q 40.4375 49.5625 40.4375 51.609375 
M 42.140625 20.015625 
Q 42.140625 22.515625 41.453125 24.828125 
Q 40.765625 27.15625 39.109375 28.9375 
Q 37.453125 30.71875 34.640625 31.8125 
Q 31.84375 32.90625 27.640625 32.90625 
Q 23.78125 32.90625 21.0625 31.8125 
Q 18.359375 30.71875 16.671875 28.90625 
Q 14.984375 27.09375 14.203125 24.71875 
Q 13.421875 22.359375 13.421875 19.828125 
Q 13.421875 16.65625 14.203125 14.03125 
Q 14.984375 11.421875 16.6875 9.546875 
Q 18.40625 7.671875 21.1875 6.640625 
Q 23.96875 5.609375 27.9375 5.609375 
Q 31.9375 5.609375 34.671875 6.640625 
Q 37.40625 7.671875 39.0625 9.546875 
Q 40.71875 11.421875 41.421875 14.078125 
Q 42.140625 16.75 42.140625 20.015625 
" id="LiberationSans-38"/>
      </defs>
      <g style="fill:#262626;" transform="translate(990.560872 331.7975)scale(0.08 -0.08)">
       <use xlink:href="#LiberationSans-38"/>
       <use x="55.615234" xlink:href="#LiberationSans-30"/>
       <use x="111.230469" xlink:href="#LiberationSans-30"/>
      </g>
     </g>
    </g>
   </g>
   <g id="matplotlib.axis_2">
    <g id="ytick_1">
     <g id="line2d_19">
      <path clip-path="url(#p4491529140)" d="M 144 307.576374 
L 1036.8 307.576374 
" style="fill:none;stroke:#ffffff;stroke-linecap:round;stroke-width:0.8;"/>
     </g>
     <g id="line2d_20"/>
     <g id="text_10">
      <!-- 0 -->
      <g style="fill:#262626;" transform="translate(133.95125 310.475124)scale(0.08 -0.08)">
       <use xlink:href="#LiberationSans-30"/>
      </g>
     </g>
    </g>
    <g id="ytick_2">
     <g id="line2d_21">
      <path clip-path="url(#p4491529140)" d="M 144 251.6698 
L 1036.8 251.6698 
" style="fill:none;stroke:#ffffff;stroke-linecap:round;stroke-width:0.8;"/>
     </g>
     <g id="line2d_22"/>
     <g id="text_11">
      <!-- 2 -->
      <g style="fill:#262626;" transform="translate(133.95125 254.56855)scale(0.08 -0.08)">
       <use xlink:href="#LiberationSans-32"/>
      </g>
     </g>
    </g>
    <g id="ytick_3">
     <g id="line2d_23">
      <path clip-path="url(#p4491529140)" d="M 144 195.763226 
L 1036.8 195.763226 
" style="fill:none;stroke:#ffffff;stroke-linecap:round;stroke-width:0.8;"/>
     </g>
     <g id="line2d_24"/>
     <g id="text_12">
      <!-- 4 -->
      <g style="fill:#262626;" transform="translate(133.95125 198.661976)scale(0.08 -0.08)">
       <use xlink:href="#LiberationSans-34"/>
      </g>
     </g>
    </g>
    <g id="ytick_4">
     <g id="line2d_25">
      <path clip-path="url(#p4491529140)" d="M 144 139.856652 
L 1036.8 139.856652 
" style="fill:none;stroke:#ffffff;stroke-linecap:round;stroke-width:0.8;"/>
     </g>
     <g id="line2d_26"/>
     <g id="text_13">
      <!-- 6 -->
      <g style="fill:#262626;" transform="translate(133.95125 142.755402)scale(0.08 -0.08)">
       <use xlink:href="#LiberationSans-36"/>
      </g>
     </g>
    </g>
    <g id="ytick_5">
     <g id="line2d_27">
      <path clip-path="url(#p4491529140)" d="M 144 83.950078 
L 1036.8 83.950078 
" style="fill:none;stroke:#ffffff;stroke-linecap:round;stroke-width:0.8;"/>
     </g>
     <g id="line2d_28"/>
     <g id="text_14">
      <!-- 8 -->
      <g style="fill:#262626;" transform="translate(133.95125 86.848828)scale(0.08 -0.08)">
       <use xlink:href="#LiberationSans-38"/>
      </g>
     </g>
    </g>
   </g>
   <g id="line2d_29">
    <path clip-path="url(#p4491529140)" d="M 184.581818 307.149572 
L 185.597633 305.379858 
L 186.613449 302.092414 
L 187.629264 297.4378 
L 188.645079 291.256183 
L 189.660894 283.433875 
L 190.67671 274.052276 
L 192.70834 251.75925 
L 194.73997 228.851252 
L 195.755786 222.693143 
L 196.771601 223.876126 
L 197.787416 214.565166 
L 199.819047 180.081432 
L 200.834862 166.739608 
L 201.850677 159.283627 
L 202.866492 155.978151 
L 203.882307 155.069669 
L 204.898123 156.579426 
L 205.913938 158.526373 
L 206.929753 157.162811 
L 207.945568 154.376707 
L 208.961384 152.695038 
L 209.977199 153.787173 
L 210.993014 156.706893 
L 212.008829 157.633265 
L 214.04046 157.841238 
L 215.056275 157.802662 
L 216.07209 157.485672 
L 217.087905 156.939744 
L 218.103721 156.524358 
L 219.119536 156.868743 
L 220.135351 158.672848 
L 221.151166 161.641487 
L 222.166981 162.563107 
L 223.182797 161.77147 
L 224.198612 159.454422 
L 225.214427 155.6019 
L 227.246058 146.018675 
L 228.261873 143.452004 
L 229.277688 143.942304 
L 230.293503 147.346735 
L 231.309318 148.939793 
L 232.325134 148.792479 
L 233.340949 147.440938 
L 234.356764 145.432774 
L 235.372579 142.875887 
L 236.388395 139.470897 
L 237.40421 135.564425 
L 238.420025 133.277287 
L 239.43584 135.449816 
L 240.451655 135.780504 
L 241.467471 133.576667 
L 242.483286 133.242345 
L 243.499101 137.109123 
L 244.514916 137.933466 
L 245.530732 138.560738 
L 246.546547 140.895396 
L 247.562362 144.235814 
L 248.578177 146.267179 
L 249.593992 147.178456 
L 250.609808 146.483258 
L 251.625623 143.566612 
L 252.641438 138.60099 
L 253.657253 132.937375 
L 254.673069 128.340457 
L 255.688884 125.215559 
L 256.704699 121.66018 
L 257.720514 115.31702 
L 258.73633 106.780925 
L 259.752145 100.828832 
L 260.76796 103.3491 
L 261.783775 99.240247 
L 262.79959 87.3 
L 263.815406 73.52462 
L 264.831221 62.822425 
L 265.847036 57.078304 
L 266.862851 55.8 
L 267.878667 57.622554 
L 268.894482 61.345373 
L 269.910297 66.498562 
L 270.926112 70.4492 
L 271.941927 72.355055 
L 272.957743 73.321959 
L 273.973558 75.545643 
L 274.989373 80.703304 
L 276.005188 83.09946 
L 277.021004 84.456592 
L 278.036819 86.299272 
L 279.052634 88.672506 
L 280.068449 90.757822 
L 281.084264 92.165549 
L 282.10008 93.347135 
L 283.115895 95.020977 
L 284.13171 97.638803 
L 285.147525 101.581614 
L 286.163341 105.037758 
L 287.179156 105.980064 
L 288.194971 104.602526 
L 290.226601 99.533756 
L 291.242417 98.421774 
L 292.258232 99.024727 
L 293.274047 101.142468 
L 294.289862 104.49211 
L 295.305678 108.971624 
L 296.321493 111.808603 
L 297.337308 113.225835 
L 300.384754 115.71843 
L 301.400569 115.29941 
L 303.432199 111.631659 
L 304.448015 113.143932 
L 305.46383 115.769025 
L 306.479645 115.644074 
L 307.49546 116.611258 
L 308.511275 120.715359 
L 309.527091 123.124933 
L 310.542906 125.9088 
L 313.590352 137.55414 
L 314.606167 140.232903 
L 315.621982 140.22312 
L 316.637797 137.961419 
L 318.669428 132.606408 
L 319.685243 130.018213 
L 321.716873 124.094912 
L 322.732689 120.622554 
L 323.748504 115.200735 
L 324.764319 107.797307 
L 325.780134 102.295261 
L 326.795949 104.692815 
L 327.811765 100.538956 
L 330.85921 65.514047 
L 331.875026 60.428505 
L 332.890841 58.650117 
L 333.906656 59.349508 
L 334.922471 62.608023 
L 335.938286 67.646044 
L 336.954102 70.099224 
L 337.969917 70.83775 
L 338.985732 71.337835 
L 340.001547 73.651249 
L 341.017363 78.500585 
L 342.033178 80.062335 
L 343.048993 80.269189 
L 344.064808 80.896461 
L 347.112254 85.090013 
L 348.128069 86.051047 
L 349.143884 87.591273 
L 350.1597 90.730427 
L 351.175515 94.725511 
L 352.19133 95.571378 
L 353.207145 94.123118 
L 354.222961 92.012924 
L 355.238776 90.614421 
L 356.254591 90.288765 
L 357.270406 90.750833 
L 358.286221 91.834303 
L 359.302037 93.848617 
L 361.333667 101.265742 
L 362.349482 103.25965 
L 363.365298 104.885413 
L 364.381113 107.931483 
L 366.412743 115.631495 
L 367.428558 118.462883 
L 368.444374 118.029328 
L 369.460189 115.971686 
L 370.476004 115.049507 
L 371.491819 116.822025 
L 374.539265 128.659404 
L 377.586711 139.214565 
L 379.618341 145.04003 
L 380.634156 148.170798 
L 381.649972 150.21642 
L 382.665787 149.922072 
L 383.681602 147.400685 
L 385.713232 140.986803 
L 386.729048 138.476319 
L 387.744863 136.42902 
L 388.760678 135.211654 
L 389.776493 134.546925 
L 390.792309 132.605849 
L 391.808124 127.562237 
L 392.823939 120.733249 
L 393.839754 117.117771 
L 394.855569 121.006353 
L 395.871385 115.486138 
L 398.91883 80.881925 
L 399.934646 74.423877 
L 400.950461 73.492474 
L 401.966276 78.313298 
L 402.982091 79.747581 
L 403.997906 79.741711 
L 405.013722 80.277296 
L 406.029537 82.065467 
L 407.045352 85.579755 
L 408.061167 89.560023 
L 409.076983 90.784936 
L 410.092798 90.605197 
L 411.108613 90.675918 
L 414.156059 93.168793 
L 415.171874 94.374977 
L 416.187689 96.698175 
L 417.203504 100.340767 
L 418.21932 104.519504 
L 419.235135 106.468128 
L 420.25095 106.038486 
L 421.266765 104.309855 
L 422.28258 102.987105 
L 423.298396 102.957195 
L 424.314211 103.990069 
L 425.330026 105.80256 
L 426.345841 108.858693 
L 427.361657 112.976212 
L 428.377472 115.531702 
L 429.393287 117.660344 
L 430.409102 120.346935 
L 432.440733 127.378584 
L 434.472363 132.189065 
L 435.488178 135.415713 
L 436.503994 135.571134 
L 438.535624 131.931057 
L 439.551439 131.018382 
L 440.567255 130.800905 
L 441.58307 131.237815 
L 442.598885 133.116276 
L 443.6147 136.879068 
L 444.630515 138.767312 
L 445.646331 140.213056 
L 446.662146 142.305919 
L 448.693776 147.510821 
L 449.709592 148.819035 
L 450.725407 148.307769 
L 451.741222 146.115952 
L 452.757037 143.355285 
L 453.772852 141.481856 
L 454.788668 141.118184 
L 456.820298 142.250012 
L 457.836113 142.324089 
L 458.851929 141.165145 
L 459.867744 137.383066 
L 461.899374 122.841486 
L 462.915189 120.030504 
L 463.931005 121.942229 
L 464.94682 114.299241 
L 466.97845 88.282838 
L 467.994266 78.484651 
L 469.010081 73.771448 
L 470.025896 75.132773 
L 471.041711 78.477943 
L 472.057526 78.17437 
L 473.073342 77.556043 
L 474.089157 78.817016 
L 475.104972 82.389167 
L 476.120787 86.954218 
L 477.136603 89.474486 
L 478.152418 90.262489 
L 479.168233 90.372346 
L 480.184048 90.845595 
L 481.199863 91.737025 
L 483.231494 92.962218 
L 484.247309 94.537386 
L 485.263124 98.360557 
L 486.27894 101.539125 
L 487.294755 102.805688 
L 488.31057 102.781369 
L 489.326385 101.875962 
L 490.3422 100.621139 
L 491.358016 99.852983 
L 492.373831 100.304428 
L 493.389646 102.395054 
L 495.421277 110.040838 
L 498.468722 119.171779 
L 500.500353 126.553124 
L 501.516168 128.642632 
L 502.531983 129.478715 
L 503.547798 130.885324 
L 504.563614 134.507791 
L 505.579429 136.652087 
L 507.611059 139.447136 
L 508.626875 139.202545 
L 509.64269 136.275277 
L 510.658505 131.985286 
L 511.67432 129.483746 
L 512.690135 130.786929 
L 513.705951 134.178501 
L 514.721766 135.859891 
L 515.737581 136.638949 
L 516.753396 136.325034 
L 518.785027 134.138248 
L 519.800842 134.056345 
L 520.816657 134.66964 
L 521.832472 135.415154 
L 522.848288 136.378424 
L 523.864103 138.087209 
L 526.911549 145.797005 
L 527.927364 147.515853 
L 528.943179 147.691399 
L 529.958994 144.825069 
L 530.974809 137.829759 
L 531.990625 127.993557 
L 533.00644 119.379472 
L 534.022255 117.069132 
L 535.03807 118.280069 
L 536.053886 109.852991 
L 538.085516 79.764912 
L 539.101331 68.321954 
L 540.117146 64.056003 
L 541.132962 67.310884 
L 542.148777 69.463846 
L 543.164592 69.274882 
L 544.180407 69.502981 
L 545.196223 71.605627 
L 547.227853 80.12523 
L 548.243668 82.855148 
L 549.259483 84.793708 
L 550.275299 86.244484 
L 551.291114 87.061279 
L 553.322744 87.274563 
L 554.33856 88.743787 
L 556.37019 96.163428 
L 557.386005 98.375092 
L 559.417636 101.806079 
L 560.433451 103.096682 
L 561.449266 104.124524 
L 562.465081 105.333504 
L 563.480897 107.252777 
L 564.496712 110.273129 
L 566.528342 118.203197 
L 568.559973 125.541774 
L 571.607418 136.977743 
L 572.623234 139.435675 
L 574.654864 142.473639 
L 575.670679 145.308661 
L 577.70231 151.978036 
L 578.718125 155.130048 
L 579.73394 156.70913 
L 580.749755 155.182601 
L 581.765571 150.822167 
L 582.781386 145.707275 
L 583.797201 142.075304 
L 584.813016 141.213225 
L 585.828831 143.69352 
L 586.844647 144.941914 
L 587.860462 142.812153 
L 589.892092 134.914231 
L 590.907908 132.52115 
L 591.923723 132.022464 
L 592.939538 133.458704 
L 593.955353 136.878509 
L 594.971169 139.560068 
L 595.986984 141.694581 
L 597.002799 144.487953 
L 598.018614 148.041654 
L 599.034429 150.825242 
L 600.050245 152.840395 
L 601.06606 153.398622 
L 602.081875 151.857837 
L 603.09769 148.131104 
L 604.113506 142.135124 
L 605.129321 133.55682 
L 606.145136 123.123814 
L 607.160951 114.221531 
L 608.176766 112.264242 
L 609.192582 112.042572 
L 610.208397 101.342893 
L 612.240027 70.742989 
L 613.255843 61.498278 
L 614.271658 58.681145 
L 615.287473 61.203091 
L 616.303288 66.124826 
L 617.319103 68.949785 
L 618.334919 71.229655 
L 619.350734 74.071107 
L 620.366549 78.030411 
L 621.382364 83.145023 
L 622.39818 87.145418 
L 623.413995 90.295754 
L 624.42981 92.872767 
L 626.46144 97.128655 
L 627.477256 99.231581 
L 628.493071 101.593354 
L 629.508886 104.287492 
L 630.524701 107.329369 
L 631.540517 110.967209 
L 632.556332 115.111005 
L 633.572147 117.795359 
L 634.587962 119.34425 
L 636.619593 121.5288 
L 637.635408 123.083282 
L 638.651223 125.368463 
L 639.667038 128.51181 
L 641.698669 135.680431 
L 643.730299 142.375243 
L 645.76193 149.408011 
L 646.777745 151.4131 
L 647.79356 152.046521 
L 648.809375 153.373184 
L 649.825191 156.521563 
L 650.841006 157.718523 
L 651.856821 159.21011 
L 653.888451 164.521235 
L 654.904267 164.363019 
L 655.920082 161.031546 
L 656.935897 156.290669 
L 657.951712 152.377488 
L 658.967528 150.504059 
L 659.983343 151.087724 
L 660.999158 154.505292 
L 662.014973 154.862535 
L 663.030788 152.599717 
L 664.046604 149.236657 
L 665.062419 146.305755 
L 666.078234 144.657629 
L 667.094049 144.607034 
L 668.109865 146.275286 
L 669.12568 149.702079 
L 670.141495 151.934988 
L 672.173125 154.971274 
L 674.204756 160.165833 
L 675.220571 160.811274 
L 676.236386 159.45582 
L 677.252202 156.280047 
L 678.268017 151.674463 
L 679.283832 145.982615 
L 680.299647 139.123717 
L 682.331278 122.033636 
L 683.347093 115.55071 
L 684.362908 115.799215 
L 685.378723 114.468918 
L 686.394539 104.273515 
L 688.426169 76.931008 
L 689.441984 68.562912 
L 690.4578 65.528023 
L 691.473615 67.131144 
L 692.48943 72.362323 
L 693.505245 75.226137 
L 695.536876 78.142783 
L 696.552691 80.318108 
L 697.568506 83.884667 
L 698.584321 88.636726 
L 699.600137 91.808865 
L 701.631767 97.105454 
L 702.647582 99.957248 
L 703.663397 102.319022 
L 705.695028 105.487247 
L 706.710843 107.593527 
L 707.726658 110.67957 
L 708.742474 114.815259 
L 709.758289 118.211304 
L 710.774104 120.369298 
L 711.789919 121.611542 
L 714.837365 123.841934 
L 715.85318 125.284044 
L 716.868995 127.667062 
L 717.884811 130.877218 
L 721.948071 145.199923 
L 722.963887 147.504392 
L 723.979702 149.238893 
L 726.011332 154.331144 
L 727.027148 155.280996 
L 728.042963 156.065645 
L 729.058778 157.300342 
L 730.074593 157.936558 
L 731.090408 156.688724 
L 734.137854 147.951644 
L 735.153669 146.826245 
L 736.169485 147.077266 
L 737.1853 149.119533 
L 738.201115 152.028072 
L 739.21693 152.749826 
L 740.232745 151.857278 
L 742.264376 147.974007 
L 743.280191 147.20026 
L 744.296006 148.827421 
L 745.311822 151.800253 
L 746.327637 153.10036 
L 747.343452 153.963558 
L 748.359267 155.112717 
L 749.375082 157.165327 
L 750.390898 160.214751 
L 751.406713 160.976199 
L 752.422528 159.881548 
L 753.438343 157.902176 
L 754.454159 155.612243 
L 755.469974 152.918105 
L 756.485789 149.684189 
L 757.501604 146.018675 
L 758.51742 141.74909 
L 759.533235 136.307423 
L 760.54905 130.078872 
L 761.564865 125.649114 
L 762.58068 127.038113 
L 763.596496 125.337994 
L 764.612311 116.11928 
L 766.643941 92.012924 
L 767.659757 84.426123 
L 768.675572 81.503886 
L 769.691387 82.781351 
L 770.707202 87.246609 
L 771.723017 90.715612 
L 773.754648 95.723723 
L 774.770463 98.666086 
L 775.786278 102.203015 
L 777.817909 110.57167 
L 778.833724 114.781156 
L 779.849539 118.193693 
L 780.865354 120.497324 
L 781.88117 121.841597 
L 782.896985 122.887889 
L 783.9128 124.354318 
L 784.928615 126.520698 
L 785.944431 129.448805 
L 786.960246 133.338505 
L 787.976061 135.935924 
L 788.991876 136.947553 
L 790.007691 136.818968 
L 791.023507 136.324475 
L 792.039322 136.211264 
L 793.055137 136.965444 
L 794.070952 138.674228 
L 796.102583 143.139766 
L 798.134213 146.827084 
L 799.150028 149.254268 
L 801.181659 154.951706 
L 802.197474 157.254219 
L 804.229105 162.32215 
L 805.24492 162.843758 
L 806.260735 162.721882 
L 807.27655 163.324275 
L 809.308181 166.129108 
L 810.323996 166.387396 
L 811.339811 165.57144 
L 812.355626 164.356869 
L 813.371442 163.380741 
L 814.387257 162.87842 
L 815.403072 163.153201 
L 816.418887 164.848288 
L 817.434702 167.358773 
L 818.450518 167.296158 
L 819.466333 165.41574 
L 820.482148 163.132795 
L 821.497963 161.815636 
L 822.513779 162.128154 
L 823.529594 164.022269 
L 824.545409 167.153037 
L 825.561224 169.419489 
L 828.60867 174.331161 
L 829.624485 177.244732 
L 830.6403 178.799215 
L 831.656116 178.703335 
L 832.671931 177.23998 
L 834.703561 173.296331 
L 835.719376 171.957368 
L 837.751007 169.653458 
L 838.766822 167.955017 
L 839.782637 165.18848 
L 840.798453 160.665358 
L 841.814268 154.8002 
L 842.830083 150.39001 
L 843.845898 151.636167 
L 844.861714 149.149722 
L 845.877529 139.633026 
L 846.893344 127.475862 
L 847.909159 116.948654 
L 848.924974 109.885138 
L 849.94079 106.147504 
L 850.956605 105.19234 
L 851.97242 106.864506 
L 852.988235 111.084334 
L 854.004051 113.666658 
L 855.019866 114.912536 
L 856.035681 115.836393 
L 857.051496 117.416033 
L 858.067311 120.268107 
L 859.083127 124.424481 
L 860.098942 127.576214 
L 861.114757 129.891026 
L 862.130572 131.376184 
L 864.162203 132.907744 
L 865.178018 134.266833 
L 866.193833 136.549499 
L 868.225464 142.896572 
L 869.241279 144.383966 
L 870.257094 144.57321 
L 871.272909 144.524012 
L 872.288725 145.253593 
L 873.30454 146.910664 
L 877.367801 154.967081 
L 879.399431 160.313426 
L 883.462692 171.981967 
L 884.478507 174.00858 
L 885.494322 174.664924 
L 886.510138 174.955638 
L 887.525953 176.237575 
L 889.557583 181.218013 
L 890.573399 182.477867 
L 891.589214 182.608409 
L 892.605029 182.570672 
L 894.636659 183.228413 
L 895.652475 183.020441 
L 896.66829 182.605614 
L 897.684105 182.836508 
L 898.69992 184.412514 
L 899.715736 186.703845 
L 900.731551 187.148861 
L 901.747366 185.998863 
L 902.763181 184.064496 
L 903.778996 182.526226 
L 904.794812 182.243898 
L 905.810627 183.39166 
L 906.826442 185.823876 
L 907.842257 187.759361 
L 909.873888 190.268728 
L 910.889703 192.707093 
L 911.905518 194.105596 
L 912.921333 194.505048 
L 913.937149 194.274154 
L 914.952964 193.348062 
L 916.984594 190.447908 
L 918.00041 190.074452 
L 920.03204 191.492523 
L 921.047855 191.508177 
L 922.06367 190.479775 
L 923.079486 188.282647 
L 924.095301 184.623562 
L 925.111116 179.880727 
L 926.126931 176.174401 
L 927.142747 176.870438 
L 928.158562 175.331889 
L 929.174377 167.667377 
L 931.206008 147.494888 
L 932.221823 140.558839 
L 933.237638 136.761944 
L 934.253453 135.886726 
L 935.269268 137.738072 
L 936.285084 141.136074 
L 937.300899 142.735002 
L 938.316714 143.551238 
L 939.332529 144.523174 
L 940.348345 146.282274 
L 941.36416 149.046854 
L 942.379975 152.601115 
L 944.411605 158.291006 
L 945.427421 160.567801 
L 948.474866 165.940703 
L 949.490682 168.379347 
L 951.522312 174.072593 
L 952.538127 176.170767 
L 953.553942 177.468638 
L 955.585573 179.169037 
L 956.601388 180.314003 
L 957.617203 181.667501 
L 958.633019 183.211921 
L 959.648834 185.044538 
L 961.680464 188.994058 
L 962.696279 190.357899 
L 963.712095 191.413974 
L 964.72791 192.76887 
L 965.743725 194.666059 
L 968.791171 201.387148 
L 969.806986 202.797671 
L 970.822801 203.750598 
L 971.838616 204.915971 
L 972.854432 206.410353 
L 973.870247 207.544698 
L 974.886062 207.657909 
L 975.901877 207.103595 
L 976.917693 206.989825 
L 977.933508 207.892437 
L 978.949323 209.245096 
L 979.965138 210.097112 
L 980.980953 210.298376 
L 981.996769 210.626268 
L 983.012584 211.963274 
L 984.028399 213.755918 
L 985.044214 214.740153 
L 986.06003 215.324936 
L 987.075845 215.56813 
L 988.09166 215.545488 
L 989.107475 215.637733 
L 990.12329 216.436079 
L 991.139106 218.213908 
L 995.202367 224.466779 
L 996.218182 225.536272 
L 996.218182 225.536272 
" style="fill:none;stroke:#4c72b0;stroke-linecap:round;stroke-width:1.4;"/>
   </g>
   <g id="line2d_30">
    <path clip-path="url(#p4491529140)" d="M 184.581818 307.8 
L 996.218182 307.744093 
L 996.218182 307.744093 
" style="fill:none;stroke:#55a868;stroke-linecap:round;stroke-width:1.4;"/>
   </g>
   <g id="patch_3">
    <path d="M 144 320.4 
L 144 43.2 
" style="fill:none;"/>
   </g>
   <g id="patch_4">
    <path d="M 1036.8 320.4 
L 1036.8 43.2 
" style="fill:none;"/>
   </g>
   <g id="patch_5">
    <path d="M 144 320.4 
L 1036.8 320.4 
" style="fill:none;"/>
   </g>
   <g id="patch_6">
    <path d="M 144 43.2 
L 1036.8 43.2 
" style="fill:none;"/>
   </g>
  </g>
 </g>
 <defs>
  <clipPath id="p4491529140">
   <rect height="277.2" width="892.8" x="144" y="43.2"/>
  </clipPath>
 </defs>
</svg>
