<?xml version="1.0" encoding="utf-8" standalone="no"?>
<!DOCTYPE svg PUBLIC "-//W3C//DTD SVG 1.1//EN"
  "http://www.w3.org/Graphics/SVG/1.1/DTD/svg11.dtd">
<!-- Created with matplotlib (http://matplotlib.org/) -->
<svg height="360pt" version="1.1" viewBox="0 0 1152 360" width="1152pt" xmlns="http://www.w3.org/2000/svg" xmlns:xlink="http://www.w3.org/1999/xlink">
 <defs>
  <style type="text/css">
*{stroke-linecap:butt;stroke-linejoin:round;}
  </style>
 </defs>
 <g id="figure_1">
  <g id="patch_1">
   <path d="M 0 360 
L 1152 360 
L 1152 0 
L 0 0 
z
" style="fill:#ffffff;"/>
  </g>
  <g id="axes_1">
   <g id="patch_2">
    <path d="M 144 320.4 
L 1036.8 320.4 
L 1036.8 43.2 
L 144 43.2 
z
" style="fill:#eaeaf2;"/>
   </g>
   <g id="matplotlib.axis_1">
    <g id="xtick_1">
     <g id="line2d_1">
      <path clip-path="url(#p0aceccec1e)" d="M 184.581818 320.4 
L 184.581818 43.2 
" style="fill:none;stroke:#ffffff;stroke-linecap:round;stroke-width:0.8;"/>
     </g>
     <g id="line2d_2"/>
     <g id="text_1">
      <!-- 0.000 -->
      <defs>
       <path d="M 51.703125 34.421875 
Q 51.703125 24.515625 49.828125 17.75 
Q 47.953125 10.984375 44.703125 6.8125 
Q 41.453125 2.640625 37.0625 0.828125 
Q 32.671875 -0.984375 27.6875 -0.984375 
Q 22.65625 -0.984375 18.3125 0.828125 
Q 13.96875 2.640625 10.765625 6.78125 
Q 7.5625 10.9375 5.734375 17.703125 
Q 3.90625 24.46875 3.90625 34.421875 
Q 3.90625 44.828125 5.734375 51.640625 
Q 7.5625 58.453125 10.78125 62.5 
Q 14.015625 66.546875 18.40625 68.1875 
Q 22.796875 69.828125 27.984375 69.828125 
Q 32.90625 69.828125 37.21875 68.1875 
Q 41.546875 66.546875 44.765625 62.5 
Q 48 58.453125 49.84375 51.640625 
Q 51.703125 44.828125 51.703125 34.421875 
M 42.78125 34.421875 
Q 42.78125 42.625 41.796875 48.0625 
Q 40.828125 53.515625 38.921875 56.765625 
Q 37.015625 60.015625 34.25 61.359375 
Q 31.5 62.703125 27.984375 62.703125 
Q 24.265625 62.703125 21.4375 61.328125 
Q 18.609375 59.96875 16.671875 56.71875 
Q 14.75 53.46875 13.765625 48.015625 
Q 12.796875 42.578125 12.796875 34.421875 
Q 12.796875 26.515625 13.796875 21.09375 
Q 14.796875 15.671875 16.71875 12.375 
Q 18.65625 9.078125 21.4375 7.640625 
Q 24.21875 6.203125 27.78125 6.203125 
Q 31.25 6.203125 34.03125 7.640625 
Q 36.8125 9.078125 38.734375 12.375 
Q 40.671875 15.671875 41.71875 21.09375 
Q 42.78125 26.515625 42.78125 34.421875 
" id="LiberationSans-30"/>
       <path d="M 9.125 0 
L 9.125 10.6875 
L 18.65625 10.6875 
L 18.65625 0 
z
" id="LiberationSans-2e"/>
      </defs>
      <g style="fill:#262626;" transform="translate(174.573068 331.7975)scale(0.08 -0.08)">
       <use xlink:href="#LiberationSans-30"/>
       <use x="55.615234" xlink:href="#LiberationSans-2e"/>
       <use x="83.398438" xlink:href="#LiberationSans-30"/>
       <use x="139.013672" xlink:href="#LiberationSans-30"/>
       <use x="194.628906" xlink:href="#LiberationSans-30"/>
      </g>
     </g>
    </g>
    <g id="xtick_2">
     <g id="line2d_3">
      <path clip-path="url(#p0aceccec1e)" d="M 311.238448 320.4 
L 311.238448 43.2 
" style="fill:none;stroke:#ffffff;stroke-linecap:round;stroke-width:0.8;"/>
     </g>
     <g id="line2d_4"/>
     <g id="text_2">
      <!-- 0.005 -->
      <defs>
       <path d="M 51.421875 22.40625 
Q 51.421875 17.234375 49.859375 12.9375 
Q 48.296875 8.640625 45.21875 5.53125 
Q 42.140625 2.4375 37.578125 0.71875 
Q 33.015625 -0.984375 27 -0.984375 
Q 21.578125 -0.984375 17.546875 0.28125 
Q 13.53125 1.5625 10.734375 3.78125 
Q 7.953125 6 6.3125 8.984375 
Q 4.6875 11.96875 4 15.375 
L 12.890625 16.40625 
Q 13.421875 14.453125 14.390625 12.625 
Q 15.375 10.796875 17.0625 9.34375 
Q 18.75 7.90625 21.21875 7.046875 
Q 23.6875 6.203125 27.203125 6.203125 
Q 30.609375 6.203125 33.390625 7.25 
Q 36.1875 8.296875 38.15625 10.34375 
Q 40.140625 12.40625 41.203125 15.375 
Q 42.28125 18.359375 42.28125 22.21875 
Q 42.28125 25.390625 41.25 28.046875 
Q 40.234375 30.71875 38.328125 32.640625 
Q 36.421875 34.578125 33.65625 35.640625 
Q 30.90625 36.71875 27.390625 36.71875 
Q 25.203125 36.71875 23.34375 36.328125 
Q 21.484375 35.9375 19.890625 35.25 
Q 18.3125 34.578125 17.015625 33.671875 
Q 15.71875 32.765625 14.59375 31.78125 
L 6 31.78125 
L 8.296875 68.796875 
L 47.40625 68.796875 
L 47.40625 61.328125 
L 16.3125 61.328125 
L 14.984375 39.5 
Q 17.328125 41.3125 20.84375 42.59375 
Q 24.359375 43.890625 29.203125 43.890625 
Q 34.328125 43.890625 38.421875 42.328125 
Q 42.53125 40.765625 45.40625 37.90625 
Q 48.296875 35.0625 49.859375 31.109375 
Q 51.421875 27.15625 51.421875 22.40625 
" id="LiberationSans-35"/>
      </defs>
      <g style="fill:#262626;" transform="translate(301.229698 331.7975)scale(0.08 -0.08)">
       <use xlink:href="#LiberationSans-30"/>
       <use x="55.615234" xlink:href="#LiberationSans-2e"/>
       <use x="83.398438" xlink:href="#LiberationSans-30"/>
       <use x="139.013672" xlink:href="#LiberationSans-30"/>
       <use x="194.628906" xlink:href="#LiberationSans-35"/>
      </g>
     </g>
    </g>
    <g id="xtick_3">
     <g id="line2d_5">
      <path clip-path="url(#p0aceccec1e)" d="M 437.895078 320.4 
L 437.895078 43.2 
" style="fill:none;stroke:#ffffff;stroke-linecap:round;stroke-width:0.8;"/>
     </g>
     <g id="line2d_6"/>
     <g id="text_3">
      <!-- 0.010 -->
      <defs>
       <path d="M 7.625 0 
L 7.625 7.46875 
L 25.140625 7.46875 
L 25.140625 60.40625 
L 9.625 49.3125 
L 9.625 57.625 
L 25.875 68.796875 
L 33.984375 68.796875 
L 33.984375 7.46875 
L 50.734375 7.46875 
L 50.734375 0 
z
" id="LiberationSans-31"/>
      </defs>
      <g style="fill:#262626;" transform="translate(427.886328 331.7975)scale(0.08 -0.08)">
       <use xlink:href="#LiberationSans-30"/>
       <use x="55.615234" xlink:href="#LiberationSans-2e"/>
       <use x="83.398438" xlink:href="#LiberationSans-30"/>
       <use x="139.013672" xlink:href="#LiberationSans-31"/>
       <use x="194.628906" xlink:href="#LiberationSans-30"/>
      </g>
     </g>
    </g>
    <g id="xtick_4">
     <g id="line2d_7">
      <path clip-path="url(#p0aceccec1e)" d="M 564.551708 320.4 
L 564.551708 43.2 
" style="fill:none;stroke:#ffffff;stroke-linecap:round;stroke-width:0.8;"/>
     </g>
     <g id="line2d_8"/>
     <g id="text_4">
      <!-- 0.015 -->
      <g style="fill:#262626;" transform="translate(554.542958 331.7975)scale(0.08 -0.08)">
       <use xlink:href="#LiberationSans-30"/>
       <use x="55.615234" xlink:href="#LiberationSans-2e"/>
       <use x="83.398438" xlink:href="#LiberationSans-30"/>
       <use x="139.013672" xlink:href="#LiberationSans-31"/>
       <use x="194.628906" xlink:href="#LiberationSans-35"/>
      </g>
     </g>
    </g>
    <g id="xtick_5">
     <g id="line2d_9">
      <path clip-path="url(#p0aceccec1e)" d="M 691.208338 320.4 
L 691.208338 43.2 
" style="fill:none;stroke:#ffffff;stroke-linecap:round;stroke-width:0.8;"/>
     </g>
     <g id="line2d_10"/>
     <g id="text_5">
      <!-- 0.020 -->
      <defs>
       <path d="M 5.03125 0 
L 5.03125 6.203125 
Q 7.515625 11.921875 11.109375 16.28125 
Q 14.703125 20.65625 18.65625 24.1875 
Q 22.609375 27.734375 26.484375 30.765625 
Q 30.375 33.796875 33.5 36.8125 
Q 36.625 39.84375 38.546875 43.15625 
Q 40.484375 46.484375 40.484375 50.6875 
Q 40.484375 53.609375 39.59375 55.828125 
Q 38.71875 58.0625 37.0625 59.5625 
Q 35.40625 61.078125 33.078125 61.828125 
Q 30.765625 62.59375 27.9375 62.59375 
Q 25.296875 62.59375 22.96875 61.859375 
Q 20.65625 61.140625 18.84375 59.671875 
Q 17.046875 58.203125 15.890625 56.03125 
Q 14.75 53.859375 14.40625 50.984375 
L 5.421875 51.8125 
Q 5.859375 55.515625 7.46875 58.78125 
Q 9.078125 62.0625 11.90625 64.53125 
Q 14.75 67 18.71875 68.40625 
Q 22.703125 69.828125 27.9375 69.828125 
Q 33.0625 69.828125 37.0625 68.609375 
Q 41.0625 67.390625 43.8125 64.984375 
Q 46.578125 62.59375 48.046875 59.078125 
Q 49.515625 55.5625 49.515625 50.984375 
Q 49.515625 47.515625 48.265625 44.390625 
Q 47.015625 41.265625 44.9375 38.421875 
Q 42.875 35.59375 40.140625 32.953125 
Q 37.40625 30.328125 34.421875 27.8125 
Q 31.453125 25.296875 28.421875 22.828125 
Q 25.390625 20.359375 22.71875 17.859375 
Q 20.0625 15.375 17.96875 12.8125 
Q 15.875 10.25 14.703125 7.46875 
L 50.59375 7.46875 
L 50.59375 0 
z
" id="LiberationSans-32"/>
      </defs>
      <g style="fill:#262626;" transform="translate(681.199588 331.7975)scale(0.08 -0.08)">
       <use xlink:href="#LiberationSans-30"/>
       <use x="55.615234" xlink:href="#LiberationSans-2e"/>
       <use x="83.398438" xlink:href="#LiberationSans-30"/>
       <use x="139.013672" xlink:href="#LiberationSans-32"/>
       <use x="194.628906" xlink:href="#LiberationSans-30"/>
      </g>
     </g>
    </g>
    <g id="xtick_6">
     <g id="line2d_11">
      <path clip-path="url(#p0aceccec1e)" d="M 817.864968 320.4 
L 817.864968 43.2 
" style="fill:none;stroke:#ffffff;stroke-linecap:round;stroke-width:0.8;"/>
     </g>
     <g id="line2d_12"/>
     <g id="text_6">
      <!-- 0.025 -->
      <g style="fill:#262626;" transform="translate(807.856218 331.7975)scale(0.08 -0.08)">
       <use xlink:href="#LiberationSans-30"/>
       <use x="55.615234" xlink:href="#LiberationSans-2e"/>
       <use x="83.398438" xlink:href="#LiberationSans-30"/>
       <use x="139.013672" xlink:href="#LiberationSans-32"/>
       <use x="194.628906" xlink:href="#LiberationSans-35"/>
      </g>
     </g>
    </g>
    <g id="xtick_7">
     <g id="line2d_13">
      <path clip-path="url(#p0aceccec1e)" d="M 944.521598 320.4 
L 944.521598 43.2 
" style="fill:none;stroke:#ffffff;stroke-linecap:round;stroke-width:0.8;"/>
     </g>
     <g id="line2d_14"/>
     <g id="text_7">
      <!-- 0.030 -->
      <defs>
       <path d="M 51.21875 19 
Q 51.21875 14.265625 49.671875 10.546875 
Q 48.140625 6.84375 45.1875 4.265625 
Q 42.234375 1.703125 37.859375 0.359375 
Q 33.5 -0.984375 27.875 -0.984375 
Q 21.484375 -0.984375 17.109375 0.609375 
Q 12.75 2.203125 9.90625 4.8125 
Q 7.078125 7.421875 5.65625 10.765625 
Q 4.25 14.109375 3.8125 17.671875 
L 12.890625 18.5 
Q 13.28125 15.765625 14.328125 13.515625 
Q 15.375 11.28125 17.1875 9.671875 
Q 19 8.0625 21.625 7.171875 
Q 24.265625 6.296875 27.875 6.296875 
Q 34.515625 6.296875 38.296875 9.5625 
Q 42.09375 12.84375 42.09375 19.28125 
Q 42.09375 23.09375 40.40625 25.40625 
Q 38.71875 27.734375 36.203125 29.03125 
Q 33.6875 30.328125 30.734375 30.765625 
Q 27.78125 31.203125 25.296875 31.203125 
L 20.3125 31.203125 
L 20.3125 38.8125 
L 25.09375 38.8125 
Q 27.59375 38.8125 30.265625 39.328125 
Q 32.953125 39.84375 35.171875 41.1875 
Q 37.40625 42.53125 38.84375 44.828125 
Q 40.28125 47.125 40.28125 50.6875 
Q 40.28125 56.203125 37.03125 59.390625 
Q 33.796875 62.59375 27.390625 62.59375 
Q 21.578125 62.59375 17.984375 59.609375 
Q 14.40625 56.640625 13.8125 51.21875 
L 4.984375 51.90625 
Q 5.515625 56.453125 7.46875 59.8125 
Q 9.421875 63.1875 12.421875 65.40625 
Q 15.4375 67.625 19.28125 68.71875 
Q 23.140625 69.828125 27.484375 69.828125 
Q 33.25 69.828125 37.390625 68.375 
Q 41.546875 66.9375 44.1875 64.46875 
Q 46.828125 62.015625 48.0625 58.6875 
Q 49.3125 55.375 49.3125 51.609375 
Q 49.3125 48.578125 48.484375 45.9375 
Q 47.65625 43.3125 45.890625 41.203125 
Q 44.140625 39.109375 41.421875 37.59375 
Q 38.71875 36.078125 34.90625 35.296875 
L 34.90625 35.109375 
Q 39.0625 34.671875 42.140625 33.21875 
Q 45.21875 31.78125 47.21875 29.625 
Q 49.21875 27.484375 50.21875 24.75 
Q 51.21875 22.015625 51.21875 19 
" id="LiberationSans-33"/>
      </defs>
      <g style="fill:#262626;" transform="translate(934.512848 331.7975)scale(0.08 -0.08)">
       <use xlink:href="#LiberationSans-30"/>
       <use x="55.615234" xlink:href="#LiberationSans-2e"/>
       <use x="83.398438" xlink:href="#LiberationSans-30"/>
       <use x="139.013672" xlink:href="#LiberationSans-33"/>
       <use x="194.628906" xlink:href="#LiberationSans-30"/>
      </g>
     </g>
    </g>
   </g>
   <g id="matplotlib.axis_2">
    <g id="ytick_1">
     <g id="line2d_15">
      <path clip-path="url(#p0aceccec1e)" d="M 144 302.022301 
L 1036.8 302.022301 
" style="fill:none;stroke:#ffffff;stroke-linecap:round;stroke-width:0.8;"/>
     </g>
     <g id="line2d_16"/>
     <g id="text_8">
      <!-- −10 -->
      <defs>
       <path d="M 4.9375 29.6875 
L 4.9375 36.8125 
L 53.515625 36.8125 
L 53.515625 29.6875 
z
" id="LiberationSans-2212"/>
      </defs>
      <g style="fill:#262626;" transform="translate(124.83 304.921051)scale(0.08 -0.08)">
       <use xlink:href="#LiberationSans-2212"/>
       <use x="58.398438" xlink:href="#LiberationSans-31"/>
       <use x="114.013672" xlink:href="#LiberationSans-30"/>
      </g>
     </g>
    </g>
    <g id="ytick_2">
     <g id="line2d_17">
      <path clip-path="url(#p0aceccec1e)" d="M 144 248.148528 
L 1036.8 248.148528 
" style="fill:none;stroke:#ffffff;stroke-linecap:round;stroke-width:0.8;"/>
     </g>
     <g id="line2d_18"/>
     <g id="text_9">
      <!-- −5 -->
      <g style="fill:#262626;" transform="translate(129.27875 251.047278)scale(0.08 -0.08)">
       <use xlink:href="#LiberationSans-2212"/>
       <use x="58.398438" xlink:href="#LiberationSans-35"/>
      </g>
     </g>
    </g>
    <g id="ytick_3">
     <g id="line2d_19">
      <path clip-path="url(#p0aceccec1e)" d="M 144 194.274755 
L 1036.8 194.274755 
" style="fill:none;stroke:#ffffff;stroke-linecap:round;stroke-width:0.8;"/>
     </g>
     <g id="line2d_20"/>
     <g id="text_10">
      <!-- 0 -->
      <g style="fill:#262626;" transform="translate(133.95125 197.173505)scale(0.08 -0.08)">
       <use xlink:href="#LiberationSans-30"/>
      </g>
     </g>
    </g>
    <g id="ytick_4">
     <g id="line2d_21">
      <path clip-path="url(#p0aceccec1e)" d="M 144 140.400982 
L 1036.8 140.400982 
" style="fill:none;stroke:#ffffff;stroke-linecap:round;stroke-width:0.8;"/>
     </g>
     <g id="line2d_22"/>
     <g id="text_11">
      <!-- 5 -->
      <g style="fill:#262626;" transform="translate(133.95125 143.299732)scale(0.08 -0.08)">
       <use xlink:href="#LiberationSans-35"/>
      </g>
     </g>
    </g>
    <g id="ytick_5">
     <g id="line2d_23">
      <path clip-path="url(#p0aceccec1e)" d="M 144 86.527209 
L 1036.8 86.527209 
" style="fill:none;stroke:#ffffff;stroke-linecap:round;stroke-width:0.8;"/>
     </g>
     <g id="line2d_24"/>
     <g id="text_12">
      <!-- 10 -->
      <g style="fill:#262626;" transform="translate(129.5025 89.425959)scale(0.08 -0.08)">
       <use xlink:href="#LiberationSans-31"/>
       <use x="55.615234" xlink:href="#LiberationSans-30"/>
      </g>
     </g>
    </g>
   </g>
   <g id="line2d_25">
    <path clip-path="url(#p0aceccec1e)" d="M 184.581818 220.970769 
L 185.730631 197.946253 
L 186.879444 175.8139 
L 187.453851 169.106114 
L 188.028257 166.774015 
L 188.602664 169.108648 
L 189.17707 175.656419 
L 190.325883 196.411508 
L 191.474696 215.988597 
L 192.049102 221.463013 
L 192.623509 222.969591 
L 193.197915 220.583502 
L 193.772322 215.096602 
L 194.921135 200.583661 
L 195.495541 194.934406 
L 196.069948 192.324697 
L 196.644354 193.60884 
L 197.218761 198.934873 
L 197.793167 207.712599 
L 199.516387 240.629408 
L 200.090793 248.142395 
L 200.6652 251.669073 
L 201.239606 250.719115 
L 201.814013 245.547981 
L 202.388419 237.108922 
L 204.111639 207.976448 
L 204.686045 202.332608 
L 205.260452 200.427353 
L 205.834858 202.290138 
L 206.409265 207.222876 
L 207.558078 220.725765 
L 208.132484 225.883325 
L 208.706891 227.896075 
L 209.281297 225.77226 
L 209.855704 219.209114 
L 210.43011 208.649944 
L 212.727736 154.183031 
L 213.302142 145.560411 
L 213.876549 141.01351 
L 214.450955 140.443123 
L 215.025362 143.036008 
L 216.174175 151.886413 
L 216.748581 154.750963 
L 217.322988 154.606032 
L 217.897394 150.602427 
L 218.471801 142.599749 
L 219.620614 117.626971 
L 220.769427 90.752339 
L 221.343833 80.843158 
L 221.91824 74.965136 
L 222.492646 73.598217 
L 223.067053 76.476834 
L 223.641459 82.639964 
L 225.364679 105.032811 
L 225.939085 108.481419 
L 226.513492 108.238732 
L 227.087898 104.29134 
L 227.662305 97.352477 
L 228.811118 80.117416 
L 229.385524 73.244487 
L 229.959931 69.615713 
L 230.534337 70.216957 
L 231.108743 75.342977 
L 231.68315 84.542392 
L 233.980776 134.280307 
L 234.555182 141.919018 
L 235.129589 145.58247 
L 235.703995 145.382794 
L 236.278402 142.144254 
L 237.427215 132.399657 
L 238.001621 129.285363 
L 238.576028 129.302504 
L 239.150434 133.287919 
L 239.724841 141.367646 
L 240.873654 166.725398 
L 242.022467 194.231472 
L 242.596873 204.541877 
L 243.17128 210.882464 
L 243.745686 212.77936 
L 244.320093 210.504098 
L 244.894499 205.021505 
L 246.043312 190.618248 
L 246.617719 185.107151 
L 247.192125 182.59655 
L 247.766532 183.805922 
L 248.340938 188.729443 
L 248.915345 196.635643 
L 250.064157 215.722436 
L 250.638564 223.463252 
L 251.21297 227.918559 
L 251.787377 228.105515 
L 252.361783 223.734495 
L 252.93619 215.262062 
L 254.085003 190.976734 
L 255.233816 168.157463 
L 255.808222 161.073171 
L 256.382629 157.895798 
L 256.957035 158.497562 
L 257.531442 162.040508 
L 258.680255 172.066602 
L 259.254661 175.15413 
L 259.829068 175.004857 
L 260.403474 170.791859 
L 260.977881 162.401053 
L 262.126694 136.216063 
L 263.275507 107.655548 
L 263.849913 96.734286 
L 264.42432 89.720119 
L 264.998726 87.07905 
L 265.573133 88.531924 
L 266.147539 93.108612 
L 267.296352 105.449649 
L 267.870759 109.817568 
L 268.445165 111.127321 
L 269.019572 108.676647 
L 269.593978 102.489867 
L 270.742791 82.498063 
L 271.891604 62.784645 
L 272.46601 57.146144 
L 273.040417 55.8 
L 273.614823 59.030943 
L 274.18923 66.377625 
L 275.338043 88.447555 
L 276.486856 109.1301 
L 277.061262 115.203697 
L 277.635669 117.430137 
L 278.210075 115.953997 
L 278.784482 111.628107 
L 279.933295 100.349659 
L 280.507701 96.799187 
L 281.082108 96.589863 
L 281.656514 100.540143 
L 282.230921 108.753658 
L 282.805327 120.595765 
L 284.528547 163.478016 
L 285.102953 174.554974 
L 285.67736 181.798826 
L 286.251766 184.752843 
L 286.826173 183.70512 
L 287.400579 179.632305 
L 288.549392 168.599454 
L 289.123798 165.024686 
L 289.698205 164.584932 
L 290.272611 167.966029 
L 290.847018 175.125882 
L 291.995831 197.126713 
L 293.144644 218.860156 
L 293.71905 225.502793 
L 294.293457 227.851995 
L 294.867863 225.627824 
L 295.44227 219.296148 
L 296.591083 199.286 
L 297.165489 188.968155 
L 297.739896 180.668063 
L 298.314302 175.598384 
L 298.888709 174.334364 
L 299.463115 176.713612 
L 300.037522 181.867338 
L 301.186335 194.531756 
L 301.760741 198.631405 
L 302.335148 199.296726 
L 302.909554 195.716292 
L 303.483961 187.795412 
L 304.058367 176.177469 
L 306.355993 122.502572 
L 306.9304 115.15924 
L 307.504806 112.019219 
L 308.079213 112.783964 
L 308.653619 116.46886 
L 309.802432 126.401397 
L 310.376838 129.272405 
L 310.951245 128.920278 
L 311.525651 124.674488 
L 312.100058 116.593851 
L 313.248871 92.644371 
L 314.397684 68.886751 
L 314.97209 61.212022 
L 315.546497 57.813929 
L 316.120903 58.967337 
L 316.69531 64.201741 
L 317.844123 81.933052 
L 318.418529 91.077899 
L 318.992936 98.196511 
L 319.567342 102.091929 
L 320.141749 102.207051 
L 320.716155 98.722793 
L 321.290562 92.524689 
L 322.439375 78.000843 
L 323.013781 73.097097 
L 323.588188 71.710224 
L 324.162594 74.645871 
L 324.737001 81.991146 
L 325.311407 93.095374 
L 327.609033 145.293361 
L 328.183439 152.437591 
L 328.757846 155.468122 
L 329.332252 154.695533 
L 329.906659 151.113934 
L 331.055472 141.736977 
L 331.629878 139.31246 
L 332.204285 140.211099 
L 332.778691 145.089444 
L 333.353098 153.873257 
L 334.501911 179.384715 
L 335.650724 204.852129 
L 336.22513 213.43134 
L 336.799537 217.771511 
L 337.373943 217.60347 
L 337.94835 213.402834 
L 339.097163 197.890172 
L 339.671569 189.921859 
L 340.245976 184.010622 
L 340.820382 181.337537 
L 341.394789 182.441284 
L 341.969195 187.122059 
L 343.118008 203.061688 
L 343.692415 211.146511 
L 344.266821 217.026474 
L 344.841228 219.325262 
L 345.415634 217.242004 
L 345.990041 210.696047 
L 346.564447 200.344112 
L 348.862073 150.697689 
L 349.436479 144.043706 
L 350.010886 141.419667 
L 350.585292 142.501393 
L 351.159699 146.283731 
L 352.308512 155.715308 
L 352.882918 157.996483 
L 353.457325 156.851186 
L 354.031731 151.635355 
L 354.606138 142.437175 
L 355.754951 115.916788 
L 356.903764 89.250687 
L 357.47817 80.003661 
L 358.052577 74.944021 
L 358.626983 74.334296 
L 359.20139 77.692957 
L 359.775796 83.883672 
L 360.924609 98.253317 
L 361.499016 103.080411 
L 362.073422 104.636524 
L 362.647829 102.40131 
L 363.222235 96.593465 
L 364.371048 78.478616 
L 364.945455 69.368597 
L 365.519861 62.512062 
L 366.094268 59.284642 
L 366.668674 60.483132 
L 367.24308 66.182573 
L 367.817487 75.721181 
L 370.115113 122.457221 
L 370.689519 128.509243 
L 371.263926 130.609119 
L 371.838332 129.09609 
L 372.412739 124.987834 
L 373.561552 115.248199 
L 374.135958 112.985125 
L 374.710365 114.254867 
L 375.284771 119.690558 
L 375.859178 129.191643 
L 377.007991 156.522855 
L 378.156804 184.232958 
L 378.73121 194.090411 
L 379.305617 199.827233 
L 379.880023 201.18874 
L 380.45443 198.663465 
L 381.028836 193.391889 
L 382.177649 181.111369 
L 382.752056 177.437881 
L 383.326462 177.089292 
L 383.900869 180.56806 
L 384.475275 187.636946 
L 386.772901 226.653764 
L 387.347307 231.054961 
L 387.921714 231.008085 
L 388.49612 226.443184 
L 389.070527 218.026434 
L 391.368153 175.621918 
L 391.942559 170.568477 
L 392.516966 169.403495 
L 393.091372 171.771366 
L 393.665779 176.640555 
L 394.814592 187.587182 
L 395.388998 190.293207 
L 395.963405 189.365798 
L 396.537811 184.1812 
L 397.112218 174.850733 
L 398.261031 147.656882 
L 399.409844 119.841471 
L 399.98425 109.835346 
L 400.558657 103.876 
L 401.133063 102.208851 
L 401.70747 104.337038 
L 402.281876 109.114713 
L 403.430689 120.119012 
L 404.005096 123.024598 
L 404.579502 122.536363 
L 405.153909 118.16896 
L 405.728315 110.177462 
L 408.025941 67.403172 
L 408.600347 62.077 
L 409.174754 61.202575 
L 409.74916 64.844916 
L 410.323567 72.333778 
L 412.621193 111.013903 
L 413.195599 115.182229 
L 413.770006 115.512318 
L 414.344412 112.377191 
L 416.067632 94.79313 
L 416.642038 91.693815 
L 417.216445 92.322341 
L 417.790851 97.294553 
L 418.365258 106.489895 
L 419.514071 133.614175 
L 420.662884 161.609503 
L 421.23729 171.808326 
L 421.811697 178.040861 
L 422.386103 180.072507 
L 422.96051 178.409927 
L 423.534916 174.205736 
L 424.683729 164.675241 
L 425.258135 162.65799 
L 425.832542 164.119429 
L 426.406948 169.528861 
L 426.981355 178.614382 
L 429.278981 226.029343 
L 429.853387 232.554117 
L 430.427794 234.645519 
L 431.0022 232.243656 
L 431.576607 226.02288 
L 433.874233 192.646277 
L 434.448639 189.810232 
L 435.023046 190.781919 
L 435.597452 195.17014 
L 437.320672 216.084873 
L 437.895078 220.129899 
L 438.469485 220.366563 
L 439.043891 216.185632 
L 439.618298 207.71549 
L 440.767111 181.868426 
L 441.915924 154.92679 
L 442.49033 145.157681 
L 443.064737 139.275912 
L 443.639143 137.503653 
L 444.21355 139.322871 
L 444.787956 143.572663 
L 445.936769 152.852224 
L 446.511175 154.582114 
L 447.085582 152.739665 
L 447.659988 146.870307 
L 448.234395 137.261503 
L 450.532021 87.351882 
L 451.106427 80.125708 
L 451.680834 77.297197 
L 452.25524 78.920562 
L 452.829647 84.316942 
L 454.552866 108.660983 
L 455.127273 113.978868 
L 455.701679 115.833722 
L 456.276086 113.893414 
L 456.850492 108.567738 
L 458.573712 85.16968 
L 459.148118 80.430557 
L 459.722525 79.566353 
L 460.296931 83.180753 
L 460.871338 91.138724 
L 462.020151 116.104738 
L 463.168964 142.358667 
L 463.74337 151.873575 
L 464.317776 157.577208 
L 464.892183 159.261398 
L 465.466589 157.457107 
L 467.189809 144.664538 
L 467.764215 143.409748 
L 468.338622 145.828711 
L 468.913028 152.36273 
L 469.487435 162.710235 
L 471.785061 216.110777 
L 472.359467 224.327409 
L 472.933874 228.200268 
L 473.50828 227.681692 
L 474.082687 223.45578 
L 475.805906 203.01352 
L 476.380313 199.100405 
L 476.954719 198.677995 
L 477.529126 202.059681 
L 478.103532 208.817001 
L 479.826752 236.307377 
L 480.401158 242.317796 
L 480.975565 244.406214 
L 481.549971 241.973721 
L 482.124378 235.161079 
L 482.698784 224.825665 
L 484.422003 188.197594 
L 484.99641 179.641041 
L 485.570816 174.829754 
L 486.145223 173.956419 
L 486.719629 176.475657 
L 488.442849 190.748572 
L 489.017255 192.271418 
L 489.591662 190.018584 
L 490.166068 183.560461 
L 490.740475 173.211148 
L 493.038101 119.199352 
L 493.612507 110.687768 
L 494.186914 106.453603 
L 494.76132 106.536806 
L 495.335727 110.247005 
L 497.058946 128.655248 
L 497.633353 131.75174 
L 498.207759 131.311746 
L 498.782166 127.040223 
L 499.356572 119.383991 
L 501.079792 89.285075 
L 501.654198 82.459856 
L 502.228605 79.585023 
L 502.803011 81.255148 
L 503.377417 87.32432 
L 503.951824 96.931295 
L 505.675043 131.478647 
L 506.24945 139.403799 
L 506.823856 143.638108 
L 507.398263 144.005647 
L 507.972669 141.067534 
L 509.695889 126.162239 
L 510.270295 124.645332 
L 510.844702 127.004193 
L 511.419108 133.658297 
L 511.993515 144.282624 
L 514.291141 200.044481 
L 514.865547 209.155245 
L 515.439954 214.065781 
L 516.01436 214.74522 
L 516.588767 211.891473 
L 518.311986 196.631387 
L 518.886393 194.756763 
L 519.460799 196.482736 
L 520.035206 202.08672 
L 520.609612 211.104176 
L 522.332831 245.321738 
L 522.907238 253.507297 
L 523.481644 257.735396 
L 524.056051 257.415714 
L 524.630457 252.699054 
L 525.204864 244.450127 
L 526.928083 213.989539 
L 527.50249 207.400892 
L 528.076896 204.465315 
L 528.651303 205.340931 
L 529.225709 209.449786 
L 530.948929 227.318187 
L 531.523335 229.626819 
L 532.097742 227.967653 
L 532.672148 221.929842 
L 533.246555 211.847755 
L 534.395368 184.163691 
L 535.544181 157.621565 
L 536.118587 148.728864 
L 536.692994 143.954261 
L 537.2674 143.31802 
L 537.841807 146.113233 
L 539.565026 160.558031 
L 540.139433 161.964028 
L 540.713839 159.691248 
L 541.288246 153.478868 
L 541.862652 143.808174 
L 543.585871 107.490943 
L 544.160278 98.580714 
L 544.734684 93.61551 
L 545.309091 93.181116 
L 545.883497 97.121705 
L 546.457904 104.569134 
L 548.181123 132.495749 
L 548.75553 138.228001 
L 549.329936 140.327204 
L 549.904343 138.653766 
L 550.478749 133.803279 
L 552.201969 114.170928 
L 552.776375 111.444385 
L 553.350782 112.766696 
L 553.925188 118.541416 
L 554.499595 128.426264 
L 555.648408 155.890702 
L 556.797221 182.445948 
L 557.371627 191.448318 
L 557.946034 196.416164 
L 558.52044 197.341418 
L 559.094847 194.941519 
L 560.818066 182.364352 
L 561.392472 181.796391 
L 561.966879 184.996911 
L 562.541285 192.211414 
L 563.115692 202.943088 
L 565.413318 252.788191 
L 565.987724 258.984121 
L 566.562131 260.685778 
L 567.136537 258.054482 
L 567.710944 251.962124 
L 569.434163 228.353268 
L 570.00857 224.112712 
L 570.582976 223.505104 
L 571.157383 226.65111 
L 571.731789 232.937008 
L 573.455009 256.522609 
L 574.029415 260.430228 
L 574.603822 260.223055 
L 575.178228 255.503694 
L 575.752635 246.621094 
L 576.901448 221.018993 
L 578.050261 196.126934 
L 578.624667 187.861716 
L 579.199074 183.551097 
L 579.77348 183.189358 
L 580.347887 186.046963 
L 581.496699 195.796044 
L 582.071106 199.30315 
L 582.645512 199.872806 
L 583.219919 196.577227 
L 583.794325 189.18477 
L 584.368732 178.206327 
L 586.666358 126.873478 
L 587.240764 120.191383 
L 587.815171 117.949762 
L 588.389577 119.980991 
L 588.963984 125.408757 
L 590.687203 146.654148 
L 591.26161 150.014453 
L 591.836016 149.721716 
L 592.410423 145.674225 
L 592.984829 138.503943 
L 594.708049 112.500491 
L 595.282455 107.885817 
L 595.856862 107.434028 
L 596.431268 111.537191 
L 597.005675 119.840661 
L 598.154488 144.383043 
L 599.303301 168.364913 
L 599.877707 176.254345 
L 600.452113 180.260956 
L 601.02652 180.405728 
L 601.600926 177.431786 
L 602.749739 167.786819 
L 603.324146 164.504545 
L 603.898552 164.268835 
L 604.472959 167.997493 
L 605.047365 175.909857 
L 605.621772 187.482516 
L 607.919398 241.778409 
L 608.493804 249.344061 
L 609.068211 252.537036 
L 609.642617 251.532355 
L 610.217024 247.211711 
L 611.940243 229.761442 
L 612.51465 227.795325 
L 613.089056 229.521466 
L 613.663463 235.022949 
L 614.237869 243.649801 
L 615.961089 273.906546 
L 616.535495 279.879398 
L 617.109902 281.660427 
L 617.684308 278.862372 
L 618.258715 271.844901 
L 619.407528 249.82645 
L 620.55634 228.279407 
L 621.130747 221.547813 
L 621.705153 218.638726 
L 622.27956 219.514575 
L 622.853966 223.41729 
L 624.002779 234.603761 
L 624.577186 238.491501 
L 625.151592 239.226565 
L 625.725999 235.899578 
L 626.300405 228.301916 
L 626.874812 216.967877 
L 629.172438 162.989677 
L 629.746844 155.339996 
L 630.321251 151.983947 
L 630.895657 152.737777 
L 631.470064 156.713182 
L 632.618877 168.324882 
L 633.193283 172.560352 
L 633.76769 173.828644 
L 634.342096 171.346968 
L 634.916503 165.050186 
L 635.490909 155.605681 
L 637.214129 122.889162 
L 637.788535 116.113958 
L 638.362942 113.53838 
L 638.937348 115.545037 
L 639.511754 121.769551 
L 640.660567 142.190156 
L 641.80938 162.153137 
L 642.383787 168.126189 
L 642.958193 170.320979 
L 643.5326 168.792734 
L 644.107006 164.315599 
L 645.255819 152.259499 
L 645.830226 148.08636 
L 646.404632 147.163242 
L 646.979039 150.392534 
L 647.553445 157.973671 
L 648.127852 169.363047 
L 650.425478 224.1902 
L 650.999884 232.221545 
L 651.574291 236.043882 
L 652.148697 235.85118 
L 652.723104 232.539757 
L 653.871917 222.575454 
L 654.446323 219.315534 
L 655.02073 219.110128 
L 655.595136 222.726744 
L 656.169543 230.213549 
L 657.318356 253.447816 
L 658.467169 277.401033 
L 659.041575 285.461751 
L 659.615981 289.334305 
L 660.190388 288.640938 
L 660.764794 283.750771 
L 661.339201 275.712829 
L 662.488014 256.577801 
L 663.06242 248.905057 
L 663.636827 244.324852 
L 664.211233 243.495506 
L 664.78564 246.343342 
L 665.360046 252.077279 
L 666.508859 266.409493 
L 667.083266 271.590007 
L 667.657672 273.434076 
L 668.232079 271.044996 
L 668.806485 264.231127 
L 669.380892 253.543897 
L 671.678518 200.933093 
L 672.252924 193.28698 
L 672.827331 189.762187 
L 673.401737 190.152949 
L 673.976144 193.553402 
L 675.124957 203.351957 
L 675.699363 206.362165 
L 676.27377 206.218745 
L 676.848176 202.168177 
L 677.422583 194.17801 
L 678.571395 169.787569 
L 679.720208 144.544486 
L 680.294615 135.796781 
L 680.869021 131.205531 
L 681.443428 131.143085 
L 682.017834 135.235168 
L 682.592241 142.429898 
L 683.741054 159.752428 
L 684.31546 166.473012 
L 684.889867 170.089529 
L 685.464273 169.961811 
L 686.03868 166.182427 
L 686.613086 159.559922 
L 687.761899 143.631205 
L 688.336306 137.756225 
L 688.910712 135.287388 
L 689.485119 137.116766 
L 690.059525 143.429376 
L 690.633932 153.667259 
L 692.931558 204.969698 
L 693.505964 212.439511 
L 694.080371 215.871635 
L 694.654777 215.48521 
L 695.229184 212.197191 
L 696.377997 202.970585 
L 696.952403 200.417803 
L 697.526809 201.122797 
L 698.101216 205.826546 
L 698.675622 214.547214 
L 699.824435 240.577438 
L 700.973248 267.6419 
L 701.547655 277.363317 
L 702.122061 282.975353 
L 702.696468 284.111941 
L 703.270874 281.153241 
L 703.845281 275.154582 
L 704.994094 260.404602 
L 705.5685 255.043891 
L 706.142907 252.81739 
L 706.717313 254.347115 
L 707.29172 259.521507 
L 708.440533 276.931193 
L 709.014939 286.056904 
L 709.589346 293.160975 
L 710.163752 296.805705 
L 710.738159 296.102881 
L 711.312565 290.873197 
L 711.886972 281.680097 
L 714.184598 234.180532 
L 714.759004 227.531903 
L 715.333411 224.84289 
L 715.907817 225.879477 
L 716.482224 229.7121 
L 717.631036 239.682406 
L 718.205443 242.43333 
L 718.779849 241.818777 
L 719.354256 237.108758 
L 719.928662 228.29783 
L 721.077475 201.882058 
L 722.226288 174.205306 
L 722.800695 164.094198 
L 723.375101 158.029972 
L 723.949508 156.371246 
L 724.523914 158.730936 
L 725.098321 164.049352 
L 726.247134 177.199781 
L 726.82154 181.656563 
L 727.395947 182.927975 
L 727.970353 180.40979 
L 728.54476 174.232274 
L 729.693573 154.839058 
L 730.267979 144.757038 
L 730.842386 136.728312 
L 731.416792 132.190648 
L 731.991199 132.028836 
L 732.565605 136.417057 
L 733.140012 144.78711 
L 735.437638 189.19271 
L 736.012044 195.158565 
L 736.58645 197.229875 
L 737.160857 195.656873 
L 737.735263 191.383097 
L 738.884076 180.850751 
L 739.458483 177.982795 
L 740.032889 178.583534 
L 740.607296 183.373528 
L 741.181702 192.347085 
L 742.330515 219.29565 
L 743.479328 247.746132 
L 744.053735 258.336932 
L 744.628141 264.951521 
L 745.202548 267.240111 
L 745.776954 265.597987 
L 746.351361 261.090362 
L 747.500174 249.840704 
L 748.07458 246.460346 
L 748.648987 246.332174 
L 749.223393 250.043329 
L 749.7978 257.445453 
L 750.946613 279.31813 
L 752.095426 299.878754 
L 752.669832 305.621595 
L 753.244239 306.97875 
L 753.818645 303.780921 
L 754.393052 296.60066 
L 756.690677 256.921229 
L 757.265084 252.083238 
L 757.83949 251.087523 
L 758.413897 253.666512 
L 758.988303 258.861516 
L 760.137116 270.942594 
L 760.711523 274.431561 
L 761.285929 274.35383 
L 761.860336 269.996786 
L 762.434742 261.375692 
L 763.583555 234.924525 
L 764.732368 206.719371 
L 765.306775 196.150063 
L 765.881181 189.478577 
L 766.455588 187.044335 
L 767.029994 188.442393 
L 767.604401 192.600634 
L 768.753214 202.830982 
L 769.32762 205.552617 
L 769.902027 204.938442 
L 770.476433 200.417397 
L 771.05084 192.154989 
L 772.199653 168.471825 
L 773.348466 146.046012 
L 773.922872 139.357397 
L 774.497279 137.041917 
L 775.071685 139.263857 
L 775.646091 145.446346 
L 777.943717 180.948735 
L 778.518124 184.743963 
L 779.09253 184.729687 
L 779.666937 181.191652 
L 780.81575 167.95695 
L 781.390156 161.483843 
L 781.964563 157.355945 
L 782.538969 156.879401 
L 783.113376 160.760216 
L 783.687782 168.974986 
L 784.836595 194.795407 
L 785.985408 222.598503 
L 786.559815 233.063328 
L 787.134221 239.707833 
L 787.708628 242.204566 
L 788.283034 240.969686 
L 788.857441 237.083708 
L 790.006254 227.735449 
L 790.58066 225.61516 
L 791.155067 226.923534 
L 791.729473 232.216804 
L 792.30388 241.313522 
L 793.452693 266.794841 
L 794.601506 291.133128 
L 795.175912 298.815663 
L 795.750318 302.154842 
L 796.324725 300.991865 
L 796.899131 295.908246 
L 799.196757 265.16885 
L 799.771164 262.607463 
L 800.34557 263.839948 
L 800.919977 268.561887 
L 803.217603 296.520819 
L 803.792009 297.848888 
L 804.366416 294.753133 
L 804.940822 287.263868 
L 805.515229 276.140082 
L 807.238448 236.025142 
L 807.812855 226.013943 
L 808.387261 219.746831 
L 808.961668 217.537686 
L 809.536074 218.957559 
L 810.110481 222.915989 
L 811.259294 232.055163 
L 811.8337 233.899427 
L 812.408107 232.212775 
L 812.982513 226.452362 
L 813.55692 216.814159 
L 814.705732 190.078065 
L 815.854545 164.305741 
L 816.428952 155.841256 
L 817.003358 151.670876 
L 817.577765 151.947099 
L 818.152171 156.083102 
L 820.449797 182.446513 
L 821.024204 183.815286 
L 821.59861 181.383573 
L 822.173017 175.474616 
L 824.470643 143.165418 
L 825.045049 140.877987 
L 825.619456 143.061887 
L 826.193862 149.680865 
L 826.768269 159.970807 
L 828.491488 197.799515 
L 829.065895 207.140976 
L 829.640301 212.804582 
L 830.214708 214.491525 
L 830.789114 212.64506 
L 831.363521 208.367108 
L 832.512334 198.932511 
L 833.08674 197.109875 
L 833.661146 198.92102 
L 834.235553 204.896951 
L 834.809959 214.828724 
L 835.958772 242.341059 
L 837.107585 269.101879 
L 837.681992 278.141395 
L 838.256398 282.948295 
L 838.830805 283.377484 
L 839.405211 280.022068 
L 841.128431 261.21058 
L 841.702837 257.524703 
L 842.277244 257.26336 
L 842.85165 260.82679 
L 843.426057 267.873141 
L 845.723683 304.513806 
L 846.298089 307.8 
L 846.872496 306.584194 
L 847.446902 300.907914 
L 848.021309 291.539595 
L 849.744528 256.342673 
L 850.318935 247.809698 
L 850.893341 242.898024 
L 851.467748 241.890044 
L 852.042154 244.326835 
L 853.765373 259.173238 
L 854.33978 261.151598 
L 854.914186 259.392981 
L 855.488593 253.376656 
L 856.062999 243.322931 
L 857.211812 215.36056 
L 858.360625 187.903948 
L 858.935032 178.419288 
L 859.509438 173.092841 
L 860.083845 172.060963 
L 860.658251 174.723037 
L 862.381471 190.891541 
L 862.955877 193.527802 
L 863.530284 192.676867 
L 864.10469 187.956165 
L 864.679097 179.725593 
L 866.976723 138.345426 
L 867.551129 133.902303 
L 868.125536 133.969485 
L 868.699942 138.500487 
L 869.274349 146.723029 
L 870.997568 178.493108 
L 871.571975 185.914585 
L 872.146381 189.753983 
L 872.720787 189.746426 
L 873.295194 186.367669 
L 875.018413 169.254422 
L 875.59282 166.721059 
L 876.167226 168.01942 
L 876.741633 173.661483 
L 877.316039 183.417154 
L 878.464852 210.980066 
L 879.613665 238.281486 
L 880.188072 247.789376 
L 880.762478 253.217965 
L 881.336885 254.441138 
L 881.911291 252.068444 
L 883.634511 237.38856 
L 884.208917 235.440206 
L 884.783324 237.055025 
L 885.35773 242.598879 
L 885.932137 251.694727 
L 888.229763 296.705282 
L 888.804169 302.072496 
L 889.378576 302.939513 
L 889.952982 299.357822 
L 890.527389 292.10344 
L 892.250608 263.334117 
L 892.825014 256.915957 
L 893.399421 254.056444 
L 893.973827 255.002134 
L 894.548234 259.259565 
L 896.271453 278.524561 
L 896.84586 281.595808 
L 897.420266 280.749145 
L 897.994673 275.479969 
L 898.569079 266.026694 
L 899.717892 238.882827 
L 900.866705 211.759823 
L 901.441112 202.237525 
L 902.015518 196.711575 
L 902.589925 195.296258 
L 903.164331 197.371564 
L 904.887551 210.481424 
L 905.461957 211.69108 
L 906.036364 209.247615 
L 906.61077 202.800656 
L 907.185177 192.74322 
L 909.482803 143.532464 
L 910.057209 137.048166 
L 910.631616 135.032425 
L 911.206022 137.428346 
L 911.780428 143.455934 
L 913.503648 168.315292 
L 914.078054 173.383207 
L 914.652461 174.894537 
L 915.226867 172.621527 
L 915.801274 167.075912 
L 917.524493 144.315624 
L 918.0989 140.223109 
L 918.673306 140.118597 
L 919.247713 144.500487 
L 919.822119 153.123338 
L 920.970932 178.756882 
L 922.119745 204.573427 
L 922.694152 213.536317 
L 923.268558 218.581436 
L 923.842965 219.60793 
L 924.417371 217.247845 
L 926.140591 203.969561 
L 926.714997 202.926758 
L 927.289404 205.633263 
L 927.86381 212.425386 
L 928.438217 222.895526 
L 930.735843 274.227827 
L 931.310249 281.344644 
L 931.884655 284.040552 
L 932.459062 282.378597 
L 933.033468 277.143354 
L 934.756688 254.998617 
L 935.331094 250.919166 
L 935.905501 250.412624 
L 936.479907 253.687836 
L 937.054314 260.214593 
L 938.777533 285.654005 
L 939.35194 290.52901 
L 939.926346 291.361399 
L 940.500753 287.658074 
L 941.075159 279.670475 
L 942.223972 255.192818 
L 943.372785 230.36728 
L 943.947192 221.817101 
L 944.521598 217.111469 
L 945.096005 216.336298 
L 945.670411 218.845989 
L 947.393631 231.885999 
L 947.968037 232.620945 
L 948.542444 229.505136 
L 949.11685 222.214793 
L 949.691257 211.17056 
L 951.988882 156.957927 
L 952.563289 148.983592 
L 953.137695 145.365916 
L 953.712102 146.034664 
L 954.286508 150.199778 
L 956.009728 168.678152 
L 956.584134 171.410641 
L 957.158541 170.532635 
L 957.732947 165.853959 
L 958.307354 157.923145 
L 960.030573 128.405943 
L 960.60498 122.239497 
L 961.179386 120.149536 
L 961.753793 122.624447 
L 962.328199 129.407532 
L 963.477012 151.53619 
L 964.625825 174.112098 
L 965.200232 181.59876 
L 965.774638 185.301527 
L 966.349045 185.150801 
L 966.923451 181.807133 
L 968.646671 166.907861 
L 969.221077 165.771727 
L 969.795483 168.585417 
L 970.36989 175.661769 
L 970.944296 186.568713 
L 973.241922 240.856962 
L 973.816329 249.005708 
L 974.390735 252.872191 
L 974.965142 252.53513 
L 975.539548 248.791247 
L 977.262768 232.118446 
L 977.837174 230.144174 
L 978.411581 231.834956 
L 978.985987 237.3629 
L 979.560394 246.16167 
L 981.283613 278.260678 
L 981.85802 285.258014 
L 982.432426 288.164045 
L 983.006833 286.494868 
L 983.581239 280.512052 
L 984.155646 271.176233 
L 985.878865 238.960643 
L 986.453272 232.214734 
L 987.027678 229.205476 
L 987.602085 229.985017 
L 988.176491 233.87667 
L 989.325304 245.493876 
L 989.89971 249.831144 
L 990.474117 251.113937 
L 991.048523 248.352186 
L 991.62293 241.242457 
L 992.197336 230.226652 
L 994.494962 174.857369 
L 995.069369 166.269418 
L 995.643775 161.880795 
L 996.218182 161.602843 
L 996.218182 161.602843 
" style="fill:none;stroke:#4c72b0;stroke-linecap:round;stroke-width:1.4;"/>
   </g>
   <g id="line2d_26">
    <path clip-path="url(#p0aceccec1e)" d="M 184.581818 194.339404 
L 996.218182 194.339404 
L 996.218182 194.339404 
" style="fill:none;stroke:#55a868;stroke-linecap:round;stroke-width:1.4;"/>
   </g>
   <g id="patch_3">
    <path d="M 144 320.4 
L 144 43.2 
" style="fill:none;"/>
   </g>
   <g id="patch_4">
    <path d="M 1036.8 320.4 
L 1036.8 43.2 
" style="fill:none;"/>
   </g>
   <g id="patch_5">
    <path d="M 144 320.4 
L 1036.8 320.4 
" style="fill:none;"/>
   </g>
   <g id="patch_6">
    <path d="M 144 43.2 
L 1036.8 43.2 
" style="fill:none;"/>
   </g>
   <g id="legend_1">
    <g id="line2d_27">
     <path d="M 1002.75125 53.3975 
L 1018.75125 53.3975 
" style="fill:none;stroke:#4c72b0;stroke-linecap:round;stroke-width:1.4;"/>
    </g>
    <g id="line2d_28"/>
    <g id="text_13">
     <!-- a -->
     <defs>
      <path d="M 20.21875 -0.984375 
Q 12.25 -0.984375 8.25 3.21875 
Q 4.25 7.421875 4.25 14.75 
Q 4.25 19.96875 6.21875 23.3125 
Q 8.203125 26.65625 11.390625 28.5625 
Q 14.59375 30.46875 18.6875 31.203125 
Q 22.796875 31.9375 27.046875 32.03125 
L 38.921875 32.234375 
L 38.921875 35.109375 
Q 38.921875 38.375 38.234375 40.671875 
Q 37.546875 42.96875 36.125 44.375 
Q 34.71875 45.796875 32.59375 46.453125 
Q 30.46875 47.125 27.59375 47.125 
Q 25.046875 47.125 23 46.75 
Q 20.953125 46.390625 19.4375 45.4375 
Q 17.921875 44.484375 16.984375 42.84375 
Q 16.0625 41.21875 15.765625 38.71875 
L 6.59375 39.546875 
Q 7.078125 42.671875 8.4375 45.28125 
Q 9.8125 47.90625 12.328125 49.796875 
Q 14.84375 51.703125 18.625 52.75 
Q 22.40625 53.8125 27.78125 53.8125 
Q 37.75 53.8125 42.765625 49.234375 
Q 47.796875 44.671875 47.796875 36.03125 
L 47.796875 13.28125 
Q 47.796875 9.375 48.828125 7.390625 
Q 49.859375 5.421875 52.734375 5.421875 
Q 53.46875 5.421875 54.203125 5.515625 
Q 54.9375 5.609375 55.609375 5.765625 
L 55.609375 0.296875 
Q 53.953125 -0.09375 52.3125 -0.28125 
Q 50.6875 -0.484375 48.828125 -0.484375 
Q 46.34375 -0.484375 44.5625 0.171875 
Q 42.78125 0.828125 41.65625 2.171875 
Q 40.53125 3.515625 39.9375 5.484375 
Q 39.359375 7.46875 39.203125 10.109375 
L 38.921875 10.109375 
Q 37.5 7.5625 35.8125 5.515625 
Q 34.125 3.46875 31.875 2.03125 
Q 29.640625 0.59375 26.78125 -0.1875 
Q 23.921875 -0.984375 20.21875 -0.984375 
M 22.21875 5.609375 
Q 26.421875 5.609375 29.5625 7.140625 
Q 32.71875 8.6875 34.78125 11.078125 
Q 36.859375 13.484375 37.890625 16.3125 
Q 38.921875 19.140625 38.921875 21.734375 
L 38.921875 26.078125 
L 29.296875 25.875 
Q 26.078125 25.828125 23.171875 25.40625 
Q 20.265625 25 18.0625 23.78125 
Q 15.875 22.5625 14.578125 20.359375 
Q 13.28125 18.171875 13.28125 14.59375 
Q 13.28125 10.296875 15.59375 7.953125 
Q 17.921875 5.609375 22.21875 5.609375 
" id="LiberationSans-61"/>
     </defs>
     <g style="fill:#262626;" transform="translate(1025.15125 56.1975)scale(0.08 -0.08)">
      <use xlink:href="#LiberationSans-61"/>
     </g>
    </g>
    <g id="line2d_29">
     <path d="M 1002.75125 64.855 
L 1018.75125 64.855 
" style="fill:none;stroke:#55a868;stroke-linecap:round;stroke-width:1.4;"/>
    </g>
    <g id="line2d_30"/>
    <g id="text_14">
     <!-- b -->
     <defs>
      <path d="M 51.421875 26.65625 
Q 51.421875 -0.984375 31.984375 -0.984375 
Q 25.984375 -0.984375 22 1.1875 
Q 18.015625 3.375 15.53125 8.203125 
L 15.4375 8.203125 
Q 15.4375 6.9375 15.359375 5.5625 
Q 15.28125 4.203125 15.203125 3.03125 
Q 15.140625 1.859375 15.0625 1.03125 
Q 14.984375 0.203125 14.9375 0 
L 6.453125 0 
Q 6.5 0.4375 6.546875 1.484375 
Q 6.59375 2.546875 6.640625 4 
Q 6.6875 5.46875 6.703125 7.21875 
Q 6.734375 8.984375 6.734375 10.890625 
L 6.734375 72.46875 
L 15.53125 72.46875 
L 15.53125 51.8125 
Q 15.53125 50.34375 15.5 49 
Q 15.484375 47.65625 15.4375 46.625 
Q 15.375 45.40625 15.328125 44.34375 
L 15.53125 44.34375 
Q 17.96875 49.421875 22 51.609375 
Q 26.03125 53.8125 31.984375 53.8125 
Q 42 53.8125 46.703125 47.0625 
Q 51.421875 40.328125 51.421875 26.65625 
M 42.1875 26.375 
Q 42.1875 31.84375 41.5 35.75 
Q 40.828125 39.65625 39.3125 42.15625 
Q 37.796875 44.671875 35.453125 45.84375 
Q 33.109375 47.015625 29.734375 47.015625 
Q 26.265625 47.015625 23.609375 45.890625 
Q 20.953125 44.78125 19.171875 42.28125 
Q 17.390625 39.796875 16.453125 35.734375 
Q 15.53125 31.6875 15.53125 25.828125 
Q 15.53125 20.171875 16.453125 16.3125 
Q 17.390625 12.453125 19.171875 10.03125 
Q 20.953125 7.625 23.578125 6.5625 
Q 26.21875 5.515625 29.640625 5.515625 
Q 32.859375 5.515625 35.203125 6.640625 
Q 37.546875 7.765625 39.109375 10.25 
Q 40.671875 12.75 41.421875 16.71875 
Q 42.1875 20.703125 42.1875 26.375 
" id="LiberationSans-62"/>
     </defs>
     <g style="fill:#262626;" transform="translate(1025.15125 67.655)scale(0.08 -0.08)">
      <use xlink:href="#LiberationSans-62"/>
     </g>
    </g>
   </g>
  </g>
 </g>
 <defs>
  <clipPath id="p0aceccec1e">
   <rect height="277.2" width="892.8" x="144" y="43.2"/>
  </clipPath>
 </defs>
</svg>
