<?xml version="1.0" encoding="utf-8" standalone="no"?>
<!DOCTYPE svg PUBLIC "-//W3C//DTD SVG 1.1//EN"
  "http://www.w3.org/Graphics/SVG/1.1/DTD/svg11.dtd">
<!-- Created with matplotlib (http://matplotlib.org/) -->
<svg height="360pt" version="1.1" viewBox="0 0 1152 360" width="1152pt" xmlns="http://www.w3.org/2000/svg" xmlns:xlink="http://www.w3.org/1999/xlink">
 <defs>
  <style type="text/css">
*{stroke-linecap:butt;stroke-linejoin:round;}
  </style>
 </defs>
 <g id="figure_1">
  <g id="patch_1">
   <path d="M 0 360 
L 1152 360 
L 1152 0 
L 0 0 
z
" style="fill:#ffffff;"/>
  </g>
  <g id="axes_1">
   <g id="patch_2">
    <path d="M 144 320.4 
L 1036.8 320.4 
L 1036.8 43.2 
L 144 43.2 
z
" style="fill:#eaeaf2;"/>
   </g>
   <g id="matplotlib.axis_1">
    <g id="xtick_1">
     <g id="line2d_1">
      <path clip-path="url(#pf177fce3d9)" d="M 184.581818 320.4 
L 184.581818 43.2 
" style="fill:none;stroke:#ffffff;stroke-linecap:round;stroke-width:0.8;"/>
     </g>
     <g id="line2d_2"/>
     <g id="text_1">
      <!-- 0 -->
      <defs>
       <path d="M 51.703125 34.421875 
Q 51.703125 24.515625 49.828125 17.75 
Q 47.953125 10.984375 44.703125 6.8125 
Q 41.453125 2.640625 37.0625 0.828125 
Q 32.671875 -0.984375 27.6875 -0.984375 
Q 22.65625 -0.984375 18.3125 0.828125 
Q 13.96875 2.640625 10.765625 6.78125 
Q 7.5625 10.9375 5.734375 17.703125 
Q 3.90625 24.46875 3.90625 34.421875 
Q 3.90625 44.828125 5.734375 51.640625 
Q 7.5625 58.453125 10.78125 62.5 
Q 14.015625 66.546875 18.40625 68.1875 
Q 22.796875 69.828125 27.984375 69.828125 
Q 32.90625 69.828125 37.21875 68.1875 
Q 41.546875 66.546875 44.765625 62.5 
Q 48 58.453125 49.84375 51.640625 
Q 51.703125 44.828125 51.703125 34.421875 
M 42.78125 34.421875 
Q 42.78125 42.625 41.796875 48.0625 
Q 40.828125 53.515625 38.921875 56.765625 
Q 37.015625 60.015625 34.25 61.359375 
Q 31.5 62.703125 27.984375 62.703125 
Q 24.265625 62.703125 21.4375 61.328125 
Q 18.609375 59.96875 16.671875 56.71875 
Q 14.75 53.46875 13.765625 48.015625 
Q 12.796875 42.578125 12.796875 34.421875 
Q 12.796875 26.515625 13.796875 21.09375 
Q 14.796875 15.671875 16.71875 12.375 
Q 18.65625 9.078125 21.4375 7.640625 
Q 24.21875 6.203125 27.78125 6.203125 
Q 31.25 6.203125 34.03125 7.640625 
Q 36.8125 9.078125 38.734375 12.375 
Q 40.671875 15.671875 41.71875 21.09375 
Q 42.78125 26.515625 42.78125 34.421875 
" id="LiberationSans-30"/>
      </defs>
      <g style="fill:#262626;" transform="translate(182.357443 331.7975)scale(0.08 -0.08)">
       <use xlink:href="#LiberationSans-30"/>
      </g>
     </g>
    </g>
    <g id="xtick_2">
     <g id="line2d_3">
      <path clip-path="url(#pf177fce3d9)" d="M 299.625952 320.4 
L 299.625952 43.2 
" style="fill:none;stroke:#ffffff;stroke-linecap:round;stroke-width:0.8;"/>
     </g>
     <g id="line2d_4"/>
     <g id="text_2">
      <!-- 200 -->
      <defs>
       <path d="M 5.03125 0 
L 5.03125 6.203125 
Q 7.515625 11.921875 11.109375 16.28125 
Q 14.703125 20.65625 18.65625 24.1875 
Q 22.609375 27.734375 26.484375 30.765625 
Q 30.375 33.796875 33.5 36.8125 
Q 36.625 39.84375 38.546875 43.15625 
Q 40.484375 46.484375 40.484375 50.6875 
Q 40.484375 53.609375 39.59375 55.828125 
Q 38.71875 58.0625 37.0625 59.5625 
Q 35.40625 61.078125 33.078125 61.828125 
Q 30.765625 62.59375 27.9375 62.59375 
Q 25.296875 62.59375 22.96875 61.859375 
Q 20.65625 61.140625 18.84375 59.671875 
Q 17.046875 58.203125 15.890625 56.03125 
Q 14.75 53.859375 14.40625 50.984375 
L 5.421875 51.8125 
Q 5.859375 55.515625 7.46875 58.78125 
Q 9.078125 62.0625 11.90625 64.53125 
Q 14.75 67 18.71875 68.40625 
Q 22.703125 69.828125 27.9375 69.828125 
Q 33.0625 69.828125 37.0625 68.609375 
Q 41.0625 67.390625 43.8125 64.984375 
Q 46.578125 62.59375 48.046875 59.078125 
Q 49.515625 55.5625 49.515625 50.984375 
Q 49.515625 47.515625 48.265625 44.390625 
Q 47.015625 41.265625 44.9375 38.421875 
Q 42.875 35.59375 40.140625 32.953125 
Q 37.40625 30.328125 34.421875 27.8125 
Q 31.453125 25.296875 28.421875 22.828125 
Q 25.390625 20.359375 22.71875 17.859375 
Q 20.0625 15.375 17.96875 12.8125 
Q 15.875 10.25 14.703125 7.46875 
L 50.59375 7.46875 
L 50.59375 0 
z
" id="LiberationSans-32"/>
      </defs>
      <g style="fill:#262626;" transform="translate(292.952827 331.7975)scale(0.08 -0.08)">
       <use xlink:href="#LiberationSans-32"/>
       <use x="55.615234" xlink:href="#LiberationSans-30"/>
       <use x="111.230469" xlink:href="#LiberationSans-30"/>
      </g>
     </g>
    </g>
    <g id="xtick_3">
     <g id="line2d_5">
      <path clip-path="url(#pf177fce3d9)" d="M 414.670086 320.4 
L 414.670086 43.2 
" style="fill:none;stroke:#ffffff;stroke-linecap:round;stroke-width:0.8;"/>
     </g>
     <g id="line2d_6"/>
     <g id="text_3">
      <!-- 400 -->
      <defs>
       <path d="M 43.015625 15.578125 
L 43.015625 0 
L 34.71875 0 
L 34.71875 15.578125 
L 2.296875 15.578125 
L 2.296875 22.40625 
L 33.796875 68.796875 
L 43.015625 68.796875 
L 43.015625 22.515625 
L 52.6875 22.515625 
L 52.6875 15.578125 
z
M 34.71875 58.890625 
Q 34.625 58.640625 34.234375 57.9375 
Q 33.84375 57.234375 33.34375 56.34375 
Q 32.859375 55.46875 32.34375 54.5625 
Q 31.84375 53.65625 31.453125 53.078125 
L 13.8125 27.09375 
Q 13.578125 26.703125 13.109375 26.0625 
Q 12.640625 25.4375 12.15625 24.78125 
Q 11.671875 24.125 11.171875 23.484375 
Q 10.6875 22.859375 10.40625 22.515625 
L 34.71875 22.515625 
z
" id="LiberationSans-34"/>
      </defs>
      <g style="fill:#262626;" transform="translate(407.996961 331.7975)scale(0.08 -0.08)">
       <use xlink:href="#LiberationSans-34"/>
       <use x="55.615234" xlink:href="#LiberationSans-30"/>
       <use x="111.230469" xlink:href="#LiberationSans-30"/>
      </g>
     </g>
    </g>
    <g id="xtick_4">
     <g id="line2d_7">
      <path clip-path="url(#pf177fce3d9)" d="M 529.714219 320.4 
L 529.714219 43.2 
" style="fill:none;stroke:#ffffff;stroke-linecap:round;stroke-width:0.8;"/>
     </g>
     <g id="line2d_8"/>
     <g id="text_4">
      <!-- 600 -->
      <defs>
       <path d="M 51.21875 22.515625 
Q 51.21875 17.328125 49.78125 13 
Q 48.34375 8.6875 45.53125 5.578125 
Q 42.71875 2.484375 38.5625 0.75 
Q 34.421875 -0.984375 29 -0.984375 
Q 23 -0.984375 18.5 1.3125 
Q 14.015625 3.609375 11.03125 7.921875 
Q 8.0625 12.25 6.5625 18.53125 
Q 5.078125 24.8125 5.078125 32.8125 
Q 5.078125 42 6.765625 48.921875 
Q 8.453125 55.859375 11.625 60.5 
Q 14.796875 65.140625 19.359375 67.484375 
Q 23.921875 69.828125 29.6875 69.828125 
Q 33.203125 69.828125 36.28125 69.09375 
Q 39.359375 68.359375 41.875 66.71875 
Q 44.390625 65.09375 46.28125 62.40625 
Q 48.1875 59.71875 49.3125 55.8125 
L 40.921875 54.296875 
Q 39.546875 58.734375 36.546875 60.71875 
Q 33.546875 62.703125 29.59375 62.703125 
Q 25.984375 62.703125 23.046875 60.984375 
Q 20.125 59.28125 18.0625 55.875 
Q 16.015625 52.484375 14.90625 47.359375 
Q 13.8125 42.234375 13.8125 35.40625 
Q 16.21875 39.84375 20.5625 42.15625 
Q 24.90625 44.484375 30.515625 44.484375 
Q 35.203125 44.484375 39.015625 42.96875 
Q 42.828125 41.453125 45.53125 38.59375 
Q 48.25 35.75 49.734375 31.671875 
Q 51.21875 27.59375 51.21875 22.515625 
M 42.28125 22.125 
Q 42.28125 25.6875 41.40625 28.5625 
Q 40.53125 31.453125 38.765625 33.46875 
Q 37.015625 35.5 34.421875 36.59375 
Q 31.84375 37.703125 28.421875 37.703125 
Q 26.03125 37.703125 23.578125 36.984375 
Q 21.140625 36.28125 19.15625 34.6875 
Q 17.1875 33.109375 15.9375 30.515625 
Q 14.703125 27.9375 14.703125 24.21875 
Q 14.703125 20.40625 15.671875 17.109375 
Q 16.65625 13.8125 18.484375 11.375 
Q 20.3125 8.9375 22.890625 7.515625 
Q 25.484375 6.109375 28.71875 6.109375 
Q 31.890625 6.109375 34.40625 7.203125 
Q 36.921875 8.296875 38.671875 10.375 
Q 40.4375 12.453125 41.359375 15.421875 
Q 42.28125 18.40625 42.28125 22.125 
" id="LiberationSans-36"/>
      </defs>
      <g style="fill:#262626;" transform="translate(523.041094 331.7975)scale(0.08 -0.08)">
       <use xlink:href="#LiberationSans-36"/>
       <use x="55.615234" xlink:href="#LiberationSans-30"/>
       <use x="111.230469" xlink:href="#LiberationSans-30"/>
      </g>
     </g>
    </g>
    <g id="xtick_5">
     <g id="line2d_9">
      <path clip-path="url(#pf177fce3d9)" d="M 644.758353 320.4 
L 644.758353 43.2 
" style="fill:none;stroke:#ffffff;stroke-linecap:round;stroke-width:0.8;"/>
     </g>
     <g id="line2d_10"/>
     <g id="text_5">
      <!-- 800 -->
      <defs>
       <path d="M 51.265625 19.1875 
Q 51.265625 14.796875 49.875 11.109375 
Q 48.484375 7.421875 45.625 4.734375 
Q 42.78125 2.046875 38.328125 0.53125 
Q 33.890625 -0.984375 27.828125 -0.984375 
Q 21.78125 -0.984375 17.359375 0.53125 
Q 12.9375 2.046875 10.03125 4.703125 
Q 7.125 7.375 5.734375 11.0625 
Q 4.34375 14.75 4.34375 19.09375 
Q 4.34375 22.859375 5.484375 25.78125 
Q 6.640625 28.71875 8.5625 30.828125 
Q 10.5 32.953125 12.96875 34.25 
Q 15.4375 35.546875 18.0625 35.984375 
L 18.0625 36.1875 
Q 15.1875 36.859375 12.90625 38.375 
Q 10.640625 39.890625 9.09375 42.015625 
Q 7.5625 44.140625 6.75 46.71875 
Q 5.953125 49.3125 5.953125 52.203125 
Q 5.953125 55.8125 7.34375 59 
Q 8.734375 62.203125 11.46875 64.625 
Q 14.203125 67.046875 18.25 68.4375 
Q 22.3125 69.828125 27.640625 69.828125 
Q 33.25 69.828125 37.375 68.40625 
Q 41.5 67 44.203125 64.578125 
Q 46.921875 62.15625 48.234375 58.9375 
Q 49.5625 55.71875 49.5625 52.09375 
Q 49.5625 49.265625 48.75 46.671875 
Q 47.953125 44.09375 46.40625 41.96875 
Q 44.875 39.84375 42.59375 38.34375 
Q 40.328125 36.859375 37.359375 36.28125 
L 37.359375 36.078125 
Q 40.328125 35.59375 42.859375 34.296875 
Q 45.40625 33.015625 47.265625 30.890625 
Q 49.125 28.765625 50.1875 25.828125 
Q 51.265625 22.90625 51.265625 19.1875 
M 40.4375 51.609375 
Q 40.4375 54.203125 39.765625 56.34375 
Q 39.109375 58.5 37.59375 60.03125 
Q 36.078125 61.578125 33.640625 62.421875 
Q 31.203125 63.28125 27.640625 63.28125 
Q 24.171875 63.28125 21.78125 62.421875 
Q 19.390625 61.578125 17.84375 60.03125 
Q 16.3125 58.5 15.625 56.34375 
Q 14.9375 54.203125 14.9375 51.609375 
Q 14.9375 49.5625 15.46875 47.40625 
Q 16.015625 45.265625 17.421875 43.5 
Q 18.84375 41.75 21.328125 40.625 
Q 23.828125 39.5 27.734375 39.5 
Q 31.890625 39.5 34.40625 40.625 
Q 36.921875 41.75 38.25 43.5 
Q 39.59375 45.265625 40.015625 47.40625 
Q 40.4375 49.5625 40.4375 51.609375 
M 42.140625 20.015625 
Q 42.140625 22.515625 41.453125 24.828125 
Q 40.765625 27.15625 39.109375 28.9375 
Q 37.453125 30.71875 34.640625 31.8125 
Q 31.84375 32.90625 27.640625 32.90625 
Q 23.78125 32.90625 21.0625 31.8125 
Q 18.359375 30.71875 16.671875 28.90625 
Q 14.984375 27.09375 14.203125 24.71875 
Q 13.421875 22.359375 13.421875 19.828125 
Q 13.421875 16.65625 14.203125 14.03125 
Q 14.984375 11.421875 16.6875 9.546875 
Q 18.40625 7.671875 21.1875 6.640625 
Q 23.96875 5.609375 27.9375 5.609375 
Q 31.9375 5.609375 34.671875 6.640625 
Q 37.40625 7.671875 39.0625 9.546875 
Q 40.71875 11.421875 41.421875 14.078125 
Q 42.140625 16.75 42.140625 20.015625 
" id="LiberationSans-38"/>
      </defs>
      <g style="fill:#262626;" transform="translate(638.085228 331.7975)scale(0.08 -0.08)">
       <use xlink:href="#LiberationSans-38"/>
       <use x="55.615234" xlink:href="#LiberationSans-30"/>
       <use x="111.230469" xlink:href="#LiberationSans-30"/>
      </g>
     </g>
    </g>
    <g id="xtick_6">
     <g id="line2d_11">
      <path clip-path="url(#pf177fce3d9)" d="M 759.802487 320.4 
L 759.802487 43.2 
" style="fill:none;stroke:#ffffff;stroke-linecap:round;stroke-width:0.8;"/>
     </g>
     <g id="line2d_12"/>
     <g id="text_6">
      <!-- 1000 -->
      <defs>
       <path d="M 7.625 0 
L 7.625 7.46875 
L 25.140625 7.46875 
L 25.140625 60.40625 
L 9.625 49.3125 
L 9.625 57.625 
L 25.875 68.796875 
L 33.984375 68.796875 
L 33.984375 7.46875 
L 50.734375 7.46875 
L 50.734375 0 
z
" id="LiberationSans-31"/>
      </defs>
      <g style="fill:#262626;" transform="translate(750.904987 331.7975)scale(0.08 -0.08)">
       <use xlink:href="#LiberationSans-31"/>
       <use x="55.615234" xlink:href="#LiberationSans-30"/>
       <use x="111.230469" xlink:href="#LiberationSans-30"/>
       <use x="166.845703" xlink:href="#LiberationSans-30"/>
      </g>
     </g>
    </g>
    <g id="xtick_7">
     <g id="line2d_13">
      <path clip-path="url(#pf177fce3d9)" d="M 874.846621 320.4 
L 874.846621 43.2 
" style="fill:none;stroke:#ffffff;stroke-linecap:round;stroke-width:0.8;"/>
     </g>
     <g id="line2d_14"/>
     <g id="text_7">
      <!-- 1200 -->
      <g style="fill:#262626;" transform="translate(865.949121 331.7975)scale(0.08 -0.08)">
       <use xlink:href="#LiberationSans-31"/>
       <use x="55.615234" xlink:href="#LiberationSans-32"/>
       <use x="111.230469" xlink:href="#LiberationSans-30"/>
       <use x="166.845703" xlink:href="#LiberationSans-30"/>
      </g>
     </g>
    </g>
    <g id="xtick_8">
     <g id="line2d_15">
      <path clip-path="url(#pf177fce3d9)" d="M 989.890754 320.4 
L 989.890754 43.2 
" style="fill:none;stroke:#ffffff;stroke-linecap:round;stroke-width:0.8;"/>
     </g>
     <g id="line2d_16"/>
     <g id="text_8">
      <!-- 1400 -->
      <g style="fill:#262626;" transform="translate(980.993254 331.7975)scale(0.08 -0.08)">
       <use xlink:href="#LiberationSans-31"/>
       <use x="55.615234" xlink:href="#LiberationSans-34"/>
       <use x="111.230469" xlink:href="#LiberationSans-30"/>
       <use x="166.845703" xlink:href="#LiberationSans-30"/>
      </g>
     </g>
    </g>
   </g>
   <g id="matplotlib.axis_2">
    <g id="ytick_1">
     <g id="line2d_17">
      <path clip-path="url(#pf177fce3d9)" d="M 144 307.8 
L 1036.8 307.8 
" style="fill:none;stroke:#ffffff;stroke-linecap:round;stroke-width:0.8;"/>
     </g>
     <g id="line2d_18"/>
     <g id="text_9">
      <!-- −1.00 -->
      <defs>
       <path d="M 4.9375 29.6875 
L 4.9375 36.8125 
L 53.515625 36.8125 
L 53.515625 29.6875 
z
" id="LiberationSans-2212"/>
       <path d="M 9.125 0 
L 9.125 10.6875 
L 18.65625 10.6875 
L 18.65625 0 
z
" id="LiberationSans-2e"/>
      </defs>
      <g style="fill:#262626;" transform="translate(118.15875 310.69875)scale(0.08 -0.08)">
       <use xlink:href="#LiberationSans-2212"/>
       <use x="58.398438" xlink:href="#LiberationSans-31"/>
       <use x="114.013672" xlink:href="#LiberationSans-2e"/>
       <use x="141.796875" xlink:href="#LiberationSans-30"/>
       <use x="197.412109" xlink:href="#LiberationSans-30"/>
      </g>
     </g>
    </g>
    <g id="ytick_2">
     <g id="line2d_19">
      <path clip-path="url(#pf177fce3d9)" d="M 144 276.3 
L 1036.8 276.3 
" style="fill:none;stroke:#ffffff;stroke-linecap:round;stroke-width:0.8;"/>
     </g>
     <g id="line2d_20"/>
     <g id="text_10">
      <!-- −0.75 -->
      <defs>
       <path d="M 50.59375 61.671875 
Q 45.40625 53.765625 41.0625 46.453125 
Q 36.71875 39.15625 33.59375 31.75 
Q 30.46875 24.359375 28.734375 16.578125 
Q 27 8.796875 27 0 
L 17.828125 0 
Q 17.828125 8.25 19.78125 16.1875 
Q 21.734375 24.125 25.046875 31.765625 
Q 28.375 39.40625 32.765625 46.78125 
Q 37.15625 54.15625 42.09375 61.328125 
L 5.125 61.328125 
L 5.125 68.796875 
L 50.59375 68.796875 
z
" id="LiberationSans-37"/>
       <path d="M 51.421875 22.40625 
Q 51.421875 17.234375 49.859375 12.9375 
Q 48.296875 8.640625 45.21875 5.53125 
Q 42.140625 2.4375 37.578125 0.71875 
Q 33.015625 -0.984375 27 -0.984375 
Q 21.578125 -0.984375 17.546875 0.28125 
Q 13.53125 1.5625 10.734375 3.78125 
Q 7.953125 6 6.3125 8.984375 
Q 4.6875 11.96875 4 15.375 
L 12.890625 16.40625 
Q 13.421875 14.453125 14.390625 12.625 
Q 15.375 10.796875 17.0625 9.34375 
Q 18.75 7.90625 21.21875 7.046875 
Q 23.6875 6.203125 27.203125 6.203125 
Q 30.609375 6.203125 33.390625 7.25 
Q 36.1875 8.296875 38.15625 10.34375 
Q 40.140625 12.40625 41.203125 15.375 
Q 42.28125 18.359375 42.28125 22.21875 
Q 42.28125 25.390625 41.25 28.046875 
Q 40.234375 30.71875 38.328125 32.640625 
Q 36.421875 34.578125 33.65625 35.640625 
Q 30.90625 36.71875 27.390625 36.71875 
Q 25.203125 36.71875 23.34375 36.328125 
Q 21.484375 35.9375 19.890625 35.25 
Q 18.3125 34.578125 17.015625 33.671875 
Q 15.71875 32.765625 14.59375 31.78125 
L 6 31.78125 
L 8.296875 68.796875 
L 47.40625 68.796875 
L 47.40625 61.328125 
L 16.3125 61.328125 
L 14.984375 39.5 
Q 17.328125 41.3125 20.84375 42.59375 
Q 24.359375 43.890625 29.203125 43.890625 
Q 34.328125 43.890625 38.421875 42.328125 
Q 42.53125 40.765625 45.40625 37.90625 
Q 48.296875 35.0625 49.859375 31.109375 
Q 51.421875 27.15625 51.421875 22.40625 
" id="LiberationSans-35"/>
      </defs>
      <g style="fill:#262626;" transform="translate(118.15875 279.19875)scale(0.08 -0.08)">
       <use xlink:href="#LiberationSans-2212"/>
       <use x="58.398438" xlink:href="#LiberationSans-30"/>
       <use x="114.013672" xlink:href="#LiberationSans-2e"/>
       <use x="141.796875" xlink:href="#LiberationSans-37"/>
       <use x="197.412109" xlink:href="#LiberationSans-35"/>
      </g>
     </g>
    </g>
    <g id="ytick_3">
     <g id="line2d_21">
      <path clip-path="url(#pf177fce3d9)" d="M 144 244.8 
L 1036.8 244.8 
" style="fill:none;stroke:#ffffff;stroke-linecap:round;stroke-width:0.8;"/>
     </g>
     <g id="line2d_22"/>
     <g id="text_11">
      <!-- −0.50 -->
      <g style="fill:#262626;" transform="translate(118.15875 247.69875)scale(0.08 -0.08)">
       <use xlink:href="#LiberationSans-2212"/>
       <use x="58.398438" xlink:href="#LiberationSans-30"/>
       <use x="114.013672" xlink:href="#LiberationSans-2e"/>
       <use x="141.796875" xlink:href="#LiberationSans-35"/>
       <use x="197.412109" xlink:href="#LiberationSans-30"/>
      </g>
     </g>
    </g>
    <g id="ytick_4">
     <g id="line2d_23">
      <path clip-path="url(#pf177fce3d9)" d="M 144 213.3 
L 1036.8 213.3 
" style="fill:none;stroke:#ffffff;stroke-linecap:round;stroke-width:0.8;"/>
     </g>
     <g id="line2d_24"/>
     <g id="text_12">
      <!-- −0.25 -->
      <g style="fill:#262626;" transform="translate(118.15875 216.19875)scale(0.08 -0.08)">
       <use xlink:href="#LiberationSans-2212"/>
       <use x="58.398438" xlink:href="#LiberationSans-30"/>
       <use x="114.013672" xlink:href="#LiberationSans-2e"/>
       <use x="141.796875" xlink:href="#LiberationSans-32"/>
       <use x="197.412109" xlink:href="#LiberationSans-35"/>
      </g>
     </g>
    </g>
    <g id="ytick_5">
     <g id="line2d_25">
      <path clip-path="url(#pf177fce3d9)" d="M 144 181.8 
L 1036.8 181.8 
" style="fill:none;stroke:#ffffff;stroke-linecap:round;stroke-width:0.8;"/>
     </g>
     <g id="line2d_26"/>
     <g id="text_13">
      <!-- 0.00 -->
      <g style="fill:#262626;" transform="translate(122.83125 184.69875)scale(0.08 -0.08)">
       <use xlink:href="#LiberationSans-30"/>
       <use x="55.615234" xlink:href="#LiberationSans-2e"/>
       <use x="83.398438" xlink:href="#LiberationSans-30"/>
       <use x="139.013672" xlink:href="#LiberationSans-30"/>
      </g>
     </g>
    </g>
    <g id="ytick_6">
     <g id="line2d_27">
      <path clip-path="url(#pf177fce3d9)" d="M 144 150.3 
L 1036.8 150.3 
" style="fill:none;stroke:#ffffff;stroke-linecap:round;stroke-width:0.8;"/>
     </g>
     <g id="line2d_28"/>
     <g id="text_14">
      <!-- 0.25 -->
      <g style="fill:#262626;" transform="translate(122.83125 153.19875)scale(0.08 -0.08)">
       <use xlink:href="#LiberationSans-30"/>
       <use x="55.615234" xlink:href="#LiberationSans-2e"/>
       <use x="83.398438" xlink:href="#LiberationSans-32"/>
       <use x="139.013672" xlink:href="#LiberationSans-35"/>
      </g>
     </g>
    </g>
    <g id="ytick_7">
     <g id="line2d_29">
      <path clip-path="url(#pf177fce3d9)" d="M 144 118.8 
L 1036.8 118.8 
" style="fill:none;stroke:#ffffff;stroke-linecap:round;stroke-width:0.8;"/>
     </g>
     <g id="line2d_30"/>
     <g id="text_15">
      <!-- 0.50 -->
      <g style="fill:#262626;" transform="translate(122.83125 121.69875)scale(0.08 -0.08)">
       <use xlink:href="#LiberationSans-30"/>
       <use x="55.615234" xlink:href="#LiberationSans-2e"/>
       <use x="83.398438" xlink:href="#LiberationSans-35"/>
       <use x="139.013672" xlink:href="#LiberationSans-30"/>
      </g>
     </g>
    </g>
    <g id="ytick_8">
     <g id="line2d_31">
      <path clip-path="url(#pf177fce3d9)" d="M 144 87.3 
L 1036.8 87.3 
" style="fill:none;stroke:#ffffff;stroke-linecap:round;stroke-width:0.8;"/>
     </g>
     <g id="line2d_32"/>
     <g id="text_16">
      <!-- 0.75 -->
      <g style="fill:#262626;" transform="translate(122.83125 90.19875)scale(0.08 -0.08)">
       <use xlink:href="#LiberationSans-30"/>
       <use x="55.615234" xlink:href="#LiberationSans-2e"/>
       <use x="83.398438" xlink:href="#LiberationSans-37"/>
       <use x="139.013672" xlink:href="#LiberationSans-35"/>
      </g>
     </g>
    </g>
    <g id="ytick_9">
     <g id="line2d_33">
      <path clip-path="url(#pf177fce3d9)" d="M 144 55.8 
L 1036.8 55.8 
" style="fill:none;stroke:#ffffff;stroke-linecap:round;stroke-width:0.8;"/>
     </g>
     <g id="line2d_34"/>
     <g id="text_17">
      <!-- 1.00 -->
      <g style="fill:#262626;" transform="translate(122.83125 58.69875)scale(0.08 -0.08)">
       <use xlink:href="#LiberationSans-31"/>
       <use x="55.615234" xlink:href="#LiberationSans-2e"/>
       <use x="83.398438" xlink:href="#LiberationSans-30"/>
       <use x="139.013672" xlink:href="#LiberationSans-30"/>
      </g>
     </g>
    </g>
   </g>
   <g id="line2d_35">
    <path clip-path="url(#pf177fce3d9)" d="M 184.581818 195.559711 
L 187.457922 195.560087 
L 188.033142 194.780646 
L 189.183584 189.306394 
L 189.758804 188.906352 
L 190.334025 192.498703 
L 190.909246 197.721216 
L 191.484466 199.070201 
L 192.059687 193.367376 
L 193.210128 174.302958 
L 193.785349 171.839077 
L 194.36057 177.281809 
L 196.086232 210.876932 
L 196.661452 215.438664 
L 197.236673 214.45418 
L 197.811894 209.321605 
L 198.962335 194.942483 
L 199.537556 189.541593 
L 200.112776 186.884196 
L 200.687997 186.868709 
L 201.263218 188.071046 
L 201.838438 187.745048 
L 202.413659 182.518989 
L 203.5641 160.797001 
L 204.139321 165.20805 
L 204.714542 193.297539 
L 205.864983 282.207186 
L 206.440204 307.8 
L 207.015424 305.77811 
L 207.590645 277.726223 
L 209.316307 150.015552 
L 209.891528 129.284537 
L 210.466748 126.375304 
L 211.041969 138.741757 
L 212.767631 209.479485 
L 213.342852 223.97031 
L 213.918072 228.098164 
L 214.493293 222.503068 
L 215.643734 195.586527 
L 216.218955 182.907261 
L 216.794176 175.234549 
L 217.369396 173.781319 
L 217.944617 177.924513 
L 219.670279 201.719397 
L 220.2455 205.922829 
L 220.82072 206.407563 
L 221.395941 203.625738 
L 223.121603 189.206922 
L 223.696824 186.896763 
L 224.272044 186.906291 
L 224.847265 188.913756 
L 226.572927 198.36143 
L 227.148148 199.887542 
L 227.723368 199.927159 
L 228.298589 198.647946 
L 230.024251 192.497877 
L 230.599472 191.571713 
L 231.174692 191.674519 
L 231.749913 192.638752 
L 233.475575 197.053258 
L 234.050796 197.872533 
L 234.626016 198.092313 
L 235.201237 197.805328 
L 235.776458 197.167621 
L 237.50212 194.676292 
L 238.07734 194.175303 
L 238.652561 194.010782 
L 239.227782 194.200504 
L 239.803002 194.749978 
L 240.378223 195.667402 
L 240.953444 196.914669 
L 242.103885 200.256904 
L 243.254326 204.083156 
L 243.829547 205.505264 
L 244.404768 205.974836 
L 244.979988 204.859197 
L 245.555209 201.348501 
L 246.13043 194.638146 
L 247.856092 165.67591 
L 248.431312 167.268024 
L 249.006533 176.939439 
L 249.581754 188.89172 
L 250.156974 197.586203 
L 250.732195 200.791905 
L 251.307416 199.377792 
L 252.457857 192.065032 
L 253.033078 189.856941 
L 253.608298 189.252675 
L 254.183519 189.685461 
L 254.75874 190.65434 
L 256.484402 194.706941 
L 257.059622 195.545772 
L 257.634843 195.723246 
L 258.210064 195.262374 
L 259.935726 192.73879 
L 260.510946 192.445929 
L 261.086167 192.564723 
L 262.236608 193.462122 
L 262.811829 193.922658 
L 263.38705 194.231806 
L 263.96227 194.347128 
L 265.112712 194.141497 
L 266.263153 193.925991 
L 266.838374 194.007053 
L 267.413594 194.263214 
L 269.139256 195.422767 
L 269.714477 195.591922 
L 270.289698 195.533022 
L 270.864918 195.268001 
L 272.590581 194.13942 
L 273.165801 194.007882 
L 273.741022 194.12813 
L 274.316243 194.478194 
L 275.466684 195.573769 
L 276.617125 196.569503 
L 277.192346 196.866456 
L 277.767567 196.96242 
L 278.342787 196.881642 
L 278.918008 196.66134 
L 281.218891 195.270526 
L 281.794111 195.234005 
L 282.369332 195.530569 
L 282.944553 196.196715 
L 283.519773 197.251414 
L 284.670215 200.31549 
L 285.820656 203.698336 
L 286.395877 205.028111 
L 286.971097 205.804624 
L 287.546318 205.818371 
L 288.121539 204.917813 
L 288.696759 203.068848 
L 290.422421 195.530757 
L 290.997642 195.477559 
L 291.572863 196.548354 
L 292.148083 194.074972 
L 292.723304 183.167298 
L 293.873745 145.551994 
L 294.448966 134.546644 
L 295.024187 137.05616 
L 295.599407 152.90738 
L 297.325069 221.223943 
L 297.90029 230.710043 
L 298.475511 230.008842 
L 299.050731 221.179989 
L 300.776393 181.71044 
L 301.351614 175.051801 
L 301.926835 174.24328 
L 302.502055 178.601142 
L 304.227717 201.554702 
L 304.802938 205.303134 
L 305.378159 205.427769 
L 305.953379 202.477443 
L 307.679041 188.817323 
L 308.254262 186.894403 
L 308.829483 187.180813 
L 309.404703 189.336631 
L 311.130365 198.608417 
L 311.705586 199.953001 
L 312.280807 199.849989 
L 312.856027 198.52573 
L 314.581689 192.70127 
L 315.15691 191.847739 
L 315.732131 191.917447 
L 316.307351 192.774163 
L 318.033013 196.900949 
L 318.608234 197.788932 
L 319.183455 198.162643 
L 319.758675 198.044807 
L 320.333896 197.523883 
L 322.059558 195.371406 
L 322.634779 195.005116 
L 323.209999 194.931547 
L 323.78522 195.114508 
L 324.360441 195.516915 
L 325.510882 196.759871 
L 326.661323 198.415461 
L 328.386985 201.203216 
L 328.962206 201.900022 
L 329.537427 202.324223 
L 330.112647 202.38629 
L 330.687868 202.056192 
L 331.838309 200.733054 
L 332.41353 200.447765 
L 332.988751 201.256521 
L 333.563971 204.168291 
L 334.139192 210.512526 
L 334.714413 221.524542 
L 335.864854 249.640708 
L 336.440075 247.922071 
L 337.015295 222.735405 
L 338.165737 137.436408 
L 338.740957 111.01643 
L 339.316178 108.985984 
L 339.891399 129.212264 
L 341.617061 223.77877 
L 342.192281 237.231776 
L 342.767502 237.201391 
L 343.342723 226.26389 
L 345.068385 173.206464 
L 345.643605 163.718919 
L 346.218826 162.327431 
L 346.794047 168.227788 
L 348.519709 200.332068 
L 349.094929 205.729342 
L 349.67015 206.167821 
L 350.245371 202.407913 
L 351.971033 184.176621 
L 352.546253 181.462733 
L 353.121474 181.669908 
L 353.696695 184.324767 
L 355.422357 195.980187 
L 355.997577 197.633092 
L 356.572798 197.449282 
L 357.148019 195.754469 
L 358.29846 190.664193 
L 358.873681 188.790242 
L 359.448901 188.024821 
L 360.024122 188.449553 
L 360.599343 189.838327 
L 361.749784 193.593722 
L 362.325005 194.997661 
L 362.900226 195.677438 
L 363.475446 195.593184 
L 364.050667 194.899877 
L 365.776329 191.749388 
L 366.35155 191.285038 
L 366.92677 191.367253 
L 367.501991 191.944498 
L 368.077212 192.902161 
L 369.802874 196.199155 
L 370.378094 196.797987 
L 370.953315 197.026372 
L 371.528536 196.952759 
L 372.678977 196.320374 
L 373.829418 195.584928 
L 374.404639 195.368978 
L 374.97986 195.425985 
L 375.55508 195.968835 
L 376.130301 197.234529 
L 376.705522 199.509064 
L 377.280742 203.065042 
L 377.855963 208.159888 
L 378.431184 215.001571 
L 379.581625 233.514553 
L 380.156846 243.169419 
L 380.732066 248.78375 
L 381.307287 244.295412 
L 381.882508 226.022585 
L 383.032949 171.922413 
L 383.60817 154.151076 
L 384.18339 147.795425 
L 384.758611 151.217063 
L 385.333832 160.855115 
L 386.484273 184.125646 
L 387.059494 192.67847 
L 387.634714 197.673138 
L 388.209935 198.796122 
L 388.785156 196.261127 
L 390.510818 180.057027 
L 391.086038 177.182396 
L 391.661259 176.986963 
L 392.23648 179.13517 
L 393.962142 189.748384 
L 394.537362 191.579354 
L 395.112583 191.900396 
L 395.687804 190.909304 
L 397.413466 185.339724 
L 397.988686 184.364296 
L 398.563907 184.259013 
L 399.139128 184.931718 
L 400.86479 188.613039 
L 401.44001 189.390673 
L 402.015231 189.69676 
L 402.590452 189.605518 
L 404.316114 188.620149 
L 404.891334 188.485041 
L 405.466555 188.523272 
L 406.616996 188.955439 
L 408.342658 189.665254 
L 410.643541 190.169193 
L 411.793982 190.879362 
L 413.519644 192.099429 
L 414.094865 192.398759 
L 414.670086 192.52835 
L 415.245306 192.495724 
L 415.820527 192.312532 
L 417.546189 191.412918 
L 418.12141 191.485516 
L 418.69663 192.000074 
L 419.271851 193.043622 
L 419.847072 194.664182 
L 420.997513 199.214925 
L 422.147954 204.321511 
L 422.723175 206.455205 
L 423.298396 207.925957 
L 423.873616 208.508099 
L 424.448837 208.01953 
L 425.024058 206.405557 
L 426.174499 200.769515 
L 426.74972 197.39107 
L 427.32494 192.105505 
L 427.900161 181.424531 
L 429.625823 126.284446 
L 430.201044 121.054493 
L 430.776264 130.389881 
L 431.351485 152.068417 
L 432.501926 205.878491 
L 433.077147 224.092762 
L 433.652368 231.329236 
L 434.227588 227.833849 
L 434.802809 216.349459 
L 435.95325 185.768793 
L 436.528471 174.453759 
L 437.103692 169.07507 
L 437.678912 170.020762 
L 438.254133 176.071183 
L 439.404574 193.781689 
L 439.979795 200.398796 
L 440.555016 203.365612 
L 441.130236 202.483107 
L 441.705457 198.602222 
L 442.855898 187.988418 
L 443.431119 184.271137 
L 444.00634 182.839943 
L 444.58156 183.770414 
L 445.156781 186.527401 
L 446.307222 193.716758 
L 446.882443 196.244676 
L 447.457664 197.297454 
L 448.032884 196.854384 
L 448.608105 195.257073 
L 449.758546 190.982934 
L 450.333767 189.476812 
L 450.908988 188.866469 
L 451.484208 189.183676 
L 452.059429 190.242115 
L 453.785091 194.440919 
L 454.360312 195.181508 
L 454.935533 195.36275 
L 455.510753 195.086112 
L 457.811636 192.955643 
L 458.386857 192.77683 
L 458.962077 192.831828 
L 459.537298 193.109816 
L 461.26296 194.476861 
L 462.413401 195.597883 
L 463.563843 197.137204 
L 464.714284 198.813468 
L 465.289505 199.41204 
L 465.864725 199.652726 
L 466.439946 199.472809 
L 467.015167 198.912969 
L 468.165608 197.305018 
L 468.740829 196.962096 
L 469.316049 197.712033 
L 469.89127 200.409032 
L 470.466491 206.124487 
L 471.041711 215.918531 
L 472.192153 243.356446 
L 472.767373 246.99461 
L 473.342594 231.267287 
L 475.068256 139.724088 
L 475.643477 135.219526 
L 476.218697 148.453557 
L 477.369139 196.195833 
L 477.944359 213.871094 
L 478.51958 221.392119 
L 479.094801 219.152228 
L 479.670021 209.690731 
L 481.395683 171.721375 
L 481.970904 166.003649 
L 482.546125 166.22339 
L 483.121345 171.577152 
L 484.847007 195.959575 
L 485.422228 199.512751 
L 485.997449 199.297258 
L 486.572669 196.065204 
L 487.723111 186.328073 
L 488.298331 182.721798 
L 488.873552 181.166087 
L 489.448773 181.773893 
L 490.023993 184.078683 
L 491.174435 190.373152 
L 491.749655 192.645835 
L 492.324876 193.610879 
L 492.900097 193.222129 
L 493.475317 191.799744 
L 494.625759 188.122228 
L 495.200979 186.964582 
L 495.7762 186.690857 
L 496.351421 187.328664 
L 496.926641 188.649589 
L 498.077083 191.740391 
L 498.652303 192.781308 
L 499.227524 193.211569 
L 499.802745 193.027085 
L 500.377965 192.392535 
L 501.528407 190.685816 
L 502.103627 190.065119 
L 502.678848 189.7993 
L 503.254069 189.992491 
L 503.829289 190.635903 
L 504.979731 192.703193 
L 506.130172 194.807071 
L 506.705393 195.506305 
L 507.280613 195.92779 
L 507.855834 196.085155 
L 508.431055 195.976726 
L 509.006275 195.621843 
L 510.156717 194.592808 
L 510.731937 194.262904 
L 511.307158 194.389725 
L 511.882379 195.308512 
L 512.457599 197.447116 
L 513.03282 201.311685 
L 513.608041 207.469985 
L 514.183261 216.446453 
L 515.908923 254.762103 
L 516.484144 256.491949 
L 517.059365 240.012096 
L 518.785027 150.430314 
L 519.360247 143.118882 
L 519.935468 150.440344 
L 521.66113 196.674152 
L 522.236351 203.28679 
L 522.811571 203.480925 
L 523.386792 198.709895 
L 525.112454 174.11425 
L 525.687675 169.488917 
L 526.262895 168.830195 
L 526.838116 171.88256 
L 528.563778 188.879625 
L 529.138999 191.919453 
L 529.714219 192.429822 
L 530.28944 190.798209 
L 532.015102 182.138152 
L 532.590323 180.788199 
L 533.165543 180.820737 
L 533.740764 182.031629 
L 535.466426 187.578258 
L 536.041647 188.431529 
L 536.616867 188.467047 
L 537.192088 187.866999 
L 538.342529 186.060602 
L 538.91775 185.502532 
L 539.492971 185.440878 
L 540.068191 185.886054 
L 541.218633 187.671152 
L 541.793853 188.548376 
L 542.369074 189.129427 
L 542.944295 189.300376 
L 543.519515 189.078334 
L 545.245178 187.544452 
L 545.820398 187.348251 
L 546.395619 187.497106 
L 546.97084 188.005145 
L 548.121281 189.765641 
L 549.271722 191.428376 
L 549.846943 191.858595 
L 550.422164 191.96025 
L 550.997384 191.760923 
L 553.298267 190.111875 
L 553.873488 190.158396 
L 554.448708 190.644428 
L 555.023929 191.656111 
L 555.59915 193.253529 
L 556.17437 195.452993 
L 557.324812 201.384431 
L 559.050474 211.104432 
L 559.625694 212.952895 
L 560.200915 212.922953 
L 560.776136 209.923393 
L 561.351356 202.993241 
L 563.077018 172.818871 
L 563.652239 167.850313 
L 564.22746 165.445815 
L 564.80268 165.000669 
L 565.377901 166.786652 
L 565.953122 171.218439 
L 567.103563 185.867292 
L 567.678784 193.092122 
L 568.254004 197.922278 
L 568.829225 199.314574 
L 569.404446 197.371441 
L 570.554887 188.250963 
L 571.130108 183.950301 
L 571.705328 181.2142 
L 572.280549 180.441729 
L 572.85577 181.523679 
L 573.43099 183.924017 
L 574.581432 189.64195 
L 575.156652 191.53422 
L 575.731873 192.224742 
L 576.307094 191.727559 
L 576.882314 190.355865 
L 578.032756 186.946115 
L 578.607976 185.848589 
L 579.183197 185.540084 
L 579.758418 186.032164 
L 580.333638 187.129956 
L 581.48408 189.860481 
L 582.0593 190.882902 
L 582.634521 191.427815 
L 583.209742 191.471976 
L 583.784962 191.109044 
L 585.510624 189.330465 
L 586.085845 189.035264 
L 586.661066 189.015264 
L 587.236286 189.249135 
L 588.386728 190.190934 
L 590.11239 191.688944 
L 591.262831 192.309818 
L 592.413272 192.509647 
L 593.563714 192.387903 
L 595.864596 191.761808 
L 596.439817 191.825674 
L 597.015038 192.141554 
L 597.590258 192.750106 
L 598.165479 193.661547 
L 599.31592 196.323283 
L 601.041582 200.917573 
L 601.616803 201.945421 
L 602.192024 202.390361 
L 602.767244 202.100205 
L 603.342465 201.031913 
L 605.068127 196.123209 
L 605.643348 196.701185 
L 606.793789 203.133186 
L 607.36901 199.976807 
L 607.94423 185.776876 
L 609.094672 143.466385 
L 609.669892 134.241915 
L 610.245113 140.446824 
L 610.820334 159.898743 
L 611.970775 209.87643 
L 612.545996 225.796324 
L 613.121216 230.773172 
L 613.696437 225.622573 
L 614.271658 213.342464 
L 615.422099 183.408397 
L 615.99732 173.014806 
L 616.57254 168.606796 
L 617.147761 170.38567 
L 617.722982 177.01189 
L 618.873423 194.889109 
L 619.448644 201.161563 
L 620.023864 203.671256 
L 620.599085 202.368591 
L 621.174306 198.238288 
L 622.324747 187.785934 
L 622.899968 184.377424 
L 623.475188 183.288393 
L 624.050409 184.492088 
L 624.62563 187.381291 
L 625.776071 194.314906 
L 626.351292 196.570408 
L 626.926512 197.347919 
L 627.501733 196.671942 
L 628.076954 194.935996 
L 629.227395 190.709858 
L 629.802616 189.351203 
L 630.377836 188.929804 
L 630.953057 189.4492 
L 631.528278 190.688678 
L 632.678719 193.84052 
L 633.25394 195.026323 
L 633.82916 195.654926 
L 634.404381 195.696869 
L 634.979602 195.241412 
L 636.705264 192.935858 
L 637.280485 192.505901 
L 637.855705 192.405161 
L 638.430926 192.616571 
L 639.006147 193.068839 
L 640.156588 194.388837 
L 642.457471 197.394247 
L 643.607912 198.469018 
L 644.183133 198.759543 
L 644.758353 198.782051 
L 645.333574 198.476452 
L 645.908795 197.85897 
L 647.059236 196.354714 
L 647.634457 196.191668 
L 648.209677 197.203534 
L 648.784898 200.276315 
L 649.360119 206.47491 
L 649.935339 216.708703 
L 651.085781 243.39509 
L 651.661001 245.399281 
L 652.236222 229.054536 
L 653.386663 169.006041 
L 653.961884 151.663095 
L 654.537105 151.853071 
L 655.112325 166.334367 
L 656.262767 206.033186 
L 656.837987 217.093552 
L 657.413208 218.678173 
L 657.988429 212.419191 
L 660.289311 169.706623 
L 660.864532 167.28649 
L 661.439753 169.982561 
L 662.014973 176.492759 
L 663.165415 192.205833 
L 663.740635 197.206363 
L 664.315856 198.808069 
L 664.891077 197.218469 
L 665.466297 193.483258 
L 666.616739 185.004906 
L 667.191959 182.580378 
L 667.76718 182.131131 
L 668.342401 183.487042 
L 670.068063 191.559619 
L 670.643283 193.071998 
L 671.218504 193.304489 
L 671.793725 192.397107 
L 673.519387 187.579084 
L 674.094607 186.908799 
L 674.669828 187.109867 
L 675.245049 188.070279 
L 676.970711 192.236571 
L 677.545931 192.948838 
L 678.121152 193.043929 
L 678.696373 192.584488 
L 680.422035 190.021784 
L 680.997255 189.567346 
L 681.572476 189.558142 
L 682.147697 189.997536 
L 682.722917 190.808917 
L 685.0238 194.774129 
L 685.599021 195.316783 
L 686.174241 195.560605 
L 686.749462 195.498946 
L 687.324683 195.149571 
L 689.625565 192.952661 
L 690.200786 193.139307 
L 690.776007 194.181955 
L 691.351227 196.488833 
L 691.926448 200.548211 
L 692.501669 206.889289 
L 693.076889 215.998504 
L 694.802551 251.074675 
L 695.377772 249.387898 
L 695.952993 231.127755 
L 697.103434 174.814832 
L 697.678655 158.983671 
L 698.253875 157.294239 
L 698.829096 166.328143 
L 699.979537 192.515901 
L 700.554758 200.260798 
L 701.129979 202.297055 
L 701.705199 199.670603 
L 702.28042 193.977447 
L 703.430861 179.881476 
L 704.006082 174.792914 
L 704.581303 172.671345 
L 705.156523 173.811763 
L 705.731744 177.590078 
L 706.882185 187.724635 
L 707.457406 191.287545 
L 708.032627 192.793131 
L 708.607847 192.269522 
L 709.183068 190.288252 
L 710.333509 185.161341 
L 710.90873 183.439017 
L 711.483951 182.819707 
L 712.059171 183.299279 
L 712.634392 184.587872 
L 713.784833 187.765993 
L 714.360054 188.775847 
L 714.935275 189.066091 
L 715.510495 188.719355 
L 717.236157 186.805433 
L 717.811378 186.672656 
L 718.386599 186.957355 
L 718.961819 187.579468 
L 720.112261 189.155799 
L 720.687481 189.716937 
L 721.262702 189.947682 
L 721.837923 189.839507 
L 722.988364 189.013936 
L 723.563585 188.570029 
L 724.138805 188.290965 
L 724.714026 188.284386 
L 725.289247 188.589027 
L 725.864467 189.186832 
L 728.16535 192.347106 
L 728.740571 192.690367 
L 729.315792 192.69781 
L 729.891012 192.391178 
L 731.041454 191.20123 
L 731.616674 190.605519 
L 732.191895 190.242823 
L 732.767116 190.294152 
L 733.342336 190.926266 
L 733.917557 192.281705 
L 734.492778 194.45294 
L 735.067998 197.490106 
L 736.21844 205.997492 
L 737.944102 221.111816 
L 738.519322 223.765555 
L 739.094543 222.232322 
L 739.669764 214.411789 
L 741.395426 173.989792 
L 741.970646 166.532013 
L 742.545867 163.317432 
L 743.121088 163.66051 
L 743.696308 167.170351 
L 744.271529 173.317175 
L 745.997191 195.673683 
L 746.572412 199.45095 
L 747.147632 199.780193 
L 747.722853 197.118959 
L 749.448515 184.199896 
L 750.023736 182.146235 
L 750.598956 182.034048 
L 751.174177 183.554419 
L 752.899839 191.267279 
L 753.47506 192.695423 
L 754.05028 192.965293 
L 754.625501 192.183413 
L 756.351163 187.461293 
L 756.926384 186.578051 
L 757.501604 186.411881 
L 758.076825 186.903135 
L 759.227266 188.94538 
L 760.377708 190.866677 
L 760.952928 191.381236 
L 761.528149 191.522154 
L 762.10337 191.331205 
L 763.253811 190.394509 
L 763.829032 189.913315 
L 764.404252 189.607347 
L 764.979473 189.513244 
L 765.554694 189.598261 
L 766.705135 190.116979 
L 770.73168 192.588853 
L 771.3069 192.7214 
L 771.882121 192.725212 
L 772.457342 192.591715 
L 773.607783 191.994499 
L 774.758224 191.426045 
L 775.333445 191.423243 
L 775.908666 191.759005 
L 776.483886 192.518055 
L 777.059107 193.755287 
L 777.634328 195.454709 
L 778.784769 199.819162 
L 779.93521 204.15127 
L 780.510431 205.651168 
L 781.085652 206.317737 
L 781.660872 205.917312 
L 782.236093 204.381277 
L 783.961755 197.545405 
L 784.536976 195.38617 
L 785.112196 188.742276 
L 785.687417 173.921058 
L 786.837858 132.20498 
L 787.413079 121.384002 
L 787.9883 125.698588 
L 788.56352 144.878227 
L 790.289182 226.434692 
L 790.864403 238.675477 
L 791.439624 238.896133 
L 792.014844 229.183448 
L 793.740506 181.962778 
L 794.315727 173.330745 
L 794.890948 171.599336 
L 795.466168 176.093602 
L 797.19183 202.742437 
L 797.767051 207.489277 
L 798.342272 208.014397 
L 798.917492 204.830583 
L 800.643154 188.488522 
L 801.218375 185.838412 
L 801.793596 185.787407 
L 802.368816 187.982194 
L 804.094478 198.616235 
L 804.669699 200.447441 
L 805.24492 200.637299 
L 805.82014 199.365136 
L 807.545802 192.427167 
L 808.121023 191.15524 
L 808.696244 190.958214 
L 809.271464 191.764345 
L 811.572347 197.30072 
L 812.147568 197.69169 
L 812.722788 197.523331 
L 813.298009 196.944771 
L 815.023671 194.784283 
L 815.598892 194.434001 
L 816.174112 194.346441 
L 816.749333 194.468501 
L 817.899774 195.131069 
L 819.050216 196.135593 
L 820.200657 197.640922 
L 822.50154 201.710901 
L 823.076761 202.261065 
L 823.651981 202.301096 
L 824.227202 201.758395 
L 825.952864 198.796771 
L 826.528085 199.860845 
L 827.103305 204.507446 
L 827.678526 214.164082 
L 828.253747 226.28513 
L 828.828967 230.472573 
L 829.404188 214.547722 
L 829.979409 177.70374 
L 830.554629 132.999695 
L 831.12985 98.571213 
L 831.705071 87.946701 
L 832.280291 104.566381 
L 832.855512 141.995839 
L 834.005953 228.880784 
L 834.581174 255.860956 
L 835.156395 265.102535 
L 835.731615 257.782549 
L 836.306836 238.343314 
L 837.457277 188.803546 
L 838.032498 171.022386 
L 838.607719 163.061377 
L 839.182939 165.348467 
L 839.75816 175.671996 
L 840.908601 204.02873 
L 841.483822 213.97154 
L 842.059043 217.915376 
L 842.634263 215.779058 
L 843.209484 209.126525 
L 844.359925 192.186363 
L 844.935146 186.548286 
L 845.510367 184.542237 
L 846.085587 186.154675 
L 846.660808 190.430617 
L 847.811249 200.892823 
L 848.38647 204.240447 
L 848.961691 205.277971 
L 849.536911 204.085546 
L 850.112132 201.294989 
L 851.262573 194.635957 
L 851.837794 192.553454 
L 852.413015 191.936238 
L 852.988235 192.74887 
L 853.563456 194.596056 
L 854.713897 198.959962 
L 855.289118 200.36794 
L 855.864339 200.843883 
L 856.439559 200.412749 
L 857.01478 199.28891 
L 858.165221 196.390196 
L 858.740442 195.292524 
L 859.315663 194.733786 
L 859.890883 194.776596 
L 860.466104 195.326533 
L 861.616545 197.269722 
L 862.766987 199.194925 
L 863.342207 199.861553 
L 863.917428 200.273483 
L 864.492649 200.439033 
L 865.067869 200.373486 
L 865.64309 200.096427 
L 866.218311 199.629481 
L 867.943973 197.603962 
L 868.519193 197.278453 
L 869.094414 197.725939 
L 869.669635 199.605321 
L 870.244855 203.846276 
L 870.820076 211.622294 
L 871.395297 224.201821 
L 872.545738 260.873203 
L 873.120959 269.948111 
L 873.696179 255.487198 
L 874.2714 215.689055 
L 875.421841 120.71525 
L 875.997062 98.822253 
L 876.572283 103.0625 
L 877.147503 128.827296 
L 878.297945 203.050853 
L 878.873165 231.274072 
L 879.448386 246.163906 
L 880.023607 247.076618 
L 880.598827 236.104308 
L 882.324489 179.155318 
L 882.89971 168.646119 
L 883.474931 166.761047 
L 884.050151 172.618747 
L 885.775813 205.41358 
L 886.351034 210.952421 
L 886.926255 211.420312 
L 887.501475 207.544412 
L 889.227137 188.485956 
L 889.802358 185.498343 
L 890.377579 185.482265 
L 890.952799 187.971397 
L 892.678461 199.283983 
L 893.253682 200.86058 
L 893.828903 200.596413 
L 894.404123 198.843705 
L 895.554565 193.817404 
L 896.129785 192.018158 
L 896.705006 191.297693 
L 897.280227 191.693752 
L 897.855447 192.975452 
L 899.005889 196.31656 
L 899.581109 197.385802 
L 900.15633 197.703151 
L 900.731551 197.267317 
L 901.306771 196.263337 
L 902.457213 193.807852 
L 903.032433 193.01315 
L 903.607654 192.818285 
L 904.182875 193.265449 
L 904.758095 194.238355 
L 905.908537 196.742505 
L 906.483757 197.724258 
L 907.058978 198.265265 
L 907.634199 198.294334 
L 908.209419 197.844426 
L 908.78464 197.029201 
L 909.935082 195.01706 
L 910.510302 194.234883 
L 911.085523 193.879362 
L 911.660744 194.151155 
L 912.235964 195.247822 
L 912.811185 197.358665 
L 913.386406 200.678038 
L 913.961626 205.412843 
L 914.536847 211.760823 
L 915.112068 219.890805 
L 916.83773 250.111814 
L 917.41295 252.930483 
L 917.988171 242.461728 
L 918.563392 216.80257 
L 919.713833 146.539635 
L 920.289054 120.21671 
L 920.864274 108.609277 
L 921.439495 113.696747 
L 922.014716 133.307964 
L 923.740378 218.152198 
L 924.315598 234.444965 
L 924.890819 239.072245 
L 925.46604 232.778248 
L 926.04126 218.837912 
L 927.191702 186.536191 
L 927.766922 176.273785 
L 928.342143 172.762645 
L 928.917364 175.709166 
L 929.492584 183.235029 
L 930.643026 201.154394 
L 931.218246 206.775598 
L 931.793467 208.492995 
L 932.368688 206.457624 
L 932.943908 201.755858 
L 934.09435 190.793843 
L 934.66957 187.332499 
L 935.244791 186.186033 
L 935.820012 187.285182 
L 936.395232 190.026327 
L 937.545674 196.732655 
L 938.120894 198.969756 
L 938.696115 199.824472 
L 939.271336 199.295547 
L 939.846556 197.750418 
L 940.996998 193.928018 
L 941.572218 192.649428 
L 942.147439 192.154946 
L 942.72266 192.419438 
L 943.29788 193.214548 
L 944.448322 195.073551 
L 945.023542 195.592217 
L 945.598763 195.699817 
L 946.173984 195.48715 
L 947.324425 194.775958 
L 947.899646 194.594233 
L 948.474866 194.658297 
L 949.050087 194.948908 
L 950.200528 195.780733 
L 950.775749 196.048428 
L 951.35097 196.065296 
L 951.92619 195.79465 
L 953.651852 194.198584 
L 954.227073 193.98181 
L 954.802294 194.222788 
L 955.377514 195.035754 
L 955.952735 196.457546 
L 956.527956 198.448784 
L 957.678397 203.58612 
L 958.828838 208.72017 
L 959.404059 210.684625 
L 959.97928 212.041687 
L 961.129721 213.494593 
L 961.704942 214.798084 
L 962.280162 217.169189 
L 962.855383 217.86331 
L 963.430604 208.839525 
L 964.005824 182.461289 
L 965.731486 62.18161 
L 966.306707 55.8 
L 966.881928 79.328445 
L 967.457148 126.306866 
L 968.60759 235.695151 
L 969.18281 271.725156 
L 969.758031 286.024411 
L 970.333252 279.122726 
L 970.908472 256.199609 
L 972.058914 194.580253 
L 972.634134 171.534997 
L 973.209355 160.34684 
L 973.784576 161.789066 
L 974.359796 173.388505 
L 975.510238 207.572082 
L 976.085458 220.206538 
L 976.660679 225.722576 
L 977.2359 223.772575 
L 977.81112 215.991336 
L 978.961562 194.842831 
L 979.536782 187.308604 
L 980.112003 184.1814 
L 980.687224 185.614128 
L 981.262444 190.558792 
L 982.412886 203.681226 
L 982.988106 208.29116 
L 983.563327 210.132662 
L 984.138548 209.119888 
L 984.713768 205.926546 
L 985.86421 197.477235 
L 986.43943 194.413605 
L 987.014651 193.066936 
L 987.589872 193.491438 
L 988.165092 195.280911 
L 989.315534 200.226756 
L 989.890754 202.055071 
L 990.465975 202.92492 
L 991.041196 202.796096 
L 991.616416 201.876245 
L 993.342078 197.936164 
L 993.917299 197.236166 
L 994.49252 197.036119 
L 995.06774 197.242783 
L 996.218182 198.260477 
L 996.218182 198.260477 
" style="fill:none;stroke:#4c72b0;stroke-linecap:round;stroke-width:1.4;"/>
   </g>
   <g id="patch_3">
    <path d="M 144 320.4 
L 144 43.2 
" style="fill:none;"/>
   </g>
   <g id="patch_4">
    <path d="M 1036.8 320.4 
L 1036.8 43.2 
" style="fill:none;"/>
   </g>
   <g id="patch_5">
    <path d="M 144 320.4 
L 1036.8 320.4 
" style="fill:none;"/>
   </g>
   <g id="patch_6">
    <path d="M 144 43.2 
L 1036.8 43.2 
" style="fill:none;"/>
   </g>
  </g>
 </g>
 <defs>
  <clipPath id="pf177fce3d9">
   <rect height="277.2" width="892.8" x="144" y="43.2"/>
  </clipPath>
 </defs>
</svg>
