<?xml version="1.0" encoding="utf-8" standalone="no"?>
<!DOCTYPE svg PUBLIC "-//W3C//DTD SVG 1.1//EN"
  "http://www.w3.org/Graphics/SVG/1.1/DTD/svg11.dtd">
<!-- Created with matplotlib (http://matplotlib.org/) -->
<svg height="396pt" version="1.1" viewBox="0 0 576 396" width="576pt" xmlns="http://www.w3.org/2000/svg" xmlns:xlink="http://www.w3.org/1999/xlink">
 <defs>
  <style type="text/css">
*{stroke-linecap:butt;stroke-linejoin:round;}
  </style>
 </defs>
 <g id="figure_1">
  <g id="patch_1">
   <path d="M 0 396 
L 576 396 
L 576 0 
L 0 0 
z
" style="fill:#ffffff;"/>
  </g>
  <g id="axes_1">
   <g id="patch_2">
    <path d="M 72 352.44 
L 518.4 352.44 
L 518.4 47.52 
L 72 47.52 
z
" style="fill:#eaeaf2;"/>
   </g>
   <g id="matplotlib.axis_1">
    <g id="xtick_1">
     <g id="line2d_1">
      <path clip-path="url(#pf437187fac)" d="M 92.290909 352.44 
L 92.290909 47.52 
" style="fill:none;stroke:#ffffff;stroke-linecap:round;"/>
     </g>
     <g id="line2d_2"/>
     <g id="text_1">
      <!-- 0.000 -->
      <defs>
       <path d="M 51.703125 34.421875 
Q 51.703125 24.515625 49.828125 17.75 
Q 47.953125 10.984375 44.703125 6.8125 
Q 41.453125 2.640625 37.0625 0.828125 
Q 32.671875 -0.984375 27.6875 -0.984375 
Q 22.65625 -0.984375 18.3125 0.828125 
Q 13.96875 2.640625 10.765625 6.78125 
Q 7.5625 10.9375 5.734375 17.703125 
Q 3.90625 24.46875 3.90625 34.421875 
Q 3.90625 44.828125 5.734375 51.640625 
Q 7.5625 58.453125 10.78125 62.5 
Q 14.015625 66.546875 18.40625 68.1875 
Q 22.796875 69.828125 27.984375 69.828125 
Q 32.90625 69.828125 37.21875 68.1875 
Q 41.546875 66.546875 44.765625 62.5 
Q 48 58.453125 49.84375 51.640625 
Q 51.703125 44.828125 51.703125 34.421875 
M 42.78125 34.421875 
Q 42.78125 42.625 41.796875 48.0625 
Q 40.828125 53.515625 38.921875 56.765625 
Q 37.015625 60.015625 34.25 61.359375 
Q 31.5 62.703125 27.984375 62.703125 
Q 24.265625 62.703125 21.4375 61.328125 
Q 18.609375 59.96875 16.671875 56.71875 
Q 14.75 53.46875 13.765625 48.015625 
Q 12.796875 42.578125 12.796875 34.421875 
Q 12.796875 26.515625 13.796875 21.09375 
Q 14.796875 15.671875 16.71875 12.375 
Q 18.65625 9.078125 21.4375 7.640625 
Q 24.21875 6.203125 27.78125 6.203125 
Q 31.25 6.203125 34.03125 7.640625 
Q 36.8125 9.078125 38.734375 12.375 
Q 40.671875 15.671875 41.71875 21.09375 
Q 42.78125 26.515625 42.78125 34.421875 
" id="LiberationSans-30"/>
       <path d="M 9.125 0 
L 9.125 10.6875 
L 18.65625 10.6875 
L 18.65625 0 
z
" id="LiberationSans-2e"/>
      </defs>
      <g style="fill:#262626;" transform="translate(79.779972 366.686875)scale(0.1 -0.1)">
       <use xlink:href="#LiberationSans-30"/>
       <use x="55.615234" xlink:href="#LiberationSans-2e"/>
       <use x="83.398438" xlink:href="#LiberationSans-30"/>
       <use x="139.013672" xlink:href="#LiberationSans-30"/>
       <use x="194.628906" xlink:href="#LiberationSans-30"/>
      </g>
     </g>
    </g>
    <g id="xtick_2">
     <g id="line2d_3">
      <path clip-path="url(#pf437187fac)" d="M 155.619224 352.44 
L 155.619224 47.52 
" style="fill:none;stroke:#ffffff;stroke-linecap:round;"/>
     </g>
     <g id="line2d_4"/>
     <g id="text_2">
      <!-- 0.005 -->
      <defs>
       <path d="M 51.421875 22.40625 
Q 51.421875 17.234375 49.859375 12.9375 
Q 48.296875 8.640625 45.21875 5.53125 
Q 42.140625 2.4375 37.578125 0.71875 
Q 33.015625 -0.984375 27 -0.984375 
Q 21.578125 -0.984375 17.546875 0.28125 
Q 13.53125 1.5625 10.734375 3.78125 
Q 7.953125 6 6.3125 8.984375 
Q 4.6875 11.96875 4 15.375 
L 12.890625 16.40625 
Q 13.421875 14.453125 14.390625 12.625 
Q 15.375 10.796875 17.0625 9.34375 
Q 18.75 7.90625 21.21875 7.046875 
Q 23.6875 6.203125 27.203125 6.203125 
Q 30.609375 6.203125 33.390625 7.25 
Q 36.1875 8.296875 38.15625 10.34375 
Q 40.140625 12.40625 41.203125 15.375 
Q 42.28125 18.359375 42.28125 22.21875 
Q 42.28125 25.390625 41.25 28.046875 
Q 40.234375 30.71875 38.328125 32.640625 
Q 36.421875 34.578125 33.65625 35.640625 
Q 30.90625 36.71875 27.390625 36.71875 
Q 25.203125 36.71875 23.34375 36.328125 
Q 21.484375 35.9375 19.890625 35.25 
Q 18.3125 34.578125 17.015625 33.671875 
Q 15.71875 32.765625 14.59375 31.78125 
L 6 31.78125 
L 8.296875 68.796875 
L 47.40625 68.796875 
L 47.40625 61.328125 
L 16.3125 61.328125 
L 14.984375 39.5 
Q 17.328125 41.3125 20.84375 42.59375 
Q 24.359375 43.890625 29.203125 43.890625 
Q 34.328125 43.890625 38.421875 42.328125 
Q 42.53125 40.765625 45.40625 37.90625 
Q 48.296875 35.0625 49.859375 31.109375 
Q 51.421875 27.15625 51.421875 22.40625 
" id="LiberationSans-35"/>
      </defs>
      <g style="fill:#262626;" transform="translate(143.108287 366.686875)scale(0.1 -0.1)">
       <use xlink:href="#LiberationSans-30"/>
       <use x="55.615234" xlink:href="#LiberationSans-2e"/>
       <use x="83.398438" xlink:href="#LiberationSans-30"/>
       <use x="139.013672" xlink:href="#LiberationSans-30"/>
       <use x="194.628906" xlink:href="#LiberationSans-35"/>
      </g>
     </g>
    </g>
    <g id="xtick_3">
     <g id="line2d_5">
      <path clip-path="url(#pf437187fac)" d="M 218.947539 352.44 
L 218.947539 47.52 
" style="fill:none;stroke:#ffffff;stroke-linecap:round;"/>
     </g>
     <g id="line2d_6"/>
     <g id="text_3">
      <!-- 0.010 -->
      <defs>
       <path d="M 7.625 0 
L 7.625 7.46875 
L 25.140625 7.46875 
L 25.140625 60.40625 
L 9.625 49.3125 
L 9.625 57.625 
L 25.875 68.796875 
L 33.984375 68.796875 
L 33.984375 7.46875 
L 50.734375 7.46875 
L 50.734375 0 
z
" id="LiberationSans-31"/>
      </defs>
      <g style="fill:#262626;" transform="translate(206.436602 366.686875)scale(0.1 -0.1)">
       <use xlink:href="#LiberationSans-30"/>
       <use x="55.615234" xlink:href="#LiberationSans-2e"/>
       <use x="83.398438" xlink:href="#LiberationSans-30"/>
       <use x="139.013672" xlink:href="#LiberationSans-31"/>
       <use x="194.628906" xlink:href="#LiberationSans-30"/>
      </g>
     </g>
    </g>
    <g id="xtick_4">
     <g id="line2d_7">
      <path clip-path="url(#pf437187fac)" d="M 282.275854 352.44 
L 282.275854 47.52 
" style="fill:none;stroke:#ffffff;stroke-linecap:round;"/>
     </g>
     <g id="line2d_8"/>
     <g id="text_4">
      <!-- 0.015 -->
      <g style="fill:#262626;" transform="translate(269.764917 366.686875)scale(0.1 -0.1)">
       <use xlink:href="#LiberationSans-30"/>
       <use x="55.615234" xlink:href="#LiberationSans-2e"/>
       <use x="83.398438" xlink:href="#LiberationSans-30"/>
       <use x="139.013672" xlink:href="#LiberationSans-31"/>
       <use x="194.628906" xlink:href="#LiberationSans-35"/>
      </g>
     </g>
    </g>
    <g id="xtick_5">
     <g id="line2d_9">
      <path clip-path="url(#pf437187fac)" d="M 345.604169 352.44 
L 345.604169 47.52 
" style="fill:none;stroke:#ffffff;stroke-linecap:round;"/>
     </g>
     <g id="line2d_10"/>
     <g id="text_5">
      <!-- 0.020 -->
      <defs>
       <path d="M 5.03125 0 
L 5.03125 6.203125 
Q 7.515625 11.921875 11.109375 16.28125 
Q 14.703125 20.65625 18.65625 24.1875 
Q 22.609375 27.734375 26.484375 30.765625 
Q 30.375 33.796875 33.5 36.8125 
Q 36.625 39.84375 38.546875 43.15625 
Q 40.484375 46.484375 40.484375 50.6875 
Q 40.484375 53.609375 39.59375 55.828125 
Q 38.71875 58.0625 37.0625 59.5625 
Q 35.40625 61.078125 33.078125 61.828125 
Q 30.765625 62.59375 27.9375 62.59375 
Q 25.296875 62.59375 22.96875 61.859375 
Q 20.65625 61.140625 18.84375 59.671875 
Q 17.046875 58.203125 15.890625 56.03125 
Q 14.75 53.859375 14.40625 50.984375 
L 5.421875 51.8125 
Q 5.859375 55.515625 7.46875 58.78125 
Q 9.078125 62.0625 11.90625 64.53125 
Q 14.75 67 18.71875 68.40625 
Q 22.703125 69.828125 27.9375 69.828125 
Q 33.0625 69.828125 37.0625 68.609375 
Q 41.0625 67.390625 43.8125 64.984375 
Q 46.578125 62.59375 48.046875 59.078125 
Q 49.515625 55.5625 49.515625 50.984375 
Q 49.515625 47.515625 48.265625 44.390625 
Q 47.015625 41.265625 44.9375 38.421875 
Q 42.875 35.59375 40.140625 32.953125 
Q 37.40625 30.328125 34.421875 27.8125 
Q 31.453125 25.296875 28.421875 22.828125 
Q 25.390625 20.359375 22.71875 17.859375 
Q 20.0625 15.375 17.96875 12.8125 
Q 15.875 10.25 14.703125 7.46875 
L 50.59375 7.46875 
L 50.59375 0 
z
" id="LiberationSans-32"/>
      </defs>
      <g style="fill:#262626;" transform="translate(333.093232 366.686875)scale(0.1 -0.1)">
       <use xlink:href="#LiberationSans-30"/>
       <use x="55.615234" xlink:href="#LiberationSans-2e"/>
       <use x="83.398438" xlink:href="#LiberationSans-30"/>
       <use x="139.013672" xlink:href="#LiberationSans-32"/>
       <use x="194.628906" xlink:href="#LiberationSans-30"/>
      </g>
     </g>
    </g>
    <g id="xtick_6">
     <g id="line2d_11">
      <path clip-path="url(#pf437187fac)" d="M 408.932484 352.44 
L 408.932484 47.52 
" style="fill:none;stroke:#ffffff;stroke-linecap:round;"/>
     </g>
     <g id="line2d_12"/>
     <g id="text_6">
      <!-- 0.025 -->
      <g style="fill:#262626;" transform="translate(396.421547 366.686875)scale(0.1 -0.1)">
       <use xlink:href="#LiberationSans-30"/>
       <use x="55.615234" xlink:href="#LiberationSans-2e"/>
       <use x="83.398438" xlink:href="#LiberationSans-30"/>
       <use x="139.013672" xlink:href="#LiberationSans-32"/>
       <use x="194.628906" xlink:href="#LiberationSans-35"/>
      </g>
     </g>
    </g>
    <g id="xtick_7">
     <g id="line2d_13">
      <path clip-path="url(#pf437187fac)" d="M 472.260799 352.44 
L 472.260799 47.52 
" style="fill:none;stroke:#ffffff;stroke-linecap:round;"/>
     </g>
     <g id="line2d_14"/>
     <g id="text_7">
      <!-- 0.030 -->
      <defs>
       <path d="M 51.21875 19 
Q 51.21875 14.265625 49.671875 10.546875 
Q 48.140625 6.84375 45.1875 4.265625 
Q 42.234375 1.703125 37.859375 0.359375 
Q 33.5 -0.984375 27.875 -0.984375 
Q 21.484375 -0.984375 17.109375 0.609375 
Q 12.75 2.203125 9.90625 4.8125 
Q 7.078125 7.421875 5.65625 10.765625 
Q 4.25 14.109375 3.8125 17.671875 
L 12.890625 18.5 
Q 13.28125 15.765625 14.328125 13.515625 
Q 15.375 11.28125 17.1875 9.671875 
Q 19 8.0625 21.625 7.171875 
Q 24.265625 6.296875 27.875 6.296875 
Q 34.515625 6.296875 38.296875 9.5625 
Q 42.09375 12.84375 42.09375 19.28125 
Q 42.09375 23.09375 40.40625 25.40625 
Q 38.71875 27.734375 36.203125 29.03125 
Q 33.6875 30.328125 30.734375 30.765625 
Q 27.78125 31.203125 25.296875 31.203125 
L 20.3125 31.203125 
L 20.3125 38.8125 
L 25.09375 38.8125 
Q 27.59375 38.8125 30.265625 39.328125 
Q 32.953125 39.84375 35.171875 41.1875 
Q 37.40625 42.53125 38.84375 44.828125 
Q 40.28125 47.125 40.28125 50.6875 
Q 40.28125 56.203125 37.03125 59.390625 
Q 33.796875 62.59375 27.390625 62.59375 
Q 21.578125 62.59375 17.984375 59.609375 
Q 14.40625 56.640625 13.8125 51.21875 
L 4.984375 51.90625 
Q 5.515625 56.453125 7.46875 59.8125 
Q 9.421875 63.1875 12.421875 65.40625 
Q 15.4375 67.625 19.28125 68.71875 
Q 23.140625 69.828125 27.484375 69.828125 
Q 33.25 69.828125 37.390625 68.375 
Q 41.546875 66.9375 44.1875 64.46875 
Q 46.828125 62.015625 48.0625 58.6875 
Q 49.3125 55.375 49.3125 51.609375 
Q 49.3125 48.578125 48.484375 45.9375 
Q 47.65625 43.3125 45.890625 41.203125 
Q 44.140625 39.109375 41.421875 37.59375 
Q 38.71875 36.078125 34.90625 35.296875 
L 34.90625 35.109375 
Q 39.0625 34.671875 42.140625 33.21875 
Q 45.21875 31.78125 47.21875 29.625 
Q 49.21875 27.484375 50.21875 24.75 
Q 51.21875 22.015625 51.21875 19 
" id="LiberationSans-33"/>
      </defs>
      <g style="fill:#262626;" transform="translate(459.749862 366.686875)scale(0.1 -0.1)">
       <use xlink:href="#LiberationSans-30"/>
       <use x="55.615234" xlink:href="#LiberationSans-2e"/>
       <use x="83.398438" xlink:href="#LiberationSans-30"/>
       <use x="139.013672" xlink:href="#LiberationSans-33"/>
       <use x="194.628906" xlink:href="#LiberationSans-30"/>
      </g>
     </g>
    </g>
   </g>
   <g id="matplotlib.axis_2">
    <g id="ytick_1">
     <g id="line2d_15">
      <path clip-path="url(#pf437187fac)" d="M 72 328.661092 
L 518.4 328.661092 
" style="fill:none;stroke:#ffffff;stroke-linecap:round;"/>
     </g>
     <g id="line2d_16"/>
     <g id="text_8">
      <!-- 0.0 -->
      <g style="fill:#262626;" transform="translate(51.1 332.28453)scale(0.1 -0.1)">
       <use xlink:href="#LiberationSans-30"/>
       <use x="55.615234" xlink:href="#LiberationSans-2e"/>
       <use x="83.398438" xlink:href="#LiberationSans-30"/>
      </g>
     </g>
    </g>
    <g id="ytick_2">
     <g id="line2d_17">
      <path clip-path="url(#pf437187fac)" d="M 72 288.800509 
L 518.4 288.800509 
" style="fill:none;stroke:#ffffff;stroke-linecap:round;"/>
     </g>
     <g id="line2d_18"/>
     <g id="text_9">
      <!-- 0.2 -->
      <g style="fill:#262626;" transform="translate(51.1 292.423947)scale(0.1 -0.1)">
       <use xlink:href="#LiberationSans-30"/>
       <use x="55.615234" xlink:href="#LiberationSans-2e"/>
       <use x="83.398438" xlink:href="#LiberationSans-32"/>
      </g>
     </g>
    </g>
    <g id="ytick_3">
     <g id="line2d_19">
      <path clip-path="url(#pf437187fac)" d="M 72 248.939927 
L 518.4 248.939927 
" style="fill:none;stroke:#ffffff;stroke-linecap:round;"/>
     </g>
     <g id="line2d_20"/>
     <g id="text_10">
      <!-- 0.4 -->
      <defs>
       <path d="M 43.015625 15.578125 
L 43.015625 0 
L 34.71875 0 
L 34.71875 15.578125 
L 2.296875 15.578125 
L 2.296875 22.40625 
L 33.796875 68.796875 
L 43.015625 68.796875 
L 43.015625 22.515625 
L 52.6875 22.515625 
L 52.6875 15.578125 
z
M 34.71875 58.890625 
Q 34.625 58.640625 34.234375 57.9375 
Q 33.84375 57.234375 33.34375 56.34375 
Q 32.859375 55.46875 32.34375 54.5625 
Q 31.84375 53.65625 31.453125 53.078125 
L 13.8125 27.09375 
Q 13.578125 26.703125 13.109375 26.0625 
Q 12.640625 25.4375 12.15625 24.78125 
Q 11.671875 24.125 11.171875 23.484375 
Q 10.6875 22.859375 10.40625 22.515625 
L 34.71875 22.515625 
z
" id="LiberationSans-34"/>
      </defs>
      <g style="fill:#262626;" transform="translate(51.1 252.563364)scale(0.1 -0.1)">
       <use xlink:href="#LiberationSans-30"/>
       <use x="55.615234" xlink:href="#LiberationSans-2e"/>
       <use x="83.398438" xlink:href="#LiberationSans-34"/>
      </g>
     </g>
    </g>
    <g id="ytick_4">
     <g id="line2d_21">
      <path clip-path="url(#pf437187fac)" d="M 72 209.079344 
L 518.4 209.079344 
" style="fill:none;stroke:#ffffff;stroke-linecap:round;"/>
     </g>
     <g id="line2d_22"/>
     <g id="text_11">
      <!-- 0.6 -->
      <defs>
       <path d="M 51.21875 22.515625 
Q 51.21875 17.328125 49.78125 13 
Q 48.34375 8.6875 45.53125 5.578125 
Q 42.71875 2.484375 38.5625 0.75 
Q 34.421875 -0.984375 29 -0.984375 
Q 23 -0.984375 18.5 1.3125 
Q 14.015625 3.609375 11.03125 7.921875 
Q 8.0625 12.25 6.5625 18.53125 
Q 5.078125 24.8125 5.078125 32.8125 
Q 5.078125 42 6.765625 48.921875 
Q 8.453125 55.859375 11.625 60.5 
Q 14.796875 65.140625 19.359375 67.484375 
Q 23.921875 69.828125 29.6875 69.828125 
Q 33.203125 69.828125 36.28125 69.09375 
Q 39.359375 68.359375 41.875 66.71875 
Q 44.390625 65.09375 46.28125 62.40625 
Q 48.1875 59.71875 49.3125 55.8125 
L 40.921875 54.296875 
Q 39.546875 58.734375 36.546875 60.71875 
Q 33.546875 62.703125 29.59375 62.703125 
Q 25.984375 62.703125 23.046875 60.984375 
Q 20.125 59.28125 18.0625 55.875 
Q 16.015625 52.484375 14.90625 47.359375 
Q 13.8125 42.234375 13.8125 35.40625 
Q 16.21875 39.84375 20.5625 42.15625 
Q 24.90625 44.484375 30.515625 44.484375 
Q 35.203125 44.484375 39.015625 42.96875 
Q 42.828125 41.453125 45.53125 38.59375 
Q 48.25 35.75 49.734375 31.671875 
Q 51.21875 27.59375 51.21875 22.515625 
M 42.28125 22.125 
Q 42.28125 25.6875 41.40625 28.5625 
Q 40.53125 31.453125 38.765625 33.46875 
Q 37.015625 35.5 34.421875 36.59375 
Q 31.84375 37.703125 28.421875 37.703125 
Q 26.03125 37.703125 23.578125 36.984375 
Q 21.140625 36.28125 19.15625 34.6875 
Q 17.1875 33.109375 15.9375 30.515625 
Q 14.703125 27.9375 14.703125 24.21875 
Q 14.703125 20.40625 15.671875 17.109375 
Q 16.65625 13.8125 18.484375 11.375 
Q 20.3125 8.9375 22.890625 7.515625 
Q 25.484375 6.109375 28.71875 6.109375 
Q 31.890625 6.109375 34.40625 7.203125 
Q 36.921875 8.296875 38.671875 10.375 
Q 40.4375 12.453125 41.359375 15.421875 
Q 42.28125 18.40625 42.28125 22.125 
" id="LiberationSans-36"/>
      </defs>
      <g style="fill:#262626;" transform="translate(51.1 212.702781)scale(0.1 -0.1)">
       <use xlink:href="#LiberationSans-30"/>
       <use x="55.615234" xlink:href="#LiberationSans-2e"/>
       <use x="83.398438" xlink:href="#LiberationSans-36"/>
      </g>
     </g>
    </g>
    <g id="ytick_5">
     <g id="line2d_23">
      <path clip-path="url(#pf437187fac)" d="M 72 169.218761 
L 518.4 169.218761 
" style="fill:none;stroke:#ffffff;stroke-linecap:round;"/>
     </g>
     <g id="line2d_24"/>
     <g id="text_12">
      <!-- 0.8 -->
      <defs>
       <path d="M 51.265625 19.1875 
Q 51.265625 14.796875 49.875 11.109375 
Q 48.484375 7.421875 45.625 4.734375 
Q 42.78125 2.046875 38.328125 0.53125 
Q 33.890625 -0.984375 27.828125 -0.984375 
Q 21.78125 -0.984375 17.359375 0.53125 
Q 12.9375 2.046875 10.03125 4.703125 
Q 7.125 7.375 5.734375 11.0625 
Q 4.34375 14.75 4.34375 19.09375 
Q 4.34375 22.859375 5.484375 25.78125 
Q 6.640625 28.71875 8.5625 30.828125 
Q 10.5 32.953125 12.96875 34.25 
Q 15.4375 35.546875 18.0625 35.984375 
L 18.0625 36.1875 
Q 15.1875 36.859375 12.90625 38.375 
Q 10.640625 39.890625 9.09375 42.015625 
Q 7.5625 44.140625 6.75 46.71875 
Q 5.953125 49.3125 5.953125 52.203125 
Q 5.953125 55.8125 7.34375 59 
Q 8.734375 62.203125 11.46875 64.625 
Q 14.203125 67.046875 18.25 68.4375 
Q 22.3125 69.828125 27.640625 69.828125 
Q 33.25 69.828125 37.375 68.40625 
Q 41.5 67 44.203125 64.578125 
Q 46.921875 62.15625 48.234375 58.9375 
Q 49.5625 55.71875 49.5625 52.09375 
Q 49.5625 49.265625 48.75 46.671875 
Q 47.953125 44.09375 46.40625 41.96875 
Q 44.875 39.84375 42.59375 38.34375 
Q 40.328125 36.859375 37.359375 36.28125 
L 37.359375 36.078125 
Q 40.328125 35.59375 42.859375 34.296875 
Q 45.40625 33.015625 47.265625 30.890625 
Q 49.125 28.765625 50.1875 25.828125 
Q 51.265625 22.90625 51.265625 19.1875 
M 40.4375 51.609375 
Q 40.4375 54.203125 39.765625 56.34375 
Q 39.109375 58.5 37.59375 60.03125 
Q 36.078125 61.578125 33.640625 62.421875 
Q 31.203125 63.28125 27.640625 63.28125 
Q 24.171875 63.28125 21.78125 62.421875 
Q 19.390625 61.578125 17.84375 60.03125 
Q 16.3125 58.5 15.625 56.34375 
Q 14.9375 54.203125 14.9375 51.609375 
Q 14.9375 49.5625 15.46875 47.40625 
Q 16.015625 45.265625 17.421875 43.5 
Q 18.84375 41.75 21.328125 40.625 
Q 23.828125 39.5 27.734375 39.5 
Q 31.890625 39.5 34.40625 40.625 
Q 36.921875 41.75 38.25 43.5 
Q 39.59375 45.265625 40.015625 47.40625 
Q 40.4375 49.5625 40.4375 51.609375 
M 42.140625 20.015625 
Q 42.140625 22.515625 41.453125 24.828125 
Q 40.765625 27.15625 39.109375 28.9375 
Q 37.453125 30.71875 34.640625 31.8125 
Q 31.84375 32.90625 27.640625 32.90625 
Q 23.78125 32.90625 21.0625 31.8125 
Q 18.359375 30.71875 16.671875 28.90625 
Q 14.984375 27.09375 14.203125 24.71875 
Q 13.421875 22.359375 13.421875 19.828125 
Q 13.421875 16.65625 14.203125 14.03125 
Q 14.984375 11.421875 16.6875 9.546875 
Q 18.40625 7.671875 21.1875 6.640625 
Q 23.96875 5.609375 27.9375 5.609375 
Q 31.9375 5.609375 34.671875 6.640625 
Q 37.40625 7.671875 39.0625 9.546875 
Q 40.71875 11.421875 41.421875 14.078125 
Q 42.140625 16.75 42.140625 20.015625 
" id="LiberationSans-38"/>
      </defs>
      <g style="fill:#262626;" transform="translate(51.1 172.842198)scale(0.1 -0.1)">
       <use xlink:href="#LiberationSans-30"/>
       <use x="55.615234" xlink:href="#LiberationSans-2e"/>
       <use x="83.398438" xlink:href="#LiberationSans-38"/>
      </g>
     </g>
    </g>
    <g id="ytick_6">
     <g id="line2d_25">
      <path clip-path="url(#pf437187fac)" d="M 72 129.358178 
L 518.4 129.358178 
" style="fill:none;stroke:#ffffff;stroke-linecap:round;"/>
     </g>
     <g id="line2d_26"/>
     <g id="text_13">
      <!-- 1.0 -->
      <g style="fill:#262626;" transform="translate(51.1 132.981615)scale(0.1 -0.1)">
       <use xlink:href="#LiberationSans-31"/>
       <use x="55.615234" xlink:href="#LiberationSans-2e"/>
       <use x="83.398438" xlink:href="#LiberationSans-30"/>
      </g>
     </g>
    </g>
    <g id="ytick_7">
     <g id="line2d_27">
      <path clip-path="url(#pf437187fac)" d="M 72 89.497595 
L 518.4 89.497595 
" style="fill:none;stroke:#ffffff;stroke-linecap:round;"/>
     </g>
     <g id="line2d_28"/>
     <g id="text_14">
      <!-- 1.2 -->
      <g style="fill:#262626;" transform="translate(51.1 93.121032)scale(0.1 -0.1)">
       <use xlink:href="#LiberationSans-31"/>
       <use x="55.615234" xlink:href="#LiberationSans-2e"/>
       <use x="83.398438" xlink:href="#LiberationSans-32"/>
      </g>
     </g>
    </g>
    <g id="ytick_8">
     <g id="line2d_29">
      <path clip-path="url(#pf437187fac)" d="M 72 49.637012 
L 518.4 49.637012 
" style="fill:none;stroke:#ffffff;stroke-linecap:round;"/>
     </g>
     <g id="line2d_30"/>
     <g id="text_15">
      <!-- 1.4 -->
      <g style="fill:#262626;" transform="translate(51.1 53.260449)scale(0.1 -0.1)">
       <use xlink:href="#LiberationSans-31"/>
       <use x="55.615234" xlink:href="#LiberationSans-2e"/>
       <use x="83.398438" xlink:href="#LiberationSans-34"/>
      </g>
     </g>
    </g>
   </g>
   <g id="line2d_31">
    <path clip-path="url(#pf437187fac)" d="M 92.290909 127.059971 
L 92.865316 123.139327 
L 94.301332 110.052845 
L 95.450145 100.471135 
L 97.173364 86.976626 
L 98.60938 73.092255 
L 99.47099 65.475082 
L 100.045397 62.240456 
L 100.3326 61.474011 
L 100.619803 61.38 
L 100.907006 62.011817 
L 101.19421 63.397515 
L 101.768616 68.402082 
L 102.343023 76.051956 
L 103.491836 96.01064 
L 104.640649 115.123071 
L 105.215055 122.136862 
L 105.789461 126.919413 
L 106.363868 129.561307 
L 106.651071 130.195651 
L 106.938274 130.459992 
L 107.225478 130.426576 
L 107.512681 130.165908 
L 108.087087 129.204681 
L 108.948697 127.196279 
L 109.523104 125.487468 
L 110.09751 123.156864 
L 110.671917 119.772426 
L 111.246323 114.944164 
L 111.82073 108.490284 
L 112.682339 96.18685 
L 114.118356 74.539856 
L 114.692762 68.328443 
L 115.267169 64.817175 
L 115.554372 64.223922 
L 115.841575 64.429589 
L 116.128778 65.415279 
L 116.703185 69.512542 
L 117.277591 75.859048 
L 119.86242 108.743847 
L 120.72403 115.69614 
L 121.872843 122.616592 
L 123.596063 131.64819 
L 124.170469 133.522308 
L 124.457672 133.928403 
L 124.744876 133.870908 
L 125.032079 133.276985 
L 125.319282 132.088143 
L 125.893688 127.792419 
L 126.468095 120.965319 
L 127.329705 106.974944 
L 129.052924 77.253796 
L 129.627331 70.603435 
L 130.201737 66.671305 
L 130.48894 65.754654 
L 130.776144 65.500172 
L 131.063347 65.851063 
L 131.35055 66.732821 
L 131.924957 69.73552 
L 133.07377 78.199137 
L 135.945802 100.748171 
L 136.807412 110.102958 
L 138.530631 130.474546 
L 139.105038 135.043686 
L 139.392241 136.433524 
L 139.679444 137.119701 
L 139.966647 137.049845 
L 140.253851 136.198439 
L 140.541054 134.568879 
L 141.11546 129.134659 
L 141.97707 116.817943 
L 143.70029 89.456616 
L 144.274696 82.81375 
L 144.849102 78.117681 
L 145.423509 75.241855 
L 145.997915 73.795273 
L 146.285119 73.452373 
L 146.859525 73.23632 
L 147.433932 73.38669 
L 148.008338 73.821921 
L 148.582745 74.740261 
L 149.157151 76.556105 
L 149.731558 79.763825 
L 150.305964 84.765327 
L 150.880371 91.707627 
L 151.74198 105.181209 
L 153.4652 133.225983 
L 154.039606 139.21047 
L 154.326809 141.122816 
L 154.614013 142.257092 
L 154.901216 142.606018 
L 155.188419 142.19139 
L 155.475622 141.062223 
L 156.050029 136.971249 
L 156.911639 127.806543 
L 158.634858 108.650061 
L 159.496468 101.492394 
L 162.655704 79.333424 
L 163.23011 76.455545 
L 163.517313 75.612557 
L 163.804517 75.28583 
L 164.09172 75.551724 
L 164.378923 76.469576 
L 164.666126 78.076992 
L 165.240533 83.382197 
L 165.814939 91.233349 
L 166.963752 111.624222 
L 168.112565 131.20869 
L 168.686972 138.259446 
L 169.261378 142.77771 
L 169.548581 144.068984 
L 169.835785 144.755636 
L 170.122988 144.894021 
L 170.410191 144.555562 
L 170.697394 143.821156 
L 171.271801 141.499972 
L 172.707817 133.787543 
L 173.85663 126.88293 
L 174.71824 120 
L 175.579849 110.584568 
L 178.164679 78.200509 
L 178.451882 76.381544 
L 178.739085 75.287322 
L 179.026288 74.96859 
L 179.313492 75.448106 
L 179.600695 76.719122 
L 180.175101 81.463422 
L 180.749508 88.600964 
L 183.334337 125.232459 
L 183.908743 130.158472 
L 184.48315 133.623526 
L 185.057556 136.009822 
L 185.919166 138.493329 
L 186.780776 140.367596 
L 187.355182 141.127157 
L 187.642386 141.214948 
L 187.929589 141.01778 
L 188.216792 140.463488 
L 188.503995 139.483128 
L 189.078402 136.018815 
L 189.652808 130.34556 
L 190.514418 117.9706 
L 192.812044 80.601722 
L 193.38645 75.602724 
L 193.673654 74.220574 
L 193.960857 73.597797 
L 194.24806 73.709832 
L 194.535263 74.506341 
L 195.10967 77.846302 
L 195.97128 85.748186 
L 197.694499 102.988652 
L 201.428141 136.325149 
L 202.289751 143.329822 
L 202.864157 145.842685 
L 203.151361 146.179629 
L 203.438564 145.817554 
L 203.725767 144.72062 
L 204.01297 142.879924 
L 204.587377 137.074633 
L 205.448987 124.168491 
L 207.172206 95.429527 
L 207.746613 88.588202 
L 208.321019 84.045705 
L 208.895426 81.772262 
L 209.182629 81.381844 
L 209.469832 81.402826 
L 209.757035 81.761034 
L 210.331442 83.19459 
L 211.193052 86.260443 
L 212.341865 91.235816 
L 212.916271 94.555079 
L 213.490677 98.963536 
L 214.065084 104.793454 
L 214.926694 116.299404 
L 216.937116 146.535762 
L 217.511523 151.952846 
L 217.798726 153.595626 
L 218.085929 154.45457 
L 218.373133 154.509987 
L 218.660336 153.771873 
L 218.947539 152.279221 
L 219.521946 147.316228 
L 220.383555 136.494928 
L 221.819572 117.28176 
L 222.681181 108.685589 
L 223.542791 102.742038 
L 224.691604 97.061196 
L 226.12762 91.037059 
L 226.702027 89.560083 
L 226.98923 89.290632 
L 227.276433 89.441186 
L 227.563636 90.085969 
L 227.85084 91.287228 
L 228.425246 95.51756 
L 228.999653 102.21451 
L 229.861262 116.045701 
L 231.584482 146.090765 
L 232.158888 152.996304 
L 232.733295 157.161157 
L 233.020498 158.163737 
L 233.307701 158.473752 
L 233.594904 158.142392 
L 233.882108 157.240644 
L 234.456514 154.077211 
L 235.318124 147.353016 
L 237.328547 131.185637 
L 238.47736 121.596562 
L 239.338969 112.668726 
L 241.349392 90.47276 
L 241.923798 86.995001 
L 242.211002 86.230933 
L 242.498205 86.203069 
L 242.785408 86.945189 
L 243.072611 88.462877 
L 243.647018 93.70141 
L 244.221424 101.398315 
L 246.806254 140.741927 
L 247.38066 145.634003 
L 247.955067 148.574097 
L 248.529473 149.927483 
L 248.816676 150.167286 
L 249.10388 150.202522 
L 249.678286 149.875168 
L 250.252693 149.237656 
L 250.827099 148.311459 
L 251.401506 146.847317 
L 251.975912 144.412055 
L 252.550318 140.5389 
L 253.124725 134.900986 
L 253.986335 123.155482 
L 256.283961 87.966271 
L 256.858367 83.431616 
L 257.14557 82.310885 
L 257.432774 81.985947 
L 257.719977 82.443608 
L 258.00718 83.642473 
L 258.581587 87.975299 
L 259.443196 97.786533 
L 261.166416 118.793173 
L 262.028025 126.683324 
L 263.464042 137.117604 
L 265.474464 150.957991 
L 266.048871 153.324109 
L 266.336074 153.837418 
L 266.623277 153.796136 
L 266.910481 153.136222 
L 267.197684 151.813451 
L 267.77209 147.124422 
L 268.346497 139.8911 
L 269.208107 125.658824 
L 270.644123 101.458917 
L 271.218529 94.596069 
L 271.792936 90.297508 
L 272.080139 89.14958 
L 272.367342 88.637959 
L 272.654545 88.711068 
L 272.941749 89.300031 
L 273.516155 91.696304 
L 274.377765 97.066687 
L 276.675391 113.425143 
L 277.537001 121.443149 
L 278.39861 131.798539 
L 280.409033 158.501536 
L 280.983439 163.177471 
L 281.270643 164.499863 
L 281.557846 165.059657 
L 281.845049 164.825513 
L 282.132252 163.795155 
L 282.419456 161.995888 
L 282.993862 156.339472 
L 283.855472 144.226895 
L 285.291488 122.72464 
L 286.153098 113.452779 
L 286.727504 109.387087 
L 287.301911 106.761536 
L 287.876317 105.144742 
L 288.450724 104.099222 
L 289.312334 103.049717 
L 289.88674 102.761827 
L 290.173943 102.860031 
L 290.461146 103.202046 
L 290.74835 103.856935 
L 291.035553 104.893032 
L 291.609959 108.344185 
L 292.184366 113.876291 
L 292.758772 121.480478 
L 293.907585 140.908943 
L 295.056398 159.700068 
L 295.630805 166.269492 
L 296.205211 169.988454 
L 296.492415 170.693842 
L 296.779618 170.642022 
L 297.066821 169.876357 
L 297.354024 168.463951 
L 297.928431 164.057944 
L 299.077244 151.861632 
L 300.226057 139.865347 
L 301.37487 130.035835 
L 303.098089 115.39132 
L 304.534105 102.526286 
L 305.108512 99.04488 
L 305.395715 98.043587 
L 305.682918 97.649201 
L 305.970122 97.926926 
L 306.257325 98.919862 
L 306.544528 100.645386 
L 307.118935 106.223282 
L 307.693341 114.239729 
L 310.27817 155.156811 
L 310.852577 159.925648 
L 311.426983 162.320041 
L 311.714186 162.717806 
L 312.00139 162.665828 
L 312.288593 162.239172 
L 312.862999 160.572138 
L 313.724609 157.026461 
L 314.873422 151.579471 
L 315.735032 146.268645 
L 316.309438 141.439858 
L 317.171048 131.633115 
L 318.319861 114.764733 
L 319.468674 98.751908 
L 320.04308 93.462652 
L 320.330284 91.856993 
L 320.617487 91.027556 
L 320.90469 91.002809 
L 321.191893 91.781686 
L 321.479097 93.333655 
L 322.053503 98.499012 
L 322.915113 109.88934 
L 324.638332 134.098699 
L 325.499942 142.544658 
L 326.361552 148.284435 
L 327.510365 153.814536 
L 328.659178 158.523702 
L 329.233584 160.123805 
L 329.520787 160.512261 
L 329.807991 160.522519 
L 330.095194 160.079888 
L 330.382397 159.119206 
L 330.956804 155.462877 
L 331.53121 149.410592 
L 332.39282 136.519289 
L 334.116039 107.668989 
L 334.690446 100.97448 
L 335.264852 97.015634 
L 335.552056 96.13635 
L 335.839259 95.97384 
L 336.126462 96.483215 
L 336.413665 97.59786 
L 336.988072 101.297762 
L 337.849682 109.062565 
L 339.572901 125.177165 
L 341.29612 140.626696 
L 342.444933 153.459384 
L 343.593746 166.49597 
L 344.168153 171.297437 
L 344.455356 172.90104 
L 344.742559 173.854779 
L 345.029763 174.093038 
L 345.316966 173.574276 
L 345.604169 172.284195 
L 346.178576 167.477594 
L 346.752982 160.127712 
L 348.188998 136.60957 
L 349.050608 124.171393 
L 349.625014 118.18246 
L 350.199421 114.312863 
L 350.773827 112.378666 
L 351.061031 112.004562 
L 351.348234 111.936412 
L 351.635437 112.105483 
L 352.209844 112.91175 
L 353.071453 114.720294 
L 353.64586 116.279036 
L 354.220266 118.427404 
L 354.794673 121.606886 
L 355.369079 126.244958 
L 355.943486 132.584609 
L 356.805096 145.017308 
L 358.528315 171.989304 
L 359.102721 178.028708 
L 359.389925 180.00595 
L 359.677128 181.207839 
L 359.964331 181.609221 
L 360.251534 181.214539 
L 360.538738 180.057178 
L 361.113144 175.717893 
L 361.974754 165.632787 
L 363.697973 143.515879 
L 364.559583 135.251668 
L 365.708396 126.909767 
L 368.006022 112.254295 
L 368.580428 110.011396 
L 368.867632 109.503024 
L 369.154835 109.512624 
L 369.442038 110.10808 
L 369.729241 111.339531 
L 370.303648 115.796777 
L 370.878054 122.793082 
L 371.739664 136.807868 
L 373.17568 161.262429 
L 373.750087 168.380107 
L 374.324493 172.928385 
L 374.611697 174.177077 
L 374.8989 174.763252 
L 375.186103 174.732872 
L 375.473306 174.151302 
L 376.047713 171.6617 
L 376.909323 165.936296 
L 379.781355 144.128321 
L 380.642965 135.219169 
L 382.078981 116.733506 
L 382.940591 106.654755 
L 383.514997 102.186532 
L 383.8022 100.930738 
L 384.089404 100.421317 
L 384.376607 100.697758 
L 384.66381 101.771167 
L 384.951013 103.623148 
L 385.52542 109.44631 
L 386.38703 122.044246 
L 388.110249 148.780067 
L 388.684655 155.132696 
L 389.259062 159.682481 
L 389.833468 162.639444 
L 390.407875 164.427062 
L 390.982281 165.513927 
L 391.843891 166.525665 
L 392.418298 166.838493 
L 392.705501 166.795386 
L 392.992704 166.545793 
L 393.279907 166.024647 
L 393.567111 165.165156 
L 394.141517 162.189447 
L 394.715924 157.262387 
L 395.29033 150.329244 
L 396.15194 136.998199 
L 397.587956 114.161516 
L 398.162362 107.832721 
L 398.736769 104.313089 
L 399.023972 103.713612 
L 399.311175 103.887015 
L 399.598379 104.797453 
L 400.172785 108.56376 
L 400.747192 114.301072 
L 403.619224 146.395316 
L 407.352866 178.446785 
L 407.927273 181.168527 
L 408.214476 181.709874 
L 408.501679 181.606662 
L 408.788882 180.809221 
L 409.076086 179.292174 
L 409.650492 174.134367 
L 410.224899 166.483461 
L 411.660915 142.054238 
L 412.522525 129.116747 
L 413.096931 123.039837 
L 413.671338 119.427737 
L 413.958541 118.529586 
L 414.245744 118.181657 
L 414.532947 118.320548 
L 414.820151 118.871392 
L 415.394557 120.887023 
L 416.54337 126.62543 
L 417.979386 134.850975 
L 418.840996 141.592971 
L 419.702606 151.00619 
L 420.851419 167.228877 
L 422.000232 182.934241 
L 422.574638 188.253001 
L 422.861841 189.90763 
L 423.149045 190.799401 
L 423.436248 190.891381 
L 423.723451 190.175763 
L 424.010654 188.674413 
L 424.585061 183.542344 
L 425.446671 171.964155 
L 427.16989 146.725987 
L 428.0315 137.858002 
L 428.605906 133.700151 
L 429.467516 129.282851 
L 430.616329 124.843469 
L 431.477939 122.184945 
L 431.765142 121.608086 
L 432.052345 121.295468 
L 432.339548 121.32245 
L 432.626752 121.763191 
L 432.913955 122.684807 
L 433.488361 126.170667 
L 434.062768 131.978976 
L 434.924378 144.525082 
L 436.9348 177.177137 
L 437.509207 182.813172 
L 437.79641 184.560562 
L 438.083613 185.561549 
L 438.370816 185.827312 
L 438.65802 185.395741 
L 438.945223 184.328204 
L 439.519629 180.620354 
L 440.381239 172.613502 
L 442.104459 155.907939 
L 444.402085 135.516303 
L 446.412507 115.006184 
L 446.986914 111.524961 
L 447.274117 110.670632 
L 447.56132 110.507766 
L 447.848523 111.085033 
L 448.135727 112.425054 
L 448.710133 117.341554 
L 449.28454 124.870505 
L 450.433353 144.36687 
L 451.582166 162.72019 
L 452.156572 169.314378 
L 452.730979 173.708403 
L 453.305385 176.030982 
L 453.592588 176.539584 
L 453.879792 176.702629 
L 454.166995 176.592107 
L 454.741401 175.818135 
L 455.603011 173.97857 
L 456.464621 171.555864 
L 457.039027 169.206125 
L 457.613434 165.770437 
L 458.18784 160.87198 
L 459.04945 150.541088 
L 461.347076 117.824447 
L 461.921482 113.378339 
L 462.208686 112.270637 
L 462.495889 111.960994 
L 462.783092 112.453836 
L 463.070295 113.724159 
L 463.644702 118.361392 
L 464.506312 129.127515 
L 466.229531 153.147741 
L 467.091141 162.189727 
L 467.95275 169.000385 
L 469.963173 182.003226 
L 470.824783 186.502832 
L 471.111986 187.477961 
L 471.399189 188.0518 
L 471.686393 188.143612 
L 471.973596 187.682652 
L 472.260799 186.613714 
L 472.835206 182.536532 
L 473.409612 175.935092 
L 474.271222 162.388418 
L 475.707238 138.084501 
L 476.281644 130.851061 
L 476.856051 126.174261 
L 477.143254 124.879167 
L 477.430457 124.269384 
L 477.717661 124.305373 
L 478.004864 124.926246 
L 478.57927 127.601892 
L 479.44088 133.83521 
L 482.887319 162.189601 
L 484.036132 175.501533 
L 485.472148 192.534059 
L 486.046555 196.951496 
L 486.333758 198.226152 
L 486.620961 198.776335 
L 486.908164 198.554911 
L 487.195368 197.542194 
L 487.482571 195.747672 
L 488.056977 189.996142 
L 488.918587 177.305427 
L 490.641807 149.67271 
L 491.216213 142.997664 
L 491.79062 138.232856 
L 492.365026 135.218549 
L 492.939433 133.546869 
L 493.513839 132.725562 
L 494.088246 132.349689 
L 494.662652 132.235158 
L 494.949855 132.295319 
L 495.237058 132.47856 
L 495.524262 132.83588 
L 495.811465 133.427416 
L 496.385871 135.568674 
L 496.960278 139.365042 
L 497.534684 145.082866 
L 498.109091 152.658175 
L 498.109091 152.658175 
" style="fill:none;stroke:#4c72b0;stroke-linecap:round;stroke-width:1.75;"/>
   </g>
   <g id="line2d_32">
    <path clip-path="url(#pf437187fac)" d="M 92.290909 338.574532 
L 498.109091 338.58 
L 498.109091 338.58 
" style="fill:none;stroke:#55a868;stroke-linecap:round;stroke-width:1.75;"/>
   </g>
   <g id="patch_3">
    <path d="M 72 352.44 
L 72 47.52 
" style="fill:none;"/>
   </g>
   <g id="patch_4">
    <path d="M 518.4 352.44 
L 518.4 47.52 
" style="fill:none;"/>
   </g>
   <g id="patch_5">
    <path d="M 72 352.44 
L 518.4 352.44 
" style="fill:none;"/>
   </g>
   <g id="patch_6">
    <path d="M 72 47.52 
L 518.4 47.52 
" style="fill:none;"/>
   </g>
   <g id="legend_1">
    <g id="line2d_33">
     <path d="M 475.839062 60.266875 
L 495.839062 60.266875 
" style="fill:none;stroke:#4c72b0;stroke-linecap:round;stroke-width:1.75;"/>
    </g>
    <g id="line2d_34"/>
    <g id="text_16">
     <!-- a -->
     <defs>
      <path d="M 20.21875 -0.984375 
Q 12.25 -0.984375 8.25 3.21875 
Q 4.25 7.421875 4.25 14.75 
Q 4.25 19.96875 6.21875 23.3125 
Q 8.203125 26.65625 11.390625 28.5625 
Q 14.59375 30.46875 18.6875 31.203125 
Q 22.796875 31.9375 27.046875 32.03125 
L 38.921875 32.234375 
L 38.921875 35.109375 
Q 38.921875 38.375 38.234375 40.671875 
Q 37.546875 42.96875 36.125 44.375 
Q 34.71875 45.796875 32.59375 46.453125 
Q 30.46875 47.125 27.59375 47.125 
Q 25.046875 47.125 23 46.75 
Q 20.953125 46.390625 19.4375 45.4375 
Q 17.921875 44.484375 16.984375 42.84375 
Q 16.0625 41.21875 15.765625 38.71875 
L 6.59375 39.546875 
Q 7.078125 42.671875 8.4375 45.28125 
Q 9.8125 47.90625 12.328125 49.796875 
Q 14.84375 51.703125 18.625 52.75 
Q 22.40625 53.8125 27.78125 53.8125 
Q 37.75 53.8125 42.765625 49.234375 
Q 47.796875 44.671875 47.796875 36.03125 
L 47.796875 13.28125 
Q 47.796875 9.375 48.828125 7.390625 
Q 49.859375 5.421875 52.734375 5.421875 
Q 53.46875 5.421875 54.203125 5.515625 
Q 54.9375 5.609375 55.609375 5.765625 
L 55.609375 0.296875 
Q 53.953125 -0.09375 52.3125 -0.28125 
Q 50.6875 -0.484375 48.828125 -0.484375 
Q 46.34375 -0.484375 44.5625 0.171875 
Q 42.78125 0.828125 41.65625 2.171875 
Q 40.53125 3.515625 39.9375 5.484375 
Q 39.359375 7.46875 39.203125 10.109375 
L 38.921875 10.109375 
Q 37.5 7.5625 35.8125 5.515625 
Q 34.125 3.46875 31.875 2.03125 
Q 29.640625 0.59375 26.78125 -0.1875 
Q 23.921875 -0.984375 20.21875 -0.984375 
M 22.21875 5.609375 
Q 26.421875 5.609375 29.5625 7.140625 
Q 32.71875 8.6875 34.78125 11.078125 
Q 36.859375 13.484375 37.890625 16.3125 
Q 38.921875 19.140625 38.921875 21.734375 
L 38.921875 26.078125 
L 29.296875 25.875 
Q 26.078125 25.828125 23.171875 25.40625 
Q 20.265625 25 18.0625 23.78125 
Q 15.875 22.5625 14.578125 20.359375 
Q 13.28125 18.171875 13.28125 14.59375 
Q 13.28125 10.296875 15.59375 7.953125 
Q 17.921875 5.609375 22.21875 5.609375 
" id="LiberationSans-61"/>
     </defs>
     <g style="fill:#262626;" transform="translate(503.839062 63.766875)scale(0.1 -0.1)">
      <use xlink:href="#LiberationSans-61"/>
     </g>
    </g>
    <g id="line2d_35">
     <path d="M 475.839062 74.58875 
L 495.839062 74.58875 
" style="fill:none;stroke:#55a868;stroke-linecap:round;stroke-width:1.75;"/>
    </g>
    <g id="line2d_36"/>
    <g id="text_17">
     <!-- b -->
     <defs>
      <path d="M 51.421875 26.65625 
Q 51.421875 -0.984375 31.984375 -0.984375 
Q 25.984375 -0.984375 22 1.1875 
Q 18.015625 3.375 15.53125 8.203125 
L 15.4375 8.203125 
Q 15.4375 6.9375 15.359375 5.5625 
Q 15.28125 4.203125 15.203125 3.03125 
Q 15.140625 1.859375 15.0625 1.03125 
Q 14.984375 0.203125 14.9375 0 
L 6.453125 0 
Q 6.5 0.4375 6.546875 1.484375 
Q 6.59375 2.546875 6.640625 4 
Q 6.6875 5.46875 6.703125 7.21875 
Q 6.734375 8.984375 6.734375 10.890625 
L 6.734375 72.46875 
L 15.53125 72.46875 
L 15.53125 51.8125 
Q 15.53125 50.34375 15.5 49 
Q 15.484375 47.65625 15.4375 46.625 
Q 15.375 45.40625 15.328125 44.34375 
L 15.53125 44.34375 
Q 17.96875 49.421875 22 51.609375 
Q 26.03125 53.8125 31.984375 53.8125 
Q 42 53.8125 46.703125 47.0625 
Q 51.421875 40.328125 51.421875 26.65625 
M 42.1875 26.375 
Q 42.1875 31.84375 41.5 35.75 
Q 40.828125 39.65625 39.3125 42.15625 
Q 37.796875 44.671875 35.453125 45.84375 
Q 33.109375 47.015625 29.734375 47.015625 
Q 26.265625 47.015625 23.609375 45.890625 
Q 20.953125 44.78125 19.171875 42.28125 
Q 17.390625 39.796875 16.453125 35.734375 
Q 15.53125 31.6875 15.53125 25.828125 
Q 15.53125 20.171875 16.453125 16.3125 
Q 17.390625 12.453125 19.171875 10.03125 
Q 20.953125 7.625 23.578125 6.5625 
Q 26.21875 5.515625 29.640625 5.515625 
Q 32.859375 5.515625 35.203125 6.640625 
Q 37.546875 7.765625 39.109375 10.25 
Q 40.671875 12.75 41.421875 16.71875 
Q 42.1875 20.703125 42.1875 26.375 
" id="LiberationSans-62"/>
     </defs>
     <g style="fill:#262626;" transform="translate(503.839062 78.08875)scale(0.1 -0.1)">
      <use xlink:href="#LiberationSans-62"/>
     </g>
    </g>
   </g>
  </g>
 </g>
 <defs>
  <clipPath id="pf437187fac">
   <rect height="304.92" width="446.4" x="72" y="47.52"/>
  </clipPath>
 </defs>
</svg>
