<?xml version="1.0" encoding="utf-8" standalone="no"?>
<!DOCTYPE svg PUBLIC "-//W3C//DTD SVG 1.1//EN"
  "http://www.w3.org/Graphics/SVG/1.1/DTD/svg11.dtd">
<!-- Created with matplotlib (http://matplotlib.org/) -->
<svg height="396pt" version="1.1" viewBox="0 0 576 396" width="576pt" xmlns="http://www.w3.org/2000/svg" xmlns:xlink="http://www.w3.org/1999/xlink">
 <defs>
  <style type="text/css">
*{stroke-linecap:butt;stroke-linejoin:round;}
  </style>
 </defs>
 <g id="figure_1">
  <g id="patch_1">
   <path d="M 0 396 
L 576 396 
L 576 0 
L 0 0 
z
" style="fill:#ffffff;"/>
  </g>
  <g id="axes_1">
   <g id="patch_2">
    <path d="M 72 352.44 
L 518.4 352.44 
L 518.4 47.52 
L 72 47.52 
z
" style="fill:#eaeaf2;"/>
   </g>
   <g id="matplotlib.axis_1">
    <g id="xtick_1">
     <g id="line2d_1">
      <path clip-path="url(#p612bb88feb)" d="M 92.290909 352.44 
L 92.290909 47.52 
" style="fill:none;stroke:#ffffff;stroke-linecap:round;"/>
     </g>
     <g id="line2d_2"/>
     <g id="text_1">
      <!-- 0 -->
      <defs>
       <path d="M 51.703125 34.421875 
Q 51.703125 24.515625 49.828125 17.75 
Q 47.953125 10.984375 44.703125 6.8125 
Q 41.453125 2.640625 37.0625 0.828125 
Q 32.671875 -0.984375 27.6875 -0.984375 
Q 22.65625 -0.984375 18.3125 0.828125 
Q 13.96875 2.640625 10.765625 6.78125 
Q 7.5625 10.9375 5.734375 17.703125 
Q 3.90625 24.46875 3.90625 34.421875 
Q 3.90625 44.828125 5.734375 51.640625 
Q 7.5625 58.453125 10.78125 62.5 
Q 14.015625 66.546875 18.40625 68.1875 
Q 22.796875 69.828125 27.984375 69.828125 
Q 32.90625 69.828125 37.21875 68.1875 
Q 41.546875 66.546875 44.765625 62.5 
Q 48 58.453125 49.84375 51.640625 
Q 51.703125 44.828125 51.703125 34.421875 
M 42.78125 34.421875 
Q 42.78125 42.625 41.796875 48.0625 
Q 40.828125 53.515625 38.921875 56.765625 
Q 37.015625 60.015625 34.25 61.359375 
Q 31.5 62.703125 27.984375 62.703125 
Q 24.265625 62.703125 21.4375 61.328125 
Q 18.609375 59.96875 16.671875 56.71875 
Q 14.75 53.46875 13.765625 48.015625 
Q 12.796875 42.578125 12.796875 34.421875 
Q 12.796875 26.515625 13.796875 21.09375 
Q 14.796875 15.671875 16.71875 12.375 
Q 18.65625 9.078125 21.4375 7.640625 
Q 24.21875 6.203125 27.78125 6.203125 
Q 31.25 6.203125 34.03125 7.640625 
Q 36.8125 9.078125 38.734375 12.375 
Q 40.671875 15.671875 41.71875 21.09375 
Q 42.78125 26.515625 42.78125 34.421875 
" id="LiberationSans-30"/>
      </defs>
      <g style="fill:#262626;" transform="translate(89.51044 366.686875)scale(0.1 -0.1)">
       <use xlink:href="#LiberationSans-30"/>
      </g>
     </g>
    </g>
    <g id="xtick_2">
     <g id="line2d_3">
      <path clip-path="url(#p612bb88feb)" d="M 149.812976 352.44 
L 149.812976 47.52 
" style="fill:none;stroke:#ffffff;stroke-linecap:round;"/>
     </g>
     <g id="line2d_4"/>
     <g id="text_2">
      <!-- 200 -->
      <defs>
       <path d="M 5.03125 0 
L 5.03125 6.203125 
Q 7.515625 11.921875 11.109375 16.28125 
Q 14.703125 20.65625 18.65625 24.1875 
Q 22.609375 27.734375 26.484375 30.765625 
Q 30.375 33.796875 33.5 36.8125 
Q 36.625 39.84375 38.546875 43.15625 
Q 40.484375 46.484375 40.484375 50.6875 
Q 40.484375 53.609375 39.59375 55.828125 
Q 38.71875 58.0625 37.0625 59.5625 
Q 35.40625 61.078125 33.078125 61.828125 
Q 30.765625 62.59375 27.9375 62.59375 
Q 25.296875 62.59375 22.96875 61.859375 
Q 20.65625 61.140625 18.84375 59.671875 
Q 17.046875 58.203125 15.890625 56.03125 
Q 14.75 53.859375 14.40625 50.984375 
L 5.421875 51.8125 
Q 5.859375 55.515625 7.46875 58.78125 
Q 9.078125 62.0625 11.90625 64.53125 
Q 14.75 67 18.71875 68.40625 
Q 22.703125 69.828125 27.9375 69.828125 
Q 33.0625 69.828125 37.0625 68.609375 
Q 41.0625 67.390625 43.8125 64.984375 
Q 46.578125 62.59375 48.046875 59.078125 
Q 49.515625 55.5625 49.515625 50.984375 
Q 49.515625 47.515625 48.265625 44.390625 
Q 47.015625 41.265625 44.9375 38.421875 
Q 42.875 35.59375 40.140625 32.953125 
Q 37.40625 30.328125 34.421875 27.8125 
Q 31.453125 25.296875 28.421875 22.828125 
Q 25.390625 20.359375 22.71875 17.859375 
Q 20.0625 15.375 17.96875 12.8125 
Q 15.875 10.25 14.703125 7.46875 
L 50.59375 7.46875 
L 50.59375 0 
z
" id="LiberationSans-32"/>
      </defs>
      <g style="fill:#262626;" transform="translate(141.47157 366.686875)scale(0.1 -0.1)">
       <use xlink:href="#LiberationSans-32"/>
       <use x="55.615234" xlink:href="#LiberationSans-30"/>
       <use x="111.230469" xlink:href="#LiberationSans-30"/>
      </g>
     </g>
    </g>
    <g id="xtick_3">
     <g id="line2d_5">
      <path clip-path="url(#p612bb88feb)" d="M 207.335043 352.44 
L 207.335043 47.52 
" style="fill:none;stroke:#ffffff;stroke-linecap:round;"/>
     </g>
     <g id="line2d_6"/>
     <g id="text_3">
      <!-- 400 -->
      <defs>
       <path d="M 43.015625 15.578125 
L 43.015625 0 
L 34.71875 0 
L 34.71875 15.578125 
L 2.296875 15.578125 
L 2.296875 22.40625 
L 33.796875 68.796875 
L 43.015625 68.796875 
L 43.015625 22.515625 
L 52.6875 22.515625 
L 52.6875 15.578125 
z
M 34.71875 58.890625 
Q 34.625 58.640625 34.234375 57.9375 
Q 33.84375 57.234375 33.34375 56.34375 
Q 32.859375 55.46875 32.34375 54.5625 
Q 31.84375 53.65625 31.453125 53.078125 
L 13.8125 27.09375 
Q 13.578125 26.703125 13.109375 26.0625 
Q 12.640625 25.4375 12.15625 24.78125 
Q 11.671875 24.125 11.171875 23.484375 
Q 10.6875 22.859375 10.40625 22.515625 
L 34.71875 22.515625 
z
" id="LiberationSans-34"/>
      </defs>
      <g style="fill:#262626;" transform="translate(198.993637 366.686875)scale(0.1 -0.1)">
       <use xlink:href="#LiberationSans-34"/>
       <use x="55.615234" xlink:href="#LiberationSans-30"/>
       <use x="111.230469" xlink:href="#LiberationSans-30"/>
      </g>
     </g>
    </g>
    <g id="xtick_4">
     <g id="line2d_7">
      <path clip-path="url(#p612bb88feb)" d="M 264.85711 352.44 
L 264.85711 47.52 
" style="fill:none;stroke:#ffffff;stroke-linecap:round;"/>
     </g>
     <g id="line2d_8"/>
     <g id="text_4">
      <!-- 600 -->
      <defs>
       <path d="M 51.21875 22.515625 
Q 51.21875 17.328125 49.78125 13 
Q 48.34375 8.6875 45.53125 5.578125 
Q 42.71875 2.484375 38.5625 0.75 
Q 34.421875 -0.984375 29 -0.984375 
Q 23 -0.984375 18.5 1.3125 
Q 14.015625 3.609375 11.03125 7.921875 
Q 8.0625 12.25 6.5625 18.53125 
Q 5.078125 24.8125 5.078125 32.8125 
Q 5.078125 42 6.765625 48.921875 
Q 8.453125 55.859375 11.625 60.5 
Q 14.796875 65.140625 19.359375 67.484375 
Q 23.921875 69.828125 29.6875 69.828125 
Q 33.203125 69.828125 36.28125 69.09375 
Q 39.359375 68.359375 41.875 66.71875 
Q 44.390625 65.09375 46.28125 62.40625 
Q 48.1875 59.71875 49.3125 55.8125 
L 40.921875 54.296875 
Q 39.546875 58.734375 36.546875 60.71875 
Q 33.546875 62.703125 29.59375 62.703125 
Q 25.984375 62.703125 23.046875 60.984375 
Q 20.125 59.28125 18.0625 55.875 
Q 16.015625 52.484375 14.90625 47.359375 
Q 13.8125 42.234375 13.8125 35.40625 
Q 16.21875 39.84375 20.5625 42.15625 
Q 24.90625 44.484375 30.515625 44.484375 
Q 35.203125 44.484375 39.015625 42.96875 
Q 42.828125 41.453125 45.53125 38.59375 
Q 48.25 35.75 49.734375 31.671875 
Q 51.21875 27.59375 51.21875 22.515625 
M 42.28125 22.125 
Q 42.28125 25.6875 41.40625 28.5625 
Q 40.53125 31.453125 38.765625 33.46875 
Q 37.015625 35.5 34.421875 36.59375 
Q 31.84375 37.703125 28.421875 37.703125 
Q 26.03125 37.703125 23.578125 36.984375 
Q 21.140625 36.28125 19.15625 34.6875 
Q 17.1875 33.109375 15.9375 30.515625 
Q 14.703125 27.9375 14.703125 24.21875 
Q 14.703125 20.40625 15.671875 17.109375 
Q 16.65625 13.8125 18.484375 11.375 
Q 20.3125 8.9375 22.890625 7.515625 
Q 25.484375 6.109375 28.71875 6.109375 
Q 31.890625 6.109375 34.40625 7.203125 
Q 36.921875 8.296875 38.671875 10.375 
Q 40.4375 12.453125 41.359375 15.421875 
Q 42.28125 18.40625 42.28125 22.125 
" id="LiberationSans-36"/>
      </defs>
      <g style="fill:#262626;" transform="translate(256.515703 366.686875)scale(0.1 -0.1)">
       <use xlink:href="#LiberationSans-36"/>
       <use x="55.615234" xlink:href="#LiberationSans-30"/>
       <use x="111.230469" xlink:href="#LiberationSans-30"/>
      </g>
     </g>
    </g>
    <g id="xtick_5">
     <g id="line2d_9">
      <path clip-path="url(#p612bb88feb)" d="M 322.379177 352.44 
L 322.379177 47.52 
" style="fill:none;stroke:#ffffff;stroke-linecap:round;"/>
     </g>
     <g id="line2d_10"/>
     <g id="text_5">
      <!-- 800 -->
      <defs>
       <path d="M 51.265625 19.1875 
Q 51.265625 14.796875 49.875 11.109375 
Q 48.484375 7.421875 45.625 4.734375 
Q 42.78125 2.046875 38.328125 0.53125 
Q 33.890625 -0.984375 27.828125 -0.984375 
Q 21.78125 -0.984375 17.359375 0.53125 
Q 12.9375 2.046875 10.03125 4.703125 
Q 7.125 7.375 5.734375 11.0625 
Q 4.34375 14.75 4.34375 19.09375 
Q 4.34375 22.859375 5.484375 25.78125 
Q 6.640625 28.71875 8.5625 30.828125 
Q 10.5 32.953125 12.96875 34.25 
Q 15.4375 35.546875 18.0625 35.984375 
L 18.0625 36.1875 
Q 15.1875 36.859375 12.90625 38.375 
Q 10.640625 39.890625 9.09375 42.015625 
Q 7.5625 44.140625 6.75 46.71875 
Q 5.953125 49.3125 5.953125 52.203125 
Q 5.953125 55.8125 7.34375 59 
Q 8.734375 62.203125 11.46875 64.625 
Q 14.203125 67.046875 18.25 68.4375 
Q 22.3125 69.828125 27.640625 69.828125 
Q 33.25 69.828125 37.375 68.40625 
Q 41.5 67 44.203125 64.578125 
Q 46.921875 62.15625 48.234375 58.9375 
Q 49.5625 55.71875 49.5625 52.09375 
Q 49.5625 49.265625 48.75 46.671875 
Q 47.953125 44.09375 46.40625 41.96875 
Q 44.875 39.84375 42.59375 38.34375 
Q 40.328125 36.859375 37.359375 36.28125 
L 37.359375 36.078125 
Q 40.328125 35.59375 42.859375 34.296875 
Q 45.40625 33.015625 47.265625 30.890625 
Q 49.125 28.765625 50.1875 25.828125 
Q 51.265625 22.90625 51.265625 19.1875 
M 40.4375 51.609375 
Q 40.4375 54.203125 39.765625 56.34375 
Q 39.109375 58.5 37.59375 60.03125 
Q 36.078125 61.578125 33.640625 62.421875 
Q 31.203125 63.28125 27.640625 63.28125 
Q 24.171875 63.28125 21.78125 62.421875 
Q 19.390625 61.578125 17.84375 60.03125 
Q 16.3125 58.5 15.625 56.34375 
Q 14.9375 54.203125 14.9375 51.609375 
Q 14.9375 49.5625 15.46875 47.40625 
Q 16.015625 45.265625 17.421875 43.5 
Q 18.84375 41.75 21.328125 40.625 
Q 23.828125 39.5 27.734375 39.5 
Q 31.890625 39.5 34.40625 40.625 
Q 36.921875 41.75 38.25 43.5 
Q 39.59375 45.265625 40.015625 47.40625 
Q 40.4375 49.5625 40.4375 51.609375 
M 42.140625 20.015625 
Q 42.140625 22.515625 41.453125 24.828125 
Q 40.765625 27.15625 39.109375 28.9375 
Q 37.453125 30.71875 34.640625 31.8125 
Q 31.84375 32.90625 27.640625 32.90625 
Q 23.78125 32.90625 21.0625 31.8125 
Q 18.359375 30.71875 16.671875 28.90625 
Q 14.984375 27.09375 14.203125 24.71875 
Q 13.421875 22.359375 13.421875 19.828125 
Q 13.421875 16.65625 14.203125 14.03125 
Q 14.984375 11.421875 16.6875 9.546875 
Q 18.40625 7.671875 21.1875 6.640625 
Q 23.96875 5.609375 27.9375 5.609375 
Q 31.9375 5.609375 34.671875 6.640625 
Q 37.40625 7.671875 39.0625 9.546875 
Q 40.71875 11.421875 41.421875 14.078125 
Q 42.140625 16.75 42.140625 20.015625 
" id="LiberationSans-38"/>
      </defs>
      <g style="fill:#262626;" transform="translate(314.03777 366.686875)scale(0.1 -0.1)">
       <use xlink:href="#LiberationSans-38"/>
       <use x="55.615234" xlink:href="#LiberationSans-30"/>
       <use x="111.230469" xlink:href="#LiberationSans-30"/>
      </g>
     </g>
    </g>
    <g id="xtick_6">
     <g id="line2d_11">
      <path clip-path="url(#p612bb88feb)" d="M 379.901243 352.44 
L 379.901243 47.52 
" style="fill:none;stroke:#ffffff;stroke-linecap:round;"/>
     </g>
     <g id="line2d_12"/>
     <g id="text_6">
      <!-- 1000 -->
      <defs>
       <path d="M 7.625 0 
L 7.625 7.46875 
L 25.140625 7.46875 
L 25.140625 60.40625 
L 9.625 49.3125 
L 9.625 57.625 
L 25.875 68.796875 
L 33.984375 68.796875 
L 33.984375 7.46875 
L 50.734375 7.46875 
L 50.734375 0 
z
" id="LiberationSans-31"/>
      </defs>
      <g style="fill:#262626;" transform="translate(368.779368 366.686875)scale(0.1 -0.1)">
       <use xlink:href="#LiberationSans-31"/>
       <use x="55.615234" xlink:href="#LiberationSans-30"/>
       <use x="111.230469" xlink:href="#LiberationSans-30"/>
       <use x="166.845703" xlink:href="#LiberationSans-30"/>
      </g>
     </g>
    </g>
    <g id="xtick_7">
     <g id="line2d_13">
      <path clip-path="url(#p612bb88feb)" d="M 437.42331 352.44 
L 437.42331 47.52 
" style="fill:none;stroke:#ffffff;stroke-linecap:round;"/>
     </g>
     <g id="line2d_14"/>
     <g id="text_7">
      <!-- 1200 -->
      <g style="fill:#262626;" transform="translate(426.301435 366.686875)scale(0.1 -0.1)">
       <use xlink:href="#LiberationSans-31"/>
       <use x="55.615234" xlink:href="#LiberationSans-32"/>
       <use x="111.230469" xlink:href="#LiberationSans-30"/>
       <use x="166.845703" xlink:href="#LiberationSans-30"/>
      </g>
     </g>
    </g>
    <g id="xtick_8">
     <g id="line2d_15">
      <path clip-path="url(#p612bb88feb)" d="M 494.945377 352.44 
L 494.945377 47.52 
" style="fill:none;stroke:#ffffff;stroke-linecap:round;"/>
     </g>
     <g id="line2d_16"/>
     <g id="text_8">
      <!-- 1400 -->
      <g style="fill:#262626;" transform="translate(483.823502 366.686875)scale(0.1 -0.1)">
       <use xlink:href="#LiberationSans-31"/>
       <use x="55.615234" xlink:href="#LiberationSans-34"/>
       <use x="111.230469" xlink:href="#LiberationSans-30"/>
       <use x="166.845703" xlink:href="#LiberationSans-30"/>
      </g>
     </g>
    </g>
   </g>
   <g id="matplotlib.axis_2">
    <g id="ytick_1">
     <g id="line2d_17">
      <path clip-path="url(#p612bb88feb)" d="M 72 324.27136 
L 518.4 324.27136 
" style="fill:none;stroke:#ffffff;stroke-linecap:round;"/>
     </g>
     <g id="line2d_18"/>
     <g id="text_9">
      <!-- −20000 -->
      <defs>
       <path d="M 4.9375 29.6875 
L 4.9375 36.8125 
L 53.515625 36.8125 
L 53.515625 29.6875 
z
" id="LiberationSans-2212"/>
      </defs>
      <g style="fill:#262626;" transform="translate(31.354687 327.894798)scale(0.1 -0.1)">
       <use xlink:href="#LiberationSans-2212"/>
       <use x="58.398438" xlink:href="#LiberationSans-32"/>
       <use x="114.013672" xlink:href="#LiberationSans-30"/>
       <use x="169.628906" xlink:href="#LiberationSans-30"/>
       <use x="225.244141" xlink:href="#LiberationSans-30"/>
       <use x="280.859375" xlink:href="#LiberationSans-30"/>
      </g>
     </g>
    </g>
    <g id="ytick_2">
     <g id="line2d_19">
      <path clip-path="url(#p612bb88feb)" d="M 72 274.450192 
L 518.4 274.450192 
" style="fill:none;stroke:#ffffff;stroke-linecap:round;"/>
     </g>
     <g id="line2d_20"/>
     <g id="text_10">
      <!-- −10000 -->
      <g style="fill:#262626;" transform="translate(31.354687 278.073629)scale(0.1 -0.1)">
       <use xlink:href="#LiberationSans-2212"/>
       <use x="58.398438" xlink:href="#LiberationSans-31"/>
       <use x="114.013672" xlink:href="#LiberationSans-30"/>
       <use x="169.628906" xlink:href="#LiberationSans-30"/>
       <use x="225.244141" xlink:href="#LiberationSans-30"/>
       <use x="280.859375" xlink:href="#LiberationSans-30"/>
      </g>
     </g>
    </g>
    <g id="ytick_3">
     <g id="line2d_21">
      <path clip-path="url(#p612bb88feb)" d="M 72 224.629023 
L 518.4 224.629023 
" style="fill:none;stroke:#ffffff;stroke-linecap:round;"/>
     </g>
     <g id="line2d_22"/>
     <g id="text_11">
      <!-- 0 -->
      <g style="fill:#262626;" transform="translate(59.439062 228.252461)scale(0.1 -0.1)">
       <use xlink:href="#LiberationSans-30"/>
      </g>
     </g>
    </g>
    <g id="ytick_4">
     <g id="line2d_23">
      <path clip-path="url(#p612bb88feb)" d="M 72 174.807855 
L 518.4 174.807855 
" style="fill:none;stroke:#ffffff;stroke-linecap:round;"/>
     </g>
     <g id="line2d_24"/>
     <g id="text_12">
      <!-- 10000 -->
      <g style="fill:#262626;" transform="translate(37.195312 178.431292)scale(0.1 -0.1)">
       <use xlink:href="#LiberationSans-31"/>
       <use x="55.615234" xlink:href="#LiberationSans-30"/>
       <use x="111.230469" xlink:href="#LiberationSans-30"/>
       <use x="166.845703" xlink:href="#LiberationSans-30"/>
       <use x="222.460938" xlink:href="#LiberationSans-30"/>
      </g>
     </g>
    </g>
    <g id="ytick_5">
     <g id="line2d_25">
      <path clip-path="url(#p612bb88feb)" d="M 72 124.986686 
L 518.4 124.986686 
" style="fill:none;stroke:#ffffff;stroke-linecap:round;"/>
     </g>
     <g id="line2d_26"/>
     <g id="text_13">
      <!-- 20000 -->
      <g style="fill:#262626;" transform="translate(37.195312 128.610123)scale(0.1 -0.1)">
       <use xlink:href="#LiberationSans-32"/>
       <use x="55.615234" xlink:href="#LiberationSans-30"/>
       <use x="111.230469" xlink:href="#LiberationSans-30"/>
       <use x="166.845703" xlink:href="#LiberationSans-30"/>
       <use x="222.460938" xlink:href="#LiberationSans-30"/>
      </g>
     </g>
    </g>
    <g id="ytick_6">
     <g id="line2d_27">
      <path clip-path="url(#p612bb88feb)" d="M 72 75.165517 
L 518.4 75.165517 
" style="fill:none;stroke:#ffffff;stroke-linecap:round;"/>
     </g>
     <g id="line2d_28"/>
     <g id="text_14">
      <!-- 30000 -->
      <defs>
       <path d="M 51.21875 19 
Q 51.21875 14.265625 49.671875 10.546875 
Q 48.140625 6.84375 45.1875 4.265625 
Q 42.234375 1.703125 37.859375 0.359375 
Q 33.5 -0.984375 27.875 -0.984375 
Q 21.484375 -0.984375 17.109375 0.609375 
Q 12.75 2.203125 9.90625 4.8125 
Q 7.078125 7.421875 5.65625 10.765625 
Q 4.25 14.109375 3.8125 17.671875 
L 12.890625 18.5 
Q 13.28125 15.765625 14.328125 13.515625 
Q 15.375 11.28125 17.1875 9.671875 
Q 19 8.0625 21.625 7.171875 
Q 24.265625 6.296875 27.875 6.296875 
Q 34.515625 6.296875 38.296875 9.5625 
Q 42.09375 12.84375 42.09375 19.28125 
Q 42.09375 23.09375 40.40625 25.40625 
Q 38.71875 27.734375 36.203125 29.03125 
Q 33.6875 30.328125 30.734375 30.765625 
Q 27.78125 31.203125 25.296875 31.203125 
L 20.3125 31.203125 
L 20.3125 38.8125 
L 25.09375 38.8125 
Q 27.59375 38.8125 30.265625 39.328125 
Q 32.953125 39.84375 35.171875 41.1875 
Q 37.40625 42.53125 38.84375 44.828125 
Q 40.28125 47.125 40.28125 50.6875 
Q 40.28125 56.203125 37.03125 59.390625 
Q 33.796875 62.59375 27.390625 62.59375 
Q 21.578125 62.59375 17.984375 59.609375 
Q 14.40625 56.640625 13.8125 51.21875 
L 4.984375 51.90625 
Q 5.515625 56.453125 7.46875 59.8125 
Q 9.421875 63.1875 12.421875 65.40625 
Q 15.4375 67.625 19.28125 68.71875 
Q 23.140625 69.828125 27.484375 69.828125 
Q 33.25 69.828125 37.390625 68.375 
Q 41.546875 66.9375 44.1875 64.46875 
Q 46.828125 62.015625 48.0625 58.6875 
Q 49.3125 55.375 49.3125 51.609375 
Q 49.3125 48.578125 48.484375 45.9375 
Q 47.65625 43.3125 45.890625 41.203125 
Q 44.140625 39.109375 41.421875 37.59375 
Q 38.71875 36.078125 34.90625 35.296875 
L 34.90625 35.109375 
Q 39.0625 34.671875 42.140625 33.21875 
Q 45.21875 31.78125 47.21875 29.625 
Q 49.21875 27.484375 50.21875 24.75 
Q 51.21875 22.015625 51.21875 19 
" id="LiberationSans-33"/>
      </defs>
      <g style="fill:#262626;" transform="translate(37.195312 78.788955)scale(0.1 -0.1)">
       <use xlink:href="#LiberationSans-33"/>
       <use x="55.615234" xlink:href="#LiberationSans-30"/>
       <use x="111.230469" xlink:href="#LiberationSans-30"/>
       <use x="166.845703" xlink:href="#LiberationSans-30"/>
       <use x="222.460938" xlink:href="#LiberationSans-30"/>
      </g>
     </g>
    </g>
   </g>
   <g id="line2d_29">
    <path clip-path="url(#p612bb88feb)" d="M 92.290909 221.236202 
L 92.578519 238.773253 
L 92.86613 251.153813 
L 93.728961 289.72038 
L 94.304181 315.308532 
L 94.591792 325.013696 
L 94.879402 330.494024 
L 95.167012 322.916225 
L 95.454623 287.612945 
L 96.317454 75.050929 
L 96.605064 63.94579 
L 96.892674 95.846284 
L 97.467895 171.923209 
L 98.043116 209.448513 
L 98.618336 262.034757 
L 98.905947 273.583303 
L 99.193557 265.303025 
L 100.056388 205.104107 
L 100.343998 199.160442 
L 100.919219 197.635914 
L 101.49444 193.540614 
L 101.78205 194.477252 
L 102.06966 200.445828 
L 102.644881 227.568472 
L 103.507712 269.034631 
L 104.082933 291.005766 
L 104.370543 289.48622 
L 104.658153 273.827427 
L 105.520984 208.73607 
L 106.096205 185.584173 
L 107.246646 163.613038 
L 107.534257 175.789332 
L 108.397088 272.766236 
L 108.684698 258.298169 
L 109.259919 200.799558 
L 109.547529 199.379655 
L 110.41036 237.592491 
L 110.69797 246.136822 
L 110.985581 258.741577 
L 111.560801 293.332415 
L 111.848412 299.76931 
L 112.136022 292.296134 
L 112.423632 281.415191 
L 112.711243 285.395903 
L 113.286464 326.752455 
L 113.574074 307.730732 
L 114.436905 92.578016 
L 114.724515 75.863014 
L 115.012126 97.839131 
L 115.587346 169.820756 
L 116.162567 209.672708 
L 116.737788 236.192516 
L 117.025398 251.741703 
L 117.313008 258.86613 
L 117.600619 248.702612 
L 118.175839 203.240795 
L 118.46345 195.408908 
L 119.03867 204.057863 
L 119.326281 202.189569 
L 119.613891 197.177559 
L 119.901501 195.628121 
L 120.189112 199.753314 
L 120.476722 207.555309 
L 120.764332 218.555823 
L 121.339553 253.236338 
L 121.627163 271.510743 
L 121.914774 281.753975 
L 122.202384 280.618052 
L 122.777605 257.112425 
L 124.215656 201.003825 
L 124.503267 196.370456 
L 124.790877 197.376844 
L 125.078487 196.485045 
L 125.653708 174.852694 
L 125.941318 176.362275 
L 126.228929 201.726232 
L 126.516539 238.414541 
L 126.804149 259.80775 
L 127.09176 251.148831 
L 127.66698 210.479811 
L 127.954591 213.882597 
L 128.242201 223.338655 
L 128.529811 225.216913 
L 128.817422 224.036151 
L 129.105032 233.63669 
L 129.680253 272.437417 
L 129.967863 277.319891 
L 130.255473 275.471526 
L 130.543084 276.388235 
L 130.830694 279.561844 
L 131.118304 280.598124 
L 131.405915 284.932566 
L 131.981135 317.769698 
L 132.268746 303.974216 
L 132.556356 242.15611 
L 133.131577 91.875537 
L 133.419187 79.719172 
L 134.857239 206.289851 
L 135.432459 247.890527 
L 135.72007 261.083172 
L 136.00768 262.846842 
L 136.29529 248.343899 
L 136.870511 196.216011 
L 137.158121 185.723673 
L 137.445732 189.101548 
L 137.733342 195.752674 
L 138.020952 197.067953 
L 138.308563 193.998969 
L 138.596173 192.61394 
L 138.883783 197.39179 
L 139.171394 210.375187 
L 140.034225 273.92707 
L 140.321835 279.447255 
L 140.609445 274.166211 
L 141.184666 259.683197 
L 141.472276 254.661224 
L 141.759887 247.068478 
L 142.622718 203.709114 
L 142.910328 201.138342 
L 143.485549 228.001916 
L 143.773159 230.487993 
L 144.060769 212.926031 
L 144.34838 187.477378 
L 144.63599 174.488999 
L 144.9236 183.147918 
L 145.498821 222.068215 
L 145.786431 227.533597 
L 146.361652 220.767883 
L 146.649262 222.870336 
L 146.936873 228.848876 
L 147.224483 232.206823 
L 147.799704 228.709377 
L 148.087314 236.780406 
L 148.662535 272.771218 
L 148.950145 280.020198 
L 149.237755 277.922727 
L 149.812976 271.042424 
L 150.388197 260.634782 
L 150.675807 270.897942 
L 150.963417 295.908169 
L 151.251028 310.999001 
L 151.538638 286.671324 
L 152.401469 99.592836 
L 152.689079 87.899808 
L 152.97669 102.278197 
L 153.2643 132.888323 
L 154.127131 254.08828 
L 154.414741 265.283097 
L 154.702352 260.978548 
L 154.989962 250.924636 
L 155.277572 236.885031 
L 155.852793 195.50855 
L 156.140403 184.562839 
L 156.428014 186.520811 
L 156.715624 192.379781 
L 157.003234 193.426025 
L 157.290845 192.374799 
L 157.578455 196.00178 
L 158.153676 215.999997 
L 158.728896 245.329719 
L 159.016507 263.888104 
L 159.304117 274.290764 
L 159.591727 271.371244 
L 160.166948 252.88759 
L 160.454558 246.505498 
L 160.742169 236.297141 
L 161.317389 210.260598 
L 161.605 207.321149 
L 161.89261 212.138856 
L 162.755441 238.6487 
L 163.043051 236.197499 
L 163.330662 219.01916 
L 163.905882 179.635526 
L 164.193493 179.052618 
L 164.768713 191.433179 
L 165.056324 196.594652 
L 165.343934 208.133234 
L 165.919155 240.043693 
L 166.206765 243.222283 
L 166.781986 232.585464 
L 167.069596 233.726369 
L 167.357206 242.758946 
L 167.932427 270.439588 
L 168.220037 275.351955 
L 168.507648 268.790507 
L 169.082868 249.868427 
L 169.370479 249.629286 
L 169.658089 253.505372 
L 169.945699 263.295232 
L 170.52092 310.276594 
L 170.80853 316.484312 
L 171.096141 279.900628 
L 171.958972 87.441453 
L 172.246582 83.804508 
L 172.534192 107.653901 
L 173.109413 193.779756 
L 173.684634 267.873798 
L 173.972244 270.429623 
L 174.835075 220.782829 
L 175.410296 192.021068 
L 175.697906 186.769917 
L 176.273127 193.087241 
L 176.560737 191.547767 
L 176.848347 190.631058 
L 177.135958 198.901372 
L 177.998789 251.283348 
L 178.574009 268.32717 
L 178.86162 271.266619 
L 179.14923 267.61971 
L 179.724451 244.951078 
L 180.299671 219.487479 
L 180.587282 213.404314 
L 180.874892 213.180119 
L 181.162502 215.86548 
L 181.450113 219.597085 
L 181.737723 227.438937 
L 182.312944 249.873409 
L 182.600554 245.190219 
L 183.175775 210.828559 
L 183.463385 206.055692 
L 183.750995 204.760341 
L 184.038606 192.718565 
L 184.326216 171.350265 
L 184.613826 159.996021 
L 184.901437 173.447737 
L 185.476657 229.177696 
L 185.764268 242.166075 
L 186.627099 264.475994 
L 186.914709 263.419785 
L 187.48993 250.680512 
L 187.77754 249.519679 
L 188.06515 247.656367 
L 188.640371 234.81247 
L 188.927981 232.440982 
L 189.215592 234.578311 
L 189.503202 239.799569 
L 189.790812 251.761632 
L 190.653643 333.074761 
L 190.941254 325.113338 
L 191.228864 276.537699 
L 192.091695 73.536365 
L 192.379305 63.462525 
L 192.666916 93.061281 
L 193.529747 250.336746 
L 193.817357 268.571294 
L 194.104967 265.288079 
L 195.255409 205.791639 
L 195.543019 199.987473 
L 196.11824 191.67232 
L 196.40585 186.187009 
L 196.69346 186.182027 
L 196.981071 197.043042 
L 197.556291 234.672971 
L 197.843902 244.726883 
L 198.131512 247.536796 
L 198.419122 248.69763 
L 198.994343 252.902536 
L 199.281953 251.278366 
L 199.569564 245.419397 
L 200.432395 220.065404 
L 200.720005 219.148695 
L 201.295226 223.473172 
L 201.582836 223.91658 
L 201.870446 227.085207 
L 202.445667 243.092748 
L 202.733277 241.692773 
L 203.308498 222.8803 
L 203.596108 222.162875 
L 203.883719 221.953626 
L 204.171329 210.011492 
L 204.74655 162.805935 
L 205.03416 156.030256 
L 205.321771 166.906217 
L 205.896991 214.694682 
L 206.472212 270.544212 
L 206.759822 285.879168 
L 207.047433 285.610134 
L 207.622653 259.792804 
L 208.485484 215.521714 
L 208.773095 211.650609 
L 209.060705 217.270437 
L 209.635926 230.936383 
L 209.923536 236.546247 
L 210.211146 247.770956 
L 211.073977 300.71093 
L 211.649198 338.58 
L 211.936808 328.272 
L 212.224419 274.649476 
L 212.799639 104.724417 
L 213.08725 61.38 
L 213.37486 68.27525 
L 214.525301 229.416837 
L 214.812912 245.205166 
L 215.100522 249.036414 
L 215.388132 244.163903 
L 216.250963 216.428459 
L 216.826184 206.389493 
L 217.113794 203.953238 
L 217.401405 202.996672 
L 217.689015 203.83865 
L 218.264236 209.333924 
L 218.551846 212.577282 
L 218.839456 217.858326 
L 219.702287 246.141804 
L 219.989898 249.743874 
L 220.277508 249.056342 
L 220.565118 245.429361 
L 221.427949 227.538579 
L 221.71556 227.912238 
L 222.00317 229.641033 
L 222.29078 227.095171 
L 222.578391 222.392053 
L 222.866001 224.76354 
L 223.441222 247.42719 
L 223.728832 241.80238 
L 224.304053 207.221507 
L 224.591663 209.777333 
L 224.879273 220.434081 
L 225.166884 218.655465 
L 226.029715 160.823053 
L 226.317325 166.557469 
L 226.892546 201.272859 
L 227.755377 269.836752 
L 228.042987 278.983918 
L 228.330597 276.149094 
L 228.905818 254.068352 
L 229.768649 214.24131 
L 230.056259 208.247823 
L 230.34387 209.921814 
L 230.63148 218.072557 
L 231.206701 245.773127 
L 232.069532 288.205816 
L 233.219973 326.418653 
L 233.507583 309.235332 
L 233.795194 256.878266 
L 234.370414 109.163483 
L 234.658025 74.473003 
L 234.945635 82.404533 
L 236.383687 243.785262 
L 236.671297 253.958745 
L 236.958907 254.666206 
L 237.246518 248.229311 
L 238.396959 206.528993 
L 238.97218 209.787297 
L 239.25979 206.399458 
L 239.5474 201.257913 
L 239.835011 200.316293 
L 240.122621 205.353213 
L 240.985452 231.98761 
L 241.560673 248.119704 
L 241.848283 251.726757 
L 242.135893 252.573717 
L 242.423504 250.904707 
L 242.711114 245.912626 
L 243.286335 231.175525 
L 243.573945 227.314384 
L 243.861555 225.68025 
L 244.149166 225.32652 
L 244.436776 228.375575 
L 244.724386 235.250896 
L 245.011997 239.371107 
L 245.299607 232.789731 
L 245.874828 204.864966 
L 246.162438 203.724061 
L 246.450048 207.44072 
L 246.737659 202.902012 
L 247.312879 173.921038 
L 247.60049 170.747429 
L 247.8881 177.423466 
L 248.463321 197.974698 
L 249.038541 229.750639 
L 249.613762 259.319503 
L 249.901372 267.410461 
L 250.188983 268.56133 
L 250.476593 259.224843 
L 251.339424 207.201578 
L 251.627034 203.95822 
L 251.914645 206.384511 
L 252.202255 213.772991 
L 252.777476 244.841471 
L 253.065086 259.459002 
L 253.352696 266.688054 
L 253.927917 273.129931 
L 254.790748 287.363839 
L 255.365969 304.666731 
L 255.653579 291.479067 
L 255.941189 246.012269 
L 256.51641 118.863664 
L 256.80402 90.246385 
L 257.091631 96.887547 
L 258.529682 236.322051 
L 258.817293 243.202355 
L 259.104903 243.09773 
L 259.680124 233.746297 
L 260.255344 226.038962 
L 260.542955 222.979942 
L 260.830565 217.394989 
L 261.405786 201.970356 
L 261.693396 199.842992 
L 261.981006 203.370331 
L 262.556227 215.636302 
L 263.131448 235.036665 
L 263.706668 256.061198 
L 263.994279 258.995665 
L 264.281889 256.051234 
L 265.14472 236.665818 
L 265.43233 236.894995 
L 265.719941 239.361143 
L 266.007551 238.872895 
L 266.582772 229.536408 
L 266.870382 230.343511 
L 267.157992 233.527084 
L 267.445603 230.099387 
L 268.020823 202.887065 
L 268.308434 197.865091 
L 268.883654 210.5944 
L 269.171265 209.802243 
L 269.746485 192.977635 
L 270.034096 189.664527 
L 270.321706 191.3435 
L 270.609316 194.935607 
L 270.896927 201.023753 
L 271.184537 212.363051 
L 272.047368 264.580618 
L 272.334978 268.112939 
L 272.622589 260.844031 
L 273.48542 225.32652 
L 274.06064 212.592229 
L 274.348251 211.655591 
L 274.635861 215.63132 
L 275.211082 235.500002 
L 275.786302 259.229825 
L 276.073913 264.341477 
L 276.361523 263.095947 
L 276.649133 259.204914 
L 276.936744 257.351567 
L 277.224354 258.756524 
L 277.511964 262.712324 
L 277.799575 271.505761 
L 278.374795 297.437679 
L 278.662406 286.915448 
L 278.950016 242.739018 
L 279.525237 120.741922 
L 279.812847 98.053362 
L 280.100457 108.844627 
L 281.250899 201.850785 
L 281.826119 239.122001 
L 282.11373 249.28552 
L 282.40134 251.622132 
L 282.68895 246.246428 
L 283.551781 217.041259 
L 284.414612 199.618797 
L 284.702223 199.150478 
L 284.989833 204.301986 
L 285.852664 229.885156 
L 286.427885 252.210022 
L 286.715495 254.073334 
L 287.578326 237.268654 
L 287.865936 237.462956 
L 288.153547 237.263672 
L 288.728767 231.75345 
L 289.303988 227.199795 
L 289.591598 227.199795 
L 289.879209 227.902274 
L 290.166819 225.321537 
L 290.74204 206.040745 
L 291.02965 203.25076 
L 291.604871 221.012006 
L 291.892481 221.465379 
L 292.467702 203.370331 
L 292.755312 202.055052 
L 293.042922 205.138982 
L 293.330533 204.850019 
L 293.618143 200.814505 
L 293.905753 199.130549 
L 294.193364 204.19238 
L 294.768584 228.365611 
L 295.343805 255.234167 
L 295.631416 261.676044 
L 295.919026 258.871112 
L 297.357078 212.592229 
L 297.644688 214.111774 
L 298.795129 246.615105 
L 299.37035 257.132354 
L 299.65796 256.170805 
L 300.233181 240.402405 
L 300.520791 239.351178 
L 300.808402 245.195202 
L 301.383622 262.966412 
L 301.958843 284.245034 
L 302.246453 276.851572 
L 302.534064 242.514823 
L 303.109284 140.132321 
L 303.396895 116.427409 
L 303.684505 120.731958 
L 305.410167 241.583167 
L 305.697777 247.52185 
L 305.985388 246.136822 
L 307.135829 220.892436 
L 307.71105 216.119568 
L 307.99866 212.926031 
L 308.28627 211.775162 
L 308.573881 214.236327 
L 310.299543 241.209508 
L 310.587153 240.761118 
L 311.162374 236.551229 
L 311.449984 234.792542 
L 312.025205 230.004727 
L 312.312815 231.16556 
L 312.600425 234.922077 
L 312.888036 237.124172 
L 313.175646 234.563364 
L 313.750867 227.07026 
L 314.038477 225.809785 
L 314.326087 222.516606 
L 314.613698 216.916706 
L 314.901308 213.528867 
L 315.188918 215.387196 
L 315.476529 218.212057 
L 315.764139 215.616374 
L 316.33936 202.413764 
L 316.62697 205.81655 
L 316.91458 213.877615 
L 317.202191 217.614203 
L 317.777411 208.855641 
L 318.065022 209.896904 
L 318.927853 233.527084 
L 319.503073 239.136947 
L 319.790684 241.209508 
L 320.078294 240.297781 
L 320.365904 234.667989 
L 320.941125 220.99706 
L 321.228735 219.841209 
L 321.516346 222.406999 
L 322.091566 230.941365 
L 322.666787 241.334061 
L 322.954397 244.263546 
L 323.242008 243.321926 
L 323.817228 237.363314 
L 324.104839 236.894995 
L 324.392449 238.075757 
L 324.680059 240.158281 
L 324.96767 243.68562 
L 325.54289 255.597862 
L 326.118111 267.270961 
L 326.405721 267.764191 
L 326.693332 256.748731 
L 326.980942 228.848876 
L 327.556163 150.425375 
L 327.843773 131.951685 
L 328.131383 137.461907 
L 329.281825 209.209371 
L 329.857045 231.882985 
L 330.144656 236.775424 
L 330.432266 235.619573 
L 331.007487 226.028998 
L 331.295097 223.582779 
L 331.870318 221.819109 
L 332.445538 219.009195 
L 332.733149 220.075368 
L 333.020759 222.177822 
L 333.308369 223.214102 
L 333.59598 223.239013 
L 333.88359 224.967807 
L 334.458811 235.604627 
L 334.746421 237.492849 
L 335.321642 233.168371 
L 335.609252 233.033854 
L 336.759693 239.455803 
L 337.047304 237.727008 
L 337.334914 233.272996 
L 337.622524 230.582653 
L 337.910135 233.292924 
L 338.197745 237.338403 
L 338.485355 235.056594 
L 339.060576 213.309654 
L 339.348186 210.94813 
L 339.635797 215.163001 
L 339.923407 216.921688 
L 340.498628 206.872759 
L 340.786238 207.565273 
L 341.073848 212.472658 
L 341.361459 215.167983 
L 341.649069 214.106792 
L 341.936679 214.226363 
L 342.79951 227.199795 
L 343.087121 226.502299 
L 343.374731 224.972789 
L 343.662341 224.399846 
L 343.949952 224.270311 
L 344.237562 224.753576 
L 344.812783 227.56349 
L 345.100393 226.492335 
L 345.675614 220.309528 
L 345.963224 221.460397 
L 346.826055 235.500002 
L 347.113665 236.660835 
L 347.401276 235.609609 
L 347.976496 231.514309 
L 348.264107 232.112163 
L 348.839327 237.258689 
L 349.126938 237.129154 
L 349.414548 235.72918 
L 349.702158 234.912112 
L 349.989769 235.72918 
L 350.277379 237.602455 
L 350.564989 240.636565 
L 350.8526 246.361017 
L 351.42782 263.190608 
L 351.715431 263.898068 
L 352.003041 251.26342 
L 353.153482 154.635263 
L 353.441093 160.583911 
L 354.016313 188.289463 
L 355.166755 221.570003 
L 355.454365 227.922202 
L 355.741975 229.87021 
L 356.317196 228.719341 
L 356.604806 230.233905 
L 357.180027 234.433829 
L 357.467637 233.287942 
L 358.330468 223.214102 
L 358.618079 223.348619 
L 358.905689 224.041133 
L 359.193299 223.931527 
L 359.48091 222.994889 
L 359.76852 222.865354 
L 360.05613 224.987736 
L 360.631351 232.351304 
L 360.918961 233.028872 
L 361.206572 231.653808 
L 361.494182 231.160578 
L 361.781792 234.453758 
L 362.357013 244.497705 
L 362.644623 243.436514 
L 363.219844 235.724197 
L 363.507454 233.63669 
L 363.795065 230.22394 
L 364.370285 217.48965 
L 364.657896 215.521714 
L 364.945506 216.906742 
L 365.233116 216.926671 
L 365.808337 207.460648 
L 366.095947 206.389493 
L 366.383558 210.375187 
L 366.958778 220.309528 
L 367.533999 226.502299 
L 368.10922 234.573328 
L 368.39683 235.719215 
L 368.68444 233.173354 
L 369.834882 211.296878 
L 370.122492 210.26558 
L 370.410102 211.067701 
L 370.697713 213.753062 
L 371.560544 226.397675 
L 372.710985 237.47292 
L 372.998595 236.566175 
L 373.573816 232.356286 
L 373.861426 231.863057 
L 374.436647 231.982628 
L 375.011868 233.272996 
L 375.299478 232.690088 
L 375.874699 228.011881 
L 376.162309 228.256004 
L 376.73753 234.797524 
L 377.31275 243.456443 
L 377.887971 256.076145 
L 378.175581 258.039099 
L 378.463192 251.512526 
L 378.750802 234.558382 
L 379.613633 164.435087 
L 379.901243 161.535495 
L 380.188854 170.981589 
L 380.764074 194.133486 
L 382.202126 228.256004 
L 382.777347 231.065918 
L 383.064957 231.863057 
L 383.352567 232.112163 
L 383.927788 231.758432 
L 384.215398 230.936383 
L 384.503009 228.838912 
L 385.078229 221.93868 
L 385.36584 219.955798 
L 385.65345 219.602067 
L 386.228671 221.226237 
L 386.803892 223.547904 
L 387.379112 227.289474 
L 387.954333 233.387585 
L 388.529554 240.646529 
L 388.817164 241.672845 
L 389.104774 239.490678 
L 389.679995 232.007538 
L 390.255216 229.650997 
L 390.542826 225.570643 
L 391.118047 215.98505 
L 391.405657 216.094657 
L 391.693267 217.265454 
L 391.980878 215.636302 
L 392.268488 211.884768 
L 392.556098 209.792279 
L 392.843709 211.999357 
L 393.99415 230.712188 
L 394.28176 234.085081 
L 394.569371 235.619573 
L 394.856981 234.204652 
L 395.144591 229.77555 
L 396.007422 209.428585 
L 396.295033 207.809397 
L 396.582643 209.782315 
L 397.445474 219.597085 
L 398.308305 238.404576 
L 398.595915 239.246554 
L 399.171136 237.717044 
L 399.458746 237.129154 
L 399.746357 235.739144 
L 400.033967 233.731351 
L 400.321577 232.819623 
L 400.609188 233.268014 
L 400.896798 234.095045 
L 401.184408 233.980457 
L 401.472019 232.570517 
L 402.33485 224.399846 
L 402.62246 225.09236 
L 404.060512 243.316944 
L 404.635732 256.873283 
L 404.923343 259.219861 
L 405.210953 253.729568 
L 405.498563 238.419523 
L 406.361394 172.49117 
L 406.649005 168.081997 
L 406.936615 174.369428 
L 407.511836 191.542785 
L 408.087056 204.391664 
L 408.949887 229.546373 
L 409.237498 232.680124 
L 409.525108 233.522102 
L 409.812718 233.845939 
L 410.387939 236.067963 
L 410.675549 235.395378 
L 411.25077 227.688043 
L 411.53838 223.672457 
L 411.825991 221.25613 
L 412.113601 219.945833 
L 412.401211 219.367908 
L 412.688822 219.72662 
L 412.976432 220.299564 
L 413.264042 220.424117 
L 413.551653 220.419134 
L 413.839263 222.29241 
L 414.702094 234.19967 
L 414.989704 233.631708 
L 415.277315 232.336358 
L 415.564925 232.107181 
L 415.852535 232.346322 
L 416.140146 231.982628 
L 416.715366 230.22394 
L 417.002977 228.260986 
L 417.865808 216.582904 
L 418.441028 217.873273 
L 418.728639 215.955158 
L 419.016249 212.502551 
L 419.303859 210.464865 
L 419.59147 211.675519 
L 420.454301 220.882471 
L 421.317132 232.007538 
L 421.892352 235.739144 
L 422.179963 235.021719 
L 422.467573 230.826777 
L 423.618014 203.719079 
L 423.905625 204.28704 
L 424.193235 208.855641 
L 424.768456 220.538705 
L 425.343676 227.428973 
L 425.918897 238.519165 
L 426.206507 240.422334 
L 426.781728 235.509966 
L 427.069338 235.490038 
L 427.356949 236.780406 
L 427.644559 235.968321 
L 428.21978 229.551355 
L 428.50739 228.704395 
L 428.795 228.609735 
L 429.082611 226.846065 
L 429.370221 223.926545 
L 429.657831 222.875318 
L 429.945442 225.211931 
L 430.520662 231.748468 
L 431.095883 234.792542 
L 431.383493 239.231608 
L 432.246324 258.507418 
L 432.533935 257.59569 
L 432.821545 249.858463 
L 433.396766 217.952987 
L 433.971986 185.120836 
L 434.259597 179.0576 
L 434.547207 182.091709 
L 435.410038 205.931139 
L 435.985259 215.98505 
L 436.560479 229.77555 
L 436.84809 232.5755 
L 437.1357 233.033854 
L 437.42331 234.219598 
L 437.710921 236.770442 
L 437.998531 238.080739 
L 438.286141 235.370467 
L 438.861362 224.384899 
L 439.148972 222.421945 
L 439.436583 221.689574 
L 439.724193 219.621996 
L 440.011803 216.084693 
L 440.299414 214.231345 
L 440.587024 216.682547 
L 441.162245 225.32652 
L 441.449855 224.753576 
L 441.737465 222.167857 
L 442.025076 221.943662 
L 442.312686 225.44609 
L 442.887907 233.751279 
L 443.175517 233.736333 
L 443.750738 230.936383 
L 444.038348 230.936383 
L 444.325958 230.587635 
L 444.613569 228.016863 
L 445.188789 218.785 
L 445.4764 217.499614 
L 446.05162 221.829073 
L 446.339231 220.882471 
L 446.914451 212.926031 
L 447.202062 212.487604 
L 448.640113 225.555697 
L 448.927724 228.24604 
L 449.215334 229.780532 
L 449.502944 229.994763 
L 449.790555 229.890139 
L 450.078165 229.068089 
L 450.365775 226.382728 
L 451.228606 211.999357 
L 452.091437 206.748206 
L 452.379048 206.40444 
L 452.666658 209.543173 
L 453.529489 231.065918 
L 453.817099 234.438811 
L 454.10471 235.734162 
L 454.39232 236.192516 
L 454.67993 236.317069 
L 454.967541 236.192516 
L 455.255151 235.853732 
L 455.542761 235.136308 
L 455.830372 233.990421 
L 456.405592 229.790496 
L 456.693203 227.409044 
L 456.980813 226.402657 
L 457.268423 226.831119 
L 457.843644 229.177696 
L 458.418865 230.577671 
L 458.706475 231.882985 
L 459.281696 236.904959 
L 460.144527 245.185237 
L 460.432137 246.953889 
L 460.719747 247.760992 
L 461.007358 247.656367 
L 461.294968 246.13184 
L 461.582578 241.44865 
L 461.870189 231.873021 
L 462.73302 188.404051 
L 463.02063 183.142936 
L 463.30824 185.823315 
L 464.458682 214.913895 
L 465.321513 221.699538 
L 465.896733 230.12928 
L 466.184344 232.211805 
L 466.471954 232.346322 
L 466.759564 232.226751 
L 467.047175 232.336358 
L 467.334785 231.295096 
L 467.622395 227.075243 
L 468.197616 214.116757 
L 468.485226 212.118928 
L 468.772837 214.345934 
L 469.060447 217.733773 
L 469.348057 219.482496 
L 469.635668 219.841209 
L 469.923278 220.419134 
L 470.498499 224.982753 
L 471.36133 232.809659 
L 471.64894 233.980457 
L 471.93655 232.685106 
L 472.224161 230.12928 
L 472.511771 229.058125 
L 472.799381 230.597599 
L 473.086992 232.799695 
L 473.374602 232.465893 
L 474.525043 217.853344 
L 474.812654 217.728791 
L 475.100264 217.972915 
L 475.675485 218.904571 
L 476.250705 218.675394 
L 476.538316 219.711674 
L 477.401147 227.319366 
L 478.263978 230.014691 
L 478.551588 229.053143 
L 479.414419 218.799946 
L 479.70203 219.009195 
L 479.98964 218.321663 
L 480.852471 207.923985 
L 481.140081 210.718953 
L 481.715302 219.248337 
L 482.865743 228.694431 
L 483.440964 231.270185 
L 484.016185 235.833804 
L 484.303795 236.79037 
L 484.591405 236.307105 
L 485.454236 233.033854 
L 486.029457 228.714359 
L 486.317067 228.360629 
L 486.604678 229.551355 
L 486.892288 229.984799 
L 487.179898 228.265968 
L 487.467509 225.321537 
L 487.755119 224.399846 
L 488.042729 227.080225 
L 488.61795 237.134136 
L 488.90556 239.112037 
L 489.193171 238.663646 
L 489.480781 237.47292 
L 489.768391 236.785388 
L 490.056002 236.894995 
L 490.631222 238.075757 
L 490.918833 237.233779 
L 491.206443 232.590446 
L 491.781664 209.573066 
L 492.069274 197.501397 
L 492.356884 190.870199 
L 492.644495 190.835325 
L 492.932105 195.787549 
L 493.794936 214.575111 
L 494.082546 217.723809 
L 494.657767 221.58495 
L 495.520598 233.148443 
L 495.808208 234.105009 
L 496.095819 233.033854 
L 498.109091 221.84402 
L 498.109091 221.84402 
" style="fill:none;stroke:#4c72b0;stroke-linecap:round;stroke-width:1.75;"/>
   </g>
   <g id="line2d_30">
    <path clip-path="url(#p612bb88feb)" d="M 92.290909 221.236202 
L 92.578519 238.773253 
L 92.86613 251.153813 
L 93.728961 289.72038 
L 94.304181 315.308532 
L 94.591792 325.013696 
L 94.879402 330.494024 
L 95.167012 322.916225 
L 95.454623 287.612945 
L 96.317454 75.050929 
L 96.605064 63.94579 
L 96.892674 95.846284 
L 97.467895 171.923209 
L 98.043116 209.448513 
L 98.618336 262.034757 
L 98.905947 273.583303 
L 99.193557 265.303025 
L 100.056388 205.104107 
L 100.343998 199.160442 
L 100.919219 197.635914 
L 101.49444 193.540614 
L 101.78205 194.477252 
L 102.06966 200.445828 
L 102.644881 227.568472 
L 103.507712 269.034631 
L 104.082933 291.005766 
L 104.370543 289.48622 
L 104.658153 273.827427 
L 105.520984 208.73607 
L 106.096205 185.584173 
L 107.246646 163.613038 
L 107.534257 175.789332 
L 108.397088 272.766236 
L 108.684698 258.298169 
L 109.259919 200.799558 
L 109.547529 199.379655 
L 110.41036 237.592491 
L 110.69797 246.136822 
L 110.985581 258.741577 
L 111.560801 293.332415 
L 111.848412 299.76931 
L 112.136022 292.296134 
L 112.423632 281.415191 
L 112.711243 285.395903 
L 113.286464 326.752455 
L 113.574074 307.730732 
L 114.436905 92.578016 
L 114.724515 75.863014 
L 115.012126 97.839131 
L 115.587346 169.820756 
L 116.162567 209.672708 
L 116.737788 236.192516 
L 117.025398 251.741703 
L 117.313008 258.86613 
L 117.600619 248.702612 
L 118.175839 203.240795 
L 118.46345 195.408908 
L 119.03867 204.057863 
L 119.326281 202.189569 
L 119.613891 197.177559 
L 119.901501 195.628121 
L 120.189112 199.753314 
L 120.476722 207.555309 
L 120.764332 218.555823 
L 121.339553 253.236338 
L 121.627163 271.510743 
L 121.914774 281.753975 
L 122.202384 280.618052 
L 122.777605 257.112425 
L 124.215656 201.003825 
L 124.503267 196.370456 
L 124.790877 197.376844 
L 125.078487 196.485045 
L 125.653708 174.852694 
L 125.941318 176.362275 
L 126.228929 201.726232 
L 126.516539 238.414541 
L 126.804149 259.80775 
L 127.09176 251.148831 
L 127.66698 210.479811 
L 127.954591 213.882597 
L 128.242201 223.338655 
L 128.529811 225.216913 
L 128.817422 224.036151 
L 129.105032 233.63669 
L 129.680253 272.437417 
L 129.967863 277.319891 
L 130.255473 275.471526 
L 130.543084 276.388235 
L 130.830694 279.561844 
L 131.118304 280.598124 
L 131.405915 284.932566 
L 131.981135 317.769698 
L 132.268746 303.974216 
L 132.556356 242.15611 
L 133.131577 91.875537 
L 133.419187 79.719172 
L 134.857239 206.289851 
L 135.432459 247.890527 
L 135.72007 261.083172 
L 136.00768 262.846842 
L 136.29529 248.343899 
L 136.870511 196.216011 
L 137.158121 185.723673 
L 137.445732 189.101548 
L 137.733342 195.752674 
L 138.020952 197.067953 
L 138.308563 193.998969 
L 138.596173 192.61394 
L 138.883783 197.39179 
L 139.171394 210.375187 
L 140.034225 273.92707 
L 140.321835 279.447255 
L 140.609445 274.166211 
L 141.184666 259.683197 
L 141.472276 254.661224 
L 141.759887 247.068478 
L 142.622718 203.709114 
L 142.910328 201.138342 
L 143.485549 228.001916 
L 143.773159 230.487993 
L 144.060769 212.926031 
L 144.34838 187.477378 
L 144.63599 174.488999 
L 144.9236 183.147918 
L 145.498821 222.068215 
L 145.786431 227.533597 
L 146.361652 220.767883 
L 146.649262 222.870336 
L 146.936873 228.848876 
L 147.224483 232.206823 
L 147.799704 228.709377 
L 148.087314 236.780406 
L 148.662535 272.771218 
L 148.950145 280.020198 
L 149.237755 277.922727 
L 149.812976 271.042424 
L 150.388197 260.634782 
L 150.675807 270.897942 
L 150.963417 295.908169 
L 151.251028 310.999001 
L 151.538638 286.671324 
L 152.401469 99.592836 
L 152.689079 87.899808 
L 152.97669 102.278197 
L 153.2643 132.888323 
L 154.127131 254.08828 
L 154.414741 265.283097 
L 154.702352 260.978548 
L 154.989962 250.924636 
L 155.277572 236.885031 
L 155.852793 195.50855 
L 156.140403 184.562839 
L 156.428014 186.520811 
L 156.715624 192.379781 
L 157.003234 193.426025 
L 157.290845 192.374799 
L 157.578455 196.00178 
L 158.153676 215.999997 
L 158.728896 245.329719 
L 159.016507 263.888104 
L 159.304117 274.290764 
L 159.591727 271.371244 
L 160.166948 252.88759 
L 160.454558 246.505498 
L 160.742169 236.297141 
L 161.317389 210.260598 
L 161.605 207.321149 
L 161.89261 212.138856 
L 162.755441 238.6487 
L 163.043051 236.197499 
L 163.330662 219.01916 
L 163.905882 179.635526 
L 164.193493 179.052618 
L 164.768713 191.433179 
L 165.056324 196.594652 
L 165.343934 208.133234 
L 165.919155 240.043693 
L 166.206765 243.222283 
L 166.781986 232.585464 
L 167.069596 233.726369 
L 167.357206 242.758946 
L 167.932427 270.439588 
L 168.220037 275.351955 
L 168.507648 268.790507 
L 169.082868 249.868427 
L 169.370479 249.629286 
L 169.658089 253.505372 
L 169.945699 263.295232 
L 170.52092 310.276594 
L 170.80853 316.484312 
L 171.096141 279.900628 
L 171.958972 87.441453 
L 172.246582 83.804508 
L 172.534192 107.653901 
L 173.109413 193.779756 
L 173.684634 267.873798 
L 173.972244 270.429623 
L 174.835075 220.782829 
L 175.410296 192.021068 
L 175.697906 186.769917 
L 176.273127 193.087241 
L 176.560737 191.547767 
L 176.848347 190.631058 
L 177.135958 198.901372 
L 177.998789 251.283348 
L 178.574009 268.32717 
L 178.86162 271.266619 
L 179.14923 267.61971 
L 179.724451 244.951078 
L 180.299671 219.487479 
L 180.587282 213.404314 
L 180.874892 213.180119 
L 181.162502 215.86548 
L 181.450113 219.597085 
L 181.737723 227.438937 
L 182.312944 249.873409 
L 182.600554 245.190219 
L 183.175775 210.828559 
L 183.463385 206.055692 
L 183.750995 204.760341 
L 184.038606 192.718565 
L 184.326216 171.350265 
L 184.613826 159.996021 
L 184.901437 173.447737 
L 185.476657 229.177696 
L 185.764268 242.166075 
L 186.627099 264.475994 
L 186.914709 263.419785 
L 187.48993 250.680512 
L 187.77754 249.519679 
L 188.06515 247.656367 
L 188.640371 234.81247 
L 188.927981 232.440982 
L 189.215592 234.578311 
L 189.503202 239.799569 
L 189.790812 251.761632 
L 190.653643 333.074761 
L 190.941254 325.113338 
L 191.228864 276.537699 
L 192.091695 73.536365 
L 192.379305 63.462525 
L 192.666916 93.061281 
L 193.529747 250.336746 
L 193.817357 268.571294 
L 194.104967 265.288079 
L 195.255409 205.791639 
L 195.543019 199.987473 
L 196.11824 191.67232 
L 196.40585 186.187009 
L 196.69346 186.182027 
L 196.981071 197.043042 
L 197.556291 234.672971 
L 197.843902 244.726883 
L 198.131512 247.536796 
L 198.419122 248.69763 
L 198.994343 252.902536 
L 199.281953 251.278366 
L 199.569564 245.419397 
L 200.432395 220.065404 
L 200.720005 219.148695 
L 201.295226 223.473172 
L 201.582836 223.91658 
L 201.870446 227.085207 
L 202.445667 243.092748 
L 202.733277 241.692773 
L 203.308498 222.8803 
L 203.596108 222.162875 
L 203.883719 221.953626 
L 204.171329 210.011492 
L 204.74655 162.805935 
L 205.03416 156.030256 
L 205.321771 166.906217 
L 205.896991 214.694682 
L 206.472212 270.544212 
L 206.759822 285.879168 
L 207.047433 285.610134 
L 207.622653 259.792804 
L 208.485484 215.521714 
L 208.773095 211.650609 
L 209.060705 217.270437 
L 209.635926 230.936383 
L 209.923536 236.546247 
L 210.211146 247.770956 
L 211.073977 300.71093 
L 211.649198 338.58 
L 211.936808 328.272 
L 212.224419 274.649476 
L 212.799639 104.724417 
L 213.08725 61.38 
L 213.37486 68.27525 
L 214.525301 229.416837 
L 214.812912 245.205166 
L 215.100522 249.036414 
L 215.388132 244.163903 
L 216.250963 216.428459 
L 216.826184 206.389493 
L 217.113794 203.953238 
L 217.401405 202.996672 
L 217.689015 203.83865 
L 218.264236 209.333924 
L 218.551846 212.577282 
L 218.839456 217.858326 
L 219.702287 246.141804 
L 219.989898 249.743874 
L 220.277508 249.056342 
L 220.565118 245.429361 
L 221.427949 227.538579 
L 221.71556 227.912238 
L 222.00317 229.641033 
L 222.29078 227.095171 
L 222.578391 222.392053 
L 222.866001 224.76354 
L 223.441222 247.42719 
L 223.728832 241.80238 
L 224.304053 207.221507 
L 224.591663 209.777333 
L 224.879273 220.434081 
L 225.166884 218.655465 
L 226.029715 160.823053 
L 226.317325 166.557469 
L 226.892546 201.272859 
L 227.755377 269.836752 
L 228.042987 278.983918 
L 228.330597 276.149094 
L 228.905818 254.068352 
L 229.768649 214.24131 
L 230.056259 208.247823 
L 230.34387 209.921814 
L 230.63148 218.072557 
L 231.206701 245.773127 
L 232.069532 288.205816 
L 233.219973 326.418653 
L 233.507583 309.235332 
L 233.795194 256.878266 
L 234.370414 109.163483 
L 234.658025 74.473003 
L 234.945635 82.404533 
L 236.383687 243.785262 
L 236.671297 253.958745 
L 236.958907 254.666206 
L 237.246518 248.229311 
L 238.396959 206.528993 
L 238.97218 209.787297 
L 239.25979 206.399458 
L 239.5474 201.257913 
L 239.835011 200.316293 
L 240.122621 205.353213 
L 240.985452 231.98761 
L 241.560673 248.119704 
L 241.848283 251.726757 
L 242.135893 252.573717 
L 242.423504 250.904707 
L 242.711114 245.912626 
L 243.286335 231.175525 
L 243.573945 227.314384 
L 243.861555 225.68025 
L 244.149166 225.32652 
L 244.436776 228.375575 
L 244.724386 235.250896 
L 245.011997 239.371107 
L 245.299607 232.789731 
L 245.874828 204.864966 
L 246.162438 203.724061 
L 246.450048 207.44072 
L 246.737659 202.902012 
L 247.312879 173.921038 
L 247.60049 170.747429 
L 247.8881 177.423466 
L 248.463321 197.974698 
L 249.038541 229.750639 
L 249.613762 259.319503 
L 249.901372 267.410461 
L 250.188983 268.56133 
L 250.476593 259.224843 
L 251.339424 207.201578 
L 251.627034 203.95822 
L 251.914645 206.384511 
L 252.202255 213.772991 
L 252.777476 244.841471 
L 253.065086 259.459002 
L 253.352696 266.688054 
L 253.927917 273.129931 
L 254.790748 287.363839 
L 255.365969 304.666731 
L 255.653579 291.479067 
L 255.941189 246.012269 
L 256.51641 118.863664 
L 256.80402 90.246385 
L 257.091631 96.887547 
L 258.529682 236.322051 
L 258.817293 243.202355 
L 259.104903 243.09773 
L 259.680124 233.746297 
L 260.255344 226.038962 
L 260.542955 222.979942 
L 260.830565 217.394989 
L 261.405786 201.970356 
L 261.693396 199.842992 
L 261.981006 203.370331 
L 262.556227 215.636302 
L 263.131448 235.036665 
L 263.706668 256.061198 
L 263.994279 258.995665 
L 264.281889 256.051234 
L 265.14472 236.665818 
L 265.43233 236.894995 
L 265.719941 239.361143 
L 266.007551 238.872895 
L 266.582772 229.536408 
L 266.870382 230.343511 
L 267.157992 233.527084 
L 267.445603 230.099387 
L 268.020823 202.887065 
L 268.308434 197.865091 
L 268.883654 210.5944 
L 269.171265 209.802243 
L 269.746485 192.977635 
L 270.034096 189.664527 
L 270.321706 191.3435 
L 270.609316 194.935607 
L 270.896927 201.023753 
L 271.184537 212.363051 
L 272.047368 264.580618 
L 272.334978 268.112939 
L 272.622589 260.844031 
L 273.48542 225.32652 
L 274.06064 212.592229 
L 274.348251 211.655591 
L 274.635861 215.63132 
L 275.211082 235.500002 
L 275.786302 259.229825 
L 276.073913 264.341477 
L 276.361523 263.095947 
L 276.649133 259.204914 
L 276.936744 257.351567 
L 277.224354 258.756524 
L 277.511964 262.712324 
L 277.799575 271.505761 
L 278.374795 297.437679 
L 278.662406 286.915448 
L 278.950016 242.739018 
L 279.525237 120.741922 
L 279.812847 98.053362 
L 280.100457 108.844627 
L 281.250899 201.850785 
L 281.826119 239.122001 
L 282.11373 249.28552 
L 282.40134 251.622132 
L 282.68895 246.246428 
L 283.551781 217.041259 
L 284.414612 199.618797 
L 284.702223 199.150478 
L 284.989833 204.301986 
L 285.852664 229.885156 
L 286.427885 252.210022 
L 286.715495 254.073334 
L 287.578326 237.268654 
L 287.865936 237.462956 
L 288.153547 237.263672 
L 288.728767 231.75345 
L 289.303988 227.199795 
L 289.591598 227.199795 
L 289.879209 227.902274 
L 290.166819 225.321537 
L 290.74204 206.040745 
L 291.02965 203.25076 
L 291.604871 221.012006 
L 291.892481 221.465379 
L 292.467702 203.370331 
L 292.755312 202.055052 
L 293.042922 205.138982 
L 293.330533 204.850019 
L 293.618143 200.814505 
L 293.905753 199.130549 
L 294.193364 204.19238 
L 294.768584 228.365611 
L 295.343805 255.234167 
L 295.631416 261.676044 
L 295.919026 258.871112 
L 297.357078 212.592229 
L 297.644688 214.111774 
L 298.795129 246.615105 
L 299.37035 257.132354 
L 299.65796 256.170805 
L 300.233181 240.402405 
L 300.520791 239.351178 
L 300.808402 245.195202 
L 301.383622 262.966412 
L 301.958843 284.245034 
L 302.246453 276.851572 
L 302.534064 242.514823 
L 303.109284 140.132321 
L 303.396895 116.427409 
L 303.684505 120.731958 
L 305.410167 241.583167 
L 305.697777 247.52185 
L 305.985388 246.136822 
L 307.135829 220.892436 
L 307.71105 216.119568 
L 307.99866 212.926031 
L 308.28627 211.775162 
L 308.573881 214.236327 
L 310.299543 241.209508 
L 310.587153 240.761118 
L 311.162374 236.551229 
L 311.449984 234.792542 
L 312.025205 230.004727 
L 312.312815 231.16556 
L 312.600425 234.922077 
L 312.888036 237.124172 
L 313.175646 234.563364 
L 313.750867 227.07026 
L 314.038477 225.809785 
L 314.326087 222.516606 
L 314.613698 216.916706 
L 314.901308 213.528867 
L 315.188918 215.387196 
L 315.476529 218.212057 
L 315.764139 215.616374 
L 316.33936 202.413764 
L 316.62697 205.81655 
L 316.91458 213.877615 
L 317.202191 217.614203 
L 317.777411 208.855641 
L 318.065022 209.896904 
L 318.927853 233.527084 
L 319.503073 239.136947 
L 319.790684 241.209508 
L 320.078294 240.297781 
L 320.365904 234.667989 
L 320.941125 220.99706 
L 321.228735 219.841209 
L 321.516346 222.406999 
L 322.091566 230.941365 
L 322.666787 241.334061 
L 322.954397 244.263546 
L 323.242008 243.321926 
L 323.817228 237.363314 
L 324.104839 236.894995 
L 324.392449 238.075757 
L 324.680059 240.158281 
L 324.96767 243.68562 
L 325.54289 255.597862 
L 326.118111 267.270961 
L 326.405721 267.764191 
L 326.693332 256.748731 
L 326.980942 228.848876 
L 327.556163 150.425375 
L 327.843773 131.951685 
L 328.131383 137.461907 
L 329.281825 209.209371 
L 329.857045 231.882985 
L 330.144656 236.775424 
L 330.432266 235.619573 
L 331.007487 226.028998 
L 331.295097 223.582779 
L 331.870318 221.819109 
L 332.445538 219.009195 
L 332.733149 220.075368 
L 333.020759 222.177822 
L 333.308369 223.214102 
L 333.59598 223.239013 
L 333.88359 224.967807 
L 334.458811 235.604627 
L 334.746421 237.492849 
L 335.321642 233.168371 
L 335.609252 233.033854 
L 336.759693 239.455803 
L 337.047304 237.727008 
L 337.334914 233.272996 
L 337.622524 230.582653 
L 337.910135 233.292924 
L 338.197745 237.338403 
L 338.485355 235.056594 
L 339.060576 213.309654 
L 339.348186 210.94813 
L 339.635797 215.163001 
L 339.923407 216.921688 
L 340.498628 206.872759 
L 340.786238 207.565273 
L 341.073848 212.472658 
L 341.361459 215.167983 
L 341.649069 214.106792 
L 341.936679 214.226363 
L 342.79951 227.199795 
L 343.087121 226.502299 
L 343.374731 224.972789 
L 343.662341 224.399846 
L 343.949952 224.270311 
L 344.237562 224.753576 
L 344.812783 227.56349 
L 345.100393 226.492335 
L 345.675614 220.309528 
L 345.963224 221.460397 
L 346.826055 235.500002 
L 347.113665 236.660835 
L 347.401276 235.609609 
L 347.976496 231.514309 
L 348.264107 232.112163 
L 348.839327 237.258689 
L 349.126938 237.129154 
L 349.414548 235.72918 
L 349.702158 234.912112 
L 349.989769 235.72918 
L 350.277379 237.602455 
L 350.564989 240.636565 
L 350.8526 246.361017 
L 351.42782 263.190608 
L 351.715431 263.898068 
L 352.003041 251.26342 
L 353.153482 154.635263 
L 353.441093 160.583911 
L 354.016313 188.289463 
L 355.166755 221.570003 
L 355.454365 227.922202 
L 355.741975 229.87021 
L 356.317196 228.719341 
L 356.604806 230.233905 
L 357.180027 234.433829 
L 357.467637 233.287942 
L 358.330468 223.214102 
L 358.618079 223.348619 
L 358.905689 224.041133 
L 359.193299 223.931527 
L 359.48091 222.994889 
L 359.76852 222.865354 
L 360.05613 224.987736 
L 360.631351 232.351304 
L 360.918961 233.028872 
L 361.206572 231.653808 
L 361.494182 231.160578 
L 361.781792 234.453758 
L 362.357013 244.497705 
L 362.644623 243.436514 
L 363.219844 235.724197 
L 363.507454 233.63669 
L 363.795065 230.22394 
L 364.370285 217.48965 
L 364.657896 215.521714 
L 364.945506 216.906742 
L 365.233116 216.926671 
L 365.808337 207.460648 
L 366.095947 206.389493 
L 366.383558 210.375187 
L 366.958778 220.309528 
L 367.533999 226.502299 
L 368.10922 234.573328 
L 368.39683 235.719215 
L 368.68444 233.173354 
L 369.834882 211.296878 
L 370.122492 210.26558 
L 370.410102 211.067701 
L 370.697713 213.753062 
L 371.560544 226.397675 
L 372.710985 237.47292 
L 372.998595 236.566175 
L 373.573816 232.356286 
L 373.861426 231.863057 
L 374.436647 231.982628 
L 375.011868 233.272996 
L 375.299478 232.690088 
L 375.874699 228.011881 
L 376.162309 228.256004 
L 376.73753 234.797524 
L 377.31275 243.456443 
L 377.887971 256.076145 
L 378.175581 258.039099 
L 378.463192 251.512526 
L 378.750802 234.558382 
L 379.613633 164.435087 
L 379.901243 161.535495 
L 380.188854 170.981589 
L 380.764074 194.133486 
L 382.202126 228.256004 
L 382.777347 231.065918 
L 383.064957 231.863057 
L 383.352567 232.112163 
L 383.927788 231.758432 
L 384.215398 230.936383 
L 384.503009 228.838912 
L 385.078229 221.93868 
L 385.36584 219.955798 
L 385.65345 219.602067 
L 386.228671 221.226237 
L 386.803892 223.547904 
L 387.379112 227.289474 
L 387.954333 233.387585 
L 388.529554 240.646529 
L 388.817164 241.672845 
L 389.104774 239.490678 
L 389.679995 232.007538 
L 390.255216 229.650997 
L 390.542826 225.570643 
L 391.118047 215.98505 
L 391.405657 216.094657 
L 391.693267 217.265454 
L 391.980878 215.636302 
L 392.268488 211.884768 
L 392.556098 209.792279 
L 392.843709 211.999357 
L 393.99415 230.712188 
L 394.28176 234.085081 
L 394.569371 235.619573 
L 394.856981 234.204652 
L 395.144591 229.77555 
L 396.007422 209.428585 
L 396.295033 207.809397 
L 396.582643 209.782315 
L 397.445474 219.597085 
L 398.308305 238.404576 
L 398.595915 239.246554 
L 399.171136 237.717044 
L 399.458746 237.129154 
L 399.746357 235.739144 
L 400.033967 233.731351 
L 400.321577 232.819623 
L 400.609188 233.268014 
L 400.896798 234.095045 
L 401.184408 233.980457 
L 401.472019 232.570517 
L 402.33485 224.399846 
L 402.62246 225.09236 
L 404.060512 243.316944 
L 404.635732 256.873283 
L 404.923343 259.219861 
L 405.210953 253.729568 
L 405.498563 238.419523 
L 406.361394 172.49117 
L 406.649005 168.081997 
L 406.936615 174.369428 
L 407.511836 191.542785 
L 408.087056 204.391664 
L 408.949887 229.546373 
L 409.237498 232.680124 
L 409.525108 233.522102 
L 409.812718 233.845939 
L 410.387939 236.067963 
L 410.675549 235.395378 
L 411.25077 227.688043 
L 411.53838 223.672457 
L 411.825991 221.25613 
L 412.113601 219.945833 
L 412.401211 219.367908 
L 412.688822 219.72662 
L 412.976432 220.299564 
L 413.264042 220.424117 
L 413.551653 220.419134 
L 413.839263 222.29241 
L 414.702094 234.19967 
L 414.989704 233.631708 
L 415.277315 232.336358 
L 415.564925 232.107181 
L 415.852535 232.346322 
L 416.140146 231.982628 
L 416.715366 230.22394 
L 417.002977 228.260986 
L 417.865808 216.582904 
L 418.441028 217.873273 
L 418.728639 215.955158 
L 419.016249 212.502551 
L 419.303859 210.464865 
L 419.59147 211.675519 
L 420.454301 220.882471 
L 421.317132 232.007538 
L 421.892352 235.739144 
L 422.179963 235.021719 
L 422.467573 230.826777 
L 423.618014 203.719079 
L 423.905625 204.28704 
L 424.193235 208.855641 
L 424.768456 220.538705 
L 425.343676 227.428973 
L 425.918897 238.519165 
L 426.206507 240.422334 
L 426.781728 235.509966 
L 427.069338 235.490038 
L 427.356949 236.780406 
L 427.644559 235.968321 
L 428.21978 229.551355 
L 428.50739 228.704395 
L 428.795 228.609735 
L 429.082611 226.846065 
L 429.370221 223.926545 
L 429.657831 222.875318 
L 429.945442 225.211931 
L 430.520662 231.748468 
L 431.095883 234.792542 
L 431.383493 239.231608 
L 432.246324 258.507418 
L 432.533935 257.59569 
L 432.821545 249.858463 
L 433.396766 217.952987 
L 433.971986 185.120836 
L 434.259597 179.0576 
L 434.547207 182.091709 
L 435.410038 205.931139 
L 435.985259 215.98505 
L 436.560479 229.77555 
L 436.84809 232.5755 
L 437.1357 233.033854 
L 437.42331 234.219598 
L 437.710921 236.770442 
L 437.998531 238.080739 
L 438.286141 235.370467 
L 438.861362 224.384899 
L 439.148972 222.421945 
L 439.436583 221.689574 
L 439.724193 219.621996 
L 440.011803 216.084693 
L 440.299414 214.231345 
L 440.587024 216.682547 
L 441.162245 225.32652 
L 441.449855 224.753576 
L 441.737465 222.167857 
L 442.025076 221.943662 
L 442.312686 225.44609 
L 442.887907 233.751279 
L 443.175517 233.736333 
L 443.750738 230.936383 
L 444.038348 230.936383 
L 444.325958 230.587635 
L 444.613569 228.016863 
L 445.188789 218.785 
L 445.4764 217.499614 
L 446.05162 221.829073 
L 446.339231 220.882471 
L 446.914451 212.926031 
L 447.202062 212.487604 
L 448.640113 225.555697 
L 448.927724 228.24604 
L 449.215334 229.780532 
L 449.502944 229.994763 
L 449.790555 229.890139 
L 450.078165 229.068089 
L 450.365775 226.382728 
L 451.228606 211.999357 
L 452.091437 206.748206 
L 452.379048 206.40444 
L 452.666658 209.543173 
L 453.529489 231.065918 
L 453.817099 234.438811 
L 454.10471 235.734162 
L 454.39232 236.192516 
L 454.67993 236.317069 
L 454.967541 236.192516 
L 455.255151 235.853732 
L 455.542761 235.136308 
L 455.830372 233.990421 
L 456.405592 229.790496 
L 456.693203 227.409044 
L 456.980813 226.402657 
L 457.268423 226.831119 
L 457.843644 229.177696 
L 458.418865 230.577671 
L 458.706475 231.882985 
L 459.281696 236.904959 
L 460.144527 245.185237 
L 460.432137 246.953889 
L 460.719747 247.760992 
L 461.007358 247.656367 
L 461.294968 246.13184 
L 461.582578 241.44865 
L 461.870189 231.873021 
L 462.73302 188.404051 
L 463.02063 183.142936 
L 463.30824 185.823315 
L 464.458682 214.913895 
L 465.321513 221.699538 
L 465.896733 230.12928 
L 466.184344 232.211805 
L 466.471954 232.346322 
L 466.759564 232.226751 
L 467.047175 232.336358 
L 467.334785 231.295096 
L 467.622395 227.075243 
L 468.197616 214.116757 
L 468.485226 212.118928 
L 468.772837 214.345934 
L 469.060447 217.733773 
L 469.348057 219.482496 
L 469.635668 219.841209 
L 469.923278 220.419134 
L 470.498499 224.982753 
L 471.36133 232.809659 
L 471.64894 233.980457 
L 471.93655 232.685106 
L 472.224161 230.12928 
L 472.511771 229.058125 
L 472.799381 230.597599 
L 473.086992 232.799695 
L 473.374602 232.465893 
L 474.525043 217.853344 
L 474.812654 217.728791 
L 475.100264 217.972915 
L 475.675485 218.904571 
L 476.250705 218.675394 
L 476.538316 219.711674 
L 477.401147 227.319366 
L 478.263978 230.014691 
L 478.551588 229.053143 
L 479.414419 218.799946 
L 479.70203 219.009195 
L 479.98964 218.321663 
L 480.852471 207.923985 
L 481.140081 210.718953 
L 481.715302 219.248337 
L 482.865743 228.694431 
L 483.440964 231.270185 
L 484.016185 235.833804 
L 484.303795 236.79037 
L 484.591405 236.307105 
L 485.454236 233.033854 
L 486.029457 228.714359 
L 486.317067 228.360629 
L 486.604678 229.551355 
L 486.892288 229.984799 
L 487.179898 228.265968 
L 487.467509 225.321537 
L 487.755119 224.399846 
L 488.042729 227.080225 
L 488.61795 237.134136 
L 488.90556 239.112037 
L 489.193171 238.663646 
L 489.480781 237.47292 
L 489.768391 236.785388 
L 490.056002 236.894995 
L 490.631222 238.075757 
L 490.918833 237.233779 
L 491.206443 232.590446 
L 491.781664 209.573066 
L 492.069274 197.501397 
L 492.356884 190.870199 
L 492.644495 190.835325 
L 492.932105 195.787549 
L 493.794936 214.575111 
L 494.082546 217.723809 
L 494.657767 221.58495 
L 495.520598 233.148443 
L 495.808208 234.105009 
L 496.095819 233.033854 
L 498.109091 221.84402 
L 498.109091 221.84402 
" style="fill:none;stroke:#55a868;stroke-linecap:round;stroke-width:1.75;"/>
   </g>
   <g id="patch_3">
    <path d="M 72 352.44 
L 72 47.52 
" style="fill:none;"/>
   </g>
   <g id="patch_4">
    <path d="M 518.4 352.44 
L 518.4 47.52 
" style="fill:none;"/>
   </g>
   <g id="patch_5">
    <path d="M 72 352.44 
L 518.4 352.44 
" style="fill:none;"/>
   </g>
   <g id="patch_6">
    <path d="M 72 47.52 
L 518.4 47.52 
" style="fill:none;"/>
   </g>
  </g>
 </g>
 <defs>
  <clipPath id="p612bb88feb">
   <rect height="304.92" width="446.4" x="72" y="47.52"/>
  </clipPath>
 </defs>
</svg>
