<?xml version="1.0" encoding="utf-8" standalone="no"?>
<!DOCTYPE svg PUBLIC "-//W3C//DTD SVG 1.1//EN"
  "http://www.w3.org/Graphics/SVG/1.1/DTD/svg11.dtd">
<!-- Created with matplotlib (http://matplotlib.org/) -->
<svg height="360pt" version="1.1" viewBox="0 0 1152 360" width="1152pt" xmlns="http://www.w3.org/2000/svg" xmlns:xlink="http://www.w3.org/1999/xlink">
 <defs>
  <style type="text/css">
*{stroke-linecap:butt;stroke-linejoin:round;}
  </style>
 </defs>
 <g id="figure_1">
  <g id="patch_1">
   <path d="M 0 360 
L 1152 360 
L 1152 0 
L 0 0 
z
" style="fill:#ffffff;"/>
  </g>
  <g id="axes_1">
   <g id="patch_2">
    <path d="M 144 320.4 
L 1036.8 320.4 
L 1036.8 43.2 
L 144 43.2 
z
" style="fill:#eaeaf2;"/>
   </g>
   <g id="matplotlib.axis_1">
    <g id="xtick_1">
     <g id="line2d_1">
      <path clip-path="url(#p4b855c8a84)" d="M 184.581818 320.4 
L 184.581818 43.2 
" style="fill:none;stroke:#ffffff;stroke-linecap:round;stroke-width:0.8;"/>
     </g>
     <g id="line2d_2"/>
     <g id="text_1">
      <!-- 0.000 -->
      <defs>
       <path d="M 51.703125 34.421875 
Q 51.703125 24.515625 49.828125 17.75 
Q 47.953125 10.984375 44.703125 6.8125 
Q 41.453125 2.640625 37.0625 0.828125 
Q 32.671875 -0.984375 27.6875 -0.984375 
Q 22.65625 -0.984375 18.3125 0.828125 
Q 13.96875 2.640625 10.765625 6.78125 
Q 7.5625 10.9375 5.734375 17.703125 
Q 3.90625 24.46875 3.90625 34.421875 
Q 3.90625 44.828125 5.734375 51.640625 
Q 7.5625 58.453125 10.78125 62.5 
Q 14.015625 66.546875 18.40625 68.1875 
Q 22.796875 69.828125 27.984375 69.828125 
Q 32.90625 69.828125 37.21875 68.1875 
Q 41.546875 66.546875 44.765625 62.5 
Q 48 58.453125 49.84375 51.640625 
Q 51.703125 44.828125 51.703125 34.421875 
M 42.78125 34.421875 
Q 42.78125 42.625 41.796875 48.0625 
Q 40.828125 53.515625 38.921875 56.765625 
Q 37.015625 60.015625 34.25 61.359375 
Q 31.5 62.703125 27.984375 62.703125 
Q 24.265625 62.703125 21.4375 61.328125 
Q 18.609375 59.96875 16.671875 56.71875 
Q 14.75 53.46875 13.765625 48.015625 
Q 12.796875 42.578125 12.796875 34.421875 
Q 12.796875 26.515625 13.796875 21.09375 
Q 14.796875 15.671875 16.71875 12.375 
Q 18.65625 9.078125 21.4375 7.640625 
Q 24.21875 6.203125 27.78125 6.203125 
Q 31.25 6.203125 34.03125 7.640625 
Q 36.8125 9.078125 38.734375 12.375 
Q 40.671875 15.671875 41.71875 21.09375 
Q 42.78125 26.515625 42.78125 34.421875 
" id="LiberationSans-30"/>
       <path d="M 9.125 0 
L 9.125 10.6875 
L 18.65625 10.6875 
L 18.65625 0 
z
" id="LiberationSans-2e"/>
      </defs>
      <g style="fill:#262626;" transform="translate(174.573068 331.7975)scale(0.08 -0.08)">
       <use xlink:href="#LiberationSans-30"/>
       <use x="55.615234" xlink:href="#LiberationSans-2e"/>
       <use x="83.398438" xlink:href="#LiberationSans-30"/>
       <use x="139.013672" xlink:href="#LiberationSans-30"/>
       <use x="194.628906" xlink:href="#LiberationSans-30"/>
      </g>
     </g>
    </g>
    <g id="xtick_2">
     <g id="line2d_3">
      <path clip-path="url(#p4b855c8a84)" d="M 311.238448 320.4 
L 311.238448 43.2 
" style="fill:none;stroke:#ffffff;stroke-linecap:round;stroke-width:0.8;"/>
     </g>
     <g id="line2d_4"/>
     <g id="text_2">
      <!-- 0.005 -->
      <defs>
       <path d="M 51.421875 22.40625 
Q 51.421875 17.234375 49.859375 12.9375 
Q 48.296875 8.640625 45.21875 5.53125 
Q 42.140625 2.4375 37.578125 0.71875 
Q 33.015625 -0.984375 27 -0.984375 
Q 21.578125 -0.984375 17.546875 0.28125 
Q 13.53125 1.5625 10.734375 3.78125 
Q 7.953125 6 6.3125 8.984375 
Q 4.6875 11.96875 4 15.375 
L 12.890625 16.40625 
Q 13.421875 14.453125 14.390625 12.625 
Q 15.375 10.796875 17.0625 9.34375 
Q 18.75 7.90625 21.21875 7.046875 
Q 23.6875 6.203125 27.203125 6.203125 
Q 30.609375 6.203125 33.390625 7.25 
Q 36.1875 8.296875 38.15625 10.34375 
Q 40.140625 12.40625 41.203125 15.375 
Q 42.28125 18.359375 42.28125 22.21875 
Q 42.28125 25.390625 41.25 28.046875 
Q 40.234375 30.71875 38.328125 32.640625 
Q 36.421875 34.578125 33.65625 35.640625 
Q 30.90625 36.71875 27.390625 36.71875 
Q 25.203125 36.71875 23.34375 36.328125 
Q 21.484375 35.9375 19.890625 35.25 
Q 18.3125 34.578125 17.015625 33.671875 
Q 15.71875 32.765625 14.59375 31.78125 
L 6 31.78125 
L 8.296875 68.796875 
L 47.40625 68.796875 
L 47.40625 61.328125 
L 16.3125 61.328125 
L 14.984375 39.5 
Q 17.328125 41.3125 20.84375 42.59375 
Q 24.359375 43.890625 29.203125 43.890625 
Q 34.328125 43.890625 38.421875 42.328125 
Q 42.53125 40.765625 45.40625 37.90625 
Q 48.296875 35.0625 49.859375 31.109375 
Q 51.421875 27.15625 51.421875 22.40625 
" id="LiberationSans-35"/>
      </defs>
      <g style="fill:#262626;" transform="translate(301.229698 331.7975)scale(0.08 -0.08)">
       <use xlink:href="#LiberationSans-30"/>
       <use x="55.615234" xlink:href="#LiberationSans-2e"/>
       <use x="83.398438" xlink:href="#LiberationSans-30"/>
       <use x="139.013672" xlink:href="#LiberationSans-30"/>
       <use x="194.628906" xlink:href="#LiberationSans-35"/>
      </g>
     </g>
    </g>
    <g id="xtick_3">
     <g id="line2d_5">
      <path clip-path="url(#p4b855c8a84)" d="M 437.895078 320.4 
L 437.895078 43.2 
" style="fill:none;stroke:#ffffff;stroke-linecap:round;stroke-width:0.8;"/>
     </g>
     <g id="line2d_6"/>
     <g id="text_3">
      <!-- 0.010 -->
      <defs>
       <path d="M 7.625 0 
L 7.625 7.46875 
L 25.140625 7.46875 
L 25.140625 60.40625 
L 9.625 49.3125 
L 9.625 57.625 
L 25.875 68.796875 
L 33.984375 68.796875 
L 33.984375 7.46875 
L 50.734375 7.46875 
L 50.734375 0 
z
" id="LiberationSans-31"/>
      </defs>
      <g style="fill:#262626;" transform="translate(427.886328 331.7975)scale(0.08 -0.08)">
       <use xlink:href="#LiberationSans-30"/>
       <use x="55.615234" xlink:href="#LiberationSans-2e"/>
       <use x="83.398438" xlink:href="#LiberationSans-30"/>
       <use x="139.013672" xlink:href="#LiberationSans-31"/>
       <use x="194.628906" xlink:href="#LiberationSans-30"/>
      </g>
     </g>
    </g>
    <g id="xtick_4">
     <g id="line2d_7">
      <path clip-path="url(#p4b855c8a84)" d="M 564.551708 320.4 
L 564.551708 43.2 
" style="fill:none;stroke:#ffffff;stroke-linecap:round;stroke-width:0.8;"/>
     </g>
     <g id="line2d_8"/>
     <g id="text_4">
      <!-- 0.015 -->
      <g style="fill:#262626;" transform="translate(554.542958 331.7975)scale(0.08 -0.08)">
       <use xlink:href="#LiberationSans-30"/>
       <use x="55.615234" xlink:href="#LiberationSans-2e"/>
       <use x="83.398438" xlink:href="#LiberationSans-30"/>
       <use x="139.013672" xlink:href="#LiberationSans-31"/>
       <use x="194.628906" xlink:href="#LiberationSans-35"/>
      </g>
     </g>
    </g>
    <g id="xtick_5">
     <g id="line2d_9">
      <path clip-path="url(#p4b855c8a84)" d="M 691.208338 320.4 
L 691.208338 43.2 
" style="fill:none;stroke:#ffffff;stroke-linecap:round;stroke-width:0.8;"/>
     </g>
     <g id="line2d_10"/>
     <g id="text_5">
      <!-- 0.020 -->
      <defs>
       <path d="M 5.03125 0 
L 5.03125 6.203125 
Q 7.515625 11.921875 11.109375 16.28125 
Q 14.703125 20.65625 18.65625 24.1875 
Q 22.609375 27.734375 26.484375 30.765625 
Q 30.375 33.796875 33.5 36.8125 
Q 36.625 39.84375 38.546875 43.15625 
Q 40.484375 46.484375 40.484375 50.6875 
Q 40.484375 53.609375 39.59375 55.828125 
Q 38.71875 58.0625 37.0625 59.5625 
Q 35.40625 61.078125 33.078125 61.828125 
Q 30.765625 62.59375 27.9375 62.59375 
Q 25.296875 62.59375 22.96875 61.859375 
Q 20.65625 61.140625 18.84375 59.671875 
Q 17.046875 58.203125 15.890625 56.03125 
Q 14.75 53.859375 14.40625 50.984375 
L 5.421875 51.8125 
Q 5.859375 55.515625 7.46875 58.78125 
Q 9.078125 62.0625 11.90625 64.53125 
Q 14.75 67 18.71875 68.40625 
Q 22.703125 69.828125 27.9375 69.828125 
Q 33.0625 69.828125 37.0625 68.609375 
Q 41.0625 67.390625 43.8125 64.984375 
Q 46.578125 62.59375 48.046875 59.078125 
Q 49.515625 55.5625 49.515625 50.984375 
Q 49.515625 47.515625 48.265625 44.390625 
Q 47.015625 41.265625 44.9375 38.421875 
Q 42.875 35.59375 40.140625 32.953125 
Q 37.40625 30.328125 34.421875 27.8125 
Q 31.453125 25.296875 28.421875 22.828125 
Q 25.390625 20.359375 22.71875 17.859375 
Q 20.0625 15.375 17.96875 12.8125 
Q 15.875 10.25 14.703125 7.46875 
L 50.59375 7.46875 
L 50.59375 0 
z
" id="LiberationSans-32"/>
      </defs>
      <g style="fill:#262626;" transform="translate(681.199588 331.7975)scale(0.08 -0.08)">
       <use xlink:href="#LiberationSans-30"/>
       <use x="55.615234" xlink:href="#LiberationSans-2e"/>
       <use x="83.398438" xlink:href="#LiberationSans-30"/>
       <use x="139.013672" xlink:href="#LiberationSans-32"/>
       <use x="194.628906" xlink:href="#LiberationSans-30"/>
      </g>
     </g>
    </g>
    <g id="xtick_6">
     <g id="line2d_11">
      <path clip-path="url(#p4b855c8a84)" d="M 817.864968 320.4 
L 817.864968 43.2 
" style="fill:none;stroke:#ffffff;stroke-linecap:round;stroke-width:0.8;"/>
     </g>
     <g id="line2d_12"/>
     <g id="text_6">
      <!-- 0.025 -->
      <g style="fill:#262626;" transform="translate(807.856218 331.7975)scale(0.08 -0.08)">
       <use xlink:href="#LiberationSans-30"/>
       <use x="55.615234" xlink:href="#LiberationSans-2e"/>
       <use x="83.398438" xlink:href="#LiberationSans-30"/>
       <use x="139.013672" xlink:href="#LiberationSans-32"/>
       <use x="194.628906" xlink:href="#LiberationSans-35"/>
      </g>
     </g>
    </g>
    <g id="xtick_7">
     <g id="line2d_13">
      <path clip-path="url(#p4b855c8a84)" d="M 944.521598 320.4 
L 944.521598 43.2 
" style="fill:none;stroke:#ffffff;stroke-linecap:round;stroke-width:0.8;"/>
     </g>
     <g id="line2d_14"/>
     <g id="text_7">
      <!-- 0.030 -->
      <defs>
       <path d="M 51.21875 19 
Q 51.21875 14.265625 49.671875 10.546875 
Q 48.140625 6.84375 45.1875 4.265625 
Q 42.234375 1.703125 37.859375 0.359375 
Q 33.5 -0.984375 27.875 -0.984375 
Q 21.484375 -0.984375 17.109375 0.609375 
Q 12.75 2.203125 9.90625 4.8125 
Q 7.078125 7.421875 5.65625 10.765625 
Q 4.25 14.109375 3.8125 17.671875 
L 12.890625 18.5 
Q 13.28125 15.765625 14.328125 13.515625 
Q 15.375 11.28125 17.1875 9.671875 
Q 19 8.0625 21.625 7.171875 
Q 24.265625 6.296875 27.875 6.296875 
Q 34.515625 6.296875 38.296875 9.5625 
Q 42.09375 12.84375 42.09375 19.28125 
Q 42.09375 23.09375 40.40625 25.40625 
Q 38.71875 27.734375 36.203125 29.03125 
Q 33.6875 30.328125 30.734375 30.765625 
Q 27.78125 31.203125 25.296875 31.203125 
L 20.3125 31.203125 
L 20.3125 38.8125 
L 25.09375 38.8125 
Q 27.59375 38.8125 30.265625 39.328125 
Q 32.953125 39.84375 35.171875 41.1875 
Q 37.40625 42.53125 38.84375 44.828125 
Q 40.28125 47.125 40.28125 50.6875 
Q 40.28125 56.203125 37.03125 59.390625 
Q 33.796875 62.59375 27.390625 62.59375 
Q 21.578125 62.59375 17.984375 59.609375 
Q 14.40625 56.640625 13.8125 51.21875 
L 4.984375 51.90625 
Q 5.515625 56.453125 7.46875 59.8125 
Q 9.421875 63.1875 12.421875 65.40625 
Q 15.4375 67.625 19.28125 68.71875 
Q 23.140625 69.828125 27.484375 69.828125 
Q 33.25 69.828125 37.390625 68.375 
Q 41.546875 66.9375 44.1875 64.46875 
Q 46.828125 62.015625 48.0625 58.6875 
Q 49.3125 55.375 49.3125 51.609375 
Q 49.3125 48.578125 48.484375 45.9375 
Q 47.65625 43.3125 45.890625 41.203125 
Q 44.140625 39.109375 41.421875 37.59375 
Q 38.71875 36.078125 34.90625 35.296875 
L 34.90625 35.109375 
Q 39.0625 34.671875 42.140625 33.21875 
Q 45.21875 31.78125 47.21875 29.625 
Q 49.21875 27.484375 50.21875 24.75 
Q 51.21875 22.015625 51.21875 19 
" id="LiberationSans-33"/>
      </defs>
      <g style="fill:#262626;" transform="translate(934.512848 331.7975)scale(0.08 -0.08)">
       <use xlink:href="#LiberationSans-30"/>
       <use x="55.615234" xlink:href="#LiberationSans-2e"/>
       <use x="83.398438" xlink:href="#LiberationSans-30"/>
       <use x="139.013672" xlink:href="#LiberationSans-33"/>
       <use x="194.628906" xlink:href="#LiberationSans-30"/>
      </g>
     </g>
    </g>
   </g>
   <g id="matplotlib.axis_2">
    <g id="ytick_1">
     <g id="line2d_15">
      <path clip-path="url(#p4b855c8a84)" d="M 144 307.684217 
L 1036.8 307.684217 
" style="fill:none;stroke:#ffffff;stroke-linecap:round;stroke-width:0.8;"/>
     </g>
     <g id="line2d_16"/>
     <g id="text_8">
      <!-- 0 -->
      <g style="fill:#262626;" transform="translate(133.95125 310.582967)scale(0.08 -0.08)">
       <use xlink:href="#LiberationSans-30"/>
      </g>
     </g>
    </g>
    <g id="ytick_2">
     <g id="line2d_17">
      <path clip-path="url(#p4b855c8a84)" d="M 144 269.090031 
L 1036.8 269.090031 
" style="fill:none;stroke:#ffffff;stroke-linecap:round;stroke-width:0.8;"/>
     </g>
     <g id="line2d_18"/>
     <g id="text_9">
      <!-- 2 -->
      <g style="fill:#262626;" transform="translate(133.95125 271.988781)scale(0.08 -0.08)">
       <use xlink:href="#LiberationSans-32"/>
      </g>
     </g>
    </g>
    <g id="ytick_3">
     <g id="line2d_19">
      <path clip-path="url(#p4b855c8a84)" d="M 144 230.495844 
L 1036.8 230.495844 
" style="fill:none;stroke:#ffffff;stroke-linecap:round;stroke-width:0.8;"/>
     </g>
     <g id="line2d_20"/>
     <g id="text_10">
      <!-- 4 -->
      <defs>
       <path d="M 43.015625 15.578125 
L 43.015625 0 
L 34.71875 0 
L 34.71875 15.578125 
L 2.296875 15.578125 
L 2.296875 22.40625 
L 33.796875 68.796875 
L 43.015625 68.796875 
L 43.015625 22.515625 
L 52.6875 22.515625 
L 52.6875 15.578125 
z
M 34.71875 58.890625 
Q 34.625 58.640625 34.234375 57.9375 
Q 33.84375 57.234375 33.34375 56.34375 
Q 32.859375 55.46875 32.34375 54.5625 
Q 31.84375 53.65625 31.453125 53.078125 
L 13.8125 27.09375 
Q 13.578125 26.703125 13.109375 26.0625 
Q 12.640625 25.4375 12.15625 24.78125 
Q 11.671875 24.125 11.171875 23.484375 
Q 10.6875 22.859375 10.40625 22.515625 
L 34.71875 22.515625 
z
" id="LiberationSans-34"/>
      </defs>
      <g style="fill:#262626;" transform="translate(133.95125 233.394594)scale(0.08 -0.08)">
       <use xlink:href="#LiberationSans-34"/>
      </g>
     </g>
    </g>
    <g id="ytick_4">
     <g id="line2d_21">
      <path clip-path="url(#p4b855c8a84)" d="M 144 191.901658 
L 1036.8 191.901658 
" style="fill:none;stroke:#ffffff;stroke-linecap:round;stroke-width:0.8;"/>
     </g>
     <g id="line2d_22"/>
     <g id="text_11">
      <!-- 6 -->
      <defs>
       <path d="M 51.21875 22.515625 
Q 51.21875 17.328125 49.78125 13 
Q 48.34375 8.6875 45.53125 5.578125 
Q 42.71875 2.484375 38.5625 0.75 
Q 34.421875 -0.984375 29 -0.984375 
Q 23 -0.984375 18.5 1.3125 
Q 14.015625 3.609375 11.03125 7.921875 
Q 8.0625 12.25 6.5625 18.53125 
Q 5.078125 24.8125 5.078125 32.8125 
Q 5.078125 42 6.765625 48.921875 
Q 8.453125 55.859375 11.625 60.5 
Q 14.796875 65.140625 19.359375 67.484375 
Q 23.921875 69.828125 29.6875 69.828125 
Q 33.203125 69.828125 36.28125 69.09375 
Q 39.359375 68.359375 41.875 66.71875 
Q 44.390625 65.09375 46.28125 62.40625 
Q 48.1875 59.71875 49.3125 55.8125 
L 40.921875 54.296875 
Q 39.546875 58.734375 36.546875 60.71875 
Q 33.546875 62.703125 29.59375 62.703125 
Q 25.984375 62.703125 23.046875 60.984375 
Q 20.125 59.28125 18.0625 55.875 
Q 16.015625 52.484375 14.90625 47.359375 
Q 13.8125 42.234375 13.8125 35.40625 
Q 16.21875 39.84375 20.5625 42.15625 
Q 24.90625 44.484375 30.515625 44.484375 
Q 35.203125 44.484375 39.015625 42.96875 
Q 42.828125 41.453125 45.53125 38.59375 
Q 48.25 35.75 49.734375 31.671875 
Q 51.21875 27.59375 51.21875 22.515625 
M 42.28125 22.125 
Q 42.28125 25.6875 41.40625 28.5625 
Q 40.53125 31.453125 38.765625 33.46875 
Q 37.015625 35.5 34.421875 36.59375 
Q 31.84375 37.703125 28.421875 37.703125 
Q 26.03125 37.703125 23.578125 36.984375 
Q 21.140625 36.28125 19.15625 34.6875 
Q 17.1875 33.109375 15.9375 30.515625 
Q 14.703125 27.9375 14.703125 24.21875 
Q 14.703125 20.40625 15.671875 17.109375 
Q 16.65625 13.8125 18.484375 11.375 
Q 20.3125 8.9375 22.890625 7.515625 
Q 25.484375 6.109375 28.71875 6.109375 
Q 31.890625 6.109375 34.40625 7.203125 
Q 36.921875 8.296875 38.671875 10.375 
Q 40.4375 12.453125 41.359375 15.421875 
Q 42.28125 18.40625 42.28125 22.125 
" id="LiberationSans-36"/>
      </defs>
      <g style="fill:#262626;" transform="translate(133.95125 194.800408)scale(0.08 -0.08)">
       <use xlink:href="#LiberationSans-36"/>
      </g>
     </g>
    </g>
    <g id="ytick_5">
     <g id="line2d_23">
      <path clip-path="url(#p4b855c8a84)" d="M 144 153.307471 
L 1036.8 153.307471 
" style="fill:none;stroke:#ffffff;stroke-linecap:round;stroke-width:0.8;"/>
     </g>
     <g id="line2d_24"/>
     <g id="text_12">
      <!-- 8 -->
      <defs>
       <path d="M 51.265625 19.1875 
Q 51.265625 14.796875 49.875 11.109375 
Q 48.484375 7.421875 45.625 4.734375 
Q 42.78125 2.046875 38.328125 0.53125 
Q 33.890625 -0.984375 27.828125 -0.984375 
Q 21.78125 -0.984375 17.359375 0.53125 
Q 12.9375 2.046875 10.03125 4.703125 
Q 7.125 7.375 5.734375 11.0625 
Q 4.34375 14.75 4.34375 19.09375 
Q 4.34375 22.859375 5.484375 25.78125 
Q 6.640625 28.71875 8.5625 30.828125 
Q 10.5 32.953125 12.96875 34.25 
Q 15.4375 35.546875 18.0625 35.984375 
L 18.0625 36.1875 
Q 15.1875 36.859375 12.90625 38.375 
Q 10.640625 39.890625 9.09375 42.015625 
Q 7.5625 44.140625 6.75 46.71875 
Q 5.953125 49.3125 5.953125 52.203125 
Q 5.953125 55.8125 7.34375 59 
Q 8.734375 62.203125 11.46875 64.625 
Q 14.203125 67.046875 18.25 68.4375 
Q 22.3125 69.828125 27.640625 69.828125 
Q 33.25 69.828125 37.375 68.40625 
Q 41.5 67 44.203125 64.578125 
Q 46.921875 62.15625 48.234375 58.9375 
Q 49.5625 55.71875 49.5625 52.09375 
Q 49.5625 49.265625 48.75 46.671875 
Q 47.953125 44.09375 46.40625 41.96875 
Q 44.875 39.84375 42.59375 38.34375 
Q 40.328125 36.859375 37.359375 36.28125 
L 37.359375 36.078125 
Q 40.328125 35.59375 42.859375 34.296875 
Q 45.40625 33.015625 47.265625 30.890625 
Q 49.125 28.765625 50.1875 25.828125 
Q 51.265625 22.90625 51.265625 19.1875 
M 40.4375 51.609375 
Q 40.4375 54.203125 39.765625 56.34375 
Q 39.109375 58.5 37.59375 60.03125 
Q 36.078125 61.578125 33.640625 62.421875 
Q 31.203125 63.28125 27.640625 63.28125 
Q 24.171875 63.28125 21.78125 62.421875 
Q 19.390625 61.578125 17.84375 60.03125 
Q 16.3125 58.5 15.625 56.34375 
Q 14.9375 54.203125 14.9375 51.609375 
Q 14.9375 49.5625 15.46875 47.40625 
Q 16.015625 45.265625 17.421875 43.5 
Q 18.84375 41.75 21.328125 40.625 
Q 23.828125 39.5 27.734375 39.5 
Q 31.890625 39.5 34.40625 40.625 
Q 36.921875 41.75 38.25 43.5 
Q 39.59375 45.265625 40.015625 47.40625 
Q 40.4375 49.5625 40.4375 51.609375 
M 42.140625 20.015625 
Q 42.140625 22.515625 41.453125 24.828125 
Q 40.765625 27.15625 39.109375 28.9375 
Q 37.453125 30.71875 34.640625 31.8125 
Q 31.84375 32.90625 27.640625 32.90625 
Q 23.78125 32.90625 21.0625 31.8125 
Q 18.359375 30.71875 16.671875 28.90625 
Q 14.984375 27.09375 14.203125 24.71875 
Q 13.421875 22.359375 13.421875 19.828125 
Q 13.421875 16.65625 14.203125 14.03125 
Q 14.984375 11.421875 16.6875 9.546875 
Q 18.40625 7.671875 21.1875 6.640625 
Q 23.96875 5.609375 27.9375 5.609375 
Q 31.9375 5.609375 34.671875 6.640625 
Q 37.40625 7.671875 39.0625 9.546875 
Q 40.71875 11.421875 41.421875 14.078125 
Q 42.140625 16.75 42.140625 20.015625 
" id="LiberationSans-38"/>
      </defs>
      <g style="fill:#262626;" transform="translate(133.95125 156.206221)scale(0.08 -0.08)">
       <use xlink:href="#LiberationSans-38"/>
      </g>
     </g>
    </g>
    <g id="ytick_6">
     <g id="line2d_25">
      <path clip-path="url(#p4b855c8a84)" d="M 144 114.713284 
L 1036.8 114.713284 
" style="fill:none;stroke:#ffffff;stroke-linecap:round;stroke-width:0.8;"/>
     </g>
     <g id="line2d_26"/>
     <g id="text_13">
      <!-- 10 -->
      <g style="fill:#262626;" transform="translate(129.5025 117.612034)scale(0.08 -0.08)">
       <use xlink:href="#LiberationSans-31"/>
       <use x="55.615234" xlink:href="#LiberationSans-30"/>
      </g>
     </g>
    </g>
    <g id="ytick_7">
     <g id="line2d_27">
      <path clip-path="url(#p4b855c8a84)" d="M 144 76.119098 
L 1036.8 76.119098 
" style="fill:none;stroke:#ffffff;stroke-linecap:round;stroke-width:0.8;"/>
     </g>
     <g id="line2d_28"/>
     <g id="text_14">
      <!-- 12 -->
      <g style="fill:#262626;" transform="translate(129.5025 79.017848)scale(0.08 -0.08)">
       <use xlink:href="#LiberationSans-31"/>
       <use x="55.615234" xlink:href="#LiberationSans-32"/>
      </g>
     </g>
    </g>
   </g>
   <g id="line2d_29">
    <path clip-path="url(#p4b855c8a84)" d="M 184.581818 292.662463 
L 186.305038 237.027907 
L 187.453851 209.383746 
L 188.028257 199.87158 
L 188.602664 193.088818 
L 189.17707 188.475958 
L 190.90029 179.059226 
L 191.474696 174.590683 
L 192.049102 168.600157 
L 193.197915 152.490716 
L 194.346728 134.867345 
L 194.921135 127.610007 
L 195.495541 122.424422 
L 196.069948 119.770407 
L 196.644354 119.740961 
L 197.218761 122.041206 
L 197.793167 126.036153 
L 198.94198 135.559613 
L 199.516387 139.269957 
L 200.090793 141.351857 
L 200.6652 141.506034 
L 201.239606 139.819883 
L 201.814013 136.746586 
L 202.962826 129.514677 
L 203.537232 127.093017 
L 204.111639 126.438575 
L 204.686045 127.933381 
L 205.260452 131.584069 
L 205.834858 137.015752 
L 207.558078 156.203194 
L 208.132484 160.589644 
L 208.706891 162.839135 
L 209.281297 162.744668 
L 209.855704 160.489364 
L 210.43011 156.610877 
L 211.578923 147.272495 
L 212.153329 143.575087 
L 212.727736 141.462357 
L 213.302142 141.264211 
L 213.876549 142.929398 
L 214.450955 146.034115 
L 215.599768 153.508962 
L 216.174175 156.089423 
L 216.748581 156.849986 
L 217.322988 155.327595 
L 217.897394 151.428809 
L 218.471801 145.448399 
L 220.769427 115.87199 
L 221.343833 111.229451 
L 221.91824 108.684763 
L 222.492646 108.128202 
L 223.067053 109.08667 
L 224.215866 112.416399 
L 224.790272 113.037343 
L 225.364679 111.991917 
L 225.939085 108.903761 
L 226.513492 103.773574 
L 227.662305 89.22937 
L 228.811118 74.450733 
L 229.385524 69.171297 
L 229.959931 66.116419 
L 230.534337 65.474797 
L 231.108743 67.045253 
L 231.68315 70.274684 
L 232.831963 78.384394 
L 233.406369 81.497599 
L 233.980776 83.052067 
L 234.555182 82.726821 
L 235.129589 80.583065 
L 236.278402 72.86316 
L 236.852808 68.902933 
L 237.427215 66.066582 
L 238.001621 65.091949 
L 238.576028 66.427522 
L 239.150434 70.15052 
L 239.724841 75.950722 
L 242.022467 104.592498 
L 242.596873 108.952928 
L 243.17128 111.214193 
L 243.745686 111.498241 
L 244.320093 110.288514 
L 245.468906 106.540474 
L 246.043312 105.749255 
L 246.617719 106.639532 
L 247.192125 109.574984 
L 247.766532 114.541077 
L 248.915345 128.676152 
L 250.064157 142.903611 
L 250.638564 147.86235 
L 251.21297 150.580767 
L 251.787377 150.8843 
L 252.361783 148.988178 
L 252.93619 145.457103 
L 254.085003 136.83957 
L 254.659409 133.517981 
L 255.233816 131.77547 
L 255.808222 131.921261 
L 256.382629 133.881619 
L 257.531442 141.183091 
L 258.105848 144.899231 
L 258.680255 147.471427 
L 259.254661 148.170891 
L 259.829068 146.561981 
L 260.403474 142.581999 
L 260.977881 136.554928 
L 263.275507 107.443646 
L 263.849913 103.062768 
L 264.42432 100.799136 
L 264.998726 100.517517 
L 265.573133 101.723205 
L 266.721946 105.420182 
L 267.296352 106.1662 
L 267.870759 105.227514 
L 268.445165 102.252433 
L 269.019572 97.268596 
L 270.168384 83.207348 
L 271.317197 69.228279 
L 271.891604 64.449156 
L 272.46601 61.932134 
L 273.040417 61.837138 
L 273.614823 63.934496 
L 274.18923 67.647626 
L 275.338043 76.54757 
L 275.912449 79.971433 
L 276.486856 81.800068 
L 277.061262 81.735796 
L 277.635669 79.86461 
L 278.784482 72.802889 
L 279.358888 69.245614 
L 279.933295 66.8546 
L 280.507701 66.349262 
L 281.082108 68.15216 
L 281.656514 72.311333 
L 282.230921 78.489001 
L 284.528547 107.781558 
L 285.102953 112.115626 
L 285.67736 114.3164 
L 286.251766 114.532334 
L 286.826173 113.269263 
L 287.974986 109.50523 
L 288.549392 108.747303 
L 289.123798 109.67837 
L 289.698205 112.63805 
L 290.272611 117.585603 
L 291.421424 131.468398 
L 292.570237 145.100241 
L 293.144644 149.65298 
L 293.71905 151.923771 
L 294.293457 151.76736 
L 294.867863 149.427799 
L 296.016676 140.790862 
L 296.591083 136.237138 
L 297.165489 132.675853 
L 297.739896 130.726918 
L 298.314302 130.67637 
L 298.888709 132.42594 
L 300.037522 139.185897 
L 300.611928 142.555 
L 301.186335 144.736855 
L 301.760741 145.021516 
L 302.335148 142.999541 
L 302.909554 138.637493 
L 303.483961 132.286812 
L 305.781587 102.731075 
L 306.355993 98.42399 
L 306.9304 96.266145 
L 307.504806 96.095815 
L 308.079213 97.39607 
L 309.228025 101.186795 
L 309.802432 101.936696 
L 310.376838 100.993587 
L 310.951245 98.02992 
L 311.525651 93.099462 
L 312.674464 79.356638 
L 313.823277 66.031784 
L 314.397684 61.684044 
L 314.97209 59.637024 
L 315.546497 60.02124 
L 316.120903 62.578281 
L 317.269716 71.577214 
L 317.844123 76.266925 
L 318.418529 79.93788 
L 318.992936 81.979009 
L 319.567342 82.115986 
L 320.141749 80.459343 
L 321.290562 73.942492 
L 321.864968 70.731277 
L 322.439375 68.727446 
L 323.013781 68.631356 
L 323.588188 70.839287 
L 324.162594 75.370114 
L 324.737001 81.858869 
L 327.034627 111.534227 
L 327.609033 115.778713 
L 328.183439 117.858462 
L 328.757846 117.948498 
L 329.332252 116.576804 
L 330.481065 112.691739 
L 331.055472 111.916224 
L 331.629878 112.837741 
L 332.204285 115.771755 
L 332.778691 120.651546 
L 333.927504 134.188123 
L 335.076317 147.142437 
L 335.650724 151.255008 
L 336.22513 153.049373 
L 336.799537 152.409811 
L 337.373943 149.609061 
L 338.522756 140.199088 
L 339.097163 135.350209 
L 339.671569 131.547048 
L 340.245976 129.39169 
L 340.820382 129.146683 
L 341.394789 130.689232 
L 342.543602 136.922342 
L 343.118008 139.956499 
L 343.692415 141.764108 
L 344.266821 141.654512 
L 344.841228 139.244631 
L 345.415634 134.530105 
L 346.564447 120.019396 
L 347.71326 104.217808 
L 348.287666 98.042991 
L 348.862073 93.848191 
L 349.436479 91.833261 
L 350.010886 91.809841 
L 350.585292 93.238945 
L 351.734105 97.189672 
L 352.308512 97.976402 
L 352.882918 97.062154 
L 353.457325 94.143555 
L 354.031731 89.300204 
L 355.180544 75.940782 
L 356.329357 63.325511 
L 356.903764 59.430883 
L 357.47817 57.870756 
L 358.052577 58.746002 
L 358.626983 61.769596 
L 359.775796 71.545801 
L 360.350203 76.530283 
L 360.924609 80.441564 
L 361.499016 82.686688 
L 362.073422 83.014959 
L 362.647829 81.561426 
L 363.796642 75.560596 
L 364.371048 72.676819 
L 364.945455 71.037917 
L 365.519861 71.324744 
L 366.094268 73.907146 
L 366.668674 78.775023 
L 367.817487 93.485382 
L 368.9663 109.304776 
L 369.540706 115.42654 
L 370.115113 119.540279 
L 370.689519 121.459546 
L 371.263926 121.386061 
L 371.838332 119.869767 
L 372.987145 115.794895 
L 373.561552 114.967995 
L 374.135958 115.846094 
L 374.710365 118.720467 
L 375.284771 123.49871 
L 377.582397 148.847721 
L 378.156804 152.499475 
L 378.73121 153.80176 
L 379.305617 152.668596 
L 379.880023 149.401248 
L 381.028836 139.220404 
L 381.603243 134.082434 
L 382.177649 130.045767 
L 382.752056 127.694092 
L 383.326462 127.266172 
L 383.900869 128.614713 
L 385.049682 134.352902 
L 385.624088 137.072205 
L 386.198494 138.529228 
L 386.772901 138.05302 
L 387.347307 135.286998 
L 387.921714 130.255661 
L 389.070527 115.327742 
L 390.21934 99.47406 
L 390.793746 93.396989 
L 391.368153 89.355596 
L 391.942559 87.522813 
L 392.516966 87.683535 
L 393.091372 89.276915 
L 394.240185 93.454871 
L 394.814592 94.311235 
L 395.388998 93.458578 
L 395.963405 90.617731 
L 396.537811 85.893831 
L 398.835437 61.123014 
L 399.409844 57.700032 
L 399.98425 56.640257 
L 400.558657 58.014739 
L 401.133063 61.508024 
L 403.430689 81.466885 
L 404.005096 83.903798 
L 404.579502 84.409779 
L 405.153909 83.144369 
L 406.302721 77.62391 
L 406.877128 75.045745 
L 407.451534 73.746487 
L 408.025941 74.387086 
L 408.600347 77.310842 
L 409.174754 82.478921 
L 410.323567 97.569148 
L 411.47238 113.401116 
L 412.046786 119.405868 
L 412.621193 123.347808 
L 413.195599 125.067627 
L 413.770006 124.793838 
L 414.344412 123.098138 
L 415.493225 118.767944 
L 416.067632 117.857943 
L 416.642038 118.661136 
L 417.216445 121.444581 
L 417.790851 126.090485 
L 420.088477 150.194417 
L 420.662884 153.369044 
L 421.23729 154.168088 
L 421.811697 152.535461 
L 422.386103 148.800742 
L 424.683729 128.186462 
L 425.258135 125.652836 
L 425.832542 125.057684 
L 426.406948 126.229226 
L 428.130168 133.939994 
L 428.704574 135.07337 
L 429.278981 134.261218 
L 429.853387 131.173541 
L 430.427794 125.863435 
L 431.576607 110.602346 
L 432.72542 94.784542 
L 433.299826 88.848053 
L 433.874233 85.001056 
L 434.448639 83.389133 
L 435.023046 83.770343 
L 435.597452 85.562202 
L 436.746265 90.03123 
L 437.320672 90.987887 
L 437.895078 90.227105 
L 438.469485 87.493945 
L 439.043891 82.918783 
L 441.341517 59.447645 
L 441.915924 56.510494 
L 442.49033 55.960043 
L 443.064737 57.837398 
L 443.639143 61.798919 
L 445.936769 83.00145 
L 446.511175 85.613807 
L 447.085582 86.279919 
L 447.659988 85.183805 
L 449.383208 77.803205 
L 449.957614 76.815237 
L 450.532021 77.777663 
L 451.106427 81.007169 
L 451.680834 86.436472 
L 452.829647 101.821257 
L 453.97846 117.577426 
L 454.552866 123.422458 
L 455.127273 127.151939 
L 455.701679 128.63412 
L 456.276086 128.124382 
L 456.850492 126.215933 
L 457.999305 121.568753 
L 458.573712 120.546293 
L 459.148118 121.245739 
L 459.722525 123.909906 
L 460.296931 128.39591 
L 462.594557 151.16716 
L 463.168964 153.852772 
L 463.74337 154.141954 
L 464.317776 152.008601 
L 464.892183 147.810336 
L 467.189809 125.989477 
L 467.764215 123.292306 
L 468.338622 122.549474 
L 468.913028 123.564728 
L 470.636248 130.60178 
L 471.210654 131.441308 
L 471.785061 130.326458 
L 472.359467 126.953862 
L 472.933874 121.404916 
L 474.082687 105.897245 
L 475.2315 90.204089 
L 475.805906 84.450764 
L 476.380313 80.838492 
L 476.954719 79.485096 
L 477.529126 80.121744 
L 478.103532 82.144568 
L 479.252345 86.964185 
L 479.826752 88.049211 
L 480.401158 87.407729 
L 480.975565 84.809055 
L 481.549971 80.408509 
L 483.847597 58.316701 
L 484.422003 55.875057 
L 484.99641 55.8383 
L 485.570816 58.217524 
L 486.145223 62.641204 
L 488.442849 85.02677 
L 489.017255 87.794275 
L 489.591662 88.599169 
L 490.166068 87.649944 
L 491.889288 80.909917 
L 492.463694 80.202206 
L 493.038101 81.452135 
L 493.612507 84.949747 
L 494.186914 90.599624 
L 495.335727 106.191569 
L 496.48454 121.783243 
L 497.058946 127.42633 
L 497.633353 130.903589 
L 498.207759 132.111214 
L 498.782166 131.331495 
L 499.356572 129.178889 
L 500.505385 124.157776 
L 501.079792 122.996263 
L 501.654198 123.566146 
L 502.228605 126.085971 
L 502.803011 130.388059 
L 505.100637 151.75553 
L 505.675043 153.944789 
L 506.24945 153.722104 
L 506.823856 151.091395 
L 507.398263 146.437999 
L 509.695889 123.479852 
L 510.270295 120.64136 
L 510.844702 119.774018 
L 511.419108 120.657102 
L 513.142328 127.102333 
L 513.716734 127.680262 
L 514.291141 126.298095 
L 514.865547 122.679109 
L 515.439954 116.93266 
L 516.588767 101.266546 
L 517.73758 85.786585 
L 518.311986 80.258249 
L 518.886393 76.919867 
L 519.460799 75.861134 
L 520.035206 76.786302 
L 520.609612 79.070399 
L 521.758425 84.294946 
L 522.332831 85.533445 
L 522.907238 85.035469 
L 523.481644 82.594616 
L 524.056051 78.390855 
L 525.77927 61.73578 
L 526.353677 57.741071 
L 526.928083 55.8 
L 527.50249 56.276649 
L 528.076896 59.152092 
L 528.651303 64.027273 
L 530.948929 87.518407 
L 531.523335 90.417054 
L 532.097742 91.335893 
L 532.672148 90.507883 
L 534.395368 84.322609 
L 534.969774 83.861876 
L 535.544181 85.363054 
L 536.118587 89.089554 
L 536.692994 94.918175 
L 537.841807 110.628796 
L 538.99062 125.967969 
L 539.565026 131.367882 
L 540.139433 134.554541 
L 540.713839 135.452443 
L 541.288246 134.370792 
L 541.862652 131.944995 
L 543.011465 126.498542 
L 543.585871 125.174515 
L 544.160278 125.592384 
L 544.734684 127.946397 
L 545.309091 132.044372 
L 547.03231 148.19205 
L 547.606717 151.954175 
L 548.181123 153.644356 
L 548.75553 152.912445 
L 549.329936 149.792358 
L 549.904343 144.69677 
L 551.627562 125.489183 
L 552.201969 120.687012 
L 552.776375 117.73297 
L 553.350782 116.767599 
L 553.925188 117.545707 
L 555.648408 123.488719 
L 556.222814 123.839301 
L 556.797221 122.226876 
L 557.371627 118.401339 
L 557.946034 112.499636 
L 560.818066 76.321518 
L 561.392472 73.294542 
L 561.966879 72.564604 
L 562.541285 73.809052 
L 563.690098 79.432983 
L 564.264505 82.059982 
L 564.838911 83.473737 
L 565.413318 83.139935 
L 565.987724 80.876488 
L 566.562131 76.887723 
L 568.28535 61.25422 
L 568.859757 57.725098 
L 569.434163 56.285019 
L 570.00857 57.270133 
L 570.582976 60.631547 
L 571.157383 65.943081 
L 572.880602 85.574236 
L 573.455009 90.44628 
L 574.029415 93.448646 
L 574.603822 94.453429 
L 575.178228 93.718052 
L 576.901448 87.994571 
L 577.475854 87.745741 
L 578.050261 89.460462 
L 578.624667 93.375547 
L 579.199074 99.3404 
L 581.496699 130.081518 
L 582.071106 135.198508 
L 582.645512 138.058057 
L 583.219919 138.61328 
L 583.794325 137.200263 
L 585.517545 128.558117 
L 586.091951 127.051575 
L 586.666358 127.298638 
L 587.240764 129.469225 
L 587.815171 133.346935 
L 589.53839 148.465051 
L 590.112797 151.762876 
L 590.687203 152.955886 
L 591.26161 151.721995 
L 591.836016 148.125045 
L 592.410423 142.604604 
L 594.133642 122.576421 
L 594.708049 117.644393 
L 595.282455 114.603807 
L 595.856862 113.569854 
L 596.431268 114.272877 
L 598.154488 119.809705 
L 598.728894 119.968731 
L 599.303301 118.164296 
L 599.877707 114.172861 
L 600.452113 108.158566 
L 602.749739 77.647231 
L 603.324146 72.688825 
L 603.898552 70.008657 
L 604.472959 69.639194 
L 605.047365 71.230935 
L 606.770585 80.290562 
L 607.344991 81.897728 
L 607.919398 81.744958 
L 608.493804 79.674514 
L 609.068211 75.914801 
L 610.79143 61.329223 
L 611.365837 58.266535 
L 611.940243 57.323234 
L 612.51465 58.807281 
L 613.089056 62.639924 
L 613.663463 68.368325 
L 615.386682 88.786198 
L 615.961089 93.775045 
L 616.535495 96.85063 
L 617.109902 97.910557 
L 617.684308 97.236714 
L 619.407528 91.876246 
L 619.981934 91.80293 
L 620.55634 93.692522 
L 621.130747 97.755306 
L 621.705153 103.813705 
L 624.002779 134.074941 
L 624.577186 138.871218 
L 625.151592 141.369467 
L 625.725999 141.5517 
L 626.300405 139.780811 
L 628.023625 130.307524 
L 628.598031 128.60221 
L 629.172438 128.663586 
L 629.746844 130.637198 
L 630.321251 134.282705 
L 632.04447 148.351592 
L 632.618877 151.186556 
L 633.193283 151.888883 
L 633.76769 150.164781 
L 634.342096 146.107877 
L 635.490909 133.150948 
L 636.639722 119.419504 
L 637.214129 114.389035 
L 637.788535 111.293787 
L 638.362942 110.223279 
L 638.937348 110.883396 
L 640.660567 116.115146 
L 641.234974 116.119458 
L 641.80938 114.161958 
L 642.383787 110.04559 
L 642.958193 103.961262 
L 645.255819 74.022479 
L 645.830226 69.405066 
L 646.404632 67.104547 
L 646.979039 67.124371 
L 647.553445 69.088283 
L 649.276665 79.012359 
L 649.851071 80.827203 
L 650.425478 80.86829 
L 650.999884 79.002275 
L 651.574291 75.48137 
L 653.29751 61.95657 
L 653.871917 59.356572 
L 654.446323 58.901273 
L 655.02073 60.870248 
L 655.595136 65.155049 
L 656.743949 78.46876 
L 657.892762 92.391789 
L 658.467169 97.464542 
L 659.041575 100.58014 
L 659.615981 101.66202 
L 660.190388 101.016522 
L 661.913607 95.915859 
L 662.488014 95.980843 
L 663.06242 98.00617 
L 663.636827 102.175692 
L 664.211233 108.285285 
L 666.508859 137.901037 
L 667.083266 142.341222 
L 667.657672 144.446731 
L 668.232079 144.228709 
L 668.806485 142.076738 
L 670.529705 131.722111 
L 671.104111 129.805748 
L 671.678518 129.670659 
L 672.252924 131.437973 
L 672.827331 134.843672 
L 674.55055 147.857129 
L 675.124957 150.235207 
L 675.699363 150.457824 
L 676.27377 148.259655 
L 676.848176 143.763919 
L 677.996989 130.130558 
L 679.145802 116.055795 
L 679.720208 110.961108 
L 680.294615 107.845562 
L 680.869021 106.772687 
L 681.443428 107.423922 
L 683.166647 112.455355 
L 683.741054 112.34235 
L 684.31546 110.27092 
L 684.889867 106.070386 
L 685.464273 99.957979 
L 687.761899 70.753661 
L 688.336306 66.511211 
L 688.910712 64.620212 
L 689.485119 65.054883 
L 690.059525 67.412355 
L 691.782745 78.245122 
L 692.357151 80.277815 
L 692.931558 80.521379 
L 693.505964 78.866918 
L 694.080371 75.590186 
L 695.80359 63.125509 
L 696.377997 60.979948 
L 696.952403 60.999444 
L 697.526809 63.43504 
L 698.101216 68.14881 
L 699.250029 82.113276 
L 700.398842 96.349155 
L 700.973248 101.470289 
L 701.547655 104.590407 
L 702.122061 105.659087 
L 702.696468 105.00711 
L 704.419687 100.060063 
L 704.994094 100.22581 
L 705.5685 102.347781 
L 706.142907 106.58351 
L 706.717313 112.702779 
L 709.014939 141.514946 
L 709.589346 145.56649 
L 710.163752 147.250965 
L 710.738159 146.608833 
L 711.312565 144.056201 
L 713.035785 132.781855 
L 713.610191 130.646331 
L 714.184598 130.308252 
L 714.759004 131.864269 
L 715.333411 135.026952 
L 717.05663 146.992173 
L 717.631036 148.923764 
L 718.205443 148.681971 
L 718.779849 146.030056 
L 719.354256 141.120582 
L 720.503069 126.872661 
L 721.651882 112.52569 
L 722.226288 107.403409 
L 722.800695 104.303979 
L 723.375101 103.26464 
L 723.949508 103.942398 
L 725.672727 108.880459 
L 726.247134 108.687585 
L 726.82154 106.541046 
L 727.395947 102.296416 
L 727.970353 96.196783 
L 730.267979 67.880353 
L 730.842386 64.043787 
L 731.416792 62.588832 
L 731.991199 63.460312 
L 732.565605 66.228934 
L 734.288825 78.002424 
L 734.863231 80.258878 
L 735.437638 80.709219 
L 736.012044 79.26906 
L 736.58645 76.237442 
L 738.30967 64.818881 
L 738.884076 63.115139 
L 739.458483 63.591974 
L 740.032889 66.471805 
L 740.607296 71.587503 
L 741.756109 86.137401 
L 742.904922 100.612256 
L 743.479328 105.744041 
L 744.053735 108.831338 
L 744.628141 109.850168 
L 745.202548 109.155726 
L 746.925767 104.254611 
L 747.500174 104.483766 
L 748.07458 106.663834 
L 748.648987 110.926165 
L 749.223393 117.014922 
L 751.521019 144.874699 
L 752.095426 148.508276 
L 752.669832 149.746924 
L 753.244239 148.66056 
L 753.818645 145.691606 
L 755.541865 133.471616 
L 756.116271 131.113111 
L 756.690677 130.569855 
L 757.265084 131.913954 
L 757.83949 134.834812 
L 759.56271 145.772142 
L 760.137116 147.271906 
L 760.711523 146.585125 
L 761.285929 143.503711 
L 761.860336 138.209277 
L 763.009149 123.415124 
L 764.157962 108.872102 
L 764.732368 103.760813 
L 765.306775 100.715514 
L 765.881181 99.746853 
L 766.455588 100.48744 
L 767.604401 104.207874 
L 768.178807 105.439761 
L 768.753214 105.204017 
L 769.32762 103.020377 
L 769.902027 98.770526 
L 770.476433 92.722935 
L 772.199653 70.944741 
L 772.774059 65.43759 
L 773.348466 62.034411 
L 773.922872 61.03834 
L 774.497279 62.364695 
L 775.071685 65.557995 
L 776.794904 78.291472 
L 777.369311 80.773247 
L 777.943717 81.430283 
L 778.518124 80.202776 
L 779.09253 77.412815 
L 780.81575 67.013338 
L 781.390156 65.734621 
L 781.964563 66.647324 
L 782.538969 69.945202 
L 783.113376 75.432246 
L 784.262189 90.496129 
L 785.411002 105.131431 
L 785.985408 110.234383 
L 786.559815 113.250138 
L 787.134221 114.181449 
L 787.708628 113.407888 
L 788.857441 109.664727 
L 789.431847 108.445028 
L 790.006254 108.700917 
L 790.58066 110.901576 
L 791.155067 115.152321 
L 792.30388 128.340304 
L 793.452693 142.622867 
L 794.027099 147.941737 
L 794.601506 151.131591 
L 795.175912 151.903434 
L 795.750318 150.35673 
L 796.324725 146.959948 
L 798.047944 133.781316 
L 798.622351 131.200381 
L 799.196757 130.454133 
L 799.771164 131.590058 
L 800.34557 134.27463 
L 801.494383 141.469835 
L 802.06879 144.217162 
L 802.643196 145.303796 
L 803.217603 144.195309 
L 803.792009 140.712277 
L 804.366416 135.065012 
L 807.238448 100.079705 
L 807.812855 97.127671 
L 808.387261 96.267583 
L 808.961668 97.107705 
L 810.110481 100.940264 
L 810.684887 102.181108 
L 811.259294 101.938544 
L 811.8337 99.754511 
L 812.408107 95.536649 
L 813.55692 82.509859 
L 814.705732 68.554423 
L 815.280139 63.455419 
L 815.854545 60.509381 
L 816.428952 59.991059 
L 817.003358 61.786205 
L 817.577765 65.413438 
L 819.300984 79.113013 
L 819.875391 81.817261 
L 820.449797 82.676527 
L 821.024204 81.655665 
L 821.59861 79.099581 
L 822.747423 72.229443 
L 823.32183 69.679623 
L 823.896236 68.805209 
L 824.470643 70.128577 
L 825.045049 73.814829 
L 825.619456 79.639449 
L 827.917082 109.854009 
L 828.491488 114.887364 
L 829.065895 117.791962 
L 829.640301 118.597565 
L 830.214708 117.708061 
L 831.363521 113.821405 
L 831.937927 112.577289 
L 832.512334 112.824412 
L 833.08674 115.009677 
L 833.661146 119.212527 
L 834.809959 132.114478 
L 835.958772 145.781443 
L 836.533179 150.681379 
L 837.107585 153.40563 
L 837.681992 153.693779 
L 838.256398 151.674865 
L 838.830805 147.843092 
L 840.554024 133.706055 
L 841.128431 130.907628 
L 841.702837 129.964923 
L 842.277244 130.900718 
L 842.85165 133.358786 
L 844.000463 139.966745 
L 844.57487 142.351793 
L 845.149276 143.047767 
L 845.723683 141.544411 
L 846.298089 137.69093 
L 846.872496 131.72594 
L 849.170122 101.375396 
L 849.744528 96.407382 
L 850.318935 93.588373 
L 850.893341 92.87501 
L 851.467748 93.851273 
L 852.616561 97.866018 
L 853.190967 99.150272 
L 853.765373 98.935509 
L 854.33978 96.78602 
L 854.914186 92.635234 
L 856.062999 79.9318 
L 857.211812 66.62493 
L 857.786219 61.958506 
L 858.360625 59.489335 
L 858.935032 59.46341 
L 859.509438 61.736909 
L 860.083845 65.802897 
L 861.807064 80.461299 
L 862.381471 83.380785 
L 862.955877 84.433479 
L 863.530284 83.608993 
L 864.10469 81.274824 
L 865.253503 74.979222 
L 865.82791 72.782928 
L 866.402316 72.288458 
L 866.976723 73.993886 
L 867.551129 78.03572 
L 868.125536 84.161353 
L 870.423162 114.724956 
L 870.997568 119.647161 
L 871.571975 122.400595 
L 872.146381 123.04228 
L 872.720787 122.000345 
L 873.8696 117.900863 
L 874.444007 116.598485 
L 875.018413 116.802989 
L 875.59282 118.938855 
L 876.167226 123.059823 
L 877.316039 135.610081 
L 878.464852 148.6048 
L 879.039259 153.063246 
L 879.613665 155.304148 
L 880.188072 155.096015 
L 880.762478 152.597439 
L 881.336885 148.32799 
L 883.060104 133.246166 
L 883.634511 130.239534 
L 884.208917 129.111175 
L 884.783324 129.859066 
L 885.35773 132.104492 
L 886.506543 138.159874 
L 887.08095 140.204704 
L 887.655356 140.535944 
L 888.229763 138.667763 
L 888.804169 134.477912 
L 889.378576 128.232871 
L 891.676202 97.625633 
L 892.250608 92.791441 
L 892.825014 90.145345 
L 893.399421 89.616608 
L 893.973827 90.765014 
L 895.12264 95.029815 
L 895.697047 96.390357 
L 896.271453 96.236124 
L 896.84586 94.153899 
L 897.420266 90.102729 
L 898.569079 77.78493 
L 899.717892 65.179282 
L 900.292299 60.965812 
L 900.866705 58.988973 
L 901.441112 59.465683 
L 902.015518 62.2226 
L 902.589925 66.727624 
L 904.313144 82.32415 
L 904.887551 85.447309 
L 905.461957 86.680409 
L 906.036364 86.037912 
L 906.61077 83.9097 
L 907.759583 78.149996 
L 908.33399 76.283319 
L 908.908396 76.141136 
L 909.482803 78.196985 
L 910.057209 82.558886 
L 910.631616 88.946604 
L 912.929241 119.687548 
L 913.503648 124.456764 
L 914.078054 127.019138 
L 914.652461 127.45918 
L 915.226867 126.229162 
L 916.37568 121.850171 
L 916.950087 120.457476 
L 917.524493 120.587608 
L 918.0989 122.642483 
L 918.673306 126.650314 
L 919.822119 138.789636 
L 920.970932 151.063059 
L 921.545339 155.061619 
L 922.119745 156.805772 
L 922.694152 156.093239 
L 923.268558 153.112087 
L 923.842965 148.406833 
L 925.566184 132.40719 
L 926.140591 129.205895 
L 926.714997 127.906819 
L 927.289404 128.483035 
L 927.86381 130.533547 
L 929.012623 136.078278 
L 929.58703 137.808292 
L 930.161436 137.803826 
L 930.735843 135.603682 
L 931.310249 131.114033 
L 931.884655 124.628742 
L 934.182281 93.93789 
L 934.756688 89.279169 
L 935.331094 86.845493 
L 935.905501 86.538531 
L 936.479907 87.893987 
L 937.62872 92.47356 
L 938.203127 93.941237 
L 938.777533 93.877931 
L 939.35194 91.893058 
L 939.926346 87.971105 
L 941.075159 76.094434 
L 942.223972 64.234769 
L 942.798379 60.490343 
L 943.372785 59.016857 
L 943.947192 60.001894 
L 944.521598 63.242698 
L 945.670411 74.009186 
L 946.819224 84.683078 
L 947.393631 87.994145 
L 947.968037 89.390567 
L 948.542444 88.911762 
L 949.11685 86.969792 
L 950.265663 81.700367 
L 950.840069 80.136223 
L 951.414476 80.315745 
L 951.988882 82.687751 
L 952.563289 87.331917 
L 953.137695 93.94088 
L 955.435321 124.684061 
L 956.009728 129.258671 
L 956.584134 131.590708 
L 957.158541 131.79237 
L 957.732947 130.339943 
L 958.88176 125.618347 
L 959.456167 124.105515 
L 960.030573 124.132044 
L 960.60498 126.077152 
L 961.179386 129.943697 
L 962.328199 141.619915 
L 963.477012 153.131105 
L 964.051419 156.655744 
L 964.625825 157.894246 
L 965.200232 156.673775 
L 965.774638 153.21174 
L 966.923451 142.089673 
L 968.072264 131.199789 
L 968.646671 127.821481 
L 969.221077 126.370571 
L 969.795483 126.795119 
L 970.36989 128.672048 
L 971.518703 133.75468 
L 972.093109 135.198253 
L 972.667516 134.889814 
L 973.241922 132.392967 
L 973.816329 127.642138 
L 974.965142 112.994642 
L 976.113955 96.79827 
L 976.688361 90.359019 
L 977.262768 85.916927 
L 977.837174 83.734294 
L 978.411581 83.68501 
L 978.985987 85.280841 
L 980.1348 90.235832 
L 980.709207 91.83903 
L 981.283613 91.894312 
L 981.85802 90.033864 
L 982.432426 86.267437 
L 983.581239 74.879986 
L 984.730052 63.802707 
L 985.304459 60.538962 
L 985.878865 59.575281 
L 986.453272 61.069709 
L 987.027678 64.790236 
L 988.176491 76.339194 
L 989.325304 87.513503 
L 989.89971 90.992688 
L 990.474117 92.531501 
L 991.048523 92.194432 
L 991.62293 90.415524 
L 992.771743 85.584454 
L 993.346149 84.292965 
L 993.920556 84.761104 
L 994.494962 87.412813 
L 995.069369 92.299615 
L 996.218182 107.112599 
L 996.218182 107.112599 
" style="fill:none;stroke:#4c72b0;stroke-linecap:round;stroke-width:1.4;"/>
   </g>
   <g id="line2d_30">
    <path clip-path="url(#p4b855c8a84)" d="M 184.581818 307.8 
L 996.218182 307.8 
L 996.218182 307.8 
" style="fill:none;stroke:#55a868;stroke-linecap:round;stroke-width:1.4;"/>
   </g>
   <g id="patch_3">
    <path d="M 144 320.4 
L 144 43.2 
" style="fill:none;"/>
   </g>
   <g id="patch_4">
    <path d="M 1036.8 320.4 
L 1036.8 43.2 
" style="fill:none;"/>
   </g>
   <g id="patch_5">
    <path d="M 144 320.4 
L 1036.8 320.4 
" style="fill:none;"/>
   </g>
   <g id="patch_6">
    <path d="M 144 43.2 
L 1036.8 43.2 
" style="fill:none;"/>
   </g>
   <g id="legend_1">
    <g id="line2d_31">
     <path d="M 1002.75125 53.3975 
L 1018.75125 53.3975 
" style="fill:none;stroke:#4c72b0;stroke-linecap:round;stroke-width:1.4;"/>
    </g>
    <g id="line2d_32"/>
    <g id="text_15">
     <!-- a -->
     <defs>
      <path d="M 20.21875 -0.984375 
Q 12.25 -0.984375 8.25 3.21875 
Q 4.25 7.421875 4.25 14.75 
Q 4.25 19.96875 6.21875 23.3125 
Q 8.203125 26.65625 11.390625 28.5625 
Q 14.59375 30.46875 18.6875 31.203125 
Q 22.796875 31.9375 27.046875 32.03125 
L 38.921875 32.234375 
L 38.921875 35.109375 
Q 38.921875 38.375 38.234375 40.671875 
Q 37.546875 42.96875 36.125 44.375 
Q 34.71875 45.796875 32.59375 46.453125 
Q 30.46875 47.125 27.59375 47.125 
Q 25.046875 47.125 23 46.75 
Q 20.953125 46.390625 19.4375 45.4375 
Q 17.921875 44.484375 16.984375 42.84375 
Q 16.0625 41.21875 15.765625 38.71875 
L 6.59375 39.546875 
Q 7.078125 42.671875 8.4375 45.28125 
Q 9.8125 47.90625 12.328125 49.796875 
Q 14.84375 51.703125 18.625 52.75 
Q 22.40625 53.8125 27.78125 53.8125 
Q 37.75 53.8125 42.765625 49.234375 
Q 47.796875 44.671875 47.796875 36.03125 
L 47.796875 13.28125 
Q 47.796875 9.375 48.828125 7.390625 
Q 49.859375 5.421875 52.734375 5.421875 
Q 53.46875 5.421875 54.203125 5.515625 
Q 54.9375 5.609375 55.609375 5.765625 
L 55.609375 0.296875 
Q 53.953125 -0.09375 52.3125 -0.28125 
Q 50.6875 -0.484375 48.828125 -0.484375 
Q 46.34375 -0.484375 44.5625 0.171875 
Q 42.78125 0.828125 41.65625 2.171875 
Q 40.53125 3.515625 39.9375 5.484375 
Q 39.359375 7.46875 39.203125 10.109375 
L 38.921875 10.109375 
Q 37.5 7.5625 35.8125 5.515625 
Q 34.125 3.46875 31.875 2.03125 
Q 29.640625 0.59375 26.78125 -0.1875 
Q 23.921875 -0.984375 20.21875 -0.984375 
M 22.21875 5.609375 
Q 26.421875 5.609375 29.5625 7.140625 
Q 32.71875 8.6875 34.78125 11.078125 
Q 36.859375 13.484375 37.890625 16.3125 
Q 38.921875 19.140625 38.921875 21.734375 
L 38.921875 26.078125 
L 29.296875 25.875 
Q 26.078125 25.828125 23.171875 25.40625 
Q 20.265625 25 18.0625 23.78125 
Q 15.875 22.5625 14.578125 20.359375 
Q 13.28125 18.171875 13.28125 14.59375 
Q 13.28125 10.296875 15.59375 7.953125 
Q 17.921875 5.609375 22.21875 5.609375 
" id="LiberationSans-61"/>
     </defs>
     <g style="fill:#262626;" transform="translate(1025.15125 56.1975)scale(0.08 -0.08)">
      <use xlink:href="#LiberationSans-61"/>
     </g>
    </g>
    <g id="line2d_33">
     <path d="M 1002.75125 64.855 
L 1018.75125 64.855 
" style="fill:none;stroke:#55a868;stroke-linecap:round;stroke-width:1.4;"/>
    </g>
    <g id="line2d_34"/>
    <g id="text_16">
     <!-- b -->
     <defs>
      <path d="M 51.421875 26.65625 
Q 51.421875 -0.984375 31.984375 -0.984375 
Q 25.984375 -0.984375 22 1.1875 
Q 18.015625 3.375 15.53125 8.203125 
L 15.4375 8.203125 
Q 15.4375 6.9375 15.359375 5.5625 
Q 15.28125 4.203125 15.203125 3.03125 
Q 15.140625 1.859375 15.0625 1.03125 
Q 14.984375 0.203125 14.9375 0 
L 6.453125 0 
Q 6.5 0.4375 6.546875 1.484375 
Q 6.59375 2.546875 6.640625 4 
Q 6.6875 5.46875 6.703125 7.21875 
Q 6.734375 8.984375 6.734375 10.890625 
L 6.734375 72.46875 
L 15.53125 72.46875 
L 15.53125 51.8125 
Q 15.53125 50.34375 15.5 49 
Q 15.484375 47.65625 15.4375 46.625 
Q 15.375 45.40625 15.328125 44.34375 
L 15.53125 44.34375 
Q 17.96875 49.421875 22 51.609375 
Q 26.03125 53.8125 31.984375 53.8125 
Q 42 53.8125 46.703125 47.0625 
Q 51.421875 40.328125 51.421875 26.65625 
M 42.1875 26.375 
Q 42.1875 31.84375 41.5 35.75 
Q 40.828125 39.65625 39.3125 42.15625 
Q 37.796875 44.671875 35.453125 45.84375 
Q 33.109375 47.015625 29.734375 47.015625 
Q 26.265625 47.015625 23.609375 45.890625 
Q 20.953125 44.78125 19.171875 42.28125 
Q 17.390625 39.796875 16.453125 35.734375 
Q 15.53125 31.6875 15.53125 25.828125 
Q 15.53125 20.171875 16.453125 16.3125 
Q 17.390625 12.453125 19.171875 10.03125 
Q 20.953125 7.625 23.578125 6.5625 
Q 26.21875 5.515625 29.640625 5.515625 
Q 32.859375 5.515625 35.203125 6.640625 
Q 37.546875 7.765625 39.109375 10.25 
Q 40.671875 12.75 41.421875 16.71875 
Q 42.1875 20.703125 42.1875 26.375 
" id="LiberationSans-62"/>
     </defs>
     <g style="fill:#262626;" transform="translate(1025.15125 67.655)scale(0.08 -0.08)">
      <use xlink:href="#LiberationSans-62"/>
     </g>
    </g>
   </g>
  </g>
 </g>
 <defs>
  <clipPath id="p4b855c8a84">
   <rect height="277.2" width="892.8" x="144" y="43.2"/>
  </clipPath>
 </defs>
</svg>
