<?xml version="1.0" encoding="utf-8" standalone="no"?>
<!DOCTYPE svg PUBLIC "-//W3C//DTD SVG 1.1//EN"
  "http://www.w3.org/Graphics/SVG/1.1/DTD/svg11.dtd">
<!-- Created with matplotlib (http://matplotlib.org/) -->
<svg height="360pt" version="1.1" viewBox="0 0 1152 360" width="1152pt" xmlns="http://www.w3.org/2000/svg" xmlns:xlink="http://www.w3.org/1999/xlink">
 <defs>
  <style type="text/css">
*{stroke-linecap:butt;stroke-linejoin:round;}
  </style>
 </defs>
 <g id="figure_1">
  <g id="patch_1">
   <path d="M 0 360 
L 1152 360 
L 1152 0 
L 0 0 
z
" style="fill:#ffffff;"/>
  </g>
  <g id="axes_1">
   <g id="patch_2">
    <path d="M 144 320.4 
L 1036.8 320.4 
L 1036.8 43.2 
L 144 43.2 
z
" style="fill:#eaeaf2;"/>
   </g>
   <g id="matplotlib.axis_1">
    <g id="xtick_1">
     <g id="line2d_1">
      <path clip-path="url(#p2d9e1f08fd)" d="M 184.581818 320.4 
L 184.581818 43.2 
" style="fill:none;stroke:#ffffff;stroke-linecap:round;stroke-width:0.8;"/>
     </g>
     <g id="line2d_2"/>
     <g id="text_1">
      <!-- 0.000 -->
      <defs>
       <path d="M 51.703125 34.421875 
Q 51.703125 24.515625 49.828125 17.75 
Q 47.953125 10.984375 44.703125 6.8125 
Q 41.453125 2.640625 37.0625 0.828125 
Q 32.671875 -0.984375 27.6875 -0.984375 
Q 22.65625 -0.984375 18.3125 0.828125 
Q 13.96875 2.640625 10.765625 6.78125 
Q 7.5625 10.9375 5.734375 17.703125 
Q 3.90625 24.46875 3.90625 34.421875 
Q 3.90625 44.828125 5.734375 51.640625 
Q 7.5625 58.453125 10.78125 62.5 
Q 14.015625 66.546875 18.40625 68.1875 
Q 22.796875 69.828125 27.984375 69.828125 
Q 32.90625 69.828125 37.21875 68.1875 
Q 41.546875 66.546875 44.765625 62.5 
Q 48 58.453125 49.84375 51.640625 
Q 51.703125 44.828125 51.703125 34.421875 
M 42.78125 34.421875 
Q 42.78125 42.625 41.796875 48.0625 
Q 40.828125 53.515625 38.921875 56.765625 
Q 37.015625 60.015625 34.25 61.359375 
Q 31.5 62.703125 27.984375 62.703125 
Q 24.265625 62.703125 21.4375 61.328125 
Q 18.609375 59.96875 16.671875 56.71875 
Q 14.75 53.46875 13.765625 48.015625 
Q 12.796875 42.578125 12.796875 34.421875 
Q 12.796875 26.515625 13.796875 21.09375 
Q 14.796875 15.671875 16.71875 12.375 
Q 18.65625 9.078125 21.4375 7.640625 
Q 24.21875 6.203125 27.78125 6.203125 
Q 31.25 6.203125 34.03125 7.640625 
Q 36.8125 9.078125 38.734375 12.375 
Q 40.671875 15.671875 41.71875 21.09375 
Q 42.78125 26.515625 42.78125 34.421875 
" id="LiberationSans-30"/>
       <path d="M 9.125 0 
L 9.125 10.6875 
L 18.65625 10.6875 
L 18.65625 0 
z
" id="LiberationSans-2e"/>
      </defs>
      <g style="fill:#262626;" transform="translate(174.573068 331.7975)scale(0.08 -0.08)">
       <use xlink:href="#LiberationSans-30"/>
       <use x="55.615234" xlink:href="#LiberationSans-2e"/>
       <use x="83.398438" xlink:href="#LiberationSans-30"/>
       <use x="139.013672" xlink:href="#LiberationSans-30"/>
       <use x="194.628906" xlink:href="#LiberationSans-30"/>
      </g>
     </g>
    </g>
    <g id="xtick_2">
     <g id="line2d_3">
      <path clip-path="url(#p2d9e1f08fd)" d="M 311.238448 320.4 
L 311.238448 43.2 
" style="fill:none;stroke:#ffffff;stroke-linecap:round;stroke-width:0.8;"/>
     </g>
     <g id="line2d_4"/>
     <g id="text_2">
      <!-- 0.005 -->
      <defs>
       <path d="M 51.421875 22.40625 
Q 51.421875 17.234375 49.859375 12.9375 
Q 48.296875 8.640625 45.21875 5.53125 
Q 42.140625 2.4375 37.578125 0.71875 
Q 33.015625 -0.984375 27 -0.984375 
Q 21.578125 -0.984375 17.546875 0.28125 
Q 13.53125 1.5625 10.734375 3.78125 
Q 7.953125 6 6.3125 8.984375 
Q 4.6875 11.96875 4 15.375 
L 12.890625 16.40625 
Q 13.421875 14.453125 14.390625 12.625 
Q 15.375 10.796875 17.0625 9.34375 
Q 18.75 7.90625 21.21875 7.046875 
Q 23.6875 6.203125 27.203125 6.203125 
Q 30.609375 6.203125 33.390625 7.25 
Q 36.1875 8.296875 38.15625 10.34375 
Q 40.140625 12.40625 41.203125 15.375 
Q 42.28125 18.359375 42.28125 22.21875 
Q 42.28125 25.390625 41.25 28.046875 
Q 40.234375 30.71875 38.328125 32.640625 
Q 36.421875 34.578125 33.65625 35.640625 
Q 30.90625 36.71875 27.390625 36.71875 
Q 25.203125 36.71875 23.34375 36.328125 
Q 21.484375 35.9375 19.890625 35.25 
Q 18.3125 34.578125 17.015625 33.671875 
Q 15.71875 32.765625 14.59375 31.78125 
L 6 31.78125 
L 8.296875 68.796875 
L 47.40625 68.796875 
L 47.40625 61.328125 
L 16.3125 61.328125 
L 14.984375 39.5 
Q 17.328125 41.3125 20.84375 42.59375 
Q 24.359375 43.890625 29.203125 43.890625 
Q 34.328125 43.890625 38.421875 42.328125 
Q 42.53125 40.765625 45.40625 37.90625 
Q 48.296875 35.0625 49.859375 31.109375 
Q 51.421875 27.15625 51.421875 22.40625 
" id="LiberationSans-35"/>
      </defs>
      <g style="fill:#262626;" transform="translate(301.229698 331.7975)scale(0.08 -0.08)">
       <use xlink:href="#LiberationSans-30"/>
       <use x="55.615234" xlink:href="#LiberationSans-2e"/>
       <use x="83.398438" xlink:href="#LiberationSans-30"/>
       <use x="139.013672" xlink:href="#LiberationSans-30"/>
       <use x="194.628906" xlink:href="#LiberationSans-35"/>
      </g>
     </g>
    </g>
    <g id="xtick_3">
     <g id="line2d_5">
      <path clip-path="url(#p2d9e1f08fd)" d="M 437.895078 320.4 
L 437.895078 43.2 
" style="fill:none;stroke:#ffffff;stroke-linecap:round;stroke-width:0.8;"/>
     </g>
     <g id="line2d_6"/>
     <g id="text_3">
      <!-- 0.010 -->
      <defs>
       <path d="M 7.625 0 
L 7.625 7.46875 
L 25.140625 7.46875 
L 25.140625 60.40625 
L 9.625 49.3125 
L 9.625 57.625 
L 25.875 68.796875 
L 33.984375 68.796875 
L 33.984375 7.46875 
L 50.734375 7.46875 
L 50.734375 0 
z
" id="LiberationSans-31"/>
      </defs>
      <g style="fill:#262626;" transform="translate(427.886328 331.7975)scale(0.08 -0.08)">
       <use xlink:href="#LiberationSans-30"/>
       <use x="55.615234" xlink:href="#LiberationSans-2e"/>
       <use x="83.398438" xlink:href="#LiberationSans-30"/>
       <use x="139.013672" xlink:href="#LiberationSans-31"/>
       <use x="194.628906" xlink:href="#LiberationSans-30"/>
      </g>
     </g>
    </g>
    <g id="xtick_4">
     <g id="line2d_7">
      <path clip-path="url(#p2d9e1f08fd)" d="M 564.551708 320.4 
L 564.551708 43.2 
" style="fill:none;stroke:#ffffff;stroke-linecap:round;stroke-width:0.8;"/>
     </g>
     <g id="line2d_8"/>
     <g id="text_4">
      <!-- 0.015 -->
      <g style="fill:#262626;" transform="translate(554.542958 331.7975)scale(0.08 -0.08)">
       <use xlink:href="#LiberationSans-30"/>
       <use x="55.615234" xlink:href="#LiberationSans-2e"/>
       <use x="83.398438" xlink:href="#LiberationSans-30"/>
       <use x="139.013672" xlink:href="#LiberationSans-31"/>
       <use x="194.628906" xlink:href="#LiberationSans-35"/>
      </g>
     </g>
    </g>
    <g id="xtick_5">
     <g id="line2d_9">
      <path clip-path="url(#p2d9e1f08fd)" d="M 691.208338 320.4 
L 691.208338 43.2 
" style="fill:none;stroke:#ffffff;stroke-linecap:round;stroke-width:0.8;"/>
     </g>
     <g id="line2d_10"/>
     <g id="text_5">
      <!-- 0.020 -->
      <defs>
       <path d="M 5.03125 0 
L 5.03125 6.203125 
Q 7.515625 11.921875 11.109375 16.28125 
Q 14.703125 20.65625 18.65625 24.1875 
Q 22.609375 27.734375 26.484375 30.765625 
Q 30.375 33.796875 33.5 36.8125 
Q 36.625 39.84375 38.546875 43.15625 
Q 40.484375 46.484375 40.484375 50.6875 
Q 40.484375 53.609375 39.59375 55.828125 
Q 38.71875 58.0625 37.0625 59.5625 
Q 35.40625 61.078125 33.078125 61.828125 
Q 30.765625 62.59375 27.9375 62.59375 
Q 25.296875 62.59375 22.96875 61.859375 
Q 20.65625 61.140625 18.84375 59.671875 
Q 17.046875 58.203125 15.890625 56.03125 
Q 14.75 53.859375 14.40625 50.984375 
L 5.421875 51.8125 
Q 5.859375 55.515625 7.46875 58.78125 
Q 9.078125 62.0625 11.90625 64.53125 
Q 14.75 67 18.71875 68.40625 
Q 22.703125 69.828125 27.9375 69.828125 
Q 33.0625 69.828125 37.0625 68.609375 
Q 41.0625 67.390625 43.8125 64.984375 
Q 46.578125 62.59375 48.046875 59.078125 
Q 49.515625 55.5625 49.515625 50.984375 
Q 49.515625 47.515625 48.265625 44.390625 
Q 47.015625 41.265625 44.9375 38.421875 
Q 42.875 35.59375 40.140625 32.953125 
Q 37.40625 30.328125 34.421875 27.8125 
Q 31.453125 25.296875 28.421875 22.828125 
Q 25.390625 20.359375 22.71875 17.859375 
Q 20.0625 15.375 17.96875 12.8125 
Q 15.875 10.25 14.703125 7.46875 
L 50.59375 7.46875 
L 50.59375 0 
z
" id="LiberationSans-32"/>
      </defs>
      <g style="fill:#262626;" transform="translate(681.199588 331.7975)scale(0.08 -0.08)">
       <use xlink:href="#LiberationSans-30"/>
       <use x="55.615234" xlink:href="#LiberationSans-2e"/>
       <use x="83.398438" xlink:href="#LiberationSans-30"/>
       <use x="139.013672" xlink:href="#LiberationSans-32"/>
       <use x="194.628906" xlink:href="#LiberationSans-30"/>
      </g>
     </g>
    </g>
    <g id="xtick_6">
     <g id="line2d_11">
      <path clip-path="url(#p2d9e1f08fd)" d="M 817.864968 320.4 
L 817.864968 43.2 
" style="fill:none;stroke:#ffffff;stroke-linecap:round;stroke-width:0.8;"/>
     </g>
     <g id="line2d_12"/>
     <g id="text_6">
      <!-- 0.025 -->
      <g style="fill:#262626;" transform="translate(807.856218 331.7975)scale(0.08 -0.08)">
       <use xlink:href="#LiberationSans-30"/>
       <use x="55.615234" xlink:href="#LiberationSans-2e"/>
       <use x="83.398438" xlink:href="#LiberationSans-30"/>
       <use x="139.013672" xlink:href="#LiberationSans-32"/>
       <use x="194.628906" xlink:href="#LiberationSans-35"/>
      </g>
     </g>
    </g>
    <g id="xtick_7">
     <g id="line2d_13">
      <path clip-path="url(#p2d9e1f08fd)" d="M 944.521598 320.4 
L 944.521598 43.2 
" style="fill:none;stroke:#ffffff;stroke-linecap:round;stroke-width:0.8;"/>
     </g>
     <g id="line2d_14"/>
     <g id="text_7">
      <!-- 0.030 -->
      <defs>
       <path d="M 51.21875 19 
Q 51.21875 14.265625 49.671875 10.546875 
Q 48.140625 6.84375 45.1875 4.265625 
Q 42.234375 1.703125 37.859375 0.359375 
Q 33.5 -0.984375 27.875 -0.984375 
Q 21.484375 -0.984375 17.109375 0.609375 
Q 12.75 2.203125 9.90625 4.8125 
Q 7.078125 7.421875 5.65625 10.765625 
Q 4.25 14.109375 3.8125 17.671875 
L 12.890625 18.5 
Q 13.28125 15.765625 14.328125 13.515625 
Q 15.375 11.28125 17.1875 9.671875 
Q 19 8.0625 21.625 7.171875 
Q 24.265625 6.296875 27.875 6.296875 
Q 34.515625 6.296875 38.296875 9.5625 
Q 42.09375 12.84375 42.09375 19.28125 
Q 42.09375 23.09375 40.40625 25.40625 
Q 38.71875 27.734375 36.203125 29.03125 
Q 33.6875 30.328125 30.734375 30.765625 
Q 27.78125 31.203125 25.296875 31.203125 
L 20.3125 31.203125 
L 20.3125 38.8125 
L 25.09375 38.8125 
Q 27.59375 38.8125 30.265625 39.328125 
Q 32.953125 39.84375 35.171875 41.1875 
Q 37.40625 42.53125 38.84375 44.828125 
Q 40.28125 47.125 40.28125 50.6875 
Q 40.28125 56.203125 37.03125 59.390625 
Q 33.796875 62.59375 27.390625 62.59375 
Q 21.578125 62.59375 17.984375 59.609375 
Q 14.40625 56.640625 13.8125 51.21875 
L 4.984375 51.90625 
Q 5.515625 56.453125 7.46875 59.8125 
Q 9.421875 63.1875 12.421875 65.40625 
Q 15.4375 67.625 19.28125 68.71875 
Q 23.140625 69.828125 27.484375 69.828125 
Q 33.25 69.828125 37.390625 68.375 
Q 41.546875 66.9375 44.1875 64.46875 
Q 46.828125 62.015625 48.0625 58.6875 
Q 49.3125 55.375 49.3125 51.609375 
Q 49.3125 48.578125 48.484375 45.9375 
Q 47.65625 43.3125 45.890625 41.203125 
Q 44.140625 39.109375 41.421875 37.59375 
Q 38.71875 36.078125 34.90625 35.296875 
L 34.90625 35.109375 
Q 39.0625 34.671875 42.140625 33.21875 
Q 45.21875 31.78125 47.21875 29.625 
Q 49.21875 27.484375 50.21875 24.75 
Q 51.21875 22.015625 51.21875 19 
" id="LiberationSans-33"/>
      </defs>
      <g style="fill:#262626;" transform="translate(934.512848 331.7975)scale(0.08 -0.08)">
       <use xlink:href="#LiberationSans-30"/>
       <use x="55.615234" xlink:href="#LiberationSans-2e"/>
       <use x="83.398438" xlink:href="#LiberationSans-30"/>
       <use x="139.013672" xlink:href="#LiberationSans-33"/>
       <use x="194.628906" xlink:href="#LiberationSans-30"/>
      </g>
     </g>
    </g>
   </g>
   <g id="matplotlib.axis_2">
    <g id="ytick_1">
     <g id="line2d_15">
      <path clip-path="url(#p2d9e1f08fd)" d="M 144 283.631145 
L 1036.8 283.631145 
" style="fill:none;stroke:#ffffff;stroke-linecap:round;stroke-width:0.8;"/>
     </g>
     <g id="line2d_16"/>
     <g id="text_8">
      <!-- −6 -->
      <defs>
       <path d="M 4.9375 29.6875 
L 4.9375 36.8125 
L 53.515625 36.8125 
L 53.515625 29.6875 
z
" id="LiberationSans-2212"/>
       <path d="M 51.21875 22.515625 
Q 51.21875 17.328125 49.78125 13 
Q 48.34375 8.6875 45.53125 5.578125 
Q 42.71875 2.484375 38.5625 0.75 
Q 34.421875 -0.984375 29 -0.984375 
Q 23 -0.984375 18.5 1.3125 
Q 14.015625 3.609375 11.03125 7.921875 
Q 8.0625 12.25 6.5625 18.53125 
Q 5.078125 24.8125 5.078125 32.8125 
Q 5.078125 42 6.765625 48.921875 
Q 8.453125 55.859375 11.625 60.5 
Q 14.796875 65.140625 19.359375 67.484375 
Q 23.921875 69.828125 29.6875 69.828125 
Q 33.203125 69.828125 36.28125 69.09375 
Q 39.359375 68.359375 41.875 66.71875 
Q 44.390625 65.09375 46.28125 62.40625 
Q 48.1875 59.71875 49.3125 55.8125 
L 40.921875 54.296875 
Q 39.546875 58.734375 36.546875 60.71875 
Q 33.546875 62.703125 29.59375 62.703125 
Q 25.984375 62.703125 23.046875 60.984375 
Q 20.125 59.28125 18.0625 55.875 
Q 16.015625 52.484375 14.90625 47.359375 
Q 13.8125 42.234375 13.8125 35.40625 
Q 16.21875 39.84375 20.5625 42.15625 
Q 24.90625 44.484375 30.515625 44.484375 
Q 35.203125 44.484375 39.015625 42.96875 
Q 42.828125 41.453125 45.53125 38.59375 
Q 48.25 35.75 49.734375 31.671875 
Q 51.21875 27.59375 51.21875 22.515625 
M 42.28125 22.125 
Q 42.28125 25.6875 41.40625 28.5625 
Q 40.53125 31.453125 38.765625 33.46875 
Q 37.015625 35.5 34.421875 36.59375 
Q 31.84375 37.703125 28.421875 37.703125 
Q 26.03125 37.703125 23.578125 36.984375 
Q 21.140625 36.28125 19.15625 34.6875 
Q 17.1875 33.109375 15.9375 30.515625 
Q 14.703125 27.9375 14.703125 24.21875 
Q 14.703125 20.40625 15.671875 17.109375 
Q 16.65625 13.8125 18.484375 11.375 
Q 20.3125 8.9375 22.890625 7.515625 
Q 25.484375 6.109375 28.71875 6.109375 
Q 31.890625 6.109375 34.40625 7.203125 
Q 36.921875 8.296875 38.671875 10.375 
Q 40.4375 12.453125 41.359375 15.421875 
Q 42.28125 18.40625 42.28125 22.125 
" id="LiberationSans-36"/>
      </defs>
      <g style="fill:#262626;" transform="translate(129.27875 286.529895)scale(0.08 -0.08)">
       <use xlink:href="#LiberationSans-2212"/>
       <use x="58.398438" xlink:href="#LiberationSans-36"/>
      </g>
     </g>
    </g>
    <g id="ytick_2">
     <g id="line2d_17">
      <path clip-path="url(#p2d9e1f08fd)" d="M 144 242.078372 
L 1036.8 242.078372 
" style="fill:none;stroke:#ffffff;stroke-linecap:round;stroke-width:0.8;"/>
     </g>
     <g id="line2d_18"/>
     <g id="text_9">
      <!-- −4 -->
      <defs>
       <path d="M 43.015625 15.578125 
L 43.015625 0 
L 34.71875 0 
L 34.71875 15.578125 
L 2.296875 15.578125 
L 2.296875 22.40625 
L 33.796875 68.796875 
L 43.015625 68.796875 
L 43.015625 22.515625 
L 52.6875 22.515625 
L 52.6875 15.578125 
z
M 34.71875 58.890625 
Q 34.625 58.640625 34.234375 57.9375 
Q 33.84375 57.234375 33.34375 56.34375 
Q 32.859375 55.46875 32.34375 54.5625 
Q 31.84375 53.65625 31.453125 53.078125 
L 13.8125 27.09375 
Q 13.578125 26.703125 13.109375 26.0625 
Q 12.640625 25.4375 12.15625 24.78125 
Q 11.671875 24.125 11.171875 23.484375 
Q 10.6875 22.859375 10.40625 22.515625 
L 34.71875 22.515625 
z
" id="LiberationSans-34"/>
      </defs>
      <g style="fill:#262626;" transform="translate(129.27875 244.977122)scale(0.08 -0.08)">
       <use xlink:href="#LiberationSans-2212"/>
       <use x="58.398438" xlink:href="#LiberationSans-34"/>
      </g>
     </g>
    </g>
    <g id="ytick_3">
     <g id="line2d_19">
      <path clip-path="url(#p2d9e1f08fd)" d="M 144 200.5256 
L 1036.8 200.5256 
" style="fill:none;stroke:#ffffff;stroke-linecap:round;stroke-width:0.8;"/>
     </g>
     <g id="line2d_20"/>
     <g id="text_10">
      <!-- −2 -->
      <g style="fill:#262626;" transform="translate(129.27875 203.42435)scale(0.08 -0.08)">
       <use xlink:href="#LiberationSans-2212"/>
       <use x="58.398438" xlink:href="#LiberationSans-32"/>
      </g>
     </g>
    </g>
    <g id="ytick_4">
     <g id="line2d_21">
      <path clip-path="url(#p2d9e1f08fd)" d="M 144 158.972827 
L 1036.8 158.972827 
" style="fill:none;stroke:#ffffff;stroke-linecap:round;stroke-width:0.8;"/>
     </g>
     <g id="line2d_22"/>
     <g id="text_11">
      <!-- 0 -->
      <g style="fill:#262626;" transform="translate(133.95125 161.871577)scale(0.08 -0.08)">
       <use xlink:href="#LiberationSans-30"/>
      </g>
     </g>
    </g>
    <g id="ytick_5">
     <g id="line2d_23">
      <path clip-path="url(#p2d9e1f08fd)" d="M 144 117.420054 
L 1036.8 117.420054 
" style="fill:none;stroke:#ffffff;stroke-linecap:round;stroke-width:0.8;"/>
     </g>
     <g id="line2d_24"/>
     <g id="text_12">
      <!-- 2 -->
      <g style="fill:#262626;" transform="translate(133.95125 120.318804)scale(0.08 -0.08)">
       <use xlink:href="#LiberationSans-32"/>
      </g>
     </g>
    </g>
    <g id="ytick_6">
     <g id="line2d_25">
      <path clip-path="url(#p2d9e1f08fd)" d="M 144 75.867282 
L 1036.8 75.867282 
" style="fill:none;stroke:#ffffff;stroke-linecap:round;stroke-width:0.8;"/>
     </g>
     <g id="line2d_26"/>
     <g id="text_13">
      <!-- 4 -->
      <g style="fill:#262626;" transform="translate(133.95125 78.766032)scale(0.08 -0.08)">
       <use xlink:href="#LiberationSans-34"/>
      </g>
     </g>
    </g>
   </g>
   <g id="line2d_27">
    <path clip-path="url(#p2d9e1f08fd)" d="M 184.581818 307.8 
L 186.879444 247.955779 
L 188.028257 223.217771 
L 189.17707 205.066575 
L 190.325883 192.841845 
L 192.623509 173.440208 
L 193.772322 161.123332 
L 195.495541 141.646894 
L 196.069948 136.482857 
L 196.644354 132.57454 
L 197.218761 130.067859 
L 197.793167 128.914155 
L 198.367574 128.875387 
L 198.94198 129.56357 
L 199.516387 130.507355 
L 200.090793 131.233684 
L 200.6652 131.349786 
L 201.239606 130.610681 
L 201.814013 128.959989 
L 202.962826 123.6466 
L 204.111639 118.152188 
L 204.686045 116.382649 
L 205.260452 115.658648 
L 205.834858 116.065908 
L 206.409265 117.493945 
L 207.558078 122.125084 
L 208.132484 124.434491 
L 208.706891 126.134003 
L 209.281297 126.882247 
L 209.855704 126.503653 
L 210.43011 125.018326 
L 211.004517 122.636726 
L 212.727736 114.066026 
L 213.302142 112.144993 
L 213.876549 111.172548 
L 214.450955 111.183044 
L 215.025362 112.016898 
L 216.748581 115.756652 
L 217.322988 115.967961 
L 217.897394 115.107764 
L 218.471801 113.080338 
L 219.046207 109.987686 
L 221.343833 94.119318 
L 221.91824 91.399947 
L 222.492646 89.737025 
L 223.067053 89.110198 
L 223.641459 89.31016 
L 224.790272 90.673386 
L 225.364679 90.95316 
L 225.939085 90.456168 
L 226.513492 88.968916 
L 227.087898 86.466261 
L 228.236711 79.258311 
L 229.385524 71.802531 
L 229.959931 69.09086 
L 230.534337 67.480571 
L 231.108743 67.077804 
L 231.68315 67.790997 
L 232.257556 69.348322 
L 233.406369 73.329411 
L 233.980776 74.860925 
L 234.555182 75.614056 
L 235.129589 75.425043 
L 235.703995 74.323925 
L 236.852808 70.40622 
L 237.427215 68.403811 
L 238.001621 66.969093 
L 238.576028 66.467398 
L 239.150434 67.11481 
L 239.724841 68.937896 
L 240.299247 71.767579 
L 242.596873 85.304907 
L 243.17128 87.177811 
L 243.745686 87.989856 
L 244.320093 87.827292 
L 244.894499 86.955499 
L 246.043312 84.71821 
L 246.617719 84.225897 
L 247.192125 84.608915 
L 247.766532 86.018945 
L 248.340938 88.413234 
L 249.489751 95.08126 
L 250.638564 101.399658 
L 251.21297 103.358872 
L 251.787377 104.163548 
L 252.361783 103.774863 
L 252.93619 102.349767 
L 255.233816 93.892052 
L 255.808222 93.095208 
L 256.382629 93.259146 
L 256.957035 94.287487 
L 258.680255 99.247972 
L 259.254661 100.087159 
L 259.829068 99.908595 
L 260.403474 98.558244 
L 260.977881 96.077687 
L 262.126694 88.799561 
L 263.275507 81.296321 
L 263.849913 78.535199 
L 264.42432 76.793742 
L 264.998726 76.115501 
L 265.573133 76.349317 
L 267.296352 78.904803 
L 267.870759 78.956152 
L 268.445165 78.068645 
L 269.019572 76.155111 
L 269.593978 73.324784 
L 271.891604 60.054888 
L 272.46601 58.364428 
L 273.040417 57.869864 
L 273.614823 58.54153 
L 274.18923 60.160113 
L 275.912449 66.681723 
L 276.486856 67.988675 
L 277.061262 68.380529 
L 277.635669 67.823853 
L 278.210075 66.479016 
L 279.933295 61.40801 
L 280.507701 60.808498 
L 281.082108 61.298379 
L 281.656514 62.966063 
L 282.230921 65.702417 
L 284.528547 80.085952 
L 285.102953 82.413243 
L 285.67736 83.679761 
L 286.251766 83.909493 
L 286.826173 83.315007 
L 287.974986 81.177311 
L 288.549392 80.516713 
L 289.123798 80.633684 
L 289.698205 81.737551 
L 290.272611 83.848893 
L 291.421424 90.235217 
L 292.570237 96.807784 
L 293.144644 99.058812 
L 293.71905 100.201648 
L 294.293457 100.135913 
L 294.867863 98.959015 
L 295.44227 96.947857 
L 296.591083 92.10125 
L 297.165489 90.159502 
L 297.739896 89.009129 
L 298.314302 88.810868 
L 298.888709 89.531365 
L 299.463115 90.949707 
L 300.611928 94.328905 
L 301.186335 95.397137 
L 301.760741 95.54147 
L 302.335148 94.55113 
L 302.909554 92.405332 
L 303.483961 89.278547 
L 305.781587 74.863754 
L 306.355993 72.845686 
L 306.9304 71.911068 
L 307.504806 71.969051 
L 308.079213 72.750364 
L 309.228025 74.840801 
L 309.802432 75.277218 
L 310.376838 74.853113 
L 310.951245 73.420497 
L 311.525651 71.025968 
L 313.823277 58.30066 
L 314.397684 56.465749 
L 314.97209 55.8 
L 315.546497 56.335929 
L 316.120903 57.910524 
L 318.418529 66.91543 
L 318.992936 67.83408 
L 319.567342 67.790263 
L 320.141749 66.883361 
L 321.864968 62.309333 
L 322.439375 61.602448 
L 323.013781 61.908642 
L 323.588188 63.376281 
L 324.162594 65.95795 
L 325.311407 73.370677 
L 326.46022 80.903897 
L 327.034627 83.643085 
L 327.609033 85.342694 
L 328.183439 85.963766 
L 328.757846 85.6619 
L 330.481065 82.863636 
L 331.055472 82.718719 
L 331.629878 83.50234 
L 332.204285 85.297841 
L 332.778691 87.992295 
L 334.501911 98.008782 
L 335.076317 100.512648 
L 335.650724 101.974028 
L 336.22513 102.232739 
L 336.799537 101.324759 
L 337.373943 99.475178 
L 339.097163 92.327797 
L 339.671569 90.836917 
L 340.245976 90.270414 
L 340.820382 90.65859 
L 341.394789 91.838207 
L 342.543602 95.162655 
L 343.118008 96.423608 
L 343.692415 96.870394 
L 344.266821 96.239486 
L 344.841228 94.448223 
L 345.415634 91.611346 
L 347.71326 77.121774 
L 348.287666 74.841282 
L 348.862073 73.644423 
L 349.436479 73.502482 
L 350.010886 74.198607 
L 351.159699 76.570473 
L 351.734105 77.362724 
L 352.308512 77.389486 
L 352.882918 76.444809 
L 353.457325 74.511918 
L 354.606138 68.552572 
L 355.754951 62.505433 
L 356.329357 60.548421 
L 356.903764 59.713856 
L 357.47817 60.095885 
L 358.052577 61.590846 
L 359.20139 66.66285 
L 360.350203 71.596778 
L 360.924609 73.027264 
L 361.499016 73.500758 
L 362.073422 73.053771 
L 362.647829 71.909832 
L 363.796642 69.085698 
L 364.371048 68.295315 
L 364.945455 68.424141 
L 365.519861 69.677644 
L 366.094268 72.070867 
L 367.24308 79.393307 
L 368.391893 87.365139 
L 368.9663 90.481928 
L 369.540706 92.599543 
L 370.115113 93.616644 
L 370.689519 93.628831 
L 371.263926 92.909401 
L 372.412739 90.926549 
L 372.987145 90.535597 
L 373.561552 90.996657 
L 374.135958 92.454167 
L 374.710365 94.857831 
L 377.007991 107.426725 
L 377.582397 109.181534 
L 378.156804 109.759991 
L 378.73121 109.135938 
L 379.305617 107.478463 
L 381.603243 98.266944 
L 382.177649 97.329758 
L 382.752056 97.363789 
L 383.326462 98.266549 
L 385.049682 102.846835 
L 385.624088 103.565549 
L 386.198494 103.28223 
L 386.772901 101.85399 
L 387.347307 99.333862 
L 388.49612 92.128689 
L 389.644933 84.928192 
L 390.21934 82.399254 
L 390.793746 80.934071 
L 391.368153 80.566743 
L 391.942559 81.136995 
L 393.665779 84.799461 
L 394.240185 85.251234 
L 394.814592 84.787533 
L 395.388998 83.328642 
L 395.963405 80.990967 
L 397.686624 72.182251 
L 398.261031 70.12283 
L 398.835437 69.120018 
L 399.409844 69.327896 
L 399.98425 70.704101 
L 400.558657 73.017739 
L 402.281876 81.497121 
L 402.856283 83.409874 
L 403.430689 84.390355 
L 404.005096 84.41147 
L 404.579502 83.639398 
L 405.728315 81.130727 
L 406.302721 80.276594 
L 406.877128 80.231873 
L 407.451534 81.255212 
L 408.025941 83.423706 
L 408.600347 86.617215 
L 410.897973 102.267033 
L 411.47238 104.773097 
L 412.046786 106.176724 
L 412.621193 106.511594 
L 413.195599 105.999058 
L 414.344412 103.977751 
L 414.918819 103.353697 
L 415.493225 103.488274 
L 416.067632 104.584226 
L 416.642038 106.654707 
L 417.790851 112.836649 
L 418.939664 119.03249 
L 419.514071 121.042166 
L 420.088477 121.921708 
L 420.662884 121.583273 
L 421.23729 120.136809 
L 422.386103 115.196612 
L 423.534916 110.456737 
L 424.109323 109.145331 
L 424.683729 108.802051 
L 425.258135 109.387126 
L 425.832542 110.674308 
L 426.981355 113.796394 
L 427.555761 114.744052 
L 428.130168 114.782736 
L 428.704574 113.712104 
L 429.278981 111.522634 
L 430.427794 104.689302 
L 431.576607 97.330995 
L 432.151013 94.565769 
L 432.72542 92.824861 
L 433.299826 92.204714 
L 433.874233 92.60474 
L 434.448639 93.747392 
L 435.597452 96.600244 
L 436.171859 97.437842 
L 436.746265 97.433906 
L 437.320672 96.447362 
L 437.895078 94.532006 
L 440.192704 84.121229 
L 440.767111 82.949049 
L 441.341517 82.960992 
L 441.915924 84.176792 
L 442.49033 86.421263 
L 444.787956 97.861529 
L 445.362362 99.32458 
L 445.936769 99.808568 
L 446.511175 99.419174 
L 448.234395 96.367231 
L 448.808801 96.150895 
L 449.383208 96.927115 
L 449.957614 98.83348 
L 450.532021 101.811557 
L 451.680834 109.855029 
L 452.829647 117.77964 
L 453.404053 120.631561 
L 453.97846 122.399108 
L 454.552866 123.053272 
L 455.127273 122.759218 
L 456.850492 119.892117 
L 457.424899 119.695816 
L 457.999305 120.406751 
L 458.573712 122.101174 
L 459.148118 124.659365 
L 460.871338 134.024769 
L 461.445744 136.239244 
L 462.020151 137.388848 
L 462.594557 137.325654 
L 463.168964 136.098428 
L 463.74337 133.943844 
L 465.466589 126.036438 
L 466.040996 124.347655 
L 466.615402 123.604415 
L 467.189809 123.830482 
L 467.764215 124.856603 
L 468.913028 127.88754 
L 469.487435 129.01102 
L 470.061841 129.334394 
L 470.636248 128.603699 
L 471.210654 126.747182 
L 471.785061 123.890127 
L 474.082687 109.885395 
L 474.657093 107.861826 
L 475.2315 106.961614 
L 475.805906 107.145865 
L 476.380313 108.188505 
L 478.103532 112.464077 
L 478.677939 112.886521 
L 479.252345 112.358378 
L 479.826752 110.869937 
L 480.975565 105.90555 
L 482.124378 101.001167 
L 482.698784 99.658529 
L 483.273191 99.453316 
L 483.847597 100.467006 
L 484.422003 102.583352 
L 485.570816 108.827209 
L 486.719629 114.807291 
L 487.294036 116.716549 
L 487.868442 117.646564 
L 488.442849 117.640477 
L 489.017255 116.927362 
L 490.166068 114.94309 
L 490.740475 114.556858 
L 491.314881 115.070108 
L 491.889288 116.678237 
L 492.463694 119.385453 
L 493.612507 127.177036 
L 494.76132 135.376792 
L 495.335727 138.521488 
L 495.910133 140.619435 
L 496.48454 141.57932 
L 497.058946 141.506932 
L 497.633353 140.684246 
L 498.782166 138.458417 
L 499.356572 137.92829 
L 499.930979 138.233137 
L 500.505385 139.510804 
L 501.079792 141.704139 
L 503.377417 153.066722 
L 503.951824 154.445528 
L 504.52623 154.637286 
L 505.100637 153.628686 
L 505.675043 151.600972 
L 507.972669 141.193002 
L 508.547076 140.030162 
L 509.121482 139.858253 
L 509.695889 140.568247 
L 511.419108 144.615457 
L 511.993515 145.177312 
L 512.567921 144.759116 
L 513.142328 143.228354 
L 513.716734 140.648604 
L 514.865547 133.485875 
L 516.01436 126.562797 
L 516.588767 124.252425 
L 517.163173 123.047802 
L 517.73758 122.972588 
L 518.311986 123.856498 
L 520.035206 128.526076 
L 520.609612 129.332174 
L 521.184019 129.238664 
L 521.758425 128.172595 
L 522.332831 126.25683 
L 524.056051 118.916269 
L 524.630457 117.404334 
L 525.204864 116.963898 
L 525.77927 117.736681 
L 526.353677 119.667505 
L 527.50249 125.889709 
L 528.651303 132.392967 
L 529.225709 134.702971 
L 529.800116 136.053035 
L 530.374522 136.42286 
L 530.948929 135.98489 
L 532.097742 134.113972 
L 532.672148 133.561492 
L 533.246555 133.799485 
L 533.820961 135.077404 
L 534.395368 137.461869 
L 534.969774 140.822683 
L 537.2674 156.551357 
L 537.841807 158.938089 
L 538.416213 160.182401 
L 538.99062 160.328611 
L 539.565026 159.607696 
L 540.713839 157.135472 
L 541.288246 156.27232 
L 541.862652 156.155048 
L 542.437058 156.980461 
L 543.011465 158.754954 
L 544.160278 164.247478 
L 545.309091 169.619526 
L 545.883497 171.179934 
L 546.457904 171.599175 
L 547.03231 170.80212 
L 547.606717 168.911268 
L 548.75553 163.164538 
L 549.904343 157.757452 
L 550.478749 156.161176 
L 551.053156 155.557844 
L 551.627562 155.900773 
L 552.201969 156.957896 
L 553.350782 159.646552 
L 553.925188 160.395123 
L 554.499595 160.255214 
L 555.074001 159.036145 
L 555.648408 156.738767 
L 556.797221 149.846031 
L 557.946034 142.662445 
L 558.52044 140.066511 
L 559.094847 138.538985 
L 559.669253 138.165791 
L 560.24366 138.835709 
L 560.818066 140.262131 
L 561.966879 143.703261 
L 562.541285 144.84423 
L 563.115692 145.154691 
L 563.690098 144.49988 
L 564.264505 142.940158 
L 566.562131 134.245405 
L 567.136537 133.557613 
L 567.710944 134.056753 
L 568.28535 135.749709 
L 568.859757 138.449225 
L 571.157383 151.351145 
L 571.731789 153.089017 
L 572.306196 153.82186 
L 572.880602 153.662187 
L 573.455009 152.896578 
L 574.029415 151.93218 
L 574.603822 151.22133 
L 575.178228 151.17794 
L 575.752635 152.100764 
L 576.327041 154.117453 
L 576.901448 157.159512 
L 579.199074 172.80187 
L 579.77348 175.430821 
L 580.347887 176.933316 
L 580.922293 177.29125 
L 581.496699 176.680206 
L 583.219919 172.804012 
L 583.794325 172.256338 
L 584.368732 172.602277 
L 584.943138 173.911579 
L 585.517545 176.058337 
L 587.240764 184.006252 
L 587.815171 185.69727 
L 588.389577 186.312329 
L 588.963984 185.715893 
L 589.53839 183.969488 
L 590.687203 178.16145 
L 591.836016 172.150857 
L 592.410423 170.115897 
L 592.984829 169.056364 
L 593.559236 168.988902 
L 594.133642 169.737685 
L 595.282455 172.247919 
L 595.856862 173.129393 
L 596.431268 173.229973 
L 597.005675 172.304487 
L 597.580081 170.291198 
L 598.154488 167.324937 
L 600.452113 153.451402 
L 601.02652 151.591223 
L 601.600926 150.889953 
L 602.175333 151.297622 
L 602.749739 152.578154 
L 604.472959 157.597766 
L 605.047365 158.277698 
L 605.621772 158.019144 
L 606.196178 156.818907 
L 606.770585 154.865789 
L 607.919398 150.185081 
L 608.493804 148.359083 
L 609.068211 147.420379 
L 609.642617 147.622213 
L 610.217024 149.033372 
L 610.79143 151.525167 
L 613.089056 164.873835 
L 613.663463 166.96395 
L 614.237869 168.043985 
L 614.812276 168.164326 
L 615.386682 167.560192 
L 616.535495 165.752407 
L 617.109902 165.430079 
L 617.684308 165.982766 
L 618.258715 167.596639 
L 618.833121 170.266014 
L 619.981934 177.818494 
L 621.130747 185.539532 
L 621.705153 188.36232 
L 622.27956 190.094567 
L 622.853966 190.655947 
L 623.428373 190.163287 
L 624.002779 188.907971 
L 625.151592 185.80185 
L 625.725999 184.825689 
L 626.300405 184.676006 
L 626.874812 185.484567 
L 627.449218 187.187879 
L 629.746844 196.331053 
L 630.321251 197.10898 
L 630.895657 196.700921 
L 631.470064 195.10634 
L 632.04447 192.518398 
L 633.76769 182.726902 
L 634.342096 180.259048 
L 634.916503 178.730021 
L 635.490909 178.219605 
L 636.065316 178.611595 
L 637.788535 181.787761 
L 638.362942 182.090493 
L 638.937348 181.439112 
L 639.511754 179.710587 
L 640.086161 176.978062 
L 642.383787 162.838137 
L 642.958193 160.646774 
L 643.5326 159.598598 
L 644.107006 159.705936 
L 644.681413 160.787718 
L 646.404632 166.073533 
L 646.979039 167.087456 
L 647.553445 167.208758 
L 648.127852 166.37079 
L 648.702258 164.702404 
L 650.425478 158.243072 
L 650.999884 157.060663 
L 651.574291 156.953149 
L 652.148697 158.049904 
L 652.723104 160.283123 
L 653.871917 167.00362 
L 655.02073 173.828118 
L 655.595136 176.234257 
L 656.169543 177.645029 
L 656.743949 178.047627 
L 657.318356 177.621433 
L 658.467169 175.727077 
L 659.041575 175.13874 
L 659.615981 175.318317 
L 660.190388 176.506905 
L 660.764794 178.761583 
L 661.913607 185.739264 
L 663.06242 193.409735 
L 663.636827 196.378974 
L 664.211233 198.312791 
L 664.78564 199.07 
L 665.360046 198.706398 
L 665.934453 197.463305 
L 667.657672 192.546302 
L 668.232079 191.898135 
L 668.806485 192.183765 
L 669.380892 193.403255 
L 670.529705 197.720755 
L 671.104111 200.027589 
L 671.678518 201.829209 
L 672.252924 202.738301 
L 672.827331 202.507209 
L 673.401737 201.073405 
L 673.976144 198.571655 
L 676.27377 185.3838 
L 676.848176 183.385629 
L 677.422583 182.412976 
L 677.996989 182.411539 
L 678.571395 183.142745 
L 679.720208 185.22264 
L 680.294615 185.691245 
L 680.869021 185.295363 
L 681.443428 183.8531 
L 682.017834 181.374712 
L 683.166647 174.277048 
L 684.31546 167.115968 
L 684.889867 164.607892 
L 685.464273 163.207393 
L 686.03868 162.988983 
L 686.613086 163.830047 
L 687.187493 165.434275 
L 688.336306 169.228047 
L 688.910712 170.541863 
L 689.485119 171.027213 
L 690.059525 170.555263 
L 690.633932 169.192559 
L 692.931558 161.474873 
L 693.505964 161.059385 
L 694.080371 161.822609 
L 694.654777 163.758809 
L 695.229184 166.669043 
L 696.952403 177.276072 
L 697.526809 179.963496 
L 698.101216 181.689668 
L 698.675622 182.378692 
L 699.250029 182.150656 
L 699.824435 181.298068 
L 700.398842 180.231056 
L 700.973248 179.401275 
L 701.547655 179.218272 
L 702.122061 179.973466 
L 702.696468 181.78549 
L 703.270874 184.576798 
L 705.5685 198.659363 
L 706.142907 200.768664 
L 706.717313 201.716207 
L 707.29172 201.495624 
L 707.866126 200.293614 
L 709.589346 194.641572 
L 710.163752 193.506703 
L 710.738159 193.262294 
L 711.312565 193.971937 
L 711.886972 195.50388 
L 713.610191 201.494286 
L 714.184598 202.505969 
L 714.759004 202.442775 
L 715.333411 201.181407 
L 715.907817 198.795828 
L 717.05663 191.827348 
L 718.205443 184.846112 
L 718.779849 182.394059 
L 719.354256 180.95479 
L 719.928662 180.537051 
L 720.503069 180.957694 
L 721.651882 182.86057 
L 722.226288 183.462727 
L 722.800695 183.306179 
L 723.375101 182.153678 
L 723.949508 179.952558 
L 725.098321 173.149808 
L 726.247134 165.755687 
L 726.82154 162.959237 
L 727.395947 161.215625 
L 727.970353 160.66028 
L 728.54476 161.231408 
L 729.119166 162.682311 
L 730.842386 168.193483 
L 731.416792 169.02895 
L 731.991199 168.928635 
L 732.565605 167.895563 
L 733.140012 166.123883 
L 734.288825 161.85703 
L 734.863231 160.258242 
L 735.437638 159.550404 
L 736.012044 159.975644 
L 736.58645 161.590325 
L 737.160857 164.25374 
L 739.458483 177.826243 
L 740.032889 179.854607 
L 740.607296 180.836779 
L 741.181702 180.831193 
L 741.756109 180.079982 
L 742.904922 177.928438 
L 743.479328 177.407342 
L 744.053735 177.736178 
L 744.628141 179.092789 
L 745.202548 181.462588 
L 746.351361 188.26058 
L 747.500174 195.00575 
L 748.07458 197.267611 
L 748.648987 198.402799 
L 749.223393 198.342796 
L 749.7978 197.216146 
L 750.946613 193.085722 
L 751.521019 190.960527 
L 752.095426 189.36572 
L 752.669832 188.599928 
L 753.244239 188.789084 
L 753.818645 189.86361 
L 756.116271 196.35204 
L 756.690677 196.450718 
L 757.265084 195.376469 
L 757.83949 193.141173 
L 758.988303 186.162729 
L 760.137116 178.636301 
L 760.711523 175.76076 
L 761.285929 173.865976 
L 761.860336 173.023727 
L 762.434742 173.10982 
L 763.009149 173.828484 
L 763.583555 174.767812 
L 764.157962 175.476203 
L 764.732368 175.545994 
L 765.306775 174.689117 
L 765.881181 172.791107 
L 766.455588 169.933668 
L 768.753214 155.825269 
L 769.32762 153.762525 
L 769.902027 152.873797 
L 770.476433 153.159337 
L 771.05084 154.426697 
L 772.774059 160.240067 
L 773.348466 161.414038 
L 773.922872 161.692903 
L 774.497279 161.016114 
L 775.071685 159.51831 
L 776.794904 153.648881 
L 777.369311 152.678324 
L 777.943717 152.775914 
L 778.518124 154.058981 
L 779.09253 156.447555 
L 780.241343 163.346713 
L 781.390156 170.144166 
L 781.964563 172.463793 
L 782.538969 173.74816 
L 783.113376 173.992819 
L 783.687782 173.384906 
L 785.411002 170.253526 
L 785.985408 170.177876 
L 786.559815 171.081562 
L 787.134221 173.013074 
L 787.708628 175.825188 
L 789.431847 185.866378 
L 790.006254 188.261227 
L 790.58066 189.583986 
L 791.155067 189.70516 
L 791.729473 188.692683 
L 792.30388 186.798736 
L 794.027099 179.979797 
L 794.601506 178.716624 
L 795.175912 178.389968 
L 795.750318 178.993724 
L 796.324725 180.3311 
L 797.473538 183.710369 
L 798.047944 184.858461 
L 798.622351 185.11586 
L 799.196757 184.245877 
L 799.771164 182.198191 
L 800.34557 179.119283 
L 802.643196 164.12551 
L 803.217603 161.801258 
L 803.792009 160.54077 
L 804.366416 160.281256 
L 804.940822 160.776814 
L 806.089635 162.437301 
L 806.664042 162.723456 
L 807.238448 162.169914 
L 807.812855 160.602671 
L 808.387261 158.040422 
L 809.536074 150.924781 
L 810.684887 143.956253 
L 811.259294 141.612179 
L 811.8337 140.407756 
L 812.408107 140.405367 
L 812.982513 141.470431 
L 814.131326 145.461282 
L 814.705732 147.503413 
L 815.280139 149.006164 
L 815.854545 149.672882 
L 816.428952 149.380552 
L 817.003358 148.201798 
L 819.300984 141.30916 
L 819.875391 141.103229 
L 820.449797 142.058365 
L 821.024204 144.156704 
L 822.173017 150.787385 
L 823.32183 157.850258 
L 823.896236 160.451793 
L 824.470643 162.048639 
L 825.045049 162.573396 
L 825.619456 162.154593 
L 826.768269 159.797977 
L 827.342675 158.725818 
L 827.917082 158.280997 
L 828.491488 158.74845 
L 829.065895 160.238704 
L 829.640301 162.66614 
L 831.937927 174.797018 
L 832.512334 176.308859 
L 833.08674 176.633428 
L 833.661146 175.776722 
L 834.235553 173.937045 
L 835.958772 166.437371 
L 836.533179 164.714669 
L 837.107585 163.89106 
L 837.681992 164.024038 
L 838.256398 164.976069 
L 839.979618 169.185371 
L 840.554024 169.600207 
L 841.128431 168.952722 
L 841.702837 167.131428 
L 842.277244 164.222134 
L 843.426057 156.352436 
L 844.57487 148.691422 
L 845.149276 145.97711 
L 845.723683 144.317909 
L 846.298089 143.713745 
L 846.872496 143.97328 
L 848.021309 145.60916 
L 848.595715 146.10375 
L 849.170122 145.861789 
L 849.744528 144.653089 
L 850.318935 142.43313 
L 851.467748 135.732665 
L 852.616561 128.644446 
L 853.190967 126.068686 
L 853.765373 124.578782 
L 854.33978 124.298165 
L 854.914186 125.152666 
L 855.488593 126.884571 
L 857.211812 133.161388 
L 857.786219 134.224182 
L 858.360625 134.344062 
L 858.935032 133.530262 
L 859.509438 131.982262 
L 860.658251 128.184233 
L 861.232658 126.825562 
L 861.807064 126.352056 
L 862.381471 126.995104 
L 862.955877 128.799162 
L 863.530284 131.612186 
L 865.82791 145.259416 
L 866.402316 147.178429 
L 866.976723 148.012988 
L 867.551129 147.830491 
L 868.125536 146.88084 
L 869.274349 144.284888 
L 869.848755 143.517316 
L 870.423162 143.577425 
L 870.997568 144.635604 
L 871.571975 146.669286 
L 872.720787 152.657554 
L 873.8696 158.402064 
L 874.444007 160.104339 
L 875.018413 160.654009 
L 875.59282 159.994965 
L 876.167226 158.267921 
L 877.316039 152.970481 
L 877.890446 150.288844 
L 878.464852 148.155901 
L 879.039259 146.866307 
L 879.613665 146.540129 
L 880.188072 147.10167 
L 881.336885 149.72553 
L 881.911291 150.943268 
L 882.485698 151.514426 
L 883.060104 151.106696 
L 883.634511 149.549589 
L 884.208917 146.866786 
L 885.35773 139.139187 
L 886.506543 131.091112 
L 887.08095 128.037034 
L 887.655356 126.009789 
L 888.229763 125.07217 
L 888.804169 125.091093 
L 889.378576 125.763617 
L 889.952982 126.673665 
L 890.527389 127.369157 
L 891.101795 127.445601 
L 891.676202 126.621015 
L 892.250608 124.788616 
L 892.825014 122.037737 
L 895.12264 108.831025 
L 895.697047 107.095912 
L 896.271453 106.556711 
L 896.84586 107.201086 
L 897.420266 108.824849 
L 899.143486 115.617804 
L 899.717892 117.082286 
L 900.292299 117.639161 
L 900.866705 117.23406 
L 901.441112 116.007488 
L 903.164331 110.971874 
L 903.738738 110.275783 
L 904.313144 110.632329 
L 904.887551 112.147346 
L 905.461957 114.7294 
L 906.61077 121.864389 
L 907.759583 128.673187 
L 908.33399 130.921086 
L 908.908396 132.092261 
L 909.482803 132.191574 
L 910.057209 131.414805 
L 911.780428 127.683074 
L 912.354835 127.374173 
L 912.929241 128.019222 
L 913.503648 129.658997 
L 914.078054 132.139193 
L 915.801274 140.913523 
L 916.37568 142.805174 
L 916.950087 143.598523 
L 917.524493 143.176338 
L 918.0989 141.619106 
L 919.247713 136.287728 
L 920.396526 130.887644 
L 920.970932 129.17238 
L 921.545339 128.40789 
L 922.119745 128.581763 
L 922.694152 129.491781 
L 923.842965 132.015234 
L 924.417371 132.739614 
L 924.991778 132.585423 
L 925.566184 131.326441 
L 926.140591 128.923907 
L 927.289404 121.487302 
L 928.438217 113.204916 
L 929.012623 109.869146 
L 929.58703 107.512911 
L 930.161436 106.260873 
L 930.735843 106.040811 
L 931.310249 106.598619 
L 932.459062 108.433353 
L 933.033468 108.831257 
L 933.607875 108.411445 
L 934.182281 107.00697 
L 934.756688 104.644086 
L 935.905501 98.059666 
L 937.054314 91.803767 
L 937.62872 89.87073 
L 938.203127 89.099857 
L 938.777533 89.540915 
L 939.35194 91.047032 
L 940.500753 95.874859 
L 941.075159 98.302825 
L 941.649566 100.169507 
L 942.223972 101.182344 
L 942.798379 101.224313 
L 943.372785 100.374285 
L 945.096005 95.658767 
L 945.670411 94.790834 
L 946.244818 94.893267 
L 946.819224 96.1312 
L 947.393631 98.475359 
L 948.542444 105.448816 
L 949.691257 112.626526 
L 950.265663 115.204433 
L 950.840069 116.733137 
L 951.414476 117.15472 
L 951.988882 116.607071 
L 953.137695 113.943104 
L 953.712102 112.697861 
L 954.286508 112.064508 
L 954.860915 112.322275 
L 955.435321 113.57441 
L 956.009728 115.72808 
L 958.307354 126.349931 
L 958.88176 127.399591 
L 959.456167 127.247574 
L 960.030573 125.91263 
L 960.60498 123.604879 
L 962.328199 114.836757 
L 962.902606 112.742314 
L 963.477012 111.56677 
L 964.051419 111.361299 
L 964.625825 111.982354 
L 966.349045 115.219172 
L 966.923451 115.326194 
L 967.497858 114.392407 
L 968.072264 112.31746 
L 968.646671 109.198208 
L 970.944296 93.396358 
L 971.518703 90.755488 
L 972.093109 89.213187 
L 972.667516 88.75958 
L 973.241922 89.194242 
L 974.965142 91.946289 
L 975.539548 91.944231 
L 976.113955 90.999996 
L 976.688361 89.076388 
L 977.837174 83.088723 
L 978.985987 76.884703 
L 979.560394 74.804731 
L 980.1348 73.833426 
L 980.709207 74.081764 
L 981.283613 75.462921 
L 981.85802 77.708033 
L 983.581239 85.381303 
L 984.155646 86.860397 
L 984.730052 87.379216 
L 985.304459 86.953463 
L 985.878865 85.788216 
L 987.027678 82.749192 
L 987.602085 81.762437 
L 988.176491 81.646812 
L 988.750898 82.623563 
L 989.325304 84.72598 
L 989.89971 87.79155 
L 992.197336 101.885617 
L 992.771743 103.783925 
L 993.346149 104.559894 
L 993.920556 104.29083 
L 994.494962 103.235265 
L 995.643775 100.389632 
L 996.218182 99.479259 
L 996.218182 99.479259 
" style="fill:none;stroke:#4c72b0;stroke-linecap:round;stroke-width:1.4;"/>
   </g>
   <g id="line2d_28">
    <path clip-path="url(#p2d9e1f08fd)" d="M 184.581818 159.097485 
L 996.218182 159.097485 
L 996.218182 159.097485 
" style="fill:none;stroke:#55a868;stroke-linecap:round;stroke-width:1.4;"/>
   </g>
   <g id="patch_3">
    <path d="M 144 320.4 
L 144 43.2 
" style="fill:none;"/>
   </g>
   <g id="patch_4">
    <path d="M 1036.8 320.4 
L 1036.8 43.2 
" style="fill:none;"/>
   </g>
   <g id="patch_5">
    <path d="M 144 320.4 
L 1036.8 320.4 
" style="fill:none;"/>
   </g>
   <g id="patch_6">
    <path d="M 144 43.2 
L 1036.8 43.2 
" style="fill:none;"/>
   </g>
   <g id="legend_1">
    <g id="line2d_29">
     <path d="M 1002.75125 53.3975 
L 1018.75125 53.3975 
" style="fill:none;stroke:#4c72b0;stroke-linecap:round;stroke-width:1.4;"/>
    </g>
    <g id="line2d_30"/>
    <g id="text_14">
     <!-- a -->
     <defs>
      <path d="M 20.21875 -0.984375 
Q 12.25 -0.984375 8.25 3.21875 
Q 4.25 7.421875 4.25 14.75 
Q 4.25 19.96875 6.21875 23.3125 
Q 8.203125 26.65625 11.390625 28.5625 
Q 14.59375 30.46875 18.6875 31.203125 
Q 22.796875 31.9375 27.046875 32.03125 
L 38.921875 32.234375 
L 38.921875 35.109375 
Q 38.921875 38.375 38.234375 40.671875 
Q 37.546875 42.96875 36.125 44.375 
Q 34.71875 45.796875 32.59375 46.453125 
Q 30.46875 47.125 27.59375 47.125 
Q 25.046875 47.125 23 46.75 
Q 20.953125 46.390625 19.4375 45.4375 
Q 17.921875 44.484375 16.984375 42.84375 
Q 16.0625 41.21875 15.765625 38.71875 
L 6.59375 39.546875 
Q 7.078125 42.671875 8.4375 45.28125 
Q 9.8125 47.90625 12.328125 49.796875 
Q 14.84375 51.703125 18.625 52.75 
Q 22.40625 53.8125 27.78125 53.8125 
Q 37.75 53.8125 42.765625 49.234375 
Q 47.796875 44.671875 47.796875 36.03125 
L 47.796875 13.28125 
Q 47.796875 9.375 48.828125 7.390625 
Q 49.859375 5.421875 52.734375 5.421875 
Q 53.46875 5.421875 54.203125 5.515625 
Q 54.9375 5.609375 55.609375 5.765625 
L 55.609375 0.296875 
Q 53.953125 -0.09375 52.3125 -0.28125 
Q 50.6875 -0.484375 48.828125 -0.484375 
Q 46.34375 -0.484375 44.5625 0.171875 
Q 42.78125 0.828125 41.65625 2.171875 
Q 40.53125 3.515625 39.9375 5.484375 
Q 39.359375 7.46875 39.203125 10.109375 
L 38.921875 10.109375 
Q 37.5 7.5625 35.8125 5.515625 
Q 34.125 3.46875 31.875 2.03125 
Q 29.640625 0.59375 26.78125 -0.1875 
Q 23.921875 -0.984375 20.21875 -0.984375 
M 22.21875 5.609375 
Q 26.421875 5.609375 29.5625 7.140625 
Q 32.71875 8.6875 34.78125 11.078125 
Q 36.859375 13.484375 37.890625 16.3125 
Q 38.921875 19.140625 38.921875 21.734375 
L 38.921875 26.078125 
L 29.296875 25.875 
Q 26.078125 25.828125 23.171875 25.40625 
Q 20.265625 25 18.0625 23.78125 
Q 15.875 22.5625 14.578125 20.359375 
Q 13.28125 18.171875 13.28125 14.59375 
Q 13.28125 10.296875 15.59375 7.953125 
Q 17.921875 5.609375 22.21875 5.609375 
" id="LiberationSans-61"/>
     </defs>
     <g style="fill:#262626;" transform="translate(1025.15125 56.1975)scale(0.08 -0.08)">
      <use xlink:href="#LiberationSans-61"/>
     </g>
    </g>
    <g id="line2d_31">
     <path d="M 1002.75125 64.855 
L 1018.75125 64.855 
" style="fill:none;stroke:#55a868;stroke-linecap:round;stroke-width:1.4;"/>
    </g>
    <g id="line2d_32"/>
    <g id="text_15">
     <!-- b -->
     <defs>
      <path d="M 51.421875 26.65625 
Q 51.421875 -0.984375 31.984375 -0.984375 
Q 25.984375 -0.984375 22 1.1875 
Q 18.015625 3.375 15.53125 8.203125 
L 15.4375 8.203125 
Q 15.4375 6.9375 15.359375 5.5625 
Q 15.28125 4.203125 15.203125 3.03125 
Q 15.140625 1.859375 15.0625 1.03125 
Q 14.984375 0.203125 14.9375 0 
L 6.453125 0 
Q 6.5 0.4375 6.546875 1.484375 
Q 6.59375 2.546875 6.640625 4 
Q 6.6875 5.46875 6.703125 7.21875 
Q 6.734375 8.984375 6.734375 10.890625 
L 6.734375 72.46875 
L 15.53125 72.46875 
L 15.53125 51.8125 
Q 15.53125 50.34375 15.5 49 
Q 15.484375 47.65625 15.4375 46.625 
Q 15.375 45.40625 15.328125 44.34375 
L 15.53125 44.34375 
Q 17.96875 49.421875 22 51.609375 
Q 26.03125 53.8125 31.984375 53.8125 
Q 42 53.8125 46.703125 47.0625 
Q 51.421875 40.328125 51.421875 26.65625 
M 42.1875 26.375 
Q 42.1875 31.84375 41.5 35.75 
Q 40.828125 39.65625 39.3125 42.15625 
Q 37.796875 44.671875 35.453125 45.84375 
Q 33.109375 47.015625 29.734375 47.015625 
Q 26.265625 47.015625 23.609375 45.890625 
Q 20.953125 44.78125 19.171875 42.28125 
Q 17.390625 39.796875 16.453125 35.734375 
Q 15.53125 31.6875 15.53125 25.828125 
Q 15.53125 20.171875 16.453125 16.3125 
Q 17.390625 12.453125 19.171875 10.03125 
Q 20.953125 7.625 23.578125 6.5625 
Q 26.21875 5.515625 29.640625 5.515625 
Q 32.859375 5.515625 35.203125 6.640625 
Q 37.546875 7.765625 39.109375 10.25 
Q 40.671875 12.75 41.421875 16.71875 
Q 42.1875 20.703125 42.1875 26.375 
" id="LiberationSans-62"/>
     </defs>
     <g style="fill:#262626;" transform="translate(1025.15125 67.655)scale(0.08 -0.08)">
      <use xlink:href="#LiberationSans-62"/>
     </g>
    </g>
   </g>
  </g>
 </g>
 <defs>
  <clipPath id="p2d9e1f08fd">
   <rect height="277.2" width="892.8" x="144" y="43.2"/>
  </clipPath>
 </defs>
</svg>
