<?xml version="1.0" encoding="utf-8" standalone="no"?>
<!DOCTYPE svg PUBLIC "-//W3C//DTD SVG 1.1//EN"
  "http://www.w3.org/Graphics/SVG/1.1/DTD/svg11.dtd">
<!-- Created with matplotlib (http://matplotlib.org/) -->
<svg height="360pt" version="1.1" viewBox="0 0 1152 360" width="1152pt" xmlns="http://www.w3.org/2000/svg" xmlns:xlink="http://www.w3.org/1999/xlink">
 <defs>
  <style type="text/css">
*{stroke-linecap:butt;stroke-linejoin:round;}
  </style>
 </defs>
 <g id="figure_1">
  <g id="patch_1">
   <path d="M 0 360 
L 1152 360 
L 1152 0 
L 0 0 
z
" style="fill:#ffffff;"/>
  </g>
  <g id="axes_1">
   <g id="patch_2">
    <path d="M 144 320.4 
L 1036.8 320.4 
L 1036.8 43.2 
L 144 43.2 
z
" style="fill:#eaeaf2;"/>
   </g>
   <g id="matplotlib.axis_1">
    <g id="xtick_1">
     <g id="line2d_1">
      <path clip-path="url(#pe7632b86c7)" d="M 184.581818 320.4 
L 184.581818 43.2 
" style="fill:none;stroke:#ffffff;stroke-linecap:round;stroke-width:0.8;"/>
     </g>
     <g id="line2d_2"/>
     <g id="text_1">
      <!-- 0 -->
      <defs>
       <path d="M 51.703125 34.421875 
Q 51.703125 24.515625 49.828125 17.75 
Q 47.953125 10.984375 44.703125 6.8125 
Q 41.453125 2.640625 37.0625 0.828125 
Q 32.671875 -0.984375 27.6875 -0.984375 
Q 22.65625 -0.984375 18.3125 0.828125 
Q 13.96875 2.640625 10.765625 6.78125 
Q 7.5625 10.9375 5.734375 17.703125 
Q 3.90625 24.46875 3.90625 34.421875 
Q 3.90625 44.828125 5.734375 51.640625 
Q 7.5625 58.453125 10.78125 62.5 
Q 14.015625 66.546875 18.40625 68.1875 
Q 22.796875 69.828125 27.984375 69.828125 
Q 32.90625 69.828125 37.21875 68.1875 
Q 41.546875 66.546875 44.765625 62.5 
Q 48 58.453125 49.84375 51.640625 
Q 51.703125 44.828125 51.703125 34.421875 
M 42.78125 34.421875 
Q 42.78125 42.625 41.796875 48.0625 
Q 40.828125 53.515625 38.921875 56.765625 
Q 37.015625 60.015625 34.25 61.359375 
Q 31.5 62.703125 27.984375 62.703125 
Q 24.265625 62.703125 21.4375 61.328125 
Q 18.609375 59.96875 16.671875 56.71875 
Q 14.75 53.46875 13.765625 48.015625 
Q 12.796875 42.578125 12.796875 34.421875 
Q 12.796875 26.515625 13.796875 21.09375 
Q 14.796875 15.671875 16.71875 12.375 
Q 18.65625 9.078125 21.4375 7.640625 
Q 24.21875 6.203125 27.78125 6.203125 
Q 31.25 6.203125 34.03125 7.640625 
Q 36.8125 9.078125 38.734375 12.375 
Q 40.671875 15.671875 41.71875 21.09375 
Q 42.78125 26.515625 42.78125 34.421875 
" id="LiberationSans-30"/>
      </defs>
      <g style="fill:#262626;" transform="translate(182.357443 331.7975)scale(0.08 -0.08)">
       <use xlink:href="#LiberationSans-30"/>
      </g>
     </g>
    </g>
    <g id="xtick_2">
     <g id="line2d_3">
      <path clip-path="url(#pe7632b86c7)" d="M 299.625952 320.4 
L 299.625952 43.2 
" style="fill:none;stroke:#ffffff;stroke-linecap:round;stroke-width:0.8;"/>
     </g>
     <g id="line2d_4"/>
     <g id="text_2">
      <!-- 200 -->
      <defs>
       <path d="M 5.03125 0 
L 5.03125 6.203125 
Q 7.515625 11.921875 11.109375 16.28125 
Q 14.703125 20.65625 18.65625 24.1875 
Q 22.609375 27.734375 26.484375 30.765625 
Q 30.375 33.796875 33.5 36.8125 
Q 36.625 39.84375 38.546875 43.15625 
Q 40.484375 46.484375 40.484375 50.6875 
Q 40.484375 53.609375 39.59375 55.828125 
Q 38.71875 58.0625 37.0625 59.5625 
Q 35.40625 61.078125 33.078125 61.828125 
Q 30.765625 62.59375 27.9375 62.59375 
Q 25.296875 62.59375 22.96875 61.859375 
Q 20.65625 61.140625 18.84375 59.671875 
Q 17.046875 58.203125 15.890625 56.03125 
Q 14.75 53.859375 14.40625 50.984375 
L 5.421875 51.8125 
Q 5.859375 55.515625 7.46875 58.78125 
Q 9.078125 62.0625 11.90625 64.53125 
Q 14.75 67 18.71875 68.40625 
Q 22.703125 69.828125 27.9375 69.828125 
Q 33.0625 69.828125 37.0625 68.609375 
Q 41.0625 67.390625 43.8125 64.984375 
Q 46.578125 62.59375 48.046875 59.078125 
Q 49.515625 55.5625 49.515625 50.984375 
Q 49.515625 47.515625 48.265625 44.390625 
Q 47.015625 41.265625 44.9375 38.421875 
Q 42.875 35.59375 40.140625 32.953125 
Q 37.40625 30.328125 34.421875 27.8125 
Q 31.453125 25.296875 28.421875 22.828125 
Q 25.390625 20.359375 22.71875 17.859375 
Q 20.0625 15.375 17.96875 12.8125 
Q 15.875 10.25 14.703125 7.46875 
L 50.59375 7.46875 
L 50.59375 0 
z
" id="LiberationSans-32"/>
      </defs>
      <g style="fill:#262626;" transform="translate(292.952827 331.7975)scale(0.08 -0.08)">
       <use xlink:href="#LiberationSans-32"/>
       <use x="55.615234" xlink:href="#LiberationSans-30"/>
       <use x="111.230469" xlink:href="#LiberationSans-30"/>
      </g>
     </g>
    </g>
    <g id="xtick_3">
     <g id="line2d_5">
      <path clip-path="url(#pe7632b86c7)" d="M 414.670086 320.4 
L 414.670086 43.2 
" style="fill:none;stroke:#ffffff;stroke-linecap:round;stroke-width:0.8;"/>
     </g>
     <g id="line2d_6"/>
     <g id="text_3">
      <!-- 400 -->
      <defs>
       <path d="M 43.015625 15.578125 
L 43.015625 0 
L 34.71875 0 
L 34.71875 15.578125 
L 2.296875 15.578125 
L 2.296875 22.40625 
L 33.796875 68.796875 
L 43.015625 68.796875 
L 43.015625 22.515625 
L 52.6875 22.515625 
L 52.6875 15.578125 
z
M 34.71875 58.890625 
Q 34.625 58.640625 34.234375 57.9375 
Q 33.84375 57.234375 33.34375 56.34375 
Q 32.859375 55.46875 32.34375 54.5625 
Q 31.84375 53.65625 31.453125 53.078125 
L 13.8125 27.09375 
Q 13.578125 26.703125 13.109375 26.0625 
Q 12.640625 25.4375 12.15625 24.78125 
Q 11.671875 24.125 11.171875 23.484375 
Q 10.6875 22.859375 10.40625 22.515625 
L 34.71875 22.515625 
z
" id="LiberationSans-34"/>
      </defs>
      <g style="fill:#262626;" transform="translate(407.996961 331.7975)scale(0.08 -0.08)">
       <use xlink:href="#LiberationSans-34"/>
       <use x="55.615234" xlink:href="#LiberationSans-30"/>
       <use x="111.230469" xlink:href="#LiberationSans-30"/>
      </g>
     </g>
    </g>
    <g id="xtick_4">
     <g id="line2d_7">
      <path clip-path="url(#pe7632b86c7)" d="M 529.714219 320.4 
L 529.714219 43.2 
" style="fill:none;stroke:#ffffff;stroke-linecap:round;stroke-width:0.8;"/>
     </g>
     <g id="line2d_8"/>
     <g id="text_4">
      <!-- 600 -->
      <defs>
       <path d="M 51.21875 22.515625 
Q 51.21875 17.328125 49.78125 13 
Q 48.34375 8.6875 45.53125 5.578125 
Q 42.71875 2.484375 38.5625 0.75 
Q 34.421875 -0.984375 29 -0.984375 
Q 23 -0.984375 18.5 1.3125 
Q 14.015625 3.609375 11.03125 7.921875 
Q 8.0625 12.25 6.5625 18.53125 
Q 5.078125 24.8125 5.078125 32.8125 
Q 5.078125 42 6.765625 48.921875 
Q 8.453125 55.859375 11.625 60.5 
Q 14.796875 65.140625 19.359375 67.484375 
Q 23.921875 69.828125 29.6875 69.828125 
Q 33.203125 69.828125 36.28125 69.09375 
Q 39.359375 68.359375 41.875 66.71875 
Q 44.390625 65.09375 46.28125 62.40625 
Q 48.1875 59.71875 49.3125 55.8125 
L 40.921875 54.296875 
Q 39.546875 58.734375 36.546875 60.71875 
Q 33.546875 62.703125 29.59375 62.703125 
Q 25.984375 62.703125 23.046875 60.984375 
Q 20.125 59.28125 18.0625 55.875 
Q 16.015625 52.484375 14.90625 47.359375 
Q 13.8125 42.234375 13.8125 35.40625 
Q 16.21875 39.84375 20.5625 42.15625 
Q 24.90625 44.484375 30.515625 44.484375 
Q 35.203125 44.484375 39.015625 42.96875 
Q 42.828125 41.453125 45.53125 38.59375 
Q 48.25 35.75 49.734375 31.671875 
Q 51.21875 27.59375 51.21875 22.515625 
M 42.28125 22.125 
Q 42.28125 25.6875 41.40625 28.5625 
Q 40.53125 31.453125 38.765625 33.46875 
Q 37.015625 35.5 34.421875 36.59375 
Q 31.84375 37.703125 28.421875 37.703125 
Q 26.03125 37.703125 23.578125 36.984375 
Q 21.140625 36.28125 19.15625 34.6875 
Q 17.1875 33.109375 15.9375 30.515625 
Q 14.703125 27.9375 14.703125 24.21875 
Q 14.703125 20.40625 15.671875 17.109375 
Q 16.65625 13.8125 18.484375 11.375 
Q 20.3125 8.9375 22.890625 7.515625 
Q 25.484375 6.109375 28.71875 6.109375 
Q 31.890625 6.109375 34.40625 7.203125 
Q 36.921875 8.296875 38.671875 10.375 
Q 40.4375 12.453125 41.359375 15.421875 
Q 42.28125 18.40625 42.28125 22.125 
" id="LiberationSans-36"/>
      </defs>
      <g style="fill:#262626;" transform="translate(523.041094 331.7975)scale(0.08 -0.08)">
       <use xlink:href="#LiberationSans-36"/>
       <use x="55.615234" xlink:href="#LiberationSans-30"/>
       <use x="111.230469" xlink:href="#LiberationSans-30"/>
      </g>
     </g>
    </g>
    <g id="xtick_5">
     <g id="line2d_9">
      <path clip-path="url(#pe7632b86c7)" d="M 644.758353 320.4 
L 644.758353 43.2 
" style="fill:none;stroke:#ffffff;stroke-linecap:round;stroke-width:0.8;"/>
     </g>
     <g id="line2d_10"/>
     <g id="text_5">
      <!-- 800 -->
      <defs>
       <path d="M 51.265625 19.1875 
Q 51.265625 14.796875 49.875 11.109375 
Q 48.484375 7.421875 45.625 4.734375 
Q 42.78125 2.046875 38.328125 0.53125 
Q 33.890625 -0.984375 27.828125 -0.984375 
Q 21.78125 -0.984375 17.359375 0.53125 
Q 12.9375 2.046875 10.03125 4.703125 
Q 7.125 7.375 5.734375 11.0625 
Q 4.34375 14.75 4.34375 19.09375 
Q 4.34375 22.859375 5.484375 25.78125 
Q 6.640625 28.71875 8.5625 30.828125 
Q 10.5 32.953125 12.96875 34.25 
Q 15.4375 35.546875 18.0625 35.984375 
L 18.0625 36.1875 
Q 15.1875 36.859375 12.90625 38.375 
Q 10.640625 39.890625 9.09375 42.015625 
Q 7.5625 44.140625 6.75 46.71875 
Q 5.953125 49.3125 5.953125 52.203125 
Q 5.953125 55.8125 7.34375 59 
Q 8.734375 62.203125 11.46875 64.625 
Q 14.203125 67.046875 18.25 68.4375 
Q 22.3125 69.828125 27.640625 69.828125 
Q 33.25 69.828125 37.375 68.40625 
Q 41.5 67 44.203125 64.578125 
Q 46.921875 62.15625 48.234375 58.9375 
Q 49.5625 55.71875 49.5625 52.09375 
Q 49.5625 49.265625 48.75 46.671875 
Q 47.953125 44.09375 46.40625 41.96875 
Q 44.875 39.84375 42.59375 38.34375 
Q 40.328125 36.859375 37.359375 36.28125 
L 37.359375 36.078125 
Q 40.328125 35.59375 42.859375 34.296875 
Q 45.40625 33.015625 47.265625 30.890625 
Q 49.125 28.765625 50.1875 25.828125 
Q 51.265625 22.90625 51.265625 19.1875 
M 40.4375 51.609375 
Q 40.4375 54.203125 39.765625 56.34375 
Q 39.109375 58.5 37.59375 60.03125 
Q 36.078125 61.578125 33.640625 62.421875 
Q 31.203125 63.28125 27.640625 63.28125 
Q 24.171875 63.28125 21.78125 62.421875 
Q 19.390625 61.578125 17.84375 60.03125 
Q 16.3125 58.5 15.625 56.34375 
Q 14.9375 54.203125 14.9375 51.609375 
Q 14.9375 49.5625 15.46875 47.40625 
Q 16.015625 45.265625 17.421875 43.5 
Q 18.84375 41.75 21.328125 40.625 
Q 23.828125 39.5 27.734375 39.5 
Q 31.890625 39.5 34.40625 40.625 
Q 36.921875 41.75 38.25 43.5 
Q 39.59375 45.265625 40.015625 47.40625 
Q 40.4375 49.5625 40.4375 51.609375 
M 42.140625 20.015625 
Q 42.140625 22.515625 41.453125 24.828125 
Q 40.765625 27.15625 39.109375 28.9375 
Q 37.453125 30.71875 34.640625 31.8125 
Q 31.84375 32.90625 27.640625 32.90625 
Q 23.78125 32.90625 21.0625 31.8125 
Q 18.359375 30.71875 16.671875 28.90625 
Q 14.984375 27.09375 14.203125 24.71875 
Q 13.421875 22.359375 13.421875 19.828125 
Q 13.421875 16.65625 14.203125 14.03125 
Q 14.984375 11.421875 16.6875 9.546875 
Q 18.40625 7.671875 21.1875 6.640625 
Q 23.96875 5.609375 27.9375 5.609375 
Q 31.9375 5.609375 34.671875 6.640625 
Q 37.40625 7.671875 39.0625 9.546875 
Q 40.71875 11.421875 41.421875 14.078125 
Q 42.140625 16.75 42.140625 20.015625 
" id="LiberationSans-38"/>
      </defs>
      <g style="fill:#262626;" transform="translate(638.085228 331.7975)scale(0.08 -0.08)">
       <use xlink:href="#LiberationSans-38"/>
       <use x="55.615234" xlink:href="#LiberationSans-30"/>
       <use x="111.230469" xlink:href="#LiberationSans-30"/>
      </g>
     </g>
    </g>
    <g id="xtick_6">
     <g id="line2d_11">
      <path clip-path="url(#pe7632b86c7)" d="M 759.802487 320.4 
L 759.802487 43.2 
" style="fill:none;stroke:#ffffff;stroke-linecap:round;stroke-width:0.8;"/>
     </g>
     <g id="line2d_12"/>
     <g id="text_6">
      <!-- 1000 -->
      <defs>
       <path d="M 7.625 0 
L 7.625 7.46875 
L 25.140625 7.46875 
L 25.140625 60.40625 
L 9.625 49.3125 
L 9.625 57.625 
L 25.875 68.796875 
L 33.984375 68.796875 
L 33.984375 7.46875 
L 50.734375 7.46875 
L 50.734375 0 
z
" id="LiberationSans-31"/>
      </defs>
      <g style="fill:#262626;" transform="translate(750.904987 331.7975)scale(0.08 -0.08)">
       <use xlink:href="#LiberationSans-31"/>
       <use x="55.615234" xlink:href="#LiberationSans-30"/>
       <use x="111.230469" xlink:href="#LiberationSans-30"/>
       <use x="166.845703" xlink:href="#LiberationSans-30"/>
      </g>
     </g>
    </g>
    <g id="xtick_7">
     <g id="line2d_13">
      <path clip-path="url(#pe7632b86c7)" d="M 874.846621 320.4 
L 874.846621 43.2 
" style="fill:none;stroke:#ffffff;stroke-linecap:round;stroke-width:0.8;"/>
     </g>
     <g id="line2d_14"/>
     <g id="text_7">
      <!-- 1200 -->
      <g style="fill:#262626;" transform="translate(865.949121 331.7975)scale(0.08 -0.08)">
       <use xlink:href="#LiberationSans-31"/>
       <use x="55.615234" xlink:href="#LiberationSans-32"/>
       <use x="111.230469" xlink:href="#LiberationSans-30"/>
       <use x="166.845703" xlink:href="#LiberationSans-30"/>
      </g>
     </g>
    </g>
    <g id="xtick_8">
     <g id="line2d_15">
      <path clip-path="url(#pe7632b86c7)" d="M 989.890754 320.4 
L 989.890754 43.2 
" style="fill:none;stroke:#ffffff;stroke-linecap:round;stroke-width:0.8;"/>
     </g>
     <g id="line2d_16"/>
     <g id="text_8">
      <!-- 1400 -->
      <g style="fill:#262626;" transform="translate(980.993254 331.7975)scale(0.08 -0.08)">
       <use xlink:href="#LiberationSans-31"/>
       <use x="55.615234" xlink:href="#LiberationSans-34"/>
       <use x="111.230469" xlink:href="#LiberationSans-30"/>
       <use x="166.845703" xlink:href="#LiberationSans-30"/>
      </g>
     </g>
    </g>
   </g>
   <g id="matplotlib.axis_2">
    <g id="ytick_1">
     <g id="line2d_17">
      <path clip-path="url(#pe7632b86c7)" d="M 144 307.8 
L 1036.8 307.8 
" style="fill:none;stroke:#ffffff;stroke-linecap:round;stroke-width:0.8;"/>
     </g>
     <g id="line2d_18"/>
     <g id="text_9">
      <!-- −1.00 -->
      <defs>
       <path d="M 4.9375 29.6875 
L 4.9375 36.8125 
L 53.515625 36.8125 
L 53.515625 29.6875 
z
" id="LiberationSans-2212"/>
       <path d="M 9.125 0 
L 9.125 10.6875 
L 18.65625 10.6875 
L 18.65625 0 
z
" id="LiberationSans-2e"/>
      </defs>
      <g style="fill:#262626;" transform="translate(118.15875 310.69875)scale(0.08 -0.08)">
       <use xlink:href="#LiberationSans-2212"/>
       <use x="58.398438" xlink:href="#LiberationSans-31"/>
       <use x="114.013672" xlink:href="#LiberationSans-2e"/>
       <use x="141.796875" xlink:href="#LiberationSans-30"/>
       <use x="197.412109" xlink:href="#LiberationSans-30"/>
      </g>
     </g>
    </g>
    <g id="ytick_2">
     <g id="line2d_19">
      <path clip-path="url(#pe7632b86c7)" d="M 144 276.3 
L 1036.8 276.3 
" style="fill:none;stroke:#ffffff;stroke-linecap:round;stroke-width:0.8;"/>
     </g>
     <g id="line2d_20"/>
     <g id="text_10">
      <!-- −0.75 -->
      <defs>
       <path d="M 50.59375 61.671875 
Q 45.40625 53.765625 41.0625 46.453125 
Q 36.71875 39.15625 33.59375 31.75 
Q 30.46875 24.359375 28.734375 16.578125 
Q 27 8.796875 27 0 
L 17.828125 0 
Q 17.828125 8.25 19.78125 16.1875 
Q 21.734375 24.125 25.046875 31.765625 
Q 28.375 39.40625 32.765625 46.78125 
Q 37.15625 54.15625 42.09375 61.328125 
L 5.125 61.328125 
L 5.125 68.796875 
L 50.59375 68.796875 
z
" id="LiberationSans-37"/>
       <path d="M 51.421875 22.40625 
Q 51.421875 17.234375 49.859375 12.9375 
Q 48.296875 8.640625 45.21875 5.53125 
Q 42.140625 2.4375 37.578125 0.71875 
Q 33.015625 -0.984375 27 -0.984375 
Q 21.578125 -0.984375 17.546875 0.28125 
Q 13.53125 1.5625 10.734375 3.78125 
Q 7.953125 6 6.3125 8.984375 
Q 4.6875 11.96875 4 15.375 
L 12.890625 16.40625 
Q 13.421875 14.453125 14.390625 12.625 
Q 15.375 10.796875 17.0625 9.34375 
Q 18.75 7.90625 21.21875 7.046875 
Q 23.6875 6.203125 27.203125 6.203125 
Q 30.609375 6.203125 33.390625 7.25 
Q 36.1875 8.296875 38.15625 10.34375 
Q 40.140625 12.40625 41.203125 15.375 
Q 42.28125 18.359375 42.28125 22.21875 
Q 42.28125 25.390625 41.25 28.046875 
Q 40.234375 30.71875 38.328125 32.640625 
Q 36.421875 34.578125 33.65625 35.640625 
Q 30.90625 36.71875 27.390625 36.71875 
Q 25.203125 36.71875 23.34375 36.328125 
Q 21.484375 35.9375 19.890625 35.25 
Q 18.3125 34.578125 17.015625 33.671875 
Q 15.71875 32.765625 14.59375 31.78125 
L 6 31.78125 
L 8.296875 68.796875 
L 47.40625 68.796875 
L 47.40625 61.328125 
L 16.3125 61.328125 
L 14.984375 39.5 
Q 17.328125 41.3125 20.84375 42.59375 
Q 24.359375 43.890625 29.203125 43.890625 
Q 34.328125 43.890625 38.421875 42.328125 
Q 42.53125 40.765625 45.40625 37.90625 
Q 48.296875 35.0625 49.859375 31.109375 
Q 51.421875 27.15625 51.421875 22.40625 
" id="LiberationSans-35"/>
      </defs>
      <g style="fill:#262626;" transform="translate(118.15875 279.19875)scale(0.08 -0.08)">
       <use xlink:href="#LiberationSans-2212"/>
       <use x="58.398438" xlink:href="#LiberationSans-30"/>
       <use x="114.013672" xlink:href="#LiberationSans-2e"/>
       <use x="141.796875" xlink:href="#LiberationSans-37"/>
       <use x="197.412109" xlink:href="#LiberationSans-35"/>
      </g>
     </g>
    </g>
    <g id="ytick_3">
     <g id="line2d_21">
      <path clip-path="url(#pe7632b86c7)" d="M 144 244.8 
L 1036.8 244.8 
" style="fill:none;stroke:#ffffff;stroke-linecap:round;stroke-width:0.8;"/>
     </g>
     <g id="line2d_22"/>
     <g id="text_11">
      <!-- −0.50 -->
      <g style="fill:#262626;" transform="translate(118.15875 247.69875)scale(0.08 -0.08)">
       <use xlink:href="#LiberationSans-2212"/>
       <use x="58.398438" xlink:href="#LiberationSans-30"/>
       <use x="114.013672" xlink:href="#LiberationSans-2e"/>
       <use x="141.796875" xlink:href="#LiberationSans-35"/>
       <use x="197.412109" xlink:href="#LiberationSans-30"/>
      </g>
     </g>
    </g>
    <g id="ytick_4">
     <g id="line2d_23">
      <path clip-path="url(#pe7632b86c7)" d="M 144 213.3 
L 1036.8 213.3 
" style="fill:none;stroke:#ffffff;stroke-linecap:round;stroke-width:0.8;"/>
     </g>
     <g id="line2d_24"/>
     <g id="text_12">
      <!-- −0.25 -->
      <g style="fill:#262626;" transform="translate(118.15875 216.19875)scale(0.08 -0.08)">
       <use xlink:href="#LiberationSans-2212"/>
       <use x="58.398438" xlink:href="#LiberationSans-30"/>
       <use x="114.013672" xlink:href="#LiberationSans-2e"/>
       <use x="141.796875" xlink:href="#LiberationSans-32"/>
       <use x="197.412109" xlink:href="#LiberationSans-35"/>
      </g>
     </g>
    </g>
    <g id="ytick_5">
     <g id="line2d_25">
      <path clip-path="url(#pe7632b86c7)" d="M 144 181.8 
L 1036.8 181.8 
" style="fill:none;stroke:#ffffff;stroke-linecap:round;stroke-width:0.8;"/>
     </g>
     <g id="line2d_26"/>
     <g id="text_13">
      <!-- 0.00 -->
      <g style="fill:#262626;" transform="translate(122.83125 184.69875)scale(0.08 -0.08)">
       <use xlink:href="#LiberationSans-30"/>
       <use x="55.615234" xlink:href="#LiberationSans-2e"/>
       <use x="83.398438" xlink:href="#LiberationSans-30"/>
       <use x="139.013672" xlink:href="#LiberationSans-30"/>
      </g>
     </g>
    </g>
    <g id="ytick_6">
     <g id="line2d_27">
      <path clip-path="url(#pe7632b86c7)" d="M 144 150.3 
L 1036.8 150.3 
" style="fill:none;stroke:#ffffff;stroke-linecap:round;stroke-width:0.8;"/>
     </g>
     <g id="line2d_28"/>
     <g id="text_14">
      <!-- 0.25 -->
      <g style="fill:#262626;" transform="translate(122.83125 153.19875)scale(0.08 -0.08)">
       <use xlink:href="#LiberationSans-30"/>
       <use x="55.615234" xlink:href="#LiberationSans-2e"/>
       <use x="83.398438" xlink:href="#LiberationSans-32"/>
       <use x="139.013672" xlink:href="#LiberationSans-35"/>
      </g>
     </g>
    </g>
    <g id="ytick_7">
     <g id="line2d_29">
      <path clip-path="url(#pe7632b86c7)" d="M 144 118.8 
L 1036.8 118.8 
" style="fill:none;stroke:#ffffff;stroke-linecap:round;stroke-width:0.8;"/>
     </g>
     <g id="line2d_30"/>
     <g id="text_15">
      <!-- 0.50 -->
      <g style="fill:#262626;" transform="translate(122.83125 121.69875)scale(0.08 -0.08)">
       <use xlink:href="#LiberationSans-30"/>
       <use x="55.615234" xlink:href="#LiberationSans-2e"/>
       <use x="83.398438" xlink:href="#LiberationSans-35"/>
       <use x="139.013672" xlink:href="#LiberationSans-30"/>
      </g>
     </g>
    </g>
    <g id="ytick_8">
     <g id="line2d_31">
      <path clip-path="url(#pe7632b86c7)" d="M 144 87.3 
L 1036.8 87.3 
" style="fill:none;stroke:#ffffff;stroke-linecap:round;stroke-width:0.8;"/>
     </g>
     <g id="line2d_32"/>
     <g id="text_16">
      <!-- 0.75 -->
      <g style="fill:#262626;" transform="translate(122.83125 90.19875)scale(0.08 -0.08)">
       <use xlink:href="#LiberationSans-30"/>
       <use x="55.615234" xlink:href="#LiberationSans-2e"/>
       <use x="83.398438" xlink:href="#LiberationSans-37"/>
       <use x="139.013672" xlink:href="#LiberationSans-35"/>
      </g>
     </g>
    </g>
    <g id="ytick_9">
     <g id="line2d_33">
      <path clip-path="url(#pe7632b86c7)" d="M 144 55.8 
L 1036.8 55.8 
" style="fill:none;stroke:#ffffff;stroke-linecap:round;stroke-width:0.8;"/>
     </g>
     <g id="line2d_34"/>
     <g id="text_17">
      <!-- 1.00 -->
      <g style="fill:#262626;" transform="translate(122.83125 58.69875)scale(0.08 -0.08)">
       <use xlink:href="#LiberationSans-31"/>
       <use x="55.615234" xlink:href="#LiberationSans-2e"/>
       <use x="83.398438" xlink:href="#LiberationSans-30"/>
       <use x="139.013672" xlink:href="#LiberationSans-30"/>
      </g>
     </g>
    </g>
   </g>
   <g id="line2d_35">
    <path clip-path="url(#pe7632b86c7)" d="M 184.581818 204.558613 
L 187.457922 204.559136 
L 188.033142 201.419065 
L 188.608363 189.171318 
L 190.334025 129.821003 
L 190.909246 132.315171 
L 191.484466 159.057804 
L 193.210128 292.030556 
L 193.785349 307.8 
L 194.36057 299.204828 
L 194.93579 271.048683 
L 196.086232 194.904785 
L 196.661452 166.082434 
L 197.236673 151.285949 
L 197.811894 151.656976 
L 198.387114 164.884355 
L 200.112776 228.92836 
L 200.687997 241.279189 
L 201.263218 245.29633 
L 201.838438 242.396865 
L 202.413659 235.51178 
L 203.5641 217.710187 
L 204.139321 204.825321 
L 205.864983 155.670136 
L 206.440204 149.400856 
L 207.015424 153.333982 
L 207.590645 166.596084 
L 209.316307 222.175104 
L 209.891528 232.200328 
L 210.466748 234.815449 
L 211.041969 230.795353 
L 211.61719 222.218117 
L 212.767631 202.452747 
L 213.342852 196.085051 
L 213.918072 193.772046 
L 214.493293 195.372836 
L 215.068514 199.783249 
L 216.218955 210.423991 
L 216.794176 213.728999 
L 217.369396 214.697034 
L 217.944617 213.450442 
L 218.519838 210.64435 
L 219.670279 204.196617 
L 220.2455 202.22961 
L 220.82072 201.675356 
L 221.395941 202.466406 
L 222.546382 206.2783 
L 223.121603 208.128873 
L 223.696824 209.301841 
L 224.272044 209.601946 
L 224.847265 209.085382 
L 227.148148 204.972254 
L 227.723368 204.827131 
L 228.298589 205.146391 
L 230.599472 207.551216 
L 231.174692 207.687565 
L 231.749913 207.549636 
L 234.050796 206.307116 
L 234.626016 206.339039 
L 235.201237 206.591436 
L 236.926899 207.851144 
L 238.07734 208.251434 
L 239.803002 208.533997 
L 240.378223 208.886653 
L 240.953444 209.51157 
L 241.528664 210.472339 
L 242.103885 211.835041 
L 242.679106 213.653809 
L 243.254326 215.949207 
L 243.829547 218.764616 
L 244.404768 222.24344 
L 244.979988 226.725062 
L 245.555209 232.706098 
L 246.13043 240.758685 
L 247.280871 259.035471 
L 247.856092 256.828603 
L 248.431312 233.70594 
L 249.006533 188.571848 
L 250.156974 84.605031 
L 250.732195 59.54474 
L 251.307416 65.454896 
L 251.882636 99.874164 
L 253.608298 253.079348 
L 254.183519 280.160173 
L 254.75874 285.978803 
L 255.33396 272.821319 
L 256.484402 216.239461 
L 257.059622 189.044948 
L 257.634843 171.28805 
L 258.210064 165.782535 
L 258.785284 171.875618 
L 259.360505 186.059991 
L 260.510946 218.470627 
L 261.086167 228.025542 
L 261.661388 230.335962 
L 262.236608 225.97045 
L 263.96227 197.793209 
L 264.537491 192.319789 
L 265.112712 191.206095 
L 265.687932 194.081303 
L 267.413594 211.487901 
L 267.988815 214.811707 
L 268.564036 215.448937 
L 269.139256 213.633821 
L 270.864918 202.892085 
L 271.440139 200.848025 
L 272.01536 200.455049 
L 272.590581 201.557108 
L 274.316243 208.160455 
L 274.891463 209.434738 
L 275.466684 209.727208 
L 276.041905 209.111855 
L 277.767567 205.398344 
L 278.342787 204.759384 
L 278.918008 204.738171 
L 279.493229 205.249863 
L 281.218891 207.86333 
L 281.794111 208.426342 
L 282.369332 208.721456 
L 284.094994 208.94953 
L 284.670215 209.313621 
L 285.245435 210.014672 
L 285.820656 211.086503 
L 286.395877 212.54545 
L 286.971097 214.3698 
L 287.546318 216.606506 
L 288.121539 219.421628 
L 288.696759 223.179954 
L 289.27198 228.502254 
L 289.847201 236.233476 
L 290.997642 258.20887 
L 291.572863 261.896972 
L 292.148083 245.367006 
L 292.723304 203.468473 
L 293.873745 90.709318 
L 294.448966 57.241832 
L 295.024187 55.8 
L 295.599407 85.995559 
L 297.325069 246.676269 
L 297.90029 279.04381 
L 298.475511 289.415723 
L 299.050731 279.233017 
L 299.625952 254.209255 
L 300.776393 192.847969 
L 301.351614 171.934473 
L 301.926835 163.527195 
L 302.502055 167.69094 
L 303.077276 181.286925 
L 304.227717 216.006379 
L 304.802938 227.461533 
L 305.378159 231.440053 
L 305.953379 228.127821 
L 306.5286 219.549435 
L 307.679041 198.812341 
L 308.254262 192.176797 
L 308.829483 190.038552 
L 309.404703 192.297216 
L 309.979924 197.736201 
L 311.130365 210.558078 
L 311.705586 214.550552 
L 312.280807 215.7309 
L 312.856027 214.217326 
L 313.431248 210.809383 
L 314.581689 202.980799 
L 315.15691 200.594028 
L 315.732131 199.923163 
L 316.307351 200.870409 
L 316.882572 202.946442 
L 318.033013 207.721733 
L 318.608234 209.212122 
L 319.183455 209.681364 
L 319.758675 209.176251 
L 320.333896 207.963548 
L 321.484337 205.097804 
L 322.059558 204.205239 
L 322.634779 203.957066 
L 323.209999 204.323955 
L 323.78522 205.123522 
L 324.935661 207.058104 
L 325.510882 207.761019 
L 326.086103 208.149808 
L 326.661323 208.263509 
L 328.386985 208.049685 
L 328.962206 208.203624 
L 329.537427 208.614806 
L 330.112647 209.300979 
L 330.687868 210.261133 
L 331.263089 211.523608 
L 331.838309 213.207674 
L 332.41353 215.551667 
L 332.988751 218.941141 
L 333.563971 223.975034 
L 334.139192 231.446866 
L 334.714413 241.964151 
L 335.289633 254.527747 
L 335.864854 263.40242 
L 336.440075 257.294438 
L 337.015295 227.622503 
L 338.740957 84.656745 
L 339.316178 70.418605 
L 339.891399 85.358165 
L 340.466619 123.617392 
L 341.617061 221.184127 
L 342.192281 256.725175 
L 342.767502 274.351393 
L 343.342723 273.278536 
L 343.917943 256.849535 
L 345.643605 182.410018 
L 346.218826 170.263294 
L 346.794047 169.244326 
L 347.369267 177.770464 
L 349.094929 219.552308 
L 349.67015 225.938683 
L 350.245371 225.792037 
L 350.820591 220.180468 
L 352.546253 195.152396 
L 353.121474 191.608847 
L 353.696695 191.997522 
L 354.271915 195.633211 
L 355.997577 211.028674 
L 356.572798 213.127272 
L 357.148019 212.807343 
L 357.723239 210.508868 
L 358.873681 203.709554 
L 359.448901 201.131499 
L 360.024122 199.923492 
L 360.599343 200.190064 
L 361.174563 201.620363 
L 362.325005 205.730043 
L 362.900226 207.259407 
L 363.475446 207.967517 
L 364.050667 207.815154 
L 364.625888 206.959097 
L 365.776329 204.476256 
L 366.35155 203.57339 
L 366.92677 203.201601 
L 367.501991 203.384187 
L 368.077212 204.021832 
L 369.802874 206.525948 
L 370.378094 206.865811 
L 370.953315 206.841058 
L 372.103756 206.136128 
L 372.678977 205.777045 
L 373.254198 205.605478 
L 373.829418 205.70735 
L 374.404639 206.110292 
L 374.97986 206.815714 
L 375.55508 207.822082 
L 376.130301 209.111608 
L 376.705522 210.709895 
L 377.280742 212.658728 
L 377.855963 215.066664 
L 378.431184 218.138919 
L 379.006404 222.153762 
L 379.581625 227.425415 
L 380.732066 241.123555 
L 381.307287 244.478964 
L 381.882508 236.855191 
L 382.457728 213.180956 
L 384.18339 107.627959 
L 384.758611 97.007328 
L 385.333832 108.422547 
L 385.909052 138.082087 
L 387.059494 215.851197 
L 387.634714 245.215804 
L 388.209935 260.473609 
L 388.785156 260.60905 
L 389.360376 248.109071 
L 391.086038 188.432385 
L 391.661259 178.179578 
L 392.23648 176.782688 
L 392.8117 183.086936 
L 394.537362 216.179662 
L 395.112583 221.535535 
L 395.687804 221.705 
L 396.263024 217.462453 
L 397.988686 197.514775 
L 398.563907 194.47519 
L 399.139128 194.557974 
L 399.714348 197.291995 
L 401.44001 209.66035 
L 402.015231 211.463152 
L 402.590452 211.339696 
L 403.165672 209.625546 
L 404.891334 202.092843 
L 405.466555 200.947229 
L 406.041776 200.946683 
L 406.616996 201.911401 
L 408.342658 206.468583 
L 408.917879 207.212216 
L 409.4931 207.265337 
L 410.06832 206.743499 
L 411.793982 204.203892 
L 412.369203 203.783349 
L 412.944424 203.752033 
L 413.519644 204.057859 
L 415.245306 205.590563 
L 415.820527 205.858474 
L 416.395748 205.8984 
L 418.69663 205.41882 
L 419.271851 205.64822 
L 419.847072 206.107866 
L 420.997513 207.454442 
L 423.298396 210.374124 
L 423.873616 211.510598 
L 424.448837 213.399262 
L 425.024058 216.630106 
L 425.599278 221.860224 
L 426.74972 235.504269 
L 427.32494 234.168369 
L 427.900161 218.043987 
L 429.625823 123.038279 
L 430.201044 110.972533 
L 430.776264 119.257832 
L 431.351485 144.822538 
L 432.501926 214.495226 
L 433.077147 241.133159 
L 433.652368 255.192229 
L 434.227588 255.788169 
L 434.802809 245.05545 
L 436.528471 191.591486 
L 437.103692 181.969178 
L 437.678912 180.290489 
L 438.254133 185.633885 
L 439.979795 215.402148 
L 440.555016 220.477001 
L 441.130236 220.918744 
L 441.705457 217.339489 
L 443.431119 199.45109 
L 444.00634 196.584213 
L 444.58156 196.503441 
L 445.156781 198.810412 
L 446.882443 209.60642 
L 447.457664 211.176223 
L 448.032884 211.047636 
L 448.608105 209.5041 
L 450.333767 202.835696 
L 450.908988 201.908344 
L 451.484208 202.019545 
L 452.059429 202.986344 
L 453.785091 207.070569 
L 454.360312 207.618198 
L 454.935533 207.509377 
L 455.510753 206.866353 
L 457.236415 204.23146 
L 457.811636 203.849994 
L 458.386857 203.868402 
L 458.962077 204.231554 
L 460.687739 205.97215 
L 461.26296 206.27995 
L 461.838181 206.347601 
L 462.413401 206.211351 
L 464.714284 205.261926 
L 465.289505 205.24264 
L 465.864725 205.348247 
L 466.439946 205.574889 
L 467.015167 205.937112 
L 467.590387 206.473331 
L 468.165608 207.251288 
L 468.740829 208.389601 
L 469.316049 210.069915 
L 469.89127 212.512615 
L 470.466491 215.979989 
L 471.041711 220.702613 
L 472.192153 231.326405 
L 472.767373 231.260203 
L 473.342594 221.576619 
L 473.917815 201.883349 
L 475.068256 154.864877 
L 475.643477 141.85761 
L 476.218697 141.761159 
L 476.793918 154.193828 
L 478.51958 220.268668 
L 479.094801 234.381053 
L 479.670021 239.637931 
L 480.245242 236.319501 
L 480.820463 226.586173 
L 481.970904 201.50491 
L 482.546125 192.615708 
L 483.121345 188.728262 
L 483.696566 189.962335 
L 484.271787 195.108685 
L 485.422228 208.952116 
L 485.997449 213.771191 
L 486.572669 215.678612 
L 487.14789 214.649178 
L 487.723111 211.391861 
L 488.873552 203.009906 
L 489.448773 200.146436 
L 490.023993 199.031428 
L 490.599214 199.679862 
L 491.174435 201.664907 
L 492.324876 206.718246 
L 492.900097 208.406178 
L 493.475317 209.017702 
L 494.050538 208.567041 
L 494.625759 207.336198 
L 495.7762 204.266583 
L 496.351421 203.251882 
L 496.926641 202.884956 
L 497.501862 203.140324 
L 498.077083 203.84433 
L 499.227524 205.550912 
L 499.802745 206.083528 
L 500.377965 206.24192 
L 500.953186 206.044238 
L 503.254069 204.294324 
L 503.829289 204.245583 
L 504.40451 204.409567 
L 506.130172 205.298109 
L 506.705393 205.406302 
L 507.280613 205.344565 
L 508.431055 204.873942 
L 509.581496 204.478838 
L 510.156717 204.524296 
L 510.731937 204.80505 
L 511.307158 205.33602 
L 511.882379 206.096321 
L 513.03282 208.169731 
L 514.183261 210.826867 
L 515.908923 215.42152 
L 516.484144 215.732049 
L 517.059365 212.887089 
L 517.634585 205.20289 
L 519.360247 168.08454 
L 519.935468 163.079583 
L 520.510689 166.21451 
L 521.085909 176.792251 
L 522.811571 220.460256 
L 523.386792 227.89162 
L 523.962013 229.211144 
L 524.537233 225.158953 
L 526.838116 196.252998 
L 527.413337 194.803573 
L 527.988557 196.595048 
L 528.563778 200.610872 
L 529.714219 209.651854 
L 530.28944 212.265497 
L 530.864661 212.827783 
L 531.439881 211.502225 
L 533.165543 203.32768 
L 533.740764 201.747764 
L 534.315985 201.418736 
L 534.891205 202.239472 
L 536.616867 207.232741 
L 537.192088 208.166944 
L 537.767309 208.31753 
L 538.342529 207.759365 
L 540.068191 204.572137 
L 540.643412 203.95684 
L 541.218633 203.809337 
L 541.793853 204.083745 
L 544.094736 206.171162 
L 544.669957 206.242068 
L 545.245178 206.071904 
L 547.54606 204.801632 
L 548.121281 204.724398 
L 549.271722 204.892196 
L 550.422164 205.136138 
L 551.572605 205.152235 
L 553.298267 204.999195 
L 554.448708 205.162007 
L 556.17437 205.651758 
L 556.749591 205.692538 
L 557.324812 205.601403 
L 558.475253 205.077217 
L 559.050474 204.784176 
L 559.625694 204.72577 
L 560.200915 205.262574 
L 560.776136 206.871852 
L 561.926577 213.384979 
L 562.501798 214.441583 
L 563.077018 209.895114 
L 563.652239 199.524474 
L 564.22746 186.673498 
L 564.80268 176.330849 
L 565.377901 172.365955 
L 565.953122 176.065549 
L 566.528342 186.0572 
L 567.678784 211.797487 
L 568.254004 221.060588 
L 568.829225 225.501619 
L 569.404446 225.011568 
L 569.979666 220.539017 
L 571.705328 200.659474 
L 572.280549 197.371946 
L 572.85577 197.033056 
L 573.43099 199.23344 
L 575.156652 210.171455 
L 575.731873 211.81612 
L 576.307094 211.735923 
L 576.882314 210.226083 
L 578.607976 203.630694 
L 579.183197 202.704729 
L 579.758418 202.805678 
L 580.333638 203.746661 
L 581.48408 206.577662 
L 582.0593 207.644186 
L 582.634521 208.118086 
L 583.209742 207.954232 
L 583.784962 207.278615 
L 584.935404 205.3949 
L 585.510624 204.697558 
L 586.085845 204.381561 
L 586.661066 204.467057 
L 587.236286 204.870921 
L 588.386728 206.008173 
L 588.961948 206.41668 
L 589.537169 206.574625 
L 590.11239 206.465151 
L 591.262831 205.715354 
L 592.413272 204.961658 
L 592.988493 204.790948 
L 593.563714 204.793917 
L 594.714155 205.182927 
L 595.864596 205.679552 
L 597.015038 205.858872 
L 598.165479 205.648446 
L 599.891141 204.937194 
L 601.616803 204.2548 
L 602.192024 204.163869 
L 602.767244 204.235976 
L 603.342465 204.564266 
L 603.917686 205.265164 
L 604.492906 206.45439 
L 605.068127 208.201272 
L 606.218568 212.65253 
L 606.793789 213.619169 
L 607.36901 212.168965 
L 607.94423 208.493086 
L 609.094672 200.305107 
L 609.669892 198.325246 
L 610.245113 198.236512 
L 610.820334 199.671695 
L 612.545996 206.74299 
L 613.121216 208.266723 
L 613.696437 208.927573 
L 614.271658 208.698513 
L 614.846878 207.743116 
L 615.99732 205.038506 
L 616.57254 204.026847 
L 617.147761 203.550993 
L 617.722982 203.636892 
L 618.298202 204.155143 
L 619.448644 205.598973 
L 620.023864 206.115233 
L 620.599085 206.336507 
L 621.174306 206.255288 
L 622.324747 205.498948 
L 623.475188 204.729745 
L 624.050409 204.563385 
L 624.62563 204.56808 
L 628.076954 205.246707 
L 631.528278 204.955848 
L 633.82916 204.974696 
L 636.705264 204.740112 
L 638.430926 204.894657 
L 640.156588 205.077238 
L 641.307029 204.943258 
L 644.758353 204.069109 
L 645.333574 204.140897 
L 646.484015 204.6353 
L 648.209677 205.762693 
L 648.784898 205.888107 
L 649.360119 205.633736 
L 649.935339 204.744854 
L 650.51056 203.050489 
L 651.085781 200.89783 
L 651.661001 199.574095 
L 652.236222 200.674439 
L 652.811443 204.369802 
L 653.386663 209.101224 
L 653.961884 212.78596 
L 654.537105 214.099533 
L 655.112325 212.857662 
L 655.687546 209.808966 
L 656.837987 202.952389 
L 657.413208 200.970246 
L 657.988429 200.361787 
L 658.563649 200.953923 
L 659.13887 202.397093 
L 660.289311 206.006384 
L 660.864532 207.263474 
L 661.439753 207.764327 
L 662.014973 207.487415 
L 662.590194 206.61875 
L 663.740635 204.415038 
L 664.315856 203.702199 
L 664.891077 203.466429 
L 665.466297 203.686619 
L 667.76718 205.761018 
L 668.342401 205.832781 
L 668.917621 205.655341 
L 671.218504 204.41371 
L 671.793725 204.389562 
L 672.944166 204.745449 
L 674.094607 205.192584 
L 674.669828 205.294419 
L 675.820269 205.174603 
L 678.121152 204.516846 
L 679.271593 204.583589 
L 682.147697 205.204778 
L 683.298138 205.016695 
L 685.599021 204.368667 
L 686.749462 204.305985 
L 687.899903 204.546984 
L 690.200786 205.322936 
L 690.776007 205.334736 
L 691.351227 205.140226 
L 691.926448 204.656954 
L 692.501669 203.776991 
L 693.076889 202.407641 
L 693.65211 200.459551 
L 694.802551 195.920223 
L 695.377772 195.536268 
L 695.952993 198.142934 
L 697.678655 214.396313 
L 698.253875 216.917077 
L 698.829096 216.806056 
L 699.404317 214.524982 
L 701.129979 203.748709 
L 701.705199 201.41682 
L 702.28042 200.38395 
L 702.855641 200.669046 
L 703.430861 202.001301 
L 704.581303 205.742097 
L 705.156523 207.12145 
L 705.731744 207.748205 
L 706.306965 207.59418 
L 706.882185 206.833925 
L 708.032627 204.754467 
L 708.607847 204.015778 
L 709.183068 203.702716 
L 709.758289 203.819175 
L 710.333509 204.253743 
L 711.483951 205.404004 
L 712.059171 205.813335 
L 712.634392 205.988912 
L 713.209613 205.927701 
L 714.360054 205.340379 
L 715.510495 204.74581 
L 716.085716 204.645475 
L 717.236157 204.857569 
L 718.386599 205.216795 
L 719.53704 205.33783 
L 721.262702 205.101794 
L 722.413143 205.024256 
L 725.864467 205.261614 
L 729.315792 204.832767 
L 730.466233 205.091319 
L 732.191895 205.620943 
L 733.342336 205.652612 
L 733.917557 205.487579 
L 734.492778 205.189387 
L 735.643219 204.223028 
L 737.368881 202.348478 
L 737.944102 201.955608 
L 738.519322 201.941416 
L 739.094543 202.482761 
L 739.669764 203.59795 
L 740.820205 206.792254 
L 741.395426 208.945344 
L 743.121088 217.458554 
L 743.696308 218.334283 
L 744.271529 216.903656 
L 744.84675 213.306259 
L 746.572412 199.421621 
L 747.147632 197.24652 
L 747.722853 197.036791 
L 748.298074 198.478746 
L 750.023736 206.032803 
L 750.598956 207.485601 
L 751.174177 207.846059 
L 751.749398 207.216131 
L 753.47506 203.155538 
L 754.05028 202.407674 
L 754.625501 202.307747 
L 755.200722 202.782008 
L 756.926384 205.320572 
L 757.501604 205.762438 
L 758.076825 205.802804 
L 758.652046 205.482527 
L 760.377708 203.845044 
L 760.952928 203.584271 
L 761.528149 203.582063 
L 762.10337 203.799872 
L 763.829032 204.845082 
L 764.404252 205.046887 
L 764.979473 205.108931 
L 766.129914 204.881673 
L 767.855576 204.391809 
L 769.006018 204.358607 
L 775.333445 205.104851 
L 776.483886 205.029427 
L 777.634328 204.742434 
L 778.784769 204.390208 
L 779.35999 204.300022 
L 779.93521 204.352077 
L 780.510431 204.622222 
L 781.085652 205.159167 
L 781.660872 205.974912 
L 783.386534 208.99004 
L 783.961755 208.769476 
L 785.112196 206.104919 
L 785.687417 206.763331 
L 786.262638 209.876932 
L 787.413079 217.896028 
L 787.9883 218.918937 
L 788.56352 216.661627 
L 789.138741 211.673989 
L 790.289182 199.612839 
L 790.864403 195.533231 
L 791.439624 193.782717 
L 792.014844 194.326123 
L 792.590065 196.64393 
L 794.315727 205.914009 
L 794.890948 207.330078 
L 795.466168 207.384903 
L 796.041389 206.297759 
L 797.767051 201.311697 
L 798.342272 200.645072 
L 798.917492 200.777907 
L 799.492713 201.554777 
L 800.643154 203.791725 
L 801.218375 204.621476 
L 801.793596 204.993703 
L 802.368816 204.879872 
L 802.944037 204.379031 
L 804.094478 203.027255 
L 804.669699 202.571734 
L 805.24492 202.417454 
L 805.82014 202.569784 
L 806.970582 203.446314 
L 808.121023 204.266038 
L 808.696244 204.419942 
L 809.271464 204.374134 
L 810.421906 203.882709 
L 811.572347 203.389149 
L 812.147568 203.303251 
L 812.722788 203.351599 
L 813.87323 203.749275 
L 815.598892 204.403255 
L 816.749333 204.502892 
L 818.474995 204.258453 
L 820.200657 204.070311 
L 821.351099 204.178671 
L 822.50154 204.614312 
L 823.651981 205.525084 
L 824.802423 206.943968 
L 825.952864 208.569376 
L 826.528085 209.120432 
L 827.103305 209.124988 
L 827.678526 208.168951 
L 828.253747 206.072844 
L 828.828967 203.457703 
L 829.404188 201.5502 
L 829.979409 201.134224 
L 830.554629 202.008812 
L 831.12985 203.267404 
L 831.705071 204.218002 
L 832.280291 204.536416 
L 832.855512 204.296124 
L 834.581174 202.624121 
L 835.156395 202.312397 
L 835.731615 202.162411 
L 836.306836 202.173878 
L 836.882057 202.357524 
L 839.182939 203.568843 
L 839.75816 203.633198 
L 840.908601 203.442279 
L 842.059043 203.200398 
L 843.209484 203.163496 
L 847.811249 203.502485 
L 850.112132 203.694167 
L 851.837794 203.810564 
L 855.864339 203.790864 
L 859.890883 204.372241 
L 863.917428 204.299581 
L 865.067869 204.692127 
L 866.218311 205.409947 
L 868.519193 207.043977 
L 869.669635 207.48753 
L 870.820076 207.842349 
L 871.395297 208.283078 
L 871.970517 209.16205 
L 872.545738 210.383236 
L 873.120959 210.859085 
L 873.696179 208.462993 
L 874.2714 201.835792 
L 875.421841 183.082463 
L 875.997062 177.657186 
L 876.572283 178.018855 
L 877.147503 184.078529 
L 878.873165 213.17837 
L 879.448386 218.276043 
L 880.023607 219.250767 
L 880.598827 216.613689 
L 881.749269 205.697927 
L 882.324489 200.509213 
L 882.89971 197.141902 
L 883.474931 196.131101 
L 884.050151 197.352082 
L 884.625372 200.137899 
L 885.775813 206.495535 
L 886.351034 208.365546 
L 886.926255 208.816018 
L 887.501475 207.961196 
L 889.227137 202.500369 
L 889.802358 201.471329 
L 890.377579 201.300053 
L 890.952799 201.909316 
L 892.678461 205.40645 
L 893.253682 206.056698 
L 893.828903 206.175176 
L 894.404123 205.811189 
L 896.129785 203.6728 
L 896.705006 203.281252 
L 897.280227 203.234574 
L 897.855447 203.492208 
L 900.15633 205.277317 
L 900.731551 205.385231 
L 901.306771 205.293319 
L 903.607654 204.363996 
L 904.758095 204.324574 
L 905.908537 204.62256 
L 909.359861 205.897292 
L 912.811185 206.68441 
L 913.386406 207.007121 
L 913.961626 207.593359 
L 914.536847 208.637072 
L 915.112068 210.442994 
L 915.687288 213.392654 
L 916.262509 217.814723 
L 917.41295 228.166155 
L 917.988171 227.183222 
L 918.563392 216.526637 
L 920.289054 160.093312 
L 920.864274 154.066185 
L 921.439495 159.393944 
L 922.014716 173.666354 
L 923.165157 209.999281 
L 923.740378 223.069343 
L 924.315598 229.453912 
L 924.890819 228.94453 
L 925.46604 222.802032 
L 927.191702 195.338853 
L 927.766922 190.948715 
L 928.342143 190.699052 
L 928.917364 193.977506 
L 930.643026 209.527125 
L 931.218246 211.816161 
L 931.793467 211.700626 
L 932.368688 209.619964 
L 934.09435 200.559663 
L 934.66957 199.314951 
L 935.244791 199.516758 
L 935.820012 200.88933 
L 936.970453 204.891284 
L 937.545674 206.369588 
L 938.120894 207.02298 
L 938.696115 206.808105 
L 939.271336 205.931481 
L 940.421777 203.557663 
L 940.996998 202.721663 
L 941.572218 202.400245 
L 942.147439 202.600419 
L 942.72266 203.19551 
L 943.873101 204.737675 
L 944.448322 205.287623 
L 945.023542 205.523672 
L 945.598763 205.432963 
L 946.173984 205.078284 
L 947.324425 204.108366 
L 947.899646 203.782331 
L 948.474866 203.674708 
L 949.050087 203.804166 
L 950.200528 204.572826 
L 951.35097 205.35625 
L 951.92619 205.566065 
L 952.501411 205.619055 
L 953.651852 205.359612 
L 954.802294 205.045758 
L 955.377514 205.03977 
L 955.952735 205.208012 
L 956.527956 205.597155 
L 957.103176 206.242531 
L 957.678397 207.176295 
L 958.253618 208.429548 
L 958.828838 210.06339 
L 959.404059 212.191128 
L 959.97928 214.957901 
L 960.5545 218.544504 
L 962.280162 232.549725 
L 962.855383 231.817564 
L 963.430604 221.44245 
L 964.005824 200.588528 
L 965.156266 149.716064 
L 965.731486 134.921796 
L 966.306707 133.990536 
L 966.881928 146.893965 
L 969.18281 235.480054 
L 969.758031 241.739032 
L 970.333252 238.463616 
L 970.908472 227.982735 
L 972.058914 200.344467 
L 972.634134 190.355566 
L 973.209355 185.860892 
L 973.784576 187.053964 
L 974.359796 192.6721 
L 975.510238 208.129143 
L 976.085458 213.56491 
L 976.660679 215.759015 
L 977.2359 214.665595 
L 977.81112 211.109733 
L 978.961562 201.903689 
L 979.536782 198.7674 
L 980.112003 197.571455 
L 980.687224 198.320075 
L 981.262444 200.540114 
L 982.412886 206.188425 
L 982.988106 208.075714 
L 983.563327 208.775263 
L 984.138548 208.299709 
L 984.713768 206.927966 
L 985.86421 203.505259 
L 986.43943 202.383635 
L 987.014651 201.965955 
L 987.589872 202.246667 
L 988.165092 203.055287 
L 989.315534 205.110039 
L 989.890754 205.824183 
L 990.465975 206.119613 
L 991.041196 205.990935 
L 991.616416 205.540175 
L 992.766858 204.408788 
L 993.342078 204.07277 
L 993.917299 203.998129 
L 994.49252 204.170989 
L 996.218182 205.289063 
L 996.218182 205.289063 
" style="fill:none;stroke:#4c72b0;stroke-linecap:round;stroke-width:1.4;"/>
   </g>
   <g id="patch_3">
    <path d="M 144 320.4 
L 144 43.2 
" style="fill:none;"/>
   </g>
   <g id="patch_4">
    <path d="M 1036.8 320.4 
L 1036.8 43.2 
" style="fill:none;"/>
   </g>
   <g id="patch_5">
    <path d="M 144 320.4 
L 1036.8 320.4 
" style="fill:none;"/>
   </g>
   <g id="patch_6">
    <path d="M 144 43.2 
L 1036.8 43.2 
" style="fill:none;"/>
   </g>
  </g>
 </g>
 <defs>
  <clipPath id="pe7632b86c7">
   <rect height="277.2" width="892.8" x="144" y="43.2"/>
  </clipPath>
 </defs>
</svg>
