<?xml version="1.0" encoding="utf-8" standalone="no"?>
<!DOCTYPE svg PUBLIC "-//W3C//DTD SVG 1.1//EN"
  "http://www.w3.org/Graphics/SVG/1.1/DTD/svg11.dtd">
<!-- Created with matplotlib (http://matplotlib.org/) -->
<svg height="360pt" version="1.1" viewBox="0 0 1152 360" width="1152pt" xmlns="http://www.w3.org/2000/svg" xmlns:xlink="http://www.w3.org/1999/xlink">
 <defs>
  <style type="text/css">
*{stroke-linecap:butt;stroke-linejoin:round;}
  </style>
 </defs>
 <g id="figure_1">
  <g id="patch_1">
   <path d="M 0 360 
L 1152 360 
L 1152 0 
L 0 0 
z
" style="fill:#ffffff;"/>
  </g>
  <g id="axes_1">
   <g id="patch_2">
    <path d="M 144 320.4 
L 1036.8 320.4 
L 1036.8 43.2 
L 144 43.2 
z
" style="fill:#eaeaf2;"/>
   </g>
   <g id="matplotlib.axis_1">
    <g id="xtick_1">
     <g id="line2d_1">
      <path clip-path="url(#p4398609499)" d="M 184.581818 320.4 
L 184.581818 43.2 
" style="fill:none;stroke:#ffffff;stroke-linecap:round;stroke-width:0.8;"/>
     </g>
     <g id="line2d_2"/>
     <g id="text_1">
      <!-- 0.000 -->
      <defs>
       <path d="M 51.703125 34.421875 
Q 51.703125 24.515625 49.828125 17.75 
Q 47.953125 10.984375 44.703125 6.8125 
Q 41.453125 2.640625 37.0625 0.828125 
Q 32.671875 -0.984375 27.6875 -0.984375 
Q 22.65625 -0.984375 18.3125 0.828125 
Q 13.96875 2.640625 10.765625 6.78125 
Q 7.5625 10.9375 5.734375 17.703125 
Q 3.90625 24.46875 3.90625 34.421875 
Q 3.90625 44.828125 5.734375 51.640625 
Q 7.5625 58.453125 10.78125 62.5 
Q 14.015625 66.546875 18.40625 68.1875 
Q 22.796875 69.828125 27.984375 69.828125 
Q 32.90625 69.828125 37.21875 68.1875 
Q 41.546875 66.546875 44.765625 62.5 
Q 48 58.453125 49.84375 51.640625 
Q 51.703125 44.828125 51.703125 34.421875 
M 42.78125 34.421875 
Q 42.78125 42.625 41.796875 48.0625 
Q 40.828125 53.515625 38.921875 56.765625 
Q 37.015625 60.015625 34.25 61.359375 
Q 31.5 62.703125 27.984375 62.703125 
Q 24.265625 62.703125 21.4375 61.328125 
Q 18.609375 59.96875 16.671875 56.71875 
Q 14.75 53.46875 13.765625 48.015625 
Q 12.796875 42.578125 12.796875 34.421875 
Q 12.796875 26.515625 13.796875 21.09375 
Q 14.796875 15.671875 16.71875 12.375 
Q 18.65625 9.078125 21.4375 7.640625 
Q 24.21875 6.203125 27.78125 6.203125 
Q 31.25 6.203125 34.03125 7.640625 
Q 36.8125 9.078125 38.734375 12.375 
Q 40.671875 15.671875 41.71875 21.09375 
Q 42.78125 26.515625 42.78125 34.421875 
" id="LiberationSans-30"/>
       <path d="M 9.125 0 
L 9.125 10.6875 
L 18.65625 10.6875 
L 18.65625 0 
z
" id="LiberationSans-2e"/>
      </defs>
      <g style="fill:#262626;" transform="translate(174.573068 331.7975)scale(0.08 -0.08)">
       <use xlink:href="#LiberationSans-30"/>
       <use x="55.615234" xlink:href="#LiberationSans-2e"/>
       <use x="83.398438" xlink:href="#LiberationSans-30"/>
       <use x="139.013672" xlink:href="#LiberationSans-30"/>
       <use x="194.628906" xlink:href="#LiberationSans-30"/>
      </g>
     </g>
    </g>
    <g id="xtick_2">
     <g id="line2d_3">
      <path clip-path="url(#p4398609499)" d="M 311.238448 320.4 
L 311.238448 43.2 
" style="fill:none;stroke:#ffffff;stroke-linecap:round;stroke-width:0.8;"/>
     </g>
     <g id="line2d_4"/>
     <g id="text_2">
      <!-- 0.005 -->
      <defs>
       <path d="M 51.421875 22.40625 
Q 51.421875 17.234375 49.859375 12.9375 
Q 48.296875 8.640625 45.21875 5.53125 
Q 42.140625 2.4375 37.578125 0.71875 
Q 33.015625 -0.984375 27 -0.984375 
Q 21.578125 -0.984375 17.546875 0.28125 
Q 13.53125 1.5625 10.734375 3.78125 
Q 7.953125 6 6.3125 8.984375 
Q 4.6875 11.96875 4 15.375 
L 12.890625 16.40625 
Q 13.421875 14.453125 14.390625 12.625 
Q 15.375 10.796875 17.0625 9.34375 
Q 18.75 7.90625 21.21875 7.046875 
Q 23.6875 6.203125 27.203125 6.203125 
Q 30.609375 6.203125 33.390625 7.25 
Q 36.1875 8.296875 38.15625 10.34375 
Q 40.140625 12.40625 41.203125 15.375 
Q 42.28125 18.359375 42.28125 22.21875 
Q 42.28125 25.390625 41.25 28.046875 
Q 40.234375 30.71875 38.328125 32.640625 
Q 36.421875 34.578125 33.65625 35.640625 
Q 30.90625 36.71875 27.390625 36.71875 
Q 25.203125 36.71875 23.34375 36.328125 
Q 21.484375 35.9375 19.890625 35.25 
Q 18.3125 34.578125 17.015625 33.671875 
Q 15.71875 32.765625 14.59375 31.78125 
L 6 31.78125 
L 8.296875 68.796875 
L 47.40625 68.796875 
L 47.40625 61.328125 
L 16.3125 61.328125 
L 14.984375 39.5 
Q 17.328125 41.3125 20.84375 42.59375 
Q 24.359375 43.890625 29.203125 43.890625 
Q 34.328125 43.890625 38.421875 42.328125 
Q 42.53125 40.765625 45.40625 37.90625 
Q 48.296875 35.0625 49.859375 31.109375 
Q 51.421875 27.15625 51.421875 22.40625 
" id="LiberationSans-35"/>
      </defs>
      <g style="fill:#262626;" transform="translate(301.229698 331.7975)scale(0.08 -0.08)">
       <use xlink:href="#LiberationSans-30"/>
       <use x="55.615234" xlink:href="#LiberationSans-2e"/>
       <use x="83.398438" xlink:href="#LiberationSans-30"/>
       <use x="139.013672" xlink:href="#LiberationSans-30"/>
       <use x="194.628906" xlink:href="#LiberationSans-35"/>
      </g>
     </g>
    </g>
    <g id="xtick_3">
     <g id="line2d_5">
      <path clip-path="url(#p4398609499)" d="M 437.895078 320.4 
L 437.895078 43.2 
" style="fill:none;stroke:#ffffff;stroke-linecap:round;stroke-width:0.8;"/>
     </g>
     <g id="line2d_6"/>
     <g id="text_3">
      <!-- 0.010 -->
      <defs>
       <path d="M 7.625 0 
L 7.625 7.46875 
L 25.140625 7.46875 
L 25.140625 60.40625 
L 9.625 49.3125 
L 9.625 57.625 
L 25.875 68.796875 
L 33.984375 68.796875 
L 33.984375 7.46875 
L 50.734375 7.46875 
L 50.734375 0 
z
" id="LiberationSans-31"/>
      </defs>
      <g style="fill:#262626;" transform="translate(427.886328 331.7975)scale(0.08 -0.08)">
       <use xlink:href="#LiberationSans-30"/>
       <use x="55.615234" xlink:href="#LiberationSans-2e"/>
       <use x="83.398438" xlink:href="#LiberationSans-30"/>
       <use x="139.013672" xlink:href="#LiberationSans-31"/>
       <use x="194.628906" xlink:href="#LiberationSans-30"/>
      </g>
     </g>
    </g>
    <g id="xtick_4">
     <g id="line2d_7">
      <path clip-path="url(#p4398609499)" d="M 564.551708 320.4 
L 564.551708 43.2 
" style="fill:none;stroke:#ffffff;stroke-linecap:round;stroke-width:0.8;"/>
     </g>
     <g id="line2d_8"/>
     <g id="text_4">
      <!-- 0.015 -->
      <g style="fill:#262626;" transform="translate(554.542958 331.7975)scale(0.08 -0.08)">
       <use xlink:href="#LiberationSans-30"/>
       <use x="55.615234" xlink:href="#LiberationSans-2e"/>
       <use x="83.398438" xlink:href="#LiberationSans-30"/>
       <use x="139.013672" xlink:href="#LiberationSans-31"/>
       <use x="194.628906" xlink:href="#LiberationSans-35"/>
      </g>
     </g>
    </g>
    <g id="xtick_5">
     <g id="line2d_9">
      <path clip-path="url(#p4398609499)" d="M 691.208338 320.4 
L 691.208338 43.2 
" style="fill:none;stroke:#ffffff;stroke-linecap:round;stroke-width:0.8;"/>
     </g>
     <g id="line2d_10"/>
     <g id="text_5">
      <!-- 0.020 -->
      <defs>
       <path d="M 5.03125 0 
L 5.03125 6.203125 
Q 7.515625 11.921875 11.109375 16.28125 
Q 14.703125 20.65625 18.65625 24.1875 
Q 22.609375 27.734375 26.484375 30.765625 
Q 30.375 33.796875 33.5 36.8125 
Q 36.625 39.84375 38.546875 43.15625 
Q 40.484375 46.484375 40.484375 50.6875 
Q 40.484375 53.609375 39.59375 55.828125 
Q 38.71875 58.0625 37.0625 59.5625 
Q 35.40625 61.078125 33.078125 61.828125 
Q 30.765625 62.59375 27.9375 62.59375 
Q 25.296875 62.59375 22.96875 61.859375 
Q 20.65625 61.140625 18.84375 59.671875 
Q 17.046875 58.203125 15.890625 56.03125 
Q 14.75 53.859375 14.40625 50.984375 
L 5.421875 51.8125 
Q 5.859375 55.515625 7.46875 58.78125 
Q 9.078125 62.0625 11.90625 64.53125 
Q 14.75 67 18.71875 68.40625 
Q 22.703125 69.828125 27.9375 69.828125 
Q 33.0625 69.828125 37.0625 68.609375 
Q 41.0625 67.390625 43.8125 64.984375 
Q 46.578125 62.59375 48.046875 59.078125 
Q 49.515625 55.5625 49.515625 50.984375 
Q 49.515625 47.515625 48.265625 44.390625 
Q 47.015625 41.265625 44.9375 38.421875 
Q 42.875 35.59375 40.140625 32.953125 
Q 37.40625 30.328125 34.421875 27.8125 
Q 31.453125 25.296875 28.421875 22.828125 
Q 25.390625 20.359375 22.71875 17.859375 
Q 20.0625 15.375 17.96875 12.8125 
Q 15.875 10.25 14.703125 7.46875 
L 50.59375 7.46875 
L 50.59375 0 
z
" id="LiberationSans-32"/>
      </defs>
      <g style="fill:#262626;" transform="translate(681.199588 331.7975)scale(0.08 -0.08)">
       <use xlink:href="#LiberationSans-30"/>
       <use x="55.615234" xlink:href="#LiberationSans-2e"/>
       <use x="83.398438" xlink:href="#LiberationSans-30"/>
       <use x="139.013672" xlink:href="#LiberationSans-32"/>
       <use x="194.628906" xlink:href="#LiberationSans-30"/>
      </g>
     </g>
    </g>
    <g id="xtick_6">
     <g id="line2d_11">
      <path clip-path="url(#p4398609499)" d="M 817.864968 320.4 
L 817.864968 43.2 
" style="fill:none;stroke:#ffffff;stroke-linecap:round;stroke-width:0.8;"/>
     </g>
     <g id="line2d_12"/>
     <g id="text_6">
      <!-- 0.025 -->
      <g style="fill:#262626;" transform="translate(807.856218 331.7975)scale(0.08 -0.08)">
       <use xlink:href="#LiberationSans-30"/>
       <use x="55.615234" xlink:href="#LiberationSans-2e"/>
       <use x="83.398438" xlink:href="#LiberationSans-30"/>
       <use x="139.013672" xlink:href="#LiberationSans-32"/>
       <use x="194.628906" xlink:href="#LiberationSans-35"/>
      </g>
     </g>
    </g>
    <g id="xtick_7">
     <g id="line2d_13">
      <path clip-path="url(#p4398609499)" d="M 944.521598 320.4 
L 944.521598 43.2 
" style="fill:none;stroke:#ffffff;stroke-linecap:round;stroke-width:0.8;"/>
     </g>
     <g id="line2d_14"/>
     <g id="text_7">
      <!-- 0.030 -->
      <defs>
       <path d="M 51.21875 19 
Q 51.21875 14.265625 49.671875 10.546875 
Q 48.140625 6.84375 45.1875 4.265625 
Q 42.234375 1.703125 37.859375 0.359375 
Q 33.5 -0.984375 27.875 -0.984375 
Q 21.484375 -0.984375 17.109375 0.609375 
Q 12.75 2.203125 9.90625 4.8125 
Q 7.078125 7.421875 5.65625 10.765625 
Q 4.25 14.109375 3.8125 17.671875 
L 12.890625 18.5 
Q 13.28125 15.765625 14.328125 13.515625 
Q 15.375 11.28125 17.1875 9.671875 
Q 19 8.0625 21.625 7.171875 
Q 24.265625 6.296875 27.875 6.296875 
Q 34.515625 6.296875 38.296875 9.5625 
Q 42.09375 12.84375 42.09375 19.28125 
Q 42.09375 23.09375 40.40625 25.40625 
Q 38.71875 27.734375 36.203125 29.03125 
Q 33.6875 30.328125 30.734375 30.765625 
Q 27.78125 31.203125 25.296875 31.203125 
L 20.3125 31.203125 
L 20.3125 38.8125 
L 25.09375 38.8125 
Q 27.59375 38.8125 30.265625 39.328125 
Q 32.953125 39.84375 35.171875 41.1875 
Q 37.40625 42.53125 38.84375 44.828125 
Q 40.28125 47.125 40.28125 50.6875 
Q 40.28125 56.203125 37.03125 59.390625 
Q 33.796875 62.59375 27.390625 62.59375 
Q 21.578125 62.59375 17.984375 59.609375 
Q 14.40625 56.640625 13.8125 51.21875 
L 4.984375 51.90625 
Q 5.515625 56.453125 7.46875 59.8125 
Q 9.421875 63.1875 12.421875 65.40625 
Q 15.4375 67.625 19.28125 68.71875 
Q 23.140625 69.828125 27.484375 69.828125 
Q 33.25 69.828125 37.390625 68.375 
Q 41.546875 66.9375 44.1875 64.46875 
Q 46.828125 62.015625 48.0625 58.6875 
Q 49.3125 55.375 49.3125 51.609375 
Q 49.3125 48.578125 48.484375 45.9375 
Q 47.65625 43.3125 45.890625 41.203125 
Q 44.140625 39.109375 41.421875 37.59375 
Q 38.71875 36.078125 34.90625 35.296875 
L 34.90625 35.109375 
Q 39.0625 34.671875 42.140625 33.21875 
Q 45.21875 31.78125 47.21875 29.625 
Q 49.21875 27.484375 50.21875 24.75 
Q 51.21875 22.015625 51.21875 19 
" id="LiberationSans-33"/>
      </defs>
      <g style="fill:#262626;" transform="translate(934.512848 331.7975)scale(0.08 -0.08)">
       <use xlink:href="#LiberationSans-30"/>
       <use x="55.615234" xlink:href="#LiberationSans-2e"/>
       <use x="83.398438" xlink:href="#LiberationSans-30"/>
       <use x="139.013672" xlink:href="#LiberationSans-33"/>
       <use x="194.628906" xlink:href="#LiberationSans-30"/>
      </g>
     </g>
    </g>
   </g>
   <g id="matplotlib.axis_2">
    <g id="ytick_1">
     <g id="line2d_15">
      <path clip-path="url(#p4398609499)" d="M 144 304.484362 
L 1036.8 304.484362 
" style="fill:none;stroke:#ffffff;stroke-linecap:round;stroke-width:0.8;"/>
     </g>
     <g id="line2d_16"/>
     <g id="text_8">
      <!-- −6 -->
      <defs>
       <path d="M 4.9375 29.6875 
L 4.9375 36.8125 
L 53.515625 36.8125 
L 53.515625 29.6875 
z
" id="LiberationSans-2212"/>
       <path d="M 51.21875 22.515625 
Q 51.21875 17.328125 49.78125 13 
Q 48.34375 8.6875 45.53125 5.578125 
Q 42.71875 2.484375 38.5625 0.75 
Q 34.421875 -0.984375 29 -0.984375 
Q 23 -0.984375 18.5 1.3125 
Q 14.015625 3.609375 11.03125 7.921875 
Q 8.0625 12.25 6.5625 18.53125 
Q 5.078125 24.8125 5.078125 32.8125 
Q 5.078125 42 6.765625 48.921875 
Q 8.453125 55.859375 11.625 60.5 
Q 14.796875 65.140625 19.359375 67.484375 
Q 23.921875 69.828125 29.6875 69.828125 
Q 33.203125 69.828125 36.28125 69.09375 
Q 39.359375 68.359375 41.875 66.71875 
Q 44.390625 65.09375 46.28125 62.40625 
Q 48.1875 59.71875 49.3125 55.8125 
L 40.921875 54.296875 
Q 39.546875 58.734375 36.546875 60.71875 
Q 33.546875 62.703125 29.59375 62.703125 
Q 25.984375 62.703125 23.046875 60.984375 
Q 20.125 59.28125 18.0625 55.875 
Q 16.015625 52.484375 14.90625 47.359375 
Q 13.8125 42.234375 13.8125 35.40625 
Q 16.21875 39.84375 20.5625 42.15625 
Q 24.90625 44.484375 30.515625 44.484375 
Q 35.203125 44.484375 39.015625 42.96875 
Q 42.828125 41.453125 45.53125 38.59375 
Q 48.25 35.75 49.734375 31.671875 
Q 51.21875 27.59375 51.21875 22.515625 
M 42.28125 22.125 
Q 42.28125 25.6875 41.40625 28.5625 
Q 40.53125 31.453125 38.765625 33.46875 
Q 37.015625 35.5 34.421875 36.59375 
Q 31.84375 37.703125 28.421875 37.703125 
Q 26.03125 37.703125 23.578125 36.984375 
Q 21.140625 36.28125 19.15625 34.6875 
Q 17.1875 33.109375 15.9375 30.515625 
Q 14.703125 27.9375 14.703125 24.21875 
Q 14.703125 20.40625 15.671875 17.109375 
Q 16.65625 13.8125 18.484375 11.375 
Q 20.3125 8.9375 22.890625 7.515625 
Q 25.484375 6.109375 28.71875 6.109375 
Q 31.890625 6.109375 34.40625 7.203125 
Q 36.921875 8.296875 38.671875 10.375 
Q 40.4375 12.453125 41.359375 15.421875 
Q 42.28125 18.40625 42.28125 22.125 
" id="LiberationSans-36"/>
      </defs>
      <g style="fill:#262626;" transform="translate(129.27875 307.383112)scale(0.08 -0.08)">
       <use xlink:href="#LiberationSans-2212"/>
       <use x="58.398438" xlink:href="#LiberationSans-36"/>
      </g>
     </g>
    </g>
    <g id="ytick_2">
     <g id="line2d_17">
      <path clip-path="url(#p4398609499)" d="M 144 273.267007 
L 1036.8 273.267007 
" style="fill:none;stroke:#ffffff;stroke-linecap:round;stroke-width:0.8;"/>
     </g>
     <g id="line2d_18"/>
     <g id="text_9">
      <!-- −4 -->
      <defs>
       <path d="M 43.015625 15.578125 
L 43.015625 0 
L 34.71875 0 
L 34.71875 15.578125 
L 2.296875 15.578125 
L 2.296875 22.40625 
L 33.796875 68.796875 
L 43.015625 68.796875 
L 43.015625 22.515625 
L 52.6875 22.515625 
L 52.6875 15.578125 
z
M 34.71875 58.890625 
Q 34.625 58.640625 34.234375 57.9375 
Q 33.84375 57.234375 33.34375 56.34375 
Q 32.859375 55.46875 32.34375 54.5625 
Q 31.84375 53.65625 31.453125 53.078125 
L 13.8125 27.09375 
Q 13.578125 26.703125 13.109375 26.0625 
Q 12.640625 25.4375 12.15625 24.78125 
Q 11.671875 24.125 11.171875 23.484375 
Q 10.6875 22.859375 10.40625 22.515625 
L 34.71875 22.515625 
z
" id="LiberationSans-34"/>
      </defs>
      <g style="fill:#262626;" transform="translate(129.27875 276.165757)scale(0.08 -0.08)">
       <use xlink:href="#LiberationSans-2212"/>
       <use x="58.398438" xlink:href="#LiberationSans-34"/>
      </g>
     </g>
    </g>
    <g id="ytick_3">
     <g id="line2d_19">
      <path clip-path="url(#p4398609499)" d="M 144 242.049652 
L 1036.8 242.049652 
" style="fill:none;stroke:#ffffff;stroke-linecap:round;stroke-width:0.8;"/>
     </g>
     <g id="line2d_20"/>
     <g id="text_10">
      <!-- −2 -->
      <g style="fill:#262626;" transform="translate(129.27875 244.948402)scale(0.08 -0.08)">
       <use xlink:href="#LiberationSans-2212"/>
       <use x="58.398438" xlink:href="#LiberationSans-32"/>
      </g>
     </g>
    </g>
    <g id="ytick_4">
     <g id="line2d_21">
      <path clip-path="url(#p4398609499)" d="M 144 210.832297 
L 1036.8 210.832297 
" style="fill:none;stroke:#ffffff;stroke-linecap:round;stroke-width:0.8;"/>
     </g>
     <g id="line2d_22"/>
     <g id="text_11">
      <!-- 0 -->
      <g style="fill:#262626;" transform="translate(133.95125 213.731047)scale(0.08 -0.08)">
       <use xlink:href="#LiberationSans-30"/>
      </g>
     </g>
    </g>
    <g id="ytick_5">
     <g id="line2d_23">
      <path clip-path="url(#p4398609499)" d="M 144 179.614943 
L 1036.8 179.614943 
" style="fill:none;stroke:#ffffff;stroke-linecap:round;stroke-width:0.8;"/>
     </g>
     <g id="line2d_24"/>
     <g id="text_12">
      <!-- 2 -->
      <g style="fill:#262626;" transform="translate(133.95125 182.513693)scale(0.08 -0.08)">
       <use xlink:href="#LiberationSans-32"/>
      </g>
     </g>
    </g>
    <g id="ytick_6">
     <g id="line2d_25">
      <path clip-path="url(#p4398609499)" d="M 144 148.397588 
L 1036.8 148.397588 
" style="fill:none;stroke:#ffffff;stroke-linecap:round;stroke-width:0.8;"/>
     </g>
     <g id="line2d_26"/>
     <g id="text_13">
      <!-- 4 -->
      <g style="fill:#262626;" transform="translate(133.95125 151.296338)scale(0.08 -0.08)">
       <use xlink:href="#LiberationSans-34"/>
      </g>
     </g>
    </g>
    <g id="ytick_7">
     <g id="line2d_27">
      <path clip-path="url(#p4398609499)" d="M 144 117.180233 
L 1036.8 117.180233 
" style="fill:none;stroke:#ffffff;stroke-linecap:round;stroke-width:0.8;"/>
     </g>
     <g id="line2d_28"/>
     <g id="text_14">
      <!-- 6 -->
      <g style="fill:#262626;" transform="translate(133.95125 120.078983)scale(0.08 -0.08)">
       <use xlink:href="#LiberationSans-36"/>
      </g>
     </g>
    </g>
    <g id="ytick_8">
     <g id="line2d_29">
      <path clip-path="url(#p4398609499)" d="M 144 85.962879 
L 1036.8 85.962879 
" style="fill:none;stroke:#ffffff;stroke-linecap:round;stroke-width:0.8;"/>
     </g>
     <g id="line2d_30"/>
     <g id="text_15">
      <!-- 8 -->
      <defs>
       <path d="M 51.265625 19.1875 
Q 51.265625 14.796875 49.875 11.109375 
Q 48.484375 7.421875 45.625 4.734375 
Q 42.78125 2.046875 38.328125 0.53125 
Q 33.890625 -0.984375 27.828125 -0.984375 
Q 21.78125 -0.984375 17.359375 0.53125 
Q 12.9375 2.046875 10.03125 4.703125 
Q 7.125 7.375 5.734375 11.0625 
Q 4.34375 14.75 4.34375 19.09375 
Q 4.34375 22.859375 5.484375 25.78125 
Q 6.640625 28.71875 8.5625 30.828125 
Q 10.5 32.953125 12.96875 34.25 
Q 15.4375 35.546875 18.0625 35.984375 
L 18.0625 36.1875 
Q 15.1875 36.859375 12.90625 38.375 
Q 10.640625 39.890625 9.09375 42.015625 
Q 7.5625 44.140625 6.75 46.71875 
Q 5.953125 49.3125 5.953125 52.203125 
Q 5.953125 55.8125 7.34375 59 
Q 8.734375 62.203125 11.46875 64.625 
Q 14.203125 67.046875 18.25 68.4375 
Q 22.3125 69.828125 27.640625 69.828125 
Q 33.25 69.828125 37.375 68.40625 
Q 41.5 67 44.203125 64.578125 
Q 46.921875 62.15625 48.234375 58.9375 
Q 49.5625 55.71875 49.5625 52.09375 
Q 49.5625 49.265625 48.75 46.671875 
Q 47.953125 44.09375 46.40625 41.96875 
Q 44.875 39.84375 42.59375 38.34375 
Q 40.328125 36.859375 37.359375 36.28125 
L 37.359375 36.078125 
Q 40.328125 35.59375 42.859375 34.296875 
Q 45.40625 33.015625 47.265625 30.890625 
Q 49.125 28.765625 50.1875 25.828125 
Q 51.265625 22.90625 51.265625 19.1875 
M 40.4375 51.609375 
Q 40.4375 54.203125 39.765625 56.34375 
Q 39.109375 58.5 37.59375 60.03125 
Q 36.078125 61.578125 33.640625 62.421875 
Q 31.203125 63.28125 27.640625 63.28125 
Q 24.171875 63.28125 21.78125 62.421875 
Q 19.390625 61.578125 17.84375 60.03125 
Q 16.3125 58.5 15.625 56.34375 
Q 14.9375 54.203125 14.9375 51.609375 
Q 14.9375 49.5625 15.46875 47.40625 
Q 16.015625 45.265625 17.421875 43.5 
Q 18.84375 41.75 21.328125 40.625 
Q 23.828125 39.5 27.734375 39.5 
Q 31.890625 39.5 34.40625 40.625 
Q 36.921875 41.75 38.25 43.5 
Q 39.59375 45.265625 40.015625 47.40625 
Q 40.4375 49.5625 40.4375 51.609375 
M 42.140625 20.015625 
Q 42.140625 22.515625 41.453125 24.828125 
Q 40.765625 27.15625 39.109375 28.9375 
Q 37.453125 30.71875 34.640625 31.8125 
Q 31.84375 32.90625 27.640625 32.90625 
Q 23.78125 32.90625 21.0625 31.8125 
Q 18.359375 30.71875 16.671875 28.90625 
Q 14.984375 27.09375 14.203125 24.71875 
Q 13.421875 22.359375 13.421875 19.828125 
Q 13.421875 16.65625 14.203125 14.03125 
Q 14.984375 11.421875 16.6875 9.546875 
Q 18.40625 7.671875 21.1875 6.640625 
Q 23.96875 5.609375 27.9375 5.609375 
Q 31.9375 5.609375 34.671875 6.640625 
Q 37.40625 7.671875 39.0625 9.546875 
Q 40.71875 11.421875 41.421875 14.078125 
Q 42.140625 16.75 42.140625 20.015625 
" id="LiberationSans-38"/>
      </defs>
      <g style="fill:#262626;" transform="translate(133.95125 88.861629)scale(0.08 -0.08)">
       <use xlink:href="#LiberationSans-38"/>
      </g>
     </g>
    </g>
    <g id="ytick_9">
     <g id="line2d_31">
      <path clip-path="url(#p4398609499)" d="M 144 54.745524 
L 1036.8 54.745524 
" style="fill:none;stroke:#ffffff;stroke-linecap:round;stroke-width:0.8;"/>
     </g>
     <g id="line2d_32"/>
     <g id="text_16">
      <!-- 10 -->
      <g style="fill:#262626;" transform="translate(129.5025 57.644274)scale(0.08 -0.08)">
       <use xlink:href="#LiberationSans-31"/>
       <use x="55.615234" xlink:href="#LiberationSans-30"/>
      </g>
     </g>
    </g>
   </g>
   <g id="line2d_33">
    <path clip-path="url(#p4398609499)" d="M 184.581818 221.533352 
L 187.453851 189.539498 
L 189.17707 173.407173 
L 190.325883 164.725538 
L 191.474696 158.336005 
L 192.049102 156.236948 
L 192.623509 155.01507 
L 193.197915 154.78477 
L 193.772322 155.655438 
L 194.346728 157.723097 
L 194.921135 161.061603 
L 195.495541 165.714017 
L 196.069948 171.684805 
L 197.218761 187.370114 
L 198.367574 207.191916 
L 201.814013 271.504685 
L 202.388419 279.590895 
L 202.962826 286.10204 
L 203.537232 290.803964 
L 204.111639 293.519153 
L 204.686045 294.134805 
L 205.260452 292.607964 
L 205.834858 288.967453 
L 206.409265 283.312484 
L 206.983671 275.808034 
L 208.132484 256.191272 
L 209.855704 219.771611 
L 211.578923 182.816605 
L 212.727736 161.69336 
L 213.876549 145.130732 
L 214.450955 138.784613 
L 215.025362 133.754941 
L 215.599768 130.011678 
L 216.174175 127.493695 
L 216.748581 126.117167 
L 217.322988 125.784201 
L 217.897394 126.391086 
L 218.471801 127.835567 
L 219.046207 130.022681 
L 219.620614 132.868795 
L 220.769427 140.270126 
L 221.91824 149.622742 
L 223.067053 160.619733 
L 224.790272 179.341571 
L 227.087898 204.327078 
L 228.236711 213.923313 
L 228.811118 217.288867 
L 229.385524 219.427656 
L 229.959931 220.157656 
L 230.534337 219.327322 
L 231.108743 216.825833 
L 231.68315 212.592037 
L 232.257556 206.62146 
L 232.831963 198.970876 
L 233.980776 179.170372 
L 235.703995 141.753964 
L 237.427215 102.909951 
L 238.576028 81.000427 
L 239.150434 72.193983 
L 239.724841 65.139468 
L 240.299247 60.001698 
L 240.873654 56.878746 
L 241.44806 55.8 
L 242.022467 56.727458 
L 242.596873 59.560104 
L 243.17128 64.141035 
L 243.745686 70.266882 
L 244.894499 86.175096 
L 246.617719 115.156596 
L 248.915345 153.188497 
L 250.064157 168.958488 
L 251.21297 181.759753 
L 252.361783 191.478508 
L 252.93619 195.194329 
L 253.510596 198.155937 
L 254.085003 200.361719 
L 254.659409 201.800397 
L 255.233816 202.450369 
L 255.808222 202.281058 
L 256.382629 201.25619 
L 256.957035 199.338762 
L 257.531442 196.497306 
L 258.105848 192.712964 
L 259.254661 182.346791 
L 260.403474 168.605686 
L 262.126694 143.907215 
L 263.849913 119.563838 
L 264.998726 107.214502 
L 265.573133 103.036515 
L 266.147539 100.503794 
L 266.721946 99.797627 
L 267.296352 101.043568 
L 267.870759 104.303786 
L 268.445165 109.572183 
L 269.019572 116.772632 
L 270.168384 136.327241 
L 271.317197 161.093968 
L 274.18923 228.208687 
L 275.338043 249.9826 
L 276.486856 265.810187 
L 277.061262 271.18806 
L 277.635669 274.830915 
L 278.210075 276.774943 
L 278.784482 277.104584 
L 279.358888 275.944126 
L 279.933295 273.448037 
L 280.507701 269.790669 
L 281.656514 259.72829 
L 282.805327 247.18283 
L 288.549392 179.295498 
L 289.698205 168.522476 
L 290.847018 160.210252 
L 291.421424 157.294504 
L 291.995831 155.385919 
L 292.570237 154.613897 
L 293.144644 155.09274 
L 293.71905 156.912416 
L 294.293457 160.129618 
L 294.867863 164.759756 
L 295.44227 170.770508 
L 296.591083 186.542189 
L 297.739896 206.130273 
L 300.037522 247.925385 
L 301.186335 264.813459 
L 301.760741 271.135787 
L 302.335148 275.704985 
L 302.909554 278.335087 
L 303.483961 278.904725 
L 304.058367 277.362235 
L 304.632774 273.727538 
L 305.20718 268.090703 
L 305.781587 260.607301 
L 306.9304 241.002575 
L 308.653619 204.37841 
L 310.951245 155.304512 
L 312.100058 135.370426 
L 313.248871 120.117957 
L 313.823277 114.36976 
L 314.397684 109.860593 
L 314.97209 106.543374 
L 315.546497 104.350717 
L 316.120903 103.203142 
L 316.69531 103.016804 
L 317.269716 103.710163 
L 317.844123 105.209162 
L 318.418529 107.450566 
L 318.992936 110.383283 
L 320.141749 118.17281 
L 321.290562 128.33943 
L 322.439375 140.625089 
L 324.162594 161.905738 
L 325.885814 183.603693 
L 327.034627 195.788813 
L 327.609033 200.526115 
L 328.183439 204.0639 
L 328.757846 206.202919 
L 329.332252 206.775657 
L 329.906659 205.656866 
L 330.481065 202.772688 
L 331.055472 198.107764 
L 331.629878 191.709798 
L 332.778691 174.227809 
L 333.927504 151.955262 
L 336.799537 92.215001 
L 337.94835 74.083293 
L 338.522756 67.43455 
L 339.097163 62.644045 
L 339.671569 59.816184 
L 340.245976 58.987943 
L 340.820382 60.130225 
L 341.394789 63.15223 
L 341.969195 67.908529 
L 342.543602 74.20833 
L 343.692415 90.514596 
L 345.415634 120.428749 
L 347.71326 160.836136 
L 348.862073 178.398066 
L 350.010886 193.376895 
L 351.159699 205.57804 
L 352.308512 214.913771 
L 352.882918 218.464667 
L 353.457325 221.229911 
L 354.031731 223.165631 
L 354.606138 224.219536 
L 355.180544 224.334873 
L 355.754951 223.456017 
L 356.329357 221.535272 
L 356.903764 218.54038 
L 357.47817 214.462149 
L 358.052577 209.321579 
L 359.20139 196.122864 
L 360.350203 179.899972 
L 362.647829 145.378957 
L 363.796642 131.620901 
L 364.371048 126.638607 
L 364.945455 123.25236 
L 365.519861 121.655858 
L 366.094268 121.986392 
L 366.668674 124.317131 
L 367.24308 128.652249 
L 367.817487 134.925191 
L 368.391893 143.000241 
L 369.540706 163.699817 
L 371.263926 201.658408 
L 372.987145 239.573793 
L 374.135958 260.479367 
L 375.284771 275.712734 
L 375.859178 280.888157 
L 376.433584 284.382942 
L 377.007991 286.22388 
L 377.582397 286.483798 
L 378.156804 285.273345 
L 378.73121 282.731604 
L 379.305617 279.016196 
L 380.45443 268.729856 
L 381.603243 255.699346 
L 383.326462 233.293912 
L 387.921714 171.37753 
L 389.070527 158.509466 
L 390.21934 148.534712 
L 390.793746 145.018607 
L 391.368153 142.684693 
L 391.942559 141.665434 
L 392.516966 142.066928 
L 393.091372 143.95965 
L 393.665779 147.370249 
L 394.240185 152.275005 
L 394.814592 158.59549 
L 395.963405 174.888813 
L 397.686624 204.882499 
L 399.409844 233.916455 
L 400.558657 248.212322 
L 401.133063 252.969082 
L 401.70747 255.853905 
L 402.281876 256.736744 
L 402.856283 255.556877 
L 403.430689 252.324735 
L 404.005096 247.120419 
L 404.579502 240.08904 
L 405.728315 221.402809 
L 407.451534 186.020988 
L 409.74916 137.904 
L 410.897973 118.014815 
L 412.046786 102.501723 
L 412.621193 96.520667 
L 413.195599 91.722746 
L 413.770006 88.073821 
L 414.344412 85.521985 
L 414.918819 84.005358 
L 415.493225 83.459284 
L 416.067632 83.822401 
L 416.642038 85.04114 
L 417.216445 87.072373 
L 417.790851 89.884034 
L 418.365258 93.453736 
L 419.514071 102.805221 
L 420.662884 114.984025 
L 421.811697 129.678173 
L 424.109323 163.47295 
L 425.832542 187.102447 
L 426.981355 198.561954 
L 427.555761 202.304831 
L 428.130168 204.46747 
L 428.704574 204.909988 
L 429.278981 203.545446 
L 429.853387 200.347044 
L 430.427794 195.352697 
L 431.0022 188.666644 
L 432.151013 170.955516 
L 433.874233 137.697603 
L 435.597452 104.731212 
L 436.746265 87.557325 
L 437.320672 81.254183 
L 437.895078 76.726008 
L 438.469485 74.083095 
L 439.043891 73.369802 
L 439.618298 74.565957 
L 440.192704 77.591244 
L 440.767111 82.312192 
L 441.341517 88.551289 
L 442.49033 104.718253 
L 444.21355 134.607151 
L 447.085582 185.413083 
L 448.808801 210.738076 
L 449.957614 224.55817 
L 451.106427 235.680766 
L 452.25524 243.797461 
L 452.829647 246.585647 
L 453.404053 248.431947 
L 453.97846 249.25969 
L 454.552866 248.995071 
L 455.127273 247.574488 
L 455.701679 244.952479 
L 456.276086 241.109658 
L 456.850492 236.060029 
L 457.999305 222.597954 
L 459.148118 205.528867 
L 462.020151 159.321895 
L 463.168964 145.677956 
L 463.74337 141.049479 
L 464.317776 138.173879 
L 464.892183 137.200485 
L 465.466589 138.213974 
L 466.040996 141.229499 
L 466.615402 146.190998 
L 467.189809 152.97281 
L 468.338622 171.178886 
L 470.061841 205.764159 
L 471.785061 240.934762 
L 472.933874 260.435106 
L 474.082687 274.62152 
L 474.657093 279.402604 
L 475.2315 282.581591 
L 475.805906 284.176505 
L 476.380313 284.248991 
L 476.954719 282.896283 
L 477.529126 280.242113 
L 478.103532 276.427222 
L 479.252345 265.908626 
L 480.401158 252.480437 
L 482.124378 228.888091 
L 484.99641 185.219006 
L 487.294036 151.168847 
L 488.442849 136.871506 
L 489.591662 126.131197 
L 490.166068 122.527821 
L 490.740475 120.3085 
L 491.314881 119.595075 
L 491.889288 120.471569 
L 492.463694 122.975786 
L 493.038101 127.092683 
L 493.612507 132.750049 
L 494.76132 148.104605 
L 496.48454 177.656356 
L 498.207759 207.323946 
L 499.356572 222.560831 
L 499.930979 227.921715 
L 500.505385 231.488808 
L 501.079792 233.123204 
L 501.654198 232.754724 
L 502.228605 230.383681 
L 502.803011 226.079358 
L 503.377417 219.975345 
L 504.52623 203.176661 
L 505.675043 182.002414 
L 508.547076 125.285203 
L 509.695889 106.358598 
L 510.844702 91.452148 
L 511.993515 80.957178 
L 512.567921 77.353352 
L 513.142328 74.800569 
L 513.716734 73.253804 
L 514.291141 72.666998 
L 514.865547 72.998513 
L 515.439954 74.214964 
L 516.01436 76.293152 
L 516.588767 79.21999 
L 517.163173 82.99045 
L 518.311986 93.057943 
L 519.460799 106.438508 
L 520.609612 122.851934 
L 522.332831 151.503403 
L 524.630457 189.59831 
L 525.77927 204.202217 
L 526.353677 209.513643 
L 526.928083 213.221243 
L 527.50249 215.170732 
L 528.076896 215.262153 
L 528.651303 213.457147 
L 529.225709 209.783542 
L 529.800116 204.336906 
L 530.374522 197.278902 
L 531.523335 179.273818 
L 534.969774 117.762032 
L 536.118587 103.828266 
L 536.692994 99.279471 
L 537.2674 96.518273 
L 537.841807 95.596431 
L 538.416213 96.502954 
L 538.99062 99.168475 
L 539.565026 103.472173 
L 540.139433 109.250707 
L 541.288246 124.429254 
L 543.011465 152.916449 
L 545.883497 202.57922 
L 547.606717 228.269984 
L 548.75553 242.725245 
L 549.904343 254.677113 
L 551.053156 263.672426 
L 551.627562 266.867968 
L 552.201969 269.073209 
L 552.776375 270.192213 
L 553.350782 270.13351 
L 553.925188 268.81796 
L 554.499595 266.187118 
L 555.074001 262.211485 
L 555.648408 256.897991 
L 556.797221 242.502224 
L 557.946034 223.966127 
L 561.392472 163.277862 
L 561.966879 155.669734 
L 562.541285 149.565869 
L 563.115692 145.184824 
L 563.690098 142.687949 
L 564.264505 142.171597 
L 564.838911 143.662265 
L 565.413318 147.114944 
L 565.987724 152.414784 
L 566.562131 159.381993 
L 567.710944 177.324393 
L 571.731789 248.707616 
L 572.880602 261.844912 
L 573.455009 266.266212 
L 574.029415 269.188495 
L 574.603822 270.621361 
L 575.178228 270.615414 
L 575.752635 269.254425 
L 576.327041 266.646539 
L 576.901448 262.915198 
L 578.050261 252.6009 
L 579.199074 239.300006 
L 580.922293 215.455344 
L 583.219919 179.079081 
L 586.091951 132.178585 
L 587.240764 116.012223 
L 588.389577 103.455815 
L 588.963984 99.011023 
L 589.53839 96.017578 
L 590.112797 94.612404 
L 590.687203 94.892576 
L 591.26161 96.906731 
L 591.836016 100.648357 
L 592.410423 106.051478 
L 592.984829 112.989116 
L 594.133642 130.666876 
L 597.580081 192.165144 
L 598.728894 206.394709 
L 599.303301 211.04389 
L 599.877707 213.831218 
L 600.452113 214.676783 
L 601.02652 213.570298 
L 601.600926 210.569544 
L 602.175333 205.795697 
L 602.749739 199.425868 
L 603.898552 182.826143 
L 605.621772 152.403395 
L 607.344991 121.969231 
L 608.493804 104.621567 
L 609.642617 90.863484 
L 610.79143 81.110113 
L 611.365837 77.746277 
L 611.940243 75.363873 
L 612.51465 73.934203 
L 613.089056 73.429428 
L 613.663463 73.827403 
L 614.237869 75.114837 
L 614.812276 77.288523 
L 615.386682 80.354552 
L 615.961089 84.325584 
L 617.109902 95.03813 
L 618.258715 109.459992 
L 619.407528 127.349888 
L 621.130747 158.983975 
L 623.428373 202.055288 
L 624.577186 219.309241 
L 625.151592 225.930296 
L 625.725999 230.917252 
L 626.300405 234.102074 
L 626.874812 235.372261 
L 627.449218 234.678186 
L 628.023625 232.037686 
L 628.598031 227.537571 
L 629.172438 221.331891 
L 630.321251 204.723526 
L 632.618877 163.554672 
L 633.76769 144.63849 
L 634.916503 130.213441 
L 635.490909 125.244013 
L 636.065316 121.95245 
L 636.639722 120.39805 
L 637.214129 120.579337 
L 637.788535 122.438438 
L 638.362942 125.867917 
L 638.937348 130.719538 
L 640.086161 143.953393 
L 641.234974 160.532089 
L 646.404632 240.301178 
L 647.553445 254.52173 
L 648.702258 266.492388 
L 649.851071 275.624388 
L 650.425478 278.884378 
L 650.999884 281.125354 
L 651.574291 282.232679 
L 652.148697 282.097627 
L 652.723104 280.62577 
L 653.29751 277.745768 
L 653.871917 273.417916 
L 654.446323 267.641826 
L 655.595136 251.975101 
L 656.743949 231.710521 
L 660.764794 154.54192 
L 661.339201 146.950654 
L 661.913607 141.06202 
L 662.488014 137.04894 
L 663.06242 135.019182 
L 663.636827 135.010524 
L 664.211233 136.989141 
L 664.78564 140.851313 
L 665.360046 146.428359 
L 666.508859 161.777212 
L 668.232079 190.764247 
L 669.955298 219.135106 
L 671.104111 233.98877 
L 671.678518 239.626002 
L 672.252924 243.93081 
L 672.827331 246.86001 
L 673.401737 248.414857 
L 673.976144 248.634822 
L 674.55055 247.58993 
L 675.124957 245.372286 
L 675.699363 242.087415 
L 676.27377 237.84604 
L 677.422583 226.920902 
L 678.571395 213.352391 
L 680.294615 189.210942 
L 682.017834 161.65699 
L 685.464273 104.413386 
L 686.613086 88.949727 
L 687.187493 82.792787 
L 687.761899 77.960413 
L 688.336306 74.635402 
L 688.910712 72.968995 
L 689.485119 73.070736 
L 690.059525 74.999709 
L 690.633932 78.75774 
L 691.208338 84.285094 
L 691.782745 91.459017 
L 692.931558 109.953267 
L 694.654777 143.776374 
L 696.377997 176.540464 
L 697.526809 193.231357 
L 698.101216 199.225451 
L 698.675622 203.422518 
L 699.250029 205.732935 
L 699.824435 206.135648 
L 700.398842 204.676566 
L 700.973248 201.463891 
L 701.547655 196.660739 
L 702.696468 183.150654 
L 704.419687 157.016481 
L 706.717313 121.966194 
L 707.866126 107.834711 
L 709.014939 97.051764 
L 709.589346 92.999805 
L 710.163752 89.845383 
L 710.738159 87.578595 
L 711.312565 86.186815 
L 711.886972 85.660314 
L 712.461378 85.996476 
L 713.035785 87.202288 
L 713.610191 89.294853 
L 714.184598 92.299905 
L 714.759004 96.248403 
L 715.333411 101.17147 
L 716.482224 114.027917 
L 717.631036 130.866707 
L 718.779849 151.255188 
L 721.077475 198.002112 
L 722.800695 230.735844 
L 723.949508 247.194816 
L 724.523914 253.04163 
L 725.098321 257.043316 
L 725.672727 259.075606 
L 726.247134 259.078183 
L 726.82154 257.059268 
L 727.395947 253.097081 
L 727.970353 247.338033 
L 729.119166 231.32275 
L 730.842386 200.617302 
L 732.565605 170.278021 
L 733.714418 154.558242 
L 734.288825 148.762899 
L 734.863231 144.533123 
L 735.437638 141.93582 
L 736.012044 140.979276 
L 736.58645 141.617546 
L 737.160857 143.757196 
L 737.735263 147.265876 
L 738.30967 151.982113 
L 739.458483 164.307694 
L 741.181702 187.257792 
L 744.628141 235.253064 
L 746.351361 255.958594 
L 747.500174 267.478328 
L 748.648987 276.367598 
L 749.223393 279.53805 
L 749.7978 281.685304 
L 750.372206 282.676374 
L 750.946613 282.385461 
L 751.521019 280.702865 
L 752.095426 277.544178 
L 752.669832 272.859144 
L 753.244239 266.63952 
L 754.393052 249.809033 
L 755.541865 228.008624 
L 759.56271 143.164426 
L 760.711523 127.135612 
L 761.285929 121.841012 
L 761.860336 118.539323 
L 762.434742 117.279109 
L 763.009149 118.03744 
L 763.583555 120.721639 
L 764.157962 125.174231 
L 764.732368 131.180786 
L 765.881181 146.776917 
L 769.32762 199.956035 
L 770.476433 212.571734 
L 771.05084 217.14003 
L 771.625246 220.468633 
L 772.199653 222.550398 
L 772.774059 223.413439 
L 773.348466 223.113656 
L 773.922872 221.726576 
L 774.497279 219.339118 
L 775.071685 216.041901 
L 776.220498 207.061128 
L 777.369311 195.373342 
L 778.518124 181.386301 
L 780.241343 156.709487 
L 782.538969 119.08944 
L 784.262189 91.274985 
L 785.411002 75.721869 
L 785.985408 69.520103 
L 786.559815 64.664362 
L 787.134221 61.352435 
L 787.708628 59.749184 
L 788.283034 59.976134 
L 788.857441 62.102536 
L 789.431847 66.138488 
L 790.006254 72.030644 
L 790.58066 79.660828 
L 791.729473 99.352078 
L 793.452693 135.683908 
L 795.175912 171.759285 
L 796.324725 191.045939 
L 796.899131 198.435842 
L 797.473538 204.083507 
L 798.047944 207.890025 
L 798.622351 209.823811 
L 799.196757 209.918956 
L 799.771164 208.270566 
L 800.34557 205.02745 
L 800.919977 200.38266 
L 802.06879 187.814558 
L 803.792009 164.553324 
L 805.515229 141.560971 
L 806.664042 128.628942 
L 807.812855 118.45777 
L 808.961668 111.316011 
L 809.536074 108.903837 
L 810.110481 107.26873 
L 810.684887 106.419192 
L 811.259294 106.3724 
L 811.8337 107.156006 
L 812.408107 108.807957 
L 812.982513 111.374291 
L 813.55692 114.905067 
L 814.131326 119.44868 
L 815.280139 131.71796 
L 816.428952 148.264136 
L 817.577765 168.688522 
L 819.300984 204.157051 
L 821.024204 239.773233 
L 822.173017 259.683201 
L 822.747423 267.60747 
L 823.32183 273.846052 
L 823.896236 278.20648 
L 824.470643 280.553643 
L 825.045049 280.817229 
L 825.619456 278.996319 
L 826.193862 275.160798 
L 826.768269 269.449481 
L 827.917082 253.265748 
L 829.065895 232.669097 
L 831.363521 189.228049 
L 832.512334 171.601167 
L 833.08674 164.683234 
L 833.661146 159.224438 
L 834.235553 155.299118 
L 834.809959 152.925317 
L 835.384366 152.069171 
L 835.958772 152.651565 
L 836.533179 154.556514 
L 837.107585 157.640644 
L 837.681992 161.743144 
L 838.830805 172.330352 
L 840.554024 191.820318 
L 844.57487 239.523398 
L 845.723683 251.399128 
L 846.872496 261.401889 
L 847.446902 265.406356 
L 848.021309 268.559322 
L 848.595715 270.709819 
L 849.170122 271.706589 
L 849.744528 271.406679 
L 850.318935 269.684851 
L 850.893341 266.443187 
L 851.467748 261.620244 
L 852.042154 255.199101 
L 853.190967 237.752882 
L 854.33978 215.041299 
L 858.360625 125.12195 
L 859.509438 107.349024 
L 860.083845 101.178148 
L 860.658251 97.010235 
L 861.232658 94.903819 
L 861.807064 94.846256 
L 862.381471 96.755511 
L 862.955877 100.485118 
L 863.530284 105.831991 
L 864.679097 120.345088 
L 866.976723 156.23145 
L 868.125536 172.949411 
L 869.274349 186.475061 
L 869.848755 191.715686 
L 870.423162 195.855511 
L 870.997568 198.878955 
L 871.571975 200.802601 
L 872.146381 201.667916 
L 872.720787 201.533404 
L 873.295194 200.466799 
L 873.8696 198.53792 
L 874.444007 195.812684 
L 875.018413 192.348721 
L 876.167226 183.38071 
L 877.316039 171.884349 
L 878.464852 158.01956 
L 880.188072 133.361289 
L 883.634511 80.397882 
L 884.783324 67.210875 
L 885.35773 62.515011 
L 885.932137 59.374559 
L 886.506543 57.967519 
L 887.08095 58.427129 
L 887.655356 60.832757 
L 888.229763 65.202961 
L 888.804169 71.491187 
L 889.378576 79.584468 
L 890.527389 100.416596 
L 892.250608 139.015876 
L 893.973827 178.005841 
L 895.12264 199.556354 
L 895.697047 208.159706 
L 896.271453 215.066074 
L 896.84586 220.168111 
L 897.420266 223.424374 
L 897.994673 224.857622 
L 898.569079 224.550164 
L 899.143486 222.636635 
L 899.717892 219.294696 
L 900.292299 214.734288 
L 901.441112 202.89 
L 905.461957 155.577 
L 906.61077 145.318186 
L 907.759583 137.491775 
L 908.33399 134.540733 
L 908.908396 132.256383 
L 909.482803 130.665704 
L 910.057209 129.806018 
L 910.631616 129.726121 
L 911.206022 130.485399 
L 911.780428 132.150919 
L 912.354835 134.792685 
L 912.929241 138.477345 
L 913.503648 143.260822 
L 914.652461 156.246749 
L 915.801274 173.688351 
L 916.950087 194.90384 
L 920.396526 264.315832 
L 921.545339 281.594658 
L 922.119745 287.825096 
L 922.694152 292.162853 
L 923.268558 294.462839 
L 923.842965 294.645394 
L 924.417371 292.700859 
L 924.991778 288.690947 
L 925.566184 282.746811 
L 926.714997 265.893713 
L 927.86381 244.31283 
L 930.735843 187.385738 
L 931.884655 169.874888 
L 932.459062 163.096816 
L 933.033468 157.763862 
L 933.607875 153.903429 
L 934.182281 151.493497 
L 934.756688 150.46918 
L 935.331094 150.73091 
L 935.905501 152.153611 
L 936.479907 154.596225 
L 937.054314 157.910938 
L 938.203127 166.580132 
L 939.926346 182.836385 
L 945.670411 240.961256 
L 946.819224 248.57567 
L 947.393631 251.026241 
L 947.968037 252.346123 
L 948.542444 252.374903 
L 949.11685 250.971329 
L 949.691257 248.023311 
L 950.265663 243.457373 
L 950.840069 237.246878 
L 951.414476 229.418433 
L 952.563289 209.302043 
L 953.712102 184.470968 
L 957.158541 105.788918 
L 958.307354 87.243522 
L 958.88176 80.672467 
L 959.456167 76.106273 
L 960.030573 73.612456 
L 960.60498 73.187892 
L 961.179386 74.760649 
L 961.753793 78.194942 
L 962.328199 83.298906 
L 963.477012 97.530239 
L 965.200232 124.61372 
L 966.923451 151.734381 
L 968.072264 166.832703 
L 969.221077 178.334498 
L 969.795483 182.609776 
L 970.36989 185.898461 
L 970.944296 188.227521 
L 971.518703 189.638254 
L 972.093109 190.178924 
L 972.667516 189.898146 
L 973.241922 188.839527 
L 973.816329 187.037966 
L 974.390735 184.517855 
L 974.965142 181.293304 
L 976.113955 172.75085 
L 977.262768 161.442249 
L 978.411581 147.522604 
L 980.1348 122.926489 
L 982.432426 89.565523 
L 983.581239 76.71396 
L 984.155646 72.136418 
L 984.730052 69.100107 
L 985.304459 67.795956 
L 985.878865 68.368919 
L 986.453272 70.908722 
L 987.027678 75.442842 
L 987.602085 81.932223 
L 988.176491 90.270026 
L 989.325304 111.739635 
L 991.048523 151.707806 
L 992.771743 192.582681 
L 993.920556 215.661274 
L 995.069369 232.882814 
L 995.643775 238.894317 
L 996.218182 243.084508 
L 996.218182 243.084508 
" style="fill:none;stroke:#4c72b0;stroke-linecap:round;stroke-width:1.4;"/>
   </g>
   <g id="line2d_34">
    <path clip-path="url(#p4398609499)" d="M 184.581818 256.066985 
L 189.751477 253.701103 
L 194.921135 251.576116 
L 199.516387 249.907655 
L 204.111639 248.461187 
L 208.706891 247.248763 
L 213.302142 246.280474 
L 217.897394 245.564375 
L 221.91824 245.149388 
L 225.939085 244.934696 
L 229.959931 244.921646 
L 233.980776 245.110293 
L 238.001621 245.499403 
L 242.022467 246.086458 
L 246.617719 246.994847 
L 251.21297 248.149157 
L 255.808222 249.539699 
L 260.403474 251.154809 
L 265.573133 253.223306 
L 270.742791 255.536898 
L 276.486856 258.365097 
L 282.805327 261.746304 
L 289.698205 265.696478 
L 298.314302 270.907142 
L 327.609033 288.876328 
L 334.501911 292.70739 
L 340.245976 295.667644 
L 345.990041 298.375258 
L 351.159699 300.566744 
L 356.329357 302.501609 
L 360.924609 303.989396 
L 365.519861 305.245687 
L 370.115113 306.25994 
L 374.710365 307.023635 
L 378.73121 307.481231 
L 382.752056 307.739087 
L 386.772901 307.795526 
L 390.793746 307.650158 
L 394.814592 307.303888 
L 398.835437 306.758904 
L 403.430689 305.89724 
L 408.025941 304.787755 
L 412.621193 303.439682 
L 417.216445 301.864249 
L 422.386103 299.836537 
L 427.555761 297.559126 
L 433.299826 294.765124 
L 439.618298 291.41354 
L 446.511175 287.48536 
L 454.552866 282.639953 
L 468.338622 274.021001 
L 479.826752 266.934647 
L 487.294036 262.564038 
L 493.612507 259.096282 
L 499.356572 256.176188 
L 505.100637 253.516827 
L 510.270295 251.375036 
L 514.865547 249.690445 
L 519.460799 248.226864 
L 524.056051 246.996486 
L 528.651303 246.009555 
L 533.246555 245.27428 
L 537.2674 244.842203 
L 541.288246 244.610244 
L 545.309091 244.579862 
L 549.329936 244.751224 
L 553.350782 245.123205 
L 557.371627 245.693398 
L 561.966879 246.582981 
L 566.562131 247.719132 
L 571.157383 249.092314 
L 575.752635 250.691008 
L 580.922293 252.742337 
L 586.091951 255.040312 
L 591.836016 257.853178 
L 598.154488 261.220204 
L 605.047365 265.158372 
L 613.663463 270.359436 
L 643.5326 288.673344 
L 650.425478 292.495373 
L 656.169543 295.446334 
L 661.913607 298.143178 
L 667.083266 300.323825 
L 672.252924 302.246884 
L 676.848176 303.723467 
L 681.443428 304.967983 
L 686.03868 305.969988 
L 690.633932 306.721066 
L 694.654777 307.167401 
L 698.675622 307.413867 
L 702.696468 307.458859 
L 706.717313 307.302062 
L 710.738159 306.944452 
L 714.759004 306.388291 
L 719.354256 305.514144 
L 723.949508 304.392587 
L 728.54476 303.032955 
L 733.140012 301.446571 
L 738.30967 299.407382 
L 743.479328 297.119503 
L 749.223393 294.315188 
L 755.541865 290.954016 
L 762.434742 287.017648 
L 771.05084 281.81166 
L 789.431847 270.321115 
L 798.622351 264.756376 
L 806.089635 260.498945 
L 812.408107 257.156849 
L 818.152171 254.373022 
L 823.32183 252.105918 
L 828.491488 250.08949 
L 833.08674 248.524811 
L 837.681992 247.188082 
L 842.277244 246.090433 
L 846.872496 245.241002 
L 850.893341 244.706966 
L 854.914186 244.371799 
L 858.935032 244.237619 
L 862.955877 244.305259 
L 866.976723 244.574257 
L 870.997568 245.042866 
L 875.59282 245.818899 
L 880.188072 246.845126 
L 884.783324 248.112928 
L 889.378576 249.611668 
L 893.973827 251.328778 
L 899.143486 253.503558 
L 904.313144 255.913389 
L 910.057209 258.835506 
L 916.37568 262.302797 
L 923.842965 266.668956 
L 933.607875 272.663462 
L 954.286508 285.450668 
L 961.753793 289.77379 
L 968.072264 293.192426 
L 973.816329 296.061254 
L 978.985987 298.416338 
L 984.155646 300.530541 
L 988.750898 302.189427 
L 993.346149 303.626329 
L 996.218182 304.406231 
L 996.218182 304.406231 
" style="fill:none;stroke:#55a868;stroke-linecap:round;stroke-width:1.4;"/>
   </g>
   <g id="patch_3">
    <path d="M 144 320.4 
L 144 43.2 
" style="fill:none;"/>
   </g>
   <g id="patch_4">
    <path d="M 1036.8 320.4 
L 1036.8 43.2 
" style="fill:none;"/>
   </g>
   <g id="patch_5">
    <path d="M 144 320.4 
L 1036.8 320.4 
" style="fill:none;"/>
   </g>
   <g id="patch_6">
    <path d="M 144 43.2 
L 1036.8 43.2 
" style="fill:none;"/>
   </g>
   <g id="legend_1">
    <g id="line2d_35">
     <path d="M 1002.75125 53.3975 
L 1018.75125 53.3975 
" style="fill:none;stroke:#4c72b0;stroke-linecap:round;stroke-width:1.4;"/>
    </g>
    <g id="line2d_36"/>
    <g id="text_17">
     <!-- a -->
     <defs>
      <path d="M 20.21875 -0.984375 
Q 12.25 -0.984375 8.25 3.21875 
Q 4.25 7.421875 4.25 14.75 
Q 4.25 19.96875 6.21875 23.3125 
Q 8.203125 26.65625 11.390625 28.5625 
Q 14.59375 30.46875 18.6875 31.203125 
Q 22.796875 31.9375 27.046875 32.03125 
L 38.921875 32.234375 
L 38.921875 35.109375 
Q 38.921875 38.375 38.234375 40.671875 
Q 37.546875 42.96875 36.125 44.375 
Q 34.71875 45.796875 32.59375 46.453125 
Q 30.46875 47.125 27.59375 47.125 
Q 25.046875 47.125 23 46.75 
Q 20.953125 46.390625 19.4375 45.4375 
Q 17.921875 44.484375 16.984375 42.84375 
Q 16.0625 41.21875 15.765625 38.71875 
L 6.59375 39.546875 
Q 7.078125 42.671875 8.4375 45.28125 
Q 9.8125 47.90625 12.328125 49.796875 
Q 14.84375 51.703125 18.625 52.75 
Q 22.40625 53.8125 27.78125 53.8125 
Q 37.75 53.8125 42.765625 49.234375 
Q 47.796875 44.671875 47.796875 36.03125 
L 47.796875 13.28125 
Q 47.796875 9.375 48.828125 7.390625 
Q 49.859375 5.421875 52.734375 5.421875 
Q 53.46875 5.421875 54.203125 5.515625 
Q 54.9375 5.609375 55.609375 5.765625 
L 55.609375 0.296875 
Q 53.953125 -0.09375 52.3125 -0.28125 
Q 50.6875 -0.484375 48.828125 -0.484375 
Q 46.34375 -0.484375 44.5625 0.171875 
Q 42.78125 0.828125 41.65625 2.171875 
Q 40.53125 3.515625 39.9375 5.484375 
Q 39.359375 7.46875 39.203125 10.109375 
L 38.921875 10.109375 
Q 37.5 7.5625 35.8125 5.515625 
Q 34.125 3.46875 31.875 2.03125 
Q 29.640625 0.59375 26.78125 -0.1875 
Q 23.921875 -0.984375 20.21875 -0.984375 
M 22.21875 5.609375 
Q 26.421875 5.609375 29.5625 7.140625 
Q 32.71875 8.6875 34.78125 11.078125 
Q 36.859375 13.484375 37.890625 16.3125 
Q 38.921875 19.140625 38.921875 21.734375 
L 38.921875 26.078125 
L 29.296875 25.875 
Q 26.078125 25.828125 23.171875 25.40625 
Q 20.265625 25 18.0625 23.78125 
Q 15.875 22.5625 14.578125 20.359375 
Q 13.28125 18.171875 13.28125 14.59375 
Q 13.28125 10.296875 15.59375 7.953125 
Q 17.921875 5.609375 22.21875 5.609375 
" id="LiberationSans-61"/>
     </defs>
     <g style="fill:#262626;" transform="translate(1025.15125 56.1975)scale(0.08 -0.08)">
      <use xlink:href="#LiberationSans-61"/>
     </g>
    </g>
    <g id="line2d_37">
     <path d="M 1002.75125 64.855 
L 1018.75125 64.855 
" style="fill:none;stroke:#55a868;stroke-linecap:round;stroke-width:1.4;"/>
    </g>
    <g id="line2d_38"/>
    <g id="text_18">
     <!-- b -->
     <defs>
      <path d="M 51.421875 26.65625 
Q 51.421875 -0.984375 31.984375 -0.984375 
Q 25.984375 -0.984375 22 1.1875 
Q 18.015625 3.375 15.53125 8.203125 
L 15.4375 8.203125 
Q 15.4375 6.9375 15.359375 5.5625 
Q 15.28125 4.203125 15.203125 3.03125 
Q 15.140625 1.859375 15.0625 1.03125 
Q 14.984375 0.203125 14.9375 0 
L 6.453125 0 
Q 6.5 0.4375 6.546875 1.484375 
Q 6.59375 2.546875 6.640625 4 
Q 6.6875 5.46875 6.703125 7.21875 
Q 6.734375 8.984375 6.734375 10.890625 
L 6.734375 72.46875 
L 15.53125 72.46875 
L 15.53125 51.8125 
Q 15.53125 50.34375 15.5 49 
Q 15.484375 47.65625 15.4375 46.625 
Q 15.375 45.40625 15.328125 44.34375 
L 15.53125 44.34375 
Q 17.96875 49.421875 22 51.609375 
Q 26.03125 53.8125 31.984375 53.8125 
Q 42 53.8125 46.703125 47.0625 
Q 51.421875 40.328125 51.421875 26.65625 
M 42.1875 26.375 
Q 42.1875 31.84375 41.5 35.75 
Q 40.828125 39.65625 39.3125 42.15625 
Q 37.796875 44.671875 35.453125 45.84375 
Q 33.109375 47.015625 29.734375 47.015625 
Q 26.265625 47.015625 23.609375 45.890625 
Q 20.953125 44.78125 19.171875 42.28125 
Q 17.390625 39.796875 16.453125 35.734375 
Q 15.53125 31.6875 15.53125 25.828125 
Q 15.53125 20.171875 16.453125 16.3125 
Q 17.390625 12.453125 19.171875 10.03125 
Q 20.953125 7.625 23.578125 6.5625 
Q 26.21875 5.515625 29.640625 5.515625 
Q 32.859375 5.515625 35.203125 6.640625 
Q 37.546875 7.765625 39.109375 10.25 
Q 40.671875 12.75 41.421875 16.71875 
Q 42.1875 20.703125 42.1875 26.375 
" id="LiberationSans-62"/>
     </defs>
     <g style="fill:#262626;" transform="translate(1025.15125 67.655)scale(0.08 -0.08)">
      <use xlink:href="#LiberationSans-62"/>
     </g>
    </g>
   </g>
  </g>
 </g>
 <defs>
  <clipPath id="p4398609499">
   <rect height="277.2" width="892.8" x="144" y="43.2"/>
  </clipPath>
 </defs>
</svg>
