<?xml version="1.0" encoding="utf-8" standalone="no"?>
<!DOCTYPE svg PUBLIC "-//W3C//DTD SVG 1.1//EN"
  "http://www.w3.org/Graphics/SVG/1.1/DTD/svg11.dtd">
<!-- Created with matplotlib (http://matplotlib.org/) -->
<svg height="360pt" version="1.1" viewBox="0 0 1152 360" width="1152pt" xmlns="http://www.w3.org/2000/svg" xmlns:xlink="http://www.w3.org/1999/xlink">
 <defs>
  <style type="text/css">
*{stroke-linecap:butt;stroke-linejoin:round;}
  </style>
 </defs>
 <g id="figure_1">
  <g id="patch_1">
   <path d="M 0 360 
L 1152 360 
L 1152 0 
L 0 0 
z
" style="fill:#ffffff;"/>
  </g>
  <g id="axes_1">
   <g id="patch_2">
    <path d="M 144 320.4 
L 1036.8 320.4 
L 1036.8 43.2 
L 144 43.2 
z
" style="fill:#eaeaf2;"/>
   </g>
   <g id="matplotlib.axis_1">
    <g id="xtick_1">
     <g id="line2d_1">
      <path clip-path="url(#pb8f72b3be5)" d="M 184.581818 320.4 
L 184.581818 43.2 
" style="fill:none;stroke:#ffffff;stroke-linecap:round;stroke-width:0.8;"/>
     </g>
     <g id="line2d_2"/>
     <g id="text_1">
      <!-- 0 -->
      <defs>
       <path d="M 51.703125 34.421875 
Q 51.703125 24.515625 49.828125 17.75 
Q 47.953125 10.984375 44.703125 6.8125 
Q 41.453125 2.640625 37.0625 0.828125 
Q 32.671875 -0.984375 27.6875 -0.984375 
Q 22.65625 -0.984375 18.3125 0.828125 
Q 13.96875 2.640625 10.765625 6.78125 
Q 7.5625 10.9375 5.734375 17.703125 
Q 3.90625 24.46875 3.90625 34.421875 
Q 3.90625 44.828125 5.734375 51.640625 
Q 7.5625 58.453125 10.78125 62.5 
Q 14.015625 66.546875 18.40625 68.1875 
Q 22.796875 69.828125 27.984375 69.828125 
Q 32.90625 69.828125 37.21875 68.1875 
Q 41.546875 66.546875 44.765625 62.5 
Q 48 58.453125 49.84375 51.640625 
Q 51.703125 44.828125 51.703125 34.421875 
M 42.78125 34.421875 
Q 42.78125 42.625 41.796875 48.0625 
Q 40.828125 53.515625 38.921875 56.765625 
Q 37.015625 60.015625 34.25 61.359375 
Q 31.5 62.703125 27.984375 62.703125 
Q 24.265625 62.703125 21.4375 61.328125 
Q 18.609375 59.96875 16.671875 56.71875 
Q 14.75 53.46875 13.765625 48.015625 
Q 12.796875 42.578125 12.796875 34.421875 
Q 12.796875 26.515625 13.796875 21.09375 
Q 14.796875 15.671875 16.71875 12.375 
Q 18.65625 9.078125 21.4375 7.640625 
Q 24.21875 6.203125 27.78125 6.203125 
Q 31.25 6.203125 34.03125 7.640625 
Q 36.8125 9.078125 38.734375 12.375 
Q 40.671875 15.671875 41.71875 21.09375 
Q 42.78125 26.515625 42.78125 34.421875 
" id="LiberationSans-30"/>
      </defs>
      <g style="fill:#262626;" transform="translate(182.357443 331.7975)scale(0.08 -0.08)">
       <use xlink:href="#LiberationSans-30"/>
      </g>
     </g>
    </g>
    <g id="xtick_2">
     <g id="line2d_3">
      <path clip-path="url(#pb8f72b3be5)" d="M 299.625952 320.4 
L 299.625952 43.2 
" style="fill:none;stroke:#ffffff;stroke-linecap:round;stroke-width:0.8;"/>
     </g>
     <g id="line2d_4"/>
     <g id="text_2">
      <!-- 200 -->
      <defs>
       <path d="M 5.03125 0 
L 5.03125 6.203125 
Q 7.515625 11.921875 11.109375 16.28125 
Q 14.703125 20.65625 18.65625 24.1875 
Q 22.609375 27.734375 26.484375 30.765625 
Q 30.375 33.796875 33.5 36.8125 
Q 36.625 39.84375 38.546875 43.15625 
Q 40.484375 46.484375 40.484375 50.6875 
Q 40.484375 53.609375 39.59375 55.828125 
Q 38.71875 58.0625 37.0625 59.5625 
Q 35.40625 61.078125 33.078125 61.828125 
Q 30.765625 62.59375 27.9375 62.59375 
Q 25.296875 62.59375 22.96875 61.859375 
Q 20.65625 61.140625 18.84375 59.671875 
Q 17.046875 58.203125 15.890625 56.03125 
Q 14.75 53.859375 14.40625 50.984375 
L 5.421875 51.8125 
Q 5.859375 55.515625 7.46875 58.78125 
Q 9.078125 62.0625 11.90625 64.53125 
Q 14.75 67 18.71875 68.40625 
Q 22.703125 69.828125 27.9375 69.828125 
Q 33.0625 69.828125 37.0625 68.609375 
Q 41.0625 67.390625 43.8125 64.984375 
Q 46.578125 62.59375 48.046875 59.078125 
Q 49.515625 55.5625 49.515625 50.984375 
Q 49.515625 47.515625 48.265625 44.390625 
Q 47.015625 41.265625 44.9375 38.421875 
Q 42.875 35.59375 40.140625 32.953125 
Q 37.40625 30.328125 34.421875 27.8125 
Q 31.453125 25.296875 28.421875 22.828125 
Q 25.390625 20.359375 22.71875 17.859375 
Q 20.0625 15.375 17.96875 12.8125 
Q 15.875 10.25 14.703125 7.46875 
L 50.59375 7.46875 
L 50.59375 0 
z
" id="LiberationSans-32"/>
      </defs>
      <g style="fill:#262626;" transform="translate(292.952827 331.7975)scale(0.08 -0.08)">
       <use xlink:href="#LiberationSans-32"/>
       <use x="55.615234" xlink:href="#LiberationSans-30"/>
       <use x="111.230469" xlink:href="#LiberationSans-30"/>
      </g>
     </g>
    </g>
    <g id="xtick_3">
     <g id="line2d_5">
      <path clip-path="url(#pb8f72b3be5)" d="M 414.670086 320.4 
L 414.670086 43.2 
" style="fill:none;stroke:#ffffff;stroke-linecap:round;stroke-width:0.8;"/>
     </g>
     <g id="line2d_6"/>
     <g id="text_3">
      <!-- 400 -->
      <defs>
       <path d="M 43.015625 15.578125 
L 43.015625 0 
L 34.71875 0 
L 34.71875 15.578125 
L 2.296875 15.578125 
L 2.296875 22.40625 
L 33.796875 68.796875 
L 43.015625 68.796875 
L 43.015625 22.515625 
L 52.6875 22.515625 
L 52.6875 15.578125 
z
M 34.71875 58.890625 
Q 34.625 58.640625 34.234375 57.9375 
Q 33.84375 57.234375 33.34375 56.34375 
Q 32.859375 55.46875 32.34375 54.5625 
Q 31.84375 53.65625 31.453125 53.078125 
L 13.8125 27.09375 
Q 13.578125 26.703125 13.109375 26.0625 
Q 12.640625 25.4375 12.15625 24.78125 
Q 11.671875 24.125 11.171875 23.484375 
Q 10.6875 22.859375 10.40625 22.515625 
L 34.71875 22.515625 
z
" id="LiberationSans-34"/>
      </defs>
      <g style="fill:#262626;" transform="translate(407.996961 331.7975)scale(0.08 -0.08)">
       <use xlink:href="#LiberationSans-34"/>
       <use x="55.615234" xlink:href="#LiberationSans-30"/>
       <use x="111.230469" xlink:href="#LiberationSans-30"/>
      </g>
     </g>
    </g>
    <g id="xtick_4">
     <g id="line2d_7">
      <path clip-path="url(#pb8f72b3be5)" d="M 529.714219 320.4 
L 529.714219 43.2 
" style="fill:none;stroke:#ffffff;stroke-linecap:round;stroke-width:0.8;"/>
     </g>
     <g id="line2d_8"/>
     <g id="text_4">
      <!-- 600 -->
      <defs>
       <path d="M 51.21875 22.515625 
Q 51.21875 17.328125 49.78125 13 
Q 48.34375 8.6875 45.53125 5.578125 
Q 42.71875 2.484375 38.5625 0.75 
Q 34.421875 -0.984375 29 -0.984375 
Q 23 -0.984375 18.5 1.3125 
Q 14.015625 3.609375 11.03125 7.921875 
Q 8.0625 12.25 6.5625 18.53125 
Q 5.078125 24.8125 5.078125 32.8125 
Q 5.078125 42 6.765625 48.921875 
Q 8.453125 55.859375 11.625 60.5 
Q 14.796875 65.140625 19.359375 67.484375 
Q 23.921875 69.828125 29.6875 69.828125 
Q 33.203125 69.828125 36.28125 69.09375 
Q 39.359375 68.359375 41.875 66.71875 
Q 44.390625 65.09375 46.28125 62.40625 
Q 48.1875 59.71875 49.3125 55.8125 
L 40.921875 54.296875 
Q 39.546875 58.734375 36.546875 60.71875 
Q 33.546875 62.703125 29.59375 62.703125 
Q 25.984375 62.703125 23.046875 60.984375 
Q 20.125 59.28125 18.0625 55.875 
Q 16.015625 52.484375 14.90625 47.359375 
Q 13.8125 42.234375 13.8125 35.40625 
Q 16.21875 39.84375 20.5625 42.15625 
Q 24.90625 44.484375 30.515625 44.484375 
Q 35.203125 44.484375 39.015625 42.96875 
Q 42.828125 41.453125 45.53125 38.59375 
Q 48.25 35.75 49.734375 31.671875 
Q 51.21875 27.59375 51.21875 22.515625 
M 42.28125 22.125 
Q 42.28125 25.6875 41.40625 28.5625 
Q 40.53125 31.453125 38.765625 33.46875 
Q 37.015625 35.5 34.421875 36.59375 
Q 31.84375 37.703125 28.421875 37.703125 
Q 26.03125 37.703125 23.578125 36.984375 
Q 21.140625 36.28125 19.15625 34.6875 
Q 17.1875 33.109375 15.9375 30.515625 
Q 14.703125 27.9375 14.703125 24.21875 
Q 14.703125 20.40625 15.671875 17.109375 
Q 16.65625 13.8125 18.484375 11.375 
Q 20.3125 8.9375 22.890625 7.515625 
Q 25.484375 6.109375 28.71875 6.109375 
Q 31.890625 6.109375 34.40625 7.203125 
Q 36.921875 8.296875 38.671875 10.375 
Q 40.4375 12.453125 41.359375 15.421875 
Q 42.28125 18.40625 42.28125 22.125 
" id="LiberationSans-36"/>
      </defs>
      <g style="fill:#262626;" transform="translate(523.041094 331.7975)scale(0.08 -0.08)">
       <use xlink:href="#LiberationSans-36"/>
       <use x="55.615234" xlink:href="#LiberationSans-30"/>
       <use x="111.230469" xlink:href="#LiberationSans-30"/>
      </g>
     </g>
    </g>
    <g id="xtick_5">
     <g id="line2d_9">
      <path clip-path="url(#pb8f72b3be5)" d="M 644.758353 320.4 
L 644.758353 43.2 
" style="fill:none;stroke:#ffffff;stroke-linecap:round;stroke-width:0.8;"/>
     </g>
     <g id="line2d_10"/>
     <g id="text_5">
      <!-- 800 -->
      <defs>
       <path d="M 51.265625 19.1875 
Q 51.265625 14.796875 49.875 11.109375 
Q 48.484375 7.421875 45.625 4.734375 
Q 42.78125 2.046875 38.328125 0.53125 
Q 33.890625 -0.984375 27.828125 -0.984375 
Q 21.78125 -0.984375 17.359375 0.53125 
Q 12.9375 2.046875 10.03125 4.703125 
Q 7.125 7.375 5.734375 11.0625 
Q 4.34375 14.75 4.34375 19.09375 
Q 4.34375 22.859375 5.484375 25.78125 
Q 6.640625 28.71875 8.5625 30.828125 
Q 10.5 32.953125 12.96875 34.25 
Q 15.4375 35.546875 18.0625 35.984375 
L 18.0625 36.1875 
Q 15.1875 36.859375 12.90625 38.375 
Q 10.640625 39.890625 9.09375 42.015625 
Q 7.5625 44.140625 6.75 46.71875 
Q 5.953125 49.3125 5.953125 52.203125 
Q 5.953125 55.8125 7.34375 59 
Q 8.734375 62.203125 11.46875 64.625 
Q 14.203125 67.046875 18.25 68.4375 
Q 22.3125 69.828125 27.640625 69.828125 
Q 33.25 69.828125 37.375 68.40625 
Q 41.5 67 44.203125 64.578125 
Q 46.921875 62.15625 48.234375 58.9375 
Q 49.5625 55.71875 49.5625 52.09375 
Q 49.5625 49.265625 48.75 46.671875 
Q 47.953125 44.09375 46.40625 41.96875 
Q 44.875 39.84375 42.59375 38.34375 
Q 40.328125 36.859375 37.359375 36.28125 
L 37.359375 36.078125 
Q 40.328125 35.59375 42.859375 34.296875 
Q 45.40625 33.015625 47.265625 30.890625 
Q 49.125 28.765625 50.1875 25.828125 
Q 51.265625 22.90625 51.265625 19.1875 
M 40.4375 51.609375 
Q 40.4375 54.203125 39.765625 56.34375 
Q 39.109375 58.5 37.59375 60.03125 
Q 36.078125 61.578125 33.640625 62.421875 
Q 31.203125 63.28125 27.640625 63.28125 
Q 24.171875 63.28125 21.78125 62.421875 
Q 19.390625 61.578125 17.84375 60.03125 
Q 16.3125 58.5 15.625 56.34375 
Q 14.9375 54.203125 14.9375 51.609375 
Q 14.9375 49.5625 15.46875 47.40625 
Q 16.015625 45.265625 17.421875 43.5 
Q 18.84375 41.75 21.328125 40.625 
Q 23.828125 39.5 27.734375 39.5 
Q 31.890625 39.5 34.40625 40.625 
Q 36.921875 41.75 38.25 43.5 
Q 39.59375 45.265625 40.015625 47.40625 
Q 40.4375 49.5625 40.4375 51.609375 
M 42.140625 20.015625 
Q 42.140625 22.515625 41.453125 24.828125 
Q 40.765625 27.15625 39.109375 28.9375 
Q 37.453125 30.71875 34.640625 31.8125 
Q 31.84375 32.90625 27.640625 32.90625 
Q 23.78125 32.90625 21.0625 31.8125 
Q 18.359375 30.71875 16.671875 28.90625 
Q 14.984375 27.09375 14.203125 24.71875 
Q 13.421875 22.359375 13.421875 19.828125 
Q 13.421875 16.65625 14.203125 14.03125 
Q 14.984375 11.421875 16.6875 9.546875 
Q 18.40625 7.671875 21.1875 6.640625 
Q 23.96875 5.609375 27.9375 5.609375 
Q 31.9375 5.609375 34.671875 6.640625 
Q 37.40625 7.671875 39.0625 9.546875 
Q 40.71875 11.421875 41.421875 14.078125 
Q 42.140625 16.75 42.140625 20.015625 
" id="LiberationSans-38"/>
      </defs>
      <g style="fill:#262626;" transform="translate(638.085228 331.7975)scale(0.08 -0.08)">
       <use xlink:href="#LiberationSans-38"/>
       <use x="55.615234" xlink:href="#LiberationSans-30"/>
       <use x="111.230469" xlink:href="#LiberationSans-30"/>
      </g>
     </g>
    </g>
    <g id="xtick_6">
     <g id="line2d_11">
      <path clip-path="url(#pb8f72b3be5)" d="M 759.802487 320.4 
L 759.802487 43.2 
" style="fill:none;stroke:#ffffff;stroke-linecap:round;stroke-width:0.8;"/>
     </g>
     <g id="line2d_12"/>
     <g id="text_6">
      <!-- 1000 -->
      <defs>
       <path d="M 7.625 0 
L 7.625 7.46875 
L 25.140625 7.46875 
L 25.140625 60.40625 
L 9.625 49.3125 
L 9.625 57.625 
L 25.875 68.796875 
L 33.984375 68.796875 
L 33.984375 7.46875 
L 50.734375 7.46875 
L 50.734375 0 
z
" id="LiberationSans-31"/>
      </defs>
      <g style="fill:#262626;" transform="translate(750.904987 331.7975)scale(0.08 -0.08)">
       <use xlink:href="#LiberationSans-31"/>
       <use x="55.615234" xlink:href="#LiberationSans-30"/>
       <use x="111.230469" xlink:href="#LiberationSans-30"/>
       <use x="166.845703" xlink:href="#LiberationSans-30"/>
      </g>
     </g>
    </g>
    <g id="xtick_7">
     <g id="line2d_13">
      <path clip-path="url(#pb8f72b3be5)" d="M 874.846621 320.4 
L 874.846621 43.2 
" style="fill:none;stroke:#ffffff;stroke-linecap:round;stroke-width:0.8;"/>
     </g>
     <g id="line2d_14"/>
     <g id="text_7">
      <!-- 1200 -->
      <g style="fill:#262626;" transform="translate(865.949121 331.7975)scale(0.08 -0.08)">
       <use xlink:href="#LiberationSans-31"/>
       <use x="55.615234" xlink:href="#LiberationSans-32"/>
       <use x="111.230469" xlink:href="#LiberationSans-30"/>
       <use x="166.845703" xlink:href="#LiberationSans-30"/>
      </g>
     </g>
    </g>
    <g id="xtick_8">
     <g id="line2d_15">
      <path clip-path="url(#pb8f72b3be5)" d="M 989.890754 320.4 
L 989.890754 43.2 
" style="fill:none;stroke:#ffffff;stroke-linecap:round;stroke-width:0.8;"/>
     </g>
     <g id="line2d_16"/>
     <g id="text_8">
      <!-- 1400 -->
      <g style="fill:#262626;" transform="translate(980.993254 331.7975)scale(0.08 -0.08)">
       <use xlink:href="#LiberationSans-31"/>
       <use x="55.615234" xlink:href="#LiberationSans-34"/>
       <use x="111.230469" xlink:href="#LiberationSans-30"/>
       <use x="166.845703" xlink:href="#LiberationSans-30"/>
      </g>
     </g>
    </g>
   </g>
   <g id="matplotlib.axis_2">
    <g id="ytick_1">
     <g id="line2d_17">
      <path clip-path="url(#pb8f72b3be5)" d="M 144 316.30296 
L 1036.8 316.30296 
" style="fill:none;stroke:#ffffff;stroke-linecap:round;stroke-width:0.8;"/>
     </g>
     <g id="line2d_18"/>
     <g id="text_9">
      <!-- −60000 -->
      <defs>
       <path d="M 4.9375 29.6875 
L 4.9375 36.8125 
L 53.515625 36.8125 
L 53.515625 29.6875 
z
" id="LiberationSans-2212"/>
      </defs>
      <g style="fill:#262626;" transform="translate(111.48375 319.20171)scale(0.08 -0.08)">
       <use xlink:href="#LiberationSans-2212"/>
       <use x="58.398438" xlink:href="#LiberationSans-36"/>
       <use x="114.013672" xlink:href="#LiberationSans-30"/>
       <use x="169.628906" xlink:href="#LiberationSans-30"/>
       <use x="225.244141" xlink:href="#LiberationSans-30"/>
       <use x="280.859375" xlink:href="#LiberationSans-30"/>
      </g>
     </g>
    </g>
    <g id="ytick_2">
     <g id="line2d_19">
      <path clip-path="url(#pb8f72b3be5)" d="M 144 283.843959 
L 1036.8 283.843959 
" style="fill:none;stroke:#ffffff;stroke-linecap:round;stroke-width:0.8;"/>
     </g>
     <g id="line2d_20"/>
     <g id="text_10">
      <!-- −40000 -->
      <g style="fill:#262626;" transform="translate(111.48375 286.742709)scale(0.08 -0.08)">
       <use xlink:href="#LiberationSans-2212"/>
       <use x="58.398438" xlink:href="#LiberationSans-34"/>
       <use x="114.013672" xlink:href="#LiberationSans-30"/>
       <use x="169.628906" xlink:href="#LiberationSans-30"/>
       <use x="225.244141" xlink:href="#LiberationSans-30"/>
       <use x="280.859375" xlink:href="#LiberationSans-30"/>
      </g>
     </g>
    </g>
    <g id="ytick_3">
     <g id="line2d_21">
      <path clip-path="url(#pb8f72b3be5)" d="M 144 251.384958 
L 1036.8 251.384958 
" style="fill:none;stroke:#ffffff;stroke-linecap:round;stroke-width:0.8;"/>
     </g>
     <g id="line2d_22"/>
     <g id="text_11">
      <!-- −20000 -->
      <g style="fill:#262626;" transform="translate(111.48375 254.283708)scale(0.08 -0.08)">
       <use xlink:href="#LiberationSans-2212"/>
       <use x="58.398438" xlink:href="#LiberationSans-32"/>
       <use x="114.013672" xlink:href="#LiberationSans-30"/>
       <use x="169.628906" xlink:href="#LiberationSans-30"/>
       <use x="225.244141" xlink:href="#LiberationSans-30"/>
       <use x="280.859375" xlink:href="#LiberationSans-30"/>
      </g>
     </g>
    </g>
    <g id="ytick_4">
     <g id="line2d_23">
      <path clip-path="url(#pb8f72b3be5)" d="M 144 218.925956 
L 1036.8 218.925956 
" style="fill:none;stroke:#ffffff;stroke-linecap:round;stroke-width:0.8;"/>
     </g>
     <g id="line2d_24"/>
     <g id="text_12">
      <!-- 0 -->
      <g style="fill:#262626;" transform="translate(133.95125 221.824706)scale(0.08 -0.08)">
       <use xlink:href="#LiberationSans-30"/>
      </g>
     </g>
    </g>
    <g id="ytick_5">
     <g id="line2d_25">
      <path clip-path="url(#pb8f72b3be5)" d="M 144 186.466955 
L 1036.8 186.466955 
" style="fill:none;stroke:#ffffff;stroke-linecap:round;stroke-width:0.8;"/>
     </g>
     <g id="line2d_26"/>
     <g id="text_13">
      <!-- 20000 -->
      <g style="fill:#262626;" transform="translate(116.15625 189.365705)scale(0.08 -0.08)">
       <use xlink:href="#LiberationSans-32"/>
       <use x="55.615234" xlink:href="#LiberationSans-30"/>
       <use x="111.230469" xlink:href="#LiberationSans-30"/>
       <use x="166.845703" xlink:href="#LiberationSans-30"/>
       <use x="222.460938" xlink:href="#LiberationSans-30"/>
      </g>
     </g>
    </g>
    <g id="ytick_6">
     <g id="line2d_27">
      <path clip-path="url(#pb8f72b3be5)" d="M 144 154.007954 
L 1036.8 154.007954 
" style="fill:none;stroke:#ffffff;stroke-linecap:round;stroke-width:0.8;"/>
     </g>
     <g id="line2d_28"/>
     <g id="text_14">
      <!-- 40000 -->
      <g style="fill:#262626;" transform="translate(116.15625 156.906704)scale(0.08 -0.08)">
       <use xlink:href="#LiberationSans-34"/>
       <use x="55.615234" xlink:href="#LiberationSans-30"/>
       <use x="111.230469" xlink:href="#LiberationSans-30"/>
       <use x="166.845703" xlink:href="#LiberationSans-30"/>
       <use x="222.460938" xlink:href="#LiberationSans-30"/>
      </g>
     </g>
    </g>
    <g id="ytick_7">
     <g id="line2d_29">
      <path clip-path="url(#pb8f72b3be5)" d="M 144 121.548953 
L 1036.8 121.548953 
" style="fill:none;stroke:#ffffff;stroke-linecap:round;stroke-width:0.8;"/>
     </g>
     <g id="line2d_30"/>
     <g id="text_15">
      <!-- 60000 -->
      <g style="fill:#262626;" transform="translate(116.15625 124.447703)scale(0.08 -0.08)">
       <use xlink:href="#LiberationSans-36"/>
       <use x="55.615234" xlink:href="#LiberationSans-30"/>
       <use x="111.230469" xlink:href="#LiberationSans-30"/>
       <use x="166.845703" xlink:href="#LiberationSans-30"/>
       <use x="222.460938" xlink:href="#LiberationSans-30"/>
      </g>
     </g>
    </g>
    <g id="ytick_8">
     <g id="line2d_31">
      <path clip-path="url(#pb8f72b3be5)" d="M 144 89.089952 
L 1036.8 89.089952 
" style="fill:none;stroke:#ffffff;stroke-linecap:round;stroke-width:0.8;"/>
     </g>
     <g id="line2d_32"/>
     <g id="text_16">
      <!-- 80000 -->
      <g style="fill:#262626;" transform="translate(116.15625 91.988702)scale(0.08 -0.08)">
       <use xlink:href="#LiberationSans-38"/>
       <use x="55.615234" xlink:href="#LiberationSans-30"/>
       <use x="111.230469" xlink:href="#LiberationSans-30"/>
       <use x="166.845703" xlink:href="#LiberationSans-30"/>
       <use x="222.460938" xlink:href="#LiberationSans-30"/>
      </g>
     </g>
    </g>
    <g id="ytick_9">
     <g id="line2d_33">
      <path clip-path="url(#pb8f72b3be5)" d="M 144 56.63095 
L 1036.8 56.63095 
" style="fill:none;stroke:#ffffff;stroke-linecap:round;stroke-width:0.8;"/>
     </g>
     <g id="line2d_34"/>
     <g id="text_17">
      <!-- 100000 -->
      <g style="fill:#262626;" transform="translate(111.7075 59.5297)scale(0.08 -0.08)">
       <use xlink:href="#LiberationSans-31"/>
       <use x="55.615234" xlink:href="#LiberationSans-30"/>
       <use x="111.230469" xlink:href="#LiberationSans-30"/>
       <use x="166.845703" xlink:href="#LiberationSans-30"/>
       <use x="222.460938" xlink:href="#LiberationSans-30"/>
       <use x="278.076172" xlink:href="#LiberationSans-30"/>
      </g>
     </g>
    </g>
   </g>
   <g id="line2d_35">
    <path clip-path="url(#pb8f72b3be5)" d="M 184.581818 218.925956 
L 187.457922 218.926163 
L 188.033142 218.271774 
L 188.608363 215.661052 
L 189.758804 206.479958 
L 190.334025 203.782015 
L 190.909246 205.142874 
L 192.059687 214.871649 
L 192.634908 216.494371 
L 193.210128 213.782195 
L 193.785349 208.614543 
L 194.36057 204.481733 
L 194.93579 204.453737 
L 195.511011 209.947488 
L 196.086232 220.402737 
L 197.811894 260.12146 
L 198.387114 269.090531 
L 198.962335 272.424395 
L 199.537556 266.6316 
L 200.112776 248.911419 
L 201.838438 164.494484 
L 202.413659 150.888482 
L 202.98888 152.112186 
L 203.5641 166.749897 
L 205.289762 237.310897 
L 205.864983 251.158069 
L 206.440204 255.306005 
L 207.015424 250.284922 
L 207.590645 238.578421 
L 208.741086 209.854071 
L 209.316307 199.736357 
L 209.891528 195.159313 
L 210.466748 196.262757 
L 211.041969 201.815681 
L 212.19241 217.670752 
L 212.767631 223.831161 
L 213.342852 227.108627 
L 213.918072 227.293449 
L 214.493293 224.945868 
L 216.218955 213.888985 
L 216.794176 212.177113 
L 217.369396 212.11411 
L 217.944617 213.38118 
L 219.095058 217.208875 
L 219.670279 218.553191 
L 220.2455 218.98931 
L 220.82072 218.595801 
L 222.546382 215.636837 
L 223.121603 215.252896 
L 223.696824 215.493417 
L 224.272044 216.348322 
L 226.572927 221.292088 
L 227.148148 221.680232 
L 227.723368 221.494437 
L 228.298589 220.805105 
L 230.024251 217.885694 
L 230.599472 217.225624 
L 231.174692 216.836944 
L 231.749913 216.604456 
L 232.325134 216.515908 
L 232.900354 216.579479 
L 234.050796 217.05192 
L 234.626016 217.482808 
L 238.07734 220.875736 
L 239.227782 221.727558 
L 240.378223 222.243964 
L 241.528664 222.280091 
L 242.679106 222.120214 
L 243.254326 221.848614 
L 244.404768 221.096912 
L 244.979988 220.897403 
L 245.555209 220.835698 
L 246.70565 221.051469 
L 247.280871 221.336621 
L 248.431312 222.290527 
L 251.307416 225.456578 
L 251.882636 225.745901 
L 252.457857 225.882018 
L 253.608298 225.782287 
L 254.75874 225.385184 
L 258.210064 223.974532 
L 259.360505 223.87412 
L 259.935726 223.946504 
L 261.086167 224.4268 
L 263.96227 226.183838 
L 265.112712 226.367134 
L 266.263153 226.179001 
L 267.988815 225.495042 
L 270.289698 224.4967 
L 271.440139 224.246831 
L 272.590581 224.2981 
L 273.741022 224.607499 
L 276.617125 225.482204 
L 277.767567 225.60485 
L 278.918008 225.51429 
L 280.64367 225.062395 
L 282.944553 224.385187 
L 284.670215 224.186587 
L 286.395877 224.257299 
L 288.696759 224.363926 
L 290.422421 224.226511 
L 292.723304 223.814899 
L 294.448966 223.464212 
L 296.174628 223.359223 
L 299.625952 223.234305 
L 305.378159 222.599017 
L 307.103821 222.827431 
L 309.404703 223.361106 
L 310.555145 223.567139 
L 311.705586 223.534891 
L 313.431248 223.130095 
L 316.307351 222.32964 
L 317.457793 222.286112 
L 318.608234 222.522138 
L 322.634779 223.847634 
L 323.78522 223.837961 
L 324.935661 223.545132 
L 327.236544 222.513763 
L 328.962206 221.75247 
L 330.112647 221.559485 
L 331.263089 221.72303 
L 332.41353 222.350722 
L 334.139192 223.481253 
L 335.289633 223.90171 
L 336.440075 224.119478 
L 337.015295 224.057741 
L 337.590516 223.881732 
L 338.740957 223.096808 
L 339.891399 222.300832 
L 341.617061 221.441091 
L 342.192281 221.272174 
L 342.767502 221.245639 
L 343.342723 221.335891 
L 344.493164 221.911389 
L 346.794047 223.481123 
L 348.519709 224.292338 
L 349.094929 224.356607 
L 349.67015 224.217536 
L 350.245371 223.821001 
L 353.696695 220.361879 
L 354.847136 219.679675 
L 355.997577 219.346821 
L 357.148019 219.426739 
L 358.29846 219.840869 
L 360.599343 221.108289 
L 361.174563 221.169101 
L 361.749784 221.075619 
L 362.325005 220.773701 
L 363.475446 219.731756 
L 364.625888 218.222037 
L 366.35155 215.666862 
L 366.92677 215.030779 
L 367.501991 214.568595 
L 368.077212 214.31931 
L 368.652432 214.287062 
L 369.227653 214.435854 
L 370.378094 215.120528 
L 372.103756 216.716326 
L 373.254198 217.660015 
L 373.829418 217.909547 
L 374.404639 217.944604 
L 374.97986 217.776726 
L 375.55508 217.442728 
L 376.705522 216.367116 
L 379.581625 212.976936 
L 380.156846 212.543786 
L 380.732066 212.300847 
L 381.307287 212.279018 
L 381.882508 212.499431 
L 382.457728 212.964715 
L 383.032949 213.666267 
L 384.18339 215.655193 
L 388.209935 223.773806 
L 388.785156 224.552562 
L 389.360376 225.093248 
L 389.935597 225.291978 
L 390.510818 224.959371 
L 391.086038 223.70186 
L 391.661259 220.885766 
L 392.23648 215.989618 
L 392.8117 209.872849 
L 393.386921 205.594055 
L 393.962142 206.216797 
L 394.537362 211.820551 
L 395.112583 219.42527 
L 395.687804 225.191258 
L 396.263024 226.676874 
L 396.838245 223.700822 
L 397.988686 211.800118 
L 398.563907 207.525252 
L 399.139128 206.258312 
L 399.714348 208.059186 
L 400.289569 212.248296 
L 401.44001 223.187385 
L 402.015231 227.047669 
L 402.590452 227.63667 
L 403.165672 223.67216 
L 404.316114 210.052931 
L 404.891334 210.996271 
L 405.466555 220.59977 
L 406.616996 247.402887 
L 407.192217 251.911767 
L 407.767438 246.203203 
L 408.342658 232.012306 
L 409.4931 197.037716 
L 410.06832 185.538952 
L 410.643541 181.281305 
L 411.218762 184.141917 
L 411.793982 192.458075 
L 412.944424 214.765589 
L 413.519644 223.352958 
L 414.094865 227.778143 
L 414.670086 227.612277 
L 415.245306 223.615357 
L 416.970968 205.843713 
L 417.546189 203.290569 
L 418.12141 203.585914 
L 418.69663 206.455435 
L 419.271851 211.380066 
L 419.847072 218.112253 
L 420.997513 235.635039 
L 421.572734 238.264705 
L 422.147954 224.894875 
L 422.723175 192.06662 
L 423.873616 103.373373 
L 424.448837 74.487783 
L 425.024058 68.201286 
L 425.599278 85.270176 
L 426.174499 120.447943 
L 427.32494 209.04245 
L 427.900161 245.008549 
L 428.475382 267.602935 
L 429.050602 274.791793 
L 429.625823 267.969722 
L 430.201044 251.388041 
L 431.351485 212.183394 
L 431.926706 199.706333 
L 432.501926 195.428885 
L 433.077147 198.809328 
L 433.652368 207.484272 
L 434.802809 227.335094 
L 435.37803 232.931999 
L 435.95325 233.897476 
L 436.528471 230.599625 
L 438.254133 211.910917 
L 438.829354 208.559898 
L 439.404574 208.246296 
L 439.979795 210.780192 
L 441.705457 224.4342 
L 442.280678 227.161194 
L 442.855898 228.011036 
L 443.431119 227.190051 
L 444.00634 225.222743 
L 445.156781 220.746712 
L 445.732002 219.41653 
L 446.307222 219.002291 
L 446.882443 219.414607 
L 448.608105 222.518811 
L 449.183326 222.937694 
L 449.758546 222.798997 
L 450.333767 222.144283 
L 451.484208 220.286198 
L 452.059429 219.652588 
L 452.63465 219.506383 
L 453.20987 219.836362 
L 453.785091 220.594041 
L 455.510753 223.675925 
L 456.085974 224.372252 
L 456.661195 224.69853 
L 457.236415 224.671167 
L 457.811636 224.374037 
L 459.537298 223.12706 
L 460.687739 222.534099 
L 461.838181 222.256217 
L 462.988622 222.256623 
L 465.289505 222.512416 
L 465.864725 222.656891 
L 466.439946 222.954183 
L 469.316049 225.270068 
L 470.466491 225.637699 
L 471.616932 225.596671 
L 472.767373 225.201158 
L 474.493035 224.478101 
L 475.643477 224.26246 
L 476.793918 224.360145 
L 477.944359 224.809556 
L 479.670021 225.60128 
L 481.395683 226.063739 
L 482.546125 226.241647 
L 483.696566 226.230481 
L 484.847007 226.014532 
L 489.448773 224.795615 
L 490.599214 224.801928 
L 493.475317 225.018657 
L 495.200979 224.875708 
L 501.528407 224.004216 
L 506.130172 223.661157 
L 510.156717 223.002774 
L 511.882379 223.066573 
L 514.758482 223.374852 
L 515.908923 223.34215 
L 517.059365 223.146925 
L 518.785027 222.592834 
L 521.085909 221.822176 
L 522.236351 221.689678 
L 523.386792 221.83378 
L 524.537233 222.224099 
L 527.413337 223.367029 
L 528.563778 223.524959 
L 529.714219 223.395934 
L 530.864661 223.005144 
L 533.165543 222.036876 
L 534.315985 221.889301 
L 535.466426 222.179403 
L 537.192088 223.113898 
L 540.068191 225.031657 
L 541.218633 225.367916 
L 541.793853 225.319097 
L 542.369074 225.111652 
L 543.519515 224.319052 
L 545.245178 223.016212 
L 546.395619 222.453552 
L 546.97084 222.361417 
L 548.121281 222.503068 
L 549.271722 222.878148 
L 550.422164 223.482129 
L 552.723046 224.825088 
L 553.298267 224.911656 
L 553.873488 224.877671 
L 554.448708 224.659206 
L 555.59915 223.788477 
L 557.324812 221.904037 
L 558.475253 220.682946 
L 559.050474 220.224437 
L 559.625694 219.91778 
L 560.200915 219.754554 
L 560.776136 219.717172 
L 561.351356 219.818866 
L 561.926577 220.059303 
L 563.077018 220.879664 
L 564.22746 221.80223 
L 566.528342 222.994416 
L 567.103563 222.962395 
L 567.678784 222.691963 
L 568.254004 222.179793 
L 569.979666 219.901361 
L 571.130108 218.499877 
L 571.705328 218.001053 
L 572.280549 217.700152 
L 572.85577 217.595194 
L 573.43099 217.678815 
L 574.581432 218.258674 
L 575.731873 219.333223 
L 578.032756 221.6208 
L 578.607976 222.031114 
L 579.183197 222.220431 
L 579.758418 222.149508 
L 580.333638 221.829674 
L 581.48408 220.632764 
L 583.209742 218.132816 
L 584.360183 216.565911 
L 584.935404 215.971278 
L 585.510624 215.580358 
L 586.085845 215.424945 
L 586.661066 215.546358 
L 587.236286 215.959447 
L 587.811507 216.661454 
L 588.386728 217.647273 
L 588.961948 218.92488 
L 590.11239 222.404993 
L 591.262831 227.069433 
L 592.413272 233.088938 
L 593.563714 241.160859 
L 594.714155 249.550862 
L 595.289376 249.488703 
L 595.864596 241.475874 
L 596.439817 224.459908 
L 597.590258 186.707476 
L 598.165479 179.221944 
L 598.7407 181.612712 
L 599.31592 190.653193 
L 600.466362 211.100611 
L 601.041582 216.454918 
L 601.616803 217.669303 
L 602.192024 215.917121 
L 603.342465 209.912692 
L 603.917686 208.807366 
L 604.492906 210.524463 
L 605.643348 219.133825 
L 606.218568 219.877206 
L 606.793789 215.733094 
L 607.36901 209.276772 
L 607.94423 204.430432 
L 608.519451 203.425404 
L 609.094672 205.777042 
L 609.669892 209.241034 
L 610.245113 211.419569 
L 610.820334 210.93442 
L 611.395554 207.818502 
L 612.545996 198.718281 
L 613.121216 195.493154 
L 613.696437 194.351733 
L 614.271658 195.787557 
L 614.846878 200.21107 
L 615.422099 207.98281 
L 616.57254 229.893317 
L 617.147761 234.332037 
L 617.722982 225.38955 
L 618.298202 203.247334 
L 619.448644 153.202322 
L 620.023864 144.231141 
L 620.599085 151.492706 
L 621.174306 172.022213 
L 622.324747 224.963071 
L 622.899968 243.74703 
L 623.475188 252.441336 
L 624.050409 250.875676 
L 624.62563 241.082308 
L 626.351292 198.932835 
L 626.926512 191.832753 
L 627.501733 190.729147 
L 628.076954 194.753414 
L 629.802616 215.909298 
L 630.377836 219.298422 
L 630.953057 219.523535 
L 631.528278 217.184271 
L 632.678719 209.806421 
L 633.25394 207.292683 
L 633.82916 206.630438 
L 634.404381 207.896404 
L 634.979602 210.623122 
L 636.130043 217.215838 
L 636.705264 219.459487 
L 637.280485 220.324388 
L 637.855705 219.758845 
L 638.430926 218.048763 
L 640.156588 211.375068 
L 640.731809 210.217109 
L 641.307029 209.884631 
L 641.88225 210.233517 
L 643.032691 211.90785 
L 643.607912 212.735538 
L 644.183133 213.332134 
L 644.758353 213.577102 
L 645.333574 213.537243 
L 646.484015 213.255125 
L 647.059236 213.322251 
L 647.634457 213.626586 
L 648.209677 214.138708 
L 649.360119 215.420498 
L 649.935339 215.822876 
L 650.51056 215.939323 
L 651.085781 215.737898 
L 651.661001 215.27599 
L 652.811443 213.846139 
L 653.961884 212.451327 
L 654.537105 212.008765 
L 655.112325 211.810489 
L 655.687546 211.906697 
L 656.837987 212.708662 
L 660.864532 216.084236 
L 662.014973 216.92098 
L 662.590194 217.196671 
L 663.165415 217.341962 
L 663.740635 217.339177 
L 664.891077 216.95451 
L 666.041518 216.375377 
L 667.76718 216.03803 
L 668.917621 216.26896 
L 669.492842 216.508329 
L 670.643283 217.410491 
L 672.944166 219.612239 
L 674.094607 220.327841 
L 675.245049 220.671731 
L 676.39549 220.741762 
L 678.121152 220.481354 
L 680.422035 219.8134 
L 680.997255 219.745332 
L 682.147697 219.98066 
L 686.174241 221.877259 
L 687.324683 222.104179 
L 689.050345 222.094912 
L 690.776007 221.815035 
L 693.076889 221.398732 
L 694.227331 221.382876 
L 696.528213 221.832108 
L 697.678655 222.172733 
L 698.829096 222.282493 
L 702.28042 222.223028 
L 711.483951 221.711685 
L 714.360054 221.120493 
L 715.510495 221.056257 
L 717.811378 221.330519 
L 720.112261 221.505619 
L 721.837923 221.355594 
L 723.563585 220.912496 
L 725.864467 220.285516 
L 727.014909 220.239705 
L 728.16535 220.435675 
L 729.315792 220.863304 
L 732.191895 222.084444 
L 733.342336 222.31341 
L 734.492778 222.198083 
L 735.643219 221.759611 
L 737.944102 220.747052 
L 739.094543 220.511342 
L 740.244984 220.595096 
L 741.395426 220.992167 
L 743.121088 222.040316 
L 744.271529 222.704006 
L 744.84675 222.926739 
L 745.997191 223.066735 
L 746.572412 223.014216 
L 747.722853 222.525708 
L 751.174177 220.30618 
L 752.324618 220.07389 
L 752.899839 220.138849 
L 753.47506 220.33951 
L 754.625501 221.078735 
L 757.501604 223.455042 
L 758.652046 223.879346 
L 759.227266 223.859205 
L 759.802487 223.642915 
L 760.952928 222.788334 
L 762.10337 221.857864 
L 763.253811 221.215274 
L 764.404252 220.834026 
L 764.979473 220.771802 
L 765.554694 220.8684 
L 766.129914 221.118854 
L 767.280356 221.966602 
L 768.430797 223.182857 
L 769.581238 224.329423 
L 770.73168 225.114314 
L 771.3069 225.273541 
L 771.882121 225.254666 
L 772.457342 225.050094 
L 773.607783 224.17667 
L 774.758224 222.875162 
L 776.483886 220.752652 
L 777.059107 220.369084 
L 777.634328 220.184424 
L 778.209548 220.157962 
L 778.784769 220.277973 
L 779.35999 220.537153 
L 781.085652 221.85108 
L 783.386534 223.713497 
L 783.961755 223.81743 
L 784.536976 223.711776 
L 785.112196 223.46043 
L 785.687417 223.011392 
L 786.262638 222.337754 
L 787.413079 220.433323 
L 788.56352 218.492921 
L 789.138741 217.755946 
L 789.713962 217.224293 
L 790.289182 216.934142 
L 790.864403 216.887223 
L 791.439624 217.13112 
L 792.014844 217.716721 
L 792.590065 218.724509 
L 793.165286 220.254266 
L 793.740506 222.407622 
L 794.315727 225.287986 
L 794.890948 229.045683 
L 795.466168 233.920327 
L 796.041389 240.276838 
L 796.61661 248.65759 
L 797.19183 259.702739 
L 798.342272 288.305286 
L 798.917492 296.016571 
L 799.492713 282.993208 
L 800.067934 240.396936 
L 801.218375 110.117217 
L 801.793596 65.513681 
L 802.368816 55.8 
L 802.944037 82.07475 
L 804.094478 196.322969 
L 804.669699 252.163487 
L 805.24492 290.74247 
L 805.82014 307.8 
L 806.395361 305.217237 
L 806.970582 289.581899 
L 808.121023 252.858759 
L 808.696244 236.762989 
L 809.271464 211.318881 
L 809.846685 170.201587 
L 810.997126 79.783307 
L 811.572347 63.960517 
L 812.147568 80.682421 
L 812.722788 125.437541 
L 813.87323 241.827892 
L 814.44845 283.168649 
L 815.023671 301.761977 
L 815.598892 297.574928 
L 816.174112 275.650495 
L 817.324554 211.971242 
L 817.899774 187.189168 
L 818.474995 173.798532 
L 819.050216 170.45915 
L 819.625437 172.585052 
L 820.775878 179.954868 
L 821.351099 184.775192 
L 821.926319 191.99732 
L 824.227202 229.667289 
L 824.802423 232.306725 
L 825.377643 230.86561 
L 825.952864 226.316254 
L 827.678526 207.160023 
L 828.253747 202.432889 
L 828.828967 199.272356 
L 829.404188 197.377724 
L 829.979409 196.030513 
L 830.554629 194.378837 
L 831.12985 192.083174 
L 831.705071 190.246644 
L 832.280291 191.992451 
L 832.855512 200.009824 
L 834.005953 225.153329 
L 834.581174 232.722833 
L 835.156395 233.70243 
L 835.731615 229.083384 
L 836.882057 214.169512 
L 837.457277 209.361084 
L 838.032498 208.17362 
L 838.607719 210.317553 
L 839.182939 214.758578 
L 840.333381 225.215862 
L 840.908601 228.647427 
L 841.483822 229.761875 
L 842.059043 228.466533 
L 842.634263 225.267423 
L 843.784705 216.973158 
L 844.359925 213.806393 
L 844.935146 212.093613 
L 845.510367 211.875829 
L 846.085587 212.811557 
L 847.236029 215.937456 
L 847.811249 217.067727 
L 848.38647 217.53433 
L 848.961691 217.318131 
L 850.687353 215.107171 
L 851.262573 214.901462 
L 851.837794 215.216736 
L 852.413015 216.013913 
L 854.138677 219.112876 
L 854.713897 219.616048 
L 855.289118 219.636572 
L 855.864339 219.195303 
L 857.01478 217.428392 
L 858.165221 215.721393 
L 858.740442 215.233713 
L 859.315663 215.010265 
L 859.890883 215.017941 
L 861.041325 215.59899 
L 865.067869 218.267362 
L 866.218311 219.26 
L 867.368752 219.833789 
L 867.943973 219.889706 
L 868.519193 219.778364 
L 869.669635 219.155735 
L 871.970517 217.571205 
L 872.545738 217.363567 
L 873.696179 217.476493 
L 874.846621 217.876865 
L 877.722724 219.57377 
L 880.023607 220.631628 
L 881.174048 220.669053 
L 882.324489 220.266929 
L 884.050151 219.215221 
L 884.625372 219.056455 
L 885.200593 219.027334 
L 886.351034 219.319429 
L 888.076696 220.049515 
L 890.377579 220.797007 
L 892.678461 222.017271 
L 893.828903 222.297278 
L 894.404123 222.271084 
L 897.855447 221.494226 
L 898.430668 221.515909 
L 903.032433 222.799159 
L 904.758095 222.870731 
L 908.209419 222.871673 
L 910.510302 222.608901 
L 916.83773 222.403176 
L 919.713833 221.970302 
L 921.439495 222.0372 
L 924.890819 222.453941 
L 926.616481 222.315098 
L 927.766922 222.010081 
L 930.643026 220.997944 
L 931.793467 220.816661 
L 932.943908 220.854378 
L 934.09435 221.109084 
L 936.395232 221.781991 
L 937.545674 221.897172 
L 938.696115 221.775191 
L 939.846556 221.396654 
L 941.572218 220.429352 
L 943.29788 219.531585 
L 944.448322 219.275621 
L 945.598763 219.433583 
L 946.749204 219.991795 
L 949.625308 221.677814 
L 950.775749 221.936383 
L 951.92619 221.813038 
L 953.076632 221.343665 
L 955.377514 220.119576 
L 956.527956 219.843303 
L 957.103176 219.8764 
L 957.678397 220.037947 
L 958.828838 220.729898 
L 960.5545 222.391263 
L 961.704942 223.486446 
L 962.855383 224.27533 
L 963.430604 224.49149 
L 964.005824 224.578545 
L 965.156266 224.283607 
L 966.306707 223.549124 
L 968.60759 221.696998 
L 969.18281 221.474166 
L 969.758031 221.382015 
L 970.333252 221.421794 
L 970.908472 221.609764 
L 971.483693 221.953862 
L 972.634134 223.005079 
L 973.784576 224.280669 
L 974.935017 225.207812 
L 975.510238 225.371129 
L 976.085458 225.314358 
L 977.2359 224.87673 
L 978.386341 224.206354 
L 979.536782 223.046286 
L 981.262444 220.816823 
L 981.837665 220.278469 
L 982.412886 219.926143 
L 982.988106 219.781214 
L 983.563327 219.909758 
L 984.138548 220.29681 
L 985.288989 221.542931 
L 987.014651 223.944621 
L 988.165092 225.079907 
L 988.740313 225.45489 
L 989.315534 225.694632 
L 989.890754 225.751143 
L 990.465975 225.587761 
L 991.041196 225.186924 
L 992.191637 223.830447 
L 993.342078 222.499822 
L 993.917299 222.062648 
L 994.49252 221.889057 
L 995.06774 222.074999 
L 995.642961 222.691136 
L 996.218182 223.818031 
L 996.218182 223.818031 
" style="fill:none;stroke:#4c72b0;stroke-linecap:round;stroke-width:1.4;"/>
   </g>
   <g id="patch_3">
    <path d="M 144 320.4 
L 144 43.2 
" style="fill:none;"/>
   </g>
   <g id="patch_4">
    <path d="M 1036.8 320.4 
L 1036.8 43.2 
" style="fill:none;"/>
   </g>
   <g id="patch_5">
    <path d="M 144 320.4 
L 1036.8 320.4 
" style="fill:none;"/>
   </g>
   <g id="patch_6">
    <path d="M 144 43.2 
L 1036.8 43.2 
" style="fill:none;"/>
   </g>
  </g>
 </g>
 <defs>
  <clipPath id="pb8f72b3be5">
   <rect height="277.2" width="892.8" x="144" y="43.2"/>
  </clipPath>
 </defs>
</svg>
