<?xml version="1.0" encoding="utf-8" standalone="no"?>
<!DOCTYPE svg PUBLIC "-//W3C//DTD SVG 1.1//EN"
  "http://www.w3.org/Graphics/SVG/1.1/DTD/svg11.dtd">
<!-- Created with matplotlib (http://matplotlib.org/) -->
<svg height="360pt" version="1.1" viewBox="0 0 1152 360" width="1152pt" xmlns="http://www.w3.org/2000/svg" xmlns:xlink="http://www.w3.org/1999/xlink">
 <defs>
  <style type="text/css">
*{stroke-linecap:butt;stroke-linejoin:round;}
  </style>
 </defs>
 <g id="figure_1">
  <g id="patch_1">
   <path d="M 0 360 
L 1152 360 
L 1152 0 
L 0 0 
z
" style="fill:#ffffff;"/>
  </g>
  <g id="axes_1">
   <g id="patch_2">
    <path d="M 144 320.4 
L 1036.8 320.4 
L 1036.8 43.2 
L 144 43.2 
z
" style="fill:#eaeaf2;"/>
   </g>
   <g id="matplotlib.axis_1">
    <g id="xtick_1">
     <g id="line2d_1">
      <path clip-path="url(#pde84a39b88)" d="M 184.581818 320.4 
L 184.581818 43.2 
" style="fill:none;stroke:#ffffff;stroke-linecap:round;stroke-width:0.8;"/>
     </g>
     <g id="line2d_2"/>
     <g id="text_1">
      <!-- 0.000 -->
      <defs>
       <path d="M 51.703125 34.421875 
Q 51.703125 24.515625 49.828125 17.75 
Q 47.953125 10.984375 44.703125 6.8125 
Q 41.453125 2.640625 37.0625 0.828125 
Q 32.671875 -0.984375 27.6875 -0.984375 
Q 22.65625 -0.984375 18.3125 0.828125 
Q 13.96875 2.640625 10.765625 6.78125 
Q 7.5625 10.9375 5.734375 17.703125 
Q 3.90625 24.46875 3.90625 34.421875 
Q 3.90625 44.828125 5.734375 51.640625 
Q 7.5625 58.453125 10.78125 62.5 
Q 14.015625 66.546875 18.40625 68.1875 
Q 22.796875 69.828125 27.984375 69.828125 
Q 32.90625 69.828125 37.21875 68.1875 
Q 41.546875 66.546875 44.765625 62.5 
Q 48 58.453125 49.84375 51.640625 
Q 51.703125 44.828125 51.703125 34.421875 
M 42.78125 34.421875 
Q 42.78125 42.625 41.796875 48.0625 
Q 40.828125 53.515625 38.921875 56.765625 
Q 37.015625 60.015625 34.25 61.359375 
Q 31.5 62.703125 27.984375 62.703125 
Q 24.265625 62.703125 21.4375 61.328125 
Q 18.609375 59.96875 16.671875 56.71875 
Q 14.75 53.46875 13.765625 48.015625 
Q 12.796875 42.578125 12.796875 34.421875 
Q 12.796875 26.515625 13.796875 21.09375 
Q 14.796875 15.671875 16.71875 12.375 
Q 18.65625 9.078125 21.4375 7.640625 
Q 24.21875 6.203125 27.78125 6.203125 
Q 31.25 6.203125 34.03125 7.640625 
Q 36.8125 9.078125 38.734375 12.375 
Q 40.671875 15.671875 41.71875 21.09375 
Q 42.78125 26.515625 42.78125 34.421875 
" id="LiberationSans-30"/>
       <path d="M 9.125 0 
L 9.125 10.6875 
L 18.65625 10.6875 
L 18.65625 0 
z
" id="LiberationSans-2e"/>
      </defs>
      <g style="fill:#262626;" transform="translate(174.573068 331.7975)scale(0.08 -0.08)">
       <use xlink:href="#LiberationSans-30"/>
       <use x="55.615234" xlink:href="#LiberationSans-2e"/>
       <use x="83.398438" xlink:href="#LiberationSans-30"/>
       <use x="139.013672" xlink:href="#LiberationSans-30"/>
       <use x="194.628906" xlink:href="#LiberationSans-30"/>
      </g>
     </g>
    </g>
    <g id="xtick_2">
     <g id="line2d_3">
      <path clip-path="url(#pde84a39b88)" d="M 311.238448 320.4 
L 311.238448 43.2 
" style="fill:none;stroke:#ffffff;stroke-linecap:round;stroke-width:0.8;"/>
     </g>
     <g id="line2d_4"/>
     <g id="text_2">
      <!-- 0.005 -->
      <defs>
       <path d="M 51.421875 22.40625 
Q 51.421875 17.234375 49.859375 12.9375 
Q 48.296875 8.640625 45.21875 5.53125 
Q 42.140625 2.4375 37.578125 0.71875 
Q 33.015625 -0.984375 27 -0.984375 
Q 21.578125 -0.984375 17.546875 0.28125 
Q 13.53125 1.5625 10.734375 3.78125 
Q 7.953125 6 6.3125 8.984375 
Q 4.6875 11.96875 4 15.375 
L 12.890625 16.40625 
Q 13.421875 14.453125 14.390625 12.625 
Q 15.375 10.796875 17.0625 9.34375 
Q 18.75 7.90625 21.21875 7.046875 
Q 23.6875 6.203125 27.203125 6.203125 
Q 30.609375 6.203125 33.390625 7.25 
Q 36.1875 8.296875 38.15625 10.34375 
Q 40.140625 12.40625 41.203125 15.375 
Q 42.28125 18.359375 42.28125 22.21875 
Q 42.28125 25.390625 41.25 28.046875 
Q 40.234375 30.71875 38.328125 32.640625 
Q 36.421875 34.578125 33.65625 35.640625 
Q 30.90625 36.71875 27.390625 36.71875 
Q 25.203125 36.71875 23.34375 36.328125 
Q 21.484375 35.9375 19.890625 35.25 
Q 18.3125 34.578125 17.015625 33.671875 
Q 15.71875 32.765625 14.59375 31.78125 
L 6 31.78125 
L 8.296875 68.796875 
L 47.40625 68.796875 
L 47.40625 61.328125 
L 16.3125 61.328125 
L 14.984375 39.5 
Q 17.328125 41.3125 20.84375 42.59375 
Q 24.359375 43.890625 29.203125 43.890625 
Q 34.328125 43.890625 38.421875 42.328125 
Q 42.53125 40.765625 45.40625 37.90625 
Q 48.296875 35.0625 49.859375 31.109375 
Q 51.421875 27.15625 51.421875 22.40625 
" id="LiberationSans-35"/>
      </defs>
      <g style="fill:#262626;" transform="translate(301.229698 331.7975)scale(0.08 -0.08)">
       <use xlink:href="#LiberationSans-30"/>
       <use x="55.615234" xlink:href="#LiberationSans-2e"/>
       <use x="83.398438" xlink:href="#LiberationSans-30"/>
       <use x="139.013672" xlink:href="#LiberationSans-30"/>
       <use x="194.628906" xlink:href="#LiberationSans-35"/>
      </g>
     </g>
    </g>
    <g id="xtick_3">
     <g id="line2d_5">
      <path clip-path="url(#pde84a39b88)" d="M 437.895078 320.4 
L 437.895078 43.2 
" style="fill:none;stroke:#ffffff;stroke-linecap:round;stroke-width:0.8;"/>
     </g>
     <g id="line2d_6"/>
     <g id="text_3">
      <!-- 0.010 -->
      <defs>
       <path d="M 7.625 0 
L 7.625 7.46875 
L 25.140625 7.46875 
L 25.140625 60.40625 
L 9.625 49.3125 
L 9.625 57.625 
L 25.875 68.796875 
L 33.984375 68.796875 
L 33.984375 7.46875 
L 50.734375 7.46875 
L 50.734375 0 
z
" id="LiberationSans-31"/>
      </defs>
      <g style="fill:#262626;" transform="translate(427.886328 331.7975)scale(0.08 -0.08)">
       <use xlink:href="#LiberationSans-30"/>
       <use x="55.615234" xlink:href="#LiberationSans-2e"/>
       <use x="83.398438" xlink:href="#LiberationSans-30"/>
       <use x="139.013672" xlink:href="#LiberationSans-31"/>
       <use x="194.628906" xlink:href="#LiberationSans-30"/>
      </g>
     </g>
    </g>
    <g id="xtick_4">
     <g id="line2d_7">
      <path clip-path="url(#pde84a39b88)" d="M 564.551708 320.4 
L 564.551708 43.2 
" style="fill:none;stroke:#ffffff;stroke-linecap:round;stroke-width:0.8;"/>
     </g>
     <g id="line2d_8"/>
     <g id="text_4">
      <!-- 0.015 -->
      <g style="fill:#262626;" transform="translate(554.542958 331.7975)scale(0.08 -0.08)">
       <use xlink:href="#LiberationSans-30"/>
       <use x="55.615234" xlink:href="#LiberationSans-2e"/>
       <use x="83.398438" xlink:href="#LiberationSans-30"/>
       <use x="139.013672" xlink:href="#LiberationSans-31"/>
       <use x="194.628906" xlink:href="#LiberationSans-35"/>
      </g>
     </g>
    </g>
    <g id="xtick_5">
     <g id="line2d_9">
      <path clip-path="url(#pde84a39b88)" d="M 691.208338 320.4 
L 691.208338 43.2 
" style="fill:none;stroke:#ffffff;stroke-linecap:round;stroke-width:0.8;"/>
     </g>
     <g id="line2d_10"/>
     <g id="text_5">
      <!-- 0.020 -->
      <defs>
       <path d="M 5.03125 0 
L 5.03125 6.203125 
Q 7.515625 11.921875 11.109375 16.28125 
Q 14.703125 20.65625 18.65625 24.1875 
Q 22.609375 27.734375 26.484375 30.765625 
Q 30.375 33.796875 33.5 36.8125 
Q 36.625 39.84375 38.546875 43.15625 
Q 40.484375 46.484375 40.484375 50.6875 
Q 40.484375 53.609375 39.59375 55.828125 
Q 38.71875 58.0625 37.0625 59.5625 
Q 35.40625 61.078125 33.078125 61.828125 
Q 30.765625 62.59375 27.9375 62.59375 
Q 25.296875 62.59375 22.96875 61.859375 
Q 20.65625 61.140625 18.84375 59.671875 
Q 17.046875 58.203125 15.890625 56.03125 
Q 14.75 53.859375 14.40625 50.984375 
L 5.421875 51.8125 
Q 5.859375 55.515625 7.46875 58.78125 
Q 9.078125 62.0625 11.90625 64.53125 
Q 14.75 67 18.71875 68.40625 
Q 22.703125 69.828125 27.9375 69.828125 
Q 33.0625 69.828125 37.0625 68.609375 
Q 41.0625 67.390625 43.8125 64.984375 
Q 46.578125 62.59375 48.046875 59.078125 
Q 49.515625 55.5625 49.515625 50.984375 
Q 49.515625 47.515625 48.265625 44.390625 
Q 47.015625 41.265625 44.9375 38.421875 
Q 42.875 35.59375 40.140625 32.953125 
Q 37.40625 30.328125 34.421875 27.8125 
Q 31.453125 25.296875 28.421875 22.828125 
Q 25.390625 20.359375 22.71875 17.859375 
Q 20.0625 15.375 17.96875 12.8125 
Q 15.875 10.25 14.703125 7.46875 
L 50.59375 7.46875 
L 50.59375 0 
z
" id="LiberationSans-32"/>
      </defs>
      <g style="fill:#262626;" transform="translate(681.199588 331.7975)scale(0.08 -0.08)">
       <use xlink:href="#LiberationSans-30"/>
       <use x="55.615234" xlink:href="#LiberationSans-2e"/>
       <use x="83.398438" xlink:href="#LiberationSans-30"/>
       <use x="139.013672" xlink:href="#LiberationSans-32"/>
       <use x="194.628906" xlink:href="#LiberationSans-30"/>
      </g>
     </g>
    </g>
    <g id="xtick_6">
     <g id="line2d_11">
      <path clip-path="url(#pde84a39b88)" d="M 817.864968 320.4 
L 817.864968 43.2 
" style="fill:none;stroke:#ffffff;stroke-linecap:round;stroke-width:0.8;"/>
     </g>
     <g id="line2d_12"/>
     <g id="text_6">
      <!-- 0.025 -->
      <g style="fill:#262626;" transform="translate(807.856218 331.7975)scale(0.08 -0.08)">
       <use xlink:href="#LiberationSans-30"/>
       <use x="55.615234" xlink:href="#LiberationSans-2e"/>
       <use x="83.398438" xlink:href="#LiberationSans-30"/>
       <use x="139.013672" xlink:href="#LiberationSans-32"/>
       <use x="194.628906" xlink:href="#LiberationSans-35"/>
      </g>
     </g>
    </g>
    <g id="xtick_7">
     <g id="line2d_13">
      <path clip-path="url(#pde84a39b88)" d="M 944.521598 320.4 
L 944.521598 43.2 
" style="fill:none;stroke:#ffffff;stroke-linecap:round;stroke-width:0.8;"/>
     </g>
     <g id="line2d_14"/>
     <g id="text_7">
      <!-- 0.030 -->
      <defs>
       <path d="M 51.21875 19 
Q 51.21875 14.265625 49.671875 10.546875 
Q 48.140625 6.84375 45.1875 4.265625 
Q 42.234375 1.703125 37.859375 0.359375 
Q 33.5 -0.984375 27.875 -0.984375 
Q 21.484375 -0.984375 17.109375 0.609375 
Q 12.75 2.203125 9.90625 4.8125 
Q 7.078125 7.421875 5.65625 10.765625 
Q 4.25 14.109375 3.8125 17.671875 
L 12.890625 18.5 
Q 13.28125 15.765625 14.328125 13.515625 
Q 15.375 11.28125 17.1875 9.671875 
Q 19 8.0625 21.625 7.171875 
Q 24.265625 6.296875 27.875 6.296875 
Q 34.515625 6.296875 38.296875 9.5625 
Q 42.09375 12.84375 42.09375 19.28125 
Q 42.09375 23.09375 40.40625 25.40625 
Q 38.71875 27.734375 36.203125 29.03125 
Q 33.6875 30.328125 30.734375 30.765625 
Q 27.78125 31.203125 25.296875 31.203125 
L 20.3125 31.203125 
L 20.3125 38.8125 
L 25.09375 38.8125 
Q 27.59375 38.8125 30.265625 39.328125 
Q 32.953125 39.84375 35.171875 41.1875 
Q 37.40625 42.53125 38.84375 44.828125 
Q 40.28125 47.125 40.28125 50.6875 
Q 40.28125 56.203125 37.03125 59.390625 
Q 33.796875 62.59375 27.390625 62.59375 
Q 21.578125 62.59375 17.984375 59.609375 
Q 14.40625 56.640625 13.8125 51.21875 
L 4.984375 51.90625 
Q 5.515625 56.453125 7.46875 59.8125 
Q 9.421875 63.1875 12.421875 65.40625 
Q 15.4375 67.625 19.28125 68.71875 
Q 23.140625 69.828125 27.484375 69.828125 
Q 33.25 69.828125 37.390625 68.375 
Q 41.546875 66.9375 44.1875 64.46875 
Q 46.828125 62.015625 48.0625 58.6875 
Q 49.3125 55.375 49.3125 51.609375 
Q 49.3125 48.578125 48.484375 45.9375 
Q 47.65625 43.3125 45.890625 41.203125 
Q 44.140625 39.109375 41.421875 37.59375 
Q 38.71875 36.078125 34.90625 35.296875 
L 34.90625 35.109375 
Q 39.0625 34.671875 42.140625 33.21875 
Q 45.21875 31.78125 47.21875 29.625 
Q 49.21875 27.484375 50.21875 24.75 
Q 51.21875 22.015625 51.21875 19 
" id="LiberationSans-33"/>
      </defs>
      <g style="fill:#262626;" transform="translate(934.512848 331.7975)scale(0.08 -0.08)">
       <use xlink:href="#LiberationSans-30"/>
       <use x="55.615234" xlink:href="#LiberationSans-2e"/>
       <use x="83.398438" xlink:href="#LiberationSans-30"/>
       <use x="139.013672" xlink:href="#LiberationSans-33"/>
       <use x="194.628906" xlink:href="#LiberationSans-30"/>
      </g>
     </g>
    </g>
   </g>
   <g id="matplotlib.axis_2">
    <g id="ytick_1">
     <g id="line2d_15">
      <path clip-path="url(#pde84a39b88)" d="M 144 289.330532 
L 1036.8 289.330532 
" style="fill:none;stroke:#ffffff;stroke-linecap:round;stroke-width:0.8;"/>
     </g>
     <g id="line2d_16"/>
     <g id="text_8">
      <!-- −10 -->
      <defs>
       <path d="M 4.9375 29.6875 
L 4.9375 36.8125 
L 53.515625 36.8125 
L 53.515625 29.6875 
z
" id="LiberationSans-2212"/>
      </defs>
      <g style="fill:#262626;" transform="translate(124.83 292.229282)scale(0.08 -0.08)">
       <use xlink:href="#LiberationSans-2212"/>
       <use x="58.398438" xlink:href="#LiberationSans-31"/>
       <use x="114.013672" xlink:href="#LiberationSans-30"/>
      </g>
     </g>
    </g>
    <g id="ytick_2">
     <g id="line2d_17">
      <path clip-path="url(#pde84a39b88)" d="M 144 250.425972 
L 1036.8 250.425972 
" style="fill:none;stroke:#ffffff;stroke-linecap:round;stroke-width:0.8;"/>
     </g>
     <g id="line2d_18"/>
     <g id="text_9">
      <!-- −8 -->
      <defs>
       <path d="M 51.265625 19.1875 
Q 51.265625 14.796875 49.875 11.109375 
Q 48.484375 7.421875 45.625 4.734375 
Q 42.78125 2.046875 38.328125 0.53125 
Q 33.890625 -0.984375 27.828125 -0.984375 
Q 21.78125 -0.984375 17.359375 0.53125 
Q 12.9375 2.046875 10.03125 4.703125 
Q 7.125 7.375 5.734375 11.0625 
Q 4.34375 14.75 4.34375 19.09375 
Q 4.34375 22.859375 5.484375 25.78125 
Q 6.640625 28.71875 8.5625 30.828125 
Q 10.5 32.953125 12.96875 34.25 
Q 15.4375 35.546875 18.0625 35.984375 
L 18.0625 36.1875 
Q 15.1875 36.859375 12.90625 38.375 
Q 10.640625 39.890625 9.09375 42.015625 
Q 7.5625 44.140625 6.75 46.71875 
Q 5.953125 49.3125 5.953125 52.203125 
Q 5.953125 55.8125 7.34375 59 
Q 8.734375 62.203125 11.46875 64.625 
Q 14.203125 67.046875 18.25 68.4375 
Q 22.3125 69.828125 27.640625 69.828125 
Q 33.25 69.828125 37.375 68.40625 
Q 41.5 67 44.203125 64.578125 
Q 46.921875 62.15625 48.234375 58.9375 
Q 49.5625 55.71875 49.5625 52.09375 
Q 49.5625 49.265625 48.75 46.671875 
Q 47.953125 44.09375 46.40625 41.96875 
Q 44.875 39.84375 42.59375 38.34375 
Q 40.328125 36.859375 37.359375 36.28125 
L 37.359375 36.078125 
Q 40.328125 35.59375 42.859375 34.296875 
Q 45.40625 33.015625 47.265625 30.890625 
Q 49.125 28.765625 50.1875 25.828125 
Q 51.265625 22.90625 51.265625 19.1875 
M 40.4375 51.609375 
Q 40.4375 54.203125 39.765625 56.34375 
Q 39.109375 58.5 37.59375 60.03125 
Q 36.078125 61.578125 33.640625 62.421875 
Q 31.203125 63.28125 27.640625 63.28125 
Q 24.171875 63.28125 21.78125 62.421875 
Q 19.390625 61.578125 17.84375 60.03125 
Q 16.3125 58.5 15.625 56.34375 
Q 14.9375 54.203125 14.9375 51.609375 
Q 14.9375 49.5625 15.46875 47.40625 
Q 16.015625 45.265625 17.421875 43.5 
Q 18.84375 41.75 21.328125 40.625 
Q 23.828125 39.5 27.734375 39.5 
Q 31.890625 39.5 34.40625 40.625 
Q 36.921875 41.75 38.25 43.5 
Q 39.59375 45.265625 40.015625 47.40625 
Q 40.4375 49.5625 40.4375 51.609375 
M 42.140625 20.015625 
Q 42.140625 22.515625 41.453125 24.828125 
Q 40.765625 27.15625 39.109375 28.9375 
Q 37.453125 30.71875 34.640625 31.8125 
Q 31.84375 32.90625 27.640625 32.90625 
Q 23.78125 32.90625 21.0625 31.8125 
Q 18.359375 30.71875 16.671875 28.90625 
Q 14.984375 27.09375 14.203125 24.71875 
Q 13.421875 22.359375 13.421875 19.828125 
Q 13.421875 16.65625 14.203125 14.03125 
Q 14.984375 11.421875 16.6875 9.546875 
Q 18.40625 7.671875 21.1875 6.640625 
Q 23.96875 5.609375 27.9375 5.609375 
Q 31.9375 5.609375 34.671875 6.640625 
Q 37.40625 7.671875 39.0625 9.546875 
Q 40.71875 11.421875 41.421875 14.078125 
Q 42.140625 16.75 42.140625 20.015625 
" id="LiberationSans-38"/>
      </defs>
      <g style="fill:#262626;" transform="translate(129.27875 253.324722)scale(0.08 -0.08)">
       <use xlink:href="#LiberationSans-2212"/>
       <use x="58.398438" xlink:href="#LiberationSans-38"/>
      </g>
     </g>
    </g>
    <g id="ytick_3">
     <g id="line2d_19">
      <path clip-path="url(#pde84a39b88)" d="M 144 211.521413 
L 1036.8 211.521413 
" style="fill:none;stroke:#ffffff;stroke-linecap:round;stroke-width:0.8;"/>
     </g>
     <g id="line2d_20"/>
     <g id="text_10">
      <!-- −6 -->
      <defs>
       <path d="M 51.21875 22.515625 
Q 51.21875 17.328125 49.78125 13 
Q 48.34375 8.6875 45.53125 5.578125 
Q 42.71875 2.484375 38.5625 0.75 
Q 34.421875 -0.984375 29 -0.984375 
Q 23 -0.984375 18.5 1.3125 
Q 14.015625 3.609375 11.03125 7.921875 
Q 8.0625 12.25 6.5625 18.53125 
Q 5.078125 24.8125 5.078125 32.8125 
Q 5.078125 42 6.765625 48.921875 
Q 8.453125 55.859375 11.625 60.5 
Q 14.796875 65.140625 19.359375 67.484375 
Q 23.921875 69.828125 29.6875 69.828125 
Q 33.203125 69.828125 36.28125 69.09375 
Q 39.359375 68.359375 41.875 66.71875 
Q 44.390625 65.09375 46.28125 62.40625 
Q 48.1875 59.71875 49.3125 55.8125 
L 40.921875 54.296875 
Q 39.546875 58.734375 36.546875 60.71875 
Q 33.546875 62.703125 29.59375 62.703125 
Q 25.984375 62.703125 23.046875 60.984375 
Q 20.125 59.28125 18.0625 55.875 
Q 16.015625 52.484375 14.90625 47.359375 
Q 13.8125 42.234375 13.8125 35.40625 
Q 16.21875 39.84375 20.5625 42.15625 
Q 24.90625 44.484375 30.515625 44.484375 
Q 35.203125 44.484375 39.015625 42.96875 
Q 42.828125 41.453125 45.53125 38.59375 
Q 48.25 35.75 49.734375 31.671875 
Q 51.21875 27.59375 51.21875 22.515625 
M 42.28125 22.125 
Q 42.28125 25.6875 41.40625 28.5625 
Q 40.53125 31.453125 38.765625 33.46875 
Q 37.015625 35.5 34.421875 36.59375 
Q 31.84375 37.703125 28.421875 37.703125 
Q 26.03125 37.703125 23.578125 36.984375 
Q 21.140625 36.28125 19.15625 34.6875 
Q 17.1875 33.109375 15.9375 30.515625 
Q 14.703125 27.9375 14.703125 24.21875 
Q 14.703125 20.40625 15.671875 17.109375 
Q 16.65625 13.8125 18.484375 11.375 
Q 20.3125 8.9375 22.890625 7.515625 
Q 25.484375 6.109375 28.71875 6.109375 
Q 31.890625 6.109375 34.40625 7.203125 
Q 36.921875 8.296875 38.671875 10.375 
Q 40.4375 12.453125 41.359375 15.421875 
Q 42.28125 18.40625 42.28125 22.125 
" id="LiberationSans-36"/>
      </defs>
      <g style="fill:#262626;" transform="translate(129.27875 214.420163)scale(0.08 -0.08)">
       <use xlink:href="#LiberationSans-2212"/>
       <use x="58.398438" xlink:href="#LiberationSans-36"/>
      </g>
     </g>
    </g>
    <g id="ytick_4">
     <g id="line2d_21">
      <path clip-path="url(#pde84a39b88)" d="M 144 172.616854 
L 1036.8 172.616854 
" style="fill:none;stroke:#ffffff;stroke-linecap:round;stroke-width:0.8;"/>
     </g>
     <g id="line2d_22"/>
     <g id="text_11">
      <!-- −4 -->
      <defs>
       <path d="M 43.015625 15.578125 
L 43.015625 0 
L 34.71875 0 
L 34.71875 15.578125 
L 2.296875 15.578125 
L 2.296875 22.40625 
L 33.796875 68.796875 
L 43.015625 68.796875 
L 43.015625 22.515625 
L 52.6875 22.515625 
L 52.6875 15.578125 
z
M 34.71875 58.890625 
Q 34.625 58.640625 34.234375 57.9375 
Q 33.84375 57.234375 33.34375 56.34375 
Q 32.859375 55.46875 32.34375 54.5625 
Q 31.84375 53.65625 31.453125 53.078125 
L 13.8125 27.09375 
Q 13.578125 26.703125 13.109375 26.0625 
Q 12.640625 25.4375 12.15625 24.78125 
Q 11.671875 24.125 11.171875 23.484375 
Q 10.6875 22.859375 10.40625 22.515625 
L 34.71875 22.515625 
z
" id="LiberationSans-34"/>
      </defs>
      <g style="fill:#262626;" transform="translate(129.27875 175.515604)scale(0.08 -0.08)">
       <use xlink:href="#LiberationSans-2212"/>
       <use x="58.398438" xlink:href="#LiberationSans-34"/>
      </g>
     </g>
    </g>
    <g id="ytick_5">
     <g id="line2d_23">
      <path clip-path="url(#pde84a39b88)" d="M 144 133.712294 
L 1036.8 133.712294 
" style="fill:none;stroke:#ffffff;stroke-linecap:round;stroke-width:0.8;"/>
     </g>
     <g id="line2d_24"/>
     <g id="text_12">
      <!-- −2 -->
      <g style="fill:#262626;" transform="translate(129.27875 136.611044)scale(0.08 -0.08)">
       <use xlink:href="#LiberationSans-2212"/>
       <use x="58.398438" xlink:href="#LiberationSans-32"/>
      </g>
     </g>
    </g>
    <g id="ytick_6">
     <g id="line2d_25">
      <path clip-path="url(#pde84a39b88)" d="M 144 94.807735 
L 1036.8 94.807735 
" style="fill:none;stroke:#ffffff;stroke-linecap:round;stroke-width:0.8;"/>
     </g>
     <g id="line2d_26"/>
     <g id="text_13">
      <!-- 0 -->
      <g style="fill:#262626;" transform="translate(133.95125 97.706485)scale(0.08 -0.08)">
       <use xlink:href="#LiberationSans-30"/>
      </g>
     </g>
    </g>
    <g id="ytick_7">
     <g id="line2d_27">
      <path clip-path="url(#pde84a39b88)" d="M 144 55.903175 
L 1036.8 55.903175 
" style="fill:none;stroke:#ffffff;stroke-linecap:round;stroke-width:0.8;"/>
     </g>
     <g id="line2d_28"/>
     <g id="text_14">
      <!-- 2 -->
      <g style="fill:#262626;" transform="translate(133.95125 58.801925)scale(0.08 -0.08)">
       <use xlink:href="#LiberationSans-32"/>
      </g>
     </g>
    </g>
   </g>
   <g id="line2d_29">
    <path clip-path="url(#pde84a39b88)" d="M 184.581818 249.589198 
L 185.156225 244.013062 
L 185.730631 239.114482 
L 186.305038 235.083541 
L 186.879444 232.05693 
L 187.453851 230.111474 
L 188.028257 229.261072 
L 188.602664 229.457211 
L 189.17707 230.593012 
L 189.751477 232.510558 
L 190.90029 237.867363 
L 192.049102 243.681141 
L 192.623509 246.170964 
L 193.197915 248.109562 
L 193.772322 249.339806 
L 194.346728 249.754726 
L 194.921135 249.304115 
L 195.495541 247.997794 
L 196.069948 245.905359 
L 197.218761 239.913437 
L 198.94198 229.534132 
L 199.516387 226.681126 
L 200.090793 224.532439 
L 200.6652 223.290629 
L 201.239606 223.114906 
L 201.814013 224.111126 
L 202.388419 226.324691 
L 202.962826 229.736798 
L 203.537232 234.264239 
L 204.686045 246.034061 
L 207.558078 279.670181 
L 208.132484 284.873886 
L 208.706891 288.995531 
L 209.281297 291.874002 
L 209.855704 293.40867 
L 210.43011 293.564416 
L 211.004517 292.373095 
L 211.578923 289.931369 
L 212.153329 286.395041 
L 213.302142 276.901698 
L 215.599768 255.655635 
L 216.174175 251.400339 
L 216.748581 247.982249 
L 217.322988 245.524472 
L 217.897394 244.090215 
L 218.471801 243.680389 
L 219.046207 244.234772 
L 219.620614 245.636674 
L 220.19502 247.720805 
L 221.343833 253.097416 
L 222.492646 258.521119 
L 223.067053 260.677563 
L 223.641459 262.204849 
L 224.215866 262.959725 
L 224.790272 262.850976 
L 225.364679 261.845375 
L 225.939085 259.970255 
L 226.513492 257.312532 
L 227.662305 250.264796 
L 229.385524 238.678693 
L 229.959931 235.556469 
L 230.534337 233.210157 
L 231.108743 231.841051 
L 231.68315 231.604577 
L 232.257556 232.60069 
L 232.831963 234.867287 
L 233.406369 238.377019 
L 233.980776 243.037695 
L 235.129589 255.146203 
L 238.001621 289.77187 
L 238.576028 295.18141 
L 239.150434 299.516104 
L 239.724841 302.619531 
L 240.299247 304.396376 
L 240.873654 304.816917 
L 241.44806 303.917936 
L 242.022467 301.800006 
L 242.596873 298.621327 
L 243.745686 289.94444 
L 246.043312 270.600787 
L 246.617719 266.822097 
L 247.192125 263.854753 
L 247.766532 261.806988 
L 248.340938 260.727127 
L 248.915345 260.601869 
L 249.489751 261.358125 
L 250.064157 262.8683 
L 251.21297 267.420625 
L 252.361783 272.528503 
L 252.93619 274.704763 
L 253.510596 276.34217 
L 254.085003 277.265198 
L 254.659409 277.343825 
L 255.233816 276.501965 
L 255.808222 274.722779 
L 256.382629 272.050555 
L 257.531442 264.496183 
L 260.403474 242.636444 
L 260.977881 239.775498 
L 261.552287 237.951574 
L 262.126694 237.317048 
L 262.7011 237.966928 
L 263.275507 239.932771 
L 263.849913 243.180055 
L 264.42432 247.609164 
L 265.573133 259.31959 
L 268.445165 293.14208 
L 269.019572 298.422975 
L 269.593978 302.648368 
L 270.168384 305.66796 
L 270.742791 307.392958 
L 271.317197 307.8 
L 271.891604 306.931503 
L 272.46601 304.892398 
L 273.040417 301.843474 
L 274.18923 293.578058 
L 276.486856 275.515706 
L 277.061262 272.092944 
L 277.635669 269.467491 
L 278.210075 267.731617 
L 278.784482 266.917675 
L 279.358888 266.997067 
L 279.933295 267.88277 
L 280.507701 269.435251 
L 281.656514 273.776153 
L 282.805327 278.251629 
L 283.379734 279.956645 
L 283.95414 281.027607 
L 284.528547 281.298834 
L 285.102953 280.652613 
L 285.67736 279.027064 
L 286.251766 276.420822 
L 286.826173 272.894215 
L 287.974986 263.612035 
L 290.272611 242.283852 
L 290.847018 237.906858 
L 291.421424 234.418658 
L 291.995831 232.019257 
L 292.570237 230.85839 
L 293.144644 231.026765 
L 293.71905 232.550486 
L 294.293457 235.388974 
L 294.867863 239.436524 
L 296.016676 250.444218 
L 298.888709 282.760197 
L 299.463115 287.797017 
L 300.037522 291.810246 
L 300.611928 294.657213 
L 301.186335 296.256952 
L 301.760741 296.593554 
L 302.335148 295.715926 
L 302.909554 293.733977 
L 303.483961 290.811462 
L 304.632774 283.006173 
L 306.355993 270.150385 
L 307.504806 263.587322 
L 308.079213 261.437071 
L 308.653619 260.160247 
L 309.228025 259.77228 
L 309.802432 260.228314 
L 310.376838 261.42642 
L 310.951245 263.214145 
L 313.248871 272.038417 
L 313.823277 273.499987 
L 314.397684 274.236096 
L 314.97209 274.089771 
L 315.546497 272.95442 
L 316.120903 270.781155 
L 316.69531 267.582826 
L 317.269716 263.434542 
L 318.418529 252.878137 
L 320.716155 229.21183 
L 321.864968 220.399703 
L 322.439375 217.589556 
L 323.013781 216.05687 
L 323.588188 215.888329 
L 324.162594 217.105113 
L 324.737001 219.661379 
L 325.311407 223.446358 
L 326.46022 233.971745 
L 329.332252 265.305969 
L 329.906659 270.213369 
L 330.481065 274.136352 
L 331.055472 276.941394 
L 331.629878 278.55671 
L 332.204285 278.975011 
L 332.778691 278.252661 
L 333.353098 276.505299 
L 333.927504 273.900191 
L 335.076317 266.978877 
L 336.799537 255.997229 
L 337.373943 253.113351 
L 337.94835 250.925322 
L 338.522756 249.54792 
L 339.097163 249.038991 
L 339.671569 249.396321 
L 340.245976 250.558037 
L 340.820382 252.406511 
L 341.969195 257.460437 
L 343.118008 262.842023 
L 343.692415 265.054979 
L 344.266821 266.645696 
L 344.841228 267.421633 
L 345.415634 267.233271 
L 345.990041 265.983818 
L 346.564447 263.635974 
L 347.138854 260.215344 
L 348.287666 250.568314 
L 350.010886 232.012328 
L 351.159699 219.978902 
L 352.308512 210.785592 
L 352.882918 207.824257 
L 353.457325 206.163263 
L 354.031731 205.885218 
L 354.606138 207.006612 
L 355.180544 209.476832 
L 355.754951 213.180811 
L 356.903764 223.547451 
L 360.350203 259.438265 
L 360.924609 263.384637 
L 361.499016 266.262029 
L 362.073422 268.009269 
L 362.647829 268.62897 
L 363.222235 268.186064 
L 363.796642 266.802862 
L 364.371048 264.650901 
L 365.519861 258.90572 
L 366.668674 252.848257 
L 367.24308 250.29226 
L 367.817487 248.319039 
L 368.391893 247.078333 
L 368.9663 246.667919 
L 369.540706 247.127785 
L 370.115113 248.437713 
L 370.689519 250.518402 
L 371.838332 256.410242 
L 373.561552 266.404138 
L 374.135958 269.077509 
L 374.710365 271.035924 
L 375.284771 272.090446 
L 375.859178 272.097836 
L 376.433584 270.969812 
L 377.007991 268.679259 
L 377.582397 265.26304 
L 378.156804 260.821224 
L 379.305617 249.547823 
L 381.603243 224.46829 
L 382.752056 215.131828 
L 383.326462 212.10987 
L 383.900869 210.391354 
L 384.475275 210.054543 
L 385.049682 211.11124 
L 385.624088 213.506353 
L 386.198494 217.121081 
L 387.347307 227.258417 
L 390.21934 257.49062 
L 391.368153 266.09817 
L 391.942559 268.920122 
L 392.516966 270.668332 
L 393.091372 271.356727 
L 393.665779 271.060102 
L 394.240185 269.908586 
L 394.814592 268.078997 
L 397.686624 256.662354 
L 398.261031 255.493258 
L 398.835437 255.098772 
L 399.409844 255.559865 
L 399.98425 256.89881 
L 400.558657 259.077473 
L 401.133063 261.999155 
L 402.281876 269.426826 
L 404.005096 281.181145 
L 404.579502 284.268625 
L 405.153909 286.552109 
L 405.728315 287.845443 
L 406.302721 288.010696 
L 406.877128 286.96696 
L 407.451534 284.696025 
L 408.025941 281.244596 
L 408.600347 276.722901 
L 409.74916 265.194414 
L 412.046786 239.424098 
L 413.195599 229.70189 
L 413.770006 226.473245 
L 414.344412 224.533572 
L 414.918819 223.956322 
L 415.493225 224.748417 
L 416.067632 226.850376 
L 416.642038 230.140022 
L 417.790851 239.525791 
L 420.662884 267.444844 
L 421.23729 271.735012 
L 421.811697 275.136787 
L 422.386103 277.553604 
L 422.96051 278.950129 
L 423.534916 279.35308 
L 424.109323 278.848493 
L 424.683729 277.575598 
L 425.832542 273.49041 
L 426.981355 268.870801 
L 427.555761 266.946308 
L 428.130168 265.559368 
L 428.704574 264.877395 
L 429.278981 265.020322 
L 429.853387 266.052905 
L 430.427794 267.980248 
L 431.0022 270.746798 
L 432.151013 278.290769 
L 434.448639 295.528278 
L 435.023046 298.825293 
L 435.597452 301.239797 
L 436.171859 302.58784 
L 436.746265 302.736025 
L 437.320672 301.609857 
L 437.895078 299.198883 
L 438.469485 295.558326 
L 439.043891 290.807098 
L 440.192704 278.730498 
L 442.49033 251.659911 
L 443.639143 241.208816 
L 444.21355 237.587381 
L 444.787956 235.229395 
L 445.362362 234.202767 
L 445.936769 234.509078 
L 446.511175 236.084261 
L 447.085582 238.802839 
L 447.659988 242.485495 
L 448.808801 251.82164 
L 450.532021 266.799258 
L 451.680834 274.533013 
L 452.25524 277.170641 
L 452.829647 278.861402 
L 453.404053 279.585058 
L 453.97846 279.38248 
L 454.552866 278.352252 
L 455.127273 276.64395 
L 456.276086 271.9861 
L 457.424899 267.204876 
L 457.999305 265.346094 
L 458.573712 264.111985 
L 459.148118 263.658503 
L 459.722525 264.091873 
L 460.296931 265.46149 
L 460.871338 267.756107 
L 461.445744 270.903543 
L 462.594557 279.186317 
L 464.892183 297.452831 
L 465.466589 300.86667 
L 466.040996 303.336437 
L 466.615402 304.679988 
L 467.189809 304.767843 
L 467.764215 303.531076 
L 468.338622 300.965929 
L 468.913028 297.134873 
L 470.061841 286.237194 
L 471.785061 265.21095 
L 472.933874 251.367821 
L 474.082687 240.263449 
L 474.657093 236.281137 
L 475.2315 233.531058 
L 475.805906 232.074531 
L 476.380313 231.906989 
L 476.954719 232.95922 
L 477.529126 235.10214 
L 478.103532 238.154827 
L 479.252345 246.07372 
L 480.975565 258.622734 
L 481.549971 262.00479 
L 482.124378 264.663713 
L 482.698784 266.477042 
L 483.273191 267.38004 
L 483.847597 267.368674 
L 484.422003 266.499061 
L 484.99641 264.883406 
L 486.145223 260.096448 
L 487.868442 252.329012 
L 488.442849 250.507693 
L 489.017255 249.406835 
L 489.591662 249.171912 
L 490.166068 249.896428 
L 490.740475 251.615404 
L 491.314881 254.302233 
L 491.889288 257.869073 
L 493.038101 267.012143 
L 495.335727 286.749903 
L 495.910133 290.435601 
L 496.48454 293.133761 
L 497.058946 294.663815 
L 497.633353 294.899727 
L 498.207759 293.777423 
L 498.782166 291.29887 
L 499.356572 287.532584 
L 499.930979 282.610503 
L 501.079792 270.101328 
L 503.951824 235.927512 
L 504.52623 230.808295 
L 505.100637 226.768025 
L 505.675043 223.923528 
L 506.24945 222.328189 
L 506.823856 221.970159 
L 507.398263 222.774178 
L 507.972669 224.606884 
L 508.547076 227.285301 
L 509.695889 234.268411 
L 511.419108 245.038375 
L 511.993515 247.770784 
L 512.567921 249.776201 
L 513.142328 250.948893 
L 513.716734 251.241325 
L 514.291141 250.666433 
L 514.865547 249.29636 
L 515.439954 247.257723 
L 516.588767 241.903283 
L 517.73758 236.340887 
L 518.311986 234.075183 
L 518.886393 232.446469 
L 519.460799 231.635969 
L 520.035206 231.779705 
L 520.609612 232.959522 
L 521.184019 235.197182 
L 521.758425 238.451858 
L 522.907238 247.54593 
L 526.353677 279.369883 
L 526.928083 282.573752 
L 527.50249 284.581593 
L 528.076896 285.270579 
L 528.651303 284.580985 
L 529.225709 282.519744 
L 529.800116 279.160396 
L 530.374522 274.639426 
L 531.523335 262.927834 
L 534.395368 230.693701 
L 534.969774 225.915143 
L 535.544181 222.180708 
L 536.118587 219.597552 
L 536.692994 218.209623 
L 537.2674 217.996477 
L 537.841807 218.875688 
L 538.416213 220.708704 
L 538.99062 223.309791 
L 540.139433 229.908378 
L 541.288246 236.721382 
L 541.862652 239.617117 
L 542.437058 241.91037 
L 543.011465 243.458815 
L 543.585871 244.173823 
L 544.160278 244.025491 
L 544.734684 243.0442 
L 545.309091 241.318636 
L 546.457904 236.245403 
L 548.181123 227.787541 
L 548.75553 225.695373 
L 549.329936 224.337597 
L 549.904343 223.889694 
L 550.478749 224.479335 
L 551.053156 226.177908 
L 551.627562 228.995186 
L 552.201969 232.877462 
L 553.350782 243.318598 
L 556.797221 279.178745 
L 557.371627 282.995693 
L 557.946034 285.598405 
L 558.52044 286.867391 
L 559.094847 286.747131 
L 559.669253 285.249108 
L 560.24366 282.451198 
L 560.818066 278.493487 
L 561.966879 267.921815 
L 564.838911 238.514008 
L 565.413318 234.244478 
L 565.987724 230.977115 
L 566.562131 228.807784 
L 567.136537 227.769506 
L 567.710944 227.831903 
L 568.28535 228.904216 
L 568.859757 230.841703 
L 570.00857 236.522218 
L 571.731789 246.028117 
L 572.306196 248.528229 
L 572.880602 250.375708 
L 573.455009 251.444183 
L 574.029415 251.662266 
L 574.603822 251.017876 
L 575.178228 249.559087 
L 575.752635 247.391437 
L 576.901448 241.599485 
L 578.624667 232.634579 
L 579.199074 230.546735 
L 579.77348 229.279527 
L 580.347887 229.003757 
L 580.922293 229.839937 
L 581.496699 231.850316 
L 582.071106 235.034116 
L 582.645512 239.326292 
L 583.794325 250.671828 
L 587.240764 289.300921 
L 587.815171 293.543905 
L 588.389577 296.56417 
L 588.963984 298.2461 
L 589.53839 298.538652 
L 590.112797 297.457845 
L 590.687203 295.08561 
L 591.26161 291.565079 
L 592.410423 281.906797 
L 594.708049 259.51733 
L 595.856862 250.997175 
L 596.431268 248.10263 
L 597.005675 246.248866 
L 597.580081 245.456587 
L 598.154488 245.684206 
L 598.728894 246.831483 
L 599.303301 248.746476 
L 600.452113 254.074861 
L 601.600926 259.847308 
L 602.175333 262.313111 
L 602.749739 264.223539 
L 603.324146 265.41863 
L 603.898552 265.787799 
L 604.472959 265.27677 
L 605.047365 263.891225 
L 605.621772 261.696926 
L 606.770585 255.421761 
L 609.068211 241.293936 
L 609.642617 238.868396 
L 610.217024 237.340009 
L 610.79143 236.875899 
L 611.365837 237.590599 
L 611.940243 239.538551 
L 612.51465 242.709922 
L 613.089056 247.029959 
L 614.237869 258.513627 
L 617.684308 297.728969 
L 618.258715 302.069232 
L 618.833121 305.191949 
L 619.407528 306.986254 
L 619.981934 307.406192 
L 620.55634 306.472653 
L 621.130747 304.271679 
L 621.705153 300.949239 
L 622.853966 291.770036 
L 625.151592 270.562587 
L 626.300405 262.604197 
L 626.874812 259.939022 
L 627.449218 258.261482 
L 628.023625 257.578661 
L 628.598031 257.836533 
L 629.172438 258.924234 
L 629.746844 260.681572 
L 630.895657 265.381914 
L 632.04447 270.111166 
L 632.618877 271.912914 
L 633.193283 273.077624 
L 633.76769 273.458615 
L 634.342096 272.960586 
L 634.916503 271.545927 
L 635.490909 269.23767 
L 636.065316 266.118899 
L 637.214129 258.054537 
L 638.937348 244.702347 
L 639.511754 240.937235 
L 640.086161 237.930037 
L 640.660567 235.889738 
L 641.234974 234.980577 
L 641.80938 235.312085 
L 642.383787 236.932084 
L 642.958193 239.823052 
L 643.5326 243.902068 
L 644.681413 254.990261 
L 648.127852 293.360042 
L 648.702258 297.602724 
L 649.276665 300.649605 
L 649.851071 302.395648 
L 650.425478 302.800807 
L 650.999884 301.891402 
L 651.574291 299.757876 
L 652.148697 296.54906 
L 653.29751 287.736884 
L 655.595136 267.695155 
L 656.743949 260.37766 
L 657.318356 257.99894 
L 657.892762 256.564692 
L 658.467169 256.067123 
L 659.041575 256.438556 
L 659.615981 257.556335 
L 660.190388 259.250904 
L 662.488014 267.420582 
L 663.06242 268.664271 
L 663.636827 269.188715 
L 664.211233 268.85964 
L 664.78564 267.596172 
L 665.360046 265.376523 
L 665.934453 262.240252 
L 667.083266 253.671611 
L 669.955298 228.731884 
L 670.529705 225.184662 
L 671.104111 222.666662 
L 671.678518 221.339678 
L 672.252924 221.308912 
L 672.827331 222.616461 
L 673.401737 225.238226 
L 673.976144 229.084437 
L 675.124957 239.790787 
L 678.571395 277.462069 
L 679.145802 281.666073 
L 679.720208 284.710059 
L 680.294615 286.496003 
L 680.869021 286.990727 
L 681.443428 286.226698 
L 682.017834 284.299219 
L 682.592241 281.360197 
L 683.741054 273.279759 
L 686.03868 255.328852 
L 686.613086 251.875028 
L 687.187493 249.19929 
L 687.761899 247.397994 
L 688.336306 246.508116 
L 688.910712 246.505843 
L 689.485119 247.308699 
L 690.059525 248.781106 
L 691.208338 252.981214 
L 692.357151 257.347609 
L 692.931558 259.007047 
L 693.505964 260.034196 
L 694.080371 260.258851 
L 694.654777 259.557994 
L 695.229184 257.864019 
L 695.80359 255.16978 
L 696.377997 251.530192 
L 697.526809 241.929582 
L 700.398842 214.836822 
L 700.973248 210.99292 
L 701.547655 208.227853 
L 702.122061 206.701075 
L 702.696468 206.513806 
L 703.270874 207.703012 
L 703.845281 210.238868 
L 704.419687 214.02583 
L 705.5685 224.67359 
L 709.014939 262.545311 
L 709.589346 266.868692 
L 710.163752 270.074532 
L 710.738159 272.073134 
L 711.312565 272.839302 
L 711.886972 272.412541 
L 712.461378 270.893691 
L 713.035785 268.438178 
L 714.184598 261.551008 
L 715.907817 249.968493 
L 716.482224 246.744644 
L 717.05663 244.172542 
L 717.631036 242.386692 
L 718.205443 241.466218 
L 718.779849 241.430663 
L 719.354256 242.239282 
L 719.928662 243.79388 
L 721.077475 248.501206 
L 722.800695 256.312406 
L 723.375101 258.175324 
L 723.949508 259.311537 
L 724.523914 259.558353 
L 725.098321 258.802761 
L 725.672727 256.989112 
L 726.247134 254.123558 
L 726.82154 250.274982 
L 727.970353 240.198685 
L 730.842386 212.095162 
L 731.416792 208.132271 
L 731.991199 205.279457 
L 732.565605 203.693669 
L 733.140012 203.472247 
L 733.714418 204.647403 
L 734.288825 207.184218 
L 734.863231 210.982276 
L 736.012044 221.667307 
L 739.458483 259.783028 
L 740.032889 264.216072 
L 740.607296 267.573788 
L 741.181702 269.776286 
L 741.756109 270.807666 
L 742.330515 270.71561 
L 742.904922 269.607433 
L 743.479328 267.642827 
L 744.628141 261.981815 
L 746.351361 252.784316 
L 746.925767 250.462973 
L 747.500174 248.823841 
L 748.07458 247.984724 
L 748.648987 248.007091 
L 749.223393 248.892572 
L 749.7978 250.582975 
L 750.372206 252.963824 
L 751.521019 259.101575 
L 752.669832 265.593221 
L 753.244239 268.365957 
L 753.818645 270.514021 
L 754.393052 271.839084 
L 754.967458 272.184856 
L 755.541865 271.447129 
L 756.116271 269.580914 
L 756.690677 266.604283 
L 757.265084 262.598653 
L 758.413897 252.11968 
L 761.285929 222.941497 
L 761.860336 218.794967 
L 762.434742 215.770544 
L 763.009149 214.022312 
L 763.583555 213.64364 
L 764.157962 214.662168 
L 764.732368 217.038351 
L 765.306775 220.667634 
L 766.455588 230.979554 
L 769.902027 267.811731 
L 770.476433 272.075096 
L 771.05084 275.303032 
L 771.625246 277.42708 
L 772.199653 278.442128 
L 772.774059 278.40538 
L 773.348466 277.431816 
L 773.922872 275.686419 
L 775.071685 270.724562 
L 776.220498 265.390274 
L 776.794904 263.171189 
L 777.369311 261.520065 
L 777.943717 260.589268 
L 778.518124 260.479982 
L 779.09253 261.236035 
L 779.666937 262.841103 
L 780.241343 265.219455 
L 781.390156 271.724707 
L 783.113376 282.691912 
L 783.687782 285.695797 
L 784.262189 287.979994 
L 784.836595 289.348922 
L 785.411002 289.651734 
L 785.985408 288.79192 
L 786.559815 286.733926 
L 787.134221 283.506391 
L 787.708628 279.201818 
L 788.857441 268.024055 
L 791.729473 236.88685 
L 792.30388 232.344088 
L 792.878286 228.921139 
L 793.452693 226.768629 
L 794.027099 225.97562 
L 794.601506 226.565129 
L 795.175912 228.493207 
L 795.750318 231.651662 
L 796.324725 235.87424 
L 797.473538 246.614865 
L 799.771164 269.736022 
L 800.919977 278.049738 
L 801.494383 280.771257 
L 802.06879 282.441776 
L 802.643196 283.068498 
L 803.217603 282.719569 
L 803.792009 281.518929 
L 804.366416 279.638022 
L 805.515229 274.690849 
L 806.664042 269.737967 
L 807.238448 267.829563 
L 807.812855 266.553819 
L 808.387261 266.048634 
L 808.961668 266.398987 
L 809.536074 267.631434 
L 810.110481 269.712012 
L 810.684887 272.547705 
L 811.8337 279.849838 
L 813.55692 291.534952 
L 814.131326 294.62092 
L 814.705732 296.904809 
L 815.280139 298.193112 
L 815.854545 298.339572 
L 816.428952 297.254354 
L 817.003358 294.910142 
L 817.577765 291.344793 
L 818.152171 286.6604 
L 819.300984 274.633683 
L 822.173017 241.149877 
L 822.747423 236.118415 
L 823.32183 232.196413 
L 823.896236 229.530118 
L 824.470643 228.203624 
L 825.045049 228.234923 
L 825.619456 229.57554 
L 826.193862 232.113791 
L 826.768269 235.681453 
L 827.917082 245.010168 
L 830.214708 265.043587 
L 830.789114 268.86945 
L 831.363521 271.842508 
L 831.937927 273.861269 
L 832.512334 274.884832 
L 833.08674 274.93411 
L 833.661146 274.089497 
L 834.235553 272.485123 
L 835.384366 267.746811 
L 836.533179 262.47312 
L 837.107585 260.221086 
L 837.681992 258.508868 
L 838.256398 257.507233 
L 838.830805 257.340289 
L 839.405211 258.077456 
L 839.979618 259.728617 
L 840.554024 262.242728 
L 841.702837 269.36745 
L 844.000463 286.138276 
L 844.57487 289.383388 
L 845.149276 291.760855 
L 845.723683 293.078687 
L 846.298089 293.194452 
L 846.872496 292.024018 
L 847.446902 289.547128 
L 848.021309 285.809487 
L 848.595715 280.921232 
L 849.744528 268.421883 
L 852.616561 233.586757 
L 853.190967 228.260189 
L 853.765373 224.027118 
L 854.33978 221.028147 
L 854.914186 219.341371 
L 855.488593 218.978971 
L 856.062999 219.887424 
L 856.637406 221.951293 
L 857.211812 225.000376 
L 858.360625 233.162568 
L 860.083845 246.679706 
L 861.232658 253.650923 
L 861.807064 255.963841 
L 862.381471 257.361909 
L 862.955877 257.819896 
L 863.530284 257.373563 
L 864.10469 256.116661 
L 864.679097 254.194568 
L 865.82791 249.135927 
L 866.976723 243.982467 
L 867.551129 241.950694 
L 868.125536 240.556212 
L 868.699942 239.959183 
L 869.274349 240.270744 
L 869.848755 241.545566 
L 870.423162 243.777653 
L 870.997568 246.89965 
L 872.146381 255.257741 
L 874.444007 274.20458 
L 875.018413 277.883843 
L 875.59282 280.644975 
L 876.167226 282.297114 
L 876.741633 282.701042 
L 877.316039 281.777482 
L 877.890446 279.512157 
L 878.464852 275.957312 
L 879.039259 271.229621 
L 880.188072 259.0076 
L 883.060104 224.727926 
L 883.634511 219.477145 
L 884.208917 215.296144 
L 884.783324 212.318364 
L 885.35773 210.614583 
L 885.932137 210.19009 
L 886.506543 210.985466 
L 887.08095 212.880923 
L 887.655356 215.703927 
L 888.804169 223.243889 
L 890.527389 235.484821 
L 891.101795 238.8375 
L 891.676202 241.500804 
L 892.250608 243.348741 
L 892.825014 244.312304 
L 893.399421 244.382831 
L 893.973827 243.61184 
L 894.548234 242.107341 
L 895.697047 237.567547 
L 897.420266 230.216119 
L 897.994673 228.550491 
L 898.569079 227.619682 
L 899.143486 227.574212 
L 899.717892 228.513246 
L 900.292299 230.477718 
L 900.866705 233.446787 
L 901.441112 237.337821 
L 902.589925 247.270907 
L 904.887551 269.178851 
L 905.461957 273.51349 
L 906.036364 276.890089 
L 906.61077 279.11884 
L 907.185177 280.063412 
L 907.759583 279.648807 
L 908.33399 277.865895 
L 908.908396 274.772391 
L 909.482803 270.490197 
L 910.631616 259.128299 
L 913.503648 226.850142 
L 914.078054 221.946863 
L 914.652461 218.079483 
L 915.226867 215.372664 
L 915.801274 213.888437 
L 916.37568 213.623969 
L 916.950087 214.512935 
L 917.524493 216.430401 
L 918.0989 219.200933 
L 919.247713 226.414203 
L 920.970932 237.693293 
L 921.545339 240.641035 
L 922.119745 242.88126 
L 922.694152 244.304679 
L 923.268558 244.859619 
L 923.842965 244.554683 
L 924.417371 243.457869 
L 924.991778 241.6922 
L 926.140591 236.873099 
L 927.289404 231.828168 
L 927.86381 229.818353 
L 928.438217 228.448463 
L 929.012623 227.904831 
L 929.58703 228.329471 
L 930.161436 229.810771 
L 930.735843 232.377196 
L 931.310249 235.99437 
L 932.459062 245.936722 
L 935.905501 281.424598 
L 936.479907 285.372784 
L 937.054314 288.143366 
L 937.62872 289.602982 
L 938.203127 289.680719 
L 938.777533 288.372139 
L 939.35194 285.739702 
L 939.926346 281.909564 
L 941.075159 271.436403 
L 943.947192 241.246756 
L 944.521598 236.696832 
L 945.096005 233.14099 
L 945.670411 230.693542 
L 946.244818 229.406347 
L 946.819224 229.267194 
L 947.393631 230.201775 
L 947.968037 232.079134 
L 948.542444 234.720241 
L 949.691257 241.406578 
L 950.840069 248.3374 
L 951.414476 251.305015 
L 951.988882 253.676888 
L 952.563289 255.307858 
L 953.137695 256.105706 
L 953.712102 256.036522 
L 954.286508 255.126661 
L 954.860915 253.461131 
L 956.009728 248.462907 
L 957.732947 239.995469 
L 958.307354 237.875022 
L 958.88176 236.483738 
L 959.456167 236.003324 
L 960.030573 236.568532 
L 960.60498 238.258324 
L 961.179386 241.09014 
L 961.753793 245.017608 
L 962.902606 255.666217 
L 966.349045 293.256107 
L 966.923451 297.496664 
L 967.497858 300.542345 
L 968.072264 302.263215 
L 968.646671 302.592645 
L 969.221077 301.530801 
L 969.795483 299.144527 
L 970.36989 295.563611 
L 971.518703 285.606 
L 974.390735 256.69909 
L 974.965142 252.350631 
L 975.539548 248.95375 
L 976.113955 246.610902 
L 976.688361 245.362375 
L 977.262768 245.185308 
L 977.837174 245.996292 
L 978.411581 247.657373 
L 979.560394 252.762191 
L 981.283613 261.396849 
L 981.85802 263.607641 
L 982.432426 265.163756 
L 983.006833 265.935731 
L 983.581239 265.848477 
L 984.155646 264.885976 
L 984.730052 263.092503 
L 985.304459 260.570314 
L 986.453272 254.001216 
L 988.176491 243.703207 
L 988.750898 241.137757 
L 989.325304 239.385442 
L 989.89971 238.624392 
L 990.474117 238.983291 
L 991.048523 240.533014 
L 991.62293 243.28145 
L 992.197336 247.171818 
L 993.346149 257.842886 
L 996.218182 290.411573 
L 996.218182 290.411573 
" style="fill:none;stroke:#4c72b0;stroke-linecap:round;stroke-width:1.4;"/>
   </g>
   <g id="line2d_30">
    <path clip-path="url(#pde84a39b88)" d="M 184.581818 98.254885 
L 186.305038 97.754472 
L 188.028257 97.021063 
L 189.751477 96.062972 
L 191.474696 94.891054 
L 193.772322 93.019152 
L 196.069948 90.828635 
L 198.94198 87.710109 
L 202.388419 83.540795 
L 207.558078 76.810754 
L 213.302142 69.406412 
L 216.174175 66.013169 
L 219.046207 62.970484 
L 221.343833 60.85339 
L 223.641459 59.06466 
L 225.364679 57.96052 
L 227.087898 57.073986 
L 228.811118 56.415105 
L 230.534337 55.991346 
L 232.257556 55.807517 
L 233.980776 55.865714 
L 235.703995 56.16529 
L 237.427215 56.702871 
L 239.150434 57.472388 
L 240.873654 58.465147 
L 242.596873 59.669928 
L 244.894499 61.582252 
L 247.192125 63.808628 
L 250.064157 66.964575 
L 253.510596 71.166595 
L 258.680255 77.918353 
L 263.849913 84.599073 
L 267.296352 88.677766 
L 270.168384 91.688866 
L 272.46601 93.775014 
L 274.763636 95.528489 
L 276.486856 96.603824 
L 278.210075 97.459917 
L 279.933295 98.087095 
L 281.656514 98.478275 
L 283.379734 98.629045 
L 285.102953 98.537713 
L 286.826173 98.205327 
L 288.549392 97.635661 
L 290.272611 96.835175 
L 291.995831 95.812942 
L 293.71905 94.580542 
L 296.016676 92.634865 
L 298.314302 90.379776 
L 301.186335 87.195429 
L 304.632774 82.971632 
L 310.376838 75.457703 
L 314.97209 69.562544 
L 317.844123 66.162304 
L 320.716155 63.110233 
L 323.013781 60.984105 
L 325.311407 59.185181 
L 327.034627 58.072756 
L 328.757846 57.177493 
L 330.481065 56.509537 
L 332.204285 56.07646 
L 333.927504 55.883176 
L 335.650724 55.931886 
L 337.373943 56.222054 
L 339.097163 56.750409 
L 340.820382 57.510987 
L 342.543602 58.495196 
L 344.266821 59.691914 
L 346.564447 61.594397 
L 348.862073 63.812154 
L 351.734105 66.959309 
L 355.180544 71.154034 
L 360.350203 77.902142 
L 365.519861 84.58822 
L 368.9663 88.67526 
L 371.838332 91.695935 
L 374.135958 93.791247 
L 376.433584 95.555026 
L 378.156804 96.638713 
L 379.880023 97.503587 
L 381.603243 98.139877 
L 383.326462 98.540397 
L 385.049682 98.700629 
L 386.772901 98.618774 
L 388.49612 98.295771 
L 390.21934 97.735291 
L 391.942559 96.943688 
L 393.665779 95.929934 
L 395.388998 94.705514 
L 397.686624 92.769546 
L 399.98425 90.522922 
L 402.856283 87.347154 
L 406.302721 83.130366 
L 412.046786 75.619429 
L 416.642038 69.718665 
L 420.088477 65.668293 
L 422.96051 62.687982 
L 425.258135 60.630582 
L 427.555761 58.908964 
L 429.278981 57.859219 
L 431.0022 57.029882 
L 432.72542 56.43035 
L 434.448639 56.067422 
L 436.171859 55.945218 
L 437.895078 56.065134 
L 439.618298 56.425829 
L 441.341517 57.023234 
L 443.064737 57.850604 
L 444.787956 58.89859 
L 447.085582 60.61827 
L 449.383208 62.674294 
L 451.680834 65.025365 
L 454.552866 68.306676 
L 457.999305 72.609346 
L 469.487435 87.355275 
L 472.359467 90.539467 
L 474.657093 92.793634 
L 476.954719 94.737767 
L 479.252345 96.332821 
L 480.975565 97.280476 
L 482.698784 98.00289 
L 484.422003 98.491902 
L 486.145223 98.741994 
L 487.868442 98.750349 
L 489.591662 98.516886 
L 491.314881 98.044262 
L 493.038101 97.337837 
L 494.76132 96.40562 
L 496.48454 95.258173 
L 498.782166 93.416239 
L 501.079792 91.252103 
L 503.377417 88.8093 
L 506.24945 85.439233 
L 510.270295 80.322251 
L 518.886393 69.169512 
L 521.758425 65.815854 
L 524.630457 62.825816 
L 526.928083 60.759146 
L 529.225709 59.027134 
L 530.948929 57.968981 
L 532.672148 57.130817 
L 534.395368 56.522138 
L 536.118587 56.149847 
L 537.841807 56.01817 
L 539.565026 56.12861 
L 541.288246 56.479932 
L 543.011465 57.068175 
L 544.734684 57.886696 
L 546.457904 58.926247 
L 548.75553 60.635489 
L 551.053156 62.682189 
L 553.350782 65.025237 
L 556.222814 68.298593 
L 559.669253 72.595079 
L 571.731789 88.015743 
L 574.603822 91.13391 
L 576.901448 93.323359 
L 579.199074 95.193594 
L 580.922293 96.363928 
L 582.645512 97.3202 
L 584.368732 98.051602 
L 586.091951 98.549874 
L 587.815171 98.80939 
L 589.53839 98.827228 
L 591.26161 98.6032 
L 592.984829 98.139855 
L 594.708049 97.44245 
L 596.431268 96.518891 
L 598.154488 95.37964 
L 600.452113 93.54776 
L 602.749739 91.392493 
L 605.047365 88.957196 
L 607.919398 85.594368 
L 611.940243 80.483132 
L 620.55634 69.324452 
L 623.428373 65.963474 
L 626.300405 62.96376 
L 628.598031 60.887855 
L 630.895657 59.14548 
L 632.618877 58.078938 
L 634.342096 57.231962 
L 636.065316 56.614147 
L 637.788535 56.232499 
L 639.511754 56.091351 
L 641.234974 56.192312 
L 642.958193 56.534256 
L 644.681413 57.113326 
L 646.404632 57.922984 
L 648.127852 58.954083 
L 649.851071 60.194968 
L 652.148697 62.15125 
L 654.446323 64.416002 
L 657.318356 67.610908 
L 660.764794 71.844887 
L 666.508859 79.369209 
L 671.104111 85.266637 
L 673.976144 88.665701 
L 676.848176 91.714789 
L 679.145802 93.837376 
L 681.443428 95.631882 
L 683.166647 96.74051 
L 684.889867 97.631639 
L 686.613086 98.295199 
L 688.336306 98.723696 
L 690.059525 98.912296 
L 691.782745 98.858878 
L 693.505964 98.564061 
L 695.229184 98.031193 
L 696.952403 97.26632 
L 698.675622 96.278109 
L 700.398842 95.077757 
L 702.696468 93.171116 
L 704.994094 90.950123 
L 707.866126 87.800421 
L 711.312565 83.605101 
L 716.482224 76.861611 
L 721.651882 70.186962 
L 725.098321 66.111151 
L 727.970353 63.101814 
L 730.267979 61.016711 
L 732.565605 59.264002 
L 734.288825 58.18909 
L 736.012044 57.333316 
L 737.735263 56.706376 
L 739.458483 56.315378 
L 741.181702 56.164761 
L 742.904922 56.256243 
L 744.628141 56.588802 
L 746.351361 57.15869 
L 748.07458 57.959471 
L 749.7978 58.982099 
L 751.521019 60.215015 
L 753.818645 62.161608 
L 756.116271 64.417917 
L 758.988303 67.604278 
L 762.434742 71.831293 
L 768.178807 79.352706 
L 772.774059 85.255803 
L 776.220498 89.304585 
L 779.09253 92.281607 
L 781.390156 94.335254 
L 783.687782 96.052274 
L 785.411002 97.09811 
L 787.134221 97.923224 
L 788.857441 98.518293 
L 790.58066 98.876597 
L 792.30388 98.994097 
L 794.027099 98.869477 
L 795.750318 98.504159 
L 797.473538 97.902293 
L 799.196757 97.070702 
L 800.919977 96.01881 
L 803.217603 94.294535 
L 805.515229 92.234764 
L 807.812855 89.880934 
L 810.684887 86.597744 
L 814.131326 82.295363 
L 825.619456 67.571997 
L 828.491488 64.398403 
L 830.789114 62.153924 
L 833.08674 60.220417 
L 835.384366 58.63678 
L 837.107585 57.698107 
L 838.830805 56.984954 
L 840.554024 56.505404 
L 842.277244 56.264898 
L 844.000463 56.26617 
L 845.723683 56.50922 
L 847.446902 56.991311 
L 849.170122 57.707004 
L 850.893341 58.648212 
L 852.616561 59.804299 
L 854.914186 61.657088 
L 857.211812 63.83118 
L 860.083845 66.933553 
L 862.955877 70.372032 
L 866.976723 75.543804 
L 874.444007 85.244694 
L 877.890446 89.302069 
L 880.762478 92.28885 
L 883.060104 94.351788 
L 885.35773 96.079218 
L 887.08095 97.13347 
L 888.804169 97.967417 
L 890.527389 98.571636 
L 892.250608 98.939304 
L 893.973827 99.066274 
L 895.697047 98.951123 
L 897.420266 98.595169 
L 899.143486 98.002453 
L 900.866705 97.179695 
L 902.589925 96.136219 
L 904.887551 94.422354 
L 907.185177 92.371873 
L 909.482803 90.026028 
L 912.354835 86.750742 
L 915.801274 82.45448 
L 927.289404 67.722944 
L 930.161436 64.540749 
L 932.459062 62.287788 
L 934.756688 60.344557 
L 937.054314 58.750151 
L 938.777533 57.802845 
L 940.500753 57.080689 
L 942.223972 56.591869 
L 943.947192 56.34193 
L 945.670411 56.333713 
L 947.393631 56.567327 
L 949.11685 57.04014 
L 950.840069 57.746817 
L 952.563289 58.679375 
L 954.286508 59.827276 
L 956.584134 61.670029 
L 958.88176 63.835274 
L 961.179386 66.279518 
L 964.051419 69.651909 
L 968.072264 74.773217 
L 976.688361 85.939677 
L 979.560394 89.29921 
L 982.432426 92.295697 
L 984.730052 94.367891 
L 987.027678 96.105701 
L 988.750898 97.168351 
L 990.474117 98.011117 
L 992.197336 98.624475 
L 993.920556 99.001499 
L 995.643775 99.137937 
L 996.218182 99.12961 
L 996.218182 99.12961 
" style="fill:none;stroke:#55a868;stroke-linecap:round;stroke-width:1.4;"/>
   </g>
   <g id="patch_3">
    <path d="M 144 320.4 
L 144 43.2 
" style="fill:none;"/>
   </g>
   <g id="patch_4">
    <path d="M 1036.8 320.4 
L 1036.8 43.2 
" style="fill:none;"/>
   </g>
   <g id="patch_5">
    <path d="M 144 320.4 
L 1036.8 320.4 
" style="fill:none;"/>
   </g>
   <g id="patch_6">
    <path d="M 144 43.2 
L 1036.8 43.2 
" style="fill:none;"/>
   </g>
   <g id="legend_1">
    <g id="line2d_31">
     <path d="M 1002.75125 53.3975 
L 1018.75125 53.3975 
" style="fill:none;stroke:#4c72b0;stroke-linecap:round;stroke-width:1.4;"/>
    </g>
    <g id="line2d_32"/>
    <g id="text_15">
     <!-- a -->
     <defs>
      <path d="M 20.21875 -0.984375 
Q 12.25 -0.984375 8.25 3.21875 
Q 4.25 7.421875 4.25 14.75 
Q 4.25 19.96875 6.21875 23.3125 
Q 8.203125 26.65625 11.390625 28.5625 
Q 14.59375 30.46875 18.6875 31.203125 
Q 22.796875 31.9375 27.046875 32.03125 
L 38.921875 32.234375 
L 38.921875 35.109375 
Q 38.921875 38.375 38.234375 40.671875 
Q 37.546875 42.96875 36.125 44.375 
Q 34.71875 45.796875 32.59375 46.453125 
Q 30.46875 47.125 27.59375 47.125 
Q 25.046875 47.125 23 46.75 
Q 20.953125 46.390625 19.4375 45.4375 
Q 17.921875 44.484375 16.984375 42.84375 
Q 16.0625 41.21875 15.765625 38.71875 
L 6.59375 39.546875 
Q 7.078125 42.671875 8.4375 45.28125 
Q 9.8125 47.90625 12.328125 49.796875 
Q 14.84375 51.703125 18.625 52.75 
Q 22.40625 53.8125 27.78125 53.8125 
Q 37.75 53.8125 42.765625 49.234375 
Q 47.796875 44.671875 47.796875 36.03125 
L 47.796875 13.28125 
Q 47.796875 9.375 48.828125 7.390625 
Q 49.859375 5.421875 52.734375 5.421875 
Q 53.46875 5.421875 54.203125 5.515625 
Q 54.9375 5.609375 55.609375 5.765625 
L 55.609375 0.296875 
Q 53.953125 -0.09375 52.3125 -0.28125 
Q 50.6875 -0.484375 48.828125 -0.484375 
Q 46.34375 -0.484375 44.5625 0.171875 
Q 42.78125 0.828125 41.65625 2.171875 
Q 40.53125 3.515625 39.9375 5.484375 
Q 39.359375 7.46875 39.203125 10.109375 
L 38.921875 10.109375 
Q 37.5 7.5625 35.8125 5.515625 
Q 34.125 3.46875 31.875 2.03125 
Q 29.640625 0.59375 26.78125 -0.1875 
Q 23.921875 -0.984375 20.21875 -0.984375 
M 22.21875 5.609375 
Q 26.421875 5.609375 29.5625 7.140625 
Q 32.71875 8.6875 34.78125 11.078125 
Q 36.859375 13.484375 37.890625 16.3125 
Q 38.921875 19.140625 38.921875 21.734375 
L 38.921875 26.078125 
L 29.296875 25.875 
Q 26.078125 25.828125 23.171875 25.40625 
Q 20.265625 25 18.0625 23.78125 
Q 15.875 22.5625 14.578125 20.359375 
Q 13.28125 18.171875 13.28125 14.59375 
Q 13.28125 10.296875 15.59375 7.953125 
Q 17.921875 5.609375 22.21875 5.609375 
" id="LiberationSans-61"/>
     </defs>
     <g style="fill:#262626;" transform="translate(1025.15125 56.1975)scale(0.08 -0.08)">
      <use xlink:href="#LiberationSans-61"/>
     </g>
    </g>
    <g id="line2d_33">
     <path d="M 1002.75125 64.855 
L 1018.75125 64.855 
" style="fill:none;stroke:#55a868;stroke-linecap:round;stroke-width:1.4;"/>
    </g>
    <g id="line2d_34"/>
    <g id="text_16">
     <!-- b -->
     <defs>
      <path d="M 51.421875 26.65625 
Q 51.421875 -0.984375 31.984375 -0.984375 
Q 25.984375 -0.984375 22 1.1875 
Q 18.015625 3.375 15.53125 8.203125 
L 15.4375 8.203125 
Q 15.4375 6.9375 15.359375 5.5625 
Q 15.28125 4.203125 15.203125 3.03125 
Q 15.140625 1.859375 15.0625 1.03125 
Q 14.984375 0.203125 14.9375 0 
L 6.453125 0 
Q 6.5 0.4375 6.546875 1.484375 
Q 6.59375 2.546875 6.640625 4 
Q 6.6875 5.46875 6.703125 7.21875 
Q 6.734375 8.984375 6.734375 10.890625 
L 6.734375 72.46875 
L 15.53125 72.46875 
L 15.53125 51.8125 
Q 15.53125 50.34375 15.5 49 
Q 15.484375 47.65625 15.4375 46.625 
Q 15.375 45.40625 15.328125 44.34375 
L 15.53125 44.34375 
Q 17.96875 49.421875 22 51.609375 
Q 26.03125 53.8125 31.984375 53.8125 
Q 42 53.8125 46.703125 47.0625 
Q 51.421875 40.328125 51.421875 26.65625 
M 42.1875 26.375 
Q 42.1875 31.84375 41.5 35.75 
Q 40.828125 39.65625 39.3125 42.15625 
Q 37.796875 44.671875 35.453125 45.84375 
Q 33.109375 47.015625 29.734375 47.015625 
Q 26.265625 47.015625 23.609375 45.890625 
Q 20.953125 44.78125 19.171875 42.28125 
Q 17.390625 39.796875 16.453125 35.734375 
Q 15.53125 31.6875 15.53125 25.828125 
Q 15.53125 20.171875 16.453125 16.3125 
Q 17.390625 12.453125 19.171875 10.03125 
Q 20.953125 7.625 23.578125 6.5625 
Q 26.21875 5.515625 29.640625 5.515625 
Q 32.859375 5.515625 35.203125 6.640625 
Q 37.546875 7.765625 39.109375 10.25 
Q 40.671875 12.75 41.421875 16.71875 
Q 42.1875 20.703125 42.1875 26.375 
" id="LiberationSans-62"/>
     </defs>
     <g style="fill:#262626;" transform="translate(1025.15125 67.655)scale(0.08 -0.08)">
      <use xlink:href="#LiberationSans-62"/>
     </g>
    </g>
   </g>
  </g>
 </g>
 <defs>
  <clipPath id="pde84a39b88">
   <rect height="277.2" width="892.8" x="144" y="43.2"/>
  </clipPath>
 </defs>
</svg>
