<?xml version="1.0" encoding="utf-8" standalone="no"?>
<!DOCTYPE svg PUBLIC "-//W3C//DTD SVG 1.1//EN"
  "http://www.w3.org/Graphics/SVG/1.1/DTD/svg11.dtd">
<!-- Created with matplotlib (http://matplotlib.org/) -->
<svg height="360pt" version="1.1" viewBox="0 0 1152 360" width="1152pt" xmlns="http://www.w3.org/2000/svg" xmlns:xlink="http://www.w3.org/1999/xlink">
 <defs>
  <style type="text/css">
*{stroke-linecap:butt;stroke-linejoin:round;}
  </style>
 </defs>
 <g id="figure_1">
  <g id="patch_1">
   <path d="M 0 360 
L 1152 360 
L 1152 0 
L 0 0 
z
" style="fill:#ffffff;"/>
  </g>
  <g id="axes_1">
   <g id="patch_2">
    <path d="M 144 320.4 
L 1036.8 320.4 
L 1036.8 43.2 
L 144 43.2 
z
" style="fill:#eaeaf2;"/>
   </g>
   <g id="matplotlib.axis_1">
    <g id="xtick_1">
     <g id="line2d_1">
      <path clip-path="url(#pfa1be923e8)" d="M 184.581818 320.4 
L 184.581818 43.2 
" style="fill:none;stroke:#ffffff;stroke-linecap:round;stroke-width:0.8;"/>
     </g>
     <g id="line2d_2"/>
     <g id="text_1">
      <!-- 0 -->
      <defs>
       <path d="M 51.703125 34.421875 
Q 51.703125 24.515625 49.828125 17.75 
Q 47.953125 10.984375 44.703125 6.8125 
Q 41.453125 2.640625 37.0625 0.828125 
Q 32.671875 -0.984375 27.6875 -0.984375 
Q 22.65625 -0.984375 18.3125 0.828125 
Q 13.96875 2.640625 10.765625 6.78125 
Q 7.5625 10.9375 5.734375 17.703125 
Q 3.90625 24.46875 3.90625 34.421875 
Q 3.90625 44.828125 5.734375 51.640625 
Q 7.5625 58.453125 10.78125 62.5 
Q 14.015625 66.546875 18.40625 68.1875 
Q 22.796875 69.828125 27.984375 69.828125 
Q 32.90625 69.828125 37.21875 68.1875 
Q 41.546875 66.546875 44.765625 62.5 
Q 48 58.453125 49.84375 51.640625 
Q 51.703125 44.828125 51.703125 34.421875 
M 42.78125 34.421875 
Q 42.78125 42.625 41.796875 48.0625 
Q 40.828125 53.515625 38.921875 56.765625 
Q 37.015625 60.015625 34.25 61.359375 
Q 31.5 62.703125 27.984375 62.703125 
Q 24.265625 62.703125 21.4375 61.328125 
Q 18.609375 59.96875 16.671875 56.71875 
Q 14.75 53.46875 13.765625 48.015625 
Q 12.796875 42.578125 12.796875 34.421875 
Q 12.796875 26.515625 13.796875 21.09375 
Q 14.796875 15.671875 16.71875 12.375 
Q 18.65625 9.078125 21.4375 7.640625 
Q 24.21875 6.203125 27.78125 6.203125 
Q 31.25 6.203125 34.03125 7.640625 
Q 36.8125 9.078125 38.734375 12.375 
Q 40.671875 15.671875 41.71875 21.09375 
Q 42.78125 26.515625 42.78125 34.421875 
" id="LiberationSans-30"/>
      </defs>
      <g style="fill:#262626;" transform="translate(182.357443 331.7975)scale(0.08 -0.08)">
       <use xlink:href="#LiberationSans-30"/>
      </g>
     </g>
    </g>
    <g id="xtick_2">
     <g id="line2d_3">
      <path clip-path="url(#pfa1be923e8)" d="M 299.625952 320.4 
L 299.625952 43.2 
" style="fill:none;stroke:#ffffff;stroke-linecap:round;stroke-width:0.8;"/>
     </g>
     <g id="line2d_4"/>
     <g id="text_2">
      <!-- 200 -->
      <defs>
       <path d="M 5.03125 0 
L 5.03125 6.203125 
Q 7.515625 11.921875 11.109375 16.28125 
Q 14.703125 20.65625 18.65625 24.1875 
Q 22.609375 27.734375 26.484375 30.765625 
Q 30.375 33.796875 33.5 36.8125 
Q 36.625 39.84375 38.546875 43.15625 
Q 40.484375 46.484375 40.484375 50.6875 
Q 40.484375 53.609375 39.59375 55.828125 
Q 38.71875 58.0625 37.0625 59.5625 
Q 35.40625 61.078125 33.078125 61.828125 
Q 30.765625 62.59375 27.9375 62.59375 
Q 25.296875 62.59375 22.96875 61.859375 
Q 20.65625 61.140625 18.84375 59.671875 
Q 17.046875 58.203125 15.890625 56.03125 
Q 14.75 53.859375 14.40625 50.984375 
L 5.421875 51.8125 
Q 5.859375 55.515625 7.46875 58.78125 
Q 9.078125 62.0625 11.90625 64.53125 
Q 14.75 67 18.71875 68.40625 
Q 22.703125 69.828125 27.9375 69.828125 
Q 33.0625 69.828125 37.0625 68.609375 
Q 41.0625 67.390625 43.8125 64.984375 
Q 46.578125 62.59375 48.046875 59.078125 
Q 49.515625 55.5625 49.515625 50.984375 
Q 49.515625 47.515625 48.265625 44.390625 
Q 47.015625 41.265625 44.9375 38.421875 
Q 42.875 35.59375 40.140625 32.953125 
Q 37.40625 30.328125 34.421875 27.8125 
Q 31.453125 25.296875 28.421875 22.828125 
Q 25.390625 20.359375 22.71875 17.859375 
Q 20.0625 15.375 17.96875 12.8125 
Q 15.875 10.25 14.703125 7.46875 
L 50.59375 7.46875 
L 50.59375 0 
z
" id="LiberationSans-32"/>
      </defs>
      <g style="fill:#262626;" transform="translate(292.952827 331.7975)scale(0.08 -0.08)">
       <use xlink:href="#LiberationSans-32"/>
       <use x="55.615234" xlink:href="#LiberationSans-30"/>
       <use x="111.230469" xlink:href="#LiberationSans-30"/>
      </g>
     </g>
    </g>
    <g id="xtick_3">
     <g id="line2d_5">
      <path clip-path="url(#pfa1be923e8)" d="M 414.670086 320.4 
L 414.670086 43.2 
" style="fill:none;stroke:#ffffff;stroke-linecap:round;stroke-width:0.8;"/>
     </g>
     <g id="line2d_6"/>
     <g id="text_3">
      <!-- 400 -->
      <defs>
       <path d="M 43.015625 15.578125 
L 43.015625 0 
L 34.71875 0 
L 34.71875 15.578125 
L 2.296875 15.578125 
L 2.296875 22.40625 
L 33.796875 68.796875 
L 43.015625 68.796875 
L 43.015625 22.515625 
L 52.6875 22.515625 
L 52.6875 15.578125 
z
M 34.71875 58.890625 
Q 34.625 58.640625 34.234375 57.9375 
Q 33.84375 57.234375 33.34375 56.34375 
Q 32.859375 55.46875 32.34375 54.5625 
Q 31.84375 53.65625 31.453125 53.078125 
L 13.8125 27.09375 
Q 13.578125 26.703125 13.109375 26.0625 
Q 12.640625 25.4375 12.15625 24.78125 
Q 11.671875 24.125 11.171875 23.484375 
Q 10.6875 22.859375 10.40625 22.515625 
L 34.71875 22.515625 
z
" id="LiberationSans-34"/>
      </defs>
      <g style="fill:#262626;" transform="translate(407.996961 331.7975)scale(0.08 -0.08)">
       <use xlink:href="#LiberationSans-34"/>
       <use x="55.615234" xlink:href="#LiberationSans-30"/>
       <use x="111.230469" xlink:href="#LiberationSans-30"/>
      </g>
     </g>
    </g>
    <g id="xtick_4">
     <g id="line2d_7">
      <path clip-path="url(#pfa1be923e8)" d="M 529.714219 320.4 
L 529.714219 43.2 
" style="fill:none;stroke:#ffffff;stroke-linecap:round;stroke-width:0.8;"/>
     </g>
     <g id="line2d_8"/>
     <g id="text_4">
      <!-- 600 -->
      <defs>
       <path d="M 51.21875 22.515625 
Q 51.21875 17.328125 49.78125 13 
Q 48.34375 8.6875 45.53125 5.578125 
Q 42.71875 2.484375 38.5625 0.75 
Q 34.421875 -0.984375 29 -0.984375 
Q 23 -0.984375 18.5 1.3125 
Q 14.015625 3.609375 11.03125 7.921875 
Q 8.0625 12.25 6.5625 18.53125 
Q 5.078125 24.8125 5.078125 32.8125 
Q 5.078125 42 6.765625 48.921875 
Q 8.453125 55.859375 11.625 60.5 
Q 14.796875 65.140625 19.359375 67.484375 
Q 23.921875 69.828125 29.6875 69.828125 
Q 33.203125 69.828125 36.28125 69.09375 
Q 39.359375 68.359375 41.875 66.71875 
Q 44.390625 65.09375 46.28125 62.40625 
Q 48.1875 59.71875 49.3125 55.8125 
L 40.921875 54.296875 
Q 39.546875 58.734375 36.546875 60.71875 
Q 33.546875 62.703125 29.59375 62.703125 
Q 25.984375 62.703125 23.046875 60.984375 
Q 20.125 59.28125 18.0625 55.875 
Q 16.015625 52.484375 14.90625 47.359375 
Q 13.8125 42.234375 13.8125 35.40625 
Q 16.21875 39.84375 20.5625 42.15625 
Q 24.90625 44.484375 30.515625 44.484375 
Q 35.203125 44.484375 39.015625 42.96875 
Q 42.828125 41.453125 45.53125 38.59375 
Q 48.25 35.75 49.734375 31.671875 
Q 51.21875 27.59375 51.21875 22.515625 
M 42.28125 22.125 
Q 42.28125 25.6875 41.40625 28.5625 
Q 40.53125 31.453125 38.765625 33.46875 
Q 37.015625 35.5 34.421875 36.59375 
Q 31.84375 37.703125 28.421875 37.703125 
Q 26.03125 37.703125 23.578125 36.984375 
Q 21.140625 36.28125 19.15625 34.6875 
Q 17.1875 33.109375 15.9375 30.515625 
Q 14.703125 27.9375 14.703125 24.21875 
Q 14.703125 20.40625 15.671875 17.109375 
Q 16.65625 13.8125 18.484375 11.375 
Q 20.3125 8.9375 22.890625 7.515625 
Q 25.484375 6.109375 28.71875 6.109375 
Q 31.890625 6.109375 34.40625 7.203125 
Q 36.921875 8.296875 38.671875 10.375 
Q 40.4375 12.453125 41.359375 15.421875 
Q 42.28125 18.40625 42.28125 22.125 
" id="LiberationSans-36"/>
      </defs>
      <g style="fill:#262626;" transform="translate(523.041094 331.7975)scale(0.08 -0.08)">
       <use xlink:href="#LiberationSans-36"/>
       <use x="55.615234" xlink:href="#LiberationSans-30"/>
       <use x="111.230469" xlink:href="#LiberationSans-30"/>
      </g>
     </g>
    </g>
    <g id="xtick_5">
     <g id="line2d_9">
      <path clip-path="url(#pfa1be923e8)" d="M 644.758353 320.4 
L 644.758353 43.2 
" style="fill:none;stroke:#ffffff;stroke-linecap:round;stroke-width:0.8;"/>
     </g>
     <g id="line2d_10"/>
     <g id="text_5">
      <!-- 800 -->
      <defs>
       <path d="M 51.265625 19.1875 
Q 51.265625 14.796875 49.875 11.109375 
Q 48.484375 7.421875 45.625 4.734375 
Q 42.78125 2.046875 38.328125 0.53125 
Q 33.890625 -0.984375 27.828125 -0.984375 
Q 21.78125 -0.984375 17.359375 0.53125 
Q 12.9375 2.046875 10.03125 4.703125 
Q 7.125 7.375 5.734375 11.0625 
Q 4.34375 14.75 4.34375 19.09375 
Q 4.34375 22.859375 5.484375 25.78125 
Q 6.640625 28.71875 8.5625 30.828125 
Q 10.5 32.953125 12.96875 34.25 
Q 15.4375 35.546875 18.0625 35.984375 
L 18.0625 36.1875 
Q 15.1875 36.859375 12.90625 38.375 
Q 10.640625 39.890625 9.09375 42.015625 
Q 7.5625 44.140625 6.75 46.71875 
Q 5.953125 49.3125 5.953125 52.203125 
Q 5.953125 55.8125 7.34375 59 
Q 8.734375 62.203125 11.46875 64.625 
Q 14.203125 67.046875 18.25 68.4375 
Q 22.3125 69.828125 27.640625 69.828125 
Q 33.25 69.828125 37.375 68.40625 
Q 41.5 67 44.203125 64.578125 
Q 46.921875 62.15625 48.234375 58.9375 
Q 49.5625 55.71875 49.5625 52.09375 
Q 49.5625 49.265625 48.75 46.671875 
Q 47.953125 44.09375 46.40625 41.96875 
Q 44.875 39.84375 42.59375 38.34375 
Q 40.328125 36.859375 37.359375 36.28125 
L 37.359375 36.078125 
Q 40.328125 35.59375 42.859375 34.296875 
Q 45.40625 33.015625 47.265625 30.890625 
Q 49.125 28.765625 50.1875 25.828125 
Q 51.265625 22.90625 51.265625 19.1875 
M 40.4375 51.609375 
Q 40.4375 54.203125 39.765625 56.34375 
Q 39.109375 58.5 37.59375 60.03125 
Q 36.078125 61.578125 33.640625 62.421875 
Q 31.203125 63.28125 27.640625 63.28125 
Q 24.171875 63.28125 21.78125 62.421875 
Q 19.390625 61.578125 17.84375 60.03125 
Q 16.3125 58.5 15.625 56.34375 
Q 14.9375 54.203125 14.9375 51.609375 
Q 14.9375 49.5625 15.46875 47.40625 
Q 16.015625 45.265625 17.421875 43.5 
Q 18.84375 41.75 21.328125 40.625 
Q 23.828125 39.5 27.734375 39.5 
Q 31.890625 39.5 34.40625 40.625 
Q 36.921875 41.75 38.25 43.5 
Q 39.59375 45.265625 40.015625 47.40625 
Q 40.4375 49.5625 40.4375 51.609375 
M 42.140625 20.015625 
Q 42.140625 22.515625 41.453125 24.828125 
Q 40.765625 27.15625 39.109375 28.9375 
Q 37.453125 30.71875 34.640625 31.8125 
Q 31.84375 32.90625 27.640625 32.90625 
Q 23.78125 32.90625 21.0625 31.8125 
Q 18.359375 30.71875 16.671875 28.90625 
Q 14.984375 27.09375 14.203125 24.71875 
Q 13.421875 22.359375 13.421875 19.828125 
Q 13.421875 16.65625 14.203125 14.03125 
Q 14.984375 11.421875 16.6875 9.546875 
Q 18.40625 7.671875 21.1875 6.640625 
Q 23.96875 5.609375 27.9375 5.609375 
Q 31.9375 5.609375 34.671875 6.640625 
Q 37.40625 7.671875 39.0625 9.546875 
Q 40.71875 11.421875 41.421875 14.078125 
Q 42.140625 16.75 42.140625 20.015625 
" id="LiberationSans-38"/>
      </defs>
      <g style="fill:#262626;" transform="translate(638.085228 331.7975)scale(0.08 -0.08)">
       <use xlink:href="#LiberationSans-38"/>
       <use x="55.615234" xlink:href="#LiberationSans-30"/>
       <use x="111.230469" xlink:href="#LiberationSans-30"/>
      </g>
     </g>
    </g>
    <g id="xtick_6">
     <g id="line2d_11">
      <path clip-path="url(#pfa1be923e8)" d="M 759.802487 320.4 
L 759.802487 43.2 
" style="fill:none;stroke:#ffffff;stroke-linecap:round;stroke-width:0.8;"/>
     </g>
     <g id="line2d_12"/>
     <g id="text_6">
      <!-- 1000 -->
      <defs>
       <path d="M 7.625 0 
L 7.625 7.46875 
L 25.140625 7.46875 
L 25.140625 60.40625 
L 9.625 49.3125 
L 9.625 57.625 
L 25.875 68.796875 
L 33.984375 68.796875 
L 33.984375 7.46875 
L 50.734375 7.46875 
L 50.734375 0 
z
" id="LiberationSans-31"/>
      </defs>
      <g style="fill:#262626;" transform="translate(750.904987 331.7975)scale(0.08 -0.08)">
       <use xlink:href="#LiberationSans-31"/>
       <use x="55.615234" xlink:href="#LiberationSans-30"/>
       <use x="111.230469" xlink:href="#LiberationSans-30"/>
       <use x="166.845703" xlink:href="#LiberationSans-30"/>
      </g>
     </g>
    </g>
    <g id="xtick_7">
     <g id="line2d_13">
      <path clip-path="url(#pfa1be923e8)" d="M 874.846621 320.4 
L 874.846621 43.2 
" style="fill:none;stroke:#ffffff;stroke-linecap:round;stroke-width:0.8;"/>
     </g>
     <g id="line2d_14"/>
     <g id="text_7">
      <!-- 1200 -->
      <g style="fill:#262626;" transform="translate(865.949121 331.7975)scale(0.08 -0.08)">
       <use xlink:href="#LiberationSans-31"/>
       <use x="55.615234" xlink:href="#LiberationSans-32"/>
       <use x="111.230469" xlink:href="#LiberationSans-30"/>
       <use x="166.845703" xlink:href="#LiberationSans-30"/>
      </g>
     </g>
    </g>
    <g id="xtick_8">
     <g id="line2d_15">
      <path clip-path="url(#pfa1be923e8)" d="M 989.890754 320.4 
L 989.890754 43.2 
" style="fill:none;stroke:#ffffff;stroke-linecap:round;stroke-width:0.8;"/>
     </g>
     <g id="line2d_16"/>
     <g id="text_8">
      <!-- 1400 -->
      <g style="fill:#262626;" transform="translate(980.993254 331.7975)scale(0.08 -0.08)">
       <use xlink:href="#LiberationSans-31"/>
       <use x="55.615234" xlink:href="#LiberationSans-34"/>
       <use x="111.230469" xlink:href="#LiberationSans-30"/>
       <use x="166.845703" xlink:href="#LiberationSans-30"/>
      </g>
     </g>
    </g>
   </g>
   <g id="matplotlib.axis_2">
    <g id="ytick_1">
     <g id="line2d_17">
      <path clip-path="url(#pfa1be923e8)" d="M 144 295.571777 
L 1036.8 295.571777 
" style="fill:none;stroke:#ffffff;stroke-linecap:round;stroke-width:0.8;"/>
     </g>
     <g id="line2d_18"/>
     <g id="text_9">
      <!-- −100000 -->
      <defs>
       <path d="M 4.9375 29.6875 
L 4.9375 36.8125 
L 53.515625 36.8125 
L 53.515625 29.6875 
z
" id="LiberationSans-2212"/>
      </defs>
      <g style="fill:#262626;" transform="translate(107.035 298.470527)scale(0.08 -0.08)">
       <use xlink:href="#LiberationSans-2212"/>
       <use x="58.398438" xlink:href="#LiberationSans-31"/>
       <use x="114.013672" xlink:href="#LiberationSans-30"/>
       <use x="169.628906" xlink:href="#LiberationSans-30"/>
       <use x="225.244141" xlink:href="#LiberationSans-30"/>
       <use x="280.859375" xlink:href="#LiberationSans-30"/>
       <use x="336.474609" xlink:href="#LiberationSans-30"/>
      </g>
     </g>
    </g>
    <g id="ytick_2">
     <g id="line2d_19">
      <path clip-path="url(#pfa1be923e8)" d="M 144 258.107858 
L 1036.8 258.107858 
" style="fill:none;stroke:#ffffff;stroke-linecap:round;stroke-width:0.8;"/>
     </g>
     <g id="line2d_20"/>
     <g id="text_10">
      <!-- −75000 -->
      <defs>
       <path d="M 50.59375 61.671875 
Q 45.40625 53.765625 41.0625 46.453125 
Q 36.71875 39.15625 33.59375 31.75 
Q 30.46875 24.359375 28.734375 16.578125 
Q 27 8.796875 27 0 
L 17.828125 0 
Q 17.828125 8.25 19.78125 16.1875 
Q 21.734375 24.125 25.046875 31.765625 
Q 28.375 39.40625 32.765625 46.78125 
Q 37.15625 54.15625 42.09375 61.328125 
L 5.125 61.328125 
L 5.125 68.796875 
L 50.59375 68.796875 
z
" id="LiberationSans-37"/>
       <path d="M 51.421875 22.40625 
Q 51.421875 17.234375 49.859375 12.9375 
Q 48.296875 8.640625 45.21875 5.53125 
Q 42.140625 2.4375 37.578125 0.71875 
Q 33.015625 -0.984375 27 -0.984375 
Q 21.578125 -0.984375 17.546875 0.28125 
Q 13.53125 1.5625 10.734375 3.78125 
Q 7.953125 6 6.3125 8.984375 
Q 4.6875 11.96875 4 15.375 
L 12.890625 16.40625 
Q 13.421875 14.453125 14.390625 12.625 
Q 15.375 10.796875 17.0625 9.34375 
Q 18.75 7.90625 21.21875 7.046875 
Q 23.6875 6.203125 27.203125 6.203125 
Q 30.609375 6.203125 33.390625 7.25 
Q 36.1875 8.296875 38.15625 10.34375 
Q 40.140625 12.40625 41.203125 15.375 
Q 42.28125 18.359375 42.28125 22.21875 
Q 42.28125 25.390625 41.25 28.046875 
Q 40.234375 30.71875 38.328125 32.640625 
Q 36.421875 34.578125 33.65625 35.640625 
Q 30.90625 36.71875 27.390625 36.71875 
Q 25.203125 36.71875 23.34375 36.328125 
Q 21.484375 35.9375 19.890625 35.25 
Q 18.3125 34.578125 17.015625 33.671875 
Q 15.71875 32.765625 14.59375 31.78125 
L 6 31.78125 
L 8.296875 68.796875 
L 47.40625 68.796875 
L 47.40625 61.328125 
L 16.3125 61.328125 
L 14.984375 39.5 
Q 17.328125 41.3125 20.84375 42.59375 
Q 24.359375 43.890625 29.203125 43.890625 
Q 34.328125 43.890625 38.421875 42.328125 
Q 42.53125 40.765625 45.40625 37.90625 
Q 48.296875 35.0625 49.859375 31.109375 
Q 51.421875 27.15625 51.421875 22.40625 
" id="LiberationSans-35"/>
      </defs>
      <g style="fill:#262626;" transform="translate(111.48375 261.006608)scale(0.08 -0.08)">
       <use xlink:href="#LiberationSans-2212"/>
       <use x="58.398438" xlink:href="#LiberationSans-37"/>
       <use x="114.013672" xlink:href="#LiberationSans-35"/>
       <use x="169.628906" xlink:href="#LiberationSans-30"/>
       <use x="225.244141" xlink:href="#LiberationSans-30"/>
       <use x="280.859375" xlink:href="#LiberationSans-30"/>
      </g>
     </g>
    </g>
    <g id="ytick_3">
     <g id="line2d_21">
      <path clip-path="url(#pfa1be923e8)" d="M 144 220.64394 
L 1036.8 220.64394 
" style="fill:none;stroke:#ffffff;stroke-linecap:round;stroke-width:0.8;"/>
     </g>
     <g id="line2d_22"/>
     <g id="text_11">
      <!-- −50000 -->
      <g style="fill:#262626;" transform="translate(111.48375 223.54269)scale(0.08 -0.08)">
       <use xlink:href="#LiberationSans-2212"/>
       <use x="58.398438" xlink:href="#LiberationSans-35"/>
       <use x="114.013672" xlink:href="#LiberationSans-30"/>
       <use x="169.628906" xlink:href="#LiberationSans-30"/>
       <use x="225.244141" xlink:href="#LiberationSans-30"/>
       <use x="280.859375" xlink:href="#LiberationSans-30"/>
      </g>
     </g>
    </g>
    <g id="ytick_4">
     <g id="line2d_23">
      <path clip-path="url(#pfa1be923e8)" d="M 144 183.180021 
L 1036.8 183.180021 
" style="fill:none;stroke:#ffffff;stroke-linecap:round;stroke-width:0.8;"/>
     </g>
     <g id="line2d_24"/>
     <g id="text_12">
      <!-- −25000 -->
      <g style="fill:#262626;" transform="translate(111.48375 186.078771)scale(0.08 -0.08)">
       <use xlink:href="#LiberationSans-2212"/>
       <use x="58.398438" xlink:href="#LiberationSans-32"/>
       <use x="114.013672" xlink:href="#LiberationSans-35"/>
       <use x="169.628906" xlink:href="#LiberationSans-30"/>
       <use x="225.244141" xlink:href="#LiberationSans-30"/>
       <use x="280.859375" xlink:href="#LiberationSans-30"/>
      </g>
     </g>
    </g>
    <g id="ytick_5">
     <g id="line2d_25">
      <path clip-path="url(#pfa1be923e8)" d="M 144 145.716102 
L 1036.8 145.716102 
" style="fill:none;stroke:#ffffff;stroke-linecap:round;stroke-width:0.8;"/>
     </g>
     <g id="line2d_26"/>
     <g id="text_13">
      <!-- 0 -->
      <g style="fill:#262626;" transform="translate(133.95125 148.614852)scale(0.08 -0.08)">
       <use xlink:href="#LiberationSans-30"/>
      </g>
     </g>
    </g>
    <g id="ytick_6">
     <g id="line2d_27">
      <path clip-path="url(#pfa1be923e8)" d="M 144 108.252184 
L 1036.8 108.252184 
" style="fill:none;stroke:#ffffff;stroke-linecap:round;stroke-width:0.8;"/>
     </g>
     <g id="line2d_28"/>
     <g id="text_14">
      <!-- 25000 -->
      <g style="fill:#262626;" transform="translate(116.15625 111.150934)scale(0.08 -0.08)">
       <use xlink:href="#LiberationSans-32"/>
       <use x="55.615234" xlink:href="#LiberationSans-35"/>
       <use x="111.230469" xlink:href="#LiberationSans-30"/>
       <use x="166.845703" xlink:href="#LiberationSans-30"/>
       <use x="222.460938" xlink:href="#LiberationSans-30"/>
      </g>
     </g>
    </g>
    <g id="ytick_7">
     <g id="line2d_29">
      <path clip-path="url(#pfa1be923e8)" d="M 144 70.788265 
L 1036.8 70.788265 
" style="fill:none;stroke:#ffffff;stroke-linecap:round;stroke-width:0.8;"/>
     </g>
     <g id="line2d_30"/>
     <g id="text_15">
      <!-- 50000 -->
      <g style="fill:#262626;" transform="translate(116.15625 73.687015)scale(0.08 -0.08)">
       <use xlink:href="#LiberationSans-35"/>
       <use x="55.615234" xlink:href="#LiberationSans-30"/>
       <use x="111.230469" xlink:href="#LiberationSans-30"/>
       <use x="166.845703" xlink:href="#LiberationSans-30"/>
       <use x="222.460938" xlink:href="#LiberationSans-30"/>
      </g>
     </g>
    </g>
   </g>
   <g id="line2d_31">
    <path clip-path="url(#pfa1be923e8)" d="M 184.581818 145.716102 
L 187.457922 145.716293 
L 188.033142 144.453357 
L 188.608363 139.469009 
L 190.334025 113.554227 
L 190.909246 114.135367 
L 191.484466 126.566495 
L 193.210128 200.731118 
L 193.785349 212.229543 
L 194.36057 208.731313 
L 194.93579 191.538821 
L 196.661452 113.023139 
L 197.236673 96.234208 
L 197.811894 88.115477 
L 198.387114 87.069634 
L 198.962335 89.861895 
L 199.537556 94.131883 
L 200.112776 102.382187 
L 200.687997 121.709673 
L 201.263218 155.059064 
L 202.413659 231.204119 
L 202.98888 251.089667 
L 203.5641 250.641449 
L 204.139321 231.939161 
L 205.864983 140.575603 
L 206.440204 120.963991 
L 207.015424 111.675786 
L 207.590645 112.220811 
L 208.165866 120.473064 
L 209.891528 156.077064 
L 210.466748 161.076908 
L 211.041969 160.551245 
L 211.61719 155.618895 
L 212.767631 141.288436 
L 213.342852 136.16072 
L 213.918072 134.055682 
L 214.493293 135.025144 
L 215.068514 138.303341 
L 216.218955 146.62513 
L 216.794176 149.273556 
L 217.369396 150.005661 
L 217.944617 148.852477 
L 218.519838 146.352827 
L 219.670279 140.431966 
L 220.2455 138.498843 
L 220.82072 137.762752 
L 221.395941 138.204931 
L 221.971162 139.519225 
L 223.121603 142.820486 
L 223.696824 143.916845 
L 224.272044 144.294453 
L 224.847265 143.967796 
L 225.422486 143.124004 
L 226.572927 140.996533 
L 227.148148 140.281871 
L 227.723368 140.001566 
L 228.298589 140.155108 
L 230.599472 141.900342 
L 231.174692 141.908794 
L 231.749913 141.700045 
L 234.050796 140.221284 
L 234.626016 140.097264 
L 235.201237 140.116325 
L 236.351678 140.477463 
L 237.50212 140.874071 
L 238.652561 140.860194 
L 239.803002 140.571422 
L 241.528664 140.086324 
L 242.679106 139.875507 
L 246.70565 139.903291 
L 249.006533 140.108698 
L 253.608298 140.460499 
L 255.33396 140.268399 
L 257.059622 140.053386 
L 258.210064 140.083717 
L 259.935726 140.379652 
L 266.263153 141.886016 
L 267.413594 141.81966 
L 269.139256 141.322723 
L 272.01536 140.397065 
L 273.741022 139.999018 
L 274.891463 139.98727 
L 276.041905 140.240631 
L 278.918008 141.140214 
L 280.64367 141.355812 
L 281.218891 141.328388 
L 281.794111 141.180001 
L 282.369332 140.85928 
L 282.944553 140.32485 
L 283.519773 139.497017 
L 284.094994 138.279005 
L 284.670215 136.543451 
L 285.245435 134.083346 
L 285.820656 130.563895 
L 286.395877 125.501171 
L 286.971097 118.25445 
L 288.121539 97.618725 
L 288.696759 92.077661 
L 289.27198 103.032111 
L 289.847201 137.466517 
L 290.997642 242.653243 
L 291.572863 278.75827 
L 292.148083 285.76717 
L 292.723304 261.961996 
L 293.873745 160.18768 
L 294.448966 110.62305 
L 295.024187 77.259333 
L 295.599407 64.798534 
L 296.174628 72.490625 
L 296.749849 95.289068 
L 297.90029 154.858377 
L 298.475511 176.453449 
L 299.050731 186.26465 
L 299.625952 183.744228 
L 300.201173 171.518552 
L 301.351614 137.23021 
L 301.926835 124.590198 
L 302.502055 118.598069 
L 303.077276 119.206783 
L 303.652497 124.378902 
L 304.227717 130.7457 
L 304.802938 134.386968 
L 305.378159 131.548957 
L 305.953379 119.598056 
L 307.103821 82.690102 
L 307.679041 87.633991 
L 308.254262 124.768077 
L 309.404703 246.571219 
L 309.979924 291.108775 
L 310.555145 307.8 
L 311.130365 296.336041 
L 311.705586 263.392668 
L 313.431248 128.25357 
L 314.006469 97.747451 
L 314.581689 83.365802 
L 315.15691 85.877982 
L 315.732131 102.026879 
L 316.882572 149.339043 
L 317.457793 167.105153 
L 318.033013 175.422892 
L 318.608234 173.947413 
L 319.183455 164.976752 
L 320.333896 139.820855 
L 320.909117 130.738747 
L 321.484337 126.77944 
L 322.059558 128.095173 
L 322.634779 133.485257 
L 323.78522 148.073002 
L 324.360441 153.104916 
L 324.935661 154.959665 
L 325.510882 153.575253 
L 326.086103 149.747669 
L 327.236544 140.163815 
L 327.811765 136.956544 
L 328.386985 135.791775 
L 328.962206 136.634249 
L 329.537427 138.957641 
L 330.687868 144.775593 
L 331.263089 146.712356 
L 331.838309 147.386394 
L 332.41353 146.832947 
L 332.988751 145.376468 
L 334.139192 141.77313 
L 334.714413 140.576307 
L 335.289633 140.112849 
L 335.864854 140.334515 
L 336.440075 141.070696 
L 337.590516 142.933462 
L 338.165737 143.53296 
L 338.740957 143.711213 
L 339.316178 143.439285 
L 340.466619 142.086987 
L 341.04184 141.44075 
L 341.617061 141.034896 
L 342.192281 140.906559 
L 342.767502 141.031719 
L 345.068385 142.218351 
L 345.643605 142.234595 
L 346.794047 141.874807 
L 348.519709 141.059112 
L 349.094929 140.954004 
L 349.67015 140.97888 
L 350.820591 141.335311 
L 351.971033 141.696958 
L 353.121474 141.802486 
L 355.422357 141.919299 
L 358.873681 142.496003 
L 360.024122 142.285831 
L 364.050667 141.094613 
L 365.201108 141.042493 
L 366.92677 141.191974 
L 369.227653 141.633329 
L 371.528536 142.329364 
L 372.678977 142.433768 
L 375.55508 142.311846 
L 377.280742 141.884068 
L 379.006404 141.473958 
L 380.156846 141.39915 
L 382.457728 141.656392 
L 383.60817 141.745107 
L 384.758611 141.612035 
L 385.333832 141.380703 
L 385.909052 140.942839 
L 386.484273 140.180598 
L 387.059494 138.926426 
L 387.634714 136.942802 
L 388.209935 133.887275 
L 388.785156 129.313799 
L 389.935597 116.057566 
L 390.510818 113.389985 
L 391.086038 122.862363 
L 391.661259 148.798499 
L 392.8117 224.281986 
L 393.386921 248.95842 
L 393.962142 251.841643 
L 394.537362 231.802343 
L 395.687804 152.005635 
L 396.263024 113.704832 
L 396.838245 88.06018 
L 397.413466 78.669624 
L 397.988686 84.902721 
L 398.563907 102.77331 
L 399.714348 148.873486 
L 400.289569 165.299542 
L 400.86479 172.379023 
L 401.44001 169.592607 
L 402.015231 158.763706 
L 404.316114 96.736374 
L 404.891334 85.657694 
L 405.466555 81.510438 
L 406.041776 94.515214 
L 406.616996 131.857015 
L 407.767438 244.651268 
L 408.342658 286.139261 
L 408.917879 301.327733 
L 409.4931 288.998208 
L 410.06832 255.496174 
L 411.793982 127.637064 
L 412.369203 102.027778 
L 412.944424 91.257351 
L 413.519644 94.8407 
L 414.094865 109.367559 
L 415.245306 148.867162 
L 415.820527 162.86079 
L 416.395748 168.719098 
L 416.970968 166.369511 
L 417.546189 157.972918 
L 418.69663 136.589172 
L 419.271851 129.646779 
L 419.847072 127.328961 
L 420.422292 129.545326 
L 420.997513 135.029624 
L 422.147954 148.083103 
L 422.723175 152.227496 
L 423.298396 153.49568 
L 423.873616 151.976278 
L 424.448837 148.481314 
L 425.599278 140.278499 
L 426.174499 137.679432 
L 426.74972 136.823906 
L 427.32494 137.647468 
L 427.900161 139.666638 
L 429.050602 144.36774 
L 429.625823 145.740855 
L 430.201044 145.996147 
L 430.776264 145.218943 
L 433.077147 139.581655 
L 433.652368 139.328459 
L 434.227588 139.699876 
L 436.528471 142.729569 
L 437.103692 142.78536 
L 437.678912 142.44817 
L 439.979795 140.268159 
L 440.555016 140.083762 
L 441.130236 140.145817 
L 443.431119 141.146029 
L 444.00634 141.156069 
L 445.156781 140.835108 
L 446.307222 140.468726 
L 447.457664 140.43333 
L 449.183326 140.759206 
L 450.333767 140.894871 
L 451.484208 140.819388 
L 455.510753 140.130517 
L 457.236415 140.114542 
L 460.687739 140.394937 
L 462.413401 140.737387 
L 464.139063 140.807295 
L 466.439946 140.644357 
L 469.316049 140.079671 
L 471.041711 140.045893 
L 472.192153 140.159918 
L 473.342594 140.580279 
L 475.068256 141.640852 
L 476.793918 142.685076 
L 477.944359 143.076245 
L 479.094801 143.214666 
L 480.820463 143.215341 
L 481.970904 142.973743 
L 483.121345 142.414242 
L 484.271787 141.613488 
L 485.422228 140.571197 
L 486.572669 139.07312 
L 487.14789 138.063318 
L 487.723111 136.797816 
L 488.298331 135.139528 
L 488.873552 132.876468 
L 489.448773 129.699378 
L 490.023993 125.156054 
L 490.599214 118.751072 
L 491.749655 102.713218 
L 492.324876 102.148262 
L 492.900097 118.004191 
L 493.475317 153.187876 
L 494.625759 242.460378 
L 495.200979 267.116132 
L 495.7762 265.460377 
L 496.351421 238.257226 
L 498.077083 103.994484 
L 498.652303 78.146179 
L 499.227524 70.770882 
L 499.802745 80.307996 
L 500.377965 101.653289 
L 501.528407 151.387705 
L 502.103627 166.892058 
L 502.678848 171.163844 
L 503.254069 163.996397 
L 503.829289 147.607041 
L 505.554951 81.23845 
L 506.130172 71.649635 
L 506.705393 84.001639 
L 507.280613 122.696622 
L 508.431055 234.100979 
L 509.006275 272.519179 
L 509.581496 284.374711 
L 510.156717 269.303276 
L 510.731937 234.383907 
L 511.882379 148.733851 
L 512.457599 116.928378 
L 513.03282 99.447114 
L 513.608041 97.204823 
L 514.183261 107.956069 
L 515.908923 165.205432 
L 516.484144 175.10265 
L 517.059365 176.155986 
L 517.634585 169.544653 
L 519.360247 136.584527 
L 519.935468 131.491157 
L 520.510689 131.472665 
L 521.085909 135.684973 
L 522.811571 154.638239 
L 523.386792 157.262317 
L 523.962013 156.824843 
L 524.537233 153.871847 
L 526.262895 141.635173 
L 526.838116 139.970231 
L 527.413337 140.217148 
L 527.988557 141.982388 
L 529.138999 147.233781 
L 529.714219 149.203813 
L 530.28944 150.093641 
L 530.864661 149.831379 
L 531.439881 148.62579 
L 533.165543 143.774692 
L 533.740764 143.020049 
L 534.315985 142.941989 
L 534.891205 143.373948 
L 536.616867 145.414738 
L 537.192088 145.642259 
L 537.767309 145.47488 
L 538.342529 144.992593 
L 540.068191 143.172452 
L 540.643412 142.916843 
L 541.218633 142.9202 
L 542.369074 143.473033 
L 543.519515 144.060946 
L 544.094736 144.151504 
L 544.669957 144.069233 
L 545.820398 143.562077 
L 546.97084 143.011777 
L 548.121281 142.785585 
L 549.271722 142.94641 
L 550.422164 143.171073 
L 551.572605 143.204401 
L 555.023929 142.908421 
L 557.324812 142.793242 
L 559.050474 142.385575 
L 560.776136 141.894992 
L 562.501798 141.713562 
L 563.652239 141.761905 
L 566.528342 142.359395 
L 568.254004 142.942708 
L 569.979666 143.554839 
L 571.130108 143.736194 
L 572.280549 143.676926 
L 577.457535 142.855882 
L 579.183197 142.905844 
L 580.908859 143.35661 
L 582.634521 143.801336 
L 583.784962 143.924113 
L 584.935404 143.788044 
L 586.085845 143.279674 
L 586.661066 142.840222 
L 587.236286 142.247003 
L 587.811507 141.475247 
L 588.386728 140.476234 
L 588.961948 139.157519 
L 589.537169 137.383018 
L 590.11239 134.964452 
L 590.68761 131.631872 
L 591.262831 126.958817 
L 591.838052 120.314666 
L 592.413272 111.037851 
L 593.563714 88.555304 
L 594.138934 88.762704 
L 594.714155 111.790426 
L 595.289376 159.625961 
L 596.439817 272.115617 
L 597.015038 298.559899 
L 597.590258 290.635831 
L 598.165479 251.635142 
L 599.891141 86.398731 
L 600.466362 59.503533 
L 601.041582 55.8 
L 601.616803 72.117035 
L 603.342465 162.102371 
L 603.917686 178.368155 
L 604.492906 179.878251 
L 605.068127 167.052553 
L 605.643348 143.148775 
L 606.793789 84.849972 
L 607.36901 69.471183 
L 607.94423 80.660307 
L 608.519451 122.454455 
L 609.669892 244.356502 
L 610.245113 286.064483 
L 610.820334 298.312637 
L 611.395554 280.659639 
L 611.970775 240.848081 
L 613.121216 143.342029 
L 613.696437 107.136358 
L 614.271658 87.544677 
L 614.846878 85.729175 
L 615.422099 98.990204 
L 617.147761 166.766629 
L 617.722982 178.289031 
L 618.298202 179.457156 
L 618.873423 171.741238 
L 620.599085 133.829325 
L 621.174306 128.143876 
L 621.749526 128.389489 
L 622.324747 133.541513 
L 624.050409 156.070635 
L 624.62563 159.070551 
L 625.20085 158.371938 
L 625.776071 154.659699 
L 626.926512 143.825628 
L 627.501733 139.611087 
L 628.076954 137.466952 
L 628.652174 137.545791 
L 629.227395 139.412843 
L 630.377836 145.198655 
L 630.953057 147.389196 
L 631.528278 148.37601 
L 632.103498 148.058182 
L 632.678719 146.684778 
L 633.82916 142.846936 
L 634.404381 141.39945 
L 634.979602 140.735694 
L 635.554822 140.872872 
L 636.130043 141.625777 
L 637.280485 143.718361 
L 637.855705 144.45024 
L 638.430926 144.724065 
L 639.006147 144.523726 
L 639.581367 143.915751 
L 641.307029 141.654084 
L 641.88225 141.340137 
L 642.457471 141.347659 
L 643.607912 141.966309 
L 644.758353 142.582425 
L 645.333574 142.701501 
L 645.908795 142.652048 
L 647.059236 142.190028 
L 648.209677 141.678406 
L 648.784898 141.499718 
L 649.935339 141.472864 
L 651.661001 141.616755 
L 653.386663 141.308817 
L 655.112325 140.956626 
L 656.262767 140.885355 
L 657.413208 141.034671 
L 660.289311 141.597004 
L 662.014973 141.627275 
L 666.616739 141.456455 
L 668.342401 141.347674 
L 669.492842 141.48689 
L 671.793725 142.073021 
L 675.245049 143.219672 
L 676.39549 143.354751 
L 677.545931 143.225561 
L 679.271593 142.724773 
L 682.147697 141.61731 
L 683.298138 141.114184 
L 684.448579 140.8695 
L 686.174241 140.817455 
L 689.050345 140.95763 
L 689.625565 140.738436 
L 690.200786 140.331084 
L 690.776007 139.683093 
L 691.351227 138.693715 
L 691.926448 137.217727 
L 692.501669 135.021607 
L 693.076889 131.751382 
L 693.65211 126.896477 
L 694.227331 119.918148 
L 695.377772 103.336917 
L 695.952993 104.888823 
L 696.528213 124.930671 
L 697.103434 164.330575 
L 698.253875 253.50609 
L 698.829096 272.695409 
L 699.404317 263.700472 
L 699.979537 229.662404 
L 701.705199 92.725188 
L 702.28042 71.598235 
L 702.855641 69.82739 
L 703.430861 84.498261 
L 705.156523 159.93835 
L 705.731744 172.89093 
L 706.306965 173.419471 
L 706.882185 162.049022 
L 708.607847 99.612404 
L 709.183068 97.489099 
L 709.758289 118.471142 
L 711.483951 242.683513 
L 712.059171 261.950308 
L 712.634392 258.950647 
L 713.209613 236.7795 
L 714.935275 134.527997 
L 715.510495 112.863093 
L 716.085716 103.81151 
L 716.660937 106.959229 
L 717.236157 119.288305 
L 718.386599 152.342361 
L 718.961819 163.898091 
L 719.53704 168.532977 
L 720.112261 166.157166 
L 720.687481 158.57318 
L 721.837923 139.45726 
L 722.413143 133.220672 
L 722.988364 131.07288 
L 723.563585 132.884231 
L 724.138805 137.569228 
L 725.289247 148.863911 
L 725.864467 152.455801 
L 726.439688 153.568929 
L 727.014909 152.252477 
L 727.59013 149.180211 
L 728.740571 141.940578 
L 729.315792 139.630238 
L 729.891012 138.835659 
L 730.466233 139.489374 
L 731.041454 141.163472 
L 732.191895 145.00669 
L 732.767116 146.060983 
L 733.342336 146.184671 
L 733.917557 145.455614 
L 735.643219 141.436194 
L 736.21844 140.628127 
L 736.79366 140.40225 
L 737.368881 140.711192 
L 738.519322 142.211772 
L 739.094543 142.938572 
L 739.669764 143.405268 
L 740.244984 143.530487 
L 740.820205 143.348892 
L 741.970646 142.460263 
L 742.545867 141.999756 
L 743.121088 141.683411 
L 743.696308 141.571529 
L 744.271529 141.629178 
L 746.572412 142.295871 
L 747.722853 142.106978 
L 750.023736 141.340122 
L 751.174177 141.326919 
L 753.47506 141.680759 
L 754.625501 141.585151 
L 757.501604 140.984874 
L 759.227266 140.934687 
L 763.829032 141.420339 
L 767.280356 142.318095 
L 768.430797 142.355259 
L 770.156459 142.100295 
L 774.758224 140.866668 
L 775.908666 140.830373 
L 778.209548 141.052609 
L 780.510431 141.793855 
L 781.660872 142.178654 
L 782.811314 142.294717 
L 784.536976 142.128063 
L 786.262638 141.563197 
L 787.9883 140.919042 
L 789.138741 140.286966 
L 791.439624 138.710334 
L 792.014844 138.231051 
L 792.590065 137.597371 
L 793.165286 136.682428 
L 793.740506 135.328931 
L 794.315727 133.332629 
L 794.890948 130.401751 
L 795.466168 126.158438 
L 797.19183 108.540955 
L 797.767051 112.79356 
L 798.342272 132.828724 
L 800.067934 240.292117 
L 800.643154 253.675877 
L 801.218375 243.742693 
L 801.793596 213.731397 
L 802.944037 131.314522 
L 803.519258 99.283172 
L 804.094478 81.95476 
L 804.669699 80.463397 
L 805.24492 92.190802 
L 806.970582 149.038927 
L 807.545802 155.809676 
L 808.121023 150.861427 
L 808.696244 134.630094 
L 809.846685 90.641894 
L 810.421906 88.369333 
L 810.997126 114.608612 
L 812.722788 269.011957 
L 813.298009 291.016164 
L 813.87323 284.376059 
L 814.44845 253.678574 
L 816.174112 124.844504 
L 816.749333 100.733625 
L 817.324554 93.094282 
L 817.899774 100.586167 
L 818.474995 118.730842 
L 819.625437 161.642014 
L 820.200657 175.088714 
L 820.775878 179.184419 
L 821.351099 174.353072 
L 821.926319 163.309758 
L 823.076761 138.182857 
L 823.651981 130.682131 
L 824.227202 128.646192 
L 824.802423 131.666189 
L 825.952864 145.665591 
L 826.528085 152.204403 
L 827.103305 156.123354 
L 827.678526 156.741449 
L 828.253747 154.343323 
L 829.979409 140.69252 
L 830.554629 138.168351 
L 831.12985 137.723909 
L 831.705071 139.170481 
L 833.430733 147.401334 
L 834.005953 148.893357 
L 834.581174 149.109554 
L 835.156395 148.182622 
L 836.882057 142.935051 
L 837.457277 141.888369 
L 838.032498 141.6015 
L 838.607719 141.983482 
L 840.333381 144.491097 
L 840.908601 144.907545 
L 841.483822 144.885464 
L 842.059043 144.460581 
L 843.784705 142.384211 
L 844.359925 142.00163 
L 844.935146 141.901781 
L 845.510367 142.054798 
L 847.236029 143.019884 
L 847.811249 143.166548 
L 848.38647 143.122175 
L 849.536911 142.646039 
L 851.262573 141.798485 
L 852.413015 141.695669 
L 855.864339 142.088351 
L 859.890883 142.1833 
L 861.616545 142.18835 
L 863.342207 141.951383 
L 866.793531 141.385078 
L 868.519193 141.504184 
L 873.696179 142.222547 
L 875.421841 142.149342 
L 879.448386 141.336375 
L 880.598827 141.107531 
L 881.749269 141.12857 
L 882.89971 141.504678 
L 885.775813 143.038001 
L 889.227137 144.16568 
L 890.377579 144.318575 
L 890.952799 144.214833 
L 891.52802 143.951537 
L 892.103241 143.52217 
L 892.678461 142.932788 
L 893.253682 142.170202 
L 893.828903 141.209702 
L 894.404123 140.013629 
L 894.979344 138.505182 
L 895.554565 136.536903 
L 896.129785 133.86132 
L 896.705006 130.10159 
L 897.280227 124.772723 
L 899.005889 103.194105 
L 899.581109 108.498996 
L 900.15633 131.858678 
L 901.881992 246.970585 
L 902.457213 258.018544 
L 903.032433 244.058739 
L 903.607654 209.941697 
L 904.758095 124.063306 
L 905.333316 93.288645 
L 905.908537 78.499538 
L 906.483757 79.991951 
L 907.058978 94.347225 
L 908.209419 136.918975 
L 908.78464 151.843176 
L 909.359861 155.847635 
L 909.935082 146.993688 
L 911.660744 90.174944 
L 912.235964 103.289413 
L 912.811185 144.356758 
L 913.961626 252.465043 
L 914.536847 283.865951 
L 915.112068 286.709612 
L 915.687288 262.532797 
L 917.988171 98.883956 
L 918.563392 85.902409 
L 919.138612 89.67008 
L 919.713833 106.461109 
L 920.864274 153.596263 
L 921.439495 171.068685 
L 922.014716 179.047901 
L 922.589936 177.039085 
L 923.165157 167.257106 
L 924.315598 140.378033 
L 924.890819 130.945892 
L 925.46604 127.148684 
L 926.04126 129.04271 
L 926.616481 135.236545 
L 927.766922 151.233458 
L 928.342143 156.634212 
L 928.917364 158.560367 
L 929.492584 156.984185 
L 930.067805 152.791283 
L 931.218246 142.326427 
L 931.793467 138.739466 
L 932.368688 137.296236 
L 932.943908 138.023951 
L 933.519129 140.394892 
L 934.66957 146.38844 
L 935.244791 148.36134 
L 935.820012 149.063788 
L 936.395232 148.514073 
L 936.970453 147.045847 
L 938.120894 143.406002 
L 938.696115 142.192786 
L 939.271336 141.719152 
L 939.846556 142.005196 
L 940.421777 142.860108 
L 941.572218 144.904192 
L 942.147439 145.515529 
L 942.72266 145.632974 
L 943.29788 145.260195 
L 944.448322 143.644902 
L 945.023542 142.83189 
L 945.598763 142.2555 
L 946.173984 142.011505 
L 946.749204 142.072002 
L 947.899646 142.687309 
L 948.474866 143.012271 
L 949.050087 143.198482 
L 949.625308 143.206709 
L 950.775749 142.824727 
L 951.92619 142.282025 
L 953.076632 142.056147 
L 954.227073 142.17819 
L 955.377514 142.352951 
L 956.527956 142.271834 
L 958.828838 141.827737 
L 959.97928 141.793825 
L 964.581045 142.066592 
L 968.032369 141.652721 
L 973.209355 140.65708 
L 974.359796 140.751099 
L 975.510238 141.139765 
L 977.2359 141.934509 
L 980.687224 142.847145 
L 981.837665 143.017082 
L 982.988106 143.023001 
L 984.713768 142.672399 
L 987.014651 142.16229 
L 988.740313 142.161361 
L 990.465975 142.344709 
L 992.766858 142.804826 
L 993.342078 142.78491 
L 993.917299 142.648991 
L 994.49252 142.360069 
L 995.06774 141.872169 
L 995.642961 141.135089 
L 996.218182 140.063606 
L 996.218182 140.063606 
" style="fill:none;stroke:#4c72b0;stroke-linecap:round;stroke-width:1.4;"/>
   </g>
   <g id="patch_3">
    <path d="M 144 320.4 
L 144 43.2 
" style="fill:none;"/>
   </g>
   <g id="patch_4">
    <path d="M 1036.8 320.4 
L 1036.8 43.2 
" style="fill:none;"/>
   </g>
   <g id="patch_5">
    <path d="M 144 320.4 
L 1036.8 320.4 
" style="fill:none;"/>
   </g>
   <g id="patch_6">
    <path d="M 144 43.2 
L 1036.8 43.2 
" style="fill:none;"/>
   </g>
  </g>
 </g>
 <defs>
  <clipPath id="pfa1be923e8">
   <rect height="277.2" width="892.8" x="144" y="43.2"/>
  </clipPath>
 </defs>
</svg>
