<?xml version="1.0" encoding="utf-8" standalone="no"?>
<!DOCTYPE svg PUBLIC "-//W3C//DTD SVG 1.1//EN"
  "http://www.w3.org/Graphics/SVG/1.1/DTD/svg11.dtd">
<!-- Created with matplotlib (http://matplotlib.org/) -->
<svg height="360pt" version="1.1" viewBox="0 0 1152 360" width="1152pt" xmlns="http://www.w3.org/2000/svg" xmlns:xlink="http://www.w3.org/1999/xlink">
 <defs>
  <style type="text/css">
*{stroke-linecap:butt;stroke-linejoin:round;}
  </style>
 </defs>
 <g id="figure_1">
  <g id="patch_1">
   <path d="M 0 360 
L 1152 360 
L 1152 0 
L 0 0 
z
" style="fill:#ffffff;"/>
  </g>
  <g id="axes_1">
   <g id="patch_2">
    <path d="M 144 320.4 
L 1036.8 320.4 
L 1036.8 43.2 
L 144 43.2 
z
" style="fill:#eaeaf2;"/>
   </g>
   <g id="matplotlib.axis_1">
    <g id="xtick_1">
     <g id="line2d_1">
      <path clip-path="url(#pcced6e81ac)" d="M 184.581818 320.4 
L 184.581818 43.2 
" style="fill:none;stroke:#ffffff;stroke-linecap:round;stroke-width:0.8;"/>
     </g>
     <g id="line2d_2"/>
     <g id="text_1">
      <!-- 0.000 -->
      <defs>
       <path d="M 51.703125 34.421875 
Q 51.703125 24.515625 49.828125 17.75 
Q 47.953125 10.984375 44.703125 6.8125 
Q 41.453125 2.640625 37.0625 0.828125 
Q 32.671875 -0.984375 27.6875 -0.984375 
Q 22.65625 -0.984375 18.3125 0.828125 
Q 13.96875 2.640625 10.765625 6.78125 
Q 7.5625 10.9375 5.734375 17.703125 
Q 3.90625 24.46875 3.90625 34.421875 
Q 3.90625 44.828125 5.734375 51.640625 
Q 7.5625 58.453125 10.78125 62.5 
Q 14.015625 66.546875 18.40625 68.1875 
Q 22.796875 69.828125 27.984375 69.828125 
Q 32.90625 69.828125 37.21875 68.1875 
Q 41.546875 66.546875 44.765625 62.5 
Q 48 58.453125 49.84375 51.640625 
Q 51.703125 44.828125 51.703125 34.421875 
M 42.78125 34.421875 
Q 42.78125 42.625 41.796875 48.0625 
Q 40.828125 53.515625 38.921875 56.765625 
Q 37.015625 60.015625 34.25 61.359375 
Q 31.5 62.703125 27.984375 62.703125 
Q 24.265625 62.703125 21.4375 61.328125 
Q 18.609375 59.96875 16.671875 56.71875 
Q 14.75 53.46875 13.765625 48.015625 
Q 12.796875 42.578125 12.796875 34.421875 
Q 12.796875 26.515625 13.796875 21.09375 
Q 14.796875 15.671875 16.71875 12.375 
Q 18.65625 9.078125 21.4375 7.640625 
Q 24.21875 6.203125 27.78125 6.203125 
Q 31.25 6.203125 34.03125 7.640625 
Q 36.8125 9.078125 38.734375 12.375 
Q 40.671875 15.671875 41.71875 21.09375 
Q 42.78125 26.515625 42.78125 34.421875 
" id="LiberationSans-30"/>
       <path d="M 9.125 0 
L 9.125 10.6875 
L 18.65625 10.6875 
L 18.65625 0 
z
" id="LiberationSans-2e"/>
      </defs>
      <g style="fill:#262626;" transform="translate(174.573068 331.7975)scale(0.08 -0.08)">
       <use xlink:href="#LiberationSans-30"/>
       <use x="55.615234" xlink:href="#LiberationSans-2e"/>
       <use x="83.398438" xlink:href="#LiberationSans-30"/>
       <use x="139.013672" xlink:href="#LiberationSans-30"/>
       <use x="194.628906" xlink:href="#LiberationSans-30"/>
      </g>
     </g>
    </g>
    <g id="xtick_2">
     <g id="line2d_3">
      <path clip-path="url(#pcced6e81ac)" d="M 311.238448 320.4 
L 311.238448 43.2 
" style="fill:none;stroke:#ffffff;stroke-linecap:round;stroke-width:0.8;"/>
     </g>
     <g id="line2d_4"/>
     <g id="text_2">
      <!-- 0.005 -->
      <defs>
       <path d="M 51.421875 22.40625 
Q 51.421875 17.234375 49.859375 12.9375 
Q 48.296875 8.640625 45.21875 5.53125 
Q 42.140625 2.4375 37.578125 0.71875 
Q 33.015625 -0.984375 27 -0.984375 
Q 21.578125 -0.984375 17.546875 0.28125 
Q 13.53125 1.5625 10.734375 3.78125 
Q 7.953125 6 6.3125 8.984375 
Q 4.6875 11.96875 4 15.375 
L 12.890625 16.40625 
Q 13.421875 14.453125 14.390625 12.625 
Q 15.375 10.796875 17.0625 9.34375 
Q 18.75 7.90625 21.21875 7.046875 
Q 23.6875 6.203125 27.203125 6.203125 
Q 30.609375 6.203125 33.390625 7.25 
Q 36.1875 8.296875 38.15625 10.34375 
Q 40.140625 12.40625 41.203125 15.375 
Q 42.28125 18.359375 42.28125 22.21875 
Q 42.28125 25.390625 41.25 28.046875 
Q 40.234375 30.71875 38.328125 32.640625 
Q 36.421875 34.578125 33.65625 35.640625 
Q 30.90625 36.71875 27.390625 36.71875 
Q 25.203125 36.71875 23.34375 36.328125 
Q 21.484375 35.9375 19.890625 35.25 
Q 18.3125 34.578125 17.015625 33.671875 
Q 15.71875 32.765625 14.59375 31.78125 
L 6 31.78125 
L 8.296875 68.796875 
L 47.40625 68.796875 
L 47.40625 61.328125 
L 16.3125 61.328125 
L 14.984375 39.5 
Q 17.328125 41.3125 20.84375 42.59375 
Q 24.359375 43.890625 29.203125 43.890625 
Q 34.328125 43.890625 38.421875 42.328125 
Q 42.53125 40.765625 45.40625 37.90625 
Q 48.296875 35.0625 49.859375 31.109375 
Q 51.421875 27.15625 51.421875 22.40625 
" id="LiberationSans-35"/>
      </defs>
      <g style="fill:#262626;" transform="translate(301.229698 331.7975)scale(0.08 -0.08)">
       <use xlink:href="#LiberationSans-30"/>
       <use x="55.615234" xlink:href="#LiberationSans-2e"/>
       <use x="83.398438" xlink:href="#LiberationSans-30"/>
       <use x="139.013672" xlink:href="#LiberationSans-30"/>
       <use x="194.628906" xlink:href="#LiberationSans-35"/>
      </g>
     </g>
    </g>
    <g id="xtick_3">
     <g id="line2d_5">
      <path clip-path="url(#pcced6e81ac)" d="M 437.895078 320.4 
L 437.895078 43.2 
" style="fill:none;stroke:#ffffff;stroke-linecap:round;stroke-width:0.8;"/>
     </g>
     <g id="line2d_6"/>
     <g id="text_3">
      <!-- 0.010 -->
      <defs>
       <path d="M 7.625 0 
L 7.625 7.46875 
L 25.140625 7.46875 
L 25.140625 60.40625 
L 9.625 49.3125 
L 9.625 57.625 
L 25.875 68.796875 
L 33.984375 68.796875 
L 33.984375 7.46875 
L 50.734375 7.46875 
L 50.734375 0 
z
" id="LiberationSans-31"/>
      </defs>
      <g style="fill:#262626;" transform="translate(427.886328 331.7975)scale(0.08 -0.08)">
       <use xlink:href="#LiberationSans-30"/>
       <use x="55.615234" xlink:href="#LiberationSans-2e"/>
       <use x="83.398438" xlink:href="#LiberationSans-30"/>
       <use x="139.013672" xlink:href="#LiberationSans-31"/>
       <use x="194.628906" xlink:href="#LiberationSans-30"/>
      </g>
     </g>
    </g>
    <g id="xtick_4">
     <g id="line2d_7">
      <path clip-path="url(#pcced6e81ac)" d="M 564.551708 320.4 
L 564.551708 43.2 
" style="fill:none;stroke:#ffffff;stroke-linecap:round;stroke-width:0.8;"/>
     </g>
     <g id="line2d_8"/>
     <g id="text_4">
      <!-- 0.015 -->
      <g style="fill:#262626;" transform="translate(554.542958 331.7975)scale(0.08 -0.08)">
       <use xlink:href="#LiberationSans-30"/>
       <use x="55.615234" xlink:href="#LiberationSans-2e"/>
       <use x="83.398438" xlink:href="#LiberationSans-30"/>
       <use x="139.013672" xlink:href="#LiberationSans-31"/>
       <use x="194.628906" xlink:href="#LiberationSans-35"/>
      </g>
     </g>
    </g>
    <g id="xtick_5">
     <g id="line2d_9">
      <path clip-path="url(#pcced6e81ac)" d="M 691.208338 320.4 
L 691.208338 43.2 
" style="fill:none;stroke:#ffffff;stroke-linecap:round;stroke-width:0.8;"/>
     </g>
     <g id="line2d_10"/>
     <g id="text_5">
      <!-- 0.020 -->
      <defs>
       <path d="M 5.03125 0 
L 5.03125 6.203125 
Q 7.515625 11.921875 11.109375 16.28125 
Q 14.703125 20.65625 18.65625 24.1875 
Q 22.609375 27.734375 26.484375 30.765625 
Q 30.375 33.796875 33.5 36.8125 
Q 36.625 39.84375 38.546875 43.15625 
Q 40.484375 46.484375 40.484375 50.6875 
Q 40.484375 53.609375 39.59375 55.828125 
Q 38.71875 58.0625 37.0625 59.5625 
Q 35.40625 61.078125 33.078125 61.828125 
Q 30.765625 62.59375 27.9375 62.59375 
Q 25.296875 62.59375 22.96875 61.859375 
Q 20.65625 61.140625 18.84375 59.671875 
Q 17.046875 58.203125 15.890625 56.03125 
Q 14.75 53.859375 14.40625 50.984375 
L 5.421875 51.8125 
Q 5.859375 55.515625 7.46875 58.78125 
Q 9.078125 62.0625 11.90625 64.53125 
Q 14.75 67 18.71875 68.40625 
Q 22.703125 69.828125 27.9375 69.828125 
Q 33.0625 69.828125 37.0625 68.609375 
Q 41.0625 67.390625 43.8125 64.984375 
Q 46.578125 62.59375 48.046875 59.078125 
Q 49.515625 55.5625 49.515625 50.984375 
Q 49.515625 47.515625 48.265625 44.390625 
Q 47.015625 41.265625 44.9375 38.421875 
Q 42.875 35.59375 40.140625 32.953125 
Q 37.40625 30.328125 34.421875 27.8125 
Q 31.453125 25.296875 28.421875 22.828125 
Q 25.390625 20.359375 22.71875 17.859375 
Q 20.0625 15.375 17.96875 12.8125 
Q 15.875 10.25 14.703125 7.46875 
L 50.59375 7.46875 
L 50.59375 0 
z
" id="LiberationSans-32"/>
      </defs>
      <g style="fill:#262626;" transform="translate(681.199588 331.7975)scale(0.08 -0.08)">
       <use xlink:href="#LiberationSans-30"/>
       <use x="55.615234" xlink:href="#LiberationSans-2e"/>
       <use x="83.398438" xlink:href="#LiberationSans-30"/>
       <use x="139.013672" xlink:href="#LiberationSans-32"/>
       <use x="194.628906" xlink:href="#LiberationSans-30"/>
      </g>
     </g>
    </g>
    <g id="xtick_6">
     <g id="line2d_11">
      <path clip-path="url(#pcced6e81ac)" d="M 817.864968 320.4 
L 817.864968 43.2 
" style="fill:none;stroke:#ffffff;stroke-linecap:round;stroke-width:0.8;"/>
     </g>
     <g id="line2d_12"/>
     <g id="text_6">
      <!-- 0.025 -->
      <g style="fill:#262626;" transform="translate(807.856218 331.7975)scale(0.08 -0.08)">
       <use xlink:href="#LiberationSans-30"/>
       <use x="55.615234" xlink:href="#LiberationSans-2e"/>
       <use x="83.398438" xlink:href="#LiberationSans-30"/>
       <use x="139.013672" xlink:href="#LiberationSans-32"/>
       <use x="194.628906" xlink:href="#LiberationSans-35"/>
      </g>
     </g>
    </g>
    <g id="xtick_7">
     <g id="line2d_13">
      <path clip-path="url(#pcced6e81ac)" d="M 944.521598 320.4 
L 944.521598 43.2 
" style="fill:none;stroke:#ffffff;stroke-linecap:round;stroke-width:0.8;"/>
     </g>
     <g id="line2d_14"/>
     <g id="text_7">
      <!-- 0.030 -->
      <defs>
       <path d="M 51.21875 19 
Q 51.21875 14.265625 49.671875 10.546875 
Q 48.140625 6.84375 45.1875 4.265625 
Q 42.234375 1.703125 37.859375 0.359375 
Q 33.5 -0.984375 27.875 -0.984375 
Q 21.484375 -0.984375 17.109375 0.609375 
Q 12.75 2.203125 9.90625 4.8125 
Q 7.078125 7.421875 5.65625 10.765625 
Q 4.25 14.109375 3.8125 17.671875 
L 12.890625 18.5 
Q 13.28125 15.765625 14.328125 13.515625 
Q 15.375 11.28125 17.1875 9.671875 
Q 19 8.0625 21.625 7.171875 
Q 24.265625 6.296875 27.875 6.296875 
Q 34.515625 6.296875 38.296875 9.5625 
Q 42.09375 12.84375 42.09375 19.28125 
Q 42.09375 23.09375 40.40625 25.40625 
Q 38.71875 27.734375 36.203125 29.03125 
Q 33.6875 30.328125 30.734375 30.765625 
Q 27.78125 31.203125 25.296875 31.203125 
L 20.3125 31.203125 
L 20.3125 38.8125 
L 25.09375 38.8125 
Q 27.59375 38.8125 30.265625 39.328125 
Q 32.953125 39.84375 35.171875 41.1875 
Q 37.40625 42.53125 38.84375 44.828125 
Q 40.28125 47.125 40.28125 50.6875 
Q 40.28125 56.203125 37.03125 59.390625 
Q 33.796875 62.59375 27.390625 62.59375 
Q 21.578125 62.59375 17.984375 59.609375 
Q 14.40625 56.640625 13.8125 51.21875 
L 4.984375 51.90625 
Q 5.515625 56.453125 7.46875 59.8125 
Q 9.421875 63.1875 12.421875 65.40625 
Q 15.4375 67.625 19.28125 68.71875 
Q 23.140625 69.828125 27.484375 69.828125 
Q 33.25 69.828125 37.390625 68.375 
Q 41.546875 66.9375 44.1875 64.46875 
Q 46.828125 62.015625 48.0625 58.6875 
Q 49.3125 55.375 49.3125 51.609375 
Q 49.3125 48.578125 48.484375 45.9375 
Q 47.65625 43.3125 45.890625 41.203125 
Q 44.140625 39.109375 41.421875 37.59375 
Q 38.71875 36.078125 34.90625 35.296875 
L 34.90625 35.109375 
Q 39.0625 34.671875 42.140625 33.21875 
Q 45.21875 31.78125 47.21875 29.625 
Q 49.21875 27.484375 50.21875 24.75 
Q 51.21875 22.015625 51.21875 19 
" id="LiberationSans-33"/>
      </defs>
      <g style="fill:#262626;" transform="translate(934.512848 331.7975)scale(0.08 -0.08)">
       <use xlink:href="#LiberationSans-30"/>
       <use x="55.615234" xlink:href="#LiberationSans-2e"/>
       <use x="83.398438" xlink:href="#LiberationSans-30"/>
       <use x="139.013672" xlink:href="#LiberationSans-33"/>
       <use x="194.628906" xlink:href="#LiberationSans-30"/>
      </g>
     </g>
    </g>
   </g>
   <g id="matplotlib.axis_2">
    <g id="ytick_1">
     <g id="line2d_15">
      <path clip-path="url(#pcced6e81ac)" d="M 144 295.363003 
L 1036.8 295.363003 
" style="fill:none;stroke:#ffffff;stroke-linecap:round;stroke-width:0.8;"/>
     </g>
     <g id="line2d_16"/>
     <g id="text_8">
      <!-- 2.5 -->
      <g style="fill:#262626;" transform="translate(127.28 298.261753)scale(0.08 -0.08)">
       <use xlink:href="#LiberationSans-32"/>
       <use x="55.615234" xlink:href="#LiberationSans-2e"/>
       <use x="83.398438" xlink:href="#LiberationSans-35"/>
      </g>
     </g>
    </g>
    <g id="ytick_2">
     <g id="line2d_17">
      <path clip-path="url(#pcced6e81ac)" d="M 144 258.634944 
L 1036.8 258.634944 
" style="fill:none;stroke:#ffffff;stroke-linecap:round;stroke-width:0.8;"/>
     </g>
     <g id="line2d_18"/>
     <g id="text_9">
      <!-- 5.0 -->
      <g style="fill:#262626;" transform="translate(127.28 261.533694)scale(0.08 -0.08)">
       <use xlink:href="#LiberationSans-35"/>
       <use x="55.615234" xlink:href="#LiberationSans-2e"/>
       <use x="83.398438" xlink:href="#LiberationSans-30"/>
      </g>
     </g>
    </g>
    <g id="ytick_3">
     <g id="line2d_19">
      <path clip-path="url(#pcced6e81ac)" d="M 144 221.906886 
L 1036.8 221.906886 
" style="fill:none;stroke:#ffffff;stroke-linecap:round;stroke-width:0.8;"/>
     </g>
     <g id="line2d_20"/>
     <g id="text_10">
      <!-- 7.5 -->
      <defs>
       <path d="M 50.59375 61.671875 
Q 45.40625 53.765625 41.0625 46.453125 
Q 36.71875 39.15625 33.59375 31.75 
Q 30.46875 24.359375 28.734375 16.578125 
Q 27 8.796875 27 0 
L 17.828125 0 
Q 17.828125 8.25 19.78125 16.1875 
Q 21.734375 24.125 25.046875 31.765625 
Q 28.375 39.40625 32.765625 46.78125 
Q 37.15625 54.15625 42.09375 61.328125 
L 5.125 61.328125 
L 5.125 68.796875 
L 50.59375 68.796875 
z
" id="LiberationSans-37"/>
      </defs>
      <g style="fill:#262626;" transform="translate(127.28 224.805636)scale(0.08 -0.08)">
       <use xlink:href="#LiberationSans-37"/>
       <use x="55.615234" xlink:href="#LiberationSans-2e"/>
       <use x="83.398438" xlink:href="#LiberationSans-35"/>
      </g>
     </g>
    </g>
    <g id="ytick_4">
     <g id="line2d_21">
      <path clip-path="url(#pcced6e81ac)" d="M 144 185.178827 
L 1036.8 185.178827 
" style="fill:none;stroke:#ffffff;stroke-linecap:round;stroke-width:0.8;"/>
     </g>
     <g id="line2d_22"/>
     <g id="text_11">
      <!-- 10.0 -->
      <g style="fill:#262626;" transform="translate(122.83125 188.077577)scale(0.08 -0.08)">
       <use xlink:href="#LiberationSans-31"/>
       <use x="55.615234" xlink:href="#LiberationSans-30"/>
       <use x="111.230469" xlink:href="#LiberationSans-2e"/>
       <use x="139.013672" xlink:href="#LiberationSans-30"/>
      </g>
     </g>
    </g>
    <g id="ytick_5">
     <g id="line2d_23">
      <path clip-path="url(#pcced6e81ac)" d="M 144 148.450768 
L 1036.8 148.450768 
" style="fill:none;stroke:#ffffff;stroke-linecap:round;stroke-width:0.8;"/>
     </g>
     <g id="line2d_24"/>
     <g id="text_12">
      <!-- 12.5 -->
      <g style="fill:#262626;" transform="translate(122.83125 151.349518)scale(0.08 -0.08)">
       <use xlink:href="#LiberationSans-31"/>
       <use x="55.615234" xlink:href="#LiberationSans-32"/>
       <use x="111.230469" xlink:href="#LiberationSans-2e"/>
       <use x="139.013672" xlink:href="#LiberationSans-35"/>
      </g>
     </g>
    </g>
    <g id="ytick_6">
     <g id="line2d_25">
      <path clip-path="url(#pcced6e81ac)" d="M 144 111.72271 
L 1036.8 111.72271 
" style="fill:none;stroke:#ffffff;stroke-linecap:round;stroke-width:0.8;"/>
     </g>
     <g id="line2d_26"/>
     <g id="text_13">
      <!-- 15.0 -->
      <g style="fill:#262626;" transform="translate(122.83125 114.62146)scale(0.08 -0.08)">
       <use xlink:href="#LiberationSans-31"/>
       <use x="55.615234" xlink:href="#LiberationSans-35"/>
       <use x="111.230469" xlink:href="#LiberationSans-2e"/>
       <use x="139.013672" xlink:href="#LiberationSans-30"/>
      </g>
     </g>
    </g>
    <g id="ytick_7">
     <g id="line2d_27">
      <path clip-path="url(#pcced6e81ac)" d="M 144 74.994651 
L 1036.8 74.994651 
" style="fill:none;stroke:#ffffff;stroke-linecap:round;stroke-width:0.8;"/>
     </g>
     <g id="line2d_28"/>
     <g id="text_14">
      <!-- 17.5 -->
      <g style="fill:#262626;" transform="translate(122.83125 77.893401)scale(0.08 -0.08)">
       <use xlink:href="#LiberationSans-31"/>
       <use x="55.615234" xlink:href="#LiberationSans-37"/>
       <use x="111.230469" xlink:href="#LiberationSans-2e"/>
       <use x="139.013672" xlink:href="#LiberationSans-35"/>
      </g>
     </g>
    </g>
   </g>
   <g id="line2d_29">
    <path clip-path="url(#pcced6e81ac)" d="M 184.581818 70.038051 
L 186.305038 65.863015 
L 187.453851 63.892142 
L 188.028257 63.291277 
L 188.602664 62.972229 
L 189.17707 62.930604 
L 189.751477 63.143509 
L 190.325883 63.571386 
L 191.474696 64.849834 
L 193.197915 66.842434 
L 193.772322 67.280969 
L 194.346728 67.533029 
L 194.921135 67.578062 
L 195.495541 67.414166 
L 196.069948 67.058382 
L 197.218761 65.926101 
L 198.94198 64.081122 
L 199.516387 63.70549 
L 200.090793 63.557696 
L 200.6652 63.687096 
L 201.239606 64.127326 
L 201.814013 64.893898 
L 202.388419 65.983105 
L 203.537232 69.021725 
L 205.260452 74.942535 
L 206.983671 80.898109 
L 208.132484 84.141051 
L 209.281297 86.603103 
L 210.43011 88.436912 
L 212.153329 90.908562 
L 213.302142 93.118402 
L 214.450955 96.272023 
L 215.599768 100.540836 
L 216.748581 105.802019 
L 220.19502 122.960827 
L 221.343833 127.395371 
L 222.492646 130.703179 
L 223.641459 133.004673 
L 224.790272 134.671579 
L 226.513492 137.090568 
L 227.662305 139.306702 
L 228.811118 142.268706 
L 230.534337 147.834077 
L 232.257556 153.477402 
L 233.406369 156.383058 
L 233.980776 157.408251 
L 234.555182 158.103975 
L 235.129589 158.459555 
L 235.703995 158.483622 
L 236.278402 158.203506 
L 236.852808 157.663264 
L 238.001621 156.042227 
L 239.724841 153.301763 
L 240.873654 151.997955 
L 241.44806 151.621341 
L 242.022467 151.441006 
L 242.596873 151.442998 
L 243.745686 151.852404 
L 244.894499 152.437559 
L 245.468906 152.633327 
L 246.043312 152.67782 
L 246.617719 152.514788 
L 247.192125 152.100339 
L 247.766532 151.40638 
L 248.340938 150.422876 
L 249.489751 147.641684 
L 250.638564 144.03901 
L 252.93619 136.416065 
L 254.085003 133.447417 
L 254.659409 132.328401 
L 255.233816 131.467757 
L 255.808222 130.852718 
L 256.382629 130.452387 
L 257.531442 130.096988 
L 258.680255 129.908409 
L 259.254661 129.706049 
L 259.829068 129.349199 
L 260.403474 128.789578 
L 260.977881 127.994209 
L 261.552287 126.947849 
L 262.7011 124.135227 
L 264.42432 118.685387 
L 266.147539 113.230423 
L 267.296352 110.418624 
L 267.870759 109.379374 
L 268.445165 108.598369 
L 269.019572 108.062244 
L 269.593978 107.739461 
L 270.742791 107.531526 
L 271.891604 107.471159 
L 272.46601 107.320869 
L 273.040417 107.004784 
L 273.614823 106.471844 
L 274.18923 105.686176 
L 274.763636 104.62968 
L 275.912449 101.726994 
L 277.061262 97.98873 
L 279.933295 88.150649 
L 281.082108 85.294873 
L 281.656514 84.23611 
L 282.230921 83.418149 
L 282.805327 82.814137 
L 283.95414 82.063374 
L 285.67736 81.144378 
L 286.251766 80.632232 
L 286.826173 79.92679 
L 287.400579 78.993729 
L 288.549392 76.396644 
L 289.698205 72.933342 
L 292.570237 63.270718 
L 293.71905 60.421379 
L 294.293457 59.423841 
L 294.867863 58.736468 
L 295.44227 58.354618 
L 296.016676 58.255081 
L 296.591083 58.397983 
L 297.739896 59.188062 
L 299.463115 60.652958 
L 300.037522 60.97158 
L 300.611928 61.13263 
L 301.186335 61.116131 
L 301.760741 60.92067 
L 302.909554 60.079884 
L 304.632774 58.421909 
L 305.20718 58.023614 
L 305.781587 57.81645 
L 306.355993 57.859572 
L 306.9304 58.199627 
L 307.504806 58.867279 
L 308.079213 59.874894 
L 308.653619 61.215549 
L 309.802432 64.775671 
L 311.525651 71.483015 
L 313.248871 78.179278 
L 314.397684 81.873344 
L 315.546497 84.746136 
L 316.69531 86.94641 
L 318.992936 91.002641 
L 320.141749 93.836734 
L 321.290562 97.653745 
L 322.439375 102.467567 
L 324.737001 113.769293 
L 326.46022 121.598306 
L 327.609033 125.605383 
L 328.757846 128.422101 
L 329.332252 129.417422 
L 330.481065 130.796043 
L 332.778691 132.87769 
L 333.927504 134.544267 
L 335.076317 136.97536 
L 336.22513 140.086163 
L 338.522756 146.784824 
L 339.671569 149.33088 
L 340.245976 150.206402 
L 340.820382 150.776079 
L 341.394789 151.031895 
L 341.969195 150.985022 
L 342.543602 150.665113 
L 343.118008 150.118248 
L 344.266821 148.58957 
L 345.990041 146.262288 
L 346.564447 145.736924 
L 347.138854 145.414261 
L 347.71326 145.316471 
L 348.287666 145.446848 
L 348.862073 145.789705 
L 350.010886 146.964259 
L 351.734105 149.077555 
L 352.308512 149.610194 
L 352.882918 149.955673 
L 353.457325 150.06933 
L 354.031731 149.922362 
L 354.606138 149.504023 
L 355.180544 148.822485 
L 356.329357 146.792504 
L 359.20139 140.524978 
L 359.775796 139.587784 
L 360.350203 138.874408 
L 360.924609 138.406447 
L 361.499016 138.186618 
L 362.073422 138.198516 
L 362.647829 138.407767 
L 363.796642 139.206892 
L 364.945455 140.069325 
L 365.519861 140.34872 
L 366.094268 140.442674 
L 366.668674 140.302053 
L 367.24308 139.893347 
L 367.817487 139.201031 
L 368.391893 138.228606 
L 369.540706 135.549061 
L 371.263926 130.464693 
L 372.987145 125.658567 
L 374.135958 123.320238 
L 374.710365 122.478665 
L 375.284771 121.843149 
L 376.433584 121.047174 
L 378.156804 120.174003 
L 378.73121 119.698036 
L 379.305617 119.023768 
L 379.880023 118.102769 
L 380.45443 116.902107 
L 381.603243 113.621233 
L 382.752056 109.289237 
L 386.772901 92.354845 
L 387.921714 88.96205 
L 389.070527 86.533451 
L 390.21934 84.803967 
L 391.942559 82.494883 
L 393.091372 80.425322 
L 394.240185 77.544156 
L 395.388998 73.813147 
L 399.409844 59.378721 
L 399.98425 58.010049 
L 400.558657 56.964804 
L 401.133063 56.255595 
L 401.70747 55.875757 
L 402.281876 55.8 
L 402.856283 55.986407 
L 403.430689 56.379647 
L 405.153909 58.137769 
L 406.302721 59.141386 
L 406.877128 59.441505 
L 407.451534 59.573978 
L 408.025941 59.536754 
L 408.600347 59.346471 
L 409.74916 58.657871 
L 410.897973 57.936244 
L 411.47238 57.729233 
L 412.046786 57.71257 
L 412.621193 57.942838 
L 413.195599 58.463898 
L 413.770006 59.303506 
L 414.344412 60.471077 
L 415.493225 63.732171 
L 416.642038 67.956604 
L 419.514071 79.289861 
L 420.662884 82.822738 
L 421.811697 85.438393 
L 422.96051 87.29445 
L 425.258135 90.432089 
L 426.406948 92.701086 
L 427.555761 95.884979 
L 428.704574 99.999353 
L 432.72542 116.273374 
L 433.874233 119.418144 
L 434.448639 120.549806 
L 435.023046 121.397657 
L 435.597452 121.992299 
L 436.171859 122.380343 
L 437.320672 122.781544 
L 438.469485 123.143263 
L 439.043891 123.474941 
L 439.618298 123.978135 
L 440.192704 124.68812 
L 440.767111 125.622543 
L 441.915924 128.141133 
L 443.639143 133.004861 
L 445.362362 137.728467 
L 446.511175 139.973382 
L 447.085582 140.703073 
L 447.659988 141.155505 
L 448.234395 141.342735 
L 448.808801 141.295047 
L 449.383208 141.058803 
L 452.25524 139.311094 
L 452.829647 139.30764 
L 453.404053 139.534715 
L 453.97846 140.011454 
L 454.552866 140.737949 
L 455.701679 142.846768 
L 459.148118 150.427968 
L 459.722525 151.203716 
L 460.296931 151.716105 
L 460.871338 151.953105 
L 461.445744 151.921632 
L 462.020151 151.646933 
L 462.594557 151.170614 
L 463.74337 149.841313 
L 464.892183 148.451194 
L 465.466589 147.895455 
L 466.040996 147.503455 
L 466.615402 147.311196 
L 467.189809 147.337402 
L 467.764215 147.581992 
L 468.338622 148.025933 
L 469.487435 149.349777 
L 471.210654 151.502383 
L 471.785061 151.984352 
L 472.359467 152.241071 
L 472.933874 152.224195 
L 473.50828 151.901357 
L 474.082687 151.258453 
L 474.657093 150.300588 
L 475.805906 147.552387 
L 477.529126 142.144513 
L 479.252345 136.779994 
L 480.401158 133.949682 
L 481.549971 131.890527 
L 482.698784 130.42891 
L 484.422003 128.424998 
L 484.99641 127.545152 
L 485.570816 126.457984 
L 486.145223 125.118163 
L 487.294036 121.580047 
L 488.442849 116.915752 
L 490.166068 108.474681 
L 491.889288 99.8891 
L 493.038101 94.981444 
L 494.186914 91.10767 
L 495.335727 88.280262 
L 496.48454 86.23145 
L 498.782166 82.572838 
L 499.930979 80.042783 
L 501.079792 76.733099 
L 502.803011 70.627847 
L 504.52623 64.469087 
L 505.675043 61.243921 
L 506.24945 60.065292 
L 506.823856 59.219088 
L 507.398263 58.714813 
L 507.972669 58.542647 
L 508.547076 58.674204 
L 509.121482 59.064625 
L 510.270295 60.380944 
L 511.993515 62.659339 
L 512.567921 63.245212 
L 513.142328 63.668706 
L 513.716734 63.908643 
L 514.291141 63.962539 
L 514.865547 63.846653 
L 516.01436 63.25491 
L 517.163173 62.556611 
L 517.73758 62.331382 
L 518.311986 62.274947 
L 518.886393 62.442451 
L 519.460799 62.876214 
L 520.035206 63.602414 
L 520.609612 64.628945 
L 521.758425 67.519782 
L 522.907238 71.250494 
L 525.204864 79.148459 
L 526.353677 82.264399 
L 527.50249 84.408037 
L 528.076896 85.114539 
L 528.651303 85.614118 
L 529.800116 86.193825 
L 530.948929 86.640493 
L 531.523335 86.98235 
L 532.097742 87.483464 
L 532.672148 88.189932 
L 533.246555 89.132257 
L 534.395368 91.756 
L 535.544181 95.232887 
L 538.416213 104.845091 
L 539.565026 107.72879 
L 540.139433 108.788094 
L 540.713839 109.580842 
L 541.288246 110.122178 
L 541.862652 110.445303 
L 543.011465 110.6446 
L 544.160278 110.688704 
L 544.734684 110.828043 
L 545.309091 111.130387 
L 545.883497 111.645627 
L 546.457904 112.408191 
L 547.03231 113.434587 
L 548.181123 116.249829 
L 549.329936 119.856074 
L 551.627562 127.529575 
L 552.776375 130.578289 
L 553.925188 132.675412 
L 554.499595 133.360366 
L 555.074001 133.836115 
L 556.222814 134.353245 
L 557.371627 134.71102 
L 557.946034 134.99931 
L 558.52044 135.442829 
L 559.094847 136.090029 
L 559.669253 136.974157 
L 560.24366 138.110666 
L 561.392472 141.107358 
L 563.115692 146.828013 
L 564.838911 152.484646 
L 565.987724 155.331132 
L 566.562131 156.33958 
L 567.136537 157.048752 
L 567.710944 157.465257 
L 568.28535 157.614083 
L 568.859757 157.536549 
L 570.00857 156.928911 
L 571.731789 155.865251 
L 572.306196 155.709966 
L 572.880602 155.723791 
L 573.455009 155.92427 
L 574.029415 156.310246 
L 575.178228 157.54165 
L 576.901448 159.778796 
L 577.475854 160.363092 
L 578.050261 160.751998 
L 578.624667 160.886647 
L 579.199074 160.721079 
L 579.77348 160.225612 
L 580.347887 159.389022 
L 580.922293 158.219402 
L 582.071106 155.005331 
L 583.794325 148.833082 
L 585.517545 142.675649 
L 586.666358 139.319148 
L 587.815171 136.743894 
L 588.963984 134.782675 
L 590.687203 132.079605 
L 591.836016 129.698565 
L 592.984829 126.383265 
L 594.133642 121.989968 
L 595.282455 116.668804 
L 598.728894 99.847533 
L 599.877707 95.672046 
L 601.02652 92.654772 
L 602.175333 90.644846 
L 603.324146 89.246337 
L 604.472959 87.939093 
L 605.621772 86.234554 
L 606.770585 83.82154 
L 607.919398 80.659949 
L 611.365837 70.091016 
L 611.940243 68.836421 
L 612.51465 67.872232 
L 613.089056 67.223619 
L 613.663463 66.897066 
L 614.237869 66.879831 
L 614.812276 67.140789 
L 615.386682 67.632629 
L 616.535495 69.059903 
L 618.258715 71.25693 
L 618.833121 71.747979 
L 619.407528 72.043329 
L 619.981934 72.122591 
L 620.55634 71.984281 
L 621.130747 71.645766 
L 622.27956 70.52201 
L 624.002779 68.59802 
L 624.577186 68.156874 
L 625.151592 67.914732 
L 625.725999 67.914145 
L 626.300405 68.181486 
L 626.874812 68.724893 
L 627.449218 69.53355 
L 628.598031 71.814067 
L 631.470064 78.610639 
L 632.04447 79.632848 
L 632.618877 80.425608 
L 633.193283 80.968542 
L 633.76769 81.260263 
L 634.342096 81.318473 
L 634.916503 81.178676 
L 636.065316 80.519429 
L 637.214129 79.798728 
L 637.788535 79.589275 
L 638.362942 79.562847 
L 638.937348 79.766748 
L 639.511754 80.232407 
L 640.086161 80.973147 
L 640.660567 81.983288 
L 641.80938 84.698425 
L 645.255819 94.317202 
L 646.404632 96.456124 
L 646.979039 97.186066 
L 647.553445 97.705178 
L 648.702258 98.262755 
L 650.425478 98.78793 
L 650.999884 99.153504 
L 651.574291 99.720018 
L 652.148697 100.535168 
L 652.723104 101.630854 
L 653.871917 104.699544 
L 655.02073 108.808813 
L 659.041575 124.867904 
L 660.190388 128.028142 
L 661.339201 130.266245 
L 662.488014 131.864468 
L 664.211233 134.107612 
L 665.360046 136.219069 
L 666.508859 139.199289 
L 667.657672 143.071689 
L 671.678518 158.17297 
L 672.252924 159.655433 
L 672.827331 160.821687 
L 673.401737 161.660559 
L 673.976144 162.180107 
L 674.55055 162.406828 
L 675.124957 162.383523 
L 675.699363 162.165981 
L 678.571395 160.450474 
L 679.145802 160.381643 
L 679.720208 160.482109 
L 680.294615 160.751106 
L 681.443428 161.699911 
L 683.166647 163.406731 
L 683.741054 163.792231 
L 684.31546 163.975015 
L 684.889867 163.898911 
L 685.464273 163.520901 
L 686.03868 162.814402 
L 686.613086 161.771365 
L 687.187493 160.403021 
L 688.336306 156.826459 
L 690.059525 150.234446 
L 691.782745 143.843244 
L 692.931558 140.441361 
L 694.080371 137.906971 
L 695.229184 136.068802 
L 696.952403 133.697787 
L 698.101216 131.636076 
L 699.250029 128.721315 
L 700.398842 124.812993 
L 702.122061 117.491169 
L 704.419687 107.492231 
L 705.5685 103.574872 
L 706.717313 100.800701 
L 707.29172 99.844434 
L 707.866126 99.139232 
L 709.014939 98.280411 
L 710.738159 97.392173 
L 711.312565 96.936946 
L 711.886972 96.312376 
L 712.461378 95.485442 
L 713.610191 93.182365 
L 714.759004 90.128947 
L 717.631036 81.927024 
L 718.779849 79.732171 
L 719.354256 79.044929 
L 719.928662 78.643758 
L 720.503069 78.514415 
L 721.077475 78.624546 
L 721.651882 78.925961 
L 724.523914 81.005088 
L 725.098321 81.075461 
L 725.672727 80.917313 
L 726.247134 80.512813 
L 726.82154 79.863209 
L 727.970353 77.926857 
L 730.842386 71.911888 
L 731.416792 71.030196 
L 731.991199 70.382672 
L 732.565605 69.996986 
L 733.140012 69.882519 
L 733.714418 70.029727 
L 734.288825 70.410905 
L 735.437638 71.68739 
L 737.160857 73.941444 
L 737.735263 74.520182 
L 738.30967 74.921597 
L 738.884076 75.11106 
L 739.458483 75.071493 
L 740.032889 74.804759 
L 740.607296 74.331657 
L 741.756109 72.934626 
L 743.479328 70.649061 
L 744.053735 70.117169 
L 744.628141 69.806618 
L 745.202548 69.764518 
L 745.776954 70.021756 
L 746.351361 70.590847 
L 746.925767 71.465124 
L 748.07458 74.011593 
L 749.7978 79.021144 
L 751.521019 83.885859 
L 752.669832 86.351018 
L 753.818645 88.043874 
L 754.967458 89.158862 
L 756.116271 90.121764 
L 756.690677 90.712497 
L 757.265084 91.464371 
L 757.83949 92.434549 
L 758.413897 93.66762 
L 759.56271 97.018445 
L 760.711523 101.521646 
L 762.434742 109.751581 
L 764.157962 118.158537 
L 765.306775 122.978027 
L 766.455588 126.805528 
L 767.604401 129.644717 
L 768.753214 131.775929 
L 770.476433 134.681977 
L 771.625246 137.133884 
L 772.774059 140.362535 
L 773.922872 144.382518 
L 777.369311 157.528348 
L 778.518124 160.532631 
L 779.09253 161.550005 
L 779.666937 162.226818 
L 780.241343 162.574037 
L 780.81575 162.621042 
L 781.390156 162.413402 
L 782.538969 161.476084 
L 784.262189 159.789775 
L 784.836595 159.40145 
L 785.411002 159.171898 
L 785.985408 159.119742 
L 786.559815 159.244878 
L 787.708628 159.934988 
L 789.431847 161.340012 
L 790.006254 161.652989 
L 790.58066 161.780072 
L 791.155067 161.667059 
L 791.729473 161.273022 
L 792.30388 160.573518 
L 792.878286 159.562591 
L 794.027099 156.677594 
L 795.175912 152.930441 
L 797.473538 144.961539 
L 798.622351 141.787409 
L 799.771164 139.558522 
L 800.34557 138.795771 
L 801.494383 137.810995 
L 803.217603 136.821218 
L 803.792009 136.357954 
L 804.366416 135.727926 
L 804.940822 134.887277 
L 805.515229 133.808046 
L 806.664042 130.913127 
L 807.812855 127.185875 
L 810.684887 117.129009 
L 811.8337 114.14671 
L 812.408107 113.051581 
L 812.982513 112.229943 
L 813.55692 111.665076 
L 814.131326 111.322344 
L 815.280139 111.091292 
L 816.428952 111.022312 
L 817.003358 110.873734 
L 817.577765 110.565535 
L 818.152171 110.049242 
L 818.726578 109.292097 
L 819.300984 108.279392 
L 820.449797 105.523342 
L 822.173017 100.142171 
L 823.896236 94.743123 
L 825.045049 91.956471 
L 825.619456 90.923698 
L 826.193862 90.143959 
L 826.768269 89.603229 
L 827.342675 89.269619 
L 828.491488 89.02211 
L 829.640301 88.904871 
L 830.214708 88.724305 
L 830.789114 88.380318 
L 831.363521 87.825147 
L 831.937927 87.026572 
L 832.512334 85.970382 
L 833.661146 83.123819 
L 835.384366 77.617073 
L 837.107585 72.164469 
L 838.256398 69.435116 
L 838.830805 68.473929 
L 839.405211 67.801537 
L 839.979618 67.409159 
L 840.554024 67.269843 
L 841.128431 67.340652 
L 842.277244 67.882012 
L 843.426057 68.518118 
L 844.000463 68.713587 
L 844.57487 68.759958 
L 845.149276 68.624436 
L 845.723683 68.291752 
L 846.298089 67.765452 
L 847.446902 66.238355 
L 849.744528 62.81467 
L 850.318935 62.27816 
L 850.893341 61.99696 
L 851.467748 62.016238 
L 852.042154 62.364623 
L 852.616561 63.052149 
L 853.190967 64.069543 
L 854.33978 66.965809 
L 856.062999 72.62294 
L 857.786219 78.237339 
L 858.935032 81.241863 
L 860.083845 83.497187 
L 861.232658 85.190048 
L 862.955877 87.615329 
L 864.10469 89.898889 
L 865.253503 93.179277 
L 866.402316 97.587176 
L 867.551129 102.958108 
L 870.997568 120.059261 
L 872.146381 124.378406 
L 873.295194 127.580859 
L 874.444007 129.827776 
L 877.890446 135.266984 
L 879.039259 138.090841 
L 880.188072 141.664009 
L 883.634511 153.300542 
L 884.208917 154.699108 
L 884.783324 155.798495 
L 885.35773 156.574753 
L 885.932137 157.022772 
L 886.506543 157.156687 
L 887.08095 157.008888 
L 887.655356 156.627698 
L 888.804169 155.416351 
L 889.952982 154.075864 
L 891.101795 153.127781 
L 891.676202 152.918227 
L 892.250608 152.915404 
L 892.825014 153.118786 
L 893.399421 153.509134 
L 894.548234 154.690894 
L 896.271453 156.577828 
L 896.84586 156.974829 
L 897.420266 157.159104 
L 897.994673 157.090105 
L 898.569079 156.743776 
L 899.143486 156.114482 
L 899.717892 155.215566 
L 900.866705 152.750814 
L 903.738738 145.542843 
L 904.887551 143.589814 
L 905.461957 142.980573 
L 906.036364 142.622686 
L 906.61077 142.497238 
L 907.185177 142.567708 
L 908.33399 143.079672 
L 909.482803 143.642183 
L 910.057209 143.770551 
L 910.631616 143.716642 
L 911.206022 143.43518 
L 911.780428 142.89702 
L 912.354835 142.091234 
L 913.503648 139.727272 
L 914.652461 136.614238 
L 916.950087 130.096511 
L 918.0989 127.670582 
L 918.673306 126.800445 
L 919.247713 126.165602 
L 919.822119 125.747502 
L 920.396526 125.509975 
L 921.545339 125.360432 
L 922.694152 125.198708 
L 923.268558 124.939394 
L 923.842965 124.479049 
L 924.417371 123.770862 
L 924.991778 122.784087 
L 925.566184 121.506293 
L 926.714997 118.123515 
L 927.86381 113.889207 
L 930.735843 102.872486 
L 931.884655 99.549688 
L 933.033468 97.166394 
L 934.182281 95.552086 
L 936.479907 92.89178 
L 937.62872 90.850418 
L 938.777533 87.887806 
L 939.926346 83.993763 
L 943.947192 68.640803 
L 945.096005 65.866394 
L 945.670411 64.949709 
L 946.244818 64.340271 
L 946.819224 64.01024 
L 947.393631 63.915812 
L 947.968037 64.000648 
L 950.265663 64.823441 
L 950.840069 64.846997 
L 951.414476 64.712075 
L 951.988882 64.403498 
L 952.563289 63.924819 
L 953.712102 62.562596 
L 955.435321 60.282385 
L 956.009728 59.723497 
L 956.584134 59.376851 
L 957.158541 59.298248 
L 957.732947 59.529927 
L 958.307354 60.09739 
L 958.88176 61.007436 
L 959.456167 62.247559 
L 960.60498 65.577571 
L 962.328199 71.816492 
L 964.051419 77.886135 
L 965.200232 81.11172 
L 966.349045 83.519904 
L 967.497858 85.297136 
L 969.221077 87.716704 
L 970.36989 89.901312 
L 971.518703 92.997909 
L 972.667516 97.1291 
L 974.390735 104.821673 
L 976.688361 115.319656 
L 977.837174 119.484054 
L 978.985987 122.512491 
L 979.560394 123.601579 
L 980.1348 124.444767 
L 981.283613 125.597271 
L 983.006833 126.96645 
L 983.581239 127.588193 
L 984.155646 128.379142 
L 985.304459 130.573131 
L 986.453272 133.573899 
L 989.89971 143.926573 
L 990.474117 145.19147 
L 991.048523 146.185764 
L 991.62293 146.887819 
L 992.197336 147.294771 
L 992.771743 147.422828 
L 993.346149 147.306192 
L 993.920556 146.994645 
L 996.218182 145.119758 
L 996.218182 145.119758 
" style="fill:none;stroke:#4c72b0;stroke-linecap:round;stroke-width:1.4;"/>
   </g>
   <g id="line2d_30">
    <path clip-path="url(#pcced6e81ac)" d="M 184.581818 306.447728 
L 996.218182 307.8 
L 996.218182 307.8 
" style="fill:none;stroke:#55a868;stroke-linecap:round;stroke-width:1.4;"/>
   </g>
   <g id="patch_3">
    <path d="M 144 320.4 
L 144 43.2 
" style="fill:none;"/>
   </g>
   <g id="patch_4">
    <path d="M 1036.8 320.4 
L 1036.8 43.2 
" style="fill:none;"/>
   </g>
   <g id="patch_5">
    <path d="M 144 320.4 
L 1036.8 320.4 
" style="fill:none;"/>
   </g>
   <g id="patch_6">
    <path d="M 144 43.2 
L 1036.8 43.2 
" style="fill:none;"/>
   </g>
   <g id="legend_1">
    <g id="line2d_31">
     <path d="M 1002.75125 53.3975 
L 1018.75125 53.3975 
" style="fill:none;stroke:#4c72b0;stroke-linecap:round;stroke-width:1.4;"/>
    </g>
    <g id="line2d_32"/>
    <g id="text_15">
     <!-- a -->
     <defs>
      <path d="M 20.21875 -0.984375 
Q 12.25 -0.984375 8.25 3.21875 
Q 4.25 7.421875 4.25 14.75 
Q 4.25 19.96875 6.21875 23.3125 
Q 8.203125 26.65625 11.390625 28.5625 
Q 14.59375 30.46875 18.6875 31.203125 
Q 22.796875 31.9375 27.046875 32.03125 
L 38.921875 32.234375 
L 38.921875 35.109375 
Q 38.921875 38.375 38.234375 40.671875 
Q 37.546875 42.96875 36.125 44.375 
Q 34.71875 45.796875 32.59375 46.453125 
Q 30.46875 47.125 27.59375 47.125 
Q 25.046875 47.125 23 46.75 
Q 20.953125 46.390625 19.4375 45.4375 
Q 17.921875 44.484375 16.984375 42.84375 
Q 16.0625 41.21875 15.765625 38.71875 
L 6.59375 39.546875 
Q 7.078125 42.671875 8.4375 45.28125 
Q 9.8125 47.90625 12.328125 49.796875 
Q 14.84375 51.703125 18.625 52.75 
Q 22.40625 53.8125 27.78125 53.8125 
Q 37.75 53.8125 42.765625 49.234375 
Q 47.796875 44.671875 47.796875 36.03125 
L 47.796875 13.28125 
Q 47.796875 9.375 48.828125 7.390625 
Q 49.859375 5.421875 52.734375 5.421875 
Q 53.46875 5.421875 54.203125 5.515625 
Q 54.9375 5.609375 55.609375 5.765625 
L 55.609375 0.296875 
Q 53.953125 -0.09375 52.3125 -0.28125 
Q 50.6875 -0.484375 48.828125 -0.484375 
Q 46.34375 -0.484375 44.5625 0.171875 
Q 42.78125 0.828125 41.65625 2.171875 
Q 40.53125 3.515625 39.9375 5.484375 
Q 39.359375 7.46875 39.203125 10.109375 
L 38.921875 10.109375 
Q 37.5 7.5625 35.8125 5.515625 
Q 34.125 3.46875 31.875 2.03125 
Q 29.640625 0.59375 26.78125 -0.1875 
Q 23.921875 -0.984375 20.21875 -0.984375 
M 22.21875 5.609375 
Q 26.421875 5.609375 29.5625 7.140625 
Q 32.71875 8.6875 34.78125 11.078125 
Q 36.859375 13.484375 37.890625 16.3125 
Q 38.921875 19.140625 38.921875 21.734375 
L 38.921875 26.078125 
L 29.296875 25.875 
Q 26.078125 25.828125 23.171875 25.40625 
Q 20.265625 25 18.0625 23.78125 
Q 15.875 22.5625 14.578125 20.359375 
Q 13.28125 18.171875 13.28125 14.59375 
Q 13.28125 10.296875 15.59375 7.953125 
Q 17.921875 5.609375 22.21875 5.609375 
" id="LiberationSans-61"/>
     </defs>
     <g style="fill:#262626;" transform="translate(1025.15125 56.1975)scale(0.08 -0.08)">
      <use xlink:href="#LiberationSans-61"/>
     </g>
    </g>
    <g id="line2d_33">
     <path d="M 1002.75125 64.855 
L 1018.75125 64.855 
" style="fill:none;stroke:#55a868;stroke-linecap:round;stroke-width:1.4;"/>
    </g>
    <g id="line2d_34"/>
    <g id="text_16">
     <!-- b -->
     <defs>
      <path d="M 51.421875 26.65625 
Q 51.421875 -0.984375 31.984375 -0.984375 
Q 25.984375 -0.984375 22 1.1875 
Q 18.015625 3.375 15.53125 8.203125 
L 15.4375 8.203125 
Q 15.4375 6.9375 15.359375 5.5625 
Q 15.28125 4.203125 15.203125 3.03125 
Q 15.140625 1.859375 15.0625 1.03125 
Q 14.984375 0.203125 14.9375 0 
L 6.453125 0 
Q 6.5 0.4375 6.546875 1.484375 
Q 6.59375 2.546875 6.640625 4 
Q 6.6875 5.46875 6.703125 7.21875 
Q 6.734375 8.984375 6.734375 10.890625 
L 6.734375 72.46875 
L 15.53125 72.46875 
L 15.53125 51.8125 
Q 15.53125 50.34375 15.5 49 
Q 15.484375 47.65625 15.4375 46.625 
Q 15.375 45.40625 15.328125 44.34375 
L 15.53125 44.34375 
Q 17.96875 49.421875 22 51.609375 
Q 26.03125 53.8125 31.984375 53.8125 
Q 42 53.8125 46.703125 47.0625 
Q 51.421875 40.328125 51.421875 26.65625 
M 42.1875 26.375 
Q 42.1875 31.84375 41.5 35.75 
Q 40.828125 39.65625 39.3125 42.15625 
Q 37.796875 44.671875 35.453125 45.84375 
Q 33.109375 47.015625 29.734375 47.015625 
Q 26.265625 47.015625 23.609375 45.890625 
Q 20.953125 44.78125 19.171875 42.28125 
Q 17.390625 39.796875 16.453125 35.734375 
Q 15.53125 31.6875 15.53125 25.828125 
Q 15.53125 20.171875 16.453125 16.3125 
Q 17.390625 12.453125 19.171875 10.03125 
Q 20.953125 7.625 23.578125 6.5625 
Q 26.21875 5.515625 29.640625 5.515625 
Q 32.859375 5.515625 35.203125 6.640625 
Q 37.546875 7.765625 39.109375 10.25 
Q 40.671875 12.75 41.421875 16.71875 
Q 42.1875 20.703125 42.1875 26.375 
" id="LiberationSans-62"/>
     </defs>
     <g style="fill:#262626;" transform="translate(1025.15125 67.655)scale(0.08 -0.08)">
      <use xlink:href="#LiberationSans-62"/>
     </g>
    </g>
   </g>
  </g>
 </g>
 <defs>
  <clipPath id="pcced6e81ac">
   <rect height="277.2" width="892.8" x="144" y="43.2"/>
  </clipPath>
 </defs>
</svg>
