<?xml version="1.0" encoding="utf-8" standalone="no"?>
<!DOCTYPE svg PUBLIC "-//W3C//DTD SVG 1.1//EN"
  "http://www.w3.org/Graphics/SVG/1.1/DTD/svg11.dtd">
<!-- Created with matplotlib (http://matplotlib.org/) -->
<svg height="360pt" version="1.1" viewBox="0 0 1152 360" width="1152pt" xmlns="http://www.w3.org/2000/svg" xmlns:xlink="http://www.w3.org/1999/xlink">
 <defs>
  <style type="text/css">
*{stroke-linecap:butt;stroke-linejoin:round;}
  </style>
 </defs>
 <g id="figure_1">
  <g id="patch_1">
   <path d="M 0 360 
L 1152 360 
L 1152 0 
L 0 0 
z
" style="fill:#ffffff;"/>
  </g>
  <g id="axes_1">
   <g id="patch_2">
    <path d="M 144 320.4 
L 1036.8 320.4 
L 1036.8 43.2 
L 144 43.2 
z
" style="fill:#eaeaf2;"/>
   </g>
   <g id="matplotlib.axis_1">
    <g id="xtick_1">
     <g id="line2d_1">
      <path clip-path="url(#p0dea991d00)" d="M 184.581818 320.4 
L 184.581818 43.2 
" style="fill:none;stroke:#ffffff;stroke-linecap:round;stroke-width:0.8;"/>
     </g>
     <g id="line2d_2"/>
     <g id="text_1">
      <!-- 0.000 -->
      <defs>
       <path d="M 51.703125 34.421875 
Q 51.703125 24.515625 49.828125 17.75 
Q 47.953125 10.984375 44.703125 6.8125 
Q 41.453125 2.640625 37.0625 0.828125 
Q 32.671875 -0.984375 27.6875 -0.984375 
Q 22.65625 -0.984375 18.3125 0.828125 
Q 13.96875 2.640625 10.765625 6.78125 
Q 7.5625 10.9375 5.734375 17.703125 
Q 3.90625 24.46875 3.90625 34.421875 
Q 3.90625 44.828125 5.734375 51.640625 
Q 7.5625 58.453125 10.78125 62.5 
Q 14.015625 66.546875 18.40625 68.1875 
Q 22.796875 69.828125 27.984375 69.828125 
Q 32.90625 69.828125 37.21875 68.1875 
Q 41.546875 66.546875 44.765625 62.5 
Q 48 58.453125 49.84375 51.640625 
Q 51.703125 44.828125 51.703125 34.421875 
M 42.78125 34.421875 
Q 42.78125 42.625 41.796875 48.0625 
Q 40.828125 53.515625 38.921875 56.765625 
Q 37.015625 60.015625 34.25 61.359375 
Q 31.5 62.703125 27.984375 62.703125 
Q 24.265625 62.703125 21.4375 61.328125 
Q 18.609375 59.96875 16.671875 56.71875 
Q 14.75 53.46875 13.765625 48.015625 
Q 12.796875 42.578125 12.796875 34.421875 
Q 12.796875 26.515625 13.796875 21.09375 
Q 14.796875 15.671875 16.71875 12.375 
Q 18.65625 9.078125 21.4375 7.640625 
Q 24.21875 6.203125 27.78125 6.203125 
Q 31.25 6.203125 34.03125 7.640625 
Q 36.8125 9.078125 38.734375 12.375 
Q 40.671875 15.671875 41.71875 21.09375 
Q 42.78125 26.515625 42.78125 34.421875 
" id="LiberationSans-30"/>
       <path d="M 9.125 0 
L 9.125 10.6875 
L 18.65625 10.6875 
L 18.65625 0 
z
" id="LiberationSans-2e"/>
      </defs>
      <g style="fill:#262626;" transform="translate(174.573068 331.7975)scale(0.08 -0.08)">
       <use xlink:href="#LiberationSans-30"/>
       <use x="55.615234" xlink:href="#LiberationSans-2e"/>
       <use x="83.398438" xlink:href="#LiberationSans-30"/>
       <use x="139.013672" xlink:href="#LiberationSans-30"/>
       <use x="194.628906" xlink:href="#LiberationSans-30"/>
      </g>
     </g>
    </g>
    <g id="xtick_2">
     <g id="line2d_3">
      <path clip-path="url(#p0dea991d00)" d="M 311.238448 320.4 
L 311.238448 43.2 
" style="fill:none;stroke:#ffffff;stroke-linecap:round;stroke-width:0.8;"/>
     </g>
     <g id="line2d_4"/>
     <g id="text_2">
      <!-- 0.005 -->
      <defs>
       <path d="M 51.421875 22.40625 
Q 51.421875 17.234375 49.859375 12.9375 
Q 48.296875 8.640625 45.21875 5.53125 
Q 42.140625 2.4375 37.578125 0.71875 
Q 33.015625 -0.984375 27 -0.984375 
Q 21.578125 -0.984375 17.546875 0.28125 
Q 13.53125 1.5625 10.734375 3.78125 
Q 7.953125 6 6.3125 8.984375 
Q 4.6875 11.96875 4 15.375 
L 12.890625 16.40625 
Q 13.421875 14.453125 14.390625 12.625 
Q 15.375 10.796875 17.0625 9.34375 
Q 18.75 7.90625 21.21875 7.046875 
Q 23.6875 6.203125 27.203125 6.203125 
Q 30.609375 6.203125 33.390625 7.25 
Q 36.1875 8.296875 38.15625 10.34375 
Q 40.140625 12.40625 41.203125 15.375 
Q 42.28125 18.359375 42.28125 22.21875 
Q 42.28125 25.390625 41.25 28.046875 
Q 40.234375 30.71875 38.328125 32.640625 
Q 36.421875 34.578125 33.65625 35.640625 
Q 30.90625 36.71875 27.390625 36.71875 
Q 25.203125 36.71875 23.34375 36.328125 
Q 21.484375 35.9375 19.890625 35.25 
Q 18.3125 34.578125 17.015625 33.671875 
Q 15.71875 32.765625 14.59375 31.78125 
L 6 31.78125 
L 8.296875 68.796875 
L 47.40625 68.796875 
L 47.40625 61.328125 
L 16.3125 61.328125 
L 14.984375 39.5 
Q 17.328125 41.3125 20.84375 42.59375 
Q 24.359375 43.890625 29.203125 43.890625 
Q 34.328125 43.890625 38.421875 42.328125 
Q 42.53125 40.765625 45.40625 37.90625 
Q 48.296875 35.0625 49.859375 31.109375 
Q 51.421875 27.15625 51.421875 22.40625 
" id="LiberationSans-35"/>
      </defs>
      <g style="fill:#262626;" transform="translate(301.229698 331.7975)scale(0.08 -0.08)">
       <use xlink:href="#LiberationSans-30"/>
       <use x="55.615234" xlink:href="#LiberationSans-2e"/>
       <use x="83.398438" xlink:href="#LiberationSans-30"/>
       <use x="139.013672" xlink:href="#LiberationSans-30"/>
       <use x="194.628906" xlink:href="#LiberationSans-35"/>
      </g>
     </g>
    </g>
    <g id="xtick_3">
     <g id="line2d_5">
      <path clip-path="url(#p0dea991d00)" d="M 437.895078 320.4 
L 437.895078 43.2 
" style="fill:none;stroke:#ffffff;stroke-linecap:round;stroke-width:0.8;"/>
     </g>
     <g id="line2d_6"/>
     <g id="text_3">
      <!-- 0.010 -->
      <defs>
       <path d="M 7.625 0 
L 7.625 7.46875 
L 25.140625 7.46875 
L 25.140625 60.40625 
L 9.625 49.3125 
L 9.625 57.625 
L 25.875 68.796875 
L 33.984375 68.796875 
L 33.984375 7.46875 
L 50.734375 7.46875 
L 50.734375 0 
z
" id="LiberationSans-31"/>
      </defs>
      <g style="fill:#262626;" transform="translate(427.886328 331.7975)scale(0.08 -0.08)">
       <use xlink:href="#LiberationSans-30"/>
       <use x="55.615234" xlink:href="#LiberationSans-2e"/>
       <use x="83.398438" xlink:href="#LiberationSans-30"/>
       <use x="139.013672" xlink:href="#LiberationSans-31"/>
       <use x="194.628906" xlink:href="#LiberationSans-30"/>
      </g>
     </g>
    </g>
    <g id="xtick_4">
     <g id="line2d_7">
      <path clip-path="url(#p0dea991d00)" d="M 564.551708 320.4 
L 564.551708 43.2 
" style="fill:none;stroke:#ffffff;stroke-linecap:round;stroke-width:0.8;"/>
     </g>
     <g id="line2d_8"/>
     <g id="text_4">
      <!-- 0.015 -->
      <g style="fill:#262626;" transform="translate(554.542958 331.7975)scale(0.08 -0.08)">
       <use xlink:href="#LiberationSans-30"/>
       <use x="55.615234" xlink:href="#LiberationSans-2e"/>
       <use x="83.398438" xlink:href="#LiberationSans-30"/>
       <use x="139.013672" xlink:href="#LiberationSans-31"/>
       <use x="194.628906" xlink:href="#LiberationSans-35"/>
      </g>
     </g>
    </g>
    <g id="xtick_5">
     <g id="line2d_9">
      <path clip-path="url(#p0dea991d00)" d="M 691.208338 320.4 
L 691.208338 43.2 
" style="fill:none;stroke:#ffffff;stroke-linecap:round;stroke-width:0.8;"/>
     </g>
     <g id="line2d_10"/>
     <g id="text_5">
      <!-- 0.020 -->
      <defs>
       <path d="M 5.03125 0 
L 5.03125 6.203125 
Q 7.515625 11.921875 11.109375 16.28125 
Q 14.703125 20.65625 18.65625 24.1875 
Q 22.609375 27.734375 26.484375 30.765625 
Q 30.375 33.796875 33.5 36.8125 
Q 36.625 39.84375 38.546875 43.15625 
Q 40.484375 46.484375 40.484375 50.6875 
Q 40.484375 53.609375 39.59375 55.828125 
Q 38.71875 58.0625 37.0625 59.5625 
Q 35.40625 61.078125 33.078125 61.828125 
Q 30.765625 62.59375 27.9375 62.59375 
Q 25.296875 62.59375 22.96875 61.859375 
Q 20.65625 61.140625 18.84375 59.671875 
Q 17.046875 58.203125 15.890625 56.03125 
Q 14.75 53.859375 14.40625 50.984375 
L 5.421875 51.8125 
Q 5.859375 55.515625 7.46875 58.78125 
Q 9.078125 62.0625 11.90625 64.53125 
Q 14.75 67 18.71875 68.40625 
Q 22.703125 69.828125 27.9375 69.828125 
Q 33.0625 69.828125 37.0625 68.609375 
Q 41.0625 67.390625 43.8125 64.984375 
Q 46.578125 62.59375 48.046875 59.078125 
Q 49.515625 55.5625 49.515625 50.984375 
Q 49.515625 47.515625 48.265625 44.390625 
Q 47.015625 41.265625 44.9375 38.421875 
Q 42.875 35.59375 40.140625 32.953125 
Q 37.40625 30.328125 34.421875 27.8125 
Q 31.453125 25.296875 28.421875 22.828125 
Q 25.390625 20.359375 22.71875 17.859375 
Q 20.0625 15.375 17.96875 12.8125 
Q 15.875 10.25 14.703125 7.46875 
L 50.59375 7.46875 
L 50.59375 0 
z
" id="LiberationSans-32"/>
      </defs>
      <g style="fill:#262626;" transform="translate(681.199588 331.7975)scale(0.08 -0.08)">
       <use xlink:href="#LiberationSans-30"/>
       <use x="55.615234" xlink:href="#LiberationSans-2e"/>
       <use x="83.398438" xlink:href="#LiberationSans-30"/>
       <use x="139.013672" xlink:href="#LiberationSans-32"/>
       <use x="194.628906" xlink:href="#LiberationSans-30"/>
      </g>
     </g>
    </g>
    <g id="xtick_6">
     <g id="line2d_11">
      <path clip-path="url(#p0dea991d00)" d="M 817.864968 320.4 
L 817.864968 43.2 
" style="fill:none;stroke:#ffffff;stroke-linecap:round;stroke-width:0.8;"/>
     </g>
     <g id="line2d_12"/>
     <g id="text_6">
      <!-- 0.025 -->
      <g style="fill:#262626;" transform="translate(807.856218 331.7975)scale(0.08 -0.08)">
       <use xlink:href="#LiberationSans-30"/>
       <use x="55.615234" xlink:href="#LiberationSans-2e"/>
       <use x="83.398438" xlink:href="#LiberationSans-30"/>
       <use x="139.013672" xlink:href="#LiberationSans-32"/>
       <use x="194.628906" xlink:href="#LiberationSans-35"/>
      </g>
     </g>
    </g>
    <g id="xtick_7">
     <g id="line2d_13">
      <path clip-path="url(#p0dea991d00)" d="M 944.521598 320.4 
L 944.521598 43.2 
" style="fill:none;stroke:#ffffff;stroke-linecap:round;stroke-width:0.8;"/>
     </g>
     <g id="line2d_14"/>
     <g id="text_7">
      <!-- 0.030 -->
      <defs>
       <path d="M 51.21875 19 
Q 51.21875 14.265625 49.671875 10.546875 
Q 48.140625 6.84375 45.1875 4.265625 
Q 42.234375 1.703125 37.859375 0.359375 
Q 33.5 -0.984375 27.875 -0.984375 
Q 21.484375 -0.984375 17.109375 0.609375 
Q 12.75 2.203125 9.90625 4.8125 
Q 7.078125 7.421875 5.65625 10.765625 
Q 4.25 14.109375 3.8125 17.671875 
L 12.890625 18.5 
Q 13.28125 15.765625 14.328125 13.515625 
Q 15.375 11.28125 17.1875 9.671875 
Q 19 8.0625 21.625 7.171875 
Q 24.265625 6.296875 27.875 6.296875 
Q 34.515625 6.296875 38.296875 9.5625 
Q 42.09375 12.84375 42.09375 19.28125 
Q 42.09375 23.09375 40.40625 25.40625 
Q 38.71875 27.734375 36.203125 29.03125 
Q 33.6875 30.328125 30.734375 30.765625 
Q 27.78125 31.203125 25.296875 31.203125 
L 20.3125 31.203125 
L 20.3125 38.8125 
L 25.09375 38.8125 
Q 27.59375 38.8125 30.265625 39.328125 
Q 32.953125 39.84375 35.171875 41.1875 
Q 37.40625 42.53125 38.84375 44.828125 
Q 40.28125 47.125 40.28125 50.6875 
Q 40.28125 56.203125 37.03125 59.390625 
Q 33.796875 62.59375 27.390625 62.59375 
Q 21.578125 62.59375 17.984375 59.609375 
Q 14.40625 56.640625 13.8125 51.21875 
L 4.984375 51.90625 
Q 5.515625 56.453125 7.46875 59.8125 
Q 9.421875 63.1875 12.421875 65.40625 
Q 15.4375 67.625 19.28125 68.71875 
Q 23.140625 69.828125 27.484375 69.828125 
Q 33.25 69.828125 37.390625 68.375 
Q 41.546875 66.9375 44.1875 64.46875 
Q 46.828125 62.015625 48.0625 58.6875 
Q 49.3125 55.375 49.3125 51.609375 
Q 49.3125 48.578125 48.484375 45.9375 
Q 47.65625 43.3125 45.890625 41.203125 
Q 44.140625 39.109375 41.421875 37.59375 
Q 38.71875 36.078125 34.90625 35.296875 
L 34.90625 35.109375 
Q 39.0625 34.671875 42.140625 33.21875 
Q 45.21875 31.78125 47.21875 29.625 
Q 49.21875 27.484375 50.21875 24.75 
Q 51.21875 22.015625 51.21875 19 
" id="LiberationSans-33"/>
      </defs>
      <g style="fill:#262626;" transform="translate(934.512848 331.7975)scale(0.08 -0.08)">
       <use xlink:href="#LiberationSans-30"/>
       <use x="55.615234" xlink:href="#LiberationSans-2e"/>
       <use x="83.398438" xlink:href="#LiberationSans-30"/>
       <use x="139.013672" xlink:href="#LiberationSans-33"/>
       <use x="194.628906" xlink:href="#LiberationSans-30"/>
      </g>
     </g>
    </g>
   </g>
   <g id="matplotlib.axis_2">
    <g id="ytick_1">
     <g id="line2d_15">
      <path clip-path="url(#p0dea991d00)" d="M 144 312.966202 
L 1036.8 312.966202 
" style="fill:none;stroke:#ffffff;stroke-linecap:round;stroke-width:0.8;"/>
     </g>
     <g id="line2d_16"/>
     <g id="text_8">
      <!-- −5.0 -->
      <defs>
       <path d="M 4.9375 29.6875 
L 4.9375 36.8125 
L 53.515625 36.8125 
L 53.515625 29.6875 
z
" id="LiberationSans-2212"/>
      </defs>
      <g style="fill:#262626;" transform="translate(122.6075 315.864952)scale(0.08 -0.08)">
       <use xlink:href="#LiberationSans-2212"/>
       <use x="58.398438" xlink:href="#LiberationSans-35"/>
       <use x="114.013672" xlink:href="#LiberationSans-2e"/>
       <use x="141.796875" xlink:href="#LiberationSans-30"/>
      </g>
     </g>
    </g>
    <g id="ytick_2">
     <g id="line2d_17">
      <path clip-path="url(#p0dea991d00)" d="M 144 280.134756 
L 1036.8 280.134756 
" style="fill:none;stroke:#ffffff;stroke-linecap:round;stroke-width:0.8;"/>
     </g>
     <g id="line2d_18"/>
     <g id="text_9">
      <!-- −2.5 -->
      <g style="fill:#262626;" transform="translate(122.6075 283.033506)scale(0.08 -0.08)">
       <use xlink:href="#LiberationSans-2212"/>
       <use x="58.398438" xlink:href="#LiberationSans-32"/>
       <use x="114.013672" xlink:href="#LiberationSans-2e"/>
       <use x="141.796875" xlink:href="#LiberationSans-35"/>
      </g>
     </g>
    </g>
    <g id="ytick_3">
     <g id="line2d_19">
      <path clip-path="url(#p0dea991d00)" d="M 144 247.303311 
L 1036.8 247.303311 
" style="fill:none;stroke:#ffffff;stroke-linecap:round;stroke-width:0.8;"/>
     </g>
     <g id="line2d_20"/>
     <g id="text_10">
      <!-- 0.0 -->
      <g style="fill:#262626;" transform="translate(127.28 250.202061)scale(0.08 -0.08)">
       <use xlink:href="#LiberationSans-30"/>
       <use x="55.615234" xlink:href="#LiberationSans-2e"/>
       <use x="83.398438" xlink:href="#LiberationSans-30"/>
      </g>
     </g>
    </g>
    <g id="ytick_4">
     <g id="line2d_21">
      <path clip-path="url(#p0dea991d00)" d="M 144 214.471865 
L 1036.8 214.471865 
" style="fill:none;stroke:#ffffff;stroke-linecap:round;stroke-width:0.8;"/>
     </g>
     <g id="line2d_22"/>
     <g id="text_11">
      <!-- 2.5 -->
      <g style="fill:#262626;" transform="translate(127.28 217.370615)scale(0.08 -0.08)">
       <use xlink:href="#LiberationSans-32"/>
       <use x="55.615234" xlink:href="#LiberationSans-2e"/>
       <use x="83.398438" xlink:href="#LiberationSans-35"/>
      </g>
     </g>
    </g>
    <g id="ytick_5">
     <g id="line2d_23">
      <path clip-path="url(#p0dea991d00)" d="M 144 181.64042 
L 1036.8 181.64042 
" style="fill:none;stroke:#ffffff;stroke-linecap:round;stroke-width:0.8;"/>
     </g>
     <g id="line2d_24"/>
     <g id="text_12">
      <!-- 5.0 -->
      <g style="fill:#262626;" transform="translate(127.28 184.53917)scale(0.08 -0.08)">
       <use xlink:href="#LiberationSans-35"/>
       <use x="55.615234" xlink:href="#LiberationSans-2e"/>
       <use x="83.398438" xlink:href="#LiberationSans-30"/>
      </g>
     </g>
    </g>
    <g id="ytick_6">
     <g id="line2d_25">
      <path clip-path="url(#p0dea991d00)" d="M 144 148.808974 
L 1036.8 148.808974 
" style="fill:none;stroke:#ffffff;stroke-linecap:round;stroke-width:0.8;"/>
     </g>
     <g id="line2d_26"/>
     <g id="text_13">
      <!-- 7.5 -->
      <defs>
       <path d="M 50.59375 61.671875 
Q 45.40625 53.765625 41.0625 46.453125 
Q 36.71875 39.15625 33.59375 31.75 
Q 30.46875 24.359375 28.734375 16.578125 
Q 27 8.796875 27 0 
L 17.828125 0 
Q 17.828125 8.25 19.78125 16.1875 
Q 21.734375 24.125 25.046875 31.765625 
Q 28.375 39.40625 32.765625 46.78125 
Q 37.15625 54.15625 42.09375 61.328125 
L 5.125 61.328125 
L 5.125 68.796875 
L 50.59375 68.796875 
z
" id="LiberationSans-37"/>
      </defs>
      <g style="fill:#262626;" transform="translate(127.28 151.707724)scale(0.08 -0.08)">
       <use xlink:href="#LiberationSans-37"/>
       <use x="55.615234" xlink:href="#LiberationSans-2e"/>
       <use x="83.398438" xlink:href="#LiberationSans-35"/>
      </g>
     </g>
    </g>
    <g id="ytick_7">
     <g id="line2d_27">
      <path clip-path="url(#p0dea991d00)" d="M 144 115.977529 
L 1036.8 115.977529 
" style="fill:none;stroke:#ffffff;stroke-linecap:round;stroke-width:0.8;"/>
     </g>
     <g id="line2d_28"/>
     <g id="text_14">
      <!-- 10.0 -->
      <g style="fill:#262626;" transform="translate(122.83125 118.876279)scale(0.08 -0.08)">
       <use xlink:href="#LiberationSans-31"/>
       <use x="55.615234" xlink:href="#LiberationSans-30"/>
       <use x="111.230469" xlink:href="#LiberationSans-2e"/>
       <use x="139.013672" xlink:href="#LiberationSans-30"/>
      </g>
     </g>
    </g>
    <g id="ytick_8">
     <g id="line2d_29">
      <path clip-path="url(#p0dea991d00)" d="M 144 83.146083 
L 1036.8 83.146083 
" style="fill:none;stroke:#ffffff;stroke-linecap:round;stroke-width:0.8;"/>
     </g>
     <g id="line2d_30"/>
     <g id="text_15">
      <!-- 12.5 -->
      <g style="fill:#262626;" transform="translate(122.83125 86.044833)scale(0.08 -0.08)">
       <use xlink:href="#LiberationSans-31"/>
       <use x="55.615234" xlink:href="#LiberationSans-32"/>
       <use x="111.230469" xlink:href="#LiberationSans-2e"/>
       <use x="139.013672" xlink:href="#LiberationSans-35"/>
      </g>
     </g>
    </g>
    <g id="ytick_9">
     <g id="line2d_31">
      <path clip-path="url(#p0dea991d00)" d="M 144 50.314638 
L 1036.8 50.314638 
" style="fill:none;stroke:#ffffff;stroke-linecap:round;stroke-width:0.8;"/>
     </g>
     <g id="line2d_32"/>
     <g id="text_16">
      <!-- 15.0 -->
      <g style="fill:#262626;" transform="translate(122.83125 53.213388)scale(0.08 -0.08)">
       <use xlink:href="#LiberationSans-31"/>
       <use x="55.615234" xlink:href="#LiberationSans-35"/>
       <use x="111.230469" xlink:href="#LiberationSans-2e"/>
       <use x="139.013672" xlink:href="#LiberationSans-30"/>
      </g>
     </g>
    </g>
   </g>
   <g id="line2d_33">
    <path clip-path="url(#p0dea991d00)" d="M 184.581818 85.182813 
L 185.730631 84.338667 
L 186.879444 82.999527 
L 188.028257 81.161869 
L 189.751477 77.740398 
L 191.474696 74.311419 
L 192.623509 72.601092 
L 193.197915 72.049122 
L 193.772322 71.747376 
L 194.346728 71.722965 
L 194.921135 71.994333 
L 195.495541 72.570613 
L 196.069948 73.451548 
L 196.644354 74.627982 
L 197.793167 77.792695 
L 198.94198 81.86184 
L 200.6652 89.127225 
L 202.962826 99.956664 
L 205.834858 114.537331 
L 211.578923 144.561731 
L 212.727736 149.043688 
L 213.876549 152.411147 
L 214.450955 153.638492 
L 215.025362 154.559473 
L 215.599768 155.184557 
L 216.174175 155.533315 
L 216.748581 155.633353 
L 217.322988 155.518774 
L 217.897394 155.228289 
L 219.046207 154.284783 
L 221.91824 151.53032 
L 223.067053 150.773734 
L 224.215866 150.296326 
L 225.364679 150.052911 
L 226.513492 149.986808 
L 227.662305 150.079697 
L 228.811118 150.383695 
L 229.959931 151.02475 
L 230.534337 151.525034 
L 231.108743 152.175333 
L 232.257556 154.003939 
L 233.406369 156.616218 
L 234.555182 160.005542 
L 236.278402 166.196748 
L 238.576028 174.87872 
L 239.724841 178.570974 
L 240.873654 181.418205 
L 241.44806 182.46655 
L 242.022467 183.250457 
L 242.596873 183.769502 
L 243.17128 184.030444 
L 243.745686 184.045865 
L 244.320093 183.832492 
L 244.894499 183.40936 
L 245.468906 182.795937 
L 246.617719 181.068016 
L 247.766532 178.75396 
L 248.915345 175.889414 
L 250.064157 172.443214 
L 251.21297 168.34912 
L 252.361783 163.556084 
L 254.085003 155.120693 
L 258.680255 130.592757 
L 259.829068 125.765721 
L 260.977881 121.966068 
L 262.126694 119.229746 
L 263.275507 117.451967 
L 264.42432 116.424746 
L 265.573133 115.895265 
L 267.296352 115.536543 
L 271.891604 114.984668 
L 274.763636 114.85658 
L 275.912449 114.471174 
L 276.486856 114.091782 
L 277.061262 113.54395 
L 277.635669 112.797007 
L 278.210075 111.82458 
L 279.358888 109.130185 
L 280.507701 105.398065 
L 281.656514 100.712554 
L 283.379734 92.415805 
L 286.251766 78.037905 
L 287.974986 70.72619 
L 289.123798 66.710424 
L 290.272611 63.379265 
L 291.421424 60.67134 
L 292.570237 58.530745 
L 293.71905 56.951909 
L 294.293457 56.391095 
L 294.867863 56.001123 
L 295.44227 55.8 
L 296.016676 55.807451 
L 296.591083 56.043219 
L 297.165489 56.525201 
L 297.739896 57.267574 
L 298.314302 58.279061 
L 299.463115 61.108583 
L 300.611928 64.929353 
L 302.335148 72.011883 
L 305.20718 84.476043 
L 306.355993 88.685718 
L 307.504806 92.133784 
L 308.653619 94.789439 
L 309.802432 96.738376 
L 310.951245 98.136095 
L 312.100058 99.149558 
L 313.248871 99.904952 
L 314.397684 100.457057 
L 315.546497 100.788823 
L 316.69531 100.840412 
L 317.844123 100.557794 
L 318.992936 99.944898 
L 322.439375 97.642717 
L 323.013781 97.550822 
L 323.588188 97.649643 
L 324.162594 97.975191 
L 324.737001 98.557495 
L 325.311407 99.418958 
L 325.885814 100.573147 
L 327.034627 103.766199 
L 328.183439 108.056307 
L 329.332252 113.235185 
L 331.629878 125.100707 
L 335.076317 143.051954 
L 337.94835 156.710362 
L 340.245976 166.579563 
L 341.394789 170.814069 
L 342.543602 174.271449 
L 343.692415 176.710074 
L 344.266821 177.488196 
L 344.841228 177.953871 
L 345.415634 178.103973 
L 345.990041 177.944733 
L 346.564447 177.491814 
L 347.138854 176.769827 
L 348.287666 174.655119 
L 349.436479 171.925984 
L 352.308512 164.704908 
L 353.457325 162.346983 
L 354.606138 160.46207 
L 355.754951 159.019461 
L 356.903764 157.933239 
L 358.052577 157.116848 
L 359.20139 156.530163 
L 360.350203 156.204083 
L 361.499016 156.234747 
L 362.073422 156.423671 
L 362.647829 156.748944 
L 363.222235 157.222476 
L 364.371048 158.635829 
L 365.519861 160.636681 
L 367.24308 164.372571 
L 368.9663 168.083145 
L 370.115113 169.936159 
L 370.689519 170.549871 
L 371.263926 170.911725 
L 371.838332 170.999225 
L 372.412739 170.798866 
L 372.987145 170.306327 
L 373.561552 169.526091 
L 374.135958 168.470538 
L 375.284771 165.614027 
L 376.433584 161.934871 
L 378.156804 155.333139 
L 380.45443 145.243038 
L 382.752056 133.89533 
L 385.049682 121.251296 
L 387.921714 105.205991 
L 389.070527 99.618362 
L 390.21934 94.971339 
L 391.368153 91.473776 
L 391.942559 90.184328 
L 392.516966 89.197063 
L 393.091372 88.497238 
L 393.665779 88.061789 
L 394.240185 87.860773 
L 394.814592 87.859174 
L 395.388998 88.018957 
L 396.537811 88.668212 
L 399.98425 91.08475 
L 401.70747 91.885692 
L 404.005096 92.629517 
L 405.153909 92.866564 
L 406.302721 92.889518 
L 406.877128 92.765889 
L 407.451534 92.517513 
L 408.025941 92.117862 
L 408.600347 91.542308 
L 409.174754 90.770087 
L 410.323567 88.5826 
L 411.47238 85.528124 
L 412.621193 81.719753 
L 417.216445 64.964162 
L 418.365258 62.070271 
L 418.939664 60.971401 
L 419.514071 60.112395 
L 420.088477 59.490148 
L 420.662884 59.095838 
L 421.23729 58.916533 
L 421.811697 58.936979 
L 422.386103 59.141429 
L 422.96051 59.515371 
L 424.109323 60.728397 
L 425.258135 62.531356 
L 426.406948 64.950594 
L 427.555761 68.065743 
L 428.704574 71.966753 
L 429.853387 76.699304 
L 431.576607 85.220984 
L 436.171859 110.066094 
L 437.320672 114.927246 
L 438.469485 118.791285 
L 439.618298 121.657513 
L 440.767111 123.651637 
L 441.915924 124.978765 
L 443.064737 125.862606 
L 444.787956 126.743033 
L 446.511175 127.329468 
L 447.659988 127.545527 
L 448.808801 127.575941 
L 450.532021 127.293941 
L 452.25524 126.965599 
L 452.829647 126.972331 
L 453.404053 127.095432 
L 453.97846 127.3714 
L 454.552866 127.83489 
L 455.127273 128.516623 
L 455.701679 129.441444 
L 456.276086 130.626677 
L 457.424899 133.803156 
L 458.573712 138.000321 
L 459.722525 143.028771 
L 465.466589 169.941096 
L 467.189809 175.972494 
L 468.338622 179.339821 
L 469.487435 182.226766 
L 470.636248 184.615688 
L 471.785061 186.414599 
L 472.359467 187.045235 
L 472.933874 187.465858 
L 473.50828 187.652714 
L 474.082687 187.583768 
L 474.657093 187.240631 
L 475.2315 186.610369 
L 475.805906 185.687043 
L 476.380313 184.472876 
L 477.529126 181.225227 
L 478.677939 177.060462 
L 480.975565 167.286631 
L 482.698784 160.152738 
L 483.847597 156.049697 
L 484.99641 152.634477 
L 486.145223 149.905838 
L 487.294036 147.767815 
L 488.442849 146.082274 
L 489.591662 144.725247 
L 490.740475 143.629709 
L 491.889288 142.801944 
L 493.038101 142.306926 
L 493.612507 142.210909 
L 494.186914 142.227777 
L 494.76132 142.361958 
L 495.910133 142.971741 
L 497.058946 143.950018 
L 499.356572 146.097983 
L 499.930979 146.442083 
L 500.505385 146.622599 
L 501.079792 146.600064 
L 501.654198 146.340496 
L 502.228605 145.817126 
L 502.803011 145.011709 
L 503.377417 143.915325 
L 504.52623 140.861477 
L 505.675043 136.765858 
L 506.823856 131.848015 
L 509.121482 120.623798 
L 515.439954 89.026171 
L 517.73758 78.353548 
L 518.886393 73.736857 
L 520.035206 69.963268 
L 521.184019 67.284149 
L 521.758425 66.410215 
L 522.332831 65.860341 
L 522.907238 65.633158 
L 523.481644 65.717667 
L 524.056051 66.093628 
L 524.630457 66.732487 
L 525.77927 68.652026 
L 527.50249 72.49617 
L 529.800116 77.755954 
L 530.948929 79.979344 
L 532.097742 81.852845 
L 533.246555 83.420611 
L 534.969774 85.347076 
L 536.118587 86.390695 
L 537.2674 87.186757 
L 538.416213 87.611981 
L 538.99062 87.636785 
L 539.565026 87.51085 
L 540.139433 87.218558 
L 540.713839 86.749278 
L 541.288246 86.09891 
L 542.437058 84.27773 
L 543.585871 81.88522 
L 546.457904 75.297417 
L 547.606717 73.367435 
L 548.181123 72.717951 
L 548.75553 72.316032 
L 549.329936 72.179048 
L 549.904343 72.315471 
L 550.478749 72.725152 
L 551.053156 73.400127 
L 551.627562 74.325875 
L 552.776375 76.848757 
L 553.925188 80.112425 
L 555.648408 86.034456 
L 557.371627 92.919585 
L 559.094847 100.773711 
L 560.818066 109.714145 
L 563.115692 123.014038 
L 565.413318 136.253843 
L 566.562131 142.02256 
L 567.710944 146.812705 
L 568.859757 150.442531 
L 569.434163 151.80527 
L 570.00857 152.876462 
L 570.582976 153.674393 
L 571.157383 154.224521 
L 571.731789 154.557759 
L 572.306196 154.708483 
L 572.880602 154.71244 
L 574.029415 154.4177 
L 576.327041 153.361739 
L 583.219919 150.135611 
L 583.794325 150.026368 
L 584.368732 150.032387 
L 584.943138 150.184059 
L 585.517545 150.510158 
L 586.091951 151.035824 
L 586.666358 151.780658 
L 587.240764 152.757091 
L 588.389577 155.411595 
L 589.53839 158.920459 
L 591.26161 165.276077 
L 593.559236 173.987219 
L 594.708049 177.680936 
L 595.856862 180.62512 
L 597.005675 182.734751 
L 597.580081 183.479684 
L 598.154488 184.029464 
L 598.728894 184.395933 
L 599.303301 184.591408 
L 599.877707 184.626971 
L 600.452113 184.511001 
L 601.02652 184.248043 
L 601.600926 183.838129 
L 602.175333 183.276582 
L 603.324146 181.658789 
L 604.472959 179.287155 
L 605.621772 176.043704 
L 606.770585 171.855687 
L 607.919398 166.746295 
L 609.642617 157.713902 
L 613.089056 138.735633 
L 614.237869 133.438501 
L 615.386682 129.046577 
L 616.535495 125.596258 
L 617.684308 122.99803 
L 618.833121 121.08065 
L 619.981934 119.650074 
L 621.130747 118.545458 
L 622.27956 117.675876 
L 623.428373 117.027598 
L 624.577186 116.640892 
L 625.725999 116.564711 
L 626.874812 116.804467 
L 628.598031 117.553837 
L 629.746844 118.014716 
L 630.321251 118.12719 
L 630.895657 118.108462 
L 631.470064 117.920258 
L 632.04447 117.527791 
L 632.618877 116.901769 
L 633.193283 116.020133 
L 633.76769 114.869388 
L 634.916503 111.753923 
L 636.065316 107.636734 
L 637.788535 100.076967 
L 641.80938 81.214405 
L 643.5326 74.290734 
L 645.255819 68.279422 
L 646.979039 63.119369 
L 648.127852 60.23317 
L 649.276665 57.957217 
L 649.851071 57.111937 
L 650.425478 56.498725 
L 650.999884 56.14388 
L 651.574291 56.070215 
L 652.148697 56.295182 
L 652.723104 56.829237 
L 653.29751 57.674588 
L 653.871917 58.824415 
L 655.02073 61.964172 
L 656.169543 66.01821 
L 658.467169 75.489631 
L 660.190388 82.376499 
L 661.339201 86.375088 
L 662.488014 89.782655 
L 663.636827 92.625633 
L 664.78564 94.999496 
L 666.508859 97.910937 
L 667.657672 99.500594 
L 668.806485 100.783049 
L 669.955298 101.66877 
L 670.529705 101.928682 
L 671.104111 102.050925 
L 671.678518 102.028386 
L 672.252924 101.85958 
L 672.827331 101.549856 
L 673.976144 100.567329 
L 676.848176 97.434128 
L 677.422583 97.023503 
L 677.996989 96.787145 
L 678.571395 96.762452 
L 679.145802 96.980093 
L 679.720208 97.462609 
L 680.294615 98.223506 
L 680.869021 99.266901 
L 682.017834 102.172588 
L 683.166647 106.046314 
L 684.889867 113.182626 
L 687.187493 123.973488 
L 691.208338 143.987827 
L 695.229184 164.342395 
L 696.377997 169.306808 
L 697.526809 173.364945 
L 698.675622 176.267695 
L 699.250029 177.237514 
L 699.824435 177.878244 
L 700.398842 178.195927 
L 700.973248 178.206061 
L 701.547655 177.93278 
L 702.122061 177.40753 
L 703.270874 175.752778 
L 704.419687 173.567747 
L 707.866126 166.607257 
L 709.589346 163.727028 
L 711.886972 160.444905 
L 713.610191 158.335879 
L 714.759004 157.247925 
L 715.333411 156.860512 
L 715.907817 156.609165 
L 716.482224 156.516648 
L 717.05663 156.602612 
L 717.631036 156.881746 
L 718.205443 157.362156 
L 718.779849 158.044099 
L 719.928662 159.970093 
L 721.077475 162.487864 
L 723.949508 169.291745 
L 725.098321 171.269846 
L 725.672727 171.948694 
L 726.247134 172.390518 
L 726.82154 172.583232 
L 727.395947 172.523121 
L 727.970353 172.214124 
L 728.54476 171.666666 
L 729.119166 170.896114 
L 730.267979 168.761158 
L 731.416792 165.96231 
L 732.565605 162.620646 
L 734.288825 156.691491 
L 736.012044 149.565031 
L 737.735263 141.056725 
L 739.458483 131.254331 
L 743.479328 107.656008 
L 744.628141 102.243445 
L 745.776954 97.920074 
L 746.925767 94.760434 
L 747.500174 93.59991 
L 748.07458 92.693651 
L 748.648987 92.01512 
L 749.223393 91.533953 
L 749.7978 91.218001 
L 750.946613 90.956261 
L 752.095426 91.00909 
L 753.818645 91.380691 
L 755.541865 92.00233 
L 756.690677 92.599897 
L 758.413897 93.789149 
L 760.137116 95.056998 
L 761.285929 95.617984 
L 761.860336 95.715567 
L 762.434742 95.647079 
L 763.009149 95.383057 
L 763.583555 94.899323 
L 764.157962 94.178715 
L 764.732368 93.212433 
L 765.881181 90.55414 
L 767.029994 87.040644 
L 768.753214 80.735318 
L 771.05084 72.187155 
L 772.199653 68.544346 
L 773.348466 65.56842 
L 774.497279 63.306235 
L 775.646091 61.722151 
L 776.794904 60.746721 
L 777.369311 60.469523 
L 777.943717 60.329587 
L 778.518124 60.330169 
L 779.09253 60.479322 
L 779.666937 60.789587 
L 780.241343 61.277184 
L 780.81575 61.96077 
L 781.390156 62.859853 
L 781.964563 63.99299 
L 783.113376 67.01959 
L 784.262189 71.100897 
L 785.411002 76.179944 
L 787.134221 85.217265 
L 790.58066 104.095563 
L 791.729473 109.365242 
L 792.878286 113.792107 
L 794.027099 117.373019 
L 795.175912 120.211139 
L 796.324725 122.464666 
L 797.473538 124.288496 
L 798.622351 125.786504 
L 799.771164 126.98848 
L 800.919977 127.858034 
L 802.06879 128.328145 
L 802.643196 128.396659 
L 803.792009 128.201279 
L 804.940822 127.634613 
L 807.238448 126.211512 
L 807.812855 126.012972 
L 808.387261 125.960017 
L 808.961668 126.091086 
L 809.536074 126.439578 
L 810.110481 127.032043 
L 810.684887 127.886745 
L 811.259294 129.012713 
L 812.408107 132.066535 
L 813.55692 136.079935 
L 815.280139 143.37678 
L 819.875391 164.006677 
L 822.173017 172.973258 
L 823.896236 179.030369 
L 825.619456 184.265648 
L 826.768269 186.996173 
L 827.342675 188.042581 
L 827.917082 188.835287 
L 828.491488 189.346983 
L 829.065895 189.555544 
L 829.640301 189.445746 
L 830.214708 189.010614 
L 830.789114 188.252312 
L 831.363521 187.182497 
L 832.512334 184.200535 
L 833.661146 180.325879 
L 835.958772 171.303723 
L 837.681992 164.736641 
L 839.405211 159.103695 
L 841.128431 154.49268 
L 842.85165 150.667266 
L 844.57487 147.446084 
L 845.723683 145.68523 
L 846.872496 144.361091 
L 847.446902 143.905422 
L 848.021309 143.607544 
L 848.595715 143.477832 
L 849.170122 143.520887 
L 849.744528 143.734241 
L 850.318935 144.10751 
L 851.467748 145.251181 
L 854.33978 148.753898 
L 854.914186 149.212025 
L 855.488593 149.488593 
L 856.062999 149.549609 
L 856.637406 149.368744 
L 857.211812 148.928333 
L 857.786219 148.219838 
L 858.360625 147.243732 
L 859.509438 144.531201 
L 860.658251 140.938271 
L 862.381471 134.354521 
L 864.679097 124.303888 
L 866.976723 113.351025 
L 869.274349 101.41933 
L 872.720787 83.077674 
L 873.8696 77.834026 
L 875.018413 73.551837 
L 876.167226 70.4668 
L 876.741633 69.412265 
L 877.316039 68.68504 
L 877.890446 68.274607 
L 878.464852 68.161578 
L 879.039259 68.31892 
L 879.613665 68.713602 
L 880.188072 69.308538 
L 881.336885 70.943291 
L 883.634511 75.015131 
L 886.506543 79.991184 
L 890.527389 86.425742 
L 891.676202 87.97211 
L 892.825014 89.094954 
L 893.399421 89.429458 
L 893.973827 89.579873 
L 894.548234 89.527178 
L 895.12264 89.258906 
L 895.697047 88.7705 
L 896.271453 88.066219 
L 897.420266 86.072821 
L 898.569079 83.489277 
L 901.441112 76.648099 
L 902.589925 74.673476 
L 903.164331 73.982338 
L 903.738738 73.511438 
L 904.313144 73.267781 
L 904.887551 73.250944 
L 905.461957 73.454165 
L 906.036364 73.865808 
L 906.61077 74.471082 
L 907.759583 76.198502 
L 908.908396 78.522366 
L 910.057209 81.379421 
L 911.206022 84.777359 
L 912.354835 88.784143 
L 913.503648 93.489939 
L 914.652461 98.953691 
L 916.37568 108.486292 
L 920.970932 135.981762 
L 922.119745 141.475391 
L 923.268558 145.902367 
L 924.417371 149.224765 
L 925.566184 151.538689 
L 926.714997 153.033002 
L 927.86381 153.930349 
L 929.012623 154.427931 
L 930.161436 154.655053 
L 931.310249 154.659064 
L 932.459062 154.422519 
L 933.607875 153.904786 
L 934.756688 153.093892 
L 936.479907 151.488094 
L 937.62872 150.419537 
L 938.777533 149.661162 
L 939.35194 149.49031 
L 939.926346 149.504117 
L 940.500753 149.731227 
L 941.075159 150.193525 
L 941.649566 150.904687 
L 942.223972 151.869197 
L 943.372785 154.52816 
L 944.521598 158.019839 
L 946.244818 164.211949 
L 948.542444 172.534071 
L 949.691257 176.123734 
L 950.840069 179.150607 
L 951.988882 181.599734 
L 953.137695 183.512498 
L 954.286508 184.934643 
L 955.435321 185.868169 
L 956.009728 186.13281 
L 956.584134 186.24304 
L 957.158541 186.179069 
L 957.732947 185.918479 
L 958.307354 185.437822 
L 958.88176 184.714456 
L 959.456167 183.728475 
L 960.030573 182.464604 
L 961.179386 179.075002 
L 962.328199 174.571022 
L 963.477012 169.117521 
L 965.774638 156.604933 
L 968.072264 144.43364 
L 969.221077 139.223237 
L 970.36989 134.768993 
L 971.518703 131.046783 
L 972.667516 127.950227 
L 973.816329 125.345854 
L 974.965142 123.127334 
L 976.113955 121.252151 
L 977.262768 119.749757 
L 978.411581 118.699168 
L 978.985987 118.370592 
L 979.560394 118.183439 
L 980.1348 118.13982 
L 980.709207 118.23573 
L 981.85802 118.794514 
L 983.581239 120.166468 
L 984.730052 121.003206 
L 985.304459 121.268519 
L 985.878865 121.375608 
L 986.453272 121.287425 
L 987.027678 120.97332 
L 987.602085 120.410556 
L 988.176491 119.585373 
L 988.750898 118.493498 
L 989.89971 115.539114 
L 991.048523 111.687217 
L 992.771743 104.753097 
L 996.218182 89.72928 
L 996.218182 89.72928 
" style="fill:none;stroke:#4c72b0;stroke-linecap:round;stroke-width:1.4;"/>
   </g>
   <g id="line2d_34">
    <path clip-path="url(#p0dea991d00)" d="M 184.581818 261.803117 
L 192.623509 255.345799 
L 198.94198 250.555689 
L 204.111639 246.890775 
L 209.281297 243.503883 
L 213.876549 240.760882 
L 218.471801 238.297901 
L 222.492646 236.391613 
L 226.513492 234.732664 
L 230.534337 233.333544 
L 233.980776 232.34914 
L 237.427215 231.568846 
L 240.873654 230.996974 
L 244.320093 230.636682 
L 247.766532 230.489956 
L 251.21297 230.557599 
L 254.659409 230.839224 
L 258.105848 231.333263 
L 261.552287 232.036966 
L 264.998726 232.946425 
L 269.019572 234.260716 
L 273.040417 235.838219 
L 277.061262 237.667026 
L 281.082108 239.73333 
L 285.67736 242.365551 
L 290.272611 245.261607 
L 295.44227 248.79941 
L 301.186335 253.025734 
L 307.504806 257.958509 
L 316.120903 265.001914 
L 335.650724 281.108868 
L 342.543602 286.431521 
L 348.287666 290.579375 
L 353.457325 294.032141 
L 358.052577 296.842029 
L 362.647829 299.379004 
L 366.668674 301.355256 
L 370.689519 303.088457 
L 374.710365 304.56552 
L 378.73121 305.775295 
L 382.177649 306.592522 
L 385.624088 307.202088 
L 389.070527 307.600605 
L 392.516966 307.785856 
L 395.963405 307.756803 
L 399.409844 307.513598 
L 402.856283 307.057577 
L 406.302721 306.391256 
L 409.74916 305.518317 
L 413.195599 304.443586 
L 417.216445 302.94268 
L 421.23729 301.186547 
L 425.258135 299.188411 
L 429.278981 296.96332 
L 433.874233 294.164029 
L 438.469485 291.117788 
L 443.639143 287.432983 
L 449.383208 283.072634 
L 456.276086 277.562214 
L 467.189809 268.503054 
L 479.252345 258.546958 
L 486.145223 253.13474 
L 491.889288 248.888808 
L 497.058946 245.330776 
L 501.654198 242.414838 
L 506.24945 239.761098 
L 510.270295 237.674748 
L 514.291141 235.824887 
L 518.311986 234.225443 
L 522.332831 232.888461 
L 525.77927 231.959057 
L 529.225709 231.235048 
L 532.672148 230.720435 
L 536.118587 230.418058 
L 539.565026 230.329582 
L 543.011465 230.455488 
L 546.457904 230.795067 
L 549.904343 231.346428 
L 553.350782 232.106506 
L 556.797221 233.071079 
L 560.818066 234.44767 
L 564.838911 236.084874 
L 568.859757 237.970331 
L 572.880602 240.089809 
L 577.475854 242.778031 
L 582.071106 245.724473 
L 587.240764 249.311633 
L 592.984829 253.582988 
L 599.877707 259.015413 
L 609.068211 266.580562 
L 625.151592 279.865795 
L 632.04447 285.250387 
L 637.788535 289.467258 
L 642.958193 292.994746 
L 647.553445 295.880302 
L 652.148697 298.500878 
L 656.169543 300.556145 
L 660.190388 302.373209 
L 664.211233 303.938355 
L 668.232079 305.239764 
L 671.678518 306.13784 
L 675.124957 306.829912 
L 678.571395 307.312134 
L 682.017834 307.581824 
L 685.464273 307.637479 
L 688.910712 307.47878 
L 692.357151 307.106595 
L 695.80359 306.522978 
L 699.250029 305.73115 
L 702.696468 304.735489 
L 706.717313 303.323668 
L 710.738159 301.652575 
L 714.759004 299.734793 
L 718.779849 297.584765 
L 723.375101 294.864056 
L 727.970353 291.887975 
L 733.140012 288.271177 
L 738.884076 283.971843 
L 745.776954 278.513172 
L 755.541865 270.446162 
L 770.476433 258.099975 
L 777.369311 252.703397 
L 783.113376 248.475172 
L 788.283034 244.936476 
L 792.878286 242.040226 
L 797.473538 239.408329 
L 801.494383 237.342692 
L 805.515229 235.514872 
L 809.536074 233.938633 
L 813.55692 232.625844 
L 817.003358 231.717827 
L 820.449797 231.015679 
L 823.896236 230.523279 
L 827.342675 230.243347 
L 830.789114 230.177422 
L 834.235553 230.32586 
L 837.681992 230.687828 
L 841.128431 231.261311 
L 844.57487 232.043121 
L 848.021309 233.028917 
L 852.042154 234.429467 
L 856.062999 236.089596 
L 860.083845 237.996771 
L 864.10469 240.136597 
L 868.699942 242.846199 
L 873.295194 245.811823 
L 878.464852 249.4177 
L 884.208917 253.706026 
L 891.101795 259.153152 
L 900.292299 266.727788 
L 915.801274 279.540858 
L 922.694152 284.934735 
L 928.438217 289.162079 
L 933.607875 292.700978 
L 938.203127 295.598141 
L 942.798379 298.231582 
L 946.819224 300.299038 
L 950.840069 302.129067 
L 954.860915 303.707854 
L 958.88176 305.02348 
L 962.328199 305.934119 
L 965.774638 306.639026 
L 969.221077 307.134288 
L 972.667516 307.41715 
L 976.113955 307.486035 
L 979.560394 307.34055 
L 983.006833 306.981493 
L 986.453272 306.410842 
L 989.89971 305.631749 
L 993.346149 304.64852 
L 996.218182 303.677114 
L 996.218182 303.677114 
" style="fill:none;stroke:#55a868;stroke-linecap:round;stroke-width:1.4;"/>
   </g>
   <g id="patch_3">
    <path d="M 144 320.4 
L 144 43.2 
" style="fill:none;"/>
   </g>
   <g id="patch_4">
    <path d="M 1036.8 320.4 
L 1036.8 43.2 
" style="fill:none;"/>
   </g>
   <g id="patch_5">
    <path d="M 144 320.4 
L 1036.8 320.4 
" style="fill:none;"/>
   </g>
   <g id="patch_6">
    <path d="M 144 43.2 
L 1036.8 43.2 
" style="fill:none;"/>
   </g>
   <g id="legend_1">
    <g id="line2d_35">
     <path d="M 1002.75125 53.3975 
L 1018.75125 53.3975 
" style="fill:none;stroke:#4c72b0;stroke-linecap:round;stroke-width:1.4;"/>
    </g>
    <g id="line2d_36"/>
    <g id="text_17">
     <!-- a -->
     <defs>
      <path d="M 20.21875 -0.984375 
Q 12.25 -0.984375 8.25 3.21875 
Q 4.25 7.421875 4.25 14.75 
Q 4.25 19.96875 6.21875 23.3125 
Q 8.203125 26.65625 11.390625 28.5625 
Q 14.59375 30.46875 18.6875 31.203125 
Q 22.796875 31.9375 27.046875 32.03125 
L 38.921875 32.234375 
L 38.921875 35.109375 
Q 38.921875 38.375 38.234375 40.671875 
Q 37.546875 42.96875 36.125 44.375 
Q 34.71875 45.796875 32.59375 46.453125 
Q 30.46875 47.125 27.59375 47.125 
Q 25.046875 47.125 23 46.75 
Q 20.953125 46.390625 19.4375 45.4375 
Q 17.921875 44.484375 16.984375 42.84375 
Q 16.0625 41.21875 15.765625 38.71875 
L 6.59375 39.546875 
Q 7.078125 42.671875 8.4375 45.28125 
Q 9.8125 47.90625 12.328125 49.796875 
Q 14.84375 51.703125 18.625 52.75 
Q 22.40625 53.8125 27.78125 53.8125 
Q 37.75 53.8125 42.765625 49.234375 
Q 47.796875 44.671875 47.796875 36.03125 
L 47.796875 13.28125 
Q 47.796875 9.375 48.828125 7.390625 
Q 49.859375 5.421875 52.734375 5.421875 
Q 53.46875 5.421875 54.203125 5.515625 
Q 54.9375 5.609375 55.609375 5.765625 
L 55.609375 0.296875 
Q 53.953125 -0.09375 52.3125 -0.28125 
Q 50.6875 -0.484375 48.828125 -0.484375 
Q 46.34375 -0.484375 44.5625 0.171875 
Q 42.78125 0.828125 41.65625 2.171875 
Q 40.53125 3.515625 39.9375 5.484375 
Q 39.359375 7.46875 39.203125 10.109375 
L 38.921875 10.109375 
Q 37.5 7.5625 35.8125 5.515625 
Q 34.125 3.46875 31.875 2.03125 
Q 29.640625 0.59375 26.78125 -0.1875 
Q 23.921875 -0.984375 20.21875 -0.984375 
M 22.21875 5.609375 
Q 26.421875 5.609375 29.5625 7.140625 
Q 32.71875 8.6875 34.78125 11.078125 
Q 36.859375 13.484375 37.890625 16.3125 
Q 38.921875 19.140625 38.921875 21.734375 
L 38.921875 26.078125 
L 29.296875 25.875 
Q 26.078125 25.828125 23.171875 25.40625 
Q 20.265625 25 18.0625 23.78125 
Q 15.875 22.5625 14.578125 20.359375 
Q 13.28125 18.171875 13.28125 14.59375 
Q 13.28125 10.296875 15.59375 7.953125 
Q 17.921875 5.609375 22.21875 5.609375 
" id="LiberationSans-61"/>
     </defs>
     <g style="fill:#262626;" transform="translate(1025.15125 56.1975)scale(0.08 -0.08)">
      <use xlink:href="#LiberationSans-61"/>
     </g>
    </g>
    <g id="line2d_37">
     <path d="M 1002.75125 64.855 
L 1018.75125 64.855 
" style="fill:none;stroke:#55a868;stroke-linecap:round;stroke-width:1.4;"/>
    </g>
    <g id="line2d_38"/>
    <g id="text_18">
     <!-- b -->
     <defs>
      <path d="M 51.421875 26.65625 
Q 51.421875 -0.984375 31.984375 -0.984375 
Q 25.984375 -0.984375 22 1.1875 
Q 18.015625 3.375 15.53125 8.203125 
L 15.4375 8.203125 
Q 15.4375 6.9375 15.359375 5.5625 
Q 15.28125 4.203125 15.203125 3.03125 
Q 15.140625 1.859375 15.0625 1.03125 
Q 14.984375 0.203125 14.9375 0 
L 6.453125 0 
Q 6.5 0.4375 6.546875 1.484375 
Q 6.59375 2.546875 6.640625 4 
Q 6.6875 5.46875 6.703125 7.21875 
Q 6.734375 8.984375 6.734375 10.890625 
L 6.734375 72.46875 
L 15.53125 72.46875 
L 15.53125 51.8125 
Q 15.53125 50.34375 15.5 49 
Q 15.484375 47.65625 15.4375 46.625 
Q 15.375 45.40625 15.328125 44.34375 
L 15.53125 44.34375 
Q 17.96875 49.421875 22 51.609375 
Q 26.03125 53.8125 31.984375 53.8125 
Q 42 53.8125 46.703125 47.0625 
Q 51.421875 40.328125 51.421875 26.65625 
M 42.1875 26.375 
Q 42.1875 31.84375 41.5 35.75 
Q 40.828125 39.65625 39.3125 42.15625 
Q 37.796875 44.671875 35.453125 45.84375 
Q 33.109375 47.015625 29.734375 47.015625 
Q 26.265625 47.015625 23.609375 45.890625 
Q 20.953125 44.78125 19.171875 42.28125 
Q 17.390625 39.796875 16.453125 35.734375 
Q 15.53125 31.6875 15.53125 25.828125 
Q 15.53125 20.171875 16.453125 16.3125 
Q 17.390625 12.453125 19.171875 10.03125 
Q 20.953125 7.625 23.578125 6.5625 
Q 26.21875 5.515625 29.640625 5.515625 
Q 32.859375 5.515625 35.203125 6.640625 
Q 37.546875 7.765625 39.109375 10.25 
Q 40.671875 12.75 41.421875 16.71875 
Q 42.1875 20.703125 42.1875 26.375 
" id="LiberationSans-62"/>
     </defs>
     <g style="fill:#262626;" transform="translate(1025.15125 67.655)scale(0.08 -0.08)">
      <use xlink:href="#LiberationSans-62"/>
     </g>
    </g>
   </g>
  </g>
 </g>
 <defs>
  <clipPath id="p0dea991d00">
   <rect height="277.2" width="892.8" x="144" y="43.2"/>
  </clipPath>
 </defs>
</svg>
