<?xml version="1.0" encoding="utf-8" standalone="no"?>
<!DOCTYPE svg PUBLIC "-//W3C//DTD SVG 1.1//EN"
  "http://www.w3.org/Graphics/SVG/1.1/DTD/svg11.dtd">
<!-- Created with matplotlib (http://matplotlib.org/) -->
<svg height="360pt" version="1.1" viewBox="0 0 1152 360" width="1152pt" xmlns="http://www.w3.org/2000/svg" xmlns:xlink="http://www.w3.org/1999/xlink">
 <defs>
  <style type="text/css">
*{stroke-linecap:butt;stroke-linejoin:round;}
  </style>
 </defs>
 <g id="figure_1">
  <g id="patch_1">
   <path d="M 0 360 
L 1152 360 
L 1152 0 
L 0 0 
z
" style="fill:#ffffff;"/>
  </g>
  <g id="axes_1">
   <g id="patch_2">
    <path d="M 144 320.4 
L 1036.8 320.4 
L 1036.8 43.2 
L 144 43.2 
z
" style="fill:#eaeaf2;"/>
   </g>
   <g id="matplotlib.axis_1">
    <g id="xtick_1">
     <g id="line2d_1">
      <path clip-path="url(#p057481bf75)" d="M 184.581818 320.4 
L 184.581818 43.2 
" style="fill:none;stroke:#ffffff;stroke-linecap:round;stroke-width:0.8;"/>
     </g>
     <g id="line2d_2"/>
     <g id="text_1">
      <!-- 0 -->
      <defs>
       <path d="M 51.703125 34.421875 
Q 51.703125 24.515625 49.828125 17.75 
Q 47.953125 10.984375 44.703125 6.8125 
Q 41.453125 2.640625 37.0625 0.828125 
Q 32.671875 -0.984375 27.6875 -0.984375 
Q 22.65625 -0.984375 18.3125 0.828125 
Q 13.96875 2.640625 10.765625 6.78125 
Q 7.5625 10.9375 5.734375 17.703125 
Q 3.90625 24.46875 3.90625 34.421875 
Q 3.90625 44.828125 5.734375 51.640625 
Q 7.5625 58.453125 10.78125 62.5 
Q 14.015625 66.546875 18.40625 68.1875 
Q 22.796875 69.828125 27.984375 69.828125 
Q 32.90625 69.828125 37.21875 68.1875 
Q 41.546875 66.546875 44.765625 62.5 
Q 48 58.453125 49.84375 51.640625 
Q 51.703125 44.828125 51.703125 34.421875 
M 42.78125 34.421875 
Q 42.78125 42.625 41.796875 48.0625 
Q 40.828125 53.515625 38.921875 56.765625 
Q 37.015625 60.015625 34.25 61.359375 
Q 31.5 62.703125 27.984375 62.703125 
Q 24.265625 62.703125 21.4375 61.328125 
Q 18.609375 59.96875 16.671875 56.71875 
Q 14.75 53.46875 13.765625 48.015625 
Q 12.796875 42.578125 12.796875 34.421875 
Q 12.796875 26.515625 13.796875 21.09375 
Q 14.796875 15.671875 16.71875 12.375 
Q 18.65625 9.078125 21.4375 7.640625 
Q 24.21875 6.203125 27.78125 6.203125 
Q 31.25 6.203125 34.03125 7.640625 
Q 36.8125 9.078125 38.734375 12.375 
Q 40.671875 15.671875 41.71875 21.09375 
Q 42.78125 26.515625 42.78125 34.421875 
" id="LiberationSans-30"/>
      </defs>
      <g style="fill:#262626;" transform="translate(182.357443 331.7975)scale(0.08 -0.08)">
       <use xlink:href="#LiberationSans-30"/>
      </g>
     </g>
    </g>
    <g id="xtick_2">
     <g id="line2d_3">
      <path clip-path="url(#p057481bf75)" d="M 299.625952 320.4 
L 299.625952 43.2 
" style="fill:none;stroke:#ffffff;stroke-linecap:round;stroke-width:0.8;"/>
     </g>
     <g id="line2d_4"/>
     <g id="text_2">
      <!-- 200 -->
      <defs>
       <path d="M 5.03125 0 
L 5.03125 6.203125 
Q 7.515625 11.921875 11.109375 16.28125 
Q 14.703125 20.65625 18.65625 24.1875 
Q 22.609375 27.734375 26.484375 30.765625 
Q 30.375 33.796875 33.5 36.8125 
Q 36.625 39.84375 38.546875 43.15625 
Q 40.484375 46.484375 40.484375 50.6875 
Q 40.484375 53.609375 39.59375 55.828125 
Q 38.71875 58.0625 37.0625 59.5625 
Q 35.40625 61.078125 33.078125 61.828125 
Q 30.765625 62.59375 27.9375 62.59375 
Q 25.296875 62.59375 22.96875 61.859375 
Q 20.65625 61.140625 18.84375 59.671875 
Q 17.046875 58.203125 15.890625 56.03125 
Q 14.75 53.859375 14.40625 50.984375 
L 5.421875 51.8125 
Q 5.859375 55.515625 7.46875 58.78125 
Q 9.078125 62.0625 11.90625 64.53125 
Q 14.75 67 18.71875 68.40625 
Q 22.703125 69.828125 27.9375 69.828125 
Q 33.0625 69.828125 37.0625 68.609375 
Q 41.0625 67.390625 43.8125 64.984375 
Q 46.578125 62.59375 48.046875 59.078125 
Q 49.515625 55.5625 49.515625 50.984375 
Q 49.515625 47.515625 48.265625 44.390625 
Q 47.015625 41.265625 44.9375 38.421875 
Q 42.875 35.59375 40.140625 32.953125 
Q 37.40625 30.328125 34.421875 27.8125 
Q 31.453125 25.296875 28.421875 22.828125 
Q 25.390625 20.359375 22.71875 17.859375 
Q 20.0625 15.375 17.96875 12.8125 
Q 15.875 10.25 14.703125 7.46875 
L 50.59375 7.46875 
L 50.59375 0 
z
" id="LiberationSans-32"/>
      </defs>
      <g style="fill:#262626;" transform="translate(292.952827 331.7975)scale(0.08 -0.08)">
       <use xlink:href="#LiberationSans-32"/>
       <use x="55.615234" xlink:href="#LiberationSans-30"/>
       <use x="111.230469" xlink:href="#LiberationSans-30"/>
      </g>
     </g>
    </g>
    <g id="xtick_3">
     <g id="line2d_5">
      <path clip-path="url(#p057481bf75)" d="M 414.670086 320.4 
L 414.670086 43.2 
" style="fill:none;stroke:#ffffff;stroke-linecap:round;stroke-width:0.8;"/>
     </g>
     <g id="line2d_6"/>
     <g id="text_3">
      <!-- 400 -->
      <defs>
       <path d="M 43.015625 15.578125 
L 43.015625 0 
L 34.71875 0 
L 34.71875 15.578125 
L 2.296875 15.578125 
L 2.296875 22.40625 
L 33.796875 68.796875 
L 43.015625 68.796875 
L 43.015625 22.515625 
L 52.6875 22.515625 
L 52.6875 15.578125 
z
M 34.71875 58.890625 
Q 34.625 58.640625 34.234375 57.9375 
Q 33.84375 57.234375 33.34375 56.34375 
Q 32.859375 55.46875 32.34375 54.5625 
Q 31.84375 53.65625 31.453125 53.078125 
L 13.8125 27.09375 
Q 13.578125 26.703125 13.109375 26.0625 
Q 12.640625 25.4375 12.15625 24.78125 
Q 11.671875 24.125 11.171875 23.484375 
Q 10.6875 22.859375 10.40625 22.515625 
L 34.71875 22.515625 
z
" id="LiberationSans-34"/>
      </defs>
      <g style="fill:#262626;" transform="translate(407.996961 331.7975)scale(0.08 -0.08)">
       <use xlink:href="#LiberationSans-34"/>
       <use x="55.615234" xlink:href="#LiberationSans-30"/>
       <use x="111.230469" xlink:href="#LiberationSans-30"/>
      </g>
     </g>
    </g>
    <g id="xtick_4">
     <g id="line2d_7">
      <path clip-path="url(#p057481bf75)" d="M 529.714219 320.4 
L 529.714219 43.2 
" style="fill:none;stroke:#ffffff;stroke-linecap:round;stroke-width:0.8;"/>
     </g>
     <g id="line2d_8"/>
     <g id="text_4">
      <!-- 600 -->
      <defs>
       <path d="M 51.21875 22.515625 
Q 51.21875 17.328125 49.78125 13 
Q 48.34375 8.6875 45.53125 5.578125 
Q 42.71875 2.484375 38.5625 0.75 
Q 34.421875 -0.984375 29 -0.984375 
Q 23 -0.984375 18.5 1.3125 
Q 14.015625 3.609375 11.03125 7.921875 
Q 8.0625 12.25 6.5625 18.53125 
Q 5.078125 24.8125 5.078125 32.8125 
Q 5.078125 42 6.765625 48.921875 
Q 8.453125 55.859375 11.625 60.5 
Q 14.796875 65.140625 19.359375 67.484375 
Q 23.921875 69.828125 29.6875 69.828125 
Q 33.203125 69.828125 36.28125 69.09375 
Q 39.359375 68.359375 41.875 66.71875 
Q 44.390625 65.09375 46.28125 62.40625 
Q 48.1875 59.71875 49.3125 55.8125 
L 40.921875 54.296875 
Q 39.546875 58.734375 36.546875 60.71875 
Q 33.546875 62.703125 29.59375 62.703125 
Q 25.984375 62.703125 23.046875 60.984375 
Q 20.125 59.28125 18.0625 55.875 
Q 16.015625 52.484375 14.90625 47.359375 
Q 13.8125 42.234375 13.8125 35.40625 
Q 16.21875 39.84375 20.5625 42.15625 
Q 24.90625 44.484375 30.515625 44.484375 
Q 35.203125 44.484375 39.015625 42.96875 
Q 42.828125 41.453125 45.53125 38.59375 
Q 48.25 35.75 49.734375 31.671875 
Q 51.21875 27.59375 51.21875 22.515625 
M 42.28125 22.125 
Q 42.28125 25.6875 41.40625 28.5625 
Q 40.53125 31.453125 38.765625 33.46875 
Q 37.015625 35.5 34.421875 36.59375 
Q 31.84375 37.703125 28.421875 37.703125 
Q 26.03125 37.703125 23.578125 36.984375 
Q 21.140625 36.28125 19.15625 34.6875 
Q 17.1875 33.109375 15.9375 30.515625 
Q 14.703125 27.9375 14.703125 24.21875 
Q 14.703125 20.40625 15.671875 17.109375 
Q 16.65625 13.8125 18.484375 11.375 
Q 20.3125 8.9375 22.890625 7.515625 
Q 25.484375 6.109375 28.71875 6.109375 
Q 31.890625 6.109375 34.40625 7.203125 
Q 36.921875 8.296875 38.671875 10.375 
Q 40.4375 12.453125 41.359375 15.421875 
Q 42.28125 18.40625 42.28125 22.125 
" id="LiberationSans-36"/>
      </defs>
      <g style="fill:#262626;" transform="translate(523.041094 331.7975)scale(0.08 -0.08)">
       <use xlink:href="#LiberationSans-36"/>
       <use x="55.615234" xlink:href="#LiberationSans-30"/>
       <use x="111.230469" xlink:href="#LiberationSans-30"/>
      </g>
     </g>
    </g>
    <g id="xtick_5">
     <g id="line2d_9">
      <path clip-path="url(#p057481bf75)" d="M 644.758353 320.4 
L 644.758353 43.2 
" style="fill:none;stroke:#ffffff;stroke-linecap:round;stroke-width:0.8;"/>
     </g>
     <g id="line2d_10"/>
     <g id="text_5">
      <!-- 800 -->
      <defs>
       <path d="M 51.265625 19.1875 
Q 51.265625 14.796875 49.875 11.109375 
Q 48.484375 7.421875 45.625 4.734375 
Q 42.78125 2.046875 38.328125 0.53125 
Q 33.890625 -0.984375 27.828125 -0.984375 
Q 21.78125 -0.984375 17.359375 0.53125 
Q 12.9375 2.046875 10.03125 4.703125 
Q 7.125 7.375 5.734375 11.0625 
Q 4.34375 14.75 4.34375 19.09375 
Q 4.34375 22.859375 5.484375 25.78125 
Q 6.640625 28.71875 8.5625 30.828125 
Q 10.5 32.953125 12.96875 34.25 
Q 15.4375 35.546875 18.0625 35.984375 
L 18.0625 36.1875 
Q 15.1875 36.859375 12.90625 38.375 
Q 10.640625 39.890625 9.09375 42.015625 
Q 7.5625 44.140625 6.75 46.71875 
Q 5.953125 49.3125 5.953125 52.203125 
Q 5.953125 55.8125 7.34375 59 
Q 8.734375 62.203125 11.46875 64.625 
Q 14.203125 67.046875 18.25 68.4375 
Q 22.3125 69.828125 27.640625 69.828125 
Q 33.25 69.828125 37.375 68.40625 
Q 41.5 67 44.203125 64.578125 
Q 46.921875 62.15625 48.234375 58.9375 
Q 49.5625 55.71875 49.5625 52.09375 
Q 49.5625 49.265625 48.75 46.671875 
Q 47.953125 44.09375 46.40625 41.96875 
Q 44.875 39.84375 42.59375 38.34375 
Q 40.328125 36.859375 37.359375 36.28125 
L 37.359375 36.078125 
Q 40.328125 35.59375 42.859375 34.296875 
Q 45.40625 33.015625 47.265625 30.890625 
Q 49.125 28.765625 50.1875 25.828125 
Q 51.265625 22.90625 51.265625 19.1875 
M 40.4375 51.609375 
Q 40.4375 54.203125 39.765625 56.34375 
Q 39.109375 58.5 37.59375 60.03125 
Q 36.078125 61.578125 33.640625 62.421875 
Q 31.203125 63.28125 27.640625 63.28125 
Q 24.171875 63.28125 21.78125 62.421875 
Q 19.390625 61.578125 17.84375 60.03125 
Q 16.3125 58.5 15.625 56.34375 
Q 14.9375 54.203125 14.9375 51.609375 
Q 14.9375 49.5625 15.46875 47.40625 
Q 16.015625 45.265625 17.421875 43.5 
Q 18.84375 41.75 21.328125 40.625 
Q 23.828125 39.5 27.734375 39.5 
Q 31.890625 39.5 34.40625 40.625 
Q 36.921875 41.75 38.25 43.5 
Q 39.59375 45.265625 40.015625 47.40625 
Q 40.4375 49.5625 40.4375 51.609375 
M 42.140625 20.015625 
Q 42.140625 22.515625 41.453125 24.828125 
Q 40.765625 27.15625 39.109375 28.9375 
Q 37.453125 30.71875 34.640625 31.8125 
Q 31.84375 32.90625 27.640625 32.90625 
Q 23.78125 32.90625 21.0625 31.8125 
Q 18.359375 30.71875 16.671875 28.90625 
Q 14.984375 27.09375 14.203125 24.71875 
Q 13.421875 22.359375 13.421875 19.828125 
Q 13.421875 16.65625 14.203125 14.03125 
Q 14.984375 11.421875 16.6875 9.546875 
Q 18.40625 7.671875 21.1875 6.640625 
Q 23.96875 5.609375 27.9375 5.609375 
Q 31.9375 5.609375 34.671875 6.640625 
Q 37.40625 7.671875 39.0625 9.546875 
Q 40.71875 11.421875 41.421875 14.078125 
Q 42.140625 16.75 42.140625 20.015625 
" id="LiberationSans-38"/>
      </defs>
      <g style="fill:#262626;" transform="translate(638.085228 331.7975)scale(0.08 -0.08)">
       <use xlink:href="#LiberationSans-38"/>
       <use x="55.615234" xlink:href="#LiberationSans-30"/>
       <use x="111.230469" xlink:href="#LiberationSans-30"/>
      </g>
     </g>
    </g>
    <g id="xtick_6">
     <g id="line2d_11">
      <path clip-path="url(#p057481bf75)" d="M 759.802487 320.4 
L 759.802487 43.2 
" style="fill:none;stroke:#ffffff;stroke-linecap:round;stroke-width:0.8;"/>
     </g>
     <g id="line2d_12"/>
     <g id="text_6">
      <!-- 1000 -->
      <defs>
       <path d="M 7.625 0 
L 7.625 7.46875 
L 25.140625 7.46875 
L 25.140625 60.40625 
L 9.625 49.3125 
L 9.625 57.625 
L 25.875 68.796875 
L 33.984375 68.796875 
L 33.984375 7.46875 
L 50.734375 7.46875 
L 50.734375 0 
z
" id="LiberationSans-31"/>
      </defs>
      <g style="fill:#262626;" transform="translate(750.904987 331.7975)scale(0.08 -0.08)">
       <use xlink:href="#LiberationSans-31"/>
       <use x="55.615234" xlink:href="#LiberationSans-30"/>
       <use x="111.230469" xlink:href="#LiberationSans-30"/>
       <use x="166.845703" xlink:href="#LiberationSans-30"/>
      </g>
     </g>
    </g>
    <g id="xtick_7">
     <g id="line2d_13">
      <path clip-path="url(#p057481bf75)" d="M 874.846621 320.4 
L 874.846621 43.2 
" style="fill:none;stroke:#ffffff;stroke-linecap:round;stroke-width:0.8;"/>
     </g>
     <g id="line2d_14"/>
     <g id="text_7">
      <!-- 1200 -->
      <g style="fill:#262626;" transform="translate(865.949121 331.7975)scale(0.08 -0.08)">
       <use xlink:href="#LiberationSans-31"/>
       <use x="55.615234" xlink:href="#LiberationSans-32"/>
       <use x="111.230469" xlink:href="#LiberationSans-30"/>
       <use x="166.845703" xlink:href="#LiberationSans-30"/>
      </g>
     </g>
    </g>
    <g id="xtick_8">
     <g id="line2d_15">
      <path clip-path="url(#p057481bf75)" d="M 989.890754 320.4 
L 989.890754 43.2 
" style="fill:none;stroke:#ffffff;stroke-linecap:round;stroke-width:0.8;"/>
     </g>
     <g id="line2d_16"/>
     <g id="text_8">
      <!-- 1400 -->
      <g style="fill:#262626;" transform="translate(980.993254 331.7975)scale(0.08 -0.08)">
       <use xlink:href="#LiberationSans-31"/>
       <use x="55.615234" xlink:href="#LiberationSans-34"/>
       <use x="111.230469" xlink:href="#LiberationSans-30"/>
       <use x="166.845703" xlink:href="#LiberationSans-30"/>
      </g>
     </g>
    </g>
   </g>
   <g id="matplotlib.axis_2">
    <g id="ytick_1">
     <g id="line2d_17">
      <path clip-path="url(#p057481bf75)" d="M 144 303.697499 
L 1036.8 303.697499 
" style="fill:none;stroke:#ffffff;stroke-linecap:round;stroke-width:0.8;"/>
     </g>
     <g id="line2d_18"/>
     <g id="text_9">
      <!-- −150000 -->
      <defs>
       <path d="M 4.9375 29.6875 
L 4.9375 36.8125 
L 53.515625 36.8125 
L 53.515625 29.6875 
z
" id="LiberationSans-2212"/>
       <path d="M 51.421875 22.40625 
Q 51.421875 17.234375 49.859375 12.9375 
Q 48.296875 8.640625 45.21875 5.53125 
Q 42.140625 2.4375 37.578125 0.71875 
Q 33.015625 -0.984375 27 -0.984375 
Q 21.578125 -0.984375 17.546875 0.28125 
Q 13.53125 1.5625 10.734375 3.78125 
Q 7.953125 6 6.3125 8.984375 
Q 4.6875 11.96875 4 15.375 
L 12.890625 16.40625 
Q 13.421875 14.453125 14.390625 12.625 
Q 15.375 10.796875 17.0625 9.34375 
Q 18.75 7.90625 21.21875 7.046875 
Q 23.6875 6.203125 27.203125 6.203125 
Q 30.609375 6.203125 33.390625 7.25 
Q 36.1875 8.296875 38.15625 10.34375 
Q 40.140625 12.40625 41.203125 15.375 
Q 42.28125 18.359375 42.28125 22.21875 
Q 42.28125 25.390625 41.25 28.046875 
Q 40.234375 30.71875 38.328125 32.640625 
Q 36.421875 34.578125 33.65625 35.640625 
Q 30.90625 36.71875 27.390625 36.71875 
Q 25.203125 36.71875 23.34375 36.328125 
Q 21.484375 35.9375 19.890625 35.25 
Q 18.3125 34.578125 17.015625 33.671875 
Q 15.71875 32.765625 14.59375 31.78125 
L 6 31.78125 
L 8.296875 68.796875 
L 47.40625 68.796875 
L 47.40625 61.328125 
L 16.3125 61.328125 
L 14.984375 39.5 
Q 17.328125 41.3125 20.84375 42.59375 
Q 24.359375 43.890625 29.203125 43.890625 
Q 34.328125 43.890625 38.421875 42.328125 
Q 42.53125 40.765625 45.40625 37.90625 
Q 48.296875 35.0625 49.859375 31.109375 
Q 51.421875 27.15625 51.421875 22.40625 
" id="LiberationSans-35"/>
      </defs>
      <g style="fill:#262626;" transform="translate(107.035 306.596249)scale(0.08 -0.08)">
       <use xlink:href="#LiberationSans-2212"/>
       <use x="58.398438" xlink:href="#LiberationSans-31"/>
       <use x="114.013672" xlink:href="#LiberationSans-35"/>
       <use x="169.628906" xlink:href="#LiberationSans-30"/>
       <use x="225.244141" xlink:href="#LiberationSans-30"/>
       <use x="280.859375" xlink:href="#LiberationSans-30"/>
       <use x="336.474609" xlink:href="#LiberationSans-30"/>
      </g>
     </g>
    </g>
    <g id="ytick_2">
     <g id="line2d_19">
      <path clip-path="url(#p057481bf75)" d="M 144 266.64456 
L 1036.8 266.64456 
" style="fill:none;stroke:#ffffff;stroke-linecap:round;stroke-width:0.8;"/>
     </g>
     <g id="line2d_20"/>
     <g id="text_10">
      <!-- −100000 -->
      <g style="fill:#262626;" transform="translate(107.035 269.54331)scale(0.08 -0.08)">
       <use xlink:href="#LiberationSans-2212"/>
       <use x="58.398438" xlink:href="#LiberationSans-31"/>
       <use x="114.013672" xlink:href="#LiberationSans-30"/>
       <use x="169.628906" xlink:href="#LiberationSans-30"/>
       <use x="225.244141" xlink:href="#LiberationSans-30"/>
       <use x="280.859375" xlink:href="#LiberationSans-30"/>
       <use x="336.474609" xlink:href="#LiberationSans-30"/>
      </g>
     </g>
    </g>
    <g id="ytick_3">
     <g id="line2d_21">
      <path clip-path="url(#p057481bf75)" d="M 144 229.591621 
L 1036.8 229.591621 
" style="fill:none;stroke:#ffffff;stroke-linecap:round;stroke-width:0.8;"/>
     </g>
     <g id="line2d_22"/>
     <g id="text_11">
      <!-- −50000 -->
      <g style="fill:#262626;" transform="translate(111.48375 232.490371)scale(0.08 -0.08)">
       <use xlink:href="#LiberationSans-2212"/>
       <use x="58.398438" xlink:href="#LiberationSans-35"/>
       <use x="114.013672" xlink:href="#LiberationSans-30"/>
       <use x="169.628906" xlink:href="#LiberationSans-30"/>
       <use x="225.244141" xlink:href="#LiberationSans-30"/>
       <use x="280.859375" xlink:href="#LiberationSans-30"/>
      </g>
     </g>
    </g>
    <g id="ytick_4">
     <g id="line2d_23">
      <path clip-path="url(#p057481bf75)" d="M 144 192.538683 
L 1036.8 192.538683 
" style="fill:none;stroke:#ffffff;stroke-linecap:round;stroke-width:0.8;"/>
     </g>
     <g id="line2d_24"/>
     <g id="text_12">
      <!-- 0 -->
      <g style="fill:#262626;" transform="translate(133.95125 195.437433)scale(0.08 -0.08)">
       <use xlink:href="#LiberationSans-30"/>
      </g>
     </g>
    </g>
    <g id="ytick_5">
     <g id="line2d_25">
      <path clip-path="url(#p057481bf75)" d="M 144 155.485744 
L 1036.8 155.485744 
" style="fill:none;stroke:#ffffff;stroke-linecap:round;stroke-width:0.8;"/>
     </g>
     <g id="line2d_26"/>
     <g id="text_13">
      <!-- 50000 -->
      <g style="fill:#262626;" transform="translate(116.15625 158.384494)scale(0.08 -0.08)">
       <use xlink:href="#LiberationSans-35"/>
       <use x="55.615234" xlink:href="#LiberationSans-30"/>
       <use x="111.230469" xlink:href="#LiberationSans-30"/>
       <use x="166.845703" xlink:href="#LiberationSans-30"/>
       <use x="222.460938" xlink:href="#LiberationSans-30"/>
      </g>
     </g>
    </g>
    <g id="ytick_6">
     <g id="line2d_27">
      <path clip-path="url(#p057481bf75)" d="M 144 118.432805 
L 1036.8 118.432805 
" style="fill:none;stroke:#ffffff;stroke-linecap:round;stroke-width:0.8;"/>
     </g>
     <g id="line2d_28"/>
     <g id="text_14">
      <!-- 100000 -->
      <g style="fill:#262626;" transform="translate(111.7075 121.331555)scale(0.08 -0.08)">
       <use xlink:href="#LiberationSans-31"/>
       <use x="55.615234" xlink:href="#LiberationSans-30"/>
       <use x="111.230469" xlink:href="#LiberationSans-30"/>
       <use x="166.845703" xlink:href="#LiberationSans-30"/>
       <use x="222.460938" xlink:href="#LiberationSans-30"/>
       <use x="278.076172" xlink:href="#LiberationSans-30"/>
      </g>
     </g>
    </g>
    <g id="ytick_7">
     <g id="line2d_29">
      <path clip-path="url(#p057481bf75)" d="M 144 81.379867 
L 1036.8 81.379867 
" style="fill:none;stroke:#ffffff;stroke-linecap:round;stroke-width:0.8;"/>
     </g>
     <g id="line2d_30"/>
     <g id="text_15">
      <!-- 150000 -->
      <g style="fill:#262626;" transform="translate(111.7075 84.278617)scale(0.08 -0.08)">
       <use xlink:href="#LiberationSans-31"/>
       <use x="55.615234" xlink:href="#LiberationSans-35"/>
       <use x="111.230469" xlink:href="#LiberationSans-30"/>
       <use x="166.845703" xlink:href="#LiberationSans-30"/>
       <use x="222.460938" xlink:href="#LiberationSans-30"/>
       <use x="278.076172" xlink:href="#LiberationSans-30"/>
      </g>
     </g>
    </g>
    <g id="ytick_8">
     <g id="line2d_31">
      <path clip-path="url(#p057481bf75)" d="M 144 44.326928 
L 1036.8 44.326928 
" style="fill:none;stroke:#ffffff;stroke-linecap:round;stroke-width:0.8;"/>
     </g>
     <g id="line2d_32"/>
     <g id="text_16">
      <!-- 200000 -->
      <g style="fill:#262626;" transform="translate(111.7075 47.225678)scale(0.08 -0.08)">
       <use xlink:href="#LiberationSans-32"/>
       <use x="55.615234" xlink:href="#LiberationSans-30"/>
       <use x="111.230469" xlink:href="#LiberationSans-30"/>
       <use x="166.845703" xlink:href="#LiberationSans-30"/>
       <use x="222.460938" xlink:href="#LiberationSans-30"/>
       <use x="278.076172" xlink:href="#LiberationSans-30"/>
      </g>
     </g>
    </g>
   </g>
   <g id="line2d_33">
    <path clip-path="url(#p057481bf75)" d="M 184.581818 192.538683 
L 187.457922 192.538777 
L 188.033142 193.464873 
L 188.608363 196.804165 
L 189.758804 205.460154 
L 190.334025 205.627485 
L 190.909246 200.417027 
L 192.634908 170.551617 
L 193.210128 168.433301 
L 193.785349 174.271806 
L 194.36057 186.83877 
L 195.511011 217.635453 
L 196.086232 226.180454 
L 196.661452 224.576432 
L 197.236673 211.920482 
L 198.962335 153.00831 
L 199.537556 147.613403 
L 200.112776 154.995682 
L 200.687997 173.260261 
L 202.413659 242.356952 
L 202.98888 250.645694 
L 203.5641 243.37487 
L 204.139321 220.187289 
L 205.289762 152.34988 
L 205.864983 127.648909 
L 206.440204 119.206026 
L 207.015424 128.393376 
L 207.590645 151.429559 
L 208.741086 209.927108 
L 209.316307 231.319622 
L 209.891528 242.081204 
L 210.466748 242.115218 
L 211.041969 234.110746 
L 212.19241 212.176888 
L 213.342852 199.495513 
L 213.918072 189.843993 
L 215.643734 145.353396 
L 216.218955 140.222527 
L 216.794176 143.927524 
L 217.369396 154.79856 
L 219.095058 197.405764 
L 219.670279 206.26235 
L 220.2455 210.573163 
L 220.82072 210.427693 
L 221.395941 206.6809 
L 223.121603 189.836456 
L 223.696824 187.281634 
L 224.272044 187.26851 
L 224.847265 189.304843 
L 225.997706 195.581388 
L 226.572927 197.90998 
L 227.148148 198.930544 
L 227.723368 198.588709 
L 228.298589 197.183602 
L 229.44903 193.380162 
L 230.024251 192.049257 
L 230.599472 191.531035 
L 231.174692 191.846868 
L 231.749913 192.786562 
L 232.900354 195.209088 
L 233.475575 196.047574 
L 234.050796 196.385089 
L 234.626016 196.221463 
L 235.201237 195.685411 
L 236.351678 194.274168 
L 236.926899 193.766276 
L 237.50212 193.566539 
L 238.07734 193.68184 
L 239.227782 194.466829 
L 240.378223 195.196942 
L 240.953444 195.316052 
L 241.528664 195.256101 
L 242.679106 194.826605 
L 243.829547 194.388825 
L 244.404768 194.305278 
L 245.555209 194.448065 
L 247.280871 194.808005 
L 248.431312 194.78149 
L 251.307416 194.425344 
L 253.608298 194.519429 
L 255.909181 194.51622 
L 259.360505 194.413976 
L 269.714477 194.472609 
L 273.165801 194.408826 
L 276.041905 194.406469 
L 282.369332 194.370217 
L 284.670215 194.502296 
L 291.572863 195.208325 
L 292.723304 195.384852 
L 297.325069 196.658013 
L 298.475511 197.249749 
L 299.625952 198.158798 
L 300.776393 199.47563 
L 301.351614 200.389459 
L 301.926835 201.596866 
L 302.502055 203.248538 
L 303.077276 205.547821 
L 303.652497 208.784321 
L 304.227717 213.312487 
L 305.953379 230.856164 
L 306.5286 225.563448 
L 307.103821 204.133511 
L 308.829483 101.735269 
L 309.404703 96.380378 
L 309.979924 116.065123 
L 310.555145 155.102617 
L 311.705586 247.581119 
L 312.280807 279.810951 
L 312.856027 291.458172 
L 313.431248 275.850733 
L 314.006469 232.713998 
L 315.15691 116.572007 
L 315.732131 82.926456 
L 316.307351 83.019089 
L 316.882572 115.752396 
L 318.608234 277.181675 
L 319.183455 293.170759 
L 319.758675 271.006432 
L 321.484337 116.610542 
L 322.059558 103.177369 
L 322.634779 122.463424 
L 324.360441 248.018122 
L 324.935661 249.941688 
L 325.510882 223.760156 
L 326.086103 186.814478 
L 326.661323 158.557581 
L 327.236544 150.687611 
L 327.811765 164.675984 
L 328.962206 213.842418 
L 329.537427 216.217734 
L 330.112647 198.27058 
L 330.687868 174.322791 
L 331.263089 160.834484 
L 331.838309 165.762673 
L 332.41353 186.70137 
L 332.988751 211.852675 
L 333.563971 224.300388 
L 334.139192 214.425187 
L 335.289633 165.946752 
L 335.864854 158.662218 
L 336.440075 170.230516 
L 337.590516 211.387735 
L 338.165737 212.894307 
L 338.740957 198.078631 
L 339.316178 179.985147 
L 339.891399 171.847284 
L 340.466619 178.225429 
L 341.04184 193.695713 
L 341.617061 205.862178 
L 342.192281 204.578072 
L 343.342723 177.643253 
L 343.917943 173.843622 
L 344.493164 182.386326 
L 345.068385 196.655635 
L 345.643605 205.084659 
L 346.218826 201.020323 
L 346.794047 188.99076 
L 347.369267 179.562669 
L 347.944488 179.899036 
L 349.094929 199.276159 
L 349.67015 200.465714 
L 350.820591 182.048551 
L 351.395812 179.67657 
L 351.971033 187.197087 
L 352.546253 198.34241 
L 353.121474 202.401879 
L 353.696695 195.23401 
L 354.271915 183.987309 
L 354.847136 179.111735 
L 355.422357 185.103862 
L 355.997577 196.773908 
L 356.572798 202.411883 
L 357.148019 196.038688 
L 357.723239 184.457214 
L 358.29846 179.059861 
L 358.873681 185.065772 
L 359.448901 197.131965 
L 360.024122 202.80042 
L 360.599343 196.016212 
L 361.174563 184.375624 
L 361.749784 179.596832 
L 362.325005 186.314041 
L 362.900226 197.978217 
L 363.475446 201.900626 
L 364.050667 193.872522 
L 364.625888 183.150728 
L 365.201108 180.770002 
L 365.776329 189.19218 
L 366.35155 199.697429 
L 366.92677 200.424511 
L 368.077212 182.214474 
L 368.652432 183.090776 
L 369.227653 192.637583 
L 369.802874 200.256662 
L 370.378094 197.210414 
L 370.953315 187.747204 
L 371.528536 182.609829 
L 372.103756 186.971834 
L 372.678977 196.032493 
L 373.254198 199.167587 
L 373.829418 192.920475 
L 374.404639 185.211738 
L 374.97986 184.609131 
L 376.130301 198.456934 
L 376.705522 196.315244 
L 377.280742 188.152437 
L 377.855963 183.774625 
L 378.431184 188.261758 
L 379.006404 196.871802 
L 379.581625 199.013936 
L 380.732066 183.900161 
L 381.307287 184.863611 
L 381.882508 194.007669 
L 382.457728 200.594584 
L 383.032949 195.865673 
L 383.60817 185.555456 
L 384.18339 182.118581 
L 384.758611 189.948541 
L 385.333832 200.340698 
L 385.909052 199.997069 
L 386.484273 188.924932 
L 387.059494 180.837142 
L 387.634714 185.511289 
L 388.209935 198.205374 
L 388.785156 203.201481 
L 389.360376 193.462057 
L 389.935597 181.18292 
L 390.510818 181.253766 
L 391.086038 194.286729 
L 391.661259 204.779714 
L 392.23648 198.768667 
L 392.8117 183.732533 
L 393.386921 178.191192 
L 393.962142 189.013118 
L 394.537362 203.770688 
L 395.112583 203.556745 
L 395.687804 188.510406 
L 396.263024 177.59916 
L 396.838245 183.692145 
L 397.413466 199.916382 
L 397.988686 206.00876 
L 398.563907 194.098359 
L 399.139128 179.706657 
L 399.714348 180.037169 
L 400.289569 194.773508 
L 400.86479 205.940879 
L 401.44001 199.130919 
L 402.015231 183.507177 
L 402.590452 178.275969 
L 403.165672 189.503536 
L 403.740893 203.88696 
L 404.316114 203.052602 
L 404.891334 188.257482 
L 405.466555 178.155177 
L 406.041776 184.5268 
L 406.616996 200.151876 
L 407.192217 205.621038 
L 408.342658 180.096306 
L 408.917879 180.489734 
L 409.4931 194.808442 
L 410.06832 205.897379 
L 410.643541 199.535774 
L 411.218762 183.982122 
L 411.793982 178.045055 
L 412.369203 188.642159 
L 412.944424 203.785065 
L 413.519644 204.563473 
L 414.670086 177.762564 
L 415.245306 182.282207 
L 415.820527 198.926506 
L 416.395748 207.881934 
L 416.970968 197.463811 
L 417.546189 180.404586 
L 418.12141 176.543818 
L 419.271851 207.435594 
L 419.847072 206.069527 
L 420.422292 187.983142 
L 420.997513 174.496347 
L 421.572734 180.580884 
L 422.147954 200.37197 
L 422.723175 211.215365 
L 423.298396 199.746317 
L 423.873616 179.712882 
L 424.448837 173.381869 
L 425.024058 187.697005 
L 425.599278 207.664063 
L 426.174499 210.107704 
L 427.32494 174.672423 
L 427.900161 175.793867 
L 429.050602 211.451466 
L 429.625823 206.530021 
L 430.201044 186.143071 
L 430.776264 172.519573 
L 431.351485 179.199995 
L 431.926706 199.884087 
L 432.501926 212.485243 
L 433.077147 203.089359 
L 433.652368 182.78835 
L 434.227588 172.47963 
L 434.802809 181.907305 
L 435.37803 202.086929 
L 435.95325 211.90618 
L 436.528471 201.229598 
L 437.103692 182.246191 
L 437.678912 173.551645 
L 438.254133 182.955903 
L 438.829354 201.651779 
L 439.404574 210.626223 
L 439.979795 201.015432 
L 440.555016 183.474348 
L 441.130236 174.682575 
L 441.705457 182.428047 
L 442.280678 199.887881 
L 442.855898 209.986096 
L 443.431119 202.725351 
L 444.00634 185.796145 
L 444.58156 174.945058 
L 445.156781 179.603576 
L 446.307222 209.732284 
L 446.882443 207.045872 
L 448.032884 176.03686 
L 448.608105 174.821598 
L 449.183326 188.696589 
L 449.758546 206.423827 
L 450.333767 212.126496 
L 450.908988 200.566128 
L 451.484208 182.08264 
L 452.059429 171.894712 
L 452.63465 177.934489 
L 453.785091 212.039941 
L 454.360312 211.98073 
L 455.510753 176.884705 
L 456.085974 169.483826 
L 456.661195 178.964264 
L 457.236415 199.144703 
L 457.811636 215.150164 
L 458.386857 214.132246 
L 459.537298 176.33521 
L 460.112519 167.142599 
L 460.687739 174.78699 
L 461.838181 213.403267 
L 462.413401 218.026955 
L 462.988622 205.198412 
L 463.563843 184.487153 
L 464.139063 169.71511 
L 464.714284 169.062385 
L 465.289505 182.129401 
L 465.864725 201.313041 
L 466.439946 214.945039 
L 467.015167 214.343374 
L 467.590387 200.505954 
L 468.165608 182.930633 
L 468.740829 171.856399 
L 469.316049 172.228411 
L 469.89127 183.055354 
L 470.466491 198.85655 
L 471.041711 211.247971 
L 471.616932 213.033849 
L 472.192153 203.439435 
L 473.342594 176.303048 
L 473.917815 172.207735 
L 474.493035 177.3306 
L 476.218697 212.96456 
L 476.793918 212.638272 
L 477.369139 202.566542 
L 478.51958 175.155815 
L 479.094801 169.696658 
L 479.670021 173.189564 
L 480.245242 184.386443 
L 481.395683 214.000782 
L 481.970904 220.948875 
L 482.546125 216.321778 
L 483.121345 200.942363 
L 484.271787 163.726614 
L 484.847007 156.295054 
L 485.422228 160.793577 
L 485.997449 175.577922 
L 487.723111 235.067082 
L 488.298331 242.161757 
L 488.873552 234.394053 
L 489.448773 211.464509 
L 490.599214 149.284861 
L 491.174435 130.36274 
L 491.749655 128.462369 
L 492.324876 143.216923 
L 494.050538 224.504697 
L 494.625759 241.160957 
L 495.200979 247.12811 
L 495.7762 243.694785 
L 496.351421 234.147132 
L 497.501862 207.219502 
L 498.652303 167.933753 
L 499.227524 147.827865 
L 499.802745 134.467687 
L 500.377965 131.859456 
L 500.953186 140.643967 
L 501.528407 158.045435 
L 502.678848 198.28237 
L 503.254069 211.662297 
L 503.829289 217.437442 
L 504.40451 215.961327 
L 504.979731 209.092083 
L 506.130172 190.026479 
L 506.705393 183.005851 
L 507.280613 179.831155 
L 507.855834 180.70842 
L 508.431055 184.776166 
L 509.581496 196.072562 
L 510.156717 200.100224 
L 510.731937 201.751674 
L 511.307158 200.983566 
L 511.882379 198.379345 
L 513.03282 191.644951 
L 513.608041 189.355991 
L 514.183261 188.481052 
L 514.758482 189.049141 
L 515.333703 190.716419 
L 516.484144 194.939869 
L 517.059365 196.382606 
L 517.634585 196.948872 
L 518.209806 196.631595 
L 518.785027 195.648929 
L 519.935468 193.131788 
L 520.510689 192.295026 
L 521.085909 192.011093 
L 521.66113 192.281742 
L 522.811571 193.825754 
L 523.386792 194.611913 
L 523.962013 195.156295 
L 524.537233 195.352668 
L 525.112454 195.201581 
L 527.413337 193.647633 
L 527.988557 193.598412 
L 528.563778 193.749439 
L 530.864661 194.924936 
L 531.439881 194.992128 
L 532.590323 194.769662 
L 533.740764 194.431917 
L 534.891205 194.374241 
L 537.767309 194.879954 
L 547.54606 194.797882 
L 552.147826 194.840589 
L 557.900032 194.760562 
L 570.554887 194.180498 
L 572.85577 194.103087 
L 582.0593 194.188176 
L 586.085845 194.444523 
L 588.961948 194.85796 
L 590.68761 195.36517 
L 591.838052 195.843664 
L 592.988493 196.576475 
L 593.563714 197.125592 
L 594.138934 197.877818 
L 594.714155 198.921948 
L 595.289376 200.381011 
L 595.864596 202.399137 
L 597.015038 207.750544 
L 597.590258 208.678202 
L 598.165479 204.579924 
L 598.7407 193.575009 
L 599.891141 162.153272 
L 600.466362 152.925386 
L 601.041582 153.659034 
L 601.616803 164.383711 
L 603.342465 219.201681 
L 603.917686 230.515277 
L 604.492906 232.537182 
L 605.068127 222.899787 
L 605.643348 202.56002 
L 606.793789 155.485744 
L 607.36901 144.994946 
L 607.94423 149.11049 
L 608.519451 166.24903 
L 609.669892 216.48659 
L 610.245113 233.819065 
L 610.820334 235.779166 
L 611.395554 220.410718 
L 612.545996 166.866406 
L 613.121216 150.863464 
L 613.696437 151.321883 
L 614.271658 167.696392 
L 615.422099 218.417493 
L 615.99732 228.974764 
L 616.57254 219.687667 
L 617.722982 172.459399 
L 618.298202 160.108246 
L 618.873423 164.684581 
L 619.448644 183.87704 
L 620.023864 207.691037 
L 620.599085 221.289243 
L 621.174306 215.12734 
L 622.324747 171.097185 
L 622.899968 161.572875 
L 623.475188 170.00931 
L 624.62563 214.865005 
L 625.20085 222.334136 
L 625.776071 208.502348 
L 626.351292 183.52474 
L 626.926512 164.87281 
L 627.501733 163.974054 
L 628.076954 181.041008 
L 628.652174 205.335063 
L 629.227395 219.451862 
L 629.802616 212.336512 
L 630.953057 170.010867 
L 631.528278 166.379308 
L 632.103498 181.194184 
L 632.678719 203.989819 
L 633.25394 216.902176 
L 633.82916 209.077262 
L 634.979602 169.934389 
L 635.554822 169.646488 
L 636.130043 186.765153 
L 636.705264 208.007914 
L 637.280485 215.077467 
L 637.855705 201.666378 
L 638.430926 180.091341 
L 639.006147 168.738765 
L 639.581367 176.804523 
L 640.156588 198.266311 
L 640.731809 214.293426 
L 641.307029 209.428672 
L 642.457471 170.275647 
L 643.032691 171.181962 
L 644.183133 212.184447 
L 644.758353 213.920674 
L 645.908795 172.643997 
L 646.484015 168.756773 
L 647.059236 186.702704 
L 647.634457 210.243466 
L 648.209677 215.359069 
L 648.784898 196.762718 
L 649.360119 173.835841 
L 649.935339 168.499477 
L 650.51056 186.17836 
L 651.085781 210.115041 
L 651.661001 214.892795 
L 652.811443 173.165554 
L 653.386663 169.758462 
L 654.537105 211.687493 
L 655.112325 212.6711 
L 656.262767 171.783257 
L 656.837987 173.09871 
L 657.988429 212.810049 
L 658.563649 207.572246 
L 659.13887 185.830337 
L 659.714091 171.775698 
L 660.289311 179.417348 
L 660.864532 200.682326 
L 661.439753 211.484591 
L 662.014973 199.743671 
L 662.590194 180.423261 
L 663.165415 174.660788 
L 663.740635 188.11866 
L 664.315856 205.791852 
L 664.891077 206.716026 
L 666.041518 177.106134 
L 666.616739 180.595409 
L 667.191959 197.251179 
L 667.76718 207.494805 
L 668.342401 198.914878 
L 668.917621 182.788572 
L 669.492842 177.816513 
L 670.068063 189.34692 
L 670.643283 204.207691 
L 671.218504 204.075263 
L 671.793725 189.531807 
L 672.368945 178.559869 
L 672.944166 183.435146 
L 673.519387 198.739018 
L 674.094607 205.876777 
L 674.669828 195.874996 
L 675.245049 181.69803 
L 675.820269 180.053547 
L 676.970711 205.046495 
L 677.545931 200.934138 
L 678.121152 186.012652 
L 678.696373 178.668804 
L 679.271593 187.476021 
L 679.846814 202.39758 
L 680.422035 204.610456 
L 681.572476 179.211704 
L 682.147697 182.693124 
L 682.722917 197.832236 
L 683.298138 206.022988 
L 683.873359 196.723464 
L 684.448579 182.198319 
L 685.0238 179.895627 
L 686.174241 204.575404 
L 686.749462 201.051595 
L 687.324683 186.945868 
L 687.899903 179.828339 
L 688.475124 187.602246 
L 689.050345 200.856993 
L 689.625565 202.943074 
L 690.776007 181.886037 
L 691.351227 184.634698 
L 691.926448 196.468473 
L 692.501669 202.679109 
L 693.076889 195.671034 
L 693.65211 185.045096 
L 694.227331 183.45345 
L 695.377772 200.831575 
L 695.952993 198.380219 
L 696.528213 188.837279 
L 697.103434 184.055857 
L 697.678655 189.122854 
L 698.253875 197.793812 
L 698.829096 199.29127 
L 699.979537 185.766369 
L 700.554758 187.150882 
L 701.129979 194.494033 
L 701.705199 198.79313 
L 702.28042 194.837795 
L 702.855641 188.043242 
L 703.430861 186.517528 
L 704.581303 197.933109 
L 705.156523 196.892329 
L 705.731744 190.139838 
L 706.306965 185.922147 
L 706.882185 189.149206 
L 707.457406 196.46522 
L 708.032627 199.003783 
L 708.607847 193.319144 
L 709.183068 186.30875 
L 709.758289 186.062718 
L 710.90873 199.800777 
L 711.483951 197.587901 
L 712.059171 189.110812 
L 712.634392 184.199993 
L 713.209613 188.332944 
L 713.784833 197.387386 
L 714.360054 200.87967 
L 714.935275 194.426967 
L 715.510495 185.638596 
L 716.085716 184.179169 
L 717.236157 200.596733 
L 717.811378 200.07362 
L 718.961819 183.262183 
L 719.53704 185.308217 
L 720.112261 195.22133 
L 720.687481 202.363566 
L 721.262702 198.463514 
L 721.837923 188.055255 
L 722.413143 182.244783 
L 722.988364 186.786214 
L 723.563585 197.369541 
L 724.138805 202.717644 
L 724.714026 197.053769 
L 725.289247 186.920872 
L 725.864467 182.548395 
L 726.439688 188.013126 
L 727.014909 198.063676 
L 727.59013 202.148881 
L 728.16535 196.088384 
L 728.740571 186.628843 
L 729.315792 182.952272 
L 729.891012 188.491694 
L 730.466233 198.162882 
L 731.041454 202.048393 
L 731.616674 196.11275 
L 732.191895 186.583438 
L 732.767116 182.51564 
L 733.342336 187.837302 
L 733.917557 198.161377 
L 734.492778 203.377631 
L 735.067998 197.893151 
L 735.643219 186.963861 
L 736.21844 180.630313 
L 736.79366 184.698874 
L 737.368881 196.446745 
L 737.944102 205.408947 
L 738.519322 202.599519 
L 739.669764 179.310932 
L 740.244984 179.147454 
L 740.820205 190.762995 
L 741.395426 205.212122 
L 741.970646 209.383393 
L 742.545867 198.6456 
L 743.121088 181.925832 
L 743.696308 172.96443 
L 744.271529 179.250832 
L 745.42197 213.383258 
L 745.997191 213.231119 
L 746.572412 195.830184 
L 747.147632 174.845979 
L 747.722853 166.17485 
L 748.298074 176.535518 
L 749.448515 220.027591 
L 750.023736 220.305488 
L 750.598956 199.649875 
L 751.174177 173.342148 
L 751.749398 159.77099 
L 752.324618 167.685646 
L 753.47506 219.54983 
L 754.05028 228.900139 
L 754.625501 213.406083 
L 755.200722 183.860736 
L 755.775942 160.082383 
L 756.351163 156.067549 
L 756.926384 173.73691 
L 758.076825 228.669003 
L 758.652046 231.843328 
L 759.227266 210.601101 
L 759.802487 178.617301 
L 760.377708 154.967225 
L 760.952928 151.588664 
L 761.528149 169.534588 
L 762.67859 229.737388 
L 763.253811 239.80556 
L 763.829032 224.120384 
L 764.979473 159.678655 
L 765.554694 143.770198 
L 766.129914 149.768401 
L 766.705135 175.037839 
L 767.855576 240.067154 
L 768.430797 249.361735 
L 769.006018 231.904466 
L 770.156459 157.311713 
L 770.73168 133.27147 
L 771.3069 132.158918 
L 771.882121 153.889207 
L 773.607783 264.515572 
L 774.183004 270.388389 
L 774.758224 245.266571 
L 776.483886 107.685971 
L 777.059107 98.113715 
L 777.634328 117.994099 
L 778.209548 160.115657 
L 779.35999 261.787957 
L 779.93521 297.146539 
L 780.510431 307.8 
L 781.085652 285.657905 
L 781.660872 232.369999 
L 782.811314 97.958834 
L 783.386534 58.836118 
L 783.961755 55.8 
L 784.536976 87.298703 
L 786.262638 254.036408 
L 786.837858 285.78759 
L 787.413079 294.126725 
L 787.9883 281.702133 
L 789.713962 202.998579 
L 790.289182 189.997837 
L 791.439624 178.322656 
L 792.014844 165.986028 
L 793.165286 134.843033 
L 793.740506 127.832988 
L 794.315727 131.219923 
L 794.890948 144.126202 
L 796.61661 199.540925 
L 797.19183 210.995789 
L 797.767051 216.211064 
L 798.342272 215.466448 
L 798.917492 210.056645 
L 800.643154 187.463645 
L 801.218375 184.252756 
L 801.793596 184.494045 
L 802.368816 187.528451 
L 803.519258 196.530092 
L 804.094478 199.796575 
L 804.669699 201.197954 
L 805.24492 200.689218 
L 805.82014 198.720373 
L 806.970582 193.478249 
L 807.545802 191.645707 
L 808.121023 190.930059 
L 808.696244 191.354263 
L 809.271464 192.650383 
L 810.421906 196.046521 
L 810.997126 197.22293 
L 811.572347 197.687818 
L 812.147568 197.433576 
L 812.722788 196.638731 
L 813.87323 194.606867 
L 814.44845 193.930139 
L 815.023671 193.680625 
L 815.598892 193.85238 
L 816.174112 194.357686 
L 817.324554 195.640925 
L 817.899774 196.077431 
L 818.474995 196.258094 
L 819.050216 196.182187 
L 820.200657 195.526143 
L 821.351099 194.905128 
L 821.926319 194.806048 
L 822.50154 194.865948 
L 825.377643 195.709918 
L 826.528085 195.531871 
L 828.253747 195.105621 
L 829.404188 195.088206 
L 832.280291 195.328776 
L 837.457277 195.005267 
L 839.75816 195.012455 
L 844.359925 194.881095 
L 847.236029 194.855855 
L 850.687353 194.742792 
L 854.713897 194.727311 
L 863.917428 194.496004 
L 866.793531 194.651515 
L 872.545738 195.025809 
L 875.997062 195.607867 
L 878.873165 196.23558 
L 880.023607 196.744488 
L 881.749269 197.764162 
L 882.89971 198.651417 
L 884.050151 199.901287 
L 884.625372 200.852251 
L 885.200593 202.177412 
L 885.775813 204.039915 
L 886.351034 206.672526 
L 886.926255 210.393679 
L 887.501475 215.561748 
L 888.651917 228.511973 
L 889.227137 229.196266 
L 889.802358 216.498891 
L 890.377579 187.536343 
L 891.52802 114.395517 
L 892.103241 97.334862 
L 892.678461 104.987035 
L 893.253682 135.650268 
L 894.979344 268.477939 
L 895.554565 291.586375 
L 896.129785 289.838217 
L 896.705006 258.50855 
L 898.430668 91.818421 
L 899.005889 74.75406 
L 899.581109 93.814833 
L 900.15633 142.110819 
L 901.306771 263.103855 
L 901.881992 296.841964 
L 902.457213 291.65974 
L 903.032433 248.40903 
L 904.182875 127.864112 
L 904.758095 98.147804 
L 905.333316 104.723218 
L 905.908537 143.305109 
L 907.058978 245.325114 
L 907.634199 262.271794 
L 908.209419 243.175006 
L 909.359861 162.883808 
L 909.935082 143.359503 
L 910.510302 150.347909 
L 911.660744 210.593023 
L 912.235964 225.537511 
L 912.811185 213.821891 
L 913.961626 161.639422 
L 914.536847 156.497882 
L 915.112068 173.153845 
L 916.262509 226.57151 
L 916.83773 227.01785 
L 917.41295 202.858 
L 917.988171 171.354406 
L 918.563392 153.193872 
L 919.138612 158.278795 
L 920.289054 210.684544 
L 920.864274 222.633746 
L 921.439495 210.824678 
L 922.014716 186.377839 
L 922.589936 168.30443 
L 923.165157 168.155478 
L 923.740378 184.589642 
L 924.315598 204.734657 
L 924.890819 212.227503 
L 925.46604 201.345277 
L 926.04126 182.235001 
L 926.616481 170.549913 
L 927.191702 174.645744 
L 928.342143 206.862015 
L 928.917364 208.526211 
L 929.492584 195.474602 
L 930.067805 179.75201 
L 930.643026 174.137156 
L 931.218246 182.594489 
L 931.793467 197.860819 
L 932.368688 206.058707 
L 932.943908 199.700534 
L 933.519129 185.42108 
L 934.09435 176.349513 
L 934.66957 180.184788 
L 935.244791 193.84242 
L 935.820012 204.762225 
L 936.395232 202.310358 
L 937.545674 178.542824 
L 938.120894 179.408381 
L 939.271336 202.78671 
L 939.846556 202.026532 
L 940.996998 179.541623 
L 941.572218 180.134693 
L 942.72266 202.920546 
L 943.29788 201.670009 
L 944.448322 179.698431 
L 945.023542 181.223753 
L 946.173984 202.613377 
L 946.749204 199.722677 
L 947.324425 188.173824 
L 947.899646 180.436822 
L 948.474866 183.931581 
L 949.050087 195.015916 
L 949.625308 201.551143 
L 950.200528 196.565507 
L 950.775749 186.584246 
L 951.35097 182.30392 
L 951.92619 187.6935 
L 952.501411 196.785957 
L 953.076632 199.162007 
L 954.227073 185.376765 
L 954.802294 185.01664 
L 955.952735 197.886726 
L 956.527956 196.174117 
L 957.103176 189.209832 
L 957.678397 185.214339 
L 958.253618 188.386249 
L 958.828838 195.181157 
L 959.404059 197.429989 
L 960.5545 186.600623 
L 961.129721 186.460511 
L 962.280162 197.276679 
L 962.855383 195.152567 
L 963.430604 188.66854 
L 964.005824 185.679784 
L 964.581045 189.748656 
L 965.156266 196.445871 
L 965.731486 197.329591 
L 966.881928 185.124464 
L 967.457148 186.947209 
L 968.032369 194.892582 
L 968.60759 199.42194 
L 969.18281 194.18264 
L 969.758031 185.47574 
L 970.333252 183.885265 
L 971.483693 200.427253 
L 972.058914 198.335504 
L 972.634134 187.838021 
L 973.209355 181.833644 
L 973.784576 187.6245 
L 974.359796 198.973622 
L 974.935017 201.662005 
L 976.085458 181.958512 
L 976.660679 183.733941 
L 977.2359 195.543239 
L 977.81112 203.047785 
L 978.386341 196.399777 
L 978.961562 184.193768 
L 979.536782 181.313124 
L 980.687224 202.408103 
L 981.262444 200.27126 
L 981.837665 187.671987 
L 982.412886 180.335297 
L 982.988106 186.880951 
L 983.563327 199.850398 
L 984.138548 202.966862 
L 985.288989 181.355735 
L 985.86421 183.188374 
L 986.43943 195.714201 
L 987.014651 203.6951 
L 987.589872 196.950665 
L 988.165092 184.399264 
L 988.740313 181.171063 
L 989.890754 202.195716 
L 990.465975 200.61815 
L 991.041196 188.377971 
L 991.616416 180.669218 
L 992.191637 186.452352 
L 992.766858 199.355549 
L 993.342078 203.442844 
L 994.49252 181.554784 
L 995.06774 182.131105 
L 995.642961 194.894049 
L 996.218182 204.945192 
L 996.218182 204.945192 
" style="fill:none;stroke:#4c72b0;stroke-linecap:round;stroke-width:1.4;"/>
   </g>
   <g id="patch_3">
    <path d="M 144 320.4 
L 144 43.2 
" style="fill:none;"/>
   </g>
   <g id="patch_4">
    <path d="M 1036.8 320.4 
L 1036.8 43.2 
" style="fill:none;"/>
   </g>
   <g id="patch_5">
    <path d="M 144 320.4 
L 1036.8 320.4 
" style="fill:none;"/>
   </g>
   <g id="patch_6">
    <path d="M 144 43.2 
L 1036.8 43.2 
" style="fill:none;"/>
   </g>
  </g>
 </g>
 <defs>
  <clipPath id="p057481bf75">
   <rect height="277.2" width="892.8" x="144" y="43.2"/>
  </clipPath>
 </defs>
</svg>
