<?xml version="1.0" encoding="utf-8" standalone="no"?>
<!DOCTYPE svg PUBLIC "-//W3C//DTD SVG 1.1//EN"
  "http://www.w3.org/Graphics/SVG/1.1/DTD/svg11.dtd">
<!-- Created with matplotlib (http://matplotlib.org/) -->
<svg height="360pt" version="1.1" viewBox="0 0 1152 360" width="1152pt" xmlns="http://www.w3.org/2000/svg" xmlns:xlink="http://www.w3.org/1999/xlink">
 <defs>
  <style type="text/css">
*{stroke-linecap:butt;stroke-linejoin:round;}
  </style>
 </defs>
 <g id="figure_1">
  <g id="patch_1">
   <path d="M 0 360 
L 1152 360 
L 1152 0 
L 0 0 
z
" style="fill:#ffffff;"/>
  </g>
  <g id="axes_1">
   <g id="patch_2">
    <path d="M 144 320.4 
L 1036.8 320.4 
L 1036.8 43.2 
L 144 43.2 
z
" style="fill:#eaeaf2;"/>
   </g>
   <g id="matplotlib.axis_1">
    <g id="xtick_1">
     <g id="line2d_1">
      <path clip-path="url(#p6cb04efd8b)" d="M 184.581818 320.4 
L 184.581818 43.2 
" style="fill:none;stroke:#ffffff;stroke-linecap:round;stroke-width:0.8;"/>
     </g>
     <g id="line2d_2"/>
     <g id="text_1">
      <!-- 0.000 -->
      <defs>
       <path d="M 51.703125 34.421875 
Q 51.703125 24.515625 49.828125 17.75 
Q 47.953125 10.984375 44.703125 6.8125 
Q 41.453125 2.640625 37.0625 0.828125 
Q 32.671875 -0.984375 27.6875 -0.984375 
Q 22.65625 -0.984375 18.3125 0.828125 
Q 13.96875 2.640625 10.765625 6.78125 
Q 7.5625 10.9375 5.734375 17.703125 
Q 3.90625 24.46875 3.90625 34.421875 
Q 3.90625 44.828125 5.734375 51.640625 
Q 7.5625 58.453125 10.78125 62.5 
Q 14.015625 66.546875 18.40625 68.1875 
Q 22.796875 69.828125 27.984375 69.828125 
Q 32.90625 69.828125 37.21875 68.1875 
Q 41.546875 66.546875 44.765625 62.5 
Q 48 58.453125 49.84375 51.640625 
Q 51.703125 44.828125 51.703125 34.421875 
M 42.78125 34.421875 
Q 42.78125 42.625 41.796875 48.0625 
Q 40.828125 53.515625 38.921875 56.765625 
Q 37.015625 60.015625 34.25 61.359375 
Q 31.5 62.703125 27.984375 62.703125 
Q 24.265625 62.703125 21.4375 61.328125 
Q 18.609375 59.96875 16.671875 56.71875 
Q 14.75 53.46875 13.765625 48.015625 
Q 12.796875 42.578125 12.796875 34.421875 
Q 12.796875 26.515625 13.796875 21.09375 
Q 14.796875 15.671875 16.71875 12.375 
Q 18.65625 9.078125 21.4375 7.640625 
Q 24.21875 6.203125 27.78125 6.203125 
Q 31.25 6.203125 34.03125 7.640625 
Q 36.8125 9.078125 38.734375 12.375 
Q 40.671875 15.671875 41.71875 21.09375 
Q 42.78125 26.515625 42.78125 34.421875 
" id="LiberationSans-30"/>
       <path d="M 9.125 0 
L 9.125 10.6875 
L 18.65625 10.6875 
L 18.65625 0 
z
" id="LiberationSans-2e"/>
      </defs>
      <g style="fill:#262626;" transform="translate(174.573068 331.7975)scale(0.08 -0.08)">
       <use xlink:href="#LiberationSans-30"/>
       <use x="55.615234" xlink:href="#LiberationSans-2e"/>
       <use x="83.398438" xlink:href="#LiberationSans-30"/>
       <use x="139.013672" xlink:href="#LiberationSans-30"/>
       <use x="194.628906" xlink:href="#LiberationSans-30"/>
      </g>
     </g>
    </g>
    <g id="xtick_2">
     <g id="line2d_3">
      <path clip-path="url(#p6cb04efd8b)" d="M 311.238448 320.4 
L 311.238448 43.2 
" style="fill:none;stroke:#ffffff;stroke-linecap:round;stroke-width:0.8;"/>
     </g>
     <g id="line2d_4"/>
     <g id="text_2">
      <!-- 0.005 -->
      <defs>
       <path d="M 51.421875 22.40625 
Q 51.421875 17.234375 49.859375 12.9375 
Q 48.296875 8.640625 45.21875 5.53125 
Q 42.140625 2.4375 37.578125 0.71875 
Q 33.015625 -0.984375 27 -0.984375 
Q 21.578125 -0.984375 17.546875 0.28125 
Q 13.53125 1.5625 10.734375 3.78125 
Q 7.953125 6 6.3125 8.984375 
Q 4.6875 11.96875 4 15.375 
L 12.890625 16.40625 
Q 13.421875 14.453125 14.390625 12.625 
Q 15.375 10.796875 17.0625 9.34375 
Q 18.75 7.90625 21.21875 7.046875 
Q 23.6875 6.203125 27.203125 6.203125 
Q 30.609375 6.203125 33.390625 7.25 
Q 36.1875 8.296875 38.15625 10.34375 
Q 40.140625 12.40625 41.203125 15.375 
Q 42.28125 18.359375 42.28125 22.21875 
Q 42.28125 25.390625 41.25 28.046875 
Q 40.234375 30.71875 38.328125 32.640625 
Q 36.421875 34.578125 33.65625 35.640625 
Q 30.90625 36.71875 27.390625 36.71875 
Q 25.203125 36.71875 23.34375 36.328125 
Q 21.484375 35.9375 19.890625 35.25 
Q 18.3125 34.578125 17.015625 33.671875 
Q 15.71875 32.765625 14.59375 31.78125 
L 6 31.78125 
L 8.296875 68.796875 
L 47.40625 68.796875 
L 47.40625 61.328125 
L 16.3125 61.328125 
L 14.984375 39.5 
Q 17.328125 41.3125 20.84375 42.59375 
Q 24.359375 43.890625 29.203125 43.890625 
Q 34.328125 43.890625 38.421875 42.328125 
Q 42.53125 40.765625 45.40625 37.90625 
Q 48.296875 35.0625 49.859375 31.109375 
Q 51.421875 27.15625 51.421875 22.40625 
" id="LiberationSans-35"/>
      </defs>
      <g style="fill:#262626;" transform="translate(301.229698 331.7975)scale(0.08 -0.08)">
       <use xlink:href="#LiberationSans-30"/>
       <use x="55.615234" xlink:href="#LiberationSans-2e"/>
       <use x="83.398438" xlink:href="#LiberationSans-30"/>
       <use x="139.013672" xlink:href="#LiberationSans-30"/>
       <use x="194.628906" xlink:href="#LiberationSans-35"/>
      </g>
     </g>
    </g>
    <g id="xtick_3">
     <g id="line2d_5">
      <path clip-path="url(#p6cb04efd8b)" d="M 437.895078 320.4 
L 437.895078 43.2 
" style="fill:none;stroke:#ffffff;stroke-linecap:round;stroke-width:0.8;"/>
     </g>
     <g id="line2d_6"/>
     <g id="text_3">
      <!-- 0.010 -->
      <defs>
       <path d="M 7.625 0 
L 7.625 7.46875 
L 25.140625 7.46875 
L 25.140625 60.40625 
L 9.625 49.3125 
L 9.625 57.625 
L 25.875 68.796875 
L 33.984375 68.796875 
L 33.984375 7.46875 
L 50.734375 7.46875 
L 50.734375 0 
z
" id="LiberationSans-31"/>
      </defs>
      <g style="fill:#262626;" transform="translate(427.886328 331.7975)scale(0.08 -0.08)">
       <use xlink:href="#LiberationSans-30"/>
       <use x="55.615234" xlink:href="#LiberationSans-2e"/>
       <use x="83.398438" xlink:href="#LiberationSans-30"/>
       <use x="139.013672" xlink:href="#LiberationSans-31"/>
       <use x="194.628906" xlink:href="#LiberationSans-30"/>
      </g>
     </g>
    </g>
    <g id="xtick_4">
     <g id="line2d_7">
      <path clip-path="url(#p6cb04efd8b)" d="M 564.551708 320.4 
L 564.551708 43.2 
" style="fill:none;stroke:#ffffff;stroke-linecap:round;stroke-width:0.8;"/>
     </g>
     <g id="line2d_8"/>
     <g id="text_4">
      <!-- 0.015 -->
      <g style="fill:#262626;" transform="translate(554.542958 331.7975)scale(0.08 -0.08)">
       <use xlink:href="#LiberationSans-30"/>
       <use x="55.615234" xlink:href="#LiberationSans-2e"/>
       <use x="83.398438" xlink:href="#LiberationSans-30"/>
       <use x="139.013672" xlink:href="#LiberationSans-31"/>
       <use x="194.628906" xlink:href="#LiberationSans-35"/>
      </g>
     </g>
    </g>
    <g id="xtick_5">
     <g id="line2d_9">
      <path clip-path="url(#p6cb04efd8b)" d="M 691.208338 320.4 
L 691.208338 43.2 
" style="fill:none;stroke:#ffffff;stroke-linecap:round;stroke-width:0.8;"/>
     </g>
     <g id="line2d_10"/>
     <g id="text_5">
      <!-- 0.020 -->
      <defs>
       <path d="M 5.03125 0 
L 5.03125 6.203125 
Q 7.515625 11.921875 11.109375 16.28125 
Q 14.703125 20.65625 18.65625 24.1875 
Q 22.609375 27.734375 26.484375 30.765625 
Q 30.375 33.796875 33.5 36.8125 
Q 36.625 39.84375 38.546875 43.15625 
Q 40.484375 46.484375 40.484375 50.6875 
Q 40.484375 53.609375 39.59375 55.828125 
Q 38.71875 58.0625 37.0625 59.5625 
Q 35.40625 61.078125 33.078125 61.828125 
Q 30.765625 62.59375 27.9375 62.59375 
Q 25.296875 62.59375 22.96875 61.859375 
Q 20.65625 61.140625 18.84375 59.671875 
Q 17.046875 58.203125 15.890625 56.03125 
Q 14.75 53.859375 14.40625 50.984375 
L 5.421875 51.8125 
Q 5.859375 55.515625 7.46875 58.78125 
Q 9.078125 62.0625 11.90625 64.53125 
Q 14.75 67 18.71875 68.40625 
Q 22.703125 69.828125 27.9375 69.828125 
Q 33.0625 69.828125 37.0625 68.609375 
Q 41.0625 67.390625 43.8125 64.984375 
Q 46.578125 62.59375 48.046875 59.078125 
Q 49.515625 55.5625 49.515625 50.984375 
Q 49.515625 47.515625 48.265625 44.390625 
Q 47.015625 41.265625 44.9375 38.421875 
Q 42.875 35.59375 40.140625 32.953125 
Q 37.40625 30.328125 34.421875 27.8125 
Q 31.453125 25.296875 28.421875 22.828125 
Q 25.390625 20.359375 22.71875 17.859375 
Q 20.0625 15.375 17.96875 12.8125 
Q 15.875 10.25 14.703125 7.46875 
L 50.59375 7.46875 
L 50.59375 0 
z
" id="LiberationSans-32"/>
      </defs>
      <g style="fill:#262626;" transform="translate(681.199588 331.7975)scale(0.08 -0.08)">
       <use xlink:href="#LiberationSans-30"/>
       <use x="55.615234" xlink:href="#LiberationSans-2e"/>
       <use x="83.398438" xlink:href="#LiberationSans-30"/>
       <use x="139.013672" xlink:href="#LiberationSans-32"/>
       <use x="194.628906" xlink:href="#LiberationSans-30"/>
      </g>
     </g>
    </g>
    <g id="xtick_6">
     <g id="line2d_11">
      <path clip-path="url(#p6cb04efd8b)" d="M 817.864968 320.4 
L 817.864968 43.2 
" style="fill:none;stroke:#ffffff;stroke-linecap:round;stroke-width:0.8;"/>
     </g>
     <g id="line2d_12"/>
     <g id="text_6">
      <!-- 0.025 -->
      <g style="fill:#262626;" transform="translate(807.856218 331.7975)scale(0.08 -0.08)">
       <use xlink:href="#LiberationSans-30"/>
       <use x="55.615234" xlink:href="#LiberationSans-2e"/>
       <use x="83.398438" xlink:href="#LiberationSans-30"/>
       <use x="139.013672" xlink:href="#LiberationSans-32"/>
       <use x="194.628906" xlink:href="#LiberationSans-35"/>
      </g>
     </g>
    </g>
    <g id="xtick_7">
     <g id="line2d_13">
      <path clip-path="url(#p6cb04efd8b)" d="M 944.521598 320.4 
L 944.521598 43.2 
" style="fill:none;stroke:#ffffff;stroke-linecap:round;stroke-width:0.8;"/>
     </g>
     <g id="line2d_14"/>
     <g id="text_7">
      <!-- 0.030 -->
      <defs>
       <path d="M 51.21875 19 
Q 51.21875 14.265625 49.671875 10.546875 
Q 48.140625 6.84375 45.1875 4.265625 
Q 42.234375 1.703125 37.859375 0.359375 
Q 33.5 -0.984375 27.875 -0.984375 
Q 21.484375 -0.984375 17.109375 0.609375 
Q 12.75 2.203125 9.90625 4.8125 
Q 7.078125 7.421875 5.65625 10.765625 
Q 4.25 14.109375 3.8125 17.671875 
L 12.890625 18.5 
Q 13.28125 15.765625 14.328125 13.515625 
Q 15.375 11.28125 17.1875 9.671875 
Q 19 8.0625 21.625 7.171875 
Q 24.265625 6.296875 27.875 6.296875 
Q 34.515625 6.296875 38.296875 9.5625 
Q 42.09375 12.84375 42.09375 19.28125 
Q 42.09375 23.09375 40.40625 25.40625 
Q 38.71875 27.734375 36.203125 29.03125 
Q 33.6875 30.328125 30.734375 30.765625 
Q 27.78125 31.203125 25.296875 31.203125 
L 20.3125 31.203125 
L 20.3125 38.8125 
L 25.09375 38.8125 
Q 27.59375 38.8125 30.265625 39.328125 
Q 32.953125 39.84375 35.171875 41.1875 
Q 37.40625 42.53125 38.84375 44.828125 
Q 40.28125 47.125 40.28125 50.6875 
Q 40.28125 56.203125 37.03125 59.390625 
Q 33.796875 62.59375 27.390625 62.59375 
Q 21.578125 62.59375 17.984375 59.609375 
Q 14.40625 56.640625 13.8125 51.21875 
L 4.984375 51.90625 
Q 5.515625 56.453125 7.46875 59.8125 
Q 9.421875 63.1875 12.421875 65.40625 
Q 15.4375 67.625 19.28125 68.71875 
Q 23.140625 69.828125 27.484375 69.828125 
Q 33.25 69.828125 37.390625 68.375 
Q 41.546875 66.9375 44.1875 64.46875 
Q 46.828125 62.015625 48.0625 58.6875 
Q 49.3125 55.375 49.3125 51.609375 
Q 49.3125 48.578125 48.484375 45.9375 
Q 47.65625 43.3125 45.890625 41.203125 
Q 44.140625 39.109375 41.421875 37.59375 
Q 38.71875 36.078125 34.90625 35.296875 
L 34.90625 35.109375 
Q 39.0625 34.671875 42.140625 33.21875 
Q 45.21875 31.78125 47.21875 29.625 
Q 49.21875 27.484375 50.21875 24.75 
Q 51.21875 22.015625 51.21875 19 
" id="LiberationSans-33"/>
      </defs>
      <g style="fill:#262626;" transform="translate(934.512848 331.7975)scale(0.08 -0.08)">
       <use xlink:href="#LiberationSans-30"/>
       <use x="55.615234" xlink:href="#LiberationSans-2e"/>
       <use x="83.398438" xlink:href="#LiberationSans-30"/>
       <use x="139.013672" xlink:href="#LiberationSans-33"/>
       <use x="194.628906" xlink:href="#LiberationSans-30"/>
      </g>
     </g>
    </g>
   </g>
   <g id="matplotlib.axis_2">
    <g id="ytick_1">
     <g id="line2d_15">
      <path clip-path="url(#p6cb04efd8b)" d="M 144 271.904921 
L 1036.8 271.904921 
" style="fill:none;stroke:#ffffff;stroke-linecap:round;stroke-width:0.8;"/>
     </g>
     <g id="line2d_16"/>
     <g id="text_8">
      <!-- −10 -->
      <defs>
       <path d="M 4.9375 29.6875 
L 4.9375 36.8125 
L 53.515625 36.8125 
L 53.515625 29.6875 
z
" id="LiberationSans-2212"/>
      </defs>
      <g style="fill:#262626;" transform="translate(124.83 274.803671)scale(0.08 -0.08)">
       <use xlink:href="#LiberationSans-2212"/>
       <use x="58.398438" xlink:href="#LiberationSans-31"/>
       <use x="114.013672" xlink:href="#LiberationSans-30"/>
      </g>
     </g>
    </g>
    <g id="ytick_2">
     <g id="line2d_17">
      <path clip-path="url(#p6cb04efd8b)" d="M 144 216.785574 
L 1036.8 216.785574 
" style="fill:none;stroke:#ffffff;stroke-linecap:round;stroke-width:0.8;"/>
     </g>
     <g id="line2d_18"/>
     <g id="text_9">
      <!-- −5 -->
      <g style="fill:#262626;" transform="translate(129.27875 219.684324)scale(0.08 -0.08)">
       <use xlink:href="#LiberationSans-2212"/>
       <use x="58.398438" xlink:href="#LiberationSans-35"/>
      </g>
     </g>
    </g>
    <g id="ytick_3">
     <g id="line2d_19">
      <path clip-path="url(#p6cb04efd8b)" d="M 144 161.666227 
L 1036.8 161.666227 
" style="fill:none;stroke:#ffffff;stroke-linecap:round;stroke-width:0.8;"/>
     </g>
     <g id="line2d_20"/>
     <g id="text_10">
      <!-- 0 -->
      <g style="fill:#262626;" transform="translate(133.95125 164.564977)scale(0.08 -0.08)">
       <use xlink:href="#LiberationSans-30"/>
      </g>
     </g>
    </g>
    <g id="ytick_4">
     <g id="line2d_21">
      <path clip-path="url(#p6cb04efd8b)" d="M 144 106.546879 
L 1036.8 106.546879 
" style="fill:none;stroke:#ffffff;stroke-linecap:round;stroke-width:0.8;"/>
     </g>
     <g id="line2d_22"/>
     <g id="text_11">
      <!-- 5 -->
      <g style="fill:#262626;" transform="translate(133.95125 109.445629)scale(0.08 -0.08)">
       <use xlink:href="#LiberationSans-35"/>
      </g>
     </g>
    </g>
    <g id="ytick_5">
     <g id="line2d_23">
      <path clip-path="url(#p6cb04efd8b)" d="M 144 51.427532 
L 1036.8 51.427532 
" style="fill:none;stroke:#ffffff;stroke-linecap:round;stroke-width:0.8;"/>
     </g>
     <g id="line2d_24"/>
     <g id="text_12">
      <!-- 10 -->
      <g style="fill:#262626;" transform="translate(129.5025 54.326282)scale(0.08 -0.08)">
       <use xlink:href="#LiberationSans-31"/>
       <use x="55.615234" xlink:href="#LiberationSans-30"/>
      </g>
     </g>
    </g>
   </g>
   <g id="line2d_25">
    <path clip-path="url(#p6cb04efd8b)" d="M 184.581818 140.204333 
L 185.156225 142.074757 
L 185.730631 143.512994 
L 186.305038 144.591468 
L 187.453851 146.055031 
L 188.602664 147.356548 
L 189.17707 148.245764 
L 189.751477 149.443301 
L 190.325883 151.044605 
L 190.90029 153.126003 
L 191.474696 155.741037 
L 192.623509 162.659267 
L 193.772322 171.715855 
L 195.495541 188.236361 
L 198.367574 217.291942 
L 200.090793 232.10874 
L 201.814013 244.224373 
L 206.983671 276.938644 
L 209.855704 296.822606 
L 211.004517 302.977134 
L 211.578923 305.246713 
L 212.153329 306.85252 
L 212.727736 307.720914 
L 213.302142 307.8 
L 213.876549 307.062971 
L 214.450955 305.510171 
L 215.025362 303.169757 
L 215.599768 300.096901 
L 216.748581 292.095072 
L 218.471801 277.186928 
L 220.769427 257.256322 
L 221.91824 249.113991 
L 223.067053 242.664836 
L 224.215866 237.756228 
L 225.364679 233.88846 
L 227.087898 228.471937 
L 228.236711 224.077054 
L 229.385524 218.465716 
L 230.534337 211.480531 
L 232.257556 198.911685 
L 235.129589 176.944486 
L 236.278402 169.438528 
L 237.427215 163.061845 
L 239.150434 155.147219 
L 240.873654 147.562757 
L 242.022467 141.543457 
L 243.17128 134.091588 
L 244.320093 124.962853 
L 246.043312 108.564285 
L 248.915345 80.151166 
L 250.064157 71.331477 
L 250.638564 67.928519 
L 251.21297 65.299205 
L 251.787377 63.48854 
L 252.361783 62.513745 
L 252.93619 62.363966 
L 253.510596 63.001432 
L 254.085003 64.363994 
L 254.659409 66.368889 
L 255.808222 71.90092 
L 257.531442 82.340168 
L 259.829068 96.306694 
L 261.552287 105.334003 
L 263.849913 116.808011 
L 264.998726 123.431303 
L 266.147539 131.219055 
L 267.296352 140.305126 
L 269.019572 155.860902 
L 271.317197 177.044697 
L 272.46601 186.159202 
L 273.614823 193.511284 
L 274.763636 198.90075 
L 275.912449 202.522918 
L 277.061262 204.945177 
L 278.784482 208.183084 
L 279.358888 209.620134 
L 279.933295 211.411623 
L 280.507701 213.640046 
L 281.656514 219.624792 
L 282.805327 227.745244 
L 283.95414 237.737806 
L 287.974986 276.24036 
L 289.123798 284.527057 
L 290.272611 290.483437 
L 290.847018 292.555982 
L 291.421424 294.054417 
L 291.995831 295.026074 
L 292.570237 295.533772 
L 293.144644 295.651013 
L 293.71905 295.456662 
L 294.293457 295.029434 
L 295.44227 293.75864 
L 298.314302 289.915245 
L 299.463115 287.922423 
L 300.037522 286.619448 
L 300.611928 285.010419 
L 301.186335 283.017691 
L 301.760741 280.569131 
L 302.909554 274.075079 
L 304.058367 265.249337 
L 305.20718 254.165759 
L 306.9304 234.402924 
L 309.802432 200.535506 
L 310.951245 189.419798 
L 312.100058 180.629489 
L 313.248871 174.248014 
L 314.397684 169.929585 
L 315.546497 166.98087 
L 317.269716 163.174395 
L 318.418529 159.79798 
L 319.567342 155.044596 
L 320.716155 148.706641 
L 321.864968 140.964419 
L 325.885814 111.430388 
L 327.034627 104.946674 
L 328.183439 99.93453 
L 329.332252 96.222603 
L 330.481065 93.377741 
L 332.778691 88.063674 
L 333.927504 84.72566 
L 335.650724 78.696445 
L 337.373943 72.788531 
L 337.94835 71.286694 
L 338.522756 70.203793 
L 339.097163 69.648281 
L 339.671569 69.718467 
L 340.245976 70.496964 
L 340.820382 72.045859 
L 341.394789 74.402897 
L 341.969195 77.578882 
L 343.118008 86.290361 
L 344.266821 97.71787 
L 345.990041 118.08561 
L 348.287666 145.787655 
L 349.436479 157.852158 
L 350.585292 168.090255 
L 351.734105 176.523844 
L 352.882918 183.531377 
L 356.903764 205.757375 
L 358.626983 217.402391 
L 361.499016 237.767886 
L 362.647829 244.550971 
L 363.796642 249.791464 
L 364.371048 251.768341 
L 364.945455 253.324863 
L 365.519861 254.495473 
L 366.094268 255.335574 
L 366.668674 255.918789 
L 368.9663 257.550824 
L 369.540706 258.274395 
L 370.115113 259.297789 
L 370.689519 260.681237 
L 371.263926 262.462685 
L 372.412739 267.244135 
L 373.561552 273.425351 
L 376.433584 290.305543 
L 377.007991 292.9523 
L 377.582397 295.069909 
L 378.156804 296.558999 
L 378.73121 297.341097 
L 379.305617 297.362182 
L 379.880023 296.594944 
L 380.45443 295.039625 
L 381.028836 292.723407 
L 381.603243 289.698408 
L 382.752056 281.834383 
L 384.475275 267.015603 
L 387.921714 236.074256 
L 390.21934 218.106377 
L 392.516966 199.915977 
L 394.240185 184.101385 
L 396.537811 159.94079 
L 398.835437 136.152308 
L 399.98425 126.369277 
L 401.133063 118.88435 
L 401.70747 116.11033 
L 402.281876 113.988962 
L 402.856283 112.49232 
L 403.430689 111.566793 
L 404.005096 111.135455 
L 404.579502 111.101706 
L 405.153909 111.354007 
L 406.877128 112.608087 
L 407.451534 112.794201 
L 408.025941 112.691135 
L 408.600347 112.221604 
L 409.174754 111.331931 
L 409.74916 109.994629 
L 410.323567 108.209574 
L 411.47238 103.429415 
L 413.195599 94.32786 
L 414.918819 85.395551 
L 416.067632 80.960677 
L 416.642038 79.447173 
L 417.216445 78.46795 
L 417.790851 78.04293 
L 418.365258 78.168607 
L 418.939664 78.819338 
L 419.514071 79.949911 
L 420.088477 81.499221 
L 421.23729 85.558074 
L 423.534916 95.398909 
L 428.130168 115.449058 
L 429.278981 122.271109 
L 430.427794 130.947724 
L 431.576607 141.81242 
L 432.72542 154.847037 
L 434.448639 177.457806 
L 437.320672 215.803363 
L 438.469485 228.430426 
L 439.618298 238.405102 
L 440.767111 245.513602 
L 441.341517 248.047275 
L 441.915924 249.980457 
L 442.49033 251.39904 
L 443.064737 252.403931 
L 443.639143 253.10537 
L 445.936769 255.069276 
L 446.511175 255.8151 
L 447.085582 256.789577 
L 448.234395 259.500073 
L 449.383208 263.119197 
L 452.25524 273.013702 
L 452.829647 274.507498 
L 453.404053 275.675378 
L 453.97846 276.473563 
L 454.552866 276.87771 
L 455.127273 276.884428 
L 455.701679 276.511452 
L 456.276086 275.79649 
L 457.424899 273.5755 
L 460.296931 267.005507 
L 460.871338 266.094211 
L 461.445744 265.421016 
L 462.020151 264.990098 
L 462.594557 264.781781 
L 463.168964 264.752693 
L 464.892183 264.993365 
L 465.466589 264.854616 
L 466.040996 264.419967 
L 466.615402 263.576366 
L 467.189809 262.218501 
L 467.764215 260.254618 
L 468.338622 257.611727 
L 468.913028 254.239883 
L 470.061841 245.242141 
L 471.210654 233.407075 
L 472.933874 211.672736 
L 476.380313 165.934664 
L 477.529126 153.330098 
L 478.677939 142.803703 
L 479.826752 134.240819 
L 480.975565 127.21332 
L 482.698784 118.230669 
L 485.570816 103.343266 
L 487.868442 91.148844 
L 489.017255 86.143887 
L 489.591662 84.187565 
L 490.166068 82.686841 
L 490.740475 81.693054 
L 491.314881 81.238836 
L 491.889288 81.335216 
L 492.463694 81.969975 
L 493.038101 83.107341 
L 493.612507 84.689083 
L 494.76132 88.856244 
L 497.058946 98.262082 
L 498.207759 101.808399 
L 498.782166 103.009613 
L 499.356572 103.777207 
L 499.930979 104.104859 
L 500.505385 104.013682 
L 501.079792 103.551443 
L 501.654198 102.790357 
L 503.951824 98.831675 
L 504.52623 98.21429 
L 505.100637 97.985157 
L 505.675043 98.246511 
L 506.24945 99.082108 
L 506.823856 100.553258 
L 507.398263 102.696096 
L 507.972669 105.520224 
L 509.121482 113.119975 
L 510.270295 122.93611 
L 511.993515 140.244826 
L 514.865547 169.546634 
L 516.588767 184.865363 
L 521.758425 228.104286 
L 526.928083 276.94228 
L 528.076896 283.933867 
L 528.651303 286.358981 
L 529.225709 288.014394 
L 529.800116 288.890739 
L 530.374522 289.006193 
L 530.948929 288.406027 
L 531.523335 287.16074 
L 532.097742 285.362838 
L 533.246555 280.562022 
L 536.118587 267.3381 
L 537.2674 263.748443 
L 537.841807 262.545578 
L 538.416213 261.737277 
L 538.99062 261.291133 
L 539.565026 261.151605 
L 540.139433 261.243732 
L 541.862652 261.972883 
L 542.437058 262.031469 
L 543.011465 261.838926 
L 543.585871 261.316503 
L 544.160278 260.402725 
L 544.734684 259.056462 
L 545.309091 257.258731 
L 546.457904 252.344983 
L 547.606717 245.93596 
L 549.904343 230.834653 
L 551.627562 219.800852 
L 553.350782 210.150808 
L 556.222814 194.779458 
L 557.371627 187.130428 
L 558.52044 177.7425 
L 559.669253 166.356188 
L 561.392472 145.918829 
L 564.838911 102.25272 
L 565.987724 90.581427 
L 567.136537 81.745407 
L 567.710944 78.507994 
L 568.28535 76.064947 
L 568.859757 74.387339 
L 569.434163 73.421111 
L 570.00857 73.090571 
L 570.582976 73.302962 
L 571.157383 73.953835 
L 572.306196 76.130231 
L 574.603822 81.221995 
L 575.752635 83.107372 
L 576.901448 84.423224 
L 578.624667 86.075111 
L 579.199074 86.808845 
L 579.77348 87.756247 
L 580.347887 88.982958 
L 580.922293 90.542604 
L 582.071106 94.792031 
L 583.219919 100.56736 
L 584.368732 107.601169 
L 587.815171 130.101545 
L 588.963984 135.868959 
L 590.112797 140.157403 
L 591.26161 143.125991 
L 594.133642 148.895502 
L 594.708049 150.636247 
L 595.282455 152.825929 
L 595.856862 155.549256 
L 597.005675 162.825891 
L 598.154488 172.66303 
L 599.303301 184.819169 
L 601.02652 205.91865 
L 603.324146 234.332813 
L 604.472959 246.573864 
L 605.621772 256.713031 
L 606.770585 264.615924 
L 607.919398 270.508443 
L 609.068211 274.877814 
L 610.217024 278.319534 
L 613.089056 285.82662 
L 614.812276 289.875527 
L 615.386682 290.892685 
L 615.961089 291.617481 
L 616.535495 291.968732 
L 617.109902 291.869174 
L 617.684308 291.250885 
L 618.258715 290.060259 
L 618.833121 288.262256 
L 619.407528 285.843652 
L 620.55634 279.211775 
L 621.705153 270.539108 
L 624.002779 250.142136 
L 625.725999 235.896785 
L 626.874812 228.39816 
L 628.023625 222.923175 
L 628.598031 220.925012 
L 629.172438 219.355816 
L 630.321251 217.176302 
L 632.04447 214.695846 
L 632.618877 213.614367 
L 633.193283 212.2252 
L 633.76769 210.440672 
L 634.342096 208.193262 
L 635.490909 202.158041 
L 636.639722 194.06852 
L 637.788535 184.256092 
L 642.958193 136.792643 
L 644.681413 124.893397 
L 649.276665 96.456997 
L 651.574291 79.378144 
L 653.29751 67.080493 
L 654.446323 60.672186 
L 655.02073 58.335845 
L 655.595136 56.702207 
L 656.169543 55.841381 
L 656.743949 55.8 
L 657.318356 56.598313 
L 657.892762 58.22864 
L 658.467169 60.655253 
L 659.041575 63.815724 
L 660.190388 71.972635 
L 661.913607 87.012223 
L 664.211233 106.986909 
L 665.360046 115.200279 
L 666.508859 121.834895 
L 667.657672 127.09101 
L 671.678518 143.179481 
L 672.827331 149.557049 
L 673.976144 157.162333 
L 676.27377 174.701238 
L 677.996989 187.582979 
L 679.145802 194.992345 
L 680.294615 201.150678 
L 681.443428 206.167554 
L 684.889867 219.744836 
L 686.03868 226.097214 
L 687.187493 234.193257 
L 688.336306 244.032182 
L 690.633932 266.903874 
L 692.357151 283.251671 
L 693.505964 291.838222 
L 694.080371 295.120234 
L 694.654777 297.634854 
L 695.229184 299.34465 
L 695.80359 300.239885 
L 696.377997 300.338259 
L 696.952403 299.683223 
L 697.526809 298.340978 
L 698.101216 296.39633 
L 699.250029 291.101267 
L 700.973248 281.234222 
L 703.270874 268.03178 
L 707.866126 243.492556 
L 709.014939 235.504829 
L 710.163752 226.129961 
L 711.886972 209.853756 
L 714.759004 181.818575 
L 715.907817 172.522144 
L 717.05663 165.199524 
L 718.205443 159.991013 
L 718.779849 158.11134 
L 719.928662 155.453891 
L 722.226288 151.583017 
L 722.800695 150.235889 
L 723.375101 148.525844 
L 723.949508 146.374986 
L 724.523914 143.728527 
L 725.672727 136.861071 
L 726.82154 128.021716 
L 728.54476 112.258443 
L 730.842386 91.13577 
L 731.991199 82.512511 
L 733.140012 75.970157 
L 733.714418 73.543122 
L 734.288825 71.666289 
L 734.863231 70.303887 
L 735.437638 69.402914 
L 736.012044 68.897486 
L 736.58645 68.713871 
L 737.160857 68.775884 
L 738.30967 69.352183 
L 741.181702 71.460562 
L 742.330515 72.642597 
L 742.904922 73.502379 
L 743.479328 74.64519 
L 744.053735 76.153741 
L 744.628141 78.107989 
L 745.202548 80.579569 
L 745.776954 83.626574 
L 746.925767 91.58507 
L 748.07458 102.028964 
L 749.223393 114.608946 
L 753.818645 169.254039 
L 754.967458 179.391063 
L 756.116271 187.08701 
L 757.265084 192.527062 
L 758.413897 196.278826 
L 761.285929 203.764276 
L 762.434742 208.04931 
L 763.583555 213.727056 
L 764.732368 220.735914 
L 769.32762 251.534017 
L 770.476433 256.974445 
L 771.625246 261.003271 
L 772.774059 263.895004 
L 776.220498 271.104262 
L 777.369311 274.59277 
L 779.09253 281.054176 
L 780.81575 287.38485 
L 781.390156 288.986121 
L 781.964563 290.139835 
L 782.538969 290.736176 
L 783.113376 290.677703 
L 783.687782 289.884712 
L 784.262189 288.299748 
L 784.836595 285.89101 
L 785.411002 282.654458 
L 786.559815 273.823195 
L 787.708628 262.318639 
L 789.431847 241.975274 
L 791.729473 214.491516 
L 792.878286 202.498627 
L 794.027099 192.214707 
L 795.175912 183.560135 
L 796.899131 172.684904 
L 799.771164 155.213565 
L 801.494383 143.014642 
L 804.366416 121.735208 
L 805.515229 114.576605 
L 806.664042 109.027449 
L 807.238448 106.94643 
L 807.812855 105.333346 
L 808.387261 104.163528 
L 808.961668 103.389805 
L 809.536074 102.944575 
L 810.110481 102.743122 
L 811.8337 102.595402 
L 812.408107 102.348898 
L 812.982513 101.842599 
L 813.55692 100.999881 
L 814.131326 99.764365 
L 814.705732 98.103546 
L 815.854545 93.50832 
L 817.003358 87.487348 
L 819.875391 71.157246 
L 820.449797 68.653775 
L 821.024204 66.682721 
L 821.59861 65.33677 
L 822.173017 64.686673 
L 822.747423 64.778186 
L 823.32183 65.630358 
L 823.896236 67.235258 
L 824.470643 69.55913 
L 825.619456 76.115848 
L 826.768269 84.637186 
L 829.065895 104.349307 
L 831.363521 123.461237 
L 835.958772 159.702815 
L 837.681992 176.474938 
L 839.979618 202.026008 
L 841.702837 220.962307 
L 842.85165 231.896357 
L 844.000463 240.60139 
L 844.57487 243.967809 
L 845.149276 246.644702 
L 845.723683 248.641473 
L 846.298089 249.994501 
L 846.872496 250.765612 
L 847.446902 251.039177 
L 848.021309 250.918007 
L 848.595715 250.518233 
L 850.318935 248.883452 
L 850.893341 248.586746 
L 851.467748 248.580729 
L 852.042154 248.93662 
L 852.616561 249.701243 
L 853.190967 250.894965 
L 853.765373 252.511078 
L 854.914186 256.854573 
L 856.637406 265.012458 
L 857.786219 270.369505 
L 858.935032 274.691544 
L 859.509438 276.253301 
L 860.083845 277.338536 
L 860.658251 277.916594 
L 861.232658 277.979761 
L 861.807064 277.542723 
L 862.381471 276.640687 
L 862.955877 275.326307 
L 864.10469 271.733093 
L 865.82791 265.066306 
L 868.125536 256.245096 
L 870.423162 247.780457 
L 871.571975 242.6105 
L 872.720787 235.941482 
L 873.8696 227.209897 
L 875.018413 216.121712 
L 876.167226 202.760321 
L 877.890446 179.625669 
L 880.188072 147.922423 
L 881.336885 134.063444 
L 882.485698 122.635371 
L 883.634511 114.016634 
L 884.208917 110.758906 
L 884.783324 108.147876 
L 885.35773 106.113839 
L 885.932137 104.568963 
L 886.506543 103.412511 
L 887.655356 101.832541 
L 889.378576 99.768877 
L 890.527389 97.713105 
L 891.676202 94.825959 
L 893.399421 89.358775 
L 895.12264 84.062017 
L 895.697047 82.695847 
L 896.271453 81.643682 
L 896.84586 80.954348 
L 897.420266 80.658424 
L 897.994673 80.766073 
L 898.569079 81.266182 
L 899.143486 82.126841 
L 900.292299 84.710243 
L 903.164331 92.530375 
L 903.738738 93.692021 
L 904.313144 94.58716 
L 904.887551 95.197064 
L 905.461957 95.526987 
L 906.036364 95.606816 
L 906.61077 95.490322 
L 908.33399 94.805004 
L 908.908396 94.817901 
L 909.482803 95.145813 
L 910.057209 95.903382 
L 910.631616 97.195365 
L 911.206022 99.110965 
L 911.780428 101.718914 
L 912.354835 105.06358 
L 913.503648 114.004201 
L 914.652461 125.734986 
L 916.37568 147.142107 
L 919.247713 184.908174 
L 920.396526 198.090627 
L 921.545339 209.396759 
L 922.694152 218.820393 
L 923.842965 226.68851 
L 925.566184 236.765821 
L 929.012623 256.457522 
L 930.735843 266.364782 
L 931.884655 271.99531 
L 932.459062 274.272132 
L 933.033468 276.088318 
L 933.607875 277.382312 
L 934.182281 278.109798 
L 934.756688 278.247225 
L 935.331094 277.794187 
L 935.905501 276.77449 
L 936.479907 275.235837 
L 937.62872 270.90042 
L 941.075159 255.450188 
L 941.649566 253.641664 
L 942.223972 252.257538 
L 942.798379 251.324943 
L 943.372785 250.843604 
L 943.947192 250.7857 
L 944.521598 251.097189 
L 945.096005 251.700514 
L 947.393631 254.905849 
L 947.968037 255.308112 
L 948.542444 255.319847 
L 949.11685 254.846034 
L 949.691257 253.811291 
L 950.265663 252.163343 
L 950.840069 249.875198 
L 951.414476 246.945938 
L 952.563289 239.28548 
L 953.712102 229.638236 
L 956.009728 207.279787 
L 958.307354 185.467318 
L 960.030573 171.038686 
L 963.477012 143.378877 
L 965.200232 127.295703 
L 969.795483 80.889301 
L 970.944296 72.47719 
L 971.518703 69.304759 
L 972.093109 66.902408 
L 972.667516 65.299672 
L 973.241922 64.498597 
L 973.816329 64.473276 
L 974.390735 65.170846 
L 974.965142 66.513899 
L 975.539548 68.404165 
L 976.688361 73.358496 
L 978.985987 84.447336 
L 980.1348 88.851525 
L 980.709207 90.53086 
L 981.283613 91.836327 
L 981.85802 92.781518 
L 982.432426 93.404386 
L 983.006833 93.764267 
L 984.155646 94.013885 
L 985.304459 94.257594 
L 985.878865 94.613727 
L 986.453272 95.238423 
L 987.027678 96.198707 
L 987.602085 97.543226 
L 988.176491 99.299775 
L 989.325304 104.050271 
L 990.474117 110.245061 
L 992.771743 124.919789 
L 994.494962 135.59591 
L 996.218182 144.661522 
L 996.218182 144.661522 
" style="fill:none;stroke:#4c72b0;stroke-linecap:round;stroke-width:1.4;"/>
   </g>
   <g id="line2d_26">
    <path clip-path="url(#p6cb04efd8b)" d="M 184.581818 152.410661 
L 187.453851 155.405414 
L 190.90029 159.408878 
L 195.495541 165.178331 
L 202.962826 174.622888 
L 206.409265 178.599398 
L 209.281297 181.563568 
L 211.578923 183.64646 
L 213.876549 185.432747 
L 216.174175 186.890849 
L 217.897394 187.753316 
L 219.620614 188.407969 
L 221.343833 188.848295 
L 223.067053 189.069912 
L 224.790272 189.070617 
L 226.513492 188.850404 
L 228.236711 188.411466 
L 229.959931 187.758172 
L 231.68315 186.897024 
L 233.406369 185.836594 
L 235.703995 184.131209 
L 238.001621 182.120678 
L 240.299247 179.840554 
L 243.17128 176.673098 
L 246.617719 172.523324 
L 252.93619 164.457911 
L 257.531442 158.732335 
L 260.977881 154.793564 
L 263.849913 151.871584 
L 266.147539 149.828663 
L 268.445165 148.087123 
L 270.742791 146.677758 
L 272.46601 145.85395 
L 274.18923 145.239338 
L 275.912449 144.84004 
L 277.635669 144.66003 
L 279.358888 144.701101 
L 281.082108 144.962847 
L 282.805327 145.442662 
L 284.528547 146.135775 
L 286.251766 147.035287 
L 288.549392 148.539949 
L 290.847018 150.368807 
L 293.144644 152.489527 
L 296.016676 155.493304 
L 299.463115 159.504669 
L 304.058367 165.279201 
L 311.525651 174.718094 
L 314.97209 178.686396 
L 317.844123 181.641314 
L 320.141749 183.715403 
L 322.439375 185.49181 
L 324.737001 186.93913 
L 326.46022 187.793032 
L 328.183439 188.438804 
L 329.906659 188.870023 
L 331.629878 189.082396 
L 333.353098 189.073813 
L 335.076317 188.844359 
L 336.799537 188.39632 
L 338.522756 187.734155 
L 340.245976 186.864456 
L 341.969195 185.795878 
L 344.266821 184.080396 
L 346.564447 182.06081 
L 348.862073 179.772829 
L 351.734105 176.59745 
L 355.180544 172.44123 
L 362.073422 163.640272 
L 366.668674 157.971629 
L 369.540706 154.723516 
L 372.412739 151.811017 
L 374.710365 149.777059 
L 377.007991 148.045535 
L 379.305617 146.647063 
L 381.028836 145.831884 
L 382.752056 145.226201 
L 384.475275 144.836041 
L 386.198494 144.66529 
L 387.921714 144.715647 
L 389.644933 144.986612 
L 391.368153 145.475491 
L 393.091372 146.177419 
L 394.814592 147.085412 
L 397.112218 148.600716 
L 399.409844 150.439282 
L 401.70747 152.568606 
L 404.579502 155.581354 
L 408.025941 159.60055 
L 412.621193 165.380059 
L 420.088477 174.813124 
L 423.534916 178.773149 
L 426.406948 181.718761 
L 428.704574 183.784011 
L 431.0022 185.550507 
L 433.299826 186.987019 
L 435.023046 187.832341 
L 436.746265 188.469222 
L 438.469485 188.891325 
L 440.192704 189.094451 
L 441.915924 189.076579 
L 443.639143 188.837889 
L 445.362362 188.380757 
L 447.085582 187.709734 
L 448.808801 186.831498 
L 451.106427 185.353582 
L 453.404053 183.549189 
L 455.701679 181.450225 
L 458.573712 178.469264 
L 461.445744 175.168649 
L 465.466589 170.185508 
L 475.2315 157.894371 
L 478.103532 154.653641 
L 480.975565 151.750676 
L 483.273191 149.725715 
L 485.570816 148.004238 
L 487.868442 146.616683 
L 489.591662 145.810148 
L 491.314881 145.213404 
L 493.038101 144.83239 
L 494.76132 144.6709 
L 496.48454 144.730541 
L 498.207759 145.010722 
L 499.930979 145.508656 
L 501.654198 146.219387 
L 503.377417 147.135846 
L 505.675043 148.661765 
L 507.972669 150.510007 
L 510.270295 152.647897 
L 513.142328 155.669564 
L 516.588767 159.69652 
L 521.184019 165.480905 
L 528.651303 174.907975 
L 532.097742 178.859653 
L 534.969774 181.795909 
L 537.2674 183.852284 
L 539.565026 185.608838 
L 541.862652 187.034517 
L 543.585871 187.871244 
L 545.309091 188.499222 
L 547.03231 188.912203 
L 548.75553 189.106077 
L 550.478749 189.078917 
L 552.201969 188.830995 
L 553.925188 188.364778 
L 555.648408 187.684907 
L 557.371627 186.798151 
L 559.669253 185.309526 
L 561.966879 183.495344 
L 564.264505 181.387684 
L 567.136537 178.39762 
L 570.582976 174.398406 
L 575.178228 168.632055 
L 582.645512 159.185987 
L 586.091951 155.206144 
L 588.963984 152.238057 
L 591.26161 150.151371 
L 593.559236 148.360782 
L 595.856862 146.89795 
L 597.580081 146.03171 
L 599.303301 145.373133 
L 601.02652 144.928775 
L 602.749739 144.70306 
L 604.472959 144.698235 
L 606.196178 144.91435 
L 607.919398 145.349254 
L 609.642617 145.998621 
L 611.365837 146.855991 
L 613.089056 147.912831 
L 615.386682 149.613791 
L 617.684308 151.620383 
L 619.981934 153.897132 
L 622.853966 157.06126 
L 626.300405 161.20848 
L 632.618877 169.273623 
L 637.214129 175.002647 
L 640.660567 178.945909 
L 643.5326 181.872756 
L 645.830226 183.92022 
L 648.127852 185.666801 
L 650.425478 187.081622 
L 652.148697 187.90974 
L 653.871917 188.528804 
L 655.595136 188.932655 
L 657.318356 189.117275 
L 659.041575 189.080827 
L 660.764794 188.823677 
L 662.488014 188.348383 
L 664.211233 187.659678 
L 665.934453 186.764416 
L 668.232079 185.265109 
L 670.529705 183.44117 
L 672.827331 181.324849 
L 675.699363 178.325734 
L 679.145802 174.318584 
L 683.741054 168.547103 
L 691.208338 159.106615 
L 694.654777 155.134944 
L 697.526809 152.176084 
L 699.824435 150.098182 
L 702.122061 148.317456 
L 704.419687 146.865393 
L 706.142907 146.007709 
L 707.866126 145.358006 
L 709.589346 144.922751 
L 711.312565 144.706277 
L 713.035785 144.71074 
L 714.759004 144.936095 
L 716.482224 145.380103 
L 718.205443 146.038345 
L 719.928662 146.904272 
L 721.651882 147.969267 
L 723.949508 149.680336 
L 726.247134 151.695999 
L 728.54476 153.980622 
L 731.416792 157.152697 
L 734.863231 161.306394 
L 741.181702 169.374038 
L 745.776954 175.097138 
L 749.223393 179.031914 
L 752.095426 181.949301 
L 754.393052 183.987819 
L 756.690677 185.724396 
L 758.988303 187.128335 
L 760.711523 187.947829 
L 762.434742 188.557968 
L 764.157962 188.952682 
L 765.881181 189.128044 
L 767.604401 189.082309 
L 769.32762 188.815935 
L 771.05084 188.331573 
L 772.774059 187.634045 
L 774.497279 186.730293 
L 776.794904 185.22033 
L 779.09253 183.386666 
L 781.390156 181.261722 
L 784.262189 178.253609 
L 787.708628 174.238593 
L 792.30388 168.462083 
L 799.771164 159.027341 
L 803.217603 155.063913 
L 806.089635 152.114331 
L 808.387261 150.045249 
L 810.684887 148.274418 
L 812.982513 146.833149 
L 814.705732 145.984037 
L 816.428952 145.343219 
L 818.152171 144.917074 
L 819.875391 144.709845 
L 821.59861 144.723595 
L 823.32183 144.958188 
L 825.045049 145.411291 
L 826.768269 146.078396 
L 828.491488 146.952865 
L 830.789114 148.426065 
L 833.08674 150.226172 
L 835.384366 152.321363 
L 838.256398 155.298437 
L 841.128431 158.596198 
L 845.149276 163.577243 
L 854.914186 175.873038 
L 857.786219 179.117668 
L 860.658251 182.025545 
L 862.955877 184.055079 
L 865.253503 185.781623 
L 867.551129 187.174654 
L 869.274349 187.98551 
L 870.997568 188.586713 
L 872.720787 188.972284 
L 874.444007 189.138384 
L 876.167226 189.083364 
L 877.890446 188.80777 
L 879.613665 188.314349 
L 881.336885 187.60801 
L 883.060104 186.695784 
L 885.35773 185.175192 
L 887.655356 183.331835 
L 889.952982 181.198305 
L 892.825014 178.181247 
L 896.271453 174.158435 
L 900.866705 168.376998 
L 908.33399 158.948167 
L 911.780428 154.99305 
L 914.652461 152.052799 
L 916.950087 149.992574 
L 919.247713 148.231668 
L 921.545339 146.801219 
L 923.268558 145.960693 
L 924.991778 145.328771 
L 926.714997 144.911745 
L 928.438217 144.713764 
L 930.161436 144.736801 
L 931.884655 144.980627 
L 933.607875 145.442817 
L 935.331094 146.118773 
L 937.054314 147.00177 
L 939.35194 148.485689 
L 941.649566 150.295598 
L 943.947192 152.399502 
L 946.819224 155.385702 
L 949.691257 158.690395 
L 953.712102 163.677107 
L 963.477012 175.965956 
L 966.349045 179.203169 
L 969.221077 182.101484 
L 971.518703 184.122 
L 973.816329 185.83848 
L 976.113955 187.220579 
L 977.837174 188.022782 
L 979.560394 188.61504 
L 981.283613 188.99146 
L 983.006833 189.148297 
L 984.730052 189.083991 
L 986.453272 188.799183 
L 988.176491 188.29671 
L 989.89971 187.581573 
L 991.62293 186.66089 
L 993.920556 185.129695 
L 996.218182 183.276677 
L 996.218182 183.276677 
" style="fill:none;stroke:#55a868;stroke-linecap:round;stroke-width:1.4;"/>
   </g>
   <g id="patch_3">
    <path d="M 144 320.4 
L 144 43.2 
" style="fill:none;"/>
   </g>
   <g id="patch_4">
    <path d="M 1036.8 320.4 
L 1036.8 43.2 
" style="fill:none;"/>
   </g>
   <g id="patch_5">
    <path d="M 144 320.4 
L 1036.8 320.4 
" style="fill:none;"/>
   </g>
   <g id="patch_6">
    <path d="M 144 43.2 
L 1036.8 43.2 
" style="fill:none;"/>
   </g>
   <g id="legend_1">
    <g id="line2d_27">
     <path d="M 1002.75125 53.3975 
L 1018.75125 53.3975 
" style="fill:none;stroke:#4c72b0;stroke-linecap:round;stroke-width:1.4;"/>
    </g>
    <g id="line2d_28"/>
    <g id="text_13">
     <!-- a -->
     <defs>
      <path d="M 20.21875 -0.984375 
Q 12.25 -0.984375 8.25 3.21875 
Q 4.25 7.421875 4.25 14.75 
Q 4.25 19.96875 6.21875 23.3125 
Q 8.203125 26.65625 11.390625 28.5625 
Q 14.59375 30.46875 18.6875 31.203125 
Q 22.796875 31.9375 27.046875 32.03125 
L 38.921875 32.234375 
L 38.921875 35.109375 
Q 38.921875 38.375 38.234375 40.671875 
Q 37.546875 42.96875 36.125 44.375 
Q 34.71875 45.796875 32.59375 46.453125 
Q 30.46875 47.125 27.59375 47.125 
Q 25.046875 47.125 23 46.75 
Q 20.953125 46.390625 19.4375 45.4375 
Q 17.921875 44.484375 16.984375 42.84375 
Q 16.0625 41.21875 15.765625 38.71875 
L 6.59375 39.546875 
Q 7.078125 42.671875 8.4375 45.28125 
Q 9.8125 47.90625 12.328125 49.796875 
Q 14.84375 51.703125 18.625 52.75 
Q 22.40625 53.8125 27.78125 53.8125 
Q 37.75 53.8125 42.765625 49.234375 
Q 47.796875 44.671875 47.796875 36.03125 
L 47.796875 13.28125 
Q 47.796875 9.375 48.828125 7.390625 
Q 49.859375 5.421875 52.734375 5.421875 
Q 53.46875 5.421875 54.203125 5.515625 
Q 54.9375 5.609375 55.609375 5.765625 
L 55.609375 0.296875 
Q 53.953125 -0.09375 52.3125 -0.28125 
Q 50.6875 -0.484375 48.828125 -0.484375 
Q 46.34375 -0.484375 44.5625 0.171875 
Q 42.78125 0.828125 41.65625 2.171875 
Q 40.53125 3.515625 39.9375 5.484375 
Q 39.359375 7.46875 39.203125 10.109375 
L 38.921875 10.109375 
Q 37.5 7.5625 35.8125 5.515625 
Q 34.125 3.46875 31.875 2.03125 
Q 29.640625 0.59375 26.78125 -0.1875 
Q 23.921875 -0.984375 20.21875 -0.984375 
M 22.21875 5.609375 
Q 26.421875 5.609375 29.5625 7.140625 
Q 32.71875 8.6875 34.78125 11.078125 
Q 36.859375 13.484375 37.890625 16.3125 
Q 38.921875 19.140625 38.921875 21.734375 
L 38.921875 26.078125 
L 29.296875 25.875 
Q 26.078125 25.828125 23.171875 25.40625 
Q 20.265625 25 18.0625 23.78125 
Q 15.875 22.5625 14.578125 20.359375 
Q 13.28125 18.171875 13.28125 14.59375 
Q 13.28125 10.296875 15.59375 7.953125 
Q 17.921875 5.609375 22.21875 5.609375 
" id="LiberationSans-61"/>
     </defs>
     <g style="fill:#262626;" transform="translate(1025.15125 56.1975)scale(0.08 -0.08)">
      <use xlink:href="#LiberationSans-61"/>
     </g>
    </g>
    <g id="line2d_29">
     <path d="M 1002.75125 64.855 
L 1018.75125 64.855 
" style="fill:none;stroke:#55a868;stroke-linecap:round;stroke-width:1.4;"/>
    </g>
    <g id="line2d_30"/>
    <g id="text_14">
     <!-- b -->
     <defs>
      <path d="M 51.421875 26.65625 
Q 51.421875 -0.984375 31.984375 -0.984375 
Q 25.984375 -0.984375 22 1.1875 
Q 18.015625 3.375 15.53125 8.203125 
L 15.4375 8.203125 
Q 15.4375 6.9375 15.359375 5.5625 
Q 15.28125 4.203125 15.203125 3.03125 
Q 15.140625 1.859375 15.0625 1.03125 
Q 14.984375 0.203125 14.9375 0 
L 6.453125 0 
Q 6.5 0.4375 6.546875 1.484375 
Q 6.59375 2.546875 6.640625 4 
Q 6.6875 5.46875 6.703125 7.21875 
Q 6.734375 8.984375 6.734375 10.890625 
L 6.734375 72.46875 
L 15.53125 72.46875 
L 15.53125 51.8125 
Q 15.53125 50.34375 15.5 49 
Q 15.484375 47.65625 15.4375 46.625 
Q 15.375 45.40625 15.328125 44.34375 
L 15.53125 44.34375 
Q 17.96875 49.421875 22 51.609375 
Q 26.03125 53.8125 31.984375 53.8125 
Q 42 53.8125 46.703125 47.0625 
Q 51.421875 40.328125 51.421875 26.65625 
M 42.1875 26.375 
Q 42.1875 31.84375 41.5 35.75 
Q 40.828125 39.65625 39.3125 42.15625 
Q 37.796875 44.671875 35.453125 45.84375 
Q 33.109375 47.015625 29.734375 47.015625 
Q 26.265625 47.015625 23.609375 45.890625 
Q 20.953125 44.78125 19.171875 42.28125 
Q 17.390625 39.796875 16.453125 35.734375 
Q 15.53125 31.6875 15.53125 25.828125 
Q 15.53125 20.171875 16.453125 16.3125 
Q 17.390625 12.453125 19.171875 10.03125 
Q 20.953125 7.625 23.578125 6.5625 
Q 26.21875 5.515625 29.640625 5.515625 
Q 32.859375 5.515625 35.203125 6.640625 
Q 37.546875 7.765625 39.109375 10.25 
Q 40.671875 12.75 41.421875 16.71875 
Q 42.1875 20.703125 42.1875 26.375 
" id="LiberationSans-62"/>
     </defs>
     <g style="fill:#262626;" transform="translate(1025.15125 67.655)scale(0.08 -0.08)">
      <use xlink:href="#LiberationSans-62"/>
     </g>
    </g>
   </g>
  </g>
 </g>
 <defs>
  <clipPath id="p6cb04efd8b">
   <rect height="277.2" width="892.8" x="144" y="43.2"/>
  </clipPath>
 </defs>
</svg>
