<?xml version="1.0" encoding="utf-8" standalone="no"?>
<!DOCTYPE svg PUBLIC "-//W3C//DTD SVG 1.1//EN"
  "http://www.w3.org/Graphics/SVG/1.1/DTD/svg11.dtd">
<!-- Created with matplotlib (http://matplotlib.org/) -->
<svg height="360pt" version="1.1" viewBox="0 0 1152 360" width="1152pt" xmlns="http://www.w3.org/2000/svg" xmlns:xlink="http://www.w3.org/1999/xlink">
 <defs>
  <style type="text/css">
*{stroke-linecap:butt;stroke-linejoin:round;}
  </style>
 </defs>
 <g id="figure_1">
  <g id="patch_1">
   <path d="M 0 360 
L 1152 360 
L 1152 0 
L 0 0 
z
" style="fill:#ffffff;"/>
  </g>
  <g id="axes_1">
   <g id="patch_2">
    <path d="M 144 320.4 
L 1036.8 320.4 
L 1036.8 43.2 
L 144 43.2 
z
" style="fill:#eaeaf2;"/>
   </g>
   <g id="matplotlib.axis_1">
    <g id="xtick_1">
     <g id="line2d_1">
      <path clip-path="url(#p95185f400f)" d="M 184.581818 320.4 
L 184.581818 43.2 
" style="fill:none;stroke:#ffffff;stroke-linecap:round;stroke-width:0.8;"/>
     </g>
     <g id="line2d_2"/>
     <g id="text_1">
      <!-- 0 -->
      <defs>
       <path d="M 51.703125 34.421875 
Q 51.703125 24.515625 49.828125 17.75 
Q 47.953125 10.984375 44.703125 6.8125 
Q 41.453125 2.640625 37.0625 0.828125 
Q 32.671875 -0.984375 27.6875 -0.984375 
Q 22.65625 -0.984375 18.3125 0.828125 
Q 13.96875 2.640625 10.765625 6.78125 
Q 7.5625 10.9375 5.734375 17.703125 
Q 3.90625 24.46875 3.90625 34.421875 
Q 3.90625 44.828125 5.734375 51.640625 
Q 7.5625 58.453125 10.78125 62.5 
Q 14.015625 66.546875 18.40625 68.1875 
Q 22.796875 69.828125 27.984375 69.828125 
Q 32.90625 69.828125 37.21875 68.1875 
Q 41.546875 66.546875 44.765625 62.5 
Q 48 58.453125 49.84375 51.640625 
Q 51.703125 44.828125 51.703125 34.421875 
M 42.78125 34.421875 
Q 42.78125 42.625 41.796875 48.0625 
Q 40.828125 53.515625 38.921875 56.765625 
Q 37.015625 60.015625 34.25 61.359375 
Q 31.5 62.703125 27.984375 62.703125 
Q 24.265625 62.703125 21.4375 61.328125 
Q 18.609375 59.96875 16.671875 56.71875 
Q 14.75 53.46875 13.765625 48.015625 
Q 12.796875 42.578125 12.796875 34.421875 
Q 12.796875 26.515625 13.796875 21.09375 
Q 14.796875 15.671875 16.71875 12.375 
Q 18.65625 9.078125 21.4375 7.640625 
Q 24.21875 6.203125 27.78125 6.203125 
Q 31.25 6.203125 34.03125 7.640625 
Q 36.8125 9.078125 38.734375 12.375 
Q 40.671875 15.671875 41.71875 21.09375 
Q 42.78125 26.515625 42.78125 34.421875 
" id="LiberationSans-30"/>
      </defs>
      <g style="fill:#262626;" transform="translate(182.357443 331.7975)scale(0.08 -0.08)">
       <use xlink:href="#LiberationSans-30"/>
      </g>
     </g>
    </g>
    <g id="xtick_2">
     <g id="line2d_3">
      <path clip-path="url(#p95185f400f)" d="M 299.625952 320.4 
L 299.625952 43.2 
" style="fill:none;stroke:#ffffff;stroke-linecap:round;stroke-width:0.8;"/>
     </g>
     <g id="line2d_4"/>
     <g id="text_2">
      <!-- 200 -->
      <defs>
       <path d="M 5.03125 0 
L 5.03125 6.203125 
Q 7.515625 11.921875 11.109375 16.28125 
Q 14.703125 20.65625 18.65625 24.1875 
Q 22.609375 27.734375 26.484375 30.765625 
Q 30.375 33.796875 33.5 36.8125 
Q 36.625 39.84375 38.546875 43.15625 
Q 40.484375 46.484375 40.484375 50.6875 
Q 40.484375 53.609375 39.59375 55.828125 
Q 38.71875 58.0625 37.0625 59.5625 
Q 35.40625 61.078125 33.078125 61.828125 
Q 30.765625 62.59375 27.9375 62.59375 
Q 25.296875 62.59375 22.96875 61.859375 
Q 20.65625 61.140625 18.84375 59.671875 
Q 17.046875 58.203125 15.890625 56.03125 
Q 14.75 53.859375 14.40625 50.984375 
L 5.421875 51.8125 
Q 5.859375 55.515625 7.46875 58.78125 
Q 9.078125 62.0625 11.90625 64.53125 
Q 14.75 67 18.71875 68.40625 
Q 22.703125 69.828125 27.9375 69.828125 
Q 33.0625 69.828125 37.0625 68.609375 
Q 41.0625 67.390625 43.8125 64.984375 
Q 46.578125 62.59375 48.046875 59.078125 
Q 49.515625 55.5625 49.515625 50.984375 
Q 49.515625 47.515625 48.265625 44.390625 
Q 47.015625 41.265625 44.9375 38.421875 
Q 42.875 35.59375 40.140625 32.953125 
Q 37.40625 30.328125 34.421875 27.8125 
Q 31.453125 25.296875 28.421875 22.828125 
Q 25.390625 20.359375 22.71875 17.859375 
Q 20.0625 15.375 17.96875 12.8125 
Q 15.875 10.25 14.703125 7.46875 
L 50.59375 7.46875 
L 50.59375 0 
z
" id="LiberationSans-32"/>
      </defs>
      <g style="fill:#262626;" transform="translate(292.952827 331.7975)scale(0.08 -0.08)">
       <use xlink:href="#LiberationSans-32"/>
       <use x="55.615234" xlink:href="#LiberationSans-30"/>
       <use x="111.230469" xlink:href="#LiberationSans-30"/>
      </g>
     </g>
    </g>
    <g id="xtick_3">
     <g id="line2d_5">
      <path clip-path="url(#p95185f400f)" d="M 414.670086 320.4 
L 414.670086 43.2 
" style="fill:none;stroke:#ffffff;stroke-linecap:round;stroke-width:0.8;"/>
     </g>
     <g id="line2d_6"/>
     <g id="text_3">
      <!-- 400 -->
      <defs>
       <path d="M 43.015625 15.578125 
L 43.015625 0 
L 34.71875 0 
L 34.71875 15.578125 
L 2.296875 15.578125 
L 2.296875 22.40625 
L 33.796875 68.796875 
L 43.015625 68.796875 
L 43.015625 22.515625 
L 52.6875 22.515625 
L 52.6875 15.578125 
z
M 34.71875 58.890625 
Q 34.625 58.640625 34.234375 57.9375 
Q 33.84375 57.234375 33.34375 56.34375 
Q 32.859375 55.46875 32.34375 54.5625 
Q 31.84375 53.65625 31.453125 53.078125 
L 13.8125 27.09375 
Q 13.578125 26.703125 13.109375 26.0625 
Q 12.640625 25.4375 12.15625 24.78125 
Q 11.671875 24.125 11.171875 23.484375 
Q 10.6875 22.859375 10.40625 22.515625 
L 34.71875 22.515625 
z
" id="LiberationSans-34"/>
      </defs>
      <g style="fill:#262626;" transform="translate(407.996961 331.7975)scale(0.08 -0.08)">
       <use xlink:href="#LiberationSans-34"/>
       <use x="55.615234" xlink:href="#LiberationSans-30"/>
       <use x="111.230469" xlink:href="#LiberationSans-30"/>
      </g>
     </g>
    </g>
    <g id="xtick_4">
     <g id="line2d_7">
      <path clip-path="url(#p95185f400f)" d="M 529.714219 320.4 
L 529.714219 43.2 
" style="fill:none;stroke:#ffffff;stroke-linecap:round;stroke-width:0.8;"/>
     </g>
     <g id="line2d_8"/>
     <g id="text_4">
      <!-- 600 -->
      <defs>
       <path d="M 51.21875 22.515625 
Q 51.21875 17.328125 49.78125 13 
Q 48.34375 8.6875 45.53125 5.578125 
Q 42.71875 2.484375 38.5625 0.75 
Q 34.421875 -0.984375 29 -0.984375 
Q 23 -0.984375 18.5 1.3125 
Q 14.015625 3.609375 11.03125 7.921875 
Q 8.0625 12.25 6.5625 18.53125 
Q 5.078125 24.8125 5.078125 32.8125 
Q 5.078125 42 6.765625 48.921875 
Q 8.453125 55.859375 11.625 60.5 
Q 14.796875 65.140625 19.359375 67.484375 
Q 23.921875 69.828125 29.6875 69.828125 
Q 33.203125 69.828125 36.28125 69.09375 
Q 39.359375 68.359375 41.875 66.71875 
Q 44.390625 65.09375 46.28125 62.40625 
Q 48.1875 59.71875 49.3125 55.8125 
L 40.921875 54.296875 
Q 39.546875 58.734375 36.546875 60.71875 
Q 33.546875 62.703125 29.59375 62.703125 
Q 25.984375 62.703125 23.046875 60.984375 
Q 20.125 59.28125 18.0625 55.875 
Q 16.015625 52.484375 14.90625 47.359375 
Q 13.8125 42.234375 13.8125 35.40625 
Q 16.21875 39.84375 20.5625 42.15625 
Q 24.90625 44.484375 30.515625 44.484375 
Q 35.203125 44.484375 39.015625 42.96875 
Q 42.828125 41.453125 45.53125 38.59375 
Q 48.25 35.75 49.734375 31.671875 
Q 51.21875 27.59375 51.21875 22.515625 
M 42.28125 22.125 
Q 42.28125 25.6875 41.40625 28.5625 
Q 40.53125 31.453125 38.765625 33.46875 
Q 37.015625 35.5 34.421875 36.59375 
Q 31.84375 37.703125 28.421875 37.703125 
Q 26.03125 37.703125 23.578125 36.984375 
Q 21.140625 36.28125 19.15625 34.6875 
Q 17.1875 33.109375 15.9375 30.515625 
Q 14.703125 27.9375 14.703125 24.21875 
Q 14.703125 20.40625 15.671875 17.109375 
Q 16.65625 13.8125 18.484375 11.375 
Q 20.3125 8.9375 22.890625 7.515625 
Q 25.484375 6.109375 28.71875 6.109375 
Q 31.890625 6.109375 34.40625 7.203125 
Q 36.921875 8.296875 38.671875 10.375 
Q 40.4375 12.453125 41.359375 15.421875 
Q 42.28125 18.40625 42.28125 22.125 
" id="LiberationSans-36"/>
      </defs>
      <g style="fill:#262626;" transform="translate(523.041094 331.7975)scale(0.08 -0.08)">
       <use xlink:href="#LiberationSans-36"/>
       <use x="55.615234" xlink:href="#LiberationSans-30"/>
       <use x="111.230469" xlink:href="#LiberationSans-30"/>
      </g>
     </g>
    </g>
    <g id="xtick_5">
     <g id="line2d_9">
      <path clip-path="url(#p95185f400f)" d="M 644.758353 320.4 
L 644.758353 43.2 
" style="fill:none;stroke:#ffffff;stroke-linecap:round;stroke-width:0.8;"/>
     </g>
     <g id="line2d_10"/>
     <g id="text_5">
      <!-- 800 -->
      <defs>
       <path d="M 51.265625 19.1875 
Q 51.265625 14.796875 49.875 11.109375 
Q 48.484375 7.421875 45.625 4.734375 
Q 42.78125 2.046875 38.328125 0.53125 
Q 33.890625 -0.984375 27.828125 -0.984375 
Q 21.78125 -0.984375 17.359375 0.53125 
Q 12.9375 2.046875 10.03125 4.703125 
Q 7.125 7.375 5.734375 11.0625 
Q 4.34375 14.75 4.34375 19.09375 
Q 4.34375 22.859375 5.484375 25.78125 
Q 6.640625 28.71875 8.5625 30.828125 
Q 10.5 32.953125 12.96875 34.25 
Q 15.4375 35.546875 18.0625 35.984375 
L 18.0625 36.1875 
Q 15.1875 36.859375 12.90625 38.375 
Q 10.640625 39.890625 9.09375 42.015625 
Q 7.5625 44.140625 6.75 46.71875 
Q 5.953125 49.3125 5.953125 52.203125 
Q 5.953125 55.8125 7.34375 59 
Q 8.734375 62.203125 11.46875 64.625 
Q 14.203125 67.046875 18.25 68.4375 
Q 22.3125 69.828125 27.640625 69.828125 
Q 33.25 69.828125 37.375 68.40625 
Q 41.5 67 44.203125 64.578125 
Q 46.921875 62.15625 48.234375 58.9375 
Q 49.5625 55.71875 49.5625 52.09375 
Q 49.5625 49.265625 48.75 46.671875 
Q 47.953125 44.09375 46.40625 41.96875 
Q 44.875 39.84375 42.59375 38.34375 
Q 40.328125 36.859375 37.359375 36.28125 
L 37.359375 36.078125 
Q 40.328125 35.59375 42.859375 34.296875 
Q 45.40625 33.015625 47.265625 30.890625 
Q 49.125 28.765625 50.1875 25.828125 
Q 51.265625 22.90625 51.265625 19.1875 
M 40.4375 51.609375 
Q 40.4375 54.203125 39.765625 56.34375 
Q 39.109375 58.5 37.59375 60.03125 
Q 36.078125 61.578125 33.640625 62.421875 
Q 31.203125 63.28125 27.640625 63.28125 
Q 24.171875 63.28125 21.78125 62.421875 
Q 19.390625 61.578125 17.84375 60.03125 
Q 16.3125 58.5 15.625 56.34375 
Q 14.9375 54.203125 14.9375 51.609375 
Q 14.9375 49.5625 15.46875 47.40625 
Q 16.015625 45.265625 17.421875 43.5 
Q 18.84375 41.75 21.328125 40.625 
Q 23.828125 39.5 27.734375 39.5 
Q 31.890625 39.5 34.40625 40.625 
Q 36.921875 41.75 38.25 43.5 
Q 39.59375 45.265625 40.015625 47.40625 
Q 40.4375 49.5625 40.4375 51.609375 
M 42.140625 20.015625 
Q 42.140625 22.515625 41.453125 24.828125 
Q 40.765625 27.15625 39.109375 28.9375 
Q 37.453125 30.71875 34.640625 31.8125 
Q 31.84375 32.90625 27.640625 32.90625 
Q 23.78125 32.90625 21.0625 31.8125 
Q 18.359375 30.71875 16.671875 28.90625 
Q 14.984375 27.09375 14.203125 24.71875 
Q 13.421875 22.359375 13.421875 19.828125 
Q 13.421875 16.65625 14.203125 14.03125 
Q 14.984375 11.421875 16.6875 9.546875 
Q 18.40625 7.671875 21.1875 6.640625 
Q 23.96875 5.609375 27.9375 5.609375 
Q 31.9375 5.609375 34.671875 6.640625 
Q 37.40625 7.671875 39.0625 9.546875 
Q 40.71875 11.421875 41.421875 14.078125 
Q 42.140625 16.75 42.140625 20.015625 
" id="LiberationSans-38"/>
      </defs>
      <g style="fill:#262626;" transform="translate(638.085228 331.7975)scale(0.08 -0.08)">
       <use xlink:href="#LiberationSans-38"/>
       <use x="55.615234" xlink:href="#LiberationSans-30"/>
       <use x="111.230469" xlink:href="#LiberationSans-30"/>
      </g>
     </g>
    </g>
    <g id="xtick_6">
     <g id="line2d_11">
      <path clip-path="url(#p95185f400f)" d="M 759.802487 320.4 
L 759.802487 43.2 
" style="fill:none;stroke:#ffffff;stroke-linecap:round;stroke-width:0.8;"/>
     </g>
     <g id="line2d_12"/>
     <g id="text_6">
      <!-- 1000 -->
      <defs>
       <path d="M 7.625 0 
L 7.625 7.46875 
L 25.140625 7.46875 
L 25.140625 60.40625 
L 9.625 49.3125 
L 9.625 57.625 
L 25.875 68.796875 
L 33.984375 68.796875 
L 33.984375 7.46875 
L 50.734375 7.46875 
L 50.734375 0 
z
" id="LiberationSans-31"/>
      </defs>
      <g style="fill:#262626;" transform="translate(750.904987 331.7975)scale(0.08 -0.08)">
       <use xlink:href="#LiberationSans-31"/>
       <use x="55.615234" xlink:href="#LiberationSans-30"/>
       <use x="111.230469" xlink:href="#LiberationSans-30"/>
       <use x="166.845703" xlink:href="#LiberationSans-30"/>
      </g>
     </g>
    </g>
    <g id="xtick_7">
     <g id="line2d_13">
      <path clip-path="url(#p95185f400f)" d="M 874.846621 320.4 
L 874.846621 43.2 
" style="fill:none;stroke:#ffffff;stroke-linecap:round;stroke-width:0.8;"/>
     </g>
     <g id="line2d_14"/>
     <g id="text_7">
      <!-- 1200 -->
      <g style="fill:#262626;" transform="translate(865.949121 331.7975)scale(0.08 -0.08)">
       <use xlink:href="#LiberationSans-31"/>
       <use x="55.615234" xlink:href="#LiberationSans-32"/>
       <use x="111.230469" xlink:href="#LiberationSans-30"/>
       <use x="166.845703" xlink:href="#LiberationSans-30"/>
      </g>
     </g>
    </g>
    <g id="xtick_8">
     <g id="line2d_15">
      <path clip-path="url(#p95185f400f)" d="M 989.890754 320.4 
L 989.890754 43.2 
" style="fill:none;stroke:#ffffff;stroke-linecap:round;stroke-width:0.8;"/>
     </g>
     <g id="line2d_16"/>
     <g id="text_8">
      <!-- 1400 -->
      <g style="fill:#262626;" transform="translate(980.993254 331.7975)scale(0.08 -0.08)">
       <use xlink:href="#LiberationSans-31"/>
       <use x="55.615234" xlink:href="#LiberationSans-34"/>
       <use x="111.230469" xlink:href="#LiberationSans-30"/>
       <use x="166.845703" xlink:href="#LiberationSans-30"/>
      </g>
     </g>
    </g>
   </g>
   <g id="matplotlib.axis_2">
    <g id="ytick_1">
     <g id="line2d_17">
      <path clip-path="url(#p95185f400f)" d="M 144 307.282988 
L 1036.8 307.282988 
" style="fill:none;stroke:#ffffff;stroke-linecap:round;stroke-width:0.8;"/>
     </g>
     <g id="line2d_18"/>
     <g id="text_9">
      <!-- −100000 -->
      <defs>
       <path d="M 4.9375 29.6875 
L 4.9375 36.8125 
L 53.515625 36.8125 
L 53.515625 29.6875 
z
" id="LiberationSans-2212"/>
      </defs>
      <g style="fill:#262626;" transform="translate(107.035 310.181738)scale(0.08 -0.08)">
       <use xlink:href="#LiberationSans-2212"/>
       <use x="58.398438" xlink:href="#LiberationSans-31"/>
       <use x="114.013672" xlink:href="#LiberationSans-30"/>
       <use x="169.628906" xlink:href="#LiberationSans-30"/>
       <use x="225.244141" xlink:href="#LiberationSans-30"/>
       <use x="280.859375" xlink:href="#LiberationSans-30"/>
       <use x="336.474609" xlink:href="#LiberationSans-30"/>
      </g>
     </g>
    </g>
    <g id="ytick_2">
     <g id="line2d_19">
      <path clip-path="url(#p95185f400f)" d="M 144 248.531595 
L 1036.8 248.531595 
" style="fill:none;stroke:#ffffff;stroke-linecap:round;stroke-width:0.8;"/>
     </g>
     <g id="line2d_20"/>
     <g id="text_10">
      <!-- −50000 -->
      <defs>
       <path d="M 51.421875 22.40625 
Q 51.421875 17.234375 49.859375 12.9375 
Q 48.296875 8.640625 45.21875 5.53125 
Q 42.140625 2.4375 37.578125 0.71875 
Q 33.015625 -0.984375 27 -0.984375 
Q 21.578125 -0.984375 17.546875 0.28125 
Q 13.53125 1.5625 10.734375 3.78125 
Q 7.953125 6 6.3125 8.984375 
Q 4.6875 11.96875 4 15.375 
L 12.890625 16.40625 
Q 13.421875 14.453125 14.390625 12.625 
Q 15.375 10.796875 17.0625 9.34375 
Q 18.75 7.90625 21.21875 7.046875 
Q 23.6875 6.203125 27.203125 6.203125 
Q 30.609375 6.203125 33.390625 7.25 
Q 36.1875 8.296875 38.15625 10.34375 
Q 40.140625 12.40625 41.203125 15.375 
Q 42.28125 18.359375 42.28125 22.21875 
Q 42.28125 25.390625 41.25 28.046875 
Q 40.234375 30.71875 38.328125 32.640625 
Q 36.421875 34.578125 33.65625 35.640625 
Q 30.90625 36.71875 27.390625 36.71875 
Q 25.203125 36.71875 23.34375 36.328125 
Q 21.484375 35.9375 19.890625 35.25 
Q 18.3125 34.578125 17.015625 33.671875 
Q 15.71875 32.765625 14.59375 31.78125 
L 6 31.78125 
L 8.296875 68.796875 
L 47.40625 68.796875 
L 47.40625 61.328125 
L 16.3125 61.328125 
L 14.984375 39.5 
Q 17.328125 41.3125 20.84375 42.59375 
Q 24.359375 43.890625 29.203125 43.890625 
Q 34.328125 43.890625 38.421875 42.328125 
Q 42.53125 40.765625 45.40625 37.90625 
Q 48.296875 35.0625 49.859375 31.109375 
Q 51.421875 27.15625 51.421875 22.40625 
" id="LiberationSans-35"/>
      </defs>
      <g style="fill:#262626;" transform="translate(111.48375 251.430345)scale(0.08 -0.08)">
       <use xlink:href="#LiberationSans-2212"/>
       <use x="58.398438" xlink:href="#LiberationSans-35"/>
       <use x="114.013672" xlink:href="#LiberationSans-30"/>
       <use x="169.628906" xlink:href="#LiberationSans-30"/>
       <use x="225.244141" xlink:href="#LiberationSans-30"/>
       <use x="280.859375" xlink:href="#LiberationSans-30"/>
      </g>
     </g>
    </g>
    <g id="ytick_3">
     <g id="line2d_21">
      <path clip-path="url(#p95185f400f)" d="M 144 189.780202 
L 1036.8 189.780202 
" style="fill:none;stroke:#ffffff;stroke-linecap:round;stroke-width:0.8;"/>
     </g>
     <g id="line2d_22"/>
     <g id="text_11">
      <!-- 0 -->
      <g style="fill:#262626;" transform="translate(133.95125 192.678952)scale(0.08 -0.08)">
       <use xlink:href="#LiberationSans-30"/>
      </g>
     </g>
    </g>
    <g id="ytick_4">
     <g id="line2d_23">
      <path clip-path="url(#p95185f400f)" d="M 144 131.028809 
L 1036.8 131.028809 
" style="fill:none;stroke:#ffffff;stroke-linecap:round;stroke-width:0.8;"/>
     </g>
     <g id="line2d_24"/>
     <g id="text_12">
      <!-- 50000 -->
      <g style="fill:#262626;" transform="translate(116.15625 133.927559)scale(0.08 -0.08)">
       <use xlink:href="#LiberationSans-35"/>
       <use x="55.615234" xlink:href="#LiberationSans-30"/>
       <use x="111.230469" xlink:href="#LiberationSans-30"/>
       <use x="166.845703" xlink:href="#LiberationSans-30"/>
       <use x="222.460938" xlink:href="#LiberationSans-30"/>
      </g>
     </g>
    </g>
    <g id="ytick_5">
     <g id="line2d_25">
      <path clip-path="url(#p95185f400f)" d="M 144 72.277416 
L 1036.8 72.277416 
" style="fill:none;stroke:#ffffff;stroke-linecap:round;stroke-width:0.8;"/>
     </g>
     <g id="line2d_26"/>
     <g id="text_13">
      <!-- 100000 -->
      <g style="fill:#262626;" transform="translate(111.7075 75.176166)scale(0.08 -0.08)">
       <use xlink:href="#LiberationSans-31"/>
       <use x="55.615234" xlink:href="#LiberationSans-30"/>
       <use x="111.230469" xlink:href="#LiberationSans-30"/>
       <use x="166.845703" xlink:href="#LiberationSans-30"/>
       <use x="222.460938" xlink:href="#LiberationSans-30"/>
       <use x="278.076172" xlink:href="#LiberationSans-30"/>
      </g>
     </g>
    </g>
   </g>
   <g id="line2d_27">
    <path clip-path="url(#p95185f400f)" d="M 184.581818 189.780202 
L 187.457922 189.780351 
L 188.033142 190.035865 
L 188.608363 191.128205 
L 189.183584 193.261892 
L 190.334025 199.409884 
L 190.909246 200.03212 
L 191.484466 196.181236 
L 193.210128 172.058079 
L 193.785349 168.870228 
L 194.36057 170.632418 
L 194.93579 176.62412 
L 196.086232 193.004678 
L 196.661452 199.048598 
L 197.236673 201.903082 
L 197.811894 201.289835 
L 198.387114 197.67928 
L 200.687997 175.441572 
L 202.413659 165.325404 
L 202.98888 161.942734 
L 203.5641 162.81249 
L 204.139321 174.761936 
L 204.714542 200.383195 
L 205.289762 233.060473 
L 205.864983 259.20261 
L 206.440204 265.897331 
L 207.015424 247.879924 
L 207.590645 208.81248 
L 208.741086 113.107284 
L 209.316307 90.48177 
L 209.891528 106.484827 
L 210.466748 159.67211 
L 211.041969 227.87108 
L 211.61719 279.957715 
L 212.19241 293.453967 
L 212.767631 263.017221 
L 213.918072 134.361893 
L 214.493293 100.223926 
L 215.068514 117.660399 
L 216.218955 229.819629 
L 216.794176 256.922939 
L 217.369396 242.637067 
L 218.519838 150.852234 
L 219.095058 136.824281 
L 219.670279 163.993158 
L 220.2455 208.853841 
L 220.82072 238.310145 
L 221.395941 234.579666 
L 221.971162 201.420086 
L 222.546382 160.821523 
L 223.121603 141.700999 
L 223.696824 157.375636 
L 224.847265 223.987613 
L 225.422486 229.257965 
L 225.997706 209.080974 
L 226.572927 178.582221 
L 227.148148 160.164447 
L 227.723368 166.704652 
L 228.87381 212.27094 
L 229.44903 216.378602 
L 230.024251 201.190416 
L 230.599472 177.652622 
L 231.174692 163.435137 
L 231.749913 169.518844 
L 232.900354 210.618263 
L 233.475575 216.702205 
L 234.050796 206.382288 
L 234.626016 187.116719 
L 235.201237 171.822133 
L 235.776458 169.958657 
L 236.351678 180.492582 
L 236.926899 194.430786 
L 237.50212 203.131456 
L 238.07734 203.492542 
L 238.652561 197.627802 
L 239.227782 190.235807 
L 239.803002 185.453338 
L 240.378223 184.416188 
L 240.953444 185.699248 
L 242.679106 191.552202 
L 243.829547 196.975262 
L 244.404768 197.23882 
L 244.979988 193.59312 
L 246.13043 180.378428 
L 246.70565 177.926638 
L 247.280871 181.610127 
L 247.856092 191.198049 
L 249.006533 215.086659 
L 249.581754 216.723356 
L 250.156974 204.45113 
L 251.307416 156.3026 
L 251.882636 141.045804 
L 252.457857 142.113317 
L 253.033078 159.844252 
L 254.183519 223.585636 
L 254.75874 254.682866 
L 255.33396 275.069129 
L 255.909181 275.795766 
L 256.484402 250.090857 
L 257.634843 142.67075 
L 258.210064 93.328392 
L 258.785284 67.759434 
L 259.360505 71.907282 
L 259.935726 101.993988 
L 261.661388 230.117851 
L 262.236608 249.509923 
L 262.811829 250.416574 
L 263.38705 235.916966 
L 265.112712 166.406783 
L 265.687932 155.581603 
L 266.263153 155.749867 
L 266.838374 165.314829 
L 268.564036 209.246418 
L 269.139256 215.889203 
L 269.714477 215.771583 
L 270.289698 210.027459 
L 272.01536 184.439865 
L 272.590581 180.843516 
L 273.165801 181.287805 
L 273.741022 185.061196 
L 275.466684 200.943143 
L 276.041905 203.098437 
L 276.617125 202.752274 
L 277.192346 200.361222 
L 278.918008 190.430266 
L 279.493229 189.028227 
L 280.068449 189.125909 
L 280.64367 190.435995 
L 281.794111 194.403854 
L 282.369332 195.873943 
L 282.944553 196.502701 
L 283.519773 196.220823 
L 284.094994 195.211216 
L 285.245435 192.420901 
L 285.820656 191.338183 
L 286.395877 190.756742 
L 286.971097 190.713744 
L 287.546318 191.082062 
L 288.696759 192.206952 
L 289.27198 192.53563 
L 289.847201 192.524538 
L 290.422421 192.171783 
L 291.572863 190.810962 
L 292.723304 189.414445 
L 293.298525 188.932631 
L 293.873745 188.681898 
L 294.448966 188.627148 
L 296.174628 188.862702 
L 296.749849 188.794424 
L 297.90029 188.326728 
L 299.625952 187.356895 
L 300.776393 187.043151 
L 301.926835 186.818885 
L 303.077276 186.286468 
L 304.802938 184.982927 
L 305.953379 183.95647 
L 307.103821 182.648617 
L 307.679041 181.84444 
L 308.254262 180.840613 
L 308.829483 179.499577 
L 309.404703 177.634879 
L 309.979924 175.066033 
L 311.130365 168.029496 
L 311.705586 166.156502 
L 312.280807 170.571434 
L 312.856027 185.071783 
L 314.006469 231.331537 
L 314.581689 246.588099 
L 315.15691 248.191189 
L 315.732131 236.252319 
L 317.457793 173.385273 
L 318.033013 163.840052 
L 318.608234 164.981944 
L 319.183455 174.790254 
L 320.333896 202.986575 
L 320.909117 213.219775 
L 321.484337 217.833404 
L 322.059558 216.748501 
L 322.634779 211.192499 
L 323.78522 192.790964 
L 324.360441 183.94573 
L 324.935661 179.352981 
L 325.510882 181.444437 
L 326.086103 190.368959 
L 326.661323 203.275749 
L 327.236544 213.675098 
L 327.811765 214.152277 
L 328.386985 203.092562 
L 328.962206 187.67924 
L 329.537427 178.455189 
L 330.112647 181.823912 
L 331.263089 213.75124 
L 331.838309 219.059193 
L 332.41353 206.566767 
L 332.988751 184.938828 
L 333.563971 170.09402 
L 334.139192 172.452418 
L 334.714413 191.452901 
L 335.289633 215.205572 
L 335.864854 225.891275 
L 336.440075 214.221839 
L 337.015295 188.919403 
L 337.590516 168.997954 
L 338.165737 168.215738 
L 338.740957 187.525029 
L 339.316178 214.336051 
L 339.891399 228.102795 
L 340.466619 216.473192 
L 341.617061 163.401884 
L 342.192281 160.518013 
L 342.767502 181.585534 
L 343.342723 214.025609 
L 343.917943 235.308184 
L 344.493164 229.02625 
L 345.643605 168.234421 
L 346.218826 154.40023 
L 346.794047 164.571742 
L 347.944488 218.870954 
L 348.519709 229.839134 
L 349.094929 219.879363 
L 350.245371 179.331102 
L 350.820591 170.959193 
L 351.395812 173.914036 
L 353.121474 202.390483 
L 353.696695 205.984776 
L 354.271915 206.889312 
L 354.847136 205.769746 
L 355.422357 202.078866 
L 355.997577 195.385519 
L 357.148019 177.378488 
L 357.723239 171.734124 
L 358.29846 173.662462 
L 358.873681 184.826402 
L 360.024122 218.481667 
L 360.599343 227.317172 
L 361.174563 225.021872 
L 361.749784 212.163072 
L 363.475446 150.197626 
L 364.050667 137.565136 
L 364.625888 138.304346 
L 365.201108 157.262481 
L 366.92677 268.721981 
L 367.501991 286.150934 
L 368.077212 281.920011 
L 368.652432 258.888173 
L 369.802874 191.070629 
L 370.378094 165.02777 
L 370.953315 151.996711 
L 371.528536 152.752959 
L 372.103756 164.62121 
L 373.829418 215.452563 
L 374.404639 222.103103 
L 374.97986 220.474279 
L 375.55508 212.041105 
L 376.705522 187.530869 
L 377.280742 178.180421 
L 377.855963 173.68702 
L 378.431184 174.377349 
L 379.006404 179.215949 
L 380.156846 193.333545 
L 380.732066 198.549681 
L 381.307287 200.796252 
L 381.882508 199.903913 
L 382.457728 196.529679 
L 383.60817 187.125508 
L 384.18339 183.570555 
L 384.758611 181.836767 
L 385.333832 181.984761 
L 385.909052 183.616452 
L 387.059494 188.364105 
L 387.634714 190.029342 
L 388.209935 190.643505 
L 388.785156 190.181179 
L 389.360376 188.873366 
L 390.510818 185.436711 
L 391.086038 184.197985 
L 391.661259 183.65994 
L 392.23648 183.831588 
L 392.8117 184.564194 
L 393.962142 186.538829 
L 394.537362 187.243669 
L 395.112583 187.539741 
L 395.687804 187.427631 
L 396.263024 187.00609 
L 397.413466 185.92765 
L 397.988686 185.607337 
L 398.563907 185.565635 
L 399.139128 185.802204 
L 400.289569 186.814478 
L 401.44001 187.846599 
L 402.015231 188.173187 
L 403.165672 188.431164 
L 404.891334 188.539384 
L 406.041776 188.900007 
L 408.342658 189.880728 
L 409.4931 189.99316 
L 411.793982 189.944243 
L 412.944424 190.312411 
L 413.519644 190.675856 
L 414.670086 191.802636 
L 415.245306 192.586297 
L 415.820527 193.567375 
L 416.395748 194.791132 
L 416.970968 196.375234 
L 417.546189 198.49724 
L 418.12141 201.44938 
L 418.69663 205.622397 
L 419.271851 211.388377 
L 420.422292 224.299583 
L 420.997513 221.630742 
L 421.572734 202.971534 
L 423.298396 104.083775 
L 423.873616 101.839237 
L 424.448837 125.886417 
L 426.174499 259.914207 
L 426.74972 275.646538 
L 427.32494 258.467278 
L 429.050602 126.831257 
L 429.625823 114.567256 
L 430.201044 129.244764 
L 431.351485 198.918781 
L 431.926706 221.631564 
L 432.501926 223.716534 
L 433.077147 210.527316 
L 433.652368 193.104696 
L 434.227588 179.967321 
L 434.802809 174.479341 
L 435.37803 175.347335 
L 435.95325 178.50172 
L 438.254133 188.863975 
L 438.829354 188.229717 
L 439.979795 177.17885 
L 440.555016 177.89879 
L 441.130236 188.945132 
L 441.705457 203.768086 
L 442.280678 210.49559 
L 442.855898 201.575601 
L 444.00634 155.287141 
L 444.58156 149.54995 
L 445.156781 169.023452 
L 445.732002 200.865638 
L 446.307222 222.902122 
L 446.882443 220.950988 
L 447.457664 195.968615 
L 448.032884 164.240619 
L 448.608105 149.265946 
L 449.183326 162.671721 
L 449.758546 193.230765 
L 450.333767 217.544113 
L 450.908988 219.041333 
L 451.484208 196.527858 
L 452.059429 164.405123 
L 452.63465 146.434364 
L 453.20987 158.09111 
L 454.360312 223.643565 
L 454.935533 232.137841 
L 455.510753 211.618917 
L 456.661195 138.916301 
L 457.236415 134.544257 
L 457.811636 164.447541 
L 458.386857 209.21058 
L 458.962077 241.004249 
L 459.537298 242.809327 
L 460.112519 214.211733 
L 461.26296 130.65656 
L 461.838181 122.790101 
L 462.413401 150.649071 
L 463.563843 238.257386 
L 464.139063 254.023205 
L 464.714284 240.072569 
L 465.289505 202.519266 
L 465.864725 155.518152 
L 466.439946 119.118021 
L 467.015167 111.860344 
L 467.590387 138.755322 
L 468.740829 238.152926 
L 469.316049 269.984783 
L 469.89127 273.299889 
L 470.466491 248.589994 
L 472.767373 79.907812 
L 473.342594 80.889077 
L 473.917815 114.533063 
L 475.643477 285.345218 
L 476.218697 307.8 
L 476.793918 299.412886 
L 477.369139 266.010017 
L 478.51958 173.597013 
L 479.094801 139.017001 
L 479.670021 121.836213 
L 480.245242 122.975403 
L 480.820463 139.027811 
L 482.546125 209.458511 
L 483.121345 219.875955 
L 483.696566 219.423452 
L 484.271787 209.928522 
L 485.997449 168.704785 
L 486.572669 163.211764 
L 487.14789 164.241911 
L 487.723111 170.526783 
L 488.873552 188.903082 
L 489.448773 195.868526 
L 490.023993 199.157512 
L 490.599214 198.524806 
L 491.174435 194.766338 
L 492.324876 183.89444 
L 492.900097 179.886455 
L 493.475317 178.154664 
L 494.050538 178.840187 
L 494.625759 181.434555 
L 495.7762 188.565282 
L 496.351421 191.247624 
L 496.926641 192.537064 
L 497.501862 192.356427 
L 498.077083 191.031971 
L 499.227524 187.24139 
L 499.802745 185.903726 
L 500.377965 185.405773 
L 500.953186 185.758551 
L 501.528407 186.762824 
L 502.678848 189.330421 
L 503.254069 190.263138 
L 503.829289 190.694789 
L 504.40451 190.59833 
L 504.979731 190.118913 
L 506.130172 188.824897 
L 506.705393 188.415383 
L 507.280613 188.337303 
L 507.855834 188.582519 
L 510.156717 190.504945 
L 510.731937 190.669157 
L 511.307158 190.625456 
L 512.457599 190.109106 
L 514.183261 189.277004 
L 515.908923 188.916327 
L 517.059365 188.591332 
L 518.209806 187.960213 
L 522.236351 184.949462 
L 523.386792 183.815854 
L 523.962013 183.024485 
L 524.537233 181.997769 
L 525.112454 180.645136 
L 525.687675 178.819389 
L 526.262895 176.289942 
L 526.838116 172.71868 
L 527.413337 167.598026 
L 527.988557 160.388407 
L 528.563778 151.386636 
L 529.138999 144.323544 
L 529.714219 148.570095 
L 530.28944 173.531564 
L 531.439881 266.427974 
L 532.015102 297.630721 
L 532.590323 295.874642 
L 533.165543 258.732599 
L 534.891205 70.271643 
L 535.466426 55.8 
L 536.041647 93.445308 
L 537.192088 250.440897 
L 537.767309 302.52436 
L 538.342529 307.787075 
L 538.91775 267.644363 
L 540.068191 138.35076 
L 540.643412 110.543138 
L 541.218633 125.562344 
L 542.369074 205.059324 
L 542.944295 223.273783 
L 543.519515 215.669356 
L 544.094736 191.768278 
L 544.669957 172.926777 
L 545.245178 176.993666 
L 546.395619 224.763601 
L 546.97084 228.209605 
L 547.54606 206.469005 
L 548.121281 169.928106 
L 548.696502 141.076824 
L 549.271722 141.371639 
L 549.846943 172.00062 
L 550.422164 211.591539 
L 550.997384 234.903857 
L 551.572605 230.238408 
L 552.723046 172.848168 
L 553.298267 160.287237 
L 553.873488 171.383496 
L 554.448708 193.477909 
L 555.023929 208.67418 
L 555.59915 207.580229 
L 556.749591 176.178667 
L 557.324812 171.098669 
L 557.900032 181.249911 
L 558.475253 198.096567 
L 559.050474 209.274971 
L 559.625694 208.226142 
L 560.200915 196.68255 
L 560.776136 182.501292 
L 561.351356 174.694607 
L 561.926577 176.923399 
L 563.077018 194.194076 
L 563.652239 199.040679 
L 564.22746 200.0626 
L 564.80268 199.050572 
L 565.377901 196.718565 
L 565.953122 191.635488 
L 567.103563 174.101687 
L 567.678784 170.684706 
L 568.254004 177.127149 
L 568.829225 193.569831 
L 569.404446 214.526523 
L 569.979666 228.446961 
L 570.554887 223.511609 
L 571.130108 198.238687 
L 571.705328 164.664921 
L 572.280549 140.35101 
L 572.85577 137.265269 
L 573.43099 157.361536 
L 574.581432 233.832231 
L 575.156652 259.544426 
L 575.731873 257.082037 
L 576.307094 225.722776 
L 577.457535 135.961811 
L 578.032756 112.588979 
L 578.607976 115.260522 
L 579.183197 141.376457 
L 580.908859 263.360799 
L 581.48408 283.24509 
L 582.0593 277.614474 
L 582.634521 244.486326 
L 584.360183 96.468067 
L 584.935404 80.246572 
L 585.510624 91.167634 
L 586.085845 123.285493 
L 587.236286 205.586676 
L 587.811507 234.199075 
L 588.386728 246.510547 
L 588.961948 242.464338 
L 589.537169 225.894095 
L 590.68761 180.747234 
L 591.262831 164.655874 
L 591.838052 158.027894 
L 592.413272 161.220092 
L 592.988493 171.994275 
L 594.138934 200.349918 
L 594.714155 210.170108 
L 595.289376 214.043587 
L 595.864596 211.915377 
L 596.439817 205.275059 
L 597.590258 188.223313 
L 598.165479 182.431754 
L 598.7407 180.247506 
L 599.31592 181.680946 
L 599.891141 185.823707 
L 601.041582 196.29559 
L 601.616803 199.827371 
L 602.192024 201.155094 
L 602.767244 200.289322 
L 603.342465 197.800108 
L 604.492906 191.562155 
L 605.068127 189.481768 
L 605.643348 188.705198 
L 606.218568 189.213528 
L 606.793789 190.660346 
L 607.94423 194.174818 
L 608.519451 195.215164 
L 609.094672 195.425905 
L 609.669892 194.83892 
L 610.820334 192.25118 
L 611.395554 190.957462 
L 611.970775 190.022367 
L 612.545996 189.573424 
L 613.121216 189.6025 
L 614.271658 190.527232 
L 614.846878 191.006896 
L 615.422099 191.280043 
L 615.99732 191.252429 
L 616.57254 190.913451 
L 618.873423 188.659313 
L 619.448644 188.379792 
L 620.023864 188.2913 
L 622.899968 188.411059 
L 625.776071 187.653284 
L 626.351292 187.71737 
L 627.501733 188.192351 
L 628.652174 188.797105 
L 629.802616 189.090411 
L 630.953057 188.964261 
L 632.103498 188.50861 
L 633.25394 187.672589 
L 633.82916 187.009251 
L 634.404381 186.072249 
L 634.979602 184.749261 
L 635.554822 182.857525 
L 636.130043 180.166053 
L 637.280485 172.628438 
L 637.855705 170.841338 
L 638.430926 175.752719 
L 639.006147 190.207925 
L 640.156588 231.213329 
L 640.731809 241.68741 
L 641.307029 238.648553 
L 641.88225 223.507026 
L 643.032691 180.192679 
L 643.607912 165.496253 
L 644.183133 160.797082 
L 644.758353 164.948455 
L 645.333574 174.385927 
L 647.634457 220.374402 
L 648.209677 226.559866 
L 648.784898 224.734108 
L 649.360119 211.262414 
L 650.51056 166.09869 
L 651.085781 155.445535 
L 651.661001 162.346591 
L 652.236222 184.782796 
L 652.811443 212.560467 
L 653.386663 229.605538 
L 653.961884 224.420728 
L 655.112325 176.236831 
L 655.687546 166.660824 
L 656.262767 178.315678 
L 657.413208 225.101657 
L 657.988429 221.923911 
L 659.13887 163.383083 
L 659.714091 151.680628 
L 660.289311 168.41702 
L 661.439753 236.366061 
L 662.014973 239.361677 
L 662.590194 211.286384 
L 663.165415 173.823793 
L 663.740635 152.663892 
L 664.315856 159.393864 
L 665.466297 216.998312 
L 666.041518 226.695112 
L 666.616739 212.274583 
L 667.191959 187.734302 
L 667.76718 171.298188 
L 668.342401 172.01425 
L 669.492842 204.893645 
L 670.068063 212.668569 
L 670.643283 205.927787 
L 671.218504 191.324588 
L 671.793725 179.814191 
L 672.368945 178.04655 
L 672.944166 185.791088 
L 673.519387 197.632161 
L 674.094607 205.901819 
L 674.669828 205.574456 
L 675.245049 197.857355 
L 675.820269 188.554272 
L 676.39549 182.947168 
L 676.970711 182.779139 
L 677.545931 186.709031 
L 678.121152 192.018442 
L 678.696373 196.292735 
L 679.271593 198.832769 
L 679.846814 200.349131 
L 680.422035 201.151792 
L 680.997255 200.322293 
L 681.572476 196.65784 
L 682.147697 189.844968 
L 683.298138 172.774846 
L 683.873359 169.926461 
L 684.448579 176.631405 
L 685.0238 192.594605 
L 685.599021 212.008674 
L 686.174241 226.677722 
L 686.749462 230.500792 
L 687.324683 221.932254 
L 687.899903 203.577966 
L 689.050345 157.828139 
L 689.625565 140.739709 
L 690.200786 134.369883 
L 690.776007 144.15763 
L 691.351227 171.558575 
L 692.501669 249.441184 
L 693.076889 276.367887 
L 693.65211 283.669158 
L 694.227331 270.490985 
L 694.802551 242.314522 
L 695.952993 178.520944 
L 696.528213 159.46413 
L 697.103434 154.162052 
L 697.678655 161.637462 
L 698.829096 197.096595 
L 699.404317 213.768865 
L 699.979537 223.679403 
L 700.554758 224.955248 
L 701.129979 218.19543 
L 702.855641 180.090123 
L 703.430861 172.50694 
L 704.006082 170.467326 
L 704.581303 173.496666 
L 706.306965 194.024931 
L 706.882185 197.868635 
L 707.457406 198.430099 
L 708.032627 196.009177 
L 709.758289 182.379324 
L 710.333509 179.753019 
L 710.90873 179.145882 
L 711.483951 180.369674 
L 713.209613 187.897361 
L 713.784833 189.219272 
L 714.360054 189.322052 
L 714.935275 188.339324 
L 716.660937 183.411551 
L 717.236157 182.568315 
L 717.811378 182.480153 
L 718.386599 183.063766 
L 720.112261 186.17504 
L 720.687481 186.765374 
L 721.262702 186.910349 
L 721.837923 186.663593 
L 723.563585 185.180837 
L 724.138805 184.968815 
L 724.714026 185.021186 
L 725.289247 185.303886 
L 727.014909 186.559462 
L 727.59013 186.811447 
L 728.16535 186.915449 
L 731.041454 186.938644 
L 731.616674 187.224187 
L 732.767116 188.146502 
L 734.492778 189.737641 
L 736.21844 190.910445 
L 737.944102 192.125792 
L 739.669764 193.734394 
L 740.820205 195.043304 
L 741.970646 196.776059 
L 742.545867 198.036523 
L 743.121088 199.771311 
L 743.696308 202.194136 
L 744.271529 205.64296 
L 744.84675 210.527434 
L 745.997191 223.9788 
L 746.572412 226.385022 
L 747.147632 215.661013 
L 747.722853 186.998923 
L 748.873294 109.541544 
L 749.448515 92.120346 
L 750.023736 102.320058 
L 750.598956 137.486292 
L 751.749398 235.879717 
L 752.324618 267.905807 
L 752.899839 270.832918 
L 753.47506 244.067076 
L 754.625501 156.460877 
L 755.200722 127.810172 
L 755.775942 120.01351 
L 756.351163 131.308935 
L 758.652046 219.998511 
L 759.227266 226.186442 
L 759.802487 220.464762 
L 760.377708 203.654108 
L 761.528149 158.379815 
L 762.10337 147.704217 
L 762.67859 153.404864 
L 763.829032 190.813254 
L 764.404252 202.028927 
L 764.979473 200.861243 
L 766.129914 180.354281 
L 766.705135 179.65904 
L 767.855576 197.539204 
L 768.430797 197.557605 
L 769.006018 185.456158 
L 769.581238 166.751183 
L 770.156459 154.81948 
L 770.73168 162.042024 
L 771.882121 212.405481 
L 772.457342 221.335222 
L 773.032562 206.808588 
L 774.183004 150.67551 
L 774.758224 149.805871 
L 775.333445 175.346982 
L 775.908666 207.744028 
L 776.483886 223.800196 
L 777.059107 212.855516 
L 778.209548 149.774381 
L 778.784769 143.098812 
L 779.35999 167.652782 
L 779.93521 205.685966 
L 780.510431 230.724753 
L 781.085652 227.040688 
L 781.660872 196.056167 
L 782.236093 155.219107 
L 782.811314 131.561331 
L 783.386534 143.458958 
L 784.536976 227.25795 
L 785.112196 246.508549 
L 785.687417 231.848549 
L 787.413079 113.333359 
L 787.9883 126.044223 
L 789.713962 261.273127 
L 790.289182 261.899299 
L 790.864403 230.472474 
L 792.014844 129.197763 
L 792.590065 101.601293 
L 793.165286 109.272463 
L 793.740506 147.20671 
L 794.890948 240.885101 
L 795.466168 263.427658 
L 796.041389 260.97232 
L 796.61661 237.232174 
L 798.342272 133.664631 
L 798.917492 119.367362 
L 799.492713 124.147493 
L 800.067934 145.790096 
L 801.218375 207.324895 
L 801.793596 229.133177 
L 802.368816 237.47893 
L 802.944037 232.049361 
L 803.519258 216.262157 
L 804.669699 176.134603 
L 805.24492 162.075395 
L 805.82014 155.905911 
L 806.395361 157.783958 
L 806.970582 165.917501 
L 808.121023 188.554612 
L 808.696244 196.912715 
L 809.271464 200.740932 
L 809.846685 199.837289 
L 810.421906 195.235985 
L 811.572347 182.489025 
L 812.147568 178.033519 
L 812.722788 176.33095 
L 813.298009 177.448519 
L 813.87323 180.712946 
L 815.023671 189.131533 
L 815.598892 192.076476 
L 816.174112 193.336518 
L 816.749333 192.886458 
L 817.324554 191.12555 
L 818.474995 186.494001 
L 819.050216 184.950673 
L 819.625437 184.420641 
L 820.200657 184.907737 
L 820.775878 186.152338 
L 821.926319 189.249617 
L 822.50154 190.323859 
L 823.076761 190.787745 
L 823.651981 190.651205 
L 824.227202 190.080283 
L 825.377643 188.629652 
L 825.952864 188.209683 
L 826.528085 188.167347 
L 827.103305 188.485638 
L 828.253747 189.773799 
L 828.828967 190.430669 
L 829.404188 190.918142 
L 829.979409 191.142952 
L 830.554629 191.109875 
L 831.705071 190.563677 
L 832.855512 189.980646 
L 833.430733 189.861628 
L 834.581174 189.952058 
L 836.306836 190.225933 
L 837.457277 190.050906 
L 842.059043 188.38723 
L 843.209484 187.823134 
L 844.359925 186.963213 
L 846.085587 185.219966 
L 848.38647 182.529399 
L 849.536911 180.941196 
L 850.687353 178.823878 
L 851.262573 177.3638 
L 851.837794 175.47177 
L 852.413015 172.929362 
L 852.988235 169.417791 
L 853.563456 164.546126 
L 854.713897 151.797426 
L 855.289118 150.712405 
L 855.864339 163.379088 
L 856.439559 193.595764 
L 857.590001 269.875036 
L 858.165221 284.488505 
L 858.740442 270.529409 
L 859.315663 230.869281 
L 860.466104 122.465558 
L 861.041325 89.121088 
L 861.616545 93.833419 
L 862.191766 139.293837 
L 863.342207 266.738416 
L 863.917428 293.122844 
L 864.492649 276.961981 
L 865.067869 225.770835 
L 865.64309 162.509098 
L 866.218311 119.467005 
L 866.793531 118.97314 
L 867.368752 156.180515 
L 867.943973 204.183811 
L 868.519193 235.400893 
L 869.094414 236.471109 
L 869.669635 210.706273 
L 870.244855 176.95442 
L 870.820076 160.565367 
L 871.395297 173.117719 
L 871.970517 202.171811 
L 872.545738 223.955065 
L 873.120959 223.127257 
L 873.696179 199.871165 
L 874.2714 168.491047 
L 874.846621 151.182417 
L 875.421841 161.748502 
L 876.572283 220.970964 
L 877.147503 229.620696 
L 877.722724 215.137773 
L 878.297945 188.267577 
L 878.873165 167.624229 
L 879.448386 166.218543 
L 880.598827 199.166371 
L 881.174048 208.321084 
L 881.749269 206.014269 
L 882.89971 188.564083 
L 883.474931 184.262682 
L 884.050151 183.438165 
L 884.625372 184.536769 
L 885.200593 187.601583 
L 885.775813 193.59567 
L 886.351034 202.053368 
L 886.926255 208.313681 
L 887.501475 205.565056 
L 888.076696 192.441769 
L 888.651917 176.360326 
L 889.227137 167.800601 
L 889.802358 172.843703 
L 890.952799 210.957376 
L 891.52802 221.429342 
L 892.103241 213.437625 
L 893.253682 170.100483 
L 893.828903 161.11763 
L 894.404123 169.230139 
L 895.554565 214.684095 
L 896.129785 226.767024 
L 896.705006 218.19167 
L 897.855447 166.193632 
L 898.430668 151.185942 
L 899.005889 154.955784 
L 899.581109 176.284302 
L 900.731551 236.790599 
L 901.306771 248.545813 
L 901.881992 234.717732 
L 903.607654 129.818765 
L 904.182875 121.1715 
L 904.758095 135.398502 
L 905.333316 167.0299 
L 906.483757 244.045456 
L 907.058978 270.101464 
L 907.634199 276.426756 
L 908.209419 257.859083 
L 908.78464 217.515677 
L 909.935082 122.314685 
L 910.510302 95.786081 
L 911.085523 93.666213 
L 911.660744 114.073627 
L 913.386406 218.528433 
L 913.961626 236.74301 
L 914.536847 239.572595 
L 915.112068 228.959038 
L 916.83773 170.714082 
L 917.41295 160.841028 
L 917.988171 160.305215 
L 918.563392 168.019861 
L 920.289054 206.620584 
L 920.864274 213.201797 
L 921.439495 213.957222 
L 922.014716 209.666961 
L 923.740378 187.570092 
L 924.315598 183.947939 
L 924.890819 183.766021 
L 925.46604 186.536808 
L 927.191702 199.821132 
L 927.766922 201.834225 
L 928.342143 201.732585 
L 928.917364 199.82159 
L 930.643026 191.111109 
L 931.218246 189.686987 
L 931.793467 189.520189 
L 932.368688 190.418225 
L 934.09435 194.92331 
L 934.66957 195.479122 
L 935.244791 195.24065 
L 935.820012 194.362141 
L 937.545674 190.814771 
L 938.120894 190.183009 
L 938.696115 190.00563 
L 939.271336 190.185345 
L 940.996998 191.437767 
L 941.572218 191.564705 
L 942.147439 191.448142 
L 943.29788 190.683809 
L 944.448322 189.868284 
L 945.023542 189.665733 
L 945.598763 189.639439 
L 946.749204 189.967521 
L 947.899646 190.237041 
L 948.474866 190.207721 
L 949.050087 190.03438 
L 950.200528 189.384314 
L 951.92619 188.388322 
L 953.076632 188.001903 
L 958.828838 186.844336 
L 959.97928 186.793058 
L 960.5545 186.655297 
L 961.129721 186.366123 
L 961.704942 185.883375 
L 962.855383 184.558719 
L 963.430604 184.609527 
L 964.005824 186.634699 
L 964.581045 191.430364 
L 965.731486 203.733188 
L 966.306707 206.786732 
L 966.881928 206.727746 
L 968.032369 202.484955 
L 968.60759 201.797682 
L 969.18281 203.036396 
L 969.758031 203.699347 
L 970.333252 199.048563 
L 970.908472 186.929067 
L 971.483693 171.674667 
L 972.058914 162.264574 
L 972.634134 166.06955 
L 973.209355 184.751952 
L 974.359796 240.152589 
L 974.935017 247.870994 
L 975.510238 227.199904 
L 976.660679 150.569052 
L 977.2359 137.267854 
L 977.81112 153.893676 
L 978.961562 230.589389 
L 979.536782 244.603242 
L 980.112003 226.41146 
L 980.687224 191.65067 
L 981.262444 164.754693 
L 981.837665 160.696735 
L 982.412886 179.300586 
L 982.988106 206.570762 
L 983.563327 221.798301 
L 984.138548 213.656768 
L 985.288989 170.756266 
L 985.86421 168.813005 
L 986.43943 185.398629 
L 987.014651 209.294242 
L 987.589872 222.698842 
L 988.165092 214.626753 
L 989.315534 170.385192 
L 989.890754 166.124423 
L 990.465975 180.856605 
L 991.041196 204.721386 
L 991.616416 220.404483 
L 992.191637 215.968518 
L 993.342078 174.980491 
L 993.917299 167.917398 
L 994.49252 177.702325 
L 995.642961 213.152563 
L 996.218182 214.636859 
L 996.218182 214.636859 
" style="fill:none;stroke:#4c72b0;stroke-linecap:round;stroke-width:1.4;"/>
   </g>
   <g id="patch_3">
    <path d="M 144 320.4 
L 144 43.2 
" style="fill:none;"/>
   </g>
   <g id="patch_4">
    <path d="M 1036.8 320.4 
L 1036.8 43.2 
" style="fill:none;"/>
   </g>
   <g id="patch_5">
    <path d="M 144 320.4 
L 1036.8 320.4 
" style="fill:none;"/>
   </g>
   <g id="patch_6">
    <path d="M 144 43.2 
L 1036.8 43.2 
" style="fill:none;"/>
   </g>
  </g>
 </g>
 <defs>
  <clipPath id="p95185f400f">
   <rect height="277.2" width="892.8" x="144" y="43.2"/>
  </clipPath>
 </defs>
</svg>
