<?xml version="1.0" encoding="utf-8" standalone="no"?>
<!DOCTYPE svg PUBLIC "-//W3C//DTD SVG 1.1//EN"
  "http://www.w3.org/Graphics/SVG/1.1/DTD/svg11.dtd">
<!-- Created with matplotlib (http://matplotlib.org/) -->
<svg height="360pt" version="1.1" viewBox="0 0 1152 360" width="1152pt" xmlns="http://www.w3.org/2000/svg" xmlns:xlink="http://www.w3.org/1999/xlink">
 <defs>
  <style type="text/css">
*{stroke-linecap:butt;stroke-linejoin:round;}
  </style>
 </defs>
 <g id="figure_1">
  <g id="patch_1">
   <path d="M 0 360 
L 1152 360 
L 1152 0 
L 0 0 
z
" style="fill:#ffffff;"/>
  </g>
  <g id="axes_1">
   <g id="patch_2">
    <path d="M 144 320.4 
L 1036.8 320.4 
L 1036.8 43.2 
L 144 43.2 
z
" style="fill:#eaeaf2;"/>
   </g>
   <g id="matplotlib.axis_1">
    <g id="xtick_1">
     <g id="line2d_1">
      <path clip-path="url(#p98bedf65ad)" d="M 184.581818 320.4 
L 184.581818 43.2 
" style="fill:none;stroke:#ffffff;stroke-linecap:round;stroke-width:0.8;"/>
     </g>
     <g id="line2d_2"/>
     <g id="text_1">
      <!-- 0.000 -->
      <defs>
       <path d="M 51.703125 34.421875 
Q 51.703125 24.515625 49.828125 17.75 
Q 47.953125 10.984375 44.703125 6.8125 
Q 41.453125 2.640625 37.0625 0.828125 
Q 32.671875 -0.984375 27.6875 -0.984375 
Q 22.65625 -0.984375 18.3125 0.828125 
Q 13.96875 2.640625 10.765625 6.78125 
Q 7.5625 10.9375 5.734375 17.703125 
Q 3.90625 24.46875 3.90625 34.421875 
Q 3.90625 44.828125 5.734375 51.640625 
Q 7.5625 58.453125 10.78125 62.5 
Q 14.015625 66.546875 18.40625 68.1875 
Q 22.796875 69.828125 27.984375 69.828125 
Q 32.90625 69.828125 37.21875 68.1875 
Q 41.546875 66.546875 44.765625 62.5 
Q 48 58.453125 49.84375 51.640625 
Q 51.703125 44.828125 51.703125 34.421875 
M 42.78125 34.421875 
Q 42.78125 42.625 41.796875 48.0625 
Q 40.828125 53.515625 38.921875 56.765625 
Q 37.015625 60.015625 34.25 61.359375 
Q 31.5 62.703125 27.984375 62.703125 
Q 24.265625 62.703125 21.4375 61.328125 
Q 18.609375 59.96875 16.671875 56.71875 
Q 14.75 53.46875 13.765625 48.015625 
Q 12.796875 42.578125 12.796875 34.421875 
Q 12.796875 26.515625 13.796875 21.09375 
Q 14.796875 15.671875 16.71875 12.375 
Q 18.65625 9.078125 21.4375 7.640625 
Q 24.21875 6.203125 27.78125 6.203125 
Q 31.25 6.203125 34.03125 7.640625 
Q 36.8125 9.078125 38.734375 12.375 
Q 40.671875 15.671875 41.71875 21.09375 
Q 42.78125 26.515625 42.78125 34.421875 
" id="LiberationSans-30"/>
       <path d="M 9.125 0 
L 9.125 10.6875 
L 18.65625 10.6875 
L 18.65625 0 
z
" id="LiberationSans-2e"/>
      </defs>
      <g style="fill:#262626;" transform="translate(174.573068 331.7975)scale(0.08 -0.08)">
       <use xlink:href="#LiberationSans-30"/>
       <use x="55.615234" xlink:href="#LiberationSans-2e"/>
       <use x="83.398438" xlink:href="#LiberationSans-30"/>
       <use x="139.013672" xlink:href="#LiberationSans-30"/>
       <use x="194.628906" xlink:href="#LiberationSans-30"/>
      </g>
     </g>
    </g>
    <g id="xtick_2">
     <g id="line2d_3">
      <path clip-path="url(#p98bedf65ad)" d="M 311.238448 320.4 
L 311.238448 43.2 
" style="fill:none;stroke:#ffffff;stroke-linecap:round;stroke-width:0.8;"/>
     </g>
     <g id="line2d_4"/>
     <g id="text_2">
      <!-- 0.005 -->
      <defs>
       <path d="M 51.421875 22.40625 
Q 51.421875 17.234375 49.859375 12.9375 
Q 48.296875 8.640625 45.21875 5.53125 
Q 42.140625 2.4375 37.578125 0.71875 
Q 33.015625 -0.984375 27 -0.984375 
Q 21.578125 -0.984375 17.546875 0.28125 
Q 13.53125 1.5625 10.734375 3.78125 
Q 7.953125 6 6.3125 8.984375 
Q 4.6875 11.96875 4 15.375 
L 12.890625 16.40625 
Q 13.421875 14.453125 14.390625 12.625 
Q 15.375 10.796875 17.0625 9.34375 
Q 18.75 7.90625 21.21875 7.046875 
Q 23.6875 6.203125 27.203125 6.203125 
Q 30.609375 6.203125 33.390625 7.25 
Q 36.1875 8.296875 38.15625 10.34375 
Q 40.140625 12.40625 41.203125 15.375 
Q 42.28125 18.359375 42.28125 22.21875 
Q 42.28125 25.390625 41.25 28.046875 
Q 40.234375 30.71875 38.328125 32.640625 
Q 36.421875 34.578125 33.65625 35.640625 
Q 30.90625 36.71875 27.390625 36.71875 
Q 25.203125 36.71875 23.34375 36.328125 
Q 21.484375 35.9375 19.890625 35.25 
Q 18.3125 34.578125 17.015625 33.671875 
Q 15.71875 32.765625 14.59375 31.78125 
L 6 31.78125 
L 8.296875 68.796875 
L 47.40625 68.796875 
L 47.40625 61.328125 
L 16.3125 61.328125 
L 14.984375 39.5 
Q 17.328125 41.3125 20.84375 42.59375 
Q 24.359375 43.890625 29.203125 43.890625 
Q 34.328125 43.890625 38.421875 42.328125 
Q 42.53125 40.765625 45.40625 37.90625 
Q 48.296875 35.0625 49.859375 31.109375 
Q 51.421875 27.15625 51.421875 22.40625 
" id="LiberationSans-35"/>
      </defs>
      <g style="fill:#262626;" transform="translate(301.229698 331.7975)scale(0.08 -0.08)">
       <use xlink:href="#LiberationSans-30"/>
       <use x="55.615234" xlink:href="#LiberationSans-2e"/>
       <use x="83.398438" xlink:href="#LiberationSans-30"/>
       <use x="139.013672" xlink:href="#LiberationSans-30"/>
       <use x="194.628906" xlink:href="#LiberationSans-35"/>
      </g>
     </g>
    </g>
    <g id="xtick_3">
     <g id="line2d_5">
      <path clip-path="url(#p98bedf65ad)" d="M 437.895078 320.4 
L 437.895078 43.2 
" style="fill:none;stroke:#ffffff;stroke-linecap:round;stroke-width:0.8;"/>
     </g>
     <g id="line2d_6"/>
     <g id="text_3">
      <!-- 0.010 -->
      <defs>
       <path d="M 7.625 0 
L 7.625 7.46875 
L 25.140625 7.46875 
L 25.140625 60.40625 
L 9.625 49.3125 
L 9.625 57.625 
L 25.875 68.796875 
L 33.984375 68.796875 
L 33.984375 7.46875 
L 50.734375 7.46875 
L 50.734375 0 
z
" id="LiberationSans-31"/>
      </defs>
      <g style="fill:#262626;" transform="translate(427.886328 331.7975)scale(0.08 -0.08)">
       <use xlink:href="#LiberationSans-30"/>
       <use x="55.615234" xlink:href="#LiberationSans-2e"/>
       <use x="83.398438" xlink:href="#LiberationSans-30"/>
       <use x="139.013672" xlink:href="#LiberationSans-31"/>
       <use x="194.628906" xlink:href="#LiberationSans-30"/>
      </g>
     </g>
    </g>
    <g id="xtick_4">
     <g id="line2d_7">
      <path clip-path="url(#p98bedf65ad)" d="M 564.551708 320.4 
L 564.551708 43.2 
" style="fill:none;stroke:#ffffff;stroke-linecap:round;stroke-width:0.8;"/>
     </g>
     <g id="line2d_8"/>
     <g id="text_4">
      <!-- 0.015 -->
      <g style="fill:#262626;" transform="translate(554.542958 331.7975)scale(0.08 -0.08)">
       <use xlink:href="#LiberationSans-30"/>
       <use x="55.615234" xlink:href="#LiberationSans-2e"/>
       <use x="83.398438" xlink:href="#LiberationSans-30"/>
       <use x="139.013672" xlink:href="#LiberationSans-31"/>
       <use x="194.628906" xlink:href="#LiberationSans-35"/>
      </g>
     </g>
    </g>
    <g id="xtick_5">
     <g id="line2d_9">
      <path clip-path="url(#p98bedf65ad)" d="M 691.208338 320.4 
L 691.208338 43.2 
" style="fill:none;stroke:#ffffff;stroke-linecap:round;stroke-width:0.8;"/>
     </g>
     <g id="line2d_10"/>
     <g id="text_5">
      <!-- 0.020 -->
      <defs>
       <path d="M 5.03125 0 
L 5.03125 6.203125 
Q 7.515625 11.921875 11.109375 16.28125 
Q 14.703125 20.65625 18.65625 24.1875 
Q 22.609375 27.734375 26.484375 30.765625 
Q 30.375 33.796875 33.5 36.8125 
Q 36.625 39.84375 38.546875 43.15625 
Q 40.484375 46.484375 40.484375 50.6875 
Q 40.484375 53.609375 39.59375 55.828125 
Q 38.71875 58.0625 37.0625 59.5625 
Q 35.40625 61.078125 33.078125 61.828125 
Q 30.765625 62.59375 27.9375 62.59375 
Q 25.296875 62.59375 22.96875 61.859375 
Q 20.65625 61.140625 18.84375 59.671875 
Q 17.046875 58.203125 15.890625 56.03125 
Q 14.75 53.859375 14.40625 50.984375 
L 5.421875 51.8125 
Q 5.859375 55.515625 7.46875 58.78125 
Q 9.078125 62.0625 11.90625 64.53125 
Q 14.75 67 18.71875 68.40625 
Q 22.703125 69.828125 27.9375 69.828125 
Q 33.0625 69.828125 37.0625 68.609375 
Q 41.0625 67.390625 43.8125 64.984375 
Q 46.578125 62.59375 48.046875 59.078125 
Q 49.515625 55.5625 49.515625 50.984375 
Q 49.515625 47.515625 48.265625 44.390625 
Q 47.015625 41.265625 44.9375 38.421875 
Q 42.875 35.59375 40.140625 32.953125 
Q 37.40625 30.328125 34.421875 27.8125 
Q 31.453125 25.296875 28.421875 22.828125 
Q 25.390625 20.359375 22.71875 17.859375 
Q 20.0625 15.375 17.96875 12.8125 
Q 15.875 10.25 14.703125 7.46875 
L 50.59375 7.46875 
L 50.59375 0 
z
" id="LiberationSans-32"/>
      </defs>
      <g style="fill:#262626;" transform="translate(681.199588 331.7975)scale(0.08 -0.08)">
       <use xlink:href="#LiberationSans-30"/>
       <use x="55.615234" xlink:href="#LiberationSans-2e"/>
       <use x="83.398438" xlink:href="#LiberationSans-30"/>
       <use x="139.013672" xlink:href="#LiberationSans-32"/>
       <use x="194.628906" xlink:href="#LiberationSans-30"/>
      </g>
     </g>
    </g>
    <g id="xtick_6">
     <g id="line2d_11">
      <path clip-path="url(#p98bedf65ad)" d="M 817.864968 320.4 
L 817.864968 43.2 
" style="fill:none;stroke:#ffffff;stroke-linecap:round;stroke-width:0.8;"/>
     </g>
     <g id="line2d_12"/>
     <g id="text_6">
      <!-- 0.025 -->
      <g style="fill:#262626;" transform="translate(807.856218 331.7975)scale(0.08 -0.08)">
       <use xlink:href="#LiberationSans-30"/>
       <use x="55.615234" xlink:href="#LiberationSans-2e"/>
       <use x="83.398438" xlink:href="#LiberationSans-30"/>
       <use x="139.013672" xlink:href="#LiberationSans-32"/>
       <use x="194.628906" xlink:href="#LiberationSans-35"/>
      </g>
     </g>
    </g>
    <g id="xtick_7">
     <g id="line2d_13">
      <path clip-path="url(#p98bedf65ad)" d="M 944.521598 320.4 
L 944.521598 43.2 
" style="fill:none;stroke:#ffffff;stroke-linecap:round;stroke-width:0.8;"/>
     </g>
     <g id="line2d_14"/>
     <g id="text_7">
      <!-- 0.030 -->
      <defs>
       <path d="M 51.21875 19 
Q 51.21875 14.265625 49.671875 10.546875 
Q 48.140625 6.84375 45.1875 4.265625 
Q 42.234375 1.703125 37.859375 0.359375 
Q 33.5 -0.984375 27.875 -0.984375 
Q 21.484375 -0.984375 17.109375 0.609375 
Q 12.75 2.203125 9.90625 4.8125 
Q 7.078125 7.421875 5.65625 10.765625 
Q 4.25 14.109375 3.8125 17.671875 
L 12.890625 18.5 
Q 13.28125 15.765625 14.328125 13.515625 
Q 15.375 11.28125 17.1875 9.671875 
Q 19 8.0625 21.625 7.171875 
Q 24.265625 6.296875 27.875 6.296875 
Q 34.515625 6.296875 38.296875 9.5625 
Q 42.09375 12.84375 42.09375 19.28125 
Q 42.09375 23.09375 40.40625 25.40625 
Q 38.71875 27.734375 36.203125 29.03125 
Q 33.6875 30.328125 30.734375 30.765625 
Q 27.78125 31.203125 25.296875 31.203125 
L 20.3125 31.203125 
L 20.3125 38.8125 
L 25.09375 38.8125 
Q 27.59375 38.8125 30.265625 39.328125 
Q 32.953125 39.84375 35.171875 41.1875 
Q 37.40625 42.53125 38.84375 44.828125 
Q 40.28125 47.125 40.28125 50.6875 
Q 40.28125 56.203125 37.03125 59.390625 
Q 33.796875 62.59375 27.390625 62.59375 
Q 21.578125 62.59375 17.984375 59.609375 
Q 14.40625 56.640625 13.8125 51.21875 
L 4.984375 51.90625 
Q 5.515625 56.453125 7.46875 59.8125 
Q 9.421875 63.1875 12.421875 65.40625 
Q 15.4375 67.625 19.28125 68.71875 
Q 23.140625 69.828125 27.484375 69.828125 
Q 33.25 69.828125 37.390625 68.375 
Q 41.546875 66.9375 44.1875 64.46875 
Q 46.828125 62.015625 48.0625 58.6875 
Q 49.3125 55.375 49.3125 51.609375 
Q 49.3125 48.578125 48.484375 45.9375 
Q 47.65625 43.3125 45.890625 41.203125 
Q 44.140625 39.109375 41.421875 37.59375 
Q 38.71875 36.078125 34.90625 35.296875 
L 34.90625 35.109375 
Q 39.0625 34.671875 42.140625 33.21875 
Q 45.21875 31.78125 47.21875 29.625 
Q 49.21875 27.484375 50.21875 24.75 
Q 51.21875 22.015625 51.21875 19 
" id="LiberationSans-33"/>
      </defs>
      <g style="fill:#262626;" transform="translate(934.512848 331.7975)scale(0.08 -0.08)">
       <use xlink:href="#LiberationSans-30"/>
       <use x="55.615234" xlink:href="#LiberationSans-2e"/>
       <use x="83.398438" xlink:href="#LiberationSans-30"/>
       <use x="139.013672" xlink:href="#LiberationSans-33"/>
       <use x="194.628906" xlink:href="#LiberationSans-30"/>
      </g>
     </g>
    </g>
   </g>
   <g id="matplotlib.axis_2">
    <g id="ytick_1">
     <g id="line2d_15">
      <path clip-path="url(#p98bedf65ad)" d="M 144 287.15426 
L 1036.8 287.15426 
" style="fill:none;stroke:#ffffff;stroke-linecap:round;stroke-width:0.8;"/>
     </g>
     <g id="line2d_16"/>
     <g id="text_8">
      <!-- −5 -->
      <defs>
       <path d="M 4.9375 29.6875 
L 4.9375 36.8125 
L 53.515625 36.8125 
L 53.515625 29.6875 
z
" id="LiberationSans-2212"/>
      </defs>
      <g style="fill:#262626;" transform="translate(129.27875 290.05301)scale(0.08 -0.08)">
       <use xlink:href="#LiberationSans-2212"/>
       <use x="58.398438" xlink:href="#LiberationSans-35"/>
      </g>
     </g>
    </g>
    <g id="ytick_2">
     <g id="line2d_17">
      <path clip-path="url(#p98bedf65ad)" d="M 144 245.68981 
L 1036.8 245.68981 
" style="fill:none;stroke:#ffffff;stroke-linecap:round;stroke-width:0.8;"/>
     </g>
     <g id="line2d_18"/>
     <g id="text_9">
      <!-- 0 -->
      <g style="fill:#262626;" transform="translate(133.95125 248.58856)scale(0.08 -0.08)">
       <use xlink:href="#LiberationSans-30"/>
      </g>
     </g>
    </g>
    <g id="ytick_3">
     <g id="line2d_19">
      <path clip-path="url(#p98bedf65ad)" d="M 144 204.22536 
L 1036.8 204.22536 
" style="fill:none;stroke:#ffffff;stroke-linecap:round;stroke-width:0.8;"/>
     </g>
     <g id="line2d_20"/>
     <g id="text_10">
      <!-- 5 -->
      <g style="fill:#262626;" transform="translate(133.95125 207.12411)scale(0.08 -0.08)">
       <use xlink:href="#LiberationSans-35"/>
      </g>
     </g>
    </g>
    <g id="ytick_4">
     <g id="line2d_21">
      <path clip-path="url(#p98bedf65ad)" d="M 144 162.76091 
L 1036.8 162.76091 
" style="fill:none;stroke:#ffffff;stroke-linecap:round;stroke-width:0.8;"/>
     </g>
     <g id="line2d_22"/>
     <g id="text_11">
      <!-- 10 -->
      <g style="fill:#262626;" transform="translate(129.5025 165.65966)scale(0.08 -0.08)">
       <use xlink:href="#LiberationSans-31"/>
       <use x="55.615234" xlink:href="#LiberationSans-30"/>
      </g>
     </g>
    </g>
    <g id="ytick_5">
     <g id="line2d_23">
      <path clip-path="url(#p98bedf65ad)" d="M 144 121.29646 
L 1036.8 121.29646 
" style="fill:none;stroke:#ffffff;stroke-linecap:round;stroke-width:0.8;"/>
     </g>
     <g id="line2d_24"/>
     <g id="text_12">
      <!-- 15 -->
      <g style="fill:#262626;" transform="translate(129.5025 124.19521)scale(0.08 -0.08)">
       <use xlink:href="#LiberationSans-31"/>
       <use x="55.615234" xlink:href="#LiberationSans-35"/>
      </g>
     </g>
    </g>
    <g id="ytick_6">
     <g id="line2d_25">
      <path clip-path="url(#p98bedf65ad)" d="M 144 79.832011 
L 1036.8 79.832011 
" style="fill:none;stroke:#ffffff;stroke-linecap:round;stroke-width:0.8;"/>
     </g>
     <g id="line2d_26"/>
     <g id="text_13">
      <!-- 20 -->
      <g style="fill:#262626;" transform="translate(129.5025 82.730761)scale(0.08 -0.08)">
       <use xlink:href="#LiberationSans-32"/>
       <use x="55.615234" xlink:href="#LiberationSans-30"/>
      </g>
     </g>
    </g>
   </g>
   <g id="line2d_27">
    <path clip-path="url(#p98bedf65ad)" d="M 184.581818 148.014973 
L 186.879444 86.943319 
L 187.453851 75.074413 
L 188.028257 66.485808 
L 188.602664 61.874385 
L 189.17707 61.703023 
L 189.751477 66.167914 
L 190.325883 75.182346 
L 190.90029 88.378009 
L 192.049102 124.561398 
L 194.346728 207.163526 
L 194.921135 223.220776 
L 195.495541 235.393121 
L 196.069948 242.972592 
L 196.644354 245.510191 
L 197.218761 242.843447 
L 197.793167 235.106696 
L 198.367574 222.723449 
L 199.516387 186.990931 
L 202.388419 84.250797 
L 202.962826 70.409241 
L 203.537232 60.823876 
L 204.111639 55.909973 
L 204.686045 55.8 
L 205.260452 60.3393 
L 205.834858 69.099444 
L 206.409265 81.408367 
L 207.558078 113.047883 
L 209.281297 162.145476 
L 209.855704 174.846023 
L 210.43011 184.367686 
L 211.004517 190.217736 
L 211.578923 192.161694 
L 212.153329 190.236352 
L 212.727736 184.745399 
L 213.302142 176.237944 
L 214.450955 153.36061 
L 215.599768 129.185444 
L 216.174175 119.16666 
L 216.748581 111.759495 
L 217.322988 107.696365 
L 217.897394 107.494469 
L 218.471801 111.419664 
L 219.046207 119.466216 
L 219.620614 131.353764 
L 220.769427 164.260479 
L 223.067053 239.898439 
L 223.641459 254.475385 
L 224.215866 265.340076 
L 224.790272 271.79712 
L 225.364679 273.40018 
L 225.939085 269.981974 
L 226.513492 261.667355 
L 227.087898 248.868593 
L 228.236711 212.75497 
L 230.534337 128.50517 
L 231.108743 111.818396 
L 231.68315 98.952324 
L 232.257556 90.6154 
L 232.831963 87.25378 
L 233.406369 89.026273 
L 233.980776 95.796744 
L 234.555182 107.144387 
L 235.129589 122.3912 
L 236.278402 160.85474 
L 238.001621 221.732299 
L 238.576028 238.442939 
L 239.150434 251.8455 
L 239.724841 261.335724 
L 240.299247 266.567876 
L 240.873654 267.472636 
L 241.44806 264.257527 
L 242.022467 257.389946 
L 242.596873 247.563923 
L 244.320093 209.606302 
L 245.468906 187.450026 
L 246.043312 180.099811 
L 246.617719 176.115906 
L 247.192125 175.872193 
L 247.766532 179.48006 
L 248.340938 186.78035 
L 248.915345 197.352726 
L 250.064157 225.49886 
L 251.787377 270.77916 
L 252.361783 282.50309 
L 252.93619 290.974656 
L 253.510596 295.496573 
L 254.085003 295.604735 
L 254.659409 291.101019 
L 255.233816 282.069664 
L 255.808222 268.876118 
L 256.957035 232.741737 
L 259.254661 150.334992 
L 259.829068 134.333052 
L 260.403474 122.215335 
L 260.977881 114.688807 
L 261.552287 112.201727 
L 262.126694 114.916004 
L 262.7011 122.696815 
L 263.275507 135.120129 
L 264.42432 170.918016 
L 266.721946 256.274715 
L 267.296352 273.676221 
L 267.870759 287.481731 
L 268.445165 297.012807 
L 269.019572 301.85219 
L 269.593978 301.865764 
L 270.168384 297.207029 
L 270.742791 288.303882 
L 271.317197 275.828597 
L 272.46601 243.791302 
L 274.18923 193.975942 
L 274.763636 181.020447 
L 275.338043 171.244684 
L 275.912449 165.147106 
L 276.486856 162.96797 
L 277.061262 164.676081 
L 277.635669 169.972949 
L 278.210075 178.314057 
L 279.358888 200.956156 
L 280.507701 225.039709 
L 281.082108 235.067537 
L 281.656514 242.518625 
L 282.230921 246.658018 
L 282.805327 246.965098 
L 283.379734 243.169886 
L 283.95414 235.27347 
L 284.528547 223.551255 
L 285.67736 191.000658 
L 287.974986 116.0511 
L 288.549392 101.621233 
L 289.123798 90.889398 
L 289.698205 84.550081 
L 290.272611 83.049312 
L 290.847018 86.554569 
L 291.421424 94.941584 
L 291.995831 107.798928 
L 293.144644 143.992184 
L 295.44227 228.274409 
L 296.016676 244.945623 
L 296.591083 257.786841 
L 297.165489 266.089502 
L 297.739896 269.407364 
L 298.314302 267.581661 
L 298.888709 260.748822 
L 299.463115 249.330305 
L 300.037522 234.005213 
L 301.186335 195.369938 
L 302.909554 134.237724 
L 303.483961 117.457284 
L 304.058367 103.999383 
L 304.632774 94.472572 
L 305.20718 89.22672 
L 305.781587 88.334932 
L 306.355993 91.592927 
L 306.9304 98.535832 
L 307.504806 108.471277 
L 309.228025 146.963143 
L 310.376838 169.629959 
L 310.951245 177.271283 
L 311.525651 181.563588 
L 312.100058 182.127333 
L 312.674464 178.845159 
L 313.248871 171.870173 
L 313.823277 161.616811 
L 314.97209 134.068273 
L 316.69531 89.520664 
L 317.269716 77.986819 
L 317.844123 69.676731 
L 318.418529 65.288187 
L 318.992936 65.286624 
L 319.567342 69.872205 
L 320.141749 78.963282 
L 320.716155 92.197379 
L 321.864968 128.36815 
L 324.162594 210.753372 
L 324.737001 226.744582 
L 325.311407 238.852804 
L 325.885814 246.372107 
L 326.46022 248.85498 
L 327.034627 246.140067 
L 327.609033 238.362659 
L 328.183439 225.94726 
L 329.332252 190.181296 
L 331.629878 104.984032 
L 332.204285 87.651874 
L 332.778691 73.931549 
L 333.353098 64.503556 
L 333.927504 59.78703 
L 334.501911 59.917628 
L 335.076317 64.742912 
L 335.650724 73.835426 
L 336.22513 86.522608 
L 337.373943 119.046028 
L 339.097163 169.704321 
L 339.671569 182.954489 
L 340.245976 193.023108 
L 340.820382 199.406037 
L 341.394789 201.857299 
L 341.969195 200.402555 
L 342.543602 195.335173 
L 343.118008 187.195167 
L 344.266821 164.856268 
L 345.415634 140.930949 
L 345.990041 130.927166 
L 346.564447 123.465249 
L 347.138854 119.282809 
L 347.71326 118.903989 
L 348.287666 122.602999 
L 348.862073 130.383491 
L 349.436479 141.975106 
L 350.585292 174.240909 
L 352.882918 248.653514 
L 353.457325 262.976102 
L 354.031731 273.615627 
L 354.606138 279.87847 
L 355.180544 281.31885 
L 355.754951 277.769021 
L 356.329357 269.352585 
L 356.903764 256.480035 
L 358.052577 220.294685 
L 360.350203 136.155136 
L 360.924609 119.542618 
L 361.499016 106.768934 
L 362.073422 98.542676 
L 362.647829 95.310104 
L 363.222235 97.229882 
L 363.796642 104.165246 
L 364.371048 115.694064 
L 364.945455 131.136125 
L 366.094268 170.018353 
L 367.817487 231.513281 
L 368.391893 248.39854 
L 368.9663 261.946447 
L 369.540706 271.544261 
L 370.115113 276.838087 
L 370.689519 277.751151 
L 371.263926 274.484608 
L 371.838332 267.500924 
L 372.412739 257.490926 
L 373.561552 232.003135 
L 374.710365 206.074742 
L 375.284771 195.470298 
L 375.859178 187.576755 
L 376.433584 183.015875 
L 377.007991 182.1729 
L 377.582397 185.171186 
L 378.156804 191.863694 
L 378.73121 201.841888 
L 379.880023 228.883505 
L 381.603243 272.841253 
L 382.177649 284.234178 
L 382.752056 292.432584 
L 383.326462 296.738089 
L 383.900869 296.683811 
L 384.475275 292.06744 
L 385.049682 282.967921 
L 385.624088 269.744637 
L 386.772901 233.640022 
L 389.070527 151.477893 
L 389.644933 135.546613 
L 390.21934 123.496503 
L 390.793746 116.032437 
L 391.368153 113.601172 
L 391.942559 116.363515 
L 392.516966 124.183742 
L 393.091372 136.636913 
L 394.240185 172.460987 
L 396.537811 257.675966 
L 397.112218 274.983071 
L 397.686624 288.662739 
L 398.261031 298.032522 
L 398.835437 302.671521 
L 399.409844 302.442641 
L 399.98425 297.497357 
L 400.558657 288.262768 
L 401.133063 275.411797 
L 402.281876 242.501151 
L 404.005096 191.155449 
L 404.579502 177.664384 
L 405.153909 167.357617 
L 405.728315 160.744929 
L 406.302721 158.077965 
L 406.877128 159.336524 
L 407.451534 164.232282 
L 408.025941 172.229638 
L 409.174754 194.383604 
L 410.323567 218.270049 
L 410.897973 228.309591 
L 411.47238 235.842069 
L 412.046786 240.127105 
L 412.621193 240.636921 
L 413.195599 237.092974 
L 413.770006 229.486777 
L 414.344412 218.083556 
L 415.493225 186.216118 
L 417.790851 112.558305 
L 418.365258 98.395432 
L 418.939664 87.89988 
L 419.514071 81.764447 
L 420.088477 80.434723 
L 420.662884 84.078797 
L 421.23729 92.573817 
L 421.811697 105.510322 
L 422.96051 141.784445 
L 425.258135 225.974543 
L 425.832542 242.577282 
L 426.406948 255.332792 
L 426.981355 263.53253 
L 427.555761 266.730284 
L 428.130168 264.767546 
L 428.704574 257.781452 
L 429.278981 246.194829 
L 429.853387 230.689001 
L 431.0022 191.668268 
L 432.72542 129.977725 
L 433.299826 113.044248 
L 433.874233 99.463232 
L 434.448639 89.851504 
L 435.023046 84.566875 
L 435.597452 83.689673 
L 436.171859 87.021752 
L 436.746265 94.102939 
L 437.320672 104.243833 
L 438.469485 130.094355 
L 439.618298 156.510753 
L 440.192704 167.398803 
L 440.767111 175.596578 
L 441.341517 180.477076 
L 441.915924 181.649314 
L 442.49033 178.983914 
L 443.064737 172.621838 
L 443.639143 162.965725 
L 444.787956 136.521827 
L 446.511175 93.283271 
L 447.085582 82.072826 
L 447.659988 74.02703 
L 448.234395 69.84497 
L 448.808801 69.995073 
L 449.383208 74.681913 
L 449.957614 83.829364 
L 450.532021 97.081245 
L 451.680834 133.198742 
L 453.97846 215.299442 
L 454.552866 231.212403 
L 455.127273 243.246587 
L 455.701679 250.698197 
L 456.276086 253.121238 
L 456.850492 250.355434 
L 457.424899 242.536915 
L 457.999305 230.091008 
L 459.148118 194.300163 
L 461.445744 109.252695 
L 462.020151 92.016859 
L 462.594557 78.4238 
L 463.168964 69.157798 
L 463.74337 64.641412 
L 464.317776 65.013069 
L 464.892183 70.122163 
L 465.466589 79.541871 
L 466.040996 92.598838 
L 467.189809 125.978395 
L 468.913028 178.126798 
L 469.487435 191.89526 
L 470.061841 202.475755 
L 470.636248 209.352905 
L 471.210654 212.269463 
L 471.785061 211.240239 
L 472.359467 206.5486 
L 472.933874 198.725827 
L 474.082687 176.819383 
L 475.2315 153.033435 
L 475.805906 142.988873 
L 476.380313 135.416674 
L 476.954719 131.060099 
L 477.529126 130.450665 
L 478.103532 133.87135 
L 478.677939 141.335571 
L 479.252345 152.583315 
L 480.401158 184.120291 
L 482.698784 257.168541 
L 483.273191 271.210028 
L 483.847597 281.600703 
L 484.422003 287.648541 
L 484.99641 288.908077 
L 485.570816 285.210806 
L 486.145223 276.678738 
L 486.719629 263.720206 
L 487.868442 227.44192 
L 490.166068 143.370346 
L 490.740475 126.818986 
L 491.314881 114.122793 
L 491.889288 105.990179 
L 492.463694 102.867244 
L 493.038101 104.912291 
L 493.612507 111.987778 
L 494.186914 123.670164 
L 494.76132 139.277013 
L 495.910133 178.508732 
L 497.633353 240.499277 
L 498.207759 257.514908 
L 498.782166 271.162691 
L 499.356572 280.821822 
L 499.930979 286.130688 
L 500.505385 287.005519 
L 501.079792 283.641571 
L 501.654198 276.496841 
L 502.228605 266.259415 
L 503.377417 240.116532 
L 504.52623 213.285326 
L 505.100637 202.15153 
L 505.675043 193.68831 
L 506.24945 188.527957 
L 506.823856 187.067227 
L 507.398263 189.441544 
L 507.972669 195.516023 
L 508.547076 204.893916 
L 509.695889 230.830787 
L 511.419108 273.492833 
L 511.993515 284.569842 
L 512.567921 292.512659 
L 513.142328 296.62139 
L 513.716734 296.425951 
L 514.291141 291.719394 
L 514.865547 282.574909 
L 515.439954 269.345361 
L 516.588767 233.316496 
L 518.886393 151.476193 
L 519.460799 135.630016 
L 520.035206 123.659621 
L 520.609612 116.267707 
L 521.184019 113.89951 
L 521.758425 116.714792 
L 522.332831 124.577048 
L 522.907238 137.060616 
L 524.056051 172.906795 
L 526.353677 257.961297 
L 526.928083 275.169589 
L 527.50249 288.720029 
L 528.076896 297.926615 
L 528.651303 302.365242 
L 529.225709 301.896246 
L 529.800116 296.669454 
L 530.374522 287.111497 
L 530.948929 273.896229 
L 532.097742 240.145821 
L 533.820961 187.348837 
L 534.395368 173.356212 
L 534.969774 162.556103 
L 535.544181 155.469431 
L 536.118587 152.358982 
L 536.692994 153.21526 
L 537.2674 157.759769 
L 537.841807 165.465449 
L 538.99062 187.240442 
L 540.139433 211.042667 
L 540.713839 221.150615 
L 541.288246 228.820731 
L 541.862652 233.306763 
L 542.437058 234.073348 
L 543.011465 230.832975 
L 543.585871 223.567208 
L 544.160278 212.530766 
L 545.309091 181.433683 
L 547.606717 109.203949 
L 548.181123 95.333986 
L 548.75553 85.097535 
L 549.329936 79.185902 
L 549.904343 78.044493 
L 550.478749 81.842308 
L 551.053156 90.458267 
L 551.627562 103.485265 
L 552.776375 139.859823 
L 555.074001 223.997138 
L 555.648408 240.543827 
L 556.222814 253.227857 
L 556.797221 261.341021 
L 557.371627 264.437396 
L 557.946034 262.35893 
L 558.52044 255.243602 
L 559.094847 243.515679 
L 560.24366 209.172914 
L 563.115692 109.3449 
L 563.690098 95.684524 
L 564.264505 86.032278 
L 564.838911 80.753465 
L 565.413318 79.935178 
L 565.987724 83.384937 
L 566.562131 90.646805 
L 567.136537 101.033899 
L 568.28535 127.573618 
L 569.434163 154.92109 
L 570.00857 166.350036 
L 570.582976 175.12714 
L 571.157383 180.614781 
L 571.731789 182.410397 
L 572.306196 180.372507 
L 572.880602 174.629912 
L 573.455009 165.573488 
L 574.603822 140.227151 
L 576.327041 98.260219 
L 576.901448 87.354712 
L 577.475854 79.552365 
L 578.050261 75.55398 
L 578.624667 75.831411 
L 579.199074 80.594095 
L 579.77348 89.771892 
L 580.347887 103.015369 
L 581.496699 139.028507 
L 583.794325 220.758397 
L 584.368732 236.576569 
L 584.943138 248.522554 
L 585.517545 255.894764 
L 586.091951 258.248719 
L 586.666358 255.425154 
L 587.240764 247.560907 
L 587.815171 235.081925 
L 588.963984 199.266125 
L 591.26161 114.378264 
L 591.836016 97.24077 
L 592.410423 83.77591 
L 592.984829 74.671294 
L 593.559236 70.352471 
L 594.133642 70.960241 
L 594.708049 76.345464 
L 595.282455 86.08163 
L 595.856862 99.494318 
L 597.005675 133.691112 
L 598.728894 187.242927 
L 599.303301 201.493285 
L 599.877707 212.545712 
L 600.452113 219.873798 
L 601.02652 223.209289 
L 601.600926 222.556446 
L 602.175333 218.188986 
L 602.749739 210.629843 
L 603.898552 189.044197 
L 605.047365 165.283022 
L 605.621772 155.140426 
L 606.196178 147.401332 
L 606.770585 142.815092 
L 607.344991 141.921022 
L 607.919398 145.011259 
L 608.493804 152.109346 
L 609.068211 162.965936 
L 610.217024 193.688294 
L 612.51465 265.23985 
L 613.089056 278.975473 
L 613.663463 289.095664 
L 614.237869 294.90978 
L 614.812276 295.972408 
L 615.386682 292.113969 
L 615.961089 283.454521 
L 616.535495 270.399836 
L 617.684308 234.011277 
L 619.981934 149.972417 
L 620.55634 133.470754 
L 621.130747 120.838776 
L 621.705153 112.784414 
L 622.27956 109.753356 
L 622.853966 111.903357 
L 623.428373 119.095976 
L 624.002779 130.906208 
L 625.151592 165.423807 
L 628.023625 265.644101 
L 628.598031 279.349992 
L 629.172438 289.028183 
L 629.746844 294.309795 
L 630.321251 295.104529 
L 630.895657 291.602205 
L 631.470064 284.256816 
L 632.04447 273.754152 
L 633.193283 246.887646 
L 634.342096 219.097027 
L 634.916503 207.41083 
L 635.490909 198.358706 
L 636.065316 192.583648 
L 636.639722 190.494048 
L 637.214129 192.237456 
L 637.788535 197.691149 
L 638.362942 206.470108 
L 639.511754 231.316834 
L 641.234974 272.731441 
L 641.80938 283.514429 
L 642.383787 291.225826 
L 642.958193 295.163809 
L 643.5326 294.854645 
L 644.107006 290.086291 
L 644.681413 280.925724 
L 645.255819 267.71883 
L 646.404632 231.821919 
L 648.702258 150.398787 
L 649.276665 134.656336 
L 649.851071 122.781849 
L 650.425478 115.475794 
L 650.999884 113.181899 
L 651.574291 116.058958 
L 652.148697 123.969838 
L 652.723104 136.488363 
L 653.871917 172.360799 
L 656.169543 257.253753 
L 656.743949 274.363539 
L 657.318356 287.786202 
L 657.892762 296.832631 
L 658.467169 301.07594 
L 659.041575 300.374291 
L 659.615981 294.876216 
L 660.190388 285.008185 
L 660.764794 271.445241 
L 661.913607 236.899031 
L 663.636827 182.74466 
L 664.211233 168.289099 
L 664.78564 157.037705 
L 665.360046 149.522315 
L 665.934453 146.016582 
L 666.508859 146.521395 
L 667.083266 150.767725 
L 667.657672 158.236661 
L 668.806485 179.74642 
L 669.955298 203.580316 
L 670.529705 213.814273 
L 671.104111 221.678792 
L 671.678518 226.421313 
L 672.252924 227.498468 
L 672.827331 224.613397 
L 673.401737 217.737365 
L 673.976144 207.114279 
L 675.124957 176.871535 
L 677.422583 106.197479 
L 677.996989 92.64386 
L 678.571395 82.686791 
L 679.145802 77.016309 
L 679.720208 76.07791 
L 680.294615 80.041837 
L 680.869021 88.789147 
L 681.443428 101.915501 
L 682.592241 138.405309 
L 684.889867 222.520473 
L 685.464273 239.021476 
L 686.03868 251.646218 
L 686.613086 259.687118 
L 687.187493 262.698778 
L 687.761899 260.523778 
L 688.336306 253.301047 
L 688.910712 241.456333 
L 690.059525 206.861444 
L 692.931558 106.501389 
L 693.505964 92.801326 
L 694.080371 83.148573 
L 694.654777 77.915468 
L 695.229184 77.195403 
L 695.80359 80.801098 
L 696.377997 88.280395 
L 696.952403 98.948485 
L 698.101216 126.239496 
L 699.250029 154.56774 
L 699.824435 166.557035 
L 700.398842 175.929028 
L 700.973248 182.03532 
L 701.547655 184.461668 
L 702.122061 183.054446 
L 702.696468 177.930307 
L 703.270874 169.468439 
L 704.419687 145.197649 
L 706.142907 104.443495 
L 706.717313 93.817702 
L 707.29172 86.231414 
L 707.866126 82.387583 
L 708.440533 82.761936 
L 709.014939 87.569235 
L 709.589346 96.745781 
L 710.163752 109.94935 
L 711.312565 145.797121 
L 713.610191 227.052466 
L 714.184598 242.755322 
L 714.759004 254.595062 
L 715.333411 261.872347 
L 715.907817 264.14419 
L 716.482224 261.252241 
L 717.05663 253.333887 
L 717.631036 240.81547 
L 718.779849 204.966881 
L 721.077475 120.2318 
L 721.651882 103.190239 
L 722.226288 89.849972 
L 722.800695 80.901502 
L 723.375101 76.77295 
L 723.949508 77.607101 
L 724.523914 83.255942 
L 725.098321 93.292975 
L 725.672727 107.042476 
L 726.82154 142.008051 
L 728.54476 196.86309 
L 729.119166 211.554809 
L 729.693573 223.035321 
L 730.267979 230.767425 
L 730.842386 234.472146 
L 731.416792 234.14353 
L 731.991199 230.046014 
L 732.565605 222.694589 
L 733.714418 201.314628 
L 735.437638 167.16353 
L 736.012044 159.200981 
L 736.58645 154.329979 
L 737.160857 153.098045 
L 737.735263 155.806852 
L 738.30967 162.490406 
L 738.884076 172.910316 
L 740.032889 202.736555 
L 742.330515 272.669857 
L 742.904922 286.077818 
L 743.479328 295.908902 
L 744.053735 301.473613 
L 744.628141 302.326299 
L 745.202548 298.295968 
L 745.776954 289.500347 
L 746.351361 276.342239 
L 747.500174 239.831659 
L 749.7978 155.800581 
L 750.372206 139.339604 
L 750.946613 126.760993 
L 751.521019 118.771915 
L 752.095426 115.817421 
L 752.669832 118.05456 
L 753.244239 125.343893 
L 753.818645 137.258927 
L 754.967458 172.000902 
L 757.83949 272.666735 
L 758.413897 286.393385 
L 758.988303 296.053097 
L 759.56271 301.270187 
L 760.137116 301.94829 
L 760.711523 298.272257 
L 761.285929 290.692527 
L 761.860336 279.893034 
L 763.009149 252.247602 
L 764.157962 223.455097 
L 764.732368 211.200783 
L 765.306775 201.547995 
L 765.881181 195.15057 
L 766.455588 192.428617 
L 767.029994 193.54184 
L 767.604401 198.379643 
L 768.178807 206.568643 
L 769.32762 230.354772 
L 771.05084 270.591467 
L 771.625246 281.109007 
L 772.199653 288.619597 
L 772.774059 292.419047 
L 773.348466 292.029522 
L 773.922872 287.233426 
L 774.497279 278.091061 
L 775.071685 264.940882 
L 776.220498 229.241665 
L 778.518124 148.347632 
L 779.09253 132.731281 
L 779.666937 120.972543 
L 780.241343 113.769626 
L 780.81575 111.564787 
L 781.390156 114.515963 
L 781.964563 122.48556 
L 782.538969 135.047129 
L 783.687782 170.957187 
L 785.985408 255.702963 
L 786.559815 272.718657 
L 787.134221 286.019197 
L 787.708628 294.912798 
L 788.283034 298.970204 
L 788.857441 298.047776 
L 789.431847 292.293087 
L 790.006254 282.132729 
L 790.58066 268.243163 
L 791.729473 232.953791 
L 793.452693 177.547997 
L 794.027099 162.671759 
L 794.601506 151.014523 
L 795.175912 143.118789 
L 795.750318 139.268774 
L 796.324725 139.475407 
L 796.899131 143.478744 
L 797.473538 150.767611 
L 798.622351 172.12819 
L 800.34557 206.527696 
L 800.919977 214.642753 
L 801.494383 219.696247 
L 802.06879 221.13641 
L 802.643196 218.656664 
L 803.217603 212.217654 
L 803.792009 202.052192 
L 804.940822 172.742414 
L 807.238448 103.738841 
L 807.812855 90.52156 
L 808.387261 80.860678 
L 808.961668 75.445212 
L 809.536074 74.72105 
L 810.110481 78.860024 
L 810.684887 87.745718 
L 811.259294 100.976976 
L 812.408107 137.590459 
L 814.705732 221.702242 
L 815.280139 238.165106 
L 815.854545 250.739957 
L 816.428952 258.720111 
L 817.003358 261.660911 
L 817.577765 259.405714 
L 818.152171 252.094484 
L 818.726578 240.154461 
L 819.875391 205.357851 
L 822.747423 104.625161 
L 823.32183 90.920361 
L 823.896236 81.302096 
L 824.470643 76.149282 
L 825.045049 75.561142 
L 825.619456 79.355136 
L 826.193862 87.082435 
L 826.768269 98.059874 
L 827.917082 126.150649 
L 829.065895 155.494913 
L 829.640301 168.056553 
L 830.214708 178.031422 
L 830.789114 184.76022 
L 831.363521 187.816959 
L 831.937927 187.035863 
L 832.512334 182.521487 
L 833.08674 174.641439 
L 834.235553 151.409318 
L 835.958772 111.788109 
L 836.533179 101.410254 
L 837.107585 94.006345 
L 837.681992 90.281921 
L 838.256398 90.71704 
L 838.830805 95.532249 
L 839.405211 104.670755 
L 839.979618 117.797985 
L 841.128431 153.410302 
L 843.426057 234.071806 
L 844.000463 249.635335 
L 844.57487 261.347409 
L 845.149276 268.510951 
L 845.723683 270.684417 
L 846.298089 267.710251 
L 846.872496 259.726201 
L 847.446902 247.158762 
L 848.595715 211.262949 
L 850.893341 126.659693 
L 851.467748 109.707895 
L 852.042154 96.484775 
L 852.616561 87.683293 
L 853.190967 83.733743 
L 853.765373 84.780528 
L 854.33978 90.676438 
L 854.914186 100.99472 
L 855.488593 115.05813 
L 856.637406 150.736263 
L 858.360625 206.783739 
L 858.935032 221.873165 
L 859.509438 233.735057 
L 860.083845 241.821691 
L 860.658251 245.843685 
L 861.232658 245.78523 
L 861.807064 241.901874 
L 862.381471 234.701083 
L 863.530284 213.410525 
L 865.253503 178.839293 
L 865.82791 170.597932 
L 866.402316 165.388646 
L 866.976723 163.76755 
L 867.551129 166.046205 
L 868.125536 172.269393 
L 868.699942 182.209945 
L 869.848755 211.064965 
L 872.146381 279.273189 
L 872.720787 292.335589 
L 873.295194 301.862863 
L 873.8696 307.166402 
L 874.444007 307.8 
L 875.018413 303.590896 
L 875.59282 294.65409 
L 876.167226 281.388988 
L 877.316039 244.751785 
L 879.613665 160.716827 
L 880.188072 144.290686 
L 880.762478 131.757724 
L 881.336885 123.824084 
L 881.911291 120.933981 
L 882.485698 123.243619 
L 883.060104 130.612497 
L 883.634511 142.612632 
L 884.783324 177.532337 
L 887.655356 278.495407 
L 888.229763 292.210457 
L 888.804169 301.819421 
L 889.378576 306.940269 
L 889.952982 307.471037 
L 890.527389 303.592064 
L 891.101795 295.750684 
L 891.676202 284.629393 
L 892.825014 256.163659 
L 893.973827 226.341465 
L 894.548234 213.510854 
L 895.12264 203.253272 
L 895.697047 196.233504 
L 896.271453 192.883422 
L 896.84586 193.374872 
L 897.420266 197.609313 
L 897.994673 205.224875 
L 899.143486 227.994638 
L 900.866705 267.143514 
L 901.441112 277.43055 
L 902.015518 284.777041 
L 902.589925 288.475988 
L 903.164331 288.044994 
L 903.738738 283.260445 
L 904.313144 274.175512 
L 904.887551 261.120774 
L 906.036364 225.693523 
L 908.33399 145.454896 
L 908.908396 129.990196 
L 909.482803 118.370112 
L 910.057209 111.29059 
L 910.631616 109.192481 
L 911.206022 112.232999 
L 911.780428 120.27429 
L 912.354835 132.889885 
L 913.503648 168.854849 
L 915.801274 253.480509 
L 916.37568 270.409905 
L 916.950087 283.597429 
L 917.524493 292.349048 
L 918.0989 296.23353 
L 918.673306 295.105795 
L 919.247713 289.112762 
L 919.822119 278.681406 
L 920.396526 264.489806 
L 921.545339 228.516723 
L 923.268558 171.97454 
L 923.842965 156.722471 
L 924.417371 144.707153 
L 924.991778 136.481464 
L 925.566184 132.339862 
L 926.140591 132.302944 
L 926.714997 136.119452 
L 927.289404 143.28552 
L 928.438217 164.612978 
L 930.161436 199.515113 
L 930.735843 207.935069 
L 931.310249 213.351882 
L 931.884655 215.205001 
L 932.459062 213.177795 
L 933.033468 207.219987 
L 933.607875 197.553045 
L 934.182281 184.658145 
L 935.331094 152.220327 
L 937.054314 102.012524 
L 937.62872 89.147241 
L 938.203127 79.795005 
L 938.777533 74.644091 
L 939.35194 74.141103 
L 939.926346 78.459829 
L 940.500753 87.486785 
L 941.075159 100.824429 
L 942.223972 137.562165 
L 944.521598 221.674759 
L 945.096005 238.103556 
L 945.670411 250.634477 
L 946.244818 258.561982 
L 946.819224 261.44234 
L 947.393631 259.119813 
L 947.968037 251.73545 
L 948.542444 239.71797 
L 949.691257 204.762404 
L 952.563289 103.794025 
L 953.137695 90.11422 
L 953.712102 80.559958 
L 954.286508 75.516268 
L 954.860915 75.087742 
L 955.435321 79.096123 
L 956.009728 87.09547 
L 956.584134 98.403851 
L 957.732947 127.328719 
L 958.88176 157.70945 
L 959.456167 170.847858 
L 960.030573 181.425947 
L 960.60498 188.773432 
L 961.179386 192.45255 
L 961.753793 192.285404 
L 962.328199 188.364541 
L 962.902606 181.046137 
L 963.477012 170.926209 
L 966.349045 110.045438 
L 966.923451 102.784364 
L 967.497858 99.138635 
L 968.072264 99.593102 
L 968.646671 104.37456 
L 969.221077 113.433575 
L 969.795483 126.443671 
L 970.944296 161.742538 
L 973.241922 241.677833 
L 973.816329 257.075188 
L 974.390735 268.635452 
L 974.965142 275.663803 
L 975.539548 277.720056 
L 976.113955 274.647303 
L 976.688361 266.583446 
L 977.262768 253.954859 
L 978.411581 217.992197 
L 980.709207 133.488648 
L 981.283613 116.617465 
L 981.85802 103.501 
L 982.432426 94.834252 
L 983.006833 91.049298 
L 983.581239 92.291814 
L 984.155646 98.415095 
L 984.730052 108.991887 
L 985.304459 123.343237 
L 986.453272 159.67188 
L 988.176491 216.793496 
L 988.750898 232.234927 
L 989.325304 244.429728 
L 989.89971 252.819942 
L 990.474117 257.106125 
L 991.048523 257.262987 
L 991.62293 253.537601 
L 992.197336 246.430341 
L 993.346149 225.114054 
L 995.069369 189.954587 
L 995.643775 181.381393 
L 996.218182 175.782996 
L 996.218182 175.782996 
" style="fill:none;stroke:#4c72b0;stroke-linecap:round;stroke-width:1.4;"/>
   </g>
   <g id="line2d_28">
    <path clip-path="url(#p98bedf65ad)" d="M 184.581818 265.72887 
L 196.069948 268.988848 
L 228.811118 278.442022 
L 238.001621 280.767994 
L 246.043312 282.570338 
L 253.510596 284.009051 
L 260.403474 285.109463 
L 266.721946 285.908797 
L 273.040417 286.495386 
L 279.358888 286.860347 
L 285.67736 286.998081 
L 291.995831 286.906357 
L 298.314302 286.586345 
L 304.632774 286.042595 
L 310.951245 285.282978 
L 317.844123 284.221193 
L 324.737001 282.934209 
L 332.204285 281.311967 
L 340.245976 279.337125 
L 349.436479 276.850105 
L 361.499016 273.339181 
L 389.070527 265.225167 
L 398.261031 262.791298 
L 406.302721 260.87746 
L 413.770006 259.322657 
L 420.662884 258.10592 
L 427.555761 257.120789 
L 433.874233 256.435917 
L 440.192704 255.97006 
L 446.511175 255.729936 
L 452.829647 255.718917 
L 459.148118 255.936978 
L 465.466589 256.380703 
L 471.785061 257.043329 
L 478.677939 258.00401 
L 485.570816 259.196056 
L 493.038101 260.723781 
L 501.079792 262.608014 
L 510.270295 265.007413 
L 521.758425 268.263838 
L 555.074001 277.8783 
L 564.264505 280.195656 
L 572.306196 281.988359 
L 579.77348 283.416586 
L 586.666358 284.506209 
L 592.984829 285.294893 
L 599.303301 285.870274 
L 605.621772 286.223642 
L 611.940243 286.349577 
L 618.258715 286.24603 
L 624.577186 285.914353 
L 630.895657 285.359277 
L 637.214129 284.588846 
L 644.107006 283.516046 
L 650.999884 282.21906 
L 658.467169 280.58734 
L 666.508859 278.604101 
L 675.699363 276.110049 
L 687.761899 272.594424 
L 714.759004 264.648706 
L 723.949508 262.209664 
L 731.991199 260.289778 
L 739.458483 258.728233 
L 746.351361 257.504441 
L 753.244239 256.511596 
L 759.56271 255.819195 
L 765.881181 255.345497 
L 772.199653 255.097339 
L 778.518124 255.078221 
L 784.836595 255.288245 
L 791.155067 255.72412 
L 797.473538 256.379208 
L 804.366416 257.332158 
L 811.259294 258.51713 
L 818.726578 260.038086 
L 826.768269 261.916241 
L 835.958772 264.310426 
L 846.872496 267.395886 
L 881.911291 277.490087 
L 890.527389 279.647204 
L 898.569079 281.430165 
L 906.036364 282.847823 
L 912.929241 283.926592 
L 919.247713 284.704573 
L 925.566184 285.268703 
L 931.884655 285.610445 
L 938.203127 285.724557 
L 944.521598 285.609174 
L 950.840069 285.265828 
L 957.158541 284.699431 
L 963.477012 283.918201 
L 970.36989 282.834412 
L 977.262768 281.527459 
L 984.730052 279.88631 
L 992.771743 277.894734 
L 996.218182 276.981292 
L 996.218182 276.981292 
" style="fill:none;stroke:#55a868;stroke-linecap:round;stroke-width:1.4;"/>
   </g>
   <g id="patch_3">
    <path d="M 144 320.4 
L 144 43.2 
" style="fill:none;"/>
   </g>
   <g id="patch_4">
    <path d="M 1036.8 320.4 
L 1036.8 43.2 
" style="fill:none;"/>
   </g>
   <g id="patch_5">
    <path d="M 144 320.4 
L 1036.8 320.4 
" style="fill:none;"/>
   </g>
   <g id="patch_6">
    <path d="M 144 43.2 
L 1036.8 43.2 
" style="fill:none;"/>
   </g>
   <g id="legend_1">
    <g id="line2d_29">
     <path d="M 1002.75125 53.3975 
L 1018.75125 53.3975 
" style="fill:none;stroke:#4c72b0;stroke-linecap:round;stroke-width:1.4;"/>
    </g>
    <g id="line2d_30"/>
    <g id="text_14">
     <!-- a -->
     <defs>
      <path d="M 20.21875 -0.984375 
Q 12.25 -0.984375 8.25 3.21875 
Q 4.25 7.421875 4.25 14.75 
Q 4.25 19.96875 6.21875 23.3125 
Q 8.203125 26.65625 11.390625 28.5625 
Q 14.59375 30.46875 18.6875 31.203125 
Q 22.796875 31.9375 27.046875 32.03125 
L 38.921875 32.234375 
L 38.921875 35.109375 
Q 38.921875 38.375 38.234375 40.671875 
Q 37.546875 42.96875 36.125 44.375 
Q 34.71875 45.796875 32.59375 46.453125 
Q 30.46875 47.125 27.59375 47.125 
Q 25.046875 47.125 23 46.75 
Q 20.953125 46.390625 19.4375 45.4375 
Q 17.921875 44.484375 16.984375 42.84375 
Q 16.0625 41.21875 15.765625 38.71875 
L 6.59375 39.546875 
Q 7.078125 42.671875 8.4375 45.28125 
Q 9.8125 47.90625 12.328125 49.796875 
Q 14.84375 51.703125 18.625 52.75 
Q 22.40625 53.8125 27.78125 53.8125 
Q 37.75 53.8125 42.765625 49.234375 
Q 47.796875 44.671875 47.796875 36.03125 
L 47.796875 13.28125 
Q 47.796875 9.375 48.828125 7.390625 
Q 49.859375 5.421875 52.734375 5.421875 
Q 53.46875 5.421875 54.203125 5.515625 
Q 54.9375 5.609375 55.609375 5.765625 
L 55.609375 0.296875 
Q 53.953125 -0.09375 52.3125 -0.28125 
Q 50.6875 -0.484375 48.828125 -0.484375 
Q 46.34375 -0.484375 44.5625 0.171875 
Q 42.78125 0.828125 41.65625 2.171875 
Q 40.53125 3.515625 39.9375 5.484375 
Q 39.359375 7.46875 39.203125 10.109375 
L 38.921875 10.109375 
Q 37.5 7.5625 35.8125 5.515625 
Q 34.125 3.46875 31.875 2.03125 
Q 29.640625 0.59375 26.78125 -0.1875 
Q 23.921875 -0.984375 20.21875 -0.984375 
M 22.21875 5.609375 
Q 26.421875 5.609375 29.5625 7.140625 
Q 32.71875 8.6875 34.78125 11.078125 
Q 36.859375 13.484375 37.890625 16.3125 
Q 38.921875 19.140625 38.921875 21.734375 
L 38.921875 26.078125 
L 29.296875 25.875 
Q 26.078125 25.828125 23.171875 25.40625 
Q 20.265625 25 18.0625 23.78125 
Q 15.875 22.5625 14.578125 20.359375 
Q 13.28125 18.171875 13.28125 14.59375 
Q 13.28125 10.296875 15.59375 7.953125 
Q 17.921875 5.609375 22.21875 5.609375 
" id="LiberationSans-61"/>
     </defs>
     <g style="fill:#262626;" transform="translate(1025.15125 56.1975)scale(0.08 -0.08)">
      <use xlink:href="#LiberationSans-61"/>
     </g>
    </g>
    <g id="line2d_31">
     <path d="M 1002.75125 64.855 
L 1018.75125 64.855 
" style="fill:none;stroke:#55a868;stroke-linecap:round;stroke-width:1.4;"/>
    </g>
    <g id="line2d_32"/>
    <g id="text_15">
     <!-- b -->
     <defs>
      <path d="M 51.421875 26.65625 
Q 51.421875 -0.984375 31.984375 -0.984375 
Q 25.984375 -0.984375 22 1.1875 
Q 18.015625 3.375 15.53125 8.203125 
L 15.4375 8.203125 
Q 15.4375 6.9375 15.359375 5.5625 
Q 15.28125 4.203125 15.203125 3.03125 
Q 15.140625 1.859375 15.0625 1.03125 
Q 14.984375 0.203125 14.9375 0 
L 6.453125 0 
Q 6.5 0.4375 6.546875 1.484375 
Q 6.59375 2.546875 6.640625 4 
Q 6.6875 5.46875 6.703125 7.21875 
Q 6.734375 8.984375 6.734375 10.890625 
L 6.734375 72.46875 
L 15.53125 72.46875 
L 15.53125 51.8125 
Q 15.53125 50.34375 15.5 49 
Q 15.484375 47.65625 15.4375 46.625 
Q 15.375 45.40625 15.328125 44.34375 
L 15.53125 44.34375 
Q 17.96875 49.421875 22 51.609375 
Q 26.03125 53.8125 31.984375 53.8125 
Q 42 53.8125 46.703125 47.0625 
Q 51.421875 40.328125 51.421875 26.65625 
M 42.1875 26.375 
Q 42.1875 31.84375 41.5 35.75 
Q 40.828125 39.65625 39.3125 42.15625 
Q 37.796875 44.671875 35.453125 45.84375 
Q 33.109375 47.015625 29.734375 47.015625 
Q 26.265625 47.015625 23.609375 45.890625 
Q 20.953125 44.78125 19.171875 42.28125 
Q 17.390625 39.796875 16.453125 35.734375 
Q 15.53125 31.6875 15.53125 25.828125 
Q 15.53125 20.171875 16.453125 16.3125 
Q 17.390625 12.453125 19.171875 10.03125 
Q 20.953125 7.625 23.578125 6.5625 
Q 26.21875 5.515625 29.640625 5.515625 
Q 32.859375 5.515625 35.203125 6.640625 
Q 37.546875 7.765625 39.109375 10.25 
Q 40.671875 12.75 41.421875 16.71875 
Q 42.1875 20.703125 42.1875 26.375 
" id="LiberationSans-62"/>
     </defs>
     <g style="fill:#262626;" transform="translate(1025.15125 67.655)scale(0.08 -0.08)">
      <use xlink:href="#LiberationSans-62"/>
     </g>
    </g>
   </g>
  </g>
 </g>
 <defs>
  <clipPath id="p98bedf65ad">
   <rect height="277.2" width="892.8" x="144" y="43.2"/>
  </clipPath>
 </defs>
</svg>
