<?xml version="1.0" encoding="utf-8" standalone="no"?>
<!DOCTYPE svg PUBLIC "-//W3C//DTD SVG 1.1//EN"
  "http://www.w3.org/Graphics/SVG/1.1/DTD/svg11.dtd">
<!-- Created with matplotlib (http://matplotlib.org/) -->
<svg height="360pt" version="1.1" viewBox="0 0 1152 360" width="1152pt" xmlns="http://www.w3.org/2000/svg" xmlns:xlink="http://www.w3.org/1999/xlink">
 <defs>
  <style type="text/css">
*{stroke-linecap:butt;stroke-linejoin:round;}
  </style>
 </defs>
 <g id="figure_1">
  <g id="patch_1">
   <path d="M 0 360 
L 1152 360 
L 1152 0 
L 0 0 
z
" style="fill:#ffffff;"/>
  </g>
  <g id="axes_1">
   <g id="patch_2">
    <path d="M 144 320.4 
L 1036.8 320.4 
L 1036.8 43.2 
L 144 43.2 
z
" style="fill:#eaeaf2;"/>
   </g>
   <g id="matplotlib.axis_1">
    <g id="xtick_1">
     <g id="line2d_1">
      <path clip-path="url(#pf54b1fbfab)" d="M 184.581818 320.4 
L 184.581818 43.2 
" style="fill:none;stroke:#ffffff;stroke-linecap:round;stroke-width:0.8;"/>
     </g>
     <g id="line2d_2"/>
     <g id="text_1">
      <!-- 0 -->
      <defs>
       <path d="M 51.703125 34.421875 
Q 51.703125 24.515625 49.828125 17.75 
Q 47.953125 10.984375 44.703125 6.8125 
Q 41.453125 2.640625 37.0625 0.828125 
Q 32.671875 -0.984375 27.6875 -0.984375 
Q 22.65625 -0.984375 18.3125 0.828125 
Q 13.96875 2.640625 10.765625 6.78125 
Q 7.5625 10.9375 5.734375 17.703125 
Q 3.90625 24.46875 3.90625 34.421875 
Q 3.90625 44.828125 5.734375 51.640625 
Q 7.5625 58.453125 10.78125 62.5 
Q 14.015625 66.546875 18.40625 68.1875 
Q 22.796875 69.828125 27.984375 69.828125 
Q 32.90625 69.828125 37.21875 68.1875 
Q 41.546875 66.546875 44.765625 62.5 
Q 48 58.453125 49.84375 51.640625 
Q 51.703125 44.828125 51.703125 34.421875 
M 42.78125 34.421875 
Q 42.78125 42.625 41.796875 48.0625 
Q 40.828125 53.515625 38.921875 56.765625 
Q 37.015625 60.015625 34.25 61.359375 
Q 31.5 62.703125 27.984375 62.703125 
Q 24.265625 62.703125 21.4375 61.328125 
Q 18.609375 59.96875 16.671875 56.71875 
Q 14.75 53.46875 13.765625 48.015625 
Q 12.796875 42.578125 12.796875 34.421875 
Q 12.796875 26.515625 13.796875 21.09375 
Q 14.796875 15.671875 16.71875 12.375 
Q 18.65625 9.078125 21.4375 7.640625 
Q 24.21875 6.203125 27.78125 6.203125 
Q 31.25 6.203125 34.03125 7.640625 
Q 36.8125 9.078125 38.734375 12.375 
Q 40.671875 15.671875 41.71875 21.09375 
Q 42.78125 26.515625 42.78125 34.421875 
" id="LiberationSans-30"/>
      </defs>
      <g style="fill:#262626;" transform="translate(182.357443 331.7975)scale(0.08 -0.08)">
       <use xlink:href="#LiberationSans-30"/>
      </g>
     </g>
    </g>
    <g id="xtick_2">
     <g id="line2d_3">
      <path clip-path="url(#pf54b1fbfab)" d="M 299.625952 320.4 
L 299.625952 43.2 
" style="fill:none;stroke:#ffffff;stroke-linecap:round;stroke-width:0.8;"/>
     </g>
     <g id="line2d_4"/>
     <g id="text_2">
      <!-- 200 -->
      <defs>
       <path d="M 5.03125 0 
L 5.03125 6.203125 
Q 7.515625 11.921875 11.109375 16.28125 
Q 14.703125 20.65625 18.65625 24.1875 
Q 22.609375 27.734375 26.484375 30.765625 
Q 30.375 33.796875 33.5 36.8125 
Q 36.625 39.84375 38.546875 43.15625 
Q 40.484375 46.484375 40.484375 50.6875 
Q 40.484375 53.609375 39.59375 55.828125 
Q 38.71875 58.0625 37.0625 59.5625 
Q 35.40625 61.078125 33.078125 61.828125 
Q 30.765625 62.59375 27.9375 62.59375 
Q 25.296875 62.59375 22.96875 61.859375 
Q 20.65625 61.140625 18.84375 59.671875 
Q 17.046875 58.203125 15.890625 56.03125 
Q 14.75 53.859375 14.40625 50.984375 
L 5.421875 51.8125 
Q 5.859375 55.515625 7.46875 58.78125 
Q 9.078125 62.0625 11.90625 64.53125 
Q 14.75 67 18.71875 68.40625 
Q 22.703125 69.828125 27.9375 69.828125 
Q 33.0625 69.828125 37.0625 68.609375 
Q 41.0625 67.390625 43.8125 64.984375 
Q 46.578125 62.59375 48.046875 59.078125 
Q 49.515625 55.5625 49.515625 50.984375 
Q 49.515625 47.515625 48.265625 44.390625 
Q 47.015625 41.265625 44.9375 38.421875 
Q 42.875 35.59375 40.140625 32.953125 
Q 37.40625 30.328125 34.421875 27.8125 
Q 31.453125 25.296875 28.421875 22.828125 
Q 25.390625 20.359375 22.71875 17.859375 
Q 20.0625 15.375 17.96875 12.8125 
Q 15.875 10.25 14.703125 7.46875 
L 50.59375 7.46875 
L 50.59375 0 
z
" id="LiberationSans-32"/>
      </defs>
      <g style="fill:#262626;" transform="translate(292.952827 331.7975)scale(0.08 -0.08)">
       <use xlink:href="#LiberationSans-32"/>
       <use x="55.615234" xlink:href="#LiberationSans-30"/>
       <use x="111.230469" xlink:href="#LiberationSans-30"/>
      </g>
     </g>
    </g>
    <g id="xtick_3">
     <g id="line2d_5">
      <path clip-path="url(#pf54b1fbfab)" d="M 414.670086 320.4 
L 414.670086 43.2 
" style="fill:none;stroke:#ffffff;stroke-linecap:round;stroke-width:0.8;"/>
     </g>
     <g id="line2d_6"/>
     <g id="text_3">
      <!-- 400 -->
      <defs>
       <path d="M 43.015625 15.578125 
L 43.015625 0 
L 34.71875 0 
L 34.71875 15.578125 
L 2.296875 15.578125 
L 2.296875 22.40625 
L 33.796875 68.796875 
L 43.015625 68.796875 
L 43.015625 22.515625 
L 52.6875 22.515625 
L 52.6875 15.578125 
z
M 34.71875 58.890625 
Q 34.625 58.640625 34.234375 57.9375 
Q 33.84375 57.234375 33.34375 56.34375 
Q 32.859375 55.46875 32.34375 54.5625 
Q 31.84375 53.65625 31.453125 53.078125 
L 13.8125 27.09375 
Q 13.578125 26.703125 13.109375 26.0625 
Q 12.640625 25.4375 12.15625 24.78125 
Q 11.671875 24.125 11.171875 23.484375 
Q 10.6875 22.859375 10.40625 22.515625 
L 34.71875 22.515625 
z
" id="LiberationSans-34"/>
      </defs>
      <g style="fill:#262626;" transform="translate(407.996961 331.7975)scale(0.08 -0.08)">
       <use xlink:href="#LiberationSans-34"/>
       <use x="55.615234" xlink:href="#LiberationSans-30"/>
       <use x="111.230469" xlink:href="#LiberationSans-30"/>
      </g>
     </g>
    </g>
    <g id="xtick_4">
     <g id="line2d_7">
      <path clip-path="url(#pf54b1fbfab)" d="M 529.714219 320.4 
L 529.714219 43.2 
" style="fill:none;stroke:#ffffff;stroke-linecap:round;stroke-width:0.8;"/>
     </g>
     <g id="line2d_8"/>
     <g id="text_4">
      <!-- 600 -->
      <defs>
       <path d="M 51.21875 22.515625 
Q 51.21875 17.328125 49.78125 13 
Q 48.34375 8.6875 45.53125 5.578125 
Q 42.71875 2.484375 38.5625 0.75 
Q 34.421875 -0.984375 29 -0.984375 
Q 23 -0.984375 18.5 1.3125 
Q 14.015625 3.609375 11.03125 7.921875 
Q 8.0625 12.25 6.5625 18.53125 
Q 5.078125 24.8125 5.078125 32.8125 
Q 5.078125 42 6.765625 48.921875 
Q 8.453125 55.859375 11.625 60.5 
Q 14.796875 65.140625 19.359375 67.484375 
Q 23.921875 69.828125 29.6875 69.828125 
Q 33.203125 69.828125 36.28125 69.09375 
Q 39.359375 68.359375 41.875 66.71875 
Q 44.390625 65.09375 46.28125 62.40625 
Q 48.1875 59.71875 49.3125 55.8125 
L 40.921875 54.296875 
Q 39.546875 58.734375 36.546875 60.71875 
Q 33.546875 62.703125 29.59375 62.703125 
Q 25.984375 62.703125 23.046875 60.984375 
Q 20.125 59.28125 18.0625 55.875 
Q 16.015625 52.484375 14.90625 47.359375 
Q 13.8125 42.234375 13.8125 35.40625 
Q 16.21875 39.84375 20.5625 42.15625 
Q 24.90625 44.484375 30.515625 44.484375 
Q 35.203125 44.484375 39.015625 42.96875 
Q 42.828125 41.453125 45.53125 38.59375 
Q 48.25 35.75 49.734375 31.671875 
Q 51.21875 27.59375 51.21875 22.515625 
M 42.28125 22.125 
Q 42.28125 25.6875 41.40625 28.5625 
Q 40.53125 31.453125 38.765625 33.46875 
Q 37.015625 35.5 34.421875 36.59375 
Q 31.84375 37.703125 28.421875 37.703125 
Q 26.03125 37.703125 23.578125 36.984375 
Q 21.140625 36.28125 19.15625 34.6875 
Q 17.1875 33.109375 15.9375 30.515625 
Q 14.703125 27.9375 14.703125 24.21875 
Q 14.703125 20.40625 15.671875 17.109375 
Q 16.65625 13.8125 18.484375 11.375 
Q 20.3125 8.9375 22.890625 7.515625 
Q 25.484375 6.109375 28.71875 6.109375 
Q 31.890625 6.109375 34.40625 7.203125 
Q 36.921875 8.296875 38.671875 10.375 
Q 40.4375 12.453125 41.359375 15.421875 
Q 42.28125 18.40625 42.28125 22.125 
" id="LiberationSans-36"/>
      </defs>
      <g style="fill:#262626;" transform="translate(523.041094 331.7975)scale(0.08 -0.08)">
       <use xlink:href="#LiberationSans-36"/>
       <use x="55.615234" xlink:href="#LiberationSans-30"/>
       <use x="111.230469" xlink:href="#LiberationSans-30"/>
      </g>
     </g>
    </g>
    <g id="xtick_5">
     <g id="line2d_9">
      <path clip-path="url(#pf54b1fbfab)" d="M 644.758353 320.4 
L 644.758353 43.2 
" style="fill:none;stroke:#ffffff;stroke-linecap:round;stroke-width:0.8;"/>
     </g>
     <g id="line2d_10"/>
     <g id="text_5">
      <!-- 800 -->
      <defs>
       <path d="M 51.265625 19.1875 
Q 51.265625 14.796875 49.875 11.109375 
Q 48.484375 7.421875 45.625 4.734375 
Q 42.78125 2.046875 38.328125 0.53125 
Q 33.890625 -0.984375 27.828125 -0.984375 
Q 21.78125 -0.984375 17.359375 0.53125 
Q 12.9375 2.046875 10.03125 4.703125 
Q 7.125 7.375 5.734375 11.0625 
Q 4.34375 14.75 4.34375 19.09375 
Q 4.34375 22.859375 5.484375 25.78125 
Q 6.640625 28.71875 8.5625 30.828125 
Q 10.5 32.953125 12.96875 34.25 
Q 15.4375 35.546875 18.0625 35.984375 
L 18.0625 36.1875 
Q 15.1875 36.859375 12.90625 38.375 
Q 10.640625 39.890625 9.09375 42.015625 
Q 7.5625 44.140625 6.75 46.71875 
Q 5.953125 49.3125 5.953125 52.203125 
Q 5.953125 55.8125 7.34375 59 
Q 8.734375 62.203125 11.46875 64.625 
Q 14.203125 67.046875 18.25 68.4375 
Q 22.3125 69.828125 27.640625 69.828125 
Q 33.25 69.828125 37.375 68.40625 
Q 41.5 67 44.203125 64.578125 
Q 46.921875 62.15625 48.234375 58.9375 
Q 49.5625 55.71875 49.5625 52.09375 
Q 49.5625 49.265625 48.75 46.671875 
Q 47.953125 44.09375 46.40625 41.96875 
Q 44.875 39.84375 42.59375 38.34375 
Q 40.328125 36.859375 37.359375 36.28125 
L 37.359375 36.078125 
Q 40.328125 35.59375 42.859375 34.296875 
Q 45.40625 33.015625 47.265625 30.890625 
Q 49.125 28.765625 50.1875 25.828125 
Q 51.265625 22.90625 51.265625 19.1875 
M 40.4375 51.609375 
Q 40.4375 54.203125 39.765625 56.34375 
Q 39.109375 58.5 37.59375 60.03125 
Q 36.078125 61.578125 33.640625 62.421875 
Q 31.203125 63.28125 27.640625 63.28125 
Q 24.171875 63.28125 21.78125 62.421875 
Q 19.390625 61.578125 17.84375 60.03125 
Q 16.3125 58.5 15.625 56.34375 
Q 14.9375 54.203125 14.9375 51.609375 
Q 14.9375 49.5625 15.46875 47.40625 
Q 16.015625 45.265625 17.421875 43.5 
Q 18.84375 41.75 21.328125 40.625 
Q 23.828125 39.5 27.734375 39.5 
Q 31.890625 39.5 34.40625 40.625 
Q 36.921875 41.75 38.25 43.5 
Q 39.59375 45.265625 40.015625 47.40625 
Q 40.4375 49.5625 40.4375 51.609375 
M 42.140625 20.015625 
Q 42.140625 22.515625 41.453125 24.828125 
Q 40.765625 27.15625 39.109375 28.9375 
Q 37.453125 30.71875 34.640625 31.8125 
Q 31.84375 32.90625 27.640625 32.90625 
Q 23.78125 32.90625 21.0625 31.8125 
Q 18.359375 30.71875 16.671875 28.90625 
Q 14.984375 27.09375 14.203125 24.71875 
Q 13.421875 22.359375 13.421875 19.828125 
Q 13.421875 16.65625 14.203125 14.03125 
Q 14.984375 11.421875 16.6875 9.546875 
Q 18.40625 7.671875 21.1875 6.640625 
Q 23.96875 5.609375 27.9375 5.609375 
Q 31.9375 5.609375 34.671875 6.640625 
Q 37.40625 7.671875 39.0625 9.546875 
Q 40.71875 11.421875 41.421875 14.078125 
Q 42.140625 16.75 42.140625 20.015625 
" id="LiberationSans-38"/>
      </defs>
      <g style="fill:#262626;" transform="translate(638.085228 331.7975)scale(0.08 -0.08)">
       <use xlink:href="#LiberationSans-38"/>
       <use x="55.615234" xlink:href="#LiberationSans-30"/>
       <use x="111.230469" xlink:href="#LiberationSans-30"/>
      </g>
     </g>
    </g>
    <g id="xtick_6">
     <g id="line2d_11">
      <path clip-path="url(#pf54b1fbfab)" d="M 759.802487 320.4 
L 759.802487 43.2 
" style="fill:none;stroke:#ffffff;stroke-linecap:round;stroke-width:0.8;"/>
     </g>
     <g id="line2d_12"/>
     <g id="text_6">
      <!-- 1000 -->
      <defs>
       <path d="M 7.625 0 
L 7.625 7.46875 
L 25.140625 7.46875 
L 25.140625 60.40625 
L 9.625 49.3125 
L 9.625 57.625 
L 25.875 68.796875 
L 33.984375 68.796875 
L 33.984375 7.46875 
L 50.734375 7.46875 
L 50.734375 0 
z
" id="LiberationSans-31"/>
      </defs>
      <g style="fill:#262626;" transform="translate(750.904987 331.7975)scale(0.08 -0.08)">
       <use xlink:href="#LiberationSans-31"/>
       <use x="55.615234" xlink:href="#LiberationSans-30"/>
       <use x="111.230469" xlink:href="#LiberationSans-30"/>
       <use x="166.845703" xlink:href="#LiberationSans-30"/>
      </g>
     </g>
    </g>
    <g id="xtick_7">
     <g id="line2d_13">
      <path clip-path="url(#pf54b1fbfab)" d="M 874.846621 320.4 
L 874.846621 43.2 
" style="fill:none;stroke:#ffffff;stroke-linecap:round;stroke-width:0.8;"/>
     </g>
     <g id="line2d_14"/>
     <g id="text_7">
      <!-- 1200 -->
      <g style="fill:#262626;" transform="translate(865.949121 331.7975)scale(0.08 -0.08)">
       <use xlink:href="#LiberationSans-31"/>
       <use x="55.615234" xlink:href="#LiberationSans-32"/>
       <use x="111.230469" xlink:href="#LiberationSans-30"/>
       <use x="166.845703" xlink:href="#LiberationSans-30"/>
      </g>
     </g>
    </g>
    <g id="xtick_8">
     <g id="line2d_15">
      <path clip-path="url(#pf54b1fbfab)" d="M 989.890754 320.4 
L 989.890754 43.2 
" style="fill:none;stroke:#ffffff;stroke-linecap:round;stroke-width:0.8;"/>
     </g>
     <g id="line2d_16"/>
     <g id="text_8">
      <!-- 1400 -->
      <g style="fill:#262626;" transform="translate(980.993254 331.7975)scale(0.08 -0.08)">
       <use xlink:href="#LiberationSans-31"/>
       <use x="55.615234" xlink:href="#LiberationSans-34"/>
       <use x="111.230469" xlink:href="#LiberationSans-30"/>
       <use x="166.845703" xlink:href="#LiberationSans-30"/>
      </g>
     </g>
    </g>
   </g>
   <g id="matplotlib.axis_2">
    <g id="ytick_1">
     <g id="line2d_17">
      <path clip-path="url(#pf54b1fbfab)" d="M 144 299.287193 
L 1036.8 299.287193 
" style="fill:none;stroke:#ffffff;stroke-linecap:round;stroke-width:0.8;"/>
     </g>
     <g id="line2d_18"/>
     <g id="text_9">
      <!-- −150000 -->
      <defs>
       <path d="M 4.9375 29.6875 
L 4.9375 36.8125 
L 53.515625 36.8125 
L 53.515625 29.6875 
z
" id="LiberationSans-2212"/>
       <path d="M 51.421875 22.40625 
Q 51.421875 17.234375 49.859375 12.9375 
Q 48.296875 8.640625 45.21875 5.53125 
Q 42.140625 2.4375 37.578125 0.71875 
Q 33.015625 -0.984375 27 -0.984375 
Q 21.578125 -0.984375 17.546875 0.28125 
Q 13.53125 1.5625 10.734375 3.78125 
Q 7.953125 6 6.3125 8.984375 
Q 4.6875 11.96875 4 15.375 
L 12.890625 16.40625 
Q 13.421875 14.453125 14.390625 12.625 
Q 15.375 10.796875 17.0625 9.34375 
Q 18.75 7.90625 21.21875 7.046875 
Q 23.6875 6.203125 27.203125 6.203125 
Q 30.609375 6.203125 33.390625 7.25 
Q 36.1875 8.296875 38.15625 10.34375 
Q 40.140625 12.40625 41.203125 15.375 
Q 42.28125 18.359375 42.28125 22.21875 
Q 42.28125 25.390625 41.25 28.046875 
Q 40.234375 30.71875 38.328125 32.640625 
Q 36.421875 34.578125 33.65625 35.640625 
Q 30.90625 36.71875 27.390625 36.71875 
Q 25.203125 36.71875 23.34375 36.328125 
Q 21.484375 35.9375 19.890625 35.25 
Q 18.3125 34.578125 17.015625 33.671875 
Q 15.71875 32.765625 14.59375 31.78125 
L 6 31.78125 
L 8.296875 68.796875 
L 47.40625 68.796875 
L 47.40625 61.328125 
L 16.3125 61.328125 
L 14.984375 39.5 
Q 17.328125 41.3125 20.84375 42.59375 
Q 24.359375 43.890625 29.203125 43.890625 
Q 34.328125 43.890625 38.421875 42.328125 
Q 42.53125 40.765625 45.40625 37.90625 
Q 48.296875 35.0625 49.859375 31.109375 
Q 51.421875 27.15625 51.421875 22.40625 
" id="LiberationSans-35"/>
      </defs>
      <g style="fill:#262626;" transform="translate(107.035 302.185943)scale(0.08 -0.08)">
       <use xlink:href="#LiberationSans-2212"/>
       <use x="58.398438" xlink:href="#LiberationSans-31"/>
       <use x="114.013672" xlink:href="#LiberationSans-35"/>
       <use x="169.628906" xlink:href="#LiberationSans-30"/>
       <use x="225.244141" xlink:href="#LiberationSans-30"/>
       <use x="280.859375" xlink:href="#LiberationSans-30"/>
       <use x="336.474609" xlink:href="#LiberationSans-30"/>
      </g>
     </g>
    </g>
    <g id="ytick_2">
     <g id="line2d_19">
      <path clip-path="url(#pf54b1fbfab)" d="M 144 258.777022 
L 1036.8 258.777022 
" style="fill:none;stroke:#ffffff;stroke-linecap:round;stroke-width:0.8;"/>
     </g>
     <g id="line2d_20"/>
     <g id="text_10">
      <!-- −100000 -->
      <g style="fill:#262626;" transform="translate(107.035 261.675772)scale(0.08 -0.08)">
       <use xlink:href="#LiberationSans-2212"/>
       <use x="58.398438" xlink:href="#LiberationSans-31"/>
       <use x="114.013672" xlink:href="#LiberationSans-30"/>
       <use x="169.628906" xlink:href="#LiberationSans-30"/>
       <use x="225.244141" xlink:href="#LiberationSans-30"/>
       <use x="280.859375" xlink:href="#LiberationSans-30"/>
       <use x="336.474609" xlink:href="#LiberationSans-30"/>
      </g>
     </g>
    </g>
    <g id="ytick_3">
     <g id="line2d_21">
      <path clip-path="url(#pf54b1fbfab)" d="M 144 218.266851 
L 1036.8 218.266851 
" style="fill:none;stroke:#ffffff;stroke-linecap:round;stroke-width:0.8;"/>
     </g>
     <g id="line2d_22"/>
     <g id="text_11">
      <!-- −50000 -->
      <g style="fill:#262626;" transform="translate(111.48375 221.165601)scale(0.08 -0.08)">
       <use xlink:href="#LiberationSans-2212"/>
       <use x="58.398438" xlink:href="#LiberationSans-35"/>
       <use x="114.013672" xlink:href="#LiberationSans-30"/>
       <use x="169.628906" xlink:href="#LiberationSans-30"/>
       <use x="225.244141" xlink:href="#LiberationSans-30"/>
       <use x="280.859375" xlink:href="#LiberationSans-30"/>
      </g>
     </g>
    </g>
    <g id="ytick_4">
     <g id="line2d_23">
      <path clip-path="url(#pf54b1fbfab)" d="M 144 177.75668 
L 1036.8 177.75668 
" style="fill:none;stroke:#ffffff;stroke-linecap:round;stroke-width:0.8;"/>
     </g>
     <g id="line2d_24"/>
     <g id="text_12">
      <!-- 0 -->
      <g style="fill:#262626;" transform="translate(133.95125 180.65543)scale(0.08 -0.08)">
       <use xlink:href="#LiberationSans-30"/>
      </g>
     </g>
    </g>
    <g id="ytick_5">
     <g id="line2d_25">
      <path clip-path="url(#pf54b1fbfab)" d="M 144 137.246509 
L 1036.8 137.246509 
" style="fill:none;stroke:#ffffff;stroke-linecap:round;stroke-width:0.8;"/>
     </g>
     <g id="line2d_26"/>
     <g id="text_13">
      <!-- 50000 -->
      <g style="fill:#262626;" transform="translate(116.15625 140.145259)scale(0.08 -0.08)">
       <use xlink:href="#LiberationSans-35"/>
       <use x="55.615234" xlink:href="#LiberationSans-30"/>
       <use x="111.230469" xlink:href="#LiberationSans-30"/>
       <use x="166.845703" xlink:href="#LiberationSans-30"/>
       <use x="222.460938" xlink:href="#LiberationSans-30"/>
      </g>
     </g>
    </g>
    <g id="ytick_6">
     <g id="line2d_27">
      <path clip-path="url(#pf54b1fbfab)" d="M 144 96.736338 
L 1036.8 96.736338 
" style="fill:none;stroke:#ffffff;stroke-linecap:round;stroke-width:0.8;"/>
     </g>
     <g id="line2d_28"/>
     <g id="text_14">
      <!-- 100000 -->
      <g style="fill:#262626;" transform="translate(111.7075 99.635088)scale(0.08 -0.08)">
       <use xlink:href="#LiberationSans-31"/>
       <use x="55.615234" xlink:href="#LiberationSans-30"/>
       <use x="111.230469" xlink:href="#LiberationSans-30"/>
       <use x="166.845703" xlink:href="#LiberationSans-30"/>
       <use x="222.460938" xlink:href="#LiberationSans-30"/>
       <use x="278.076172" xlink:href="#LiberationSans-30"/>
      </g>
     </g>
    </g>
    <g id="ytick_7">
     <g id="line2d_29">
      <path clip-path="url(#pf54b1fbfab)" d="M 144 56.226167 
L 1036.8 56.226167 
" style="fill:none;stroke:#ffffff;stroke-linecap:round;stroke-width:0.8;"/>
     </g>
     <g id="line2d_30"/>
     <g id="text_15">
      <!-- 150000 -->
      <g style="fill:#262626;" transform="translate(111.7075 59.124917)scale(0.08 -0.08)">
       <use xlink:href="#LiberationSans-31"/>
       <use x="55.615234" xlink:href="#LiberationSans-35"/>
       <use x="111.230469" xlink:href="#LiberationSans-30"/>
       <use x="166.845703" xlink:href="#LiberationSans-30"/>
       <use x="222.460938" xlink:href="#LiberationSans-30"/>
       <use x="278.076172" xlink:href="#LiberationSans-30"/>
      </g>
     </g>
    </g>
   </g>
   <g id="line2d_31">
    <path clip-path="url(#pf54b1fbfab)" d="M 184.581818 177.75668 
L 187.457922 177.756783 
L 188.033142 178.659263 
L 189.183584 184.369147 
L 189.758804 183.851864 
L 190.334025 178.221859 
L 190.909246 169.77044 
L 191.484466 164.033859 
L 192.059687 165.793135 
L 192.634908 175.107598 
L 193.210128 186.539204 
L 193.785349 192.594583 
L 194.36057 189.362682 
L 195.511011 170.452599 
L 196.086232 166.948728 
L 196.661452 169.768188 
L 197.811894 180.222923 
L 198.387114 182.139767 
L 198.962335 181.814138 
L 200.687997 178.146044 
L 201.263218 177.276427 
L 201.838438 176.090091 
L 202.98888 172.411436 
L 203.5641 173.073267 
L 204.139321 177.891534 
L 204.714542 185.187307 
L 205.289762 189.376941 
L 205.864983 185.204888 
L 207.015424 163.72347 
L 207.590645 163.42086 
L 208.165866 174.137128 
L 208.741086 187.696742 
L 209.316307 193.083865 
L 209.891528 186.436551 
L 210.466748 174.236135 
L 211.041969 166.536335 
L 211.61719 168.263364 
L 212.767631 183.123921 
L 213.342852 184.00936 
L 214.493293 175.597415 
L 215.068514 174.807272 
L 216.218955 180.967362 
L 216.794176 180.244531 
L 217.944617 170.863461 
L 218.519838 172.395151 
L 219.670279 187.904964 
L 220.2455 186.984006 
L 221.395941 167.1482 
L 221.971162 166.233562 
L 223.121603 185.284158 
L 223.696824 188.059389 
L 224.272044 182.690276 
L 224.847265 175.382687 
L 225.422486 171.628398 
L 225.997706 172.280458 
L 227.723368 181.696156 
L 228.298589 182.510103 
L 228.87381 180.463804 
L 229.44903 177.035677 
L 230.024251 174.734799 
L 230.599472 174.276046 
L 231.174692 174.567727 
L 231.749913 175.757827 
L 232.325134 179.52174 
L 232.900354 184.967555 
L 233.475575 186.252959 
L 234.050796 178.696329 
L 234.626016 167.475766 
L 235.201237 164.3325 
L 235.776458 174.427732 
L 236.351678 188.889199 
L 236.926899 192.658427 
L 237.50212 181.922081 
L 238.07734 168.503104 
L 238.652561 165.239361 
L 239.227782 173.115908 
L 239.803002 182.723016 
L 240.378223 185.763928 
L 240.953444 182.617601 
L 241.528664 177.875741 
L 242.103885 174.296852 
L 242.679106 172.854414 
L 243.254326 174.300862 
L 244.404768 181.431989 
L 244.979988 181.673357 
L 246.13043 177.307395 
L 247.280871 174.092932 
L 247.856092 174.074881 
L 248.431312 177.848499 
L 249.006533 183.464004 
L 249.581754 184.579751 
L 250.732195 171.320035 
L 251.307416 170.648425 
L 252.457857 182.324291 
L 253.033078 183.055702 
L 254.183519 177.311597 
L 254.75874 174.410953 
L 255.33396 172.542794 
L 255.909181 174.563514 
L 256.484402 180.48598 
L 257.059622 184.674715 
L 257.634843 182.349456 
L 258.210064 175.953904 
L 258.785284 172.197712 
L 259.360505 173.347342 
L 260.510946 179.581857 
L 261.086167 183.499572 
L 261.661388 184.955661 
L 262.236608 178.623071 
L 262.811829 168.080177 
L 263.38705 165.873426 
L 264.537491 191.362831 
L 265.112712 190.142422 
L 265.687932 175.12394 
L 266.263153 164.398775 
L 266.838374 168.738711 
L 267.413594 180.734623 
L 267.988815 186.618442 
L 268.564036 183.655244 
L 269.139256 178.336662 
L 269.714477 174.264865 
L 270.289698 171.568678 
L 270.864918 172.576498 
L 272.01536 185.781477 
L 272.590581 184.62129 
L 273.165801 176.351568 
L 273.741022 170.342573 
L 274.316243 172.344456 
L 274.891463 177.886232 
L 275.466684 181.38486 
L 276.041905 182.569458 
L 276.617125 181.943155 
L 277.192346 177.363371 
L 277.767567 170.60418 
L 278.342787 169.697044 
L 279.493229 187.850194 
L 280.068449 185.986078 
L 280.64367 174.943232 
L 281.218891 168.26458 
L 281.794111 172.384772 
L 282.369332 180.590804 
L 282.944553 183.532474 
L 283.519773 180.881845 
L 284.094994 177.584274 
L 284.670215 175.701315 
L 285.245435 174.956682 
L 285.820656 175.706128 
L 286.971097 179.481222 
L 288.121539 181.066928 
L 288.696759 179.521854 
L 289.847201 168.117123 
L 290.422421 173.489492 
L 290.997642 187.956493 
L 291.572863 193.781369 
L 292.148083 179.221633 
L 292.723304 160.40269 
L 293.298525 161.457413 
L 293.873745 182.57893 
L 294.448966 197.706967 
L 295.024187 188.37391 
L 295.599407 168.963623 
L 296.174628 162.711932 
L 297.325069 183.880983 
L 297.90029 185.794951 
L 299.625952 173.63033 
L 300.201173 171.434201 
L 300.776393 174.493902 
L 301.351614 180.902019 
L 301.926835 184.053095 
L 302.502055 181.751615 
L 303.652497 174.455449 
L 304.227717 171.143224 
L 304.802938 171.125935 
L 305.378159 179.521084 
L 305.953379 191.271926 
L 306.5286 190.085869 
L 307.103821 171.880096 
L 307.679041 157.350491 
L 308.254262 166.012052 
L 308.829483 189.992453 
L 309.404703 199.868265 
L 309.979924 183.335279 
L 310.555145 162.423175 
L 311.130365 161.121907 
L 311.705586 177.798524 
L 312.280807 190.80136 
L 312.856027 186.769221 
L 313.431248 175.058751 
L 314.006469 170.146909 
L 314.581689 175.061627 
L 315.15691 181.617947 
L 315.732131 180.8592 
L 316.307351 174.269394 
L 316.882572 171.717837 
L 317.457793 179.141812 
L 318.033013 189.333758 
L 318.608234 186.452836 
L 319.183455 169.080454 
L 319.758675 157.785814 
L 320.333896 169.74342 
L 320.909117 195.212107 
L 321.484337 202.925649 
L 322.634779 154.653972 
L 323.209999 154.903677 
L 323.78522 179.860835 
L 324.360441 199.969865 
L 324.935661 194.143935 
L 325.510882 174.471499 
L 326.086103 163.319341 
L 326.661323 167.115468 
L 327.236544 177.143012 
L 327.811765 183.709779 
L 328.386985 185.039428 
L 328.962206 182.680108 
L 330.112647 173.446462 
L 330.687868 172.531986 
L 331.838309 175.505546 
L 332.41353 178.968315 
L 332.988751 186.323366 
L 333.563971 191.011122 
L 334.139192 181.450413 
L 334.714413 161.664176 
L 335.289633 153.616669 
L 335.864854 171.440253 
L 336.440075 201.194487 
L 337.015295 209.010601 
L 337.590516 182.782517 
L 338.165737 151.185816 
L 338.740957 147.259408 
L 339.891399 201.552759 
L 340.466619 202.50961 
L 341.617061 162.278149 
L 342.192281 161.188992 
L 343.342723 185.51898 
L 343.917943 186.297682 
L 344.493164 179.725968 
L 345.068385 174.472528 
L 345.643605 175.947325 
L 346.218826 181.773992 
L 346.794047 182.423622 
L 347.944488 164.540723 
L 348.519709 167.929642 
L 349.67015 200.417826 
L 350.245371 193.98951 
L 350.820591 169.657927 
L 351.395812 151.647389 
L 351.971033 157.111319 
L 353.121474 200.181733 
L 353.696695 198.338034 
L 354.847136 167.224684 
L 355.422357 162.440837 
L 355.997577 166.488533 
L 357.723239 190.357936 
L 358.29846 190.045035 
L 358.873681 182.104393 
L 359.448901 171.931836 
L 360.024122 166.508707 
L 360.599343 167.350751 
L 361.174563 170.982099 
L 361.749784 176.208859 
L 362.325005 185.149276 
L 362.900226 196.348499 
L 363.475446 199.10635 
L 364.050667 182.922342 
L 364.625888 155.882889 
L 365.201108 141.323858 
L 365.776329 154.765699 
L 366.35155 189.460797 
L 366.92677 217.362421 
L 367.501991 213.366416 
L 368.652432 152.71548 
L 369.227653 144.131537 
L 369.802874 158.300941 
L 370.378094 180.532259 
L 370.953315 194.893211 
L 371.528536 197.274318 
L 372.103756 191.632386 
L 373.829418 164.215831 
L 374.404639 162.487991 
L 374.97986 168.215805 
L 375.55508 177.247145 
L 376.130301 184.475275 
L 376.705522 188.560418 
L 377.280742 190.448111 
L 377.855963 189.699969 
L 378.431184 183.051343 
L 379.581625 157.141135 
L 380.156846 154.658834 
L 380.732066 165.974459 
L 381.307287 185.51599 
L 381.882508 200.680089 
L 382.457728 201.918809 
L 383.032949 191.1841 
L 383.60817 177.193454 
L 384.18339 166.306399 
L 384.758611 160.055923 
L 385.333832 157.955146 
L 385.909052 161.684756 
L 386.484273 173.691638 
L 387.059494 190.519328 
L 387.634714 202.952467 
L 388.209935 203.899757 
L 388.785156 193.096747 
L 389.935597 162.858173 
L 390.510818 154.67439 
L 391.086038 151.252657 
L 391.661259 153.79305 
L 392.23648 165.957201 
L 392.8117 189.056749 
L 393.386921 216.895419 
L 393.962142 232.556327 
L 394.537362 218.872802 
L 395.687804 133.764093 
L 396.263024 111.951229 
L 396.838245 123.360432 
L 397.988686 201.64966 
L 398.563907 226.155558 
L 399.139128 227.181681 
L 399.714348 212.203693 
L 401.44001 151.648685 
L 402.015231 136.783154 
L 402.590452 132.523671 
L 403.165672 144.947249 
L 404.316114 200.068791 
L 404.891334 219.030386 
L 405.466555 222.787624 
L 406.041776 213.427911 
L 407.192217 178.231026 
L 408.342658 136.390529 
L 408.917879 123.47937 
L 409.4931 127.531441 
L 410.06832 151.417939 
L 411.218762 227.343641 
L 411.793982 247.473874 
L 412.369203 239.126024 
L 412.944424 207.563172 
L 413.519644 169.226939 
L 414.094865 139.822713 
L 414.670086 127.121964 
L 415.245306 131.060606 
L 415.820527 146.663584 
L 416.970968 185.48103 
L 417.546189 197.277559 
L 418.12141 200.624347 
L 418.69663 197.679906 
L 419.271851 193.29233 
L 419.847072 192.706958 
L 420.422292 198.831691 
L 420.997513 207.499652 
L 421.572734 205.13953 
L 422.147954 179.48277 
L 423.298396 94.750529 
L 423.873616 82.336593 
L 424.448837 108.196746 
L 425.024058 165.67363 
L 425.599278 234.831703 
L 426.174499 287.378823 
L 426.74972 298.692503 
L 427.32494 264.850307 
L 428.475382 144.761389 
L 429.050602 104.103761 
L 429.625823 89.526338 
L 430.201044 98.452673 
L 430.776264 123.083343 
L 432.501926 214.898916 
L 433.077147 231.100716 
L 433.652368 231.943571 
L 434.227588 219.342477 
L 435.37803 185.820521 
L 435.95325 181.277856 
L 436.528471 185.765071 
L 437.103692 186.54285 
L 437.678912 169.353088 
L 438.829354 98.987731 
L 439.404574 85.583078 
L 439.979795 105.614547 
L 440.555016 155.597616 
L 441.705457 278.810922 
L 442.280678 306.093712 
L 442.855898 288.439379 
L 443.431119 232.59627 
L 444.58156 103.420516 
L 445.156781 74.451693 
L 445.732002 80.462592 
L 446.307222 116.131068 
L 447.457664 220.469632 
L 448.032884 251.569452 
L 448.608105 248.094733 
L 449.183326 211.262075 
L 450.333767 116.300806 
L 450.908988 102.866742 
L 451.484208 125.323636 
L 452.059429 177.398362 
L 452.63465 240.910659 
L 453.20987 287.348845 
L 453.785091 289.651443 
L 454.360312 242.401595 
L 455.510753 97.386688 
L 456.085974 59.438624 
L 456.661195 62.189264 
L 457.236415 99.025163 
L 458.386857 206.568486 
L 458.962077 243.444813 
L 459.537298 258.748097 
L 460.112519 253.861194 
L 460.687739 233.006558 
L 462.413401 146.729292 
L 462.988622 138.526711 
L 463.563843 148.257497 
L 464.139063 169.435486 
L 464.714284 185.724301 
L 465.289505 181.328972 
L 466.439946 124.630264 
L 467.015167 110.939042 
L 467.590387 126.992007 
L 468.165608 171.796467 
L 469.316049 287.125229 
L 469.89127 307.8 
L 470.466491 278.792287 
L 472.192153 74.79765 
L 472.767373 55.8 
L 473.342594 75.527643 
L 473.917815 122.573887 
L 475.068256 226.61308 
L 475.643477 251.680936 
L 476.218697 249.940457 
L 476.793918 226.164309 
L 477.944359 161.522148 
L 478.51958 145.890083 
L 479.094801 150.537005 
L 480.245242 197.74294 
L 480.820463 207.414419 
L 481.395683 191.77012 
L 482.546125 130.497676 
L 483.121345 120.881939 
L 483.696566 134.925681 
L 485.422228 225.230468 
L 485.997449 232.013653 
L 486.572669 224.609528 
L 487.14789 209.843652 
L 488.298331 171.498709 
L 489.448773 134.967002 
L 490.023993 127.633283 
L 490.599214 133.587549 
L 491.174435 151.007247 
L 492.324876 189.054967 
L 493.475317 211.096145 
L 494.625759 233.83175 
L 495.200979 234.04694 
L 495.7762 208.486156 
L 496.926641 102.629839 
L 497.501862 73.24692 
L 498.077083 84.551689 
L 498.652303 132.184277 
L 499.802745 248.977368 
L 500.377965 270.076119 
L 500.953186 257.934896 
L 502.103627 187.989711 
L 502.678848 153.783409 
L 503.254069 127.634337 
L 503.829289 112.975407 
L 504.40451 114.241674 
L 504.979731 133.931967 
L 506.130172 200.994043 
L 506.705393 224.728547 
L 507.280613 232.841033 
L 507.855834 226.907184 
L 508.431055 211.658589 
L 509.006275 189.861848 
L 510.156717 135.902868 
L 510.731937 120.23483 
L 511.307158 124.093667 
L 511.882379 147.232833 
L 513.03282 210.375875 
L 513.608041 225.377601 
L 514.183261 224.204346 
L 514.758482 211.603252 
L 515.908923 169.475753 
L 516.484144 147.00233 
L 517.059365 131.752763 
L 517.634585 132.626405 
L 518.209806 151.684658 
L 519.360247 203.388518 
L 519.935468 215.659859 
L 520.510689 216.405651 
L 521.085909 208.656623 
L 521.66113 192.173277 
L 522.811571 136.403006 
L 523.386792 121.985436 
L 523.962013 135.073462 
L 525.112454 218.530167 
L 525.687675 238.380475 
L 526.262895 220.109577 
L 527.413337 147.666778 
L 527.988557 138.113832 
L 528.563778 150.179381 
L 529.714219 186.785101 
L 530.28944 196.633123 
L 530.864661 199.935431 
L 531.439881 195.33218 
L 532.015102 182.487498 
L 532.590323 165.594797 
L 533.165543 154.900922 
L 533.740764 158.24131 
L 534.891205 184.785859 
L 535.466426 192.253893 
L 536.041647 194.231194 
L 536.616867 192.036758 
L 537.192088 183.415732 
L 538.342529 153.140026 
L 538.91775 152.744323 
L 539.492971 170.349509 
L 540.068191 195.837017 
L 540.643412 208.731648 
L 541.218633 197.863741 
L 541.793853 174.331901 
L 542.369074 157.632442 
L 542.944295 157.514558 
L 544.094736 183.143682 
L 544.669957 188.072757 
L 545.245178 185.559733 
L 545.820398 180.514742 
L 546.395619 177.290046 
L 546.97084 177.706417 
L 547.54606 179.098126 
L 548.121281 176.051915 
L 548.696502 168.030998 
L 549.271722 163.402225 
L 549.846943 171.930142 
L 550.422164 192.980402 
L 550.997384 208.227377 
L 551.572605 196.107463 
L 552.147826 162.182545 
L 552.723046 138.254726 
L 553.298267 148.448624 
L 553.873488 186.666568 
L 554.448708 217.415651 
L 555.023929 210.551851 
L 555.59915 176.732567 
L 556.17437 149.897187 
L 556.749591 149.644566 
L 557.900032 189.864279 
L 558.475253 195.48385 
L 559.050474 189.957776 
L 560.200915 171.047604 
L 560.776136 166.302753 
L 561.351356 168.615803 
L 562.501798 181.977491 
L 563.077018 184.436758 
L 563.652239 185.782255 
L 564.22746 186.364929 
L 564.80268 179.66351 
L 565.377901 164.553443 
L 565.953122 155.268917 
L 566.528342 166.786282 
L 567.103563 194.868176 
L 567.678784 211.208926 
L 568.254004 193.064096 
L 568.829225 157.754216 
L 569.404446 142.598794 
L 569.979666 162.595262 
L 570.554887 196.583377 
L 571.130108 207.934732 
L 571.705328 188.357624 
L 572.280549 163.789988 
L 572.85577 157.774633 
L 574.006211 186.722229 
L 574.581432 188.171359 
L 575.156652 178.623176 
L 575.731873 171.524555 
L 576.307094 174.966955 
L 576.882314 184.577102 
L 577.457535 185.682203 
L 578.607976 160.858348 
L 579.183197 167.817752 
L 579.758418 191.4398 
L 580.333638 204.625294 
L 580.908859 186.223144 
L 581.48408 155.383237 
L 582.0593 148.003175 
L 583.209742 203.635225 
L 583.784962 203.381875 
L 584.360183 177.065634 
L 584.935404 157.075427 
L 585.510624 160.520817 
L 586.085845 177.656778 
L 586.661066 188.835806 
L 587.236286 188.166416 
L 588.961948 170.397335 
L 589.537169 169.924646 
L 590.68761 181.536562 
L 591.262831 183.907453 
L 591.838052 183.599324 
L 592.413272 181.970135 
L 592.988493 175.190361 
L 593.563714 164.597761 
L 594.138934 163.493535 
L 594.714155 180.662515 
L 595.289376 201.734083 
L 595.864596 197.665727 
L 596.439817 167.55711 
L 597.015038 146.942618 
L 597.590258 161.360188 
L 598.165479 195.268092 
L 598.7407 207.327484 
L 599.891141 159.372678 
L 600.466362 157.809877 
L 601.041582 176.135584 
L 601.616803 190.177584 
L 602.192024 187.764231 
L 602.767244 178.490181 
L 603.342465 173.248036 
L 603.917686 173.619198 
L 604.492906 176.128552 
L 605.068127 177.611312 
L 605.643348 177.593435 
L 606.218568 178.217199 
L 607.36901 184.172883 
L 607.94423 179.080139 
L 608.519451 168.173918 
L 609.094672 165.25281 
L 609.669892 177.911357 
L 610.245113 193.855665 
L 610.820334 191.733904 
L 611.395554 172.687367 
L 611.970775 160.208403 
L 612.545996 167.668918 
L 613.121216 184.323419 
L 613.696437 190.599214 
L 614.271658 184.013192 
L 614.846878 175.832309 
L 615.422099 171.539705 
L 615.99732 170.051978 
L 616.57254 172.904906 
L 617.722982 189.035927 
L 618.298202 185.404239 
L 618.873423 173.403181 
L 619.448644 166.525397 
L 620.023864 171.10188 
L 620.599085 179.167665 
L 621.174306 183.879525 
L 621.749526 185.995233 
L 622.324747 184.663429 
L 622.899968 174.869836 
L 623.475188 162.342317 
L 624.050409 163.653388 
L 625.20085 201.239778 
L 625.776071 191.802609 
L 626.351292 165.313576 
L 626.926512 153.876096 
L 627.501733 169.305043 
L 628.076954 191.564085 
L 628.652174 195.097788 
L 629.802616 170.434069 
L 630.377836 168.10027 
L 630.953057 171.17577 
L 631.528278 176.871824 
L 632.103498 184.776217 
L 632.678719 188.841883 
L 633.25394 182.566315 
L 633.82916 170.262849 
L 634.404381 165.623235 
L 634.979602 173.412952 
L 635.554822 183.213975 
L 636.130043 185.915185 
L 636.705264 182.667671 
L 638.430926 169.20555 
L 639.006147 171.399467 
L 640.156588 189.845725 
L 640.731809 185.870705 
L 641.307029 173.78388 
L 641.88225 167.113848 
L 642.457471 170.88532 
L 643.032691 178.708418 
L 643.607912 183.295182 
L 644.183133 184.467814 
L 644.758353 183.037829 
L 645.333574 177.20394 
L 645.908795 168.973265 
L 646.484015 167.291444 
L 647.634457 187.102133 
L 648.209677 188.417255 
L 649.360119 173.091431 
L 649.935339 169.833628 
L 650.51056 169.380068 
L 651.085781 173.118792 
L 652.236222 195.336555 
L 652.811443 191.014119 
L 653.386663 169.253838 
L 653.961884 152.675456 
L 654.537105 161.28176 
L 655.112325 188.445045 
L 655.687546 204.588105 
L 656.262767 192.377773 
L 656.837987 168.590038 
L 657.413208 157.738822 
L 657.988429 165.310983 
L 658.563649 179.428535 
L 659.13887 187.979584 
L 659.714091 189.595291 
L 660.289311 185.862117 
L 661.439753 165.341609 
L 662.014973 162.969819 
L 662.590194 173.86238 
L 663.165415 187.817948 
L 663.740635 192.056608 
L 664.315856 185.031099 
L 664.891077 175.206921 
L 665.466297 169.533763 
L 666.041518 167.591544 
L 666.616739 169.269394 
L 667.191959 177.574193 
L 667.76718 190.757285 
L 668.342401 196.800106 
L 668.917621 184.899158 
L 669.492842 163.810081 
L 670.068063 154.373966 
L 670.643283 166.18892 
L 671.218504 188.328862 
L 671.793725 199.04915 
L 672.368945 189.97317 
L 672.944166 173.528455 
L 673.519387 164.600516 
L 674.094607 167.372384 
L 674.669828 176.171687 
L 675.245049 182.51293 
L 675.820269 183.030723 
L 676.39549 180.070005 
L 676.970711 177.892304 
L 677.545931 179.591491 
L 678.121152 182.741829 
L 678.696373 179.543008 
L 679.271593 168.11453 
L 679.846814 159.541525 
L 680.422035 167.06556 
L 681.572476 210.712271 
L 682.147697 201.419238 
L 683.298138 138.40194 
L 683.873359 143.203935 
L 685.0238 213.166539 
L 685.599021 215.730833 
L 686.749462 158.703855 
L 687.324683 148.110283 
L 687.899903 158.791681 
L 688.475124 177.613984 
L 689.050345 190.607559 
L 689.625565 194.035206 
L 690.200786 190.070475 
L 691.351227 173.397623 
L 691.926448 168.302902 
L 692.501669 167.764765 
L 693.65211 171.37444 
L 694.227331 176.017975 
L 694.802551 186.984411 
L 695.377772 200.980432 
L 695.952993 203.957929 
L 696.528213 184.102598 
L 697.103434 151.332706 
L 697.678655 132.286282 
L 698.253875 145.532702 
L 699.404317 225.203812 
L 699.979537 228.711426 
L 700.554758 194.115578 
L 701.129979 151.09086 
L 701.705199 130.983799 
L 702.28042 144.378406 
L 702.855641 177.805978 
L 703.430861 204.303805 
L 704.006082 206.52595 
L 705.156523 169.857545 
L 705.731744 162.991776 
L 706.306965 171.776107 
L 706.882185 186.796038 
L 707.457406 192.15286 
L 708.032627 179.250614 
L 708.607847 156.874173 
L 709.183068 144.854238 
L 709.758289 157.250188 
L 710.90873 226.969327 
L 711.483951 232.592544 
L 712.059171 198.205161 
L 712.634392 146.623398 
L 713.209613 113.559969 
L 713.784833 119.442451 
L 714.360054 159.555055 
L 714.935275 207.721891 
L 715.510495 233.444959 
L 716.085716 225.6888 
L 717.236157 168.679323 
L 717.811378 151.753849 
L 718.386599 147.630805 
L 718.961819 151.832196 
L 719.53704 160.824482 
L 721.262702 195.779574 
L 721.837923 201.121893 
L 722.413143 202.141696 
L 722.988364 200.18068 
L 723.563585 193.773267 
L 724.138805 177.303848 
L 725.289247 122.653692 
L 725.864467 114.993543 
L 726.439688 137.920922 
L 727.59013 244.453598 
L 728.16535 274.833633 
L 728.740571 256.043963 
L 729.891012 130.871504 
L 730.466233 91.819213 
L 731.041454 93.220055 
L 731.616674 128.466091 
L 732.191895 177.296529 
L 732.767116 216.437817 
L 733.342336 232.792826 
L 733.917557 227.945136 
L 734.492778 211.172953 
L 735.643219 172.924886 
L 736.21844 160.1478 
L 736.79366 154.500358 
L 737.368881 154.463737 
L 737.944102 155.566829 
L 738.519322 155.039629 
L 739.094543 155.398306 
L 739.669764 162.00114 
L 740.244984 177.872012 
L 741.395426 226.188291 
L 741.970646 239.62519 
L 742.545867 229.877957 
L 743.121088 197.104905 
L 743.696308 155.834277 
L 744.271529 124.339077 
L 744.84675 113.057805 
L 745.42197 121.726414 
L 748.298074 224.824394 
L 748.873294 234.483234 
L 749.448515 230.665151 
L 750.023736 211.784575 
L 751.174177 154.26394 
L 751.749398 135.094852 
L 752.324618 129.859398 
L 752.899839 134.139298 
L 754.05028 145.250589 
L 754.625501 154.309798 
L 755.200722 172.674671 
L 756.926384 263.614746 
L 757.501604 270.573584 
L 758.076825 244.222609 
L 759.802487 89.625993 
L 760.377708 78.364165 
L 760.952928 95.582608 
L 762.67859 199.400049 
L 763.253811 220.743238 
L 763.829032 235.007679 
L 764.404252 242.127585 
L 764.979473 238.202716 
L 765.554694 220.685551 
L 767.280356 138.908722 
L 767.855576 128.995559 
L 768.430797 133.813596 
L 769.581238 160.228901 
L 770.156459 168.456598 
L 771.3069 178.937786 
L 773.032562 203.123501 
L 773.607783 205.409976 
L 774.183004 200.666478 
L 775.333445 183.219533 
L 775.908666 179.156979 
L 776.483886 177.891106 
L 777.059107 175.960507 
L 777.634328 171.161065 
L 778.784769 155.945275 
L 779.35999 152.005012 
L 779.93521 154.833432 
L 781.085652 168.878309 
L 781.660872 170.983379 
L 782.236093 171.371135 
L 782.811314 175.69912 
L 783.386534 188.038647 
L 783.961755 208.885181 
L 784.536976 234.167822 
L 785.112196 253.053178 
L 785.687417 249.357759 
L 786.262638 214.327804 
L 787.413079 103.505506 
L 787.9883 73.287431 
L 788.56352 76.290855 
L 789.138741 107.633169 
L 790.289182 197.245799 
L 790.864403 227.101633 
L 791.439624 240.710458 
L 792.014844 242.799648 
L 792.590065 237.23663 
L 793.165286 223.877753 
L 793.740506 202.212832 
L 794.890948 150.278955 
L 795.466168 133.900936 
L 796.041389 131.354386 
L 796.61661 141.951846 
L 797.19183 157.319056 
L 797.767051 166.768458 
L 798.342272 166.495095 
L 798.917492 162.385258 
L 799.492713 163.749559 
L 800.067934 176.039405 
L 801.793596 244.961028 
L 802.368816 243.726845 
L 802.944037 217.054624 
L 804.094478 134.481771 
L 804.669699 111.063813 
L 805.24492 110.063941 
L 805.82014 128.690599 
L 807.545802 214.072509 
L 808.121023 220.853425 
L 808.696244 208.999015 
L 809.846685 160.0001 
L 810.421906 148.393774 
L 810.997126 157.273279 
L 811.572347 186.227924 
L 812.147568 224.041819 
L 812.722788 247.418537 
L 813.298009 233.65553 
L 813.87323 181.953355 
L 814.44845 117.751394 
L 815.023671 74.741746 
L 815.598892 73.168331 
L 816.174112 112.923878 
L 817.324554 240.265008 
L 817.899774 275.548233 
L 818.474995 273.343669 
L 819.050216 242.801755 
L 820.200657 161.438049 
L 820.775878 131.990557 
L 821.351099 116.280227 
L 821.926319 115.496274 
L 822.50154 128.691733 
L 824.227202 194.199353 
L 824.802423 205.021402 
L 825.952864 219.192913 
L 826.528085 229.220072 
L 827.103305 233.637544 
L 827.678526 215.501059 
L 828.253747 167.478763 
L 828.828967 107.057357 
L 829.404188 67.093425 
L 829.979409 71.320257 
L 830.554629 121.361418 
L 831.705071 266.438305 
L 832.280291 293.134508 
L 832.855512 268.214271 
L 834.005953 154.38774 
L 834.581174 119.454361 
L 835.156395 113.898067 
L 835.731615 132.181927 
L 836.306836 159.659004 
L 836.882057 179.799421 
L 837.457277 184.873337 
L 838.032498 180.658869 
L 838.607719 179.41626 
L 839.182939 189.422394 
L 840.333381 230.879774 
L 840.908601 229.447739 
L 841.483822 193.402842 
L 842.059043 137.448006 
L 842.634263 95.460268 
L 843.209484 93.136604 
L 843.784705 132.878783 
L 844.359925 194.149364 
L 844.935146 242.777611 
L 845.510367 253.713574 
L 846.085587 229.241785 
L 847.236029 159.393419 
L 847.811249 142.333452 
L 848.38647 138.524605 
L 848.961691 144.316425 
L 849.536911 157.938942 
L 850.687353 193.969012 
L 851.262573 205.007143 
L 851.837794 207.749114 
L 852.413015 203.408044 
L 852.988235 192.84923 
L 853.563456 174.165793 
L 854.138677 149.426459 
L 854.713897 131.475268 
L 855.289118 135.748686 
L 855.864339 167.133698 
L 856.439559 212.117407 
L 857.01478 239.328818 
L 857.590001 224.212286 
L 858.740442 134.561333 
L 859.315663 124.773103 
L 859.890883 150.770667 
L 860.466104 190.223685 
L 861.041325 212.881105 
L 861.616545 207.62256 
L 862.766987 168.69658 
L 863.342207 161.875315 
L 863.917428 165.083397 
L 865.067869 177.478097 
L 865.64309 180.232516 
L 866.218311 180.757244 
L 866.793531 181.79189 
L 867.943973 188.486771 
L 868.519193 184.67862 
L 869.669635 157.674573 
L 870.244855 156.4698 
L 870.820076 172.077956 
L 871.395297 194.445331 
L 871.970517 204.585351 
L 872.545738 194.023296 
L 873.120959 173.954371 
L 873.696179 160.436799 
L 874.2714 159.820478 
L 874.846621 168.042746 
L 875.997062 187.329557 
L 876.572283 193.744586 
L 877.147503 192.327216 
L 877.722724 180.74817 
L 878.297945 164.860996 
L 878.873165 157.470321 
L 879.448386 165.486068 
L 880.023607 180.732954 
L 880.598827 190.847623 
L 881.174048 192.025739 
L 881.749269 187.742761 
L 882.324489 180.430748 
L 883.474931 157.466756 
L 884.050151 158.210846 
L 884.625372 176.827044 
L 885.200593 201.754581 
L 885.775813 208.26967 
L 886.351034 186.601671 
L 886.926255 157.64419 
L 887.501475 147.987295 
L 888.076696 163.653226 
L 888.651917 187.778896 
L 889.227137 198.611397 
L 889.802358 192.634283 
L 890.952799 170.326952 
L 891.52802 163.801979 
L 892.103241 163.857883 
L 892.678461 173.86311 
L 893.253682 188.825436 
L 893.828903 195.693611 
L 894.404123 187.694392 
L 894.979344 172.061736 
L 895.554565 163.405223 
L 896.129785 167.278886 
L 896.705006 176.271496 
L 897.280227 183.04905 
L 897.855447 186.595756 
L 898.430668 186.957107 
L 899.005889 181.35314 
L 899.581109 170.707627 
L 900.15633 164.191849 
L 900.731551 169.27223 
L 901.306771 182.169193 
L 901.881992 190.223361 
L 902.457213 186.622412 
L 903.032433 177.774844 
L 903.607654 171.831994 
L 904.182875 170.184041 
L 904.758095 171.363648 
L 905.333316 176.324977 
L 905.908537 184.477325 
L 906.483757 188.90597 
L 907.058978 183.808138 
L 907.634199 172.89601 
L 908.209419 166.958046 
L 908.78464 170.417574 
L 909.359861 177.217096 
L 910.510302 186.800008 
L 911.085523 188.311119 
L 911.660744 179.794795 
L 912.235964 163.571557 
L 912.811185 157.23763 
L 913.386406 172.904558 
L 913.961626 198.186202 
L 914.536847 203.221373 
L 915.687288 155.503309 
L 916.262509 155.87981 
L 916.83773 177.486409 
L 917.41295 194.763093 
L 917.988171 192.41326 
L 918.563392 180.177235 
L 919.138612 171.0495 
L 919.713833 167.54755 
L 920.289054 168.863158 
L 920.864274 176.614317 
L 921.439495 187.500024 
L 922.014716 190.928076 
L 922.589936 181.81093 
L 923.165157 168.962084 
L 923.740378 165.937027 
L 924.890819 180.792706 
L 925.46604 184.878392 
L 926.04126 186.622817 
L 926.616481 183.477607 
L 927.766922 161.460896 
L 928.342143 166.524263 
L 928.917364 186.623303 
L 929.492584 199.57724 
L 930.067805 187.489086 
L 930.643026 164.77876 
L 931.218246 157.94907 
L 932.368688 190.039688 
L 932.943908 190.669216 
L 933.519129 178.978288 
L 934.09435 170.625083 
L 934.66957 171.669281 
L 935.244791 177.202558 
L 935.820012 179.96907 
L 936.970453 176.737403 
L 937.545674 178.836333 
L 938.120894 183.690448 
L 938.696115 182.80526 
L 939.846556 162.429819 
L 940.421777 170.637998 
L 940.996998 192.841452 
L 941.572218 201.734488 
L 942.147439 180.394986 
L 942.72266 152.994838 
L 943.29788 153.483391 
L 943.873101 182.912814 
L 944.448322 205.867174 
L 945.023542 194.728416 
L 945.598763 167.411679 
L 946.173984 156.38797 
L 946.749204 168.452304 
L 947.324425 185.096783 
L 947.899646 189.490694 
L 948.474866 184.323379 
L 949.625308 172.662631 
L 950.200528 169.783533 
L 950.775749 172.712208 
L 951.35097 179.9248 
L 951.92619 184.545941 
L 952.501411 183.702439 
L 953.076632 180.508503 
L 953.651852 176.426374 
L 954.227073 169.679592 
L 954.802294 165.625909 
L 955.377514 174.227345 
L 955.952735 193.086944 
L 956.527956 199.855464 
L 957.103176 179.336844 
L 957.678397 152.976284 
L 958.253618 153.24673 
L 959.404059 207.285354 
L 959.97928 196.631908 
L 960.5545 166.55578 
L 961.129721 153.015579 
L 961.704942 167.218445 
L 962.280162 189.034387 
L 962.855383 193.612928 
L 964.005824 170.675372 
L 964.581045 170.575968 
L 965.156266 177.694242 
L 965.731486 181.722755 
L 966.306707 177.977692 
L 966.881928 172.811044 
L 967.457148 175.025833 
L 968.032369 185.005003 
L 968.60759 190.054595 
L 969.18281 178.482819 
L 969.758031 160.96092 
L 970.333252 159.894287 
L 971.483693 202.653664 
L 972.058914 196.472784 
L 972.634134 168.899374 
L 973.209355 152.053706 
L 973.784576 162.734293 
L 974.359796 187.045986 
L 974.935017 197.881566 
L 975.510238 188.375206 
L 976.085458 174.010129 
L 976.660679 167.012167 
L 977.2359 167.87471 
L 977.81112 173.171925 
L 978.961562 188.056877 
L 979.536782 187.642458 
L 980.687224 170.092107 
L 981.262444 168.308574 
L 981.837665 172.107569 
L 982.412886 176.85421 
L 982.988106 182.861593 
L 983.563327 190.43053 
L 984.138548 191.238546 
L 984.713768 176.395149 
L 985.288989 156.291799 
L 985.86421 153.749218 
L 986.43943 176.946007 
L 987.014651 205.445463 
L 987.589872 206.950983 
L 988.740313 151.317798 
L 989.315534 151.050917 
L 990.465975 196.624535 
L 991.041196 197.73346 
L 992.191637 170.82048 
L 992.766858 165.762104 
L 993.342078 168.361075 
L 994.49252 182.258097 
L 995.06774 186.136047 
L 995.642961 184.518775 
L 996.218182 179.677858 
L 996.218182 179.677858 
" style="fill:none;stroke:#4c72b0;stroke-linecap:round;stroke-width:1.4;"/>
   </g>
   <g id="patch_3">
    <path d="M 144 320.4 
L 144 43.2 
" style="fill:none;"/>
   </g>
   <g id="patch_4">
    <path d="M 1036.8 320.4 
L 1036.8 43.2 
" style="fill:none;"/>
   </g>
   <g id="patch_5">
    <path d="M 144 320.4 
L 1036.8 320.4 
" style="fill:none;"/>
   </g>
   <g id="patch_6">
    <path d="M 144 43.2 
L 1036.8 43.2 
" style="fill:none;"/>
   </g>
  </g>
 </g>
 <defs>
  <clipPath id="pf54b1fbfab">
   <rect height="277.2" width="892.8" x="144" y="43.2"/>
  </clipPath>
 </defs>
</svg>
