<?xml version="1.0" encoding="utf-8" standalone="no"?>
<!DOCTYPE svg PUBLIC "-//W3C//DTD SVG 1.1//EN"
  "http://www.w3.org/Graphics/SVG/1.1/DTD/svg11.dtd">
<!-- Created with matplotlib (http://matplotlib.org/) -->
<svg height="360pt" version="1.1" viewBox="0 0 1152 360" width="1152pt" xmlns="http://www.w3.org/2000/svg" xmlns:xlink="http://www.w3.org/1999/xlink">
 <defs>
  <style type="text/css">
*{stroke-linecap:butt;stroke-linejoin:round;}
  </style>
 </defs>
 <g id="figure_1">
  <g id="patch_1">
   <path d="M 0 360 
L 1152 360 
L 1152 0 
L 0 0 
z
" style="fill:#ffffff;"/>
  </g>
  <g id="axes_1">
   <g id="patch_2">
    <path d="M 144 320.4 
L 1036.8 320.4 
L 1036.8 43.2 
L 144 43.2 
z
" style="fill:#eaeaf2;"/>
   </g>
   <g id="matplotlib.axis_1">
    <g id="xtick_1">
     <g id="line2d_1">
      <path clip-path="url(#p746240b21e)" d="M 184.581818 320.4 
L 184.581818 43.2 
" style="fill:none;stroke:#ffffff;stroke-linecap:round;stroke-width:0.8;"/>
     </g>
     <g id="line2d_2"/>
     <g id="text_1">
      <!-- 0.000 -->
      <defs>
       <path d="M 51.703125 34.421875 
Q 51.703125 24.515625 49.828125 17.75 
Q 47.953125 10.984375 44.703125 6.8125 
Q 41.453125 2.640625 37.0625 0.828125 
Q 32.671875 -0.984375 27.6875 -0.984375 
Q 22.65625 -0.984375 18.3125 0.828125 
Q 13.96875 2.640625 10.765625 6.78125 
Q 7.5625 10.9375 5.734375 17.703125 
Q 3.90625 24.46875 3.90625 34.421875 
Q 3.90625 44.828125 5.734375 51.640625 
Q 7.5625 58.453125 10.78125 62.5 
Q 14.015625 66.546875 18.40625 68.1875 
Q 22.796875 69.828125 27.984375 69.828125 
Q 32.90625 69.828125 37.21875 68.1875 
Q 41.546875 66.546875 44.765625 62.5 
Q 48 58.453125 49.84375 51.640625 
Q 51.703125 44.828125 51.703125 34.421875 
M 42.78125 34.421875 
Q 42.78125 42.625 41.796875 48.0625 
Q 40.828125 53.515625 38.921875 56.765625 
Q 37.015625 60.015625 34.25 61.359375 
Q 31.5 62.703125 27.984375 62.703125 
Q 24.265625 62.703125 21.4375 61.328125 
Q 18.609375 59.96875 16.671875 56.71875 
Q 14.75 53.46875 13.765625 48.015625 
Q 12.796875 42.578125 12.796875 34.421875 
Q 12.796875 26.515625 13.796875 21.09375 
Q 14.796875 15.671875 16.71875 12.375 
Q 18.65625 9.078125 21.4375 7.640625 
Q 24.21875 6.203125 27.78125 6.203125 
Q 31.25 6.203125 34.03125 7.640625 
Q 36.8125 9.078125 38.734375 12.375 
Q 40.671875 15.671875 41.71875 21.09375 
Q 42.78125 26.515625 42.78125 34.421875 
" id="LiberationSans-30"/>
       <path d="M 9.125 0 
L 9.125 10.6875 
L 18.65625 10.6875 
L 18.65625 0 
z
" id="LiberationSans-2e"/>
      </defs>
      <g style="fill:#262626;" transform="translate(174.573068 331.7975)scale(0.08 -0.08)">
       <use xlink:href="#LiberationSans-30"/>
       <use x="55.615234" xlink:href="#LiberationSans-2e"/>
       <use x="83.398438" xlink:href="#LiberationSans-30"/>
       <use x="139.013672" xlink:href="#LiberationSans-30"/>
       <use x="194.628906" xlink:href="#LiberationSans-30"/>
      </g>
     </g>
    </g>
    <g id="xtick_2">
     <g id="line2d_3">
      <path clip-path="url(#p746240b21e)" d="M 311.238448 320.4 
L 311.238448 43.2 
" style="fill:none;stroke:#ffffff;stroke-linecap:round;stroke-width:0.8;"/>
     </g>
     <g id="line2d_4"/>
     <g id="text_2">
      <!-- 0.005 -->
      <defs>
       <path d="M 51.421875 22.40625 
Q 51.421875 17.234375 49.859375 12.9375 
Q 48.296875 8.640625 45.21875 5.53125 
Q 42.140625 2.4375 37.578125 0.71875 
Q 33.015625 -0.984375 27 -0.984375 
Q 21.578125 -0.984375 17.546875 0.28125 
Q 13.53125 1.5625 10.734375 3.78125 
Q 7.953125 6 6.3125 8.984375 
Q 4.6875 11.96875 4 15.375 
L 12.890625 16.40625 
Q 13.421875 14.453125 14.390625 12.625 
Q 15.375 10.796875 17.0625 9.34375 
Q 18.75 7.90625 21.21875 7.046875 
Q 23.6875 6.203125 27.203125 6.203125 
Q 30.609375 6.203125 33.390625 7.25 
Q 36.1875 8.296875 38.15625 10.34375 
Q 40.140625 12.40625 41.203125 15.375 
Q 42.28125 18.359375 42.28125 22.21875 
Q 42.28125 25.390625 41.25 28.046875 
Q 40.234375 30.71875 38.328125 32.640625 
Q 36.421875 34.578125 33.65625 35.640625 
Q 30.90625 36.71875 27.390625 36.71875 
Q 25.203125 36.71875 23.34375 36.328125 
Q 21.484375 35.9375 19.890625 35.25 
Q 18.3125 34.578125 17.015625 33.671875 
Q 15.71875 32.765625 14.59375 31.78125 
L 6 31.78125 
L 8.296875 68.796875 
L 47.40625 68.796875 
L 47.40625 61.328125 
L 16.3125 61.328125 
L 14.984375 39.5 
Q 17.328125 41.3125 20.84375 42.59375 
Q 24.359375 43.890625 29.203125 43.890625 
Q 34.328125 43.890625 38.421875 42.328125 
Q 42.53125 40.765625 45.40625 37.90625 
Q 48.296875 35.0625 49.859375 31.109375 
Q 51.421875 27.15625 51.421875 22.40625 
" id="LiberationSans-35"/>
      </defs>
      <g style="fill:#262626;" transform="translate(301.229698 331.7975)scale(0.08 -0.08)">
       <use xlink:href="#LiberationSans-30"/>
       <use x="55.615234" xlink:href="#LiberationSans-2e"/>
       <use x="83.398438" xlink:href="#LiberationSans-30"/>
       <use x="139.013672" xlink:href="#LiberationSans-30"/>
       <use x="194.628906" xlink:href="#LiberationSans-35"/>
      </g>
     </g>
    </g>
    <g id="xtick_3">
     <g id="line2d_5">
      <path clip-path="url(#p746240b21e)" d="M 437.895078 320.4 
L 437.895078 43.2 
" style="fill:none;stroke:#ffffff;stroke-linecap:round;stroke-width:0.8;"/>
     </g>
     <g id="line2d_6"/>
     <g id="text_3">
      <!-- 0.010 -->
      <defs>
       <path d="M 7.625 0 
L 7.625 7.46875 
L 25.140625 7.46875 
L 25.140625 60.40625 
L 9.625 49.3125 
L 9.625 57.625 
L 25.875 68.796875 
L 33.984375 68.796875 
L 33.984375 7.46875 
L 50.734375 7.46875 
L 50.734375 0 
z
" id="LiberationSans-31"/>
      </defs>
      <g style="fill:#262626;" transform="translate(427.886328 331.7975)scale(0.08 -0.08)">
       <use xlink:href="#LiberationSans-30"/>
       <use x="55.615234" xlink:href="#LiberationSans-2e"/>
       <use x="83.398438" xlink:href="#LiberationSans-30"/>
       <use x="139.013672" xlink:href="#LiberationSans-31"/>
       <use x="194.628906" xlink:href="#LiberationSans-30"/>
      </g>
     </g>
    </g>
    <g id="xtick_4">
     <g id="line2d_7">
      <path clip-path="url(#p746240b21e)" d="M 564.551708 320.4 
L 564.551708 43.2 
" style="fill:none;stroke:#ffffff;stroke-linecap:round;stroke-width:0.8;"/>
     </g>
     <g id="line2d_8"/>
     <g id="text_4">
      <!-- 0.015 -->
      <g style="fill:#262626;" transform="translate(554.542958 331.7975)scale(0.08 -0.08)">
       <use xlink:href="#LiberationSans-30"/>
       <use x="55.615234" xlink:href="#LiberationSans-2e"/>
       <use x="83.398438" xlink:href="#LiberationSans-30"/>
       <use x="139.013672" xlink:href="#LiberationSans-31"/>
       <use x="194.628906" xlink:href="#LiberationSans-35"/>
      </g>
     </g>
    </g>
    <g id="xtick_5">
     <g id="line2d_9">
      <path clip-path="url(#p746240b21e)" d="M 691.208338 320.4 
L 691.208338 43.2 
" style="fill:none;stroke:#ffffff;stroke-linecap:round;stroke-width:0.8;"/>
     </g>
     <g id="line2d_10"/>
     <g id="text_5">
      <!-- 0.020 -->
      <defs>
       <path d="M 5.03125 0 
L 5.03125 6.203125 
Q 7.515625 11.921875 11.109375 16.28125 
Q 14.703125 20.65625 18.65625 24.1875 
Q 22.609375 27.734375 26.484375 30.765625 
Q 30.375 33.796875 33.5 36.8125 
Q 36.625 39.84375 38.546875 43.15625 
Q 40.484375 46.484375 40.484375 50.6875 
Q 40.484375 53.609375 39.59375 55.828125 
Q 38.71875 58.0625 37.0625 59.5625 
Q 35.40625 61.078125 33.078125 61.828125 
Q 30.765625 62.59375 27.9375 62.59375 
Q 25.296875 62.59375 22.96875 61.859375 
Q 20.65625 61.140625 18.84375 59.671875 
Q 17.046875 58.203125 15.890625 56.03125 
Q 14.75 53.859375 14.40625 50.984375 
L 5.421875 51.8125 
Q 5.859375 55.515625 7.46875 58.78125 
Q 9.078125 62.0625 11.90625 64.53125 
Q 14.75 67 18.71875 68.40625 
Q 22.703125 69.828125 27.9375 69.828125 
Q 33.0625 69.828125 37.0625 68.609375 
Q 41.0625 67.390625 43.8125 64.984375 
Q 46.578125 62.59375 48.046875 59.078125 
Q 49.515625 55.5625 49.515625 50.984375 
Q 49.515625 47.515625 48.265625 44.390625 
Q 47.015625 41.265625 44.9375 38.421875 
Q 42.875 35.59375 40.140625 32.953125 
Q 37.40625 30.328125 34.421875 27.8125 
Q 31.453125 25.296875 28.421875 22.828125 
Q 25.390625 20.359375 22.71875 17.859375 
Q 20.0625 15.375 17.96875 12.8125 
Q 15.875 10.25 14.703125 7.46875 
L 50.59375 7.46875 
L 50.59375 0 
z
" id="LiberationSans-32"/>
      </defs>
      <g style="fill:#262626;" transform="translate(681.199588 331.7975)scale(0.08 -0.08)">
       <use xlink:href="#LiberationSans-30"/>
       <use x="55.615234" xlink:href="#LiberationSans-2e"/>
       <use x="83.398438" xlink:href="#LiberationSans-30"/>
       <use x="139.013672" xlink:href="#LiberationSans-32"/>
       <use x="194.628906" xlink:href="#LiberationSans-30"/>
      </g>
     </g>
    </g>
    <g id="xtick_6">
     <g id="line2d_11">
      <path clip-path="url(#p746240b21e)" d="M 817.864968 320.4 
L 817.864968 43.2 
" style="fill:none;stroke:#ffffff;stroke-linecap:round;stroke-width:0.8;"/>
     </g>
     <g id="line2d_12"/>
     <g id="text_6">
      <!-- 0.025 -->
      <g style="fill:#262626;" transform="translate(807.856218 331.7975)scale(0.08 -0.08)">
       <use xlink:href="#LiberationSans-30"/>
       <use x="55.615234" xlink:href="#LiberationSans-2e"/>
       <use x="83.398438" xlink:href="#LiberationSans-30"/>
       <use x="139.013672" xlink:href="#LiberationSans-32"/>
       <use x="194.628906" xlink:href="#LiberationSans-35"/>
      </g>
     </g>
    </g>
    <g id="xtick_7">
     <g id="line2d_13">
      <path clip-path="url(#p746240b21e)" d="M 944.521598 320.4 
L 944.521598 43.2 
" style="fill:none;stroke:#ffffff;stroke-linecap:round;stroke-width:0.8;"/>
     </g>
     <g id="line2d_14"/>
     <g id="text_7">
      <!-- 0.030 -->
      <defs>
       <path d="M 51.21875 19 
Q 51.21875 14.265625 49.671875 10.546875 
Q 48.140625 6.84375 45.1875 4.265625 
Q 42.234375 1.703125 37.859375 0.359375 
Q 33.5 -0.984375 27.875 -0.984375 
Q 21.484375 -0.984375 17.109375 0.609375 
Q 12.75 2.203125 9.90625 4.8125 
Q 7.078125 7.421875 5.65625 10.765625 
Q 4.25 14.109375 3.8125 17.671875 
L 12.890625 18.5 
Q 13.28125 15.765625 14.328125 13.515625 
Q 15.375 11.28125 17.1875 9.671875 
Q 19 8.0625 21.625 7.171875 
Q 24.265625 6.296875 27.875 6.296875 
Q 34.515625 6.296875 38.296875 9.5625 
Q 42.09375 12.84375 42.09375 19.28125 
Q 42.09375 23.09375 40.40625 25.40625 
Q 38.71875 27.734375 36.203125 29.03125 
Q 33.6875 30.328125 30.734375 30.765625 
Q 27.78125 31.203125 25.296875 31.203125 
L 20.3125 31.203125 
L 20.3125 38.8125 
L 25.09375 38.8125 
Q 27.59375 38.8125 30.265625 39.328125 
Q 32.953125 39.84375 35.171875 41.1875 
Q 37.40625 42.53125 38.84375 44.828125 
Q 40.28125 47.125 40.28125 50.6875 
Q 40.28125 56.203125 37.03125 59.390625 
Q 33.796875 62.59375 27.390625 62.59375 
Q 21.578125 62.59375 17.984375 59.609375 
Q 14.40625 56.640625 13.8125 51.21875 
L 4.984375 51.90625 
Q 5.515625 56.453125 7.46875 59.8125 
Q 9.421875 63.1875 12.421875 65.40625 
Q 15.4375 67.625 19.28125 68.71875 
Q 23.140625 69.828125 27.484375 69.828125 
Q 33.25 69.828125 37.390625 68.375 
Q 41.546875 66.9375 44.1875 64.46875 
Q 46.828125 62.015625 48.0625 58.6875 
Q 49.3125 55.375 49.3125 51.609375 
Q 49.3125 48.578125 48.484375 45.9375 
Q 47.65625 43.3125 45.890625 41.203125 
Q 44.140625 39.109375 41.421875 37.59375 
Q 38.71875 36.078125 34.90625 35.296875 
L 34.90625 35.109375 
Q 39.0625 34.671875 42.140625 33.21875 
Q 45.21875 31.78125 47.21875 29.625 
Q 49.21875 27.484375 50.21875 24.75 
Q 51.21875 22.015625 51.21875 19 
" id="LiberationSans-33"/>
      </defs>
      <g style="fill:#262626;" transform="translate(934.512848 331.7975)scale(0.08 -0.08)">
       <use xlink:href="#LiberationSans-30"/>
       <use x="55.615234" xlink:href="#LiberationSans-2e"/>
       <use x="83.398438" xlink:href="#LiberationSans-30"/>
       <use x="139.013672" xlink:href="#LiberationSans-33"/>
       <use x="194.628906" xlink:href="#LiberationSans-30"/>
      </g>
     </g>
    </g>
   </g>
   <g id="matplotlib.axis_2">
    <g id="ytick_1">
     <g id="line2d_15">
      <path clip-path="url(#p746240b21e)" d="M 144 301.402739 
L 1036.8 301.402739 
" style="fill:none;stroke:#ffffff;stroke-linecap:round;stroke-width:0.8;"/>
     </g>
     <g id="line2d_16"/>
     <g id="text_8">
      <!-- −6 -->
      <defs>
       <path d="M 4.9375 29.6875 
L 4.9375 36.8125 
L 53.515625 36.8125 
L 53.515625 29.6875 
z
" id="LiberationSans-2212"/>
       <path d="M 51.21875 22.515625 
Q 51.21875 17.328125 49.78125 13 
Q 48.34375 8.6875 45.53125 5.578125 
Q 42.71875 2.484375 38.5625 0.75 
Q 34.421875 -0.984375 29 -0.984375 
Q 23 -0.984375 18.5 1.3125 
Q 14.015625 3.609375 11.03125 7.921875 
Q 8.0625 12.25 6.5625 18.53125 
Q 5.078125 24.8125 5.078125 32.8125 
Q 5.078125 42 6.765625 48.921875 
Q 8.453125 55.859375 11.625 60.5 
Q 14.796875 65.140625 19.359375 67.484375 
Q 23.921875 69.828125 29.6875 69.828125 
Q 33.203125 69.828125 36.28125 69.09375 
Q 39.359375 68.359375 41.875 66.71875 
Q 44.390625 65.09375 46.28125 62.40625 
Q 48.1875 59.71875 49.3125 55.8125 
L 40.921875 54.296875 
Q 39.546875 58.734375 36.546875 60.71875 
Q 33.546875 62.703125 29.59375 62.703125 
Q 25.984375 62.703125 23.046875 60.984375 
Q 20.125 59.28125 18.0625 55.875 
Q 16.015625 52.484375 14.90625 47.359375 
Q 13.8125 42.234375 13.8125 35.40625 
Q 16.21875 39.84375 20.5625 42.15625 
Q 24.90625 44.484375 30.515625 44.484375 
Q 35.203125 44.484375 39.015625 42.96875 
Q 42.828125 41.453125 45.53125 38.59375 
Q 48.25 35.75 49.734375 31.671875 
Q 51.21875 27.59375 51.21875 22.515625 
M 42.28125 22.125 
Q 42.28125 25.6875 41.40625 28.5625 
Q 40.53125 31.453125 38.765625 33.46875 
Q 37.015625 35.5 34.421875 36.59375 
Q 31.84375 37.703125 28.421875 37.703125 
Q 26.03125 37.703125 23.578125 36.984375 
Q 21.140625 36.28125 19.15625 34.6875 
Q 17.1875 33.109375 15.9375 30.515625 
Q 14.703125 27.9375 14.703125 24.21875 
Q 14.703125 20.40625 15.671875 17.109375 
Q 16.65625 13.8125 18.484375 11.375 
Q 20.3125 8.9375 22.890625 7.515625 
Q 25.484375 6.109375 28.71875 6.109375 
Q 31.890625 6.109375 34.40625 7.203125 
Q 36.921875 8.296875 38.671875 10.375 
Q 40.4375 12.453125 41.359375 15.421875 
Q 42.28125 18.40625 42.28125 22.125 
" id="LiberationSans-36"/>
      </defs>
      <g style="fill:#262626;" transform="translate(129.27875 304.301489)scale(0.08 -0.08)">
       <use xlink:href="#LiberationSans-2212"/>
       <use x="58.398438" xlink:href="#LiberationSans-36"/>
      </g>
     </g>
    </g>
    <g id="ytick_2">
     <g id="line2d_17">
      <path clip-path="url(#p746240b21e)" d="M 144 264.858554 
L 1036.8 264.858554 
" style="fill:none;stroke:#ffffff;stroke-linecap:round;stroke-width:0.8;"/>
     </g>
     <g id="line2d_18"/>
     <g id="text_9">
      <!-- −4 -->
      <defs>
       <path d="M 43.015625 15.578125 
L 43.015625 0 
L 34.71875 0 
L 34.71875 15.578125 
L 2.296875 15.578125 
L 2.296875 22.40625 
L 33.796875 68.796875 
L 43.015625 68.796875 
L 43.015625 22.515625 
L 52.6875 22.515625 
L 52.6875 15.578125 
z
M 34.71875 58.890625 
Q 34.625 58.640625 34.234375 57.9375 
Q 33.84375 57.234375 33.34375 56.34375 
Q 32.859375 55.46875 32.34375 54.5625 
Q 31.84375 53.65625 31.453125 53.078125 
L 13.8125 27.09375 
Q 13.578125 26.703125 13.109375 26.0625 
Q 12.640625 25.4375 12.15625 24.78125 
Q 11.671875 24.125 11.171875 23.484375 
Q 10.6875 22.859375 10.40625 22.515625 
L 34.71875 22.515625 
z
" id="LiberationSans-34"/>
      </defs>
      <g style="fill:#262626;" transform="translate(129.27875 267.757304)scale(0.08 -0.08)">
       <use xlink:href="#LiberationSans-2212"/>
       <use x="58.398438" xlink:href="#LiberationSans-34"/>
      </g>
     </g>
    </g>
    <g id="ytick_3">
     <g id="line2d_19">
      <path clip-path="url(#p746240b21e)" d="M 144 228.31437 
L 1036.8 228.31437 
" style="fill:none;stroke:#ffffff;stroke-linecap:round;stroke-width:0.8;"/>
     </g>
     <g id="line2d_20"/>
     <g id="text_10">
      <!-- −2 -->
      <g style="fill:#262626;" transform="translate(129.27875 231.21312)scale(0.08 -0.08)">
       <use xlink:href="#LiberationSans-2212"/>
       <use x="58.398438" xlink:href="#LiberationSans-32"/>
      </g>
     </g>
    </g>
    <g id="ytick_4">
     <g id="line2d_21">
      <path clip-path="url(#p746240b21e)" d="M 144 191.770186 
L 1036.8 191.770186 
" style="fill:none;stroke:#ffffff;stroke-linecap:round;stroke-width:0.8;"/>
     </g>
     <g id="line2d_22"/>
     <g id="text_11">
      <!-- 0 -->
      <g style="fill:#262626;" transform="translate(133.95125 194.668936)scale(0.08 -0.08)">
       <use xlink:href="#LiberationSans-30"/>
      </g>
     </g>
    </g>
    <g id="ytick_5">
     <g id="line2d_23">
      <path clip-path="url(#p746240b21e)" d="M 144 155.226002 
L 1036.8 155.226002 
" style="fill:none;stroke:#ffffff;stroke-linecap:round;stroke-width:0.8;"/>
     </g>
     <g id="line2d_24"/>
     <g id="text_12">
      <!-- 2 -->
      <g style="fill:#262626;" transform="translate(133.95125 158.124752)scale(0.08 -0.08)">
       <use xlink:href="#LiberationSans-32"/>
      </g>
     </g>
    </g>
    <g id="ytick_6">
     <g id="line2d_25">
      <path clip-path="url(#p746240b21e)" d="M 144 118.681818 
L 1036.8 118.681818 
" style="fill:none;stroke:#ffffff;stroke-linecap:round;stroke-width:0.8;"/>
     </g>
     <g id="line2d_26"/>
     <g id="text_13">
      <!-- 4 -->
      <g style="fill:#262626;" transform="translate(133.95125 121.580568)scale(0.08 -0.08)">
       <use xlink:href="#LiberationSans-34"/>
      </g>
     </g>
    </g>
    <g id="ytick_7">
     <g id="line2d_27">
      <path clip-path="url(#p746240b21e)" d="M 144 82.137634 
L 1036.8 82.137634 
" style="fill:none;stroke:#ffffff;stroke-linecap:round;stroke-width:0.8;"/>
     </g>
     <g id="line2d_28"/>
     <g id="text_14">
      <!-- 6 -->
      <g style="fill:#262626;" transform="translate(133.95125 85.036384)scale(0.08 -0.08)">
       <use xlink:href="#LiberationSans-36"/>
      </g>
     </g>
    </g>
    <g id="ytick_8">
     <g id="line2d_29">
      <path clip-path="url(#p746240b21e)" d="M 144 45.59345 
L 1036.8 45.59345 
" style="fill:none;stroke:#ffffff;stroke-linecap:round;stroke-width:0.8;"/>
     </g>
     <g id="line2d_30"/>
     <g id="text_15">
      <!-- 8 -->
      <defs>
       <path d="M 51.265625 19.1875 
Q 51.265625 14.796875 49.875 11.109375 
Q 48.484375 7.421875 45.625 4.734375 
Q 42.78125 2.046875 38.328125 0.53125 
Q 33.890625 -0.984375 27.828125 -0.984375 
Q 21.78125 -0.984375 17.359375 0.53125 
Q 12.9375 2.046875 10.03125 4.703125 
Q 7.125 7.375 5.734375 11.0625 
Q 4.34375 14.75 4.34375 19.09375 
Q 4.34375 22.859375 5.484375 25.78125 
Q 6.640625 28.71875 8.5625 30.828125 
Q 10.5 32.953125 12.96875 34.25 
Q 15.4375 35.546875 18.0625 35.984375 
L 18.0625 36.1875 
Q 15.1875 36.859375 12.90625 38.375 
Q 10.640625 39.890625 9.09375 42.015625 
Q 7.5625 44.140625 6.75 46.71875 
Q 5.953125 49.3125 5.953125 52.203125 
Q 5.953125 55.8125 7.34375 59 
Q 8.734375 62.203125 11.46875 64.625 
Q 14.203125 67.046875 18.25 68.4375 
Q 22.3125 69.828125 27.640625 69.828125 
Q 33.25 69.828125 37.375 68.40625 
Q 41.5 67 44.203125 64.578125 
Q 46.921875 62.15625 48.234375 58.9375 
Q 49.5625 55.71875 49.5625 52.09375 
Q 49.5625 49.265625 48.75 46.671875 
Q 47.953125 44.09375 46.40625 41.96875 
Q 44.875 39.84375 42.59375 38.34375 
Q 40.328125 36.859375 37.359375 36.28125 
L 37.359375 36.078125 
Q 40.328125 35.59375 42.859375 34.296875 
Q 45.40625 33.015625 47.265625 30.890625 
Q 49.125 28.765625 50.1875 25.828125 
Q 51.265625 22.90625 51.265625 19.1875 
M 40.4375 51.609375 
Q 40.4375 54.203125 39.765625 56.34375 
Q 39.109375 58.5 37.59375 60.03125 
Q 36.078125 61.578125 33.640625 62.421875 
Q 31.203125 63.28125 27.640625 63.28125 
Q 24.171875 63.28125 21.78125 62.421875 
Q 19.390625 61.578125 17.84375 60.03125 
Q 16.3125 58.5 15.625 56.34375 
Q 14.9375 54.203125 14.9375 51.609375 
Q 14.9375 49.5625 15.46875 47.40625 
Q 16.015625 45.265625 17.421875 43.5 
Q 18.84375 41.75 21.328125 40.625 
Q 23.828125 39.5 27.734375 39.5 
Q 31.890625 39.5 34.40625 40.625 
Q 36.921875 41.75 38.25 43.5 
Q 39.59375 45.265625 40.015625 47.40625 
Q 40.4375 49.5625 40.4375 51.609375 
M 42.140625 20.015625 
Q 42.140625 22.515625 41.453125 24.828125 
Q 40.765625 27.15625 39.109375 28.9375 
Q 37.453125 30.71875 34.640625 31.8125 
Q 31.84375 32.90625 27.640625 32.90625 
Q 23.78125 32.90625 21.0625 31.8125 
Q 18.359375 30.71875 16.671875 28.90625 
Q 14.984375 27.09375 14.203125 24.71875 
Q 13.421875 22.359375 13.421875 19.828125 
Q 13.421875 16.65625 14.203125 14.03125 
Q 14.984375 11.421875 16.6875 9.546875 
Q 18.40625 7.671875 21.1875 6.640625 
Q 23.96875 5.609375 27.9375 5.609375 
Q 31.9375 5.609375 34.671875 6.640625 
Q 37.40625 7.671875 39.0625 9.546875 
Q 40.71875 11.421875 41.421875 14.078125 
Q 42.140625 16.75 42.140625 20.015625 
" id="LiberationSans-38"/>
      </defs>
      <g style="fill:#262626;" transform="translate(133.95125 48.4922)scale(0.08 -0.08)">
       <use xlink:href="#LiberationSans-38"/>
      </g>
     </g>
    </g>
   </g>
   <g id="line2d_31">
    <path clip-path="url(#p746240b21e)" d="M 184.581818 133.53064 
L 185.156225 133.951087 
L 185.730631 136.256811 
L 186.305038 140.341793 
L 186.879444 146.031818 
L 188.028257 161.254531 
L 190.325883 198.709932 
L 191.474696 216.369244 
L 192.623509 231.259499 
L 193.772322 242.963986 
L 194.921135 251.920683 
L 196.069948 259.110078 
L 200.090793 281.770377 
L 201.239606 286.723588 
L 201.814013 288.177315 
L 202.388419 288.655192 
L 202.962826 287.948141 
L 203.537232 285.875533 
L 204.111639 282.30002 
L 204.686045 277.140041 
L 205.260452 270.379123 
L 206.409265 252.342067 
L 207.558078 229.455141 
L 211.004517 155.858673 
L 212.153329 138.240134 
L 212.727736 131.736202 
L 213.302142 126.858574 
L 213.876549 123.585345 
L 214.450955 121.829185 
L 215.025362 121.446742 
L 215.599768 122.251256 
L 216.174175 124.02748 
L 216.748581 126.547873 
L 217.897394 132.946496 
L 223.067053 164.558853 
L 224.215866 174.329586 
L 225.364679 186.898635 
L 226.513492 202.300734 
L 229.959931 252.642777 
L 230.534337 258.80545 
L 231.108743 263.561142 
L 231.68315 266.684389 
L 232.257556 268.007913 
L 232.831963 267.432845 
L 233.406369 264.93499 
L 233.980776 260.566691 
L 234.555182 254.454181 
L 235.703995 237.825001 
L 237.427215 206.137262 
L 239.150434 173.807245 
L 240.299247 155.240301 
L 241.44806 140.200674 
L 242.596873 128.601923 
L 243.745686 119.63049 
L 245.468906 108.641046 
L 248.340938 91.739931 
L 249.489751 86.704978 
L 250.064157 85.221438 
L 250.638564 84.705369 
L 251.21297 85.352293 
L 251.787377 87.328149 
L 252.361783 90.754811 
L 252.93619 95.698015 
L 253.510596 102.158589 
L 254.659409 119.285918 
L 255.808222 140.770378 
L 258.680255 197.613314 
L 259.829068 214.664411 
L 260.403474 220.948853 
L 260.977881 225.575859 
L 261.552287 228.513737 
L 262.126694 229.802215 
L 262.7011 229.546348 
L 263.275507 227.906589 
L 263.849913 225.085729 
L 264.998726 216.830814 
L 267.296352 196.0945 
L 269.593978 176.50103 
L 271.317197 161.681862 
L 272.46601 149.976979 
L 273.614823 135.933177 
L 275.338043 110.730092 
L 277.635669 76.26794 
L 278.784482 63.481948 
L 279.358888 59.183028 
L 279.933295 56.572978 
L 280.507701 55.8 
L 281.082108 56.942891 
L 281.656514 60.00541 
L 282.230921 64.915056 
L 282.805327 71.52637 
L 283.95414 88.956782 
L 285.67736 121.15987 
L 287.400579 153.022144 
L 288.549392 170.735501 
L 289.698205 184.541054 
L 290.847018 194.590746 
L 291.995831 201.76675 
L 293.144644 207.268647 
L 296.016676 219.115245 
L 297.165489 222.853631 
L 297.739896 224.012416 
L 298.314302 224.441894 
L 298.888709 223.945074 
L 299.463115 222.339867 
L 300.037522 219.474709 
L 300.611928 215.242704 
L 301.186335 209.59324 
L 302.335148 194.166562 
L 303.483961 174.127473 
L 306.9304 108.463481 
L 308.079213 93.388024 
L 308.653619 88.264365 
L 309.228025 84.890975 
L 309.802432 83.281408 
L 310.376838 83.377516 
L 310.951245 85.056117 
L 311.525651 88.13946 
L 312.100058 92.408723 
L 313.248871 103.519018 
L 317.844123 153.443549 
L 320.141749 177.063247 
L 321.290562 191.003962 
L 323.013781 215.713635 
L 325.885814 258.831709 
L 327.034627 271.05388 
L 327.609033 275.014756 
L 328.183439 277.272651 
L 328.757846 277.698619 
L 329.332252 276.233866 
L 329.906659 272.894753 
L 330.481065 267.773374 
L 331.055472 261.033617 
L 332.204285 243.660621 
L 336.22513 174.688458 
L 337.373943 161.3575 
L 337.94835 156.355531 
L 338.522756 152.402391 
L 339.097163 149.391514 
L 339.671569 147.181854 
L 340.245976 145.612558 
L 340.820382 144.51853 
L 341.394789 143.745779 
L 342.543602 142.68545 
L 343.692415 141.889742 
L 344.266821 141.631466 
L 344.841228 141.585512 
L 345.415634 141.892805 
L 345.990041 142.723053 
L 346.564447 144.261191 
L 347.138854 146.692126 
L 347.71326 150.184843 
L 348.287666 154.877026 
L 348.862073 160.861262 
L 350.010886 176.787069 
L 351.159699 197.466061 
L 355.180544 278.902378 
L 356.329357 294.327593 
L 356.903764 299.491897 
L 357.47817 302.839832 
L 358.052577 304.376402 
L 358.626983 304.178383 
L 359.20139 302.387064 
L 359.775796 299.197254 
L 360.350203 294.843352 
L 361.499016 283.682325 
L 364.945455 246.718248 
L 367.24308 226.25072 
L 368.9663 210.06865 
L 370.115113 197.364136 
L 371.838332 175.548298 
L 373.561552 153.998126 
L 374.710365 143.052926 
L 375.284771 139.413236 
L 375.859178 137.302474 
L 376.433584 136.891955 
L 377.007991 138.290848 
L 377.582397 141.537661 
L 378.156804 146.595861 
L 378.73121 153.353946 
L 379.880023 171.18047 
L 381.603243 204.39802 
L 383.326462 237.448547 
L 384.475275 255.555179 
L 385.624088 268.996318 
L 386.198494 273.879392 
L 386.772901 277.612446 
L 387.347307 280.313192 
L 387.921714 282.133424 
L 388.49612 283.24409 
L 389.070527 283.81958 
L 389.644933 284.022342 
L 390.21934 283.98894 
L 391.368153 283.564529 
L 392.516966 282.768413 
L 393.091372 282.085172 
L 393.665779 281.047686 
L 394.240185 279.495271 
L 394.814592 277.253023 
L 395.388998 274.147066 
L 395.963405 270.020303 
L 396.537811 264.747564 
L 397.686624 250.5011 
L 398.835437 231.482427 
L 400.558657 196.687923 
L 402.281876 161.141363 
L 403.430689 141.455146 
L 404.005096 133.698771 
L 404.579502 127.61257 
L 405.153909 123.321731 
L 405.728315 120.877011 
L 406.302721 120.253908 
L 406.877128 121.35631 
L 407.451534 124.024351 
L 408.025941 128.045916 
L 409.174754 139.127962 
L 413.195599 184.106737 
L 414.918819 198.83948 
L 417.216445 217.458465 
L 418.939664 234.066456 
L 421.23729 258.055587 
L 422.386103 267.475963 
L 422.96051 270.649369 
L 423.534916 272.469721 
L 424.109323 272.73297 
L 424.683729 271.28654 
L 425.258135 268.040866 
L 425.832542 262.977334 
L 426.406948 256.152032 
L 427.555761 237.805269 
L 428.704574 214.807655 
L 431.576607 153.962431 
L 432.72542 134.681006 
L 433.874233 120.473542 
L 434.448639 115.331823 
L 435.023046 111.406762 
L 435.597452 108.568494 
L 436.171859 106.653629 
L 436.746265 105.480426 
L 437.320672 104.864658 
L 437.895078 104.635028 
L 438.469485 104.647039 
L 439.618298 105.016887 
L 440.767111 105.699131 
L 441.341517 106.286604 
L 441.915924 107.192689 
L 442.49033 108.569841 
L 443.064737 110.583875 
L 443.639143 113.398742 
L 444.21355 117.160905 
L 444.787956 121.984431 
L 445.936769 135.034001 
L 447.085582 152.389272 
L 448.808801 183.68562 
L 450.532021 214.500174 
L 451.680834 230.430317 
L 452.25524 236.167271 
L 452.829647 240.162761 
L 453.404053 242.31084 
L 453.97846 242.580876 
L 454.552866 241.017736 
L 455.127273 237.737508 
L 455.701679 232.919055 
L 456.850492 219.621935 
L 458.573712 194.698731 
L 460.296931 169.93623 
L 461.445744 155.629807 
L 463.168964 137.723624 
L 466.615402 104.730815 
L 469.487435 74.491891 
L 470.636248 65.440139 
L 471.210654 62.522825 
L 471.785061 60.986562 
L 472.359467 61.018461 
L 472.933874 62.753009 
L 473.50828 66.261031 
L 474.082687 71.542349 
L 474.657093 78.522637 
L 475.805906 96.924553 
L 477.529126 131.642806 
L 479.252345 166.896924 
L 480.401158 186.488671 
L 481.549971 201.024606 
L 482.124378 206.202353 
L 482.698784 210.017121 
L 483.273191 212.565834 
L 483.847597 213.992007 
L 484.422003 214.471976 
L 484.99641 214.199453 
L 485.570816 213.369523 
L 486.719629 210.733618 
L 489.017255 204.341917 
L 490.166068 200.47263 
L 490.740475 198.006715 
L 491.314881 194.98131 
L 491.889288 191.241834 
L 492.463694 186.651767 
L 493.612507 174.550189 
L 494.76132 158.448202 
L 496.48454 128.651684 
L 498.207759 97.927973 
L 499.356572 81.150131 
L 499.930979 74.78293 
L 500.505385 70.076615 
L 501.079792 67.189424 
L 501.654198 66.20766 
L 502.228605 67.141648 
L 502.803011 69.926202 
L 503.377417 74.425534 
L 503.951824 80.442283 
L 505.100637 96.008497 
L 509.121482 158.681854 
L 510.270295 172.760942 
L 511.993515 190.269265 
L 514.865547 217.492536 
L 517.73758 245.861582 
L 518.311986 250.35005 
L 518.886393 253.916483 
L 519.460799 256.326096 
L 520.035206 257.368599 
L 520.609612 256.873752 
L 521.184019 254.72487 
L 521.758425 250.869341 
L 522.332831 245.325393 
L 522.907238 238.184618 
L 524.056051 219.829708 
L 525.77927 186.271074 
L 527.50249 153.590436 
L 528.651303 136.452147 
L 529.225709 129.914581 
L 529.800116 124.863074 
L 530.374522 121.30901 
L 530.948929 119.197963 
L 531.523335 118.417857 
L 532.097742 118.810538 
L 532.672148 120.185906 
L 533.246555 122.337615 
L 534.395368 128.159642 
L 537.2674 145.2088 
L 538.416213 152.530157 
L 539.565026 161.254496 
L 540.713839 172.532657 
L 541.862652 187.226564 
L 543.011465 205.494826 
L 544.734684 237.630588 
L 546.457904 269.573725 
L 547.606717 286.619654 
L 548.181123 292.994305 
L 548.75553 297.645796 
L 549.329936 300.43467 
L 549.904343 301.294464 
L 550.478749 300.235112 
L 551.053156 297.341828 
L 551.627562 292.769563 
L 552.201969 286.733408 
L 553.350782 271.349863 
L 556.797221 219.59099 
L 557.946034 206.158916 
L 559.094847 195.449358 
L 560.24366 186.762146 
L 565.987724 148.271174 
L 566.562131 145.735883 
L 567.136537 144.130043 
L 567.710944 143.674054 
L 568.28535 144.562342 
L 568.859757 146.94813 
L 569.434163 150.930363 
L 570.00857 156.543712 
L 570.582976 163.752377 
L 571.731789 182.453056 
L 573.455009 217.665987 
L 575.178228 253.679885 
L 576.327041 273.690417 
L 577.475854 288.227725 
L 578.050261 293.145391 
L 578.624667 296.477636 
L 579.199074 298.294684 
L 579.77348 298.724168 
L 580.347887 297.939108 
L 580.922293 296.14341 
L 581.496699 293.55592 
L 582.645512 286.858746 
L 586.666358 260.166679 
L 587.815171 251.180362 
L 588.963984 239.907758 
L 590.112797 225.544278 
L 591.26161 207.985291 
L 595.282455 140.468009 
L 595.856862 133.73539 
L 596.431268 128.569866 
L 597.005675 125.157889 
L 597.580081 123.619187 
L 598.154488 123.999671 
L 598.728894 126.268688 
L 599.303301 130.320779 
L 599.877707 135.981853 
L 601.02652 151.155711 
L 603.324146 188.485463 
L 604.472959 206.005402 
L 605.621772 220.653914 
L 606.770585 231.980683 
L 607.919398 240.404274 
L 609.068211 246.905988 
L 612.51465 263.810776 
L 613.663463 268.717867 
L 614.237869 270.489757 
L 614.812276 271.530625 
L 615.386682 271.623007 
L 615.961089 270.560612 
L 616.535495 268.164418 
L 617.109902 264.297566 
L 617.684308 258.878 
L 618.258715 251.887954 
L 619.407528 233.476241 
L 620.55634 210.311472 
L 624.002779 136.359245 
L 625.151592 118.793136 
L 625.725999 112.355087 
L 626.300405 107.572168 
L 626.874812 104.423657 
L 627.449218 102.822646 
L 628.023625 102.625258 
L 628.598031 103.643131 
L 629.172438 105.658269 
L 630.321251 111.757585 
L 635.490909 144.859116 
L 636.639722 153.646172 
L 637.788535 164.773522 
L 638.937348 178.694021 
L 640.660567 203.73175 
L 642.383787 229.012409 
L 643.5326 242.21557 
L 644.107006 246.852991 
L 644.681413 249.866646 
L 645.255819 251.089277 
L 645.830226 250.421552 
L 646.404632 247.838541 
L 646.979039 243.391822 
L 647.553445 237.207061 
L 648.702258 220.451908 
L 650.425478 188.639669 
L 652.148697 156.332375 
L 653.29751 137.919276 
L 654.446323 123.185059 
L 655.595136 112.067109 
L 656.743949 103.757803 
L 657.892762 97.104574 
L 660.764794 82.36985 
L 661.913607 77.46299 
L 662.488014 75.722448 
L 663.06242 74.720145 
L 663.636827 74.661555 
L 664.211233 75.739652 
L 664.78564 78.119038 
L 665.360046 81.921389 
L 665.934453 87.213242 
L 666.508859 93.997027 
L 667.657672 111.703467 
L 668.806485 133.693887 
L 671.678518 191.57074 
L 672.827331 208.944566 
L 673.401737 215.365772 
L 673.976144 220.110771 
L 674.55055 223.146382 
L 675.124957 224.511363 
L 675.699363 224.310548 
L 676.27377 222.705092 
L 676.848176 219.899536 
L 677.996989 211.630743 
L 680.294615 190.830705 
L 682.017834 176.083561 
L 684.31546 157.218039 
L 685.464273 146.113734 
L 686.613086 132.829727 
L 688.336306 108.986509 
L 690.633932 76.51746 
L 691.782745 64.721803 
L 692.357151 60.906883 
L 692.931558 58.772035 
L 693.505964 58.465343 
L 694.080371 60.065989 
L 694.654777 63.578403 
L 695.229184 68.930806 
L 695.80359 75.978267 
L 696.952403 94.26108 
L 698.675622 127.675286 
L 700.398842 160.600067 
L 701.547655 178.884755 
L 702.696468 193.113999 
L 703.845281 203.418593 
L 704.994094 210.677554 
L 706.142907 216.108666 
L 708.440533 225.269563 
L 709.589346 229.312551 
L 710.163752 230.893364 
L 710.738159 231.9588 
L 711.312565 232.317546 
L 711.886972 231.775982 
L 712.461378 230.154128 
L 713.035785 227.30129 
L 713.610191 223.110279 
L 714.184598 217.529185 
L 715.333411 202.312388 
L 716.482224 182.561667 
L 719.928662 118.040799 
L 721.077475 103.417961 
L 721.651882 98.537458 
L 722.226288 95.420324 
L 722.800695 94.081233 
L 723.375101 94.462644 
L 723.949508 96.441259 
L 724.523914 99.838307 
L 725.098321 104.432933 
L 726.247134 116.215495 
L 730.267979 162.42815 
L 733.714418 198.686534 
L 734.863231 213.367097 
L 736.58645 238.578398 
L 738.30967 264.119993 
L 739.458483 278.024121 
L 740.032889 283.204457 
L 740.607296 286.876896 
L 741.181702 288.852137 
L 741.756109 289.00122 
L 742.330515 287.264818 
L 742.904922 283.658461 
L 743.479328 278.27335 
L 744.053735 271.272657 
L 745.202548 253.385443 
L 749.223393 182.865447 
L 750.372206 169.271462 
L 750.946613 164.185352 
L 751.521019 160.18229 
L 752.095426 157.156295 
L 752.669832 154.965622 
L 753.244239 153.447367 
L 753.818645 152.433052 
L 754.393052 151.764057 
L 755.541865 150.959664 
L 756.690677 150.438082 
L 757.265084 150.305299 
L 757.83949 150.367675 
L 758.413897 150.759812 
L 758.988303 151.646012 
L 759.56271 153.206924 
L 760.137116 155.624409 
L 760.711523 159.065707 
L 761.285929 163.668024 
L 761.860336 169.524654 
L 763.009149 185.089712 
L 764.157962 205.286588 
L 768.178807 284.418779 
L 768.753214 292.546335 
L 769.32762 299.055653 
L 769.902027 303.802467 
L 770.476433 306.715865 
L 771.05084 307.8 
L 771.625246 307.131298 
L 772.199653 304.851405 
L 772.774059 301.156367 
L 773.922872 290.492009 
L 775.646091 270.247677 
L 777.369311 250.142277 
L 779.09253 232.758337 
L 781.964563 205.346261 
L 783.687782 185.377049 
L 786.559815 148.90009 
L 787.708628 137.912963 
L 788.283034 134.23695 
L 788.857441 132.077457 
L 789.431847 131.605299 
L 790.006254 132.929881 
L 790.58066 136.090489 
L 791.155067 141.051683 
L 791.729473 147.703125 
L 792.878286 165.291092 
L 794.601506 198.088072 
L 796.324725 230.607074 
L 797.473538 248.258523 
L 798.622351 261.132249 
L 799.196757 265.68291 
L 799.771164 269.049199 
L 800.34557 271.34881 
L 800.919977 272.734787 
L 801.494383 273.380652 
L 802.06879 273.464665 
L 802.643196 273.154341 
L 803.792009 271.884662 
L 804.940822 270.22568 
L 806.089635 268.064557 
L 806.664042 266.556461 
L 807.238448 264.565745 
L 807.812855 261.921616 
L 808.387261 258.453012 
L 808.961668 254.004324 
L 809.536074 248.450573 
L 810.684887 233.759814 
L 811.8337 214.436646 
L 813.55692 179.387408 
L 815.280139 143.753511 
L 816.428952 124.078925 
L 817.003358 116.348725 
L 817.577765 110.303263 
L 818.152171 106.068798 
L 818.726578 103.697141 
L 819.300984 103.16459 
L 819.875391 104.375349 
L 820.449797 107.169174 
L 821.024204 111.332725 
L 822.173017 122.737659 
L 826.193862 168.763521 
L 827.342675 178.948957 
L 831.363521 212.075165 
L 834.809959 245.481448 
L 835.384366 249.526157 
L 835.958772 252.476807 
L 836.533179 254.094594 
L 837.107585 254.176822 
L 837.681992 252.571351 
L 838.256398 249.188293 
L 838.830805 244.008151 
L 839.405211 237.085802 
L 840.554024 218.598596 
L 841.702837 195.526451 
L 844.57487 134.815416 
L 845.723683 115.763626 
L 846.872496 101.922284 
L 847.446902 97.020507 
L 848.021309 93.374679 
L 848.595715 90.854583 
L 849.170122 89.29522 
L 849.744528 88.511951 
L 850.318935 88.316393 
L 850.893341 88.531949 
L 851.467748 89.00786 
L 852.616561 90.33327 
L 853.765373 91.958361 
L 854.33978 92.994599 
L 854.914186 94.326063 
L 855.488593 96.100244 
L 856.062999 98.479211 
L 856.637406 101.624499 
L 857.211812 105.681511 
L 857.786219 110.764564 
L 858.935032 124.234009 
L 860.083845 141.896923 
L 861.807064 173.511003 
L 863.530284 204.552975 
L 864.679097 220.610668 
L 865.253503 226.405286 
L 865.82791 230.453557 
L 866.402316 232.648588 
L 866.976723 232.958794 
L 867.551129 231.428335 
L 868.125536 228.173051 
L 868.699942 223.372228 
L 869.848755 210.094306 
L 871.571975 185.205894 
L 873.295194 160.60061 
L 874.444007 146.542205 
L 875.59282 134.634527 
L 877.316039 119.344929 
L 879.613665 98.848732 
L 882.485698 71.375542 
L 883.060104 66.946787 
L 883.634511 63.411496 
L 884.208917 61.014881 
L 884.783324 59.980412 
L 885.35773 60.493908 
L 885.932137 62.689502 
L 886.506543 66.638451 
L 887.08095 72.341572 
L 887.655356 79.72588 
L 888.804169 98.888041 
L 890.527389 134.639967 
L 892.250608 170.788688 
L 893.399421 190.872766 
L 894.548234 205.791128 
L 895.12264 211.112452 
L 895.697047 215.036815 
L 896.271453 217.660625 
L 896.84586 219.128007 
L 897.420266 219.617133 
L 897.994673 219.324807 
L 898.569079 218.450414 
L 899.717892 215.674057 
L 902.015518 208.987822 
L 903.164331 205.075816 
L 903.738738 202.634565 
L 904.313144 199.669225 
L 904.887551 196.027072 
L 905.461957 191.572062 
L 906.61077 179.849221 
L 907.759583 164.252442 
L 909.482803 135.380083 
L 911.206022 105.679593 
L 912.354835 89.598863 
L 912.929241 83.580595 
L 913.503648 79.223262 
L 914.078054 76.685565 
L 914.652461 76.054516 
L 915.226867 77.341165 
L 915.801274 80.480827 
L 916.37568 85.337771 
L 916.950087 91.714046 
L 918.0989 107.998666 
L 922.119745 172.779043 
L 923.268558 187.175689 
L 924.417371 199.314932 
L 930.161436 253.500382 
L 931.310249 262.631584 
L 931.884655 265.951162 
L 932.459062 268.128962 
L 933.033468 268.956764 
L 933.607875 268.265321 
L 934.182281 265.937982 
L 934.756688 261.921372 
L 935.331094 256.232376 
L 935.905501 248.9609 
L 937.054314 230.380664 
L 938.777533 196.556194 
L 940.500753 163.698773 
L 941.649566 146.513878 
L 942.223972 139.981768 
L 942.798379 134.958055 
L 943.372785 131.455924 
L 943.947192 129.422007 
L 944.521598 128.744332 
L 945.096005 129.263745 
L 945.670411 130.787951 
L 946.244818 133.107195 
L 947.393631 139.301086 
L 950.840069 160.843166 
L 951.988882 168.799394 
L 953.137695 178.562871 
L 954.286508 191.192721 
L 955.435321 207.25727 
L 956.584134 226.490328 
L 960.030573 287.215694 
L 960.60498 294.704492 
L 961.179386 300.670553 
L 961.753793 304.909227 
L 962.328199 307.280698 
L 962.902606 307.717883 
L 963.477012 306.230065 
L 964.051419 302.902016 
L 964.625825 297.888676 
L 965.774638 283.716826 
L 967.497858 256.43352 
L 969.221077 228.95701 
L 970.36989 213.395126 
L 971.518703 200.786098 
L 972.667516 190.783536 
L 974.390735 178.583525 
L 978.985987 147.914014 
L 979.560394 145.378751 
L 980.1348 143.75195 
L 980.709207 143.251091 
L 981.283613 144.068839 
L 981.85802 146.35776 
L 982.432426 150.217132 
L 983.006833 155.682769 
L 983.581239 162.720603 
L 984.730052 181.018675 
L 986.453272 215.504426 
L 988.176491 250.664885 
L 989.325304 270.027498 
L 989.89971 277.704516 
L 990.474117 283.836426 
L 991.048523 288.354698 
L 991.62293 291.262113 
L 992.197336 292.628285 
L 992.771743 292.581182 
L 993.346149 291.295236 
L 993.920556 288.976935 
L 995.069369 282.13341 
L 996.218182 273.736596 
L 996.218182 273.736596 
" style="fill:none;stroke:#4c72b0;stroke-linecap:round;stroke-width:1.4;"/>
   </g>
   <g id="line2d_32">
    <path clip-path="url(#p746240b21e)" d="M 184.581818 246.011392 
L 533.820961 243.221822 
L 897.420266 240.541437 
L 996.218182 239.850236 
L 996.218182 239.850236 
" style="fill:none;stroke:#55a868;stroke-linecap:round;stroke-width:1.4;"/>
   </g>
   <g id="patch_3">
    <path d="M 144 320.4 
L 144 43.2 
" style="fill:none;"/>
   </g>
   <g id="patch_4">
    <path d="M 1036.8 320.4 
L 1036.8 43.2 
" style="fill:none;"/>
   </g>
   <g id="patch_5">
    <path d="M 144 320.4 
L 1036.8 320.4 
" style="fill:none;"/>
   </g>
   <g id="patch_6">
    <path d="M 144 43.2 
L 1036.8 43.2 
" style="fill:none;"/>
   </g>
   <g id="legend_1">
    <g id="line2d_33">
     <path d="M 1002.75125 53.3975 
L 1018.75125 53.3975 
" style="fill:none;stroke:#4c72b0;stroke-linecap:round;stroke-width:1.4;"/>
    </g>
    <g id="line2d_34"/>
    <g id="text_16">
     <!-- a -->
     <defs>
      <path d="M 20.21875 -0.984375 
Q 12.25 -0.984375 8.25 3.21875 
Q 4.25 7.421875 4.25 14.75 
Q 4.25 19.96875 6.21875 23.3125 
Q 8.203125 26.65625 11.390625 28.5625 
Q 14.59375 30.46875 18.6875 31.203125 
Q 22.796875 31.9375 27.046875 32.03125 
L 38.921875 32.234375 
L 38.921875 35.109375 
Q 38.921875 38.375 38.234375 40.671875 
Q 37.546875 42.96875 36.125 44.375 
Q 34.71875 45.796875 32.59375 46.453125 
Q 30.46875 47.125 27.59375 47.125 
Q 25.046875 47.125 23 46.75 
Q 20.953125 46.390625 19.4375 45.4375 
Q 17.921875 44.484375 16.984375 42.84375 
Q 16.0625 41.21875 15.765625 38.71875 
L 6.59375 39.546875 
Q 7.078125 42.671875 8.4375 45.28125 
Q 9.8125 47.90625 12.328125 49.796875 
Q 14.84375 51.703125 18.625 52.75 
Q 22.40625 53.8125 27.78125 53.8125 
Q 37.75 53.8125 42.765625 49.234375 
Q 47.796875 44.671875 47.796875 36.03125 
L 47.796875 13.28125 
Q 47.796875 9.375 48.828125 7.390625 
Q 49.859375 5.421875 52.734375 5.421875 
Q 53.46875 5.421875 54.203125 5.515625 
Q 54.9375 5.609375 55.609375 5.765625 
L 55.609375 0.296875 
Q 53.953125 -0.09375 52.3125 -0.28125 
Q 50.6875 -0.484375 48.828125 -0.484375 
Q 46.34375 -0.484375 44.5625 0.171875 
Q 42.78125 0.828125 41.65625 2.171875 
Q 40.53125 3.515625 39.9375 5.484375 
Q 39.359375 7.46875 39.203125 10.109375 
L 38.921875 10.109375 
Q 37.5 7.5625 35.8125 5.515625 
Q 34.125 3.46875 31.875 2.03125 
Q 29.640625 0.59375 26.78125 -0.1875 
Q 23.921875 -0.984375 20.21875 -0.984375 
M 22.21875 5.609375 
Q 26.421875 5.609375 29.5625 7.140625 
Q 32.71875 8.6875 34.78125 11.078125 
Q 36.859375 13.484375 37.890625 16.3125 
Q 38.921875 19.140625 38.921875 21.734375 
L 38.921875 26.078125 
L 29.296875 25.875 
Q 26.078125 25.828125 23.171875 25.40625 
Q 20.265625 25 18.0625 23.78125 
Q 15.875 22.5625 14.578125 20.359375 
Q 13.28125 18.171875 13.28125 14.59375 
Q 13.28125 10.296875 15.59375 7.953125 
Q 17.921875 5.609375 22.21875 5.609375 
" id="LiberationSans-61"/>
     </defs>
     <g style="fill:#262626;" transform="translate(1025.15125 56.1975)scale(0.08 -0.08)">
      <use xlink:href="#LiberationSans-61"/>
     </g>
    </g>
    <g id="line2d_35">
     <path d="M 1002.75125 64.855 
L 1018.75125 64.855 
" style="fill:none;stroke:#55a868;stroke-linecap:round;stroke-width:1.4;"/>
    </g>
    <g id="line2d_36"/>
    <g id="text_17">
     <!-- b -->
     <defs>
      <path d="M 51.421875 26.65625 
Q 51.421875 -0.984375 31.984375 -0.984375 
Q 25.984375 -0.984375 22 1.1875 
Q 18.015625 3.375 15.53125 8.203125 
L 15.4375 8.203125 
Q 15.4375 6.9375 15.359375 5.5625 
Q 15.28125 4.203125 15.203125 3.03125 
Q 15.140625 1.859375 15.0625 1.03125 
Q 14.984375 0.203125 14.9375 0 
L 6.453125 0 
Q 6.5 0.4375 6.546875 1.484375 
Q 6.59375 2.546875 6.640625 4 
Q 6.6875 5.46875 6.703125 7.21875 
Q 6.734375 8.984375 6.734375 10.890625 
L 6.734375 72.46875 
L 15.53125 72.46875 
L 15.53125 51.8125 
Q 15.53125 50.34375 15.5 49 
Q 15.484375 47.65625 15.4375 46.625 
Q 15.375 45.40625 15.328125 44.34375 
L 15.53125 44.34375 
Q 17.96875 49.421875 22 51.609375 
Q 26.03125 53.8125 31.984375 53.8125 
Q 42 53.8125 46.703125 47.0625 
Q 51.421875 40.328125 51.421875 26.65625 
M 42.1875 26.375 
Q 42.1875 31.84375 41.5 35.75 
Q 40.828125 39.65625 39.3125 42.15625 
Q 37.796875 44.671875 35.453125 45.84375 
Q 33.109375 47.015625 29.734375 47.015625 
Q 26.265625 47.015625 23.609375 45.890625 
Q 20.953125 44.78125 19.171875 42.28125 
Q 17.390625 39.796875 16.453125 35.734375 
Q 15.53125 31.6875 15.53125 25.828125 
Q 15.53125 20.171875 16.453125 16.3125 
Q 17.390625 12.453125 19.171875 10.03125 
Q 20.953125 7.625 23.578125 6.5625 
Q 26.21875 5.515625 29.640625 5.515625 
Q 32.859375 5.515625 35.203125 6.640625 
Q 37.546875 7.765625 39.109375 10.25 
Q 40.671875 12.75 41.421875 16.71875 
Q 42.1875 20.703125 42.1875 26.375 
" id="LiberationSans-62"/>
     </defs>
     <g style="fill:#262626;" transform="translate(1025.15125 67.655)scale(0.08 -0.08)">
      <use xlink:href="#LiberationSans-62"/>
     </g>
    </g>
   </g>
  </g>
 </g>
 <defs>
  <clipPath id="p746240b21e">
   <rect height="277.2" width="892.8" x="144" y="43.2"/>
  </clipPath>
 </defs>
</svg>
