<?xml version="1.0" encoding="utf-8" standalone="no"?>
<!DOCTYPE svg PUBLIC "-//W3C//DTD SVG 1.1//EN"
  "http://www.w3.org/Graphics/SVG/1.1/DTD/svg11.dtd">
<!-- Created with matplotlib (http://matplotlib.org/) -->
<svg height="360pt" version="1.1" viewBox="0 0 1152 360" width="1152pt" xmlns="http://www.w3.org/2000/svg" xmlns:xlink="http://www.w3.org/1999/xlink">
 <defs>
  <style type="text/css">
*{stroke-linecap:butt;stroke-linejoin:round;}
  </style>
 </defs>
 <g id="figure_1">
  <g id="patch_1">
   <path d="M 0 360 
L 1152 360 
L 1152 0 
L 0 0 
z
" style="fill:#ffffff;"/>
  </g>
  <g id="axes_1">
   <g id="patch_2">
    <path d="M 144 320.4 
L 1036.8 320.4 
L 1036.8 43.2 
L 144 43.2 
z
" style="fill:#eaeaf2;"/>
   </g>
   <g id="matplotlib.axis_1">
    <g id="xtick_1">
     <g id="line2d_1">
      <path clip-path="url(#p5409cc36f1)" d="M 184.581818 320.4 
L 184.581818 43.2 
" style="fill:none;stroke:#ffffff;stroke-linecap:round;stroke-width:0.8;"/>
     </g>
     <g id="line2d_2"/>
     <g id="text_1">
      <!-- 0 -->
      <defs>
       <path d="M 51.703125 34.421875 
Q 51.703125 24.515625 49.828125 17.75 
Q 47.953125 10.984375 44.703125 6.8125 
Q 41.453125 2.640625 37.0625 0.828125 
Q 32.671875 -0.984375 27.6875 -0.984375 
Q 22.65625 -0.984375 18.3125 0.828125 
Q 13.96875 2.640625 10.765625 6.78125 
Q 7.5625 10.9375 5.734375 17.703125 
Q 3.90625 24.46875 3.90625 34.421875 
Q 3.90625 44.828125 5.734375 51.640625 
Q 7.5625 58.453125 10.78125 62.5 
Q 14.015625 66.546875 18.40625 68.1875 
Q 22.796875 69.828125 27.984375 69.828125 
Q 32.90625 69.828125 37.21875 68.1875 
Q 41.546875 66.546875 44.765625 62.5 
Q 48 58.453125 49.84375 51.640625 
Q 51.703125 44.828125 51.703125 34.421875 
M 42.78125 34.421875 
Q 42.78125 42.625 41.796875 48.0625 
Q 40.828125 53.515625 38.921875 56.765625 
Q 37.015625 60.015625 34.25 61.359375 
Q 31.5 62.703125 27.984375 62.703125 
Q 24.265625 62.703125 21.4375 61.328125 
Q 18.609375 59.96875 16.671875 56.71875 
Q 14.75 53.46875 13.765625 48.015625 
Q 12.796875 42.578125 12.796875 34.421875 
Q 12.796875 26.515625 13.796875 21.09375 
Q 14.796875 15.671875 16.71875 12.375 
Q 18.65625 9.078125 21.4375 7.640625 
Q 24.21875 6.203125 27.78125 6.203125 
Q 31.25 6.203125 34.03125 7.640625 
Q 36.8125 9.078125 38.734375 12.375 
Q 40.671875 15.671875 41.71875 21.09375 
Q 42.78125 26.515625 42.78125 34.421875 
" id="LiberationSans-30"/>
      </defs>
      <g style="fill:#262626;" transform="translate(182.357443 331.7975)scale(0.08 -0.08)">
       <use xlink:href="#LiberationSans-30"/>
      </g>
     </g>
    </g>
    <g id="xtick_2">
     <g id="line2d_3">
      <path clip-path="url(#p5409cc36f1)" d="M 299.625952 320.4 
L 299.625952 43.2 
" style="fill:none;stroke:#ffffff;stroke-linecap:round;stroke-width:0.8;"/>
     </g>
     <g id="line2d_4"/>
     <g id="text_2">
      <!-- 200 -->
      <defs>
       <path d="M 5.03125 0 
L 5.03125 6.203125 
Q 7.515625 11.921875 11.109375 16.28125 
Q 14.703125 20.65625 18.65625 24.1875 
Q 22.609375 27.734375 26.484375 30.765625 
Q 30.375 33.796875 33.5 36.8125 
Q 36.625 39.84375 38.546875 43.15625 
Q 40.484375 46.484375 40.484375 50.6875 
Q 40.484375 53.609375 39.59375 55.828125 
Q 38.71875 58.0625 37.0625 59.5625 
Q 35.40625 61.078125 33.078125 61.828125 
Q 30.765625 62.59375 27.9375 62.59375 
Q 25.296875 62.59375 22.96875 61.859375 
Q 20.65625 61.140625 18.84375 59.671875 
Q 17.046875 58.203125 15.890625 56.03125 
Q 14.75 53.859375 14.40625 50.984375 
L 5.421875 51.8125 
Q 5.859375 55.515625 7.46875 58.78125 
Q 9.078125 62.0625 11.90625 64.53125 
Q 14.75 67 18.71875 68.40625 
Q 22.703125 69.828125 27.9375 69.828125 
Q 33.0625 69.828125 37.0625 68.609375 
Q 41.0625 67.390625 43.8125 64.984375 
Q 46.578125 62.59375 48.046875 59.078125 
Q 49.515625 55.5625 49.515625 50.984375 
Q 49.515625 47.515625 48.265625 44.390625 
Q 47.015625 41.265625 44.9375 38.421875 
Q 42.875 35.59375 40.140625 32.953125 
Q 37.40625 30.328125 34.421875 27.8125 
Q 31.453125 25.296875 28.421875 22.828125 
Q 25.390625 20.359375 22.71875 17.859375 
Q 20.0625 15.375 17.96875 12.8125 
Q 15.875 10.25 14.703125 7.46875 
L 50.59375 7.46875 
L 50.59375 0 
z
" id="LiberationSans-32"/>
      </defs>
      <g style="fill:#262626;" transform="translate(292.952827 331.7975)scale(0.08 -0.08)">
       <use xlink:href="#LiberationSans-32"/>
       <use x="55.615234" xlink:href="#LiberationSans-30"/>
       <use x="111.230469" xlink:href="#LiberationSans-30"/>
      </g>
     </g>
    </g>
    <g id="xtick_3">
     <g id="line2d_5">
      <path clip-path="url(#p5409cc36f1)" d="M 414.670086 320.4 
L 414.670086 43.2 
" style="fill:none;stroke:#ffffff;stroke-linecap:round;stroke-width:0.8;"/>
     </g>
     <g id="line2d_6"/>
     <g id="text_3">
      <!-- 400 -->
      <defs>
       <path d="M 43.015625 15.578125 
L 43.015625 0 
L 34.71875 0 
L 34.71875 15.578125 
L 2.296875 15.578125 
L 2.296875 22.40625 
L 33.796875 68.796875 
L 43.015625 68.796875 
L 43.015625 22.515625 
L 52.6875 22.515625 
L 52.6875 15.578125 
z
M 34.71875 58.890625 
Q 34.625 58.640625 34.234375 57.9375 
Q 33.84375 57.234375 33.34375 56.34375 
Q 32.859375 55.46875 32.34375 54.5625 
Q 31.84375 53.65625 31.453125 53.078125 
L 13.8125 27.09375 
Q 13.578125 26.703125 13.109375 26.0625 
Q 12.640625 25.4375 12.15625 24.78125 
Q 11.671875 24.125 11.171875 23.484375 
Q 10.6875 22.859375 10.40625 22.515625 
L 34.71875 22.515625 
z
" id="LiberationSans-34"/>
      </defs>
      <g style="fill:#262626;" transform="translate(407.996961 331.7975)scale(0.08 -0.08)">
       <use xlink:href="#LiberationSans-34"/>
       <use x="55.615234" xlink:href="#LiberationSans-30"/>
       <use x="111.230469" xlink:href="#LiberationSans-30"/>
      </g>
     </g>
    </g>
    <g id="xtick_4">
     <g id="line2d_7">
      <path clip-path="url(#p5409cc36f1)" d="M 529.714219 320.4 
L 529.714219 43.2 
" style="fill:none;stroke:#ffffff;stroke-linecap:round;stroke-width:0.8;"/>
     </g>
     <g id="line2d_8"/>
     <g id="text_4">
      <!-- 600 -->
      <defs>
       <path d="M 51.21875 22.515625 
Q 51.21875 17.328125 49.78125 13 
Q 48.34375 8.6875 45.53125 5.578125 
Q 42.71875 2.484375 38.5625 0.75 
Q 34.421875 -0.984375 29 -0.984375 
Q 23 -0.984375 18.5 1.3125 
Q 14.015625 3.609375 11.03125 7.921875 
Q 8.0625 12.25 6.5625 18.53125 
Q 5.078125 24.8125 5.078125 32.8125 
Q 5.078125 42 6.765625 48.921875 
Q 8.453125 55.859375 11.625 60.5 
Q 14.796875 65.140625 19.359375 67.484375 
Q 23.921875 69.828125 29.6875 69.828125 
Q 33.203125 69.828125 36.28125 69.09375 
Q 39.359375 68.359375 41.875 66.71875 
Q 44.390625 65.09375 46.28125 62.40625 
Q 48.1875 59.71875 49.3125 55.8125 
L 40.921875 54.296875 
Q 39.546875 58.734375 36.546875 60.71875 
Q 33.546875 62.703125 29.59375 62.703125 
Q 25.984375 62.703125 23.046875 60.984375 
Q 20.125 59.28125 18.0625 55.875 
Q 16.015625 52.484375 14.90625 47.359375 
Q 13.8125 42.234375 13.8125 35.40625 
Q 16.21875 39.84375 20.5625 42.15625 
Q 24.90625 44.484375 30.515625 44.484375 
Q 35.203125 44.484375 39.015625 42.96875 
Q 42.828125 41.453125 45.53125 38.59375 
Q 48.25 35.75 49.734375 31.671875 
Q 51.21875 27.59375 51.21875 22.515625 
M 42.28125 22.125 
Q 42.28125 25.6875 41.40625 28.5625 
Q 40.53125 31.453125 38.765625 33.46875 
Q 37.015625 35.5 34.421875 36.59375 
Q 31.84375 37.703125 28.421875 37.703125 
Q 26.03125 37.703125 23.578125 36.984375 
Q 21.140625 36.28125 19.15625 34.6875 
Q 17.1875 33.109375 15.9375 30.515625 
Q 14.703125 27.9375 14.703125 24.21875 
Q 14.703125 20.40625 15.671875 17.109375 
Q 16.65625 13.8125 18.484375 11.375 
Q 20.3125 8.9375 22.890625 7.515625 
Q 25.484375 6.109375 28.71875 6.109375 
Q 31.890625 6.109375 34.40625 7.203125 
Q 36.921875 8.296875 38.671875 10.375 
Q 40.4375 12.453125 41.359375 15.421875 
Q 42.28125 18.40625 42.28125 22.125 
" id="LiberationSans-36"/>
      </defs>
      <g style="fill:#262626;" transform="translate(523.041094 331.7975)scale(0.08 -0.08)">
       <use xlink:href="#LiberationSans-36"/>
       <use x="55.615234" xlink:href="#LiberationSans-30"/>
       <use x="111.230469" xlink:href="#LiberationSans-30"/>
      </g>
     </g>
    </g>
    <g id="xtick_5">
     <g id="line2d_9">
      <path clip-path="url(#p5409cc36f1)" d="M 644.758353 320.4 
L 644.758353 43.2 
" style="fill:none;stroke:#ffffff;stroke-linecap:round;stroke-width:0.8;"/>
     </g>
     <g id="line2d_10"/>
     <g id="text_5">
      <!-- 800 -->
      <defs>
       <path d="M 51.265625 19.1875 
Q 51.265625 14.796875 49.875 11.109375 
Q 48.484375 7.421875 45.625 4.734375 
Q 42.78125 2.046875 38.328125 0.53125 
Q 33.890625 -0.984375 27.828125 -0.984375 
Q 21.78125 -0.984375 17.359375 0.53125 
Q 12.9375 2.046875 10.03125 4.703125 
Q 7.125 7.375 5.734375 11.0625 
Q 4.34375 14.75 4.34375 19.09375 
Q 4.34375 22.859375 5.484375 25.78125 
Q 6.640625 28.71875 8.5625 30.828125 
Q 10.5 32.953125 12.96875 34.25 
Q 15.4375 35.546875 18.0625 35.984375 
L 18.0625 36.1875 
Q 15.1875 36.859375 12.90625 38.375 
Q 10.640625 39.890625 9.09375 42.015625 
Q 7.5625 44.140625 6.75 46.71875 
Q 5.953125 49.3125 5.953125 52.203125 
Q 5.953125 55.8125 7.34375 59 
Q 8.734375 62.203125 11.46875 64.625 
Q 14.203125 67.046875 18.25 68.4375 
Q 22.3125 69.828125 27.640625 69.828125 
Q 33.25 69.828125 37.375 68.40625 
Q 41.5 67 44.203125 64.578125 
Q 46.921875 62.15625 48.234375 58.9375 
Q 49.5625 55.71875 49.5625 52.09375 
Q 49.5625 49.265625 48.75 46.671875 
Q 47.953125 44.09375 46.40625 41.96875 
Q 44.875 39.84375 42.59375 38.34375 
Q 40.328125 36.859375 37.359375 36.28125 
L 37.359375 36.078125 
Q 40.328125 35.59375 42.859375 34.296875 
Q 45.40625 33.015625 47.265625 30.890625 
Q 49.125 28.765625 50.1875 25.828125 
Q 51.265625 22.90625 51.265625 19.1875 
M 40.4375 51.609375 
Q 40.4375 54.203125 39.765625 56.34375 
Q 39.109375 58.5 37.59375 60.03125 
Q 36.078125 61.578125 33.640625 62.421875 
Q 31.203125 63.28125 27.640625 63.28125 
Q 24.171875 63.28125 21.78125 62.421875 
Q 19.390625 61.578125 17.84375 60.03125 
Q 16.3125 58.5 15.625 56.34375 
Q 14.9375 54.203125 14.9375 51.609375 
Q 14.9375 49.5625 15.46875 47.40625 
Q 16.015625 45.265625 17.421875 43.5 
Q 18.84375 41.75 21.328125 40.625 
Q 23.828125 39.5 27.734375 39.5 
Q 31.890625 39.5 34.40625 40.625 
Q 36.921875 41.75 38.25 43.5 
Q 39.59375 45.265625 40.015625 47.40625 
Q 40.4375 49.5625 40.4375 51.609375 
M 42.140625 20.015625 
Q 42.140625 22.515625 41.453125 24.828125 
Q 40.765625 27.15625 39.109375 28.9375 
Q 37.453125 30.71875 34.640625 31.8125 
Q 31.84375 32.90625 27.640625 32.90625 
Q 23.78125 32.90625 21.0625 31.8125 
Q 18.359375 30.71875 16.671875 28.90625 
Q 14.984375 27.09375 14.203125 24.71875 
Q 13.421875 22.359375 13.421875 19.828125 
Q 13.421875 16.65625 14.203125 14.03125 
Q 14.984375 11.421875 16.6875 9.546875 
Q 18.40625 7.671875 21.1875 6.640625 
Q 23.96875 5.609375 27.9375 5.609375 
Q 31.9375 5.609375 34.671875 6.640625 
Q 37.40625 7.671875 39.0625 9.546875 
Q 40.71875 11.421875 41.421875 14.078125 
Q 42.140625 16.75 42.140625 20.015625 
" id="LiberationSans-38"/>
      </defs>
      <g style="fill:#262626;" transform="translate(638.085228 331.7975)scale(0.08 -0.08)">
       <use xlink:href="#LiberationSans-38"/>
       <use x="55.615234" xlink:href="#LiberationSans-30"/>
       <use x="111.230469" xlink:href="#LiberationSans-30"/>
      </g>
     </g>
    </g>
    <g id="xtick_6">
     <g id="line2d_11">
      <path clip-path="url(#p5409cc36f1)" d="M 759.802487 320.4 
L 759.802487 43.2 
" style="fill:none;stroke:#ffffff;stroke-linecap:round;stroke-width:0.8;"/>
     </g>
     <g id="line2d_12"/>
     <g id="text_6">
      <!-- 1000 -->
      <defs>
       <path d="M 7.625 0 
L 7.625 7.46875 
L 25.140625 7.46875 
L 25.140625 60.40625 
L 9.625 49.3125 
L 9.625 57.625 
L 25.875 68.796875 
L 33.984375 68.796875 
L 33.984375 7.46875 
L 50.734375 7.46875 
L 50.734375 0 
z
" id="LiberationSans-31"/>
      </defs>
      <g style="fill:#262626;" transform="translate(750.904987 331.7975)scale(0.08 -0.08)">
       <use xlink:href="#LiberationSans-31"/>
       <use x="55.615234" xlink:href="#LiberationSans-30"/>
       <use x="111.230469" xlink:href="#LiberationSans-30"/>
       <use x="166.845703" xlink:href="#LiberationSans-30"/>
      </g>
     </g>
    </g>
    <g id="xtick_7">
     <g id="line2d_13">
      <path clip-path="url(#p5409cc36f1)" d="M 874.846621 320.4 
L 874.846621 43.2 
" style="fill:none;stroke:#ffffff;stroke-linecap:round;stroke-width:0.8;"/>
     </g>
     <g id="line2d_14"/>
     <g id="text_7">
      <!-- 1200 -->
      <g style="fill:#262626;" transform="translate(865.949121 331.7975)scale(0.08 -0.08)">
       <use xlink:href="#LiberationSans-31"/>
       <use x="55.615234" xlink:href="#LiberationSans-32"/>
       <use x="111.230469" xlink:href="#LiberationSans-30"/>
       <use x="166.845703" xlink:href="#LiberationSans-30"/>
      </g>
     </g>
    </g>
    <g id="xtick_8">
     <g id="line2d_15">
      <path clip-path="url(#p5409cc36f1)" d="M 989.890754 320.4 
L 989.890754 43.2 
" style="fill:none;stroke:#ffffff;stroke-linecap:round;stroke-width:0.8;"/>
     </g>
     <g id="line2d_16"/>
     <g id="text_8">
      <!-- 1400 -->
      <g style="fill:#262626;" transform="translate(980.993254 331.7975)scale(0.08 -0.08)">
       <use xlink:href="#LiberationSans-31"/>
       <use x="55.615234" xlink:href="#LiberationSans-34"/>
       <use x="111.230469" xlink:href="#LiberationSans-30"/>
       <use x="166.845703" xlink:href="#LiberationSans-30"/>
      </g>
     </g>
    </g>
   </g>
   <g id="matplotlib.axis_2">
    <g id="ytick_1">
     <g id="line2d_17">
      <path clip-path="url(#p5409cc36f1)" d="M 144 277.81752 
L 1036.8 277.81752 
" style="fill:none;stroke:#ffffff;stroke-linecap:round;stroke-width:0.8;"/>
     </g>
     <g id="line2d_18"/>
     <g id="text_9">
      <!-- −20000 -->
      <defs>
       <path d="M 4.9375 29.6875 
L 4.9375 36.8125 
L 53.515625 36.8125 
L 53.515625 29.6875 
z
" id="LiberationSans-2212"/>
      </defs>
      <g style="fill:#262626;" transform="translate(111.48375 280.71627)scale(0.08 -0.08)">
       <use xlink:href="#LiberationSans-2212"/>
       <use x="58.398438" xlink:href="#LiberationSans-32"/>
       <use x="114.013672" xlink:href="#LiberationSans-30"/>
       <use x="169.628906" xlink:href="#LiberationSans-30"/>
       <use x="225.244141" xlink:href="#LiberationSans-30"/>
       <use x="280.859375" xlink:href="#LiberationSans-30"/>
      </g>
     </g>
    </g>
    <g id="ytick_2">
     <g id="line2d_19">
      <path clip-path="url(#p5409cc36f1)" d="M 144 227.520629 
L 1036.8 227.520629 
" style="fill:none;stroke:#ffffff;stroke-linecap:round;stroke-width:0.8;"/>
     </g>
     <g id="line2d_20"/>
     <g id="text_10">
      <!-- −10000 -->
      <g style="fill:#262626;" transform="translate(111.48375 230.419379)scale(0.08 -0.08)">
       <use xlink:href="#LiberationSans-2212"/>
       <use x="58.398438" xlink:href="#LiberationSans-31"/>
       <use x="114.013672" xlink:href="#LiberationSans-30"/>
       <use x="169.628906" xlink:href="#LiberationSans-30"/>
       <use x="225.244141" xlink:href="#LiberationSans-30"/>
       <use x="280.859375" xlink:href="#LiberationSans-30"/>
      </g>
     </g>
    </g>
    <g id="ytick_3">
     <g id="line2d_21">
      <path clip-path="url(#p5409cc36f1)" d="M 144 177.223737 
L 1036.8 177.223737 
" style="fill:none;stroke:#ffffff;stroke-linecap:round;stroke-width:0.8;"/>
     </g>
     <g id="line2d_22"/>
     <g id="text_11">
      <!-- 0 -->
      <g style="fill:#262626;" transform="translate(133.95125 180.122487)scale(0.08 -0.08)">
       <use xlink:href="#LiberationSans-30"/>
      </g>
     </g>
    </g>
    <g id="ytick_4">
     <g id="line2d_23">
      <path clip-path="url(#p5409cc36f1)" d="M 144 126.926846 
L 1036.8 126.926846 
" style="fill:none;stroke:#ffffff;stroke-linecap:round;stroke-width:0.8;"/>
     </g>
     <g id="line2d_24"/>
     <g id="text_12">
      <!-- 10000 -->
      <g style="fill:#262626;" transform="translate(116.15625 129.825596)scale(0.08 -0.08)">
       <use xlink:href="#LiberationSans-31"/>
       <use x="55.615234" xlink:href="#LiberationSans-30"/>
       <use x="111.230469" xlink:href="#LiberationSans-30"/>
       <use x="166.845703" xlink:href="#LiberationSans-30"/>
       <use x="222.460938" xlink:href="#LiberationSans-30"/>
      </g>
     </g>
    </g>
    <g id="ytick_5">
     <g id="line2d_25">
      <path clip-path="url(#p5409cc36f1)" d="M 144 76.629955 
L 1036.8 76.629955 
" style="fill:none;stroke:#ffffff;stroke-linecap:round;stroke-width:0.8;"/>
     </g>
     <g id="line2d_26"/>
     <g id="text_13">
      <!-- 20000 -->
      <g style="fill:#262626;" transform="translate(116.15625 79.528705)scale(0.08 -0.08)">
       <use xlink:href="#LiberationSans-32"/>
       <use x="55.615234" xlink:href="#LiberationSans-30"/>
       <use x="111.230469" xlink:href="#LiberationSans-30"/>
       <use x="166.845703" xlink:href="#LiberationSans-30"/>
       <use x="222.460938" xlink:href="#LiberationSans-30"/>
      </g>
     </g>
    </g>
   </g>
   <g id="line2d_27">
    <path clip-path="url(#p5409cc36f1)" d="M 184.581818 177.223737 
L 187.457922 177.224378 
L 188.033142 178.698503 
L 188.608363 182.811823 
L 189.183584 185.786079 
L 189.758804 183.960553 
L 190.909246 170.50367 
L 191.484466 167.058333 
L 192.059687 168.395225 
L 193.785349 181.411728 
L 194.36057 183.8838 
L 194.93579 184.197552 
L 195.511011 181.374368 
L 196.661452 170.288601 
L 197.236673 169.132225 
L 197.811894 173.959605 
L 198.387114 181.485589 
L 198.962335 185.534343 
L 199.537556 182.184796 
L 200.112776 173.569256 
L 200.687997 166.948133 
L 201.263218 168.874554 
L 202.413659 188.963183 
L 202.98888 190.160148 
L 203.5641 180.174671 
L 204.139321 166.250062 
L 204.714542 160.109767 
L 205.289762 167.80821 
L 205.864983 183.652183 
L 206.440204 194.755222 
L 207.015424 191.95791 
L 208.165866 162.890833 
L 208.741086 159.829211 
L 209.316307 169.559598 
L 209.891528 183.291806 
L 210.466748 190.830103 
L 211.041969 188.612563 
L 212.19241 173.059024 
L 212.767631 169.011512 
L 213.342852 168.155912 
L 213.918072 170.05633 
L 214.493293 175.387498 
L 215.643734 190.364052 
L 216.218955 189.48627 
L 216.794176 179.140451 
L 217.369396 165.783056 
L 217.944617 159.686167 
L 218.519838 166.312129 
L 219.095058 181.2765 
L 219.670279 192.960025 
L 220.2455 192.050557 
L 221.395941 166.645446 
L 221.971162 162.736321 
L 222.546382 170.343877 
L 223.121603 182.536598 
L 223.696824 189.122523 
L 224.272044 185.342511 
L 224.847265 175.392588 
L 225.422486 167.83376 
L 225.997706 168.206611 
L 227.148148 182.776665 
L 227.723368 185.347943 
L 228.298589 182.541577 
L 229.44903 173.559181 
L 230.024251 170.786188 
L 230.599472 169.292974 
L 231.174692 170.905643 
L 231.749913 177.903299 
L 232.325134 188.204001 
L 232.900354 194.175349 
L 233.475575 188.477264 
L 234.626016 154.955795 
L 235.201237 153.135952 
L 235.776458 170.210993 
L 236.351678 193.757331 
L 236.926899 205.617892 
L 237.50212 196.984179 
L 238.652561 156.609808 
L 239.227782 154.285488 
L 239.803002 166.151933 
L 240.378223 181.105797 
L 240.953444 190.084149 
L 241.528664 191.367324 
L 242.103885 187.800972 
L 242.679106 181.200904 
L 243.829547 161.810758 
L 244.404768 158.869899 
L 244.979988 168.064875 
L 246.13043 201.671547 
L 246.70565 199.034381 
L 247.856092 153.688263 
L 248.431312 147.026791 
L 249.006533 165.332597 
L 249.581754 196.19839 
L 250.156974 213.665897 
L 250.732195 200.142321 
L 251.307416 164.876353 
L 251.882636 137.105076 
L 252.457857 141.089445 
L 253.608298 216.409744 
L 254.183519 225.842171 
L 254.75874 195.085471 
L 255.33396 149.361875 
L 255.909181 125.372672 
L 256.484402 141.050766 
L 257.634843 218.038558 
L 258.210064 219.755191 
L 259.360505 160.618269 
L 259.935726 145.96266 
L 260.510946 152.42229 
L 261.661388 184.69861 
L 262.236608 193.445088 
L 262.811829 196.038798 
L 263.38705 192.134301 
L 263.96227 181.010766 
L 264.537491 165.385459 
L 265.112712 154.136458 
L 265.687932 157.12515 
L 266.838374 192.27639 
L 267.413594 199.587596 
L 267.988815 192.017361 
L 268.564036 176.454542 
L 269.139256 164.633621 
L 269.714477 163.006315 
L 270.289698 169.001906 
L 270.864918 176.640148 
L 271.440139 182.278826 
L 272.01536 185.474641 
L 272.590581 186.278133 
L 273.165801 182.746386 
L 274.316243 164.614357 
L 274.891463 162.676619 
L 275.466684 173.07528 
L 276.041905 191.593308 
L 276.617125 203.153797 
L 277.192346 192.550709 
L 278.342787 137.886991 
L 278.918008 141.837862 
L 279.493229 179.793365 
L 280.068449 227.198527 
L 280.64367 240.861879 
L 281.218891 199.407181 
L 281.794111 131.688553 
L 282.369332 93.036298 
L 282.944553 118.179211 
L 284.094994 263.438142 
L 284.670215 265.379602 
L 285.820656 117.33875 
L 286.395877 85.900678 
L 286.971097 122.897059 
L 287.546318 196.298733 
L 288.121539 246.771261 
L 288.696759 239.388683 
L 289.847201 144.53287 
L 290.422421 130.585492 
L 290.997642 150.087206 
L 291.572863 180.78599 
L 292.148083 199.146492 
L 292.723304 198.496808 
L 293.873745 175.466998 
L 294.448966 169.189664 
L 295.024187 167.701379 
L 295.599407 169.577554 
L 296.174628 175.196184 
L 296.749849 183.0282 
L 297.325069 188.166279 
L 297.90029 185.856243 
L 299.050731 163.280634 
L 299.625952 160.558567 
L 300.201173 172.752967 
L 300.776393 191.379244 
L 301.351614 201.187641 
L 301.926835 193.200645 
L 303.077276 152.537269 
L 303.652497 151.299613 
L 304.227717 167.290001 
L 304.802938 186.846136 
L 305.378159 198.009531 
L 305.953379 198.504855 
L 306.5286 192.655477 
L 307.103821 182.24385 
L 308.254262 144.386104 
L 308.829483 137.045222 
L 309.404703 156.637119 
L 310.555145 242.09868 
L 311.130365 239.861474 
L 311.705586 184.867708 
L 312.280807 117.215522 
L 312.856027 90.394202 
L 313.431248 127.841847 
L 314.006469 206.028566 
L 314.581689 263.613678 
L 315.15691 252.148502 
L 316.307351 118.084652 
L 316.882572 101.679315 
L 317.457793 142.41004 
L 318.033013 204.715565 
L 318.608234 237.266154 
L 319.183455 218.984291 
L 319.758675 173.274088 
L 320.333896 139.392478 
L 320.909117 139.569724 
L 322.059558 198.138694 
L 322.634779 207.026506 
L 323.209999 193.428239 
L 323.78522 172.84323 
L 324.360441 159.798078 
L 324.935661 158.157292 
L 325.510882 163.625118 
L 326.086103 173.136788 
L 327.236544 204.208271 
L 327.811765 209.446843 
L 328.386985 192.75592 
L 329.537427 122.818093 
L 330.112647 125.90431 
L 330.687868 172.834041 
L 331.263089 229.434425 
L 331.838309 251.130492 
L 332.41353 219.144084 
L 332.988751 153.610906 
L 333.563971 105.135718 
L 334.139192 112.414684 
L 335.289633 217.244471 
L 335.864854 235.422773 
L 336.440075 214.467328 
L 337.015295 176.690661 
L 337.590516 149.945872 
L 338.165737 144.251962 
L 338.740957 153.115683 
L 340.466619 199.926748 
L 341.04184 208.155772 
L 341.617061 198.255684 
L 342.767502 146.53016 
L 343.342723 141.887857 
L 343.917943 163.182254 
L 344.493164 197.099862 
L 345.068385 216.176316 
L 345.643605 202.739904 
L 346.218826 168.135693 
L 346.794047 141.600964 
L 347.369267 144.177473 
L 348.519709 209.867275 
L 349.094929 217.927804 
L 349.67015 191.495279 
L 350.245371 153.708884 
L 350.820591 134.705512 
L 351.395812 147.374242 
L 352.546253 208.631782 
L 353.121474 212.699845 
L 353.696695 196.920503 
L 354.271915 176.151156 
L 354.847136 159.794909 
L 355.422357 148.75122 
L 355.997577 143.637837 
L 356.572798 153.887589 
L 357.148019 186.887078 
L 357.723239 226.975913 
L 358.29846 242.147468 
L 358.873681 211.899269 
L 360.024122 89.938009 
L 360.599343 97.184785 
L 361.749784 250.249291 
L 362.325005 276.986615 
L 362.900226 229.752302 
L 363.475446 142.532664 
L 364.050667 85.280517 
L 364.625888 103.252099 
L 365.776329 237.583528 
L 366.35155 248.415969 
L 366.92677 205.20928 
L 367.501991 146.60309 
L 368.077212 121.099448 
L 368.652432 143.623201 
L 369.227653 187.704453 
L 369.802874 216.281235 
L 370.378094 211.187015 
L 371.528536 153.067146 
L 372.103756 147.34678 
L 372.678977 162.513406 
L 373.254198 182.841749 
L 373.829418 195.250244 
L 374.404639 197.079844 
L 374.97986 192.376028 
L 375.55508 182.813432 
L 376.705522 150.1031 
L 377.280742 145.099616 
L 377.855963 161.190497 
L 379.006404 224.001053 
L 379.581625 222.049383 
L 380.732066 143.206592 
L 381.307287 124.830472 
L 381.882508 141.391176 
L 383.032949 209.444379 
L 383.60817 216.09232 
L 384.18339 203.589368 
L 385.909052 148.784618 
L 386.484273 137.407511 
L 387.059494 145.526737 
L 387.634714 180.195449 
L 388.209935 222.440441 
L 388.785156 239.793573 
L 389.360376 213.802051 
L 390.510818 105.553685 
L 391.086038 110.54364 
L 392.23648 233.980258 
L 392.8117 253.943095 
L 393.386921 213.734452 
L 393.962142 142.659814 
L 394.537362 100.011973 
L 395.112583 123.700803 
L 395.687804 191.76487 
L 396.263024 246.088229 
L 396.838245 244.38065 
L 397.988686 119.851582 
L 398.563907 99.797206 
L 399.139128 143.114448 
L 399.714348 210.244049 
L 400.289569 248.194663 
L 400.86479 232.821418 
L 402.015231 132.47746 
L 402.590452 122.434328 
L 403.165672 146.463114 
L 403.740893 179.677788 
L 404.316114 202.812532 
L 404.891334 211.832022 
L 405.466555 210.596177 
L 406.041776 197.741046 
L 407.192217 136.819943 
L 407.767438 122.769808 
L 408.342658 142.847422 
L 409.4931 236.927656 
L 410.06832 240.824156 
L 410.643541 197.563549 
L 411.218762 142.301751 
L 411.793982 115.615075 
L 412.369203 133.00779 
L 413.519644 216.057917 
L 414.094865 219.761327 
L 415.245306 167.032129 
L 415.820527 153.361836 
L 416.395748 157.625654 
L 417.546189 181.884796 
L 418.12141 187.587915 
L 418.69663 188.550245 
L 419.271851 185.338889 
L 419.847072 177.577016 
L 420.422292 166.225618 
L 420.997513 158.121984 
L 421.572734 164.242411 
L 422.723175 206.887888 
L 423.298396 208.364303 
L 423.873616 182.447321 
L 424.448837 142.374279 
L 425.024058 121.584813 
L 425.599278 145.896922 
L 426.174499 201.356337 
L 426.74972 243.90132 
L 427.32494 239.173915 
L 427.900161 186.534145 
L 428.475382 123.026322 
L 429.050602 99.891764 
L 429.625823 134.416556 
L 430.201044 194.540756 
L 430.776264 234.901195 
L 431.351485 233.516521 
L 432.501926 162.37358 
L 433.077147 141.99162 
L 433.652368 139.808735 
L 434.227588 149.360014 
L 434.802809 167.919768 
L 435.95325 222.004468 
L 436.528471 228.895746 
L 437.103692 198.728525 
L 437.678912 146.522565 
L 438.254133 111.01643 
L 438.829354 120.792637 
L 439.979795 234.640154 
L 440.555016 250.962501 
L 441.130236 207.254703 
L 441.705457 140.809794 
L 442.280678 105.008467 
L 442.855898 126.671338 
L 444.00634 244.425917 
L 444.58156 241.055019 
L 445.732002 122.180328 
L 446.307222 105.21066 
L 446.882443 145.214947 
L 447.457664 211.612728 
L 448.032884 250.006357 
L 448.608105 230.363409 
L 449.758546 127.149611 
L 450.333767 119.596074 
L 450.908988 149.258565 
L 451.484208 189.233629 
L 452.059429 212.526924 
L 452.63465 213.114543 
L 453.20987 200.189348 
L 454.935533 144.433685 
L 455.510753 137.249126 
L 456.085974 154.409419 
L 457.236415 221.872036 
L 457.811636 225.129565 
L 458.386857 197.062994 
L 458.962077 156.093058 
L 459.537298 132.147512 
L 460.112519 139.870952 
L 461.26296 192.804557 
L 461.838181 204.158175 
L 462.413401 201.954669 
L 462.988622 192.702706 
L 463.563843 179.121826 
L 464.714284 147.550282 
L 465.289505 147.959447 
L 465.864725 168.544757 
L 466.439946 201.74654 
L 467.015167 223.417056 
L 467.590387 209.874316 
L 468.740829 127.181298 
L 469.316049 124.950681 
L 469.89127 167.241615 
L 470.466491 226.691736 
L 471.041711 251.430262 
L 471.616932 211.613633 
L 472.192153 135.943871 
L 472.767373 86.998156 
L 473.342594 107.211973 
L 474.493035 273.869214 
L 475.068256 284.523605 
L 475.643477 206.699074 
L 476.218697 104.188627 
L 476.793918 57.002096 
L 477.369139 99.010059 
L 477.944359 199.32228 
L 478.51958 279.191128 
L 479.094801 277.03993 
L 480.245242 126.269466 
L 480.820463 95.25087 
L 481.395683 122.230625 
L 481.970904 177.042374 
L 482.546125 216.645787 
L 483.121345 221.769783 
L 483.696566 202.850909 
L 484.271787 179.563679 
L 484.847007 163.821125 
L 485.422228 156.756222 
L 485.997449 156.272115 
L 486.572669 163.75428 
L 487.723111 193.026367 
L 488.298331 198.183257 
L 488.873552 190.647173 
L 489.448773 174.787286 
L 490.023993 161.998466 
L 490.599214 161.892893 
L 491.749655 184.556521 
L 492.324876 188.77975 
L 492.900097 183.555412 
L 493.475317 174.137787 
L 494.050538 168.423139 
L 494.625759 169.704 
L 495.7762 180.454085 
L 496.926641 187.778087 
L 497.501862 189.246455 
L 498.077083 182.079077 
L 499.227524 144.084021 
L 499.802745 143.626973 
L 500.377965 172.457961 
L 500.953186 220.0701 
L 501.528407 249.457115 
L 502.103627 223.578861 
L 503.254069 87.240587 
L 503.829289 84.424464 
L 504.40451 153.267227 
L 504.979731 250.085826 
L 505.554951 296.926315 
L 506.130172 251.191352 
L 506.705393 151.137908 
L 507.280613 76.080713 
L 507.855834 77.479469 
L 509.006275 235.136081 
L 509.581496 267.311505 
L 510.156717 230.442375 
L 510.731937 165.118784 
L 511.307158 122.517317 
L 511.882379 125.661376 
L 513.03282 198.631301 
L 513.608041 209.940859 
L 514.183261 196.875638 
L 514.758482 176.542687 
L 515.333703 163.906479 
L 515.908923 162.67169 
L 516.484144 167.832101 
L 517.059365 174.945253 
L 518.209806 192.883021 
L 518.785027 195.45128 
L 519.360247 185.611247 
L 520.510689 142.943086 
L 521.085909 144.774044 
L 521.66113 176.252016 
L 522.236351 215.853259 
L 522.811571 231.863262 
L 523.386792 208.630424 
L 524.537233 116.796046 
L 525.112454 119.890311 
L 526.262895 212.501675 
L 526.838116 233.060328 
L 527.413337 217.423427 
L 528.563778 153.146766 
L 529.138999 141.817693 
L 529.714219 144.832288 
L 530.28944 156.901329 
L 530.864661 176.849198 
L 532.015102 225.355096 
L 532.590323 221.519958 
L 533.165543 183.615969 
L 533.740764 134.992757 
L 534.315985 111.708013 
L 534.891205 132.918212 
L 536.041647 237.27722 
L 536.616867 240.081271 
L 537.192088 195.520489 
L 537.767309 141.970495 
L 538.342529 119.331512 
L 538.91775 141.051118 
L 539.492971 188.346442 
L 540.068191 222.288092 
L 540.643412 216.778621 
L 541.793853 147.515375 
L 542.369074 140.038139 
L 542.944295 161.07411 
L 543.519515 191.863151 
L 544.094736 208.204963 
L 544.669957 201.697903 
L 545.820398 165.488668 
L 546.395619 156.308027 
L 546.97084 153.320794 
L 547.54606 156.152156 
L 548.121281 171.457601 
L 549.271722 226.841973 
L 549.846943 225.685899 
L 550.422164 186.61472 
L 550.997384 126.052686 
L 551.572605 89.952595 
L 552.147826 118.358268 
L 553.298267 266.350332 
L 553.873488 273.520154 
L 554.448708 210.932513 
L 555.023929 121.920293 
L 555.59915 76.14811 
L 556.17437 107.678729 
L 556.749591 184.13624 
L 557.324812 244.298163 
L 557.900032 250.569682 
L 558.475253 207.171462 
L 559.050474 152.592746 
L 559.625694 127.502343 
L 560.200915 141.155887 
L 560.776136 172.550427 
L 561.351356 196.082154 
L 561.926577 200.256092 
L 562.501798 190.078064 
L 563.077018 177.55739 
L 563.652239 169.906445 
L 564.22746 167.354984 
L 564.80268 168.527254 
L 565.377901 172.964652 
L 566.528342 190.454033 
L 567.103563 192.973907 
L 567.678784 181.349325 
L 568.254004 161.092166 
L 568.829225 148.462868 
L 569.404446 156.245658 
L 570.554887 213.899828 
L 571.130108 219.494754 
L 571.705328 192.267839 
L 572.280549 152.735388 
L 572.85577 130.31409 
L 573.43099 139.290375 
L 574.581432 203.609939 
L 575.156652 215.410143 
L 575.731873 207.179158 
L 576.882314 171.414798 
L 578.032756 134.632632 
L 578.607976 133.254547 
L 579.183197 163.580404 
L 579.758418 215.474523 
L 580.333638 252.086636 
L 580.908859 241.472986 
L 581.48408 180.88431 
L 582.0593 106.7251 
L 582.634521 79.254446 
L 583.209742 126.973572 
L 583.784962 212.871156 
L 584.360183 270.268963 
L 584.935404 258.595054 
L 586.085845 109.560335 
L 586.661066 90.079846 
L 587.236286 140.138079 
L 587.811507 213.057406 
L 588.386728 251.39606 
L 588.961948 230.125505 
L 590.11239 117.334223 
L 590.68761 118.092197 
L 591.838052 216.273137 
L 592.413272 233.95008 
L 592.988493 209.887846 
L 593.563714 166.003859 
L 594.138934 136.361738 
L 594.714155 137.602663 
L 595.864596 184.155001 
L 596.439817 199.78818 
L 597.015038 206.919424 
L 597.590258 206.993009 
L 598.165479 194.068267 
L 599.31592 133.543301 
L 599.891141 123.942228 
L 600.466362 148.932641 
L 601.616803 241.232064 
L 602.192024 239.175927 
L 603.342465 139.857121 
L 603.917686 115.74132 
L 604.492906 132.548027 
L 605.643348 208.409168 
L 606.218568 217.319162 
L 606.793789 204.890649 
L 607.94423 168.397438 
L 608.519451 155.637921 
L 609.094672 147.993397 
L 609.669892 152.331001 
L 610.245113 173.688645 
L 610.820334 202.09037 
L 611.395554 217.549471 
L 611.970775 206.548082 
L 613.121216 136.579121 
L 613.696437 131.710885 
L 614.271658 165.112849 
L 614.846878 210.215531 
L 615.422099 230.722529 
L 615.99732 208.735042 
L 616.57254 156.784187 
L 617.147761 115.599986 
L 617.722982 123.887908 
L 618.873423 234.66329 
L 619.448644 249.080894 
L 620.023864 209.736754 
L 620.599085 143.92634 
L 621.174306 102.905051 
L 621.749526 117.957401 
L 622.899968 221.246343 
L 623.475188 236.064059 
L 624.050409 215.497408 
L 624.62563 180.795299 
L 625.20085 153.866263 
L 625.776071 140.605337 
L 626.351292 138.719304 
L 626.926512 149.29503 
L 627.501733 175.266313 
L 628.076954 212.893136 
L 628.652174 241.236088 
L 629.227395 230.405155 
L 630.377836 117.278393 
L 630.953057 95.792064 
L 631.528278 130.687142 
L 632.103498 201.692119 
L 632.678719 255.96855 
L 633.25394 249.265484 
L 634.404381 127.117773 
L 634.979602 107.039958 
L 635.554822 140.157896 
L 636.130043 198.844359 
L 636.705264 235.170283 
L 637.280485 221.708169 
L 638.430926 135.579219 
L 639.006147 131.405985 
L 639.581367 162.39224 
L 640.156588 202.562959 
L 640.731809 220.035848 
L 641.307029 204.912428 
L 641.88225 174.19672 
L 642.457471 151.342466 
L 643.032691 147.29759 
L 643.607912 157.828803 
L 645.333574 200.960198 
L 645.908795 209.025154 
L 646.484015 202.538716 
L 647.059236 177.460699 
L 647.634457 142.523107 
L 648.209677 122.652113 
L 648.784898 139.984422 
L 649.935339 228.070877 
L 650.51056 236.235068 
L 651.085781 206.539934 
L 651.661001 160.388764 
L 652.236222 130.54782 
L 652.811443 132.639114 
L 654.537105 199.872578 
L 655.112325 209.771711 
L 655.687546 211.805516 
L 656.262767 198.882484 
L 657.413208 132.893466 
L 657.988429 120.860035 
L 658.563649 146.044242 
L 659.714091 245.679315 
L 660.289311 241.961872 
L 661.439753 121.068767 
L 662.014973 97.853734 
L 662.590194 135.934265 
L 663.165415 211.472903 
L 663.740635 264.280112 
L 664.315856 245.261851 
L 665.466297 94.67145 
L 666.041518 84.510472 
L 666.616739 148.009794 
L 667.191959 241.195851 
L 667.76718 288.002138 
L 668.342401 246.690283 
L 668.917621 152.143142 
L 669.492842 79.757918 
L 670.068063 79.892211 
L 670.643283 148.870273 
L 671.218504 233.398323 
L 671.793725 269.525072 
L 672.368945 238.484345 
L 672.944166 175.646985 
L 673.519387 128.665962 
L 674.094607 120.498903 
L 674.669828 143.600115 
L 675.245049 174.456417 
L 675.820269 196.442029 
L 676.39549 206.974298 
L 676.970711 207.57424 
L 677.545931 198.23798 
L 678.121152 179.174532 
L 678.696373 155.474255 
L 679.271593 141.148342 
L 679.846814 148.576841 
L 680.997255 197.087237 
L 681.572476 206.445125 
L 682.147697 198.380873 
L 683.298138 166.947026 
L 683.873359 161.034174 
L 684.448579 161.981516 
L 685.0238 167.130409 
L 685.599021 175.638012 
L 686.749462 196.834143 
L 687.324683 195.720369 
L 687.899903 179.309766 
L 688.475124 157.321408 
L 689.050345 147.345372 
L 689.625565 160.677569 
L 690.776007 222.251275 
L 691.351227 216.225607 
L 692.501669 120.25949 
L 693.076889 106.997709 
L 693.65211 149.979923 
L 694.227331 227.815871 
L 694.802551 280.391715 
L 695.377772 254.093985 
L 696.528213 73.728327 
L 697.103434 58.614614 
L 697.678655 130.672556 
L 698.253875 241.860775 
L 698.829096 305.997359 
L 699.404317 272.133468 
L 700.554758 88.430611 
L 701.129979 72.944198 
L 701.705199 128.205644 
L 702.28042 206.985615 
L 702.855641 250.429354 
L 703.430861 237.301362 
L 704.581303 153.30837 
L 705.156523 140.590298 
L 705.731744 151.118494 
L 706.306965 169.176335 
L 706.882185 183.055461 
L 707.457406 190.49583 
L 708.032627 192.644815 
L 708.607847 189.635904 
L 709.183068 180.838379 
L 709.758289 167.740007 
L 710.333509 158.428694 
L 710.90873 162.859297 
L 712.059171 197.484784 
L 712.634392 200.173756 
L 713.209613 183.697249 
L 713.784833 157.535371 
L 714.360054 143.087338 
L 714.935275 155.720156 
L 716.085716 212.991315 
L 716.660937 214.383332 
L 717.236157 190.48909 
L 717.811378 158.363811 
L 718.386599 140.839721 
L 718.961819 146.339434 
L 720.112261 184.455424 
L 720.687481 198.512299 
L 721.262702 208.31637 
L 721.837923 211.527575 
L 722.413143 196.99957 
L 723.563585 121.876032 
L 724.138805 111.409249 
L 724.714026 145.433839 
L 725.289247 211.550913 
L 725.864467 264.740831 
L 726.439688 257.250618 
L 727.59013 112.621404 
L 728.16535 82.913545 
L 728.740571 119.103667 
L 729.315792 194.818093 
L 729.891012 252.453804 
L 730.466233 249.824282 
L 731.616674 140.991718 
L 732.191895 119.595068 
L 732.767116 140.781779 
L 733.342336 182.417445 
L 733.917557 210.81341 
L 734.492778 208.959969 
L 735.643219 164.544444 
L 736.21844 156.63732 
L 736.79366 162.316191 
L 737.944102 182.455368 
L 738.519322 190.962585 
L 739.094543 197.335804 
L 739.669764 195.582052 
L 740.244984 179.87969 
L 740.820205 152.035507 
L 741.395426 129.642576 
L 741.970646 139.012736 
L 743.121088 236.853217 
L 743.696308 252.994495 
L 744.271529 214.930814 
L 744.84675 141.017118 
L 745.42197 84.665889 
L 745.997191 94.95613 
L 747.147632 242.090129 
L 747.722853 269.918393 
L 748.298074 234.892644 
L 748.873294 165.522669 
L 749.448515 113.707817 
L 750.023736 111.500286 
L 751.174177 189.63017 
L 751.749398 212.284041 
L 752.324618 212.346358 
L 752.899839 199.975788 
L 754.625501 152.724625 
L 755.200722 147.362322 
L 755.775942 157.139183 
L 756.926384 205.607531 
L 757.501604 211.746166 
L 758.076825 192.281621 
L 758.652046 162.199201 
L 759.227266 144.436753 
L 759.802487 151.822349 
L 760.952928 207.104064 
L 761.528149 209.638525 
L 762.10337 184.582173 
L 762.67859 153.095816 
L 763.253811 139.77735 
L 763.829032 154.22322 
L 764.404252 186.176483 
L 764.979473 211.473355 
L 765.554694 212.021692 
L 767.280356 152.464791 
L 767.855576 149.361623 
L 768.430797 153.251233 
L 769.006018 164.118681 
L 769.581238 187.205306 
L 770.156459 217.495553 
L 770.73168 233.939015 
L 771.3069 216.430516 
L 772.457342 102.045477 
L 773.032562 84.420943 
L 773.607783 137.20738 
L 774.183004 226.196161 
L 774.758224 284.936542 
L 775.333445 270.181949 
L 776.483886 96.191422 
L 777.059107 65.95293 
L 777.634328 118.733482 
L 778.209548 206.768534 
L 778.784769 263.202752 
L 779.35999 253.882738 
L 780.510431 128.60304 
L 781.085652 110.78255 
L 781.660872 144.279626 
L 782.236093 194.229167 
L 782.811314 222.037966 
L 783.386534 212.896506 
L 784.536976 150.643239 
L 785.112196 146.048467 
L 785.687417 163.143626 
L 786.262638 184.636896 
L 786.837858 196.652672 
L 787.413079 196.873224 
L 787.9883 190.762856 
L 788.56352 181.84485 
L 789.713962 152.295089 
L 790.289182 144.417288 
L 790.864403 155.467817 
L 792.014844 222.177238 
L 792.590065 232.884792 
L 793.165286 203.350407 
L 793.740506 152.653153 
L 794.315727 117.499197 
L 794.890948 121.066755 
L 795.466168 159.847922 
L 796.041389 206.278843 
L 796.61661 228.818791 
L 797.19183 218.935905 
L 798.342272 166.617431 
L 798.917492 150.082378 
L 799.492713 141.364518 
L 800.067934 141.543877 
L 800.643154 159.036633 
L 801.793596 228.815271 
L 802.368816 236.005714 
L 802.944037 204.563367 
L 803.519258 147.673408 
L 804.094478 104.720768 
L 804.669699 113.599679 
L 805.82014 231.439762 
L 806.395361 251.525323 
L 806.970582 216.845566 
L 807.545802 151.540032 
L 808.121023 106.965016 
L 808.696244 120.234342 
L 809.846685 233.220775 
L 810.421906 243.17453 
L 810.997126 201.870522 
L 811.572347 140.050311 
L 812.147568 107.217003 
L 812.722788 129.315345 
L 813.87323 230.479595 
L 814.44845 236.325603 
L 815.023671 204.587007 
L 815.598892 161.62647 
L 816.174112 136.184995 
L 816.749333 136.301432 
L 817.324554 151.787593 
L 819.625437 228.359581 
L 820.200657 214.343246 
L 821.351099 117.075194 
L 821.926319 98.794789 
L 822.50154 131.822594 
L 823.651981 260.151743 
L 824.227202 260.274467 
L 824.802423 201.706705 
L 825.377643 131.54229 
L 825.952864 98.830499 
L 826.528085 120.812756 
L 827.678526 224.633939 
L 828.253747 230.768299 
L 828.828967 200.714397 
L 829.404188 164.077236 
L 829.979409 146.134726 
L 830.554629 152.799869 
L 831.12985 172.644105 
L 831.705071 188.482445 
L 832.280291 191.745003 
L 832.855512 185.799156 
L 833.430733 178.017095 
L 834.005953 172.421787 
L 834.581174 168.440291 
L 835.156395 165.440081 
L 835.731615 167.945168 
L 836.306836 180.65385 
L 836.882057 198.328162 
L 837.457277 206.743234 
L 838.032498 194.629781 
L 839.182939 131.187747 
L 839.75816 128.147552 
L 840.333381 163.882889 
L 840.908601 213.900583 
L 841.483822 241.336682 
L 842.059043 226.633895 
L 843.209484 130.771641 
L 843.784705 116.578261 
L 844.359925 140.100205 
L 844.935146 178.06442 
L 845.510367 206.36983 
L 846.085587 216.50566 
L 846.660808 213.196275 
L 847.236029 201.350754 
L 847.811249 178.025963 
L 848.38647 144.584676 
L 848.961691 118.718896 
L 849.536911 122.545484 
L 850.112132 164.316096 
L 850.687353 226.807972 
L 851.262573 265.47416 
L 851.837794 241.926664 
L 852.988235 98.637359 
L 853.563456 84.535117 
L 854.138677 137.280109 
L 854.713897 221.861172 
L 855.289118 272.505665 
L 855.864339 246.924666 
L 857.01478 99.96218 
L 857.590001 92.881383 
L 858.165221 151.259375 
L 858.740442 231.996549 
L 859.315663 269.512497 
L 859.890883 232.476884 
L 860.466104 153.520472 
L 861.041325 95.514425 
L 861.616545 98.469871 
L 862.766987 228.256975 
L 863.342207 257.278282 
L 863.917428 229.066252 
L 864.492649 173.570971 
L 865.067869 131.930783 
L 865.64309 124.287768 
L 866.218311 144.55822 
L 866.793531 172.667533 
L 867.368752 194.36527 
L 867.943973 207.455287 
L 868.519193 211.871707 
L 869.094414 204.601794 
L 869.669635 183.493446 
L 870.244855 153.488936 
L 870.820076 131.552148 
L 871.395297 136.24178 
L 872.545738 200.954314 
L 873.120959 218.362319 
L 873.696179 211.851236 
L 874.846621 167.450448 
L 875.421841 154.17227 
L 875.997062 149.656263 
L 876.572283 152.742128 
L 877.147503 164.992791 
L 878.297945 212.199491 
L 878.873165 221.885616 
L 879.448386 200.656908 
L 880.023607 157.781675 
L 880.598827 123.87131 
L 881.174048 125.407377 
L 881.749269 166.817109 
L 882.324489 223.145755 
L 882.89971 248.427035 
L 883.474931 215.198393 
L 884.050151 146.545953 
L 884.625372 97.069605 
L 885.200593 107.026881 
L 886.351034 258.708725 
L 886.926255 283.856668 
L 887.501475 222.25716 
L 888.076696 119.729361 
L 888.651917 55.8 
L 889.227137 78.425051 
L 890.377579 279.802738 
L 890.952799 307.8 
L 891.52802 239.930381 
L 892.103241 134.553012 
L 892.678461 69.053231 
L 893.253682 80.656221 
L 894.404123 227.118555 
L 894.979344 255.359958 
L 895.554565 231.003185 
L 896.129785 185.403722 
L 896.705006 151.185288 
L 897.280227 140.647536 
L 897.855447 147.356638 
L 899.005889 175.54957 
L 899.581109 191.551008 
L 900.15633 202.982033 
L 900.731551 203.288391 
L 901.306771 189.744143 
L 901.881992 167.632321 
L 902.457213 151.269837 
L 903.032433 152.989186 
L 904.182875 189.188211 
L 904.758095 196.83862 
L 905.333316 189.675638 
L 905.908537 174.411336 
L 906.483757 163.687285 
L 907.058978 165.333753 
L 908.209419 186.093695 
L 908.78464 189.036163 
L 909.359861 184.965083 
L 911.660744 159.396708 
L 912.235964 159.079083 
L 912.811185 172.173678 
L 913.961626 226.564736 
L 914.536847 225.326326 
L 915.112068 181.691404 
L 915.687288 120.610059 
L 916.262509 88.723842 
L 916.83773 115.988781 
L 917.988171 274.28014 
L 918.563392 288.920056 
L 919.138612 220.833053 
L 919.713833 121.814167 
L 920.289054 64.119609 
L 920.864274 84.370646 
L 922.014716 249.232288 
L 922.589936 273.394914 
L 923.165157 230.211009 
L 923.740378 162.712279 
L 924.315598 119.704715 
L 924.890819 121.370045 
L 926.04126 191.396345 
L 926.616481 207.095011 
L 927.191702 201.55169 
L 928.342143 175.113727 
L 928.917364 167.759673 
L 929.492584 163.040768 
L 930.067805 162.146741 
L 930.643026 170.419423 
L 931.793467 202.162596 
L 932.368688 201.211079 
L 932.943908 179.543832 
L 933.519129 147.081162 
L 934.09435 130.058632 
L 934.66957 150.422888 
L 935.820012 238.476298 
L 936.395232 238.007028 
L 936.970453 192.248928 
L 937.545674 128.760168 
L 938.120894 95.743276 
L 938.696115 121.065749 
L 939.846556 237.504059 
L 940.421777 248.321411 
L 940.996998 215.876295 
L 941.572218 166.918005 
L 942.147439 134.24273 
L 942.72266 130.25992 
L 943.29788 145.615762 
L 945.023542 208.4738 
L 945.598763 222.919721 
L 946.173984 216.596647 
L 946.749204 182.733359 
L 947.324425 138.992819 
L 947.899646 115.23131 
L 948.474866 129.507781 
L 949.625308 226.087016 
L 950.200528 240.394118 
L 950.775749 209.611867 
L 951.35097 160.372267 
L 951.92619 129.004007 
L 952.501411 133.995068 
L 953.651852 204.322445 
L 954.227073 214.864673 
L 954.802294 195.843797 
L 955.377514 166.738344 
L 955.952735 149.983343 
L 956.527956 154.42989 
L 957.678397 191.094413 
L 958.253618 197.57049 
L 958.828838 193.761607 
L 959.404059 185.569501 
L 959.97928 175.482927 
L 961.129721 146.454815 
L 961.704942 140.874073 
L 962.280162 162.204231 
L 963.430604 245.66825 
L 964.005824 243.996381 
L 964.581045 191.726997 
L 965.156266 113.861725 
L 965.731486 68.204219 
L 966.306707 100.156829 
L 967.457148 275.505875 
L 968.032369 292.265805 
L 968.60759 231.03437 
L 969.18281 133.560855 
L 969.758031 71.545945 
L 970.333252 88.042319 
L 971.483693 230.410688 
L 972.058914 253.596046 
L 972.634134 225.276583 
L 973.209355 174.171083 
L 973.784576 139.042311 
L 974.359796 137.737811 
L 975.510238 182.329023 
L 976.085458 192.968073 
L 976.660679 191.416313 
L 978.386341 173.350434 
L 978.961562 168.13358 
L 979.536782 166.256802 
L 980.112003 171.451415 
L 981.262444 198.110527 
L 981.837665 198.34144 
L 982.412886 178.737342 
L 982.988106 151.53797 
L 983.563327 138.168905 
L 984.138548 151.591536 
L 985.288989 221.980175 
L 985.86421 227.482453 
L 986.43943 198.01094 
L 987.014651 156.357871 
L 987.589872 130.838234 
L 988.165092 133.83442 
L 989.890754 204.366505 
L 990.465975 213.15297 
L 991.041196 213.184808 
L 991.616416 200.539415 
L 992.191637 171.422947 
L 992.766858 131.590374 
L 993.342078 105.780021 
L 993.917299 124.434132 
L 995.06774 251.995096 
L 995.642961 272.120391 
L 996.218182 228.933971 
L 996.218182 228.933971 
" style="fill:none;stroke:#4c72b0;stroke-linecap:round;stroke-width:1.4;"/>
   </g>
   <g id="patch_3">
    <path d="M 144 320.4 
L 144 43.2 
" style="fill:none;"/>
   </g>
   <g id="patch_4">
    <path d="M 1036.8 320.4 
L 1036.8 43.2 
" style="fill:none;"/>
   </g>
   <g id="patch_5">
    <path d="M 144 320.4 
L 1036.8 320.4 
" style="fill:none;"/>
   </g>
   <g id="patch_6">
    <path d="M 144 43.2 
L 1036.8 43.2 
" style="fill:none;"/>
   </g>
  </g>
 </g>
 <defs>
  <clipPath id="p5409cc36f1">
   <rect height="277.2" width="892.8" x="144" y="43.2"/>
  </clipPath>
 </defs>
</svg>
