<?xml version="1.0" encoding="utf-8" standalone="no"?>
<!DOCTYPE svg PUBLIC "-//W3C//DTD SVG 1.1//EN"
  "http://www.w3.org/Graphics/SVG/1.1/DTD/svg11.dtd">
<!-- Created with matplotlib (http://matplotlib.org/) -->
<svg height="360pt" version="1.1" viewBox="0 0 1152 360" width="1152pt" xmlns="http://www.w3.org/2000/svg" xmlns:xlink="http://www.w3.org/1999/xlink">
 <defs>
  <style type="text/css">
*{stroke-linecap:butt;stroke-linejoin:round;}
  </style>
 </defs>
 <g id="figure_1">
  <g id="patch_1">
   <path d="M 0 360 
L 1152 360 
L 1152 0 
L 0 0 
z
" style="fill:#ffffff;"/>
  </g>
  <g id="axes_1">
   <g id="patch_2">
    <path d="M 144 320.4 
L 1036.8 320.4 
L 1036.8 43.2 
L 144 43.2 
z
" style="fill:#eaeaf2;"/>
   </g>
   <g id="matplotlib.axis_1">
    <g id="xtick_1">
     <g id="line2d_1">
      <path clip-path="url(#p4338bed65f)" d="M 184.581818 320.4 
L 184.581818 43.2 
" style="fill:none;stroke:#ffffff;stroke-linecap:round;stroke-width:0.8;"/>
     </g>
     <g id="line2d_2"/>
     <g id="text_1">
      <!-- 0.000 -->
      <defs>
       <path d="M 51.703125 34.421875 
Q 51.703125 24.515625 49.828125 17.75 
Q 47.953125 10.984375 44.703125 6.8125 
Q 41.453125 2.640625 37.0625 0.828125 
Q 32.671875 -0.984375 27.6875 -0.984375 
Q 22.65625 -0.984375 18.3125 0.828125 
Q 13.96875 2.640625 10.765625 6.78125 
Q 7.5625 10.9375 5.734375 17.703125 
Q 3.90625 24.46875 3.90625 34.421875 
Q 3.90625 44.828125 5.734375 51.640625 
Q 7.5625 58.453125 10.78125 62.5 
Q 14.015625 66.546875 18.40625 68.1875 
Q 22.796875 69.828125 27.984375 69.828125 
Q 32.90625 69.828125 37.21875 68.1875 
Q 41.546875 66.546875 44.765625 62.5 
Q 48 58.453125 49.84375 51.640625 
Q 51.703125 44.828125 51.703125 34.421875 
M 42.78125 34.421875 
Q 42.78125 42.625 41.796875 48.0625 
Q 40.828125 53.515625 38.921875 56.765625 
Q 37.015625 60.015625 34.25 61.359375 
Q 31.5 62.703125 27.984375 62.703125 
Q 24.265625 62.703125 21.4375 61.328125 
Q 18.609375 59.96875 16.671875 56.71875 
Q 14.75 53.46875 13.765625 48.015625 
Q 12.796875 42.578125 12.796875 34.421875 
Q 12.796875 26.515625 13.796875 21.09375 
Q 14.796875 15.671875 16.71875 12.375 
Q 18.65625 9.078125 21.4375 7.640625 
Q 24.21875 6.203125 27.78125 6.203125 
Q 31.25 6.203125 34.03125 7.640625 
Q 36.8125 9.078125 38.734375 12.375 
Q 40.671875 15.671875 41.71875 21.09375 
Q 42.78125 26.515625 42.78125 34.421875 
" id="LiberationSans-30"/>
       <path d="M 9.125 0 
L 9.125 10.6875 
L 18.65625 10.6875 
L 18.65625 0 
z
" id="LiberationSans-2e"/>
      </defs>
      <g style="fill:#262626;" transform="translate(174.573068 331.7975)scale(0.08 -0.08)">
       <use xlink:href="#LiberationSans-30"/>
       <use x="55.615234" xlink:href="#LiberationSans-2e"/>
       <use x="83.398438" xlink:href="#LiberationSans-30"/>
       <use x="139.013672" xlink:href="#LiberationSans-30"/>
       <use x="194.628906" xlink:href="#LiberationSans-30"/>
      </g>
     </g>
    </g>
    <g id="xtick_2">
     <g id="line2d_3">
      <path clip-path="url(#p4338bed65f)" d="M 311.238448 320.4 
L 311.238448 43.2 
" style="fill:none;stroke:#ffffff;stroke-linecap:round;stroke-width:0.8;"/>
     </g>
     <g id="line2d_4"/>
     <g id="text_2">
      <!-- 0.005 -->
      <defs>
       <path d="M 51.421875 22.40625 
Q 51.421875 17.234375 49.859375 12.9375 
Q 48.296875 8.640625 45.21875 5.53125 
Q 42.140625 2.4375 37.578125 0.71875 
Q 33.015625 -0.984375 27 -0.984375 
Q 21.578125 -0.984375 17.546875 0.28125 
Q 13.53125 1.5625 10.734375 3.78125 
Q 7.953125 6 6.3125 8.984375 
Q 4.6875 11.96875 4 15.375 
L 12.890625 16.40625 
Q 13.421875 14.453125 14.390625 12.625 
Q 15.375 10.796875 17.0625 9.34375 
Q 18.75 7.90625 21.21875 7.046875 
Q 23.6875 6.203125 27.203125 6.203125 
Q 30.609375 6.203125 33.390625 7.25 
Q 36.1875 8.296875 38.15625 10.34375 
Q 40.140625 12.40625 41.203125 15.375 
Q 42.28125 18.359375 42.28125 22.21875 
Q 42.28125 25.390625 41.25 28.046875 
Q 40.234375 30.71875 38.328125 32.640625 
Q 36.421875 34.578125 33.65625 35.640625 
Q 30.90625 36.71875 27.390625 36.71875 
Q 25.203125 36.71875 23.34375 36.328125 
Q 21.484375 35.9375 19.890625 35.25 
Q 18.3125 34.578125 17.015625 33.671875 
Q 15.71875 32.765625 14.59375 31.78125 
L 6 31.78125 
L 8.296875 68.796875 
L 47.40625 68.796875 
L 47.40625 61.328125 
L 16.3125 61.328125 
L 14.984375 39.5 
Q 17.328125 41.3125 20.84375 42.59375 
Q 24.359375 43.890625 29.203125 43.890625 
Q 34.328125 43.890625 38.421875 42.328125 
Q 42.53125 40.765625 45.40625 37.90625 
Q 48.296875 35.0625 49.859375 31.109375 
Q 51.421875 27.15625 51.421875 22.40625 
" id="LiberationSans-35"/>
      </defs>
      <g style="fill:#262626;" transform="translate(301.229698 331.7975)scale(0.08 -0.08)">
       <use xlink:href="#LiberationSans-30"/>
       <use x="55.615234" xlink:href="#LiberationSans-2e"/>
       <use x="83.398438" xlink:href="#LiberationSans-30"/>
       <use x="139.013672" xlink:href="#LiberationSans-30"/>
       <use x="194.628906" xlink:href="#LiberationSans-35"/>
      </g>
     </g>
    </g>
    <g id="xtick_3">
     <g id="line2d_5">
      <path clip-path="url(#p4338bed65f)" d="M 437.895078 320.4 
L 437.895078 43.2 
" style="fill:none;stroke:#ffffff;stroke-linecap:round;stroke-width:0.8;"/>
     </g>
     <g id="line2d_6"/>
     <g id="text_3">
      <!-- 0.010 -->
      <defs>
       <path d="M 7.625 0 
L 7.625 7.46875 
L 25.140625 7.46875 
L 25.140625 60.40625 
L 9.625 49.3125 
L 9.625 57.625 
L 25.875 68.796875 
L 33.984375 68.796875 
L 33.984375 7.46875 
L 50.734375 7.46875 
L 50.734375 0 
z
" id="LiberationSans-31"/>
      </defs>
      <g style="fill:#262626;" transform="translate(427.886328 331.7975)scale(0.08 -0.08)">
       <use xlink:href="#LiberationSans-30"/>
       <use x="55.615234" xlink:href="#LiberationSans-2e"/>
       <use x="83.398438" xlink:href="#LiberationSans-30"/>
       <use x="139.013672" xlink:href="#LiberationSans-31"/>
       <use x="194.628906" xlink:href="#LiberationSans-30"/>
      </g>
     </g>
    </g>
    <g id="xtick_4">
     <g id="line2d_7">
      <path clip-path="url(#p4338bed65f)" d="M 564.551708 320.4 
L 564.551708 43.2 
" style="fill:none;stroke:#ffffff;stroke-linecap:round;stroke-width:0.8;"/>
     </g>
     <g id="line2d_8"/>
     <g id="text_4">
      <!-- 0.015 -->
      <g style="fill:#262626;" transform="translate(554.542958 331.7975)scale(0.08 -0.08)">
       <use xlink:href="#LiberationSans-30"/>
       <use x="55.615234" xlink:href="#LiberationSans-2e"/>
       <use x="83.398438" xlink:href="#LiberationSans-30"/>
       <use x="139.013672" xlink:href="#LiberationSans-31"/>
       <use x="194.628906" xlink:href="#LiberationSans-35"/>
      </g>
     </g>
    </g>
    <g id="xtick_5">
     <g id="line2d_9">
      <path clip-path="url(#p4338bed65f)" d="M 691.208338 320.4 
L 691.208338 43.2 
" style="fill:none;stroke:#ffffff;stroke-linecap:round;stroke-width:0.8;"/>
     </g>
     <g id="line2d_10"/>
     <g id="text_5">
      <!-- 0.020 -->
      <defs>
       <path d="M 5.03125 0 
L 5.03125 6.203125 
Q 7.515625 11.921875 11.109375 16.28125 
Q 14.703125 20.65625 18.65625 24.1875 
Q 22.609375 27.734375 26.484375 30.765625 
Q 30.375 33.796875 33.5 36.8125 
Q 36.625 39.84375 38.546875 43.15625 
Q 40.484375 46.484375 40.484375 50.6875 
Q 40.484375 53.609375 39.59375 55.828125 
Q 38.71875 58.0625 37.0625 59.5625 
Q 35.40625 61.078125 33.078125 61.828125 
Q 30.765625 62.59375 27.9375 62.59375 
Q 25.296875 62.59375 22.96875 61.859375 
Q 20.65625 61.140625 18.84375 59.671875 
Q 17.046875 58.203125 15.890625 56.03125 
Q 14.75 53.859375 14.40625 50.984375 
L 5.421875 51.8125 
Q 5.859375 55.515625 7.46875 58.78125 
Q 9.078125 62.0625 11.90625 64.53125 
Q 14.75 67 18.71875 68.40625 
Q 22.703125 69.828125 27.9375 69.828125 
Q 33.0625 69.828125 37.0625 68.609375 
Q 41.0625 67.390625 43.8125 64.984375 
Q 46.578125 62.59375 48.046875 59.078125 
Q 49.515625 55.5625 49.515625 50.984375 
Q 49.515625 47.515625 48.265625 44.390625 
Q 47.015625 41.265625 44.9375 38.421875 
Q 42.875 35.59375 40.140625 32.953125 
Q 37.40625 30.328125 34.421875 27.8125 
Q 31.453125 25.296875 28.421875 22.828125 
Q 25.390625 20.359375 22.71875 17.859375 
Q 20.0625 15.375 17.96875 12.8125 
Q 15.875 10.25 14.703125 7.46875 
L 50.59375 7.46875 
L 50.59375 0 
z
" id="LiberationSans-32"/>
      </defs>
      <g style="fill:#262626;" transform="translate(681.199588 331.7975)scale(0.08 -0.08)">
       <use xlink:href="#LiberationSans-30"/>
       <use x="55.615234" xlink:href="#LiberationSans-2e"/>
       <use x="83.398438" xlink:href="#LiberationSans-30"/>
       <use x="139.013672" xlink:href="#LiberationSans-32"/>
       <use x="194.628906" xlink:href="#LiberationSans-30"/>
      </g>
     </g>
    </g>
    <g id="xtick_6">
     <g id="line2d_11">
      <path clip-path="url(#p4338bed65f)" d="M 817.864968 320.4 
L 817.864968 43.2 
" style="fill:none;stroke:#ffffff;stroke-linecap:round;stroke-width:0.8;"/>
     </g>
     <g id="line2d_12"/>
     <g id="text_6">
      <!-- 0.025 -->
      <g style="fill:#262626;" transform="translate(807.856218 331.7975)scale(0.08 -0.08)">
       <use xlink:href="#LiberationSans-30"/>
       <use x="55.615234" xlink:href="#LiberationSans-2e"/>
       <use x="83.398438" xlink:href="#LiberationSans-30"/>
       <use x="139.013672" xlink:href="#LiberationSans-32"/>
       <use x="194.628906" xlink:href="#LiberationSans-35"/>
      </g>
     </g>
    </g>
    <g id="xtick_7">
     <g id="line2d_13">
      <path clip-path="url(#p4338bed65f)" d="M 944.521598 320.4 
L 944.521598 43.2 
" style="fill:none;stroke:#ffffff;stroke-linecap:round;stroke-width:0.8;"/>
     </g>
     <g id="line2d_14"/>
     <g id="text_7">
      <!-- 0.030 -->
      <defs>
       <path d="M 51.21875 19 
Q 51.21875 14.265625 49.671875 10.546875 
Q 48.140625 6.84375 45.1875 4.265625 
Q 42.234375 1.703125 37.859375 0.359375 
Q 33.5 -0.984375 27.875 -0.984375 
Q 21.484375 -0.984375 17.109375 0.609375 
Q 12.75 2.203125 9.90625 4.8125 
Q 7.078125 7.421875 5.65625 10.765625 
Q 4.25 14.109375 3.8125 17.671875 
L 12.890625 18.5 
Q 13.28125 15.765625 14.328125 13.515625 
Q 15.375 11.28125 17.1875 9.671875 
Q 19 8.0625 21.625 7.171875 
Q 24.265625 6.296875 27.875 6.296875 
Q 34.515625 6.296875 38.296875 9.5625 
Q 42.09375 12.84375 42.09375 19.28125 
Q 42.09375 23.09375 40.40625 25.40625 
Q 38.71875 27.734375 36.203125 29.03125 
Q 33.6875 30.328125 30.734375 30.765625 
Q 27.78125 31.203125 25.296875 31.203125 
L 20.3125 31.203125 
L 20.3125 38.8125 
L 25.09375 38.8125 
Q 27.59375 38.8125 30.265625 39.328125 
Q 32.953125 39.84375 35.171875 41.1875 
Q 37.40625 42.53125 38.84375 44.828125 
Q 40.28125 47.125 40.28125 50.6875 
Q 40.28125 56.203125 37.03125 59.390625 
Q 33.796875 62.59375 27.390625 62.59375 
Q 21.578125 62.59375 17.984375 59.609375 
Q 14.40625 56.640625 13.8125 51.21875 
L 4.984375 51.90625 
Q 5.515625 56.453125 7.46875 59.8125 
Q 9.421875 63.1875 12.421875 65.40625 
Q 15.4375 67.625 19.28125 68.71875 
Q 23.140625 69.828125 27.484375 69.828125 
Q 33.25 69.828125 37.390625 68.375 
Q 41.546875 66.9375 44.1875 64.46875 
Q 46.828125 62.015625 48.0625 58.6875 
Q 49.3125 55.375 49.3125 51.609375 
Q 49.3125 48.578125 48.484375 45.9375 
Q 47.65625 43.3125 45.890625 41.203125 
Q 44.140625 39.109375 41.421875 37.59375 
Q 38.71875 36.078125 34.90625 35.296875 
L 34.90625 35.109375 
Q 39.0625 34.671875 42.140625 33.21875 
Q 45.21875 31.78125 47.21875 29.625 
Q 49.21875 27.484375 50.21875 24.75 
Q 51.21875 22.015625 51.21875 19 
" id="LiberationSans-33"/>
      </defs>
      <g style="fill:#262626;" transform="translate(934.512848 331.7975)scale(0.08 -0.08)">
       <use xlink:href="#LiberationSans-30"/>
       <use x="55.615234" xlink:href="#LiberationSans-2e"/>
       <use x="83.398438" xlink:href="#LiberationSans-30"/>
       <use x="139.013672" xlink:href="#LiberationSans-33"/>
       <use x="194.628906" xlink:href="#LiberationSans-30"/>
      </g>
     </g>
    </g>
   </g>
   <g id="matplotlib.axis_2">
    <g id="ytick_1">
     <g id="line2d_15">
      <path clip-path="url(#p4338bed65f)" d="M 144 294.691441 
L 1036.8 294.691441 
" style="fill:none;stroke:#ffffff;stroke-linecap:round;stroke-width:0.8;"/>
     </g>
     <g id="line2d_16"/>
     <g id="text_8">
      <!-- −10 -->
      <defs>
       <path d="M 4.9375 29.6875 
L 4.9375 36.8125 
L 53.515625 36.8125 
L 53.515625 29.6875 
z
" id="LiberationSans-2212"/>
      </defs>
      <g style="fill:#262626;" transform="translate(124.83 297.590191)scale(0.08 -0.08)">
       <use xlink:href="#LiberationSans-2212"/>
       <use x="58.398438" xlink:href="#LiberationSans-31"/>
       <use x="114.013672" xlink:href="#LiberationSans-30"/>
      </g>
     </g>
    </g>
    <g id="ytick_2">
     <g id="line2d_17">
      <path clip-path="url(#p4338bed65f)" d="M 144 254.369604 
L 1036.8 254.369604 
" style="fill:none;stroke:#ffffff;stroke-linecap:round;stroke-width:0.8;"/>
     </g>
     <g id="line2d_18"/>
     <g id="text_9">
      <!-- −5 -->
      <g style="fill:#262626;" transform="translate(129.27875 257.268354)scale(0.08 -0.08)">
       <use xlink:href="#LiberationSans-2212"/>
       <use x="58.398438" xlink:href="#LiberationSans-35"/>
      </g>
     </g>
    </g>
    <g id="ytick_3">
     <g id="line2d_19">
      <path clip-path="url(#p4338bed65f)" d="M 144 214.047767 
L 1036.8 214.047767 
" style="fill:none;stroke:#ffffff;stroke-linecap:round;stroke-width:0.8;"/>
     </g>
     <g id="line2d_20"/>
     <g id="text_10">
      <!-- 0 -->
      <g style="fill:#262626;" transform="translate(133.95125 216.946517)scale(0.08 -0.08)">
       <use xlink:href="#LiberationSans-30"/>
      </g>
     </g>
    </g>
    <g id="ytick_4">
     <g id="line2d_21">
      <path clip-path="url(#p4338bed65f)" d="M 144 173.72593 
L 1036.8 173.72593 
" style="fill:none;stroke:#ffffff;stroke-linecap:round;stroke-width:0.8;"/>
     </g>
     <g id="line2d_22"/>
     <g id="text_11">
      <!-- 5 -->
      <g style="fill:#262626;" transform="translate(133.95125 176.62468)scale(0.08 -0.08)">
       <use xlink:href="#LiberationSans-35"/>
      </g>
     </g>
    </g>
    <g id="ytick_5">
     <g id="line2d_23">
      <path clip-path="url(#p4338bed65f)" d="M 144 133.404093 
L 1036.8 133.404093 
" style="fill:none;stroke:#ffffff;stroke-linecap:round;stroke-width:0.8;"/>
     </g>
     <g id="line2d_24"/>
     <g id="text_12">
      <!-- 10 -->
      <g style="fill:#262626;" transform="translate(129.5025 136.302843)scale(0.08 -0.08)">
       <use xlink:href="#LiberationSans-31"/>
       <use x="55.615234" xlink:href="#LiberationSans-30"/>
      </g>
     </g>
    </g>
    <g id="ytick_6">
     <g id="line2d_25">
      <path clip-path="url(#p4338bed65f)" d="M 144 93.082256 
L 1036.8 93.082256 
" style="fill:none;stroke:#ffffff;stroke-linecap:round;stroke-width:0.8;"/>
     </g>
     <g id="line2d_26"/>
     <g id="text_13">
      <!-- 15 -->
      <g style="fill:#262626;" transform="translate(129.5025 95.981006)scale(0.08 -0.08)">
       <use xlink:href="#LiberationSans-31"/>
       <use x="55.615234" xlink:href="#LiberationSans-35"/>
      </g>
     </g>
    </g>
    <g id="ytick_7">
     <g id="line2d_27">
      <path clip-path="url(#p4338bed65f)" d="M 144 52.760419 
L 1036.8 52.760419 
" style="fill:none;stroke:#ffffff;stroke-linecap:round;stroke-width:0.8;"/>
     </g>
     <g id="line2d_28"/>
     <g id="text_14">
      <!-- 20 -->
      <g style="fill:#262626;" transform="translate(129.5025 55.659169)scale(0.08 -0.08)">
       <use xlink:href="#LiberationSans-32"/>
       <use x="55.615234" xlink:href="#LiberationSans-30"/>
      </g>
     </g>
    </g>
   </g>
   <g id="line2d_29">
    <path clip-path="url(#p4338bed65f)" d="M 184.581818 165.379793 
L 185.156225 168.448395 
L 185.730631 170.518328 
L 186.305038 171.554895 
L 186.879444 171.593319 
L 187.453851 170.736812 
L 188.028257 169.150804 
L 189.17707 164.704534 
L 190.325883 160.401046 
L 190.90029 159.030502 
L 191.474696 158.542369 
L 192.049102 159.163704 
L 192.623509 161.069997 
L 193.197915 164.374725 
L 193.772322 169.122263 
L 194.346728 175.284517 
L 195.495541 191.385768 
L 197.218761 221.649379 
L 198.94198 251.998307 
L 200.090793 268.206936 
L 200.6652 274.412095 
L 201.239606 279.180056 
L 201.814013 282.47031 
L 202.388419 284.314776 
L 202.962826 284.815038 
L 203.537232 284.135799 
L 204.111639 282.494928 
L 205.260452 277.386562 
L 206.409265 271.762155 
L 206.983671 269.448143 
L 207.558078 267.775889 
L 208.132484 266.916644 
L 208.706891 266.980632 
L 209.281297 268.010765 
L 209.855704 269.98014 
L 210.43011 272.793463 
L 211.578923 280.263975 
L 213.302142 292.339819 
L 213.876549 295.450697 
L 214.450955 297.639824 
L 215.025362 298.67381 
L 215.599768 298.369247 
L 216.174175 296.603545 
L 216.748581 293.322483 
L 217.322988 288.54408 
L 217.897394 282.358534 
L 219.046207 266.460201 
L 223.067053 203.433349 
L 223.641459 197.385877 
L 224.215866 192.682182 
L 224.790272 189.371465 
L 225.364679 187.430416 
L 225.939085 186.76547 
L 226.513492 187.218878 
L 227.087898 188.578246 
L 228.236711 192.969205 
L 229.385524 197.670378 
L 229.959931 199.437651 
L 230.534337 200.498346 
L 231.108743 200.673262 
L 231.68315 199.843205 
L 232.257556 197.955755 
L 232.831963 195.028288 
L 233.406369 191.147072 
L 234.555182 181.180768 
L 236.852808 159.448188 
L 237.427215 155.300492 
L 238.001621 152.188656 
L 238.576028 150.304284 
L 239.150434 149.779578 
L 239.724841 150.679325 
L 240.299247 152.996539 
L 240.873654 156.651997 
L 241.44806 161.497702 
L 242.596873 173.870601 
L 244.894499 201.059467 
L 245.468906 206.538205 
L 246.043312 210.94531 
L 246.617719 214.09088 
L 247.192125 215.849458 
L 247.766532 216.166054 
L 248.340938 215.058334 
L 248.915345 212.614868 
L 249.489751 208.989542 
L 250.638564 199.077658 
L 252.93619 176.418128 
L 254.085003 168.027984 
L 254.659409 165.258017 
L 255.233816 163.548351 
L 255.808222 162.895507 
L 256.382629 163.226753 
L 256.957035 164.404349 
L 257.531442 166.233456 
L 259.829068 174.85929 
L 260.403474 175.927213 
L 260.977881 176.038692 
L 261.552287 174.999036 
L 262.126694 172.67152 
L 262.7011 168.985836 
L 263.275507 163.942945 
L 264.42432 150.147635 
L 265.573133 132.658745 
L 267.870759 95.730895 
L 269.019572 81.277582 
L 269.593978 75.950057 
L 270.168384 72.090735 
L 270.742791 69.765235 
L 271.317197 68.966408 
L 271.891604 69.615568 
L 272.46601 71.5676 
L 273.040417 74.619651 
L 274.18923 82.996864 
L 275.912449 96.900319 
L 277.061262 103.924857 
L 277.635669 106.181798 
L 278.210075 107.479042 
L 278.784482 107.81009 
L 279.358888 107.237897 
L 279.933295 105.891126 
L 281.082108 101.669158 
L 282.230921 97.127881 
L 282.805327 95.451262 
L 283.379734 94.542551 
L 283.95414 94.646762 
L 284.528547 95.96425 
L 285.102953 98.638765 
L 285.67736 102.748556 
L 286.251766 108.301044 
L 287.400579 123.404624 
L 288.549392 142.632903 
L 291.421424 193.728904 
L 292.570237 209.015225 
L 293.144644 214.654372 
L 293.71905 218.833246 
L 294.293457 221.548669 
L 294.867863 222.869395 
L 295.44227 222.931495 
L 296.016676 221.930112 
L 296.591083 220.108035 
L 299.463115 208.643812 
L 300.037522 207.756017 
L 300.611928 207.796545 
L 301.186335 208.849029 
L 301.760741 210.928044 
L 302.335148 213.97843 
L 303.483961 222.447112 
L 305.781587 242.347982 
L 306.355993 246.313637 
L 306.9304 249.339122 
L 307.504806 251.215305 
L 308.079213 251.788125 
L 308.653619 250.967911 
L 309.228025 248.735207 
L 309.802432 245.142779 
L 310.376838 240.31367 
L 311.525651 227.750805 
L 314.397684 192.870115 
L 314.97209 187.755491 
L 315.546497 183.852962 
L 316.120903 181.312533 
L 316.69531 180.215384 
L 317.269716 180.570171 
L 317.844123 182.313239 
L 318.418529 185.312746 
L 318.992936 189.376467 
L 320.141749 199.694654 
L 321.864968 216.288827 
L 323.013781 224.851047 
L 323.588188 227.75088 
L 324.162594 229.579974 
L 324.737001 230.310594 
L 325.311407 229.984976 
L 325.885814 228.71261 
L 326.46022 226.663763 
L 327.609033 221.159358 
L 328.757846 215.607675 
L 329.332252 213.525384 
L 329.906659 212.252467 
L 330.481065 212.001911 
L 331.055472 212.933285 
L 331.629878 215.142999 
L 332.204285 218.658003 
L 332.778691 223.433278 
L 333.927504 236.237108 
L 337.373943 282.235025 
L 337.94835 287.814119 
L 338.522756 292.089732 
L 339.097163 294.903911 
L 339.671569 296.166949 
L 340.245976 295.861584 
L 340.820382 294.043302 
L 341.394789 290.836702 
L 341.969195 286.428153 
L 343.118008 274.992829 
L 345.415634 249.789461 
L 346.564447 240.303496 
L 347.138854 236.964413 
L 347.71326 234.636705 
L 348.287666 233.289907 
L 348.862073 232.825763 
L 349.436479 233.084216 
L 350.010886 233.852867 
L 351.159699 235.886185 
L 351.734105 236.586519 
L 352.308512 236.701186 
L 352.882918 235.974837 
L 353.457325 234.191032 
L 354.031731 231.185207 
L 354.606138 226.854821 
L 355.180544 221.166127 
L 356.329357 205.936984 
L 357.47817 186.620733 
L 360.350203 134.807892 
L 361.499016 119.104994 
L 362.073422 113.296419 
L 362.647829 109.00662 
L 363.222235 106.264214 
L 363.796642 105.024848 
L 364.371048 105.174319 
L 364.945455 106.535461 
L 365.519861 108.878407 
L 366.668674 115.407269 
L 367.817487 122.410272 
L 368.391893 125.37808 
L 368.9663 127.672021 
L 369.540706 129.115643 
L 370.115113 129.594199 
L 370.689519 129.060711 
L 371.263926 127.53822 
L 371.838332 125.118117 
L 372.987145 118.255864 
L 374.710365 106.566828 
L 375.284771 103.41819 
L 375.859178 101.094777 
L 376.433584 99.821254 
L 377.007991 99.772046 
L 377.582397 101.06079 
L 378.156804 103.733087 
L 378.73121 107.762978 
L 379.305617 113.053337 
L 380.45443 126.700539 
L 383.326462 165.785683 
L 384.475275 177.019422 
L 385.049682 180.715871 
L 385.624088 182.967535 
L 386.198494 183.739443 
L 386.772901 183.06971 
L 387.347307 181.066911 
L 387.921714 177.903661 
L 389.070527 169.04444 
L 391.368153 149.287382 
L 391.942559 145.573639 
L 392.516966 142.791383 
L 393.091372 141.066328 
L 393.665779 140.45687 
L 394.240185 140.951304 
L 394.814592 142.468977 
L 395.388998 144.865286 
L 396.537811 151.450234 
L 398.261031 161.805989 
L 398.835437 164.269417 
L 399.409844 165.829022 
L 399.98425 166.303348 
L 400.558657 165.5703 
L 401.133063 163.574852 
L 401.70747 160.333074 
L 402.281876 155.932257 
L 403.430689 144.332358 
L 406.302721 111.658829 
L 406.877128 106.950468 
L 407.451534 103.482329 
L 408.025941 101.433216 
L 408.600347 100.916151 
L 409.174754 101.972698 
L 409.74916 104.571139 
L 410.323567 108.608595 
L 410.897973 113.916973 
L 412.046786 127.407686 
L 414.918819 164.341588 
L 416.067632 174.829847 
L 416.642038 178.511248 
L 417.216445 181.125506 
L 417.790851 182.74046 
L 418.365258 183.488795 
L 418.939664 183.559919 
L 419.514071 183.188665 
L 420.662884 182.200624 
L 421.23729 182.147952 
L 421.811697 182.748027 
L 422.386103 184.23264 
L 422.96051 186.786906 
L 423.534916 190.537939 
L 424.109323 195.546699 
L 425.258135 209.227194 
L 426.406948 226.918213 
L 429.278981 275.179077 
L 430.427794 289.675692 
L 431.0022 294.87302 
L 431.576607 298.51627 
L 432.151013 300.552602 
L 432.72542 301.002524 
L 433.299826 299.958285 
L 433.874233 297.578406 
L 434.448639 294.078665 
L 435.597452 284.794152 
L 437.320672 269.649326 
L 438.469485 261.964409 
L 439.043891 259.4431 
L 439.618298 257.930308 
L 440.192704 257.435603 
L 440.767111 257.898893 
L 441.341517 259.19442 
L 441.915924 261.138418 
L 444.21355 270.372406 
L 444.787956 271.661851 
L 445.362362 272.03032 
L 445.936769 271.28439 
L 446.511175 269.28728 
L 447.085582 265.967453 
L 447.659988 261.323637 
L 448.808801 248.413318 
L 449.957614 231.898692 
L 452.25524 197.045154 
L 453.404053 183.620803 
L 453.97846 178.79043 
L 454.552866 175.41067 
L 455.127273 173.542261 
L 455.701679 173.172723 
L 456.276086 174.217461 
L 456.850492 176.524743 
L 457.424899 179.884287 
L 458.573712 188.699075 
L 460.296931 202.663934 
L 460.871338 206.363569 
L 461.445744 209.197307 
L 462.020151 211.011253 
L 462.594557 211.716841 
L 463.168964 211.295148 
L 463.74337 209.797318 
L 464.317776 207.341085 
L 465.466589 200.310792 
L 467.189809 188.303014 
L 467.764215 185.027565 
L 468.338622 182.544958 
L 468.913028 181.057046 
L 469.487435 180.710614 
L 470.061841 181.588336 
L 470.636248 183.70326 
L 471.210654 186.997126 
L 471.785061 191.342621 
L 472.933874 202.373869 
L 475.2315 225.862358 
L 475.805906 230.231032 
L 476.380313 233.44778 
L 476.954719 235.314185 
L 477.529126 235.694549 
L 478.103532 234.522983 
L 478.677939 231.806751 
L 479.252345 227.62567 
L 479.826752 222.127614 
L 480.975565 208.060276 
L 483.847597 168.461833 
L 484.99641 156.70548 
L 485.570816 152.449396 
L 486.145223 149.341157 
L 486.719629 147.342924 
L 487.294036 146.349496 
L 487.868442 146.195022 
L 488.442849 146.663099 
L 490.166068 149.165319 
L 490.740475 149.43864 
L 491.314881 149.001762 
L 491.889288 147.649462 
L 492.463694 145.230004 
L 493.038101 141.654605 
L 493.612507 136.903433 
L 494.76132 124.148434 
L 496.48454 99.594728 
L 498.207759 75.215535 
L 499.356572 63.142187 
L 499.930979 59.115449 
L 500.505385 56.642742 
L 501.079792 55.8 
L 501.654198 56.590112 
L 502.228605 58.943006 
L 502.803011 62.71965 
L 503.951824 73.69272 
L 507.398263 113.328488 
L 507.972669 118.036226 
L 508.547076 121.7213 
L 509.121482 124.341743 
L 509.695889 125.926009 
L 510.270295 126.570532 
L 510.844702 126.433485 
L 511.419108 125.725103 
L 513.142328 122.776639 
L 513.716734 122.446013 
L 514.291141 122.876629 
L 514.865547 124.279793 
L 515.439954 126.814824 
L 516.01436 130.57917 
L 516.588767 135.601929 
L 517.73758 149.184986 
L 518.886393 166.424309 
L 521.184019 203.357113 
L 522.332831 218.138105 
L 522.907238 223.680669 
L 523.481644 227.766093 
L 524.056051 230.308952 
L 524.630457 231.296529 
L 525.204864 230.789242 
L 525.77927 228.91714 
L 526.353677 225.872663 
L 527.50249 217.28207 
L 529.225709 202.629926 
L 530.374522 195.096404 
L 530.948929 192.68825 
L 531.523335 191.364423 
L 532.097742 191.174552 
L 532.672148 192.09766 
L 533.246555 194.044096 
L 533.820961 196.861288 
L 534.969774 204.241513 
L 536.692994 215.654242 
L 537.2674 218.448171 
L 537.841807 220.341147 
L 538.416213 221.163104 
L 538.99062 220.804589 
L 539.565026 219.223719 
L 540.139433 216.449403 
L 540.713839 212.580646 
L 541.862652 202.275194 
L 544.160278 178.903489 
L 544.734684 174.267571 
L 545.309091 170.683294 
L 545.883497 168.367415 
L 546.457904 167.477601 
L 547.03231 168.103984 
L 547.606717 170.26434 
L 548.181123 173.903152 
L 548.75553 178.894617 
L 549.904343 192.12496 
L 553.350782 237.236037 
L 553.925188 242.576454 
L 554.499595 246.769812 
L 555.074001 249.753796 
L 555.648408 251.536825 
L 556.222814 252.196635 
L 556.797221 251.875024 
L 557.371627 250.769046 
L 558.52044 247.19486 
L 559.669253 243.650977 
L 560.24366 242.570392 
L 560.818066 242.261712 
L 561.392472 242.90087 
L 561.966879 244.604566 
L 562.541285 247.422837 
L 563.115692 251.335331 
L 564.264505 262.014581 
L 567.710944 299.832854 
L 568.28535 303.891531 
L 568.859757 306.602217 
L 569.434163 307.8 
L 570.00857 307.386715 
L 570.582976 305.336251 
L 571.157383 301.695996 
L 571.731789 296.584332 
L 572.880602 282.733942 
L 576.901448 226.071123 
L 577.475854 220.545593 
L 578.050261 216.14677 
L 578.624667 212.877421 
L 579.199074 210.670571 
L 579.77348 209.394254 
L 580.347887 208.85988 
L 580.922293 208.833727 
L 582.071106 209.231222 
L 582.645512 209.095453 
L 583.219919 208.382143 
L 583.794325 206.862985 
L 584.368732 204.356539 
L 584.943138 200.739328 
L 585.517545 195.953723 
L 586.666358 182.997574 
L 587.815171 166.407708 
L 590.687203 122.390873 
L 591.836016 110.020675 
L 592.410423 105.929595 
L 592.984829 103.401285 
L 593.559236 102.472834 
L 594.133642 103.107836 
L 594.708049 105.198386 
L 595.282455 108.570914 
L 596.431268 118.19843 
L 598.728894 140.636138 
L 599.303301 145.173515 
L 599.877707 148.802614 
L 600.452113 151.376212 
L 601.02652 152.814107 
L 601.600926 153.106664 
L 602.175333 152.314444 
L 602.749739 150.563941 
L 603.324146 148.039673 
L 606.196178 132.741432 
L 606.770585 131.038522 
L 607.344991 130.320234 
L 607.919398 130.721728 
L 608.493804 132.313223 
L 609.068211 135.09526 
L 609.642617 138.997833 
L 610.79143 149.553886 
L 613.663463 179.991591 
L 614.237869 184.390235 
L 614.812276 187.603813 
L 615.386682 189.453695 
L 615.961089 189.825908 
L 616.535495 188.677404 
L 617.109902 186.03851 
L 617.684308 182.011443 
L 618.833121 170.52538 
L 622.27956 128.72859 
L 622.853966 123.754084 
L 623.428373 119.93167 
L 624.002779 117.352338 
L 624.577186 116.036549 
L 625.151592 115.934085 
L 625.725999 116.927803 
L 626.300405 118.841085 
L 627.449218 124.489527 
L 628.598031 130.745531 
L 629.172438 133.405093 
L 629.746844 135.419678 
L 630.321251 136.590199 
L 630.895657 136.772611 
L 631.470064 135.886704 
L 632.04447 133.921341 
L 632.618877 130.935848 
L 633.76769 122.475093 
L 636.065316 102.414956 
L 636.639722 98.473883 
L 637.214129 95.545657 
L 637.788535 93.867284 
L 638.362942 93.622254 
L 638.937348 94.9304 
L 639.511754 97.841165 
L 640.086161 102.330645 
L 640.660567 108.302574 
L 641.80938 123.979751 
L 643.5326 152.864099 
L 645.255819 180.775015 
L 646.404632 195.235061 
L 646.979039 200.724589 
L 647.553445 204.986427 
L 648.127852 208.058577 
L 648.702258 210.046742 
L 649.276665 211.11735 
L 649.851071 211.487233 
L 650.425478 211.410537 
L 651.574291 211.028514 
L 652.148697 211.276685 
L 652.723104 212.152599 
L 653.29751 213.85941 
L 653.871917 216.546704 
L 654.446323 220.301274 
L 655.02073 225.141394 
L 656.169543 237.801241 
L 657.892762 261.551992 
L 659.615981 284.45663 
L 660.190388 290.495192 
L 660.764794 295.298091 
L 661.339201 298.672604 
L 661.913607 300.488527 
L 662.488014 300.685375 
L 663.06242 299.275843 
L 663.636827 296.345334 
L 664.211233 292.047579 
L 665.360046 280.255401 
L 668.232079 245.957972 
L 669.380892 236.342125 
L 669.955298 233.194962 
L 670.529705 231.231941 
L 671.104111 230.422156 
L 671.678518 230.666289 
L 672.252924 231.803124 
L 672.827331 233.619455 
L 675.124957 242.364558 
L 675.699363 243.55114 
L 676.27377 243.863746 
L 676.848176 243.142572 
L 677.422583 241.289565 
L 677.996989 238.274645 
L 678.571395 234.138134 
L 679.720208 223.000819 
L 683.166647 184.320216 
L 683.741054 180.13996 
L 684.31546 177.264656 
L 684.889867 175.831222 
L 685.464273 175.907716 
L 686.03868 177.489379 
L 686.613086 180.498595 
L 687.187493 184.788778 
L 688.336306 196.329697 
L 691.208338 228.703612 
L 691.782745 233.40108 
L 692.357151 236.969164 
L 692.931558 239.289221 
L 693.505964 240.312332 
L 694.080371 240.061004 
L 694.654777 238.626949 
L 695.229184 236.165055 
L 696.377997 229.033267 
L 698.101216 216.863999 
L 698.675622 213.520841 
L 699.250029 210.930718 
L 699.824435 209.263799 
L 700.398842 208.629753 
L 700.973248 209.071048 
L 701.547655 210.559999 
L 702.122061 212.999741 
L 703.270874 220.030859 
L 704.994094 232.121882 
L 705.5685 235.377658 
L 706.142907 237.758849 
L 706.717313 239.015699 
L 707.29172 238.947117 
L 707.866126 237.411981 
L 708.440533 234.337244 
L 709.014939 229.722375 
L 709.589346 223.63991 
L 710.738159 207.703583 
L 712.461378 178.140647 
L 714.184598 149.205022 
L 715.333411 134.066361 
L 715.907817 128.313364 
L 716.482224 123.876604 
L 717.05663 120.746205 
L 717.631036 118.842441 
L 718.205443 118.021281 
L 718.779849 118.083451 
L 719.354256 118.786514 
L 721.077475 121.982295 
L 721.651882 122.492733 
L 722.226288 122.324997 
L 722.800695 121.3036 
L 723.375101 119.312288 
L 723.949508 116.301212 
L 724.523914 112.290395 
L 725.672727 101.69239 
L 728.54476 70.682245 
L 729.119166 66.00481 
L 729.693573 62.486902 
L 730.267979 60.337468 
L 730.842386 59.706757 
L 731.416792 60.677771 
L 731.991199 63.261334 
L 732.565605 67.395029 
L 733.140012 72.946084 
L 734.288825 87.460846 
L 737.735263 137.171535 
L 738.884076 148.257011 
L 739.458483 151.982013 
L 740.032889 154.473105 
L 740.607296 155.801927 
L 741.181702 156.105389 
L 741.756109 155.57705 
L 742.330515 154.455388 
L 744.053735 150.28077 
L 744.628141 149.544418 
L 745.202548 149.545564 
L 745.776954 150.467742 
L 746.351361 152.436439 
L 746.925767 155.511457 
L 747.500174 159.682933 
L 748.648987 170.930935 
L 750.372206 192.074468 
L 751.521019 205.793428 
L 752.669832 216.456314 
L 753.244239 220.02327 
L 753.818645 222.183548 
L 754.393052 222.844878 
L 754.967458 221.986597 
L 755.541865 219.661226 
L 756.116271 215.992088 
L 757.265084 205.429169 
L 760.137116 173.637815 
L 760.711523 168.791452 
L 761.285929 165.030636 
L 761.860336 162.500699 
L 762.434742 161.27866 
L 763.009149 161.369979 
L 763.583555 162.709229 
L 764.157962 165.164662 
L 764.732368 168.546389 
L 765.881181 177.109169 
L 767.604401 190.249477 
L 768.178807 193.628858 
L 768.753214 196.14807 
L 769.32762 197.669218 
L 769.902027 198.119197 
L 770.476433 197.494178 
L 771.05084 195.860212 
L 771.625246 193.349922 
L 772.774059 186.518123 
L 774.497279 175.808562 
L 775.071685 173.296947 
L 775.646091 171.770793 
L 776.220498 171.447827 
L 776.794904 172.490046 
L 777.369311 174.994305 
L 777.943717 178.986425 
L 778.518124 184.419114 
L 779.666937 199.066573 
L 781.390156 226.964463 
L 783.113376 254.643155 
L 784.262189 269.02033 
L 784.836595 274.349112 
L 785.411002 278.297001 
L 785.985408 280.846712 
L 786.559815 282.052345 
L 787.134221 282.035321 
L 787.708628 280.97665 
L 788.283034 279.10596 
L 789.431847 274.006609 
L 790.58066 268.989558 
L 791.155067 267.17156 
L 791.729473 266.09595 
L 792.30388 265.908159 
L 792.878286 266.689844 
L 793.452693 268.453905 
L 794.027099 271.143346 
L 795.175912 278.741469 
L 797.473538 296.159266 
L 798.047944 299.299696 
L 798.622351 301.394395 
L 799.196757 302.219997 
L 799.771164 301.607456 
L 800.34557 299.451856 
L 800.919977 295.71879 
L 801.494383 290.446938 
L 802.643196 275.794976 
L 803.792009 257.121017 
L 806.089635 217.293926 
L 807.238448 201.005662 
L 807.812855 194.575359 
L 808.387261 189.441746 
L 808.961668 185.632368 
L 809.536074 183.103117 
L 810.110481 181.741781 
L 810.684887 181.37532 
L 811.259294 181.780449 
L 811.8337 182.696935 
L 812.982513 184.931208 
L 813.55692 185.686197 
L 814.131326 185.859588 
L 814.705732 185.244915 
L 815.280139 183.689567 
L 815.854545 181.10379 
L 816.428952 177.466179 
L 817.577765 167.297531 
L 819.300984 147.420161 
L 820.449797 134.129372 
L 821.59861 123.548277 
L 822.173017 119.919812 
L 822.747423 117.65459 
L 823.32183 116.867903 
L 823.896236 117.605278 
L 824.470643 119.839389 
L 825.045049 123.470908 
L 825.619456 128.333243 
L 826.768269 140.801143 
L 829.065895 168.248725 
L 830.214708 178.372802 
L 830.789114 181.715653 
L 831.363521 183.750764 
L 831.937927 184.444581 
L 832.512334 183.835508 
L 833.08674 182.030845 
L 833.661146 179.199983 
L 834.809959 171.383758 
L 836.533179 158.435352 
L 837.107585 154.908508 
L 837.681992 152.168868 
L 838.256398 150.381038 
L 838.830805 149.647768 
L 839.405211 150.003981 
L 839.979618 151.414589 
L 840.554024 153.776242 
L 841.702837 160.634975 
L 843.426057 172.434145 
L 844.000463 175.608434 
L 844.57487 177.936126 
L 845.149276 179.184045 
L 845.723683 179.170021 
L 846.298089 177.773501 
L 846.872496 174.942863 
L 847.446902 170.698999 
L 848.021309 165.134969 
L 849.170122 150.750354 
L 852.616561 101.735035 
L 853.190967 95.886815 
L 853.765373 91.336508 
L 854.33978 88.198592 
L 854.914186 86.516656 
L 855.488593 86.262009 
L 856.062999 87.336232 
L 856.637406 89.577512 
L 857.211812 92.770415 
L 858.360625 100.959449 
L 860.083845 113.465699 
L 860.658251 116.642559 
L 861.232658 118.993941 
L 861.807064 120.406892 
L 862.381471 120.835577 
L 862.955877 120.303984 
L 863.530284 118.904698 
L 864.10469 116.793823 
L 866.976723 104.14925 
L 867.551129 103.181808 
L 868.125536 103.347608 
L 868.699942 104.833584 
L 869.274349 107.766251 
L 869.848755 112.203946 
L 870.423162 118.132747 
L 871.571975 134.049582 
L 872.720787 154.049964 
L 875.59282 206.450242 
L 876.741633 222.106769 
L 877.316039 227.959187 
L 877.890446 232.397401 
L 878.464852 235.43868 
L 879.039259 237.170639 
L 879.613665 237.745378 
L 880.188072 237.370134 
L 880.762478 236.294952 
L 882.485698 231.69584 
L 883.060104 230.640907 
L 883.634511 230.233562 
L 884.208917 230.653146 
L 884.783324 232.019473 
L 885.35773 234.385882 
L 885.932137 237.736022 
L 887.08095 246.981737 
L 889.952982 274.723299 
L 890.527389 278.836443 
L 891.101795 281.846129 
L 891.676202 283.556333 
L 892.250608 283.830109 
L 892.825014 282.597799 
L 893.399421 279.861612 
L 893.973827 275.696312 
L 894.548234 270.245969 
L 895.697047 256.367567 
L 898.569079 218.179237 
L 899.143486 212.382356 
L 899.717892 207.761906 
L 900.292299 204.449295 
L 900.866705 202.505937 
L 901.441112 201.920831 
L 902.015518 202.612098 
L 902.589925 204.432349 
L 903.164331 207.177617 
L 904.313144 214.418714 
L 905.461957 222.080669 
L 906.036364 225.360909 
L 906.61077 227.945982 
L 907.185177 229.646141 
L 907.759583 230.330042 
L 908.33399 229.93217 
L 908.908396 228.456568 
L 909.482803 225.976668 
L 910.057209 222.631221 
L 911.206022 214.175652 
L 912.929241 201.125604 
L 913.503648 197.831012 
L 914.078054 195.499523 
L 914.652461 194.33234 
L 915.226867 194.473098 
L 915.801274 195.99921 
L 916.37568 198.916807 
L 916.950087 203.15953 
L 918.0989 215.012733 
L 921.545339 258.232997 
L 922.119745 263.358215 
L 922.694152 267.213016 
L 923.268558 269.658553 
L 923.842965 270.625584 
L 924.417371 270.117387 
L 924.991778 268.208747 
L 925.566184 265.041061 
L 926.714997 255.773141 
L 929.58703 228.343366 
L 930.161436 224.273589 
L 930.735843 221.125989 
L 931.310249 218.978608 
L 931.884655 217.840283 
L 932.459062 217.650282 
L 933.033468 218.281858 
L 933.607875 219.549513 
L 935.331094 224.672978 
L 935.905501 225.876893 
L 936.479907 226.35744 
L 937.054314 225.866452 
L 937.62872 224.199805 
L 938.203127 221.209517 
L 938.777533 216.812835 
L 939.35194 210.997781 
L 940.500753 195.424829 
L 941.649566 175.77787 
L 944.521598 123.782308 
L 945.670411 108.223699 
L 946.244818 102.481889 
L 946.819224 98.229477 
L 947.393631 95.475035 
L 947.968037 94.155168 
L 948.542444 94.138911 
L 949.11685 95.235772 
L 949.691257 97.206982 
L 950.840069 102.660787 
L 951.988882 108.188632 
L 952.563289 110.305668 
L 953.137695 111.702911 
L 953.712102 112.230741 
L 954.286508 111.803627 
L 954.860915 110.40487 
L 955.435321 108.087484 
L 956.009728 104.971158 
L 957.158541 97.109751 
L 958.88176 85.145154 
L 959.456167 82.254786 
L 960.030573 80.357271 
L 960.60498 79.664594 
L 961.179386 80.334056 
L 961.753793 82.458763 
L 962.328199 86.061599 
L 962.902606 91.093003 
L 964.051419 104.89521 
L 965.774638 131.4004 
L 967.497858 157.512128 
L 968.646671 170.735633 
L 969.221077 175.45326 
L 969.795483 178.767365 
L 970.36989 180.661699 
L 970.944296 181.192273 
L 971.518703 180.483459 
L 972.093109 178.720392 
L 972.667516 176.138103 
L 975.539548 160.82057 
L 976.113955 159.177481 
L 976.688361 158.488122 
L 977.262768 158.848155 
L 977.837174 160.284708 
L 978.411581 162.754973 
L 978.985987 166.148718 
L 980.1348 174.969865 
L 981.85802 189.453818 
L 982.432426 193.474215 
L 983.006833 196.64111 
L 983.581239 198.735919 
L 984.155646 199.593072 
L 984.730052 199.109935 
L 985.304459 197.25332 
L 985.878865 194.062216 
L 986.453272 189.646582 
L 987.602085 177.902355 
L 990.474117 144.761904 
L 991.048523 139.95259 
L 991.62293 136.359114 
L 992.197336 134.143562 
L 992.771743 133.40033 
L 993.346149 134.151703 
L 993.920556 136.347332 
L 994.494962 139.867639 
L 995.069369 144.530956 
L 996.218182 156.315143 
L 996.218182 156.315143 
" style="fill:none;stroke:#4c72b0;stroke-linecap:round;stroke-width:1.4;"/>
   </g>
   <g id="line2d_30">
    <path clip-path="url(#p4338bed65f)" d="M 184.581818 230.8849 
L 227.087898 230.213658 
L 248.915345 230.117242 
L 271.317197 230.246119 
L 310.376838 230.753315 
L 336.799537 230.970004 
L 358.626983 230.920813 
L 382.177649 230.632907 
L 448.234395 229.670416 
L 470.061841 229.689319 
L 495.335727 229.947813 
L 544.734684 230.504487 
L 566.562131 230.481243 
L 589.53839 230.224902 
L 662.488014 229.210105 
L 684.31546 229.27156 
L 711.886972 229.592429 
L 752.095426 230.052281 
L 773.922872 230.06071 
L 796.324725 229.841211 
L 833.661146 229.198177 
L 861.232658 228.839539 
L 883.060104 228.78482 
L 906.036364 228.95718 
L 976.113955 229.664994 
L 996.218182 229.551239 
L 996.218182 229.551239 
" style="fill:none;stroke:#55a868;stroke-linecap:round;stroke-width:1.4;"/>
   </g>
   <g id="patch_3">
    <path d="M 144 320.4 
L 144 43.2 
" style="fill:none;"/>
   </g>
   <g id="patch_4">
    <path d="M 1036.8 320.4 
L 1036.8 43.2 
" style="fill:none;"/>
   </g>
   <g id="patch_5">
    <path d="M 144 320.4 
L 1036.8 320.4 
" style="fill:none;"/>
   </g>
   <g id="patch_6">
    <path d="M 144 43.2 
L 1036.8 43.2 
" style="fill:none;"/>
   </g>
   <g id="legend_1">
    <g id="line2d_31">
     <path d="M 1002.75125 53.3975 
L 1018.75125 53.3975 
" style="fill:none;stroke:#4c72b0;stroke-linecap:round;stroke-width:1.4;"/>
    </g>
    <g id="line2d_32"/>
    <g id="text_15">
     <!-- a -->
     <defs>
      <path d="M 20.21875 -0.984375 
Q 12.25 -0.984375 8.25 3.21875 
Q 4.25 7.421875 4.25 14.75 
Q 4.25 19.96875 6.21875 23.3125 
Q 8.203125 26.65625 11.390625 28.5625 
Q 14.59375 30.46875 18.6875 31.203125 
Q 22.796875 31.9375 27.046875 32.03125 
L 38.921875 32.234375 
L 38.921875 35.109375 
Q 38.921875 38.375 38.234375 40.671875 
Q 37.546875 42.96875 36.125 44.375 
Q 34.71875 45.796875 32.59375 46.453125 
Q 30.46875 47.125 27.59375 47.125 
Q 25.046875 47.125 23 46.75 
Q 20.953125 46.390625 19.4375 45.4375 
Q 17.921875 44.484375 16.984375 42.84375 
Q 16.0625 41.21875 15.765625 38.71875 
L 6.59375 39.546875 
Q 7.078125 42.671875 8.4375 45.28125 
Q 9.8125 47.90625 12.328125 49.796875 
Q 14.84375 51.703125 18.625 52.75 
Q 22.40625 53.8125 27.78125 53.8125 
Q 37.75 53.8125 42.765625 49.234375 
Q 47.796875 44.671875 47.796875 36.03125 
L 47.796875 13.28125 
Q 47.796875 9.375 48.828125 7.390625 
Q 49.859375 5.421875 52.734375 5.421875 
Q 53.46875 5.421875 54.203125 5.515625 
Q 54.9375 5.609375 55.609375 5.765625 
L 55.609375 0.296875 
Q 53.953125 -0.09375 52.3125 -0.28125 
Q 50.6875 -0.484375 48.828125 -0.484375 
Q 46.34375 -0.484375 44.5625 0.171875 
Q 42.78125 0.828125 41.65625 2.171875 
Q 40.53125 3.515625 39.9375 5.484375 
Q 39.359375 7.46875 39.203125 10.109375 
L 38.921875 10.109375 
Q 37.5 7.5625 35.8125 5.515625 
Q 34.125 3.46875 31.875 2.03125 
Q 29.640625 0.59375 26.78125 -0.1875 
Q 23.921875 -0.984375 20.21875 -0.984375 
M 22.21875 5.609375 
Q 26.421875 5.609375 29.5625 7.140625 
Q 32.71875 8.6875 34.78125 11.078125 
Q 36.859375 13.484375 37.890625 16.3125 
Q 38.921875 19.140625 38.921875 21.734375 
L 38.921875 26.078125 
L 29.296875 25.875 
Q 26.078125 25.828125 23.171875 25.40625 
Q 20.265625 25 18.0625 23.78125 
Q 15.875 22.5625 14.578125 20.359375 
Q 13.28125 18.171875 13.28125 14.59375 
Q 13.28125 10.296875 15.59375 7.953125 
Q 17.921875 5.609375 22.21875 5.609375 
" id="LiberationSans-61"/>
     </defs>
     <g style="fill:#262626;" transform="translate(1025.15125 56.1975)scale(0.08 -0.08)">
      <use xlink:href="#LiberationSans-61"/>
     </g>
    </g>
    <g id="line2d_33">
     <path d="M 1002.75125 64.855 
L 1018.75125 64.855 
" style="fill:none;stroke:#55a868;stroke-linecap:round;stroke-width:1.4;"/>
    </g>
    <g id="line2d_34"/>
    <g id="text_16">
     <!-- b -->
     <defs>
      <path d="M 51.421875 26.65625 
Q 51.421875 -0.984375 31.984375 -0.984375 
Q 25.984375 -0.984375 22 1.1875 
Q 18.015625 3.375 15.53125 8.203125 
L 15.4375 8.203125 
Q 15.4375 6.9375 15.359375 5.5625 
Q 15.28125 4.203125 15.203125 3.03125 
Q 15.140625 1.859375 15.0625 1.03125 
Q 14.984375 0.203125 14.9375 0 
L 6.453125 0 
Q 6.5 0.4375 6.546875 1.484375 
Q 6.59375 2.546875 6.640625 4 
Q 6.6875 5.46875 6.703125 7.21875 
Q 6.734375 8.984375 6.734375 10.890625 
L 6.734375 72.46875 
L 15.53125 72.46875 
L 15.53125 51.8125 
Q 15.53125 50.34375 15.5 49 
Q 15.484375 47.65625 15.4375 46.625 
Q 15.375 45.40625 15.328125 44.34375 
L 15.53125 44.34375 
Q 17.96875 49.421875 22 51.609375 
Q 26.03125 53.8125 31.984375 53.8125 
Q 42 53.8125 46.703125 47.0625 
Q 51.421875 40.328125 51.421875 26.65625 
M 42.1875 26.375 
Q 42.1875 31.84375 41.5 35.75 
Q 40.828125 39.65625 39.3125 42.15625 
Q 37.796875 44.671875 35.453125 45.84375 
Q 33.109375 47.015625 29.734375 47.015625 
Q 26.265625 47.015625 23.609375 45.890625 
Q 20.953125 44.78125 19.171875 42.28125 
Q 17.390625 39.796875 16.453125 35.734375 
Q 15.53125 31.6875 15.53125 25.828125 
Q 15.53125 20.171875 16.453125 16.3125 
Q 17.390625 12.453125 19.171875 10.03125 
Q 20.953125 7.625 23.578125 6.5625 
Q 26.21875 5.515625 29.640625 5.515625 
Q 32.859375 5.515625 35.203125 6.640625 
Q 37.546875 7.765625 39.109375 10.25 
Q 40.671875 12.75 41.421875 16.71875 
Q 42.1875 20.703125 42.1875 26.375 
" id="LiberationSans-62"/>
     </defs>
     <g style="fill:#262626;" transform="translate(1025.15125 67.655)scale(0.08 -0.08)">
      <use xlink:href="#LiberationSans-62"/>
     </g>
    </g>
   </g>
  </g>
 </g>
 <defs>
  <clipPath id="p4338bed65f">
   <rect height="277.2" width="892.8" x="144" y="43.2"/>
  </clipPath>
 </defs>
</svg>
