<?xml version="1.0" encoding="utf-8" standalone="no"?>
<!DOCTYPE svg PUBLIC "-//W3C//DTD SVG 1.1//EN"
  "http://www.w3.org/Graphics/SVG/1.1/DTD/svg11.dtd">
<!-- Created with matplotlib (http://matplotlib.org/) -->
<svg height="360pt" version="1.1" viewBox="0 0 1152 360" width="1152pt" xmlns="http://www.w3.org/2000/svg" xmlns:xlink="http://www.w3.org/1999/xlink">
 <defs>
  <style type="text/css">
*{stroke-linecap:butt;stroke-linejoin:round;}
  </style>
 </defs>
 <g id="figure_1">
  <g id="patch_1">
   <path d="M 0 360 
L 1152 360 
L 1152 0 
L 0 0 
z
" style="fill:#ffffff;"/>
  </g>
  <g id="axes_1">
   <g id="patch_2">
    <path d="M 144 320.4 
L 1036.8 320.4 
L 1036.8 43.2 
L 144 43.2 
z
" style="fill:#eaeaf2;"/>
   </g>
   <g id="matplotlib.axis_1">
    <g id="xtick_1">
     <g id="line2d_1">
      <path clip-path="url(#pf7451fef05)" d="M 184.581818 320.4 
L 184.581818 43.2 
" style="fill:none;stroke:#ffffff;stroke-linecap:round;stroke-width:0.8;"/>
     </g>
     <g id="line2d_2"/>
     <g id="text_1">
      <!-- 0.000 -->
      <defs>
       <path d="M 51.703125 34.421875 
Q 51.703125 24.515625 49.828125 17.75 
Q 47.953125 10.984375 44.703125 6.8125 
Q 41.453125 2.640625 37.0625 0.828125 
Q 32.671875 -0.984375 27.6875 -0.984375 
Q 22.65625 -0.984375 18.3125 0.828125 
Q 13.96875 2.640625 10.765625 6.78125 
Q 7.5625 10.9375 5.734375 17.703125 
Q 3.90625 24.46875 3.90625 34.421875 
Q 3.90625 44.828125 5.734375 51.640625 
Q 7.5625 58.453125 10.78125 62.5 
Q 14.015625 66.546875 18.40625 68.1875 
Q 22.796875 69.828125 27.984375 69.828125 
Q 32.90625 69.828125 37.21875 68.1875 
Q 41.546875 66.546875 44.765625 62.5 
Q 48 58.453125 49.84375 51.640625 
Q 51.703125 44.828125 51.703125 34.421875 
M 42.78125 34.421875 
Q 42.78125 42.625 41.796875 48.0625 
Q 40.828125 53.515625 38.921875 56.765625 
Q 37.015625 60.015625 34.25 61.359375 
Q 31.5 62.703125 27.984375 62.703125 
Q 24.265625 62.703125 21.4375 61.328125 
Q 18.609375 59.96875 16.671875 56.71875 
Q 14.75 53.46875 13.765625 48.015625 
Q 12.796875 42.578125 12.796875 34.421875 
Q 12.796875 26.515625 13.796875 21.09375 
Q 14.796875 15.671875 16.71875 12.375 
Q 18.65625 9.078125 21.4375 7.640625 
Q 24.21875 6.203125 27.78125 6.203125 
Q 31.25 6.203125 34.03125 7.640625 
Q 36.8125 9.078125 38.734375 12.375 
Q 40.671875 15.671875 41.71875 21.09375 
Q 42.78125 26.515625 42.78125 34.421875 
" id="LiberationSans-30"/>
       <path d="M 9.125 0 
L 9.125 10.6875 
L 18.65625 10.6875 
L 18.65625 0 
z
" id="LiberationSans-2e"/>
      </defs>
      <g style="fill:#262626;" transform="translate(174.573068 331.7975)scale(0.08 -0.08)">
       <use xlink:href="#LiberationSans-30"/>
       <use x="55.615234" xlink:href="#LiberationSans-2e"/>
       <use x="83.398438" xlink:href="#LiberationSans-30"/>
       <use x="139.013672" xlink:href="#LiberationSans-30"/>
       <use x="194.628906" xlink:href="#LiberationSans-30"/>
      </g>
     </g>
    </g>
    <g id="xtick_2">
     <g id="line2d_3">
      <path clip-path="url(#pf7451fef05)" d="M 311.238448 320.4 
L 311.238448 43.2 
" style="fill:none;stroke:#ffffff;stroke-linecap:round;stroke-width:0.8;"/>
     </g>
     <g id="line2d_4"/>
     <g id="text_2">
      <!-- 0.005 -->
      <defs>
       <path d="M 51.421875 22.40625 
Q 51.421875 17.234375 49.859375 12.9375 
Q 48.296875 8.640625 45.21875 5.53125 
Q 42.140625 2.4375 37.578125 0.71875 
Q 33.015625 -0.984375 27 -0.984375 
Q 21.578125 -0.984375 17.546875 0.28125 
Q 13.53125 1.5625 10.734375 3.78125 
Q 7.953125 6 6.3125 8.984375 
Q 4.6875 11.96875 4 15.375 
L 12.890625 16.40625 
Q 13.421875 14.453125 14.390625 12.625 
Q 15.375 10.796875 17.0625 9.34375 
Q 18.75 7.90625 21.21875 7.046875 
Q 23.6875 6.203125 27.203125 6.203125 
Q 30.609375 6.203125 33.390625 7.25 
Q 36.1875 8.296875 38.15625 10.34375 
Q 40.140625 12.40625 41.203125 15.375 
Q 42.28125 18.359375 42.28125 22.21875 
Q 42.28125 25.390625 41.25 28.046875 
Q 40.234375 30.71875 38.328125 32.640625 
Q 36.421875 34.578125 33.65625 35.640625 
Q 30.90625 36.71875 27.390625 36.71875 
Q 25.203125 36.71875 23.34375 36.328125 
Q 21.484375 35.9375 19.890625 35.25 
Q 18.3125 34.578125 17.015625 33.671875 
Q 15.71875 32.765625 14.59375 31.78125 
L 6 31.78125 
L 8.296875 68.796875 
L 47.40625 68.796875 
L 47.40625 61.328125 
L 16.3125 61.328125 
L 14.984375 39.5 
Q 17.328125 41.3125 20.84375 42.59375 
Q 24.359375 43.890625 29.203125 43.890625 
Q 34.328125 43.890625 38.421875 42.328125 
Q 42.53125 40.765625 45.40625 37.90625 
Q 48.296875 35.0625 49.859375 31.109375 
Q 51.421875 27.15625 51.421875 22.40625 
" id="LiberationSans-35"/>
      </defs>
      <g style="fill:#262626;" transform="translate(301.229698 331.7975)scale(0.08 -0.08)">
       <use xlink:href="#LiberationSans-30"/>
       <use x="55.615234" xlink:href="#LiberationSans-2e"/>
       <use x="83.398438" xlink:href="#LiberationSans-30"/>
       <use x="139.013672" xlink:href="#LiberationSans-30"/>
       <use x="194.628906" xlink:href="#LiberationSans-35"/>
      </g>
     </g>
    </g>
    <g id="xtick_3">
     <g id="line2d_5">
      <path clip-path="url(#pf7451fef05)" d="M 437.895078 320.4 
L 437.895078 43.2 
" style="fill:none;stroke:#ffffff;stroke-linecap:round;stroke-width:0.8;"/>
     </g>
     <g id="line2d_6"/>
     <g id="text_3">
      <!-- 0.010 -->
      <defs>
       <path d="M 7.625 0 
L 7.625 7.46875 
L 25.140625 7.46875 
L 25.140625 60.40625 
L 9.625 49.3125 
L 9.625 57.625 
L 25.875 68.796875 
L 33.984375 68.796875 
L 33.984375 7.46875 
L 50.734375 7.46875 
L 50.734375 0 
z
" id="LiberationSans-31"/>
      </defs>
      <g style="fill:#262626;" transform="translate(427.886328 331.7975)scale(0.08 -0.08)">
       <use xlink:href="#LiberationSans-30"/>
       <use x="55.615234" xlink:href="#LiberationSans-2e"/>
       <use x="83.398438" xlink:href="#LiberationSans-30"/>
       <use x="139.013672" xlink:href="#LiberationSans-31"/>
       <use x="194.628906" xlink:href="#LiberationSans-30"/>
      </g>
     </g>
    </g>
    <g id="xtick_4">
     <g id="line2d_7">
      <path clip-path="url(#pf7451fef05)" d="M 564.551708 320.4 
L 564.551708 43.2 
" style="fill:none;stroke:#ffffff;stroke-linecap:round;stroke-width:0.8;"/>
     </g>
     <g id="line2d_8"/>
     <g id="text_4">
      <!-- 0.015 -->
      <g style="fill:#262626;" transform="translate(554.542958 331.7975)scale(0.08 -0.08)">
       <use xlink:href="#LiberationSans-30"/>
       <use x="55.615234" xlink:href="#LiberationSans-2e"/>
       <use x="83.398438" xlink:href="#LiberationSans-30"/>
       <use x="139.013672" xlink:href="#LiberationSans-31"/>
       <use x="194.628906" xlink:href="#LiberationSans-35"/>
      </g>
     </g>
    </g>
    <g id="xtick_5">
     <g id="line2d_9">
      <path clip-path="url(#pf7451fef05)" d="M 691.208338 320.4 
L 691.208338 43.2 
" style="fill:none;stroke:#ffffff;stroke-linecap:round;stroke-width:0.8;"/>
     </g>
     <g id="line2d_10"/>
     <g id="text_5">
      <!-- 0.020 -->
      <defs>
       <path d="M 5.03125 0 
L 5.03125 6.203125 
Q 7.515625 11.921875 11.109375 16.28125 
Q 14.703125 20.65625 18.65625 24.1875 
Q 22.609375 27.734375 26.484375 30.765625 
Q 30.375 33.796875 33.5 36.8125 
Q 36.625 39.84375 38.546875 43.15625 
Q 40.484375 46.484375 40.484375 50.6875 
Q 40.484375 53.609375 39.59375 55.828125 
Q 38.71875 58.0625 37.0625 59.5625 
Q 35.40625 61.078125 33.078125 61.828125 
Q 30.765625 62.59375 27.9375 62.59375 
Q 25.296875 62.59375 22.96875 61.859375 
Q 20.65625 61.140625 18.84375 59.671875 
Q 17.046875 58.203125 15.890625 56.03125 
Q 14.75 53.859375 14.40625 50.984375 
L 5.421875 51.8125 
Q 5.859375 55.515625 7.46875 58.78125 
Q 9.078125 62.0625 11.90625 64.53125 
Q 14.75 67 18.71875 68.40625 
Q 22.703125 69.828125 27.9375 69.828125 
Q 33.0625 69.828125 37.0625 68.609375 
Q 41.0625 67.390625 43.8125 64.984375 
Q 46.578125 62.59375 48.046875 59.078125 
Q 49.515625 55.5625 49.515625 50.984375 
Q 49.515625 47.515625 48.265625 44.390625 
Q 47.015625 41.265625 44.9375 38.421875 
Q 42.875 35.59375 40.140625 32.953125 
Q 37.40625 30.328125 34.421875 27.8125 
Q 31.453125 25.296875 28.421875 22.828125 
Q 25.390625 20.359375 22.71875 17.859375 
Q 20.0625 15.375 17.96875 12.8125 
Q 15.875 10.25 14.703125 7.46875 
L 50.59375 7.46875 
L 50.59375 0 
z
" id="LiberationSans-32"/>
      </defs>
      <g style="fill:#262626;" transform="translate(681.199588 331.7975)scale(0.08 -0.08)">
       <use xlink:href="#LiberationSans-30"/>
       <use x="55.615234" xlink:href="#LiberationSans-2e"/>
       <use x="83.398438" xlink:href="#LiberationSans-30"/>
       <use x="139.013672" xlink:href="#LiberationSans-32"/>
       <use x="194.628906" xlink:href="#LiberationSans-30"/>
      </g>
     </g>
    </g>
    <g id="xtick_6">
     <g id="line2d_11">
      <path clip-path="url(#pf7451fef05)" d="M 817.864968 320.4 
L 817.864968 43.2 
" style="fill:none;stroke:#ffffff;stroke-linecap:round;stroke-width:0.8;"/>
     </g>
     <g id="line2d_12"/>
     <g id="text_6">
      <!-- 0.025 -->
      <g style="fill:#262626;" transform="translate(807.856218 331.7975)scale(0.08 -0.08)">
       <use xlink:href="#LiberationSans-30"/>
       <use x="55.615234" xlink:href="#LiberationSans-2e"/>
       <use x="83.398438" xlink:href="#LiberationSans-30"/>
       <use x="139.013672" xlink:href="#LiberationSans-32"/>
       <use x="194.628906" xlink:href="#LiberationSans-35"/>
      </g>
     </g>
    </g>
    <g id="xtick_7">
     <g id="line2d_13">
      <path clip-path="url(#pf7451fef05)" d="M 944.521598 320.4 
L 944.521598 43.2 
" style="fill:none;stroke:#ffffff;stroke-linecap:round;stroke-width:0.8;"/>
     </g>
     <g id="line2d_14"/>
     <g id="text_7">
      <!-- 0.030 -->
      <defs>
       <path d="M 51.21875 19 
Q 51.21875 14.265625 49.671875 10.546875 
Q 48.140625 6.84375 45.1875 4.265625 
Q 42.234375 1.703125 37.859375 0.359375 
Q 33.5 -0.984375 27.875 -0.984375 
Q 21.484375 -0.984375 17.109375 0.609375 
Q 12.75 2.203125 9.90625 4.8125 
Q 7.078125 7.421875 5.65625 10.765625 
Q 4.25 14.109375 3.8125 17.671875 
L 12.890625 18.5 
Q 13.28125 15.765625 14.328125 13.515625 
Q 15.375 11.28125 17.1875 9.671875 
Q 19 8.0625 21.625 7.171875 
Q 24.265625 6.296875 27.875 6.296875 
Q 34.515625 6.296875 38.296875 9.5625 
Q 42.09375 12.84375 42.09375 19.28125 
Q 42.09375 23.09375 40.40625 25.40625 
Q 38.71875 27.734375 36.203125 29.03125 
Q 33.6875 30.328125 30.734375 30.765625 
Q 27.78125 31.203125 25.296875 31.203125 
L 20.3125 31.203125 
L 20.3125 38.8125 
L 25.09375 38.8125 
Q 27.59375 38.8125 30.265625 39.328125 
Q 32.953125 39.84375 35.171875 41.1875 
Q 37.40625 42.53125 38.84375 44.828125 
Q 40.28125 47.125 40.28125 50.6875 
Q 40.28125 56.203125 37.03125 59.390625 
Q 33.796875 62.59375 27.390625 62.59375 
Q 21.578125 62.59375 17.984375 59.609375 
Q 14.40625 56.640625 13.8125 51.21875 
L 4.984375 51.90625 
Q 5.515625 56.453125 7.46875 59.8125 
Q 9.421875 63.1875 12.421875 65.40625 
Q 15.4375 67.625 19.28125 68.71875 
Q 23.140625 69.828125 27.484375 69.828125 
Q 33.25 69.828125 37.390625 68.375 
Q 41.546875 66.9375 44.1875 64.46875 
Q 46.828125 62.015625 48.0625 58.6875 
Q 49.3125 55.375 49.3125 51.609375 
Q 49.3125 48.578125 48.484375 45.9375 
Q 47.65625 43.3125 45.890625 41.203125 
Q 44.140625 39.109375 41.421875 37.59375 
Q 38.71875 36.078125 34.90625 35.296875 
L 34.90625 35.109375 
Q 39.0625 34.671875 42.140625 33.21875 
Q 45.21875 31.78125 47.21875 29.625 
Q 49.21875 27.484375 50.21875 24.75 
Q 51.21875 22.015625 51.21875 19 
" id="LiberationSans-33"/>
      </defs>
      <g style="fill:#262626;" transform="translate(934.512848 331.7975)scale(0.08 -0.08)">
       <use xlink:href="#LiberationSans-30"/>
       <use x="55.615234" xlink:href="#LiberationSans-2e"/>
       <use x="83.398438" xlink:href="#LiberationSans-30"/>
       <use x="139.013672" xlink:href="#LiberationSans-33"/>
       <use x="194.628906" xlink:href="#LiberationSans-30"/>
      </g>
     </g>
    </g>
   </g>
   <g id="matplotlib.axis_2">
    <g id="ytick_1">
     <g id="line2d_15">
      <path clip-path="url(#pf7451fef05)" d="M 144 307.320643 
L 1036.8 307.320643 
" style="fill:none;stroke:#ffffff;stroke-linecap:round;stroke-width:0.8;"/>
     </g>
     <g id="line2d_16"/>
     <g id="text_8">
      <!-- −5.0 -->
      <defs>
       <path d="M 4.9375 29.6875 
L 4.9375 36.8125 
L 53.515625 36.8125 
L 53.515625 29.6875 
z
" id="LiberationSans-2212"/>
      </defs>
      <g style="fill:#262626;" transform="translate(122.6075 310.219393)scale(0.08 -0.08)">
       <use xlink:href="#LiberationSans-2212"/>
       <use x="58.398438" xlink:href="#LiberationSans-35"/>
       <use x="114.013672" xlink:href="#LiberationSans-2e"/>
       <use x="141.796875" xlink:href="#LiberationSans-30"/>
      </g>
     </g>
    </g>
    <g id="ytick_2">
     <g id="line2d_17">
      <path clip-path="url(#pf7451fef05)" d="M 144 276.488031 
L 1036.8 276.488031 
" style="fill:none;stroke:#ffffff;stroke-linecap:round;stroke-width:0.8;"/>
     </g>
     <g id="line2d_18"/>
     <g id="text_9">
      <!-- −2.5 -->
      <g style="fill:#262626;" transform="translate(122.6075 279.386781)scale(0.08 -0.08)">
       <use xlink:href="#LiberationSans-2212"/>
       <use x="58.398438" xlink:href="#LiberationSans-32"/>
       <use x="114.013672" xlink:href="#LiberationSans-2e"/>
       <use x="141.796875" xlink:href="#LiberationSans-35"/>
      </g>
     </g>
    </g>
    <g id="ytick_3">
     <g id="line2d_19">
      <path clip-path="url(#pf7451fef05)" d="M 144 245.65542 
L 1036.8 245.65542 
" style="fill:none;stroke:#ffffff;stroke-linecap:round;stroke-width:0.8;"/>
     </g>
     <g id="line2d_20"/>
     <g id="text_10">
      <!-- 0.0 -->
      <g style="fill:#262626;" transform="translate(127.28 248.55417)scale(0.08 -0.08)">
       <use xlink:href="#LiberationSans-30"/>
       <use x="55.615234" xlink:href="#LiberationSans-2e"/>
       <use x="83.398438" xlink:href="#LiberationSans-30"/>
      </g>
     </g>
    </g>
    <g id="ytick_4">
     <g id="line2d_21">
      <path clip-path="url(#pf7451fef05)" d="M 144 214.822808 
L 1036.8 214.822808 
" style="fill:none;stroke:#ffffff;stroke-linecap:round;stroke-width:0.8;"/>
     </g>
     <g id="line2d_22"/>
     <g id="text_11">
      <!-- 2.5 -->
      <g style="fill:#262626;" transform="translate(127.28 217.721558)scale(0.08 -0.08)">
       <use xlink:href="#LiberationSans-32"/>
       <use x="55.615234" xlink:href="#LiberationSans-2e"/>
       <use x="83.398438" xlink:href="#LiberationSans-35"/>
      </g>
     </g>
    </g>
    <g id="ytick_5">
     <g id="line2d_23">
      <path clip-path="url(#pf7451fef05)" d="M 144 183.990197 
L 1036.8 183.990197 
" style="fill:none;stroke:#ffffff;stroke-linecap:round;stroke-width:0.8;"/>
     </g>
     <g id="line2d_24"/>
     <g id="text_12">
      <!-- 5.0 -->
      <g style="fill:#262626;" transform="translate(127.28 186.888947)scale(0.08 -0.08)">
       <use xlink:href="#LiberationSans-35"/>
       <use x="55.615234" xlink:href="#LiberationSans-2e"/>
       <use x="83.398438" xlink:href="#LiberationSans-30"/>
      </g>
     </g>
    </g>
    <g id="ytick_6">
     <g id="line2d_25">
      <path clip-path="url(#pf7451fef05)" d="M 144 153.157585 
L 1036.8 153.157585 
" style="fill:none;stroke:#ffffff;stroke-linecap:round;stroke-width:0.8;"/>
     </g>
     <g id="line2d_26"/>
     <g id="text_13">
      <!-- 7.5 -->
      <defs>
       <path d="M 50.59375 61.671875 
Q 45.40625 53.765625 41.0625 46.453125 
Q 36.71875 39.15625 33.59375 31.75 
Q 30.46875 24.359375 28.734375 16.578125 
Q 27 8.796875 27 0 
L 17.828125 0 
Q 17.828125 8.25 19.78125 16.1875 
Q 21.734375 24.125 25.046875 31.765625 
Q 28.375 39.40625 32.765625 46.78125 
Q 37.15625 54.15625 42.09375 61.328125 
L 5.125 61.328125 
L 5.125 68.796875 
L 50.59375 68.796875 
z
" id="LiberationSans-37"/>
      </defs>
      <g style="fill:#262626;" transform="translate(127.28 156.056335)scale(0.08 -0.08)">
       <use xlink:href="#LiberationSans-37"/>
       <use x="55.615234" xlink:href="#LiberationSans-2e"/>
       <use x="83.398438" xlink:href="#LiberationSans-35"/>
      </g>
     </g>
    </g>
    <g id="ytick_7">
     <g id="line2d_27">
      <path clip-path="url(#pf7451fef05)" d="M 144 122.324974 
L 1036.8 122.324974 
" style="fill:none;stroke:#ffffff;stroke-linecap:round;stroke-width:0.8;"/>
     </g>
     <g id="line2d_28"/>
     <g id="text_14">
      <!-- 10.0 -->
      <g style="fill:#262626;" transform="translate(122.83125 125.223724)scale(0.08 -0.08)">
       <use xlink:href="#LiberationSans-31"/>
       <use x="55.615234" xlink:href="#LiberationSans-30"/>
       <use x="111.230469" xlink:href="#LiberationSans-2e"/>
       <use x="139.013672" xlink:href="#LiberationSans-30"/>
      </g>
     </g>
    </g>
    <g id="ytick_8">
     <g id="line2d_29">
      <path clip-path="url(#pf7451fef05)" d="M 144 91.492362 
L 1036.8 91.492362 
" style="fill:none;stroke:#ffffff;stroke-linecap:round;stroke-width:0.8;"/>
     </g>
     <g id="line2d_30"/>
     <g id="text_15">
      <!-- 12.5 -->
      <g style="fill:#262626;" transform="translate(122.83125 94.391112)scale(0.08 -0.08)">
       <use xlink:href="#LiberationSans-31"/>
       <use x="55.615234" xlink:href="#LiberationSans-32"/>
       <use x="111.230469" xlink:href="#LiberationSans-2e"/>
       <use x="139.013672" xlink:href="#LiberationSans-35"/>
      </g>
     </g>
    </g>
    <g id="ytick_9">
     <g id="line2d_31">
      <path clip-path="url(#pf7451fef05)" d="M 144 60.659751 
L 1036.8 60.659751 
" style="fill:none;stroke:#ffffff;stroke-linecap:round;stroke-width:0.8;"/>
     </g>
     <g id="line2d_32"/>
     <g id="text_16">
      <!-- 15.0 -->
      <g style="fill:#262626;" transform="translate(122.83125 63.558501)scale(0.08 -0.08)">
       <use xlink:href="#LiberationSans-31"/>
       <use x="55.615234" xlink:href="#LiberationSans-35"/>
       <use x="111.230469" xlink:href="#LiberationSans-2e"/>
       <use x="139.013672" xlink:href="#LiberationSans-30"/>
      </g>
     </g>
    </g>
   </g>
   <g id="line2d_33">
    <path clip-path="url(#pf7451fef05)" d="M 184.581818 158.950277 
L 185.156225 160.127936 
L 185.730631 159.951937 
L 186.305038 158.572723 
L 186.879444 156.209694 
L 188.028257 149.681228 
L 189.17707 142.984965 
L 189.751477 140.437376 
L 190.325883 138.845302 
L 190.90029 138.470402 
L 191.474696 139.512983 
L 192.049102 142.101003 
L 192.623509 146.282893 
L 193.197915 152.024604 
L 194.346728 167.651641 
L 196.069948 197.690891 
L 197.793167 227.554778 
L 198.94198 242.873871 
L 199.516387 248.405586 
L 200.090793 252.339874 
L 200.6652 254.641469 
L 201.239606 255.356385 
L 201.814013 254.608675 
L 202.388419 252.592994 
L 202.962826 249.563409 
L 204.111639 241.687307 
L 205.260452 233.603049 
L 205.834858 230.281265 
L 206.409265 227.79862 
L 206.983671 226.355373 
L 207.558078 226.082582 
L 208.132484 227.034666 
L 208.706891 229.186146 
L 209.281297 232.432729 
L 210.43011 241.436177 
L 212.153329 256.918375 
L 212.727736 261.264732 
L 213.302142 264.647692 
L 213.876549 266.778828 
L 214.450955 267.422898 
L 215.025362 266.410887 
L 215.599768 263.649566 
L 216.174175 259.127059 
L 216.748581 252.914109 
L 217.897394 236.090144 
L 219.620614 204.023715 
L 221.343833 172.164555 
L 222.492646 155.472968 
L 223.067053 149.187551 
L 223.641459 144.420819 
L 224.215866 141.180566 
L 224.790272 139.393511 
L 225.364679 138.91013 
L 225.939085 139.513558 
L 226.513492 140.932048 
L 228.811118 148.312275 
L 229.385524 148.974579 
L 229.959931 148.621189 
L 230.534337 147.075186 
L 231.108743 144.232026 
L 231.68315 140.065532 
L 232.257556 134.629636 
L 233.406369 120.545972 
L 236.852808 72.772952 
L 237.427215 67.411967 
L 238.001621 63.519434 
L 238.576028 61.241673 
L 239.150434 60.647469 
L 239.724841 61.724096 
L 240.299247 64.377688 
L 240.873654 68.437934 
L 242.022467 79.77118 
L 244.320093 106.054692 
L 244.894499 111.370174 
L 245.468906 115.596383 
L 246.043312 118.535277 
L 246.617719 120.062451 
L 247.192125 120.133546 
L 247.766532 118.786409 
L 248.340938 116.138865 
L 248.915345 112.382248 
L 250.064157 102.609015 
L 251.787377 87.243424 
L 252.361783 83.303016 
L 252.93619 80.459662 
L 253.510596 78.943842 
L 254.085003 78.918684 
L 254.659409 80.471339 
L 255.233816 83.608458 
L 255.808222 88.255977 
L 256.957035 101.411292 
L 258.680255 126.755091 
L 259.829068 143.537037 
L 260.977881 157.251872 
L 261.552287 162.36105 
L 262.126694 166.115468 
L 262.7011 168.469175 
L 263.275507 169.456777 
L 263.849913 169.19149 
L 264.42432 167.858963 
L 264.998726 165.707154 
L 267.296352 155.223756 
L 267.870759 153.806766 
L 268.445165 153.475196 
L 269.019572 154.450601 
L 269.593978 156.886571 
L 270.168384 160.85991 
L 270.742791 166.36588 
L 271.891604 181.550868 
L 273.040417 200.863722 
L 275.338043 241.532528 
L 276.486856 257.288236 
L 277.061262 263.021775 
L 277.635669 267.103284 
L 278.210075 269.462991 
L 278.784482 270.113232 
L 279.358888 269.147069 
L 279.933295 266.732637 
L 280.507701 263.103496 
L 281.656514 253.381165 
L 283.379734 237.642498 
L 283.95414 233.372312 
L 284.528547 230.022 
L 285.102953 227.761994 
L 285.67736 226.689138 
L 286.251766 226.82151 
L 286.826173 228.09754 
L 287.400579 230.379474 
L 288.549392 237.078524 
L 290.272611 247.973782 
L 290.847018 250.506267 
L 291.421424 251.969262 
L 291.995831 252.109906 
L 292.570237 250.735774 
L 293.144644 247.725978 
L 293.71905 243.038459 
L 294.293457 236.713106 
L 295.44227 219.706402 
L 297.165489 187.145187 
L 298.888709 154.346266 
L 300.037522 136.916031 
L 300.611928 130.298466 
L 301.186335 125.26415 
L 301.760741 121.851799 
L 302.335148 120.0177 
L 302.909554 119.638754 
L 303.483961 120.519701 
L 304.058367 122.404175 
L 305.20718 127.940745 
L 306.355993 133.571567 
L 306.9304 135.599701 
L 307.504806 136.728418 
L 308.079213 136.744499 
L 308.653619 135.50337 
L 309.228025 132.936934 
L 309.802432 129.05724 
L 310.376838 123.955818 
L 311.525651 110.817444 
L 314.397684 74.44573 
L 314.97209 69.179597 
L 315.546497 65.23974 
L 316.120903 62.802641 
L 316.69531 61.970955 
L 317.269716 62.767693 
L 317.844123 65.134687 
L 318.418529 68.935398 
L 319.567342 79.945957 
L 322.439375 112.558507 
L 323.013781 117.282325 
L 323.588188 120.776089 
L 324.162594 122.887961 
L 324.737001 123.543976 
L 325.311407 122.752009 
L 325.885814 120.601388 
L 326.46022 117.258166 
L 327.609033 107.985331 
L 329.332252 92.448068 
L 329.906659 88.229251 
L 330.481065 85.02872 
L 331.055472 83.105303 
L 331.629878 82.654815 
L 332.204285 83.799763 
L 332.778691 86.582977 
L 333.353098 90.965494 
L 333.927504 96.828804 
L 335.076317 112.168881 
L 338.522756 164.783962 
L 339.097163 171.171686 
L 339.671569 176.259257 
L 340.245976 179.959933 
L 340.820382 182.266714 
L 341.394789 183.25236 
L 341.969195 183.065089 
L 342.543602 181.920175 
L 343.118008 180.087912 
L 344.841228 173.665087 
L 345.415634 172.321062 
L 345.990041 171.883437 
L 346.564447 172.593713 
L 347.138854 174.63085 
L 347.71326 178.100863 
L 348.287666 183.030312 
L 348.862073 189.36403 
L 350.010886 205.631786 
L 353.457325 262.231981 
L 354.031731 269.189368 
L 354.606138 274.64276 
L 355.180544 278.415094 
L 355.754951 280.406486 
L 356.329357 280.59905 
L 356.903764 279.057379 
L 357.47817 275.924673 
L 358.052577 271.414728 
L 359.20139 259.39782 
L 361.499016 232.798319 
L 362.073422 227.503877 
L 362.647829 223.249435 
L 363.222235 220.173642 
L 363.796642 218.33795 
L 364.371048 217.723773 
L 364.945455 218.234005 
L 365.519861 219.6988 
L 366.094268 221.885307 
L 367.817487 229.796091 
L 368.391893 231.792493 
L 368.9663 232.938451 
L 369.540706 232.962921 
L 370.115113 231.648699 
L 370.689519 228.844968 
L 371.263926 224.476295 
L 371.838332 218.547589 
L 372.987145 202.430992 
L 374.135958 182.059154 
L 376.433584 138.815032 
L 377.582397 121.507196 
L 378.156804 114.924345 
L 378.73121 109.94182 
L 379.305617 106.62685 
L 379.880023 104.964047 
L 380.45443 104.856615 
L 381.028836 106.131867 
L 381.603243 108.550748 
L 382.752056 115.61228 
L 383.900869 123.35953 
L 384.475275 126.632032 
L 385.049682 129.095782 
L 385.624088 130.505173 
L 386.198494 130.679128 
L 386.772901 129.51065 
L 387.347307 126.97238 
L 387.921714 123.117854 
L 388.49612 118.078411 
L 389.644933 105.311669 
L 391.942559 77.564919 
L 392.516966 72.103935 
L 393.091372 67.821206 
L 393.665779 64.924989 
L 394.240185 63.554041 
L 394.814592 63.769999 
L 395.388998 65.553907 
L 395.963405 68.807097 
L 396.537811 73.356362 
L 397.686624 85.336323 
L 399.98425 111.749281 
L 400.558657 116.921983 
L 401.133063 120.968673 
L 401.70747 123.711189 
L 402.281876 125.04594 
L 402.856283 124.949642 
L 403.430689 123.480783 
L 404.005096 120.776711 
L 404.579502 117.046509 
L 405.728315 107.63369 
L 406.877128 97.857924 
L 407.451534 93.716601 
L 408.025941 90.514096 
L 408.600347 88.531537 
L 409.174754 87.991945 
L 409.74916 89.048401 
L 410.323567 91.775937 
L 410.897973 96.167563 
L 411.47238 102.134651 
L 412.621193 118.064851 
L 414.344412 147.702544 
L 416.067632 176.046769 
L 417.216445 190.131825 
L 417.790851 195.144501 
L 418.365258 198.712343 
L 418.939664 200.866721 
L 419.514071 201.717079 
L 420.088477 201.444344 
L 420.662884 200.290458 
L 421.811697 196.526943 
L 422.96051 193.002522 
L 423.534916 192.126094 
L 424.109323 192.202931 
L 424.683729 193.438511 
L 425.258135 195.970164 
L 425.832542 199.858838 
L 426.406948 205.084969 
L 427.555761 219.074349 
L 429.278981 245.336017 
L 430.427794 262.54809 
L 431.576607 276.249464 
L 432.151013 281.035564 
L 432.72542 284.156701 
L 433.299826 285.486608 
L 433.874233 284.979804 
L 434.448639 282.673915 
L 435.023046 278.687606 
L 435.597452 273.21426 
L 436.746265 258.888642 
L 439.618298 219.160594 
L 440.192704 213.149023 
L 440.767111 208.332127 
L 441.341517 204.812119 
L 441.915924 202.611291 
L 442.49033 201.6716 
L 443.064737 201.858572 
L 443.639143 202.969344 
L 444.21355 204.744383 
L 445.936769 210.934908 
L 446.511175 212.196328 
L 447.085582 212.550675 
L 447.659988 211.754361 
L 448.234395 209.624397 
L 448.808801 206.049026 
L 449.383208 200.994515 
L 449.957614 194.507735 
L 451.106427 177.812956 
L 455.127273 110.507347 
L 455.701679 104.123256 
L 456.276086 99.302257 
L 456.850492 96.139375 
L 457.424899 94.648024 
L 457.999305 94.759368 
L 458.573712 96.326063 
L 459.148118 99.130143 
L 460.296931 107.298425 
L 462.020151 120.838006 
L 462.594557 124.323681 
L 463.168964 126.806539 
L 463.74337 128.074133 
L 464.317776 127.985074 
L 464.892183 126.476372 
L 465.466589 123.566581 
L 466.040996 119.35458 
L 467.189809 107.78399 
L 470.061841 74.38688 
L 470.636248 69.58204 
L 471.210654 66.060704 
L 471.785061 63.998297 
L 472.359467 63.496121 
L 472.933874 64.575979 
L 473.50828 67.179099 
L 474.082687 71.169389 
L 475.2315 82.428909 
L 478.103532 115.225867 
L 478.677939 120.004019 
L 479.252345 123.593811 
L 479.826752 125.860543 
L 480.401158 126.747251 
L 480.975565 126.278021 
L 481.549971 124.556955 
L 482.124378 121.762828 
L 483.273191 113.984151 
L 484.99641 101.730696 
L 485.570816 98.872991 
L 486.145223 97.151441 
L 486.719629 96.810734 
L 487.294036 98.02985 
L 487.868442 100.91232 
L 488.442849 105.480469 
L 489.017255 111.673955 
L 490.166068 128.303928 
L 491.889288 159.828257 
L 493.612507 191.018148 
L 494.76132 207.255915 
L 495.335727 213.318983 
L 495.910133 217.867007 
L 496.48454 220.891451 
L 497.058946 222.463989 
L 497.633353 222.731769 
L 498.207759 221.908601 
L 498.782166 220.262588 
L 501.079792 211.80565 
L 501.654198 210.807281 
L 502.228605 210.786837 
L 502.803011 211.91537 
L 503.377417 214.291386 
L 503.951824 217.934869 
L 504.52623 222.785559 
L 505.675043 235.486321 
L 508.547076 271.642106 
L 509.121482 276.938816 
L 509.695889 280.863809 
L 510.270295 283.196479 
L 510.844702 283.786381 
L 511.419108 282.561475 
L 511.993515 279.532243 
L 512.567921 274.791454 
L 513.142328 268.509593 
L 514.291141 252.337482 
L 517.163173 206.57954 
L 518.311986 193.115034 
L 518.886393 188.351389 
L 519.460799 185.005743 
L 520.035206 183.056049 
L 520.609612 182.400835 
L 521.184019 182.865498 
L 521.758425 184.212501 
L 522.907238 188.37268 
L 524.056051 192.296132 
L 524.630457 193.360004 
L 525.204864 193.451332 
L 525.77927 192.353863 
L 526.353677 189.917947 
L 526.928083 186.069115 
L 527.50249 180.812582 
L 528.651303 166.492455 
L 530.374522 138.844174 
L 532.097742 111.428656 
L 533.246555 97.677917 
L 533.820961 92.919568 
L 534.395368 89.761852 
L 534.969774 88.249035 
L 535.544181 88.343402 
L 536.118587 89.927142 
L 536.692994 92.808505 
L 537.841807 101.391397 
L 539.565026 116.324205 
L 540.139433 120.460622 
L 540.713839 123.658806 
L 541.288246 125.680597 
L 541.862652 126.355065 
L 542.437058 125.58754 
L 543.011465 123.364568 
L 543.585871 119.754553 
L 544.160278 114.904033 
L 545.309091 102.407292 
L 547.606717 75.113783 
L 548.181123 69.799616 
L 548.75553 65.687229 
L 549.329936 62.986989 
L 549.904343 61.838539 
L 550.478749 62.30358 
L 551.053156 64.36284 
L 551.627562 67.91741 
L 552.201969 72.794343 
L 553.350782 85.514283 
L 555.648408 113.862107 
L 556.797221 124.393146 
L 557.371627 127.911022 
L 557.946034 130.114206 
L 558.52044 130.988569 
L 559.094847 130.600352 
L 559.669253 129.092695 
L 560.24366 126.678006 
L 561.392472 120.251973 
L 562.541285 113.901382 
L 563.115692 111.610552 
L 563.690098 110.329676 
L 564.264505 110.320614 
L 564.838911 111.784714 
L 565.413318 114.85156 
L 565.987724 119.571503 
L 566.562131 125.912383 
L 567.710944 142.9266 
L 569.434163 175.516546 
L 571.157383 208.424494 
L 572.306196 225.963245 
L 572.880602 232.635655 
L 573.455009 237.718205 
L 574.029415 241.165829 
L 574.603822 243.01517 
L 575.178228 243.381701 
L 575.752635 242.452637 
L 576.327041 240.476044 
L 577.475854 234.589546 
L 578.624667 228.332576 
L 579.199074 225.867911 
L 579.77348 224.210448 
L 580.347887 223.566516 
L 580.922293 224.074275 
L 581.496699 225.795918 
L 582.071106 228.714016 
L 582.645512 232.732197 
L 583.794325 243.322553 
L 586.091951 266.63695 
L 586.666358 270.967349 
L 587.240764 274.073546 
L 587.815171 275.716274 
L 588.389577 275.721302 
L 588.963984 273.989283 
L 589.53839 270.501645 
L 590.112797 265.322201 
L 590.687203 258.594402 
L 591.836016 241.41995 
L 595.282455 183.963298 
L 595.856862 177.033051 
L 596.431268 171.506253 
L 597.005675 167.475111 
L 597.580081 164.950156 
L 598.154488 163.86042 
L 598.728894 164.057953 
L 599.303301 165.326424 
L 599.877707 167.39335 
L 602.175333 177.13432 
L 602.749739 178.298599 
L 603.324146 178.395247 
L 603.898552 177.237329 
L 604.472959 174.709833 
L 605.047365 170.776061 
L 605.621772 165.479763 
L 606.770585 151.359346 
L 610.79143 94.269584 
L 611.365837 89.332277 
L 611.940243 85.906821 
L 612.51465 84.071234 
L 613.089056 83.822751 
L 613.663463 85.077803 
L 614.237869 87.676339 
L 614.812276 91.390258 
L 615.961089 100.987094 
L 617.684308 115.689325 
L 618.258715 119.32561 
L 618.833121 121.860492 
L 619.407528 123.097583 
L 619.981934 122.913561 
L 620.55634 121.264885 
L 621.130747 118.190262 
L 621.705153 113.80874 
L 622.853966 101.961887 
L 625.151592 74.552095 
L 625.725999 68.946671 
L 626.300405 64.478958 
L 626.874812 61.390248 
L 627.449218 59.854938 
L 628.023625 59.971553 
L 628.598031 61.757838 
L 629.172438 65.150156 
L 629.746844 70.007243 
L 630.895657 83.213583 
L 633.76769 121.981727 
L 634.916503 133.172902 
L 635.490909 136.951007 
L 636.065316 139.418021 
L 636.639722 140.598801 
L 637.214129 140.596778 
L 637.788535 139.58816 
L 638.362942 137.812164 
L 640.660567 129.215605 
L 641.234974 128.344394 
L 641.80938 128.584503 
L 642.383787 130.157871 
L 642.958193 133.219442 
L 643.5326 137.84806 
L 644.107006 144.041389 
L 645.255819 160.706801 
L 646.404632 181.652053 
L 648.702258 226.026106 
L 649.851071 243.799383 
L 650.425478 250.562258 
L 650.999884 255.677035 
L 651.574291 259.066397 
L 652.148697 260.735378 
L 652.723104 260.770339 
L 653.29751 259.333641 
L 653.871917 256.654303 
L 655.02073 248.737133 
L 656.743949 235.474656 
L 657.318356 231.98114 
L 657.892762 229.392859 
L 658.467169 227.887699 
L 659.041575 227.570564 
L 659.615981 228.467805 
L 660.190388 230.525943 
L 660.764794 233.614723 
L 661.913607 242.026589 
L 663.636827 255.793482 
L 664.211233 259.366067 
L 664.78564 261.906166 
L 665.360046 263.155679 
L 665.934453 262.915503 
L 666.508859 261.056913 
L 667.083266 257.529199 
L 667.657672 252.363137 
L 668.232079 245.670115 
L 669.380892 228.516663 
L 672.827331 169.758955 
L 673.976144 156.561783 
L 674.55055 152.201789 
L 675.124957 149.415066 
L 675.699363 148.159598 
L 676.27377 148.313613 
L 676.848176 149.682518 
L 677.422583 152.009693 
L 678.571395 158.289161 
L 679.720208 164.448952 
L 680.294615 166.647705 
L 680.869021 167.875056 
L 681.443428 167.90979 
L 682.017834 166.598963 
L 682.592241 163.866091 
L 683.166647 159.715205 
L 683.741054 154.230575 
L 684.889867 139.966675 
L 687.761899 98.600645 
L 688.910712 86.592774 
L 689.485119 82.614827 
L 690.059525 80.164331 
L 690.633932 79.276835 
L 691.208338 79.907067 
L 691.782745 81.93135 
L 692.357151 85.15424 
L 693.505964 94.121624 
L 695.229184 108.958776 
L 695.80359 112.925533 
L 696.377997 115.910823 
L 696.952403 117.695318 
L 697.526809 118.128482 
L 698.101216 117.136958 
L 698.675622 114.728849 
L 699.250029 110.993646 
L 700.398842 100.276329 
L 703.270874 68.542316 
L 703.845281 64.092895 
L 704.419687 60.987399 
L 704.994094 59.429828 
L 705.5685 59.551053 
L 706.142907 61.402093 
L 706.717313 64.951638 
L 707.29172 70.087938 
L 708.440533 84.31248 
L 710.163752 111.113471 
L 711.312565 128.64499 
L 712.461378 142.99422 
L 713.035785 148.426684 
L 713.610191 152.542994 
L 714.184598 155.325137 
L 714.759004 156.834893 
L 715.333411 157.20994 
L 715.907817 156.655823 
L 716.482224 155.434246 
L 718.205443 150.899026 
L 718.779849 150.189762 
L 719.354256 150.387427 
L 719.928662 151.734508 
L 720.503069 154.412235 
L 721.077475 158.5299 
L 721.651882 164.118021 
L 722.800695 179.422464 
L 723.949508 199.002758 
L 726.247134 241.203346 
L 727.395947 258.176289 
L 727.970353 264.558748 
L 728.54476 269.272843 
L 729.119166 272.21301 
L 729.693573 273.355622 
L 730.267979 272.759816 
L 730.842386 270.563948 
L 731.416792 266.977877 
L 732.565605 256.760103 
L 734.863231 233.576938 
L 735.437638 229.118036 
L 736.012044 225.703111 
L 736.58645 223.477779 
L 737.160857 222.510626 
L 737.735263 222.789989 
L 738.30967 224.225074 
L 738.884076 226.651368 
L 740.032889 233.510848 
L 741.181702 241.016648 
L 741.756109 244.183811 
L 742.330515 246.534642 
L 742.904922 247.791189 
L 743.479328 247.727788 
L 744.053735 246.183896 
L 744.628141 243.073426 
L 745.202548 238.390083 
L 745.776954 232.208411 
L 746.925767 216.028458 
L 750.946613 150.960026 
L 751.521019 144.922861 
L 752.095426 140.40457 
L 752.669832 137.474408 
L 753.244239 136.119374 
L 753.818645 136.245099 
L 754.393052 137.681048 
L 754.967458 140.18976 
L 756.116271 147.220598 
L 757.265084 154.650249 
L 757.83949 157.649961 
L 758.413897 159.759595 
L 758.988303 160.728649 
L 759.56271 160.370757 
L 760.137116 158.573556 
L 760.711523 155.304595 
L 761.285929 150.612959 
L 762.434742 137.545026 
L 764.157962 112.556361 
L 765.306775 96.12622 
L 766.455588 82.956426 
L 767.029994 78.246281 
L 767.604401 75.011585 
L 768.178807 73.328017 
L 768.753214 73.190956 
L 769.32762 74.515938 
L 769.902027 77.143427 
L 770.476433 80.847637 
L 771.625246 90.329169 
L 773.348466 104.756635 
L 773.922872 108.327048 
L 774.497279 110.836499 
L 775.071685 112.106982 
L 775.646091 112.033997 
L 776.220498 110.592602 
L 776.794904 107.839218 
L 777.369311 103.909058 
L 778.518124 93.408524 
L 780.241343 75.693966 
L 780.81575 70.663451 
L 781.390156 66.634203 
L 781.964563 63.891692 
L 782.538969 62.663925 
L 783.113376 63.109344 
L 783.687782 65.308407 
L 784.262189 69.259284 
L 784.836595 74.877899 
L 785.985408 90.401228 
L 787.708628 120.166669 
L 789.431847 149.454472 
L 790.58066 164.528924 
L 791.155067 170.11526 
L 791.729473 174.295073 
L 792.30388 177.08902 
L 792.878286 178.596344 
L 793.452693 178.988658 
L 794.027099 178.499819 
L 794.601506 177.412443 
L 795.750318 174.717882 
L 796.324725 173.766837 
L 796.899131 173.492395 
L 797.473538 174.158653 
L 798.047944 175.974939 
L 798.622351 179.083638 
L 799.196757 183.551615 
L 799.771164 189.365731 
L 800.919977 204.583076 
L 802.643196 232.900531 
L 804.366416 259.9533 
L 804.940822 267.075772 
L 805.515229 272.76731 
L 806.089635 276.823343 
L 806.664042 279.112788 
L 807.238448 279.584927 
L 807.812855 278.27205 
L 808.387261 275.287722 
L 808.961668 270.82077 
L 810.110481 258.507317 
L 812.982513 223.768118 
L 813.55692 218.7625 
L 814.131326 214.963782 
L 814.705732 212.479152 
L 815.280139 211.335731 
L 815.854545 211.479776 
L 816.428952 212.780237 
L 817.003358 215.036463 
L 818.152171 221.337408 
L 819.300984 227.891874 
L 819.875391 230.434004 
L 820.449797 232.078474 
L 821.024204 232.571903 
L 821.59861 231.720266 
L 822.173017 229.399869 
L 822.747423 225.56452 
L 823.32183 220.248513 
L 824.470643 205.701692 
L 826.193862 177.774693 
L 827.917082 150.397758 
L 829.065895 136.77884 
L 829.640301 132.064834 
L 830.214708 128.904524 
L 830.789114 127.31567 
L 831.363521 127.234182 
L 831.937927 128.517509 
L 832.512334 130.952219 
L 833.661146 138.138952 
L 835.384366 149.633328 
L 835.958772 152.286776 
L 836.533179 153.860506 
L 837.107585 154.140135 
L 837.681992 152.982069 
L 838.256398 150.321159 
L 838.830805 146.174179 
L 839.405211 140.638941 
L 840.554024 126.164931 
L 843.426057 84.184724 
L 844.57487 72.062889 
L 845.149276 68.071899 
L 845.723683 65.63919 
L 846.298089 64.800803 
L 846.872496 65.511958 
L 847.446902 67.649914 
L 848.021309 71.021012 
L 849.170122 80.401848 
L 850.893341 96.243233 
L 851.467748 100.682753 
L 852.042154 104.228569 
L 852.616561 106.673815 
L 853.190967 107.880548 
L 853.765373 107.787567 
L 854.33978 106.414087 
L 854.914186 103.859071 
L 855.488593 100.296244 
L 856.637406 91.158139 
L 857.786219 81.457964 
L 858.360625 77.266638 
L 858.935032 73.965845 
L 859.509438 71.85428 
L 860.083845 71.179049 
L 860.658251 72.122234 
L 861.232658 74.790878 
L 861.807064 79.210913 
L 862.381471 85.325373 
L 863.530284 102.014988 
L 865.253503 134.184587 
L 866.976723 166.630716 
L 868.125536 183.967197 
L 868.699942 190.632966 
L 869.274349 195.806864 
L 869.848755 199.471103 
L 870.423162 201.688608 
L 870.997568 202.598635 
L 871.571975 202.408312 
L 872.146381 201.380542 
L 874.444007 195.20847 
L 875.018413 194.739968 
L 875.59282 195.241161 
L 876.167226 196.889709 
L 876.741633 199.79165 
L 877.316039 203.975043 
L 877.890446 209.387853 
L 879.039259 223.310781 
L 881.911291 263.354938 
L 882.485698 269.591261 
L 883.060104 274.507066 
L 883.634511 277.877643 
L 884.208917 279.547348 
L 884.783324 279.438153 
L 885.35773 277.55409 
L 885.932137 273.981357 
L 886.506543 268.884083 
L 887.655356 255.108208 
L 890.527389 215.338841 
L 891.101795 209.186729 
L 891.676202 204.25518 
L 892.250608 200.6852 
L 892.825014 198.5387 
L 893.399421 197.795826 
L 893.973827 198.356657 
L 894.548234 200.047178 
L 895.12264 202.6292 
L 897.994673 217.957968 
L 898.569079 219.237832 
L 899.143486 219.289944 
L 899.717892 217.952722 
L 900.292299 215.13934 
L 900.866705 210.842636 
L 901.441112 205.135705 
L 902.589925 190.15827 
L 906.036364 137.610987 
L 906.61077 131.147484 
L 907.185177 126.037874 
L 907.759583 122.412054 
L 908.33399 120.321416 
L 908.908396 119.736006 
L 909.482803 120.546041 
L 910.057209 122.56771 
L 910.631616 125.552945 
L 913.503648 143.619219 
L 914.078054 145.517192 
L 914.652461 146.187073 
L 915.226867 145.458252 
L 915.801274 143.236076 
L 916.37568 139.507117 
L 916.950087 134.340135 
L 918.0989 120.353423 
L 921.545339 70.456367 
L 922.119745 64.51847 
L 922.694152 60.007946 
L 923.268558 57.077001 
L 923.842965 55.8 
L 924.417371 56.170045 
L 924.991778 58.099903 
L 925.566184 61.427239 
L 926.140591 65.923851 
L 927.289404 77.262123 
L 929.012623 95.161555 
L 930.161436 104.044593 
L 930.735843 106.875454 
L 931.310249 108.474314 
L 931.884655 108.819575 
L 932.459062 107.969673 
L 933.033468 106.060003 
L 933.607875 103.29565 
L 936.479907 87.07478 
L 937.054314 85.661714 
L 937.62872 85.55267 
L 938.203127 86.95106 
L 938.777533 89.989315 
L 939.35194 94.721124 
L 939.926346 101.117829 
L 941.075159 118.38842 
L 942.223972 140.059374 
L 944.521598 185.895553 
L 945.670411 204.461425 
L 946.244818 211.690734 
L 946.819224 217.349608 
L 947.393631 221.385785 
L 947.968037 223.829065 
L 948.542444 224.788787 
L 949.11685 224.447067 
L 949.691257 223.048194 
L 950.265663 220.884721 
L 951.988882 213.100502 
L 952.563289 211.166396 
L 953.137695 210.041995 
L 953.712102 209.940888 
L 954.286508 211.009364 
L 954.860915 213.318239 
L 955.435321 216.858805 
L 956.009728 221.543109 
L 957.158541 233.626473 
L 959.456167 260.70358 
L 960.030573 266.1444 
L 960.60498 270.424304 
L 961.179386 273.298742 
L 961.753793 274.58682 
L 962.328199 274.181443 
L 962.902606 272.055551 
L 963.477012 268.264086 
L 964.051419 262.941602 
L 965.200232 248.596149 
L 968.646671 199.333049 
L 969.221077 193.691368 
L 969.795483 189.429314 
L 970.36989 186.639797 
L 970.944296 185.334088 
L 971.518703 185.441673 
L 972.093109 186.814451 
L 972.667516 189.235054 
L 973.816329 196.078928 
L 974.965142 203.373975 
L 975.539548 206.334659 
L 976.113955 208.420094 
L 976.688361 209.371948 
L 977.262768 208.992856 
L 977.837174 207.157057 
L 978.411581 203.817153 
L 978.985987 199.006652 
L 980.1348 185.497266 
L 981.85802 159.158617 
L 983.581239 133.286639 
L 984.730052 120.512264 
L 985.304459 116.141432 
L 985.878865 113.257297 
L 986.453272 111.86782 
L 987.027678 111.9005 
L 987.602085 113.206312 
L 988.176491 115.567763 
L 989.325304 122.318954 
L 990.474117 129.562225 
L 991.048523 132.515642 
L 991.62293 134.6084 
L 992.197336 135.584223 
L 992.771743 135.24835 
L 993.346149 133.478379 
L 993.920556 130.231273 
L 994.494962 125.546141 
L 995.643775 112.415161 
L 996.218182 104.422858 
L 996.218182 104.422858 
" style="fill:none;stroke:#4c72b0;stroke-linecap:round;stroke-width:1.4;"/>
   </g>
   <g id="line2d_34">
    <path clip-path="url(#pf7451fef05)" d="M 184.581818 270.744968 
L 207.558078 270.324008 
L 229.959931 270.134315 
L 252.361783 270.164172 
L 274.763636 270.412689 
L 297.739896 270.891198 
L 320.716155 271.589945 
L 344.266821 272.525452 
L 368.9663 273.731783 
L 394.814592 275.222614 
L 421.811697 277.004327 
L 451.106427 279.162768 
L 483.847597 281.80104 
L 524.056051 285.27425 
L 663.636827 297.536086 
L 695.80359 300.013077 
L 724.523914 302.004823 
L 750.946613 303.619969 
L 776.220498 304.945183 
L 800.34557 305.991306 
L 823.896236 306.792388 
L 846.872496 307.354127 
L 869.848755 307.691486 
L 892.250608 307.8 
L 914.652461 307.689106 
L 937.054314 307.35951 
L 960.030573 306.797609 
L 983.006833 306.015041 
L 996.218182 305.468405 
L 996.218182 305.468405 
" style="fill:none;stroke:#55a868;stroke-linecap:round;stroke-width:1.4;"/>
   </g>
   <g id="patch_3">
    <path d="M 144 320.4 
L 144 43.2 
" style="fill:none;"/>
   </g>
   <g id="patch_4">
    <path d="M 1036.8 320.4 
L 1036.8 43.2 
" style="fill:none;"/>
   </g>
   <g id="patch_5">
    <path d="M 144 320.4 
L 1036.8 320.4 
" style="fill:none;"/>
   </g>
   <g id="patch_6">
    <path d="M 144 43.2 
L 1036.8 43.2 
" style="fill:none;"/>
   </g>
   <g id="legend_1">
    <g id="line2d_35">
     <path d="M 1002.75125 53.3975 
L 1018.75125 53.3975 
" style="fill:none;stroke:#4c72b0;stroke-linecap:round;stroke-width:1.4;"/>
    </g>
    <g id="line2d_36"/>
    <g id="text_17">
     <!-- a -->
     <defs>
      <path d="M 20.21875 -0.984375 
Q 12.25 -0.984375 8.25 3.21875 
Q 4.25 7.421875 4.25 14.75 
Q 4.25 19.96875 6.21875 23.3125 
Q 8.203125 26.65625 11.390625 28.5625 
Q 14.59375 30.46875 18.6875 31.203125 
Q 22.796875 31.9375 27.046875 32.03125 
L 38.921875 32.234375 
L 38.921875 35.109375 
Q 38.921875 38.375 38.234375 40.671875 
Q 37.546875 42.96875 36.125 44.375 
Q 34.71875 45.796875 32.59375 46.453125 
Q 30.46875 47.125 27.59375 47.125 
Q 25.046875 47.125 23 46.75 
Q 20.953125 46.390625 19.4375 45.4375 
Q 17.921875 44.484375 16.984375 42.84375 
Q 16.0625 41.21875 15.765625 38.71875 
L 6.59375 39.546875 
Q 7.078125 42.671875 8.4375 45.28125 
Q 9.8125 47.90625 12.328125 49.796875 
Q 14.84375 51.703125 18.625 52.75 
Q 22.40625 53.8125 27.78125 53.8125 
Q 37.75 53.8125 42.765625 49.234375 
Q 47.796875 44.671875 47.796875 36.03125 
L 47.796875 13.28125 
Q 47.796875 9.375 48.828125 7.390625 
Q 49.859375 5.421875 52.734375 5.421875 
Q 53.46875 5.421875 54.203125 5.515625 
Q 54.9375 5.609375 55.609375 5.765625 
L 55.609375 0.296875 
Q 53.953125 -0.09375 52.3125 -0.28125 
Q 50.6875 -0.484375 48.828125 -0.484375 
Q 46.34375 -0.484375 44.5625 0.171875 
Q 42.78125 0.828125 41.65625 2.171875 
Q 40.53125 3.515625 39.9375 5.484375 
Q 39.359375 7.46875 39.203125 10.109375 
L 38.921875 10.109375 
Q 37.5 7.5625 35.8125 5.515625 
Q 34.125 3.46875 31.875 2.03125 
Q 29.640625 0.59375 26.78125 -0.1875 
Q 23.921875 -0.984375 20.21875 -0.984375 
M 22.21875 5.609375 
Q 26.421875 5.609375 29.5625 7.140625 
Q 32.71875 8.6875 34.78125 11.078125 
Q 36.859375 13.484375 37.890625 16.3125 
Q 38.921875 19.140625 38.921875 21.734375 
L 38.921875 26.078125 
L 29.296875 25.875 
Q 26.078125 25.828125 23.171875 25.40625 
Q 20.265625 25 18.0625 23.78125 
Q 15.875 22.5625 14.578125 20.359375 
Q 13.28125 18.171875 13.28125 14.59375 
Q 13.28125 10.296875 15.59375 7.953125 
Q 17.921875 5.609375 22.21875 5.609375 
" id="LiberationSans-61"/>
     </defs>
     <g style="fill:#262626;" transform="translate(1025.15125 56.1975)scale(0.08 -0.08)">
      <use xlink:href="#LiberationSans-61"/>
     </g>
    </g>
    <g id="line2d_37">
     <path d="M 1002.75125 64.855 
L 1018.75125 64.855 
" style="fill:none;stroke:#55a868;stroke-linecap:round;stroke-width:1.4;"/>
    </g>
    <g id="line2d_38"/>
    <g id="text_18">
     <!-- b -->
     <defs>
      <path d="M 51.421875 26.65625 
Q 51.421875 -0.984375 31.984375 -0.984375 
Q 25.984375 -0.984375 22 1.1875 
Q 18.015625 3.375 15.53125 8.203125 
L 15.4375 8.203125 
Q 15.4375 6.9375 15.359375 5.5625 
Q 15.28125 4.203125 15.203125 3.03125 
Q 15.140625 1.859375 15.0625 1.03125 
Q 14.984375 0.203125 14.9375 0 
L 6.453125 0 
Q 6.5 0.4375 6.546875 1.484375 
Q 6.59375 2.546875 6.640625 4 
Q 6.6875 5.46875 6.703125 7.21875 
Q 6.734375 8.984375 6.734375 10.890625 
L 6.734375 72.46875 
L 15.53125 72.46875 
L 15.53125 51.8125 
Q 15.53125 50.34375 15.5 49 
Q 15.484375 47.65625 15.4375 46.625 
Q 15.375 45.40625 15.328125 44.34375 
L 15.53125 44.34375 
Q 17.96875 49.421875 22 51.609375 
Q 26.03125 53.8125 31.984375 53.8125 
Q 42 53.8125 46.703125 47.0625 
Q 51.421875 40.328125 51.421875 26.65625 
M 42.1875 26.375 
Q 42.1875 31.84375 41.5 35.75 
Q 40.828125 39.65625 39.3125 42.15625 
Q 37.796875 44.671875 35.453125 45.84375 
Q 33.109375 47.015625 29.734375 47.015625 
Q 26.265625 47.015625 23.609375 45.890625 
Q 20.953125 44.78125 19.171875 42.28125 
Q 17.390625 39.796875 16.453125 35.734375 
Q 15.53125 31.6875 15.53125 25.828125 
Q 15.53125 20.171875 16.453125 16.3125 
Q 17.390625 12.453125 19.171875 10.03125 
Q 20.953125 7.625 23.578125 6.5625 
Q 26.21875 5.515625 29.640625 5.515625 
Q 32.859375 5.515625 35.203125 6.640625 
Q 37.546875 7.765625 39.109375 10.25 
Q 40.671875 12.75 41.421875 16.71875 
Q 42.1875 20.703125 42.1875 26.375 
" id="LiberationSans-62"/>
     </defs>
     <g style="fill:#262626;" transform="translate(1025.15125 67.655)scale(0.08 -0.08)">
      <use xlink:href="#LiberationSans-62"/>
     </g>
    </g>
   </g>
  </g>
 </g>
 <defs>
  <clipPath id="pf7451fef05">
   <rect height="277.2" width="892.8" x="144" y="43.2"/>
  </clipPath>
 </defs>
</svg>
