<?xml version="1.0" encoding="utf-8" standalone="no"?>
<!DOCTYPE svg PUBLIC "-//W3C//DTD SVG 1.1//EN"
  "http://www.w3.org/Graphics/SVG/1.1/DTD/svg11.dtd">
<!-- Created with matplotlib (http://matplotlib.org/) -->
<svg height="360pt" version="1.1" viewBox="0 0 1152 360" width="1152pt" xmlns="http://www.w3.org/2000/svg" xmlns:xlink="http://www.w3.org/1999/xlink">
 <defs>
  <style type="text/css">
*{stroke-linecap:butt;stroke-linejoin:round;}
  </style>
 </defs>
 <g id="figure_1">
  <g id="patch_1">
   <path d="M 0 360 
L 1152 360 
L 1152 0 
L 0 0 
z
" style="fill:#ffffff;"/>
  </g>
  <g id="axes_1">
   <g id="patch_2">
    <path d="M 144 320.4 
L 1036.8 320.4 
L 1036.8 43.2 
L 144 43.2 
z
" style="fill:#eaeaf2;"/>
   </g>
   <g id="matplotlib.axis_1">
    <g id="xtick_1">
     <g id="line2d_1">
      <path clip-path="url(#p8dbfdbb3c3)" d="M 184.581818 320.4 
L 184.581818 43.2 
" style="fill:none;stroke:#ffffff;stroke-linecap:round;stroke-width:0.8;"/>
     </g>
     <g id="line2d_2"/>
     <g id="text_1">
      <!-- 0 -->
      <defs>
       <path d="M 51.703125 34.421875 
Q 51.703125 24.515625 49.828125 17.75 
Q 47.953125 10.984375 44.703125 6.8125 
Q 41.453125 2.640625 37.0625 0.828125 
Q 32.671875 -0.984375 27.6875 -0.984375 
Q 22.65625 -0.984375 18.3125 0.828125 
Q 13.96875 2.640625 10.765625 6.78125 
Q 7.5625 10.9375 5.734375 17.703125 
Q 3.90625 24.46875 3.90625 34.421875 
Q 3.90625 44.828125 5.734375 51.640625 
Q 7.5625 58.453125 10.78125 62.5 
Q 14.015625 66.546875 18.40625 68.1875 
Q 22.796875 69.828125 27.984375 69.828125 
Q 32.90625 69.828125 37.21875 68.1875 
Q 41.546875 66.546875 44.765625 62.5 
Q 48 58.453125 49.84375 51.640625 
Q 51.703125 44.828125 51.703125 34.421875 
M 42.78125 34.421875 
Q 42.78125 42.625 41.796875 48.0625 
Q 40.828125 53.515625 38.921875 56.765625 
Q 37.015625 60.015625 34.25 61.359375 
Q 31.5 62.703125 27.984375 62.703125 
Q 24.265625 62.703125 21.4375 61.328125 
Q 18.609375 59.96875 16.671875 56.71875 
Q 14.75 53.46875 13.765625 48.015625 
Q 12.796875 42.578125 12.796875 34.421875 
Q 12.796875 26.515625 13.796875 21.09375 
Q 14.796875 15.671875 16.71875 12.375 
Q 18.65625 9.078125 21.4375 7.640625 
Q 24.21875 6.203125 27.78125 6.203125 
Q 31.25 6.203125 34.03125 7.640625 
Q 36.8125 9.078125 38.734375 12.375 
Q 40.671875 15.671875 41.71875 21.09375 
Q 42.78125 26.515625 42.78125 34.421875 
" id="LiberationSans-30"/>
      </defs>
      <g style="fill:#262626;" transform="translate(182.357443 331.7975)scale(0.08 -0.08)">
       <use xlink:href="#LiberationSans-30"/>
      </g>
     </g>
    </g>
    <g id="xtick_2">
     <g id="line2d_3">
      <path clip-path="url(#p8dbfdbb3c3)" d="M 299.625952 320.4 
L 299.625952 43.2 
" style="fill:none;stroke:#ffffff;stroke-linecap:round;stroke-width:0.8;"/>
     </g>
     <g id="line2d_4"/>
     <g id="text_2">
      <!-- 200 -->
      <defs>
       <path d="M 5.03125 0 
L 5.03125 6.203125 
Q 7.515625 11.921875 11.109375 16.28125 
Q 14.703125 20.65625 18.65625 24.1875 
Q 22.609375 27.734375 26.484375 30.765625 
Q 30.375 33.796875 33.5 36.8125 
Q 36.625 39.84375 38.546875 43.15625 
Q 40.484375 46.484375 40.484375 50.6875 
Q 40.484375 53.609375 39.59375 55.828125 
Q 38.71875 58.0625 37.0625 59.5625 
Q 35.40625 61.078125 33.078125 61.828125 
Q 30.765625 62.59375 27.9375 62.59375 
Q 25.296875 62.59375 22.96875 61.859375 
Q 20.65625 61.140625 18.84375 59.671875 
Q 17.046875 58.203125 15.890625 56.03125 
Q 14.75 53.859375 14.40625 50.984375 
L 5.421875 51.8125 
Q 5.859375 55.515625 7.46875 58.78125 
Q 9.078125 62.0625 11.90625 64.53125 
Q 14.75 67 18.71875 68.40625 
Q 22.703125 69.828125 27.9375 69.828125 
Q 33.0625 69.828125 37.0625 68.609375 
Q 41.0625 67.390625 43.8125 64.984375 
Q 46.578125 62.59375 48.046875 59.078125 
Q 49.515625 55.5625 49.515625 50.984375 
Q 49.515625 47.515625 48.265625 44.390625 
Q 47.015625 41.265625 44.9375 38.421875 
Q 42.875 35.59375 40.140625 32.953125 
Q 37.40625 30.328125 34.421875 27.8125 
Q 31.453125 25.296875 28.421875 22.828125 
Q 25.390625 20.359375 22.71875 17.859375 
Q 20.0625 15.375 17.96875 12.8125 
Q 15.875 10.25 14.703125 7.46875 
L 50.59375 7.46875 
L 50.59375 0 
z
" id="LiberationSans-32"/>
      </defs>
      <g style="fill:#262626;" transform="translate(292.952827 331.7975)scale(0.08 -0.08)">
       <use xlink:href="#LiberationSans-32"/>
       <use x="55.615234" xlink:href="#LiberationSans-30"/>
       <use x="111.230469" xlink:href="#LiberationSans-30"/>
      </g>
     </g>
    </g>
    <g id="xtick_3">
     <g id="line2d_5">
      <path clip-path="url(#p8dbfdbb3c3)" d="M 414.670086 320.4 
L 414.670086 43.2 
" style="fill:none;stroke:#ffffff;stroke-linecap:round;stroke-width:0.8;"/>
     </g>
     <g id="line2d_6"/>
     <g id="text_3">
      <!-- 400 -->
      <defs>
       <path d="M 43.015625 15.578125 
L 43.015625 0 
L 34.71875 0 
L 34.71875 15.578125 
L 2.296875 15.578125 
L 2.296875 22.40625 
L 33.796875 68.796875 
L 43.015625 68.796875 
L 43.015625 22.515625 
L 52.6875 22.515625 
L 52.6875 15.578125 
z
M 34.71875 58.890625 
Q 34.625 58.640625 34.234375 57.9375 
Q 33.84375 57.234375 33.34375 56.34375 
Q 32.859375 55.46875 32.34375 54.5625 
Q 31.84375 53.65625 31.453125 53.078125 
L 13.8125 27.09375 
Q 13.578125 26.703125 13.109375 26.0625 
Q 12.640625 25.4375 12.15625 24.78125 
Q 11.671875 24.125 11.171875 23.484375 
Q 10.6875 22.859375 10.40625 22.515625 
L 34.71875 22.515625 
z
" id="LiberationSans-34"/>
      </defs>
      <g style="fill:#262626;" transform="translate(407.996961 331.7975)scale(0.08 -0.08)">
       <use xlink:href="#LiberationSans-34"/>
       <use x="55.615234" xlink:href="#LiberationSans-30"/>
       <use x="111.230469" xlink:href="#LiberationSans-30"/>
      </g>
     </g>
    </g>
    <g id="xtick_4">
     <g id="line2d_7">
      <path clip-path="url(#p8dbfdbb3c3)" d="M 529.714219 320.4 
L 529.714219 43.2 
" style="fill:none;stroke:#ffffff;stroke-linecap:round;stroke-width:0.8;"/>
     </g>
     <g id="line2d_8"/>
     <g id="text_4">
      <!-- 600 -->
      <defs>
       <path d="M 51.21875 22.515625 
Q 51.21875 17.328125 49.78125 13 
Q 48.34375 8.6875 45.53125 5.578125 
Q 42.71875 2.484375 38.5625 0.75 
Q 34.421875 -0.984375 29 -0.984375 
Q 23 -0.984375 18.5 1.3125 
Q 14.015625 3.609375 11.03125 7.921875 
Q 8.0625 12.25 6.5625 18.53125 
Q 5.078125 24.8125 5.078125 32.8125 
Q 5.078125 42 6.765625 48.921875 
Q 8.453125 55.859375 11.625 60.5 
Q 14.796875 65.140625 19.359375 67.484375 
Q 23.921875 69.828125 29.6875 69.828125 
Q 33.203125 69.828125 36.28125 69.09375 
Q 39.359375 68.359375 41.875 66.71875 
Q 44.390625 65.09375 46.28125 62.40625 
Q 48.1875 59.71875 49.3125 55.8125 
L 40.921875 54.296875 
Q 39.546875 58.734375 36.546875 60.71875 
Q 33.546875 62.703125 29.59375 62.703125 
Q 25.984375 62.703125 23.046875 60.984375 
Q 20.125 59.28125 18.0625 55.875 
Q 16.015625 52.484375 14.90625 47.359375 
Q 13.8125 42.234375 13.8125 35.40625 
Q 16.21875 39.84375 20.5625 42.15625 
Q 24.90625 44.484375 30.515625 44.484375 
Q 35.203125 44.484375 39.015625 42.96875 
Q 42.828125 41.453125 45.53125 38.59375 
Q 48.25 35.75 49.734375 31.671875 
Q 51.21875 27.59375 51.21875 22.515625 
M 42.28125 22.125 
Q 42.28125 25.6875 41.40625 28.5625 
Q 40.53125 31.453125 38.765625 33.46875 
Q 37.015625 35.5 34.421875 36.59375 
Q 31.84375 37.703125 28.421875 37.703125 
Q 26.03125 37.703125 23.578125 36.984375 
Q 21.140625 36.28125 19.15625 34.6875 
Q 17.1875 33.109375 15.9375 30.515625 
Q 14.703125 27.9375 14.703125 24.21875 
Q 14.703125 20.40625 15.671875 17.109375 
Q 16.65625 13.8125 18.484375 11.375 
Q 20.3125 8.9375 22.890625 7.515625 
Q 25.484375 6.109375 28.71875 6.109375 
Q 31.890625 6.109375 34.40625 7.203125 
Q 36.921875 8.296875 38.671875 10.375 
Q 40.4375 12.453125 41.359375 15.421875 
Q 42.28125 18.40625 42.28125 22.125 
" id="LiberationSans-36"/>
      </defs>
      <g style="fill:#262626;" transform="translate(523.041094 331.7975)scale(0.08 -0.08)">
       <use xlink:href="#LiberationSans-36"/>
       <use x="55.615234" xlink:href="#LiberationSans-30"/>
       <use x="111.230469" xlink:href="#LiberationSans-30"/>
      </g>
     </g>
    </g>
    <g id="xtick_5">
     <g id="line2d_9">
      <path clip-path="url(#p8dbfdbb3c3)" d="M 644.758353 320.4 
L 644.758353 43.2 
" style="fill:none;stroke:#ffffff;stroke-linecap:round;stroke-width:0.8;"/>
     </g>
     <g id="line2d_10"/>
     <g id="text_5">
      <!-- 800 -->
      <defs>
       <path d="M 51.265625 19.1875 
Q 51.265625 14.796875 49.875 11.109375 
Q 48.484375 7.421875 45.625 4.734375 
Q 42.78125 2.046875 38.328125 0.53125 
Q 33.890625 -0.984375 27.828125 -0.984375 
Q 21.78125 -0.984375 17.359375 0.53125 
Q 12.9375 2.046875 10.03125 4.703125 
Q 7.125 7.375 5.734375 11.0625 
Q 4.34375 14.75 4.34375 19.09375 
Q 4.34375 22.859375 5.484375 25.78125 
Q 6.640625 28.71875 8.5625 30.828125 
Q 10.5 32.953125 12.96875 34.25 
Q 15.4375 35.546875 18.0625 35.984375 
L 18.0625 36.1875 
Q 15.1875 36.859375 12.90625 38.375 
Q 10.640625 39.890625 9.09375 42.015625 
Q 7.5625 44.140625 6.75 46.71875 
Q 5.953125 49.3125 5.953125 52.203125 
Q 5.953125 55.8125 7.34375 59 
Q 8.734375 62.203125 11.46875 64.625 
Q 14.203125 67.046875 18.25 68.4375 
Q 22.3125 69.828125 27.640625 69.828125 
Q 33.25 69.828125 37.375 68.40625 
Q 41.5 67 44.203125 64.578125 
Q 46.921875 62.15625 48.234375 58.9375 
Q 49.5625 55.71875 49.5625 52.09375 
Q 49.5625 49.265625 48.75 46.671875 
Q 47.953125 44.09375 46.40625 41.96875 
Q 44.875 39.84375 42.59375 38.34375 
Q 40.328125 36.859375 37.359375 36.28125 
L 37.359375 36.078125 
Q 40.328125 35.59375 42.859375 34.296875 
Q 45.40625 33.015625 47.265625 30.890625 
Q 49.125 28.765625 50.1875 25.828125 
Q 51.265625 22.90625 51.265625 19.1875 
M 40.4375 51.609375 
Q 40.4375 54.203125 39.765625 56.34375 
Q 39.109375 58.5 37.59375 60.03125 
Q 36.078125 61.578125 33.640625 62.421875 
Q 31.203125 63.28125 27.640625 63.28125 
Q 24.171875 63.28125 21.78125 62.421875 
Q 19.390625 61.578125 17.84375 60.03125 
Q 16.3125 58.5 15.625 56.34375 
Q 14.9375 54.203125 14.9375 51.609375 
Q 14.9375 49.5625 15.46875 47.40625 
Q 16.015625 45.265625 17.421875 43.5 
Q 18.84375 41.75 21.328125 40.625 
Q 23.828125 39.5 27.734375 39.5 
Q 31.890625 39.5 34.40625 40.625 
Q 36.921875 41.75 38.25 43.5 
Q 39.59375 45.265625 40.015625 47.40625 
Q 40.4375 49.5625 40.4375 51.609375 
M 42.140625 20.015625 
Q 42.140625 22.515625 41.453125 24.828125 
Q 40.765625 27.15625 39.109375 28.9375 
Q 37.453125 30.71875 34.640625 31.8125 
Q 31.84375 32.90625 27.640625 32.90625 
Q 23.78125 32.90625 21.0625 31.8125 
Q 18.359375 30.71875 16.671875 28.90625 
Q 14.984375 27.09375 14.203125 24.71875 
Q 13.421875 22.359375 13.421875 19.828125 
Q 13.421875 16.65625 14.203125 14.03125 
Q 14.984375 11.421875 16.6875 9.546875 
Q 18.40625 7.671875 21.1875 6.640625 
Q 23.96875 5.609375 27.9375 5.609375 
Q 31.9375 5.609375 34.671875 6.640625 
Q 37.40625 7.671875 39.0625 9.546875 
Q 40.71875 11.421875 41.421875 14.078125 
Q 42.140625 16.75 42.140625 20.015625 
" id="LiberationSans-38"/>
      </defs>
      <g style="fill:#262626;" transform="translate(638.085228 331.7975)scale(0.08 -0.08)">
       <use xlink:href="#LiberationSans-38"/>
       <use x="55.615234" xlink:href="#LiberationSans-30"/>
       <use x="111.230469" xlink:href="#LiberationSans-30"/>
      </g>
     </g>
    </g>
    <g id="xtick_6">
     <g id="line2d_11">
      <path clip-path="url(#p8dbfdbb3c3)" d="M 759.802487 320.4 
L 759.802487 43.2 
" style="fill:none;stroke:#ffffff;stroke-linecap:round;stroke-width:0.8;"/>
     </g>
     <g id="line2d_12"/>
     <g id="text_6">
      <!-- 1000 -->
      <defs>
       <path d="M 7.625 0 
L 7.625 7.46875 
L 25.140625 7.46875 
L 25.140625 60.40625 
L 9.625 49.3125 
L 9.625 57.625 
L 25.875 68.796875 
L 33.984375 68.796875 
L 33.984375 7.46875 
L 50.734375 7.46875 
L 50.734375 0 
z
" id="LiberationSans-31"/>
      </defs>
      <g style="fill:#262626;" transform="translate(750.904987 331.7975)scale(0.08 -0.08)">
       <use xlink:href="#LiberationSans-31"/>
       <use x="55.615234" xlink:href="#LiberationSans-30"/>
       <use x="111.230469" xlink:href="#LiberationSans-30"/>
       <use x="166.845703" xlink:href="#LiberationSans-30"/>
      </g>
     </g>
    </g>
    <g id="xtick_7">
     <g id="line2d_13">
      <path clip-path="url(#p8dbfdbb3c3)" d="M 874.846621 320.4 
L 874.846621 43.2 
" style="fill:none;stroke:#ffffff;stroke-linecap:round;stroke-width:0.8;"/>
     </g>
     <g id="line2d_14"/>
     <g id="text_7">
      <!-- 1200 -->
      <g style="fill:#262626;" transform="translate(865.949121 331.7975)scale(0.08 -0.08)">
       <use xlink:href="#LiberationSans-31"/>
       <use x="55.615234" xlink:href="#LiberationSans-32"/>
       <use x="111.230469" xlink:href="#LiberationSans-30"/>
       <use x="166.845703" xlink:href="#LiberationSans-30"/>
      </g>
     </g>
    </g>
    <g id="xtick_8">
     <g id="line2d_15">
      <path clip-path="url(#p8dbfdbb3c3)" d="M 989.890754 320.4 
L 989.890754 43.2 
" style="fill:none;stroke:#ffffff;stroke-linecap:round;stroke-width:0.8;"/>
     </g>
     <g id="line2d_16"/>
     <g id="text_8">
      <!-- 1400 -->
      <g style="fill:#262626;" transform="translate(980.993254 331.7975)scale(0.08 -0.08)">
       <use xlink:href="#LiberationSans-31"/>
       <use x="55.615234" xlink:href="#LiberationSans-34"/>
       <use x="111.230469" xlink:href="#LiberationSans-30"/>
       <use x="166.845703" xlink:href="#LiberationSans-30"/>
      </g>
     </g>
    </g>
   </g>
   <g id="matplotlib.axis_2">
    <g id="ytick_1">
     <g id="line2d_17">
      <path clip-path="url(#p8dbfdbb3c3)" d="M 144 295.653193 
L 1036.8 295.653193 
" style="fill:none;stroke:#ffffff;stroke-linecap:round;stroke-width:0.8;"/>
     </g>
     <g id="line2d_18"/>
     <g id="text_9">
      <!-- −60000 -->
      <defs>
       <path d="M 4.9375 29.6875 
L 4.9375 36.8125 
L 53.515625 36.8125 
L 53.515625 29.6875 
z
" id="LiberationSans-2212"/>
      </defs>
      <g style="fill:#262626;" transform="translate(111.48375 298.551943)scale(0.08 -0.08)">
       <use xlink:href="#LiberationSans-2212"/>
       <use x="58.398438" xlink:href="#LiberationSans-36"/>
       <use x="114.013672" xlink:href="#LiberationSans-30"/>
       <use x="169.628906" xlink:href="#LiberationSans-30"/>
       <use x="225.244141" xlink:href="#LiberationSans-30"/>
       <use x="280.859375" xlink:href="#LiberationSans-30"/>
      </g>
     </g>
    </g>
    <g id="ytick_2">
     <g id="line2d_19">
      <path clip-path="url(#p8dbfdbb3c3)" d="M 144 257.636804 
L 1036.8 257.636804 
" style="fill:none;stroke:#ffffff;stroke-linecap:round;stroke-width:0.8;"/>
     </g>
     <g id="line2d_20"/>
     <g id="text_10">
      <!-- −40000 -->
      <g style="fill:#262626;" transform="translate(111.48375 260.535554)scale(0.08 -0.08)">
       <use xlink:href="#LiberationSans-2212"/>
       <use x="58.398438" xlink:href="#LiberationSans-34"/>
       <use x="114.013672" xlink:href="#LiberationSans-30"/>
       <use x="169.628906" xlink:href="#LiberationSans-30"/>
       <use x="225.244141" xlink:href="#LiberationSans-30"/>
       <use x="280.859375" xlink:href="#LiberationSans-30"/>
      </g>
     </g>
    </g>
    <g id="ytick_3">
     <g id="line2d_21">
      <path clip-path="url(#p8dbfdbb3c3)" d="M 144 219.620415 
L 1036.8 219.620415 
" style="fill:none;stroke:#ffffff;stroke-linecap:round;stroke-width:0.8;"/>
     </g>
     <g id="line2d_22"/>
     <g id="text_11">
      <!-- −20000 -->
      <g style="fill:#262626;" transform="translate(111.48375 222.519165)scale(0.08 -0.08)">
       <use xlink:href="#LiberationSans-2212"/>
       <use x="58.398438" xlink:href="#LiberationSans-32"/>
       <use x="114.013672" xlink:href="#LiberationSans-30"/>
       <use x="169.628906" xlink:href="#LiberationSans-30"/>
       <use x="225.244141" xlink:href="#LiberationSans-30"/>
       <use x="280.859375" xlink:href="#LiberationSans-30"/>
      </g>
     </g>
    </g>
    <g id="ytick_4">
     <g id="line2d_23">
      <path clip-path="url(#p8dbfdbb3c3)" d="M 144 181.604026 
L 1036.8 181.604026 
" style="fill:none;stroke:#ffffff;stroke-linecap:round;stroke-width:0.8;"/>
     </g>
     <g id="line2d_24"/>
     <g id="text_12">
      <!-- 0 -->
      <g style="fill:#262626;" transform="translate(133.95125 184.502776)scale(0.08 -0.08)">
       <use xlink:href="#LiberationSans-30"/>
      </g>
     </g>
    </g>
    <g id="ytick_5">
     <g id="line2d_25">
      <path clip-path="url(#p8dbfdbb3c3)" d="M 144 143.587636 
L 1036.8 143.587636 
" style="fill:none;stroke:#ffffff;stroke-linecap:round;stroke-width:0.8;"/>
     </g>
     <g id="line2d_26"/>
     <g id="text_13">
      <!-- 20000 -->
      <g style="fill:#262626;" transform="translate(116.15625 146.486386)scale(0.08 -0.08)">
       <use xlink:href="#LiberationSans-32"/>
       <use x="55.615234" xlink:href="#LiberationSans-30"/>
       <use x="111.230469" xlink:href="#LiberationSans-30"/>
       <use x="166.845703" xlink:href="#LiberationSans-30"/>
       <use x="222.460938" xlink:href="#LiberationSans-30"/>
      </g>
     </g>
    </g>
    <g id="ytick_6">
     <g id="line2d_27">
      <path clip-path="url(#p8dbfdbb3c3)" d="M 144 105.571247 
L 1036.8 105.571247 
" style="fill:none;stroke:#ffffff;stroke-linecap:round;stroke-width:0.8;"/>
     </g>
     <g id="line2d_28"/>
     <g id="text_14">
      <!-- 40000 -->
      <g style="fill:#262626;" transform="translate(116.15625 108.469997)scale(0.08 -0.08)">
       <use xlink:href="#LiberationSans-34"/>
       <use x="55.615234" xlink:href="#LiberationSans-30"/>
       <use x="111.230469" xlink:href="#LiberationSans-30"/>
       <use x="166.845703" xlink:href="#LiberationSans-30"/>
       <use x="222.460938" xlink:href="#LiberationSans-30"/>
      </g>
     </g>
    </g>
    <g id="ytick_7">
     <g id="line2d_29">
      <path clip-path="url(#p8dbfdbb3c3)" d="M 144 67.554858 
L 1036.8 67.554858 
" style="fill:none;stroke:#ffffff;stroke-linecap:round;stroke-width:0.8;"/>
     </g>
     <g id="line2d_30"/>
     <g id="text_15">
      <!-- 60000 -->
      <g style="fill:#262626;" transform="translate(116.15625 70.453608)scale(0.08 -0.08)">
       <use xlink:href="#LiberationSans-36"/>
       <use x="55.615234" xlink:href="#LiberationSans-30"/>
       <use x="111.230469" xlink:href="#LiberationSans-30"/>
       <use x="166.845703" xlink:href="#LiberationSans-30"/>
       <use x="222.460938" xlink:href="#LiberationSans-30"/>
      </g>
     </g>
    </g>
   </g>
   <g id="line2d_31">
    <path clip-path="url(#p8dbfdbb3c3)" d="M 184.581818 181.604025 
L 187.457922 181.604268 
L 188.033142 182.894201 
L 189.183584 191.388133 
L 189.758804 192.292866 
L 190.334025 187.319562 
L 191.484466 168.032175 
L 192.059687 164.008596 
L 192.634908 168.704304 
L 193.785349 193.468503 
L 194.36057 199.823874 
L 194.93579 195.67066 
L 196.086232 170.461232 
L 196.661452 164.1308 
L 197.236673 167.561361 
L 198.387114 189.371762 
L 198.962335 195.153979 
L 199.537556 193.377207 
L 200.687997 179.260049 
L 201.263218 174.662993 
L 201.838438 173.547668 
L 202.413659 174.872425 
L 203.5641 180.151739 
L 204.714542 185.945877 
L 205.289762 187.554997 
L 205.864983 187.301732 
L 206.440204 185.254929 
L 207.590645 179.415441 
L 208.165866 177.197964 
L 208.741086 175.724525 
L 209.316307 175.232079 
L 209.891528 176.311935 
L 210.466748 179.359443 
L 211.61719 188.237942 
L 212.19241 190.335573 
L 212.767631 189.006786 
L 214.493293 176.557084 
L 215.068514 174.552746 
L 215.643734 173.953151 
L 216.218955 174.539991 
L 216.794176 176.79845 
L 217.369396 181.2643 
L 218.519838 191.862558 
L 219.095058 193.058078 
L 219.670279 189.962917 
L 220.82072 178.137311 
L 221.395941 173.808138 
L 221.971162 170.89593 
L 222.546382 168.719834 
L 223.121603 168.370482 
L 223.696824 172.65204 
L 224.272044 183.561641 
L 225.422486 212.602019 
L 225.997706 213.026852 
L 226.572927 195.181199 
L 227.723368 140.161219 
L 228.298589 134.024994 
L 228.87381 152.367711 
L 230.024251 220.723841 
L 230.599472 232.883193 
L 231.174692 216.494897 
L 232.325134 150.286124 
L 232.900354 138.279218 
L 233.475575 151.400194 
L 234.626016 210.53868 
L 235.201237 218.845071 
L 235.776458 200.018727 
L 236.351678 166.344304 
L 236.926899 140.461168 
L 237.50212 140.312524 
L 238.07734 169.62086 
L 238.652561 215.003895 
L 239.227782 248.569705 
L 239.803002 243.10637 
L 240.378223 194.945668 
L 240.953444 131.027782 
L 241.528664 90.287898 
L 242.103885 98.120985 
L 242.679106 153.920681 
L 243.254326 230.646878 
L 243.829547 284.298458 
L 244.404768 280.145928 
L 244.979988 220.16671 
L 245.555209 142.08789 
L 246.13043 90.642021 
L 246.70565 90.387691 
L 247.280871 137.822451 
L 247.856092 205.318649 
L 248.431312 253.172349 
L 249.006533 253.871851 
L 249.581754 211.873435 
L 250.156974 158.13936 
L 250.732195 125.864776 
L 251.307416 131.536251 
L 251.882636 170.708319 
L 252.457857 219.891472 
L 253.033078 245.130933 
L 253.608298 224.817445 
L 254.75874 115.748234 
L 255.33396 98.117944 
L 255.909181 129.825133 
L 257.059622 266.865853 
L 257.634843 291.183416 
L 258.210064 250.680375 
L 259.360505 95.712267 
L 259.935726 70.419773 
L 260.510946 103.263272 
L 261.661388 246.897174 
L 262.236608 276.830899 
L 262.811829 252.133742 
L 263.96227 143.127068 
L 264.537491 121.168611 
L 265.112712 134.524149 
L 266.263153 206.586496 
L 266.838374 218.441336 
L 267.413594 201.220292 
L 267.988815 170.706114 
L 268.564036 149.685085 
L 269.139256 152.003514 
L 269.714477 177.653666 
L 270.289698 213.57923 
L 270.864918 236.338882 
L 271.440139 226.056209 
L 272.590581 138.078681 
L 273.165801 113.260632 
L 273.741022 123.483619 
L 274.316243 163.24804 
L 274.891463 212.156657 
L 275.466684 243.550591 
L 276.041905 241.843655 
L 276.617125 213.363297 
L 277.192346 177.954148 
L 277.767567 152.408579 
L 278.342787 142.699383 
L 278.918008 146.265701 
L 279.493229 157.366486 
L 280.64367 188.669999 
L 281.218891 204.977452 
L 281.794111 215.537645 
L 282.369332 215.022903 
L 282.944553 202.152834 
L 284.094994 161.268299 
L 284.670215 150.746883 
L 285.245435 152.27267 
L 285.820656 162.405559 
L 286.971097 189.084948 
L 287.546318 199.904013 
L 288.121539 206.931304 
L 288.696759 207.625484 
L 289.27198 199.461578 
L 290.422421 166.916051 
L 290.997642 156.164408 
L 291.572863 155.369105 
L 292.148083 163.599235 
L 293.298525 188.665418 
L 293.873745 197.09846 
L 294.448966 200.882897 
L 295.024187 199.949652 
L 295.599407 194.608501 
L 297.325069 170.310136 
L 297.90029 166.852583 
L 299.050731 163.257734 
L 299.625952 164.476255 
L 300.201173 173.355781 
L 300.776393 192.444513 
L 301.351614 218.455212 
L 301.926835 238.172413 
L 302.502055 231.754106 
L 303.077276 191.308317 
L 303.652497 134.844057 
L 304.227717 95.891894 
L 304.802938 99.154651 
L 305.378159 147.475572 
L 305.953379 220.131355 
L 306.5286 276.795544 
L 307.103821 279.974094 
L 307.679041 226.601174 
L 308.254262 151.90144 
L 308.829483 100.409382 
L 309.404703 97.108799 
L 309.979924 140.11636 
L 310.555145 203.67368 
L 311.130365 247.858989 
L 311.705586 244.278415 
L 312.856027 146.989153 
L 313.431248 122.480557 
L 314.006469 139.991096 
L 315.15691 244.668083 
L 315.732131 259.940787 
L 316.307351 217.330498 
L 316.882572 141.429256 
L 317.457793 82.947314 
L 318.033013 80.175158 
L 318.608234 139.345387 
L 319.183455 233.416943 
L 319.758675 307.278225 
L 320.333896 307.8 
L 320.909117 229.831427 
L 321.484337 124.217335 
L 322.059558 55.8 
L 322.634779 59.718539 
L 323.209999 130.487949 
L 323.78522 227.525733 
L 324.360441 291.5632 
L 324.935661 283.901947 
L 326.086103 140.919266 
L 326.661323 101.104131 
L 327.236544 114.261794 
L 328.386985 226.773389 
L 328.962206 249.223207 
L 329.537427 218.931938 
L 330.112647 159.798965 
L 330.687868 115.258203 
L 331.263089 115.077435 
L 331.838309 161.878272 
L 332.41353 231.736428 
L 332.988751 279.390542 
L 333.563971 265.237611 
L 334.714413 108.043073 
L 335.289633 65.77436 
L 335.864854 89.583645 
L 337.015295 256.106644 
L 337.590516 299.762575 
L 338.165737 270.916309 
L 339.316178 120.33016 
L 339.891399 90.745235 
L 340.466619 113.416119 
L 341.617061 222.376223 
L 342.192281 240.687957 
L 342.767502 219.709183 
L 343.342723 181.964286 
L 343.917943 154.948834 
L 344.493164 152.390711 
L 345.068385 171.819101 
L 345.643605 198.407422 
L 346.218826 211.392528 
L 346.794047 198.65584 
L 347.944488 143.097795 
L 348.519709 140.660564 
L 349.094929 164.520449 
L 349.67015 203.262723 
L 350.245371 233.94499 
L 350.820591 234.762913 
L 351.395812 203.918886 
L 351.971033 162.077477 
L 352.546253 134.290728 
L 353.121474 132.81094 
L 353.696695 154.147829 
L 354.271915 183.986722 
L 354.847136 206.302893 
L 355.422357 213.897047 
L 355.997577 209.900765 
L 356.572798 200.211299 
L 357.723239 172.815606 
L 358.29846 157.412866 
L 358.873681 148.124702 
L 359.448901 153.007337 
L 360.024122 172.425463 
L 360.599343 196.416332 
L 361.174563 212.44083 
L 361.749784 213.695751 
L 362.325005 201.461696 
L 363.475446 168.487706 
L 364.050667 160.559863 
L 364.625888 159.143563 
L 365.201108 163.157846 
L 365.776329 172.37971 
L 366.92677 200.823781 
L 367.501991 209.351048 
L 368.077212 205.038849 
L 369.802874 158.753514 
L 370.378094 158.956332 
L 370.953315 169.216366 
L 371.528536 182.815178 
L 372.103756 192.121868 
L 372.678977 193.62304 
L 373.254198 189.392196 
L 373.829418 184.213413 
L 374.404639 182.07663 
L 374.97986 184.455103 
L 375.55508 189.223974 
L 376.130301 189.719574 
L 376.705522 179.340169 
L 377.280742 160.627722 
L 377.855963 146.792608 
L 378.431184 151.664788 
L 379.006404 179.740059 
L 379.581625 221.129095 
L 380.156846 249.515743 
L 380.732066 237.025838 
L 381.882508 121.075661 
L 382.457728 92.429551 
L 383.032949 116.94499 
L 384.18339 253.724157 
L 384.758611 277.362368 
L 385.333832 237.566432 
L 385.909052 164.903274 
L 386.484273 109.77795 
L 387.059494 104.107616 
L 387.634714 147.653679 
L 388.209935 210.536018 
L 388.785156 248.087847 
L 389.360376 233.87428 
L 390.510818 134.671652 
L 391.086038 124.093972 
L 391.661259 157.688105 
L 392.23648 214.477748 
L 392.8117 252.561616 
L 393.386921 237.160987 
L 394.537362 110.126941 
L 395.112583 90.782491 
L 395.687804 132.958444 
L 396.838245 284.497854 
L 397.413466 285.376983 
L 397.988686 212.893035 
L 398.563907 119.31075 
L 399.139128 68.493102 
L 399.714348 90.775458 
L 400.86479 256.845873 
L 401.44001 286.902011 
L 402.015231 243.327625 
L 402.590452 164.489788 
L 403.165672 107.813834 
L 403.740893 106.306104 
L 404.316114 155.44989 
L 404.891334 218.801542 
L 405.466555 248.945877 
L 406.041776 224.43329 
L 406.616996 168.05392 
L 407.192217 124.848217 
L 407.767438 125.551521 
L 408.342658 170.631564 
L 408.917879 230.398441 
L 409.4931 258.32357 
L 410.06832 227.231296 
L 411.218762 101.270643 
L 411.793982 98.173448 
L 412.369203 152.950883 
L 412.944424 232.464252 
L 413.519644 280.036631 
L 414.094865 258.400173 
L 415.245306 114.779387 
L 415.820527 93.018045 
L 416.395748 128.725509 
L 416.970968 194.907994 
L 417.546189 244.516778 
L 418.12141 245.4497 
L 419.271851 160.062609 
L 419.847072 138.827414 
L 420.422292 149.493102 
L 421.572734 202.509238 
L 422.147954 204.46157 
L 423.298396 167.767029 
L 423.873616 162.01342 
L 424.448837 174.038745 
L 425.024058 195.356397 
L 425.599278 209.117057 
L 426.174499 202.085545 
L 427.32494 153.937028 
L 427.900161 147.846992 
L 428.475382 163.74845 
L 429.050602 191.716879 
L 429.625823 212.645548 
L 430.201044 212.691548 
L 431.926706 161.296811 
L 432.501926 160.397153 
L 433.077147 166.858875 
L 434.227588 186.248013 
L 434.802809 197.155295 
L 435.37803 203.880489 
L 435.95325 200.903236 
L 436.528471 186.708714 
L 437.103692 166.928236 
L 437.678912 154.15163 
L 438.254133 157.963914 
L 439.404574 192.921828 
L 439.979795 202.069959 
L 440.555016 200.413375 
L 441.705457 182.47139 
L 442.855898 165.094154 
L 443.431119 162.125758 
L 444.00634 168.099863 
L 445.156781 201.080202 
L 445.732002 208.836496 
L 446.307222 198.708987 
L 447.457664 159.982204 
L 448.032884 157.511709 
L 448.608105 170.579349 
L 449.183326 189.377218 
L 449.758546 199.720508 
L 450.333767 194.931298 
L 450.908988 181.096288 
L 451.484208 170.423881 
L 452.059429 171.335057 
L 453.20987 197.449979 
L 453.785091 198.101922 
L 454.360312 180.21788 
L 454.935533 156.289672 
L 455.510753 147.203185 
L 456.085974 165.164408 
L 457.236415 236.057751 
L 457.811636 229.265743 
L 458.962077 127.023325 
L 459.537298 109.155242 
L 460.112519 144.046114 
L 460.687739 211.457536 
L 461.26296 260.525479 
L 461.838181 249.155348 
L 462.988622 123.686627 
L 463.563843 106.423574 
L 464.139063 144.905094 
L 464.714284 209.323486 
L 465.289505 247.850815 
L 465.864725 230.6963 
L 467.015167 132.586453 
L 467.590387 130.619676 
L 468.165608 171.274307 
L 468.740829 221.566664 
L 469.316049 236.986301 
L 469.89127 202.09638 
L 470.466491 146.858947 
L 471.041711 117.952995 
L 471.616932 140.838101 
L 472.767373 255.70158 
L 473.342594 249.280231 
L 474.493035 113.666267 
L 475.068256 93.792629 
L 475.643477 141.884122 
L 476.218697 224.769355 
L 476.793918 275.283252 
L 477.369139 249.930692 
L 478.51958 107.535934 
L 479.094801 102.232077 
L 479.670021 157.434156 
L 480.245242 228.000748 
L 480.820463 255.410944 
L 481.395683 221.065988 
L 481.970904 160.198327 
L 482.546125 123.563644 
L 483.121345 136.926404 
L 484.271787 230.999671 
L 484.847007 228.60863 
L 485.997449 136.402539 
L 486.572669 127.363002 
L 487.14789 165.934202 
L 487.723111 223.346591 
L 488.298331 248.693829 
L 488.873552 215.82771 
L 489.448773 152.162803 
L 490.023993 111.058723 
L 490.599214 125.246819 
L 491.749655 243.990821 
L 492.324876 250.336897 
L 492.900097 202.18933 
L 493.475317 143.462372 
L 494.050538 119.223503 
L 494.625759 143.163373 
L 495.200979 192.379809 
L 495.7762 225.532153 
L 496.351421 220.173173 
L 497.501862 161.097985 
L 498.077083 154.395506 
L 498.652303 168.500213 
L 499.227524 187.643575 
L 499.802745 195.858119 
L 500.377965 189.981906 
L 500.953186 178.744984 
L 501.528407 173.088012 
L 502.103627 177.764826 
L 502.678848 188.152748 
L 503.254069 193.506083 
L 503.829289 187.024668 
L 504.40451 173.532823 
L 504.979731 164.893732 
L 505.554951 169.060138 
L 506.705393 197.828964 
L 507.280613 199.154995 
L 507.855834 188.036798 
L 508.431055 174.628379 
L 509.006275 167.84886 
L 509.581496 169.57277 
L 510.731937 183.228506 
L 511.307158 190.161914 
L 511.882379 195.018983 
L 512.457599 193.777786 
L 513.03282 184.328983 
L 513.608041 170.229465 
L 514.183261 161.629644 
L 514.758482 167.290494 
L 515.908923 197.163468 
L 516.484144 199.547381 
L 517.059365 190.944462 
L 517.634585 179.083292 
L 518.209806 171.304872 
L 518.785027 168.673682 
L 519.360247 170.03408 
L 519.935468 176.207238 
L 521.085909 200.128081 
L 521.66113 202.705403 
L 522.236351 188.235795 
L 522.811571 165.769515 
L 523.386792 153.730029 
L 523.962013 162.780248 
L 525.112454 208.227473 
L 525.687675 205.886234 
L 526.838116 162.515046 
L 527.413337 158.735457 
L 527.988557 174.476542 
L 528.563778 195.299962 
L 529.138999 201.396688 
L 529.714219 187.540513 
L 530.28944 167.99163 
L 530.864661 161.547909 
L 531.439881 176.093265 
L 532.015102 200.8675 
L 532.590323 210.505605 
L 533.165543 190.237681 
L 533.740764 155.997136 
L 534.315985 139.963154 
L 534.891205 161.012638 
L 535.466426 207.515996 
L 536.041647 237.824943 
L 536.616867 217.506323 
L 537.192088 161.520157 
L 537.767309 120.341565 
L 538.342529 130.659593 
L 539.492971 241.20574 
L 540.068191 241.010716 
L 541.218633 133.769143 
L 541.793853 123.200017 
L 542.369074 163.677606 
L 542.944295 217.934198 
L 543.519515 234.653426 
L 544.094736 201.489258 
L 544.669957 154.166647 
L 545.245178 135.576443 
L 545.820398 161.193596 
L 546.395619 207.304055 
L 546.97084 227.405981 
L 547.54606 200.13232 
L 548.121281 153.029007 
L 548.696502 131.615325 
L 549.271722 158.589474 
L 549.846943 213.765511 
L 550.422164 242.869908 
L 550.997384 211.895484 
L 551.572605 148.890923 
L 552.147826 113.156087 
L 552.723046 138.878166 
L 553.298267 207.545269 
L 553.873488 255.042186 
L 554.448708 233.185613 
L 555.023929 164.796657 
L 555.59915 114.617817 
L 556.17437 125.055977 
L 557.324812 239.540813 
L 557.900032 235.447968 
L 559.050474 137.10261 
L 559.625694 134.380827 
L 560.776136 218.694906 
L 561.351356 221.699341 
L 562.501798 148.249586 
L 563.077018 145.179573 
L 564.22746 218.605947 
L 564.80268 219.555027 
L 565.953122 141.096992 
L 566.528342 139.109306 
L 567.678784 225.185824 
L 568.254004 229.194842 
L 569.404446 142.276071 
L 569.979666 133.782829 
L 570.554887 168.097126 
L 571.130108 212.264243 
L 571.705328 224.357637 
L 572.280549 198.543406 
L 572.85577 164.402446 
L 573.43099 150.453016 
L 574.006211 163.336124 
L 574.581432 186.887999 
L 575.156652 199.593419 
L 575.731873 195.906114 
L 576.882314 175.213014 
L 577.457535 172.956894 
L 578.032756 176.508119 
L 578.607976 181.257592 
L 579.183197 183.823498 
L 579.758418 183.644916 
L 580.333638 182.723163 
L 580.908859 183.490904 
L 581.48408 185.18842 
L 582.0593 183.9718 
L 583.209742 173.907684 
L 583.784962 174.879782 
L 584.935404 189.646868 
L 585.510624 190.387807 
L 586.661066 177.946279 
L 587.236286 174.946595 
L 587.811507 175.57071 
L 588.386728 178.276052 
L 588.961948 182.934626 
L 589.537169 188.830998 
L 590.11239 191.568596 
L 590.68761 186.93054 
L 591.262831 176.402927 
L 591.838052 168.528421 
L 592.413272 171.501835 
L 593.563714 191.704543 
L 594.138934 192.396422 
L 595.864596 174.45531 
L 596.439817 171.054554 
L 597.015038 172.357565 
L 597.590258 181.871383 
L 598.165479 196.343056 
L 598.7407 202.434726 
L 599.31592 188.932977 
L 599.891141 165.106167 
L 600.466362 153.856813 
L 601.041582 167.817667 
L 601.616803 196.620043 
L 602.192024 212.105145 
L 602.767244 197.561823 
L 603.342465 168.727418 
L 603.917686 153.96478 
L 604.492906 165.849369 
L 605.068127 192.172981 
L 605.643348 205.702235 
L 606.218568 193.542312 
L 606.793789 171.017583 
L 607.36901 161.383488 
L 607.94423 173.996889 
L 608.519451 196.191123 
L 609.094672 202.206437 
L 609.669892 183.076345 
L 610.245113 159.398653 
L 610.820334 157.646857 
L 611.970775 214.800127 
L 612.545996 212.052112 
L 613.696437 139.088587 
L 614.271658 145.494348 
L 615.422099 232.288996 
L 615.99732 220.703502 
L 616.57254 168.201937 
L 617.147761 129.890521 
L 617.722982 142.94744 
L 618.298202 195.118871 
L 618.873423 232.131609 
L 619.448644 215.056927 
L 620.023864 166.657407 
L 620.599085 137.896773 
L 621.174306 154.465266 
L 621.749526 197.901652 
L 622.324747 220.598006 
L 622.899968 199.220136 
L 623.475188 161.104828 
L 624.050409 147.084954 
L 624.62563 171.810947 
L 625.20085 209.839558 
L 625.776071 216.218898 
L 626.926512 144.059039 
L 627.501733 145.748488 
L 628.652174 230.668168 
L 629.227395 219.113086 
L 629.802616 164.639915 
L 630.377836 126.126519 
L 630.953057 144.17632 
L 631.528278 203.715688 
L 632.103498 241.388219 
L 632.678719 214.540665 
L 633.25394 155.367205 
L 633.82916 126.249311 
L 634.404381 153.795417 
L 634.979602 208.358059 
L 635.554822 230.602399 
L 636.130043 200.322763 
L 636.705264 156.321226 
L 637.280485 143.13201 
L 637.855705 170.296963 
L 638.430926 206.561785 
L 639.006147 211.319156 
L 640.156588 156.542291 
L 640.731809 159.087869 
L 641.307029 188.136059 
L 641.88225 210.394407 
L 642.457471 198.145831 
L 643.032691 165.821236 
L 643.607912 150.038447 
L 644.183133 168.969963 
L 644.758353 204.575049 
L 645.333574 216.032048 
L 645.908795 189.114296 
L 646.484015 154.936859 
L 647.059236 149.049451 
L 648.209677 207.70912 
L 648.784898 209.44989 
L 649.935339 162.271171 
L 650.51056 161.092283 
L 651.661001 192.306209 
L 652.236222 194.65241 
L 652.811443 188.097548 
L 653.386663 179.953647 
L 653.961884 174.136124 
L 654.537105 172.963889 
L 655.112325 177.537412 
L 655.687546 185.281769 
L 656.262767 190.021367 
L 656.837987 187.829038 
L 657.413208 181.211054 
L 657.988429 176.397016 
L 658.563649 176.335258 
L 659.714091 181.758974 
L 660.289311 184.765544 
L 660.864532 187.083043 
L 661.439753 185.823636 
L 662.590194 175.007365 
L 663.165415 175.530242 
L 664.315856 186.805067 
L 664.891077 187.0854 
L 666.041518 180.325114 
L 666.616739 178.018966 
L 667.191959 176.807441 
L 667.76718 178.225433 
L 668.917621 188.152044 
L 669.492842 187.831908 
L 670.643283 176.09106 
L 671.218504 175.347516 
L 672.368945 182.23144 
L 673.519387 189.75856 
L 674.094607 188.714497 
L 675.245049 166.075908 
L 675.820269 167.13533 
L 676.970711 205.145294 
L 677.545931 200.591387 
L 678.121152 173.408243 
L 678.696373 153.372675 
L 679.271593 162.909637 
L 679.846814 193.513496 
L 680.422035 211.191991 
L 680.997255 195.604207 
L 681.572476 166.61251 
L 682.147697 156.120499 
L 682.722917 173.370702 
L 683.298138 198.03699 
L 683.873359 201.440977 
L 685.0238 164.44913 
L 685.599021 168.166867 
L 686.174241 188.93714 
L 686.749462 201.304879 
L 687.324683 187.853616 
L 687.899903 164.395717 
L 688.475124 159.866824 
L 689.625565 210.280928 
L 690.200786 204.558511 
L 690.776007 168.205529 
L 691.351227 143.571859 
L 691.926448 161.382538 
L 692.501669 206.442033 
L 693.076889 226.03378 
L 693.65211 193.315069 
L 694.227331 146.846211 
L 694.802551 139.404883 
L 695.952993 222.115621 
L 696.528213 216.427228 
L 697.103434 172.379026 
L 697.678655 142.931854 
L 698.253875 158.202087 
L 698.829096 198.905664 
L 699.404317 216.161874 
L 699.979537 191.281972 
L 700.554758 157.916964 
L 701.129979 154.506704 
L 702.28042 211.215942 
L 702.855641 200.155757 
L 703.430861 164.633262 
L 704.006082 148.600097 
L 704.581303 173.279615 
L 705.156523 212.961464 
L 705.731744 216.744475 
L 706.882185 138.730662 
L 707.457406 150.550718 
L 708.032627 201.363424 
L 708.607847 231.581131 
L 709.183068 201.945265 
L 709.758289 149.178897 
L 710.333509 134.632305 
L 710.90873 173.494502 
L 711.483951 220.499354 
L 712.059171 219.56358 
L 712.634392 176.488939 
L 713.209613 144.883425 
L 713.784833 156.648357 
L 714.360054 194.377589 
L 714.935275 212.32564 
L 715.510495 192.815781 
L 716.085716 164.788977 
L 716.660937 160.108419 
L 717.811378 200.480493 
L 718.386599 194.362022 
L 718.961819 172.470151 
L 719.53704 162.824823 
L 720.112261 177.245637 
L 720.687481 199.076092 
L 721.262702 199.51117 
L 721.837923 176.467384 
L 722.413143 158.583961 
L 722.988364 167.4506 
L 723.563585 194.000543 
L 724.138805 206.222679 
L 724.714026 189.257637 
L 725.289247 165.389389 
L 725.864467 161.427017 
L 727.014909 196.592557 
L 727.59013 195.531995 
L 728.16535 182.38841 
L 728.740571 172.968242 
L 729.315792 172.7149 
L 731.041454 188.566347 
L 731.616674 189.484291 
L 732.191895 183.349407 
L 732.767116 174.027397 
L 733.342336 171.642059 
L 734.492778 188.965633 
L 735.067998 190.098731 
L 736.21844 177.199295 
L 736.79366 176.132783 
L 737.368881 178.350526 
L 737.944102 181.487518 
L 738.519322 185.317523 
L 739.094543 187.824096 
L 739.669764 184.93869 
L 740.244984 177.698013 
L 740.820205 173.695799 
L 741.395426 177.771004 
L 741.970646 185.82854 
L 742.545867 188.824954 
L 743.121088 184.366524 
L 743.696308 178.755381 
L 744.271529 177.138392 
L 744.84675 179.082646 
L 745.42197 181.674288 
L 745.997191 183.510433 
L 746.572412 184.352972 
L 747.147632 183.610588 
L 748.298074 179.971142 
L 749.448515 178.780662 
L 750.023736 179.720583 
L 750.598956 184.462003 
L 751.174177 190.31915 
L 751.749398 187.67089 
L 752.324618 174.239053 
L 752.899839 164.802682 
L 753.47506 174.265475 
L 754.05028 196.790261 
L 754.625501 204.945138 
L 755.200722 184.054828 
L 755.775942 158.058385 
L 756.351163 158.794192 
L 756.926384 187.412207 
L 757.501604 209.993525 
L 758.076825 197.616168 
L 758.652046 167.195035 
L 759.227266 155.903806 
L 759.802487 175.145706 
L 760.377708 200.459603 
L 760.952928 200.373838 
L 761.528149 177.997392 
L 762.10337 163.004355 
L 762.67859 172.127376 
L 763.253811 193.052927 
L 763.829032 197.912866 
L 764.979473 163.187024 
L 765.554694 170.243873 
L 766.129914 195.192376 
L 766.705135 205.591227 
L 767.280356 183.227795 
L 767.855576 154.908157 
L 768.430797 157.873245 
L 769.006018 193.58662 
L 769.581238 219.128673 
L 770.156459 197.390198 
L 770.73168 153.870309 
L 771.3069 143.030886 
L 772.457342 220.659213 
L 773.032562 212.147723 
L 773.607783 166.470993 
L 774.183004 141.753345 
L 774.758224 165.866875 
L 775.333445 208.037961 
L 775.908666 214.475467 
L 777.059107 151.71383 
L 777.634328 162.048775 
L 778.209548 196.43707 
L 778.784769 209.709162 
L 779.93521 156.833497 
L 780.510431 161.104828 
L 781.085652 193.970776 
L 781.660872 212.85996 
L 782.236093 189.557453 
L 782.811314 153.52341 
L 783.386534 151.678094 
L 784.536976 221.669498 
L 785.112196 201.916372 
L 785.687417 154.818438 
L 786.262638 140.181558 
L 787.413079 220.736766 
L 787.9883 214.368641 
L 788.56352 168.363354 
L 789.138741 142.140732 
L 789.713962 164.502353 
L 790.289182 205.282153 
L 790.864403 212.780126 
L 792.014844 157.099992 
L 792.590065 163.676371 
L 793.165286 189.564638 
L 793.740506 200.833666 
L 794.315727 186.860438 
L 794.890948 169.881406 
L 795.466168 170.32289 
L 796.041389 185.284981 
L 796.61661 194.071386 
L 797.19183 184.882445 
L 797.767051 170.997491 
L 798.342272 171.017431 
L 798.917492 186.034931 
L 799.492713 196.893875 
L 800.067934 187.610596 
L 800.643154 169.74122 
L 801.218375 166.19699 
L 802.368816 197.394551 
L 802.944037 193.006908 
L 803.519258 176.103643 
L 804.094478 167.9305 
L 804.669699 175.40494 
L 805.24492 187.110319 
L 805.82014 190.141119 
L 807.545802 177.180667 
L 808.121023 175.255403 
L 808.696244 178.28778 
L 809.271464 186.468679 
L 809.846685 191.228331 
L 810.421906 185.500819 
L 810.997126 174.38477 
L 811.572347 171.390029 
L 812.722788 188.627439 
L 813.298009 188.7589 
L 813.87323 182.757131 
L 814.44845 178.12794 
L 815.023671 177.022537 
L 815.598892 177.810731 
L 816.174112 181.153851 
L 816.749333 186.918223 
L 817.324554 189.090878 
L 817.899774 182.443809 
L 818.474995 173.484048 
L 819.050216 173.317612 
L 820.200657 190.960562 
L 820.775878 187.459386 
L 821.351099 178.248148 
L 821.926319 174.584946 
L 822.50154 178.928052 
L 823.076761 184.547616 
L 823.651981 185.128088 
L 824.227202 182.117593 
L 824.802423 180.170785 
L 825.377643 181.145426 
L 825.952864 183.036833 
L 826.528085 182.145791 
L 827.103305 178.369857 
L 827.678526 177.176257 
L 828.253747 183.042986 
L 828.828967 191.160148 
L 829.404188 188.553783 
L 829.979409 173.647708 
L 830.554629 164.675042 
L 831.12985 176.826392 
L 831.705071 199.571312 
L 832.280291 202.261371 
L 833.430733 155.361122 
L 834.005953 165.937129 
L 834.581174 197.789389 
L 835.156395 209.662402 
L 836.306836 157.914493 
L 836.882057 161.08715 
L 837.457277 189.319851 
L 838.032498 205.438021 
L 838.607719 189.773767 
L 839.182939 166.258615 
L 839.75816 164.67029 
L 840.333381 185.110733 
L 840.908601 199.696386 
L 841.483822 188.43156 
L 842.059043 167.650243 
L 842.634263 165.654116 
L 843.784705 203.864142 
L 844.359925 190.245265 
L 844.935146 161.655305 
L 845.510367 156.714125 
L 846.660808 214.920639 
L 847.236029 200.294707 
L 847.811249 158.46535 
L 848.38647 144.226502 
L 848.961691 178.394796 
L 849.536911 219.576886 
L 850.112132 211.476544 
L 850.687353 164.730375 
L 851.262573 140.977241 
L 851.837794 169.00471 
L 852.413015 212.399392 
L 852.988235 213.608693 
L 853.563456 174.253367 
L 854.138677 148.279619 
L 854.713897 166.105789 
L 855.289118 202.562271 
L 855.864339 208.540728 
L 856.439559 178.386356 
L 857.01478 154.759322 
L 857.590001 167.623346 
L 858.165221 200.190846 
L 858.740442 207.591649 
L 859.890883 152.118704 
L 860.466104 164.662953 
L 861.041325 202.674989 
L 861.616545 214.962837 
L 862.766987 146.477832 
L 863.342207 156.002078 
L 863.917428 200.266898 
L 864.492649 221.305111 
L 865.067869 190.111922 
L 865.64309 149.842283 
L 866.218311 151.176468 
L 866.793531 190.22888 
L 867.368752 215.36391 
L 867.943973 195.97175 
L 868.519193 162.987951 
L 869.094414 157.377891 
L 870.244855 200.018841 
L 870.820076 193.26945 
L 871.395297 175.342403 
L 871.970517 169.612269 
L 873.120959 189.139824 
L 873.696179 186.883438 
L 874.2714 178.07888 
L 874.846621 175.347383 
L 875.997062 189.044251 
L 876.572283 185.464818 
L 877.147503 175.195983 
L 877.722724 172.159025 
L 878.873165 192.643719 
L 879.448386 189.778195 
L 880.023607 176.566588 
L 880.598827 170.0678 
L 881.174048 177.497666 
L 881.749269 188.728202 
L 882.324489 190.033 
L 882.89971 182.702201 
L 883.474931 176.983038 
L 884.050151 176.584988 
L 884.625372 178.724056 
L 885.200593 182.017617 
L 885.775813 186.66319 
L 886.351034 188.367407 
L 886.926255 182.601941 
L 887.501475 173.714655 
L 888.076696 173.243898 
L 888.651917 183.031174 
L 889.227137 190.844707 
L 889.802358 187.862949 
L 890.377579 178.823925 
L 890.952799 174.751096 
L 891.52802 177.772088 
L 892.103241 182.036293 
L 892.678461 184.959675 
L 893.253682 187.062248 
L 893.828903 185.651383 
L 894.979344 171.905702 
L 895.554565 176.054241 
L 896.129785 188.539812 
L 896.705006 193.928008 
L 897.280227 183.875315 
L 897.855447 171.273243 
L 898.430668 171.670571 
L 899.005889 183.77938 
L 899.581109 191.749459 
L 900.15633 186.451362 
L 900.731551 177.03436 
L 901.306771 175.067697 
L 902.457213 185.93183 
L 903.032433 183.824582 
L 903.607654 178.778115 
L 904.182875 178.360049 
L 904.758095 184.092141 
L 905.333316 188.413103 
L 905.908537 182.801777 
L 906.483757 172.387161 
L 907.058978 172.031366 
L 908.209419 199.516265 
L 908.78464 189.532267 
L 909.359861 165.686582 
L 909.935082 159.362727 
L 911.085523 208.053548 
L 911.660744 199.959118 
L 912.235964 167.192545 
L 912.811185 152.594669 
L 913.386406 174.807798 
L 913.961626 205.753747 
L 914.536847 204.280802 
L 915.112068 174.460347 
L 915.687288 156.692456 
L 916.262509 171.423864 
L 916.83773 197.882111 
L 917.41295 200.519916 
L 917.988171 178.069889 
L 918.563392 162.285807 
L 919.138612 173.014907 
L 919.713833 196.063825 
L 920.289054 199.072233 
L 920.864274 176.371849 
L 921.439495 158.933522 
L 922.014716 171.829974 
L 922.589936 201.987273 
L 923.165157 207.765764 
L 924.315598 148.169752 
L 924.890819 162.355757 
L 925.46604 205.541615 
L 926.04126 220.510759 
L 927.191702 142.640838 
L 927.766922 151.471095 
L 928.342143 200.112115 
L 928.917364 224.939098 
L 929.492584 192.640373 
L 930.067805 148.764138 
L 930.643026 148.697039 
L 931.218246 189.949383 
L 931.793467 217.531984 
L 932.368688 196.350184 
L 932.943908 159.236132 
L 933.519129 154.12654 
L 934.66957 209.470989 
L 935.244791 194.997409 
L 935.820012 163.292367 
L 936.395232 156.9331 
L 937.545674 210.094268 
L 938.120894 196.696361 
L 938.696115 161.482331 
L 939.271336 151.480789 
L 940.421777 214.665929 
L 940.996998 204.264075 
L 941.572218 163.571522 
L 942.147439 146.068396 
L 942.72266 173.701597 
L 943.29788 211.346908 
L 943.873101 209.390585 
L 944.448322 173.555709 
L 945.023542 151.892316 
L 945.598763 167.748686 
L 946.173984 197.49385 
L 946.749204 203.135178 
L 947.899646 167.317828 
L 948.474866 170.796232 
L 949.050087 184.32522 
L 949.625308 190.048321 
L 950.775749 178.97447 
L 951.35097 178.471133 
L 951.92619 181.69813 
L 952.501411 183.294516 
L 953.651852 178.82938 
L 954.227073 180.509359 
L 954.802294 185.496391 
L 955.377514 187.007485 
L 956.527956 174.121355 
L 957.103176 175.822303 
L 957.678397 185.340295 
L 958.253618 190.985786 
L 958.828838 185.283138 
L 959.404059 176.091326 
L 959.97928 174.132436 
L 961.129721 185.364322 
L 961.704942 186.081957 
L 962.280162 184.268214 
L 962.855383 181.610132 
L 963.430604 177.689972 
L 964.005824 175.382244 
L 964.581045 179.656902 
L 965.156266 187.653383 
L 965.731486 189.78386 
L 966.881928 174.201721 
L 967.457148 174.68778 
L 968.032369 181.866451 
L 968.60759 186.756881 
L 969.18281 186.4744 
L 969.758031 183.912476 
L 970.333252 180.347945 
L 970.908472 175.563012 
L 971.483693 174.262928 
L 972.058914 181.60823 
L 972.634134 192.476314 
L 973.209355 192.225995 
L 973.784576 177.829625 
L 974.359796 166.507546 
L 974.935017 172.951666 
L 975.510238 190.482069 
L 976.085458 196.975173 
L 977.2359 170.398619 
L 977.81112 170.916649 
L 978.386341 183.398627 
L 978.961562 191.303375 
L 979.536782 186.060307 
L 980.112003 176.930329 
L 980.687224 175.48025 
L 981.262444 182.391986 
L 981.837665 187.827765 
L 982.412886 183.500401 
L 982.988106 174.908579 
L 983.563327 174.483328 
L 984.713768 195.41519 
L 985.288989 187.056051 
L 985.86421 167.698524 
L 986.43943 162.807259 
L 987.589872 206.493926 
L 988.165092 199.631949 
L 988.740313 167.660032 
L 989.315534 151.124005 
L 989.890754 172.279099 
L 990.465975 206.986238 
L 991.041196 209.800781 
L 991.616416 176.970322 
L 992.191637 151.59978 
L 992.766858 163.816176 
L 993.342078 197.396775 
L 993.917299 208.898082 
L 995.06774 160.053675 
L 995.642961 163.708342 
L 996.218182 190.205329 
L 996.218182 190.205329 
" style="fill:none;stroke:#4c72b0;stroke-linecap:round;stroke-width:1.4;"/>
   </g>
   <g id="patch_3">
    <path d="M 144 320.4 
L 144 43.2 
" style="fill:none;"/>
   </g>
   <g id="patch_4">
    <path d="M 1036.8 320.4 
L 1036.8 43.2 
" style="fill:none;"/>
   </g>
   <g id="patch_5">
    <path d="M 144 320.4 
L 1036.8 320.4 
" style="fill:none;"/>
   </g>
   <g id="patch_6">
    <path d="M 144 43.2 
L 1036.8 43.2 
" style="fill:none;"/>
   </g>
  </g>
 </g>
 <defs>
  <clipPath id="p8dbfdbb3c3">
   <rect height="277.2" width="892.8" x="144" y="43.2"/>
  </clipPath>
 </defs>
</svg>
