<?xml version="1.0" encoding="utf-8" standalone="no"?>
<!DOCTYPE svg PUBLIC "-//W3C//DTD SVG 1.1//EN"
  "http://www.w3.org/Graphics/SVG/1.1/DTD/svg11.dtd">
<!-- Created with matplotlib (http://matplotlib.org/) -->
<svg height="360pt" version="1.1" viewBox="0 0 1152 360" width="1152pt" xmlns="http://www.w3.org/2000/svg" xmlns:xlink="http://www.w3.org/1999/xlink">
 <defs>
  <style type="text/css">
*{stroke-linecap:butt;stroke-linejoin:round;}
  </style>
 </defs>
 <g id="figure_1">
  <g id="patch_1">
   <path d="M 0 360 
L 1152 360 
L 1152 0 
L 0 0 
z
" style="fill:#ffffff;"/>
  </g>
  <g id="axes_1">
   <g id="patch_2">
    <path d="M 144 320.4 
L 1036.8 320.4 
L 1036.8 43.2 
L 144 43.2 
z
" style="fill:#eaeaf2;"/>
   </g>
   <g id="matplotlib.axis_1">
    <g id="xtick_1">
     <g id="line2d_1">
      <path clip-path="url(#p97d9c0f566)" d="M 184.581818 320.4 
L 184.581818 43.2 
" style="fill:none;stroke:#ffffff;stroke-linecap:round;stroke-width:0.8;"/>
     </g>
     <g id="line2d_2"/>
     <g id="text_1">
      <!-- 0.000 -->
      <defs>
       <path d="M 51.703125 34.421875 
Q 51.703125 24.515625 49.828125 17.75 
Q 47.953125 10.984375 44.703125 6.8125 
Q 41.453125 2.640625 37.0625 0.828125 
Q 32.671875 -0.984375 27.6875 -0.984375 
Q 22.65625 -0.984375 18.3125 0.828125 
Q 13.96875 2.640625 10.765625 6.78125 
Q 7.5625 10.9375 5.734375 17.703125 
Q 3.90625 24.46875 3.90625 34.421875 
Q 3.90625 44.828125 5.734375 51.640625 
Q 7.5625 58.453125 10.78125 62.5 
Q 14.015625 66.546875 18.40625 68.1875 
Q 22.796875 69.828125 27.984375 69.828125 
Q 32.90625 69.828125 37.21875 68.1875 
Q 41.546875 66.546875 44.765625 62.5 
Q 48 58.453125 49.84375 51.640625 
Q 51.703125 44.828125 51.703125 34.421875 
M 42.78125 34.421875 
Q 42.78125 42.625 41.796875 48.0625 
Q 40.828125 53.515625 38.921875 56.765625 
Q 37.015625 60.015625 34.25 61.359375 
Q 31.5 62.703125 27.984375 62.703125 
Q 24.265625 62.703125 21.4375 61.328125 
Q 18.609375 59.96875 16.671875 56.71875 
Q 14.75 53.46875 13.765625 48.015625 
Q 12.796875 42.578125 12.796875 34.421875 
Q 12.796875 26.515625 13.796875 21.09375 
Q 14.796875 15.671875 16.71875 12.375 
Q 18.65625 9.078125 21.4375 7.640625 
Q 24.21875 6.203125 27.78125 6.203125 
Q 31.25 6.203125 34.03125 7.640625 
Q 36.8125 9.078125 38.734375 12.375 
Q 40.671875 15.671875 41.71875 21.09375 
Q 42.78125 26.515625 42.78125 34.421875 
" id="LiberationSans-30"/>
       <path d="M 9.125 0 
L 9.125 10.6875 
L 18.65625 10.6875 
L 18.65625 0 
z
" id="LiberationSans-2e"/>
      </defs>
      <g style="fill:#262626;" transform="translate(174.573068 331.7975)scale(0.08 -0.08)">
       <use xlink:href="#LiberationSans-30"/>
       <use x="55.615234" xlink:href="#LiberationSans-2e"/>
       <use x="83.398438" xlink:href="#LiberationSans-30"/>
       <use x="139.013672" xlink:href="#LiberationSans-30"/>
       <use x="194.628906" xlink:href="#LiberationSans-30"/>
      </g>
     </g>
    </g>
    <g id="xtick_2">
     <g id="line2d_3">
      <path clip-path="url(#p97d9c0f566)" d="M 311.238448 320.4 
L 311.238448 43.2 
" style="fill:none;stroke:#ffffff;stroke-linecap:round;stroke-width:0.8;"/>
     </g>
     <g id="line2d_4"/>
     <g id="text_2">
      <!-- 0.005 -->
      <defs>
       <path d="M 51.421875 22.40625 
Q 51.421875 17.234375 49.859375 12.9375 
Q 48.296875 8.640625 45.21875 5.53125 
Q 42.140625 2.4375 37.578125 0.71875 
Q 33.015625 -0.984375 27 -0.984375 
Q 21.578125 -0.984375 17.546875 0.28125 
Q 13.53125 1.5625 10.734375 3.78125 
Q 7.953125 6 6.3125 8.984375 
Q 4.6875 11.96875 4 15.375 
L 12.890625 16.40625 
Q 13.421875 14.453125 14.390625 12.625 
Q 15.375 10.796875 17.0625 9.34375 
Q 18.75 7.90625 21.21875 7.046875 
Q 23.6875 6.203125 27.203125 6.203125 
Q 30.609375 6.203125 33.390625 7.25 
Q 36.1875 8.296875 38.15625 10.34375 
Q 40.140625 12.40625 41.203125 15.375 
Q 42.28125 18.359375 42.28125 22.21875 
Q 42.28125 25.390625 41.25 28.046875 
Q 40.234375 30.71875 38.328125 32.640625 
Q 36.421875 34.578125 33.65625 35.640625 
Q 30.90625 36.71875 27.390625 36.71875 
Q 25.203125 36.71875 23.34375 36.328125 
Q 21.484375 35.9375 19.890625 35.25 
Q 18.3125 34.578125 17.015625 33.671875 
Q 15.71875 32.765625 14.59375 31.78125 
L 6 31.78125 
L 8.296875 68.796875 
L 47.40625 68.796875 
L 47.40625 61.328125 
L 16.3125 61.328125 
L 14.984375 39.5 
Q 17.328125 41.3125 20.84375 42.59375 
Q 24.359375 43.890625 29.203125 43.890625 
Q 34.328125 43.890625 38.421875 42.328125 
Q 42.53125 40.765625 45.40625 37.90625 
Q 48.296875 35.0625 49.859375 31.109375 
Q 51.421875 27.15625 51.421875 22.40625 
" id="LiberationSans-35"/>
      </defs>
      <g style="fill:#262626;" transform="translate(301.229698 331.7975)scale(0.08 -0.08)">
       <use xlink:href="#LiberationSans-30"/>
       <use x="55.615234" xlink:href="#LiberationSans-2e"/>
       <use x="83.398438" xlink:href="#LiberationSans-30"/>
       <use x="139.013672" xlink:href="#LiberationSans-30"/>
       <use x="194.628906" xlink:href="#LiberationSans-35"/>
      </g>
     </g>
    </g>
    <g id="xtick_3">
     <g id="line2d_5">
      <path clip-path="url(#p97d9c0f566)" d="M 437.895078 320.4 
L 437.895078 43.2 
" style="fill:none;stroke:#ffffff;stroke-linecap:round;stroke-width:0.8;"/>
     </g>
     <g id="line2d_6"/>
     <g id="text_3">
      <!-- 0.010 -->
      <defs>
       <path d="M 7.625 0 
L 7.625 7.46875 
L 25.140625 7.46875 
L 25.140625 60.40625 
L 9.625 49.3125 
L 9.625 57.625 
L 25.875 68.796875 
L 33.984375 68.796875 
L 33.984375 7.46875 
L 50.734375 7.46875 
L 50.734375 0 
z
" id="LiberationSans-31"/>
      </defs>
      <g style="fill:#262626;" transform="translate(427.886328 331.7975)scale(0.08 -0.08)">
       <use xlink:href="#LiberationSans-30"/>
       <use x="55.615234" xlink:href="#LiberationSans-2e"/>
       <use x="83.398438" xlink:href="#LiberationSans-30"/>
       <use x="139.013672" xlink:href="#LiberationSans-31"/>
       <use x="194.628906" xlink:href="#LiberationSans-30"/>
      </g>
     </g>
    </g>
    <g id="xtick_4">
     <g id="line2d_7">
      <path clip-path="url(#p97d9c0f566)" d="M 564.551708 320.4 
L 564.551708 43.2 
" style="fill:none;stroke:#ffffff;stroke-linecap:round;stroke-width:0.8;"/>
     </g>
     <g id="line2d_8"/>
     <g id="text_4">
      <!-- 0.015 -->
      <g style="fill:#262626;" transform="translate(554.542958 331.7975)scale(0.08 -0.08)">
       <use xlink:href="#LiberationSans-30"/>
       <use x="55.615234" xlink:href="#LiberationSans-2e"/>
       <use x="83.398438" xlink:href="#LiberationSans-30"/>
       <use x="139.013672" xlink:href="#LiberationSans-31"/>
       <use x="194.628906" xlink:href="#LiberationSans-35"/>
      </g>
     </g>
    </g>
    <g id="xtick_5">
     <g id="line2d_9">
      <path clip-path="url(#p97d9c0f566)" d="M 691.208338 320.4 
L 691.208338 43.2 
" style="fill:none;stroke:#ffffff;stroke-linecap:round;stroke-width:0.8;"/>
     </g>
     <g id="line2d_10"/>
     <g id="text_5">
      <!-- 0.020 -->
      <defs>
       <path d="M 5.03125 0 
L 5.03125 6.203125 
Q 7.515625 11.921875 11.109375 16.28125 
Q 14.703125 20.65625 18.65625 24.1875 
Q 22.609375 27.734375 26.484375 30.765625 
Q 30.375 33.796875 33.5 36.8125 
Q 36.625 39.84375 38.546875 43.15625 
Q 40.484375 46.484375 40.484375 50.6875 
Q 40.484375 53.609375 39.59375 55.828125 
Q 38.71875 58.0625 37.0625 59.5625 
Q 35.40625 61.078125 33.078125 61.828125 
Q 30.765625 62.59375 27.9375 62.59375 
Q 25.296875 62.59375 22.96875 61.859375 
Q 20.65625 61.140625 18.84375 59.671875 
Q 17.046875 58.203125 15.890625 56.03125 
Q 14.75 53.859375 14.40625 50.984375 
L 5.421875 51.8125 
Q 5.859375 55.515625 7.46875 58.78125 
Q 9.078125 62.0625 11.90625 64.53125 
Q 14.75 67 18.71875 68.40625 
Q 22.703125 69.828125 27.9375 69.828125 
Q 33.0625 69.828125 37.0625 68.609375 
Q 41.0625 67.390625 43.8125 64.984375 
Q 46.578125 62.59375 48.046875 59.078125 
Q 49.515625 55.5625 49.515625 50.984375 
Q 49.515625 47.515625 48.265625 44.390625 
Q 47.015625 41.265625 44.9375 38.421875 
Q 42.875 35.59375 40.140625 32.953125 
Q 37.40625 30.328125 34.421875 27.8125 
Q 31.453125 25.296875 28.421875 22.828125 
Q 25.390625 20.359375 22.71875 17.859375 
Q 20.0625 15.375 17.96875 12.8125 
Q 15.875 10.25 14.703125 7.46875 
L 50.59375 7.46875 
L 50.59375 0 
z
" id="LiberationSans-32"/>
      </defs>
      <g style="fill:#262626;" transform="translate(681.199588 331.7975)scale(0.08 -0.08)">
       <use xlink:href="#LiberationSans-30"/>
       <use x="55.615234" xlink:href="#LiberationSans-2e"/>
       <use x="83.398438" xlink:href="#LiberationSans-30"/>
       <use x="139.013672" xlink:href="#LiberationSans-32"/>
       <use x="194.628906" xlink:href="#LiberationSans-30"/>
      </g>
     </g>
    </g>
    <g id="xtick_6">
     <g id="line2d_11">
      <path clip-path="url(#p97d9c0f566)" d="M 817.864968 320.4 
L 817.864968 43.2 
" style="fill:none;stroke:#ffffff;stroke-linecap:round;stroke-width:0.8;"/>
     </g>
     <g id="line2d_12"/>
     <g id="text_6">
      <!-- 0.025 -->
      <g style="fill:#262626;" transform="translate(807.856218 331.7975)scale(0.08 -0.08)">
       <use xlink:href="#LiberationSans-30"/>
       <use x="55.615234" xlink:href="#LiberationSans-2e"/>
       <use x="83.398438" xlink:href="#LiberationSans-30"/>
       <use x="139.013672" xlink:href="#LiberationSans-32"/>
       <use x="194.628906" xlink:href="#LiberationSans-35"/>
      </g>
     </g>
    </g>
    <g id="xtick_7">
     <g id="line2d_13">
      <path clip-path="url(#p97d9c0f566)" d="M 944.521598 320.4 
L 944.521598 43.2 
" style="fill:none;stroke:#ffffff;stroke-linecap:round;stroke-width:0.8;"/>
     </g>
     <g id="line2d_14"/>
     <g id="text_7">
      <!-- 0.030 -->
      <defs>
       <path d="M 51.21875 19 
Q 51.21875 14.265625 49.671875 10.546875 
Q 48.140625 6.84375 45.1875 4.265625 
Q 42.234375 1.703125 37.859375 0.359375 
Q 33.5 -0.984375 27.875 -0.984375 
Q 21.484375 -0.984375 17.109375 0.609375 
Q 12.75 2.203125 9.90625 4.8125 
Q 7.078125 7.421875 5.65625 10.765625 
Q 4.25 14.109375 3.8125 17.671875 
L 12.890625 18.5 
Q 13.28125 15.765625 14.328125 13.515625 
Q 15.375 11.28125 17.1875 9.671875 
Q 19 8.0625 21.625 7.171875 
Q 24.265625 6.296875 27.875 6.296875 
Q 34.515625 6.296875 38.296875 9.5625 
Q 42.09375 12.84375 42.09375 19.28125 
Q 42.09375 23.09375 40.40625 25.40625 
Q 38.71875 27.734375 36.203125 29.03125 
Q 33.6875 30.328125 30.734375 30.765625 
Q 27.78125 31.203125 25.296875 31.203125 
L 20.3125 31.203125 
L 20.3125 38.8125 
L 25.09375 38.8125 
Q 27.59375 38.8125 30.265625 39.328125 
Q 32.953125 39.84375 35.171875 41.1875 
Q 37.40625 42.53125 38.84375 44.828125 
Q 40.28125 47.125 40.28125 50.6875 
Q 40.28125 56.203125 37.03125 59.390625 
Q 33.796875 62.59375 27.390625 62.59375 
Q 21.578125 62.59375 17.984375 59.609375 
Q 14.40625 56.640625 13.8125 51.21875 
L 4.984375 51.90625 
Q 5.515625 56.453125 7.46875 59.8125 
Q 9.421875 63.1875 12.421875 65.40625 
Q 15.4375 67.625 19.28125 68.71875 
Q 23.140625 69.828125 27.484375 69.828125 
Q 33.25 69.828125 37.390625 68.375 
Q 41.546875 66.9375 44.1875 64.46875 
Q 46.828125 62.015625 48.0625 58.6875 
Q 49.3125 55.375 49.3125 51.609375 
Q 49.3125 48.578125 48.484375 45.9375 
Q 47.65625 43.3125 45.890625 41.203125 
Q 44.140625 39.109375 41.421875 37.59375 
Q 38.71875 36.078125 34.90625 35.296875 
L 34.90625 35.109375 
Q 39.0625 34.671875 42.140625 33.21875 
Q 45.21875 31.78125 47.21875 29.625 
Q 49.21875 27.484375 50.21875 24.75 
Q 51.21875 22.015625 51.21875 19 
" id="LiberationSans-33"/>
      </defs>
      <g style="fill:#262626;" transform="translate(934.512848 331.7975)scale(0.08 -0.08)">
       <use xlink:href="#LiberationSans-30"/>
       <use x="55.615234" xlink:href="#LiberationSans-2e"/>
       <use x="83.398438" xlink:href="#LiberationSans-30"/>
       <use x="139.013672" xlink:href="#LiberationSans-33"/>
       <use x="194.628906" xlink:href="#LiberationSans-30"/>
      </g>
     </g>
    </g>
   </g>
   <g id="matplotlib.axis_2">
    <g id="ytick_1">
     <g id="line2d_15">
      <path clip-path="url(#p97d9c0f566)" d="M 144 317.418343 
L 1036.8 317.418343 
" style="fill:none;stroke:#ffffff;stroke-linecap:round;stroke-width:0.8;"/>
     </g>
     <g id="line2d_16"/>
     <g id="text_8">
      <!-- −4 -->
      <defs>
       <path d="M 4.9375 29.6875 
L 4.9375 36.8125 
L 53.515625 36.8125 
L 53.515625 29.6875 
z
" id="LiberationSans-2212"/>
       <path d="M 43.015625 15.578125 
L 43.015625 0 
L 34.71875 0 
L 34.71875 15.578125 
L 2.296875 15.578125 
L 2.296875 22.40625 
L 33.796875 68.796875 
L 43.015625 68.796875 
L 43.015625 22.515625 
L 52.6875 22.515625 
L 52.6875 15.578125 
z
M 34.71875 58.890625 
Q 34.625 58.640625 34.234375 57.9375 
Q 33.84375 57.234375 33.34375 56.34375 
Q 32.859375 55.46875 32.34375 54.5625 
Q 31.84375 53.65625 31.453125 53.078125 
L 13.8125 27.09375 
Q 13.578125 26.703125 13.109375 26.0625 
Q 12.640625 25.4375 12.15625 24.78125 
Q 11.671875 24.125 11.171875 23.484375 
Q 10.6875 22.859375 10.40625 22.515625 
L 34.71875 22.515625 
z
" id="LiberationSans-34"/>
      </defs>
      <g style="fill:#262626;" transform="translate(129.27875 320.317093)scale(0.08 -0.08)">
       <use xlink:href="#LiberationSans-2212"/>
       <use x="58.398438" xlink:href="#LiberationSans-34"/>
      </g>
     </g>
    </g>
    <g id="ytick_2">
     <g id="line2d_17">
      <path clip-path="url(#p97d9c0f566)" d="M 144 271.880004 
L 1036.8 271.880004 
" style="fill:none;stroke:#ffffff;stroke-linecap:round;stroke-width:0.8;"/>
     </g>
     <g id="line2d_18"/>
     <g id="text_9">
      <!-- −2 -->
      <g style="fill:#262626;" transform="translate(129.27875 274.778754)scale(0.08 -0.08)">
       <use xlink:href="#LiberationSans-2212"/>
       <use x="58.398438" xlink:href="#LiberationSans-32"/>
      </g>
     </g>
    </g>
    <g id="ytick_3">
     <g id="line2d_19">
      <path clip-path="url(#p97d9c0f566)" d="M 144 226.341665 
L 1036.8 226.341665 
" style="fill:none;stroke:#ffffff;stroke-linecap:round;stroke-width:0.8;"/>
     </g>
     <g id="line2d_20"/>
     <g id="text_10">
      <!-- 0 -->
      <g style="fill:#262626;" transform="translate(133.95125 229.240415)scale(0.08 -0.08)">
       <use xlink:href="#LiberationSans-30"/>
      </g>
     </g>
    </g>
    <g id="ytick_4">
     <g id="line2d_21">
      <path clip-path="url(#p97d9c0f566)" d="M 144 180.803326 
L 1036.8 180.803326 
" style="fill:none;stroke:#ffffff;stroke-linecap:round;stroke-width:0.8;"/>
     </g>
     <g id="line2d_22"/>
     <g id="text_11">
      <!-- 2 -->
      <g style="fill:#262626;" transform="translate(133.95125 183.702076)scale(0.08 -0.08)">
       <use xlink:href="#LiberationSans-32"/>
      </g>
     </g>
    </g>
    <g id="ytick_5">
     <g id="line2d_23">
      <path clip-path="url(#p97d9c0f566)" d="M 144 135.264987 
L 1036.8 135.264987 
" style="fill:none;stroke:#ffffff;stroke-linecap:round;stroke-width:0.8;"/>
     </g>
     <g id="line2d_24"/>
     <g id="text_12">
      <!-- 4 -->
      <g style="fill:#262626;" transform="translate(133.95125 138.163737)scale(0.08 -0.08)">
       <use xlink:href="#LiberationSans-34"/>
      </g>
     </g>
    </g>
    <g id="ytick_6">
     <g id="line2d_25">
      <path clip-path="url(#p97d9c0f566)" d="M 144 89.726648 
L 1036.8 89.726648 
" style="fill:none;stroke:#ffffff;stroke-linecap:round;stroke-width:0.8;"/>
     </g>
     <g id="line2d_26"/>
     <g id="text_13">
      <!-- 6 -->
      <defs>
       <path d="M 51.21875 22.515625 
Q 51.21875 17.328125 49.78125 13 
Q 48.34375 8.6875 45.53125 5.578125 
Q 42.71875 2.484375 38.5625 0.75 
Q 34.421875 -0.984375 29 -0.984375 
Q 23 -0.984375 18.5 1.3125 
Q 14.015625 3.609375 11.03125 7.921875 
Q 8.0625 12.25 6.5625 18.53125 
Q 5.078125 24.8125 5.078125 32.8125 
Q 5.078125 42 6.765625 48.921875 
Q 8.453125 55.859375 11.625 60.5 
Q 14.796875 65.140625 19.359375 67.484375 
Q 23.921875 69.828125 29.6875 69.828125 
Q 33.203125 69.828125 36.28125 69.09375 
Q 39.359375 68.359375 41.875 66.71875 
Q 44.390625 65.09375 46.28125 62.40625 
Q 48.1875 59.71875 49.3125 55.8125 
L 40.921875 54.296875 
Q 39.546875 58.734375 36.546875 60.71875 
Q 33.546875 62.703125 29.59375 62.703125 
Q 25.984375 62.703125 23.046875 60.984375 
Q 20.125 59.28125 18.0625 55.875 
Q 16.015625 52.484375 14.90625 47.359375 
Q 13.8125 42.234375 13.8125 35.40625 
Q 16.21875 39.84375 20.5625 42.15625 
Q 24.90625 44.484375 30.515625 44.484375 
Q 35.203125 44.484375 39.015625 42.96875 
Q 42.828125 41.453125 45.53125 38.59375 
Q 48.25 35.75 49.734375 31.671875 
Q 51.21875 27.59375 51.21875 22.515625 
M 42.28125 22.125 
Q 42.28125 25.6875 41.40625 28.5625 
Q 40.53125 31.453125 38.765625 33.46875 
Q 37.015625 35.5 34.421875 36.59375 
Q 31.84375 37.703125 28.421875 37.703125 
Q 26.03125 37.703125 23.578125 36.984375 
Q 21.140625 36.28125 19.15625 34.6875 
Q 17.1875 33.109375 15.9375 30.515625 
Q 14.703125 27.9375 14.703125 24.21875 
Q 14.703125 20.40625 15.671875 17.109375 
Q 16.65625 13.8125 18.484375 11.375 
Q 20.3125 8.9375 22.890625 7.515625 
Q 25.484375 6.109375 28.71875 6.109375 
Q 31.890625 6.109375 34.40625 7.203125 
Q 36.921875 8.296875 38.671875 10.375 
Q 40.4375 12.453125 41.359375 15.421875 
Q 42.28125 18.40625 42.28125 22.125 
" id="LiberationSans-36"/>
      </defs>
      <g style="fill:#262626;" transform="translate(133.95125 92.625398)scale(0.08 -0.08)">
       <use xlink:href="#LiberationSans-36"/>
      </g>
     </g>
    </g>
    <g id="ytick_7">
     <g id="line2d_27">
      <path clip-path="url(#p97d9c0f566)" d="M 144 44.188309 
L 1036.8 44.188309 
" style="fill:none;stroke:#ffffff;stroke-linecap:round;stroke-width:0.8;"/>
     </g>
     <g id="line2d_28"/>
     <g id="text_14">
      <!-- 8 -->
      <defs>
       <path d="M 51.265625 19.1875 
Q 51.265625 14.796875 49.875 11.109375 
Q 48.484375 7.421875 45.625 4.734375 
Q 42.78125 2.046875 38.328125 0.53125 
Q 33.890625 -0.984375 27.828125 -0.984375 
Q 21.78125 -0.984375 17.359375 0.53125 
Q 12.9375 2.046875 10.03125 4.703125 
Q 7.125 7.375 5.734375 11.0625 
Q 4.34375 14.75 4.34375 19.09375 
Q 4.34375 22.859375 5.484375 25.78125 
Q 6.640625 28.71875 8.5625 30.828125 
Q 10.5 32.953125 12.96875 34.25 
Q 15.4375 35.546875 18.0625 35.984375 
L 18.0625 36.1875 
Q 15.1875 36.859375 12.90625 38.375 
Q 10.640625 39.890625 9.09375 42.015625 
Q 7.5625 44.140625 6.75 46.71875 
Q 5.953125 49.3125 5.953125 52.203125 
Q 5.953125 55.8125 7.34375 59 
Q 8.734375 62.203125 11.46875 64.625 
Q 14.203125 67.046875 18.25 68.4375 
Q 22.3125 69.828125 27.640625 69.828125 
Q 33.25 69.828125 37.375 68.40625 
Q 41.5 67 44.203125 64.578125 
Q 46.921875 62.15625 48.234375 58.9375 
Q 49.5625 55.71875 49.5625 52.09375 
Q 49.5625 49.265625 48.75 46.671875 
Q 47.953125 44.09375 46.40625 41.96875 
Q 44.875 39.84375 42.59375 38.34375 
Q 40.328125 36.859375 37.359375 36.28125 
L 37.359375 36.078125 
Q 40.328125 35.59375 42.859375 34.296875 
Q 45.40625 33.015625 47.265625 30.890625 
Q 49.125 28.765625 50.1875 25.828125 
Q 51.265625 22.90625 51.265625 19.1875 
M 40.4375 51.609375 
Q 40.4375 54.203125 39.765625 56.34375 
Q 39.109375 58.5 37.59375 60.03125 
Q 36.078125 61.578125 33.640625 62.421875 
Q 31.203125 63.28125 27.640625 63.28125 
Q 24.171875 63.28125 21.78125 62.421875 
Q 19.390625 61.578125 17.84375 60.03125 
Q 16.3125 58.5 15.625 56.34375 
Q 14.9375 54.203125 14.9375 51.609375 
Q 14.9375 49.5625 15.46875 47.40625 
Q 16.015625 45.265625 17.421875 43.5 
Q 18.84375 41.75 21.328125 40.625 
Q 23.828125 39.5 27.734375 39.5 
Q 31.890625 39.5 34.40625 40.625 
Q 36.921875 41.75 38.25 43.5 
Q 39.59375 45.265625 40.015625 47.40625 
Q 40.4375 49.5625 40.4375 51.609375 
M 42.140625 20.015625 
Q 42.140625 22.515625 41.453125 24.828125 
Q 40.765625 27.15625 39.109375 28.9375 
Q 37.453125 30.71875 34.640625 31.8125 
Q 31.84375 32.90625 27.640625 32.90625 
Q 23.78125 32.90625 21.0625 31.8125 
Q 18.359375 30.71875 16.671875 28.90625 
Q 14.984375 27.09375 14.203125 24.71875 
Q 13.421875 22.359375 13.421875 19.828125 
Q 13.421875 16.65625 14.203125 14.03125 
Q 14.984375 11.421875 16.6875 9.546875 
Q 18.40625 7.671875 21.1875 6.640625 
Q 23.96875 5.609375 27.9375 5.609375 
Q 31.9375 5.609375 34.671875 6.640625 
Q 37.40625 7.671875 39.0625 9.546875 
Q 40.71875 11.421875 41.421875 14.078125 
Q 42.140625 16.75 42.140625 20.015625 
" id="LiberationSans-38"/>
      </defs>
      <g style="fill:#262626;" transform="translate(133.95125 47.087059)scale(0.08 -0.08)">
       <use xlink:href="#LiberationSans-38"/>
      </g>
     </g>
    </g>
   </g>
   <g id="line2d_29">
    <path clip-path="url(#p97d9c0f566)" d="M 184.581818 307.8 
L 187.453851 220.934861 
L 188.602664 195.243156 
L 189.17707 186.244547 
L 189.751477 179.712802 
L 190.325883 175.19689 
L 191.474696 169.431975 
L 192.049102 166.676682 
L 192.623509 163.190436 
L 193.197915 158.66693 
L 194.346728 146.852589 
L 195.495541 134.585459 
L 196.069948 129.986429 
L 196.644354 127.220202 
L 197.218761 126.620671 
L 197.793167 128.213625 
L 198.367574 131.705486 
L 199.516387 141.944598 
L 200.6652 151.469168 
L 201.239606 154.384379 
L 201.814013 155.703313 
L 202.388419 155.546706 
L 202.962826 154.327635 
L 204.111639 151.284693 
L 204.686045 150.840033 
L 205.260452 151.826965 
L 205.834858 154.466739 
L 206.409265 158.663907 
L 208.706891 180.144245 
L 209.281297 183.15378 
L 209.855704 184.182221 
L 210.43011 183.177589 
L 211.004517 180.407376 
L 212.153329 171.88273 
L 212.727736 167.577287 
L 213.302142 164.138222 
L 213.876549 161.997424 
L 214.450955 161.293137 
L 215.025362 161.845489 
L 216.174175 164.665901 
L 216.748581 165.534525 
L 217.322988 165.120449 
L 217.897394 162.935413 
L 218.471801 158.771059 
L 219.046207 152.74064 
L 220.19502 136.988351 
L 221.343833 121.120044 
L 221.91824 114.887261 
L 222.492646 110.343669 
L 223.067053 107.529537 
L 223.641459 106.170707 
L 224.215866 105.733965 
L 224.790272 105.529564 
L 225.364679 104.842192 
L 225.939085 103.06649 
L 226.513492 99.822403 
L 227.087898 95.029336 
L 228.236711 82.029244 
L 229.385524 68.755684 
L 229.959931 63.851305 
L 230.534337 60.8386 
L 231.108743 59.93511 
L 231.68315 61.035253 
L 232.257556 63.73139 
L 233.980776 74.640277 
L 234.555182 76.953009 
L 235.129589 77.899957 
L 235.703995 77.490297 
L 236.278402 76.042633 
L 237.427215 72.449261 
L 238.001621 71.738257 
L 238.576028 72.591384 
L 239.150434 75.371629 
L 239.724841 80.135561 
L 240.873654 94.279223 
L 242.022467 110.173406 
L 242.596873 116.923314 
L 243.17128 122.142479 
L 243.745686 125.620309 
L 244.320093 127.467124 
L 244.894499 128.088446 
L 245.468906 128.105558 
L 246.043312 128.236836 
L 246.617719 129.161502 
L 247.192125 131.39064 
L 247.766532 135.169014 
L 248.340938 140.425592 
L 250.638564 165.698133 
L 251.21297 169.569235 
L 251.787377 171.41005 
L 252.361783 171.154413 
L 252.93619 169.05669 
L 254.085003 161.618586 
L 254.659409 157.730398 
L 255.233816 154.639327 
L 255.808222 152.795942 
L 256.382629 152.360168 
L 256.957035 153.173466 
L 258.680255 157.743667 
L 259.254661 157.667617 
L 259.829068 155.829854 
L 260.403474 152.006534 
L 260.977881 146.294404 
L 262.126694 131.059133 
L 263.275507 115.525909 
L 263.849913 109.411786 
L 264.42432 104.976476 
L 264.998726 102.279833 
L 265.573133 101.065614 
L 266.147539 100.813738 
L 266.721946 100.840524 
L 267.296352 100.428647 
L 267.870759 98.96308 
L 268.445165 96.048245 
L 269.019572 91.585007 
L 270.168384 79.17717 
L 271.317197 66.341511 
L 271.891604 61.601392 
L 272.46601 58.73221 
L 273.040417 57.968648 
L 273.614823 59.222785 
L 274.18923 62.101799 
L 275.912449 73.785982 
L 276.486856 76.412568 
L 277.061262 77.675337 
L 277.635669 77.56383 
L 278.210075 76.378824 
L 279.358888 73.159623 
L 279.933295 72.55644 
L 280.507701 73.474889 
L 281.082108 76.293168 
L 281.656514 81.085748 
L 282.805327 95.323555 
L 283.95414 111.4164 
L 284.528547 118.298007 
L 285.102953 123.65302 
L 285.67736 127.252757 
L 286.251766 129.189251 
L 286.826173 129.852893 
L 287.974986 129.914759 
L 288.549392 130.715556 
L 289.123798 132.782664 
L 289.698205 136.378842 
L 290.272611 141.452472 
L 292.570237 166.24796 
L 293.144644 170.070167 
L 293.71905 171.868979 
L 294.293457 171.560812 
L 294.867863 169.383673 
L 296.016676 161.664347 
L 297.165489 154.243674 
L 297.739896 152.147942 
L 298.314302 151.463554 
L 298.888709 152.051398 
L 300.611928 156.212885 
L 301.186335 156.09718 
L 301.760741 154.253188 
L 302.335148 150.440324 
L 302.909554 144.737452 
L 304.058367 129.459752 
L 305.20718 113.769925 
L 305.781587 107.550394 
L 306.355993 103.012213 
L 306.9304 100.23392 
L 307.504806 98.976533 
L 308.079213 98.732653 
L 308.653619 98.824369 
L 309.228025 98.532101 
L 309.802432 97.230895 
L 310.376838 94.509292 
L 310.951245 90.249112 
L 312.100058 78.204927 
L 313.248871 65.606047 
L 313.823277 60.937717 
L 314.397684 58.123994 
L 314.97209 57.416196 
L 315.546497 58.743777 
L 316.120903 61.728661 
L 317.844123 73.979634 
L 318.418529 76.858627 
L 318.992936 78.379864 
L 319.567342 78.51305 
L 320.141749 77.540759 
L 321.290562 74.60424 
L 321.864968 74.066138 
L 322.439375 75.008459 
L 323.013781 77.824251 
L 323.588188 82.605725 
L 324.737001 96.860826 
L 326.46022 120.06182 
L 327.034627 125.522504 
L 327.609033 129.216446 
L 328.183439 131.217282 
L 328.757846 131.899975 
L 329.906659 131.83323 
L 330.481065 132.490389 
L 331.055472 134.376037 
L 331.629878 137.770727 
L 332.204285 142.642255 
L 334.501911 166.891183 
L 335.076317 170.65091 
L 335.650724 172.396259 
L 336.22513 172.026248 
L 336.799537 169.762356 
L 337.94835 161.751569 
L 339.097163 153.882028 
L 339.671569 151.530269 
L 340.245976 150.593372 
L 340.820382 150.951706 
L 342.543602 154.694251 
L 343.118008 154.537434 
L 343.692415 152.687275 
L 344.266821 148.88656 
L 344.841228 143.196185 
L 345.990041 127.885924 
L 347.138854 112.05071 
L 347.71326 105.730695 
L 348.287666 101.093697 
L 348.862073 98.236849 
L 349.436479 96.938544 
L 350.010886 96.704346 
L 350.585292 96.862492 
L 351.159699 96.691561 
L 351.734105 95.557025 
L 352.308512 93.031768 
L 352.882918 88.97861 
L 354.031731 77.307777 
L 355.180544 64.955038 
L 355.754951 60.36187 
L 356.329357 57.605612 
L 356.903764 56.954051 
L 357.47817 58.354047 
L 358.052577 61.442496 
L 360.350203 77.377831 
L 360.924609 79.154812 
L 361.499016 79.53057 
L 362.073422 78.769308 
L 363.222235 76.112022 
L 363.796642 75.636388 
L 364.371048 76.598869 
L 364.945455 79.40714 
L 365.519861 84.171114 
L 366.668674 98.427476 
L 368.391893 121.829302 
L 368.9663 127.388443 
L 369.540706 131.170488 
L 370.115113 133.23065 
L 370.689519 133.928266 
L 371.838332 133.725855 
L 372.412739 134.235635 
L 372.987145 135.935494 
L 373.561552 139.123632 
L 374.135958 143.787297 
L 376.433584 167.46618 
L 377.007991 171.159668 
L 377.582397 172.849336 
L 378.156804 172.416875 
L 378.73121 170.067101 
L 379.305617 166.289718 
L 381.028836 153.457289 
L 381.603243 150.851992 
L 382.177649 149.664501 
L 382.752056 149.794727 
L 383.326462 150.845235 
L 383.900869 152.196405 
L 384.475275 153.12247 
L 385.049682 152.927253 
L 385.624088 151.074886 
L 386.198494 147.291661 
L 386.772901 141.620447 
L 387.921714 126.293743 
L 389.070527 110.329918 
L 389.644933 103.91688 
L 390.21934 99.187492 
L 390.793746 96.257397 
L 391.368153 94.922472 
L 391.942559 94.70152 
L 392.516966 94.929314 
L 393.091372 94.883013 
L 393.665779 93.91888 
L 394.240185 91.594383 
L 394.814592 87.753404 
L 395.963405 76.46776 
L 397.112218 64.372411 
L 397.686624 59.858639 
L 398.261031 57.16266 
L 398.835437 56.568555 
L 399.409844 58.040616 
L 399.98425 61.230931 
L 402.281876 77.959539 
L 402.856283 79.989847 
L 403.430689 80.606337 
L 404.005096 80.054692 
L 405.153909 77.673755 
L 405.728315 77.258275 
L 406.302721 78.237512 
L 406.877128 81.033535 
L 407.451534 85.77392 
L 408.025941 92.26374 
L 410.323567 123.593655 
L 410.897973 129.244228 
L 411.47238 133.10846 
L 412.046786 135.223142 
L 412.621193 135.931784 
L 413.195599 135.816609 
L 413.770006 135.587214 
L 414.344412 135.946201 
L 414.918819 137.456297 
L 415.493225 140.433183 
L 416.067632 144.883591 
L 418.365258 167.970241 
L 418.939664 171.594005 
L 419.514071 173.226039 
L 420.088477 172.730785 
L 420.662884 170.296278 
L 421.23729 166.399168 
L 422.96051 152.969115 
L 423.534916 150.113118 
L 424.109323 148.677287 
L 424.683729 148.581125 
L 425.258135 149.443976 
L 425.832542 150.657314 
L 426.406948 151.49893 
L 426.981355 151.268185 
L 427.555761 149.417693 
L 428.130168 145.657397 
L 428.704574 140.012091 
L 429.853387 124.685232 
L 431.0022 108.60975 
L 431.576607 102.111238 
L 432.151013 97.295962 
L 432.72542 94.297977 
L 433.299826 92.930742 
L 433.874233 92.726568 
L 434.448639 93.027152 
L 435.023046 93.10865 
L 435.597452 92.318491 
L 436.171859 90.198975 
L 436.746265 86.575122 
L 437.895078 75.686084 
L 439.043891 63.858998 
L 439.618298 59.428694 
L 440.192704 56.79565 
L 440.767111 56.260059 
L 441.341517 57.803664 
L 441.915924 61.093953 
L 444.21355 78.602743 
L 444.787956 80.883683 
L 445.362362 81.738802 
L 445.936769 81.395123 
L 447.085582 79.287278 
L 447.659988 78.929514 
L 448.234395 79.922011 
L 448.808801 82.701001 
L 449.383208 87.411658 
L 449.957614 93.876792 
L 452.25524 125.352162 
L 452.829647 131.087091 
L 453.404053 135.027566 
L 453.97846 137.191956 
L 454.552866 137.907761 
L 455.127273 137.746575 
L 455.701679 137.414746 
L 456.276086 137.619694 
L 456.850492 138.936251 
L 457.424899 141.69741 
L 457.999305 145.9294 
L 459.148118 157.382338 
L 460.296931 168.402467 
L 460.871338 171.953198 
L 461.445744 173.525814 
L 462.020151 172.967601 
L 462.594557 170.449698 
L 463.168964 166.435411 
L 464.892183 152.418304 
L 465.466589 149.31473 
L 466.040996 147.633089 
L 466.615402 147.312516 
L 467.189809 147.989353 
L 467.764215 149.066526 
L 468.338622 149.82581 
L 468.913028 149.56252 
L 469.487435 147.718061 
L 470.061841 143.986188 
L 470.636248 138.373578 
L 471.785061 123.062928 
L 472.933874 106.892846 
L 473.50828 100.316462 
L 474.082687 95.421839 
L 474.657093 92.361338 
L 475.2315 90.966085 
L 475.805906 90.782165 
L 476.380313 91.158576 
L 476.954719 91.370895 
L 477.529126 90.758093 
L 478.103532 88.847565 
L 478.677939 85.445555 
L 479.252345 80.6765 
L 480.975565 63.415721 
L 481.549971 59.072774 
L 482.124378 56.505149 
L 482.698784 56.028959 
L 483.273191 57.643405 
L 483.847597 61.03158 
L 486.145223 79.306444 
L 486.719629 81.835044 
L 487.294036 82.926422 
L 487.868442 82.788816 
L 489.017255 80.950436 
L 489.591662 80.647823 
L 490.166068 81.649999 
L 490.740475 84.407107 
L 491.314881 89.081859 
L 491.889288 95.514933 
L 494.76132 132.914319 
L 495.335727 136.925068 
L 495.910133 139.134358 
L 496.48454 139.853505 
L 497.058946 139.643146 
L 497.633353 139.205971 
L 498.207759 139.253806 
L 498.782166 140.373256 
L 499.356572 142.91444 
L 499.930979 146.923089 
L 501.079792 157.988934 
L 502.228605 168.762081 
L 502.803011 172.236643 
L 503.377417 173.748231 
L 503.951824 173.127068 
L 504.52623 170.527296 
L 505.100637 166.398592 
L 506.823856 151.805761 
L 507.398263 148.45801 
L 507.972669 146.533362 
L 508.547076 145.990608 
L 509.121482 146.483297 
L 509.695889 147.426156 
L 510.270295 148.10537 
L 510.844702 147.812616 
L 511.419108 145.978419 
L 511.993515 142.280507 
L 512.567921 136.707413 
L 513.716734 121.429396 
L 514.865547 105.181852 
L 515.439954 98.535237 
L 516.01436 93.56784 
L 516.588767 90.450204 
L 517.163173 89.031202 
L 517.73758 88.870946 
L 518.886393 89.672118 
L 519.460799 89.239865 
L 520.035206 87.542109 
L 520.609612 84.36642 
L 521.184019 79.817773 
L 523.481644 58.791516 
L 524.056051 56.29162 
L 524.630457 55.875546 
L 525.204864 57.55995 
L 525.77927 61.043722 
L 528.076896 80.069552 
L 528.651303 82.842565 
L 529.225709 84.167569 
L 529.800116 84.233906 
L 530.948929 82.661002 
L 531.523335 82.410856 
L 532.097742 83.419048 
L 532.672148 86.149375 
L 533.246555 90.782012 
L 533.820961 97.175627 
L 536.692994 134.72322 
L 537.2674 138.798255 
L 537.841807 141.047648 
L 538.416213 141.766364 
L 538.99062 141.503761 
L 539.565026 140.958465 
L 540.139433 140.84629 
L 540.713839 141.765275 
L 541.288246 144.082472 
L 541.862652 147.863099 
L 543.011465 158.531395 
L 544.160278 169.048405 
L 544.734684 172.443847 
L 545.309091 173.892966 
L 545.883497 173.209039 
L 546.457904 170.529112 
L 547.03231 166.288958 
L 548.75553 151.132483 
L 549.329936 147.54423 
L 549.904343 145.379647 
L 550.478749 144.617191 
L 551.053156 144.927816 
L 551.627562 145.738392 
L 552.201969 146.339932 
L 552.776375 146.020895 
L 553.350782 144.201249 
L 553.925188 140.542874 
L 554.499595 135.016137 
L 555.648408 119.787217 
L 556.797221 103.479408 
L 557.371627 96.770235 
L 557.946034 91.736657 
L 558.52044 88.567266 
L 559.094847 87.128752 
L 559.669253 86.995498 
L 560.818066 88.014629 
L 561.392472 87.765916 
L 561.966879 86.284489 
L 562.541285 83.339356 
L 563.115692 79.015948 
L 565.413318 58.585451 
L 565.987724 56.155418 
L 566.562131 55.8 
L 567.136537 57.553298 
L 567.710944 61.130185 
L 570.00857 80.890887 
L 570.582976 83.904792 
L 571.157383 85.460533 
L 571.731789 85.728453 
L 572.306196 85.163098 
L 572.880602 84.416681 
L 573.455009 84.216207 
L 574.029415 85.226675 
L 574.603822 87.925278 
L 575.178228 92.509566 
L 575.752635 98.85631 
L 578.624667 136.51112 
L 579.199074 140.644448 
L 579.77348 142.929167 
L 580.347887 143.643733 
L 580.922293 143.325913 
L 581.496699 142.669862 
L 582.071106 142.394964 
L 582.645512 143.110345 
L 583.219919 145.199781 
L 583.794325 148.747959 
L 584.943138 159.008732 
L 586.091951 169.260868 
L 586.666358 172.574418 
L 587.240764 173.959806 
L 587.815171 173.213474 
L 588.389577 170.455294 
L 588.963984 166.106861 
L 590.687203 150.399564 
L 591.26161 146.574753 
L 591.836016 144.173569 
L 592.410423 143.194133 
L 592.984829 143.32499 
L 594.133642 144.531885 
L 594.708049 144.189834 
L 595.282455 142.389084 
L 595.856862 138.775848 
L 596.431268 133.302324 
L 597.580081 118.138982 
L 598.728894 101.788143 
L 599.303301 95.024108 
L 599.877707 89.930953 
L 600.452113 86.715181 
L 601.02652 85.261352 
L 601.600926 85.158358 
L 602.749739 86.400674 
L 603.324146 86.338289 
L 603.898552 85.076515 
L 604.472959 82.365923 
L 605.047365 78.27233 
L 607.344991 58.455007 
L 607.919398 56.09679 
L 608.493804 55.802395 
L 609.068211 57.623343 
L 609.642617 61.290669 
L 610.79143 71.826241 
L 611.940243 81.769176 
L 612.51465 85.02019 
L 613.089056 86.803526 
L 613.663463 87.270439 
L 614.237869 86.859978 
L 614.812276 86.215114 
L 615.386682 86.061409 
L 615.961089 87.070346 
L 616.535495 89.732246 
L 617.109902 94.261936 
L 617.684308 100.554391 
L 620.55634 138.275374 
L 621.130747 142.461003 
L 621.705153 144.776295 
L 622.27956 145.483055 
L 622.853966 145.107149 
L 623.428373 144.337858 
L 624.002779 143.897713 
L 624.577186 144.406575 
L 625.151592 146.264723 
L 625.725999 149.576279 
L 626.874812 159.42005 
L 628.023625 169.399 
L 628.598031 172.628075 
L 629.172438 173.948644 
L 629.746844 173.140444 
L 630.321251 170.306098 
L 630.895657 165.852759 
L 632.618877 149.608184 
L 633.193283 145.551026 
L 633.76769 142.916834 
L 634.342096 141.723381 
L 634.916503 141.676975 
L 636.065316 142.683676 
L 636.639722 142.321965 
L 637.214129 140.544503 
L 637.788535 136.982029 
L 638.362942 131.568577 
L 639.511754 116.487292 
L 640.660567 100.110676 
L 641.234974 93.299484 
L 641.80938 88.15336 
L 642.383787 84.896562 
L 642.958193 83.431568 
L 643.5326 83.362007 
L 644.681413 84.832435 
L 645.255819 84.958954 
L 645.830226 83.919917 
L 646.404632 81.447594 
L 646.979039 77.588134 
L 649.276665 58.400504 
L 649.851071 56.115876 
L 650.425478 55.882696 
L 650.999884 57.769871 
L 651.574291 61.524767 
L 652.723104 72.341179 
L 653.871917 82.703062 
L 654.446323 86.18714 
L 655.02073 88.194679 
L 655.595136 88.857774 
L 656.169543 88.599724 
L 656.743949 88.053882 
L 657.318356 87.94394 
L 657.892762 88.947479 
L 658.467169 91.567668 
L 659.041575 96.036505 
L 659.615981 102.267259 
L 662.488014 140.013365 
L 663.06242 144.245312 
L 663.636827 146.586462 
L 664.211233 147.281827 
L 664.78564 146.845077 
L 665.360046 145.960214 
L 665.934453 145.352494 
L 666.508859 145.652148 
L 667.083266 147.275734 
L 667.657672 150.346758 
L 668.806485 159.764553 
L 669.955298 169.46244 
L 670.529705 172.604642 
L 671.104111 173.859482 
L 671.678518 172.990127 
L 672.252924 170.081884 
L 672.827331 165.527212 
L 674.55055 148.759616 
L 675.124957 144.474579 
L 675.699363 141.611226 
L 676.27377 140.206951 
L 676.848176 139.98599 
L 677.996989 140.79781 
L 678.571395 140.419868 
L 679.145802 138.670125 
L 679.720208 135.164049 
L 680.294615 129.817522 
L 681.443428 114.834752 
L 682.592241 98.449608 
L 683.166647 91.598965 
L 683.741054 86.406474 
L 684.31546 83.113981 
L 684.889867 81.641918 
L 685.464273 81.608871 
L 686.613086 83.312023 
L 687.187493 83.629806 
L 687.761899 82.816348 
L 688.336306 80.585762 
L 688.910712 76.964486 
L 691.208338 58.422155 
L 691.782745 56.212708 
L 692.357151 56.040758 
L 692.931558 57.992561 
L 693.505964 61.831968 
L 694.654777 72.920173 
L 695.80359 83.691101 
L 696.377997 87.403942 
L 696.952403 89.632053 
L 697.526809 90.488301 
L 698.101216 90.379996 
L 698.675622 89.930504 
L 699.250029 89.861226 
L 699.824435 90.855447 
L 700.398842 93.428897 
L 700.973248 97.830627 
L 701.547655 103.992284 
L 702.696468 119.833099 
L 703.845281 135.631692 
L 704.419687 141.72251 
L 704.994094 145.994811 
L 705.5685 148.357143 
L 706.142907 149.037602 
L 706.717313 148.537366 
L 707.29172 147.534758 
L 707.866126 146.757335 
L 708.440533 146.845328 
L 709.014939 148.231333 
L 709.589346 151.058181 
L 710.163752 155.149967 
L 711.886972 169.450929 
L 712.461378 172.504054 
L 713.035785 173.692432 
L 713.610191 172.762808 
L 714.184598 169.783118 
L 714.759004 165.130882 
L 717.05663 143.347026 
L 717.631036 140.258605 
L 718.205443 138.646932 
L 718.779849 138.254321 
L 719.928662 138.876842 
L 720.503069 138.486171 
L 721.077475 136.768612 
L 721.651882 133.324571 
L 722.226288 128.051808 
L 723.375101 113.183965 
L 724.523914 96.807517 
L 725.098321 89.925124 
L 725.672727 84.69285 
L 726.247134 81.369961 
L 726.82154 79.894862 
L 727.395947 79.901311 
L 728.54476 81.841476 
L 729.119166 82.352666 
L 729.693573 81.767377 
L 730.267979 79.78173 
L 730.842386 76.402422 
L 733.140012 58.520067 
L 733.714418 56.387207 
L 734.288825 56.276329 
L 734.863231 58.290983 
L 735.437638 62.21166 
L 736.58645 73.562184 
L 737.735263 84.731765 
L 738.30967 88.66882 
L 738.884076 91.113634 
L 739.458483 92.159795 
L 740.032889 92.198394 
L 740.607296 91.842449 
L 741.181702 91.810648 
L 741.756109 92.791581 
L 742.330515 95.313251 
L 742.904922 99.641635 
L 743.479328 105.726822 
L 744.628141 121.46667 
L 745.776954 137.275248 
L 746.351361 143.400261 
L 746.925767 147.706981 
L 747.500174 150.085871 
L 748.07458 150.747994 
L 748.648987 150.181751 
L 749.7978 148.110341 
L 750.372206 147.984459 
L 750.946613 149.130127 
L 751.521019 151.709426 
L 752.095426 155.565843 
L 753.818645 169.364317 
L 754.393052 172.32635 
L 754.967458 173.447713 
L 755.541865 172.458881 
L 756.116271 169.410374 
L 756.690677 164.664532 
L 758.988303 142.170059 
L 759.56271 138.860905 
L 760.137116 137.045482 
L 760.711523 136.484318 
L 761.860336 136.923381 
L 762.434742 136.523544 
L 763.009149 134.842656 
L 763.583555 131.466284 
L 764.157962 126.2741 
L 765.306775 111.537533 
L 766.455588 95.186959 
L 767.029994 88.280497 
L 767.604401 83.015002 
L 768.178807 79.666971 
L 768.753214 78.192804 
L 769.32762 78.241626 
L 771.05084 81.129271 
L 771.625246 80.774488 
L 772.199653 79.036712 
L 772.774059 75.90288 
L 773.922872 66.909558 
L 774.497279 62.332718 
L 775.071685 58.694238 
L 775.646091 56.639189 
L 776.220498 56.589049 
L 776.794904 58.664605 
L 777.369311 62.663124 
L 778.518124 74.266079 
L 779.666937 85.823446 
L 780.241343 89.979922 
L 780.81575 92.637338 
L 781.390156 93.869968 
L 781.964563 94.05246 
L 782.538969 93.787133 
L 783.113376 93.789539 
L 783.687782 94.753178 
L 784.262189 97.218024 
L 784.836595 101.466841 
L 785.411002 107.46822 
L 786.559815 123.090225 
L 787.708628 138.892049 
L 788.283034 145.044114 
L 788.857441 149.379352 
L 789.431847 151.770233 
L 790.006254 152.41068 
L 790.58066 151.776037 
L 791.729473 149.409697 
L 792.30388 149.067967 
L 792.878286 149.970808 
L 793.452693 152.299462 
L 794.027099 155.916917 
L 795.750318 169.20256 
L 796.324725 172.071681 
L 796.899131 173.125653 
L 797.473538 172.078845 
L 798.047944 168.964325 
L 798.622351 164.129026 
L 800.919977 140.945446 
L 801.494383 137.420131 
L 802.06879 135.40482 
L 802.643196 134.678385 
L 803.217603 134.747277 
L 803.792009 134.940079 
L 804.366416 134.534696 
L 804.940822 132.894984 
L 805.515229 129.5919 
L 806.089635 124.487075 
L 807.238448 109.898051 
L 808.387261 93.590462 
L 808.961668 86.667584 
L 809.536074 81.375394 
L 810.110481 78.007431 
L 810.684887 76.538084 
L 811.259294 76.632046 
L 811.8337 77.709886 
L 812.408107 79.057761 
L 812.982513 79.961277 
L 813.55692 79.83908 
L 814.131326 78.351831 
L 814.705732 75.466707 
L 815.854545 66.895853 
L 816.428952 62.471491 
L 817.003358 58.94456 
L 817.577765 56.968359 
L 818.152171 56.97845 
L 818.726578 59.112787 
L 819.300984 63.185543 
L 820.449797 75.030637 
L 821.59861 86.964457 
L 822.173017 91.335324 
L 822.747423 94.201018 
L 823.32183 95.616472 
L 823.896236 95.939685 
L 824.470643 95.761925 
L 825.045049 95.795195 
L 825.619456 96.737501 
L 826.193862 99.14048 
L 826.768269 103.30354 
L 827.342675 109.213817 
L 828.491488 124.701198 
L 829.640301 140.479599 
L 830.214708 146.651609 
L 830.789114 151.009507 
L 831.363521 153.407877 
L 831.937927 154.023402 
L 832.512334 153.3181 
L 833.661146 150.653668 
L 834.235553 150.094366 
L 834.809959 150.752158 
L 835.384366 152.827353 
L 835.958772 156.202528 
L 837.681992 168.96572 
L 838.256398 171.740303 
L 838.830805 172.726687 
L 839.405211 171.623306 
L 839.979618 168.445752 
L 840.554024 163.525327 
L 842.85165 139.675032 
L 843.426057 135.938355 
L 844.000463 133.727229 
L 844.57487 132.838985 
L 845.149276 132.794373 
L 845.723683 132.92963 
L 846.298089 132.52237 
L 846.872496 130.928348 
L 847.446902 127.704148 
L 848.021309 122.69342 
L 849.170122 108.268098 
L 850.318935 92.020519 
L 850.893341 85.08884 
L 851.467748 79.776442 
L 852.042154 76.393695 
L 852.616561 74.932977 
L 853.190967 75.074731 
L 853.765373 76.25004 
L 854.33978 77.748284 
L 854.914186 78.850258 
L 855.488593 78.962463 
L 856.062999 77.728119 
L 856.637406 75.094651 
L 857.786219 66.952983 
L 858.360625 62.684081 
L 858.935032 59.270817 
L 859.509438 57.374315 
L 860.083845 57.443959 
L 860.658251 59.634785 
L 861.232658 63.777999 
L 862.381471 75.854545 
L 863.530284 88.153034 
L 864.10469 92.733032 
L 864.679097 95.802462 
L 865.253503 97.396903 
L 865.82791 97.857507 
L 866.402316 97.764149 
L 866.976723 97.824872 
L 867.551129 98.741781 
L 868.125536 101.077867 
L 868.699942 105.149017 
L 869.274349 110.960951 
L 870.423162 126.297041 
L 871.571975 142.035442 
L 872.146381 148.220332 
L 872.720787 152.595087 
L 873.295194 154.996514 
L 873.8696 155.583973 
L 874.444007 154.805892 
L 875.59282 151.840603 
L 876.167226 151.062256 
L 876.741633 151.473053 
L 877.316039 153.292255 
L 877.890446 156.422116 
L 879.613665 168.653967 
L 880.188072 171.332582 
L 880.762478 172.251358 
L 881.336885 171.092975 
L 881.911291 167.855535 
L 882.485698 162.854492 
L 884.783324 138.36073 
L 885.35773 134.417714 
L 885.932137 132.015049 
L 886.506543 130.968629 
L 887.08095 130.813778 
L 887.655356 130.894767 
L 888.229763 130.48934 
L 888.804169 128.945523 
L 889.378576 125.805774 
L 889.952982 120.895828 
L 891.101795 106.650244 
L 892.825014 83.546678 
L 893.399421 78.220506 
L 893.973827 74.828062 
L 894.548234 73.379692 
L 895.12264 73.571765 
L 895.697047 74.846211 
L 896.271453 76.496053 
L 896.84586 77.797698 
L 897.420266 78.145855 
L 897.994673 77.166513 
L 898.569079 74.787363 
L 899.717892 67.081065 
L 900.292299 62.970371 
L 900.866705 59.672685 
L 901.441112 57.856549 
L 902.015518 57.984894 
L 902.589925 60.229752 
L 903.164331 64.439473 
L 904.313144 76.736402 
L 905.461957 89.38734 
L 906.036364 94.170986 
L 906.61077 97.4394 
L 907.185177 99.208805 
L 907.759583 99.803319 
L 908.908396 99.875796 
L 909.482803 100.763229 
L 910.057209 103.027411 
L 910.631616 107.000548 
L 911.206022 112.706964 
L 912.354835 127.875228 
L 913.503648 143.557166 
L 914.078054 149.747924 
L 914.652461 154.133792 
L 915.226867 156.533924 
L 915.801274 157.090281 
L 916.37568 156.237443 
L 917.524493 152.968936 
L 918.0989 151.970327 
L 918.673306 152.13246 
L 919.247713 153.693425 
L 919.822119 156.57522 
L 921.545339 168.267577 
L 922.119745 170.84899 
L 922.694152 171.700314 
L 923.268558 170.488669 
L 923.842965 167.194654 
L 924.417371 162.117678 
L 926.714997 137.004525 
L 927.289404 132.860405 
L 927.86381 130.270675 
L 928.438217 129.06988 
L 929.012623 128.808177 
L 929.58703 128.838256 
L 930.161436 128.438409 
L 930.735843 126.949305 
L 931.310249 123.899531 
L 931.884655 119.096992 
L 933.033468 105.047034 
L 934.756688 82.043459 
L 935.331094 76.709888 
L 935.905501 73.312761 
L 936.479907 71.880364 
L 937.054314 72.125157 
L 937.62872 73.500243 
L 938.777533 76.804993 
L 939.35194 77.390385 
L 939.926346 76.667854 
L 940.500753 74.545397 
L 941.075159 71.248463 
L 942.223972 63.330141 
L 942.798379 60.149734 
L 943.372785 58.414446 
L 943.947192 58.600472 
L 944.521598 60.896742 
L 945.096005 65.168851 
L 946.244818 77.674726 
L 947.393631 90.665467 
L 947.968037 95.647062 
L 948.542444 99.109503 
L 949.11685 101.04967 
L 949.691257 101.77447 
L 950.840069 101.945163 
L 951.414476 102.79903 
L 951.988882 104.986331 
L 952.563289 108.855407 
L 953.137695 114.4492 
L 954.286508 129.433261 
L 955.435321 145.042403 
L 956.009728 151.232078 
L 956.584134 155.623383 
L 957.158541 158.017955 
L 957.732947 158.540286 
L 958.307354 157.610862 
L 959.456167 154.037192 
L 960.030573 152.81736 
L 960.60498 152.72944 
L 961.179386 154.030214 
L 961.753793 156.661478 
L 963.477012 167.806932 
L 964.051419 170.290104 
L 964.625825 171.074309 
L 965.200232 169.811303 
L 965.774638 166.464189 
L 966.349045 161.316132 
L 968.646671 135.608464 
L 969.221077 131.268686 
L 969.795483 128.496554 
L 970.36989 127.145341 
L 970.944296 126.780296 
L 971.518703 126.762897 
L 972.093109 126.3724 
L 972.667516 124.942502 
L 973.241922 121.988182 
L 973.816329 117.299602 
L 974.965142 103.460994 
L 976.688361 80.581494 
L 977.262768 75.246831 
L 977.837174 71.849955 
L 978.411581 70.437053 
L 978.985987 70.736836 
L 979.560394 72.213894 
L 980.709207 75.87345 
L 981.283613 76.697086 
L 981.85802 76.232887 
L 982.432426 74.369204 
L 983.006833 71.312351 
L 984.730052 60.701428 
L 985.304459 59.047283 
L 985.878865 59.289803 
L 986.453272 61.634705 
L 987.027678 65.964923 
L 988.176491 78.667947 
L 989.325304 91.985439 
L 989.89971 97.159076 
L 990.474117 100.810391 
L 991.048523 102.916946 
L 991.62293 103.768273 
L 992.771743 104.030145 
L 993.346149 104.846356 
L 993.920556 106.951831 
L 994.494962 110.710864 
L 995.069369 116.185014 
L 996.218182 130.96867 
L 996.218182 130.96867 
" style="fill:none;stroke:#4c72b0;stroke-linecap:round;stroke-width:1.4;"/>
   </g>
   <g id="line2d_30">
    <path clip-path="url(#p97d9c0f566)" d="M 184.581818 206.049888 
L 195.495541 204.683518 
L 206.409265 203.539003 
L 217.322988 202.623456 
L 227.662305 201.972476 
L 238.001621 201.535736 
L 248.340938 201.315664 
L 258.680255 201.313473 
L 269.019572 201.529161 
L 279.358888 201.961504 
L 289.698205 202.608067 
L 300.611928 203.518921 
L 311.525651 204.658703 
L 322.439375 206.020291 
L 333.927504 207.683798 
L 345.415634 209.572128 
L 357.47817 211.782528 
L 370.115113 214.330197 
L 383.326462 217.224675 
L 397.686624 220.608155 
L 413.195599 224.498818 
L 431.0022 229.20665 
L 453.404053 235.378759 
L 516.01436 252.77681 
L 533.820961 257.407371 
L 549.329936 261.210466 
L 563.115692 264.37038 
L 576.327041 267.173372 
L 588.963984 269.624177 
L 601.02652 271.734335 
L 612.51465 273.520839 
L 624.002779 275.077031 
L 634.916503 276.332262 
L 645.830226 277.362066 
L 656.743949 278.160006 
L 667.083266 278.697528 
L 677.422583 279.019436 
L 687.761899 279.123913 
L 698.101216 279.01036 
L 708.440533 278.679395 
L 718.779849 278.132853 
L 729.119166 277.373775 
L 740.032889 276.346643 
L 750.946613 275.093811 
L 761.860336 273.623069 
L 773.348466 271.849577 
L 785.411002 269.751865 
L 797.473538 267.428572 
L 810.110481 264.771961 
L 823.896236 261.639693 
L 838.830805 258.005885 
L 854.914186 253.860279 
L 873.8696 248.739855 
L 900.866705 241.190931 
L 941.075159 229.957373 
L 960.030573 224.900616 
L 976.113955 220.829808 
L 990.474117 217.413424 
L 996.218182 216.113286 
L 996.218182 216.113286 
" style="fill:none;stroke:#55a868;stroke-linecap:round;stroke-width:1.4;"/>
   </g>
   <g id="patch_3">
    <path d="M 144 320.4 
L 144 43.2 
" style="fill:none;"/>
   </g>
   <g id="patch_4">
    <path d="M 1036.8 320.4 
L 1036.8 43.2 
" style="fill:none;"/>
   </g>
   <g id="patch_5">
    <path d="M 144 320.4 
L 1036.8 320.4 
" style="fill:none;"/>
   </g>
   <g id="patch_6">
    <path d="M 144 43.2 
L 1036.8 43.2 
" style="fill:none;"/>
   </g>
   <g id="legend_1">
    <g id="line2d_31">
     <path d="M 1002.75125 53.3975 
L 1018.75125 53.3975 
" style="fill:none;stroke:#4c72b0;stroke-linecap:round;stroke-width:1.4;"/>
    </g>
    <g id="line2d_32"/>
    <g id="text_15">
     <!-- a -->
     <defs>
      <path d="M 20.21875 -0.984375 
Q 12.25 -0.984375 8.25 3.21875 
Q 4.25 7.421875 4.25 14.75 
Q 4.25 19.96875 6.21875 23.3125 
Q 8.203125 26.65625 11.390625 28.5625 
Q 14.59375 30.46875 18.6875 31.203125 
Q 22.796875 31.9375 27.046875 32.03125 
L 38.921875 32.234375 
L 38.921875 35.109375 
Q 38.921875 38.375 38.234375 40.671875 
Q 37.546875 42.96875 36.125 44.375 
Q 34.71875 45.796875 32.59375 46.453125 
Q 30.46875 47.125 27.59375 47.125 
Q 25.046875 47.125 23 46.75 
Q 20.953125 46.390625 19.4375 45.4375 
Q 17.921875 44.484375 16.984375 42.84375 
Q 16.0625 41.21875 15.765625 38.71875 
L 6.59375 39.546875 
Q 7.078125 42.671875 8.4375 45.28125 
Q 9.8125 47.90625 12.328125 49.796875 
Q 14.84375 51.703125 18.625 52.75 
Q 22.40625 53.8125 27.78125 53.8125 
Q 37.75 53.8125 42.765625 49.234375 
Q 47.796875 44.671875 47.796875 36.03125 
L 47.796875 13.28125 
Q 47.796875 9.375 48.828125 7.390625 
Q 49.859375 5.421875 52.734375 5.421875 
Q 53.46875 5.421875 54.203125 5.515625 
Q 54.9375 5.609375 55.609375 5.765625 
L 55.609375 0.296875 
Q 53.953125 -0.09375 52.3125 -0.28125 
Q 50.6875 -0.484375 48.828125 -0.484375 
Q 46.34375 -0.484375 44.5625 0.171875 
Q 42.78125 0.828125 41.65625 2.171875 
Q 40.53125 3.515625 39.9375 5.484375 
Q 39.359375 7.46875 39.203125 10.109375 
L 38.921875 10.109375 
Q 37.5 7.5625 35.8125 5.515625 
Q 34.125 3.46875 31.875 2.03125 
Q 29.640625 0.59375 26.78125 -0.1875 
Q 23.921875 -0.984375 20.21875 -0.984375 
M 22.21875 5.609375 
Q 26.421875 5.609375 29.5625 7.140625 
Q 32.71875 8.6875 34.78125 11.078125 
Q 36.859375 13.484375 37.890625 16.3125 
Q 38.921875 19.140625 38.921875 21.734375 
L 38.921875 26.078125 
L 29.296875 25.875 
Q 26.078125 25.828125 23.171875 25.40625 
Q 20.265625 25 18.0625 23.78125 
Q 15.875 22.5625 14.578125 20.359375 
Q 13.28125 18.171875 13.28125 14.59375 
Q 13.28125 10.296875 15.59375 7.953125 
Q 17.921875 5.609375 22.21875 5.609375 
" id="LiberationSans-61"/>
     </defs>
     <g style="fill:#262626;" transform="translate(1025.15125 56.1975)scale(0.08 -0.08)">
      <use xlink:href="#LiberationSans-61"/>
     </g>
    </g>
    <g id="line2d_33">
     <path d="M 1002.75125 64.855 
L 1018.75125 64.855 
" style="fill:none;stroke:#55a868;stroke-linecap:round;stroke-width:1.4;"/>
    </g>
    <g id="line2d_34"/>
    <g id="text_16">
     <!-- b -->
     <defs>
      <path d="M 51.421875 26.65625 
Q 51.421875 -0.984375 31.984375 -0.984375 
Q 25.984375 -0.984375 22 1.1875 
Q 18.015625 3.375 15.53125 8.203125 
L 15.4375 8.203125 
Q 15.4375 6.9375 15.359375 5.5625 
Q 15.28125 4.203125 15.203125 3.03125 
Q 15.140625 1.859375 15.0625 1.03125 
Q 14.984375 0.203125 14.9375 0 
L 6.453125 0 
Q 6.5 0.4375 6.546875 1.484375 
Q 6.59375 2.546875 6.640625 4 
Q 6.6875 5.46875 6.703125 7.21875 
Q 6.734375 8.984375 6.734375 10.890625 
L 6.734375 72.46875 
L 15.53125 72.46875 
L 15.53125 51.8125 
Q 15.53125 50.34375 15.5 49 
Q 15.484375 47.65625 15.4375 46.625 
Q 15.375 45.40625 15.328125 44.34375 
L 15.53125 44.34375 
Q 17.96875 49.421875 22 51.609375 
Q 26.03125 53.8125 31.984375 53.8125 
Q 42 53.8125 46.703125 47.0625 
Q 51.421875 40.328125 51.421875 26.65625 
M 42.1875 26.375 
Q 42.1875 31.84375 41.5 35.75 
Q 40.828125 39.65625 39.3125 42.15625 
Q 37.796875 44.671875 35.453125 45.84375 
Q 33.109375 47.015625 29.734375 47.015625 
Q 26.265625 47.015625 23.609375 45.890625 
Q 20.953125 44.78125 19.171875 42.28125 
Q 17.390625 39.796875 16.453125 35.734375 
Q 15.53125 31.6875 15.53125 25.828125 
Q 15.53125 20.171875 16.453125 16.3125 
Q 17.390625 12.453125 19.171875 10.03125 
Q 20.953125 7.625 23.578125 6.5625 
Q 26.21875 5.515625 29.640625 5.515625 
Q 32.859375 5.515625 35.203125 6.640625 
Q 37.546875 7.765625 39.109375 10.25 
Q 40.671875 12.75 41.421875 16.71875 
Q 42.1875 20.703125 42.1875 26.375 
" id="LiberationSans-62"/>
     </defs>
     <g style="fill:#262626;" transform="translate(1025.15125 67.655)scale(0.08 -0.08)">
      <use xlink:href="#LiberationSans-62"/>
     </g>
    </g>
   </g>
  </g>
 </g>
 <defs>
  <clipPath id="p97d9c0f566">
   <rect height="277.2" width="892.8" x="144" y="43.2"/>
  </clipPath>
 </defs>
</svg>
