<?xml version="1.0" encoding="utf-8" standalone="no"?>
<!DOCTYPE svg PUBLIC "-//W3C//DTD SVG 1.1//EN"
  "http://www.w3.org/Graphics/SVG/1.1/DTD/svg11.dtd">
<!-- Created with matplotlib (http://matplotlib.org/) -->
<svg height="360pt" version="1.1" viewBox="0 0 1152 360" width="1152pt" xmlns="http://www.w3.org/2000/svg" xmlns:xlink="http://www.w3.org/1999/xlink">
 <defs>
  <style type="text/css">
*{stroke-linecap:butt;stroke-linejoin:round;}
  </style>
 </defs>
 <g id="figure_1">
  <g id="patch_1">
   <path d="M 0 360 
L 1152 360 
L 1152 0 
L 0 0 
z
" style="fill:#ffffff;"/>
  </g>
  <g id="axes_1">
   <g id="patch_2">
    <path d="M 144 320.4 
L 1036.8 320.4 
L 1036.8 43.2 
L 144 43.2 
z
" style="fill:#eaeaf2;"/>
   </g>
   <g id="matplotlib.axis_1">
    <g id="xtick_1">
     <g id="line2d_1">
      <path clip-path="url(#p68734f1e1a)" d="M 184.581818 320.4 
L 184.581818 43.2 
" style="fill:none;stroke:#ffffff;stroke-linecap:round;stroke-width:0.8;"/>
     </g>
     <g id="line2d_2"/>
     <g id="text_1">
      <!-- 0 -->
      <defs>
       <path d="M 51.703125 34.421875 
Q 51.703125 24.515625 49.828125 17.75 
Q 47.953125 10.984375 44.703125 6.8125 
Q 41.453125 2.640625 37.0625 0.828125 
Q 32.671875 -0.984375 27.6875 -0.984375 
Q 22.65625 -0.984375 18.3125 0.828125 
Q 13.96875 2.640625 10.765625 6.78125 
Q 7.5625 10.9375 5.734375 17.703125 
Q 3.90625 24.46875 3.90625 34.421875 
Q 3.90625 44.828125 5.734375 51.640625 
Q 7.5625 58.453125 10.78125 62.5 
Q 14.015625 66.546875 18.40625 68.1875 
Q 22.796875 69.828125 27.984375 69.828125 
Q 32.90625 69.828125 37.21875 68.1875 
Q 41.546875 66.546875 44.765625 62.5 
Q 48 58.453125 49.84375 51.640625 
Q 51.703125 44.828125 51.703125 34.421875 
M 42.78125 34.421875 
Q 42.78125 42.625 41.796875 48.0625 
Q 40.828125 53.515625 38.921875 56.765625 
Q 37.015625 60.015625 34.25 61.359375 
Q 31.5 62.703125 27.984375 62.703125 
Q 24.265625 62.703125 21.4375 61.328125 
Q 18.609375 59.96875 16.671875 56.71875 
Q 14.75 53.46875 13.765625 48.015625 
Q 12.796875 42.578125 12.796875 34.421875 
Q 12.796875 26.515625 13.796875 21.09375 
Q 14.796875 15.671875 16.71875 12.375 
Q 18.65625 9.078125 21.4375 7.640625 
Q 24.21875 6.203125 27.78125 6.203125 
Q 31.25 6.203125 34.03125 7.640625 
Q 36.8125 9.078125 38.734375 12.375 
Q 40.671875 15.671875 41.71875 21.09375 
Q 42.78125 26.515625 42.78125 34.421875 
" id="LiberationSans-30"/>
      </defs>
      <g style="fill:#262626;" transform="translate(182.357443 331.7975)scale(0.08 -0.08)">
       <use xlink:href="#LiberationSans-30"/>
      </g>
     </g>
    </g>
    <g id="xtick_2">
     <g id="line2d_3">
      <path clip-path="url(#p68734f1e1a)" d="M 299.625952 320.4 
L 299.625952 43.2 
" style="fill:none;stroke:#ffffff;stroke-linecap:round;stroke-width:0.8;"/>
     </g>
     <g id="line2d_4"/>
     <g id="text_2">
      <!-- 200 -->
      <defs>
       <path d="M 5.03125 0 
L 5.03125 6.203125 
Q 7.515625 11.921875 11.109375 16.28125 
Q 14.703125 20.65625 18.65625 24.1875 
Q 22.609375 27.734375 26.484375 30.765625 
Q 30.375 33.796875 33.5 36.8125 
Q 36.625 39.84375 38.546875 43.15625 
Q 40.484375 46.484375 40.484375 50.6875 
Q 40.484375 53.609375 39.59375 55.828125 
Q 38.71875 58.0625 37.0625 59.5625 
Q 35.40625 61.078125 33.078125 61.828125 
Q 30.765625 62.59375 27.9375 62.59375 
Q 25.296875 62.59375 22.96875 61.859375 
Q 20.65625 61.140625 18.84375 59.671875 
Q 17.046875 58.203125 15.890625 56.03125 
Q 14.75 53.859375 14.40625 50.984375 
L 5.421875 51.8125 
Q 5.859375 55.515625 7.46875 58.78125 
Q 9.078125 62.0625 11.90625 64.53125 
Q 14.75 67 18.71875 68.40625 
Q 22.703125 69.828125 27.9375 69.828125 
Q 33.0625 69.828125 37.0625 68.609375 
Q 41.0625 67.390625 43.8125 64.984375 
Q 46.578125 62.59375 48.046875 59.078125 
Q 49.515625 55.5625 49.515625 50.984375 
Q 49.515625 47.515625 48.265625 44.390625 
Q 47.015625 41.265625 44.9375 38.421875 
Q 42.875 35.59375 40.140625 32.953125 
Q 37.40625 30.328125 34.421875 27.8125 
Q 31.453125 25.296875 28.421875 22.828125 
Q 25.390625 20.359375 22.71875 17.859375 
Q 20.0625 15.375 17.96875 12.8125 
Q 15.875 10.25 14.703125 7.46875 
L 50.59375 7.46875 
L 50.59375 0 
z
" id="LiberationSans-32"/>
      </defs>
      <g style="fill:#262626;" transform="translate(292.952827 331.7975)scale(0.08 -0.08)">
       <use xlink:href="#LiberationSans-32"/>
       <use x="55.615234" xlink:href="#LiberationSans-30"/>
       <use x="111.230469" xlink:href="#LiberationSans-30"/>
      </g>
     </g>
    </g>
    <g id="xtick_3">
     <g id="line2d_5">
      <path clip-path="url(#p68734f1e1a)" d="M 414.670086 320.4 
L 414.670086 43.2 
" style="fill:none;stroke:#ffffff;stroke-linecap:round;stroke-width:0.8;"/>
     </g>
     <g id="line2d_6"/>
     <g id="text_3">
      <!-- 400 -->
      <defs>
       <path d="M 43.015625 15.578125 
L 43.015625 0 
L 34.71875 0 
L 34.71875 15.578125 
L 2.296875 15.578125 
L 2.296875 22.40625 
L 33.796875 68.796875 
L 43.015625 68.796875 
L 43.015625 22.515625 
L 52.6875 22.515625 
L 52.6875 15.578125 
z
M 34.71875 58.890625 
Q 34.625 58.640625 34.234375 57.9375 
Q 33.84375 57.234375 33.34375 56.34375 
Q 32.859375 55.46875 32.34375 54.5625 
Q 31.84375 53.65625 31.453125 53.078125 
L 13.8125 27.09375 
Q 13.578125 26.703125 13.109375 26.0625 
Q 12.640625 25.4375 12.15625 24.78125 
Q 11.671875 24.125 11.171875 23.484375 
Q 10.6875 22.859375 10.40625 22.515625 
L 34.71875 22.515625 
z
" id="LiberationSans-34"/>
      </defs>
      <g style="fill:#262626;" transform="translate(407.996961 331.7975)scale(0.08 -0.08)">
       <use xlink:href="#LiberationSans-34"/>
       <use x="55.615234" xlink:href="#LiberationSans-30"/>
       <use x="111.230469" xlink:href="#LiberationSans-30"/>
      </g>
     </g>
    </g>
    <g id="xtick_4">
     <g id="line2d_7">
      <path clip-path="url(#p68734f1e1a)" d="M 529.714219 320.4 
L 529.714219 43.2 
" style="fill:none;stroke:#ffffff;stroke-linecap:round;stroke-width:0.8;"/>
     </g>
     <g id="line2d_8"/>
     <g id="text_4">
      <!-- 600 -->
      <defs>
       <path d="M 51.21875 22.515625 
Q 51.21875 17.328125 49.78125 13 
Q 48.34375 8.6875 45.53125 5.578125 
Q 42.71875 2.484375 38.5625 0.75 
Q 34.421875 -0.984375 29 -0.984375 
Q 23 -0.984375 18.5 1.3125 
Q 14.015625 3.609375 11.03125 7.921875 
Q 8.0625 12.25 6.5625 18.53125 
Q 5.078125 24.8125 5.078125 32.8125 
Q 5.078125 42 6.765625 48.921875 
Q 8.453125 55.859375 11.625 60.5 
Q 14.796875 65.140625 19.359375 67.484375 
Q 23.921875 69.828125 29.6875 69.828125 
Q 33.203125 69.828125 36.28125 69.09375 
Q 39.359375 68.359375 41.875 66.71875 
Q 44.390625 65.09375 46.28125 62.40625 
Q 48.1875 59.71875 49.3125 55.8125 
L 40.921875 54.296875 
Q 39.546875 58.734375 36.546875 60.71875 
Q 33.546875 62.703125 29.59375 62.703125 
Q 25.984375 62.703125 23.046875 60.984375 
Q 20.125 59.28125 18.0625 55.875 
Q 16.015625 52.484375 14.90625 47.359375 
Q 13.8125 42.234375 13.8125 35.40625 
Q 16.21875 39.84375 20.5625 42.15625 
Q 24.90625 44.484375 30.515625 44.484375 
Q 35.203125 44.484375 39.015625 42.96875 
Q 42.828125 41.453125 45.53125 38.59375 
Q 48.25 35.75 49.734375 31.671875 
Q 51.21875 27.59375 51.21875 22.515625 
M 42.28125 22.125 
Q 42.28125 25.6875 41.40625 28.5625 
Q 40.53125 31.453125 38.765625 33.46875 
Q 37.015625 35.5 34.421875 36.59375 
Q 31.84375 37.703125 28.421875 37.703125 
Q 26.03125 37.703125 23.578125 36.984375 
Q 21.140625 36.28125 19.15625 34.6875 
Q 17.1875 33.109375 15.9375 30.515625 
Q 14.703125 27.9375 14.703125 24.21875 
Q 14.703125 20.40625 15.671875 17.109375 
Q 16.65625 13.8125 18.484375 11.375 
Q 20.3125 8.9375 22.890625 7.515625 
Q 25.484375 6.109375 28.71875 6.109375 
Q 31.890625 6.109375 34.40625 7.203125 
Q 36.921875 8.296875 38.671875 10.375 
Q 40.4375 12.453125 41.359375 15.421875 
Q 42.28125 18.40625 42.28125 22.125 
" id="LiberationSans-36"/>
      </defs>
      <g style="fill:#262626;" transform="translate(523.041094 331.7975)scale(0.08 -0.08)">
       <use xlink:href="#LiberationSans-36"/>
       <use x="55.615234" xlink:href="#LiberationSans-30"/>
       <use x="111.230469" xlink:href="#LiberationSans-30"/>
      </g>
     </g>
    </g>
    <g id="xtick_5">
     <g id="line2d_9">
      <path clip-path="url(#p68734f1e1a)" d="M 644.758353 320.4 
L 644.758353 43.2 
" style="fill:none;stroke:#ffffff;stroke-linecap:round;stroke-width:0.8;"/>
     </g>
     <g id="line2d_10"/>
     <g id="text_5">
      <!-- 800 -->
      <defs>
       <path d="M 51.265625 19.1875 
Q 51.265625 14.796875 49.875 11.109375 
Q 48.484375 7.421875 45.625 4.734375 
Q 42.78125 2.046875 38.328125 0.53125 
Q 33.890625 -0.984375 27.828125 -0.984375 
Q 21.78125 -0.984375 17.359375 0.53125 
Q 12.9375 2.046875 10.03125 4.703125 
Q 7.125 7.375 5.734375 11.0625 
Q 4.34375 14.75 4.34375 19.09375 
Q 4.34375 22.859375 5.484375 25.78125 
Q 6.640625 28.71875 8.5625 30.828125 
Q 10.5 32.953125 12.96875 34.25 
Q 15.4375 35.546875 18.0625 35.984375 
L 18.0625 36.1875 
Q 15.1875 36.859375 12.90625 38.375 
Q 10.640625 39.890625 9.09375 42.015625 
Q 7.5625 44.140625 6.75 46.71875 
Q 5.953125 49.3125 5.953125 52.203125 
Q 5.953125 55.8125 7.34375 59 
Q 8.734375 62.203125 11.46875 64.625 
Q 14.203125 67.046875 18.25 68.4375 
Q 22.3125 69.828125 27.640625 69.828125 
Q 33.25 69.828125 37.375 68.40625 
Q 41.5 67 44.203125 64.578125 
Q 46.921875 62.15625 48.234375 58.9375 
Q 49.5625 55.71875 49.5625 52.09375 
Q 49.5625 49.265625 48.75 46.671875 
Q 47.953125 44.09375 46.40625 41.96875 
Q 44.875 39.84375 42.59375 38.34375 
Q 40.328125 36.859375 37.359375 36.28125 
L 37.359375 36.078125 
Q 40.328125 35.59375 42.859375 34.296875 
Q 45.40625 33.015625 47.265625 30.890625 
Q 49.125 28.765625 50.1875 25.828125 
Q 51.265625 22.90625 51.265625 19.1875 
M 40.4375 51.609375 
Q 40.4375 54.203125 39.765625 56.34375 
Q 39.109375 58.5 37.59375 60.03125 
Q 36.078125 61.578125 33.640625 62.421875 
Q 31.203125 63.28125 27.640625 63.28125 
Q 24.171875 63.28125 21.78125 62.421875 
Q 19.390625 61.578125 17.84375 60.03125 
Q 16.3125 58.5 15.625 56.34375 
Q 14.9375 54.203125 14.9375 51.609375 
Q 14.9375 49.5625 15.46875 47.40625 
Q 16.015625 45.265625 17.421875 43.5 
Q 18.84375 41.75 21.328125 40.625 
Q 23.828125 39.5 27.734375 39.5 
Q 31.890625 39.5 34.40625 40.625 
Q 36.921875 41.75 38.25 43.5 
Q 39.59375 45.265625 40.015625 47.40625 
Q 40.4375 49.5625 40.4375 51.609375 
M 42.140625 20.015625 
Q 42.140625 22.515625 41.453125 24.828125 
Q 40.765625 27.15625 39.109375 28.9375 
Q 37.453125 30.71875 34.640625 31.8125 
Q 31.84375 32.90625 27.640625 32.90625 
Q 23.78125 32.90625 21.0625 31.8125 
Q 18.359375 30.71875 16.671875 28.90625 
Q 14.984375 27.09375 14.203125 24.71875 
Q 13.421875 22.359375 13.421875 19.828125 
Q 13.421875 16.65625 14.203125 14.03125 
Q 14.984375 11.421875 16.6875 9.546875 
Q 18.40625 7.671875 21.1875 6.640625 
Q 23.96875 5.609375 27.9375 5.609375 
Q 31.9375 5.609375 34.671875 6.640625 
Q 37.40625 7.671875 39.0625 9.546875 
Q 40.71875 11.421875 41.421875 14.078125 
Q 42.140625 16.75 42.140625 20.015625 
" id="LiberationSans-38"/>
      </defs>
      <g style="fill:#262626;" transform="translate(638.085228 331.7975)scale(0.08 -0.08)">
       <use xlink:href="#LiberationSans-38"/>
       <use x="55.615234" xlink:href="#LiberationSans-30"/>
       <use x="111.230469" xlink:href="#LiberationSans-30"/>
      </g>
     </g>
    </g>
    <g id="xtick_6">
     <g id="line2d_11">
      <path clip-path="url(#p68734f1e1a)" d="M 759.802487 320.4 
L 759.802487 43.2 
" style="fill:none;stroke:#ffffff;stroke-linecap:round;stroke-width:0.8;"/>
     </g>
     <g id="line2d_12"/>
     <g id="text_6">
      <!-- 1000 -->
      <defs>
       <path d="M 7.625 0 
L 7.625 7.46875 
L 25.140625 7.46875 
L 25.140625 60.40625 
L 9.625 49.3125 
L 9.625 57.625 
L 25.875 68.796875 
L 33.984375 68.796875 
L 33.984375 7.46875 
L 50.734375 7.46875 
L 50.734375 0 
z
" id="LiberationSans-31"/>
      </defs>
      <g style="fill:#262626;" transform="translate(750.904987 331.7975)scale(0.08 -0.08)">
       <use xlink:href="#LiberationSans-31"/>
       <use x="55.615234" xlink:href="#LiberationSans-30"/>
       <use x="111.230469" xlink:href="#LiberationSans-30"/>
       <use x="166.845703" xlink:href="#LiberationSans-30"/>
      </g>
     </g>
    </g>
    <g id="xtick_7">
     <g id="line2d_13">
      <path clip-path="url(#p68734f1e1a)" d="M 874.846621 320.4 
L 874.846621 43.2 
" style="fill:none;stroke:#ffffff;stroke-linecap:round;stroke-width:0.8;"/>
     </g>
     <g id="line2d_14"/>
     <g id="text_7">
      <!-- 1200 -->
      <g style="fill:#262626;" transform="translate(865.949121 331.7975)scale(0.08 -0.08)">
       <use xlink:href="#LiberationSans-31"/>
       <use x="55.615234" xlink:href="#LiberationSans-32"/>
       <use x="111.230469" xlink:href="#LiberationSans-30"/>
       <use x="166.845703" xlink:href="#LiberationSans-30"/>
      </g>
     </g>
    </g>
    <g id="xtick_8">
     <g id="line2d_15">
      <path clip-path="url(#p68734f1e1a)" d="M 989.890754 320.4 
L 989.890754 43.2 
" style="fill:none;stroke:#ffffff;stroke-linecap:round;stroke-width:0.8;"/>
     </g>
     <g id="line2d_16"/>
     <g id="text_8">
      <!-- 1400 -->
      <g style="fill:#262626;" transform="translate(980.993254 331.7975)scale(0.08 -0.08)">
       <use xlink:href="#LiberationSans-31"/>
       <use x="55.615234" xlink:href="#LiberationSans-34"/>
       <use x="111.230469" xlink:href="#LiberationSans-30"/>
       <use x="166.845703" xlink:href="#LiberationSans-30"/>
      </g>
     </g>
    </g>
   </g>
   <g id="matplotlib.axis_2">
    <g id="ytick_1">
     <g id="line2d_17">
      <path clip-path="url(#p68734f1e1a)" d="M 144 307.8 
L 1036.8 307.8 
" style="fill:none;stroke:#ffffff;stroke-linecap:round;stroke-width:0.8;"/>
     </g>
     <g id="line2d_18"/>
     <g id="text_9">
      <!-- −1.00 -->
      <defs>
       <path d="M 4.9375 29.6875 
L 4.9375 36.8125 
L 53.515625 36.8125 
L 53.515625 29.6875 
z
" id="LiberationSans-2212"/>
       <path d="M 9.125 0 
L 9.125 10.6875 
L 18.65625 10.6875 
L 18.65625 0 
z
" id="LiberationSans-2e"/>
      </defs>
      <g style="fill:#262626;" transform="translate(118.15875 310.69875)scale(0.08 -0.08)">
       <use xlink:href="#LiberationSans-2212"/>
       <use x="58.398438" xlink:href="#LiberationSans-31"/>
       <use x="114.013672" xlink:href="#LiberationSans-2e"/>
       <use x="141.796875" xlink:href="#LiberationSans-30"/>
       <use x="197.412109" xlink:href="#LiberationSans-30"/>
      </g>
     </g>
    </g>
    <g id="ytick_2">
     <g id="line2d_19">
      <path clip-path="url(#p68734f1e1a)" d="M 144 276.3 
L 1036.8 276.3 
" style="fill:none;stroke:#ffffff;stroke-linecap:round;stroke-width:0.8;"/>
     </g>
     <g id="line2d_20"/>
     <g id="text_10">
      <!-- −0.75 -->
      <defs>
       <path d="M 50.59375 61.671875 
Q 45.40625 53.765625 41.0625 46.453125 
Q 36.71875 39.15625 33.59375 31.75 
Q 30.46875 24.359375 28.734375 16.578125 
Q 27 8.796875 27 0 
L 17.828125 0 
Q 17.828125 8.25 19.78125 16.1875 
Q 21.734375 24.125 25.046875 31.765625 
Q 28.375 39.40625 32.765625 46.78125 
Q 37.15625 54.15625 42.09375 61.328125 
L 5.125 61.328125 
L 5.125 68.796875 
L 50.59375 68.796875 
z
" id="LiberationSans-37"/>
       <path d="M 51.421875 22.40625 
Q 51.421875 17.234375 49.859375 12.9375 
Q 48.296875 8.640625 45.21875 5.53125 
Q 42.140625 2.4375 37.578125 0.71875 
Q 33.015625 -0.984375 27 -0.984375 
Q 21.578125 -0.984375 17.546875 0.28125 
Q 13.53125 1.5625 10.734375 3.78125 
Q 7.953125 6 6.3125 8.984375 
Q 4.6875 11.96875 4 15.375 
L 12.890625 16.40625 
Q 13.421875 14.453125 14.390625 12.625 
Q 15.375 10.796875 17.0625 9.34375 
Q 18.75 7.90625 21.21875 7.046875 
Q 23.6875 6.203125 27.203125 6.203125 
Q 30.609375 6.203125 33.390625 7.25 
Q 36.1875 8.296875 38.15625 10.34375 
Q 40.140625 12.40625 41.203125 15.375 
Q 42.28125 18.359375 42.28125 22.21875 
Q 42.28125 25.390625 41.25 28.046875 
Q 40.234375 30.71875 38.328125 32.640625 
Q 36.421875 34.578125 33.65625 35.640625 
Q 30.90625 36.71875 27.390625 36.71875 
Q 25.203125 36.71875 23.34375 36.328125 
Q 21.484375 35.9375 19.890625 35.25 
Q 18.3125 34.578125 17.015625 33.671875 
Q 15.71875 32.765625 14.59375 31.78125 
L 6 31.78125 
L 8.296875 68.796875 
L 47.40625 68.796875 
L 47.40625 61.328125 
L 16.3125 61.328125 
L 14.984375 39.5 
Q 17.328125 41.3125 20.84375 42.59375 
Q 24.359375 43.890625 29.203125 43.890625 
Q 34.328125 43.890625 38.421875 42.328125 
Q 42.53125 40.765625 45.40625 37.90625 
Q 48.296875 35.0625 49.859375 31.109375 
Q 51.421875 27.15625 51.421875 22.40625 
" id="LiberationSans-35"/>
      </defs>
      <g style="fill:#262626;" transform="translate(118.15875 279.19875)scale(0.08 -0.08)">
       <use xlink:href="#LiberationSans-2212"/>
       <use x="58.398438" xlink:href="#LiberationSans-30"/>
       <use x="114.013672" xlink:href="#LiberationSans-2e"/>
       <use x="141.796875" xlink:href="#LiberationSans-37"/>
       <use x="197.412109" xlink:href="#LiberationSans-35"/>
      </g>
     </g>
    </g>
    <g id="ytick_3">
     <g id="line2d_21">
      <path clip-path="url(#p68734f1e1a)" d="M 144 244.8 
L 1036.8 244.8 
" style="fill:none;stroke:#ffffff;stroke-linecap:round;stroke-width:0.8;"/>
     </g>
     <g id="line2d_22"/>
     <g id="text_11">
      <!-- −0.50 -->
      <g style="fill:#262626;" transform="translate(118.15875 247.69875)scale(0.08 -0.08)">
       <use xlink:href="#LiberationSans-2212"/>
       <use x="58.398438" xlink:href="#LiberationSans-30"/>
       <use x="114.013672" xlink:href="#LiberationSans-2e"/>
       <use x="141.796875" xlink:href="#LiberationSans-35"/>
       <use x="197.412109" xlink:href="#LiberationSans-30"/>
      </g>
     </g>
    </g>
    <g id="ytick_4">
     <g id="line2d_23">
      <path clip-path="url(#p68734f1e1a)" d="M 144 213.3 
L 1036.8 213.3 
" style="fill:none;stroke:#ffffff;stroke-linecap:round;stroke-width:0.8;"/>
     </g>
     <g id="line2d_24"/>
     <g id="text_12">
      <!-- −0.25 -->
      <g style="fill:#262626;" transform="translate(118.15875 216.19875)scale(0.08 -0.08)">
       <use xlink:href="#LiberationSans-2212"/>
       <use x="58.398438" xlink:href="#LiberationSans-30"/>
       <use x="114.013672" xlink:href="#LiberationSans-2e"/>
       <use x="141.796875" xlink:href="#LiberationSans-32"/>
       <use x="197.412109" xlink:href="#LiberationSans-35"/>
      </g>
     </g>
    </g>
    <g id="ytick_5">
     <g id="line2d_25">
      <path clip-path="url(#p68734f1e1a)" d="M 144 181.8 
L 1036.8 181.8 
" style="fill:none;stroke:#ffffff;stroke-linecap:round;stroke-width:0.8;"/>
     </g>
     <g id="line2d_26"/>
     <g id="text_13">
      <!-- 0.00 -->
      <g style="fill:#262626;" transform="translate(122.83125 184.69875)scale(0.08 -0.08)">
       <use xlink:href="#LiberationSans-30"/>
       <use x="55.615234" xlink:href="#LiberationSans-2e"/>
       <use x="83.398438" xlink:href="#LiberationSans-30"/>
       <use x="139.013672" xlink:href="#LiberationSans-30"/>
      </g>
     </g>
    </g>
    <g id="ytick_6">
     <g id="line2d_27">
      <path clip-path="url(#p68734f1e1a)" d="M 144 150.3 
L 1036.8 150.3 
" style="fill:none;stroke:#ffffff;stroke-linecap:round;stroke-width:0.8;"/>
     </g>
     <g id="line2d_28"/>
     <g id="text_14">
      <!-- 0.25 -->
      <g style="fill:#262626;" transform="translate(122.83125 153.19875)scale(0.08 -0.08)">
       <use xlink:href="#LiberationSans-30"/>
       <use x="55.615234" xlink:href="#LiberationSans-2e"/>
       <use x="83.398438" xlink:href="#LiberationSans-32"/>
       <use x="139.013672" xlink:href="#LiberationSans-35"/>
      </g>
     </g>
    </g>
    <g id="ytick_7">
     <g id="line2d_29">
      <path clip-path="url(#p68734f1e1a)" d="M 144 118.8 
L 1036.8 118.8 
" style="fill:none;stroke:#ffffff;stroke-linecap:round;stroke-width:0.8;"/>
     </g>
     <g id="line2d_30"/>
     <g id="text_15">
      <!-- 0.50 -->
      <g style="fill:#262626;" transform="translate(122.83125 121.69875)scale(0.08 -0.08)">
       <use xlink:href="#LiberationSans-30"/>
       <use x="55.615234" xlink:href="#LiberationSans-2e"/>
       <use x="83.398438" xlink:href="#LiberationSans-35"/>
       <use x="139.013672" xlink:href="#LiberationSans-30"/>
      </g>
     </g>
    </g>
    <g id="ytick_8">
     <g id="line2d_31">
      <path clip-path="url(#p68734f1e1a)" d="M 144 87.3 
L 1036.8 87.3 
" style="fill:none;stroke:#ffffff;stroke-linecap:round;stroke-width:0.8;"/>
     </g>
     <g id="line2d_32"/>
     <g id="text_16">
      <!-- 0.75 -->
      <g style="fill:#262626;" transform="translate(122.83125 90.19875)scale(0.08 -0.08)">
       <use xlink:href="#LiberationSans-30"/>
       <use x="55.615234" xlink:href="#LiberationSans-2e"/>
       <use x="83.398438" xlink:href="#LiberationSans-37"/>
       <use x="139.013672" xlink:href="#LiberationSans-35"/>
      </g>
     </g>
    </g>
    <g id="ytick_9">
     <g id="line2d_33">
      <path clip-path="url(#p68734f1e1a)" d="M 144 55.8 
L 1036.8 55.8 
" style="fill:none;stroke:#ffffff;stroke-linecap:round;stroke-width:0.8;"/>
     </g>
     <g id="line2d_34"/>
     <g id="text_17">
      <!-- 1.00 -->
      <g style="fill:#262626;" transform="translate(122.83125 58.69875)scale(0.08 -0.08)">
       <use xlink:href="#LiberationSans-31"/>
       <use x="55.615234" xlink:href="#LiberationSans-2e"/>
       <use x="83.398438" xlink:href="#LiberationSans-30"/>
       <use x="139.013672" xlink:href="#LiberationSans-30"/>
      </g>
     </g>
    </g>
   </g>
   <g id="line2d_35">
    <path clip-path="url(#p68734f1e1a)" d="M 184.581818 185.827574 
L 187.457922 185.827745 
L 188.033142 185.292281 
L 188.608363 183.128283 
L 190.334025 172.63892 
L 190.909246 173.764804 
L 192.059687 180.239657 
L 192.634908 181.065796 
L 193.210128 179.633776 
L 193.785349 176.545235 
L 194.36057 172.841399 
L 194.93579 170.107332 
L 195.511011 170.053624 
L 196.086232 173.363483 
L 197.236673 186.371089 
L 197.811894 193.002245 
L 198.387114 197.793939 
L 198.962335 199.903005 
L 199.537556 199.235855 
L 200.112776 196.406872 
L 201.838438 185.206364 
L 202.413659 183.505046 
L 202.98888 183.44645 
L 203.5641 184.73618 
L 205.289762 190.695306 
L 205.864983 191.553293 
L 206.440204 191.472355 
L 207.015424 190.621 
L 208.741086 186.992508 
L 209.316307 186.484397 
L 209.891528 186.538535 
L 210.466748 187.054492 
L 212.19241 189.19184 
L 212.767631 189.457265 
L 213.342852 189.378637 
L 213.918072 189.019504 
L 215.643734 187.572418 
L 216.218955 187.366501 
L 216.794176 187.377578 
L 217.944617 187.847954 
L 219.095058 188.315497 
L 219.670279 188.390071 
L 220.82072 188.179267 
L 222.546382 187.638828 
L 223.696824 187.543214 
L 227.723368 187.743035 
L 230.024251 187.466398 
L 238.07734 187.334518 
L 241.528664 187.214158 
L 243.829547 187.279145 
L 248.431312 187.066689 
L 253.608298 186.975222 
L 261.661388 186.816235 
L 265.687932 186.772489 
L 273.165801 186.658168 
L 276.041905 186.635207 
L 285.820656 186.529262 
L 288.696759 186.441715 
L 292.148083 186.363252 
L 295.599407 186.369346 
L 298.475511 186.270761 
L 305.378159 186.254694 
L 309.404703 186.268312 
L 311.130365 186.337058 
L 318.608234 186.290139 
L 320.333896 186.278805 
L 323.78522 186.101262 
L 330.112647 186.062762 
L 332.41353 185.959411 
L 336.440075 185.996748 
L 342.192281 185.930744 
L 345.643605 185.959863 
L 349.094929 185.935546 
L 353.696695 186.087063 
L 356.572798 186.022892 
L 358.873681 185.992393 
L 362.325005 186.07346 
L 368.077212 185.92095 
L 369.802874 185.959883 
L 374.97986 185.690319 
L 380.732066 185.600745 
L 383.032949 185.582438 
L 387.059494 185.761322 
L 391.661259 185.768492 
L 393.962142 185.946435 
L 404.891334 185.995531 
L 407.192217 185.787968 
L 411.218762 185.998621 
L 415.245306 185.49254 
L 421.572734 185.55815 
L 424.448837 185.252615 
L 425.599278 185.407335 
L 429.050602 186.255607 
L 431.351485 186.284471 
L 431.926706 186.427537 
L 432.501926 186.707102 
L 433.077147 187.154438 
L 433.652368 187.810184 
L 434.227588 188.735159 
L 434.802809 189.996294 
L 435.37803 191.691766 
L 435.95325 193.97964 
L 436.528471 197.081568 
L 437.103692 201.278605 
L 438.254133 212.817533 
L 438.829354 216.324407 
L 439.404574 211.368084 
L 439.979795 193.503705 
L 441.705457 110.35164 
L 442.280678 103.116212 
L 442.855898 114.507309 
L 443.431119 141.149775 
L 444.58156 208.678246 
L 445.156781 233.762907 
L 445.732002 246.945574 
L 446.307222 247.953407 
L 446.882443 239.495984 
L 448.032884 213.256194 
L 449.183326 194.078382 
L 449.758546 180.367644 
L 451.484208 116.078675 
L 452.059429 109.498083 
L 452.63465 119.32117 
L 453.20987 143.449424 
L 454.360312 206.627802 
L 454.935533 230.60084 
L 455.510753 243.565719 
L 456.085974 245.294048 
L 456.661195 238.020218 
L 457.236415 224.82963 
L 457.811636 207.54742 
L 460.112519 125.428727 
L 460.687739 123.465023 
L 461.26296 135.294781 
L 462.413401 184.348264 
L 462.988622 208.522358 
L 463.563843 225.064872 
L 464.139063 231.771677 
L 464.714284 229.26297 
L 465.289505 219.715942 
L 465.864725 205.20843 
L 467.590387 149.871711 
L 468.165608 139.022664 
L 468.740829 138.477929 
L 469.316049 148.949542 
L 470.466491 189.927024 
L 471.041711 210.179791 
L 471.616932 224.555853 
L 472.192153 231.285753 
L 472.767373 230.107396 
L 473.342594 220.637843 
L 473.917815 202.20883 
L 475.643477 127.985504 
L 476.218697 120.828893 
L 476.793918 130.615324 
L 477.369139 154.980968 
L 479.094801 246.82755 
L 479.670021 262.195064 
L 480.245242 262.134642 
L 480.820463 242.382663 
L 481.395683 203.33415 
L 482.546125 109.520372 
L 483.121345 84.952517 
L 483.696566 88.496316 
L 484.271787 118.84102 
L 485.997449 266.044462 
L 486.572669 294.926558 
L 487.14789 297.898365 
L 487.723111 268.947387 
L 488.298331 211.981431 
L 489.448773 85.725109 
L 490.023993 57.871658 
L 490.599214 67.39465 
L 491.174435 109.437528 
L 492.900097 283.696183 
L 493.475317 307.8 
L 494.050538 297.003721 
L 494.625759 251.392072 
L 495.7762 118.19867 
L 496.351421 74.821145 
L 496.926641 66.443882 
L 497.501862 92.696965 
L 499.227524 252.71826 
L 499.802745 282.259087 
L 500.377965 281.969332 
L 500.953186 252.035227 
L 502.103627 151.129556 
L 502.678848 113.934108 
L 503.254069 101.541355 
L 503.829289 115.309574 
L 504.40451 148.818628 
L 505.554951 228.792755 
L 506.130172 251.021083 
L 506.705393 251.074791 
L 507.280613 230.35781 
L 508.431055 164.033746 
L 509.006275 141.035914 
L 509.581496 134.543673 
L 510.156717 145.205412 
L 510.731937 168.878758 
L 511.882379 221.677767 
L 512.457599 230.531153 
L 513.03282 220.409852 
L 514.758482 148.823194 
L 515.333703 143.514008 
L 515.908923 153.759779 
L 516.484144 175.978815 
L 517.059365 203.014855 
L 517.634585 224.620974 
L 518.209806 229.956476 
L 518.785027 214.234891 
L 519.935468 151.138552 
L 520.510689 132.089881 
L 521.085909 133.896221 
L 521.66113 156.11045 
L 522.811571 228.595377 
L 523.386792 251.701968 
L 523.962013 248.607572 
L 524.537233 218.385457 
L 525.687675 133.435673 
L 526.262895 114.258237 
L 526.838116 122.812066 
L 527.413337 156.087221 
L 528.563778 246.563843 
L 529.138999 266.403635 
L 529.714219 251.479079 
L 531.439881 118.240294 
L 532.015102 107.556265 
L 532.590323 126.2463 
L 534.315985 248.574676 
L 534.891205 254.809521 
L 535.466426 230.403999 
L 536.616867 148.708527 
L 537.192088 127.346243 
L 537.767309 130.75134 
L 538.342529 155.954294 
L 539.492971 224.153981 
L 540.068191 237.336379 
L 540.643412 227.63333 
L 542.369074 154.583796 
L 542.944295 150.077548 
L 543.519515 160.759965 
L 544.669957 202.244009 
L 545.245178 212.40398 
L 545.820398 207.488744 
L 546.97084 174.910211 
L 547.54606 164.409166 
L 548.121281 163.933983 
L 548.696502 172.750069 
L 549.846943 199.336921 
L 550.422164 203.943335 
L 550.997384 198.283972 
L 552.147826 173.933555 
L 552.723046 168.643785 
L 553.298267 172.826307 
L 553.873488 185.331436 
L 554.448708 200.964009 
L 555.023929 211.085176 
L 555.59915 208.400709 
L 556.17437 193.046823 
L 556.749591 172.974085 
L 557.324812 158.448366 
L 557.900032 156.198532 
L 558.475253 167.445422 
L 559.625694 210.126352 
L 560.200915 220.339628 
L 560.776136 210.897332 
L 561.926577 158.214601 
L 562.501798 143.72347 
L 563.077018 149.319725 
L 563.652239 173.41993 
L 564.22746 206.419012 
L 564.80268 232.087079 
L 565.377901 235.030688 
L 565.953122 212.304889 
L 567.103563 146.502599 
L 567.678784 136.798744 
L 568.254004 151.304913 
L 569.404446 219.843634 
L 569.979666 237.750469 
L 570.554887 225.668149 
L 571.705328 153.439141 
L 572.280549 133.606062 
L 572.85577 139.388014 
L 573.43099 167.445825 
L 574.006211 204.70693 
L 574.581432 231.668155 
L 575.156652 232.986556 
L 575.731873 209.048026 
L 576.307094 175.381768 
L 576.882314 150.784615 
L 577.457535 146.38001 
L 578.032756 163.038533 
L 579.183197 218.015677 
L 579.758418 224.370157 
L 580.333638 208.216355 
L 581.48408 158.910525 
L 582.0593 151.788421 
L 582.634521 161.099938 
L 583.784962 201.799037 
L 584.360183 210.996961 
L 584.935404 204.546477 
L 586.085845 173.162306 
L 586.661066 167.307795 
L 587.236286 172.924137 
L 588.386728 200.769317 
L 588.961948 206.057153 
L 589.537169 199.335712 
L 590.68761 173.183037 
L 591.262831 168.292668 
L 591.838052 172.379321 
L 592.988493 194.788283 
L 593.563714 199.772359 
L 594.138934 194.112997 
L 595.289376 170.629375 
L 595.864596 168.586183 
L 596.439817 177.193129 
L 597.590258 207.359442 
L 598.165479 210.734999 
L 598.7407 199.597539 
L 599.891141 164.428903 
L 600.466362 160.555471 
L 601.041582 170.948268 
L 602.192024 209.59397 
L 602.767244 213.035857 
L 603.342465 196.849777 
L 603.917686 171.057564 
L 604.492906 152.502739 
L 605.068127 152.515629 
L 605.643348 172.020148 
L 606.218568 201.891683 
L 606.793789 225.020697 
L 607.36901 225.645457 
L 607.94423 202.425945 
L 608.519451 170.357881 
L 609.094672 148.946051 
L 609.669892 149.573765 
L 610.245113 171.864663 
L 610.820334 204.002145 
L 611.395554 225.521794 
L 611.970775 220.262423 
L 613.121216 158.050926 
L 613.696437 141.799376 
L 614.271658 150.794954 
L 615.422099 213.18154 
L 615.99732 229.767155 
L 616.57254 219.237403 
L 617.722982 161.844735 
L 618.298202 150.895254 
L 618.873423 161.703617 
L 620.023864 211.878849 
L 620.599085 217.899533 
L 621.174306 201.385484 
L 621.749526 174.958709 
L 622.324747 156.383422 
L 622.899968 155.536847 
L 623.475188 171.411232 
L 624.050409 194.470223 
L 624.62563 210.850338 
L 625.20085 210.944327 
L 625.776071 196.574657 
L 626.351292 178.85349 
L 626.926512 168.85996 
L 627.501733 171.224596 
L 628.652174 197.432148 
L 629.227395 202.636347 
L 629.802616 194.976839 
L 630.377836 180.361132 
L 630.953057 169.080432 
L 631.528278 167.622793 
L 632.103498 176.047226 
L 632.678719 189.373293 
L 633.25394 199.742417 
L 633.82916 200.791069 
L 634.404381 192.437491 
L 634.979602 181.097108 
L 635.554822 174.614198 
L 636.130043 177.099852 
L 637.280485 199.145934 
L 637.855705 202.740541 
L 638.430926 193.572196 
L 639.006147 177.087029 
L 639.581367 164.419504 
L 640.156588 163.533588 
L 640.731809 175.354592 
L 641.307029 193.912142 
L 641.88225 207.995212 
L 642.457471 207.482836 
L 643.032691 192.079204 
L 643.607912 172.674192 
L 644.183133 162.693996 
L 644.758353 169.085132 
L 645.908795 211.075643 
L 646.484015 217.566274 
L 647.059236 201.438521 
L 647.634457 172.944143 
L 648.209677 151.339152 
L 648.784898 149.961135 
L 649.360119 169.847922 
L 649.935339 200.041706 
L 650.51056 221.293619 
L 651.085781 218.303552 
L 652.236222 164.470259 
L 652.811443 151.536664 
L 653.386663 162.453652 
L 654.537105 219.013306 
L 655.112325 224.94564 
L 655.687546 203.369329 
L 656.262767 169.870882 
L 656.837987 147.130581 
L 657.413208 148.115857 
L 657.988429 171.22849 
L 658.563649 202.271803 
L 659.13887 220.884766 
L 659.714091 214.726321 
L 660.864532 165.444793 
L 661.439753 157.270009 
L 662.014973 169.532386 
L 662.590194 194.000438 
L 663.165415 213.623021 
L 663.740635 213.632957 
L 664.315856 194.365345 
L 664.891077 170.458986 
L 665.466297 157.448857 
L 666.041518 161.56505 
L 667.191959 198.146949 
L 667.76718 206.997717 
L 668.342401 200.715206 
L 668.917621 185.794201 
L 669.492842 173.840492 
L 670.068063 172.521527 
L 670.643283 182.009851 
L 671.218504 195.629729 
L 671.793725 203.041709 
L 672.368945 198.073221 
L 673.519387 171.746505 
L 674.094607 167.783783 
L 674.669828 173.962624 
L 675.820269 196.725697 
L 676.39549 198.637157 
L 676.970711 191.07995 
L 677.545931 180.410369 
L 678.121152 174.884901 
L 678.696373 178.80095 
L 679.846814 202.133773 
L 680.422035 203.853911 
L 680.997255 192.314472 
L 681.572476 174.847775 
L 682.147697 163.188648 
L 682.722917 164.59231 
L 683.298138 178.629782 
L 683.873359 197.404031 
L 684.448579 208.336259 
L 685.0238 202.847151 
L 686.174241 167.298933 
L 686.749462 163.486191 
L 687.324683 176.861146 
L 687.899903 200.288763 
L 688.475124 217.421396 
L 689.050345 213.352735 
L 690.200786 161.17137 
L 690.776007 148.326527 
L 691.351227 158.141424 
L 692.501669 212.726095 
L 693.076889 221.221248 
L 693.65211 204.2441 
L 694.227331 174.932432 
L 694.802551 154.679934 
L 695.377772 156.923055 
L 695.952993 180.715122 
L 696.528213 211.046372 
L 697.103434 225.574696 
L 697.678655 212.137319 
L 698.829096 152.814112 
L 699.404317 146.376519 
L 699.979537 163.698741 
L 700.554758 193.735321 
L 701.129979 216.74897 
L 701.705199 217.040471 
L 702.28042 196.005122 
L 702.855641 170.566403 
L 703.430861 158.397343 
L 704.006082 166.445644 
L 705.156523 210.52782 
L 705.731744 214.725247 
L 706.306965 198.684058 
L 706.882185 174.900342 
L 707.457406 159.43042 
L 708.032627 160.348561 
L 708.607847 175.474079 
L 709.183068 194.775877 
L 709.758289 205.726982 
L 710.333509 201.977348 
L 711.483951 175.515837 
L 712.059171 172.464838 
L 712.634392 180.407052 
L 713.209613 193.751018 
L 713.784833 202.517786 
L 714.360054 199.4963 
L 715.510495 173.476941 
L 716.085716 167.905432 
L 716.660937 172.522816 
L 717.811378 195.417877 
L 718.386599 199.014027 
L 718.961819 192.666878 
L 719.53704 181.720069 
L 720.112261 174.703689 
L 720.687481 176.956035 
L 721.837923 200.901305 
L 722.413143 205.533902 
L 722.988364 196.355474 
L 724.138805 164.362842 
L 724.714026 162.271312 
L 725.289247 173.915764 
L 725.864467 193.118564 
L 726.439688 207.717407 
L 727.014909 206.769592 
L 727.59013 190.246829 
L 728.16535 170.278393 
L 728.740571 161.226555 
L 729.315792 169.88592 
L 730.466233 214.857637 
L 731.041454 219.544882 
L 731.616674 200.746088 
L 732.191895 170.823262 
L 732.767116 149.736769 
L 733.342336 150.112861 
L 733.917557 171.786786 
L 734.492778 202.411981 
L 735.067998 221.929255 
L 735.643219 216.060834 
L 736.79366 161.065564 
L 737.368881 150.673977 
L 737.944102 164.476972 
L 739.094543 221.810426 
L 739.669764 225.603967 
L 740.244984 202.579953 
L 740.820205 169.2668 
L 741.395426 147.472702 
L 741.970646 148.929939 
L 742.545867 171.519722 
L 743.121088 201.470343 
L 743.696308 219.365363 
L 744.271529 213.448872 
L 745.42197 165.763685 
L 745.997191 157.420526 
L 746.572412 168.656675 
L 747.722853 212.579606 
L 748.298074 215.3347 
L 748.873294 199.040532 
L 749.448515 175.931444 
L 750.023736 160.740496 
L 750.598956 160.673495 
L 751.174177 174.006168 
L 751.749398 192.216576 
L 752.324618 203.830682 
L 752.899839 201.826831 
L 754.05028 176.082257 
L 754.625501 171.324762 
L 755.200722 177.40478 
L 756.351163 201.940289 
L 756.926384 203.524814 
L 757.501604 193.934605 
L 758.076825 179.929385 
L 758.652046 170.236769 
L 759.227266 169.648262 
L 759.802487 177.745343 
L 760.377708 189.845817 
L 760.952928 198.301025 
L 761.528149 196.89093 
L 762.67859 174.627853 
L 763.253811 170.174065 
L 763.829032 176.629744 
L 764.979473 206.231302 
L 765.554694 210.326146 
L 766.129914 199.275828 
L 767.280356 163.228929 
L 767.855576 159.786773 
L 768.430797 171.176661 
L 769.581238 209.871775 
L 770.156459 211.709668 
L 770.73168 194.472895 
L 771.3069 169.565954 
L 771.882121 153.76045 
L 772.457342 157.200994 
L 773.032562 179.260625 
L 773.607783 208.859511 
L 774.183004 227.685158 
L 774.758224 221.832312 
L 775.908666 162.206326 
L 776.483886 144.921968 
L 777.059107 150.944666 
L 777.634328 177.056751 
L 778.209548 209.203243 
L 778.784769 226.836972 
L 779.35999 216.930369 
L 780.510431 154.862944 
L 781.085652 142.476098 
L 781.660872 155.049446 
L 782.811314 218.529127 
L 783.386534 232.446789 
L 783.961755 219.066745 
L 785.112196 159.221898 
L 785.687417 147.58898 
L 786.262638 157.456914 
L 787.413079 209.178537 
L 787.9883 219.675259 
L 788.56352 207.628251 
L 789.713962 160.435836 
L 790.289182 153.890155 
L 790.864403 164.555923 
L 792.014844 206.999329 
L 792.590065 215.103486 
L 793.165286 206.879559 
L 794.315727 172.958523 
L 794.890948 166.33514 
L 795.466168 171.246616 
L 796.61661 198.23824 
L 797.19183 203.305819 
L 797.767051 196.156498 
L 798.917492 170.154461 
L 799.492713 166.802535 
L 800.067934 172.998523 
L 801.218375 198.12552 
L 801.793596 203.681776 
L 802.368816 198.85724 
L 803.519258 175.062863 
L 804.094478 170.360163 
L 804.669699 175.433288 
L 805.82014 203.246069 
L 806.395361 209.695344 
L 806.970582 201.765738 
L 808.121023 164.211922 
L 808.696244 155.673937 
L 809.271464 161.596738 
L 809.846685 179.885855 
L 810.421906 202.798143 
L 810.997126 218.066834 
L 811.572347 215.21869 
L 812.147568 194.380477 
L 812.722788 167.503561 
L 813.298009 149.986109 
L 813.87323 151.210387 
L 814.44845 171.581084 
L 815.598892 229.442758 
L 816.174112 234.328186 
L 816.749333 212.836734 
L 817.899774 145.826144 
L 818.474995 134.739573 
L 819.050216 147.874976 
L 820.775878 237.613379 
L 821.351099 230.069129 
L 823.076761 135.010262 
L 823.651981 135.710482 
L 824.227202 160.304788 
L 825.377643 231.171892 
L 825.952864 241.625378 
L 826.528085 224.311481 
L 827.678526 157.157625 
L 828.253747 140.353149 
L 828.828967 145.205949 
L 829.404188 168.781546 
L 829.979409 200.52763 
L 830.554629 224.383718 
L 831.12985 227.184598 
L 831.705071 208.413733 
L 832.855512 156.342738 
L 833.430733 147.497005 
L 834.005953 155.195666 
L 835.731615 214.346201 
L 836.306836 215.465882 
L 836.882057 202.891863 
L 838.032498 169.147836 
L 838.607719 163.45692 
L 839.182939 168.944416 
L 840.908601 208.739339 
L 841.483822 206.702457 
L 842.059043 194.624339 
L 842.634263 179.239477 
L 843.209484 167.775995 
L 843.784705 164.608691 
L 844.359925 170.601044 
L 846.085587 207.556148 
L 846.660808 204.841201 
L 847.236029 190.490046 
L 847.811249 171.765034 
L 848.38647 158.349946 
L 848.961691 156.736419 
L 849.536911 168.067094 
L 850.687353 211.25194 
L 851.262573 225.413169 
L 851.837794 222.691643 
L 852.413015 202.505165 
L 853.563456 149.102342 
L 854.138677 139.812711 
L 854.713897 149.734621 
L 855.289118 176.178918 
L 856.439559 239.529417 
L 857.01478 247.274805 
L 857.590001 227.046166 
L 858.740442 144.624827 
L 859.315663 118.696813 
L 859.890883 118.467614 
L 860.466104 143.43922 
L 861.616545 229.887193 
L 862.191766 259.455948 
L 862.766987 259.054614 
L 863.342207 226.818712 
L 864.492649 130.197474 
L 865.067869 106.208459 
L 865.64309 112.326758 
L 866.218311 145.323168 
L 867.368752 240.878298 
L 867.943973 268.393522 
L 868.519193 264.262425 
L 869.094414 230.314441 
L 870.244855 136.814722 
L 870.820076 112.651558 
L 871.395297 115.376441 
L 871.970517 142.441859 
L 873.120959 227.093832 
L 873.696179 254.76387 
L 874.2714 256.089253 
L 874.846621 231.220363 
L 875.997062 152.906222 
L 876.572283 128.550111 
L 877.147503 124.626999 
L 877.722724 140.217536 
L 879.448386 228.010093 
L 880.023607 238.090845 
L 880.598827 228.41908 
L 881.174048 203.459424 
L 881.749269 173.647894 
L 882.324489 150.239746 
L 882.89971 140.592688 
L 883.474931 146.439357 
L 884.050151 164.64293 
L 885.200593 211.897244 
L 885.775813 225.800271 
L 886.351034 225.421091 
L 886.926255 210.534534 
L 888.076696 162.798727 
L 888.651917 147.7877 
L 889.227137 146.544088 
L 889.802358 159.163624 
L 891.52802 230.197089 
L 892.103241 239.687722 
L 892.678461 230.444952 
L 893.253682 203.716015 
L 894.404123 137.823227 
L 894.979344 122.419862 
L 895.554565 127.233724 
L 896.129785 150.428262 
L 897.855447 254.987027 
L 898.430668 270.441011 
L 899.005889 260.259019 
L 899.581109 222.814769 
L 900.731551 116.76963 
L 901.306771 85.140227 
L 901.881992 83.776443 
L 902.457213 111.778397 
L 904.182875 262.384117 
L 904.758095 293.805266 
L 905.333316 299.494705 
L 905.908537 273.003024 
L 906.483757 217.339625 
L 907.634199 87.675789 
L 908.209419 55.8 
L 908.78464 61.259702 
L 909.359861 100.115 
L 911.085523 271.665691 
L 911.660744 300.875945 
L 912.235964 303.976114 
L 912.811185 279.026528 
L 913.386406 229.212484 
L 914.536847 107.754448 
L 915.112068 71.293728 
L 915.687288 66.749616 
L 916.262509 93.414774 
L 917.988171 242.523781 
L 918.563392 271.696708 
L 919.138612 279.643635 
L 919.713833 267.572727 
L 920.289054 239.216836 
L 922.014716 124.160275 
L 922.589936 106.017661 
L 923.165157 108.323352 
L 923.740378 129.372651 
L 925.46604 225.725885 
L 926.04126 241.877941 
L 926.616481 244.316559 
L 927.191702 235.3238 
L 927.766922 219.133343 
L 930.067805 142.745713 
L 930.643026 134.285873 
L 931.218246 136.248369 
L 931.793467 148.74478 
L 933.519129 210.582737 
L 934.09435 223.221205 
L 934.66957 227.778073 
L 935.244791 225.461909 
L 936.970453 206.342478 
L 937.545674 199.14388 
L 938.120894 185.975218 
L 939.846556 121.956093 
L 940.421777 114.972556 
L 940.996998 123.693551 
L 941.572218 146.086092 
L 942.72266 205.225617 
L 943.29788 227.558407 
L 943.873101 239.300755 
L 944.448322 240.140616 
L 945.023542 232.421815 
L 946.173984 208.636353 
L 946.749204 201.806824 
L 947.324425 201.835692 
L 947.899646 205.709393 
L 948.474866 204.793803 
L 949.050087 191.176571 
L 950.775749 112.708086 
L 951.35097 105.638884 
L 951.92619 116.568628 
L 952.501411 141.836568 
L 953.651852 203.983616 
L 954.227073 225.853845 
L 954.802294 236.099749 
L 955.377514 234.473063 
L 955.952735 223.257861 
L 957.678397 174.814543 
L 958.253618 166.952515 
L 958.828838 166.233363 
L 959.404059 171.621231 
L 961.129721 198.016828 
L 961.704942 202.000039 
L 962.280162 201.887387 
L 962.855383 198.415007 
L 964.005824 187.677834 
L 964.581045 183.739388 
L 965.156266 182.259258 
L 965.731486 183.525952 
L 966.306707 187.175139 
L 968.032369 203.599871 
L 968.60759 206.902654 
L 969.18281 205.753837 
L 969.758031 198.065541 
L 970.908472 168.115297 
L 971.483693 154.007239 
L 972.058914 146.024999 
L 972.634134 146.169877 
L 973.209355 153.983607 
L 974.935017 194.326568 
L 975.510238 202.907036 
L 976.085458 206.199077 
L 976.660679 204.446983 
L 977.2359 198.987119 
L 978.386341 184.968792 
L 978.961562 180.10967 
L 979.536782 178.117997 
L 980.112003 179.00684 
L 980.687224 182.047286 
L 981.837665 189.879882 
L 982.412886 192.466345 
L 982.988106 193.350207 
L 983.563327 192.588854 
L 984.138548 190.639046 
L 985.288989 185.928924 
L 985.86421 184.46238 
L 986.43943 184.033279 
L 987.014651 184.579371 
L 987.589872 185.823698 
L 988.740313 188.722417 
L 989.315534 189.617383 
L 989.890754 189.868307 
L 990.465975 189.502622 
L 991.616416 187.731153 
L 992.191637 186.877032 
L 992.766858 186.364355 
L 993.342078 186.267995 
L 993.917299 186.554547 
L 996.218182 188.600231 
L 996.218182 188.600231 
" style="fill:none;stroke:#4c72b0;stroke-linecap:round;stroke-width:1.4;"/>
   </g>
   <g id="patch_3">
    <path d="M 144 320.4 
L 144 43.2 
" style="fill:none;"/>
   </g>
   <g id="patch_4">
    <path d="M 1036.8 320.4 
L 1036.8 43.2 
" style="fill:none;"/>
   </g>
   <g id="patch_5">
    <path d="M 144 320.4 
L 1036.8 320.4 
" style="fill:none;"/>
   </g>
   <g id="patch_6">
    <path d="M 144 43.2 
L 1036.8 43.2 
" style="fill:none;"/>
   </g>
  </g>
 </g>
 <defs>
  <clipPath id="p68734f1e1a">
   <rect height="277.2" width="892.8" x="144" y="43.2"/>
  </clipPath>
 </defs>
</svg>
