<?xml version="1.0" encoding="utf-8" standalone="no"?>
<!DOCTYPE svg PUBLIC "-//W3C//DTD SVG 1.1//EN"
  "http://www.w3.org/Graphics/SVG/1.1/DTD/svg11.dtd">
<!-- Created with matplotlib (http://matplotlib.org/) -->
<svg height="360pt" version="1.1" viewBox="0 0 1152 360" width="1152pt" xmlns="http://www.w3.org/2000/svg" xmlns:xlink="http://www.w3.org/1999/xlink">
 <defs>
  <style type="text/css">
*{stroke-linecap:butt;stroke-linejoin:round;}
  </style>
 </defs>
 <g id="figure_1">
  <g id="patch_1">
   <path d="M 0 360 
L 1152 360 
L 1152 0 
L 0 0 
z
" style="fill:#ffffff;"/>
  </g>
  <g id="axes_1">
   <g id="patch_2">
    <path d="M 144 320.4 
L 1036.8 320.4 
L 1036.8 43.2 
L 144 43.2 
z
" style="fill:#eaeaf2;"/>
   </g>
   <g id="matplotlib.axis_1">
    <g id="xtick_1">
     <g id="line2d_1">
      <path clip-path="url(#p8134ac05b2)" d="M 184.581818 320.4 
L 184.581818 43.2 
" style="fill:none;stroke:#ffffff;stroke-linecap:round;stroke-width:0.8;"/>
     </g>
     <g id="line2d_2"/>
     <g id="text_1">
      <!-- 0.000 -->
      <defs>
       <path d="M 51.703125 34.421875 
Q 51.703125 24.515625 49.828125 17.75 
Q 47.953125 10.984375 44.703125 6.8125 
Q 41.453125 2.640625 37.0625 0.828125 
Q 32.671875 -0.984375 27.6875 -0.984375 
Q 22.65625 -0.984375 18.3125 0.828125 
Q 13.96875 2.640625 10.765625 6.78125 
Q 7.5625 10.9375 5.734375 17.703125 
Q 3.90625 24.46875 3.90625 34.421875 
Q 3.90625 44.828125 5.734375 51.640625 
Q 7.5625 58.453125 10.78125 62.5 
Q 14.015625 66.546875 18.40625 68.1875 
Q 22.796875 69.828125 27.984375 69.828125 
Q 32.90625 69.828125 37.21875 68.1875 
Q 41.546875 66.546875 44.765625 62.5 
Q 48 58.453125 49.84375 51.640625 
Q 51.703125 44.828125 51.703125 34.421875 
M 42.78125 34.421875 
Q 42.78125 42.625 41.796875 48.0625 
Q 40.828125 53.515625 38.921875 56.765625 
Q 37.015625 60.015625 34.25 61.359375 
Q 31.5 62.703125 27.984375 62.703125 
Q 24.265625 62.703125 21.4375 61.328125 
Q 18.609375 59.96875 16.671875 56.71875 
Q 14.75 53.46875 13.765625 48.015625 
Q 12.796875 42.578125 12.796875 34.421875 
Q 12.796875 26.515625 13.796875 21.09375 
Q 14.796875 15.671875 16.71875 12.375 
Q 18.65625 9.078125 21.4375 7.640625 
Q 24.21875 6.203125 27.78125 6.203125 
Q 31.25 6.203125 34.03125 7.640625 
Q 36.8125 9.078125 38.734375 12.375 
Q 40.671875 15.671875 41.71875 21.09375 
Q 42.78125 26.515625 42.78125 34.421875 
" id="LiberationSans-30"/>
       <path d="M 9.125 0 
L 9.125 10.6875 
L 18.65625 10.6875 
L 18.65625 0 
z
" id="LiberationSans-2e"/>
      </defs>
      <g style="fill:#262626;" transform="translate(174.573068 331.7975)scale(0.08 -0.08)">
       <use xlink:href="#LiberationSans-30"/>
       <use x="55.615234" xlink:href="#LiberationSans-2e"/>
       <use x="83.398438" xlink:href="#LiberationSans-30"/>
       <use x="139.013672" xlink:href="#LiberationSans-30"/>
       <use x="194.628906" xlink:href="#LiberationSans-30"/>
      </g>
     </g>
    </g>
    <g id="xtick_2">
     <g id="line2d_3">
      <path clip-path="url(#p8134ac05b2)" d="M 311.238448 320.4 
L 311.238448 43.2 
" style="fill:none;stroke:#ffffff;stroke-linecap:round;stroke-width:0.8;"/>
     </g>
     <g id="line2d_4"/>
     <g id="text_2">
      <!-- 0.005 -->
      <defs>
       <path d="M 51.421875 22.40625 
Q 51.421875 17.234375 49.859375 12.9375 
Q 48.296875 8.640625 45.21875 5.53125 
Q 42.140625 2.4375 37.578125 0.71875 
Q 33.015625 -0.984375 27 -0.984375 
Q 21.578125 -0.984375 17.546875 0.28125 
Q 13.53125 1.5625 10.734375 3.78125 
Q 7.953125 6 6.3125 8.984375 
Q 4.6875 11.96875 4 15.375 
L 12.890625 16.40625 
Q 13.421875 14.453125 14.390625 12.625 
Q 15.375 10.796875 17.0625 9.34375 
Q 18.75 7.90625 21.21875 7.046875 
Q 23.6875 6.203125 27.203125 6.203125 
Q 30.609375 6.203125 33.390625 7.25 
Q 36.1875 8.296875 38.15625 10.34375 
Q 40.140625 12.40625 41.203125 15.375 
Q 42.28125 18.359375 42.28125 22.21875 
Q 42.28125 25.390625 41.25 28.046875 
Q 40.234375 30.71875 38.328125 32.640625 
Q 36.421875 34.578125 33.65625 35.640625 
Q 30.90625 36.71875 27.390625 36.71875 
Q 25.203125 36.71875 23.34375 36.328125 
Q 21.484375 35.9375 19.890625 35.25 
Q 18.3125 34.578125 17.015625 33.671875 
Q 15.71875 32.765625 14.59375 31.78125 
L 6 31.78125 
L 8.296875 68.796875 
L 47.40625 68.796875 
L 47.40625 61.328125 
L 16.3125 61.328125 
L 14.984375 39.5 
Q 17.328125 41.3125 20.84375 42.59375 
Q 24.359375 43.890625 29.203125 43.890625 
Q 34.328125 43.890625 38.421875 42.328125 
Q 42.53125 40.765625 45.40625 37.90625 
Q 48.296875 35.0625 49.859375 31.109375 
Q 51.421875 27.15625 51.421875 22.40625 
" id="LiberationSans-35"/>
      </defs>
      <g style="fill:#262626;" transform="translate(301.229698 331.7975)scale(0.08 -0.08)">
       <use xlink:href="#LiberationSans-30"/>
       <use x="55.615234" xlink:href="#LiberationSans-2e"/>
       <use x="83.398438" xlink:href="#LiberationSans-30"/>
       <use x="139.013672" xlink:href="#LiberationSans-30"/>
       <use x="194.628906" xlink:href="#LiberationSans-35"/>
      </g>
     </g>
    </g>
    <g id="xtick_3">
     <g id="line2d_5">
      <path clip-path="url(#p8134ac05b2)" d="M 437.895078 320.4 
L 437.895078 43.2 
" style="fill:none;stroke:#ffffff;stroke-linecap:round;stroke-width:0.8;"/>
     </g>
     <g id="line2d_6"/>
     <g id="text_3">
      <!-- 0.010 -->
      <defs>
       <path d="M 7.625 0 
L 7.625 7.46875 
L 25.140625 7.46875 
L 25.140625 60.40625 
L 9.625 49.3125 
L 9.625 57.625 
L 25.875 68.796875 
L 33.984375 68.796875 
L 33.984375 7.46875 
L 50.734375 7.46875 
L 50.734375 0 
z
" id="LiberationSans-31"/>
      </defs>
      <g style="fill:#262626;" transform="translate(427.886328 331.7975)scale(0.08 -0.08)">
       <use xlink:href="#LiberationSans-30"/>
       <use x="55.615234" xlink:href="#LiberationSans-2e"/>
       <use x="83.398438" xlink:href="#LiberationSans-30"/>
       <use x="139.013672" xlink:href="#LiberationSans-31"/>
       <use x="194.628906" xlink:href="#LiberationSans-30"/>
      </g>
     </g>
    </g>
    <g id="xtick_4">
     <g id="line2d_7">
      <path clip-path="url(#p8134ac05b2)" d="M 564.551708 320.4 
L 564.551708 43.2 
" style="fill:none;stroke:#ffffff;stroke-linecap:round;stroke-width:0.8;"/>
     </g>
     <g id="line2d_8"/>
     <g id="text_4">
      <!-- 0.015 -->
      <g style="fill:#262626;" transform="translate(554.542958 331.7975)scale(0.08 -0.08)">
       <use xlink:href="#LiberationSans-30"/>
       <use x="55.615234" xlink:href="#LiberationSans-2e"/>
       <use x="83.398438" xlink:href="#LiberationSans-30"/>
       <use x="139.013672" xlink:href="#LiberationSans-31"/>
       <use x="194.628906" xlink:href="#LiberationSans-35"/>
      </g>
     </g>
    </g>
    <g id="xtick_5">
     <g id="line2d_9">
      <path clip-path="url(#p8134ac05b2)" d="M 691.208338 320.4 
L 691.208338 43.2 
" style="fill:none;stroke:#ffffff;stroke-linecap:round;stroke-width:0.8;"/>
     </g>
     <g id="line2d_10"/>
     <g id="text_5">
      <!-- 0.020 -->
      <defs>
       <path d="M 5.03125 0 
L 5.03125 6.203125 
Q 7.515625 11.921875 11.109375 16.28125 
Q 14.703125 20.65625 18.65625 24.1875 
Q 22.609375 27.734375 26.484375 30.765625 
Q 30.375 33.796875 33.5 36.8125 
Q 36.625 39.84375 38.546875 43.15625 
Q 40.484375 46.484375 40.484375 50.6875 
Q 40.484375 53.609375 39.59375 55.828125 
Q 38.71875 58.0625 37.0625 59.5625 
Q 35.40625 61.078125 33.078125 61.828125 
Q 30.765625 62.59375 27.9375 62.59375 
Q 25.296875 62.59375 22.96875 61.859375 
Q 20.65625 61.140625 18.84375 59.671875 
Q 17.046875 58.203125 15.890625 56.03125 
Q 14.75 53.859375 14.40625 50.984375 
L 5.421875 51.8125 
Q 5.859375 55.515625 7.46875 58.78125 
Q 9.078125 62.0625 11.90625 64.53125 
Q 14.75 67 18.71875 68.40625 
Q 22.703125 69.828125 27.9375 69.828125 
Q 33.0625 69.828125 37.0625 68.609375 
Q 41.0625 67.390625 43.8125 64.984375 
Q 46.578125 62.59375 48.046875 59.078125 
Q 49.515625 55.5625 49.515625 50.984375 
Q 49.515625 47.515625 48.265625 44.390625 
Q 47.015625 41.265625 44.9375 38.421875 
Q 42.875 35.59375 40.140625 32.953125 
Q 37.40625 30.328125 34.421875 27.8125 
Q 31.453125 25.296875 28.421875 22.828125 
Q 25.390625 20.359375 22.71875 17.859375 
Q 20.0625 15.375 17.96875 12.8125 
Q 15.875 10.25 14.703125 7.46875 
L 50.59375 7.46875 
L 50.59375 0 
z
" id="LiberationSans-32"/>
      </defs>
      <g style="fill:#262626;" transform="translate(681.199588 331.7975)scale(0.08 -0.08)">
       <use xlink:href="#LiberationSans-30"/>
       <use x="55.615234" xlink:href="#LiberationSans-2e"/>
       <use x="83.398438" xlink:href="#LiberationSans-30"/>
       <use x="139.013672" xlink:href="#LiberationSans-32"/>
       <use x="194.628906" xlink:href="#LiberationSans-30"/>
      </g>
     </g>
    </g>
    <g id="xtick_6">
     <g id="line2d_11">
      <path clip-path="url(#p8134ac05b2)" d="M 817.864968 320.4 
L 817.864968 43.2 
" style="fill:none;stroke:#ffffff;stroke-linecap:round;stroke-width:0.8;"/>
     </g>
     <g id="line2d_12"/>
     <g id="text_6">
      <!-- 0.025 -->
      <g style="fill:#262626;" transform="translate(807.856218 331.7975)scale(0.08 -0.08)">
       <use xlink:href="#LiberationSans-30"/>
       <use x="55.615234" xlink:href="#LiberationSans-2e"/>
       <use x="83.398438" xlink:href="#LiberationSans-30"/>
       <use x="139.013672" xlink:href="#LiberationSans-32"/>
       <use x="194.628906" xlink:href="#LiberationSans-35"/>
      </g>
     </g>
    </g>
    <g id="xtick_7">
     <g id="line2d_13">
      <path clip-path="url(#p8134ac05b2)" d="M 944.521598 320.4 
L 944.521598 43.2 
" style="fill:none;stroke:#ffffff;stroke-linecap:round;stroke-width:0.8;"/>
     </g>
     <g id="line2d_14"/>
     <g id="text_7">
      <!-- 0.030 -->
      <defs>
       <path d="M 51.21875 19 
Q 51.21875 14.265625 49.671875 10.546875 
Q 48.140625 6.84375 45.1875 4.265625 
Q 42.234375 1.703125 37.859375 0.359375 
Q 33.5 -0.984375 27.875 -0.984375 
Q 21.484375 -0.984375 17.109375 0.609375 
Q 12.75 2.203125 9.90625 4.8125 
Q 7.078125 7.421875 5.65625 10.765625 
Q 4.25 14.109375 3.8125 17.671875 
L 12.890625 18.5 
Q 13.28125 15.765625 14.328125 13.515625 
Q 15.375 11.28125 17.1875 9.671875 
Q 19 8.0625 21.625 7.171875 
Q 24.265625 6.296875 27.875 6.296875 
Q 34.515625 6.296875 38.296875 9.5625 
Q 42.09375 12.84375 42.09375 19.28125 
Q 42.09375 23.09375 40.40625 25.40625 
Q 38.71875 27.734375 36.203125 29.03125 
Q 33.6875 30.328125 30.734375 30.765625 
Q 27.78125 31.203125 25.296875 31.203125 
L 20.3125 31.203125 
L 20.3125 38.8125 
L 25.09375 38.8125 
Q 27.59375 38.8125 30.265625 39.328125 
Q 32.953125 39.84375 35.171875 41.1875 
Q 37.40625 42.53125 38.84375 44.828125 
Q 40.28125 47.125 40.28125 50.6875 
Q 40.28125 56.203125 37.03125 59.390625 
Q 33.796875 62.59375 27.390625 62.59375 
Q 21.578125 62.59375 17.984375 59.609375 
Q 14.40625 56.640625 13.8125 51.21875 
L 4.984375 51.90625 
Q 5.515625 56.453125 7.46875 59.8125 
Q 9.421875 63.1875 12.421875 65.40625 
Q 15.4375 67.625 19.28125 68.71875 
Q 23.140625 69.828125 27.484375 69.828125 
Q 33.25 69.828125 37.390625 68.375 
Q 41.546875 66.9375 44.1875 64.46875 
Q 46.828125 62.015625 48.0625 58.6875 
Q 49.3125 55.375 49.3125 51.609375 
Q 49.3125 48.578125 48.484375 45.9375 
Q 47.65625 43.3125 45.890625 41.203125 
Q 44.140625 39.109375 41.421875 37.59375 
Q 38.71875 36.078125 34.90625 35.296875 
L 34.90625 35.109375 
Q 39.0625 34.671875 42.140625 33.21875 
Q 45.21875 31.78125 47.21875 29.625 
Q 49.21875 27.484375 50.21875 24.75 
Q 51.21875 22.015625 51.21875 19 
" id="LiberationSans-33"/>
      </defs>
      <g style="fill:#262626;" transform="translate(934.512848 331.7975)scale(0.08 -0.08)">
       <use xlink:href="#LiberationSans-30"/>
       <use x="55.615234" xlink:href="#LiberationSans-2e"/>
       <use x="83.398438" xlink:href="#LiberationSans-30"/>
       <use x="139.013672" xlink:href="#LiberationSans-33"/>
       <use x="194.628906" xlink:href="#LiberationSans-30"/>
      </g>
     </g>
    </g>
   </g>
   <g id="matplotlib.axis_2">
    <g id="ytick_1">
     <g id="line2d_15">
      <path clip-path="url(#p8134ac05b2)" d="M 144 282.491645 
L 1036.8 282.491645 
" style="fill:none;stroke:#ffffff;stroke-linecap:round;stroke-width:0.8;"/>
     </g>
     <g id="line2d_16"/>
     <g id="text_8">
      <!-- −8 -->
      <defs>
       <path d="M 4.9375 29.6875 
L 4.9375 36.8125 
L 53.515625 36.8125 
L 53.515625 29.6875 
z
" id="LiberationSans-2212"/>
       <path d="M 51.265625 19.1875 
Q 51.265625 14.796875 49.875 11.109375 
Q 48.484375 7.421875 45.625 4.734375 
Q 42.78125 2.046875 38.328125 0.53125 
Q 33.890625 -0.984375 27.828125 -0.984375 
Q 21.78125 -0.984375 17.359375 0.53125 
Q 12.9375 2.046875 10.03125 4.703125 
Q 7.125 7.375 5.734375 11.0625 
Q 4.34375 14.75 4.34375 19.09375 
Q 4.34375 22.859375 5.484375 25.78125 
Q 6.640625 28.71875 8.5625 30.828125 
Q 10.5 32.953125 12.96875 34.25 
Q 15.4375 35.546875 18.0625 35.984375 
L 18.0625 36.1875 
Q 15.1875 36.859375 12.90625 38.375 
Q 10.640625 39.890625 9.09375 42.015625 
Q 7.5625 44.140625 6.75 46.71875 
Q 5.953125 49.3125 5.953125 52.203125 
Q 5.953125 55.8125 7.34375 59 
Q 8.734375 62.203125 11.46875 64.625 
Q 14.203125 67.046875 18.25 68.4375 
Q 22.3125 69.828125 27.640625 69.828125 
Q 33.25 69.828125 37.375 68.40625 
Q 41.5 67 44.203125 64.578125 
Q 46.921875 62.15625 48.234375 58.9375 
Q 49.5625 55.71875 49.5625 52.09375 
Q 49.5625 49.265625 48.75 46.671875 
Q 47.953125 44.09375 46.40625 41.96875 
Q 44.875 39.84375 42.59375 38.34375 
Q 40.328125 36.859375 37.359375 36.28125 
L 37.359375 36.078125 
Q 40.328125 35.59375 42.859375 34.296875 
Q 45.40625 33.015625 47.265625 30.890625 
Q 49.125 28.765625 50.1875 25.828125 
Q 51.265625 22.90625 51.265625 19.1875 
M 40.4375 51.609375 
Q 40.4375 54.203125 39.765625 56.34375 
Q 39.109375 58.5 37.59375 60.03125 
Q 36.078125 61.578125 33.640625 62.421875 
Q 31.203125 63.28125 27.640625 63.28125 
Q 24.171875 63.28125 21.78125 62.421875 
Q 19.390625 61.578125 17.84375 60.03125 
Q 16.3125 58.5 15.625 56.34375 
Q 14.9375 54.203125 14.9375 51.609375 
Q 14.9375 49.5625 15.46875 47.40625 
Q 16.015625 45.265625 17.421875 43.5 
Q 18.84375 41.75 21.328125 40.625 
Q 23.828125 39.5 27.734375 39.5 
Q 31.890625 39.5 34.40625 40.625 
Q 36.921875 41.75 38.25 43.5 
Q 39.59375 45.265625 40.015625 47.40625 
Q 40.4375 49.5625 40.4375 51.609375 
M 42.140625 20.015625 
Q 42.140625 22.515625 41.453125 24.828125 
Q 40.765625 27.15625 39.109375 28.9375 
Q 37.453125 30.71875 34.640625 31.8125 
Q 31.84375 32.90625 27.640625 32.90625 
Q 23.78125 32.90625 21.0625 31.8125 
Q 18.359375 30.71875 16.671875 28.90625 
Q 14.984375 27.09375 14.203125 24.71875 
Q 13.421875 22.359375 13.421875 19.828125 
Q 13.421875 16.65625 14.203125 14.03125 
Q 14.984375 11.421875 16.6875 9.546875 
Q 18.40625 7.671875 21.1875 6.640625 
Q 23.96875 5.609375 27.9375 5.609375 
Q 31.9375 5.609375 34.671875 6.640625 
Q 37.40625 7.671875 39.0625 9.546875 
Q 40.71875 11.421875 41.421875 14.078125 
Q 42.140625 16.75 42.140625 20.015625 
" id="LiberationSans-38"/>
      </defs>
      <g style="fill:#262626;" transform="translate(129.27875 285.390395)scale(0.08 -0.08)">
       <use xlink:href="#LiberationSans-2212"/>
       <use x="58.398438" xlink:href="#LiberationSans-38"/>
      </g>
     </g>
    </g>
    <g id="ytick_2">
     <g id="line2d_17">
      <path clip-path="url(#p8134ac05b2)" d="M 144 238.526787 
L 1036.8 238.526787 
" style="fill:none;stroke:#ffffff;stroke-linecap:round;stroke-width:0.8;"/>
     </g>
     <g id="line2d_18"/>
     <g id="text_9">
      <!-- −6 -->
      <defs>
       <path d="M 51.21875 22.515625 
Q 51.21875 17.328125 49.78125 13 
Q 48.34375 8.6875 45.53125 5.578125 
Q 42.71875 2.484375 38.5625 0.75 
Q 34.421875 -0.984375 29 -0.984375 
Q 23 -0.984375 18.5 1.3125 
Q 14.015625 3.609375 11.03125 7.921875 
Q 8.0625 12.25 6.5625 18.53125 
Q 5.078125 24.8125 5.078125 32.8125 
Q 5.078125 42 6.765625 48.921875 
Q 8.453125 55.859375 11.625 60.5 
Q 14.796875 65.140625 19.359375 67.484375 
Q 23.921875 69.828125 29.6875 69.828125 
Q 33.203125 69.828125 36.28125 69.09375 
Q 39.359375 68.359375 41.875 66.71875 
Q 44.390625 65.09375 46.28125 62.40625 
Q 48.1875 59.71875 49.3125 55.8125 
L 40.921875 54.296875 
Q 39.546875 58.734375 36.546875 60.71875 
Q 33.546875 62.703125 29.59375 62.703125 
Q 25.984375 62.703125 23.046875 60.984375 
Q 20.125 59.28125 18.0625 55.875 
Q 16.015625 52.484375 14.90625 47.359375 
Q 13.8125 42.234375 13.8125 35.40625 
Q 16.21875 39.84375 20.5625 42.15625 
Q 24.90625 44.484375 30.515625 44.484375 
Q 35.203125 44.484375 39.015625 42.96875 
Q 42.828125 41.453125 45.53125 38.59375 
Q 48.25 35.75 49.734375 31.671875 
Q 51.21875 27.59375 51.21875 22.515625 
M 42.28125 22.125 
Q 42.28125 25.6875 41.40625 28.5625 
Q 40.53125 31.453125 38.765625 33.46875 
Q 37.015625 35.5 34.421875 36.59375 
Q 31.84375 37.703125 28.421875 37.703125 
Q 26.03125 37.703125 23.578125 36.984375 
Q 21.140625 36.28125 19.15625 34.6875 
Q 17.1875 33.109375 15.9375 30.515625 
Q 14.703125 27.9375 14.703125 24.21875 
Q 14.703125 20.40625 15.671875 17.109375 
Q 16.65625 13.8125 18.484375 11.375 
Q 20.3125 8.9375 22.890625 7.515625 
Q 25.484375 6.109375 28.71875 6.109375 
Q 31.890625 6.109375 34.40625 7.203125 
Q 36.921875 8.296875 38.671875 10.375 
Q 40.4375 12.453125 41.359375 15.421875 
Q 42.28125 18.40625 42.28125 22.125 
" id="LiberationSans-36"/>
      </defs>
      <g style="fill:#262626;" transform="translate(129.27875 241.425537)scale(0.08 -0.08)">
       <use xlink:href="#LiberationSans-2212"/>
       <use x="58.398438" xlink:href="#LiberationSans-36"/>
      </g>
     </g>
    </g>
    <g id="ytick_3">
     <g id="line2d_19">
      <path clip-path="url(#p8134ac05b2)" d="M 144 194.561929 
L 1036.8 194.561929 
" style="fill:none;stroke:#ffffff;stroke-linecap:round;stroke-width:0.8;"/>
     </g>
     <g id="line2d_20"/>
     <g id="text_10">
      <!-- −4 -->
      <defs>
       <path d="M 43.015625 15.578125 
L 43.015625 0 
L 34.71875 0 
L 34.71875 15.578125 
L 2.296875 15.578125 
L 2.296875 22.40625 
L 33.796875 68.796875 
L 43.015625 68.796875 
L 43.015625 22.515625 
L 52.6875 22.515625 
L 52.6875 15.578125 
z
M 34.71875 58.890625 
Q 34.625 58.640625 34.234375 57.9375 
Q 33.84375 57.234375 33.34375 56.34375 
Q 32.859375 55.46875 32.34375 54.5625 
Q 31.84375 53.65625 31.453125 53.078125 
L 13.8125 27.09375 
Q 13.578125 26.703125 13.109375 26.0625 
Q 12.640625 25.4375 12.15625 24.78125 
Q 11.671875 24.125 11.171875 23.484375 
Q 10.6875 22.859375 10.40625 22.515625 
L 34.71875 22.515625 
z
" id="LiberationSans-34"/>
      </defs>
      <g style="fill:#262626;" transform="translate(129.27875 197.460679)scale(0.08 -0.08)">
       <use xlink:href="#LiberationSans-2212"/>
       <use x="58.398438" xlink:href="#LiberationSans-34"/>
      </g>
     </g>
    </g>
    <g id="ytick_4">
     <g id="line2d_21">
      <path clip-path="url(#p8134ac05b2)" d="M 144 150.59707 
L 1036.8 150.59707 
" style="fill:none;stroke:#ffffff;stroke-linecap:round;stroke-width:0.8;"/>
     </g>
     <g id="line2d_22"/>
     <g id="text_11">
      <!-- −2 -->
      <g style="fill:#262626;" transform="translate(129.27875 153.49582)scale(0.08 -0.08)">
       <use xlink:href="#LiberationSans-2212"/>
       <use x="58.398438" xlink:href="#LiberationSans-32"/>
      </g>
     </g>
    </g>
    <g id="ytick_5">
     <g id="line2d_23">
      <path clip-path="url(#p8134ac05b2)" d="M 144 106.632212 
L 1036.8 106.632212 
" style="fill:none;stroke:#ffffff;stroke-linecap:round;stroke-width:0.8;"/>
     </g>
     <g id="line2d_24"/>
     <g id="text_12">
      <!-- 0 -->
      <g style="fill:#262626;" transform="translate(133.95125 109.530962)scale(0.08 -0.08)">
       <use xlink:href="#LiberationSans-30"/>
      </g>
     </g>
    </g>
    <g id="ytick_6">
     <g id="line2d_25">
      <path clip-path="url(#p8134ac05b2)" d="M 144 62.667354 
L 1036.8 62.667354 
" style="fill:none;stroke:#ffffff;stroke-linecap:round;stroke-width:0.8;"/>
     </g>
     <g id="line2d_26"/>
     <g id="text_13">
      <!-- 2 -->
      <g style="fill:#262626;" transform="translate(133.95125 65.566104)scale(0.08 -0.08)">
       <use xlink:href="#LiberationSans-32"/>
      </g>
     </g>
    </g>
   </g>
   <g id="line2d_27">
    <path clip-path="url(#p8134ac05b2)" d="M 184.581818 307.8 
L 187.453851 223.868576 
L 188.028257 212.020381 
L 188.602664 203.342752 
L 189.17707 197.714311 
L 189.751477 194.55924 
L 190.325883 192.946238 
L 190.90029 191.752721 
L 191.474696 189.864293 
L 192.049102 186.373032 
L 192.623509 180.738411 
L 193.197915 172.881449 
L 194.346728 152.467578 
L 195.495541 132.09499 
L 196.069948 124.488054 
L 196.644354 119.538601 
L 197.218761 117.429924 
L 197.793167 117.869699 
L 198.367574 120.14076 
L 199.516387 126.008927 
L 200.090793 127.441555 
L 200.6652 126.767405 
L 201.239606 123.640485 
L 201.814013 118.190233 
L 204.111639 88.838916 
L 204.686045 84.622092 
L 205.260452 83.05219 
L 205.834858 84.127405 
L 206.409265 87.380098 
L 208.132484 100.76984 
L 208.706891 102.950107 
L 209.281297 102.735921 
L 209.855704 99.977218 
L 210.43011 94.999313 
L 212.153329 75.36802 
L 212.727736 70.764678 
L 213.302142 68.525857 
L 213.876549 68.935359 
L 214.450955 71.80077 
L 215.599768 82.037324 
L 216.174175 87.33677 
L 216.748581 91.326107 
L 217.322988 93.189304 
L 217.897394 92.503298 
L 218.471801 89.314917 
L 219.046207 84.132055 
L 220.769427 66.218507 
L 221.343833 62.905512 
L 221.91824 62.104745 
L 222.492646 63.90955 
L 223.067053 67.940566 
L 224.790272 84.44684 
L 225.364679 87.908585 
L 225.939085 89.003688 
L 226.513492 87.496156 
L 227.087898 83.626857 
L 229.385524 61.550153 
L 229.959931 59.372726 
L 230.534337 59.794035 
L 231.108743 62.713198 
L 231.68315 67.574599 
L 232.831963 79.300503 
L 233.406369 83.984394 
L 233.980776 86.647168 
L 234.555182 86.784823 
L 235.129589 84.355028 
L 235.703995 79.784795 
L 237.427215 62.43157 
L 238.001621 58.926432 
L 238.576028 57.849587 
L 239.150434 59.384868 
L 239.724841 63.23988 
L 242.022467 84.288995 
L 242.596873 86.005796 
L 243.17128 85.119847 
L 243.745686 81.78353 
L 244.894499 70.49754 
L 245.468906 64.590629 
L 246.043312 59.946018 
L 246.617719 57.403571 
L 247.192125 57.419739 
L 247.766532 59.984242 
L 248.340938 64.621934 
L 250.064157 81.52525 
L 250.638564 84.684708 
L 251.21297 85.376871 
L 251.787377 83.469491 
L 252.361783 79.304928 
L 254.085003 61.997211 
L 254.659409 58.138075 
L 255.233816 56.618492 
L 255.808222 57.710912 
L 256.382629 61.211193 
L 257.531442 72.539517 
L 258.105848 78.291087 
L 258.680255 82.676537 
L 259.254661 84.891281 
L 259.829068 84.527006 
L 260.403474 81.6462 
L 260.977881 76.770737 
L 262.7011 59.850029 
L 263.275507 56.886403 
L 263.849913 56.428876 
L 264.42432 58.557572 
L 264.998726 62.880683 
L 266.721946 80.006276 
L 267.296352 83.594546 
L 267.870759 84.79237 
L 268.445165 83.37828 
L 269.019572 79.607577 
L 271.317197 58.136776 
L 271.891604 56.155751 
L 272.46601 56.7712 
L 273.040417 59.868472 
L 273.614823 64.880018 
L 274.763636 76.79651 
L 275.338043 81.522351 
L 275.912449 84.201962 
L 276.486856 84.344323 
L 277.061262 81.921548 
L 277.635669 77.373972 
L 279.358888 60.253495 
L 279.933295 56.876138 
L 280.507701 55.936649 
L 281.082108 57.604988 
L 281.656514 61.575213 
L 283.95414 82.770167 
L 284.528547 84.458513 
L 285.102953 83.540148 
L 285.67736 80.181613 
L 286.826173 68.925562 
L 287.400579 63.08052 
L 287.974986 58.525658 
L 288.549392 56.091484 
L 289.123798 56.221509 
L 289.698205 58.891306 
L 290.272611 63.612965 
L 291.995831 80.577452 
L 292.570237 83.701319 
L 293.144644 84.346532 
L 293.71905 82.395003 
L 294.293457 78.202628 
L 296.016676 60.988019 
L 296.591083 57.217127 
L 297.165489 55.8 
L 297.739896 56.99531 
L 298.314302 60.584985 
L 299.463115 72.009968 
L 300.037522 77.760525 
L 300.611928 82.116435 
L 301.186335 84.283042 
L 301.760741 83.865311 
L 302.335148 80.939926 
L 302.909554 76.041295 
L 304.632774 59.237272 
L 305.20718 56.365146 
L 305.781587 56.008172 
L 306.355993 58.232302 
L 306.9304 62.632463 
L 308.653619 79.806128 
L 309.228025 83.353259 
L 309.802432 84.49662 
L 310.376838 83.028694 
L 310.951245 79.218604 
L 313.248871 57.881643 
L 313.823277 55.995861 
L 314.397684 56.710007 
L 314.97209 59.895307 
L 316.120903 71.015275 
L 316.69531 76.923816 
L 317.269716 81.621046 
L 317.844123 84.25149 
L 318.418529 84.336931 
L 318.992936 81.863693 
L 319.567342 77.285136 
L 321.290562 60.256021 
L 321.864968 56.964633 
L 322.439375 56.122856 
L 323.013781 57.886592 
L 323.588188 61.93626 
L 325.311407 79.206083 
L 325.885814 83.153096 
L 326.46022 84.786994 
L 327.034627 83.812194 
L 327.609033 80.409275 
L 328.757846 69.143589 
L 329.332252 63.342514 
L 329.906659 58.860424 
L 330.481065 56.518265 
L 331.055472 56.746472 
L 331.629878 59.506413 
L 332.204285 64.297437 
L 333.927504 81.283587 
L 334.501911 84.360529 
L 335.076317 84.948499 
L 335.650724 82.943549 
L 336.22513 78.715017 
L 337.94835 61.572267 
L 338.522756 57.883126 
L 339.097163 56.561986 
L 339.671569 57.853677 
L 340.245976 61.526206 
L 341.394789 73.035061 
L 341.969195 78.778658 
L 342.543602 83.09958 
L 343.118008 85.213213 
L 343.692415 84.737847 
L 344.266821 81.764336 
L 344.841228 76.839522 
L 345.990041 64.939444 
L 346.564447 60.144599 
L 347.138854 57.361336 
L 347.71326 57.102018 
L 348.287666 59.418407 
L 348.862073 63.892219 
L 350.585292 81.103798 
L 351.159699 84.60696 
L 351.734105 85.693506 
L 352.308512 84.169899 
L 352.882918 80.31903 
L 355.180544 59.111995 
L 355.754951 57.320055 
L 356.329357 58.131123 
L 356.903764 61.402318 
L 358.052577 72.616826 
L 358.626983 78.523907 
L 359.20139 83.190284 
L 359.775796 85.769678 
L 360.350203 85.796752 
L 360.924609 83.27204 
L 361.499016 78.661852 
L 363.222235 61.722763 
L 363.796642 58.516535 
L 364.371048 57.771272 
L 364.945455 59.628791 
L 365.519861 63.755922 
L 367.24308 81.079653 
L 367.817487 84.985927 
L 368.391893 86.563792 
L 368.9663 85.531391 
L 369.540706 82.083314 
L 370.689519 70.807153 
L 371.263926 65.049643 
L 371.838332 60.639701 
L 372.412739 58.388578 
L 372.987145 58.713564 
L 373.561552 61.561826 
L 374.135958 66.420053 
L 375.859178 83.42089 
L 376.433584 86.448978 
L 377.007991 86.978166 
L 377.582397 84.918665 
L 378.156804 80.653192 
L 379.880023 63.58059 
L 380.45443 59.972273 
L 381.028836 58.745796 
L 381.603243 60.132103 
L 382.177649 63.885322 
L 384.475275 85.490684 
L 385.049682 87.549353 
L 385.624088 87.014763 
L 386.198494 83.991927 
L 386.772901 79.040028 
L 387.921714 67.180045 
L 388.49612 62.451713 
L 389.070527 59.755999 
L 389.644933 59.592595 
L 390.21934 61.999065 
L 390.793746 66.543985 
L 392.516966 83.785127 
L 393.091372 87.241863 
L 393.665779 88.269511 
L 394.240185 86.688545 
L 394.814592 82.795581 
L 397.112218 61.713961 
L 397.686624 60.014124 
L 398.261031 60.919934 
L 398.835437 64.274426 
L 399.98425 75.577468 
L 400.558657 81.480009 
L 401.133063 86.112637 
L 401.70747 88.638406 
L 402.281876 88.604934 
L 402.856283 86.026964 
L 403.430689 81.38368 
L 405.153909 64.530623 
L 405.728315 61.407792 
L 406.302721 60.756862 
L 406.877128 62.705545 
L 407.451534 66.907133 
L 409.174754 84.274846 
L 409.74916 88.137341 
L 410.323567 89.656491 
L 410.897973 88.564213 
L 411.47238 85.069074 
L 412.621193 73.779291 
L 413.195599 68.063764 
L 413.770006 63.724152 
L 414.344412 61.561881 
L 414.918819 61.981025 
L 415.493225 64.914561 
L 416.067632 69.836601 
L 417.790851 86.841455 
L 418.365258 89.817524 
L 418.939664 90.285155 
L 419.514071 88.168729 
L 420.088477 83.864282 
L 421.811697 66.856318 
L 422.386103 63.326615 
L 422.96051 62.192189 
L 423.534916 63.67006 
L 424.109323 67.500513 
L 426.406948 89.12281 
L 426.981355 91.12325 
L 427.555761 90.526576 
L 428.130168 87.45194 
L 428.704574 82.470779 
L 429.853387 70.6468 
L 430.427794 65.982718 
L 431.0022 63.371941 
L 431.576607 63.301414 
L 432.151013 65.794494 
L 432.72542 70.406686 
L 434.448639 87.665206 
L 435.023046 91.071792 
L 435.597452 92.037196 
L 436.171859 90.395933 
L 436.746265 86.458292 
L 439.043891 65.492496 
L 439.618298 63.881745 
L 440.192704 64.87884 
L 440.767111 68.312762 
L 441.915924 79.695808 
L 442.49033 85.589482 
L 443.064737 90.184222 
L 443.639143 92.652554 
L 444.21355 92.555121 
L 444.787956 89.920877 
L 445.362362 85.2418 
L 447.085582 68.467064 
L 447.659988 65.424624 
L 448.234395 64.864606 
L 448.808801 66.900593 
L 449.383208 71.1724 
L 451.106427 88.570516 
L 451.680834 92.384986 
L 452.25524 93.841541 
L 452.829647 92.685916 
L 453.404053 89.14062 
L 454.552866 77.831673 
L 455.127273 72.155349 
L 455.701679 67.88305 
L 456.276086 65.806244 
L 456.850492 66.315727 
L 457.424899 69.330296 
L 457.999305 74.31157 
L 459.722525 91.306259 
L 460.296931 94.22599 
L 460.871338 94.628135 
L 461.445744 92.451262 
L 462.020151 88.104657 
L 463.74337 71.152365 
L 464.317776 67.697913 
L 464.892183 66.651771 
L 465.466589 68.217003 
L 466.040996 72.120093 
L 468.338622 93.739774 
L 468.913028 95.677615 
L 469.487435 95.014895 
L 470.061841 91.884886 
L 471.210654 80.901207 
L 471.785061 75.076918 
L 472.359467 70.473716 
L 472.933874 67.944161 
L 473.50828 67.962372 
L 474.082687 70.537495 
L 474.657093 75.212036 
L 476.380313 92.472527 
L 476.954719 95.824184 
L 477.529126 96.722947 
L 478.103532 95.017399 
L 478.677939 91.031455 
L 480.401158 74.011829 
L 480.975565 70.167698 
L 481.549971 68.641965 
L 482.124378 69.725846 
L 482.698784 73.234289 
L 483.847597 84.686757 
L 484.422003 90.56622 
L 484.99641 95.117929 
L 485.570816 97.524012 
L 486.145223 97.358212 
L 486.719629 94.663688 
L 487.294036 89.94513 
L 489.017255 73.238028 
L 489.591662 70.27198 
L 490.166068 69.798463 
L 490.740475 71.916911 
L 491.314881 76.253718 
L 493.038101 93.665775 
L 493.612507 97.427032 
L 494.186914 98.816177 
L 494.76132 97.592801 
L 495.335727 93.993321 
L 496.48454 82.657808 
L 497.058946 77.016974 
L 497.633353 72.808035 
L 498.207759 70.812377 
L 498.782166 71.407451 
L 499.356572 74.497889 
L 499.930979 79.532905 
L 501.079792 91.624362 
L 501.654198 96.500556 
L 502.228605 99.35875 
L 502.803011 99.69061 
L 503.377417 97.448896 
L 503.951824 93.056085 
L 505.675043 76.147888 
L 506.24945 72.764454 
L 506.823856 71.801963 
L 507.398263 73.449488 
L 507.972669 77.419761 
L 510.270295 99.013942 
L 510.844702 100.884003 
L 511.419108 100.150468 
L 511.993515 96.960708 
L 513.142328 85.934748 
L 513.716734 80.137929 
L 514.291141 75.591434 
L 514.865547 73.138583 
L 515.439954 73.240592 
L 516.01436 75.892394 
L 516.588767 80.623572 
L 518.311986 97.868327 
L 518.886393 101.159525 
L 519.460799 101.986508 
L 520.035206 100.21195 
L 520.609612 96.173338 
L 522.332831 79.173874 
L 522.907238 75.394884 
L 523.481644 73.949371 
L 524.056051 75.114805 
L 524.630457 78.692138 
L 525.77927 90.202022 
L 526.353677 96.061237 
L 526.928083 100.564086 
L 527.50249 102.902431 
L 528.076896 102.663186 
L 528.651303 99.903704 
L 529.225709 95.141312 
L 530.948929 78.489154 
L 531.523335 75.594834 
L 532.097742 75.202741 
L 532.672148 77.398148 
L 533.246555 81.794087 
L 534.969774 99.201729 
L 535.544181 102.903975 
L 536.118587 104.220289 
L 536.692994 102.924159 
L 537.2674 99.26587 
L 539.565026 78.135418 
L 540.139433 76.215996 
L 540.713839 76.891325 
L 541.288246 80.051885 
L 541.862652 85.134575 
L 543.011465 97.226694 
L 543.585871 102.056653 
L 544.160278 104.847575 
L 544.734684 105.103819 
L 545.309091 102.792347 
L 545.883497 98.348754 
L 547.606717 81.47151 
L 548.181123 78.154337 
L 548.75553 77.270344 
L 549.329936 78.994584 
L 549.904343 83.026078 
L 552.201969 104.569949 
L 552.776375 106.366589 
L 553.350782 105.557018 
L 553.925188 102.302679 
L 555.074001 91.225525 
L 555.648408 85.451759 
L 556.222814 80.95735 
L 556.797221 78.576239 
L 557.371627 78.756662 
L 557.946034 81.479346 
L 558.52044 86.261022 
L 560.24366 103.471112 
L 560.818066 106.695933 
L 561.392472 107.445615 
L 561.966879 105.596945 
L 562.541285 101.500928 
L 564.264505 84.508192 
L 564.838911 80.789554 
L 565.413318 79.41909 
L 565.987724 80.660483 
L 566.562131 84.300719 
L 567.710944 95.855331 
L 568.28535 101.687934 
L 568.859757 106.135775 
L 569.434163 108.400587 
L 570.00857 108.082516 
L 570.582976 105.253104 
L 571.157383 100.442227 
L 572.880602 83.831437 
L 573.455009 81.003886 
L 574.029415 80.687852 
L 574.603822 82.954432 
L 575.178228 87.40336 
L 576.901448 104.787468 
L 577.475854 108.424668 
L 578.050261 109.662502 
L 578.624667 108.288392 
L 579.199074 104.566453 
L 581.496699 83.472513 
L 582.071106 81.624201 
L 582.645512 82.374238 
L 583.219919 85.59897 
L 584.368732 96.824553 
L 584.943138 102.803022 
L 585.517545 107.580526 
L 586.091951 110.298288 
L 586.666358 110.47344 
L 587.240764 108.08715 
L 587.815171 103.588062 
L 589.53839 86.728208 
L 590.112797 83.472403 
L 590.687203 82.661622 
L 591.26161 84.456869 
L 591.836016 88.543504 
L 593.559236 105.986515 
L 594.133642 110.011875 
L 594.708049 111.729382 
L 595.282455 110.838487 
L 595.856862 107.514679 
L 597.005675 96.377298 
L 597.580081 90.62211 
L 598.154488 86.175105 
L 598.728894 83.860711 
L 599.303301 84.114115 
L 599.877707 86.901835 
L 600.452113 91.727832 
L 602.175333 108.884277 
L 602.749739 112.036808 
L 603.324146 112.703679 
L 603.898552 110.77581 
L 604.472959 106.61767 
L 606.196178 89.618284 
L 606.770585 85.955229 
L 607.344991 84.654668 
L 607.919398 85.966454 
L 608.493804 89.663639 
L 609.642617 101.250394 
L 610.217024 107.050088 
L 610.79143 111.436853 
L 611.365837 113.622419 
L 611.940243 113.220234 
L 612.51465 110.316013 
L 613.089056 105.452098 
L 614.237869 93.638505 
L 614.812276 88.869395 
L 615.386682 86.103756 
L 615.961089 85.85852 
L 616.535495 88.190598 
L 617.109902 92.686489 
L 618.833121 110.028361 
L 619.407528 113.59464 
L 619.981934 114.748514 
L 620.55634 113.291372 
L 621.130747 109.501115 
L 623.428373 88.426074 
L 624.002779 86.643927 
L 624.577186 87.46331 
L 625.151592 90.746458 
L 626.300405 102.011752 
L 626.874812 107.961292 
L 627.449218 112.680356 
L 628.023625 115.319311 
L 628.598031 115.408141 
L 629.172438 112.942225 
L 629.746844 108.383184 
L 631.470064 91.527923 
L 632.04447 88.328851 
L 632.618877 87.586256 
L 633.193283 89.447066 
L 633.76769 93.583034 
L 635.490909 110.995602 
L 636.065316 114.951912 
L 636.639722 116.584898 
L 637.214129 115.607717 
L 637.788535 112.209882 
L 638.937348 101.003905 
L 639.511754 95.263152 
L 640.086161 90.859202 
L 640.660567 88.60684 
L 641.234974 88.928129 
L 641.80938 91.775386 
L 642.383787 96.639883 
L 644.107006 113.724829 
L 644.681413 116.79955 
L 645.255819 117.3785 
L 645.830226 115.366753 
L 646.404632 111.142178 
L 648.127852 94.123991 
L 648.702258 90.512162 
L 649.276665 89.276771 
L 649.851071 90.653801 
L 650.425478 94.40241 
L 652.723104 116.090629 
L 653.29751 118.191712 
L 653.871917 117.700602 
L 654.446323 114.717177 
L 655.02073 109.796157 
L 656.169543 97.962407 
L 656.743949 93.229713 
L 657.318356 90.521613 
L 657.892762 90.342404 
L 658.467169 92.7348 
L 659.041575 97.272134 
L 660.764794 114.55464 
L 661.339201 118.044666 
L 661.913607 119.109649 
L 662.488014 117.564977 
L 663.06242 113.702292 
L 665.360046 92.630772 
L 665.934453 90.910404 
L 666.508859 91.794339 
L 667.083266 95.130717 
L 668.232079 106.424622 
L 668.806485 112.339648 
L 669.380892 116.994895 
L 669.955298 119.550015 
L 670.529705 119.54792 
L 671.104111 116.9982 
L 671.678518 112.375376 
L 673.401737 95.513805 
L 673.976144 92.367461 
L 674.55055 91.688659 
L 675.124957 93.610231 
L 675.699363 97.790372 
L 677.422583 115.156273 
L 677.996989 119.038449 
L 678.571395 120.582215 
L 679.145802 119.514488 
L 679.720208 116.038768 
L 680.869021 104.757229 
L 681.443428 99.027467 
L 682.017834 94.662927 
L 682.592241 92.468611 
L 683.166647 92.853396 
L 683.741054 95.755404 
L 684.31546 100.6533 
L 686.03868 117.651113 
L 686.613086 120.643262 
L 687.187493 121.129947 
L 687.761899 119.030409 
L 688.336306 114.735858 
L 690.059525 97.68903 
L 690.633932 94.124837 
L 691.208338 92.950654 
L 691.782745 94.388556 
L 692.357151 98.183845 
L 694.654777 119.767143 
L 695.229184 121.779332 
L 695.80359 121.195321 
L 696.377997 118.129133 
L 696.952403 113.147775 
L 698.101216 101.28777 
L 698.675622 96.588269 
L 699.250029 93.934172 
L 699.824435 93.817058 
L 700.398842 96.265436 
L 700.973248 100.839545 
L 702.696468 118.048165 
L 703.270874 121.457496 
L 703.845281 122.429551 
L 704.419687 120.79375 
L 704.994094 116.855428 
L 707.29172 95.775648 
L 707.866126 94.113576 
L 708.440533 95.058169 
L 709.014939 98.443503 
L 710.163752 109.756763 
L 710.738159 115.632626 
L 711.312565 120.219626 
L 711.886972 122.686837 
L 712.461378 122.590172 
L 713.035785 119.95343 
L 713.610191 115.263958 
L 715.333411 98.388053 
L 715.907817 95.291391 
L 716.482224 94.672954 
L 717.05663 96.65145 
L 717.631036 100.871578 
L 719.354256 118.177561 
L 719.928662 121.981525 
L 720.503069 123.43239 
L 721.077475 122.270872 
L 721.651882 118.71443 
L 722.800695 107.352404 
L 723.375101 101.63121 
L 723.949508 97.303448 
L 724.523914 95.164214 
L 725.098321 95.609126 
L 725.672727 98.562125 
L 726.247134 103.489351 
L 727.970353 120.387552 
L 728.54476 123.293434 
L 729.119166 123.684582 
L 729.693573 121.494417 
L 730.267979 117.127427 
L 731.991199 100.045337 
L 732.565605 96.526264 
L 733.140012 95.410402 
L 733.714418 96.905883 
L 734.288825 100.744192 
L 736.58645 122.207057 
L 737.160857 124.127065 
L 737.735263 123.447303 
L 738.30967 120.295923 
L 739.458483 109.240443 
L 740.032889 103.362016 
L 740.607296 98.693612 
L 741.181702 96.091107 
L 741.756109 96.033282 
L 742.330515 98.534438 
L 742.904922 103.141788 
L 744.628141 120.265467 
L 745.202548 123.590828 
L 745.776954 124.467094 
L 746.351361 122.737743 
L 746.925767 118.721754 
L 748.648987 101.545155 
L 749.223393 97.626632 
L 749.7978 96.020544 
L 750.372206 97.02308 
L 750.946613 100.454275 
L 752.095426 111.780019 
L 752.669832 117.613275 
L 753.244239 122.128811 
L 753.818645 124.505257 
L 754.393052 124.311599 
L 754.967458 121.585843 
L 755.541865 116.828081 
L 757.265084 99.933481 
L 757.83949 96.884674 
L 758.413897 96.324389 
L 758.988303 98.357197 
L 759.56271 102.614351 
L 761.285929 119.850897 
L 761.860336 123.57383 
L 762.434742 124.929375 
L 763.009149 123.672091 
L 763.583555 120.033357 
L 764.732368 108.588449 
L 765.306775 102.874659 
L 765.881181 98.582305 
L 766.455588 96.496444 
L 767.029994 96.999377 
L 767.604401 100.000872 
L 768.178807 104.954632 
L 769.32762 116.916716 
L 769.902027 121.7446 
L 770.476433 124.561822 
L 771.05084 124.855466 
L 771.625246 122.573144 
L 772.199653 118.132557 
L 773.922872 101.01249 
L 774.497279 97.537316 
L 775.071685 96.478184 
L 775.646091 98.029248 
L 776.220498 101.908222 
L 778.518124 123.240432 
L 779.09253 125.06631 
L 779.666937 124.289289 
L 780.241343 121.051628 
L 781.390156 109.900707 
L 781.964563 104.023241 
L 782.538969 99.385167 
L 783.113376 96.833172 
L 783.687782 96.833162 
L 784.262189 99.385226 
L 784.836595 104.023627 
L 786.559815 121.055368 
L 787.134221 124.294853 
L 787.708628 125.073841 
L 788.283034 123.249892 
L 788.857441 119.155578 
L 790.58066 101.922262 
L 791.155067 98.043493 
L 791.729473 96.492439 
L 792.30388 97.551563 
L 792.878286 101.026891 
L 794.027099 112.360999 
L 794.601506 118.149589 
L 795.175912 122.591836 
L 795.750318 124.876058 
L 796.324725 124.584385 
L 796.899131 121.769023 
L 797.473538 116.942726 
L 799.196757 100.029246 
L 799.771164 97.027853 
L 800.34557 96.524896 
L 800.919977 98.61079 
L 801.494383 102.903406 
L 803.217603 120.06521 
L 803.792009 123.705714 
L 804.366416 124.964943 
L 804.940822 123.61134 
L 805.515229 119.890167 
L 807.812855 98.399774 
L 808.387261 96.366989 
L 808.961668 96.927244 
L 809.536074 99.976151 
L 810.110481 104.955065 
L 811.259294 116.873119 
L 811.8337 121.632467 
L 812.408107 124.360075 
L 812.982513 124.555691 
L 813.55692 122.181124 
L 814.131326 117.667223 
L 815.854545 100.510764 
L 816.428952 97.079696 
L 817.003358 96.07713 
L 817.577765 97.683209 
L 818.152171 101.601922 
L 820.449797 122.799034 
L 821.024204 124.53029 
L 821.59861 123.65596 
L 822.173017 120.332386 
L 823.32183 109.087581 
L 823.896236 103.211932 
L 824.470643 98.604866 
L 825.045049 96.103739 
L 825.619456 96.161508 
L 826.193862 98.764052 
L 826.768269 103.432756 
L 828.491488 120.369935 
L 829.065895 123.523103 
L 829.640301 124.204792 
L 830.214708 122.286666 
L 830.789114 118.114837 
L 832.512334 100.828155 
L 833.08674 96.989994 
L 833.661146 95.494472 
L 834.235553 96.610279 
L 834.809959 100.129463 
L 835.958772 111.47073 
L 836.533179 117.214062 
L 837.107585 121.582666 
L 837.681992 123.77468 
L 838.256398 123.385446 
L 838.830805 120.48136 
L 839.405211 115.58776 
L 841.128431 98.659601 
L 841.702837 95.706635 
L 842.277244 95.261635 
L 842.85165 97.400843 
L 843.426057 101.72881 
L 845.149276 118.814972 
L 845.723683 122.373123 
L 846.298089 123.536518 
L 846.872496 122.087521 
L 847.446902 118.285239 
L 849.744528 96.762096 
L 850.318935 94.783542 
L 850.893341 95.401874 
L 851.467748 98.498563 
L 852.042154 103.50271 
L 853.190967 115.376632 
L 853.765373 120.067618 
L 854.33978 122.706135 
L 854.914186 122.804674 
L 855.488593 120.339253 
L 856.062999 115.753793 
L 857.786219 98.566914 
L 858.360625 95.181611 
L 858.935032 94.236896 
L 859.509438 95.898872 
L 860.083845 99.857851 
L 862.381471 120.921272 
L 862.955877 122.558885 
L 863.530284 121.588667 
L 864.10469 118.181018 
L 865.253503 106.846808 
L 865.82791 100.975287 
L 866.402316 96.401351 
L 866.976723 93.952895 
L 867.551129 94.06985 
L 868.125536 96.723887 
L 868.699942 101.423591 
L 870.423162 118.267941 
L 870.997568 121.335814 
L 871.571975 121.921643 
L 872.146381 119.911222 
L 872.720787 115.664144 
L 874.444007 98.331783 
L 875.018413 94.536519 
L 875.59282 93.098456 
L 876.167226 94.272469 
L 876.741633 97.836663 
L 877.890446 109.186754 
L 878.464852 114.885679 
L 879.039259 119.181731 
L 879.613665 121.283 
L 880.188072 120.798105 
L 880.762478 117.807624 
L 881.336885 112.849388 
L 883.060104 95.915033 
L 883.634511 93.012924 
L 884.208917 92.627922 
L 884.783324 94.822087 
L 885.35773 99.186711 
L 887.08095 116.200593 
L 887.655356 119.677894 
L 888.229763 120.747367 
L 888.804169 119.20533 
L 889.378576 115.324692 
L 891.676202 93.781019 
L 892.250608 91.859246 
L 892.825014 92.537802 
L 893.399421 95.684038 
L 894.548234 106.703293 
L 895.12264 112.547378 
L 895.697047 117.171579 
L 896.271453 119.722934 
L 896.84586 119.726756 
L 897.420266 117.173273 
L 897.994673 112.519407 
L 899.717892 95.312235 
L 900.292299 91.975729 
L 900.866705 91.091518 
L 901.441112 92.81164 
L 902.015518 96.812778 
L 903.738738 113.885267 
L 904.313144 117.749416 
L 904.887551 119.295746 
L 905.461957 118.232439 
L 906.036364 114.743928 
L 907.185177 103.327521 
L 907.759583 97.463792 
L 908.33399 92.926458 
L 908.908396 90.533816 
L 909.482803 90.712702 
L 910.057209 93.420582 
L 910.631616 98.153324 
L 912.354835 114.910614 
L 912.929241 117.895563 
L 913.503648 118.388322 
L 914.078054 116.288833 
L 914.652461 111.970112 
L 916.37568 94.603739 
L 916.950087 90.854974 
L 917.524493 89.477605 
L 918.0989 90.712655 
L 918.673306 94.324316 
L 919.822119 105.687514 
L 920.396526 111.344192 
L 920.970932 115.570099 
L 921.545339 117.583403 
L 922.119745 117.006061 
L 922.694152 113.93282 
L 923.268558 108.913921 
L 924.417371 96.850234 
L 924.991778 91.985719 
L 925.566184 89.13817 
L 926.140591 88.816478 
L 926.714997 91.068509 
L 927.289404 95.472364 
L 929.012623 112.421148 
L 929.58703 115.820382 
L 930.161436 116.79912 
L 930.735843 115.167671 
L 931.310249 111.212698 
L 933.607875 89.665715 
L 934.182281 87.804504 
L 934.756688 88.54666 
L 935.331094 91.745436 
L 936.479907 102.792533 
L 937.054314 108.601908 
L 937.62872 113.162138 
L 938.203127 115.629495 
L 938.777533 115.542192 
L 939.35194 112.904668 
L 939.926346 108.186776 
L 941.649566 90.973058 
L 942.223972 87.689572 
L 942.798379 86.869706 
L 943.372785 88.651406 
L 943.947192 92.697783 
L 945.670411 109.727773 
L 946.244818 113.519295 
L 946.819224 114.97789 
L 947.393631 113.825481 
L 947.968037 110.2605 
L 949.11685 98.771447 
L 949.691257 92.92033 
L 950.265663 88.424218 
L 950.840069 86.091677 
L 951.414476 86.336377 
L 951.988882 89.101589 
L 952.563289 93.870542 
L 954.286508 110.549959 
L 954.860915 113.455494 
L 955.435321 113.859113 
L 956.009728 111.674918 
L 956.584134 107.289291 
L 958.307354 89.90391 
L 958.88176 86.20634 
L 959.456167 84.893993 
L 960.030573 86.193994 
L 960.60498 89.856666 
L 962.902606 111.016367 
L 963.477012 112.945571 
L 964.051419 112.280084 
L 964.625825 109.128801 
L 965.200232 104.054283 
L 966.349045 91.974001 
L 966.923451 87.147749 
L 967.497858 84.359504 
L 968.072264 84.105468 
L 968.646671 86.419306 
L 969.221077 90.865997 
L 970.944296 107.759964 
L 971.518703 111.084948 
L 972.093109 111.977171 
L 972.667516 110.260964 
L 973.241922 106.236702 
L 975.539548 84.707629 
L 976.113955 82.911744 
L 976.688361 83.721852 
L 977.262768 86.977131 
L 978.411581 98.059281 
L 978.985987 103.837523 
L 979.560394 108.337572 
L 980.1348 110.72507 
L 980.709207 110.551208 
L 981.283613 107.834633 
L 981.85802 103.05805 
L 983.581239 85.854361 
L 984.155646 82.629043 
L 984.730052 81.878281 
L 985.304459 83.725909 
L 985.878865 87.821515 
L 987.602085 104.820251 
L 988.176491 108.543219 
L 988.750898 109.918541 
L 989.325304 108.681925 
L 989.89971 105.045772 
L 991.048523 93.495402 
L 991.62293 87.662595 
L 992.197336 83.213192 
L 992.771743 80.945898 
L 993.346149 81.261151 
L 993.920556 84.088033 
L 994.494962 88.89722 
L 996.218182 105.510507 
L 996.218182 105.510507 
" style="fill:none;stroke:#4c72b0;stroke-linecap:round;stroke-width:1.4;"/>
   </g>
   <g id="line2d_28">
    <path clip-path="url(#p8134ac05b2)" d="M 184.581818 106.764107 
L 996.218182 106.764107 
L 996.218182 106.764107 
" style="fill:none;stroke:#55a868;stroke-linecap:round;stroke-width:1.4;"/>
   </g>
   <g id="patch_3">
    <path d="M 144 320.4 
L 144 43.2 
" style="fill:none;"/>
   </g>
   <g id="patch_4">
    <path d="M 1036.8 320.4 
L 1036.8 43.2 
" style="fill:none;"/>
   </g>
   <g id="patch_5">
    <path d="M 144 320.4 
L 1036.8 320.4 
" style="fill:none;"/>
   </g>
   <g id="patch_6">
    <path d="M 144 43.2 
L 1036.8 43.2 
" style="fill:none;"/>
   </g>
   <g id="legend_1">
    <g id="line2d_29">
     <path d="M 1002.75125 53.3975 
L 1018.75125 53.3975 
" style="fill:none;stroke:#4c72b0;stroke-linecap:round;stroke-width:1.4;"/>
    </g>
    <g id="line2d_30"/>
    <g id="text_14">
     <!-- a -->
     <defs>
      <path d="M 20.21875 -0.984375 
Q 12.25 -0.984375 8.25 3.21875 
Q 4.25 7.421875 4.25 14.75 
Q 4.25 19.96875 6.21875 23.3125 
Q 8.203125 26.65625 11.390625 28.5625 
Q 14.59375 30.46875 18.6875 31.203125 
Q 22.796875 31.9375 27.046875 32.03125 
L 38.921875 32.234375 
L 38.921875 35.109375 
Q 38.921875 38.375 38.234375 40.671875 
Q 37.546875 42.96875 36.125 44.375 
Q 34.71875 45.796875 32.59375 46.453125 
Q 30.46875 47.125 27.59375 47.125 
Q 25.046875 47.125 23 46.75 
Q 20.953125 46.390625 19.4375 45.4375 
Q 17.921875 44.484375 16.984375 42.84375 
Q 16.0625 41.21875 15.765625 38.71875 
L 6.59375 39.546875 
Q 7.078125 42.671875 8.4375 45.28125 
Q 9.8125 47.90625 12.328125 49.796875 
Q 14.84375 51.703125 18.625 52.75 
Q 22.40625 53.8125 27.78125 53.8125 
Q 37.75 53.8125 42.765625 49.234375 
Q 47.796875 44.671875 47.796875 36.03125 
L 47.796875 13.28125 
Q 47.796875 9.375 48.828125 7.390625 
Q 49.859375 5.421875 52.734375 5.421875 
Q 53.46875 5.421875 54.203125 5.515625 
Q 54.9375 5.609375 55.609375 5.765625 
L 55.609375 0.296875 
Q 53.953125 -0.09375 52.3125 -0.28125 
Q 50.6875 -0.484375 48.828125 -0.484375 
Q 46.34375 -0.484375 44.5625 0.171875 
Q 42.78125 0.828125 41.65625 2.171875 
Q 40.53125 3.515625 39.9375 5.484375 
Q 39.359375 7.46875 39.203125 10.109375 
L 38.921875 10.109375 
Q 37.5 7.5625 35.8125 5.515625 
Q 34.125 3.46875 31.875 2.03125 
Q 29.640625 0.59375 26.78125 -0.1875 
Q 23.921875 -0.984375 20.21875 -0.984375 
M 22.21875 5.609375 
Q 26.421875 5.609375 29.5625 7.140625 
Q 32.71875 8.6875 34.78125 11.078125 
Q 36.859375 13.484375 37.890625 16.3125 
Q 38.921875 19.140625 38.921875 21.734375 
L 38.921875 26.078125 
L 29.296875 25.875 
Q 26.078125 25.828125 23.171875 25.40625 
Q 20.265625 25 18.0625 23.78125 
Q 15.875 22.5625 14.578125 20.359375 
Q 13.28125 18.171875 13.28125 14.59375 
Q 13.28125 10.296875 15.59375 7.953125 
Q 17.921875 5.609375 22.21875 5.609375 
" id="LiberationSans-61"/>
     </defs>
     <g style="fill:#262626;" transform="translate(1025.15125 56.1975)scale(0.08 -0.08)">
      <use xlink:href="#LiberationSans-61"/>
     </g>
    </g>
    <g id="line2d_31">
     <path d="M 1002.75125 64.855 
L 1018.75125 64.855 
" style="fill:none;stroke:#55a868;stroke-linecap:round;stroke-width:1.4;"/>
    </g>
    <g id="line2d_32"/>
    <g id="text_15">
     <!-- b -->
     <defs>
      <path d="M 51.421875 26.65625 
Q 51.421875 -0.984375 31.984375 -0.984375 
Q 25.984375 -0.984375 22 1.1875 
Q 18.015625 3.375 15.53125 8.203125 
L 15.4375 8.203125 
Q 15.4375 6.9375 15.359375 5.5625 
Q 15.28125 4.203125 15.203125 3.03125 
Q 15.140625 1.859375 15.0625 1.03125 
Q 14.984375 0.203125 14.9375 0 
L 6.453125 0 
Q 6.5 0.4375 6.546875 1.484375 
Q 6.59375 2.546875 6.640625 4 
Q 6.6875 5.46875 6.703125 7.21875 
Q 6.734375 8.984375 6.734375 10.890625 
L 6.734375 72.46875 
L 15.53125 72.46875 
L 15.53125 51.8125 
Q 15.53125 50.34375 15.5 49 
Q 15.484375 47.65625 15.4375 46.625 
Q 15.375 45.40625 15.328125 44.34375 
L 15.53125 44.34375 
Q 17.96875 49.421875 22 51.609375 
Q 26.03125 53.8125 31.984375 53.8125 
Q 42 53.8125 46.703125 47.0625 
Q 51.421875 40.328125 51.421875 26.65625 
M 42.1875 26.375 
Q 42.1875 31.84375 41.5 35.75 
Q 40.828125 39.65625 39.3125 42.15625 
Q 37.796875 44.671875 35.453125 45.84375 
Q 33.109375 47.015625 29.734375 47.015625 
Q 26.265625 47.015625 23.609375 45.890625 
Q 20.953125 44.78125 19.171875 42.28125 
Q 17.390625 39.796875 16.453125 35.734375 
Q 15.53125 31.6875 15.53125 25.828125 
Q 15.53125 20.171875 16.453125 16.3125 
Q 17.390625 12.453125 19.171875 10.03125 
Q 20.953125 7.625 23.578125 6.5625 
Q 26.21875 5.515625 29.640625 5.515625 
Q 32.859375 5.515625 35.203125 6.640625 
Q 37.546875 7.765625 39.109375 10.25 
Q 40.671875 12.75 41.421875 16.71875 
Q 42.1875 20.703125 42.1875 26.375 
" id="LiberationSans-62"/>
     </defs>
     <g style="fill:#262626;" transform="translate(1025.15125 67.655)scale(0.08 -0.08)">
      <use xlink:href="#LiberationSans-62"/>
     </g>
    </g>
   </g>
  </g>
 </g>
 <defs>
  <clipPath id="p8134ac05b2">
   <rect height="277.2" width="892.8" x="144" y="43.2"/>
  </clipPath>
 </defs>
</svg>
