<?xml version="1.0" encoding="utf-8" standalone="no"?>
<!DOCTYPE svg PUBLIC "-//W3C//DTD SVG 1.1//EN"
  "http://www.w3.org/Graphics/SVG/1.1/DTD/svg11.dtd">
<!-- Created with matplotlib (http://matplotlib.org/) -->
<svg height="360pt" version="1.1" viewBox="0 0 1152 360" width="1152pt" xmlns="http://www.w3.org/2000/svg" xmlns:xlink="http://www.w3.org/1999/xlink">
 <defs>
  <style type="text/css">
*{stroke-linecap:butt;stroke-linejoin:round;}
  </style>
 </defs>
 <g id="figure_1">
  <g id="patch_1">
   <path d="M 0 360 
L 1152 360 
L 1152 0 
L 0 0 
z
" style="fill:#ffffff;"/>
  </g>
  <g id="axes_1">
   <g id="patch_2">
    <path d="M 144 320.4 
L 1036.8 320.4 
L 1036.8 43.2 
L 144 43.2 
z
" style="fill:#eaeaf2;"/>
   </g>
   <g id="matplotlib.axis_1">
    <g id="xtick_1">
     <g id="line2d_1">
      <path clip-path="url(#p7b44bc3338)" d="M 184.581818 320.4 
L 184.581818 43.2 
" style="fill:none;stroke:#ffffff;stroke-linecap:round;stroke-width:0.8;"/>
     </g>
     <g id="line2d_2"/>
     <g id="text_1">
      <!-- 0 -->
      <defs>
       <path d="M 51.703125 34.421875 
Q 51.703125 24.515625 49.828125 17.75 
Q 47.953125 10.984375 44.703125 6.8125 
Q 41.453125 2.640625 37.0625 0.828125 
Q 32.671875 -0.984375 27.6875 -0.984375 
Q 22.65625 -0.984375 18.3125 0.828125 
Q 13.96875 2.640625 10.765625 6.78125 
Q 7.5625 10.9375 5.734375 17.703125 
Q 3.90625 24.46875 3.90625 34.421875 
Q 3.90625 44.828125 5.734375 51.640625 
Q 7.5625 58.453125 10.78125 62.5 
Q 14.015625 66.546875 18.40625 68.1875 
Q 22.796875 69.828125 27.984375 69.828125 
Q 32.90625 69.828125 37.21875 68.1875 
Q 41.546875 66.546875 44.765625 62.5 
Q 48 58.453125 49.84375 51.640625 
Q 51.703125 44.828125 51.703125 34.421875 
M 42.78125 34.421875 
Q 42.78125 42.625 41.796875 48.0625 
Q 40.828125 53.515625 38.921875 56.765625 
Q 37.015625 60.015625 34.25 61.359375 
Q 31.5 62.703125 27.984375 62.703125 
Q 24.265625 62.703125 21.4375 61.328125 
Q 18.609375 59.96875 16.671875 56.71875 
Q 14.75 53.46875 13.765625 48.015625 
Q 12.796875 42.578125 12.796875 34.421875 
Q 12.796875 26.515625 13.796875 21.09375 
Q 14.796875 15.671875 16.71875 12.375 
Q 18.65625 9.078125 21.4375 7.640625 
Q 24.21875 6.203125 27.78125 6.203125 
Q 31.25 6.203125 34.03125 7.640625 
Q 36.8125 9.078125 38.734375 12.375 
Q 40.671875 15.671875 41.71875 21.09375 
Q 42.78125 26.515625 42.78125 34.421875 
" id="LiberationSans-30"/>
      </defs>
      <g style="fill:#262626;" transform="translate(182.357443 331.7975)scale(0.08 -0.08)">
       <use xlink:href="#LiberationSans-30"/>
      </g>
     </g>
    </g>
    <g id="xtick_2">
     <g id="line2d_3">
      <path clip-path="url(#p7b44bc3338)" d="M 299.625952 320.4 
L 299.625952 43.2 
" style="fill:none;stroke:#ffffff;stroke-linecap:round;stroke-width:0.8;"/>
     </g>
     <g id="line2d_4"/>
     <g id="text_2">
      <!-- 200 -->
      <defs>
       <path d="M 5.03125 0 
L 5.03125 6.203125 
Q 7.515625 11.921875 11.109375 16.28125 
Q 14.703125 20.65625 18.65625 24.1875 
Q 22.609375 27.734375 26.484375 30.765625 
Q 30.375 33.796875 33.5 36.8125 
Q 36.625 39.84375 38.546875 43.15625 
Q 40.484375 46.484375 40.484375 50.6875 
Q 40.484375 53.609375 39.59375 55.828125 
Q 38.71875 58.0625 37.0625 59.5625 
Q 35.40625 61.078125 33.078125 61.828125 
Q 30.765625 62.59375 27.9375 62.59375 
Q 25.296875 62.59375 22.96875 61.859375 
Q 20.65625 61.140625 18.84375 59.671875 
Q 17.046875 58.203125 15.890625 56.03125 
Q 14.75 53.859375 14.40625 50.984375 
L 5.421875 51.8125 
Q 5.859375 55.515625 7.46875 58.78125 
Q 9.078125 62.0625 11.90625 64.53125 
Q 14.75 67 18.71875 68.40625 
Q 22.703125 69.828125 27.9375 69.828125 
Q 33.0625 69.828125 37.0625 68.609375 
Q 41.0625 67.390625 43.8125 64.984375 
Q 46.578125 62.59375 48.046875 59.078125 
Q 49.515625 55.5625 49.515625 50.984375 
Q 49.515625 47.515625 48.265625 44.390625 
Q 47.015625 41.265625 44.9375 38.421875 
Q 42.875 35.59375 40.140625 32.953125 
Q 37.40625 30.328125 34.421875 27.8125 
Q 31.453125 25.296875 28.421875 22.828125 
Q 25.390625 20.359375 22.71875 17.859375 
Q 20.0625 15.375 17.96875 12.8125 
Q 15.875 10.25 14.703125 7.46875 
L 50.59375 7.46875 
L 50.59375 0 
z
" id="LiberationSans-32"/>
      </defs>
      <g style="fill:#262626;" transform="translate(292.952827 331.7975)scale(0.08 -0.08)">
       <use xlink:href="#LiberationSans-32"/>
       <use x="55.615234" xlink:href="#LiberationSans-30"/>
       <use x="111.230469" xlink:href="#LiberationSans-30"/>
      </g>
     </g>
    </g>
    <g id="xtick_3">
     <g id="line2d_5">
      <path clip-path="url(#p7b44bc3338)" d="M 414.670086 320.4 
L 414.670086 43.2 
" style="fill:none;stroke:#ffffff;stroke-linecap:round;stroke-width:0.8;"/>
     </g>
     <g id="line2d_6"/>
     <g id="text_3">
      <!-- 400 -->
      <defs>
       <path d="M 43.015625 15.578125 
L 43.015625 0 
L 34.71875 0 
L 34.71875 15.578125 
L 2.296875 15.578125 
L 2.296875 22.40625 
L 33.796875 68.796875 
L 43.015625 68.796875 
L 43.015625 22.515625 
L 52.6875 22.515625 
L 52.6875 15.578125 
z
M 34.71875 58.890625 
Q 34.625 58.640625 34.234375 57.9375 
Q 33.84375 57.234375 33.34375 56.34375 
Q 32.859375 55.46875 32.34375 54.5625 
Q 31.84375 53.65625 31.453125 53.078125 
L 13.8125 27.09375 
Q 13.578125 26.703125 13.109375 26.0625 
Q 12.640625 25.4375 12.15625 24.78125 
Q 11.671875 24.125 11.171875 23.484375 
Q 10.6875 22.859375 10.40625 22.515625 
L 34.71875 22.515625 
z
" id="LiberationSans-34"/>
      </defs>
      <g style="fill:#262626;" transform="translate(407.996961 331.7975)scale(0.08 -0.08)">
       <use xlink:href="#LiberationSans-34"/>
       <use x="55.615234" xlink:href="#LiberationSans-30"/>
       <use x="111.230469" xlink:href="#LiberationSans-30"/>
      </g>
     </g>
    </g>
    <g id="xtick_4">
     <g id="line2d_7">
      <path clip-path="url(#p7b44bc3338)" d="M 529.714219 320.4 
L 529.714219 43.2 
" style="fill:none;stroke:#ffffff;stroke-linecap:round;stroke-width:0.8;"/>
     </g>
     <g id="line2d_8"/>
     <g id="text_4">
      <!-- 600 -->
      <defs>
       <path d="M 51.21875 22.515625 
Q 51.21875 17.328125 49.78125 13 
Q 48.34375 8.6875 45.53125 5.578125 
Q 42.71875 2.484375 38.5625 0.75 
Q 34.421875 -0.984375 29 -0.984375 
Q 23 -0.984375 18.5 1.3125 
Q 14.015625 3.609375 11.03125 7.921875 
Q 8.0625 12.25 6.5625 18.53125 
Q 5.078125 24.8125 5.078125 32.8125 
Q 5.078125 42 6.765625 48.921875 
Q 8.453125 55.859375 11.625 60.5 
Q 14.796875 65.140625 19.359375 67.484375 
Q 23.921875 69.828125 29.6875 69.828125 
Q 33.203125 69.828125 36.28125 69.09375 
Q 39.359375 68.359375 41.875 66.71875 
Q 44.390625 65.09375 46.28125 62.40625 
Q 48.1875 59.71875 49.3125 55.8125 
L 40.921875 54.296875 
Q 39.546875 58.734375 36.546875 60.71875 
Q 33.546875 62.703125 29.59375 62.703125 
Q 25.984375 62.703125 23.046875 60.984375 
Q 20.125 59.28125 18.0625 55.875 
Q 16.015625 52.484375 14.90625 47.359375 
Q 13.8125 42.234375 13.8125 35.40625 
Q 16.21875 39.84375 20.5625 42.15625 
Q 24.90625 44.484375 30.515625 44.484375 
Q 35.203125 44.484375 39.015625 42.96875 
Q 42.828125 41.453125 45.53125 38.59375 
Q 48.25 35.75 49.734375 31.671875 
Q 51.21875 27.59375 51.21875 22.515625 
M 42.28125 22.125 
Q 42.28125 25.6875 41.40625 28.5625 
Q 40.53125 31.453125 38.765625 33.46875 
Q 37.015625 35.5 34.421875 36.59375 
Q 31.84375 37.703125 28.421875 37.703125 
Q 26.03125 37.703125 23.578125 36.984375 
Q 21.140625 36.28125 19.15625 34.6875 
Q 17.1875 33.109375 15.9375 30.515625 
Q 14.703125 27.9375 14.703125 24.21875 
Q 14.703125 20.40625 15.671875 17.109375 
Q 16.65625 13.8125 18.484375 11.375 
Q 20.3125 8.9375 22.890625 7.515625 
Q 25.484375 6.109375 28.71875 6.109375 
Q 31.890625 6.109375 34.40625 7.203125 
Q 36.921875 8.296875 38.671875 10.375 
Q 40.4375 12.453125 41.359375 15.421875 
Q 42.28125 18.40625 42.28125 22.125 
" id="LiberationSans-36"/>
      </defs>
      <g style="fill:#262626;" transform="translate(523.041094 331.7975)scale(0.08 -0.08)">
       <use xlink:href="#LiberationSans-36"/>
       <use x="55.615234" xlink:href="#LiberationSans-30"/>
       <use x="111.230469" xlink:href="#LiberationSans-30"/>
      </g>
     </g>
    </g>
    <g id="xtick_5">
     <g id="line2d_9">
      <path clip-path="url(#p7b44bc3338)" d="M 644.758353 320.4 
L 644.758353 43.2 
" style="fill:none;stroke:#ffffff;stroke-linecap:round;stroke-width:0.8;"/>
     </g>
     <g id="line2d_10"/>
     <g id="text_5">
      <!-- 800 -->
      <defs>
       <path d="M 51.265625 19.1875 
Q 51.265625 14.796875 49.875 11.109375 
Q 48.484375 7.421875 45.625 4.734375 
Q 42.78125 2.046875 38.328125 0.53125 
Q 33.890625 -0.984375 27.828125 -0.984375 
Q 21.78125 -0.984375 17.359375 0.53125 
Q 12.9375 2.046875 10.03125 4.703125 
Q 7.125 7.375 5.734375 11.0625 
Q 4.34375 14.75 4.34375 19.09375 
Q 4.34375 22.859375 5.484375 25.78125 
Q 6.640625 28.71875 8.5625 30.828125 
Q 10.5 32.953125 12.96875 34.25 
Q 15.4375 35.546875 18.0625 35.984375 
L 18.0625 36.1875 
Q 15.1875 36.859375 12.90625 38.375 
Q 10.640625 39.890625 9.09375 42.015625 
Q 7.5625 44.140625 6.75 46.71875 
Q 5.953125 49.3125 5.953125 52.203125 
Q 5.953125 55.8125 7.34375 59 
Q 8.734375 62.203125 11.46875 64.625 
Q 14.203125 67.046875 18.25 68.4375 
Q 22.3125 69.828125 27.640625 69.828125 
Q 33.25 69.828125 37.375 68.40625 
Q 41.5 67 44.203125 64.578125 
Q 46.921875 62.15625 48.234375 58.9375 
Q 49.5625 55.71875 49.5625 52.09375 
Q 49.5625 49.265625 48.75 46.671875 
Q 47.953125 44.09375 46.40625 41.96875 
Q 44.875 39.84375 42.59375 38.34375 
Q 40.328125 36.859375 37.359375 36.28125 
L 37.359375 36.078125 
Q 40.328125 35.59375 42.859375 34.296875 
Q 45.40625 33.015625 47.265625 30.890625 
Q 49.125 28.765625 50.1875 25.828125 
Q 51.265625 22.90625 51.265625 19.1875 
M 40.4375 51.609375 
Q 40.4375 54.203125 39.765625 56.34375 
Q 39.109375 58.5 37.59375 60.03125 
Q 36.078125 61.578125 33.640625 62.421875 
Q 31.203125 63.28125 27.640625 63.28125 
Q 24.171875 63.28125 21.78125 62.421875 
Q 19.390625 61.578125 17.84375 60.03125 
Q 16.3125 58.5 15.625 56.34375 
Q 14.9375 54.203125 14.9375 51.609375 
Q 14.9375 49.5625 15.46875 47.40625 
Q 16.015625 45.265625 17.421875 43.5 
Q 18.84375 41.75 21.328125 40.625 
Q 23.828125 39.5 27.734375 39.5 
Q 31.890625 39.5 34.40625 40.625 
Q 36.921875 41.75 38.25 43.5 
Q 39.59375 45.265625 40.015625 47.40625 
Q 40.4375 49.5625 40.4375 51.609375 
M 42.140625 20.015625 
Q 42.140625 22.515625 41.453125 24.828125 
Q 40.765625 27.15625 39.109375 28.9375 
Q 37.453125 30.71875 34.640625 31.8125 
Q 31.84375 32.90625 27.640625 32.90625 
Q 23.78125 32.90625 21.0625 31.8125 
Q 18.359375 30.71875 16.671875 28.90625 
Q 14.984375 27.09375 14.203125 24.71875 
Q 13.421875 22.359375 13.421875 19.828125 
Q 13.421875 16.65625 14.203125 14.03125 
Q 14.984375 11.421875 16.6875 9.546875 
Q 18.40625 7.671875 21.1875 6.640625 
Q 23.96875 5.609375 27.9375 5.609375 
Q 31.9375 5.609375 34.671875 6.640625 
Q 37.40625 7.671875 39.0625 9.546875 
Q 40.71875 11.421875 41.421875 14.078125 
Q 42.140625 16.75 42.140625 20.015625 
" id="LiberationSans-38"/>
      </defs>
      <g style="fill:#262626;" transform="translate(638.085228 331.7975)scale(0.08 -0.08)">
       <use xlink:href="#LiberationSans-38"/>
       <use x="55.615234" xlink:href="#LiberationSans-30"/>
       <use x="111.230469" xlink:href="#LiberationSans-30"/>
      </g>
     </g>
    </g>
    <g id="xtick_6">
     <g id="line2d_11">
      <path clip-path="url(#p7b44bc3338)" d="M 759.802487 320.4 
L 759.802487 43.2 
" style="fill:none;stroke:#ffffff;stroke-linecap:round;stroke-width:0.8;"/>
     </g>
     <g id="line2d_12"/>
     <g id="text_6">
      <!-- 1000 -->
      <defs>
       <path d="M 7.625 0 
L 7.625 7.46875 
L 25.140625 7.46875 
L 25.140625 60.40625 
L 9.625 49.3125 
L 9.625 57.625 
L 25.875 68.796875 
L 33.984375 68.796875 
L 33.984375 7.46875 
L 50.734375 7.46875 
L 50.734375 0 
z
" id="LiberationSans-31"/>
      </defs>
      <g style="fill:#262626;" transform="translate(750.904987 331.7975)scale(0.08 -0.08)">
       <use xlink:href="#LiberationSans-31"/>
       <use x="55.615234" xlink:href="#LiberationSans-30"/>
       <use x="111.230469" xlink:href="#LiberationSans-30"/>
       <use x="166.845703" xlink:href="#LiberationSans-30"/>
      </g>
     </g>
    </g>
    <g id="xtick_7">
     <g id="line2d_13">
      <path clip-path="url(#p7b44bc3338)" d="M 874.846621 320.4 
L 874.846621 43.2 
" style="fill:none;stroke:#ffffff;stroke-linecap:round;stroke-width:0.8;"/>
     </g>
     <g id="line2d_14"/>
     <g id="text_7">
      <!-- 1200 -->
      <g style="fill:#262626;" transform="translate(865.949121 331.7975)scale(0.08 -0.08)">
       <use xlink:href="#LiberationSans-31"/>
       <use x="55.615234" xlink:href="#LiberationSans-32"/>
       <use x="111.230469" xlink:href="#LiberationSans-30"/>
       <use x="166.845703" xlink:href="#LiberationSans-30"/>
      </g>
     </g>
    </g>
    <g id="xtick_8">
     <g id="line2d_15">
      <path clip-path="url(#p7b44bc3338)" d="M 989.890754 320.4 
L 989.890754 43.2 
" style="fill:none;stroke:#ffffff;stroke-linecap:round;stroke-width:0.8;"/>
     </g>
     <g id="line2d_16"/>
     <g id="text_8">
      <!-- 1400 -->
      <g style="fill:#262626;" transform="translate(980.993254 331.7975)scale(0.08 -0.08)">
       <use xlink:href="#LiberationSans-31"/>
       <use x="55.615234" xlink:href="#LiberationSans-34"/>
       <use x="111.230469" xlink:href="#LiberationSans-30"/>
       <use x="166.845703" xlink:href="#LiberationSans-30"/>
      </g>
     </g>
    </g>
   </g>
   <g id="matplotlib.axis_2">
    <g id="ytick_1">
     <g id="line2d_17">
      <path clip-path="url(#p7b44bc3338)" d="M 144 307.8 
L 1036.8 307.8 
" style="fill:none;stroke:#ffffff;stroke-linecap:round;stroke-width:0.8;"/>
     </g>
     <g id="line2d_18"/>
     <g id="text_9">
      <!-- −1.00 -->
      <defs>
       <path d="M 4.9375 29.6875 
L 4.9375 36.8125 
L 53.515625 36.8125 
L 53.515625 29.6875 
z
" id="LiberationSans-2212"/>
       <path d="M 9.125 0 
L 9.125 10.6875 
L 18.65625 10.6875 
L 18.65625 0 
z
" id="LiberationSans-2e"/>
      </defs>
      <g style="fill:#262626;" transform="translate(118.15875 310.69875)scale(0.08 -0.08)">
       <use xlink:href="#LiberationSans-2212"/>
       <use x="58.398438" xlink:href="#LiberationSans-31"/>
       <use x="114.013672" xlink:href="#LiberationSans-2e"/>
       <use x="141.796875" xlink:href="#LiberationSans-30"/>
       <use x="197.412109" xlink:href="#LiberationSans-30"/>
      </g>
     </g>
    </g>
    <g id="ytick_2">
     <g id="line2d_19">
      <path clip-path="url(#p7b44bc3338)" d="M 144 276.3 
L 1036.8 276.3 
" style="fill:none;stroke:#ffffff;stroke-linecap:round;stroke-width:0.8;"/>
     </g>
     <g id="line2d_20"/>
     <g id="text_10">
      <!-- −0.75 -->
      <defs>
       <path d="M 50.59375 61.671875 
Q 45.40625 53.765625 41.0625 46.453125 
Q 36.71875 39.15625 33.59375 31.75 
Q 30.46875 24.359375 28.734375 16.578125 
Q 27 8.796875 27 0 
L 17.828125 0 
Q 17.828125 8.25 19.78125 16.1875 
Q 21.734375 24.125 25.046875 31.765625 
Q 28.375 39.40625 32.765625 46.78125 
Q 37.15625 54.15625 42.09375 61.328125 
L 5.125 61.328125 
L 5.125 68.796875 
L 50.59375 68.796875 
z
" id="LiberationSans-37"/>
       <path d="M 51.421875 22.40625 
Q 51.421875 17.234375 49.859375 12.9375 
Q 48.296875 8.640625 45.21875 5.53125 
Q 42.140625 2.4375 37.578125 0.71875 
Q 33.015625 -0.984375 27 -0.984375 
Q 21.578125 -0.984375 17.546875 0.28125 
Q 13.53125 1.5625 10.734375 3.78125 
Q 7.953125 6 6.3125 8.984375 
Q 4.6875 11.96875 4 15.375 
L 12.890625 16.40625 
Q 13.421875 14.453125 14.390625 12.625 
Q 15.375 10.796875 17.0625 9.34375 
Q 18.75 7.90625 21.21875 7.046875 
Q 23.6875 6.203125 27.203125 6.203125 
Q 30.609375 6.203125 33.390625 7.25 
Q 36.1875 8.296875 38.15625 10.34375 
Q 40.140625 12.40625 41.203125 15.375 
Q 42.28125 18.359375 42.28125 22.21875 
Q 42.28125 25.390625 41.25 28.046875 
Q 40.234375 30.71875 38.328125 32.640625 
Q 36.421875 34.578125 33.65625 35.640625 
Q 30.90625 36.71875 27.390625 36.71875 
Q 25.203125 36.71875 23.34375 36.328125 
Q 21.484375 35.9375 19.890625 35.25 
Q 18.3125 34.578125 17.015625 33.671875 
Q 15.71875 32.765625 14.59375 31.78125 
L 6 31.78125 
L 8.296875 68.796875 
L 47.40625 68.796875 
L 47.40625 61.328125 
L 16.3125 61.328125 
L 14.984375 39.5 
Q 17.328125 41.3125 20.84375 42.59375 
Q 24.359375 43.890625 29.203125 43.890625 
Q 34.328125 43.890625 38.421875 42.328125 
Q 42.53125 40.765625 45.40625 37.90625 
Q 48.296875 35.0625 49.859375 31.109375 
Q 51.421875 27.15625 51.421875 22.40625 
" id="LiberationSans-35"/>
      </defs>
      <g style="fill:#262626;" transform="translate(118.15875 279.19875)scale(0.08 -0.08)">
       <use xlink:href="#LiberationSans-2212"/>
       <use x="58.398438" xlink:href="#LiberationSans-30"/>
       <use x="114.013672" xlink:href="#LiberationSans-2e"/>
       <use x="141.796875" xlink:href="#LiberationSans-37"/>
       <use x="197.412109" xlink:href="#LiberationSans-35"/>
      </g>
     </g>
    </g>
    <g id="ytick_3">
     <g id="line2d_21">
      <path clip-path="url(#p7b44bc3338)" d="M 144 244.8 
L 1036.8 244.8 
" style="fill:none;stroke:#ffffff;stroke-linecap:round;stroke-width:0.8;"/>
     </g>
     <g id="line2d_22"/>
     <g id="text_11">
      <!-- −0.50 -->
      <g style="fill:#262626;" transform="translate(118.15875 247.69875)scale(0.08 -0.08)">
       <use xlink:href="#LiberationSans-2212"/>
       <use x="58.398438" xlink:href="#LiberationSans-30"/>
       <use x="114.013672" xlink:href="#LiberationSans-2e"/>
       <use x="141.796875" xlink:href="#LiberationSans-35"/>
       <use x="197.412109" xlink:href="#LiberationSans-30"/>
      </g>
     </g>
    </g>
    <g id="ytick_4">
     <g id="line2d_23">
      <path clip-path="url(#p7b44bc3338)" d="M 144 213.3 
L 1036.8 213.3 
" style="fill:none;stroke:#ffffff;stroke-linecap:round;stroke-width:0.8;"/>
     </g>
     <g id="line2d_24"/>
     <g id="text_12">
      <!-- −0.25 -->
      <g style="fill:#262626;" transform="translate(118.15875 216.19875)scale(0.08 -0.08)">
       <use xlink:href="#LiberationSans-2212"/>
       <use x="58.398438" xlink:href="#LiberationSans-30"/>
       <use x="114.013672" xlink:href="#LiberationSans-2e"/>
       <use x="141.796875" xlink:href="#LiberationSans-32"/>
       <use x="197.412109" xlink:href="#LiberationSans-35"/>
      </g>
     </g>
    </g>
    <g id="ytick_5">
     <g id="line2d_25">
      <path clip-path="url(#p7b44bc3338)" d="M 144 181.8 
L 1036.8 181.8 
" style="fill:none;stroke:#ffffff;stroke-linecap:round;stroke-width:0.8;"/>
     </g>
     <g id="line2d_26"/>
     <g id="text_13">
      <!-- 0.00 -->
      <g style="fill:#262626;" transform="translate(122.83125 184.69875)scale(0.08 -0.08)">
       <use xlink:href="#LiberationSans-30"/>
       <use x="55.615234" xlink:href="#LiberationSans-2e"/>
       <use x="83.398438" xlink:href="#LiberationSans-30"/>
       <use x="139.013672" xlink:href="#LiberationSans-30"/>
      </g>
     </g>
    </g>
    <g id="ytick_6">
     <g id="line2d_27">
      <path clip-path="url(#p7b44bc3338)" d="M 144 150.3 
L 1036.8 150.3 
" style="fill:none;stroke:#ffffff;stroke-linecap:round;stroke-width:0.8;"/>
     </g>
     <g id="line2d_28"/>
     <g id="text_14">
      <!-- 0.25 -->
      <g style="fill:#262626;" transform="translate(122.83125 153.19875)scale(0.08 -0.08)">
       <use xlink:href="#LiberationSans-30"/>
       <use x="55.615234" xlink:href="#LiberationSans-2e"/>
       <use x="83.398438" xlink:href="#LiberationSans-32"/>
       <use x="139.013672" xlink:href="#LiberationSans-35"/>
      </g>
     </g>
    </g>
    <g id="ytick_7">
     <g id="line2d_29">
      <path clip-path="url(#p7b44bc3338)" d="M 144 118.8 
L 1036.8 118.8 
" style="fill:none;stroke:#ffffff;stroke-linecap:round;stroke-width:0.8;"/>
     </g>
     <g id="line2d_30"/>
     <g id="text_15">
      <!-- 0.50 -->
      <g style="fill:#262626;" transform="translate(122.83125 121.69875)scale(0.08 -0.08)">
       <use xlink:href="#LiberationSans-30"/>
       <use x="55.615234" xlink:href="#LiberationSans-2e"/>
       <use x="83.398438" xlink:href="#LiberationSans-35"/>
       <use x="139.013672" xlink:href="#LiberationSans-30"/>
      </g>
     </g>
    </g>
    <g id="ytick_8">
     <g id="line2d_31">
      <path clip-path="url(#p7b44bc3338)" d="M 144 87.3 
L 1036.8 87.3 
" style="fill:none;stroke:#ffffff;stroke-linecap:round;stroke-width:0.8;"/>
     </g>
     <g id="line2d_32"/>
     <g id="text_16">
      <!-- 0.75 -->
      <g style="fill:#262626;" transform="translate(122.83125 90.19875)scale(0.08 -0.08)">
       <use xlink:href="#LiberationSans-30"/>
       <use x="55.615234" xlink:href="#LiberationSans-2e"/>
       <use x="83.398438" xlink:href="#LiberationSans-37"/>
       <use x="139.013672" xlink:href="#LiberationSans-35"/>
      </g>
     </g>
    </g>
    <g id="ytick_9">
     <g id="line2d_33">
      <path clip-path="url(#p7b44bc3338)" d="M 144 55.8 
L 1036.8 55.8 
" style="fill:none;stroke:#ffffff;stroke-linecap:round;stroke-width:0.8;"/>
     </g>
     <g id="line2d_34"/>
     <g id="text_17">
      <!-- 1.00 -->
      <g style="fill:#262626;" transform="translate(122.83125 58.69875)scale(0.08 -0.08)">
       <use xlink:href="#LiberationSans-31"/>
       <use x="55.615234" xlink:href="#LiberationSans-2e"/>
       <use x="83.398438" xlink:href="#LiberationSans-30"/>
       <use x="139.013672" xlink:href="#LiberationSans-30"/>
      </g>
     </g>
    </g>
   </g>
   <g id="line2d_35">
    <path clip-path="url(#p7b44bc3338)" d="M 184.581818 152.212867 
L 187.457922 152.213375 
L 188.033142 148.319331 
L 188.608363 133.000242 
L 190.334025 55.8 
L 190.909246 57.916767 
L 191.484466 92.631103 
L 193.210128 280.973547 
L 193.785349 307.8 
L 194.36057 299.487488 
L 194.93579 260.896529 
L 196.661452 97.807104 
L 197.236673 69.738236 
L 197.811894 64.448709 
L 198.387114 79.50229 
L 200.687997 189.205776 
L 201.263218 193.895326 
L 201.838438 185.401969 
L 202.413659 167.251153 
L 203.5641 126.546773 
L 204.139321 118.685179 
L 204.714542 124.473425 
L 206.440204 173.726969 
L 207.015424 179.893237 
L 207.590645 177.196889 
L 208.165866 168.003852 
L 209.316307 145.051592 
L 209.891528 137.484569 
L 210.466748 134.575827 
L 211.041969 136.339308 
L 211.61719 141.755626 
L 212.767631 156.192441 
L 213.342852 161.39754 
L 213.918072 163.620583 
L 214.493293 162.725438 
L 215.068514 159.412742 
L 216.218955 150.624595 
L 216.794176 147.591473 
L 217.369396 146.398212 
L 217.944617 147.045312 
L 218.519838 149.049819 
L 219.670279 154.115934 
L 220.2455 155.782201 
L 220.82072 156.351358 
L 221.395941 155.843891 
L 221.971162 154.555639 
L 223.121603 151.483013 
L 223.696824 150.536097 
L 224.272044 150.279077 
L 224.847265 150.679781 
L 225.997706 152.563282 
L 226.572927 153.473531 
L 227.148148 154.038645 
L 227.723368 154.152302 
L 228.298589 153.834564 
L 230.599472 151.515593 
L 231.174692 151.474903 
L 231.749913 151.73683 
L 234.050796 153.564726 
L 234.626016 153.676583 
L 235.201237 153.586515 
L 236.351678 153.000533 
L 237.50212 152.330375 
L 238.07734 152.155763 
L 238.652561 152.159876 
L 239.227782 152.361047 
L 239.803002 152.759833 
L 240.953444 154.103896 
L 242.103885 155.945348 
L 243.829547 158.911992 
L 244.979988 160.285062 
L 245.555209 160.830944 
L 246.13043 161.596948 
L 246.70565 162.949583 
L 247.280871 164.633118 
L 247.856092 164.351334 
L 248.431312 157.670373 
L 249.006533 141.973517 
L 250.156974 98.458784 
L 250.732195 85.631114 
L 251.307416 86.434163 
L 251.882636 101.089008 
L 253.608298 175.358242 
L 254.183519 189.736441 
L 254.75874 193.732804 
L 255.33396 188.263707 
L 255.909181 176.19009 
L 257.059622 147.782037 
L 257.634843 138.402737 
L 258.210064 134.829489 
L 258.785284 136.983858 
L 259.360505 143.358417 
L 260.510946 159.168641 
L 261.086167 164.223507 
L 261.661388 165.807099 
L 262.236608 164.055528 
L 262.811829 159.943886 
L 263.96227 150.384111 
L 264.537491 147.469024 
L 265.112712 146.669201 
L 265.687932 147.876842 
L 266.263153 150.494757 
L 267.413594 156.435726 
L 267.988815 158.220358 
L 268.564036 158.673866 
L 269.139256 157.860619 
L 270.289698 154.125646 
L 270.864918 152.302892 
L 271.440139 151.114001 
L 272.01536 150.76068 
L 272.590581 151.205926 
L 273.165801 152.222431 
L 274.316243 154.639947 
L 274.891463 155.427485 
L 275.466684 155.719694 
L 276.041905 155.514577 
L 276.617125 154.941138 
L 277.767567 153.48131 
L 278.342787 152.95076 
L 278.918008 152.694749 
L 279.493229 152.715438 
L 280.068449 152.95799 
L 283.519773 155.129098 
L 286.395877 156.487589 
L 288.121539 156.672697 
L 288.696759 157.107004 
L 289.27198 158.427255 
L 289.847201 161.448726 
L 290.422421 167.035333 
L 290.997642 174.760376 
L 291.572863 180.187489 
L 292.148083 175.300283 
L 292.723304 155.595978 
L 293.873745 96.009007 
L 294.448966 77.846002 
L 295.024187 77.189143 
L 295.599407 93.69347 
L 297.325069 178.381585 
L 297.90029 194.298045 
L 298.475511 198.531579 
L 299.050731 192.190441 
L 299.625952 178.44277 
L 300.776393 146.155784 
L 301.351614 135.555858 
L 301.926835 131.643424 
L 302.502055 134.323162 
L 303.077276 141.828004 
L 304.227717 160.128635 
L 304.802938 165.867885 
L 305.378159 167.591691 
L 305.953379 165.510775 
L 306.5286 160.782467 
L 307.679041 149.942904 
L 308.254262 146.676252 
L 308.829483 145.808872 
L 309.404703 147.214247 
L 310.555145 153.732367 
L 311.130365 156.813071 
L 311.705586 158.699519 
L 312.280807 159.068977 
L 312.856027 158.040349 
L 314.581689 151.913501 
L 315.15691 150.7701 
L 315.732131 150.583447 
L 316.307351 151.262167 
L 318.033013 155.126338 
L 318.608234 155.842509 
L 319.183455 155.952267 
L 319.758675 155.504288 
L 322.059558 152.315069 
L 322.634779 152.179852 
L 323.209999 152.437444 
L 324.360441 153.675261 
L 325.510882 154.884658 
L 326.086103 155.201432 
L 326.661323 155.292572 
L 327.236544 155.18097 
L 328.386985 154.607813 
L 329.537427 154.009347 
L 330.112647 153.871916 
L 330.687868 153.940833 
L 331.263089 154.321548 
L 331.838309 155.175202 
L 332.41353 156.736431 
L 332.988751 159.304036 
L 333.563971 163.260167 
L 334.139192 169.008738 
L 335.289633 185.016059 
L 335.864854 190.162662 
L 336.440075 185.860814 
L 337.015295 168.888002 
L 338.165737 116.889234 
L 338.740957 98.404212 
L 339.316178 92.430739 
L 339.891399 99.452637 
L 340.466619 116.323355 
L 341.617061 158.226453 
L 342.192281 173.497287 
L 342.767502 181.294788 
L 343.342723 181.172299 
L 343.917943 174.410397 
L 345.643605 142.695145 
L 346.218826 137.469273 
L 346.794047 137.01457 
L 347.369267 140.644702 
L 349.094929 158.427175 
L 349.67015 161.173236 
L 350.245371 161.16037 
L 350.820591 158.825035 
L 352.546253 148.185115 
L 353.121474 146.614271 
L 353.696695 146.695372 
L 354.271915 148.150141 
L 355.997577 154.519948 
L 356.572798 155.426632 
L 357.148019 155.350375 
L 357.723239 154.470419 
L 358.873681 151.808368 
L 359.448901 150.798127 
L 360.024122 150.325986 
L 360.599343 150.428119 
L 361.174563 150.97377 
L 362.325005 152.494604 
L 362.900226 153.021091 
L 363.475446 153.218145 
L 364.050667 153.086797 
L 365.201108 152.238271 
L 365.776329 151.821254 
L 366.35155 151.588342 
L 366.92677 151.597025 
L 367.501991 151.827839 
L 369.227653 153.007288 
L 369.802874 153.199459 
L 370.378094 153.176148 
L 370.953315 152.953991 
L 372.678977 151.949514 
L 373.254198 151.861366 
L 373.829418 152.04032 
L 374.404639 152.516485 
L 374.97986 153.285962 
L 376.130301 155.557411 
L 378.431184 160.84871 
L 379.581625 162.700184 
L 380.732066 164.085204 
L 381.307287 163.904598 
L 381.882508 160.487298 
L 382.457728 150.776725 
L 383.60817 114.508927 
L 384.18339 97.898323 
L 384.758611 90.502386 
L 385.333832 95.479218 
L 385.909052 111.763663 
L 387.634714 177.08647 
L 388.209935 187.324546 
L 388.785156 188.274661 
L 389.360376 181.32554 
L 391.086038 144.927987 
L 391.661259 138.027822 
L 392.23648 136.440167 
L 392.8117 139.660091 
L 394.537362 159.676004 
L 395.112583 163.31466 
L 395.687804 163.797644 
L 396.263024 161.487604 
L 397.988686 149.201339 
L 398.563907 147.116853 
L 399.139128 146.955288 
L 399.714348 148.482937 
L 401.44001 156.200905 
L 402.015231 157.466106 
L 402.590452 157.523068 
L 403.165672 156.53284 
L 404.891334 151.616393 
L 405.466555 150.756473 
L 406.041776 150.636199 
L 406.616996 151.171314 
L 408.342658 154.169586 
L 408.917879 154.760106 
L 409.4931 154.915975 
L 410.06832 154.679188 
L 411.218762 153.556489 
L 411.793982 152.986878 
L 412.369203 152.575589 
L 412.944424 152.384286 
L 413.519644 152.40879 
L 414.670086 152.88276 
L 416.395748 153.67695 
L 420.422292 154.82819 
L 420.997513 154.826684 
L 422.147954 154.472622 
L 422.723175 154.279029 
L 423.298396 154.325507 
L 423.873616 154.988286 
L 424.448837 156.787498 
L 425.024058 160.409184 
L 425.599278 166.527134 
L 426.74972 182.653877 
L 427.32494 182.842012 
L 427.900161 169.859189 
L 429.625823 98.684642 
L 430.201044 92.139554 
L 430.776264 99.973264 
L 431.351485 118.612084 
L 432.501926 163.299085 
L 433.077147 178.341114 
L 433.652368 184.928027 
L 434.227588 183.156499 
L 434.802809 174.783161 
L 436.528471 140.949191 
L 437.103692 136.114008 
L 437.678912 136.435188 
L 438.254133 140.982014 
L 439.404574 154.873477 
L 439.979795 160.142338 
L 440.555016 162.596218 
L 441.130236 162.072404 
L 441.705457 159.193975 
L 442.855898 151.00786 
L 443.431119 148.00658 
L 444.00634 146.685693 
L 444.58156 147.11765 
L 445.156781 148.919507 
L 446.307222 153.818368 
L 446.882443 155.524807 
L 447.457664 156.18725 
L 448.032884 155.792916 
L 448.608105 154.605399 
L 449.758546 151.609904 
L 450.333767 150.635191 
L 450.908988 150.322468 
L 451.484208 150.657176 
L 452.059429 151.461228 
L 453.20987 153.364406 
L 453.785091 153.93775 
L 454.360312 154.074746 
L 454.935533 153.786995 
L 457.236415 151.505013 
L 457.811636 151.434882 
L 458.386857 151.667882 
L 459.537298 152.712678 
L 460.112519 153.269849 
L 460.687739 153.671043 
L 461.26296 153.840663 
L 461.838181 153.766122 
L 462.413401 153.486254 
L 464.139063 152.242884 
L 464.714284 151.997599 
L 465.289505 151.959286 
L 465.864725 152.173457 
L 466.439946 152.671303 
L 467.015167 153.479876 
L 467.590387 154.612482 
L 468.740829 157.810429 
L 471.041711 166.019572 
L 471.616932 166.975423 
L 472.192153 166.133058 
L 472.767373 162.441782 
L 473.342594 155.36068 
L 474.493035 133.834361 
L 475.068256 123.14688 
L 475.643477 116.10901 
L 476.218697 115.007646 
L 476.793918 120.571069 
L 477.369139 131.581403 
L 478.51958 158.35902 
L 479.094801 167.98987 
L 479.670021 172.512796 
L 480.245242 171.738746 
L 480.820463 166.769562 
L 482.546125 146.254094 
L 483.121345 143.18287 
L 483.696566 143.138893 
L 484.271787 145.606954 
L 485.997449 156.898435 
L 486.572669 158.520745 
L 487.14789 158.354479 
L 487.723111 156.701576 
L 489.448773 149.660706 
L 490.023993 148.68581 
L 490.599214 148.815473 
L 491.174435 149.859265 
L 492.900097 154.291991 
L 493.475317 154.932172 
L 494.050538 154.895672 
L 494.625759 154.296497 
L 496.351421 151.560562 
L 496.926641 151.110416 
L 497.501862 151.056202 
L 498.077083 151.341464 
L 500.377965 153.194495 
L 500.953186 153.322158 
L 501.528407 153.280393 
L 504.979731 152.3843 
L 507.855834 152.341562 
L 508.431055 152.481478 
L 509.006275 152.760156 
L 509.581496 153.203183 
L 510.731937 154.534886 
L 511.882379 156.00239 
L 512.457599 156.505116 
L 513.03282 156.696677 
L 513.608041 156.502248 
L 514.183261 155.896093 
L 515.333703 154.205927 
L 515.908923 154.174617 
L 516.484144 154.934673 
L 517.059365 154.553277 
L 517.634585 149.764413 
L 518.209806 139.336521 
L 519.360247 114.549956 
L 519.935468 110.13964 
L 520.510689 114.883683 
L 521.085909 127.625551 
L 522.236351 161.188333 
L 522.811571 173.406984 
L 523.386792 179.19288 
L 523.962013 178.392938 
L 524.537233 172.350951 
L 526.262895 146.29102 
L 526.838116 142.059996 
L 527.413337 141.664088 
L 527.988557 144.576215 
L 529.714219 159.015759 
L 530.28944 161.187417 
L 530.864661 161.0619 
L 531.439881 159.028824 
L 533.165543 150.223481 
L 533.740764 149.023521 
L 534.315985 149.215376 
L 534.891205 150.553496 
L 536.041647 154.551827 
L 536.616867 156.080631 
L 537.192088 156.781562 
L 537.767309 156.584584 
L 538.342529 155.66015 
L 539.492971 153.005137 
L 540.068191 151.991966 
L 540.643412 151.5025 
L 541.218633 151.582797 
L 541.793853 152.132807 
L 543.519515 154.473335 
L 544.094736 154.827039 
L 544.669957 154.82192 
L 545.245178 154.510157 
L 546.97084 152.947757 
L 547.54606 152.627354 
L 548.121281 152.51309 
L 548.696502 152.589797 
L 549.846943 153.105483 
L 551.572605 153.926178 
L 552.723046 154.214869 
L 553.873488 154.270286 
L 555.023929 154.016469 
L 556.17437 153.349743 
L 557.324812 152.535279 
L 557.900032 152.370492 
L 558.475253 152.633584 
L 559.050474 153.628791 
L 559.625694 155.738491 
L 560.200915 159.373387 
L 561.926577 175.284947 
L 562.501798 173.375635 
L 563.077018 163.765538 
L 564.22746 136.587234 
L 564.80268 128.863744 
L 565.377901 128.102759 
L 565.953122 133.277923 
L 567.678784 158.314685 
L 568.254004 162.70823 
L 568.829225 163.869186 
L 569.404446 162.12355 
L 569.979666 158.287996 
L 571.130108 149.166325 
L 571.705328 146.221589 
L 572.280549 145.247773 
L 572.85577 146.191037 
L 573.43099 148.494692 
L 574.581432 153.825534 
L 575.156652 155.417455 
L 575.731873 155.84936 
L 576.307094 155.214314 
L 577.457535 152.250443 
L 578.032756 150.84629 
L 578.607976 149.972023 
L 579.183197 149.760159 
L 579.758418 150.152259 
L 581.48408 152.643805 
L 582.0593 153.098046 
L 582.634521 153.160481 
L 583.209742 152.880358 
L 584.935404 151.464937 
L 585.510624 151.279275 
L 586.085845 151.334919 
L 587.236286 151.939253 
L 588.386728 152.492841 
L 588.961948 152.541948 
L 589.537169 152.419194 
L 591.838052 151.454771 
L 592.413272 151.456472 
L 592.988493 151.61468 
L 595.289376 152.782299 
L 595.864596 152.873917 
L 596.439817 152.806068 
L 597.590258 152.250946 
L 599.31592 151.176672 
L 599.891141 151.058098 
L 600.466362 151.180551 
L 601.041582 151.600451 
L 601.616803 152.339785 
L 602.192024 153.408478 
L 603.342465 156.338611 
L 604.492906 159.33654 
L 605.068127 160.002003 
L 605.643348 159.31511 
L 606.218568 156.767222 
L 607.36901 149.224295 
L 607.94423 147.532598 
L 608.519451 147.471135 
L 609.094672 147.676637 
L 609.669892 147.140475 
L 610.820334 144.629274 
L 611.395554 144.355297 
L 611.970775 145.518085 
L 612.545996 147.953522 
L 613.696437 153.610483 
L 614.271658 155.357991 
L 614.846878 155.978095 
L 615.422099 155.573978 
L 615.99732 154.435098 
L 617.147761 151.490044 
L 617.722982 150.401992 
L 618.298202 149.881883 
L 618.873423 149.980424 
L 619.448644 150.587267 
L 620.599085 152.340642 
L 621.174306 152.965343 
L 621.749526 153.203669 
L 622.324747 153.042844 
L 622.899968 152.576823 
L 624.050409 151.387392 
L 624.62563 150.983793 
L 625.20085 150.836093 
L 625.776071 150.956885 
L 626.926512 151.742247 
L 628.076954 152.518038 
L 628.652174 152.671139 
L 629.227395 152.632664 
L 630.377836 152.132844 
L 631.528278 151.542322 
L 632.103498 151.372271 
L 632.678719 151.325144 
L 633.82916 151.560888 
L 636.130043 152.336503 
L 637.280485 152.405306 
L 638.430926 152.211712 
L 641.307029 151.38705 
L 642.457471 151.445482 
L 643.032691 151.650968 
L 644.183133 152.4091 
L 645.908795 153.781458 
L 646.484015 153.954185 
L 647.059236 153.800941 
L 647.634457 153.215603 
L 648.209677 152.098344 
L 648.784898 150.436596 
L 649.935339 146.133278 
L 650.51056 144.57988 
L 651.085781 144.785104 
L 652.236222 149.305926 
L 652.811443 149.115636 
L 653.386663 145.743584 
L 653.961884 140.988587 
L 654.537105 137.70007 
L 655.112325 137.92039 
L 655.687546 141.968099 
L 657.413208 161.172957 
L 657.988429 164.024697 
L 658.563649 164.04067 
L 659.13887 161.770424 
L 660.864532 150.722989 
L 661.439753 148.600968 
L 662.014973 148.069119 
L 662.590194 149.006671 
L 664.315856 155.124681 
L 664.891077 156.232494 
L 665.466297 156.355938 
L 666.041518 155.615369 
L 667.76718 151.854415 
L 668.342401 151.278387 
L 668.917621 151.309318 
L 669.492842 151.853509 
L 671.218504 154.27926 
L 671.793725 154.611227 
L 672.368945 154.536909 
L 672.944166 154.117627 
L 674.669828 152.339355 
L 675.245049 152.075613 
L 675.820269 152.093422 
L 676.39549 152.354349 
L 678.121152 153.606938 
L 678.696373 153.840225 
L 679.271593 153.885607 
L 679.846814 153.749455 
L 680.997255 153.129403 
L 682.147697 152.499111 
L 682.722917 152.316909 
L 683.298138 152.258788 
L 684.448579 152.503508 
L 686.174241 153.365498 
L 687.324683 153.858572 
L 687.899903 153.952305 
L 688.475124 153.892124 
L 689.050345 153.640761 
L 689.625565 153.170818 
L 690.200786 152.483775 
L 692.501669 148.953477 
L 693.076889 148.90972 
L 693.65211 149.979559 
L 694.227331 152.625709 
L 695.377772 160.911369 
L 695.952993 161.942824 
L 696.528213 158.740786 
L 697.678655 148.220368 
L 698.253875 146.374392 
L 698.829096 147.842824 
L 700.554758 157.978527 
L 701.129979 158.790619 
L 701.705199 157.894797 
L 702.28042 155.924921 
L 703.430861 151.317388 
L 704.006082 149.669282 
L 704.581303 148.896308 
L 705.156523 149.073209 
L 705.731744 150.041047 
L 706.882185 152.897124 
L 707.457406 153.967693 
L 708.032627 154.433752 
L 708.607847 154.269569 
L 709.183068 153.634742 
L 710.333509 151.993217 
L 710.90873 151.462336 
L 711.483951 151.297392 
L 712.059171 151.486463 
L 714.360054 153.20249 
L 714.935275 153.228657 
L 715.510495 153.020123 
L 717.236157 151.927463 
L 717.811378 151.745737 
L 718.386599 151.750031 
L 719.53704 152.218676 
L 720.687481 152.824312 
L 721.262702 152.993892 
L 721.837923 153.017956 
L 722.988364 152.666379 
L 724.714026 151.886409 
L 725.289247 151.767944 
L 725.864467 151.77133 
L 727.014909 152.106567 
L 728.740571 152.893157 
L 729.891012 153.092859 
L 730.466233 153.003879 
L 731.041454 152.782355 
L 732.191895 152.012355 
L 733.917557 150.736923 
L 734.492778 150.574648 
L 735.067998 150.700913 
L 735.643219 151.193147 
L 736.21844 152.116611 
L 736.79366 153.489922 
L 738.519322 158.714297 
L 739.094543 158.990265 
L 739.669764 157.188464 
L 740.244984 154.167216 
L 740.820205 152.720441 
L 741.395426 154.982629 
L 742.545867 165.626652 
L 743.121088 168.144266 
L 743.696308 166.363497 
L 744.271529 160.763426 
L 745.42197 146.106151 
L 745.997191 141.235715 
L 746.572412 139.403402 
L 747.147632 140.421513 
L 747.722853 143.526197 
L 748.873294 151.807917 
L 749.448515 154.974531 
L 750.023736 156.587612 
L 750.598956 156.498583 
L 751.174177 154.995914 
L 752.324618 150.334458 
L 752.899839 148.569479 
L 753.47506 147.781201 
L 754.05028 148.022872 
L 754.625501 149.062833 
L 755.775942 151.889005 
L 756.351163 152.873256 
L 756.926384 153.251768 
L 757.501604 153.010184 
L 758.076825 152.296795 
L 759.227266 150.480704 
L 759.802487 149.888738 
L 760.377708 149.71098 
L 760.952928 149.948457 
L 762.10337 151.17321 
L 762.67859 151.80203 
L 763.253811 152.231901 
L 763.829032 152.379345 
L 764.404252 152.239734 
L 765.554694 151.405389 
L 766.705135 150.60436 
L 767.280356 150.455816 
L 767.855576 150.514041 
L 769.006018 151.089149 
L 770.156459 151.794991 
L 770.73168 152.02376 
L 771.3069 152.117534 
L 771.882121 152.071101 
L 773.032562 151.647475 
L 774.758224 150.759265 
L 775.908666 150.467101 
L 776.483886 150.501254 
L 777.059107 150.681175 
L 777.634328 151.014767 
L 778.784769 152.096853 
L 779.93521 153.324879 
L 780.510431 153.685741 
L 781.085652 153.586065 
L 781.660872 152.707711 
L 782.236093 150.696033 
L 782.811314 147.25914 
L 783.961755 137.94684 
L 784.536976 136.46339 
L 785.112196 140.232382 
L 786.262638 155.630482 
L 786.837858 160.353855 
L 787.413079 160.982034 
L 787.9883 158.3877 
L 789.138741 150.618146 
L 789.713962 148.292137 
L 790.289182 147.634453 
L 790.864403 148.303629 
L 791.439624 149.827004 
L 792.590065 153.688944 
L 793.165286 155.132827 
L 793.740506 155.786981 
L 794.315727 155.563748 
L 794.890948 154.623233 
L 796.041389 152.021167 
L 796.61661 151.117475 
L 797.19183 150.771032 
L 797.767051 150.962386 
L 798.917492 152.253194 
L 799.492713 152.907688 
L 800.067934 153.3323 
L 800.643154 153.455498 
L 801.218375 153.296621 
L 803.519258 152.009621 
L 804.094478 152.017468 
L 805.24492 152.45652 
L 806.395361 152.917117 
L 806.970582 152.976616 
L 807.545802 152.892627 
L 810.421906 152.01417 
L 811.572347 152.279741 
L 813.298009 152.944076 
L 813.87323 153.027158 
L 814.44845 152.989292 
L 815.598892 152.594092 
L 817.324554 151.812367 
L 817.899774 151.697486 
L 818.474995 151.708982 
L 819.050216 151.854216 
L 820.200657 152.487428 
L 821.926319 153.584631 
L 822.50154 153.699591 
L 823.076761 153.548175 
L 823.651981 153.053535 
L 824.227202 152.155104 
L 824.802423 150.82815 
L 825.952864 147.135336 
L 826.528085 145.175634 
L 827.103305 143.821445 
L 827.678526 143.981736 
L 828.253747 146.390006 
L 828.828967 150.251349 
L 829.404188 153.1023 
L 829.979409 153.243427 
L 831.12985 149.03234 
L 831.705071 148.336496 
L 832.280291 149.766082 
L 834.005953 158.462587 
L 834.581174 159.307502 
L 835.156395 158.647416 
L 835.731615 156.976827 
L 836.882057 152.856263 
L 837.457277 151.321065 
L 838.032498 150.519502 
L 838.607719 150.522382 
L 839.182939 151.215107 
L 840.908601 154.42647 
L 841.483822 154.861841 
L 842.059043 154.767057 
L 842.634263 154.248939 
L 843.784705 152.813011 
L 844.359925 152.317836 
L 844.935146 152.139595 
L 845.510367 152.284701 
L 846.660808 153.169436 
L 847.236029 153.629671 
L 847.811249 153.929082 
L 848.38647 154.000651 
L 848.961691 153.842228 
L 851.262573 152.4829 
L 851.837794 152.396447 
L 852.413015 152.481757 
L 853.563456 152.991709 
L 854.713897 153.500733 
L 855.289118 153.611013 
L 855.864339 153.594068 
L 857.01478 153.240463 
L 858.740442 152.532308 
L 859.890883 152.391777 
L 861.041325 152.622665 
L 863.917428 153.664912 
L 864.492649 153.668143 
L 865.067869 153.52796 
L 865.64309 153.23209 
L 866.793531 152.236245 
L 867.943973 151.033099 
L 868.519193 150.600946 
L 869.094414 150.46483 
L 869.669635 150.80766 
L 870.244855 151.845266 
L 870.820076 153.744066 
L 871.395297 156.596734 
L 872.545738 163.224157 
L 873.120959 164.101456 
L 873.696179 161.929121 
L 874.2714 158.29664 
L 874.846621 155.850826 
L 875.421841 155.874806 
L 876.572283 159.203814 
L 877.147503 159.335983 
L 877.722724 157.449097 
L 879.448386 147.293357 
L 880.023607 145.709168 
L 880.598827 145.602692 
L 881.174048 146.684259 
L 883.474931 153.68898 
L 884.050151 154.129641 
L 884.625372 153.778231 
L 885.200593 152.842401 
L 886.351034 150.611916 
L 886.926255 149.965637 
L 887.501475 149.846443 
L 888.076696 150.206839 
L 889.802358 152.240569 
L 890.377579 152.575662 
L 890.952799 152.577643 
L 891.52802 152.286831 
L 893.253682 150.888458 
L 893.828903 150.669026 
L 894.404123 150.684015 
L 894.979344 150.910761 
L 896.705006 152.02286 
L 897.280227 152.235651 
L 897.855447 152.27927 
L 898.430668 152.159508 
L 901.306771 151.040834 
L 902.457213 151.183459 
L 905.333316 152.229719 
L 906.483757 152.237433 
L 907.634199 151.898592 
L 909.935082 150.826533 
L 910.510302 150.721889 
L 911.085523 150.792559 
L 911.660744 151.088221 
L 912.235964 151.64287 
L 912.811185 152.453542 
L 915.112068 156.392307 
L 915.687288 156.373186 
L 916.262509 155.068129 
L 916.83773 152.063734 
L 917.41295 147.860789 
L 917.988171 144.590516 
L 918.563392 144.678867 
L 919.138612 148.170696 
L 919.713833 152.611128 
L 920.289054 155.324244 
L 920.864274 155.178165 
L 921.439495 152.693327 
L 922.014716 149.356826 
L 922.589936 146.72696 
L 923.165157 145.763063 
L 923.740378 146.557946 
L 924.315598 148.526132 
L 925.46604 153.121086 
L 926.04126 154.741444 
L 926.616481 155.52444 
L 927.191702 155.408082 
L 927.766922 154.53199 
L 929.492584 150.701363 
L 930.067805 150.16113 
L 930.643026 150.237427 
L 931.218246 150.804576 
L 932.368688 152.428387 
L 932.943908 152.996509 
L 933.519129 153.207605 
L 934.09435 153.055714 
L 935.244791 152.084357 
L 935.820012 151.582403 
L 936.395232 151.259721 
L 936.970453 151.18622 
L 937.545674 151.355577 
L 939.846556 152.714897 
L 940.421777 152.769282 
L 940.996998 152.644132 
L 943.29788 151.563242 
L 943.873101 151.48571 
L 944.448322 151.546488 
L 945.598763 151.975376 
L 946.749204 152.475408 
L 947.899646 152.675832 
L 949.050087 152.466042 
L 951.92619 151.524883 
L 952.501411 151.53163 
L 953.076632 151.653394 
L 954.227073 152.225826 
L 956.527956 153.755458 
L 957.103176 153.874087 
L 957.678397 153.746157 
L 958.253618 153.305767 
L 958.828838 152.51805 
L 959.97928 150.116571 
L 960.5545 148.891305 
L 961.129721 148.257896 
L 961.704942 149.013387 
L 962.280162 151.736922 
L 962.855383 155.472756 
L 963.430604 156.849997 
L 964.005824 152.852634 
L 965.156266 134.632312 
L 965.731486 128.676525 
L 966.306707 128.878682 
L 966.881928 135.131827 
L 968.60759 164.127786 
L 969.18281 168.519062 
L 969.758031 168.758781 
L 970.333252 165.577696 
L 972.058914 149.216866 
L 972.634134 146.039947 
L 973.209355 145.262233 
L 973.784576 146.697961 
L 975.510238 155.921639 
L 976.085458 157.601023 
L 976.660679 157.82461 
L 977.2359 156.772201 
L 978.961562 151.269982 
L 979.536782 150.389042 
L 980.112003 150.381785 
L 980.687224 151.119478 
L 982.412886 154.534818 
L 982.988106 155.007438 
L 983.563327 154.914733 
L 984.138548 154.351511 
L 985.86421 152.021737 
L 986.43943 151.712782 
L 987.014651 151.779986 
L 987.589872 152.160625 
L 989.315534 153.779872 
L 989.890754 154.027364 
L 990.465975 154.01541 
L 991.041196 153.769735 
L 993.342078 152.240921 
L 993.917299 152.148466 
L 994.49252 152.234808 
L 995.642961 152.801913 
L 996.218182 153.167524 
L 996.218182 153.167524 
" style="fill:none;stroke:#4c72b0;stroke-linecap:round;stroke-width:1.4;"/>
   </g>
   <g id="patch_3">
    <path d="M 144 320.4 
L 144 43.2 
" style="fill:none;"/>
   </g>
   <g id="patch_4">
    <path d="M 1036.8 320.4 
L 1036.8 43.2 
" style="fill:none;"/>
   </g>
   <g id="patch_5">
    <path d="M 144 320.4 
L 1036.8 320.4 
" style="fill:none;"/>
   </g>
   <g id="patch_6">
    <path d="M 144 43.2 
L 1036.8 43.2 
" style="fill:none;"/>
   </g>
  </g>
 </g>
 <defs>
  <clipPath id="p7b44bc3338">
   <rect height="277.2" width="892.8" x="144" y="43.2"/>
  </clipPath>
 </defs>
</svg>
