<?xml version="1.0" encoding="utf-8" standalone="no"?>
<!DOCTYPE svg PUBLIC "-//W3C//DTD SVG 1.1//EN"
  "http://www.w3.org/Graphics/SVG/1.1/DTD/svg11.dtd">
<!-- Created with matplotlib (http://matplotlib.org/) -->
<svg height="288pt" version="1.1" viewBox="0 0 432 288" width="432pt" xmlns="http://www.w3.org/2000/svg" xmlns:xlink="http://www.w3.org/1999/xlink">
 <defs>
  <style type="text/css">
*{stroke-linecap:butt;stroke-linejoin:round;stroke-miterlimit:100000;}
  </style>
 </defs>
 <g id="figure_1">
  <g id="patch_1">
   <path d="M 0 288 
L 432 288 
L 432 0 
L 0 0 
z
" style="fill:#ffffff;"/>
  </g>
  <g id="axes_1">
   <g id="patch_2">
    <path d="M 54 252 
L 388.8 252 
L 388.8 28.8 
L 54 28.8 
z
" style="fill:#eaeaf2;"/>
   </g>
   <g id="matplotlib.axis_1">
    <g id="xtick_1">
     <g id="line2d_1">
      <path clip-path="url(#p4f7b9c9270)" d="M 54 252 
L 54 28.8 
" style="fill:none;stroke:#ffffff;stroke-linecap:round;"/>
     </g>
     <g id="line2d_2"/>
     <g id="line2d_3"/>
     <g id="text_1">
      <!-- 0.00 -->
      <defs>
       <path d="M 51.703125 34.421875 
Q 51.703125 24.515625 49.828125 17.75 
Q 47.953125 10.984375 44.703125 6.8125 
Q 41.453125 2.640625 37.0625 0.828125 
Q 32.671875 -0.984375 27.6875 -0.984375 
Q 22.65625 -0.984375 18.3125 0.828125 
Q 13.96875 2.640625 10.765625 6.78125 
Q 7.5625 10.9375 5.734375 17.703125 
Q 3.90625 24.46875 3.90625 34.421875 
Q 3.90625 44.828125 5.734375 51.640625 
Q 7.5625 58.453125 10.78125 62.5 
Q 14.015625 66.546875 18.40625 68.1875 
Q 22.796875 69.828125 27.984375 69.828125 
Q 32.90625 69.828125 37.21875 68.1875 
Q 41.546875 66.546875 44.765625 62.5 
Q 48 58.453125 49.84375 51.640625 
Q 51.703125 44.828125 51.703125 34.421875 
M 42.78125 34.421875 
Q 42.78125 42.625 41.796875 48.0625 
Q 40.828125 53.515625 38.921875 56.765625 
Q 37.015625 60.015625 34.25 61.359375 
Q 31.5 62.703125 27.984375 62.703125 
Q 24.265625 62.703125 21.4375 61.328125 
Q 18.609375 59.96875 16.671875 56.71875 
Q 14.75 53.46875 13.765625 48.015625 
Q 12.796875 42.578125 12.796875 34.421875 
Q 12.796875 26.515625 13.796875 21.09375 
Q 14.796875 15.671875 16.71875 12.375 
Q 18.65625 9.078125 21.4375 7.640625 
Q 24.21875 6.203125 27.78125 6.203125 
Q 31.25 6.203125 34.03125 7.640625 
Q 36.8125 9.078125 38.734375 12.375 
Q 40.671875 15.671875 41.71875 21.09375 
Q 42.78125 26.515625 42.78125 34.421875 
" id="LiberationSans-30"/>
       <path d="M 9.125 0 
L 9.125 10.6875 
L 18.65625 10.6875 
L 18.65625 0 
z
" id="LiberationSans-2e"/>
      </defs>
      <g style="fill:#262626;" transform="translate(44.26953125 266.246875)scale(0.1 -0.1)">
       <use xlink:href="#LiberationSans-30"/>
       <use x="55.615234375" xlink:href="#LiberationSans-2e"/>
       <use x="83.3984375" xlink:href="#LiberationSans-30"/>
       <use x="139.013671875" xlink:href="#LiberationSans-30"/>
      </g>
     </g>
    </g>
    <g id="xtick_2">
     <g id="line2d_4">
      <path clip-path="url(#p4f7b9c9270)" d="M 120.96 252 
L 120.96 28.8 
" style="fill:none;stroke:#ffffff;stroke-linecap:round;"/>
     </g>
     <g id="line2d_5"/>
     <g id="line2d_6"/>
     <g id="text_2">
      <!-- 0.02 -->
      <defs>
       <path d="M 5.03125 0 
L 5.03125 6.203125 
Q 7.515625 11.921875 11.109375 16.28125 
Q 14.703125 20.65625 18.65625 24.1875 
Q 22.609375 27.734375 26.484375 30.765625 
Q 30.375 33.796875 33.5 36.8125 
Q 36.625 39.84375 38.546875 43.15625 
Q 40.484375 46.484375 40.484375 50.6875 
Q 40.484375 53.609375 39.59375 55.828125 
Q 38.71875 58.0625 37.0625 59.5625 
Q 35.40625 61.078125 33.078125 61.828125 
Q 30.765625 62.59375 27.9375 62.59375 
Q 25.296875 62.59375 22.96875 61.859375 
Q 20.65625 61.140625 18.84375 59.671875 
Q 17.046875 58.203125 15.890625 56.03125 
Q 14.75 53.859375 14.40625 50.984375 
L 5.421875 51.8125 
Q 5.859375 55.515625 7.46875 58.78125 
Q 9.078125 62.0625 11.90625 64.53125 
Q 14.75 67 18.71875 68.40625 
Q 22.703125 69.828125 27.9375 69.828125 
Q 33.0625 69.828125 37.0625 68.609375 
Q 41.0625 67.390625 43.8125 64.984375 
Q 46.578125 62.59375 48.046875 59.078125 
Q 49.515625 55.5625 49.515625 50.984375 
Q 49.515625 47.515625 48.265625 44.390625 
Q 47.015625 41.265625 44.9375 38.421875 
Q 42.875 35.59375 40.140625 32.953125 
Q 37.40625 30.328125 34.421875 27.8125 
Q 31.453125 25.296875 28.421875 22.828125 
Q 25.390625 20.359375 22.71875 17.859375 
Q 20.0625 15.375 17.96875 12.8125 
Q 15.875 10.25 14.703125 7.46875 
L 50.59375 7.46875 
L 50.59375 0 
z
" id="LiberationSans-32"/>
      </defs>
      <g style="fill:#262626;" transform="translate(111.22953125 266.246875)scale(0.1 -0.1)">
       <use xlink:href="#LiberationSans-30"/>
       <use x="55.615234375" xlink:href="#LiberationSans-2e"/>
       <use x="83.3984375" xlink:href="#LiberationSans-30"/>
       <use x="139.013671875" xlink:href="#LiberationSans-32"/>
      </g>
     </g>
    </g>
    <g id="xtick_3">
     <g id="line2d_7">
      <path clip-path="url(#p4f7b9c9270)" d="M 187.92 252 
L 187.92 28.8 
" style="fill:none;stroke:#ffffff;stroke-linecap:round;"/>
     </g>
     <g id="line2d_8"/>
     <g id="line2d_9"/>
     <g id="text_3">
      <!-- 0.04 -->
      <defs>
       <path d="M 43.015625 15.578125 
L 43.015625 0 
L 34.71875 0 
L 34.71875 15.578125 
L 2.296875 15.578125 
L 2.296875 22.40625 
L 33.796875 68.796875 
L 43.015625 68.796875 
L 43.015625 22.515625 
L 52.6875 22.515625 
L 52.6875 15.578125 
z
M 34.71875 58.890625 
Q 34.625 58.640625 34.234375 57.9375 
Q 33.84375 57.234375 33.34375 56.34375 
Q 32.859375 55.46875 32.34375 54.5625 
Q 31.84375 53.65625 31.453125 53.078125 
L 13.8125 27.09375 
Q 13.578125 26.703125 13.109375 26.0625 
Q 12.640625 25.4375 12.15625 24.78125 
Q 11.671875 24.125 11.171875 23.484375 
Q 10.6875 22.859375 10.40625 22.515625 
L 34.71875 22.515625 
z
" id="LiberationSans-34"/>
      </defs>
      <g style="fill:#262626;" transform="translate(178.18953125 266.246875)scale(0.1 -0.1)">
       <use xlink:href="#LiberationSans-30"/>
       <use x="55.615234375" xlink:href="#LiberationSans-2e"/>
       <use x="83.3984375" xlink:href="#LiberationSans-30"/>
       <use x="139.013671875" xlink:href="#LiberationSans-34"/>
      </g>
     </g>
    </g>
    <g id="xtick_4">
     <g id="line2d_10">
      <path clip-path="url(#p4f7b9c9270)" d="M 254.88 252 
L 254.88 28.8 
" style="fill:none;stroke:#ffffff;stroke-linecap:round;"/>
     </g>
     <g id="line2d_11"/>
     <g id="line2d_12"/>
     <g id="text_4">
      <!-- 0.06 -->
      <defs>
       <path d="M 51.21875 22.515625 
Q 51.21875 17.328125 49.78125 13 
Q 48.34375 8.6875 45.53125 5.578125 
Q 42.71875 2.484375 38.5625 0.75 
Q 34.421875 -0.984375 29 -0.984375 
Q 23 -0.984375 18.5 1.3125 
Q 14.015625 3.609375 11.03125 7.921875 
Q 8.0625 12.25 6.5625 18.53125 
Q 5.078125 24.8125 5.078125 32.8125 
Q 5.078125 42 6.765625 48.921875 
Q 8.453125 55.859375 11.625 60.5 
Q 14.796875 65.140625 19.359375 67.484375 
Q 23.921875 69.828125 29.6875 69.828125 
Q 33.203125 69.828125 36.28125 69.09375 
Q 39.359375 68.359375 41.875 66.71875 
Q 44.390625 65.09375 46.28125 62.40625 
Q 48.1875 59.71875 49.3125 55.8125 
L 40.921875 54.296875 
Q 39.546875 58.734375 36.546875 60.71875 
Q 33.546875 62.703125 29.59375 62.703125 
Q 25.984375 62.703125 23.046875 60.984375 
Q 20.125 59.28125 18.0625 55.875 
Q 16.015625 52.484375 14.90625 47.359375 
Q 13.8125 42.234375 13.8125 35.40625 
Q 16.21875 39.84375 20.5625 42.15625 
Q 24.90625 44.484375 30.515625 44.484375 
Q 35.203125 44.484375 39.015625 42.96875 
Q 42.828125 41.453125 45.53125 38.59375 
Q 48.25 35.75 49.734375 31.671875 
Q 51.21875 27.59375 51.21875 22.515625 
M 42.28125 22.125 
Q 42.28125 25.6875 41.40625 28.5625 
Q 40.53125 31.453125 38.765625 33.46875 
Q 37.015625 35.5 34.421875 36.59375 
Q 31.84375 37.703125 28.421875 37.703125 
Q 26.03125 37.703125 23.578125 36.984375 
Q 21.140625 36.28125 19.15625 34.6875 
Q 17.1875 33.109375 15.9375 30.515625 
Q 14.703125 27.9375 14.703125 24.21875 
Q 14.703125 20.40625 15.671875 17.109375 
Q 16.65625 13.8125 18.484375 11.375 
Q 20.3125 8.9375 22.890625 7.515625 
Q 25.484375 6.109375 28.71875 6.109375 
Q 31.890625 6.109375 34.40625 7.203125 
Q 36.921875 8.296875 38.671875 10.375 
Q 40.4375 12.453125 41.359375 15.421875 
Q 42.28125 18.40625 42.28125 22.125 
" id="LiberationSans-36"/>
      </defs>
      <g style="fill:#262626;" transform="translate(245.14953125 266.246875)scale(0.1 -0.1)">
       <use xlink:href="#LiberationSans-30"/>
       <use x="55.615234375" xlink:href="#LiberationSans-2e"/>
       <use x="83.3984375" xlink:href="#LiberationSans-30"/>
       <use x="139.013671875" xlink:href="#LiberationSans-36"/>
      </g>
     </g>
    </g>
    <g id="xtick_5">
     <g id="line2d_13">
      <path clip-path="url(#p4f7b9c9270)" d="M 321.84 252 
L 321.84 28.8 
" style="fill:none;stroke:#ffffff;stroke-linecap:round;"/>
     </g>
     <g id="line2d_14"/>
     <g id="line2d_15"/>
     <g id="text_5">
      <!-- 0.08 -->
      <defs>
       <path d="M 51.265625 19.1875 
Q 51.265625 14.796875 49.875 11.109375 
Q 48.484375 7.421875 45.625 4.734375 
Q 42.78125 2.046875 38.328125 0.53125 
Q 33.890625 -0.984375 27.828125 -0.984375 
Q 21.78125 -0.984375 17.359375 0.53125 
Q 12.9375 2.046875 10.03125 4.703125 
Q 7.125 7.375 5.734375 11.0625 
Q 4.34375 14.75 4.34375 19.09375 
Q 4.34375 22.859375 5.484375 25.78125 
Q 6.640625 28.71875 8.5625 30.828125 
Q 10.5 32.953125 12.96875 34.25 
Q 15.4375 35.546875 18.0625 35.984375 
L 18.0625 36.1875 
Q 15.1875 36.859375 12.90625 38.375 
Q 10.640625 39.890625 9.09375 42.015625 
Q 7.5625 44.140625 6.75 46.71875 
Q 5.953125 49.3125 5.953125 52.203125 
Q 5.953125 55.8125 7.34375 59 
Q 8.734375 62.203125 11.46875 64.625 
Q 14.203125 67.046875 18.25 68.4375 
Q 22.3125 69.828125 27.640625 69.828125 
Q 33.25 69.828125 37.375 68.40625 
Q 41.5 67 44.203125 64.578125 
Q 46.921875 62.15625 48.234375 58.9375 
Q 49.5625 55.71875 49.5625 52.09375 
Q 49.5625 49.265625 48.75 46.671875 
Q 47.953125 44.09375 46.40625 41.96875 
Q 44.875 39.84375 42.59375 38.34375 
Q 40.328125 36.859375 37.359375 36.28125 
L 37.359375 36.078125 
Q 40.328125 35.59375 42.859375 34.296875 
Q 45.40625 33.015625 47.265625 30.890625 
Q 49.125 28.765625 50.1875 25.828125 
Q 51.265625 22.90625 51.265625 19.1875 
M 40.4375 51.609375 
Q 40.4375 54.203125 39.765625 56.34375 
Q 39.109375 58.5 37.59375 60.03125 
Q 36.078125 61.578125 33.640625 62.421875 
Q 31.203125 63.28125 27.640625 63.28125 
Q 24.171875 63.28125 21.78125 62.421875 
Q 19.390625 61.578125 17.84375 60.03125 
Q 16.3125 58.5 15.625 56.34375 
Q 14.9375 54.203125 14.9375 51.609375 
Q 14.9375 49.5625 15.46875 47.40625 
Q 16.015625 45.265625 17.421875 43.5 
Q 18.84375 41.75 21.328125 40.625 
Q 23.828125 39.5 27.734375 39.5 
Q 31.890625 39.5 34.40625 40.625 
Q 36.921875 41.75 38.25 43.5 
Q 39.59375 45.265625 40.015625 47.40625 
Q 40.4375 49.5625 40.4375 51.609375 
M 42.140625 20.015625 
Q 42.140625 22.515625 41.453125 24.828125 
Q 40.765625 27.15625 39.109375 28.9375 
Q 37.453125 30.71875 34.640625 31.8125 
Q 31.84375 32.90625 27.640625 32.90625 
Q 23.78125 32.90625 21.0625 31.8125 
Q 18.359375 30.71875 16.671875 28.90625 
Q 14.984375 27.09375 14.203125 24.71875 
Q 13.421875 22.359375 13.421875 19.828125 
Q 13.421875 16.65625 14.203125 14.03125 
Q 14.984375 11.421875 16.6875 9.546875 
Q 18.40625 7.671875 21.1875 6.640625 
Q 23.96875 5.609375 27.9375 5.609375 
Q 31.9375 5.609375 34.671875 6.640625 
Q 37.40625 7.671875 39.0625 9.546875 
Q 40.71875 11.421875 41.421875 14.078125 
Q 42.140625 16.75 42.140625 20.015625 
" id="LiberationSans-38"/>
      </defs>
      <g style="fill:#262626;" transform="translate(312.10953125 266.246875)scale(0.1 -0.1)">
       <use xlink:href="#LiberationSans-30"/>
       <use x="55.615234375" xlink:href="#LiberationSans-2e"/>
       <use x="83.3984375" xlink:href="#LiberationSans-30"/>
       <use x="139.013671875" xlink:href="#LiberationSans-38"/>
      </g>
     </g>
    </g>
    <g id="xtick_6">
     <g id="line2d_16">
      <path clip-path="url(#p4f7b9c9270)" d="M 388.8 252 
L 388.8 28.8 
" style="fill:none;stroke:#ffffff;stroke-linecap:round;"/>
     </g>
     <g id="line2d_17"/>
     <g id="line2d_18"/>
     <g id="text_6">
      <!-- 0.10 -->
      <defs>
       <path d="M 7.625 0 
L 7.625 7.46875 
L 25.140625 7.46875 
L 25.140625 60.40625 
L 9.625 49.3125 
L 9.625 57.625 
L 25.875 68.796875 
L 33.984375 68.796875 
L 33.984375 7.46875 
L 50.734375 7.46875 
L 50.734375 0 
z
" id="LiberationSans-31"/>
      </defs>
      <g style="fill:#262626;" transform="translate(379.06953125 266.246875)scale(0.1 -0.1)">
       <use xlink:href="#LiberationSans-30"/>
       <use x="55.615234375" xlink:href="#LiberationSans-2e"/>
       <use x="83.3984375" xlink:href="#LiberationSans-31"/>
       <use x="139.013671875" xlink:href="#LiberationSans-30"/>
      </g>
     </g>
    </g>
   </g>
   <g id="matplotlib.axis_2">
    <g id="ytick_1">
     <g id="line2d_19">
      <path clip-path="url(#p4f7b9c9270)" d="M 54 252 
L 388.8 252 
" style="fill:none;stroke:#ffffff;stroke-linecap:round;"/>
     </g>
     <g id="line2d_20"/>
     <g id="line2d_21"/>
     <g id="text_7">
      <!-- −2 -->
      <defs>
       <path d="M 4.9375 29.6875 
L 4.9375 36.8125 
L 53.515625 36.8125 
L 53.515625 29.6875 
z
" id="LiberationSans-2212"/>
      </defs>
      <g style="fill:#262626;" transform="translate(35.5984375 254.5859375)scale(0.1 -0.1)">
       <use xlink:href="#LiberationSans-2212"/>
       <use x="58.3984375" xlink:href="#LiberationSans-32"/>
      </g>
     </g>
    </g>
    <g id="ytick_2">
     <g id="line2d_22">
      <path clip-path="url(#p4f7b9c9270)" d="M 54 220.114286 
L 388.8 220.114286 
" style="fill:none;stroke:#ffffff;stroke-linecap:round;"/>
     </g>
     <g id="line2d_23"/>
     <g id="line2d_24"/>
     <g id="text_8">
      <!-- 0 -->
      <g style="fill:#262626;" transform="translate(41.4390625 222.700223214)scale(0.1 -0.1)">
       <use xlink:href="#LiberationSans-30"/>
      </g>
     </g>
    </g>
    <g id="ytick_3">
     <g id="line2d_25">
      <path clip-path="url(#p4f7b9c9270)" d="M 54 188.228571 
L 388.8 188.228571 
" style="fill:none;stroke:#ffffff;stroke-linecap:round;"/>
     </g>
     <g id="line2d_26"/>
     <g id="line2d_27"/>
     <g id="text_9">
      <!-- 2 -->
      <g style="fill:#262626;" transform="translate(41.4390625 190.814508929)scale(0.1 -0.1)">
       <use xlink:href="#LiberationSans-32"/>
      </g>
     </g>
    </g>
    <g id="ytick_4">
     <g id="line2d_28">
      <path clip-path="url(#p4f7b9c9270)" d="M 54 156.342857 
L 388.8 156.342857 
" style="fill:none;stroke:#ffffff;stroke-linecap:round;"/>
     </g>
     <g id="line2d_29"/>
     <g id="line2d_30"/>
     <g id="text_10">
      <!-- 4 -->
      <g style="fill:#262626;" transform="translate(41.4390625 158.928794643)scale(0.1 -0.1)">
       <use xlink:href="#LiberationSans-34"/>
      </g>
     </g>
    </g>
    <g id="ytick_5">
     <g id="line2d_31">
      <path clip-path="url(#p4f7b9c9270)" d="M 54 124.457143 
L 388.8 124.457143 
" style="fill:none;stroke:#ffffff;stroke-linecap:round;"/>
     </g>
     <g id="line2d_32"/>
     <g id="line2d_33"/>
     <g id="text_11">
      <!-- 6 -->
      <g style="fill:#262626;" transform="translate(41.4390625 127.043080357)scale(0.1 -0.1)">
       <use xlink:href="#LiberationSans-36"/>
      </g>
     </g>
    </g>
    <g id="ytick_6">
     <g id="line2d_34">
      <path clip-path="url(#p4f7b9c9270)" d="M 54 92.571429 
L 388.8 92.571429 
" style="fill:none;stroke:#ffffff;stroke-linecap:round;"/>
     </g>
     <g id="line2d_35"/>
     <g id="line2d_36"/>
     <g id="text_12">
      <!-- 8 -->
      <g style="fill:#262626;" transform="translate(41.4390625 95.1573660714)scale(0.1 -0.1)">
       <use xlink:href="#LiberationSans-38"/>
      </g>
     </g>
    </g>
    <g id="ytick_7">
     <g id="line2d_37">
      <path clip-path="url(#p4f7b9c9270)" d="M 54 60.685714 
L 388.8 60.685714 
" style="fill:none;stroke:#ffffff;stroke-linecap:round;"/>
     </g>
     <g id="line2d_38"/>
     <g id="line2d_39"/>
     <g id="text_13">
      <!-- 10 -->
      <g style="fill:#262626;" transform="translate(35.878125 63.2716517857)scale(0.1 -0.1)">
       <use xlink:href="#LiberationSans-31"/>
       <use x="55.615234375" xlink:href="#LiberationSans-30"/>
      </g>
     </g>
    </g>
    <g id="ytick_8">
     <g id="line2d_40">
      <path clip-path="url(#p4f7b9c9270)" d="M 54 28.8 
L 388.8 28.8 
" style="fill:none;stroke:#ffffff;stroke-linecap:round;"/>
     </g>
     <g id="line2d_41"/>
     <g id="line2d_42"/>
     <g id="text_14">
      <!-- 12 -->
      <g style="fill:#262626;" transform="translate(35.878125 31.3859375)scale(0.1 -0.1)">
       <use xlink:href="#LiberationSans-31"/>
       <use x="55.615234375" xlink:href="#LiberationSans-32"/>
      </g>
     </g>
    </g>
   </g>
   <g id="line2d_43">
    <path clip-path="url(#p4f7b9c9270)" d="M 54 220.009911 
L 55.7856 218.133545 
L 56.232 217.444479 
L 56.6784 217.264038 
L 57.4224 217.08645 
L 57.72 217.133386 
L 58.0176 216.973989 
L 58.1664 216.996851 
L 58.464 216.381856 
L 59.5056 213.022297 
L 60.1008 212.31496 
L 60.2496 212.33398 
L 60.5472 212.566491 
L 60.9936 212.519635 
L 61.44 212.782166 
L 61.7376 212.940973 
L 62.184 213.279615 
L 62.4816 213.189394 
L 62.928 212.604546 
L 63.5232 211.450682 
L 64.1184 210.174743 
L 64.416 210.000823 
L 64.7136 210.196585 
L 64.8624 210.368545 
L 65.0112 210.360063 
L 65.3088 209.770672 
L 65.7552 208.655644 
L 66.0528 208.426529 
L 66.3504 208.742979 
L 66.648 208.967247 
L 66.9456 209.011792 
L 67.2432 209.350912 
L 67.9872 210.124109 
L 68.2848 210.38047 
L 68.5824 210.425269 
L 68.88 210.322454 
L 69.1776 209.765681 
L 69.624 208.486363 
L 69.9216 208.303403 
L 70.368 208.177087 
L 70.6656 208.40134 
L 70.9632 208.703871 
L 71.2608 208.349525 
L 71.7072 207.342574 
L 72.3024 205.555986 
L 72.6 205.442967 
L 73.0464 205.53762 
L 73.4928 205.280238 
L 74.5344 206.854293 
L 74.6832 206.888506 
L 74.9808 206.574145 
L 76.32 204.487671 
L 76.4688 204.582451 
L 77.2128 205.794093 
L 77.5104 205.411305 
L 78.4032 204.017739 
L 80.04 206.201177 
L 80.1888 206.235375 
L 80.3376 206.110463 
L 80.6352 205.235933 
L 81.2304 203.313543 
L 81.528 202.61987 
L 81.6768 202.583998 
L 81.9744 203.210553 
L 82.4208 204.22015 
L 82.5696 204.293407 
L 82.8672 203.690751 
L 83.3136 202.577302 
L 84.2064 201.171142 
L 84.6528 201.330411 
L 84.8016 201.295497 
L 84.9504 201.409966 
L 85.248 201.930501 
L 85.5456 201.702039 
L 85.8432 201.217855 
L 86.5872 199.317785 
L 86.8848 199.797027 
L 87.48 200.924666 
L 88.0752 200.500267 
L 88.3728 200.338925 
L 88.5216 200.215368 
L 88.6704 200.274038 
L 89.4144 201.662979 
L 89.712 201.600483 
L 89.8608 201.714953 
L 90.1584 202.306593 
L 90.3072 202.363827 
L 90.456 202.204877 
L 90.7536 201.144837 
L 91.2 199.117065 
L 91.3488 199.182749 
L 91.7952 200.255066 
L 92.2416 201.0267 
L 92.5392 200.991147 
L 92.8368 200.720757 
L 93.1344 200.347534 
L 93.2832 200.323461 
L 93.5808 200.667986 
L 94.6224 202.709628 
L 94.92 203.231757 
L 95.0688 203.039326 
L 95.5152 201.246233 
L 95.8128 200.514137 
L 96.2592 201.056832 
L 96.5568 200.875083 
L 96.8544 200.418161 
L 97.3008 199.190561 
L 97.5984 198.248179 
L 97.7472 198.043951 
L 97.896 198.076953 
L 98.3424 198.994942 
L 98.4912 198.863573 
L 98.7888 197.814055 
L 99.2352 194.835132 
L 99.5328 193.377158 
L 99.8304 193.882546 
L 100.128 193.327416 
L 100.5744 192.056451 
L 101.1696 190.161802 
L 101.4672 189.711895 
L 101.9136 188.572778 
L 102.36 189.359239 
L 102.5088 188.899925 
L 102.8064 186.603994 
L 103.4016 179.955345 
L 103.5504 179.346009 
L 103.6992 179.489335 
L 103.9968 180.810201 
L 104.1456 180.990833 
L 104.2944 180.856116 
L 104.4432 180.282492 
L 105.1872 175.433313 
L 105.336 175.282971 
L 105.4848 175.313741 
L 105.7824 175.845595 
L 106.08 176.87646 
L 106.5264 178.832489 
L 106.6752 178.580592 
L 106.824 177.531552 
L 107.1216 172.935705 
L 107.568 166.04297 
L 107.7168 165.490231 
L 108.0144 166.740789 
L 108.1632 166.29678 
L 108.9072 160.398082 
L 109.056 160.110154 
L 109.2048 160.40717 
L 109.5024 162.428565 
L 109.9488 165.461374 
L 110.2464 165.924674 
L 110.3952 166.055565 
L 110.6928 167.540323 
L 110.8416 167.332587 
L 111.1392 164.410421 
L 111.8832 153.226985 
L 112.1808 154.746339 
L 112.3296 154.111176 
L 112.9248 147.089782 
L 113.0736 146.996198 
L 113.3712 148.145678 
L 113.6688 150.422955 
L 114.1152 153.840307 
L 114.5616 155.013382 
L 115.008 157.913866 
L 115.1568 157.580661 
L 115.4544 154.025244 
L 115.9008 146.05254 
L 116.0496 145.19593 
L 116.3472 146.611656 
L 116.6448 143.796785 
L 116.9424 141.099094 
L 117.0912 140.646955 
L 117.24 140.604228 
L 117.3888 140.764773 
L 117.5376 141.140546 
L 117.8352 143.414635 
L 118.4304 149.045811 
L 118.728 150.137738 
L 119.0256 150.528338 
L 119.1744 151.120137 
L 119.472 152.979552 
L 119.6208 152.12916 
L 119.9184 147.621477 
L 120.3648 140.060417 
L 120.5136 140.016096 
L 120.6624 141.497028 
L 120.8112 141.069281 
L 121.2576 137.421874 
L 121.5552 136.759289 
L 121.704 136.622659 
L 121.8528 136.880933 
L 122.0016 137.830968 
L 122.448 141.956501 
L 122.8944 145.368273 
L 123.192 146.984241 
L 123.3408 146.932107 
L 123.7872 145.841457 
L 123.936 146.344294 
L 124.0848 147.409596 
L 124.2336 146.092078 
L 124.9776 129.821914 
L 125.2752 131.85431 
L 125.424 131.510422 
L 126.168 127.017725 
L 126.3168 126.627285 
L 126.4656 126.988869 
L 127.0608 131.41891 
L 127.2096 131.594441 
L 127.3584 132.048653 
L 127.9536 136.006946 
L 128.4 134.246854 
L 128.5488 134.476272 
L 128.8464 136.529553 
L 128.9952 135.063607 
L 129.7392 118.843822 
L 130.0368 121.184393 
L 130.1856 120.545085 
L 130.632 117.549581 
L 130.9296 116.932911 
L 131.0784 117.094094 
L 131.2272 117.970154 
L 131.6736 122.520883 
L 131.9712 124.083442 
L 132.5664 128.61504 
L 133.0128 127.973659 
L 133.1616 128.097375 
L 133.3104 128.510455 
L 133.4592 129.456663 
L 133.7568 132.259896 
L 133.9056 131.723897 
L 134.2032 125.995947 
L 134.6496 115.310407 
L 134.7984 114.725942 
L 135.096 117.277755 
L 135.2448 116.443306 
L 135.6912 111.54869 
L 135.84 111.229992 
L 135.9888 111.759614 
L 136.2864 115.200401 
L 137.0304 123.979176 
L 137.4768 126.56989 
L 138.072 128.490207 
L 138.3696 130.818981 
L 139.1136 138.930228 
L 139.2624 139.390658 
L 139.4112 139.025885 
L 139.7088 136.072311 
L 140.1552 127.534433 
L 140.4528 122.550855 
L 140.6016 122.453445 
L 140.7504 124.487913 
L 140.8992 124.102255 
L 141.4944 116.777309 
L 141.792 116.11026 
L 141.9408 116.317677 
L 142.0896 116.940245 
L 142.3872 119.741246 
L 142.8336 124.720519 
L 143.28 129.996967 
L 143.8752 136.215797 
L 144.6192 141.090485 
L 144.9168 141.356253 
L 145.0656 141.778419 
L 145.3632 143.988897 
L 145.6608 145.628619 
L 145.8096 145.285051 
L 146.1072 143.03105 
L 146.4048 137.376756 
L 147.1488 118.666378 
L 147.2976 119.763406 
L 147.4464 119.738535 
L 148.6368 100.742621 
L 148.7856 100.075731 
L 148.9344 100.742143 
L 149.3808 105.297336 
L 149.8272 103.945063 
L 149.976 104.063518 
L 150.1248 104.721321 
L 150.4224 108.289651 
L 150.72 111.736018 
L 151.0176 113.445411 
L 151.6128 114.678591 
L 151.7616 115.094859 
L 151.9104 114.990115 
L 152.208 114.399591 
L 152.6544 117.654007 
L 152.952 115.353931 
L 153.2496 112.844366 
L 153.5472 111.738888 
L 153.9936 110.53313 
L 154.1424 109.214974 
L 154.7376 99.082651 
L 154.8864 100.693995 
L 155.0352 98.177734 
L 155.4816 86.368701 
L 155.7792 84.690077 
L 155.928 84.553287 
L 156.0768 84.692628 
L 156.2256 85.496626 
L 156.8208 92.43432 
L 157.1184 94.661697 
L 157.5648 101.367103 
L 158.0112 107.069703 
L 158.6064 111.458931 
L 159.3504 119.559816 
L 159.648 122.663731 
L 159.9456 125.606145 
L 160.0944 126.092242 
L 160.2432 126.050631 
L 160.392 125.72747 
L 160.5408 125.723643 
L 160.8384 128.208178 
L 160.9872 128.016864 
L 161.136 127.337858 
L 161.2848 127.294812 
L 161.5824 130.027737 
L 161.88 132.795735 
L 162.1776 133.793121 
L 162.3264 134.089179 
L 162.4752 134.051554 
L 162.624 133.016225 
L 162.9216 125.559113 
L 163.2192 116.62362 
L 163.368 117.196766 
L 163.5168 116.395956 
L 163.9632 104.760062 
L 164.2608 103.193357 
L 164.5584 102.075603 
L 164.7072 102.190711 
L 164.856 103.600697 
L 165.1536 107.692591 
L 165.4512 110.45501 
L 166.4928 124.564279 
L 166.7904 125.326666 
L 166.9392 125.678525 
L 167.088 126.674954 
L 167.5344 131.032934 
L 168.1296 133.078243 
L 168.576 134.535101 
L 168.8736 136.962401 
L 169.0224 136.18423 
L 169.4688 130.36445 
L 169.7664 132.427934 
L 169.9152 132.420122 
L 170.5104 131.570686 
L 170.6592 132.444514 
L 170.808 133.994479 
L 171.1056 134.340439 
L 171.4032 136.452708 
L 171.552 135.820733 
L 171.8496 131.389735 
L 172.1472 121.363113 
L 172.4448 107.911805 
L 172.5936 105.274059 
L 172.7424 107.647313 
L 172.8912 104.96987 
L 173.4864 85.883241 
L 173.784 79.622321 
L 173.9328 78.458174 
L 174.0816 79.752893 
L 174.3792 83.453549 
L 174.6768 84.695657 
L 174.9744 88.06518 
L 175.5696 97.396056 
L 175.7184 98.056728 
L 176.016 98.272594 
L 176.1648 99.03833 
L 176.6112 104.017443 
L 176.9088 108.250113 
L 177.0576 109.110708 
L 177.504 109.803106 
L 177.9504 111.586953 
L 178.0992 112.797653 
L 178.3968 115.962789 
L 178.8432 113.952075 
L 178.992 114.48361 
L 179.2896 117.910846 
L 179.5872 120.77785 
L 179.736 121.212453 
L 179.8848 122.131718 
L 180.0336 124.146257 
L 180.48 125.975381 
L 180.7776 128.203714 
L 180.9264 128.48112 
L 181.0752 128.231774 
L 181.224 126.694563 
L 181.5216 118.095624 
L 182.1168 92.180191 
L 182.4144 91.767749 
L 182.712 77.556605 
L 183.0096 63.543471 
L 183.3072 58.203411 
L 183.456 57.989777 
L 183.6048 59.630297 
L 183.9024 64.037381 
L 184.2 63.246137 
L 184.3488 63.776715 
L 184.6464 69.129211 
L 185.2416 78.446057 
L 185.688 81.217085 
L 185.9856 83.164665 
L 186.7296 91.409354 
L 186.8784 91.46898 
L 187.3248 90.259236 
L 187.4736 90.346762 
L 187.6224 91.01429 
L 187.7712 92.556283 
L 188.0688 96.003607 
L 188.2176 94.947233 
L 188.664 90.477494 
L 188.8128 90.298774 
L 188.9616 91.299189 
L 189.1104 94.167946 
L 189.2592 94.755919 
L 189.408 94.100667 
L 189.5568 94.154076 
L 189.8544 97.477843 
L 190.0032 97.516584 
L 190.152 98.099774 
L 190.5984 103.55526 
L 190.7472 104.102897 
L 190.896 103.897872 
L 191.0448 102.866529 
L 191.3424 98.254579 
L 192.0864 80.145725 
L 192.2352 81.167184 
L 192.384 81.406327 
L 192.6816 69.156473 
L 192.9792 56.980594 
L 193.128 54.987737 
L 193.2768 55.029189 
L 193.4256 56.259977 
L 194.0208 63.93726 
L 194.1696 64.199998 
L 194.3184 65.415801 
L 194.9136 74.434037 
L 195.5088 79.672222 
L 195.8064 81.984574 
L 196.104 86.409195 
L 196.4016 90.261946 
L 196.5504 90.840194 
L 196.6992 90.636285 
L 196.9968 88.074427 
L 197.2944 85.826165 
L 197.4432 86.552841 
L 197.8896 92.596778 
L 198.0384 93.196707 
L 198.1872 93.269088 
L 198.336 93.037279 
L 198.4848 92.500642 
L 198.9312 89.632363 
L 199.2288 92.762743 
L 199.5264 92.417261 
L 200.4192 102.750783 
L 200.7168 105.700053 
L 200.8656 106.132104 
L 201.0144 105.4971 
L 201.9072 94.709685 
L 202.3536 84.737746 
L 202.5024 86.129717 
L 202.6512 85.391722 
L 203.3952 61.673693 
L 203.544 62.156283 
L 203.8416 66.604022 
L 204.1392 72.492675 
L 206.8176 99.111189 
L 207.4128 95.929154 
L 207.5616 96.626973 
L 207.8592 100.079877 
L 208.1568 104.641606 
L 208.4544 106.487311 
L 208.9008 108.263505 
L 209.0496 107.917545 
L 209.3472 106.387987 
L 209.7936 109.279543 
L 209.9424 109.747147 
L 211.1328 124.819365 
L 211.2816 124.732635 
L 212.0256 118.14425 
L 212.472 112.865889 
L 212.9184 103.440312 
L 213.0672 105.669761 
L 213.216 103.183791 
L 213.8112 80.913852 
L 213.96 79.563492 
L 214.1088 79.529534 
L 214.2576 80.715523 
L 214.704 86.702385 
L 215.0016 87.526471 
L 215.1504 88.883846 
L 215.448 92.936042 
L 215.7456 93.509825 
L 216.6384 98.360439 
L 217.0848 103.006666 
L 217.3824 101.286273 
L 217.68 100.077166 
L 217.8288 100.20168 
L 218.1264 101.43486 
L 218.424 104.987726 
L 218.7216 108.031855 
L 219.0192 110.520535 
L 219.4656 116.926534 
L 219.6144 117.439575 
L 220.0608 115.559275 
L 220.3584 119.155186 
L 221.4 132.257345 
L 221.8464 136.12843 
L 221.9952 135.568677 
L 222.888 127.157863 
L 223.1856 126.116635 
L 223.3344 124.202695 
L 223.7808 116.522542 
L 223.9296 117.529334 
L 224.0784 114.021267 
L 224.6736 91.2681 
L 224.8224 89.972902 
L 225.12 93.282002 
L 225.5664 94.206369 
L 225.7152 95.425041 
L 226.1616 100.39969 
L 226.4592 100.423764 
L 226.9056 101.900073 
L 227.2032 103.361554 
L 227.5008 107.115778 
L 227.7984 110.142211 
L 227.9472 109.904503 
L 228.2448 108.226677 
L 228.3936 108.067567 
L 228.5424 108.498343 
L 228.84 110.631338 
L 229.2864 115.866494 
L 229.584 118.599259 
L 230.0304 123.731583 
L 230.4768 127.736748 
L 230.7744 125.997861 
L 231.072 124.83467 
L 231.2208 124.783334 
L 231.3696 125.103466 
L 231.5184 126.193001 
L 231.816 129.289263 
L 232.1136 131.027194 
L 232.56 134.886163 
L 232.7088 135.172497 
L 232.8576 134.522506 
L 233.304 130.704989 
L 233.4528 130.496616 
L 233.8992 131.178173 
L 234.048 130.808299 
L 234.1968 129.393849 
L 234.792 118.366653 
L 234.9408 118.303041 
L 235.2384 106.707482 
L 235.536 94.10832 
L 235.6848 91.005521 
L 235.8336 90.849281 
L 235.9824 93.699545 
L 236.1312 94.243356 
L 236.28 93.822305 
L 236.4288 93.832509 
L 236.5776 94.941015 
L 237.024 100.844177 
L 237.1728 101.318158 
L 237.4704 101.651364 
L 238.0656 103.409702 
L 238.2144 104.735191 
L 238.512 108.696194 
L 238.6608 109.236497 
L 238.8096 109.167146 
L 239.256 107.490276 
L 239.4048 107.546873 
L 239.5536 108.379569 
L 240.5952 121.253745 
L 240.8928 124.388748 
L 241.1904 125.412439 
L 241.6368 129.300264 
L 241.9344 130.556242 
L 242.0832 129.985488 
L 242.5296 124.532393 
L 242.6784 125.175209 
L 242.976 128.124 
L 243.1248 128.641505 
L 243.2736 128.656013 
L 243.72 127.042437 
L 243.8688 127.128528 
L 244.3152 128.363781 
L 244.6128 130.564851 
L 245.0592 134.422385 
L 245.208 134.90099 
L 245.3568 134.227882 
L 245.5056 131.696157 
L 246.1008 116.772526 
L 246.2496 117.30438 
L 246.3984 113.019099 
L 246.9936 86.102933 
L 247.1424 86.125731 
L 247.2912 88.778463 
L 247.44 89.294215 
L 247.5888 89.168266 
L 247.7376 89.498283 
L 247.8864 90.82728 
L 248.3328 97.175885 
L 248.7792 99.81379 
L 248.928 100.050223 
L 249.0768 100.054846 
L 249.2256 100.339586 
L 249.3744 101.537373 
L 249.672 105.729706 
L 250.1184 108.738921 
L 250.8624 112.737549 
L 252.3504 131.341109 
L 252.648 133.166247 
L 253.2432 140.007168 
L 253.392 140.643607 
L 253.5408 139.69692 
L 254.136 131.343182 
L 254.2848 131.984722 
L 254.4336 133.531339 
L 254.5824 133.230657 
L 255.3264 125.823286 
L 255.4752 126.561759 
L 256.368 135.792355 
L 256.6656 137.946394 
L 256.8144 137.938901 
L 256.9632 136.854946 
L 257.2608 131.401054 
L 257.856 113.45147 
L 258.0048 115.817071 
L 258.1536 112.482144 
L 258.7488 84.780473 
L 258.8976 83.690141 
L 259.0464 85.192915 
L 259.344 89.59123 
L 259.7904 94.176874 
L 260.3856 102.773582 
L 261.7248 115.914322 
L 262.0224 118.862157 
L 262.7664 122.700559 
L 263.6592 133.587458 
L 264.1056 137.769588 
L 264.2544 138.026268 
L 264.4032 138.808265 
L 264.7008 141.062426 
L 264.8496 141.750201 
L 265.296 145.135029 
L 265.4448 144.013449 
L 265.8912 137.254634 
L 266.04 136.493681 
L 266.1888 136.981692 
L 266.3376 138.789453 
L 266.4864 138.983477 
L 266.784 136.015236 
L 267.0816 133.073938 
L 267.2304 132.635191 
L 267.3792 133.026269 
L 268.4208 141.535769 
L 268.5696 142.021867 
L 268.7184 141.509782 
L 269.016 137.815822 
L 269.4624 127.641888 
L 269.9088 115.074612 
L 270.0576 115.340379 
L 270.2064 114.956157 
L 270.504 102.517221 
L 270.8016 89.526343 
L 270.9504 86.642121 
L 271.0992 86.285957 
L 271.6944 92.802919 
L 271.992 94.816023 
L 273.1824 108.542983 
L 273.6288 111.470729 
L 274.3728 119.420635 
L 275.1168 122.00545 
L 275.5632 127.064119 
L 276.1584 134.240318 
L 276.456 136.222174 
L 276.7536 138.945852 
L 277.0512 139.780461 
L 277.3488 140.709451 
L 277.4976 140.047663 
L 278.0928 134.24797 
L 278.2416 134.02493 
L 278.3904 134.573842 
L 278.688 137.255271 
L 278.8368 137.382336 
L 279.1344 135.685378 
L 279.432 134.035133 
L 279.5808 134.636338 
L 279.8784 137.448021 
L 280.3248 139.185154 
L 280.6224 141.830712 
L 280.7712 141.997474 
L 281.0688 140.190989 
L 281.5152 135.773064 
L 281.9616 129.041352 
L 282.408 120.839071 
L 282.5568 122.447865 
L 282.7056 120.982716 
L 283.4496 95.949401 
L 283.5984 95.911457 
L 284.9376 112.634398 
L 285.384 118.452425 
L 286.2768 124.456505 
L 286.5744 127.963774 
L 286.7232 128.543935 
L 286.872 128.516673 
L 287.1696 128.041097 
L 287.3184 128.217106 
L 287.616 129.95137 
L 289.2528 143.395344 
L 289.5504 143.372865 
L 289.848 144.648931 
L 289.9968 145.2825 
L 290.1456 145.356315 
L 290.8896 143.198131 
L 291.0384 143.707665 
L 291.336 145.871748 
L 291.4848 145.406695 
L 291.9312 142.303418 
L 292.08 142.43941 
L 292.3776 144.931917 
L 292.824 147.940174 
L 293.1216 149.991382 
L 293.4192 151.900858 
L 293.568 151.648323 
L 294.7584 144.452515 
L 295.056 139.707123 
L 295.3536 134.61083 
L 295.5024 135.827907 
L 295.6512 134.262957 
L 296.3952 109.831485 
L 296.544 108.733659 
L 296.6928 108.952077 
L 297.288 114.506409 
L 297.5856 115.90938 
L 298.4784 124.474521 
L 298.776 125.354885 
L 299.0736 127.575725 
L 299.52 131.900385 
L 299.6688 132.062045 
L 299.8176 131.99381 
L 299.9664 132.212227 
L 300.264 133.954143 
L 301.1568 141.158083 
L 301.9008 148.640544 
L 302.0496 149.277939 
L 302.3472 149.703135 
L 302.6448 152.014371 
L 302.9424 153.874265 
L 303.6864 154.150874 
L 303.984 153.773506 
L 304.1328 154.147845 
L 304.4304 156.214517 
L 304.5792 156.247519 
L 305.1744 153.235275 
L 305.3232 153.652341 
L 306.216 159.497311 
L 306.3648 160.083211 
L 306.5136 160.213783 
L 306.6624 160.039368 
L 306.96 158.681834 
L 307.2576 157.429044 
L 307.4064 157.585125 
L 307.704 158.249304 
L 307.8528 158.01606 
L 308.0016 157.249687 
L 308.2992 153.751983 
L 308.5968 149.114685 
L 308.7456 149.167455 
L 308.8944 149.036565 
L 309.192 140.265123 
L 309.6384 127.126296 
L 309.7872 125.657481 
L 309.936 125.609493 
L 310.5312 130.009402 
L 310.8288 131.362951 
L 311.2752 136.263626 
L 311.8704 141.389254 
L 312.3168 144.663598 
L 312.912 149.861607 
L 313.656 152.660695 
L 314.9952 160.49916 
L 315.5904 164.709828 
L 315.888 165.813871 
L 316.1856 167.25367 
L 316.3344 167.434622 
L 316.632 166.923494 
L 316.7808 167.124852 
L 317.2272 168.753893 
L 317.376 168.811606 
L 317.5248 169.008182 
L 318.12 171.535443 
L 318.2688 171.683871 
L 318.5664 171.616433 
L 318.7152 171.764702 
L 318.864 172.357935 
L 319.3104 174.907039 
L 319.7568 177.238044 
L 319.9056 177.481491 
L 320.0544 177.382167 
L 320.5008 176.454612 
L 320.6496 176.461627 
L 321.096 176.741902 
L 321.2448 176.63381 
L 321.3936 176.304271 
L 321.6912 174.60827 
L 322.4352 167.578107 
L 322.584 168.155877 
L 322.7328 166.099886 
L 323.4768 147.524225 
L 323.6256 146.947731 
L 323.7744 147.272009 
L 326.6016 168.263969 
L 327.9408 171.505152 
L 328.0896 171.589171 
L 328.2384 171.844894 
L 328.8336 173.669076 
L 328.9824 173.927988 
L 329.28 175.222389 
L 329.4288 175.291581 
L 329.5776 175.505215 
L 329.8752 176.373303 
L 330.024 176.386695 
L 330.3216 176.004545 
L 330.6192 176.534007 
L 331.0656 177.514812 
L 332.8512 186.673824 
L 333.5952 188.829458 
L 334.0416 188.584575 
L 334.3392 188.916825 
L 334.6368 189.154533 
L 335.232 188.694262 
L 335.5296 188.59175 
L 335.6784 188.375565 
L 335.8272 187.954354 
L 336.1248 185.863449 
L 336.5712 180.791866 
L 336.72 180.889596 
L 336.8688 180.57042 
L 337.1664 174.775351 
L 337.6128 165.9285 
L 337.9104 164.078491 
L 338.0592 163.898018 
L 338.208 164.231064 
L 339.3984 170.891033 
L 339.696 171.811893 
L 340.1424 174.46877 
L 341.3328 181.235715 
L 342.0768 182.871453 
L 342.2256 182.783607 
L 342.672 181.492077 
L 342.8208 181.436436 
L 343.1184 181.836602 
L 343.8624 184.003555 
L 344.16 184.483275 
L 344.3088 184.289091 
L 344.6064 183.493224 
L 344.7552 183.445555 
L 345.0528 184.295309 
L 345.4992 186.069271 
L 345.7968 186.19506 
L 345.9456 186.263774 
L 346.0944 186.606386 
L 346.392 187.669455 
L 346.5408 187.657977 
L 347.136 187.044814 
L 347.2848 187.303407 
L 347.88 189.244929 
L 348.0288 189.300569 
L 348.4752 188.884461 
L 348.7728 189.111327 
L 349.5168 189.915007 
L 349.8144 190.18205 
L 350.4096 191.498611 
L 350.5584 191.420969 
L 350.7072 191.104185 
L 351.0048 189.511493 
L 351.6 184.641588 
L 351.7488 185.425817 
L 351.8976 184.513089 
L 352.344 175.36986 
L 352.6416 170.99227 
L 352.9392 169.381723 
L 353.088 169.280486 
L 353.2368 169.687507 
L 353.9808 173.619494 
L 355.0224 177.681893 
L 355.4688 179.819671 
L 356.064 182.398428 
L 356.6592 185.101858 
L 356.808 185.367466 
L 356.9568 185.385641 
L 357.2544 184.796712 
L 357.552 184.290048 
L 357.7008 184.408025 
L 358.1472 185.487357 
L 358.4448 186.663461 
L 359.04 187.477344 
L 359.1888 187.518477 
L 359.6352 186.990768 
L 359.784 187.245535 
L 360.2304 188.774933 
L 360.3792 188.882069 
L 360.6768 188.813196 
L 360.8256 188.970552 
L 361.1232 189.888382 
L 361.272 189.826046 
L 361.8672 188.571821 
L 362.016 188.621722 
L 362.1648 188.900244 
L 362.4624 189.818553 
L 362.6112 189.683198 
L 363.2064 188.645637 
L 363.504 188.440452 
L 364.3968 188.972465 
L 364.6944 189.596309 
L 365.2896 191.814917 
L 365.4384 191.921097 
L 365.5872 191.829744 
L 365.736 191.566049 
L 366.0336 190.12625 
L 366.6288 184.616079 
L 366.7776 184.765464 
L 366.9264 184.68288 
L 367.224 180.36125 
L 367.3728 177.399545 
L 367.3728 177.399545 
" style="fill:none;stroke:#4c72b0;stroke-linecap:round;stroke-width:1.75;"/>
   </g>
   <g id="line2d_44">
    <path clip-path="url(#p4f7b9c9270)" d="M 54 226.966025 
L 55.0416 219.847112 
L 55.1904 219.633685 
L 55.3392 219.693952 
L 55.6368 220.418297 
L 56.0832 221.777387 
L 56.232 221.970643 
L 56.3808 221.939789 
L 56.6784 221.171367 
L 57.5712 217.100755 
L 57.72 216.972197 
L 57.8688 217.131746 
L 58.1664 218.236642 
L 58.9104 222.158386 
L 59.0592 222.424625 
L 59.208 222.373427 
L 59.5056 221.324582 
L 60.696 214.399776 
L 60.8448 214.362318 
L 61.1424 214.869064 
L 61.5888 215.916005 
L 61.7376 216.011672 
L 61.8864 215.881635 
L 62.184 214.891675 
L 63.2256 209.535011 
L 63.3744 209.541864 
L 63.5232 209.856034 
L 63.8208 211.242715 
L 64.5648 215.176668 
L 64.7136 215.351317 
L 64.8624 215.214 
L 65.16 214.088604 
L 66.0528 209.144847 
L 66.2016 208.882648 
L 66.3504 208.860827 
L 66.648 209.374161 
L 67.0944 210.409519 
L 67.2432 210.491335 
L 67.392 210.334987 
L 67.6896 209.230716 
L 68.2848 204.963922 
L 68.7312 202.577678 
L 68.88 202.344712 
L 69.0288 202.436831 
L 69.3264 203.478421 
L 70.0704 207.398013 
L 70.2192 207.703498 
L 70.368 207.723392 
L 70.5168 207.460729 
L 70.8144 206.250413 
L 71.4096 203.25519 
L 71.7072 202.688513 
L 71.856 202.75988 
L 72.1536 203.464073 
L 72.6 204.812469 
L 72.7488 204.994129 
L 72.8976 204.924395 
L 73.0464 204.567769 
L 73.344 203.007896 
L 74.3856 195.844684 
L 74.5344 195.674762 
L 74.6832 195.819041 
L 74.9808 196.861118 
L 75.576 199.601749 
L 75.8736 199.980732 
L 76.0224 199.78172 
L 76.32 198.7335 
L 76.9152 196.071634 
L 77.2128 195.678415 
L 77.3616 195.851651 
L 77.6592 196.81064 
L 78.2544 199.055233 
L 78.4032 199.177548 
L 78.552 198.999631 
L 78.8496 197.713542 
L 79.4448 192.865808 
L 79.8912 190.036984 
L 80.1888 189.551845 
L 80.3376 189.73865 
L 80.6352 190.69266 
L 81.0816 192.273597 
L 81.2304 192.508782 
L 81.3792 192.510484 
L 81.528 192.268149 
L 81.8256 191.161152 
L 82.4208 188.419512 
L 82.7184 188.036825 
L 82.8672 188.247495 
L 83.1648 189.374708 
L 83.76 192.364557 
L 83.9088 192.732202 
L 84.0576 192.803607 
L 84.2064 192.550687 
L 84.504 191.122371 
L 85.5456 184.098331 
L 85.6944 183.858878 
L 85.8432 183.883819 
L 86.1408 184.512795 
L 86.5872 185.682309 
L 86.736 185.804599 
L 86.8848 185.700957 
L 87.1824 184.786623 
L 88.0752 180.367855 
L 88.224 180.20682 
L 88.3728 180.34371 
L 88.6704 181.434675 
L 89.4144 185.498242 
L 89.5632 185.816858 
L 89.712 185.822904 
L 89.8608 185.507994 
L 90.1584 184.041952 
L 91.0512 178.605249 
L 91.2 178.332643 
L 91.3488 178.306895 
L 91.6464 178.809035 
L 92.0928 179.780673 
L 92.2416 179.834491 
L 92.3904 179.655266 
L 92.688 178.548394 
L 93.7296 172.718605 
L 93.8784 172.669721 
L 94.0272 172.935658 
L 94.3248 174.253069 
L 95.0688 178.198932 
L 95.2176 178.406763 
L 95.3664 178.311116 
L 95.664 177.289535 
L 96.5568 172.717679 
L 96.7056 172.511527 
L 96.8544 172.540766 
L 97.152 173.137283 
L 97.5984 174.23802 
L 97.7472 174.32344 
L 97.896 174.161057 
L 98.1936 173.015797 
L 98.7888 168.564166 
L 99.2352 165.982318 
L 99.384 165.68149 
L 99.5328 165.707368 
L 99.8304 166.628248 
L 100.7232 170.679427 
L 100.872 170.705105 
L 101.0208 170.458256 
L 101.3184 169.307511 
L 101.9136 166.519819 
L 102.2112 166.084207 
L 102.36 166.223726 
L 102.6576 167.06296 
L 103.104 168.590643 
L 103.2528 168.820599 
L 103.4016 168.79142 
L 103.5504 168.466593 
L 103.848 166.940957 
L 104.8896 159.585633 
L 105.0384 159.358649 
L 105.1872 159.442645 
L 105.4848 160.36133 
L 106.08 162.888778 
L 106.2288 163.167679 
L 106.3776 163.198806 
L 106.5264 162.97788 
L 106.824 161.913369 
L 107.4192 159.332084 
L 107.568 159.056459 
L 107.7168 159.031969 
L 107.8656 159.262928 
L 108.1632 160.354968 
L 108.7584 162.899614 
L 108.9072 163.095031 
L 109.056 162.986164 
L 109.3536 161.81983 
L 109.9488 157.10519 
L 110.3952 154.267019 
L 110.6928 153.728269 
L 110.8416 153.876903 
L 111.1392 154.738219 
L 111.5856 156.160285 
L 111.7344 156.342826 
L 111.8832 156.294253 
L 112.1808 155.497313 
L 113.0736 151.695254 
L 113.2224 151.649854 
L 113.3712 151.886502 
L 113.6688 153.09545 
L 114.4128 156.796633 
L 114.5616 156.950523 
L 114.7104 156.78081 
L 115.008 155.513933 
L 116.0496 148.851953 
L 116.1984 148.627298 
L 116.3472 148.657348 
L 116.6448 149.269282 
L 117.0912 150.355776 
L 117.24 150.438724 
L 117.3888 150.291693 
L 117.6864 149.283246 
L 118.5792 144.619707 
L 118.728 144.437727 
L 118.8768 144.562614 
L 119.1744 145.65972 
L 120.0672 150.311687 
L 120.216 150.393069 
L 120.3648 150.158862 
L 120.6624 148.863814 
L 121.5552 143.902762 
L 121.704 143.690154 
L 121.8528 143.716419 
L 122.1504 144.296574 
L 122.5968 145.316543 
L 122.7456 145.368232 
L 122.8944 145.178247 
L 123.192 144.02634 
L 124.2336 137.906295 
L 124.3824 137.818885 
L 124.5312 138.05196 
L 124.8288 139.326368 
L 125.5728 143.338744 
L 125.7216 143.591602 
L 125.8704 143.550584 
L 126.168 142.663271 
L 127.0608 138.605199 
L 127.2096 138.486885 
L 127.3584 138.601145 
L 127.656 139.354526 
L 128.1024 140.64167 
L 128.2512 140.772579 
L 128.4 140.646231 
L 128.6976 139.543238 
L 129.144 136.273066 
L 129.5904 133.031168 
L 129.888 132.036886 
L 130.0368 132.021367 
L 130.1856 132.313516 
L 130.4832 133.599449 
L 131.0784 136.519357 
L 131.2272 136.827104 
L 131.376 136.869477 
L 131.5248 136.649306 
L 131.8224 135.581152 
L 132.4176 133.061407 
L 132.5664 132.808067 
L 132.7152 132.798438 
L 132.864 133.030327 
L 133.1616 134.060158 
L 133.608 135.867443 
L 133.7568 136.183075 
L 133.9056 136.233422 
L 134.0544 135.980668 
L 134.352 134.572433 
L 135.3936 127.306748 
L 135.5424 127.057445 
L 135.6912 127.11378 
L 135.9888 127.967446 
L 136.584 130.370401 
L 136.7328 130.627696 
L 136.8816 130.643392 
L 137.0304 130.414139 
L 137.328 129.357245 
L 137.9232 126.900941 
L 138.072 126.680343 
L 138.2208 126.720063 
L 138.5184 127.564356 
L 139.4112 131.527027 
L 139.56 131.519922 
L 139.7088 131.187866 
L 140.0064 129.636411 
L 140.8992 123.402039 
L 141.1968 122.890637 
L 141.3456 123.03973 
L 141.6432 123.880496 
L 142.0896 125.236098 
L 142.2384 125.392115 
L 142.3872 125.317007 
L 142.6848 124.472097 
L 143.5776 120.652947 
L 143.7264 120.633894 
L 143.8752 120.907103 
L 144.1728 122.2206 
L 144.9168 126.346715 
L 145.0656 126.605392 
L 145.2144 126.543526 
L 145.512 125.494452 
L 146.5536 119.453042 
L 146.7024 119.284606 
L 146.8512 119.361322 
L 147.1488 120.038291 
L 147.5952 121.157183 
L 147.744 121.236017 
L 147.8928 121.078802 
L 148.1904 120.035962 
L 149.0832 115.251268 
L 149.232 115.061942 
L 149.3808 115.187023 
L 149.6784 116.311722 
L 150.5712 121.299498 
L 150.72 121.471029 
L 150.8688 121.334188 
L 151.1664 120.249772 
L 152.0592 115.938163 
L 152.208 115.821764 
L 152.3568 115.937798 
L 152.6544 116.674929 
L 153.1008 117.865229 
L 153.2496 117.954977 
L 153.3984 117.793593 
L 153.696 116.671596 
L 154.7376 110.460343 
L 154.8864 110.353543 
L 155.0352 110.570723 
L 155.3328 111.830309 
L 156.0768 115.959158 
L 156.2256 116.266205 
L 156.3744 116.289534 
L 156.5232 116.040095 
L 156.8208 114.912075 
L 157.416 112.369351 
L 157.5648 112.124909 
L 157.7136 112.120657 
L 158.0112 112.770246 
L 158.7552 115.119436 
L 158.904 115.068487 
L 159.0528 114.72326 
L 159.3504 113.195482 
L 160.2432 107.040013 
L 160.392 106.686117 
L 160.5408 106.655052 
L 160.6896 106.930279 
L 160.9872 108.185199 
L 161.5824 111.097561 
L 161.88 111.489568 
L 162.0288 111.304151 
L 162.3264 110.334262 
L 162.9216 108.121734 
L 163.0704 107.965636 
L 163.2192 108.059966 
L 163.5168 108.956471 
L 164.2608 112.262136 
L 164.4096 112.424838 
L 164.5584 112.278683 
L 164.856 111.060889 
L 165.8976 104.146957 
L 166.0464 103.909003 
L 166.1952 103.969505 
L 166.4928 104.815467 
L 167.088 107.180331 
L 167.2368 107.431767 
L 167.3856 107.445662 
L 167.5344 107.219791 
L 167.832 106.189183 
L 168.4272 103.884963 
L 168.576 103.726071 
L 168.7248 103.837354 
L 169.0224 104.853517 
L 169.9152 109.504852 
L 170.064 109.623837 
L 170.2128 109.416604 
L 170.5104 108.104043 
L 171.4032 102.404604 
L 171.7008 101.993394 
L 171.8496 102.178229 
L 172.296 103.604578 
L 172.5936 104.44048 
L 172.7424 104.594284 
L 172.8912 104.514557 
L 173.1888 103.658271 
L 174.0816 99.882432 
L 174.2304 99.895024 
L 174.3792 100.209578 
L 174.6768 101.637079 
L 175.4208 106.227153 
L 175.5696 106.6034 
L 175.7184 106.664312 
L 175.8672 106.40925 
L 176.1648 105.10579 
L 176.9088 100.978079 
L 177.2064 100.566465 
L 177.3552 100.72456 
L 177.8016 102.03576 
L 178.0992 102.788759 
L 178.248 102.894712 
L 178.3968 102.756854 
L 178.6944 101.732688 
L 179.5872 96.93014 
L 179.736 96.742783 
L 179.8848 96.875525 
L 180.1824 98.038277 
L 181.0752 103.381229 
L 181.224 103.648071 
L 181.3728 103.615183 
L 181.6704 102.759869 
L 182.4144 99.441806 
L 182.5632 99.205603 
L 182.712 99.211153 
L 183.0096 99.862817 
L 183.6048 101.8565 
L 183.7536 102.017282 
L 183.9024 101.917163 
L 184.2 100.888055 
L 185.2416 94.751855 
L 185.3904 94.64027 
L 185.5392 94.853777 
L 185.8368 96.116304 
L 186.5808 100.377329 
L 186.8784 100.827459 
L 187.0272 100.652894 
L 187.3248 99.702611 
L 187.92 97.60633 
L 188.0688 97.486808 
L 188.2176 97.610535 
L 188.5152 98.520209 
L 189.2592 101.480412 
L 189.408 101.534109 
L 189.5568 101.284863 
L 189.8544 99.91968 
L 190.7472 94.00487 
L 190.896 93.661021 
L 191.0448 93.634673 
L 191.1936 93.910901 
L 191.4912 95.163381 
L 192.0864 98.097533 
L 192.384 98.534765 
L 192.5328 98.383847 
L 192.8304 97.509506 
L 193.4256 95.599893 
L 193.5744 95.542213 
L 193.7232 95.743197 
L 194.0208 96.874651 
L 194.7648 100.839587 
L 194.9136 101.134542 
L 195.0624 101.116889 
L 195.2112 100.777114 
L 195.5088 99.254805 
L 196.2528 94.264134 
L 196.5504 93.569092 
L 196.6992 93.658145 
L 196.9968 94.539742 
L 197.592 96.926441 
L 197.7408 97.180968 
L 197.8896 97.199659 
L 198.0384 96.981537 
L 198.336 95.979993 
L 198.9312 93.817025 
L 199.08 93.715606 
L 199.2288 93.894316 
L 199.5264 95.075803 
L 200.4192 100.431446 
L 200.568 100.68644 
L 200.7168 100.616268 
L 201.0144 99.573848 
L 201.9072 94.544726 
L 202.056 94.281028 
L 202.2048 94.285237 
L 202.5024 94.965251 
L 203.0976 96.969401 
L 203.2464 97.137625 
L 203.3952 97.067642 
L 203.6928 96.22151 
L 204.5856 92.498731 
L 204.7344 92.538324 
L 204.8832 92.888508 
L 205.1808 94.416748 
L 205.9248 99.4435 
L 206.2224 100.119257 
L 206.3712 99.992629 
L 206.6688 98.956508 
L 207.4128 95.484429 
L 207.5616 95.268791 
L 207.7104 95.301477 
L 208.008 96.00412 
L 208.6032 98.009 
L 208.752 98.163404 
L 208.9008 98.064963 
L 209.1984 97.094632 
L 210.0912 92.326753 
L 210.24 92.141783 
L 210.3888 92.280426 
L 210.6864 93.47198 
L 211.728 99.470938 
L 211.8768 99.534162 
L 212.0256 99.326461 
L 212.3232 98.315323 
L 212.9184 96.214993 
L 213.0672 96.11184 
L 213.216 96.249296 
L 213.5136 97.15631 
L 214.1088 99.594082 
L 214.2576 99.846021 
L 214.4064 99.827517 
L 214.5552 99.518603 
L 214.8528 98.108588 
L 215.5968 93.395798 
L 215.8944 92.85734 
L 216.0432 93.070279 
L 216.3408 94.334738 
L 217.0848 98.690276 
L 217.3824 99.236424 
L 217.5312 99.124329 
L 217.8288 98.327701 
L 218.2752 96.869266 
L 218.424 96.641985 
L 218.5728 96.642622 
L 218.7216 96.891665 
L 219.0192 98.062835 
L 219.7632 101.676401 
L 219.912 101.848843 
L 220.0608 101.711011 
L 220.3584 100.542021 
L 221.4 94.643742 
L 221.5488 94.632373 
L 221.6976 94.917731 
L 221.9952 96.177062 
L 222.5904 99.122643 
L 222.888 99.586779 
L 223.0368 99.458597 
L 223.3344 98.652504 
L 223.7808 97.200156 
L 223.9296 96.98561 
L 224.0784 97.012207 
L 224.2272 97.306752 
L 224.5248 98.651298 
L 225.4176 103.68593 
L 225.5664 103.801859 
L 225.7152 103.592384 
L 226.0128 102.314284 
L 226.9056 97.349575 
L 227.0544 97.199717 
L 227.2032 97.330058 
L 227.5008 98.268568 
L 228.096 100.69599 
L 228.2448 100.952485 
L 228.3936 100.972399 
L 228.5424 100.756047 
L 228.84 99.764815 
L 229.4352 97.684092 
L 229.584 97.62255 
L 229.7328 97.850629 
L 230.0304 99.161364 
L 231.072 105.520948 
L 231.2208 105.5825 
L 231.3696 105.330906 
L 231.6672 104.076394 
L 232.2624 100.910675 
L 232.56 100.312857 
L 232.7088 100.399516 
L 233.0064 101.215699 
L 233.6016 103.381726 
L 233.7504 103.570066 
L 233.8992 103.513517 
L 234.1968 102.678202 
L 235.0896 98.953478 
L 235.2384 99.003515 
L 235.3872 99.371226 
L 235.6848 100.960576 
L 236.5776 106.910587 
L 236.7264 107.200229 
L 236.8752 107.186831 
L 237.1728 106.393633 
L 237.9168 103.555398 
L 238.0656 103.459719 
L 238.2144 103.607214 
L 238.512 104.520051 
L 239.1072 106.846359 
L 239.256 107.057588 
L 239.4048 107.006177 
L 239.7024 106.101297 
L 240.744 101.163305 
L 240.8928 101.295213 
L 241.1904 102.483665 
L 242.232 108.716318 
L 242.3808 108.852198 
L 242.5296 108.726643 
L 242.8272 107.905401 
L 243.2736 106.467714 
L 243.4224 106.260174 
L 243.5712 106.279884 
L 243.72 106.54137 
L 244.0176 107.694758 
L 244.6128 110.581794 
L 244.9104 110.998274 
L 245.0592 110.766884 
L 245.3568 109.480789 
L 246.2496 104.472017 
L 246.3984 104.35691 
L 246.5472 104.561842 
L 246.8448 105.806034 
L 247.7376 110.585228 
L 247.8864 110.753657 
L 248.0352 110.677848 
L 248.3328 109.981568 
L 248.7792 108.742758 
L 248.928 108.605968 
L 249.0768 108.704833 
L 249.3744 109.657262 
L 250.416 114.96741 
L 250.5648 114.939994 
L 250.7136 114.596553 
L 251.0112 113.119989 
L 251.7552 108.747132 
L 251.904 108.448193 
L 252.0528 108.45072 
L 252.2016 108.742336 
L 252.4992 109.996524 
L 253.0944 112.901233 
L 253.392 113.351971 
L 253.5408 113.223256 
L 253.8384 112.43378 
L 254.2848 111.063662 
L 254.4336 110.894484 
L 254.5824 110.976123 
L 254.88 111.968317 
L 255.3264 115.015954 
L 255.7728 117.976521 
L 256.0704 118.764008 
L 256.2192 118.674655 
L 256.5168 117.626771 
L 257.4096 113.174832 
L 257.5584 113.076415 
L 257.7072 113.248151 
L 258.0048 114.241101 
L 258.6 116.68518 
L 258.7488 116.932317 
L 258.8976 116.939737 
L 259.0464 116.708997 
L 259.344 115.688544 
L 259.7904 113.898952 
L 259.9392 113.585727 
L 260.088 113.534007 
L 260.2368 113.780406 
L 260.5344 115.156699 
L 261.576 122.062108 
L 261.7248 122.232838 
L 261.8736 122.094207 
L 262.1712 121.07023 
L 262.7664 118.339055 
L 263.064 117.923896 
L 263.2128 118.089874 
L 263.5104 119.037871 
L 264.1056 121.354762 
L 264.2544 121.557962 
L 264.4032 121.50797 
L 264.7008 120.663887 
L 265.5936 116.822771 
L 265.7424 116.856126 
L 265.8912 117.212304 
L 266.1888 118.799869 
L 267.0816 124.977529 
L 267.2304 125.340653 
L 267.3792 125.409389 
L 267.528 125.21128 
L 267.9744 123.669859 
L 268.272 122.713354 
L 268.4208 122.491993 
L 268.5696 122.501988 
L 268.7184 122.752128 
L 269.016 123.856467 
L 269.6112 126.481997 
L 269.76 126.74578 
L 269.9088 126.73693 
L 270.0576 126.443767 
L 270.3552 125.115779 
L 271.0992 121.093521 
L 271.248 120.873354 
L 271.3968 120.976629 
L 271.6944 122.111051 
L 272.736 128.343281 
L 272.8848 128.515088 
L 273.0336 128.435163 
L 273.3312 127.732848 
L 273.7776 126.533256 
L 273.9264 126.417626 
L 274.0752 126.533822 
L 274.3728 127.484161 
L 275.2656 131.967663 
L 275.4144 132.115084 
L 275.5632 131.953836 
L 275.8608 130.778444 
L 276.7536 125.848662 
L 276.9024 125.715234 
L 277.0512 125.895982 
L 277.3488 127.080568 
L 278.2416 131.704509 
L 278.3904 131.86459 
L 278.5392 131.788065 
L 278.8368 131.115616 
L 279.2832 129.98067 
L 279.432 129.896944 
L 279.5808 130.057749 
L 279.8784 131.158614 
L 280.92 137.137012 
L 281.0688 137.204371 
L 281.2176 136.950538 
L 281.5152 135.631758 
L 282.2592 131.483386 
L 282.408 131.197632 
L 282.5568 131.203541 
L 282.8544 132.013887 
L 283.7472 135.800057 
L 283.896 135.871071 
L 284.0448 135.710303 
L 284.3424 134.868298 
L 284.7888 133.465105 
L 284.9376 133.300991 
L 285.0864 133.397005 
L 285.384 134.447688 
L 285.8304 137.657892 
L 286.2768 140.856974 
L 286.5744 141.829416 
L 286.7232 141.83541 
L 286.872 141.534373 
L 287.1696 140.231554 
L 287.7648 137.272555 
L 288.0624 136.894473 
L 288.2112 137.097374 
L 288.5088 138.123314 
L 289.104 140.527762 
L 289.2528 140.747024 
L 289.4016 140.721233 
L 289.6992 139.975857 
L 290.4432 137.091078 
L 290.592 137.010804 
L 290.7408 137.235692 
L 291.0384 138.594768 
L 292.08 145.76025 
L 292.2288 146.004254 
L 292.3776 145.944696 
L 292.6752 145.090111 
L 293.2704 142.698876 
L 293.4192 142.444874 
L 293.568 142.431636 
L 293.7168 142.662029 
L 294.0144 143.715545 
L 294.6096 146.135284 
L 294.7584 146.340222 
L 294.9072 146.282532 
L 295.2048 145.396571 
L 296.0976 141.288678 
L 296.2464 141.27205 
L 296.3952 141.581196 
L 296.6928 143.090135 
L 297.5856 149.238505 
L 297.8832 149.74061 
L 298.032 149.591134 
L 298.3296 148.757975 
L 298.776 147.431475 
L 298.9248 147.288395 
L 299.0736 147.377243 
L 299.3712 148.249894 
L 300.264 152.121925 
L 300.4128 152.142531 
L 300.5616 151.86864 
L 300.8592 150.547506 
L 301.6032 146.373414 
L 301.752 146.10161 
L 301.9008 146.149594 
L 302.1984 147.169464 
L 303.24 153.124904 
L 303.3888 153.288046 
L 303.5376 153.208848 
L 303.8352 152.536161 
L 304.2816 151.447167 
L 304.4304 151.38391 
L 304.5792 151.558955 
L 304.8768 152.642451 
L 305.7696 157.556215 
L 305.9184 157.764217 
L 306.0672 157.656381 
L 306.3648 156.561429 
L 307.2576 151.620444 
L 307.4064 151.450133 
L 307.5552 151.586336 
L 307.8528 152.664365 
L 308.5968 156.581221 
L 308.8944 157.047874 
L 309.0432 156.928607 
L 309.3408 156.192012 
L 309.7872 155.024105 
L 309.936 154.947958 
L 310.0848 155.125873 
L 310.3824 156.28881 
L 311.424 162.693003 
L 311.5728 162.829619 
L 311.7216 162.642066 
L 312.0192 161.440279 
L 312.7632 157.436242 
L 312.912 157.148758 
L 313.0608 157.142671 
L 313.2096 157.406899 
L 313.5072 158.557 
L 314.1024 161.118227 
L 314.2512 161.363929 
L 314.4 161.369055 
L 314.6976 160.72219 
L 315.2928 158.610559 
L 315.4416 158.40665 
L 315.5904 158.471312 
L 315.7392 158.832847 
L 316.0368 160.400867 
L 316.9296 166.729762 
L 317.0784 167.118781 
L 317.2272 167.186329 
L 317.376 166.948748 
L 317.6736 165.771609 
L 318.2688 163.015383 
L 318.4176 162.727951 
L 318.5664 162.695228 
L 318.7152 162.913589 
L 319.0128 163.94188 
L 319.608 166.238598 
L 319.7568 166.409633 
L 319.9056 166.328411 
L 320.2032 165.454366 
L 320.9472 162.203513 
L 321.096 162.054507 
L 321.2448 162.215877 
L 321.5424 163.469286 
L 322.7328 170.847872 
L 322.8816 170.826296 
L 323.1792 170.064929 
L 323.7744 167.888744 
L 323.9232 167.686148 
L 324.072 167.720751 
L 324.3696 168.477833 
L 325.1136 171.574165 
L 325.2624 171.765172 
L 325.4112 171.683536 
L 325.7088 170.720118 
L 326.6016 166.19523 
L 326.7504 166.095635 
L 326.8992 166.322431 
L 327.1968 167.675537 
L 328.0896 173.526663 
L 328.3872 174.005927 
L 328.536 173.859423 
L 328.9824 172.565638 
L 329.28 171.831085 
L 329.4288 171.730842 
L 329.5776 171.865433 
L 329.8752 172.833267 
L 330.768 176.924616 
L 330.9168 176.958477 
L 331.0656 176.688271 
L 331.3632 175.34323 
L 332.1072 170.926561 
L 332.256 170.580171 
L 332.4048 170.547786 
L 332.5536 170.830202 
L 332.8512 172.185702 
L 333.5952 176.44301 
L 333.8928 176.91501 
L 334.0416 176.790644 
L 334.3392 176.05473 
L 334.7856 174.939767 
L 334.9344 174.885455 
L 335.0832 175.077478 
L 335.3808 176.216044 
L 336.2736 181.380269 
L 336.4224 181.626793 
L 336.5712 181.552207 
L 336.8688 180.502062 
L 337.7616 175.457267 
L 337.9104 175.23304 
L 338.0592 175.306316 
L 338.3568 176.235894 
L 339.1008 179.711877 
L 339.2496 179.978039 
L 339.3984 180.003088 
L 339.696 179.416603 
L 340.2912 177.580305 
L 340.44 177.465796 
L 340.5888 177.61502 
L 340.8864 178.750272 
L 342.0768 185.493242 
L 342.2256 185.345488 
L 342.5232 184.214469 
L 343.2672 180.268994 
L 343.416 179.965423 
L 343.5648 179.933114 
L 343.7136 180.161098 
L 344.0112 181.210091 
L 344.6064 183.473344 
L 344.7552 183.629861 
L 344.904 183.5421 
L 345.2016 182.703324 
L 345.9456 179.935977 
L 346.0944 179.926223 
L 346.2432 180.22162 
L 346.5408 181.685894 
L 347.4336 187.950257 
L 347.7312 188.452767 
L 347.88 188.245188 
L 348.1776 187.133957 
L 348.7728 184.488766 
L 348.9216 184.216733 
L 349.0704 184.192301 
L 349.2192 184.411055 
L 349.5168 185.414067 
L 350.112 187.547926 
L 350.2608 187.654939 
L 350.4096 187.501045 
L 350.7072 186.458503 
L 351.4512 182.703573 
L 351.6 182.451345 
L 351.7488 182.512605 
L 352.0464 183.581645 
L 352.6416 187.929924 
L 353.088 190.321909 
L 353.2368 190.584805 
L 353.3856 190.560466 
L 353.6832 189.815883 
L 354.2784 187.727614 
L 354.4272 187.550576 
L 354.576 187.609528 
L 354.8736 188.406663 
L 355.6176 191.499737 
L 355.7664 191.664755 
L 355.9152 191.547127 
L 356.2128 190.480755 
L 357.1056 185.428889 
L 357.2544 185.220778 
L 357.4032 185.337325 
L 357.7008 186.471877 
L 358.5936 191.793329 
L 358.7424 192.111668 
L 358.8912 192.164672 
L 359.04 191.978701 
L 359.4864 190.621309 
L 359.784 189.884281 
L 359.9328 189.792407 
L 360.0816 189.940458 
L 360.3792 190.945938 
L 361.272 195.138993 
L 361.4208 195.172992 
L 361.5696 194.894521 
L 361.8672 193.503835 
L 362.6112 188.786262 
L 362.9088 188.220645 
L 363.0576 188.399674 
L 363.3552 189.536032 
L 364.0992 193.246391 
L 364.248 193.510998 
L 364.3968 193.528847 
L 364.6944 192.933695 
L 365.2896 191.177028 
L 365.4384 191.09199 
L 365.5872 191.262448 
L 365.8848 192.383571 
L 366.9264 197.897418 
L 367.0752 197.83884 
L 367.3728 196.80493 
L 367.3728 196.80493 
" style="fill:none;stroke:#55a868;stroke-linecap:round;stroke-width:1.75;"/>
   </g>
   <g id="patch_3">
    <path d="M 54 252 
L 54 28.8 
" style="fill:none;"/>
   </g>
   <g id="patch_4">
    <path d="M 54 252 
L 388.8 252 
" style="fill:none;"/>
   </g>
   <g id="patch_5">
    <path d="M 54 28.8 
L 388.8 28.8 
" style="fill:none;"/>
   </g>
   <g id="patch_6">
    <path d="M 388.8 252 
L 388.8 28.8 
" style="fill:none;"/>
   </g>
   <g id="text_15">
    <!-- exp : 1, sin : 3 -->
    <defs>
     <path d="M 51.421875 26.65625 
Q 51.421875 20.65625 50.4375 15.578125 
Q 49.46875 10.5 47.1875 6.828125 
Q 44.921875 3.171875 41.1875 1.09375 
Q 37.453125 -0.984375 31.984375 -0.984375 
Q 26.3125 -0.984375 22.0625 1.171875 
Q 17.828125 3.328125 15.578125 8.203125 
L 15.328125 8.203125 
Q 15.375 8.109375 15.40625 7.328125 
Q 15.4375 6.546875 15.453125 5.375 
Q 15.484375 4.203125 15.5 2.75 
Q 15.53125 1.3125 15.53125 -0.09375 
L 15.53125 -20.75 
L 6.734375 -20.75 
L 6.734375 42.046875 
Q 6.734375 43.953125 6.703125 45.703125 
Q 6.6875 47.46875 6.640625 48.90625 
Q 6.59375 50.34375 6.546875 51.359375 
Q 6.5 52.390625 6.453125 52.828125 
L 14.9375 52.828125 
Q 14.984375 52.6875 15.0625 51.796875 
Q 15.140625 50.921875 15.203125 49.671875 
Q 15.28125 48.4375 15.359375 47.015625 
Q 15.4375 45.609375 15.4375 44.34375 
L 15.625 44.34375 
Q 16.84375 46.875 18.40625 48.65625 
Q 19.96875 50.4375 21.96875 51.578125 
Q 23.96875 52.734375 26.4375 53.25 
Q 28.90625 53.765625 31.984375 53.765625 
Q 37.453125 53.765625 41.1875 51.8125 
Q 44.921875 49.859375 47.1875 46.3125 
Q 49.46875 42.78125 50.4375 37.765625 
Q 51.421875 32.765625 51.421875 26.65625 
M 42.1875 26.46875 
Q 42.1875 31.34375 41.59375 35.15625 
Q 41.015625 38.96875 39.578125 41.59375 
Q 38.140625 44.234375 35.734375 45.59375 
Q 33.34375 46.96875 29.734375 46.96875 
Q 26.8125 46.96875 24.21875 46.140625 
Q 21.625 45.3125 19.703125 42.96875 
Q 17.78125 40.625 16.65625 36.5 
Q 15.53125 32.375 15.53125 25.78125 
Q 15.53125 20.171875 16.453125 16.28125 
Q 17.390625 12.40625 19.171875 10.015625 
Q 20.953125 7.625 23.578125 6.5625 
Q 26.21875 5.515625 29.640625 5.515625 
Q 33.296875 5.515625 35.71875 6.921875 
Q 38.140625 8.34375 39.578125 11.03125 
Q 41.015625 13.71875 41.59375 17.59375 
Q 42.1875 21.484375 42.1875 26.46875 
" id="LiberationSans-70"/>
     <path d="M 9.125 42.71875 
L 9.125 52.828125 
L 18.65625 52.828125 
L 18.65625 42.71875 
z
M 9.125 0 
L 9.125 10.109375 
L 18.65625 10.109375 
L 18.65625 0 
z
" id="LiberationSans-3a"/>
     <path d="M 18.796875 10.6875 
L 18.796875 2.484375 
Q 18.796875 -0.09375 18.578125 -2.21875 
Q 18.359375 -4.34375 17.875 -6.171875 
Q 17.390625 -8.015625 16.671875 -9.625 
Q 15.96875 -11.234375 14.984375 -12.796875 
L 8.984375 -12.796875 
Q 11.1875 -9.625 12.375 -6.390625 
Q 13.578125 -3.171875 13.578125 0 
L 9.28125 0 
L 9.28125 10.6875 
z
" id="LiberationSans-2c"/>
     <path d="M 13.484375 24.5625 
Q 13.484375 20.40625 14.328125 16.90625 
Q 15.1875 13.421875 16.96875 10.90625 
Q 18.75 8.40625 21.53125 7 
Q 24.3125 5.609375 28.21875 5.609375 
Q 33.9375 5.609375 37.375 7.90625 
Q 40.828125 10.203125 42.046875 13.71875 
L 49.75 11.53125 
Q 48.921875 9.328125 47.4375 7.109375 
Q 45.953125 4.890625 43.453125 3.09375 
Q 40.96875 1.3125 37.234375 0.15625 
Q 33.5 -0.984375 28.21875 -0.984375 
Q 16.5 -0.984375 10.375 6 
Q 4.25 12.984375 4.25 26.765625 
Q 4.25 34.1875 6.09375 39.328125 
Q 7.953125 44.484375 11.171875 47.703125 
Q 14.40625 50.921875 18.703125 52.359375 
Q 23 53.8125 27.875 53.8125 
Q 34.515625 53.8125 38.984375 51.65625 
Q 43.453125 49.515625 46.15625 45.71875 
Q 48.875 41.9375 50.015625 36.8125 
Q 51.171875 31.6875 51.171875 25.734375 
L 51.171875 24.5625 
z
M 42.09375 31.296875 
Q 41.359375 39.65625 37.84375 43.484375 
Q 34.328125 47.3125 27.734375 47.3125 
Q 25.53125 47.3125 23.109375 46.609375 
Q 20.703125 45.90625 18.65625 44.09375 
Q 16.609375 42.28125 15.1875 39.171875 
Q 13.765625 36.078125 13.578125 31.296875 
z
" id="LiberationSans-65"/>
     <path id="LiberationSans-20"/>
     <path d="M 39.109375 0 
L 24.90625 21.6875 
L 10.59375 0 
L 1.125 0 
L 19.921875 27.15625 
L 2 52.828125 
L 11.71875 52.828125 
L 24.90625 32.28125 
L 37.984375 52.828125 
L 47.796875 52.828125 
L 29.890625 27.25 
L 48.921875 0 
z
" id="LiberationSans-78"/>
     <path d="M 51.21875 19 
Q 51.21875 14.265625 49.671875 10.546875 
Q 48.140625 6.84375 45.1875 4.265625 
Q 42.234375 1.703125 37.859375 0.359375 
Q 33.5 -0.984375 27.875 -0.984375 
Q 21.484375 -0.984375 17.109375 0.609375 
Q 12.75 2.203125 9.90625 4.8125 
Q 7.078125 7.421875 5.65625 10.765625 
Q 4.25 14.109375 3.8125 17.671875 
L 12.890625 18.5 
Q 13.28125 15.765625 14.328125 13.515625 
Q 15.375 11.28125 17.1875 9.671875 
Q 19 8.0625 21.625 7.171875 
Q 24.265625 6.296875 27.875 6.296875 
Q 34.515625 6.296875 38.296875 9.5625 
Q 42.09375 12.84375 42.09375 19.28125 
Q 42.09375 23.09375 40.40625 25.40625 
Q 38.71875 27.734375 36.203125 29.03125 
Q 33.6875 30.328125 30.734375 30.765625 
Q 27.78125 31.203125 25.296875 31.203125 
L 20.3125 31.203125 
L 20.3125 38.8125 
L 25.09375 38.8125 
Q 27.59375 38.8125 30.265625 39.328125 
Q 32.953125 39.84375 35.171875 41.1875 
Q 37.40625 42.53125 38.84375 44.828125 
Q 40.28125 47.125 40.28125 50.6875 
Q 40.28125 56.203125 37.03125 59.390625 
Q 33.796875 62.59375 27.390625 62.59375 
Q 21.578125 62.59375 17.984375 59.609375 
Q 14.40625 56.640625 13.8125 51.21875 
L 4.984375 51.90625 
Q 5.515625 56.453125 7.46875 59.8125 
Q 9.421875 63.1875 12.421875 65.40625 
Q 15.4375 67.625 19.28125 68.71875 
Q 23.140625 69.828125 27.484375 69.828125 
Q 33.25 69.828125 37.390625 68.375 
Q 41.546875 66.9375 44.1875 64.46875 
Q 46.828125 62.015625 48.0625 58.6875 
Q 49.3125 55.375 49.3125 51.609375 
Q 49.3125 48.578125 48.484375 45.9375 
Q 47.65625 43.3125 45.890625 41.203125 
Q 44.140625 39.109375 41.421875 37.59375 
Q 38.71875 36.078125 34.90625 35.296875 
L 34.90625 35.109375 
Q 39.0625 34.671875 42.140625 33.21875 
Q 45.21875 31.78125 47.21875 29.625 
Q 49.21875 27.484375 50.21875 24.75 
Q 51.21875 22.015625 51.21875 19 
" id="LiberationSans-33"/>
     <path d="M 40.28125 0 
L 40.28125 33.5 
Q 40.28125 37.359375 39.71875 39.9375 
Q 39.15625 42.53125 37.890625 44.109375 
Q 36.625 45.703125 34.546875 46.359375 
Q 32.46875 47.015625 29.390625 47.015625 
Q 26.265625 47.015625 23.75 45.921875 
Q 21.234375 44.828125 19.453125 42.75 
Q 17.671875 40.671875 16.6875 37.625 
Q 15.71875 34.578125 15.71875 30.609375 
L 15.71875 0 
L 6.9375 0 
L 6.9375 41.546875 
Q 6.9375 43.21875 6.90625 45.046875 
Q 6.890625 46.875 6.828125 48.5 
Q 6.78125 50.140625 6.734375 51.3125 
Q 6.6875 52.484375 6.640625 52.828125 
L 14.9375 52.828125 
Q 14.984375 52.59375 15.03125 51.515625 
Q 15.09375 50.4375 15.15625 49.046875 
Q 15.234375 47.65625 15.28125 46.21875 
Q 15.328125 44.78125 15.328125 43.796875 
L 15.484375 43.796875 
Q 16.75 46.09375 18.265625 47.953125 
Q 19.78125 49.8125 21.78125 51.09375 
Q 23.78125 52.390625 26.359375 53.09375 
Q 28.953125 53.8125 32.375 53.8125 
Q 36.765625 53.8125 39.9375 52.734375 
Q 43.109375 51.65625 45.15625 49.40625 
Q 47.21875 47.171875 48.171875 43.625 
Q 49.125 40.09375 49.125 35.203125 
L 49.125 0 
z
" id="LiberationSans-6e"/>
     <path d="M 46.390625 14.59375 
Q 46.390625 10.890625 44.9375 7.984375 
Q 43.5 5.078125 40.765625 3.09375 
Q 38.03125 1.125 34.046875 0.0625 
Q 30.078125 -0.984375 24.953125 -0.984375 
Q 20.359375 -0.984375 16.671875 -0.265625 
Q 12.984375 0.4375 10.203125 2 
Q 7.421875 3.5625 5.53125 6.125 
Q 3.65625 8.6875 2.78125 12.40625 
L 10.546875 13.921875 
Q 11.671875 9.671875 15.1875 7.6875 
Q 18.703125 5.71875 24.953125 5.71875 
Q 27.78125 5.71875 30.140625 6.109375 
Q 32.515625 6.5 34.21875 7.453125 
Q 35.9375 8.40625 36.890625 9.984375 
Q 37.84375 11.578125 37.84375 13.921875 
Q 37.84375 16.3125 36.71875 17.84375 
Q 35.59375 19.390625 33.59375 20.40625 
Q 31.59375 21.4375 28.734375 22.1875 
Q 25.875 22.953125 22.46875 23.875 
Q 19.28125 24.703125 16.15625 25.734375 
Q 13.03125 26.765625 10.515625 28.4375 
Q 8.015625 30.125 6.453125 32.609375 
Q 4.890625 35.109375 4.890625 38.875 
Q 4.890625 46.09375 10.03125 49.875 
Q 15.1875 53.65625 25.046875 53.65625 
Q 33.796875 53.65625 38.9375 50.578125 
Q 44.09375 47.515625 45.453125 40.71875 
L 37.546875 39.75 
Q 37.109375 41.796875 35.9375 43.1875 
Q 34.765625 44.578125 33.109375 45.4375 
Q 31.453125 46.296875 29.375 46.65625 
Q 27.296875 47.015625 25.046875 47.015625 
Q 19.09375 47.015625 16.25 45.203125 
Q 13.421875 43.40625 13.421875 39.75 
Q 13.421875 37.59375 14.46875 36.203125 
Q 15.53125 34.8125 17.40625 33.859375 
Q 19.28125 32.90625 21.921875 32.203125 
Q 24.5625 31.5 27.734375 30.71875 
Q 29.828125 30.171875 32.03125 29.5625 
Q 34.234375 28.953125 36.296875 28.09375 
Q 38.375 27.25 40.203125 26.09375 
Q 42.046875 24.953125 43.40625 23.34375 
Q 44.78125 21.734375 45.578125 19.578125 
Q 46.390625 17.4375 46.390625 14.59375 
" id="LiberationSans-73"/>
     <path d="M 6.6875 64.0625 
L 6.6875 72.46875 
L 15.484375 72.46875 
L 15.484375 64.0625 
z
M 6.6875 0 
L 6.6875 52.828125 
L 15.484375 52.828125 
L 15.484375 0 
z
" id="LiberationSans-69"/>
    </defs>
    <g style="fill:#262626;" transform="translate(184.0490625 23.8)scale(0.12 -0.12)">
     <use xlink:href="#LiberationSans-65"/>
     <use x="55.615234375" xlink:href="#LiberationSans-78"/>
     <use x="105.615234375" xlink:href="#LiberationSans-70"/>
     <use x="161.23046875" xlink:href="#LiberationSans-20"/>
     <use x="189.013671875" xlink:href="#LiberationSans-3a"/>
     <use x="216.796875" xlink:href="#LiberationSans-20"/>
     <use x="244.580078125" xlink:href="#LiberationSans-31"/>
     <use x="300.1953125" xlink:href="#LiberationSans-2c"/>
     <use x="327.978515625" xlink:href="#LiberationSans-20"/>
     <use x="355.76171875" xlink:href="#LiberationSans-73"/>
     <use x="405.76171875" xlink:href="#LiberationSans-69"/>
     <use x="427.978515625" xlink:href="#LiberationSans-6e"/>
     <use x="483.59375" xlink:href="#LiberationSans-20"/>
     <use x="511.376953125" xlink:href="#LiberationSans-3a"/>
     <use x="539.16015625" xlink:href="#LiberationSans-20"/>
     <use x="566.943359375" xlink:href="#LiberationSans-33"/>
    </g>
   </g>
  </g>
 </g>
 <defs>
  <clipPath id="p4f7b9c9270">
   <rect height="223.2" width="334.8" x="54.0" y="28.8"/>
  </clipPath>
 </defs>
</svg>
