<?xml version="1.0" encoding="utf-8" standalone="no"?>
<!DOCTYPE svg PUBLIC "-//W3C//DTD SVG 1.1//EN"
  "http://www.w3.org/Graphics/SVG/1.1/DTD/svg11.dtd">
<!-- Created with matplotlib (http://matplotlib.org/) -->
<svg height="288pt" version="1.1" viewBox="0 0 432 288" width="432pt" xmlns="http://www.w3.org/2000/svg" xmlns:xlink="http://www.w3.org/1999/xlink">
 <defs>
  <style type="text/css">
*{stroke-linecap:butt;stroke-linejoin:round;stroke-miterlimit:100000;}
  </style>
 </defs>
 <g id="figure_1">
  <g id="patch_1">
   <path d="M 0 288 
L 432 288 
L 432 0 
L 0 0 
z
" style="fill:#ffffff;"/>
  </g>
  <g id="axes_1">
   <g id="patch_2">
    <path d="M 54 252 
L 388.8 252 
L 388.8 28.8 
L 54 28.8 
z
" style="fill:#eaeaf2;"/>
   </g>
   <g id="matplotlib.axis_1">
    <g id="xtick_1">
     <g id="line2d_1">
      <path clip-path="url(#p53d9ddf4d3)" d="M 54 252 
L 54 28.8 
" style="fill:none;stroke:#ffffff;stroke-linecap:round;"/>
     </g>
     <g id="line2d_2"/>
     <g id="line2d_3"/>
     <g id="text_1">
      <!-- 0.00 -->
      <defs>
       <path d="M 51.703125 34.421875 
Q 51.703125 24.515625 49.828125 17.75 
Q 47.953125 10.984375 44.703125 6.8125 
Q 41.453125 2.640625 37.0625 0.828125 
Q 32.671875 -0.984375 27.6875 -0.984375 
Q 22.65625 -0.984375 18.3125 0.828125 
Q 13.96875 2.640625 10.765625 6.78125 
Q 7.5625 10.9375 5.734375 17.703125 
Q 3.90625 24.46875 3.90625 34.421875 
Q 3.90625 44.828125 5.734375 51.640625 
Q 7.5625 58.453125 10.78125 62.5 
Q 14.015625 66.546875 18.40625 68.1875 
Q 22.796875 69.828125 27.984375 69.828125 
Q 32.90625 69.828125 37.21875 68.1875 
Q 41.546875 66.546875 44.765625 62.5 
Q 48 58.453125 49.84375 51.640625 
Q 51.703125 44.828125 51.703125 34.421875 
M 42.78125 34.421875 
Q 42.78125 42.625 41.796875 48.0625 
Q 40.828125 53.515625 38.921875 56.765625 
Q 37.015625 60.015625 34.25 61.359375 
Q 31.5 62.703125 27.984375 62.703125 
Q 24.265625 62.703125 21.4375 61.328125 
Q 18.609375 59.96875 16.671875 56.71875 
Q 14.75 53.46875 13.765625 48.015625 
Q 12.796875 42.578125 12.796875 34.421875 
Q 12.796875 26.515625 13.796875 21.09375 
Q 14.796875 15.671875 16.71875 12.375 
Q 18.65625 9.078125 21.4375 7.640625 
Q 24.21875 6.203125 27.78125 6.203125 
Q 31.25 6.203125 34.03125 7.640625 
Q 36.8125 9.078125 38.734375 12.375 
Q 40.671875 15.671875 41.71875 21.09375 
Q 42.78125 26.515625 42.78125 34.421875 
" id="LiberationSans-30"/>
       <path d="M 9.125 0 
L 9.125 10.6875 
L 18.65625 10.6875 
L 18.65625 0 
z
" id="LiberationSans-2e"/>
      </defs>
      <g style="fill:#262626;" transform="translate(44.26953125 266.246875)scale(0.1 -0.1)">
       <use xlink:href="#LiberationSans-30"/>
       <use x="55.615234375" xlink:href="#LiberationSans-2e"/>
       <use x="83.3984375" xlink:href="#LiberationSans-30"/>
       <use x="139.013671875" xlink:href="#LiberationSans-30"/>
      </g>
     </g>
    </g>
    <g id="xtick_2">
     <g id="line2d_4">
      <path clip-path="url(#p53d9ddf4d3)" d="M 120.96 252 
L 120.96 28.8 
" style="fill:none;stroke:#ffffff;stroke-linecap:round;"/>
     </g>
     <g id="line2d_5"/>
     <g id="line2d_6"/>
     <g id="text_2">
      <!-- 0.02 -->
      <defs>
       <path d="M 5.03125 0 
L 5.03125 6.203125 
Q 7.515625 11.921875 11.109375 16.28125 
Q 14.703125 20.65625 18.65625 24.1875 
Q 22.609375 27.734375 26.484375 30.765625 
Q 30.375 33.796875 33.5 36.8125 
Q 36.625 39.84375 38.546875 43.15625 
Q 40.484375 46.484375 40.484375 50.6875 
Q 40.484375 53.609375 39.59375 55.828125 
Q 38.71875 58.0625 37.0625 59.5625 
Q 35.40625 61.078125 33.078125 61.828125 
Q 30.765625 62.59375 27.9375 62.59375 
Q 25.296875 62.59375 22.96875 61.859375 
Q 20.65625 61.140625 18.84375 59.671875 
Q 17.046875 58.203125 15.890625 56.03125 
Q 14.75 53.859375 14.40625 50.984375 
L 5.421875 51.8125 
Q 5.859375 55.515625 7.46875 58.78125 
Q 9.078125 62.0625 11.90625 64.53125 
Q 14.75 67 18.71875 68.40625 
Q 22.703125 69.828125 27.9375 69.828125 
Q 33.0625 69.828125 37.0625 68.609375 
Q 41.0625 67.390625 43.8125 64.984375 
Q 46.578125 62.59375 48.046875 59.078125 
Q 49.515625 55.5625 49.515625 50.984375 
Q 49.515625 47.515625 48.265625 44.390625 
Q 47.015625 41.265625 44.9375 38.421875 
Q 42.875 35.59375 40.140625 32.953125 
Q 37.40625 30.328125 34.421875 27.8125 
Q 31.453125 25.296875 28.421875 22.828125 
Q 25.390625 20.359375 22.71875 17.859375 
Q 20.0625 15.375 17.96875 12.8125 
Q 15.875 10.25 14.703125 7.46875 
L 50.59375 7.46875 
L 50.59375 0 
z
" id="LiberationSans-32"/>
      </defs>
      <g style="fill:#262626;" transform="translate(111.22953125 266.246875)scale(0.1 -0.1)">
       <use xlink:href="#LiberationSans-30"/>
       <use x="55.615234375" xlink:href="#LiberationSans-2e"/>
       <use x="83.3984375" xlink:href="#LiberationSans-30"/>
       <use x="139.013671875" xlink:href="#LiberationSans-32"/>
      </g>
     </g>
    </g>
    <g id="xtick_3">
     <g id="line2d_7">
      <path clip-path="url(#p53d9ddf4d3)" d="M 187.92 252 
L 187.92 28.8 
" style="fill:none;stroke:#ffffff;stroke-linecap:round;"/>
     </g>
     <g id="line2d_8"/>
     <g id="line2d_9"/>
     <g id="text_3">
      <!-- 0.04 -->
      <defs>
       <path d="M 43.015625 15.578125 
L 43.015625 0 
L 34.71875 0 
L 34.71875 15.578125 
L 2.296875 15.578125 
L 2.296875 22.40625 
L 33.796875 68.796875 
L 43.015625 68.796875 
L 43.015625 22.515625 
L 52.6875 22.515625 
L 52.6875 15.578125 
z
M 34.71875 58.890625 
Q 34.625 58.640625 34.234375 57.9375 
Q 33.84375 57.234375 33.34375 56.34375 
Q 32.859375 55.46875 32.34375 54.5625 
Q 31.84375 53.65625 31.453125 53.078125 
L 13.8125 27.09375 
Q 13.578125 26.703125 13.109375 26.0625 
Q 12.640625 25.4375 12.15625 24.78125 
Q 11.671875 24.125 11.171875 23.484375 
Q 10.6875 22.859375 10.40625 22.515625 
L 34.71875 22.515625 
z
" id="LiberationSans-34"/>
      </defs>
      <g style="fill:#262626;" transform="translate(178.18953125 266.246875)scale(0.1 -0.1)">
       <use xlink:href="#LiberationSans-30"/>
       <use x="55.615234375" xlink:href="#LiberationSans-2e"/>
       <use x="83.3984375" xlink:href="#LiberationSans-30"/>
       <use x="139.013671875" xlink:href="#LiberationSans-34"/>
      </g>
     </g>
    </g>
    <g id="xtick_4">
     <g id="line2d_10">
      <path clip-path="url(#p53d9ddf4d3)" d="M 254.88 252 
L 254.88 28.8 
" style="fill:none;stroke:#ffffff;stroke-linecap:round;"/>
     </g>
     <g id="line2d_11"/>
     <g id="line2d_12"/>
     <g id="text_4">
      <!-- 0.06 -->
      <defs>
       <path d="M 51.21875 22.515625 
Q 51.21875 17.328125 49.78125 13 
Q 48.34375 8.6875 45.53125 5.578125 
Q 42.71875 2.484375 38.5625 0.75 
Q 34.421875 -0.984375 29 -0.984375 
Q 23 -0.984375 18.5 1.3125 
Q 14.015625 3.609375 11.03125 7.921875 
Q 8.0625 12.25 6.5625 18.53125 
Q 5.078125 24.8125 5.078125 32.8125 
Q 5.078125 42 6.765625 48.921875 
Q 8.453125 55.859375 11.625 60.5 
Q 14.796875 65.140625 19.359375 67.484375 
Q 23.921875 69.828125 29.6875 69.828125 
Q 33.203125 69.828125 36.28125 69.09375 
Q 39.359375 68.359375 41.875 66.71875 
Q 44.390625 65.09375 46.28125 62.40625 
Q 48.1875 59.71875 49.3125 55.8125 
L 40.921875 54.296875 
Q 39.546875 58.734375 36.546875 60.71875 
Q 33.546875 62.703125 29.59375 62.703125 
Q 25.984375 62.703125 23.046875 60.984375 
Q 20.125 59.28125 18.0625 55.875 
Q 16.015625 52.484375 14.90625 47.359375 
Q 13.8125 42.234375 13.8125 35.40625 
Q 16.21875 39.84375 20.5625 42.15625 
Q 24.90625 44.484375 30.515625 44.484375 
Q 35.203125 44.484375 39.015625 42.96875 
Q 42.828125 41.453125 45.53125 38.59375 
Q 48.25 35.75 49.734375 31.671875 
Q 51.21875 27.59375 51.21875 22.515625 
M 42.28125 22.125 
Q 42.28125 25.6875 41.40625 28.5625 
Q 40.53125 31.453125 38.765625 33.46875 
Q 37.015625 35.5 34.421875 36.59375 
Q 31.84375 37.703125 28.421875 37.703125 
Q 26.03125 37.703125 23.578125 36.984375 
Q 21.140625 36.28125 19.15625 34.6875 
Q 17.1875 33.109375 15.9375 30.515625 
Q 14.703125 27.9375 14.703125 24.21875 
Q 14.703125 20.40625 15.671875 17.109375 
Q 16.65625 13.8125 18.484375 11.375 
Q 20.3125 8.9375 22.890625 7.515625 
Q 25.484375 6.109375 28.71875 6.109375 
Q 31.890625 6.109375 34.40625 7.203125 
Q 36.921875 8.296875 38.671875 10.375 
Q 40.4375 12.453125 41.359375 15.421875 
Q 42.28125 18.40625 42.28125 22.125 
" id="LiberationSans-36"/>
      </defs>
      <g style="fill:#262626;" transform="translate(245.14953125 266.246875)scale(0.1 -0.1)">
       <use xlink:href="#LiberationSans-30"/>
       <use x="55.615234375" xlink:href="#LiberationSans-2e"/>
       <use x="83.3984375" xlink:href="#LiberationSans-30"/>
       <use x="139.013671875" xlink:href="#LiberationSans-36"/>
      </g>
     </g>
    </g>
    <g id="xtick_5">
     <g id="line2d_13">
      <path clip-path="url(#p53d9ddf4d3)" d="M 321.84 252 
L 321.84 28.8 
" style="fill:none;stroke:#ffffff;stroke-linecap:round;"/>
     </g>
     <g id="line2d_14"/>
     <g id="line2d_15"/>
     <g id="text_5">
      <!-- 0.08 -->
      <defs>
       <path d="M 51.265625 19.1875 
Q 51.265625 14.796875 49.875 11.109375 
Q 48.484375 7.421875 45.625 4.734375 
Q 42.78125 2.046875 38.328125 0.53125 
Q 33.890625 -0.984375 27.828125 -0.984375 
Q 21.78125 -0.984375 17.359375 0.53125 
Q 12.9375 2.046875 10.03125 4.703125 
Q 7.125 7.375 5.734375 11.0625 
Q 4.34375 14.75 4.34375 19.09375 
Q 4.34375 22.859375 5.484375 25.78125 
Q 6.640625 28.71875 8.5625 30.828125 
Q 10.5 32.953125 12.96875 34.25 
Q 15.4375 35.546875 18.0625 35.984375 
L 18.0625 36.1875 
Q 15.1875 36.859375 12.90625 38.375 
Q 10.640625 39.890625 9.09375 42.015625 
Q 7.5625 44.140625 6.75 46.71875 
Q 5.953125 49.3125 5.953125 52.203125 
Q 5.953125 55.8125 7.34375 59 
Q 8.734375 62.203125 11.46875 64.625 
Q 14.203125 67.046875 18.25 68.4375 
Q 22.3125 69.828125 27.640625 69.828125 
Q 33.25 69.828125 37.375 68.40625 
Q 41.5 67 44.203125 64.578125 
Q 46.921875 62.15625 48.234375 58.9375 
Q 49.5625 55.71875 49.5625 52.09375 
Q 49.5625 49.265625 48.75 46.671875 
Q 47.953125 44.09375 46.40625 41.96875 
Q 44.875 39.84375 42.59375 38.34375 
Q 40.328125 36.859375 37.359375 36.28125 
L 37.359375 36.078125 
Q 40.328125 35.59375 42.859375 34.296875 
Q 45.40625 33.015625 47.265625 30.890625 
Q 49.125 28.765625 50.1875 25.828125 
Q 51.265625 22.90625 51.265625 19.1875 
M 40.4375 51.609375 
Q 40.4375 54.203125 39.765625 56.34375 
Q 39.109375 58.5 37.59375 60.03125 
Q 36.078125 61.578125 33.640625 62.421875 
Q 31.203125 63.28125 27.640625 63.28125 
Q 24.171875 63.28125 21.78125 62.421875 
Q 19.390625 61.578125 17.84375 60.03125 
Q 16.3125 58.5 15.625 56.34375 
Q 14.9375 54.203125 14.9375 51.609375 
Q 14.9375 49.5625 15.46875 47.40625 
Q 16.015625 45.265625 17.421875 43.5 
Q 18.84375 41.75 21.328125 40.625 
Q 23.828125 39.5 27.734375 39.5 
Q 31.890625 39.5 34.40625 40.625 
Q 36.921875 41.75 38.25 43.5 
Q 39.59375 45.265625 40.015625 47.40625 
Q 40.4375 49.5625 40.4375 51.609375 
M 42.140625 20.015625 
Q 42.140625 22.515625 41.453125 24.828125 
Q 40.765625 27.15625 39.109375 28.9375 
Q 37.453125 30.71875 34.640625 31.8125 
Q 31.84375 32.90625 27.640625 32.90625 
Q 23.78125 32.90625 21.0625 31.8125 
Q 18.359375 30.71875 16.671875 28.90625 
Q 14.984375 27.09375 14.203125 24.71875 
Q 13.421875 22.359375 13.421875 19.828125 
Q 13.421875 16.65625 14.203125 14.03125 
Q 14.984375 11.421875 16.6875 9.546875 
Q 18.40625 7.671875 21.1875 6.640625 
Q 23.96875 5.609375 27.9375 5.609375 
Q 31.9375 5.609375 34.671875 6.640625 
Q 37.40625 7.671875 39.0625 9.546875 
Q 40.71875 11.421875 41.421875 14.078125 
Q 42.140625 16.75 42.140625 20.015625 
" id="LiberationSans-38"/>
      </defs>
      <g style="fill:#262626;" transform="translate(312.10953125 266.246875)scale(0.1 -0.1)">
       <use xlink:href="#LiberationSans-30"/>
       <use x="55.615234375" xlink:href="#LiberationSans-2e"/>
       <use x="83.3984375" xlink:href="#LiberationSans-30"/>
       <use x="139.013671875" xlink:href="#LiberationSans-38"/>
      </g>
     </g>
    </g>
    <g id="xtick_6">
     <g id="line2d_16">
      <path clip-path="url(#p53d9ddf4d3)" d="M 388.8 252 
L 388.8 28.8 
" style="fill:none;stroke:#ffffff;stroke-linecap:round;"/>
     </g>
     <g id="line2d_17"/>
     <g id="line2d_18"/>
     <g id="text_6">
      <!-- 0.10 -->
      <defs>
       <path d="M 7.625 0 
L 7.625 7.46875 
L 25.140625 7.46875 
L 25.140625 60.40625 
L 9.625 49.3125 
L 9.625 57.625 
L 25.875 68.796875 
L 33.984375 68.796875 
L 33.984375 7.46875 
L 50.734375 7.46875 
L 50.734375 0 
z
" id="LiberationSans-31"/>
      </defs>
      <g style="fill:#262626;" transform="translate(379.06953125 266.246875)scale(0.1 -0.1)">
       <use xlink:href="#LiberationSans-30"/>
       <use x="55.615234375" xlink:href="#LiberationSans-2e"/>
       <use x="83.3984375" xlink:href="#LiberationSans-31"/>
       <use x="139.013671875" xlink:href="#LiberationSans-30"/>
      </g>
     </g>
    </g>
   </g>
   <g id="matplotlib.axis_2">
    <g id="ytick_1">
     <g id="line2d_19">
      <path clip-path="url(#p53d9ddf4d3)" d="M 54 252 
L 388.8 252 
" style="fill:none;stroke:#ffffff;stroke-linecap:round;"/>
     </g>
     <g id="line2d_20"/>
     <g id="line2d_21"/>
     <g id="text_7">
      <!-- −2 -->
      <defs>
       <path d="M 4.9375 29.6875 
L 4.9375 36.8125 
L 53.515625 36.8125 
L 53.515625 29.6875 
z
" id="LiberationSans-2212"/>
      </defs>
      <g style="fill:#262626;" transform="translate(35.5984375 254.5859375)scale(0.1 -0.1)">
       <use xlink:href="#LiberationSans-2212"/>
       <use x="58.3984375" xlink:href="#LiberationSans-32"/>
      </g>
     </g>
    </g>
    <g id="ytick_2">
     <g id="line2d_22">
      <path clip-path="url(#p53d9ddf4d3)" d="M 54 220.114286 
L 388.8 220.114286 
" style="fill:none;stroke:#ffffff;stroke-linecap:round;"/>
     </g>
     <g id="line2d_23"/>
     <g id="line2d_24"/>
     <g id="text_8">
      <!-- 0 -->
      <g style="fill:#262626;" transform="translate(41.4390625 222.700223214)scale(0.1 -0.1)">
       <use xlink:href="#LiberationSans-30"/>
      </g>
     </g>
    </g>
    <g id="ytick_3">
     <g id="line2d_25">
      <path clip-path="url(#p53d9ddf4d3)" d="M 54 188.228571 
L 388.8 188.228571 
" style="fill:none;stroke:#ffffff;stroke-linecap:round;"/>
     </g>
     <g id="line2d_26"/>
     <g id="line2d_27"/>
     <g id="text_9">
      <!-- 2 -->
      <g style="fill:#262626;" transform="translate(41.4390625 190.814508929)scale(0.1 -0.1)">
       <use xlink:href="#LiberationSans-32"/>
      </g>
     </g>
    </g>
    <g id="ytick_4">
     <g id="line2d_28">
      <path clip-path="url(#p53d9ddf4d3)" d="M 54 156.342857 
L 388.8 156.342857 
" style="fill:none;stroke:#ffffff;stroke-linecap:round;"/>
     </g>
     <g id="line2d_29"/>
     <g id="line2d_30"/>
     <g id="text_10">
      <!-- 4 -->
      <g style="fill:#262626;" transform="translate(41.4390625 158.928794643)scale(0.1 -0.1)">
       <use xlink:href="#LiberationSans-34"/>
      </g>
     </g>
    </g>
    <g id="ytick_5">
     <g id="line2d_31">
      <path clip-path="url(#p53d9ddf4d3)" d="M 54 124.457143 
L 388.8 124.457143 
" style="fill:none;stroke:#ffffff;stroke-linecap:round;"/>
     </g>
     <g id="line2d_32"/>
     <g id="line2d_33"/>
     <g id="text_11">
      <!-- 6 -->
      <g style="fill:#262626;" transform="translate(41.4390625 127.043080357)scale(0.1 -0.1)">
       <use xlink:href="#LiberationSans-36"/>
      </g>
     </g>
    </g>
    <g id="ytick_6">
     <g id="line2d_34">
      <path clip-path="url(#p53d9ddf4d3)" d="M 54 92.571429 
L 388.8 92.571429 
" style="fill:none;stroke:#ffffff;stroke-linecap:round;"/>
     </g>
     <g id="line2d_35"/>
     <g id="line2d_36"/>
     <g id="text_12">
      <!-- 8 -->
      <g style="fill:#262626;" transform="translate(41.4390625 95.1573660714)scale(0.1 -0.1)">
       <use xlink:href="#LiberationSans-38"/>
      </g>
     </g>
    </g>
    <g id="ytick_7">
     <g id="line2d_37">
      <path clip-path="url(#p53d9ddf4d3)" d="M 54 60.685714 
L 388.8 60.685714 
" style="fill:none;stroke:#ffffff;stroke-linecap:round;"/>
     </g>
     <g id="line2d_38"/>
     <g id="line2d_39"/>
     <g id="text_13">
      <!-- 10 -->
      <g style="fill:#262626;" transform="translate(35.878125 63.2716517857)scale(0.1 -0.1)">
       <use xlink:href="#LiberationSans-31"/>
       <use x="55.615234375" xlink:href="#LiberationSans-30"/>
      </g>
     </g>
    </g>
    <g id="ytick_8">
     <g id="line2d_40">
      <path clip-path="url(#p53d9ddf4d3)" d="M 54 28.8 
L 388.8 28.8 
" style="fill:none;stroke:#ffffff;stroke-linecap:round;"/>
     </g>
     <g id="line2d_41"/>
     <g id="line2d_42"/>
     <g id="text_14">
      <!-- 12 -->
      <g style="fill:#262626;" transform="translate(35.878125 31.3859375)scale(0.1 -0.1)">
       <use xlink:href="#LiberationSans-31"/>
       <use x="55.615234375" xlink:href="#LiberationSans-32"/>
      </g>
     </g>
    </g>
   </g>
   <g id="line2d_43">
    <path clip-path="url(#p53d9ddf4d3)" d="M 54 220.009911 
L 55.7856 218.133545 
L 56.232 217.444479 
L 56.6784 217.264038 
L 57.4224 217.08645 
L 57.72 217.133386 
L 58.0176 216.973989 
L 58.1664 216.996851 
L 58.464 216.381856 
L 59.5056 213.022297 
L 60.1008 212.31496 
L 60.2496 212.33398 
L 60.5472 212.566491 
L 60.9936 212.519635 
L 61.44 212.782166 
L 61.7376 212.940973 
L 62.184 213.279615 
L 62.4816 213.189394 
L 62.928 212.604546 
L 63.5232 211.450682 
L 64.1184 210.174743 
L 64.416 210.000823 
L 64.7136 210.196585 
L 64.8624 210.368545 
L 65.0112 210.360063 
L 65.3088 209.770672 
L 65.7552 208.655644 
L 66.0528 208.426529 
L 66.3504 208.742979 
L 66.648 208.967247 
L 66.9456 209.011792 
L 67.2432 209.350912 
L 67.9872 210.124109 
L 68.2848 210.38047 
L 68.5824 210.425269 
L 68.88 210.322454 
L 69.1776 209.765681 
L 69.624 208.486363 
L 69.9216 208.303403 
L 70.368 208.177087 
L 70.6656 208.40134 
L 70.9632 208.703871 
L 71.2608 208.349525 
L 71.7072 207.342574 
L 72.3024 205.555986 
L 72.6 205.442967 
L 73.0464 205.53762 
L 73.4928 205.280238 
L 74.5344 206.854293 
L 74.6832 206.888506 
L 74.9808 206.574145 
L 76.32 204.487671 
L 76.4688 204.582451 
L 77.2128 205.794093 
L 77.5104 205.411305 
L 78.4032 204.017739 
L 80.04 206.201177 
L 80.1888 206.235375 
L 80.3376 206.110463 
L 80.6352 205.235933 
L 81.2304 203.313543 
L 81.528 202.61987 
L 81.6768 202.583998 
L 81.9744 203.210553 
L 82.4208 204.22015 
L 82.5696 204.293407 
L 82.8672 203.690751 
L 83.3136 202.577302 
L 84.2064 201.171142 
L 84.6528 201.330411 
L 84.8016 201.295497 
L 84.9504 201.409966 
L 85.248 201.930501 
L 85.5456 201.702039 
L 85.8432 201.217855 
L 86.5872 199.317785 
L 86.8848 199.797027 
L 87.48 200.924666 
L 88.0752 200.500267 
L 88.3728 200.338925 
L 88.5216 200.215368 
L 88.6704 200.274038 
L 89.4144 201.662979 
L 89.712 201.600483 
L 89.8608 201.714953 
L 90.1584 202.306593 
L 90.3072 202.363827 
L 90.456 202.204877 
L 90.7536 201.144837 
L 91.2 199.117065 
L 91.3488 199.182749 
L 91.7952 200.255066 
L 92.2416 201.0267 
L 92.5392 200.991147 
L 92.8368 200.720757 
L 93.1344 200.347534 
L 93.2832 200.323461 
L 93.5808 200.667986 
L 94.6224 202.709628 
L 94.92 203.231757 
L 95.0688 203.039326 
L 95.5152 201.246233 
L 95.8128 200.514137 
L 96.2592 201.056832 
L 96.5568 200.875083 
L 96.8544 200.418161 
L 97.3008 199.190561 
L 97.5984 198.248179 
L 97.7472 198.043951 
L 97.896 198.076953 
L 98.3424 198.994942 
L 98.4912 198.863573 
L 98.7888 197.814055 
L 99.2352 194.835132 
L 99.5328 193.377158 
L 99.8304 193.882546 
L 100.128 193.327416 
L 100.5744 192.056451 
L 101.1696 190.161802 
L 101.4672 189.711895 
L 101.9136 188.572778 
L 102.36 189.359239 
L 102.5088 188.899925 
L 102.8064 186.603994 
L 103.4016 179.955345 
L 103.5504 179.346009 
L 103.6992 179.489335 
L 103.9968 180.810201 
L 104.1456 180.990833 
L 104.2944 180.856116 
L 104.4432 180.282492 
L 105.1872 175.433313 
L 105.336 175.282971 
L 105.4848 175.313741 
L 105.7824 175.845595 
L 106.08 176.87646 
L 106.5264 178.832489 
L 106.6752 178.580592 
L 106.824 177.531552 
L 107.1216 172.935705 
L 107.568 166.04297 
L 107.7168 165.490231 
L 108.0144 166.740789 
L 108.1632 166.29678 
L 108.9072 160.398082 
L 109.056 160.110154 
L 109.2048 160.40717 
L 109.5024 162.428565 
L 109.9488 165.461374 
L 110.2464 165.924674 
L 110.3952 166.055565 
L 110.6928 167.540323 
L 110.8416 167.332587 
L 111.1392 164.410421 
L 111.8832 153.226985 
L 112.1808 154.746339 
L 112.3296 154.111176 
L 112.9248 147.089782 
L 113.0736 146.996198 
L 113.3712 148.145678 
L 113.6688 150.422955 
L 114.1152 153.840307 
L 114.5616 155.013382 
L 115.008 157.913866 
L 115.1568 157.580661 
L 115.4544 154.025244 
L 115.9008 146.05254 
L 116.0496 145.19593 
L 116.3472 146.611656 
L 116.6448 143.796785 
L 116.9424 141.099094 
L 117.0912 140.646955 
L 117.24 140.604228 
L 117.3888 140.764773 
L 117.5376 141.140546 
L 117.8352 143.414635 
L 118.4304 149.045811 
L 118.728 150.137738 
L 119.0256 150.528338 
L 119.1744 151.120137 
L 119.472 152.979552 
L 119.6208 152.12916 
L 119.9184 147.621477 
L 120.3648 140.060417 
L 120.5136 140.016096 
L 120.6624 141.497028 
L 120.8112 141.069281 
L 121.2576 137.421874 
L 121.5552 136.759289 
L 121.704 136.622659 
L 121.8528 136.880933 
L 122.0016 137.830968 
L 122.448 141.956501 
L 122.8944 145.368273 
L 123.192 146.984241 
L 123.3408 146.932107 
L 123.7872 145.841457 
L 123.936 146.344294 
L 124.0848 147.409596 
L 124.2336 146.092078 
L 124.9776 129.821914 
L 125.2752 131.85431 
L 125.424 131.510422 
L 126.168 127.017725 
L 126.3168 126.627285 
L 126.4656 126.988869 
L 127.0608 131.41891 
L 127.2096 131.594441 
L 127.3584 132.048653 
L 127.9536 136.006946 
L 128.4 134.246854 
L 128.5488 134.476272 
L 128.8464 136.529553 
L 128.9952 135.063607 
L 129.7392 118.843822 
L 130.0368 121.184393 
L 130.1856 120.545085 
L 130.632 117.549581 
L 130.9296 116.932911 
L 131.0784 117.094094 
L 131.2272 117.970154 
L 131.6736 122.520883 
L 131.9712 124.083442 
L 132.5664 128.61504 
L 133.0128 127.973659 
L 133.1616 128.097375 
L 133.3104 128.510455 
L 133.4592 129.456663 
L 133.7568 132.259896 
L 133.9056 131.723897 
L 134.2032 125.995947 
L 134.6496 115.310407 
L 134.7984 114.725942 
L 135.096 117.277755 
L 135.2448 116.443306 
L 135.6912 111.54869 
L 135.84 111.229992 
L 135.9888 111.759614 
L 136.2864 115.200401 
L 137.0304 123.979176 
L 137.4768 126.56989 
L 138.072 128.490207 
L 138.3696 130.818981 
L 139.1136 138.930228 
L 139.2624 139.390658 
L 139.4112 139.025885 
L 139.7088 136.072311 
L 140.1552 127.534433 
L 140.4528 122.550855 
L 140.6016 122.453445 
L 140.7504 124.487913 
L 140.8992 124.102255 
L 141.4944 116.777309 
L 141.792 116.11026 
L 141.9408 116.317677 
L 142.0896 116.940245 
L 142.3872 119.741246 
L 142.8336 124.720519 
L 143.28 129.996967 
L 143.8752 136.215797 
L 144.6192 141.090485 
L 144.9168 141.356253 
L 145.0656 141.778419 
L 145.3632 143.988897 
L 145.6608 145.628619 
L 145.8096 145.285051 
L 146.1072 143.03105 
L 146.4048 137.376756 
L 147.1488 118.666378 
L 147.2976 119.763406 
L 147.4464 119.738535 
L 148.6368 100.742621 
L 148.7856 100.075731 
L 148.9344 100.742143 
L 149.3808 105.297336 
L 149.8272 103.945063 
L 149.976 104.063518 
L 150.1248 104.721321 
L 150.4224 108.289651 
L 150.72 111.736018 
L 151.0176 113.445411 
L 151.6128 114.678591 
L 151.7616 115.094859 
L 151.9104 114.990115 
L 152.208 114.399591 
L 152.6544 117.654007 
L 152.952 115.353931 
L 153.2496 112.844366 
L 153.5472 111.738888 
L 153.9936 110.53313 
L 154.1424 109.214974 
L 154.7376 99.082651 
L 154.8864 100.693995 
L 155.0352 98.177734 
L 155.4816 86.368701 
L 155.7792 84.690077 
L 155.928 84.553287 
L 156.0768 84.692628 
L 156.2256 85.496626 
L 156.8208 92.43432 
L 157.1184 94.661697 
L 157.5648 101.367103 
L 158.0112 107.069703 
L 158.6064 111.458931 
L 159.3504 119.559816 
L 159.648 122.663731 
L 159.9456 125.606145 
L 160.0944 126.092242 
L 160.2432 126.050631 
L 160.392 125.72747 
L 160.5408 125.723643 
L 160.8384 128.208178 
L 160.9872 128.016864 
L 161.136 127.337858 
L 161.2848 127.294812 
L 161.5824 130.027737 
L 161.88 132.795735 
L 162.1776 133.793121 
L 162.3264 134.089179 
L 162.4752 134.051554 
L 162.624 133.016225 
L 162.9216 125.559113 
L 163.2192 116.62362 
L 163.368 117.196766 
L 163.5168 116.395956 
L 163.9632 104.760062 
L 164.2608 103.193357 
L 164.5584 102.075603 
L 164.7072 102.190711 
L 164.856 103.600697 
L 165.1536 107.692591 
L 165.4512 110.45501 
L 166.4928 124.564279 
L 166.7904 125.326666 
L 166.9392 125.678525 
L 167.088 126.674954 
L 167.5344 131.032934 
L 168.1296 133.078243 
L 168.576 134.535101 
L 168.8736 136.962401 
L 169.0224 136.18423 
L 169.4688 130.36445 
L 169.7664 132.427934 
L 169.9152 132.420122 
L 170.5104 131.570686 
L 170.6592 132.444514 
L 170.808 133.994479 
L 171.1056 134.340439 
L 171.4032 136.452708 
L 171.552 135.820733 
L 171.8496 131.389735 
L 172.1472 121.363113 
L 172.4448 107.911805 
L 172.5936 105.274059 
L 172.7424 107.647313 
L 172.8912 104.96987 
L 173.4864 85.883241 
L 173.784 79.622321 
L 173.9328 78.458174 
L 174.0816 79.752893 
L 174.3792 83.453549 
L 174.6768 84.695657 
L 174.9744 88.06518 
L 175.5696 97.396056 
L 175.7184 98.056728 
L 176.016 98.272594 
L 176.1648 99.03833 
L 176.6112 104.017443 
L 176.9088 108.250113 
L 177.0576 109.110708 
L 177.504 109.803106 
L 177.9504 111.586953 
L 178.0992 112.797653 
L 178.3968 115.962789 
L 178.8432 113.952075 
L 178.992 114.48361 
L 179.2896 117.910846 
L 179.5872 120.77785 
L 179.736 121.212453 
L 179.8848 122.131718 
L 180.0336 124.146257 
L 180.48 125.975381 
L 180.7776 128.203714 
L 180.9264 128.48112 
L 181.0752 128.231774 
L 181.224 126.694563 
L 181.5216 118.095624 
L 182.1168 92.180191 
L 182.4144 91.767749 
L 182.712 77.556605 
L 183.0096 63.543471 
L 183.3072 58.203411 
L 183.456 57.989777 
L 183.6048 59.630297 
L 183.9024 64.037381 
L 184.2 63.246137 
L 184.3488 63.776715 
L 184.6464 69.129211 
L 185.2416 78.446057 
L 185.688 81.217085 
L 185.9856 83.164665 
L 186.7296 91.409354 
L 186.8784 91.46898 
L 187.3248 90.259236 
L 187.4736 90.346762 
L 187.6224 91.01429 
L 187.7712 92.556283 
L 188.0688 96.003607 
L 188.2176 94.947233 
L 188.664 90.477494 
L 188.8128 90.298774 
L 188.9616 91.299189 
L 189.1104 94.167946 
L 189.2592 94.755919 
L 189.408 94.100667 
L 189.5568 94.154076 
L 189.8544 97.477843 
L 190.0032 97.516584 
L 190.152 98.099774 
L 190.5984 103.55526 
L 190.7472 104.102897 
L 190.896 103.897872 
L 191.0448 102.866529 
L 191.3424 98.254579 
L 192.0864 80.145725 
L 192.2352 81.167184 
L 192.384 81.406327 
L 192.6816 69.156473 
L 192.9792 56.980594 
L 193.128 54.987737 
L 193.2768 55.029189 
L 193.4256 56.259977 
L 194.0208 63.93726 
L 194.1696 64.199998 
L 194.3184 65.415801 
L 194.9136 74.434037 
L 195.5088 79.672222 
L 195.8064 81.984574 
L 196.104 86.409195 
L 196.4016 90.261946 
L 196.5504 90.840194 
L 196.6992 90.636285 
L 196.9968 88.074427 
L 197.2944 85.826165 
L 197.4432 86.552841 
L 197.8896 92.596778 
L 198.0384 93.196707 
L 198.1872 93.269088 
L 198.336 93.037279 
L 198.4848 92.500642 
L 198.9312 89.632363 
L 199.2288 92.762743 
L 199.5264 92.417261 
L 200.4192 102.750783 
L 200.7168 105.700053 
L 200.8656 106.132104 
L 201.0144 105.4971 
L 201.9072 94.709685 
L 202.3536 84.737746 
L 202.5024 86.129717 
L 202.6512 85.391722 
L 203.3952 61.673693 
L 203.544 62.156283 
L 203.8416 66.604022 
L 204.1392 72.492675 
L 206.8176 99.111189 
L 207.4128 95.929154 
L 207.5616 96.626973 
L 207.8592 100.079877 
L 208.1568 104.641606 
L 208.4544 106.487311 
L 208.9008 108.263505 
L 209.0496 107.917545 
L 209.3472 106.387987 
L 209.7936 109.279543 
L 209.9424 109.747147 
L 211.1328 124.819365 
L 211.2816 124.732635 
L 212.0256 118.14425 
L 212.472 112.865889 
L 212.9184 103.440312 
L 213.0672 105.669761 
L 213.216 103.183791 
L 213.8112 80.913852 
L 213.96 79.563492 
L 214.1088 79.529534 
L 214.2576 80.715523 
L 214.704 86.702385 
L 215.0016 87.526471 
L 215.1504 88.883846 
L 215.448 92.936042 
L 215.7456 93.509825 
L 216.6384 98.360439 
L 217.0848 103.006666 
L 217.3824 101.286273 
L 217.68 100.077166 
L 217.8288 100.20168 
L 218.1264 101.43486 
L 218.424 104.987726 
L 218.7216 108.031855 
L 219.0192 110.520535 
L 219.4656 116.926534 
L 219.6144 117.439575 
L 220.0608 115.559275 
L 220.3584 119.155186 
L 221.4 132.257345 
L 221.8464 136.12843 
L 221.9952 135.568677 
L 222.888 127.157863 
L 223.1856 126.116635 
L 223.3344 124.202695 
L 223.7808 116.522542 
L 223.9296 117.529334 
L 224.0784 114.021267 
L 224.6736 91.2681 
L 224.8224 89.972902 
L 225.12 93.282002 
L 225.5664 94.206369 
L 225.7152 95.425041 
L 226.1616 100.39969 
L 226.4592 100.423764 
L 226.9056 101.900073 
L 227.2032 103.361554 
L 227.5008 107.115778 
L 227.7984 110.142211 
L 227.9472 109.904503 
L 228.2448 108.226677 
L 228.3936 108.067567 
L 228.5424 108.498343 
L 228.84 110.631338 
L 229.2864 115.866494 
L 229.584 118.599259 
L 230.0304 123.731583 
L 230.4768 127.736748 
L 230.7744 125.997861 
L 231.072 124.83467 
L 231.2208 124.783334 
L 231.3696 125.103466 
L 231.5184 126.193001 
L 231.816 129.289263 
L 232.1136 131.027194 
L 232.56 134.886163 
L 232.7088 135.172497 
L 232.8576 134.522506 
L 233.304 130.704989 
L 233.4528 130.496616 
L 233.8992 131.178173 
L 234.048 130.808299 
L 234.1968 129.393849 
L 234.792 118.366653 
L 234.9408 118.303041 
L 235.2384 106.707482 
L 235.536 94.10832 
L 235.6848 91.005521 
L 235.8336 90.849281 
L 235.9824 93.699545 
L 236.1312 94.243356 
L 236.28 93.822305 
L 236.4288 93.832509 
L 236.5776 94.941015 
L 237.024 100.844177 
L 237.1728 101.318158 
L 237.4704 101.651364 
L 238.0656 103.409702 
L 238.2144 104.735191 
L 238.512 108.696194 
L 238.6608 109.236497 
L 238.8096 109.167146 
L 239.256 107.490276 
L 239.4048 107.546873 
L 239.5536 108.379569 
L 240.5952 121.253745 
L 240.8928 124.388748 
L 241.1904 125.412439 
L 241.6368 129.300264 
L 241.9344 130.556242 
L 242.0832 129.985488 
L 242.5296 124.532393 
L 242.6784 125.175209 
L 242.976 128.124 
L 243.1248 128.641505 
L 243.2736 128.656013 
L 243.72 127.042437 
L 243.8688 127.128528 
L 244.3152 128.363781 
L 244.6128 130.564851 
L 245.0592 134.422385 
L 245.208 134.90099 
L 245.3568 134.227882 
L 245.5056 131.696157 
L 246.1008 116.772526 
L 246.2496 117.30438 
L 246.3984 113.019099 
L 246.9936 86.102933 
L 247.1424 86.125731 
L 247.2912 88.778463 
L 247.44 89.294215 
L 247.5888 89.168266 
L 247.7376 89.498283 
L 247.8864 90.82728 
L 248.3328 97.175885 
L 248.7792 99.81379 
L 248.928 100.050223 
L 249.0768 100.054846 
L 249.2256 100.339586 
L 249.3744 101.537373 
L 249.672 105.729706 
L 250.1184 108.738921 
L 250.8624 112.737549 
L 252.3504 131.341109 
L 252.648 133.166247 
L 253.2432 140.007168 
L 253.392 140.643607 
L 253.5408 139.69692 
L 254.136 131.343182 
L 254.2848 131.984722 
L 254.4336 133.531339 
L 254.5824 133.230657 
L 255.3264 125.823286 
L 255.4752 126.561759 
L 256.368 135.792355 
L 256.6656 137.946394 
L 256.8144 137.938901 
L 256.9632 136.854946 
L 257.2608 131.401054 
L 257.856 113.45147 
L 258.0048 115.817071 
L 258.1536 112.482144 
L 258.7488 84.780473 
L 258.8976 83.690141 
L 259.0464 85.192915 
L 259.344 89.59123 
L 259.7904 94.176874 
L 260.3856 102.773582 
L 261.7248 115.914322 
L 262.0224 118.862157 
L 262.7664 122.700559 
L 263.6592 133.587458 
L 264.1056 137.769588 
L 264.2544 138.026268 
L 264.4032 138.808265 
L 264.7008 141.062426 
L 264.8496 141.750201 
L 265.296 145.135029 
L 265.4448 144.013449 
L 265.8912 137.254634 
L 266.04 136.493681 
L 266.1888 136.981692 
L 266.3376 138.789453 
L 266.4864 138.983477 
L 266.784 136.015236 
L 267.0816 133.073938 
L 267.2304 132.635191 
L 267.3792 133.026269 
L 268.4208 141.535769 
L 268.5696 142.021867 
L 268.7184 141.509782 
L 269.016 137.815822 
L 269.4624 127.641888 
L 269.9088 115.074612 
L 270.0576 115.340379 
L 270.2064 114.956157 
L 270.504 102.517221 
L 270.8016 89.526343 
L 270.9504 86.642121 
L 271.0992 86.285957 
L 271.6944 92.802919 
L 271.992 94.816023 
L 273.1824 108.542983 
L 273.6288 111.470729 
L 274.3728 119.420635 
L 275.1168 122.00545 
L 275.5632 127.064119 
L 276.1584 134.240318 
L 276.456 136.222174 
L 276.7536 138.945852 
L 277.0512 139.780461 
L 277.3488 140.709451 
L 277.4976 140.047663 
L 278.0928 134.24797 
L 278.2416 134.02493 
L 278.3904 134.573842 
L 278.688 137.255271 
L 278.8368 137.382336 
L 279.1344 135.685378 
L 279.432 134.035133 
L 279.5808 134.636338 
L 279.8784 137.448021 
L 280.3248 139.185154 
L 280.6224 141.830712 
L 280.7712 141.997474 
L 281.0688 140.190989 
L 281.5152 135.773064 
L 281.9616 129.041352 
L 282.408 120.839071 
L 282.5568 122.447865 
L 282.7056 120.982716 
L 283.4496 95.949401 
L 283.5984 95.911457 
L 284.9376 112.634398 
L 285.384 118.452425 
L 286.2768 124.456505 
L 286.5744 127.963774 
L 286.7232 128.543935 
L 286.872 128.516673 
L 287.1696 128.041097 
L 287.3184 128.217106 
L 287.616 129.95137 
L 289.2528 143.395344 
L 289.5504 143.372865 
L 289.848 144.648931 
L 289.9968 145.2825 
L 290.1456 145.356315 
L 290.8896 143.198131 
L 291.0384 143.707665 
L 291.336 145.871748 
L 291.4848 145.406695 
L 291.9312 142.303418 
L 292.08 142.43941 
L 292.3776 144.931917 
L 292.824 147.940174 
L 293.1216 149.991382 
L 293.4192 151.900858 
L 293.568 151.648323 
L 294.7584 144.452515 
L 295.056 139.707123 
L 295.3536 134.61083 
L 295.5024 135.827907 
L 295.6512 134.262957 
L 296.3952 109.831485 
L 296.544 108.733659 
L 296.6928 108.952077 
L 297.288 114.506409 
L 297.5856 115.90938 
L 298.4784 124.474521 
L 298.776 125.354885 
L 299.0736 127.575725 
L 299.52 131.900385 
L 299.6688 132.062045 
L 299.8176 131.99381 
L 299.9664 132.212227 
L 300.264 133.954143 
L 301.1568 141.158083 
L 301.9008 148.640544 
L 302.0496 149.277939 
L 302.3472 149.703135 
L 302.6448 152.014371 
L 302.9424 153.874265 
L 303.6864 154.150874 
L 303.984 153.773506 
L 304.1328 154.147845 
L 304.4304 156.214517 
L 304.5792 156.247519 
L 305.1744 153.235275 
L 305.3232 153.652341 
L 306.216 159.497311 
L 306.3648 160.083211 
L 306.5136 160.213783 
L 306.6624 160.039368 
L 306.96 158.681834 
L 307.2576 157.429044 
L 307.4064 157.585125 
L 307.704 158.249304 
L 307.8528 158.01606 
L 308.0016 157.249687 
L 308.2992 153.751983 
L 308.5968 149.114685 
L 308.7456 149.167455 
L 308.8944 149.036565 
L 309.192 140.265123 
L 309.6384 127.126296 
L 309.7872 125.657481 
L 309.936 125.609493 
L 310.5312 130.009402 
L 310.8288 131.362951 
L 311.2752 136.263626 
L 311.8704 141.389254 
L 312.3168 144.663598 
L 312.912 149.861607 
L 313.656 152.660695 
L 314.9952 160.49916 
L 315.5904 164.709828 
L 315.888 165.813871 
L 316.1856 167.25367 
L 316.3344 167.434622 
L 316.632 166.923494 
L 316.7808 167.124852 
L 317.2272 168.753893 
L 317.376 168.811606 
L 317.5248 169.008182 
L 318.12 171.535443 
L 318.2688 171.683871 
L 318.5664 171.616433 
L 318.7152 171.764702 
L 318.864 172.357935 
L 319.3104 174.907039 
L 319.7568 177.238044 
L 319.9056 177.481491 
L 320.0544 177.382167 
L 320.5008 176.454612 
L 320.6496 176.461627 
L 321.096 176.741902 
L 321.2448 176.63381 
L 321.3936 176.304271 
L 321.6912 174.60827 
L 322.4352 167.578107 
L 322.584 168.155877 
L 322.7328 166.099886 
L 323.4768 147.524225 
L 323.6256 146.947731 
L 323.7744 147.272009 
L 326.6016 168.263969 
L 327.9408 171.505152 
L 328.0896 171.589171 
L 328.2384 171.844894 
L 328.8336 173.669076 
L 328.9824 173.927988 
L 329.28 175.222389 
L 329.4288 175.291581 
L 329.5776 175.505215 
L 329.8752 176.373303 
L 330.024 176.386695 
L 330.3216 176.004545 
L 330.6192 176.534007 
L 331.0656 177.514812 
L 332.8512 186.673824 
L 333.5952 188.829458 
L 334.0416 188.584575 
L 334.3392 188.916825 
L 334.6368 189.154533 
L 335.232 188.694262 
L 335.5296 188.59175 
L 335.6784 188.375565 
L 335.8272 187.954354 
L 336.1248 185.863449 
L 336.5712 180.791866 
L 336.72 180.889596 
L 336.8688 180.57042 
L 337.1664 174.775351 
L 337.6128 165.9285 
L 337.9104 164.078491 
L 338.0592 163.898018 
L 338.208 164.231064 
L 339.3984 170.891033 
L 339.696 171.811893 
L 340.1424 174.46877 
L 341.3328 181.235715 
L 342.0768 182.871453 
L 342.2256 182.783607 
L 342.672 181.492077 
L 342.8208 181.436436 
L 343.1184 181.836602 
L 343.8624 184.003555 
L 344.16 184.483275 
L 344.3088 184.289091 
L 344.6064 183.493224 
L 344.7552 183.445555 
L 345.0528 184.295309 
L 345.4992 186.069271 
L 345.7968 186.19506 
L 345.9456 186.263774 
L 346.0944 186.606386 
L 346.392 187.669455 
L 346.5408 187.657977 
L 347.136 187.044814 
L 347.2848 187.303407 
L 347.88 189.244929 
L 348.0288 189.300569 
L 348.4752 188.884461 
L 348.7728 189.111327 
L 349.5168 189.915007 
L 349.8144 190.18205 
L 350.4096 191.498611 
L 350.5584 191.420969 
L 350.7072 191.104185 
L 351.0048 189.511493 
L 351.6 184.641588 
L 351.7488 185.425817 
L 351.8976 184.513089 
L 352.344 175.36986 
L 352.6416 170.99227 
L 352.9392 169.381723 
L 353.088 169.280486 
L 353.2368 169.687507 
L 353.9808 173.619494 
L 355.0224 177.681893 
L 355.4688 179.819671 
L 356.064 182.398428 
L 356.6592 185.101858 
L 356.808 185.367466 
L 356.9568 185.385641 
L 357.2544 184.796712 
L 357.552 184.290048 
L 357.7008 184.408025 
L 358.1472 185.487357 
L 358.4448 186.663461 
L 359.04 187.477344 
L 359.1888 187.518477 
L 359.6352 186.990768 
L 359.784 187.245535 
L 360.2304 188.774933 
L 360.3792 188.882069 
L 360.6768 188.813196 
L 360.8256 188.970552 
L 361.1232 189.888382 
L 361.272 189.826046 
L 361.8672 188.571821 
L 362.016 188.621722 
L 362.1648 188.900244 
L 362.4624 189.818553 
L 362.6112 189.683198 
L 363.2064 188.645637 
L 363.504 188.440452 
L 364.3968 188.972465 
L 364.6944 189.596309 
L 365.2896 191.814917 
L 365.4384 191.921097 
L 365.5872 191.829744 
L 365.736 191.566049 
L 366.0336 190.12625 
L 366.6288 184.616079 
L 366.7776 184.765464 
L 366.9264 184.68288 
L 367.224 180.36125 
L 367.3728 177.399545 
L 367.3728 177.399545 
" style="fill:none;stroke:#4c72b0;stroke-linecap:round;stroke-width:1.75;"/>
   </g>
   <g id="line2d_44">
    <path clip-path="url(#p53d9ddf4d3)" d="M 54 221.25519 
L 54.8928 222.941615 
L 55.0416 222.841688 
L 55.3392 222.266672 
L 56.232 219.561632 
L 57.4224 215.352381 
L 57.5712 215.28473 
L 57.72 215.428247 
L 58.0176 216.23922 
L 58.464 217.69545 
L 58.6128 217.888998 
L 58.7616 217.818579 
L 59.0592 216.813736 
L 60.2496 210.300335 
L 60.3984 210.276672 
L 60.696 210.728663 
L 61.2912 212.015793 
L 61.5888 212.236268 
L 61.8864 212.069861 
L 62.184 211.511784 
L 62.4816 210.515377 
L 63.0768 207.326475 
L 63.5232 205.153781 
L 63.8208 204.752609 
L 63.9696 204.970008 
L 64.2672 206.099359 
L 64.8624 208.597007 
L 65.0112 208.679756 
L 65.16 208.423314 
L 65.4576 206.962097 
L 66.3504 201.186847 
L 66.4992 200.90453 
L 66.648 200.875539 
L 66.9456 201.368313 
L 67.5408 202.720889 
L 67.8384 202.913457 
L 68.136 202.747251 
L 68.4336 202.308554 
L 68.88 201.111962 
L 69.4752 198.405457 
L 69.9216 196.604771 
L 70.0704 196.341367 
L 70.2192 196.308172 
L 70.368 196.504612 
L 70.6656 197.433519 
L 71.112 199.024985 
L 71.2608 199.269874 
L 71.4096 199.273043 
L 71.5584 199.019009 
L 71.856 197.840619 
L 72.6 194.048592 
L 72.8976 193.344913 
L 73.1952 193.152588 
L 73.6416 193.277915 
L 74.2368 193.684575 
L 74.832 194.350976 
L 74.9808 194.369926 
L 75.1296 194.233975 
L 75.4272 193.366311 
L 75.8736 190.752002 
L 76.32 188.211407 
L 76.6176 187.688055 
L 76.7664 187.892267 
L 77.064 189.04772 
L 77.6592 191.679798 
L 77.808 191.849671 
L 77.9568 191.725906 
L 78.2544 190.679896 
L 79.296 185.503332 
L 79.5936 185.103957 
L 79.8912 185.177323 
L 80.1888 185.591248 
L 81.2304 187.686461 
L 81.3792 187.586415 
L 81.6768 186.697017 
L 82.1232 183.933312 
L 82.5696 181.247823 
L 82.8672 180.662539 
L 83.016 180.845884 
L 83.3136 181.976007 
L 83.9088 184.628504 
L 84.0576 184.827998 
L 84.2064 184.749475 
L 84.504 183.85167 
L 85.3968 179.860095 
L 85.6944 179.291815 
L 86.1408 178.99227 
L 86.4384 178.984814 
L 86.736 179.179238 
L 87.1824 179.965803 
L 87.6288 180.753831 
L 87.7776 180.777868 
L 87.9264 180.602881 
L 88.224 179.604884 
L 89.1168 175.039421 
L 89.2656 174.822764 
L 89.4144 174.866103 
L 89.712 175.592265 
L 90.3072 177.618111 
L 90.6048 177.903974 
L 90.7536 177.790931 
L 91.0512 177.172434 
L 92.0928 173.821052 
L 92.688 172.242354 
L 92.8368 172.111236 
L 92.9856 172.157985 
L 93.2832 172.826451 
L 94.176 175.854423 
L 94.3248 175.679004 
L 94.6224 174.397797 
L 95.5152 168.829722 
L 95.664 168.652355 
L 95.8128 168.794852 
L 96.1104 169.827948 
L 96.7056 172.414986 
L 97.0032 172.801895 
L 97.152 172.690091 
L 97.4496 171.990635 
L 98.9376 166.990929 
L 99.0864 166.869975 
L 99.2352 166.919119 
L 99.5328 167.55446 
L 100.4256 170.560925 
L 100.5744 170.478032 
L 100.872 169.474495 
L 101.7648 164.558484 
L 101.9136 164.327744 
L 102.0624 164.358864 
L 102.36 165.032399 
L 102.9552 166.845318 
L 103.2528 167.135711 
L 103.5504 166.969855 
L 104.1456 166.084948 
L 104.592 165.099701 
L 105.6336 162.057075 
L 105.7824 162.10003 
L 106.08 162.834448 
L 106.824 165.745733 
L 106.9728 165.855659 
L 107.1216 165.683461 
L 107.4192 164.564828 
L 108.312 160.185685 
L 108.4608 160.005628 
L 108.6096 160.025245 
L 108.9072 160.510124 
L 109.8 162.586698 
L 110.0976 162.923051 
L 110.3952 162.918695 
L 110.6928 162.40084 
L 110.9904 161.264602 
L 111.8832 157.195487 
L 112.032 157.162033 
L 112.1808 157.436166 
L 112.4784 158.771368 
L 113.0736 161.996662 
L 113.2224 162.298478 
L 113.3712 162.263816 
L 113.6688 161.229357 
L 114.5616 156.217529 
L 114.7104 155.96438 
L 114.8592 155.946419 
L 115.1568 156.448268 
L 116.0496 158.636472 
L 116.3472 158.938176 
L 116.6448 158.968333 
L 116.9424 158.624701 
L 117.24 157.789078 
L 118.2816 153.912481 
L 118.4304 153.972452 
L 118.728 154.799484 
L 119.472 157.842097 
L 119.6208 157.978466 
L 119.7696 157.860396 
L 120.0672 156.96971 
L 120.8112 153.904628 
L 121.1088 153.393275 
L 121.4064 153.304276 
L 121.8528 153.506216 
L 122.2992 153.960537 
L 122.7456 154.889413 
L 123.192 155.76921 
L 123.3408 155.812525 
L 123.4896 155.648619 
L 123.7872 154.646121 
L 124.68 150.220205 
L 124.8288 150.142896 
L 124.9776 150.373753 
L 125.2752 151.590319 
L 125.8704 154.538171 
L 126.0192 154.856774 
L 126.168 154.911805 
L 126.3168 154.710865 
L 126.6144 153.706178 
L 127.5072 150.098719 
L 127.8048 149.62779 
L 128.1024 149.588042 
L 128.4 149.981498 
L 128.8464 151.342352 
L 129.4416 153.275506 
L 129.5904 153.388465 
L 129.7392 153.246083 
L 130.0368 152.162872 
L 130.9296 147.176128 
L 131.0784 147.047405 
L 131.2272 147.249091 
L 131.5248 148.465612 
L 132.12 151.523844 
L 132.4176 151.956367 
L 132.5664 151.788145 
L 132.864 150.876807 
L 133.608 148.144862 
L 134.0544 147.442736 
L 134.352 147.272746 
L 134.6496 147.313999 
L 134.9472 147.671514 
L 135.3936 148.876072 
L 135.84 150.104888 
L 135.9888 150.2498 
L 136.1376 150.179413 
L 136.4352 149.351567 
L 137.328 145.215693 
L 137.4768 145.060774 
L 137.6256 145.155963 
L 137.9232 145.952196 
L 138.6672 148.385487 
L 138.9648 148.540343 
L 139.2624 148.241099 
L 139.8576 147.043506 
L 140.6016 144.868685 
L 140.8992 144.140448 
L 141.048 143.980546 
L 141.1968 144.017223 
L 141.4944 144.747857 
L 142.3872 148.564502 
L 142.536 148.55358 
L 142.6848 148.215201 
L 142.9824 146.698499 
L 143.5776 142.915602 
L 143.8752 142.216238 
L 144.024 142.320872 
L 144.3216 143.263545 
L 145.0656 146.33686 
L 145.3632 146.666092 
L 145.512 146.59692 
L 145.8096 146.102228 
L 146.256 144.782944 
L 147.1488 141.811965 
L 147.2976 141.64703 
L 147.4464 141.685357 
L 147.744 142.417518 
L 148.6368 146.280747 
L 148.7856 146.330296 
L 148.9344 146.074407 
L 149.232 144.77244 
L 149.976 140.895367 
L 150.1248 140.678844 
L 150.2736 140.718648 
L 150.5712 141.402553 
L 151.3152 143.612059 
L 151.6128 143.862648 
L 151.9104 143.823418 
L 152.3568 143.515671 
L 152.6544 143.084235 
L 153.1008 141.824593 
L 153.696 139.937611 
L 153.8448 139.789297 
L 153.9936 139.865057 
L 154.2912 140.69129 
L 155.0352 143.925793 
L 155.184 144.122592 
L 155.3328 144.049457 
L 155.6304 143.164807 
L 156.5232 139.375496 
L 156.8208 139.19551 
L 157.1184 139.562965 
L 157.8624 141.30227 
L 158.4576 142.557409 
L 158.7552 142.692295 
L 158.904 142.51322 
L 159.2016 141.573702 
L 160.0944 137.337558 
L 160.2432 137.255704 
L 160.392 137.499605 
L 160.6896 138.847351 
L 161.2848 142.410391 
L 161.5824 142.963433 
L 161.7312 142.747514 
L 162.0288 141.500298 
L 162.7728 137.684989 
L 163.0704 137.311629 
L 163.2192 137.412212 
L 163.5168 137.993045 
L 164.7072 140.838091 
L 165.0048 141.013639 
L 165.1536 140.898942 
L 165.4512 140.175038 
L 166.4928 136.150487 
L 166.6416 136.227837 
L 166.9392 137.138782 
L 167.6832 140.509491 
L 167.832 140.718239 
L 167.9808 140.676933 
L 168.2784 139.956782 
L 169.0224 137.304915 
L 169.32 136.855061 
L 169.6176 136.743723 
L 170.064 136.847029 
L 170.3616 137.090243 
L 170.6592 137.623049 
L 171.552 139.833629 
L 171.7008 139.767325 
L 171.9984 138.920505 
L 172.8912 134.639852 
L 173.04 134.543416 
L 173.1888 134.745579 
L 173.4864 135.892319 
L 174.0816 138.844395 
L 174.3792 139.397207 
L 174.528 139.334395 
L 174.8256 138.663906 
L 176.016 134.953068 
L 176.3136 134.688897 
L 176.4624 134.73604 
L 176.76 135.269197 
L 177.2064 137.068111 
L 177.6528 138.913858 
L 177.8016 139.187967 
L 177.9504 139.185859 
L 178.0992 138.883278 
L 178.3968 137.465135 
L 179.1408 133.223932 
L 179.2896 133.042356 
L 179.4384 133.196106 
L 179.736 134.351086 
L 180.48 137.969731 
L 180.6288 138.168211 
L 180.7776 138.130569 
L 181.0752 137.497668 
L 181.968 134.794973 
L 182.4144 134.103349 
L 182.712 133.918136 
L 183.0096 134.093543 
L 183.3072 134.757941 
L 184.2 137.583367 
L 184.3488 137.571047 
L 184.4976 137.311582 
L 184.7952 136.146704 
L 185.3904 133.223861 
L 185.688 132.706295 
L 185.8368 132.808033 
L 186.1344 133.582613 
L 186.8784 135.951499 
L 187.176 136.215683 
L 187.4736 136.129619 
L 187.92 135.65975 
L 188.3664 134.744284 
L 189.2592 132.212063 
L 189.408 132.19811 
L 189.5568 132.423862 
L 189.8544 133.562708 
L 190.5984 137.116644 
L 190.7472 137.220021 
L 190.896 136.997428 
L 191.1936 135.69575 
L 191.9376 131.595278 
L 192.0864 131.345619 
L 192.2352 131.373575 
L 192.5328 132.124435 
L 193.4256 135.421896 
L 193.7232 135.749286 
L 194.0208 135.617697 
L 194.3184 135.071329 
L 194.7648 133.550104 
L 195.36 131.293355 
L 195.5088 131.036793 
L 195.6576 131.011367 
L 195.8064 131.242005 
L 196.104 132.420122 
L 196.848 136.144618 
L 196.9968 136.29731 
L 197.1456 136.131453 
L 197.4432 134.963025 
L 198.1872 131.148623 
L 198.336 130.903105 
L 198.4848 130.903881 
L 198.7824 131.495943 
L 199.5264 133.669818 
L 199.9728 134.175398 
L 200.4192 134.27856 
L 200.7168 134.107867 
L 201.0144 133.568362 
L 201.4608 132.035087 
L 201.9072 130.61755 
L 202.056 130.462418 
L 202.2048 130.541055 
L 202.5024 131.39308 
L 203.2464 134.742583 
L 203.3952 134.982263 
L 203.544 134.965885 
L 203.8416 134.239129 
L 204.7344 130.887062 
L 205.032 130.645042 
L 205.3296 130.843464 
L 205.776 131.594878 
L 206.3712 133.155641 
L 206.8176 134.262867 
L 206.9664 134.403991 
L 207.1152 134.350616 
L 207.4128 133.57088 
L 208.4544 128.939905 
L 208.6032 129.115012 
L 208.9008 130.374993 
L 209.6448 134.581993 
L 209.7936 134.809543 
L 209.9424 134.721774 
L 210.24 133.741932 
L 210.984 130.205611 
L 211.2816 129.680935 
L 211.4304 129.667553 
L 211.728 130.013435 
L 212.1744 131.075727 
L 213.0672 133.537836 
L 213.216 133.695622 
L 213.3648 133.678708 
L 213.5136 133.461598 
L 213.8112 132.432567 
L 214.5552 128.923823 
L 214.704 128.693578 
L 214.8528 128.749639 
L 215.1504 129.664152 
L 215.8944 133.199713 
L 216.0432 133.45871 
L 216.192 133.474438 
L 216.4896 132.887756 
L 217.3824 130.260742 
L 217.8288 129.889001 
L 218.2752 129.824 
L 218.5728 130.010923 
L 218.8704 130.575087 
L 219.7632 133.194413 
L 219.912 133.192231 
L 220.0608 132.940707 
L 220.3584 131.755424 
L 221.1024 128.246177 
L 221.2512 128.117716 
L 221.4 128.27319 
L 221.6976 129.296198 
L 222.4416 132.511279 
L 222.7392 132.780282 
L 223.0368 132.389686 
L 223.632 130.695544 
L 224.376 128.668359 
L 224.6736 128.383456 
L 224.8224 128.478448 
L 225.12 129.239486 
L 226.1616 133.394465 
L 226.3104 133.194196 
L 226.608 131.899954 
L 227.352 127.518854 
L 227.5008 127.26132 
L 227.6496 127.335509 
L 227.9472 128.346021 
L 228.6912 131.972496 
L 228.9888 132.338195 
L 229.1376 132.226793 
L 229.4352 131.609101 
L 230.6256 128.599585 
L 230.9232 128.241471 
L 231.072 128.223245 
L 231.2208 128.348775 
L 231.5184 129.074357 
L 232.4112 132.351677 
L 232.56 132.381656 
L 232.7088 132.15085 
L 233.0064 131.016829 
L 233.6016 128.131208 
L 233.8992 127.613981 
L 234.048 127.701711 
L 234.3456 128.414086 
L 235.0896 130.620869 
L 235.3872 130.949948 
L 235.6848 131.026762 
L 235.9824 130.96004 
L 236.28 130.704191 
L 236.5776 130.112608 
L 237.6192 127.215667 
L 237.768 127.392824 
L 238.0656 128.486104 
L 238.8096 132.241876 
L 238.9584 132.430536 
L 239.1072 132.302326 
L 239.4048 131.196876 
L 240.1488 127.302256 
L 240.4464 126.940228 
L 240.5952 127.107315 
L 240.8928 127.93695 
L 241.7856 130.849046 
L 242.0832 131.252285 
L 242.232 131.300202 
L 242.3808 131.228917 
L 242.6784 130.679453 
L 243.1248 128.89474 
L 243.5712 126.930954 
L 243.8688 126.446685 
L 244.0176 126.616075 
L 244.3152 127.77245 
L 245.0592 131.860383 
L 245.208 132.106184 
L 245.3568 132.02706 
L 245.6544 130.998997 
L 246.3984 127.237864 
L 246.696 126.882157 
L 246.8448 127.024165 
L 247.2912 128.163785 
L 247.8864 129.621894 
L 248.4816 130.367502 
L 248.7792 130.480575 
L 249.0768 130.210727 
L 249.3744 129.421838 
L 250.1184 126.708534 
L 250.2672 126.535568 
L 250.416 126.605653 
L 250.7136 127.456879 
L 251.4576 130.825159 
L 251.6064 131.086139 
L 251.7552 131.105697 
L 252.0528 130.499958 
L 252.9456 127.530365 
L 253.2432 127.220554 
L 253.5408 127.240836 
L 253.8384 127.490528 
L 254.136 127.984086 
L 254.5824 129.276814 
L 255.1776 130.977309 
L 255.3264 131.034166 
L 255.4752 130.846587 
L 255.7728 129.734906 
L 256.5168 125.748131 
L 256.6656 125.503981 
L 256.8144 125.59514 
L 257.112 126.711684 
L 257.856 130.938844 
L 258.0048 131.256494 
L 258.1536 131.282468 
L 258.3024 131.036025 
L 258.6 129.94238 
L 259.344 126.949528 
L 259.6416 126.538146 
L 259.9392 126.605526 
L 260.2368 127.062947 
L 260.6832 128.369542 
L 261.4272 130.729555 
L 261.576 130.811057 
L 261.7248 130.658781 
L 262.0224 129.652456 
L 262.9152 125.561866 
L 263.064 125.573555 
L 263.3616 126.438965 
L 264.2544 130.345062 
L 264.4032 130.414515 
L 264.552 130.271065 
L 264.8496 129.538194 
L 265.4448 127.855961 
L 265.8912 127.215563 
L 266.4864 126.817377 
L 266.784 126.935642 
L 267.0816 127.515483 
L 268.1232 130.480518 
L 268.272 130.268779 
L 268.5696 129.150034 
L 269.3136 125.693373 
L 269.4624 125.534719 
L 269.6112 125.641603 
L 269.9088 126.522567 
L 270.6528 129.493848 
L 270.9504 129.883294 
L 271.0992 129.866749 
L 271.3968 129.520994 
L 271.8432 128.510373 
L 272.8848 125.676846 
L 273.0336 125.661909 
L 273.1824 125.866883 
L 273.48 126.944289 
L 274.224 130.76474 
L 274.3728 130.998791 
L 274.5216 130.900094 
L 274.8192 129.750873 
L 275.5632 125.29663 
L 275.712 124.958114 
L 275.8608 124.938755 
L 276.0096 125.221561 
L 276.3072 126.457464 
L 276.9024 129.237329 
L 277.2 129.783608 
L 277.3488 129.799743 
L 277.6464 129.451092 
L 278.2416 128.01889 
L 279.1344 125.780233 
L 279.2832 125.692458 
L 279.432 125.780684 
L 279.7296 126.530871 
L 280.6224 130.202858 
L 280.7712 130.273293 
L 280.92 130.070263 
L 281.2176 128.965154 
L 281.8128 126.095196 
L 282.1104 125.556934 
L 282.2592 125.61889 
L 282.5568 126.246822 
L 283.3008 128.253718 
L 283.7472 128.751594 
L 284.1936 128.959357 
L 284.4912 128.853885 
L 284.7888 128.328828 
L 285.2352 126.72068 
L 285.6816 125.246661 
L 285.8304 125.111208 
L 285.9792 125.236509 
L 286.2768 126.258468 
L 287.0208 130.084445 
L 287.1696 130.33711 
L 287.3184 130.288409 
L 287.616 129.371442 
L 288.5088 125.396498 
L 288.6576 125.256804 
L 288.8064 125.31178 
L 289.104 125.873334 
L 290.4432 129.509296 
L 290.592 129.588172 
L 290.7408 129.509043 
L 291.0384 128.807542 
L 291.4848 126.648416 
L 291.9312 124.69443 
L 292.08 124.474909 
L 292.2288 124.562815 
L 292.5264 125.641014 
L 293.4192 130.304346 
L 293.568 130.314942 
L 293.7168 130.013695 
L 294.0144 128.705888 
L 294.6096 125.794369 
L 294.9072 125.309452 
L 295.056 125.360421 
L 295.3536 125.866475 
L 296.544 128.523148 
L 296.9904 129.03806 
L 297.1392 129.008036 
L 297.4368 128.489812 
L 297.8832 126.718066 
L 298.3296 125.061662 
L 298.4784 124.865706 
L 298.6272 124.921807 
L 298.9248 125.759504 
L 299.8176 129.372679 
L 299.9664 129.417992 
L 300.1152 129.252065 
L 300.4128 128.461429 
L 301.1568 126.304903 
L 301.6032 125.836435 
L 301.9008 125.778315 
L 302.1984 125.953879 
L 302.496 126.50382 
L 302.9424 128.071351 
L 303.3888 129.544103 
L 303.5376 129.698833 
L 303.6864 129.595079 
L 303.984 128.588941 
L 304.8768 124.146076 
L 305.0256 124.150873 
L 305.1744 124.48091 
L 305.472 125.910627 
L 306.0672 129.194777 
L 306.3648 129.709739 
L 306.5136 129.58858 
L 306.8112 128.770423 
L 307.704 125.639182 
L 308.0016 125.207266 
L 308.2992 125.191303 
L 308.5968 125.651484 
L 309.0432 127.238828 
L 309.6384 129.537673 
L 309.7872 129.722811 
L 309.936 129.6453 
L 310.2336 128.689595 
L 311.1264 124.268827 
L 311.2752 124.220471 
L 311.424 124.475994 
L 311.7216 125.705076 
L 312.3168 128.587869 
L 312.6144 129.058324 
L 312.7632 128.983288 
L 313.0608 128.403952 
L 313.8048 126.629686 
L 314.5488 125.601149 
L 314.8464 125.449887 
L 314.9952 125.531178 
L 315.2928 126.123612 
L 316.3344 129.367791 
L 316.4832 129.186049 
L 316.7808 128.124099 
L 317.5248 124.747479 
L 317.6736 124.565582 
L 317.8224 124.628454 
L 318.12 125.366004 
L 319.0128 128.318863 
L 319.3104 128.577797 
L 319.608 128.485974 
L 319.9056 128.106389 
L 320.352 126.956472 
L 321.096 124.532265 
L 321.2448 124.403943 
L 321.3936 124.518087 
L 321.6912 125.50869 
L 322.584 129.967989 
L 322.7328 129.970332 
L 322.8816 129.631889 
L 323.1792 128.122669 
L 323.7744 124.565495 
L 324.072 124.03535 
L 324.2208 124.207116 
L 324.5184 125.218028 
L 325.2624 128.259202 
L 325.56 128.681054 
L 325.8576 128.615292 
L 326.1552 128.190188 
L 326.6016 127.02112 
L 327.3456 124.68629 
L 327.4944 124.514844 
L 327.6432 124.549856 
L 327.9408 125.291841 
L 328.9824 129.432097 
L 329.1312 129.263168 
L 329.4288 128.200659 
L 330.1728 124.956468 
L 330.3216 124.776694 
L 330.4704 124.803647 
L 330.768 125.329617 
L 331.512 127.121202 
L 332.1072 127.887292 
L 332.5536 128.221035 
L 332.7024 128.185525 
L 333 127.714985 
L 333.4464 126.042059 
L 333.8928 124.416009 
L 334.0416 124.228922 
L 334.1904 124.306034 
L 334.488 125.24687 
L 335.3808 129.343459 
L 335.5296 129.360941 
L 335.6784 129.107294 
L 335.976 127.979583 
L 336.5712 125.331588 
L 336.8688 124.745687 
L 337.0176 124.695396 
L 337.3152 124.984685 
L 337.7616 126.033696 
L 338.8032 128.954848 
L 338.952 129.004593 
L 339.1008 128.844099 
L 339.3984 127.861748 
L 340.2912 123.633974 
L 340.44 123.62819 
L 340.5888 123.954878 
L 340.8864 125.442806 
L 341.4816 129.034319 
L 341.7792 129.554102 
L 341.928 129.349407 
L 342.2256 128.219545 
L 342.8208 125.410985 
L 343.1184 124.794334 
L 343.2672 124.743755 
L 343.5648 125.024703 
L 344.16 126.260458 
L 345.2016 128.548659 
L 345.3504 128.567161 
L 345.4992 128.407784 
L 345.7968 127.539756 
L 346.5408 124.36797 
L 346.6896 124.144854 
L 346.8384 124.182312 
L 347.136 124.99626 
L 348.0288 128.565513 
L 348.1776 128.632588 
L 348.3264 128.505437 
L 348.624 127.838662 
L 349.368 125.958657 
L 349.9632 125.229798 
L 350.2608 125.081689 
L 350.4096 125.123079 
L 350.7072 125.573677 
L 351.1536 127.205981 
L 351.6 128.915018 
L 351.7488 129.154741 
L 351.8976 129.128422 
L 352.0464 128.816658 
L 352.344 127.445037 
L 352.9392 124.079621 
L 353.088 123.69167 
L 353.2368 123.615475 
L 353.3856 123.853605 
L 353.6832 125.094128 
L 354.2784 128.22401 
L 354.576 128.875999 
L 354.7248 128.873543 
L 355.0224 128.340008 
L 356.3616 124.53768 
L 356.5104 124.438498 
L 356.6592 124.482566 
L 356.9568 125.07157 
L 357.4032 127.055217 
L 357.8496 129.041075 
L 357.9984 129.334392 
L 358.1472 129.342453 
L 358.296 129.048151 
L 358.5936 127.672343 
L 359.1888 124.208148 
L 359.4864 123.663474 
L 359.6352 123.851862 
L 359.9328 124.970666 
L 360.528 127.813424 
L 360.8256 128.384651 
L 360.9744 128.385849 
L 361.272 127.981135 
L 362.76 125.03253 
L 363.0576 124.767518 
L 363.2064 124.823388 
L 363.504 125.428457 
L 364.5456 128.913441 
L 364.6944 128.755448 
L 364.992 127.744424 
L 365.736 124.473375 
L 365.8848 124.275783 
L 366.0336 124.301026 
L 366.3312 124.901503 
L 367.224 127.515338 
L 367.3728 127.741319 
L 367.3728 127.741319 
" style="fill:none;stroke:#55a868;stroke-linecap:round;stroke-width:1.75;"/>
   </g>
   <g id="patch_3">
    <path d="M 54 252 
L 54 28.8 
" style="fill:none;"/>
   </g>
   <g id="patch_4">
    <path d="M 54 252 
L 388.8 252 
" style="fill:none;"/>
   </g>
   <g id="patch_5">
    <path d="M 54 28.8 
L 388.8 28.8 
" style="fill:none;"/>
   </g>
   <g id="patch_6">
    <path d="M 388.8 252 
L 388.8 28.8 
" style="fill:none;"/>
   </g>
   <g id="text_15">
    <!-- exp : 1, sin : 3 -->
    <defs>
     <path d="M 51.421875 26.65625 
Q 51.421875 20.65625 50.4375 15.578125 
Q 49.46875 10.5 47.1875 6.828125 
Q 44.921875 3.171875 41.1875 1.09375 
Q 37.453125 -0.984375 31.984375 -0.984375 
Q 26.3125 -0.984375 22.0625 1.171875 
Q 17.828125 3.328125 15.578125 8.203125 
L 15.328125 8.203125 
Q 15.375 8.109375 15.40625 7.328125 
Q 15.4375 6.546875 15.453125 5.375 
Q 15.484375 4.203125 15.5 2.75 
Q 15.53125 1.3125 15.53125 -0.09375 
L 15.53125 -20.75 
L 6.734375 -20.75 
L 6.734375 42.046875 
Q 6.734375 43.953125 6.703125 45.703125 
Q 6.6875 47.46875 6.640625 48.90625 
Q 6.59375 50.34375 6.546875 51.359375 
Q 6.5 52.390625 6.453125 52.828125 
L 14.9375 52.828125 
Q 14.984375 52.6875 15.0625 51.796875 
Q 15.140625 50.921875 15.203125 49.671875 
Q 15.28125 48.4375 15.359375 47.015625 
Q 15.4375 45.609375 15.4375 44.34375 
L 15.625 44.34375 
Q 16.84375 46.875 18.40625 48.65625 
Q 19.96875 50.4375 21.96875 51.578125 
Q 23.96875 52.734375 26.4375 53.25 
Q 28.90625 53.765625 31.984375 53.765625 
Q 37.453125 53.765625 41.1875 51.8125 
Q 44.921875 49.859375 47.1875 46.3125 
Q 49.46875 42.78125 50.4375 37.765625 
Q 51.421875 32.765625 51.421875 26.65625 
M 42.1875 26.46875 
Q 42.1875 31.34375 41.59375 35.15625 
Q 41.015625 38.96875 39.578125 41.59375 
Q 38.140625 44.234375 35.734375 45.59375 
Q 33.34375 46.96875 29.734375 46.96875 
Q 26.8125 46.96875 24.21875 46.140625 
Q 21.625 45.3125 19.703125 42.96875 
Q 17.78125 40.625 16.65625 36.5 
Q 15.53125 32.375 15.53125 25.78125 
Q 15.53125 20.171875 16.453125 16.28125 
Q 17.390625 12.40625 19.171875 10.015625 
Q 20.953125 7.625 23.578125 6.5625 
Q 26.21875 5.515625 29.640625 5.515625 
Q 33.296875 5.515625 35.71875 6.921875 
Q 38.140625 8.34375 39.578125 11.03125 
Q 41.015625 13.71875 41.59375 17.59375 
Q 42.1875 21.484375 42.1875 26.46875 
" id="LiberationSans-70"/>
     <path d="M 9.125 42.71875 
L 9.125 52.828125 
L 18.65625 52.828125 
L 18.65625 42.71875 
z
M 9.125 0 
L 9.125 10.109375 
L 18.65625 10.109375 
L 18.65625 0 
z
" id="LiberationSans-3a"/>
     <path d="M 18.796875 10.6875 
L 18.796875 2.484375 
Q 18.796875 -0.09375 18.578125 -2.21875 
Q 18.359375 -4.34375 17.875 -6.171875 
Q 17.390625 -8.015625 16.671875 -9.625 
Q 15.96875 -11.234375 14.984375 -12.796875 
L 8.984375 -12.796875 
Q 11.1875 -9.625 12.375 -6.390625 
Q 13.578125 -3.171875 13.578125 0 
L 9.28125 0 
L 9.28125 10.6875 
z
" id="LiberationSans-2c"/>
     <path d="M 13.484375 24.5625 
Q 13.484375 20.40625 14.328125 16.90625 
Q 15.1875 13.421875 16.96875 10.90625 
Q 18.75 8.40625 21.53125 7 
Q 24.3125 5.609375 28.21875 5.609375 
Q 33.9375 5.609375 37.375 7.90625 
Q 40.828125 10.203125 42.046875 13.71875 
L 49.75 11.53125 
Q 48.921875 9.328125 47.4375 7.109375 
Q 45.953125 4.890625 43.453125 3.09375 
Q 40.96875 1.3125 37.234375 0.15625 
Q 33.5 -0.984375 28.21875 -0.984375 
Q 16.5 -0.984375 10.375 6 
Q 4.25 12.984375 4.25 26.765625 
Q 4.25 34.1875 6.09375 39.328125 
Q 7.953125 44.484375 11.171875 47.703125 
Q 14.40625 50.921875 18.703125 52.359375 
Q 23 53.8125 27.875 53.8125 
Q 34.515625 53.8125 38.984375 51.65625 
Q 43.453125 49.515625 46.15625 45.71875 
Q 48.875 41.9375 50.015625 36.8125 
Q 51.171875 31.6875 51.171875 25.734375 
L 51.171875 24.5625 
z
M 42.09375 31.296875 
Q 41.359375 39.65625 37.84375 43.484375 
Q 34.328125 47.3125 27.734375 47.3125 
Q 25.53125 47.3125 23.109375 46.609375 
Q 20.703125 45.90625 18.65625 44.09375 
Q 16.609375 42.28125 15.1875 39.171875 
Q 13.765625 36.078125 13.578125 31.296875 
z
" id="LiberationSans-65"/>
     <path id="LiberationSans-20"/>
     <path d="M 39.109375 0 
L 24.90625 21.6875 
L 10.59375 0 
L 1.125 0 
L 19.921875 27.15625 
L 2 52.828125 
L 11.71875 52.828125 
L 24.90625 32.28125 
L 37.984375 52.828125 
L 47.796875 52.828125 
L 29.890625 27.25 
L 48.921875 0 
z
" id="LiberationSans-78"/>
     <path d="M 51.21875 19 
Q 51.21875 14.265625 49.671875 10.546875 
Q 48.140625 6.84375 45.1875 4.265625 
Q 42.234375 1.703125 37.859375 0.359375 
Q 33.5 -0.984375 27.875 -0.984375 
Q 21.484375 -0.984375 17.109375 0.609375 
Q 12.75 2.203125 9.90625 4.8125 
Q 7.078125 7.421875 5.65625 10.765625 
Q 4.25 14.109375 3.8125 17.671875 
L 12.890625 18.5 
Q 13.28125 15.765625 14.328125 13.515625 
Q 15.375 11.28125 17.1875 9.671875 
Q 19 8.0625 21.625 7.171875 
Q 24.265625 6.296875 27.875 6.296875 
Q 34.515625 6.296875 38.296875 9.5625 
Q 42.09375 12.84375 42.09375 19.28125 
Q 42.09375 23.09375 40.40625 25.40625 
Q 38.71875 27.734375 36.203125 29.03125 
Q 33.6875 30.328125 30.734375 30.765625 
Q 27.78125 31.203125 25.296875 31.203125 
L 20.3125 31.203125 
L 20.3125 38.8125 
L 25.09375 38.8125 
Q 27.59375 38.8125 30.265625 39.328125 
Q 32.953125 39.84375 35.171875 41.1875 
Q 37.40625 42.53125 38.84375 44.828125 
Q 40.28125 47.125 40.28125 50.6875 
Q 40.28125 56.203125 37.03125 59.390625 
Q 33.796875 62.59375 27.390625 62.59375 
Q 21.578125 62.59375 17.984375 59.609375 
Q 14.40625 56.640625 13.8125 51.21875 
L 4.984375 51.90625 
Q 5.515625 56.453125 7.46875 59.8125 
Q 9.421875 63.1875 12.421875 65.40625 
Q 15.4375 67.625 19.28125 68.71875 
Q 23.140625 69.828125 27.484375 69.828125 
Q 33.25 69.828125 37.390625 68.375 
Q 41.546875 66.9375 44.1875 64.46875 
Q 46.828125 62.015625 48.0625 58.6875 
Q 49.3125 55.375 49.3125 51.609375 
Q 49.3125 48.578125 48.484375 45.9375 
Q 47.65625 43.3125 45.890625 41.203125 
Q 44.140625 39.109375 41.421875 37.59375 
Q 38.71875 36.078125 34.90625 35.296875 
L 34.90625 35.109375 
Q 39.0625 34.671875 42.140625 33.21875 
Q 45.21875 31.78125 47.21875 29.625 
Q 49.21875 27.484375 50.21875 24.75 
Q 51.21875 22.015625 51.21875 19 
" id="LiberationSans-33"/>
     <path d="M 40.28125 0 
L 40.28125 33.5 
Q 40.28125 37.359375 39.71875 39.9375 
Q 39.15625 42.53125 37.890625 44.109375 
Q 36.625 45.703125 34.546875 46.359375 
Q 32.46875 47.015625 29.390625 47.015625 
Q 26.265625 47.015625 23.75 45.921875 
Q 21.234375 44.828125 19.453125 42.75 
Q 17.671875 40.671875 16.6875 37.625 
Q 15.71875 34.578125 15.71875 30.609375 
L 15.71875 0 
L 6.9375 0 
L 6.9375 41.546875 
Q 6.9375 43.21875 6.90625 45.046875 
Q 6.890625 46.875 6.828125 48.5 
Q 6.78125 50.140625 6.734375 51.3125 
Q 6.6875 52.484375 6.640625 52.828125 
L 14.9375 52.828125 
Q 14.984375 52.59375 15.03125 51.515625 
Q 15.09375 50.4375 15.15625 49.046875 
Q 15.234375 47.65625 15.28125 46.21875 
Q 15.328125 44.78125 15.328125 43.796875 
L 15.484375 43.796875 
Q 16.75 46.09375 18.265625 47.953125 
Q 19.78125 49.8125 21.78125 51.09375 
Q 23.78125 52.390625 26.359375 53.09375 
Q 28.953125 53.8125 32.375 53.8125 
Q 36.765625 53.8125 39.9375 52.734375 
Q 43.109375 51.65625 45.15625 49.40625 
Q 47.21875 47.171875 48.171875 43.625 
Q 49.125 40.09375 49.125 35.203125 
L 49.125 0 
z
" id="LiberationSans-6e"/>
     <path d="M 46.390625 14.59375 
Q 46.390625 10.890625 44.9375 7.984375 
Q 43.5 5.078125 40.765625 3.09375 
Q 38.03125 1.125 34.046875 0.0625 
Q 30.078125 -0.984375 24.953125 -0.984375 
Q 20.359375 -0.984375 16.671875 -0.265625 
Q 12.984375 0.4375 10.203125 2 
Q 7.421875 3.5625 5.53125 6.125 
Q 3.65625 8.6875 2.78125 12.40625 
L 10.546875 13.921875 
Q 11.671875 9.671875 15.1875 7.6875 
Q 18.703125 5.71875 24.953125 5.71875 
Q 27.78125 5.71875 30.140625 6.109375 
Q 32.515625 6.5 34.21875 7.453125 
Q 35.9375 8.40625 36.890625 9.984375 
Q 37.84375 11.578125 37.84375 13.921875 
Q 37.84375 16.3125 36.71875 17.84375 
Q 35.59375 19.390625 33.59375 20.40625 
Q 31.59375 21.4375 28.734375 22.1875 
Q 25.875 22.953125 22.46875 23.875 
Q 19.28125 24.703125 16.15625 25.734375 
Q 13.03125 26.765625 10.515625 28.4375 
Q 8.015625 30.125 6.453125 32.609375 
Q 4.890625 35.109375 4.890625 38.875 
Q 4.890625 46.09375 10.03125 49.875 
Q 15.1875 53.65625 25.046875 53.65625 
Q 33.796875 53.65625 38.9375 50.578125 
Q 44.09375 47.515625 45.453125 40.71875 
L 37.546875 39.75 
Q 37.109375 41.796875 35.9375 43.1875 
Q 34.765625 44.578125 33.109375 45.4375 
Q 31.453125 46.296875 29.375 46.65625 
Q 27.296875 47.015625 25.046875 47.015625 
Q 19.09375 47.015625 16.25 45.203125 
Q 13.421875 43.40625 13.421875 39.75 
Q 13.421875 37.59375 14.46875 36.203125 
Q 15.53125 34.8125 17.40625 33.859375 
Q 19.28125 32.90625 21.921875 32.203125 
Q 24.5625 31.5 27.734375 30.71875 
Q 29.828125 30.171875 32.03125 29.5625 
Q 34.234375 28.953125 36.296875 28.09375 
Q 38.375 27.25 40.203125 26.09375 
Q 42.046875 24.953125 43.40625 23.34375 
Q 44.78125 21.734375 45.578125 19.578125 
Q 46.390625 17.4375 46.390625 14.59375 
" id="LiberationSans-73"/>
     <path d="M 6.6875 64.0625 
L 6.6875 72.46875 
L 15.484375 72.46875 
L 15.484375 64.0625 
z
M 6.6875 0 
L 6.6875 52.828125 
L 15.484375 52.828125 
L 15.484375 0 
z
" id="LiberationSans-69"/>
    </defs>
    <g style="fill:#262626;" transform="translate(184.0490625 23.8)scale(0.12 -0.12)">
     <use xlink:href="#LiberationSans-65"/>
     <use x="55.615234375" xlink:href="#LiberationSans-78"/>
     <use x="105.615234375" xlink:href="#LiberationSans-70"/>
     <use x="161.23046875" xlink:href="#LiberationSans-20"/>
     <use x="189.013671875" xlink:href="#LiberationSans-3a"/>
     <use x="216.796875" xlink:href="#LiberationSans-20"/>
     <use x="244.580078125" xlink:href="#LiberationSans-31"/>
     <use x="300.1953125" xlink:href="#LiberationSans-2c"/>
     <use x="327.978515625" xlink:href="#LiberationSans-20"/>
     <use x="355.76171875" xlink:href="#LiberationSans-73"/>
     <use x="405.76171875" xlink:href="#LiberationSans-69"/>
     <use x="427.978515625" xlink:href="#LiberationSans-6e"/>
     <use x="483.59375" xlink:href="#LiberationSans-20"/>
     <use x="511.376953125" xlink:href="#LiberationSans-3a"/>
     <use x="539.16015625" xlink:href="#LiberationSans-20"/>
     <use x="566.943359375" xlink:href="#LiberationSans-33"/>
    </g>
   </g>
  </g>
 </g>
 <defs>
  <clipPath id="p53d9ddf4d3">
   <rect height="223.2" width="334.8" x="54.0" y="28.8"/>
  </clipPath>
 </defs>
</svg>
