<?xml version="1.0" encoding="utf-8" standalone="no"?>
<!DOCTYPE svg PUBLIC "-//W3C//DTD SVG 1.1//EN"
  "http://www.w3.org/Graphics/SVG/1.1/DTD/svg11.dtd">
<!-- Created with matplotlib (http://matplotlib.org/) -->
<svg height="288pt" version="1.1" viewBox="0 0 432 288" width="432pt" xmlns="http://www.w3.org/2000/svg" xmlns:xlink="http://www.w3.org/1999/xlink">
 <defs>
  <style type="text/css">
*{stroke-linecap:butt;stroke-linejoin:round;stroke-miterlimit:100000;}
  </style>
 </defs>
 <g id="figure_1">
  <g id="patch_1">
   <path d="M 0 288 
L 432 288 
L 432 0 
L 0 0 
z
" style="fill:#ffffff;"/>
  </g>
  <g id="axes_1">
   <g id="patch_2">
    <path d="M 54 252 
L 388.8 252 
L 388.8 28.8 
L 54 28.8 
z
" style="fill:#eaeaf2;"/>
   </g>
   <g id="matplotlib.axis_1">
    <g id="xtick_1">
     <g id="line2d_1">
      <path clip-path="url(#pdef545cb91)" d="M 54 252 
L 54 28.8 
" style="fill:none;stroke:#ffffff;stroke-linecap:round;"/>
     </g>
     <g id="line2d_2"/>
     <g id="line2d_3"/>
     <g id="text_1">
      <!-- 0.00 -->
      <defs>
       <path d="M 51.703125 34.421875 
Q 51.703125 24.515625 49.828125 17.75 
Q 47.953125 10.984375 44.703125 6.8125 
Q 41.453125 2.640625 37.0625 0.828125 
Q 32.671875 -0.984375 27.6875 -0.984375 
Q 22.65625 -0.984375 18.3125 0.828125 
Q 13.96875 2.640625 10.765625 6.78125 
Q 7.5625 10.9375 5.734375 17.703125 
Q 3.90625 24.46875 3.90625 34.421875 
Q 3.90625 44.828125 5.734375 51.640625 
Q 7.5625 58.453125 10.78125 62.5 
Q 14.015625 66.546875 18.40625 68.1875 
Q 22.796875 69.828125 27.984375 69.828125 
Q 32.90625 69.828125 37.21875 68.1875 
Q 41.546875 66.546875 44.765625 62.5 
Q 48 58.453125 49.84375 51.640625 
Q 51.703125 44.828125 51.703125 34.421875 
M 42.78125 34.421875 
Q 42.78125 42.625 41.796875 48.0625 
Q 40.828125 53.515625 38.921875 56.765625 
Q 37.015625 60.015625 34.25 61.359375 
Q 31.5 62.703125 27.984375 62.703125 
Q 24.265625 62.703125 21.4375 61.328125 
Q 18.609375 59.96875 16.671875 56.71875 
Q 14.75 53.46875 13.765625 48.015625 
Q 12.796875 42.578125 12.796875 34.421875 
Q 12.796875 26.515625 13.796875 21.09375 
Q 14.796875 15.671875 16.71875 12.375 
Q 18.65625 9.078125 21.4375 7.640625 
Q 24.21875 6.203125 27.78125 6.203125 
Q 31.25 6.203125 34.03125 7.640625 
Q 36.8125 9.078125 38.734375 12.375 
Q 40.671875 15.671875 41.71875 21.09375 
Q 42.78125 26.515625 42.78125 34.421875 
" id="LiberationSans-30"/>
       <path d="M 9.125 0 
L 9.125 10.6875 
L 18.65625 10.6875 
L 18.65625 0 
z
" id="LiberationSans-2e"/>
      </defs>
      <g style="fill:#262626;" transform="translate(44.26953125 266.246875)scale(0.1 -0.1)">
       <use xlink:href="#LiberationSans-30"/>
       <use x="55.615234375" xlink:href="#LiberationSans-2e"/>
       <use x="83.3984375" xlink:href="#LiberationSans-30"/>
       <use x="139.013671875" xlink:href="#LiberationSans-30"/>
      </g>
     </g>
    </g>
    <g id="xtick_2">
     <g id="line2d_4">
      <path clip-path="url(#pdef545cb91)" d="M 120.96 252 
L 120.96 28.8 
" style="fill:none;stroke:#ffffff;stroke-linecap:round;"/>
     </g>
     <g id="line2d_5"/>
     <g id="line2d_6"/>
     <g id="text_2">
      <!-- 0.02 -->
      <defs>
       <path d="M 5.03125 0 
L 5.03125 6.203125 
Q 7.515625 11.921875 11.109375 16.28125 
Q 14.703125 20.65625 18.65625 24.1875 
Q 22.609375 27.734375 26.484375 30.765625 
Q 30.375 33.796875 33.5 36.8125 
Q 36.625 39.84375 38.546875 43.15625 
Q 40.484375 46.484375 40.484375 50.6875 
Q 40.484375 53.609375 39.59375 55.828125 
Q 38.71875 58.0625 37.0625 59.5625 
Q 35.40625 61.078125 33.078125 61.828125 
Q 30.765625 62.59375 27.9375 62.59375 
Q 25.296875 62.59375 22.96875 61.859375 
Q 20.65625 61.140625 18.84375 59.671875 
Q 17.046875 58.203125 15.890625 56.03125 
Q 14.75 53.859375 14.40625 50.984375 
L 5.421875 51.8125 
Q 5.859375 55.515625 7.46875 58.78125 
Q 9.078125 62.0625 11.90625 64.53125 
Q 14.75 67 18.71875 68.40625 
Q 22.703125 69.828125 27.9375 69.828125 
Q 33.0625 69.828125 37.0625 68.609375 
Q 41.0625 67.390625 43.8125 64.984375 
Q 46.578125 62.59375 48.046875 59.078125 
Q 49.515625 55.5625 49.515625 50.984375 
Q 49.515625 47.515625 48.265625 44.390625 
Q 47.015625 41.265625 44.9375 38.421875 
Q 42.875 35.59375 40.140625 32.953125 
Q 37.40625 30.328125 34.421875 27.8125 
Q 31.453125 25.296875 28.421875 22.828125 
Q 25.390625 20.359375 22.71875 17.859375 
Q 20.0625 15.375 17.96875 12.8125 
Q 15.875 10.25 14.703125 7.46875 
L 50.59375 7.46875 
L 50.59375 0 
z
" id="LiberationSans-32"/>
      </defs>
      <g style="fill:#262626;" transform="translate(111.22953125 266.246875)scale(0.1 -0.1)">
       <use xlink:href="#LiberationSans-30"/>
       <use x="55.615234375" xlink:href="#LiberationSans-2e"/>
       <use x="83.3984375" xlink:href="#LiberationSans-30"/>
       <use x="139.013671875" xlink:href="#LiberationSans-32"/>
      </g>
     </g>
    </g>
    <g id="xtick_3">
     <g id="line2d_7">
      <path clip-path="url(#pdef545cb91)" d="M 187.92 252 
L 187.92 28.8 
" style="fill:none;stroke:#ffffff;stroke-linecap:round;"/>
     </g>
     <g id="line2d_8"/>
     <g id="line2d_9"/>
     <g id="text_3">
      <!-- 0.04 -->
      <defs>
       <path d="M 43.015625 15.578125 
L 43.015625 0 
L 34.71875 0 
L 34.71875 15.578125 
L 2.296875 15.578125 
L 2.296875 22.40625 
L 33.796875 68.796875 
L 43.015625 68.796875 
L 43.015625 22.515625 
L 52.6875 22.515625 
L 52.6875 15.578125 
z
M 34.71875 58.890625 
Q 34.625 58.640625 34.234375 57.9375 
Q 33.84375 57.234375 33.34375 56.34375 
Q 32.859375 55.46875 32.34375 54.5625 
Q 31.84375 53.65625 31.453125 53.078125 
L 13.8125 27.09375 
Q 13.578125 26.703125 13.109375 26.0625 
Q 12.640625 25.4375 12.15625 24.78125 
Q 11.671875 24.125 11.171875 23.484375 
Q 10.6875 22.859375 10.40625 22.515625 
L 34.71875 22.515625 
z
" id="LiberationSans-34"/>
      </defs>
      <g style="fill:#262626;" transform="translate(178.18953125 266.246875)scale(0.1 -0.1)">
       <use xlink:href="#LiberationSans-30"/>
       <use x="55.615234375" xlink:href="#LiberationSans-2e"/>
       <use x="83.3984375" xlink:href="#LiberationSans-30"/>
       <use x="139.013671875" xlink:href="#LiberationSans-34"/>
      </g>
     </g>
    </g>
    <g id="xtick_4">
     <g id="line2d_10">
      <path clip-path="url(#pdef545cb91)" d="M 254.88 252 
L 254.88 28.8 
" style="fill:none;stroke:#ffffff;stroke-linecap:round;"/>
     </g>
     <g id="line2d_11"/>
     <g id="line2d_12"/>
     <g id="text_4">
      <!-- 0.06 -->
      <defs>
       <path d="M 51.21875 22.515625 
Q 51.21875 17.328125 49.78125 13 
Q 48.34375 8.6875 45.53125 5.578125 
Q 42.71875 2.484375 38.5625 0.75 
Q 34.421875 -0.984375 29 -0.984375 
Q 23 -0.984375 18.5 1.3125 
Q 14.015625 3.609375 11.03125 7.921875 
Q 8.0625 12.25 6.5625 18.53125 
Q 5.078125 24.8125 5.078125 32.8125 
Q 5.078125 42 6.765625 48.921875 
Q 8.453125 55.859375 11.625 60.5 
Q 14.796875 65.140625 19.359375 67.484375 
Q 23.921875 69.828125 29.6875 69.828125 
Q 33.203125 69.828125 36.28125 69.09375 
Q 39.359375 68.359375 41.875 66.71875 
Q 44.390625 65.09375 46.28125 62.40625 
Q 48.1875 59.71875 49.3125 55.8125 
L 40.921875 54.296875 
Q 39.546875 58.734375 36.546875 60.71875 
Q 33.546875 62.703125 29.59375 62.703125 
Q 25.984375 62.703125 23.046875 60.984375 
Q 20.125 59.28125 18.0625 55.875 
Q 16.015625 52.484375 14.90625 47.359375 
Q 13.8125 42.234375 13.8125 35.40625 
Q 16.21875 39.84375 20.5625 42.15625 
Q 24.90625 44.484375 30.515625 44.484375 
Q 35.203125 44.484375 39.015625 42.96875 
Q 42.828125 41.453125 45.53125 38.59375 
Q 48.25 35.75 49.734375 31.671875 
Q 51.21875 27.59375 51.21875 22.515625 
M 42.28125 22.125 
Q 42.28125 25.6875 41.40625 28.5625 
Q 40.53125 31.453125 38.765625 33.46875 
Q 37.015625 35.5 34.421875 36.59375 
Q 31.84375 37.703125 28.421875 37.703125 
Q 26.03125 37.703125 23.578125 36.984375 
Q 21.140625 36.28125 19.15625 34.6875 
Q 17.1875 33.109375 15.9375 30.515625 
Q 14.703125 27.9375 14.703125 24.21875 
Q 14.703125 20.40625 15.671875 17.109375 
Q 16.65625 13.8125 18.484375 11.375 
Q 20.3125 8.9375 22.890625 7.515625 
Q 25.484375 6.109375 28.71875 6.109375 
Q 31.890625 6.109375 34.40625 7.203125 
Q 36.921875 8.296875 38.671875 10.375 
Q 40.4375 12.453125 41.359375 15.421875 
Q 42.28125 18.40625 42.28125 22.125 
" id="LiberationSans-36"/>
      </defs>
      <g style="fill:#262626;" transform="translate(245.14953125 266.246875)scale(0.1 -0.1)">
       <use xlink:href="#LiberationSans-30"/>
       <use x="55.615234375" xlink:href="#LiberationSans-2e"/>
       <use x="83.3984375" xlink:href="#LiberationSans-30"/>
       <use x="139.013671875" xlink:href="#LiberationSans-36"/>
      </g>
     </g>
    </g>
    <g id="xtick_5">
     <g id="line2d_13">
      <path clip-path="url(#pdef545cb91)" d="M 321.84 252 
L 321.84 28.8 
" style="fill:none;stroke:#ffffff;stroke-linecap:round;"/>
     </g>
     <g id="line2d_14"/>
     <g id="line2d_15"/>
     <g id="text_5">
      <!-- 0.08 -->
      <defs>
       <path d="M 51.265625 19.1875 
Q 51.265625 14.796875 49.875 11.109375 
Q 48.484375 7.421875 45.625 4.734375 
Q 42.78125 2.046875 38.328125 0.53125 
Q 33.890625 -0.984375 27.828125 -0.984375 
Q 21.78125 -0.984375 17.359375 0.53125 
Q 12.9375 2.046875 10.03125 4.703125 
Q 7.125 7.375 5.734375 11.0625 
Q 4.34375 14.75 4.34375 19.09375 
Q 4.34375 22.859375 5.484375 25.78125 
Q 6.640625 28.71875 8.5625 30.828125 
Q 10.5 32.953125 12.96875 34.25 
Q 15.4375 35.546875 18.0625 35.984375 
L 18.0625 36.1875 
Q 15.1875 36.859375 12.90625 38.375 
Q 10.640625 39.890625 9.09375 42.015625 
Q 7.5625 44.140625 6.75 46.71875 
Q 5.953125 49.3125 5.953125 52.203125 
Q 5.953125 55.8125 7.34375 59 
Q 8.734375 62.203125 11.46875 64.625 
Q 14.203125 67.046875 18.25 68.4375 
Q 22.3125 69.828125 27.640625 69.828125 
Q 33.25 69.828125 37.375 68.40625 
Q 41.5 67 44.203125 64.578125 
Q 46.921875 62.15625 48.234375 58.9375 
Q 49.5625 55.71875 49.5625 52.09375 
Q 49.5625 49.265625 48.75 46.671875 
Q 47.953125 44.09375 46.40625 41.96875 
Q 44.875 39.84375 42.59375 38.34375 
Q 40.328125 36.859375 37.359375 36.28125 
L 37.359375 36.078125 
Q 40.328125 35.59375 42.859375 34.296875 
Q 45.40625 33.015625 47.265625 30.890625 
Q 49.125 28.765625 50.1875 25.828125 
Q 51.265625 22.90625 51.265625 19.1875 
M 40.4375 51.609375 
Q 40.4375 54.203125 39.765625 56.34375 
Q 39.109375 58.5 37.59375 60.03125 
Q 36.078125 61.578125 33.640625 62.421875 
Q 31.203125 63.28125 27.640625 63.28125 
Q 24.171875 63.28125 21.78125 62.421875 
Q 19.390625 61.578125 17.84375 60.03125 
Q 16.3125 58.5 15.625 56.34375 
Q 14.9375 54.203125 14.9375 51.609375 
Q 14.9375 49.5625 15.46875 47.40625 
Q 16.015625 45.265625 17.421875 43.5 
Q 18.84375 41.75 21.328125 40.625 
Q 23.828125 39.5 27.734375 39.5 
Q 31.890625 39.5 34.40625 40.625 
Q 36.921875 41.75 38.25 43.5 
Q 39.59375 45.265625 40.015625 47.40625 
Q 40.4375 49.5625 40.4375 51.609375 
M 42.140625 20.015625 
Q 42.140625 22.515625 41.453125 24.828125 
Q 40.765625 27.15625 39.109375 28.9375 
Q 37.453125 30.71875 34.640625 31.8125 
Q 31.84375 32.90625 27.640625 32.90625 
Q 23.78125 32.90625 21.0625 31.8125 
Q 18.359375 30.71875 16.671875 28.90625 
Q 14.984375 27.09375 14.203125 24.71875 
Q 13.421875 22.359375 13.421875 19.828125 
Q 13.421875 16.65625 14.203125 14.03125 
Q 14.984375 11.421875 16.6875 9.546875 
Q 18.40625 7.671875 21.1875 6.640625 
Q 23.96875 5.609375 27.9375 5.609375 
Q 31.9375 5.609375 34.671875 6.640625 
Q 37.40625 7.671875 39.0625 9.546875 
Q 40.71875 11.421875 41.421875 14.078125 
Q 42.140625 16.75 42.140625 20.015625 
" id="LiberationSans-38"/>
      </defs>
      <g style="fill:#262626;" transform="translate(312.10953125 266.246875)scale(0.1 -0.1)">
       <use xlink:href="#LiberationSans-30"/>
       <use x="55.615234375" xlink:href="#LiberationSans-2e"/>
       <use x="83.3984375" xlink:href="#LiberationSans-30"/>
       <use x="139.013671875" xlink:href="#LiberationSans-38"/>
      </g>
     </g>
    </g>
    <g id="xtick_6">
     <g id="line2d_16">
      <path clip-path="url(#pdef545cb91)" d="M 388.8 252 
L 388.8 28.8 
" style="fill:none;stroke:#ffffff;stroke-linecap:round;"/>
     </g>
     <g id="line2d_17"/>
     <g id="line2d_18"/>
     <g id="text_6">
      <!-- 0.10 -->
      <defs>
       <path d="M 7.625 0 
L 7.625 7.46875 
L 25.140625 7.46875 
L 25.140625 60.40625 
L 9.625 49.3125 
L 9.625 57.625 
L 25.875 68.796875 
L 33.984375 68.796875 
L 33.984375 7.46875 
L 50.734375 7.46875 
L 50.734375 0 
z
" id="LiberationSans-31"/>
      </defs>
      <g style="fill:#262626;" transform="translate(379.06953125 266.246875)scale(0.1 -0.1)">
       <use xlink:href="#LiberationSans-30"/>
       <use x="55.615234375" xlink:href="#LiberationSans-2e"/>
       <use x="83.3984375" xlink:href="#LiberationSans-31"/>
       <use x="139.013671875" xlink:href="#LiberationSans-30"/>
      </g>
     </g>
    </g>
   </g>
   <g id="matplotlib.axis_2">
    <g id="ytick_1">
     <g id="line2d_19">
      <path clip-path="url(#pdef545cb91)" d="M 54 252 
L 388.8 252 
" style="fill:none;stroke:#ffffff;stroke-linecap:round;"/>
     </g>
     <g id="line2d_20"/>
     <g id="line2d_21"/>
     <g id="text_7">
      <!-- −4 -->
      <defs>
       <path d="M 4.9375 29.6875 
L 4.9375 36.8125 
L 53.515625 36.8125 
L 53.515625 29.6875 
z
" id="LiberationSans-2212"/>
      </defs>
      <g style="fill:#262626;" transform="translate(35.5984375 254.5859375)scale(0.1 -0.1)">
       <use xlink:href="#LiberationSans-2212"/>
       <use x="58.3984375" xlink:href="#LiberationSans-34"/>
      </g>
     </g>
    </g>
    <g id="ytick_2">
     <g id="line2d_22">
      <path clip-path="url(#pdef545cb91)" d="M 54 224.1 
L 388.8 224.1 
" style="fill:none;stroke:#ffffff;stroke-linecap:round;"/>
     </g>
     <g id="line2d_23"/>
     <g id="line2d_24"/>
     <g id="text_8">
      <!-- −2 -->
      <g style="fill:#262626;" transform="translate(35.5984375 226.6859375)scale(0.1 -0.1)">
       <use xlink:href="#LiberationSans-2212"/>
       <use x="58.3984375" xlink:href="#LiberationSans-32"/>
      </g>
     </g>
    </g>
    <g id="ytick_3">
     <g id="line2d_25">
      <path clip-path="url(#pdef545cb91)" d="M 54 196.2 
L 388.8 196.2 
" style="fill:none;stroke:#ffffff;stroke-linecap:round;"/>
     </g>
     <g id="line2d_26"/>
     <g id="line2d_27"/>
     <g id="text_9">
      <!-- 0 -->
      <g style="fill:#262626;" transform="translate(41.4390625 198.7859375)scale(0.1 -0.1)">
       <use xlink:href="#LiberationSans-30"/>
      </g>
     </g>
    </g>
    <g id="ytick_4">
     <g id="line2d_28">
      <path clip-path="url(#pdef545cb91)" d="M 54 168.3 
L 388.8 168.3 
" style="fill:none;stroke:#ffffff;stroke-linecap:round;"/>
     </g>
     <g id="line2d_29"/>
     <g id="line2d_30"/>
     <g id="text_10">
      <!-- 2 -->
      <g style="fill:#262626;" transform="translate(41.4390625 170.8859375)scale(0.1 -0.1)">
       <use xlink:href="#LiberationSans-32"/>
      </g>
     </g>
    </g>
    <g id="ytick_5">
     <g id="line2d_31">
      <path clip-path="url(#pdef545cb91)" d="M 54 140.4 
L 388.8 140.4 
" style="fill:none;stroke:#ffffff;stroke-linecap:round;"/>
     </g>
     <g id="line2d_32"/>
     <g id="line2d_33"/>
     <g id="text_11">
      <!-- 4 -->
      <g style="fill:#262626;" transform="translate(41.4390625 142.9859375)scale(0.1 -0.1)">
       <use xlink:href="#LiberationSans-34"/>
      </g>
     </g>
    </g>
    <g id="ytick_6">
     <g id="line2d_34">
      <path clip-path="url(#pdef545cb91)" d="M 54 112.5 
L 388.8 112.5 
" style="fill:none;stroke:#ffffff;stroke-linecap:round;"/>
     </g>
     <g id="line2d_35"/>
     <g id="line2d_36"/>
     <g id="text_12">
      <!-- 6 -->
      <g style="fill:#262626;" transform="translate(41.4390625 115.0859375)scale(0.1 -0.1)">
       <use xlink:href="#LiberationSans-36"/>
      </g>
     </g>
    </g>
    <g id="ytick_7">
     <g id="line2d_37">
      <path clip-path="url(#pdef545cb91)" d="M 54 84.6 
L 388.8 84.6 
" style="fill:none;stroke:#ffffff;stroke-linecap:round;"/>
     </g>
     <g id="line2d_38"/>
     <g id="line2d_39"/>
     <g id="text_13">
      <!-- 8 -->
      <g style="fill:#262626;" transform="translate(41.4390625 87.1859375)scale(0.1 -0.1)">
       <use xlink:href="#LiberationSans-38"/>
      </g>
     </g>
    </g>
    <g id="ytick_8">
     <g id="line2d_40">
      <path clip-path="url(#pdef545cb91)" d="M 54 56.7 
L 388.8 56.7 
" style="fill:none;stroke:#ffffff;stroke-linecap:round;"/>
     </g>
     <g id="line2d_41"/>
     <g id="line2d_42"/>
     <g id="text_14">
      <!-- 10 -->
      <g style="fill:#262626;" transform="translate(35.878125 59.2859375)scale(0.1 -0.1)">
       <use xlink:href="#LiberationSans-31"/>
       <use x="55.615234375" xlink:href="#LiberationSans-30"/>
      </g>
     </g>
    </g>
    <g id="ytick_9">
     <g id="line2d_43">
      <path clip-path="url(#pdef545cb91)" d="M 54 28.8 
L 388.8 28.8 
" style="fill:none;stroke:#ffffff;stroke-linecap:round;"/>
     </g>
     <g id="line2d_44"/>
     <g id="line2d_45"/>
     <g id="text_15">
      <!-- 12 -->
      <g style="fill:#262626;" transform="translate(35.878125 31.3859375)scale(0.1 -0.1)">
       <use xlink:href="#LiberationSans-31"/>
       <use x="55.615234375" xlink:href="#LiberationSans-32"/>
      </g>
     </g>
    </g>
   </g>
   <g id="line2d_46">
    <path clip-path="url(#pdef545cb91)" d="M 54 196.108672 
L 55.7856 194.466852 
L 56.232 193.863919 
L 56.6784 193.706033 
L 57.4224 193.550644 
L 57.72 193.591713 
L 58.0176 193.452241 
L 58.1664 193.472245 
L 58.464 192.934124 
L 59.5056 189.99451 
L 60.1008 189.37559 
L 60.2496 189.392233 
L 60.5472 189.595679 
L 60.9936 189.55468 
L 61.44 189.784395 
L 61.7376 189.923351 
L 62.184 190.219663 
L 62.4816 190.14072 
L 62.928 189.628978 
L 63.5232 188.619347 
L 64.1184 187.5029 
L 64.416 187.35072 
L 64.7136 187.522012 
L 65.0112 187.665055 
L 65.3088 187.149338 
L 65.7552 186.173689 
L 66.0528 185.973213 
L 66.3504 186.250107 
L 66.648 186.446341 
L 66.9456 186.485318 
L 67.2432 186.782048 
L 67.9872 187.458595 
L 68.2848 187.682911 
L 68.7312 187.695759 
L 69.0288 187.464873 
L 69.7728 185.90776 
L 70.368 185.754951 
L 70.6656 185.951172 
L 70.9632 186.215887 
L 71.2608 185.905835 
L 71.7072 185.024753 
L 72.3024 183.461488 
L 72.6 183.362596 
L 73.0464 183.445417 
L 73.4928 183.220209 
L 74.5344 184.597506 
L 74.6832 184.627443 
L 74.9808 184.352377 
L 76.32 182.526712 
L 76.4688 182.609645 
L 77.2128 183.669831 
L 77.5104 183.334891 
L 78.4032 182.115522 
L 80.04 184.02603 
L 80.1888 184.055953 
L 80.3376 183.946655 
L 80.6352 183.181441 
L 81.2304 181.49935 
L 81.528 180.892386 
L 81.6768 180.860998 
L 82.1232 181.730223 
L 82.5696 182.356731 
L 82.8672 181.829408 
L 83.3136 180.855139 
L 84.2064 179.624749 
L 84.9504 179.83372 
L 85.248 180.289188 
L 85.5456 180.089284 
L 85.8432 179.665623 
L 86.5872 178.003062 
L 86.8848 178.422399 
L 87.48 179.409082 
L 88.0752 179.037734 
L 88.3728 178.896559 
L 88.5216 178.788447 
L 88.6704 178.839783 
L 89.4144 180.055107 
L 89.712 180.000423 
L 89.8608 180.100584 
L 90.1584 180.618268 
L 90.3072 180.668349 
L 90.456 180.529268 
L 90.7536 179.601732 
L 91.2 177.827431 
L 91.3488 177.884906 
L 91.7952 178.823183 
L 92.2416 179.498362 
L 92.5392 179.467254 
L 92.8368 179.230662 
L 93.1344 178.904092 
L 93.2832 178.883028 
L 93.5808 179.184487 
L 94.6224 180.970924 
L 94.92 181.427787 
L 95.0688 181.259411 
L 95.5152 179.690454 
L 95.8128 179.04987 
L 96.2592 179.524728 
L 96.5568 179.365698 
L 96.8544 178.965891 
L 97.3008 177.891741 
L 97.5984 177.067156 
L 97.7472 176.888457 
L 97.896 176.917333 
L 98.3424 177.720574 
L 98.4912 177.605626 
L 98.7888 176.687298 
L 99.2352 174.08074 
L 99.5328 172.805013 
L 99.8304 173.247228 
L 100.128 172.761489 
L 100.5744 171.649395 
L 101.1696 169.991577 
L 101.4672 169.597908 
L 101.9136 168.60118 
L 102.36 169.289334 
L 102.5088 168.887434 
L 102.8064 166.878495 
L 103.4016 161.060926 
L 103.5504 160.527758 
L 103.6992 160.653168 
L 103.9968 161.808925 
L 104.1456 161.966979 
L 104.2944 161.849101 
L 104.4432 161.34718 
L 105.1872 157.104149 
L 105.336 156.9726 
L 105.4848 156.999523 
L 105.7824 157.464895 
L 106.08 158.366902 
L 106.5264 160.078428 
L 106.6752 159.858018 
L 106.824 158.940108 
L 107.1216 154.918742 
L 107.568 148.887598 
L 107.7168 148.403952 
L 108.0144 149.49819 
L 108.1632 149.109682 
L 108.9072 143.948322 
L 109.056 143.696385 
L 109.2048 143.956273 
L 109.5024 145.724994 
L 109.9488 148.378703 
L 110.2464 148.784089 
L 110.3952 148.898619 
L 110.6928 150.197782 
L 110.8416 150.016014 
L 111.1392 147.459118 
L 111.8832 137.673612 
L 112.1808 139.003047 
L 112.3296 138.447279 
L 112.9248 132.303559 
L 113.0736 132.221673 
L 113.3712 133.227468 
L 113.6688 135.220086 
L 114.1152 138.210268 
L 114.5616 139.236709 
L 115.008 141.774633 
L 115.1568 141.483078 
L 115.4544 138.372088 
L 115.9008 131.395972 
L 116.0496 130.646439 
L 116.3472 131.885199 
L 116.6448 129.422187 
L 116.9424 127.061707 
L 117.0912 126.666085 
L 117.24 126.628699 
L 117.3888 126.769176 
L 117.5376 127.097977 
L 117.8352 129.087806 
L 118.4304 134.015085 
L 118.728 134.97052 
L 119.0256 135.312296 
L 119.1744 135.830119 
L 119.472 137.457108 
L 119.6208 136.713015 
L 119.9184 132.768792 
L 120.3648 126.152865 
L 120.5136 126.114084 
L 120.6624 127.409899 
L 120.8112 127.035621 
L 121.2576 123.84414 
L 121.5552 123.264378 
L 121.704 123.144826 
L 121.8528 123.370817 
L 122.0016 124.202097 
L 122.448 127.811938 
L 122.8944 130.797238 
L 123.192 132.21121 
L 123.3408 132.165594 
L 123.7872 131.211275 
L 123.936 131.651257 
L 124.0848 132.583396 
L 124.2336 131.430568 
L 124.9776 117.194175 
L 125.2752 118.972521 
L 125.424 118.671619 
L 126.168 114.74051 
L 126.3168 114.398874 
L 126.4656 114.71526 
L 127.0608 118.591546 
L 127.2096 118.745136 
L 127.3584 119.142571 
L 127.9536 122.606077 
L 128.4 121.065997 
L 128.5488 121.266738 
L 128.8464 123.063358 
L 128.9952 121.780656 
L 129.7392 107.588345 
L 130.0368 109.636344 
L 130.1856 109.076949 
L 130.632 106.455883 
L 130.9296 105.916297 
L 131.0784 106.057332 
L 131.2272 106.823884 
L 131.6736 110.805772 
L 131.9712 112.173012 
L 132.5664 116.13816 
L 133.0128 115.576951 
L 133.1616 115.685203 
L 133.3104 116.046648 
L 133.4592 116.87458 
L 133.7568 119.327409 
L 133.9056 118.85841 
L 134.2032 113.846454 
L 134.6496 104.496606 
L 134.7984 103.985199 
L 135.096 106.218036 
L 135.2448 105.487893 
L 135.6912 101.205103 
L 135.84 100.926243 
L 135.9888 101.389662 
L 136.2864 104.400351 
L 137.0304 112.081779 
L 137.4768 114.348654 
L 138.072 116.028931 
L 138.3696 118.066608 
L 139.1136 125.163949 
L 139.2624 125.566825 
L 139.4112 125.247649 
L 139.7088 122.663272 
L 140.1552 115.192629 
L 140.4528 110.831998 
L 140.6016 110.746764 
L 140.7504 112.526923 
L 140.8992 112.189473 
L 141.4944 105.780146 
L 141.792 105.196477 
L 141.9408 105.377967 
L 142.0896 105.922714 
L 142.3872 108.37359 
L 142.8336 112.730454 
L 143.28 117.347346 
L 143.8752 122.788822 
L 144.6192 127.054174 
L 144.9168 127.286721 
L 145.0656 127.656117 
L 145.3632 129.590284 
L 145.6608 131.025042 
L 145.8096 130.724419 
L 146.1072 128.752168 
L 146.4048 123.804661 
L 147.1488 107.433081 
L 147.2976 108.39298 
L 147.4464 108.371218 
L 148.6368 91.749793 
L 148.7856 91.166265 
L 148.9344 91.749375 
L 149.3808 95.735169 
L 149.8272 94.55193 
L 149.976 94.655579 
L 150.1248 95.231155 
L 150.4224 98.353444 
L 150.72 101.369016 
L 151.0176 102.864735 
L 151.6128 103.943767 
L 151.7616 104.308002 
L 151.9104 104.21635 
L 152.208 103.699642 
L 152.6544 106.547256 
L 152.952 104.534689 
L 153.2496 102.33882 
L 153.5472 101.371527 
L 153.9936 100.316488 
L 154.1424 99.163102 
L 154.7376 90.297319 
L 154.8864 91.707246 
L 155.0352 89.505517 
L 155.4816 79.172613 
L 155.7792 77.703817 
L 155.928 77.584127 
L 156.0768 77.70605 
L 156.2256 78.409548 
L 156.8208 84.48003 
L 157.1184 86.428984 
L 157.5648 92.296215 
L 158.0112 97.28599 
L 158.6064 101.126565 
L 159.3504 108.214839 
L 159.648 110.930764 
L 159.9456 113.505376 
L 160.0944 113.930712 
L 160.2432 113.894302 
L 160.392 113.611536 
L 160.5408 113.608188 
L 160.8384 115.782156 
L 160.9872 115.614756 
L 161.136 115.020625 
L 161.2848 114.98296 
L 161.5824 117.374269 
L 161.88 119.796268 
L 162.1776 120.66898 
L 162.3264 120.928032 
L 162.4752 120.89511 
L 162.624 119.989197 
L 162.9216 113.464224 
L 163.2192 105.645668 
L 163.368 106.14717 
L 163.5168 105.446461 
L 163.9632 95.265054 
L 164.2608 93.894187 
L 164.5584 92.916153 
L 164.7072 93.016872 
L 164.856 94.25061 
L 165.1536 97.831017 
L 165.4512 100.248133 
L 166.4928 112.593744 
L 166.7904 113.260833 
L 166.9392 113.568709 
L 167.088 114.440584 
L 167.5344 118.253817 
L 168.1296 120.043462 
L 168.576 121.318213 
L 168.8736 123.442101 
L 169.0224 122.761201 
L 169.4688 117.668893 
L 169.7664 119.474442 
L 169.9152 119.467606 
L 170.5104 118.72435 
L 170.6592 119.48895 
L 170.808 120.845169 
L 171.1056 121.147884 
L 171.4032 122.996119 
L 171.552 122.443141 
L 171.8496 118.566018 
L 172.1472 109.792723 
L 172.4448 98.022829 
L 172.5936 95.714802 
L 172.7424 97.791399 
L 172.8912 95.448636 
L 173.4864 78.747835 
L 173.784 73.269531 
L 173.9328 72.250902 
L 174.0816 73.383782 
L 174.3792 76.621855 
L 174.6768 77.7087 
L 174.9744 80.657032 
L 175.5696 88.821549 
L 175.7184 89.399637 
L 176.016 89.58852 
L 176.1648 90.258539 
L 176.6112 94.615263 
L 176.9088 98.318849 
L 177.0576 99.07187 
L 177.504 99.677718 
L 177.9504 101.238583 
L 178.0992 102.297946 
L 178.3968 105.06744 
L 178.8432 103.308066 
L 178.992 103.773159 
L 179.2896 106.77199 
L 179.5872 109.280619 
L 179.736 109.660896 
L 179.8848 110.465253 
L 180.0336 112.227975 
L 180.48 113.828458 
L 180.7776 115.77825 
L 180.9264 116.02098 
L 181.0752 115.802802 
L 181.224 114.457743 
L 181.5216 106.933671 
L 182.1168 84.257667 
L 182.4144 83.896781 
L 182.712 71.462029 
L 183.0096 59.200537 
L 183.3072 54.527985 
L 183.456 54.341055 
L 183.6048 55.77651 
L 183.9024 59.632708 
L 184.2 58.94037 
L 184.3488 59.404626 
L 184.6464 64.088059 
L 185.2416 72.2403 
L 185.688 74.66495 
L 185.9856 76.369081 
L 186.7296 83.583185 
L 186.8784 83.635357 
L 187.3248 82.576831 
L 187.4736 82.653417 
L 187.6224 83.237503 
L 187.7712 84.586748 
L 188.0688 87.603156 
L 188.2176 86.678829 
L 188.664 82.767807 
L 188.8128 82.611427 
L 188.9616 83.48679 
L 189.1104 85.996953 
L 189.2592 86.511429 
L 189.408 85.938084 
L 189.5568 85.984816 
L 189.8544 88.893113 
L 190.0032 88.927011 
L 190.152 89.437302 
L 190.5984 94.210853 
L 190.7472 94.690035 
L 190.896 94.510638 
L 191.0448 93.608212 
L 191.3424 89.572756 
L 192.0864 73.72751 
L 192.2352 74.621286 
L 192.384 74.830536 
L 192.6816 64.111914 
L 192.9792 53.45802 
L 193.128 51.71427 
L 193.2768 51.75054 
L 193.4256 52.82748 
L 194.0208 59.545103 
L 194.1696 59.774999 
L 194.3184 60.838825 
L 194.9136 68.729782 
L 195.5088 73.313195 
L 195.8064 75.336502 
L 196.104 79.208046 
L 196.4016 82.579203 
L 196.5504 83.08517 
L 196.6992 82.906749 
L 196.9968 80.665124 
L 197.2944 78.697894 
L 197.4432 79.333736 
L 197.8896 84.62218 
L 198.0384 85.147119 
L 198.1872 85.210452 
L 198.336 85.007619 
L 198.4848 84.538062 
L 198.9312 82.028317 
L 199.2288 84.7674 
L 199.5264 84.465103 
L 200.4192 93.506935 
L 200.7168 96.087546 
L 200.8656 96.465591 
L 201.0144 95.909962 
L 201.9072 86.470974 
L 202.3536 77.745528 
L 202.5024 78.963503 
L 202.6512 78.317757 
L 203.3952 57.564481 
L 203.544 57.986748 
L 203.8416 61.878519 
L 204.1392 67.031091 
L 206.8176 90.32229 
L 207.4128 87.538009 
L 207.5616 88.148601 
L 207.8592 91.169892 
L 208.1568 95.161405 
L 208.4544 96.776397 
L 208.9008 98.330567 
L 209.0496 98.027851 
L 209.3472 96.689488 
L 209.7936 99.2196 
L 209.9424 99.628753 
L 211.1328 112.816944 
L 211.2816 112.741056 
L 212.0256 106.976218 
L 212.472 102.357652 
L 212.9184 94.110273 
L 213.0672 96.061041 
L 213.216 93.885818 
L 213.8112 74.39962 
L 213.96 73.218055 
L 214.1088 73.188342 
L 214.2576 74.226082 
L 214.704 79.464586 
L 215.0016 80.185662 
L 215.1504 81.373365 
L 215.448 84.919036 
L 215.7456 85.421097 
L 216.6384 89.665384 
L 217.0848 93.730833 
L 217.3824 92.225488 
L 217.68 91.16752 
L 217.8288 91.27647 
L 218.1264 92.355503 
L 218.424 95.46426 
L 218.7216 98.127873 
L 219.0192 100.305468 
L 219.4656 105.910718 
L 219.6144 106.359628 
L 220.0608 104.714365 
L 220.3584 107.860788 
L 221.4 119.325177 
L 221.8464 122.712376 
L 221.9952 122.222592 
L 222.888 114.86313 
L 223.1856 113.952056 
L 223.3344 112.277358 
L 223.7808 105.557224 
L 223.9296 106.438167 
L 224.0784 103.368609 
L 224.6736 83.459587 
L 224.8224 82.326289 
L 225.12 85.221751 
L 225.5664 86.030572 
L 225.7152 87.09691 
L 226.1616 91.449729 
L 226.4592 91.470793 
L 226.9056 92.762563 
L 227.2032 94.04136 
L 227.5008 97.326306 
L 227.7984 99.974434 
L 227.9472 99.76644 
L 228.2448 98.298342 
L 228.3936 98.159121 
L 228.5424 98.53605 
L 228.84 100.40242 
L 229.2864 104.983182 
L 229.584 107.374352 
L 230.0304 111.865135 
L 230.4768 115.369654 
L 230.7744 113.848128 
L 231.072 112.830336 
L 231.2208 112.785417 
L 231.3696 113.065533 
L 231.5184 114.018876 
L 231.816 116.728105 
L 232.1136 118.248795 
L 232.56 121.625392 
L 232.7088 121.875934 
L 232.8576 121.307193 
L 233.304 117.966865 
L 233.4528 117.784539 
L 233.8992 118.380901 
L 234.048 118.057261 
L 234.1968 116.819617 
L 234.792 107.170821 
L 234.9408 107.115161 
L 235.2384 96.969046 
L 235.536 85.94478 
L 235.6848 83.229831 
L 235.8336 83.093121 
L 235.9824 85.587102 
L 236.1312 86.062936 
L 236.28 85.694517 
L 236.4288 85.703445 
L 236.5776 86.673388 
L 237.024 91.838655 
L 237.3216 92.341413 
L 237.4704 92.544944 
L 238.0656 94.083489 
L 238.2144 95.243292 
L 238.512 98.709169 
L 238.6608 99.181935 
L 238.8096 99.121252 
L 239.4048 97.703514 
L 239.5536 98.432122 
L 240.5952 109.697026 
L 240.8928 112.440154 
L 241.1904 113.335884 
L 241.6368 116.737731 
L 241.9344 117.836712 
L 242.0832 117.337302 
L 242.5296 112.565844 
L 242.6784 113.128308 
L 242.976 115.7085 
L 243.1248 116.161317 
L 243.2736 116.174011 
L 243.72 114.762132 
L 243.8688 114.837462 
L 244.3152 115.918308 
L 244.6128 117.844245 
L 245.0592 121.219587 
L 245.208 121.638366 
L 245.3568 121.049397 
L 245.5056 118.834137 
L 246.1008 105.77596 
L 246.2496 106.241332 
L 246.3984 102.491712 
L 246.9936 78.940066 
L 247.1424 78.960015 
L 247.2912 81.281155 
L 247.44 81.732438 
L 247.5888 81.622233 
L 247.7376 81.910998 
L 247.8864 83.07387 
L 248.3328 88.628899 
L 248.7792 90.937067 
L 248.928 91.143945 
L 249.0768 91.14799 
L 249.2256 91.397137 
L 249.3744 92.445201 
L 249.672 96.113493 
L 250.1184 98.746555 
L 250.8624 102.245355 
L 252.3504 118.523471 
L 252.648 120.120466 
L 253.2432 126.106272 
L 253.392 126.663156 
L 253.5408 125.834805 
L 254.136 118.525284 
L 254.2848 119.086632 
L 254.4336 120.439921 
L 254.5824 120.176824 
L 255.3264 113.695375 
L 255.4752 114.341539 
L 256.368 122.41831 
L 256.6656 124.303095 
L 256.8144 124.296538 
L 256.9632 123.348078 
L 257.2608 118.575922 
L 257.856 102.870036 
L 258.0048 104.939937 
L 258.1536 102.021876 
L 258.7488 77.782914 
L 258.8976 76.828874 
L 259.0464 78.143801 
L 259.344 81.992326 
L 259.7904 86.004765 
L 260.3856 93.526884 
L 261.7248 105.025032 
L 262.0224 107.604387 
L 262.7664 110.962989 
L 263.6592 120.489025 
L 264.1056 124.148389 
L 264.2544 124.372985 
L 264.4032 125.057232 
L 264.7008 127.029622 
L 264.8496 127.631425 
L 265.296 130.59315 
L 265.4448 129.611767 
L 265.8912 123.697804 
L 266.04 123.031971 
L 266.1888 123.45898 
L 266.3376 125.040771 
L 266.4864 125.210542 
L 266.784 122.613331 
L 267.0816 120.039696 
L 267.2304 119.655792 
L 267.3792 119.997985 
L 268.4208 127.443798 
L 268.5696 127.869133 
L 268.7184 127.421059 
L 269.016 124.188844 
L 269.4624 115.286652 
L 269.9088 104.290285 
L 270.0576 104.522832 
L 270.2064 104.186637 
L 270.504 93.302568 
L 270.8016 81.93555 
L 270.9504 79.411856 
L 271.0992 79.100212 
L 271.6944 84.802554 
L 271.992 86.56402 
L 273.1824 98.57511 
L 273.6288 101.136888 
L 274.3728 108.093055 
L 275.1168 110.354769 
L 275.5632 114.781104 
L 276.1584 121.060278 
L 276.456 122.794402 
L 276.7536 125.17762 
L 277.0512 125.907903 
L 277.3488 126.720769 
L 277.4976 126.141705 
L 278.0928 121.066974 
L 278.2416 120.871813 
L 278.3904 121.352112 
L 278.688 123.698362 
L 278.8368 123.809544 
L 279.1344 122.324706 
L 279.432 120.880741 
L 279.5808 121.406796 
L 279.8784 123.867018 
L 280.3248 125.38701 
L 280.6224 127.701873 
L 280.7712 127.84779 
L 281.0688 126.267115 
L 281.5152 122.401431 
L 281.9616 116.511183 
L 282.408 109.334187 
L 282.5568 110.741881 
L 282.7056 109.459876 
L 283.4496 87.555726 
L 283.5984 87.522525 
L 284.9376 102.155098 
L 285.384 107.245872 
L 286.2768 112.499442 
L 286.5744 115.568302 
L 286.7232 116.075943 
L 286.872 116.052088 
L 287.1696 115.63596 
L 287.3184 115.789968 
L 287.616 117.307449 
L 289.2528 129.070926 
L 289.5504 129.051256 
L 289.848 130.167814 
L 289.9968 130.722188 
L 290.1456 130.786776 
L 290.8896 128.898365 
L 291.0384 129.344206 
L 291.336 131.237779 
L 291.4848 130.830858 
L 291.9312 128.11549 
L 292.08 128.234484 
L 292.3776 130.415427 
L 292.824 133.047652 
L 293.1216 134.842459 
L 293.4192 136.513251 
L 293.568 136.292283 
L 294.7584 129.99595 
L 295.056 125.843733 
L 295.3536 121.384476 
L 295.5024 122.449419 
L 295.6512 121.080087 
L 296.3952 99.702549 
L 296.544 98.741952 
L 296.6928 98.933067 
L 297.288 103.793107 
L 297.5856 105.020707 
L 298.4784 112.515205 
L 298.776 113.285524 
L 299.0736 115.228759 
L 299.52 119.012836 
L 299.6688 119.154289 
L 299.8176 119.094583 
L 299.9664 119.285698 
L 300.264 120.809875 
L 301.1568 127.113322 
L 301.9008 133.660476 
L 302.0496 134.218197 
L 302.3472 134.590243 
L 302.6448 136.612575 
L 302.9424 138.239982 
L 303.6864 138.482014 
L 303.984 138.151818 
L 304.1328 138.479364 
L 304.4304 140.287702 
L 304.5792 140.316579 
L 305.1744 137.680866 
L 305.3232 138.045798 
L 306.216 143.160147 
L 306.5136 143.78706 
L 306.6624 143.634447 
L 306.96 142.446604 
L 307.2576 141.350414 
L 307.4064 141.486984 
L 307.704 142.068141 
L 307.8528 141.864052 
L 308.0016 141.193476 
L 308.2992 138.132985 
L 308.5968 134.075349 
L 308.7456 134.121523 
L 308.8944 134.006994 
L 309.192 126.331983 
L 309.6384 114.835509 
L 309.7872 113.550295 
L 309.936 113.508306 
L 310.5312 117.358227 
L 310.8288 118.542582 
L 311.2752 122.830672 
L 311.8704 127.315597 
L 312.3168 130.180648 
L 312.912 134.728906 
L 313.656 137.178108 
L 314.9952 144.036765 
L 315.5904 147.721099 
L 315.888 148.687137 
L 316.1856 149.946961 
L 316.3344 150.105294 
L 316.632 149.658057 
L 316.7808 149.834245 
L 317.2272 151.259657 
L 317.376 151.310156 
L 317.5248 151.482159 
L 318.12 153.693513 
L 318.4176 153.812367 
L 318.5664 153.764379 
L 318.7152 153.894114 
L 318.864 154.413193 
L 319.3104 156.643659 
L 319.7568 158.683289 
L 319.9056 158.896305 
L 320.0544 158.809396 
L 320.5008 157.997785 
L 320.7984 158.117476 
L 321.096 158.249165 
L 321.2448 158.154584 
L 321.3936 157.866237 
L 321.6912 156.382236 
L 322.4352 150.230844 
L 322.584 150.736392 
L 322.7328 148.9374 
L 323.4768 132.683697 
L 323.6256 132.179265 
L 323.7744 132.463008 
L 326.6016 150.830973 
L 327.9408 153.667008 
L 328.0896 153.740524 
L 328.2384 153.964282 
L 328.8336 155.560441 
L 328.9824 155.78699 
L 329.28 156.91959 
L 329.4288 156.980133 
L 329.5776 157.167063 
L 329.8752 157.92664 
L 330.024 157.938358 
L 330.3216 157.603977 
L 330.6192 158.067256 
L 331.0656 158.92546 
L 332.8512 166.939596 
L 333.5952 168.825775 
L 334.0416 168.611503 
L 334.3392 168.902221 
L 334.6368 169.110216 
L 335.232 168.707479 
L 335.5296 168.617781 
L 335.8272 168.06006 
L 336.1248 166.230517 
L 336.5712 161.792883 
L 336.72 161.878397 
L 336.8688 161.599117 
L 337.1664 156.528432 
L 337.6128 148.787437 
L 337.9104 147.168679 
L 338.0592 147.010765 
L 338.208 147.302181 
L 339.3984 153.129654 
L 339.696 153.935406 
L 340.1424 156.260174 
L 341.3328 162.181251 
L 342.0768 163.612521 
L 342.2256 163.535656 
L 342.672 162.405567 
L 342.8208 162.356881 
L 343.1184 162.707026 
L 343.8624 164.60311 
L 344.16 165.022866 
L 344.3088 164.852955 
L 344.6064 164.156571 
L 344.7552 164.11486 
L 345.0528 164.858395 
L 345.4992 166.410612 
L 345.7968 166.520677 
L 345.9456 166.580802 
L 346.0944 166.880587 
L 346.392 167.810773 
L 346.5408 167.800729 
L 347.136 167.264212 
L 347.2848 167.490481 
L 347.88 169.189312 
L 348.0288 169.237998 
L 348.4752 168.873903 
L 348.7728 169.072411 
L 349.5168 169.775631 
L 349.8144 170.009293 
L 350.4096 171.161284 
L 350.5584 171.093348 
L 350.7072 170.816161 
L 351.0048 169.422556 
L 351.6 165.161389 
L 351.7488 165.84759 
L 351.8976 165.048952 
L 352.344 157.048627 
L 352.6416 153.218236 
L 352.9392 151.809008 
L 353.088 151.720425 
L 353.2368 152.076569 
L 353.9808 155.517057 
L 355.0224 159.071656 
L 355.4688 160.942212 
L 356.064 163.198624 
L 356.6592 165.564126 
L 356.808 165.796533 
L 356.9568 165.812436 
L 357.2544 165.297123 
L 357.552 164.853792 
L 357.7008 164.957022 
L 358.1472 165.901437 
L 358.4448 166.930528 
L 359.04 167.642676 
L 359.1888 167.678667 
L 359.6352 167.216922 
L 359.784 167.439843 
L 360.2304 168.778066 
L 360.528 168.839028 
L 360.6768 168.811546 
L 360.8256 168.949233 
L 361.1232 169.752334 
L 361.272 169.69779 
L 361.8672 168.600343 
L 362.016 168.644007 
L 362.1648 168.887713 
L 362.4624 169.691233 
L 362.6112 169.572798 
L 363.2064 168.664932 
L 363.504 168.485395 
L 364.3968 168.950907 
L 364.6944 169.49677 
L 365.2896 171.438052 
L 365.4384 171.530959 
L 365.5872 171.451026 
L 365.736 171.220293 
L 366.0336 169.960468 
L 366.6288 165.13907 
L 366.7776 165.269781 
L 366.9264 165.19752 
L 367.224 161.416093 
L 367.3728 158.824602 
L 367.3728 158.824602 
" style="fill:none;stroke:#4c72b0;stroke-linecap:round;stroke-width:1.75;"/>
   </g>
   <g id="line2d_47">
    <path clip-path="url(#pdef545cb91)" d="M 54 226.811782 
L 54.1488 226.709283 
L 54.2976 226.66692 
L 54.8928 226.516406 
L 55.1904 226.069269 
L 55.6368 224.645084 
L 56.8272 219.924334 
L 57.1248 219.583068 
L 57.4224 219.628147 
L 58.0176 219.972493 
L 58.3152 219.74125 
L 58.6128 219.007232 
L 59.0592 217.02483 
L 59.952 212.742567 
L 60.2496 212.149979 
L 60.5472 212.107645 
L 60.8448 212.450313 
L 61.2912 213.054176 
L 61.5888 213.075668 
L 61.8864 212.557995 
L 62.3328 210.771754 
L 63.3744 205.879928 
L 63.672 205.394978 
L 63.9696 205.404167 
L 64.8624 206.083577 
L 65.16 205.697239 
L 65.4576 204.833557 
L 66.7968 199.895243 
L 67.0944 199.653295 
L 67.392 199.704778 
L 67.8384 199.841124 
L 68.136 199.640385 
L 68.4336 199.050062 
L 68.88 197.508579 
L 69.624 194.782134 
L 69.9216 194.238766 
L 70.2192 194.11429 
L 70.6656 194.417625 
L 70.9632 194.597801 
L 71.2608 194.472457 
L 71.5584 193.889883 
L 72.0048 192.189455 
L 72.8976 188.443216 
L 73.1952 187.979405 
L 73.344 187.950787 
L 73.6416 188.224626 
L 74.3856 189.292924 
L 74.5344 189.280689 
L 74.832 188.83547 
L 75.1296 187.829979 
L 76.32 182.57331 
L 76.6176 182.216511 
L 76.9152 182.378724 
L 77.808 183.578477 
L 77.9568 183.52068 
L 78.2544 183.00763 
L 78.7008 181.384885 
L 79.4448 178.303482 
L 79.7424 177.639509 
L 80.04 177.438246 
L 80.3376 177.589889 
L 80.9328 178.038326 
L 81.2304 177.876765 
L 81.528 177.303046 
L 82.1232 175.267898 
L 82.7184 173.456297 
L 83.016 173.085852 
L 83.3136 173.093315 
L 84.0576 173.585533 
L 84.3552 173.373983 
L 84.6528 172.724233 
L 85.248 170.443285 
L 85.8432 168.387552 
L 86.1408 167.992778 
L 86.2896 167.985212 
L 86.5872 168.282975 
L 87.3312 169.395284 
L 87.48 169.400924 
L 87.7776 169.005368 
L 88.0752 168.066702 
L 89.2656 163.178644 
L 89.5632 162.93254 
L 89.8608 163.212759 
L 90.7536 164.755077 
L 90.9024 164.739729 
L 91.2 164.287827 
L 91.6464 162.692898 
L 92.3904 159.567115 
L 92.688 158.9106 
L 92.9856 158.76114 
L 93.2832 159.018135 
L 93.8784 159.808555 
L 94.176 159.83908 
L 94.4736 159.432132 
L 94.92 158.107464 
L 95.664 155.684721 
L 95.9616 155.242465 
L 96.2592 155.195803 
L 96.7056 155.570481 
L 97.0032 155.787438 
L 97.3008 155.721769 
L 97.5984 155.25426 
L 98.0448 153.881162 
L 98.7888 151.458779 
L 99.0864 151.078172 
L 99.384 151.153599 
L 99.8304 151.823926 
L 100.2768 152.400128 
L 100.4256 152.419037 
L 100.7232 152.076331 
L 101.0208 151.220491 
L 102.2112 146.749312 
L 102.5088 146.591394 
L 102.8064 146.950433 
L 103.6992 148.674965 
L 103.848 148.679154 
L 104.1456 148.253424 
L 104.592 146.666257 
L 105.336 143.533407 
L 105.6336 142.907001 
L 105.9312 142.825564 
L 106.2288 143.191943 
L 106.9728 144.43084 
L 107.1216 144.469073 
L 107.4192 144.181664 
L 107.7168 143.435815 
L 108.7584 140.078406 
L 109.056 139.777625 
L 109.3536 139.870797 
L 110.2464 140.620189 
L 110.544 140.339534 
L 110.9904 139.223136 
L 111.7344 136.969562 
L 112.032 136.556287 
L 112.3296 136.568508 
L 112.6272 136.913846 
L 113.2224 137.710917 
L 113.52 137.676241 
L 113.8176 137.164616 
L 114.264 135.632645 
L 115.008 132.975254 
L 115.3056 132.601375 
L 115.4544 132.620119 
L 115.752 133.015185 
L 116.6448 134.788708 
L 116.7936 134.79935 
L 117.0912 134.386944 
L 117.5376 132.821306 
L 118.2816 129.753858 
L 118.5792 129.18245 
L 118.728 129.112733 
L 119.0256 129.370334 
L 120.0672 131.288325 
L 120.216 131.249529 
L 120.5136 130.775056 
L 120.96 129.295225 
L 121.5552 127.17132 
L 121.8528 126.595651 
L 122.1504 126.485717 
L 122.448 126.76147 
L 123.192 127.705982 
L 123.4896 127.606845 
L 123.7872 127.096856 
L 124.9776 124.05243 
L 125.2752 123.977451 
L 125.5728 124.247812 
L 126.168 125.031769 
L 126.4656 125.077597 
L 126.7632 124.692829 
L 127.2096 123.387727 
L 127.9536 121.01033 
L 128.2512 120.677961 
L 128.4 120.703357 
L 128.6976 121.091505 
L 129.5904 122.819063 
L 129.7392 122.833246 
L 130.0368 122.441921 
L 130.4832 120.937525 
L 131.2272 118.021089 
L 131.5248 117.52344 
L 131.6736 117.493789 
L 131.9712 117.83768 
L 133.0128 120.04758 
L 133.1616 120.032859 
L 133.4592 119.581695 
L 133.9056 118.074567 
L 134.6496 115.493783 
L 134.9472 115.143532 
L 135.096 115.158794 
L 135.3936 115.502482 
L 136.1376 116.809763 
L 136.4352 116.87463 
L 136.7328 116.495638 
L 137.1792 115.290727 
L 137.7744 113.638 
L 138.072 113.265456 
L 138.3696 113.296951 
L 138.816 113.859557 
L 139.2624 114.385782 
L 139.56 114.361975 
L 139.8576 113.926415 
L 140.304 112.67209 
L 140.8992 111.008532 
L 141.1968 110.682369 
L 141.4944 110.818926 
L 141.9408 111.657112 
L 142.3872 112.52995 
L 142.6848 112.69563 
L 142.9824 112.349808 
L 143.4288 110.961745 
L 144.1728 108.274206 
L 144.4704 107.857158 
L 144.6192 107.864173 
L 144.9168 108.27471 
L 145.9584 110.6482 
L 146.1072 110.644164 
L 146.4048 110.201152 
L 146.8512 108.676546 
L 147.5952 106.064209 
L 147.8928 105.741979 
L 148.0416 105.786088 
L 148.3392 106.219175 
L 149.232 108.033911 
L 149.3808 108.076371 
L 149.6784 107.793832 
L 150.1248 106.628052 
L 150.8688 104.569916 
L 151.1664 104.324177 
L 151.464 104.489751 
L 152.5056 105.750631 
L 152.8032 105.495455 
L 153.2496 104.471938 
L 153.8448 102.925659 
L 154.1424 102.570242 
L 154.44 102.641611 
L 154.7376 103.077094 
L 155.4816 104.363749 
L 155.6304 104.411546 
L 155.928 104.146214 
L 156.2256 103.422229 
L 157.2672 100.288376 
L 157.416 100.18331 
L 157.5648 100.216822 
L 157.8624 100.663587 
L 158.904 103.083356 
L 159.0528 103.084035 
L 159.3504 102.650786 
L 159.7968 101.142794 
L 160.392 98.935777 
L 160.6896 98.391357 
L 160.8384 98.332099 
L 160.9872 98.415408 
L 161.2848 98.946277 
L 162.1776 101.116712 
L 162.3264 101.205391 
L 162.4752 101.161067 
L 162.7728 100.687421 
L 163.368 98.807006 
L 163.8144 97.606512 
L 164.112 97.309741 
L 164.4096 97.47018 
L 164.856 98.273673 
L 165.3024 99.042338 
L 165.6 99.17137 
L 165.8976 98.887375 
L 166.344 97.870205 
L 166.9392 96.512068 
L 167.2368 96.292514 
L 167.5344 96.475891 
L 167.9808 97.255973 
L 168.4272 97.969637 
L 168.7248 98.041861 
L 169.0224 97.67259 
L 169.4688 96.463617 
L 170.064 94.817655 
L 170.3616 94.525035 
L 170.5104 94.569541 
L 170.808 95.015878 
L 171.8496 97.393026 
L 171.9984 97.400542 
L 172.296 96.994491 
L 172.7424 95.554625 
L 173.3376 93.471222 
L 173.6352 93.000209 
L 173.784 92.980901 
L 174.0816 93.363183 
L 174.528 94.646124 
L 174.9744 95.911674 
L 175.272 96.275746 
L 175.4208 96.252122 
L 175.7184 95.794083 
L 176.1648 94.385388 
L 176.76 92.586987 
L 177.0576 92.275426 
L 177.2064 92.311893 
L 177.504 92.721977 
L 178.3968 94.627878 
L 178.6944 94.71102 
L 178.992 94.35731 
L 179.5872 92.89809 
L 180.0336 92.053229 
L 180.3312 91.948073 
L 180.6288 92.232586 
L 181.6704 93.776761 
L 181.968 93.573507 
L 182.4144 92.613802 
L 183.0096 91.16781 
L 183.3072 90.895143 
L 183.456 90.93242 
L 183.7536 91.34149 
L 184.7952 93.628713 
L 184.944 93.652576 
L 185.2416 93.303359 
L 185.688 91.990864 
L 186.2832 90.09688 
L 186.5808 89.711344 
L 186.7296 89.731236 
L 187.0272 90.185206 
L 187.6224 92.06371 
L 188.0688 93.163797 
L 188.3664 93.281095 
L 188.664 92.829003 
L 189.1104 91.401666 
L 189.7056 89.580654 
L 190.0032 89.291865 
L 190.152 89.353951 
L 190.4496 89.847101 
L 191.4912 92.342367 
L 191.64 92.388253 
L 191.9376 92.119366 
L 192.384 91.066969 
L 192.9792 89.69717 
L 193.2768 89.511044 
L 193.5744 89.747514 
L 194.1696 90.947717 
L 194.616 91.595603 
L 194.9136 91.574232 
L 195.2112 91.169041 
L 196.104 89.369919 
L 196.4016 89.286807 
L 196.6992 89.62785 
L 197.8896 91.880387 
L 198.1872 91.624032 
L 198.6336 90.494915 
L 199.2288 88.830818 
L 199.5264 88.52592 
L 199.6752 88.576041 
L 199.9728 89.072777 
L 201.1632 92.245491 
L 201.312 92.23709 
L 201.6096 91.796078 
L 202.056 90.387753 
L 202.6512 88.61975 
L 202.9488 88.385258 
L 203.0976 88.484128 
L 203.3952 89.070777 
L 204.4368 91.976719 
L 204.5856 92.064095 
L 204.7344 92.017796 
L 205.032 91.562279 
L 206.0736 89.096078 
L 206.3712 89.086252 
L 206.6688 89.512216 
L 207.7104 91.62263 
L 208.008 91.573168 
L 208.3056 91.153714 
L 209.1984 89.599674 
L 209.496 89.650094 
L 209.7936 90.088331 
L 210.6864 91.978806 
L 210.984 92.07437 
L 211.2816 91.730299 
L 211.8768 90.258522 
L 212.3232 89.442643 
L 212.472 89.379169 
L 212.6208 89.443812 
L 212.9184 89.945055 
L 214.1088 93.071796 
L 214.2576 93.071982 
L 214.5552 92.660879 
L 215.0016 91.322149 
L 215.5968 89.677298 
L 215.8944 89.51636 
L 216.192 89.932723 
L 216.6384 91.355686 
L 217.2336 93.277785 
L 217.5312 93.635973 
L 217.68 93.604383 
L 217.9776 93.15191 
L 219.0192 90.542126 
L 219.168 90.469248 
L 219.3168 90.525582 
L 219.6144 90.9945 
L 220.8048 93.702173 
L 221.1024 93.581081 
L 221.5488 92.789751 
L 222.144 91.757535 
L 222.4416 91.712846 
L 222.7392 92.068944 
L 223.9296 94.263779 
L 224.2272 94.085413 
L 224.6736 93.23982 
L 225.12 92.353255 
L 225.4176 92.134242 
L 225.7152 92.371139 
L 226.0128 93.037401 
L 226.9056 95.521935 
L 227.2032 95.690588 
L 227.5008 95.338129 
L 227.9472 94.123063 
L 228.3936 92.895011 
L 228.6912 92.53948 
L 228.84 92.568442 
L 229.1376 93.052226 
L 229.584 94.561282 
L 230.1792 96.566475 
L 230.4768 96.945517 
L 230.6256 96.917671 
L 230.9232 96.459087 
L 231.9648 93.785681 
L 232.1136 93.720697 
L 232.2624 93.794366 
L 232.56 94.329467 
L 233.7504 97.555514 
L 233.8992 97.598729 
L 234.1968 97.341047 
L 235.3872 95.44686 
L 235.6848 95.736513 
L 236.1312 96.761052 
L 236.7264 98.093162 
L 237.024 98.291235 
L 237.3216 98.093501 
L 238.3632 96.584361 
L 238.6608 96.761472 
L 238.9584 97.347126 
L 240 99.893652 
L 240.1488 99.944187 
L 240.4464 99.683204 
L 240.8928 98.639021 
L 241.3392 97.567308 
L 241.6368 97.287386 
L 241.7856 97.344034 
L 242.0832 97.864684 
L 242.5296 99.395434 
L 243.1248 101.403687 
L 243.4224 101.782245 
L 243.5712 101.754065 
L 243.8688 101.294703 
L 244.9104 98.659652 
L 245.0592 98.615932 
L 245.208 98.717309 
L 245.5056 99.328015 
L 246.696 102.963124 
L 246.8448 103.035688 
L 247.1424 102.801252 
L 247.5888 101.820428 
L 248.0352 100.868242 
L 248.3328 100.65382 
L 248.6304 100.902312 
L 249.0768 101.972969 
L 249.672 103.563656 
L 249.9696 103.929327 
L 250.2672 103.882425 
L 250.7136 103.245588 
L 251.16 102.565261 
L 251.4576 102.452194 
L 251.7552 102.742276 
L 252.2016 103.803634 
L 252.7968 105.32297 
L 253.0944 105.627254 
L 253.392 105.487901 
L 253.8384 104.645649 
L 254.2848 103.728669 
L 254.5824 103.502194 
L 254.7312 103.569868 
L 255.0288 104.086128 
L 255.4752 105.570415 
L 256.0704 107.519037 
L 256.368 107.890017 
L 256.5168 107.864709 
L 256.8144 107.422882 
L 257.856 104.929724 
L 258.0048 104.914442 
L 258.3024 105.321977 
L 258.7488 106.808933 
L 259.4928 109.394175 
L 259.7904 109.700355 
L 259.9392 109.643165 
L 260.2368 109.170787 
L 261.1296 107.160951 
L 261.2784 107.087504 
L 261.4272 107.142141 
L 261.7248 107.621462 
L 262.32 109.468007 
L 262.7664 110.638288 
L 263.064 110.93324 
L 263.3616 110.79588 
L 263.808 110.079882 
L 264.2544 109.448482 
L 264.552 109.420813 
L 264.8496 109.798485 
L 265.4448 111.336713 
L 265.8912 112.319004 
L 266.1888 112.531348 
L 266.4864 112.336811 
L 267.528 110.851399 
L 267.8256 111.084914 
L 268.1232 111.766288 
L 269.1648 114.853866 
L 269.4624 114.961952 
L 269.76 114.564839 
L 270.8016 112.297414 
L 270.9504 112.309735 
L 271.248 112.765705 
L 271.6944 114.310147 
L 272.2896 116.585571 
L 272.5872 117.168622 
L 272.736 117.246032 
L 272.8848 117.179163 
L 273.1824 116.674086 
L 274.0752 114.537719 
L 274.224 114.45733 
L 274.3728 114.513917 
L 274.6704 115.02798 
L 275.2656 117.060907 
L 275.712 118.414428 
L 276.0096 118.806885 
L 276.1584 118.819921 
L 276.456 118.527583 
L 277.3488 117.072629 
L 277.6464 117.137317 
L 277.944 117.619058 
L 279.1344 120.308803 
L 279.432 120.262169 
L 279.8784 119.649485 
L 280.3248 119.027699 
L 280.6224 118.977543 
L 280.92 119.352041 
L 281.3664 120.575316 
L 281.9616 122.324543 
L 282.2592 122.71405 
L 282.408 122.726705 
L 282.7056 122.404411 
L 283.7472 120.408852 
L 283.896 120.43957 
L 284.1936 120.913217 
L 284.64 122.447751 
L 285.2352 124.679147 
L 285.5328 125.237088 
L 285.6816 125.301726 
L 285.8304 125.221935 
L 286.128 124.690841 
L 287.0208 122.508746 
L 287.1696 122.434235 
L 287.3184 122.502937 
L 287.616 123.061466 
L 288.2112 125.250372 
L 288.6576 126.728564 
L 288.9552 127.172865 
L 289.104 127.196145 
L 289.4016 126.887414 
L 290.4432 125.083127 
L 290.592 125.125778 
L 290.8896 125.554431 
L 291.4848 127.26686 
L 291.9312 128.378741 
L 292.2288 128.671638 
L 292.5264 128.560493 
L 293.1216 127.695024 
L 293.4192 127.394196 
L 293.7168 127.440002 
L 294.0144 127.890912 
L 294.6096 129.558975 
L 295.056 130.598946 
L 295.3536 130.816613 
L 295.6512 130.595572 
L 296.2464 129.414907 
L 296.544 128.956847 
L 296.8416 128.901721 
L 297.1392 129.351297 
L 297.5856 130.803864 
L 298.1808 132.917863 
L 298.4784 133.437114 
L 298.6272 133.489007 
L 298.9248 133.184515 
L 299.3712 132.035425 
L 299.8176 130.914623 
L 300.1152 130.659301 
L 300.264 130.743921 
L 300.5616 131.341361 
L 301.1568 133.625508 
L 301.6032 135.158228 
L 301.9008 135.609512 
L 302.0496 135.623909 
L 302.3472 135.270589 
L 303.3888 133.160106 
L 303.5376 133.172037 
L 303.8352 133.574314 
L 304.2816 134.883285 
L 304.8768 136.681673 
L 305.1744 137.089039 
L 305.472 137.055487 
L 305.7696 136.677365 
L 306.3648 135.7578 
L 306.6624 135.666149 
L 306.96 135.977903 
L 307.4064 137.054875 
L 308.0016 138.564392 
L 308.2992 138.87533 
L 308.5968 138.772297 
L 309.0432 138.062149 
L 309.4896 137.354533 
L 309.7872 137.274178 
L 310.0848 137.653383 
L 310.5312 138.958172 
L 311.1264 140.908318 
L 311.424 141.39114 
L 311.5728 141.437502 
L 311.8704 141.143424 
L 312.3168 140.043677 
L 312.7632 138.980168 
L 313.0608 138.755432 
L 313.2096 138.852049 
L 313.5072 139.467062 
L 314.1024 141.763101 
L 314.5488 143.279219 
L 314.8464 143.700476 
L 314.9952 143.692905 
L 315.2928 143.281691 
L 316.3344 140.929233 
L 316.4832 140.924551 
L 316.7808 141.323492 
L 317.2272 142.705641 
L 317.8224 144.686509 
L 318.12 145.1703 
L 318.4176 145.170803 
L 318.7152 144.769365 
L 319.4592 143.474179 
L 319.7568 143.437651 
L 320.0544 143.824903 
L 320.6496 145.390586 
L 321.096 146.381311 
L 321.3936 146.60241 
L 321.6912 146.430437 
L 322.7328 145.138133 
L 323.0304 145.403442 
L 323.4768 146.510683 
L 324.2208 148.569485 
L 324.5184 148.798303 
L 324.816 148.544112 
L 325.2624 147.535238 
L 325.7088 146.546026 
L 326.0064 146.34209 
L 326.1552 146.439163 
L 326.4528 147.037125 
L 327.048 149.251109 
L 327.4944 150.689268 
L 327.792 151.056916 
L 327.9408 151.022232 
L 328.2384 150.556307 
L 329.28 148.054248 
L 329.4288 148.044622 
L 329.7264 148.453789 
L 330.1728 149.898884 
L 330.768 151.996145 
L 331.0656 152.511634 
L 331.2144 152.572011 
L 331.512 152.318713 
L 332.1072 150.986794 
L 332.5536 150.299408 
L 332.7024 150.272475 
L 333 150.567344 
L 333.4464 151.679577 
L 334.0416 153.250872 
L 334.3392 153.585564 
L 334.6368 153.508304 
L 335.0832 152.850401 
L 335.5296 152.191189 
L 335.8272 152.108854 
L 336.1248 152.430724 
L 336.5712 153.516532 
L 337.1664 154.995179 
L 337.464 155.255065 
L 337.7616 155.069402 
L 338.208 154.179644 
L 338.6544 153.25997 
L 338.952 153.052646 
L 339.1008 153.132591 
L 339.3984 153.670668 
L 339.9936 155.712207 
L 340.44 157.029861 
L 340.7376 157.336859 
L 340.8864 157.278293 
L 341.184 156.775903 
L 342.2256 154.224958 
L 342.3744 154.216858 
L 342.672 154.636413 
L 343.1184 156.112021 
L 343.7136 158.241413 
L 344.0112 158.744315 
L 344.16 158.786559 
L 344.4576 158.470175 
L 344.904 157.338377 
L 345.3504 156.250945 
L 345.648 155.980817 
L 345.7968 156.03388 
L 346.0944 156.503373 
L 347.2848 159.488508 
L 347.5824 159.473653 
L 347.88 159.082936 
L 348.624 157.822584 
L 348.9216 157.773495 
L 349.2192 158.126905 
L 349.8144 159.567635 
L 350.2608 160.423178 
L 350.5584 160.536955 
L 350.856 160.246237 
L 351.8976 158.553386 
L 352.0464 158.595363 
L 352.344 159.029278 
L 352.7904 160.330729 
L 353.3856 162.004398 
L 353.6832 162.260371 
L 353.832 162.188457 
L 354.1296 161.678782 
L 355.1712 159.167134 
L 355.32 159.160135 
L 355.6176 159.575591 
L 356.064 161.03087 
L 356.6592 163.102723 
L 356.9568 163.556339 
L 357.1056 163.567113 
L 357.4032 163.173471 
L 357.9984 161.431092 
L 358.4448 160.431016 
L 358.5936 160.324072 
L 358.7424 160.354333 
L 359.04 160.809692 
L 359.6352 162.666613 
L 360.0816 163.83 
L 360.3792 164.081988 
L 360.6768 163.858792 
L 361.1232 162.933177 
L 361.5696 162.026674 
L 361.8672 161.80957 
L 362.1648 162.016702 
L 362.6112 162.949147 
L 363.2064 164.252144 
L 363.504 164.459907 
L 363.8016 164.266118 
L 364.248 163.456889 
L 364.6944 162.681352 
L 364.992 162.546187 
L 365.2896 162.837458 
L 365.736 163.913367 
L 366.3312 165.391448 
L 366.6288 165.619845 
L 366.9264 165.360836 
L 367.3728 164.26916 
L 367.3728 164.26916 
" style="fill:none;stroke:#55a868;stroke-linecap:round;stroke-width:1.75;"/>
   </g>
   <g id="patch_3">
    <path d="M 54 252 
L 54 28.8 
" style="fill:none;"/>
   </g>
   <g id="patch_4">
    <path d="M 54 252 
L 388.8 252 
" style="fill:none;"/>
   </g>
   <g id="patch_5">
    <path d="M 54 28.8 
L 388.8 28.8 
" style="fill:none;"/>
   </g>
   <g id="patch_6">
    <path d="M 388.8 252 
L 388.8 28.8 
" style="fill:none;"/>
   </g>
   <g id="text_16">
    <!-- exp : 1, sin : 3 -->
    <defs>
     <path d="M 51.421875 26.65625 
Q 51.421875 20.65625 50.4375 15.578125 
Q 49.46875 10.5 47.1875 6.828125 
Q 44.921875 3.171875 41.1875 1.09375 
Q 37.453125 -0.984375 31.984375 -0.984375 
Q 26.3125 -0.984375 22.0625 1.171875 
Q 17.828125 3.328125 15.578125 8.203125 
L 15.328125 8.203125 
Q 15.375 8.109375 15.40625 7.328125 
Q 15.4375 6.546875 15.453125 5.375 
Q 15.484375 4.203125 15.5 2.75 
Q 15.53125 1.3125 15.53125 -0.09375 
L 15.53125 -20.75 
L 6.734375 -20.75 
L 6.734375 42.046875 
Q 6.734375 43.953125 6.703125 45.703125 
Q 6.6875 47.46875 6.640625 48.90625 
Q 6.59375 50.34375 6.546875 51.359375 
Q 6.5 52.390625 6.453125 52.828125 
L 14.9375 52.828125 
Q 14.984375 52.6875 15.0625 51.796875 
Q 15.140625 50.921875 15.203125 49.671875 
Q 15.28125 48.4375 15.359375 47.015625 
Q 15.4375 45.609375 15.4375 44.34375 
L 15.625 44.34375 
Q 16.84375 46.875 18.40625 48.65625 
Q 19.96875 50.4375 21.96875 51.578125 
Q 23.96875 52.734375 26.4375 53.25 
Q 28.90625 53.765625 31.984375 53.765625 
Q 37.453125 53.765625 41.1875 51.8125 
Q 44.921875 49.859375 47.1875 46.3125 
Q 49.46875 42.78125 50.4375 37.765625 
Q 51.421875 32.765625 51.421875 26.65625 
M 42.1875 26.46875 
Q 42.1875 31.34375 41.59375 35.15625 
Q 41.015625 38.96875 39.578125 41.59375 
Q 38.140625 44.234375 35.734375 45.59375 
Q 33.34375 46.96875 29.734375 46.96875 
Q 26.8125 46.96875 24.21875 46.140625 
Q 21.625 45.3125 19.703125 42.96875 
Q 17.78125 40.625 16.65625 36.5 
Q 15.53125 32.375 15.53125 25.78125 
Q 15.53125 20.171875 16.453125 16.28125 
Q 17.390625 12.40625 19.171875 10.015625 
Q 20.953125 7.625 23.578125 6.5625 
Q 26.21875 5.515625 29.640625 5.515625 
Q 33.296875 5.515625 35.71875 6.921875 
Q 38.140625 8.34375 39.578125 11.03125 
Q 41.015625 13.71875 41.59375 17.59375 
Q 42.1875 21.484375 42.1875 26.46875 
" id="LiberationSans-70"/>
     <path d="M 9.125 42.71875 
L 9.125 52.828125 
L 18.65625 52.828125 
L 18.65625 42.71875 
z
M 9.125 0 
L 9.125 10.109375 
L 18.65625 10.109375 
L 18.65625 0 
z
" id="LiberationSans-3a"/>
     <path d="M 18.796875 10.6875 
L 18.796875 2.484375 
Q 18.796875 -0.09375 18.578125 -2.21875 
Q 18.359375 -4.34375 17.875 -6.171875 
Q 17.390625 -8.015625 16.671875 -9.625 
Q 15.96875 -11.234375 14.984375 -12.796875 
L 8.984375 -12.796875 
Q 11.1875 -9.625 12.375 -6.390625 
Q 13.578125 -3.171875 13.578125 0 
L 9.28125 0 
L 9.28125 10.6875 
z
" id="LiberationSans-2c"/>
     <path d="M 13.484375 24.5625 
Q 13.484375 20.40625 14.328125 16.90625 
Q 15.1875 13.421875 16.96875 10.90625 
Q 18.75 8.40625 21.53125 7 
Q 24.3125 5.609375 28.21875 5.609375 
Q 33.9375 5.609375 37.375 7.90625 
Q 40.828125 10.203125 42.046875 13.71875 
L 49.75 11.53125 
Q 48.921875 9.328125 47.4375 7.109375 
Q 45.953125 4.890625 43.453125 3.09375 
Q 40.96875 1.3125 37.234375 0.15625 
Q 33.5 -0.984375 28.21875 -0.984375 
Q 16.5 -0.984375 10.375 6 
Q 4.25 12.984375 4.25 26.765625 
Q 4.25 34.1875 6.09375 39.328125 
Q 7.953125 44.484375 11.171875 47.703125 
Q 14.40625 50.921875 18.703125 52.359375 
Q 23 53.8125 27.875 53.8125 
Q 34.515625 53.8125 38.984375 51.65625 
Q 43.453125 49.515625 46.15625 45.71875 
Q 48.875 41.9375 50.015625 36.8125 
Q 51.171875 31.6875 51.171875 25.734375 
L 51.171875 24.5625 
z
M 42.09375 31.296875 
Q 41.359375 39.65625 37.84375 43.484375 
Q 34.328125 47.3125 27.734375 47.3125 
Q 25.53125 47.3125 23.109375 46.609375 
Q 20.703125 45.90625 18.65625 44.09375 
Q 16.609375 42.28125 15.1875 39.171875 
Q 13.765625 36.078125 13.578125 31.296875 
z
" id="LiberationSans-65"/>
     <path id="LiberationSans-20"/>
     <path d="M 39.109375 0 
L 24.90625 21.6875 
L 10.59375 0 
L 1.125 0 
L 19.921875 27.15625 
L 2 52.828125 
L 11.71875 52.828125 
L 24.90625 32.28125 
L 37.984375 52.828125 
L 47.796875 52.828125 
L 29.890625 27.25 
L 48.921875 0 
z
" id="LiberationSans-78"/>
     <path d="M 51.21875 19 
Q 51.21875 14.265625 49.671875 10.546875 
Q 48.140625 6.84375 45.1875 4.265625 
Q 42.234375 1.703125 37.859375 0.359375 
Q 33.5 -0.984375 27.875 -0.984375 
Q 21.484375 -0.984375 17.109375 0.609375 
Q 12.75 2.203125 9.90625 4.8125 
Q 7.078125 7.421875 5.65625 10.765625 
Q 4.25 14.109375 3.8125 17.671875 
L 12.890625 18.5 
Q 13.28125 15.765625 14.328125 13.515625 
Q 15.375 11.28125 17.1875 9.671875 
Q 19 8.0625 21.625 7.171875 
Q 24.265625 6.296875 27.875 6.296875 
Q 34.515625 6.296875 38.296875 9.5625 
Q 42.09375 12.84375 42.09375 19.28125 
Q 42.09375 23.09375 40.40625 25.40625 
Q 38.71875 27.734375 36.203125 29.03125 
Q 33.6875 30.328125 30.734375 30.765625 
Q 27.78125 31.203125 25.296875 31.203125 
L 20.3125 31.203125 
L 20.3125 38.8125 
L 25.09375 38.8125 
Q 27.59375 38.8125 30.265625 39.328125 
Q 32.953125 39.84375 35.171875 41.1875 
Q 37.40625 42.53125 38.84375 44.828125 
Q 40.28125 47.125 40.28125 50.6875 
Q 40.28125 56.203125 37.03125 59.390625 
Q 33.796875 62.59375 27.390625 62.59375 
Q 21.578125 62.59375 17.984375 59.609375 
Q 14.40625 56.640625 13.8125 51.21875 
L 4.984375 51.90625 
Q 5.515625 56.453125 7.46875 59.8125 
Q 9.421875 63.1875 12.421875 65.40625 
Q 15.4375 67.625 19.28125 68.71875 
Q 23.140625 69.828125 27.484375 69.828125 
Q 33.25 69.828125 37.390625 68.375 
Q 41.546875 66.9375 44.1875 64.46875 
Q 46.828125 62.015625 48.0625 58.6875 
Q 49.3125 55.375 49.3125 51.609375 
Q 49.3125 48.578125 48.484375 45.9375 
Q 47.65625 43.3125 45.890625 41.203125 
Q 44.140625 39.109375 41.421875 37.59375 
Q 38.71875 36.078125 34.90625 35.296875 
L 34.90625 35.109375 
Q 39.0625 34.671875 42.140625 33.21875 
Q 45.21875 31.78125 47.21875 29.625 
Q 49.21875 27.484375 50.21875 24.75 
Q 51.21875 22.015625 51.21875 19 
" id="LiberationSans-33"/>
     <path d="M 40.28125 0 
L 40.28125 33.5 
Q 40.28125 37.359375 39.71875 39.9375 
Q 39.15625 42.53125 37.890625 44.109375 
Q 36.625 45.703125 34.546875 46.359375 
Q 32.46875 47.015625 29.390625 47.015625 
Q 26.265625 47.015625 23.75 45.921875 
Q 21.234375 44.828125 19.453125 42.75 
Q 17.671875 40.671875 16.6875 37.625 
Q 15.71875 34.578125 15.71875 30.609375 
L 15.71875 0 
L 6.9375 0 
L 6.9375 41.546875 
Q 6.9375 43.21875 6.90625 45.046875 
Q 6.890625 46.875 6.828125 48.5 
Q 6.78125 50.140625 6.734375 51.3125 
Q 6.6875 52.484375 6.640625 52.828125 
L 14.9375 52.828125 
Q 14.984375 52.59375 15.03125 51.515625 
Q 15.09375 50.4375 15.15625 49.046875 
Q 15.234375 47.65625 15.28125 46.21875 
Q 15.328125 44.78125 15.328125 43.796875 
L 15.484375 43.796875 
Q 16.75 46.09375 18.265625 47.953125 
Q 19.78125 49.8125 21.78125 51.09375 
Q 23.78125 52.390625 26.359375 53.09375 
Q 28.953125 53.8125 32.375 53.8125 
Q 36.765625 53.8125 39.9375 52.734375 
Q 43.109375 51.65625 45.15625 49.40625 
Q 47.21875 47.171875 48.171875 43.625 
Q 49.125 40.09375 49.125 35.203125 
L 49.125 0 
z
" id="LiberationSans-6e"/>
     <path d="M 46.390625 14.59375 
Q 46.390625 10.890625 44.9375 7.984375 
Q 43.5 5.078125 40.765625 3.09375 
Q 38.03125 1.125 34.046875 0.0625 
Q 30.078125 -0.984375 24.953125 -0.984375 
Q 20.359375 -0.984375 16.671875 -0.265625 
Q 12.984375 0.4375 10.203125 2 
Q 7.421875 3.5625 5.53125 6.125 
Q 3.65625 8.6875 2.78125 12.40625 
L 10.546875 13.921875 
Q 11.671875 9.671875 15.1875 7.6875 
Q 18.703125 5.71875 24.953125 5.71875 
Q 27.78125 5.71875 30.140625 6.109375 
Q 32.515625 6.5 34.21875 7.453125 
Q 35.9375 8.40625 36.890625 9.984375 
Q 37.84375 11.578125 37.84375 13.921875 
Q 37.84375 16.3125 36.71875 17.84375 
Q 35.59375 19.390625 33.59375 20.40625 
Q 31.59375 21.4375 28.734375 22.1875 
Q 25.875 22.953125 22.46875 23.875 
Q 19.28125 24.703125 16.15625 25.734375 
Q 13.03125 26.765625 10.515625 28.4375 
Q 8.015625 30.125 6.453125 32.609375 
Q 4.890625 35.109375 4.890625 38.875 
Q 4.890625 46.09375 10.03125 49.875 
Q 15.1875 53.65625 25.046875 53.65625 
Q 33.796875 53.65625 38.9375 50.578125 
Q 44.09375 47.515625 45.453125 40.71875 
L 37.546875 39.75 
Q 37.109375 41.796875 35.9375 43.1875 
Q 34.765625 44.578125 33.109375 45.4375 
Q 31.453125 46.296875 29.375 46.65625 
Q 27.296875 47.015625 25.046875 47.015625 
Q 19.09375 47.015625 16.25 45.203125 
Q 13.421875 43.40625 13.421875 39.75 
Q 13.421875 37.59375 14.46875 36.203125 
Q 15.53125 34.8125 17.40625 33.859375 
Q 19.28125 32.90625 21.921875 32.203125 
Q 24.5625 31.5 27.734375 30.71875 
Q 29.828125 30.171875 32.03125 29.5625 
Q 34.234375 28.953125 36.296875 28.09375 
Q 38.375 27.25 40.203125 26.09375 
Q 42.046875 24.953125 43.40625 23.34375 
Q 44.78125 21.734375 45.578125 19.578125 
Q 46.390625 17.4375 46.390625 14.59375 
" id="LiberationSans-73"/>
     <path d="M 6.6875 64.0625 
L 6.6875 72.46875 
L 15.484375 72.46875 
L 15.484375 64.0625 
z
M 6.6875 0 
L 6.6875 52.828125 
L 15.484375 52.828125 
L 15.484375 0 
z
" id="LiberationSans-69"/>
    </defs>
    <g style="fill:#262626;" transform="translate(184.0490625 23.8)scale(0.12 -0.12)">
     <use xlink:href="#LiberationSans-65"/>
     <use x="55.615234375" xlink:href="#LiberationSans-78"/>
     <use x="105.615234375" xlink:href="#LiberationSans-70"/>
     <use x="161.23046875" xlink:href="#LiberationSans-20"/>
     <use x="189.013671875" xlink:href="#LiberationSans-3a"/>
     <use x="216.796875" xlink:href="#LiberationSans-20"/>
     <use x="244.580078125" xlink:href="#LiberationSans-31"/>
     <use x="300.1953125" xlink:href="#LiberationSans-2c"/>
     <use x="327.978515625" xlink:href="#LiberationSans-20"/>
     <use x="355.76171875" xlink:href="#LiberationSans-73"/>
     <use x="405.76171875" xlink:href="#LiberationSans-69"/>
     <use x="427.978515625" xlink:href="#LiberationSans-6e"/>
     <use x="483.59375" xlink:href="#LiberationSans-20"/>
     <use x="511.376953125" xlink:href="#LiberationSans-3a"/>
     <use x="539.16015625" xlink:href="#LiberationSans-20"/>
     <use x="566.943359375" xlink:href="#LiberationSans-33"/>
    </g>
   </g>
  </g>
 </g>
 <defs>
  <clipPath id="pdef545cb91">
   <rect height="223.2" width="334.8" x="54.0" y="28.8"/>
  </clipPath>
 </defs>
</svg>
