<?xml version="1.0" encoding="utf-8" standalone="no"?>
<!DOCTYPE svg PUBLIC "-//W3C//DTD SVG 1.1//EN"
  "http://www.w3.org/Graphics/SVG/1.1/DTD/svg11.dtd">
<!-- Created with matplotlib (http://matplotlib.org/) -->
<svg height="288pt" version="1.1" viewBox="0 0 432 288" width="432pt" xmlns="http://www.w3.org/2000/svg" xmlns:xlink="http://www.w3.org/1999/xlink">
 <defs>
  <style type="text/css">
*{stroke-linecap:butt;stroke-linejoin:round;stroke-miterlimit:100000;}
  </style>
 </defs>
 <g id="figure_1">
  <g id="patch_1">
   <path d="M 0 288 
L 432 288 
L 432 0 
L 0 0 
z
" style="fill:#ffffff;"/>
  </g>
  <g id="axes_1">
   <g id="patch_2">
    <path d="M 54 252 
L 388.8 252 
L 388.8 28.8 
L 54 28.8 
z
" style="fill:#eaeaf2;"/>
   </g>
   <g id="matplotlib.axis_1">
    <g id="xtick_1">
     <g id="line2d_1">
      <path clip-path="url(#pf7e075bac6)" d="M 54 252 
L 54 28.8 
" style="fill:none;stroke:#ffffff;stroke-linecap:round;"/>
     </g>
     <g id="line2d_2"/>
     <g id="line2d_3"/>
     <g id="text_1">
      <!-- 0.00 -->
      <defs>
       <path d="M 51.703125 34.421875 
Q 51.703125 24.515625 49.828125 17.75 
Q 47.953125 10.984375 44.703125 6.8125 
Q 41.453125 2.640625 37.0625 0.828125 
Q 32.671875 -0.984375 27.6875 -0.984375 
Q 22.65625 -0.984375 18.3125 0.828125 
Q 13.96875 2.640625 10.765625 6.78125 
Q 7.5625 10.9375 5.734375 17.703125 
Q 3.90625 24.46875 3.90625 34.421875 
Q 3.90625 44.828125 5.734375 51.640625 
Q 7.5625 58.453125 10.78125 62.5 
Q 14.015625 66.546875 18.40625 68.1875 
Q 22.796875 69.828125 27.984375 69.828125 
Q 32.90625 69.828125 37.21875 68.1875 
Q 41.546875 66.546875 44.765625 62.5 
Q 48 58.453125 49.84375 51.640625 
Q 51.703125 44.828125 51.703125 34.421875 
M 42.78125 34.421875 
Q 42.78125 42.625 41.796875 48.0625 
Q 40.828125 53.515625 38.921875 56.765625 
Q 37.015625 60.015625 34.25 61.359375 
Q 31.5 62.703125 27.984375 62.703125 
Q 24.265625 62.703125 21.4375 61.328125 
Q 18.609375 59.96875 16.671875 56.71875 
Q 14.75 53.46875 13.765625 48.015625 
Q 12.796875 42.578125 12.796875 34.421875 
Q 12.796875 26.515625 13.796875 21.09375 
Q 14.796875 15.671875 16.71875 12.375 
Q 18.65625 9.078125 21.4375 7.640625 
Q 24.21875 6.203125 27.78125 6.203125 
Q 31.25 6.203125 34.03125 7.640625 
Q 36.8125 9.078125 38.734375 12.375 
Q 40.671875 15.671875 41.71875 21.09375 
Q 42.78125 26.515625 42.78125 34.421875 
" id="LiberationSans-30"/>
       <path d="M 9.125 0 
L 9.125 10.6875 
L 18.65625 10.6875 
L 18.65625 0 
z
" id="LiberationSans-2e"/>
      </defs>
      <g style="fill:#262626;" transform="translate(44.26953125 266.246875)scale(0.1 -0.1)">
       <use xlink:href="#LiberationSans-30"/>
       <use x="55.615234375" xlink:href="#LiberationSans-2e"/>
       <use x="83.3984375" xlink:href="#LiberationSans-30"/>
       <use x="139.013671875" xlink:href="#LiberationSans-30"/>
      </g>
     </g>
    </g>
    <g id="xtick_2">
     <g id="line2d_4">
      <path clip-path="url(#pf7e075bac6)" d="M 120.96 252 
L 120.96 28.8 
" style="fill:none;stroke:#ffffff;stroke-linecap:round;"/>
     </g>
     <g id="line2d_5"/>
     <g id="line2d_6"/>
     <g id="text_2">
      <!-- 0.02 -->
      <defs>
       <path d="M 5.03125 0 
L 5.03125 6.203125 
Q 7.515625 11.921875 11.109375 16.28125 
Q 14.703125 20.65625 18.65625 24.1875 
Q 22.609375 27.734375 26.484375 30.765625 
Q 30.375 33.796875 33.5 36.8125 
Q 36.625 39.84375 38.546875 43.15625 
Q 40.484375 46.484375 40.484375 50.6875 
Q 40.484375 53.609375 39.59375 55.828125 
Q 38.71875 58.0625 37.0625 59.5625 
Q 35.40625 61.078125 33.078125 61.828125 
Q 30.765625 62.59375 27.9375 62.59375 
Q 25.296875 62.59375 22.96875 61.859375 
Q 20.65625 61.140625 18.84375 59.671875 
Q 17.046875 58.203125 15.890625 56.03125 
Q 14.75 53.859375 14.40625 50.984375 
L 5.421875 51.8125 
Q 5.859375 55.515625 7.46875 58.78125 
Q 9.078125 62.0625 11.90625 64.53125 
Q 14.75 67 18.71875 68.40625 
Q 22.703125 69.828125 27.9375 69.828125 
Q 33.0625 69.828125 37.0625 68.609375 
Q 41.0625 67.390625 43.8125 64.984375 
Q 46.578125 62.59375 48.046875 59.078125 
Q 49.515625 55.5625 49.515625 50.984375 
Q 49.515625 47.515625 48.265625 44.390625 
Q 47.015625 41.265625 44.9375 38.421875 
Q 42.875 35.59375 40.140625 32.953125 
Q 37.40625 30.328125 34.421875 27.8125 
Q 31.453125 25.296875 28.421875 22.828125 
Q 25.390625 20.359375 22.71875 17.859375 
Q 20.0625 15.375 17.96875 12.8125 
Q 15.875 10.25 14.703125 7.46875 
L 50.59375 7.46875 
L 50.59375 0 
z
" id="LiberationSans-32"/>
      </defs>
      <g style="fill:#262626;" transform="translate(111.22953125 266.246875)scale(0.1 -0.1)">
       <use xlink:href="#LiberationSans-30"/>
       <use x="55.615234375" xlink:href="#LiberationSans-2e"/>
       <use x="83.3984375" xlink:href="#LiberationSans-30"/>
       <use x="139.013671875" xlink:href="#LiberationSans-32"/>
      </g>
     </g>
    </g>
    <g id="xtick_3">
     <g id="line2d_7">
      <path clip-path="url(#pf7e075bac6)" d="M 187.92 252 
L 187.92 28.8 
" style="fill:none;stroke:#ffffff;stroke-linecap:round;"/>
     </g>
     <g id="line2d_8"/>
     <g id="line2d_9"/>
     <g id="text_3">
      <!-- 0.04 -->
      <defs>
       <path d="M 43.015625 15.578125 
L 43.015625 0 
L 34.71875 0 
L 34.71875 15.578125 
L 2.296875 15.578125 
L 2.296875 22.40625 
L 33.796875 68.796875 
L 43.015625 68.796875 
L 43.015625 22.515625 
L 52.6875 22.515625 
L 52.6875 15.578125 
z
M 34.71875 58.890625 
Q 34.625 58.640625 34.234375 57.9375 
Q 33.84375 57.234375 33.34375 56.34375 
Q 32.859375 55.46875 32.34375 54.5625 
Q 31.84375 53.65625 31.453125 53.078125 
L 13.8125 27.09375 
Q 13.578125 26.703125 13.109375 26.0625 
Q 12.640625 25.4375 12.15625 24.78125 
Q 11.671875 24.125 11.171875 23.484375 
Q 10.6875 22.859375 10.40625 22.515625 
L 34.71875 22.515625 
z
" id="LiberationSans-34"/>
      </defs>
      <g style="fill:#262626;" transform="translate(178.18953125 266.246875)scale(0.1 -0.1)">
       <use xlink:href="#LiberationSans-30"/>
       <use x="55.615234375" xlink:href="#LiberationSans-2e"/>
       <use x="83.3984375" xlink:href="#LiberationSans-30"/>
       <use x="139.013671875" xlink:href="#LiberationSans-34"/>
      </g>
     </g>
    </g>
    <g id="xtick_4">
     <g id="line2d_10">
      <path clip-path="url(#pf7e075bac6)" d="M 254.88 252 
L 254.88 28.8 
" style="fill:none;stroke:#ffffff;stroke-linecap:round;"/>
     </g>
     <g id="line2d_11"/>
     <g id="line2d_12"/>
     <g id="text_4">
      <!-- 0.06 -->
      <defs>
       <path d="M 51.21875 22.515625 
Q 51.21875 17.328125 49.78125 13 
Q 48.34375 8.6875 45.53125 5.578125 
Q 42.71875 2.484375 38.5625 0.75 
Q 34.421875 -0.984375 29 -0.984375 
Q 23 -0.984375 18.5 1.3125 
Q 14.015625 3.609375 11.03125 7.921875 
Q 8.0625 12.25 6.5625 18.53125 
Q 5.078125 24.8125 5.078125 32.8125 
Q 5.078125 42 6.765625 48.921875 
Q 8.453125 55.859375 11.625 60.5 
Q 14.796875 65.140625 19.359375 67.484375 
Q 23.921875 69.828125 29.6875 69.828125 
Q 33.203125 69.828125 36.28125 69.09375 
Q 39.359375 68.359375 41.875 66.71875 
Q 44.390625 65.09375 46.28125 62.40625 
Q 48.1875 59.71875 49.3125 55.8125 
L 40.921875 54.296875 
Q 39.546875 58.734375 36.546875 60.71875 
Q 33.546875 62.703125 29.59375 62.703125 
Q 25.984375 62.703125 23.046875 60.984375 
Q 20.125 59.28125 18.0625 55.875 
Q 16.015625 52.484375 14.90625 47.359375 
Q 13.8125 42.234375 13.8125 35.40625 
Q 16.21875 39.84375 20.5625 42.15625 
Q 24.90625 44.484375 30.515625 44.484375 
Q 35.203125 44.484375 39.015625 42.96875 
Q 42.828125 41.453125 45.53125 38.59375 
Q 48.25 35.75 49.734375 31.671875 
Q 51.21875 27.59375 51.21875 22.515625 
M 42.28125 22.125 
Q 42.28125 25.6875 41.40625 28.5625 
Q 40.53125 31.453125 38.765625 33.46875 
Q 37.015625 35.5 34.421875 36.59375 
Q 31.84375 37.703125 28.421875 37.703125 
Q 26.03125 37.703125 23.578125 36.984375 
Q 21.140625 36.28125 19.15625 34.6875 
Q 17.1875 33.109375 15.9375 30.515625 
Q 14.703125 27.9375 14.703125 24.21875 
Q 14.703125 20.40625 15.671875 17.109375 
Q 16.65625 13.8125 18.484375 11.375 
Q 20.3125 8.9375 22.890625 7.515625 
Q 25.484375 6.109375 28.71875 6.109375 
Q 31.890625 6.109375 34.40625 7.203125 
Q 36.921875 8.296875 38.671875 10.375 
Q 40.4375 12.453125 41.359375 15.421875 
Q 42.28125 18.40625 42.28125 22.125 
" id="LiberationSans-36"/>
      </defs>
      <g style="fill:#262626;" transform="translate(245.14953125 266.246875)scale(0.1 -0.1)">
       <use xlink:href="#LiberationSans-30"/>
       <use x="55.615234375" xlink:href="#LiberationSans-2e"/>
       <use x="83.3984375" xlink:href="#LiberationSans-30"/>
       <use x="139.013671875" xlink:href="#LiberationSans-36"/>
      </g>
     </g>
    </g>
    <g id="xtick_5">
     <g id="line2d_13">
      <path clip-path="url(#pf7e075bac6)" d="M 321.84 252 
L 321.84 28.8 
" style="fill:none;stroke:#ffffff;stroke-linecap:round;"/>
     </g>
     <g id="line2d_14"/>
     <g id="line2d_15"/>
     <g id="text_5">
      <!-- 0.08 -->
      <defs>
       <path d="M 51.265625 19.1875 
Q 51.265625 14.796875 49.875 11.109375 
Q 48.484375 7.421875 45.625 4.734375 
Q 42.78125 2.046875 38.328125 0.53125 
Q 33.890625 -0.984375 27.828125 -0.984375 
Q 21.78125 -0.984375 17.359375 0.53125 
Q 12.9375 2.046875 10.03125 4.703125 
Q 7.125 7.375 5.734375 11.0625 
Q 4.34375 14.75 4.34375 19.09375 
Q 4.34375 22.859375 5.484375 25.78125 
Q 6.640625 28.71875 8.5625 30.828125 
Q 10.5 32.953125 12.96875 34.25 
Q 15.4375 35.546875 18.0625 35.984375 
L 18.0625 36.1875 
Q 15.1875 36.859375 12.90625 38.375 
Q 10.640625 39.890625 9.09375 42.015625 
Q 7.5625 44.140625 6.75 46.71875 
Q 5.953125 49.3125 5.953125 52.203125 
Q 5.953125 55.8125 7.34375 59 
Q 8.734375 62.203125 11.46875 64.625 
Q 14.203125 67.046875 18.25 68.4375 
Q 22.3125 69.828125 27.640625 69.828125 
Q 33.25 69.828125 37.375 68.40625 
Q 41.5 67 44.203125 64.578125 
Q 46.921875 62.15625 48.234375 58.9375 
Q 49.5625 55.71875 49.5625 52.09375 
Q 49.5625 49.265625 48.75 46.671875 
Q 47.953125 44.09375 46.40625 41.96875 
Q 44.875 39.84375 42.59375 38.34375 
Q 40.328125 36.859375 37.359375 36.28125 
L 37.359375 36.078125 
Q 40.328125 35.59375 42.859375 34.296875 
Q 45.40625 33.015625 47.265625 30.890625 
Q 49.125 28.765625 50.1875 25.828125 
Q 51.265625 22.90625 51.265625 19.1875 
M 40.4375 51.609375 
Q 40.4375 54.203125 39.765625 56.34375 
Q 39.109375 58.5 37.59375 60.03125 
Q 36.078125 61.578125 33.640625 62.421875 
Q 31.203125 63.28125 27.640625 63.28125 
Q 24.171875 63.28125 21.78125 62.421875 
Q 19.390625 61.578125 17.84375 60.03125 
Q 16.3125 58.5 15.625 56.34375 
Q 14.9375 54.203125 14.9375 51.609375 
Q 14.9375 49.5625 15.46875 47.40625 
Q 16.015625 45.265625 17.421875 43.5 
Q 18.84375 41.75 21.328125 40.625 
Q 23.828125 39.5 27.734375 39.5 
Q 31.890625 39.5 34.40625 40.625 
Q 36.921875 41.75 38.25 43.5 
Q 39.59375 45.265625 40.015625 47.40625 
Q 40.4375 49.5625 40.4375 51.609375 
M 42.140625 20.015625 
Q 42.140625 22.515625 41.453125 24.828125 
Q 40.765625 27.15625 39.109375 28.9375 
Q 37.453125 30.71875 34.640625 31.8125 
Q 31.84375 32.90625 27.640625 32.90625 
Q 23.78125 32.90625 21.0625 31.8125 
Q 18.359375 30.71875 16.671875 28.90625 
Q 14.984375 27.09375 14.203125 24.71875 
Q 13.421875 22.359375 13.421875 19.828125 
Q 13.421875 16.65625 14.203125 14.03125 
Q 14.984375 11.421875 16.6875 9.546875 
Q 18.40625 7.671875 21.1875 6.640625 
Q 23.96875 5.609375 27.9375 5.609375 
Q 31.9375 5.609375 34.671875 6.640625 
Q 37.40625 7.671875 39.0625 9.546875 
Q 40.71875 11.421875 41.421875 14.078125 
Q 42.140625 16.75 42.140625 20.015625 
" id="LiberationSans-38"/>
      </defs>
      <g style="fill:#262626;" transform="translate(312.10953125 266.246875)scale(0.1 -0.1)">
       <use xlink:href="#LiberationSans-30"/>
       <use x="55.615234375" xlink:href="#LiberationSans-2e"/>
       <use x="83.3984375" xlink:href="#LiberationSans-30"/>
       <use x="139.013671875" xlink:href="#LiberationSans-38"/>
      </g>
     </g>
    </g>
    <g id="xtick_6">
     <g id="line2d_16">
      <path clip-path="url(#pf7e075bac6)" d="M 388.8 252 
L 388.8 28.8 
" style="fill:none;stroke:#ffffff;stroke-linecap:round;"/>
     </g>
     <g id="line2d_17"/>
     <g id="line2d_18"/>
     <g id="text_6">
      <!-- 0.10 -->
      <defs>
       <path d="M 7.625 0 
L 7.625 7.46875 
L 25.140625 7.46875 
L 25.140625 60.40625 
L 9.625 49.3125 
L 9.625 57.625 
L 25.875 68.796875 
L 33.984375 68.796875 
L 33.984375 7.46875 
L 50.734375 7.46875 
L 50.734375 0 
z
" id="LiberationSans-31"/>
      </defs>
      <g style="fill:#262626;" transform="translate(379.06953125 266.246875)scale(0.1 -0.1)">
       <use xlink:href="#LiberationSans-30"/>
       <use x="55.615234375" xlink:href="#LiberationSans-2e"/>
       <use x="83.3984375" xlink:href="#LiberationSans-31"/>
       <use x="139.013671875" xlink:href="#LiberationSans-30"/>
      </g>
     </g>
    </g>
   </g>
   <g id="matplotlib.axis_2">
    <g id="ytick_1">
     <g id="line2d_19">
      <path clip-path="url(#pf7e075bac6)" d="M 54 252 
L 388.8 252 
" style="fill:none;stroke:#ffffff;stroke-linecap:round;"/>
     </g>
     <g id="line2d_20"/>
     <g id="line2d_21"/>
     <g id="text_7">
      <!-- −2 -->
      <defs>
       <path d="M 4.9375 29.6875 
L 4.9375 36.8125 
L 53.515625 36.8125 
L 53.515625 29.6875 
z
" id="LiberationSans-2212"/>
      </defs>
      <g style="fill:#262626;" transform="translate(35.5984375 254.5859375)scale(0.1 -0.1)">
       <use xlink:href="#LiberationSans-2212"/>
       <use x="58.3984375" xlink:href="#LiberationSans-32"/>
      </g>
     </g>
    </g>
    <g id="ytick_2">
     <g id="line2d_22">
      <path clip-path="url(#pf7e075bac6)" d="M 54 220.114286 
L 388.8 220.114286 
" style="fill:none;stroke:#ffffff;stroke-linecap:round;"/>
     </g>
     <g id="line2d_23"/>
     <g id="line2d_24"/>
     <g id="text_8">
      <!-- 0 -->
      <g style="fill:#262626;" transform="translate(41.4390625 222.700223214)scale(0.1 -0.1)">
       <use xlink:href="#LiberationSans-30"/>
      </g>
     </g>
    </g>
    <g id="ytick_3">
     <g id="line2d_25">
      <path clip-path="url(#pf7e075bac6)" d="M 54 188.228571 
L 388.8 188.228571 
" style="fill:none;stroke:#ffffff;stroke-linecap:round;"/>
     </g>
     <g id="line2d_26"/>
     <g id="line2d_27"/>
     <g id="text_9">
      <!-- 2 -->
      <g style="fill:#262626;" transform="translate(41.4390625 190.814508929)scale(0.1 -0.1)">
       <use xlink:href="#LiberationSans-32"/>
      </g>
     </g>
    </g>
    <g id="ytick_4">
     <g id="line2d_28">
      <path clip-path="url(#pf7e075bac6)" d="M 54 156.342857 
L 388.8 156.342857 
" style="fill:none;stroke:#ffffff;stroke-linecap:round;"/>
     </g>
     <g id="line2d_29"/>
     <g id="line2d_30"/>
     <g id="text_10">
      <!-- 4 -->
      <g style="fill:#262626;" transform="translate(41.4390625 158.928794643)scale(0.1 -0.1)">
       <use xlink:href="#LiberationSans-34"/>
      </g>
     </g>
    </g>
    <g id="ytick_5">
     <g id="line2d_31">
      <path clip-path="url(#pf7e075bac6)" d="M 54 124.457143 
L 388.8 124.457143 
" style="fill:none;stroke:#ffffff;stroke-linecap:round;"/>
     </g>
     <g id="line2d_32"/>
     <g id="line2d_33"/>
     <g id="text_11">
      <!-- 6 -->
      <g style="fill:#262626;" transform="translate(41.4390625 127.043080357)scale(0.1 -0.1)">
       <use xlink:href="#LiberationSans-36"/>
      </g>
     </g>
    </g>
    <g id="ytick_6">
     <g id="line2d_34">
      <path clip-path="url(#pf7e075bac6)" d="M 54 92.571429 
L 388.8 92.571429 
" style="fill:none;stroke:#ffffff;stroke-linecap:round;"/>
     </g>
     <g id="line2d_35"/>
     <g id="line2d_36"/>
     <g id="text_12">
      <!-- 8 -->
      <g style="fill:#262626;" transform="translate(41.4390625 95.1573660714)scale(0.1 -0.1)">
       <use xlink:href="#LiberationSans-38"/>
      </g>
     </g>
    </g>
    <g id="ytick_7">
     <g id="line2d_37">
      <path clip-path="url(#pf7e075bac6)" d="M 54 60.685714 
L 388.8 60.685714 
" style="fill:none;stroke:#ffffff;stroke-linecap:round;"/>
     </g>
     <g id="line2d_38"/>
     <g id="line2d_39"/>
     <g id="text_13">
      <!-- 10 -->
      <g style="fill:#262626;" transform="translate(35.878125 63.2716517857)scale(0.1 -0.1)">
       <use xlink:href="#LiberationSans-31"/>
       <use x="55.615234375" xlink:href="#LiberationSans-30"/>
      </g>
     </g>
    </g>
    <g id="ytick_8">
     <g id="line2d_40">
      <path clip-path="url(#pf7e075bac6)" d="M 54 28.8 
L 388.8 28.8 
" style="fill:none;stroke:#ffffff;stroke-linecap:round;"/>
     </g>
     <g id="line2d_41"/>
     <g id="line2d_42"/>
     <g id="text_14">
      <!-- 12 -->
      <g style="fill:#262626;" transform="translate(35.878125 31.3859375)scale(0.1 -0.1)">
       <use xlink:href="#LiberationSans-31"/>
       <use x="55.615234375" xlink:href="#LiberationSans-32"/>
      </g>
     </g>
    </g>
   </g>
   <g id="line2d_43">
    <path clip-path="url(#pf7e075bac6)" d="M 54 220.009911 
L 55.7856 218.133545 
L 56.232 217.444479 
L 56.6784 217.264038 
L 57.4224 217.08645 
L 57.72 217.133386 
L 58.0176 216.973989 
L 58.1664 216.996851 
L 58.464 216.381856 
L 59.5056 213.022297 
L 60.1008 212.31496 
L 60.2496 212.33398 
L 60.5472 212.566491 
L 60.9936 212.519635 
L 61.44 212.782166 
L 61.7376 212.940973 
L 62.184 213.279615 
L 62.4816 213.189394 
L 62.928 212.604546 
L 63.5232 211.450682 
L 64.1184 210.174743 
L 64.416 210.000823 
L 64.7136 210.196585 
L 64.8624 210.368545 
L 65.0112 210.360063 
L 65.3088 209.770672 
L 65.7552 208.655644 
L 66.0528 208.426529 
L 66.3504 208.742979 
L 66.648 208.967247 
L 66.9456 209.011792 
L 67.2432 209.350912 
L 67.9872 210.124109 
L 68.2848 210.38047 
L 68.5824 210.425269 
L 68.88 210.322454 
L 69.1776 209.765681 
L 69.624 208.486363 
L 69.9216 208.303403 
L 70.368 208.177087 
L 70.6656 208.40134 
L 70.9632 208.703871 
L 71.2608 208.349525 
L 71.7072 207.342574 
L 72.3024 205.555986 
L 72.6 205.442967 
L 73.0464 205.53762 
L 73.4928 205.280238 
L 74.5344 206.854293 
L 74.6832 206.888506 
L 74.9808 206.574145 
L 76.32 204.487671 
L 76.4688 204.582451 
L 77.2128 205.794093 
L 77.5104 205.411305 
L 78.4032 204.017739 
L 80.04 206.201177 
L 80.1888 206.235375 
L 80.3376 206.110463 
L 80.6352 205.235933 
L 81.2304 203.313543 
L 81.528 202.61987 
L 81.6768 202.583998 
L 81.9744 203.210553 
L 82.4208 204.22015 
L 82.5696 204.293407 
L 82.8672 203.690751 
L 83.3136 202.577302 
L 84.2064 201.171142 
L 84.6528 201.330411 
L 84.8016 201.295497 
L 84.9504 201.409966 
L 85.248 201.930501 
L 85.5456 201.702039 
L 85.8432 201.217855 
L 86.5872 199.317785 
L 86.8848 199.797027 
L 87.48 200.924666 
L 88.0752 200.500267 
L 88.3728 200.338925 
L 88.5216 200.215368 
L 88.6704 200.274038 
L 89.4144 201.662979 
L 89.712 201.600483 
L 89.8608 201.714953 
L 90.1584 202.306593 
L 90.3072 202.363827 
L 90.456 202.204877 
L 90.7536 201.144837 
L 91.2 199.117065 
L 91.3488 199.182749 
L 91.7952 200.255066 
L 92.2416 201.0267 
L 92.5392 200.991147 
L 92.8368 200.720757 
L 93.1344 200.347534 
L 93.2832 200.323461 
L 93.5808 200.667986 
L 94.6224 202.709628 
L 94.92 203.231757 
L 95.0688 203.039326 
L 95.5152 201.246233 
L 95.8128 200.514137 
L 96.2592 201.056832 
L 96.5568 200.875083 
L 96.8544 200.418161 
L 97.3008 199.190561 
L 97.5984 198.248179 
L 97.7472 198.043951 
L 97.896 198.076953 
L 98.3424 198.994942 
L 98.4912 198.863573 
L 98.7888 197.814055 
L 99.2352 194.835132 
L 99.5328 193.377158 
L 99.8304 193.882546 
L 100.128 193.327416 
L 100.5744 192.056451 
L 101.1696 190.161802 
L 101.4672 189.711895 
L 101.9136 188.572778 
L 102.36 189.359239 
L 102.5088 188.899925 
L 102.8064 186.603994 
L 103.4016 179.955345 
L 103.5504 179.346009 
L 103.6992 179.489335 
L 103.9968 180.810201 
L 104.1456 180.990833 
L 104.2944 180.856116 
L 104.4432 180.282492 
L 105.1872 175.433313 
L 105.336 175.282971 
L 105.4848 175.313741 
L 105.7824 175.845595 
L 106.08 176.87646 
L 106.5264 178.832489 
L 106.6752 178.580592 
L 106.824 177.531552 
L 107.1216 172.935705 
L 107.568 166.04297 
L 107.7168 165.490231 
L 108.0144 166.740789 
L 108.1632 166.29678 
L 108.9072 160.398082 
L 109.056 160.110154 
L 109.2048 160.40717 
L 109.5024 162.428565 
L 109.9488 165.461374 
L 110.2464 165.924674 
L 110.3952 166.055565 
L 110.6928 167.540323 
L 110.8416 167.332587 
L 111.1392 164.410421 
L 111.8832 153.226985 
L 112.1808 154.746339 
L 112.3296 154.111176 
L 112.9248 147.089782 
L 113.0736 146.996198 
L 113.3712 148.145678 
L 113.6688 150.422955 
L 114.1152 153.840307 
L 114.5616 155.013382 
L 115.008 157.913866 
L 115.1568 157.580661 
L 115.4544 154.025244 
L 115.9008 146.05254 
L 116.0496 145.19593 
L 116.3472 146.611656 
L 116.6448 143.796785 
L 116.9424 141.099094 
L 117.0912 140.646955 
L 117.24 140.604228 
L 117.3888 140.764773 
L 117.5376 141.140546 
L 117.8352 143.414635 
L 118.4304 149.045811 
L 118.728 150.137738 
L 119.0256 150.528338 
L 119.1744 151.120137 
L 119.472 152.979552 
L 119.6208 152.12916 
L 119.9184 147.621477 
L 120.3648 140.060417 
L 120.5136 140.016096 
L 120.6624 141.497028 
L 120.8112 141.069281 
L 121.2576 137.421874 
L 121.5552 136.759289 
L 121.704 136.622659 
L 121.8528 136.880933 
L 122.0016 137.830968 
L 122.448 141.956501 
L 122.8944 145.368273 
L 123.192 146.984241 
L 123.3408 146.932107 
L 123.7872 145.841457 
L 123.936 146.344294 
L 124.0848 147.409596 
L 124.2336 146.092078 
L 124.9776 129.821914 
L 125.2752 131.85431 
L 125.424 131.510422 
L 126.168 127.017725 
L 126.3168 126.627285 
L 126.4656 126.988869 
L 127.0608 131.41891 
L 127.2096 131.594441 
L 127.3584 132.048653 
L 127.9536 136.006946 
L 128.4 134.246854 
L 128.5488 134.476272 
L 128.8464 136.529553 
L 128.9952 135.063607 
L 129.7392 118.843822 
L 130.0368 121.184393 
L 130.1856 120.545085 
L 130.632 117.549581 
L 130.9296 116.932911 
L 131.0784 117.094094 
L 131.2272 117.970154 
L 131.6736 122.520883 
L 131.9712 124.083442 
L 132.5664 128.61504 
L 133.0128 127.973659 
L 133.1616 128.097375 
L 133.3104 128.510455 
L 133.4592 129.456663 
L 133.7568 132.259896 
L 133.9056 131.723897 
L 134.2032 125.995947 
L 134.6496 115.310407 
L 134.7984 114.725942 
L 135.096 117.277755 
L 135.2448 116.443306 
L 135.6912 111.54869 
L 135.84 111.229992 
L 135.9888 111.759614 
L 136.2864 115.200401 
L 137.0304 123.979176 
L 137.4768 126.56989 
L 138.072 128.490207 
L 138.3696 130.818981 
L 139.1136 138.930228 
L 139.2624 139.390658 
L 139.4112 139.025885 
L 139.7088 136.072311 
L 140.1552 127.534433 
L 140.4528 122.550855 
L 140.6016 122.453445 
L 140.7504 124.487913 
L 140.8992 124.102255 
L 141.4944 116.777309 
L 141.792 116.11026 
L 141.9408 116.317677 
L 142.0896 116.940245 
L 142.3872 119.741246 
L 142.8336 124.720519 
L 143.28 129.996967 
L 143.8752 136.215797 
L 144.6192 141.090485 
L 144.9168 141.356253 
L 145.0656 141.778419 
L 145.3632 143.988897 
L 145.6608 145.628619 
L 145.8096 145.285051 
L 146.1072 143.03105 
L 146.4048 137.376756 
L 147.1488 118.666378 
L 147.2976 119.763406 
L 147.4464 119.738535 
L 148.6368 100.742621 
L 148.7856 100.075731 
L 148.9344 100.742143 
L 149.3808 105.297336 
L 149.8272 103.945063 
L 149.976 104.063518 
L 150.1248 104.721321 
L 150.4224 108.289651 
L 150.72 111.736018 
L 151.0176 113.445411 
L 151.6128 114.678591 
L 151.7616 115.094859 
L 151.9104 114.990115 
L 152.208 114.399591 
L 152.6544 117.654007 
L 152.952 115.353931 
L 153.2496 112.844366 
L 153.5472 111.738888 
L 153.9936 110.53313 
L 154.1424 109.214974 
L 154.7376 99.082651 
L 154.8864 100.693995 
L 155.0352 98.177734 
L 155.4816 86.368701 
L 155.7792 84.690077 
L 155.928 84.553287 
L 156.0768 84.692628 
L 156.2256 85.496626 
L 156.8208 92.43432 
L 157.1184 94.661697 
L 157.5648 101.367103 
L 158.0112 107.069703 
L 158.6064 111.458931 
L 159.3504 119.559816 
L 159.648 122.663731 
L 159.9456 125.606145 
L 160.0944 126.092242 
L 160.2432 126.050631 
L 160.392 125.72747 
L 160.5408 125.723643 
L 160.8384 128.208178 
L 160.9872 128.016864 
L 161.136 127.337858 
L 161.2848 127.294812 
L 161.5824 130.027737 
L 161.88 132.795735 
L 162.1776 133.793121 
L 162.3264 134.089179 
L 162.4752 134.051554 
L 162.624 133.016225 
L 162.9216 125.559113 
L 163.2192 116.62362 
L 163.368 117.196766 
L 163.5168 116.395956 
L 163.9632 104.760062 
L 164.2608 103.193357 
L 164.5584 102.075603 
L 164.7072 102.190711 
L 164.856 103.600697 
L 165.1536 107.692591 
L 165.4512 110.45501 
L 166.4928 124.564279 
L 166.7904 125.326666 
L 166.9392 125.678525 
L 167.088 126.674954 
L 167.5344 131.032934 
L 168.1296 133.078243 
L 168.576 134.535101 
L 168.8736 136.962401 
L 169.0224 136.18423 
L 169.4688 130.36445 
L 169.7664 132.427934 
L 169.9152 132.420122 
L 170.5104 131.570686 
L 170.6592 132.444514 
L 170.808 133.994479 
L 171.1056 134.340439 
L 171.4032 136.452708 
L 171.552 135.820733 
L 171.8496 131.389735 
L 172.1472 121.363113 
L 172.4448 107.911805 
L 172.5936 105.274059 
L 172.7424 107.647313 
L 172.8912 104.96987 
L 173.4864 85.883241 
L 173.784 79.622321 
L 173.9328 78.458174 
L 174.0816 79.752893 
L 174.3792 83.453549 
L 174.6768 84.695657 
L 174.9744 88.06518 
L 175.5696 97.396056 
L 175.7184 98.056728 
L 176.016 98.272594 
L 176.1648 99.03833 
L 176.6112 104.017443 
L 176.9088 108.250113 
L 177.0576 109.110708 
L 177.504 109.803106 
L 177.9504 111.586953 
L 178.0992 112.797653 
L 178.3968 115.962789 
L 178.8432 113.952075 
L 178.992 114.48361 
L 179.2896 117.910846 
L 179.5872 120.77785 
L 179.736 121.212453 
L 179.8848 122.131718 
L 180.0336 124.146257 
L 180.48 125.975381 
L 180.7776 128.203714 
L 180.9264 128.48112 
L 181.0752 128.231774 
L 181.224 126.694563 
L 181.5216 118.095624 
L 182.1168 92.180191 
L 182.4144 91.767749 
L 182.712 77.556605 
L 183.0096 63.543471 
L 183.3072 58.203411 
L 183.456 57.989777 
L 183.6048 59.630297 
L 183.9024 64.037381 
L 184.2 63.246137 
L 184.3488 63.776715 
L 184.6464 69.129211 
L 185.2416 78.446057 
L 185.688 81.217085 
L 185.9856 83.164665 
L 186.7296 91.409354 
L 186.8784 91.46898 
L 187.3248 90.259236 
L 187.4736 90.346762 
L 187.6224 91.01429 
L 187.7712 92.556283 
L 188.0688 96.003607 
L 188.2176 94.947233 
L 188.664 90.477494 
L 188.8128 90.298774 
L 188.9616 91.299189 
L 189.1104 94.167946 
L 189.2592 94.755919 
L 189.408 94.100667 
L 189.5568 94.154076 
L 189.8544 97.477843 
L 190.0032 97.516584 
L 190.152 98.099774 
L 190.5984 103.55526 
L 190.7472 104.102897 
L 190.896 103.897872 
L 191.0448 102.866529 
L 191.3424 98.254579 
L 192.0864 80.145725 
L 192.2352 81.167184 
L 192.384 81.406327 
L 192.6816 69.156473 
L 192.9792 56.980594 
L 193.128 54.987737 
L 193.2768 55.029189 
L 193.4256 56.259977 
L 194.0208 63.93726 
L 194.1696 64.199998 
L 194.3184 65.415801 
L 194.9136 74.434037 
L 195.5088 79.672222 
L 195.8064 81.984574 
L 196.104 86.409195 
L 196.4016 90.261946 
L 196.5504 90.840194 
L 196.6992 90.636285 
L 196.9968 88.074427 
L 197.2944 85.826165 
L 197.4432 86.552841 
L 197.8896 92.596778 
L 198.0384 93.196707 
L 198.1872 93.269088 
L 198.336 93.037279 
L 198.4848 92.500642 
L 198.9312 89.632363 
L 199.2288 92.762743 
L 199.5264 92.417261 
L 200.4192 102.750783 
L 200.7168 105.700053 
L 200.8656 106.132104 
L 201.0144 105.4971 
L 201.9072 94.709685 
L 202.3536 84.737746 
L 202.5024 86.129717 
L 202.6512 85.391722 
L 203.3952 61.673693 
L 203.544 62.156283 
L 203.8416 66.604022 
L 204.1392 72.492675 
L 206.8176 99.111189 
L 207.4128 95.929154 
L 207.5616 96.626973 
L 207.8592 100.079877 
L 208.1568 104.641606 
L 208.4544 106.487311 
L 208.9008 108.263505 
L 209.0496 107.917545 
L 209.3472 106.387987 
L 209.7936 109.279543 
L 209.9424 109.747147 
L 211.1328 124.819365 
L 211.2816 124.732635 
L 212.0256 118.14425 
L 212.472 112.865889 
L 212.9184 103.440312 
L 213.0672 105.669761 
L 213.216 103.183791 
L 213.8112 80.913852 
L 213.96 79.563492 
L 214.1088 79.529534 
L 214.2576 80.715523 
L 214.704 86.702385 
L 215.0016 87.526471 
L 215.1504 88.883846 
L 215.448 92.936042 
L 215.7456 93.509825 
L 216.6384 98.360439 
L 217.0848 103.006666 
L 217.3824 101.286273 
L 217.68 100.077166 
L 217.8288 100.20168 
L 218.1264 101.43486 
L 218.424 104.987726 
L 218.7216 108.031855 
L 219.0192 110.520535 
L 219.4656 116.926534 
L 219.6144 117.439575 
L 220.0608 115.559275 
L 220.3584 119.155186 
L 221.4 132.257345 
L 221.8464 136.12843 
L 221.9952 135.568677 
L 222.888 127.157863 
L 223.1856 126.116635 
L 223.3344 124.202695 
L 223.7808 116.522542 
L 223.9296 117.529334 
L 224.0784 114.021267 
L 224.6736 91.2681 
L 224.8224 89.972902 
L 225.12 93.282002 
L 225.5664 94.206369 
L 225.7152 95.425041 
L 226.1616 100.39969 
L 226.4592 100.423764 
L 226.9056 101.900073 
L 227.2032 103.361554 
L 227.5008 107.115778 
L 227.7984 110.142211 
L 227.9472 109.904503 
L 228.2448 108.226677 
L 228.3936 108.067567 
L 228.5424 108.498343 
L 228.84 110.631338 
L 229.2864 115.866494 
L 229.584 118.599259 
L 230.0304 123.731583 
L 230.4768 127.736748 
L 230.7744 125.997861 
L 231.072 124.83467 
L 231.2208 124.783334 
L 231.3696 125.103466 
L 231.5184 126.193001 
L 231.816 129.289263 
L 232.1136 131.027194 
L 232.56 134.886163 
L 232.7088 135.172497 
L 232.8576 134.522506 
L 233.304 130.704989 
L 233.4528 130.496616 
L 233.8992 131.178173 
L 234.048 130.808299 
L 234.1968 129.393849 
L 234.792 118.366653 
L 234.9408 118.303041 
L 235.2384 106.707482 
L 235.536 94.10832 
L 235.6848 91.005521 
L 235.8336 90.849281 
L 235.9824 93.699545 
L 236.1312 94.243356 
L 236.28 93.822305 
L 236.4288 93.832509 
L 236.5776 94.941015 
L 237.024 100.844177 
L 237.1728 101.318158 
L 237.4704 101.651364 
L 238.0656 103.409702 
L 238.2144 104.735191 
L 238.512 108.696194 
L 238.6608 109.236497 
L 238.8096 109.167146 
L 239.256 107.490276 
L 239.4048 107.546873 
L 239.5536 108.379569 
L 240.5952 121.253745 
L 240.8928 124.388748 
L 241.1904 125.412439 
L 241.6368 129.300264 
L 241.9344 130.556242 
L 242.0832 129.985488 
L 242.5296 124.532393 
L 242.6784 125.175209 
L 242.976 128.124 
L 243.1248 128.641505 
L 243.2736 128.656013 
L 243.72 127.042437 
L 243.8688 127.128528 
L 244.3152 128.363781 
L 244.6128 130.564851 
L 245.0592 134.422385 
L 245.208 134.90099 
L 245.3568 134.227882 
L 245.5056 131.696157 
L 246.1008 116.772526 
L 246.2496 117.30438 
L 246.3984 113.019099 
L 246.9936 86.102933 
L 247.1424 86.125731 
L 247.2912 88.778463 
L 247.44 89.294215 
L 247.5888 89.168266 
L 247.7376 89.498283 
L 247.8864 90.82728 
L 248.3328 97.175885 
L 248.7792 99.81379 
L 248.928 100.050223 
L 249.0768 100.054846 
L 249.2256 100.339586 
L 249.3744 101.537373 
L 249.672 105.729706 
L 250.1184 108.738921 
L 250.8624 112.737549 
L 252.3504 131.341109 
L 252.648 133.166247 
L 253.2432 140.007168 
L 253.392 140.643607 
L 253.5408 139.69692 
L 254.136 131.343182 
L 254.2848 131.984722 
L 254.4336 133.531339 
L 254.5824 133.230657 
L 255.3264 125.823286 
L 255.4752 126.561759 
L 256.368 135.792355 
L 256.6656 137.946394 
L 256.8144 137.938901 
L 256.9632 136.854946 
L 257.2608 131.401054 
L 257.856 113.45147 
L 258.0048 115.817071 
L 258.1536 112.482144 
L 258.7488 84.780473 
L 258.8976 83.690141 
L 259.0464 85.192915 
L 259.344 89.59123 
L 259.7904 94.176874 
L 260.3856 102.773582 
L 261.7248 115.914322 
L 262.0224 118.862157 
L 262.7664 122.700559 
L 263.6592 133.587458 
L 264.1056 137.769588 
L 264.2544 138.026268 
L 264.4032 138.808265 
L 264.7008 141.062426 
L 264.8496 141.750201 
L 265.296 145.135029 
L 265.4448 144.013449 
L 265.8912 137.254634 
L 266.04 136.493681 
L 266.1888 136.981692 
L 266.3376 138.789453 
L 266.4864 138.983477 
L 266.784 136.015236 
L 267.0816 133.073938 
L 267.2304 132.635191 
L 267.3792 133.026269 
L 268.4208 141.535769 
L 268.5696 142.021867 
L 268.7184 141.509782 
L 269.016 137.815822 
L 269.4624 127.641888 
L 269.9088 115.074612 
L 270.0576 115.340379 
L 270.2064 114.956157 
L 270.504 102.517221 
L 270.8016 89.526343 
L 270.9504 86.642121 
L 271.0992 86.285957 
L 271.6944 92.802919 
L 271.992 94.816023 
L 273.1824 108.542983 
L 273.6288 111.470729 
L 274.3728 119.420635 
L 275.1168 122.00545 
L 275.5632 127.064119 
L 276.1584 134.240318 
L 276.456 136.222174 
L 276.7536 138.945852 
L 277.0512 139.780461 
L 277.3488 140.709451 
L 277.4976 140.047663 
L 278.0928 134.24797 
L 278.2416 134.02493 
L 278.3904 134.573842 
L 278.688 137.255271 
L 278.8368 137.382336 
L 279.1344 135.685378 
L 279.432 134.035133 
L 279.5808 134.636338 
L 279.8784 137.448021 
L 280.3248 139.185154 
L 280.6224 141.830712 
L 280.7712 141.997474 
L 281.0688 140.190989 
L 281.5152 135.773064 
L 281.9616 129.041352 
L 282.408 120.839071 
L 282.5568 122.447865 
L 282.7056 120.982716 
L 283.4496 95.949401 
L 283.5984 95.911457 
L 284.9376 112.634398 
L 285.384 118.452425 
L 286.2768 124.456505 
L 286.5744 127.963774 
L 286.7232 128.543935 
L 286.872 128.516673 
L 287.1696 128.041097 
L 287.3184 128.217106 
L 287.616 129.95137 
L 289.2528 143.395344 
L 289.5504 143.372865 
L 289.848 144.648931 
L 289.9968 145.2825 
L 290.1456 145.356315 
L 290.8896 143.198131 
L 291.0384 143.707665 
L 291.336 145.871748 
L 291.4848 145.406695 
L 291.9312 142.303418 
L 292.08 142.43941 
L 292.3776 144.931917 
L 292.824 147.940174 
L 293.1216 149.991382 
L 293.4192 151.900858 
L 293.568 151.648323 
L 294.7584 144.452515 
L 295.056 139.707123 
L 295.3536 134.61083 
L 295.5024 135.827907 
L 295.6512 134.262957 
L 296.3952 109.831485 
L 296.544 108.733659 
L 296.6928 108.952077 
L 297.288 114.506409 
L 297.5856 115.90938 
L 298.4784 124.474521 
L 298.776 125.354885 
L 299.0736 127.575725 
L 299.52 131.900385 
L 299.6688 132.062045 
L 299.8176 131.99381 
L 299.9664 132.212227 
L 300.264 133.954143 
L 301.1568 141.158083 
L 301.9008 148.640544 
L 302.0496 149.277939 
L 302.3472 149.703135 
L 302.6448 152.014371 
L 302.9424 153.874265 
L 303.6864 154.150874 
L 303.984 153.773506 
L 304.1328 154.147845 
L 304.4304 156.214517 
L 304.5792 156.247519 
L 305.1744 153.235275 
L 305.3232 153.652341 
L 306.216 159.497311 
L 306.3648 160.083211 
L 306.5136 160.213783 
L 306.6624 160.039368 
L 306.96 158.681834 
L 307.2576 157.429044 
L 307.4064 157.585125 
L 307.704 158.249304 
L 307.8528 158.01606 
L 308.0016 157.249687 
L 308.2992 153.751983 
L 308.5968 149.114685 
L 308.7456 149.167455 
L 308.8944 149.036565 
L 309.192 140.265123 
L 309.6384 127.126296 
L 309.7872 125.657481 
L 309.936 125.609493 
L 310.5312 130.009402 
L 310.8288 131.362951 
L 311.2752 136.263626 
L 311.8704 141.389254 
L 312.3168 144.663598 
L 312.912 149.861607 
L 313.656 152.660695 
L 314.9952 160.49916 
L 315.5904 164.709828 
L 315.888 165.813871 
L 316.1856 167.25367 
L 316.3344 167.434622 
L 316.632 166.923494 
L 316.7808 167.124852 
L 317.2272 168.753893 
L 317.376 168.811606 
L 317.5248 169.008182 
L 318.12 171.535443 
L 318.2688 171.683871 
L 318.5664 171.616433 
L 318.7152 171.764702 
L 318.864 172.357935 
L 319.3104 174.907039 
L 319.7568 177.238044 
L 319.9056 177.481491 
L 320.0544 177.382167 
L 320.5008 176.454612 
L 320.6496 176.461627 
L 321.096 176.741902 
L 321.2448 176.63381 
L 321.3936 176.304271 
L 321.6912 174.60827 
L 322.4352 167.578107 
L 322.584 168.155877 
L 322.7328 166.099886 
L 323.4768 147.524225 
L 323.6256 146.947731 
L 323.7744 147.272009 
L 326.6016 168.263969 
L 327.9408 171.505152 
L 328.0896 171.589171 
L 328.2384 171.844894 
L 328.8336 173.669076 
L 328.9824 173.927988 
L 329.28 175.222389 
L 329.4288 175.291581 
L 329.5776 175.505215 
L 329.8752 176.373303 
L 330.024 176.386695 
L 330.3216 176.004545 
L 330.6192 176.534007 
L 331.0656 177.514812 
L 332.8512 186.673824 
L 333.5952 188.829458 
L 334.0416 188.584575 
L 334.3392 188.916825 
L 334.6368 189.154533 
L 335.232 188.694262 
L 335.5296 188.59175 
L 335.6784 188.375565 
L 335.8272 187.954354 
L 336.1248 185.863449 
L 336.5712 180.791866 
L 336.72 180.889596 
L 336.8688 180.57042 
L 337.1664 174.775351 
L 337.6128 165.9285 
L 337.9104 164.078491 
L 338.0592 163.898018 
L 338.208 164.231064 
L 339.3984 170.891033 
L 339.696 171.811893 
L 340.1424 174.46877 
L 341.3328 181.235715 
L 342.0768 182.871453 
L 342.2256 182.783607 
L 342.672 181.492077 
L 342.8208 181.436436 
L 343.1184 181.836602 
L 343.8624 184.003555 
L 344.16 184.483275 
L 344.3088 184.289091 
L 344.6064 183.493224 
L 344.7552 183.445555 
L 345.0528 184.295309 
L 345.4992 186.069271 
L 345.7968 186.19506 
L 345.9456 186.263774 
L 346.0944 186.606386 
L 346.392 187.669455 
L 346.5408 187.657977 
L 347.136 187.044814 
L 347.2848 187.303407 
L 347.88 189.244929 
L 348.0288 189.300569 
L 348.4752 188.884461 
L 348.7728 189.111327 
L 349.5168 189.915007 
L 349.8144 190.18205 
L 350.4096 191.498611 
L 350.5584 191.420969 
L 350.7072 191.104185 
L 351.0048 189.511493 
L 351.6 184.641588 
L 351.7488 185.425817 
L 351.8976 184.513089 
L 352.344 175.36986 
L 352.6416 170.99227 
L 352.9392 169.381723 
L 353.088 169.280486 
L 353.2368 169.687507 
L 353.9808 173.619494 
L 355.0224 177.681893 
L 355.4688 179.819671 
L 356.064 182.398428 
L 356.6592 185.101858 
L 356.808 185.367466 
L 356.9568 185.385641 
L 357.2544 184.796712 
L 357.552 184.290048 
L 357.7008 184.408025 
L 358.1472 185.487357 
L 358.4448 186.663461 
L 359.04 187.477344 
L 359.1888 187.518477 
L 359.6352 186.990768 
L 359.784 187.245535 
L 360.2304 188.774933 
L 360.3792 188.882069 
L 360.6768 188.813196 
L 360.8256 188.970552 
L 361.1232 189.888382 
L 361.272 189.826046 
L 361.8672 188.571821 
L 362.016 188.621722 
L 362.1648 188.900244 
L 362.4624 189.818553 
L 362.6112 189.683198 
L 363.2064 188.645637 
L 363.504 188.440452 
L 364.3968 188.972465 
L 364.6944 189.596309 
L 365.2896 191.814917 
L 365.4384 191.921097 
L 365.5872 191.829744 
L 365.736 191.566049 
L 366.0336 190.12625 
L 366.6288 184.616079 
L 366.7776 184.765464 
L 366.9264 184.68288 
L 367.224 180.36125 
L 367.3728 177.399545 
L 367.3728 177.399545 
" style="fill:none;stroke:#4c72b0;stroke-linecap:round;stroke-width:1.75;"/>
   </g>
   <g id="line2d_44">
    <path clip-path="url(#pf7e075bac6)" d="M 54 244.664203 
L 54.1488 245.610561 
L 54.2976 246.103893 
L 54.4464 246.083297 
L 54.5952 245.532716 
L 54.8928 243.005992 
L 55.7856 232.638649 
L 56.0832 231.769063 
L 56.232 232.121786 
L 56.5296 234.165445 
L 57.2736 241.190172 
L 57.4224 241.788723 
L 57.5712 241.882308 
L 57.72 241.445785 
L 58.0176 239.111453 
L 59.0592 227.908646 
L 59.208 227.644662 
L 59.3568 227.908855 
L 59.6544 229.821189 
L 60.5472 237.690019 
L 60.696 237.89467 
L 60.8448 237.569919 
L 61.1424 235.425516 
L 62.184 224.059617 
L 62.3328 223.691832 
L 62.4816 223.853802 
L 62.7792 225.601 
L 63.672 233.59659 
L 63.8208 233.895368 
L 63.9696 233.667146 
L 64.2672 231.687196 
L 65.4576 219.603469 
L 65.6064 219.649154 
L 65.7552 220.203348 
L 66.0528 222.53471 
L 66.7968 229.237203 
L 66.9456 229.622337 
L 67.0944 229.485567 
L 67.392 227.667894 
L 67.9872 220.291 
L 68.4336 215.873885 
L 68.5824 215.278332 
L 68.7312 215.212315 
L 68.88 215.663366 
L 69.1776 217.846329 
L 69.9216 224.681738 
L 70.0704 225.163814 
L 70.2192 225.13145 
L 70.368 224.569431 
L 70.6656 222.024051 
L 71.5584 211.664052 
L 71.7072 210.974839 
L 71.856 210.81281 
L 72.0048 211.174573 
L 72.3024 213.232023 
L 73.0464 220.247343 
L 73.1952 220.837363 
L 73.344 220.921563 
L 73.4928 220.475631 
L 73.7904 218.125673 
L 74.832 206.942747 
L 74.9808 206.68835 
L 75.1296 206.961734 
L 75.4272 208.888047 
L 76.32 216.73617 
L 76.4688 216.930124 
L 76.6176 216.594369 
L 76.9152 214.430379 
L 77.9568 203.067392 
L 78.1056 202.707082 
L 78.2544 202.876309 
L 78.552 204.634144 
L 79.4448 212.601274 
L 79.5936 212.888062 
L 79.7424 212.647499 
L 80.04 210.645221 
L 81.2304 198.566337 
L 81.3792 198.619922 
L 81.528 199.181327 
L 81.8256 201.522133 
L 82.5696 208.205202 
L 82.7184 208.580827 
L 82.8672 208.434216 
L 83.1648 206.599262 
L 83.76 199.215838 
L 84.2064 194.823278 
L 84.3552 194.239333 
L 84.504 194.185334 
L 84.6528 194.64796 
L 84.9504 196.8497 
L 85.6944 203.690045 
L 85.8432 204.167211 
L 85.992 204.129419 
L 86.1408 203.562295 
L 86.4384 201.010894 
L 87.3312 190.69552 
L 87.48 190.021304 
L 87.6288 189.874707 
L 87.7776 190.251475 
L 88.0752 192.334494 
L 88.8192 199.369159 
L 88.968 199.956316 
L 89.1168 200.036778 
L 89.2656 199.587065 
L 89.5632 197.232686 
L 90.6048 186.108085 
L 90.7536 185.868642 
L 90.9024 186.156553 
L 91.2 188.107438 
L 92.0928 195.966437 
L 92.2416 196.154997 
L 92.3904 195.813565 
L 92.688 193.640719 
L 93.7296 182.318917 
L 93.8784 181.971614 
L 94.0272 182.153648 
L 94.3248 183.933279 
L 95.2176 191.906243 
L 95.3664 192.186927 
L 95.5152 191.939967 
L 95.8128 189.927419 
L 97.0032 177.903364 
L 97.152 177.971223 
L 97.4496 179.560896 
L 98.3424 187.60556 
L 98.4912 187.978287 
L 98.64 187.828481 
L 98.9376 185.989624 
L 99.5328 178.626634 
L 99.9792 174.278833 
L 100.128 173.713194 
L 100.2768 173.677883 
L 100.4256 174.15873 
L 100.7232 176.392453 
L 101.4672 183.270345 
L 101.616 183.74907 
L 101.7648 183.712305 
L 101.9136 183.146515 
L 102.2112 180.601911 
L 103.104 170.368813 
L 103.2528 169.715702 
L 103.4016 169.590588 
L 103.5504 169.988359 
L 103.848 172.108787 
L 104.592 179.191674 
L 104.7408 179.78166 
L 104.8896 179.864059 
L 105.0384 179.416225 
L 105.336 177.068698 
L 106.3776 166.041236 
L 106.5264 165.822187 
L 106.6752 166.130041 
L 106.9728 168.116271 
L 107.8656 176.018437 
L 108.0144 176.207048 
L 108.1632 175.865414 
L 108.4608 173.69476 
L 109.5024 162.45368 
L 109.6512 162.125117 
L 109.8 162.325708 
L 110.0976 164.138699 
L 110.9904 172.153023 
L 111.1392 172.433691 
L 111.288 172.186477 
L 111.5856 170.176103 
L 112.776 158.258177 
L 112.9248 158.346814 
L 113.2224 159.975301 
L 114.1152 168.082694 
L 114.264 168.459167 
L 114.4128 168.312829 
L 114.7104 166.483446 
L 115.3056 159.167707 
L 115.752 154.884622 
L 115.9008 154.343879 
L 116.0496 154.33381 
L 116.1984 154.839391 
L 116.496 157.11801 
L 117.24 164.065143 
L 117.3888 164.551687 
L 117.5376 164.522185 
L 117.6864 163.963941 
L 117.984 161.438479 
L 118.8768 151.323758 
L 119.0256 150.69759 
L 119.1744 150.599742 
L 119.3232 151.02424 
L 119.6208 153.193367 
L 120.3648 160.352004 
L 120.5136 160.95025 
L 120.6624 161.040002 
L 120.8112 160.599451 
L 121.1088 158.269554 
L 122.1504 147.376488 
L 122.2992 147.183077 
L 122.448 147.516099 
L 122.7456 149.548088 
L 123.6384 157.524796 
L 123.7872 157.718771 
L 123.936 157.382285 
L 124.2336 155.224635 
L 125.2752 144.103119 
L 125.424 143.798936 
L 125.5728 144.023744 
L 125.8704 145.881482 
L 126.7632 153.972114 
L 126.912 154.258745 
L 127.0608 154.017305 
L 127.3584 152.021305 
L 128.5488 140.259511 
L 128.6976 140.375224 
L 128.9952 142.055121 
L 129.888 150.263082 
L 130.0368 150.649633 
L 130.1856 150.513103 
L 130.4832 148.705887 
L 131.0784 141.462695 
L 131.5248 137.263015 
L 131.6736 136.753314 
L 131.8224 136.774586 
L 131.9712 137.31095 
L 132.2688 139.646417 
L 133.0128 146.691939 
L 133.1616 147.192031 
L 133.3104 147.175491 
L 133.4592 146.630463 
L 133.7568 144.13539 
L 134.6496 134.17179 
L 134.7984 133.57784 
L 134.9472 133.512476 
L 135.096 133.968863 
L 135.3936 136.196864 
L 136.1376 143.456047 
L 136.2864 144.06745 
L 136.4352 144.169443 
L 136.584 143.741059 
L 136.8816 141.438543 
L 137.9232 130.713743 
L 138.072 130.550759 
L 138.2208 130.913726 
L 138.5184 133.001011 
L 139.4112 141.081155 
L 139.56 141.285414 
L 139.7088 140.959036 
L 140.0064 138.824435 
L 141.048 127.858701 
L 141.1968 127.584165 
L 141.3456 127.838475 
L 141.6432 129.751591 
L 142.536 137.951123 
L 142.6848 138.249286 
L 142.8336 138.01923 
L 143.1312 136.048941 
L 144.3216 124.489454 
L 144.4704 124.638013 
L 144.768 126.380822 
L 145.6608 134.723628 
L 145.8096 135.125953 
L 145.9584 135.004922 
L 146.256 133.231234 
L 146.8512 126.083077 
L 147.2976 121.983279 
L 147.4464 121.510009 
L 147.5952 121.567954 
L 147.744 122.140376 
L 148.0416 124.543071 
L 148.7856 131.712093 
L 148.9344 132.230639 
L 149.0832 132.231937 
L 149.232 131.704969 
L 149.5296 129.249871 
L 150.4224 119.465152 
L 150.5712 118.90787 
L 150.72 118.879385 
L 150.8688 119.372008 
L 151.1664 121.66743 
L 151.9104 129.047983 
L 152.0592 129.676666 
L 152.208 129.79502 
L 152.3568 129.382922 
L 152.6544 127.116037 
L 153.696 116.588343 
L 153.8448 116.459881 
L 153.9936 116.856887 
L 154.2912 119.007654 
L 155.184 127.21621 
L 155.3328 127.435035 
L 155.4816 127.12309 
L 155.7792 125.020317 
L 156.8208 114.242168 
L 156.9696 114.001911 
L 157.1184 114.290368 
L 157.416 116.268198 
L 158.3088 124.605202 
L 158.4576 124.919767 
L 158.6064 124.706 
L 158.904 122.771322 
L 159.9456 111.798834 
L 160.0944 111.45414 
L 160.2432 111.640493 
L 160.5408 113.456034 
L 161.4336 121.962625 
L 161.5824 122.38549 
L 161.7312 122.284709 
L 162.0288 120.553993 
L 162.624 113.519418 
L 163.0704 109.532926 
L 163.2192 109.100445 
L 163.368 109.199356 
L 163.6656 110.876246 
L 164.7072 120.14342 
L 164.856 120.166361 
L 165.0048 119.661226 
L 165.3024 117.253554 
L 166.1952 107.669122 
L 166.344 107.151912 
L 166.4928 107.163663 
L 166.6416 107.695831 
L 166.9392 110.065174 
L 167.6832 117.582916 
L 167.832 118.232021 
L 167.9808 118.369885 
L 168.1296 117.97723 
L 168.4272 115.752319 
L 169.32 106.059261 
L 169.4688 105.444135 
L 169.6176 105.353401 
L 169.7664 105.787651 
L 170.064 108.00833 
L 170.9568 116.365105 
L 171.1056 116.601925 
L 171.2544 116.307886 
L 171.552 114.24402 
L 172.5936 103.679253 
L 172.7424 103.477031 
L 172.8912 103.803403 
L 173.1888 105.853511 
L 174.0816 114.35106 
L 174.2304 114.685951 
L 174.3792 114.492421 
L 174.6768 112.601308 
L 175.7184 101.861343 
L 175.8672 101.558199 
L 176.016 101.786212 
L 176.3136 103.682108 
L 177.2064 112.374578 
L 177.3552 112.821572 
L 177.504 112.744604 
L 177.6528 112.143507 
L 177.9504 109.593253 
L 178.8432 100.293074 
L 178.992 99.904483 
L 179.1408 100.047396 
L 179.4384 101.809267 
L 180.48 111.297591 
L 180.6288 111.344717 
L 180.7776 110.863929 
L 181.0752 108.508625 
L 181.968 99.138478 
L 182.1168 98.66353 
L 182.2656 98.717667 
L 182.4144 99.291491 
L 182.712 101.738877 
L 183.456 109.403829 
L 183.7536 110.234758 
L 183.9024 109.863585 
L 184.2 107.684777 
L 185.0928 98.186586 
L 185.2416 97.610974 
L 185.3904 97.56012 
L 185.5392 98.033773 
L 185.8368 100.328713 
L 186.7296 108.847327 
L 186.8784 109.104543 
L 187.0272 108.830855 
L 187.3248 106.810914 
L 188.3664 96.478002 
L 188.5152 96.316506 
L 188.664 96.683485 
L 188.9616 98.811264 
L 189.8544 107.485708 
L 190.0032 107.843695 
L 190.152 107.673183 
L 190.4496 105.831229 
L 191.4912 95.343038 
L 191.64 95.084069 
L 191.7888 95.356321 
L 192.0864 97.337595 
L 192.9792 106.230006 
L 193.128 106.70335 
L 193.2768 106.652386 
L 193.4256 106.077787 
L 193.7232 103.585127 
L 194.616 94.518895 
L 194.7648 94.175882 
L 194.9136 94.364417 
L 195.2112 96.214309 
L 196.2528 105.932805 
L 196.4016 106.005269 
L 196.5504 105.549956 
L 196.848 103.249204 
L 197.7408 94.099233 
L 197.8896 93.667415 
L 198.0384 93.764772 
L 198.336 95.460774 
L 199.3776 105.418619 
L 199.5264 105.600336 
L 199.6752 105.251458 
L 199.9728 103.120463 
L 200.8656 93.822749 
L 201.0144 93.28763 
L 201.1632 93.277644 
L 201.312 93.791698 
L 201.6096 96.162932 
L 202.5024 104.850088 
L 202.6512 105.128944 
L 202.8 104.876895 
L 203.0976 102.90357 
L 204.1392 92.81268 
L 204.288 92.693386 
L 204.4368 93.102444 
L 204.7344 95.310815 
L 205.6272 104.170868 
L 205.776 104.553413 
L 205.9248 104.407384 
L 206.2224 102.61751 
L 207.264 92.390676 
L 207.4128 92.177087 
L 207.5616 92.494729 
L 207.8592 94.563516 
L 208.752 103.661101 
L 208.9008 104.161525 
L 209.0496 104.137258 
L 209.1984 103.589816 
L 209.496 101.155944 
L 210.3888 92.326024 
L 210.5376 92.028767 
L 210.6864 92.263037 
L 210.984 94.200987 
L 212.0256 104.14831 
L 212.1744 104.245805 
L 212.3232 103.815645 
L 212.6208 101.568758 
L 213.5136 92.636438 
L 213.6624 92.247245 
L 213.8112 92.387293 
L 214.1088 94.165545 
L 215.1504 104.332249 
L 215.2992 104.535803 
L 215.448 104.20877 
L 215.7456 102.124776 
L 216.6384 93.025721 
L 216.7872 92.53085 
L 216.936 92.561497 
L 217.0848 93.115727 
L 217.3824 95.562849 
L 218.2752 104.417909 
L 218.424 104.71842 
L 218.5728 104.488059 
L 218.8704 102.561553 
L 219.912 92.713939 
L 220.0608 92.637017 
L 220.2096 93.088311 
L 220.5072 95.377542 
L 221.4 104.423721 
L 221.5488 104.830884 
L 221.6976 104.709392 
L 221.9952 102.97167 
L 223.0368 93.005509 
L 223.1856 92.837006 
L 223.3344 93.199683 
L 223.632 95.35509 
L 224.5248 104.653877 
L 224.6736 105.180566 
L 224.8224 105.182144 
L 224.9712 104.660969 
L 225.2688 102.283986 
L 226.0128 94.442505 
L 226.3104 93.430643 
L 226.4592 93.709235 
L 226.7568 95.732248 
L 227.7984 105.896662 
L 227.9472 106.017433 
L 228.096 105.610663 
L 228.3936 103.414095 
L 229.2864 94.688567 
L 229.4352 94.340141 
L 229.584 94.521008 
L 229.8816 96.377732 
L 230.9232 106.740317 
L 231.072 106.963961 
L 231.2208 106.657061 
L 231.5184 104.616761 
L 232.4112 95.707138 
L 232.56 95.251041 
L 232.7088 95.320859 
L 232.8576 95.913815 
L 233.1552 98.433962 
L 234.048 107.448858 
L 234.1968 107.769783 
L 234.3456 107.559902 
L 234.6432 105.677882 
L 235.6848 96.065681 
L 235.8336 96.029967 
L 235.9824 96.522307 
L 236.28 98.889947 
L 237.1728 108.114389 
L 237.3216 108.544802 
L 237.4704 108.446463 
L 237.768 106.758068 
L 238.8096 97.041521 
L 238.9584 96.916302 
L 239.1072 97.322148 
L 239.4048 99.560249 
L 240.2976 109.047126 
L 240.4464 109.597742 
L 240.5952 109.62279 
L 240.744 109.12547 
L 241.0416 106.800443 
L 241.7856 99.131652 
L 242.0832 98.202232 
L 242.232 98.522265 
L 242.5296 100.624428 
L 243.5712 110.984281 
L 243.72 111.125195 
L 243.8688 110.738685 
L 244.1664 108.58619 
L 245.0592 100.048732 
L 245.208 99.737937 
L 245.3568 99.956483 
L 245.6544 101.885395 
L 246.696 112.422352 
L 246.8448 112.663145 
L 246.9936 112.373478 
L 247.2912 110.371195 
L 248.184 101.634725 
L 248.3328 101.214753 
L 248.4816 101.321104 
L 248.7792 103.052676 
L 249.9696 114.03646 
L 250.1184 113.844625 
L 250.416 112.002287 
L 251.4576 102.608736 
L 251.6064 102.611758 
L 251.7552 103.14264 
L 252.0528 105.58358 
L 252.9456 114.970254 
L 253.0944 115.421162 
L 253.2432 115.343196 
L 253.392 114.749555 
L 253.6896 112.288223 
L 254.4336 104.811979 
L 254.5824 104.210499 
L 254.7312 104.125323 
L 254.88 104.571029 
L 255.1776 106.885009 
L 256.0704 116.538222 
L 256.2192 117.108995 
L 256.368 117.153712 
L 256.5168 116.676415 
L 256.8144 114.395587 
L 257.5584 106.879443 
L 257.856 106.024142 
L 258.0048 106.381388 
L 258.3024 108.554128 
L 259.344 119.078783 
L 259.4928 119.235468 
L 259.6416 118.864859 
L 259.9392 116.747766 
L 260.832 108.372625 
L 260.9808 108.095188 
L 261.1296 108.347141 
L 261.4272 110.339722 
L 262.4688 121.021914 
L 262.6176 121.275842 
L 262.7664 120.999441 
L 263.064 119.027368 
L 263.9568 110.441384 
L 264.1056 110.05382 
L 264.2544 110.192992 
L 264.552 111.98812 
L 265.7424 123.138219 
L 265.8912 122.960864 
L 266.1888 121.151113 
L 267.2304 111.951167 
L 267.3792 111.989238 
L 267.528 112.554935 
L 267.8256 115.061596 
L 268.7184 124.586891 
L 268.8672 125.054254 
L 269.016 124.992594 
L 269.1648 124.415949 
L 269.4624 121.993672 
L 270.2064 114.660314 
L 270.3552 114.093717 
L 270.504 114.044032 
L 270.6528 114.524981 
L 270.9504 116.905418 
L 271.8432 126.695482 
L 271.992 127.281374 
L 272.1408 127.340697 
L 272.2896 126.878337 
L 272.5872 124.631465 
L 273.3312 117.241873 
L 273.48 116.591865 
L 273.6288 116.450021 
L 273.7776 116.839093 
L 274.0752 119.071553 
L 275.1168 129.722747 
L 275.2656 129.889785 
L 275.4144 129.529685 
L 275.712 127.437287 
L 276.6048 119.192832 
L 276.7536 118.943527 
L 276.9024 119.223675 
L 277.2 121.269536 
L 278.2416 132.061444 
L 278.3904 132.323593 
L 278.5392 132.055589 
L 278.8368 130.104122 
L 279.7296 121.640523 
L 279.8784 121.280731 
L 280.0272 121.448093 
L 280.3248 123.297513 
L 281.5152 134.577091 
L 281.664 134.409656 
L 281.9616 132.623389 
L 283.0032 123.584731 
L 283.152 123.653094 
L 283.3008 124.248803 
L 283.5984 126.811437 
L 284.4912 136.445115 
L 284.64 136.923775 
L 284.7888 136.873234 
L 284.9376 136.308366 
L 285.2352 133.914601 
L 285.9792 126.696969 
L 286.128 126.159652 
L 286.2768 126.139797 
L 286.4256 126.650265 
L 286.7232 129.085532 
L 287.616 138.976513 
L 287.7648 139.571439 
L 287.9136 139.639268 
L 288.0624 139.185731 
L 288.36 136.960548 
L 289.104 129.666541 
L 289.2528 129.041683 
L 289.4016 128.925597 
L 289.5504 129.340194 
L 289.848 131.619719 
L 290.8896 142.353265 
L 291.0384 142.524437 
L 291.1872 142.168663 
L 291.4848 140.088698 
L 292.3776 131.938836 
L 292.5264 131.711719 
L 292.6752 132.014133 
L 292.9728 134.101473 
L 294.0144 144.962718 
L 294.1632 145.227485 
L 294.312 144.96232 
L 294.6096 143.020464 
L 295.5024 134.646906 
L 295.6512 134.309528 
L 295.8 134.499718 
L 296.0976 136.392695 
L 297.288 147.758736 
L 297.4368 147.595857 
L 297.7344 145.822338 
L 298.6272 137.337762 
L 298.776 136.906721 
L 298.9248 136.999749 
L 299.0736 137.619791 
L 299.3712 140.226885 
L 300.264 149.933347 
L 300.4128 150.417249 
L 300.5616 150.37174 
L 300.7104 149.812533 
L 301.008 147.434949 
L 301.752 140.301465 
L 301.9008 139.786958 
L 302.0496 139.790404 
L 302.1984 140.323809 
L 302.496 142.800592 
L 303.3888 152.751696 
L 303.5376 153.348798 
L 303.6864 153.418269 
L 303.8352 152.966689 
L 304.1328 150.749458 
L 304.8768 143.516605 
L 305.0256 142.909982 
L 305.1744 142.812728 
L 305.3232 143.245915 
L 305.6208 145.558623 
L 306.6624 156.326388 
L 306.8112 156.494953 
L 306.96 156.136806 
L 307.2576 154.056011 
L 308.1504 145.961798 
L 308.2992 145.750467 
L 308.448 146.068767 
L 308.7456 148.184885 
L 309.7872 159.071969 
L 309.936 159.333299 
L 310.0848 159.06496 
L 310.3824 157.120807 
L 311.2752 148.802085 
L 311.424 148.481265 
L 311.5728 148.688419 
L 311.8704 150.613186 
L 313.0608 162.018286 
L 313.2096 161.85402 
L 313.5072 160.081334 
L 314.4 151.659318 
L 314.5488 151.246209 
L 314.6976 151.357644 
L 314.9952 153.116601 
L 315.5904 160.257995 
L 316.0368 164.374283 
L 316.1856 164.856737 
L 316.3344 164.809544 
L 316.4832 164.249253 
L 316.7808 161.874273 
L 317.5248 154.790351 
L 317.6736 154.291602 
L 317.8224 154.311252 
L 317.9712 154.86045 
L 318.2688 157.364334 
L 319.1616 167.331735 
L 319.3104 167.923689 
L 319.4592 167.987486 
L 319.608 167.530557 
L 319.9056 165.306697 
L 320.6496 158.098674 
L 320.7984 157.503028 
L 320.9472 157.417351 
L 321.096 157.861874 
L 321.3936 160.193279 
L 322.4352 170.945339 
L 322.584 171.104333 
L 322.7328 170.736902 
L 323.0304 168.641602 
L 323.9232 160.562982 
L 324.072 160.360861 
L 324.2208 160.68849 
L 324.5184 162.82034 
L 325.56 173.688516 
L 325.7088 173.940164 
L 325.8576 173.662445 
L 326.1552 171.70368 
L 327.048 163.403235 
L 327.1968 163.092869 
L 327.3456 163.310866 
L 327.6432 165.255128 
L 328.6848 176.291267 
L 328.8336 176.649488 
L 328.9824 176.477561 
L 329.28 174.693125 
L 330.1728 166.295224 
L 330.3216 165.893483 
L 330.4704 166.016706 
L 330.768 167.797084 
L 331.3632 174.95445 
L 331.8096 179.05465 
L 331.9584 179.528627 
L 332.1072 179.472699 
L 332.256 178.904252 
L 332.5536 176.517664 
L 333.2976 169.447265 
L 333.4464 168.956962 
L 333.5952 168.985464 
L 333.744 169.54307 
L 334.0416 172.059192 
L 334.9344 181.998005 
L 335.0832 182.577354 
L 335.232 182.628041 
L 335.3808 182.158349 
L 335.6784 179.913102 
L 336.4224 172.693348 
L 336.5712 172.101411 
L 336.72 172.020052 
L 336.8688 172.468667 
L 337.1664 174.804331 
L 338.208 185.491199 
L 338.3568 185.63375 
L 338.5056 185.250218 
L 338.8032 183.126941 
L 339.696 175.024523 
L 339.8448 174.825148 
L 339.9936 175.155663 
L 340.2912 177.290417 
L 341.3328 188.095606 
L 341.4816 188.331406 
L 341.6304 188.038171 
L 341.928 186.052607 
L 342.8208 177.734095 
L 342.9696 177.428091 
L 343.1184 177.650815 
L 343.416 179.602263 
L 344.4576 190.591663 
L 344.6064 190.935805 
L 344.7552 190.74989 
L 345.0528 188.940995 
L 345.9456 180.528339 
L 346.0944 180.13133 
L 346.2432 180.25965 
L 346.5408 182.047911 
L 347.136 189.193621 
L 347.5824 193.256682 
L 347.7312 193.715128 
L 347.88 193.643395 
L 348.1776 192.026981 
L 349.2192 183.06548 
L 349.368 183.095567 
L 349.5168 183.654288 
L 349.8144 186.168011 
L 350.7072 196.034321 
L 350.856 196.593815 
L 351.0048 196.624173 
L 351.1536 196.134535 
L 351.4512 193.853638 
L 352.1952 186.587031 
L 352.344 185.991849 
L 352.4928 185.907878 
L 352.6416 186.353676 
L 352.9392 188.679857 
L 353.832 198.609306 
L 353.9808 199.254686 
L 354.1296 199.374315 
L 354.2784 198.968262 
L 354.576 196.80434 
L 355.4688 188.641134 
L 355.6176 188.438436 
L 355.7664 188.765786 
L 356.064 190.891391 
L 357.1056 201.592069 
L 357.2544 201.806195 
L 357.4032 201.491644 
L 357.7008 199.46774 
L 358.5936 191.096596 
L 358.7424 190.789133 
L 358.8912 191.010736 
L 359.1888 192.957577 
L 360.2304 203.858114 
L 360.3792 204.182082 
L 360.528 203.976069 
L 360.8256 202.130437 
L 361.7184 193.665451 
L 361.8672 193.266758 
L 362.016 193.393711 
L 362.3136 195.176781 
L 362.9088 202.284202 
L 363.3552 206.289897 
L 363.504 206.726048 
L 363.6528 206.631742 
L 363.9504 204.972647 
L 364.992 195.930459 
L 365.1408 195.955274 
L 365.2896 196.508244 
L 365.5872 199.005817 
L 366.48 208.758674 
L 366.6288 209.291598 
L 366.7776 209.294957 
L 366.9264 208.778746 
L 367.224 206.449086 
L 367.3728 204.859121 
L 367.3728 204.859121 
" style="fill:none;stroke:#55a868;stroke-linecap:round;stroke-width:1.75;"/>
   </g>
   <g id="patch_3">
    <path d="M 54 252 
L 54 28.8 
" style="fill:none;"/>
   </g>
   <g id="patch_4">
    <path d="M 54 252 
L 388.8 252 
" style="fill:none;"/>
   </g>
   <g id="patch_5">
    <path d="M 54 28.8 
L 388.8 28.8 
" style="fill:none;"/>
   </g>
   <g id="patch_6">
    <path d="M 388.8 252 
L 388.8 28.8 
" style="fill:none;"/>
   </g>
   <g id="text_15">
    <!-- exp : 1, sin : 3 -->
    <defs>
     <path d="M 51.421875 26.65625 
Q 51.421875 20.65625 50.4375 15.578125 
Q 49.46875 10.5 47.1875 6.828125 
Q 44.921875 3.171875 41.1875 1.09375 
Q 37.453125 -0.984375 31.984375 -0.984375 
Q 26.3125 -0.984375 22.0625 1.171875 
Q 17.828125 3.328125 15.578125 8.203125 
L 15.328125 8.203125 
Q 15.375 8.109375 15.40625 7.328125 
Q 15.4375 6.546875 15.453125 5.375 
Q 15.484375 4.203125 15.5 2.75 
Q 15.53125 1.3125 15.53125 -0.09375 
L 15.53125 -20.75 
L 6.734375 -20.75 
L 6.734375 42.046875 
Q 6.734375 43.953125 6.703125 45.703125 
Q 6.6875 47.46875 6.640625 48.90625 
Q 6.59375 50.34375 6.546875 51.359375 
Q 6.5 52.390625 6.453125 52.828125 
L 14.9375 52.828125 
Q 14.984375 52.6875 15.0625 51.796875 
Q 15.140625 50.921875 15.203125 49.671875 
Q 15.28125 48.4375 15.359375 47.015625 
Q 15.4375 45.609375 15.4375 44.34375 
L 15.625 44.34375 
Q 16.84375 46.875 18.40625 48.65625 
Q 19.96875 50.4375 21.96875 51.578125 
Q 23.96875 52.734375 26.4375 53.25 
Q 28.90625 53.765625 31.984375 53.765625 
Q 37.453125 53.765625 41.1875 51.8125 
Q 44.921875 49.859375 47.1875 46.3125 
Q 49.46875 42.78125 50.4375 37.765625 
Q 51.421875 32.765625 51.421875 26.65625 
M 42.1875 26.46875 
Q 42.1875 31.34375 41.59375 35.15625 
Q 41.015625 38.96875 39.578125 41.59375 
Q 38.140625 44.234375 35.734375 45.59375 
Q 33.34375 46.96875 29.734375 46.96875 
Q 26.8125 46.96875 24.21875 46.140625 
Q 21.625 45.3125 19.703125 42.96875 
Q 17.78125 40.625 16.65625 36.5 
Q 15.53125 32.375 15.53125 25.78125 
Q 15.53125 20.171875 16.453125 16.28125 
Q 17.390625 12.40625 19.171875 10.015625 
Q 20.953125 7.625 23.578125 6.5625 
Q 26.21875 5.515625 29.640625 5.515625 
Q 33.296875 5.515625 35.71875 6.921875 
Q 38.140625 8.34375 39.578125 11.03125 
Q 41.015625 13.71875 41.59375 17.59375 
Q 42.1875 21.484375 42.1875 26.46875 
" id="LiberationSans-70"/>
     <path d="M 9.125 42.71875 
L 9.125 52.828125 
L 18.65625 52.828125 
L 18.65625 42.71875 
z
M 9.125 0 
L 9.125 10.109375 
L 18.65625 10.109375 
L 18.65625 0 
z
" id="LiberationSans-3a"/>
     <path d="M 18.796875 10.6875 
L 18.796875 2.484375 
Q 18.796875 -0.09375 18.578125 -2.21875 
Q 18.359375 -4.34375 17.875 -6.171875 
Q 17.390625 -8.015625 16.671875 -9.625 
Q 15.96875 -11.234375 14.984375 -12.796875 
L 8.984375 -12.796875 
Q 11.1875 -9.625 12.375 -6.390625 
Q 13.578125 -3.171875 13.578125 0 
L 9.28125 0 
L 9.28125 10.6875 
z
" id="LiberationSans-2c"/>
     <path d="M 13.484375 24.5625 
Q 13.484375 20.40625 14.328125 16.90625 
Q 15.1875 13.421875 16.96875 10.90625 
Q 18.75 8.40625 21.53125 7 
Q 24.3125 5.609375 28.21875 5.609375 
Q 33.9375 5.609375 37.375 7.90625 
Q 40.828125 10.203125 42.046875 13.71875 
L 49.75 11.53125 
Q 48.921875 9.328125 47.4375 7.109375 
Q 45.953125 4.890625 43.453125 3.09375 
Q 40.96875 1.3125 37.234375 0.15625 
Q 33.5 -0.984375 28.21875 -0.984375 
Q 16.5 -0.984375 10.375 6 
Q 4.25 12.984375 4.25 26.765625 
Q 4.25 34.1875 6.09375 39.328125 
Q 7.953125 44.484375 11.171875 47.703125 
Q 14.40625 50.921875 18.703125 52.359375 
Q 23 53.8125 27.875 53.8125 
Q 34.515625 53.8125 38.984375 51.65625 
Q 43.453125 49.515625 46.15625 45.71875 
Q 48.875 41.9375 50.015625 36.8125 
Q 51.171875 31.6875 51.171875 25.734375 
L 51.171875 24.5625 
z
M 42.09375 31.296875 
Q 41.359375 39.65625 37.84375 43.484375 
Q 34.328125 47.3125 27.734375 47.3125 
Q 25.53125 47.3125 23.109375 46.609375 
Q 20.703125 45.90625 18.65625 44.09375 
Q 16.609375 42.28125 15.1875 39.171875 
Q 13.765625 36.078125 13.578125 31.296875 
z
" id="LiberationSans-65"/>
     <path id="LiberationSans-20"/>
     <path d="M 39.109375 0 
L 24.90625 21.6875 
L 10.59375 0 
L 1.125 0 
L 19.921875 27.15625 
L 2 52.828125 
L 11.71875 52.828125 
L 24.90625 32.28125 
L 37.984375 52.828125 
L 47.796875 52.828125 
L 29.890625 27.25 
L 48.921875 0 
z
" id="LiberationSans-78"/>
     <path d="M 51.21875 19 
Q 51.21875 14.265625 49.671875 10.546875 
Q 48.140625 6.84375 45.1875 4.265625 
Q 42.234375 1.703125 37.859375 0.359375 
Q 33.5 -0.984375 27.875 -0.984375 
Q 21.484375 -0.984375 17.109375 0.609375 
Q 12.75 2.203125 9.90625 4.8125 
Q 7.078125 7.421875 5.65625 10.765625 
Q 4.25 14.109375 3.8125 17.671875 
L 12.890625 18.5 
Q 13.28125 15.765625 14.328125 13.515625 
Q 15.375 11.28125 17.1875 9.671875 
Q 19 8.0625 21.625 7.171875 
Q 24.265625 6.296875 27.875 6.296875 
Q 34.515625 6.296875 38.296875 9.5625 
Q 42.09375 12.84375 42.09375 19.28125 
Q 42.09375 23.09375 40.40625 25.40625 
Q 38.71875 27.734375 36.203125 29.03125 
Q 33.6875 30.328125 30.734375 30.765625 
Q 27.78125 31.203125 25.296875 31.203125 
L 20.3125 31.203125 
L 20.3125 38.8125 
L 25.09375 38.8125 
Q 27.59375 38.8125 30.265625 39.328125 
Q 32.953125 39.84375 35.171875 41.1875 
Q 37.40625 42.53125 38.84375 44.828125 
Q 40.28125 47.125 40.28125 50.6875 
Q 40.28125 56.203125 37.03125 59.390625 
Q 33.796875 62.59375 27.390625 62.59375 
Q 21.578125 62.59375 17.984375 59.609375 
Q 14.40625 56.640625 13.8125 51.21875 
L 4.984375 51.90625 
Q 5.515625 56.453125 7.46875 59.8125 
Q 9.421875 63.1875 12.421875 65.40625 
Q 15.4375 67.625 19.28125 68.71875 
Q 23.140625 69.828125 27.484375 69.828125 
Q 33.25 69.828125 37.390625 68.375 
Q 41.546875 66.9375 44.1875 64.46875 
Q 46.828125 62.015625 48.0625 58.6875 
Q 49.3125 55.375 49.3125 51.609375 
Q 49.3125 48.578125 48.484375 45.9375 
Q 47.65625 43.3125 45.890625 41.203125 
Q 44.140625 39.109375 41.421875 37.59375 
Q 38.71875 36.078125 34.90625 35.296875 
L 34.90625 35.109375 
Q 39.0625 34.671875 42.140625 33.21875 
Q 45.21875 31.78125 47.21875 29.625 
Q 49.21875 27.484375 50.21875 24.75 
Q 51.21875 22.015625 51.21875 19 
" id="LiberationSans-33"/>
     <path d="M 40.28125 0 
L 40.28125 33.5 
Q 40.28125 37.359375 39.71875 39.9375 
Q 39.15625 42.53125 37.890625 44.109375 
Q 36.625 45.703125 34.546875 46.359375 
Q 32.46875 47.015625 29.390625 47.015625 
Q 26.265625 47.015625 23.75 45.921875 
Q 21.234375 44.828125 19.453125 42.75 
Q 17.671875 40.671875 16.6875 37.625 
Q 15.71875 34.578125 15.71875 30.609375 
L 15.71875 0 
L 6.9375 0 
L 6.9375 41.546875 
Q 6.9375 43.21875 6.90625 45.046875 
Q 6.890625 46.875 6.828125 48.5 
Q 6.78125 50.140625 6.734375 51.3125 
Q 6.6875 52.484375 6.640625 52.828125 
L 14.9375 52.828125 
Q 14.984375 52.59375 15.03125 51.515625 
Q 15.09375 50.4375 15.15625 49.046875 
Q 15.234375 47.65625 15.28125 46.21875 
Q 15.328125 44.78125 15.328125 43.796875 
L 15.484375 43.796875 
Q 16.75 46.09375 18.265625 47.953125 
Q 19.78125 49.8125 21.78125 51.09375 
Q 23.78125 52.390625 26.359375 53.09375 
Q 28.953125 53.8125 32.375 53.8125 
Q 36.765625 53.8125 39.9375 52.734375 
Q 43.109375 51.65625 45.15625 49.40625 
Q 47.21875 47.171875 48.171875 43.625 
Q 49.125 40.09375 49.125 35.203125 
L 49.125 0 
z
" id="LiberationSans-6e"/>
     <path d="M 46.390625 14.59375 
Q 46.390625 10.890625 44.9375 7.984375 
Q 43.5 5.078125 40.765625 3.09375 
Q 38.03125 1.125 34.046875 0.0625 
Q 30.078125 -0.984375 24.953125 -0.984375 
Q 20.359375 -0.984375 16.671875 -0.265625 
Q 12.984375 0.4375 10.203125 2 
Q 7.421875 3.5625 5.53125 6.125 
Q 3.65625 8.6875 2.78125 12.40625 
L 10.546875 13.921875 
Q 11.671875 9.671875 15.1875 7.6875 
Q 18.703125 5.71875 24.953125 5.71875 
Q 27.78125 5.71875 30.140625 6.109375 
Q 32.515625 6.5 34.21875 7.453125 
Q 35.9375 8.40625 36.890625 9.984375 
Q 37.84375 11.578125 37.84375 13.921875 
Q 37.84375 16.3125 36.71875 17.84375 
Q 35.59375 19.390625 33.59375 20.40625 
Q 31.59375 21.4375 28.734375 22.1875 
Q 25.875 22.953125 22.46875 23.875 
Q 19.28125 24.703125 16.15625 25.734375 
Q 13.03125 26.765625 10.515625 28.4375 
Q 8.015625 30.125 6.453125 32.609375 
Q 4.890625 35.109375 4.890625 38.875 
Q 4.890625 46.09375 10.03125 49.875 
Q 15.1875 53.65625 25.046875 53.65625 
Q 33.796875 53.65625 38.9375 50.578125 
Q 44.09375 47.515625 45.453125 40.71875 
L 37.546875 39.75 
Q 37.109375 41.796875 35.9375 43.1875 
Q 34.765625 44.578125 33.109375 45.4375 
Q 31.453125 46.296875 29.375 46.65625 
Q 27.296875 47.015625 25.046875 47.015625 
Q 19.09375 47.015625 16.25 45.203125 
Q 13.421875 43.40625 13.421875 39.75 
Q 13.421875 37.59375 14.46875 36.203125 
Q 15.53125 34.8125 17.40625 33.859375 
Q 19.28125 32.90625 21.921875 32.203125 
Q 24.5625 31.5 27.734375 30.71875 
Q 29.828125 30.171875 32.03125 29.5625 
Q 34.234375 28.953125 36.296875 28.09375 
Q 38.375 27.25 40.203125 26.09375 
Q 42.046875 24.953125 43.40625 23.34375 
Q 44.78125 21.734375 45.578125 19.578125 
Q 46.390625 17.4375 46.390625 14.59375 
" id="LiberationSans-73"/>
     <path d="M 6.6875 64.0625 
L 6.6875 72.46875 
L 15.484375 72.46875 
L 15.484375 64.0625 
z
M 6.6875 0 
L 6.6875 52.828125 
L 15.484375 52.828125 
L 15.484375 0 
z
" id="LiberationSans-69"/>
    </defs>
    <g style="fill:#262626;" transform="translate(184.0490625 23.8)scale(0.12 -0.12)">
     <use xlink:href="#LiberationSans-65"/>
     <use x="55.615234375" xlink:href="#LiberationSans-78"/>
     <use x="105.615234375" xlink:href="#LiberationSans-70"/>
     <use x="161.23046875" xlink:href="#LiberationSans-20"/>
     <use x="189.013671875" xlink:href="#LiberationSans-3a"/>
     <use x="216.796875" xlink:href="#LiberationSans-20"/>
     <use x="244.580078125" xlink:href="#LiberationSans-31"/>
     <use x="300.1953125" xlink:href="#LiberationSans-2c"/>
     <use x="327.978515625" xlink:href="#LiberationSans-20"/>
     <use x="355.76171875" xlink:href="#LiberationSans-73"/>
     <use x="405.76171875" xlink:href="#LiberationSans-69"/>
     <use x="427.978515625" xlink:href="#LiberationSans-6e"/>
     <use x="483.59375" xlink:href="#LiberationSans-20"/>
     <use x="511.376953125" xlink:href="#LiberationSans-3a"/>
     <use x="539.16015625" xlink:href="#LiberationSans-20"/>
     <use x="566.943359375" xlink:href="#LiberationSans-33"/>
    </g>
   </g>
  </g>
 </g>
 <defs>
  <clipPath id="pf7e075bac6">
   <rect height="223.2" width="334.8" x="54.0" y="28.8"/>
  </clipPath>
 </defs>
</svg>
