<?xml version="1.0" encoding="utf-8" standalone="no"?>
<!DOCTYPE svg PUBLIC "-//W3C//DTD SVG 1.1//EN"
  "http://www.w3.org/Graphics/SVG/1.1/DTD/svg11.dtd">
<!-- Created with matplotlib (http://matplotlib.org/) -->
<svg height="288pt" version="1.1" viewBox="0 0 432 288" width="432pt" xmlns="http://www.w3.org/2000/svg" xmlns:xlink="http://www.w3.org/1999/xlink">
 <defs>
  <style type="text/css">
*{stroke-linecap:butt;stroke-linejoin:round;stroke-miterlimit:100000;}
  </style>
 </defs>
 <g id="figure_1">
  <g id="patch_1">
   <path d="M 0 288 
L 432 288 
L 432 0 
L 0 0 
z
" style="fill:#ffffff;"/>
  </g>
  <g id="axes_1">
   <g id="patch_2">
    <path d="M 54 252 
L 388.8 252 
L 388.8 28.8 
L 54 28.8 
z
" style="fill:#eaeaf2;"/>
   </g>
   <g id="matplotlib.axis_1">
    <g id="xtick_1">
     <g id="line2d_1">
      <path clip-path="url(#pef63422f6d)" d="M 54 252 
L 54 28.8 
" style="fill:none;stroke:#ffffff;stroke-linecap:round;"/>
     </g>
     <g id="line2d_2"/>
     <g id="line2d_3"/>
     <g id="text_1">
      <!-- 0.00 -->
      <defs>
       <path d="M 51.703125 34.421875 
Q 51.703125 24.515625 49.828125 17.75 
Q 47.953125 10.984375 44.703125 6.8125 
Q 41.453125 2.640625 37.0625 0.828125 
Q 32.671875 -0.984375 27.6875 -0.984375 
Q 22.65625 -0.984375 18.3125 0.828125 
Q 13.96875 2.640625 10.765625 6.78125 
Q 7.5625 10.9375 5.734375 17.703125 
Q 3.90625 24.46875 3.90625 34.421875 
Q 3.90625 44.828125 5.734375 51.640625 
Q 7.5625 58.453125 10.78125 62.5 
Q 14.015625 66.546875 18.40625 68.1875 
Q 22.796875 69.828125 27.984375 69.828125 
Q 32.90625 69.828125 37.21875 68.1875 
Q 41.546875 66.546875 44.765625 62.5 
Q 48 58.453125 49.84375 51.640625 
Q 51.703125 44.828125 51.703125 34.421875 
M 42.78125 34.421875 
Q 42.78125 42.625 41.796875 48.0625 
Q 40.828125 53.515625 38.921875 56.765625 
Q 37.015625 60.015625 34.25 61.359375 
Q 31.5 62.703125 27.984375 62.703125 
Q 24.265625 62.703125 21.4375 61.328125 
Q 18.609375 59.96875 16.671875 56.71875 
Q 14.75 53.46875 13.765625 48.015625 
Q 12.796875 42.578125 12.796875 34.421875 
Q 12.796875 26.515625 13.796875 21.09375 
Q 14.796875 15.671875 16.71875 12.375 
Q 18.65625 9.078125 21.4375 7.640625 
Q 24.21875 6.203125 27.78125 6.203125 
Q 31.25 6.203125 34.03125 7.640625 
Q 36.8125 9.078125 38.734375 12.375 
Q 40.671875 15.671875 41.71875 21.09375 
Q 42.78125 26.515625 42.78125 34.421875 
" id="LiberationSans-30"/>
       <path d="M 9.125 0 
L 9.125 10.6875 
L 18.65625 10.6875 
L 18.65625 0 
z
" id="LiberationSans-2e"/>
      </defs>
      <g style="fill:#262626;" transform="translate(44.26953125 266.246875)scale(0.1 -0.1)">
       <use xlink:href="#LiberationSans-30"/>
       <use x="55.615234375" xlink:href="#LiberationSans-2e"/>
       <use x="83.3984375" xlink:href="#LiberationSans-30"/>
       <use x="139.013671875" xlink:href="#LiberationSans-30"/>
      </g>
     </g>
    </g>
    <g id="xtick_2">
     <g id="line2d_4">
      <path clip-path="url(#pef63422f6d)" d="M 101.828571 252 
L 101.828571 28.8 
" style="fill:none;stroke:#ffffff;stroke-linecap:round;"/>
     </g>
     <g id="line2d_5"/>
     <g id="line2d_6"/>
     <g id="text_2">
      <!-- 0.01 -->
      <defs>
       <path d="M 7.625 0 
L 7.625 7.46875 
L 25.140625 7.46875 
L 25.140625 60.40625 
L 9.625 49.3125 
L 9.625 57.625 
L 25.875 68.796875 
L 33.984375 68.796875 
L 33.984375 7.46875 
L 50.734375 7.46875 
L 50.734375 0 
z
" id="LiberationSans-31"/>
      </defs>
      <g style="fill:#262626;" transform="translate(92.0981026786 266.246875)scale(0.1 -0.1)">
       <use xlink:href="#LiberationSans-30"/>
       <use x="55.615234375" xlink:href="#LiberationSans-2e"/>
       <use x="83.3984375" xlink:href="#LiberationSans-30"/>
       <use x="139.013671875" xlink:href="#LiberationSans-31"/>
      </g>
     </g>
    </g>
    <g id="xtick_3">
     <g id="line2d_7">
      <path clip-path="url(#pef63422f6d)" d="M 149.657143 252 
L 149.657143 28.8 
" style="fill:none;stroke:#ffffff;stroke-linecap:round;"/>
     </g>
     <g id="line2d_8"/>
     <g id="line2d_9"/>
     <g id="text_3">
      <!-- 0.02 -->
      <defs>
       <path d="M 5.03125 0 
L 5.03125 6.203125 
Q 7.515625 11.921875 11.109375 16.28125 
Q 14.703125 20.65625 18.65625 24.1875 
Q 22.609375 27.734375 26.484375 30.765625 
Q 30.375 33.796875 33.5 36.8125 
Q 36.625 39.84375 38.546875 43.15625 
Q 40.484375 46.484375 40.484375 50.6875 
Q 40.484375 53.609375 39.59375 55.828125 
Q 38.71875 58.0625 37.0625 59.5625 
Q 35.40625 61.078125 33.078125 61.828125 
Q 30.765625 62.59375 27.9375 62.59375 
Q 25.296875 62.59375 22.96875 61.859375 
Q 20.65625 61.140625 18.84375 59.671875 
Q 17.046875 58.203125 15.890625 56.03125 
Q 14.75 53.859375 14.40625 50.984375 
L 5.421875 51.8125 
Q 5.859375 55.515625 7.46875 58.78125 
Q 9.078125 62.0625 11.90625 64.53125 
Q 14.75 67 18.71875 68.40625 
Q 22.703125 69.828125 27.9375 69.828125 
Q 33.0625 69.828125 37.0625 68.609375 
Q 41.0625 67.390625 43.8125 64.984375 
Q 46.578125 62.59375 48.046875 59.078125 
Q 49.515625 55.5625 49.515625 50.984375 
Q 49.515625 47.515625 48.265625 44.390625 
Q 47.015625 41.265625 44.9375 38.421875 
Q 42.875 35.59375 40.140625 32.953125 
Q 37.40625 30.328125 34.421875 27.8125 
Q 31.453125 25.296875 28.421875 22.828125 
Q 25.390625 20.359375 22.71875 17.859375 
Q 20.0625 15.375 17.96875 12.8125 
Q 15.875 10.25 14.703125 7.46875 
L 50.59375 7.46875 
L 50.59375 0 
z
" id="LiberationSans-32"/>
      </defs>
      <g style="fill:#262626;" transform="translate(139.926674107 266.246875)scale(0.1 -0.1)">
       <use xlink:href="#LiberationSans-30"/>
       <use x="55.615234375" xlink:href="#LiberationSans-2e"/>
       <use x="83.3984375" xlink:href="#LiberationSans-30"/>
       <use x="139.013671875" xlink:href="#LiberationSans-32"/>
      </g>
     </g>
    </g>
    <g id="xtick_4">
     <g id="line2d_10">
      <path clip-path="url(#pef63422f6d)" d="M 197.485714 252 
L 197.485714 28.8 
" style="fill:none;stroke:#ffffff;stroke-linecap:round;"/>
     </g>
     <g id="line2d_11"/>
     <g id="line2d_12"/>
     <g id="text_4">
      <!-- 0.03 -->
      <defs>
       <path d="M 51.21875 19 
Q 51.21875 14.265625 49.671875 10.546875 
Q 48.140625 6.84375 45.1875 4.265625 
Q 42.234375 1.703125 37.859375 0.359375 
Q 33.5 -0.984375 27.875 -0.984375 
Q 21.484375 -0.984375 17.109375 0.609375 
Q 12.75 2.203125 9.90625 4.8125 
Q 7.078125 7.421875 5.65625 10.765625 
Q 4.25 14.109375 3.8125 17.671875 
L 12.890625 18.5 
Q 13.28125 15.765625 14.328125 13.515625 
Q 15.375 11.28125 17.1875 9.671875 
Q 19 8.0625 21.625 7.171875 
Q 24.265625 6.296875 27.875 6.296875 
Q 34.515625 6.296875 38.296875 9.5625 
Q 42.09375 12.84375 42.09375 19.28125 
Q 42.09375 23.09375 40.40625 25.40625 
Q 38.71875 27.734375 36.203125 29.03125 
Q 33.6875 30.328125 30.734375 30.765625 
Q 27.78125 31.203125 25.296875 31.203125 
L 20.3125 31.203125 
L 20.3125 38.8125 
L 25.09375 38.8125 
Q 27.59375 38.8125 30.265625 39.328125 
Q 32.953125 39.84375 35.171875 41.1875 
Q 37.40625 42.53125 38.84375 44.828125 
Q 40.28125 47.125 40.28125 50.6875 
Q 40.28125 56.203125 37.03125 59.390625 
Q 33.796875 62.59375 27.390625 62.59375 
Q 21.578125 62.59375 17.984375 59.609375 
Q 14.40625 56.640625 13.8125 51.21875 
L 4.984375 51.90625 
Q 5.515625 56.453125 7.46875 59.8125 
Q 9.421875 63.1875 12.421875 65.40625 
Q 15.4375 67.625 19.28125 68.71875 
Q 23.140625 69.828125 27.484375 69.828125 
Q 33.25 69.828125 37.390625 68.375 
Q 41.546875 66.9375 44.1875 64.46875 
Q 46.828125 62.015625 48.0625 58.6875 
Q 49.3125 55.375 49.3125 51.609375 
Q 49.3125 48.578125 48.484375 45.9375 
Q 47.65625 43.3125 45.890625 41.203125 
Q 44.140625 39.109375 41.421875 37.59375 
Q 38.71875 36.078125 34.90625 35.296875 
L 34.90625 35.109375 
Q 39.0625 34.671875 42.140625 33.21875 
Q 45.21875 31.78125 47.21875 29.625 
Q 49.21875 27.484375 50.21875 24.75 
Q 51.21875 22.015625 51.21875 19 
" id="LiberationSans-33"/>
      </defs>
      <g style="fill:#262626;" transform="translate(187.755245536 266.246875)scale(0.1 -0.1)">
       <use xlink:href="#LiberationSans-30"/>
       <use x="55.615234375" xlink:href="#LiberationSans-2e"/>
       <use x="83.3984375" xlink:href="#LiberationSans-30"/>
       <use x="139.013671875" xlink:href="#LiberationSans-33"/>
      </g>
     </g>
    </g>
    <g id="xtick_5">
     <g id="line2d_13">
      <path clip-path="url(#pef63422f6d)" d="M 245.314286 252 
L 245.314286 28.8 
" style="fill:none;stroke:#ffffff;stroke-linecap:round;"/>
     </g>
     <g id="line2d_14"/>
     <g id="line2d_15"/>
     <g id="text_5">
      <!-- 0.04 -->
      <defs>
       <path d="M 43.015625 15.578125 
L 43.015625 0 
L 34.71875 0 
L 34.71875 15.578125 
L 2.296875 15.578125 
L 2.296875 22.40625 
L 33.796875 68.796875 
L 43.015625 68.796875 
L 43.015625 22.515625 
L 52.6875 22.515625 
L 52.6875 15.578125 
z
M 34.71875 58.890625 
Q 34.625 58.640625 34.234375 57.9375 
Q 33.84375 57.234375 33.34375 56.34375 
Q 32.859375 55.46875 32.34375 54.5625 
Q 31.84375 53.65625 31.453125 53.078125 
L 13.8125 27.09375 
Q 13.578125 26.703125 13.109375 26.0625 
Q 12.640625 25.4375 12.15625 24.78125 
Q 11.671875 24.125 11.171875 23.484375 
Q 10.6875 22.859375 10.40625 22.515625 
L 34.71875 22.515625 
z
" id="LiberationSans-34"/>
      </defs>
      <g style="fill:#262626;" transform="translate(235.583816964 266.246875)scale(0.1 -0.1)">
       <use xlink:href="#LiberationSans-30"/>
       <use x="55.615234375" xlink:href="#LiberationSans-2e"/>
       <use x="83.3984375" xlink:href="#LiberationSans-30"/>
       <use x="139.013671875" xlink:href="#LiberationSans-34"/>
      </g>
     </g>
    </g>
    <g id="xtick_6">
     <g id="line2d_16">
      <path clip-path="url(#pef63422f6d)" d="M 293.142857 252 
L 293.142857 28.8 
" style="fill:none;stroke:#ffffff;stroke-linecap:round;"/>
     </g>
     <g id="line2d_17"/>
     <g id="line2d_18"/>
     <g id="text_6">
      <!-- 0.05 -->
      <defs>
       <path d="M 51.421875 22.40625 
Q 51.421875 17.234375 49.859375 12.9375 
Q 48.296875 8.640625 45.21875 5.53125 
Q 42.140625 2.4375 37.578125 0.71875 
Q 33.015625 -0.984375 27 -0.984375 
Q 21.578125 -0.984375 17.546875 0.28125 
Q 13.53125 1.5625 10.734375 3.78125 
Q 7.953125 6 6.3125 8.984375 
Q 4.6875 11.96875 4 15.375 
L 12.890625 16.40625 
Q 13.421875 14.453125 14.390625 12.625 
Q 15.375 10.796875 17.0625 9.34375 
Q 18.75 7.90625 21.21875 7.046875 
Q 23.6875 6.203125 27.203125 6.203125 
Q 30.609375 6.203125 33.390625 7.25 
Q 36.1875 8.296875 38.15625 10.34375 
Q 40.140625 12.40625 41.203125 15.375 
Q 42.28125 18.359375 42.28125 22.21875 
Q 42.28125 25.390625 41.25 28.046875 
Q 40.234375 30.71875 38.328125 32.640625 
Q 36.421875 34.578125 33.65625 35.640625 
Q 30.90625 36.71875 27.390625 36.71875 
Q 25.203125 36.71875 23.34375 36.328125 
Q 21.484375 35.9375 19.890625 35.25 
Q 18.3125 34.578125 17.015625 33.671875 
Q 15.71875 32.765625 14.59375 31.78125 
L 6 31.78125 
L 8.296875 68.796875 
L 47.40625 68.796875 
L 47.40625 61.328125 
L 16.3125 61.328125 
L 14.984375 39.5 
Q 17.328125 41.3125 20.84375 42.59375 
Q 24.359375 43.890625 29.203125 43.890625 
Q 34.328125 43.890625 38.421875 42.328125 
Q 42.53125 40.765625 45.40625 37.90625 
Q 48.296875 35.0625 49.859375 31.109375 
Q 51.421875 27.15625 51.421875 22.40625 
" id="LiberationSans-35"/>
      </defs>
      <g style="fill:#262626;" transform="translate(283.412388393 266.246875)scale(0.1 -0.1)">
       <use xlink:href="#LiberationSans-30"/>
       <use x="55.615234375" xlink:href="#LiberationSans-2e"/>
       <use x="83.3984375" xlink:href="#LiberationSans-30"/>
       <use x="139.013671875" xlink:href="#LiberationSans-35"/>
      </g>
     </g>
    </g>
    <g id="xtick_7">
     <g id="line2d_19">
      <path clip-path="url(#pef63422f6d)" d="M 340.971429 252 
L 340.971429 28.8 
" style="fill:none;stroke:#ffffff;stroke-linecap:round;"/>
     </g>
     <g id="line2d_20"/>
     <g id="line2d_21"/>
     <g id="text_7">
      <!-- 0.06 -->
      <defs>
       <path d="M 51.21875 22.515625 
Q 51.21875 17.328125 49.78125 13 
Q 48.34375 8.6875 45.53125 5.578125 
Q 42.71875 2.484375 38.5625 0.75 
Q 34.421875 -0.984375 29 -0.984375 
Q 23 -0.984375 18.5 1.3125 
Q 14.015625 3.609375 11.03125 7.921875 
Q 8.0625 12.25 6.5625 18.53125 
Q 5.078125 24.8125 5.078125 32.8125 
Q 5.078125 42 6.765625 48.921875 
Q 8.453125 55.859375 11.625 60.5 
Q 14.796875 65.140625 19.359375 67.484375 
Q 23.921875 69.828125 29.6875 69.828125 
Q 33.203125 69.828125 36.28125 69.09375 
Q 39.359375 68.359375 41.875 66.71875 
Q 44.390625 65.09375 46.28125 62.40625 
Q 48.1875 59.71875 49.3125 55.8125 
L 40.921875 54.296875 
Q 39.546875 58.734375 36.546875 60.71875 
Q 33.546875 62.703125 29.59375 62.703125 
Q 25.984375 62.703125 23.046875 60.984375 
Q 20.125 59.28125 18.0625 55.875 
Q 16.015625 52.484375 14.90625 47.359375 
Q 13.8125 42.234375 13.8125 35.40625 
Q 16.21875 39.84375 20.5625 42.15625 
Q 24.90625 44.484375 30.515625 44.484375 
Q 35.203125 44.484375 39.015625 42.96875 
Q 42.828125 41.453125 45.53125 38.59375 
Q 48.25 35.75 49.734375 31.671875 
Q 51.21875 27.59375 51.21875 22.515625 
M 42.28125 22.125 
Q 42.28125 25.6875 41.40625 28.5625 
Q 40.53125 31.453125 38.765625 33.46875 
Q 37.015625 35.5 34.421875 36.59375 
Q 31.84375 37.703125 28.421875 37.703125 
Q 26.03125 37.703125 23.578125 36.984375 
Q 21.140625 36.28125 19.15625 34.6875 
Q 17.1875 33.109375 15.9375 30.515625 
Q 14.703125 27.9375 14.703125 24.21875 
Q 14.703125 20.40625 15.671875 17.109375 
Q 16.65625 13.8125 18.484375 11.375 
Q 20.3125 8.9375 22.890625 7.515625 
Q 25.484375 6.109375 28.71875 6.109375 
Q 31.890625 6.109375 34.40625 7.203125 
Q 36.921875 8.296875 38.671875 10.375 
Q 40.4375 12.453125 41.359375 15.421875 
Q 42.28125 18.40625 42.28125 22.125 
" id="LiberationSans-36"/>
      </defs>
      <g style="fill:#262626;" transform="translate(331.240959821 266.246875)scale(0.1 -0.1)">
       <use xlink:href="#LiberationSans-30"/>
       <use x="55.615234375" xlink:href="#LiberationSans-2e"/>
       <use x="83.3984375" xlink:href="#LiberationSans-30"/>
       <use x="139.013671875" xlink:href="#LiberationSans-36"/>
      </g>
     </g>
    </g>
    <g id="xtick_8">
     <g id="line2d_22">
      <path clip-path="url(#pef63422f6d)" d="M 388.8 252 
L 388.8 28.8 
" style="fill:none;stroke:#ffffff;stroke-linecap:round;"/>
     </g>
     <g id="line2d_23"/>
     <g id="line2d_24"/>
     <g id="text_8">
      <!-- 0.07 -->
      <defs>
       <path d="M 50.59375 61.671875 
Q 45.40625 53.765625 41.0625 46.453125 
Q 36.71875 39.15625 33.59375 31.75 
Q 30.46875 24.359375 28.734375 16.578125 
Q 27 8.796875 27 0 
L 17.828125 0 
Q 17.828125 8.25 19.78125 16.1875 
Q 21.734375 24.125 25.046875 31.765625 
Q 28.375 39.40625 32.765625 46.78125 
Q 37.15625 54.15625 42.09375 61.328125 
L 5.125 61.328125 
L 5.125 68.796875 
L 50.59375 68.796875 
z
" id="LiberationSans-37"/>
      </defs>
      <g style="fill:#262626;" transform="translate(379.06953125 266.246875)scale(0.1 -0.1)">
       <use xlink:href="#LiberationSans-30"/>
       <use x="55.615234375" xlink:href="#LiberationSans-2e"/>
       <use x="83.3984375" xlink:href="#LiberationSans-30"/>
       <use x="139.013671875" xlink:href="#LiberationSans-37"/>
      </g>
     </g>
    </g>
   </g>
   <g id="matplotlib.axis_2">
    <g id="ytick_1">
     <g id="line2d_25">
      <path clip-path="url(#pef63422f6d)" d="M 54 252 
L 388.8 252 
" style="fill:none;stroke:#ffffff;stroke-linecap:round;"/>
     </g>
     <g id="line2d_26"/>
     <g id="line2d_27"/>
     <g id="text_9">
      <!-- −2 -->
      <defs>
       <path d="M 4.9375 29.6875 
L 4.9375 36.8125 
L 53.515625 36.8125 
L 53.515625 29.6875 
z
" id="LiberationSans-2212"/>
      </defs>
      <g style="fill:#262626;" transform="translate(35.5984375 254.5859375)scale(0.1 -0.1)">
       <use xlink:href="#LiberationSans-2212"/>
       <use x="58.3984375" xlink:href="#LiberationSans-32"/>
      </g>
     </g>
    </g>
    <g id="ytick_2">
     <g id="line2d_28">
      <path clip-path="url(#pef63422f6d)" d="M 54 214.8 
L 388.8 214.8 
" style="fill:none;stroke:#ffffff;stroke-linecap:round;"/>
     </g>
     <g id="line2d_29"/>
     <g id="line2d_30"/>
     <g id="text_10">
      <!-- 0 -->
      <g style="fill:#262626;" transform="translate(41.4390625 217.3859375)scale(0.1 -0.1)">
       <use xlink:href="#LiberationSans-30"/>
      </g>
     </g>
    </g>
    <g id="ytick_3">
     <g id="line2d_31">
      <path clip-path="url(#pef63422f6d)" d="M 54 177.6 
L 388.8 177.6 
" style="fill:none;stroke:#ffffff;stroke-linecap:round;"/>
     </g>
     <g id="line2d_32"/>
     <g id="line2d_33"/>
     <g id="text_11">
      <!-- 2 -->
      <g style="fill:#262626;" transform="translate(41.4390625 180.1859375)scale(0.1 -0.1)">
       <use xlink:href="#LiberationSans-32"/>
      </g>
     </g>
    </g>
    <g id="ytick_4">
     <g id="line2d_34">
      <path clip-path="url(#pef63422f6d)" d="M 54 140.4 
L 388.8 140.4 
" style="fill:none;stroke:#ffffff;stroke-linecap:round;"/>
     </g>
     <g id="line2d_35"/>
     <g id="line2d_36"/>
     <g id="text_12">
      <!-- 4 -->
      <g style="fill:#262626;" transform="translate(41.4390625 142.9859375)scale(0.1 -0.1)">
       <use xlink:href="#LiberationSans-34"/>
      </g>
     </g>
    </g>
    <g id="ytick_5">
     <g id="line2d_37">
      <path clip-path="url(#pef63422f6d)" d="M 54 103.2 
L 388.8 103.2 
" style="fill:none;stroke:#ffffff;stroke-linecap:round;"/>
     </g>
     <g id="line2d_38"/>
     <g id="line2d_39"/>
     <g id="text_13">
      <!-- 6 -->
      <g style="fill:#262626;" transform="translate(41.4390625 105.7859375)scale(0.1 -0.1)">
       <use xlink:href="#LiberationSans-36"/>
      </g>
     </g>
    </g>
    <g id="ytick_6">
     <g id="line2d_40">
      <path clip-path="url(#pef63422f6d)" d="M 54 66 
L 388.8 66 
" style="fill:none;stroke:#ffffff;stroke-linecap:round;"/>
     </g>
     <g id="line2d_41"/>
     <g id="line2d_42"/>
     <g id="text_14">
      <!-- 8 -->
      <defs>
       <path d="M 51.265625 19.1875 
Q 51.265625 14.796875 49.875 11.109375 
Q 48.484375 7.421875 45.625 4.734375 
Q 42.78125 2.046875 38.328125 0.53125 
Q 33.890625 -0.984375 27.828125 -0.984375 
Q 21.78125 -0.984375 17.359375 0.53125 
Q 12.9375 2.046875 10.03125 4.703125 
Q 7.125 7.375 5.734375 11.0625 
Q 4.34375 14.75 4.34375 19.09375 
Q 4.34375 22.859375 5.484375 25.78125 
Q 6.640625 28.71875 8.5625 30.828125 
Q 10.5 32.953125 12.96875 34.25 
Q 15.4375 35.546875 18.0625 35.984375 
L 18.0625 36.1875 
Q 15.1875 36.859375 12.90625 38.375 
Q 10.640625 39.890625 9.09375 42.015625 
Q 7.5625 44.140625 6.75 46.71875 
Q 5.953125 49.3125 5.953125 52.203125 
Q 5.953125 55.8125 7.34375 59 
Q 8.734375 62.203125 11.46875 64.625 
Q 14.203125 67.046875 18.25 68.4375 
Q 22.3125 69.828125 27.640625 69.828125 
Q 33.25 69.828125 37.375 68.40625 
Q 41.5 67 44.203125 64.578125 
Q 46.921875 62.15625 48.234375 58.9375 
Q 49.5625 55.71875 49.5625 52.09375 
Q 49.5625 49.265625 48.75 46.671875 
Q 47.953125 44.09375 46.40625 41.96875 
Q 44.875 39.84375 42.59375 38.34375 
Q 40.328125 36.859375 37.359375 36.28125 
L 37.359375 36.078125 
Q 40.328125 35.59375 42.859375 34.296875 
Q 45.40625 33.015625 47.265625 30.890625 
Q 49.125 28.765625 50.1875 25.828125 
Q 51.265625 22.90625 51.265625 19.1875 
M 40.4375 51.609375 
Q 40.4375 54.203125 39.765625 56.34375 
Q 39.109375 58.5 37.59375 60.03125 
Q 36.078125 61.578125 33.640625 62.421875 
Q 31.203125 63.28125 27.640625 63.28125 
Q 24.171875 63.28125 21.78125 62.421875 
Q 19.390625 61.578125 17.84375 60.03125 
Q 16.3125 58.5 15.625 56.34375 
Q 14.9375 54.203125 14.9375 51.609375 
Q 14.9375 49.5625 15.46875 47.40625 
Q 16.015625 45.265625 17.421875 43.5 
Q 18.84375 41.75 21.328125 40.625 
Q 23.828125 39.5 27.734375 39.5 
Q 31.890625 39.5 34.40625 40.625 
Q 36.921875 41.75 38.25 43.5 
Q 39.59375 45.265625 40.015625 47.40625 
Q 40.4375 49.5625 40.4375 51.609375 
M 42.140625 20.015625 
Q 42.140625 22.515625 41.453125 24.828125 
Q 40.765625 27.15625 39.109375 28.9375 
Q 37.453125 30.71875 34.640625 31.8125 
Q 31.84375 32.90625 27.640625 32.90625 
Q 23.78125 32.90625 21.0625 31.8125 
Q 18.359375 30.71875 16.671875 28.90625 
Q 14.984375 27.09375 14.203125 24.71875 
Q 13.421875 22.359375 13.421875 19.828125 
Q 13.421875 16.65625 14.203125 14.03125 
Q 14.984375 11.421875 16.6875 9.546875 
Q 18.40625 7.671875 21.1875 6.640625 
Q 23.96875 5.609375 27.9375 5.609375 
Q 31.9375 5.609375 34.671875 6.640625 
Q 37.40625 7.671875 39.0625 9.546875 
Q 40.71875 11.421875 41.421875 14.078125 
Q 42.140625 16.75 42.140625 20.015625 
" id="LiberationSans-38"/>
      </defs>
      <g style="fill:#262626;" transform="translate(41.4390625 68.5859375)scale(0.1 -0.1)">
       <use xlink:href="#LiberationSans-38"/>
      </g>
     </g>
    </g>
    <g id="ytick_7">
     <g id="line2d_43">
      <path clip-path="url(#pef63422f6d)" d="M 54 28.8 
L 388.8 28.8 
" style="fill:none;stroke:#ffffff;stroke-linecap:round;"/>
     </g>
     <g id="line2d_44"/>
     <g id="line2d_45"/>
     <g id="text_15">
      <!-- 10 -->
      <g style="fill:#262626;" transform="translate(35.878125 31.3859375)scale(0.1 -0.1)">
       <use xlink:href="#LiberationSans-31"/>
       <use x="55.615234375" xlink:href="#LiberationSans-30"/>
      </g>
     </g>
    </g>
   </g>
   <g id="line2d_46">
    <path clip-path="url(#pef63422f6d)" d="M 54 214.625685 
L 54.425143 213.114598 
L 54.850286 211.458231 
L 55.488 210.00332 
L 56.338286 206.993785 
L 56.763429 205.940467 
L 56.976 205.722493 
L 57.188571 205.88807 
L 57.401143 205.720484 
L 57.826286 204.381452 
L 58.889143 198.601074 
L 59.101714 198.839582 
L 59.314286 198.906746 
L 59.739429 198.826004 
L 60.164571 199.3054 
L 61.014857 200.352134 
L 61.227429 199.779049 
L 62.077714 194.471874 
L 62.290286 194.860614 
L 62.502857 194.465178 
L 62.928 192.460656 
L 63.778286 185.618646 
L 64.203429 185.898018 
L 64.628571 185.15718 
L 64.841143 185.16462 
L 65.053714 185.728014 
L 65.266286 185.74308 
L 65.691429 184.539474 
L 65.904 184.49223 
L 66.116571 184.82889 
L 66.329143 183.995052 
L 67.179429 177.241392 
L 67.392 177.18429 
L 67.604571 177.754938 
L 67.817143 177.122166 
L 68.667429 170.489034 
L 68.88 170.77938 
L 69.092571 171.416058 
L 69.305143 171.344448 
L 69.517714 171.06861 
L 69.730286 170.990676 
L 70.155429 172.062036 
L 70.368 171.885894 
L 70.580571 171.500688 
L 70.793143 171.350958 
L 71.218286 172.52871 
L 71.430857 172.241712 
L 71.856 169.61967 
L 72.493714 165.204402 
L 72.706286 164.556192 
L 73.131429 165.516138 
L 73.556571 163.99224 
L 73.769143 163.220898 
L 73.981714 162.92832 
L 74.194286 163.175514 
L 74.832 165.508326 
L 75.044571 165.705114 
L 75.469714 165.216678 
L 75.894857 164.847468 
L 76.107429 165.079968 
L 76.32 166.047912 
L 76.532571 166.476642 
L 76.745143 166.171788 
L 76.957714 165.390402 
L 77.170286 164.04153 
L 77.595429 159.198648 
L 78.020571 154.470528 
L 78.233143 153.959028 
L 78.445714 155.178072 
L 78.658286 154.897212 
L 79.508571 149.030586 
L 79.721143 148.783764 
L 79.933714 148.713084 
L 80.146286 149.008266 
L 80.571429 150.860082 
L 80.784 151.066356 
L 80.996571 151.084584 
L 81.209143 151.475556 
L 81.421714 152.348082 
L 81.846857 154.370088 
L 82.059429 154.407288 
L 82.484571 153.973722 
L 82.697143 154.393338 
L 83.122286 156.166476 
L 83.334857 155.83056 
L 83.547429 154.636812 
L 84.397714 146.36037 
L 84.610286 146.293596 
L 84.822857 147.337428 
L 85.035429 146.304384 
L 85.673143 139.941696 
L 86.098286 138.266394 
L 86.310857 138.289644 
L 86.948571 140.52462 
L 87.373714 139.066938 
L 87.586286 138.975054 
L 88.011429 140.969904 
L 88.224 140.566842 
L 88.649143 136.95621 
L 89.074286 133.55799 
L 89.286857 133.870656 
L 89.499429 135.114624 
L 89.712 134.21178 
L 90.137143 128.06913 
L 90.774857 116.278218 
L 90.987429 114.743532 
L 91.2 116.132394 
L 91.412571 116.0619 
L 92.262857 106.340424 
L 92.475429 106.270302 
L 92.688 107.30502 
L 93.325714 112.684512 
L 93.538286 113.313006 
L 93.963429 113.612466 
L 94.176 114.369858 
L 94.813714 118.681152 
L 95.026286 118.81656 
L 95.238857 118.216152 
L 95.876571 114.261978 
L 96.089143 114.297504 
L 96.301714 116.02377 
L 96.514286 116.813526 
L 96.726857 115.888548 
L 98.214857 102.001974 
L 98.64 103.368702 
L 99.277714 95.59911 
L 99.490286 95.359542 
L 99.915429 97.988652 
L 100.340571 101.24607 
L 100.765714 105.466968 
L 101.190857 108.629154 
L 102.041143 116.939262 
L 103.104 125.101872 
L 103.529143 126.38118 
L 103.954286 126.276648 
L 104.166857 126.571272 
L 104.379429 127.61157 
L 104.804571 130.968498 
L 105.017143 131.928444 
L 105.229714 132.125604 
L 105.442286 131.151336 
L 105.654857 128.652612 
L 106.08 119.369166 
L 106.505143 111.153546 
L 106.717714 111.43236 
L 106.930286 112.149018 
L 107.355429 107.29107 
L 107.780571 102.80475 
L 108.205714 100.858074 
L 108.418286 100.309932 
L 108.630857 100.169688 
L 108.843429 100.770096 
L 109.268571 104.41179 
L 109.481143 104.990994 
L 109.693714 104.976672 
L 110.118857 104.690604 
L 110.331429 104.630154 
L 110.544 104.935938 
L 110.756571 106.003392 
L 111.181714 109.603608 
L 111.394286 110.021736 
L 111.606857 110.000532 
L 112.032 109.566408 
L 112.244571 109.114242 
L 112.669714 107.686878 
L 112.882286 107.359518 
L 113.094857 108.069852 
L 113.307429 110.227638 
L 113.52 111.168798 
L 113.732571 110.787126 
L 114.582857 106.326474 
L 115.008 101.464806 
L 115.858286 88.418952 
L 116.070857 90.251982 
L 116.283429 89.598564 
L 116.708571 78.46758 
L 117.133714 67.800294 
L 117.346286 65.740158 
L 117.558857 65.657202 
L 117.771429 67.26759 
L 117.984 70.51143 
L 118.196571 71.655516 
L 118.409143 70.936998 
L 118.834286 68.12226 
L 119.046857 68.260086 
L 119.259429 69.944688 
L 119.684571 75.385746 
L 119.897143 76.89402 
L 120.109714 77.50503 
L 120.322286 77.487732 
L 120.534857 77.35437 
L 120.747429 77.61105 
L 120.96 78.645582 
L 121.385143 83.48307 
L 122.660571 96.209004 
L 123.085714 98.421474 
L 123.723429 103.406088 
L 123.936 103.527546 
L 124.361143 102.988704 
L 124.573714 103.36089 
L 124.786286 104.639082 
L 125.424 110.346306 
L 125.636571 110.646882 
L 125.849143 109.48866 
L 126.274286 102.289344 
L 126.486857 98.11941 
L 126.699429 96.618576 
L 126.912 98.754972 
L 127.124571 96.089406 
L 127.762286 82.659648 
L 127.974857 81.693192 
L 128.187429 82.071888 
L 128.4 83.065128 
L 128.825143 86.931324 
L 129.250286 90.748788 
L 129.675429 93.376596 
L 131.376 108.790602 
L 131.801143 109.945662 
L 132.013714 111.235758 
L 132.438857 115.045782 
L 132.864 117.977142 
L 133.926857 127.266912 
L 134.139429 128.087358 
L 134.352 127.871226 
L 134.564571 127.356006 
L 134.777143 127.535496 
L 134.989714 129.405354 
L 135.202286 129.610512 
L 135.627429 127.966272 
L 135.84 128.203236 
L 136.265143 131.341614 
L 136.690286 133.814298 
L 137.115429 135.772692 
L 137.328 137.247858 
L 137.540571 137.479242 
L 137.753143 136.398768 
L 137.965714 133.563384 
L 138.390857 120.37431 
L 138.816 108.940146 
L 139.028571 110.543466 
L 139.241143 105.741876 
L 139.666286 91.437732 
L 140.091429 84.750288 
L 140.516571 82.13364 
L 140.729143 83.080566 
L 140.941714 85.500798 
L 141.154286 85.62858 
L 141.579429 83.88855 
L 141.792 84.22986 
L 142.004571 85.7811 
L 142.642286 92.599116 
L 142.854857 93.12996 
L 143.067429 92.52081 
L 143.28 91.383978 
L 143.492571 90.968454 
L 143.705143 92.053392 
L 144.130286 96.448572 
L 144.555429 98.42445 
L 144.768 98.612496 
L 145.193143 98.045754 
L 145.405714 98.390226 
L 145.618286 99.661908 
L 146.043429 103.945488 
L 146.256 104.724828 
L 146.468571 103.709826 
L 146.893714 99.494694 
L 147.106286 99.943884 
L 147.318857 101.863032 
L 147.531429 101.82081 
L 147.744 101.444346 
L 147.956571 101.594634 
L 148.169143 102.583596 
L 148.594286 105.943128 
L 148.806857 105.756012 
L 149.019429 105.413028 
L 149.232 106.225848 
L 149.444571 108.644778 
L 149.657143 109.731948 
L 149.869714 109.622766 
L 150.082286 108.128814 
L 150.507429 100.61925 
L 151.357714 76.446876 
L 151.570286 78.642978 
L 151.782857 75.045924 
L 152.633143 42.582042 
L 152.845714 40.927758 
L 153.058286 42.147174 
L 153.270857 45.872568 
L 153.483429 46.764996 
L 153.696 45.551904 
L 154.121143 41.940528 
L 154.333714 42.306948 
L 155.184 52.096686 
L 155.396571 52.655244 
L 155.609143 52.026192 
L 155.821714 50.911494 
L 156.034286 50.431242 
L 156.246857 51.487908 
L 156.884571 58.660068 
L 158.372571 62.313666 
L 159.010286 68.19015 
L 159.222857 68.141046 
L 159.435429 67.850328 
L 159.648 67.860186 
L 159.860571 68.330022 
L 160.073143 69.315822 
L 160.285714 71.025906 
L 160.710857 75.982248 
L 161.136 77.698284 
L 161.561143 81.841062 
L 161.986286 83.853024 
L 162.198857 86.70087 
L 162.411429 87.966042 
L 162.836571 88.686234 
L 163.049143 88.54506 
L 163.261714 87.580464 
L 163.686857 84.822642 
L 163.899429 83.882784 
L 164.112 82.19688 
L 164.537143 75.940956 
L 164.749714 75.887016 
L 164.962286 76.490214 
L 165.174857 71.27403 
L 165.812571 48.175248 
L 166.025143 46.234152 
L 166.662857 51.398442 
L 167.088 51.427086 
L 167.300571 51.84354 
L 167.513143 53.099226 
L 167.938286 58.69113 
L 168.363429 64.169946 
L 168.576 65.468784 
L 168.788571 65.58987 
L 169.213714 64.610208 
L 169.426286 64.992624 
L 169.638857 66.725772 
L 170.064 71.821428 
L 170.276571 72.607836 
L 170.489143 72.89223 
L 170.701714 72.982068 
L 171.126857 73.00197 
L 171.339429 73.461018 
L 171.552 74.612358 
L 171.977143 79.284306 
L 172.402286 83.008584 
L 172.827429 84.793254 
L 173.465143 88.57947 
L 173.677714 89.06214 
L 173.890286 89.83869 
L 175.165714 101.188596 
L 175.378286 102.622842 
L 175.803429 106.738278 
L 176.016 107.759046 
L 176.228571 107.788992 
L 176.866286 104.69637 
L 177.078857 104.738034 
L 177.716571 106.504848 
L 177.929143 106.387854 
L 178.141714 105.031914 
L 178.779429 97.082274 
L 178.992 99.376584 
L 179.204571 96.154878 
L 179.842286 74.89452 
L 180.054857 71.952 
L 180.267429 72.3519 
L 180.692571 77.01864 
L 181.117714 78.251262 
L 181.330286 78.635352 
L 181.542857 79.313694 
L 181.755429 80.661636 
L 182.818286 90.730002 
L 183.030857 90.577482 
L 183.456 88.864236 
L 183.668571 88.825734 
L 184.093714 92.333694 
L 184.306286 92.454222 
L 184.731429 90.880662 
L 184.944 90.654858 
L 185.156571 91.06815 
L 185.581714 92.762238 
L 185.794286 93.963426 
L 186.219429 98.016924 
L 186.432 98.570646 
L 186.644571 98.22078 
L 186.857143 98.17056 
L 187.069714 99.358356 
L 187.494857 103.31718 
L 188.132571 106.162608 
L 188.982857 113.715882 
L 189.408 114.697404 
L 189.833143 117.802674 
L 190.045714 118.135056 
L 190.258286 117.73683 
L 190.683429 115.39788 
L 191.108571 112.752588 
L 191.321143 112.555056 
L 191.533714 113.15844 
L 191.958857 115.674276 
L 192.384 118.47711 
L 192.596571 118.056192 
L 192.809143 115.157568 
L 193.234286 107.440056 
L 193.446857 108.714528 
L 193.659429 106.38804 
L 194.509714 81.397266 
L 194.722286 81.672546 
L 194.934857 84.635154 
L 195.36 86.917002 
L 195.785143 88.779234 
L 196.210286 92.069946 
L 196.635429 96.407466 
L 197.060571 98.358234 
L 197.273143 98.467602 
L 197.698286 97.54839 
L 197.910857 98.192694 
L 198.123429 100.58019 
L 198.336 101.541438 
L 198.548571 101.110662 
L 199.186286 98.11941 
L 199.398857 98.550186 
L 199.824 101.833272 
L 200.674286 109.82904 
L 201.312 112.536084 
L 202.374857 120.821454 
L 202.8 122.841414 
L 203.225143 124.921824 
L 203.437714 124.901736 
L 203.650286 124.494954 
L 203.862857 124.573818 
L 204.075429 125.730924 
L 204.288 127.52229 
L 204.500571 128.363568 
L 204.713143 128.311116 
L 204.925714 127.341498 
L 205.350857 124.249248 
L 205.563429 123.478278 
L 205.776 123.640842 
L 205.988571 124.624224 
L 207.051429 131.894778 
L 207.264 130.661412 
L 207.689143 122.592918 
L 207.901714 117.850662 
L 208.114286 115.893384 
L 208.326857 117.20301 
L 208.539429 112.989552 
L 209.177143 91.657026 
L 209.389714 89.690448 
L 209.814857 92.671656 
L 210.24 92.735454 
L 210.452571 93.40245 
L 210.877714 97.256184 
L 211.302857 101.030124 
L 211.515429 101.26932 
L 211.728 100.374846 
L 212.153143 97.86273 
L 212.365714 98.224686 
L 212.578286 100.630596 
L 212.790857 101.434674 
L 213.003429 100.803762 
L 213.428571 98.977056 
L 213.641143 98.985798 
L 213.853714 99.81387 
L 214.278857 103.038924 
L 216.192 120.50637 
L 216.617143 121.889652 
L 217.042286 124.795716 
L 217.254857 125.218494 
L 217.467429 124.97223 
L 217.892571 123.720636 
L 218.317714 122.581572 
L 218.530286 122.826906 
L 218.742857 123.966528 
L 218.955429 125.880468 
L 219.168 126.733836 
L 219.380571 126.675804 
L 219.805714 124.881834 
L 220.018286 123.893616 
L 220.230857 123.437916 
L 220.443429 123.959088 
L 221.931429 133.805928 
L 222.144 133.698978 
L 222.356571 131.605548 
L 222.781714 120.635268 
L 223.206857 111.227946 
L 223.419429 113.139468 
L 223.632 108.724572 
L 224.269714 84.22521 
L 224.482286 81.614328 
L 224.907429 84.719598 
L 225.332571 85.34772 
L 225.757714 87.332898 
L 225.970286 88.77384 
L 226.395429 92.992134 
L 226.608 93.213102 
L 227.245714 90.098904 
L 227.458286 91.087494 
L 227.670857 93.693912 
L 227.883429 94.523844 
L 228.308571 94.455954 
L 228.521143 94.990518 
L 228.946286 97.64046 
L 229.584 103.375026 
L 230.009143 106.932462 
L 230.434286 109.836108 
L 231.072 115.286652 
L 231.284571 116.019864 
L 231.709714 116.510532 
L 231.922286 117.31182 
L 232.56 121.90602 
L 232.772571 122.077512 
L 232.985143 121.084644 
L 233.622857 114.678804 
L 233.835429 114.304758 
L 234.260571 116.856306 
L 234.473143 116.267802 
L 234.898286 113.70249 
L 235.110857 113.175552 
L 235.323429 113.743782 
L 236.598857 122.915442 
L 237.024 125.487078 
L 237.236571 127.4544 
L 237.449143 128.338086 
L 237.661714 127.84965 
L 237.874286 125.857404 
L 238.299429 118.49478 
L 238.937143 105.675102 
L 239.149714 105.774984 
L 239.362286 105.453762 
L 239.574857 99.923238 
L 240.212571 76.630458 
L 240.425143 74.753346 
L 240.637714 77.079648 
L 240.850286 77.856198 
L 241.275429 75.944304 
L 241.488 75.767232 
L 241.700571 76.75731 
L 242.338286 82.985148 
L 242.550857 83.166498 
L 242.976 81.998232 
L 243.188571 81.932388 
L 243.401143 82.971384 
L 243.826286 87.436314 
L 244.251429 88.857168 
L 244.464 89.409774 
L 244.889143 91.60476 
L 245.526857 97.458366 
L 245.952 101.914368 
L 246.589714 107.634426 
L 247.014857 110.767968 
L 247.227429 111.4119 
L 247.652571 111.86853 
L 247.865143 112.597836 
L 248.502857 117.116148 
L 248.715429 117.388452 
L 248.928 116.959722 
L 249.353143 114.092718 
L 249.778286 111.309042 
L 249.990857 111.821844 
L 250.203429 113.950242 
L 250.416 114.20004 
L 251.053714 111.080448 
L 251.266286 111.302346 
L 251.478857 112.620342 
L 251.904 116.315232 
L 252.754286 120.792066 
L 253.179429 124.094682 
L 253.392 124.71741 
L 253.604571 124.785486 
L 253.817143 124.273986 
L 255.092571 118.19904 
L 255.517714 114.30792 
L 255.730286 113.791212 
L 255.942857 115.229736 
L 256.155429 111.914844 
L 256.793143 90.810726 
L 257.005714 88.98216 
L 257.218286 91.376724 
L 257.430857 91.672278 
L 257.643429 90.974964 
L 257.856 90.862434 
L 258.068571 92.004474 
L 259.131429 102.032106 
L 259.344 101.238816 
L 259.769143 98.137824 
L 259.981714 98.19195 
L 260.406857 101.601516 
L 260.619429 101.871216 
L 260.832 101.764638 
L 261.044571 101.827692 
L 261.469714 102.856458 
L 261.894857 104.98374 
L 262.32 108.875418 
L 262.957714 112.308048 
L 263.595429 117.967098 
L 264.020571 119.690202 
L 264.233143 120.104982 
L 264.445714 120.992946 
L 264.870857 124.290726 
L 265.296 126.093438 
L 265.508571 126.565692 
L 265.721143 126.268278 
L 265.933714 125.004966 
L 266.571429 119.947998 
L 266.784 120.758586 
L 266.996571 122.145588 
L 267.209143 121.816368 
L 267.846857 118.526028 
L 268.059429 118.798332 
L 268.484571 122.146704 
L 269.334857 128.911896 
L 269.972571 133.393752 
L 270.185143 133.76259 
L 270.397714 133.497726 
L 270.822857 132.359964 
L 271.035429 132.256734 
L 271.460571 132.844866 
L 271.673143 132.796878 
L 271.885714 132.104958 
L 272.098286 130.471506 
L 272.736 122.132196 
L 272.948571 124.08687 
L 273.161143 120.933798 
L 274.011429 95.143224 
L 274.224 95.754606 
L 274.436571 97.605492 
L 274.649143 97.908114 
L 274.861714 97.780332 
L 275.074286 97.946058 
L 275.286857 98.257422 
L 275.499429 98.821932 
L 275.712 100.158714 
L 275.924571 102.244704 
L 276.137143 102.310362 
L 276.774857 98.831046 
L 276.987429 99.433686 
L 277.412571 103.100304 
L 277.625143 103.702944 
L 277.837714 103.745538 
L 278.475429 103.22697 
L 278.688 103.47621 
L 278.900571 104.54013 
L 279.538286 110.059494 
L 280.176 114.250632 
L 280.813714 119.789526 
L 281.238857 121.410888 
L 281.451429 122.217756 
L 281.876571 125.542506 
L 282.301714 128.183892 
L 282.514286 128.794716 
L 282.726857 128.526132 
L 283.152 125.543622 
L 283.577143 122.3952 
L 283.789714 122.448582 
L 284.002286 124.49421 
L 284.214857 124.499232 
L 284.852571 120.241692 
L 285.065143 120.08694 
L 285.277714 121.107894 
L 285.702857 124.451244 
L 286.553143 128.23002 
L 286.765714 130.069188 
L 286.978286 130.829556 
L 287.190857 130.796448 
L 287.403429 130.5234 
L 287.616 130.504614 
L 287.828571 130.962546 
L 288.041143 131.877294 
L 288.891429 137.459898 
L 289.104 137.637528 
L 289.316571 137.064276 
L 289.529143 135.341358 
L 290.166857 126.869058 
L 290.379429 128.377518 
L 290.592 124.806318 
L 291.229714 104.789184 
L 291.442286 102.57411 
L 291.654857 103.427292 
L 291.867429 105.236142 
L 292.08 105.50826 
L 292.717714 104.326044 
L 292.930286 104.682234 
L 293.355429 107.917332 
L 293.568 108.001032 
L 293.993143 106.789614 
L 294.205714 106.826256 
L 294.418286 107.730774 
L 294.843429 111.378978 
L 295.056 112.205562 
L 295.481143 112.71948 
L 295.906286 113.141514 
L 296.118857 113.761452 
L 296.331429 115.003746 
L 296.756571 118.72449 
L 297.606857 123.574626 
L 298.244571 128.998758 
L 298.669714 130.637418 
L 298.882286 131.23113 
L 299.094857 132.323322 
L 299.52 135.393438 
L 299.945143 136.758492 
L 300.157714 136.606158 
L 300.795429 134.396106 
L 301.008 134.30292 
L 301.220571 134.69538 
L 301.645714 137.21475 
L 301.858286 137.317422 
L 302.496 134.712678 
L 302.708571 134.652042 
L 302.921143 135.52773 
L 303.133714 137.208426 
L 303.346286 137.930106 
L 303.771429 138.472854 
L 303.984 139.408434 
L 304.196571 140.902758 
L 304.409143 141.529578 
L 304.621714 141.454248 
L 305.259429 140.223114 
L 305.472 140.285424 
L 305.684571 141.124842 
L 305.897143 142.447674 
L 306.322286 143.35275 
L 306.747429 145.315236 
L 306.96 145.12533 
L 307.172571 144.268428 
L 307.385143 142.71198 
L 308.022857 134.91486 
L 308.235429 135.214692 
L 308.448 134.671572 
L 308.873143 123.88971 
L 309.298286 112.98174 
L 309.510857 111.659094 
L 309.936 114.161166 
L 310.148571 114.115224 
L 310.361143 113.820414 
L 310.573714 113.891838 
L 310.786286 114.538188 
L 311.424 119.118252 
L 311.636571 119.535822 
L 311.849143 119.483928 
L 312.061714 119.300346 
L 312.274286 119.459376 
L 312.486857 120.555288 
L 312.912 123.634146 
L 314.4 129.32277 
L 315.462857 136.87065 
L 316.313143 142.343328 
L 316.525714 142.637952 
L 316.738286 142.713282 
L 316.950857 143.13885 
L 317.376 145.792326 
L 317.801143 147.956808 
L 318.013714 148.35708 
L 318.226286 148.120302 
L 318.651429 147.236244 
L 318.864 147.314922 
L 319.289143 148.151364 
L 319.501714 148.898712 
L 319.714286 150.347838 
L 319.926857 150.836274 
L 320.139429 150.52305 
L 320.564571 149.630436 
L 320.777143 149.791326 
L 320.989714 150.59838 
L 321.414857 152.86944 
L 322.052571 154.436676 
L 322.477714 156.41367 
L 322.690286 156.53922 
L 323.328 154.730742 
L 323.540571 154.851084 
L 324.816 159.900426 
L 325.241143 161.648826 
L 325.453714 161.385636 
L 325.666286 160.49265 
L 326.091429 156.97074 
L 326.516571 151.189302 
L 326.729143 150.055446 
L 326.941714 150.773034 
L 327.154286 147.797778 
L 327.792 133.362132 
L 328.004571 131.259774 
L 328.217143 130.972962 
L 328.429714 132.083382 
L 328.854857 134.959314 
L 329.067429 135.747954 
L 329.28 136.05876 
L 329.492571 136.128138 
L 329.705143 136.415694 
L 330.768 141.925572 
L 331.193143 142.76499 
L 331.405714 143.194836 
L 331.830857 145.32342 
L 332.256 147.258006 
L 332.893714 147.980058 
L 333.318857 149.211006 
L 333.744 151.132944 
L 334.594286 155.924304 
L 335.232 159.009114 
L 335.657143 160.533756 
L 336.72 165.252576 
L 336.932571 165.272106 
L 337.357714 164.075382 
L 337.570286 164.341362 
L 338.845714 169.811064 
L 340.121143 172.805478 
L 340.546286 172.61892 
L 340.758857 173.101776 
L 340.971429 173.934126 
L 341.184 174.289386 
L 341.396571 174.276552 
L 341.609143 173.789232 
L 342.246857 171.378114 
L 342.459429 171.533052 
L 342.884571 173.061972 
L 342.884571 173.061972 
" style="fill:none;stroke:#4c72b0;stroke-linecap:round;stroke-width:1.75;"/>
   </g>
   <g id="line2d_47">
    <path clip-path="url(#pef63422f6d)" d="M 54 216.587099 
L 55.062857 211.553173 
L 58.889143 192.13644 
L 59.739429 189.229329 
L 60.589714 187.174144 
L 61.227429 186.169712 
L 61.865143 185.56082 
L 62.502857 185.255169 
L 63.565714 185.098695 
L 64.416 184.941887 
L 65.053714 184.607488 
L 65.691429 183.967136 
L 66.329143 182.941434 
L 66.966857 181.484653 
L 67.817143 178.862929 
L 68.88 174.633173 
L 71.005714 164.690527 
L 72.281143 159.329644 
L 73.131429 156.560432 
L 73.769143 155.016733 
L 74.406857 153.950544 
L 75.044571 153.338937 
L 75.682286 153.12264 
L 76.32 153.210944 
L 77.382857 153.716854 
L 78.233143 154.095944 
L 78.870857 154.166247 
L 79.296 154.049386 
L 79.721143 153.770846 
L 80.358857 153.009394 
L 80.996571 151.806699 
L 81.846857 149.526446 
L 82.909714 145.760995 
L 86.523429 131.878173 
L 87.373714 129.927375 
L 88.011429 129.012573 
L 88.649143 128.562307 
L 89.074286 128.499166 
L 89.712 128.705063 
L 90.349714 129.182366 
L 92.688 131.23672 
L 93.325714 131.330192 
L 93.750857 131.182229 
L 94.176 130.845787 
L 94.813714 129.969366 
L 95.451429 128.650011 
L 96.301714 126.272989 
L 97.577143 121.79086 
L 99.490286 114.912433 
L 100.340571 112.553144 
L 100.978286 111.262305 
L 101.616 110.434213 
L 102.041143 110.144197 
L 102.466286 110.056237 
L 102.891429 110.155579 
L 103.529143 110.607061 
L 104.379429 111.616631 
L 106.292571 114.148156 
L 106.930286 114.621065 
L 107.355429 114.741364 
L 107.780571 114.680923 
L 108.205714 114.426166 
L 108.843429 113.66819 
L 109.481143 112.471892 
L 110.331429 110.283423 
L 111.606857 106.174137 
L 113.307429 100.686441 
L 114.157714 98.600653 
L 114.795429 97.508224 
L 115.433143 96.874995 
L 115.858286 96.713973 
L 116.283429 96.755005 
L 116.708571 96.983934 
L 117.346286 97.63207 
L 118.196571 98.910278 
L 120.322286 102.345946 
L 120.96 102.931131 
L 121.385143 103.113078 
L 121.810286 103.106935 
L 122.235429 102.902163 
L 122.660571 102.495722 
L 123.298286 101.519984 
L 124.148571 99.616978 
L 125.211429 96.567181 
L 127.124571 90.904694 
L 127.974857 89.039163 
L 128.612571 88.105618 
L 129.250286 87.62805 
L 129.675429 87.570063 
L 130.100571 87.714271 
L 130.738286 88.278133 
L 131.376 89.190842 
L 132.438857 91.200003 
L 133.926857 94.047112 
L 134.564571 94.927791 
L 135.202286 95.454876 
L 135.627429 95.575463 
L 136.052571 95.497368 
L 136.477714 95.216931 
L 137.115429 94.427578 
L 137.753143 93.237994 
L 138.603429 91.168579 
L 141.366857 83.864131 
L 142.004571 82.78197 
L 142.642286 82.123134 
L 143.067429 81.939541 
L 143.492571 81.963935 
L 143.917714 82.190754 
L 144.555429 82.880248 
L 145.193143 83.922209 
L 146.256 86.158329 
L 147.744 89.35098 
L 148.594286 90.660536 
L 149.232 91.214239 
L 149.657143 91.344382 
L 150.082286 91.272871 
L 150.507429 90.999223 
L 151.145143 90.227304 
L 151.782857 89.0726 
L 152.845714 86.544253 
L 154.971429 81.262201 
L 155.609143 80.160477 
L 156.246857 79.456505 
L 156.672 79.235482 
L 157.097143 79.221709 
L 157.522286 79.414047 
L 158.16 80.068005 
L 158.797714 81.105222 
L 159.860571 83.428294 
L 161.773714 87.847086 
L 162.624 89.187106 
L 163.261714 89.738775 
L 163.686857 89.861049 
L 164.112 89.780101 
L 164.537143 89.498632 
L 165.174857 88.724758 
L 166.025143 87.144394 
L 167.300571 84.097598 
L 168.576 81.141969 
L 169.426286 79.713747 
L 170.064 79.0904 
L 170.489143 78.921406 
L 170.914286 78.959007 
L 171.339429 79.202697 
L 171.977143 79.93498 
L 172.614857 81.053757 
L 173.677714 83.523983 
L 175.803429 88.679836 
L 176.441143 89.743594 
L 177.078857 90.413099 
L 177.504 90.614507 
L 177.929143 90.612428 
L 178.354286 90.408938 
L 178.992 89.749041 
L 179.629714 88.721282 
L 180.692571 86.453967 
L 182.393143 82.660139 
L 183.243429 81.322435 
L 183.881143 80.761162 
L 184.306286 80.631828 
L 184.731429 80.708428 
L 185.156571 80.991089 
L 185.794286 81.783123 
L 186.432 82.964891 
L 187.494857 85.551394 
L 189.620571 90.991985 
L 190.470857 92.456105 
L 191.108571 93.082057 
L 191.533714 93.249326 
L 191.958857 93.212707 
L 192.384 92.977442 
L 193.021714 92.281691 
L 193.872 90.833081 
L 195.36 87.59725 
L 196.422857 85.501752 
L 197.060571 84.602655 
L 197.698286 84.086881 
L 198.123429 83.986137 
L 198.548571 84.090649 
L 198.973714 84.401174 
L 199.611429 85.236263 
L 200.249143 86.464301 
L 201.312 89.139213 
L 203.437714 94.809307 
L 204.288 96.381935 
L 204.925714 97.092425 
L 205.350857 97.316456 
L 205.776 97.33619 
L 206.201143 97.156247 
L 206.838857 96.54025 
L 207.476571 95.573219 
L 208.539429 93.459701 
L 210.027429 90.427672 
L 210.877714 89.206676 
L 211.515429 88.721213 
L 211.940571 88.638902 
L 212.365714 88.761139 
L 212.790857 89.089313 
L 213.428571 89.952087 
L 214.066286 91.210974 
L 215.129143 93.948549 
L 217.254857 99.796983 
L 218.105143 101.45798 
L 218.742857 102.238077 
L 219.168 102.509004 
L 219.593143 102.5753 
L 220.018286 102.440958 
L 220.443429 102.117436 
L 221.081143 101.319672 
L 221.931429 99.817217 
L 224.269714 95.338041 
L 224.907429 94.610769 
L 225.332571 94.343141 
L 225.757714 94.269773 
L 226.182857 94.400214 
L 226.608 94.73648 
L 227.245714 95.612542 
L 227.883429 96.887822 
L 228.946286 99.663888 
L 231.284571 106.132941 
L 232.134857 107.699417 
L 232.772571 108.388398 
L 233.197714 108.594542 
L 233.622857 108.596521 
L 234.048 108.401477 
L 234.685714 107.773012 
L 235.536 106.435154 
L 238.299429 101.358947 
L 238.937143 100.760808 
L 239.362286 100.589266 
L 239.787429 100.616597 
L 240.212571 100.849235 
L 240.850286 101.578522 
L 241.488 102.729897 
L 242.338286 104.795504 
L 245.526857 113.44786 
L 246.164571 114.466571 
L 246.802286 115.048282 
L 247.227429 115.180536 
L 247.652571 115.11043 
L 248.077714 114.848211 
L 248.715429 114.13448 
L 249.565714 112.724525 
L 252.116571 108.079057 
L 252.754286 107.472531 
L 253.179429 107.293144 
L 253.604571 107.311509 
L 254.029714 107.534679 
L 254.454857 107.962123 
L 255.092571 108.966572 
L 255.942857 110.885849 
L 257.218286 114.530308 
L 258.706286 118.743817 
L 259.556571 120.56011 
L 260.194286 121.46762 
L 260.832 121.927471 
L 261.257143 121.977783 
L 261.682286 121.828867 
L 262.32 121.262906 
L 262.957714 120.353319 
L 264.020571 118.359262 
L 265.508571 115.551964 
L 266.146286 114.695312 
L 266.784 114.197091 
L 267.209143 114.098771 
L 267.634286 114.201817 
L 268.059429 114.510136 
L 268.697143 115.347326 
L 269.334857 116.592642 
L 270.185143 118.749734 
L 273.161143 126.892095 
L 273.798857 127.956531 
L 274.436571 128.587673 
L 274.861714 128.752896 
L 275.286857 128.714303 
L 275.712 128.48092 
L 276.349714 127.802967 
L 277.2 126.421852 
L 279.750857 121.703145 
L 280.388571 121.044992 
L 280.813714 120.826572 
L 281.238857 120.803557 
L 281.664 120.98424 
L 282.089143 121.369349 
L 282.726857 122.313276 
L 283.577143 124.16326 
L 284.852571 127.741663 
L 286.553143 132.459622 
L 287.403429 134.141077 
L 288.041143 134.928959 
L 288.466286 135.202632 
L 288.891429 135.270489 
L 289.316571 135.137181 
L 289.741714 134.814802 
L 290.379429 134.020219 
L 291.229714 132.527198 
L 293.568 128.116621 
L 294.205714 127.416958 
L 294.630857 127.168509 
L 295.056 127.114247 
L 295.481143 127.263079 
L 295.906286 127.616365 
L 296.544 128.513965 
L 297.181714 129.804192 
L 298.244571 132.586066 
L 300.370286 138.492976 
L 301.220571 140.166325 
L 301.858286 140.951722 
L 302.283429 141.224358 
L 302.708571 141.290942 
L 303.133714 141.155502 
L 303.558857 140.829531 
L 304.196571 140.025626 
L 305.046857 138.510516 
L 307.385143 133.970997 
L 308.022857 133.220727 
L 308.448 132.936158 
L 308.873143 132.844531 
L 309.298286 132.955368 
L 309.723429 133.270658 
L 310.361143 134.112619 
L 310.998857 135.350561 
L 312.061714 138.057016 
L 314.4 144.340025 
L 315.250286 145.827896 
L 315.888 146.454289 
L 316.313143 146.61704 
L 316.738286 146.574334 
L 317.163429 146.333347 
L 317.801143 145.633681 
L 318.651429 144.196772 
L 321.627429 138.496873 
L 322.265143 137.941171 
L 322.690286 137.806873 
L 323.115429 137.874383 
L 323.540571 138.146319 
L 324.178286 138.924563 
L 324.816 140.102099 
L 325.666286 142.149209 
L 328.429714 149.299014 
L 329.067429 150.331177 
L 329.705143 150.939335 
L 330.130286 151.090356 
L 330.555429 151.035527 
L 330.980571 150.781406 
L 331.618286 150.058871 
L 332.468571 148.582957 
L 335.444571 142.646621 
L 336.082286 142.022903 
L 336.507429 141.841532 
L 336.932571 141.86129 
L 337.357714 142.085426 
L 337.995429 142.793241 
L 338.633143 143.903623 
L 339.483429 145.86915 
L 342.246857 152.83546 
L 342.884571 153.840549 
L 342.884571 153.840549 
" style="fill:none;stroke:#55a868;stroke-linecap:round;stroke-width:1.75;"/>
   </g>
   <g id="patch_3">
    <path d="M 54 252 
L 54 28.8 
" style="fill:none;"/>
   </g>
   <g id="patch_4">
    <path d="M 54 252 
L 388.8 252 
" style="fill:none;"/>
   </g>
   <g id="patch_5">
    <path d="M 54 28.8 
L 388.8 28.8 
" style="fill:none;"/>
   </g>
   <g id="patch_6">
    <path d="M 388.8 252 
L 388.8 28.8 
" style="fill:none;"/>
   </g>
   <g id="text_16">
    <!-- exp : 1, sin : 3 -->
    <defs>
     <path d="M 51.421875 26.65625 
Q 51.421875 20.65625 50.4375 15.578125 
Q 49.46875 10.5 47.1875 6.828125 
Q 44.921875 3.171875 41.1875 1.09375 
Q 37.453125 -0.984375 31.984375 -0.984375 
Q 26.3125 -0.984375 22.0625 1.171875 
Q 17.828125 3.328125 15.578125 8.203125 
L 15.328125 8.203125 
Q 15.375 8.109375 15.40625 7.328125 
Q 15.4375 6.546875 15.453125 5.375 
Q 15.484375 4.203125 15.5 2.75 
Q 15.53125 1.3125 15.53125 -0.09375 
L 15.53125 -20.75 
L 6.734375 -20.75 
L 6.734375 42.046875 
Q 6.734375 43.953125 6.703125 45.703125 
Q 6.6875 47.46875 6.640625 48.90625 
Q 6.59375 50.34375 6.546875 51.359375 
Q 6.5 52.390625 6.453125 52.828125 
L 14.9375 52.828125 
Q 14.984375 52.6875 15.0625 51.796875 
Q 15.140625 50.921875 15.203125 49.671875 
Q 15.28125 48.4375 15.359375 47.015625 
Q 15.4375 45.609375 15.4375 44.34375 
L 15.625 44.34375 
Q 16.84375 46.875 18.40625 48.65625 
Q 19.96875 50.4375 21.96875 51.578125 
Q 23.96875 52.734375 26.4375 53.25 
Q 28.90625 53.765625 31.984375 53.765625 
Q 37.453125 53.765625 41.1875 51.8125 
Q 44.921875 49.859375 47.1875 46.3125 
Q 49.46875 42.78125 50.4375 37.765625 
Q 51.421875 32.765625 51.421875 26.65625 
M 42.1875 26.46875 
Q 42.1875 31.34375 41.59375 35.15625 
Q 41.015625 38.96875 39.578125 41.59375 
Q 38.140625 44.234375 35.734375 45.59375 
Q 33.34375 46.96875 29.734375 46.96875 
Q 26.8125 46.96875 24.21875 46.140625 
Q 21.625 45.3125 19.703125 42.96875 
Q 17.78125 40.625 16.65625 36.5 
Q 15.53125 32.375 15.53125 25.78125 
Q 15.53125 20.171875 16.453125 16.28125 
Q 17.390625 12.40625 19.171875 10.015625 
Q 20.953125 7.625 23.578125 6.5625 
Q 26.21875 5.515625 29.640625 5.515625 
Q 33.296875 5.515625 35.71875 6.921875 
Q 38.140625 8.34375 39.578125 11.03125 
Q 41.015625 13.71875 41.59375 17.59375 
Q 42.1875 21.484375 42.1875 26.46875 
" id="LiberationSans-70"/>
     <path d="M 9.125 42.71875 
L 9.125 52.828125 
L 18.65625 52.828125 
L 18.65625 42.71875 
z
M 9.125 0 
L 9.125 10.109375 
L 18.65625 10.109375 
L 18.65625 0 
z
" id="LiberationSans-3a"/>
     <path d="M 18.796875 10.6875 
L 18.796875 2.484375 
Q 18.796875 -0.09375 18.578125 -2.21875 
Q 18.359375 -4.34375 17.875 -6.171875 
Q 17.390625 -8.015625 16.671875 -9.625 
Q 15.96875 -11.234375 14.984375 -12.796875 
L 8.984375 -12.796875 
Q 11.1875 -9.625 12.375 -6.390625 
Q 13.578125 -3.171875 13.578125 0 
L 9.28125 0 
L 9.28125 10.6875 
z
" id="LiberationSans-2c"/>
     <path d="M 13.484375 24.5625 
Q 13.484375 20.40625 14.328125 16.90625 
Q 15.1875 13.421875 16.96875 10.90625 
Q 18.75 8.40625 21.53125 7 
Q 24.3125 5.609375 28.21875 5.609375 
Q 33.9375 5.609375 37.375 7.90625 
Q 40.828125 10.203125 42.046875 13.71875 
L 49.75 11.53125 
Q 48.921875 9.328125 47.4375 7.109375 
Q 45.953125 4.890625 43.453125 3.09375 
Q 40.96875 1.3125 37.234375 0.15625 
Q 33.5 -0.984375 28.21875 -0.984375 
Q 16.5 -0.984375 10.375 6 
Q 4.25 12.984375 4.25 26.765625 
Q 4.25 34.1875 6.09375 39.328125 
Q 7.953125 44.484375 11.171875 47.703125 
Q 14.40625 50.921875 18.703125 52.359375 
Q 23 53.8125 27.875 53.8125 
Q 34.515625 53.8125 38.984375 51.65625 
Q 43.453125 49.515625 46.15625 45.71875 
Q 48.875 41.9375 50.015625 36.8125 
Q 51.171875 31.6875 51.171875 25.734375 
L 51.171875 24.5625 
z
M 42.09375 31.296875 
Q 41.359375 39.65625 37.84375 43.484375 
Q 34.328125 47.3125 27.734375 47.3125 
Q 25.53125 47.3125 23.109375 46.609375 
Q 20.703125 45.90625 18.65625 44.09375 
Q 16.609375 42.28125 15.1875 39.171875 
Q 13.765625 36.078125 13.578125 31.296875 
z
" id="LiberationSans-65"/>
     <path id="LiberationSans-20"/>
     <path d="M 39.109375 0 
L 24.90625 21.6875 
L 10.59375 0 
L 1.125 0 
L 19.921875 27.15625 
L 2 52.828125 
L 11.71875 52.828125 
L 24.90625 32.28125 
L 37.984375 52.828125 
L 47.796875 52.828125 
L 29.890625 27.25 
L 48.921875 0 
z
" id="LiberationSans-78"/>
     <path d="M 40.28125 0 
L 40.28125 33.5 
Q 40.28125 37.359375 39.71875 39.9375 
Q 39.15625 42.53125 37.890625 44.109375 
Q 36.625 45.703125 34.546875 46.359375 
Q 32.46875 47.015625 29.390625 47.015625 
Q 26.265625 47.015625 23.75 45.921875 
Q 21.234375 44.828125 19.453125 42.75 
Q 17.671875 40.671875 16.6875 37.625 
Q 15.71875 34.578125 15.71875 30.609375 
L 15.71875 0 
L 6.9375 0 
L 6.9375 41.546875 
Q 6.9375 43.21875 6.90625 45.046875 
Q 6.890625 46.875 6.828125 48.5 
Q 6.78125 50.140625 6.734375 51.3125 
Q 6.6875 52.484375 6.640625 52.828125 
L 14.9375 52.828125 
Q 14.984375 52.59375 15.03125 51.515625 
Q 15.09375 50.4375 15.15625 49.046875 
Q 15.234375 47.65625 15.28125 46.21875 
Q 15.328125 44.78125 15.328125 43.796875 
L 15.484375 43.796875 
Q 16.75 46.09375 18.265625 47.953125 
Q 19.78125 49.8125 21.78125 51.09375 
Q 23.78125 52.390625 26.359375 53.09375 
Q 28.953125 53.8125 32.375 53.8125 
Q 36.765625 53.8125 39.9375 52.734375 
Q 43.109375 51.65625 45.15625 49.40625 
Q 47.21875 47.171875 48.171875 43.625 
Q 49.125 40.09375 49.125 35.203125 
L 49.125 0 
z
" id="LiberationSans-6e"/>
     <path d="M 46.390625 14.59375 
Q 46.390625 10.890625 44.9375 7.984375 
Q 43.5 5.078125 40.765625 3.09375 
Q 38.03125 1.125 34.046875 0.0625 
Q 30.078125 -0.984375 24.953125 -0.984375 
Q 20.359375 -0.984375 16.671875 -0.265625 
Q 12.984375 0.4375 10.203125 2 
Q 7.421875 3.5625 5.53125 6.125 
Q 3.65625 8.6875 2.78125 12.40625 
L 10.546875 13.921875 
Q 11.671875 9.671875 15.1875 7.6875 
Q 18.703125 5.71875 24.953125 5.71875 
Q 27.78125 5.71875 30.140625 6.109375 
Q 32.515625 6.5 34.21875 7.453125 
Q 35.9375 8.40625 36.890625 9.984375 
Q 37.84375 11.578125 37.84375 13.921875 
Q 37.84375 16.3125 36.71875 17.84375 
Q 35.59375 19.390625 33.59375 20.40625 
Q 31.59375 21.4375 28.734375 22.1875 
Q 25.875 22.953125 22.46875 23.875 
Q 19.28125 24.703125 16.15625 25.734375 
Q 13.03125 26.765625 10.515625 28.4375 
Q 8.015625 30.125 6.453125 32.609375 
Q 4.890625 35.109375 4.890625 38.875 
Q 4.890625 46.09375 10.03125 49.875 
Q 15.1875 53.65625 25.046875 53.65625 
Q 33.796875 53.65625 38.9375 50.578125 
Q 44.09375 47.515625 45.453125 40.71875 
L 37.546875 39.75 
Q 37.109375 41.796875 35.9375 43.1875 
Q 34.765625 44.578125 33.109375 45.4375 
Q 31.453125 46.296875 29.375 46.65625 
Q 27.296875 47.015625 25.046875 47.015625 
Q 19.09375 47.015625 16.25 45.203125 
Q 13.421875 43.40625 13.421875 39.75 
Q 13.421875 37.59375 14.46875 36.203125 
Q 15.53125 34.8125 17.40625 33.859375 
Q 19.28125 32.90625 21.921875 32.203125 
Q 24.5625 31.5 27.734375 30.71875 
Q 29.828125 30.171875 32.03125 29.5625 
Q 34.234375 28.953125 36.296875 28.09375 
Q 38.375 27.25 40.203125 26.09375 
Q 42.046875 24.953125 43.40625 23.34375 
Q 44.78125 21.734375 45.578125 19.578125 
Q 46.390625 17.4375 46.390625 14.59375 
" id="LiberationSans-73"/>
     <path d="M 6.6875 64.0625 
L 6.6875 72.46875 
L 15.484375 72.46875 
L 15.484375 64.0625 
z
M 6.6875 0 
L 6.6875 52.828125 
L 15.484375 52.828125 
L 15.484375 0 
z
" id="LiberationSans-69"/>
    </defs>
    <g style="fill:#262626;" transform="translate(184.0490625 23.8)scale(0.12 -0.12)">
     <use xlink:href="#LiberationSans-65"/>
     <use x="55.615234375" xlink:href="#LiberationSans-78"/>
     <use x="105.615234375" xlink:href="#LiberationSans-70"/>
     <use x="161.23046875" xlink:href="#LiberationSans-20"/>
     <use x="189.013671875" xlink:href="#LiberationSans-3a"/>
     <use x="216.796875" xlink:href="#LiberationSans-20"/>
     <use x="244.580078125" xlink:href="#LiberationSans-31"/>
     <use x="300.1953125" xlink:href="#LiberationSans-2c"/>
     <use x="327.978515625" xlink:href="#LiberationSans-20"/>
     <use x="355.76171875" xlink:href="#LiberationSans-73"/>
     <use x="405.76171875" xlink:href="#LiberationSans-69"/>
     <use x="427.978515625" xlink:href="#LiberationSans-6e"/>
     <use x="483.59375" xlink:href="#LiberationSans-20"/>
     <use x="511.376953125" xlink:href="#LiberationSans-3a"/>
     <use x="539.16015625" xlink:href="#LiberationSans-20"/>
     <use x="566.943359375" xlink:href="#LiberationSans-33"/>
    </g>
   </g>
  </g>
 </g>
 <defs>
  <clipPath id="pef63422f6d">
   <rect height="223.2" width="334.8" x="54.0" y="28.8"/>
  </clipPath>
 </defs>
</svg>
