<?xml version="1.0" encoding="utf-8" standalone="no"?>
<!DOCTYPE svg PUBLIC "-//W3C//DTD SVG 1.1//EN"
  "http://www.w3.org/Graphics/SVG/1.1/DTD/svg11.dtd">
<!-- Created with matplotlib (http://matplotlib.org/) -->
<svg height="288pt" version="1.1" viewBox="0 0 432 288" width="432pt" xmlns="http://www.w3.org/2000/svg" xmlns:xlink="http://www.w3.org/1999/xlink">
 <defs>
  <style type="text/css">
*{stroke-linecap:butt;stroke-linejoin:round;stroke-miterlimit:100000;}
  </style>
 </defs>
 <g id="figure_1">
  <g id="patch_1">
   <path d="M 0 288 
L 432 288 
L 432 0 
L 0 0 
z
" style="fill:#ffffff;"/>
  </g>
  <g id="axes_1">
   <g id="patch_2">
    <path d="M 54 252 
L 388.8 252 
L 388.8 28.8 
L 54 28.8 
z
" style="fill:#eaeaf2;"/>
   </g>
   <g id="matplotlib.axis_1">
    <g id="xtick_1">
     <g id="line2d_1">
      <path clip-path="url(#pc02aea15af)" d="M 54 252 
L 54 28.8 
" style="fill:none;stroke:#ffffff;stroke-linecap:round;"/>
     </g>
     <g id="line2d_2"/>
     <g id="line2d_3"/>
     <g id="text_1">
      <!-- 0.00 -->
      <defs>
       <path d="M 51.703125 34.421875 
Q 51.703125 24.515625 49.828125 17.75 
Q 47.953125 10.984375 44.703125 6.8125 
Q 41.453125 2.640625 37.0625 0.828125 
Q 32.671875 -0.984375 27.6875 -0.984375 
Q 22.65625 -0.984375 18.3125 0.828125 
Q 13.96875 2.640625 10.765625 6.78125 
Q 7.5625 10.9375 5.734375 17.703125 
Q 3.90625 24.46875 3.90625 34.421875 
Q 3.90625 44.828125 5.734375 51.640625 
Q 7.5625 58.453125 10.78125 62.5 
Q 14.015625 66.546875 18.40625 68.1875 
Q 22.796875 69.828125 27.984375 69.828125 
Q 32.90625 69.828125 37.21875 68.1875 
Q 41.546875 66.546875 44.765625 62.5 
Q 48 58.453125 49.84375 51.640625 
Q 51.703125 44.828125 51.703125 34.421875 
M 42.78125 34.421875 
Q 42.78125 42.625 41.796875 48.0625 
Q 40.828125 53.515625 38.921875 56.765625 
Q 37.015625 60.015625 34.25 61.359375 
Q 31.5 62.703125 27.984375 62.703125 
Q 24.265625 62.703125 21.4375 61.328125 
Q 18.609375 59.96875 16.671875 56.71875 
Q 14.75 53.46875 13.765625 48.015625 
Q 12.796875 42.578125 12.796875 34.421875 
Q 12.796875 26.515625 13.796875 21.09375 
Q 14.796875 15.671875 16.71875 12.375 
Q 18.65625 9.078125 21.4375 7.640625 
Q 24.21875 6.203125 27.78125 6.203125 
Q 31.25 6.203125 34.03125 7.640625 
Q 36.8125 9.078125 38.734375 12.375 
Q 40.671875 15.671875 41.71875 21.09375 
Q 42.78125 26.515625 42.78125 34.421875 
" id="LiberationSans-30"/>
       <path d="M 9.125 0 
L 9.125 10.6875 
L 18.65625 10.6875 
L 18.65625 0 
z
" id="LiberationSans-2e"/>
      </defs>
      <g style="fill:#262626;" transform="translate(44.26953125 266.246875)scale(0.1 -0.1)">
       <use xlink:href="#LiberationSans-30"/>
       <use x="55.615234375" xlink:href="#LiberationSans-2e"/>
       <use x="83.3984375" xlink:href="#LiberationSans-30"/>
       <use x="139.013671875" xlink:href="#LiberationSans-30"/>
      </g>
     </g>
    </g>
    <g id="xtick_2">
     <g id="line2d_4">
      <path clip-path="url(#pc02aea15af)" d="M 101.828571 252 
L 101.828571 28.8 
" style="fill:none;stroke:#ffffff;stroke-linecap:round;"/>
     </g>
     <g id="line2d_5"/>
     <g id="line2d_6"/>
     <g id="text_2">
      <!-- 0.01 -->
      <defs>
       <path d="M 7.625 0 
L 7.625 7.46875 
L 25.140625 7.46875 
L 25.140625 60.40625 
L 9.625 49.3125 
L 9.625 57.625 
L 25.875 68.796875 
L 33.984375 68.796875 
L 33.984375 7.46875 
L 50.734375 7.46875 
L 50.734375 0 
z
" id="LiberationSans-31"/>
      </defs>
      <g style="fill:#262626;" transform="translate(92.0981026786 266.246875)scale(0.1 -0.1)">
       <use xlink:href="#LiberationSans-30"/>
       <use x="55.615234375" xlink:href="#LiberationSans-2e"/>
       <use x="83.3984375" xlink:href="#LiberationSans-30"/>
       <use x="139.013671875" xlink:href="#LiberationSans-31"/>
      </g>
     </g>
    </g>
    <g id="xtick_3">
     <g id="line2d_7">
      <path clip-path="url(#pc02aea15af)" d="M 149.657143 252 
L 149.657143 28.8 
" style="fill:none;stroke:#ffffff;stroke-linecap:round;"/>
     </g>
     <g id="line2d_8"/>
     <g id="line2d_9"/>
     <g id="text_3">
      <!-- 0.02 -->
      <defs>
       <path d="M 5.03125 0 
L 5.03125 6.203125 
Q 7.515625 11.921875 11.109375 16.28125 
Q 14.703125 20.65625 18.65625 24.1875 
Q 22.609375 27.734375 26.484375 30.765625 
Q 30.375 33.796875 33.5 36.8125 
Q 36.625 39.84375 38.546875 43.15625 
Q 40.484375 46.484375 40.484375 50.6875 
Q 40.484375 53.609375 39.59375 55.828125 
Q 38.71875 58.0625 37.0625 59.5625 
Q 35.40625 61.078125 33.078125 61.828125 
Q 30.765625 62.59375 27.9375 62.59375 
Q 25.296875 62.59375 22.96875 61.859375 
Q 20.65625 61.140625 18.84375 59.671875 
Q 17.046875 58.203125 15.890625 56.03125 
Q 14.75 53.859375 14.40625 50.984375 
L 5.421875 51.8125 
Q 5.859375 55.515625 7.46875 58.78125 
Q 9.078125 62.0625 11.90625 64.53125 
Q 14.75 67 18.71875 68.40625 
Q 22.703125 69.828125 27.9375 69.828125 
Q 33.0625 69.828125 37.0625 68.609375 
Q 41.0625 67.390625 43.8125 64.984375 
Q 46.578125 62.59375 48.046875 59.078125 
Q 49.515625 55.5625 49.515625 50.984375 
Q 49.515625 47.515625 48.265625 44.390625 
Q 47.015625 41.265625 44.9375 38.421875 
Q 42.875 35.59375 40.140625 32.953125 
Q 37.40625 30.328125 34.421875 27.8125 
Q 31.453125 25.296875 28.421875 22.828125 
Q 25.390625 20.359375 22.71875 17.859375 
Q 20.0625 15.375 17.96875 12.8125 
Q 15.875 10.25 14.703125 7.46875 
L 50.59375 7.46875 
L 50.59375 0 
z
" id="LiberationSans-32"/>
      </defs>
      <g style="fill:#262626;" transform="translate(139.926674107 266.246875)scale(0.1 -0.1)">
       <use xlink:href="#LiberationSans-30"/>
       <use x="55.615234375" xlink:href="#LiberationSans-2e"/>
       <use x="83.3984375" xlink:href="#LiberationSans-30"/>
       <use x="139.013671875" xlink:href="#LiberationSans-32"/>
      </g>
     </g>
    </g>
    <g id="xtick_4">
     <g id="line2d_10">
      <path clip-path="url(#pc02aea15af)" d="M 197.485714 252 
L 197.485714 28.8 
" style="fill:none;stroke:#ffffff;stroke-linecap:round;"/>
     </g>
     <g id="line2d_11"/>
     <g id="line2d_12"/>
     <g id="text_4">
      <!-- 0.03 -->
      <defs>
       <path d="M 51.21875 19 
Q 51.21875 14.265625 49.671875 10.546875 
Q 48.140625 6.84375 45.1875 4.265625 
Q 42.234375 1.703125 37.859375 0.359375 
Q 33.5 -0.984375 27.875 -0.984375 
Q 21.484375 -0.984375 17.109375 0.609375 
Q 12.75 2.203125 9.90625 4.8125 
Q 7.078125 7.421875 5.65625 10.765625 
Q 4.25 14.109375 3.8125 17.671875 
L 12.890625 18.5 
Q 13.28125 15.765625 14.328125 13.515625 
Q 15.375 11.28125 17.1875 9.671875 
Q 19 8.0625 21.625 7.171875 
Q 24.265625 6.296875 27.875 6.296875 
Q 34.515625 6.296875 38.296875 9.5625 
Q 42.09375 12.84375 42.09375 19.28125 
Q 42.09375 23.09375 40.40625 25.40625 
Q 38.71875 27.734375 36.203125 29.03125 
Q 33.6875 30.328125 30.734375 30.765625 
Q 27.78125 31.203125 25.296875 31.203125 
L 20.3125 31.203125 
L 20.3125 38.8125 
L 25.09375 38.8125 
Q 27.59375 38.8125 30.265625 39.328125 
Q 32.953125 39.84375 35.171875 41.1875 
Q 37.40625 42.53125 38.84375 44.828125 
Q 40.28125 47.125 40.28125 50.6875 
Q 40.28125 56.203125 37.03125 59.390625 
Q 33.796875 62.59375 27.390625 62.59375 
Q 21.578125 62.59375 17.984375 59.609375 
Q 14.40625 56.640625 13.8125 51.21875 
L 4.984375 51.90625 
Q 5.515625 56.453125 7.46875 59.8125 
Q 9.421875 63.1875 12.421875 65.40625 
Q 15.4375 67.625 19.28125 68.71875 
Q 23.140625 69.828125 27.484375 69.828125 
Q 33.25 69.828125 37.390625 68.375 
Q 41.546875 66.9375 44.1875 64.46875 
Q 46.828125 62.015625 48.0625 58.6875 
Q 49.3125 55.375 49.3125 51.609375 
Q 49.3125 48.578125 48.484375 45.9375 
Q 47.65625 43.3125 45.890625 41.203125 
Q 44.140625 39.109375 41.421875 37.59375 
Q 38.71875 36.078125 34.90625 35.296875 
L 34.90625 35.109375 
Q 39.0625 34.671875 42.140625 33.21875 
Q 45.21875 31.78125 47.21875 29.625 
Q 49.21875 27.484375 50.21875 24.75 
Q 51.21875 22.015625 51.21875 19 
" id="LiberationSans-33"/>
      </defs>
      <g style="fill:#262626;" transform="translate(187.755245536 266.246875)scale(0.1 -0.1)">
       <use xlink:href="#LiberationSans-30"/>
       <use x="55.615234375" xlink:href="#LiberationSans-2e"/>
       <use x="83.3984375" xlink:href="#LiberationSans-30"/>
       <use x="139.013671875" xlink:href="#LiberationSans-33"/>
      </g>
     </g>
    </g>
    <g id="xtick_5">
     <g id="line2d_13">
      <path clip-path="url(#pc02aea15af)" d="M 245.314286 252 
L 245.314286 28.8 
" style="fill:none;stroke:#ffffff;stroke-linecap:round;"/>
     </g>
     <g id="line2d_14"/>
     <g id="line2d_15"/>
     <g id="text_5">
      <!-- 0.04 -->
      <defs>
       <path d="M 43.015625 15.578125 
L 43.015625 0 
L 34.71875 0 
L 34.71875 15.578125 
L 2.296875 15.578125 
L 2.296875 22.40625 
L 33.796875 68.796875 
L 43.015625 68.796875 
L 43.015625 22.515625 
L 52.6875 22.515625 
L 52.6875 15.578125 
z
M 34.71875 58.890625 
Q 34.625 58.640625 34.234375 57.9375 
Q 33.84375 57.234375 33.34375 56.34375 
Q 32.859375 55.46875 32.34375 54.5625 
Q 31.84375 53.65625 31.453125 53.078125 
L 13.8125 27.09375 
Q 13.578125 26.703125 13.109375 26.0625 
Q 12.640625 25.4375 12.15625 24.78125 
Q 11.671875 24.125 11.171875 23.484375 
Q 10.6875 22.859375 10.40625 22.515625 
L 34.71875 22.515625 
z
" id="LiberationSans-34"/>
      </defs>
      <g style="fill:#262626;" transform="translate(235.583816964 266.246875)scale(0.1 -0.1)">
       <use xlink:href="#LiberationSans-30"/>
       <use x="55.615234375" xlink:href="#LiberationSans-2e"/>
       <use x="83.3984375" xlink:href="#LiberationSans-30"/>
       <use x="139.013671875" xlink:href="#LiberationSans-34"/>
      </g>
     </g>
    </g>
    <g id="xtick_6">
     <g id="line2d_16">
      <path clip-path="url(#pc02aea15af)" d="M 293.142857 252 
L 293.142857 28.8 
" style="fill:none;stroke:#ffffff;stroke-linecap:round;"/>
     </g>
     <g id="line2d_17"/>
     <g id="line2d_18"/>
     <g id="text_6">
      <!-- 0.05 -->
      <defs>
       <path d="M 51.421875 22.40625 
Q 51.421875 17.234375 49.859375 12.9375 
Q 48.296875 8.640625 45.21875 5.53125 
Q 42.140625 2.4375 37.578125 0.71875 
Q 33.015625 -0.984375 27 -0.984375 
Q 21.578125 -0.984375 17.546875 0.28125 
Q 13.53125 1.5625 10.734375 3.78125 
Q 7.953125 6 6.3125 8.984375 
Q 4.6875 11.96875 4 15.375 
L 12.890625 16.40625 
Q 13.421875 14.453125 14.390625 12.625 
Q 15.375 10.796875 17.0625 9.34375 
Q 18.75 7.90625 21.21875 7.046875 
Q 23.6875 6.203125 27.203125 6.203125 
Q 30.609375 6.203125 33.390625 7.25 
Q 36.1875 8.296875 38.15625 10.34375 
Q 40.140625 12.40625 41.203125 15.375 
Q 42.28125 18.359375 42.28125 22.21875 
Q 42.28125 25.390625 41.25 28.046875 
Q 40.234375 30.71875 38.328125 32.640625 
Q 36.421875 34.578125 33.65625 35.640625 
Q 30.90625 36.71875 27.390625 36.71875 
Q 25.203125 36.71875 23.34375 36.328125 
Q 21.484375 35.9375 19.890625 35.25 
Q 18.3125 34.578125 17.015625 33.671875 
Q 15.71875 32.765625 14.59375 31.78125 
L 6 31.78125 
L 8.296875 68.796875 
L 47.40625 68.796875 
L 47.40625 61.328125 
L 16.3125 61.328125 
L 14.984375 39.5 
Q 17.328125 41.3125 20.84375 42.59375 
Q 24.359375 43.890625 29.203125 43.890625 
Q 34.328125 43.890625 38.421875 42.328125 
Q 42.53125 40.765625 45.40625 37.90625 
Q 48.296875 35.0625 49.859375 31.109375 
Q 51.421875 27.15625 51.421875 22.40625 
" id="LiberationSans-35"/>
      </defs>
      <g style="fill:#262626;" transform="translate(283.412388393 266.246875)scale(0.1 -0.1)">
       <use xlink:href="#LiberationSans-30"/>
       <use x="55.615234375" xlink:href="#LiberationSans-2e"/>
       <use x="83.3984375" xlink:href="#LiberationSans-30"/>
       <use x="139.013671875" xlink:href="#LiberationSans-35"/>
      </g>
     </g>
    </g>
    <g id="xtick_7">
     <g id="line2d_19">
      <path clip-path="url(#pc02aea15af)" d="M 340.971429 252 
L 340.971429 28.8 
" style="fill:none;stroke:#ffffff;stroke-linecap:round;"/>
     </g>
     <g id="line2d_20"/>
     <g id="line2d_21"/>
     <g id="text_7">
      <!-- 0.06 -->
      <defs>
       <path d="M 51.21875 22.515625 
Q 51.21875 17.328125 49.78125 13 
Q 48.34375 8.6875 45.53125 5.578125 
Q 42.71875 2.484375 38.5625 0.75 
Q 34.421875 -0.984375 29 -0.984375 
Q 23 -0.984375 18.5 1.3125 
Q 14.015625 3.609375 11.03125 7.921875 
Q 8.0625 12.25 6.5625 18.53125 
Q 5.078125 24.8125 5.078125 32.8125 
Q 5.078125 42 6.765625 48.921875 
Q 8.453125 55.859375 11.625 60.5 
Q 14.796875 65.140625 19.359375 67.484375 
Q 23.921875 69.828125 29.6875 69.828125 
Q 33.203125 69.828125 36.28125 69.09375 
Q 39.359375 68.359375 41.875 66.71875 
Q 44.390625 65.09375 46.28125 62.40625 
Q 48.1875 59.71875 49.3125 55.8125 
L 40.921875 54.296875 
Q 39.546875 58.734375 36.546875 60.71875 
Q 33.546875 62.703125 29.59375 62.703125 
Q 25.984375 62.703125 23.046875 60.984375 
Q 20.125 59.28125 18.0625 55.875 
Q 16.015625 52.484375 14.90625 47.359375 
Q 13.8125 42.234375 13.8125 35.40625 
Q 16.21875 39.84375 20.5625 42.15625 
Q 24.90625 44.484375 30.515625 44.484375 
Q 35.203125 44.484375 39.015625 42.96875 
Q 42.828125 41.453125 45.53125 38.59375 
Q 48.25 35.75 49.734375 31.671875 
Q 51.21875 27.59375 51.21875 22.515625 
M 42.28125 22.125 
Q 42.28125 25.6875 41.40625 28.5625 
Q 40.53125 31.453125 38.765625 33.46875 
Q 37.015625 35.5 34.421875 36.59375 
Q 31.84375 37.703125 28.421875 37.703125 
Q 26.03125 37.703125 23.578125 36.984375 
Q 21.140625 36.28125 19.15625 34.6875 
Q 17.1875 33.109375 15.9375 30.515625 
Q 14.703125 27.9375 14.703125 24.21875 
Q 14.703125 20.40625 15.671875 17.109375 
Q 16.65625 13.8125 18.484375 11.375 
Q 20.3125 8.9375 22.890625 7.515625 
Q 25.484375 6.109375 28.71875 6.109375 
Q 31.890625 6.109375 34.40625 7.203125 
Q 36.921875 8.296875 38.671875 10.375 
Q 40.4375 12.453125 41.359375 15.421875 
Q 42.28125 18.40625 42.28125 22.125 
" id="LiberationSans-36"/>
      </defs>
      <g style="fill:#262626;" transform="translate(331.240959821 266.246875)scale(0.1 -0.1)">
       <use xlink:href="#LiberationSans-30"/>
       <use x="55.615234375" xlink:href="#LiberationSans-2e"/>
       <use x="83.3984375" xlink:href="#LiberationSans-30"/>
       <use x="139.013671875" xlink:href="#LiberationSans-36"/>
      </g>
     </g>
    </g>
    <g id="xtick_8">
     <g id="line2d_22">
      <path clip-path="url(#pc02aea15af)" d="M 388.8 252 
L 388.8 28.8 
" style="fill:none;stroke:#ffffff;stroke-linecap:round;"/>
     </g>
     <g id="line2d_23"/>
     <g id="line2d_24"/>
     <g id="text_8">
      <!-- 0.07 -->
      <defs>
       <path d="M 50.59375 61.671875 
Q 45.40625 53.765625 41.0625 46.453125 
Q 36.71875 39.15625 33.59375 31.75 
Q 30.46875 24.359375 28.734375 16.578125 
Q 27 8.796875 27 0 
L 17.828125 0 
Q 17.828125 8.25 19.78125 16.1875 
Q 21.734375 24.125 25.046875 31.765625 
Q 28.375 39.40625 32.765625 46.78125 
Q 37.15625 54.15625 42.09375 61.328125 
L 5.125 61.328125 
L 5.125 68.796875 
L 50.59375 68.796875 
z
" id="LiberationSans-37"/>
      </defs>
      <g style="fill:#262626;" transform="translate(379.06953125 266.246875)scale(0.1 -0.1)">
       <use xlink:href="#LiberationSans-30"/>
       <use x="55.615234375" xlink:href="#LiberationSans-2e"/>
       <use x="83.3984375" xlink:href="#LiberationSans-30"/>
       <use x="139.013671875" xlink:href="#LiberationSans-37"/>
      </g>
     </g>
    </g>
   </g>
   <g id="matplotlib.axis_2">
    <g id="ytick_1">
     <g id="line2d_25">
      <path clip-path="url(#pc02aea15af)" d="M 54 252 
L 388.8 252 
" style="fill:none;stroke:#ffffff;stroke-linecap:round;"/>
     </g>
     <g id="line2d_26"/>
     <g id="line2d_27"/>
     <g id="text_9">
      <!-- 0 -->
      <g style="fill:#262626;" transform="translate(41.4390625 254.5859375)scale(0.1 -0.1)">
       <use xlink:href="#LiberationSans-30"/>
      </g>
     </g>
    </g>
    <g id="ytick_2">
     <g id="line2d_28">
      <path clip-path="url(#pc02aea15af)" d="M 54 207.36 
L 388.8 207.36 
" style="fill:none;stroke:#ffffff;stroke-linecap:round;"/>
     </g>
     <g id="line2d_29"/>
     <g id="line2d_30"/>
     <g id="text_10">
      <!-- 2 -->
      <g style="fill:#262626;" transform="translate(41.4390625 209.9459375)scale(0.1 -0.1)">
       <use xlink:href="#LiberationSans-32"/>
      </g>
     </g>
    </g>
    <g id="ytick_3">
     <g id="line2d_31">
      <path clip-path="url(#pc02aea15af)" d="M 54 162.72 
L 388.8 162.72 
" style="fill:none;stroke:#ffffff;stroke-linecap:round;"/>
     </g>
     <g id="line2d_32"/>
     <g id="line2d_33"/>
     <g id="text_11">
      <!-- 4 -->
      <g style="fill:#262626;" transform="translate(41.4390625 165.3059375)scale(0.1 -0.1)">
       <use xlink:href="#LiberationSans-34"/>
      </g>
     </g>
    </g>
    <g id="ytick_4">
     <g id="line2d_34">
      <path clip-path="url(#pc02aea15af)" d="M 54 118.08 
L 388.8 118.08 
" style="fill:none;stroke:#ffffff;stroke-linecap:round;"/>
     </g>
     <g id="line2d_35"/>
     <g id="line2d_36"/>
     <g id="text_12">
      <!-- 6 -->
      <g style="fill:#262626;" transform="translate(41.4390625 120.6659375)scale(0.1 -0.1)">
       <use xlink:href="#LiberationSans-36"/>
      </g>
     </g>
    </g>
    <g id="ytick_5">
     <g id="line2d_37">
      <path clip-path="url(#pc02aea15af)" d="M 54 73.44 
L 388.8 73.44 
" style="fill:none;stroke:#ffffff;stroke-linecap:round;"/>
     </g>
     <g id="line2d_38"/>
     <g id="line2d_39"/>
     <g id="text_13">
      <!-- 8 -->
      <defs>
       <path d="M 51.265625 19.1875 
Q 51.265625 14.796875 49.875 11.109375 
Q 48.484375 7.421875 45.625 4.734375 
Q 42.78125 2.046875 38.328125 0.53125 
Q 33.890625 -0.984375 27.828125 -0.984375 
Q 21.78125 -0.984375 17.359375 0.53125 
Q 12.9375 2.046875 10.03125 4.703125 
Q 7.125 7.375 5.734375 11.0625 
Q 4.34375 14.75 4.34375 19.09375 
Q 4.34375 22.859375 5.484375 25.78125 
Q 6.640625 28.71875 8.5625 30.828125 
Q 10.5 32.953125 12.96875 34.25 
Q 15.4375 35.546875 18.0625 35.984375 
L 18.0625 36.1875 
Q 15.1875 36.859375 12.90625 38.375 
Q 10.640625 39.890625 9.09375 42.015625 
Q 7.5625 44.140625 6.75 46.71875 
Q 5.953125 49.3125 5.953125 52.203125 
Q 5.953125 55.8125 7.34375 59 
Q 8.734375 62.203125 11.46875 64.625 
Q 14.203125 67.046875 18.25 68.4375 
Q 22.3125 69.828125 27.640625 69.828125 
Q 33.25 69.828125 37.375 68.40625 
Q 41.5 67 44.203125 64.578125 
Q 46.921875 62.15625 48.234375 58.9375 
Q 49.5625 55.71875 49.5625 52.09375 
Q 49.5625 49.265625 48.75 46.671875 
Q 47.953125 44.09375 46.40625 41.96875 
Q 44.875 39.84375 42.59375 38.34375 
Q 40.328125 36.859375 37.359375 36.28125 
L 37.359375 36.078125 
Q 40.328125 35.59375 42.859375 34.296875 
Q 45.40625 33.015625 47.265625 30.890625 
Q 49.125 28.765625 50.1875 25.828125 
Q 51.265625 22.90625 51.265625 19.1875 
M 40.4375 51.609375 
Q 40.4375 54.203125 39.765625 56.34375 
Q 39.109375 58.5 37.59375 60.03125 
Q 36.078125 61.578125 33.640625 62.421875 
Q 31.203125 63.28125 27.640625 63.28125 
Q 24.171875 63.28125 21.78125 62.421875 
Q 19.390625 61.578125 17.84375 60.03125 
Q 16.3125 58.5 15.625 56.34375 
Q 14.9375 54.203125 14.9375 51.609375 
Q 14.9375 49.5625 15.46875 47.40625 
Q 16.015625 45.265625 17.421875 43.5 
Q 18.84375 41.75 21.328125 40.625 
Q 23.828125 39.5 27.734375 39.5 
Q 31.890625 39.5 34.40625 40.625 
Q 36.921875 41.75 38.25 43.5 
Q 39.59375 45.265625 40.015625 47.40625 
Q 40.4375 49.5625 40.4375 51.609375 
M 42.140625 20.015625 
Q 42.140625 22.515625 41.453125 24.828125 
Q 40.765625 27.15625 39.109375 28.9375 
Q 37.453125 30.71875 34.640625 31.8125 
Q 31.84375 32.90625 27.640625 32.90625 
Q 23.78125 32.90625 21.0625 31.8125 
Q 18.359375 30.71875 16.671875 28.90625 
Q 14.984375 27.09375 14.203125 24.71875 
Q 13.421875 22.359375 13.421875 19.828125 
Q 13.421875 16.65625 14.203125 14.03125 
Q 14.984375 11.421875 16.6875 9.546875 
Q 18.40625 7.671875 21.1875 6.640625 
Q 23.96875 5.609375 27.9375 5.609375 
Q 31.9375 5.609375 34.671875 6.640625 
Q 37.40625 7.671875 39.0625 9.546875 
Q 40.71875 11.421875 41.421875 14.078125 
Q 42.140625 16.75 42.140625 20.015625 
" id="LiberationSans-38"/>
      </defs>
      <g style="fill:#262626;" transform="translate(41.4390625 76.0259375)scale(0.1 -0.1)">
       <use xlink:href="#LiberationSans-38"/>
      </g>
     </g>
    </g>
    <g id="ytick_6">
     <g id="line2d_40">
      <path clip-path="url(#pc02aea15af)" d="M 54 28.8 
L 388.8 28.8 
" style="fill:none;stroke:#ffffff;stroke-linecap:round;"/>
     </g>
     <g id="line2d_41"/>
     <g id="line2d_42"/>
     <g id="text_14">
      <!-- 10 -->
      <g style="fill:#262626;" transform="translate(35.878125 31.3859375)scale(0.1 -0.1)">
       <use xlink:href="#LiberationSans-31"/>
       <use x="55.615234375" xlink:href="#LiberationSans-30"/>
      </g>
     </g>
    </g>
   </g>
   <g id="line2d_43">
    <path clip-path="url(#pc02aea15af)" d="M 54 251.790821 
L 54.425143 249.977518 
L 54.850286 247.989877 
L 55.488 246.243984 
L 56.338286 242.632542 
L 56.763429 241.36856 
L 56.976 241.106992 
L 57.188571 241.305684 
L 57.401143 241.104581 
L 57.826286 239.497742 
L 58.889143 232.561289 
L 59.101714 232.847498 
L 59.314286 232.928096 
L 59.739429 232.831205 
L 60.164571 233.40648 
L 61.014857 234.662561 
L 61.227429 233.974859 
L 62.077714 227.606249 
L 62.290286 228.072737 
L 62.502857 227.598214 
L 62.928 225.192787 
L 63.778286 216.982375 
L 64.203429 217.317622 
L 64.628571 216.428616 
L 64.841143 216.437544 
L 65.053714 217.113617 
L 65.266286 217.131696 
L 65.691429 215.687369 
L 65.904 215.630676 
L 66.116571 216.034668 
L 66.329143 215.034062 
L 67.179429 206.92967 
L 67.392 206.861148 
L 67.604571 207.545926 
L 67.817143 206.786599 
L 68.667429 198.826841 
L 68.88 199.175256 
L 69.092571 199.93927 
L 69.305143 199.853338 
L 69.517714 199.522332 
L 69.730286 199.428811 
L 70.155429 200.714443 
L 70.368 200.503073 
L 70.580571 200.040826 
L 70.793143 199.86115 
L 71.218286 201.274452 
L 71.430857 200.930054 
L 71.856 197.783604 
L 72.493714 192.485282 
L 72.706286 191.70743 
L 73.131429 192.859366 
L 73.556571 191.030688 
L 73.769143 190.105078 
L 73.981714 189.753984 
L 74.194286 190.050617 
L 74.832 192.849991 
L 75.044571 193.086137 
L 75.469714 192.500014 
L 75.894857 192.056962 
L 76.107429 192.335962 
L 76.32 193.497494 
L 76.532571 194.01197 
L 76.745143 193.646146 
L 76.957714 192.708482 
L 77.170286 191.089836 
L 77.595429 185.278378 
L 78.020571 179.604634 
L 78.233143 178.990834 
L 78.445714 180.453686 
L 78.658286 180.116654 
L 79.508571 173.076703 
L 79.721143 172.780517 
L 79.933714 172.695701 
L 80.146286 173.049919 
L 80.571429 175.272098 
L 80.784 175.519627 
L 80.996571 175.541501 
L 81.209143 176.010667 
L 81.421714 177.057698 
L 81.846857 179.484106 
L 82.059429 179.528746 
L 82.484571 179.008466 
L 82.697143 179.512006 
L 83.122286 181.639771 
L 83.334857 181.236672 
L 83.547429 179.804174 
L 84.397714 169.872444 
L 84.610286 169.792315 
L 84.822857 171.044914 
L 85.035429 169.805261 
L 85.673143 162.170035 
L 86.098286 160.159673 
L 86.310857 160.187573 
L 86.948571 162.869544 
L 87.373714 161.120326 
L 87.586286 161.010065 
L 88.011429 163.403885 
L 88.224 162.92021 
L 88.649143 158.587452 
L 89.074286 154.509588 
L 89.286857 154.884787 
L 89.499429 156.377549 
L 89.712 155.294136 
L 90.137143 147.922956 
L 90.774857 133.773862 
L 90.987429 131.932238 
L 91.2 133.598873 
L 91.412571 133.51428 
L 92.262857 121.848509 
L 92.475429 121.764362 
L 92.688 123.006024 
L 93.325714 129.461414 
L 93.538286 130.215607 
L 93.963429 130.574959 
L 94.176 131.48383 
L 94.813714 136.657382 
L 95.026286 136.819872 
L 95.238857 136.099382 
L 95.876571 131.354374 
L 96.089143 131.397005 
L 96.301714 133.468524 
L 96.514286 134.416231 
L 96.726857 133.306258 
L 98.214857 116.642369 
L 98.64 118.282442 
L 99.277714 108.958932 
L 99.490286 108.67145 
L 99.915429 111.826382 
L 100.340571 115.735284 
L 100.765714 120.800362 
L 101.190857 124.594985 
L 102.041143 134.567114 
L 103.104 144.362246 
L 103.529143 145.897416 
L 103.741714 145.896746 
L 103.954286 145.771978 
L 104.166857 146.125526 
L 104.379429 147.373884 
L 104.804571 151.402198 
L 105.017143 152.554133 
L 105.229714 152.790725 
L 105.442286 151.621603 
L 105.654857 148.623134 
L 106.08 137.482999 
L 106.505143 127.624255 
L 106.717714 127.958832 
L 106.930286 128.818822 
L 107.355429 122.989284 
L 107.780571 117.6057 
L 108.205714 115.269689 
L 108.418286 114.611918 
L 108.630857 114.443626 
L 108.843429 115.164115 
L 109.268571 119.534148 
L 109.481143 120.229193 
L 109.693714 120.212006 
L 110.118857 119.868725 
L 110.331429 119.796185 
L 110.544 120.163126 
L 110.756571 121.44407 
L 111.181714 125.76433 
L 111.394286 126.266083 
L 111.606857 126.240638 
L 111.819429 126.055606 
L 112.244571 125.17709 
L 112.669714 123.464254 
L 112.882286 123.071422 
L 113.094857 123.923822 
L 113.307429 126.513166 
L 113.52 127.642558 
L 113.732571 127.184551 
L 114.582857 121.831769 
L 115.008 115.997767 
L 115.858286 100.342742 
L 116.070857 102.542378 
L 116.283429 101.758277 
L 116.708571 88.401096 
L 117.133714 75.600353 
L 117.346286 73.12819 
L 117.558857 73.028642 
L 117.771429 74.961108 
L 117.984 78.853716 
L 118.196571 80.226619 
L 118.409143 79.364398 
L 118.834286 75.986712 
L 119.046857 76.152103 
L 119.259429 78.173626 
L 119.684571 84.702895 
L 119.897143 86.512824 
L 120.109714 87.246036 
L 120.322286 87.225278 
L 120.534857 87.065244 
L 120.747429 87.37326 
L 120.96 88.614698 
L 121.385143 94.419684 
L 122.660571 109.690805 
L 123.085714 112.345769 
L 123.723429 118.327306 
L 123.936 118.473055 
L 124.361143 117.826445 
L 124.573714 118.273068 
L 124.786286 119.806898 
L 125.424 126.655567 
L 125.636571 127.016258 
L 125.849143 125.626392 
L 126.274286 116.987213 
L 126.486857 111.983292 
L 126.699429 110.182291 
L 126.912 112.745966 
L 127.124571 109.547287 
L 127.762286 93.431578 
L 127.974857 92.27183 
L 128.187429 92.726266 
L 128.4 93.918154 
L 128.825143 98.557589 
L 129.250286 103.138546 
L 129.675429 106.291915 
L 131.376 124.788722 
L 131.801143 126.174794 
L 132.013714 127.72291 
L 132.438857 132.294938 
L 132.864 135.81257 
L 133.926857 146.960294 
L 134.139429 147.94483 
L 134.352 147.685471 
L 134.564571 147.067207 
L 134.777143 147.282595 
L 134.989714 149.526425 
L 135.202286 149.772614 
L 135.627429 147.799526 
L 135.84 148.083883 
L 136.265143 151.849937 
L 136.690286 154.817158 
L 137.115429 157.16723 
L 137.328 158.93743 
L 137.540571 159.21509 
L 137.753143 157.918522 
L 137.965714 154.516061 
L 138.390857 138.689172 
L 138.816 124.968175 
L 139.028571 126.892159 
L 139.241143 121.130251 
L 139.666286 103.965278 
L 140.091429 95.940346 
L 140.516571 92.800368 
L 140.729143 93.936679 
L 140.941714 96.840958 
L 141.154286 96.994296 
L 141.579429 94.90626 
L 141.792 95.315832 
L 142.004571 97.17732 
L 142.642286 105.358939 
L 142.854857 105.995952 
L 143.067429 105.264972 
L 143.28 103.900774 
L 143.492571 103.402145 
L 143.705143 104.70407 
L 144.130286 109.978286 
L 144.555429 112.34934 
L 144.768 112.574995 
L 145.193143 111.894905 
L 145.405714 112.308271 
L 145.618286 113.83429 
L 146.043429 118.974586 
L 146.256 119.909794 
L 146.468571 118.691791 
L 146.893714 113.633633 
L 147.106286 114.172661 
L 147.318857 116.475638 
L 147.531429 116.424972 
L 147.744 115.973215 
L 147.956571 116.153561 
L 148.169143 117.340315 
L 148.594286 121.371754 
L 148.806857 121.147214 
L 149.019429 120.735634 
L 149.232 121.711018 
L 149.444571 124.613734 
L 149.657143 125.918338 
L 149.869714 125.787319 
L 150.082286 123.994577 
L 150.507429 114.9831 
L 151.357714 85.976251 
L 151.570286 88.611574 
L 151.782857 84.295109 
L 152.633143 45.33845 
L 152.845714 43.35331 
L 153.058286 44.816609 
L 153.270857 49.287082 
L 153.483429 50.357995 
L 153.696 48.902285 
L 154.121143 44.568634 
L 154.333714 45.008338 
L 155.184 56.756023 
L 155.396571 57.426293 
L 155.609143 56.67143 
L 155.821714 55.333793 
L 156.034286 54.75749 
L 156.246857 56.02549 
L 156.884571 64.632082 
L 158.372571 69.016399 
L 159.010286 76.06818 
L 159.222857 76.009255 
L 159.435429 75.660394 
L 159.648 75.672223 
L 159.860571 76.236026 
L 160.073143 77.418986 
L 160.285714 79.471087 
L 160.710857 85.418698 
L 161.136 87.477941 
L 161.561143 92.449274 
L 161.986286 94.863629 
L 162.198857 98.281044 
L 162.411429 99.79925 
L 162.836571 100.663481 
L 163.049143 100.494072 
L 163.261714 99.336557 
L 163.686857 96.02717 
L 163.899429 94.899341 
L 164.112 92.876256 
L 164.537143 85.369147 
L 164.749714 85.304419 
L 164.962286 86.028257 
L 165.174857 79.768836 
L 165.812571 52.050298 
L 166.025143 49.720982 
L 166.662857 55.91813 
L 167.088 55.952503 
L 167.300571 56.452248 
L 167.513143 57.959071 
L 167.938286 64.669356 
L 168.363429 71.243935 
L 168.576 72.802541 
L 168.788571 72.947844 
L 169.213714 71.77225 
L 169.426286 72.231149 
L 169.638857 74.310926 
L 170.064 80.425714 
L 170.276571 81.369403 
L 170.489143 81.710676 
L 170.701714 81.818482 
L 171.126857 81.842364 
L 171.339429 82.393222 
L 171.552 83.77483 
L 171.977143 89.381167 
L 172.402286 93.850301 
L 172.827429 95.991905 
L 173.465143 100.535364 
L 173.677714 101.114568 
L 173.890286 102.046428 
L 175.165714 115.666315 
L 175.378286 117.38741 
L 175.803429 122.325934 
L 176.016 123.550855 
L 176.228571 123.58679 
L 176.866286 119.875644 
L 177.078857 119.925641 
L 177.716571 122.045818 
L 177.929143 121.905425 
L 178.141714 120.278297 
L 178.779429 110.738729 
L 178.992 113.491901 
L 179.204571 109.625854 
L 179.842286 84.113424 
L 180.054857 80.5824 
L 180.267429 81.06228 
L 180.692571 86.662368 
L 181.117714 88.141514 
L 181.330286 88.602422 
L 181.542857 89.416433 
L 181.755429 91.033963 
L 182.818286 103.116002 
L 183.030857 102.932978 
L 183.456 100.877083 
L 183.668571 100.830881 
L 184.093714 105.040433 
L 184.306286 105.185066 
L 184.731429 103.296794 
L 184.944 103.02583 
L 185.156571 103.52178 
L 185.581714 105.554686 
L 185.794286 106.996111 
L 186.219429 111.860309 
L 186.432 112.524775 
L 186.644571 112.104936 
L 186.857143 112.044672 
L 187.069714 113.470027 
L 187.494857 118.220616 
L 188.132571 121.63513 
L 188.982857 130.699058 
L 189.408 131.876885 
L 189.833143 135.603209 
L 190.045714 136.002067 
L 190.258286 135.524196 
L 190.683429 132.717456 
L 191.108571 129.543106 
L 191.321143 129.306067 
L 191.533714 130.030128 
L 191.958857 133.049131 
L 192.384 136.412532 
L 192.596571 135.90743 
L 192.809143 132.429082 
L 193.234286 123.168067 
L 193.446857 124.697434 
L 193.659429 121.905648 
L 194.509714 91.916719 
L 194.722286 92.247055 
L 194.934857 95.802185 
L 195.36 98.540402 
L 195.785143 100.775081 
L 196.210286 104.723935 
L 196.635429 109.928959 
L 197.060571 112.269881 
L 197.273143 112.401122 
L 197.698286 111.298068 
L 197.910857 112.071233 
L 198.123429 114.936228 
L 198.336 116.089726 
L 198.548571 115.572794 
L 199.186286 111.983292 
L 199.398857 112.500223 
L 199.824 116.439926 
L 200.674286 126.034848 
L 201.312 129.283301 
L 202.374857 139.225745 
L 202.8 141.649697 
L 203.225143 144.146189 
L 203.437714 144.122083 
L 203.650286 143.633945 
L 203.862857 143.728582 
L 204.075429 145.117109 
L 204.288 147.266748 
L 204.500571 148.276282 
L 204.713143 148.213339 
L 204.925714 147.049798 
L 205.350857 143.339098 
L 205.563429 142.413934 
L 205.776 142.60901 
L 205.988571 143.789069 
L 207.051429 152.513734 
L 207.264 151.033694 
L 207.689143 141.351502 
L 207.901714 135.660794 
L 208.114286 133.312061 
L 208.326857 134.883612 
L 208.539429 129.827462 
L 209.177143 104.228431 
L 209.389714 101.868538 
L 209.814857 105.445987 
L 210.24 105.522545 
L 210.452571 106.32294 
L 210.877714 110.947421 
L 211.302857 115.476149 
L 211.515429 115.763184 
L 211.728 114.689815 
L 212.153143 111.675276 
L 212.365714 112.109623 
L 212.578286 114.996715 
L 212.790857 115.961609 
L 213.003429 115.204514 
L 213.428571 113.012467 
L 213.641143 113.022958 
L 213.853714 114.016644 
L 214.278857 117.886709 
L 216.192 138.847644 
L 216.617143 140.507582 
L 217.042286 143.994859 
L 217.254857 144.502193 
L 217.467429 144.206676 
L 217.892571 142.704763 
L 218.317714 141.337886 
L 218.530286 141.632287 
L 218.742857 142.999834 
L 218.955429 145.296562 
L 219.168 146.320603 
L 219.380571 146.250965 
L 219.805714 144.098201 
L 220.018286 142.912339 
L 220.230857 142.365499 
L 220.443429 142.990906 
L 221.931429 154.807114 
L 222.144 154.678774 
L 222.356571 152.166658 
L 222.781714 139.002322 
L 223.206857 127.713535 
L 223.419429 130.007362 
L 223.632 124.709486 
L 224.269714 95.310252 
L 224.482286 92.177194 
L 224.907429 95.903518 
L 225.332571 96.657264 
L 225.757714 99.039478 
L 225.970286 100.768608 
L 226.395429 105.830561 
L 226.608 106.095722 
L 227.245714 102.358685 
L 227.458286 103.544993 
L 227.670857 106.672694 
L 227.883429 107.668613 
L 228.308571 107.587145 
L 228.521143 108.228622 
L 228.946286 111.408552 
L 229.584 118.290031 
L 230.009143 122.558954 
L 230.434286 126.04333 
L 231.072 132.583982 
L 231.284571 133.463837 
L 231.709714 134.052638 
L 231.922286 135.014184 
L 232.56 140.527224 
L 232.772571 140.733014 
L 232.985143 139.541573 
L 233.622857 131.854565 
L 233.835429 131.40571 
L 234.260571 134.467567 
L 234.473143 133.761362 
L 234.898286 130.682988 
L 235.110857 130.050662 
L 235.323429 130.732538 
L 236.598857 141.73853 
L 237.024 144.824494 
L 237.236571 147.18528 
L 237.449143 148.245703 
L 237.661714 147.65958 
L 237.874286 145.268885 
L 238.299429 136.433736 
L 238.937143 121.050122 
L 239.149714 121.169981 
L 239.362286 120.784514 
L 239.574857 114.147886 
L 240.212571 86.19655 
L 240.425143 83.944015 
L 240.637714 86.735578 
L 240.850286 87.667438 
L 241.275429 85.373165 
L 241.488 85.160678 
L 241.700571 86.348772 
L 242.338286 93.822178 
L 242.550857 94.039798 
L 242.976 92.637878 
L 243.188571 92.558866 
L 243.401143 93.805661 
L 243.826286 99.163577 
L 244.251429 100.868602 
L 244.464 101.531729 
L 244.889143 104.165712 
L 245.526857 111.190039 
L 245.952 116.537242 
L 246.589714 123.401311 
L 247.014857 127.161562 
L 247.227429 127.93428 
L 247.652571 128.482236 
L 247.865143 129.357403 
L 248.502857 134.779378 
L 248.715429 135.106142 
L 248.928 134.591666 
L 249.353143 131.151262 
L 249.778286 127.81085 
L 249.990857 128.426213 
L 250.203429 130.98029 
L 250.416 131.280048 
L 251.053714 127.536538 
L 251.266286 127.802815 
L 251.478857 129.38441 
L 251.904 133.818278 
L 252.754286 139.190479 
L 253.179429 143.153618 
L 253.392 143.900892 
L 253.604571 143.982583 
L 253.817143 143.368783 
L 255.092571 136.078848 
L 255.517714 131.409504 
L 255.730286 130.789454 
L 255.942857 132.515683 
L 256.155429 128.537813 
L 256.793143 103.212871 
L 257.005714 101.018592 
L 257.218286 103.892069 
L 257.430857 104.246734 
L 257.643429 103.409957 
L 257.856 103.274921 
L 258.068571 104.645369 
L 259.131429 116.678527 
L 259.344 115.726579 
L 259.769143 112.005389 
L 259.981714 112.07034 
L 260.406857 116.161819 
L 260.619429 116.485459 
L 260.832 116.357566 
L 261.044571 116.43323 
L 261.469714 117.66775 
L 261.894857 120.220488 
L 262.32 124.890502 
L 262.957714 129.009658 
L 263.595429 135.800518 
L 264.020571 137.868242 
L 264.233143 138.365978 
L 264.445714 139.431535 
L 264.870857 143.388871 
L 265.296 145.552126 
L 265.508571 146.11883 
L 265.721143 145.761934 
L 265.933714 144.245959 
L 266.571429 138.177598 
L 266.784 139.150303 
L 266.996571 140.814706 
L 267.209143 140.419642 
L 267.846857 136.471234 
L 268.059429 136.797998 
L 268.484571 140.816045 
L 269.334857 148.934275 
L 269.972571 154.312502 
L 270.185143 154.755108 
L 270.397714 154.437271 
L 270.822857 153.071957 
L 271.035429 152.948081 
L 271.460571 153.653839 
L 271.673143 153.596254 
L 271.885714 152.76595 
L 272.098286 150.805807 
L 272.736 140.798635 
L 272.948571 143.144244 
L 273.161143 139.360558 
L 274.011429 108.411869 
L 274.224 109.145527 
L 274.436571 111.36659 
L 274.649143 111.729737 
L 274.861714 111.576398 
L 275.074286 111.77527 
L 275.286857 112.148906 
L 275.499429 112.826318 
L 275.712 114.430457 
L 275.924571 116.933645 
L 276.137143 117.012434 
L 276.774857 112.837255 
L 276.987429 113.560423 
L 277.412571 117.960365 
L 277.625143 118.683533 
L 277.837714 118.734646 
L 278.475429 118.112364 
L 278.688 118.411452 
L 278.900571 119.688156 
L 279.538286 126.311393 
L 280.176 131.340758 
L 280.813714 137.987431 
L 281.238857 139.933066 
L 281.451429 140.901307 
L 281.876571 144.891007 
L 282.301714 148.06067 
L 282.514286 148.793659 
L 282.726857 148.471358 
L 283.152 144.892346 
L 283.577143 141.11424 
L 283.789714 141.178298 
L 284.002286 143.633052 
L 284.214857 143.639078 
L 284.852571 138.53003 
L 285.065143 138.344328 
L 285.277714 139.569473 
L 285.702857 143.581493 
L 286.553143 148.116024 
L 286.765714 150.323026 
L 286.978286 151.235467 
L 287.190857 151.195738 
L 287.403429 150.86808 
L 287.616 150.845537 
L 287.828571 151.395055 
L 288.041143 152.492753 
L 288.891429 159.191878 
L 289.104 159.405034 
L 289.316571 158.717131 
L 289.529143 156.64963 
L 290.166857 146.48287 
L 290.379429 148.293022 
L 290.592 144.007582 
L 291.229714 119.987021 
L 291.442286 117.328932 
L 291.654857 118.35275 
L 291.867429 120.52337 
L 292.08 120.849912 
L 292.717714 119.431253 
L 292.930286 119.858681 
L 293.355429 123.740798 
L 293.568 123.841238 
L 293.993143 122.387537 
L 294.205714 122.431507 
L 294.418286 123.516929 
L 294.843429 127.894774 
L 295.056 128.886674 
L 295.481143 129.503376 
L 295.906286 130.009817 
L 296.118857 130.753742 
L 296.331429 132.244495 
L 296.756571 136.709388 
L 297.606857 142.529551 
L 298.244571 149.03851 
L 298.669714 151.004902 
L 298.882286 151.717356 
L 299.094857 153.027986 
L 299.52 156.712126 
L 299.945143 158.35019 
L 300.157714 158.16739 
L 300.795429 155.515327 
L 301.008 155.403504 
L 301.220571 155.874456 
L 301.645714 158.8977 
L 301.858286 159.020906 
L 302.496 155.895214 
L 302.708571 155.82245 
L 302.921143 156.873276 
L 303.133714 158.890111 
L 303.346286 159.756127 
L 303.771429 160.407425 
L 303.984 161.530121 
L 304.196571 163.32331 
L 304.409143 164.075494 
L 304.621714 163.985098 
L 305.259429 162.507737 
L 305.472 162.582509 
L 305.684571 163.58981 
L 305.897143 165.177209 
L 306.322286 166.2633 
L 306.747429 168.618283 
L 306.96 168.390396 
L 307.172571 167.362114 
L 307.385143 165.494376 
L 308.022857 156.137832 
L 308.235429 156.49763 
L 308.448 155.845886 
L 308.873143 142.907652 
L 309.298286 129.818088 
L 309.510857 128.230913 
L 309.936 131.233399 
L 310.148571 131.178269 
L 310.361143 130.824497 
L 310.573714 130.910206 
L 310.786286 131.685826 
L 311.424 137.181902 
L 311.636571 137.682986 
L 311.849143 137.620714 
L 312.061714 137.400415 
L 312.274286 137.591251 
L 312.486857 138.906346 
L 312.912 142.600975 
L 314.4 149.427324 
L 315.462857 158.48478 
L 316.313143 165.051994 
L 316.525714 165.405542 
L 316.738286 165.495938 
L 316.950857 166.00662 
L 317.376 169.190791 
L 317.801143 171.78817 
L 318.013714 172.268496 
L 318.226286 171.984362 
L 318.651429 170.923493 
L 318.864 171.017906 
L 319.289143 172.021637 
L 319.501714 172.918454 
L 319.714286 174.657406 
L 319.926857 175.243529 
L 320.139429 174.86766 
L 320.564571 173.796523 
L 320.777143 173.989591 
L 320.989714 174.958056 
L 321.414857 177.683328 
L 322.052571 179.564011 
L 322.477714 181.936404 
L 322.690286 182.087064 
L 323.328 179.91689 
L 323.540571 180.061301 
L 324.816 186.120511 
L 325.241143 188.218591 
L 325.453714 187.902763 
L 325.666286 186.83118 
L 326.091429 182.604888 
L 326.516571 175.667162 
L 326.729143 174.306535 
L 326.941714 175.167641 
L 327.154286 171.597334 
L 327.792 154.274558 
L 328.004571 151.751729 
L 328.217143 151.407554 
L 328.429714 152.740058 
L 328.854857 156.191177 
L 329.067429 157.137545 
L 329.28 157.510512 
L 329.492571 157.593766 
L 329.705143 157.938833 
L 330.768 164.550686 
L 331.193143 165.557988 
L 331.405714 166.073803 
L 331.830857 168.628104 
L 332.256 170.949607 
L 332.893714 171.81607 
L 333.318857 173.293207 
L 333.744 175.599533 
L 334.594286 181.349165 
L 335.232 185.050937 
L 335.657143 186.880507 
L 336.72 192.543091 
L 336.932571 192.566527 
L 337.357714 191.130458 
L 337.570286 191.449634 
L 338.845714 198.013277 
L 340.121143 201.606574 
L 340.546286 201.382704 
L 340.758857 201.962131 
L 340.971429 202.960951 
L 341.184 203.387263 
L 341.396571 203.371862 
L 341.609143 202.787078 
L 342.246857 199.893737 
L 342.459429 200.079662 
L 342.884571 201.914366 
L 342.884571 201.914366 
" style="fill:none;stroke:#4c72b0;stroke-linecap:round;stroke-width:1.75;"/>
   </g>
   <g id="line2d_44">
    <path clip-path="url(#pc02aea15af)" d="M 54 129.138642 
L 54.425143 129.445548 
L 54.850286 130.156184 
L 56.550857 133.62996 
L 56.976 133.889922 
L 57.401143 133.824769 
L 58.038857 133.340174 
L 58.889143 132.700806 
L 59.314286 132.619013 
L 59.952 132.819321 
L 60.802286 133.201425 
L 61.227429 133.166047 
L 61.652571 132.868825 
L 62.290286 131.959333 
L 63.353143 130.188329 
L 63.778286 129.868491 
L 64.203429 129.957103 
L 64.628571 130.474192 
L 65.266286 131.870534 
L 66.329143 134.394981 
L 66.754286 134.944746 
L 67.179429 135.079703 
L 67.604571 134.818518 
L 68.242286 133.920897 
L 69.092571 132.613344 
L 69.517714 132.217178 
L 69.942857 132.06419 
L 70.580571 132.186504 
L 71.430857 132.436366 
L 71.856 132.363498 
L 72.493714 131.922771 
L 73.556571 131.012304 
L 73.981714 130.978012 
L 74.406857 131.287988 
L 74.832 131.951344 
L 75.682286 133.94696 
L 76.32 135.327214 
L 76.745143 135.841206 
L 76.957714 135.928437 
L 77.170286 135.893897 
L 77.595429 135.471734 
L 78.233143 134.156043 
L 79.296 131.673462 
L 79.721143 131.109305 
L 80.146286 130.931993 
L 80.571429 131.115415 
L 81.209143 131.826372 
L 82.059429 132.804836 
L 82.484571 133.047382 
L 82.909714 133.087353 
L 84.397714 132.869965 
L 84.822857 133.141886 
L 85.460571 133.944647 
L 86.523429 135.427536 
L 86.948571 135.629878 
L 87.373714 135.443321 
L 87.798857 134.860349 
L 88.436571 133.44525 
L 89.286857 131.472849 
L 89.712 130.871645 
L 90.137143 130.689648 
L 90.562286 130.941263 
L 90.987429 131.54972 
L 92.475429 134.208856 
L 92.900571 134.537404 
L 93.325714 134.592639 
L 93.963429 134.340609 
L 94.601143 134.057067 
L 95.026286 134.029507 
L 95.451429 134.179217 
L 96.939429 135.053042 
L 97.364571 134.906425 
L 97.789714 134.439357 
L 98.427429 133.240569 
L 99.490286 131.156854 
L 99.915429 130.817135 
L 100.128 130.817912 
L 100.553143 131.176736 
L 100.978286 131.960314 
L 102.678857 135.957727 
L 103.104 136.287988 
L 103.529143 136.201304 
L 103.954286 135.775149 
L 105.442286 133.77624 
L 105.867429 133.574657 
L 106.292571 133.58518 
L 107.568 133.898487 
L 107.993143 133.746242 
L 108.630857 133.175041 
L 109.481143 132.265974 
L 109.906286 132.066023 
L 110.331429 132.195262 
L 110.756571 132.693912 
L 111.394286 134.009718 
L 112.457143 136.405394 
L 112.882286 136.90382 
L 113.307429 136.963337 
L 113.732571 136.5842 
L 114.370286 135.413201 
L 115.433143 133.296406 
L 115.858286 132.850417 
L 116.283429 132.732176 
L 116.708571 132.895746 
L 118.196571 133.953951 
L 118.621714 133.967528 
L 119.259429 133.72551 
L 119.897143 133.486554 
L 120.322286 133.537333 
L 120.747429 133.85528 
L 121.385143 134.825333 
L 122.660571 137.064499 
L 123.085714 137.290141 
L 123.298286 137.23627 
L 123.723429 136.786896 
L 124.148571 135.942626 
L 125.636571 132.375282 
L 126.061714 131.955996 
L 126.486857 131.987412 
L 126.912 132.424101 
L 127.762286 133.962473 
L 128.4 135.025028 
L 128.825143 135.448411 
L 129.250286 135.604621 
L 129.888 135.469718 
L 130.738286 135.20689 
L 131.163429 135.272329 
L 131.801143 135.68209 
L 132.651429 136.37466 
L 133.076571 136.492272 
L 133.501714 136.312527 
L 133.926857 135.803542 
L 134.564571 134.557301 
L 135.414857 132.793619 
L 135.84 132.274911 
L 136.265143 132.175032 
L 136.690286 132.526368 
L 137.115429 133.266384 
L 138.816 136.810452 
L 139.241143 137.061614 
L 139.666286 136.961175 
L 140.304 136.364685 
L 141.154286 135.490496 
L 141.579429 135.284069 
L 142.004571 135.278632 
L 143.492571 135.656732 
L 143.917714 135.426797 
L 144.555429 134.650675 
L 145.618286 133.08733 
L 146.043429 132.829685 
L 146.468571 132.972023 
L 146.893714 133.540266 
L 147.531429 135.016881 
L 148.594286 137.652046 
L 149.019429 138.203679 
L 149.444571 138.294696 
L 149.869714 137.935055 
L 150.507429 136.792209 
L 151.570286 134.743162 
L 151.995429 134.314278 
L 152.420571 134.191353 
L 152.845714 134.320324 
L 154.121143 135.04075 
L 154.546286 135.049792 
L 155.184 134.796566 
L 155.821714 134.502403 
L 156.246857 134.489992 
L 156.672 134.737588 
L 157.097143 135.272192 
L 157.947429 136.917512 
L 158.585143 138.055997 
L 159.010286 138.450971 
L 159.435429 138.423967 
L 159.860571 137.95745 
L 160.498286 136.622997 
L 161.561143 134.177423 
L 161.986286 133.647643 
L 162.411429 133.521378 
L 162.836571 133.776717 
L 163.474286 134.63517 
L 164.324571 135.846003 
L 164.749714 136.189174 
L 165.174857 136.29859 
L 165.812571 136.150128 
L 166.450286 135.971615 
L 166.875429 136.030083 
L 167.300571 136.302374 
L 167.938286 137.047288 
L 168.788571 138.0512 
L 169.213714 138.21821 
L 169.638857 138.014229 
L 170.064 137.421808 
L 170.701714 135.98964 
L 171.552 133.985285 
L 171.977143 133.382333 
L 172.402286 133.226073 
L 172.827429 133.542922 
L 173.252571 134.261508 
L 174.953143 137.768047 
L 175.378286 138.041367 
L 175.803429 137.990451 
L 176.441143 137.521426 
L 177.291429 136.867777 
L 177.716571 136.75493 
L 178.354286 136.87695 
L 179.204571 137.121458 
L 179.629714 137.023773 
L 180.054857 136.683386 
L 180.692571 135.765067 
L 181.755429 134.14936 
L 182.180571 133.933933 
L 182.605714 134.131406 
L 183.030857 134.745625 
L 183.668571 136.234006 
L 184.518857 138.327358 
L 184.944 138.992538 
L 185.369143 139.240432 
L 185.794286 139.05792 
L 186.219429 138.523198 
L 187.707429 136.149299 
L 188.132571 135.894568 
L 188.557714 135.898531 
L 189.408 136.313886 
L 190.045714 136.490271 
L 190.470857 136.378364 
L 191.108571 135.890047 
L 191.958857 135.197614 
L 192.384 135.148505 
L 192.809143 135.433428 
L 193.234286 136.064494 
L 194.084571 137.986162 
L 194.722286 139.315041 
L 195.147429 139.802199 
L 195.36 139.879099 
L 195.572571 139.836529 
L 195.997714 139.405461 
L 196.635429 138.092745 
L 197.698286 135.636666 
L 198.123429 135.080303 
L 198.548571 134.905149 
L 198.973714 135.084791 
L 199.611429 135.783849 
L 200.461714 136.758661 
L 200.886857 137.01561 
L 201.312 137.084451 
L 202.8 137.033326 
L 203.225143 137.337832 
L 203.862857 138.142285 
L 204.713143 139.299184 
L 205.138286 139.57615 
L 205.563429 139.489642 
L 205.988571 139.002866 
L 206.626286 137.662118 
L 207.689143 135.179186 
L 208.114286 134.649037 
L 208.539429 134.564646 
L 208.964571 134.926227 
L 209.602286 136.082903 
L 210.665143 138.203381 
L 211.090286 138.663308 
L 211.515429 138.806496 
L 211.940571 138.682008 
L 213.428571 137.891698 
L 213.853714 137.984522 
L 214.704 138.54373 
L 215.341714 138.819 
L 215.766857 138.702454 
L 216.192 138.277932 
L 216.829714 137.156297 
L 217.892571 135.194082 
L 218.317714 134.88612 
L 218.530286 134.897248 
L 218.955429 135.26455 
L 219.380571 136.040349 
L 221.081143 139.91407 
L 221.506286 140.217881 
L 221.931429 140.115695 
L 222.356571 139.685674 
L 223.844571 137.712101 
L 224.269714 137.505499 
L 224.694857 137.498069 
L 225.970286 137.705786 
L 226.395429 137.525158 
L 227.033143 136.947701 
L 227.883429 136.120337 
L 228.308571 135.994483 
L 228.733714 136.207854 
L 229.158857 136.787479 
L 229.796571 138.189136 
L 230.646857 140.193965 
L 231.072 140.825223 
L 231.497143 141.023306 
L 231.922286 140.752807 
L 232.347429 140.075854 
L 234.048 136.642851 
L 234.473143 136.39351 
L 234.898286 136.487153 
L 235.536 137.057954 
L 236.386286 137.874658 
L 236.811429 138.047991 
L 237.236571 138.02273 
L 238.724571 137.625096 
L 239.149714 137.890886 
L 239.574857 138.418377 
L 241.062857 140.808764 
L 241.488 140.996361 
L 241.913143 140.756283 
L 242.338286 140.101643 
L 243.188571 138.039141 
L 243.826286 136.587284 
L 244.251429 136.007248 
L 244.676571 135.853773 
L 245.101714 136.123624 
L 245.739429 137.104874 
L 246.802286 138.934761 
L 247.227429 139.335468 
L 247.652571 139.478984 
L 248.290286 139.350381 
L 249.140571 139.131125 
L 249.565714 139.218162 
L 250.203429 139.636325 
L 251.053714 140.268532 
L 251.478857 140.327056 
L 251.904 140.078494 
L 252.329143 139.502295 
L 253.179429 137.698002 
L 253.817143 136.427464 
L 254.242286 135.961165 
L 254.454857 135.891188 
L 254.667429 135.939765 
L 255.092571 136.384797 
L 255.730286 137.737726 
L 256.793143 140.321363 
L 257.218286 140.929958 
L 257.643429 141.141619 
L 258.068571 140.974568 
L 258.706286 140.247473 
L 259.556571 139.196746 
L 259.981714 138.921931 
L 260.406857 138.870064 
L 261.044571 139.080373 
L 261.682286 139.28767 
L 262.107429 139.22961 
L 262.532571 138.943723 
L 263.170286 138.156447 
L 264.020571 137.070759 
L 264.445714 136.860763 
L 264.870857 137.026605 
L 265.296 137.591016 
L 265.933714 139.012197 
L 266.996571 141.472321 
L 267.421714 141.952919 
L 267.846857 141.987386 
L 268.272 141.59282 
L 268.909714 140.4439 
L 269.76 138.780154 
L 270.185143 138.244782 
L 270.610286 138.008552 
L 271.035429 138.048071 
L 271.885714 138.555798 
L 272.523429 138.831552 
L 272.948571 138.819455 
L 273.586286 138.552798 
L 274.224 138.282427 
L 274.649143 138.306564 
L 275.074286 138.60085 
L 275.499429 139.183057 
L 277.2 142.226783 
L 277.625143 142.358514 
L 278.050286 142.030056 
L 278.475429 141.282242 
L 280.176 137.383335 
L 280.601143 137.078064 
L 281.026286 137.204135 
L 281.451429 137.689241 
L 283.152 140.167842 
L 283.577143 140.315634 
L 284.214857 140.176543 
L 285.065143 139.925772 
L 285.490286 140.019456 
L 285.915429 140.31379 
L 287.403429 141.705814 
L 287.828571 141.659027 
L 288.253714 141.251061 
L 288.891429 140.050923 
L 289.954286 137.714285 
L 290.379429 137.198249 
L 290.804571 137.116224 
L 291.229714 137.484397 
L 291.654857 138.22494 
L 293.142857 141.331628 
L 293.568 141.71596 
L 293.993143 141.764219 
L 294.418286 141.543566 
L 295.693714 140.54146 
L 296.118857 140.45236 
L 296.756571 140.60387 
L 297.606857 140.843811 
L 298.032 140.722584 
L 298.457143 140.350489 
L 299.094857 139.387327 
L 299.945143 137.996932 
L 300.370286 137.62974 
L 300.795429 137.659856 
L 301.220571 138.130552 
L 301.858286 139.52471 
L 302.921143 142.259417 
L 303.346286 142.920671 
L 303.771429 143.138042 
L 304.196571 142.901924 
L 304.621714 142.29696 
L 306.109714 139.667897 
L 306.534857 139.369633 
L 306.96 139.352846 
L 307.597714 139.668528 
L 308.235429 140.009839 
L 308.660571 140.067436 
L 309.085714 139.939398 
L 310.573714 139.082594 
L 310.998857 139.222706 
L 311.424 139.681788 
L 312.061714 140.872895 
L 313.124571 142.994666 
L 313.549714 143.382592 
L 313.762286 143.41487 
L 314.187429 143.140218 
L 314.612571 142.462026 
L 316.313143 138.89582 
L 316.738286 138.607922 
L 317.163429 138.690237 
L 317.588571 139.065287 
L 319.076571 140.693254 
L 319.501714 140.815623 
L 320.139429 140.718291 
L 320.777143 140.600585 
L 321.202286 140.699448 
L 321.627429 141.015369 
L 322.265143 141.844249 
L 323.115429 143.009814 
L 323.540571 143.269919 
L 323.965714 143.151806 
L 324.390857 142.622654 
L 325.028571 141.213119 
L 326.091429 138.665213 
L 326.516571 138.142211 
L 326.729143 138.053445 
L 326.941714 138.0857 
L 327.366857 138.492886 
L 328.004571 139.73902 
L 329.067429 142.006622 
L 329.492571 142.505711 
L 329.917714 142.669643 
L 330.342857 142.544865 
L 332.043429 141.574479 
L 332.681143 141.771 
L 333.531429 142.169109 
L 333.956571 142.15253 
L 334.381714 141.873804 
L 334.806857 141.326166 
L 336.294857 138.85971 
L 336.72 138.653787 
L 337.145143 138.876445 
L 337.570286 139.514558 
L 338.420571 141.554092 
L 339.058286 143.014159 
L 339.483429 143.622394 
L 339.908571 143.828219 
L 340.333714 143.637503 
L 340.758857 143.140488 
L 342.034286 141.331445 
L 342.459429 141.052929 
L 342.884571 141.003641 
L 342.884571 141.003641 
" style="fill:none;stroke:#55a868;stroke-linecap:round;stroke-width:1.75;"/>
   </g>
   <g id="patch_3">
    <path d="M 54 252 
L 54 28.8 
" style="fill:none;"/>
   </g>
   <g id="patch_4">
    <path d="M 54 252 
L 388.8 252 
" style="fill:none;"/>
   </g>
   <g id="patch_5">
    <path d="M 54 28.8 
L 388.8 28.8 
" style="fill:none;"/>
   </g>
   <g id="patch_6">
    <path d="M 388.8 252 
L 388.8 28.8 
" style="fill:none;"/>
   </g>
   <g id="text_15">
    <!-- exp : 1, sin : 3 -->
    <defs>
     <path d="M 51.421875 26.65625 
Q 51.421875 20.65625 50.4375 15.578125 
Q 49.46875 10.5 47.1875 6.828125 
Q 44.921875 3.171875 41.1875 1.09375 
Q 37.453125 -0.984375 31.984375 -0.984375 
Q 26.3125 -0.984375 22.0625 1.171875 
Q 17.828125 3.328125 15.578125 8.203125 
L 15.328125 8.203125 
Q 15.375 8.109375 15.40625 7.328125 
Q 15.4375 6.546875 15.453125 5.375 
Q 15.484375 4.203125 15.5 2.75 
Q 15.53125 1.3125 15.53125 -0.09375 
L 15.53125 -20.75 
L 6.734375 -20.75 
L 6.734375 42.046875 
Q 6.734375 43.953125 6.703125 45.703125 
Q 6.6875 47.46875 6.640625 48.90625 
Q 6.59375 50.34375 6.546875 51.359375 
Q 6.5 52.390625 6.453125 52.828125 
L 14.9375 52.828125 
Q 14.984375 52.6875 15.0625 51.796875 
Q 15.140625 50.921875 15.203125 49.671875 
Q 15.28125 48.4375 15.359375 47.015625 
Q 15.4375 45.609375 15.4375 44.34375 
L 15.625 44.34375 
Q 16.84375 46.875 18.40625 48.65625 
Q 19.96875 50.4375 21.96875 51.578125 
Q 23.96875 52.734375 26.4375 53.25 
Q 28.90625 53.765625 31.984375 53.765625 
Q 37.453125 53.765625 41.1875 51.8125 
Q 44.921875 49.859375 47.1875 46.3125 
Q 49.46875 42.78125 50.4375 37.765625 
Q 51.421875 32.765625 51.421875 26.65625 
M 42.1875 26.46875 
Q 42.1875 31.34375 41.59375 35.15625 
Q 41.015625 38.96875 39.578125 41.59375 
Q 38.140625 44.234375 35.734375 45.59375 
Q 33.34375 46.96875 29.734375 46.96875 
Q 26.8125 46.96875 24.21875 46.140625 
Q 21.625 45.3125 19.703125 42.96875 
Q 17.78125 40.625 16.65625 36.5 
Q 15.53125 32.375 15.53125 25.78125 
Q 15.53125 20.171875 16.453125 16.28125 
Q 17.390625 12.40625 19.171875 10.015625 
Q 20.953125 7.625 23.578125 6.5625 
Q 26.21875 5.515625 29.640625 5.515625 
Q 33.296875 5.515625 35.71875 6.921875 
Q 38.140625 8.34375 39.578125 11.03125 
Q 41.015625 13.71875 41.59375 17.59375 
Q 42.1875 21.484375 42.1875 26.46875 
" id="LiberationSans-70"/>
     <path d="M 9.125 42.71875 
L 9.125 52.828125 
L 18.65625 52.828125 
L 18.65625 42.71875 
z
M 9.125 0 
L 9.125 10.109375 
L 18.65625 10.109375 
L 18.65625 0 
z
" id="LiberationSans-3a"/>
     <path d="M 18.796875 10.6875 
L 18.796875 2.484375 
Q 18.796875 -0.09375 18.578125 -2.21875 
Q 18.359375 -4.34375 17.875 -6.171875 
Q 17.390625 -8.015625 16.671875 -9.625 
Q 15.96875 -11.234375 14.984375 -12.796875 
L 8.984375 -12.796875 
Q 11.1875 -9.625 12.375 -6.390625 
Q 13.578125 -3.171875 13.578125 0 
L 9.28125 0 
L 9.28125 10.6875 
z
" id="LiberationSans-2c"/>
     <path d="M 13.484375 24.5625 
Q 13.484375 20.40625 14.328125 16.90625 
Q 15.1875 13.421875 16.96875 10.90625 
Q 18.75 8.40625 21.53125 7 
Q 24.3125 5.609375 28.21875 5.609375 
Q 33.9375 5.609375 37.375 7.90625 
Q 40.828125 10.203125 42.046875 13.71875 
L 49.75 11.53125 
Q 48.921875 9.328125 47.4375 7.109375 
Q 45.953125 4.890625 43.453125 3.09375 
Q 40.96875 1.3125 37.234375 0.15625 
Q 33.5 -0.984375 28.21875 -0.984375 
Q 16.5 -0.984375 10.375 6 
Q 4.25 12.984375 4.25 26.765625 
Q 4.25 34.1875 6.09375 39.328125 
Q 7.953125 44.484375 11.171875 47.703125 
Q 14.40625 50.921875 18.703125 52.359375 
Q 23 53.8125 27.875 53.8125 
Q 34.515625 53.8125 38.984375 51.65625 
Q 43.453125 49.515625 46.15625 45.71875 
Q 48.875 41.9375 50.015625 36.8125 
Q 51.171875 31.6875 51.171875 25.734375 
L 51.171875 24.5625 
z
M 42.09375 31.296875 
Q 41.359375 39.65625 37.84375 43.484375 
Q 34.328125 47.3125 27.734375 47.3125 
Q 25.53125 47.3125 23.109375 46.609375 
Q 20.703125 45.90625 18.65625 44.09375 
Q 16.609375 42.28125 15.1875 39.171875 
Q 13.765625 36.078125 13.578125 31.296875 
z
" id="LiberationSans-65"/>
     <path id="LiberationSans-20"/>
     <path d="M 39.109375 0 
L 24.90625 21.6875 
L 10.59375 0 
L 1.125 0 
L 19.921875 27.15625 
L 2 52.828125 
L 11.71875 52.828125 
L 24.90625 32.28125 
L 37.984375 52.828125 
L 47.796875 52.828125 
L 29.890625 27.25 
L 48.921875 0 
z
" id="LiberationSans-78"/>
     <path d="M 40.28125 0 
L 40.28125 33.5 
Q 40.28125 37.359375 39.71875 39.9375 
Q 39.15625 42.53125 37.890625 44.109375 
Q 36.625 45.703125 34.546875 46.359375 
Q 32.46875 47.015625 29.390625 47.015625 
Q 26.265625 47.015625 23.75 45.921875 
Q 21.234375 44.828125 19.453125 42.75 
Q 17.671875 40.671875 16.6875 37.625 
Q 15.71875 34.578125 15.71875 30.609375 
L 15.71875 0 
L 6.9375 0 
L 6.9375 41.546875 
Q 6.9375 43.21875 6.90625 45.046875 
Q 6.890625 46.875 6.828125 48.5 
Q 6.78125 50.140625 6.734375 51.3125 
Q 6.6875 52.484375 6.640625 52.828125 
L 14.9375 52.828125 
Q 14.984375 52.59375 15.03125 51.515625 
Q 15.09375 50.4375 15.15625 49.046875 
Q 15.234375 47.65625 15.28125 46.21875 
Q 15.328125 44.78125 15.328125 43.796875 
L 15.484375 43.796875 
Q 16.75 46.09375 18.265625 47.953125 
Q 19.78125 49.8125 21.78125 51.09375 
Q 23.78125 52.390625 26.359375 53.09375 
Q 28.953125 53.8125 32.375 53.8125 
Q 36.765625 53.8125 39.9375 52.734375 
Q 43.109375 51.65625 45.15625 49.40625 
Q 47.21875 47.171875 48.171875 43.625 
Q 49.125 40.09375 49.125 35.203125 
L 49.125 0 
z
" id="LiberationSans-6e"/>
     <path d="M 46.390625 14.59375 
Q 46.390625 10.890625 44.9375 7.984375 
Q 43.5 5.078125 40.765625 3.09375 
Q 38.03125 1.125 34.046875 0.0625 
Q 30.078125 -0.984375 24.953125 -0.984375 
Q 20.359375 -0.984375 16.671875 -0.265625 
Q 12.984375 0.4375 10.203125 2 
Q 7.421875 3.5625 5.53125 6.125 
Q 3.65625 8.6875 2.78125 12.40625 
L 10.546875 13.921875 
Q 11.671875 9.671875 15.1875 7.6875 
Q 18.703125 5.71875 24.953125 5.71875 
Q 27.78125 5.71875 30.140625 6.109375 
Q 32.515625 6.5 34.21875 7.453125 
Q 35.9375 8.40625 36.890625 9.984375 
Q 37.84375 11.578125 37.84375 13.921875 
Q 37.84375 16.3125 36.71875 17.84375 
Q 35.59375 19.390625 33.59375 20.40625 
Q 31.59375 21.4375 28.734375 22.1875 
Q 25.875 22.953125 22.46875 23.875 
Q 19.28125 24.703125 16.15625 25.734375 
Q 13.03125 26.765625 10.515625 28.4375 
Q 8.015625 30.125 6.453125 32.609375 
Q 4.890625 35.109375 4.890625 38.875 
Q 4.890625 46.09375 10.03125 49.875 
Q 15.1875 53.65625 25.046875 53.65625 
Q 33.796875 53.65625 38.9375 50.578125 
Q 44.09375 47.515625 45.453125 40.71875 
L 37.546875 39.75 
Q 37.109375 41.796875 35.9375 43.1875 
Q 34.765625 44.578125 33.109375 45.4375 
Q 31.453125 46.296875 29.375 46.65625 
Q 27.296875 47.015625 25.046875 47.015625 
Q 19.09375 47.015625 16.25 45.203125 
Q 13.421875 43.40625 13.421875 39.75 
Q 13.421875 37.59375 14.46875 36.203125 
Q 15.53125 34.8125 17.40625 33.859375 
Q 19.28125 32.90625 21.921875 32.203125 
Q 24.5625 31.5 27.734375 30.71875 
Q 29.828125 30.171875 32.03125 29.5625 
Q 34.234375 28.953125 36.296875 28.09375 
Q 38.375 27.25 40.203125 26.09375 
Q 42.046875 24.953125 43.40625 23.34375 
Q 44.78125 21.734375 45.578125 19.578125 
Q 46.390625 17.4375 46.390625 14.59375 
" id="LiberationSans-73"/>
     <path d="M 6.6875 64.0625 
L 6.6875 72.46875 
L 15.484375 72.46875 
L 15.484375 64.0625 
z
M 6.6875 0 
L 6.6875 52.828125 
L 15.484375 52.828125 
L 15.484375 0 
z
" id="LiberationSans-69"/>
    </defs>
    <g style="fill:#262626;" transform="translate(184.0490625 23.8)scale(0.12 -0.12)">
     <use xlink:href="#LiberationSans-65"/>
     <use x="55.615234375" xlink:href="#LiberationSans-78"/>
     <use x="105.615234375" xlink:href="#LiberationSans-70"/>
     <use x="161.23046875" xlink:href="#LiberationSans-20"/>
     <use x="189.013671875" xlink:href="#LiberationSans-3a"/>
     <use x="216.796875" xlink:href="#LiberationSans-20"/>
     <use x="244.580078125" xlink:href="#LiberationSans-31"/>
     <use x="300.1953125" xlink:href="#LiberationSans-2c"/>
     <use x="327.978515625" xlink:href="#LiberationSans-20"/>
     <use x="355.76171875" xlink:href="#LiberationSans-73"/>
     <use x="405.76171875" xlink:href="#LiberationSans-69"/>
     <use x="427.978515625" xlink:href="#LiberationSans-6e"/>
     <use x="483.59375" xlink:href="#LiberationSans-20"/>
     <use x="511.376953125" xlink:href="#LiberationSans-3a"/>
     <use x="539.16015625" xlink:href="#LiberationSans-20"/>
     <use x="566.943359375" xlink:href="#LiberationSans-33"/>
    </g>
   </g>
  </g>
 </g>
 <defs>
  <clipPath id="pc02aea15af">
   <rect height="223.2" width="334.8" x="54.0" y="28.8"/>
  </clipPath>
 </defs>
</svg>
