<?xml version="1.0" encoding="utf-8" standalone="no"?>
<!DOCTYPE svg PUBLIC "-//W3C//DTD SVG 1.1//EN"
  "http://www.w3.org/Graphics/SVG/1.1/DTD/svg11.dtd">
<!-- Created with matplotlib (http://matplotlib.org/) -->
<svg height="288pt" version="1.1" viewBox="0 0 432 288" width="432pt" xmlns="http://www.w3.org/2000/svg" xmlns:xlink="http://www.w3.org/1999/xlink">
 <defs>
  <style type="text/css">
*{stroke-linecap:butt;stroke-linejoin:round;stroke-miterlimit:100000;}
  </style>
 </defs>
 <g id="figure_1">
  <g id="patch_1">
   <path d="M 0 288 
L 432 288 
L 432 0 
L 0 0 
z
" style="fill:#ffffff;"/>
  </g>
  <g id="axes_1">
   <g id="patch_2">
    <path d="M 54 252 
L 388.8 252 
L 388.8 28.8 
L 54 28.8 
z
" style="fill:#eaeaf2;"/>
   </g>
   <g id="matplotlib.axis_1">
    <g id="xtick_1">
     <g id="line2d_1">
      <path clip-path="url(#p8e3b728c33)" d="M 54 252 
L 54 28.8 
" style="fill:none;stroke:#ffffff;stroke-linecap:round;"/>
     </g>
     <g id="line2d_2"/>
     <g id="line2d_3"/>
     <g id="text_1">
      <!-- 0.00 -->
      <defs>
       <path d="M 51.703125 34.421875 
Q 51.703125 24.515625 49.828125 17.75 
Q 47.953125 10.984375 44.703125 6.8125 
Q 41.453125 2.640625 37.0625 0.828125 
Q 32.671875 -0.984375 27.6875 -0.984375 
Q 22.65625 -0.984375 18.3125 0.828125 
Q 13.96875 2.640625 10.765625 6.78125 
Q 7.5625 10.9375 5.734375 17.703125 
Q 3.90625 24.46875 3.90625 34.421875 
Q 3.90625 44.828125 5.734375 51.640625 
Q 7.5625 58.453125 10.78125 62.5 
Q 14.015625 66.546875 18.40625 68.1875 
Q 22.796875 69.828125 27.984375 69.828125 
Q 32.90625 69.828125 37.21875 68.1875 
Q 41.546875 66.546875 44.765625 62.5 
Q 48 58.453125 49.84375 51.640625 
Q 51.703125 44.828125 51.703125 34.421875 
M 42.78125 34.421875 
Q 42.78125 42.625 41.796875 48.0625 
Q 40.828125 53.515625 38.921875 56.765625 
Q 37.015625 60.015625 34.25 61.359375 
Q 31.5 62.703125 27.984375 62.703125 
Q 24.265625 62.703125 21.4375 61.328125 
Q 18.609375 59.96875 16.671875 56.71875 
Q 14.75 53.46875 13.765625 48.015625 
Q 12.796875 42.578125 12.796875 34.421875 
Q 12.796875 26.515625 13.796875 21.09375 
Q 14.796875 15.671875 16.71875 12.375 
Q 18.65625 9.078125 21.4375 7.640625 
Q 24.21875 6.203125 27.78125 6.203125 
Q 31.25 6.203125 34.03125 7.640625 
Q 36.8125 9.078125 38.734375 12.375 
Q 40.671875 15.671875 41.71875 21.09375 
Q 42.78125 26.515625 42.78125 34.421875 
" id="LiberationSans-30"/>
       <path d="M 9.125 0 
L 9.125 10.6875 
L 18.65625 10.6875 
L 18.65625 0 
z
" id="LiberationSans-2e"/>
      </defs>
      <g style="fill:#262626;" transform="translate(44.26953125 266.246875)scale(0.1 -0.1)">
       <use xlink:href="#LiberationSans-30"/>
       <use x="55.615234375" xlink:href="#LiberationSans-2e"/>
       <use x="83.3984375" xlink:href="#LiberationSans-30"/>
       <use x="139.013671875" xlink:href="#LiberationSans-30"/>
      </g>
     </g>
    </g>
    <g id="xtick_2">
     <g id="line2d_4">
      <path clip-path="url(#p8e3b728c33)" d="M 101.828571 252 
L 101.828571 28.8 
" style="fill:none;stroke:#ffffff;stroke-linecap:round;"/>
     </g>
     <g id="line2d_5"/>
     <g id="line2d_6"/>
     <g id="text_2">
      <!-- 0.01 -->
      <defs>
       <path d="M 7.625 0 
L 7.625 7.46875 
L 25.140625 7.46875 
L 25.140625 60.40625 
L 9.625 49.3125 
L 9.625 57.625 
L 25.875 68.796875 
L 33.984375 68.796875 
L 33.984375 7.46875 
L 50.734375 7.46875 
L 50.734375 0 
z
" id="LiberationSans-31"/>
      </defs>
      <g style="fill:#262626;" transform="translate(92.0981026786 266.246875)scale(0.1 -0.1)">
       <use xlink:href="#LiberationSans-30"/>
       <use x="55.615234375" xlink:href="#LiberationSans-2e"/>
       <use x="83.3984375" xlink:href="#LiberationSans-30"/>
       <use x="139.013671875" xlink:href="#LiberationSans-31"/>
      </g>
     </g>
    </g>
    <g id="xtick_3">
     <g id="line2d_7">
      <path clip-path="url(#p8e3b728c33)" d="M 149.657143 252 
L 149.657143 28.8 
" style="fill:none;stroke:#ffffff;stroke-linecap:round;"/>
     </g>
     <g id="line2d_8"/>
     <g id="line2d_9"/>
     <g id="text_3">
      <!-- 0.02 -->
      <defs>
       <path d="M 5.03125 0 
L 5.03125 6.203125 
Q 7.515625 11.921875 11.109375 16.28125 
Q 14.703125 20.65625 18.65625 24.1875 
Q 22.609375 27.734375 26.484375 30.765625 
Q 30.375 33.796875 33.5 36.8125 
Q 36.625 39.84375 38.546875 43.15625 
Q 40.484375 46.484375 40.484375 50.6875 
Q 40.484375 53.609375 39.59375 55.828125 
Q 38.71875 58.0625 37.0625 59.5625 
Q 35.40625 61.078125 33.078125 61.828125 
Q 30.765625 62.59375 27.9375 62.59375 
Q 25.296875 62.59375 22.96875 61.859375 
Q 20.65625 61.140625 18.84375 59.671875 
Q 17.046875 58.203125 15.890625 56.03125 
Q 14.75 53.859375 14.40625 50.984375 
L 5.421875 51.8125 
Q 5.859375 55.515625 7.46875 58.78125 
Q 9.078125 62.0625 11.90625 64.53125 
Q 14.75 67 18.71875 68.40625 
Q 22.703125 69.828125 27.9375 69.828125 
Q 33.0625 69.828125 37.0625 68.609375 
Q 41.0625 67.390625 43.8125 64.984375 
Q 46.578125 62.59375 48.046875 59.078125 
Q 49.515625 55.5625 49.515625 50.984375 
Q 49.515625 47.515625 48.265625 44.390625 
Q 47.015625 41.265625 44.9375 38.421875 
Q 42.875 35.59375 40.140625 32.953125 
Q 37.40625 30.328125 34.421875 27.8125 
Q 31.453125 25.296875 28.421875 22.828125 
Q 25.390625 20.359375 22.71875 17.859375 
Q 20.0625 15.375 17.96875 12.8125 
Q 15.875 10.25 14.703125 7.46875 
L 50.59375 7.46875 
L 50.59375 0 
z
" id="LiberationSans-32"/>
      </defs>
      <g style="fill:#262626;" transform="translate(139.926674107 266.246875)scale(0.1 -0.1)">
       <use xlink:href="#LiberationSans-30"/>
       <use x="55.615234375" xlink:href="#LiberationSans-2e"/>
       <use x="83.3984375" xlink:href="#LiberationSans-30"/>
       <use x="139.013671875" xlink:href="#LiberationSans-32"/>
      </g>
     </g>
    </g>
    <g id="xtick_4">
     <g id="line2d_10">
      <path clip-path="url(#p8e3b728c33)" d="M 197.485714 252 
L 197.485714 28.8 
" style="fill:none;stroke:#ffffff;stroke-linecap:round;"/>
     </g>
     <g id="line2d_11"/>
     <g id="line2d_12"/>
     <g id="text_4">
      <!-- 0.03 -->
      <defs>
       <path d="M 51.21875 19 
Q 51.21875 14.265625 49.671875 10.546875 
Q 48.140625 6.84375 45.1875 4.265625 
Q 42.234375 1.703125 37.859375 0.359375 
Q 33.5 -0.984375 27.875 -0.984375 
Q 21.484375 -0.984375 17.109375 0.609375 
Q 12.75 2.203125 9.90625 4.8125 
Q 7.078125 7.421875 5.65625 10.765625 
Q 4.25 14.109375 3.8125 17.671875 
L 12.890625 18.5 
Q 13.28125 15.765625 14.328125 13.515625 
Q 15.375 11.28125 17.1875 9.671875 
Q 19 8.0625 21.625 7.171875 
Q 24.265625 6.296875 27.875 6.296875 
Q 34.515625 6.296875 38.296875 9.5625 
Q 42.09375 12.84375 42.09375 19.28125 
Q 42.09375 23.09375 40.40625 25.40625 
Q 38.71875 27.734375 36.203125 29.03125 
Q 33.6875 30.328125 30.734375 30.765625 
Q 27.78125 31.203125 25.296875 31.203125 
L 20.3125 31.203125 
L 20.3125 38.8125 
L 25.09375 38.8125 
Q 27.59375 38.8125 30.265625 39.328125 
Q 32.953125 39.84375 35.171875 41.1875 
Q 37.40625 42.53125 38.84375 44.828125 
Q 40.28125 47.125 40.28125 50.6875 
Q 40.28125 56.203125 37.03125 59.390625 
Q 33.796875 62.59375 27.390625 62.59375 
Q 21.578125 62.59375 17.984375 59.609375 
Q 14.40625 56.640625 13.8125 51.21875 
L 4.984375 51.90625 
Q 5.515625 56.453125 7.46875 59.8125 
Q 9.421875 63.1875 12.421875 65.40625 
Q 15.4375 67.625 19.28125 68.71875 
Q 23.140625 69.828125 27.484375 69.828125 
Q 33.25 69.828125 37.390625 68.375 
Q 41.546875 66.9375 44.1875 64.46875 
Q 46.828125 62.015625 48.0625 58.6875 
Q 49.3125 55.375 49.3125 51.609375 
Q 49.3125 48.578125 48.484375 45.9375 
Q 47.65625 43.3125 45.890625 41.203125 
Q 44.140625 39.109375 41.421875 37.59375 
Q 38.71875 36.078125 34.90625 35.296875 
L 34.90625 35.109375 
Q 39.0625 34.671875 42.140625 33.21875 
Q 45.21875 31.78125 47.21875 29.625 
Q 49.21875 27.484375 50.21875 24.75 
Q 51.21875 22.015625 51.21875 19 
" id="LiberationSans-33"/>
      </defs>
      <g style="fill:#262626;" transform="translate(187.755245536 266.246875)scale(0.1 -0.1)">
       <use xlink:href="#LiberationSans-30"/>
       <use x="55.615234375" xlink:href="#LiberationSans-2e"/>
       <use x="83.3984375" xlink:href="#LiberationSans-30"/>
       <use x="139.013671875" xlink:href="#LiberationSans-33"/>
      </g>
     </g>
    </g>
    <g id="xtick_5">
     <g id="line2d_13">
      <path clip-path="url(#p8e3b728c33)" d="M 245.314286 252 
L 245.314286 28.8 
" style="fill:none;stroke:#ffffff;stroke-linecap:round;"/>
     </g>
     <g id="line2d_14"/>
     <g id="line2d_15"/>
     <g id="text_5">
      <!-- 0.04 -->
      <defs>
       <path d="M 43.015625 15.578125 
L 43.015625 0 
L 34.71875 0 
L 34.71875 15.578125 
L 2.296875 15.578125 
L 2.296875 22.40625 
L 33.796875 68.796875 
L 43.015625 68.796875 
L 43.015625 22.515625 
L 52.6875 22.515625 
L 52.6875 15.578125 
z
M 34.71875 58.890625 
Q 34.625 58.640625 34.234375 57.9375 
Q 33.84375 57.234375 33.34375 56.34375 
Q 32.859375 55.46875 32.34375 54.5625 
Q 31.84375 53.65625 31.453125 53.078125 
L 13.8125 27.09375 
Q 13.578125 26.703125 13.109375 26.0625 
Q 12.640625 25.4375 12.15625 24.78125 
Q 11.671875 24.125 11.171875 23.484375 
Q 10.6875 22.859375 10.40625 22.515625 
L 34.71875 22.515625 
z
" id="LiberationSans-34"/>
      </defs>
      <g style="fill:#262626;" transform="translate(235.583816964 266.246875)scale(0.1 -0.1)">
       <use xlink:href="#LiberationSans-30"/>
       <use x="55.615234375" xlink:href="#LiberationSans-2e"/>
       <use x="83.3984375" xlink:href="#LiberationSans-30"/>
       <use x="139.013671875" xlink:href="#LiberationSans-34"/>
      </g>
     </g>
    </g>
    <g id="xtick_6">
     <g id="line2d_16">
      <path clip-path="url(#p8e3b728c33)" d="M 293.142857 252 
L 293.142857 28.8 
" style="fill:none;stroke:#ffffff;stroke-linecap:round;"/>
     </g>
     <g id="line2d_17"/>
     <g id="line2d_18"/>
     <g id="text_6">
      <!-- 0.05 -->
      <defs>
       <path d="M 51.421875 22.40625 
Q 51.421875 17.234375 49.859375 12.9375 
Q 48.296875 8.640625 45.21875 5.53125 
Q 42.140625 2.4375 37.578125 0.71875 
Q 33.015625 -0.984375 27 -0.984375 
Q 21.578125 -0.984375 17.546875 0.28125 
Q 13.53125 1.5625 10.734375 3.78125 
Q 7.953125 6 6.3125 8.984375 
Q 4.6875 11.96875 4 15.375 
L 12.890625 16.40625 
Q 13.421875 14.453125 14.390625 12.625 
Q 15.375 10.796875 17.0625 9.34375 
Q 18.75 7.90625 21.21875 7.046875 
Q 23.6875 6.203125 27.203125 6.203125 
Q 30.609375 6.203125 33.390625 7.25 
Q 36.1875 8.296875 38.15625 10.34375 
Q 40.140625 12.40625 41.203125 15.375 
Q 42.28125 18.359375 42.28125 22.21875 
Q 42.28125 25.390625 41.25 28.046875 
Q 40.234375 30.71875 38.328125 32.640625 
Q 36.421875 34.578125 33.65625 35.640625 
Q 30.90625 36.71875 27.390625 36.71875 
Q 25.203125 36.71875 23.34375 36.328125 
Q 21.484375 35.9375 19.890625 35.25 
Q 18.3125 34.578125 17.015625 33.671875 
Q 15.71875 32.765625 14.59375 31.78125 
L 6 31.78125 
L 8.296875 68.796875 
L 47.40625 68.796875 
L 47.40625 61.328125 
L 16.3125 61.328125 
L 14.984375 39.5 
Q 17.328125 41.3125 20.84375 42.59375 
Q 24.359375 43.890625 29.203125 43.890625 
Q 34.328125 43.890625 38.421875 42.328125 
Q 42.53125 40.765625 45.40625 37.90625 
Q 48.296875 35.0625 49.859375 31.109375 
Q 51.421875 27.15625 51.421875 22.40625 
" id="LiberationSans-35"/>
      </defs>
      <g style="fill:#262626;" transform="translate(283.412388393 266.246875)scale(0.1 -0.1)">
       <use xlink:href="#LiberationSans-30"/>
       <use x="55.615234375" xlink:href="#LiberationSans-2e"/>
       <use x="83.3984375" xlink:href="#LiberationSans-30"/>
       <use x="139.013671875" xlink:href="#LiberationSans-35"/>
      </g>
     </g>
    </g>
    <g id="xtick_7">
     <g id="line2d_19">
      <path clip-path="url(#p8e3b728c33)" d="M 340.971429 252 
L 340.971429 28.8 
" style="fill:none;stroke:#ffffff;stroke-linecap:round;"/>
     </g>
     <g id="line2d_20"/>
     <g id="line2d_21"/>
     <g id="text_7">
      <!-- 0.06 -->
      <defs>
       <path d="M 51.21875 22.515625 
Q 51.21875 17.328125 49.78125 13 
Q 48.34375 8.6875 45.53125 5.578125 
Q 42.71875 2.484375 38.5625 0.75 
Q 34.421875 -0.984375 29 -0.984375 
Q 23 -0.984375 18.5 1.3125 
Q 14.015625 3.609375 11.03125 7.921875 
Q 8.0625 12.25 6.5625 18.53125 
Q 5.078125 24.8125 5.078125 32.8125 
Q 5.078125 42 6.765625 48.921875 
Q 8.453125 55.859375 11.625 60.5 
Q 14.796875 65.140625 19.359375 67.484375 
Q 23.921875 69.828125 29.6875 69.828125 
Q 33.203125 69.828125 36.28125 69.09375 
Q 39.359375 68.359375 41.875 66.71875 
Q 44.390625 65.09375 46.28125 62.40625 
Q 48.1875 59.71875 49.3125 55.8125 
L 40.921875 54.296875 
Q 39.546875 58.734375 36.546875 60.71875 
Q 33.546875 62.703125 29.59375 62.703125 
Q 25.984375 62.703125 23.046875 60.984375 
Q 20.125 59.28125 18.0625 55.875 
Q 16.015625 52.484375 14.90625 47.359375 
Q 13.8125 42.234375 13.8125 35.40625 
Q 16.21875 39.84375 20.5625 42.15625 
Q 24.90625 44.484375 30.515625 44.484375 
Q 35.203125 44.484375 39.015625 42.96875 
Q 42.828125 41.453125 45.53125 38.59375 
Q 48.25 35.75 49.734375 31.671875 
Q 51.21875 27.59375 51.21875 22.515625 
M 42.28125 22.125 
Q 42.28125 25.6875 41.40625 28.5625 
Q 40.53125 31.453125 38.765625 33.46875 
Q 37.015625 35.5 34.421875 36.59375 
Q 31.84375 37.703125 28.421875 37.703125 
Q 26.03125 37.703125 23.578125 36.984375 
Q 21.140625 36.28125 19.15625 34.6875 
Q 17.1875 33.109375 15.9375 30.515625 
Q 14.703125 27.9375 14.703125 24.21875 
Q 14.703125 20.40625 15.671875 17.109375 
Q 16.65625 13.8125 18.484375 11.375 
Q 20.3125 8.9375 22.890625 7.515625 
Q 25.484375 6.109375 28.71875 6.109375 
Q 31.890625 6.109375 34.40625 7.203125 
Q 36.921875 8.296875 38.671875 10.375 
Q 40.4375 12.453125 41.359375 15.421875 
Q 42.28125 18.40625 42.28125 22.125 
" id="LiberationSans-36"/>
      </defs>
      <g style="fill:#262626;" transform="translate(331.240959821 266.246875)scale(0.1 -0.1)">
       <use xlink:href="#LiberationSans-30"/>
       <use x="55.615234375" xlink:href="#LiberationSans-2e"/>
       <use x="83.3984375" xlink:href="#LiberationSans-30"/>
       <use x="139.013671875" xlink:href="#LiberationSans-36"/>
      </g>
     </g>
    </g>
    <g id="xtick_8">
     <g id="line2d_22">
      <path clip-path="url(#p8e3b728c33)" d="M 388.8 252 
L 388.8 28.8 
" style="fill:none;stroke:#ffffff;stroke-linecap:round;"/>
     </g>
     <g id="line2d_23"/>
     <g id="line2d_24"/>
     <g id="text_8">
      <!-- 0.07 -->
      <defs>
       <path d="M 50.59375 61.671875 
Q 45.40625 53.765625 41.0625 46.453125 
Q 36.71875 39.15625 33.59375 31.75 
Q 30.46875 24.359375 28.734375 16.578125 
Q 27 8.796875 27 0 
L 17.828125 0 
Q 17.828125 8.25 19.78125 16.1875 
Q 21.734375 24.125 25.046875 31.765625 
Q 28.375 39.40625 32.765625 46.78125 
Q 37.15625 54.15625 42.09375 61.328125 
L 5.125 61.328125 
L 5.125 68.796875 
L 50.59375 68.796875 
z
" id="LiberationSans-37"/>
      </defs>
      <g style="fill:#262626;" transform="translate(379.06953125 266.246875)scale(0.1 -0.1)">
       <use xlink:href="#LiberationSans-30"/>
       <use x="55.615234375" xlink:href="#LiberationSans-2e"/>
       <use x="83.3984375" xlink:href="#LiberationSans-30"/>
       <use x="139.013671875" xlink:href="#LiberationSans-37"/>
      </g>
     </g>
    </g>
   </g>
   <g id="matplotlib.axis_2">
    <g id="ytick_1">
     <g id="line2d_25">
      <path clip-path="url(#p8e3b728c33)" d="M 54 252 
L 388.8 252 
" style="fill:none;stroke:#ffffff;stroke-linecap:round;"/>
     </g>
     <g id="line2d_26"/>
     <g id="line2d_27"/>
     <g id="text_9">
      <!-- 0 -->
      <g style="fill:#262626;" transform="translate(41.4390625 254.5859375)scale(0.1 -0.1)">
       <use xlink:href="#LiberationSans-30"/>
      </g>
     </g>
    </g>
    <g id="ytick_2">
     <g id="line2d_28">
      <path clip-path="url(#p8e3b728c33)" d="M 54 207.36 
L 388.8 207.36 
" style="fill:none;stroke:#ffffff;stroke-linecap:round;"/>
     </g>
     <g id="line2d_29"/>
     <g id="line2d_30"/>
     <g id="text_10">
      <!-- 2 -->
      <g style="fill:#262626;" transform="translate(41.4390625 209.9459375)scale(0.1 -0.1)">
       <use xlink:href="#LiberationSans-32"/>
      </g>
     </g>
    </g>
    <g id="ytick_3">
     <g id="line2d_31">
      <path clip-path="url(#p8e3b728c33)" d="M 54 162.72 
L 388.8 162.72 
" style="fill:none;stroke:#ffffff;stroke-linecap:round;"/>
     </g>
     <g id="line2d_32"/>
     <g id="line2d_33"/>
     <g id="text_11">
      <!-- 4 -->
      <g style="fill:#262626;" transform="translate(41.4390625 165.3059375)scale(0.1 -0.1)">
       <use xlink:href="#LiberationSans-34"/>
      </g>
     </g>
    </g>
    <g id="ytick_4">
     <g id="line2d_34">
      <path clip-path="url(#p8e3b728c33)" d="M 54 118.08 
L 388.8 118.08 
" style="fill:none;stroke:#ffffff;stroke-linecap:round;"/>
     </g>
     <g id="line2d_35"/>
     <g id="line2d_36"/>
     <g id="text_12">
      <!-- 6 -->
      <g style="fill:#262626;" transform="translate(41.4390625 120.6659375)scale(0.1 -0.1)">
       <use xlink:href="#LiberationSans-36"/>
      </g>
     </g>
    </g>
    <g id="ytick_5">
     <g id="line2d_37">
      <path clip-path="url(#p8e3b728c33)" d="M 54 73.44 
L 388.8 73.44 
" style="fill:none;stroke:#ffffff;stroke-linecap:round;"/>
     </g>
     <g id="line2d_38"/>
     <g id="line2d_39"/>
     <g id="text_13">
      <!-- 8 -->
      <defs>
       <path d="M 51.265625 19.1875 
Q 51.265625 14.796875 49.875 11.109375 
Q 48.484375 7.421875 45.625 4.734375 
Q 42.78125 2.046875 38.328125 0.53125 
Q 33.890625 -0.984375 27.828125 -0.984375 
Q 21.78125 -0.984375 17.359375 0.53125 
Q 12.9375 2.046875 10.03125 4.703125 
Q 7.125 7.375 5.734375 11.0625 
Q 4.34375 14.75 4.34375 19.09375 
Q 4.34375 22.859375 5.484375 25.78125 
Q 6.640625 28.71875 8.5625 30.828125 
Q 10.5 32.953125 12.96875 34.25 
Q 15.4375 35.546875 18.0625 35.984375 
L 18.0625 36.1875 
Q 15.1875 36.859375 12.90625 38.375 
Q 10.640625 39.890625 9.09375 42.015625 
Q 7.5625 44.140625 6.75 46.71875 
Q 5.953125 49.3125 5.953125 52.203125 
Q 5.953125 55.8125 7.34375 59 
Q 8.734375 62.203125 11.46875 64.625 
Q 14.203125 67.046875 18.25 68.4375 
Q 22.3125 69.828125 27.640625 69.828125 
Q 33.25 69.828125 37.375 68.40625 
Q 41.5 67 44.203125 64.578125 
Q 46.921875 62.15625 48.234375 58.9375 
Q 49.5625 55.71875 49.5625 52.09375 
Q 49.5625 49.265625 48.75 46.671875 
Q 47.953125 44.09375 46.40625 41.96875 
Q 44.875 39.84375 42.59375 38.34375 
Q 40.328125 36.859375 37.359375 36.28125 
L 37.359375 36.078125 
Q 40.328125 35.59375 42.859375 34.296875 
Q 45.40625 33.015625 47.265625 30.890625 
Q 49.125 28.765625 50.1875 25.828125 
Q 51.265625 22.90625 51.265625 19.1875 
M 40.4375 51.609375 
Q 40.4375 54.203125 39.765625 56.34375 
Q 39.109375 58.5 37.59375 60.03125 
Q 36.078125 61.578125 33.640625 62.421875 
Q 31.203125 63.28125 27.640625 63.28125 
Q 24.171875 63.28125 21.78125 62.421875 
Q 19.390625 61.578125 17.84375 60.03125 
Q 16.3125 58.5 15.625 56.34375 
Q 14.9375 54.203125 14.9375 51.609375 
Q 14.9375 49.5625 15.46875 47.40625 
Q 16.015625 45.265625 17.421875 43.5 
Q 18.84375 41.75 21.328125 40.625 
Q 23.828125 39.5 27.734375 39.5 
Q 31.890625 39.5 34.40625 40.625 
Q 36.921875 41.75 38.25 43.5 
Q 39.59375 45.265625 40.015625 47.40625 
Q 40.4375 49.5625 40.4375 51.609375 
M 42.140625 20.015625 
Q 42.140625 22.515625 41.453125 24.828125 
Q 40.765625 27.15625 39.109375 28.9375 
Q 37.453125 30.71875 34.640625 31.8125 
Q 31.84375 32.90625 27.640625 32.90625 
Q 23.78125 32.90625 21.0625 31.8125 
Q 18.359375 30.71875 16.671875 28.90625 
Q 14.984375 27.09375 14.203125 24.71875 
Q 13.421875 22.359375 13.421875 19.828125 
Q 13.421875 16.65625 14.203125 14.03125 
Q 14.984375 11.421875 16.6875 9.546875 
Q 18.40625 7.671875 21.1875 6.640625 
Q 23.96875 5.609375 27.9375 5.609375 
Q 31.9375 5.609375 34.671875 6.640625 
Q 37.40625 7.671875 39.0625 9.546875 
Q 40.71875 11.421875 41.421875 14.078125 
Q 42.140625 16.75 42.140625 20.015625 
" id="LiberationSans-38"/>
      </defs>
      <g style="fill:#262626;" transform="translate(41.4390625 76.0259375)scale(0.1 -0.1)">
       <use xlink:href="#LiberationSans-38"/>
      </g>
     </g>
    </g>
    <g id="ytick_6">
     <g id="line2d_40">
      <path clip-path="url(#p8e3b728c33)" d="M 54 28.8 
L 388.8 28.8 
" style="fill:none;stroke:#ffffff;stroke-linecap:round;"/>
     </g>
     <g id="line2d_41"/>
     <g id="line2d_42"/>
     <g id="text_14">
      <!-- 10 -->
      <g style="fill:#262626;" transform="translate(35.878125 31.3859375)scale(0.1 -0.1)">
       <use xlink:href="#LiberationSans-31"/>
       <use x="55.615234375" xlink:href="#LiberationSans-30"/>
      </g>
     </g>
    </g>
   </g>
   <g id="line2d_43">
    <path clip-path="url(#p8e3b728c33)" d="M 54 251.790821 
L 54.425143 249.977518 
L 54.850286 247.989877 
L 55.488 246.243984 
L 56.338286 242.632542 
L 56.763429 241.36856 
L 56.976 241.106992 
L 57.188571 241.305684 
L 57.401143 241.104581 
L 57.826286 239.497742 
L 58.889143 232.561289 
L 59.101714 232.847498 
L 59.314286 232.928096 
L 59.739429 232.831205 
L 60.164571 233.40648 
L 61.014857 234.662561 
L 61.227429 233.974859 
L 62.077714 227.606249 
L 62.290286 228.072737 
L 62.502857 227.598214 
L 62.928 225.192787 
L 63.778286 216.982375 
L 64.203429 217.317622 
L 64.628571 216.428616 
L 64.841143 216.437544 
L 65.053714 217.113617 
L 65.266286 217.131696 
L 65.691429 215.687369 
L 65.904 215.630676 
L 66.116571 216.034668 
L 66.329143 215.034062 
L 67.179429 206.92967 
L 67.392 206.861148 
L 67.604571 207.545926 
L 67.817143 206.786599 
L 68.667429 198.826841 
L 68.88 199.175256 
L 69.092571 199.93927 
L 69.305143 199.853338 
L 69.517714 199.522332 
L 69.730286 199.428811 
L 70.155429 200.714443 
L 70.368 200.503073 
L 70.580571 200.040826 
L 70.793143 199.86115 
L 71.218286 201.274452 
L 71.430857 200.930054 
L 71.856 197.783604 
L 72.493714 192.485282 
L 72.706286 191.70743 
L 73.131429 192.859366 
L 73.556571 191.030688 
L 73.769143 190.105078 
L 73.981714 189.753984 
L 74.194286 190.050617 
L 74.832 192.849991 
L 75.044571 193.086137 
L 75.469714 192.500014 
L 75.894857 192.056962 
L 76.107429 192.335962 
L 76.32 193.497494 
L 76.532571 194.01197 
L 76.745143 193.646146 
L 76.957714 192.708482 
L 77.170286 191.089836 
L 77.595429 185.278378 
L 78.020571 179.604634 
L 78.233143 178.990834 
L 78.445714 180.453686 
L 78.658286 180.116654 
L 79.508571 173.076703 
L 79.721143 172.780517 
L 79.933714 172.695701 
L 80.146286 173.049919 
L 80.571429 175.272098 
L 80.784 175.519627 
L 80.996571 175.541501 
L 81.209143 176.010667 
L 81.421714 177.057698 
L 81.846857 179.484106 
L 82.059429 179.528746 
L 82.484571 179.008466 
L 82.697143 179.512006 
L 83.122286 181.639771 
L 83.334857 181.236672 
L 83.547429 179.804174 
L 84.397714 169.872444 
L 84.610286 169.792315 
L 84.822857 171.044914 
L 85.035429 169.805261 
L 85.673143 162.170035 
L 86.098286 160.159673 
L 86.310857 160.187573 
L 86.948571 162.869544 
L 87.373714 161.120326 
L 87.586286 161.010065 
L 88.011429 163.403885 
L 88.224 162.92021 
L 88.649143 158.587452 
L 89.074286 154.509588 
L 89.286857 154.884787 
L 89.499429 156.377549 
L 89.712 155.294136 
L 90.137143 147.922956 
L 90.774857 133.773862 
L 90.987429 131.932238 
L 91.2 133.598873 
L 91.412571 133.51428 
L 92.262857 121.848509 
L 92.475429 121.764362 
L 92.688 123.006024 
L 93.325714 129.461414 
L 93.538286 130.215607 
L 93.963429 130.574959 
L 94.176 131.48383 
L 94.813714 136.657382 
L 95.026286 136.819872 
L 95.238857 136.099382 
L 95.876571 131.354374 
L 96.089143 131.397005 
L 96.301714 133.468524 
L 96.514286 134.416231 
L 96.726857 133.306258 
L 98.214857 116.642369 
L 98.64 118.282442 
L 99.277714 108.958932 
L 99.490286 108.67145 
L 99.915429 111.826382 
L 100.340571 115.735284 
L 100.765714 120.800362 
L 101.190857 124.594985 
L 102.041143 134.567114 
L 103.104 144.362246 
L 103.529143 145.897416 
L 103.741714 145.896746 
L 103.954286 145.771978 
L 104.166857 146.125526 
L 104.379429 147.373884 
L 104.804571 151.402198 
L 105.017143 152.554133 
L 105.229714 152.790725 
L 105.442286 151.621603 
L 105.654857 148.623134 
L 106.08 137.482999 
L 106.505143 127.624255 
L 106.717714 127.958832 
L 106.930286 128.818822 
L 107.355429 122.989284 
L 107.780571 117.6057 
L 108.205714 115.269689 
L 108.418286 114.611918 
L 108.630857 114.443626 
L 108.843429 115.164115 
L 109.268571 119.534148 
L 109.481143 120.229193 
L 109.693714 120.212006 
L 110.118857 119.868725 
L 110.331429 119.796185 
L 110.544 120.163126 
L 110.756571 121.44407 
L 111.181714 125.76433 
L 111.394286 126.266083 
L 111.606857 126.240638 
L 111.819429 126.055606 
L 112.244571 125.17709 
L 112.669714 123.464254 
L 112.882286 123.071422 
L 113.094857 123.923822 
L 113.307429 126.513166 
L 113.52 127.642558 
L 113.732571 127.184551 
L 114.582857 121.831769 
L 115.008 115.997767 
L 115.858286 100.342742 
L 116.070857 102.542378 
L 116.283429 101.758277 
L 116.708571 88.401096 
L 117.133714 75.600353 
L 117.346286 73.12819 
L 117.558857 73.028642 
L 117.771429 74.961108 
L 117.984 78.853716 
L 118.196571 80.226619 
L 118.409143 79.364398 
L 118.834286 75.986712 
L 119.046857 76.152103 
L 119.259429 78.173626 
L 119.684571 84.702895 
L 119.897143 86.512824 
L 120.109714 87.246036 
L 120.322286 87.225278 
L 120.534857 87.065244 
L 120.747429 87.37326 
L 120.96 88.614698 
L 121.385143 94.419684 
L 122.660571 109.690805 
L 123.085714 112.345769 
L 123.723429 118.327306 
L 123.936 118.473055 
L 124.361143 117.826445 
L 124.573714 118.273068 
L 124.786286 119.806898 
L 125.424 126.655567 
L 125.636571 127.016258 
L 125.849143 125.626392 
L 126.274286 116.987213 
L 126.486857 111.983292 
L 126.699429 110.182291 
L 126.912 112.745966 
L 127.124571 109.547287 
L 127.762286 93.431578 
L 127.974857 92.27183 
L 128.187429 92.726266 
L 128.4 93.918154 
L 128.825143 98.557589 
L 129.250286 103.138546 
L 129.675429 106.291915 
L 131.376 124.788722 
L 131.801143 126.174794 
L 132.013714 127.72291 
L 132.438857 132.294938 
L 132.864 135.81257 
L 133.926857 146.960294 
L 134.139429 147.94483 
L 134.352 147.685471 
L 134.564571 147.067207 
L 134.777143 147.282595 
L 134.989714 149.526425 
L 135.202286 149.772614 
L 135.627429 147.799526 
L 135.84 148.083883 
L 136.265143 151.849937 
L 136.690286 154.817158 
L 137.115429 157.16723 
L 137.328 158.93743 
L 137.540571 159.21509 
L 137.753143 157.918522 
L 137.965714 154.516061 
L 138.390857 138.689172 
L 138.816 124.968175 
L 139.028571 126.892159 
L 139.241143 121.130251 
L 139.666286 103.965278 
L 140.091429 95.940346 
L 140.516571 92.800368 
L 140.729143 93.936679 
L 140.941714 96.840958 
L 141.154286 96.994296 
L 141.579429 94.90626 
L 141.792 95.315832 
L 142.004571 97.17732 
L 142.642286 105.358939 
L 142.854857 105.995952 
L 143.067429 105.264972 
L 143.28 103.900774 
L 143.492571 103.402145 
L 143.705143 104.70407 
L 144.130286 109.978286 
L 144.555429 112.34934 
L 144.768 112.574995 
L 145.193143 111.894905 
L 145.405714 112.308271 
L 145.618286 113.83429 
L 146.043429 118.974586 
L 146.256 119.909794 
L 146.468571 118.691791 
L 146.893714 113.633633 
L 147.106286 114.172661 
L 147.318857 116.475638 
L 147.531429 116.424972 
L 147.744 115.973215 
L 147.956571 116.153561 
L 148.169143 117.340315 
L 148.594286 121.371754 
L 148.806857 121.147214 
L 149.019429 120.735634 
L 149.232 121.711018 
L 149.444571 124.613734 
L 149.657143 125.918338 
L 149.869714 125.787319 
L 150.082286 123.994577 
L 150.507429 114.9831 
L 151.357714 85.976251 
L 151.570286 88.611574 
L 151.782857 84.295109 
L 152.633143 45.33845 
L 152.845714 43.35331 
L 153.058286 44.816609 
L 153.270857 49.287082 
L 153.483429 50.357995 
L 153.696 48.902285 
L 154.121143 44.568634 
L 154.333714 45.008338 
L 155.184 56.756023 
L 155.396571 57.426293 
L 155.609143 56.67143 
L 155.821714 55.333793 
L 156.034286 54.75749 
L 156.246857 56.02549 
L 156.884571 64.632082 
L 158.372571 69.016399 
L 159.010286 76.06818 
L 159.222857 76.009255 
L 159.435429 75.660394 
L 159.648 75.672223 
L 159.860571 76.236026 
L 160.073143 77.418986 
L 160.285714 79.471087 
L 160.710857 85.418698 
L 161.136 87.477941 
L 161.561143 92.449274 
L 161.986286 94.863629 
L 162.198857 98.281044 
L 162.411429 99.79925 
L 162.836571 100.663481 
L 163.049143 100.494072 
L 163.261714 99.336557 
L 163.686857 96.02717 
L 163.899429 94.899341 
L 164.112 92.876256 
L 164.537143 85.369147 
L 164.749714 85.304419 
L 164.962286 86.028257 
L 165.174857 79.768836 
L 165.812571 52.050298 
L 166.025143 49.720982 
L 166.662857 55.91813 
L 167.088 55.952503 
L 167.300571 56.452248 
L 167.513143 57.959071 
L 167.938286 64.669356 
L 168.363429 71.243935 
L 168.576 72.802541 
L 168.788571 72.947844 
L 169.213714 71.77225 
L 169.426286 72.231149 
L 169.638857 74.310926 
L 170.064 80.425714 
L 170.276571 81.369403 
L 170.489143 81.710676 
L 170.701714 81.818482 
L 171.126857 81.842364 
L 171.339429 82.393222 
L 171.552 83.77483 
L 171.977143 89.381167 
L 172.402286 93.850301 
L 172.827429 95.991905 
L 173.465143 100.535364 
L 173.677714 101.114568 
L 173.890286 102.046428 
L 175.165714 115.666315 
L 175.378286 117.38741 
L 175.803429 122.325934 
L 176.016 123.550855 
L 176.228571 123.58679 
L 176.866286 119.875644 
L 177.078857 119.925641 
L 177.716571 122.045818 
L 177.929143 121.905425 
L 178.141714 120.278297 
L 178.779429 110.738729 
L 178.992 113.491901 
L 179.204571 109.625854 
L 179.842286 84.113424 
L 180.054857 80.5824 
L 180.267429 81.06228 
L 180.692571 86.662368 
L 181.117714 88.141514 
L 181.330286 88.602422 
L 181.542857 89.416433 
L 181.755429 91.033963 
L 182.818286 103.116002 
L 183.030857 102.932978 
L 183.456 100.877083 
L 183.668571 100.830881 
L 184.093714 105.040433 
L 184.306286 105.185066 
L 184.731429 103.296794 
L 184.944 103.02583 
L 185.156571 103.52178 
L 185.581714 105.554686 
L 185.794286 106.996111 
L 186.219429 111.860309 
L 186.432 112.524775 
L 186.644571 112.104936 
L 186.857143 112.044672 
L 187.069714 113.470027 
L 187.494857 118.220616 
L 188.132571 121.63513 
L 188.982857 130.699058 
L 189.408 131.876885 
L 189.833143 135.603209 
L 190.045714 136.002067 
L 190.258286 135.524196 
L 190.683429 132.717456 
L 191.108571 129.543106 
L 191.321143 129.306067 
L 191.533714 130.030128 
L 191.958857 133.049131 
L 192.384 136.412532 
L 192.596571 135.90743 
L 192.809143 132.429082 
L 193.234286 123.168067 
L 193.446857 124.697434 
L 193.659429 121.905648 
L 194.509714 91.916719 
L 194.722286 92.247055 
L 194.934857 95.802185 
L 195.36 98.540402 
L 195.785143 100.775081 
L 196.210286 104.723935 
L 196.635429 109.928959 
L 197.060571 112.269881 
L 197.273143 112.401122 
L 197.698286 111.298068 
L 197.910857 112.071233 
L 198.123429 114.936228 
L 198.336 116.089726 
L 198.548571 115.572794 
L 199.186286 111.983292 
L 199.398857 112.500223 
L 199.824 116.439926 
L 200.674286 126.034848 
L 201.312 129.283301 
L 202.374857 139.225745 
L 202.8 141.649697 
L 203.225143 144.146189 
L 203.437714 144.122083 
L 203.650286 143.633945 
L 203.862857 143.728582 
L 204.075429 145.117109 
L 204.288 147.266748 
L 204.500571 148.276282 
L 204.713143 148.213339 
L 204.925714 147.049798 
L 205.350857 143.339098 
L 205.563429 142.413934 
L 205.776 142.60901 
L 205.988571 143.789069 
L 207.051429 152.513734 
L 207.264 151.033694 
L 207.689143 141.351502 
L 207.901714 135.660794 
L 208.114286 133.312061 
L 208.326857 134.883612 
L 208.539429 129.827462 
L 209.177143 104.228431 
L 209.389714 101.868538 
L 209.814857 105.445987 
L 210.24 105.522545 
L 210.452571 106.32294 
L 210.877714 110.947421 
L 211.302857 115.476149 
L 211.515429 115.763184 
L 211.728 114.689815 
L 212.153143 111.675276 
L 212.365714 112.109623 
L 212.578286 114.996715 
L 212.790857 115.961609 
L 213.003429 115.204514 
L 213.428571 113.012467 
L 213.641143 113.022958 
L 213.853714 114.016644 
L 214.278857 117.886709 
L 216.192 138.847644 
L 216.617143 140.507582 
L 217.042286 143.994859 
L 217.254857 144.502193 
L 217.467429 144.206676 
L 217.892571 142.704763 
L 218.317714 141.337886 
L 218.530286 141.632287 
L 218.742857 142.999834 
L 218.955429 145.296562 
L 219.168 146.320603 
L 219.380571 146.250965 
L 219.805714 144.098201 
L 220.018286 142.912339 
L 220.230857 142.365499 
L 220.443429 142.990906 
L 221.931429 154.807114 
L 222.144 154.678774 
L 222.356571 152.166658 
L 222.781714 139.002322 
L 223.206857 127.713535 
L 223.419429 130.007362 
L 223.632 124.709486 
L 224.269714 95.310252 
L 224.482286 92.177194 
L 224.907429 95.903518 
L 225.332571 96.657264 
L 225.757714 99.039478 
L 225.970286 100.768608 
L 226.395429 105.830561 
L 226.608 106.095722 
L 227.245714 102.358685 
L 227.458286 103.544993 
L 227.670857 106.672694 
L 227.883429 107.668613 
L 228.308571 107.587145 
L 228.521143 108.228622 
L 228.946286 111.408552 
L 229.584 118.290031 
L 230.009143 122.558954 
L 230.434286 126.04333 
L 231.072 132.583982 
L 231.284571 133.463837 
L 231.709714 134.052638 
L 231.922286 135.014184 
L 232.56 140.527224 
L 232.772571 140.733014 
L 232.985143 139.541573 
L 233.622857 131.854565 
L 233.835429 131.40571 
L 234.260571 134.467567 
L 234.473143 133.761362 
L 234.898286 130.682988 
L 235.110857 130.050662 
L 235.323429 130.732538 
L 236.598857 141.73853 
L 237.024 144.824494 
L 237.236571 147.18528 
L 237.449143 148.245703 
L 237.661714 147.65958 
L 237.874286 145.268885 
L 238.299429 136.433736 
L 238.937143 121.050122 
L 239.149714 121.169981 
L 239.362286 120.784514 
L 239.574857 114.147886 
L 240.212571 86.19655 
L 240.425143 83.944015 
L 240.637714 86.735578 
L 240.850286 87.667438 
L 241.275429 85.373165 
L 241.488 85.160678 
L 241.700571 86.348772 
L 242.338286 93.822178 
L 242.550857 94.039798 
L 242.976 92.637878 
L 243.188571 92.558866 
L 243.401143 93.805661 
L 243.826286 99.163577 
L 244.251429 100.868602 
L 244.464 101.531729 
L 244.889143 104.165712 
L 245.526857 111.190039 
L 245.952 116.537242 
L 246.589714 123.401311 
L 247.014857 127.161562 
L 247.227429 127.93428 
L 247.652571 128.482236 
L 247.865143 129.357403 
L 248.502857 134.779378 
L 248.715429 135.106142 
L 248.928 134.591666 
L 249.353143 131.151262 
L 249.778286 127.81085 
L 249.990857 128.426213 
L 250.203429 130.98029 
L 250.416 131.280048 
L 251.053714 127.536538 
L 251.266286 127.802815 
L 251.478857 129.38441 
L 251.904 133.818278 
L 252.754286 139.190479 
L 253.179429 143.153618 
L 253.392 143.900892 
L 253.604571 143.982583 
L 253.817143 143.368783 
L 255.092571 136.078848 
L 255.517714 131.409504 
L 255.730286 130.789454 
L 255.942857 132.515683 
L 256.155429 128.537813 
L 256.793143 103.212871 
L 257.005714 101.018592 
L 257.218286 103.892069 
L 257.430857 104.246734 
L 257.643429 103.409957 
L 257.856 103.274921 
L 258.068571 104.645369 
L 259.131429 116.678527 
L 259.344 115.726579 
L 259.769143 112.005389 
L 259.981714 112.07034 
L 260.406857 116.161819 
L 260.619429 116.485459 
L 260.832 116.357566 
L 261.044571 116.43323 
L 261.469714 117.66775 
L 261.894857 120.220488 
L 262.32 124.890502 
L 262.957714 129.009658 
L 263.595429 135.800518 
L 264.020571 137.868242 
L 264.233143 138.365978 
L 264.445714 139.431535 
L 264.870857 143.388871 
L 265.296 145.552126 
L 265.508571 146.11883 
L 265.721143 145.761934 
L 265.933714 144.245959 
L 266.571429 138.177598 
L 266.784 139.150303 
L 266.996571 140.814706 
L 267.209143 140.419642 
L 267.846857 136.471234 
L 268.059429 136.797998 
L 268.484571 140.816045 
L 269.334857 148.934275 
L 269.972571 154.312502 
L 270.185143 154.755108 
L 270.397714 154.437271 
L 270.822857 153.071957 
L 271.035429 152.948081 
L 271.460571 153.653839 
L 271.673143 153.596254 
L 271.885714 152.76595 
L 272.098286 150.805807 
L 272.736 140.798635 
L 272.948571 143.144244 
L 273.161143 139.360558 
L 274.011429 108.411869 
L 274.224 109.145527 
L 274.436571 111.36659 
L 274.649143 111.729737 
L 274.861714 111.576398 
L 275.074286 111.77527 
L 275.286857 112.148906 
L 275.499429 112.826318 
L 275.712 114.430457 
L 275.924571 116.933645 
L 276.137143 117.012434 
L 276.774857 112.837255 
L 276.987429 113.560423 
L 277.412571 117.960365 
L 277.625143 118.683533 
L 277.837714 118.734646 
L 278.475429 118.112364 
L 278.688 118.411452 
L 278.900571 119.688156 
L 279.538286 126.311393 
L 280.176 131.340758 
L 280.813714 137.987431 
L 281.238857 139.933066 
L 281.451429 140.901307 
L 281.876571 144.891007 
L 282.301714 148.06067 
L 282.514286 148.793659 
L 282.726857 148.471358 
L 283.152 144.892346 
L 283.577143 141.11424 
L 283.789714 141.178298 
L 284.002286 143.633052 
L 284.214857 143.639078 
L 284.852571 138.53003 
L 285.065143 138.344328 
L 285.277714 139.569473 
L 285.702857 143.581493 
L 286.553143 148.116024 
L 286.765714 150.323026 
L 286.978286 151.235467 
L 287.190857 151.195738 
L 287.403429 150.86808 
L 287.616 150.845537 
L 287.828571 151.395055 
L 288.041143 152.492753 
L 288.891429 159.191878 
L 289.104 159.405034 
L 289.316571 158.717131 
L 289.529143 156.64963 
L 290.166857 146.48287 
L 290.379429 148.293022 
L 290.592 144.007582 
L 291.229714 119.987021 
L 291.442286 117.328932 
L 291.654857 118.35275 
L 291.867429 120.52337 
L 292.08 120.849912 
L 292.717714 119.431253 
L 292.930286 119.858681 
L 293.355429 123.740798 
L 293.568 123.841238 
L 293.993143 122.387537 
L 294.205714 122.431507 
L 294.418286 123.516929 
L 294.843429 127.894774 
L 295.056 128.886674 
L 295.481143 129.503376 
L 295.906286 130.009817 
L 296.118857 130.753742 
L 296.331429 132.244495 
L 296.756571 136.709388 
L 297.606857 142.529551 
L 298.244571 149.03851 
L 298.669714 151.004902 
L 298.882286 151.717356 
L 299.094857 153.027986 
L 299.52 156.712126 
L 299.945143 158.35019 
L 300.157714 158.16739 
L 300.795429 155.515327 
L 301.008 155.403504 
L 301.220571 155.874456 
L 301.645714 158.8977 
L 301.858286 159.020906 
L 302.496 155.895214 
L 302.708571 155.82245 
L 302.921143 156.873276 
L 303.133714 158.890111 
L 303.346286 159.756127 
L 303.771429 160.407425 
L 303.984 161.530121 
L 304.196571 163.32331 
L 304.409143 164.075494 
L 304.621714 163.985098 
L 305.259429 162.507737 
L 305.472 162.582509 
L 305.684571 163.58981 
L 305.897143 165.177209 
L 306.322286 166.2633 
L 306.747429 168.618283 
L 306.96 168.390396 
L 307.172571 167.362114 
L 307.385143 165.494376 
L 308.022857 156.137832 
L 308.235429 156.49763 
L 308.448 155.845886 
L 308.873143 142.907652 
L 309.298286 129.818088 
L 309.510857 128.230913 
L 309.936 131.233399 
L 310.148571 131.178269 
L 310.361143 130.824497 
L 310.573714 130.910206 
L 310.786286 131.685826 
L 311.424 137.181902 
L 311.636571 137.682986 
L 311.849143 137.620714 
L 312.061714 137.400415 
L 312.274286 137.591251 
L 312.486857 138.906346 
L 312.912 142.600975 
L 314.4 149.427324 
L 315.462857 158.48478 
L 316.313143 165.051994 
L 316.525714 165.405542 
L 316.738286 165.495938 
L 316.950857 166.00662 
L 317.376 169.190791 
L 317.801143 171.78817 
L 318.013714 172.268496 
L 318.226286 171.984362 
L 318.651429 170.923493 
L 318.864 171.017906 
L 319.289143 172.021637 
L 319.501714 172.918454 
L 319.714286 174.657406 
L 319.926857 175.243529 
L 320.139429 174.86766 
L 320.564571 173.796523 
L 320.777143 173.989591 
L 320.989714 174.958056 
L 321.414857 177.683328 
L 322.052571 179.564011 
L 322.477714 181.936404 
L 322.690286 182.087064 
L 323.328 179.91689 
L 323.540571 180.061301 
L 324.816 186.120511 
L 325.241143 188.218591 
L 325.453714 187.902763 
L 325.666286 186.83118 
L 326.091429 182.604888 
L 326.516571 175.667162 
L 326.729143 174.306535 
L 326.941714 175.167641 
L 327.154286 171.597334 
L 327.792 154.274558 
L 328.004571 151.751729 
L 328.217143 151.407554 
L 328.429714 152.740058 
L 328.854857 156.191177 
L 329.067429 157.137545 
L 329.28 157.510512 
L 329.492571 157.593766 
L 329.705143 157.938833 
L 330.768 164.550686 
L 331.193143 165.557988 
L 331.405714 166.073803 
L 331.830857 168.628104 
L 332.256 170.949607 
L 332.893714 171.81607 
L 333.318857 173.293207 
L 333.744 175.599533 
L 334.594286 181.349165 
L 335.232 185.050937 
L 335.657143 186.880507 
L 336.72 192.543091 
L 336.932571 192.566527 
L 337.357714 191.130458 
L 337.570286 191.449634 
L 338.845714 198.013277 
L 340.121143 201.606574 
L 340.546286 201.382704 
L 340.758857 201.962131 
L 340.971429 202.960951 
L 341.184 203.387263 
L 341.396571 203.371862 
L 341.609143 202.787078 
L 342.246857 199.893737 
L 342.459429 200.079662 
L 342.884571 201.914366 
L 342.884571 201.914366 
" style="fill:none;stroke:#4c72b0;stroke-linecap:round;stroke-width:1.75;"/>
   </g>
   <g id="line2d_44">
    <path clip-path="url(#p8e3b728c33)" d="M 54 215.195104 
L 54.637714 217.607626 
L 54.850286 218.004621 
L 55.062857 218.138375 
L 55.275429 217.987412 
L 55.488 217.541426 
L 55.913143 215.781972 
L 56.550857 211.338512 
L 58.038857 199.427163 
L 58.464 197.572742 
L 58.676571 197.08776 
L 58.889143 196.909083 
L 59.101714 197.030009 
L 59.314286 197.43186 
L 59.739429 198.94906 
L 61.44 207.006848 
L 61.652571 207.362616 
L 61.865143 207.44753 
L 62.077714 207.249684 
L 62.502857 206.014743 
L 62.928 203.783431 
L 63.778286 197.527872 
L 64.628571 191.483894 
L 65.053714 189.413427 
L 65.478857 188.240101 
L 65.691429 188.002279 
L 65.904 187.985835 
L 66.116571 188.172288 
L 66.541714 189.046867 
L 67.392 191.823722 
L 68.029714 193.642681 
L 68.454857 194.278043 
L 68.667429 194.36842 
L 68.88 194.296899 
L 69.305143 193.671549 
L 69.730286 192.458936 
L 70.368 189.816483 
L 72.281143 181.08385 
L 72.918857 179.349381 
L 73.344 178.70687 
L 73.769143 178.479117 
L 74.194286 178.637452 
L 74.619429 179.123429 
L 75.469714 180.684911 
L 76.107429 181.822808 
L 76.532571 182.255311 
L 76.745143 182.31198 
L 76.957714 182.238574 
L 77.382857 181.648945 
L 77.808 180.424256 
L 78.445714 177.464723 
L 80.358857 166.625285 
L 80.784 165.543363 
L 80.996571 165.340222 
L 81.209143 165.369925 
L 81.421714 165.627085 
L 81.846857 166.75691 
L 82.484571 169.522835 
L 83.334857 173.312275 
L 83.76 174.368299 
L 83.972571 174.544953 
L 84.185143 174.453497 
L 84.397714 174.081133 
L 84.822857 172.498024 
L 85.460571 168.333793 
L 86.948571 156.726768 
L 87.373714 154.852353 
L 87.586286 154.350014 
L 87.798857 154.153788 
L 88.011429 154.260601 
L 88.224 154.655207 
L 88.649143 156.190085 
L 89.499429 160.927447 
L 90.137143 164.128349 
L 90.562286 165.291827 
L 90.774857 165.472491 
L 90.987429 165.361115 
L 91.2 164.953838 
L 91.625143 163.294816 
L 92.262857 159.132754 
L 93.750857 148.370297 
L 94.176 146.726676 
L 94.601143 146.095561 
L 94.813714 146.153366 
L 95.026286 146.437658 
L 95.451429 147.57019 
L 97.152 153.742995 
L 97.577143 154.211464 
L 97.789714 154.163681 
L 98.002286 153.925693 
L 98.427429 152.912841 
L 99.065143 150.31926 
L 100.978286 141.275971 
L 101.403429 140.11348 
L 101.828571 139.426028 
L 102.253714 139.194991 
L 102.678857 139.365221 
L 103.104 139.855835 
L 103.954286 141.393526 
L 104.804571 142.899785 
L 105.229714 143.333133 
L 105.654857 143.396831 
L 106.08 142.997857 
L 106.505143 142.08129 
L 106.930286 140.646313 
L 107.568 137.684056 
L 109.056 130.198768 
L 109.481143 128.974719 
L 109.906286 128.513493 
L 110.118857 128.592205 
L 110.331429 128.874775 
L 110.756571 129.996862 
L 111.394286 132.671406 
L 112.244571 136.401146 
L 112.669714 137.52577 
L 112.882286 137.767813 
L 113.094857 137.762062 
L 113.307429 137.49409 
L 113.732571 136.164834 
L 114.157714 133.871999 
L 115.008 127.52253 
L 115.858286 121.590706 
L 116.283429 119.80829 
L 116.496 119.336697 
L 116.708571 119.165239 
L 116.921143 119.294437 
L 117.133714 119.71275 
L 117.558857 121.31299 
L 118.196571 124.980534 
L 119.046857 129.866913 
L 119.472 131.299759 
L 119.684571 131.617165 
L 119.897143 131.638887 
L 120.109714 131.357437 
L 120.534857 129.915774 
L 120.96 127.467906 
L 122.873143 114.379375 
L 123.298286 113.320693 
L 123.510857 113.203207 
L 123.723429 113.352795 
L 124.148571 114.369721 
L 124.786286 117.164248 
L 125.849143 122.153115 
L 126.274286 123.264905 
L 126.486857 123.517652 
L 126.699429 123.553722 
L 126.912 123.372757 
L 127.337143 122.398113 
L 127.974857 119.722124 
L 129.675429 111.445991 
L 130.100571 110.310395 
L 130.525714 109.7544 
L 130.738286 109.687437 
L 130.950857 109.749843 
L 131.376 110.210746 
L 132.013714 111.499082 
L 133.501714 114.867586 
L 133.926857 115.384343 
L 134.352 115.542781 
L 134.777143 115.291371 
L 135.202286 114.606227 
L 135.627429 113.497724 
L 136.265143 111.167029 
L 137.965714 104.339528 
L 138.390857 103.498251 
L 138.603429 103.321597 
L 138.816 103.321505 
L 139.028571 103.501289 
L 139.453714 104.381557 
L 140.091429 106.7587 
L 141.366857 112.134798 
L 141.792 112.968759 
L 142.004571 113.059925 
L 142.217143 112.911163 
L 142.429714 112.516458 
L 142.854857 111.013177 
L 143.492571 107.311473 
L 144.768 98.969804 
L 145.193143 97.373427 
L 145.405714 96.972565 
L 145.618286 96.86031 
L 145.830857 97.040475 
L 146.256 98.235121 
L 146.681143 100.359857 
L 148.381714 110.129875 
L 148.594286 110.60539 
L 148.806857 110.78719 
L 149.019429 110.664123 
L 149.232 110.237315 
L 149.657143 108.537529 
L 150.294857 104.39723 
L 151.357714 96.787711 
L 151.782857 94.783683 
L 152.208 93.839053 
L 152.420571 93.799665 
L 152.633143 94.044969 
L 153.058286 95.311536 
L 153.696 98.61863 
L 154.758857 104.624305 
L 155.184 106.090811 
L 155.396571 106.492012 
L 155.609143 106.653386 
L 155.821714 106.573021 
L 156.034286 106.258322 
L 156.459429 104.998073 
L 157.097143 101.976882 
L 158.372571 95.636918 
L 158.797714 94.416834 
L 159.222857 93.881051 
L 159.435429 93.87169 
L 159.648 94.024037 
L 160.073143 94.753243 
L 160.710857 96.597087 
L 161.986286 100.678496 
L 162.624 101.891445 
L 163.049143 102.198721 
L 163.474286 102.081269 
L 163.899429 101.555675 
L 164.324571 100.66595 
L 164.962286 98.805736 
L 166.662857 93.482877 
L 167.088 92.834783 
L 167.300571 92.704937 
L 167.513143 92.718737 
L 167.725714 92.882082 
L 168.150857 93.658036 
L 168.576 94.982851 
L 169.426286 98.666276 
L 170.276571 102.086854 
L 170.701714 103.019308 
L 170.914286 103.195142 
L 171.126857 103.155828 
L 171.339429 102.894666 
L 171.764571 101.722201 
L 172.402286 98.620089 
L 173.677714 91.389243 
L 174.102857 90.035115 
L 174.315429 89.727306 
L 174.528 89.69157 
L 174.740571 89.934441 
L 175.165714 91.227099 
L 175.590857 93.439983 
L 177.291429 103.959582 
L 177.716571 104.927641 
L 177.929143 104.967492 
L 178.141714 104.703872 
L 178.566857 103.316994 
L 179.204571 99.568862 
L 180.48 91.275533 
L 180.905143 89.878096 
L 181.117714 89.605175 
L 181.330286 89.632474 
L 181.542857 89.957296 
L 181.968 91.430448 
L 182.605714 95.176436 
L 183.668571 102.128735 
L 184.093714 103.956364 
L 184.518857 104.817949 
L 184.731429 104.856062 
L 184.944 104.636943 
L 185.369143 103.499368 
L 186.006857 100.522392 
L 187.069714 95.022721 
L 187.494857 93.587551 
L 187.92 92.905095 
L 188.132571 92.866925 
L 188.345143 93.026681 
L 188.770286 93.886656 
L 189.408 96.191306 
L 190.896 102.271552 
L 191.321143 103.304256 
L 191.746286 103.836672 
L 191.958857 103.913096 
L 192.384 103.711059 
L 192.809143 103.097992 
L 193.446857 101.626622 
L 195.147429 97.253606 
L 195.572571 96.681599 
L 195.997714 96.51575 
L 196.210286 96.605956 
L 196.635429 97.154311 
L 197.060571 98.187142 
L 197.698286 100.502245 
L 199.186286 106.622171 
L 199.611429 107.577653 
L 199.824 107.799956 
L 200.036571 107.833196 
L 200.249143 107.671123 
L 200.674286 106.771744 
L 201.099429 105.197733 
L 202.8 97.456881 
L 203.225143 96.795806 
L 203.437714 96.833352 
L 203.650286 97.130715 
L 204.075429 98.488086 
L 204.713143 102.104534 
L 205.988571 110.676191 
L 206.413714 112.408667 
L 206.626286 112.877579 
L 206.838857 113.054771 
L 207.051429 112.934353 
L 207.264 112.522369 
L 207.689143 110.906307 
L 208.326857 107.079337 
L 209.389714 100.616691 
L 209.814857 99.285674 
L 210.027429 99.044371 
L 210.24 99.107161 
L 210.452571 99.474875 
L 210.877714 101.067926 
L 211.515429 105.105071 
L 212.790857 113.971488 
L 213.216 115.627665 
L 213.428571 116.055463 
L 213.641143 116.202694 
L 213.853714 116.073057 
L 214.066286 115.681084 
L 214.491429 114.21713 
L 215.341714 109.718137 
L 215.979429 106.498047 
L 216.404571 105.081957 
L 216.829714 104.505475 
L 217.042286 104.558419 
L 217.254857 104.835227 
L 217.68 106.000865 
L 218.317714 108.888494 
L 219.593143 115.343372 
L 220.018286 116.778062 
L 220.443429 117.613728 
L 220.656 117.798896 
L 220.868571 117.834956 
L 221.081143 117.731941 
L 221.506286 117.166076 
L 222.144 115.691419 
L 223.419429 112.427138 
L 223.844571 111.733424 
L 224.269714 111.388679 
L 224.694857 111.442121 
L 225.12 111.915705 
L 225.545143 112.802835 
L 226.182857 114.815221 
L 228.308571 122.683185 
L 228.733714 123.254305 
L 228.946286 123.300414 
L 229.158857 123.179048 
L 229.584 122.444266 
L 230.009143 121.132 
L 231.709714 114.656841 
L 232.134857 114.172175 
L 232.347429 114.262316 
L 232.56 114.589391 
L 232.985143 115.946738 
L 233.622857 119.470728 
L 235.110857 128.990453 
L 235.536 130.331131 
L 235.748571 130.59491 
L 235.961143 130.572345 
L 236.173714 130.266021 
L 236.598857 128.86928 
L 237.236571 125.334666 
L 238.299429 119.104153 
L 238.724571 117.777715 
L 238.937143 117.528778 
L 239.149714 117.581917 
L 239.362286 117.941606 
L 239.787429 119.537302 
L 240.425143 123.664473 
L 241.700571 133.046038 
L 242.125714 134.90472 
L 242.338286 135.422589 
L 242.550857 135.64754 
L 242.763429 135.580263 
L 242.976 135.233041 
L 243.401143 133.801412 
L 244.038857 130.419967 
L 244.889143 125.767637 
L 245.314286 124.26687 
L 245.739429 123.673488 
L 245.952 123.750889 
L 246.164571 124.07602 
L 246.589714 125.408446 
L 247.227429 128.68476 
L 248.502857 135.932689 
L 248.928 137.481823 
L 249.353143 138.316058 
L 249.565714 138.457839 
L 249.778286 138.425256 
L 250.203429 137.897725 
L 250.841143 136.279777 
L 252.116571 132.603159 
L 252.541714 131.885214 
L 252.966857 131.59204 
L 253.179429 131.615167 
L 253.604571 131.997709 
L 254.029714 132.798472 
L 254.667429 134.645421 
L 255.942857 139.493614 
L 256.793143 142.2801 
L 257.218286 143.151349 
L 257.643429 143.532547 
L 257.856 143.519366 
L 258.068571 143.366685 
L 258.493714 142.657518 
L 259.131429 140.76303 
L 260.406857 136.392372 
L 260.832 135.680366 
L 261.044571 135.591732 
L 261.257143 135.704938 
L 261.469714 136.029207 
L 261.894857 137.30886 
L 262.532571 140.584493 
L 264.020571 149.562009 
L 264.445714 150.889028 
L 264.658286 151.174133 
L 264.870857 151.189135 
L 265.083429 150.933648 
L 265.508571 149.663511 
L 266.146286 146.319061 
L 267.209143 140.184692 
L 267.634286 138.792306 
L 267.846857 138.493045 
L 268.059429 138.488207 
L 268.272 138.785744 
L 268.697143 140.259232 
L 269.122286 142.739795 
L 271.035429 155.663109 
L 271.460571 156.481998 
L 271.673143 156.439096 
L 271.885714 156.103021 
L 272.310857 154.645722 
L 272.948571 151.098589 
L 273.798857 146.066193 
L 274.224 144.375642 
L 274.649143 143.639256 
L 274.861714 143.671583 
L 275.074286 143.972385 
L 275.499429 145.321477 
L 276.137143 148.7675 
L 277.412571 156.481662 
L 277.837714 158.074431 
L 278.262857 158.84709 
L 278.475429 158.916626 
L 278.688 158.785761 
L 279.113143 157.996079 
L 279.750857 155.894781 
L 280.813714 152.07208 
L 281.238857 151.084352 
L 281.664 150.610529 
L 281.876571 150.580163 
L 282.089143 150.686051 
L 282.514286 151.279771 
L 282.939429 152.30937 
L 283.789714 155.200214 
L 285.065143 159.677671 
L 285.702857 161.148282 
L 286.128 161.648063 
L 286.553143 161.704986 
L 286.978286 161.30583 
L 287.403429 160.480241 
L 288.041143 158.631383 
L 289.316571 154.754338 
L 289.741714 154.154182 
L 289.954286 154.088069 
L 290.166857 154.197562 
L 290.592 154.968436 
L 291.017143 156.450874 
L 291.654857 159.704174 
L 292.930286 166.488775 
L 293.355429 167.660987 
L 293.568 167.901331 
L 293.780571 167.892112 
L 293.993143 167.630708 
L 294.418286 166.390392 
L 295.056 163.131394 
L 296.118857 156.975215 
L 296.544 155.462043 
L 296.756571 155.0789 
L 296.969143 154.977421 
L 297.181714 155.1686 
L 297.394286 155.651784 
L 297.819429 157.433047 
L 298.457143 161.634569 
L 299.52 169.209605 
L 299.945143 171.131682 
L 300.370286 171.936415 
L 300.582857 171.881376 
L 300.795429 171.525137 
L 301.220571 169.991993 
L 301.858286 166.21849 
L 302.921143 159.61413 
L 303.346286 158.114361 
L 303.558857 157.759353 
L 303.771429 157.688269 
L 303.984 157.902386 
L 304.409143 159.135398 
L 305.046857 162.549921 
L 306.322286 170.424093 
L 306.747429 171.999535 
L 307.172571 172.664838 
L 307.385143 172.642421 
L 307.597714 172.394117 
L 308.022857 171.300831 
L 308.660571 168.630637 
L 309.723429 163.92931 
L 310.148571 162.737734 
L 310.573714 162.177325 
L 310.786286 162.146287 
L 310.998857 162.276381 
L 311.424 162.975117 
L 312.061714 164.856974 
L 313.762286 170.686437 
L 314.187429 171.552683 
L 314.612571 172.018709 
L 315.037714 172.063204 
L 315.462857 171.694528 
L 315.888 170.948695 
L 316.525714 169.269916 
L 318.226286 164.330983 
L 318.651429 163.80869 
L 318.864 163.751544 
L 319.076571 163.844556 
L 319.501714 164.497245 
L 319.926857 165.746952 
L 320.564571 168.479907 
L 321.627429 173.393897 
L 322.052571 174.65952 
L 322.477714 175.15666 
L 322.690286 175.072926 
L 322.902857 174.759647 
L 323.328 173.472868 
L 323.965714 170.226747 
L 325.241143 163.073365 
L 325.666286 161.871889 
L 325.878857 161.656256 
L 326.091429 161.718545 
L 326.304 162.061196 
L 326.729143 163.541346 
L 327.366857 167.300586 
L 328.429714 174.36016 
L 328.854857 176.170205 
L 329.067429 176.680534 
L 329.28 176.895128 
L 329.492571 176.803997 
L 329.705143 176.409379 
L 330.130286 174.778987 
L 330.768 170.770359 
L 331.830857 163.511936 
L 332.256 161.707484 
L 332.468571 161.205335 
L 332.681143 160.995689 
L 332.893714 161.083222 
L 333.106286 161.460702 
L 333.531429 163.0001 
L 334.169143 166.703073 
L 335.232 173.161843 
L 335.657143 174.689009 
L 335.869714 175.091243 
L 336.082286 175.234871 
L 336.294857 175.11943 
L 336.507429 174.754468 
L 336.932571 173.359828 
L 337.570286 170.108468 
L 338.633143 164.419096 
L 339.058286 162.949328 
L 339.483429 162.219465 
L 339.696 162.145951 
L 339.908571 162.259774 
L 340.333714 162.99087 
L 340.971429 165.005575 
L 342.246857 169.585815 
L 342.672 170.564569 
L 342.884571 170.88287 
L 342.884571 170.88287 
" style="fill:none;stroke:#55a868;stroke-linecap:round;stroke-width:1.75;"/>
   </g>
   <g id="patch_3">
    <path d="M 54 252 
L 54 28.8 
" style="fill:none;"/>
   </g>
   <g id="patch_4">
    <path d="M 54 252 
L 388.8 252 
" style="fill:none;"/>
   </g>
   <g id="patch_5">
    <path d="M 54 28.8 
L 388.8 28.8 
" style="fill:none;"/>
   </g>
   <g id="patch_6">
    <path d="M 388.8 252 
L 388.8 28.8 
" style="fill:none;"/>
   </g>
   <g id="text_15">
    <!-- exp : 1, sin : 3 -->
    <defs>
     <path d="M 51.421875 26.65625 
Q 51.421875 20.65625 50.4375 15.578125 
Q 49.46875 10.5 47.1875 6.828125 
Q 44.921875 3.171875 41.1875 1.09375 
Q 37.453125 -0.984375 31.984375 -0.984375 
Q 26.3125 -0.984375 22.0625 1.171875 
Q 17.828125 3.328125 15.578125 8.203125 
L 15.328125 8.203125 
Q 15.375 8.109375 15.40625 7.328125 
Q 15.4375 6.546875 15.453125 5.375 
Q 15.484375 4.203125 15.5 2.75 
Q 15.53125 1.3125 15.53125 -0.09375 
L 15.53125 -20.75 
L 6.734375 -20.75 
L 6.734375 42.046875 
Q 6.734375 43.953125 6.703125 45.703125 
Q 6.6875 47.46875 6.640625 48.90625 
Q 6.59375 50.34375 6.546875 51.359375 
Q 6.5 52.390625 6.453125 52.828125 
L 14.9375 52.828125 
Q 14.984375 52.6875 15.0625 51.796875 
Q 15.140625 50.921875 15.203125 49.671875 
Q 15.28125 48.4375 15.359375 47.015625 
Q 15.4375 45.609375 15.4375 44.34375 
L 15.625 44.34375 
Q 16.84375 46.875 18.40625 48.65625 
Q 19.96875 50.4375 21.96875 51.578125 
Q 23.96875 52.734375 26.4375 53.25 
Q 28.90625 53.765625 31.984375 53.765625 
Q 37.453125 53.765625 41.1875 51.8125 
Q 44.921875 49.859375 47.1875 46.3125 
Q 49.46875 42.78125 50.4375 37.765625 
Q 51.421875 32.765625 51.421875 26.65625 
M 42.1875 26.46875 
Q 42.1875 31.34375 41.59375 35.15625 
Q 41.015625 38.96875 39.578125 41.59375 
Q 38.140625 44.234375 35.734375 45.59375 
Q 33.34375 46.96875 29.734375 46.96875 
Q 26.8125 46.96875 24.21875 46.140625 
Q 21.625 45.3125 19.703125 42.96875 
Q 17.78125 40.625 16.65625 36.5 
Q 15.53125 32.375 15.53125 25.78125 
Q 15.53125 20.171875 16.453125 16.28125 
Q 17.390625 12.40625 19.171875 10.015625 
Q 20.953125 7.625 23.578125 6.5625 
Q 26.21875 5.515625 29.640625 5.515625 
Q 33.296875 5.515625 35.71875 6.921875 
Q 38.140625 8.34375 39.578125 11.03125 
Q 41.015625 13.71875 41.59375 17.59375 
Q 42.1875 21.484375 42.1875 26.46875 
" id="LiberationSans-70"/>
     <path d="M 9.125 42.71875 
L 9.125 52.828125 
L 18.65625 52.828125 
L 18.65625 42.71875 
z
M 9.125 0 
L 9.125 10.109375 
L 18.65625 10.109375 
L 18.65625 0 
z
" id="LiberationSans-3a"/>
     <path d="M 18.796875 10.6875 
L 18.796875 2.484375 
Q 18.796875 -0.09375 18.578125 -2.21875 
Q 18.359375 -4.34375 17.875 -6.171875 
Q 17.390625 -8.015625 16.671875 -9.625 
Q 15.96875 -11.234375 14.984375 -12.796875 
L 8.984375 -12.796875 
Q 11.1875 -9.625 12.375 -6.390625 
Q 13.578125 -3.171875 13.578125 0 
L 9.28125 0 
L 9.28125 10.6875 
z
" id="LiberationSans-2c"/>
     <path d="M 13.484375 24.5625 
Q 13.484375 20.40625 14.328125 16.90625 
Q 15.1875 13.421875 16.96875 10.90625 
Q 18.75 8.40625 21.53125 7 
Q 24.3125 5.609375 28.21875 5.609375 
Q 33.9375 5.609375 37.375 7.90625 
Q 40.828125 10.203125 42.046875 13.71875 
L 49.75 11.53125 
Q 48.921875 9.328125 47.4375 7.109375 
Q 45.953125 4.890625 43.453125 3.09375 
Q 40.96875 1.3125 37.234375 0.15625 
Q 33.5 -0.984375 28.21875 -0.984375 
Q 16.5 -0.984375 10.375 6 
Q 4.25 12.984375 4.25 26.765625 
Q 4.25 34.1875 6.09375 39.328125 
Q 7.953125 44.484375 11.171875 47.703125 
Q 14.40625 50.921875 18.703125 52.359375 
Q 23 53.8125 27.875 53.8125 
Q 34.515625 53.8125 38.984375 51.65625 
Q 43.453125 49.515625 46.15625 45.71875 
Q 48.875 41.9375 50.015625 36.8125 
Q 51.171875 31.6875 51.171875 25.734375 
L 51.171875 24.5625 
z
M 42.09375 31.296875 
Q 41.359375 39.65625 37.84375 43.484375 
Q 34.328125 47.3125 27.734375 47.3125 
Q 25.53125 47.3125 23.109375 46.609375 
Q 20.703125 45.90625 18.65625 44.09375 
Q 16.609375 42.28125 15.1875 39.171875 
Q 13.765625 36.078125 13.578125 31.296875 
z
" id="LiberationSans-65"/>
     <path id="LiberationSans-20"/>
     <path d="M 39.109375 0 
L 24.90625 21.6875 
L 10.59375 0 
L 1.125 0 
L 19.921875 27.15625 
L 2 52.828125 
L 11.71875 52.828125 
L 24.90625 32.28125 
L 37.984375 52.828125 
L 47.796875 52.828125 
L 29.890625 27.25 
L 48.921875 0 
z
" id="LiberationSans-78"/>
     <path d="M 40.28125 0 
L 40.28125 33.5 
Q 40.28125 37.359375 39.71875 39.9375 
Q 39.15625 42.53125 37.890625 44.109375 
Q 36.625 45.703125 34.546875 46.359375 
Q 32.46875 47.015625 29.390625 47.015625 
Q 26.265625 47.015625 23.75 45.921875 
Q 21.234375 44.828125 19.453125 42.75 
Q 17.671875 40.671875 16.6875 37.625 
Q 15.71875 34.578125 15.71875 30.609375 
L 15.71875 0 
L 6.9375 0 
L 6.9375 41.546875 
Q 6.9375 43.21875 6.90625 45.046875 
Q 6.890625 46.875 6.828125 48.5 
Q 6.78125 50.140625 6.734375 51.3125 
Q 6.6875 52.484375 6.640625 52.828125 
L 14.9375 52.828125 
Q 14.984375 52.59375 15.03125 51.515625 
Q 15.09375 50.4375 15.15625 49.046875 
Q 15.234375 47.65625 15.28125 46.21875 
Q 15.328125 44.78125 15.328125 43.796875 
L 15.484375 43.796875 
Q 16.75 46.09375 18.265625 47.953125 
Q 19.78125 49.8125 21.78125 51.09375 
Q 23.78125 52.390625 26.359375 53.09375 
Q 28.953125 53.8125 32.375 53.8125 
Q 36.765625 53.8125 39.9375 52.734375 
Q 43.109375 51.65625 45.15625 49.40625 
Q 47.21875 47.171875 48.171875 43.625 
Q 49.125 40.09375 49.125 35.203125 
L 49.125 0 
z
" id="LiberationSans-6e"/>
     <path d="M 46.390625 14.59375 
Q 46.390625 10.890625 44.9375 7.984375 
Q 43.5 5.078125 40.765625 3.09375 
Q 38.03125 1.125 34.046875 0.0625 
Q 30.078125 -0.984375 24.953125 -0.984375 
Q 20.359375 -0.984375 16.671875 -0.265625 
Q 12.984375 0.4375 10.203125 2 
Q 7.421875 3.5625 5.53125 6.125 
Q 3.65625 8.6875 2.78125 12.40625 
L 10.546875 13.921875 
Q 11.671875 9.671875 15.1875 7.6875 
Q 18.703125 5.71875 24.953125 5.71875 
Q 27.78125 5.71875 30.140625 6.109375 
Q 32.515625 6.5 34.21875 7.453125 
Q 35.9375 8.40625 36.890625 9.984375 
Q 37.84375 11.578125 37.84375 13.921875 
Q 37.84375 16.3125 36.71875 17.84375 
Q 35.59375 19.390625 33.59375 20.40625 
Q 31.59375 21.4375 28.734375 22.1875 
Q 25.875 22.953125 22.46875 23.875 
Q 19.28125 24.703125 16.15625 25.734375 
Q 13.03125 26.765625 10.515625 28.4375 
Q 8.015625 30.125 6.453125 32.609375 
Q 4.890625 35.109375 4.890625 38.875 
Q 4.890625 46.09375 10.03125 49.875 
Q 15.1875 53.65625 25.046875 53.65625 
Q 33.796875 53.65625 38.9375 50.578125 
Q 44.09375 47.515625 45.453125 40.71875 
L 37.546875 39.75 
Q 37.109375 41.796875 35.9375 43.1875 
Q 34.765625 44.578125 33.109375 45.4375 
Q 31.453125 46.296875 29.375 46.65625 
Q 27.296875 47.015625 25.046875 47.015625 
Q 19.09375 47.015625 16.25 45.203125 
Q 13.421875 43.40625 13.421875 39.75 
Q 13.421875 37.59375 14.46875 36.203125 
Q 15.53125 34.8125 17.40625 33.859375 
Q 19.28125 32.90625 21.921875 32.203125 
Q 24.5625 31.5 27.734375 30.71875 
Q 29.828125 30.171875 32.03125 29.5625 
Q 34.234375 28.953125 36.296875 28.09375 
Q 38.375 27.25 40.203125 26.09375 
Q 42.046875 24.953125 43.40625 23.34375 
Q 44.78125 21.734375 45.578125 19.578125 
Q 46.390625 17.4375 46.390625 14.59375 
" id="LiberationSans-73"/>
     <path d="M 6.6875 64.0625 
L 6.6875 72.46875 
L 15.484375 72.46875 
L 15.484375 64.0625 
z
M 6.6875 0 
L 6.6875 52.828125 
L 15.484375 52.828125 
L 15.484375 0 
z
" id="LiberationSans-69"/>
    </defs>
    <g style="fill:#262626;" transform="translate(184.0490625 23.8)scale(0.12 -0.12)">
     <use xlink:href="#LiberationSans-65"/>
     <use x="55.615234375" xlink:href="#LiberationSans-78"/>
     <use x="105.615234375" xlink:href="#LiberationSans-70"/>
     <use x="161.23046875" xlink:href="#LiberationSans-20"/>
     <use x="189.013671875" xlink:href="#LiberationSans-3a"/>
     <use x="216.796875" xlink:href="#LiberationSans-20"/>
     <use x="244.580078125" xlink:href="#LiberationSans-31"/>
     <use x="300.1953125" xlink:href="#LiberationSans-2c"/>
     <use x="327.978515625" xlink:href="#LiberationSans-20"/>
     <use x="355.76171875" xlink:href="#LiberationSans-73"/>
     <use x="405.76171875" xlink:href="#LiberationSans-69"/>
     <use x="427.978515625" xlink:href="#LiberationSans-6e"/>
     <use x="483.59375" xlink:href="#LiberationSans-20"/>
     <use x="511.376953125" xlink:href="#LiberationSans-3a"/>
     <use x="539.16015625" xlink:href="#LiberationSans-20"/>
     <use x="566.943359375" xlink:href="#LiberationSans-33"/>
    </g>
   </g>
  </g>
 </g>
 <defs>
  <clipPath id="p8e3b728c33">
   <rect height="223.2" width="334.8" x="54.0" y="28.8"/>
  </clipPath>
 </defs>
</svg>
