<?xml version="1.0" encoding="utf-8" standalone="no"?>
<!DOCTYPE svg PUBLIC "-//W3C//DTD SVG 1.1//EN"
  "http://www.w3.org/Graphics/SVG/1.1/DTD/svg11.dtd">
<!-- Created with matplotlib (http://matplotlib.org/) -->
<svg height="360pt" version="1.1" viewBox="0 0 1152 360" width="1152pt" xmlns="http://www.w3.org/2000/svg" xmlns:xlink="http://www.w3.org/1999/xlink">
 <defs>
  <style type="text/css">
*{stroke-linecap:butt;stroke-linejoin:round;}
  </style>
 </defs>
 <g id="figure_1">
  <g id="patch_1">
   <path d="M 0 360 
L 1152 360 
L 1152 0 
L 0 0 
z
" style="fill:#ffffff;"/>
  </g>
  <g id="axes_1">
   <g id="patch_2">
    <path d="M 144 320.4 
L 1036.8 320.4 
L 1036.8 43.2 
L 144 43.2 
z
" style="fill:#eaeaf2;"/>
   </g>
   <g id="matplotlib.axis_1">
    <g id="xtick_1">
     <g id="line2d_1">
      <path clip-path="url(#p57cdb5603b)" d="M 184.581818 320.4 
L 184.581818 43.2 
" style="fill:none;stroke:#ffffff;stroke-linecap:round;stroke-width:0.8;"/>
     </g>
     <g id="line2d_2"/>
     <g id="text_1">
      <!-- 0.00 -->
      <defs>
       <path d="M 51.703125 34.421875 
Q 51.703125 24.515625 49.828125 17.75 
Q 47.953125 10.984375 44.703125 6.8125 
Q 41.453125 2.640625 37.0625 0.828125 
Q 32.671875 -0.984375 27.6875 -0.984375 
Q 22.65625 -0.984375 18.3125 0.828125 
Q 13.96875 2.640625 10.765625 6.78125 
Q 7.5625 10.9375 5.734375 17.703125 
Q 3.90625 24.46875 3.90625 34.421875 
Q 3.90625 44.828125 5.734375 51.640625 
Q 7.5625 58.453125 10.78125 62.5 
Q 14.015625 66.546875 18.40625 68.1875 
Q 22.796875 69.828125 27.984375 69.828125 
Q 32.90625 69.828125 37.21875 68.1875 
Q 41.546875 66.546875 44.765625 62.5 
Q 48 58.453125 49.84375 51.640625 
Q 51.703125 44.828125 51.703125 34.421875 
M 42.78125 34.421875 
Q 42.78125 42.625 41.796875 48.0625 
Q 40.828125 53.515625 38.921875 56.765625 
Q 37.015625 60.015625 34.25 61.359375 
Q 31.5 62.703125 27.984375 62.703125 
Q 24.265625 62.703125 21.4375 61.328125 
Q 18.609375 59.96875 16.671875 56.71875 
Q 14.75 53.46875 13.765625 48.015625 
Q 12.796875 42.578125 12.796875 34.421875 
Q 12.796875 26.515625 13.796875 21.09375 
Q 14.796875 15.671875 16.71875 12.375 
Q 18.65625 9.078125 21.4375 7.640625 
Q 24.21875 6.203125 27.78125 6.203125 
Q 31.25 6.203125 34.03125 7.640625 
Q 36.8125 9.078125 38.734375 12.375 
Q 40.671875 15.671875 41.71875 21.09375 
Q 42.78125 26.515625 42.78125 34.421875 
" id="LiberationSans-30"/>
       <path d="M 9.125 0 
L 9.125 10.6875 
L 18.65625 10.6875 
L 18.65625 0 
z
" id="LiberationSans-2e"/>
      </defs>
      <g style="fill:#262626;" transform="translate(176.797443 331.7975)scale(0.08 -0.08)">
       <use xlink:href="#LiberationSans-30"/>
       <use x="55.615234" xlink:href="#LiberationSans-2e"/>
       <use x="83.398438" xlink:href="#LiberationSans-30"/>
       <use x="139.013672" xlink:href="#LiberationSans-30"/>
      </g>
     </g>
    </g>
    <g id="xtick_2">
     <g id="line2d_3">
      <path clip-path="url(#p57cdb5603b)" d="M 316.174332 320.4 
L 316.174332 43.2 
" style="fill:none;stroke:#ffffff;stroke-linecap:round;stroke-width:0.8;"/>
     </g>
     <g id="line2d_4"/>
     <g id="text_2">
      <!-- 0.01 -->
      <defs>
       <path d="M 7.625 0 
L 7.625 7.46875 
L 25.140625 7.46875 
L 25.140625 60.40625 
L 9.625 49.3125 
L 9.625 57.625 
L 25.875 68.796875 
L 33.984375 68.796875 
L 33.984375 7.46875 
L 50.734375 7.46875 
L 50.734375 0 
z
" id="LiberationSans-31"/>
      </defs>
      <g style="fill:#262626;" transform="translate(308.389957 331.7975)scale(0.08 -0.08)">
       <use xlink:href="#LiberationSans-30"/>
       <use x="55.615234" xlink:href="#LiberationSans-2e"/>
       <use x="83.398438" xlink:href="#LiberationSans-30"/>
       <use x="139.013672" xlink:href="#LiberationSans-31"/>
      </g>
     </g>
    </g>
    <g id="xtick_3">
     <g id="line2d_5">
      <path clip-path="url(#p57cdb5603b)" d="M 447.766845 320.4 
L 447.766845 43.2 
" style="fill:none;stroke:#ffffff;stroke-linecap:round;stroke-width:0.8;"/>
     </g>
     <g id="line2d_6"/>
     <g id="text_3">
      <!-- 0.02 -->
      <defs>
       <path d="M 5.03125 0 
L 5.03125 6.203125 
Q 7.515625 11.921875 11.109375 16.28125 
Q 14.703125 20.65625 18.65625 24.1875 
Q 22.609375 27.734375 26.484375 30.765625 
Q 30.375 33.796875 33.5 36.8125 
Q 36.625 39.84375 38.546875 43.15625 
Q 40.484375 46.484375 40.484375 50.6875 
Q 40.484375 53.609375 39.59375 55.828125 
Q 38.71875 58.0625 37.0625 59.5625 
Q 35.40625 61.078125 33.078125 61.828125 
Q 30.765625 62.59375 27.9375 62.59375 
Q 25.296875 62.59375 22.96875 61.859375 
Q 20.65625 61.140625 18.84375 59.671875 
Q 17.046875 58.203125 15.890625 56.03125 
Q 14.75 53.859375 14.40625 50.984375 
L 5.421875 51.8125 
Q 5.859375 55.515625 7.46875 58.78125 
Q 9.078125 62.0625 11.90625 64.53125 
Q 14.75 67 18.71875 68.40625 
Q 22.703125 69.828125 27.9375 69.828125 
Q 33.0625 69.828125 37.0625 68.609375 
Q 41.0625 67.390625 43.8125 64.984375 
Q 46.578125 62.59375 48.046875 59.078125 
Q 49.515625 55.5625 49.515625 50.984375 
Q 49.515625 47.515625 48.265625 44.390625 
Q 47.015625 41.265625 44.9375 38.421875 
Q 42.875 35.59375 40.140625 32.953125 
Q 37.40625 30.328125 34.421875 27.8125 
Q 31.453125 25.296875 28.421875 22.828125 
Q 25.390625 20.359375 22.71875 17.859375 
Q 20.0625 15.375 17.96875 12.8125 
Q 15.875 10.25 14.703125 7.46875 
L 50.59375 7.46875 
L 50.59375 0 
z
" id="LiberationSans-32"/>
      </defs>
      <g style="fill:#262626;" transform="translate(439.98247 331.7975)scale(0.08 -0.08)">
       <use xlink:href="#LiberationSans-30"/>
       <use x="55.615234" xlink:href="#LiberationSans-2e"/>
       <use x="83.398438" xlink:href="#LiberationSans-30"/>
       <use x="139.013672" xlink:href="#LiberationSans-32"/>
      </g>
     </g>
    </g>
    <g id="xtick_4">
     <g id="line2d_7">
      <path clip-path="url(#p57cdb5603b)" d="M 579.359358 320.4 
L 579.359358 43.2 
" style="fill:none;stroke:#ffffff;stroke-linecap:round;stroke-width:0.8;"/>
     </g>
     <g id="line2d_8"/>
     <g id="text_4">
      <!-- 0.03 -->
      <defs>
       <path d="M 51.21875 19 
Q 51.21875 14.265625 49.671875 10.546875 
Q 48.140625 6.84375 45.1875 4.265625 
Q 42.234375 1.703125 37.859375 0.359375 
Q 33.5 -0.984375 27.875 -0.984375 
Q 21.484375 -0.984375 17.109375 0.609375 
Q 12.75 2.203125 9.90625 4.8125 
Q 7.078125 7.421875 5.65625 10.765625 
Q 4.25 14.109375 3.8125 17.671875 
L 12.890625 18.5 
Q 13.28125 15.765625 14.328125 13.515625 
Q 15.375 11.28125 17.1875 9.671875 
Q 19 8.0625 21.625 7.171875 
Q 24.265625 6.296875 27.875 6.296875 
Q 34.515625 6.296875 38.296875 9.5625 
Q 42.09375 12.84375 42.09375 19.28125 
Q 42.09375 23.09375 40.40625 25.40625 
Q 38.71875 27.734375 36.203125 29.03125 
Q 33.6875 30.328125 30.734375 30.765625 
Q 27.78125 31.203125 25.296875 31.203125 
L 20.3125 31.203125 
L 20.3125 38.8125 
L 25.09375 38.8125 
Q 27.59375 38.8125 30.265625 39.328125 
Q 32.953125 39.84375 35.171875 41.1875 
Q 37.40625 42.53125 38.84375 44.828125 
Q 40.28125 47.125 40.28125 50.6875 
Q 40.28125 56.203125 37.03125 59.390625 
Q 33.796875 62.59375 27.390625 62.59375 
Q 21.578125 62.59375 17.984375 59.609375 
Q 14.40625 56.640625 13.8125 51.21875 
L 4.984375 51.90625 
Q 5.515625 56.453125 7.46875 59.8125 
Q 9.421875 63.1875 12.421875 65.40625 
Q 15.4375 67.625 19.28125 68.71875 
Q 23.140625 69.828125 27.484375 69.828125 
Q 33.25 69.828125 37.390625 68.375 
Q 41.546875 66.9375 44.1875 64.46875 
Q 46.828125 62.015625 48.0625 58.6875 
Q 49.3125 55.375 49.3125 51.609375 
Q 49.3125 48.578125 48.484375 45.9375 
Q 47.65625 43.3125 45.890625 41.203125 
Q 44.140625 39.109375 41.421875 37.59375 
Q 38.71875 36.078125 34.90625 35.296875 
L 34.90625 35.109375 
Q 39.0625 34.671875 42.140625 33.21875 
Q 45.21875 31.78125 47.21875 29.625 
Q 49.21875 27.484375 50.21875 24.75 
Q 51.21875 22.015625 51.21875 19 
" id="LiberationSans-33"/>
      </defs>
      <g style="fill:#262626;" transform="translate(571.574983 331.7975)scale(0.08 -0.08)">
       <use xlink:href="#LiberationSans-30"/>
       <use x="55.615234" xlink:href="#LiberationSans-2e"/>
       <use x="83.398438" xlink:href="#LiberationSans-30"/>
       <use x="139.013672" xlink:href="#LiberationSans-33"/>
      </g>
     </g>
    </g>
    <g id="xtick_5">
     <g id="line2d_9">
      <path clip-path="url(#p57cdb5603b)" d="M 710.951872 320.4 
L 710.951872 43.2 
" style="fill:none;stroke:#ffffff;stroke-linecap:round;stroke-width:0.8;"/>
     </g>
     <g id="line2d_10"/>
     <g id="text_5">
      <!-- 0.04 -->
      <defs>
       <path d="M 43.015625 15.578125 
L 43.015625 0 
L 34.71875 0 
L 34.71875 15.578125 
L 2.296875 15.578125 
L 2.296875 22.40625 
L 33.796875 68.796875 
L 43.015625 68.796875 
L 43.015625 22.515625 
L 52.6875 22.515625 
L 52.6875 15.578125 
z
M 34.71875 58.890625 
Q 34.625 58.640625 34.234375 57.9375 
Q 33.84375 57.234375 33.34375 56.34375 
Q 32.859375 55.46875 32.34375 54.5625 
Q 31.84375 53.65625 31.453125 53.078125 
L 13.8125 27.09375 
Q 13.578125 26.703125 13.109375 26.0625 
Q 12.640625 25.4375 12.15625 24.78125 
Q 11.671875 24.125 11.171875 23.484375 
Q 10.6875 22.859375 10.40625 22.515625 
L 34.71875 22.515625 
z
" id="LiberationSans-34"/>
      </defs>
      <g style="fill:#262626;" transform="translate(703.167497 331.7975)scale(0.08 -0.08)">
       <use xlink:href="#LiberationSans-30"/>
       <use x="55.615234" xlink:href="#LiberationSans-2e"/>
       <use x="83.398438" xlink:href="#LiberationSans-30"/>
       <use x="139.013672" xlink:href="#LiberationSans-34"/>
      </g>
     </g>
    </g>
    <g id="xtick_6">
     <g id="line2d_11">
      <path clip-path="url(#p57cdb5603b)" d="M 842.544385 320.4 
L 842.544385 43.2 
" style="fill:none;stroke:#ffffff;stroke-linecap:round;stroke-width:0.8;"/>
     </g>
     <g id="line2d_12"/>
     <g id="text_6">
      <!-- 0.05 -->
      <defs>
       <path d="M 51.421875 22.40625 
Q 51.421875 17.234375 49.859375 12.9375 
Q 48.296875 8.640625 45.21875 5.53125 
Q 42.140625 2.4375 37.578125 0.71875 
Q 33.015625 -0.984375 27 -0.984375 
Q 21.578125 -0.984375 17.546875 0.28125 
Q 13.53125 1.5625 10.734375 3.78125 
Q 7.953125 6 6.3125 8.984375 
Q 4.6875 11.96875 4 15.375 
L 12.890625 16.40625 
Q 13.421875 14.453125 14.390625 12.625 
Q 15.375 10.796875 17.0625 9.34375 
Q 18.75 7.90625 21.21875 7.046875 
Q 23.6875 6.203125 27.203125 6.203125 
Q 30.609375 6.203125 33.390625 7.25 
Q 36.1875 8.296875 38.15625 10.34375 
Q 40.140625 12.40625 41.203125 15.375 
Q 42.28125 18.359375 42.28125 22.21875 
Q 42.28125 25.390625 41.25 28.046875 
Q 40.234375 30.71875 38.328125 32.640625 
Q 36.421875 34.578125 33.65625 35.640625 
Q 30.90625 36.71875 27.390625 36.71875 
Q 25.203125 36.71875 23.34375 36.328125 
Q 21.484375 35.9375 19.890625 35.25 
Q 18.3125 34.578125 17.015625 33.671875 
Q 15.71875 32.765625 14.59375 31.78125 
L 6 31.78125 
L 8.296875 68.796875 
L 47.40625 68.796875 
L 47.40625 61.328125 
L 16.3125 61.328125 
L 14.984375 39.5 
Q 17.328125 41.3125 20.84375 42.59375 
Q 24.359375 43.890625 29.203125 43.890625 
Q 34.328125 43.890625 38.421875 42.328125 
Q 42.53125 40.765625 45.40625 37.90625 
Q 48.296875 35.0625 49.859375 31.109375 
Q 51.421875 27.15625 51.421875 22.40625 
" id="LiberationSans-35"/>
      </defs>
      <g style="fill:#262626;" transform="translate(834.76001 331.7975)scale(0.08 -0.08)">
       <use xlink:href="#LiberationSans-30"/>
       <use x="55.615234" xlink:href="#LiberationSans-2e"/>
       <use x="83.398438" xlink:href="#LiberationSans-30"/>
       <use x="139.013672" xlink:href="#LiberationSans-35"/>
      </g>
     </g>
    </g>
    <g id="xtick_7">
     <g id="line2d_13">
      <path clip-path="url(#p57cdb5603b)" d="M 974.136898 320.4 
L 974.136898 43.2 
" style="fill:none;stroke:#ffffff;stroke-linecap:round;stroke-width:0.8;"/>
     </g>
     <g id="line2d_14"/>
     <g id="text_7">
      <!-- 0.06 -->
      <defs>
       <path d="M 51.21875 22.515625 
Q 51.21875 17.328125 49.78125 13 
Q 48.34375 8.6875 45.53125 5.578125 
Q 42.71875 2.484375 38.5625 0.75 
Q 34.421875 -0.984375 29 -0.984375 
Q 23 -0.984375 18.5 1.3125 
Q 14.015625 3.609375 11.03125 7.921875 
Q 8.0625 12.25 6.5625 18.53125 
Q 5.078125 24.8125 5.078125 32.8125 
Q 5.078125 42 6.765625 48.921875 
Q 8.453125 55.859375 11.625 60.5 
Q 14.796875 65.140625 19.359375 67.484375 
Q 23.921875 69.828125 29.6875 69.828125 
Q 33.203125 69.828125 36.28125 69.09375 
Q 39.359375 68.359375 41.875 66.71875 
Q 44.390625 65.09375 46.28125 62.40625 
Q 48.1875 59.71875 49.3125 55.8125 
L 40.921875 54.296875 
Q 39.546875 58.734375 36.546875 60.71875 
Q 33.546875 62.703125 29.59375 62.703125 
Q 25.984375 62.703125 23.046875 60.984375 
Q 20.125 59.28125 18.0625 55.875 
Q 16.015625 52.484375 14.90625 47.359375 
Q 13.8125 42.234375 13.8125 35.40625 
Q 16.21875 39.84375 20.5625 42.15625 
Q 24.90625 44.484375 30.515625 44.484375 
Q 35.203125 44.484375 39.015625 42.96875 
Q 42.828125 41.453125 45.53125 38.59375 
Q 48.25 35.75 49.734375 31.671875 
Q 51.21875 27.59375 51.21875 22.515625 
M 42.28125 22.125 
Q 42.28125 25.6875 41.40625 28.5625 
Q 40.53125 31.453125 38.765625 33.46875 
Q 37.015625 35.5 34.421875 36.59375 
Q 31.84375 37.703125 28.421875 37.703125 
Q 26.03125 37.703125 23.578125 36.984375 
Q 21.140625 36.28125 19.15625 34.6875 
Q 17.1875 33.109375 15.9375 30.515625 
Q 14.703125 27.9375 14.703125 24.21875 
Q 14.703125 20.40625 15.671875 17.109375 
Q 16.65625 13.8125 18.484375 11.375 
Q 20.3125 8.9375 22.890625 7.515625 
Q 25.484375 6.109375 28.71875 6.109375 
Q 31.890625 6.109375 34.40625 7.203125 
Q 36.921875 8.296875 38.671875 10.375 
Q 40.4375 12.453125 41.359375 15.421875 
Q 42.28125 18.40625 42.28125 22.125 
" id="LiberationSans-36"/>
      </defs>
      <g style="fill:#262626;" transform="translate(966.352523 331.7975)scale(0.08 -0.08)">
       <use xlink:href="#LiberationSans-30"/>
       <use x="55.615234" xlink:href="#LiberationSans-2e"/>
       <use x="83.398438" xlink:href="#LiberationSans-30"/>
       <use x="139.013672" xlink:href="#LiberationSans-36"/>
      </g>
     </g>
    </g>
   </g>
   <g id="matplotlib.axis_2">
    <g id="ytick_1">
     <g id="line2d_15">
      <path clip-path="url(#p57cdb5603b)" d="M 144 312.82185 
L 1036.8 312.82185 
" style="fill:none;stroke:#ffffff;stroke-linecap:round;stroke-width:0.8;"/>
     </g>
     <g id="line2d_16"/>
     <g id="text_8">
      <!-- −0.2 -->
      <defs>
       <path d="M 4.9375 29.6875 
L 4.9375 36.8125 
L 53.515625 36.8125 
L 53.515625 29.6875 
z
" id="LiberationSans-2212"/>
      </defs>
      <g style="fill:#262626;" transform="translate(122.6075 315.7206)scale(0.08 -0.08)">
       <use xlink:href="#LiberationSans-2212"/>
       <use x="58.398438" xlink:href="#LiberationSans-30"/>
       <use x="114.013672" xlink:href="#LiberationSans-2e"/>
       <use x="141.796875" xlink:href="#LiberationSans-32"/>
      </g>
     </g>
    </g>
    <g id="ytick_2">
     <g id="line2d_17">
      <path clip-path="url(#p57cdb5603b)" d="M 144 281.714931 
L 1036.8 281.714931 
" style="fill:none;stroke:#ffffff;stroke-linecap:round;stroke-width:0.8;"/>
     </g>
     <g id="line2d_18"/>
     <g id="text_9">
      <!-- 0.0 -->
      <g style="fill:#262626;" transform="translate(127.28 284.613681)scale(0.08 -0.08)">
       <use xlink:href="#LiberationSans-30"/>
       <use x="55.615234" xlink:href="#LiberationSans-2e"/>
       <use x="83.398438" xlink:href="#LiberationSans-30"/>
      </g>
     </g>
    </g>
    <g id="ytick_3">
     <g id="line2d_19">
      <path clip-path="url(#p57cdb5603b)" d="M 144 250.608011 
L 1036.8 250.608011 
" style="fill:none;stroke:#ffffff;stroke-linecap:round;stroke-width:0.8;"/>
     </g>
     <g id="line2d_20"/>
     <g id="text_10">
      <!-- 0.2 -->
      <g style="fill:#262626;" transform="translate(127.28 253.506761)scale(0.08 -0.08)">
       <use xlink:href="#LiberationSans-30"/>
       <use x="55.615234" xlink:href="#LiberationSans-2e"/>
       <use x="83.398438" xlink:href="#LiberationSans-32"/>
      </g>
     </g>
    </g>
    <g id="ytick_4">
     <g id="line2d_21">
      <path clip-path="url(#p57cdb5603b)" d="M 144 219.501091 
L 1036.8 219.501091 
" style="fill:none;stroke:#ffffff;stroke-linecap:round;stroke-width:0.8;"/>
     </g>
     <g id="line2d_22"/>
     <g id="text_11">
      <!-- 0.4 -->
      <g style="fill:#262626;" transform="translate(127.28 222.399841)scale(0.08 -0.08)">
       <use xlink:href="#LiberationSans-30"/>
       <use x="55.615234" xlink:href="#LiberationSans-2e"/>
       <use x="83.398438" xlink:href="#LiberationSans-34"/>
      </g>
     </g>
    </g>
    <g id="ytick_5">
     <g id="line2d_23">
      <path clip-path="url(#p57cdb5603b)" d="M 144 188.394171 
L 1036.8 188.394171 
" style="fill:none;stroke:#ffffff;stroke-linecap:round;stroke-width:0.8;"/>
     </g>
     <g id="line2d_24"/>
     <g id="text_12">
      <!-- 0.6 -->
      <g style="fill:#262626;" transform="translate(127.28 191.292921)scale(0.08 -0.08)">
       <use xlink:href="#LiberationSans-30"/>
       <use x="55.615234" xlink:href="#LiberationSans-2e"/>
       <use x="83.398438" xlink:href="#LiberationSans-36"/>
      </g>
     </g>
    </g>
    <g id="ytick_6">
     <g id="line2d_25">
      <path clip-path="url(#p57cdb5603b)" d="M 144 157.287252 
L 1036.8 157.287252 
" style="fill:none;stroke:#ffffff;stroke-linecap:round;stroke-width:0.8;"/>
     </g>
     <g id="line2d_26"/>
     <g id="text_13">
      <!-- 0.8 -->
      <defs>
       <path d="M 51.265625 19.1875 
Q 51.265625 14.796875 49.875 11.109375 
Q 48.484375 7.421875 45.625 4.734375 
Q 42.78125 2.046875 38.328125 0.53125 
Q 33.890625 -0.984375 27.828125 -0.984375 
Q 21.78125 -0.984375 17.359375 0.53125 
Q 12.9375 2.046875 10.03125 4.703125 
Q 7.125 7.375 5.734375 11.0625 
Q 4.34375 14.75 4.34375 19.09375 
Q 4.34375 22.859375 5.484375 25.78125 
Q 6.640625 28.71875 8.5625 30.828125 
Q 10.5 32.953125 12.96875 34.25 
Q 15.4375 35.546875 18.0625 35.984375 
L 18.0625 36.1875 
Q 15.1875 36.859375 12.90625 38.375 
Q 10.640625 39.890625 9.09375 42.015625 
Q 7.5625 44.140625 6.75 46.71875 
Q 5.953125 49.3125 5.953125 52.203125 
Q 5.953125 55.8125 7.34375 59 
Q 8.734375 62.203125 11.46875 64.625 
Q 14.203125 67.046875 18.25 68.4375 
Q 22.3125 69.828125 27.640625 69.828125 
Q 33.25 69.828125 37.375 68.40625 
Q 41.5 67 44.203125 64.578125 
Q 46.921875 62.15625 48.234375 58.9375 
Q 49.5625 55.71875 49.5625 52.09375 
Q 49.5625 49.265625 48.75 46.671875 
Q 47.953125 44.09375 46.40625 41.96875 
Q 44.875 39.84375 42.59375 38.34375 
Q 40.328125 36.859375 37.359375 36.28125 
L 37.359375 36.078125 
Q 40.328125 35.59375 42.859375 34.296875 
Q 45.40625 33.015625 47.265625 30.890625 
Q 49.125 28.765625 50.1875 25.828125 
Q 51.265625 22.90625 51.265625 19.1875 
M 40.4375 51.609375 
Q 40.4375 54.203125 39.765625 56.34375 
Q 39.109375 58.5 37.59375 60.03125 
Q 36.078125 61.578125 33.640625 62.421875 
Q 31.203125 63.28125 27.640625 63.28125 
Q 24.171875 63.28125 21.78125 62.421875 
Q 19.390625 61.578125 17.84375 60.03125 
Q 16.3125 58.5 15.625 56.34375 
Q 14.9375 54.203125 14.9375 51.609375 
Q 14.9375 49.5625 15.46875 47.40625 
Q 16.015625 45.265625 17.421875 43.5 
Q 18.84375 41.75 21.328125 40.625 
Q 23.828125 39.5 27.734375 39.5 
Q 31.890625 39.5 34.40625 40.625 
Q 36.921875 41.75 38.25 43.5 
Q 39.59375 45.265625 40.015625 47.40625 
Q 40.4375 49.5625 40.4375 51.609375 
M 42.140625 20.015625 
Q 42.140625 22.515625 41.453125 24.828125 
Q 40.765625 27.15625 39.109375 28.9375 
Q 37.453125 30.71875 34.640625 31.8125 
Q 31.84375 32.90625 27.640625 32.90625 
Q 23.78125 32.90625 21.0625 31.8125 
Q 18.359375 30.71875 16.671875 28.90625 
Q 14.984375 27.09375 14.203125 24.71875 
Q 13.421875 22.359375 13.421875 19.828125 
Q 13.421875 16.65625 14.203125 14.03125 
Q 14.984375 11.421875 16.6875 9.546875 
Q 18.40625 7.671875 21.1875 6.640625 
Q 23.96875 5.609375 27.9375 5.609375 
Q 31.9375 5.609375 34.671875 6.640625 
Q 37.40625 7.671875 39.0625 9.546875 
Q 40.71875 11.421875 41.421875 14.078125 
Q 42.140625 16.75 42.140625 20.015625 
" id="LiberationSans-38"/>
      </defs>
      <g style="fill:#262626;" transform="translate(127.28 160.186002)scale(0.08 -0.08)">
       <use xlink:href="#LiberationSans-30"/>
       <use x="55.615234" xlink:href="#LiberationSans-2e"/>
       <use x="83.398438" xlink:href="#LiberationSans-38"/>
      </g>
     </g>
    </g>
    <g id="ytick_7">
     <g id="line2d_27">
      <path clip-path="url(#p57cdb5603b)" d="M 144 126.180332 
L 1036.8 126.180332 
" style="fill:none;stroke:#ffffff;stroke-linecap:round;stroke-width:0.8;"/>
     </g>
     <g id="line2d_28"/>
     <g id="text_14">
      <!-- 1.0 -->
      <g style="fill:#262626;" transform="translate(127.28 129.079082)scale(0.08 -0.08)">
       <use xlink:href="#LiberationSans-31"/>
       <use x="55.615234" xlink:href="#LiberationSans-2e"/>
       <use x="83.398438" xlink:href="#LiberationSans-30"/>
      </g>
     </g>
    </g>
    <g id="ytick_8">
     <g id="line2d_29">
      <path clip-path="url(#p57cdb5603b)" d="M 144 95.073412 
L 1036.8 95.073412 
" style="fill:none;stroke:#ffffff;stroke-linecap:round;stroke-width:0.8;"/>
     </g>
     <g id="line2d_30"/>
     <g id="text_15">
      <!-- 1.2 -->
      <g style="fill:#262626;" transform="translate(127.28 97.972162)scale(0.08 -0.08)">
       <use xlink:href="#LiberationSans-31"/>
       <use x="55.615234" xlink:href="#LiberationSans-2e"/>
       <use x="83.398438" xlink:href="#LiberationSans-32"/>
      </g>
     </g>
    </g>
    <g id="ytick_9">
     <g id="line2d_31">
      <path clip-path="url(#p57cdb5603b)" d="M 144 63.966492 
L 1036.8 63.966492 
" style="fill:none;stroke:#ffffff;stroke-linecap:round;stroke-width:0.8;"/>
     </g>
     <g id="line2d_32"/>
     <g id="text_16">
      <!-- 1.4 -->
      <g style="fill:#262626;" transform="translate(127.28 66.865242)scale(0.08 -0.08)">
       <use xlink:href="#LiberationSans-31"/>
       <use x="55.615234" xlink:href="#LiberationSans-2e"/>
       <use x="83.398438" xlink:href="#LiberationSans-34"/>
      </g>
     </g>
    </g>
   </g>
   <g id="line2d_33">
    <path clip-path="url(#p57cdb5603b)" d="M 184.581818 72.133849 
L 184.880214 72.387505 
L 185.17861 72.063651 
L 185.477005 71.211512 
L 186.073797 68.286919 
L 187.26738 61.300013 
L 187.565775 60.159079 
L 187.864171 59.503681 
L 188.162567 59.409298 
L 188.460963 59.91576 
L 188.759358 61.024668 
L 189.35615 64.866773 
L 190.251337 73.17018 
L 191.146524 81.150099 
L 191.743316 84.500343 
L 192.041711 85.328128 
L 192.340107 85.557021 
L 192.638503 85.209506 
L 192.936898 84.34519 
L 193.53369 81.464879 
L 194.727273 74.950641 
L 195.025668 73.999179 
L 195.324064 73.548531 
L 195.62246 73.664191 
L 195.920856 74.375014 
L 196.219251 75.671341 
L 196.816043 79.795296 
L 198.904813 97.475096 
L 199.203209 98.636894 
L 199.501604 99.197378 
L 199.8 99.151731 
L 200.098396 98.53356 
L 200.695187 95.890782 
L 202.187166 87.099057 
L 202.485561 86.097335 
L 202.783957 85.610324 
L 203.082353 85.693362 
L 203.380749 86.364359 
L 203.679144 87.602634 
L 204.275936 91.5156 
L 206.06631 105.717955 
L 206.364706 106.995995 
L 206.663102 107.693117 
L 206.961497 107.777492 
L 207.259893 107.25577 
L 207.558289 106.172654 
L 208.15508 102.671735 
L 209.647059 92.369064 
L 209.945455 91.163058 
L 210.24385 90.488217 
L 210.542246 90.389542 
L 210.840642 90.874013 
L 211.139037 91.910148 
L 211.735829 95.333656 
L 213.227807 105.793693 
L 213.526203 107.076874 
L 213.824599 107.824056 
L 214.122995 107.977479 
L 214.42139 107.516671 
L 214.719786 106.45977 
L 215.316578 102.813983 
L 217.106952 88.569139 
L 217.405348 87.164971 
L 217.703743 86.312433 
L 218.002139 86.045936 
L 218.300535 86.361485 
L 218.59893 87.216951 
L 219.195722 90.207113 
L 220.389305 97.64598 
L 220.986096 99.813294 
L 221.284492 100.11299 
L 221.582888 99.815758 
L 221.881283 98.912524 
L 222.478075 95.442517 
L 223.373262 87.517225 
L 224.268449 79.653064 
L 224.865241 76.267753 
L 225.163636 75.406316 
L 225.462032 75.142741 
L 225.760428 75.461945 
L 226.058824 76.311253 
L 226.655615 79.22419 
L 227.849198 86.126264 
L 228.147594 87.235862 
L 228.445989 87.86025 
L 228.744385 87.927291 
L 229.042781 87.400843 
L 229.341176 86.283109 
L 229.937968 82.471176 
L 232.026738 65.04968 
L 232.325134 63.835199 
L 232.623529 63.215856 
L 232.921925 63.203943 
L 233.220321 63.773186 
L 233.518717 64.860457 
L 234.115508 68.178918 
L 235.309091 75.502966 
L 235.607487 76.646233 
L 235.905882 77.288887 
L 236.204278 77.36873 
L 236.502674 76.860482 
L 236.80107 75.777426 
L 237.397861 72.125383 
L 239.188235 58.065187 
L 239.486631 56.726945 
L 239.785027 55.958842 
L 240.083422 55.8 
L 240.381818 56.251258 
L 240.680214 57.275131 
L 241.277005 60.71597 
L 242.768984 71.342346 
L 243.06738 72.685291 
L 243.365775 73.509886 
L 243.664171 73.764083 
L 243.962567 73.433477 
L 244.260963 72.542239 
L 244.857754 69.3557 
L 246.349733 59.022552 
L 246.648128 57.689415 
L 246.946524 56.877381 
L 247.24492 56.651072 
L 247.543316 57.038359 
L 247.841711 58.028562 
L 248.438503 61.588743 
L 250.527273 77.766847 
L 250.825668 78.779385 
L 251.124064 79.210144 
L 251.42246 79.055672 
L 251.720856 78.350896 
L 252.317647 75.606132 
L 253.809626 67.00052 
L 254.108021 66.110285 
L 254.406417 65.757531 
L 254.704813 65.996306 
L 255.003209 66.843139 
L 255.6 70.235463 
L 256.495187 78.217411 
L 257.390374 86.400384 
L 257.987166 90.114767 
L 258.285561 91.158803 
L 258.583957 91.607416 
L 258.882353 91.468247 
L 259.180749 90.786914 
L 259.77754 88.150114 
L 260.971123 81.479979 
L 261.269519 80.365639 
L 261.567914 79.719711 
L 261.86631 79.620804 
L 262.164706 80.112261 
L 262.463102 81.199339 
L 263.059893 84.991268 
L 263.95508 93.242882 
L 264.850267 101.220967 
L 265.447059 104.580794 
L 265.745455 105.407935 
L 266.04385 105.627796 
L 266.342246 105.259256 
L 266.640642 104.358565 
L 267.237433 101.34858 
L 268.431016 94.314958 
L 268.729412 93.183225 
L 269.027807 92.536794 
L 269.326203 92.444577 
L 269.624599 92.93916 
L 269.922995 94.014694 
L 270.519786 97.697618 
L 272.608556 114.029025 
L 272.906952 115.016535 
L 273.205348 115.399739 
L 273.503743 115.170305 
L 273.802139 114.358414 
L 274.39893 111.286485 
L 276.189305 99.786995 
L 276.487701 98.964912 
L 276.786096 98.706091 
L 277.084492 99.03232 
L 277.382888 99.926802 
L 277.979679 103.169282 
L 279.770053 115.632318 
L 280.068449 116.657544 
L 280.366845 117.106489 
L 280.665241 116.94395 
L 280.963636 116.173121 
L 281.560428 113.007699 
L 282.455615 105.770277 
L 283.350802 98.938628 
L 283.947594 96.371582 
L 284.245989 95.927863 
L 284.544385 96.071145 
L 284.842781 96.773786 
L 285.439572 99.567033 
L 286.931551 108.752061 
L 287.229947 109.830944 
L 287.528342 110.38608 
L 287.826738 110.356495 
L 288.125134 109.718248 
L 288.423529 108.485984 
L 289.020321 104.483005 
L 291.109091 87.37635 
L 291.407487 86.302181 
L 291.705882 85.819542 
L 292.004278 85.92825 
L 292.302674 86.589852 
L 292.899465 89.243865 
L 294.391444 97.531174 
L 294.68984 98.346752 
L 294.988235 98.626919 
L 295.286631 98.321237 
L 295.585027 97.416999 
L 296.181818 93.953233 
L 297.077005 86.016665 
L 297.972193 78.091078 
L 298.568984 74.651954 
L 298.86738 73.768158 
L 299.165775 73.489987 
L 299.464171 73.806004 
L 299.762567 74.66697 
L 300.359358 77.659147 
L 301.552941 84.980686 
L 302.149733 87.044157 
L 302.448128 87.297125 
L 302.746524 86.965944 
L 303.04492 86.049018 
L 303.641711 82.640913 
L 304.536898 75.112734 
L 305.432086 68.05412 
L 306.028877 65.396514 
L 306.327273 64.937776 
L 306.625668 65.092682 
L 306.924064 65.838429 
L 307.520856 68.829471 
L 309.31123 80.716318 
L 309.609626 81.681184 
L 309.908021 82.091223 
L 310.206417 81.917311 
L 310.504813 81.168835 
L 311.101604 78.172238 
L 312.891979 65.823106 
L 313.190374 64.733729 
L 313.48877 64.209745 
L 313.787166 64.293604 
L 314.085561 64.989607 
L 314.383957 66.263624 
L 314.980749 70.232502 
L 316.472727 82.400726 
L 317.069519 85.255158 
L 317.367914 85.856566 
L 317.66631 85.870561 
L 317.964706 85.317436 
L 318.263102 84.25476 
L 318.859893 80.992932 
L 320.053476 73.758511 
L 320.351872 72.63887 
L 320.650267 72.027936 
L 320.948663 71.993461 
L 321.247059 72.566743 
L 321.545455 73.740602 
L 322.142246 77.67401 
L 324.231016 95.374368 
L 324.529412 96.620791 
L 324.827807 97.280964 
L 325.126203 97.347611 
L 325.424599 96.851929 
L 325.722995 95.861555 
L 326.319786 92.821153 
L 327.214973 87.698603 
L 327.811765 85.589262 
L 328.11016 85.272833 
L 328.408556 85.536301 
L 328.706952 86.399797 
L 329.303743 89.815535 
L 330.19893 97.850494 
L 331.094118 106.136862 
L 331.690909 109.93515 
L 331.989305 111.017521 
L 332.287701 111.497362 
L 332.586096 111.378644 
L 332.884492 110.703476 
L 333.481283 108.024269 
L 334.973262 99.754578 
L 335.271658 98.952242 
L 335.570053 98.683038 
L 335.868449 98.993918 
L 336.166845 99.893922 
L 336.763636 103.306772 
L 337.658824 111.019955 
L 338.554011 118.522548 
L 339.150802 121.586064 
L 339.449198 122.263086 
L 339.747594 122.326933 
L 340.045989 121.792977 
L 340.344385 120.714191 
L 340.941176 117.299307 
L 342.134759 109.22941 
L 342.731551 106.833805 
L 343.029947 106.417401 
L 343.328342 106.582443 
L 343.626738 107.326982 
L 344.223529 110.358232 
L 346.312299 124.721846 
L 346.610695 125.463501 
L 346.909091 125.602421 
L 347.207487 125.126818 
L 347.505882 124.063478 
L 348.102674 120.46089 
L 349.893048 107.059548 
L 350.191444 105.885054 
L 350.48984 105.271305 
L 350.788235 105.243967 
L 351.086631 105.790142 
L 351.385027 106.859214 
L 351.981818 110.196819 
L 353.175401 117.909072 
L 353.772193 120.01975 
L 354.070588 120.262047 
L 354.368984 119.898946 
L 354.66738 118.930142 
L 355.264171 115.363395 
L 356.159358 107.474567 
L 357.054545 99.917368 
L 357.651337 96.846237 
L 357.949733 96.153799 
L 358.248128 96.055618 
L 358.546524 96.527829 
L 358.84492 97.509547 
L 359.441711 100.598642 
L 360.635294 107.413833 
L 360.93369 108.417529 
L 361.232086 108.912897 
L 361.530481 108.835686 
L 361.828877 108.158395 
L 362.127273 106.892061 
L 362.724064 102.822597 
L 364.812834 85.341484 
L 365.11123 84.206166 
L 365.409626 83.668794 
L 365.708021 83.732875 
L 366.006417 84.363527 
L 366.603209 87.009013 
L 368.095187 95.654286 
L 368.393583 96.602295 
L 368.691979 97.02961 
L 368.990374 96.882256 
L 369.28877 96.143769 
L 369.587166 94.836279 
L 370.183957 90.78496 
L 371.974332 76.21815 
L 372.272727 74.885782 
L 372.571123 74.133982 
L 372.869519 73.993359 
L 373.167914 74.456009 
L 373.46631 75.476044 
L 374.063102 78.834819 
L 375.55508 88.672043 
L 375.853476 89.769063 
L 376.151872 90.332048 
L 376.450267 90.31743 
L 376.748663 89.719723 
L 377.047059 88.571873 
L 377.64385 84.934692 
L 379.135829 74.030829 
L 379.434225 72.674311 
L 379.73262 71.857298 
L 380.031016 71.636409 
L 380.329412 72.030884 
L 380.627807 73.021348 
L 381.224599 76.529528 
L 383.014973 90.288146 
L 383.313369 91.603644 
L 383.611765 92.368063 
L 383.91016 92.548433 
L 384.208556 92.150222 
L 384.506952 91.216973 
L 385.103743 88.09076 
L 386.297326 80.476898 
L 386.894118 78.269731 
L 387.192513 77.95939 
L 387.490909 78.250585 
L 387.789305 79.151102 
L 388.386096 82.620671 
L 389.281283 90.54358 
L 390.176471 98.395706 
L 390.773262 101.774168 
L 391.071658 102.635838 
L 391.370053 102.903911 
L 391.668449 102.594864 
L 391.966845 101.762685 
L 392.563636 98.909263 
L 393.757219 92.241722 
L 394.055615 91.213947 
L 394.354011 90.67909 
L 394.652406 90.708085 
L 394.950802 91.335742 
L 395.249198 92.558484 
L 395.845989 96.586656 
L 397.934759 114.759925 
L 398.233155 116.083401 
L 398.531551 116.814935 
L 398.829947 116.943554 
L 399.128342 116.496825 
L 399.426738 115.539063 
L 400.023529 112.504346 
L 401.217112 105.856209 
L 401.515508 104.902592 
L 401.813904 104.455969 
L 402.112299 104.577208 
L 402.410695 105.290157 
L 402.709091 106.580086 
L 403.305882 110.647042 
L 405.096257 125.907801 
L 405.693048 128.402545 
L 405.991444 128.757309 
L 406.28984 128.504778 
L 406.588235 127.683651 
L 407.185027 124.664466 
L 408.677005 115.206246 
L 408.975401 114.114017 
L 409.273797 113.543519 
L 409.572193 113.545389 
L 409.870588 114.132543 
L 410.168984 115.279336 
L 410.765775 118.968682 
L 412.257754 130.474368 
L 412.854545 133.055244 
L 413.152941 133.495329 
L 413.451337 133.32069 
L 413.749733 132.543248 
L 414.346524 129.413454 
L 416.435294 114.841798 
L 416.73369 114.066338 
L 417.032086 113.871161 
L 417.330481 114.25824 
L 417.628877 115.191211 
L 418.225668 118.374092 
L 419.717647 127.937512 
L 420.016043 128.996298 
L 420.314439 129.511711 
L 420.612834 129.430894 
L 420.91123 128.738596 
L 421.209626 127.458165 
L 421.806417 123.40802 
L 423.596791 108.461237 
L 423.895187 107.00805 
L 424.193583 106.11689 
L 424.491979 105.817226 
L 424.790374 106.100006 
L 425.08877 106.91827 
L 425.685561 109.804357 
L 426.879144 116.858408 
L 427.17754 118.04529 
L 427.475936 118.75583 
L 427.774332 118.91258 
L 428.072727 118.473505 
L 428.371123 117.434709 
L 428.967914 113.732277 
L 429.863102 105.612263 
L 430.758289 97.771293 
L 431.35508 94.500041 
L 431.653476 93.713205 
L 431.951872 93.529264 
L 432.250267 93.928027 
L 432.548663 94.852023 
L 433.145455 97.883915 
L 434.339037 104.851103 
L 434.637433 105.944765 
L 434.935829 106.546312 
L 435.234225 106.588128 
L 435.53262 106.039038 
L 435.831016 104.906339 
L 436.427807 101.106525 
L 438.516578 84.414072 
L 438.814973 83.37934 
L 439.113369 82.947337 
L 439.411765 83.125136 
L 439.71016 83.881325 
L 440.306952 86.82539 
L 441.79893 96.560268 
L 442.097326 97.780601 
L 442.395722 98.492709 
L 442.694118 98.639005 
L 442.992513 98.199178 
L 443.290909 97.191507 
L 443.887701 93.729318 
L 445.678075 80.714304 
L 445.976471 79.612282 
L 446.274866 79.088809 
L 446.573262 79.177882 
L 446.871658 79.875066 
L 447.170053 81.137782 
L 447.766845 85.017469 
L 449.258824 96.41571 
L 449.855615 98.780997 
L 450.154011 99.124539 
L 450.452406 98.883496 
L 450.750802 98.086968 
L 451.347594 95.12276 
L 452.839572 85.642155 
L 453.137968 84.526739 
L 453.436364 83.940952 
L 453.734759 83.944605 
L 454.033155 84.560378 
L 454.331551 85.772351 
L 454.928342 89.736662 
L 457.017112 106.677177 
L 457.315508 107.728549 
L 457.613904 108.191912 
L 457.912299 108.068866 
L 458.210695 107.399233 
L 458.807487 104.752807 
L 460.299465 96.648911 
L 460.597861 95.89686 
L 460.896257 95.687173 
L 461.194652 96.06901 
L 461.493048 97.053728 
L 462.08984 100.686163 
L 462.985027 108.879474 
L 463.880214 117.056343 
L 464.477005 120.665165 
L 464.775401 121.637499 
L 465.073797 122.00839 
L 465.372193 121.790603 
L 465.670588 121.03463 
L 466.26738 118.27687 
L 467.460963 111.535232 
L 467.759358 110.436081 
L 468.057754 109.81297 
L 468.35615 109.740099 
L 468.654545 110.255898 
L 468.952941 111.360522 
L 469.549733 115.147781 
L 470.743316 126.023871 
L 471.340107 130.841929 
L 471.936898 133.85865 
L 472.235294 134.498666 
L 472.53369 134.527838 
L 472.832086 133.970215 
L 473.130481 132.886873 
L 473.727273 129.546665 
L 474.920856 122.042897 
L 475.219251 120.829207 
L 475.517647 120.109015 
L 475.816043 119.94672 
L 476.114439 120.369982 
L 476.412834 121.367927 
L 477.009626 124.858281 
L 478.8 138.589643 
L 479.098396 139.894738 
L 479.396791 140.632204 
L 479.695187 140.76078 
L 479.993583 140.277406 
L 480.291979 139.217414 
L 480.88877 135.684916 
L 482.380749 124.676983 
L 482.97754 122.306944 
L 483.275936 121.947786 
L 483.574332 122.174139 
L 483.872727 122.964236 
L 484.469519 125.966505 
L 486.259893 137.302482 
L 486.558289 138.089175 
L 486.856684 138.294636 
L 487.15508 137.888809 
L 487.453476 136.880148 
L 488.050267 133.27508 
L 490.139037 116.758185 
L 490.437433 115.681018 
L 490.735829 115.186952 
L 491.034225 115.281839 
L 491.33262 115.933089 
L 491.929412 118.597175 
L 493.42139 127.203528 
L 493.719786 128.127035 
L 494.018182 128.520891 
L 494.316578 128.328932 
L 494.614973 127.532362 
L 494.913369 126.150997 
L 495.51016 121.896284 
L 497.300535 106.206221 
L 497.897326 103.592748 
L 498.195722 103.167216 
L 498.494118 103.33489 
L 498.792513 104.052379 
L 499.389305 106.791991 
L 500.881283 115.049823 
L 501.179679 115.824087 
L 501.478075 116.058887 
L 501.776471 115.708634 
L 502.074866 114.765718 
L 502.671658 111.261959 
L 503.566845 103.41604 
L 504.462032 95.796026 
L 505.058824 92.658064 
L 505.357219 91.942079 
L 505.655615 91.836463 
L 505.954011 92.324588 
L 506.252406 93.352302 
L 506.849198 96.645505 
L 508.042781 104.383081 
L 508.639572 106.573724 
L 508.937968 106.881536 
L 509.236364 106.605718 
L 509.534759 105.749705 
L 510.131551 102.499036 
L 512.220321 87.485725 
L 512.518717 86.665306 
L 512.817112 86.448601 
L 513.115508 86.846158 
L 513.413904 87.829976 
L 514.010695 91.26482 
L 515.80107 104.063097 
L 516.099465 105.126443 
L 516.397861 105.628904 
L 516.696257 105.546286 
L 516.994652 104.892965 
L 517.591444 102.116592 
L 519.381818 90.836869 
L 519.680214 89.979139 
L 519.97861 89.692983 
L 520.277005 90.015762 
L 520.575401 90.946511 
L 521.172193 94.439167 
L 522.06738 102.208815 
L 522.962567 109.631939 
L 523.559358 112.613224 
L 523.857754 113.264123 
L 524.15615 113.324902 
L 524.454545 112.820838 
L 524.752941 111.814126 
L 525.349733 108.699872 
L 526.543316 101.946953 
L 526.841711 100.981144 
L 527.140107 100.53096 
L 527.438503 100.659442 
L 527.736898 101.392774 
L 528.035294 102.718578 
L 528.632086 106.912329 
L 530.720856 124.82396 
L 531.019251 126.023776 
L 531.317647 126.62942 
L 531.616043 126.638734 
L 531.914439 126.087906 
L 532.51123 123.625874 
L 534.003209 115.602651 
L 534.301604 114.805404 
L 534.6 114.535533 
L 534.898396 114.845679 
L 535.196791 115.750886 
L 535.793583 119.215215 
L 536.68877 127.176335 
L 537.583957 135.172993 
L 538.180749 138.677015 
L 538.479144 139.593425 
L 538.77754 139.901403 
L 539.075936 139.610123 
L 539.374332 138.766677 
L 539.971123 135.780732 
L 541.463102 127.007399 
L 541.761497 126.142807 
L 542.059893 125.816382 
L 542.358289 126.070262 
L 542.656684 126.908453 
L 543.253476 130.163965 
L 544.148663 137.501841 
L 545.04385 144.432136 
L 545.640642 147.028964 
L 545.939037 147.459495 
L 546.237433 147.274936 
L 546.535829 146.49589 
L 547.13262 143.419442 
L 548.922995 131.061389 
L 549.22139 129.991384 
L 549.519786 129.473115 
L 549.818182 129.538094 
L 550.116578 130.179365 
L 550.414973 131.351956 
L 551.011765 134.940774 
L 552.205348 143.396214 
L 552.802139 145.983086 
L 553.100535 146.475586 
L 553.39893 146.362972 
L 553.697326 145.638718 
L 553.995722 144.334784 
L 554.592513 140.293515 
L 556.382888 126.068977 
L 556.681283 124.819964 
L 556.979679 124.140123 
L 557.278075 124.050147 
L 557.576471 124.532128 
L 557.874866 125.530736 
L 558.471658 128.693044 
L 559.665241 135.867292 
L 559.963636 136.999327 
L 560.262032 137.630989 
L 560.560428 137.692516 
L 560.858824 137.150395 
L 561.157219 136.009535 
L 561.754011 132.139181 
L 563.842781 114.521138 
L 564.141176 113.274449 
L 564.439572 112.616134 
L 564.737968 112.555814 
L 565.036364 113.064589 
L 565.334759 114.076928 
L 565.931551 117.194537 
L 567.125134 123.893196 
L 567.423529 124.837212 
L 567.721925 125.267177 
L 568.020321 125.123526 
L 568.318717 124.383812 
L 568.617112 123.064181 
L 569.213904 118.934206 
L 571.004278 103.506165 
L 571.60107 100.958952 
L 571.899465 100.574493 
L 572.197861 100.793326 
L 572.496257 101.575527 
L 573.093048 104.497002 
L 574.585027 113.574961 
L 574.883422 114.570242 
L 575.181818 115.039125 
L 575.480214 114.932377 
L 575.77861 114.238559 
L 576.077005 112.984777 
L 576.673797 109.08574 
L 578.165775 97.116064 
L 578.762567 94.372871 
L 579.060963 93.853513 
L 579.359358 93.94854 
L 579.657754 94.644796 
L 580.254545 97.602997 
L 582.343316 111.429912 
L 582.641711 112.086058 
L 582.940107 112.162138 
L 583.238503 111.657672 
L 583.536898 110.610471 
L 584.13369 107.21369 
L 585.625668 97.231678 
L 585.924064 96.1086 
L 586.22246 95.533628 
L 586.520856 95.558442 
L 586.819251 96.197043 
L 587.117647 97.424836 
L 587.714439 101.368465 
L 589.504813 115.951522 
L 589.803209 117.340917 
L 590.101604 118.170124 
L 590.4 118.411099 
L 590.698396 118.074334 
L 590.996791 117.208163 
L 591.593583 114.249145 
L 592.787166 107.157814 
L 593.085561 105.983926 
L 593.383957 105.293916 
L 593.682353 105.164102 
L 593.980749 105.635247 
L 594.279144 106.709919 
L 594.875936 110.490466 
L 595.771123 118.729225 
L 596.66631 126.683334 
L 597.263102 130.033455 
L 597.561497 130.864026 
L 597.859893 131.096352 
L 598.158289 130.751973 
L 598.456684 129.889615 
L 599.053476 127.006822 
L 600.247059 120.453291 
L 600.545455 119.485733 
L 600.84385 119.017644 
L 601.142246 119.115376 
L 601.440642 119.808722 
L 601.739037 121.088973 
L 602.335829 125.188506 
L 604.424599 142.907811 
L 604.722995 144.088701 
L 605.02139 144.669498 
L 605.319786 144.644414 
L 605.618182 144.046111 
L 606.214973 141.437668 
L 607.706952 132.680712 
L 608.005348 131.677892 
L 608.303743 131.188434 
L 608.602139 131.268548 
L 608.900535 131.937082 
L 609.19893 133.174287 
L 609.795722 137.09266 
L 611.586096 151.400753 
L 611.884492 152.707897 
L 612.182888 153.435632 
L 612.481283 153.551173 
L 612.779679 153.060195 
L 613.078075 152.006461 
L 613.674866 148.557035 
L 615.166845 138.323638 
L 615.465241 137.122474 
L 615.763636 136.45091 
L 616.062032 136.35484 
L 616.360428 136.842184 
L 616.658824 137.882375 
L 617.255615 141.320768 
L 618.747594 151.876165 
L 619.045989 153.187528 
L 619.344385 153.964546 
L 619.642781 154.148552 
L 619.941176 153.718105 
L 620.239572 152.690377 
L 620.836364 149.095826 
L 622.626738 134.915246 
L 622.925134 133.509801 
L 623.223529 132.65421 
L 623.521925 132.383802 
L 623.820321 132.695525 
L 624.118717 133.548157 
L 624.715508 136.53872 
L 626.207487 145.347794 
L 626.505882 146.215433 
L 626.804278 146.534156 
L 627.102674 146.256047 
L 627.40107 145.371064 
L 627.997861 141.931219 
L 628.893048 134.024446 
L 629.788235 126.140061 
L 630.385027 122.72366 
L 630.683422 121.843591 
L 630.981818 121.560558 
L 631.280214 121.860432 
L 631.57861 122.691432 
L 632.175401 125.573803 
L 633.368984 132.448813 
L 633.66738 133.558117 
L 633.965775 134.183705 
L 634.264171 134.252601 
L 634.562567 133.727738 
L 634.860963 132.610362 
L 635.457754 128.791874 
L 637.546524 111.223236 
L 637.84492 109.973818 
L 638.143316 109.318117 
L 638.441711 109.269386 
L 638.740107 109.802307 
L 639.038503 110.854637 
L 639.635294 114.110198 
L 640.828877 121.344849 
L 641.127273 122.472409 
L 641.425668 123.100835 
L 641.724064 123.16707 
L 642.02246 122.644906 
L 642.320856 121.546686 
L 642.917647 117.857123 
L 644.708021 103.594904 
L 645.006417 102.211063 
L 645.304813 101.395638 
L 645.603209 101.188693 
L 645.901604 101.592047 
L 646.2 102.569161 
L 646.796791 105.923218 
L 648.28877 116.390839 
L 648.587166 117.711177 
L 648.885561 118.514852 
L 649.183957 118.748936 
L 649.482353 118.398092 
L 649.780749 117.485563 
L 650.37754 114.249975 
L 652.167914 102.357268 
L 652.46631 101.497756 
L 652.764706 101.223 
L 653.063102 101.561834 
L 653.361497 102.504551 
L 653.958289 105.976275 
L 656.047059 121.958981 
L 656.345455 122.955937 
L 656.64385 123.372121 
L 656.942246 123.203139 
L 657.240642 122.483002 
L 657.837433 119.701764 
L 659.329412 110.953477 
L 659.627807 110.026863 
L 659.926203 109.636525 
L 660.224599 109.837417 
L 660.522995 110.647032 
L 661.119786 113.970688 
L 662.014973 121.875371 
L 662.91016 130.019682 
L 663.506952 133.726403 
L 663.805348 134.769939 
L 664.103743 135.219054 
L 664.402139 135.080438 
L 664.700535 134.398798 
L 665.297326 131.755715 
L 666.490909 125.039346 
L 666.789305 123.906807 
L 667.087701 123.241045 
L 667.386096 123.121486 
L 667.684492 123.592388 
L 667.982888 124.659964 
L 668.579679 128.4197 
L 669.474866 136.650516 
L 670.370053 144.646648 
L 670.966845 148.035721 
L 671.265241 148.880376 
L 671.563636 149.118422 
L 671.862032 148.767776 
L 672.160428 147.883788 
L 672.757219 144.900671 
L 673.950802 137.885003 
L 674.249198 136.750995 
L 674.547594 136.100691 
L 674.845989 136.003842 
L 675.144385 136.493956 
L 675.442781 137.566125 
L 676.039572 141.249158 
L 678.128342 157.697534 
L 678.426738 158.714296 
L 678.725134 159.127761 
L 679.023529 158.928624 
L 679.321925 158.146107 
L 679.918717 155.126763 
L 681.709091 143.70776 
L 682.007487 142.889599 
L 682.305882 142.633764 
L 682.604278 142.962971 
L 682.902674 143.861357 
L 683.499465 147.117809 
L 685.28984 159.702395 
L 685.588235 160.75812 
L 685.886631 161.238755 
L 686.185027 161.108149 
L 686.483422 160.368517 
L 687.080214 157.259603 
L 687.975401 150.081976 
L 688.870588 143.274954 
L 689.46738 140.709473 
L 689.765775 140.26437 
L 690.064171 140.406062 
L 690.362567 141.107831 
L 690.959358 143.904771 
L 692.451337 153.150511 
L 692.749733 154.249722 
L 693.048128 154.826582 
L 693.346524 154.819233 
L 693.64492 154.202771 
L 693.943316 152.99088 
L 694.540107 149.020858 
L 696.628877 131.904906 
L 696.927273 130.816147 
L 697.225668 130.317747 
L 697.524064 130.410476 
L 697.82246 131.056803 
L 698.419251 133.685561 
L 699.91123 141.95815 
L 700.209626 142.778015 
L 700.508021 143.063455 
L 700.806417 142.763132 
L 701.104813 141.863383 
L 701.701604 138.402286 
L 702.596791 130.443017 
L 703.491979 122.455776 
L 704.08877 118.957694 
L 704.387166 118.041248 
L 704.685561 117.729555 
L 704.983957 118.012142 
L 705.282353 118.840686 
L 705.879144 121.774119 
L 707.072727 129.01333 
L 707.669519 131.051137 
L 707.967914 131.293036 
L 708.26631 130.950777 
L 708.564706 130.02182 
L 709.161497 126.583213 
L 710.056684 118.983114 
L 710.951872 111.816098 
L 711.548663 109.070735 
L 711.847059 108.565815 
L 712.145455 108.674278 
L 712.44385 109.374287 
L 713.040642 112.279447 
L 714.831016 123.984185 
L 715.129412 124.928378 
L 715.427807 125.318813 
L 715.726203 125.125446 
L 716.024599 124.356726 
L 716.62139 121.313811 
L 718.411765 108.746074 
L 718.71016 107.609572 
L 719.008556 107.037055 
L 719.306952 107.07191 
L 719.605348 107.719417 
L 719.903743 108.946402 
L 720.500535 112.82895 
L 722.290909 126.510487 
L 722.589305 127.66346 
L 722.887701 128.248608 
L 723.186096 128.246697 
L 723.484492 127.677089 
L 723.782888 126.596482 
L 724.379679 123.291609 
L 725.573262 115.933704 
L 725.871658 114.776293 
L 726.170053 114.126008 
L 726.468449 114.051466 
L 726.766845 114.584919 
L 727.065241 115.720155 
L 727.662032 119.583555 
L 729.750802 137.161856 
L 730.049198 138.404453 
L 730.347594 139.062142 
L 730.645989 139.126696 
L 730.944385 138.628381 
L 731.242781 137.633979 
L 731.839572 134.578651 
L 732.734759 129.411804 
L 733.331551 127.260089 
L 733.629947 126.920367 
L 733.928342 127.16028 
L 734.226738 128.000907 
L 734.823529 131.376722 
L 735.718717 139.377684 
L 736.613904 147.669067 
L 737.210695 151.489175 
L 737.509091 152.585907 
L 737.807487 153.081186 
L 738.105882 152.978017 
L 738.404278 152.317583 
L 739.00107 149.66221 
L 740.493048 141.402122 
L 740.791444 140.594286 
L 741.08984 140.318543 
L 741.388235 140.622743 
L 741.686631 141.51687 
L 742.283422 144.924013 
L 743.17861 152.654284 
L 744.073797 160.210878 
L 744.670588 163.326692 
L 744.968984 164.032493 
L 745.26738 164.12561 
L 745.565775 163.620444 
L 745.864171 162.569051 
L 746.460963 159.201709 
L 747.654545 151.187503 
L 748.251337 148.802361 
L 748.549733 148.388988 
L 748.848128 148.556781 
L 749.146524 149.304726 
L 749.743316 152.348287 
L 750.936898 161.59752 
L 751.53369 165.533663 
L 751.832086 166.859029 
L 752.130481 167.632878 
L 752.428877 167.804694 
L 752.727273 167.361716 
L 753.025668 166.329764 
L 753.62246 162.782802 
L 755.412834 149.461728 
L 755.71123 148.289544 
L 756.009626 147.676683 
L 756.308021 147.649737 
L 756.606417 148.196746 
L 756.904813 149.267982 
L 757.501604 152.616853 
L 758.695187 160.389207 
L 759.291979 162.546086 
L 759.590374 162.813294 
L 759.88877 162.475086 
L 760.187166 161.530188 
L 760.783957 158.004601 
L 761.679144 150.1505 
L 762.574332 142.590054 
L 763.171123 139.500179 
L 763.469519 138.795672 
L 763.767914 138.684866 
L 764.06631 139.144836 
L 764.364706 140.115568 
L 764.961497 143.189272 
L 766.15508 150.00835 
L 766.453476 151.01928 
L 766.751872 151.523197 
L 767.050267 151.454981 
L 767.348663 150.786187 
L 767.647059 149.526897 
L 768.24385 145.46362 
L 770.33262 127.877482 
L 770.631016 126.713519 
L 770.929412 126.14623 
L 771.227807 126.180086 
L 771.526203 126.781145 
L 772.122995 129.372616 
L 773.614973 137.931991 
L 773.913369 138.870436 
L 774.211765 139.289367 
L 774.51016 139.133925 
L 774.808556 138.386707 
L 775.106952 137.068903 
L 775.703743 132.988848 
L 777.494118 118.242031 
L 777.792513 116.867601 
L 778.090909 116.072072 
L 778.389305 115.887006 
L 778.687701 116.305474 
L 778.986096 117.282517 
L 779.582888 120.562053 
L 781.074866 130.257074 
L 781.373262 131.33398 
L 781.671658 131.87817 
L 781.970053 131.84518 
L 782.268449 131.228584 
L 782.566845 130.060412 
L 783.163636 126.375083 
L 784.655615 115.288779 
L 784.954011 113.886056 
L 785.252406 113.021002 
L 785.550802 112.751142 
L 785.849198 113.096688 
L 786.147594 114.039237 
L 786.744385 117.458151 
L 788.534759 131.033728 
L 788.833155 132.329967 
L 789.131551 133.076683 
L 789.429947 133.23999 
L 789.728342 132.824416 
L 790.026738 131.872603 
L 790.623529 128.702599 
L 791.817112 120.963565 
L 792.413904 118.67696 
L 792.712299 118.324798 
L 793.010695 118.573974 
L 793.309091 119.433246 
L 793.905882 122.826384 
L 794.80107 130.660662 
L 795.696257 138.46199 
L 796.293048 141.823657 
L 796.591444 142.679858 
L 796.88984 142.943187 
L 797.188235 142.629174 
L 797.486631 141.790921 
L 798.083422 138.919094 
L 799.277005 132.18021 
L 799.575401 131.128116 
L 799.873797 130.567466 
L 800.172193 130.570044 
L 800.470588 131.171593 
L 800.768984 132.3695 
L 801.365775 136.355418 
L 803.454545 154.506495 
L 803.752941 155.840884 
L 804.051337 156.584798 
L 804.349733 156.726305 
L 804.648128 156.292024 
L 804.946524 155.345397 
L 805.543316 152.326205 
L 806.736898 145.674057 
L 807.035294 144.713151 
L 807.33369 144.257925 
L 807.632086 144.370115 
L 807.930481 145.074503 
L 808.228877 146.357302 
L 808.825668 150.417747 
L 810.616043 165.75268 
L 811.212834 168.299042 
L 811.51123 168.681495 
L 811.809626 168.456619 
L 812.108021 167.662167 
L 812.704813 164.69013 
L 814.196791 155.295136 
L 814.495187 154.207098 
L 814.793583 153.639352 
L 815.091979 153.64342 
L 815.390374 154.233152 
L 815.68877 155.383829 
L 816.285561 159.088161 
L 818.075936 172.276308 
L 818.374332 173.33655 
L 818.672727 173.809878 
L 818.971123 173.668678 
L 819.269519 172.923893 
L 819.86631 169.853469 
L 821.95508 155.381927 
L 822.253476 154.609336 
L 822.551872 154.416253 
L 822.850267 154.805591 
L 823.148663 155.741896 
L 823.745455 158.937834 
L 825.237433 168.588616 
L 825.535829 169.673176 
L 825.834225 170.215696 
L 826.13262 170.162405 
L 826.431016 169.497083 
L 826.729412 168.242116 
L 827.326203 164.2349 
L 829.116578 149.322502 
L 829.414973 147.862687 
L 829.713369 146.963089 
L 830.011765 146.654104 
L 830.31016 146.927628 
L 830.608556 147.737604 
L 831.205348 150.613055 
L 832.39893 157.680227 
L 832.697326 158.8771 
L 832.995722 159.599266 
L 833.294118 159.768451 
L 833.592513 159.341694 
L 833.890909 158.314141 
L 834.487701 154.627294 
L 835.382888 146.50294 
L 836.278075 138.618553 
L 836.874866 135.301035 
L 837.173262 134.48814 
L 837.471658 134.277441 
L 837.770053 134.649701 
L 838.068449 135.548339 
L 838.665241 138.535876 
L 839.858824 145.449042 
L 840.157219 146.535657 
L 840.455615 147.131609 
L 840.754011 147.168433 
L 841.052406 146.614027 
L 841.350802 145.474739 
L 841.947594 141.654408 
L 844.036364 124.76848 
L 844.334759 123.69297 
L 844.633155 123.219033 
L 844.931551 123.354713 
L 845.229947 124.069555 
L 845.826738 126.936596 
L 847.318717 136.53229 
L 847.617112 137.733367 
L 847.915508 138.427781 
L 848.213904 138.557075 
L 848.512299 138.100009 
L 848.810695 137.073928 
L 849.407487 133.568026 
L 851.197861 120.336864 
L 851.496257 119.187873 
L 851.794652 118.616053 
L 852.093048 118.656353 
L 852.391444 119.305318 
L 852.68984 120.521309 
L 853.286631 124.315262 
L 854.77861 135.561795 
L 855.375401 137.887534 
L 855.673797 138.21312 
L 855.972193 137.954099 
L 856.270588 137.138649 
L 856.86738 134.130512 
L 858.359358 124.485313 
L 858.657754 123.328322 
L 858.95615 122.69943 
L 859.254545 122.659342 
L 859.552941 123.231704 
L 859.851337 124.401564 
L 860.448128 128.28909 
L 862.536898 145.081669 
L 862.835294 146.124651 
L 863.13369 146.580666 
L 863.432086 146.450368 
L 863.730481 145.772666 
L 864.327273 143.104501 
L 865.819251 134.896702 
L 866.117647 134.116555 
L 866.416043 133.877785 
L 866.714439 134.230464 
L 867.012834 135.186908 
L 867.609626 138.769171 
L 868.504813 146.914102 
L 869.4 155.081712 
L 869.996791 158.702288 
L 870.295187 159.683694 
L 870.593583 160.06455 
L 870.891979 159.856663 
L 871.190374 159.109619 
L 871.787166 156.363771 
L 872.980749 149.611779 
L 873.279144 148.503434 
L 873.57754 147.869549 
L 873.875936 147.78515 
L 874.174332 148.289585 
L 874.472727 149.383959 
L 875.069519 153.157649 
L 876.263102 164.05172 
L 876.859893 168.903725 
L 877.456684 171.966588 
L 877.75508 172.632194 
L 878.053476 172.687362 
L 878.351872 172.155181 
L 878.650267 171.095833 
L 879.247059 167.796369 
L 880.440642 160.336174 
L 880.739037 159.126321 
L 881.037433 158.408291 
L 881.335829 158.247334 
L 881.634225 158.672032 
L 881.93262 159.672451 
L 882.529412 163.174322 
L 884.319786 177.025396 
L 884.618182 178.361862 
L 884.916578 179.132301 
L 885.214973 179.29451 
L 885.513369 178.844451 
L 885.811765 177.816502 
L 886.408556 174.340944 
L 887.900535 163.414154 
L 888.497326 161.055108 
L 888.795722 160.699441 
L 889.094118 160.92917 
L 889.392513 161.723461 
L 889.989305 164.739899 
L 891.779679 176.193162 
L 892.078075 177.008642 
L 892.376471 177.243746 
L 892.674866 176.867461 
L 892.973262 175.887267 
L 893.570053 172.332288 
L 895.658824 155.872078 
L 895.957219 154.789985 
L 896.255615 154.2898 
L 896.554011 154.378316 
L 896.852406 155.023871 
L 897.449198 157.681829 
L 898.941176 166.322281 
L 899.239572 167.260238 
L 899.537968 167.669716 
L 899.836364 167.493651 
L 900.134759 166.712292 
L 900.433155 165.344498 
L 901.029947 161.108542 
L 902.820321 145.376603 
L 903.417112 142.721124 
L 903.715508 142.272504 
L 904.013904 142.416972 
L 904.312299 143.112056 
L 904.909091 145.8124 
L 906.40107 154.0209 
L 906.699465 154.792415 
L 906.997861 155.025374 
L 907.296257 154.673284 
L 907.594652 153.727585 
L 908.191444 150.211774 
L 909.086631 142.321033 
L 909.981818 134.61804 
L 910.57861 131.407814 
L 910.877005 130.652874 
L 911.175401 130.507683 
L 911.473797 130.956575 
L 911.772193 131.946311 
L 912.368984 135.170341 
L 913.562567 142.806796 
L 914.159358 144.963006 
L 914.457754 145.255457 
L 914.75615 144.964321 
L 915.054545 144.092098 
L 915.651337 140.802796 
L 917.740107 125.543303 
L 918.038503 124.675747 
L 918.336898 124.411017 
L 918.635294 124.760638 
L 918.93369 125.69757 
L 919.530481 129.045222 
L 921.320856 141.663477 
L 921.619251 142.707081 
L 921.917647 143.190981 
L 922.216043 143.090056 
L 922.514439 142.417749 
L 923.11123 139.597946 
L 924.901604 128.113068 
L 925.2 127.211449 
L 925.498396 126.880337 
L 925.796791 127.158037 
L 926.095187 128.044559 
L 926.691979 131.45501 
L 927.587166 139.12734 
L 928.482353 146.489802 
L 929.079144 149.446456 
L 929.37754 150.087506 
L 929.675936 150.138844 
L 929.974332 149.624813 
L 930.272727 148.606746 
L 930.869519 145.462848 
L 932.063102 138.614926 
L 932.361497 137.618967 
L 932.659893 137.137289 
L 932.958289 137.233809 
L 933.256684 137.935664 
L 933.55508 139.231439 
L 934.151872 143.373016 
L 936.240642 161.228504 
L 936.539037 162.433896 
L 936.837433 163.046379 
L 937.135829 163.062838 
L 937.434225 162.518531 
L 938.031016 160.064428 
L 939.522995 152.012869 
L 939.82139 151.202617 
L 940.119786 150.918682 
L 940.418182 151.214596 
L 940.716578 152.106352 
L 941.313369 155.549816 
L 942.208556 163.505711 
L 943.103743 171.535543 
L 943.700535 175.07934 
L 943.99893 176.018763 
L 944.297326 176.350595 
L 944.595722 176.083039 
L 944.894118 175.262264 
L 945.490909 172.315373 
L 946.982888 163.586931 
L 947.281283 162.723621 
L 947.579679 162.397389 
L 947.878075 162.651277 
L 948.176471 163.490231 
L 948.773262 166.753119 
L 949.668449 174.126855 
L 950.563636 181.128102 
L 951.160428 183.787085 
L 951.458824 184.250827 
L 951.757219 184.099626 
L 952.055615 183.353115 
L 952.652406 180.33576 
L 954.442781 168.075422 
L 954.741176 167.011286 
L 955.039572 166.497582 
L 955.337968 166.566736 
L 955.636364 167.21273 
L 955.934759 168.39149 
L 956.531551 172.000014 
L 957.725134 180.535006 
L 958.321925 183.179612 
L 958.620321 183.703323 
L 958.918717 183.622272 
L 959.217112 182.928958 
L 959.515508 181.654383 
L 960.112299 177.663726 
L 961.902674 163.498909 
L 962.20107 162.248313 
L 962.499465 161.565399 
L 962.797861 161.471791 
L 963.096257 161.950522 
L 963.394652 162.947142 
L 963.991444 166.112144 
L 965.185027 173.327599 
L 965.483422 174.476609 
L 965.781818 175.126771 
L 966.080214 175.207463 
L 966.37861 174.684229 
L 966.677005 173.561013 
L 967.273797 169.718597 
L 969.362567 152.073459 
L 969.660963 150.808938 
L 969.959358 150.131351 
L 970.257754 150.051274 
L 970.55615 150.540747 
L 970.854545 151.535102 
L 971.451337 154.623453 
L 972.64492 161.298135 
L 972.943316 162.242252 
L 973.241711 162.673532 
L 973.540107 162.531532 
L 973.838503 161.792865 
L 974.136898 160.472727 
L 974.73369 156.333619 
L 976.524064 140.7816 
L 977.120856 138.16528 
L 977.419251 137.744222 
L 977.717647 137.926377 
L 978.016043 138.672755 
L 978.612834 141.528386 
L 980.104813 150.493507 
L 980.403209 151.474088 
L 980.701604 151.929493 
L 981 151.809599 
L 981.298396 151.102026 
L 981.596791 149.832955 
L 982.193583 145.895444 
L 983.983957 132.085612 
L 984.282353 130.931947 
L 984.580749 130.365897 
L 984.879144 130.413856 
L 985.17754 131.063642 
L 985.475936 132.265293 
L 986.072727 135.956963 
L 987.564706 146.378566 
L 987.863102 147.555731 
L 988.161497 148.193013 
L 988.459893 148.250758 
L 988.758289 147.727544 
L 989.056684 146.660277 
L 989.653476 143.216268 
L 991.145455 133.057789 
L 991.44385 131.890568 
L 991.742246 131.269958 
L 992.040642 131.248559 
L 992.339037 131.841343 
L 992.637433 133.024683 
L 993.234225 136.886952 
L 995.024599 151.316465 
L 995.322995 152.692026 
L 995.62139 153.509034 
L 995.919786 153.738521 
L 996.218182 153.390036 
L 996.218182 153.390036 
" style="fill:none;stroke:#4c72b0;stroke-linecap:round;stroke-width:1.4;"/>
   </g>
   <g id="line2d_34">
    <path clip-path="url(#p57cdb5603b)" d="M 184.581818 256.357315 
L 189.057754 263.725552 
L 200.993583 283.598648 
L 204.574332 289.015068 
L 207.558289 293.149232 
L 210.24385 296.51035 
L 212.631016 299.171562 
L 215.018182 301.494215 
L 217.106952 303.228166 
L 219.195722 304.667896 
L 220.986096 305.658301 
L 222.776471 306.41712 
L 224.566845 306.939552 
L 226.357219 307.222295 
L 228.147594 307.263566 
L 229.937968 307.063112 
L 231.728342 306.622211 
L 233.518717 305.943666 
L 235.309091 305.031786 
L 237.099465 303.892358 
L 239.188235 302.285153 
L 241.277005 300.392001 
L 243.664171 297.89933 
L 246.051337 295.082688 
L 248.736898 291.566373 
L 251.720856 287.286822 
L 255.301604 281.737072 
L 260.075936 273.86701 
L 271.116578 255.462966 
L 274.697326 249.99065 
L 277.681283 245.795364 
L 280.366845 242.368939 
L 282.754011 239.642309 
L 285.141176 237.248111 
L 287.229947 235.447195 
L 289.318717 233.937061 
L 291.109091 232.884051 
L 292.899465 232.06098 
L 294.68984 231.473072 
L 296.480214 231.12406 
L 298.270588 231.016165 
L 300.060963 231.15008 
L 301.851337 231.524965 
L 303.641711 232.138451 
L 305.432086 232.986659 
L 307.22246 234.064223 
L 309.31123 235.602084 
L 311.4 237.429533 
L 313.787166 239.852334 
L 316.174332 242.605462 
L 318.859893 246.058862 
L 321.84385 250.280217 
L 325.424599 255.777883 
L 329.900535 263.11025 
L 342.731551 284.432453 
L 346.312299 289.790826 
L 349.296257 293.863592 
L 351.981818 297.160265 
L 354.368984 299.757653 
L 356.75615 302.011074 
L 358.84492 303.680622 
L 360.93369 305.052959 
L 362.724064 305.98366 
L 364.514439 306.681382 
L 366.304813 307.141714 
L 368.095187 307.361746 
L 369.885561 307.340093 
L 371.675936 307.076899 
L 373.46631 306.573842 
L 375.256684 305.834118 
L 377.047059 304.862424 
L 379.135829 303.443901 
L 381.224599 301.730339 
L 383.313369 299.736529 
L 385.700535 297.136909 
L 388.386096 293.83838 
L 391.071658 290.189334 
L 394.354011 285.329619 
L 398.233155 279.153699 
L 403.902674 269.651252 
L 411.362567 257.206846 
L 415.241711 251.173358 
L 418.524064 246.480793 
L 421.209626 242.997715 
L 423.895187 239.888923 
L 426.282353 237.475734 
L 428.371123 235.657062 
L 430.459893 234.128269 
L 432.548663 232.902553 
L 434.339037 232.10126 
L 436.129412 231.535542 
L 437.919786 231.208992 
L 439.71016 231.12369 
L 441.500535 231.280183 
L 443.290909 231.677489 
L 445.081283 232.313098 
L 446.871658 233.18299 
L 448.662032 234.281662 
L 450.750802 235.84324 
L 452.839572 237.693236 
L 455.226738 240.140122 
L 457.613904 242.91528 
L 460.299465 246.390699 
L 463.283422 250.632723 
L 466.864171 256.149426 
L 471.340107 263.496073 
L 483.872727 284.333315 
L 487.453476 289.708241 
L 490.437433 293.79845 
L 493.122995 297.113391 
L 495.51016 299.728843 
L 497.897326 302.001835 
L 499.986096 303.68957 
L 502.074866 305.080923 
L 503.865241 306.028458 
L 505.655615 306.743396 
L 507.445989 307.221216 
L 509.236364 307.458898 
L 511.026738 307.454943 
L 512.817112 307.209386 
L 514.607487 306.723791 
L 516.397861 306.001244 
L 518.188235 305.046332 
L 519.97861 303.865115 
L 522.06738 302.211081 
L 524.15615 300.273555 
L 526.543316 297.733667 
L 528.930481 294.874048 
L 531.616043 291.315048 
L 534.6 286.995814 
L 538.180749 281.410141 
L 542.95508 273.513452 
L 553.39893 256.089137 
L 556.979679 250.586616 
L 559.963636 246.358657 
L 562.649198 242.897496 
L 565.036364 240.136163 
L 567.423529 237.704065 
L 569.512299 235.867699 
L 571.60107 234.3203 
L 573.68984 233.075225 
L 575.480214 232.256866 
L 577.270588 231.67376 
L 579.060963 231.329611 
L 580.851337 231.226609 
L 582.641711 231.365414 
L 584.432086 231.745155 
L 586.22246 232.363435 
L 588.012834 233.216343 
L 589.803209 234.298483 
L 591.891979 235.841486 
L 593.980749 237.673825 
L 596.367914 240.101851 
L 598.75508 242.85976 
L 601.440642 246.31794 
L 604.424599 250.543785 
L 608.005348 256.04559 
L 612.481283 263.381068 
L 625.312299 284.698847 
L 628.893048 290.05258 
L 631.877005 294.120471 
L 634.562567 297.412048 
L 636.949733 300.004402 
L 639.336898 302.252373 
L 641.425668 303.91686 
L 643.514439 305.283909 
L 645.304813 306.209929 
L 647.095187 306.902867 
L 648.885561 307.358341 
L 650.675936 307.573471 
L 652.46631 307.546904 
L 654.256684 307.278816 
L 656.047059 306.770914 
L 657.837433 306.026425 
L 659.627807 305.050076 
L 661.716578 303.626302 
L 663.805348 301.907725 
L 665.894118 299.909179 
L 668.281283 297.304539 
L 670.966845 294.000932 
L 673.652406 290.347479 
L 676.934759 285.483381 
L 680.813904 279.303819 
L 686.781818 269.293078 
L 693.943316 257.357966 
L 697.82246 251.328674 
L 701.104813 246.640923 
L 703.790374 243.162571 
L 706.475936 240.059141 
L 708.863102 237.65119 
L 710.951872 235.837418 
L 713.040642 234.313777 
L 715.129412 233.093419 
L 716.919786 232.296847 
L 718.71016 231.735939 
L 720.500535 231.414257 
L 722.290909 231.333847 
L 724.081283 231.495229 
L 725.871658 231.897388 
L 727.662032 232.537783 
L 729.452406 233.412365 
L 731.242781 234.515598 
L 733.331551 236.082301 
L 735.420321 237.937165 
L 737.807487 240.389246 
L 740.194652 243.169152 
L 742.880214 246.64931 
L 745.864171 250.895773 
L 749.44492 256.416548 
L 753.920856 263.766219 
L 766.15508 284.132401 
L 769.735829 289.539887 
L 772.719786 293.664566 
L 775.405348 297.015704 
L 777.792513 299.667016 
L 780.179679 301.978917 
L 782.268449 303.702856 
L 784.357219 305.132098 
L 786.147594 306.113204 
L 787.937968 306.862501 
L 789.728342 307.375248 
L 791.518717 307.648204 
L 793.309091 307.679648 
L 795.099465 307.469388 
L 796.88984 307.018766 
L 798.680214 306.330646 
L 800.470588 305.409397 
L 802.260963 304.260865 
L 804.349733 302.64345 
L 806.438503 300.740617 
L 808.825668 298.237633 
L 811.212834 295.411592 
L 813.898396 291.885925 
L 816.882353 287.597656 
L 820.463102 282.039976 
L 825.237433 274.163944 
L 836.278075 255.767135 
L 839.858824 250.303276 
L 842.842781 246.117107 
L 845.528342 242.700355 
L 847.915508 239.983377 
L 850.302674 237.599707 
L 852.391444 235.808631 
L 854.480214 234.308832 
L 856.270588 233.265008 
L 858.060963 232.451363 
L 859.851337 231.873062 
L 861.641711 231.533777 
L 863.432086 231.435667 
L 865.22246 231.579362 
L 867.012834 231.96396 
L 868.803209 232.587032 
L 870.593583 233.444638 
L 872.383957 234.53135 
L 874.472727 236.079492 
L 876.561497 237.916716 
L 878.948663 240.349961 
L 881.335829 243.112644 
L 884.02139 246.575596 
L 887.005348 250.80592 
L 890.586096 256.311849 
L 895.062032 263.650419 
L 907.594652 284.498491 
L 911.175401 289.88525 
L 914.159358 293.987966 
L 916.84492 297.316028 
L 919.232086 299.94447 
L 921.619251 302.231548 
L 923.708021 303.932385 
L 925.796791 305.337444 
L 927.587166 306.297118 
L 929.37754 307.024478 
L 931.167914 307.51492 
L 932.958289 307.765346 
L 934.748663 307.774177 
L 936.539037 307.541365 
L 938.329412 307.068395 
L 940.119786 306.35827 
L 941.91016 305.415501 
L 943.700535 304.246071 
L 945.789305 302.605236 
L 947.878075 300.680208 
L 950.265241 298.153607 
L 952.652406 295.306067 
L 955.337968 291.759045 
L 958.321925 287.450919 
L 961.902674 281.875256 
L 966.677005 273.985881 
L 977.419251 256.07844 
L 981 250.599282 
L 983.983957 246.396626 
L 986.669519 242.962384 
L 989.056684 240.227955 
L 991.44385 237.82525 
L 993.53262 236.016383 
L 995.62139 234.497897 
L 996.218182 234.119278 
L 996.218182 234.119278 
" style="fill:none;stroke:#55a868;stroke-linecap:round;stroke-width:1.4;"/>
   </g>
   <g id="patch_3">
    <path d="M 144 320.4 
L 144 43.2 
" style="fill:none;"/>
   </g>
   <g id="patch_4">
    <path d="M 1036.8 320.4 
L 1036.8 43.2 
" style="fill:none;"/>
   </g>
   <g id="patch_5">
    <path d="M 144 320.4 
L 1036.8 320.4 
" style="fill:none;"/>
   </g>
   <g id="patch_6">
    <path d="M 144 43.2 
L 1036.8 43.2 
" style="fill:none;"/>
   </g>
   <g id="legend_1">
    <g id="line2d_35">
     <path d="M 1002.75125 53.3975 
L 1018.75125 53.3975 
" style="fill:none;stroke:#4c72b0;stroke-linecap:round;stroke-width:1.4;"/>
    </g>
    <g id="line2d_36"/>
    <g id="text_17">
     <!-- a -->
     <defs>
      <path d="M 20.21875 -0.984375 
Q 12.25 -0.984375 8.25 3.21875 
Q 4.25 7.421875 4.25 14.75 
Q 4.25 19.96875 6.21875 23.3125 
Q 8.203125 26.65625 11.390625 28.5625 
Q 14.59375 30.46875 18.6875 31.203125 
Q 22.796875 31.9375 27.046875 32.03125 
L 38.921875 32.234375 
L 38.921875 35.109375 
Q 38.921875 38.375 38.234375 40.671875 
Q 37.546875 42.96875 36.125 44.375 
Q 34.71875 45.796875 32.59375 46.453125 
Q 30.46875 47.125 27.59375 47.125 
Q 25.046875 47.125 23 46.75 
Q 20.953125 46.390625 19.4375 45.4375 
Q 17.921875 44.484375 16.984375 42.84375 
Q 16.0625 41.21875 15.765625 38.71875 
L 6.59375 39.546875 
Q 7.078125 42.671875 8.4375 45.28125 
Q 9.8125 47.90625 12.328125 49.796875 
Q 14.84375 51.703125 18.625 52.75 
Q 22.40625 53.8125 27.78125 53.8125 
Q 37.75 53.8125 42.765625 49.234375 
Q 47.796875 44.671875 47.796875 36.03125 
L 47.796875 13.28125 
Q 47.796875 9.375 48.828125 7.390625 
Q 49.859375 5.421875 52.734375 5.421875 
Q 53.46875 5.421875 54.203125 5.515625 
Q 54.9375 5.609375 55.609375 5.765625 
L 55.609375 0.296875 
Q 53.953125 -0.09375 52.3125 -0.28125 
Q 50.6875 -0.484375 48.828125 -0.484375 
Q 46.34375 -0.484375 44.5625 0.171875 
Q 42.78125 0.828125 41.65625 2.171875 
Q 40.53125 3.515625 39.9375 5.484375 
Q 39.359375 7.46875 39.203125 10.109375 
L 38.921875 10.109375 
Q 37.5 7.5625 35.8125 5.515625 
Q 34.125 3.46875 31.875 2.03125 
Q 29.640625 0.59375 26.78125 -0.1875 
Q 23.921875 -0.984375 20.21875 -0.984375 
M 22.21875 5.609375 
Q 26.421875 5.609375 29.5625 7.140625 
Q 32.71875 8.6875 34.78125 11.078125 
Q 36.859375 13.484375 37.890625 16.3125 
Q 38.921875 19.140625 38.921875 21.734375 
L 38.921875 26.078125 
L 29.296875 25.875 
Q 26.078125 25.828125 23.171875 25.40625 
Q 20.265625 25 18.0625 23.78125 
Q 15.875 22.5625 14.578125 20.359375 
Q 13.28125 18.171875 13.28125 14.59375 
Q 13.28125 10.296875 15.59375 7.953125 
Q 17.921875 5.609375 22.21875 5.609375 
" id="LiberationSans-61"/>
     </defs>
     <g style="fill:#262626;" transform="translate(1025.15125 56.1975)scale(0.08 -0.08)">
      <use xlink:href="#LiberationSans-61"/>
     </g>
    </g>
    <g id="line2d_37">
     <path d="M 1002.75125 64.855 
L 1018.75125 64.855 
" style="fill:none;stroke:#55a868;stroke-linecap:round;stroke-width:1.4;"/>
    </g>
    <g id="line2d_38"/>
    <g id="text_18">
     <!-- b -->
     <defs>
      <path d="M 51.421875 26.65625 
Q 51.421875 -0.984375 31.984375 -0.984375 
Q 25.984375 -0.984375 22 1.1875 
Q 18.015625 3.375 15.53125 8.203125 
L 15.4375 8.203125 
Q 15.4375 6.9375 15.359375 5.5625 
Q 15.28125 4.203125 15.203125 3.03125 
Q 15.140625 1.859375 15.0625 1.03125 
Q 14.984375 0.203125 14.9375 0 
L 6.453125 0 
Q 6.5 0.4375 6.546875 1.484375 
Q 6.59375 2.546875 6.640625 4 
Q 6.6875 5.46875 6.703125 7.21875 
Q 6.734375 8.984375 6.734375 10.890625 
L 6.734375 72.46875 
L 15.53125 72.46875 
L 15.53125 51.8125 
Q 15.53125 50.34375 15.5 49 
Q 15.484375 47.65625 15.4375 46.625 
Q 15.375 45.40625 15.328125 44.34375 
L 15.53125 44.34375 
Q 17.96875 49.421875 22 51.609375 
Q 26.03125 53.8125 31.984375 53.8125 
Q 42 53.8125 46.703125 47.0625 
Q 51.421875 40.328125 51.421875 26.65625 
M 42.1875 26.375 
Q 42.1875 31.84375 41.5 35.75 
Q 40.828125 39.65625 39.3125 42.15625 
Q 37.796875 44.671875 35.453125 45.84375 
Q 33.109375 47.015625 29.734375 47.015625 
Q 26.265625 47.015625 23.609375 45.890625 
Q 20.953125 44.78125 19.171875 42.28125 
Q 17.390625 39.796875 16.453125 35.734375 
Q 15.53125 31.6875 15.53125 25.828125 
Q 15.53125 20.171875 16.453125 16.3125 
Q 17.390625 12.453125 19.171875 10.03125 
Q 20.953125 7.625 23.578125 6.5625 
Q 26.21875 5.515625 29.640625 5.515625 
Q 32.859375 5.515625 35.203125 6.640625 
Q 37.546875 7.765625 39.109375 10.25 
Q 40.671875 12.75 41.421875 16.71875 
Q 42.1875 20.703125 42.1875 26.375 
" id="LiberationSans-62"/>
     </defs>
     <g style="fill:#262626;" transform="translate(1025.15125 67.655)scale(0.08 -0.08)">
      <use xlink:href="#LiberationSans-62"/>
     </g>
    </g>
   </g>
  </g>
 </g>
 <defs>
  <clipPath id="p57cdb5603b">
   <rect height="277.2" width="892.8" x="144" y="43.2"/>
  </clipPath>
 </defs>
</svg>
