<?xml version="1.0" encoding="utf-8" standalone="no"?>
<!DOCTYPE svg PUBLIC "-//W3C//DTD SVG 1.1//EN"
  "http://www.w3.org/Graphics/SVG/1.1/DTD/svg11.dtd">
<!-- Created with matplotlib (http://matplotlib.org/) -->
<svg height="360pt" version="1.1" viewBox="0 0 1152 360" width="1152pt" xmlns="http://www.w3.org/2000/svg" xmlns:xlink="http://www.w3.org/1999/xlink">
 <defs>
  <style type="text/css">
*{stroke-linecap:butt;stroke-linejoin:round;}
  </style>
 </defs>
 <g id="figure_1">
  <g id="patch_1">
   <path d="M 0 360 
L 1152 360 
L 1152 0 
L 0 0 
z
" style="fill:#ffffff;"/>
  </g>
  <g id="axes_1">
   <g id="patch_2">
    <path d="M 144 320.4 
L 1036.8 320.4 
L 1036.8 43.2 
L 144 43.2 
z
" style="fill:#eaeaf2;"/>
   </g>
   <g id="matplotlib.axis_1">
    <g id="xtick_1">
     <g id="line2d_1">
      <path clip-path="url(#p6d0bba6319)" d="M 184.581818 320.4 
L 184.581818 43.2 
" style="fill:none;stroke:#ffffff;stroke-linecap:round;stroke-width:0.8;"/>
     </g>
     <g id="line2d_2"/>
     <g id="text_1">
      <!-- 0 -->
      <defs>
       <path d="M 51.703125 34.421875 
Q 51.703125 24.515625 49.828125 17.75 
Q 47.953125 10.984375 44.703125 6.8125 
Q 41.453125 2.640625 37.0625 0.828125 
Q 32.671875 -0.984375 27.6875 -0.984375 
Q 22.65625 -0.984375 18.3125 0.828125 
Q 13.96875 2.640625 10.765625 6.78125 
Q 7.5625 10.9375 5.734375 17.703125 
Q 3.90625 24.46875 3.90625 34.421875 
Q 3.90625 44.828125 5.734375 51.640625 
Q 7.5625 58.453125 10.78125 62.5 
Q 14.015625 66.546875 18.40625 68.1875 
Q 22.796875 69.828125 27.984375 69.828125 
Q 32.90625 69.828125 37.21875 68.1875 
Q 41.546875 66.546875 44.765625 62.5 
Q 48 58.453125 49.84375 51.640625 
Q 51.703125 44.828125 51.703125 34.421875 
M 42.78125 34.421875 
Q 42.78125 42.625 41.796875 48.0625 
Q 40.828125 53.515625 38.921875 56.765625 
Q 37.015625 60.015625 34.25 61.359375 
Q 31.5 62.703125 27.984375 62.703125 
Q 24.265625 62.703125 21.4375 61.328125 
Q 18.609375 59.96875 16.671875 56.71875 
Q 14.75 53.46875 13.765625 48.015625 
Q 12.796875 42.578125 12.796875 34.421875 
Q 12.796875 26.515625 13.796875 21.09375 
Q 14.796875 15.671875 16.71875 12.375 
Q 18.65625 9.078125 21.4375 7.640625 
Q 24.21875 6.203125 27.78125 6.203125 
Q 31.25 6.203125 34.03125 7.640625 
Q 36.8125 9.078125 38.734375 12.375 
Q 40.671875 15.671875 41.71875 21.09375 
Q 42.78125 26.515625 42.78125 34.421875 
" id="LiberationSans-30"/>
      </defs>
      <g style="fill:#262626;" transform="translate(182.357443 331.7975)scale(0.08 -0.08)">
       <use xlink:href="#LiberationSans-30"/>
      </g>
     </g>
    </g>
    <g id="xtick_2">
     <g id="line2d_3">
      <path clip-path="url(#p6d0bba6319)" d="M 333.889464 320.4 
L 333.889464 43.2 
" style="fill:none;stroke:#ffffff;stroke-linecap:round;stroke-width:0.8;"/>
     </g>
     <g id="line2d_4"/>
     <g id="text_2">
      <!-- 500 -->
      <defs>
       <path d="M 51.421875 22.40625 
Q 51.421875 17.234375 49.859375 12.9375 
Q 48.296875 8.640625 45.21875 5.53125 
Q 42.140625 2.4375 37.578125 0.71875 
Q 33.015625 -0.984375 27 -0.984375 
Q 21.578125 -0.984375 17.546875 0.28125 
Q 13.53125 1.5625 10.734375 3.78125 
Q 7.953125 6 6.3125 8.984375 
Q 4.6875 11.96875 4 15.375 
L 12.890625 16.40625 
Q 13.421875 14.453125 14.390625 12.625 
Q 15.375 10.796875 17.0625 9.34375 
Q 18.75 7.90625 21.21875 7.046875 
Q 23.6875 6.203125 27.203125 6.203125 
Q 30.609375 6.203125 33.390625 7.25 
Q 36.1875 8.296875 38.15625 10.34375 
Q 40.140625 12.40625 41.203125 15.375 
Q 42.28125 18.359375 42.28125 22.21875 
Q 42.28125 25.390625 41.25 28.046875 
Q 40.234375 30.71875 38.328125 32.640625 
Q 36.421875 34.578125 33.65625 35.640625 
Q 30.90625 36.71875 27.390625 36.71875 
Q 25.203125 36.71875 23.34375 36.328125 
Q 21.484375 35.9375 19.890625 35.25 
Q 18.3125 34.578125 17.015625 33.671875 
Q 15.71875 32.765625 14.59375 31.78125 
L 6 31.78125 
L 8.296875 68.796875 
L 47.40625 68.796875 
L 47.40625 61.328125 
L 16.3125 61.328125 
L 14.984375 39.5 
Q 17.328125 41.3125 20.84375 42.59375 
Q 24.359375 43.890625 29.203125 43.890625 
Q 34.328125 43.890625 38.421875 42.328125 
Q 42.53125 40.765625 45.40625 37.90625 
Q 48.296875 35.0625 49.859375 31.109375 
Q 51.421875 27.15625 51.421875 22.40625 
" id="LiberationSans-35"/>
      </defs>
      <g style="fill:#262626;" transform="translate(327.216339 331.7975)scale(0.08 -0.08)">
       <use xlink:href="#LiberationSans-35"/>
       <use x="55.615234" xlink:href="#LiberationSans-30"/>
       <use x="111.230469" xlink:href="#LiberationSans-30"/>
      </g>
     </g>
    </g>
    <g id="xtick_3">
     <g id="line2d_5">
      <path clip-path="url(#p6d0bba6319)" d="M 483.19711 320.4 
L 483.19711 43.2 
" style="fill:none;stroke:#ffffff;stroke-linecap:round;stroke-width:0.8;"/>
     </g>
     <g id="line2d_6"/>
     <g id="text_3">
      <!-- 1000 -->
      <defs>
       <path d="M 7.625 0 
L 7.625 7.46875 
L 25.140625 7.46875 
L 25.140625 60.40625 
L 9.625 49.3125 
L 9.625 57.625 
L 25.875 68.796875 
L 33.984375 68.796875 
L 33.984375 7.46875 
L 50.734375 7.46875 
L 50.734375 0 
z
" id="LiberationSans-31"/>
      </defs>
      <g style="fill:#262626;" transform="translate(474.29961 331.7975)scale(0.08 -0.08)">
       <use xlink:href="#LiberationSans-31"/>
       <use x="55.615234" xlink:href="#LiberationSans-30"/>
       <use x="111.230469" xlink:href="#LiberationSans-30"/>
       <use x="166.845703" xlink:href="#LiberationSans-30"/>
      </g>
     </g>
    </g>
    <g id="xtick_4">
     <g id="line2d_7">
      <path clip-path="url(#p6d0bba6319)" d="M 632.504756 320.4 
L 632.504756 43.2 
" style="fill:none;stroke:#ffffff;stroke-linecap:round;stroke-width:0.8;"/>
     </g>
     <g id="line2d_8"/>
     <g id="text_4">
      <!-- 1500 -->
      <g style="fill:#262626;" transform="translate(623.607256 331.7975)scale(0.08 -0.08)">
       <use xlink:href="#LiberationSans-31"/>
       <use x="55.615234" xlink:href="#LiberationSans-35"/>
       <use x="111.230469" xlink:href="#LiberationSans-30"/>
       <use x="166.845703" xlink:href="#LiberationSans-30"/>
      </g>
     </g>
    </g>
    <g id="xtick_5">
     <g id="line2d_9">
      <path clip-path="url(#p6d0bba6319)" d="M 781.812402 320.4 
L 781.812402 43.2 
" style="fill:none;stroke:#ffffff;stroke-linecap:round;stroke-width:0.8;"/>
     </g>
     <g id="line2d_10"/>
     <g id="text_5">
      <!-- 2000 -->
      <defs>
       <path d="M 5.03125 0 
L 5.03125 6.203125 
Q 7.515625 11.921875 11.109375 16.28125 
Q 14.703125 20.65625 18.65625 24.1875 
Q 22.609375 27.734375 26.484375 30.765625 
Q 30.375 33.796875 33.5 36.8125 
Q 36.625 39.84375 38.546875 43.15625 
Q 40.484375 46.484375 40.484375 50.6875 
Q 40.484375 53.609375 39.59375 55.828125 
Q 38.71875 58.0625 37.0625 59.5625 
Q 35.40625 61.078125 33.078125 61.828125 
Q 30.765625 62.59375 27.9375 62.59375 
Q 25.296875 62.59375 22.96875 61.859375 
Q 20.65625 61.140625 18.84375 59.671875 
Q 17.046875 58.203125 15.890625 56.03125 
Q 14.75 53.859375 14.40625 50.984375 
L 5.421875 51.8125 
Q 5.859375 55.515625 7.46875 58.78125 
Q 9.078125 62.0625 11.90625 64.53125 
Q 14.75 67 18.71875 68.40625 
Q 22.703125 69.828125 27.9375 69.828125 
Q 33.0625 69.828125 37.0625 68.609375 
Q 41.0625 67.390625 43.8125 64.984375 
Q 46.578125 62.59375 48.046875 59.078125 
Q 49.515625 55.5625 49.515625 50.984375 
Q 49.515625 47.515625 48.265625 44.390625 
Q 47.015625 41.265625 44.9375 38.421875 
Q 42.875 35.59375 40.140625 32.953125 
Q 37.40625 30.328125 34.421875 27.8125 
Q 31.453125 25.296875 28.421875 22.828125 
Q 25.390625 20.359375 22.71875 17.859375 
Q 20.0625 15.375 17.96875 12.8125 
Q 15.875 10.25 14.703125 7.46875 
L 50.59375 7.46875 
L 50.59375 0 
z
" id="LiberationSans-32"/>
      </defs>
      <g style="fill:#262626;" transform="translate(772.914902 331.7975)scale(0.08 -0.08)">
       <use xlink:href="#LiberationSans-32"/>
       <use x="55.615234" xlink:href="#LiberationSans-30"/>
       <use x="111.230469" xlink:href="#LiberationSans-30"/>
       <use x="166.845703" xlink:href="#LiberationSans-30"/>
      </g>
     </g>
    </g>
    <g id="xtick_6">
     <g id="line2d_11">
      <path clip-path="url(#p6d0bba6319)" d="M 931.120048 320.4 
L 931.120048 43.2 
" style="fill:none;stroke:#ffffff;stroke-linecap:round;stroke-width:0.8;"/>
     </g>
     <g id="line2d_12"/>
     <g id="text_6">
      <!-- 2500 -->
      <g style="fill:#262626;" transform="translate(922.222548 331.7975)scale(0.08 -0.08)">
       <use xlink:href="#LiberationSans-32"/>
       <use x="55.615234" xlink:href="#LiberationSans-35"/>
       <use x="111.230469" xlink:href="#LiberationSans-30"/>
       <use x="166.845703" xlink:href="#LiberationSans-30"/>
      </g>
     </g>
    </g>
   </g>
   <g id="matplotlib.axis_2">
    <g id="ytick_1">
     <g id="line2d_13">
      <path clip-path="url(#p6d0bba6319)" d="M 144 316.905792 
L 1036.8 316.905792 
" style="fill:none;stroke:#ffffff;stroke-linecap:round;stroke-width:0.8;"/>
     </g>
     <g id="line2d_14"/>
     <g id="text_7">
      <!-- −10000 -->
      <defs>
       <path d="M 4.9375 29.6875 
L 4.9375 36.8125 
L 53.515625 36.8125 
L 53.515625 29.6875 
z
" id="LiberationSans-2212"/>
      </defs>
      <g style="fill:#262626;" transform="translate(111.48375 319.804542)scale(0.08 -0.08)">
       <use xlink:href="#LiberationSans-2212"/>
       <use x="58.398438" xlink:href="#LiberationSans-31"/>
       <use x="114.013672" xlink:href="#LiberationSans-30"/>
       <use x="169.628906" xlink:href="#LiberationSans-30"/>
       <use x="225.244141" xlink:href="#LiberationSans-30"/>
       <use x="280.859375" xlink:href="#LiberationSans-30"/>
      </g>
     </g>
    </g>
    <g id="ytick_2">
     <g id="line2d_15">
      <path clip-path="url(#p6d0bba6319)" d="M 144 264.64094 
L 1036.8 264.64094 
" style="fill:none;stroke:#ffffff;stroke-linecap:round;stroke-width:0.8;"/>
     </g>
     <g id="line2d_16"/>
     <g id="text_8">
      <!-- −5000 -->
      <g style="fill:#262626;" transform="translate(115.9325 267.53969)scale(0.08 -0.08)">
       <use xlink:href="#LiberationSans-2212"/>
       <use x="58.398438" xlink:href="#LiberationSans-35"/>
       <use x="114.013672" xlink:href="#LiberationSans-30"/>
       <use x="169.628906" xlink:href="#LiberationSans-30"/>
       <use x="225.244141" xlink:href="#LiberationSans-30"/>
      </g>
     </g>
    </g>
    <g id="ytick_3">
     <g id="line2d_17">
      <path clip-path="url(#p6d0bba6319)" d="M 144 212.376088 
L 1036.8 212.376088 
" style="fill:none;stroke:#ffffff;stroke-linecap:round;stroke-width:0.8;"/>
     </g>
     <g id="line2d_18"/>
     <g id="text_9">
      <!-- 0 -->
      <g style="fill:#262626;" transform="translate(133.95125 215.274838)scale(0.08 -0.08)">
       <use xlink:href="#LiberationSans-30"/>
      </g>
     </g>
    </g>
    <g id="ytick_4">
     <g id="line2d_19">
      <path clip-path="url(#p6d0bba6319)" d="M 144 160.111236 
L 1036.8 160.111236 
" style="fill:none;stroke:#ffffff;stroke-linecap:round;stroke-width:0.8;"/>
     </g>
     <g id="line2d_20"/>
     <g id="text_10">
      <!-- 5000 -->
      <g style="fill:#262626;" transform="translate(120.605 163.009986)scale(0.08 -0.08)">
       <use xlink:href="#LiberationSans-35"/>
       <use x="55.615234" xlink:href="#LiberationSans-30"/>
       <use x="111.230469" xlink:href="#LiberationSans-30"/>
       <use x="166.845703" xlink:href="#LiberationSans-30"/>
      </g>
     </g>
    </g>
    <g id="ytick_5">
     <g id="line2d_21">
      <path clip-path="url(#p6d0bba6319)" d="M 144 107.846385 
L 1036.8 107.846385 
" style="fill:none;stroke:#ffffff;stroke-linecap:round;stroke-width:0.8;"/>
     </g>
     <g id="line2d_22"/>
     <g id="text_11">
      <!-- 10000 -->
      <g style="fill:#262626;" transform="translate(116.15625 110.745135)scale(0.08 -0.08)">
       <use xlink:href="#LiberationSans-31"/>
       <use x="55.615234" xlink:href="#LiberationSans-30"/>
       <use x="111.230469" xlink:href="#LiberationSans-30"/>
       <use x="166.845703" xlink:href="#LiberationSans-30"/>
       <use x="222.460938" xlink:href="#LiberationSans-30"/>
      </g>
     </g>
    </g>
    <g id="ytick_6">
     <g id="line2d_23">
      <path clip-path="url(#p6d0bba6319)" d="M 144 55.581533 
L 1036.8 55.581533 
" style="fill:none;stroke:#ffffff;stroke-linecap:round;stroke-width:0.8;"/>
     </g>
     <g id="line2d_24"/>
     <g id="text_12">
      <!-- 15000 -->
      <g style="fill:#262626;" transform="translate(116.15625 58.480283)scale(0.08 -0.08)">
       <use xlink:href="#LiberationSans-31"/>
       <use x="55.615234" xlink:href="#LiberationSans-35"/>
       <use x="111.230469" xlink:href="#LiberationSans-30"/>
       <use x="166.845703" xlink:href="#LiberationSans-30"/>
       <use x="222.460938" xlink:href="#LiberationSans-30"/>
      </g>
     </g>
    </g>
   </g>
   <g id="line2d_25">
    <path clip-path="url(#p6d0bba6319)" d="M 184.581818 212.376088 
L 186.074895 212.37742 
L 186.37351 213.901992 
L 186.672125 220.234945 
L 187.269356 247.956222 
L 187.567971 262.673064 
L 187.866586 266.250697 
L 188.165202 248.859986 
L 188.762432 159.646811 
L 189.061048 114.785798 
L 189.359663 89.265185 
L 189.658278 89.7063 
L 189.956893 114.469282 
L 191.151355 263.932647 
L 191.44997 272.555615 
L 191.748585 265.878781 
L 192.345816 225.900664 
L 192.943046 191.194607 
L 193.241662 186.411328 
L 193.540277 190.653979 
L 194.137508 214.86886 
L 194.734738 234.969347 
L 195.033353 237.260116 
L 195.331969 234.203563 
L 196.52643 207.268986 
L 196.825045 206.011661 
L 197.12366 207.955287 
L 198.318122 224.108816 
L 198.616737 224.742788 
L 198.915352 223.430731 
L 200.109813 213.331324 
L 200.408429 212.869719 
L 200.707044 213.555643 
L 201.901505 219.326498 
L 202.20012 219.565035 
L 202.498736 219.095843 
L 203.693197 215.478676 
L 203.991812 215.380397 
L 204.290427 215.718645 
L 205.484889 218.032995 
L 205.783504 218.112156 
L 206.380734 217.67566 
L 206.977965 217.221448 
L 207.27658 217.230186 
L 207.575196 217.448026 
L 207.873811 217.881542 
L 208.471042 219.319233 
L 209.068272 221.612092 
L 209.665503 225.465611 
L 209.964118 228.621886 
L 210.262733 233.194119 
L 210.859964 248.706954 
L 211.158579 258.314802 
L 211.457194 262.289021 
L 211.75581 250.397722 
L 212.054425 217.55795 
L 212.950271 92.57564 
L 213.248886 88.505254 
L 213.547502 111.888548 
L 214.741963 281.360779 
L 215.040578 293.021591 
L 215.339193 286.586219 
L 215.936424 240.45862 
L 216.533654 198.292488 
L 216.83227 192.706943 
L 217.130885 199.5989 
L 217.4295 217.166287 
L 218.026731 265.714983 
L 218.325346 279.955482 
L 218.623961 271.856103 
L 218.922577 236.316108 
L 219.818423 86.114659 
L 220.117038 77.006986 
L 220.415653 99.695158 
L 221.610114 290.521658 
L 221.90873 305.609266 
L 222.207345 300.052467 
L 222.804576 250.357792 
L 223.401806 205.629156 
L 223.700421 202.174533 
L 223.999037 213.381513 
L 224.596267 250.305736 
L 224.894883 247.998557 
L 225.193498 220.974012 
L 226.089344 101.847425 
L 226.387959 98.084356 
L 226.686574 121.15427 
L 227.881036 287.220715 
L 228.179651 299.375115 
L 228.478266 294.129919 
L 229.075497 252.538804 
L 229.374112 231.474919 
L 229.672727 219.603951 
L 229.971343 220.164774 
L 230.568573 238.559524 
L 230.867188 231.525825 
L 231.165804 204.016691 
L 231.763034 124.987793 
L 232.06165 102.856137 
L 232.360265 105.419205 
L 232.65888 132.024732 
L 233.853341 286.936289 
L 234.151957 295.592394 
L 234.450572 288.623921 
L 235.645033 223.075749 
L 235.943648 226.930699 
L 236.540879 248.021658 
L 236.839494 238.787399 
L 237.13811 206.783101 
L 237.73534 117.060051 
L 238.033955 92.043584 
L 238.332571 94.269021 
L 238.631186 122.857791 
L 239.527032 262.277628 
L 239.825647 289.66556 
L 240.124262 298.369957 
L 240.422878 289.858731 
L 241.617339 210.878042 
L 241.915954 212.691308 
L 242.21457 227.949655 
L 242.8118 266.851534 
L 243.110415 260.559368 
L 243.409031 225.529792 
L 244.304877 80.277721 
L 244.603492 74.797228 
L 244.902107 100.661013 
L 246.096568 290.551345 
L 246.395184 303.783969 
L 246.693799 296.500757 
L 247.29103 243.581654 
L 247.88826 194.495969 
L 248.186875 187.49227 
L 248.485491 194.593704 
L 248.784106 213.589166 
L 249.679952 291.530474 
L 249.978567 296.790514 
L 250.277182 272.811922 
L 250.874413 151.261752 
L 251.173028 90.238356 
L 251.471644 55.8 
L 251.770259 57.666901 
L 252.068874 93.584352 
L 252.96472 267.613242 
L 253.263335 299.89975 
L 253.561951 307.8 
L 253.860566 293.543507 
L 255.055027 175.639437 
L 255.353642 168.675982 
L 255.652258 175.287381 
L 256.846719 241.007401 
L 257.145334 244.112247 
L 257.443949 239.344856 
L 258.638411 200.005729 
L 258.937026 198.620084 
L 259.235641 202.016327 
L 260.430102 228.455474 
L 260.728718 230.447183 
L 261.027333 230.040458 
L 261.624564 227.329167 
L 261.923179 228.476694 
L 262.221794 233.542935 
L 263.11764 264.840278 
L 263.416255 257.102885 
L 263.714871 225.757667 
L 264.610716 87.873894 
L 264.909332 77.246359 
L 265.207947 95.153343 
L 265.805178 185.061849 
L 266.402408 266.326063 
L 266.701023 282.534857 
L 266.999639 280.280779 
L 267.298254 263.187872 
L 268.1941 190.456418 
L 268.492715 179.542158 
L 268.791331 179.617211 
L 269.089946 188.875511 
L 269.985792 230.226416 
L 270.284407 235.978372 
L 270.583022 235.24332 
L 270.881638 229.239238 
L 271.777483 204.592263 
L 272.076099 201.472386 
L 272.374714 202.243616 
L 272.673329 206.134808 
L 273.569175 221.326684 
L 273.86779 223.169512 
L 274.166406 222.607288 
L 274.465021 220.138767 
L 275.360867 210.807704 
L 275.659482 209.713455 
L 275.958098 210.07656 
L 276.256713 211.56498 
L 277.152559 217.117608 
L 277.451174 217.75387 
L 277.749789 217.525639 
L 278.048405 216.596339 
L 278.94425 213.100641 
L 279.242866 212.701115 
L 279.541481 212.83838 
L 280.138712 214.212957 
L 280.735942 215.529227 
L 281.034557 215.731366 
L 281.333173 215.606986 
L 282.826249 213.972748 
L 283.124865 213.984424 
L 283.722095 214.337881 
L 284.319326 214.726355 
L 284.916556 214.757233 
L 286.708248 214.138448 
L 288.201325 214.504564 
L 290.590247 214.215915 
L 293.277784 214.031243 
L 294.17363 213.947316 
L 296.861168 214.07617 
L 298.354244 213.917284 
L 301.937628 213.941577 
L 303.430704 213.650504 
L 304.923781 213.83918 
L 306.118242 213.634417 
L 308.208549 213.741162 
L 309.40301 213.47457 
L 310.000241 213.493061 
L 310.896087 213.671107 
L 311.493317 213.56388 
L 312.090548 213.385587 
L 312.687778 213.398504 
L 313.88224 213.546047 
L 317.167008 213.410841 
L 318.062854 213.444549 
L 320.153161 213.183362 
L 322.243468 213.28628 
L 323.139314 213.323024 
L 325.528236 213.034073 
L 326.722697 212.999151 
L 329.11162 212.956828 
L 330.306081 213.064125 
L 332.396388 212.793941 
L 333.590849 212.808566 
L 334.486695 212.861612 
L 336.875617 212.682151 
L 338.070078 212.932469 
L 340.757616 212.550126 
L 344.93823 213.02945 
L 346.132691 213.192369 
L 347.327152 213.358252 
L 348.222998 213.712312 
L 348.820229 214.2511 
L 349.417459 215.163352 
L 350.01469 216.553764 
L 350.611921 219.127693 
L 350.910536 221.224695 
L 351.209151 224.271673 
L 351.507766 228.63307 
L 352.104997 243.133744 
L 352.403612 252.475459 
L 352.702228 257.649366 
L 353.000843 249.291485 
L 353.299458 221.409681 
L 354.195304 102.625126 
L 354.493919 94.963099 
L 354.792535 113.040361 
L 355.986996 269.864603 
L 356.285611 283.042767 
L 356.584226 279.372729 
L 356.882842 262.691043 
L 357.778688 199.428516 
L 358.077303 193.116386 
L 358.375918 198.486913 
L 358.674533 214.16503 
L 359.570379 275.505757 
L 359.868995 270.214673 
L 360.16761 238.301232 
L 361.063456 91.495848 
L 361.362071 79.589915 
L 361.660686 98.492021 
L 362.257917 195.130882 
L 362.855148 281.894195 
L 363.153763 298.378842 
L 363.452378 294.931035 
L 363.750993 275.9729 
L 364.646839 205.172162 
L 364.945455 200.881584 
L 365.24407 211.076585 
L 365.8413 248.400473 
L 366.139916 248.208557 
L 366.438531 223.141184 
L 367.334377 101.410491 
L 367.632992 95.023726 
L 367.931607 115.897785 
L 369.126069 282.820223 
L 369.424684 296.33351 
L 369.723299 292.176154 
L 370.32053 250.942009 
L 370.619145 228.972478 
L 370.91776 215.723777 
L 371.216376 215.056418 
L 371.813606 235.555445 
L 372.112222 232.780391 
L 372.410837 209.495668 
L 373.306683 105.808055 
L 373.605298 103.546033 
L 373.903913 125.806156 
L 375.098374 281.468968 
L 375.39699 292.948629 
L 375.695605 288.344304 
L 376.292836 250.25828 
L 376.591451 230.804884 
L 376.890066 219.801073 
L 377.188682 220.475656 
L 377.785912 240.919701 
L 378.084527 236.998687 
L 378.383143 212.031195 
L 379.278989 104.339413 
L 379.577604 101.416763 
L 379.876219 123.313958 
L 381.07068 279.547189 
L 381.369296 291.169115 
L 381.667911 286.489007 
L 382.265141 246.962249 
L 382.563757 225.911221 
L 382.862372 212.855963 
L 383.160987 211.75571 
L 383.459603 223.157909 
L 384.056833 257.667659 
L 384.355449 254.215565 
L 384.654064 225.366308 
L 385.54991 96.784006 
L 385.848525 90.058565 
L 386.14714 111.115133 
L 387.341601 279.248966 
L 387.640217 292.437897 
L 387.938832 287.427265 
L 388.237447 268.376413 
L 389.133293 198.19308 
L 389.431908 191.214677 
L 389.730524 196.711685 
L 390.029139 212.961627 
L 390.924985 281.251546 
L 391.2236 284.853849 
L 391.522216 262.4016 
L 392.716677 75.693048 
L 393.015292 79.297232 
L 393.313907 111.851336 
L 394.209753 261.635188 
L 394.508368 288.313886 
L 394.806984 293.972602 
L 395.105599 280.780326 
L 396.30006 179.537141 
L 396.598675 174.237171 
L 396.897291 180.534145 
L 398.091752 237.111161 
L 398.390367 239.471233 
L 398.688983 235.180184 
L 399.883444 202.27232 
L 400.182059 201.605347 
L 400.480674 205.137845 
L 402.272366 242.080817 
L 403.168212 256.612327 
L 403.466827 247.770473 
L 403.765443 220.438056 
L 404.661288 103.167635 
L 404.959904 94.098638 
L 405.258519 109.591194 
L 405.85575 187.724953 
L 406.45298 258.593792 
L 406.751595 272.798751 
L 407.050211 271.005649 
L 407.348826 256.326961 
L 408.244672 193.404574 
L 408.543287 183.799131 
L 408.841902 183.692928 
L 409.140518 191.54405 
L 410.036364 227.105996 
L 410.334979 232.121226 
L 410.633594 231.570146 
L 410.93221 226.497215 
L 411.828055 205.3768 
L 412.126671 202.638373 
L 412.425286 203.234046 
L 412.723901 206.517909 
L 413.619747 219.643746 
L 413.918362 221.306866 
L 414.216978 220.885862 
L 414.515593 218.796376 
L 415.411439 210.675568 
L 415.710054 209.703494 
L 416.008669 210.008428 
L 416.307285 211.311599 
L 417.203131 216.177907 
L 417.501746 216.721346 
L 417.800361 216.507363 
L 418.397592 214.591449 
L 418.994822 212.700042 
L 419.293438 212.378 
L 419.592053 212.536537 
L 420.189284 213.73165 
L 420.786514 214.798982 
L 421.085129 214.971237 
L 421.383745 214.898599 
L 421.980975 214.245435 
L 422.578206 213.579716 
L 422.876821 213.471194 
L 423.474052 213.741204 
L 424.071282 214.13895 
L 424.668513 214.234459 
L 426.460205 213.727636 
L 427.356051 213.909821 
L 427.953281 214.000563 
L 428.849127 213.851629 
L 429.744973 213.788452 
L 431.536665 213.839786 
L 432.731126 213.809849 
L 433.925587 213.744612 
L 434.821433 213.688396 
L 436.314509 213.67903 
L 437.50897 213.678873 
L 439.002047 213.643082 
L 440.196508 213.566995 
L 441.390969 213.652678 
L 443.481276 213.571333 
L 445.272968 213.54864 
L 446.467429 213.411827 
L 448.259121 213.494671 
L 450.349428 213.364931 
L 451.245274 213.445824 
L 453.036966 213.234275 
L 454.530042 213.48772 
L 455.127273 213.351305 
L 456.023119 213.104425 
L 456.918964 213.169409 
L 458.412041 213.305271 
L 459.905117 213.073199 
L 460.800963 213.087539 
L 462.89127 213.071638 
L 464.085731 212.971852 
L 464.981577 213.016437 
L 465.877423 213.064494 
L 468.266346 212.757966 
L 469.162191 212.840373 
L 470.058037 213.036551 
L 470.655268 212.967508 
L 471.849729 212.76543 
L 473.641421 212.754208 
L 474.537267 212.629785 
L 476.328958 212.720241 
L 477.52342 212.724858 
L 482.301264 212.667928 
L 483.495725 212.764647 
L 484.690187 212.717334 
L 486.481878 213.011675 
L 488.572185 213.14991 
L 489.468031 213.579842 
L 490.065262 214.106337 
L 490.662492 214.982944 
L 491.259723 216.424189 
L 491.856954 218.863839 
L 492.155569 220.764963 
L 492.454184 223.40993 
L 492.7528 227.176658 
L 493.35003 239.76517 
L 493.947261 254.408527 
L 494.245876 249.967687 
L 494.544491 228.093174 
L 495.440337 116.170608 
L 495.738952 103.719552 
L 496.037568 115.186669 
L 496.634798 188.103768 
L 497.232029 259.861737 
L 497.530644 275.820496 
L 497.829259 275.993075 
L 498.127875 263.180869 
L 499.023721 204.338799 
L 499.322336 196.383566 
L 499.620951 199.064858 
L 499.919567 211.675817 
L 500.815412 270.717356 
L 501.114028 271.495057 
L 501.412643 247.683922 
L 502.308489 105.854048 
L 502.607104 86.588179 
L 502.905719 96.661706 
L 503.204335 131.87975 
L 504.100181 269.548087 
L 504.398796 290.623888 
L 504.697411 292.530719 
L 504.996026 278.386491 
L 505.891872 210.573515 
L 506.190488 203.489945 
L 506.489103 210.282306 
L 507.086334 246.150472 
L 507.384949 249.994238 
L 507.683564 229.879273 
L 508.57941 107.825479 
L 508.878025 96.035573 
L 509.176641 111.357328 
L 509.773871 195.838235 
L 510.371102 275.010914 
L 510.669717 291.698558 
L 510.968332 290.803157 
L 511.266948 275.869521 
L 512.162793 216.738573 
L 512.461409 213.975821 
L 513.058639 233.557778 
L 513.357255 233.432447 
L 513.65587 213.451155 
L 514.551716 109.871334 
L 514.850331 104.448124 
L 515.148946 123.456537 
L 516.343408 276.617117 
L 516.642023 289.577232 
L 516.940638 286.48838 
L 517.239253 271.206869 
L 517.836484 230.043803 
L 518.135099 217.647552 
L 518.433715 216.491161 
L 519.030945 235.461055 
L 519.329561 233.982691 
L 519.628176 213.390589 
L 520.524022 113.754717 
L 520.822637 108.973215 
L 521.121252 127.4733 
L 522.315713 273.537254 
L 522.614329 285.655069 
L 522.912944 282.351407 
L 523.211559 267.230454 
L 523.80879 226.215298 
L 524.107405 213.003778 
L 524.40602 210.517832 
L 524.704636 219.39623 
L 525.301866 248.441763 
L 525.600482 245.296777 
L 525.899097 220.599858 
L 526.794943 112.313671 
L 527.093558 107.46067 
L 527.392173 126.340825 
L 528.586635 271.43213 
L 528.88525 282.462418 
L 529.183865 277.829871 
L 529.781096 238.619734 
L 530.378326 200.965417 
L 530.676942 195.242833 
L 530.975557 200.33343 
L 531.274172 214.72047 
L 532.170018 271.305858 
L 532.468633 269.66192 
L 532.767249 244.958415 
L 533.663095 112.490744 
L 533.96171 95.835922 
L 534.260325 105.9314 
L 534.55894 138.434912 
L 535.454786 261.839021 
L 535.753402 279.784053 
L 536.052017 280.102555 
L 536.350632 265.575017 
L 537.246478 195.111858 
L 537.545093 182.82251 
L 537.843709 181.032229 
L 538.142324 188.461887 
L 539.03817 228.181711 
L 539.336785 234.822378 
L 539.6354 235.345341 
L 539.934016 230.635546 
L 540.829862 208.146649 
L 541.128477 205.232591 
L 541.427092 206.352271 
L 541.725707 211.079669 
L 542.322938 227.092616 
L 543.218784 254.229468 
L 543.517399 258.94198 
L 543.816014 252.613334 
L 544.11463 229.036868 
L 545.010476 116.623221 
L 545.309091 104.444988 
L 545.607706 115.269875 
L 546.204937 184.505856 
L 546.802167 252.525215 
L 547.100783 267.560663 
L 547.399398 267.540803 
L 547.698013 255.032047 
L 548.593859 196.005796 
L 548.892474 186.104533 
L 549.19109 185.06509 
L 549.489705 191.704398 
L 550.385551 225.096412 
L 550.684166 230.318298 
L 550.982781 230.328856 
L 551.281397 225.970803 
L 552.177243 206.141132 
L 552.475858 203.272074 
L 552.774473 203.542398 
L 553.073089 206.412898 
L 553.968934 218.69125 
L 554.26755 220.405234 
L 554.566165 220.210192 
L 554.86478 218.428912 
L 555.760626 210.980073 
L 556.059241 209.984062 
L 556.357857 210.137438 
L 556.656472 211.225624 
L 557.552318 215.697174 
L 557.850933 216.253847 
L 558.149548 216.084112 
L 558.746779 214.290435 
L 559.34401 212.599788 
L 559.642625 212.346237 
L 559.94124 212.512817 
L 560.538471 213.556228 
L 561.135701 214.54762 
L 561.434317 214.720491 
L 561.732932 214.645836 
L 562.330163 214.018375 
L 562.927393 213.339644 
L 563.226008 213.202123 
L 563.524624 213.2379 
L 565.0177 214.159407 
L 565.614931 213.956692 
L 566.510777 213.527723 
L 567.108007 213.453612 
L 568.003853 213.750141 
L 568.601084 213.89157 
L 569.49693 213.778668 
L 571.288621 213.604019 
L 572.781698 213.678873 
L 573.378928 213.711445 
L 575.767851 213.436772 
L 576.365081 213.492622 
L 577.260927 213.667197 
L 578.156773 213.615047 
L 579.351234 213.537591 
L 580.545695 213.489894 
L 582.337387 213.498099 
L 586.816616 213.394261 
L 588.011078 213.280869 
L 590.997231 213.330446 
L 591.893076 213.224785 
L 594.281999 213.288122 
L 595.177845 213.27301 
L 596.073691 213.10099 
L 597.865382 213.228331 
L 599.657074 212.985045 
L 603.539073 213.03 
L 604.733534 212.93912 
L 607.719687 212.837373 
L 610.108609 212.861199 
L 612.198916 212.836123 
L 614.289223 212.672698 
L 617.872607 212.747323 
L 619.962914 212.614938 
L 621.754606 212.578124 
L 624.143528 212.758137 
L 625.93522 212.74983 
L 628.324142 212.887362 
L 629.518603 212.93294 
L 630.115834 213.172806 
L 631.01168 213.975675 
L 631.907526 215.07655 
L 632.504756 216.300833 
L 633.101987 218.361574 
L 633.699217 222.090054 
L 633.997833 225.123067 
L 634.296448 229.414221 
L 634.893679 242.943396 
L 635.192294 249.906955 
L 635.490909 250.253158 
L 635.789524 236.313704 
L 636.386755 167.523856 
L 636.68537 132.380029 
L 636.983986 112.508409 
L 637.282601 114.290536 
L 637.581216 136.808743 
L 638.477062 246.582911 
L 638.775677 267.899653 
L 639.074293 274.330948 
L 639.372908 267.146517 
L 640.567369 200.615242 
L 640.865984 198.882767 
L 641.1646 206.921373 
L 641.76183 243.242037 
L 642.060446 261.814666 
L 642.359061 268.874602 
L 642.657676 254.769677 
L 643.254907 169.584032 
L 643.553522 124.80842 
L 643.852137 98.544286 
L 644.150753 98.777388 
L 644.449368 124.465144 
L 645.643829 280.51827 
L 645.942444 288.519705 
L 646.24106 280.234995 
L 647.435521 206.735331 
L 647.734136 208.78173 
L 648.629982 249.165108 
L 648.928597 237.229175 
L 649.525828 160.81608 
L 649.824443 123.290962 
L 650.123058 104.914326 
L 650.421674 111.534088 
L 650.720289 140.441359 
L 651.616135 261.263585 
L 651.91475 281.873289 
L 652.213365 286.080923 
L 652.511981 276.070009 
L 653.407827 220.627537 
L 653.706442 215.15084 
L 654.005057 220.864433 
L 654.303672 231.712724 
L 654.602288 235.11987 
L 654.900903 220.636067 
L 655.796749 119.543886 
L 656.095364 108.477744 
L 656.39398 120.937267 
L 656.99121 194.674087 
L 657.588441 266.142927 
L 657.887056 282.09416 
L 658.185671 282.506739 
L 658.484287 270.244673 
L 659.380132 216.99166 
L 659.678748 213.140351 
L 659.977363 219.734331 
L 660.275978 230.845964 
L 660.574594 234.795201 
L 660.873209 221.726333 
L 661.769055 125.984274 
L 662.06767 114.600153 
L 662.366285 125.32072 
L 662.963516 193.954714 
L 663.560747 262.324248 
L 663.859362 278.092763 
L 664.157977 278.983356 
L 664.456592 267.495541 
L 665.352438 213.410969 
L 665.651054 207.32722 
L 665.949669 212.092929 
L 666.546899 239.143741 
L 666.845515 241.824928 
L 667.14413 226.003207 
L 668.039976 130.251386 
L 668.338591 120.335803 
L 668.637207 131.482432 
L 669.234437 196.653671 
L 669.831668 259.254524 
L 670.130283 272.794466 
L 670.428898 272.215371 
L 670.727514 259.996371 
L 671.623359 205.208978 
L 671.921975 197.463776 
L 672.22059 199.178586 
L 672.519205 209.553567 
L 673.415051 258.658496 
L 673.713666 260.434978 
L 674.012282 243.188727 
L 675.206743 115.346704 
L 675.505358 120.371343 
L 675.803974 145.226625 
L 676.699819 251.008803 
L 676.998435 268.581187 
L 677.29705 271.167984 
L 677.595665 260.595013 
L 678.790126 188.89464 
L 679.088742 185.949934 
L 679.387357 191.122691 
L 680.581818 231.313003 
L 680.880433 232.67837 
L 681.179049 229.473489 
L 682.074895 211.241878 
L 682.37351 208.83897 
L 682.672125 210.103926 
L 682.970741 214.930742 
L 683.567971 232.676488 
L 684.165202 253.658317 
L 684.463817 256.860167 
L 684.762432 245.837823 
L 685.359663 179.609998 
L 685.956893 119.836882 
L 686.255509 116.953849 
L 686.554124 134.345919 
L 687.748585 256.591735 
L 688.0472 264.455713 
L 688.345816 259.211981 
L 688.943046 224.690314 
L 689.540277 192.479382 
L 689.838892 186.732757 
L 690.137508 188.918055 
L 690.734738 208.337426 
L 691.331969 226.530873 
L 691.630584 229.434081 
L 691.929199 227.724289 
L 692.52643 215.90084 
L 693.12366 205.3491 
L 693.422276 203.841112 
L 693.720891 205.08164 
L 694.318122 212.495922 
L 694.915352 218.954174 
L 695.213967 219.836728 
L 695.512583 219.032038 
L 696.109813 214.472954 
L 696.707044 210.556895 
L 697.005659 210.025936 
L 697.304275 210.507693 
L 697.901505 213.259469 
L 698.498736 215.627558 
L 698.797351 215.94746 
L 699.095966 215.626335 
L 700.290427 212.436151 
L 700.589043 212.28358 
L 700.887658 212.526779 
L 702.082119 214.507219 
L 702.380734 214.55271 
L 702.67935 214.378459 
L 703.873811 213.2599 
L 704.172426 213.21506 
L 704.769657 213.447047 
L 705.366887 213.779243 
L 705.964118 213.859971 
L 707.75581 213.451584 
L 709.846117 213.688772 
L 711.040578 213.515357 
L 714.325346 213.497911 
L 715.221192 213.384894 
L 717.610114 213.600936 
L 720.894883 213.428932 
L 722.387959 213.439835 
L 723.58242 213.417939 
L 725.075497 213.408271 
L 726.568573 213.292601 
L 728.360265 213.375853 
L 730.450572 213.267716 
L 732.839494 213.214334 
L 733.73534 213.078058 
L 734.332571 213.122822 
L 735.527032 213.322651 
L 737.617339 213.133142 
L 738.513185 213.114749 
L 739.707646 213.025293 
L 743.88826 213.054785 
L 745.679952 212.86512 
L 746.874413 212.796861 
L 748.367489 212.921014 
L 749.561951 212.767439 
L 752.548104 212.850452 
L 753.742565 212.651568 
L 758.819025 212.753719 
L 759.714871 212.745881 
L 760.610716 212.592977 
L 768.673329 212.82753 
L 769.569175 212.784985 
L 770.465021 213.07514 
L 771.958098 213.760866 
L 772.555328 214.283567 
L 773.152559 215.045254 
L 773.749789 216.180468 
L 774.34702 217.944918 
L 774.645635 219.229829 
L 774.94425 221.007503 
L 775.242866 223.528153 
L 775.541481 227.105369 
L 776.138712 239.105901 
L 776.437327 246.281134 
L 776.735942 248.747826 
L 777.034557 238.957051 
L 777.333173 213.243742 
L 777.930403 140.434356 
L 778.229019 116.947472 
L 778.527634 113.932104 
L 778.826249 132.0909 
L 780.02071 264.394981 
L 780.319326 273.942725 
L 780.617941 269.461013 
L 781.215172 234.586455 
L 781.812402 202.382683 
L 782.111017 198.236042 
L 782.409633 203.799907 
L 782.708248 217.705619 
L 783.305479 255.497413 
L 783.604094 264.716724 
L 783.902709 254.987831 
L 784.201325 223.820523 
L 784.798555 135.833795 
L 785.09717 108.100914 
L 785.395786 104.515023 
L 785.694401 125.430162 
L 786.888862 274.712795 
L 787.187477 284.812037 
L 787.486093 279.122903 
L 788.083323 239.96179 
L 788.381939 220.027589 
L 788.680554 208.104471 
L 788.979169 207.622861 
L 789.277784 218.243602 
L 789.5764 234.192692 
L 789.875015 244.072003 
L 790.17363 236.700046 
L 790.472246 210.133591 
L 791.069476 138.254389 
L 791.368092 119.015593 
L 791.666707 121.411831 
L 791.965322 144.189586 
L 792.861168 251.50856 
L 793.159783 272.054082 
L 793.458399 278.224679 
L 793.757014 271.41666 
L 794.65286 223.133867 
L 794.951475 216.855635 
L 795.25009 220.433959 
L 795.548706 229.612304 
L 795.847321 233.705374 
L 796.145936 222.718665 
L 797.340397 120.785803 
L 797.639013 129.187378 
L 797.937628 155.410849 
L 798.833474 255.955149 
L 799.132089 271.65112 
L 799.430704 273.704606 
L 799.72932 264.306131 
L 800.625166 217.694643 
L 800.923781 213.582998 
L 801.222396 218.930069 
L 801.521011 228.995161 
L 801.819627 233.371297 
L 802.118242 222.735274 
L 803.312703 124.634691 
L 803.611318 132.88867 
L 804.208549 193.02419 
L 804.80578 254.823406 
L 805.104395 269.552477 
L 805.40301 270.943245 
L 805.701626 261.045536 
L 806.597471 212.242435 
L 806.896087 206.235355 
L 807.194702 209.911372 
L 807.791933 234.507221 
L 808.090548 238.427817 
L 808.389163 226.047214 
L 809.285009 140.642161 
L 809.583624 130.504139 
L 809.88224 139.249616 
L 810.47947 196.39057 
L 811.076701 252.972707 
L 811.375316 265.621324 
L 811.673931 265.640766 
L 811.972547 255.089016 
L 812.868393 205.557731 
L 813.167008 198.030223 
L 813.465623 198.936286 
L 813.764238 207.618596 
L 814.660084 252.059222 
L 814.9587 254.903789 
L 815.257315 240.891896 
L 816.451776 126.590651 
L 816.750391 130.126159 
L 817.049007 151.574191 
L 817.944852 246.170855 
L 818.243468 262.449056 
L 818.542083 265.354041 
L 818.840698 256.375044 
L 820.03516 191.79189 
L 820.333775 188.747358 
L 820.63239 193.077083 
L 821.826851 229.536311 
L 822.125467 231.09464 
L 822.424082 228.51976 
L 823.319928 212.742492 
L 823.618543 210.722899 
L 823.917158 212.069825 
L 824.215774 216.841482 
L 824.813004 234.206803 
L 825.410235 252.450059 
L 825.70885 250.950266 
L 826.007465 234.394329 
L 826.903311 139.944425 
L 827.201927 126.657027 
L 827.500542 132.239332 
L 827.799157 154.108932 
L 828.695003 242.169876 
L 828.993618 256.177274 
L 829.292234 257.915708 
L 829.590849 249.064969 
L 830.78531 191.481123 
L 831.083925 189.514292 
L 831.382541 194.081195 
L 832.577002 226.645124 
L 832.875617 227.373801 
L 833.174232 224.321952 
L 834.070078 207.945534 
L 834.368694 205.148654 
L 834.667309 204.92103 
L 834.965924 206.954101 
L 835.86177 217.198033 
L 836.160385 218.862992 
L 836.459001 218.92893 
L 836.757616 217.634382 
L 837.653462 211.402882 
L 837.952077 210.377689 
L 838.250692 210.322592 
L 838.549308 211.100951 
L 839.445154 214.865808 
L 839.743769 215.4377 
L 840.042384 215.418958 
L 840.340999 214.915564 
L 841.236845 212.682252 
L 841.535461 212.372422 
L 841.834076 212.415375 
L 842.431306 213.226426 
L 843.028537 214.156103 
L 843.327152 214.364504 
L 843.625768 214.352337 
L 844.222998 213.854034 
L 844.820229 213.259497 
L 845.118844 213.091362 
L 845.417459 213.05443 
L 846.01469 213.311413 
L 846.910536 213.756706 
L 847.507766 213.76579 
L 849.598073 213.407142 
L 851.68838 213.633173 
L 852.584226 213.466845 
L 853.480072 213.359653 
L 855.868995 213.493092 
L 857.660686 213.531016 
L 858.556532 213.507444 
L 860.646839 213.331675 
L 863.334377 213.388596 
L 864.827453 213.337403 
L 866.32053 213.406477 
L 868.112222 213.18433 
L 869.306683 213.277434 
L 871.99422 213.254273 
L 873.487297 213.071045 
L 876.772065 213.147779 
L 878.265141 213.060992 
L 879.459603 213.053089 
L 880.654064 213.026101 
L 881.54991 213.033668 
L 883.042986 212.953094 
L 884.237447 212.970509 
L 888.119446 212.835491 
L 889.911138 212.84981 
L 891.105599 212.794955 
L 892.897291 212.811858 
L 895.584828 212.735658 
L 897.077905 212.76355 
L 898.570981 212.740107 
L 899.765443 212.794253 
L 901.85575 212.576816 
L 904.543287 212.743365 
L 905.737748 212.661085 
L 907.230825 212.933508 
L 908.126671 212.807656 
L 909.321132 212.584546 
L 910.216978 212.75343 
L 912.008669 213.408535 
L 912.904515 213.705905 
L 913.800361 214.298745 
L 914.696207 215.199592 
L 915.293438 216.254495 
L 915.890668 218.198351 
L 916.189284 219.716049 
L 916.487899 221.911099 
L 916.786514 225.125367 
L 917.383745 236.000219 
L 917.68236 243.287507 
L 917.980975 247.662598 
L 918.279591 241.701896 
L 918.578206 220.073258 
L 919.474052 121.603539 
L 919.772667 113.671825 
L 920.071282 127.263404 
L 920.668513 196.731023 
L 921.265744 260.250379 
L 921.564359 272.906626 
L 921.862974 271.176555 
L 922.161589 258.018147 
L 923.057435 203.571781 
L 923.356051 196.956389 
L 923.654666 199.984405 
L 923.953281 211.653667 
L 924.849127 260.170204 
L 925.147742 256.301351 
L 925.446358 231.868578 
L 926.342203 118.904686 
L 926.640819 109.522832 
L 926.939434 123.911241 
L 927.536665 198.786599 
L 928.133895 267.230245 
L 928.432511 280.708723 
L 928.731126 278.571404 
L 929.029741 264.208709 
L 929.925587 208.908127 
L 930.224202 204.914423 
L 930.522818 211.801208 
L 931.120048 236.836352 
L 931.418663 235.043877 
L 931.717279 216.164443 
L 932.613125 135.103968 
L 932.91174 133.023514 
L 933.210355 149.075095 
L 934.404816 261.788115 
L 934.703432 270.082024 
L 935.002047 266.686691 
L 935.599278 239.261337 
L 935.897893 225.676657 
L 936.196508 218.347097 
L 936.495123 219.295547 
L 936.793739 225.831361 
L 937.092354 229.700318 
L 937.390969 222.181142 
L 937.9882 173.763547 
L 938.286815 149.581332 
L 938.58543 137.847977 
L 938.884046 142.725752 
L 939.182661 162.620472 
L 940.078507 245.529565 
L 940.377122 259.874803 
L 940.675738 263.153482 
L 940.974353 256.821595 
L 941.870199 219.94245 
L 942.168814 216.116109 
L 942.467429 220.115185 
L 942.766045 228.295335 
L 943.06466 232.075547 
L 943.363275 223.321602 
L 943.960506 172.901282 
L 944.259121 148.786802 
L 944.557736 137.713657 
L 944.856352 143.519968 
L 945.154967 164.193958 
L 946.050813 246.32974 
L 946.349428 259.484594 
L 946.648043 261.361843 
L 946.946659 253.597063 
L 947.842505 212.726807 
L 948.14112 207.36945 
L 948.439735 210.349445 
L 949.036966 232.092063 
L 949.335581 236.449592 
L 949.634196 226.481117 
L 950.828657 139.813972 
L 951.127273 146.283943 
L 951.425888 167.093716 
L 952.321734 246.576639 
L 952.620349 258.45759 
L 952.918964 259.147904 
L 953.21758 250.329046 
L 954.113426 206.525435 
L 954.412041 199.624091 
L 954.710656 200.225764 
L 955.009272 207.996628 
L 955.905117 248.648731 
L 956.203733 250.482182 
L 956.502348 236.419383 
L 957.696809 133.266754 
L 957.995424 138.302473 
L 958.29404 159.405765 
L 959.189886 245.690123 
L 959.488501 259.332608 
L 959.787116 260.665989 
L 960.085731 251.356155 
L 961.280193 192.714469 
L 961.578808 190.786 
L 961.877423 195.488165 
L 963.071884 229.287217 
L 963.3705 230.543873 
L 963.669115 228.180248 
L 964.564961 215.723965 
L 964.863576 215.47392 
L 965.162191 218.895313 
L 965.460807 226.17934 
L 966.058037 245.283711 
L 966.356653 246.653259 
L 966.655268 234.113458 
L 967.849729 135.314177 
L 968.148344 138.483832 
L 968.44696 156.908446 
L 969.342806 237.450569 
L 969.641421 251.497479 
L 969.940036 254.380618 
L 970.238651 247.275943 
L 971.433113 193.683041 
L 971.731728 191.069067 
L 972.030343 194.633007 
L 973.224804 224.88129 
L 973.52342 226.028085 
L 973.822035 223.629756 
L 975.016496 205.927891 
L 975.315111 205.447953 
L 975.613727 207.058568 
L 976.808188 217.995657 
L 977.106803 218.256657 
L 977.405418 217.249754 
L 978.59988 210.527627 
L 978.898495 210.377783 
L 979.19711 211.013658 
L 980.391571 215.117463 
L 980.690187 215.190456 
L 980.988802 214.789292 
L 981.884648 212.74837 
L 982.183263 212.414628 
L 982.481878 212.411108 
L 983.079109 213.077793 
L 983.67634 213.864769 
L 983.974955 214.059612 
L 984.27357 214.08633 
L 984.870801 213.737023 
L 985.468031 213.213903 
L 986.065262 213.021887 
L 986.662492 213.185095 
L 987.856954 213.71595 
L 988.454184 213.573674 
L 989.35003 213.248615 
L 989.947261 213.268338 
L 991.738952 213.587263 
L 994.127875 213.300625 
L 996.218182 213.453037 
L 996.218182 213.453037 
" style="fill:none;stroke:#4c72b0;stroke-linecap:round;stroke-width:1.4;"/>
   </g>
   <g id="patch_3">
    <path d="M 144 320.4 
L 144 43.2 
" style="fill:none;"/>
   </g>
   <g id="patch_4">
    <path d="M 1036.8 320.4 
L 1036.8 43.2 
" style="fill:none;"/>
   </g>
   <g id="patch_5">
    <path d="M 144 320.4 
L 1036.8 320.4 
" style="fill:none;"/>
   </g>
   <g id="patch_6">
    <path d="M 144 43.2 
L 1036.8 43.2 
" style="fill:none;"/>
   </g>
  </g>
 </g>
 <defs>
  <clipPath id="p6d0bba6319">
   <rect height="277.2" width="892.8" x="144" y="43.2"/>
  </clipPath>
 </defs>
</svg>
