<?xml version="1.0" encoding="utf-8" standalone="no"?>
<!DOCTYPE svg PUBLIC "-//W3C//DTD SVG 1.1//EN"
  "http://www.w3.org/Graphics/SVG/1.1/DTD/svg11.dtd">
<!-- Created with matplotlib (http://matplotlib.org/) -->
<svg height="360pt" version="1.1" viewBox="0 0 1152 360" width="1152pt" xmlns="http://www.w3.org/2000/svg" xmlns:xlink="http://www.w3.org/1999/xlink">
 <defs>
  <style type="text/css">
*{stroke-linecap:butt;stroke-linejoin:round;}
  </style>
 </defs>
 <g id="figure_1">
  <g id="patch_1">
   <path d="M 0 360 
L 1152 360 
L 1152 0 
L 0 0 
z
" style="fill:#ffffff;"/>
  </g>
  <g id="axes_1">
   <g id="patch_2">
    <path d="M 144 320.4 
L 1036.8 320.4 
L 1036.8 43.2 
L 144 43.2 
z
" style="fill:#eaeaf2;"/>
   </g>
   <g id="matplotlib.axis_1">
    <g id="xtick_1">
     <g id="line2d_1">
      <path clip-path="url(#pf67fcc19c6)" d="M 184.581818 320.4 
L 184.581818 43.2 
" style="fill:none;stroke:#ffffff;stroke-linecap:round;stroke-width:0.8;"/>
     </g>
     <g id="line2d_2"/>
     <g id="text_1">
      <!-- 0.00 -->
      <defs>
       <path d="M 51.703125 34.421875 
Q 51.703125 24.515625 49.828125 17.75 
Q 47.953125 10.984375 44.703125 6.8125 
Q 41.453125 2.640625 37.0625 0.828125 
Q 32.671875 -0.984375 27.6875 -0.984375 
Q 22.65625 -0.984375 18.3125 0.828125 
Q 13.96875 2.640625 10.765625 6.78125 
Q 7.5625 10.9375 5.734375 17.703125 
Q 3.90625 24.46875 3.90625 34.421875 
Q 3.90625 44.828125 5.734375 51.640625 
Q 7.5625 58.453125 10.78125 62.5 
Q 14.015625 66.546875 18.40625 68.1875 
Q 22.796875 69.828125 27.984375 69.828125 
Q 32.90625 69.828125 37.21875 68.1875 
Q 41.546875 66.546875 44.765625 62.5 
Q 48 58.453125 49.84375 51.640625 
Q 51.703125 44.828125 51.703125 34.421875 
M 42.78125 34.421875 
Q 42.78125 42.625 41.796875 48.0625 
Q 40.828125 53.515625 38.921875 56.765625 
Q 37.015625 60.015625 34.25 61.359375 
Q 31.5 62.703125 27.984375 62.703125 
Q 24.265625 62.703125 21.4375 61.328125 
Q 18.609375 59.96875 16.671875 56.71875 
Q 14.75 53.46875 13.765625 48.015625 
Q 12.796875 42.578125 12.796875 34.421875 
Q 12.796875 26.515625 13.796875 21.09375 
Q 14.796875 15.671875 16.71875 12.375 
Q 18.65625 9.078125 21.4375 7.640625 
Q 24.21875 6.203125 27.78125 6.203125 
Q 31.25 6.203125 34.03125 7.640625 
Q 36.8125 9.078125 38.734375 12.375 
Q 40.671875 15.671875 41.71875 21.09375 
Q 42.78125 26.515625 42.78125 34.421875 
" id="LiberationSans-30"/>
       <path d="M 9.125 0 
L 9.125 10.6875 
L 18.65625 10.6875 
L 18.65625 0 
z
" id="LiberationSans-2e"/>
      </defs>
      <g style="fill:#262626;" transform="translate(176.797443 331.7975)scale(0.08 -0.08)">
       <use xlink:href="#LiberationSans-30"/>
       <use x="55.615234" xlink:href="#LiberationSans-2e"/>
       <use x="83.398438" xlink:href="#LiberationSans-30"/>
       <use x="139.013672" xlink:href="#LiberationSans-30"/>
      </g>
     </g>
    </g>
    <g id="xtick_2">
     <g id="line2d_3">
      <path clip-path="url(#pf67fcc19c6)" d="M 316.174332 320.4 
L 316.174332 43.2 
" style="fill:none;stroke:#ffffff;stroke-linecap:round;stroke-width:0.8;"/>
     </g>
     <g id="line2d_4"/>
     <g id="text_2">
      <!-- 0.01 -->
      <defs>
       <path d="M 7.625 0 
L 7.625 7.46875 
L 25.140625 7.46875 
L 25.140625 60.40625 
L 9.625 49.3125 
L 9.625 57.625 
L 25.875 68.796875 
L 33.984375 68.796875 
L 33.984375 7.46875 
L 50.734375 7.46875 
L 50.734375 0 
z
" id="LiberationSans-31"/>
      </defs>
      <g style="fill:#262626;" transform="translate(308.389957 331.7975)scale(0.08 -0.08)">
       <use xlink:href="#LiberationSans-30"/>
       <use x="55.615234" xlink:href="#LiberationSans-2e"/>
       <use x="83.398438" xlink:href="#LiberationSans-30"/>
       <use x="139.013672" xlink:href="#LiberationSans-31"/>
      </g>
     </g>
    </g>
    <g id="xtick_3">
     <g id="line2d_5">
      <path clip-path="url(#pf67fcc19c6)" d="M 447.766845 320.4 
L 447.766845 43.2 
" style="fill:none;stroke:#ffffff;stroke-linecap:round;stroke-width:0.8;"/>
     </g>
     <g id="line2d_6"/>
     <g id="text_3">
      <!-- 0.02 -->
      <defs>
       <path d="M 5.03125 0 
L 5.03125 6.203125 
Q 7.515625 11.921875 11.109375 16.28125 
Q 14.703125 20.65625 18.65625 24.1875 
Q 22.609375 27.734375 26.484375 30.765625 
Q 30.375 33.796875 33.5 36.8125 
Q 36.625 39.84375 38.546875 43.15625 
Q 40.484375 46.484375 40.484375 50.6875 
Q 40.484375 53.609375 39.59375 55.828125 
Q 38.71875 58.0625 37.0625 59.5625 
Q 35.40625 61.078125 33.078125 61.828125 
Q 30.765625 62.59375 27.9375 62.59375 
Q 25.296875 62.59375 22.96875 61.859375 
Q 20.65625 61.140625 18.84375 59.671875 
Q 17.046875 58.203125 15.890625 56.03125 
Q 14.75 53.859375 14.40625 50.984375 
L 5.421875 51.8125 
Q 5.859375 55.515625 7.46875 58.78125 
Q 9.078125 62.0625 11.90625 64.53125 
Q 14.75 67 18.71875 68.40625 
Q 22.703125 69.828125 27.9375 69.828125 
Q 33.0625 69.828125 37.0625 68.609375 
Q 41.0625 67.390625 43.8125 64.984375 
Q 46.578125 62.59375 48.046875 59.078125 
Q 49.515625 55.5625 49.515625 50.984375 
Q 49.515625 47.515625 48.265625 44.390625 
Q 47.015625 41.265625 44.9375 38.421875 
Q 42.875 35.59375 40.140625 32.953125 
Q 37.40625 30.328125 34.421875 27.8125 
Q 31.453125 25.296875 28.421875 22.828125 
Q 25.390625 20.359375 22.71875 17.859375 
Q 20.0625 15.375 17.96875 12.8125 
Q 15.875 10.25 14.703125 7.46875 
L 50.59375 7.46875 
L 50.59375 0 
z
" id="LiberationSans-32"/>
      </defs>
      <g style="fill:#262626;" transform="translate(439.98247 331.7975)scale(0.08 -0.08)">
       <use xlink:href="#LiberationSans-30"/>
       <use x="55.615234" xlink:href="#LiberationSans-2e"/>
       <use x="83.398438" xlink:href="#LiberationSans-30"/>
       <use x="139.013672" xlink:href="#LiberationSans-32"/>
      </g>
     </g>
    </g>
    <g id="xtick_4">
     <g id="line2d_7">
      <path clip-path="url(#pf67fcc19c6)" d="M 579.359358 320.4 
L 579.359358 43.2 
" style="fill:none;stroke:#ffffff;stroke-linecap:round;stroke-width:0.8;"/>
     </g>
     <g id="line2d_8"/>
     <g id="text_4">
      <!-- 0.03 -->
      <defs>
       <path d="M 51.21875 19 
Q 51.21875 14.265625 49.671875 10.546875 
Q 48.140625 6.84375 45.1875 4.265625 
Q 42.234375 1.703125 37.859375 0.359375 
Q 33.5 -0.984375 27.875 -0.984375 
Q 21.484375 -0.984375 17.109375 0.609375 
Q 12.75 2.203125 9.90625 4.8125 
Q 7.078125 7.421875 5.65625 10.765625 
Q 4.25 14.109375 3.8125 17.671875 
L 12.890625 18.5 
Q 13.28125 15.765625 14.328125 13.515625 
Q 15.375 11.28125 17.1875 9.671875 
Q 19 8.0625 21.625 7.171875 
Q 24.265625 6.296875 27.875 6.296875 
Q 34.515625 6.296875 38.296875 9.5625 
Q 42.09375 12.84375 42.09375 19.28125 
Q 42.09375 23.09375 40.40625 25.40625 
Q 38.71875 27.734375 36.203125 29.03125 
Q 33.6875 30.328125 30.734375 30.765625 
Q 27.78125 31.203125 25.296875 31.203125 
L 20.3125 31.203125 
L 20.3125 38.8125 
L 25.09375 38.8125 
Q 27.59375 38.8125 30.265625 39.328125 
Q 32.953125 39.84375 35.171875 41.1875 
Q 37.40625 42.53125 38.84375 44.828125 
Q 40.28125 47.125 40.28125 50.6875 
Q 40.28125 56.203125 37.03125 59.390625 
Q 33.796875 62.59375 27.390625 62.59375 
Q 21.578125 62.59375 17.984375 59.609375 
Q 14.40625 56.640625 13.8125 51.21875 
L 4.984375 51.90625 
Q 5.515625 56.453125 7.46875 59.8125 
Q 9.421875 63.1875 12.421875 65.40625 
Q 15.4375 67.625 19.28125 68.71875 
Q 23.140625 69.828125 27.484375 69.828125 
Q 33.25 69.828125 37.390625 68.375 
Q 41.546875 66.9375 44.1875 64.46875 
Q 46.828125 62.015625 48.0625 58.6875 
Q 49.3125 55.375 49.3125 51.609375 
Q 49.3125 48.578125 48.484375 45.9375 
Q 47.65625 43.3125 45.890625 41.203125 
Q 44.140625 39.109375 41.421875 37.59375 
Q 38.71875 36.078125 34.90625 35.296875 
L 34.90625 35.109375 
Q 39.0625 34.671875 42.140625 33.21875 
Q 45.21875 31.78125 47.21875 29.625 
Q 49.21875 27.484375 50.21875 24.75 
Q 51.21875 22.015625 51.21875 19 
" id="LiberationSans-33"/>
      </defs>
      <g style="fill:#262626;" transform="translate(571.574983 331.7975)scale(0.08 -0.08)">
       <use xlink:href="#LiberationSans-30"/>
       <use x="55.615234" xlink:href="#LiberationSans-2e"/>
       <use x="83.398438" xlink:href="#LiberationSans-30"/>
       <use x="139.013672" xlink:href="#LiberationSans-33"/>
      </g>
     </g>
    </g>
    <g id="xtick_5">
     <g id="line2d_9">
      <path clip-path="url(#pf67fcc19c6)" d="M 710.951872 320.4 
L 710.951872 43.2 
" style="fill:none;stroke:#ffffff;stroke-linecap:round;stroke-width:0.8;"/>
     </g>
     <g id="line2d_10"/>
     <g id="text_5">
      <!-- 0.04 -->
      <defs>
       <path d="M 43.015625 15.578125 
L 43.015625 0 
L 34.71875 0 
L 34.71875 15.578125 
L 2.296875 15.578125 
L 2.296875 22.40625 
L 33.796875 68.796875 
L 43.015625 68.796875 
L 43.015625 22.515625 
L 52.6875 22.515625 
L 52.6875 15.578125 
z
M 34.71875 58.890625 
Q 34.625 58.640625 34.234375 57.9375 
Q 33.84375 57.234375 33.34375 56.34375 
Q 32.859375 55.46875 32.34375 54.5625 
Q 31.84375 53.65625 31.453125 53.078125 
L 13.8125 27.09375 
Q 13.578125 26.703125 13.109375 26.0625 
Q 12.640625 25.4375 12.15625 24.78125 
Q 11.671875 24.125 11.171875 23.484375 
Q 10.6875 22.859375 10.40625 22.515625 
L 34.71875 22.515625 
z
" id="LiberationSans-34"/>
      </defs>
      <g style="fill:#262626;" transform="translate(703.167497 331.7975)scale(0.08 -0.08)">
       <use xlink:href="#LiberationSans-30"/>
       <use x="55.615234" xlink:href="#LiberationSans-2e"/>
       <use x="83.398438" xlink:href="#LiberationSans-30"/>
       <use x="139.013672" xlink:href="#LiberationSans-34"/>
      </g>
     </g>
    </g>
    <g id="xtick_6">
     <g id="line2d_11">
      <path clip-path="url(#pf67fcc19c6)" d="M 842.544385 320.4 
L 842.544385 43.2 
" style="fill:none;stroke:#ffffff;stroke-linecap:round;stroke-width:0.8;"/>
     </g>
     <g id="line2d_12"/>
     <g id="text_6">
      <!-- 0.05 -->
      <defs>
       <path d="M 51.421875 22.40625 
Q 51.421875 17.234375 49.859375 12.9375 
Q 48.296875 8.640625 45.21875 5.53125 
Q 42.140625 2.4375 37.578125 0.71875 
Q 33.015625 -0.984375 27 -0.984375 
Q 21.578125 -0.984375 17.546875 0.28125 
Q 13.53125 1.5625 10.734375 3.78125 
Q 7.953125 6 6.3125 8.984375 
Q 4.6875 11.96875 4 15.375 
L 12.890625 16.40625 
Q 13.421875 14.453125 14.390625 12.625 
Q 15.375 10.796875 17.0625 9.34375 
Q 18.75 7.90625 21.21875 7.046875 
Q 23.6875 6.203125 27.203125 6.203125 
Q 30.609375 6.203125 33.390625 7.25 
Q 36.1875 8.296875 38.15625 10.34375 
Q 40.140625 12.40625 41.203125 15.375 
Q 42.28125 18.359375 42.28125 22.21875 
Q 42.28125 25.390625 41.25 28.046875 
Q 40.234375 30.71875 38.328125 32.640625 
Q 36.421875 34.578125 33.65625 35.640625 
Q 30.90625 36.71875 27.390625 36.71875 
Q 25.203125 36.71875 23.34375 36.328125 
Q 21.484375 35.9375 19.890625 35.25 
Q 18.3125 34.578125 17.015625 33.671875 
Q 15.71875 32.765625 14.59375 31.78125 
L 6 31.78125 
L 8.296875 68.796875 
L 47.40625 68.796875 
L 47.40625 61.328125 
L 16.3125 61.328125 
L 14.984375 39.5 
Q 17.328125 41.3125 20.84375 42.59375 
Q 24.359375 43.890625 29.203125 43.890625 
Q 34.328125 43.890625 38.421875 42.328125 
Q 42.53125 40.765625 45.40625 37.90625 
Q 48.296875 35.0625 49.859375 31.109375 
Q 51.421875 27.15625 51.421875 22.40625 
" id="LiberationSans-35"/>
      </defs>
      <g style="fill:#262626;" transform="translate(834.76001 331.7975)scale(0.08 -0.08)">
       <use xlink:href="#LiberationSans-30"/>
       <use x="55.615234" xlink:href="#LiberationSans-2e"/>
       <use x="83.398438" xlink:href="#LiberationSans-30"/>
       <use x="139.013672" xlink:href="#LiberationSans-35"/>
      </g>
     </g>
    </g>
    <g id="xtick_7">
     <g id="line2d_13">
      <path clip-path="url(#pf67fcc19c6)" d="M 974.136898 320.4 
L 974.136898 43.2 
" style="fill:none;stroke:#ffffff;stroke-linecap:round;stroke-width:0.8;"/>
     </g>
     <g id="line2d_14"/>
     <g id="text_7">
      <!-- 0.06 -->
      <defs>
       <path d="M 51.21875 22.515625 
Q 51.21875 17.328125 49.78125 13 
Q 48.34375 8.6875 45.53125 5.578125 
Q 42.71875 2.484375 38.5625 0.75 
Q 34.421875 -0.984375 29 -0.984375 
Q 23 -0.984375 18.5 1.3125 
Q 14.015625 3.609375 11.03125 7.921875 
Q 8.0625 12.25 6.5625 18.53125 
Q 5.078125 24.8125 5.078125 32.8125 
Q 5.078125 42 6.765625 48.921875 
Q 8.453125 55.859375 11.625 60.5 
Q 14.796875 65.140625 19.359375 67.484375 
Q 23.921875 69.828125 29.6875 69.828125 
Q 33.203125 69.828125 36.28125 69.09375 
Q 39.359375 68.359375 41.875 66.71875 
Q 44.390625 65.09375 46.28125 62.40625 
Q 48.1875 59.71875 49.3125 55.8125 
L 40.921875 54.296875 
Q 39.546875 58.734375 36.546875 60.71875 
Q 33.546875 62.703125 29.59375 62.703125 
Q 25.984375 62.703125 23.046875 60.984375 
Q 20.125 59.28125 18.0625 55.875 
Q 16.015625 52.484375 14.90625 47.359375 
Q 13.8125 42.234375 13.8125 35.40625 
Q 16.21875 39.84375 20.5625 42.15625 
Q 24.90625 44.484375 30.515625 44.484375 
Q 35.203125 44.484375 39.015625 42.96875 
Q 42.828125 41.453125 45.53125 38.59375 
Q 48.25 35.75 49.734375 31.671875 
Q 51.21875 27.59375 51.21875 22.515625 
M 42.28125 22.125 
Q 42.28125 25.6875 41.40625 28.5625 
Q 40.53125 31.453125 38.765625 33.46875 
Q 37.015625 35.5 34.421875 36.59375 
Q 31.84375 37.703125 28.421875 37.703125 
Q 26.03125 37.703125 23.578125 36.984375 
Q 21.140625 36.28125 19.15625 34.6875 
Q 17.1875 33.109375 15.9375 30.515625 
Q 14.703125 27.9375 14.703125 24.21875 
Q 14.703125 20.40625 15.671875 17.109375 
Q 16.65625 13.8125 18.484375 11.375 
Q 20.3125 8.9375 22.890625 7.515625 
Q 25.484375 6.109375 28.71875 6.109375 
Q 31.890625 6.109375 34.40625 7.203125 
Q 36.921875 8.296875 38.671875 10.375 
Q 40.4375 12.453125 41.359375 15.421875 
Q 42.28125 18.40625 42.28125 22.125 
" id="LiberationSans-36"/>
      </defs>
      <g style="fill:#262626;" transform="translate(966.352523 331.7975)scale(0.08 -0.08)">
       <use xlink:href="#LiberationSans-30"/>
       <use x="55.615234" xlink:href="#LiberationSans-2e"/>
       <use x="83.398438" xlink:href="#LiberationSans-30"/>
       <use x="139.013672" xlink:href="#LiberationSans-36"/>
      </g>
     </g>
    </g>
   </g>
   <g id="matplotlib.axis_2">
    <g id="ytick_1">
     <g id="line2d_15">
      <path clip-path="url(#pf67fcc19c6)" d="M 144 314.290485 
L 1036.8 314.290485 
" style="fill:none;stroke:#ffffff;stroke-linecap:round;stroke-width:0.8;"/>
     </g>
     <g id="line2d_16"/>
     <g id="text_8">
      <!-- −0.2 -->
      <defs>
       <path d="M 4.9375 29.6875 
L 4.9375 36.8125 
L 53.515625 36.8125 
L 53.515625 29.6875 
z
" id="LiberationSans-2212"/>
      </defs>
      <g style="fill:#262626;" transform="translate(122.6075 317.189235)scale(0.08 -0.08)">
       <use xlink:href="#LiberationSans-2212"/>
       <use x="58.398438" xlink:href="#LiberationSans-30"/>
       <use x="114.013672" xlink:href="#LiberationSans-2e"/>
       <use x="141.796875" xlink:href="#LiberationSans-32"/>
      </g>
     </g>
    </g>
    <g id="ytick_2">
     <g id="line2d_17">
      <path clip-path="url(#pf67fcc19c6)" d="M 144 282.304304 
L 1036.8 282.304304 
" style="fill:none;stroke:#ffffff;stroke-linecap:round;stroke-width:0.8;"/>
     </g>
     <g id="line2d_18"/>
     <g id="text_9">
      <!-- 0.0 -->
      <g style="fill:#262626;" transform="translate(127.28 285.203054)scale(0.08 -0.08)">
       <use xlink:href="#LiberationSans-30"/>
       <use x="55.615234" xlink:href="#LiberationSans-2e"/>
       <use x="83.398438" xlink:href="#LiberationSans-30"/>
      </g>
     </g>
    </g>
    <g id="ytick_3">
     <g id="line2d_19">
      <path clip-path="url(#pf67fcc19c6)" d="M 144 250.318123 
L 1036.8 250.318123 
" style="fill:none;stroke:#ffffff;stroke-linecap:round;stroke-width:0.8;"/>
     </g>
     <g id="line2d_20"/>
     <g id="text_10">
      <!-- 0.2 -->
      <g style="fill:#262626;" transform="translate(127.28 253.216873)scale(0.08 -0.08)">
       <use xlink:href="#LiberationSans-30"/>
       <use x="55.615234" xlink:href="#LiberationSans-2e"/>
       <use x="83.398438" xlink:href="#LiberationSans-32"/>
      </g>
     </g>
    </g>
    <g id="ytick_4">
     <g id="line2d_21">
      <path clip-path="url(#pf67fcc19c6)" d="M 144 218.331943 
L 1036.8 218.331943 
" style="fill:none;stroke:#ffffff;stroke-linecap:round;stroke-width:0.8;"/>
     </g>
     <g id="line2d_22"/>
     <g id="text_11">
      <!-- 0.4 -->
      <g style="fill:#262626;" transform="translate(127.28 221.230693)scale(0.08 -0.08)">
       <use xlink:href="#LiberationSans-30"/>
       <use x="55.615234" xlink:href="#LiberationSans-2e"/>
       <use x="83.398438" xlink:href="#LiberationSans-34"/>
      </g>
     </g>
    </g>
    <g id="ytick_5">
     <g id="line2d_23">
      <path clip-path="url(#pf67fcc19c6)" d="M 144 186.345762 
L 1036.8 186.345762 
" style="fill:none;stroke:#ffffff;stroke-linecap:round;stroke-width:0.8;"/>
     </g>
     <g id="line2d_24"/>
     <g id="text_12">
      <!-- 0.6 -->
      <g style="fill:#262626;" transform="translate(127.28 189.244512)scale(0.08 -0.08)">
       <use xlink:href="#LiberationSans-30"/>
       <use x="55.615234" xlink:href="#LiberationSans-2e"/>
       <use x="83.398438" xlink:href="#LiberationSans-36"/>
      </g>
     </g>
    </g>
    <g id="ytick_6">
     <g id="line2d_25">
      <path clip-path="url(#pf67fcc19c6)" d="M 144 154.359581 
L 1036.8 154.359581 
" style="fill:none;stroke:#ffffff;stroke-linecap:round;stroke-width:0.8;"/>
     </g>
     <g id="line2d_26"/>
     <g id="text_13">
      <!-- 0.8 -->
      <defs>
       <path d="M 51.265625 19.1875 
Q 51.265625 14.796875 49.875 11.109375 
Q 48.484375 7.421875 45.625 4.734375 
Q 42.78125 2.046875 38.328125 0.53125 
Q 33.890625 -0.984375 27.828125 -0.984375 
Q 21.78125 -0.984375 17.359375 0.53125 
Q 12.9375 2.046875 10.03125 4.703125 
Q 7.125 7.375 5.734375 11.0625 
Q 4.34375 14.75 4.34375 19.09375 
Q 4.34375 22.859375 5.484375 25.78125 
Q 6.640625 28.71875 8.5625 30.828125 
Q 10.5 32.953125 12.96875 34.25 
Q 15.4375 35.546875 18.0625 35.984375 
L 18.0625 36.1875 
Q 15.1875 36.859375 12.90625 38.375 
Q 10.640625 39.890625 9.09375 42.015625 
Q 7.5625 44.140625 6.75 46.71875 
Q 5.953125 49.3125 5.953125 52.203125 
Q 5.953125 55.8125 7.34375 59 
Q 8.734375 62.203125 11.46875 64.625 
Q 14.203125 67.046875 18.25 68.4375 
Q 22.3125 69.828125 27.640625 69.828125 
Q 33.25 69.828125 37.375 68.40625 
Q 41.5 67 44.203125 64.578125 
Q 46.921875 62.15625 48.234375 58.9375 
Q 49.5625 55.71875 49.5625 52.09375 
Q 49.5625 49.265625 48.75 46.671875 
Q 47.953125 44.09375 46.40625 41.96875 
Q 44.875 39.84375 42.59375 38.34375 
Q 40.328125 36.859375 37.359375 36.28125 
L 37.359375 36.078125 
Q 40.328125 35.59375 42.859375 34.296875 
Q 45.40625 33.015625 47.265625 30.890625 
Q 49.125 28.765625 50.1875 25.828125 
Q 51.265625 22.90625 51.265625 19.1875 
M 40.4375 51.609375 
Q 40.4375 54.203125 39.765625 56.34375 
Q 39.109375 58.5 37.59375 60.03125 
Q 36.078125 61.578125 33.640625 62.421875 
Q 31.203125 63.28125 27.640625 63.28125 
Q 24.171875 63.28125 21.78125 62.421875 
Q 19.390625 61.578125 17.84375 60.03125 
Q 16.3125 58.5 15.625 56.34375 
Q 14.9375 54.203125 14.9375 51.609375 
Q 14.9375 49.5625 15.46875 47.40625 
Q 16.015625 45.265625 17.421875 43.5 
Q 18.84375 41.75 21.328125 40.625 
Q 23.828125 39.5 27.734375 39.5 
Q 31.890625 39.5 34.40625 40.625 
Q 36.921875 41.75 38.25 43.5 
Q 39.59375 45.265625 40.015625 47.40625 
Q 40.4375 49.5625 40.4375 51.609375 
M 42.140625 20.015625 
Q 42.140625 22.515625 41.453125 24.828125 
Q 40.765625 27.15625 39.109375 28.9375 
Q 37.453125 30.71875 34.640625 31.8125 
Q 31.84375 32.90625 27.640625 32.90625 
Q 23.78125 32.90625 21.0625 31.8125 
Q 18.359375 30.71875 16.671875 28.90625 
Q 14.984375 27.09375 14.203125 24.71875 
Q 13.421875 22.359375 13.421875 19.828125 
Q 13.421875 16.65625 14.203125 14.03125 
Q 14.984375 11.421875 16.6875 9.546875 
Q 18.40625 7.671875 21.1875 6.640625 
Q 23.96875 5.609375 27.9375 5.609375 
Q 31.9375 5.609375 34.671875 6.640625 
Q 37.40625 7.671875 39.0625 9.546875 
Q 40.71875 11.421875 41.421875 14.078125 
Q 42.140625 16.75 42.140625 20.015625 
" id="LiberationSans-38"/>
      </defs>
      <g style="fill:#262626;" transform="translate(127.28 157.258331)scale(0.08 -0.08)">
       <use xlink:href="#LiberationSans-30"/>
       <use x="55.615234" xlink:href="#LiberationSans-2e"/>
       <use x="83.398438" xlink:href="#LiberationSans-38"/>
      </g>
     </g>
    </g>
    <g id="ytick_7">
     <g id="line2d_27">
      <path clip-path="url(#pf67fcc19c6)" d="M 144 122.3734 
L 1036.8 122.3734 
" style="fill:none;stroke:#ffffff;stroke-linecap:round;stroke-width:0.8;"/>
     </g>
     <g id="line2d_28"/>
     <g id="text_14">
      <!-- 1.0 -->
      <g style="fill:#262626;" transform="translate(127.28 125.27215)scale(0.08 -0.08)">
       <use xlink:href="#LiberationSans-31"/>
       <use x="55.615234" xlink:href="#LiberationSans-2e"/>
       <use x="83.398438" xlink:href="#LiberationSans-30"/>
      </g>
     </g>
    </g>
    <g id="ytick_8">
     <g id="line2d_29">
      <path clip-path="url(#pf67fcc19c6)" d="M 144 90.38722 
L 1036.8 90.38722 
" style="fill:none;stroke:#ffffff;stroke-linecap:round;stroke-width:0.8;"/>
     </g>
     <g id="line2d_30"/>
     <g id="text_15">
      <!-- 1.2 -->
      <g style="fill:#262626;" transform="translate(127.28 93.28597)scale(0.08 -0.08)">
       <use xlink:href="#LiberationSans-31"/>
       <use x="55.615234" xlink:href="#LiberationSans-2e"/>
       <use x="83.398438" xlink:href="#LiberationSans-32"/>
      </g>
     </g>
    </g>
    <g id="ytick_9">
     <g id="line2d_31">
      <path clip-path="url(#pf67fcc19c6)" d="M 144 58.401039 
L 1036.8 58.401039 
" style="fill:none;stroke:#ffffff;stroke-linecap:round;stroke-width:0.8;"/>
     </g>
     <g id="line2d_32"/>
     <g id="text_16">
      <!-- 1.4 -->
      <g style="fill:#262626;" transform="translate(127.28 61.299789)scale(0.08 -0.08)">
       <use xlink:href="#LiberationSans-31"/>
       <use x="55.615234" xlink:href="#LiberationSans-2e"/>
       <use x="83.398438" xlink:href="#LiberationSans-34"/>
      </g>
     </g>
    </g>
   </g>
   <g id="line2d_33">
    <path clip-path="url(#pf67fcc19c6)" d="M 184.581818 65.756682 
L 186.073797 71.215636 
L 186.670588 72.562295 
L 186.968984 72.929603 
L 187.26738 73.09679 
L 187.565775 73.087407 
L 188.162567 72.70417 
L 188.759358 72.209707 
L 189.057754 72.07791 
L 189.35615 72.103525 
L 189.654545 72.337268 
L 189.952941 72.817642 
L 190.549733 74.594842 
L 191.146524 77.414029 
L 193.53369 90.823883 
L 193.832086 91.641855 
L 194.130481 92.114941 
L 194.428877 92.239046 
L 194.727273 92.028695 
L 195.025668 91.516023 
L 195.62246 89.786656 
L 197.114439 84.512989 
L 197.71123 83.343242 
L 198.009626 83.107015 
L 198.308021 83.104496 
L 198.606417 83.315416 
L 199.203209 84.223448 
L 200.396791 86.419063 
L 200.695187 86.705832 
L 200.993583 86.795814 
L 201.291979 86.665236 
L 201.590374 86.30667 
L 202.187166 84.960876 
L 204.275936 78.79633 
L 204.574332 78.552373 
L 204.872727 78.609142 
L 205.171123 78.979145 
L 205.469519 79.656548 
L 206.06631 81.820209 
L 208.15508 91.428823 
L 208.453476 92.13865 
L 208.751872 92.535128 
L 209.050267 92.606909 
L 209.348663 92.360997 
L 209.647059 91.822 
L 210.24385 90.039038 
L 212.034225 83.505211 
L 212.631016 82.3884 
L 212.929412 82.136189 
L 213.227807 82.066879 
L 213.824599 82.324187 
L 214.719786 82.876085 
L 215.018182 82.86233 
L 215.316578 82.659774 
L 215.614973 82.229748 
L 216.211765 80.607813 
L 216.808556 78.008178 
L 219.195722 65.827024 
L 219.494118 65.170787 
L 219.792513 64.855418 
L 220.090909 64.883363 
L 220.389305 65.238413 
L 220.986096 66.778763 
L 223.074866 74.106584 
L 223.373262 74.542717 
L 223.671658 74.71248 
L 223.970053 74.617913 
L 224.268449 74.278309 
L 224.865241 73.016563 
L 226.357219 69.126184 
L 226.655615 68.681025 
L 226.954011 68.439041 
L 227.252406 68.41136 
L 227.550802 68.592178 
L 228.147594 69.474409 
L 229.341176 71.897065 
L 229.639572 72.273834 
L 229.937968 72.440288 
L 230.236364 72.353231 
L 230.534759 71.984218 
L 230.833155 71.321747 
L 231.429947 69.160611 
L 232.325134 64.434352 
L 233.518717 58.181388 
L 234.115508 56.333811 
L 234.413904 55.895106 
L 234.712299 55.8 
L 235.010695 56.040534 
L 235.309091 56.590878 
L 235.905882 58.440306 
L 237.696257 65.352992 
L 238.293048 66.575937 
L 238.591444 66.86307 
L 238.88984 66.951418 
L 239.188235 66.873651 
L 239.785027 66.411536 
L 240.381818 65.93136 
L 240.680214 65.835442 
L 240.97861 65.90634 
L 241.277005 66.184028 
L 241.575401 66.694296 
L 242.172193 68.433555 
L 243.06738 72.477224 
L 244.260963 78.209943 
L 244.857754 80.020639 
L 245.15615 80.48139 
L 245.454545 80.614637 
L 245.752941 80.419644 
L 246.051337 79.914238 
L 246.648128 78.12948 
L 248.438503 71.315933 
L 248.736898 70.697778 
L 249.035294 70.361467 
L 249.33369 70.323567 
L 249.632086 70.582541 
L 249.930481 71.119218 
L 250.527273 72.871364 
L 252.317647 79.328726 
L 252.914439 80.446023 
L 253.212834 80.698735 
L 253.51123 80.766644 
L 254.108021 80.496555 
L 255.003209 79.901231 
L 255.301604 79.899639 
L 255.6 80.090961 
L 255.898396 80.517489 
L 256.495187 82.171536 
L 257.091979 84.881246 
L 258.285561 92.224981 
L 259.180749 97.292161 
L 259.77754 99.445163 
L 260.075936 100.025128 
L 260.374332 100.255583 
L 260.672727 100.14593 
L 260.971123 99.723595 
L 261.567914 98.128893 
L 263.358289 92.136031 
L 263.656684 91.619845 
L 263.95508 91.341545 
L 264.253476 91.30293 
L 264.551872 91.488609 
L 265.148663 92.394714 
L 266.342246 94.830842 
L 266.640642 95.224153 
L 266.939037 95.432867 
L 267.237433 95.428448 
L 267.535829 95.198252 
L 268.13262 94.094706 
L 269.027807 91.370566 
L 269.922995 88.788361 
L 270.22139 88.264358 
L 270.519786 87.997955 
L 270.818182 88.023336 
L 271.116578 88.357967 
L 271.414973 89.001188 
L 272.011765 91.119836 
L 273.205348 97.192254 
L 274.100535 101.092199 
L 274.697326 102.422655 
L 274.995722 102.606853 
L 275.294118 102.466656 
L 275.592513 102.021854 
L 276.189305 100.377105 
L 278.278075 93.062844 
L 278.874866 92.238638 
L 279.173262 92.12088 
L 279.471658 92.163664 
L 280.068449 92.544768 
L 280.665241 92.932016 
L 280.963636 92.975245 
L 281.262032 92.845145 
L 281.560428 92.499263 
L 281.858824 91.908985 
L 282.455615 89.962625 
L 283.052406 87.113749 
L 284.842781 77.49974 
L 285.439572 75.728287 
L 285.737968 75.332648 
L 286.036364 75.279964 
L 286.334759 75.559146 
L 286.633155 76.141042 
L 287.229947 78.017732 
L 288.721925 83.671187 
L 289.318717 84.912755 
L 289.617112 85.142724 
L 289.915508 85.102002 
L 290.213904 84.804981 
L 290.810695 83.578442 
L 292.60107 78.86086 
L 292.899465 78.50365 
L 293.197861 78.357565 
L 293.496257 78.422136 
L 293.794652 78.680068 
L 294.391444 79.630391 
L 295.286631 81.310157 
L 295.585027 81.682511 
L 295.883422 81.860899 
L 296.181818 81.798596 
L 296.480214 81.462772 
L 296.77861 80.83697 
L 297.375401 78.738945 
L 298.270588 74.013634 
L 299.464171 67.494175 
L 300.060963 65.419163 
L 300.359358 64.856746 
L 300.657754 64.638089 
L 300.95615 64.760425 
L 301.254545 65.202771 
L 301.851337 66.882616 
L 303.940107 74.492781 
L 304.536898 75.353119 
L 304.835294 75.465603 
L 305.13369 75.398642 
L 305.730481 74.904993 
L 306.327273 74.312346 
L 306.625668 74.130994 
L 306.924064 74.100176 
L 307.22246 74.263632 
L 307.520856 74.651742 
L 308.117647 76.143585 
L 308.714439 78.488917 
L 310.504813 86.531115 
L 311.101604 87.829255 
L 311.4 88.007611 
L 311.698396 87.858288 
L 311.996791 87.393997 
L 312.593583 85.65954 
L 314.682353 77.878751 
L 314.980749 77.445683 
L 315.279144 77.311862 
L 315.57754 77.480978 
L 315.875936 77.938794 
L 316.472727 79.582602 
L 318.561497 86.944961 
L 319.158289 87.819074 
L 319.456684 87.962002 
L 319.75508 87.942584 
L 320.351872 87.599703 
L 320.948663 87.241118 
L 321.247059 87.212259 
L 321.545455 87.360207 
L 321.84385 87.730767 
L 322.142246 88.3563 
L 322.739037 90.420454 
L 323.335829 93.473537 
L 325.424599 105.639194 
L 326.02139 107.33735 
L 326.319786 107.671099 
L 326.618182 107.660687 
L 326.916578 107.328681 
L 327.513369 105.871935 
L 329.303743 99.866938 
L 329.602139 99.306384 
L 329.900535 98.98308 
L 330.19893 98.904064 
L 330.497326 99.058953 
L 331.094118 99.949261 
L 332.586096 103.091374 
L 332.884492 103.414877 
L 333.182888 103.534263 
L 333.481283 103.431771 
L 333.779679 103.106384 
L 334.376471 101.867076 
L 336.166845 97.116726 
L 336.465241 96.832059 
L 336.763636 96.828998 
L 337.062032 97.129834 
L 337.360428 97.739058 
L 337.957219 99.809253 
L 338.852406 104.343775 
L 339.747594 108.927851 
L 340.344385 111.054476 
L 340.642781 111.680815 
L 340.941176 111.981116 
L 341.239572 111.951963 
L 341.537968 111.60818 
L 342.134759 110.118789 
L 343.328342 105.553911 
L 343.925134 103.517149 
L 344.521925 102.174012 
L 344.820321 101.811133 
L 345.118717 101.646454 
L 345.417112 101.653924 
L 346.013904 102.013434 
L 346.610695 102.456722 
L 346.909091 102.556794 
L 347.207487 102.499993 
L 347.505882 102.240367 
L 347.804278 101.744916 
L 348.40107 99.993681 
L 348.997861 97.312722 
L 351.086631 86.672654 
L 351.385027 85.874877 
L 351.683422 85.405391 
L 351.981818 85.27695 
L 352.280214 85.483633 
L 352.57861 86.001156 
L 353.175401 87.789568 
L 354.965775 94.334677 
L 355.264171 94.897755 
L 355.562567 95.193661 
L 355.860963 95.213981 
L 356.159358 94.968078 
L 356.75615 93.796876 
L 358.84492 88.290347 
L 359.143316 88.030378 
L 359.441711 87.981588 
L 359.740107 88.131904 
L 360.336898 88.902634 
L 361.530481 90.812693 
L 361.828877 91.001899 
L 362.127273 90.964268 
L 362.425668 90.662804 
L 362.724064 90.076226 
L 363.320856 88.050591 
L 364.216043 83.348178 
L 365.409626 76.592857 
L 366.006417 74.299794 
L 366.304813 73.615978 
L 366.603209 73.274379 
L 366.901604 73.277457 
L 367.2 73.609211 
L 367.796791 75.11065 
L 368.691979 78.580408 
L 369.587166 81.877541 
L 370.183957 83.242969 
L 370.482353 83.596938 
L 370.780749 83.735578 
L 371.079144 83.682511 
L 371.675936 83.165548 
L 372.571123 82.205556 
L 372.869519 82.075379 
L 373.167914 82.125629 
L 373.46631 82.391064 
L 373.764706 82.891357 
L 374.361497 84.591084 
L 375.256684 88.436647 
L 376.151872 92.459944 
L 376.748663 94.340501 
L 377.047059 94.873876 
L 377.345455 95.092569 
L 377.64385 94.985587 
L 377.942246 94.560483 
L 378.539037 92.876015 
L 379.434225 89.097814 
L 380.329412 85.55347 
L 380.926203 84.214686 
L 381.224599 83.979588 
L 381.522995 84.051905 
L 381.82139 84.422455 
L 382.418182 85.937659 
L 383.313369 89.36366 
L 384.208556 92.65971 
L 384.805348 94.09094 
L 385.103743 94.50316 
L 385.402139 94.718395 
L 385.700535 94.761123 
L 386.297326 94.4968 
L 386.894118 94.141381 
L 387.192513 94.08525 
L 387.490909 94.189003 
L 387.789305 94.501661 
L 388.087701 95.059746 
L 388.684492 96.980062 
L 389.281283 99.91178 
L 391.370053 112.208606 
L 391.966845 114.09202 
L 392.265241 114.525104 
L 392.563636 114.61159 
L 392.862032 114.369057 
L 393.160428 113.832501 
L 393.757219 112.08994 
L 395.249198 107.043424 
L 395.845989 106.065458 
L 396.144385 105.941566 
L 396.442781 106.05989 
L 396.741176 106.398334 
L 397.337968 107.575055 
L 398.531551 110.336397 
L 399.128342 111.009407 
L 399.426738 111.032816 
L 399.725134 110.833587 
L 400.321925 109.826577 
L 402.112299 105.371739 
L 402.410695 105.072671 
L 402.709091 105.043847 
L 403.007487 105.312231 
L 403.305882 105.887405 
L 403.902674 107.905127 
L 404.797861 112.463318 
L 405.991444 118.535485 
L 406.588235 120.319253 
L 406.886631 120.738276 
L 407.185027 120.824459 
L 407.483422 120.587545 
L 407.781818 120.054795 
L 408.37861 118.285439 
L 410.168984 111.892825 
L 410.765775 110.856311 
L 411.064171 110.646195 
L 411.362567 110.618659 
L 411.959358 110.954776 
L 412.854545 111.607657 
L 413.152941 111.624365 
L 413.451337 111.452413 
L 413.749733 111.054642 
L 414.346524 109.509002 
L 414.943316 107.012564 
L 417.032086 96.46248 
L 417.628877 95.069651 
L 417.927273 94.870741 
L 418.225668 95.008705 
L 418.524064 95.464244 
L 419.120856 97.165903 
L 420.91123 103.862134 
L 421.209626 104.494769 
L 421.508021 104.862078 
L 421.806417 104.950407 
L 422.104813 104.76399 
L 422.403209 104.324289 
L 423 102.845394 
L 424.491979 98.367551 
L 425.08877 97.43067 
L 425.387166 97.272263 
L 425.685561 97.317144 
L 425.983957 97.542024 
L 426.580749 98.366437 
L 427.475936 99.670347 
L 427.774332 99.869495 
L 428.072727 99.856624 
L 428.371123 99.590814 
L 428.669519 99.04612 
L 429.26631 97.102432 
L 429.863102 94.168077 
L 431.653476 84.103284 
L 432.250267 82.186715 
L 432.548663 81.723901 
L 432.847059 81.607765 
L 433.145455 81.827389 
L 433.44385 82.354109 
L 434.040642 84.13822 
L 435.831016 90.616286 
L 436.427807 91.617444 
L 436.726203 91.784534 
L 437.024599 91.748793 
L 437.62139 91.217692 
L 438.516578 90.085863 
L 438.814973 89.859628 
L 439.113369 89.798712 
L 439.411765 89.942021 
L 439.71016 90.314077 
L 440.306952 91.760068 
L 440.903743 93.999066 
L 442.395722 100.258683 
L 442.992513 101.652821 
L 443.290909 101.907127 
L 443.589305 101.839192 
L 443.887701 101.451391 
L 444.484492 99.816822 
L 445.379679 95.99785 
L 446.274866 92.249072 
L 446.871658 90.710669 
L 447.170053 90.369693 
L 447.468449 90.338992 
L 447.766845 90.614533 
L 448.065241 91.174677 
L 448.662032 92.985534 
L 450.452406 99.620859 
L 451.049198 100.79538 
L 451.347594 101.079839 
L 451.645989 101.182941 
L 452.242781 100.996529 
L 453.137968 100.561908 
L 453.436364 100.620833 
L 453.734759 100.873906 
L 454.033155 101.361564 
L 454.629947 103.127651 
L 455.226738 105.921772 
L 456.420321 113.302392 
L 457.315508 118.276088 
L 457.912299 120.330427 
L 458.210695 120.858053 
L 458.509091 121.038261 
L 458.807487 120.883547 
L 459.105882 120.424279 
L 459.702674 118.790249 
L 461.194652 113.700899 
L 461.791444 112.623896 
L 462.08984 112.450538 
L 462.388235 112.526353 
L 462.686631 112.834064 
L 463.283422 114.000213 
L 464.775401 117.527125 
L 465.073797 117.882639 
L 465.372193 118.029035 
L 465.670588 117.95474 
L 465.968984 117.66514 
L 466.565775 116.544076 
L 468.057754 113.049636 
L 468.35615 112.739684 
L 468.654545 112.687493 
L 468.952941 112.924522 
L 469.251337 113.465353 
L 469.848128 115.426011 
L 470.743316 119.993945 
L 471.936898 126.340853 
L 472.53369 128.349514 
L 472.832086 128.888775 
L 473.130481 129.0935 
L 473.428877 128.968274 
L 473.727273 128.535599 
L 474.324064 126.916358 
L 476.114439 120.509952 
L 476.71123 119.377774 
L 477.009626 119.123612 
L 477.308021 119.061242 
L 477.904813 119.371659 
L 478.8 120.129212 
L 479.098396 120.218959 
L 479.396791 120.135352 
L 479.695187 119.837323 
L 479.993583 119.297856 
L 480.590374 117.468736 
L 481.187166 114.76808 
L 482.97754 105.823423 
L 483.574332 104.320662 
L 483.872727 104.056907 
L 484.171123 104.130265 
L 484.469519 104.526518 
L 485.06631 106.143392 
L 487.15508 113.699335 
L 487.453476 114.143167 
L 487.751872 114.306153 
L 488.050267 114.18733 
L 488.348663 113.803311 
L 488.945455 112.38426 
L 490.735829 107.027358 
L 491.33262 106.293042 
L 491.631016 106.235449 
L 491.929412 106.365533 
L 492.526203 107.04055 
L 493.42139 108.258332 
L 493.719786 108.46675 
L 494.018182 108.47886 
L 494.316578 108.250084 
L 494.614973 107.749993 
L 495.211765 105.897971 
L 495.808556 103.024825 
L 497.897326 91.494142 
L 498.494118 89.997652 
L 498.792513 89.763432 
L 499.090909 89.870444 
L 499.389305 90.294801 
L 499.986096 91.920312 
L 501.776471 98.360737 
L 502.373262 99.433653 
L 502.671658 99.631756 
L 502.970053 99.6171 
L 503.268449 99.419414 
L 503.865241 98.658313 
L 504.760428 97.476596 
L 505.058824 97.307578 
L 505.357219 97.330384 
L 505.655615 97.574215 
L 505.954011 98.052445 
L 506.550802 99.680469 
L 507.445989 103.265145 
L 508.341176 106.777827 
L 508.937968 108.200424 
L 509.236364 108.485731 
L 509.534759 108.453634 
L 509.833155 108.101343 
L 510.131551 107.444594 
L 510.728342 105.367609 
L 512.518717 97.715898 
L 513.115508 96.522538 
L 513.413904 96.383407 
L 513.712299 96.556947 
L 514.010695 97.026404 
L 514.607487 98.705847 
L 516.696257 106.185212 
L 517.293048 107.08914 
L 517.591444 107.250578 
L 517.88984 107.253332 
L 518.486631 106.968036 
L 519.083422 106.684646 
L 519.381818 106.698356 
L 519.680214 106.890475 
L 519.97861 107.305087 
L 520.575401 108.907307 
L 521.172193 111.548194 
L 522.06738 116.888431 
L 523.260963 123.884929 
L 523.857754 126.094476 
L 524.15615 126.711089 
L 524.454545 126.981074 
L 524.752941 126.911779 
L 525.051337 126.528779 
L 525.648128 125.004313 
L 527.438503 119.171875 
L 527.736898 118.694811 
L 528.035294 118.46734 
L 528.33369 118.494606 
L 528.632086 118.764288 
L 529.228877 119.902519 
L 530.720856 123.718949 
L 531.317647 124.450069 
L 531.616043 124.498394 
L 531.914439 124.329698 
L 532.51123 123.425078 
L 534.003209 120.172612 
L 534.301604 119.854937 
L 534.6 119.781487 
L 534.898396 119.988006 
L 535.196791 120.493968 
L 535.793583 122.392422 
L 536.390374 125.275746 
L 538.180749 134.8099 
L 538.77754 136.445105 
L 539.075936 136.770464 
L 539.374332 136.760666 
L 539.672727 136.433302 
L 540.269519 134.978114 
L 542.358289 127.888335 
L 542.95508 127.083439 
L 543.253476 126.986233 
L 543.551872 127.061502 
L 544.148663 127.553919 
L 544.745455 128.123877 
L 545.04385 128.285478 
L 545.342246 128.290095 
L 545.640642 128.093027 
L 545.939037 127.662768 
L 546.535829 126.056334 
L 547.13262 123.549571 
L 548.922995 114.750003 
L 549.519786 113.153307 
L 549.818182 112.83058 
L 550.116578 112.84371 
L 550.414973 113.183616 
L 551.011765 114.717994 
L 551.906952 118.309688 
L 552.802139 121.723709 
L 553.39893 123.030943 
L 553.697326 123.274826 
L 553.995722 123.231344 
L 554.294118 122.912125 
L 554.890909 121.574272 
L 556.979679 115.403607 
L 557.278075 115.040316 
L 557.576471 114.88393 
L 557.874866 114.921419 
L 558.471658 115.447864 
L 559.366845 116.576711 
L 559.665241 116.793898 
L 559.963636 116.831305 
L 560.262032 116.64098 
L 560.560428 116.18822 
L 561.157219 114.437617 
L 561.754011 111.640794 
L 563.842781 99.821754 
L 564.439572 98.102774 
L 564.737968 97.752663 
L 565.036364 97.747614 
L 565.334759 98.068665 
L 565.931551 99.530204 
L 568.020321 106.598533 
L 568.318717 107.06073 
L 568.617112 107.292662 
L 568.915508 107.303155 
L 569.213904 107.117402 
L 569.810695 106.326684 
L 570.705882 104.945922 
L 571.004278 104.67288 
L 571.302674 104.577887 
L 571.60107 104.694623 
L 571.899465 105.041524 
L 572.496257 106.415395 
L 573.391444 109.710673 
L 574.286631 113.108912 
L 574.883422 114.547614 
L 575.181818 114.859478 
L 575.480214 114.860144 
L 575.77861 114.541701 
L 576.077005 113.914742 
L 576.673797 111.866504 
L 578.762567 103.038779 
L 579.060963 102.475627 
L 579.359358 102.223532 
L 579.657754 102.288918 
L 579.95615 102.660045 
L 580.552941 104.189285 
L 581.448128 107.640363 
L 582.343316 110.944768 
L 582.940107 112.375045 
L 583.238503 112.787575 
L 583.536898 113.005113 
L 583.835294 113.053134 
L 584.432086 112.81112 
L 585.028877 112.494676 
L 585.327273 112.463084 
L 585.625668 112.593256 
L 585.924064 112.932633 
L 586.22246 113.515891 
L 586.819251 115.473843 
L 587.416043 118.413269 
L 589.504813 130.399278 
L 590.101604 132.125753 
L 590.4 132.480877 
L 590.698396 132.493917 
L 590.996791 132.185523 
L 591.593583 130.770585 
L 593.383957 124.850295 
L 593.682353 124.315604 
L 593.980749 124.029386 
L 594.279144 124.002034 
L 594.57754 124.226301 
L 595.174332 125.318793 
L 596.964706 129.948068 
L 597.263102 130.327443 
L 597.561497 130.495023 
L 597.859893 130.445535 
L 598.158289 130.190695 
L 598.75508 129.19173 
L 599.948663 126.764812 
L 600.247059 126.442212 
L 600.545455 126.349318 
L 600.84385 126.525931 
L 601.142246 126.996271 
L 601.739037 128.826876 
L 602.335829 131.679503 
L 604.126203 141.553845 
L 604.722995 143.421958 
L 605.02139 143.868901 
L 605.319786 143.977161 
L 605.618182 143.759293 
L 605.916578 143.245253 
L 606.513369 141.521706 
L 608.303743 135.421672 
L 608.900535 134.531902 
L 609.19893 134.399654 
L 609.497326 134.451237 
L 610.094118 134.945179 
L 610.989305 135.826942 
L 611.287701 135.918835 
L 611.586096 135.823058 
L 611.884492 135.503835 
L 612.182888 134.940382 
L 612.779679 133.081993 
L 613.674866 128.908017 
L 614.868449 123.23698 
L 615.465241 121.562518 
L 615.763636 121.186865 
L 616.062032 121.144329 
L 616.360428 121.431004 
L 616.658824 122.024533 
L 617.255615 123.95921 
L 619.045989 130.908225 
L 619.344385 131.518666 
L 619.642781 131.849189 
L 619.941176 131.888341 
L 620.239572 131.642651 
L 620.537968 131.135831 
L 621.134759 129.507189 
L 622.626738 124.619955 
L 623.223529 123.508374 
L 623.521925 123.257528 
L 623.820321 123.205249 
L 624.118717 123.327375 
L 624.715508 123.927273 
L 625.312299 124.623098 
L 625.610695 124.848683 
L 625.909091 124.911752 
L 626.207487 124.761282 
L 626.505882 124.35853 
L 626.804278 123.679924 
L 627.40107 121.487228 
L 628.296257 116.536028 
L 629.48984 109.376803 
L 630.086631 106.848112 
L 630.385027 106.042769 
L 630.683422 105.579983 
L 630.981818 105.464437 
L 631.280214 105.682205 
L 631.57861 106.201767 
L 632.175401 107.945794 
L 633.66738 113.288712 
L 634.264171 114.510081 
L 634.562567 114.778886 
L 634.860963 114.818871 
L 635.159358 114.650507 
L 635.75615 113.843298 
L 636.949733 111.911232 
L 637.248128 111.702215 
L 637.546524 111.694106 
L 637.84492 111.910266 
L 638.143316 112.357657 
L 638.740107 113.888765 
L 640.828877 120.721781 
L 641.127273 121.055972 
L 641.425668 121.086505 
L 641.724064 120.800416 
L 642.02246 120.203128 
L 642.619251 118.186917 
L 644.708021 108.94097 
L 645.006417 108.263364 
L 645.304813 107.894718 
L 645.603209 107.846709 
L 645.901604 108.112713 
L 646.2 108.668559 
L 646.796791 110.477472 
L 648.587166 117.068813 
L 649.183957 118.214585 
L 649.482353 118.485852 
L 649.780749 118.578001 
L 650.37754 118.379635 
L 650.974332 118.031695 
L 651.272727 117.955069 
L 651.571123 118.022733 
L 651.869519 118.28518 
L 652.167914 118.781121 
L 652.764706 120.552758 
L 653.361497 123.324897 
L 655.748663 136.368398 
L 656.047059 137.143683 
L 656.345455 137.578687 
L 656.64385 137.670366 
L 656.942246 137.434334 
L 657.240642 136.903885 
L 657.837433 135.167861 
L 659.329412 130.11984 
L 659.926203 129.174902 
L 660.224599 129.086914 
L 660.522995 129.258371 
L 660.82139 129.670006 
L 661.418182 131.061697 
L 662.91016 135.207031 
L 663.506952 135.976876 
L 663.805348 136.043893 
L 664.103743 135.901864 
L 664.700535 135.098024 
L 665.894118 132.852268 
L 666.192513 132.527181 
L 666.490909 132.416375 
L 666.789305 132.563453 
L 667.087701 132.997214 
L 667.684492 134.753876 
L 668.281283 137.564806 
L 670.370053 148.938591 
L 670.966845 150.404645 
L 671.265241 150.63246 
L 671.563636 150.52719 
L 671.862032 150.114103 
L 672.458824 148.542779 
L 674.249198 142.448394 
L 674.845989 141.476942 
L 675.144385 141.309221 
L 675.442781 141.335516 
L 676.039572 141.825323 
L 676.934759 142.847979 
L 677.233155 143.025343 
L 677.531551 143.030264 
L 677.829947 142.822936 
L 678.128342 142.377803 
L 678.725134 140.754406 
L 679.321925 138.291278 
L 680.813904 131.279736 
L 681.410695 129.543665 
L 681.709091 129.12122 
L 682.007487 129.027696 
L 682.305882 129.264365 
L 682.604278 129.813904 
L 683.20107 131.696132 
L 684.991444 138.899816 
L 685.588235 140.021579 
L 685.886631 140.150107 
L 686.185027 139.986186 
L 686.483422 139.548741 
L 687.080214 138.006269 
L 688.870588 132.234434 
L 689.46738 131.349406 
L 689.765775 131.210748 
L 690.064171 131.254683 
L 690.660963 131.739498 
L 691.55615 132.626714 
L 691.854545 132.715809 
L 692.152941 132.606533 
L 692.451337 132.256356 
L 692.749733 131.637127 
L 693.346524 129.563143 
L 693.943316 126.50459 
L 695.73369 115.945807 
L 696.330481 113.817762 
L 696.628877 113.246492 
L 696.927273 113.022979 
L 697.225668 113.138425 
L 697.524064 113.566014 
L 698.120856 115.172061 
L 699.91123 121.247258 
L 700.209626 121.789494 
L 700.508021 122.098409 
L 700.806417 122.172469 
L 701.104813 122.027258 
L 701.701604 121.217588 
L 702.895187 119.035263 
L 703.193583 118.717042 
L 703.491979 118.587444 
L 703.790374 118.674588 
L 704.08877 118.990649 
L 704.685561 120.273268 
L 705.580749 123.275844 
L 706.475936 126.133982 
L 706.774332 126.746677 
L 707.072727 127.099224 
L 707.371123 127.15694 
L 707.669519 126.901909 
L 707.967914 126.334382 
L 708.564706 124.354045 
L 709.459893 120.026835 
L 710.35508 115.77356 
L 710.951872 113.916839 
L 711.250267 113.429058 
L 711.548663 113.263391 
L 711.847059 113.418408 
L 712.145455 113.874763 
L 712.742246 115.534799 
L 714.831016 122.88189 
L 715.427807 123.730032 
L 715.726203 123.865139 
L 716.024599 123.843962 
L 717.516578 123.217671 
L 717.814973 123.402046 
L 718.113369 123.808203 
L 718.71016 125.383991 
L 719.306952 127.97313 
L 720.500535 134.998387 
L 721.395722 139.810167 
L 721.992513 141.806289 
L 722.290909 142.315378 
L 722.589305 142.481457 
L 722.887701 142.315026 
L 723.186096 141.844663 
L 723.782888 140.185201 
L 725.274866 135.018972 
L 725.871658 133.94265 
L 726.170053 133.78814 
L 726.468449 133.899471 
L 726.766845 134.262285 
L 727.363636 135.606442 
L 729.154011 140.585746 
L 729.452406 140.977798 
L 729.750802 141.157661 
L 730.049198 141.126407 
L 730.347594 140.901948 
L 730.944385 140.021504 
L 731.839572 138.462793 
L 732.137968 138.13731 
L 732.436364 138.009854 
L 732.734759 138.127558 
L 733.033155 138.523604 
L 733.331551 139.214742 
L 733.928342 141.45964 
L 734.823529 146.447232 
L 736.017112 153.391898 
L 736.613904 155.707506 
L 736.912299 156.395872 
L 737.210695 156.743601 
L 737.509091 156.752928 
L 737.807487 156.444271 
L 738.404278 155.035499 
L 740.493048 148.347946 
L 740.791444 147.928412 
L 741.08984 147.724543 
L 741.388235 147.723657 
L 741.686631 147.897176 
L 742.283422 148.587831 
L 743.17861 149.615222 
L 743.477005 149.719297 
L 743.775401 149.623719 
L 744.073797 149.298346 
L 744.372193 148.728811 
L 744.968984 146.885353 
L 745.864171 142.889423 
L 746.759358 138.874626 
L 747.35615 137.092922 
L 747.654545 136.62983 
L 747.952941 136.490039 
L 748.251337 136.679972 
L 748.549733 137.187419 
L 749.146524 139.017631 
L 751.235294 147.265691 
L 751.53369 147.784319 
L 751.832086 148.008326 
L 752.130481 147.933829 
L 752.428877 147.574811 
L 753.025668 146.139795 
L 755.114439 139.575912 
L 755.412834 139.151358 
L 755.71123 138.930199 
L 756.009626 138.898412 
L 756.606417 139.269749 
L 757.501604 140.121845 
L 757.8 140.237281 
L 758.098396 140.170415 
L 758.396791 139.875207 
L 758.695187 139.319125 
L 759.291979 137.375846 
L 759.88877 134.419761 
L 761.97754 122.431008 
L 762.574332 120.750139 
L 762.872727 120.422112 
L 763.171123 120.437093 
L 763.469519 120.773126 
L 764.06631 122.23874 
L 765.856684 128.318149 
L 766.453476 129.25573 
L 766.751872 129.368637 
L 767.050267 129.252601 
L 767.647059 128.455296 
L 769.139037 125.632107 
L 769.437433 125.385456 
L 769.735829 125.346432 
L 770.034225 125.532325 
L 770.33262 125.943638 
L 770.929412 127.360156 
L 772.719786 132.642367 
L 773.018182 133.009586 
L 773.316578 133.092041 
L 773.614973 132.86699 
L 773.913369 132.329539 
L 774.51016 130.389505 
L 775.405348 126.013242 
L 776.300535 121.540814 
L 776.897326 119.463653 
L 777.195722 118.855199 
L 777.494118 118.568647 
L 777.792513 118.607804 
L 778.090909 118.958291 
L 778.687701 120.453193 
L 779.881283 125.013509 
L 780.478075 127.050102 
L 781.074866 128.401173 
L 781.373262 128.772543 
L 781.671658 128.949456 
L 781.970053 128.958458 
L 782.566845 128.646305 
L 783.163636 128.271833 
L 783.462032 128.214806 
L 783.760428 128.320582 
L 784.058824 128.63515 
L 784.357219 129.191474 
L 784.954011 131.081753 
L 785.550802 133.923306 
L 787.639572 145.249692 
L 788.236364 146.731349 
L 788.534759 146.967126 
L 788.833155 146.867087 
L 789.131551 146.454946 
L 789.728342 144.871346 
L 791.518717 138.860728 
L 791.817112 138.371642 
L 792.115508 138.144937 
L 792.413904 138.188995 
L 792.712299 138.494495 
L 793.309091 139.771044 
L 795.099465 145.037544 
L 795.696257 145.821155 
L 795.994652 145.897748 
L 796.293048 145.775471 
L 796.88984 145.06401 
L 798.083422 143.30172 
L 798.381818 143.15863 
L 798.680214 143.246935 
L 798.97861 143.603983 
L 799.277005 144.251344 
L 799.873797 146.414987 
L 800.768984 151.366939 
L 801.962567 158.531319 
L 802.559358 161.057186 
L 802.857754 161.863112 
L 803.15615 162.32998 
L 803.454545 162.454795 
L 803.752941 162.252994 
L 804.051337 161.757258 
L 804.648128 160.08643 
L 806.140107 155.025224 
L 806.736898 153.898206 
L 807.035294 153.65727 
L 807.33369 153.627012 
L 807.632086 153.783483 
L 808.228877 154.491346 
L 809.124064 155.696121 
L 809.42246 155.896844 
L 809.720856 155.911845 
L 810.019251 155.706605 
L 810.317647 155.261759 
L 810.914439 153.660198 
L 811.809626 149.937031 
L 812.704813 146.019309 
L 813.301604 144.207596 
L 813.6 143.70994 
L 813.898396 143.52858 
L 814.196791 143.675037 
L 814.495187 144.142256 
L 815.091979 145.920663 
L 815.987166 149.869497 
L 816.882353 153.62587 
L 817.479144 155.130116 
L 817.77754 155.454982 
L 818.075936 155.476883 
L 818.374332 155.204737 
L 818.971123 153.897547 
L 819.86631 150.805038 
L 820.761497 147.855407 
L 821.358289 146.654215 
L 821.656684 146.354849 
L 821.95508 146.250198 
L 822.253476 146.31519 
L 822.850267 146.784156 
L 823.447059 147.326567 
L 823.745455 147.468554 
L 824.04385 147.445135 
L 824.342246 147.207055 
L 824.640642 146.717623 
L 825.237433 144.916522 
L 825.834225 142.080073 
L 828.22139 128.858126 
L 828.519786 128.086038 
L 828.818182 127.657809 
L 829.116578 127.575032 
L 829.414973 127.820734 
L 829.713369 128.360529 
L 830.31016 130.112178 
L 831.802139 135.222455 
L 832.39893 136.252065 
L 832.697326 136.408736 
L 832.995722 136.328097 
L 833.294118 136.032358 
L 833.890909 134.956211 
L 835.084492 132.453337 
L 835.382888 132.095112 
L 835.681283 131.933866 
L 835.979679 131.991872 
L 836.278075 132.274941 
L 836.874866 133.45467 
L 838.665241 138.425206 
L 838.963636 138.803732 
L 839.262032 138.908742 
L 839.560428 138.712825 
L 839.858824 138.205998 
L 840.455615 136.311277 
L 841.350802 131.899912 
L 842.544385 125.950202 
L 843.141176 124.198186 
L 843.439572 123.788599 
L 843.737968 123.708071 
L 844.036364 123.947303 
L 844.334759 124.479529 
L 844.931551 126.241488 
L 846.721925 132.604724 
L 847.318717 133.64567 
L 847.617112 133.863306 
L 847.915508 133.902567 
L 848.512299 133.60422 
L 849.407487 133.048558 
L 849.705882 133.075868 
L 850.004278 133.297765 
L 850.302674 133.751369 
L 850.899465 135.42583 
L 851.496257 138.072439 
L 853.585027 149.270495 
L 854.181818 150.866192 
L 854.480214 151.166582 
L 854.77861 151.12935 
L 855.077005 150.773226 
L 855.673797 149.264301 
L 857.464171 143.065643 
L 857.762567 142.50082 
L 858.060963 142.196544 
L 858.359358 142.166444 
L 858.657754 142.406332 
L 859.254545 143.5953 
L 860.149733 146.433308 
L 861.04492 149.086926 
L 861.641711 150.069882 
L 861.940107 150.250557 
L 862.238503 150.228258 
L 862.536898 150.026894 
L 863.13369 149.254765 
L 864.028877 148.051003 
L 864.327273 147.893078 
L 864.625668 147.951811 
L 864.924064 148.268471 
L 865.22246 148.869294 
L 865.819251 150.941906 
L 866.416043 154.02813 
L 868.206417 164.680105 
L 868.803209 166.829212 
L 869.101604 167.413329 
L 869.4 167.653424 
L 869.698396 167.559846 
L 869.996791 167.160669 
L 870.593583 165.633682 
L 872.383957 159.898999 
L 872.682353 159.400366 
L 872.980749 159.12119 
L 873.279144 159.059082 
L 873.57754 159.194891 
L 874.174332 159.910426 
L 875.069519 161.277902 
L 875.367914 161.571801 
L 875.66631 161.695172 
L 875.964706 161.609354 
L 876.263102 161.290132 
L 876.859893 159.937371 
L 877.456684 157.778066 
L 878.948663 151.686932 
L 879.545455 150.360166 
L 879.84385 150.14185 
L 880.142246 150.248021 
L 880.440642 150.676799 
L 881.037433 152.40331 
L 881.93262 156.39054 
L 882.827807 160.349551 
L 883.424599 162.052443 
L 883.722995 162.482748 
L 884.02139 162.607251 
L 884.319786 162.429716 
L 884.618182 161.971453 
L 885.214973 160.374375 
L 887.005348 154.423351 
L 887.602139 153.475316 
L 887.900535 153.30098 
L 888.19893 153.305122 
L 888.795722 153.69517 
L 889.690909 154.400994 
L 889.989305 154.421821 
L 890.287701 154.242727 
L 890.586096 153.82311 
L 891.182888 152.174977 
L 891.779679 149.474837 
L 892.973262 142.216058 
L 893.868449 137.286773 
L 894.465241 135.246812 
L 894.763636 134.723485 
L 895.062032 134.546444 
L 895.360428 134.703797 
L 895.658824 135.165782 
L 896.255615 136.80787 
L 897.747594 141.958241 
L 898.344385 143.085605 
L 898.642781 143.291037 
L 898.941176 143.252149 
L 899.239572 142.986331 
L 899.836364 141.918939 
L 901.029947 139.18302 
L 901.626738 138.441221 
L 901.925134 138.374713 
L 902.223529 138.531221 
L 902.521925 138.904804 
L 903.118717 140.196809 
L 904.610695 144.10788 
L 904.909091 144.494679 
L 905.207487 144.620333 
L 905.505882 144.45294 
L 905.804278 143.977517 
L 906.40107 142.133678 
L 906.997861 139.326525 
L 908.48984 131.463791 
L 909.086631 129.47935 
L 909.385027 128.94569 
L 909.683422 128.742741 
L 909.981818 128.866371 
L 910.280214 129.294574 
L 910.877005 130.898422 
L 912.66738 137.250746 
L 913.264171 138.378867 
L 913.562567 138.636252 
L 913.860963 138.706014 
L 914.457754 138.424584 
L 915.352941 137.750761 
L 915.651337 137.700444 
L 915.949733 137.829359 
L 916.248128 138.178533 
L 916.546524 138.77487 
L 917.143316 140.73411 
L 918.038503 145.235848 
L 919.232086 151.792244 
L 919.828877 154.065837 
L 920.127273 154.758355 
L 920.425668 155.117972 
L 920.724064 155.139659 
L 921.02246 154.837071 
L 921.619251 153.401263 
L 922.812834 148.914024 
L 923.409626 147.012778 
L 924.006417 145.981889 
L 924.304813 145.871096 
L 924.603209 146.037372 
L 924.901604 146.464222 
L 925.498396 147.955901 
L 927.28877 153.452429 
L 927.885561 154.220485 
L 928.183957 154.295203 
L 928.482353 154.183247 
L 929.079144 153.549949 
L 929.974332 152.417016 
L 930.272727 152.24487 
L 930.571123 152.273744 
L 930.869519 152.548566 
L 931.167914 153.100051 
L 931.764706 155.071735 
L 932.361497 158.087737 
L 934.450267 170.290003 
L 935.047059 172.017643 
L 935.345455 172.371728 
L 935.64385 172.386695 
L 935.942246 172.085839 
L 936.539037 170.709447 
L 938.329412 164.989219 
L 938.926203 164.132296 
L 939.224599 164.035583 
L 939.522995 164.146781 
L 940.119786 164.859508 
L 941.313369 166.755414 
L 941.611765 166.983907 
L 941.91016 167.015704 
L 942.208556 166.821915 
L 942.506952 166.389537 
L 943.103743 164.842402 
L 943.99893 161.359667 
L 944.894118 157.9393 
L 945.490909 156.580771 
L 945.789305 156.329969 
L 946.087701 156.398926 
L 946.386096 156.790923 
L 946.982888 158.465076 
L 947.878075 162.484395 
L 948.773262 166.641638 
L 949.370053 168.545894 
L 949.668449 169.085347 
L 949.966845 169.31781 
L 950.265241 169.241829 
L 950.563636 168.873826 
L 951.160428 167.407348 
L 953.249198 160.723617 
L 953.547594 160.281993 
L 953.845989 160.041405 
L 954.144385 159.986792 
L 954.741176 160.299036 
L 955.636364 161.025347 
L 955.934759 161.090924 
L 956.233155 160.972313 
L 956.531551 160.625265 
L 956.829947 160.019287 
L 957.426738 157.990705 
L 958.023529 154.982198 
L 960.112299 143.169094 
L 960.709091 141.610347 
L 961.007487 141.34326 
L 961.305882 141.414947 
L 961.604278 141.800434 
L 962.20107 143.332536 
L 963.991444 149.247623 
L 964.28984 149.751786 
L 964.588235 150.010993 
L 964.886631 150.020276 
L 965.185027 149.792056 
L 965.781818 148.75155 
L 967.273797 145.258972 
L 967.572193 144.86928 
L 967.870588 144.682677 
L 968.168984 144.715372 
L 968.46738 144.966763 
L 969.064171 146.039442 
L 970.55615 149.699471 
L 970.854545 150.091851 
L 971.152941 150.236515 
L 971.451337 150.097273 
L 971.749733 149.654257 
L 972.346524 147.867397 
L 972.943316 145.075022 
L 974.73369 135.685045 
L 975.330481 134.058595 
L 975.628877 133.731611 
L 975.927273 133.736373 
L 976.225668 134.055787 
L 976.82246 135.488528 
L 978.91123 142.494884 
L 979.508021 143.294865 
L 979.806417 143.395559 
L 980.104813 143.328342 
L 980.701604 142.867172 
L 981.298396 142.350417 
L 981.596791 142.224051 
L 981.895187 142.260489 
L 982.193583 142.504391 
L 982.491979 142.987149 
L 983.08877 144.714767 
L 983.685561 147.362313 
L 985.475936 156.666751 
L 986.072727 158.444819 
L 986.371123 158.858055 
L 986.669519 158.934543 
L 986.967914 158.682802 
L 987.26631 158.129588 
L 987.863102 156.306318 
L 989.35508 150.739498 
L 989.951872 149.539251 
L 990.250267 149.341676 
L 990.548663 149.42673 
L 990.847059 149.782915 
L 991.44385 151.181726 
L 993.53262 157.469304 
L 993.831016 157.843863 
L 994.129412 158.01195 
L 994.427807 157.987226 
L 995.024599 157.491957 
L 995.919786 156.432624 
L 996.218182 156.246728 
L 996.218182 156.246728 
" style="fill:none;stroke:#4c72b0;stroke-linecap:round;stroke-width:1.4;"/>
   </g>
   <g id="line2d_34">
    <path clip-path="url(#pf67fcc19c6)" d="M 184.581818 212.487876 
L 187.565775 205.040941 
L 190.251337 198.964409 
L 192.638503 194.140727 
L 194.727273 190.415154 
L 196.517647 187.617885 
L 198.308021 185.20683 
L 200.098396 183.198719 
L 201.590374 181.843239 
L 203.082353 180.783846 
L 204.574332 180.025648 
L 205.767914 179.638459 
L 206.961497 179.4476 
L 208.15508 179.453665 
L 209.348663 179.656636 
L 210.542246 180.055892 
L 211.735829 180.650204 
L 213.227807 181.664548 
L 214.719786 182.975884 
L 216.211765 184.577902 
L 218.002139 186.873071 
L 219.792513 189.559738 
L 221.582888 192.619282 
L 223.671658 196.631592 
L 226.058824 201.754332 
L 228.744385 208.126466 
L 231.728342 215.845853 
L 235.309091 225.793609 
L 240.381818 240.649555 
L 248.140107 263.374304 
L 251.720856 273.161099 
L 254.704813 280.697025 
L 257.390374 286.868768 
L 259.77754 291.787926 
L 261.86631 295.604492 
L 263.95508 298.927993 
L 265.745455 301.360373 
L 267.535829 303.390528 
L 269.027807 304.764833 
L 270.519786 305.84338 
L 272.011765 306.62098 
L 273.205348 307.023815 
L 274.39893 307.230383 
L 275.592513 307.240049 
L 276.786096 307.052788 
L 277.979679 306.669179 
L 279.173262 306.090408 
L 280.665241 305.095278 
L 282.157219 303.802843 
L 283.649198 302.219335 
L 285.439572 299.945754 
L 287.229947 297.279868 
L 289.020321 294.240178 
L 291.109091 290.249699 
L 293.496257 285.149942 
L 296.181818 278.800877 
L 299.165775 271.103319 
L 302.746524 261.176038 
L 307.819251 246.337708 
L 315.57754 223.613304 
L 319.158289 213.816149 
L 322.142246 206.266906 
L 324.827807 200.079842 
L 327.214973 195.144666 
L 329.303743 191.312431 
L 331.392513 187.971907 
L 333.182888 185.524004 
L 334.973262 183.477598 
L 336.465241 182.089291 
L 337.957219 180.996409 
L 339.449198 180.204222 
L 340.642781 179.789589 
L 341.836364 179.571157 
L 343.029947 179.549601 
L 344.223529 179.72499 
L 345.417112 180.096788 
L 346.610695 180.663851 
L 348.102674 181.644554 
L 349.594652 182.922869 
L 351.086631 184.492644 
L 352.877005 186.750365 
L 354.66738 189.401189 
L 356.457754 192.426742 
L 358.546524 196.40205 
L 360.93369 201.486427 
L 363.320856 207.087816 
L 366.304813 214.710934 
L 369.587166 223.729039 
L 374.063102 236.723271 
L 383.91016 265.526248 
L 387.490909 275.166535 
L 390.474866 282.540042 
L 392.862032 287.903735 
L 395.249198 292.719778 
L 397.337968 296.437754 
L 399.128342 299.227912 
L 400.918717 301.63138 
L 402.709091 303.631497 
L 404.20107 304.98006 
L 405.693048 306.032352 
L 407.185027 306.783309 
L 408.37861 307.164638 
L 409.572193 307.3496 
L 410.765775 307.337628 
L 411.959358 307.128763 
L 413.152941 306.72365 
L 414.64492 305.943252 
L 416.136898 304.861984 
L 417.628877 303.485058 
L 419.120856 301.819115 
L 420.91123 299.449882 
L 422.701604 296.692539 
L 424.790374 293.010779 
L 426.879144 288.861669 
L 429.26631 283.598001 
L 431.951872 277.089095 
L 434.935829 269.247329 
L 438.516578 259.19711 
L 444.186096 242.510573 
L 450.750802 223.351743 
L 454.331551 213.579907 
L 457.315508 206.059094 
L 460.00107 199.902841 
L 462.388235 194.998807 
L 464.477005 191.196407 
L 466.565775 187.887837 
L 468.35615 185.468781 
L 470.146524 183.452358 
L 471.638503 182.089755 
L 473.130481 181.023097 
L 474.62246 180.257527 
L 475.816043 179.864387 
L 477.009626 179.66755 
L 478.203209 179.667627 
L 479.396791 179.864621 
L 480.590374 180.257927 
L 481.783957 180.846335 
L 483.275936 181.853391 
L 484.767914 183.157576 
L 486.259893 184.752613 
L 488.050267 187.039675 
L 489.840642 189.718586 
L 491.631016 192.770776 
L 493.719786 196.775084 
L 496.106952 201.889531 
L 498.792513 208.253545 
L 501.776471 215.965559 
L 505.357219 225.906945 
L 510.429947 240.758803 
L 518.188235 263.488823 
L 521.768984 273.282606 
L 524.752941 280.826384 
L 527.438503 287.006636 
L 529.825668 291.934397 
L 531.914439 295.759206 
L 534.003209 299.091535 
L 535.793583 301.531885 
L 537.583957 303.570325 
L 539.075936 304.951732 
L 540.567914 306.037525 
L 542.059893 306.822479 
L 543.253476 307.231253 
L 544.447059 307.443788 
L 545.640642 307.459432 
L 546.834225 307.278141 
L 548.027807 306.900475 
L 549.22139 306.327602 
L 550.713369 305.339753 
L 552.205348 304.054467 
L 553.697326 302.477939 
L 555.487701 300.212464 
L 557.278075 297.554338 
L 559.068449 294.522007 
L 561.157219 290.53954 
L 563.544385 285.44809 
L 566.229947 279.107164 
L 569.213904 271.417007 
L 572.794652 261.496132 
L 577.86738 246.661946 
L 585.625668 223.932359 
L 589.206417 214.128251 
L 592.190374 206.571182 
L 594.875936 200.375627 
L 597.263102 195.431862 
L 599.351872 191.591394 
L 601.440642 188.242046 
L 603.231016 185.786174 
L 605.02139 183.731483 
L 606.513369 182.336071 
L 608.005348 181.235939 
L 609.497326 180.436389 
L 610.690909 180.015811 
L 611.884492 179.791403 
L 613.078075 179.76386 
L 614.271658 179.93327 
L 615.465241 180.299112 
L 616.658824 180.860264 
L 618.150802 181.833666 
L 619.642781 183.104813 
L 621.134759 184.667585 
L 622.925134 186.917171 
L 624.715508 189.560204 
L 626.505882 192.578362 
L 628.594652 196.545616 
L 630.981818 201.621634 
L 633.368984 207.215664 
L 636.352941 214.831129 
L 639.635294 223.842956 
L 644.11123 236.832492 
L 653.958289 265.641421 
L 657.539037 275.289252 
L 660.522995 282.671035 
L 662.91016 288.04254 
L 665.297326 292.867351 
L 667.386096 296.593696 
L 669.176471 299.391484 
L 670.966845 301.802947 
L 672.757219 303.811369 
L 674.249198 305.167048 
L 675.741176 306.226597 
L 677.233155 306.984917 
L 678.426738 307.372188 
L 679.620321 307.56312 
L 680.813904 307.557126 
L 682.007487 307.354228 
L 683.20107 306.955055 
L 684.394652 306.360839 
L 685.886631 305.346645 
L 687.37861 304.0355 
L 688.870588 302.433725 
L 690.660963 300.138933 
L 692.451337 297.45275 
L 694.241711 294.393815 
L 696.330481 290.382393 
L 698.717647 285.260931 
L 701.403209 278.890608 
L 704.387166 271.173741 
L 707.967914 261.229774 
L 713.040642 246.380716 
L 720.79893 223.670052 
L 724.379679 213.891162 
L 727.363636 206.362446 
L 730.049198 200.197638 
L 732.436364 195.284964 
L 734.525134 191.474291 
L 736.613904 188.156863 
L 738.404278 185.729814 
L 740.194652 183.705085 
L 741.686631 182.335362 
L 743.17861 181.261442 
L 744.670588 180.488503 
L 745.864171 180.089413 
L 747.057754 179.886599 
L 748.251337 179.880689 
L 749.44492 180.071704 
L 750.638503 180.459058 
L 751.832086 181.041561 
L 753.324064 182.041327 
L 754.816043 183.338357 
L 756.308021 184.926408 
L 758.098396 187.205358 
L 759.88877 189.876504 
L 761.679144 192.921331 
L 763.767914 196.917626 
L 766.15508 202.023767 
L 768.840642 208.379643 
L 771.824599 216.08426 
L 775.405348 226.019249 
L 780.478075 240.866978 
L 788.236364 263.602203 
L 791.817112 273.402947 
L 794.80107 280.954554 
L 797.486631 287.143299 
L 799.873797 292.079649 
L 801.962567 295.912689 
L 804.051337 299.253837 
L 805.841711 301.70215 
L 807.632086 303.748869 
L 809.124064 305.137374 
L 810.616043 306.23041 
L 812.108021 307.022717 
L 813.301604 307.437428 
L 814.495187 307.65593 
L 815.68877 307.677552 
L 816.882353 307.50223 
L 818.075936 307.130508 
L 819.269519 306.563535 
L 820.761497 305.582972 
L 822.253476 304.304837 
L 823.745455 302.735293 
L 825.535829 300.477932 
L 827.326203 297.827574 
L 829.116578 294.802611 
L 831.205348 290.828166 
L 833.592513 285.745037 
L 835.979679 280.145205 
L 838.963636 272.524508 
L 842.245989 263.509728 
L 846.721925 250.52122 
L 856.568984 221.735854 
L 860.149733 212.103627 
L 863.13369 204.737451 
L 865.520856 199.379989 
L 867.908021 194.57047 
L 869.996791 190.858418 
L 871.787166 188.073478 
L 873.57754 185.675341 
L 875.367914 183.680649 
L 876.859893 182.336667 
L 878.351872 181.289 
L 879.84385 180.542699 
L 881.037433 180.165112 
L 882.231016 179.983899 
L 883.424599 179.999622 
L 884.618182 180.212236 
L 885.811765 180.621088 
L 887.303743 181.40614 
L 888.795722 182.492028 
L 890.287701 183.873528 
L 891.779679 185.543992 
L 893.570053 187.918562 
L 895.360428 190.68113 
L 897.449198 194.368824 
L 899.537968 198.52367 
L 901.925134 203.79362 
L 904.610695 210.309213 
L 907.594652 218.15789 
L 911.175401 228.215627 
L 916.84492 244.912232 
L 923.409626 264.079851 
L 926.990374 273.85523 
L 929.974332 281.378371 
L 932.659893 287.536275 
L 935.047059 292.441458 
L 937.135829 296.244643 
L 939.224599 299.553818 
L 941.014973 301.973269 
L 942.805348 303.989991 
L 944.297326 305.352782 
L 945.789305 306.419585 
L 947.281283 307.185266 
L 948.474866 307.578479 
L 949.668449 307.775379 
L 950.862032 307.775363 
L 952.055615 307.578434 
L 953.249198 307.1852 
L 954.442781 306.596879 
L 955.934759 305.589959 
L 957.426738 304.285952 
L 958.918717 302.691146 
L 960.709091 300.404443 
L 962.499465 297.726 
L 964.28984 294.674402 
L 966.37861 290.670962 
L 968.765775 285.557769 
L 971.451337 279.195539 
L 974.435294 271.486014 
L 978.016043 261.548379 
L 983.08877 246.703355 
L 990.847059 223.987339 
L 994.427807 214.201423 
L 996.218182 209.601211 
L 996.218182 209.601211 
" style="fill:none;stroke:#55a868;stroke-linecap:round;stroke-width:1.4;"/>
   </g>
   <g id="patch_3">
    <path d="M 144 320.4 
L 144 43.2 
" style="fill:none;"/>
   </g>
   <g id="patch_4">
    <path d="M 1036.8 320.4 
L 1036.8 43.2 
" style="fill:none;"/>
   </g>
   <g id="patch_5">
    <path d="M 144 320.4 
L 1036.8 320.4 
" style="fill:none;"/>
   </g>
   <g id="patch_6">
    <path d="M 144 43.2 
L 1036.8 43.2 
" style="fill:none;"/>
   </g>
   <g id="legend_1">
    <g id="line2d_35">
     <path d="M 1002.75125 53.3975 
L 1018.75125 53.3975 
" style="fill:none;stroke:#4c72b0;stroke-linecap:round;stroke-width:1.4;"/>
    </g>
    <g id="line2d_36"/>
    <g id="text_17">
     <!-- a -->
     <defs>
      <path d="M 20.21875 -0.984375 
Q 12.25 -0.984375 8.25 3.21875 
Q 4.25 7.421875 4.25 14.75 
Q 4.25 19.96875 6.21875 23.3125 
Q 8.203125 26.65625 11.390625 28.5625 
Q 14.59375 30.46875 18.6875 31.203125 
Q 22.796875 31.9375 27.046875 32.03125 
L 38.921875 32.234375 
L 38.921875 35.109375 
Q 38.921875 38.375 38.234375 40.671875 
Q 37.546875 42.96875 36.125 44.375 
Q 34.71875 45.796875 32.59375 46.453125 
Q 30.46875 47.125 27.59375 47.125 
Q 25.046875 47.125 23 46.75 
Q 20.953125 46.390625 19.4375 45.4375 
Q 17.921875 44.484375 16.984375 42.84375 
Q 16.0625 41.21875 15.765625 38.71875 
L 6.59375 39.546875 
Q 7.078125 42.671875 8.4375 45.28125 
Q 9.8125 47.90625 12.328125 49.796875 
Q 14.84375 51.703125 18.625 52.75 
Q 22.40625 53.8125 27.78125 53.8125 
Q 37.75 53.8125 42.765625 49.234375 
Q 47.796875 44.671875 47.796875 36.03125 
L 47.796875 13.28125 
Q 47.796875 9.375 48.828125 7.390625 
Q 49.859375 5.421875 52.734375 5.421875 
Q 53.46875 5.421875 54.203125 5.515625 
Q 54.9375 5.609375 55.609375 5.765625 
L 55.609375 0.296875 
Q 53.953125 -0.09375 52.3125 -0.28125 
Q 50.6875 -0.484375 48.828125 -0.484375 
Q 46.34375 -0.484375 44.5625 0.171875 
Q 42.78125 0.828125 41.65625 2.171875 
Q 40.53125 3.515625 39.9375 5.484375 
Q 39.359375 7.46875 39.203125 10.109375 
L 38.921875 10.109375 
Q 37.5 7.5625 35.8125 5.515625 
Q 34.125 3.46875 31.875 2.03125 
Q 29.640625 0.59375 26.78125 -0.1875 
Q 23.921875 -0.984375 20.21875 -0.984375 
M 22.21875 5.609375 
Q 26.421875 5.609375 29.5625 7.140625 
Q 32.71875 8.6875 34.78125 11.078125 
Q 36.859375 13.484375 37.890625 16.3125 
Q 38.921875 19.140625 38.921875 21.734375 
L 38.921875 26.078125 
L 29.296875 25.875 
Q 26.078125 25.828125 23.171875 25.40625 
Q 20.265625 25 18.0625 23.78125 
Q 15.875 22.5625 14.578125 20.359375 
Q 13.28125 18.171875 13.28125 14.59375 
Q 13.28125 10.296875 15.59375 7.953125 
Q 17.921875 5.609375 22.21875 5.609375 
" id="LiberationSans-61"/>
     </defs>
     <g style="fill:#262626;" transform="translate(1025.15125 56.1975)scale(0.08 -0.08)">
      <use xlink:href="#LiberationSans-61"/>
     </g>
    </g>
    <g id="line2d_37">
     <path d="M 1002.75125 64.855 
L 1018.75125 64.855 
" style="fill:none;stroke:#55a868;stroke-linecap:round;stroke-width:1.4;"/>
    </g>
    <g id="line2d_38"/>
    <g id="text_18">
     <!-- b -->
     <defs>
      <path d="M 51.421875 26.65625 
Q 51.421875 -0.984375 31.984375 -0.984375 
Q 25.984375 -0.984375 22 1.1875 
Q 18.015625 3.375 15.53125 8.203125 
L 15.4375 8.203125 
Q 15.4375 6.9375 15.359375 5.5625 
Q 15.28125 4.203125 15.203125 3.03125 
Q 15.140625 1.859375 15.0625 1.03125 
Q 14.984375 0.203125 14.9375 0 
L 6.453125 0 
Q 6.5 0.4375 6.546875 1.484375 
Q 6.59375 2.546875 6.640625 4 
Q 6.6875 5.46875 6.703125 7.21875 
Q 6.734375 8.984375 6.734375 10.890625 
L 6.734375 72.46875 
L 15.53125 72.46875 
L 15.53125 51.8125 
Q 15.53125 50.34375 15.5 49 
Q 15.484375 47.65625 15.4375 46.625 
Q 15.375 45.40625 15.328125 44.34375 
L 15.53125 44.34375 
Q 17.96875 49.421875 22 51.609375 
Q 26.03125 53.8125 31.984375 53.8125 
Q 42 53.8125 46.703125 47.0625 
Q 51.421875 40.328125 51.421875 26.65625 
M 42.1875 26.375 
Q 42.1875 31.84375 41.5 35.75 
Q 40.828125 39.65625 39.3125 42.15625 
Q 37.796875 44.671875 35.453125 45.84375 
Q 33.109375 47.015625 29.734375 47.015625 
Q 26.265625 47.015625 23.609375 45.890625 
Q 20.953125 44.78125 19.171875 42.28125 
Q 17.390625 39.796875 16.453125 35.734375 
Q 15.53125 31.6875 15.53125 25.828125 
Q 15.53125 20.171875 16.453125 16.3125 
Q 17.390625 12.453125 19.171875 10.03125 
Q 20.953125 7.625 23.578125 6.5625 
Q 26.21875 5.515625 29.640625 5.515625 
Q 32.859375 5.515625 35.203125 6.640625 
Q 37.546875 7.765625 39.109375 10.25 
Q 40.671875 12.75 41.421875 16.71875 
Q 42.1875 20.703125 42.1875 26.375 
" id="LiberationSans-62"/>
     </defs>
     <g style="fill:#262626;" transform="translate(1025.15125 67.655)scale(0.08 -0.08)">
      <use xlink:href="#LiberationSans-62"/>
     </g>
    </g>
   </g>
  </g>
 </g>
 <defs>
  <clipPath id="pf67fcc19c6">
   <rect height="277.2" width="892.8" x="144" y="43.2"/>
  </clipPath>
 </defs>
</svg>
