<?xml version="1.0" encoding="utf-8" standalone="no"?>
<!DOCTYPE svg PUBLIC "-//W3C//DTD SVG 1.1//EN"
  "http://www.w3.org/Graphics/SVG/1.1/DTD/svg11.dtd">
<!-- Created with matplotlib (http://matplotlib.org/) -->
<svg height="360pt" version="1.1" viewBox="0 0 1152 360" width="1152pt" xmlns="http://www.w3.org/2000/svg" xmlns:xlink="http://www.w3.org/1999/xlink">
 <defs>
  <style type="text/css">
*{stroke-linecap:butt;stroke-linejoin:round;}
  </style>
 </defs>
 <g id="figure_1">
  <g id="patch_1">
   <path d="M 0 360 
L 1152 360 
L 1152 0 
L 0 0 
z
" style="fill:#ffffff;"/>
  </g>
  <g id="axes_1">
   <g id="patch_2">
    <path d="M 144 320.4 
L 1036.8 320.4 
L 1036.8 43.2 
L 144 43.2 
z
" style="fill:#eaeaf2;"/>
   </g>
   <g id="matplotlib.axis_1">
    <g id="xtick_1">
     <g id="line2d_1">
      <path clip-path="url(#pa152a09ec5)" d="M 184.581818 320.4 
L 184.581818 43.2 
" style="fill:none;stroke:#ffffff;stroke-linecap:round;stroke-width:0.8;"/>
     </g>
     <g id="line2d_2"/>
     <g id="text_1">
      <!-- 0 -->
      <defs>
       <path d="M 51.703125 34.421875 
Q 51.703125 24.515625 49.828125 17.75 
Q 47.953125 10.984375 44.703125 6.8125 
Q 41.453125 2.640625 37.0625 0.828125 
Q 32.671875 -0.984375 27.6875 -0.984375 
Q 22.65625 -0.984375 18.3125 0.828125 
Q 13.96875 2.640625 10.765625 6.78125 
Q 7.5625 10.9375 5.734375 17.703125 
Q 3.90625 24.46875 3.90625 34.421875 
Q 3.90625 44.828125 5.734375 51.640625 
Q 7.5625 58.453125 10.78125 62.5 
Q 14.015625 66.546875 18.40625 68.1875 
Q 22.796875 69.828125 27.984375 69.828125 
Q 32.90625 69.828125 37.21875 68.1875 
Q 41.546875 66.546875 44.765625 62.5 
Q 48 58.453125 49.84375 51.640625 
Q 51.703125 44.828125 51.703125 34.421875 
M 42.78125 34.421875 
Q 42.78125 42.625 41.796875 48.0625 
Q 40.828125 53.515625 38.921875 56.765625 
Q 37.015625 60.015625 34.25 61.359375 
Q 31.5 62.703125 27.984375 62.703125 
Q 24.265625 62.703125 21.4375 61.328125 
Q 18.609375 59.96875 16.671875 56.71875 
Q 14.75 53.46875 13.765625 48.015625 
Q 12.796875 42.578125 12.796875 34.421875 
Q 12.796875 26.515625 13.796875 21.09375 
Q 14.796875 15.671875 16.71875 12.375 
Q 18.65625 9.078125 21.4375 7.640625 
Q 24.21875 6.203125 27.78125 6.203125 
Q 31.25 6.203125 34.03125 7.640625 
Q 36.8125 9.078125 38.734375 12.375 
Q 40.671875 15.671875 41.71875 21.09375 
Q 42.78125 26.515625 42.78125 34.421875 
" id="LiberationSans-30"/>
      </defs>
      <g style="fill:#262626;" transform="translate(182.357443 331.7975)scale(0.08 -0.08)">
       <use xlink:href="#LiberationSans-30"/>
      </g>
     </g>
    </g>
    <g id="xtick_2">
     <g id="line2d_3">
      <path clip-path="url(#pa152a09ec5)" d="M 333.889464 320.4 
L 333.889464 43.2 
" style="fill:none;stroke:#ffffff;stroke-linecap:round;stroke-width:0.8;"/>
     </g>
     <g id="line2d_4"/>
     <g id="text_2">
      <!-- 500 -->
      <defs>
       <path d="M 51.421875 22.40625 
Q 51.421875 17.234375 49.859375 12.9375 
Q 48.296875 8.640625 45.21875 5.53125 
Q 42.140625 2.4375 37.578125 0.71875 
Q 33.015625 -0.984375 27 -0.984375 
Q 21.578125 -0.984375 17.546875 0.28125 
Q 13.53125 1.5625 10.734375 3.78125 
Q 7.953125 6 6.3125 8.984375 
Q 4.6875 11.96875 4 15.375 
L 12.890625 16.40625 
Q 13.421875 14.453125 14.390625 12.625 
Q 15.375 10.796875 17.0625 9.34375 
Q 18.75 7.90625 21.21875 7.046875 
Q 23.6875 6.203125 27.203125 6.203125 
Q 30.609375 6.203125 33.390625 7.25 
Q 36.1875 8.296875 38.15625 10.34375 
Q 40.140625 12.40625 41.203125 15.375 
Q 42.28125 18.359375 42.28125 22.21875 
Q 42.28125 25.390625 41.25 28.046875 
Q 40.234375 30.71875 38.328125 32.640625 
Q 36.421875 34.578125 33.65625 35.640625 
Q 30.90625 36.71875 27.390625 36.71875 
Q 25.203125 36.71875 23.34375 36.328125 
Q 21.484375 35.9375 19.890625 35.25 
Q 18.3125 34.578125 17.015625 33.671875 
Q 15.71875 32.765625 14.59375 31.78125 
L 6 31.78125 
L 8.296875 68.796875 
L 47.40625 68.796875 
L 47.40625 61.328125 
L 16.3125 61.328125 
L 14.984375 39.5 
Q 17.328125 41.3125 20.84375 42.59375 
Q 24.359375 43.890625 29.203125 43.890625 
Q 34.328125 43.890625 38.421875 42.328125 
Q 42.53125 40.765625 45.40625 37.90625 
Q 48.296875 35.0625 49.859375 31.109375 
Q 51.421875 27.15625 51.421875 22.40625 
" id="LiberationSans-35"/>
      </defs>
      <g style="fill:#262626;" transform="translate(327.216339 331.7975)scale(0.08 -0.08)">
       <use xlink:href="#LiberationSans-35"/>
       <use x="55.615234" xlink:href="#LiberationSans-30"/>
       <use x="111.230469" xlink:href="#LiberationSans-30"/>
      </g>
     </g>
    </g>
    <g id="xtick_3">
     <g id="line2d_5">
      <path clip-path="url(#pa152a09ec5)" d="M 483.19711 320.4 
L 483.19711 43.2 
" style="fill:none;stroke:#ffffff;stroke-linecap:round;stroke-width:0.8;"/>
     </g>
     <g id="line2d_6"/>
     <g id="text_3">
      <!-- 1000 -->
      <defs>
       <path d="M 7.625 0 
L 7.625 7.46875 
L 25.140625 7.46875 
L 25.140625 60.40625 
L 9.625 49.3125 
L 9.625 57.625 
L 25.875 68.796875 
L 33.984375 68.796875 
L 33.984375 7.46875 
L 50.734375 7.46875 
L 50.734375 0 
z
" id="LiberationSans-31"/>
      </defs>
      <g style="fill:#262626;" transform="translate(474.29961 331.7975)scale(0.08 -0.08)">
       <use xlink:href="#LiberationSans-31"/>
       <use x="55.615234" xlink:href="#LiberationSans-30"/>
       <use x="111.230469" xlink:href="#LiberationSans-30"/>
       <use x="166.845703" xlink:href="#LiberationSans-30"/>
      </g>
     </g>
    </g>
    <g id="xtick_4">
     <g id="line2d_7">
      <path clip-path="url(#pa152a09ec5)" d="M 632.504756 320.4 
L 632.504756 43.2 
" style="fill:none;stroke:#ffffff;stroke-linecap:round;stroke-width:0.8;"/>
     </g>
     <g id="line2d_8"/>
     <g id="text_4">
      <!-- 1500 -->
      <g style="fill:#262626;" transform="translate(623.607256 331.7975)scale(0.08 -0.08)">
       <use xlink:href="#LiberationSans-31"/>
       <use x="55.615234" xlink:href="#LiberationSans-35"/>
       <use x="111.230469" xlink:href="#LiberationSans-30"/>
       <use x="166.845703" xlink:href="#LiberationSans-30"/>
      </g>
     </g>
    </g>
    <g id="xtick_5">
     <g id="line2d_9">
      <path clip-path="url(#pa152a09ec5)" d="M 781.812402 320.4 
L 781.812402 43.2 
" style="fill:none;stroke:#ffffff;stroke-linecap:round;stroke-width:0.8;"/>
     </g>
     <g id="line2d_10"/>
     <g id="text_5">
      <!-- 2000 -->
      <defs>
       <path d="M 5.03125 0 
L 5.03125 6.203125 
Q 7.515625 11.921875 11.109375 16.28125 
Q 14.703125 20.65625 18.65625 24.1875 
Q 22.609375 27.734375 26.484375 30.765625 
Q 30.375 33.796875 33.5 36.8125 
Q 36.625 39.84375 38.546875 43.15625 
Q 40.484375 46.484375 40.484375 50.6875 
Q 40.484375 53.609375 39.59375 55.828125 
Q 38.71875 58.0625 37.0625 59.5625 
Q 35.40625 61.078125 33.078125 61.828125 
Q 30.765625 62.59375 27.9375 62.59375 
Q 25.296875 62.59375 22.96875 61.859375 
Q 20.65625 61.140625 18.84375 59.671875 
Q 17.046875 58.203125 15.890625 56.03125 
Q 14.75 53.859375 14.40625 50.984375 
L 5.421875 51.8125 
Q 5.859375 55.515625 7.46875 58.78125 
Q 9.078125 62.0625 11.90625 64.53125 
Q 14.75 67 18.71875 68.40625 
Q 22.703125 69.828125 27.9375 69.828125 
Q 33.0625 69.828125 37.0625 68.609375 
Q 41.0625 67.390625 43.8125 64.984375 
Q 46.578125 62.59375 48.046875 59.078125 
Q 49.515625 55.5625 49.515625 50.984375 
Q 49.515625 47.515625 48.265625 44.390625 
Q 47.015625 41.265625 44.9375 38.421875 
Q 42.875 35.59375 40.140625 32.953125 
Q 37.40625 30.328125 34.421875 27.8125 
Q 31.453125 25.296875 28.421875 22.828125 
Q 25.390625 20.359375 22.71875 17.859375 
Q 20.0625 15.375 17.96875 12.8125 
Q 15.875 10.25 14.703125 7.46875 
L 50.59375 7.46875 
L 50.59375 0 
z
" id="LiberationSans-32"/>
      </defs>
      <g style="fill:#262626;" transform="translate(772.914902 331.7975)scale(0.08 -0.08)">
       <use xlink:href="#LiberationSans-32"/>
       <use x="55.615234" xlink:href="#LiberationSans-30"/>
       <use x="111.230469" xlink:href="#LiberationSans-30"/>
       <use x="166.845703" xlink:href="#LiberationSans-30"/>
      </g>
     </g>
    </g>
    <g id="xtick_6">
     <g id="line2d_11">
      <path clip-path="url(#pa152a09ec5)" d="M 931.120048 320.4 
L 931.120048 43.2 
" style="fill:none;stroke:#ffffff;stroke-linecap:round;stroke-width:0.8;"/>
     </g>
     <g id="line2d_12"/>
     <g id="text_6">
      <!-- 2500 -->
      <g style="fill:#262626;" transform="translate(922.222548 331.7975)scale(0.08 -0.08)">
       <use xlink:href="#LiberationSans-32"/>
       <use x="55.615234" xlink:href="#LiberationSans-35"/>
       <use x="111.230469" xlink:href="#LiberationSans-30"/>
       <use x="166.845703" xlink:href="#LiberationSans-30"/>
      </g>
     </g>
    </g>
   </g>
   <g id="matplotlib.axis_2">
    <g id="ytick_1">
     <g id="line2d_13">
      <path clip-path="url(#pa152a09ec5)" d="M 144 273.839026 
L 1036.8 273.839026 
" style="fill:none;stroke:#ffffff;stroke-linecap:round;stroke-width:0.8;"/>
     </g>
     <g id="line2d_14"/>
     <g id="text_7">
      <!-- −5000 -->
      <defs>
       <path d="M 4.9375 29.6875 
L 4.9375 36.8125 
L 53.515625 36.8125 
L 53.515625 29.6875 
z
" id="LiberationSans-2212"/>
      </defs>
      <g style="fill:#262626;" transform="translate(115.9325 276.737776)scale(0.08 -0.08)">
       <use xlink:href="#LiberationSans-2212"/>
       <use x="58.398438" xlink:href="#LiberationSans-35"/>
       <use x="114.013672" xlink:href="#LiberationSans-30"/>
       <use x="169.628906" xlink:href="#LiberationSans-30"/>
       <use x="225.244141" xlink:href="#LiberationSans-30"/>
      </g>
     </g>
    </g>
    <g id="ytick_2">
     <g id="line2d_15">
      <path clip-path="url(#pa152a09ec5)" d="M 144 216.150945 
L 1036.8 216.150945 
" style="fill:none;stroke:#ffffff;stroke-linecap:round;stroke-width:0.8;"/>
     </g>
     <g id="line2d_16"/>
     <g id="text_8">
      <!-- 0 -->
      <g style="fill:#262626;" transform="translate(133.95125 219.049695)scale(0.08 -0.08)">
       <use xlink:href="#LiberationSans-30"/>
      </g>
     </g>
    </g>
    <g id="ytick_3">
     <g id="line2d_17">
      <path clip-path="url(#pa152a09ec5)" d="M 144 158.462864 
L 1036.8 158.462864 
" style="fill:none;stroke:#ffffff;stroke-linecap:round;stroke-width:0.8;"/>
     </g>
     <g id="line2d_18"/>
     <g id="text_9">
      <!-- 5000 -->
      <g style="fill:#262626;" transform="translate(120.605 161.361614)scale(0.08 -0.08)">
       <use xlink:href="#LiberationSans-35"/>
       <use x="55.615234" xlink:href="#LiberationSans-30"/>
       <use x="111.230469" xlink:href="#LiberationSans-30"/>
       <use x="166.845703" xlink:href="#LiberationSans-30"/>
      </g>
     </g>
    </g>
    <g id="ytick_4">
     <g id="line2d_19">
      <path clip-path="url(#pa152a09ec5)" d="M 144 100.774782 
L 1036.8 100.774782 
" style="fill:none;stroke:#ffffff;stroke-linecap:round;stroke-width:0.8;"/>
     </g>
     <g id="line2d_20"/>
     <g id="text_10">
      <!-- 10000 -->
      <g style="fill:#262626;" transform="translate(116.15625 103.673532)scale(0.08 -0.08)">
       <use xlink:href="#LiberationSans-31"/>
       <use x="55.615234" xlink:href="#LiberationSans-30"/>
       <use x="111.230469" xlink:href="#LiberationSans-30"/>
       <use x="166.845703" xlink:href="#LiberationSans-30"/>
       <use x="222.460938" xlink:href="#LiberationSans-30"/>
      </g>
     </g>
    </g>
    <g id="ytick_5">
     <g id="line2d_21">
      <path clip-path="url(#pa152a09ec5)" d="M 144 43.086701 
L 1036.8 43.086701 
" style="fill:none;stroke:#ffffff;stroke-linecap:round;stroke-width:0.8;"/>
     </g>
     <g id="line2d_22"/>
     <g id="text_11">
      <!-- 15000 -->
      <g style="fill:#262626;" transform="translate(116.15625 45.985451)scale(0.08 -0.08)">
       <use xlink:href="#LiberationSans-31"/>
       <use x="55.615234" xlink:href="#LiberationSans-35"/>
       <use x="111.230469" xlink:href="#LiberationSans-30"/>
       <use x="166.845703" xlink:href="#LiberationSans-30"/>
       <use x="222.460938" xlink:href="#LiberationSans-30"/>
      </g>
     </g>
    </g>
   </g>
   <g id="line2d_23">
    <path clip-path="url(#pa152a09ec5)" d="M 184.581818 216.150944 
L 186.074895 216.152415 
L 186.37351 217.865931 
L 186.672125 225.184356 
L 186.970741 239.525925 
L 187.567971 281.688067 
L 187.866586 289.33393 
L 188.165202 268.003646 
L 188.762432 151.36596 
L 189.061048 93.050348 
L 189.359663 58.871313 
L 189.658278 55.8 
L 189.956893 81.451582 
L 191.151355 266.414109 
L 191.44997 286.850573 
L 191.748585 288.948343 
L 192.0472 275.339724 
L 192.943046 204.732408 
L 193.241662 192.562288 
L 193.540277 190.991904 
L 193.838892 198.476355 
L 194.734738 236.117251 
L 195.033353 241.767222 
L 195.331969 241.477397 
L 195.630584 236.229628 
L 196.52643 213.147611 
L 196.825045 209.856968 
L 197.12366 210.205496 
L 197.422276 213.545982 
L 198.318122 227.692484 
L 198.616737 229.590076 
L 198.915352 229.250408 
L 199.213967 227.099358 
L 200.109813 218.308491 
L 200.408429 217.063855 
L 200.707044 217.166502 
L 201.005659 218.380059 
L 201.901505 223.60038 
L 202.20012 224.264266 
L 202.498736 224.073145 
L 202.797351 223.210166 
L 203.693197 219.812315 
L 203.991812 219.390315 
L 204.290427 219.467133 
L 204.887658 220.586351 
L 205.484889 221.678767 
L 205.783504 221.847897 
L 206.082119 221.752273 
L 206.67935 221.016739 
L 207.27658 220.223481 
L 207.575196 220.02643 
L 207.873811 220.020927 
L 208.471042 220.399811 
L 209.068272 220.7497 
L 209.665503 220.623479 
L 210.561349 220.105682 
L 211.158579 220.073515 
L 212.35304 220.140295 
L 212.950271 220.024169 
L 214.144732 219.702604 
L 215.637809 219.802843 
L 216.83227 219.562537 
L 217.728116 219.312229 
L 218.623961 219.365071 
L 219.519807 219.439223 
L 221.311499 219.065705 
L 222.50596 219.121166 
L 223.700421 218.825307 
L 224.596267 218.691343 
L 226.089344 218.78879 
L 227.58242 218.502265 
L 228.776881 218.502611 
L 230.867188 218.274951 
L 232.06165 218.181681 
L 233.256111 218.105002 
L 234.151957 218.09471 
L 236.242264 217.863993 
L 238.033955 217.851232 
L 241.020108 217.501758 
L 241.915954 217.633448 
L 245.797953 217.060785 
L 246.992414 217.20877 
L 249.381337 216.835022 
L 250.575798 217.14286 
L 251.471644 217.007889 
L 252.96472 216.758315 
L 253.860566 216.70936 
L 255.652258 216.801782 
L 257.145334 216.705278 
L 258.339795 216.834369 
L 260.728718 217.395727 
L 261.325948 217.578067 
L 261.923179 218.017062 
L 262.520409 218.780541 
L 263.11764 219.935814 
L 263.714871 221.961035 
L 264.013486 223.56774 
L 264.312101 225.811922 
L 264.610716 228.917202 
L 264.909332 233.24277 
L 265.207947 239.389781 
L 266.103793 267.261778 
L 266.402408 264.112931 
L 266.701023 239.591112 
L 267.596869 97.245425 
L 267.895485 77.851846 
L 268.1941 88.947572 
L 268.492715 126.521896 
L 269.388561 274.292686 
L 269.687176 297.452373 
L 269.985792 300.24863 
L 270.284407 285.78369 
L 271.180253 211.238355 
L 271.478868 200.585662 
L 271.777483 204.052831 
L 272.076099 220.972723 
L 272.673329 269.563417 
L 272.971945 275.095704 
L 273.27056 251.922632 
L 274.166406 96.883144 
L 274.465021 75.910065 
L 274.763636 87.785734 
L 275.062252 127.696079 
L 275.958098 282.147841 
L 276.256713 305.727152 
L 276.555328 307.8 
L 276.853943 291.826863 
L 277.749789 215.440696 
L 278.048405 207.552963 
L 278.34702 214.897971 
L 278.94425 246.707976 
L 279.242866 242.64235 
L 279.541481 214.615219 
L 280.138712 127.606432 
L 280.437327 100.907811 
L 280.735942 100.141367 
L 281.034557 125.404247 
L 282.229019 288.173246 
L 282.527634 298.349192 
L 282.826249 291.523423 
L 283.42348 248.23371 
L 283.722095 226.757856 
L 284.02071 214.547666 
L 284.319326 215.654185 
L 284.617941 229.448625 
L 284.916556 248.540726 
L 285.215172 258.197711 
L 285.513787 244.452949 
L 286.111017 154.398738 
L 286.409633 108.729622 
L 286.708248 85.058241 
L 287.006863 91.163948 
L 287.305479 124.542733 
L 288.201325 271.149031 
L 288.49994 297.026289 
L 288.798555 302.605765 
L 289.09717 290.023764 
L 290.291632 195.900813 
L 290.590247 193.947379 
L 290.888862 205.008169 
L 291.486093 252.979478 
L 291.784708 278.861005 
L 292.083323 293.660536 
L 292.381939 284.373101 
L 292.680554 244.892301 
L 293.5764 73.512549 
L 293.875015 59.622412 
L 294.17363 80.765094 
L 294.770861 190.028513 
L 295.368092 288.360847 
L 295.666707 306.741539 
L 295.965322 301.988272 
L 296.263937 278.935307 
L 297.159783 186.079994 
L 297.458399 172.612481 
L 297.757014 173.014797 
L 298.055629 184.823663 
L 298.951475 235.812658 
L 299.25009 242.368678 
L 299.548706 240.8111 
L 299.847321 232.784034 
L 300.743167 201.584474 
L 301.041782 197.836248 
L 301.340397 199.012854 
L 301.639013 204.086521 
L 302.534859 223.423474 
L 302.833474 225.774875 
L 303.132089 225.181345 
L 303.430704 222.324124 
L 304.32655 211.733815 
L 304.625166 210.699098 
L 304.923781 211.371222 
L 305.521011 215.972391 
L 306.118242 220.356233 
L 306.416857 221.174735 
L 306.715473 220.955381 
L 307.014088 219.890921 
L 307.909934 215.892035 
L 308.208549 215.435392 
L 308.507164 215.609058 
L 309.104395 217.183809 
L 309.701626 218.706954 
L 310.000241 219.015008 
L 310.298856 218.982772 
L 310.597471 218.667772 
L 311.493317 217.237724 
L 311.791933 217.019515 
L 312.090548 217.07014 
L 312.687778 217.753543 
L 313.285009 218.487358 
L 313.583624 218.601142 
L 313.88224 218.540155 
L 315.375316 217.628867 
L 315.972547 217.824003 
L 316.868393 218.189157 
L 317.764238 218.267025 
L 319.257315 217.916743 
L 322.840698 218.197857 
L 327.021312 218.1302 
L 327.917158 218.154717 
L 328.813004 218.064089 
L 330.604696 218.059128 
L 331.500542 217.967889 
L 333.292234 218.019773 
L 334.188079 218.098172 
L 336.875617 217.901847 
L 337.771463 218.039191 
L 340.459001 217.776364 
L 342.250692 217.85234 
L 343.743769 217.690305 
L 344.93823 217.76793 
L 349.417459 217.635525 
L 350.01469 217.465403 
L 351.209151 217.486805 
L 353.000843 217.59332 
L 354.195304 217.388274 
L 354.792535 217.423579 
L 355.68838 217.503765 
L 357.181457 217.268555 
L 361.362071 217.306541 
L 362.855148 217.119589 
L 364.945455 217.11137 
L 366.139916 216.945797 
L 367.632992 217.18384 
L 368.827453 216.944014 
L 370.619145 217.011507 
L 372.112222 216.701605 
L 372.709452 216.743615 
L 373.605298 216.920273 
L 374.501144 216.816955 
L 375.39699 216.738415 
L 377.188682 216.666554 
L 379.876219 216.495069 
L 382.563757 216.456914 
L 383.459603 216.6811 
L 384.056833 216.618107 
L 385.54991 216.247105 
L 386.744371 216.303656 
L 394.508368 216.442781 
L 395.404214 216.78384 
L 396.897291 217.664553 
L 397.494521 218.352518 
L 398.091752 219.428574 
L 398.688983 221.23923 
L 399.286213 224.451152 
L 399.584828 226.93159 
L 399.883444 230.407747 
L 400.182059 235.311118 
L 400.77929 251.185032 
L 401.077905 259.684102 
L 401.37652 260.648531 
L 401.675135 244.543057 
L 402.272366 161.188856 
L 402.570981 117.707965 
L 402.869597 92.904974 
L 403.168212 94.891752 
L 403.466827 122.711713 
L 404.362673 259.182331 
L 404.661288 285.695889 
L 404.959904 293.701725 
L 405.258519 284.783148 
L 406.45298 203.718702 
L 406.751595 202.712391 
L 407.050211 214.251357 
L 407.647441 256.610827 
L 407.946057 266.424723 
L 408.244672 253.043396 
L 408.841902 167.18634 
L 409.140518 123.154527 
L 409.439133 99.003758 
L 409.737748 102.23106 
L 410.036364 130.857386 
L 410.93221 264.050282 
L 411.230825 288.824544 
L 411.52944 295.426022 
L 411.828055 285.736847 
L 412.723901 222.037241 
L 413.022517 212.925489 
L 413.321132 216.610941 
L 413.918362 243.241499 
L 414.216978 241.616541 
L 414.515593 218.522017 
L 415.411439 112.119143 
L 415.710054 108.032635 
L 416.008669 128.18412 
L 417.203131 278.665557 
L 417.501746 290.345433 
L 417.800361 286.233657 
L 418.397592 248.991039 
L 418.696207 229.304174 
L 418.994822 217.418214 
L 419.293438 217.319279 
L 419.592053 229.118764 
L 419.890668 246.585446 
L 420.189284 256.245431 
L 420.487899 244.544096 
L 421.085129 160.762426 
L 421.383745 116.997363 
L 421.68236 93.304176 
L 421.980975 97.449641 
L 422.279591 127.5214 
L 423.175436 264.628201 
L 423.474052 289.628139 
L 423.772667 295.739268 
L 424.071282 284.741843 
L 425.265744 196.719522 
L 425.564359 194.336197 
L 425.862974 204.298467 
L 426.460205 249.330937 
L 426.75882 274.00586 
L 427.057435 288.222973 
L 427.356051 279.797513 
L 427.654666 243.005093 
L 428.550512 83.423361 
L 428.849127 70.780441 
L 429.147742 90.786668 
L 429.744973 192.540482 
L 430.342203 283.293988 
L 430.640819 299.973458 
L 430.939434 295.231036 
L 431.238049 273.592929 
L 432.133895 187.478007 
L 432.432511 175.259902 
L 432.731126 175.935776 
L 433.029741 187.130725 
L 433.925587 234.431606 
L 434.224202 240.326174 
L 434.522818 238.689448 
L 434.821433 231.100581 
L 435.717279 201.878683 
L 436.015894 198.358325 
L 436.314509 199.412517 
L 436.613125 204.105443 
L 437.50897 222.268697 
L 437.807586 224.590538 
L 438.106201 224.161339 
L 438.404816 221.559076 
L 439.300662 211.53501 
L 439.599278 210.48188 
L 439.897893 211.102799 
L 440.495123 215.562838 
L 441.092354 219.793324 
L 441.390969 220.542819 
L 441.689585 220.25041 
L 442.286815 217.669688 
L 442.884046 215.317903 
L 443.182661 215.018471 
L 443.481276 215.343507 
L 444.078507 217.031287 
L 444.675738 218.554138 
L 444.974353 218.8089 
L 445.272968 218.671903 
L 445.870199 217.628856 
L 446.467429 216.73953 
L 446.766045 216.647064 
L 447.06466 216.790412 
L 448.259121 217.978261 
L 448.557736 218.038349 
L 449.154967 217.769246 
L 450.050813 217.268438 
L 450.349428 217.2729 
L 451.543889 217.799255 
L 452.14112 217.75945 
L 453.036966 217.649208 
L 453.932812 217.755827 
L 454.828657 217.890898 
L 456.620349 217.648735 
L 458.710656 217.921265 
L 459.606502 217.797282 
L 460.800963 217.805347 
L 462.89127 217.781637 
L 465.280193 217.880607 
L 466.176039 217.830037 
L 468.266346 217.634844 
L 469.162191 217.720222 
L 470.058037 217.83636 
L 471.849729 217.643243 
L 473.342806 217.731137 
L 474.537267 217.602389 
L 479.315111 217.535147 
L 480.808188 217.475959 
L 482.002649 217.540824 
L 483.19711 217.485028 
L 484.391571 217.309714 
L 485.884648 217.455296 
L 489.169416 217.291722 
L 491.558338 217.205488 
L 492.454184 217.235062 
L 493.648645 217.212965 
L 495.440337 217.106039 
L 498.42649 217.099176 
L 499.322336 217.143103 
L 500.815412 216.972901 
L 502.308489 217.000039 
L 505.294642 216.83271 
L 506.190488 216.809546 
L 507.086334 216.70704 
L 508.280795 216.818195 
L 510.371102 216.636337 
L 514.253101 216.6643 
L 515.148946 216.633145 
L 516.642023 216.409459 
L 518.135099 216.423189 
L 519.329561 216.275438 
L 521.419868 216.406741 
L 523.80879 216.197314 
L 525.301866 216.239852 
L 526.794943 216.091317 
L 527.989404 216.392363 
L 529.183865 216.595164 
L 530.676942 216.791789 
L 531.572787 217.237802 
L 532.468633 217.98733 
L 533.065864 218.803051 
L 533.663095 220.147483 
L 534.260325 222.528882 
L 534.55894 224.459898 
L 534.857556 227.230991 
L 535.156171 231.18792 
L 535.454786 236.820354 
L 536.350632 259.796248 
L 536.649247 253.993519 
L 536.947863 229.205181 
L 537.843709 109.497566 
L 538.142324 98.28958 
L 538.440939 112.905316 
L 539.03817 194.305622 
L 539.6354 270.863244 
L 539.934016 286.752042 
L 540.232631 285.496172 
L 540.531246 270.527615 
L 541.427092 207.306751 
L 541.725707 200.244033 
L 542.024323 205.173976 
L 542.621553 242.028088 
L 542.920169 258.902313 
L 543.218784 258.919273 
L 543.517399 235.599674 
L 544.413245 115.972476 
L 544.71186 105.795145 
L 545.010476 121.308278 
L 545.607706 201.861376 
L 546.204937 275.316649 
L 546.503552 289.944962 
L 546.802167 287.965915 
L 547.100783 272.95513 
L 547.698013 229.956164 
L 547.996629 215.847976 
L 548.295244 213.123094 
L 548.593859 221.738705 
L 548.892474 235.243854 
L 549.19109 241.179727 
L 549.489705 228.962314 
L 550.684166 114.241834 
L 550.982781 123.483695 
L 551.281397 152.752205 
L 552.177243 266.034752 
L 552.475858 283.931787 
L 552.774473 286.338418 
L 553.073089 275.583745 
L 553.968934 220.852743 
L 554.26755 214.794929 
L 554.566165 220.13943 
L 555.163396 247.500494 
L 555.462011 247.002185 
L 555.760626 225.393729 
L 556.656472 117.814226 
L 556.955087 110.68744 
L 557.253703 127.33749 
L 558.448164 272.125575 
L 558.746779 284.627851 
L 559.045394 281.434816 
L 559.34401 265.893416 
L 560.239856 205.567259 
L 560.538471 198.933014 
L 560.837086 203.138014 
L 561.135701 216.983404 
L 562.031547 276.698048 
L 562.330163 277.346116 
L 562.628778 253.344182 
L 563.524624 107.644394 
L 563.823239 86.193543 
L 564.121854 94.139499 
L 564.42047 127.853683 
L 565.316315 266.546099 
L 565.614931 288.73582 
L 565.913546 291.26648 
L 566.212161 276.738891 
L 567.406623 182.484181 
L 567.705238 178.831833 
L 568.003853 185.711252 
L 569.198314 236.758281 
L 569.49693 237.788244 
L 569.795545 232.789918 
L 570.691391 205.91446 
L 570.990006 201.185041 
L 571.288621 200.599161 
L 571.587237 203.669321 
L 572.483082 220.118004 
L 572.781698 223.133833 
L 573.080313 223.671856 
L 573.378928 221.99094 
L 574.274774 212.86502 
L 574.57339 211.438544 
L 574.872005 211.478453 
L 575.17062 212.766524 
L 576.066466 218.82803 
L 576.365081 219.890736 
L 576.663697 220.063812 
L 576.962312 219.439523 
L 577.858158 216.074061 
L 578.156773 215.510948 
L 578.455388 215.488304 
L 578.754004 215.939017 
L 579.649849 218.146756 
L 579.948465 218.473121 
L 580.24708 218.44325 
L 580.844311 217.673956 
L 581.441541 216.84382 
L 581.740157 216.701262 
L 582.038772 216.763102 
L 582.636002 217.28439 
L 583.233233 217.840467 
L 583.531848 217.950813 
L 584.129079 217.819504 
L 585.024925 217.401276 
L 585.622155 217.486493 
L 586.518001 217.733271 
L 587.413847 217.696732 
L 588.608308 217.549754 
L 589.802769 217.804747 
L 590.698615 217.879938 
L 592.191692 217.705846 
L 593.684768 217.74054 
L 594.580614 217.832437 
L 595.47646 217.668349 
L 596.073691 217.587182 
L 597.865382 217.788317 
L 599.657074 217.630748 
L 603.240458 217.665396 
L 604.434919 217.596504 
L 607.122456 217.628614 
L 608.615533 217.558084 
L 614.886454 217.437435 
L 615.7823 217.432255 
L 616.976761 217.418156 
L 619.962914 217.300822 
L 623.546297 217.267284 
L 625.039374 217.104403 
L 627.428296 217.206704 
L 629.518603 216.984252 
L 631.310295 217.160565 
L 632.206141 217.050578 
L 636.68537 216.944695 
L 637.581216 216.905976 
L 638.775677 216.828584 
L 640.268754 216.806392 
L 644.449368 216.605543 
L 646.24106 216.644649 
L 648.629982 216.549385 
L 649.824443 216.486499 
L 651.31752 216.509719 
L 655.199518 216.344315 
L 656.39398 216.292853 
L 657.887056 216.149332 
L 660.275978 216.158757 
L 661.470439 216.518558 
L 662.366285 216.366011 
L 662.963516 216.256305 
L 663.560747 216.338462 
L 664.755208 216.736151 
L 666.845515 217.093313 
L 667.442745 217.637948 
L 668.039976 218.52669 
L 668.637207 219.864858 
L 669.234437 221.961208 
L 669.533052 223.543453 
L 669.831668 225.772786 
L 670.130283 228.942354 
L 670.428898 233.395297 
L 671.324744 253.488517 
L 671.623359 251.740915 
L 671.921975 234.792618 
L 673.116436 116.448865 
L 673.415051 123.211869 
L 673.713666 149.30765 
L 674.609512 255.738929 
L 674.908128 273.13477 
L 675.206743 275.946718 
L 675.505358 266.220623 
L 676.401204 213.015702 
L 676.699819 205.110462 
L 676.998435 207.349913 
L 677.29705 219.363479 
L 677.894281 254.151584 
L 678.192896 257.798048 
L 678.491511 240.558772 
L 679.387357 128.13197 
L 679.685972 113.421625 
L 679.984588 122.543495 
L 680.283203 151.922189 
L 681.179049 264.553207 
L 681.477664 281.754408 
L 681.776279 283.391827 
L 682.074895 272.014699 
L 682.970741 218.404518 
L 683.269356 213.842856 
L 683.567971 220.408856 
L 684.165202 242.76938 
L 684.463817 235.91742 
L 684.762432 210.058576 
L 685.359663 138.528401 
L 685.658278 119.370766 
L 685.956893 122.155831 
L 686.255509 145.713913 
L 687.151355 255.673165 
L 687.44997 276.385148 
L 687.748585 282.244411 
L 688.0472 274.642621 
L 689.241662 212.618704 
L 689.540277 214.986153 
L 690.137508 240.877672 
L 690.436123 244.955412 
L 690.734738 230.208954 
L 691.630584 130.073751 
L 691.929199 118.298114 
L 692.227815 128.719466 
L 692.825045 196.199061 
L 693.422276 263.090237 
L 693.720891 278.211668 
L 694.019506 278.493532 
L 694.318122 266.371189 
L 695.213967 209.22016 
L 695.512583 201.003901 
L 695.811198 202.987563 
L 696.109813 214.707935 
L 697.005659 272.483126 
L 697.304275 273.715574 
L 697.60289 250.642995 
L 698.498736 110.447573 
L 698.797351 90.325163 
L 699.095966 98.741854 
L 699.394582 132.015993 
L 700.290427 266.479181 
L 700.589043 287.554137 
L 700.887658 289.487495 
L 701.186273 274.913063 
L 702.380734 183.352386 
L 702.67935 180.08228 
L 702.977965 187.023771 
L 704.172426 236.820123 
L 704.471042 237.647947 
L 704.769657 232.579126 
L 705.665503 206.022037 
L 705.964118 201.411063 
L 706.262733 200.87018 
L 706.561349 203.914957 
L 707.457194 219.99221 
L 707.75581 222.844228 
L 708.054425 223.280419 
L 708.35304 221.63557 
L 709.248886 212.882465 
L 709.547502 211.532749 
L 709.846117 211.627876 
L 710.144732 212.960517 
L 711.040578 218.961001 
L 711.339193 219.921461 
L 711.637809 219.98216 
L 711.936424 219.277547 
L 712.83227 215.888165 
L 713.130885 215.394624 
L 713.4295 215.455354 
L 713.728116 215.957164 
L 714.623961 218.017004 
L 714.922577 218.291611 
L 715.221192 218.264082 
L 715.818423 217.652716 
L 716.415653 217.004725 
L 716.714269 216.897966 
L 717.012884 216.949812 
L 717.610114 217.432497 
L 718.207345 217.909439 
L 718.50596 217.978215 
L 719.103191 217.788029 
L 719.999037 217.281157 
L 720.596267 217.275002 
L 722.089344 217.834895 
L 724.776881 217.729602 
L 725.672727 217.701901 
L 726.867188 217.631117 
L 732.839494 217.638501 
L 733.73534 217.503015 
L 734.332571 217.554865 
L 735.527032 217.743251 
L 737.318724 217.586328 
L 738.21457 217.652554 
L 739.707646 217.584505 
L 741.200722 217.513168 
L 747.173028 217.443735 
L 748.068874 217.500558 
L 749.561951 217.27651 
L 752.249488 217.382759 
L 753.742565 217.218558 
L 755.235641 217.232286 
L 761.207947 217.173805 
L 762.103793 217.160414 
L 764.492715 217.027806 
L 768.374714 216.948665 
L 769.27056 216.807418 
L 771.062252 216.857068 
L 771.958098 216.818848 
L 773.749789 216.889784 
L 775.541481 216.66043 
L 780.02071 216.730897 
L 781.215172 216.529547 
L 782.409633 216.603126 
L 783.305479 216.518555 
L 783.902709 216.382237 
L 784.798555 216.491294 
L 785.694401 216.604747 
L 786.590247 216.415348 
L 787.187477 216.26591 
L 788.381939 216.314225 
L 789.875015 216.336552 
L 791.069476 216.130502 
L 792.263937 216.26584 
L 793.159783 216.296112 
L 794.65286 216.209814 
L 796.444551 216.386841 
L 798.534859 216.211679 
L 802.118242 217.366479 
L 803.014088 218.105648 
L 803.611318 218.904686 
L 804.208549 220.229677 
L 804.507164 221.310221 
L 804.80578 222.875079 
L 805.104395 225.146167 
L 805.40301 228.405509 
L 806.000241 239.066728 
L 806.298856 245.527447 
L 806.597471 247.932578 
L 806.896087 239.316171 
L 807.194702 216.280832 
L 807.791933 150.946568 
L 808.090548 129.97845 
L 808.389163 127.521169 
L 808.687778 144.163373 
L 809.88224 263.468325 
L 810.180855 271.84498 
L 810.47947 267.644019 
L 811.076701 236.420114 
L 811.673931 208.948946 
L 811.972547 206.730747 
L 812.271162 213.837711 
L 813.167008 253.793803 
L 813.465623 245.407455 
L 813.764238 218.324736 
L 814.361469 144.884358 
L 814.660084 123.924086 
L 814.9587 124.448009 
L 815.257315 145.69453 
L 816.451776 273.946326 
L 816.750391 280.650143 
L 817.049007 274.013475 
L 818.243468 214.224798 
L 818.542083 215.873207 
L 819.139314 235.676168 
L 819.437929 235.152476 
L 819.736544 218.567891 
L 820.63239 138.791805 
L 820.931005 135.117189 
L 821.229621 149.63751 
L 822.424082 262.574275 
L 822.722697 271.866556 
L 823.021312 269.352855 
L 823.319928 257.807278 
L 823.917158 226.97106 
L 824.215774 217.801978 
L 824.514389 217.306518 
L 824.813004 225.398829 
L 825.11162 237.446731 
L 825.410235 243.437984 
L 825.70885 233.950833 
L 826.306081 173.349965 
L 826.604696 142.813587 
L 826.903311 127.269072 
L 827.201927 131.809932 
L 827.500542 154.616222 
L 828.396388 253.290763 
L 828.695003 270.547229 
L 828.993618 274.223344 
L 829.292234 265.820037 
L 830.486695 204.727505 
L 830.78531 204.522528 
L 831.083925 213.495355 
L 832.278387 272.264603 
L 832.577002 256.316156 
L 833.174232 169.906564 
L 833.472848 126.456016 
L 833.771463 102.031459 
L 834.070078 103.587307 
L 834.368694 129.531368 
L 835.264539 254.870724 
L 835.563155 278.228051 
L 835.86177 284.040702 
L 836.160385 273.81722 
L 837.354846 187.938127 
L 837.653462 182.615363 
L 837.952077 187.107534 
L 839.146538 233.846302 
L 839.445154 235.971878 
L 839.743769 232.382179 
L 840.93823 202.919491 
L 841.236845 201.567167 
L 841.535461 203.678551 
L 842.729922 221.224819 
L 843.028537 222.047521 
L 843.327152 220.847782 
L 844.521613 211.310673 
L 844.820229 211.166106 
L 845.118844 212.215868 
L 846.313305 219.003055 
L 846.611921 219.28215 
L 846.910536 218.82443 
L 848.104997 215.408212 
L 848.403612 215.373517 
L 848.702228 215.731205 
L 849.896689 217.848082 
L 850.195304 217.887206 
L 850.493919 217.689152 
L 851.389765 216.762186 
L 851.68838 216.646374 
L 852.285611 216.781442 
L 853.480072 217.423786 
L 854.077303 217.406618 
L 855.271764 217.149447 
L 855.868995 217.239631 
L 857.063456 217.482317 
L 857.959302 217.488616 
L 859.452378 217.249008 
L 862.438531 217.407091 
L 863.931607 217.403953 
L 865.424684 217.463753 
L 866.32053 217.46651 
L 867.813606 217.303276 
L 868.709452 217.353718 
L 869.605298 217.442823 
L 871.99422 217.443896 
L 873.188682 217.2965 
L 874.383143 217.365764 
L 875.577604 217.388804 
L 877.966526 217.27996 
L 879.160987 217.329593 
L 880.355449 217.273672 
L 881.251294 217.320525 
L 882.744371 217.168331 
L 884.536063 217.206129 
L 886.327754 217.167491 
L 887.820831 217.152247 
L 903.050211 216.950609 
L 903.946057 216.906357 
L 905.140518 216.680901 
L 905.737748 216.720589 
L 906.633594 216.898669 
L 907.52944 216.812244 
L 909.022517 216.572437 
L 909.918362 216.697688 
L 910.814208 216.86871 
L 911.710054 216.756085 
L 912.6059 216.583266 
L 915.890668 216.572419 
L 917.980975 216.463586 
L 919.772667 216.478635 
L 921.564359 216.278471 
L 924.550512 216.30581 
L 930.821433 216.240669 
L 931.717279 216.193304 
L 936.793739 216.704417 
L 937.390969 216.929777 
L 937.9882 217.361933 
L 938.58543 218.150206 
L 939.182661 219.515222 
L 939.779892 221.890136 
L 940.078507 223.775371 
L 940.377122 226.517678 
L 940.675738 230.436245 
L 941.571583 247.781897 
L 941.870199 245.264043 
L 942.168814 229.2586 
L 943.06466 140.992951 
L 943.363275 130.098788 
L 943.66189 138.172465 
L 944.259121 195.362353 
L 944.856352 253.540321 
L 945.154967 267.044986 
L 945.453582 267.931305 
L 945.752197 258.331893 
L 946.648043 212.503847 
L 946.946659 206.769905 
L 947.245274 210.048354 
L 947.543889 221.6409 
L 948.14112 251.322676 
L 948.439735 252.031663 
L 948.73835 234.106014 
L 949.634196 135.765373 
L 949.932812 125.949399 
L 950.231427 137.123581 
L 950.828657 201.398026 
L 951.425888 262.115885 
L 951.724503 274.811763 
L 952.023119 273.884831 
L 952.321734 262.073658 
L 953.21758 214.624588 
L 953.516195 211.479953 
L 953.81481 217.573868 
L 954.113426 228.247559 
L 954.412041 233.93145 
L 954.710656 226.301578 
L 955.307887 176.504465 
L 955.606502 152.34135 
L 955.905117 141.330426 
L 956.203733 147.33414 
L 956.502348 168.34287 
L 957.398194 252.043085 
L 957.696809 265.74435 
L 957.995424 268.032721 
L 958.29404 260.51008 
L 959.189886 220.49983 
L 959.488501 216.242822 
L 959.787116 220.563714 
L 960.384347 239.799597 
L 960.682962 236.686864 
L 960.981577 217.219988 
L 961.877423 134.284866 
L 962.176039 132.096987 
L 962.474654 148.658428 
L 963.669115 265.216043 
L 963.96773 273.236647 
L 964.266346 268.798357 
L 964.863576 236.769819 
L 965.460807 207.457905 
L 965.759422 203.834424 
L 966.058037 209.118814 
L 966.356653 221.986867 
L 966.953883 256.940226 
L 967.252498 265.48037 
L 967.551114 256.239893 
L 967.849729 226.861545 
L 968.44696 144.782597 
L 968.745575 118.802308 
L 969.04419 115.101271 
L 969.342806 133.859012 
L 970.537267 268.606256 
L 970.835882 277.119402 
L 971.134497 270.836593 
L 971.731728 231.045892 
L 972.328958 193.925804 
L 972.627574 187.158415 
L 972.926189 189.379637 
L 973.52342 210.895318 
L 974.12065 231.079813 
L 974.419266 234.159087 
L 974.717881 232.008937 
L 975.315111 218.093891 
L 975.912342 205.500744 
L 976.210957 203.488296 
L 976.509573 204.626147 
L 977.106803 212.730503 
L 977.704034 220.112201 
L 978.002649 221.250341 
L 978.301264 220.543858 
L 978.898495 215.936756 
L 979.19711 213.619984 
L 979.495725 212.175521 
L 979.794341 211.910283 
L 980.092956 212.769316 
L 981.287417 219.098033 
L 981.586033 219.475475 
L 981.884648 219.139753 
L 983.079109 215.748895 
L 983.377724 215.561921 
L 983.67634 215.797416 
L 984.27357 217.035862 
L 984.870801 218.11527 
L 985.169416 218.250526 
L 985.468031 218.10251 
L 986.662492 216.758135 
L 986.961108 216.721494 
L 987.259723 216.881149 
L 988.155569 217.717696 
L 988.454184 217.843075 
L 989.051415 217.728414 
L 990.245876 217.185685 
L 990.843107 217.272939 
L 992.037568 217.62266 
L 992.933414 217.470006 
L 993.829259 217.297686 
L 994.725105 217.405892 
L 995.919567 217.608088 
L 996.218182 217.608884 
L 996.218182 217.608884 
" style="fill:none;stroke:#4c72b0;stroke-linecap:round;stroke-width:1.4;"/>
   </g>
   <g id="patch_3">
    <path d="M 144 320.4 
L 144 43.2 
" style="fill:none;"/>
   </g>
   <g id="patch_4">
    <path d="M 1036.8 320.4 
L 1036.8 43.2 
" style="fill:none;"/>
   </g>
   <g id="patch_5">
    <path d="M 144 320.4 
L 1036.8 320.4 
" style="fill:none;"/>
   </g>
   <g id="patch_6">
    <path d="M 144 43.2 
L 1036.8 43.2 
" style="fill:none;"/>
   </g>
  </g>
 </g>
 <defs>
  <clipPath id="pa152a09ec5">
   <rect height="277.2" width="892.8" x="144" y="43.2"/>
  </clipPath>
 </defs>
</svg>
