<?xml version="1.0" encoding="utf-8" standalone="no"?>
<!DOCTYPE svg PUBLIC "-//W3C//DTD SVG 1.1//EN"
  "http://www.w3.org/Graphics/SVG/1.1/DTD/svg11.dtd">
<!-- Created with matplotlib (http://matplotlib.org/) -->
<svg height="360pt" version="1.1" viewBox="0 0 1152 360" width="1152pt" xmlns="http://www.w3.org/2000/svg" xmlns:xlink="http://www.w3.org/1999/xlink">
 <defs>
  <style type="text/css">
*{stroke-linecap:butt;stroke-linejoin:round;}
  </style>
 </defs>
 <g id="figure_1">
  <g id="patch_1">
   <path d="M 0 360 
L 1152 360 
L 1152 0 
L 0 0 
z
" style="fill:#ffffff;"/>
  </g>
  <g id="axes_1">
   <g id="patch_2">
    <path d="M 144 320.4 
L 1036.8 320.4 
L 1036.8 43.2 
L 144 43.2 
z
" style="fill:#eaeaf2;"/>
   </g>
   <g id="matplotlib.axis_1">
    <g id="xtick_1">
     <g id="line2d_1">
      <path clip-path="url(#pa42096eecb)" d="M 184.581818 320.4 
L 184.581818 43.2 
" style="fill:none;stroke:#ffffff;stroke-linecap:round;stroke-width:0.8;"/>
     </g>
     <g id="line2d_2"/>
     <g id="text_1">
      <!-- 0.000 -->
      <defs>
       <path d="M 51.703125 34.421875 
Q 51.703125 24.515625 49.828125 17.75 
Q 47.953125 10.984375 44.703125 6.8125 
Q 41.453125 2.640625 37.0625 0.828125 
Q 32.671875 -0.984375 27.6875 -0.984375 
Q 22.65625 -0.984375 18.3125 0.828125 
Q 13.96875 2.640625 10.765625 6.78125 
Q 7.5625 10.9375 5.734375 17.703125 
Q 3.90625 24.46875 3.90625 34.421875 
Q 3.90625 44.828125 5.734375 51.640625 
Q 7.5625 58.453125 10.78125 62.5 
Q 14.015625 66.546875 18.40625 68.1875 
Q 22.796875 69.828125 27.984375 69.828125 
Q 32.90625 69.828125 37.21875 68.1875 
Q 41.546875 66.546875 44.765625 62.5 
Q 48 58.453125 49.84375 51.640625 
Q 51.703125 44.828125 51.703125 34.421875 
M 42.78125 34.421875 
Q 42.78125 42.625 41.796875 48.0625 
Q 40.828125 53.515625 38.921875 56.765625 
Q 37.015625 60.015625 34.25 61.359375 
Q 31.5 62.703125 27.984375 62.703125 
Q 24.265625 62.703125 21.4375 61.328125 
Q 18.609375 59.96875 16.671875 56.71875 
Q 14.75 53.46875 13.765625 48.015625 
Q 12.796875 42.578125 12.796875 34.421875 
Q 12.796875 26.515625 13.796875 21.09375 
Q 14.796875 15.671875 16.71875 12.375 
Q 18.65625 9.078125 21.4375 7.640625 
Q 24.21875 6.203125 27.78125 6.203125 
Q 31.25 6.203125 34.03125 7.640625 
Q 36.8125 9.078125 38.734375 12.375 
Q 40.671875 15.671875 41.71875 21.09375 
Q 42.78125 26.515625 42.78125 34.421875 
" id="LiberationSans-30"/>
       <path d="M 9.125 0 
L 9.125 10.6875 
L 18.65625 10.6875 
L 18.65625 0 
z
" id="LiberationSans-2e"/>
      </defs>
      <g style="fill:#262626;" transform="translate(174.573068 331.7975)scale(0.08 -0.08)">
       <use xlink:href="#LiberationSans-30"/>
       <use x="55.615234" xlink:href="#LiberationSans-2e"/>
       <use x="83.398438" xlink:href="#LiberationSans-30"/>
       <use x="139.013672" xlink:href="#LiberationSans-30"/>
       <use x="194.628906" xlink:href="#LiberationSans-30"/>
      </g>
     </g>
    </g>
    <g id="xtick_2">
     <g id="line2d_3">
      <path clip-path="url(#pa42096eecb)" d="M 311.238448 320.4 
L 311.238448 43.2 
" style="fill:none;stroke:#ffffff;stroke-linecap:round;stroke-width:0.8;"/>
     </g>
     <g id="line2d_4"/>
     <g id="text_2">
      <!-- 0.005 -->
      <defs>
       <path d="M 51.421875 22.40625 
Q 51.421875 17.234375 49.859375 12.9375 
Q 48.296875 8.640625 45.21875 5.53125 
Q 42.140625 2.4375 37.578125 0.71875 
Q 33.015625 -0.984375 27 -0.984375 
Q 21.578125 -0.984375 17.546875 0.28125 
Q 13.53125 1.5625 10.734375 3.78125 
Q 7.953125 6 6.3125 8.984375 
Q 4.6875 11.96875 4 15.375 
L 12.890625 16.40625 
Q 13.421875 14.453125 14.390625 12.625 
Q 15.375 10.796875 17.0625 9.34375 
Q 18.75 7.90625 21.21875 7.046875 
Q 23.6875 6.203125 27.203125 6.203125 
Q 30.609375 6.203125 33.390625 7.25 
Q 36.1875 8.296875 38.15625 10.34375 
Q 40.140625 12.40625 41.203125 15.375 
Q 42.28125 18.359375 42.28125 22.21875 
Q 42.28125 25.390625 41.25 28.046875 
Q 40.234375 30.71875 38.328125 32.640625 
Q 36.421875 34.578125 33.65625 35.640625 
Q 30.90625 36.71875 27.390625 36.71875 
Q 25.203125 36.71875 23.34375 36.328125 
Q 21.484375 35.9375 19.890625 35.25 
Q 18.3125 34.578125 17.015625 33.671875 
Q 15.71875 32.765625 14.59375 31.78125 
L 6 31.78125 
L 8.296875 68.796875 
L 47.40625 68.796875 
L 47.40625 61.328125 
L 16.3125 61.328125 
L 14.984375 39.5 
Q 17.328125 41.3125 20.84375 42.59375 
Q 24.359375 43.890625 29.203125 43.890625 
Q 34.328125 43.890625 38.421875 42.328125 
Q 42.53125 40.765625 45.40625 37.90625 
Q 48.296875 35.0625 49.859375 31.109375 
Q 51.421875 27.15625 51.421875 22.40625 
" id="LiberationSans-35"/>
      </defs>
      <g style="fill:#262626;" transform="translate(301.229698 331.7975)scale(0.08 -0.08)">
       <use xlink:href="#LiberationSans-30"/>
       <use x="55.615234" xlink:href="#LiberationSans-2e"/>
       <use x="83.398438" xlink:href="#LiberationSans-30"/>
       <use x="139.013672" xlink:href="#LiberationSans-30"/>
       <use x="194.628906" xlink:href="#LiberationSans-35"/>
      </g>
     </g>
    </g>
    <g id="xtick_3">
     <g id="line2d_5">
      <path clip-path="url(#pa42096eecb)" d="M 437.895078 320.4 
L 437.895078 43.2 
" style="fill:none;stroke:#ffffff;stroke-linecap:round;stroke-width:0.8;"/>
     </g>
     <g id="line2d_6"/>
     <g id="text_3">
      <!-- 0.010 -->
      <defs>
       <path d="M 7.625 0 
L 7.625 7.46875 
L 25.140625 7.46875 
L 25.140625 60.40625 
L 9.625 49.3125 
L 9.625 57.625 
L 25.875 68.796875 
L 33.984375 68.796875 
L 33.984375 7.46875 
L 50.734375 7.46875 
L 50.734375 0 
z
" id="LiberationSans-31"/>
      </defs>
      <g style="fill:#262626;" transform="translate(427.886328 331.7975)scale(0.08 -0.08)">
       <use xlink:href="#LiberationSans-30"/>
       <use x="55.615234" xlink:href="#LiberationSans-2e"/>
       <use x="83.398438" xlink:href="#LiberationSans-30"/>
       <use x="139.013672" xlink:href="#LiberationSans-31"/>
       <use x="194.628906" xlink:href="#LiberationSans-30"/>
      </g>
     </g>
    </g>
    <g id="xtick_4">
     <g id="line2d_7">
      <path clip-path="url(#pa42096eecb)" d="M 564.551708 320.4 
L 564.551708 43.2 
" style="fill:none;stroke:#ffffff;stroke-linecap:round;stroke-width:0.8;"/>
     </g>
     <g id="line2d_8"/>
     <g id="text_4">
      <!-- 0.015 -->
      <g style="fill:#262626;" transform="translate(554.542958 331.7975)scale(0.08 -0.08)">
       <use xlink:href="#LiberationSans-30"/>
       <use x="55.615234" xlink:href="#LiberationSans-2e"/>
       <use x="83.398438" xlink:href="#LiberationSans-30"/>
       <use x="139.013672" xlink:href="#LiberationSans-31"/>
       <use x="194.628906" xlink:href="#LiberationSans-35"/>
      </g>
     </g>
    </g>
    <g id="xtick_5">
     <g id="line2d_9">
      <path clip-path="url(#pa42096eecb)" d="M 691.208338 320.4 
L 691.208338 43.2 
" style="fill:none;stroke:#ffffff;stroke-linecap:round;stroke-width:0.8;"/>
     </g>
     <g id="line2d_10"/>
     <g id="text_5">
      <!-- 0.020 -->
      <defs>
       <path d="M 5.03125 0 
L 5.03125 6.203125 
Q 7.515625 11.921875 11.109375 16.28125 
Q 14.703125 20.65625 18.65625 24.1875 
Q 22.609375 27.734375 26.484375 30.765625 
Q 30.375 33.796875 33.5 36.8125 
Q 36.625 39.84375 38.546875 43.15625 
Q 40.484375 46.484375 40.484375 50.6875 
Q 40.484375 53.609375 39.59375 55.828125 
Q 38.71875 58.0625 37.0625 59.5625 
Q 35.40625 61.078125 33.078125 61.828125 
Q 30.765625 62.59375 27.9375 62.59375 
Q 25.296875 62.59375 22.96875 61.859375 
Q 20.65625 61.140625 18.84375 59.671875 
Q 17.046875 58.203125 15.890625 56.03125 
Q 14.75 53.859375 14.40625 50.984375 
L 5.421875 51.8125 
Q 5.859375 55.515625 7.46875 58.78125 
Q 9.078125 62.0625 11.90625 64.53125 
Q 14.75 67 18.71875 68.40625 
Q 22.703125 69.828125 27.9375 69.828125 
Q 33.0625 69.828125 37.0625 68.609375 
Q 41.0625 67.390625 43.8125 64.984375 
Q 46.578125 62.59375 48.046875 59.078125 
Q 49.515625 55.5625 49.515625 50.984375 
Q 49.515625 47.515625 48.265625 44.390625 
Q 47.015625 41.265625 44.9375 38.421875 
Q 42.875 35.59375 40.140625 32.953125 
Q 37.40625 30.328125 34.421875 27.8125 
Q 31.453125 25.296875 28.421875 22.828125 
Q 25.390625 20.359375 22.71875 17.859375 
Q 20.0625 15.375 17.96875 12.8125 
Q 15.875 10.25 14.703125 7.46875 
L 50.59375 7.46875 
L 50.59375 0 
z
" id="LiberationSans-32"/>
      </defs>
      <g style="fill:#262626;" transform="translate(681.199588 331.7975)scale(0.08 -0.08)">
       <use xlink:href="#LiberationSans-30"/>
       <use x="55.615234" xlink:href="#LiberationSans-2e"/>
       <use x="83.398438" xlink:href="#LiberationSans-30"/>
       <use x="139.013672" xlink:href="#LiberationSans-32"/>
       <use x="194.628906" xlink:href="#LiberationSans-30"/>
      </g>
     </g>
    </g>
    <g id="xtick_6">
     <g id="line2d_11">
      <path clip-path="url(#pa42096eecb)" d="M 817.864968 320.4 
L 817.864968 43.2 
" style="fill:none;stroke:#ffffff;stroke-linecap:round;stroke-width:0.8;"/>
     </g>
     <g id="line2d_12"/>
     <g id="text_6">
      <!-- 0.025 -->
      <g style="fill:#262626;" transform="translate(807.856218 331.7975)scale(0.08 -0.08)">
       <use xlink:href="#LiberationSans-30"/>
       <use x="55.615234" xlink:href="#LiberationSans-2e"/>
       <use x="83.398438" xlink:href="#LiberationSans-30"/>
       <use x="139.013672" xlink:href="#LiberationSans-32"/>
       <use x="194.628906" xlink:href="#LiberationSans-35"/>
      </g>
     </g>
    </g>
    <g id="xtick_7">
     <g id="line2d_13">
      <path clip-path="url(#pa42096eecb)" d="M 944.521598 320.4 
L 944.521598 43.2 
" style="fill:none;stroke:#ffffff;stroke-linecap:round;stroke-width:0.8;"/>
     </g>
     <g id="line2d_14"/>
     <g id="text_7">
      <!-- 0.030 -->
      <defs>
       <path d="M 51.21875 19 
Q 51.21875 14.265625 49.671875 10.546875 
Q 48.140625 6.84375 45.1875 4.265625 
Q 42.234375 1.703125 37.859375 0.359375 
Q 33.5 -0.984375 27.875 -0.984375 
Q 21.484375 -0.984375 17.109375 0.609375 
Q 12.75 2.203125 9.90625 4.8125 
Q 7.078125 7.421875 5.65625 10.765625 
Q 4.25 14.109375 3.8125 17.671875 
L 12.890625 18.5 
Q 13.28125 15.765625 14.328125 13.515625 
Q 15.375 11.28125 17.1875 9.671875 
Q 19 8.0625 21.625 7.171875 
Q 24.265625 6.296875 27.875 6.296875 
Q 34.515625 6.296875 38.296875 9.5625 
Q 42.09375 12.84375 42.09375 19.28125 
Q 42.09375 23.09375 40.40625 25.40625 
Q 38.71875 27.734375 36.203125 29.03125 
Q 33.6875 30.328125 30.734375 30.765625 
Q 27.78125 31.203125 25.296875 31.203125 
L 20.3125 31.203125 
L 20.3125 38.8125 
L 25.09375 38.8125 
Q 27.59375 38.8125 30.265625 39.328125 
Q 32.953125 39.84375 35.171875 41.1875 
Q 37.40625 42.53125 38.84375 44.828125 
Q 40.28125 47.125 40.28125 50.6875 
Q 40.28125 56.203125 37.03125 59.390625 
Q 33.796875 62.59375 27.390625 62.59375 
Q 21.578125 62.59375 17.984375 59.609375 
Q 14.40625 56.640625 13.8125 51.21875 
L 4.984375 51.90625 
Q 5.515625 56.453125 7.46875 59.8125 
Q 9.421875 63.1875 12.421875 65.40625 
Q 15.4375 67.625 19.28125 68.71875 
Q 23.140625 69.828125 27.484375 69.828125 
Q 33.25 69.828125 37.390625 68.375 
Q 41.546875 66.9375 44.1875 64.46875 
Q 46.828125 62.015625 48.0625 58.6875 
Q 49.3125 55.375 49.3125 51.609375 
Q 49.3125 48.578125 48.484375 45.9375 
Q 47.65625 43.3125 45.890625 41.203125 
Q 44.140625 39.109375 41.421875 37.59375 
Q 38.71875 36.078125 34.90625 35.296875 
L 34.90625 35.109375 
Q 39.0625 34.671875 42.140625 33.21875 
Q 45.21875 31.78125 47.21875 29.625 
Q 49.21875 27.484375 50.21875 24.75 
Q 51.21875 22.015625 51.21875 19 
" id="LiberationSans-33"/>
      </defs>
      <g style="fill:#262626;" transform="translate(934.512848 331.7975)scale(0.08 -0.08)">
       <use xlink:href="#LiberationSans-30"/>
       <use x="55.615234" xlink:href="#LiberationSans-2e"/>
       <use x="83.398438" xlink:href="#LiberationSans-30"/>
       <use x="139.013672" xlink:href="#LiberationSans-33"/>
       <use x="194.628906" xlink:href="#LiberationSans-30"/>
      </g>
     </g>
    </g>
   </g>
   <g id="matplotlib.axis_2">
    <g id="ytick_1">
     <g id="line2d_15">
      <path clip-path="url(#pa42096eecb)" d="M 144 311.471571 
L 1036.8 311.471571 
" style="fill:none;stroke:#ffffff;stroke-linecap:round;stroke-width:0.8;"/>
     </g>
     <g id="line2d_16"/>
     <g id="text_8">
      <!-- −8 -->
      <defs>
       <path d="M 4.9375 29.6875 
L 4.9375 36.8125 
L 53.515625 36.8125 
L 53.515625 29.6875 
z
" id="LiberationSans-2212"/>
       <path d="M 51.265625 19.1875 
Q 51.265625 14.796875 49.875 11.109375 
Q 48.484375 7.421875 45.625 4.734375 
Q 42.78125 2.046875 38.328125 0.53125 
Q 33.890625 -0.984375 27.828125 -0.984375 
Q 21.78125 -0.984375 17.359375 0.53125 
Q 12.9375 2.046875 10.03125 4.703125 
Q 7.125 7.375 5.734375 11.0625 
Q 4.34375 14.75 4.34375 19.09375 
Q 4.34375 22.859375 5.484375 25.78125 
Q 6.640625 28.71875 8.5625 30.828125 
Q 10.5 32.953125 12.96875 34.25 
Q 15.4375 35.546875 18.0625 35.984375 
L 18.0625 36.1875 
Q 15.1875 36.859375 12.90625 38.375 
Q 10.640625 39.890625 9.09375 42.015625 
Q 7.5625 44.140625 6.75 46.71875 
Q 5.953125 49.3125 5.953125 52.203125 
Q 5.953125 55.8125 7.34375 59 
Q 8.734375 62.203125 11.46875 64.625 
Q 14.203125 67.046875 18.25 68.4375 
Q 22.3125 69.828125 27.640625 69.828125 
Q 33.25 69.828125 37.375 68.40625 
Q 41.5 67 44.203125 64.578125 
Q 46.921875 62.15625 48.234375 58.9375 
Q 49.5625 55.71875 49.5625 52.09375 
Q 49.5625 49.265625 48.75 46.671875 
Q 47.953125 44.09375 46.40625 41.96875 
Q 44.875 39.84375 42.59375 38.34375 
Q 40.328125 36.859375 37.359375 36.28125 
L 37.359375 36.078125 
Q 40.328125 35.59375 42.859375 34.296875 
Q 45.40625 33.015625 47.265625 30.890625 
Q 49.125 28.765625 50.1875 25.828125 
Q 51.265625 22.90625 51.265625 19.1875 
M 40.4375 51.609375 
Q 40.4375 54.203125 39.765625 56.34375 
Q 39.109375 58.5 37.59375 60.03125 
Q 36.078125 61.578125 33.640625 62.421875 
Q 31.203125 63.28125 27.640625 63.28125 
Q 24.171875 63.28125 21.78125 62.421875 
Q 19.390625 61.578125 17.84375 60.03125 
Q 16.3125 58.5 15.625 56.34375 
Q 14.9375 54.203125 14.9375 51.609375 
Q 14.9375 49.5625 15.46875 47.40625 
Q 16.015625 45.265625 17.421875 43.5 
Q 18.84375 41.75 21.328125 40.625 
Q 23.828125 39.5 27.734375 39.5 
Q 31.890625 39.5 34.40625 40.625 
Q 36.921875 41.75 38.25 43.5 
Q 39.59375 45.265625 40.015625 47.40625 
Q 40.4375 49.5625 40.4375 51.609375 
M 42.140625 20.015625 
Q 42.140625 22.515625 41.453125 24.828125 
Q 40.765625 27.15625 39.109375 28.9375 
Q 37.453125 30.71875 34.640625 31.8125 
Q 31.84375 32.90625 27.640625 32.90625 
Q 23.78125 32.90625 21.0625 31.8125 
Q 18.359375 30.71875 16.671875 28.90625 
Q 14.984375 27.09375 14.203125 24.71875 
Q 13.421875 22.359375 13.421875 19.828125 
Q 13.421875 16.65625 14.203125 14.03125 
Q 14.984375 11.421875 16.6875 9.546875 
Q 18.40625 7.671875 21.1875 6.640625 
Q 23.96875 5.609375 27.9375 5.609375 
Q 31.9375 5.609375 34.671875 6.640625 
Q 37.40625 7.671875 39.0625 9.546875 
Q 40.71875 11.421875 41.421875 14.078125 
Q 42.140625 16.75 42.140625 20.015625 
" id="LiberationSans-38"/>
      </defs>
      <g style="fill:#262626;" transform="translate(129.27875 314.370321)scale(0.08 -0.08)">
       <use xlink:href="#LiberationSans-2212"/>
       <use x="58.398438" xlink:href="#LiberationSans-38"/>
      </g>
     </g>
    </g>
    <g id="ytick_2">
     <g id="line2d_17">
      <path clip-path="url(#pa42096eecb)" d="M 144 278.226382 
L 1036.8 278.226382 
" style="fill:none;stroke:#ffffff;stroke-linecap:round;stroke-width:0.8;"/>
     </g>
     <g id="line2d_18"/>
     <g id="text_9">
      <!-- −6 -->
      <defs>
       <path d="M 51.21875 22.515625 
Q 51.21875 17.328125 49.78125 13 
Q 48.34375 8.6875 45.53125 5.578125 
Q 42.71875 2.484375 38.5625 0.75 
Q 34.421875 -0.984375 29 -0.984375 
Q 23 -0.984375 18.5 1.3125 
Q 14.015625 3.609375 11.03125 7.921875 
Q 8.0625 12.25 6.5625 18.53125 
Q 5.078125 24.8125 5.078125 32.8125 
Q 5.078125 42 6.765625 48.921875 
Q 8.453125 55.859375 11.625 60.5 
Q 14.796875 65.140625 19.359375 67.484375 
Q 23.921875 69.828125 29.6875 69.828125 
Q 33.203125 69.828125 36.28125 69.09375 
Q 39.359375 68.359375 41.875 66.71875 
Q 44.390625 65.09375 46.28125 62.40625 
Q 48.1875 59.71875 49.3125 55.8125 
L 40.921875 54.296875 
Q 39.546875 58.734375 36.546875 60.71875 
Q 33.546875 62.703125 29.59375 62.703125 
Q 25.984375 62.703125 23.046875 60.984375 
Q 20.125 59.28125 18.0625 55.875 
Q 16.015625 52.484375 14.90625 47.359375 
Q 13.8125 42.234375 13.8125 35.40625 
Q 16.21875 39.84375 20.5625 42.15625 
Q 24.90625 44.484375 30.515625 44.484375 
Q 35.203125 44.484375 39.015625 42.96875 
Q 42.828125 41.453125 45.53125 38.59375 
Q 48.25 35.75 49.734375 31.671875 
Q 51.21875 27.59375 51.21875 22.515625 
M 42.28125 22.125 
Q 42.28125 25.6875 41.40625 28.5625 
Q 40.53125 31.453125 38.765625 33.46875 
Q 37.015625 35.5 34.421875 36.59375 
Q 31.84375 37.703125 28.421875 37.703125 
Q 26.03125 37.703125 23.578125 36.984375 
Q 21.140625 36.28125 19.15625 34.6875 
Q 17.1875 33.109375 15.9375 30.515625 
Q 14.703125 27.9375 14.703125 24.21875 
Q 14.703125 20.40625 15.671875 17.109375 
Q 16.65625 13.8125 18.484375 11.375 
Q 20.3125 8.9375 22.890625 7.515625 
Q 25.484375 6.109375 28.71875 6.109375 
Q 31.890625 6.109375 34.40625 7.203125 
Q 36.921875 8.296875 38.671875 10.375 
Q 40.4375 12.453125 41.359375 15.421875 
Q 42.28125 18.40625 42.28125 22.125 
" id="LiberationSans-36"/>
      </defs>
      <g style="fill:#262626;" transform="translate(129.27875 281.125132)scale(0.08 -0.08)">
       <use xlink:href="#LiberationSans-2212"/>
       <use x="58.398438" xlink:href="#LiberationSans-36"/>
      </g>
     </g>
    </g>
    <g id="ytick_3">
     <g id="line2d_19">
      <path clip-path="url(#pa42096eecb)" d="M 144 244.981194 
L 1036.8 244.981194 
" style="fill:none;stroke:#ffffff;stroke-linecap:round;stroke-width:0.8;"/>
     </g>
     <g id="line2d_20"/>
     <g id="text_10">
      <!-- −4 -->
      <defs>
       <path d="M 43.015625 15.578125 
L 43.015625 0 
L 34.71875 0 
L 34.71875 15.578125 
L 2.296875 15.578125 
L 2.296875 22.40625 
L 33.796875 68.796875 
L 43.015625 68.796875 
L 43.015625 22.515625 
L 52.6875 22.515625 
L 52.6875 15.578125 
z
M 34.71875 58.890625 
Q 34.625 58.640625 34.234375 57.9375 
Q 33.84375 57.234375 33.34375 56.34375 
Q 32.859375 55.46875 32.34375 54.5625 
Q 31.84375 53.65625 31.453125 53.078125 
L 13.8125 27.09375 
Q 13.578125 26.703125 13.109375 26.0625 
Q 12.640625 25.4375 12.15625 24.78125 
Q 11.671875 24.125 11.171875 23.484375 
Q 10.6875 22.859375 10.40625 22.515625 
L 34.71875 22.515625 
z
" id="LiberationSans-34"/>
      </defs>
      <g style="fill:#262626;" transform="translate(129.27875 247.879944)scale(0.08 -0.08)">
       <use xlink:href="#LiberationSans-2212"/>
       <use x="58.398438" xlink:href="#LiberationSans-34"/>
      </g>
     </g>
    </g>
    <g id="ytick_4">
     <g id="line2d_21">
      <path clip-path="url(#pa42096eecb)" d="M 144 211.736005 
L 1036.8 211.736005 
" style="fill:none;stroke:#ffffff;stroke-linecap:round;stroke-width:0.8;"/>
     </g>
     <g id="line2d_22"/>
     <g id="text_11">
      <!-- −2 -->
      <g style="fill:#262626;" transform="translate(129.27875 214.634755)scale(0.08 -0.08)">
       <use xlink:href="#LiberationSans-2212"/>
       <use x="58.398438" xlink:href="#LiberationSans-32"/>
      </g>
     </g>
    </g>
    <g id="ytick_5">
     <g id="line2d_23">
      <path clip-path="url(#pa42096eecb)" d="M 144 178.490817 
L 1036.8 178.490817 
" style="fill:none;stroke:#ffffff;stroke-linecap:round;stroke-width:0.8;"/>
     </g>
     <g id="line2d_24"/>
     <g id="text_12">
      <!-- 0 -->
      <g style="fill:#262626;" transform="translate(133.95125 181.389567)scale(0.08 -0.08)">
       <use xlink:href="#LiberationSans-30"/>
      </g>
     </g>
    </g>
    <g id="ytick_6">
     <g id="line2d_25">
      <path clip-path="url(#pa42096eecb)" d="M 144 145.245628 
L 1036.8 145.245628 
" style="fill:none;stroke:#ffffff;stroke-linecap:round;stroke-width:0.8;"/>
     </g>
     <g id="line2d_26"/>
     <g id="text_13">
      <!-- 2 -->
      <g style="fill:#262626;" transform="translate(133.95125 148.144378)scale(0.08 -0.08)">
       <use xlink:href="#LiberationSans-32"/>
      </g>
     </g>
    </g>
    <g id="ytick_7">
     <g id="line2d_27">
      <path clip-path="url(#pa42096eecb)" d="M 144 112.00044 
L 1036.8 112.00044 
" style="fill:none;stroke:#ffffff;stroke-linecap:round;stroke-width:0.8;"/>
     </g>
     <g id="line2d_28"/>
     <g id="text_14">
      <!-- 4 -->
      <g style="fill:#262626;" transform="translate(133.95125 114.89919)scale(0.08 -0.08)">
       <use xlink:href="#LiberationSans-34"/>
      </g>
     </g>
    </g>
    <g id="ytick_8">
     <g id="line2d_29">
      <path clip-path="url(#pa42096eecb)" d="M 144 78.755251 
L 1036.8 78.755251 
" style="fill:none;stroke:#ffffff;stroke-linecap:round;stroke-width:0.8;"/>
     </g>
     <g id="line2d_30"/>
     <g id="text_15">
      <!-- 6 -->
      <g style="fill:#262626;" transform="translate(133.95125 81.654001)scale(0.08 -0.08)">
       <use xlink:href="#LiberationSans-36"/>
      </g>
     </g>
    </g>
    <g id="ytick_9">
     <g id="line2d_31">
      <path clip-path="url(#pa42096eecb)" d="M 144 45.510063 
L 1036.8 45.510063 
" style="fill:none;stroke:#ffffff;stroke-linecap:round;stroke-width:0.8;"/>
     </g>
     <g id="line2d_32"/>
     <g id="text_16">
      <!-- 8 -->
      <g style="fill:#262626;" transform="translate(133.95125 48.408813)scale(0.08 -0.08)">
       <use xlink:href="#LiberationSans-38"/>
      </g>
     </g>
    </g>
   </g>
   <g id="line2d_33">
    <path clip-path="url(#pa42096eecb)" d="M 184.581818 307.8 
L 185.156225 305.984263 
L 185.730631 295.864293 
L 186.305038 277.356224 
L 187.453851 222.829714 
L 188.602664 167.908835 
L 189.17707 149.325053 
L 189.751477 139.80095 
L 190.325883 139.795704 
L 190.90029 148.08842 
L 192.623509 191.911248 
L 193.197915 200.52708 
L 193.772322 201.390643 
L 194.346728 193.659935 
L 194.921135 178.179014 
L 197.218761 98.463345 
L 197.793167 91.417017 
L 198.367574 93.754363 
L 198.94198 104.972187 
L 200.090793 144.460729 
L 200.6652 165.53122 
L 201.239606 182.413046 
L 201.814013 192.155256 
L 202.388419 193.173677 
L 202.962826 185.540614 
L 203.537232 170.966008 
L 205.260452 118.849726 
L 205.834858 110.656306 
L 206.409265 111.118656 
L 206.983671 120.48608 
L 207.558078 137.339357 
L 209.281297 200.785406 
L 209.855704 213.906531 
L 210.43011 218.431513 
L 211.004517 213.690927 
L 211.578923 200.703361 
L 213.876549 127.927764 
L 214.450955 121.756923 
L 215.025362 124.385255 
L 215.599768 135.155185 
L 216.748581 171.102602 
L 217.322988 189.034191 
L 217.897394 201.968387 
L 218.471801 207.123338 
L 219.046207 203.131389 
L 219.620614 190.296835 
L 220.769427 147.056087 
L 221.91824 104.293367 
L 222.492646 91.912909 
L 223.067053 88.316153 
L 223.641459 93.62299 
L 224.215866 106.297004 
L 225.939085 156.095443 
L 226.513492 164.521243 
L 227.087898 164.552925 
L 227.662305 155.739111 
L 228.236711 139.306893 
L 229.959931 75.218297 
L 230.534337 61.267155 
L 231.108743 55.8 
L 231.68315 59.670803 
L 232.257556 72.043354 
L 233.406369 111.722768 
L 233.980776 131.659217 
L 234.555182 146.728648 
L 235.129589 154.257557 
L 235.703995 153.024082 
L 236.278402 143.48384 
L 237.427215 108.874912 
L 238.001621 90.911287 
L 238.576028 77.522032 
L 239.150434 71.61714 
L 239.724841 74.741113 
L 240.299247 86.781367 
L 240.873654 105.985 
L 242.596873 172.816727 
L 243.17128 185.996324 
L 243.745686 190.452501 
L 244.320093 185.869121 
L 244.894499 173.601188 
L 246.617719 122.169404 
L 247.192125 112.330586 
L 247.766532 110.676879 
L 248.340938 117.858038 
L 248.915345 132.839774 
L 250.638564 194.835795 
L 251.21297 208.846945 
L 251.787377 214.565717 
L 252.361783 210.95372 
L 252.93619 198.660651 
L 254.085003 158.054512 
L 254.659409 137.014082 
L 255.233816 120.486222 
L 255.808222 111.290638 
L 256.382629 110.840007 
L 256.957035 118.879602 
L 257.531442 133.537742 
L 258.680255 169.485203 
L 259.254661 183.182979 
L 259.829068 189.737814 
L 260.403474 187.42987 
L 260.977881 176.177335 
L 261.552287 157.55622 
L 263.275507 90.360321 
L 263.849913 76.456659 
L 264.42432 71.202978 
L 264.998726 75.108692 
L 265.573133 87.001516 
L 267.296352 140.13037 
L 267.870759 151.4184 
L 268.445165 154.746515 
L 269.019572 149.266783 
L 269.593978 135.816787 
L 271.891604 62.115305 
L 272.46601 56.15282 
L 273.040417 59.478699 
L 273.614823 71.631219 
L 274.763636 112.96605 
L 275.912449 152.860793 
L 276.486856 163.613371 
L 277.061262 165.650824 
L 277.635669 159.027202 
L 278.210075 145.435933 
L 279.933295 96.05767 
L 280.507701 88.73707 
L 281.082108 90.089236 
L 281.656514 100.391602 
L 282.230921 118.250487 
L 283.95414 185.26558 
L 284.528547 199.745533 
L 285.102953 205.679355 
L 285.67736 202.366986 
L 286.251766 190.796314 
L 288.549392 123.198551 
L 289.123798 118.193583 
L 289.698205 121.964085 
L 290.272611 133.871809 
L 291.421424 172.133336 
L 291.995831 191.243718 
L 292.570237 205.354401 
L 293.144644 211.658601 
L 293.71905 208.75774 
L 294.293457 196.923917 
L 294.867863 178.051661 
L 296.591083 113.589425 
L 297.165489 101.527445 
L 297.739896 98.140164 
L 298.314302 103.573038 
L 298.888709 116.313783 
L 300.611928 166.089814 
L 301.186335 174.428144 
L 301.760741 174.306633 
L 302.335148 165.25134 
L 302.909554 148.468531 
L 304.632774 82.581782 
L 305.20718 67.807459 
L 305.781587 61.444583 
L 306.355993 64.380886 
L 306.9304 75.814265 
L 308.079213 113.710746 
L 308.653619 132.834165 
L 309.228025 147.144619 
L 309.802432 153.957495 
L 310.376838 152.033795 
L 310.951245 141.810639 
L 312.100058 105.805533 
L 312.674464 87.124405 
L 313.248871 73.019841 
L 313.823277 66.425544 
L 314.397684 68.915976 
L 314.97209 80.410168 
L 315.546497 99.183457 
L 317.269716 165.565528 
L 317.844123 178.866652 
L 318.418529 183.549539 
L 318.992936 179.27106 
L 319.567342 167.360059 
L 321.290562 117.151457 
L 321.864968 107.767673 
L 322.439375 106.614397 
L 323.013781 114.362386 
L 323.588188 129.997287 
L 325.311407 194.561864 
L 325.885814 209.608451 
L 326.46022 216.41347 
L 327.034627 213.904663 
L 327.609033 202.697111 
L 328.757846 164.095888 
L 329.332252 143.941995 
L 329.906659 128.220485 
L 330.481065 119.761878 
L 331.055472 119.996353 
L 331.629878 128.688805 
L 332.204285 143.984379 
L 333.353098 181.189335 
L 333.927504 195.49568 
L 334.501911 202.620938 
L 335.076317 200.817714 
L 335.650724 189.974517 
L 336.22513 171.640562 
L 337.94835 104.435515 
L 338.522756 90.250564 
L 339.097163 84.609096 
L 339.671569 88.049481 
L 340.245976 99.428091 
L 341.969195 150.911028 
L 342.543602 161.629747 
L 343.118008 164.360813 
L 343.692415 158.237 
L 344.266821 144.076927 
L 346.564447 66.746207 
L 347.138854 59.739162 
L 347.71326 62.021979 
L 348.287666 73.167733 
L 348.862073 91.14865 
L 350.010886 133.991484 
L 350.585292 151.213232 
L 351.159699 161.409621 
L 351.734105 162.963347 
L 352.308512 155.907511 
L 352.882918 141.916672 
L 354.606138 91.461483 
L 355.180544 83.848614 
L 355.754951 84.977196 
L 356.329357 95.152261 
L 356.903764 113.005378 
L 358.626983 180.860339 
L 359.20139 195.891401 
L 359.775796 202.477525 
L 360.350203 199.888015 
L 360.924609 189.079929 
L 363.222235 124.545859 
L 363.796642 120.30107 
L 364.371048 124.85566 
L 364.945455 137.589796 
L 366.094268 177.678591 
L 366.668674 197.789879 
L 367.24308 212.940946 
L 367.817487 220.298374 
L 368.391893 218.430732 
L 368.9663 207.575742 
L 369.540706 189.597084 
L 371.263926 127.131352 
L 371.838332 115.506222 
L 372.412739 112.466114 
L 372.987145 118.179078 
L 373.561552 131.154016 
L 375.284771 181.46163 
L 375.859178 189.90486 
L 376.433584 189.821663 
L 377.007991 180.712715 
L 377.582397 163.760659 
L 379.305617 96.554052 
L 379.880023 81.085801 
L 380.45443 73.937756 
L 381.028836 76.029636 
L 381.603243 86.591971 
L 382.752056 122.771555 
L 383.326462 141.078372 
L 383.900869 154.601311 
L 384.475275 160.644496 
L 385.049682 157.951828 
L 385.624088 146.942134 
L 386.772901 109.260687 
L 387.347307 89.686868 
L 387.921714 74.669676 
L 388.49612 67.167786 
L 389.070527 68.787152 
L 389.644933 79.480209 
L 390.21934 97.552576 
L 391.942559 162.603497 
L 392.516966 175.717444 
L 393.091372 180.315209 
L 393.665779 176.029236 
L 394.240185 164.164712 
L 395.963405 114.283562 
L 396.537811 105.075803 
L 397.112218 104.15746 
L 397.686624 112.22246 
L 398.261031 128.278499 
L 400.558657 210.781919 
L 401.133063 218.557381 
L 401.70747 217.063158 
L 402.281876 206.880361 
L 403.430689 170.247112 
L 404.005096 151.003383 
L 404.579502 136.139374 
L 405.153909 128.495742 
L 405.728315 129.519332 
L 406.302721 138.993659 
L 406.877128 155.079554 
L 408.025941 193.914037 
L 408.600347 209.04498 
L 409.174754 216.974299 
L 409.74916 215.924976 
L 410.323567 205.753567 
L 410.897973 187.980027 
L 412.621193 121.623751 
L 413.195599 107.44699 
L 413.770006 101.704391 
L 414.344412 104.960655 
L 414.918819 116.098311 
L 416.642038 166.68444 
L 417.216445 177.05297 
L 417.790851 179.387582 
L 418.365258 172.799961 
L 418.939664 158.088077 
L 421.23729 77.51252 
L 421.811697 69.489553 
L 422.386103 70.729789 
L 422.96051 80.841067 
L 423.534916 97.826812 
L 424.683729 138.879581 
L 425.258135 155.319819 
L 425.832542 164.80118 
L 426.406948 165.689686 
L 426.981355 157.999045 
L 427.555761 143.386625 
L 429.278981 91.090437 
L 429.853387 82.904766 
L 430.427794 83.520102 
L 431.0022 93.271585 
L 431.576607 110.818675 
L 433.299826 178.61645 
L 433.874233 193.910078 
L 434.448639 200.869641 
L 435.023046 198.736262 
L 435.597452 188.438445 
L 437.895078 126.141714 
L 438.469485 122.504406 
L 439.043891 127.714673 
L 439.618298 141.172214 
L 440.767111 182.962152 
L 441.341517 204.052572 
L 441.915924 220.25027 
L 442.49033 228.695223 
L 443.064737 227.922852 
L 443.639143 218.135897 
L 444.21355 201.16626 
L 445.936769 141.187319 
L 446.511175 130.204938 
L 447.085582 127.735986 
L 447.659988 133.969064 
L 448.234395 147.432148 
L 449.957614 199.094696 
L 450.532021 207.930033 
L 451.106427 208.17464 
L 451.680834 199.301215 
L 452.25524 182.466112 
L 453.97846 114.753399 
L 454.552866 98.83878 
L 455.127273 91.137223 
L 455.701679 92.59829 
L 456.276086 102.483233 
L 457.424899 137.266926 
L 457.999305 154.881871 
L 458.573712 167.71678 
L 459.148118 173.063701 
L 459.722525 169.648787 
L 460.296931 157.872085 
L 461.445744 118.470715 
L 462.020151 97.941059 
L 462.594557 81.920891 
L 463.168964 73.394477 
L 463.74337 74.000175 
L 464.317776 83.725039 
L 464.892183 100.906469 
L 466.615402 163.937204 
L 467.189809 176.601787 
L 467.764215 180.839848 
L 468.338622 176.261804 
L 468.913028 164.151595 
L 470.636248 113.700088 
L 471.210654 104.370103 
L 471.785061 103.393073 
L 472.359467 111.488617 
L 472.933874 127.689008 
L 475.2315 212.123324 
L 475.805906 220.676501 
L 476.380313 220.026939 
L 476.954719 210.723205 
L 477.529126 194.892986 
L 478.677939 157.442706 
L 479.252345 143.396159 
L 479.826752 136.554849 
L 480.401158 138.382276 
L 480.975565 148.6804 
L 481.549971 165.625388 
L 482.698784 206.305177 
L 483.273191 222.40604 
L 483.847597 231.308166 
L 484.422003 231.20344 
L 484.99641 221.914722 
L 485.570816 204.930713 
L 487.294036 140.196785 
L 487.868442 126.30645 
L 488.442849 120.746803 
L 489.017255 124.106272 
L 489.591662 135.290988 
L 491.314881 185.823781 
L 491.889288 196.108456 
L 492.463694 198.301654 
L 493.038101 191.491686 
L 493.612507 176.453636 
L 495.910133 93.336317 
L 496.48454 84.414433 
L 497.058946 84.702871 
L 497.633353 93.843386 
L 498.207759 109.870063 
L 499.356572 149.121481 
L 499.930979 164.733136 
L 500.505385 173.425356 
L 501.079792 173.54816 
L 501.654198 165.096693 
L 502.228605 149.712112 
L 503.951824 94.988126 
L 504.52623 85.994074 
L 505.100637 85.843646 
L 505.675043 94.904251 
L 506.24945 111.86561 
L 507.972669 178.718625 
L 508.547076 193.9719 
L 509.121482 201.003014 
L 509.695889 199.027561 
L 510.270295 188.948028 
L 512.567921 127.829457 
L 513.142328 124.57269 
L 513.716734 130.230773 
L 514.291141 144.224741 
L 515.439954 187.411126 
L 516.01436 209.365859 
L 516.588767 226.521958 
L 517.163173 235.993641 
L 517.73758 236.283721 
L 518.311986 227.560172 
L 518.886393 211.623017 
L 520.609612 154.364297 
L 521.184019 144.153773 
L 521.758425 142.408724 
L 522.332831 149.336874 
L 522.907238 163.483722 
L 524.630457 217.194614 
L 525.204864 226.682201 
L 525.77927 227.525599 
L 526.353677 219.167084 
L 526.928083 202.734123 
L 529.225709 119.298118 
L 529.800116 111.315966 
L 530.374522 112.408686 
L 530.948929 121.86589 
L 532.097742 155.706027 
L 532.672148 172.827959 
L 533.246555 185.153218 
L 533.820961 189.960244 
L 534.395368 185.956043 
L 534.969774 173.520621 
L 536.118587 132.537595 
L 536.692994 111.0804 
L 537.2674 94.057601 
L 537.841807 84.478849 
L 538.416213 84.015011 
L 538.99062 92.688189 
L 539.565026 108.868312 
L 541.288246 169.398192 
L 541.862652 181.408386 
L 542.437058 185.062264 
L 543.011465 179.950153 
L 543.585871 167.336766 
L 545.309091 115.470782 
L 545.883497 105.72086 
L 546.457904 104.383293 
L 547.03231 112.205963 
L 547.606717 128.248385 
L 549.904343 213.469608 
L 550.478749 222.543945 
L 551.053156 222.499039 
L 551.627562 213.852947 
L 552.201969 198.70625 
L 553.350782 162.632999 
L 553.925188 149.272555 
L 554.499595 143.127616 
L 555.074001 145.679137 
L 555.648408 156.74817 
L 556.222814 174.526697 
L 557.371627 217.083655 
L 557.946034 234.211766 
L 558.52044 244.171131 
L 559.094847 245.121796 
L 559.669253 236.851882 
L 560.24366 220.817487 
L 561.966879 158.312667 
L 562.541285 144.946413 
L 563.115692 139.821366 
L 563.690098 143.547351 
L 564.264505 155.051742 
L 565.987724 206.381027 
L 566.562131 216.867713 
L 567.136537 219.202525 
L 567.710944 212.447861 
L 568.28535 197.35335 
L 570.582976 112.643226 
L 571.157383 103.015522 
L 571.731789 102.523581 
L 572.306196 110.841496 
L 572.880602 126.032712 
L 574.029415 163.652475 
L 574.603822 178.480324 
L 575.178228 186.400952 
L 575.752635 185.748214 
L 576.327041 176.498709 
L 576.901448 160.277566 
L 578.624667 102.774134 
L 579.199074 92.80435 
L 579.77348 91.69772 
L 580.347887 99.855522 
L 580.922293 115.999598 
L 582.645512 181.117409 
L 583.219919 196.04301 
L 583.794325 202.850689 
L 584.368732 200.733086 
L 584.943138 190.56922 
L 587.240764 129.442284 
L 587.815171 126.287438 
L 588.389577 132.126643 
L 588.963984 146.40459 
L 590.112797 190.534204 
L 590.687203 213.156671 
L 591.26161 231.097125 
L 591.836016 241.445618 
L 592.410423 242.673678 
L 592.984829 234.915535 
L 593.559236 219.940044 
L 595.282455 165.354993 
L 595.856862 155.955779 
L 596.431268 155.000887 
L 597.005675 162.716489 
L 597.580081 177.664781 
L 599.303301 233.918006 
L 599.877707 244.264912 
L 600.452113 245.932537 
L 601.02652 238.33068 
L 601.600926 222.555658 
L 603.898552 140.423521 
L 604.472959 132.447755 
L 605.047365 133.457253 
L 605.621772 142.767419 
L 606.770585 176.202374 
L 607.344991 193.084363 
L 607.919398 205.139388 
L 608.493804 209.630204 
L 609.068211 205.24267 
L 609.642617 192.334828 
L 610.79143 150.07665 
L 611.365837 127.808936 
L 611.940243 109.874585 
L 612.51465 99.307616 
L 613.089056 97.810686 
L 613.663463 105.440542 
L 614.237869 120.599563 
L 615.961089 178.403955 
L 616.535495 189.632299 
L 617.109902 192.549995 
L 617.684308 186.728572 
L 618.258715 173.414933 
L 619.981934 119.428498 
L 620.55634 108.99122 
L 621.130747 107.013156 
L 621.705153 114.272823 
L 622.27956 129.859516 
L 624.577186 214.654781 
L 625.151592 223.955458 
L 625.725999 224.229075 
L 626.300405 215.965616 
L 626.874812 201.240824 
L 628.023625 166.069766 
L 628.598031 153.185925 
L 629.172438 147.548715 
L 629.746844 150.658078 
L 630.321251 162.355562 
L 630.895657 180.850232 
L 632.618877 243.247863 
L 633.193283 254.256131 
L 633.76769 256.282041 
L 634.342096 249.078727 
L 634.916503 234.069121 
L 636.639722 174.17316 
L 637.214129 161.50443 
L 637.788535 157.008131 
L 638.362942 161.313657 
L 638.937348 173.367705 
L 640.660567 226.264694 
L 641.234974 237.230233 
L 641.80938 239.989445 
L 642.383787 233.576275 
L 642.958193 218.712244 
L 644.107006 173.885581 
L 644.681413 151.262428 
L 645.255819 133.509928 
L 645.830226 123.426383 
L 646.404632 122.389025 
L 646.979039 130.10214 
L 647.553445 144.656611 
L 648.702258 180.978315 
L 649.276665 195.154461 
L 649.851071 202.410924 
L 650.425478 201.06444 
L 650.999884 191.072258 
L 651.574291 174.042839 
L 653.29751 113.678828 
L 653.871917 102.650937 
L 654.446323 100.478759 
L 655.02073 107.598311 
L 655.595136 122.764741 
L 657.318356 185.532601 
L 657.892762 199.887411 
L 658.467169 206.212976 
L 659.041575 203.681235 
L 659.615981 193.15003 
L 661.913607 130.819554 
L 662.488014 127.464145 
L 663.06242 133.185537 
L 663.636827 147.454672 
L 664.78564 191.970806 
L 665.360046 215.00219 
L 665.934453 233.484427 
L 666.508859 244.485608 
L 667.083266 246.447954 
L 667.657672 239.473672 
L 668.232079 225.301904 
L 669.955298 173.068932 
L 670.529705 164.426953 
L 671.104111 164.235389 
L 671.678518 172.739013 
L 672.252924 188.516694 
L 673.976144 247.557332 
L 674.55055 258.896865 
L 675.124957 261.546118 
L 675.699363 254.880971 
L 676.27377 239.964861 
L 678.571395 160.107333 
L 679.145802 152.410418 
L 679.720208 153.616049 
L 680.294615 163.062891 
L 681.443428 196.663238 
L 682.017834 213.587252 
L 682.592241 225.648571 
L 683.166647 230.091858 
L 683.741054 225.57942 
L 684.31546 212.444955 
L 685.464273 169.356014 
L 686.613086 127.79888 
L 687.187493 116.39341 
L 687.761899 113.988519 
L 688.336306 120.67441 
L 688.910712 134.885024 
L 690.633932 190.017496 
L 691.208338 200.426761 
L 691.782745 202.543916 
L 692.357151 195.9222 
L 692.931558 181.791386 
L 694.654777 125.187377 
L 695.229184 113.852351 
L 695.80359 111.003667 
L 696.377997 117.452406 
L 696.952403 132.319807 
L 699.250029 215.528019 
L 699.824435 224.751329 
L 700.398842 225.039762 
L 700.973248 216.857825 
L 701.547655 202.258922 
L 702.696468 167.422831 
L 703.270874 154.748923 
L 703.845281 149.366972 
L 704.419687 152.798002 
L 704.994094 164.906081 
L 705.5685 183.919293 
L 707.29172 248.575487 
L 707.866126 260.532352 
L 708.440533 263.560445 
L 709.014939 257.378498 
L 709.589346 243.376536 
L 711.312565 186.204623 
L 711.886972 174.325422 
L 712.461378 170.575187 
L 713.035785 175.601738 
L 713.610191 188.369812 
L 715.333411 243.449966 
L 715.907817 255.134525 
L 716.482224 258.572477 
L 717.05663 252.767021 
L 717.631036 238.409107 
L 718.779849 194.197267 
L 719.354256 171.662098 
L 719.928662 153.857524 
L 720.503069 143.60012 
L 721.077475 142.292431 
L 721.651882 149.666435 
L 722.226288 163.838105 
L 723.375101 199.325813 
L 723.949508 213.056451 
L 724.523914 219.835317 
L 725.098321 217.960374 
L 725.672727 207.367983 
L 726.247134 189.648526 
L 727.970353 126.621721 
L 728.54476 114.546599 
L 729.119166 111.29154 
L 729.693573 117.327363 
L 730.267979 131.442903 
L 731.991199 191.482825 
L 732.565605 205.092123 
L 733.140012 210.738986 
L 733.714418 207.576357 
L 734.288825 196.442715 
L 736.58645 131.824427 
L 737.160857 127.97231 
L 737.735263 133.274518 
L 738.30967 147.230865 
L 739.458483 191.528671 
L 740.607296 233.410689 
L 741.181702 244.788556 
L 741.756109 247.222597 
L 742.330515 240.785245 
L 742.904922 227.18797 
L 744.628141 176.742825 
L 745.202548 168.715926 
L 745.776954 169.170472 
L 746.351361 178.370794 
L 746.925767 194.913236 
L 748.648987 256.712784 
L 749.223393 269.091157 
L 749.7978 272.795712 
L 750.372206 267.167711 
L 750.946613 253.236704 
L 753.244239 176.386328 
L 753.818645 169.199087 
L 754.393052 170.846569 
L 754.967458 180.688485 
L 756.116271 214.999952 
L 756.690677 232.248662 
L 757.265084 244.602286 
L 757.83949 249.284908 
L 758.413897 244.932732 
L 758.988303 231.852491 
L 760.137116 188.47095 
L 761.285929 146.048253 
L 761.860336 134.024723 
L 762.434742 130.913228 
L 763.009149 136.835569 
L 763.583555 150.255651 
L 765.306775 203.042394 
L 765.881181 212.689261 
L 766.455588 214.035572 
L 767.029994 206.615966 
L 767.604401 191.642938 
L 769.32762 132.182963 
L 769.902027 119.817871 
L 770.476433 115.941257 
L 771.05084 121.398061 
L 771.625246 135.343036 
L 772.774059 178.086701 
L 773.348466 199.491942 
L 773.922872 215.970343 
L 774.497279 224.833958 
L 775.071685 224.846234 
L 775.646091 216.448693 
L 776.220498 201.674874 
L 777.369311 166.570909 
L 777.943717 153.80977 
L 778.518124 148.392001 
L 779.09253 151.862156 
L 779.666937 164.109265 
L 780.241343 183.38285 
L 781.964563 249.626497 
L 782.538969 262.349651 
L 783.113376 266.221243 
L 783.687782 260.926954 
L 784.262189 247.824962 
L 785.985408 193.216554 
L 786.559815 182.128342 
L 787.134221 179.152987 
L 787.708628 184.956385 
L 788.283034 198.520797 
L 790.006254 256.182226 
L 790.58066 268.765301 
L 791.155067 273.08251 
L 791.729473 268.104509 
L 792.30388 254.48963 
L 793.452693 211.408735 
L 794.027099 189.235717 
L 794.601506 171.660456 
L 795.175912 161.515109 
L 795.750318 160.224874 
L 796.324725 167.546813 
L 796.899131 181.619467 
L 798.047944 216.821278 
L 798.622351 230.36607 
L 799.196757 236.914413 
L 799.771164 234.743321 
L 800.34557 223.766142 
L 800.919977 205.553137 
L 802.643196 140.320827 
L 803.217603 127.301581 
L 803.792009 123.040076 
L 804.366416 128.041172 
L 804.940822 141.126945 
L 806.664042 198.335147 
L 807.238448 211.109984 
L 807.812855 215.963242 
L 808.387261 212.029862 
L 808.961668 200.130099 
L 811.259294 132.359131 
L 811.8337 127.750069 
L 812.408107 132.359332 
L 812.982513 145.717995 
L 814.131326 189.204637 
L 815.280139 230.849756 
L 815.854545 242.303919 
L 816.428952 244.914362 
L 817.003358 238.726303 
L 817.577765 225.425948 
L 819.300984 176.018278 
L 819.875391 168.390456 
L 820.449797 169.295213 
L 821.024204 179.018099 
L 821.59861 196.174482 
L 823.32183 260.433457 
L 823.896236 273.805136 
L 824.470643 278.547589 
L 825.045049 273.967583 
L 825.619456 261.060579 
L 827.917082 187.639041 
L 828.491488 181.127675 
L 829.065895 183.404592 
L 829.640301 193.848853 
L 830.789114 229.337752 
L 831.363521 247.16627 
L 831.937927 260.079116 
L 832.512334 265.277498 
L 833.08674 261.369064 
L 833.661146 248.631005 
L 834.809959 205.535343 
L 835.958772 162.810482 
L 836.533179 150.438129 
L 837.107585 146.877552 
L 837.681992 152.279801 
L 838.256398 165.136599 
L 839.979618 216.143668 
L 840.554024 225.173034 
L 841.128431 225.869297 
L 841.702837 217.747389 
L 842.277244 202.001571 
L 844.000463 139.730044 
L 844.57487 126.293905 
L 845.149276 121.320584 
L 845.723683 125.689395 
L 846.298089 138.589444 
L 847.446902 179.481013 
L 848.021309 200.108432 
L 848.595715 215.908036 
L 849.170122 224.179139 
L 849.744528 223.666055 
L 850.318935 214.789456 
L 850.893341 199.565213 
L 852.042154 163.615234 
L 852.616561 150.468918 
L 853.190967 144.714721 
L 853.765373 147.92327 
L 854.33978 160.011179 
L 854.914186 179.252079 
L 856.637406 246.261634 
L 857.211812 259.504906 
L 857.786219 263.991515 
L 858.360625 259.376082 
L 858.935032 246.986675 
L 860.658251 194.521806 
L 861.232658 184.13542 
L 861.807064 181.872414 
L 862.381471 188.417238 
L 862.955877 202.769987 
L 864.679097 263.153508 
L 865.253503 276.735975 
L 865.82791 282.059133 
L 866.402316 278.059965 
L 866.976723 265.362766 
L 868.125536 223.824876 
L 868.699942 202.247351 
L 869.274349 185.149957 
L 869.848755 175.378054 
L 870.423162 174.377064 
L 870.997568 181.926689 
L 871.571975 196.185588 
L 872.720787 231.678815 
L 873.295194 245.324936 
L 873.8696 251.925672 
L 874.444007 249.734606 
L 875.018413 238.639586 
L 875.59282 220.188264 
L 877.316039 153.421953 
L 877.890446 139.643702 
L 878.464852 134.538354 
L 879.039259 138.643298 
L 879.613665 150.812635 
L 881.336885 205.369645 
L 881.911291 217.315662 
L 882.485698 221.35354 
L 883.060104 216.600408 
L 883.634511 203.858649 
L 885.932137 132.376152 
L 886.506543 126.811803 
L 887.08095 130.509264 
L 887.655356 143.032792 
L 888.804169 185.1864 
L 889.952982 226.026532 
L 890.527389 237.262134 
L 891.101795 239.750441 
L 891.676202 233.512057 
L 892.250608 220.21047 
L 893.973827 170.97894 
L 894.548234 163.481941 
L 895.12264 164.581872 
L 895.697047 174.587715 
L 896.271453 192.136005 
L 897.994673 258.313562 
L 898.569079 272.545762 
L 899.143486 278.219357 
L 899.717892 274.607559 
L 900.292299 262.672365 
L 902.589925 192.74883 
L 903.164331 186.998381 
L 903.738738 190.015467 
L 904.313144 201.197505 
L 905.461957 238.204073 
L 906.036364 256.814431 
L 906.61077 270.507651 
L 907.185177 276.460189 
L 907.759583 273.249052 
L 908.33399 261.119584 
L 908.908396 241.942938 
L 910.631616 176.425395 
L 911.206022 163.995462 
L 911.780428 160.27382 
L 912.354835 165.438175 
L 912.929241 178.005593 
L 914.652461 227.982221 
L 915.226867 236.612709 
L 915.801274 236.858768 
L 916.37568 228.213839 
L 916.950087 211.852269 
L 918.673306 147.092288 
L 919.247713 132.639611 
L 919.822119 126.596224 
L 920.396526 129.875503 
L 920.970932 141.700926 
L 922.119745 180.598141 
L 922.694152 200.336707 
L 923.268558 215.321293 
L 923.842965 222.839767 
L 924.417371 221.618755 
L 924.991778 212.059648 
L 925.566184 196.162329 
L 926.714997 158.870751 
L 927.289404 145.070319 
L 927.86381 138.69957 
L 928.438217 141.357586 
L 929.012623 152.991102 
L 929.58703 171.900519 
L 931.310249 238.78567 
L 931.884655 252.263533 
L 932.459062 257.089663 
L 933.033468 252.890047 
L 933.607875 240.964891 
L 935.331094 190.006349 
L 935.905501 180.150952 
L 936.479907 178.45268 
L 937.054314 185.61578 
L 937.62872 200.659291 
L 939.35194 263.63414 
L 939.926346 278.228143 
L 940.500753 284.597461 
L 941.075159 281.645072 
L 941.649566 269.960573 
L 942.798379 230.232804 
L 943.372785 209.420122 
L 943.947192 192.991612 
L 944.521598 183.803993 
L 945.096005 183.32095 
L 945.670411 191.34278 
L 946.244818 206.046149 
L 947.393631 242.379581 
L 947.968037 256.413017 
L 948.542444 263.356656 
L 949.11685 261.43813 
L 949.691257 250.517169 
L 950.265663 232.116138 
L 951.988882 164.634884 
L 952.563289 150.34636 
L 953.137695 144.629748 
L 953.712102 148.052854 
L 954.286508 159.499929 
L 956.009728 211.852333 
L 956.584134 223.069146 
L 957.158541 226.365157 
L 957.732947 220.839046 
L 958.307354 207.274854 
L 960.60498 131.884088 
L 961.179386 125.24782 
L 961.753793 127.891345 
L 962.328199 139.413362 
L 962.902606 157.807546 
L 964.051419 201.625207 
L 964.625825 219.395651 
L 965.200232 230.152736 
L 965.774638 232.246899 
L 966.349045 225.676522 
L 966.923451 212.084777 
L 968.646671 162.143237 
L 969.221077 154.483356 
L 969.795483 155.489736 
L 970.36989 165.497318 
L 970.944296 183.166343 
L 972.667516 250.533941 
L 973.241922 265.419814 
L 973.816329 271.839081 
L 974.390735 269.033057 
L 974.965142 257.931654 
L 977.262768 191.216232 
L 977.837174 186.22214 
L 978.411581 190.002231 
L 978.985987 201.97209 
L 980.1348 240.676395 
L 980.709207 260.197315 
L 981.283613 274.824179 
L 981.85802 281.707444 
L 982.432426 279.391958 
L 983.006833 268.089438 
L 983.581239 249.640974 
L 985.304459 185.551383 
L 985.878865 173.348132 
L 986.453272 169.755234 
L 987.027678 174.974459 
L 987.602085 187.545677 
L 989.325304 237.349316 
L 989.89971 245.851431 
L 990.474117 245.906249 
L 991.048523 236.983431 
L 991.62293 220.235179 
L 993.346149 153.556597 
L 993.920556 138.232016 
L 994.494962 131.237993 
L 995.069369 133.520859 
L 995.643775 144.337658 
L 996.218182 161.397283 
L 996.218182 161.397283 
" style="fill:none;stroke:#4c72b0;stroke-linecap:round;stroke-width:1.4;"/>
   </g>
   <g id="line2d_34">
    <path clip-path="url(#pa42096eecb)" d="M 184.581818 178.590552 
L 996.218182 178.590552 
L 996.218182 178.590552 
" style="fill:none;stroke:#55a868;stroke-linecap:round;stroke-width:1.4;"/>
   </g>
   <g id="patch_3">
    <path d="M 144 320.4 
L 144 43.2 
" style="fill:none;"/>
   </g>
   <g id="patch_4">
    <path d="M 1036.8 320.4 
L 1036.8 43.2 
" style="fill:none;"/>
   </g>
   <g id="patch_5">
    <path d="M 144 320.4 
L 1036.8 320.4 
" style="fill:none;"/>
   </g>
   <g id="patch_6">
    <path d="M 144 43.2 
L 1036.8 43.2 
" style="fill:none;"/>
   </g>
   <g id="legend_1">
    <g id="line2d_35">
     <path d="M 1002.75125 53.3975 
L 1018.75125 53.3975 
" style="fill:none;stroke:#4c72b0;stroke-linecap:round;stroke-width:1.4;"/>
    </g>
    <g id="line2d_36"/>
    <g id="text_17">
     <!-- a -->
     <defs>
      <path d="M 20.21875 -0.984375 
Q 12.25 -0.984375 8.25 3.21875 
Q 4.25 7.421875 4.25 14.75 
Q 4.25 19.96875 6.21875 23.3125 
Q 8.203125 26.65625 11.390625 28.5625 
Q 14.59375 30.46875 18.6875 31.203125 
Q 22.796875 31.9375 27.046875 32.03125 
L 38.921875 32.234375 
L 38.921875 35.109375 
Q 38.921875 38.375 38.234375 40.671875 
Q 37.546875 42.96875 36.125 44.375 
Q 34.71875 45.796875 32.59375 46.453125 
Q 30.46875 47.125 27.59375 47.125 
Q 25.046875 47.125 23 46.75 
Q 20.953125 46.390625 19.4375 45.4375 
Q 17.921875 44.484375 16.984375 42.84375 
Q 16.0625 41.21875 15.765625 38.71875 
L 6.59375 39.546875 
Q 7.078125 42.671875 8.4375 45.28125 
Q 9.8125 47.90625 12.328125 49.796875 
Q 14.84375 51.703125 18.625 52.75 
Q 22.40625 53.8125 27.78125 53.8125 
Q 37.75 53.8125 42.765625 49.234375 
Q 47.796875 44.671875 47.796875 36.03125 
L 47.796875 13.28125 
Q 47.796875 9.375 48.828125 7.390625 
Q 49.859375 5.421875 52.734375 5.421875 
Q 53.46875 5.421875 54.203125 5.515625 
Q 54.9375 5.609375 55.609375 5.765625 
L 55.609375 0.296875 
Q 53.953125 -0.09375 52.3125 -0.28125 
Q 50.6875 -0.484375 48.828125 -0.484375 
Q 46.34375 -0.484375 44.5625 0.171875 
Q 42.78125 0.828125 41.65625 2.171875 
Q 40.53125 3.515625 39.9375 5.484375 
Q 39.359375 7.46875 39.203125 10.109375 
L 38.921875 10.109375 
Q 37.5 7.5625 35.8125 5.515625 
Q 34.125 3.46875 31.875 2.03125 
Q 29.640625 0.59375 26.78125 -0.1875 
Q 23.921875 -0.984375 20.21875 -0.984375 
M 22.21875 5.609375 
Q 26.421875 5.609375 29.5625 7.140625 
Q 32.71875 8.6875 34.78125 11.078125 
Q 36.859375 13.484375 37.890625 16.3125 
Q 38.921875 19.140625 38.921875 21.734375 
L 38.921875 26.078125 
L 29.296875 25.875 
Q 26.078125 25.828125 23.171875 25.40625 
Q 20.265625 25 18.0625 23.78125 
Q 15.875 22.5625 14.578125 20.359375 
Q 13.28125 18.171875 13.28125 14.59375 
Q 13.28125 10.296875 15.59375 7.953125 
Q 17.921875 5.609375 22.21875 5.609375 
" id="LiberationSans-61"/>
     </defs>
     <g style="fill:#262626;" transform="translate(1025.15125 56.1975)scale(0.08 -0.08)">
      <use xlink:href="#LiberationSans-61"/>
     </g>
    </g>
    <g id="line2d_37">
     <path d="M 1002.75125 64.855 
L 1018.75125 64.855 
" style="fill:none;stroke:#55a868;stroke-linecap:round;stroke-width:1.4;"/>
    </g>
    <g id="line2d_38"/>
    <g id="text_18">
     <!-- b -->
     <defs>
      <path d="M 51.421875 26.65625 
Q 51.421875 -0.984375 31.984375 -0.984375 
Q 25.984375 -0.984375 22 1.1875 
Q 18.015625 3.375 15.53125 8.203125 
L 15.4375 8.203125 
Q 15.4375 6.9375 15.359375 5.5625 
Q 15.28125 4.203125 15.203125 3.03125 
Q 15.140625 1.859375 15.0625 1.03125 
Q 14.984375 0.203125 14.9375 0 
L 6.453125 0 
Q 6.5 0.4375 6.546875 1.484375 
Q 6.59375 2.546875 6.640625 4 
Q 6.6875 5.46875 6.703125 7.21875 
Q 6.734375 8.984375 6.734375 10.890625 
L 6.734375 72.46875 
L 15.53125 72.46875 
L 15.53125 51.8125 
Q 15.53125 50.34375 15.5 49 
Q 15.484375 47.65625 15.4375 46.625 
Q 15.375 45.40625 15.328125 44.34375 
L 15.53125 44.34375 
Q 17.96875 49.421875 22 51.609375 
Q 26.03125 53.8125 31.984375 53.8125 
Q 42 53.8125 46.703125 47.0625 
Q 51.421875 40.328125 51.421875 26.65625 
M 42.1875 26.375 
Q 42.1875 31.84375 41.5 35.75 
Q 40.828125 39.65625 39.3125 42.15625 
Q 37.796875 44.671875 35.453125 45.84375 
Q 33.109375 47.015625 29.734375 47.015625 
Q 26.265625 47.015625 23.609375 45.890625 
Q 20.953125 44.78125 19.171875 42.28125 
Q 17.390625 39.796875 16.453125 35.734375 
Q 15.53125 31.6875 15.53125 25.828125 
Q 15.53125 20.171875 16.453125 16.3125 
Q 17.390625 12.453125 19.171875 10.03125 
Q 20.953125 7.625 23.578125 6.5625 
Q 26.21875 5.515625 29.640625 5.515625 
Q 32.859375 5.515625 35.203125 6.640625 
Q 37.546875 7.765625 39.109375 10.25 
Q 40.671875 12.75 41.421875 16.71875 
Q 42.1875 20.703125 42.1875 26.375 
" id="LiberationSans-62"/>
     </defs>
     <g style="fill:#262626;" transform="translate(1025.15125 67.655)scale(0.08 -0.08)">
      <use xlink:href="#LiberationSans-62"/>
     </g>
    </g>
   </g>
  </g>
 </g>
 <defs>
  <clipPath id="pa42096eecb">
   <rect height="277.2" width="892.8" x="144" y="43.2"/>
  </clipPath>
 </defs>
</svg>
