<?xml version="1.0" encoding="utf-8" standalone="no"?>
<!DOCTYPE svg PUBLIC "-//W3C//DTD SVG 1.1//EN"
  "http://www.w3.org/Graphics/SVG/1.1/DTD/svg11.dtd">
<!-- Created with matplotlib (http://matplotlib.org/) -->
<svg height="360pt" version="1.1" viewBox="0 0 1152 360" width="1152pt" xmlns="http://www.w3.org/2000/svg" xmlns:xlink="http://www.w3.org/1999/xlink">
 <defs>
  <style type="text/css">
*{stroke-linecap:butt;stroke-linejoin:round;}
  </style>
 </defs>
 <g id="figure_1">
  <g id="patch_1">
   <path d="M 0 360 
L 1152 360 
L 1152 0 
L 0 0 
z
" style="fill:#ffffff;"/>
  </g>
  <g id="axes_1">
   <g id="patch_2">
    <path d="M 144 320.4 
L 1036.8 320.4 
L 1036.8 43.2 
L 144 43.2 
z
" style="fill:#eaeaf2;"/>
   </g>
   <g id="matplotlib.axis_1">
    <g id="xtick_1">
     <g id="line2d_1">
      <path clip-path="url(#p2348f07a62)" d="M 184.581818 320.4 
L 184.581818 43.2 
" style="fill:none;stroke:#ffffff;stroke-linecap:round;stroke-width:0.8;"/>
     </g>
     <g id="line2d_2"/>
     <g id="text_1">
      <!-- 0 -->
      <defs>
       <path d="M 51.703125 34.421875 
Q 51.703125 24.515625 49.828125 17.75 
Q 47.953125 10.984375 44.703125 6.8125 
Q 41.453125 2.640625 37.0625 0.828125 
Q 32.671875 -0.984375 27.6875 -0.984375 
Q 22.65625 -0.984375 18.3125 0.828125 
Q 13.96875 2.640625 10.765625 6.78125 
Q 7.5625 10.9375 5.734375 17.703125 
Q 3.90625 24.46875 3.90625 34.421875 
Q 3.90625 44.828125 5.734375 51.640625 
Q 7.5625 58.453125 10.78125 62.5 
Q 14.015625 66.546875 18.40625 68.1875 
Q 22.796875 69.828125 27.984375 69.828125 
Q 32.90625 69.828125 37.21875 68.1875 
Q 41.546875 66.546875 44.765625 62.5 
Q 48 58.453125 49.84375 51.640625 
Q 51.703125 44.828125 51.703125 34.421875 
M 42.78125 34.421875 
Q 42.78125 42.625 41.796875 48.0625 
Q 40.828125 53.515625 38.921875 56.765625 
Q 37.015625 60.015625 34.25 61.359375 
Q 31.5 62.703125 27.984375 62.703125 
Q 24.265625 62.703125 21.4375 61.328125 
Q 18.609375 59.96875 16.671875 56.71875 
Q 14.75 53.46875 13.765625 48.015625 
Q 12.796875 42.578125 12.796875 34.421875 
Q 12.796875 26.515625 13.796875 21.09375 
Q 14.796875 15.671875 16.71875 12.375 
Q 18.65625 9.078125 21.4375 7.640625 
Q 24.21875 6.203125 27.78125 6.203125 
Q 31.25 6.203125 34.03125 7.640625 
Q 36.8125 9.078125 38.734375 12.375 
Q 40.671875 15.671875 41.71875 21.09375 
Q 42.78125 26.515625 42.78125 34.421875 
" id="LiberationSans-30"/>
      </defs>
      <g style="fill:#262626;" transform="translate(182.357443 331.7975)scale(0.08 -0.08)">
       <use xlink:href="#LiberationSans-30"/>
      </g>
     </g>
    </g>
    <g id="xtick_2">
     <g id="line2d_3">
      <path clip-path="url(#p2348f07a62)" d="M 299.625952 320.4 
L 299.625952 43.2 
" style="fill:none;stroke:#ffffff;stroke-linecap:round;stroke-width:0.8;"/>
     </g>
     <g id="line2d_4"/>
     <g id="text_2">
      <!-- 200 -->
      <defs>
       <path d="M 5.03125 0 
L 5.03125 6.203125 
Q 7.515625 11.921875 11.109375 16.28125 
Q 14.703125 20.65625 18.65625 24.1875 
Q 22.609375 27.734375 26.484375 30.765625 
Q 30.375 33.796875 33.5 36.8125 
Q 36.625 39.84375 38.546875 43.15625 
Q 40.484375 46.484375 40.484375 50.6875 
Q 40.484375 53.609375 39.59375 55.828125 
Q 38.71875 58.0625 37.0625 59.5625 
Q 35.40625 61.078125 33.078125 61.828125 
Q 30.765625 62.59375 27.9375 62.59375 
Q 25.296875 62.59375 22.96875 61.859375 
Q 20.65625 61.140625 18.84375 59.671875 
Q 17.046875 58.203125 15.890625 56.03125 
Q 14.75 53.859375 14.40625 50.984375 
L 5.421875 51.8125 
Q 5.859375 55.515625 7.46875 58.78125 
Q 9.078125 62.0625 11.90625 64.53125 
Q 14.75 67 18.71875 68.40625 
Q 22.703125 69.828125 27.9375 69.828125 
Q 33.0625 69.828125 37.0625 68.609375 
Q 41.0625 67.390625 43.8125 64.984375 
Q 46.578125 62.59375 48.046875 59.078125 
Q 49.515625 55.5625 49.515625 50.984375 
Q 49.515625 47.515625 48.265625 44.390625 
Q 47.015625 41.265625 44.9375 38.421875 
Q 42.875 35.59375 40.140625 32.953125 
Q 37.40625 30.328125 34.421875 27.8125 
Q 31.453125 25.296875 28.421875 22.828125 
Q 25.390625 20.359375 22.71875 17.859375 
Q 20.0625 15.375 17.96875 12.8125 
Q 15.875 10.25 14.703125 7.46875 
L 50.59375 7.46875 
L 50.59375 0 
z
" id="LiberationSans-32"/>
      </defs>
      <g style="fill:#262626;" transform="translate(292.952827 331.7975)scale(0.08 -0.08)">
       <use xlink:href="#LiberationSans-32"/>
       <use x="55.615234" xlink:href="#LiberationSans-30"/>
       <use x="111.230469" xlink:href="#LiberationSans-30"/>
      </g>
     </g>
    </g>
    <g id="xtick_3">
     <g id="line2d_5">
      <path clip-path="url(#p2348f07a62)" d="M 414.670086 320.4 
L 414.670086 43.2 
" style="fill:none;stroke:#ffffff;stroke-linecap:round;stroke-width:0.8;"/>
     </g>
     <g id="line2d_6"/>
     <g id="text_3">
      <!-- 400 -->
      <defs>
       <path d="M 43.015625 15.578125 
L 43.015625 0 
L 34.71875 0 
L 34.71875 15.578125 
L 2.296875 15.578125 
L 2.296875 22.40625 
L 33.796875 68.796875 
L 43.015625 68.796875 
L 43.015625 22.515625 
L 52.6875 22.515625 
L 52.6875 15.578125 
z
M 34.71875 58.890625 
Q 34.625 58.640625 34.234375 57.9375 
Q 33.84375 57.234375 33.34375 56.34375 
Q 32.859375 55.46875 32.34375 54.5625 
Q 31.84375 53.65625 31.453125 53.078125 
L 13.8125 27.09375 
Q 13.578125 26.703125 13.109375 26.0625 
Q 12.640625 25.4375 12.15625 24.78125 
Q 11.671875 24.125 11.171875 23.484375 
Q 10.6875 22.859375 10.40625 22.515625 
L 34.71875 22.515625 
z
" id="LiberationSans-34"/>
      </defs>
      <g style="fill:#262626;" transform="translate(407.996961 331.7975)scale(0.08 -0.08)">
       <use xlink:href="#LiberationSans-34"/>
       <use x="55.615234" xlink:href="#LiberationSans-30"/>
       <use x="111.230469" xlink:href="#LiberationSans-30"/>
      </g>
     </g>
    </g>
    <g id="xtick_4">
     <g id="line2d_7">
      <path clip-path="url(#p2348f07a62)" d="M 529.714219 320.4 
L 529.714219 43.2 
" style="fill:none;stroke:#ffffff;stroke-linecap:round;stroke-width:0.8;"/>
     </g>
     <g id="line2d_8"/>
     <g id="text_4">
      <!-- 600 -->
      <defs>
       <path d="M 51.21875 22.515625 
Q 51.21875 17.328125 49.78125 13 
Q 48.34375 8.6875 45.53125 5.578125 
Q 42.71875 2.484375 38.5625 0.75 
Q 34.421875 -0.984375 29 -0.984375 
Q 23 -0.984375 18.5 1.3125 
Q 14.015625 3.609375 11.03125 7.921875 
Q 8.0625 12.25 6.5625 18.53125 
Q 5.078125 24.8125 5.078125 32.8125 
Q 5.078125 42 6.765625 48.921875 
Q 8.453125 55.859375 11.625 60.5 
Q 14.796875 65.140625 19.359375 67.484375 
Q 23.921875 69.828125 29.6875 69.828125 
Q 33.203125 69.828125 36.28125 69.09375 
Q 39.359375 68.359375 41.875 66.71875 
Q 44.390625 65.09375 46.28125 62.40625 
Q 48.1875 59.71875 49.3125 55.8125 
L 40.921875 54.296875 
Q 39.546875 58.734375 36.546875 60.71875 
Q 33.546875 62.703125 29.59375 62.703125 
Q 25.984375 62.703125 23.046875 60.984375 
Q 20.125 59.28125 18.0625 55.875 
Q 16.015625 52.484375 14.90625 47.359375 
Q 13.8125 42.234375 13.8125 35.40625 
Q 16.21875 39.84375 20.5625 42.15625 
Q 24.90625 44.484375 30.515625 44.484375 
Q 35.203125 44.484375 39.015625 42.96875 
Q 42.828125 41.453125 45.53125 38.59375 
Q 48.25 35.75 49.734375 31.671875 
Q 51.21875 27.59375 51.21875 22.515625 
M 42.28125 22.125 
Q 42.28125 25.6875 41.40625 28.5625 
Q 40.53125 31.453125 38.765625 33.46875 
Q 37.015625 35.5 34.421875 36.59375 
Q 31.84375 37.703125 28.421875 37.703125 
Q 26.03125 37.703125 23.578125 36.984375 
Q 21.140625 36.28125 19.15625 34.6875 
Q 17.1875 33.109375 15.9375 30.515625 
Q 14.703125 27.9375 14.703125 24.21875 
Q 14.703125 20.40625 15.671875 17.109375 
Q 16.65625 13.8125 18.484375 11.375 
Q 20.3125 8.9375 22.890625 7.515625 
Q 25.484375 6.109375 28.71875 6.109375 
Q 31.890625 6.109375 34.40625 7.203125 
Q 36.921875 8.296875 38.671875 10.375 
Q 40.4375 12.453125 41.359375 15.421875 
Q 42.28125 18.40625 42.28125 22.125 
" id="LiberationSans-36"/>
      </defs>
      <g style="fill:#262626;" transform="translate(523.041094 331.7975)scale(0.08 -0.08)">
       <use xlink:href="#LiberationSans-36"/>
       <use x="55.615234" xlink:href="#LiberationSans-30"/>
       <use x="111.230469" xlink:href="#LiberationSans-30"/>
      </g>
     </g>
    </g>
    <g id="xtick_5">
     <g id="line2d_9">
      <path clip-path="url(#p2348f07a62)" d="M 644.758353 320.4 
L 644.758353 43.2 
" style="fill:none;stroke:#ffffff;stroke-linecap:round;stroke-width:0.8;"/>
     </g>
     <g id="line2d_10"/>
     <g id="text_5">
      <!-- 800 -->
      <defs>
       <path d="M 51.265625 19.1875 
Q 51.265625 14.796875 49.875 11.109375 
Q 48.484375 7.421875 45.625 4.734375 
Q 42.78125 2.046875 38.328125 0.53125 
Q 33.890625 -0.984375 27.828125 -0.984375 
Q 21.78125 -0.984375 17.359375 0.53125 
Q 12.9375 2.046875 10.03125 4.703125 
Q 7.125 7.375 5.734375 11.0625 
Q 4.34375 14.75 4.34375 19.09375 
Q 4.34375 22.859375 5.484375 25.78125 
Q 6.640625 28.71875 8.5625 30.828125 
Q 10.5 32.953125 12.96875 34.25 
Q 15.4375 35.546875 18.0625 35.984375 
L 18.0625 36.1875 
Q 15.1875 36.859375 12.90625 38.375 
Q 10.640625 39.890625 9.09375 42.015625 
Q 7.5625 44.140625 6.75 46.71875 
Q 5.953125 49.3125 5.953125 52.203125 
Q 5.953125 55.8125 7.34375 59 
Q 8.734375 62.203125 11.46875 64.625 
Q 14.203125 67.046875 18.25 68.4375 
Q 22.3125 69.828125 27.640625 69.828125 
Q 33.25 69.828125 37.375 68.40625 
Q 41.5 67 44.203125 64.578125 
Q 46.921875 62.15625 48.234375 58.9375 
Q 49.5625 55.71875 49.5625 52.09375 
Q 49.5625 49.265625 48.75 46.671875 
Q 47.953125 44.09375 46.40625 41.96875 
Q 44.875 39.84375 42.59375 38.34375 
Q 40.328125 36.859375 37.359375 36.28125 
L 37.359375 36.078125 
Q 40.328125 35.59375 42.859375 34.296875 
Q 45.40625 33.015625 47.265625 30.890625 
Q 49.125 28.765625 50.1875 25.828125 
Q 51.265625 22.90625 51.265625 19.1875 
M 40.4375 51.609375 
Q 40.4375 54.203125 39.765625 56.34375 
Q 39.109375 58.5 37.59375 60.03125 
Q 36.078125 61.578125 33.640625 62.421875 
Q 31.203125 63.28125 27.640625 63.28125 
Q 24.171875 63.28125 21.78125 62.421875 
Q 19.390625 61.578125 17.84375 60.03125 
Q 16.3125 58.5 15.625 56.34375 
Q 14.9375 54.203125 14.9375 51.609375 
Q 14.9375 49.5625 15.46875 47.40625 
Q 16.015625 45.265625 17.421875 43.5 
Q 18.84375 41.75 21.328125 40.625 
Q 23.828125 39.5 27.734375 39.5 
Q 31.890625 39.5 34.40625 40.625 
Q 36.921875 41.75 38.25 43.5 
Q 39.59375 45.265625 40.015625 47.40625 
Q 40.4375 49.5625 40.4375 51.609375 
M 42.140625 20.015625 
Q 42.140625 22.515625 41.453125 24.828125 
Q 40.765625 27.15625 39.109375 28.9375 
Q 37.453125 30.71875 34.640625 31.8125 
Q 31.84375 32.90625 27.640625 32.90625 
Q 23.78125 32.90625 21.0625 31.8125 
Q 18.359375 30.71875 16.671875 28.90625 
Q 14.984375 27.09375 14.203125 24.71875 
Q 13.421875 22.359375 13.421875 19.828125 
Q 13.421875 16.65625 14.203125 14.03125 
Q 14.984375 11.421875 16.6875 9.546875 
Q 18.40625 7.671875 21.1875 6.640625 
Q 23.96875 5.609375 27.9375 5.609375 
Q 31.9375 5.609375 34.671875 6.640625 
Q 37.40625 7.671875 39.0625 9.546875 
Q 40.71875 11.421875 41.421875 14.078125 
Q 42.140625 16.75 42.140625 20.015625 
" id="LiberationSans-38"/>
      </defs>
      <g style="fill:#262626;" transform="translate(638.085228 331.7975)scale(0.08 -0.08)">
       <use xlink:href="#LiberationSans-38"/>
       <use x="55.615234" xlink:href="#LiberationSans-30"/>
       <use x="111.230469" xlink:href="#LiberationSans-30"/>
      </g>
     </g>
    </g>
    <g id="xtick_6">
     <g id="line2d_11">
      <path clip-path="url(#p2348f07a62)" d="M 759.802487 320.4 
L 759.802487 43.2 
" style="fill:none;stroke:#ffffff;stroke-linecap:round;stroke-width:0.8;"/>
     </g>
     <g id="line2d_12"/>
     <g id="text_6">
      <!-- 1000 -->
      <defs>
       <path d="M 7.625 0 
L 7.625 7.46875 
L 25.140625 7.46875 
L 25.140625 60.40625 
L 9.625 49.3125 
L 9.625 57.625 
L 25.875 68.796875 
L 33.984375 68.796875 
L 33.984375 7.46875 
L 50.734375 7.46875 
L 50.734375 0 
z
" id="LiberationSans-31"/>
      </defs>
      <g style="fill:#262626;" transform="translate(750.904987 331.7975)scale(0.08 -0.08)">
       <use xlink:href="#LiberationSans-31"/>
       <use x="55.615234" xlink:href="#LiberationSans-30"/>
       <use x="111.230469" xlink:href="#LiberationSans-30"/>
       <use x="166.845703" xlink:href="#LiberationSans-30"/>
      </g>
     </g>
    </g>
    <g id="xtick_7">
     <g id="line2d_13">
      <path clip-path="url(#p2348f07a62)" d="M 874.846621 320.4 
L 874.846621 43.2 
" style="fill:none;stroke:#ffffff;stroke-linecap:round;stroke-width:0.8;"/>
     </g>
     <g id="line2d_14"/>
     <g id="text_7">
      <!-- 1200 -->
      <g style="fill:#262626;" transform="translate(865.949121 331.7975)scale(0.08 -0.08)">
       <use xlink:href="#LiberationSans-31"/>
       <use x="55.615234" xlink:href="#LiberationSans-32"/>
       <use x="111.230469" xlink:href="#LiberationSans-30"/>
       <use x="166.845703" xlink:href="#LiberationSans-30"/>
      </g>
     </g>
    </g>
    <g id="xtick_8">
     <g id="line2d_15">
      <path clip-path="url(#p2348f07a62)" d="M 989.890754 320.4 
L 989.890754 43.2 
" style="fill:none;stroke:#ffffff;stroke-linecap:round;stroke-width:0.8;"/>
     </g>
     <g id="line2d_16"/>
     <g id="text_8">
      <!-- 1400 -->
      <g style="fill:#262626;" transform="translate(980.993254 331.7975)scale(0.08 -0.08)">
       <use xlink:href="#LiberationSans-31"/>
       <use x="55.615234" xlink:href="#LiberationSans-34"/>
       <use x="111.230469" xlink:href="#LiberationSans-30"/>
       <use x="166.845703" xlink:href="#LiberationSans-30"/>
      </g>
     </g>
    </g>
   </g>
   <g id="matplotlib.axis_2">
    <g id="ytick_1">
     <g id="line2d_17">
      <path clip-path="url(#p2348f07a62)" d="M 144 307.8 
L 1036.8 307.8 
" style="fill:none;stroke:#ffffff;stroke-linecap:round;stroke-width:0.8;"/>
     </g>
     <g id="line2d_18"/>
     <g id="text_9">
      <!-- −1.00 -->
      <defs>
       <path d="M 4.9375 29.6875 
L 4.9375 36.8125 
L 53.515625 36.8125 
L 53.515625 29.6875 
z
" id="LiberationSans-2212"/>
       <path d="M 9.125 0 
L 9.125 10.6875 
L 18.65625 10.6875 
L 18.65625 0 
z
" id="LiberationSans-2e"/>
      </defs>
      <g style="fill:#262626;" transform="translate(118.15875 310.69875)scale(0.08 -0.08)">
       <use xlink:href="#LiberationSans-2212"/>
       <use x="58.398438" xlink:href="#LiberationSans-31"/>
       <use x="114.013672" xlink:href="#LiberationSans-2e"/>
       <use x="141.796875" xlink:href="#LiberationSans-30"/>
       <use x="197.412109" xlink:href="#LiberationSans-30"/>
      </g>
     </g>
    </g>
    <g id="ytick_2">
     <g id="line2d_19">
      <path clip-path="url(#p2348f07a62)" d="M 144 276.3 
L 1036.8 276.3 
" style="fill:none;stroke:#ffffff;stroke-linecap:round;stroke-width:0.8;"/>
     </g>
     <g id="line2d_20"/>
     <g id="text_10">
      <!-- −0.75 -->
      <defs>
       <path d="M 50.59375 61.671875 
Q 45.40625 53.765625 41.0625 46.453125 
Q 36.71875 39.15625 33.59375 31.75 
Q 30.46875 24.359375 28.734375 16.578125 
Q 27 8.796875 27 0 
L 17.828125 0 
Q 17.828125 8.25 19.78125 16.1875 
Q 21.734375 24.125 25.046875 31.765625 
Q 28.375 39.40625 32.765625 46.78125 
Q 37.15625 54.15625 42.09375 61.328125 
L 5.125 61.328125 
L 5.125 68.796875 
L 50.59375 68.796875 
z
" id="LiberationSans-37"/>
       <path d="M 51.421875 22.40625 
Q 51.421875 17.234375 49.859375 12.9375 
Q 48.296875 8.640625 45.21875 5.53125 
Q 42.140625 2.4375 37.578125 0.71875 
Q 33.015625 -0.984375 27 -0.984375 
Q 21.578125 -0.984375 17.546875 0.28125 
Q 13.53125 1.5625 10.734375 3.78125 
Q 7.953125 6 6.3125 8.984375 
Q 4.6875 11.96875 4 15.375 
L 12.890625 16.40625 
Q 13.421875 14.453125 14.390625 12.625 
Q 15.375 10.796875 17.0625 9.34375 
Q 18.75 7.90625 21.21875 7.046875 
Q 23.6875 6.203125 27.203125 6.203125 
Q 30.609375 6.203125 33.390625 7.25 
Q 36.1875 8.296875 38.15625 10.34375 
Q 40.140625 12.40625 41.203125 15.375 
Q 42.28125 18.359375 42.28125 22.21875 
Q 42.28125 25.390625 41.25 28.046875 
Q 40.234375 30.71875 38.328125 32.640625 
Q 36.421875 34.578125 33.65625 35.640625 
Q 30.90625 36.71875 27.390625 36.71875 
Q 25.203125 36.71875 23.34375 36.328125 
Q 21.484375 35.9375 19.890625 35.25 
Q 18.3125 34.578125 17.015625 33.671875 
Q 15.71875 32.765625 14.59375 31.78125 
L 6 31.78125 
L 8.296875 68.796875 
L 47.40625 68.796875 
L 47.40625 61.328125 
L 16.3125 61.328125 
L 14.984375 39.5 
Q 17.328125 41.3125 20.84375 42.59375 
Q 24.359375 43.890625 29.203125 43.890625 
Q 34.328125 43.890625 38.421875 42.328125 
Q 42.53125 40.765625 45.40625 37.90625 
Q 48.296875 35.0625 49.859375 31.109375 
Q 51.421875 27.15625 51.421875 22.40625 
" id="LiberationSans-35"/>
      </defs>
      <g style="fill:#262626;" transform="translate(118.15875 279.19875)scale(0.08 -0.08)">
       <use xlink:href="#LiberationSans-2212"/>
       <use x="58.398438" xlink:href="#LiberationSans-30"/>
       <use x="114.013672" xlink:href="#LiberationSans-2e"/>
       <use x="141.796875" xlink:href="#LiberationSans-37"/>
       <use x="197.412109" xlink:href="#LiberationSans-35"/>
      </g>
     </g>
    </g>
    <g id="ytick_3">
     <g id="line2d_21">
      <path clip-path="url(#p2348f07a62)" d="M 144 244.8 
L 1036.8 244.8 
" style="fill:none;stroke:#ffffff;stroke-linecap:round;stroke-width:0.8;"/>
     </g>
     <g id="line2d_22"/>
     <g id="text_11">
      <!-- −0.50 -->
      <g style="fill:#262626;" transform="translate(118.15875 247.69875)scale(0.08 -0.08)">
       <use xlink:href="#LiberationSans-2212"/>
       <use x="58.398438" xlink:href="#LiberationSans-30"/>
       <use x="114.013672" xlink:href="#LiberationSans-2e"/>
       <use x="141.796875" xlink:href="#LiberationSans-35"/>
       <use x="197.412109" xlink:href="#LiberationSans-30"/>
      </g>
     </g>
    </g>
    <g id="ytick_4">
     <g id="line2d_23">
      <path clip-path="url(#p2348f07a62)" d="M 144 213.3 
L 1036.8 213.3 
" style="fill:none;stroke:#ffffff;stroke-linecap:round;stroke-width:0.8;"/>
     </g>
     <g id="line2d_24"/>
     <g id="text_12">
      <!-- −0.25 -->
      <g style="fill:#262626;" transform="translate(118.15875 216.19875)scale(0.08 -0.08)">
       <use xlink:href="#LiberationSans-2212"/>
       <use x="58.398438" xlink:href="#LiberationSans-30"/>
       <use x="114.013672" xlink:href="#LiberationSans-2e"/>
       <use x="141.796875" xlink:href="#LiberationSans-32"/>
       <use x="197.412109" xlink:href="#LiberationSans-35"/>
      </g>
     </g>
    </g>
    <g id="ytick_5">
     <g id="line2d_25">
      <path clip-path="url(#p2348f07a62)" d="M 144 181.8 
L 1036.8 181.8 
" style="fill:none;stroke:#ffffff;stroke-linecap:round;stroke-width:0.8;"/>
     </g>
     <g id="line2d_26"/>
     <g id="text_13">
      <!-- 0.00 -->
      <g style="fill:#262626;" transform="translate(122.83125 184.69875)scale(0.08 -0.08)">
       <use xlink:href="#LiberationSans-30"/>
       <use x="55.615234" xlink:href="#LiberationSans-2e"/>
       <use x="83.398438" xlink:href="#LiberationSans-30"/>
       <use x="139.013672" xlink:href="#LiberationSans-30"/>
      </g>
     </g>
    </g>
    <g id="ytick_6">
     <g id="line2d_27">
      <path clip-path="url(#p2348f07a62)" d="M 144 150.3 
L 1036.8 150.3 
" style="fill:none;stroke:#ffffff;stroke-linecap:round;stroke-width:0.8;"/>
     </g>
     <g id="line2d_28"/>
     <g id="text_14">
      <!-- 0.25 -->
      <g style="fill:#262626;" transform="translate(122.83125 153.19875)scale(0.08 -0.08)">
       <use xlink:href="#LiberationSans-30"/>
       <use x="55.615234" xlink:href="#LiberationSans-2e"/>
       <use x="83.398438" xlink:href="#LiberationSans-32"/>
       <use x="139.013672" xlink:href="#LiberationSans-35"/>
      </g>
     </g>
    </g>
    <g id="ytick_7">
     <g id="line2d_29">
      <path clip-path="url(#p2348f07a62)" d="M 144 118.8 
L 1036.8 118.8 
" style="fill:none;stroke:#ffffff;stroke-linecap:round;stroke-width:0.8;"/>
     </g>
     <g id="line2d_30"/>
     <g id="text_15">
      <!-- 0.50 -->
      <g style="fill:#262626;" transform="translate(122.83125 121.69875)scale(0.08 -0.08)">
       <use xlink:href="#LiberationSans-30"/>
       <use x="55.615234" xlink:href="#LiberationSans-2e"/>
       <use x="83.398438" xlink:href="#LiberationSans-35"/>
       <use x="139.013672" xlink:href="#LiberationSans-30"/>
      </g>
     </g>
    </g>
    <g id="ytick_8">
     <g id="line2d_31">
      <path clip-path="url(#p2348f07a62)" d="M 144 87.3 
L 1036.8 87.3 
" style="fill:none;stroke:#ffffff;stroke-linecap:round;stroke-width:0.8;"/>
     </g>
     <g id="line2d_32"/>
     <g id="text_16">
      <!-- 0.75 -->
      <g style="fill:#262626;" transform="translate(122.83125 90.19875)scale(0.08 -0.08)">
       <use xlink:href="#LiberationSans-30"/>
       <use x="55.615234" xlink:href="#LiberationSans-2e"/>
       <use x="83.398438" xlink:href="#LiberationSans-37"/>
       <use x="139.013672" xlink:href="#LiberationSans-35"/>
      </g>
     </g>
    </g>
    <g id="ytick_9">
     <g id="line2d_33">
      <path clip-path="url(#p2348f07a62)" d="M 144 55.8 
L 1036.8 55.8 
" style="fill:none;stroke:#ffffff;stroke-linecap:round;stroke-width:0.8;"/>
     </g>
     <g id="line2d_34"/>
     <g id="text_17">
      <!-- 1.00 -->
      <g style="fill:#262626;" transform="translate(122.83125 58.69875)scale(0.08 -0.08)">
       <use xlink:href="#LiberationSans-31"/>
       <use x="55.615234" xlink:href="#LiberationSans-2e"/>
       <use x="83.398438" xlink:href="#LiberationSans-30"/>
       <use x="139.013672" xlink:href="#LiberationSans-30"/>
      </g>
     </g>
    </g>
   </g>
   <g id="line2d_35">
    <path clip-path="url(#p2348f07a62)" d="M 184.581818 171.916757 
L 187.457922 171.917192 
L 188.033142 169.083419 
L 188.608363 157.579389 
L 190.334025 98.083184 
L 190.909246 101.064629 
L 191.484466 124.855826 
L 192.634908 188.535809 
L 193.210128 204.653416 
L 193.785349 206.162112 
L 194.36057 197.850864 
L 195.511011 175.138093 
L 196.086232 168.228865 
L 196.661452 165.382509 
L 197.236673 165.86001 
L 197.811894 168.976913 
L 198.387114 174.093755 
L 200.112776 193.798766 
L 200.687997 200.966103 
L 201.263218 209.631939 
L 202.98888 241.41697 
L 203.5641 237.123511 
L 204.139321 216.141189 
L 205.289762 158.485998 
L 205.864983 141.871312 
L 206.440204 137.077638 
L 207.015424 140.987042 
L 209.316307 174.4603 
L 209.891528 179.212807 
L 210.466748 181.390264 
L 211.041969 180.635354 
L 211.61719 177.415584 
L 212.767631 168.873166 
L 213.342852 166.175958 
L 213.918072 165.41501 
L 214.493293 166.456163 
L 216.794176 174.996449 
L 217.369396 175.504928 
L 217.944617 175.105489 
L 218.519838 174.012985 
L 219.670279 171.161591 
L 220.2455 170.080734 
L 220.82072 169.509733 
L 221.395941 169.479939 
L 221.971162 169.888952 
L 224.272044 172.407489 
L 224.847265 172.669816 
L 225.422486 172.746276 
L 227.148148 172.535771 
L 228.298589 172.303742 
L 229.44903 171.884021 
L 230.599472 171.389111 
L 231.174692 171.248756 
L 231.749913 171.264615 
L 232.325134 171.476335 
L 232.900354 171.893569 
L 234.050796 173.152397 
L 235.201237 174.412758 
L 235.776458 174.805827 
L 236.351678 174.878446 
L 236.926899 174.531126 
L 237.50212 173.799805 
L 239.227782 170.926414 
L 239.803002 170.540508 
L 240.378223 170.879016 
L 240.953444 172.112002 
L 241.528664 174.326081 
L 242.103885 177.511214 
L 243.254326 185.971534 
L 243.829547 190.319663 
L 244.404768 193.81824 
L 244.979988 195.557859 
L 245.555209 194.393486 
L 246.13043 189.119377 
L 246.70565 179.07417 
L 247.856092 153.727008 
L 248.431312 146.776987 
L 249.006533 142.978151 
L 249.581754 137.542828 
L 250.732195 120.023511 
L 251.307416 116.857218 
L 251.882636 123.195603 
L 252.457857 139.061687 
L 253.608298 182.338515 
L 254.183519 198.467889 
L 254.75874 206.037971 
L 255.33396 204.88741 
L 255.909181 196.989819 
L 257.634843 163.793393 
L 258.210064 158.425087 
L 258.785284 157.883092 
L 259.360505 161.52034 
L 261.086167 179.919902 
L 261.661388 182.702994 
L 262.236608 182.494988 
L 262.811829 179.783892 
L 264.537491 168.116114 
L 265.112712 166.584193 
L 265.687932 166.957231 
L 266.263153 168.914693 
L 267.988815 177.032279 
L 268.564036 178.219878 
L 269.139256 178.107332 
L 269.714477 176.879763 
L 271.440139 171.099172 
L 272.01536 170.054296 
L 272.590581 169.868397 
L 273.165801 170.478921 
L 274.316243 173.099432 
L 274.891463 174.448101 
L 275.466684 175.470244 
L 276.041905 175.988023 
L 276.617125 175.981577 
L 277.192346 175.542648 
L 278.342787 173.899661 
L 279.493229 172.241871 
L 280.068449 171.664406 
L 280.64367 171.350979 
L 281.218891 171.348196 
L 281.794111 171.70215 
L 282.369332 172.437286 
L 282.944553 173.533194 
L 284.094994 176.527937 
L 285.245435 179.410478 
L 285.820656 180.113652 
L 286.395877 179.888696 
L 286.971097 178.408819 
L 287.546318 175.452918 
L 288.121539 170.98927 
L 289.847201 154.493958 
L 290.422421 153.978293 
L 290.997642 160.655782 
L 291.572863 172.866925 
L 292.148083 180.586959 
L 292.723304 173.072387 
L 294.448966 106.41909 
L 295.024187 107.18679 
L 295.599407 125.878631 
L 297.325069 210.138737 
L 297.90029 221.602398 
L 298.475511 220.779107 
L 299.050731 210.289139 
L 300.776393 162.348405 
L 301.351614 153.714662 
L 301.926835 152.107642 
L 302.502055 156.865984 
L 304.227717 184.166501 
L 304.802938 188.736891 
L 305.378159 188.962494 
L 305.953379 185.511187 
L 307.679041 169.390223 
L 308.254262 167.070732 
L 308.829483 167.316696 
L 309.404703 169.728646 
L 310.555145 177.124942 
L 311.130365 179.912638 
L 311.705586 181.123019 
L 312.280807 180.613424 
L 312.856027 178.711329 
L 314.006469 173.468521 
L 314.581689 171.566549 
L 315.15691 170.764607 
L 315.732131 171.142465 
L 316.307351 172.465184 
L 317.457793 176.118849 
L 318.033013 177.498322 
L 318.608234 178.143722 
L 319.183455 177.957237 
L 319.758675 177.039612 
L 321.484337 172.695013 
L 322.059558 171.76905 
L 322.634779 171.447332 
L 323.209999 171.749819 
L 323.78522 172.574452 
L 326.086103 177.01093 
L 326.661323 177.432841 
L 327.236544 177.332982 
L 327.811765 176.682466 
L 328.386985 175.490127 
L 329.537427 171.826059 
L 330.687868 167.862238 
L 331.263089 166.66792 
L 331.838309 166.680914 
L 332.41353 168.543594 
L 332.988751 172.951628 
L 333.563971 180.58024 
L 334.139192 191.838147 
L 335.289633 220.377011 
L 335.864854 227.595983 
L 336.440075 220.830264 
L 338.165737 163.368993 
L 338.740957 156.687104 
L 339.316178 156.846373 
L 340.466619 162.400279 
L 341.04184 163.704823 
L 341.617061 164.164318 
L 342.192281 164.931847 
L 343.917943 169.786388 
L 344.493164 170.439789 
L 345.068385 170.486131 
L 347.369267 169.645576 
L 348.519709 169.436312 
L 349.094929 169.449873 
L 349.67015 169.631157 
L 351.395812 170.44174 
L 351.971033 170.473519 
L 352.546253 170.337823 
L 353.696695 169.707511 
L 354.847136 168.995627 
L 355.422357 168.771387 
L 355.997577 168.706332 
L 356.572798 168.833281 
L 357.723239 169.567381 
L 358.873681 170.485933 
L 359.448901 170.799265 
L 360.024122 170.914505 
L 360.599343 170.808698 
L 361.174563 170.484716 
L 363.475446 168.510427 
L 364.050667 168.294926 
L 364.625888 168.32637 
L 365.201108 168.615648 
L 366.35155 169.780516 
L 367.501991 171.065852 
L 368.077212 171.461516 
L 368.652432 171.579724 
L 369.227653 171.367861 
L 369.802874 170.824028 
L 370.953315 169.041256 
L 372.103756 167.280443 
L 372.678977 166.860271 
L 373.254198 166.989529 
L 373.829418 167.800405 
L 374.404639 169.334994 
L 374.97986 171.530149 
L 376.705522 179.727926 
L 377.280742 181.631181 
L 377.855963 182.213726 
L 378.431184 180.906351 
L 379.006404 177.241342 
L 379.581625 171.121764 
L 380.732066 156.844259 
L 381.307287 154.95601 
L 381.882508 157.025356 
L 382.457728 154.249153 
L 383.032949 137.539076 
L 384.18339 76.014963 
L 384.758611 57.393037 
L 385.333832 62.050736 
L 385.909052 90.878536 
L 387.634714 224.480164 
L 388.209935 247.432041 
L 388.785156 251.351711 
L 389.360376 238.818522 
L 391.661259 148.859497 
L 392.23648 143.697524 
L 392.8117 148.606643 
L 393.386921 160.659534 
L 394.537362 188.685734 
L 395.112583 196.926214 
L 395.687804 198.791101 
L 396.263024 194.773482 
L 397.988686 169.792408 
L 398.563907 165.106055 
L 399.139128 164.335797 
L 399.714348 167.124379 
L 401.44001 182.903633 
L 402.015231 185.660054 
L 402.590452 185.87795 
L 403.165672 183.817438 
L 404.891334 172.989236 
L 405.466555 171.004982 
L 406.041776 170.66586 
L 406.616996 171.819974 
L 408.917879 180.08248 
L 409.4931 180.482735 
L 410.06832 179.909262 
L 410.643541 178.604649 
L 411.793982 175.291643 
L 412.369203 174.001621 
L 412.944424 173.265263 
L 413.519644 173.13619 
L 414.094865 173.548026 
L 414.670086 174.369121 
L 416.970968 178.557175 
L 417.546189 179.220514 
L 418.12141 179.599487 
L 418.69663 179.648735 
L 419.271851 179.318259 
L 419.847072 178.585516 
L 420.422292 177.455316 
L 422.147954 173.379791 
L 422.723175 173.250219 
L 423.298396 175.00783 
L 423.873616 179.826557 
L 424.448837 189.120366 
L 425.024058 204.391218 
L 426.74972 271.871912 
L 427.32494 266.941716 
L 427.900161 228.464292 
L 429.050602 106.818798 
L 429.625823 66.471405 
L 430.201044 55.8 
L 430.776264 73.181874 
L 431.926706 152.21821 
L 432.501926 190.320549 
L 433.077147 216.49588 
L 433.652368 227.791744 
L 434.227588 224.385694 
L 434.802809 209.179709 
L 435.95325 165.410304 
L 436.528471 148.679082 
L 437.103692 140.660658 
L 437.678912 142.022124 
L 438.254133 150.876184 
L 439.404574 176.246095 
L 439.979795 185.467089 
L 440.555016 189.531807 
L 441.130236 188.298814 
L 441.705457 182.96451 
L 442.855898 168.288821 
L 443.431119 162.97839 
L 444.00634 160.643845 
L 444.58156 161.380271 
L 445.156781 164.488041 
L 446.307222 172.916729 
L 446.882443 175.897202 
L 447.457664 177.132957 
L 448.032884 176.597374 
L 448.608105 174.745048 
L 449.758546 170.052086 
L 450.333767 168.574579 
L 450.908988 168.159632 
L 451.484208 168.747957 
L 453.20987 172.717065 
L 453.785091 173.362107 
L 454.360312 173.305364 
L 454.935533 172.6545 
L 456.085974 170.695664 
L 456.661195 170.049006 
L 457.236415 169.938632 
L 457.811636 170.411148 
L 458.386857 171.349437 
L 459.537298 173.695039 
L 460.112519 174.535873 
L 460.687739 174.81998 
L 461.26296 174.471388 
L 461.838181 173.573356 
L 463.563843 170.026394 
L 464.139063 169.580985 
L 464.714284 169.939413 
L 465.289505 171.218539 
L 465.864725 173.406553 
L 467.015167 179.907011 
L 468.165608 187.072097 
L 468.740829 189.710755 
L 469.316049 190.946748 
L 469.89127 190.135599 
L 470.466491 186.691692 
L 471.041711 180.368961 
L 472.192153 163.462235 
L 472.767373 157.960647 
L 473.342594 153.809781 
L 473.917815 144.984504 
L 474.493035 127.923216 
L 475.068256 106.52993 
L 475.643477 90.222018 
L 476.218697 87.983376 
L 476.793918 103.350336 
L 477.369139 133.024959 
L 478.51958 200.895199 
L 479.094801 221.998696 
L 479.670021 228.924707 
L 480.245242 222.695458 
L 480.820463 207.142968 
L 481.970904 168.697632 
L 482.546125 155.167017 
L 483.121345 149.174421 
L 483.696566 150.942041 
L 484.271787 158.753005 
L 485.422228 180.19639 
L 485.997449 187.685677 
L 486.572669 190.549836 
L 487.14789 188.725091 
L 487.723111 183.415649 
L 488.873552 170.144479 
L 489.448773 165.836444 
L 490.023993 164.452981 
L 490.599214 165.947899 
L 491.174435 169.556856 
L 492.324876 178.23792 
L 492.900097 181.019408 
L 493.475317 181.895323 
L 494.050538 180.890935 
L 494.625759 178.494627 
L 495.7762 172.633464 
L 496.351421 170.646212 
L 496.926641 169.875702 
L 497.501862 170.352863 
L 498.077083 171.808794 
L 499.802745 177.357981 
L 500.377965 178.269705 
L 500.953186 178.418471 
L 501.528407 177.86836 
L 502.103627 176.801117 
L 503.254069 174.153046 
L 503.829289 173.101962 
L 504.40451 172.452347 
L 504.979731 172.265845 
L 505.554951 172.533298 
L 506.130172 173.188971 
L 506.705393 174.149595 
L 507.855834 176.683967 
L 509.006275 179.295784 
L 509.581496 180.217262 
L 510.156717 180.617244 
L 510.731937 180.274559 
L 511.307158 179.001186 
L 511.882379 176.682637 
L 512.457599 173.353025 
L 514.183261 161.916774 
L 514.758482 161.54053 
L 515.333703 166.430789 
L 515.908923 178.243615 
L 516.484144 193.600071 
L 517.059365 201.547284 
L 517.634585 192.260092 
L 518.785027 142.089447 
L 519.360247 127.069572 
L 519.935468 129.273086 
L 520.510689 146.375061 
L 521.66113 192.932196 
L 522.236351 206.816925 
L 522.811571 210.00641 
L 523.386792 204.033254 
L 524.537233 177.989568 
L 525.112454 164.944841 
L 525.687675 155.779301 
L 526.262895 152.113065 
L 526.838116 154.084734 
L 527.413337 160.421993 
L 528.563778 176.933887 
L 529.138999 182.461327 
L 529.714219 184.382146 
L 530.28944 182.802375 
L 530.864661 178.769273 
L 532.015102 169.381069 
L 532.590323 166.619355 
L 533.165543 165.989677 
L 533.740764 167.338387 
L 535.466426 175.823672 
L 536.041647 177.3986 
L 536.616867 177.567725 
L 537.192088 176.449666 
L 538.91775 170.539938 
L 539.492971 169.571582 
L 540.068191 169.597379 
L 540.643412 170.516259 
L 542.369074 175.096291 
L 542.944295 175.889324 
L 543.519515 175.925884 
L 544.094736 175.250155 
L 545.245178 172.696752 
L 545.820398 171.446667 
L 546.395619 170.583422 
L 546.97084 170.258829 
L 547.54606 170.501318 
L 548.121281 171.226881 
L 550.422164 175.15475 
L 550.997384 175.483647 
L 551.572605 175.342794 
L 552.147826 174.735717 
L 552.723046 173.70525 
L 553.873488 170.794511 
L 555.023929 167.942589 
L 555.59915 167.122913 
L 556.17437 167.054157 
L 556.749591 167.966769 
L 557.324812 170.018946 
L 557.900032 173.241475 
L 559.625694 185.962598 
L 560.200915 187.426924 
L 560.776136 183.629895 
L 561.351356 172.045365 
L 561.926577 154.838178 
L 562.501798 143.607897 
L 563.077018 151.782248 
L 563.652239 180.199153 
L 564.22746 215.72818 
L 564.80268 241.510076 
L 565.377901 246.554865 
L 565.953122 229.76471 
L 567.678784 135.425599 
L 568.254004 120.17596 
L 568.829225 118.681827 
L 569.404446 128.543242 
L 571.130108 182.173925 
L 571.705328 193.208752 
L 572.280549 196.427294 
L 572.85577 192.214425 
L 573.43099 182.791053 
L 574.581432 161.540393 
L 575.156652 155.505678 
L 575.731873 154.293285 
L 576.307094 157.385059 
L 578.032756 175.361108 
L 578.607976 178.493842 
L 579.183197 178.787622 
L 579.758418 176.595328 
L 581.48408 165.575644 
L 582.0593 163.923913 
L 582.634521 164.094744 
L 583.209742 165.812195 
L 584.935404 173.223328 
L 585.510624 174.185807 
L 586.085845 173.902812 
L 586.661066 172.580366 
L 588.386728 167.194158 
L 588.961948 166.476421 
L 589.537169 166.653767 
L 590.11239 167.614807 
L 591.838052 171.947737 
L 592.413272 172.722021 
L 592.988493 172.822913 
L 593.563714 172.256221 
L 594.138934 171.164927 
L 595.864596 167.139522 
L 596.439817 166.303953 
L 597.015038 165.982481 
L 597.590258 166.252148 
L 598.165479 167.099721 
L 598.7407 168.42981 
L 600.466362 173.367697 
L 601.041582 174.392142 
L 601.616803 174.491629 
L 602.192024 173.24109 
L 602.767244 170.192867 
L 603.342465 164.946001 
L 603.917686 157.243456 
L 605.643348 125.565207 
L 606.218568 122.141081 
L 606.793789 130.404684 
L 607.94423 162.907588 
L 608.519451 167.682607 
L 609.094672 162.169321 
L 609.669892 153.234023 
L 610.245113 148.435403 
L 610.820334 151.741629 
L 611.395554 162.548021 
L 612.545996 190.022371 
L 613.121216 198.207533 
L 613.696437 200.509405 
L 614.271658 197.759259 
L 614.846878 191.555963 
L 615.99732 176.097943 
L 616.57254 170.279657 
L 617.147761 167.300565 
L 617.722982 167.420443 
L 618.298202 170.132583 
L 619.448644 178.541828 
L 620.023864 181.594587 
L 620.599085 182.794327 
L 621.174306 182.110525 
L 621.749526 180.039508 
L 622.899968 174.915354 
L 623.475188 173.318242 
L 624.050409 172.885431 
L 624.62563 173.572459 
L 625.776071 176.875909 
L 626.351292 178.424064 
L 626.926512 179.280164 
L 627.501733 179.239238 
L 628.076954 178.36554 
L 629.802616 174.017449 
L 630.377836 173.219873 
L 630.953057 173.099357 
L 631.528278 173.618037 
L 632.678719 175.741957 
L 633.25394 176.77622 
L 633.82916 177.454225 
L 634.404381 177.634298 
L 634.979602 177.28694 
L 635.554822 176.498607 
L 637.280485 173.312379 
L 637.855705 172.623615 
L 638.430926 172.355619 
L 639.006147 172.554106 
L 639.581367 173.160319 
L 640.731809 175.1014 
L 641.88225 176.939753 
L 642.457471 177.408967 
L 643.032691 177.39212 
L 643.607912 176.792147 
L 644.183133 175.565328 
L 644.758353 173.748304 
L 646.484015 166.740052 
L 647.059236 165.184257 
L 647.634457 165.02509 
L 648.209677 167.068754 
L 648.784898 172.273651 
L 649.360119 181.60741 
L 649.935339 195.557587 
L 651.085781 227.66999 
L 651.661001 230.609828 
L 652.236222 216.527597 
L 653.386663 168.280431 
L 653.961884 154.227156 
L 654.537105 151.08286 
L 655.112325 155.54408 
L 656.262767 169.673573 
L 656.837987 173.898099 
L 657.413208 175.743082 
L 657.988429 176.072467 
L 658.563649 175.325121 
L 659.13887 173.589849 
L 660.289311 168.862031 
L 660.864532 167.321676 
L 661.439753 167.014971 
L 662.014973 167.908313 
L 663.740635 172.823438 
L 664.315856 173.549336 
L 664.891077 173.587701 
L 665.466297 173.112726 
L 667.191959 171.033142 
L 667.76718 170.66998 
L 668.342401 170.5481 
L 669.492842 170.748544 
L 670.643283 170.90146 
L 671.793725 170.65745 
L 672.944166 170.46842 
L 673.519387 170.580424 
L 674.669828 171.242529 
L 675.820269 171.953896 
L 676.39549 172.076275 
L 676.970711 171.958994 
L 677.545931 171.592173 
L 679.846814 169.436923 
L 680.422035 169.349761 
L 680.997255 169.613112 
L 681.572476 170.192461 
L 683.873359 173.325622 
L 684.448579 173.559359 
L 685.0238 173.347886 
L 685.599021 172.675147 
L 686.174241 171.598416 
L 687.899903 167.733083 
L 688.475124 167.099415 
L 689.050345 167.265369 
L 689.625565 168.485742 
L 690.200786 170.947853 
L 690.776007 174.708082 
L 691.926448 185.519576 
L 693.076889 196.895144 
L 693.65211 199.561632 
L 694.227331 197.150385 
L 694.802551 187.74959 
L 695.952993 160.81587 
L 696.528213 156.568794 
L 697.103434 159.083787 
L 697.678655 162.258096 
L 698.253875 161.339993 
L 698.829096 156.017864 
L 699.404317 149.537399 
L 699.979537 145.927844 
L 700.554758 147.710164 
L 701.129979 154.866962 
L 702.28042 174.863962 
L 702.855641 182.018442 
L 703.430861 185.407133 
L 704.006082 185.08109 
L 704.581303 181.82094 
L 706.306965 167.165919 
L 706.882185 164.626472 
L 707.457406 164.302647 
L 708.032627 165.98098 
L 709.758289 174.656396 
L 710.333509 175.888335 
L 710.90873 175.650454 
L 711.483951 174.193184 
L 712.634392 169.895698 
L 713.209613 168.273099 
L 713.784833 167.544994 
L 714.360054 167.800474 
L 714.935275 168.878872 
L 716.660937 173.41232 
L 717.236157 174.119664 
L 717.811378 174.109426 
L 718.386599 173.451735 
L 720.112261 170.054493 
L 720.687481 169.339393 
L 721.262702 169.102109 
L 721.837923 169.370384 
L 722.413143 170.065335 
L 724.138805 172.857748 
L 724.714026 173.451094 
L 725.289247 173.719778 
L 725.864467 173.638977 
L 726.439688 173.237461 
L 727.59013 171.788845 
L 728.740571 170.200616 
L 729.315792 169.671929 
L 729.891012 169.483084 
L 730.466233 169.729553 
L 731.041454 170.463298 
L 731.616674 171.67411 
L 732.767116 175.170353 
L 733.917557 178.763919 
L 734.492778 179.792964 
L 735.067998 179.781334 
L 735.643219 178.338461 
L 736.21844 175.168491 
L 736.79366 170.150522 
L 738.519322 149.746939 
L 739.094543 147.943952 
L 739.669764 153.53892 
L 740.244984 163.730538 
L 740.820205 168.902166 
L 741.395426 162.027717 
L 742.545867 130.49097 
L 743.121088 125.233367 
L 743.696308 134.053902 
L 744.271529 154.191175 
L 745.42197 199.64188 
L 745.997191 211.722907 
L 746.572412 213.363009 
L 747.147632 206.27193 
L 749.448515 158.236521 
L 750.023736 155.32748 
L 750.598956 157.831083 
L 751.174177 164.301487 
L 752.324618 179.918061 
L 752.899839 184.735029 
L 753.47506 186.039334 
L 754.05028 184.056138 
L 755.775942 170.638658 
L 756.351163 168.092411 
L 756.926384 167.702627 
L 757.501604 169.269202 
L 759.227266 178.021456 
L 759.802487 179.525412 
L 760.377708 179.58547 
L 760.952928 178.35848 
L 762.67859 172.120443 
L 763.253811 171.019592 
L 763.829032 170.916708 
L 764.404252 171.7507 
L 766.705135 177.472402 
L 767.280356 177.771161 
L 767.855576 177.355627 
L 768.430797 176.387118 
L 770.156459 172.757405 
L 770.73168 172.112543 
L 771.3069 171.978239 
L 771.882121 172.347795 
L 772.457342 173.13606 
L 774.758224 177.45477 
L 775.333445 177.996014 
L 775.908666 178.036531 
L 776.483886 177.49041 
L 777.059107 176.324297 
L 777.634328 174.550477 
L 778.784769 169.679262 
L 779.93521 165.003877 
L 780.510431 163.985301 
L 781.085652 164.754741 
L 781.660872 168.057044 
L 782.236093 174.530989 
L 783.961755 203.412716 
L 784.536976 203.508858 
L 785.112196 197.945505 
L 785.687417 196.210387 
L 786.262638 205.218704 
L 787.413079 239.715138 
L 787.9883 245.7077 
L 788.56352 235.549914 
L 789.138741 210.801735 
L 790.289182 147.699318 
L 790.864403 125.880336 
L 791.439624 116.540384 
L 792.014844 119.420197 
L 792.590065 131.642349 
L 794.315727 180.511042 
L 794.890948 188.136884 
L 795.466168 188.630688 
L 796.041389 183.048681 
L 797.767051 156.447142 
L 798.342272 152.767673 
L 798.917492 153.400966 
L 799.492713 157.527856 
L 800.643154 169.570259 
L 801.218375 174.048648 
L 801.793596 176.029392 
L 802.368816 175.347364 
L 802.944037 172.537425 
L 804.094478 164.807603 
L 804.669699 162.065744 
L 805.24492 160.988202 
L 805.82014 161.662148 
L 806.395361 163.726105 
L 807.545802 169.277554 
L 808.121023 171.349328 
L 808.696244 172.323182 
L 809.271464 172.097335 
L 809.846685 170.889871 
L 811.572347 165.723557 
L 812.147568 164.85535 
L 812.722788 164.756821 
L 813.298009 165.367332 
L 814.44845 167.858077 
L 815.598892 170.253025 
L 816.174112 170.89334 
L 816.749333 171.060907 
L 817.324554 170.756579 
L 817.899774 170.044804 
L 819.050216 167.788844 
L 820.775878 163.99642 
L 821.351099 163.195297 
L 821.926319 162.918127 
L 822.50154 163.330761 
L 823.076761 164.545985 
L 823.651981 166.559774 
L 825.377643 173.920946 
L 825.952864 173.672734 
L 826.528085 168.908779 
L 827.103305 156.776254 
L 828.253747 112.120737 
L 828.828967 103.506877 
L 829.404188 127.570913 
L 831.12985 293.865784 
L 831.705071 307.8 
L 832.280291 285.767931 
L 832.855512 237.769798 
L 834.005953 129.737935 
L 834.581174 96.906567 
L 835.156395 85.626049 
L 835.731615 94.297205 
L 836.306836 117.695174 
L 837.457277 177.95942 
L 838.032498 199.693106 
L 838.607719 209.403095 
L 839.182939 206.540676 
L 839.75816 193.858688 
L 840.908601 159.354648 
L 841.483822 147.426104 
L 842.059043 142.803432 
L 842.634263 145.462484 
L 843.209484 153.492605 
L 844.359925 173.658379 
L 844.935146 180.285336 
L 845.510367 182.575135 
L 846.085587 180.621507 
L 846.660808 175.599501 
L 847.811249 163.645549 
L 848.38647 160.026855 
L 848.961691 159.134945 
L 849.536911 160.810857 
L 851.262573 171.765532 
L 851.837794 173.851621 
L 852.413015 174.170447 
L 852.988235 172.870749 
L 854.713897 165.571211 
L 855.289118 164.305921 
L 855.864339 164.261858 
L 856.439559 165.336672 
L 858.165221 170.927427 
L 858.740442 171.949382 
L 859.315663 172.053031 
L 859.890883 171.258309 
L 860.466104 169.776089 
L 861.616545 166.160611 
L 862.191766 164.775749 
L 862.766987 164.037652 
L 863.342207 164.064049 
L 863.917428 164.825065 
L 864.492649 166.154949 
L 866.218311 170.850258 
L 866.793531 171.600062 
L 867.368752 171.387969 
L 867.943973 169.87323 
L 868.519193 166.71328 
L 869.094414 161.56737 
L 869.669635 154.148851 
L 870.244855 144.323791 
L 871.970517 107.373343 
L 872.545738 103.086023 
L 873.120959 112.987341 
L 873.696179 137.881864 
L 874.846621 197.425236 
L 875.421841 216.142212 
L 875.997062 224.522454 
L 876.572283 223.850589 
L 877.147503 216.069569 
L 878.297945 188.44584 
L 879.448386 161.651132 
L 880.023607 154.682148 
L 880.598827 153.837644 
L 881.174048 158.364039 
L 882.89971 181.243852 
L 883.474931 184.898391 
L 884.050151 185.11465 
L 884.625372 182.477049 
L 886.351034 169.683811 
L 886.926255 167.518461 
L 887.501475 167.308682 
L 888.076696 168.8524 
L 889.802358 177.090735 
L 890.377579 178.608878 
L 890.952799 178.876499 
L 891.52802 178.016375 
L 892.678461 174.5148 
L 893.253682 172.826289 
L 893.828903 171.667168 
L 894.404123 171.185042 
L 894.979344 171.353758 
L 895.554565 172.00152 
L 896.705006 173.761611 
L 897.280227 174.434374 
L 897.855447 174.81777 
L 898.430668 174.904004 
L 899.005889 174.750713 
L 900.15633 174.089731 
L 904.182875 171.502558 
L 904.758095 171.404305 
L 905.333316 171.534739 
L 905.908537 171.894473 
L 907.058978 173.139321 
L 908.209419 174.377862 
L 908.78464 174.580639 
L 909.359861 174.261142 
L 909.935082 173.287353 
L 910.510302 171.616246 
L 911.660744 166.579452 
L 912.811185 161.295111 
L 913.386406 159.753504 
L 913.961626 159.692525 
L 914.536847 161.66873 
L 915.112068 166.163339 
L 915.687288 173.360562 
L 916.83773 191.891998 
L 917.41295 197.073103 
L 917.988171 195.950099 
L 918.563392 193.027382 
L 919.138612 196.199371 
L 919.713833 208.003092 
L 920.289054 223.069929 
L 920.864274 232.420454 
L 921.439495 229.300202 
L 922.014716 212.700693 
L 923.740378 139.358297 
L 924.315598 128.785727 
L 924.890819 129.134279 
L 925.46604 138.212817 
L 927.191702 180.341404 
L 927.766922 187.974102 
L 928.342143 189.541322 
L 928.917364 185.624142 
L 930.643026 162.239952 
L 931.218246 158.173734 
L 931.793467 157.869246 
L 932.368688 160.836879 
L 934.09435 175.213373 
L 934.66957 177.302594 
L 935.244791 177.041829 
L 935.820012 174.8023 
L 937.545674 165.292233 
L 938.120894 164.033185 
L 938.696115 164.327646 
L 939.271336 165.906188 
L 940.996998 172.495558 
L 941.572218 173.462928 
L 942.147439 173.394862 
L 942.72266 172.429551 
L 944.448322 167.734856 
L 945.023542 166.78432 
L 945.598763 166.496339 
L 946.173984 166.878756 
L 946.749204 167.791027 
L 948.474866 171.208137 
L 949.050087 171.854074 
L 949.625308 172.063519 
L 950.200528 171.843079 
L 950.775749 171.257774 
L 951.92619 169.392287 
L 953.076632 167.404653 
L 953.651852 166.687326 
L 954.227073 166.321006 
L 954.802294 166.422433 
L 955.377514 167.087751 
L 955.952735 168.363238 
L 956.527956 170.231327 
L 958.253618 177.531779 
L 958.828838 179.09992 
L 959.404059 179.079184 
L 959.97928 176.508872 
L 960.5545 170.338256 
L 961.129721 159.760598 
L 962.280162 130.784612 
L 962.855383 124.473511 
L 963.430604 132.017502 
L 964.581045 163.371926 
L 965.156266 168.70548 
L 965.731486 164.811287 
L 966.306707 157.31436 
L 966.881928 152.51615 
L 967.457148 154.07041 
L 968.032369 161.957086 
L 969.18281 183.76669 
L 969.758031 190.977579 
L 970.333252 193.908276 
L 970.908472 192.854369 
L 971.483693 188.739824 
L 973.209355 171.383784 
L 973.784576 168.290697 
L 974.359796 167.751431 
L 974.935017 169.532655 
L 976.660679 179.104694 
L 977.2359 180.440786 
L 977.81112 180.153725 
L 978.386341 178.565804 
L 979.536782 174.050568 
L 980.112003 172.450655 
L 980.687224 171.853054 
L 981.262444 172.296969 
L 981.837665 173.551314 
L 982.988106 176.761282 
L 983.563327 177.822864 
L 984.138548 178.140312 
L 984.713768 177.69879 
L 985.288989 176.65965 
L 986.43943 173.986843 
L 987.014651 173.036887 
L 987.589872 172.639821 
L 988.165092 172.82276 
L 988.740313 173.492817 
L 990.465975 176.361505 
L 991.041196 176.909775 
L 991.616416 177.036577 
L 992.191637 176.735942 
L 992.766858 176.074956 
L 994.49252 173.378866 
L 995.06774 172.755754 
L 995.642961 172.474839 
L 996.218182 172.599008 
L 996.218182 172.599008 
" style="fill:none;stroke:#4c72b0;stroke-linecap:round;stroke-width:1.4;"/>
   </g>
   <g id="patch_3">
    <path d="M 144 320.4 
L 144 43.2 
" style="fill:none;"/>
   </g>
   <g id="patch_4">
    <path d="M 1036.8 320.4 
L 1036.8 43.2 
" style="fill:none;"/>
   </g>
   <g id="patch_5">
    <path d="M 144 320.4 
L 1036.8 320.4 
" style="fill:none;"/>
   </g>
   <g id="patch_6">
    <path d="M 144 43.2 
L 1036.8 43.2 
" style="fill:none;"/>
   </g>
  </g>
 </g>
 <defs>
  <clipPath id="p2348f07a62">
   <rect height="277.2" width="892.8" x="144" y="43.2"/>
  </clipPath>
 </defs>
</svg>
