<?xml version="1.0" encoding="utf-8" standalone="no"?>
<!DOCTYPE svg PUBLIC "-//W3C//DTD SVG 1.1//EN"
  "http://www.w3.org/Graphics/SVG/1.1/DTD/svg11.dtd">
<!-- Created with matplotlib (http://matplotlib.org/) -->
<svg height="360pt" version="1.1" viewBox="0 0 1152 360" width="1152pt" xmlns="http://www.w3.org/2000/svg" xmlns:xlink="http://www.w3.org/1999/xlink">
 <defs>
  <style type="text/css">
*{stroke-linecap:butt;stroke-linejoin:round;}
  </style>
 </defs>
 <g id="figure_1">
  <g id="patch_1">
   <path d="M 0 360 
L 1152 360 
L 1152 0 
L 0 0 
z
" style="fill:#ffffff;"/>
  </g>
  <g id="axes_1">
   <g id="patch_2">
    <path d="M 144 320.4 
L 1036.8 320.4 
L 1036.8 43.2 
L 144 43.2 
z
" style="fill:#eaeaf2;"/>
   </g>
   <g id="matplotlib.axis_1">
    <g id="xtick_1">
     <g id="line2d_1">
      <path clip-path="url(#p27be0d2387)" d="M 184.581818 320.4 
L 184.581818 43.2 
" style="fill:none;stroke:#ffffff;stroke-linecap:round;stroke-width:0.8;"/>
     </g>
     <g id="line2d_2"/>
     <g id="text_1">
      <!-- 0.000 -->
      <defs>
       <path d="M 51.703125 34.421875 
Q 51.703125 24.515625 49.828125 17.75 
Q 47.953125 10.984375 44.703125 6.8125 
Q 41.453125 2.640625 37.0625 0.828125 
Q 32.671875 -0.984375 27.6875 -0.984375 
Q 22.65625 -0.984375 18.3125 0.828125 
Q 13.96875 2.640625 10.765625 6.78125 
Q 7.5625 10.9375 5.734375 17.703125 
Q 3.90625 24.46875 3.90625 34.421875 
Q 3.90625 44.828125 5.734375 51.640625 
Q 7.5625 58.453125 10.78125 62.5 
Q 14.015625 66.546875 18.40625 68.1875 
Q 22.796875 69.828125 27.984375 69.828125 
Q 32.90625 69.828125 37.21875 68.1875 
Q 41.546875 66.546875 44.765625 62.5 
Q 48 58.453125 49.84375 51.640625 
Q 51.703125 44.828125 51.703125 34.421875 
M 42.78125 34.421875 
Q 42.78125 42.625 41.796875 48.0625 
Q 40.828125 53.515625 38.921875 56.765625 
Q 37.015625 60.015625 34.25 61.359375 
Q 31.5 62.703125 27.984375 62.703125 
Q 24.265625 62.703125 21.4375 61.328125 
Q 18.609375 59.96875 16.671875 56.71875 
Q 14.75 53.46875 13.765625 48.015625 
Q 12.796875 42.578125 12.796875 34.421875 
Q 12.796875 26.515625 13.796875 21.09375 
Q 14.796875 15.671875 16.71875 12.375 
Q 18.65625 9.078125 21.4375 7.640625 
Q 24.21875 6.203125 27.78125 6.203125 
Q 31.25 6.203125 34.03125 7.640625 
Q 36.8125 9.078125 38.734375 12.375 
Q 40.671875 15.671875 41.71875 21.09375 
Q 42.78125 26.515625 42.78125 34.421875 
" id="LiberationSans-30"/>
       <path d="M 9.125 0 
L 9.125 10.6875 
L 18.65625 10.6875 
L 18.65625 0 
z
" id="LiberationSans-2e"/>
      </defs>
      <g style="fill:#262626;" transform="translate(174.573068 331.7975)scale(0.08 -0.08)">
       <use xlink:href="#LiberationSans-30"/>
       <use x="55.615234" xlink:href="#LiberationSans-2e"/>
       <use x="83.398438" xlink:href="#LiberationSans-30"/>
       <use x="139.013672" xlink:href="#LiberationSans-30"/>
       <use x="194.628906" xlink:href="#LiberationSans-30"/>
      </g>
     </g>
    </g>
    <g id="xtick_2">
     <g id="line2d_3">
      <path clip-path="url(#p27be0d2387)" d="M 311.238448 320.4 
L 311.238448 43.2 
" style="fill:none;stroke:#ffffff;stroke-linecap:round;stroke-width:0.8;"/>
     </g>
     <g id="line2d_4"/>
     <g id="text_2">
      <!-- 0.005 -->
      <defs>
       <path d="M 51.421875 22.40625 
Q 51.421875 17.234375 49.859375 12.9375 
Q 48.296875 8.640625 45.21875 5.53125 
Q 42.140625 2.4375 37.578125 0.71875 
Q 33.015625 -0.984375 27 -0.984375 
Q 21.578125 -0.984375 17.546875 0.28125 
Q 13.53125 1.5625 10.734375 3.78125 
Q 7.953125 6 6.3125 8.984375 
Q 4.6875 11.96875 4 15.375 
L 12.890625 16.40625 
Q 13.421875 14.453125 14.390625 12.625 
Q 15.375 10.796875 17.0625 9.34375 
Q 18.75 7.90625 21.21875 7.046875 
Q 23.6875 6.203125 27.203125 6.203125 
Q 30.609375 6.203125 33.390625 7.25 
Q 36.1875 8.296875 38.15625 10.34375 
Q 40.140625 12.40625 41.203125 15.375 
Q 42.28125 18.359375 42.28125 22.21875 
Q 42.28125 25.390625 41.25 28.046875 
Q 40.234375 30.71875 38.328125 32.640625 
Q 36.421875 34.578125 33.65625 35.640625 
Q 30.90625 36.71875 27.390625 36.71875 
Q 25.203125 36.71875 23.34375 36.328125 
Q 21.484375 35.9375 19.890625 35.25 
Q 18.3125 34.578125 17.015625 33.671875 
Q 15.71875 32.765625 14.59375 31.78125 
L 6 31.78125 
L 8.296875 68.796875 
L 47.40625 68.796875 
L 47.40625 61.328125 
L 16.3125 61.328125 
L 14.984375 39.5 
Q 17.328125 41.3125 20.84375 42.59375 
Q 24.359375 43.890625 29.203125 43.890625 
Q 34.328125 43.890625 38.421875 42.328125 
Q 42.53125 40.765625 45.40625 37.90625 
Q 48.296875 35.0625 49.859375 31.109375 
Q 51.421875 27.15625 51.421875 22.40625 
" id="LiberationSans-35"/>
      </defs>
      <g style="fill:#262626;" transform="translate(301.229698 331.7975)scale(0.08 -0.08)">
       <use xlink:href="#LiberationSans-30"/>
       <use x="55.615234" xlink:href="#LiberationSans-2e"/>
       <use x="83.398438" xlink:href="#LiberationSans-30"/>
       <use x="139.013672" xlink:href="#LiberationSans-30"/>
       <use x="194.628906" xlink:href="#LiberationSans-35"/>
      </g>
     </g>
    </g>
    <g id="xtick_3">
     <g id="line2d_5">
      <path clip-path="url(#p27be0d2387)" d="M 437.895078 320.4 
L 437.895078 43.2 
" style="fill:none;stroke:#ffffff;stroke-linecap:round;stroke-width:0.8;"/>
     </g>
     <g id="line2d_6"/>
     <g id="text_3">
      <!-- 0.010 -->
      <defs>
       <path d="M 7.625 0 
L 7.625 7.46875 
L 25.140625 7.46875 
L 25.140625 60.40625 
L 9.625 49.3125 
L 9.625 57.625 
L 25.875 68.796875 
L 33.984375 68.796875 
L 33.984375 7.46875 
L 50.734375 7.46875 
L 50.734375 0 
z
" id="LiberationSans-31"/>
      </defs>
      <g style="fill:#262626;" transform="translate(427.886328 331.7975)scale(0.08 -0.08)">
       <use xlink:href="#LiberationSans-30"/>
       <use x="55.615234" xlink:href="#LiberationSans-2e"/>
       <use x="83.398438" xlink:href="#LiberationSans-30"/>
       <use x="139.013672" xlink:href="#LiberationSans-31"/>
       <use x="194.628906" xlink:href="#LiberationSans-30"/>
      </g>
     </g>
    </g>
    <g id="xtick_4">
     <g id="line2d_7">
      <path clip-path="url(#p27be0d2387)" d="M 564.551708 320.4 
L 564.551708 43.2 
" style="fill:none;stroke:#ffffff;stroke-linecap:round;stroke-width:0.8;"/>
     </g>
     <g id="line2d_8"/>
     <g id="text_4">
      <!-- 0.015 -->
      <g style="fill:#262626;" transform="translate(554.542958 331.7975)scale(0.08 -0.08)">
       <use xlink:href="#LiberationSans-30"/>
       <use x="55.615234" xlink:href="#LiberationSans-2e"/>
       <use x="83.398438" xlink:href="#LiberationSans-30"/>
       <use x="139.013672" xlink:href="#LiberationSans-31"/>
       <use x="194.628906" xlink:href="#LiberationSans-35"/>
      </g>
     </g>
    </g>
    <g id="xtick_5">
     <g id="line2d_9">
      <path clip-path="url(#p27be0d2387)" d="M 691.208338 320.4 
L 691.208338 43.2 
" style="fill:none;stroke:#ffffff;stroke-linecap:round;stroke-width:0.8;"/>
     </g>
     <g id="line2d_10"/>
     <g id="text_5">
      <!-- 0.020 -->
      <defs>
       <path d="M 5.03125 0 
L 5.03125 6.203125 
Q 7.515625 11.921875 11.109375 16.28125 
Q 14.703125 20.65625 18.65625 24.1875 
Q 22.609375 27.734375 26.484375 30.765625 
Q 30.375 33.796875 33.5 36.8125 
Q 36.625 39.84375 38.546875 43.15625 
Q 40.484375 46.484375 40.484375 50.6875 
Q 40.484375 53.609375 39.59375 55.828125 
Q 38.71875 58.0625 37.0625 59.5625 
Q 35.40625 61.078125 33.078125 61.828125 
Q 30.765625 62.59375 27.9375 62.59375 
Q 25.296875 62.59375 22.96875 61.859375 
Q 20.65625 61.140625 18.84375 59.671875 
Q 17.046875 58.203125 15.890625 56.03125 
Q 14.75 53.859375 14.40625 50.984375 
L 5.421875 51.8125 
Q 5.859375 55.515625 7.46875 58.78125 
Q 9.078125 62.0625 11.90625 64.53125 
Q 14.75 67 18.71875 68.40625 
Q 22.703125 69.828125 27.9375 69.828125 
Q 33.0625 69.828125 37.0625 68.609375 
Q 41.0625 67.390625 43.8125 64.984375 
Q 46.578125 62.59375 48.046875 59.078125 
Q 49.515625 55.5625 49.515625 50.984375 
Q 49.515625 47.515625 48.265625 44.390625 
Q 47.015625 41.265625 44.9375 38.421875 
Q 42.875 35.59375 40.140625 32.953125 
Q 37.40625 30.328125 34.421875 27.8125 
Q 31.453125 25.296875 28.421875 22.828125 
Q 25.390625 20.359375 22.71875 17.859375 
Q 20.0625 15.375 17.96875 12.8125 
Q 15.875 10.25 14.703125 7.46875 
L 50.59375 7.46875 
L 50.59375 0 
z
" id="LiberationSans-32"/>
      </defs>
      <g style="fill:#262626;" transform="translate(681.199588 331.7975)scale(0.08 -0.08)">
       <use xlink:href="#LiberationSans-30"/>
       <use x="55.615234" xlink:href="#LiberationSans-2e"/>
       <use x="83.398438" xlink:href="#LiberationSans-30"/>
       <use x="139.013672" xlink:href="#LiberationSans-32"/>
       <use x="194.628906" xlink:href="#LiberationSans-30"/>
      </g>
     </g>
    </g>
    <g id="xtick_6">
     <g id="line2d_11">
      <path clip-path="url(#p27be0d2387)" d="M 817.864968 320.4 
L 817.864968 43.2 
" style="fill:none;stroke:#ffffff;stroke-linecap:round;stroke-width:0.8;"/>
     </g>
     <g id="line2d_12"/>
     <g id="text_6">
      <!-- 0.025 -->
      <g style="fill:#262626;" transform="translate(807.856218 331.7975)scale(0.08 -0.08)">
       <use xlink:href="#LiberationSans-30"/>
       <use x="55.615234" xlink:href="#LiberationSans-2e"/>
       <use x="83.398438" xlink:href="#LiberationSans-30"/>
       <use x="139.013672" xlink:href="#LiberationSans-32"/>
       <use x="194.628906" xlink:href="#LiberationSans-35"/>
      </g>
     </g>
    </g>
    <g id="xtick_7">
     <g id="line2d_13">
      <path clip-path="url(#p27be0d2387)" d="M 944.521598 320.4 
L 944.521598 43.2 
" style="fill:none;stroke:#ffffff;stroke-linecap:round;stroke-width:0.8;"/>
     </g>
     <g id="line2d_14"/>
     <g id="text_7">
      <!-- 0.030 -->
      <defs>
       <path d="M 51.21875 19 
Q 51.21875 14.265625 49.671875 10.546875 
Q 48.140625 6.84375 45.1875 4.265625 
Q 42.234375 1.703125 37.859375 0.359375 
Q 33.5 -0.984375 27.875 -0.984375 
Q 21.484375 -0.984375 17.109375 0.609375 
Q 12.75 2.203125 9.90625 4.8125 
Q 7.078125 7.421875 5.65625 10.765625 
Q 4.25 14.109375 3.8125 17.671875 
L 12.890625 18.5 
Q 13.28125 15.765625 14.328125 13.515625 
Q 15.375 11.28125 17.1875 9.671875 
Q 19 8.0625 21.625 7.171875 
Q 24.265625 6.296875 27.875 6.296875 
Q 34.515625 6.296875 38.296875 9.5625 
Q 42.09375 12.84375 42.09375 19.28125 
Q 42.09375 23.09375 40.40625 25.40625 
Q 38.71875 27.734375 36.203125 29.03125 
Q 33.6875 30.328125 30.734375 30.765625 
Q 27.78125 31.203125 25.296875 31.203125 
L 20.3125 31.203125 
L 20.3125 38.8125 
L 25.09375 38.8125 
Q 27.59375 38.8125 30.265625 39.328125 
Q 32.953125 39.84375 35.171875 41.1875 
Q 37.40625 42.53125 38.84375 44.828125 
Q 40.28125 47.125 40.28125 50.6875 
Q 40.28125 56.203125 37.03125 59.390625 
Q 33.796875 62.59375 27.390625 62.59375 
Q 21.578125 62.59375 17.984375 59.609375 
Q 14.40625 56.640625 13.8125 51.21875 
L 4.984375 51.90625 
Q 5.515625 56.453125 7.46875 59.8125 
Q 9.421875 63.1875 12.421875 65.40625 
Q 15.4375 67.625 19.28125 68.71875 
Q 23.140625 69.828125 27.484375 69.828125 
Q 33.25 69.828125 37.390625 68.375 
Q 41.546875 66.9375 44.1875 64.46875 
Q 46.828125 62.015625 48.0625 58.6875 
Q 49.3125 55.375 49.3125 51.609375 
Q 49.3125 48.578125 48.484375 45.9375 
Q 47.65625 43.3125 45.890625 41.203125 
Q 44.140625 39.109375 41.421875 37.59375 
Q 38.71875 36.078125 34.90625 35.296875 
L 34.90625 35.109375 
Q 39.0625 34.671875 42.140625 33.21875 
Q 45.21875 31.78125 47.21875 29.625 
Q 49.21875 27.484375 50.21875 24.75 
Q 51.21875 22.015625 51.21875 19 
" id="LiberationSans-33"/>
      </defs>
      <g style="fill:#262626;" transform="translate(934.512848 331.7975)scale(0.08 -0.08)">
       <use xlink:href="#LiberationSans-30"/>
       <use x="55.615234" xlink:href="#LiberationSans-2e"/>
       <use x="83.398438" xlink:href="#LiberationSans-30"/>
       <use x="139.013672" xlink:href="#LiberationSans-33"/>
       <use x="194.628906" xlink:href="#LiberationSans-30"/>
      </g>
     </g>
    </g>
   </g>
   <g id="matplotlib.axis_2">
    <g id="ytick_1">
     <g id="line2d_15">
      <path clip-path="url(#p27be0d2387)" d="M 144 306.477608 
L 1036.8 306.477608 
" style="fill:none;stroke:#ffffff;stroke-linecap:round;stroke-width:0.8;"/>
     </g>
     <g id="line2d_16"/>
     <g id="text_8">
      <!-- −10 -->
      <defs>
       <path d="M 4.9375 29.6875 
L 4.9375 36.8125 
L 53.515625 36.8125 
L 53.515625 29.6875 
z
" id="LiberationSans-2212"/>
      </defs>
      <g style="fill:#262626;" transform="translate(124.83 309.376358)scale(0.08 -0.08)">
       <use xlink:href="#LiberationSans-2212"/>
       <use x="58.398438" xlink:href="#LiberationSans-31"/>
       <use x="114.013672" xlink:href="#LiberationSans-30"/>
      </g>
     </g>
    </g>
    <g id="ytick_2">
     <g id="line2d_17">
      <path clip-path="url(#p27be0d2387)" d="M 144 249.302298 
L 1036.8 249.302298 
" style="fill:none;stroke:#ffffff;stroke-linecap:round;stroke-width:0.8;"/>
     </g>
     <g id="line2d_18"/>
     <g id="text_9">
      <!-- −5 -->
      <g style="fill:#262626;" transform="translate(129.27875 252.201048)scale(0.08 -0.08)">
       <use xlink:href="#LiberationSans-2212"/>
       <use x="58.398438" xlink:href="#LiberationSans-35"/>
      </g>
     </g>
    </g>
    <g id="ytick_3">
     <g id="line2d_19">
      <path clip-path="url(#p27be0d2387)" d="M 144 192.126988 
L 1036.8 192.126988 
" style="fill:none;stroke:#ffffff;stroke-linecap:round;stroke-width:0.8;"/>
     </g>
     <g id="line2d_20"/>
     <g id="text_10">
      <!-- 0 -->
      <g style="fill:#262626;" transform="translate(133.95125 195.025738)scale(0.08 -0.08)">
       <use xlink:href="#LiberationSans-30"/>
      </g>
     </g>
    </g>
    <g id="ytick_4">
     <g id="line2d_21">
      <path clip-path="url(#p27be0d2387)" d="M 144 134.951678 
L 1036.8 134.951678 
" style="fill:none;stroke:#ffffff;stroke-linecap:round;stroke-width:0.8;"/>
     </g>
     <g id="line2d_22"/>
     <g id="text_11">
      <!-- 5 -->
      <g style="fill:#262626;" transform="translate(133.95125 137.850428)scale(0.08 -0.08)">
       <use xlink:href="#LiberationSans-35"/>
      </g>
     </g>
    </g>
    <g id="ytick_5">
     <g id="line2d_23">
      <path clip-path="url(#p27be0d2387)" d="M 144 77.776368 
L 1036.8 77.776368 
" style="fill:none;stroke:#ffffff;stroke-linecap:round;stroke-width:0.8;"/>
     </g>
     <g id="line2d_24"/>
     <g id="text_12">
      <!-- 10 -->
      <g style="fill:#262626;" transform="translate(129.5025 80.675118)scale(0.08 -0.08)">
       <use xlink:href="#LiberationSans-31"/>
       <use x="55.615234" xlink:href="#LiberationSans-30"/>
      </g>
     </g>
    </g>
   </g>
   <g id="line2d_25">
    <path clip-path="url(#p27be0d2387)" d="M 184.581818 253.648999 
L 185.156225 267.931093 
L 185.730631 276.003696 
L 186.305038 277.176503 
L 186.879444 271.247478 
L 187.453851 258.518763 
L 188.028257 239.776554 
L 189.17707 189.457574 
L 190.90029 108.02153 
L 191.474696 86.618938 
L 192.049102 70.687072 
L 192.623509 61.274451 
L 193.197915 58.973193 
L 193.772322 63.877688 
L 194.346728 75.578782 
L 194.921135 93.193852 
L 196.069948 140.680217 
L 197.793167 216.182352 
L 198.367574 235.336441 
L 198.94198 249.052253 
L 199.516387 256.416574 
L 200.090793 256.983648 
L 200.6652 250.806223 
L 201.239606 238.430767 
L 201.814013 220.857213 
L 202.962826 175.918479 
L 204.111639 129.66613 
L 204.686045 110.554303 
L 205.260452 96.211351 
L 205.834858 87.806805 
L 206.409265 86.082974 
L 206.983671 91.300252 
L 207.558078 103.216981 
L 208.132484 121.105315 
L 209.281297 169.790329 
L 211.004517 249.409398 
L 211.578923 270.399698 
L 212.153329 285.987148 
L 212.727736 295.090168 
L 213.302142 297.077373 
L 213.876549 291.812727 
L 214.450955 279.665415 
L 215.025362 261.483709 
L 216.174175 212.414257 
L 217.897394 133.433315 
L 218.471801 112.933296 
L 219.046207 97.862164 
L 219.620614 89.197517 
L 220.19502 87.45381 
L 220.769427 92.647031 
L 221.343833 104.295089 
L 221.91824 121.453892 
L 223.067053 166.660295 
L 224.215866 214.746089 
L 224.790272 235.333959 
L 225.364679 251.476901 
L 225.939085 261.950809 
L 226.513492 265.948359 
L 227.087898 263.137703 
L 227.662305 253.686975 
L 228.236711 238.252841 
L 229.385524 194.19237 
L 231.108743 120.188315 
L 231.68315 100.65773 
L 232.257556 86.342562 
L 232.831963 78.353973 
L 233.406369 77.361083 
L 233.980776 83.542028 
L 234.555182 96.570041 
L 235.129589 115.635573 
L 236.278402 166.597058 
L 238.001621 248.844975 
L 238.576028 270.485036 
L 239.150434 286.658741 
L 239.724841 296.337062 
L 240.299247 298.949801 
L 240.873654 294.425005 
L 241.44806 283.19279 
L 242.022467 266.153339 
L 243.17128 220.181672 
L 244.894499 147.835329 
L 245.468906 129.908644 
L 246.043312 117.46282 
L 246.617719 111.376609 
L 247.192125 112.058945 
L 247.766532 119.420017 
L 248.340938 132.878216 
L 248.915345 151.40246 
L 250.638564 222.067731 
L 251.787377 263.860889 
L 252.361783 278.105919 
L 252.93619 286.270022 
L 253.510596 287.637688 
L 254.085003 281.978469 
L 254.659409 269.565044 
L 255.233816 251.155277 
L 256.382629 201.456763 
L 258.105848 120.633207 
L 258.680255 99.343181 
L 259.254661 83.494878 
L 259.829068 74.154726 
L 260.403474 71.935719 
L 260.977881 76.954106 
L 261.552287 88.821477 
L 262.126694 106.672811 
L 263.275507 154.885704 
L 264.998726 232.090605 
L 265.573133 251.915734 
L 266.147539 266.308976 
L 266.721946 274.322514 
L 267.296352 275.47372 
L 267.870759 269.778431 
L 268.445165 257.748448 
L 269.019572 240.353452 
L 270.168384 195.183295 
L 271.317197 147.852644 
L 271.891604 127.895198 
L 272.46601 112.52592 
L 273.040417 102.941331 
L 273.614823 99.916179 
L 274.18923 103.746693 
L 274.763636 114.228204 
L 275.338043 130.668749 
L 276.486856 176.545914 
L 278.210075 252.482226 
L 278.784482 272.416394 
L 279.358888 287.024378 
L 279.933295 295.209997 
L 280.507701 296.323297 
L 281.082108 290.207662 
L 281.656514 277.211757 
L 282.230921 258.165449 
L 283.379734 207.266632 
L 285.102953 125.260774 
L 285.67736 103.718841 
L 286.251766 87.625125 
L 286.826173 77.985872 
L 287.400579 75.346329 
L 287.974986 79.753277 
L 288.549392 90.753234 
L 289.123798 107.426407 
L 290.272611 152.213852 
L 291.995831 221.665164 
L 292.570237 238.387216 
L 293.144644 249.554014 
L 293.71905 254.321826 
L 294.293457 252.319342 
L 294.867863 243.674463 
L 295.44227 229.005172 
L 296.591083 186.217293 
L 298.314302 113.153931 
L 298.888709 93.649376 
L 299.463115 79.228433 
L 300.037522 71.019978 
L 300.611928 69.715739 
L 301.186335 75.519384 
L 301.760741 88.130476 
L 302.335148 106.764471 
L 303.483961 156.900907 
L 305.20718 238.160319 
L 305.781587 259.530501 
L 306.355993 275.442302 
L 306.9304 284.846234 
L 307.504806 287.149053 
L 308.079213 282.255206 
L 308.653619 270.572774 
L 309.228025 252.983514 
L 310.376838 205.568422 
L 312.100058 130.227176 
L 312.674464 111.145693 
L 313.248871 97.515095 
L 313.823277 90.250898 
L 314.397684 89.801276 
L 314.97209 96.115876 
L 315.546497 108.650458 
L 316.120903 126.407022 
L 317.269716 171.788959 
L 318.418529 218.591167 
L 318.992936 238.017088 
L 319.567342 252.698646 
L 320.141749 261.464497 
L 320.716155 263.570151 
L 321.290562 258.752783 
L 321.864968 247.251512 
L 322.439375 229.791671 
L 323.588188 181.993615 
L 325.311407 103.75444 
L 325.885814 83.233435 
L 326.46022 68.119563 
L 327.034627 59.494693 
L 327.609033 57.990716 
L 328.183439 63.744276 
L 328.757846 76.386776 
L 329.332252 95.070396 
L 330.481065 145.164317 
L 332.204285 225.725362 
L 332.778691 246.758539 
L 333.353098 262.362829 
L 333.927504 271.558308 
L 334.501911 273.828097 
L 335.076317 269.153817 
L 335.650724 258.015331 
L 336.22513 241.354804 
L 337.373943 197.105499 
L 338.522756 149.920256 
L 339.097163 129.762147 
L 339.671569 114.036763 
L 340.245976 103.969899 
L 340.820382 100.370903 
L 341.394789 103.573859 
L 341.969195 113.41294 
L 342.543602 129.233709 
L 343.692415 174.070054 
L 345.415634 249.263075 
L 345.990041 269.198235 
L 346.564447 283.921293 
L 347.138854 292.319959 
L 347.71326 293.723686 
L 348.287666 287.952727 
L 348.862073 275.332179 
L 349.436479 256.669988 
L 350.585292 206.49743 
L 352.308512 125.377045 
L 352.882918 104.097605 
L 353.457325 88.277846 
L 354.031731 78.947757 
L 354.606138 76.678625 
L 355.180544 81.543495 
L 355.754951 93.113217 
L 356.329357 110.488329 
L 357.47817 157.126802 
L 359.20139 230.453327 
L 359.775796 248.695529 
L 360.350203 261.447515 
L 360.924609 267.827807 
L 361.499016 267.424607 
L 362.073422 260.324862 
L 362.647829 247.107455 
L 363.222235 228.80103 
L 364.945455 158.633512 
L 366.094268 117.034192 
L 366.668674 102.845239 
L 367.24308 94.711448 
L 367.817487 93.349911 
L 368.391893 98.992906 
L 368.9663 111.369694 
L 369.540706 129.724333 
L 370.689519 179.263958 
L 372.412739 259.745001 
L 372.987145 280.894988 
L 373.561552 296.58999 
L 374.135958 305.762932 
L 374.710365 307.8 
L 375.284771 302.58407 
L 375.859178 290.502743 
L 376.433584 272.420418 
L 377.582397 223.693521 
L 379.305617 145.595147 
L 379.880023 125.444742 
L 380.45443 110.715848 
L 381.028836 102.358714 
L 381.603243 100.858514 
L 382.177649 106.201941 
L 382.752056 117.879562 
L 383.326462 134.923773 
L 384.475275 179.403274 
L 385.624088 226.062776 
L 386.198494 245.691644 
L 386.772901 260.735725 
L 387.347307 269.996944 
L 387.921714 272.698652 
L 388.49612 268.542499 
L 389.070527 257.730952 
L 389.644933 240.953831 
L 390.793746 194.376414 
L 392.516966 117.303787 
L 393.091372 96.96634 
L 393.665779 81.943535 
L 394.240185 73.332581 
L 394.814592 71.784726 
L 395.388998 77.458044 
L 395.963405 90.005355 
L 396.537811 108.598191 
L 397.686624 158.579916 
L 399.409844 239.192608 
L 399.98425 260.264833 
L 400.558657 275.884867 
L 401.133063 285.045298 
L 401.70747 287.199614 
L 402.281876 282.299791 
L 402.856283 270.798227 
L 403.430689 253.61391 
L 404.579502 207.774394 
L 406.302721 136.679671 
L 406.877128 119.398645 
L 407.451534 107.671304 
L 408.025941 102.344316 
L 408.600347 103.792101 
L 409.174754 111.889902 
L 409.74916 126.022769 
L 410.897973 167.780537 
L 412.621193 239.434426 
L 413.195599 258.509306 
L 413.770006 272.520709 
L 414.344412 280.339092 
L 414.918819 281.271709 
L 415.493225 275.113654 
L 416.067632 262.164023 
L 416.642038 243.206051 
L 417.790851 192.460994 
L 419.514071 110.378787 
L 420.088477 88.758834 
L 420.662884 72.61076 
L 421.23729 62.985214 
L 421.811697 60.476735 
L 422.386103 65.182193 
L 422.96051 76.694715 
L 423.534916 94.133526 
L 424.683729 141.30826 
L 426.406948 216.43638 
L 426.981355 235.481659 
L 427.555761 249.090338 
L 428.130168 256.344568 
L 428.704574 256.7937 
L 429.278981 250.485618 
L 429.853387 237.962234 
L 430.427794 220.219503 
L 431.576607 174.867035 
L 432.72542 128.09181 
L 433.299826 108.678771 
L 433.874233 94.010973 
L 434.448639 85.261312 
L 435.023046 83.176182 
L 435.597452 88.020533 
L 436.171859 99.557463 
L 436.746265 117.063806 
L 437.895078 164.995054 
L 439.618298 243.553835 
L 440.192704 264.215409 
L 440.767111 279.486444 
L 441.341517 288.284272 
L 441.915924 289.975964 
L 442.49033 284.423714 
L 443.064737 271.994957 
L 443.639143 253.536473 
L 444.787956 203.924079 
L 446.511175 124.162022 
L 447.085582 103.418063 
L 447.659988 88.116508 
L 448.234395 79.23889 
L 448.808801 77.303792 
L 449.383208 82.33125 
L 449.957614 93.842883 
L 450.532021 110.897704 
L 451.680834 156.00157 
L 452.829647 204.128147 
L 453.404053 224.786836 
L 453.97846 241.030225 
L 454.552866 251.630051 
L 455.127273 255.774152 
L 455.701679 253.125424 
L 456.276086 243.846602 
L 456.850492 228.589107 
L 457.999305 184.877468 
L 459.722525 111.336593 
L 460.296931 91.938211 
L 460.871338 77.744507 
L 461.445744 69.868145 
L 462.020151 68.980353 
L 462.594557 75.261754 
L 463.168964 88.388188 
L 463.74337 107.552591 
L 464.892183 158.72109 
L 466.615402 241.315181 
L 467.189809 263.078067 
L 467.764215 279.375331 
L 468.338622 289.175368 
L 468.913028 291.905158 
L 469.487435 287.489929 
L 470.061841 276.357238 
L 470.636248 259.40521 
L 471.785061 213.567636 
L 473.50828 141.329248 
L 474.082687 123.42318 
L 474.657093 110.996889 
L 475.2315 104.934052 
L 475.805906 105.648825 
L 476.380313 113.056632 
L 476.954719 126.580832 
L 477.529126 145.194763 
L 479.252345 216.302529 
L 480.401158 258.54762 
L 480.975565 273.06345 
L 481.549971 281.524856 
L 482.124378 283.212843 
L 482.698784 277.893005 
L 483.273191 265.833861 
L 483.847597 247.789172 
L 484.99641 198.838609 
L 486.719629 119.143808 
L 487.294036 98.227438 
L 487.868442 82.751973 
L 488.442849 73.785071 
L 489.017255 71.941326 
L 489.591662 77.338722 
L 490.166068 89.59048 
L 490.740475 107.832857 
L 491.889288 156.849934 
L 493.612507 235.302902 
L 494.186914 255.545426 
L 494.76132 270.350385 
L 495.335727 278.765338 
L 495.910133 280.302823 
L 496.48454 274.973904 
L 497.058946 263.28595 
L 497.633353 246.204814 
L 498.782166 201.56691 
L 499.930979 154.633866 
L 500.505385 134.826394 
L 501.079792 119.577689 
L 501.654198 110.087841 
L 502.228605 107.135875 
L 502.803011 111.022757 
L 503.377417 121.54873 
L 503.951824 138.026641 
L 505.100637 183.974381 
L 506.823856 260.051 
L 507.398263 280.046646 
L 507.972669 294.723044 
L 508.547076 302.982581 
L 509.121482 304.173339 
L 509.695889 298.136431 
L 510.270295 285.218191 
L 510.844702 266.246347 
L 511.993515 215.480534 
L 513.716734 133.628865 
L 514.291141 112.130297 
L 514.865547 96.079732 
L 515.439954 86.486462 
L 516.01436 83.898986 
L 516.588767 88.367298 
L 517.163173 99.440818 
L 517.73758 116.202105 
L 518.886393 161.214763 
L 520.609612 231.119392 
L 521.184019 248.013915 
L 521.758425 259.357114 
L 522.332831 264.300161 
L 522.907238 262.466298 
L 523.481644 253.977912 
L 524.056051 239.447695 
L 525.204864 196.867259 
L 526.928083 123.892148 
L 527.50249 104.352706 
L 528.076896 89.865866 
L 528.651303 81.562593 
L 529.225709 80.137393 
L 529.800116 85.797153 
L 530.374522 98.244846 
L 530.948929 116.699264 
L 532.097742 166.439562 
L 533.820961 247.039007 
L 534.395368 268.173405 
L 534.969774 283.840083 
L 535.544181 292.987846 
L 536.118587 295.021451 
L 536.692994 289.843292 
L 537.2674 277.859587 
L 537.841807 259.95067 
L 538.99062 211.838835 
L 540.713839 135.323908 
L 541.288246 115.827606 
L 541.862652 101.777326 
L 542.437058 94.09362 
L 543.011465 93.229953 
L 543.585871 99.141236 
L 544.160278 111.288182 
L 544.734684 128.677161 
L 545.883497 173.397291 
L 547.03231 219.646745 
L 547.606717 238.836998 
L 548.181123 253.307663 
L 548.75553 261.884416 
L 549.329936 263.819067 
L 549.904343 258.844616 
L 550.478749 247.195813 
L 551.053156 229.593694 
L 552.201969 181.511595 
L 553.925188 102.808622 
L 554.499595 82.118575 
L 555.074001 66.829137 
L 555.648408 58.023662 
L 556.222814 56.335986 
L 556.797221 61.904922 
L 557.371627 74.364028 
L 557.946034 92.867378 
L 559.094847 142.615137 
L 560.818066 222.692143 
L 561.392472 243.567394 
L 561.966879 259.010812 
L 562.541285 268.038917 
L 563.115692 270.131074 
L 563.690098 265.265212 
L 564.264505 253.917837 
L 564.838911 237.028347 
L 565.987724 192.254088 
L 567.136537 144.4538 
L 567.710944 123.958407 
L 568.28535 107.880237 
L 568.859757 97.44948 
L 569.434163 93.480548 
L 570.00857 96.312991 
L 570.582976 105.786568 
L 571.157383 121.252264 
L 572.306196 165.429 
L 574.029415 239.809687 
L 574.603822 259.527804 
L 575.178228 274.060418 
L 575.752635 282.293763 
L 576.327041 283.555185 
L 576.901448 277.66244 
L 577.475854 264.937985 
L 578.050261 246.187234 
L 579.199074 195.875396 
L 580.922293 114.626809 
L 581.496699 93.327764 
L 582.071106 77.502719 
L 582.645512 68.184088 
L 583.219919 65.945818 
L 583.794325 70.863606 
L 584.368732 82.510687 
L 584.943138 99.989474 
L 586.091951 146.917943 
L 587.815171 220.874409 
L 588.389577 239.368271 
L 588.963984 252.385795 
L 589.53839 259.040357 
L 590.112797 258.914712 
L 590.687203 252.090334 
L 591.26161 239.140904 
L 591.836016 221.090401 
L 592.984829 175.560774 
L 594.133642 129.259485 
L 594.708049 110.322765 
L 595.282455 96.273 
L 595.856862 88.26167 
L 596.431268 87.009063 
L 597.005675 92.75112 
L 597.580081 105.220959 
L 598.154488 123.66643 
L 599.303301 173.394381 
L 601.02652 254.207173 
L 601.600926 275.483878 
L 602.175333 291.312565 
L 602.749739 300.624539 
L 603.324146 302.803985 
L 603.898552 297.731628 
L 604.472959 285.793017 
L 605.047365 267.850837 
L 606.196178 219.392589 
L 607.919398 141.674578 
L 608.493804 121.652788 
L 609.068211 107.058975 
L 609.642617 98.847512 
L 610.217024 97.50791 
L 610.79143 103.031132 
L 611.365837 114.911676 
L 611.940243 132.185267 
L 613.089056 177.21185 
L 614.237869 224.540247 
L 614.812276 244.546355 
L 615.386682 259.992403 
L 615.961089 269.676274 
L 616.535495 272.816573 
L 617.109902 269.109753 
L 617.684308 258.752915 
L 618.258715 242.430628 
L 619.407528 196.744397 
L 621.130747 120.911382 
L 621.705153 100.954159 
L 622.27956 86.294904 
L 622.853966 78.031915 
L 623.428373 76.818085 
L 624.002779 82.813445 
L 624.577186 95.672855 
L 625.151592 114.569705 
L 626.300405 165.140479 
L 628.023625 246.591242 
L 628.598031 267.925774 
L 629.172438 283.79546 
L 629.746844 293.189663 
L 630.321251 295.558446 
L 630.895657 290.85041 
L 631.470064 279.514893 
L 632.04447 262.468384 
L 633.193283 216.813877 
L 634.916503 145.775201 
L 635.490909 128.462768 
L 636.065316 116.685553 
L 636.639722 111.295226 
L 637.214129 112.671564 
L 637.788535 120.695244 
L 638.362942 134.756533 
L 639.511754 176.396946 
L 641.234974 247.984658 
L 641.80938 267.071465 
L 642.383787 281.110603 
L 642.958193 288.970419 
L 643.5326 289.955386 
L 644.107006 283.857376 
L 644.681413 270.97209 
L 645.255819 252.079451 
L 646.404632 201.456612 
L 648.127852 119.510815 
L 648.702258 97.922419 
L 649.276665 81.800572 
L 649.851071 72.197769 
L 650.425478 69.710702 
L 650.999884 74.438469 
L 651.574291 85.976247 
L 652.148697 103.444897 
L 653.29751 150.696261 
L 655.02073 225.970648 
L 655.595136 245.063514 
L 656.169543 258.7128 
L 656.743949 265.99596 
L 657.318356 266.457413 
L 657.892762 260.140149 
L 658.467169 247.581511 
L 659.041575 229.773474 
L 660.190388 184.188661 
L 661.339201 137.037014 
L 661.913607 117.383004 
L 662.488014 102.44202 
L 663.06242 93.390387 
L 663.636827 90.978656 
L 664.211233 95.476413 
L 664.78564 106.651591 
L 665.360046 123.785784 
L 666.508859 170.958656 
L 668.232079 248.390677 
L 668.806485 268.68577 
L 669.380892 283.594935 
L 669.955298 292.034465 
L 670.529705 293.369926 
L 671.104111 287.461776 
L 671.678518 274.675723 
L 672.252924 255.857074 
L 673.401737 205.512376 
L 675.124957 124.628685 
L 675.699363 103.512197 
L 676.27377 87.84408 
L 676.848176 78.6098 
L 677.422583 76.332067 
L 677.996989 81.034979 
L 678.571395 92.243882 
L 679.145802 109.020918 
L 680.294615 153.652304 
L 681.443428 201.420318 
L 682.017834 221.939316 
L 682.592241 238.065542 
L 683.166647 248.566691 
L 683.741054 252.625893 
L 684.31546 249.900926 
L 684.889867 240.549289 
L 685.464273 225.217326 
L 686.613086 181.333935 
L 688.336306 107.432777 
L 688.910712 87.881764 
L 689.485119 73.519984 
L 690.059525 65.461907 
L 690.633932 64.381192 
L 691.208338 70.461279 
L 691.782745 83.380967 
L 692.357151 102.336027 
L 693.505964 153.087453 
L 695.229184 235.078106 
L 695.80359 256.645207 
L 696.377997 272.747015 
L 696.952403 282.349717 
L 697.526809 284.877836 
L 698.101216 280.254135 
L 698.675622 268.903954 
L 699.250029 251.723692 
L 700.398842 205.394221 
L 702.122061 132.342483 
L 702.696468 114.155705 
L 703.270874 101.450912 
L 703.845281 95.116923 
L 704.419687 95.573323 
L 704.994094 102.740966 
L 705.5685 116.048358 
L 706.142907 134.473427 
L 707.29172 180.8075 
L 708.440533 227.990842 
L 709.014939 247.396952 
L 709.589346 261.933498 
L 710.163752 270.447255 
L 710.738159 272.215835 
L 711.312565 267.000956 
L 711.886972 255.067054 
L 712.461378 237.163865 
L 713.610191 188.530754 
L 715.333411 109.361718 
L 715.907817 88.629728 
L 716.482224 73.343833 
L 717.05663 64.573021 
L 717.631036 62.933595 
L 718.205443 68.545394 
L 718.779849 81.023394 
L 719.354256 99.505271 
L 720.503069 149.043838 
L 722.226288 228.374223 
L 722.800695 248.925513 
L 723.375101 264.041313 
L 723.949508 272.764738 
L 724.523914 274.603668 
L 725.098321 269.56457 
L 725.672727 258.150549 
L 726.247134 241.323792 
L 727.395947 197.125665 
L 728.54476 150.534013 
L 729.119166 130.862325 
L 729.693573 115.729438 
L 730.267979 106.339101 
L 730.842386 103.474701 
L 731.416792 107.442008 
L 731.991199 118.046232 
L 732.565605 134.605064 
L 733.714418 180.739853 
L 735.437638 257.204606 
L 736.012044 277.363619 
L 736.58645 292.219809 
L 737.160857 300.674008 
L 737.735263 302.072188 
L 738.30967 296.253024 
L 738.884076 283.560336 
L 739.458483 264.819506 
L 740.607296 214.524891 
L 742.330515 133.393664 
L 742.904922 112.141852 
L 743.479328 96.344678 
L 744.053735 87.014184 
L 744.628141 84.701831 
L 745.202548 89.460529 
L 745.776954 100.842313 
L 746.351361 117.931802 
L 747.500174 163.664877 
L 749.223393 234.799094 
L 749.7978 252.132721 
L 750.372206 263.922477 
L 750.946613 269.314199 
L 751.521019 267.925455 
L 752.095426 259.872896 
L 752.669832 245.763707 
L 753.818645 203.961687 
L 755.541865 131.946138 
L 756.116271 112.66552 
L 756.690677 98.407865 
L 757.265084 90.306086 
L 757.83949 89.057321 
L 758.413897 94.871544 
L 758.988303 107.455008 
L 759.56271 126.029712 
L 760.711523 175.975173 
L 762.434742 256.818595 
L 763.009149 278.018506 
L 763.583555 293.741101 
L 764.157962 302.933315 
L 764.732368 304.997729 
L 765.306775 299.834496 
L 765.881181 287.847776 
L 766.455588 269.916265 
L 767.604401 221.69731 
L 769.32762 144.878141 
L 769.902027 125.251758 
L 770.476433 111.063519 
L 771.05084 103.238717 
L 771.625246 102.235805 
L 772.199653 108.01465 
L 772.774059 120.040607 
L 773.348466 137.324106 
L 774.497279 181.891751 
L 775.646091 228.075843 
L 776.220498 247.265131 
L 776.794904 261.753204 
L 777.369311 270.362466 
L 777.943717 272.340736 
L 778.518124 267.416563 
L 779.09253 255.820055 
L 779.666937 238.267696 
L 780.81575 190.26129 
L 782.538969 111.570073 
L 783.113376 90.851691 
L 783.687782 75.518245 
L 784.262189 66.654457 
L 784.836595 64.896013 
L 785.411002 70.383827 
L 785.985408 82.753561 
L 786.559815 101.161154 
L 787.708628 150.703252 
L 789.431847 230.436113 
L 790.006254 251.181411 
L 790.58066 266.482741 
L 791.155067 275.353165 
L 791.729473 277.2684 
L 792.30388 272.202797 
L 792.878286 260.629626 
L 793.452693 243.48564 
L 794.601506 198.109997 
L 795.750318 149.585263 
L 796.324725 128.685842 
L 796.899131 112.180282 
L 797.473538 101.303293 
L 798.047944 96.874469 
L 798.622351 99.238943 
L 799.196757 108.242178 
L 799.771164 123.240688 
L 800.919977 166.512176 
L 802.643196 239.659933 
L 803.217603 259.007234 
L 803.792009 273.188963 
L 804.366416 281.089936 
L 804.940822 282.035452 
L 805.515229 275.840819 
L 806.089635 262.8259 
L 806.664042 243.793626 
L 807.812855 192.937536 
L 809.536074 110.906386 
L 810.110481 89.357338 
L 810.684887 73.290585 
L 811.259294 63.741056 
L 811.8337 61.285458 
L 812.408107 66.002253 
L 812.982513 77.46719 
L 813.55692 94.784704 
L 814.705732 141.457601 
L 816.428952 215.1894 
L 817.003358 233.641281 
L 817.577765 246.626734 
L 818.152171 253.254264 
L 818.726578 253.101461 
L 819.300984 246.24463 
L 819.875391 233.252558 
L 820.449797 215.144882 
L 821.59861 169.444094 
L 822.747423 122.884389 
L 823.32183 103.785745 
L 823.896236 89.554477 
L 824.470643 81.344926 
L 825.045049 79.880953 
L 825.619456 85.402535 
L 826.193862 97.647029 
L 826.768269 115.866445 
L 827.917082 165.15496 
L 829.640301 245.378214 
L 830.214708 266.481316 
L 830.789114 282.147278 
L 831.363521 291.306074 
L 831.937927 293.340159 
L 832.512334 288.128366 
L 833.08674 276.054424 
L 833.661146 257.979522 
L 834.809959 209.260511 
L 836.533179 131.171999 
L 837.107585 111.040615 
L 837.681992 96.349895 
L 838.256398 88.058435 
L 838.830805 86.660161 
L 839.405211 92.150383 
L 839.979618 104.027596 
L 840.554024 121.330912 
L 841.702837 166.525278 
L 842.85165 214.17027 
L 843.426057 234.387699 
L 844.000463 250.076672 
L 844.57487 260.03107 
L 845.149276 263.464791 
L 845.723683 260.069134 
L 846.298089 250.035877 
L 846.872496 234.044385 
L 848.021309 189.022737 
L 849.744528 114.144027 
L 850.318935 94.486773 
L 850.893341 80.118377 
L 851.467748 72.138325 
L 852.042154 71.201251 
L 852.616561 77.469259 
L 853.190967 90.599357 
L 853.765373 109.766919 
L 854.914186 160.884952 
L 856.637406 243.174996 
L 857.211812 264.789756 
L 857.786219 280.935956 
L 858.360625 290.599832 
L 858.935032 293.228105 
L 859.509438 288.766073 
L 860.083845 277.660072 
L 860.658251 260.824136 
L 861.807064 215.528139 
L 863.530284 144.875537 
L 864.10469 127.660148 
L 864.679097 115.970609 
L 865.253503 110.663489 
L 865.82791 112.123804 
L 866.402316 120.237526 
L 866.976723 134.399982 
L 868.125536 176.293577 
L 869.848755 248.430408 
L 870.423162 267.749163 
L 870.997568 282.043079 
L 871.571975 290.178109 
L 872.146381 291.455648 
L 872.720787 285.664042 
L 873.295194 273.095276 
L 873.8696 254.525636 
L 875.018413 204.555494 
L 876.741633 123.574649 
L 877.316039 102.301406 
L 877.890446 86.492545 
L 878.464852 77.20209 
L 879.039259 75.028582 
L 879.613665 80.073048 
L 880.188072 91.932433 
L 880.762478 109.728959 
L 881.911291 157.657067 
L 883.634511 233.984474 
L 884.208917 253.428079 
L 884.783324 267.421249 
L 885.35773 275.036563 
L 885.932137 275.813336 
L 886.506543 269.789499 
L 887.08095 257.497665 
L 887.655356 239.925681 
L 888.804169 194.708554 
L 889.952982 147.775992 
L 890.527389 128.176726 
L 891.101795 113.256731 
L 891.676202 104.195627 
L 892.250608 101.747989 
L 892.825014 106.187899 
L 893.399421 117.287984 
L 893.973827 134.334456 
L 895.12264 181.310519 
L 896.84586 258.437452 
L 897.420266 278.633725 
L 897.994673 293.445237 
L 898.569079 301.78703 
L 899.143486 303.022942 
L 899.717892 297.011458 
L 900.292299 284.116309 
L 900.866705 265.181072 
L 902.015518 214.576293 
L 903.738738 133.237771 
L 904.313144 111.958806 
L 904.887551 96.127592 
L 905.461957 86.733246 
L 906.036364 84.302328 
L 906.61077 88.862728 
L 907.185177 99.943252 
L 907.759583 116.608923 
L 908.908396 161.075925 
L 910.057209 208.759022 
L 910.631616 229.26174 
L 911.206022 245.385045 
L 911.780428 255.892435 
L 912.354835 259.962194 
L 912.929241 257.246867 
L 913.503648 247.898612 
L 914.078054 232.55862 
L 915.226867 188.606837 
L 916.950087 114.42629 
L 917.524493 94.729882 
L 918.0989 80.197475 
L 918.673306 71.945421 
L 919.247713 70.649901 
L 919.822119 76.497288 
L 920.396526 89.169462 
L 920.970932 107.865177 
L 922.119745 158.07246 
L 923.842965 239.204054 
L 924.417371 260.473581 
L 924.991778 276.270178 
L 925.566184 285.558021 
L 926.140591 287.759367 
L 926.714997 282.794704 
L 927.289404 271.08734 
L 927.86381 253.532127 
L 929.012623 206.396943 
L 930.735843 132.012544 
L 931.310249 113.359581 
L 931.884655 100.184848 
L 932.459062 93.382433 
L 933.033468 93.377465 
L 933.607875 100.096347 
L 934.182281 112.972841 
L 934.756688 130.989568 
L 935.905501 176.589213 
L 937.054314 223.161464 
L 937.62872 242.30905 
L 938.203127 256.616577 
L 938.777533 264.928245 
L 939.35194 266.518364 
L 939.926346 261.144878 
L 940.500753 249.068241 
L 941.075159 231.034274 
L 942.223972 182.16163 
L 943.947192 102.653811 
L 944.521598 81.810885 
L 945.096005 66.415976 
L 945.670411 57.539604 
L 946.244818 55.8 
L 946.819224 61.319094 
L 947.393631 73.71387 
L 947.968037 92.123689 
L 949.11685 141.555515 
L 950.840069 220.812884 
L 951.414476 241.355309 
L 951.988882 256.464493 
L 952.563289 265.179466 
L 953.137695 267.003817 
L 953.712102 261.939781 
L 954.286508 250.486569 
L 954.860915 233.603069 
L 956.009728 189.229934 
L 957.158541 142.377228 
L 957.732947 122.545605 
L 958.307354 107.236931 
L 958.88176 97.658948 
L 959.456167 94.599722 
L 960.030573 98.370131 
L 960.60498 108.780647 
L 961.179386 125.154088 
L 962.328199 170.961286 
L 964.051419 247.090686 
L 964.625825 267.185645 
L 965.200232 282.001356 
L 965.774638 290.437241 
L 966.349045 291.837284 
L 966.923451 286.037825 
L 967.497858 273.380257 
L 968.072264 254.687682 
L 969.221077 204.521959 
L 970.944296 123.656127 
L 971.518703 102.514995 
L 972.093109 86.842926 
L 972.667516 77.654703 
L 973.241922 75.504734 
L 973.816329 80.448831 
L 974.390735 92.041627 
L 974.965142 109.36979 
L 976.113955 155.667362 
L 977.837174 227.855111 
L 978.411581 245.584601 
L 978.985987 257.785418 
L 979.560394 263.598089 
L 980.1348 262.634529 
L 980.709207 255.005687 
L 981.283613 241.313276 
L 982.432426 200.304904 
L 984.155646 129.331783 
L 984.730052 110.35382 
L 985.304459 96.377379 
L 985.878865 88.537372 
L 986.453272 87.533632 
L 987.027678 93.579274 
L 987.602085 106.383879 
L 988.176491 125.172703 
L 989.325304 175.536552 
L 991.048523 257.008042 
L 991.62293 278.418643 
L 992.197336 294.350868 
L 992.771743 303.74973 
L 993.346149 306.015572 
L 993.920556 301.046216 
L 994.494962 289.243655 
L 995.069369 271.484817 
L 996.218182 223.572948 
L 996.218182 223.572948 
" style="fill:none;stroke:#4c72b0;stroke-linecap:round;stroke-width:1.4;"/>
   </g>
   <g id="line2d_26">
    <path clip-path="url(#p27be0d2387)" d="M 184.581818 211.976064 
L 191.474696 219.049689 
L 195.495541 222.86592 
L 198.94198 225.833366 
L 201.814013 228.036397 
L 204.686045 229.954072 
L 206.983671 231.260739 
L 209.281297 232.349694 
L 211.578923 233.20911 
L 213.876549 233.82965 
L 216.174175 234.204565 
L 218.471801 234.329768 
L 220.769427 234.203874 
L 223.067053 233.828222 
L 225.364679 233.206857 
L 227.662305 232.346483 
L 229.959931 231.256398 
L 232.257556 229.948385 
L 235.129589 228.028671 
L 238.001621 225.823141 
L 241.44806 222.852004 
L 245.468906 219.030408 
L 250.638564 213.751027 
L 261.552287 202.493532 
L 265.573133 198.732906 
L 269.019572 195.83127 
L 271.891604 193.694546 
L 274.763636 191.852304 
L 277.061262 190.611631 
L 279.358888 189.592866 
L 281.656514 188.80702 
L 283.95414 188.262582 
L 286.251766 187.965424 
L 288.549392 187.918741 
L 290.847018 188.123011 
L 293.144644 188.575996 
L 295.44227 189.272762 
L 297.739896 190.205734 
L 300.037522 191.364777 
L 302.335148 192.737307 
L 305.20718 194.730286 
L 308.079213 196.999632 
L 311.525651 200.033225 
L 315.546497 203.906114 
L 321.290562 209.81581 
L 329.906659 218.709052 
L 333.927504 222.541191 
L 337.373943 225.527042 
L 340.245976 227.748438 
L 343.118008 229.686903 
L 345.415634 231.011714 
L 347.71326 232.119941 
L 350.010886 232.999553 
L 352.308512 233.640993 
L 354.606138 234.037286 
L 356.903764 234.184111 
L 359.20139 234.079853 
L 361.499016 233.725614 
L 363.796642 233.125208 
L 366.094268 232.285113 
L 368.391893 231.214405 
L 370.689519 229.92466 
L 373.561552 228.02592 
L 376.433584 225.838967 
L 379.880023 222.88652 
L 383.900869 219.081197 
L 389.070527 213.813193 
L 399.98425 202.542686 
L 404.005096 198.765041 
L 407.451534 195.844145 
L 410.323567 193.688427 
L 413.195599 191.824857 
L 415.493225 190.565682 
L 417.790851 189.527351 
L 420.088477 188.72109 
L 422.386103 188.155606 
L 424.683729 187.837002 
L 426.981355 187.768704 
L 429.278981 187.951425 
L 431.576607 188.383161 
L 433.874233 189.059207 
L 436.171859 189.972213 
L 438.469485 191.112262 
L 440.767111 192.466976 
L 443.639143 194.439632 
L 446.511175 196.69114 
L 449.957614 199.707029 
L 453.97846 203.564902 
L 459.148118 208.863531 
L 468.913028 218.936868 
L 472.933874 222.738581 
L 476.380313 225.689301 
L 479.252345 227.875679 
L 482.124378 229.774535 
L 484.422003 231.0648 
L 486.719629 232.136346 
L 489.017255 232.977538 
L 491.314881 233.579236 
L 493.612507 233.934895 
L 495.910133 234.040636 
L 498.207759 233.895287 
L 500.505385 233.500399 
L 502.803011 232.860223 
L 505.100637 231.981669 
L 507.398263 230.874232 
L 509.695889 229.549884 
L 512.567921 227.611449 
L 515.439954 225.389381 
L 518.886393 222.401671 
L 522.907238 218.565754 
L 528.076896 213.276597 
L 538.416213 202.593665 
L 542.437058 198.799306 
L 545.883497 195.859384 
L 548.75553 193.684845 
L 551.627562 191.800096 
L 553.925188 190.52252 
L 556.222814 189.464707 
L 558.52044 188.638094 
L 560.818066 188.051611 
L 563.115692 187.711586 
L 565.413318 187.621678 
L 567.710944 187.782835 
L 570.00857 188.193285 
L 572.306196 188.848557 
L 574.603822 189.741525 
L 576.901448 190.862488 
L 579.199074 192.199276 
L 582.071106 194.15145 
L 584.943138 196.384938 
L 588.389577 199.38288 
L 592.410423 203.225425 
L 597.580081 208.513976 
L 607.344991 218.599102 
L 611.365837 222.417 
L 614.812276 225.38634 
L 617.684308 227.591244 
L 620.55634 229.511029 
L 622.853966 230.819531 
L 625.151592 231.91043 
L 627.449218 232.77188 
L 629.746844 233.394523 
L 632.04447 233.771586 
L 634.342096 233.898959 
L 636.639722 233.775237 
L 638.937348 233.401734 
L 641.234974 232.782472 
L 643.5326 231.924135 
L 645.830226 230.835996 
L 648.127852 229.529821 
L 650.999884 227.612221 
L 653.871917 225.408569 
L 657.318356 222.439333 
L 661.339201 218.619412 
L 666.508859 213.341249 
L 677.422583 202.082704 
L 681.443428 198.320495 
L 684.889867 195.417048 
L 687.761899 193.278528 
L 690.633932 191.434261 
L 692.931558 190.191829 
L 695.229184 189.171201 
L 697.526809 188.383411 
L 699.824435 187.836967 
L 702.122061 187.537765 
L 704.419687 187.489022 
L 706.717313 187.69124 
L 709.014939 188.142203 
L 711.312565 188.837 
L 713.610191 189.768077 
L 715.907817 190.925321 
L 718.205443 192.296168 
L 721.077475 194.287234 
L 723.949508 196.554912 
L 727.395947 199.586867 
L 731.416792 203.458397 
L 737.160857 209.36727 
L 745.776954 218.261839 
L 749.7978 222.095614 
L 753.244239 225.083335 
L 756.116271 227.306587 
L 758.988303 229.247146 
L 761.285929 230.57378 
L 763.583555 231.683944 
L 765.881181 232.565582 
L 768.178807 233.209119 
L 770.476433 233.607556 
L 772.774059 233.756551 
L 775.071685 233.654464 
L 777.369311 233.302377 
L 779.666937 232.704078 
L 781.964563 231.866025 
L 784.262189 230.797273 
L 786.559815 229.509375 
L 789.431847 227.612763 
L 792.30388 225.427705 
L 795.750318 222.477181 
L 799.771164 218.673563 
L 804.940822 213.406818 
L 815.854545 202.135346 
L 819.875391 198.356148 
L 823.32183 195.433463 
L 826.193862 193.275965 
L 829.065895 191.410384 
L 831.363521 190.149459 
L 833.661146 189.109274 
L 835.958772 188.301073 
L 838.256398 187.733588 
L 840.554024 187.412942 
L 842.85165 187.342584 
L 845.149276 187.523251 
L 847.446902 187.95296 
L 849.744528 188.627031 
L 852.042154 189.538135 
L 854.33978 190.676376 
L 856.637406 192.029396 
L 859.509438 194.000123 
L 862.381471 196.249944 
L 865.82791 199.264171 
L 869.848755 203.120653 
L 875.018413 208.418438 
L 884.783324 218.493195 
L 888.804169 222.296601 
L 892.250608 225.249234 
L 895.12264 227.437501 
L 897.994673 229.338478 
L 900.292299 230.630587 
L 902.589925 231.704084 
L 904.887551 232.547315 
L 907.185177 233.151119 
L 909.482803 233.508927 
L 911.780428 233.616839 
L 914.078054 233.47366 
L 916.37568 233.080917 
L 918.673306 232.442839 
L 920.970932 231.566314 
L 923.268558 230.460816 
L 925.566184 229.138295 
L 928.438217 227.201959 
L 931.310249 224.981753 
L 934.756688 221.995921 
L 938.777533 218.16165 
L 943.947192 212.873673 
L 954.286508 202.189785 
L 958.307354 198.393902 
L 961.753793 195.452213 
L 964.625825 193.275911 
L 967.497858 191.389165 
L 969.795483 190.109848 
L 972.093109 189.050189 
L 974.390735 188.221643 
L 976.688361 187.633162 
L 978.985987 187.291097 
L 981.283613 187.199129 
L 983.581239 187.35823 
L 985.878865 187.766651 
L 988.176491 188.419942 
L 990.474117 189.311 
L 992.771743 190.430145 
L 995.069369 191.765227 
L 996.218182 192.509304 
L 996.218182 192.509304 
" style="fill:none;stroke:#55a868;stroke-linecap:round;stroke-width:1.4;"/>
   </g>
   <g id="patch_3">
    <path d="M 144 320.4 
L 144 43.2 
" style="fill:none;"/>
   </g>
   <g id="patch_4">
    <path d="M 1036.8 320.4 
L 1036.8 43.2 
" style="fill:none;"/>
   </g>
   <g id="patch_5">
    <path d="M 144 320.4 
L 1036.8 320.4 
" style="fill:none;"/>
   </g>
   <g id="patch_6">
    <path d="M 144 43.2 
L 1036.8 43.2 
" style="fill:none;"/>
   </g>
   <g id="legend_1">
    <g id="line2d_27">
     <path d="M 1002.75125 53.3975 
L 1018.75125 53.3975 
" style="fill:none;stroke:#4c72b0;stroke-linecap:round;stroke-width:1.4;"/>
    </g>
    <g id="line2d_28"/>
    <g id="text_13">
     <!-- a -->
     <defs>
      <path d="M 20.21875 -0.984375 
Q 12.25 -0.984375 8.25 3.21875 
Q 4.25 7.421875 4.25 14.75 
Q 4.25 19.96875 6.21875 23.3125 
Q 8.203125 26.65625 11.390625 28.5625 
Q 14.59375 30.46875 18.6875 31.203125 
Q 22.796875 31.9375 27.046875 32.03125 
L 38.921875 32.234375 
L 38.921875 35.109375 
Q 38.921875 38.375 38.234375 40.671875 
Q 37.546875 42.96875 36.125 44.375 
Q 34.71875 45.796875 32.59375 46.453125 
Q 30.46875 47.125 27.59375 47.125 
Q 25.046875 47.125 23 46.75 
Q 20.953125 46.390625 19.4375 45.4375 
Q 17.921875 44.484375 16.984375 42.84375 
Q 16.0625 41.21875 15.765625 38.71875 
L 6.59375 39.546875 
Q 7.078125 42.671875 8.4375 45.28125 
Q 9.8125 47.90625 12.328125 49.796875 
Q 14.84375 51.703125 18.625 52.75 
Q 22.40625 53.8125 27.78125 53.8125 
Q 37.75 53.8125 42.765625 49.234375 
Q 47.796875 44.671875 47.796875 36.03125 
L 47.796875 13.28125 
Q 47.796875 9.375 48.828125 7.390625 
Q 49.859375 5.421875 52.734375 5.421875 
Q 53.46875 5.421875 54.203125 5.515625 
Q 54.9375 5.609375 55.609375 5.765625 
L 55.609375 0.296875 
Q 53.953125 -0.09375 52.3125 -0.28125 
Q 50.6875 -0.484375 48.828125 -0.484375 
Q 46.34375 -0.484375 44.5625 0.171875 
Q 42.78125 0.828125 41.65625 2.171875 
Q 40.53125 3.515625 39.9375 5.484375 
Q 39.359375 7.46875 39.203125 10.109375 
L 38.921875 10.109375 
Q 37.5 7.5625 35.8125 5.515625 
Q 34.125 3.46875 31.875 2.03125 
Q 29.640625 0.59375 26.78125 -0.1875 
Q 23.921875 -0.984375 20.21875 -0.984375 
M 22.21875 5.609375 
Q 26.421875 5.609375 29.5625 7.140625 
Q 32.71875 8.6875 34.78125 11.078125 
Q 36.859375 13.484375 37.890625 16.3125 
Q 38.921875 19.140625 38.921875 21.734375 
L 38.921875 26.078125 
L 29.296875 25.875 
Q 26.078125 25.828125 23.171875 25.40625 
Q 20.265625 25 18.0625 23.78125 
Q 15.875 22.5625 14.578125 20.359375 
Q 13.28125 18.171875 13.28125 14.59375 
Q 13.28125 10.296875 15.59375 7.953125 
Q 17.921875 5.609375 22.21875 5.609375 
" id="LiberationSans-61"/>
     </defs>
     <g style="fill:#262626;" transform="translate(1025.15125 56.1975)scale(0.08 -0.08)">
      <use xlink:href="#LiberationSans-61"/>
     </g>
    </g>
    <g id="line2d_29">
     <path d="M 1002.75125 64.855 
L 1018.75125 64.855 
" style="fill:none;stroke:#55a868;stroke-linecap:round;stroke-width:1.4;"/>
    </g>
    <g id="line2d_30"/>
    <g id="text_14">
     <!-- b -->
     <defs>
      <path d="M 51.421875 26.65625 
Q 51.421875 -0.984375 31.984375 -0.984375 
Q 25.984375 -0.984375 22 1.1875 
Q 18.015625 3.375 15.53125 8.203125 
L 15.4375 8.203125 
Q 15.4375 6.9375 15.359375 5.5625 
Q 15.28125 4.203125 15.203125 3.03125 
Q 15.140625 1.859375 15.0625 1.03125 
Q 14.984375 0.203125 14.9375 0 
L 6.453125 0 
Q 6.5 0.4375 6.546875 1.484375 
Q 6.59375 2.546875 6.640625 4 
Q 6.6875 5.46875 6.703125 7.21875 
Q 6.734375 8.984375 6.734375 10.890625 
L 6.734375 72.46875 
L 15.53125 72.46875 
L 15.53125 51.8125 
Q 15.53125 50.34375 15.5 49 
Q 15.484375 47.65625 15.4375 46.625 
Q 15.375 45.40625 15.328125 44.34375 
L 15.53125 44.34375 
Q 17.96875 49.421875 22 51.609375 
Q 26.03125 53.8125 31.984375 53.8125 
Q 42 53.8125 46.703125 47.0625 
Q 51.421875 40.328125 51.421875 26.65625 
M 42.1875 26.375 
Q 42.1875 31.84375 41.5 35.75 
Q 40.828125 39.65625 39.3125 42.15625 
Q 37.796875 44.671875 35.453125 45.84375 
Q 33.109375 47.015625 29.734375 47.015625 
Q 26.265625 47.015625 23.609375 45.890625 
Q 20.953125 44.78125 19.171875 42.28125 
Q 17.390625 39.796875 16.453125 35.734375 
Q 15.53125 31.6875 15.53125 25.828125 
Q 15.53125 20.171875 16.453125 16.3125 
Q 17.390625 12.453125 19.171875 10.03125 
Q 20.953125 7.625 23.578125 6.5625 
Q 26.21875 5.515625 29.640625 5.515625 
Q 32.859375 5.515625 35.203125 6.640625 
Q 37.546875 7.765625 39.109375 10.25 
Q 40.671875 12.75 41.421875 16.71875 
Q 42.1875 20.703125 42.1875 26.375 
" id="LiberationSans-62"/>
     </defs>
     <g style="fill:#262626;" transform="translate(1025.15125 67.655)scale(0.08 -0.08)">
      <use xlink:href="#LiberationSans-62"/>
     </g>
    </g>
   </g>
  </g>
 </g>
 <defs>
  <clipPath id="p27be0d2387">
   <rect height="277.2" width="892.8" x="144" y="43.2"/>
  </clipPath>
 </defs>
</svg>
