<?xml version="1.0" encoding="utf-8" standalone="no"?>
<!DOCTYPE svg PUBLIC "-//W3C//DTD SVG 1.1//EN"
  "http://www.w3.org/Graphics/SVG/1.1/DTD/svg11.dtd">
<!-- Created with matplotlib (http://matplotlib.org/) -->
<svg height="360pt" version="1.1" viewBox="0 0 1152 360" width="1152pt" xmlns="http://www.w3.org/2000/svg" xmlns:xlink="http://www.w3.org/1999/xlink">
 <defs>
  <style type="text/css">
*{stroke-linecap:butt;stroke-linejoin:round;}
  </style>
 </defs>
 <g id="figure_1">
  <g id="patch_1">
   <path d="M 0 360 
L 1152 360 
L 1152 0 
L 0 0 
z
" style="fill:#ffffff;"/>
  </g>
  <g id="axes_1">
   <g id="patch_2">
    <path d="M 144 320.4 
L 1036.8 320.4 
L 1036.8 43.2 
L 144 43.2 
z
" style="fill:#eaeaf2;"/>
   </g>
   <g id="matplotlib.axis_1">
    <g id="xtick_1">
     <g id="line2d_1">
      <path clip-path="url(#p46a929b2de)" d="M 184.581818 320.4 
L 184.581818 43.2 
" style="fill:none;stroke:#ffffff;stroke-linecap:round;stroke-width:0.8;"/>
     </g>
     <g id="line2d_2"/>
     <g id="text_1">
      <!-- 0 -->
      <defs>
       <path d="M 51.703125 34.421875 
Q 51.703125 24.515625 49.828125 17.75 
Q 47.953125 10.984375 44.703125 6.8125 
Q 41.453125 2.640625 37.0625 0.828125 
Q 32.671875 -0.984375 27.6875 -0.984375 
Q 22.65625 -0.984375 18.3125 0.828125 
Q 13.96875 2.640625 10.765625 6.78125 
Q 7.5625 10.9375 5.734375 17.703125 
Q 3.90625 24.46875 3.90625 34.421875 
Q 3.90625 44.828125 5.734375 51.640625 
Q 7.5625 58.453125 10.78125 62.5 
Q 14.015625 66.546875 18.40625 68.1875 
Q 22.796875 69.828125 27.984375 69.828125 
Q 32.90625 69.828125 37.21875 68.1875 
Q 41.546875 66.546875 44.765625 62.5 
Q 48 58.453125 49.84375 51.640625 
Q 51.703125 44.828125 51.703125 34.421875 
M 42.78125 34.421875 
Q 42.78125 42.625 41.796875 48.0625 
Q 40.828125 53.515625 38.921875 56.765625 
Q 37.015625 60.015625 34.25 61.359375 
Q 31.5 62.703125 27.984375 62.703125 
Q 24.265625 62.703125 21.4375 61.328125 
Q 18.609375 59.96875 16.671875 56.71875 
Q 14.75 53.46875 13.765625 48.015625 
Q 12.796875 42.578125 12.796875 34.421875 
Q 12.796875 26.515625 13.796875 21.09375 
Q 14.796875 15.671875 16.71875 12.375 
Q 18.65625 9.078125 21.4375 7.640625 
Q 24.21875 6.203125 27.78125 6.203125 
Q 31.25 6.203125 34.03125 7.640625 
Q 36.8125 9.078125 38.734375 12.375 
Q 40.671875 15.671875 41.71875 21.09375 
Q 42.78125 26.515625 42.78125 34.421875 
" id="LiberationSans-30"/>
      </defs>
      <g style="fill:#262626;" transform="translate(182.357443 331.7975)scale(0.08 -0.08)">
       <use xlink:href="#LiberationSans-30"/>
      </g>
     </g>
    </g>
    <g id="xtick_2">
     <g id="line2d_3">
      <path clip-path="url(#p46a929b2de)" d="M 299.625952 320.4 
L 299.625952 43.2 
" style="fill:none;stroke:#ffffff;stroke-linecap:round;stroke-width:0.8;"/>
     </g>
     <g id="line2d_4"/>
     <g id="text_2">
      <!-- 200 -->
      <defs>
       <path d="M 5.03125 0 
L 5.03125 6.203125 
Q 7.515625 11.921875 11.109375 16.28125 
Q 14.703125 20.65625 18.65625 24.1875 
Q 22.609375 27.734375 26.484375 30.765625 
Q 30.375 33.796875 33.5 36.8125 
Q 36.625 39.84375 38.546875 43.15625 
Q 40.484375 46.484375 40.484375 50.6875 
Q 40.484375 53.609375 39.59375 55.828125 
Q 38.71875 58.0625 37.0625 59.5625 
Q 35.40625 61.078125 33.078125 61.828125 
Q 30.765625 62.59375 27.9375 62.59375 
Q 25.296875 62.59375 22.96875 61.859375 
Q 20.65625 61.140625 18.84375 59.671875 
Q 17.046875 58.203125 15.890625 56.03125 
Q 14.75 53.859375 14.40625 50.984375 
L 5.421875 51.8125 
Q 5.859375 55.515625 7.46875 58.78125 
Q 9.078125 62.0625 11.90625 64.53125 
Q 14.75 67 18.71875 68.40625 
Q 22.703125 69.828125 27.9375 69.828125 
Q 33.0625 69.828125 37.0625 68.609375 
Q 41.0625 67.390625 43.8125 64.984375 
Q 46.578125 62.59375 48.046875 59.078125 
Q 49.515625 55.5625 49.515625 50.984375 
Q 49.515625 47.515625 48.265625 44.390625 
Q 47.015625 41.265625 44.9375 38.421875 
Q 42.875 35.59375 40.140625 32.953125 
Q 37.40625 30.328125 34.421875 27.8125 
Q 31.453125 25.296875 28.421875 22.828125 
Q 25.390625 20.359375 22.71875 17.859375 
Q 20.0625 15.375 17.96875 12.8125 
Q 15.875 10.25 14.703125 7.46875 
L 50.59375 7.46875 
L 50.59375 0 
z
" id="LiberationSans-32"/>
      </defs>
      <g style="fill:#262626;" transform="translate(292.952827 331.7975)scale(0.08 -0.08)">
       <use xlink:href="#LiberationSans-32"/>
       <use x="55.615234" xlink:href="#LiberationSans-30"/>
       <use x="111.230469" xlink:href="#LiberationSans-30"/>
      </g>
     </g>
    </g>
    <g id="xtick_3">
     <g id="line2d_5">
      <path clip-path="url(#p46a929b2de)" d="M 414.670086 320.4 
L 414.670086 43.2 
" style="fill:none;stroke:#ffffff;stroke-linecap:round;stroke-width:0.8;"/>
     </g>
     <g id="line2d_6"/>
     <g id="text_3">
      <!-- 400 -->
      <defs>
       <path d="M 43.015625 15.578125 
L 43.015625 0 
L 34.71875 0 
L 34.71875 15.578125 
L 2.296875 15.578125 
L 2.296875 22.40625 
L 33.796875 68.796875 
L 43.015625 68.796875 
L 43.015625 22.515625 
L 52.6875 22.515625 
L 52.6875 15.578125 
z
M 34.71875 58.890625 
Q 34.625 58.640625 34.234375 57.9375 
Q 33.84375 57.234375 33.34375 56.34375 
Q 32.859375 55.46875 32.34375 54.5625 
Q 31.84375 53.65625 31.453125 53.078125 
L 13.8125 27.09375 
Q 13.578125 26.703125 13.109375 26.0625 
Q 12.640625 25.4375 12.15625 24.78125 
Q 11.671875 24.125 11.171875 23.484375 
Q 10.6875 22.859375 10.40625 22.515625 
L 34.71875 22.515625 
z
" id="LiberationSans-34"/>
      </defs>
      <g style="fill:#262626;" transform="translate(407.996961 331.7975)scale(0.08 -0.08)">
       <use xlink:href="#LiberationSans-34"/>
       <use x="55.615234" xlink:href="#LiberationSans-30"/>
       <use x="111.230469" xlink:href="#LiberationSans-30"/>
      </g>
     </g>
    </g>
    <g id="xtick_4">
     <g id="line2d_7">
      <path clip-path="url(#p46a929b2de)" d="M 529.714219 320.4 
L 529.714219 43.2 
" style="fill:none;stroke:#ffffff;stroke-linecap:round;stroke-width:0.8;"/>
     </g>
     <g id="line2d_8"/>
     <g id="text_4">
      <!-- 600 -->
      <defs>
       <path d="M 51.21875 22.515625 
Q 51.21875 17.328125 49.78125 13 
Q 48.34375 8.6875 45.53125 5.578125 
Q 42.71875 2.484375 38.5625 0.75 
Q 34.421875 -0.984375 29 -0.984375 
Q 23 -0.984375 18.5 1.3125 
Q 14.015625 3.609375 11.03125 7.921875 
Q 8.0625 12.25 6.5625 18.53125 
Q 5.078125 24.8125 5.078125 32.8125 
Q 5.078125 42 6.765625 48.921875 
Q 8.453125 55.859375 11.625 60.5 
Q 14.796875 65.140625 19.359375 67.484375 
Q 23.921875 69.828125 29.6875 69.828125 
Q 33.203125 69.828125 36.28125 69.09375 
Q 39.359375 68.359375 41.875 66.71875 
Q 44.390625 65.09375 46.28125 62.40625 
Q 48.1875 59.71875 49.3125 55.8125 
L 40.921875 54.296875 
Q 39.546875 58.734375 36.546875 60.71875 
Q 33.546875 62.703125 29.59375 62.703125 
Q 25.984375 62.703125 23.046875 60.984375 
Q 20.125 59.28125 18.0625 55.875 
Q 16.015625 52.484375 14.90625 47.359375 
Q 13.8125 42.234375 13.8125 35.40625 
Q 16.21875 39.84375 20.5625 42.15625 
Q 24.90625 44.484375 30.515625 44.484375 
Q 35.203125 44.484375 39.015625 42.96875 
Q 42.828125 41.453125 45.53125 38.59375 
Q 48.25 35.75 49.734375 31.671875 
Q 51.21875 27.59375 51.21875 22.515625 
M 42.28125 22.125 
Q 42.28125 25.6875 41.40625 28.5625 
Q 40.53125 31.453125 38.765625 33.46875 
Q 37.015625 35.5 34.421875 36.59375 
Q 31.84375 37.703125 28.421875 37.703125 
Q 26.03125 37.703125 23.578125 36.984375 
Q 21.140625 36.28125 19.15625 34.6875 
Q 17.1875 33.109375 15.9375 30.515625 
Q 14.703125 27.9375 14.703125 24.21875 
Q 14.703125 20.40625 15.671875 17.109375 
Q 16.65625 13.8125 18.484375 11.375 
Q 20.3125 8.9375 22.890625 7.515625 
Q 25.484375 6.109375 28.71875 6.109375 
Q 31.890625 6.109375 34.40625 7.203125 
Q 36.921875 8.296875 38.671875 10.375 
Q 40.4375 12.453125 41.359375 15.421875 
Q 42.28125 18.40625 42.28125 22.125 
" id="LiberationSans-36"/>
      </defs>
      <g style="fill:#262626;" transform="translate(523.041094 331.7975)scale(0.08 -0.08)">
       <use xlink:href="#LiberationSans-36"/>
       <use x="55.615234" xlink:href="#LiberationSans-30"/>
       <use x="111.230469" xlink:href="#LiberationSans-30"/>
      </g>
     </g>
    </g>
    <g id="xtick_5">
     <g id="line2d_9">
      <path clip-path="url(#p46a929b2de)" d="M 644.758353 320.4 
L 644.758353 43.2 
" style="fill:none;stroke:#ffffff;stroke-linecap:round;stroke-width:0.8;"/>
     </g>
     <g id="line2d_10"/>
     <g id="text_5">
      <!-- 800 -->
      <defs>
       <path d="M 51.265625 19.1875 
Q 51.265625 14.796875 49.875 11.109375 
Q 48.484375 7.421875 45.625 4.734375 
Q 42.78125 2.046875 38.328125 0.53125 
Q 33.890625 -0.984375 27.828125 -0.984375 
Q 21.78125 -0.984375 17.359375 0.53125 
Q 12.9375 2.046875 10.03125 4.703125 
Q 7.125 7.375 5.734375 11.0625 
Q 4.34375 14.75 4.34375 19.09375 
Q 4.34375 22.859375 5.484375 25.78125 
Q 6.640625 28.71875 8.5625 30.828125 
Q 10.5 32.953125 12.96875 34.25 
Q 15.4375 35.546875 18.0625 35.984375 
L 18.0625 36.1875 
Q 15.1875 36.859375 12.90625 38.375 
Q 10.640625 39.890625 9.09375 42.015625 
Q 7.5625 44.140625 6.75 46.71875 
Q 5.953125 49.3125 5.953125 52.203125 
Q 5.953125 55.8125 7.34375 59 
Q 8.734375 62.203125 11.46875 64.625 
Q 14.203125 67.046875 18.25 68.4375 
Q 22.3125 69.828125 27.640625 69.828125 
Q 33.25 69.828125 37.375 68.40625 
Q 41.5 67 44.203125 64.578125 
Q 46.921875 62.15625 48.234375 58.9375 
Q 49.5625 55.71875 49.5625 52.09375 
Q 49.5625 49.265625 48.75 46.671875 
Q 47.953125 44.09375 46.40625 41.96875 
Q 44.875 39.84375 42.59375 38.34375 
Q 40.328125 36.859375 37.359375 36.28125 
L 37.359375 36.078125 
Q 40.328125 35.59375 42.859375 34.296875 
Q 45.40625 33.015625 47.265625 30.890625 
Q 49.125 28.765625 50.1875 25.828125 
Q 51.265625 22.90625 51.265625 19.1875 
M 40.4375 51.609375 
Q 40.4375 54.203125 39.765625 56.34375 
Q 39.109375 58.5 37.59375 60.03125 
Q 36.078125 61.578125 33.640625 62.421875 
Q 31.203125 63.28125 27.640625 63.28125 
Q 24.171875 63.28125 21.78125 62.421875 
Q 19.390625 61.578125 17.84375 60.03125 
Q 16.3125 58.5 15.625 56.34375 
Q 14.9375 54.203125 14.9375 51.609375 
Q 14.9375 49.5625 15.46875 47.40625 
Q 16.015625 45.265625 17.421875 43.5 
Q 18.84375 41.75 21.328125 40.625 
Q 23.828125 39.5 27.734375 39.5 
Q 31.890625 39.5 34.40625 40.625 
Q 36.921875 41.75 38.25 43.5 
Q 39.59375 45.265625 40.015625 47.40625 
Q 40.4375 49.5625 40.4375 51.609375 
M 42.140625 20.015625 
Q 42.140625 22.515625 41.453125 24.828125 
Q 40.765625 27.15625 39.109375 28.9375 
Q 37.453125 30.71875 34.640625 31.8125 
Q 31.84375 32.90625 27.640625 32.90625 
Q 23.78125 32.90625 21.0625 31.8125 
Q 18.359375 30.71875 16.671875 28.90625 
Q 14.984375 27.09375 14.203125 24.71875 
Q 13.421875 22.359375 13.421875 19.828125 
Q 13.421875 16.65625 14.203125 14.03125 
Q 14.984375 11.421875 16.6875 9.546875 
Q 18.40625 7.671875 21.1875 6.640625 
Q 23.96875 5.609375 27.9375 5.609375 
Q 31.9375 5.609375 34.671875 6.640625 
Q 37.40625 7.671875 39.0625 9.546875 
Q 40.71875 11.421875 41.421875 14.078125 
Q 42.140625 16.75 42.140625 20.015625 
" id="LiberationSans-38"/>
      </defs>
      <g style="fill:#262626;" transform="translate(638.085228 331.7975)scale(0.08 -0.08)">
       <use xlink:href="#LiberationSans-38"/>
       <use x="55.615234" xlink:href="#LiberationSans-30"/>
       <use x="111.230469" xlink:href="#LiberationSans-30"/>
      </g>
     </g>
    </g>
    <g id="xtick_6">
     <g id="line2d_11">
      <path clip-path="url(#p46a929b2de)" d="M 759.802487 320.4 
L 759.802487 43.2 
" style="fill:none;stroke:#ffffff;stroke-linecap:round;stroke-width:0.8;"/>
     </g>
     <g id="line2d_12"/>
     <g id="text_6">
      <!-- 1000 -->
      <defs>
       <path d="M 7.625 0 
L 7.625 7.46875 
L 25.140625 7.46875 
L 25.140625 60.40625 
L 9.625 49.3125 
L 9.625 57.625 
L 25.875 68.796875 
L 33.984375 68.796875 
L 33.984375 7.46875 
L 50.734375 7.46875 
L 50.734375 0 
z
" id="LiberationSans-31"/>
      </defs>
      <g style="fill:#262626;" transform="translate(750.904987 331.7975)scale(0.08 -0.08)">
       <use xlink:href="#LiberationSans-31"/>
       <use x="55.615234" xlink:href="#LiberationSans-30"/>
       <use x="111.230469" xlink:href="#LiberationSans-30"/>
       <use x="166.845703" xlink:href="#LiberationSans-30"/>
      </g>
     </g>
    </g>
    <g id="xtick_7">
     <g id="line2d_13">
      <path clip-path="url(#p46a929b2de)" d="M 874.846621 320.4 
L 874.846621 43.2 
" style="fill:none;stroke:#ffffff;stroke-linecap:round;stroke-width:0.8;"/>
     </g>
     <g id="line2d_14"/>
     <g id="text_7">
      <!-- 1200 -->
      <g style="fill:#262626;" transform="translate(865.949121 331.7975)scale(0.08 -0.08)">
       <use xlink:href="#LiberationSans-31"/>
       <use x="55.615234" xlink:href="#LiberationSans-32"/>
       <use x="111.230469" xlink:href="#LiberationSans-30"/>
       <use x="166.845703" xlink:href="#LiberationSans-30"/>
      </g>
     </g>
    </g>
    <g id="xtick_8">
     <g id="line2d_15">
      <path clip-path="url(#p46a929b2de)" d="M 989.890754 320.4 
L 989.890754 43.2 
" style="fill:none;stroke:#ffffff;stroke-linecap:round;stroke-width:0.8;"/>
     </g>
     <g id="line2d_16"/>
     <g id="text_8">
      <!-- 1400 -->
      <g style="fill:#262626;" transform="translate(980.993254 331.7975)scale(0.08 -0.08)">
       <use xlink:href="#LiberationSans-31"/>
       <use x="55.615234" xlink:href="#LiberationSans-34"/>
       <use x="111.230469" xlink:href="#LiberationSans-30"/>
       <use x="166.845703" xlink:href="#LiberationSans-30"/>
      </g>
     </g>
    </g>
   </g>
   <g id="matplotlib.axis_2">
    <g id="ytick_1">
     <g id="line2d_17">
      <path clip-path="url(#p46a929b2de)" d="M 144 301.386992 
L 1036.8 301.386992 
" style="fill:none;stroke:#ffffff;stroke-linecap:round;stroke-width:0.8;"/>
     </g>
     <g id="line2d_18"/>
     <g id="text_9">
      <!-- −75000 -->
      <defs>
       <path d="M 4.9375 29.6875 
L 4.9375 36.8125 
L 53.515625 36.8125 
L 53.515625 29.6875 
z
" id="LiberationSans-2212"/>
       <path d="M 50.59375 61.671875 
Q 45.40625 53.765625 41.0625 46.453125 
Q 36.71875 39.15625 33.59375 31.75 
Q 30.46875 24.359375 28.734375 16.578125 
Q 27 8.796875 27 0 
L 17.828125 0 
Q 17.828125 8.25 19.78125 16.1875 
Q 21.734375 24.125 25.046875 31.765625 
Q 28.375 39.40625 32.765625 46.78125 
Q 37.15625 54.15625 42.09375 61.328125 
L 5.125 61.328125 
L 5.125 68.796875 
L 50.59375 68.796875 
z
" id="LiberationSans-37"/>
       <path d="M 51.421875 22.40625 
Q 51.421875 17.234375 49.859375 12.9375 
Q 48.296875 8.640625 45.21875 5.53125 
Q 42.140625 2.4375 37.578125 0.71875 
Q 33.015625 -0.984375 27 -0.984375 
Q 21.578125 -0.984375 17.546875 0.28125 
Q 13.53125 1.5625 10.734375 3.78125 
Q 7.953125 6 6.3125 8.984375 
Q 4.6875 11.96875 4 15.375 
L 12.890625 16.40625 
Q 13.421875 14.453125 14.390625 12.625 
Q 15.375 10.796875 17.0625 9.34375 
Q 18.75 7.90625 21.21875 7.046875 
Q 23.6875 6.203125 27.203125 6.203125 
Q 30.609375 6.203125 33.390625 7.25 
Q 36.1875 8.296875 38.15625 10.34375 
Q 40.140625 12.40625 41.203125 15.375 
Q 42.28125 18.359375 42.28125 22.21875 
Q 42.28125 25.390625 41.25 28.046875 
Q 40.234375 30.71875 38.328125 32.640625 
Q 36.421875 34.578125 33.65625 35.640625 
Q 30.90625 36.71875 27.390625 36.71875 
Q 25.203125 36.71875 23.34375 36.328125 
Q 21.484375 35.9375 19.890625 35.25 
Q 18.3125 34.578125 17.015625 33.671875 
Q 15.71875 32.765625 14.59375 31.78125 
L 6 31.78125 
L 8.296875 68.796875 
L 47.40625 68.796875 
L 47.40625 61.328125 
L 16.3125 61.328125 
L 14.984375 39.5 
Q 17.328125 41.3125 20.84375 42.59375 
Q 24.359375 43.890625 29.203125 43.890625 
Q 34.328125 43.890625 38.421875 42.328125 
Q 42.53125 40.765625 45.40625 37.90625 
Q 48.296875 35.0625 49.859375 31.109375 
Q 51.421875 27.15625 51.421875 22.40625 
" id="LiberationSans-35"/>
      </defs>
      <g style="fill:#262626;" transform="translate(111.48375 304.285742)scale(0.08 -0.08)">
       <use xlink:href="#LiberationSans-2212"/>
       <use x="58.398438" xlink:href="#LiberationSans-37"/>
       <use x="114.013672" xlink:href="#LiberationSans-35"/>
       <use x="169.628906" xlink:href="#LiberationSans-30"/>
       <use x="225.244141" xlink:href="#LiberationSans-30"/>
       <use x="280.859375" xlink:href="#LiberationSans-30"/>
      </g>
     </g>
    </g>
    <g id="ytick_2">
     <g id="line2d_19">
      <path clip-path="url(#p46a929b2de)" d="M 144 266.487406 
L 1036.8 266.487406 
" style="fill:none;stroke:#ffffff;stroke-linecap:round;stroke-width:0.8;"/>
     </g>
     <g id="line2d_20"/>
     <g id="text_10">
      <!-- −50000 -->
      <g style="fill:#262626;" transform="translate(111.48375 269.386156)scale(0.08 -0.08)">
       <use xlink:href="#LiberationSans-2212"/>
       <use x="58.398438" xlink:href="#LiberationSans-35"/>
       <use x="114.013672" xlink:href="#LiberationSans-30"/>
       <use x="169.628906" xlink:href="#LiberationSans-30"/>
       <use x="225.244141" xlink:href="#LiberationSans-30"/>
       <use x="280.859375" xlink:href="#LiberationSans-30"/>
      </g>
     </g>
    </g>
    <g id="ytick_3">
     <g id="line2d_21">
      <path clip-path="url(#p46a929b2de)" d="M 144 231.587819 
L 1036.8 231.587819 
" style="fill:none;stroke:#ffffff;stroke-linecap:round;stroke-width:0.8;"/>
     </g>
     <g id="line2d_22"/>
     <g id="text_11">
      <!-- −25000 -->
      <g style="fill:#262626;" transform="translate(111.48375 234.486569)scale(0.08 -0.08)">
       <use xlink:href="#LiberationSans-2212"/>
       <use x="58.398438" xlink:href="#LiberationSans-32"/>
       <use x="114.013672" xlink:href="#LiberationSans-35"/>
       <use x="169.628906" xlink:href="#LiberationSans-30"/>
       <use x="225.244141" xlink:href="#LiberationSans-30"/>
       <use x="280.859375" xlink:href="#LiberationSans-30"/>
      </g>
     </g>
    </g>
    <g id="ytick_4">
     <g id="line2d_23">
      <path clip-path="url(#p46a929b2de)" d="M 144 196.688233 
L 1036.8 196.688233 
" style="fill:none;stroke:#ffffff;stroke-linecap:round;stroke-width:0.8;"/>
     </g>
     <g id="line2d_24"/>
     <g id="text_12">
      <!-- 0 -->
      <g style="fill:#262626;" transform="translate(133.95125 199.586983)scale(0.08 -0.08)">
       <use xlink:href="#LiberationSans-30"/>
      </g>
     </g>
    </g>
    <g id="ytick_5">
     <g id="line2d_25">
      <path clip-path="url(#p46a929b2de)" d="M 144 161.788647 
L 1036.8 161.788647 
" style="fill:none;stroke:#ffffff;stroke-linecap:round;stroke-width:0.8;"/>
     </g>
     <g id="line2d_26"/>
     <g id="text_13">
      <!-- 25000 -->
      <g style="fill:#262626;" transform="translate(116.15625 164.687397)scale(0.08 -0.08)">
       <use xlink:href="#LiberationSans-32"/>
       <use x="55.615234" xlink:href="#LiberationSans-35"/>
       <use x="111.230469" xlink:href="#LiberationSans-30"/>
       <use x="166.845703" xlink:href="#LiberationSans-30"/>
       <use x="222.460938" xlink:href="#LiberationSans-30"/>
      </g>
     </g>
    </g>
    <g id="ytick_6">
     <g id="line2d_27">
      <path clip-path="url(#p46a929b2de)" d="M 144 126.889061 
L 1036.8 126.889061 
" style="fill:none;stroke:#ffffff;stroke-linecap:round;stroke-width:0.8;"/>
     </g>
     <g id="line2d_28"/>
     <g id="text_14">
      <!-- 50000 -->
      <g style="fill:#262626;" transform="translate(116.15625 129.787811)scale(0.08 -0.08)">
       <use xlink:href="#LiberationSans-35"/>
       <use x="55.615234" xlink:href="#LiberationSans-30"/>
       <use x="111.230469" xlink:href="#LiberationSans-30"/>
       <use x="166.845703" xlink:href="#LiberationSans-30"/>
       <use x="222.460938" xlink:href="#LiberationSans-30"/>
      </g>
     </g>
    </g>
    <g id="ytick_7">
     <g id="line2d_29">
      <path clip-path="url(#p46a929b2de)" d="M 144 91.989475 
L 1036.8 91.989475 
" style="fill:none;stroke:#ffffff;stroke-linecap:round;stroke-width:0.8;"/>
     </g>
     <g id="line2d_30"/>
     <g id="text_15">
      <!-- 75000 -->
      <g style="fill:#262626;" transform="translate(116.15625 94.888225)scale(0.08 -0.08)">
       <use xlink:href="#LiberationSans-37"/>
       <use x="55.615234" xlink:href="#LiberationSans-35"/>
       <use x="111.230469" xlink:href="#LiberationSans-30"/>
       <use x="166.845703" xlink:href="#LiberationSans-30"/>
       <use x="222.460938" xlink:href="#LiberationSans-30"/>
      </g>
     </g>
    </g>
    <g id="ytick_8">
     <g id="line2d_31">
      <path clip-path="url(#p46a929b2de)" d="M 144 57.089889 
L 1036.8 57.089889 
" style="fill:none;stroke:#ffffff;stroke-linecap:round;stroke-width:0.8;"/>
     </g>
     <g id="line2d_32"/>
     <g id="text_16">
      <!-- 100000 -->
      <g style="fill:#262626;" transform="translate(111.7075 59.988639)scale(0.08 -0.08)">
       <use xlink:href="#LiberationSans-31"/>
       <use x="55.615234" xlink:href="#LiberationSans-30"/>
       <use x="111.230469" xlink:href="#LiberationSans-30"/>
       <use x="166.845703" xlink:href="#LiberationSans-30"/>
       <use x="222.460938" xlink:href="#LiberationSans-30"/>
       <use x="278.076172" xlink:href="#LiberationSans-30"/>
      </g>
     </g>
    </g>
   </g>
   <g id="line2d_33">
    <path clip-path="url(#p46a929b2de)" d="M 184.581818 196.688233 
L 187.457922 196.688411 
L 188.033142 195.953524 
L 188.608363 193.31121 
L 189.183584 189.902148 
L 189.758804 188.575587 
L 190.334025 191.676415 
L 191.484466 205.817239 
L 192.059687 209.803302 
L 192.634908 209.545241 
L 193.210128 206.589371 
L 193.785349 202.653578 
L 194.36057 197.445001 
L 194.93579 189.430515 
L 195.511011 179.598744 
L 196.086232 173.136597 
L 196.661452 175.997804 
L 197.236673 189.421483 
L 197.811894 207.487366 
L 198.387114 220.409901 
L 198.962335 221.766099 
L 199.537556 212.936503 
L 200.687997 189.120426 
L 201.263218 181.625013 
L 201.838438 178.356318 
L 202.413659 180.668765 
L 202.98888 189.306719 
L 203.5641 201.239474 
L 204.139321 210.496534 
L 204.714542 212.887504 
L 205.289762 208.897114 
L 207.590645 182.24148 
L 208.165866 184.101739 
L 208.741086 194.092514 
L 209.316307 206.690441 
L 209.891528 212.174994 
L 210.466748 206.167212 
L 211.041969 194.603374 
L 211.61719 186.918304 
L 212.19241 186.909174 
L 213.342852 197.239239 
L 214.493293 207.402099 
L 215.068514 206.772273 
L 215.643734 198.118265 
L 216.218955 185.955354 
L 216.794176 180.607342 
L 217.369396 187.589492 
L 217.944617 200.650914 
L 218.519838 209.122984 
L 219.095058 208.808678 
L 220.2455 196.335502 
L 220.82072 189.37335 
L 221.395941 183.854162 
L 221.971162 184.902266 
L 222.546382 195.278095 
L 223.121603 208.931036 
L 223.696824 214.007921 
L 224.272044 205.459267 
L 224.847265 191.394273 
L 225.422486 183.414553 
L 225.997706 185.169178 
L 227.723368 205.206887 
L 228.298589 208.712425 
L 228.87381 206.152666 
L 230.024251 185.046904 
L 230.599472 181.428599 
L 231.174692 188.260053 
L 231.749913 198.977269 
L 232.325134 206.210125 
L 232.900354 208.4938 
L 233.475575 207.589133 
L 234.050796 202.69046 
L 235.201237 179.054031 
L 235.776458 175.399207 
L 236.351678 187.114676 
L 236.926899 207.971325 
L 237.50212 222.144271 
L 238.07734 218.689212 
L 239.227782 185.969733 
L 239.803002 177.882103 
L 240.378223 177.880148 
L 240.953444 183.119079 
L 241.528664 193.690568 
L 242.679106 223.279764 
L 243.254326 224.686217 
L 243.829547 209.426554 
L 244.404768 184.712705 
L 244.979988 166.011916 
L 245.555209 164.805367 
L 246.13043 178.949751 
L 246.70565 197.684861 
L 247.280871 212.547862 
L 247.856092 221.28616 
L 248.431312 224.599387 
L 249.006533 220.922506 
L 249.581754 206.800179 
L 250.732195 163.318785 
L 251.307416 155.337947 
L 251.882636 164.554509 
L 253.608298 226.032503 
L 254.183519 234.157965 
L 254.75874 235.566512 
L 255.33396 229.778764 
L 255.909181 214.291445 
L 256.484402 188.723212 
L 257.059622 158.163278 
L 257.634843 134.040963 
L 258.210064 129.551201 
L 258.785284 149.507622 
L 259.935726 220.842376 
L 260.510946 244.799546 
L 261.086167 254.172458 
L 261.661388 253.127286 
L 262.236608 247.960611 
L 262.811829 241.132856 
L 263.38705 227.332443 
L 263.96227 198.894194 
L 265.112712 117.151099 
L 265.687932 95.498419 
L 266.263153 102.094301 
L 266.838374 133.998805 
L 267.988815 220.458062 
L 268.564036 245.713357 
L 269.139256 249.407827 
L 270.289698 224.816741 
L 270.864918 219.839223 
L 271.440139 223.088933 
L 272.01536 228.053887 
L 272.590581 228.079992 
L 273.165801 220.689935 
L 274.891463 184.824147 
L 275.466684 181.89053 
L 276.041905 186.156515 
L 276.617125 196.751423 
L 278.342787 245.984597 
L 278.918008 250.420194 
L 279.493229 237.424147 
L 280.64367 182.428262 
L 281.218891 163.603984 
L 281.794111 160.070889 
L 282.369332 170.890878 
L 284.094994 226.716396 
L 284.670215 233.170167 
L 285.245435 230.018594 
L 285.820656 218.913965 
L 287.546318 171.67207 
L 288.121539 163.185468 
L 288.696759 161.625875 
L 289.27198 166.391205 
L 291.572863 200.854406 
L 292.148083 202.630572 
L 292.723304 200.765133 
L 293.298525 196.467556 
L 294.448966 186.734522 
L 295.024187 183.8611 
L 295.599407 183.112266 
L 296.174628 184.298866 
L 297.90029 192.035239 
L 298.475511 193.451618 
L 299.050731 193.697395 
L 299.625952 192.984759 
L 300.776393 190.696812 
L 301.351614 190.198013 
L 301.926835 190.607902 
L 302.502055 191.980851 
L 303.652497 196.551147 
L 304.227717 198.808983 
L 304.802938 200.41657 
L 305.378159 201.04211 
L 305.953379 200.567532 
L 306.5286 199.019567 
L 307.103821 196.540019 
L 308.254262 189.677395 
L 309.979924 177.195977 
L 311.705586 162.670629 
L 312.280807 157.716284 
L 312.856027 154.233724 
L 313.431248 155.13539 
L 314.006469 163.74093 
L 315.15691 192.738298 
L 315.732131 197.113448 
L 316.307351 191.221981 
L 316.882572 182.504064 
L 317.457793 180.403668 
L 318.033013 190.340278 
L 318.608234 211.791518 
L 319.758675 261.908021 
L 320.333896 269.25927 
L 320.909117 255.643685 
L 322.634779 177.427012 
L 323.209999 163.532928 
L 324.360441 145.238565 
L 324.935661 138.658318 
L 325.510882 139.739507 
L 326.086103 155.389319 
L 327.236544 211.653874 
L 327.811765 229.853589 
L 328.386985 238.133167 
L 328.962206 243.605003 
L 330.112647 260.604312 
L 330.687868 250.05682 
L 331.263089 206.283232 
L 331.838309 141.613894 
L 332.41353 90.359245 
L 332.988751 80.254978 
L 333.563971 114.733396 
L 334.714413 233.681236 
L 335.289633 271.62281 
L 335.864854 286.280217 
L 336.440075 279.67903 
L 337.015295 251.689702 
L 338.740957 110.886484 
L 339.316178 106.504911 
L 339.891399 136.493706 
L 341.04184 221.958326 
L 341.617061 250.534386 
L 342.192281 264.035779 
L 342.767502 256.662334 
L 343.342723 223.10722 
L 343.917943 175.261981 
L 344.493164 140.182313 
L 345.068385 136.798449 
L 345.643605 163.005526 
L 346.218826 197.967475 
L 346.794047 220.217953 
L 347.369267 226.079827 
L 347.944488 221.644648 
L 348.519709 208.763839 
L 349.67015 167.996027 
L 350.245371 167.568019 
L 351.395812 221.242326 
L 351.971033 229.040289 
L 352.546253 211.149505 
L 353.121474 184.319834 
L 353.696695 169.287591 
L 354.271915 169.852406 
L 354.847136 178.87004 
L 355.422357 194.466358 
L 356.572798 235.292341 
L 357.148019 229.936231 
L 358.29846 160.531006 
L 358.873681 152.365619 
L 359.448901 175.683848 
L 360.024122 208.485606 
L 360.599343 224.94573 
L 361.174563 221.12604 
L 362.325005 193.018961 
L 362.900226 177.444462 
L 363.475446 168.511843 
L 364.050667 177.371312 
L 365.201108 222.911084 
L 365.776329 223.531041 
L 366.92677 186.987851 
L 367.501991 176.60743 
L 368.077212 174.248079 
L 368.652432 178.301875 
L 369.227653 192.339759 
L 369.802874 215.465607 
L 370.378094 233.046762 
L 370.953315 225.407103 
L 372.103756 164.641898 
L 372.678977 158.519812 
L 373.254198 175.713722 
L 373.829418 200.155298 
L 374.404639 217.240041 
L 374.97986 225.215993 
L 375.55508 224.610275 
L 376.130301 210.976682 
L 377.280742 154.656149 
L 377.855963 148.376597 
L 378.431184 176.036613 
L 379.006404 218.113648 
L 379.581625 244.135617 
L 380.156846 240.309505 
L 381.882508 166.438808 
L 382.457728 158.514508 
L 383.032949 161.130999 
L 383.60817 176.84028 
L 384.758611 236.74542 
L 385.333832 252.608678 
L 385.909052 238.689327 
L 387.059494 167.478396 
L 387.634714 148.331646 
L 388.209935 148.563938 
L 388.785156 161.859144 
L 389.360376 181.691323 
L 391.086038 256.881923 
L 391.661259 258.010854 
L 392.23648 234.767032 
L 393.386921 152.811636 
L 393.962142 128.657912 
L 394.537362 127.733073 
L 395.112583 143.363201 
L 396.263024 194.892105 
L 397.988686 290.196788 
L 398.563907 299.830749 
L 399.139128 273.979928 
L 400.86479 88.482346 
L 401.44001 71.168661 
L 402.015231 90.200522 
L 403.740893 213.585496 
L 404.316114 234.600491 
L 406.041776 279.865254 
L 406.616996 280.891581 
L 407.192217 263.261567 
L 408.917879 160.066283 
L 409.4931 145.02512 
L 410.06832 150.7111 
L 410.643541 174.31369 
L 411.218762 205.281126 
L 411.793982 226.967114 
L 412.369203 226.194996 
L 412.944424 202.960219 
L 414.094865 140.110699 
L 414.670086 126.869238 
L 415.245306 132.659359 
L 415.820527 153.644898 
L 416.970968 209.46197 
L 417.546189 229.885138 
L 418.12141 240.306155 
L 418.69663 240.361575 
L 419.271851 231.726301 
L 420.997513 188.159891 
L 421.572734 179.083346 
L 422.147954 175.554579 
L 422.723175 176.995793 
L 423.298396 181.753444 
L 424.448837 193.104939 
L 425.024058 196.674378 
L 425.599278 198.07197 
L 426.174499 197.625544 
L 427.900161 193.190541 
L 428.475382 193.065182 
L 429.050602 194.063324 
L 430.201044 198.110461 
L 430.776264 200.046565 
L 431.351485 201.236822 
L 431.926706 201.431506 
L 432.501926 200.658382 
L 433.652368 197.511105 
L 434.227588 195.983997 
L 434.802809 195.004063 
L 435.37803 194.774005 
L 435.95325 195.311422 
L 436.528471 196.461773 
L 438.254133 200.864388 
L 438.829354 201.724523 
L 439.404574 202.035171 
L 439.979795 201.828188 
L 440.555016 201.172928 
L 441.130236 200.14815 
L 442.280678 197.346812 
L 445.156781 189.28095 
L 445.732002 188.057552 
L 446.307222 187.258295 
L 446.882443 187.064128 
L 447.457664 187.636481 
L 448.032884 189.134064 
L 448.608105 191.742501 
L 449.183326 195.672223 
L 449.758546 201.204309 
L 450.333767 208.730643 
L 450.908988 218.807591 
L 452.059429 247.534138 
L 452.63465 260.944793 
L 453.20987 261.217428 
L 453.785091 237.728053 
L 455.510753 106.457308 
L 456.085974 97.349912 
L 456.661195 114.280678 
L 457.811636 181.724128 
L 458.386857 206.184048 
L 458.962077 216.088913 
L 459.537298 217.380756 
L 460.112519 219.714003 
L 460.687739 225.573644 
L 461.26296 229.255829 
L 461.838181 225.496306 
L 462.988622 207.856282 
L 463.563843 208.701941 
L 464.714284 232.110755 
L 465.289505 223.901814 
L 465.864725 186.775006 
L 466.439946 136.772065 
L 467.015167 103.145477 
L 467.590387 104.828195 
L 468.165608 140.545269 
L 469.316049 240.355573 
L 469.89127 269.035494 
L 470.466491 280.467761 
L 471.041711 278.477228 
L 471.616932 259.975422 
L 472.192153 221.100494 
L 473.342594 113.252397 
L 473.917815 88.012039 
L 474.493035 105.815714 
L 476.218697 253.665298 
L 476.793918 276.639556 
L 477.369139 280.317553 
L 477.944359 261.895039 
L 478.51958 218.479535 
L 479.094801 162.828515 
L 479.670021 121.799445 
L 480.245242 114.950471 
L 480.820463 142.208025 
L 481.970904 222.970414 
L 482.546125 244.873533 
L 483.121345 251.134659 
L 483.696566 240.176328 
L 484.271787 211.532423 
L 484.847007 174.028211 
L 485.422228 149.438102 
L 485.997449 156.165486 
L 487.14789 213.470886 
L 487.723111 222.840029 
L 488.298331 216.173649 
L 489.448773 190.785666 
L 490.023993 176.715061 
L 490.599214 170.641835 
L 491.174435 184.078413 
L 491.749655 214.830434 
L 492.324876 239.445671 
L 492.900097 231.121701 
L 494.050538 161.82927 
L 494.625759 156.619181 
L 495.200979 176.073467 
L 495.7762 201.23343 
L 496.351421 218.246266 
L 496.926641 226.064611 
L 497.501862 223.125228 
L 498.077083 205.517424 
L 498.652303 178.331191 
L 499.227524 160.620349 
L 499.802745 169.911037 
L 500.377965 198.325945 
L 500.953186 220.792121 
L 501.528407 223.520431 
L 502.103627 211.439451 
L 503.254069 183.84492 
L 503.829289 173.877026 
L 504.40451 173.687312 
L 504.979731 189.837458 
L 505.554951 216.006271 
L 506.130172 231.487727 
L 506.705393 220.959081 
L 507.280613 194.513026 
L 507.855834 174.2337 
L 508.431055 169.991585 
L 509.006275 177.344509 
L 509.581496 189.738204 
L 510.731937 226.497226 
L 511.307158 233.069935 
L 511.882379 215.206233 
L 512.457599 179.245001 
L 513.03282 151.396388 
L 513.608041 156.145663 
L 514.758482 220.065093 
L 515.333703 233.457739 
L 515.908923 227.905773 
L 516.484144 212.711331 
L 518.209806 154.803286 
L 518.785027 158.514089 
L 519.360247 186.506377 
L 519.935468 226.248462 
L 520.510689 251.278724 
L 521.085909 242.948612 
L 522.236351 176.204689 
L 522.811571 157.612004 
L 523.386792 156.171629 
L 523.962013 165.932903 
L 524.537233 183.154914 
L 525.687675 234.01697 
L 526.262895 248.379546 
L 526.838116 241.729779 
L 527.413337 215.24532 
L 527.988557 180.656201 
L 528.563778 154.387282 
L 529.138999 144.921398 
L 529.714219 149.450527 
L 530.28944 163.272717 
L 530.864661 185.497318 
L 532.590323 279.986007 
L 533.165543 280.967802 
L 533.740764 244.347806 
L 534.891205 126.099074 
L 535.466426 96.751035 
L 536.041647 101.772806 
L 536.616867 132.386863 
L 537.767309 208.673058 
L 538.91775 268.154629 
L 539.492971 291.775785 
L 540.068191 298.946673 
L 540.643412 280.114019 
L 541.218633 236.58195 
L 542.369074 128.400632 
L 542.944295 97.105196 
L 543.519515 95.341091 
L 544.094736 118.381798 
L 545.245178 176.466436 
L 545.820398 191.763078 
L 548.696502 231.941143 
L 549.271722 235.750084 
L 549.846943 233.453132 
L 550.422164 224.275658 
L 551.572605 197.255646 
L 552.147826 193.856634 
L 552.723046 202.574663 
L 553.873488 233.919112 
L 554.448708 240.54082 
L 555.023929 235.627377 
L 555.59915 220.913292 
L 556.749591 182.278473 
L 557.324812 168.247304 
L 557.900032 161.049893 
L 558.475253 160.562136 
L 559.050474 165.385119 
L 560.776136 190.20188 
L 561.351356 195.643347 
L 561.926577 198.263056 
L 562.501798 198.442649 
L 563.077018 197.117708 
L 563.652239 195.42811 
L 564.22746 194.320031 
L 564.80268 194.307048 
L 565.377901 195.382462 
L 567.103563 200.367487 
L 567.678784 200.869106 
L 568.254004 200.358162 
L 568.829225 198.983649 
L 570.554887 193.630541 
L 571.130108 192.815287 
L 571.705328 192.848399 
L 572.280549 193.652165 
L 574.581432 198.628594 
L 575.156652 198.942021 
L 575.731873 198.669036 
L 576.307094 197.892987 
L 577.457535 195.507899 
L 578.607976 193.134869 
L 579.183197 192.252133 
L 579.758418 191.643903 
L 580.333638 191.317801 
L 580.908859 191.265689 
L 581.48408 191.503216 
L 582.0593 192.074997 
L 582.634521 193.039649 
L 583.209742 194.447135 
L 583.784962 196.328977 
L 584.935404 201.43642 
L 587.811507 216.542329 
L 588.386728 218.539981 
L 588.961948 219.723496 
L 589.537169 219.795528 
L 590.11239 218.196569 
L 590.68761 213.920113 
L 591.262831 205.644668 
L 592.413272 182.36321 
L 592.988493 180.627444 
L 593.563714 192.41912 
L 594.714155 230.005053 
L 595.289376 235.218074 
L 595.864596 225.898908 
L 597.015038 186.625985 
L 597.590258 174.52211 
L 598.165479 173.724445 
L 598.7407 176.679463 
L 599.31592 170.348538 
L 600.466362 128.875266 
L 601.041582 122.249929 
L 601.616803 140.04802 
L 603.342465 258.76315 
L 603.917686 271.622391 
L 604.492906 265.256846 
L 605.643348 235.144087 
L 606.218568 212.193701 
L 606.793789 177.620775 
L 607.94423 94.999215 
L 608.519451 81.848214 
L 609.094672 109.078825 
L 610.245113 227.750261 
L 610.820334 269.631858 
L 611.395554 285.932059 
L 611.970775 281.673751 
L 612.545996 261.836268 
L 613.121216 223.86482 
L 614.271658 114.194267 
L 614.846878 86.793206 
L 615.422099 100.002559 
L 615.99732 146.807651 
L 616.57254 204.212081 
L 617.147761 248.491364 
L 617.722982 270.300674 
L 618.298202 270.284062 
L 618.873423 249.098617 
L 619.448644 209.23356 
L 620.023864 160.823325 
L 620.599085 125.092709 
L 621.174306 122.729868 
L 621.749526 151.892939 
L 622.324747 190.668529 
L 622.899968 220.285658 
L 623.475188 235.161397 
L 624.050409 236.932621 
L 624.62563 224.033874 
L 625.776071 162.302788 
L 626.351292 150.350238 
L 626.926512 169.694939 
L 627.501733 206.755605 
L 628.076954 229.590446 
L 628.652174 219.934289 
L 629.227395 192.786487 
L 629.802616 172.676899 
L 630.377836 168.564053 
L 630.953057 175.534059 
L 631.528278 188.401536 
L 632.678719 227.345426 
L 633.25394 229.589329 
L 633.82916 206.236425 
L 634.404381 170.414848 
L 634.979602 150.995043 
L 635.554822 163.52204 
L 636.130043 192.637355 
L 636.705264 214.663056 
L 637.280485 221.205053 
L 637.855705 216.569969 
L 638.430926 204.853103 
L 639.581367 167.791236 
L 640.156588 165.276931 
L 640.731809 184.102228 
L 641.307029 211.390591 
L 641.88225 224.50083 
L 642.457471 215.206093 
L 643.032691 196.526641 
L 643.607912 182.103417 
L 644.183133 174.259246 
L 644.758353 171.771604 
L 645.333574 179.695904 
L 646.484015 226.450321 
L 647.059236 230.993968 
L 647.634457 208.90038 
L 648.209677 175.640851 
L 648.784898 157.762491 
L 649.360119 165.684418 
L 650.51056 205.633095 
L 651.085781 219.248303 
L 651.661001 227.079351 
L 652.236222 222.178472 
L 652.811443 196.684239 
L 653.386663 161.757377 
L 653.961884 144.249372 
L 654.537105 160.170144 
L 655.687546 237.654624 
L 656.262767 243.778384 
L 656.837987 221.54316 
L 657.413208 191.964826 
L 657.988429 170.605399 
L 658.563649 161.010805 
L 659.13887 161.226066 
L 659.714091 172.58295 
L 660.864532 225.385186 
L 661.439753 240.938954 
L 662.014973 234.584298 
L 663.740635 161.258453 
L 664.315856 154.185563 
L 664.891077 156.791585 
L 665.466297 169.071632 
L 666.041518 192.720639 
L 667.191959 257.090901 
L 667.76718 266.574236 
L 668.342401 241.609864 
L 669.492842 146.006077 
L 670.068063 121.699493 
L 670.643283 124.924214 
L 671.218504 147.571673 
L 673.519387 269.5897 
L 674.094607 285.598 
L 674.669828 275.583773 
L 675.245049 237.432383 
L 676.39549 125.716574 
L 676.970711 91.91828 
L 677.545931 91.18818 
L 678.121152 117.554538 
L 679.271593 190.848988 
L 680.422035 245.583531 
L 680.997255 265.758702 
L 681.572476 281.350162 
L 682.147697 289.69563 
L 682.722917 283.499279 
L 683.298138 254.645557 
L 685.0238 114.437726 
L 685.599021 102.248278 
L 686.174241 115.386018 
L 687.899903 205.850771 
L 688.475124 220.001855 
L 689.050345 220.112975 
L 689.625565 209.75482 
L 690.776007 183.834032 
L 691.926448 168.333715 
L 693.65211 138.316721 
L 694.227331 139.720522 
L 694.802551 151.744965 
L 696.528213 214.228905 
L 697.103434 226.832821 
L 697.678655 231.145153 
L 698.253875 228.367146 
L 698.829096 221.038372 
L 699.979537 204.012889 
L 700.554758 198.662977 
L 701.129979 196.755645 
L 701.705199 198.025016 
L 703.430861 208.518048 
L 704.006082 209.735136 
L 704.581303 208.734384 
L 705.156523 205.894297 
L 706.306965 198.32367 
L 706.882185 195.574157 
L 707.457406 194.382166 
L 708.032627 194.853953 
L 708.607847 196.693803 
L 710.333509 204.074842 
L 710.90873 205.201764 
L 711.483951 205.192467 
L 712.059171 204.183729 
L 714.360054 197.715512 
L 714.935275 197.128835 
L 715.510495 197.187953 
L 716.085716 197.792143 
L 717.236157 199.837628 
L 718.961819 202.990414 
L 720.687481 206.115784 
L 721.837923 208.255659 
L 722.413143 208.967499 
L 722.988364 209.227934 
L 723.563585 208.911283 
L 724.138805 207.888418 
L 724.714026 206.059987 
L 725.289247 203.408721 
L 725.864467 199.959986 
L 727.014909 190.961937 
L 728.16535 179.730385 
L 729.891012 161.443979 
L 730.466233 159.417988 
L 731.041454 165.001503 
L 731.616674 179.327783 
L 732.191895 196.543549 
L 732.767116 207.834058 
L 733.342336 209.240288 
L 733.917557 204.540096 
L 734.492778 201.249819 
L 735.067998 205.181718 
L 735.643219 217.84157 
L 736.79366 252.710445 
L 737.368881 257.858273 
L 737.944102 246.959272 
L 739.094543 207.363221 
L 739.669764 195.149203 
L 740.244984 186.027136 
L 740.820205 173.64613 
L 742.545867 118.264536 
L 743.121088 130.154964 
L 743.696308 172.000406 
L 744.271529 226.799177 
L 744.84675 270.095883 
L 745.42197 288.400018 
L 745.997191 283.629384 
L 746.572412 266.154743 
L 747.147632 243.773778 
L 747.722853 213.181498 
L 748.873294 119.030931 
L 749.448515 89.049394 
L 750.023736 97.460334 
L 750.598956 143.513688 
L 751.749398 263.101029 
L 752.324618 291.231631 
L 752.899839 291.811104 
L 753.47506 271.261529 
L 754.05028 234.181696 
L 755.200722 137.246979 
L 755.775942 108.024578 
L 756.351163 115.070944 
L 756.926384 153.940847 
L 757.501604 202.497367 
L 758.076825 241.442765 
L 758.652046 263.40661 
L 759.227266 268.091809 
L 759.802487 252.636597 
L 760.377708 213.919276 
L 760.952928 165.056644 
L 761.528149 133.635989 
L 762.10337 138.137198 
L 763.253811 215.441456 
L 763.829032 235.762927 
L 764.404252 232.36608 
L 765.554694 201.613793 
L 766.129914 183.927172 
L 766.705135 170.675617 
L 767.280356 175.694038 
L 768.430797 230.894574 
L 769.006018 234.197192 
L 769.581238 208.656837 
L 770.156459 175.184504 
L 770.73168 161.724432 
L 771.3069 173.723328 
L 772.457342 213.175635 
L 773.032562 225.405288 
L 773.607783 229.693889 
L 774.183004 218.214996 
L 775.333445 164.709324 
L 775.908666 162.451739 
L 776.483886 185.057262 
L 777.059107 213.570978 
L 777.634328 226.341714 
L 778.209548 220.847262 
L 780.510431 171.885516 
L 781.085652 179.988083 
L 782.236093 226.566188 
L 782.811314 227.934391 
L 783.386534 209.466144 
L 783.961755 187.333748 
L 784.536976 175.838662 
L 785.112196 174.799492 
L 785.687417 180.467045 
L 786.262638 195.207709 
L 787.413079 239.591551 
L 787.9883 232.959513 
L 789.138741 157.911303 
L 789.713962 148.620335 
L 790.289182 173.762416 
L 790.864403 212.252192 
L 791.439624 235.25074 
L 792.014844 233.594685 
L 792.590065 217.896851 
L 793.740506 178.920854 
L 794.315727 163.282768 
L 794.890948 161.34277 
L 795.466168 181.512218 
L 796.041389 214.396283 
L 796.61661 237.904644 
L 797.19183 238.636698 
L 797.767051 219.370033 
L 798.342272 193.901515 
L 798.917492 174.675529 
L 799.492713 163.920035 
L 800.067934 161.187397 
L 800.643154 170.28879 
L 801.218375 194.023831 
L 801.793596 227.566131 
L 802.368816 254.360777 
L 802.944037 254.018761 
L 803.519258 223.463894 
L 804.094478 181.65056 
L 804.669699 151.035247 
L 805.24492 141.916544 
L 805.82014 151.405183 
L 806.395361 170.670313 
L 806.970582 195.044644 
L 808.121023 253.874555 
L 808.696244 269.728181 
L 809.271464 260.76499 
L 809.846685 226.138458 
L 810.997126 134.043476 
L 811.572347 114.707151 
L 812.147568 122.204001 
L 812.722788 146.387181 
L 814.44845 240.434306 
L 815.598892 299.592595 
L 816.174112 307.8 
L 816.749333 281.1215 
L 817.324554 218.148408 
L 817.899774 140.237873 
L 818.474995 78.789335 
L 819.050216 55.8 
L 819.625437 74.503107 
L 821.351099 226.973117 
L 821.926319 253.100483 
L 822.50154 260.551265 
L 823.076761 258.820664 
L 823.651981 253.66446 
L 824.227202 244.341524 
L 824.802423 228.669097 
L 825.952864 187.883486 
L 826.528085 174.489863 
L 827.103305 172.372575 
L 827.678526 182.612393 
L 828.253747 202.817522 
L 829.404188 254.431832 
L 829.979409 273.229866 
L 830.554629 274.010081 
L 831.12985 249.146778 
L 832.855512 122.078083 
L 833.430733 112.256362 
L 834.005953 126.873286 
L 835.156395 195.76203 
L 835.731615 228.066172 
L 836.306836 248.243158 
L 836.882057 253.770276 
L 837.457277 245.673572 
L 838.032498 227.509035 
L 839.182939 182.354834 
L 839.75816 166.002004 
L 840.333381 158.348106 
L 840.908601 159.804675 
L 841.483822 168.493276 
L 842.634263 193.560281 
L 843.209484 202.96907 
L 843.784705 207.52838 
L 844.359925 207.058338 
L 844.935146 202.70823 
L 846.085587 190.193839 
L 846.660808 185.78101 
L 847.236029 184.080269 
L 847.811249 185.145502 
L 848.38647 188.276023 
L 849.536911 196.113147 
L 850.112132 198.626235 
L 850.687353 199.372095 
L 851.262573 198.422938 
L 852.988235 191.698374 
L 853.563456 190.606883 
L 854.138677 190.810403 
L 854.713897 192.224716 
L 856.439559 199.170348 
L 857.01478 200.597503 
L 857.590001 200.996629 
L 858.165221 200.341424 
L 858.740442 198.795065 
L 859.890883 194.16128 
L 861.041325 189.408654 
L 862.191766 185.857552 
L 862.766987 184.606387 
L 863.342207 183.688179 
L 863.917428 183.12067 
L 864.492649 182.964753 
L 865.067869 183.359397 
L 865.64309 184.507691 
L 866.218311 186.68953 
L 866.793531 190.225877 
L 867.368752 195.520785 
L 867.943973 203.074257 
L 868.519193 213.389919 
L 869.669635 238.492074 
L 870.244855 242.119118 
L 870.820076 228.468774 
L 872.545738 136.8642 
L 873.120959 129.295457 
L 873.696179 138.838819 
L 874.846621 174.665757 
L 875.421841 182.26563 
L 875.997062 179.753139 
L 876.572283 177.824867 
L 877.147503 190.531793 
L 878.297945 251.666528 
L 878.873165 269.251174 
L 879.448386 265.089747 
L 880.023607 244.29085 
L 880.598827 219.085252 
L 881.174048 200.70512 
L 881.749269 189.654152 
L 882.324489 173.85469 
L 883.474931 112.722063 
L 884.050151 100.199533 
L 884.625372 121.329417 
L 885.200593 172.064621 
L 885.775813 233.276541 
L 886.351034 279.848921 
L 886.926255 295.782118 
L 887.501475 283.699183 
L 888.076696 255.503668 
L 889.227137 176.856892 
L 889.802358 133.767909 
L 890.377579 101.25015 
L 890.952799 97.302029 
L 891.52802 130.056268 
L 892.678461 237.548669 
L 893.253682 270.127712 
L 893.828903 279.617607 
L 894.404123 269.855774 
L 894.979344 241.570218 
L 896.129785 142.349717 
L 896.705006 110.387699 
L 897.280227 115.403607 
L 897.855447 153.909996 
L 898.430668 203.930791 
L 899.005889 240.444218 
L 899.581109 254.681992 
L 900.15633 250.584223 
L 900.731551 230.894574 
L 901.881992 159.400678 
L 902.457213 139.552585 
L 903.032433 155.926075 
L 903.607654 196.125942 
L 904.182875 227.852586 
L 904.758095 231.454084 
L 905.908537 188.933629 
L 906.483757 177.818027 
L 907.058978 176.470065 
L 907.634199 182.149764 
L 908.209419 197.27997 
L 908.78464 219.541739 
L 909.359861 233.10986 
L 909.935082 219.164265 
L 910.510302 183.80064 
L 911.085523 156.762269 
L 911.660744 158.487565 
L 912.811185 211.623441 
L 913.386406 224.041133 
L 913.961626 222.538357 
L 914.536847 212.81268 
L 916.262509 165.610571 
L 916.83773 175.569935 
L 917.41295 199.505816 
L 917.988171 217.750552 
L 918.563392 219.938756 
L 919.138612 210.697067 
L 920.289054 185.43045 
L 920.864274 171.406833 
L 921.439495 167.672019 
L 922.014716 185.313146 
L 922.589936 218.86022 
L 923.165157 241.505723 
L 923.740378 228.705253 
L 924.315598 190.355103 
L 924.890819 159.821427 
L 925.46604 157.418242 
L 926.04126 178.408109 
L 926.616481 203.563508 
L 927.191702 219.909859 
L 927.766922 226.844826 
L 928.342143 223.117829 
L 928.917364 205.134952 
L 929.492584 176.772994 
L 930.067805 154.84349 
L 930.643026 159.201192 
L 931.793467 220.681838 
L 932.368688 234.257359 
L 932.943908 227.226907 
L 935.244791 159.270433 
L 935.820012 159.959909 
L 936.395232 181.249773 
L 937.545674 246.493712 
L 938.120894 247.646515 
L 938.696115 219.859046 
L 939.271336 183.798671 
L 939.846556 159.276575 
L 940.421777 152.843883 
L 940.996998 160.292153 
L 941.572218 175.63778 
L 942.147439 198.106106 
L 942.72266 225.642326 
L 943.29788 247.483604 
L 943.873101 250.990872 
L 944.448322 231.842866 
L 945.598763 161.972638 
L 946.173984 142.013425 
L 946.749204 139.74202 
L 947.324425 149.517394 
L 947.899646 167.857685 
L 948.474866 195.315096 
L 950.200528 298.871569 
L 950.775749 290.17892 
L 951.35097 237.592363 
L 952.501411 94.807826 
L 953.076632 66.875593 
L 953.651852 82.964581 
L 954.227073 130.876827 
L 955.377514 237.718281 
L 955.952735 268.788963 
L 956.527956 285.305821 
L 957.103176 290.520657 
L 957.678397 282.012556 
L 958.253618 256.52469 
L 959.97928 137.362706 
L 960.5545 120.3969 
L 961.129721 127.030753 
L 962.280162 179.759561 
L 962.855383 194.47895 
L 963.430604 191.138836 
L 964.581045 163.429765 
L 965.156266 160.105649 
L 965.731486 169.095224 
L 967.457148 222.230263 
L 968.032369 228.541784 
L 968.60759 223.570407 
L 969.18281 207.176927 
L 970.333252 160.197086 
L 970.908472 154.843629 
L 971.483693 174.331419 
L 972.634134 251.789515 
L 973.209355 278.426694 
L 973.784576 282.967967 
L 974.359796 265.194027 
L 976.085458 160.419187 
L 976.660679 138.834631 
L 977.2359 131.838799 
L 977.81112 139.004941 
L 978.386341 157.004053 
L 979.536782 203.532154 
L 980.112003 220.916503 
L 980.687224 229.553732 
L 981.262444 228.914651 
L 981.837665 220.848519 
L 982.988106 196.635772 
L 983.563327 187.499549 
L 984.138548 183.181409 
L 984.713768 183.920178 
L 985.288989 188.581283 
L 986.43943 201.74013 
L 987.014651 206.412486 
L 987.589872 208.282658 
L 988.165092 207.28922 
L 988.740313 204.144153 
L 989.890754 196.251402 
L 990.465975 193.760549 
L 991.041196 193.072259 
L 991.616416 194.130875 
L 992.766858 199.14307 
L 993.342078 201.459705 
L 993.917299 202.70844 
L 994.49252 202.560256 
L 995.06774 201.052189 
L 996.218182 195.58861 
L 996.218182 195.58861 
" style="fill:none;stroke:#4c72b0;stroke-linecap:round;stroke-width:1.4;"/>
   </g>
   <g id="patch_3">
    <path d="M 144 320.4 
L 144 43.2 
" style="fill:none;"/>
   </g>
   <g id="patch_4">
    <path d="M 1036.8 320.4 
L 1036.8 43.2 
" style="fill:none;"/>
   </g>
   <g id="patch_5">
    <path d="M 144 320.4 
L 1036.8 320.4 
" style="fill:none;"/>
   </g>
   <g id="patch_6">
    <path d="M 144 43.2 
L 1036.8 43.2 
" style="fill:none;"/>
   </g>
  </g>
 </g>
 <defs>
  <clipPath id="p46a929b2de">
   <rect height="277.2" width="892.8" x="144" y="43.2"/>
  </clipPath>
 </defs>
</svg>
