<?xml version="1.0" encoding="utf-8" standalone="no"?>
<!DOCTYPE svg PUBLIC "-//W3C//DTD SVG 1.1//EN"
  "http://www.w3.org/Graphics/SVG/1.1/DTD/svg11.dtd">
<!-- Created with matplotlib (http://matplotlib.org/) -->
<svg height="360pt" version="1.1" viewBox="0 0 1152 360" width="1152pt" xmlns="http://www.w3.org/2000/svg" xmlns:xlink="http://www.w3.org/1999/xlink">
 <defs>
  <style type="text/css">
*{stroke-linecap:butt;stroke-linejoin:round;}
  </style>
 </defs>
 <g id="figure_1">
  <g id="patch_1">
   <path d="M 0 360 
L 1152 360 
L 1152 0 
L 0 0 
z
" style="fill:#ffffff;"/>
  </g>
  <g id="axes_1">
   <g id="patch_2">
    <path d="M 144 320.4 
L 1036.8 320.4 
L 1036.8 43.2 
L 144 43.2 
z
" style="fill:#eaeaf2;"/>
   </g>
   <g id="matplotlib.axis_1">
    <g id="xtick_1">
     <g id="line2d_1">
      <path clip-path="url(#p1a5e4b939b)" d="M 184.581818 320.4 
L 184.581818 43.2 
" style="fill:none;stroke:#ffffff;stroke-linecap:round;stroke-width:0.8;"/>
     </g>
     <g id="line2d_2"/>
     <g id="text_1">
      <!-- 0 -->
      <defs>
       <path d="M 51.703125 34.421875 
Q 51.703125 24.515625 49.828125 17.75 
Q 47.953125 10.984375 44.703125 6.8125 
Q 41.453125 2.640625 37.0625 0.828125 
Q 32.671875 -0.984375 27.6875 -0.984375 
Q 22.65625 -0.984375 18.3125 0.828125 
Q 13.96875 2.640625 10.765625 6.78125 
Q 7.5625 10.9375 5.734375 17.703125 
Q 3.90625 24.46875 3.90625 34.421875 
Q 3.90625 44.828125 5.734375 51.640625 
Q 7.5625 58.453125 10.78125 62.5 
Q 14.015625 66.546875 18.40625 68.1875 
Q 22.796875 69.828125 27.984375 69.828125 
Q 32.90625 69.828125 37.21875 68.1875 
Q 41.546875 66.546875 44.765625 62.5 
Q 48 58.453125 49.84375 51.640625 
Q 51.703125 44.828125 51.703125 34.421875 
M 42.78125 34.421875 
Q 42.78125 42.625 41.796875 48.0625 
Q 40.828125 53.515625 38.921875 56.765625 
Q 37.015625 60.015625 34.25 61.359375 
Q 31.5 62.703125 27.984375 62.703125 
Q 24.265625 62.703125 21.4375 61.328125 
Q 18.609375 59.96875 16.671875 56.71875 
Q 14.75 53.46875 13.765625 48.015625 
Q 12.796875 42.578125 12.796875 34.421875 
Q 12.796875 26.515625 13.796875 21.09375 
Q 14.796875 15.671875 16.71875 12.375 
Q 18.65625 9.078125 21.4375 7.640625 
Q 24.21875 6.203125 27.78125 6.203125 
Q 31.25 6.203125 34.03125 7.640625 
Q 36.8125 9.078125 38.734375 12.375 
Q 40.671875 15.671875 41.71875 21.09375 
Q 42.78125 26.515625 42.78125 34.421875 
" id="LiberationSans-30"/>
      </defs>
      <g style="fill:#262626;" transform="translate(182.357443 331.7975)scale(0.08 -0.08)">
       <use xlink:href="#LiberationSans-30"/>
      </g>
     </g>
    </g>
    <g id="xtick_2">
     <g id="line2d_3">
      <path clip-path="url(#p1a5e4b939b)" d="M 286.163341 320.4 
L 286.163341 43.2 
" style="fill:none;stroke:#ffffff;stroke-linecap:round;stroke-width:0.8;"/>
     </g>
     <g id="line2d_4"/>
     <g id="text_2">
      <!-- 100 -->
      <defs>
       <path d="M 7.625 0 
L 7.625 7.46875 
L 25.140625 7.46875 
L 25.140625 60.40625 
L 9.625 49.3125 
L 9.625 57.625 
L 25.875 68.796875 
L 33.984375 68.796875 
L 33.984375 7.46875 
L 50.734375 7.46875 
L 50.734375 0 
z
" id="LiberationSans-31"/>
      </defs>
      <g style="fill:#262626;" transform="translate(279.490216 331.7975)scale(0.08 -0.08)">
       <use xlink:href="#LiberationSans-31"/>
       <use x="55.615234" xlink:href="#LiberationSans-30"/>
       <use x="111.230469" xlink:href="#LiberationSans-30"/>
      </g>
     </g>
    </g>
    <g id="xtick_3">
     <g id="line2d_5">
      <path clip-path="url(#p1a5e4b939b)" d="M 387.744863 320.4 
L 387.744863 43.2 
" style="fill:none;stroke:#ffffff;stroke-linecap:round;stroke-width:0.8;"/>
     </g>
     <g id="line2d_6"/>
     <g id="text_3">
      <!-- 200 -->
      <defs>
       <path d="M 5.03125 0 
L 5.03125 6.203125 
Q 7.515625 11.921875 11.109375 16.28125 
Q 14.703125 20.65625 18.65625 24.1875 
Q 22.609375 27.734375 26.484375 30.765625 
Q 30.375 33.796875 33.5 36.8125 
Q 36.625 39.84375 38.546875 43.15625 
Q 40.484375 46.484375 40.484375 50.6875 
Q 40.484375 53.609375 39.59375 55.828125 
Q 38.71875 58.0625 37.0625 59.5625 
Q 35.40625 61.078125 33.078125 61.828125 
Q 30.765625 62.59375 27.9375 62.59375 
Q 25.296875 62.59375 22.96875 61.859375 
Q 20.65625 61.140625 18.84375 59.671875 
Q 17.046875 58.203125 15.890625 56.03125 
Q 14.75 53.859375 14.40625 50.984375 
L 5.421875 51.8125 
Q 5.859375 55.515625 7.46875 58.78125 
Q 9.078125 62.0625 11.90625 64.53125 
Q 14.75 67 18.71875 68.40625 
Q 22.703125 69.828125 27.9375 69.828125 
Q 33.0625 69.828125 37.0625 68.609375 
Q 41.0625 67.390625 43.8125 64.984375 
Q 46.578125 62.59375 48.046875 59.078125 
Q 49.515625 55.5625 49.515625 50.984375 
Q 49.515625 47.515625 48.265625 44.390625 
Q 47.015625 41.265625 44.9375 38.421875 
Q 42.875 35.59375 40.140625 32.953125 
Q 37.40625 30.328125 34.421875 27.8125 
Q 31.453125 25.296875 28.421875 22.828125 
Q 25.390625 20.359375 22.71875 17.859375 
Q 20.0625 15.375 17.96875 12.8125 
Q 15.875 10.25 14.703125 7.46875 
L 50.59375 7.46875 
L 50.59375 0 
z
" id="LiberationSans-32"/>
      </defs>
      <g style="fill:#262626;" transform="translate(381.071738 331.7975)scale(0.08 -0.08)">
       <use xlink:href="#LiberationSans-32"/>
       <use x="55.615234" xlink:href="#LiberationSans-30"/>
       <use x="111.230469" xlink:href="#LiberationSans-30"/>
      </g>
     </g>
    </g>
    <g id="xtick_4">
     <g id="line2d_7">
      <path clip-path="url(#p1a5e4b939b)" d="M 489.326385 320.4 
L 489.326385 43.2 
" style="fill:none;stroke:#ffffff;stroke-linecap:round;stroke-width:0.8;"/>
     </g>
     <g id="line2d_8"/>
     <g id="text_4">
      <!-- 300 -->
      <defs>
       <path d="M 51.21875 19 
Q 51.21875 14.265625 49.671875 10.546875 
Q 48.140625 6.84375 45.1875 4.265625 
Q 42.234375 1.703125 37.859375 0.359375 
Q 33.5 -0.984375 27.875 -0.984375 
Q 21.484375 -0.984375 17.109375 0.609375 
Q 12.75 2.203125 9.90625 4.8125 
Q 7.078125 7.421875 5.65625 10.765625 
Q 4.25 14.109375 3.8125 17.671875 
L 12.890625 18.5 
Q 13.28125 15.765625 14.328125 13.515625 
Q 15.375 11.28125 17.1875 9.671875 
Q 19 8.0625 21.625 7.171875 
Q 24.265625 6.296875 27.875 6.296875 
Q 34.515625 6.296875 38.296875 9.5625 
Q 42.09375 12.84375 42.09375 19.28125 
Q 42.09375 23.09375 40.40625 25.40625 
Q 38.71875 27.734375 36.203125 29.03125 
Q 33.6875 30.328125 30.734375 30.765625 
Q 27.78125 31.203125 25.296875 31.203125 
L 20.3125 31.203125 
L 20.3125 38.8125 
L 25.09375 38.8125 
Q 27.59375 38.8125 30.265625 39.328125 
Q 32.953125 39.84375 35.171875 41.1875 
Q 37.40625 42.53125 38.84375 44.828125 
Q 40.28125 47.125 40.28125 50.6875 
Q 40.28125 56.203125 37.03125 59.390625 
Q 33.796875 62.59375 27.390625 62.59375 
Q 21.578125 62.59375 17.984375 59.609375 
Q 14.40625 56.640625 13.8125 51.21875 
L 4.984375 51.90625 
Q 5.515625 56.453125 7.46875 59.8125 
Q 9.421875 63.1875 12.421875 65.40625 
Q 15.4375 67.625 19.28125 68.71875 
Q 23.140625 69.828125 27.484375 69.828125 
Q 33.25 69.828125 37.390625 68.375 
Q 41.546875 66.9375 44.1875 64.46875 
Q 46.828125 62.015625 48.0625 58.6875 
Q 49.3125 55.375 49.3125 51.609375 
Q 49.3125 48.578125 48.484375 45.9375 
Q 47.65625 43.3125 45.890625 41.203125 
Q 44.140625 39.109375 41.421875 37.59375 
Q 38.71875 36.078125 34.90625 35.296875 
L 34.90625 35.109375 
Q 39.0625 34.671875 42.140625 33.21875 
Q 45.21875 31.78125 47.21875 29.625 
Q 49.21875 27.484375 50.21875 24.75 
Q 51.21875 22.015625 51.21875 19 
" id="LiberationSans-33"/>
      </defs>
      <g style="fill:#262626;" transform="translate(482.65326 331.7975)scale(0.08 -0.08)">
       <use xlink:href="#LiberationSans-33"/>
       <use x="55.615234" xlink:href="#LiberationSans-30"/>
       <use x="111.230469" xlink:href="#LiberationSans-30"/>
      </g>
     </g>
    </g>
    <g id="xtick_5">
     <g id="line2d_9">
      <path clip-path="url(#p1a5e4b939b)" d="M 590.907908 320.4 
L 590.907908 43.2 
" style="fill:none;stroke:#ffffff;stroke-linecap:round;stroke-width:0.8;"/>
     </g>
     <g id="line2d_10"/>
     <g id="text_5">
      <!-- 400 -->
      <defs>
       <path d="M 43.015625 15.578125 
L 43.015625 0 
L 34.71875 0 
L 34.71875 15.578125 
L 2.296875 15.578125 
L 2.296875 22.40625 
L 33.796875 68.796875 
L 43.015625 68.796875 
L 43.015625 22.515625 
L 52.6875 22.515625 
L 52.6875 15.578125 
z
M 34.71875 58.890625 
Q 34.625 58.640625 34.234375 57.9375 
Q 33.84375 57.234375 33.34375 56.34375 
Q 32.859375 55.46875 32.34375 54.5625 
Q 31.84375 53.65625 31.453125 53.078125 
L 13.8125 27.09375 
Q 13.578125 26.703125 13.109375 26.0625 
Q 12.640625 25.4375 12.15625 24.78125 
Q 11.671875 24.125 11.171875 23.484375 
Q 10.6875 22.859375 10.40625 22.515625 
L 34.71875 22.515625 
z
" id="LiberationSans-34"/>
      </defs>
      <g style="fill:#262626;" transform="translate(584.234783 331.7975)scale(0.08 -0.08)">
       <use xlink:href="#LiberationSans-34"/>
       <use x="55.615234" xlink:href="#LiberationSans-30"/>
       <use x="111.230469" xlink:href="#LiberationSans-30"/>
      </g>
     </g>
    </g>
    <g id="xtick_6">
     <g id="line2d_11">
      <path clip-path="url(#p1a5e4b939b)" d="M 692.48943 320.4 
L 692.48943 43.2 
" style="fill:none;stroke:#ffffff;stroke-linecap:round;stroke-width:0.8;"/>
     </g>
     <g id="line2d_12"/>
     <g id="text_6">
      <!-- 500 -->
      <defs>
       <path d="M 51.421875 22.40625 
Q 51.421875 17.234375 49.859375 12.9375 
Q 48.296875 8.640625 45.21875 5.53125 
Q 42.140625 2.4375 37.578125 0.71875 
Q 33.015625 -0.984375 27 -0.984375 
Q 21.578125 -0.984375 17.546875 0.28125 
Q 13.53125 1.5625 10.734375 3.78125 
Q 7.953125 6 6.3125 8.984375 
Q 4.6875 11.96875 4 15.375 
L 12.890625 16.40625 
Q 13.421875 14.453125 14.390625 12.625 
Q 15.375 10.796875 17.0625 9.34375 
Q 18.75 7.90625 21.21875 7.046875 
Q 23.6875 6.203125 27.203125 6.203125 
Q 30.609375 6.203125 33.390625 7.25 
Q 36.1875 8.296875 38.15625 10.34375 
Q 40.140625 12.40625 41.203125 15.375 
Q 42.28125 18.359375 42.28125 22.21875 
Q 42.28125 25.390625 41.25 28.046875 
Q 40.234375 30.71875 38.328125 32.640625 
Q 36.421875 34.578125 33.65625 35.640625 
Q 30.90625 36.71875 27.390625 36.71875 
Q 25.203125 36.71875 23.34375 36.328125 
Q 21.484375 35.9375 19.890625 35.25 
Q 18.3125 34.578125 17.015625 33.671875 
Q 15.71875 32.765625 14.59375 31.78125 
L 6 31.78125 
L 8.296875 68.796875 
L 47.40625 68.796875 
L 47.40625 61.328125 
L 16.3125 61.328125 
L 14.984375 39.5 
Q 17.328125 41.3125 20.84375 42.59375 
Q 24.359375 43.890625 29.203125 43.890625 
Q 34.328125 43.890625 38.421875 42.328125 
Q 42.53125 40.765625 45.40625 37.90625 
Q 48.296875 35.0625 49.859375 31.109375 
Q 51.421875 27.15625 51.421875 22.40625 
" id="LiberationSans-35"/>
      </defs>
      <g style="fill:#262626;" transform="translate(685.816305 331.7975)scale(0.08 -0.08)">
       <use xlink:href="#LiberationSans-35"/>
       <use x="55.615234" xlink:href="#LiberationSans-30"/>
       <use x="111.230469" xlink:href="#LiberationSans-30"/>
      </g>
     </g>
    </g>
    <g id="xtick_7">
     <g id="line2d_13">
      <path clip-path="url(#p1a5e4b939b)" d="M 794.070952 320.4 
L 794.070952 43.2 
" style="fill:none;stroke:#ffffff;stroke-linecap:round;stroke-width:0.8;"/>
     </g>
     <g id="line2d_14"/>
     <g id="text_7">
      <!-- 600 -->
      <defs>
       <path d="M 51.21875 22.515625 
Q 51.21875 17.328125 49.78125 13 
Q 48.34375 8.6875 45.53125 5.578125 
Q 42.71875 2.484375 38.5625 0.75 
Q 34.421875 -0.984375 29 -0.984375 
Q 23 -0.984375 18.5 1.3125 
Q 14.015625 3.609375 11.03125 7.921875 
Q 8.0625 12.25 6.5625 18.53125 
Q 5.078125 24.8125 5.078125 32.8125 
Q 5.078125 42 6.765625 48.921875 
Q 8.453125 55.859375 11.625 60.5 
Q 14.796875 65.140625 19.359375 67.484375 
Q 23.921875 69.828125 29.6875 69.828125 
Q 33.203125 69.828125 36.28125 69.09375 
Q 39.359375 68.359375 41.875 66.71875 
Q 44.390625 65.09375 46.28125 62.40625 
Q 48.1875 59.71875 49.3125 55.8125 
L 40.921875 54.296875 
Q 39.546875 58.734375 36.546875 60.71875 
Q 33.546875 62.703125 29.59375 62.703125 
Q 25.984375 62.703125 23.046875 60.984375 
Q 20.125 59.28125 18.0625 55.875 
Q 16.015625 52.484375 14.90625 47.359375 
Q 13.8125 42.234375 13.8125 35.40625 
Q 16.21875 39.84375 20.5625 42.15625 
Q 24.90625 44.484375 30.515625 44.484375 
Q 35.203125 44.484375 39.015625 42.96875 
Q 42.828125 41.453125 45.53125 38.59375 
Q 48.25 35.75 49.734375 31.671875 
Q 51.21875 27.59375 51.21875 22.515625 
M 42.28125 22.125 
Q 42.28125 25.6875 41.40625 28.5625 
Q 40.53125 31.453125 38.765625 33.46875 
Q 37.015625 35.5 34.421875 36.59375 
Q 31.84375 37.703125 28.421875 37.703125 
Q 26.03125 37.703125 23.578125 36.984375 
Q 21.140625 36.28125 19.15625 34.6875 
Q 17.1875 33.109375 15.9375 30.515625 
Q 14.703125 27.9375 14.703125 24.21875 
Q 14.703125 20.40625 15.671875 17.109375 
Q 16.65625 13.8125 18.484375 11.375 
Q 20.3125 8.9375 22.890625 7.515625 
Q 25.484375 6.109375 28.71875 6.109375 
Q 31.890625 6.109375 34.40625 7.203125 
Q 36.921875 8.296875 38.671875 10.375 
Q 40.4375 12.453125 41.359375 15.421875 
Q 42.28125 18.40625 42.28125 22.125 
" id="LiberationSans-36"/>
      </defs>
      <g style="fill:#262626;" transform="translate(787.397827 331.7975)scale(0.08 -0.08)">
       <use xlink:href="#LiberationSans-36"/>
       <use x="55.615234" xlink:href="#LiberationSans-30"/>
       <use x="111.230469" xlink:href="#LiberationSans-30"/>
      </g>
     </g>
    </g>
    <g id="xtick_8">
     <g id="line2d_15">
      <path clip-path="url(#p1a5e4b939b)" d="M 895.652475 320.4 
L 895.652475 43.2 
" style="fill:none;stroke:#ffffff;stroke-linecap:round;stroke-width:0.8;"/>
     </g>
     <g id="line2d_16"/>
     <g id="text_8">
      <!-- 700 -->
      <defs>
       <path d="M 50.59375 61.671875 
Q 45.40625 53.765625 41.0625 46.453125 
Q 36.71875 39.15625 33.59375 31.75 
Q 30.46875 24.359375 28.734375 16.578125 
Q 27 8.796875 27 0 
L 17.828125 0 
Q 17.828125 8.25 19.78125 16.1875 
Q 21.734375 24.125 25.046875 31.765625 
Q 28.375 39.40625 32.765625 46.78125 
Q 37.15625 54.15625 42.09375 61.328125 
L 5.125 61.328125 
L 5.125 68.796875 
L 50.59375 68.796875 
z
" id="LiberationSans-37"/>
      </defs>
      <g style="fill:#262626;" transform="translate(888.97935 331.7975)scale(0.08 -0.08)">
       <use xlink:href="#LiberationSans-37"/>
       <use x="55.615234" xlink:href="#LiberationSans-30"/>
       <use x="111.230469" xlink:href="#LiberationSans-30"/>
      </g>
     </g>
    </g>
    <g id="xtick_9">
     <g id="line2d_17">
      <path clip-path="url(#p1a5e4b939b)" d="M 997.233997 320.4 
L 997.233997 43.2 
" style="fill:none;stroke:#ffffff;stroke-linecap:round;stroke-width:0.8;"/>
     </g>
     <g id="line2d_18"/>
     <g id="text_9">
      <!-- 800 -->
      <defs>
       <path d="M 51.265625 19.1875 
Q 51.265625 14.796875 49.875 11.109375 
Q 48.484375 7.421875 45.625 4.734375 
Q 42.78125 2.046875 38.328125 0.53125 
Q 33.890625 -0.984375 27.828125 -0.984375 
Q 21.78125 -0.984375 17.359375 0.53125 
Q 12.9375 2.046875 10.03125 4.703125 
Q 7.125 7.375 5.734375 11.0625 
Q 4.34375 14.75 4.34375 19.09375 
Q 4.34375 22.859375 5.484375 25.78125 
Q 6.640625 28.71875 8.5625 30.828125 
Q 10.5 32.953125 12.96875 34.25 
Q 15.4375 35.546875 18.0625 35.984375 
L 18.0625 36.1875 
Q 15.1875 36.859375 12.90625 38.375 
Q 10.640625 39.890625 9.09375 42.015625 
Q 7.5625 44.140625 6.75 46.71875 
Q 5.953125 49.3125 5.953125 52.203125 
Q 5.953125 55.8125 7.34375 59 
Q 8.734375 62.203125 11.46875 64.625 
Q 14.203125 67.046875 18.25 68.4375 
Q 22.3125 69.828125 27.640625 69.828125 
Q 33.25 69.828125 37.375 68.40625 
Q 41.5 67 44.203125 64.578125 
Q 46.921875 62.15625 48.234375 58.9375 
Q 49.5625 55.71875 49.5625 52.09375 
Q 49.5625 49.265625 48.75 46.671875 
Q 47.953125 44.09375 46.40625 41.96875 
Q 44.875 39.84375 42.59375 38.34375 
Q 40.328125 36.859375 37.359375 36.28125 
L 37.359375 36.078125 
Q 40.328125 35.59375 42.859375 34.296875 
Q 45.40625 33.015625 47.265625 30.890625 
Q 49.125 28.765625 50.1875 25.828125 
Q 51.265625 22.90625 51.265625 19.1875 
M 40.4375 51.609375 
Q 40.4375 54.203125 39.765625 56.34375 
Q 39.109375 58.5 37.59375 60.03125 
Q 36.078125 61.578125 33.640625 62.421875 
Q 31.203125 63.28125 27.640625 63.28125 
Q 24.171875 63.28125 21.78125 62.421875 
Q 19.390625 61.578125 17.84375 60.03125 
Q 16.3125 58.5 15.625 56.34375 
Q 14.9375 54.203125 14.9375 51.609375 
Q 14.9375 49.5625 15.46875 47.40625 
Q 16.015625 45.265625 17.421875 43.5 
Q 18.84375 41.75 21.328125 40.625 
Q 23.828125 39.5 27.734375 39.5 
Q 31.890625 39.5 34.40625 40.625 
Q 36.921875 41.75 38.25 43.5 
Q 39.59375 45.265625 40.015625 47.40625 
Q 40.4375 49.5625 40.4375 51.609375 
M 42.140625 20.015625 
Q 42.140625 22.515625 41.453125 24.828125 
Q 40.765625 27.15625 39.109375 28.9375 
Q 37.453125 30.71875 34.640625 31.8125 
Q 31.84375 32.90625 27.640625 32.90625 
Q 23.78125 32.90625 21.0625 31.8125 
Q 18.359375 30.71875 16.671875 28.90625 
Q 14.984375 27.09375 14.203125 24.71875 
Q 13.421875 22.359375 13.421875 19.828125 
Q 13.421875 16.65625 14.203125 14.03125 
Q 14.984375 11.421875 16.6875 9.546875 
Q 18.40625 7.671875 21.1875 6.640625 
Q 23.96875 5.609375 27.9375 5.609375 
Q 31.9375 5.609375 34.671875 6.640625 
Q 37.40625 7.671875 39.0625 9.546875 
Q 40.71875 11.421875 41.421875 14.078125 
Q 42.140625 16.75 42.140625 20.015625 
" id="LiberationSans-38"/>
      </defs>
      <g style="fill:#262626;" transform="translate(990.560872 331.7975)scale(0.08 -0.08)">
       <use xlink:href="#LiberationSans-38"/>
       <use x="55.615234" xlink:href="#LiberationSans-30"/>
       <use x="111.230469" xlink:href="#LiberationSans-30"/>
      </g>
     </g>
    </g>
   </g>
   <g id="matplotlib.axis_2">
    <g id="ytick_1">
     <g id="line2d_19">
      <path clip-path="url(#p1a5e4b939b)" d="M 144 307.632243 
L 1036.8 307.632243 
" style="fill:none;stroke:#ffffff;stroke-linecap:round;stroke-width:0.8;"/>
     </g>
     <g id="line2d_20"/>
     <g id="text_10">
      <!-- 0 -->
      <g style="fill:#262626;" transform="translate(133.95125 310.530993)scale(0.08 -0.08)">
       <use xlink:href="#LiberationSans-30"/>
      </g>
     </g>
    </g>
    <g id="ytick_2">
     <g id="line2d_21">
      <path clip-path="url(#p1a5e4b939b)" d="M 144 251.713263 
L 1036.8 251.713263 
" style="fill:none;stroke:#ffffff;stroke-linecap:round;stroke-width:0.8;"/>
     </g>
     <g id="line2d_22"/>
     <g id="text_11">
      <!-- 2 -->
      <g style="fill:#262626;" transform="translate(133.95125 254.612013)scale(0.08 -0.08)">
       <use xlink:href="#LiberationSans-32"/>
      </g>
     </g>
    </g>
    <g id="ytick_3">
     <g id="line2d_23">
      <path clip-path="url(#p1a5e4b939b)" d="M 144 195.794284 
L 1036.8 195.794284 
" style="fill:none;stroke:#ffffff;stroke-linecap:round;stroke-width:0.8;"/>
     </g>
     <g id="line2d_24"/>
     <g id="text_12">
      <!-- 4 -->
      <g style="fill:#262626;" transform="translate(133.95125 198.693034)scale(0.08 -0.08)">
       <use xlink:href="#LiberationSans-34"/>
      </g>
     </g>
    </g>
    <g id="ytick_4">
     <g id="line2d_25">
      <path clip-path="url(#p1a5e4b939b)" d="M 144 139.875304 
L 1036.8 139.875304 
" style="fill:none;stroke:#ffffff;stroke-linecap:round;stroke-width:0.8;"/>
     </g>
     <g id="line2d_26"/>
     <g id="text_13">
      <!-- 6 -->
      <g style="fill:#262626;" transform="translate(133.95125 142.774054)scale(0.08 -0.08)">
       <use xlink:href="#LiberationSans-36"/>
      </g>
     </g>
    </g>
    <g id="ytick_5">
     <g id="line2d_27">
      <path clip-path="url(#p1a5e4b939b)" d="M 144 83.956325 
L 1036.8 83.956325 
" style="fill:none;stroke:#ffffff;stroke-linecap:round;stroke-width:0.8;"/>
     </g>
     <g id="line2d_28"/>
     <g id="text_14">
      <!-- 8 -->
      <g style="fill:#262626;" transform="translate(133.95125 86.855075)scale(0.08 -0.08)">
       <use xlink:href="#LiberationSans-38"/>
      </g>
     </g>
    </g>
   </g>
   <g id="line2d_29">
    <path clip-path="url(#p1a5e4b939b)" d="M 184.581818 307.205346 
L 185.597633 305.435239 
L 186.613449 302.147066 
L 187.629264 297.49142 
L 188.645079 291.30843 
L 189.660894 283.484387 
L 190.67671 274.100707 
L 192.70834 251.802734 
L 194.73997 228.889652 
L 195.755786 222.730177 
L 196.771601 223.913422 
L 197.787416 214.600396 
L 199.819047 180.10901 
L 200.834862 166.764225 
L 201.850677 159.30659 
L 202.866492 156.000381 
L 203.882307 155.091697 
L 204.898123 156.601789 
L 205.913938 158.549168 
L 206.929753 157.185304 
L 207.945568 154.398582 
L 208.961384 152.716539 
L 209.977199 153.808916 
L 210.993014 156.729285 
L 212.008829 157.655862 
L 214.04046 157.863881 
L 215.056275 157.825297 
L 216.07209 157.508236 
L 217.087905 156.962187 
L 218.103721 156.546709 
L 219.119536 156.89117 
L 220.135351 158.695676 
L 221.151166 161.664973 
L 222.166981 162.586798 
L 223.182797 161.794985 
L 224.198612 159.477423 
L 225.214427 155.624046 
L 227.246058 146.038694 
L 228.261873 143.471454 
L 229.277688 143.961863 
L 230.293503 147.36705 
L 231.309318 148.960461 
L 232.325134 148.813114 
L 233.340949 147.461273 
L 234.356764 145.452663 
L 235.372579 142.895209 
L 236.388395 139.489463 
L 237.40421 135.582125 
L 238.420025 133.294479 
L 239.43584 135.467491 
L 240.451655 135.798251 
L 241.467471 133.593925 
L 242.483286 133.25953 
L 243.499101 137.127166 
L 244.514916 137.951691 
L 245.530732 138.579102 
L 246.546547 140.914279 
L 247.562362 144.255438 
L 248.578177 146.287254 
L 249.593992 147.198733 
L 250.609808 146.503381 
L 251.625623 143.586088 
L 252.641438 138.619364 
L 253.657253 132.954492 
L 254.673069 128.356554 
L 255.688884 125.230962 
L 256.704699 121.674795 
L 257.720514 115.330227 
L 258.73633 106.792238 
L 259.752145 100.838824 
L 260.76796 103.359651 
L 261.783775 99.249886 
L 262.79959 87.30699 
L 263.815406 73.528553 
L 264.831221 62.823983 
L 265.847036 57.078587 
L 266.862851 55.8 
L 267.878667 57.622959 
L 268.894482 61.346604 
L 269.910297 66.500936 
L 270.926112 70.45245 
L 271.941927 72.358728 
L 272.957743 73.325847 
L 273.973558 75.550024 
L 274.989373 80.70883 
L 276.005188 83.105517 
L 277.021004 84.462951 
L 278.036819 86.30604 
L 279.052634 88.679801 
L 280.068449 90.765579 
L 281.084264 92.173619 
L 282.10008 93.355466 
L 283.115895 95.029681 
L 284.13171 97.648087 
L 285.147525 101.591773 
L 286.163341 105.048684 
L 287.179156 105.991199 
L 288.194971 104.613355 
L 290.226601 99.543461 
L 291.242417 98.431232 
L 292.258232 99.034318 
L 293.274047 101.152529 
L 294.289862 104.502915 
L 295.305678 108.983423 
L 296.321493 111.821032 
L 297.337308 113.238578 
L 300.384754 115.731726 
L 301.400569 115.312613 
L 303.432199 111.644048 
L 304.448015 113.156657 
L 305.46383 115.782332 
L 306.479645 115.657353 
L 307.49546 116.624752 
L 308.511275 120.729764 
L 309.527091 123.139872 
L 310.542906 125.924358 
L 313.590352 137.572281 
L 314.606167 140.251639 
L 315.621982 140.241853 
L 316.637797 137.979651 
L 318.669428 132.623451 
L 319.685243 130.034682 
L 321.716873 124.110066 
L 322.732689 120.636938 
L 323.748504 115.213916 
L 324.764319 107.808845 
L 325.780134 102.305579 
L 326.795949 104.703664 
L 327.811765 100.548884 
L 330.85921 65.516202 
L 331.875026 60.429532 
L 332.890841 58.65075 
L 333.906656 59.350296 
L 334.922471 62.609534 
L 335.938286 67.648673 
L 336.954102 70.102397 
L 337.969917 70.841087 
L 338.985732 71.341282 
L 340.001547 73.65521 
L 341.017363 78.505622 
L 342.033178 80.067719 
L 343.048993 80.274619 
L 344.064808 80.90203 
L 347.112254 85.096513 
L 348.128069 86.05776 
L 349.143884 87.598328 
L 350.1597 90.738178 
L 351.175515 94.734149 
L 352.19133 95.580203 
L 353.207145 94.131622 
L 354.222961 92.02096 
L 355.238776 90.622147 
L 356.254591 90.296419 
L 357.270406 90.758589 
L 358.286221 91.842299 
L 359.302037 93.85706 
L 361.333667 101.275831 
L 362.349482 103.270181 
L 363.365298 104.896305 
L 364.381113 107.943051 
L 366.412743 115.644772 
L 367.428558 118.476788 
L 368.444374 118.043137 
L 369.460189 115.985039 
L 370.476004 115.062655 
L 371.491819 116.835566 
L 374.539265 128.675571 
L 377.586711 139.233075 
L 379.618341 145.059832 
L 380.634156 148.191295 
L 381.649972 150.237371 
L 382.665787 149.942957 
L 383.681602 147.421011 
L 385.713232 141.005706 
L 386.729048 138.494665 
L 387.744863 136.446912 
L 388.760678 135.229276 
L 389.776493 134.564399 
L 390.792309 132.622892 
L 391.808124 127.578161 
L 392.823939 120.747658 
L 393.839754 117.131378 
L 394.855569 121.020822 
L 395.871385 115.499382 
L 398.91883 80.887491 
L 399.934646 74.42801 
L 400.950461 73.4964 
L 401.966276 78.318293 
L 402.982091 79.752895 
L 403.997906 79.747023 
L 405.013722 80.282727 
L 406.029537 82.071296 
L 407.045352 85.586363 
L 408.061167 89.567515 
L 409.076983 90.792699 
L 410.092798 90.61292 
L 411.108613 90.683657 
L 414.156059 93.177085 
L 415.171874 94.383537 
L 416.187689 96.70725 
L 417.203504 100.350651 
L 418.21932 104.530315 
L 419.235135 106.479371 
L 420.25095 106.049634 
L 421.266765 104.320619 
L 422.28258 102.997576 
L 423.298396 102.967659 
L 424.314211 104.000762 
L 425.330026 105.813656 
L 426.345841 108.870467 
L 427.361657 112.9889 
L 428.377472 115.544956 
L 429.393287 117.674071 
L 430.409102 120.361258 
L 432.440733 127.394468 
L 434.472363 132.206016 
L 435.488178 135.43338 
L 436.503994 135.588835 
L 438.535624 131.94795 
L 439.551439 131.035073 
L 440.567255 130.817548 
L 441.58307 131.254555 
L 442.598885 133.133432 
L 443.6147 136.897059 
L 444.630515 138.785723 
L 445.646331 140.231788 
L 446.662146 142.325115 
L 448.693776 147.531172 
L 449.709592 148.839676 
L 450.725407 148.328297 
L 451.741222 146.135993 
L 452.757037 143.374714 
L 453.772852 141.500869 
L 454.788668 141.137116 
L 456.820298 142.269196 
L 457.836113 142.343288 
L 458.851929 141.184088 
L 459.867744 137.401169 
L 461.899374 122.856363 
L 462.915189 120.044756 
L 463.931005 121.956906 
L 464.94682 114.312222 
L 466.97845 88.290046 
L 467.994266 78.489685 
L 469.010081 73.775436 
L 470.025896 75.137063 
L 471.041711 78.482975 
L 472.057526 78.179335 
L 473.073342 77.560871 
L 474.089157 78.822124 
L 475.104972 82.395067 
L 476.120787 86.961131 
L 477.136603 89.481959 
L 478.152418 90.270137 
L 479.168233 90.380017 
L 480.184048 90.853372 
L 481.199863 91.745 
L 483.231494 92.970464 
L 484.247309 94.545981 
L 485.263124 98.370001 
L 486.27894 101.549274 
L 487.294755 102.816119 
L 488.31057 102.791794 
L 489.326385 101.886186 
L 490.3422 100.631085 
L 491.358016 99.862758 
L 492.373831 100.314304 
L 493.389646 102.405394 
L 495.421277 110.052874 
L 498.468722 119.185841 
L 500.500353 126.568824 
L 501.516168 128.658796 
L 502.531983 129.495064 
L 503.547798 130.901986 
L 504.563614 134.525256 
L 505.579429 136.670028 
L 507.611059 139.465698 
L 508.626875 139.221052 
L 509.64269 136.293134 
L 510.658505 132.002191 
L 511.67432 129.500097 
L 512.690135 130.803568 
L 513.705951 134.195893 
L 514.721766 135.877656 
L 515.737581 136.656887 
L 516.753396 136.342902 
L 518.785027 134.155631 
L 519.800842 134.07371 
L 520.816657 134.687141 
L 521.832472 135.432821 
L 522.848288 136.396305 
L 523.864103 138.105469 
L 526.911549 145.816975 
L 527.927364 147.536204 
L 528.943179 147.71179 
L 529.958994 144.844824 
L 530.974809 137.847962 
L 531.990625 128.009576 
L 533.00644 119.39358 
L 534.022255 117.082728 
L 535.03807 118.293933 
L 536.053886 109.864986 
L 538.085516 79.77023 
L 539.101331 68.324733 
L 540.117146 64.057835 
L 541.132962 67.313438 
L 542.148777 69.466878 
L 543.164592 69.277872 
L 544.180407 69.506021 
L 545.196223 71.609134 
L 547.227853 80.130628 
L 548.243668 82.861151 
L 549.259483 84.800142 
L 550.275299 86.25124 
L 551.291114 87.068216 
L 553.322744 87.281547 
L 554.33856 88.751098 
L 556.37019 96.172385 
L 557.386005 98.38454 
L 559.417636 101.816288 
L 560.433451 103.107177 
L 561.449266 104.135248 
L 562.465081 105.344496 
L 563.480897 107.264194 
L 564.496712 110.285217 
L 566.528342 118.217045 
L 568.559973 125.557249 
L 571.607418 136.995756 
L 572.623234 139.454234 
L 574.654864 142.492872 
L 575.670679 145.328523 
L 577.70231 151.999378 
L 578.718125 155.15209 
L 579.73394 156.731521 
L 580.749755 155.204654 
L 581.765571 150.843253 
L 582.781386 145.727225 
L 583.797201 142.094449 
L 584.813016 141.232178 
L 585.828831 143.713024 
L 586.844647 144.961695 
L 587.860462 142.831461 
L 589.892092 134.931787 
L 590.907908 132.538175 
L 591.923723 132.039378 
L 592.939538 133.475936 
L 593.955353 136.8965 
L 594.971169 139.578654 
L 595.986984 141.713641 
L 597.002799 144.507632 
L 598.018614 148.062122 
L 599.034429 150.846328 
L 600.050245 152.861928 
L 601.06606 153.420279 
L 602.081875 151.879152 
L 603.09769 148.151593 
L 604.113506 142.154282 
L 605.129321 133.574074 
L 606.145136 123.138754 
L 607.160951 114.234495 
L 608.176766 112.276771 
L 609.192582 112.055053 
L 610.208397 101.352999 
L 612.240027 70.746304 
L 613.255843 61.499542 
L 614.271658 58.681785 
L 615.287473 61.20429 
L 616.303288 66.127117 
L 617.319103 68.952703 
L 618.334919 71.233079 
L 619.350734 74.075161 
L 620.366549 78.035343 
L 621.382364 83.151091 
L 622.39818 87.152374 
L 623.413995 90.303408 
L 624.42981 92.880994 
L 626.46144 97.137826 
L 627.477256 99.241219 
L 628.493071 101.603516 
L 629.508886 104.298251 
L 630.524701 107.340803 
L 631.540517 110.979451 
L 632.556332 115.124166 
L 633.572147 117.809116 
L 634.587962 119.358351 
L 636.619593 121.543385 
L 637.635408 123.098212 
L 638.651223 125.383901 
L 639.667038 128.527945 
L 641.698669 135.698156 
L 643.730299 142.394454 
L 645.76193 149.428782 
L 646.777745 151.434317 
L 647.79356 152.067879 
L 648.809375 153.394836 
L 649.825191 156.543913 
L 650.841006 157.741139 
L 651.856821 159.233057 
L 653.888451 164.54536 
L 654.904267 164.387109 
L 655.920082 161.054897 
L 656.935897 156.312968 
L 657.951712 152.398919 
L 658.967528 150.525074 
L 659.983343 151.108868 
L 660.999158 154.527195 
L 662.014973 154.884518 
L 663.030788 152.621197 
L 664.046604 149.257391 
L 665.062419 146.325838 
L 666.078234 144.677347 
L 667.094049 144.62674 
L 668.109865 146.295362 
L 669.12568 149.722916 
L 670.141495 151.95632 
L 672.173125 154.99328 
L 674.204756 160.188992 
L 675.220571 160.834577 
L 676.236386 159.478821 
L 677.252202 156.302343 
L 678.268017 151.695738 
L 679.283832 146.002626 
L 680.299647 139.142206 
L 682.331278 122.048334 
L 683.347093 115.563969 
L 684.362908 115.812529 
L 685.378723 114.481936 
L 686.394539 104.284272 
L 688.426169 76.935697 
L 689.441984 68.565744 
L 690.4578 65.530182 
L 691.473615 67.133659 
L 692.48943 72.365998 
L 693.505245 75.230447 
L 695.536876 78.147741 
L 696.552691 80.323548 
L 697.568506 83.890899 
L 698.584321 88.644013 
L 699.600137 91.816856 
L 701.631767 97.11462 
L 702.647582 99.967047 
L 703.663397 102.329344 
L 705.695028 105.498273 
L 706.710843 107.60502 
L 707.726658 110.691748 
L 708.742474 114.828354 
L 709.758289 118.225153 
L 710.774104 120.383626 
L 711.789919 121.626145 
L 714.837365 123.857033 
L 715.85318 125.299463 
L 716.868995 127.68301 
L 717.884811 130.893877 
L 721.948071 145.219761 
L 722.963887 147.524741 
L 723.979702 149.259627 
L 726.011332 154.353008 
L 727.027148 155.303071 
L 728.042963 156.087894 
L 729.058778 157.322865 
L 730.074593 157.959223 
L 731.090408 156.711111 
L 734.137854 147.972093 
L 735.153669 146.846444 
L 736.169485 147.09752 
L 737.1853 149.14024 
L 738.201115 152.049425 
L 739.21693 152.771339 
L 740.232745 151.878593 
L 742.264376 147.99446 
L 743.280191 147.220542 
L 744.296006 148.848064 
L 745.311822 151.821555 
L 746.327637 153.121951 
L 747.343452 153.98534 
L 748.359267 155.134755 
L 749.375082 157.18782 
L 750.390898 160.237921 
L 751.406713 160.999538 
L 752.422528 159.904644 
L 753.438343 157.924832 
L 754.454159 155.634391 
L 755.469974 152.939655 
L 756.485789 149.705022 
L 757.501604 146.038694 
L 758.51742 141.768162 
L 759.533235 136.325288 
L 760.54905 130.095354 
L 761.564865 125.664614 
L 762.58068 127.053921 
L 763.596496 125.353425 
L 764.612311 116.132665 
L 766.643941 92.02096 
L 767.659757 84.432475 
L 768.675572 81.50959 
L 769.691387 82.787338 
L 770.707202 87.253587 
L 771.723017 90.72336 
L 773.754648 95.732582 
L 774.770463 98.675598 
L 775.786278 102.213312 
L 777.817909 110.583824 
L 778.833724 114.794244 
L 779.849539 118.207538 
L 780.865354 120.51168 
L 781.88117 121.856252 
L 782.896985 122.902776 
L 783.9128 124.36953 
L 784.928615 126.536391 
L 785.944431 129.465147 
L 786.960246 133.35571 
L 787.976061 135.953706 
L 788.991876 136.96556 
L 790.007691 136.836946 
L 791.023507 136.342343 
L 792.039322 136.229107 
L 793.055137 136.983454 
L 794.070952 138.692618 
L 796.102583 143.159146 
L 798.134213 146.847283 
L 799.150028 149.275005 
L 801.181659 154.973708 
L 802.197474 157.276731 
L 804.229105 162.345787 
L 805.24492 162.867511 
L 806.260735 162.745608 
L 807.27655 163.348135 
L 809.308181 166.15359 
L 810.323996 166.411936 
L 811.339811 165.595798 
L 812.355626 164.380958 
L 813.371442 163.404613 
L 814.387257 162.902181 
L 815.403072 163.177023 
L 816.418887 164.872486 
L 817.434702 167.383528 
L 818.450518 167.320899 
L 819.466333 165.440064 
L 820.482148 163.156612 
L 821.497963 161.839161 
L 822.513779 162.151748 
L 823.529594 164.046283 
L 824.545409 167.177746 
L 825.561224 169.444701 
L 828.60867 174.357463 
L 829.624485 177.271681 
L 830.6403 178.826508 
L 831.656116 178.730607 
L 832.671931 177.266928 
L 834.703561 173.322403 
L 835.719376 171.983144 
L 837.751007 169.678722 
L 838.766822 167.979904 
L 839.782637 165.212753 
L 840.798453 160.688628 
L 841.814268 154.822168 
L 842.830083 150.410999 
L 843.845898 151.657433 
L 844.861714 149.170437 
L 845.877529 139.651628 
L 846.893344 127.491767 
L 847.909159 116.962223 
L 848.924974 109.897139 
L 849.94079 106.158676 
L 850.956605 105.2033 
L 851.97242 106.875837 
L 852.988235 111.096601 
L 854.004051 113.679499 
L 855.019866 114.925653 
L 856.035681 115.849715 
L 857.051496 117.429705 
L 858.067311 120.282412 
L 859.083127 124.439709 
L 860.098942 127.592141 
L 861.114757 129.907467 
L 862.130572 131.392954 
L 864.162203 132.924855 
L 865.178018 134.284245 
L 866.193833 136.567417 
L 868.225464 142.915899 
L 869.241279 144.403623 
L 870.257094 144.592909 
L 871.272909 144.5437 
L 872.288725 145.273443 
L 873.30454 146.930881 
L 877.367801 154.989086 
L 879.399431 160.336618 
L 883.462692 172.007748 
L 884.478507 174.034811 
L 885.494322 174.6913 
L 886.510138 174.982078 
L 887.525953 176.264301 
L 889.557583 181.245843 
L 890.573399 182.505977 
L 891.589214 182.636548 
L 892.605029 182.598803 
L 894.636659 183.256689 
L 895.652475 183.048671 
L 896.66829 182.633752 
L 897.684105 182.864697 
L 898.69992 184.441053 
L 899.715736 186.732893 
L 900.731551 187.178008 
L 901.747366 186.027754 
L 902.763181 184.092958 
L 903.778996 182.554347 
L 904.794812 182.271956 
L 905.810627 183.419973 
L 906.826442 185.852728 
L 907.842257 187.788643 
L 909.873888 190.298567 
L 910.889703 192.737473 
L 911.905518 194.136286 
L 912.921333 194.535827 
L 913.937149 194.304882 
L 914.952964 193.378584 
L 916.984594 190.477787 
L 918.00041 190.104248 
L 920.03204 191.522633 
L 921.047855 191.53829 
L 922.06367 190.509661 
L 923.079486 188.312045 
L 924.095301 184.652148 
L 925.111116 179.908261 
L 926.126931 176.201112 
L 927.142747 176.897303 
L 928.158562 175.358413 
L 929.174377 167.692201 
L 931.206008 147.515235 
L 932.221823 140.577647 
L 933.237638 136.779909 
L 934.253453 135.904497 
L 935.269268 137.756254 
L 936.285084 141.15501 
L 937.300899 142.754293 
L 938.316714 143.57071 
L 939.332529 144.542861 
L 940.348345 146.302352 
L 941.36416 149.067546 
L 942.379975 152.622595 
L 944.411605 158.313749 
L 945.427421 160.591049 
L 948.474866 165.965143 
L 949.490682 168.404329 
L 951.522312 174.098838 
L 952.538127 176.197477 
L 953.553942 177.495637 
L 955.585573 179.196412 
L 956.601388 180.341633 
L 957.617203 181.695432 
L 958.633019 183.240193 
L 959.648834 185.073217 
L 961.680464 189.023614 
L 962.696279 190.387757 
L 963.712095 191.444067 
L 964.72791 192.799263 
L 965.743725 194.696874 
L 968.791171 201.419454 
L 969.806986 202.830289 
L 970.822801 203.783428 
L 971.838616 204.94906 
L 972.854432 206.443774 
L 973.870247 207.57837 
L 974.886062 207.691606 
L 975.901877 207.137169 
L 976.917693 207.023374 
L 977.933508 207.926186 
L 978.949323 209.279146 
L 979.965138 210.131351 
L 980.980953 210.332659 
L 981.996769 210.660624 
L 983.012584 211.997927 
L 984.028399 213.790969 
L 985.044214 214.775422 
L 986.06003 215.360335 
L 987.075845 215.603582 
L 988.09166 215.580935 
L 989.107475 215.673201 
L 990.12329 216.471725 
L 991.139106 218.249948 
L 995.202367 224.504206 
L 996.218182 225.573936 
L 996.218182 225.573936 
" style="fill:none;stroke:#4c72b0;stroke-linecap:round;stroke-width:1.4;"/>
   </g>
   <g id="line2d_30">
    <path clip-path="url(#p1a5e4b939b)" d="M 184.581818 303.43832 
L 703.663397 303.43832 
L 704.679213 307.8 
L 996.218182 307.8 
L 996.218182 307.8 
" style="fill:none;stroke:#55a868;stroke-linecap:round;stroke-width:1.4;"/>
   </g>
   <g id="patch_3">
    <path d="M 144 320.4 
L 144 43.2 
" style="fill:none;"/>
   </g>
   <g id="patch_4">
    <path d="M 1036.8 320.4 
L 1036.8 43.2 
" style="fill:none;"/>
   </g>
   <g id="patch_5">
    <path d="M 144 320.4 
L 1036.8 320.4 
" style="fill:none;"/>
   </g>
   <g id="patch_6">
    <path d="M 144 43.2 
L 1036.8 43.2 
" style="fill:none;"/>
   </g>
  </g>
 </g>
 <defs>
  <clipPath id="p1a5e4b939b">
   <rect height="277.2" width="892.8" x="144" y="43.2"/>
  </clipPath>
 </defs>
</svg>
