<?xml version="1.0" encoding="utf-8" standalone="no"?>
<!DOCTYPE svg PUBLIC "-//W3C//DTD SVG 1.1//EN"
  "http://www.w3.org/Graphics/SVG/1.1/DTD/svg11.dtd">
<!-- Created with matplotlib (http://matplotlib.org/) -->
<svg height="360pt" version="1.1" viewBox="0 0 1152 360" width="1152pt" xmlns="http://www.w3.org/2000/svg" xmlns:xlink="http://www.w3.org/1999/xlink">
 <defs>
  <style type="text/css">
*{stroke-linecap:butt;stroke-linejoin:round;}
  </style>
 </defs>
 <g id="figure_1">
  <g id="patch_1">
   <path d="M 0 360 
L 1152 360 
L 1152 0 
L 0 0 
z
" style="fill:#ffffff;"/>
  </g>
  <g id="axes_1">
   <g id="patch_2">
    <path d="M 144 320.4 
L 1036.8 320.4 
L 1036.8 43.2 
L 144 43.2 
z
" style="fill:#eaeaf2;"/>
   </g>
   <g id="matplotlib.axis_1">
    <g id="xtick_1">
     <g id="line2d_1">
      <path clip-path="url(#pd880294009)" d="M 184.581818 320.4 
L 184.581818 43.2 
" style="fill:none;stroke:#ffffff;stroke-linecap:round;stroke-width:0.8;"/>
     </g>
     <g id="line2d_2"/>
     <g id="text_1">
      <!-- 0.000 -->
      <defs>
       <path d="M 51.703125 34.421875 
Q 51.703125 24.515625 49.828125 17.75 
Q 47.953125 10.984375 44.703125 6.8125 
Q 41.453125 2.640625 37.0625 0.828125 
Q 32.671875 -0.984375 27.6875 -0.984375 
Q 22.65625 -0.984375 18.3125 0.828125 
Q 13.96875 2.640625 10.765625 6.78125 
Q 7.5625 10.9375 5.734375 17.703125 
Q 3.90625 24.46875 3.90625 34.421875 
Q 3.90625 44.828125 5.734375 51.640625 
Q 7.5625 58.453125 10.78125 62.5 
Q 14.015625 66.546875 18.40625 68.1875 
Q 22.796875 69.828125 27.984375 69.828125 
Q 32.90625 69.828125 37.21875 68.1875 
Q 41.546875 66.546875 44.765625 62.5 
Q 48 58.453125 49.84375 51.640625 
Q 51.703125 44.828125 51.703125 34.421875 
M 42.78125 34.421875 
Q 42.78125 42.625 41.796875 48.0625 
Q 40.828125 53.515625 38.921875 56.765625 
Q 37.015625 60.015625 34.25 61.359375 
Q 31.5 62.703125 27.984375 62.703125 
Q 24.265625 62.703125 21.4375 61.328125 
Q 18.609375 59.96875 16.671875 56.71875 
Q 14.75 53.46875 13.765625 48.015625 
Q 12.796875 42.578125 12.796875 34.421875 
Q 12.796875 26.515625 13.796875 21.09375 
Q 14.796875 15.671875 16.71875 12.375 
Q 18.65625 9.078125 21.4375 7.640625 
Q 24.21875 6.203125 27.78125 6.203125 
Q 31.25 6.203125 34.03125 7.640625 
Q 36.8125 9.078125 38.734375 12.375 
Q 40.671875 15.671875 41.71875 21.09375 
Q 42.78125 26.515625 42.78125 34.421875 
" id="LiberationSans-30"/>
       <path d="M 9.125 0 
L 9.125 10.6875 
L 18.65625 10.6875 
L 18.65625 0 
z
" id="LiberationSans-2e"/>
      </defs>
      <g style="fill:#262626;" transform="translate(174.573068 331.7975)scale(0.08 -0.08)">
       <use xlink:href="#LiberationSans-30"/>
       <use x="55.615234" xlink:href="#LiberationSans-2e"/>
       <use x="83.398438" xlink:href="#LiberationSans-30"/>
       <use x="139.013672" xlink:href="#LiberationSans-30"/>
       <use x="194.628906" xlink:href="#LiberationSans-30"/>
      </g>
     </g>
    </g>
    <g id="xtick_2">
     <g id="line2d_3">
      <path clip-path="url(#pd880294009)" d="M 311.238448 320.4 
L 311.238448 43.2 
" style="fill:none;stroke:#ffffff;stroke-linecap:round;stroke-width:0.8;"/>
     </g>
     <g id="line2d_4"/>
     <g id="text_2">
      <!-- 0.005 -->
      <defs>
       <path d="M 51.421875 22.40625 
Q 51.421875 17.234375 49.859375 12.9375 
Q 48.296875 8.640625 45.21875 5.53125 
Q 42.140625 2.4375 37.578125 0.71875 
Q 33.015625 -0.984375 27 -0.984375 
Q 21.578125 -0.984375 17.546875 0.28125 
Q 13.53125 1.5625 10.734375 3.78125 
Q 7.953125 6 6.3125 8.984375 
Q 4.6875 11.96875 4 15.375 
L 12.890625 16.40625 
Q 13.421875 14.453125 14.390625 12.625 
Q 15.375 10.796875 17.0625 9.34375 
Q 18.75 7.90625 21.21875 7.046875 
Q 23.6875 6.203125 27.203125 6.203125 
Q 30.609375 6.203125 33.390625 7.25 
Q 36.1875 8.296875 38.15625 10.34375 
Q 40.140625 12.40625 41.203125 15.375 
Q 42.28125 18.359375 42.28125 22.21875 
Q 42.28125 25.390625 41.25 28.046875 
Q 40.234375 30.71875 38.328125 32.640625 
Q 36.421875 34.578125 33.65625 35.640625 
Q 30.90625 36.71875 27.390625 36.71875 
Q 25.203125 36.71875 23.34375 36.328125 
Q 21.484375 35.9375 19.890625 35.25 
Q 18.3125 34.578125 17.015625 33.671875 
Q 15.71875 32.765625 14.59375 31.78125 
L 6 31.78125 
L 8.296875 68.796875 
L 47.40625 68.796875 
L 47.40625 61.328125 
L 16.3125 61.328125 
L 14.984375 39.5 
Q 17.328125 41.3125 20.84375 42.59375 
Q 24.359375 43.890625 29.203125 43.890625 
Q 34.328125 43.890625 38.421875 42.328125 
Q 42.53125 40.765625 45.40625 37.90625 
Q 48.296875 35.0625 49.859375 31.109375 
Q 51.421875 27.15625 51.421875 22.40625 
" id="LiberationSans-35"/>
      </defs>
      <g style="fill:#262626;" transform="translate(301.229698 331.7975)scale(0.08 -0.08)">
       <use xlink:href="#LiberationSans-30"/>
       <use x="55.615234" xlink:href="#LiberationSans-2e"/>
       <use x="83.398438" xlink:href="#LiberationSans-30"/>
       <use x="139.013672" xlink:href="#LiberationSans-30"/>
       <use x="194.628906" xlink:href="#LiberationSans-35"/>
      </g>
     </g>
    </g>
    <g id="xtick_3">
     <g id="line2d_5">
      <path clip-path="url(#pd880294009)" d="M 437.895078 320.4 
L 437.895078 43.2 
" style="fill:none;stroke:#ffffff;stroke-linecap:round;stroke-width:0.8;"/>
     </g>
     <g id="line2d_6"/>
     <g id="text_3">
      <!-- 0.010 -->
      <defs>
       <path d="M 7.625 0 
L 7.625 7.46875 
L 25.140625 7.46875 
L 25.140625 60.40625 
L 9.625 49.3125 
L 9.625 57.625 
L 25.875 68.796875 
L 33.984375 68.796875 
L 33.984375 7.46875 
L 50.734375 7.46875 
L 50.734375 0 
z
" id="LiberationSans-31"/>
      </defs>
      <g style="fill:#262626;" transform="translate(427.886328 331.7975)scale(0.08 -0.08)">
       <use xlink:href="#LiberationSans-30"/>
       <use x="55.615234" xlink:href="#LiberationSans-2e"/>
       <use x="83.398438" xlink:href="#LiberationSans-30"/>
       <use x="139.013672" xlink:href="#LiberationSans-31"/>
       <use x="194.628906" xlink:href="#LiberationSans-30"/>
      </g>
     </g>
    </g>
    <g id="xtick_4">
     <g id="line2d_7">
      <path clip-path="url(#pd880294009)" d="M 564.551708 320.4 
L 564.551708 43.2 
" style="fill:none;stroke:#ffffff;stroke-linecap:round;stroke-width:0.8;"/>
     </g>
     <g id="line2d_8"/>
     <g id="text_4">
      <!-- 0.015 -->
      <g style="fill:#262626;" transform="translate(554.542958 331.7975)scale(0.08 -0.08)">
       <use xlink:href="#LiberationSans-30"/>
       <use x="55.615234" xlink:href="#LiberationSans-2e"/>
       <use x="83.398438" xlink:href="#LiberationSans-30"/>
       <use x="139.013672" xlink:href="#LiberationSans-31"/>
       <use x="194.628906" xlink:href="#LiberationSans-35"/>
      </g>
     </g>
    </g>
    <g id="xtick_5">
     <g id="line2d_9">
      <path clip-path="url(#pd880294009)" d="M 691.208338 320.4 
L 691.208338 43.2 
" style="fill:none;stroke:#ffffff;stroke-linecap:round;stroke-width:0.8;"/>
     </g>
     <g id="line2d_10"/>
     <g id="text_5">
      <!-- 0.020 -->
      <defs>
       <path d="M 5.03125 0 
L 5.03125 6.203125 
Q 7.515625 11.921875 11.109375 16.28125 
Q 14.703125 20.65625 18.65625 24.1875 
Q 22.609375 27.734375 26.484375 30.765625 
Q 30.375 33.796875 33.5 36.8125 
Q 36.625 39.84375 38.546875 43.15625 
Q 40.484375 46.484375 40.484375 50.6875 
Q 40.484375 53.609375 39.59375 55.828125 
Q 38.71875 58.0625 37.0625 59.5625 
Q 35.40625 61.078125 33.078125 61.828125 
Q 30.765625 62.59375 27.9375 62.59375 
Q 25.296875 62.59375 22.96875 61.859375 
Q 20.65625 61.140625 18.84375 59.671875 
Q 17.046875 58.203125 15.890625 56.03125 
Q 14.75 53.859375 14.40625 50.984375 
L 5.421875 51.8125 
Q 5.859375 55.515625 7.46875 58.78125 
Q 9.078125 62.0625 11.90625 64.53125 
Q 14.75 67 18.71875 68.40625 
Q 22.703125 69.828125 27.9375 69.828125 
Q 33.0625 69.828125 37.0625 68.609375 
Q 41.0625 67.390625 43.8125 64.984375 
Q 46.578125 62.59375 48.046875 59.078125 
Q 49.515625 55.5625 49.515625 50.984375 
Q 49.515625 47.515625 48.265625 44.390625 
Q 47.015625 41.265625 44.9375 38.421875 
Q 42.875 35.59375 40.140625 32.953125 
Q 37.40625 30.328125 34.421875 27.8125 
Q 31.453125 25.296875 28.421875 22.828125 
Q 25.390625 20.359375 22.71875 17.859375 
Q 20.0625 15.375 17.96875 12.8125 
Q 15.875 10.25 14.703125 7.46875 
L 50.59375 7.46875 
L 50.59375 0 
z
" id="LiberationSans-32"/>
      </defs>
      <g style="fill:#262626;" transform="translate(681.199588 331.7975)scale(0.08 -0.08)">
       <use xlink:href="#LiberationSans-30"/>
       <use x="55.615234" xlink:href="#LiberationSans-2e"/>
       <use x="83.398438" xlink:href="#LiberationSans-30"/>
       <use x="139.013672" xlink:href="#LiberationSans-32"/>
       <use x="194.628906" xlink:href="#LiberationSans-30"/>
      </g>
     </g>
    </g>
    <g id="xtick_6">
     <g id="line2d_11">
      <path clip-path="url(#pd880294009)" d="M 817.864968 320.4 
L 817.864968 43.2 
" style="fill:none;stroke:#ffffff;stroke-linecap:round;stroke-width:0.8;"/>
     </g>
     <g id="line2d_12"/>
     <g id="text_6">
      <!-- 0.025 -->
      <g style="fill:#262626;" transform="translate(807.856218 331.7975)scale(0.08 -0.08)">
       <use xlink:href="#LiberationSans-30"/>
       <use x="55.615234" xlink:href="#LiberationSans-2e"/>
       <use x="83.398438" xlink:href="#LiberationSans-30"/>
       <use x="139.013672" xlink:href="#LiberationSans-32"/>
       <use x="194.628906" xlink:href="#LiberationSans-35"/>
      </g>
     </g>
    </g>
    <g id="xtick_7">
     <g id="line2d_13">
      <path clip-path="url(#pd880294009)" d="M 944.521598 320.4 
L 944.521598 43.2 
" style="fill:none;stroke:#ffffff;stroke-linecap:round;stroke-width:0.8;"/>
     </g>
     <g id="line2d_14"/>
     <g id="text_7">
      <!-- 0.030 -->
      <defs>
       <path d="M 51.21875 19 
Q 51.21875 14.265625 49.671875 10.546875 
Q 48.140625 6.84375 45.1875 4.265625 
Q 42.234375 1.703125 37.859375 0.359375 
Q 33.5 -0.984375 27.875 -0.984375 
Q 21.484375 -0.984375 17.109375 0.609375 
Q 12.75 2.203125 9.90625 4.8125 
Q 7.078125 7.421875 5.65625 10.765625 
Q 4.25 14.109375 3.8125 17.671875 
L 12.890625 18.5 
Q 13.28125 15.765625 14.328125 13.515625 
Q 15.375 11.28125 17.1875 9.671875 
Q 19 8.0625 21.625 7.171875 
Q 24.265625 6.296875 27.875 6.296875 
Q 34.515625 6.296875 38.296875 9.5625 
Q 42.09375 12.84375 42.09375 19.28125 
Q 42.09375 23.09375 40.40625 25.40625 
Q 38.71875 27.734375 36.203125 29.03125 
Q 33.6875 30.328125 30.734375 30.765625 
Q 27.78125 31.203125 25.296875 31.203125 
L 20.3125 31.203125 
L 20.3125 38.8125 
L 25.09375 38.8125 
Q 27.59375 38.8125 30.265625 39.328125 
Q 32.953125 39.84375 35.171875 41.1875 
Q 37.40625 42.53125 38.84375 44.828125 
Q 40.28125 47.125 40.28125 50.6875 
Q 40.28125 56.203125 37.03125 59.390625 
Q 33.796875 62.59375 27.390625 62.59375 
Q 21.578125 62.59375 17.984375 59.609375 
Q 14.40625 56.640625 13.8125 51.21875 
L 4.984375 51.90625 
Q 5.515625 56.453125 7.46875 59.8125 
Q 9.421875 63.1875 12.421875 65.40625 
Q 15.4375 67.625 19.28125 68.71875 
Q 23.140625 69.828125 27.484375 69.828125 
Q 33.25 69.828125 37.390625 68.375 
Q 41.546875 66.9375 44.1875 64.46875 
Q 46.828125 62.015625 48.0625 58.6875 
Q 49.3125 55.375 49.3125 51.609375 
Q 49.3125 48.578125 48.484375 45.9375 
Q 47.65625 43.3125 45.890625 41.203125 
Q 44.140625 39.109375 41.421875 37.59375 
Q 38.71875 36.078125 34.90625 35.296875 
L 34.90625 35.109375 
Q 39.0625 34.671875 42.140625 33.21875 
Q 45.21875 31.78125 47.21875 29.625 
Q 49.21875 27.484375 50.21875 24.75 
Q 51.21875 22.015625 51.21875 19 
" id="LiberationSans-33"/>
      </defs>
      <g style="fill:#262626;" transform="translate(934.512848 331.7975)scale(0.08 -0.08)">
       <use xlink:href="#LiberationSans-30"/>
       <use x="55.615234" xlink:href="#LiberationSans-2e"/>
       <use x="83.398438" xlink:href="#LiberationSans-30"/>
       <use x="139.013672" xlink:href="#LiberationSans-33"/>
       <use x="194.628906" xlink:href="#LiberationSans-30"/>
      </g>
     </g>
    </g>
   </g>
   <g id="matplotlib.axis_2">
    <g id="ytick_1">
     <g id="line2d_15">
      <path clip-path="url(#pd880294009)" d="M 144 305.235749 
L 1036.8 305.235749 
" style="fill:none;stroke:#ffffff;stroke-linecap:round;stroke-width:0.8;"/>
     </g>
     <g id="line2d_16"/>
     <g id="text_8">
      <!-- −8 -->
      <defs>
       <path d="M 4.9375 29.6875 
L 4.9375 36.8125 
L 53.515625 36.8125 
L 53.515625 29.6875 
z
" id="LiberationSans-2212"/>
       <path d="M 51.265625 19.1875 
Q 51.265625 14.796875 49.875 11.109375 
Q 48.484375 7.421875 45.625 4.734375 
Q 42.78125 2.046875 38.328125 0.53125 
Q 33.890625 -0.984375 27.828125 -0.984375 
Q 21.78125 -0.984375 17.359375 0.53125 
Q 12.9375 2.046875 10.03125 4.703125 
Q 7.125 7.375 5.734375 11.0625 
Q 4.34375 14.75 4.34375 19.09375 
Q 4.34375 22.859375 5.484375 25.78125 
Q 6.640625 28.71875 8.5625 30.828125 
Q 10.5 32.953125 12.96875 34.25 
Q 15.4375 35.546875 18.0625 35.984375 
L 18.0625 36.1875 
Q 15.1875 36.859375 12.90625 38.375 
Q 10.640625 39.890625 9.09375 42.015625 
Q 7.5625 44.140625 6.75 46.71875 
Q 5.953125 49.3125 5.953125 52.203125 
Q 5.953125 55.8125 7.34375 59 
Q 8.734375 62.203125 11.46875 64.625 
Q 14.203125 67.046875 18.25 68.4375 
Q 22.3125 69.828125 27.640625 69.828125 
Q 33.25 69.828125 37.375 68.40625 
Q 41.5 67 44.203125 64.578125 
Q 46.921875 62.15625 48.234375 58.9375 
Q 49.5625 55.71875 49.5625 52.09375 
Q 49.5625 49.265625 48.75 46.671875 
Q 47.953125 44.09375 46.40625 41.96875 
Q 44.875 39.84375 42.59375 38.34375 
Q 40.328125 36.859375 37.359375 36.28125 
L 37.359375 36.078125 
Q 40.328125 35.59375 42.859375 34.296875 
Q 45.40625 33.015625 47.265625 30.890625 
Q 49.125 28.765625 50.1875 25.828125 
Q 51.265625 22.90625 51.265625 19.1875 
M 40.4375 51.609375 
Q 40.4375 54.203125 39.765625 56.34375 
Q 39.109375 58.5 37.59375 60.03125 
Q 36.078125 61.578125 33.640625 62.421875 
Q 31.203125 63.28125 27.640625 63.28125 
Q 24.171875 63.28125 21.78125 62.421875 
Q 19.390625 61.578125 17.84375 60.03125 
Q 16.3125 58.5 15.625 56.34375 
Q 14.9375 54.203125 14.9375 51.609375 
Q 14.9375 49.5625 15.46875 47.40625 
Q 16.015625 45.265625 17.421875 43.5 
Q 18.84375 41.75 21.328125 40.625 
Q 23.828125 39.5 27.734375 39.5 
Q 31.890625 39.5 34.40625 40.625 
Q 36.921875 41.75 38.25 43.5 
Q 39.59375 45.265625 40.015625 47.40625 
Q 40.4375 49.5625 40.4375 51.609375 
M 42.140625 20.015625 
Q 42.140625 22.515625 41.453125 24.828125 
Q 40.765625 27.15625 39.109375 28.9375 
Q 37.453125 30.71875 34.640625 31.8125 
Q 31.84375 32.90625 27.640625 32.90625 
Q 23.78125 32.90625 21.0625 31.8125 
Q 18.359375 30.71875 16.671875 28.90625 
Q 14.984375 27.09375 14.203125 24.71875 
Q 13.421875 22.359375 13.421875 19.828125 
Q 13.421875 16.65625 14.203125 14.03125 
Q 14.984375 11.421875 16.6875 9.546875 
Q 18.40625 7.671875 21.1875 6.640625 
Q 23.96875 5.609375 27.9375 5.609375 
Q 31.9375 5.609375 34.671875 6.640625 
Q 37.40625 7.671875 39.0625 9.546875 
Q 40.71875 11.421875 41.421875 14.078125 
Q 42.140625 16.75 42.140625 20.015625 
" id="LiberationSans-38"/>
      </defs>
      <g style="fill:#262626;" transform="translate(129.27875 308.134499)scale(0.08 -0.08)">
       <use xlink:href="#LiberationSans-2212"/>
       <use x="58.398438" xlink:href="#LiberationSans-38"/>
      </g>
     </g>
    </g>
    <g id="ytick_2">
     <g id="line2d_17">
      <path clip-path="url(#pd880294009)" d="M 144 270.59814 
L 1036.8 270.59814 
" style="fill:none;stroke:#ffffff;stroke-linecap:round;stroke-width:0.8;"/>
     </g>
     <g id="line2d_18"/>
     <g id="text_9">
      <!-- −6 -->
      <defs>
       <path d="M 51.21875 22.515625 
Q 51.21875 17.328125 49.78125 13 
Q 48.34375 8.6875 45.53125 5.578125 
Q 42.71875 2.484375 38.5625 0.75 
Q 34.421875 -0.984375 29 -0.984375 
Q 23 -0.984375 18.5 1.3125 
Q 14.015625 3.609375 11.03125 7.921875 
Q 8.0625 12.25 6.5625 18.53125 
Q 5.078125 24.8125 5.078125 32.8125 
Q 5.078125 42 6.765625 48.921875 
Q 8.453125 55.859375 11.625 60.5 
Q 14.796875 65.140625 19.359375 67.484375 
Q 23.921875 69.828125 29.6875 69.828125 
Q 33.203125 69.828125 36.28125 69.09375 
Q 39.359375 68.359375 41.875 66.71875 
Q 44.390625 65.09375 46.28125 62.40625 
Q 48.1875 59.71875 49.3125 55.8125 
L 40.921875 54.296875 
Q 39.546875 58.734375 36.546875 60.71875 
Q 33.546875 62.703125 29.59375 62.703125 
Q 25.984375 62.703125 23.046875 60.984375 
Q 20.125 59.28125 18.0625 55.875 
Q 16.015625 52.484375 14.90625 47.359375 
Q 13.8125 42.234375 13.8125 35.40625 
Q 16.21875 39.84375 20.5625 42.15625 
Q 24.90625 44.484375 30.515625 44.484375 
Q 35.203125 44.484375 39.015625 42.96875 
Q 42.828125 41.453125 45.53125 38.59375 
Q 48.25 35.75 49.734375 31.671875 
Q 51.21875 27.59375 51.21875 22.515625 
M 42.28125 22.125 
Q 42.28125 25.6875 41.40625 28.5625 
Q 40.53125 31.453125 38.765625 33.46875 
Q 37.015625 35.5 34.421875 36.59375 
Q 31.84375 37.703125 28.421875 37.703125 
Q 26.03125 37.703125 23.578125 36.984375 
Q 21.140625 36.28125 19.15625 34.6875 
Q 17.1875 33.109375 15.9375 30.515625 
Q 14.703125 27.9375 14.703125 24.21875 
Q 14.703125 20.40625 15.671875 17.109375 
Q 16.65625 13.8125 18.484375 11.375 
Q 20.3125 8.9375 22.890625 7.515625 
Q 25.484375 6.109375 28.71875 6.109375 
Q 31.890625 6.109375 34.40625 7.203125 
Q 36.921875 8.296875 38.671875 10.375 
Q 40.4375 12.453125 41.359375 15.421875 
Q 42.28125 18.40625 42.28125 22.125 
" id="LiberationSans-36"/>
      </defs>
      <g style="fill:#262626;" transform="translate(129.27875 273.49689)scale(0.08 -0.08)">
       <use xlink:href="#LiberationSans-2212"/>
       <use x="58.398438" xlink:href="#LiberationSans-36"/>
      </g>
     </g>
    </g>
    <g id="ytick_3">
     <g id="line2d_19">
      <path clip-path="url(#pd880294009)" d="M 144 235.960532 
L 1036.8 235.960532 
" style="fill:none;stroke:#ffffff;stroke-linecap:round;stroke-width:0.8;"/>
     </g>
     <g id="line2d_20"/>
     <g id="text_10">
      <!-- −4 -->
      <defs>
       <path d="M 43.015625 15.578125 
L 43.015625 0 
L 34.71875 0 
L 34.71875 15.578125 
L 2.296875 15.578125 
L 2.296875 22.40625 
L 33.796875 68.796875 
L 43.015625 68.796875 
L 43.015625 22.515625 
L 52.6875 22.515625 
L 52.6875 15.578125 
z
M 34.71875 58.890625 
Q 34.625 58.640625 34.234375 57.9375 
Q 33.84375 57.234375 33.34375 56.34375 
Q 32.859375 55.46875 32.34375 54.5625 
Q 31.84375 53.65625 31.453125 53.078125 
L 13.8125 27.09375 
Q 13.578125 26.703125 13.109375 26.0625 
Q 12.640625 25.4375 12.15625 24.78125 
Q 11.671875 24.125 11.171875 23.484375 
Q 10.6875 22.859375 10.40625 22.515625 
L 34.71875 22.515625 
z
" id="LiberationSans-34"/>
      </defs>
      <g style="fill:#262626;" transform="translate(129.27875 238.859282)scale(0.08 -0.08)">
       <use xlink:href="#LiberationSans-2212"/>
       <use x="58.398438" xlink:href="#LiberationSans-34"/>
      </g>
     </g>
    </g>
    <g id="ytick_4">
     <g id="line2d_21">
      <path clip-path="url(#pd880294009)" d="M 144 201.322923 
L 1036.8 201.322923 
" style="fill:none;stroke:#ffffff;stroke-linecap:round;stroke-width:0.8;"/>
     </g>
     <g id="line2d_22"/>
     <g id="text_11">
      <!-- −2 -->
      <g style="fill:#262626;" transform="translate(129.27875 204.221673)scale(0.08 -0.08)">
       <use xlink:href="#LiberationSans-2212"/>
       <use x="58.398438" xlink:href="#LiberationSans-32"/>
      </g>
     </g>
    </g>
    <g id="ytick_5">
     <g id="line2d_23">
      <path clip-path="url(#pd880294009)" d="M 144 166.685315 
L 1036.8 166.685315 
" style="fill:none;stroke:#ffffff;stroke-linecap:round;stroke-width:0.8;"/>
     </g>
     <g id="line2d_24"/>
     <g id="text_12">
      <!-- 0 -->
      <g style="fill:#262626;" transform="translate(133.95125 169.584065)scale(0.08 -0.08)">
       <use xlink:href="#LiberationSans-30"/>
      </g>
     </g>
    </g>
    <g id="ytick_6">
     <g id="line2d_25">
      <path clip-path="url(#pd880294009)" d="M 144 132.047706 
L 1036.8 132.047706 
" style="fill:none;stroke:#ffffff;stroke-linecap:round;stroke-width:0.8;"/>
     </g>
     <g id="line2d_26"/>
     <g id="text_13">
      <!-- 2 -->
      <g style="fill:#262626;" transform="translate(133.95125 134.946456)scale(0.08 -0.08)">
       <use xlink:href="#LiberationSans-32"/>
      </g>
     </g>
    </g>
    <g id="ytick_7">
     <g id="line2d_27">
      <path clip-path="url(#pd880294009)" d="M 144 97.410098 
L 1036.8 97.410098 
" style="fill:none;stroke:#ffffff;stroke-linecap:round;stroke-width:0.8;"/>
     </g>
     <g id="line2d_28"/>
     <g id="text_14">
      <!-- 4 -->
      <g style="fill:#262626;" transform="translate(133.95125 100.308848)scale(0.08 -0.08)">
       <use xlink:href="#LiberationSans-34"/>
      </g>
     </g>
    </g>
    <g id="ytick_8">
     <g id="line2d_29">
      <path clip-path="url(#pd880294009)" d="M 144 62.77249 
L 1036.8 62.77249 
" style="fill:none;stroke:#ffffff;stroke-linecap:round;stroke-width:0.8;"/>
     </g>
     <g id="line2d_30"/>
     <g id="text_15">
      <!-- 6 -->
      <g style="fill:#262626;" transform="translate(133.95125 65.67124)scale(0.08 -0.08)">
       <use xlink:href="#LiberationSans-36"/>
      </g>
     </g>
    </g>
   </g>
   <g id="line2d_31">
    <path clip-path="url(#pd880294009)" d="M 184.581818 307.8 
L 185.730631 268.499434 
L 186.879444 227.568392 
L 187.453851 210.568379 
L 188.028257 197.578611 
L 188.602664 189.137183 
L 189.17707 185.049286 
L 189.751477 184.422548 
L 190.325883 185.831181 
L 190.90029 187.578575 
L 191.474696 188.009833 
L 192.049102 185.816489 
L 192.623509 180.277116 
L 193.197915 171.389387 
L 194.346728 147.016713 
L 195.495541 123.923751 
L 196.069948 116.767853 
L 196.644354 113.874481 
L 197.218761 115.410483 
L 197.793167 120.808266 
L 200.090793 152.56079 
L 200.6652 155.43914 
L 201.239606 154.619001 
L 201.814013 150.437772 
L 203.537232 129.895859 
L 204.111639 125.672066 
L 204.686045 124.973761 
L 205.260452 128.321982 
L 205.834858 135.505384 
L 206.983671 157.199931 
L 208.132484 177.957861 
L 208.706891 184.105152 
L 209.281297 186.230071 
L 209.855704 184.298743 
L 210.43011 178.999667 
L 212.153329 157.142376 
L 212.727736 153.147332 
L 213.302142 152.66374 
L 213.876549 155.878246 
L 214.450955 162.24653 
L 216.174175 186.725074 
L 216.748581 191.276491 
L 217.322988 191.931646 
L 217.897394 188.313232 
L 218.471801 180.783398 
L 219.620614 158.619251 
L 220.769427 137.837275 
L 221.343833 131.643347 
L 221.91824 129.23711 
L 222.492646 130.473897 
L 223.067053 134.50923 
L 224.215866 145.15865 
L 224.790272 148.476355 
L 225.364679 148.617556 
L 225.939085 144.869387 
L 226.513492 137.236912 
L 227.662305 113.818794 
L 228.811118 89.787813 
L 229.385524 81.564897 
L 229.959931 77.285208 
L 230.534337 77.181282 
L 231.108743 80.750271 
L 232.257556 93.915187 
L 232.831963 100.245566 
L 233.406369 104.326398 
L 233.980776 105.108483 
L 234.555182 102.204236 
L 235.129589 95.960816 
L 236.852808 69.529997 
L 237.427215 63.538819 
L 238.001621 61.240009 
L 238.576028 63.203474 
L 239.150434 69.265633 
L 239.724841 78.557865 
L 241.44806 110.532191 
L 242.022467 117.263701 
L 242.596873 120.304201 
L 243.17128 119.595681 
L 243.745686 115.801895 
L 245.468906 99.983291 
L 246.043312 98.490529 
L 246.617719 100.762314 
L 247.192125 106.99462 
L 247.766532 116.64915 
L 249.489751 152.522269 
L 250.064157 161.298477 
L 250.638564 166.320174 
L 251.21297 167.155886 
L 251.787377 164.112556 
L 252.361783 158.175193 
L 253.510596 143.746597 
L 254.085003 138.546133 
L 254.659409 136.420522 
L 255.233816 137.950722 
L 255.808222 142.989519 
L 256.957035 159.649284 
L 257.531442 168.190484 
L 258.105848 174.649112 
L 258.680255 177.692778 
L 259.254661 176.56565 
L 259.829068 171.229358 
L 260.403474 162.371825 
L 262.126694 129.092044 
L 262.7011 121.177018 
L 263.275507 116.820433 
L 263.849913 116.281677 
L 264.42432 119.086503 
L 266.147539 134.535743 
L 266.721946 136.718989 
L 267.296352 135.327786 
L 267.870759 129.967703 
L 268.445165 120.98091 
L 270.742791 74.904108 
L 271.317197 68.671663 
L 271.891604 66.589902 
L 272.46601 68.552023 
L 273.040417 73.743401 
L 274.763636 93.825164 
L 275.338043 96.813398 
L 275.912449 96.239216 
L 276.486856 92.047736 
L 277.061262 84.906848 
L 278.784482 59.998641 
L 279.358888 55.883106 
L 279.933295 55.8 
L 280.507701 59.988848 
L 281.082108 67.951679 
L 283.379734 109.813091 
L 283.95414 115.135191 
L 284.528547 116.631875 
L 285.102953 114.580895 
L 285.67736 109.939761 
L 286.826173 98.936202 
L 287.400579 95.845942 
L 287.974986 96.096179 
L 288.549392 100.273901 
L 289.123798 108.237383 
L 290.272611 131.569788 
L 291.421424 154.219309 
L 291.995831 161.36342 
L 292.570237 164.452279 
L 293.144644 163.39075 
L 293.71905 158.81149 
L 295.44227 137.947203 
L 296.016676 133.937427 
L 296.591083 133.348207 
L 297.165489 136.435653 
L 297.739896 142.722555 
L 299.463115 167.642816 
L 300.037522 172.578308 
L 300.611928 173.676565 
L 301.186335 170.500353 
L 301.760741 163.350948 
L 302.909554 141.583397 
L 304.058367 120.652763 
L 304.632774 114.256583 
L 305.20718 111.643066 
L 305.781587 112.735135 
L 306.355993 116.747447 
L 307.504806 127.850204 
L 308.079213 131.643718 
L 308.653619 132.381873 
L 309.228025 129.293643 
L 309.802432 122.318715 
L 310.951245 99.982714 
L 312.100058 76.55195 
L 312.674464 68.483463 
L 313.248871 64.326218 
L 313.823277 64.37625 
L 314.397684 68.191908 
L 315.546497 82.294556 
L 316.120903 89.336873 
L 316.69531 94.259503 
L 317.269716 95.95997 
L 317.844123 93.984579 
L 318.418529 88.613296 
L 320.716155 58.329686 
L 321.290562 56.251813 
L 321.864968 58.400515 
L 322.439375 64.675221 
L 323.013781 74.262436 
L 324.737001 107.852132 
L 325.311407 115.311537 
L 325.885814 119.090609 
L 326.46022 119.064345 
L 327.034627 115.834679 
L 328.757846 100.67198 
L 329.332252 99.075851 
L 329.906659 101.156492 
L 330.481065 107.175029 
L 331.055472 116.656684 
L 333.353098 161.667053 
L 333.927504 166.981413 
L 334.501911 168.091756 
L 335.076317 165.242338 
L 335.650724 159.366366 
L 336.799537 144.566058 
L 337.373943 138.95259 
L 337.94835 136.318826 
L 338.522756 137.309666 
L 339.097163 141.846211 
L 340.245976 157.836638 
L 340.820382 166.26933 
L 341.394789 172.763901 
L 341.969195 175.950593 
L 342.543602 175.018033 
L 343.118008 169.864859 
L 343.692415 161.120644 
L 345.415634 127.461403 
L 345.990041 119.210406 
L 346.564447 114.488899 
L 347.138854 113.622568 
L 347.71326 116.201579 
L 349.436479 131.973622 
L 350.010886 134.598841 
L 350.585292 133.752952 
L 351.159699 128.978003 
L 351.734105 120.550958 
L 354.031731 75.697444 
L 354.606138 69.543264 
L 355.180544 67.539263 
L 355.754951 69.642219 
L 356.329357 75.093345 
L 358.052577 96.910613 
L 358.626983 100.743182 
L 359.20139 101.06158 
L 359.775796 97.742589 
L 360.350203 91.390266 
L 362.073422 67.988509 
L 362.647829 64.101393 
L 363.222235 64.177614 
L 363.796642 68.518879 
L 364.371048 76.688056 
L 366.668674 120.511434 
L 367.24308 126.53579 
L 367.817487 128.71497 
L 368.391893 127.260658 
L 368.9663 123.07484 
L 370.115113 112.445144 
L 370.689519 109.285767 
L 371.263926 109.347789 
L 371.838332 113.279246 
L 372.412739 121.004451 
L 373.561552 144.102038 
L 374.710365 166.983506 
L 375.284771 174.37304 
L 375.859178 177.725085 
L 376.433584 176.880957 
L 377.007991 172.414257 
L 378.73121 150.950649 
L 379.305617 146.457638 
L 379.880023 145.31962 
L 380.45443 147.860157 
L 381.028836 153.668291 
L 382.752056 177.97766 
L 383.326462 182.996264 
L 383.900869 184.262651 
L 384.475275 181.279116 
L 385.049682 174.284474 
L 386.198494 152.522889 
L 387.347307 131.111209 
L 387.921714 124.360477 
L 388.49612 121.39384 
L 389.070527 122.201035 
L 389.644933 126.056146 
L 390.793746 137.36685 
L 391.368153 141.528227 
L 391.942559 142.766983 
L 392.516966 140.25435 
L 393.091372 133.864049 
L 393.665779 124.200364 
L 395.388998 89.558794 
L 395.963405 81.59288 
L 396.537811 77.502766 
L 397.112218 77.647086 
L 397.686624 81.645599 
L 398.835437 96.551407 
L 399.409844 104.238947 
L 399.98425 109.939722 
L 400.558657 112.499324 
L 401.133063 111.398372 
L 401.70747 106.849023 
L 402.856283 91.549358 
L 403.430689 83.919747 
L 404.005096 78.505265 
L 404.579502 76.587512 
L 405.153909 78.853097 
L 405.728315 85.264612 
L 406.302721 95.064904 
L 408.025941 130.00993 
L 408.600347 138.113926 
L 409.174754 142.55282 
L 409.74916 143.134943 
L 410.323567 140.399693 
L 412.046786 125.690445 
L 412.621193 123.918587 
L 413.195599 125.730762 
L 413.770006 131.45307 
L 414.344412 140.675147 
L 416.642038 185.701585 
L 417.216445 191.23503 
L 417.790851 192.554499 
L 418.365258 189.841349 
L 418.939664 183.975746 
L 420.088477 168.713151 
L 420.662884 162.642446 
L 421.23729 159.454466 
L 421.811697 159.857143 
L 422.386103 163.840026 
L 422.96051 170.676025 
L 424.109323 187.330625 
L 424.683729 193.816973 
L 425.258135 197.109735 
L 425.832542 196.343079 
L 426.406948 191.352675 
L 426.981355 182.708683 
L 429.278981 140.057262 
L 429.853387 134.959097 
L 430.427794 133.748621 
L 431.0022 136.08078 
L 431.576607 140.94255 
L 432.72542 152.101742 
L 433.299826 155.147654 
L 433.874233 154.830205 
L 434.448639 150.628341 
L 435.023046 142.753166 
L 436.171859 120.15302 
L 437.320672 99.091243 
L 437.895078 92.994773 
L 438.469485 91.039412 
L 439.043891 93.245411 
L 439.618298 98.910778 
L 441.341517 122.300879 
L 441.915924 126.922223 
L 442.49033 128.079486 
L 443.064737 125.581264 
L 443.639143 119.966883 
L 445.362362 97.906187 
L 445.936769 94.180179 
L 446.511175 94.339527 
L 447.085582 98.747791 
L 447.659988 107.029456 
L 449.957614 152.397959 
L 450.532021 159.022269 
L 451.106427 161.785573 
L 451.680834 160.833414 
L 452.25524 157.011168 
L 453.404053 146.572452 
L 453.97846 143.248512 
L 454.552866 143.021922 
L 455.127273 146.601067 
L 455.701679 153.976652 
L 456.850492 176.607284 
L 457.999305 199.492703 
L 458.573712 207.021554 
L 459.148118 210.538153 
L 459.722525 209.820668 
L 460.296931 205.38296 
L 462.594557 178.042642 
L 463.168964 176.278458 
L 463.74337 178.191733 
L 464.317776 183.438378 
L 466.040996 206.892909 
L 466.615402 211.922419 
L 467.189809 213.292384 
L 467.764215 210.44524 
L 468.338622 203.556863 
L 469.487435 181.720741 
L 470.636248 159.752626 
L 471.210654 152.605467 
L 471.785061 149.239076 
L 472.359467 149.709789 
L 472.933874 153.351946 
L 474.657093 169.226315 
L 475.2315 170.912567 
L 475.805906 168.927005 
L 476.380313 163.077328 
L 476.954719 153.9046 
L 478.677939 120.068845 
L 479.252345 112.15465 
L 479.826752 108.072709 
L 480.401158 108.243557 
L 480.975565 112.348775 
L 481.549971 119.392313 
L 482.698784 136.128822 
L 483.273191 142.516982 
L 483.847597 145.84635 
L 484.422003 145.532588 
L 484.99641 141.719727 
L 485.570816 135.253276 
L 486.719629 120.207079 
L 487.294036 114.957014 
L 487.868442 113.094476 
L 488.442849 115.363065 
L 489.017255 121.788726 
L 489.591662 131.671916 
L 491.314881 167.560083 
L 491.889288 176.172626 
L 492.463694 181.139107 
L 493.038101 182.201712 
L 493.612507 179.836751 
L 495.335727 165.214102 
L 495.910133 163.139154 
L 496.48454 164.550423 
L 497.058946 169.838756 
L 497.633353 178.659042 
L 499.930979 223.131889 
L 500.505385 228.754191 
L 501.079792 230.160617 
L 501.654198 227.469512 
L 502.228605 221.506849 
L 503.951824 198.951325 
L 504.52623 195.107442 
L 505.100637 194.817566 
L 505.675043 198.139718 
L 506.24945 204.409586 
L 507.972669 226.752205 
L 508.547076 230.057225 
L 509.121482 229.370792 
L 509.695889 224.465718 
L 510.270295 215.851759 
L 512.567921 172.205659 
L 513.142328 166.662156 
L 513.716734 165.033855 
L 514.291141 167.040747 
L 514.865547 171.723225 
L 516.01436 183.062472 
L 516.588767 186.448994 
L 517.163173 186.584056 
L 517.73758 182.884023 
L 518.311986 175.493594 
L 519.460799 153.59786 
L 520.609612 132.755682 
L 521.184019 126.637741 
L 521.758425 124.643332 
L 522.332831 126.856001 
L 522.907238 132.631448 
L 524.630457 157.255201 
L 525.204864 162.550899 
L 525.77927 164.434612 
L 526.353677 162.647019 
L 526.928083 157.661946 
L 528.651303 136.606181 
L 529.225709 132.918237 
L 529.800116 133.029316 
L 530.374522 137.36444 
L 530.948929 145.610417 
L 532.097742 169.34369 
L 533.246555 191.893478 
L 533.820961 198.963067 
L 534.395368 202.160357 
L 534.969774 201.564773 
L 535.544181 197.964096 
L 536.692994 187.435561 
L 537.2674 183.803944 
L 537.841807 183.141467 
L 538.416213 186.216076 
L 538.99062 193.085122 
L 540.139433 214.926928 
L 541.288246 237.500167 
L 541.862652 245.018785 
L 542.437058 248.558349 
L 543.011465 247.834358 
L 543.585871 243.300314 
L 544.734684 227.670932 
L 545.309091 219.837871 
L 545.883497 214.114758 
L 546.457904 211.608349 
L 547.03231 212.775671 
L 547.606717 217.339996 
L 549.904343 244.512233 
L 550.478749 245.883411 
L 551.053156 243.0787 
L 551.627562 236.210625 
L 552.776375 214.145391 
L 553.925188 191.472552 
L 554.499595 183.850955 
L 555.074001 180.002128 
L 555.648408 180.048685 
L 556.222814 183.385954 
L 557.946034 199.379415 
L 558.52044 201.423173 
L 559.094847 199.87923 
L 559.669253 194.489309 
L 560.24366 185.730235 
L 561.966879 152.467715 
L 562.541285 144.518835 
L 563.115692 140.350787 
L 563.690098 140.445251 
L 564.264505 144.545963 
L 564.838911 151.708127 
L 565.987724 169.146093 
L 566.562131 176.09606 
L 567.136537 180.071223 
L 567.710944 180.423139 
L 568.28535 177.227521 
L 568.859757 171.269459 
L 570.00857 156.771874 
L 570.582976 151.558265 
L 571.157383 149.615567 
L 571.731789 151.743429 
L 572.306196 158.031266 
L 572.880602 167.838347 
L 574.603822 204.173627 
L 575.178228 213.131709 
L 575.752635 218.467214 
L 576.327041 219.856795 
L 576.901448 217.71323 
L 577.475854 213.104359 
L 578.624667 202.7416 
L 579.199074 200.215132 
L 579.77348 201.072807 
L 580.347887 205.769883 
L 580.922293 214.027241 
L 583.219919 257.30593 
L 583.794325 262.870312 
L 584.368732 264.225543 
L 584.943138 261.426918 
L 585.517545 255.24512 
L 587.240764 231.12501 
L 587.815171 226.511569 
L 588.389577 225.413234 
L 588.963984 227.956403 
L 589.53839 233.540475 
L 591.26161 254.737366 
L 591.836016 257.950175 
L 592.410423 257.247761 
L 592.984829 252.340256 
L 593.559236 243.676099 
L 595.856862 198.744894 
L 596.431268 192.678765 
L 597.005675 190.550425 
L 597.580081 192.14508 
L 598.154488 196.557696 
L 599.303301 207.892932 
L 599.877707 211.530869 
L 600.452113 212.033348 
L 601.02652 208.754777 
L 601.600926 201.773008 
L 602.749739 180.43572 
L 603.898552 159.65871 
L 604.472959 153.432751 
L 605.047365 151.304489 
L 605.621772 153.420517 
L 606.196178 159.195063 
L 608.493804 190.54266 
L 609.068211 193.034393 
L 609.642617 191.841722 
L 610.217024 187.372316 
L 611.940243 166.974546 
L 612.51465 163.199503 
L 613.089056 163.129491 
L 613.663463 167.250531 
L 614.237869 175.312388 
L 615.386682 198.95904 
L 616.535495 221.88323 
L 617.109902 229.245714 
L 617.684308 232.729839 
L 618.258715 232.349045 
L 618.833121 228.832614 
L 619.981934 217.945684 
L 620.55634 213.870809 
L 621.130747 212.633582 
L 621.705153 215.060617 
L 622.27956 221.276061 
L 622.853966 230.674452 
L 624.577186 263.996611 
L 625.151592 271.367711 
L 625.725999 274.801439 
L 626.300405 273.951177 
L 626.874812 269.209511 
L 628.023625 252.751113 
L 628.598031 244.272673 
L 629.172438 237.780277 
L 629.746844 234.432842 
L 630.321251 234.753159 
L 630.895657 238.532228 
L 632.04447 252.338941 
L 632.618877 259.258058 
L 633.193283 263.997303 
L 633.76769 265.285605 
L 634.342096 262.447795 
L 634.916503 255.532709 
L 636.065316 233.121973 
L 637.214129 209.635567 
L 637.788535 201.481602 
L 638.362942 197.087856 
L 638.937348 196.642799 
L 639.511754 199.603386 
L 641.234974 215.492215 
L 641.80938 217.823044 
L 642.383787 216.65481 
L 642.958193 211.663409 
L 643.5326 203.260516 
L 645.830226 162.351196 
L 646.404632 158.024194 
L 646.979039 157.961008 
L 647.553445 161.967798 
L 648.127852 169.152323 
L 649.851071 194.495722 
L 650.425478 199.015174 
L 650.999884 199.934093 
L 651.574291 197.259803 
L 652.148697 191.715889 
L 653.29751 177.575474 
L 653.871917 172.296473 
L 654.446323 170.165071 
L 655.02073 172.035948 
L 655.595136 178.062042 
L 656.169543 187.662561 
L 658.467169 233.208378 
L 659.041575 238.785408 
L 659.615981 240.38025 
L 660.190388 238.341792 
L 660.764794 233.686677 
L 661.913607 222.688853 
L 662.488014 219.598652 
L 663.06242 219.78705 
L 663.636827 223.773279 
L 664.211233 231.344844 
L 665.360046 253.075784 
L 665.934453 264.082877 
L 666.508859 272.946223 
L 667.083266 278.346284 
L 667.657672 279.553044 
L 668.232079 276.558776 
L 668.806485 270.077834 
L 670.529705 244.180802 
L 671.104111 238.728599 
L 671.678518 236.750737 
L 672.252924 238.441765 
L 672.827331 243.265613 
L 674.55055 263.105154 
L 675.124957 266.166505 
L 675.699363 265.397176 
L 676.27377 260.444866 
L 676.848176 251.695851 
L 679.145802 205.373873 
L 679.720208 198.754471 
L 680.294615 196.090533 
L 680.869021 197.232544 
L 681.443428 201.331122 
L 682.592241 212.570409 
L 683.166647 216.416321 
L 683.741054 217.24676 
L 684.31546 214.354895 
L 684.889867 207.751406 
L 686.03868 186.918646 
L 687.187493 166.145595 
L 687.761899 159.772103 
L 688.336306 157.462423 
L 688.910712 159.425873 
L 689.485119 165.135985 
L 691.782745 197.622172 
L 692.357151 200.651479 
L 692.931558 199.98638 
L 693.505964 195.96786 
L 695.229184 176.031541 
L 695.80359 172.095732 
L 696.377997 171.763929 
L 696.952403 175.582616 
L 697.526809 183.365078 
L 698.675622 206.720668 
L 699.824435 229.813552 
L 700.398842 237.371804 
L 700.973248 241.051459 
L 701.547655 240.800205 
L 702.122061 237.288008 
L 703.845281 221.297347 
L 704.419687 219.407071 
L 704.994094 221.10472 
L 705.5685 226.58127 
L 706.142907 235.295167 
L 707.866126 267.264618 
L 708.440533 274.414369 
L 709.014939 277.677279 
L 709.589346 276.645222 
L 710.163752 271.649385 
L 711.312565 254.289146 
L 711.886972 245.134377 
L 712.461378 237.842246 
L 713.035785 233.622108 
L 713.610191 233.061716 
L 714.184598 236.020039 
L 714.759004 241.655046 
L 715.907817 255.128276 
L 716.482224 259.651605 
L 717.05663 260.839912 
L 717.631036 257.960407 
L 718.205443 250.997978 
L 718.779849 240.662013 
L 720.503069 203.985811 
L 721.077475 195.309142 
L 721.651882 190.375559 
L 722.226288 189.438859 
L 722.800695 192.018171 
L 724.523914 207.778409 
L 725.098321 210.391891 
L 725.672727 209.599303 
L 726.247134 205.010973 
L 726.82154 196.972618 
L 729.119166 156.394022 
L 729.693573 151.901965 
L 730.267979 151.666698 
L 730.842386 155.557007 
L 731.416792 162.734446 
L 733.140012 188.925722 
L 733.714418 193.954794 
L 734.288825 195.409095 
L 734.863231 193.22762 
L 735.437638 188.071477 
L 736.58645 174.234187 
L 737.160857 168.857543 
L 737.735263 166.499048 
L 738.30967 168.067343 
L 738.884076 173.778855 
L 739.458483 183.11379 
L 741.756109 228.660526 
L 742.330515 234.424652 
L 742.904922 236.176631 
L 743.479328 234.201201 
L 744.053735 229.462571 
L 745.202548 217.761508 
L 745.776954 214.072387 
L 746.351361 213.553441 
L 746.925767 216.787335 
L 747.500174 223.628707 
L 748.648987 244.181854 
L 749.7978 263.385623 
L 750.372206 268.594401 
L 750.946613 269.63511 
L 751.521019 266.437093 
L 752.095426 259.657392 
L 753.818645 232.014661 
L 754.393052 225.736311 
L 754.967458 222.889823 
L 755.541865 223.737543 
L 756.116271 227.808633 
L 757.83949 246.323496 
L 758.413897 249.255044 
L 758.988303 248.448561 
L 759.56271 243.489639 
L 760.137116 234.701616 
L 762.434742 187.205312 
L 763.009149 180.082407 
L 763.583555 176.927521 
L 764.157962 177.656389 
L 764.732368 181.476274 
L 765.881181 192.685389 
L 766.455588 196.774058 
L 767.029994 197.970884 
L 767.604401 195.508614 
L 768.178807 189.330537 
L 769.32762 169.103415 
L 770.476433 148.428496 
L 771.05084 141.94577 
L 771.625246 139.484933 
L 772.199653 141.317642 
L 772.774059 146.977439 
L 773.922872 164.862737 
L 774.497279 173.807207 
L 775.071685 180.621777 
L 775.646091 184.195377 
L 776.220498 184.067834 
L 776.794904 180.513033 
L 777.943717 167.444843 
L 778.518124 161.077026 
L 779.09253 156.986193 
L 779.666937 156.391726 
L 780.241343 159.899966 
L 780.81575 167.388195 
L 781.964563 190.409712 
L 783.113376 213.627646 
L 783.687782 221.365913 
L 784.262189 225.231508 
L 784.836595 225.106694 
L 785.411002 221.601388 
L 787.134221 204.606132 
L 787.708628 202.069402 
L 788.283034 203.041141 
L 788.857441 207.779079 
L 789.431847 215.806549 
L 791.155067 246.425779 
L 791.729473 253.366217 
L 792.30388 256.479258 
L 792.878286 255.295946 
L 793.452693 250.085642 
L 794.601506 231.923982 
L 795.750318 214.113721 
L 796.324725 209.076399 
L 796.899131 207.688721 
L 797.473538 209.87774 
L 798.047944 214.86146 
L 799.196757 227.525579 
L 799.771164 231.893552 
L 800.34557 233.049746 
L 800.919977 230.204633 
L 801.494383 223.278962 
L 802.06879 212.922688 
L 803.792009 175.532062 
L 804.366416 166.426011 
L 804.940822 161.041033 
L 805.515229 159.695634 
L 806.089635 161.971568 
L 806.664042 166.795825 
L 807.812855 177.823334 
L 808.387261 180.795321 
L 808.961668 180.458157 
L 809.536074 176.356971 
L 810.110481 168.770824 
L 812.408107 128.86818 
L 812.982513 124.283992 
L 813.55692 123.941099 
L 814.131326 127.771041 
L 814.705732 134.990358 
L 816.428952 162.155486 
L 817.003358 167.736978 
L 817.577765 169.772489 
L 818.152171 168.132859 
L 818.726578 163.415863 
L 820.449797 144.556328 
L 821.024204 142.011432 
L 821.59861 143.310886 
L 822.173017 148.734494 
L 822.747423 157.82444 
L 825.045049 203.439363 
L 825.619456 209.416079 
L 826.193862 211.357237 
L 826.768269 209.483257 
L 827.342675 204.704741 
L 828.491488 192.395397 
L 829.065895 188.154341 
L 829.640301 186.972464 
L 830.214708 189.495205 
L 830.789114 195.64474 
L 831.937927 215.094774 
L 833.08674 233.720182 
L 833.661146 238.792918 
L 834.235553 239.732134 
L 834.809959 236.404405 
L 835.384366 229.408533 
L 837.681992 193.288935 
L 838.256398 189.666951 
L 838.830805 189.76215 
L 839.405211 193.169497 
L 841.128431 210.633801 
L 841.702837 213.53654 
L 842.277244 212.801491 
L 842.85165 207.952536 
L 843.426057 199.249381 
L 844.57487 174.610021 
L 845.723683 151.104481 
L 846.298089 143.604347 
L 846.872496 140.079197 
L 847.446902 140.509884 
L 848.021309 144.161231 
L 849.744528 159.992384 
L 850.318935 161.666135 
L 850.893341 159.747957 
L 851.467748 154.11364 
L 852.042154 145.36774 
L 853.765373 114.393346 
L 854.33978 107.909962 
L 854.914186 105.398291 
L 855.488593 107.191866 
L 856.062999 112.884888 
L 857.211812 131.222416 
L 857.786219 140.60946 
L 858.360625 147.980752 
L 858.935032 152.173098 
L 859.509438 152.660741 
L 860.083845 149.650178 
L 860.658251 144.039418 
L 861.807064 130.957478 
L 862.381471 126.785866 
L 862.955877 125.996542 
L 863.530284 129.255023 
L 864.10469 136.502987 
L 865.253503 159.284826 
L 866.402316 182.721177 
L 866.976723 190.692144 
L 867.551129 194.802592 
L 868.125536 194.869776 
L 868.699942 191.442912 
L 870.423162 173.6758 
L 870.997568 170.569214 
L 871.571975 170.888644 
L 872.146381 174.958381 
L 872.720787 182.367511 
L 874.444007 211.847605 
L 875.018413 218.659727 
L 875.59282 221.712569 
L 876.167226 220.47709 
L 876.741633 215.160464 
L 877.316039 206.667641 
L 879.039259 177.509965 
L 879.613665 171.778869 
L 880.188072 169.684869 
L 880.762478 171.223099 
L 881.336885 175.672602 
L 882.485698 187.765128 
L 883.060104 192.102687 
L 883.634511 193.358358 
L 884.208917 190.686819 
L 884.783324 183.944574 
L 885.35773 173.720957 
L 887.08095 136.089286 
L 887.655356 126.707635 
L 888.229763 121.019628 
L 888.804169 119.40776 
L 889.378576 121.516778 
L 889.952982 126.323906 
L 891.101795 137.851063 
L 891.676202 141.312798 
L 892.250608 141.565559 
L 892.825014 138.089757 
L 893.399421 131.097217 
L 895.697047 92.427782 
L 896.271453 87.876749 
L 896.84586 87.542701 
L 897.420266 91.419998 
L 897.994673 98.781295 
L 899.717892 127.196765 
L 900.292299 133.422842 
L 900.866705 136.134512 
L 901.441112 135.134764 
L 902.015518 130.957291 
L 903.738738 112.748756 
L 904.313144 110.107636 
L 904.887551 111.221526 
L 905.461957 116.433418 
L 906.036364 125.348371 
L 908.33399 171.294468 
L 908.908396 177.557838 
L 909.482803 179.768789 
L 910.057209 178.083342 
L 910.631616 173.357398 
L 911.780428 160.63298 
L 912.354835 155.936351 
L 912.929241 154.185397 
L 913.503648 156.08757 
L 914.078054 161.632864 
L 915.226867 180.152057 
L 916.37568 198.383445 
L 916.950087 203.422816 
L 917.524493 204.37221 
L 918.0989 201.035659 
L 918.673306 193.952861 
L 920.970932 156.192858 
L 921.545339 151.93396 
L 922.119745 151.412359 
L 922.694152 154.289282 
L 924.417371 171.10543 
L 924.991778 174.121499 
L 925.566184 173.606875 
L 926.140591 169.024196 
L 926.714997 160.568925 
L 927.86381 136.168605 
L 929.012623 112.452734 
L 929.58703 104.738228 
L 930.161436 100.999412 
L 930.735843 101.282042 
L 931.310249 104.909336 
L 933.033468 121.692331 
L 933.607875 123.984451 
L 934.182281 122.755085 
L 934.756688 117.812532 
L 935.331094 109.696921 
L 937.054314 79.866751 
L 937.62872 73.51921 
L 938.203127 71.084583 
L 938.777533 72.957758 
L 939.35194 78.794173 
L 940.500753 97.785587 
L 941.649566 115.736157 
L 942.223972 120.645907 
L 942.798379 121.850335 
L 943.372785 119.488379 
L 943.947192 114.399696 
L 945.096005 101.853709 
L 945.670411 97.699635 
L 946.244818 96.807367 
L 946.819224 99.900843 
L 947.393631 106.986451 
L 948.542444 129.670239 
L 949.691257 153.464559 
L 950.265663 161.743692 
L 950.840069 166.180573 
L 951.414476 166.527957 
L 951.988882 163.273795 
L 954.286508 141.459718 
L 954.860915 141.223516 
L 955.435321 144.71837 
L 956.009728 151.599874 
L 958.307354 187.002921 
L 958.88176 190.105657 
L 959.456167 188.937154 
L 960.030573 183.642103 
L 960.60498 175.071809 
L 962.328199 144.87578 
L 962.902606 138.592655 
L 963.477012 135.931125 
L 964.051419 136.954268 
L 964.625825 141.003071 
L 965.774638 152.791881 
L 966.349045 157.237839 
L 966.923451 158.737614 
L 967.497858 156.3911 
L 968.072264 149.990533 
L 968.646671 140.063522 
L 970.944296 93.199288 
L 971.518703 87.364786 
L 972.093109 85.636109 
L 972.667516 87.721276 
L 973.241922 92.649008 
L 974.390735 104.943457 
L 974.965142 109.029206 
L 975.539548 110.00866 
L 976.113955 107.298096 
L 976.688361 101.04164 
L 977.837174 81.831953 
L 978.411581 71.966385 
L 978.985987 64.163302 
L 979.560394 59.770048 
L 980.1348 59.560253 
L 980.709207 63.591092 
L 981.283613 71.192412 
L 983.006833 101.125251 
L 983.581239 108.083981 
L 984.155646 111.562355 
L 984.730052 111.29593 
L 985.304459 107.753689 
L 987.027678 90.479023 
L 987.602085 87.827416 
L 988.176491 88.83457 
L 988.750898 93.906394 
L 989.325304 102.711636 
L 991.62293 149.230445 
L 992.197336 155.848604 
L 992.771743 158.403947 
L 993.346149 156.988103 
L 993.920556 152.401245 
L 995.643775 134.381916 
L 996.218182 132.15007 
L 996.218182 132.15007 
" style="fill:none;stroke:#4c72b0;stroke-linecap:round;stroke-width:1.4;"/>
   </g>
   <g id="line2d_32">
    <path clip-path="url(#pd880294009)" d="M 184.581818 166.789228 
L 996.218182 166.789228 
L 996.218182 166.789228 
" style="fill:none;stroke:#55a868;stroke-linecap:round;stroke-width:1.4;"/>
   </g>
   <g id="patch_3">
    <path d="M 144 320.4 
L 144 43.2 
" style="fill:none;"/>
   </g>
   <g id="patch_4">
    <path d="M 1036.8 320.4 
L 1036.8 43.2 
" style="fill:none;"/>
   </g>
   <g id="patch_5">
    <path d="M 144 320.4 
L 1036.8 320.4 
" style="fill:none;"/>
   </g>
   <g id="patch_6">
    <path d="M 144 43.2 
L 1036.8 43.2 
" style="fill:none;"/>
   </g>
   <g id="legend_1">
    <g id="line2d_33">
     <path d="M 1002.75125 53.3975 
L 1018.75125 53.3975 
" style="fill:none;stroke:#4c72b0;stroke-linecap:round;stroke-width:1.4;"/>
    </g>
    <g id="line2d_34"/>
    <g id="text_16">
     <!-- a -->
     <defs>
      <path d="M 20.21875 -0.984375 
Q 12.25 -0.984375 8.25 3.21875 
Q 4.25 7.421875 4.25 14.75 
Q 4.25 19.96875 6.21875 23.3125 
Q 8.203125 26.65625 11.390625 28.5625 
Q 14.59375 30.46875 18.6875 31.203125 
Q 22.796875 31.9375 27.046875 32.03125 
L 38.921875 32.234375 
L 38.921875 35.109375 
Q 38.921875 38.375 38.234375 40.671875 
Q 37.546875 42.96875 36.125 44.375 
Q 34.71875 45.796875 32.59375 46.453125 
Q 30.46875 47.125 27.59375 47.125 
Q 25.046875 47.125 23 46.75 
Q 20.953125 46.390625 19.4375 45.4375 
Q 17.921875 44.484375 16.984375 42.84375 
Q 16.0625 41.21875 15.765625 38.71875 
L 6.59375 39.546875 
Q 7.078125 42.671875 8.4375 45.28125 
Q 9.8125 47.90625 12.328125 49.796875 
Q 14.84375 51.703125 18.625 52.75 
Q 22.40625 53.8125 27.78125 53.8125 
Q 37.75 53.8125 42.765625 49.234375 
Q 47.796875 44.671875 47.796875 36.03125 
L 47.796875 13.28125 
Q 47.796875 9.375 48.828125 7.390625 
Q 49.859375 5.421875 52.734375 5.421875 
Q 53.46875 5.421875 54.203125 5.515625 
Q 54.9375 5.609375 55.609375 5.765625 
L 55.609375 0.296875 
Q 53.953125 -0.09375 52.3125 -0.28125 
Q 50.6875 -0.484375 48.828125 -0.484375 
Q 46.34375 -0.484375 44.5625 0.171875 
Q 42.78125 0.828125 41.65625 2.171875 
Q 40.53125 3.515625 39.9375 5.484375 
Q 39.359375 7.46875 39.203125 10.109375 
L 38.921875 10.109375 
Q 37.5 7.5625 35.8125 5.515625 
Q 34.125 3.46875 31.875 2.03125 
Q 29.640625 0.59375 26.78125 -0.1875 
Q 23.921875 -0.984375 20.21875 -0.984375 
M 22.21875 5.609375 
Q 26.421875 5.609375 29.5625 7.140625 
Q 32.71875 8.6875 34.78125 11.078125 
Q 36.859375 13.484375 37.890625 16.3125 
Q 38.921875 19.140625 38.921875 21.734375 
L 38.921875 26.078125 
L 29.296875 25.875 
Q 26.078125 25.828125 23.171875 25.40625 
Q 20.265625 25 18.0625 23.78125 
Q 15.875 22.5625 14.578125 20.359375 
Q 13.28125 18.171875 13.28125 14.59375 
Q 13.28125 10.296875 15.59375 7.953125 
Q 17.921875 5.609375 22.21875 5.609375 
" id="LiberationSans-61"/>
     </defs>
     <g style="fill:#262626;" transform="translate(1025.15125 56.1975)scale(0.08 -0.08)">
      <use xlink:href="#LiberationSans-61"/>
     </g>
    </g>
    <g id="line2d_35">
     <path d="M 1002.75125 64.855 
L 1018.75125 64.855 
" style="fill:none;stroke:#55a868;stroke-linecap:round;stroke-width:1.4;"/>
    </g>
    <g id="line2d_36"/>
    <g id="text_17">
     <!-- b -->
     <defs>
      <path d="M 51.421875 26.65625 
Q 51.421875 -0.984375 31.984375 -0.984375 
Q 25.984375 -0.984375 22 1.1875 
Q 18.015625 3.375 15.53125 8.203125 
L 15.4375 8.203125 
Q 15.4375 6.9375 15.359375 5.5625 
Q 15.28125 4.203125 15.203125 3.03125 
Q 15.140625 1.859375 15.0625 1.03125 
Q 14.984375 0.203125 14.9375 0 
L 6.453125 0 
Q 6.5 0.4375 6.546875 1.484375 
Q 6.59375 2.546875 6.640625 4 
Q 6.6875 5.46875 6.703125 7.21875 
Q 6.734375 8.984375 6.734375 10.890625 
L 6.734375 72.46875 
L 15.53125 72.46875 
L 15.53125 51.8125 
Q 15.53125 50.34375 15.5 49 
Q 15.484375 47.65625 15.4375 46.625 
Q 15.375 45.40625 15.328125 44.34375 
L 15.53125 44.34375 
Q 17.96875 49.421875 22 51.609375 
Q 26.03125 53.8125 31.984375 53.8125 
Q 42 53.8125 46.703125 47.0625 
Q 51.421875 40.328125 51.421875 26.65625 
M 42.1875 26.375 
Q 42.1875 31.84375 41.5 35.75 
Q 40.828125 39.65625 39.3125 42.15625 
Q 37.796875 44.671875 35.453125 45.84375 
Q 33.109375 47.015625 29.734375 47.015625 
Q 26.265625 47.015625 23.609375 45.890625 
Q 20.953125 44.78125 19.171875 42.28125 
Q 17.390625 39.796875 16.453125 35.734375 
Q 15.53125 31.6875 15.53125 25.828125 
Q 15.53125 20.171875 16.453125 16.3125 
Q 17.390625 12.453125 19.171875 10.03125 
Q 20.953125 7.625 23.578125 6.5625 
Q 26.21875 5.515625 29.640625 5.515625 
Q 32.859375 5.515625 35.203125 6.640625 
Q 37.546875 7.765625 39.109375 10.25 
Q 40.671875 12.75 41.421875 16.71875 
Q 42.1875 20.703125 42.1875 26.375 
" id="LiberationSans-62"/>
     </defs>
     <g style="fill:#262626;" transform="translate(1025.15125 67.655)scale(0.08 -0.08)">
      <use xlink:href="#LiberationSans-62"/>
     </g>
    </g>
   </g>
  </g>
 </g>
 <defs>
  <clipPath id="pd880294009">
   <rect height="277.2" width="892.8" x="144" y="43.2"/>
  </clipPath>
 </defs>
</svg>
