<?xml version="1.0" encoding="utf-8" standalone="no"?>
<!DOCTYPE svg PUBLIC "-//W3C//DTD SVG 1.1//EN"
  "http://www.w3.org/Graphics/SVG/1.1/DTD/svg11.dtd">
<!-- Created with matplotlib (http://matplotlib.org/) -->
<svg height="360pt" version="1.1" viewBox="0 0 1152 360" width="1152pt" xmlns="http://www.w3.org/2000/svg" xmlns:xlink="http://www.w3.org/1999/xlink">
 <defs>
  <style type="text/css">
*{stroke-linecap:butt;stroke-linejoin:round;}
  </style>
 </defs>
 <g id="figure_1">
  <g id="patch_1">
   <path d="M 0 360 
L 1152 360 
L 1152 0 
L 0 0 
z
" style="fill:#ffffff;"/>
  </g>
  <g id="axes_1">
   <g id="patch_2">
    <path d="M 144 320.4 
L 1036.8 320.4 
L 1036.8 43.2 
L 144 43.2 
z
" style="fill:#eaeaf2;"/>
   </g>
   <g id="matplotlib.axis_1">
    <g id="xtick_1">
     <g id="line2d_1">
      <path clip-path="url(#p6bdcdde52b)" d="M 184.581818 320.4 
L 184.581818 43.2 
" style="fill:none;stroke:#ffffff;stroke-linecap:round;stroke-width:0.8;"/>
     </g>
     <g id="line2d_2"/>
     <g id="text_1">
      <!-- 0 -->
      <defs>
       <path d="M 51.703125 34.421875 
Q 51.703125 24.515625 49.828125 17.75 
Q 47.953125 10.984375 44.703125 6.8125 
Q 41.453125 2.640625 37.0625 0.828125 
Q 32.671875 -0.984375 27.6875 -0.984375 
Q 22.65625 -0.984375 18.3125 0.828125 
Q 13.96875 2.640625 10.765625 6.78125 
Q 7.5625 10.9375 5.734375 17.703125 
Q 3.90625 24.46875 3.90625 34.421875 
Q 3.90625 44.828125 5.734375 51.640625 
Q 7.5625 58.453125 10.78125 62.5 
Q 14.015625 66.546875 18.40625 68.1875 
Q 22.796875 69.828125 27.984375 69.828125 
Q 32.90625 69.828125 37.21875 68.1875 
Q 41.546875 66.546875 44.765625 62.5 
Q 48 58.453125 49.84375 51.640625 
Q 51.703125 44.828125 51.703125 34.421875 
M 42.78125 34.421875 
Q 42.78125 42.625 41.796875 48.0625 
Q 40.828125 53.515625 38.921875 56.765625 
Q 37.015625 60.015625 34.25 61.359375 
Q 31.5 62.703125 27.984375 62.703125 
Q 24.265625 62.703125 21.4375 61.328125 
Q 18.609375 59.96875 16.671875 56.71875 
Q 14.75 53.46875 13.765625 48.015625 
Q 12.796875 42.578125 12.796875 34.421875 
Q 12.796875 26.515625 13.796875 21.09375 
Q 14.796875 15.671875 16.71875 12.375 
Q 18.65625 9.078125 21.4375 7.640625 
Q 24.21875 6.203125 27.78125 6.203125 
Q 31.25 6.203125 34.03125 7.640625 
Q 36.8125 9.078125 38.734375 12.375 
Q 40.671875 15.671875 41.71875 21.09375 
Q 42.78125 26.515625 42.78125 34.421875 
" id="LiberationSans-30"/>
      </defs>
      <g style="fill:#262626;" transform="translate(182.357443 331.7975)scale(0.08 -0.08)">
       <use xlink:href="#LiberationSans-30"/>
      </g>
     </g>
    </g>
    <g id="xtick_2">
     <g id="line2d_3">
      <path clip-path="url(#p6bdcdde52b)" d="M 299.625952 320.4 
L 299.625952 43.2 
" style="fill:none;stroke:#ffffff;stroke-linecap:round;stroke-width:0.8;"/>
     </g>
     <g id="line2d_4"/>
     <g id="text_2">
      <!-- 200 -->
      <defs>
       <path d="M 5.03125 0 
L 5.03125 6.203125 
Q 7.515625 11.921875 11.109375 16.28125 
Q 14.703125 20.65625 18.65625 24.1875 
Q 22.609375 27.734375 26.484375 30.765625 
Q 30.375 33.796875 33.5 36.8125 
Q 36.625 39.84375 38.546875 43.15625 
Q 40.484375 46.484375 40.484375 50.6875 
Q 40.484375 53.609375 39.59375 55.828125 
Q 38.71875 58.0625 37.0625 59.5625 
Q 35.40625 61.078125 33.078125 61.828125 
Q 30.765625 62.59375 27.9375 62.59375 
Q 25.296875 62.59375 22.96875 61.859375 
Q 20.65625 61.140625 18.84375 59.671875 
Q 17.046875 58.203125 15.890625 56.03125 
Q 14.75 53.859375 14.40625 50.984375 
L 5.421875 51.8125 
Q 5.859375 55.515625 7.46875 58.78125 
Q 9.078125 62.0625 11.90625 64.53125 
Q 14.75 67 18.71875 68.40625 
Q 22.703125 69.828125 27.9375 69.828125 
Q 33.0625 69.828125 37.0625 68.609375 
Q 41.0625 67.390625 43.8125 64.984375 
Q 46.578125 62.59375 48.046875 59.078125 
Q 49.515625 55.5625 49.515625 50.984375 
Q 49.515625 47.515625 48.265625 44.390625 
Q 47.015625 41.265625 44.9375 38.421875 
Q 42.875 35.59375 40.140625 32.953125 
Q 37.40625 30.328125 34.421875 27.8125 
Q 31.453125 25.296875 28.421875 22.828125 
Q 25.390625 20.359375 22.71875 17.859375 
Q 20.0625 15.375 17.96875 12.8125 
Q 15.875 10.25 14.703125 7.46875 
L 50.59375 7.46875 
L 50.59375 0 
z
" id="LiberationSans-32"/>
      </defs>
      <g style="fill:#262626;" transform="translate(292.952827 331.7975)scale(0.08 -0.08)">
       <use xlink:href="#LiberationSans-32"/>
       <use x="55.615234" xlink:href="#LiberationSans-30"/>
       <use x="111.230469" xlink:href="#LiberationSans-30"/>
      </g>
     </g>
    </g>
    <g id="xtick_3">
     <g id="line2d_5">
      <path clip-path="url(#p6bdcdde52b)" d="M 414.670086 320.4 
L 414.670086 43.2 
" style="fill:none;stroke:#ffffff;stroke-linecap:round;stroke-width:0.8;"/>
     </g>
     <g id="line2d_6"/>
     <g id="text_3">
      <!-- 400 -->
      <defs>
       <path d="M 43.015625 15.578125 
L 43.015625 0 
L 34.71875 0 
L 34.71875 15.578125 
L 2.296875 15.578125 
L 2.296875 22.40625 
L 33.796875 68.796875 
L 43.015625 68.796875 
L 43.015625 22.515625 
L 52.6875 22.515625 
L 52.6875 15.578125 
z
M 34.71875 58.890625 
Q 34.625 58.640625 34.234375 57.9375 
Q 33.84375 57.234375 33.34375 56.34375 
Q 32.859375 55.46875 32.34375 54.5625 
Q 31.84375 53.65625 31.453125 53.078125 
L 13.8125 27.09375 
Q 13.578125 26.703125 13.109375 26.0625 
Q 12.640625 25.4375 12.15625 24.78125 
Q 11.671875 24.125 11.171875 23.484375 
Q 10.6875 22.859375 10.40625 22.515625 
L 34.71875 22.515625 
z
" id="LiberationSans-34"/>
      </defs>
      <g style="fill:#262626;" transform="translate(407.996961 331.7975)scale(0.08 -0.08)">
       <use xlink:href="#LiberationSans-34"/>
       <use x="55.615234" xlink:href="#LiberationSans-30"/>
       <use x="111.230469" xlink:href="#LiberationSans-30"/>
      </g>
     </g>
    </g>
    <g id="xtick_4">
     <g id="line2d_7">
      <path clip-path="url(#p6bdcdde52b)" d="M 529.714219 320.4 
L 529.714219 43.2 
" style="fill:none;stroke:#ffffff;stroke-linecap:round;stroke-width:0.8;"/>
     </g>
     <g id="line2d_8"/>
     <g id="text_4">
      <!-- 600 -->
      <defs>
       <path d="M 51.21875 22.515625 
Q 51.21875 17.328125 49.78125 13 
Q 48.34375 8.6875 45.53125 5.578125 
Q 42.71875 2.484375 38.5625 0.75 
Q 34.421875 -0.984375 29 -0.984375 
Q 23 -0.984375 18.5 1.3125 
Q 14.015625 3.609375 11.03125 7.921875 
Q 8.0625 12.25 6.5625 18.53125 
Q 5.078125 24.8125 5.078125 32.8125 
Q 5.078125 42 6.765625 48.921875 
Q 8.453125 55.859375 11.625 60.5 
Q 14.796875 65.140625 19.359375 67.484375 
Q 23.921875 69.828125 29.6875 69.828125 
Q 33.203125 69.828125 36.28125 69.09375 
Q 39.359375 68.359375 41.875 66.71875 
Q 44.390625 65.09375 46.28125 62.40625 
Q 48.1875 59.71875 49.3125 55.8125 
L 40.921875 54.296875 
Q 39.546875 58.734375 36.546875 60.71875 
Q 33.546875 62.703125 29.59375 62.703125 
Q 25.984375 62.703125 23.046875 60.984375 
Q 20.125 59.28125 18.0625 55.875 
Q 16.015625 52.484375 14.90625 47.359375 
Q 13.8125 42.234375 13.8125 35.40625 
Q 16.21875 39.84375 20.5625 42.15625 
Q 24.90625 44.484375 30.515625 44.484375 
Q 35.203125 44.484375 39.015625 42.96875 
Q 42.828125 41.453125 45.53125 38.59375 
Q 48.25 35.75 49.734375 31.671875 
Q 51.21875 27.59375 51.21875 22.515625 
M 42.28125 22.125 
Q 42.28125 25.6875 41.40625 28.5625 
Q 40.53125 31.453125 38.765625 33.46875 
Q 37.015625 35.5 34.421875 36.59375 
Q 31.84375 37.703125 28.421875 37.703125 
Q 26.03125 37.703125 23.578125 36.984375 
Q 21.140625 36.28125 19.15625 34.6875 
Q 17.1875 33.109375 15.9375 30.515625 
Q 14.703125 27.9375 14.703125 24.21875 
Q 14.703125 20.40625 15.671875 17.109375 
Q 16.65625 13.8125 18.484375 11.375 
Q 20.3125 8.9375 22.890625 7.515625 
Q 25.484375 6.109375 28.71875 6.109375 
Q 31.890625 6.109375 34.40625 7.203125 
Q 36.921875 8.296875 38.671875 10.375 
Q 40.4375 12.453125 41.359375 15.421875 
Q 42.28125 18.40625 42.28125 22.125 
" id="LiberationSans-36"/>
      </defs>
      <g style="fill:#262626;" transform="translate(523.041094 331.7975)scale(0.08 -0.08)">
       <use xlink:href="#LiberationSans-36"/>
       <use x="55.615234" xlink:href="#LiberationSans-30"/>
       <use x="111.230469" xlink:href="#LiberationSans-30"/>
      </g>
     </g>
    </g>
    <g id="xtick_5">
     <g id="line2d_9">
      <path clip-path="url(#p6bdcdde52b)" d="M 644.758353 320.4 
L 644.758353 43.2 
" style="fill:none;stroke:#ffffff;stroke-linecap:round;stroke-width:0.8;"/>
     </g>
     <g id="line2d_10"/>
     <g id="text_5">
      <!-- 800 -->
      <defs>
       <path d="M 51.265625 19.1875 
Q 51.265625 14.796875 49.875 11.109375 
Q 48.484375 7.421875 45.625 4.734375 
Q 42.78125 2.046875 38.328125 0.53125 
Q 33.890625 -0.984375 27.828125 -0.984375 
Q 21.78125 -0.984375 17.359375 0.53125 
Q 12.9375 2.046875 10.03125 4.703125 
Q 7.125 7.375 5.734375 11.0625 
Q 4.34375 14.75 4.34375 19.09375 
Q 4.34375 22.859375 5.484375 25.78125 
Q 6.640625 28.71875 8.5625 30.828125 
Q 10.5 32.953125 12.96875 34.25 
Q 15.4375 35.546875 18.0625 35.984375 
L 18.0625 36.1875 
Q 15.1875 36.859375 12.90625 38.375 
Q 10.640625 39.890625 9.09375 42.015625 
Q 7.5625 44.140625 6.75 46.71875 
Q 5.953125 49.3125 5.953125 52.203125 
Q 5.953125 55.8125 7.34375 59 
Q 8.734375 62.203125 11.46875 64.625 
Q 14.203125 67.046875 18.25 68.4375 
Q 22.3125 69.828125 27.640625 69.828125 
Q 33.25 69.828125 37.375 68.40625 
Q 41.5 67 44.203125 64.578125 
Q 46.921875 62.15625 48.234375 58.9375 
Q 49.5625 55.71875 49.5625 52.09375 
Q 49.5625 49.265625 48.75 46.671875 
Q 47.953125 44.09375 46.40625 41.96875 
Q 44.875 39.84375 42.59375 38.34375 
Q 40.328125 36.859375 37.359375 36.28125 
L 37.359375 36.078125 
Q 40.328125 35.59375 42.859375 34.296875 
Q 45.40625 33.015625 47.265625 30.890625 
Q 49.125 28.765625 50.1875 25.828125 
Q 51.265625 22.90625 51.265625 19.1875 
M 40.4375 51.609375 
Q 40.4375 54.203125 39.765625 56.34375 
Q 39.109375 58.5 37.59375 60.03125 
Q 36.078125 61.578125 33.640625 62.421875 
Q 31.203125 63.28125 27.640625 63.28125 
Q 24.171875 63.28125 21.78125 62.421875 
Q 19.390625 61.578125 17.84375 60.03125 
Q 16.3125 58.5 15.625 56.34375 
Q 14.9375 54.203125 14.9375 51.609375 
Q 14.9375 49.5625 15.46875 47.40625 
Q 16.015625 45.265625 17.421875 43.5 
Q 18.84375 41.75 21.328125 40.625 
Q 23.828125 39.5 27.734375 39.5 
Q 31.890625 39.5 34.40625 40.625 
Q 36.921875 41.75 38.25 43.5 
Q 39.59375 45.265625 40.015625 47.40625 
Q 40.4375 49.5625 40.4375 51.609375 
M 42.140625 20.015625 
Q 42.140625 22.515625 41.453125 24.828125 
Q 40.765625 27.15625 39.109375 28.9375 
Q 37.453125 30.71875 34.640625 31.8125 
Q 31.84375 32.90625 27.640625 32.90625 
Q 23.78125 32.90625 21.0625 31.8125 
Q 18.359375 30.71875 16.671875 28.90625 
Q 14.984375 27.09375 14.203125 24.71875 
Q 13.421875 22.359375 13.421875 19.828125 
Q 13.421875 16.65625 14.203125 14.03125 
Q 14.984375 11.421875 16.6875 9.546875 
Q 18.40625 7.671875 21.1875 6.640625 
Q 23.96875 5.609375 27.9375 5.609375 
Q 31.9375 5.609375 34.671875 6.640625 
Q 37.40625 7.671875 39.0625 9.546875 
Q 40.71875 11.421875 41.421875 14.078125 
Q 42.140625 16.75 42.140625 20.015625 
" id="LiberationSans-38"/>
      </defs>
      <g style="fill:#262626;" transform="translate(638.085228 331.7975)scale(0.08 -0.08)">
       <use xlink:href="#LiberationSans-38"/>
       <use x="55.615234" xlink:href="#LiberationSans-30"/>
       <use x="111.230469" xlink:href="#LiberationSans-30"/>
      </g>
     </g>
    </g>
    <g id="xtick_6">
     <g id="line2d_11">
      <path clip-path="url(#p6bdcdde52b)" d="M 759.802487 320.4 
L 759.802487 43.2 
" style="fill:none;stroke:#ffffff;stroke-linecap:round;stroke-width:0.8;"/>
     </g>
     <g id="line2d_12"/>
     <g id="text_6">
      <!-- 1000 -->
      <defs>
       <path d="M 7.625 0 
L 7.625 7.46875 
L 25.140625 7.46875 
L 25.140625 60.40625 
L 9.625 49.3125 
L 9.625 57.625 
L 25.875 68.796875 
L 33.984375 68.796875 
L 33.984375 7.46875 
L 50.734375 7.46875 
L 50.734375 0 
z
" id="LiberationSans-31"/>
      </defs>
      <g style="fill:#262626;" transform="translate(750.904987 331.7975)scale(0.08 -0.08)">
       <use xlink:href="#LiberationSans-31"/>
       <use x="55.615234" xlink:href="#LiberationSans-30"/>
       <use x="111.230469" xlink:href="#LiberationSans-30"/>
       <use x="166.845703" xlink:href="#LiberationSans-30"/>
      </g>
     </g>
    </g>
    <g id="xtick_7">
     <g id="line2d_13">
      <path clip-path="url(#p6bdcdde52b)" d="M 874.846621 320.4 
L 874.846621 43.2 
" style="fill:none;stroke:#ffffff;stroke-linecap:round;stroke-width:0.8;"/>
     </g>
     <g id="line2d_14"/>
     <g id="text_7">
      <!-- 1200 -->
      <g style="fill:#262626;" transform="translate(865.949121 331.7975)scale(0.08 -0.08)">
       <use xlink:href="#LiberationSans-31"/>
       <use x="55.615234" xlink:href="#LiberationSans-32"/>
       <use x="111.230469" xlink:href="#LiberationSans-30"/>
       <use x="166.845703" xlink:href="#LiberationSans-30"/>
      </g>
     </g>
    </g>
    <g id="xtick_8">
     <g id="line2d_15">
      <path clip-path="url(#p6bdcdde52b)" d="M 989.890754 320.4 
L 989.890754 43.2 
" style="fill:none;stroke:#ffffff;stroke-linecap:round;stroke-width:0.8;"/>
     </g>
     <g id="line2d_16"/>
     <g id="text_8">
      <!-- 1400 -->
      <g style="fill:#262626;" transform="translate(980.993254 331.7975)scale(0.08 -0.08)">
       <use xlink:href="#LiberationSans-31"/>
       <use x="55.615234" xlink:href="#LiberationSans-34"/>
       <use x="111.230469" xlink:href="#LiberationSans-30"/>
       <use x="166.845703" xlink:href="#LiberationSans-30"/>
      </g>
     </g>
    </g>
   </g>
   <g id="matplotlib.axis_2">
    <g id="ytick_1">
     <g id="line2d_17">
      <path clip-path="url(#p6bdcdde52b)" d="M 144 307.8 
L 1036.8 307.8 
" style="fill:none;stroke:#ffffff;stroke-linecap:round;stroke-width:0.8;"/>
     </g>
     <g id="line2d_18"/>
     <g id="text_9">
      <!-- −1.00 -->
      <defs>
       <path d="M 4.9375 29.6875 
L 4.9375 36.8125 
L 53.515625 36.8125 
L 53.515625 29.6875 
z
" id="LiberationSans-2212"/>
       <path d="M 9.125 0 
L 9.125 10.6875 
L 18.65625 10.6875 
L 18.65625 0 
z
" id="LiberationSans-2e"/>
      </defs>
      <g style="fill:#262626;" transform="translate(118.15875 310.69875)scale(0.08 -0.08)">
       <use xlink:href="#LiberationSans-2212"/>
       <use x="58.398438" xlink:href="#LiberationSans-31"/>
       <use x="114.013672" xlink:href="#LiberationSans-2e"/>
       <use x="141.796875" xlink:href="#LiberationSans-30"/>
       <use x="197.412109" xlink:href="#LiberationSans-30"/>
      </g>
     </g>
    </g>
    <g id="ytick_2">
     <g id="line2d_19">
      <path clip-path="url(#p6bdcdde52b)" d="M 144 276.3 
L 1036.8 276.3 
" style="fill:none;stroke:#ffffff;stroke-linecap:round;stroke-width:0.8;"/>
     </g>
     <g id="line2d_20"/>
     <g id="text_10">
      <!-- −0.75 -->
      <defs>
       <path d="M 50.59375 61.671875 
Q 45.40625 53.765625 41.0625 46.453125 
Q 36.71875 39.15625 33.59375 31.75 
Q 30.46875 24.359375 28.734375 16.578125 
Q 27 8.796875 27 0 
L 17.828125 0 
Q 17.828125 8.25 19.78125 16.1875 
Q 21.734375 24.125 25.046875 31.765625 
Q 28.375 39.40625 32.765625 46.78125 
Q 37.15625 54.15625 42.09375 61.328125 
L 5.125 61.328125 
L 5.125 68.796875 
L 50.59375 68.796875 
z
" id="LiberationSans-37"/>
       <path d="M 51.421875 22.40625 
Q 51.421875 17.234375 49.859375 12.9375 
Q 48.296875 8.640625 45.21875 5.53125 
Q 42.140625 2.4375 37.578125 0.71875 
Q 33.015625 -0.984375 27 -0.984375 
Q 21.578125 -0.984375 17.546875 0.28125 
Q 13.53125 1.5625 10.734375 3.78125 
Q 7.953125 6 6.3125 8.984375 
Q 4.6875 11.96875 4 15.375 
L 12.890625 16.40625 
Q 13.421875 14.453125 14.390625 12.625 
Q 15.375 10.796875 17.0625 9.34375 
Q 18.75 7.90625 21.21875 7.046875 
Q 23.6875 6.203125 27.203125 6.203125 
Q 30.609375 6.203125 33.390625 7.25 
Q 36.1875 8.296875 38.15625 10.34375 
Q 40.140625 12.40625 41.203125 15.375 
Q 42.28125 18.359375 42.28125 22.21875 
Q 42.28125 25.390625 41.25 28.046875 
Q 40.234375 30.71875 38.328125 32.640625 
Q 36.421875 34.578125 33.65625 35.640625 
Q 30.90625 36.71875 27.390625 36.71875 
Q 25.203125 36.71875 23.34375 36.328125 
Q 21.484375 35.9375 19.890625 35.25 
Q 18.3125 34.578125 17.015625 33.671875 
Q 15.71875 32.765625 14.59375 31.78125 
L 6 31.78125 
L 8.296875 68.796875 
L 47.40625 68.796875 
L 47.40625 61.328125 
L 16.3125 61.328125 
L 14.984375 39.5 
Q 17.328125 41.3125 20.84375 42.59375 
Q 24.359375 43.890625 29.203125 43.890625 
Q 34.328125 43.890625 38.421875 42.328125 
Q 42.53125 40.765625 45.40625 37.90625 
Q 48.296875 35.0625 49.859375 31.109375 
Q 51.421875 27.15625 51.421875 22.40625 
" id="LiberationSans-35"/>
      </defs>
      <g style="fill:#262626;" transform="translate(118.15875 279.19875)scale(0.08 -0.08)">
       <use xlink:href="#LiberationSans-2212"/>
       <use x="58.398438" xlink:href="#LiberationSans-30"/>
       <use x="114.013672" xlink:href="#LiberationSans-2e"/>
       <use x="141.796875" xlink:href="#LiberationSans-37"/>
       <use x="197.412109" xlink:href="#LiberationSans-35"/>
      </g>
     </g>
    </g>
    <g id="ytick_3">
     <g id="line2d_21">
      <path clip-path="url(#p6bdcdde52b)" d="M 144 244.8 
L 1036.8 244.8 
" style="fill:none;stroke:#ffffff;stroke-linecap:round;stroke-width:0.8;"/>
     </g>
     <g id="line2d_22"/>
     <g id="text_11">
      <!-- −0.50 -->
      <g style="fill:#262626;" transform="translate(118.15875 247.69875)scale(0.08 -0.08)">
       <use xlink:href="#LiberationSans-2212"/>
       <use x="58.398438" xlink:href="#LiberationSans-30"/>
       <use x="114.013672" xlink:href="#LiberationSans-2e"/>
       <use x="141.796875" xlink:href="#LiberationSans-35"/>
       <use x="197.412109" xlink:href="#LiberationSans-30"/>
      </g>
     </g>
    </g>
    <g id="ytick_4">
     <g id="line2d_23">
      <path clip-path="url(#p6bdcdde52b)" d="M 144 213.3 
L 1036.8 213.3 
" style="fill:none;stroke:#ffffff;stroke-linecap:round;stroke-width:0.8;"/>
     </g>
     <g id="line2d_24"/>
     <g id="text_12">
      <!-- −0.25 -->
      <g style="fill:#262626;" transform="translate(118.15875 216.19875)scale(0.08 -0.08)">
       <use xlink:href="#LiberationSans-2212"/>
       <use x="58.398438" xlink:href="#LiberationSans-30"/>
       <use x="114.013672" xlink:href="#LiberationSans-2e"/>
       <use x="141.796875" xlink:href="#LiberationSans-32"/>
       <use x="197.412109" xlink:href="#LiberationSans-35"/>
      </g>
     </g>
    </g>
    <g id="ytick_5">
     <g id="line2d_25">
      <path clip-path="url(#p6bdcdde52b)" d="M 144 181.8 
L 1036.8 181.8 
" style="fill:none;stroke:#ffffff;stroke-linecap:round;stroke-width:0.8;"/>
     </g>
     <g id="line2d_26"/>
     <g id="text_13">
      <!-- 0.00 -->
      <g style="fill:#262626;" transform="translate(122.83125 184.69875)scale(0.08 -0.08)">
       <use xlink:href="#LiberationSans-30"/>
       <use x="55.615234" xlink:href="#LiberationSans-2e"/>
       <use x="83.398438" xlink:href="#LiberationSans-30"/>
       <use x="139.013672" xlink:href="#LiberationSans-30"/>
      </g>
     </g>
    </g>
    <g id="ytick_6">
     <g id="line2d_27">
      <path clip-path="url(#p6bdcdde52b)" d="M 144 150.3 
L 1036.8 150.3 
" style="fill:none;stroke:#ffffff;stroke-linecap:round;stroke-width:0.8;"/>
     </g>
     <g id="line2d_28"/>
     <g id="text_14">
      <!-- 0.25 -->
      <g style="fill:#262626;" transform="translate(122.83125 153.19875)scale(0.08 -0.08)">
       <use xlink:href="#LiberationSans-30"/>
       <use x="55.615234" xlink:href="#LiberationSans-2e"/>
       <use x="83.398438" xlink:href="#LiberationSans-32"/>
       <use x="139.013672" xlink:href="#LiberationSans-35"/>
      </g>
     </g>
    </g>
    <g id="ytick_7">
     <g id="line2d_29">
      <path clip-path="url(#p6bdcdde52b)" d="M 144 118.8 
L 1036.8 118.8 
" style="fill:none;stroke:#ffffff;stroke-linecap:round;stroke-width:0.8;"/>
     </g>
     <g id="line2d_30"/>
     <g id="text_15">
      <!-- 0.50 -->
      <g style="fill:#262626;" transform="translate(122.83125 121.69875)scale(0.08 -0.08)">
       <use xlink:href="#LiberationSans-30"/>
       <use x="55.615234" xlink:href="#LiberationSans-2e"/>
       <use x="83.398438" xlink:href="#LiberationSans-35"/>
       <use x="139.013672" xlink:href="#LiberationSans-30"/>
      </g>
     </g>
    </g>
    <g id="ytick_8">
     <g id="line2d_31">
      <path clip-path="url(#p6bdcdde52b)" d="M 144 87.3 
L 1036.8 87.3 
" style="fill:none;stroke:#ffffff;stroke-linecap:round;stroke-width:0.8;"/>
     </g>
     <g id="line2d_32"/>
     <g id="text_16">
      <!-- 0.75 -->
      <g style="fill:#262626;" transform="translate(122.83125 90.19875)scale(0.08 -0.08)">
       <use xlink:href="#LiberationSans-30"/>
       <use x="55.615234" xlink:href="#LiberationSans-2e"/>
       <use x="83.398438" xlink:href="#LiberationSans-37"/>
       <use x="139.013672" xlink:href="#LiberationSans-35"/>
      </g>
     </g>
    </g>
    <g id="ytick_9">
     <g id="line2d_33">
      <path clip-path="url(#p6bdcdde52b)" d="M 144 55.8 
L 1036.8 55.8 
" style="fill:none;stroke:#ffffff;stroke-linecap:round;stroke-width:0.8;"/>
     </g>
     <g id="line2d_34"/>
     <g id="text_17">
      <!-- 1.00 -->
      <g style="fill:#262626;" transform="translate(122.83125 58.69875)scale(0.08 -0.08)">
       <use xlink:href="#LiberationSans-31"/>
       <use x="55.615234" xlink:href="#LiberationSans-2e"/>
       <use x="83.398438" xlink:href="#LiberationSans-30"/>
       <use x="139.013672" xlink:href="#LiberationSans-30"/>
      </g>
     </g>
    </g>
   </g>
   <g id="line2d_35">
    <path clip-path="url(#p6bdcdde52b)" d="M 184.581818 214.813713 
L 187.457922 214.814304 
L 188.033142 210.781427 
L 188.608363 195.265899 
L 189.758804 143.89171 
L 190.334025 128.176058 
L 190.909246 134.504764 
L 191.484466 165.347126 
L 192.634908 258.640812 
L 193.210128 292.837787 
L 193.785349 306.684669 
L 194.36057 299.691491 
L 194.93579 276.306603 
L 196.086232 211.954518 
L 196.661452 186.604312 
L 197.236673 172.835693 
L 197.811894 172.362685 
L 198.387114 183.827707 
L 200.687997 260.860354 
L 201.263218 268.427925 
L 201.838438 269.101665 
L 202.413659 263.895241 
L 202.98888 253.354735 
L 203.5641 237.33196 
L 205.289762 176.545895 
L 205.864983 163.375487 
L 206.440204 157.962863 
L 207.015424 161.414969 
L 207.590645 173.207547 
L 209.316307 227.807717 
L 209.891528 239.650015 
L 210.466748 244.188166 
L 211.041969 241.583703 
L 211.61719 233.710817 
L 212.767631 213.56306 
L 213.342852 206.457626 
L 213.918072 203.316488 
L 214.493293 204.208243 
L 215.068514 208.196699 
L 216.218955 219.119226 
L 216.794176 222.997011 
L 217.369396 224.582292 
L 217.944617 223.797112 
L 218.519838 221.180786 
L 219.670279 214.26494 
L 220.2455 211.8314 
L 220.82072 210.828677 
L 221.395941 211.295031 
L 221.971162 212.904894 
L 223.121603 217.275556 
L 223.696824 218.909352 
L 224.272044 219.702636 
L 224.847265 219.60329 
L 225.422486 218.781726 
L 227.148148 215.348442 
L 227.723368 214.827652 
L 228.298589 214.79198 
L 228.87381 215.159088 
L 231.174692 217.553967 
L 231.749913 217.822958 
L 232.325134 217.906281 
L 235.201237 217.73027 
L 236.926899 217.992709 
L 238.07734 217.978363 
L 238.652561 218.136076 
L 239.227782 218.548192 
L 239.803002 219.332376 
L 240.378223 220.597821 
L 240.953444 222.338053 
L 242.103885 227.027124 
L 243.829547 235.014648 
L 245.555209 241.644729 
L 246.13043 245.233622 
L 247.280871 256.863557 
L 247.856092 255.586602 
L 248.431312 235.136375 
L 249.006533 191.110908 
L 250.156974 82.152308 
L 250.732195 55.8 
L 251.307416 64.287546 
L 251.882636 105.012198 
L 253.608298 277.641572 
L 254.183519 304.998466 
L 254.75874 307.8 
L 255.33396 289.682238 
L 257.059622 192.991031 
L 257.634843 174.410316 
L 258.210064 170.038282 
L 258.785284 178.655804 
L 260.510946 232.916231 
L 261.086167 242.923908 
L 261.661388 244.439545 
L 262.236608 238.417497 
L 263.96227 205.669619 
L 264.537491 200.097457 
L 265.112712 199.678756 
L 265.687932 203.772443 
L 267.413594 224.406582 
L 267.988815 227.82982 
L 268.564036 228.019662 
L 269.139256 225.385729 
L 270.864918 212.348734 
L 271.440139 210.193253 
L 272.01536 210.079464 
L 272.590581 211.75323 
L 274.316243 220.31308 
L 274.891463 221.885711 
L 275.466684 222.211414 
L 276.041905 221.384391 
L 277.767567 216.373898 
L 278.342787 215.370605 
L 278.918008 215.125324 
L 279.493229 215.583774 
L 280.068449 216.562791 
L 281.794111 220.247003 
L 282.944553 221.944513 
L 284.094994 223.04585 
L 285.245435 223.922175 
L 286.395877 224.521359 
L 286.971097 224.748734 
L 287.546318 225.150337 
L 288.121539 226.187869 
L 288.696759 228.688351 
L 289.27198 233.929713 
L 289.847201 243.58472 
L 291.572863 286.573489 
L 292.148083 270.873128 
L 292.723304 224.519598 
L 293.873745 105.402355 
L 294.448966 76.288826 
L 295.024187 82.186598 
L 295.599407 118.455948 
L 296.749849 225.504074 
L 297.325069 266.695848 
L 297.90029 288.174896 
L 298.475511 288.965405 
L 299.050731 272.492606 
L 300.776393 189.892338 
L 301.351614 174.875864 
L 301.926835 172.278398 
L 302.502055 180.823633 
L 304.227717 228.587244 
L 304.802938 236.720497 
L 305.378159 237.4548 
L 305.953379 231.847607 
L 307.679041 204.030355 
L 308.254262 199.645023 
L 308.829483 199.622966 
L 309.404703 203.341556 
L 311.130365 220.555561 
L 311.705586 223.08153 
L 312.280807 222.889277 
L 312.856027 220.443982 
L 314.006469 212.951597 
L 314.581689 210.116765 
L 315.15691 208.844675 
L 315.732131 209.26903 
L 316.307351 211.046567 
L 317.457793 216.018586 
L 318.033013 217.870653 
L 318.608234 218.721571 
L 319.183455 218.490428 
L 319.758675 217.381482 
L 320.909117 214.150214 
L 321.484337 212.931185 
L 322.059558 212.408625 
L 322.634779 212.681262 
L 323.209999 213.630077 
L 324.935661 217.674995 
L 325.510882 218.4966 
L 326.086103 218.806873 
L 326.661323 218.64816 
L 327.236544 218.110567 
L 328.962206 215.914972 
L 329.537427 215.575498 
L 330.112647 215.727674 
L 330.687868 216.547092 
L 331.263089 218.232489 
L 331.838309 221.03033 
L 332.41353 225.212012 
L 332.988751 231.019612 
L 333.563971 238.607108 
L 335.289633 264.790471 
L 335.864854 263.801177 
L 336.440075 249.874781 
L 338.165737 177.531437 
L 338.740957 166.835006 
L 339.316178 166.452263 
L 339.891399 174.076922 
L 341.617061 212.065471 
L 342.192281 220.817551 
L 342.767502 225.129671 
L 343.342723 224.657682 
L 343.917943 220.177961 
L 345.068385 206.63922 
L 345.643605 201.566803 
L 346.218826 199.30579 
L 346.794047 199.996813 
L 347.369267 202.970211 
L 348.519709 211.069351 
L 349.094929 214.014053 
L 349.67015 215.367992 
L 350.245371 215.048807 
L 350.820591 213.390362 
L 351.971033 208.658864 
L 352.546253 206.906677 
L 353.121474 206.131228 
L 353.696695 206.384089 
L 354.271915 207.458875 
L 355.997577 211.733657 
L 356.572798 212.422683 
L 357.148019 212.538104 
L 357.723239 212.170471 
L 359.448901 210.340925 
L 360.024122 210.071447 
L 360.599343 210.076869 
L 361.749784 210.586418 
L 362.900226 211.121884 
L 364.050667 211.36747 
L 365.776329 211.606897 
L 368.652432 212.600868 
L 369.227653 212.548507 
L 369.802874 212.308824 
L 371.528536 211.088929 
L 372.103756 210.918974 
L 372.678977 211.070867 
L 373.254198 211.611476 
L 373.829418 212.538035 
L 374.97986 215.166721 
L 376.130301 217.706411 
L 376.705522 218.350176 
L 377.280742 218.193719 
L 377.855963 216.956456 
L 378.431184 214.421119 
L 379.006404 210.469134 
L 380.732066 194.954654 
L 381.307287 194.130782 
L 382.457728 200.752616 
L 383.032949 200.075401 
L 383.60817 194.91624 
L 384.18339 188.732662 
L 384.758611 186.037193 
L 385.333832 189.453619 
L 385.909052 198.553184 
L 387.059494 221.830848 
L 387.634714 229.345178 
L 388.209935 231.870405 
L 388.785156 229.850112 
L 389.360376 224.671305 
L 390.510818 211.763067 
L 391.086038 207.11714 
L 391.661259 204.953759 
L 392.23648 205.412356 
L 392.8117 207.965895 
L 393.962142 215.303315 
L 394.537362 217.937211 
L 395.112583 218.991197 
L 395.687804 218.429801 
L 396.263024 216.667161 
L 397.413466 212.267927 
L 397.988686 210.888294 
L 398.563907 210.50328 
L 399.139128 211.10005 
L 399.714348 212.43151 
L 400.86479 215.575994 
L 401.44001 216.539067 
L 402.015231 216.762948 
L 402.590452 216.294384 
L 403.740893 214.202362 
L 404.316114 213.162356 
L 404.891334 212.456824 
L 405.466555 212.212267 
L 406.041776 212.432678 
L 406.616996 213.019156 
L 408.342658 215.341677 
L 408.917879 215.744967 
L 409.4931 215.799904 
L 410.06832 215.537998 
L 411.218762 214.401319 
L 412.369203 213.218211 
L 412.944424 212.875284 
L 413.519644 212.777129 
L 414.094865 212.932557 
L 414.670086 213.297549 
L 416.970968 215.349911 
L 417.546189 215.539272 
L 418.12141 215.465893 
L 418.69663 215.090989 
L 419.271851 214.388631 
L 419.847072 213.367532 
L 420.997513 210.625749 
L 422.147954 207.896852 
L 422.723175 207.129141 
L 423.298396 207.141235 
L 423.873616 208.246743 
L 424.448837 210.664741 
L 425.024058 214.390046 
L 426.174499 222.66876 
L 426.74972 223.615424 
L 427.32494 221.676129 
L 427.900161 220.959018 
L 428.475382 226.177396 
L 429.625823 249.767649 
L 430.201044 256.606664 
L 430.776264 253.612832 
L 431.351485 240.772065 
L 432.501926 202.492523 
L 433.077147 187.808471 
L 433.652368 180.713444 
L 434.227588 181.501775 
L 434.802809 188.54977 
L 436.528471 219.72599 
L 437.103692 225.146398 
L 437.678912 226.056179 
L 438.254133 222.951462 
L 439.979795 205.691582 
L 440.555016 202.886156 
L 441.130236 202.874201 
L 441.705457 205.212273 
L 443.431119 215.847116 
L 444.00634 217.356724 
L 444.58156 217.152846 
L 445.156781 215.529676 
L 446.882443 208.609932 
L 447.457664 207.640702 
L 448.032884 207.802557 
L 448.608105 208.914505 
L 450.333767 213.734039 
L 450.908988 214.490846 
L 451.484208 214.49313 
L 452.059429 213.837903 
L 453.785091 210.57418 
L 454.360312 209.934197 
L 454.935533 209.761823 
L 455.510753 210.030161 
L 456.661195 211.373758 
L 457.811636 212.664275 
L 458.386857 212.967708 
L 458.962077 212.991071 
L 459.537298 212.764381 
L 460.687739 211.773993 
L 462.988622 209.420088 
L 463.563843 209.055787 
L 464.139063 208.882208 
L 464.714284 208.941288 
L 465.289505 209.266296 
L 465.864725 209.849632 
L 467.590387 211.948267 
L 468.165608 211.935366 
L 468.740829 210.895273 
L 469.316049 208.286037 
L 469.89127 203.467314 
L 470.466491 195.799377 
L 472.192153 162.051639 
L 472.767373 162.470062 
L 473.342594 178.329916 
L 474.493035 229.539284 
L 475.068256 244.521329 
L 475.643477 246.641478 
L 476.218697 238.590844 
L 477.369139 213.266781 
L 477.944359 204.872437 
L 478.51958 201.651461 
L 479.094801 202.953993 
L 479.670021 207.540382 
L 481.395683 226.082591 
L 481.970904 228.827316 
L 482.546125 228.543178 
L 483.121345 225.653279 
L 484.847007 213.19178 
L 485.422228 211.500939 
L 485.997449 211.700948 
L 486.572669 213.364821 
L 487.723111 218.205391 
L 488.298331 219.988258 
L 488.873552 220.791046 
L 489.448773 220.565941 
L 490.023993 219.534109 
L 491.174435 216.711829 
L 491.749655 215.738039 
L 492.324876 215.346431 
L 492.900097 215.527609 
L 494.050538 216.855145 
L 494.625759 217.486273 
L 495.200979 217.808983 
L 495.7762 217.744509 
L 496.351421 217.331842 
L 498.077083 215.576907 
L 498.652303 215.363525 
L 499.227524 215.456055 
L 500.377965 216.26888 
L 500.953186 216.710481 
L 501.528407 216.972572 
L 502.103627 216.954742 
L 502.678848 216.632241 
L 503.254069 216.031329 
L 504.979731 213.766813 
L 505.554951 213.319753 
L 506.130172 213.193193 
L 506.705393 213.394912 
L 507.855834 214.445642 
L 509.006275 215.487606 
L 509.581496 215.590423 
L 510.156717 215.171589 
L 510.731937 214.074931 
L 511.307158 212.169345 
L 511.882379 209.369766 
L 512.457599 205.643809 
L 513.608041 195.848448 
L 514.758482 185.631976 
L 515.333703 182.975894 
L 515.908923 184.843552 
L 516.484144 193.319838 
L 518.209806 235.705671 
L 518.785027 243.90755 
L 519.360247 247.576142 
L 519.935468 247.100168 
L 520.510689 242.859453 
L 521.085909 235.604796 
L 522.236351 217.713946 
L 522.811571 210.587373 
L 523.386792 206.735972 
L 523.962013 206.684862 
L 524.537233 209.813397 
L 526.262895 223.782052 
L 526.838116 225.826347 
L 527.413337 225.755405 
L 527.988557 223.949838 
L 529.714219 215.757867 
L 530.28944 214.460549 
L 530.864661 214.435162 
L 531.439881 215.508402 
L 533.165543 220.583456 
L 533.740764 221.346256 
L 534.315985 221.282774 
L 534.891205 220.518723 
L 536.616867 216.891353 
L 537.192088 216.169182 
L 537.767309 215.934258 
L 538.342529 216.147575 
L 539.492971 217.316133 
L 540.068191 217.898381 
L 540.643412 218.290285 
L 541.218633 218.427382 
L 541.793853 218.318843 
L 542.944295 217.624075 
L 544.094736 216.815453 
L 545.245178 216.263788 
L 546.395619 216.027284 
L 548.121281 215.929749 
L 549.271722 216.086818 
L 550.997384 216.546189 
L 551.572605 216.511811 
L 552.147826 216.24156 
L 552.723046 215.696985 
L 553.298267 214.872208 
L 554.448708 212.572769 
L 555.59915 210.284319 
L 556.17437 209.56503 
L 556.749591 209.349563 
L 557.324812 209.740277 
L 557.900032 210.7585 
L 559.625694 215.026343 
L 560.200915 214.66075 
L 560.776136 211.406254 
L 561.926577 196.331233 
L 562.501798 194.814345 
L 563.077018 207.197627 
L 564.22746 257.807348 
L 564.80268 274.415127 
L 565.377901 274.970244 
L 565.953122 259.992601 
L 567.678784 190.34644 
L 568.254004 180.747316 
L 568.829225 181.379353 
L 569.404446 190.131622 
L 571.130108 230.103483 
L 571.705328 237.025766 
L 572.280549 237.951764 
L 572.85577 233.530381 
L 574.581432 209.858343 
L 575.156652 205.941988 
L 575.731873 205.719199 
L 576.307094 208.611183 
L 578.032756 222.190145 
L 578.607976 224.098812 
L 579.183197 223.822875 
L 579.758418 221.746005 
L 581.48408 213.070257 
L 582.0593 211.917341 
L 582.634521 212.155856 
L 583.209742 213.523455 
L 584.360183 217.465445 
L 584.935404 218.905779 
L 585.510624 219.48666 
L 586.085845 219.149373 
L 586.661066 218.058443 
L 587.811507 215.073939 
L 588.386728 213.964204 
L 588.961948 213.429934 
L 589.537169 213.492109 
L 590.11239 214.050553 
L 591.838052 216.738645 
L 592.413272 217.237022 
L 592.988493 217.307788 
L 593.563714 216.956113 
L 594.138934 216.255962 
L 595.864596 213.573189 
L 596.439817 212.892985 
L 597.015038 212.456398 
L 597.590258 212.342594 
L 598.165479 212.574622 
L 598.7407 213.109819 
L 601.041582 216.075229 
L 601.616803 216.124175 
L 602.192024 215.40812 
L 602.767244 213.604049 
L 603.342465 210.365497 
L 603.917686 205.358095 
L 604.492906 198.362693 
L 605.643348 180.553674 
L 606.218568 175.156295 
L 606.793789 178.843469 
L 607.36901 193.112063 
L 607.94423 212.029078 
L 608.519451 227.237587 
L 609.094672 234.233128 
L 609.669892 233.630284 
L 611.395554 220.014762 
L 611.970775 218.918633 
L 612.545996 219.564506 
L 614.846878 224.80647 
L 615.422099 225.279664 
L 615.99732 224.918745 
L 616.57254 223.767317 
L 617.722982 220.464231 
L 618.298202 219.20463 
L 618.873423 218.616706 
L 619.448644 218.701229 
L 620.023864 219.255091 
L 621.174306 220.6588 
L 621.749526 221.092051 
L 622.324747 221.202982 
L 622.899968 221.020599 
L 625.20085 219.581743 
L 625.776071 219.471647 
L 626.926512 219.603568 
L 628.076954 219.768157 
L 628.652174 219.71612 
L 629.802616 219.249516 
L 630.953057 218.664493 
L 631.528278 218.515812 
L 632.103498 218.526951 
L 633.25394 218.935833 
L 634.404381 219.412057 
L 634.979602 219.490552 
L 635.554822 219.408346 
L 636.130043 219.142126 
L 637.280485 218.154448 
L 638.430926 217.12738 
L 639.006147 216.882632 
L 639.581367 216.883337 
L 640.156588 217.128797 
L 641.307029 218.07176 
L 642.457471 219.065781 
L 643.032691 219.313406 
L 643.607912 219.230713 
L 644.183133 218.719217 
L 644.758353 217.737883 
L 645.333574 216.303128 
L 646.484015 212.455091 
L 647.634457 208.739305 
L 648.209677 207.789629 
L 648.784898 208.121077 
L 649.360119 210.371085 
L 649.935339 215.091354 
L 651.661001 235.719248 
L 652.236222 236.66063 
L 652.811443 235.534178 
L 653.386663 236.374175 
L 653.961884 240.628374 
L 654.537105 246.191268 
L 655.112325 249.23672 
L 655.687546 246.849902 
L 656.262767 238.538854 
L 657.988429 203.370794 
L 658.563649 198.008864 
L 659.13887 197.636824 
L 659.714091 201.337805 
L 661.439753 220.216143 
L 662.014973 223.853504 
L 662.590194 224.765416 
L 663.165415 223.151313 
L 664.891077 212.585525 
L 665.466297 210.681015 
L 666.041518 210.481442 
L 666.616739 211.758554 
L 668.342401 218.323328 
L 668.917621 219.349891 
L 669.492842 219.325676 
L 670.068063 218.36726 
L 671.793725 213.711264 
L 672.368945 212.920542 
L 672.944166 212.864321 
L 673.519387 213.46907 
L 675.820269 217.470463 
L 676.39549 217.63919 
L 676.970711 217.316282 
L 677.545931 216.606705 
L 678.696373 214.842527 
L 679.271593 214.181598 
L 679.846814 213.836249 
L 680.422035 213.850845 
L 680.997255 214.194693 
L 683.298138 216.400853 
L 683.873359 216.694504 
L 684.448579 216.799698 
L 685.0238 216.695764 
L 685.599021 216.380163 
L 686.174241 215.859609 
L 687.324683 214.346312 
L 688.475124 212.679789 
L 689.050345 212.056779 
L 689.625565 211.78042 
L 690.200786 212.036038 
L 690.776007 212.981109 
L 691.351227 214.713191 
L 691.926448 217.224604 
L 693.076889 223.385222 
L 693.65211 225.375164 
L 694.227331 224.48466 
L 694.802551 219.230847 
L 695.377772 211.273077 
L 695.952993 207.718826 
L 696.528213 215.819754 
L 698.253875 272.430051 
L 698.829096 273.958708 
L 699.404317 261.170163 
L 701.129979 192.332722 
L 701.705199 179.778178 
L 702.28042 176.83754 
L 702.855641 182.300393 
L 703.430861 193.486142 
L 704.581303 219.233725 
L 705.156523 227.652673 
L 705.731744 230.784729 
L 706.306965 228.712215 
L 706.882185 222.792387 
L 708.032627 208.325052 
L 708.607847 203.834303 
L 709.183068 202.559387 
L 709.758289 204.298137 
L 710.90873 212.546792 
L 711.483951 216.429971 
L 712.059171 218.79964 
L 712.634392 219.262625 
L 713.209613 217.99073 
L 714.935275 210.355539 
L 715.510495 208.964179 
L 716.085716 208.881977 
L 716.660937 209.983963 
L 718.386599 215.450486 
L 718.961819 216.328956 
L 719.53704 216.355758 
L 720.112261 215.626701 
L 721.837923 211.965467 
L 722.413143 211.412217 
L 722.988364 211.48833 
L 723.563585 212.08997 
L 725.289247 214.939685 
L 725.864467 215.526738 
L 726.439688 215.730769 
L 727.014909 215.546269 
L 727.59013 215.03823 
L 729.315792 212.856147 
L 729.891012 212.365443 
L 730.466233 212.158711 
L 731.041454 212.285007 
L 731.616674 212.746301 
L 732.191895 213.511176 
L 733.342336 215.705302 
L 734.492778 218.07713 
L 735.067998 218.872885 
L 735.643219 219.018082 
L 736.21844 218.135214 
L 736.79366 215.775252 
L 737.368881 211.444579 
L 737.944102 204.776195 
L 739.094543 186.198678 
L 739.669764 180.05861 
L 740.244984 182.872655 
L 740.820205 195.797153 
L 741.970646 230.49415 
L 742.545867 241.351833 
L 743.121088 245.299235 
L 743.696308 243.300489 
L 744.271529 237.148605 
L 745.997191 212.496012 
L 746.572412 206.793939 
L 747.147632 204.004545 
L 747.722853 204.417084 
L 748.298074 207.438811 
L 749.448515 216.179047 
L 750.023736 219.392151 
L 750.598956 220.850543 
L 751.174177 220.506583 
L 751.749398 218.820098 
L 752.899839 214.252434 
L 753.47506 212.610825 
L 754.05028 211.886935 
L 754.625501 212.122067 
L 755.200722 213.099185 
L 756.351163 215.767741 
L 756.926384 216.795255 
L 757.501604 217.298548 
L 758.076825 217.2471 
L 758.652046 216.748667 
L 759.802487 215.307569 
L 760.377708 214.790055 
L 760.952928 214.57656 
L 761.528149 214.645284 
L 763.829032 215.602554 
L 764.979473 215.673431 
L 766.129914 215.695669 
L 767.280356 215.966328 
L 769.006018 216.514559 
L 769.581238 216.512905 
L 770.156459 216.355887 
L 771.3069 215.685308 
L 772.457342 215.081526 
L 773.032562 215.040638 
L 773.607783 215.25496 
L 774.183004 215.741348 
L 775.333445 217.296106 
L 776.483886 218.802054 
L 777.059107 219.157333 
L 777.634328 219.055893 
L 778.209548 218.402805 
L 778.784769 217.164977 
L 779.35999 215.394103 
L 781.085652 209.068437 
L 781.660872 207.981139 
L 782.236093 208.471709 
L 782.811314 211.351729 
L 783.386534 216.966975 
L 783.961755 223.985657 
L 784.536976 228.931899 
L 785.112196 229.605824 
L 785.687417 228.514217 
L 786.262638 230.374647 
L 786.837858 237.405126 
L 787.413079 247.326154 
L 787.9883 255.080046 
L 788.56352 256.032271 
L 789.138741 248.329071 
L 789.713962 233.567636 
L 790.864403 199.80192 
L 791.439624 189.018469 
L 792.014844 184.963194 
L 792.590065 187.281295 
L 793.165286 194.318308 
L 794.315727 212.971281 
L 794.890948 219.997479 
L 795.466168 223.497311 
L 796.041389 223.206083 
L 796.61661 219.812084 
L 797.767051 209.570452 
L 798.342272 205.772765 
L 798.917492 204.152963 
L 799.492713 204.841484 
L 800.067934 207.324591 
L 801.218375 213.990226 
L 801.793596 216.354349 
L 802.368816 217.32503 
L 802.944037 216.840605 
L 803.519258 215.246609 
L 804.669699 211.108589 
L 805.24492 209.690928 
L 805.82014 209.162501 
L 806.395361 209.527497 
L 806.970582 210.612487 
L 808.696244 214.749324 
L 809.271464 215.384312 
L 809.846685 215.42538 
L 810.421906 214.958325 
L 812.147568 212.535328 
L 812.722788 212.052673 
L 813.298009 211.91236 
L 813.87323 212.106457 
L 814.44845 212.564308 
L 816.749333 215.043187 
L 817.324554 215.438897 
L 817.899774 215.666564 
L 818.474995 215.726154 
L 819.050216 215.620515 
L 819.625437 215.335732 
L 820.200657 214.870706 
L 821.351099 213.50095 
L 822.50154 212.194321 
L 823.076761 211.999506 
L 823.651981 212.412684 
L 824.227202 213.654432 
L 824.802423 215.889797 
L 825.377643 219.17091 
L 826.528085 227.462182 
L 827.103305 230.192218 
L 827.678526 228.906228 
L 828.253747 221.875748 
L 828.828967 212.73783 
L 829.404188 210.814164 
L 829.979409 222.593138 
L 831.12985 268.528013 
L 831.705071 281.701155 
L 832.280291 278.578969 
L 832.855512 259.707211 
L 834.581174 177.369072 
L 835.156395 164.281375 
L 835.731615 162.709161 
L 836.306836 170.930686 
L 838.032498 216.829076 
L 838.607719 226.292405 
L 839.182939 229.138515 
L 839.75816 225.765878 
L 840.333381 218.098964 
L 841.483822 200.995931 
L 842.059043 196.246992 
L 842.634263 195.428681 
L 843.209484 198.140553 
L 844.935146 213.357523 
L 845.510367 216.021645 
L 846.085587 216.317891 
L 846.660808 214.533044 
L 848.38647 205.468609 
L 848.961691 204.14212 
L 849.536911 204.346976 
L 850.112132 205.853484 
L 851.837794 212.391304 
L 852.413015 213.377109 
L 852.988235 213.353783 
L 853.563456 212.474836 
L 855.289118 208.485425 
L 855.864339 207.929752 
L 856.439559 208.053518 
L 857.01478 208.782121 
L 859.315663 213.056508 
L 859.890883 213.376498 
L 860.466104 213.250341 
L 861.041325 212.767486 
L 863.342207 210.104393 
L 863.917428 209.896988 
L 864.492649 210.024647 
L 865.067869 210.501765 
L 865.64309 211.324047 
L 866.793531 213.816537 
L 867.943973 216.708187 
L 868.519193 217.819867 
L 869.094414 218.262154 
L 869.669635 217.577437 
L 870.244855 215.198716 
L 870.820076 210.406871 
L 871.395297 202.560592 
L 872.545738 179.904215 
L 873.120959 173.309581 
L 873.696179 178.398541 
L 874.2714 195.328176 
L 875.421841 236.726104 
L 875.997062 247.686285 
L 876.572283 248.90314 
L 877.147503 241.967837 
L 878.873165 205.390207 
L 879.448386 197.265572 
L 880.023607 193.499116 
L 880.598827 194.285548 
L 881.174048 198.836303 
L 882.89971 217.697172 
L 883.474931 220.360807 
L 884.050151 220.172401 
L 884.625372 217.707811 
L 885.775813 210.39 
L 886.351034 207.659839 
L 886.926255 206.389696 
L 887.501475 206.651917 
L 888.076696 208.143643 
L 889.802358 214.252851 
L 890.377579 215.160251 
L 890.952799 215.181056 
L 891.52802 214.487543 
L 892.678461 212.301405 
L 893.253682 211.489646 
L 893.828903 211.151831 
L 894.404123 211.295277 
L 894.979344 211.786731 
L 896.129785 213.021468 
L 896.705006 213.418359 
L 897.280227 213.562448 
L 897.855447 213.469232 
L 899.005889 212.980845 
L 899.581109 212.873992 
L 900.15633 212.943998 
L 901.306771 213.542898 
L 902.457213 214.259115 
L 903.032433 214.41592 
L 903.607654 214.33628 
L 904.182875 214.020577 
L 905.908537 212.60514 
L 906.483757 212.450435 
L 907.058978 212.636686 
L 907.634199 213.16806 
L 908.78464 214.890709 
L 909.935082 216.576572 
L 910.510302 216.988869 
L 911.085523 216.911296 
L 911.660744 216.24845 
L 912.235964 214.968056 
L 912.811185 213.114179 
L 914.536847 206.150458 
L 915.112068 204.697932 
L 915.687288 204.791765 
L 916.262509 207.313933 
L 916.83773 212.793124 
L 917.41295 220.0301 
L 917.988171 225.231334 
L 918.563392 225.272435 
L 919.138612 221.694339 
L 919.713833 219.047056 
L 920.289054 220.567377 
L 921.439495 231.881341 
L 922.014716 234.764474 
L 922.589936 232.482424 
L 923.165157 225.267709 
L 924.315598 205.712805 
L 924.890819 198.722639 
L 925.46604 195.501013 
L 926.04126 196.057381 
L 926.616481 199.605729 
L 928.342143 215.112537 
L 928.917364 217.801105 
L 929.492584 218.219278 
L 930.067805 216.617098 
L 931.793467 208.087112 
L 932.368688 206.844493 
L 932.943908 207.03883 
L 933.519129 208.406513 
L 935.244791 214.2256 
L 935.820012 215.079719 
L 936.395232 214.987864 
L 936.970453 214.078378 
L 938.696115 210.067092 
L 939.271336 209.511187 
L 939.846556 209.631385 
L 940.421777 210.313632 
L 942.147439 213.388962 
L 942.72266 213.954862 
L 943.29788 214.089536 
L 943.873101 213.841114 
L 945.023542 212.728526 
L 946.173984 211.709539 
L 946.749204 211.461288 
L 947.324425 211.441122 
L 947.899646 211.637795 
L 949.050087 212.46194 
L 950.775749 213.87304 
L 951.35097 214.138199 
L 951.92619 214.236605 
L 952.501411 214.137388 
L 953.076632 213.820318 
L 953.651852 213.298091 
L 955.952735 210.496598 
L 956.527956 210.232904 
L 957.103176 210.466535 
L 957.678397 211.34881 
L 958.253618 212.964377 
L 958.828838 215.304292 
L 960.5545 223.996407 
L 961.129721 224.899608 
L 961.704942 222.35149 
L 962.280162 215.092484 
L 962.855383 205.392431 
L 963.430604 200.034485 
L 964.005824 204.402905 
L 965.156266 229.969893 
L 965.731486 236.910804 
L 966.306707 234.447251 
L 966.881928 224.031299 
L 968.032369 197.573157 
L 968.60759 190.102476 
L 969.18281 188.760603 
L 969.758031 192.601105 
L 970.908472 208.1347 
L 971.483693 215.778533 
L 972.058914 221.108269 
L 972.634134 223.225313 
L 973.209355 222.094598 
L 973.784576 218.472459 
L 974.935017 209.155319 
L 975.510238 206.087069 
L 976.085458 205.041104 
L 976.660679 205.968446 
L 977.2359 208.303042 
L 978.386341 213.872308 
L 978.961562 215.581902 
L 979.536782 216.053409 
L 980.112003 215.343081 
L 981.837665 210.437041 
L 982.412886 209.526154 
L 982.988106 209.410728 
L 983.563327 210.058102 
L 985.288989 213.557254 
L 985.86421 214.17007 
L 986.43943 214.231939 
L 987.014651 213.752689 
L 988.740313 211.190935 
L 989.315534 210.750516 
L 989.890754 210.736601 
L 990.465975 211.123339 
L 992.766858 213.754557 
L 993.342078 213.988753 
L 993.917299 213.914651 
L 994.49252 213.56356 
L 995.642961 212.374636 
L 996.218182 211.734199 
L 996.218182 211.734199 
" style="fill:none;stroke:#4c72b0;stroke-linecap:round;stroke-width:1.4;"/>
   </g>
   <g id="patch_3">
    <path d="M 144 320.4 
L 144 43.2 
" style="fill:none;"/>
   </g>
   <g id="patch_4">
    <path d="M 1036.8 320.4 
L 1036.8 43.2 
" style="fill:none;"/>
   </g>
   <g id="patch_5">
    <path d="M 144 320.4 
L 1036.8 320.4 
" style="fill:none;"/>
   </g>
   <g id="patch_6">
    <path d="M 144 43.2 
L 1036.8 43.2 
" style="fill:none;"/>
   </g>
  </g>
 </g>
 <defs>
  <clipPath id="p6bdcdde52b">
   <rect height="277.2" width="892.8" x="144" y="43.2"/>
  </clipPath>
 </defs>
</svg>
