<?xml version="1.0" encoding="utf-8" standalone="no"?>
<!DOCTYPE svg PUBLIC "-//W3C//DTD SVG 1.1//EN"
  "http://www.w3.org/Graphics/SVG/1.1/DTD/svg11.dtd">
<!-- Created with matplotlib (http://matplotlib.org/) -->
<svg height="396pt" version="1.1" viewBox="0 0 576 396" width="576pt" xmlns="http://www.w3.org/2000/svg" xmlns:xlink="http://www.w3.org/1999/xlink">
 <defs>
  <style type="text/css">
*{stroke-linecap:butt;stroke-linejoin:round;}
  </style>
 </defs>
 <g id="figure_1">
  <g id="patch_1">
   <path d="M 0 396 
L 576 396 
L 576 0 
L 0 0 
z
" style="fill:#ffffff;"/>
  </g>
  <g id="axes_1">
   <g id="patch_2">
    <path d="M 72 352.44 
L 518.4 352.44 
L 518.4 47.52 
L 72 47.52 
z
" style="fill:#eaeaf2;"/>
   </g>
   <g id="matplotlib.axis_1">
    <g id="xtick_1">
     <g id="line2d_1">
      <path clip-path="url(#p3b95d9e1a2)" d="M 92.290909 352.44 
L 92.290909 47.52 
" style="fill:none;stroke:#ffffff;stroke-linecap:round;"/>
     </g>
     <g id="line2d_2"/>
     <g id="text_1">
      <!-- 0 -->
      <defs>
       <path d="M 51.703125 34.421875 
Q 51.703125 24.515625 49.828125 17.75 
Q 47.953125 10.984375 44.703125 6.8125 
Q 41.453125 2.640625 37.0625 0.828125 
Q 32.671875 -0.984375 27.6875 -0.984375 
Q 22.65625 -0.984375 18.3125 0.828125 
Q 13.96875 2.640625 10.765625 6.78125 
Q 7.5625 10.9375 5.734375 17.703125 
Q 3.90625 24.46875 3.90625 34.421875 
Q 3.90625 44.828125 5.734375 51.640625 
Q 7.5625 58.453125 10.78125 62.5 
Q 14.015625 66.546875 18.40625 68.1875 
Q 22.796875 69.828125 27.984375 69.828125 
Q 32.90625 69.828125 37.21875 68.1875 
Q 41.546875 66.546875 44.765625 62.5 
Q 48 58.453125 49.84375 51.640625 
Q 51.703125 44.828125 51.703125 34.421875 
M 42.78125 34.421875 
Q 42.78125 42.625 41.796875 48.0625 
Q 40.828125 53.515625 38.921875 56.765625 
Q 37.015625 60.015625 34.25 61.359375 
Q 31.5 62.703125 27.984375 62.703125 
Q 24.265625 62.703125 21.4375 61.328125 
Q 18.609375 59.96875 16.671875 56.71875 
Q 14.75 53.46875 13.765625 48.015625 
Q 12.796875 42.578125 12.796875 34.421875 
Q 12.796875 26.515625 13.796875 21.09375 
Q 14.796875 15.671875 16.71875 12.375 
Q 18.65625 9.078125 21.4375 7.640625 
Q 24.21875 6.203125 27.78125 6.203125 
Q 31.25 6.203125 34.03125 7.640625 
Q 36.8125 9.078125 38.734375 12.375 
Q 40.671875 15.671875 41.71875 21.09375 
Q 42.78125 26.515625 42.78125 34.421875 
" id="LiberationSans-30"/>
      </defs>
      <g style="fill:#262626;" transform="translate(89.51044 366.686875)scale(0.1 -0.1)">
       <use xlink:href="#LiberationSans-30"/>
      </g>
     </g>
    </g>
    <g id="xtick_2">
     <g id="line2d_3">
      <path clip-path="url(#p3b95d9e1a2)" d="M 188.639005 352.44 
L 188.639005 47.52 
" style="fill:none;stroke:#ffffff;stroke-linecap:round;"/>
     </g>
     <g id="line2d_4"/>
     <g id="text_2">
      <!-- 500 -->
      <defs>
       <path d="M 51.421875 22.40625 
Q 51.421875 17.234375 49.859375 12.9375 
Q 48.296875 8.640625 45.21875 5.53125 
Q 42.140625 2.4375 37.578125 0.71875 
Q 33.015625 -0.984375 27 -0.984375 
Q 21.578125 -0.984375 17.546875 0.28125 
Q 13.53125 1.5625 10.734375 3.78125 
Q 7.953125 6 6.3125 8.984375 
Q 4.6875 11.96875 4 15.375 
L 12.890625 16.40625 
Q 13.421875 14.453125 14.390625 12.625 
Q 15.375 10.796875 17.0625 9.34375 
Q 18.75 7.90625 21.21875 7.046875 
Q 23.6875 6.203125 27.203125 6.203125 
Q 30.609375 6.203125 33.390625 7.25 
Q 36.1875 8.296875 38.15625 10.34375 
Q 40.140625 12.40625 41.203125 15.375 
Q 42.28125 18.359375 42.28125 22.21875 
Q 42.28125 25.390625 41.25 28.046875 
Q 40.234375 30.71875 38.328125 32.640625 
Q 36.421875 34.578125 33.65625 35.640625 
Q 30.90625 36.71875 27.390625 36.71875 
Q 25.203125 36.71875 23.34375 36.328125 
Q 21.484375 35.9375 19.890625 35.25 
Q 18.3125 34.578125 17.015625 33.671875 
Q 15.71875 32.765625 14.59375 31.78125 
L 6 31.78125 
L 8.296875 68.796875 
L 47.40625 68.796875 
L 47.40625 61.328125 
L 16.3125 61.328125 
L 14.984375 39.5 
Q 17.328125 41.3125 20.84375 42.59375 
Q 24.359375 43.890625 29.203125 43.890625 
Q 34.328125 43.890625 38.421875 42.328125 
Q 42.53125 40.765625 45.40625 37.90625 
Q 48.296875 35.0625 49.859375 31.109375 
Q 51.421875 27.15625 51.421875 22.40625 
" id="LiberationSans-35"/>
      </defs>
      <g style="fill:#262626;" transform="translate(180.297599 366.686875)scale(0.1 -0.1)">
       <use xlink:href="#LiberationSans-35"/>
       <use x="55.615234" xlink:href="#LiberationSans-30"/>
       <use x="111.230469" xlink:href="#LiberationSans-30"/>
      </g>
     </g>
    </g>
    <g id="xtick_3">
     <g id="line2d_5">
      <path clip-path="url(#p3b95d9e1a2)" d="M 284.987102 352.44 
L 284.987102 47.52 
" style="fill:none;stroke:#ffffff;stroke-linecap:round;"/>
     </g>
     <g id="line2d_6"/>
     <g id="text_3">
      <!-- 1000 -->
      <defs>
       <path d="M 7.625 0 
L 7.625 7.46875 
L 25.140625 7.46875 
L 25.140625 60.40625 
L 9.625 49.3125 
L 9.625 57.625 
L 25.875 68.796875 
L 33.984375 68.796875 
L 33.984375 7.46875 
L 50.734375 7.46875 
L 50.734375 0 
z
" id="LiberationSans-31"/>
      </defs>
      <g style="fill:#262626;" transform="translate(273.865227 366.686875)scale(0.1 -0.1)">
       <use xlink:href="#LiberationSans-31"/>
       <use x="55.615234" xlink:href="#LiberationSans-30"/>
       <use x="111.230469" xlink:href="#LiberationSans-30"/>
       <use x="166.845703" xlink:href="#LiberationSans-30"/>
      </g>
     </g>
    </g>
    <g id="xtick_4">
     <g id="line2d_7">
      <path clip-path="url(#p3b95d9e1a2)" d="M 381.335198 352.44 
L 381.335198 47.52 
" style="fill:none;stroke:#ffffff;stroke-linecap:round;"/>
     </g>
     <g id="line2d_8"/>
     <g id="text_4">
      <!-- 1500 -->
      <g style="fill:#262626;" transform="translate(370.213323 366.686875)scale(0.1 -0.1)">
       <use xlink:href="#LiberationSans-31"/>
       <use x="55.615234" xlink:href="#LiberationSans-35"/>
       <use x="111.230469" xlink:href="#LiberationSans-30"/>
       <use x="166.845703" xlink:href="#LiberationSans-30"/>
      </g>
     </g>
    </g>
    <g id="xtick_5">
     <g id="line2d_9">
      <path clip-path="url(#p3b95d9e1a2)" d="M 477.683294 352.44 
L 477.683294 47.52 
" style="fill:none;stroke:#ffffff;stroke-linecap:round;"/>
     </g>
     <g id="line2d_10"/>
     <g id="text_5">
      <!-- 2000 -->
      <defs>
       <path d="M 5.03125 0 
L 5.03125 6.203125 
Q 7.515625 11.921875 11.109375 16.28125 
Q 14.703125 20.65625 18.65625 24.1875 
Q 22.609375 27.734375 26.484375 30.765625 
Q 30.375 33.796875 33.5 36.8125 
Q 36.625 39.84375 38.546875 43.15625 
Q 40.484375 46.484375 40.484375 50.6875 
Q 40.484375 53.609375 39.59375 55.828125 
Q 38.71875 58.0625 37.0625 59.5625 
Q 35.40625 61.078125 33.078125 61.828125 
Q 30.765625 62.59375 27.9375 62.59375 
Q 25.296875 62.59375 22.96875 61.859375 
Q 20.65625 61.140625 18.84375 59.671875 
Q 17.046875 58.203125 15.890625 56.03125 
Q 14.75 53.859375 14.40625 50.984375 
L 5.421875 51.8125 
Q 5.859375 55.515625 7.46875 58.78125 
Q 9.078125 62.0625 11.90625 64.53125 
Q 14.75 67 18.71875 68.40625 
Q 22.703125 69.828125 27.9375 69.828125 
Q 33.0625 69.828125 37.0625 68.609375 
Q 41.0625 67.390625 43.8125 64.984375 
Q 46.578125 62.59375 48.046875 59.078125 
Q 49.515625 55.5625 49.515625 50.984375 
Q 49.515625 47.515625 48.265625 44.390625 
Q 47.015625 41.265625 44.9375 38.421875 
Q 42.875 35.59375 40.140625 32.953125 
Q 37.40625 30.328125 34.421875 27.8125 
Q 31.453125 25.296875 28.421875 22.828125 
Q 25.390625 20.359375 22.71875 17.859375 
Q 20.0625 15.375 17.96875 12.8125 
Q 15.875 10.25 14.703125 7.46875 
L 50.59375 7.46875 
L 50.59375 0 
z
" id="LiberationSans-32"/>
      </defs>
      <g style="fill:#262626;" transform="translate(466.561419 366.686875)scale(0.1 -0.1)">
       <use xlink:href="#LiberationSans-32"/>
       <use x="55.615234" xlink:href="#LiberationSans-30"/>
       <use x="111.230469" xlink:href="#LiberationSans-30"/>
       <use x="166.845703" xlink:href="#LiberationSans-30"/>
      </g>
     </g>
    </g>
   </g>
   <g id="matplotlib.axis_2">
    <g id="ytick_1">
     <g id="line2d_11">
      <path clip-path="url(#p3b95d9e1a2)" d="M 72 338.205817 
L 518.4 338.205817 
" style="fill:none;stroke:#ffffff;stroke-linecap:round;"/>
     </g>
     <g id="line2d_12"/>
     <g id="text_6">
      <!-- 0 -->
      <g style="fill:#262626;" transform="translate(59.439062 341.829255)scale(0.1 -0.1)">
       <use xlink:href="#LiberationSans-30"/>
      </g>
     </g>
    </g>
    <g id="ytick_2">
     <g id="line2d_13">
      <path clip-path="url(#p3b95d9e1a2)" d="M 72 284.751124 
L 518.4 284.751124 
" style="fill:none;stroke:#ffffff;stroke-linecap:round;"/>
     </g>
     <g id="line2d_14"/>
     <g id="text_7">
      <!-- 2 -->
      <g style="fill:#262626;" transform="translate(59.439062 288.374562)scale(0.1 -0.1)">
       <use xlink:href="#LiberationSans-32"/>
      </g>
     </g>
    </g>
    <g id="ytick_3">
     <g id="line2d_15">
      <path clip-path="url(#p3b95d9e1a2)" d="M 72 231.296432 
L 518.4 231.296432 
" style="fill:none;stroke:#ffffff;stroke-linecap:round;"/>
     </g>
     <g id="line2d_16"/>
     <g id="text_8">
      <!-- 4 -->
      <defs>
       <path d="M 43.015625 15.578125 
L 43.015625 0 
L 34.71875 0 
L 34.71875 15.578125 
L 2.296875 15.578125 
L 2.296875 22.40625 
L 33.796875 68.796875 
L 43.015625 68.796875 
L 43.015625 22.515625 
L 52.6875 22.515625 
L 52.6875 15.578125 
z
M 34.71875 58.890625 
Q 34.625 58.640625 34.234375 57.9375 
Q 33.84375 57.234375 33.34375 56.34375 
Q 32.859375 55.46875 32.34375 54.5625 
Q 31.84375 53.65625 31.453125 53.078125 
L 13.8125 27.09375 
Q 13.578125 26.703125 13.109375 26.0625 
Q 12.640625 25.4375 12.15625 24.78125 
Q 11.671875 24.125 11.171875 23.484375 
Q 10.6875 22.859375 10.40625 22.515625 
L 34.71875 22.515625 
z
" id="LiberationSans-34"/>
      </defs>
      <g style="fill:#262626;" transform="translate(59.439062 234.919869)scale(0.1 -0.1)">
       <use xlink:href="#LiberationSans-34"/>
      </g>
     </g>
    </g>
    <g id="ytick_4">
     <g id="line2d_17">
      <path clip-path="url(#p3b95d9e1a2)" d="M 72 177.841739 
L 518.4 177.841739 
" style="fill:none;stroke:#ffffff;stroke-linecap:round;"/>
     </g>
     <g id="line2d_18"/>
     <g id="text_9">
      <!-- 6 -->
      <defs>
       <path d="M 51.21875 22.515625 
Q 51.21875 17.328125 49.78125 13 
Q 48.34375 8.6875 45.53125 5.578125 
Q 42.71875 2.484375 38.5625 0.75 
Q 34.421875 -0.984375 29 -0.984375 
Q 23 -0.984375 18.5 1.3125 
Q 14.015625 3.609375 11.03125 7.921875 
Q 8.0625 12.25 6.5625 18.53125 
Q 5.078125 24.8125 5.078125 32.8125 
Q 5.078125 42 6.765625 48.921875 
Q 8.453125 55.859375 11.625 60.5 
Q 14.796875 65.140625 19.359375 67.484375 
Q 23.921875 69.828125 29.6875 69.828125 
Q 33.203125 69.828125 36.28125 69.09375 
Q 39.359375 68.359375 41.875 66.71875 
Q 44.390625 65.09375 46.28125 62.40625 
Q 48.1875 59.71875 49.3125 55.8125 
L 40.921875 54.296875 
Q 39.546875 58.734375 36.546875 60.71875 
Q 33.546875 62.703125 29.59375 62.703125 
Q 25.984375 62.703125 23.046875 60.984375 
Q 20.125 59.28125 18.0625 55.875 
Q 16.015625 52.484375 14.90625 47.359375 
Q 13.8125 42.234375 13.8125 35.40625 
Q 16.21875 39.84375 20.5625 42.15625 
Q 24.90625 44.484375 30.515625 44.484375 
Q 35.203125 44.484375 39.015625 42.96875 
Q 42.828125 41.453125 45.53125 38.59375 
Q 48.25 35.75 49.734375 31.671875 
Q 51.21875 27.59375 51.21875 22.515625 
M 42.28125 22.125 
Q 42.28125 25.6875 41.40625 28.5625 
Q 40.53125 31.453125 38.765625 33.46875 
Q 37.015625 35.5 34.421875 36.59375 
Q 31.84375 37.703125 28.421875 37.703125 
Q 26.03125 37.703125 23.578125 36.984375 
Q 21.140625 36.28125 19.15625 34.6875 
Q 17.1875 33.109375 15.9375 30.515625 
Q 14.703125 27.9375 14.703125 24.21875 
Q 14.703125 20.40625 15.671875 17.109375 
Q 16.65625 13.8125 18.484375 11.375 
Q 20.3125 8.9375 22.890625 7.515625 
Q 25.484375 6.109375 28.71875 6.109375 
Q 31.890625 6.109375 34.40625 7.203125 
Q 36.921875 8.296875 38.671875 10.375 
Q 40.4375 12.453125 41.359375 15.421875 
Q 42.28125 18.40625 42.28125 22.125 
" id="LiberationSans-36"/>
      </defs>
      <g style="fill:#262626;" transform="translate(59.439062 181.465177)scale(0.1 -0.1)">
       <use xlink:href="#LiberationSans-36"/>
      </g>
     </g>
    </g>
    <g id="ytick_5">
     <g id="line2d_19">
      <path clip-path="url(#p3b95d9e1a2)" d="M 72 124.387046 
L 518.4 124.387046 
" style="fill:none;stroke:#ffffff;stroke-linecap:round;"/>
     </g>
     <g id="line2d_20"/>
     <g id="text_10">
      <!-- 8 -->
      <defs>
       <path d="M 51.265625 19.1875 
Q 51.265625 14.796875 49.875 11.109375 
Q 48.484375 7.421875 45.625 4.734375 
Q 42.78125 2.046875 38.328125 0.53125 
Q 33.890625 -0.984375 27.828125 -0.984375 
Q 21.78125 -0.984375 17.359375 0.53125 
Q 12.9375 2.046875 10.03125 4.703125 
Q 7.125 7.375 5.734375 11.0625 
Q 4.34375 14.75 4.34375 19.09375 
Q 4.34375 22.859375 5.484375 25.78125 
Q 6.640625 28.71875 8.5625 30.828125 
Q 10.5 32.953125 12.96875 34.25 
Q 15.4375 35.546875 18.0625 35.984375 
L 18.0625 36.1875 
Q 15.1875 36.859375 12.90625 38.375 
Q 10.640625 39.890625 9.09375 42.015625 
Q 7.5625 44.140625 6.75 46.71875 
Q 5.953125 49.3125 5.953125 52.203125 
Q 5.953125 55.8125 7.34375 59 
Q 8.734375 62.203125 11.46875 64.625 
Q 14.203125 67.046875 18.25 68.4375 
Q 22.3125 69.828125 27.640625 69.828125 
Q 33.25 69.828125 37.375 68.40625 
Q 41.5 67 44.203125 64.578125 
Q 46.921875 62.15625 48.234375 58.9375 
Q 49.5625 55.71875 49.5625 52.09375 
Q 49.5625 49.265625 48.75 46.671875 
Q 47.953125 44.09375 46.40625 41.96875 
Q 44.875 39.84375 42.59375 38.34375 
Q 40.328125 36.859375 37.359375 36.28125 
L 37.359375 36.078125 
Q 40.328125 35.59375 42.859375 34.296875 
Q 45.40625 33.015625 47.265625 30.890625 
Q 49.125 28.765625 50.1875 25.828125 
Q 51.265625 22.90625 51.265625 19.1875 
M 40.4375 51.609375 
Q 40.4375 54.203125 39.765625 56.34375 
Q 39.109375 58.5 37.59375 60.03125 
Q 36.078125 61.578125 33.640625 62.421875 
Q 31.203125 63.28125 27.640625 63.28125 
Q 24.171875 63.28125 21.78125 62.421875 
Q 19.390625 61.578125 17.84375 60.03125 
Q 16.3125 58.5 15.625 56.34375 
Q 14.9375 54.203125 14.9375 51.609375 
Q 14.9375 49.5625 15.46875 47.40625 
Q 16.015625 45.265625 17.421875 43.5 
Q 18.84375 41.75 21.328125 40.625 
Q 23.828125 39.5 27.734375 39.5 
Q 31.890625 39.5 34.40625 40.625 
Q 36.921875 41.75 38.25 43.5 
Q 39.59375 45.265625 40.015625 47.40625 
Q 40.4375 49.5625 40.4375 51.609375 
M 42.140625 20.015625 
Q 42.140625 22.515625 41.453125 24.828125 
Q 40.765625 27.15625 39.109375 28.9375 
Q 37.453125 30.71875 34.640625 31.8125 
Q 31.84375 32.90625 27.640625 32.90625 
Q 23.78125 32.90625 21.0625 31.8125 
Q 18.359375 30.71875 16.671875 28.90625 
Q 14.984375 27.09375 14.203125 24.71875 
Q 13.421875 22.359375 13.421875 19.828125 
Q 13.421875 16.65625 14.203125 14.03125 
Q 14.984375 11.421875 16.6875 9.546875 
Q 18.40625 7.671875 21.1875 6.640625 
Q 23.96875 5.609375 27.9375 5.609375 
Q 31.9375 5.609375 34.671875 6.640625 
Q 37.40625 7.671875 39.0625 9.546875 
Q 40.71875 11.421875 41.421875 14.078125 
Q 42.140625 16.75 42.140625 20.015625 
" id="LiberationSans-38"/>
      </defs>
      <g style="fill:#262626;" transform="translate(59.439062 128.010484)scale(0.1 -0.1)">
       <use xlink:href="#LiberationSans-38"/>
      </g>
     </g>
    </g>
    <g id="ytick_6">
     <g id="line2d_21">
      <path clip-path="url(#p3b95d9e1a2)" d="M 72 70.932354 
L 518.4 70.932354 
" style="fill:none;stroke:#ffffff;stroke-linecap:round;"/>
     </g>
     <g id="line2d_22"/>
     <g id="text_11">
      <!-- 10 -->
      <g style="fill:#262626;" transform="translate(53.878125 74.555791)scale(0.1 -0.1)">
       <use xlink:href="#LiberationSans-31"/>
       <use x="55.615234" xlink:href="#LiberationSans-30"/>
      </g>
     </g>
    </g>
   </g>
   <g id="line2d_23">
    <path clip-path="url(#p3b95d9e1a2)" d="M 92.290909 338.030838 
L 93.25439 336.686041 
L 93.639782 336.116642 
L 94.025175 336.017214 
L 94.410567 335.369939 
L 95.181352 333.730029 
L 95.566744 333.478551 
L 95.952137 333.3327 
L 96.337529 333.041158 
L 96.530225 333.02873 
L 97.108314 333.208498 
L 97.493706 332.941278 
L 97.686402 332.979605 
L 97.879099 332.620978 
L 98.264491 331.053419 
L 99.035276 327.06495 
L 99.420668 326.316478 
L 100.191453 325.130666 
L 100.384149 325.162551 
L 100.769542 325.552343 
L 101.34763 325.473791 
L 101.733023 325.849605 
L 102.118415 326.007937 
L 103.081896 326.742298 
L 103.467288 326.342751 
L 104.238073 324.77423 
L 104.816162 323.047403 
L 105.39425 321.542707 
L 105.779643 321.251138 
L 105.972339 321.332843 
L 106.357731 321.867604 
L 106.550427 321.853385 
L 106.743124 321.494357 
L 107.706605 318.687852 
L 107.899301 318.611919 
L 108.091997 318.796552 
L 108.477389 319.438008 
L 109.055478 319.59308 
L 109.44087 320.161598 
L 110.211655 321.113546 
L 110.597047 321.726056 
L 110.98244 321.961631 
L 111.367832 321.912212 
L 111.560528 321.790335 
L 111.753225 321.469848 
L 112.138617 320.025849 
L 112.524009 318.712227 
L 112.909402 318.405504 
L 113.48749 318.193743 
L 113.680186 318.304448 
L 114.258275 319.076868 
L 114.450971 318.881919 
L 115.02906 317.478145 
L 115.414452 315.917509 
L 115.799845 314.246382 
L 116.185237 313.625318 
L 116.570629 313.68639 
L 116.956022 313.768817 
L 117.53411 313.337331 
L 118.882984 315.976149 
L 119.07568 316.033506 
L 119.461072 315.506496 
L 121.002642 312.180171 
L 121.195338 312.008634 
L 121.388034 312.167529 
L 122.351515 314.19878 
L 122.544211 313.993968 
L 123.700389 311.300734 
L 123.893085 311.220819 
L 126.012743 314.881236 
L 126.205439 314.938566 
L 126.398135 314.729158 
L 126.783528 313.263056 
L 127.361616 310.692687 
L 127.939705 308.877365 
L 128.132401 308.817229 
L 128.517793 309.867614 
L 129.095882 311.56015 
L 129.288578 311.682962 
L 129.481274 311.324789 
L 130.444755 308.394937 
L 131.408236 306.448651 
L 131.986325 306.715658 
L 132.179021 306.657125 
L 132.371717 306.849027 
L 132.564413 307.552224 
L 132.75711 307.721675 
L 133.142502 307.338672 
L 133.527894 306.526963 
L 134.298679 303.447438 
L 134.491375 303.341597 
L 134.876768 304.145022 
L 135.647552 306.035447 
L 136.225641 305.313274 
L 136.611033 305.270243 
L 136.996426 304.846347 
L 137.189122 304.944704 
L 137.574514 306.1763 
L 137.959907 307.195681 
L 138.152603 307.27319 
L 138.537995 307.168419 
L 138.730692 307.360321 
L 139.116084 308.352173 
L 139.30878 308.448124 
L 139.501476 308.181653 
L 139.694172 307.513736 
L 140.464957 303.0051 
L 140.657653 303.115217 
L 141.043046 304.3853 
L 141.813831 306.206502 
L 142.006527 306.237238 
L 142.391919 305.972103 
L 143.162704 305.027558 
L 143.548096 305.605136 
L 144.704274 308.487413 
L 145.282362 309.903161 
L 145.475058 309.580562 
L 145.860451 307.703233 
L 146.245843 305.693337 
L 146.438539 305.347218 
L 147.016628 306.257016 
L 147.40202 305.952325 
L 147.787413 305.186319 
L 148.172805 303.95793 
L 148.750894 301.54846 
L 148.94359 301.206082 
L 149.136286 301.261408 
L 149.328982 301.673277 
L 149.714375 302.800369 
L 149.907071 302.580135 
L 150.292463 300.820674 
L 150.677855 297.759057 
L 151.063248 294.149796 
L 151.255944 293.382454 
L 151.641336 294.229711 
L 152.026729 293.299064 
L 152.604817 291.16836 
L 153.182906 288.473442 
L 153.953691 286.517 
L 154.339083 285.328168 
L 154.531779 285.816209 
L 154.724476 286.677899 
L 154.917172 286.646628 
L 155.109868 285.876613 
L 155.49526 282.027608 
L 156.266045 270.881503 
L 156.458741 269.859983 
L 156.651437 270.100262 
L 157.03683 272.314623 
L 157.229526 272.617444 
L 157.422222 272.391598 
L 157.614918 271.429948 
L 158.578399 263.300558 
L 158.771096 263.048519 
L 158.963792 263.100103 
L 159.156488 263.422435 
L 159.54188 264.755595 
L 159.927273 267.023945 
L 160.312665 268.999096 
L 160.505361 268.576804 
L 160.698057 266.818144 
L 161.08345 259.113452 
L 161.468842 250.238904 
L 161.661538 247.558151 
L 161.854235 246.631514 
L 162.239627 248.728007 
L 162.432323 247.98365 
L 163.395804 238.0948 
L 163.5885 237.612104 
L 163.781197 238.110034 
L 164.166589 241.498794 
L 164.744678 246.583137 
L 164.937374 247.219516 
L 165.322766 247.579266 
L 165.708159 250.068383 
L 165.900855 249.720126 
L 166.093551 247.914961 
L 166.478943 240.541955 
L 167.057032 227.303366 
L 167.249728 226.072839 
L 167.63512 228.619955 
L 167.827817 227.555138 
L 168.598601 215.784147 
L 168.791298 215.627258 
L 168.983994 216.369209 
L 169.369386 219.196962 
L 170.140171 227.10104 
L 170.71826 229.067638 
L 170.910956 230.488464 
L 171.296348 233.930144 
L 171.489044 233.371543 
L 171.68174 231.128584 
L 172.259829 217.83948 
L 172.452525 214.045266 
L 172.645221 212.609206 
L 172.837918 214.35958 
L 173.030614 214.982594 
L 173.22331 213.164867 
L 173.801399 205.74108 
L 173.994095 204.983092 
L 174.186791 204.911463 
L 174.379487 205.180607 
L 174.572183 205.810571 
L 174.76488 207.196918 
L 175.728361 219.063325 
L 176.113753 220.893881 
L 176.499145 221.548701 
L 176.691841 222.54082 
L 176.884538 224.9543 
L 177.077234 225.658031 
L 177.26993 224.232394 
L 177.655322 216.675504 
L 178.233411 203.999793 
L 178.426107 203.925491 
L 178.618803 206.408194 
L 178.8115 205.691099 
L 179.389588 199.576417 
L 179.774981 198.465629 
L 179.967677 198.236575 
L 180.160373 198.669558 
L 180.353069 200.262241 
L 180.931158 207.178476 
L 181.31655 210.421572 
L 181.701943 214.875952 
L 181.894639 215.607212 
L 182.087335 215.519814 
L 182.665423 213.691396 
L 182.85812 214.534376 
L 183.050816 216.320298 
L 183.243512 214.11155 
L 184.206993 186.835491 
L 184.592385 190.242693 
L 184.785082 189.666184 
L 185.555866 183.349711 
L 185.941259 181.479865 
L 186.133955 182.086042 
L 186.712044 188.914879 
L 187.290132 190.5685 
L 187.482828 192.499016 
L 187.868221 197.070461 
L 188.060917 197.204365 
L 188.639005 194.253666 
L 188.831702 194.638273 
L 189.024398 197.200891 
L 189.217094 198.080487 
L 189.40979 195.622908 
L 189.795183 182.709858 
L 190.180575 170.027465 
L 190.373271 168.431308 
L 190.758664 172.355149 
L 190.95136 171.283383 
L 191.529448 166.261582 
L 191.914841 165.227768 
L 192.107537 165.497981 
L 192.300233 166.966649 
L 192.878322 174.595703 
L 193.263714 177.21525 
L 193.841803 184.59761 
L 194.034499 184.812231 
L 194.419891 183.877576 
L 194.612587 183.73699 
L 194.805284 183.944394 
L 194.99798 184.6369 
L 195.190676 186.223168 
L 195.576068 190.922637 
L 195.768765 190.024063 
L 195.961461 186.390481 
L 196.732246 162.507726 
L 196.924942 161.527901 
L 197.310334 165.80588 
L 197.50303 164.406971 
L 198.081119 156.201408 
L 198.273815 155.667129 
L 198.466511 156.555011 
L 198.659207 158.77151 
L 199.622688 174.84694 
L 200.200777 180.219136 
L 200.586169 182.175578 
L 200.971562 183.494038 
L 201.356954 186.253102 
L 201.742347 191.333169 
L 202.320435 200.184999 
L 202.513131 202.105091 
L 202.705828 202.876977 
L 202.898524 202.265455 
L 203.09122 200.349639 
L 203.476612 193.279989 
L 204.247397 174.64595 
L 204.440093 174.482646 
L 204.632789 177.893323 
L 204.825486 177.246788 
L 205.59627 164.966909 
L 205.788967 164.079828 
L 205.981663 163.848637 
L 206.174359 164.19636 
L 206.367055 165.240062 
L 206.752448 169.93579 
L 207.13784 176.176091 
L 207.523232 180.720007 
L 208.486713 195.590835 
L 209.450194 204.924559 
L 209.64289 205.726647 
L 210.028283 206.172192 
L 210.220979 206.879932 
L 210.413675 208.267348 
L 210.799068 212.714779 
L 210.991764 213.334586 
L 211.18446 212.758612 
L 211.377156 211.348477 
L 211.569852 208.979899 
L 211.955245 199.500779 
L 212.918726 168.133832 
L 213.111422 169.972941 
L 213.304118 169.931246 
L 214.652991 141.376551 
L 214.845688 138.085613 
L 215.038384 136.967608 
L 215.23108 138.084811 
L 215.616472 144.698226 
L 215.809169 145.721349 
L 216.001865 145.107422 
L 216.387257 143.454335 
L 216.579953 143.652919 
L 216.77265 144.75569 
L 216.965346 147.028049 
L 217.543434 156.515455 
L 217.928827 159.381161 
L 218.699611 161.448521 
L 218.892308 162.146372 
L 219.085004 161.970773 
L 219.2777 161.159866 
L 219.470396 160.980793 
L 219.663092 162.881641 
L 219.855789 166.027985 
L 220.048485 166.436646 
L 220.241181 164.952744 
L 220.81927 158.37354 
L 221.204662 156.520266 
L 221.782751 154.498877 
L 221.975447 152.28906 
L 222.360839 141.597586 
L 222.553535 136.13612 
L 222.746232 135.302762 
L 222.938928 138.004095 
L 223.131624 133.785718 
L 223.709713 113.988505 
L 223.902409 111.882123 
L 224.095105 111.174383 
L 224.287801 110.945062 
L 224.480497 111.178659 
L 224.673193 112.526519 
L 225.443978 124.157191 
L 225.636674 125.594588 
L 226.022067 131.120734 
L 226.985548 148.692628 
L 227.563636 153.665518 
L 227.949029 159.150237 
L 228.334421 166.007672 
L 229.105206 174.83518 
L 229.490598 179.767979 
L 229.683294 180.582896 
L 229.875991 180.513137 
L 230.068687 179.971374 
L 230.261383 179.964959 
L 230.646775 184.130149 
L 230.839472 183.809421 
L 231.032168 182.671103 
L 231.224864 182.598939 
L 231.41756 184.320982 
L 231.995649 191.820943 
L 232.381041 193.493006 
L 232.573737 193.989333 
L 232.766434 193.926256 
L 232.95913 192.190582 
L 233.151826 187.517573 
L 233.729915 164.709257 
L 233.922611 165.670105 
L 234.115307 164.327591 
L 234.693395 144.820637 
L 234.886092 142.866601 
L 235.271484 141.295033 
L 235.46418 140.320287 
L 235.656876 140.513258 
L 235.849573 142.877025 
L 236.234965 149.736865 
L 236.620357 154.367913 
L 237.969231 178.021347 
L 238.161927 179.030037 
L 238.354623 179.299448 
L 238.547319 179.889321 
L 238.740016 181.55978 
L 239.125408 187.235065 
L 239.5108 189.91662 
L 240.281585 192.946164 
L 240.474281 193.626108 
L 240.666977 194.736896 
L 241.05237 198.806135 
L 241.245066 197.501573 
L 241.823155 187.745023 
L 242.208547 191.204343 
L 242.401243 191.191247 
L 243.172028 189.767214 
L 243.364724 191.23214 
L 243.55742 193.830572 
L 243.750117 194.273177 
L 243.942813 194.410556 
L 244.328205 197.951662 
L 244.520901 196.89219 
L 244.906294 189.463858 
L 245.291686 172.654763 
L 245.677078 150.104366 
L 245.869775 145.682327 
L 246.062471 149.66096 
L 246.255167 145.172369 
L 247.025952 113.174657 
L 247.411344 102.678561 
L 247.60404 100.72693 
L 247.796737 102.897458 
L 247.989433 107.340345 
L 248.374825 109.954012 
L 248.567521 111.183737 
L 248.952914 116.832562 
L 249.723699 132.475276 
L 249.916395 133.582857 
L 250.109091 133.696716 
L 250.301787 133.944745 
L 250.494483 135.22846 
L 251.072572 143.575677 
L 251.457964 150.671521 
L 251.65066 152.114263 
L 252.228749 153.275031 
L 252.806838 156.265554 
L 252.999534 158.295229 
L 253.19223 162.328385 
L 253.384926 163.601409 
L 253.577622 162.65927 
L 253.963015 160.230556 
L 254.155711 161.121646 
L 254.541103 166.867223 
L 254.926496 171.673602 
L 255.119192 172.402189 
L 255.311888 173.943288 
L 255.504584 177.320556 
L 255.69728 178.140551 
L 255.889977 178.407557 
L 256.468065 184.122665 
L 256.660761 184.587721 
L 256.853458 184.169706 
L 257.046154 181.592655 
L 257.431546 167.176993 
L 258.202331 123.731157 
L 258.587723 123.039721 
L 258.973116 99.215499 
L 259.358508 75.72323 
L 259.743901 66.770906 
L 259.936597 66.412759 
L 260.129293 69.163003 
L 260.321989 74.740199 
L 260.514685 76.551244 
L 260.900078 75.224765 
L 261.092774 76.114251 
L 261.28547 79.532412 
L 261.863559 94.023712 
L 262.248951 100.706617 
L 262.634343 104.129589 
L 263.019736 106.709579 
L 263.212432 108.61711 
L 263.597824 116.56021 
L 263.983217 121.617024 
L 264.175913 122.43889 
L 264.368609 122.53885 
L 264.754002 121.100919 
L 264.946698 120.510779 
L 265.139394 120.657512 
L 265.33209 121.776586 
L 265.524786 124.361655 
L 265.717483 128.948603 
L 265.910179 130.140909 
L 266.102875 128.369955 
L 266.488267 122.493948 
L 266.680963 120.876677 
L 266.87366 120.577063 
L 267.066356 122.254204 
L 267.259052 127.063523 
L 267.451748 128.049227 
L 267.644444 126.950733 
L 267.837141 127.04027 
L 268.222533 132.612387 
L 268.415229 132.677335 
L 268.607925 133.655021 
L 269.186014 142.800852 
L 269.37871 143.718936 
L 269.571406 143.375222 
L 269.764103 141.64623 
L 270.149495 133.914543 
L 270.727584 114.431377 
L 271.112976 103.55602 
L 271.305672 105.268441 
L 271.498368 105.669351 
L 271.691064 97.760729 
L 272.269153 64.720918 
L 272.461849 61.38 
L 272.654545 61.449491 
L 272.847242 63.512842 
L 273.42533 75.779625 
L 273.810723 76.823863 
L 274.003419 78.86209 
L 274.581507 91.353115 
L 275.352292 100.93968 
L 275.930381 106.638752 
L 276.315773 114.056392 
L 276.701166 120.515323 
L 276.893862 121.484724 
L 277.086558 121.142881 
L 277.279254 119.485518 
L 277.857343 113.078973 
L 278.050039 114.297206 
L 278.628127 124.429543 
L 278.820824 125.435293 
L 279.01352 125.556635 
L 279.206216 125.168019 
L 279.398912 124.268377 
L 279.977001 119.45986 
L 280.362393 124.707774 
L 280.747786 124.128593 
L 281.711267 137.393909 
L 282.096659 144.397811 
L 282.289355 146.396481 
L 282.482051 147.120793 
L 282.674747 146.056242 
L 283.06014 139.007707 
L 283.445532 132.511358 
L 283.830925 127.971718 
L 284.409013 111.254297 
L 284.601709 113.587862 
L 284.794406 112.350653 
L 285.757887 72.588647 
L 285.950583 73.397684 
L 286.335975 80.854079 
L 286.721368 90.726092 
L 287.492152 101.545322 
L 287.877545 107.341681 
L 288.262937 111.841497 
L 288.841026 118.735014 
L 289.226418 122.400403 
L 289.61181 128.994841 
L 289.997203 135.309711 
L 290.189899 135.350604 
L 290.960684 130.016093 
L 291.15338 131.185949 
L 291.538772 136.974557 
L 291.924165 144.622053 
L 292.309557 147.716278 
L 292.887646 150.693971 
L 293.080342 150.113988 
L 293.465734 147.549766 
L 293.851127 152.19685 
L 294.043823 152.397305 
L 294.236519 153.181218 
L 295.778089 178.448984 
L 295.970785 178.303588 
L 296.74157 169.675466 
L 297.319658 162.056034 
L 297.705051 152.796345 
L 298.090443 142.608147 
L 298.283139 146.3457 
L 298.475835 142.178104 
L 299.24662 104.843743 
L 299.439316 102.579937 
L 299.632012 102.523008 
L 299.824709 104.511255 
L 300.210101 112.619263 
L 300.402797 114.547908 
L 300.78819 115.929445 
L 300.980886 118.205011 
L 301.173582 123.039721 
L 301.366278 124.998301 
L 301.751671 125.960218 
L 302.715152 132.362219 
L 302.907848 134.092013 
L 303.485936 141.881164 
L 303.678632 140.835323 
L 304.064025 137.538237 
L 304.256721 136.970014 
L 304.449417 137.178754 
L 304.642113 137.927922 
L 304.83481 139.246115 
L 305.027506 141.505644 
L 305.412898 148.485491 
L 305.990987 154.477762 
L 306.569075 165.217077 
L 306.761772 166.077163 
L 307.147164 162.996569 
L 307.33986 162.92494 
L 307.532556 165.153466 
L 308.688733 185.767466 
L 309.652214 197.408027 
L 309.844911 196.46963 
L 311.001088 182.369351 
L 311.193784 181.709453 
L 311.38648 180.623788 
L 311.579176 177.415171 
L 311.964569 165.970788 
L 312.157265 164.539806 
L 312.349961 166.227638 
L 312.542657 160.346553 
L 313.313442 122.202086 
L 313.506138 120.030756 
L 313.891531 125.578284 
L 314.084227 126.053764 
L 314.276923 126.212524 
L 314.469619 127.127936 
L 314.662315 129.170974 
L 315.047708 136.278577 
L 315.240404 137.510708 
L 315.625796 137.551066 
L 316.203885 140.026018 
L 316.396581 140.918177 
L 316.589277 142.476114 
L 316.97467 148.76987 
L 317.360062 153.843522 
L 317.552758 153.445017 
L 317.938151 150.632231 
L 318.130847 150.365492 
L 318.323543 151.087665 
L 318.516239 152.471875 
L 318.708936 154.663517 
L 319.287024 163.439976 
L 319.672416 168.02131 
L 320.250505 176.625377 
L 320.443201 178.721336 
L 320.635897 182.22636 
L 320.828594 183.339821 
L 321.02129 182.272598 
L 321.406682 179.061575 
L 321.599378 178.474643 
L 321.792075 178.388581 
L 321.984771 178.925266 
L 322.177467 180.751812 
L 322.562859 185.94253 
L 322.948252 188.856078 
L 323.52634 195.325433 
L 323.719037 195.805456 
L 323.911733 194.715782 
L 324.489821 188.315919 
L 324.682517 187.966592 
L 325.260606 189.109186 
L 325.453302 188.489112 
L 325.645998 186.117862 
L 326.416783 167.631358 
L 326.609479 167.524716 
L 326.994872 148.085382 
L 327.380264 126.963562 
L 327.57296 121.761886 
L 327.765657 121.499958 
L 327.958353 126.278273 
L 328.151049 127.189943 
L 328.343745 126.484074 
L 328.536441 126.501179 
L 328.729138 128.359532 
L 329.307226 138.255866 
L 329.499922 139.05047 
L 329.692618 139.21912 
L 329.885315 139.609072 
L 330.656099 142.556831 
L 330.848796 144.778942 
L 331.234188 151.419352 
L 331.426884 152.325141 
L 331.61958 152.208877 
L 332.197669 149.397695 
L 332.390365 149.492577 
L 332.583061 150.888547 
L 333.739239 169.17219 
L 334.317327 177.727079 
L 334.70272 179.443242 
L 335.280808 185.960972 
L 335.6662 188.066553 
L 335.858897 187.109714 
L 336.436985 177.967892 
L 336.629681 179.045539 
L 337.015074 183.989029 
L 337.20777 184.856598 
L 337.400466 184.88092 
L 337.978555 182.175845 
L 338.171251 182.320173 
L 338.556643 183.526913 
L 338.74934 184.391008 
L 339.134732 188.080985 
L 339.712821 194.547934 
L 339.905517 195.350289 
L 340.098213 194.221861 
L 340.290909 189.977558 
L 340.868998 166.218551 
L 341.061694 164.958891 
L 341.25439 165.850515 
L 341.447086 158.666472 
L 342.217871 113.54296 
L 342.410567 113.58118 
L 342.603263 118.028343 
L 342.79596 118.892973 
L 342.988656 118.681827 
L 343.181352 119.235083 
L 343.374048 121.463075 
L 343.952137 132.106171 
L 344.337529 135.509097 
L 344.530225 136.528478 
L 344.722922 136.924844 
L 344.915618 136.932595 
L 345.108314 137.409946 
L 345.30101 139.417971 
L 345.686402 146.446194 
L 346.264491 151.490981 
L 347.227972 158.194467 
L 348.384149 178.731225 
L 348.962238 187.945478 
L 349.540326 192.442087 
L 350.311111 203.910524 
L 350.503807 204.977479 
L 350.696503 203.390409 
L 351.467288 189.385814 
L 351.659984 190.461323 
L 351.852681 193.054143 
L 352.045377 192.550065 
L 352.816162 180.509395 
L 353.008858 180.132005 
L 353.201554 181.370016 
L 353.779643 188.80984 
L 354.165035 194.075127 
L 354.550427 199.05657 
L 354.743124 200.455747 
L 354.93582 200.443185 
L 355.128516 198.625993 
L 355.513908 189.482835 
L 356.284693 159.391317 
L 356.477389 163.357121 
L 356.670085 157.766295 
L 357.44087 111.325927 
L 357.633566 109.498043 
L 357.826263 112.017363 
L 358.211655 119.390903 
L 358.597047 123.867467 
L 358.98244 131.269605 
L 359.560528 141.49041 
L 361.102098 159.743049 
L 361.48749 166.569213 
L 361.872883 169.596887 
L 362.258275 171.482769 
L 362.643667 174.89692 
L 363.607148 189.838576 
L 364.185237 198.884179 
L 364.377933 200.15934 
L 364.570629 200.589651 
L 364.763326 201.900627 
L 364.956022 204.616927 
L 365.341414 206.832624 
L 365.919503 212.507107 
L 366.112199 210.626838 
L 366.690287 199.296047 
L 366.882984 198.020351 
L 367.07568 198.838475 
L 367.268376 201.869089 
L 367.461072 202.194361 
L 367.846465 197.218263 
L 368.231857 192.287335 
L 368.424553 191.551799 
L 368.617249 192.20742 
L 369.966123 206.473142 
L 370.158819 207.288058 
L 370.351515 206.429576 
L 370.736908 200.23685 
L 371.1223 189.863967 
L 371.893085 162.112428 
L 372.085781 162.557973 
L 372.278477 161.913844 
L 372.663869 141.060634 
L 373.049262 119.282123 
L 373.241958 114.446879 
L 373.434654 113.84979 
L 374.205439 124.775127 
L 374.590831 128.149989 
L 375.939705 149.192964 
L 376.903186 158.894723 
L 377.481274 168.057125 
L 377.866667 170.197718 
L 378.444755 172.240756 
L 378.830148 176.021607 
L 380.179021 195.848754 
L 380.371717 197.565184 
L 380.75711 202.131284 
L 381.142502 203.530461 
L 381.527894 205.087863 
L 381.720591 203.978411 
L 382.491375 194.255537 
L 382.684071 193.881621 
L 382.876768 194.801844 
L 383.26216 199.297116 
L 383.454856 199.510133 
L 383.647552 198.464559 
L 384.225641 193.898727 
L 384.418337 194.906615 
L 384.80373 199.62025 
L 385.381818 202.532462 
L 385.767211 206.967597 
L 385.959907 207.247165 
L 386.152603 206.078379 
L 386.730692 199.683326 
L 387.30878 189.935061 
L 388.079565 171.776235 
L 388.272261 174.473292 
L 388.464957 172.017048 
L 388.85035 152.129497 
L 389.235742 133.816721 
L 389.428438 130.050036 
L 389.621134 129.986425 
L 391.3554 158.021541 
L 391.933489 167.775151 
L 392.318881 170.329751 
L 392.704274 172.922571 
L 393.089666 177.84067 
L 393.475058 183.720419 
L 393.667754 184.693027 
L 393.860451 184.647323 
L 394.245843 183.850046 
L 394.438539 184.145116 
L 394.631235 185.256172 
L 395.787413 196.363255 
L 396.750894 208.468071 
L 396.94359 209.590619 
L 397.328982 209.552934 
L 397.521678 210.337114 
L 397.907071 212.754335 
L 398.099767 212.878083 
L 398.485159 210.964939 
L 398.870552 209.344995 
L 399.063248 209.260002 
L 399.255944 210.114208 
L 399.641336 213.742178 
L 399.834033 212.962541 
L 400.412121 207.760063 
L 400.604817 207.988048 
L 400.797514 209.544915 
L 401.375602 215.95734 
L 401.760995 218.618048 
L 402.339083 223.849658 
L 402.531779 223.426297 
L 404.073349 211.36291 
L 404.458741 203.407515 
L 404.844134 194.863851 
L 405.03683 196.904217 
L 405.229526 194.280661 
L 406.193007 153.322606 
L 406.385703 151.482161 
L 406.578399 151.848326 
L 407.349184 161.159866 
L 407.54188 162.050956 
L 407.734577 163.511872 
L 408.119969 169.634573 
L 408.505361 175.14495 
L 408.890754 177.870872 
L 409.276146 179.346756 
L 409.661538 183.069875 
L 410.046931 188.899644 
L 410.239627 190.319935 
L 410.432323 190.59095 
L 410.625019 190.476557 
L 410.817716 190.842722 
L 411.203108 193.762952 
L 412.166589 203.311296 
L 413.322766 218.383916 
L 413.515462 219.452475 
L 413.708159 219.691685 
L 413.900855 220.165294 
L 414.286247 224.039957 
L 414.671639 227.157969 
L 414.864336 227.241626 
L 415.057032 227.149951 
L 415.442424 227.684498 
L 415.63512 227.621689 
L 416.020513 226.989053 
L 416.213209 227.616611 
L 416.598601 231.081277 
L 416.791298 231.136602 
L 417.17669 228.100376 
L 417.369386 226.593221 
L 417.562082 226.086737 
L 417.754779 226.785925 
L 418.525563 232.98854 
L 419.103652 237.566934 
L 419.296348 237.785831 
L 419.489044 237.493434 
L 419.68174 236.618648 
L 420.259829 233.117366 
L 420.452525 233.379027 
L 420.837918 234.492488 
L 421.030614 234.101467 
L 421.22331 232.816683 
L 421.608702 226.952971 
L 421.994095 219.178787 
L 422.186791 219.267255 
L 422.379487 219.047823 
L 422.572183 213.346346 
L 423.342968 182.316431 
L 423.535664 179.854041 
L 423.728361 179.773592 
L 424.499145 187.149805 
L 424.691841 187.997062 
L 424.884538 189.418956 
L 425.26993 194.666871 
L 425.848019 202.627611 
L 427.774981 221.286239 
L 428.160373 222.823596 
L 428.738462 226.512504 
L 429.701943 233.911703 
L 430.087335 236.412848 
L 431.050816 245.32321 
L 431.436208 247.174079 
L 431.821601 249.587826 
L 432.014297 249.891181 
L 432.399689 249.034302 
L 432.592385 249.371869 
L 433.170474 252.102869 
L 433.36317 252.199622 
L 433.555866 252.52917 
L 434.326651 256.765989 
L 434.519347 257.014821 
L 434.90474 256.901764 
L 435.097436 257.150328 
L 435.290132 258.144853 
L 435.675524 261.204332 
L 436.639005 266.73422 
L 436.831702 266.567709 
L 437.40979 265.012712 
L 437.602486 265.024472 
L 437.987879 265.443289 
L 438.180575 265.494339 
L 438.373271 265.313127 
L 438.565967 264.760673 
L 438.758664 263.665921 
L 439.144056 259.508482 
L 439.722145 250.74218 
L 439.914841 250.131727 
L 440.107537 251.100326 
L 440.300233 247.653568 
L 441.263714 216.512467 
L 441.45641 215.546007 
L 441.649106 216.089641 
L 442.419891 222.959638 
L 442.805284 226.363365 
L 443.768765 237.202641 
L 444.732246 246.253055 
L 445.310334 251.281538 
L 446.273815 254.848302 
L 446.659207 256.191618 
L 447.0446 256.715207 
L 447.237296 256.85606 
L 447.429992 257.284767 
L 448.008081 260.041693 
L 448.393473 260.776962 
L 448.778866 262.946955 
L 448.971562 263.062952 
L 449.164258 263.421098 
L 449.54965 264.876402 
L 449.742347 264.898853 
L 450.127739 264.258199 
L 450.320435 264.562623 
L 451.09122 266.79008 
L 453.018182 279.885946 
L 454.174359 285.586621 
L 454.367055 285.758478 
L 454.945144 285.347946 
L 455.13784 285.533434 
L 455.523232 286.240907 
L 455.715929 286.303449 
L 456.486713 285.53183 
L 456.679409 285.509914 
L 456.872106 285.359973 
L 457.064802 284.997551 
L 457.257498 284.291414 
L 457.450194 282.979369 
L 457.835587 277.750163 
L 458.220979 272.283886 
L 458.413675 272.447725 
L 458.606371 271.912644 
L 458.991764 262.19752 
L 459.377156 250.826906 
L 459.762549 245.338445 
L 459.955245 244.264807 
L 460.147941 243.962254 
L 460.340637 244.520588 
L 461.68951 254.80928 
L 462.460295 258.431905 
L 464.194561 272.104279 
L 464.579953 273.587379 
L 464.965346 274.654602 
L 465.350738 275.770202 
L 465.543434 275.622934 
L 466.121523 273.457752 
L 466.314219 273.364473 
L 466.506915 273.595932 
L 466.699611 274.035329 
L 466.892308 274.849177 
L 467.2777 276.868963 
L 467.663092 277.66811 
L 468.048485 278.472336 
L 468.241181 278.146797 
L 468.626573 276.812568 
L 468.81927 276.732653 
L 469.011966 277.242076 
L 469.975447 281.350871 
L 470.168143 281.342051 
L 470.360839 281.457246 
L 470.553535 282.031617 
L 470.938928 283.813796 
L 471.131624 283.794553 
L 471.709713 282.775706 
L 471.902409 282.766619 
L 472.095105 283.200137 
L 472.86589 286.454993 
L 473.058586 286.548271 
L 473.636674 285.850687 
L 473.829371 285.951182 
L 475.563636 288.606811 
L 475.949029 289.961086 
L 476.141725 290.23317 
L 476.334421 290.103008 
L 476.527117 289.571936 
L 476.719814 288.56084 
L 477.105206 284.600382 
L 477.490598 279.686025 
L 477.683294 278.737739 
L 477.875991 280.052457 
L 478.068687 278.522316 
L 478.454079 268.77325 
L 478.839472 258.786577 
L 479.224864 254.091918 
L 479.41756 253.155392 
L 479.610256 252.985673 
L 479.802953 253.668022 
L 480.573737 259.257512 
L 481.537218 263.724454 
L 481.922611 265.696932 
L 482.693395 270.654053 
L 483.46418 274.977201 
L 484.234965 279.509357 
L 484.427661 279.954635 
L 484.620357 279.985104 
L 484.813054 279.616534 
L 485.198446 278.405251 
L 485.391142 278.148401 
L 485.583838 278.346183 
L 486.161927 280.155625 
L 486.547319 282.127301 
L 487.318104 283.491732 
L 487.5108 283.560688 
L 488.088889 282.676013 
L 488.281585 283.103116 
L 488.859674 285.667071 
L 489.05237 285.846678 
L 489.437762 285.731216 
L 489.630458 285.995015 
L 490.015851 287.533708 
L 490.208547 287.429205 
L 490.786636 285.524881 
L 490.979332 285.326564 
L 491.172028 285.410221 
L 491.364724 285.877148 
L 491.750117 287.416643 
L 491.942813 287.189728 
L 492.520901 285.777187 
L 492.906294 285.200946 
L 493.09899 285.106331 
L 493.484382 285.460468 
L 493.869775 285.771575 
L 494.255167 285.998222 
L 494.447863 286.359843 
L 494.833256 288.050883 
L 495.411344 290.763441 
L 495.60404 290.941445 
L 495.796737 290.788297 
L 495.989433 290.346227 
L 496.182129 289.472243 
L 496.567521 285.678029 
L 497.14561 278.694975 
L 497.338306 278.94541 
L 497.531002 278.806963 
L 497.723699 276.062599 
L 498.109091 266.596842 
L 498.109091 266.596842 
" style="fill:none;stroke:#4c72b0;stroke-linecap:round;stroke-width:1.75;"/>
   </g>
   <g id="line2d_24">
    <path clip-path="url(#p3b95d9e1a2)" d="M 92.290909 334.196715 
L 190.758664 334.196715 
L 190.95136 338.58 
L 211.762549 338.473091 
L 212.340637 338.419636 
L 498.109091 338.473091 
L 498.109091 338.473091 
" style="fill:none;stroke:#55a868;stroke-linecap:round;stroke-width:1.75;"/>
   </g>
   <g id="patch_3">
    <path d="M 72 352.44 
L 72 47.52 
" style="fill:none;"/>
   </g>
   <g id="patch_4">
    <path d="M 518.4 352.44 
L 518.4 47.52 
" style="fill:none;"/>
   </g>
   <g id="patch_5">
    <path d="M 72 352.44 
L 518.4 352.44 
" style="fill:none;"/>
   </g>
   <g id="patch_6">
    <path d="M 72 47.52 
L 518.4 47.52 
" style="fill:none;"/>
   </g>
  </g>
 </g>
 <defs>
  <clipPath id="p3b95d9e1a2">
   <rect height="304.92" width="446.4" x="72" y="47.52"/>
  </clipPath>
 </defs>
</svg>
