<?xml version="1.0" encoding="utf-8" standalone="no"?>
<!DOCTYPE svg PUBLIC "-//W3C//DTD SVG 1.1//EN"
  "http://www.w3.org/Graphics/SVG/1.1/DTD/svg11.dtd">
<!-- Created with matplotlib (http://matplotlib.org/) -->
<svg height="360pt" version="1.1" viewBox="0 0 1152 360" width="1152pt" xmlns="http://www.w3.org/2000/svg" xmlns:xlink="http://www.w3.org/1999/xlink">
 <defs>
  <style type="text/css">
*{stroke-linecap:butt;stroke-linejoin:round;}
  </style>
 </defs>
 <g id="figure_1">
  <g id="patch_1">
   <path d="M 0 360 
L 1152 360 
L 1152 0 
L 0 0 
z
" style="fill:#ffffff;"/>
  </g>
  <g id="axes_1">
   <g id="patch_2">
    <path d="M 144 320.4 
L 1036.8 320.4 
L 1036.8 43.2 
L 144 43.2 
z
" style="fill:#eaeaf2;"/>
   </g>
   <g id="matplotlib.axis_1">
    <g id="xtick_1">
     <g id="line2d_1">
      <path clip-path="url(#p6a36a9eca1)" d="M 184.581818 320.4 
L 184.581818 43.2 
" style="fill:none;stroke:#ffffff;stroke-linecap:round;stroke-width:0.8;"/>
     </g>
     <g id="line2d_2"/>
     <g id="text_1">
      <!-- 0.000 -->
      <defs>
       <path d="M 51.703125 34.421875 
Q 51.703125 24.515625 49.828125 17.75 
Q 47.953125 10.984375 44.703125 6.8125 
Q 41.453125 2.640625 37.0625 0.828125 
Q 32.671875 -0.984375 27.6875 -0.984375 
Q 22.65625 -0.984375 18.3125 0.828125 
Q 13.96875 2.640625 10.765625 6.78125 
Q 7.5625 10.9375 5.734375 17.703125 
Q 3.90625 24.46875 3.90625 34.421875 
Q 3.90625 44.828125 5.734375 51.640625 
Q 7.5625 58.453125 10.78125 62.5 
Q 14.015625 66.546875 18.40625 68.1875 
Q 22.796875 69.828125 27.984375 69.828125 
Q 32.90625 69.828125 37.21875 68.1875 
Q 41.546875 66.546875 44.765625 62.5 
Q 48 58.453125 49.84375 51.640625 
Q 51.703125 44.828125 51.703125 34.421875 
M 42.78125 34.421875 
Q 42.78125 42.625 41.796875 48.0625 
Q 40.828125 53.515625 38.921875 56.765625 
Q 37.015625 60.015625 34.25 61.359375 
Q 31.5 62.703125 27.984375 62.703125 
Q 24.265625 62.703125 21.4375 61.328125 
Q 18.609375 59.96875 16.671875 56.71875 
Q 14.75 53.46875 13.765625 48.015625 
Q 12.796875 42.578125 12.796875 34.421875 
Q 12.796875 26.515625 13.796875 21.09375 
Q 14.796875 15.671875 16.71875 12.375 
Q 18.65625 9.078125 21.4375 7.640625 
Q 24.21875 6.203125 27.78125 6.203125 
Q 31.25 6.203125 34.03125 7.640625 
Q 36.8125 9.078125 38.734375 12.375 
Q 40.671875 15.671875 41.71875 21.09375 
Q 42.78125 26.515625 42.78125 34.421875 
" id="LiberationSans-30"/>
       <path d="M 9.125 0 
L 9.125 10.6875 
L 18.65625 10.6875 
L 18.65625 0 
z
" id="LiberationSans-2e"/>
      </defs>
      <g style="fill:#262626;" transform="translate(174.573068 331.7975)scale(0.08 -0.08)">
       <use xlink:href="#LiberationSans-30"/>
       <use x="55.615234" xlink:href="#LiberationSans-2e"/>
       <use x="83.398438" xlink:href="#LiberationSans-30"/>
       <use x="139.013672" xlink:href="#LiberationSans-30"/>
       <use x="194.628906" xlink:href="#LiberationSans-30"/>
      </g>
     </g>
    </g>
    <g id="xtick_2">
     <g id="line2d_3">
      <path clip-path="url(#p6a36a9eca1)" d="M 311.238448 320.4 
L 311.238448 43.2 
" style="fill:none;stroke:#ffffff;stroke-linecap:round;stroke-width:0.8;"/>
     </g>
     <g id="line2d_4"/>
     <g id="text_2">
      <!-- 0.005 -->
      <defs>
       <path d="M 51.421875 22.40625 
Q 51.421875 17.234375 49.859375 12.9375 
Q 48.296875 8.640625 45.21875 5.53125 
Q 42.140625 2.4375 37.578125 0.71875 
Q 33.015625 -0.984375 27 -0.984375 
Q 21.578125 -0.984375 17.546875 0.28125 
Q 13.53125 1.5625 10.734375 3.78125 
Q 7.953125 6 6.3125 8.984375 
Q 4.6875 11.96875 4 15.375 
L 12.890625 16.40625 
Q 13.421875 14.453125 14.390625 12.625 
Q 15.375 10.796875 17.0625 9.34375 
Q 18.75 7.90625 21.21875 7.046875 
Q 23.6875 6.203125 27.203125 6.203125 
Q 30.609375 6.203125 33.390625 7.25 
Q 36.1875 8.296875 38.15625 10.34375 
Q 40.140625 12.40625 41.203125 15.375 
Q 42.28125 18.359375 42.28125 22.21875 
Q 42.28125 25.390625 41.25 28.046875 
Q 40.234375 30.71875 38.328125 32.640625 
Q 36.421875 34.578125 33.65625 35.640625 
Q 30.90625 36.71875 27.390625 36.71875 
Q 25.203125 36.71875 23.34375 36.328125 
Q 21.484375 35.9375 19.890625 35.25 
Q 18.3125 34.578125 17.015625 33.671875 
Q 15.71875 32.765625 14.59375 31.78125 
L 6 31.78125 
L 8.296875 68.796875 
L 47.40625 68.796875 
L 47.40625 61.328125 
L 16.3125 61.328125 
L 14.984375 39.5 
Q 17.328125 41.3125 20.84375 42.59375 
Q 24.359375 43.890625 29.203125 43.890625 
Q 34.328125 43.890625 38.421875 42.328125 
Q 42.53125 40.765625 45.40625 37.90625 
Q 48.296875 35.0625 49.859375 31.109375 
Q 51.421875 27.15625 51.421875 22.40625 
" id="LiberationSans-35"/>
      </defs>
      <g style="fill:#262626;" transform="translate(301.229698 331.7975)scale(0.08 -0.08)">
       <use xlink:href="#LiberationSans-30"/>
       <use x="55.615234" xlink:href="#LiberationSans-2e"/>
       <use x="83.398438" xlink:href="#LiberationSans-30"/>
       <use x="139.013672" xlink:href="#LiberationSans-30"/>
       <use x="194.628906" xlink:href="#LiberationSans-35"/>
      </g>
     </g>
    </g>
    <g id="xtick_3">
     <g id="line2d_5">
      <path clip-path="url(#p6a36a9eca1)" d="M 437.895078 320.4 
L 437.895078 43.2 
" style="fill:none;stroke:#ffffff;stroke-linecap:round;stroke-width:0.8;"/>
     </g>
     <g id="line2d_6"/>
     <g id="text_3">
      <!-- 0.010 -->
      <defs>
       <path d="M 7.625 0 
L 7.625 7.46875 
L 25.140625 7.46875 
L 25.140625 60.40625 
L 9.625 49.3125 
L 9.625 57.625 
L 25.875 68.796875 
L 33.984375 68.796875 
L 33.984375 7.46875 
L 50.734375 7.46875 
L 50.734375 0 
z
" id="LiberationSans-31"/>
      </defs>
      <g style="fill:#262626;" transform="translate(427.886328 331.7975)scale(0.08 -0.08)">
       <use xlink:href="#LiberationSans-30"/>
       <use x="55.615234" xlink:href="#LiberationSans-2e"/>
       <use x="83.398438" xlink:href="#LiberationSans-30"/>
       <use x="139.013672" xlink:href="#LiberationSans-31"/>
       <use x="194.628906" xlink:href="#LiberationSans-30"/>
      </g>
     </g>
    </g>
    <g id="xtick_4">
     <g id="line2d_7">
      <path clip-path="url(#p6a36a9eca1)" d="M 564.551708 320.4 
L 564.551708 43.2 
" style="fill:none;stroke:#ffffff;stroke-linecap:round;stroke-width:0.8;"/>
     </g>
     <g id="line2d_8"/>
     <g id="text_4">
      <!-- 0.015 -->
      <g style="fill:#262626;" transform="translate(554.542958 331.7975)scale(0.08 -0.08)">
       <use xlink:href="#LiberationSans-30"/>
       <use x="55.615234" xlink:href="#LiberationSans-2e"/>
       <use x="83.398438" xlink:href="#LiberationSans-30"/>
       <use x="139.013672" xlink:href="#LiberationSans-31"/>
       <use x="194.628906" xlink:href="#LiberationSans-35"/>
      </g>
     </g>
    </g>
    <g id="xtick_5">
     <g id="line2d_9">
      <path clip-path="url(#p6a36a9eca1)" d="M 691.208338 320.4 
L 691.208338 43.2 
" style="fill:none;stroke:#ffffff;stroke-linecap:round;stroke-width:0.8;"/>
     </g>
     <g id="line2d_10"/>
     <g id="text_5">
      <!-- 0.020 -->
      <defs>
       <path d="M 5.03125 0 
L 5.03125 6.203125 
Q 7.515625 11.921875 11.109375 16.28125 
Q 14.703125 20.65625 18.65625 24.1875 
Q 22.609375 27.734375 26.484375 30.765625 
Q 30.375 33.796875 33.5 36.8125 
Q 36.625 39.84375 38.546875 43.15625 
Q 40.484375 46.484375 40.484375 50.6875 
Q 40.484375 53.609375 39.59375 55.828125 
Q 38.71875 58.0625 37.0625 59.5625 
Q 35.40625 61.078125 33.078125 61.828125 
Q 30.765625 62.59375 27.9375 62.59375 
Q 25.296875 62.59375 22.96875 61.859375 
Q 20.65625 61.140625 18.84375 59.671875 
Q 17.046875 58.203125 15.890625 56.03125 
Q 14.75 53.859375 14.40625 50.984375 
L 5.421875 51.8125 
Q 5.859375 55.515625 7.46875 58.78125 
Q 9.078125 62.0625 11.90625 64.53125 
Q 14.75 67 18.71875 68.40625 
Q 22.703125 69.828125 27.9375 69.828125 
Q 33.0625 69.828125 37.0625 68.609375 
Q 41.0625 67.390625 43.8125 64.984375 
Q 46.578125 62.59375 48.046875 59.078125 
Q 49.515625 55.5625 49.515625 50.984375 
Q 49.515625 47.515625 48.265625 44.390625 
Q 47.015625 41.265625 44.9375 38.421875 
Q 42.875 35.59375 40.140625 32.953125 
Q 37.40625 30.328125 34.421875 27.8125 
Q 31.453125 25.296875 28.421875 22.828125 
Q 25.390625 20.359375 22.71875 17.859375 
Q 20.0625 15.375 17.96875 12.8125 
Q 15.875 10.25 14.703125 7.46875 
L 50.59375 7.46875 
L 50.59375 0 
z
" id="LiberationSans-32"/>
      </defs>
      <g style="fill:#262626;" transform="translate(681.199588 331.7975)scale(0.08 -0.08)">
       <use xlink:href="#LiberationSans-30"/>
       <use x="55.615234" xlink:href="#LiberationSans-2e"/>
       <use x="83.398438" xlink:href="#LiberationSans-30"/>
       <use x="139.013672" xlink:href="#LiberationSans-32"/>
       <use x="194.628906" xlink:href="#LiberationSans-30"/>
      </g>
     </g>
    </g>
    <g id="xtick_6">
     <g id="line2d_11">
      <path clip-path="url(#p6a36a9eca1)" d="M 817.864968 320.4 
L 817.864968 43.2 
" style="fill:none;stroke:#ffffff;stroke-linecap:round;stroke-width:0.8;"/>
     </g>
     <g id="line2d_12"/>
     <g id="text_6">
      <!-- 0.025 -->
      <g style="fill:#262626;" transform="translate(807.856218 331.7975)scale(0.08 -0.08)">
       <use xlink:href="#LiberationSans-30"/>
       <use x="55.615234" xlink:href="#LiberationSans-2e"/>
       <use x="83.398438" xlink:href="#LiberationSans-30"/>
       <use x="139.013672" xlink:href="#LiberationSans-32"/>
       <use x="194.628906" xlink:href="#LiberationSans-35"/>
      </g>
     </g>
    </g>
    <g id="xtick_7">
     <g id="line2d_13">
      <path clip-path="url(#p6a36a9eca1)" d="M 944.521598 320.4 
L 944.521598 43.2 
" style="fill:none;stroke:#ffffff;stroke-linecap:round;stroke-width:0.8;"/>
     </g>
     <g id="line2d_14"/>
     <g id="text_7">
      <!-- 0.030 -->
      <defs>
       <path d="M 51.21875 19 
Q 51.21875 14.265625 49.671875 10.546875 
Q 48.140625 6.84375 45.1875 4.265625 
Q 42.234375 1.703125 37.859375 0.359375 
Q 33.5 -0.984375 27.875 -0.984375 
Q 21.484375 -0.984375 17.109375 0.609375 
Q 12.75 2.203125 9.90625 4.8125 
Q 7.078125 7.421875 5.65625 10.765625 
Q 4.25 14.109375 3.8125 17.671875 
L 12.890625 18.5 
Q 13.28125 15.765625 14.328125 13.515625 
Q 15.375 11.28125 17.1875 9.671875 
Q 19 8.0625 21.625 7.171875 
Q 24.265625 6.296875 27.875 6.296875 
Q 34.515625 6.296875 38.296875 9.5625 
Q 42.09375 12.84375 42.09375 19.28125 
Q 42.09375 23.09375 40.40625 25.40625 
Q 38.71875 27.734375 36.203125 29.03125 
Q 33.6875 30.328125 30.734375 30.765625 
Q 27.78125 31.203125 25.296875 31.203125 
L 20.3125 31.203125 
L 20.3125 38.8125 
L 25.09375 38.8125 
Q 27.59375 38.8125 30.265625 39.328125 
Q 32.953125 39.84375 35.171875 41.1875 
Q 37.40625 42.53125 38.84375 44.828125 
Q 40.28125 47.125 40.28125 50.6875 
Q 40.28125 56.203125 37.03125 59.390625 
Q 33.796875 62.59375 27.390625 62.59375 
Q 21.578125 62.59375 17.984375 59.609375 
Q 14.40625 56.640625 13.8125 51.21875 
L 4.984375 51.90625 
Q 5.515625 56.453125 7.46875 59.8125 
Q 9.421875 63.1875 12.421875 65.40625 
Q 15.4375 67.625 19.28125 68.71875 
Q 23.140625 69.828125 27.484375 69.828125 
Q 33.25 69.828125 37.390625 68.375 
Q 41.546875 66.9375 44.1875 64.46875 
Q 46.828125 62.015625 48.0625 58.6875 
Q 49.3125 55.375 49.3125 51.609375 
Q 49.3125 48.578125 48.484375 45.9375 
Q 47.65625 43.3125 45.890625 41.203125 
Q 44.140625 39.109375 41.421875 37.59375 
Q 38.71875 36.078125 34.90625 35.296875 
L 34.90625 35.109375 
Q 39.0625 34.671875 42.140625 33.21875 
Q 45.21875 31.78125 47.21875 29.625 
Q 49.21875 27.484375 50.21875 24.75 
Q 51.21875 22.015625 51.21875 19 
" id="LiberationSans-33"/>
      </defs>
      <g style="fill:#262626;" transform="translate(934.512848 331.7975)scale(0.08 -0.08)">
       <use xlink:href="#LiberationSans-30"/>
       <use x="55.615234" xlink:href="#LiberationSans-2e"/>
       <use x="83.398438" xlink:href="#LiberationSans-30"/>
       <use x="139.013672" xlink:href="#LiberationSans-33"/>
       <use x="194.628906" xlink:href="#LiberationSans-30"/>
      </g>
     </g>
    </g>
   </g>
   <g id="matplotlib.axis_2">
    <g id="ytick_1">
     <g id="line2d_15">
      <path clip-path="url(#p6a36a9eca1)" d="M 144 312.658091 
L 1036.8 312.658091 
" style="fill:none;stroke:#ffffff;stroke-linecap:round;stroke-width:0.8;"/>
     </g>
     <g id="line2d_16"/>
     <g id="text_8">
      <!-- −4 -->
      <defs>
       <path d="M 4.9375 29.6875 
L 4.9375 36.8125 
L 53.515625 36.8125 
L 53.515625 29.6875 
z
" id="LiberationSans-2212"/>
       <path d="M 43.015625 15.578125 
L 43.015625 0 
L 34.71875 0 
L 34.71875 15.578125 
L 2.296875 15.578125 
L 2.296875 22.40625 
L 33.796875 68.796875 
L 43.015625 68.796875 
L 43.015625 22.515625 
L 52.6875 22.515625 
L 52.6875 15.578125 
z
M 34.71875 58.890625 
Q 34.625 58.640625 34.234375 57.9375 
Q 33.84375 57.234375 33.34375 56.34375 
Q 32.859375 55.46875 32.34375 54.5625 
Q 31.84375 53.65625 31.453125 53.078125 
L 13.8125 27.09375 
Q 13.578125 26.703125 13.109375 26.0625 
Q 12.640625 25.4375 12.15625 24.78125 
Q 11.671875 24.125 11.171875 23.484375 
Q 10.6875 22.859375 10.40625 22.515625 
L 34.71875 22.515625 
z
" id="LiberationSans-34"/>
      </defs>
      <g style="fill:#262626;" transform="translate(129.27875 315.556841)scale(0.08 -0.08)">
       <use xlink:href="#LiberationSans-2212"/>
       <use x="58.398438" xlink:href="#LiberationSans-34"/>
      </g>
     </g>
    </g>
    <g id="ytick_2">
     <g id="line2d_17">
      <path clip-path="url(#p6a36a9eca1)" d="M 144 281.381279 
L 1036.8 281.381279 
" style="fill:none;stroke:#ffffff;stroke-linecap:round;stroke-width:0.8;"/>
     </g>
     <g id="line2d_18"/>
     <g id="text_9">
      <!-- −2 -->
      <g style="fill:#262626;" transform="translate(129.27875 284.280029)scale(0.08 -0.08)">
       <use xlink:href="#LiberationSans-2212"/>
       <use x="58.398438" xlink:href="#LiberationSans-32"/>
      </g>
     </g>
    </g>
    <g id="ytick_3">
     <g id="line2d_19">
      <path clip-path="url(#p6a36a9eca1)" d="M 144 250.104468 
L 1036.8 250.104468 
" style="fill:none;stroke:#ffffff;stroke-linecap:round;stroke-width:0.8;"/>
     </g>
     <g id="line2d_20"/>
     <g id="text_10">
      <!-- 0 -->
      <g style="fill:#262626;" transform="translate(133.95125 253.003218)scale(0.08 -0.08)">
       <use xlink:href="#LiberationSans-30"/>
      </g>
     </g>
    </g>
    <g id="ytick_4">
     <g id="line2d_21">
      <path clip-path="url(#p6a36a9eca1)" d="M 144 218.827656 
L 1036.8 218.827656 
" style="fill:none;stroke:#ffffff;stroke-linecap:round;stroke-width:0.8;"/>
     </g>
     <g id="line2d_22"/>
     <g id="text_11">
      <!-- 2 -->
      <g style="fill:#262626;" transform="translate(133.95125 221.726406)scale(0.08 -0.08)">
       <use xlink:href="#LiberationSans-32"/>
      </g>
     </g>
    </g>
    <g id="ytick_5">
     <g id="line2d_23">
      <path clip-path="url(#p6a36a9eca1)" d="M 144 187.550845 
L 1036.8 187.550845 
" style="fill:none;stroke:#ffffff;stroke-linecap:round;stroke-width:0.8;"/>
     </g>
     <g id="line2d_24"/>
     <g id="text_12">
      <!-- 4 -->
      <g style="fill:#262626;" transform="translate(133.95125 190.449595)scale(0.08 -0.08)">
       <use xlink:href="#LiberationSans-34"/>
      </g>
     </g>
    </g>
    <g id="ytick_6">
     <g id="line2d_25">
      <path clip-path="url(#p6a36a9eca1)" d="M 144 156.274033 
L 1036.8 156.274033 
" style="fill:none;stroke:#ffffff;stroke-linecap:round;stroke-width:0.8;"/>
     </g>
     <g id="line2d_26"/>
     <g id="text_13">
      <!-- 6 -->
      <defs>
       <path d="M 51.21875 22.515625 
Q 51.21875 17.328125 49.78125 13 
Q 48.34375 8.6875 45.53125 5.578125 
Q 42.71875 2.484375 38.5625 0.75 
Q 34.421875 -0.984375 29 -0.984375 
Q 23 -0.984375 18.5 1.3125 
Q 14.015625 3.609375 11.03125 7.921875 
Q 8.0625 12.25 6.5625 18.53125 
Q 5.078125 24.8125 5.078125 32.8125 
Q 5.078125 42 6.765625 48.921875 
Q 8.453125 55.859375 11.625 60.5 
Q 14.796875 65.140625 19.359375 67.484375 
Q 23.921875 69.828125 29.6875 69.828125 
Q 33.203125 69.828125 36.28125 69.09375 
Q 39.359375 68.359375 41.875 66.71875 
Q 44.390625 65.09375 46.28125 62.40625 
Q 48.1875 59.71875 49.3125 55.8125 
L 40.921875 54.296875 
Q 39.546875 58.734375 36.546875 60.71875 
Q 33.546875 62.703125 29.59375 62.703125 
Q 25.984375 62.703125 23.046875 60.984375 
Q 20.125 59.28125 18.0625 55.875 
Q 16.015625 52.484375 14.90625 47.359375 
Q 13.8125 42.234375 13.8125 35.40625 
Q 16.21875 39.84375 20.5625 42.15625 
Q 24.90625 44.484375 30.515625 44.484375 
Q 35.203125 44.484375 39.015625 42.96875 
Q 42.828125 41.453125 45.53125 38.59375 
Q 48.25 35.75 49.734375 31.671875 
Q 51.21875 27.59375 51.21875 22.515625 
M 42.28125 22.125 
Q 42.28125 25.6875 41.40625 28.5625 
Q 40.53125 31.453125 38.765625 33.46875 
Q 37.015625 35.5 34.421875 36.59375 
Q 31.84375 37.703125 28.421875 37.703125 
Q 26.03125 37.703125 23.578125 36.984375 
Q 21.140625 36.28125 19.15625 34.6875 
Q 17.1875 33.109375 15.9375 30.515625 
Q 14.703125 27.9375 14.703125 24.21875 
Q 14.703125 20.40625 15.671875 17.109375 
Q 16.65625 13.8125 18.484375 11.375 
Q 20.3125 8.9375 22.890625 7.515625 
Q 25.484375 6.109375 28.71875 6.109375 
Q 31.890625 6.109375 34.40625 7.203125 
Q 36.921875 8.296875 38.671875 10.375 
Q 40.4375 12.453125 41.359375 15.421875 
Q 42.28125 18.40625 42.28125 22.125 
" id="LiberationSans-36"/>
      </defs>
      <g style="fill:#262626;" transform="translate(133.95125 159.172783)scale(0.08 -0.08)">
       <use xlink:href="#LiberationSans-36"/>
      </g>
     </g>
    </g>
    <g id="ytick_7">
     <g id="line2d_27">
      <path clip-path="url(#p6a36a9eca1)" d="M 144 124.997222 
L 1036.8 124.997222 
" style="fill:none;stroke:#ffffff;stroke-linecap:round;stroke-width:0.8;"/>
     </g>
     <g id="line2d_28"/>
     <g id="text_14">
      <!-- 8 -->
      <defs>
       <path d="M 51.265625 19.1875 
Q 51.265625 14.796875 49.875 11.109375 
Q 48.484375 7.421875 45.625 4.734375 
Q 42.78125 2.046875 38.328125 0.53125 
Q 33.890625 -0.984375 27.828125 -0.984375 
Q 21.78125 -0.984375 17.359375 0.53125 
Q 12.9375 2.046875 10.03125 4.703125 
Q 7.125 7.375 5.734375 11.0625 
Q 4.34375 14.75 4.34375 19.09375 
Q 4.34375 22.859375 5.484375 25.78125 
Q 6.640625 28.71875 8.5625 30.828125 
Q 10.5 32.953125 12.96875 34.25 
Q 15.4375 35.546875 18.0625 35.984375 
L 18.0625 36.1875 
Q 15.1875 36.859375 12.90625 38.375 
Q 10.640625 39.890625 9.09375 42.015625 
Q 7.5625 44.140625 6.75 46.71875 
Q 5.953125 49.3125 5.953125 52.203125 
Q 5.953125 55.8125 7.34375 59 
Q 8.734375 62.203125 11.46875 64.625 
Q 14.203125 67.046875 18.25 68.4375 
Q 22.3125 69.828125 27.640625 69.828125 
Q 33.25 69.828125 37.375 68.40625 
Q 41.5 67 44.203125 64.578125 
Q 46.921875 62.15625 48.234375 58.9375 
Q 49.5625 55.71875 49.5625 52.09375 
Q 49.5625 49.265625 48.75 46.671875 
Q 47.953125 44.09375 46.40625 41.96875 
Q 44.875 39.84375 42.59375 38.34375 
Q 40.328125 36.859375 37.359375 36.28125 
L 37.359375 36.078125 
Q 40.328125 35.59375 42.859375 34.296875 
Q 45.40625 33.015625 47.265625 30.890625 
Q 49.125 28.765625 50.1875 25.828125 
Q 51.265625 22.90625 51.265625 19.1875 
M 40.4375 51.609375 
Q 40.4375 54.203125 39.765625 56.34375 
Q 39.109375 58.5 37.59375 60.03125 
Q 36.078125 61.578125 33.640625 62.421875 
Q 31.203125 63.28125 27.640625 63.28125 
Q 24.171875 63.28125 21.78125 62.421875 
Q 19.390625 61.578125 17.84375 60.03125 
Q 16.3125 58.5 15.625 56.34375 
Q 14.9375 54.203125 14.9375 51.609375 
Q 14.9375 49.5625 15.46875 47.40625 
Q 16.015625 45.265625 17.421875 43.5 
Q 18.84375 41.75 21.328125 40.625 
Q 23.828125 39.5 27.734375 39.5 
Q 31.890625 39.5 34.40625 40.625 
Q 36.921875 41.75 38.25 43.5 
Q 39.59375 45.265625 40.015625 47.40625 
Q 40.4375 49.5625 40.4375 51.609375 
M 42.140625 20.015625 
Q 42.140625 22.515625 41.453125 24.828125 
Q 40.765625 27.15625 39.109375 28.9375 
Q 37.453125 30.71875 34.640625 31.8125 
Q 31.84375 32.90625 27.640625 32.90625 
Q 23.78125 32.90625 21.0625 31.8125 
Q 18.359375 30.71875 16.671875 28.90625 
Q 14.984375 27.09375 14.203125 24.71875 
Q 13.421875 22.359375 13.421875 19.828125 
Q 13.421875 16.65625 14.203125 14.03125 
Q 14.984375 11.421875 16.6875 9.546875 
Q 18.40625 7.671875 21.1875 6.640625 
Q 23.96875 5.609375 27.9375 5.609375 
Q 31.9375 5.609375 34.671875 6.640625 
Q 37.40625 7.671875 39.0625 9.546875 
Q 40.71875 11.421875 41.421875 14.078125 
Q 42.140625 16.75 42.140625 20.015625 
" id="LiberationSans-38"/>
      </defs>
      <g style="fill:#262626;" transform="translate(133.95125 127.895972)scale(0.08 -0.08)">
       <use xlink:href="#LiberationSans-38"/>
      </g>
     </g>
    </g>
    <g id="ytick_8">
     <g id="line2d_29">
      <path clip-path="url(#p6a36a9eca1)" d="M 144 93.72041 
L 1036.8 93.72041 
" style="fill:none;stroke:#ffffff;stroke-linecap:round;stroke-width:0.8;"/>
     </g>
     <g id="line2d_30"/>
     <g id="text_15">
      <!-- 10 -->
      <g style="fill:#262626;" transform="translate(129.5025 96.61916)scale(0.08 -0.08)">
       <use xlink:href="#LiberationSans-31"/>
       <use x="55.615234" xlink:href="#LiberationSans-30"/>
      </g>
     </g>
    </g>
    <g id="ytick_9">
     <g id="line2d_31">
      <path clip-path="url(#p6a36a9eca1)" d="M 144 62.443599 
L 1036.8 62.443599 
" style="fill:none;stroke:#ffffff;stroke-linecap:round;stroke-width:0.8;"/>
     </g>
     <g id="line2d_32"/>
     <g id="text_16">
      <!-- 12 -->
      <g style="fill:#262626;" transform="translate(129.5025 65.342349)scale(0.08 -0.08)">
       <use xlink:href="#LiberationSans-31"/>
       <use x="55.615234" xlink:href="#LiberationSans-32"/>
      </g>
     </g>
    </g>
   </g>
   <g id="line2d_33">
    <path clip-path="url(#p6a36a9eca1)" d="M 184.581818 307.8 
L 185.730631 247.487151 
L 186.879444 188.689708 
L 187.453851 169.38839 
L 188.028257 159.977446 
L 188.602664 160.757641 
L 189.17707 170.241848 
L 190.90029 216.830645 
L 191.474696 225.208493 
L 192.049102 225.060289 
L 192.623509 215.623013 
L 193.197915 197.938042 
L 194.921135 126.782239 
L 195.495541 110.194189 
L 196.069948 102.528524 
L 196.644354 104.950855 
L 197.218761 116.823851 
L 198.367574 158.357666 
L 198.94198 180.243419 
L 199.516387 197.461661 
L 200.090793 206.905435 
L 200.6652 206.949418 
L 201.239606 197.746709 
L 201.814013 181.196287 
L 202.962826 139.985235 
L 203.537232 123.476082 
L 204.111639 114.404398 
L 204.686045 114.750409 
L 205.260452 124.759048 
L 205.834858 142.890457 
L 207.558078 211.598538 
L 208.132484 226.054166 
L 208.706891 231.369009 
L 209.281297 226.816493 
L 209.855704 213.475656 
L 212.153329 138.13151 
L 212.727736 132.305202 
L 213.302142 136.015209 
L 213.876549 148.595526 
L 215.025362 189.740323 
L 215.599768 210.541574 
L 216.174175 226.123531 
L 216.748581 233.433507 
L 217.322988 230.912954 
L 217.897394 218.786833 
L 218.471801 199.023062 
L 220.19502 130.434947 
L 220.769427 117.422381 
L 221.343833 113.678881 
L 221.91824 119.445397 
L 222.492646 133.18139 
L 224.215866 187.960634 
L 224.790272 197.66852 
L 225.364679 198.292858 
L 225.939085 189.185348 
L 226.513492 171.501117 
L 228.811118 81.960772 
L 229.385524 73.483892 
L 229.959931 74.887466 
L 230.534337 85.484502 
L 231.68315 123.575108 
L 232.257556 143.307076 
L 232.831963 158.150862 
L 233.406369 165.08963 
L 233.980776 162.607838 
L 234.555182 150.973291 
L 235.129589 132.188744 
L 236.278402 87.383163 
L 236.852808 69.563767 
L 237.427215 59.479604 
L 238.001621 59.056471 
L 238.576028 68.473152 
L 239.150434 86.127527 
L 240.873654 153.806301 
L 241.44806 168.115666 
L 242.022467 173.487664 
L 242.596873 169.282747 
L 243.17128 156.662571 
L 244.894499 100.413194 
L 245.468906 88.68986 
L 246.043312 85.709608 
L 246.617719 92.51392 
L 247.192125 108.339022 
L 248.340938 156.106558 
L 248.915345 180.197339 
L 249.489751 199.052357 
L 250.064157 209.65617 
L 250.638564 210.506681 
L 251.21297 201.890027 
L 251.787377 185.824504 
L 252.93619 145.570322 
L 253.510596 129.551634 
L 254.085003 120.906408 
L 254.659409 121.514486 
L 255.233816 131.507042 
L 255.808222 149.240589 
L 257.531442 213.994532 
L 258.105848 226.314279 
L 258.680255 229.2557 
L 259.254661 222.236696 
L 259.829068 206.477737 
L 262.126694 123.551383 
L 262.7011 116.319662 
L 263.275507 118.660076 
L 263.849913 129.799579 
L 264.998726 167.541752 
L 265.573133 186.3383 
L 266.147539 199.772543 
L 266.721946 204.895307 
L 267.296352 200.280714 
L 267.870759 186.293451 
L 269.019572 139.907962 
L 270.168384 94.654594 
L 270.742791 81.892186 
L 271.317197 78.672202 
L 271.891604 85.111448 
L 272.46601 99.553464 
L 274.18923 156.028137 
L 274.763636 166.201096 
L 275.338043 167.37533 
L 275.912449 159.021562 
L 276.486856 142.408657 
L 278.210075 75.849475 
L 278.784482 61.31945 
L 279.358888 55.8 
L 279.933295 60.271103 
L 280.507701 73.905058 
L 281.656514 117.537843 
L 282.230921 139.667195 
L 282.805327 156.675998 
L 283.379734 165.619681 
L 283.95414 165.08466 
L 284.528547 155.448404 
L 285.102953 138.807646 
L 286.251766 98.90765 
L 286.826173 83.81181 
L 287.400579 76.521569 
L 287.974986 78.83435 
L 288.549392 90.788124 
L 289.123798 110.651194 
L 290.847018 182.271055 
L 291.421424 197.022992 
L 291.995831 202.534648 
L 292.570237 198.287587 
L 293.144644 185.561476 
L 294.867863 129.310533 
L 295.44227 117.682323 
L 296.016676 114.721048 
L 296.591083 121.349387 
L 297.165489 136.684868 
L 299.463115 221.085891 
L 300.037522 229.157383 
L 300.611928 227.3057 
L 301.186335 215.958178 
L 301.760741 197.258688 
L 302.909554 152.334934 
L 303.483961 134.305295 
L 304.058367 123.796689 
L 304.632774 122.591839 
L 305.20718 130.712148 
L 305.781587 146.415167 
L 307.504806 203.706214 
L 308.079213 213.195569 
L 308.653619 213.308089 
L 309.228025 203.603223 
L 309.802432 185.43712 
L 311.525651 113.568082 
L 312.100058 97.081195 
L 312.674464 89.449576 
L 313.248871 91.588249 
L 313.823277 102.60578 
L 314.97209 139.993638 
L 315.546497 158.494056 
L 316.120903 171.597196 
L 316.69531 176.444583 
L 317.269716 171.728373 
L 317.844123 157.936358 
L 318.992936 113.212254 
L 319.567342 89.938203 
L 320.141749 71.490997 
L 320.716155 61.06224 
L 321.290562 60.397064 
L 321.864968 69.472365 
L 322.439375 86.502145 
L 324.162594 149.718206 
L 324.737001 161.807037 
L 325.311407 164.851175 
L 325.885814 158.430647 
L 326.46022 143.917772 
L 328.183439 85.178043 
L 328.757846 73.682962 
L 329.332252 71.252565 
L 329.906659 78.726171 
L 330.481065 95.13585 
L 332.778691 185.103824 
L 333.353098 194.898616 
L 333.927504 195.003119 
L 334.501911 185.912632 
L 335.076317 169.825531 
L 336.22513 131.268141 
L 336.799537 116.939444 
L 337.373943 110.383203 
L 337.94835 113.280666 
L 338.522756 125.543395 
L 339.097163 145.326635 
L 340.820382 213.846561 
L 341.394789 226.700028 
L 341.969195 230.043847 
L 342.543602 223.496754 
L 343.118008 208.470553 
L 344.841228 146.134558 
L 345.415634 132.773997 
L 345.990041 128.121031 
L 346.564447 132.990263 
L 347.138854 146.391965 
L 349.436479 220.328945 
L 350.010886 225.287772 
L 350.585292 220.350297 
L 351.159699 206.087118 
L 352.308512 159.938806 
L 352.882918 135.778571 
L 353.457325 116.318019 
L 354.031731 104.701895 
L 354.606138 102.608842 
L 355.180544 109.943933 
L 355.754951 124.859651 
L 357.47817 179.293579 
L 358.052577 187.755575 
L 358.626983 186.959957 
L 359.20139 176.594728 
L 359.775796 158.136411 
L 361.499016 88.254375 
L 362.073422 73.342754 
L 362.647829 67.597692 
L 363.222235 71.801179 
L 363.796642 84.928424 
L 366.094268 161.267846 
L 366.668674 167.716919 
L 367.24308 164.671001 
L 367.817487 152.728192 
L 368.9663 112.565234 
L 369.540706 92.056099 
L 370.115113 76.642737 
L 370.689519 69.41462 
L 371.263926 71.982567 
L 371.838332 84.178724 
L 372.412739 104.085602 
L 374.135958 173.7546 
L 374.710365 187.290741 
L 375.284771 191.558022 
L 375.859178 186.250386 
L 376.433584 172.847818 
L 378.156804 117.98413 
L 378.73121 107.902529 
L 379.305617 106.799125 
L 379.880023 115.383735 
L 380.45443 132.561838 
L 382.752056 220.878453 
L 383.326462 229.19909 
L 383.900869 227.607844 
L 384.475275 216.733232 
L 385.624088 177.644289 
L 386.198494 157.160065 
L 386.772901 141.418283 
L 387.347307 133.482916 
L 387.921714 134.931837 
L 388.49612 145.564024 
L 389.070527 163.436391 
L 390.21934 206.833134 
L 390.793746 224.165006 
L 391.368153 233.87007 
L 391.942559 233.971909 
L 392.516966 224.233908 
L 393.091372 206.204636 
L 394.814592 136.811566 
L 395.388998 121.768544 
L 395.963405 115.656375 
L 396.537811 119.179011 
L 397.112218 131.237266 
L 398.835437 186.903345 
L 399.409844 198.803111 
L 399.98425 202.085446 
L 400.558657 195.648923 
L 401.133063 180.195735 
L 402.281876 132.996313 
L 402.856283 109.061661 
L 403.430689 90.293777 
L 404.005096 79.749364 
L 404.579502 78.986254 
L 405.153909 87.777767 
L 405.728315 104.157285 
L 407.451534 162.418738 
L 408.025941 172.018207 
L 408.600347 172.426053 
L 409.174754 163.444329 
L 409.74916 146.654307 
L 411.47238 83.976584 
L 412.046786 72.10546 
L 412.621193 69.552782 
L 413.195599 76.957574 
L 413.770006 93.154512 
L 416.067632 178.856181 
L 416.642038 186.951921 
L 417.216445 185.438741 
L 417.790851 175.025193 
L 418.939664 138.236072 
L 419.514071 119.625278 
L 420.088477 106.199639 
L 420.662884 100.950674 
L 421.23729 105.361595 
L 421.811697 119.129234 
L 422.96051 165.227003 
L 424.109323 210.516838 
L 424.683729 223.370728 
L 425.258135 226.664492 
L 425.832542 220.221092 
L 426.406948 205.642061 
L 428.130168 147.69067 
L 428.704574 136.707531 
L 429.278981 134.641028 
L 429.853387 142.086322 
L 430.427794 157.838481 
L 432.151013 222.498039 
L 432.72542 236.632731 
L 433.299826 241.821004 
L 433.874233 237.027174 
L 434.448639 223.022515 
L 435.597452 178.340882 
L 436.171859 155.507029 
L 436.746265 137.699531 
L 437.320672 127.911329 
L 437.895078 127.618523 
L 438.469485 136.509442 
L 439.043891 152.544899 
L 440.192704 191.786394 
L 440.767111 206.830371 
L 441.341517 214.21215 
L 441.915924 212.080033 
L 442.49033 200.335085 
L 443.064737 180.652877 
L 444.787956 109.119146 
L 445.362362 94.271053 
L 445.936769 88.670755 
L 446.511175 92.897135 
L 447.085582 105.728181 
L 448.808801 163.370452 
L 449.383208 175.804571 
L 449.957614 179.673807 
L 450.532021 173.991112 
L 451.106427 159.573929 
L 453.404053 77.814139 
L 453.97846 70.163804 
L 454.552866 72.42337 
L 455.127273 84.222742 
L 455.701679 103.467054 
L 457.424899 168.795523 
L 457.999305 180.27705 
L 458.573712 182.459251 
L 459.148118 175.254261 
L 459.722525 160.343782 
L 461.445744 104.371371 
L 462.020151 94.988298 
L 462.594557 94.883107 
L 463.168964 104.556204 
L 463.74337 122.708976 
L 465.466589 194.978406 
L 466.040996 211.734475 
L 466.615402 219.638923 
L 467.189809 217.71658 
L 467.764215 206.798977 
L 468.913028 169.08899 
L 469.487435 150.137409 
L 470.061841 136.414596 
L 470.636248 130.826989 
L 471.210654 134.744626 
L 471.785061 147.745172 
L 472.933874 191.118426 
L 473.50828 213.886549 
L 474.082687 231.933402 
L 474.657093 242.031594 
L 475.2315 242.384077 
L 475.805906 232.956343 
L 476.380313 215.482597 
L 478.103532 150.151622 
L 478.677939 137.144601 
L 479.252345 133.156082 
L 479.826752 138.672479 
L 480.401158 152.384788 
L 482.124378 209.719913 
L 482.698784 221.079867 
L 483.273191 223.481884 
L 483.847597 216.028403 
L 484.422003 199.6289 
L 486.719629 108.983278 
L 487.294036 98.892048 
L 487.868442 98.534304 
L 488.442849 107.476352 
L 489.017255 123.572267 
L 490.166068 162.727513 
L 490.740475 177.63426 
L 491.314881 184.905255 
L 491.889288 182.799844 
L 492.463694 171.341208 
L 493.038101 152.314565 
L 494.76132 85.466514 
L 495.335727 72.991592 
L 495.910133 70.003145 
L 496.48454 76.939948 
L 497.058946 92.444364 
L 498.782166 157.029306 
L 499.356572 171.381642 
L 499.930979 177.073629 
L 500.505385 173.224904 
L 501.079792 160.759936 
L 503.377417 89.002535 
L 503.951824 84.227165 
L 504.52623 89.290487 
L 505.100637 103.680768 
L 506.24945 150.269323 
L 507.398263 194.664608 
L 507.972669 206.731667 
L 508.547076 209.246061 
L 509.121482 202.239963 
L 509.695889 187.504823 
L 511.419108 132.456708 
L 511.993515 123.444396 
L 512.567921 123.593847 
L 513.142328 133.281454 
L 513.716734 151.09194 
L 515.439954 219.566214 
L 516.01436 234.183699 
L 516.588767 239.662113 
L 517.163173 235.162505 
L 517.73758 221.653548 
L 520.035206 142.390101 
L 520.609612 134.937429 
L 521.184019 136.974956 
L 521.758425 147.971107 
L 522.907238 186.635552 
L 523.481644 206.643648 
L 524.056051 221.711526 
L 524.630457 228.712009 
L 525.204864 225.980739 
L 525.77927 213.626786 
L 526.353677 193.515117 
L 528.076896 122.711757 
L 528.651303 108.669502 
L 529.225709 103.909697 
L 529.800116 108.801716 
L 530.374522 121.924733 
L 532.097742 177.088654 
L 532.672148 187.631288 
L 533.246555 189.307148 
L 533.820961 181.343496 
L 534.395368 164.772496 
L 536.692994 78.069898 
L 537.2674 69.989123 
L 537.841807 71.842801 
L 538.416213 83.060032 
L 538.99062 101.37486 
L 540.139433 144.51835 
L 540.713839 161.183309 
L 541.288246 170.130965 
L 541.862652 169.72106 
L 542.437058 160.087501 
L 543.011465 143.113094 
L 544.160278 101.061986 
L 544.734684 84.167015 
L 545.309091 74.776994 
L 545.883497 74.918858 
L 546.457904 84.887435 
L 547.03231 103.188578 
L 548.75553 173.927295 
L 549.329936 189.566713 
L 549.904343 196.277134 
L 550.478749 193.291321 
L 551.053156 181.646761 
L 553.350782 113.874144 
L 553.925188 110.132658 
L 554.499595 116.044193 
L 555.074001 130.969422 
L 556.222814 177.298923 
L 556.797221 200.935558 
L 557.371627 219.482998 
L 557.946034 229.844926 
L 558.52044 230.409039 
L 559.094847 221.343371 
L 559.669253 204.563222 
L 561.392472 144.128023 
L 561.966879 133.536537 
L 562.541285 132.086736 
L 563.115692 140.04359 
L 563.690098 155.888586 
L 565.413318 216.568946 
L 565.987724 228.048097 
L 566.562131 230.284528 
L 567.136537 222.582045 
L 567.710944 206.050099 
L 570.00857 118.106455 
L 570.582976 109.302491 
L 571.157383 110.150499 
L 571.731789 120.005585 
L 572.880602 156.191067 
L 573.455009 174.797525 
L 574.029415 188.400101 
L 574.603822 193.964412 
L 575.178228 189.949052 
L 575.752635 176.594412 
L 576.901448 131.168717 
L 578.050261 86.210197 
L 578.624667 73.437607 
L 579.199074 70.233347 
L 579.77348 76.833653 
L 580.347887 91.691318 
L 582.071106 151.47666 
L 582.645512 163.366939 
L 583.219919 166.411633 
L 583.794325 159.94934 
L 584.368732 145.120404 
L 586.091951 82.465898 
L 586.666358 68.731083 
L 587.240764 63.862146 
L 587.815171 68.950436 
L 588.389577 83.281565 
L 589.53839 128.879697 
L 590.112797 152.3327 
L 590.687203 170.842769 
L 591.26161 181.369982 
L 591.836016 182.376846 
L 592.410423 174.110039 
L 592.984829 158.551686 
L 594.133642 119.692252 
L 594.708049 104.552223 
L 595.282455 96.924996 
L 595.856862 98.717281 
L 596.431268 110.09013 
L 597.005675 129.425647 
L 598.728894 200.380001 
L 599.303301 215.168037 
L 599.877707 220.707808 
L 600.452113 216.361191 
L 601.02652 203.293314 
L 603.324146 130.586407 
L 603.898552 125.724579 
L 604.472959 130.386975 
L 605.047365 143.82192 
L 606.196178 186.123767 
L 606.770585 207.174893 
L 607.344991 222.813808 
L 607.919398 230.048913 
L 608.493804 227.403613 
L 609.068211 215.190572 
L 609.642617 195.454986 
L 611.365837 127.992609 
L 611.940243 115.640942 
L 612.51465 112.593425 
L 613.089056 119.003627 
L 613.663463 133.250146 
L 615.386682 188.33656 
L 615.961089 197.772738 
L 616.535495 198.036811 
L 617.109902 188.567499 
L 617.684308 170.604441 
L 619.407528 98.470889 
L 619.981934 81.619893 
L 620.55634 73.61152 
L 621.130747 75.479723 
L 621.705153 86.451941 
L 622.853966 124.768378 
L 623.428373 144.300611 
L 624.002779 158.764053 
L 624.577186 165.204078 
L 625.151592 162.187977 
L 625.725999 150.071813 
L 626.874812 108.200478 
L 627.449218 85.993754 
L 628.023625 68.387635 
L 628.598031 58.644314 
L 629.172438 58.612187 
L 629.746844 68.38329 
L 630.321251 86.275618 
L 632.04447 153.556931 
L 632.618877 167.401737 
L 633.193283 172.243242 
L 633.76769 167.529283 
L 634.342096 154.505929 
L 636.065316 98.181667 
L 636.639722 86.806021 
L 637.214129 84.272295 
L 637.788535 91.537149 
L 638.362942 107.750861 
L 640.660567 198.337739 
L 641.234974 208.542867 
L 641.80938 208.975338 
L 642.383787 200.008316 
L 642.958193 183.735942 
L 644.107006 143.666073 
L 644.681413 128.03246 
L 645.255819 119.904597 
L 645.830226 121.083077 
L 646.404632 131.61083 
L 646.979039 149.763354 
L 648.702258 214.657025 
L 649.276665 226.687252 
L 649.851071 229.269862 
L 650.425478 221.908923 
L 650.999884 205.907766 
L 652.723104 139.106491 
L 653.29751 123.79929 
L 653.871917 117.116629 
L 654.446323 120.004018 
L 655.02073 131.601938 
L 657.318356 201.56466 
L 657.892762 206.279484 
L 658.467169 201.223081 
L 659.041575 186.847196 
L 660.190388 140.121055 
L 661.339201 95.266922 
L 661.913607 82.906666 
L 662.488014 80.126419 
L 663.06242 86.955583 
L 663.636827 101.657994 
L 665.360046 157.734929 
L 665.934453 167.425307 
L 666.508859 168.043797 
L 667.083266 159.148725 
L 667.657672 142.092906 
L 669.380892 75.282976 
L 669.955298 61.018638 
L 670.529705 55.850576 
L 671.104111 60.674086 
L 671.678518 74.576491 
L 672.827331 118.245246 
L 673.401737 140.096673 
L 673.976144 156.661384 
L 674.55055 165.058764 
L 675.124957 163.958789 
L 675.699363 153.826736 
L 676.27377 136.835259 
L 677.422583 96.834357 
L 677.996989 81.980758 
L 678.571395 75.064269 
L 679.145802 77.803267 
L 679.720208 90.148402 
L 680.294615 110.288607 
L 682.017834 181.658173 
L 682.592241 196.010596 
L 683.166647 201.066613 
L 683.741054 196.394794 
L 684.31546 183.357685 
L 686.03868 127.327643 
L 686.613086 116.141336 
L 687.187493 113.714151 
L 687.761899 120.882641 
L 688.336306 136.678244 
L 690.633932 221.185494 
L 691.208338 228.912133 
L 691.782745 226.696484 
L 692.357151 215.052214 
L 692.931558 196.197303 
L 694.080371 151.543691 
L 694.654777 133.927823 
L 695.229184 123.952649 
L 695.80359 123.32039 
L 696.377997 131.964122 
L 696.952403 148.061479 
L 698.675622 205.364355 
L 699.250029 214.512388 
L 699.824435 214.213051 
L 700.398842 204.112586 
L 700.973248 185.649544 
L 702.696468 113.945794 
L 703.270874 97.847421 
L 703.845281 90.67856 
L 704.419687 93.268422 
L 704.994094 104.640288 
L 707.29172 173.175753 
L 707.866126 177.511638 
L 708.440533 172.257502 
L 709.014939 157.988571 
L 710.163752 112.766961 
L 710.738159 89.534305 
L 711.312565 71.302196 
L 711.886972 61.205065 
L 712.461378 60.908581 
L 713.035785 70.302729 
L 713.610191 87.52337 
L 715.333411 150.168589 
L 715.907817 161.738236 
L 716.482224 164.20385 
L 717.05663 157.233479 
L 717.631036 142.282623 
L 719.354256 83.366701 
L 719.928662 72.17346 
L 720.503069 70.132776 
L 721.077475 77.998493 
L 721.651882 94.718 
L 723.949508 184.215455 
L 724.523914 193.5399 
L 725.098321 193.166102 
L 725.672727 183.676276 
L 726.247134 167.34271 
L 727.395947 128.904494 
L 727.970353 114.927366 
L 728.54476 108.849974 
L 729.119166 112.272754 
L 729.693573 125.019302 
L 730.267979 145.165962 
L 731.991199 213.673462 
L 732.565605 226.20584 
L 733.140012 229.173882 
L 733.714418 222.283024 
L 734.288825 207.02654 
L 736.012044 145.126068 
L 736.58645 132.260108 
L 737.160857 128.18079 
L 737.735263 133.615814 
L 738.30967 147.489787 
L 740.032889 208.125825 
L 740.607296 221.48585 
L 741.181702 226.075932 
L 741.756109 220.748826 
L 742.330515 206.16132 
L 743.479328 159.82518 
L 744.053735 135.858177 
L 744.628141 116.758971 
L 745.202548 105.612858 
L 745.776954 104.017395 
L 746.351361 111.789913 
L 746.925767 127.004699 
L 748.07458 165.758895 
L 748.648987 181.137744 
L 749.223393 189.15555 
L 749.7978 187.849821 
L 750.372206 176.99625 
L 750.946613 158.153527 
L 752.669832 88.191397 
L 753.244239 73.586032 
L 753.818645 68.219151 
L 754.393052 72.787041 
L 754.967458 86.180848 
L 757.265084 161.755196 
L 757.83949 167.640049 
L 758.413897 164.016901 
L 758.988303 151.571207 
L 760.137116 110.893157 
L 760.711523 90.429233 
L 761.285929 75.239895 
L 761.860336 68.355486 
L 762.434742 71.306288 
L 763.009149 83.837531 
L 763.583555 103.954631 
L 765.306775 173.150166 
L 765.881181 186.21987 
L 766.455588 189.973685 
L 767.029994 184.193323 
L 767.604401 170.440524 
L 769.32762 115.700735 
L 769.902027 106.022985 
L 770.476433 105.408131 
L 771.05084 114.479384 
L 771.625246 132.057544 
L 773.348466 203.483176 
L 773.922872 220.24967 
L 774.497279 228.191157 
L 775.071685 226.216162 
L 775.646091 215.039095 
L 776.794904 175.849062 
L 777.369311 155.619199 
L 777.943717 140.309019 
L 778.518124 132.921318 
L 779.09253 134.951714 
L 779.666937 146.110951 
L 780.241343 164.377927 
L 781.390156 207.986936 
L 781.964563 225.135815 
L 782.538969 234.524 
L 783.113376 234.252037 
L 783.687782 224.170166 
L 784.262189 205.907508 
L 785.985408 136.902271 
L 786.559815 122.317531 
L 787.134221 116.729866 
L 787.708628 120.756243 
L 788.283034 133.212914 
L 790.006254 188.935031 
L 790.58066 200.475966 
L 791.155067 203.296956 
L 791.729473 196.381299 
L 792.30388 180.517598 
L 794.601506 90.645146 
L 795.175912 80.479732 
L 795.750318 80.1187 
L 796.324725 89.248426 
L 796.899131 105.825986 
L 798.047944 147.040248 
L 798.622351 163.501805 
L 799.196757 172.578356 
L 799.771164 172.40906 
L 800.34557 162.884265 
L 800.919977 145.666847 
L 802.643196 82.832183 
L 803.217603 71.251675 
L 803.792009 69.063793 
L 804.366416 76.82155 
L 804.940822 93.276341 
L 806.664042 162.079981 
L 807.238448 178.246824 
L 807.812855 185.815044 
L 808.387261 183.774875 
L 808.961668 172.921456 
L 810.110481 135.773253 
L 810.684887 117.294858 
L 811.259294 104.182504 
L 811.8337 99.366131 
L 812.408107 104.246883 
L 812.982513 118.434244 
L 814.131326 164.940376 
L 815.280139 209.896898 
L 815.854545 222.37757 
L 816.428952 225.256711 
L 817.003358 218.444489 
L 817.577765 203.622508 
L 819.300984 146.108683 
L 819.875391 135.620845 
L 820.449797 134.123788 
L 821.024204 142.125135 
L 821.59861 158.335525 
L 823.32183 223.284398 
L 823.896236 237.159566 
L 824.470643 241.997636 
L 825.045049 236.847313 
L 825.619456 222.565124 
L 826.768269 177.818001 
L 827.342675 155.244185 
L 827.917082 137.862557 
L 828.491488 128.603099 
L 829.065895 128.858892 
L 829.640301 138.230448 
L 830.214708 154.602133 
L 831.363521 193.913641 
L 831.937927 208.696744 
L 832.512334 215.682812 
L 833.08674 213.098808 
L 833.661146 200.933281 
L 834.235553 180.941888 
L 835.958772 109.558113 
L 836.533179 95.07936 
L 837.107585 89.907905 
L 837.681992 94.535955 
L 838.256398 107.658391 
L 839.979618 165.033199 
L 840.554024 177.010401 
L 841.128431 180.32943 
L 841.702837 174.089201 
L 842.277244 159.19363 
L 844.57487 77.267278 
L 845.149276 69.956017 
L 845.723683 72.579019 
L 846.298089 84.679726 
L 846.872496 104.088491 
L 848.021309 150.236082 
L 848.595715 168.774971 
L 849.170122 179.737863 
L 849.744528 181.361307 
L 850.318935 173.645669 
L 850.893341 158.353013 
L 852.616561 102.411305 
L 853.190967 93.38932 
L 853.765373 93.719712 
L 854.33978 103.816064 
L 854.914186 122.29677 
L 856.637406 194.501805 
L 857.211812 210.900924 
L 857.786219 218.371261 
L 858.360625 216.023002 
L 858.935032 204.773067 
L 860.083845 166.92871 
L 860.658251 148.220365 
L 861.232658 134.9164 
L 861.807064 129.859161 
L 862.381471 134.33509 
L 862.955877 147.834139 
L 864.10469 191.748141 
L 864.679097 214.493953 
L 865.253503 232.341304 
L 865.82791 242.11893 
L 866.402316 242.108654 
L 866.976723 232.362855 
L 867.551129 214.694414 
L 869.274349 149.906145 
L 869.848755 137.407497 
L 870.423162 133.987458 
L 870.997568 140.04461 
L 871.571975 154.186424 
L 873.295194 211.666596 
L 873.8696 222.708738 
L 874.444007 224.700943 
L 875.018413 216.831018 
L 875.59282 200.093578 
L 877.890446 109.791804 
L 878.464852 100.142386 
L 879.039259 100.237442 
L 879.613665 109.556385 
L 880.188072 125.87887 
L 881.336885 164.878966 
L 881.911291 179.415879 
L 882.485698 186.188408 
L 883.060104 183.536346 
L 883.634511 171.571018 
L 884.208917 152.157252 
L 885.932137 85.257916 
L 886.506543 73.089692 
L 887.08095 70.467589 
L 887.655356 77.74386 
L 888.229763 93.479004 
L 889.952982 157.648036 
L 890.527389 171.514336 
L 891.101795 176.640678 
L 891.676202 172.233313 
L 892.250608 159.302632 
L 894.548234 87.525062 
L 895.12264 83.136597 
L 895.697047 88.612223 
L 896.271453 103.353699 
L 897.420266 150.192574 
L 897.994673 174.544349 
L 898.569079 194.0983 
L 899.143486 205.725517 
L 899.717892 207.769853 
L 900.292299 200.351079 
L 900.866705 185.339235 
L 902.589925 130.654105 
L 903.164331 122.108437 
L 903.738738 122.792412 
L 904.313144 132.994668 
L 904.887551 151.217145 
L 906.61077 219.849971 
L 907.185177 234.18141 
L 907.759583 239.297165 
L 908.33399 234.443662 
L 908.908396 220.673884 
L 911.206022 142.1701 
L 911.780428 135.27884 
L 912.354835 137.891579 
L 912.929241 149.389225 
L 914.078054 188.564808 
L 914.652461 208.522864 
L 915.226867 223.358425 
L 915.801274 230.002587 
L 916.37568 226.871141 
L 916.950087 214.160249 
L 917.524493 193.812704 
L 919.247713 123.395755 
L 919.822119 109.792108 
L 920.396526 105.520181 
L 920.970932 110.861842 
L 921.545339 124.314225 
L 923.268558 179.296235 
L 923.842965 189.413747 
L 924.417371 190.577605 
L 924.991778 182.101633 
L 925.566184 165.103179 
L 927.289404 94.937281 
L 927.86381 78.421973 
L 928.438217 70.702662 
L 929.012623 72.927239 
L 929.58703 84.438811 
L 930.735843 124.721927 
L 931.310249 145.739781 
L 931.884655 161.97467 
L 932.459062 170.375921 
L 933.033468 169.38506 
L 933.607875 159.224295 
L 934.182281 141.855039 
L 935.331094 99.595171 
L 935.905501 82.889378 
L 936.479907 73.826739 
L 937.054314 74.357753 
L 937.62872 84.690366 
L 938.203127 103.24928 
L 939.926346 173.686676 
L 940.500753 188.89654 
L 941.075159 195.109362 
L 941.649566 191.644512 
L 942.223972 179.624211 
L 943.947192 124.091743 
L 944.521598 112.241777 
L 945.096005 108.987472 
L 945.670411 115.406534 
L 946.244818 130.772832 
L 947.393631 177.52025 
L 947.968037 201.077826 
L 948.542444 219.378136 
L 949.11685 229.384485 
L 949.691257 229.565359 
L 950.265663 220.17569 
L 950.840069 203.207586 
L 952.563289 143.373933 
L 953.137695 133.309633 
L 953.712102 132.441963 
L 954.286508 140.947626 
L 954.860915 157.226001 
L 956.584134 218.07207 
L 957.158541 229.256506 
L 957.732947 231.119133 
L 958.307354 223.049648 
L 958.88176 206.241234 
L 961.179386 118.931542 
L 961.753793 110.631486 
L 962.328199 111.98476 
L 962.902606 122.259818 
L 964.051419 158.767388 
L 964.625825 177.222288 
L 965.200232 190.490563 
L 965.774638 195.598663 
L 966.349045 191.086978 
L 966.923451 177.28352 
L 968.072264 131.387136 
L 969.221077 86.703152 
L 969.795483 74.279065 
L 970.36989 71.468966 
L 970.944296 78.422076 
L 971.518703 93.510748 
L 973.241922 152.837529 
L 973.816329 164.22672 
L 974.390735 166.695447 
L 974.965142 159.669718 
L 975.539548 144.374723 
L 977.262768 81.415027 
L 977.837174 67.941063 
L 978.411581 63.428541 
L 978.985987 68.884693 
L 979.560394 83.509568 
L 980.709207 129.216448 
L 981.283613 152.433829 
L 981.85802 170.542493 
L 982.432426 180.564427 
L 983.006833 181.044569 
L 983.581239 172.317368 
L 984.155646 156.441878 
L 985.304459 117.550943 
L 985.878865 102.693399 
L 986.453272 95.486258 
L 987.027678 97.757962 
L 987.602085 109.581924 
L 988.176491 129.25946 
L 989.89971 200.163472 
L 990.474117 214.611089 
L 991.048523 219.747052 
L 991.62293 215.019581 
L 992.197336 201.677149 
L 993.920556 142.607276 
L 994.494962 129.740408 
L 995.069369 125.439967 
L 995.643775 130.67205 
L 996.218182 144.598189 
L 996.218182 144.598189 
" style="fill:none;stroke:#4c72b0;stroke-linecap:round;stroke-width:1.4;"/>
   </g>
   <g id="line2d_34">
    <path clip-path="url(#p6a36a9eca1)" d="M 184.581818 246.207201 
L 447.085582 245.377176 
L 655.595136 244.937858 
L 846.872496 244.755674 
L 996.218182 244.773333 
L 996.218182 244.773333 
" style="fill:none;stroke:#55a868;stroke-linecap:round;stroke-width:1.4;"/>
   </g>
   <g id="patch_3">
    <path d="M 144 320.4 
L 144 43.2 
" style="fill:none;"/>
   </g>
   <g id="patch_4">
    <path d="M 1036.8 320.4 
L 1036.8 43.2 
" style="fill:none;"/>
   </g>
   <g id="patch_5">
    <path d="M 144 320.4 
L 1036.8 320.4 
" style="fill:none;"/>
   </g>
   <g id="patch_6">
    <path d="M 144 43.2 
L 1036.8 43.2 
" style="fill:none;"/>
   </g>
   <g id="legend_1">
    <g id="line2d_35">
     <path d="M 1002.75125 53.3975 
L 1018.75125 53.3975 
" style="fill:none;stroke:#4c72b0;stroke-linecap:round;stroke-width:1.4;"/>
    </g>
    <g id="line2d_36"/>
    <g id="text_17">
     <!-- a -->
     <defs>
      <path d="M 20.21875 -0.984375 
Q 12.25 -0.984375 8.25 3.21875 
Q 4.25 7.421875 4.25 14.75 
Q 4.25 19.96875 6.21875 23.3125 
Q 8.203125 26.65625 11.390625 28.5625 
Q 14.59375 30.46875 18.6875 31.203125 
Q 22.796875 31.9375 27.046875 32.03125 
L 38.921875 32.234375 
L 38.921875 35.109375 
Q 38.921875 38.375 38.234375 40.671875 
Q 37.546875 42.96875 36.125 44.375 
Q 34.71875 45.796875 32.59375 46.453125 
Q 30.46875 47.125 27.59375 47.125 
Q 25.046875 47.125 23 46.75 
Q 20.953125 46.390625 19.4375 45.4375 
Q 17.921875 44.484375 16.984375 42.84375 
Q 16.0625 41.21875 15.765625 38.71875 
L 6.59375 39.546875 
Q 7.078125 42.671875 8.4375 45.28125 
Q 9.8125 47.90625 12.328125 49.796875 
Q 14.84375 51.703125 18.625 52.75 
Q 22.40625 53.8125 27.78125 53.8125 
Q 37.75 53.8125 42.765625 49.234375 
Q 47.796875 44.671875 47.796875 36.03125 
L 47.796875 13.28125 
Q 47.796875 9.375 48.828125 7.390625 
Q 49.859375 5.421875 52.734375 5.421875 
Q 53.46875 5.421875 54.203125 5.515625 
Q 54.9375 5.609375 55.609375 5.765625 
L 55.609375 0.296875 
Q 53.953125 -0.09375 52.3125 -0.28125 
Q 50.6875 -0.484375 48.828125 -0.484375 
Q 46.34375 -0.484375 44.5625 0.171875 
Q 42.78125 0.828125 41.65625 2.171875 
Q 40.53125 3.515625 39.9375 5.484375 
Q 39.359375 7.46875 39.203125 10.109375 
L 38.921875 10.109375 
Q 37.5 7.5625 35.8125 5.515625 
Q 34.125 3.46875 31.875 2.03125 
Q 29.640625 0.59375 26.78125 -0.1875 
Q 23.921875 -0.984375 20.21875 -0.984375 
M 22.21875 5.609375 
Q 26.421875 5.609375 29.5625 7.140625 
Q 32.71875 8.6875 34.78125 11.078125 
Q 36.859375 13.484375 37.890625 16.3125 
Q 38.921875 19.140625 38.921875 21.734375 
L 38.921875 26.078125 
L 29.296875 25.875 
Q 26.078125 25.828125 23.171875 25.40625 
Q 20.265625 25 18.0625 23.78125 
Q 15.875 22.5625 14.578125 20.359375 
Q 13.28125 18.171875 13.28125 14.59375 
Q 13.28125 10.296875 15.59375 7.953125 
Q 17.921875 5.609375 22.21875 5.609375 
" id="LiberationSans-61"/>
     </defs>
     <g style="fill:#262626;" transform="translate(1025.15125 56.1975)scale(0.08 -0.08)">
      <use xlink:href="#LiberationSans-61"/>
     </g>
    </g>
    <g id="line2d_37">
     <path d="M 1002.75125 64.855 
L 1018.75125 64.855 
" style="fill:none;stroke:#55a868;stroke-linecap:round;stroke-width:1.4;"/>
    </g>
    <g id="line2d_38"/>
    <g id="text_18">
     <!-- b -->
     <defs>
      <path d="M 51.421875 26.65625 
Q 51.421875 -0.984375 31.984375 -0.984375 
Q 25.984375 -0.984375 22 1.1875 
Q 18.015625 3.375 15.53125 8.203125 
L 15.4375 8.203125 
Q 15.4375 6.9375 15.359375 5.5625 
Q 15.28125 4.203125 15.203125 3.03125 
Q 15.140625 1.859375 15.0625 1.03125 
Q 14.984375 0.203125 14.9375 0 
L 6.453125 0 
Q 6.5 0.4375 6.546875 1.484375 
Q 6.59375 2.546875 6.640625 4 
Q 6.6875 5.46875 6.703125 7.21875 
Q 6.734375 8.984375 6.734375 10.890625 
L 6.734375 72.46875 
L 15.53125 72.46875 
L 15.53125 51.8125 
Q 15.53125 50.34375 15.5 49 
Q 15.484375 47.65625 15.4375 46.625 
Q 15.375 45.40625 15.328125 44.34375 
L 15.53125 44.34375 
Q 17.96875 49.421875 22 51.609375 
Q 26.03125 53.8125 31.984375 53.8125 
Q 42 53.8125 46.703125 47.0625 
Q 51.421875 40.328125 51.421875 26.65625 
M 42.1875 26.375 
Q 42.1875 31.84375 41.5 35.75 
Q 40.828125 39.65625 39.3125 42.15625 
Q 37.796875 44.671875 35.453125 45.84375 
Q 33.109375 47.015625 29.734375 47.015625 
Q 26.265625 47.015625 23.609375 45.890625 
Q 20.953125 44.78125 19.171875 42.28125 
Q 17.390625 39.796875 16.453125 35.734375 
Q 15.53125 31.6875 15.53125 25.828125 
Q 15.53125 20.171875 16.453125 16.3125 
Q 17.390625 12.453125 19.171875 10.03125 
Q 20.953125 7.625 23.578125 6.5625 
Q 26.21875 5.515625 29.640625 5.515625 
Q 32.859375 5.515625 35.203125 6.640625 
Q 37.546875 7.765625 39.109375 10.25 
Q 40.671875 12.75 41.421875 16.71875 
Q 42.1875 20.703125 42.1875 26.375 
" id="LiberationSans-62"/>
     </defs>
     <g style="fill:#262626;" transform="translate(1025.15125 67.655)scale(0.08 -0.08)">
      <use xlink:href="#LiberationSans-62"/>
     </g>
    </g>
   </g>
  </g>
 </g>
 <defs>
  <clipPath id="p6a36a9eca1">
   <rect height="277.2" width="892.8" x="144" y="43.2"/>
  </clipPath>
 </defs>
</svg>
