<?xml version="1.0" encoding="utf-8" standalone="no"?>
<!DOCTYPE svg PUBLIC "-//W3C//DTD SVG 1.1//EN"
  "http://www.w3.org/Graphics/SVG/1.1/DTD/svg11.dtd">
<!-- Created with matplotlib (http://matplotlib.org/) -->
<svg height="360pt" version="1.1" viewBox="0 0 1152 360" width="1152pt" xmlns="http://www.w3.org/2000/svg" xmlns:xlink="http://www.w3.org/1999/xlink">
 <defs>
  <style type="text/css">
*{stroke-linecap:butt;stroke-linejoin:round;}
  </style>
 </defs>
 <g id="figure_1">
  <g id="patch_1">
   <path d="M 0 360 
L 1152 360 
L 1152 0 
L 0 0 
z
" style="fill:#ffffff;"/>
  </g>
  <g id="axes_1">
   <g id="patch_2">
    <path d="M 144 320.4 
L 1036.8 320.4 
L 1036.8 43.2 
L 144 43.2 
z
" style="fill:#eaeaf2;"/>
   </g>
   <g id="matplotlib.axis_1">
    <g id="xtick_1">
     <g id="line2d_1">
      <path clip-path="url(#p10700c9e5f)" d="M 184.581818 320.4 
L 184.581818 43.2 
" style="fill:none;stroke:#ffffff;stroke-linecap:round;stroke-width:0.8;"/>
     </g>
     <g id="line2d_2"/>
     <g id="text_1">
      <!-- 0 -->
      <defs>
       <path d="M 51.703125 34.421875 
Q 51.703125 24.515625 49.828125 17.75 
Q 47.953125 10.984375 44.703125 6.8125 
Q 41.453125 2.640625 37.0625 0.828125 
Q 32.671875 -0.984375 27.6875 -0.984375 
Q 22.65625 -0.984375 18.3125 0.828125 
Q 13.96875 2.640625 10.765625 6.78125 
Q 7.5625 10.9375 5.734375 17.703125 
Q 3.90625 24.46875 3.90625 34.421875 
Q 3.90625 44.828125 5.734375 51.640625 
Q 7.5625 58.453125 10.78125 62.5 
Q 14.015625 66.546875 18.40625 68.1875 
Q 22.796875 69.828125 27.984375 69.828125 
Q 32.90625 69.828125 37.21875 68.1875 
Q 41.546875 66.546875 44.765625 62.5 
Q 48 58.453125 49.84375 51.640625 
Q 51.703125 44.828125 51.703125 34.421875 
M 42.78125 34.421875 
Q 42.78125 42.625 41.796875 48.0625 
Q 40.828125 53.515625 38.921875 56.765625 
Q 37.015625 60.015625 34.25 61.359375 
Q 31.5 62.703125 27.984375 62.703125 
Q 24.265625 62.703125 21.4375 61.328125 
Q 18.609375 59.96875 16.671875 56.71875 
Q 14.75 53.46875 13.765625 48.015625 
Q 12.796875 42.578125 12.796875 34.421875 
Q 12.796875 26.515625 13.796875 21.09375 
Q 14.796875 15.671875 16.71875 12.375 
Q 18.65625 9.078125 21.4375 7.640625 
Q 24.21875 6.203125 27.78125 6.203125 
Q 31.25 6.203125 34.03125 7.640625 
Q 36.8125 9.078125 38.734375 12.375 
Q 40.671875 15.671875 41.71875 21.09375 
Q 42.78125 26.515625 42.78125 34.421875 
" id="LiberationSans-30"/>
      </defs>
      <g style="fill:#262626;" transform="translate(182.357443 331.7975)scale(0.08 -0.08)">
       <use xlink:href="#LiberationSans-30"/>
      </g>
     </g>
    </g>
    <g id="xtick_2">
     <g id="line2d_3">
      <path clip-path="url(#p10700c9e5f)" d="M 299.625952 320.4 
L 299.625952 43.2 
" style="fill:none;stroke:#ffffff;stroke-linecap:round;stroke-width:0.8;"/>
     </g>
     <g id="line2d_4"/>
     <g id="text_2">
      <!-- 200 -->
      <defs>
       <path d="M 5.03125 0 
L 5.03125 6.203125 
Q 7.515625 11.921875 11.109375 16.28125 
Q 14.703125 20.65625 18.65625 24.1875 
Q 22.609375 27.734375 26.484375 30.765625 
Q 30.375 33.796875 33.5 36.8125 
Q 36.625 39.84375 38.546875 43.15625 
Q 40.484375 46.484375 40.484375 50.6875 
Q 40.484375 53.609375 39.59375 55.828125 
Q 38.71875 58.0625 37.0625 59.5625 
Q 35.40625 61.078125 33.078125 61.828125 
Q 30.765625 62.59375 27.9375 62.59375 
Q 25.296875 62.59375 22.96875 61.859375 
Q 20.65625 61.140625 18.84375 59.671875 
Q 17.046875 58.203125 15.890625 56.03125 
Q 14.75 53.859375 14.40625 50.984375 
L 5.421875 51.8125 
Q 5.859375 55.515625 7.46875 58.78125 
Q 9.078125 62.0625 11.90625 64.53125 
Q 14.75 67 18.71875 68.40625 
Q 22.703125 69.828125 27.9375 69.828125 
Q 33.0625 69.828125 37.0625 68.609375 
Q 41.0625 67.390625 43.8125 64.984375 
Q 46.578125 62.59375 48.046875 59.078125 
Q 49.515625 55.5625 49.515625 50.984375 
Q 49.515625 47.515625 48.265625 44.390625 
Q 47.015625 41.265625 44.9375 38.421875 
Q 42.875 35.59375 40.140625 32.953125 
Q 37.40625 30.328125 34.421875 27.8125 
Q 31.453125 25.296875 28.421875 22.828125 
Q 25.390625 20.359375 22.71875 17.859375 
Q 20.0625 15.375 17.96875 12.8125 
Q 15.875 10.25 14.703125 7.46875 
L 50.59375 7.46875 
L 50.59375 0 
z
" id="LiberationSans-32"/>
      </defs>
      <g style="fill:#262626;" transform="translate(292.952827 331.7975)scale(0.08 -0.08)">
       <use xlink:href="#LiberationSans-32"/>
       <use x="55.615234" xlink:href="#LiberationSans-30"/>
       <use x="111.230469" xlink:href="#LiberationSans-30"/>
      </g>
     </g>
    </g>
    <g id="xtick_3">
     <g id="line2d_5">
      <path clip-path="url(#p10700c9e5f)" d="M 414.670086 320.4 
L 414.670086 43.2 
" style="fill:none;stroke:#ffffff;stroke-linecap:round;stroke-width:0.8;"/>
     </g>
     <g id="line2d_6"/>
     <g id="text_3">
      <!-- 400 -->
      <defs>
       <path d="M 43.015625 15.578125 
L 43.015625 0 
L 34.71875 0 
L 34.71875 15.578125 
L 2.296875 15.578125 
L 2.296875 22.40625 
L 33.796875 68.796875 
L 43.015625 68.796875 
L 43.015625 22.515625 
L 52.6875 22.515625 
L 52.6875 15.578125 
z
M 34.71875 58.890625 
Q 34.625 58.640625 34.234375 57.9375 
Q 33.84375 57.234375 33.34375 56.34375 
Q 32.859375 55.46875 32.34375 54.5625 
Q 31.84375 53.65625 31.453125 53.078125 
L 13.8125 27.09375 
Q 13.578125 26.703125 13.109375 26.0625 
Q 12.640625 25.4375 12.15625 24.78125 
Q 11.671875 24.125 11.171875 23.484375 
Q 10.6875 22.859375 10.40625 22.515625 
L 34.71875 22.515625 
z
" id="LiberationSans-34"/>
      </defs>
      <g style="fill:#262626;" transform="translate(407.996961 331.7975)scale(0.08 -0.08)">
       <use xlink:href="#LiberationSans-34"/>
       <use x="55.615234" xlink:href="#LiberationSans-30"/>
       <use x="111.230469" xlink:href="#LiberationSans-30"/>
      </g>
     </g>
    </g>
    <g id="xtick_4">
     <g id="line2d_7">
      <path clip-path="url(#p10700c9e5f)" d="M 529.714219 320.4 
L 529.714219 43.2 
" style="fill:none;stroke:#ffffff;stroke-linecap:round;stroke-width:0.8;"/>
     </g>
     <g id="line2d_8"/>
     <g id="text_4">
      <!-- 600 -->
      <defs>
       <path d="M 51.21875 22.515625 
Q 51.21875 17.328125 49.78125 13 
Q 48.34375 8.6875 45.53125 5.578125 
Q 42.71875 2.484375 38.5625 0.75 
Q 34.421875 -0.984375 29 -0.984375 
Q 23 -0.984375 18.5 1.3125 
Q 14.015625 3.609375 11.03125 7.921875 
Q 8.0625 12.25 6.5625 18.53125 
Q 5.078125 24.8125 5.078125 32.8125 
Q 5.078125 42 6.765625 48.921875 
Q 8.453125 55.859375 11.625 60.5 
Q 14.796875 65.140625 19.359375 67.484375 
Q 23.921875 69.828125 29.6875 69.828125 
Q 33.203125 69.828125 36.28125 69.09375 
Q 39.359375 68.359375 41.875 66.71875 
Q 44.390625 65.09375 46.28125 62.40625 
Q 48.1875 59.71875 49.3125 55.8125 
L 40.921875 54.296875 
Q 39.546875 58.734375 36.546875 60.71875 
Q 33.546875 62.703125 29.59375 62.703125 
Q 25.984375 62.703125 23.046875 60.984375 
Q 20.125 59.28125 18.0625 55.875 
Q 16.015625 52.484375 14.90625 47.359375 
Q 13.8125 42.234375 13.8125 35.40625 
Q 16.21875 39.84375 20.5625 42.15625 
Q 24.90625 44.484375 30.515625 44.484375 
Q 35.203125 44.484375 39.015625 42.96875 
Q 42.828125 41.453125 45.53125 38.59375 
Q 48.25 35.75 49.734375 31.671875 
Q 51.21875 27.59375 51.21875 22.515625 
M 42.28125 22.125 
Q 42.28125 25.6875 41.40625 28.5625 
Q 40.53125 31.453125 38.765625 33.46875 
Q 37.015625 35.5 34.421875 36.59375 
Q 31.84375 37.703125 28.421875 37.703125 
Q 26.03125 37.703125 23.578125 36.984375 
Q 21.140625 36.28125 19.15625 34.6875 
Q 17.1875 33.109375 15.9375 30.515625 
Q 14.703125 27.9375 14.703125 24.21875 
Q 14.703125 20.40625 15.671875 17.109375 
Q 16.65625 13.8125 18.484375 11.375 
Q 20.3125 8.9375 22.890625 7.515625 
Q 25.484375 6.109375 28.71875 6.109375 
Q 31.890625 6.109375 34.40625 7.203125 
Q 36.921875 8.296875 38.671875 10.375 
Q 40.4375 12.453125 41.359375 15.421875 
Q 42.28125 18.40625 42.28125 22.125 
" id="LiberationSans-36"/>
      </defs>
      <g style="fill:#262626;" transform="translate(523.041094 331.7975)scale(0.08 -0.08)">
       <use xlink:href="#LiberationSans-36"/>
       <use x="55.615234" xlink:href="#LiberationSans-30"/>
       <use x="111.230469" xlink:href="#LiberationSans-30"/>
      </g>
     </g>
    </g>
    <g id="xtick_5">
     <g id="line2d_9">
      <path clip-path="url(#p10700c9e5f)" d="M 644.758353 320.4 
L 644.758353 43.2 
" style="fill:none;stroke:#ffffff;stroke-linecap:round;stroke-width:0.8;"/>
     </g>
     <g id="line2d_10"/>
     <g id="text_5">
      <!-- 800 -->
      <defs>
       <path d="M 51.265625 19.1875 
Q 51.265625 14.796875 49.875 11.109375 
Q 48.484375 7.421875 45.625 4.734375 
Q 42.78125 2.046875 38.328125 0.53125 
Q 33.890625 -0.984375 27.828125 -0.984375 
Q 21.78125 -0.984375 17.359375 0.53125 
Q 12.9375 2.046875 10.03125 4.703125 
Q 7.125 7.375 5.734375 11.0625 
Q 4.34375 14.75 4.34375 19.09375 
Q 4.34375 22.859375 5.484375 25.78125 
Q 6.640625 28.71875 8.5625 30.828125 
Q 10.5 32.953125 12.96875 34.25 
Q 15.4375 35.546875 18.0625 35.984375 
L 18.0625 36.1875 
Q 15.1875 36.859375 12.90625 38.375 
Q 10.640625 39.890625 9.09375 42.015625 
Q 7.5625 44.140625 6.75 46.71875 
Q 5.953125 49.3125 5.953125 52.203125 
Q 5.953125 55.8125 7.34375 59 
Q 8.734375 62.203125 11.46875 64.625 
Q 14.203125 67.046875 18.25 68.4375 
Q 22.3125 69.828125 27.640625 69.828125 
Q 33.25 69.828125 37.375 68.40625 
Q 41.5 67 44.203125 64.578125 
Q 46.921875 62.15625 48.234375 58.9375 
Q 49.5625 55.71875 49.5625 52.09375 
Q 49.5625 49.265625 48.75 46.671875 
Q 47.953125 44.09375 46.40625 41.96875 
Q 44.875 39.84375 42.59375 38.34375 
Q 40.328125 36.859375 37.359375 36.28125 
L 37.359375 36.078125 
Q 40.328125 35.59375 42.859375 34.296875 
Q 45.40625 33.015625 47.265625 30.890625 
Q 49.125 28.765625 50.1875 25.828125 
Q 51.265625 22.90625 51.265625 19.1875 
M 40.4375 51.609375 
Q 40.4375 54.203125 39.765625 56.34375 
Q 39.109375 58.5 37.59375 60.03125 
Q 36.078125 61.578125 33.640625 62.421875 
Q 31.203125 63.28125 27.640625 63.28125 
Q 24.171875 63.28125 21.78125 62.421875 
Q 19.390625 61.578125 17.84375 60.03125 
Q 16.3125 58.5 15.625 56.34375 
Q 14.9375 54.203125 14.9375 51.609375 
Q 14.9375 49.5625 15.46875 47.40625 
Q 16.015625 45.265625 17.421875 43.5 
Q 18.84375 41.75 21.328125 40.625 
Q 23.828125 39.5 27.734375 39.5 
Q 31.890625 39.5 34.40625 40.625 
Q 36.921875 41.75 38.25 43.5 
Q 39.59375 45.265625 40.015625 47.40625 
Q 40.4375 49.5625 40.4375 51.609375 
M 42.140625 20.015625 
Q 42.140625 22.515625 41.453125 24.828125 
Q 40.765625 27.15625 39.109375 28.9375 
Q 37.453125 30.71875 34.640625 31.8125 
Q 31.84375 32.90625 27.640625 32.90625 
Q 23.78125 32.90625 21.0625 31.8125 
Q 18.359375 30.71875 16.671875 28.90625 
Q 14.984375 27.09375 14.203125 24.71875 
Q 13.421875 22.359375 13.421875 19.828125 
Q 13.421875 16.65625 14.203125 14.03125 
Q 14.984375 11.421875 16.6875 9.546875 
Q 18.40625 7.671875 21.1875 6.640625 
Q 23.96875 5.609375 27.9375 5.609375 
Q 31.9375 5.609375 34.671875 6.640625 
Q 37.40625 7.671875 39.0625 9.546875 
Q 40.71875 11.421875 41.421875 14.078125 
Q 42.140625 16.75 42.140625 20.015625 
" id="LiberationSans-38"/>
      </defs>
      <g style="fill:#262626;" transform="translate(638.085228 331.7975)scale(0.08 -0.08)">
       <use xlink:href="#LiberationSans-38"/>
       <use x="55.615234" xlink:href="#LiberationSans-30"/>
       <use x="111.230469" xlink:href="#LiberationSans-30"/>
      </g>
     </g>
    </g>
    <g id="xtick_6">
     <g id="line2d_11">
      <path clip-path="url(#p10700c9e5f)" d="M 759.802487 320.4 
L 759.802487 43.2 
" style="fill:none;stroke:#ffffff;stroke-linecap:round;stroke-width:0.8;"/>
     </g>
     <g id="line2d_12"/>
     <g id="text_6">
      <!-- 1000 -->
      <defs>
       <path d="M 7.625 0 
L 7.625 7.46875 
L 25.140625 7.46875 
L 25.140625 60.40625 
L 9.625 49.3125 
L 9.625 57.625 
L 25.875 68.796875 
L 33.984375 68.796875 
L 33.984375 7.46875 
L 50.734375 7.46875 
L 50.734375 0 
z
" id="LiberationSans-31"/>
      </defs>
      <g style="fill:#262626;" transform="translate(750.904987 331.7975)scale(0.08 -0.08)">
       <use xlink:href="#LiberationSans-31"/>
       <use x="55.615234" xlink:href="#LiberationSans-30"/>
       <use x="111.230469" xlink:href="#LiberationSans-30"/>
       <use x="166.845703" xlink:href="#LiberationSans-30"/>
      </g>
     </g>
    </g>
    <g id="xtick_7">
     <g id="line2d_13">
      <path clip-path="url(#p10700c9e5f)" d="M 874.846621 320.4 
L 874.846621 43.2 
" style="fill:none;stroke:#ffffff;stroke-linecap:round;stroke-width:0.8;"/>
     </g>
     <g id="line2d_14"/>
     <g id="text_7">
      <!-- 1200 -->
      <g style="fill:#262626;" transform="translate(865.949121 331.7975)scale(0.08 -0.08)">
       <use xlink:href="#LiberationSans-31"/>
       <use x="55.615234" xlink:href="#LiberationSans-32"/>
       <use x="111.230469" xlink:href="#LiberationSans-30"/>
       <use x="166.845703" xlink:href="#LiberationSans-30"/>
      </g>
     </g>
    </g>
    <g id="xtick_8">
     <g id="line2d_15">
      <path clip-path="url(#p10700c9e5f)" d="M 989.890754 320.4 
L 989.890754 43.2 
" style="fill:none;stroke:#ffffff;stroke-linecap:round;stroke-width:0.8;"/>
     </g>
     <g id="line2d_16"/>
     <g id="text_8">
      <!-- 1400 -->
      <g style="fill:#262626;" transform="translate(980.993254 331.7975)scale(0.08 -0.08)">
       <use xlink:href="#LiberationSans-31"/>
       <use x="55.615234" xlink:href="#LiberationSans-34"/>
       <use x="111.230469" xlink:href="#LiberationSans-30"/>
       <use x="166.845703" xlink:href="#LiberationSans-30"/>
      </g>
     </g>
    </g>
   </g>
   <g id="matplotlib.axis_2">
    <g id="ytick_1">
     <g id="line2d_17">
      <path clip-path="url(#p10700c9e5f)" d="M 144 307.8 
L 1036.8 307.8 
" style="fill:none;stroke:#ffffff;stroke-linecap:round;stroke-width:0.8;"/>
     </g>
     <g id="line2d_18"/>
     <g id="text_9">
      <!-- −1.00 -->
      <defs>
       <path d="M 4.9375 29.6875 
L 4.9375 36.8125 
L 53.515625 36.8125 
L 53.515625 29.6875 
z
" id="LiberationSans-2212"/>
       <path d="M 9.125 0 
L 9.125 10.6875 
L 18.65625 10.6875 
L 18.65625 0 
z
" id="LiberationSans-2e"/>
      </defs>
      <g style="fill:#262626;" transform="translate(118.15875 310.69875)scale(0.08 -0.08)">
       <use xlink:href="#LiberationSans-2212"/>
       <use x="58.398438" xlink:href="#LiberationSans-31"/>
       <use x="114.013672" xlink:href="#LiberationSans-2e"/>
       <use x="141.796875" xlink:href="#LiberationSans-30"/>
       <use x="197.412109" xlink:href="#LiberationSans-30"/>
      </g>
     </g>
    </g>
    <g id="ytick_2">
     <g id="line2d_19">
      <path clip-path="url(#p10700c9e5f)" d="M 144 276.3 
L 1036.8 276.3 
" style="fill:none;stroke:#ffffff;stroke-linecap:round;stroke-width:0.8;"/>
     </g>
     <g id="line2d_20"/>
     <g id="text_10">
      <!-- −0.75 -->
      <defs>
       <path d="M 50.59375 61.671875 
Q 45.40625 53.765625 41.0625 46.453125 
Q 36.71875 39.15625 33.59375 31.75 
Q 30.46875 24.359375 28.734375 16.578125 
Q 27 8.796875 27 0 
L 17.828125 0 
Q 17.828125 8.25 19.78125 16.1875 
Q 21.734375 24.125 25.046875 31.765625 
Q 28.375 39.40625 32.765625 46.78125 
Q 37.15625 54.15625 42.09375 61.328125 
L 5.125 61.328125 
L 5.125 68.796875 
L 50.59375 68.796875 
z
" id="LiberationSans-37"/>
       <path d="M 51.421875 22.40625 
Q 51.421875 17.234375 49.859375 12.9375 
Q 48.296875 8.640625 45.21875 5.53125 
Q 42.140625 2.4375 37.578125 0.71875 
Q 33.015625 -0.984375 27 -0.984375 
Q 21.578125 -0.984375 17.546875 0.28125 
Q 13.53125 1.5625 10.734375 3.78125 
Q 7.953125 6 6.3125 8.984375 
Q 4.6875 11.96875 4 15.375 
L 12.890625 16.40625 
Q 13.421875 14.453125 14.390625 12.625 
Q 15.375 10.796875 17.0625 9.34375 
Q 18.75 7.90625 21.21875 7.046875 
Q 23.6875 6.203125 27.203125 6.203125 
Q 30.609375 6.203125 33.390625 7.25 
Q 36.1875 8.296875 38.15625 10.34375 
Q 40.140625 12.40625 41.203125 15.375 
Q 42.28125 18.359375 42.28125 22.21875 
Q 42.28125 25.390625 41.25 28.046875 
Q 40.234375 30.71875 38.328125 32.640625 
Q 36.421875 34.578125 33.65625 35.640625 
Q 30.90625 36.71875 27.390625 36.71875 
Q 25.203125 36.71875 23.34375 36.328125 
Q 21.484375 35.9375 19.890625 35.25 
Q 18.3125 34.578125 17.015625 33.671875 
Q 15.71875 32.765625 14.59375 31.78125 
L 6 31.78125 
L 8.296875 68.796875 
L 47.40625 68.796875 
L 47.40625 61.328125 
L 16.3125 61.328125 
L 14.984375 39.5 
Q 17.328125 41.3125 20.84375 42.59375 
Q 24.359375 43.890625 29.203125 43.890625 
Q 34.328125 43.890625 38.421875 42.328125 
Q 42.53125 40.765625 45.40625 37.90625 
Q 48.296875 35.0625 49.859375 31.109375 
Q 51.421875 27.15625 51.421875 22.40625 
" id="LiberationSans-35"/>
      </defs>
      <g style="fill:#262626;" transform="translate(118.15875 279.19875)scale(0.08 -0.08)">
       <use xlink:href="#LiberationSans-2212"/>
       <use x="58.398438" xlink:href="#LiberationSans-30"/>
       <use x="114.013672" xlink:href="#LiberationSans-2e"/>
       <use x="141.796875" xlink:href="#LiberationSans-37"/>
       <use x="197.412109" xlink:href="#LiberationSans-35"/>
      </g>
     </g>
    </g>
    <g id="ytick_3">
     <g id="line2d_21">
      <path clip-path="url(#p10700c9e5f)" d="M 144 244.8 
L 1036.8 244.8 
" style="fill:none;stroke:#ffffff;stroke-linecap:round;stroke-width:0.8;"/>
     </g>
     <g id="line2d_22"/>
     <g id="text_11">
      <!-- −0.50 -->
      <g style="fill:#262626;" transform="translate(118.15875 247.69875)scale(0.08 -0.08)">
       <use xlink:href="#LiberationSans-2212"/>
       <use x="58.398438" xlink:href="#LiberationSans-30"/>
       <use x="114.013672" xlink:href="#LiberationSans-2e"/>
       <use x="141.796875" xlink:href="#LiberationSans-35"/>
       <use x="197.412109" xlink:href="#LiberationSans-30"/>
      </g>
     </g>
    </g>
    <g id="ytick_4">
     <g id="line2d_23">
      <path clip-path="url(#p10700c9e5f)" d="M 144 213.3 
L 1036.8 213.3 
" style="fill:none;stroke:#ffffff;stroke-linecap:round;stroke-width:0.8;"/>
     </g>
     <g id="line2d_24"/>
     <g id="text_12">
      <!-- −0.25 -->
      <g style="fill:#262626;" transform="translate(118.15875 216.19875)scale(0.08 -0.08)">
       <use xlink:href="#LiberationSans-2212"/>
       <use x="58.398438" xlink:href="#LiberationSans-30"/>
       <use x="114.013672" xlink:href="#LiberationSans-2e"/>
       <use x="141.796875" xlink:href="#LiberationSans-32"/>
       <use x="197.412109" xlink:href="#LiberationSans-35"/>
      </g>
     </g>
    </g>
    <g id="ytick_5">
     <g id="line2d_25">
      <path clip-path="url(#p10700c9e5f)" d="M 144 181.8 
L 1036.8 181.8 
" style="fill:none;stroke:#ffffff;stroke-linecap:round;stroke-width:0.8;"/>
     </g>
     <g id="line2d_26"/>
     <g id="text_13">
      <!-- 0.00 -->
      <g style="fill:#262626;" transform="translate(122.83125 184.69875)scale(0.08 -0.08)">
       <use xlink:href="#LiberationSans-30"/>
       <use x="55.615234" xlink:href="#LiberationSans-2e"/>
       <use x="83.398438" xlink:href="#LiberationSans-30"/>
       <use x="139.013672" xlink:href="#LiberationSans-30"/>
      </g>
     </g>
    </g>
    <g id="ytick_6">
     <g id="line2d_27">
      <path clip-path="url(#p10700c9e5f)" d="M 144 150.3 
L 1036.8 150.3 
" style="fill:none;stroke:#ffffff;stroke-linecap:round;stroke-width:0.8;"/>
     </g>
     <g id="line2d_28"/>
     <g id="text_14">
      <!-- 0.25 -->
      <g style="fill:#262626;" transform="translate(122.83125 153.19875)scale(0.08 -0.08)">
       <use xlink:href="#LiberationSans-30"/>
       <use x="55.615234" xlink:href="#LiberationSans-2e"/>
       <use x="83.398438" xlink:href="#LiberationSans-32"/>
       <use x="139.013672" xlink:href="#LiberationSans-35"/>
      </g>
     </g>
    </g>
    <g id="ytick_7">
     <g id="line2d_29">
      <path clip-path="url(#p10700c9e5f)" d="M 144 118.8 
L 1036.8 118.8 
" style="fill:none;stroke:#ffffff;stroke-linecap:round;stroke-width:0.8;"/>
     </g>
     <g id="line2d_30"/>
     <g id="text_15">
      <!-- 0.50 -->
      <g style="fill:#262626;" transform="translate(122.83125 121.69875)scale(0.08 -0.08)">
       <use xlink:href="#LiberationSans-30"/>
       <use x="55.615234" xlink:href="#LiberationSans-2e"/>
       <use x="83.398438" xlink:href="#LiberationSans-35"/>
       <use x="139.013672" xlink:href="#LiberationSans-30"/>
      </g>
     </g>
    </g>
    <g id="ytick_8">
     <g id="line2d_31">
      <path clip-path="url(#p10700c9e5f)" d="M 144 87.3 
L 1036.8 87.3 
" style="fill:none;stroke:#ffffff;stroke-linecap:round;stroke-width:0.8;"/>
     </g>
     <g id="line2d_32"/>
     <g id="text_16">
      <!-- 0.75 -->
      <g style="fill:#262626;" transform="translate(122.83125 90.19875)scale(0.08 -0.08)">
       <use xlink:href="#LiberationSans-30"/>
       <use x="55.615234" xlink:href="#LiberationSans-2e"/>
       <use x="83.398438" xlink:href="#LiberationSans-37"/>
       <use x="139.013672" xlink:href="#LiberationSans-35"/>
      </g>
     </g>
    </g>
    <g id="ytick_9">
     <g id="line2d_33">
      <path clip-path="url(#p10700c9e5f)" d="M 144 55.8 
L 1036.8 55.8 
" style="fill:none;stroke:#ffffff;stroke-linecap:round;stroke-width:0.8;"/>
     </g>
     <g id="line2d_34"/>
     <g id="text_17">
      <!-- 1.00 -->
      <g style="fill:#262626;" transform="translate(122.83125 58.69875)scale(0.08 -0.08)">
       <use xlink:href="#LiberationSans-31"/>
       <use x="55.615234" xlink:href="#LiberationSans-2e"/>
       <use x="83.398438" xlink:href="#LiberationSans-30"/>
       <use x="139.013672" xlink:href="#LiberationSans-30"/>
      </g>
     </g>
    </g>
   </g>
   <g id="line2d_35">
    <path clip-path="url(#p10700c9e5f)" d="M 184.581818 219.51732 
L 187.457922 219.517954 
L 188.033142 217.533343 
L 189.183584 205.081878 
L 189.758804 208.595365 
L 190.909246 248.10034 
L 191.484466 247.017035 
L 192.059687 209.159492 
L 193.210128 87.261796 
L 193.785349 55.8 
L 194.36057 64.154138 
L 194.93579 108.340029 
L 196.086232 237.273958 
L 196.661452 285.081104 
L 197.236673 307.8 
L 197.811894 305.293709 
L 198.387114 283.118879 
L 199.537556 216.765019 
L 200.112776 191.351882 
L 200.687997 179.549764 
L 201.263218 182.658959 
L 201.838438 197.940914 
L 202.98888 241.827991 
L 203.5641 257.997777 
L 204.139321 265.011211 
L 204.714542 262.418805 
L 205.289762 252.320218 
L 206.440204 224.775554 
L 207.015424 214.811301 
L 207.590645 210.438174 
L 208.165866 211.783408 
L 208.741086 217.629343 
L 209.891528 233.704372 
L 210.466748 239.494179 
L 211.041969 241.960997 
L 211.61719 240.947778 
L 212.19241 237.22657 
L 213.342852 227.19583 
L 213.918072 223.602112 
L 214.493293 222.020585 
L 215.068514 222.473838 
L 215.643734 224.506507 
L 216.794176 230.146633 
L 217.369396 232.22006 
L 217.944617 233.123171 
L 218.519838 232.714947 
L 219.095058 231.272349 
L 220.2455 227.376273 
L 220.82072 225.950001 
L 221.395941 225.300257 
L 221.971162 225.446254 
L 222.546382 226.18958 
L 223.696824 228.152053 
L 224.272044 228.751025 
L 224.847265 228.884279 
L 225.422486 228.562468 
L 227.723368 226.37515 
L 228.298589 226.181018 
L 228.87381 226.198888 
L 230.024251 226.665103 
L 231.174692 227.091845 
L 231.749913 226.993286 
L 232.900354 226.152496 
L 234.050796 225.33082 
L 234.626016 225.249335 
L 235.201237 225.488017 
L 236.351678 226.304267 
L 236.926899 226.461066 
L 237.50212 226.433041 
L 238.07734 226.277935 
L 238.652561 225.972949 
L 240.378223 224.724134 
L 240.953444 224.47679 
L 241.528664 224.414951 
L 242.103885 224.698847 
L 243.254326 225.661492 
L 243.829547 225.818141 
L 244.404768 225.749598 
L 245.555209 225.284826 
L 247.856092 224.127597 
L 248.431312 224.000271 
L 249.006533 224.004701 
L 250.156974 224.344133 
L 251.307416 224.805271 
L 251.882636 224.806416 
L 253.033078 224.344143 
L 254.183519 223.830475 
L 255.33396 223.665254 
L 258.210064 223.924818 
L 259.360505 223.642372 
L 260.510946 223.269395 
L 261.661388 223.185331 
L 264.537491 223.484398 
L 267.988815 222.939306 
L 269.714477 222.999163 
L 272.01536 222.668826 
L 273.165801 222.547334 
L 274.891463 222.500095 
L 277.767567 222.338866 
L 279.493229 222.535532 
L 280.64367 222.368021 
L 281.794111 221.920622 
L 283.519773 221.586187 
L 285.245435 221.893403 
L 286.971097 222.246534 
L 288.121539 222.197105 
L 290.422421 221.648852 
L 292.148083 221.191204 
L 292.723304 221.256069 
L 294.448966 222.080248 
L 295.024187 222.177587 
L 295.599407 222.118313 
L 298.475511 221.31061 
L 300.776393 221.206047 
L 301.926835 221.107871 
L 303.077276 221.333607 
L 304.227717 221.563514 
L 305.378159 221.499868 
L 307.103821 221.214126 
L 308.829483 220.665774 
L 309.404703 220.741495 
L 311.130365 221.385664 
L 312.280807 221.435521 
L 316.882572 220.557144 
L 318.033013 220.665351 
L 319.758675 221.146195 
L 320.909117 221.083545 
L 324.360441 220.237613 
L 325.510882 220.168298 
L 326.086103 220.292692 
L 327.811765 221.110166 
L 328.386985 221.237666 
L 329.537427 221.146573 
L 330.687868 220.718831 
L 331.263089 220.453817 
L 331.838309 220.334102 
L 332.988751 220.41174 
L 334.139192 220.604498 
L 337.015295 220.504052 
L 338.165737 220.570983 
L 339.891399 220.461721 
L 341.04184 220.619112 
L 343.917943 220.262248 
L 346.794047 220.437888 
L 349.094929 220.359782 
L 350.245371 220.264926 
L 351.395812 219.996514 
L 351.971033 219.948988 
L 353.121474 220.166795 
L 354.847136 220.54929 
L 355.997577 220.520991 
L 357.148019 220.311234 
L 358.29846 219.934037 
L 359.448901 219.840732 
L 360.599343 220.001092 
L 362.900226 220.311568 
L 364.625888 220.309606 
L 366.92677 219.761717 
L 368.077212 219.750809 
L 369.802874 220.208822 
L 373.829418 220.300169 
L 375.55508 219.723106 
L 376.130301 219.674034 
L 377.280742 219.875297 
L 379.006404 220.221262 
L 380.156846 220.190131 
L 382.457728 219.933182 
L 385.333832 219.928565 
L 387.059494 219.885705 
L 388.785156 219.985834 
L 390.510818 219.93066 
L 391.661259 220.034203 
L 392.8117 219.938525 
L 394.537362 219.702865 
L 396.263024 219.845232 
L 397.988686 220.011976 
L 399.714348 219.924615 
L 400.86479 219.968084 
L 403.740893 219.747842 
L 405.466555 219.766057 
L 407.192217 219.713493 
L 408.917879 220.213929 
L 410.06832 220.18589 
L 411.218762 219.875569 
L 412.369203 219.477489 
L 412.944424 219.385212 
L 413.519644 219.415425 
L 415.820527 220.027264 
L 416.395748 219.922748 
L 418.12141 219.345209 
L 418.69663 219.393439 
L 419.847072 219.841374 
L 420.422292 220.065986 
L 421.572734 220.200977 
L 422.147954 220.153982 
L 425.024058 219.277773 
L 425.599278 219.266469 
L 426.74972 219.645406 
L 427.900161 220.064528 
L 428.475382 220.113115 
L 429.625823 219.892903 
L 430.776264 219.620779 
L 431.926706 219.592959 
L 433.077147 219.656998 
L 435.37803 219.660751 
L 438.829354 219.771168 
L 439.979795 219.757506 
L 441.705457 219.924907 
L 444.58156 219.524667 
L 449.758546 219.767595 
L 450.908988 219.900818 
L 452.63465 219.734579 
L 454.360312 219.56764 
L 455.510753 219.560032 
L 457.236415 219.669246 
L 458.962077 219.505723 
L 460.112519 219.783977 
L 461.26296 219.717906 
L 462.988622 219.590575 
L 465.289505 219.752187 
L 466.439946 219.477877 
L 468.165608 219.474298 
L 472.192153 219.815327 
L 473.342594 219.756968 
L 476.793918 219.290407 
L 477.944359 219.53179 
L 479.094801 219.831447 
L 480.245242 219.89493 
L 483.121345 219.533993 
L 485.422228 219.415093 
L 487.723111 219.850002 
L 488.873552 219.781637 
L 491.174435 219.411191 
L 492.900097 219.656821 
L 495.200979 219.701038 
L 498.652303 219.509526 
L 499.802745 219.653314 
L 500.953186 220.043213 
L 501.528407 220.080153 
L 502.103627 219.916848 
L 503.254069 219.313966 
L 504.40451 219.096643 
L 505.554951 219.305392 
L 507.280613 219.716672 
L 508.431055 220.034885 
L 509.581496 219.748405 
L 510.731937 219.374283 
L 511.882379 219.307472 
L 514.183261 219.796318 
L 515.908923 219.584189 
L 517.059365 219.382317 
L 518.209806 219.442294 
L 520.510689 219.72086 
L 524.537233 219.690486 
L 527.413337 219.543779 
L 532.015102 219.558594 
L 534.315985 219.164535 
L 534.891205 219.282863 
L 536.616867 219.936759 
L 537.192088 219.952754 
L 538.342529 219.695934 
L 539.492971 219.448782 
L 540.643412 219.56276 
L 541.793853 219.83744 
L 542.369074 219.879514 
L 543.519515 219.602933 
L 544.669957 219.254793 
L 545.820398 219.204156 
L 546.97084 219.425715 
L 548.121281 219.823618 
L 548.696502 219.898802 
L 549.846943 219.718772 
L 550.997384 219.519488 
L 552.147826 219.569125 
L 553.873488 219.719255 
L 556.17437 219.593517 
L 559.050474 219.419857 
L 562.501798 219.623361 
L 564.22746 219.563348 
L 565.377901 219.420764 
L 565.953122 219.511314 
L 567.103563 219.893579 
L 568.254004 219.930795 
L 571.130108 219.354832 
L 572.85577 219.489406 
L 574.006211 219.573399 
L 575.731873 219.500465 
L 577.457535 219.451451 
L 579.758418 219.693948 
L 583.784962 219.548427 
L 587.236286 219.622628 
L 589.537169 219.553885 
L 590.68761 219.731221 
L 591.838052 219.46074 
L 592.988493 219.275273 
L 594.138934 219.353177 
L 597.015038 219.874582 
L 597.590258 219.836688 
L 599.891141 219.199771 
L 600.466362 219.262471 
L 602.767244 219.976985 
L 603.917686 219.799665 
L 605.643348 219.303295 
L 606.793789 219.324655 
L 608.519451 219.506633 
L 609.669892 219.656715 
L 610.820334 219.693588 
L 613.696437 219.540327 
L 615.422099 219.617011 
L 618.298202 219.487648 
L 623.475188 219.605844 
L 624.62563 219.618504 
L 626.351292 220.046802 
L 626.926512 219.949084 
L 629.227395 218.96827 
L 629.802616 218.987166 
L 632.678719 219.77324 
L 634.979602 219.56049 
L 636.130043 219.338367 
L 637.280485 219.434139 
L 638.430926 219.614131 
L 640.731809 219.558752 
L 641.88225 219.682368 
L 644.183133 219.650485 
L 645.333574 219.705663 
L 647.634457 219.4158 
L 648.209677 219.36501 
L 650.51056 219.64942 
L 655.687546 219.481543 
L 657.988429 219.587402 
L 660.289311 219.491202 
L 661.439753 219.507275 
L 663.740635 219.694457 
L 664.891077 219.599431 
L 666.041518 219.391821 
L 667.76718 219.571813 
L 668.917621 219.536773 
L 670.068063 219.383213 
L 671.218504 219.448604 
L 672.944166 219.645772 
L 674.094607 219.603924 
L 676.39549 219.238877 
L 677.545931 219.522212 
L 678.696373 219.807515 
L 679.846814 219.773258 
L 682.147697 219.314807 
L 683.873359 219.663269 
L 685.599021 219.648025 
L 687.324683 219.597498 
L 689.050345 219.449473 
L 692.501669 219.60315 
L 696.528213 219.562761 
L 697.678655 219.674836 
L 698.829096 219.520981 
L 700.554758 219.135362 
L 701.705199 219.392185 
L 703.430861 219.858515 
L 704.581303 219.894088 
L 705.731744 219.601748 
L 706.882185 219.271797 
L 708.032627 219.228519 
L 709.758289 219.522811 
L 711.483951 219.919883 
L 712.634392 219.777409 
L 713.784833 219.495466 
L 714.360054 219.453103 
L 715.510495 219.661204 
L 716.660937 219.399078 
L 717.236157 219.270201 
L 718.386599 219.372693 
L 719.53704 219.568176 
L 721.262702 219.655114 
L 722.413143 219.482439 
L 722.988364 219.34006 
L 723.563585 219.348944 
L 724.714026 219.687841 
L 725.289247 219.970509 
L 725.864467 220.086255 
L 727.014909 219.853284 
L 728.740571 219.355847 
L 729.891012 219.23559 
L 732.191895 219.360085 
L 734.492778 219.985472 
L 735.643219 219.712375 
L 736.79366 219.373116 
L 737.944102 219.340689 
L 740.820205 219.74116 
L 742.545867 219.460161 
L 744.84675 219.559222 
L 747.722853 219.561371 
L 748.873294 219.479784 
L 750.598956 219.461329 
L 752.324618 219.561942 
L 754.625501 219.44918 
L 756.926384 219.684691 
L 759.802487 219.889064 
L 762.10337 219.047857 
L 762.67859 219.130137 
L 764.404252 219.706223 
L 766.705135 219.745965 
L 768.430797 219.385743 
L 770.156459 219.368271 
L 772.457342 219.61767 
L 773.607783 219.657756 
L 774.183004 219.701836 
L 777.059107 219.383423 
L 779.35999 219.68527 
L 780.510431 219.617601 
L 782.236093 219.383357 
L 789.713962 219.626009 
L 790.864403 219.608014 
L 793.165286 219.321937 
L 796.041389 219.687285 
L 801.793596 219.551944 
L 804.094478 219.548598 
L 805.24492 219.358834 
L 805.82014 219.344941 
L 807.545802 219.729912 
L 808.121023 219.730029 
L 810.421906 219.30028 
L 813.298009 219.697529 
L 815.023671 219.557229 
L 816.174112 219.274777 
L 817.899774 219.360487 
L 820.200657 219.847019 
L 821.351099 219.721442 
L 823.651981 219.340795 
L 825.377643 219.55163 
L 826.528085 219.631055 
L 829.979409 219.479057 
L 833.430733 219.6504 
L 835.156395 219.456172 
L 836.306836 219.354671 
L 838.032498 219.492022 
L 840.333381 219.724835 
L 841.483822 219.460249 
L 842.059043 219.275961 
L 843.209484 219.231981 
L 846.660808 219.828827 
L 847.811249 219.642607 
L 849.536911 219.192893 
L 850.112132 219.017132 
L 850.687353 219.015604 
L 852.413015 219.476324 
L 853.563456 219.773329 
L 854.713897 219.846807 
L 855.864339 219.734057 
L 857.590001 219.367561 
L 858.740442 219.475017 
L 860.466104 219.700439 
L 861.616545 219.702527 
L 865.067869 219.375625 
L 866.793531 219.650948 
L 868.519193 219.634366 
L 871.395297 219.482237 
L 873.120959 219.562755 
L 874.2714 219.65838 
L 875.421841 219.631475 
L 876.572283 219.645026 
L 878.873165 219.347179 
L 880.598827 219.566919 
L 882.324489 219.782081 
L 882.89971 219.656943 
L 884.050151 219.127836 
L 884.625372 219.01525 
L 885.200593 219.071423 
L 886.351034 219.532617 
L 887.501475 219.987306 
L 888.076696 220.025895 
L 888.651917 219.906503 
L 890.952799 218.937005 
L 891.52802 218.957757 
L 892.678461 219.332493 
L 894.404123 220.072094 
L 894.979344 220.086041 
L 896.129785 219.749871 
L 897.280227 219.397375 
L 898.430668 219.165255 
L 899.005889 219.237568 
L 900.15633 219.694186 
L 901.306771 219.813709 
L 903.032433 219.676668 
L 905.333316 219.25167 
L 906.483757 219.443211 
L 907.634199 219.839379 
L 908.209419 219.82 
L 909.935082 219.469836 
L 911.085523 219.401381 
L 917.41295 219.631731 
L 922.014716 219.494571 
L 924.890819 219.57394 
L 926.04126 219.592042 
L 927.766922 219.727857 
L 931.218246 219.225515 
L 931.793467 219.364905 
L 932.943908 219.925095 
L 933.519129 219.914229 
L 934.66957 219.651013 
L 936.395232 219.44493 
L 938.120894 219.104333 
L 938.696115 219.115275 
L 940.996998 219.745244 
L 942.147439 219.7353 
L 943.873101 219.445119 
L 947.899646 219.486183 
L 949.050087 219.431706 
L 950.775749 219.546667 
L 956.527956 219.580759 
L 957.678397 219.743828 
L 959.404059 219.458528 
L 960.5545 219.310013 
L 962.280162 219.41179 
L 965.156266 219.683226 
L 966.881928 219.720604 
L 968.60759 219.415574 
L 972.058914 219.395811 
L 973.209355 219.570236 
L 974.359796 219.755888 
L 974.935017 219.76024 
L 975.510238 219.601328 
L 976.660679 219.093497 
L 977.2359 219.029878 
L 978.386341 219.430628 
L 979.536782 219.853648 
L 980.112003 219.901965 
L 981.837665 219.557431 
L 983.563327 219.113823 
L 985.288989 219.301233 
L 987.014651 219.694805 
L 990.465975 219.62585 
L 991.616416 219.431372 
L 992.191637 219.302487 
L 993.342078 219.337471 
L 996.218182 219.638585 
L 996.218182 219.638585 
" style="fill:none;stroke:#4c72b0;stroke-linecap:round;stroke-width:1.4;"/>
   </g>
   <g id="patch_3">
    <path d="M 144 320.4 
L 144 43.2 
" style="fill:none;"/>
   </g>
   <g id="patch_4">
    <path d="M 1036.8 320.4 
L 1036.8 43.2 
" style="fill:none;"/>
   </g>
   <g id="patch_5">
    <path d="M 144 320.4 
L 1036.8 320.4 
" style="fill:none;"/>
   </g>
   <g id="patch_6">
    <path d="M 144 43.2 
L 1036.8 43.2 
" style="fill:none;"/>
   </g>
  </g>
 </g>
 <defs>
  <clipPath id="p10700c9e5f">
   <rect height="277.2" width="892.8" x="144" y="43.2"/>
  </clipPath>
 </defs>
</svg>
