<?xml version="1.0" encoding="utf-8" standalone="no"?>
<!DOCTYPE svg PUBLIC "-//W3C//DTD SVG 1.1//EN"
  "http://www.w3.org/Graphics/SVG/1.1/DTD/svg11.dtd">
<!-- Created with matplotlib (http://matplotlib.org/) -->
<svg height="360pt" version="1.1" viewBox="0 0 1152 360" width="1152pt" xmlns="http://www.w3.org/2000/svg" xmlns:xlink="http://www.w3.org/1999/xlink">
 <defs>
  <style type="text/css">
*{stroke-linecap:butt;stroke-linejoin:round;}
  </style>
 </defs>
 <g id="figure_1">
  <g id="patch_1">
   <path d="M 0 360 
L 1152 360 
L 1152 0 
L 0 0 
z
" style="fill:#ffffff;"/>
  </g>
  <g id="axes_1">
   <g id="patch_2">
    <path d="M 144 320.4 
L 1036.8 320.4 
L 1036.8 43.2 
L 144 43.2 
z
" style="fill:#eaeaf2;"/>
   </g>
   <g id="matplotlib.axis_1">
    <g id="xtick_1">
     <g id="line2d_1">
      <path clip-path="url(#p267d64e81c)" d="M 184.581818 320.4 
L 184.581818 43.2 
" style="fill:none;stroke:#ffffff;stroke-linecap:round;stroke-width:0.8;"/>
     </g>
     <g id="line2d_2"/>
     <g id="text_1">
      <!-- 0 -->
      <defs>
       <path d="M 51.703125 34.421875 
Q 51.703125 24.515625 49.828125 17.75 
Q 47.953125 10.984375 44.703125 6.8125 
Q 41.453125 2.640625 37.0625 0.828125 
Q 32.671875 -0.984375 27.6875 -0.984375 
Q 22.65625 -0.984375 18.3125 0.828125 
Q 13.96875 2.640625 10.765625 6.78125 
Q 7.5625 10.9375 5.734375 17.703125 
Q 3.90625 24.46875 3.90625 34.421875 
Q 3.90625 44.828125 5.734375 51.640625 
Q 7.5625 58.453125 10.78125 62.5 
Q 14.015625 66.546875 18.40625 68.1875 
Q 22.796875 69.828125 27.984375 69.828125 
Q 32.90625 69.828125 37.21875 68.1875 
Q 41.546875 66.546875 44.765625 62.5 
Q 48 58.453125 49.84375 51.640625 
Q 51.703125 44.828125 51.703125 34.421875 
M 42.78125 34.421875 
Q 42.78125 42.625 41.796875 48.0625 
Q 40.828125 53.515625 38.921875 56.765625 
Q 37.015625 60.015625 34.25 61.359375 
Q 31.5 62.703125 27.984375 62.703125 
Q 24.265625 62.703125 21.4375 61.328125 
Q 18.609375 59.96875 16.671875 56.71875 
Q 14.75 53.46875 13.765625 48.015625 
Q 12.796875 42.578125 12.796875 34.421875 
Q 12.796875 26.515625 13.796875 21.09375 
Q 14.796875 15.671875 16.71875 12.375 
Q 18.65625 9.078125 21.4375 7.640625 
Q 24.21875 6.203125 27.78125 6.203125 
Q 31.25 6.203125 34.03125 7.640625 
Q 36.8125 9.078125 38.734375 12.375 
Q 40.671875 15.671875 41.71875 21.09375 
Q 42.78125 26.515625 42.78125 34.421875 
" id="LiberationSans-30"/>
      </defs>
      <g style="fill:#262626;" transform="translate(182.357443 331.7975)scale(0.08 -0.08)">
       <use xlink:href="#LiberationSans-30"/>
      </g>
     </g>
    </g>
    <g id="xtick_2">
     <g id="line2d_3">
      <path clip-path="url(#p267d64e81c)" d="M 299.625952 320.4 
L 299.625952 43.2 
" style="fill:none;stroke:#ffffff;stroke-linecap:round;stroke-width:0.8;"/>
     </g>
     <g id="line2d_4"/>
     <g id="text_2">
      <!-- 200 -->
      <defs>
       <path d="M 5.03125 0 
L 5.03125 6.203125 
Q 7.515625 11.921875 11.109375 16.28125 
Q 14.703125 20.65625 18.65625 24.1875 
Q 22.609375 27.734375 26.484375 30.765625 
Q 30.375 33.796875 33.5 36.8125 
Q 36.625 39.84375 38.546875 43.15625 
Q 40.484375 46.484375 40.484375 50.6875 
Q 40.484375 53.609375 39.59375 55.828125 
Q 38.71875 58.0625 37.0625 59.5625 
Q 35.40625 61.078125 33.078125 61.828125 
Q 30.765625 62.59375 27.9375 62.59375 
Q 25.296875 62.59375 22.96875 61.859375 
Q 20.65625 61.140625 18.84375 59.671875 
Q 17.046875 58.203125 15.890625 56.03125 
Q 14.75 53.859375 14.40625 50.984375 
L 5.421875 51.8125 
Q 5.859375 55.515625 7.46875 58.78125 
Q 9.078125 62.0625 11.90625 64.53125 
Q 14.75 67 18.71875 68.40625 
Q 22.703125 69.828125 27.9375 69.828125 
Q 33.0625 69.828125 37.0625 68.609375 
Q 41.0625 67.390625 43.8125 64.984375 
Q 46.578125 62.59375 48.046875 59.078125 
Q 49.515625 55.5625 49.515625 50.984375 
Q 49.515625 47.515625 48.265625 44.390625 
Q 47.015625 41.265625 44.9375 38.421875 
Q 42.875 35.59375 40.140625 32.953125 
Q 37.40625 30.328125 34.421875 27.8125 
Q 31.453125 25.296875 28.421875 22.828125 
Q 25.390625 20.359375 22.71875 17.859375 
Q 20.0625 15.375 17.96875 12.8125 
Q 15.875 10.25 14.703125 7.46875 
L 50.59375 7.46875 
L 50.59375 0 
z
" id="LiberationSans-32"/>
      </defs>
      <g style="fill:#262626;" transform="translate(292.952827 331.7975)scale(0.08 -0.08)">
       <use xlink:href="#LiberationSans-32"/>
       <use x="55.615234" xlink:href="#LiberationSans-30"/>
       <use x="111.230469" xlink:href="#LiberationSans-30"/>
      </g>
     </g>
    </g>
    <g id="xtick_3">
     <g id="line2d_5">
      <path clip-path="url(#p267d64e81c)" d="M 414.670086 320.4 
L 414.670086 43.2 
" style="fill:none;stroke:#ffffff;stroke-linecap:round;stroke-width:0.8;"/>
     </g>
     <g id="line2d_6"/>
     <g id="text_3">
      <!-- 400 -->
      <defs>
       <path d="M 43.015625 15.578125 
L 43.015625 0 
L 34.71875 0 
L 34.71875 15.578125 
L 2.296875 15.578125 
L 2.296875 22.40625 
L 33.796875 68.796875 
L 43.015625 68.796875 
L 43.015625 22.515625 
L 52.6875 22.515625 
L 52.6875 15.578125 
z
M 34.71875 58.890625 
Q 34.625 58.640625 34.234375 57.9375 
Q 33.84375 57.234375 33.34375 56.34375 
Q 32.859375 55.46875 32.34375 54.5625 
Q 31.84375 53.65625 31.453125 53.078125 
L 13.8125 27.09375 
Q 13.578125 26.703125 13.109375 26.0625 
Q 12.640625 25.4375 12.15625 24.78125 
Q 11.671875 24.125 11.171875 23.484375 
Q 10.6875 22.859375 10.40625 22.515625 
L 34.71875 22.515625 
z
" id="LiberationSans-34"/>
      </defs>
      <g style="fill:#262626;" transform="translate(407.996961 331.7975)scale(0.08 -0.08)">
       <use xlink:href="#LiberationSans-34"/>
       <use x="55.615234" xlink:href="#LiberationSans-30"/>
       <use x="111.230469" xlink:href="#LiberationSans-30"/>
      </g>
     </g>
    </g>
    <g id="xtick_4">
     <g id="line2d_7">
      <path clip-path="url(#p267d64e81c)" d="M 529.714219 320.4 
L 529.714219 43.2 
" style="fill:none;stroke:#ffffff;stroke-linecap:round;stroke-width:0.8;"/>
     </g>
     <g id="line2d_8"/>
     <g id="text_4">
      <!-- 600 -->
      <defs>
       <path d="M 51.21875 22.515625 
Q 51.21875 17.328125 49.78125 13 
Q 48.34375 8.6875 45.53125 5.578125 
Q 42.71875 2.484375 38.5625 0.75 
Q 34.421875 -0.984375 29 -0.984375 
Q 23 -0.984375 18.5 1.3125 
Q 14.015625 3.609375 11.03125 7.921875 
Q 8.0625 12.25 6.5625 18.53125 
Q 5.078125 24.8125 5.078125 32.8125 
Q 5.078125 42 6.765625 48.921875 
Q 8.453125 55.859375 11.625 60.5 
Q 14.796875 65.140625 19.359375 67.484375 
Q 23.921875 69.828125 29.6875 69.828125 
Q 33.203125 69.828125 36.28125 69.09375 
Q 39.359375 68.359375 41.875 66.71875 
Q 44.390625 65.09375 46.28125 62.40625 
Q 48.1875 59.71875 49.3125 55.8125 
L 40.921875 54.296875 
Q 39.546875 58.734375 36.546875 60.71875 
Q 33.546875 62.703125 29.59375 62.703125 
Q 25.984375 62.703125 23.046875 60.984375 
Q 20.125 59.28125 18.0625 55.875 
Q 16.015625 52.484375 14.90625 47.359375 
Q 13.8125 42.234375 13.8125 35.40625 
Q 16.21875 39.84375 20.5625 42.15625 
Q 24.90625 44.484375 30.515625 44.484375 
Q 35.203125 44.484375 39.015625 42.96875 
Q 42.828125 41.453125 45.53125 38.59375 
Q 48.25 35.75 49.734375 31.671875 
Q 51.21875 27.59375 51.21875 22.515625 
M 42.28125 22.125 
Q 42.28125 25.6875 41.40625 28.5625 
Q 40.53125 31.453125 38.765625 33.46875 
Q 37.015625 35.5 34.421875 36.59375 
Q 31.84375 37.703125 28.421875 37.703125 
Q 26.03125 37.703125 23.578125 36.984375 
Q 21.140625 36.28125 19.15625 34.6875 
Q 17.1875 33.109375 15.9375 30.515625 
Q 14.703125 27.9375 14.703125 24.21875 
Q 14.703125 20.40625 15.671875 17.109375 
Q 16.65625 13.8125 18.484375 11.375 
Q 20.3125 8.9375 22.890625 7.515625 
Q 25.484375 6.109375 28.71875 6.109375 
Q 31.890625 6.109375 34.40625 7.203125 
Q 36.921875 8.296875 38.671875 10.375 
Q 40.4375 12.453125 41.359375 15.421875 
Q 42.28125 18.40625 42.28125 22.125 
" id="LiberationSans-36"/>
      </defs>
      <g style="fill:#262626;" transform="translate(523.041094 331.7975)scale(0.08 -0.08)">
       <use xlink:href="#LiberationSans-36"/>
       <use x="55.615234" xlink:href="#LiberationSans-30"/>
       <use x="111.230469" xlink:href="#LiberationSans-30"/>
      </g>
     </g>
    </g>
    <g id="xtick_5">
     <g id="line2d_9">
      <path clip-path="url(#p267d64e81c)" d="M 644.758353 320.4 
L 644.758353 43.2 
" style="fill:none;stroke:#ffffff;stroke-linecap:round;stroke-width:0.8;"/>
     </g>
     <g id="line2d_10"/>
     <g id="text_5">
      <!-- 800 -->
      <defs>
       <path d="M 51.265625 19.1875 
Q 51.265625 14.796875 49.875 11.109375 
Q 48.484375 7.421875 45.625 4.734375 
Q 42.78125 2.046875 38.328125 0.53125 
Q 33.890625 -0.984375 27.828125 -0.984375 
Q 21.78125 -0.984375 17.359375 0.53125 
Q 12.9375 2.046875 10.03125 4.703125 
Q 7.125 7.375 5.734375 11.0625 
Q 4.34375 14.75 4.34375 19.09375 
Q 4.34375 22.859375 5.484375 25.78125 
Q 6.640625 28.71875 8.5625 30.828125 
Q 10.5 32.953125 12.96875 34.25 
Q 15.4375 35.546875 18.0625 35.984375 
L 18.0625 36.1875 
Q 15.1875 36.859375 12.90625 38.375 
Q 10.640625 39.890625 9.09375 42.015625 
Q 7.5625 44.140625 6.75 46.71875 
Q 5.953125 49.3125 5.953125 52.203125 
Q 5.953125 55.8125 7.34375 59 
Q 8.734375 62.203125 11.46875 64.625 
Q 14.203125 67.046875 18.25 68.4375 
Q 22.3125 69.828125 27.640625 69.828125 
Q 33.25 69.828125 37.375 68.40625 
Q 41.5 67 44.203125 64.578125 
Q 46.921875 62.15625 48.234375 58.9375 
Q 49.5625 55.71875 49.5625 52.09375 
Q 49.5625 49.265625 48.75 46.671875 
Q 47.953125 44.09375 46.40625 41.96875 
Q 44.875 39.84375 42.59375 38.34375 
Q 40.328125 36.859375 37.359375 36.28125 
L 37.359375 36.078125 
Q 40.328125 35.59375 42.859375 34.296875 
Q 45.40625 33.015625 47.265625 30.890625 
Q 49.125 28.765625 50.1875 25.828125 
Q 51.265625 22.90625 51.265625 19.1875 
M 40.4375 51.609375 
Q 40.4375 54.203125 39.765625 56.34375 
Q 39.109375 58.5 37.59375 60.03125 
Q 36.078125 61.578125 33.640625 62.421875 
Q 31.203125 63.28125 27.640625 63.28125 
Q 24.171875 63.28125 21.78125 62.421875 
Q 19.390625 61.578125 17.84375 60.03125 
Q 16.3125 58.5 15.625 56.34375 
Q 14.9375 54.203125 14.9375 51.609375 
Q 14.9375 49.5625 15.46875 47.40625 
Q 16.015625 45.265625 17.421875 43.5 
Q 18.84375 41.75 21.328125 40.625 
Q 23.828125 39.5 27.734375 39.5 
Q 31.890625 39.5 34.40625 40.625 
Q 36.921875 41.75 38.25 43.5 
Q 39.59375 45.265625 40.015625 47.40625 
Q 40.4375 49.5625 40.4375 51.609375 
M 42.140625 20.015625 
Q 42.140625 22.515625 41.453125 24.828125 
Q 40.765625 27.15625 39.109375 28.9375 
Q 37.453125 30.71875 34.640625 31.8125 
Q 31.84375 32.90625 27.640625 32.90625 
Q 23.78125 32.90625 21.0625 31.8125 
Q 18.359375 30.71875 16.671875 28.90625 
Q 14.984375 27.09375 14.203125 24.71875 
Q 13.421875 22.359375 13.421875 19.828125 
Q 13.421875 16.65625 14.203125 14.03125 
Q 14.984375 11.421875 16.6875 9.546875 
Q 18.40625 7.671875 21.1875 6.640625 
Q 23.96875 5.609375 27.9375 5.609375 
Q 31.9375 5.609375 34.671875 6.640625 
Q 37.40625 7.671875 39.0625 9.546875 
Q 40.71875 11.421875 41.421875 14.078125 
Q 42.140625 16.75 42.140625 20.015625 
" id="LiberationSans-38"/>
      </defs>
      <g style="fill:#262626;" transform="translate(638.085228 331.7975)scale(0.08 -0.08)">
       <use xlink:href="#LiberationSans-38"/>
       <use x="55.615234" xlink:href="#LiberationSans-30"/>
       <use x="111.230469" xlink:href="#LiberationSans-30"/>
      </g>
     </g>
    </g>
    <g id="xtick_6">
     <g id="line2d_11">
      <path clip-path="url(#p267d64e81c)" d="M 759.802487 320.4 
L 759.802487 43.2 
" style="fill:none;stroke:#ffffff;stroke-linecap:round;stroke-width:0.8;"/>
     </g>
     <g id="line2d_12"/>
     <g id="text_6">
      <!-- 1000 -->
      <defs>
       <path d="M 7.625 0 
L 7.625 7.46875 
L 25.140625 7.46875 
L 25.140625 60.40625 
L 9.625 49.3125 
L 9.625 57.625 
L 25.875 68.796875 
L 33.984375 68.796875 
L 33.984375 7.46875 
L 50.734375 7.46875 
L 50.734375 0 
z
" id="LiberationSans-31"/>
      </defs>
      <g style="fill:#262626;" transform="translate(750.904987 331.7975)scale(0.08 -0.08)">
       <use xlink:href="#LiberationSans-31"/>
       <use x="55.615234" xlink:href="#LiberationSans-30"/>
       <use x="111.230469" xlink:href="#LiberationSans-30"/>
       <use x="166.845703" xlink:href="#LiberationSans-30"/>
      </g>
     </g>
    </g>
    <g id="xtick_7">
     <g id="line2d_13">
      <path clip-path="url(#p267d64e81c)" d="M 874.846621 320.4 
L 874.846621 43.2 
" style="fill:none;stroke:#ffffff;stroke-linecap:round;stroke-width:0.8;"/>
     </g>
     <g id="line2d_14"/>
     <g id="text_7">
      <!-- 1200 -->
      <g style="fill:#262626;" transform="translate(865.949121 331.7975)scale(0.08 -0.08)">
       <use xlink:href="#LiberationSans-31"/>
       <use x="55.615234" xlink:href="#LiberationSans-32"/>
       <use x="111.230469" xlink:href="#LiberationSans-30"/>
       <use x="166.845703" xlink:href="#LiberationSans-30"/>
      </g>
     </g>
    </g>
    <g id="xtick_8">
     <g id="line2d_15">
      <path clip-path="url(#p267d64e81c)" d="M 989.890754 320.4 
L 989.890754 43.2 
" style="fill:none;stroke:#ffffff;stroke-linecap:round;stroke-width:0.8;"/>
     </g>
     <g id="line2d_16"/>
     <g id="text_8">
      <!-- 1400 -->
      <g style="fill:#262626;" transform="translate(980.993254 331.7975)scale(0.08 -0.08)">
       <use xlink:href="#LiberationSans-31"/>
       <use x="55.615234" xlink:href="#LiberationSans-34"/>
       <use x="111.230469" xlink:href="#LiberationSans-30"/>
       <use x="166.845703" xlink:href="#LiberationSans-30"/>
      </g>
     </g>
    </g>
   </g>
   <g id="matplotlib.axis_2">
    <g id="ytick_1">
     <g id="line2d_17">
      <path clip-path="url(#p267d64e81c)" d="M 144 294.792146 
L 1036.8 294.792146 
" style="fill:none;stroke:#ffffff;stroke-linecap:round;stroke-width:0.8;"/>
     </g>
     <g id="line2d_18"/>
     <g id="text_9">
      <!-- −20000 -->
      <defs>
       <path d="M 4.9375 29.6875 
L 4.9375 36.8125 
L 53.515625 36.8125 
L 53.515625 29.6875 
z
" id="LiberationSans-2212"/>
      </defs>
      <g style="fill:#262626;" transform="translate(111.48375 297.690896)scale(0.08 -0.08)">
       <use xlink:href="#LiberationSans-2212"/>
       <use x="58.398438" xlink:href="#LiberationSans-32"/>
       <use x="114.013672" xlink:href="#LiberationSans-30"/>
       <use x="169.628906" xlink:href="#LiberationSans-30"/>
       <use x="225.244141" xlink:href="#LiberationSans-30"/>
       <use x="280.859375" xlink:href="#LiberationSans-30"/>
      </g>
     </g>
    </g>
    <g id="ytick_2">
     <g id="line2d_19">
      <path clip-path="url(#p267d64e81c)" d="M 144 249.500174 
L 1036.8 249.500174 
" style="fill:none;stroke:#ffffff;stroke-linecap:round;stroke-width:0.8;"/>
     </g>
     <g id="line2d_20"/>
     <g id="text_10">
      <!-- −10000 -->
      <g style="fill:#262626;" transform="translate(111.48375 252.398924)scale(0.08 -0.08)">
       <use xlink:href="#LiberationSans-2212"/>
       <use x="58.398438" xlink:href="#LiberationSans-31"/>
       <use x="114.013672" xlink:href="#LiberationSans-30"/>
       <use x="169.628906" xlink:href="#LiberationSans-30"/>
       <use x="225.244141" xlink:href="#LiberationSans-30"/>
       <use x="280.859375" xlink:href="#LiberationSans-30"/>
      </g>
     </g>
    </g>
    <g id="ytick_3">
     <g id="line2d_21">
      <path clip-path="url(#p267d64e81c)" d="M 144 204.208203 
L 1036.8 204.208203 
" style="fill:none;stroke:#ffffff;stroke-linecap:round;stroke-width:0.8;"/>
     </g>
     <g id="line2d_22"/>
     <g id="text_11">
      <!-- 0 -->
      <g style="fill:#262626;" transform="translate(133.95125 207.106953)scale(0.08 -0.08)">
       <use xlink:href="#LiberationSans-30"/>
      </g>
     </g>
    </g>
    <g id="ytick_4">
     <g id="line2d_23">
      <path clip-path="url(#p267d64e81c)" d="M 144 158.916231 
L 1036.8 158.916231 
" style="fill:none;stroke:#ffffff;stroke-linecap:round;stroke-width:0.8;"/>
     </g>
     <g id="line2d_24"/>
     <g id="text_12">
      <!-- 10000 -->
      <g style="fill:#262626;" transform="translate(116.15625 161.814981)scale(0.08 -0.08)">
       <use xlink:href="#LiberationSans-31"/>
       <use x="55.615234" xlink:href="#LiberationSans-30"/>
       <use x="111.230469" xlink:href="#LiberationSans-30"/>
       <use x="166.845703" xlink:href="#LiberationSans-30"/>
       <use x="222.460938" xlink:href="#LiberationSans-30"/>
      </g>
     </g>
    </g>
    <g id="ytick_5">
     <g id="line2d_25">
      <path clip-path="url(#p267d64e81c)" d="M 144 113.62426 
L 1036.8 113.62426 
" style="fill:none;stroke:#ffffff;stroke-linecap:round;stroke-width:0.8;"/>
     </g>
     <g id="line2d_26"/>
     <g id="text_13">
      <!-- 20000 -->
      <g style="fill:#262626;" transform="translate(116.15625 116.52301)scale(0.08 -0.08)">
       <use xlink:href="#LiberationSans-32"/>
       <use x="55.615234" xlink:href="#LiberationSans-30"/>
       <use x="111.230469" xlink:href="#LiberationSans-30"/>
       <use x="166.845703" xlink:href="#LiberationSans-30"/>
       <use x="222.460938" xlink:href="#LiberationSans-30"/>
      </g>
     </g>
    </g>
    <g id="ytick_6">
     <g id="line2d_27">
      <path clip-path="url(#p267d64e81c)" d="M 144 68.332289 
L 1036.8 68.332289 
" style="fill:none;stroke:#ffffff;stroke-linecap:round;stroke-width:0.8;"/>
     </g>
     <g id="line2d_28"/>
     <g id="text_14">
      <!-- 30000 -->
      <defs>
       <path d="M 51.21875 19 
Q 51.21875 14.265625 49.671875 10.546875 
Q 48.140625 6.84375 45.1875 4.265625 
Q 42.234375 1.703125 37.859375 0.359375 
Q 33.5 -0.984375 27.875 -0.984375 
Q 21.484375 -0.984375 17.109375 0.609375 
Q 12.75 2.203125 9.90625 4.8125 
Q 7.078125 7.421875 5.65625 10.765625 
Q 4.25 14.109375 3.8125 17.671875 
L 12.890625 18.5 
Q 13.28125 15.765625 14.328125 13.515625 
Q 15.375 11.28125 17.1875 9.671875 
Q 19 8.0625 21.625 7.171875 
Q 24.265625 6.296875 27.875 6.296875 
Q 34.515625 6.296875 38.296875 9.5625 
Q 42.09375 12.84375 42.09375 19.28125 
Q 42.09375 23.09375 40.40625 25.40625 
Q 38.71875 27.734375 36.203125 29.03125 
Q 33.6875 30.328125 30.734375 30.765625 
Q 27.78125 31.203125 25.296875 31.203125 
L 20.3125 31.203125 
L 20.3125 38.8125 
L 25.09375 38.8125 
Q 27.59375 38.8125 30.265625 39.328125 
Q 32.953125 39.84375 35.171875 41.1875 
Q 37.40625 42.53125 38.84375 44.828125 
Q 40.28125 47.125 40.28125 50.6875 
Q 40.28125 56.203125 37.03125 59.390625 
Q 33.796875 62.59375 27.390625 62.59375 
Q 21.578125 62.59375 17.984375 59.609375 
Q 14.40625 56.640625 13.8125 51.21875 
L 4.984375 51.90625 
Q 5.515625 56.453125 7.46875 59.8125 
Q 9.421875 63.1875 12.421875 65.40625 
Q 15.4375 67.625 19.28125 68.71875 
Q 23.140625 69.828125 27.484375 69.828125 
Q 33.25 69.828125 37.390625 68.375 
Q 41.546875 66.9375 44.1875 64.46875 
Q 46.828125 62.015625 48.0625 58.6875 
Q 49.3125 55.375 49.3125 51.609375 
Q 49.3125 48.578125 48.484375 45.9375 
Q 47.65625 43.3125 45.890625 41.203125 
Q 44.140625 39.109375 41.421875 37.59375 
Q 38.71875 36.078125 34.90625 35.296875 
L 34.90625 35.109375 
Q 39.0625 34.671875 42.140625 33.21875 
Q 45.21875 31.78125 47.21875 29.625 
Q 49.21875 27.484375 50.21875 24.75 
Q 51.21875 22.015625 51.21875 19 
" id="LiberationSans-33"/>
      </defs>
      <g style="fill:#262626;" transform="translate(116.15625 71.231039)scale(0.08 -0.08)">
       <use xlink:href="#LiberationSans-33"/>
       <use x="55.615234" xlink:href="#LiberationSans-30"/>
       <use x="111.230469" xlink:href="#LiberationSans-30"/>
       <use x="166.845703" xlink:href="#LiberationSans-30"/>
       <use x="222.460938" xlink:href="#LiberationSans-30"/>
      </g>
     </g>
    </g>
   </g>
   <g id="line2d_29">
    <path clip-path="url(#p267d64e81c)" d="M 184.581818 201.12382 
L 185.157039 217.066594 
L 187.457922 263.382164 
L 188.608363 286.64412 
L 189.183584 295.466996 
L 189.758804 300.449113 
L 190.334025 293.560204 
L 190.909246 261.466313 
L 191.484466 199.004155 
L 192.059687 123.357505 
L 192.634908 68.228117 
L 193.210128 58.132537 
L 193.785349 87.132986 
L 194.36057 127.506249 
L 194.93579 156.293826 
L 196.086232 190.407739 
L 197.236673 238.213415 
L 197.811894 248.712094 
L 198.387114 241.184568 
L 199.537556 200.39009 
L 200.112776 186.458279 
L 200.687997 181.054947 
L 201.838438 179.669013 
L 202.98888 175.946013 
L 203.5641 176.797502 
L 204.139321 182.22348 
L 204.714542 192.82633 
L 206.440204 233.426054 
L 207.590645 256.049393 
L 208.165866 264.550696 
L 208.741086 263.169291 
L 209.316307 248.934025 
L 210.466748 206.119524 
L 211.041969 189.760064 
L 211.61719 177.440648 
L 212.19241 168.712885 
L 214.493293 148.739125 
L 215.068514 159.808483 
L 215.643734 191.666856 
L 216.218955 229.707583 
L 216.794176 247.969306 
L 217.369396 234.816517 
L 217.944617 204.511659 
L 218.519838 182.545053 
L 219.095058 181.254232 
L 220.2455 207.075185 
L 221.971162 235.219616 
L 223.121603 266.665832 
L 223.696824 272.517554 
L 224.272044 265.723759 
L 224.847265 255.831992 
L 225.422486 259.45082 
L 226.572927 297.047686 
L 227.148148 279.755211 
L 227.723368 219.494243 
L 228.298589 141.424472 
L 228.87381 84.161833 
L 229.44903 68.966376 
L 230.024251 88.944665 
L 231.174692 154.382505 
L 231.749913 176.584629 
L 232.325134 190.611553 
L 232.900354 201.554093 
L 234.050796 228.856094 
L 234.626016 235.332846 
L 235.201237 226.093283 
L 236.351678 184.76436 
L 236.926899 177.644462 
L 238.07734 185.507148 
L 238.652561 183.808699 
L 239.227782 179.252327 
L 239.803002 177.843746 
L 240.378223 181.593922 
L 240.953444 188.686644 
L 241.528664 198.687112 
L 242.103885 212.609864 
L 243.254326 246.827948 
L 243.829547 256.139977 
L 244.404768 255.10732 
L 244.979988 245.953813 
L 246.13043 222.696386 
L 247.280871 203.673758 
L 248.431312 182.73075 
L 249.006533 178.518597 
L 249.581754 179.433494 
L 250.156974 178.622768 
L 250.732195 170.09429 
L 251.307416 158.956994 
L 251.882636 160.329341 
L 252.457857 183.387484 
L 253.033078 216.740491 
L 253.608298 236.188864 
L 254.183519 228.317119 
L 254.75874 205.489966 
L 255.33396 191.345283 
L 255.909181 194.438725 
L 256.484402 203.035141 
L 257.059622 204.742648 
L 257.634843 203.669228 
L 258.210064 212.396991 
L 259.360505 247.670379 
L 259.935726 252.108992 
L 260.510946 250.42866 
L 261.086167 251.262032 
L 261.661388 254.147131 
L 262.236608 255.089204 
L 262.811829 259.029605 
L 263.96227 288.881544 
L 264.537491 276.340197 
L 265.112712 220.141918 
L 265.687932 141.315771 
L 266.263153 83.523216 
L 266.838374 72.471975 
L 267.413594 96.81188 
L 267.988815 128.23545 
L 268.564036 151.311709 
L 270.289698 207.491871 
L 270.864918 225.355024 
L 271.440139 237.348338 
L 272.01536 238.951674 
L 272.590581 225.767181 
L 273.741022 178.378192 
L 274.316243 168.839702 
L 274.891463 171.910498 
L 275.466684 177.956976 
L 276.041905 179.152684 
L 276.617125 176.362699 
L 277.192346 175.103582 
L 277.767567 179.447082 
L 278.342787 191.25017 
L 280.068449 249.024609 
L 280.64367 254.042959 
L 281.218891 249.24201 
L 281.794111 241.714484 
L 283.519773 224.607707 
L 284.094994 212.91332 
L 285.245435 185.190104 
L 285.820656 182.853038 
L 286.395877 193.378893 
L 286.971097 207.274469 
L 287.546318 209.534539 
L 288.121539 193.569119 
L 288.696759 170.43398 
L 289.27198 158.626363 
L 289.847201 166.498107 
L 290.997642 201.880196 
L 291.572863 206.848725 
L 292.723304 200.698075 
L 293.298525 202.609396 
L 293.873745 208.044433 
L 294.448966 211.097112 
L 295.024187 209.321666 
L 295.599407 207.917615 
L 296.174628 215.254915 
L 297.325069 247.973835 
L 297.90029 254.563817 
L 298.475511 252.657025 
L 299.625952 246.402203 
L 300.201173 240.736178 
L 300.776393 236.940711 
L 301.351614 246.270857 
L 301.926835 269.007426 
L 302.502055 282.726365 
L 303.077276 260.610295 
L 304.802938 90.538942 
L 305.378159 79.908916 
L 305.953379 92.980179 
L 306.5286 120.807567 
L 308.254262 230.989346 
L 308.829483 241.166452 
L 309.404703 237.253225 
L 309.979924 228.113305 
L 310.555145 215.350028 
L 311.705586 177.735046 
L 312.280807 167.784399 
L 312.856027 169.564374 
L 313.431248 174.89071 
L 314.006469 175.841841 
L 314.581689 174.886181 
L 315.15691 178.183436 
L 315.732131 186.45375 
L 316.882572 207.586984 
L 318.033013 239.898276 
L 318.608234 249.35524 
L 319.183455 246.701131 
L 320.333896 229.897809 
L 320.909117 224.095908 
L 321.484337 214.815583 
L 322.634779 191.145998 
L 323.209999 188.473772 
L 323.78522 192.853506 
L 324.360441 200.584845 
L 324.935661 209.842524 
L 325.510882 216.953364 
L 326.086103 214.724999 
L 326.661323 199.108327 
L 327.236544 177.436119 
L 327.811765 163.305023 
L 328.386985 162.775107 
L 328.962206 169.152217 
L 330.112647 178.722411 
L 330.687868 189.212031 
L 331.263089 205.281623 
L 331.838309 218.221539 
L 332.41353 221.111167 
L 333.563971 211.441331 
L 334.139192 212.478517 
L 334.714413 220.689951 
L 335.864854 245.854171 
L 336.440075 250.319959 
L 337.015295 244.355006 
L 337.590516 233.747627 
L 338.165737 227.153116 
L 338.740957 226.935714 
L 339.316178 230.45943 
L 339.891399 239.359302 
L 340.466619 258.504218 
L 341.04184 282.069631 
L 341.617061 287.713011 
L 342.192281 254.455116 
L 343.342723 118.896245 
L 343.917943 79.49223 
L 344.493164 76.185916 
L 345.068385 97.867183 
L 345.643605 133.027341 
L 346.794047 217.696152 
L 347.369267 243.521634 
L 347.944488 245.845112 
L 348.519709 232.366222 
L 349.67015 200.711663 
L 350.820591 174.564608 
L 351.395812 169.790834 
L 352.546253 175.533856 
L 353.121474 174.134334 
L 353.696695 173.300962 
L 354.271915 180.819429 
L 355.997577 228.439408 
L 356.572798 237.561211 
L 357.148019 243.933791 
L 357.723239 246.606017 
L 358.29846 243.290645 
L 358.873681 234.603645 
L 360.599343 199.534071 
L 361.174563 194.003922 
L 361.749784 193.800108 
L 362.325005 196.241345 
L 362.900226 199.633714 
L 363.475446 206.76267 
L 364.050667 218.43894 
L 364.625888 227.157645 
L 365.201108 222.9002 
L 366.35155 191.662327 
L 366.92677 187.323356 
L 367.501991 186.145765 
L 368.077212 175.198695 
L 368.652432 155.772969 
L 369.227653 145.450928 
L 369.802874 157.679761 
L 370.953315 208.34336 
L 371.528536 220.150977 
L 372.103756 226.401269 
L 372.678977 234.173371 
L 373.254198 240.432722 
L 373.829418 239.472532 
L 374.404639 232.900667 
L 374.97986 227.891375 
L 375.55508 226.836072 
L 376.130301 225.142152 
L 377.280742 213.465882 
L 377.855963 211.309984 
L 378.431184 213.25301 
L 379.006404 217.999608 
L 379.581625 228.874211 
L 380.156846 250.827229 
L 380.732066 281.132087 
L 381.307287 302.795237 
L 381.882508 295.55758 
L 382.457728 251.397908 
L 383.60817 112.636895 
L 384.18339 66.851241 
L 384.758611 57.693204 
L 385.333832 84.601165 
L 387.059494 227.57886 
L 387.634714 244.155722 
L 388.209935 241.170981 
L 388.785156 227.587919 
L 389.935597 197.110951 
L 390.510818 187.083308 
L 391.086038 181.806794 
L 391.661259 178.595593 
L 392.8117 169.260918 
L 393.386921 169.256389 
L 393.962142 179.130038 
L 395.112583 213.339064 
L 395.687804 222.478984 
L 396.263024 225.033451 
L 396.838245 226.088754 
L 397.413466 228.222006 
L 397.988686 229.911397 
L 398.563907 228.434878 
L 399.139128 223.108543 
L 400.289569 206.010823 
L 400.86479 200.059458 
L 401.44001 199.226086 
L 402.015231 201.431805 
L 402.590452 203.157429 
L 403.165672 203.560528 
L 403.740893 206.441097 
L 404.891334 220.993408 
L 405.466555 219.720703 
L 406.616996 202.618455 
L 407.192217 201.96625 
L 407.767438 201.776024 
L 408.342658 190.919538 
L 409.4931 148.005395 
L 410.06832 141.845687 
L 410.643541 151.732925 
L 411.218762 171.163181 
L 412.944424 245.949284 
L 413.519644 259.890153 
L 414.094865 259.645576 
L 414.670086 249.477528 
L 416.970968 195.92883 
L 417.546189 192.409644 
L 418.12141 197.518579 
L 418.69663 204.950991 
L 419.847072 215.042042 
L 420.422292 225.246324 
L 422.147954 273.373572 
L 422.723175 293.007642 
L 423.298396 307.8 
L 423.873616 298.429091 
L 424.448837 249.681342 
L 425.599278 95.204015 
L 426.174499 55.8 
L 426.74972 62.068409 
L 427.32494 99.026658 
L 428.475382 182.105721 
L 429.050602 208.560761 
L 429.625823 222.913787 
L 430.201044 226.39674 
L 430.776264 221.967185 
L 432.501926 196.753144 
L 433.077147 191.259228 
L 433.652368 187.626812 
L 434.227588 185.412035 
L 434.802809 184.542429 
L 435.37803 185.307863 
L 435.95325 187.518111 
L 437.103692 193.252075 
L 437.678912 198.053024 
L 438.254133 206.119524 
L 438.829354 215.993174 
L 439.404574 223.765276 
L 439.979795 227.039886 
L 440.555016 226.414856 
L 441.130236 223.117601 
L 442.855898 206.853254 
L 443.431119 207.192944 
L 444.00634 208.764575 
L 444.58156 206.450155 
L 445.156781 202.174593 
L 445.732002 204.330491 
L 446.882443 224.933809 
L 447.457664 219.820345 
L 448.032884 201.975309 
L 448.608105 188.383188 
L 449.183326 190.706666 
L 449.758546 200.394619 
L 450.333767 198.777696 
L 450.908988 179.886414 
L 451.484208 156.927914 
L 452.059429 146.202775 
L 452.63465 151.415881 
L 453.20987 165.52433 
L 454.360312 203.551469 
L 455.510753 245.306138 
L 456.085974 253.621744 
L 456.661195 251.044631 
L 457.236415 242.24893 
L 458.386857 218.556699 
L 459.537298 194.764827 
L 460.112519 189.316203 
L 460.687739 190.838013 
L 461.26296 198.247779 
L 462.413401 223.430116 
L 463.563843 251.15786 
L 464.139063 262.005288 
L 465.289505 279.959025 
L 465.864725 291.10085 
L 466.439946 296.74423 
L 467.015167 281.123029 
L 467.590387 233.525696 
L 468.740829 99.23953 
L 469.316049 67.70273 
L 469.89127 74.913212 
L 471.041711 143.548666 
L 471.616932 176.575571 
L 472.192153 203.053258 
L 472.767373 221.622966 
L 473.342594 230.871586 
L 473.917815 231.514732 
L 474.493035 225.66301 
L 475.068256 215.254915 
L 476.218697 191.657798 
L 476.793918 187.75363 
L 477.369139 189.433962 
L 477.944359 190.715725 
L 478.51958 187.635871 
L 479.094801 182.961739 
L 479.670021 182.105721 
L 480.245242 186.684739 
L 481.395683 202.19271 
L 482.546125 219.294959 
L 483.121345 225.563367 
L 483.696566 228.842506 
L 484.271787 229.61247 
L 484.847007 228.095189 
L 485.422228 223.556933 
L 486.572669 210.159568 
L 487.14789 206.64944 
L 487.723111 205.163863 
L 488.298331 204.84229 
L 488.873552 207.614159 
L 489.448773 213.864451 
L 490.023993 217.610097 
L 490.599214 211.627028 
L 491.174435 197.527637 
L 491.749655 186.240878 
L 492.324876 185.203692 
L 492.900097 188.582473 
L 493.475317 184.456374 
L 494.625759 158.110034 
L 495.200979 155.224936 
L 495.7762 161.29406 
L 496.926641 179.976998 
L 497.501862 192.962206 
L 498.652303 224.19555 
L 499.227524 235.745003 
L 499.802745 243.100419 
L 500.377965 244.146663 
L 500.953186 235.658948 
L 502.103627 199.968874 
L 502.678848 188.365071 
L 503.254069 185.416564 
L 503.829289 187.622283 
L 504.40451 194.339082 
L 504.979731 206.540739 
L 506.130172 235.87182 
L 506.705393 242.443685 
L 507.280613 245.007211 
L 507.855834 248.299937 
L 509.581496 261.239853 
L 510.156717 270.402419 
L 510.731937 276.969755 
L 511.307158 264.98097 
L 511.882379 223.647517 
L 513.03282 108.057877 
L 513.608041 82.042168 
L 514.183261 88.079588 
L 514.758482 114.453103 
L 515.908923 176.811089 
L 516.484144 200.054929 
L 517.059365 214.838229 
L 517.634585 221.09305 
L 518.209806 220.997937 
L 518.785027 217.270407 
L 519.935468 208.347889 
L 521.085909 202.709039 
L 521.66113 197.631809 
L 522.811571 183.609414 
L 523.386792 181.675447 
L 523.962013 184.882119 
L 525.112454 196.033002 
L 525.687675 203.456356 
L 527.413337 232.782908 
L 527.988557 235.450605 
L 528.563778 232.773849 
L 530.28944 215.150743 
L 530.864661 215.359086 
L 531.439881 217.601039 
L 532.015102 217.157178 
L 533.165543 208.669462 
L 533.740764 209.403192 
L 534.315985 212.297349 
L 534.891205 209.181261 
L 536.041647 184.442787 
L 536.616867 179.877356 
L 537.192088 185.090462 
L 537.767309 191.449455 
L 538.342529 190.729312 
L 539.492971 175.434213 
L 540.068191 172.422297 
L 540.643412 173.948637 
L 541.218633 177.214188 
L 541.793853 182.748867 
L 542.369074 193.05732 
L 544.094736 240.527835 
L 544.669957 243.739036 
L 545.245178 237.130937 
L 546.395619 214.086382 
L 546.97084 204.84229 
L 547.54606 197.835622 
L 548.121281 193.265663 
L 548.696502 192.414174 
L 549.271722 196.028473 
L 549.846943 203.673758 
L 551.572605 235.663477 
L 552.147826 240.310433 
L 552.723046 239.178134 
L 553.298267 235.640831 
L 553.873488 233.95597 
L 554.448708 235.233203 
L 555.023929 238.829386 
L 555.59915 246.823419 
L 556.17437 259.967149 
L 556.749591 270.39789 
L 557.324812 260.832226 
L 557.900032 220.671835 
L 559.050474 109.765384 
L 559.625694 89.13942 
L 560.200915 98.949661 
L 561.926577 164.668312 
L 563.077018 202.183652 
L 563.652239 217.383637 
L 564.22746 226.6232 
L 564.80268 228.747393 
L 565.377901 223.860389 
L 567.103563 197.310236 
L 568.829225 181.471633 
L 569.404446 181.045889 
L 569.979666 185.729079 
L 571.130108 199.959816 
L 571.705328 208.986506 
L 572.85577 229.281838 
L 573.43099 230.975758 
L 574.006211 225.355024 
L 574.581432 218.534053 
L 575.156652 215.698776 
L 575.731873 215.875415 
L 576.307094 215.694247 
L 576.882314 213.551937 
L 578.032756 208.139546 
L 578.607976 206.545269 
L 579.183197 206.545269 
L 579.758418 207.183885 
L 580.333638 204.837761 
L 580.908859 196.884491 
L 581.48408 187.309768 
L 582.0593 184.773418 
L 582.634521 191.9839 
L 583.209742 200.920006 
L 583.784962 201.332163 
L 584.935404 184.882119 
L 585.510624 183.686411 
L 586.085845 186.489984 
L 586.661066 186.22729 
L 587.236286 182.558641 
L 587.811507 181.027772 
L 588.386728 185.629436 
L 588.961948 195.385327 
L 590.68761 232.031061 
L 591.262831 237.887313 
L 591.838052 235.337375 
L 592.988493 216.219634 
L 594.138934 198.46971 
L 594.714155 193.265663 
L 595.289376 194.647068 
L 595.864596 202.822269 
L 596.439817 212.714035 
L 597.015038 219.707116 
L 598.7407 233.756685 
L 599.31592 232.88255 
L 600.466362 218.547641 
L 601.041582 217.59198 
L 601.616803 222.904729 
L 602.767244 239.060375 
L 603.342465 249.980269 
L 603.917686 258.404576 
L 604.492906 251.683247 
L 605.068127 220.468021 
L 606.218568 127.393019 
L 606.793789 105.843099 
L 607.36901 109.756326 
L 608.519451 149.708374 
L 609.669892 189.769122 
L 610.245113 207.170298 
L 610.820334 219.621061 
L 611.395554 225.019864 
L 611.970775 223.760747 
L 612.545996 217.913553 
L 613.696437 204.208203 
L 614.271658 200.811305 
L 614.846878 198.990568 
L 615.99732 193.569119 
L 616.57254 192.522874 
L 617.147761 194.760298 
L 618.298202 202.518812 
L 618.873423 206.015353 
L 620.599085 219.281371 
L 621.174306 218.873743 
L 621.749526 216.740491 
L 622.899968 213.447765 
L 624.050409 209.095207 
L 624.62563 210.15051 
L 625.20085 213.565524 
L 625.776071 215.567429 
L 626.351292 213.239422 
L 626.926512 209.099736 
L 627.501733 206.427509 
L 628.076954 205.281623 
L 628.652174 202.287823 
L 629.227395 197.197006 
L 629.802616 194.117152 
L 630.377836 195.806542 
L 630.953057 198.374597 
L 631.528278 196.014885 
L 632.103498 188.817991 
L 632.678719 184.012513 
L 633.25394 187.105954 
L 633.82916 194.434195 
L 634.404381 197.831093 
L 634.979602 194.434195 
L 635.554822 189.868765 
L 636.130043 190.815367 
L 637.855705 212.297349 
L 639.006147 217.397225 
L 639.581367 219.281371 
L 640.156588 218.452528 
L 640.731809 213.334535 
L 641.307029 206.128582 
L 641.88225 200.906418 
L 642.457471 199.855644 
L 643.032691 202.188181 
L 644.183133 209.946696 
L 645.333574 219.394601 
L 645.908795 222.057769 
L 646.484015 221.201751 
L 647.634457 215.784831 
L 648.209677 215.359086 
L 648.784898 216.432506 
L 649.360119 218.32571 
L 649.935339 221.532382 
L 650.51056 226.405798 
L 651.661001 238.313057 
L 652.236222 242.973601 
L 652.811443 243.421992 
L 653.386663 233.407937 
L 653.961884 208.044433 
L 655.112325 136.750341 
L 655.687546 119.956078 
L 656.262767 124.96537 
L 657.988429 177.739575 
L 659.13887 201.545035 
L 659.714091 210.802714 
L 660.289311 215.250386 
L 660.864532 214.199612 
L 662.014973 205.480907 
L 662.590194 203.257071 
L 663.740635 201.653736 
L 664.315856 200.073046 
L 664.891077 199.099268 
L 665.466297 200.068517 
L 666.041518 201.979838 
L 666.616739 202.921911 
L 667.191959 202.944557 
L 667.76718 204.516188 
L 668.917621 214.186024 
L 669.492842 215.90259 
L 670.643283 211.971247 
L 671.218504 211.848958 
L 672.368945 215.042042 
L 672.944166 216.74955 
L 673.519387 217.687094 
L 674.094607 216.115462 
L 674.669828 212.06636 
L 675.245049 209.620593 
L 675.820269 212.084477 
L 676.39549 215.762185 
L 676.970711 213.687813 
L 678.121152 193.917867 
L 678.696373 191.771028 
L 679.271593 195.602728 
L 679.846814 197.201535 
L 680.997255 188.066144 
L 681.572476 188.695703 
L 682.147697 193.156962 
L 682.722917 195.607257 
L 683.298138 194.642539 
L 683.873359 194.751239 
L 684.448579 198.687112 
L 685.0238 203.990801 
L 685.599021 206.545269 
L 686.174241 205.911181 
L 686.749462 204.520717 
L 687.324683 203.99986 
L 687.899903 203.882101 
L 688.475124 204.321433 
L 689.625565 206.8759 
L 690.200786 205.902123 
L 690.776007 202.718097 
L 691.351227 200.281389 
L 691.926448 201.327633 
L 693.65211 214.090911 
L 694.227331 215.146214 
L 694.802551 214.190553 
L 695.377772 212.079948 
L 695.952993 210.467553 
L 696.528213 211.011057 
L 697.678655 215.689718 
L 698.253875 215.571959 
L 698.829096 214.299254 
L 699.404317 213.556466 
L 699.979537 214.299254 
L 700.554758 216.002232 
L 701.129979 218.760513 
L 701.705199 223.964561 
L 702.855641 239.264189 
L 703.430861 239.907335 
L 704.006082 228.421291 
L 704.581303 204.321433 
L 705.731744 150.23829 
L 706.306965 140.577512 
L 706.882185 145.985374 
L 708.032627 171.172239 
L 709.183068 185.615849 
L 710.90873 207.202002 
L 711.483951 208.972918 
L 712.059171 208.356947 
L 712.634392 207.926674 
L 713.209613 209.30355 
L 713.784833 211.649674 
L 714.360054 213.121663 
L 714.935275 212.079948 
L 716.085716 204.96005 
L 716.660937 202.921911 
L 717.236157 203.044199 
L 717.811378 203.673758 
L 718.386599 203.574115 
L 718.961819 202.722626 
L 719.53704 202.604867 
L 720.112261 204.534305 
L 721.262702 211.228458 
L 721.837923 211.844429 
L 722.413143 210.594371 
L 722.988364 210.14598 
L 723.563585 213.13978 
L 724.138805 218.543112 
L 724.714026 222.270641 
L 725.289247 221.305922 
L 726.439688 214.294725 
L 727.014909 212.396991 
L 727.59013 209.294491 
L 728.740571 197.717863 
L 729.315792 195.92883 
L 729.891012 197.187947 
L 730.466233 197.206064 
L 731.041454 193.360776 
L 731.616674 188.60059 
L 732.191895 187.626812 
L 732.767116 191.25017 
L 733.342336 196.449688 
L 733.917557 200.281389 
L 734.492778 202.822269 
L 735.067998 205.911181 
L 736.21844 213.24848 
L 736.79366 214.290196 
L 737.368881 211.975776 
L 737.944102 206.848725 
L 739.094543 195.285685 
L 739.669764 192.088071 
L 740.244984 191.150528 
L 740.820205 191.879728 
L 741.395426 194.320966 
L 743.121088 205.816068 
L 744.271529 211.223929 
L 744.84675 214.195083 
L 745.42197 215.884473 
L 745.997191 215.060159 
L 746.572412 212.899732 
L 747.147632 211.232988 
L 747.722853 210.784597 
L 748.873294 210.893298 
L 750.023736 212.06636 
L 750.598956 211.536444 
L 751.749398 207.283528 
L 752.324618 207.505458 
L 752.899839 210.046338 
L 754.05028 216.948834 
L 754.625501 221.324039 
L 755.775942 232.796495 
L 756.351163 234.580999 
L 756.926384 228.647751 
L 757.501604 213.234893 
L 758.652046 165.755319 
L 759.227266 149.486443 
L 759.802487 146.85045 
L 760.377708 155.437808 
L 760.952928 167.345067 
L 761.528149 176.484987 
L 763.829032 203.786988 
L 764.404252 207.505458 
L 764.979473 209.086148 
L 765.554694 210.059926 
L 766.129914 210.784597 
L 766.705135 211.011057 
L 767.855576 210.689484 
L 768.430797 209.942166 
L 769.006018 208.035374 
L 770.156459 201.762436 
L 770.73168 199.959816 
L 771.3069 199.638243 
L 771.882121 200.281389 
L 773.032562 202.102126 
L 773.607783 203.225367 
L 774.183004 204.661123 
L 774.758224 206.626794 
L 775.333445 209.108794 
L 777.059107 218.769572 
L 777.634328 219.702586 
L 778.209548 217.718798 
L 778.784769 213.855393 
L 779.35999 210.915944 
L 780.510431 208.773634 
L 781.085652 205.064221 
L 781.660872 199.737885 
L 782.236093 196.350046 
L 782.811314 196.449688 
L 783.386534 197.514049 
L 783.961755 196.033002 
L 784.536976 192.622517 
L 785.112196 190.720254 
L 785.687417 192.726688 
L 787.413079 206.114995 
L 788.56352 212.804619 
L 789.138741 214.199612 
L 789.713962 212.91332 
L 790.289182 208.886864 
L 792.014844 190.389622 
L 792.590065 188.917633 
L 793.165286 190.711195 
L 794.315727 195.82013 
L 794.890948 199.633714 
L 796.61661 216.731433 
L 797.19183 217.496867 
L 797.767051 216.631791 
L 798.917492 215.571959 
L 799.492713 214.308313 
L 800.067934 212.483046 
L 800.643154 211.654203 
L 801.218375 212.061831 
L 801.793596 212.813677 
L 802.368816 212.709506 
L 802.944037 211.427743 
L 803.519258 208.991035 
L 804.094478 205.902123 
L 804.669699 203.99986 
L 805.24492 204.629418 
L 807.545802 216.74955 
L 808.121023 221.197221 
L 809.271464 233.521167 
L 809.846685 235.654419 
L 810.421906 230.663243 
L 810.997126 216.745021 
L 812.722788 156.810155 
L 813.298009 152.801815 
L 813.87323 158.517662 
L 814.44845 167.245425 
L 815.023671 174.129805 
L 816.174112 185.810604 
L 817.324554 202.496166 
L 817.899774 208.67852 
L 818.474995 211.527385 
L 819.050216 212.29282 
L 819.625437 212.587218 
L 820.775878 214.60724 
L 821.351099 213.995798 
L 821.926319 210.988411 
L 823.076761 203.338597 
L 823.651981 201.141936 
L 824.227202 199.950758 
L 824.802423 199.425371 
L 825.377643 199.751473 
L 825.952864 200.272331 
L 826.528085 200.38556 
L 827.103305 200.381031 
L 827.678526 202.084009 
L 828.828967 210.698542 
L 829.404188 212.908791 
L 829.979409 212.392462 
L 830.554629 211.214871 
L 831.12985 211.006528 
L 831.705071 211.223929 
L 832.280291 210.893298 
L 833.430733 209.294491 
L 834.005953 207.509988 
L 835.156395 199.207969 
L 835.731615 196.893549 
L 836.306836 197.387232 
L 836.882057 198.066612 
L 837.457277 196.322871 
L 838.032498 193.184137 
L 838.607719 191.331695 
L 839.182939 192.43229 
L 840.908601 200.802247 
L 842.634263 210.915944 
L 843.209484 213.012962 
L 843.784705 214.308313 
L 844.359925 213.656108 
L 844.935146 209.842524 
L 846.660808 188.799874 
L 847.236029 185.199162 
L 847.811249 185.715491 
L 848.38647 189.868765 
L 849.536911 200.489732 
L 850.687353 206.753612 
L 851.837794 216.835605 
L 852.413015 218.565758 
L 853.563456 214.099969 
L 854.138677 214.081853 
L 854.713897 215.254915 
L 855.289118 214.516656 
L 856.439559 208.68305 
L 857.01478 207.913086 
L 857.590001 207.827031 
L 858.165221 206.223696 
L 858.740442 203.569586 
L 859.315663 202.613925 
L 859.890883 204.738119 
L 860.466104 208.248247 
L 861.041325 210.680426 
L 861.616545 211.862546 
L 862.191766 213.447765 
L 862.766987 217.48328 
L 863.917428 230.871586 
L 864.492649 235.006743 
L 865.067869 234.1779 
L 865.64309 227.144057 
L 866.218311 214.525714 
L 867.943973 168.29167 
L 868.519193 162.779637 
L 869.094414 165.537918 
L 870.244855 181.793206 
L 870.820076 187.210126 
L 871.395297 191.13694 
L 871.970517 196.350046 
L 873.120959 208.886864 
L 873.696179 211.432272 
L 874.2714 211.848958 
L 874.846621 212.926907 
L 875.421841 215.245856 
L 875.997062 216.437035 
L 876.572283 213.973152 
L 877.722724 203.986272 
L 878.297945 202.201769 
L 878.873165 201.535977 
L 879.448386 199.65636 
L 880.023607 196.44063 
L 880.598827 194.755768 
L 881.174048 196.984133 
L 881.749269 201.762436 
L 882.324489 204.84229 
L 882.89971 204.321433 
L 883.474931 201.970779 
L 884.050151 201.766966 
L 884.625372 204.950991 
L 885.200593 209.620593 
L 885.775813 212.501163 
L 886.351034 212.487575 
L 886.926255 210.906885 
L 887.501475 209.942166 
L 888.076696 209.942166 
L 888.651917 209.625123 
L 889.227137 207.288057 
L 890.377579 198.895455 
L 890.952799 197.726922 
L 892.103241 201.662794 
L 892.678461 200.802247 
L 893.828903 193.569119 
L 894.404123 193.170549 
L 894.979344 195.376268 
L 895.554565 198.379126 
L 897.280227 205.050634 
L 897.855447 207.4964 
L 898.430668 208.891393 
L 899.005889 209.086148 
L 899.581109 208.991035 
L 900.15633 208.243718 
L 900.731551 205.80248 
L 902.457213 192.726688 
L 903.032433 190.933126 
L 904.182875 187.952914 
L 904.758095 187.6404 
L 905.333316 190.493794 
L 905.908537 196.78032 
L 906.483757 204.303316 
L 907.058978 210.059926 
L 907.634199 213.126192 
L 908.209419 214.303783 
L 908.78464 214.720469 
L 909.359861 214.833699 
L 909.935082 214.720469 
L 910.510302 214.412484 
L 911.085523 213.76028 
L 911.660744 212.718564 
L 912.235964 211.097112 
L 913.386406 206.735495 
L 913.961626 205.820597 
L 914.536847 206.210108 
L 915.112068 207.405816 
L 915.687288 208.34336 
L 916.83773 209.616064 
L 917.41295 210.802714 
L 917.988171 212.804619 
L 920.289054 222.89567 
L 920.864274 224.503535 
L 921.439495 225.237265 
L 922.014716 225.142152 
L 922.589936 223.756218 
L 923.165157 219.498772 
L 923.740378 210.793656 
L 925.46604 171.27641 
L 926.04126 166.493578 
L 926.616481 168.930286 
L 928.342143 191.372458 
L 928.917364 195.376268 
L 929.492584 197.305706 
L 930.067805 198.791283 
L 930.643026 201.545035 
L 931.793467 209.208437 
L 932.368688 211.101641 
L 932.943908 211.223929 
L 933.519129 211.115229 
L 934.09435 211.214871 
L 934.66957 210.268269 
L 935.244791 206.432039 
L 936.395232 194.651597 
L 936.970453 192.835389 
L 937.545674 194.85994 
L 938.120894 197.939794 
L 938.696115 199.529542 
L 939.271336 199.855644 
L 939.846556 200.381031 
L 940.421777 202.188181 
L 942.72266 211.645145 
L 943.29788 212.709506 
L 943.873101 211.531915 
L 944.448322 209.208437 
L 945.023542 208.234659 
L 945.598763 209.634181 
L 946.173984 211.636086 
L 946.749204 211.33263 
L 947.324425 207.709272 
L 947.899646 202.826798 
L 948.474866 199.425371 
L 949.050087 198.048495 
L 949.625308 197.935265 
L 950.200528 198.157195 
L 951.35097 199.004155 
L 952.501411 198.795812 
L 953.076632 199.737885 
L 954.802294 206.653969 
L 955.952735 208.239188 
L 956.527956 209.104265 
L 957.103176 208.23013 
L 958.253618 200.689017 
L 958.828838 198.909042 
L 959.404059 199.099268 
L 959.97928 198.474239 
L 960.5545 194.964112 
L 961.129721 190.498323 
L 961.704942 189.021805 
L 962.280162 191.562684 
L 963.430604 199.31667 
L 965.731486 207.904028 
L 966.881928 210.245623 
L 968.032369 214.394367 
L 968.60759 215.263973 
L 969.18281 214.824641 
L 970.908472 211.848958 
L 972.058914 207.922145 
L 972.634134 207.600572 
L 973.209355 208.68305 
L 973.784576 209.07709 
L 974.359796 207.514517 
L 974.935017 204.837761 
L 975.510238 203.99986 
L 976.085458 206.436568 
L 977.2359 215.576488 
L 977.81112 217.374579 
L 978.386341 216.966951 
L 978.961562 215.884473 
L 979.536782 215.259444 
L 980.112003 215.359086 
L 981.262444 216.432506 
L 981.837665 215.667072 
L 982.412886 211.44586 
L 982.988106 202.491637 
L 984.138548 179.546724 
L 984.713768 173.518363 
L 985.288989 173.486659 
L 985.86421 177.988681 
L 987.014651 190.407739 
L 987.589872 195.068283 
L 988.165092 197.930736 
L 989.315534 201.440863 
L 989.890754 204.738119 
L 990.465975 208.886864 
L 991.041196 211.95313 
L 991.616416 212.822736 
L 992.191637 211.848958 
L 995.06774 204.747177 
L 996.218182 201.676382 
L 996.218182 201.676382 
" style="fill:none;stroke:#4c72b0;stroke-linecap:round;stroke-width:1.4;"/>
   </g>
   <g id="patch_3">
    <path d="M 144 320.4 
L 144 43.2 
" style="fill:none;"/>
   </g>
   <g id="patch_4">
    <path d="M 1036.8 320.4 
L 1036.8 43.2 
" style="fill:none;"/>
   </g>
   <g id="patch_5">
    <path d="M 144 320.4 
L 1036.8 320.4 
" style="fill:none;"/>
   </g>
   <g id="patch_6">
    <path d="M 144 43.2 
L 1036.8 43.2 
" style="fill:none;"/>
   </g>
  </g>
 </g>
 <defs>
  <clipPath id="p267d64e81c">
   <rect height="277.2" width="892.8" x="144" y="43.2"/>
  </clipPath>
 </defs>
</svg>
