<?xml version="1.0" encoding="utf-8" standalone="no"?>
<!DOCTYPE svg PUBLIC "-//W3C//DTD SVG 1.1//EN"
  "http://www.w3.org/Graphics/SVG/1.1/DTD/svg11.dtd">
<!-- Created with matplotlib (http://matplotlib.org/) -->
<svg height="360pt" version="1.1" viewBox="0 0 579 360" width="579pt" xmlns="http://www.w3.org/2000/svg" xmlns:xlink="http://www.w3.org/1999/xlink">
 <defs>
  <style type="text/css">
*{stroke-linecap:butt;stroke-linejoin:round;}
  </style>
 </defs>
 <g id="figure_1">
  <g id="patch_1">
   <path d="M 0 360 
L 579.6 360 
L 579.6 0 
L 0 0 
z
" style="fill:none;opacity:0;"/>
  </g>
  <g id="axes_1">
   <g id="patch_2">
    <path d="M 72.45 320.4 
L 521.64 320.4 
L 521.64 43.2 
L 72.45 43.2 
z
" style="fill:#ffffff;"/>
   </g>
   <g id="matplotlib.axis_1"/>
   <g id="matplotlib.axis_2"/>
   <g id="line2d_1">
    <path clip-path="url(#pdf17643688)" d="M 92.867727 228.339946 
L 93.611542 206.432077 
L 94.355358 235.007466 
L 95.099173 298.726702 
L 95.842988 307.8 
L 98.074434 307.8 
L 99.562064 198.806733 
L 100.305879 193.978991 
L 101.049694 237.243615 
L 101.79351 305.892408 
L 102.537325 307.8 
L 104.024955 307.8 
L 104.76877 282.397661 
L 105.512586 212.729906 
L 106.256401 175.132869 
L 107.000216 187.604161 
L 107.744031 242.956964 
L 108.487846 307.8 
L 110.719292 307.8 
L 112.206923 179.512399 
L 112.950738 157.887106 
L 113.694553 186.866655 
L 115.182183 307.8 
L 116.669814 307.8 
L 117.413629 276.025721 
L 118.157444 202.96013 
L 118.901259 151.739324 
L 119.645075 147.292596 
L 120.38889 191.025357 
L 121.132705 260.107617 
L 121.87652 307.8 
L 122.620335 307.8 
L 123.364151 304.675021 
L 124.851781 167.558834 
L 125.595596 130.281415 
L 126.339411 143.220712 
L 127.083227 199.089303 
L 127.827042 269.005169 
L 128.570857 307.8 
L 129.314672 307.8 
L 130.058487 271.19133 
L 131.546118 136.889828 
L 132.289933 115.684789 
L 133.033748 145.205117 
L 134.521379 276.463386 
L 135.265194 307.8 
L 136.009009 294.752238 
L 136.752824 235.843944 
L 137.496639 162.956649 
L 138.240455 112.080427 
L 138.98427 108.145176 
L 139.728085 152.475217 
L 141.215715 281.390531 
L 141.959531 299.826085 
L 142.703346 267.509164 
L 144.190976 130.807465 
L 144.934791 93.972844 
L 145.678607 107.502162 
L 146.422422 164.00701 
L 147.166237 234.48318 
L 147.910052 282.899971 
L 148.653867 284.327615 
L 149.397683 237.482755 
L 150.885313 103.751148 
L 151.629128 83.080215 
L 152.372943 113.253746 
L 153.860574 245.715606 
L 154.604389 280.368042 
L 155.348204 264.620453 
L 156.092019 205.912103 
L 156.835835 133.308547 
L 157.57965 82.88158 
L 158.323465 79.56125 
L 159.06728 124.590352 
L 159.811095 194.894674 
L 160.554911 254.688131 
L 161.298726 273.476011 
L 162.042541 241.39931 
L 163.530171 105.301865 
L 164.273987 69.003579 
L 165.017802 83.214976 
L 165.761617 140.44628 
L 166.505432 211.570995 
L 167.249247 260.47671 
L 167.993063 262.233617 
L 168.736878 215.639993 
L 170.224508 82.644643 
L 170.968323 62.58933 
L 171.712139 93.495866 
L 173.199769 227.314904 
L 173.943584 262.419157 
L 174.687399 246.982735 
L 175.431215 188.546338 
L 176.17503 116.297742 
L 176.918845 66.390218 
L 177.66266 63.753521 
L 178.406475 109.548484 
L 179.150291 180.578482 
L 179.894106 240.956115 
L 180.637921 260.157415 
L 181.381736 228.380878 
L 182.869367 93.004932 
L 183.613182 57.299928 
L 184.356997 72.248654 
L 185.100812 130.259595 
L 185.844627 202.083871 
L 186.588443 251.527591 
L 187.332258 253.661343 
L 188.076073 207.365452 
L 188.819888 135.897847 
L 189.563703 75.196544 
L 190.307519 55.8 
L 191.051334 87.480804 
L 192.538964 222.733014 
L 193.282779 258.324155 
L 194.026595 243.232586 
L 194.77041 185.100804 
L 195.514225 113.238892 
L 196.25804 63.881361 
L 197.001855 61.957223 
L 197.745671 108.54493 
L 198.489486 180.32524 
L 199.233301 241.309571 
L 199.977116 260.945093 
L 200.720931 229.488251 
L 202.208562 94.869901 
L 202.952377 59.77439 
L 203.696192 75.47486 
L 204.440007 134.277689 
L 205.183823 206.811523 
L 205.927638 256.801226 
L 206.671453 259.318222 
L 207.415268 213.32531 
L 208.159083 142.203004 
L 208.902899 81.990312 
L 209.646714 63.254234 
L 210.390529 95.709055 
L 211.878159 232.387256 
L 212.621975 268.458706 
L 213.36579 253.703986 
L 214.109605 195.867764 
L 214.85342 124.382514 
L 215.597235 75.563752 
L 216.341051 74.339311 
L 217.084866 121.704835 
L 217.828681 194.218276 
L 218.572496 255.790009 
L 219.316311 275.838736 
L 220.060127 244.679311 
L 221.547757 110.771064 
L 222.291572 76.25949 
L 223.035387 92.684372 
L 223.779203 152.24962 
L 224.523018 225.461324 
L 225.266833 275.963343 
L 226.010648 278.828382 
L 226.754463 233.102142 
L 227.498279 162.28792 
L 228.242094 102.525584 
L 228.985909 84.410285 
L 229.729724 117.597555 
L 231.217355 255.612147 
L 231.96117 292.116234 
L 232.704985 277.64936 
L 233.4488 220.058731 
L 234.192615 148.899305 
L 234.936431 100.56737 
L 235.680246 99.989145 
L 236.424061 148.077048 
L 237.167876 221.266041 
L 237.911692 283.365598 
L 238.655507 303.766354 
L 239.399322 272.84204 
L 240.886952 139.516748 
L 241.630768 105.523929 
L 242.374583 122.606412 
L 243.118398 182.865277 
L 243.862213 256.683981 
L 244.606028 307.625627 
L 245.349844 307.8 
L 246.093659 265.230089 
L 246.837474 194.648219 
L 247.581289 135.259639 
L 248.325104 117.687267 
L 249.06892 151.527432 
L 250.55655 290.713414 
L 251.300365 307.8 
L 252.04418 307.8 
L 252.787996 255.867831 
L 253.531811 184.946604 
L 254.275626 137.012979 
L 255.019441 136.991128 
L 255.763256 185.709833 
L 256.507072 259.480885 
L 257.250887 307.8 
L 258.738517 307.8 
L 260.226148 178.943276 
L 260.969963 145.36956 
L 261.713778 163.008608 
L 262.457593 223.858321 
L 263.201408 298.179452 
L 263.945224 307.8 
L 264.689039 307.8 
L 265.432854 307.309608 
L 266.176669 236.851738 
L 266.920484 177.727977 
L 267.6643 160.588623 
L 268.408115 194.970359 
L 269.15193 264.493868 
L 269.895745 307.8 
L 271.383376 307.8 
L 272.127191 300.612306 
L 272.871006 229.81168 
L 273.614821 182.158185 
L 274.358636 182.573517 
L 275.102452 231.802412 
L 275.846267 306.033313 
L 276.590082 307.8 
L 278.077712 307.8 
L 278.821528 292.988578 
L 279.565343 226.082531 
L 280.309158 192.801544 
L 281.052973 210.869746 
L 281.796788 272.181506 
L 282.540604 307.8 
L 284.772049 307.8 
L 285.515864 285.726365 
L 286.25968 226.73459 
L 287.003495 209.894811 
L 287.74731 244.683626 
L 288.491125 307.8 
L 291.466386 307.8 
L 292.210201 280.120707 
L 292.954016 232.608645 
L 293.697832 233.321834 
L 294.441647 282.92056 
L 295.185462 307.8 
L 298.160723 307.8 
L 299.648353 244.258545 
L 300.392168 262.611934 
L 301.135984 307.8 
L 304.85506 307.8 
L 305.598875 278.59723 
L 306.34269 261.91034 
L 307.086505 296.958916 
L 307.83032 307.8 
L 311.549396 307.8 
L 312.293212 284.578156 
L 313.037027 285.440462 
L 313.780842 307.8 
L 318.243733 307.8 
L 318.987548 295.885237 
L 319.731364 307.8 
L 501.222273 307.8 
L 501.222273 307.8 
" style="fill:none;stroke:#0072b2;stroke-linecap:round;stroke-width:2.8;"/>
   </g>
   <g id="patch_3">
    <path d="M 72.45 320.4 
L 72.45 43.2 
" style="fill:none;stroke:#262626;stroke-linecap:square;stroke-linejoin:miter;stroke-width:1.25;"/>
   </g>
   <g id="patch_4">
    <path d="M 72.45 320.4 
L 521.64 320.4 
" style="fill:none;stroke:#262626;stroke-linecap:square;stroke-linejoin:miter;stroke-width:1.25;"/>
   </g>
  </g>
 </g>
 <defs>
  <clipPath id="pdf17643688">
   <rect height="277.2" width="449.19" x="72.45" y="43.2"/>
  </clipPath>
 </defs>
</svg>
