<?xml version="1.0" encoding="utf-8" standalone="no"?>
<!DOCTYPE svg PUBLIC "-//W3C//DTD SVG 1.1//EN"
  "http://www.w3.org/Graphics/SVG/1.1/DTD/svg11.dtd">
<!-- Created with matplotlib (http://matplotlib.org/) -->
<svg height="720pt" version="1.1" viewBox="0 0 1159 720" width="1159pt" xmlns="http://www.w3.org/2000/svg" xmlns:xlink="http://www.w3.org/1999/xlink">
 <defs>
  <style type="text/css">
*{stroke-linecap:butt;stroke-linejoin:round;}
  </style>
 </defs>
 <g id="figure_1">
  <g id="patch_1">
   <path d="M 0 720 
L 1159.2 720 
L 1159.2 0 
L 0 0 
z
" style="fill:#ffffff;"/>
  </g>
  <g id="axes_1">
   <g id="patch_2">
    <path d="M 144.9 630 
L 1043.28 630 
L 1043.28 86.4 
L 144.9 86.4 
z
" style="fill:#ffffff;"/>
   </g>
   <g id="matplotlib.axis_1"/>
   <g id="matplotlib.axis_2"/>
   <g id="line2d_1">
    <path clip-path="url(#p5d1209c3e1)" d="M 185.735455 158.026166 
L 186.419466 130.882938 
L 187.103476 112.152396 
L 187.787487 111.109091 
L 188.471498 128.355338 
L 189.83952 179.392625 
L 190.523531 188.34585 
L 191.207542 178.091361 
L 192.575564 127.359886 
L 193.259575 111.948924 
L 193.943586 115.17176 
L 194.627597 135.543955 
L 195.311608 163.173306 
L 195.995619 184.610605 
L 196.67963 189.444113 
L 197.363641 175.404311 
L 198.731663 124.473662 
L 199.415674 112.756839 
L 200.099685 120.171423 
L 200.783696 143.183158 
L 201.467707 170.611258 
L 202.151718 189.110922 
L 202.835729 189.716523 
L 203.51974 172.237239 
L 204.887762 122.344797 
L 205.571772 114.607782 
L 206.255783 126.039123 
L 207.623805 177.713816 
L 208.307816 192.838305 
L 208.991827 189.209859 
L 209.675838 168.719739 
L 210.359849 141.527168 
L 211.04386 121.077673 
L 211.727871 117.510444 
L 212.411882 132.687237 
L 213.779904 184.364844 
L 214.463915 195.758352 
L 215.147926 187.991875 
L 215.831937 164.992031 
L 216.515948 138.154945 
L 217.199959 120.758175 
L 217.88397 121.450517 
L 218.567981 140.011747 
L 219.936003 190.461509 
L 220.620014 197.858496 
L 221.304025 186.149802 
L 222.672047 135.372339 
L 223.356058 121.451785 
L 224.040069 126.391204 
L 224.724079 147.894899 
L 225.40809 175.54654 
L 226.092101 195.916888 
L 226.776112 199.148435 
L 227.460123 183.788386 
L 228.828145 133.306605 
L 229.512156 123.202152 
L 230.196167 132.274249 
L 232.2482 200.662191 
L 232.932211 199.66002 
L 233.616222 181.027485 
L 234.300233 154.040189 
L 234.984244 132.070381 
L 235.668255 126.030187 
L 236.352266 139.021487 
L 237.720288 190.907631 
L 238.404299 204.64853 
L 239.08831 199.446605 
L 239.772321 177.999301 
L 240.456332 150.969983 
L 241.140343 131.759102 
L 241.824354 129.933696 
L 242.508365 146.536853 
L 243.876386 197.946068 
L 244.560397 207.848202 
L 245.244408 198.581863 
L 246.61243 148.432248 
L 247.296441 132.448832 
L 247.980452 134.887559 
L 248.664463 154.708819 
L 249.348474 182.351216 
L 250.032485 204.420132 
L 250.716496 210.255452 
L 251.400507 197.158111 
L 252.768529 146.559559 
L 253.45254 134.194545 
L 254.136551 140.844447 
L 254.820562 163.413187 
L 255.504573 191.000717 
L 256.188584 210.24789 
L 256.872595 211.886697 
L 257.556606 195.284177 
L 258.924628 145.471537 
L 259.608639 137.028911 
L 260.29265 147.736072 
L 261.660672 199.39362 
L 262.344683 215.366188 
L 263.028693 212.780209 
L 263.712704 193.082853 
L 264.396715 166.111987 
L 265.080726 145.272066 
L 265.764737 140.961606 
L 266.448748 155.474924 
L 267.81677 207.407707 
L 268.500781 219.732242 
L 269.184792 212.995256 
L 269.868803 190.688016 
L 270.552814 163.936746 
L 271.236825 146.046878 
L 271.920836 145.979167 
L 272.604847 163.956461 
L 273.972869 214.933269 
L 274.65688 223.324724 
L 275.340891 212.610737 
L 276.708913 162.362981 
L 277.392924 147.861561 
L 278.076935 152.045393 
L 278.760946 173.061694 
L 279.444957 200.805737 
L 280.128968 221.875796 
L 280.812979 226.144319 
L 281.496989 211.723322 
L 282.865011 161.516046 
L 283.549022 150.760051 
L 284.233033 159.102279 
L 284.917044 182.660116 
L 285.601055 210.091899 
L 286.285066 228.158292 
L 286.969077 228.213746 
L 287.653088 210.445168 
L 288.337099 183.779713 
L 289.02111 161.507174 
L 289.705121 154.763624 
L 290.389132 167.071469 
L 291.757154 219.082922 
L 292.441165 233.723157 
L 293.125176 229.577231 
L 293.809187 208.901239 
L 294.493198 182.056951 
L 295.177209 162.430845 
L 295.86122 159.870432 
L 296.545231 175.856182 
L 297.913253 227.658915 
L 298.597264 238.533586 
L 299.281275 230.29946 
L 301.333307 164.362542 
L 302.017318 166.055578 
L 302.701329 185.343568 
L 303.38534 213.004751 
L 304.069351 235.713548 
L 304.753362 242.574455 
L 305.437373 230.464017 
L 306.805395 180.319804 
L 307.489406 167.356951 
L 308.173417 173.271738 
L 308.857428 195.407444 
L 309.541439 223.155312 
L 310.22545 243.15661 
L 310.909461 245.85268 
L 311.593472 230.171367 
L 312.961494 180.552787 
L 313.645505 171.446662 
L 314.329516 181.450312 
L 315.697538 233.090076 
L 316.381549 249.91616 
L 317.06556 248.397024 
L 317.749571 229.536419 
L 318.433582 202.841671 
L 319.117593 181.661627 
L 319.801603 176.641376 
L 320.485614 190.503065 
L 321.853636 242.680006 
L 322.537647 255.940234 
L 323.221658 250.257379 
L 323.905669 228.68573 
L 324.58968 202.070751 
L 325.273691 183.730973 
L 325.957702 182.927667 
L 326.641713 200.324244 
L 328.009735 251.807896 
L 328.693746 261.198048 
L 329.377757 251.503512 
L 330.745779 201.87259 
L 331.42979 186.825746 
L 332.113801 190.269276 
L 332.797812 210.793089 
L 333.481823 238.613583 
L 334.165834 260.371144 
L 334.849845 265.680688 
L 335.533856 252.22334 
L 336.901878 202.369918 
L 337.585889 190.989543 
L 338.269899 198.607953 
L 338.95391 221.776703 
L 339.637921 249.424087 
L 340.321932 268.284161 
L 341.005943 269.40126 
L 341.689954 252.520744 
L 343.057976 203.671995 
L 343.741987 196.243536 
L 344.425998 207.86481 
L 345.79402 259.95607 
L 346.478031 275.480356 
L 347.162042 272.394494 
L 347.846053 252.512999 
L 348.530064 225.88619 
L 349.214075 205.871921 
L 349.898086 202.585914 
L 350.582097 217.942163 
L 351.950119 270.082573 
L 352.63413 281.913659 
L 353.318141 274.715823 
L 354.002152 252.327861 
L 354.686163 226.037025 
L 355.370174 209.044324 
L 356.054185 209.991853 
L 356.738196 228.725812 
L 358.106217 279.68962 
L 358.790228 287.559525 
L 359.474239 276.43995 
L 360.842261 226.792729 
L 361.526272 213.24349 
L 362.210283 218.414045 
L 362.894294 240.087705 
L 363.578305 267.957187 
L 364.262316 288.678864 
L 364.946327 292.415424 
L 365.630338 277.658942 
L 366.99836 228.268634 
L 367.682371 218.501964 
L 368.366382 227.783738 
L 370.418415 296.969836 
L 371.102426 296.50078 
L 371.786437 278.4799 
L 372.470448 252.075218 
L 373.154459 230.565577 
L 373.83847 224.829672 
L 374.522481 238.012301 
L 375.890503 290.342228 
L 376.574513 304.501761 
L 377.258524 299.856375 
L 377.942535 279.022255 
L 378.626546 252.553613 
L 379.310557 233.767364 
L 379.994568 232.213576 
L 380.678579 248.993244 
L 382.046601 300.88298 
L 382.730612 311.23488 
L 383.414623 302.543233 
L 384.782645 253.535064 
L 385.466656 237.938637 
L 386.150667 240.617872 
L 386.834678 260.604662 
L 387.518689 288.445648 
L 388.2027 310.837809 
L 388.886711 317.151266 
L 389.570722 304.641004 
L 390.938744 255.140127 
L 391.622755 243.123187 
L 392.306766 249.984725 
L 392.990777 272.712038 
L 393.674788 300.514175 
L 394.358799 320.113308 
L 395.04281 322.255098 
L 395.72682 306.245892 
L 397.094842 257.476673 
L 397.778853 249.342774 
L 398.462864 260.23553 
L 399.830886 312.28213 
L 400.514897 328.634783 
L 401.198908 326.572401 
L 401.882919 307.468181 
L 402.56693 281.051535 
L 403.250941 260.637146 
L 403.934952 256.596455 
L 404.618963 271.272658 
L 405.986985 323.616538 
L 406.670996 336.347882 
L 407.355007 330.150242 
L 408.039018 308.429412 
L 408.723029 282.202615 
L 409.40704 264.696186 
L 410.091051 264.860465 
L 410.775062 282.981656 
L 412.143084 334.396935 
L 412.827095 343.219721 
L 413.511106 333.055425 
L 414.879127 283.870455 
L 415.563138 269.708675 
L 416.247149 274.088627 
L 416.93116 295.233844 
L 417.615171 323.148308 
L 418.299182 344.518098 
L 418.983193 349.239497 
L 419.667204 335.372698 
L 421.035226 286.169257 
L 421.719237 275.708253 
L 422.403248 284.213307 
L 423.087259 307.889235 
L 423.77127 335.503126 
L 424.455281 353.892382 
L 425.139292 354.418553 
L 425.823303 337.20252 
L 426.507314 311.064651 
L 427.191325 289.199544 
L 427.875336 282.706339 
L 428.559347 295.146865 
L 429.927369 347.466199 
L 430.61138 362.451642 
L 431.295391 358.78991 
L 431.979402 338.658454 
L 432.663413 312.310118 
L 433.347423 293.045568 
L 434.031434 290.691684 
L 434.715445 306.783597 
L 436.083467 358.908021 
L 436.767478 370.148667 
L 437.451489 362.407266 
L 439.503522 297.773096 
L 440.187533 299.630461 
L 440.871544 319.002089 
L 441.555555 346.77357 
L 442.239566 369.712819 
L 442.923577 376.958112 
L 443.607588 365.3435 
L 444.97561 316.126062 
L 445.659621 303.427642 
L 446.343632 309.466898 
L 447.027643 331.667954 
L 447.711654 359.531045 
L 448.395665 379.781127 
L 449.079676 382.876898 
L 449.763687 367.688707 
L 451.131709 318.924386 
L 451.81572 310.033185 
L 452.49973 320.124428 
L 453.867752 371.938893 
L 454.551763 389.031972 
L 455.235774 387.924068 
L 455.919785 369.547817 
L 456.603796 343.302668 
L 457.287807 322.445716 
L 457.971818 317.5914 
L 458.655829 331.507345 
L 460.023851 383.860072 
L 460.707862 397.404606 
L 461.391873 392.140111 
L 462.075884 371.037856 
L 462.759895 344.834303 
L 463.443906 326.766439 
L 464.127917 326.081426 
L 464.811928 343.502906 
L 466.17995 395.169651 
L 466.863961 404.859748 
L 467.547972 395.585769 
L 468.915994 346.771497 
L 469.600005 331.943865 
L 470.284016 335.460167 
L 470.968026 355.983852 
L 471.652037 383.839573 
L 472.336048 405.757605 
L 473.020059 411.380308 
L 473.70407 398.340349 
L 475.072092 349.229157 
L 475.756103 338.014647 
L 476.440114 345.663138 
L 477.124125 368.811262 
L 477.808136 396.496183 
L 478.492147 415.531235 
L 479.176158 416.971573 
L 479.860169 400.499599 
L 481.228191 352.309401 
L 481.912202 344.993699 
L 482.596213 356.605816 
L 483.964235 408.703591 
L 484.648246 424.417186 
L 485.332257 421.660856 
L 486.016268 402.173178 
L 486.700279 375.895902 
L 487.38429 356.0989 
L 488.068301 352.87364 
L 488.752312 368.185472 
L 490.120333 420.329202 
L 490.804344 432.362984 
L 491.488355 425.496614 
L 492.172366 403.481798 
L 492.856377 377.497113 
L 493.540388 360.666589 
L 494.224399 361.624772 
L 494.90841 380.283444 
L 496.276432 431.253789 
L 496.960443 439.338075 
L 497.644454 428.547057 
L 499.012476 379.50487 
L 499.696487 366.061804 
L 500.380498 371.195599 
L 501.064509 392.767794 
L 501.74852 420.579865 
L 502.432531 441.374146 
L 503.116542 445.334341 
L 503.800553 430.898287 
L 505.168575 382.029421 
L 505.852586 372.312903 
L 506.536597 381.513866 
L 508.58863 450.605348 
L 509.27264 450.36607 
L 509.956651 432.652007 
L 510.640662 406.524007 
L 511.324673 385.167293 
L 512.008684 379.426385 
L 512.692695 392.488107 
L 514.060717 444.626709 
L 514.744728 458.882585 
L 515.428739 454.469396 
L 516.11275 433.922856 
L 516.796761 407.688304 
L 517.480772 388.99877 
L 518.164783 387.386539 
L 518.848794 404.009651 
L 520.216816 455.703426 
L 520.900827 466.162501 
L 521.584838 457.701212 
L 522.95286 409.142843 
L 523.636871 393.585766 
L 524.320882 396.155641 
L 525.004893 415.955048 
L 525.688904 443.638302 
L 526.372915 465.994249 
L 527.056926 472.42403 
L 527.740937 460.137589 
L 529.108958 411.005363 
L 529.792969 398.97015 
L 530.47698 405.674669 
L 531.160991 428.188847 
L 531.845002 455.830597 
L 532.529013 475.403818 
L 533.213024 477.668687 
L 533.897035 461.871737 
L 535.265057 413.381715 
L 535.949068 405.172556 
L 536.633079 415.864549 
L 538.001101 467.5183 
L 538.685112 483.85593 
L 539.369123 481.920333 
L 540.053134 463.011566 
L 540.737145 436.750952 
L 541.421156 416.363136 
L 542.105167 412.191711 
L 542.789178 426.627876 
L 544.1572 478.568133 
L 544.841211 491.295174 
L 545.525222 485.2244 
L 546.209233 463.676891 
L 546.893243 437.561101 
L 547.577254 420.02387 
L 548.261265 420.004293 
L 548.945276 437.851092 
L 550.313298 488.859795 
L 550.997309 497.688078 
L 551.68132 487.646603 
L 553.049342 438.669667 
L 553.733353 424.419222 
L 554.417364 428.565328 
L 555.101375 449.407044 
L 555.785386 477.056757 
L 556.469397 498.288672 
L 557.153408 503.023718 
L 557.837419 489.271173 
L 559.205441 440.191184 
L 559.889452 429.584059 
L 560.573463 437.809115 
L 561.257474 461.157889 
L 561.941485 488.506043 
L 562.625496 506.768176 
L 563.309507 507.313806 
L 563.993518 490.198654 
L 565.36154 442.227308 
L 566.04555 435.531821 
L 566.729561 447.650653 
L 568.097583 499.361981 
L 568.781594 514.23166 
L 569.465605 510.592231 
L 570.149616 490.54331 
L 570.833627 464.229128 
L 571.517638 444.864223 
L 572.201649 442.254053 
L 572.88566 457.987544 
L 574.253682 509.49776 
L 574.937693 520.63385 
L 575.621704 512.914076 
L 577.673737 448.170422 
L 578.357748 449.72047 
L 579.041759 468.702316 
L 579.72577 496.10852 
L 580.409781 518.800733 
L 581.093792 525.95178 
L 581.777803 514.354136 
L 583.145825 465.107026 
L 583.829836 452.19493 
L 584.513847 457.879557 
L 585.197857 479.665119 
L 585.881868 507.160583 
L 586.565879 527.174977 
L 587.24989 530.185191 
L 587.933901 515.00497 
L 589.301923 466.126396 
L 589.985934 456.965997 
L 590.669945 466.65969 
L 592.037967 517.673356 
L 592.721978 534.543461 
L 593.405989 533.356397 
L 594.09 514.974531 
L 594.774011 488.689835 
L 595.458022 467.667412 
L 596.142033 462.490309 
L 596.826044 475.970742 
L 598.194066 527.514888 
L 598.878077 540.849768 
L 599.562088 535.509611 
L 600.246099 514.383445 
L 600.93011 488.098998 
L 601.614121 469.811344 
L 602.298132 468.752721 
L 602.982143 485.706155 
L 604.350164 536.565726 
L 605.034175 546.059328 
L 605.718186 536.70976 
L 607.086208 487.722943 
L 607.770219 472.621108 
L 608.45423 475.716531 
L 609.138241 495.745404 
L 609.822252 523.140297 
L 610.506263 544.721674 
L 611.190274 550.160137 
L 611.874285 537.040808 
L 613.242307 487.682005 
L 613.926318 476.139665 
L 614.610329 483.324273 
L 615.29434 505.956808 
L 615.978351 533.183103 
L 616.662362 551.896203 
L 617.346373 553.162937 
L 618.030384 536.603632 
L 619.398406 488.084412 
L 620.082417 480.388918 
L 620.766428 491.499032 
L 622.13445 542.61476 
L 622.81846 558.022436 
L 623.502471 555.100862 
L 624.186482 535.513503 
L 624.870493 509.093884 
L 625.554504 489.023607 
L 626.238515 485.369109 
L 626.922526 500.146227 
L 628.290548 551.310222 
L 628.974559 563.054675 
L 629.65857 556.028558 
L 630.342581 533.897235 
L 631.026592 507.73082 
L 631.710603 490.575942 
L 632.394614 491.058769 
L 633.078625 509.15583 
L 634.446647 559.15809 
L 635.130658 566.969424 
L 635.814669 556.020791 
L 637.182691 506.616807 
L 637.866702 492.798793 
L 638.550713 497.415182 
L 639.234724 518.404968 
L 639.918735 545.678101 
L 640.602746 566.063226 
L 641.286757 569.765887 
L 641.970767 555.170585 
L 643.338789 505.869848 
L 644.0228 495.72914 
L 644.706811 504.375383 
L 646.758844 571.948997 
L 647.442855 571.465936 
L 648.126866 553.586931 
L 648.810877 527.266084 
L 649.494888 505.594786 
L 650.178899 499.382652 
L 650.86291 511.85765 
L 652.230932 562.872688 
L 652.914943 576.75907 
L 653.598954 572.113539 
L 654.282965 551.392128 
L 654.966976 524.931601 
L 655.650987 505.880758 
L 656.334998 503.753302 
L 657.019009 519.763455 
L 658.387031 570.348263 
L 659.071042 580.458737 
L 659.755053 571.773666 
L 661.123074 522.764021 
L 661.807085 506.799046 
L 662.491096 508.8135 
L 663.175107 527.979833 
L 663.859118 555.059668 
L 664.543129 576.933987 
L 665.22714 583.035726 
L 665.911151 570.530705 
L 667.279173 520.890075 
L 667.963184 508.401367 
L 668.647195 514.514773 
L 669.331206 536.382101 
L 670.015217 563.429895 
L 670.699228 582.544176 
L 671.383239 584.500483 
L 672.06725 568.486422 
L 673.435272 519.425047 
L 674.119283 510.718638 
L 674.803294 520.788947 
L 676.171316 571.209137 
L 676.855327 587.112374 
L 677.539338 584.885917 
L 678.223349 565.757512 
L 678.90736 539.240767 
L 679.59137 518.470022 
L 680.275381 513.760266 
L 680.959392 527.549814 
L 682.327414 578.27471 
L 683.011425 590.592963 
L 683.695436 584.246618 
L 684.379447 562.472804 
L 685.063458 536.071443 
L 685.747469 518.109487 
L 686.43148 517.513957 
L 687.115491 534.695245 
L 688.483513 584.516921 
L 689.167524 592.962276 
L 689.851535 582.657558 
L 691.219557 533.125729 
L 691.903568 518.409338 
L 692.587579 521.946062 
L 693.27159 542.109695 
L 693.955601 569.120707 
L 694.639612 589.841747 
L 695.323623 594.219197 
L 696.007634 580.212318 
L 697.375656 530.52823 
L 698.059667 519.415354 
L 698.743677 527.002443 
L 699.427688 549.667037 
L 700.111699 576.393187 
L 700.79571 594.173132 
L 701.479721 594.385221 
L 702.163732 577.020877 
L 703.531754 528.390959 
L 704.215765 521.15216 
L 704.899776 532.609845 
L 706.267798 583.037076 
L 706.951809 597.454867 
L 707.63582 593.503986 
L 708.319831 573.207015 
L 709.003842 546.599895 
L 709.687853 526.810711 
L 710.371864 523.622711 
L 711.055875 538.677737 
L 712.423897 588.936705 
L 713.107908 599.652002 
L 713.791919 591.640278 
L 715.843952 525.866816 
L 716.527963 526.808309 
L 717.211974 545.100573 
L 717.895984 571.842738 
L 718.579995 593.99042 
L 719.264006 600.751749 
L 719.948017 588.87854 
L 721.316039 539.027419 
L 722.00005 525.61932 
L 722.684061 530.669146 
L 723.368072 551.760426 
L 724.052083 578.610589 
L 724.736094 598.113101 
L 725.420105 600.763865 
L 726.104116 585.320911 
L 727.472138 535.797694 
L 728.156149 526.107644 
L 728.84016 535.145368 
L 730.208182 584.845314 
L 730.892193 601.238294 
L 731.576204 599.720496 
L 732.260215 581.084859 
L 732.944226 554.516268 
L 733.628237 533.087598 
L 734.312248 527.349744 
L 734.996259 540.158627 
L 736.36428 590.426115 
L 737.048291 603.319907 
L 737.732302 597.675499 
L 738.416313 576.300446 
L 739.100324 549.714002 
L 739.784335 530.988958 
L 740.468346 529.341803 
L 741.152357 545.614083 
L 742.520379 595.244416 
L 743.20439 604.333412 
L 743.888401 594.703237 
L 745.256423 545.14529 
L 745.940434 529.57531 
L 746.624445 532.058444 
L 747.308456 551.402813 
L 747.992467 578.148549 
L 748.676478 599.206584 
L 749.360489 604.276542 
L 750.0445 590.896902 
L 751.412522 540.940301 
L 752.096533 528.900255 
L 752.780544 535.453481 
L 753.464555 557.404565 
L 754.148566 584.007781 
L 754.832577 602.236296 
L 755.516587 603.169457 
L 756.200598 586.366383 
L 757.56862 537.217085 
L 758.252631 528.996315 
L 758.936642 539.461167 
L 760.304664 589.312943 
L 760.988675 604.2765 
L 761.672686 601.054379 
L 762.356697 581.235743 
L 763.040708 554.546229 
L 763.724719 534.078872 
L 764.40873 529.874293 
L 765.092741 543.997924 
L 766.460763 593.949253 
L 767.144774 605.290909 
L 767.828785 597.994696 
L 768.512796 575.640367 
L 769.196807 549.189779 
L 769.880818 531.611732 
L 770.564829 531.523165 
L 771.24884 548.964506 
L 772.616862 597.815138 
L 773.300873 605.265006 
L 773.984884 594.073567 
L 775.352905 544.149352 
L 776.036916 529.882662 
L 776.720927 533.910507 
L 777.404938 554.248544 
L 778.088949 580.914887 
L 778.77296 600.82482 
L 779.456971 604.206528 
L 780.140982 589.392063 
L 781.509004 539.551655 
L 782.193015 528.938136 
L 782.877026 536.983435 
L 784.929059 602.910523 
L 785.61307 602.145418 
L 786.297081 584.066867 
L 786.981092 557.52264 
L 787.665103 535.510078 
L 788.349114 528.803146 
L 789.033125 540.670048 
L 790.401147 590.523488 
L 791.085158 604.024244 
L 791.769169 599.133246 
L 792.45318 578.227623 
L 793.13719 551.535847 
L 793.821201 532.122131 
L 794.505212 529.48078 
L 795.189223 544.881321 
L 796.557245 594.368461 
L 797.241256 604.139061 
L 797.925267 595.242117 
L 799.293289 545.816791 
L 799.9773 529.467266 
L 800.661311 530.952314 
L 801.345322 549.513425 
L 802.029333 576.019138 
L 802.713344 597.442809 
L 803.397355 603.249928 
L 804.081366 590.563086 
L 805.449388 540.499373 
L 806.133399 527.60514 
L 806.81741 533.177842 
L 807.501421 554.450398 
L 808.185432 580.957721 
L 808.869443 599.668331 
L 809.553454 601.373947 
L 810.237465 585.204118 
L 811.605487 535.705791 
L 812.289497 526.574359 
L 812.973508 536.097418 
L 814.34153 585.437347 
L 815.025541 600.985431 
L 815.709552 598.550113 
L 816.393563 579.287646 
L 817.077574 552.604278 
L 817.761585 531.54377 
L 818.445596 526.391723 
L 819.129607 539.632672 
L 820.497629 589.342425 
L 821.18164 601.354714 
L 821.865651 594.838529 
L 822.549662 572.947789 
L 823.233673 546.374112 
L 823.917684 528.104151 
L 824.601695 527.052009 
L 825.285706 543.68888 
L 826.653728 592.569715 
L 827.337739 600.758089 
L 828.02175 590.319113 
L 829.389772 540.501519 
L 830.073783 525.45888 
L 830.757794 528.528276 
L 831.441804 548.157422 
L 832.125815 574.674523 
L 832.809826 595.030965 
L 833.493837 599.199359 
L 834.177848 585.089835 
L 835.54587 535.11606 
L 836.229881 523.659459 
L 836.913892 530.772695 
L 837.597903 552.918568 
L 838.281914 579.189306 
L 838.965925 596.655204 
L 839.649936 596.704285 
L 840.333947 579.264519 
L 841.701969 530.334363 
L 842.38598 522.735887 
L 843.069991 533.717881 
L 844.438013 583.235353 
L 845.122024 597.390603 
L 845.806035 593.320124 
L 846.490046 572.970254 
L 847.174057 546.26894 
L 847.858068 526.257486 
L 848.542079 522.696114 
L 849.22609 537.278693 
L 850.594111 586.701547 
L 851.278122 597.205875 
L 851.962133 589.114642 
L 854.014166 522.968662 
L 854.698177 523.526035 
L 855.382188 541.354459 
L 856.066199 567.659204 
L 856.75021 589.490059 
L 857.434221 596.091187 
L 858.118232 584.174634 
L 859.486254 534.193926 
L 860.170265 520.53147 
L 860.854276 525.190001 
L 861.538287 545.831573 
L 862.222298 572.281782 
L 862.906309 591.518862 
L 863.59032 594.058539 
L 864.274331 578.603991 
L 865.642353 528.948124 
L 866.326364 518.988478 
L 867.010375 527.631852 
L 868.378397 576.543696 
L 869.062407 592.723851 
L 869.746418 591.141624 
L 870.430429 572.521342 
L 871.11444 545.941185 
L 871.798451 524.38154 
L 872.482462 518.360388 
L 873.166473 530.776438 
L 874.534495 580.32663 
L 875.218506 593.060533 
L 875.902517 587.39516 
L 876.586528 566.057349 
L 877.270539 539.458127 
L 877.95455 520.587611 
L 878.638561 518.645704 
L 879.322572 534.531589 
L 880.690594 583.52375 
L 881.374605 592.505236 
L 882.058616 582.893713 
L 883.426638 533.371755 
L 884.110649 517.641088 
L 884.79466 519.820932 
L 885.478671 538.790501 
L 886.162682 565.19711 
L 886.846693 586.042413 
L 887.530704 591.055816 
L 888.214714 577.730035 
L 889.582736 527.812305 
L 890.266747 515.596399 
L 890.950758 521.841304 
L 891.634769 543.434447 
L 892.31878 569.738301 
L 893.002791 587.806535 
L 893.686802 588.731838 
L 894.370813 572.012965 
L 895.738835 522.897492 
L 896.422846 514.486484 
L 897.106857 524.642005 
L 898.474879 573.902237 
L 899.15889 588.758545 
L 899.842901 585.574226 
L 900.526912 565.864935 
L 901.210923 539.248746 
L 901.894934 518.729819 
L 902.578945 514.322157 
L 903.262956 528.139881 
L 904.630978 577.573758 
L 905.314989 588.860895 
L 905.999 581.644403 
L 906.683011 559.41915 
L 907.367021 533.038918 
L 908.051032 515.394246 
L 908.735043 515.091981 
L 909.419054 532.235581 
L 910.787076 580.65018 
L 911.471087 588.097079 
L 912.155098 577.02292 
L 913.52312 527.305357 
L 914.207131 512.956283 
L 914.891142 516.762685 
L 915.575153 536.816073 
L 916.259164 563.242395 
L 916.943175 583.043878 
L 917.627186 586.47213 
L 918.311197 571.807624 
L 919.679219 522.172144 
L 920.36323 511.460537 
L 921.047241 519.280088 
L 923.099274 584.684498 
L 923.783285 584.012607 
L 924.467296 566.111411 
L 925.151307 539.722747 
L 925.835317 517.749677 
L 926.519328 510.929764 
L 927.203339 522.570526 
L 928.571361 572.024724 
L 929.255372 585.520746 
L 929.939383 580.766038 
L 930.623394 560.059597 
L 931.307405 533.521869 
L 931.991416 514.132121 
L 932.675427 511.364433 
L 933.359438 526.542738 
L 934.72746 575.704917 
L 935.411471 585.521708 
L 936.095482 576.799871 
L 938.147515 511.395248 
L 938.831526 512.742823 
L 939.515537 531.090163 
L 940.199548 557.412309 
L 940.883559 578.775221 
L 941.56757 584.677675 
L 942.251581 572.19992 
L 943.619603 522.499554 
L 944.303614 509.594711 
L 944.987624 515.021644 
L 945.671635 536.093599 
L 946.355646 562.453579 
L 947.039657 581.152957 
L 947.723668 583.000441 
L 948.407679 567.068374 
L 949.775701 517.924362 
L 950.459712 508.764795 
L 951.143723 518.13717 
L 952.511745 567.186765 
L 953.195756 582.773393 
L 953.879767 580.523084 
L 954.563778 561.521399 
L 955.247789 535.067581 
L 955.9318 514.11453 
L 956.615811 508.917674 
L 957.299822 522.006853 
L 958.667844 571.49137 
L 959.351855 583.591358 
L 960.035866 577.299218 
L 960.719877 555.686397 
L 961.403888 529.336426 
L 962.087899 511.155244 
L 962.77191 510.043192 
L 963.455921 526.531381 
L 964.823942 575.258631 
L 965.507953 583.582372 
L 966.191964 573.401752 
L 967.559986 524.086448 
L 968.243997 509.112549 
L 968.928008 512.109174 
L 969.612019 531.597128 
L 970.29603 558.011996 
L 970.980041 578.394176 
L 971.664052 582.743273 
L 972.348063 568.921164 
L 973.716085 519.440299 
L 974.400096 508.03181 
L 975.084107 515.062254 
L 975.768118 537.07894 
L 976.452129 563.282045 
L 977.13614 580.820329 
L 977.820151 581.092315 
L 978.504162 563.963357 
L 979.872184 515.507476 
L 980.556195 507.936668 
L 981.240206 518.82921 
L 982.608228 568.204009 
L 983.292238 582.478002 
L 983.976249 578.668751 
L 984.66026 558.647125 
L 985.344271 532.233386 
L 986.028282 512.38172 
L 986.712293 508.828513 
L 987.396304 523.318758 
L 988.764326 572.659843 
L 989.448337 583.32812 
L 990.132348 575.531891 
L 992.184381 510.138789 
L 992.868392 510.686478 
L 993.552403 528.423777 
L 994.236414 554.66166 
L 994.920425 576.544285 
L 995.604436 583.352569 
L 996.288447 571.759678 
L 997.656469 522.384199 
L 998.34048 508.834652 
L 999.024491 513.467959 
L 999.708502 534.023902 
L 1000.392513 560.435935 
L 1001.076524 579.767394 
L 1001.760534 582.554616 
L 1002.444545 567.446798 
L 1002.444545 567.446798 
" style="fill:none;stroke:#0072b2;stroke-linecap:round;stroke-width:2.8;"/>
   </g>
   <g id="patch_3">
    <path d="M 144.9 630 
L 144.9 86.4 
" style="fill:none;stroke:#262626;stroke-linecap:square;stroke-linejoin:miter;stroke-width:1.25;"/>
   </g>
   <g id="patch_4">
    <path d="M 144.9 630 
L 1043.28 630 
" style="fill:none;stroke:#262626;stroke-linecap:square;stroke-linejoin:miter;stroke-width:1.25;"/>
   </g>
  </g>
 </g>
 <defs>
  <clipPath id="p5d1209c3e1">
   <rect height="543.6" width="898.38" x="144.9" y="86.4"/>
  </clipPath>
 </defs>
</svg>
