<?xml version="1.0" encoding="utf-8" standalone="no"?>
<!DOCTYPE svg PUBLIC "-//W3C//DTD SVG 1.1//EN"
  "http://www.w3.org/Graphics/SVG/1.1/DTD/svg11.dtd">
<!-- Created with matplotlib (http://matplotlib.org/) -->
<svg height="720pt" version="1.1" viewBox="0 0 1159 720" width="1159pt" xmlns="http://www.w3.org/2000/svg" xmlns:xlink="http://www.w3.org/1999/xlink">
 <defs>
  <style type="text/css">
*{stroke-linecap:butt;stroke-linejoin:round;}
  </style>
 </defs>
 <g id="figure_1">
  <g id="patch_1">
   <path d="M 0 720 
L 1159.2 720 
L 1159.2 0 
L 0 0 
z
" style="fill:none;opacity:0;"/>
  </g>
  <g id="axes_1">
   <g id="patch_2">
    <path d="M 144.9 640.8 
L 1043.28 640.8 
L 1043.28 86.4 
L 144.9 86.4 
z
" style="fill:#ffffff;"/>
   </g>
   <g id="matplotlib.axis_1"/>
   <g id="matplotlib.axis_2"/>
   <g id="line2d_1">
    <path clip-path="url(#p17da192fbf)" d="M 185.735455 615.6 
L 234.827258 583.04597 
L 283.919061 550.761906 
L 331.523234 519.717763 
L 379.127407 488.934878 
L 426.73158 458.416848 
L 474.335753 428.167237 
L 520.452295 399.122226 
L 566.568838 370.335612 
L 612.68538 341.810545 
L 658.801923 313.550144 
L 704.918465 285.557497 
L 749.547377 258.725656 
L 794.176289 232.15018 
L 838.805201 205.833782 
L 883.434113 179.77915 
L 928.063025 153.988942 
L 971.204307 129.312229 
L 1002.444545 111.6 
L 1002.444545 111.6 
" style="fill:none;stroke:#008000;stroke-linecap:round;stroke-width:2.8;"/>
   </g>
   <g id="patch_3">
    <path d="M 144.9 640.8 
L 144.9 86.4 
" style="fill:none;stroke:#262626;stroke-linecap:square;stroke-linejoin:miter;stroke-width:1.25;"/>
   </g>
   <g id="patch_4">
    <path d="M 144.9 640.8 
L 1043.28 640.8 
" style="fill:none;stroke:#262626;stroke-linecap:square;stroke-linejoin:miter;stroke-width:1.25;"/>
   </g>
  </g>
 </g>
 <defs>
  <clipPath id="p17da192fbf">
   <rect height="554.4" width="898.38" x="144.9" y="86.4"/>
  </clipPath>
 </defs>
</svg>
