<?xml version="1.0" encoding="utf-8" standalone="no"?>
<!DOCTYPE svg PUBLIC "-//W3C//DTD SVG 1.1//EN"
  "http://www.w3.org/Graphics/SVG/1.1/DTD/svg11.dtd">
<!-- Created with matplotlib (http://matplotlib.org/) -->
<svg height="514pt" version="1.1" viewBox="0 0 748 514" width="748pt" xmlns="http://www.w3.org/2000/svg" xmlns:xlink="http://www.w3.org/1999/xlink">
 <defs>
  <style type="text/css">
*{stroke-linecap:butt;stroke-linejoin:round;}
  </style>
 </defs>
 <g id="figure_1">
  <g id="patch_1">
   <path d="M 0 514.8 
L 748.8 514.8 
L 748.8 0 
L 0 0 
z
" style="fill:none;opacity:0;"/>
  </g>
  <g id="axes_1">
   <g id="patch_2">
    <path d="M 93.6 450.45 
L 673.92 450.45 
L 673.92 61.776 
L 93.6 61.776 
z
" style="fill:#eaeaf2;"/>
   </g>
   <g id="matplotlib.axis_1">
    <g id="xtick_1">
     <g id="line2d_1">
      <path clip-path="url(#p019fc4e793)" d="M 192.377872 450.45 
L 192.377872 61.776 
" style="fill:none;stroke:#ffffff;stroke-linecap:round;stroke-width:1.3;"/>
     </g>
     <g id="line2d_2"/>
     <g id="text_1">
      <!-- 10 -->
      <defs>
       <path d="M 7.625 0 
L 7.625 7.46875 
L 25.140625 7.46875 
L 25.140625 60.40625 
L 9.625 49.3125 
L 9.625 57.625 
L 25.875 68.796875 
L 33.984375 68.796875 
L 33.984375 7.46875 
L 50.734375 7.46875 
L 50.734375 0 
z
" id="LiberationSans-31"/>
       <path d="M 51.703125 34.421875 
Q 51.703125 24.515625 49.828125 17.75 
Q 47.953125 10.984375 44.703125 6.8125 
Q 41.453125 2.640625 37.0625 0.828125 
Q 32.671875 -0.984375 27.6875 -0.984375 
Q 22.65625 -0.984375 18.3125 0.828125 
Q 13.96875 2.640625 10.765625 6.78125 
Q 7.5625 10.9375 5.734375 17.703125 
Q 3.90625 24.46875 3.90625 34.421875 
Q 3.90625 44.828125 5.734375 51.640625 
Q 7.5625 58.453125 10.78125 62.5 
Q 14.015625 66.546875 18.40625 68.1875 
Q 22.796875 69.828125 27.984375 69.828125 
Q 32.90625 69.828125 37.21875 68.1875 
Q 41.546875 66.546875 44.765625 62.5 
Q 48 58.453125 49.84375 51.640625 
Q 51.703125 44.828125 51.703125 34.421875 
M 42.78125 34.421875 
Q 42.78125 42.625 41.796875 48.0625 
Q 40.828125 53.515625 38.921875 56.765625 
Q 37.015625 60.015625 34.25 61.359375 
Q 31.5 62.703125 27.984375 62.703125 
Q 24.265625 62.703125 21.4375 61.328125 
Q 18.609375 59.96875 16.671875 56.71875 
Q 14.75 53.46875 13.765625 48.015625 
Q 12.796875 42.578125 12.796875 34.421875 
Q 12.796875 26.515625 13.796875 21.09375 
Q 14.796875 15.671875 16.71875 12.375 
Q 18.65625 9.078125 21.4375 7.640625 
Q 24.21875 6.203125 27.78125 6.203125 
Q 31.25 6.203125 34.03125 7.640625 
Q 36.8125 9.078125 38.734375 12.375 
Q 40.671875 15.671875 41.71875 21.09375 
Q 42.78125 26.515625 42.78125 34.421875 
" id="LiberationSans-30"/>
      </defs>
      <g style="fill:#262626;" transform="translate(185.148654 468.970938)scale(0.13 -0.13)">
       <use xlink:href="#LiberationSans-31"/>
       <use x="55.615234" xlink:href="#LiberationSans-30"/>
      </g>
     </g>
    </g>
    <g id="xtick_2">
     <g id="line2d_3">
      <path clip-path="url(#p019fc4e793)" d="M 315.850213 450.45 
L 315.850213 61.776 
" style="fill:none;stroke:#ffffff;stroke-linecap:round;stroke-width:1.3;"/>
     </g>
     <g id="line2d_4"/>
     <g id="text_2">
      <!-- 20 -->
      <defs>
       <path d="M 5.03125 0 
L 5.03125 6.203125 
Q 7.515625 11.921875 11.109375 16.28125 
Q 14.703125 20.65625 18.65625 24.1875 
Q 22.609375 27.734375 26.484375 30.765625 
Q 30.375 33.796875 33.5 36.8125 
Q 36.625 39.84375 38.546875 43.15625 
Q 40.484375 46.484375 40.484375 50.6875 
Q 40.484375 53.609375 39.59375 55.828125 
Q 38.71875 58.0625 37.0625 59.5625 
Q 35.40625 61.078125 33.078125 61.828125 
Q 30.765625 62.59375 27.9375 62.59375 
Q 25.296875 62.59375 22.96875 61.859375 
Q 20.65625 61.140625 18.84375 59.671875 
Q 17.046875 58.203125 15.890625 56.03125 
Q 14.75 53.859375 14.40625 50.984375 
L 5.421875 51.8125 
Q 5.859375 55.515625 7.46875 58.78125 
Q 9.078125 62.0625 11.90625 64.53125 
Q 14.75 67 18.71875 68.40625 
Q 22.703125 69.828125 27.9375 69.828125 
Q 33.0625 69.828125 37.0625 68.609375 
Q 41.0625 67.390625 43.8125 64.984375 
Q 46.578125 62.59375 48.046875 59.078125 
Q 49.515625 55.5625 49.515625 50.984375 
Q 49.515625 47.515625 48.265625 44.390625 
Q 47.015625 41.265625 44.9375 38.421875 
Q 42.875 35.59375 40.140625 32.953125 
Q 37.40625 30.328125 34.421875 27.8125 
Q 31.453125 25.296875 28.421875 22.828125 
Q 25.390625 20.359375 22.71875 17.859375 
Q 20.0625 15.375 17.96875 12.8125 
Q 15.875 10.25 14.703125 7.46875 
L 50.59375 7.46875 
L 50.59375 0 
z
" id="LiberationSans-32"/>
      </defs>
      <g style="fill:#262626;" transform="translate(308.620994 468.970938)scale(0.13 -0.13)">
       <use xlink:href="#LiberationSans-32"/>
       <use x="55.615234" xlink:href="#LiberationSans-30"/>
      </g>
     </g>
    </g>
    <g id="xtick_3">
     <g id="line2d_5">
      <path clip-path="url(#p019fc4e793)" d="M 439.322553 450.45 
L 439.322553 61.776 
" style="fill:none;stroke:#ffffff;stroke-linecap:round;stroke-width:1.3;"/>
     </g>
     <g id="line2d_6"/>
     <g id="text_3">
      <!-- 30 -->
      <defs>
       <path d="M 51.21875 19 
Q 51.21875 14.265625 49.671875 10.546875 
Q 48.140625 6.84375 45.1875 4.265625 
Q 42.234375 1.703125 37.859375 0.359375 
Q 33.5 -0.984375 27.875 -0.984375 
Q 21.484375 -0.984375 17.109375 0.609375 
Q 12.75 2.203125 9.90625 4.8125 
Q 7.078125 7.421875 5.65625 10.765625 
Q 4.25 14.109375 3.8125 17.671875 
L 12.890625 18.5 
Q 13.28125 15.765625 14.328125 13.515625 
Q 15.375 11.28125 17.1875 9.671875 
Q 19 8.0625 21.625 7.171875 
Q 24.265625 6.296875 27.875 6.296875 
Q 34.515625 6.296875 38.296875 9.5625 
Q 42.09375 12.84375 42.09375 19.28125 
Q 42.09375 23.09375 40.40625 25.40625 
Q 38.71875 27.734375 36.203125 29.03125 
Q 33.6875 30.328125 30.734375 30.765625 
Q 27.78125 31.203125 25.296875 31.203125 
L 20.3125 31.203125 
L 20.3125 38.8125 
L 25.09375 38.8125 
Q 27.59375 38.8125 30.265625 39.328125 
Q 32.953125 39.84375 35.171875 41.1875 
Q 37.40625 42.53125 38.84375 44.828125 
Q 40.28125 47.125 40.28125 50.6875 
Q 40.28125 56.203125 37.03125 59.390625 
Q 33.796875 62.59375 27.390625 62.59375 
Q 21.578125 62.59375 17.984375 59.609375 
Q 14.40625 56.640625 13.8125 51.21875 
L 4.984375 51.90625 
Q 5.515625 56.453125 7.46875 59.8125 
Q 9.421875 63.1875 12.421875 65.40625 
Q 15.4375 67.625 19.28125 68.71875 
Q 23.140625 69.828125 27.484375 69.828125 
Q 33.25 69.828125 37.390625 68.375 
Q 41.546875 66.9375 44.1875 64.46875 
Q 46.828125 62.015625 48.0625 58.6875 
Q 49.3125 55.375 49.3125 51.609375 
Q 49.3125 48.578125 48.484375 45.9375 
Q 47.65625 43.3125 45.890625 41.203125 
Q 44.140625 39.109375 41.421875 37.59375 
Q 38.71875 36.078125 34.90625 35.296875 
L 34.90625 35.109375 
Q 39.0625 34.671875 42.140625 33.21875 
Q 45.21875 31.78125 47.21875 29.625 
Q 49.21875 27.484375 50.21875 24.75 
Q 51.21875 22.015625 51.21875 19 
" id="LiberationSans-33"/>
      </defs>
      <g style="fill:#262626;" transform="translate(432.093334 468.970938)scale(0.13 -0.13)">
       <use xlink:href="#LiberationSans-33"/>
       <use x="55.615234" xlink:href="#LiberationSans-30"/>
      </g>
     </g>
    </g>
    <g id="xtick_4">
     <g id="line2d_7">
      <path clip-path="url(#p019fc4e793)" d="M 562.794894 450.45 
L 562.794894 61.776 
" style="fill:none;stroke:#ffffff;stroke-linecap:round;stroke-width:1.3;"/>
     </g>
     <g id="line2d_8"/>
     <g id="text_4">
      <!-- 40 -->
      <defs>
       <path d="M 43.015625 15.578125 
L 43.015625 0 
L 34.71875 0 
L 34.71875 15.578125 
L 2.296875 15.578125 
L 2.296875 22.40625 
L 33.796875 68.796875 
L 43.015625 68.796875 
L 43.015625 22.515625 
L 52.6875 22.515625 
L 52.6875 15.578125 
z
M 34.71875 58.890625 
Q 34.625 58.640625 34.234375 57.9375 
Q 33.84375 57.234375 33.34375 56.34375 
Q 32.859375 55.46875 32.34375 54.5625 
Q 31.84375 53.65625 31.453125 53.078125 
L 13.8125 27.09375 
Q 13.578125 26.703125 13.109375 26.0625 
Q 12.640625 25.4375 12.15625 24.78125 
Q 11.671875 24.125 11.171875 23.484375 
Q 10.6875 22.859375 10.40625 22.515625 
L 34.71875 22.515625 
z
" id="LiberationSans-34"/>
      </defs>
      <g style="fill:#262626;" transform="translate(555.565675 468.970938)scale(0.13 -0.13)">
       <use xlink:href="#LiberationSans-34"/>
       <use x="55.615234" xlink:href="#LiberationSans-30"/>
      </g>
     </g>
    </g>
    <g id="text_5">
     <!-- Jour -->
     <defs>
      <path d="M 22.3125 -0.984375 
Q 13.96875 -0.984375 8.609375 3.359375 
Q 3.265625 7.71875 1.5625 17.09375 
L 10.6875 18.609375 
Q 11.1875 15.4375 12.296875 13.15625 
Q 13.421875 10.890625 14.984375 9.421875 
Q 16.546875 7.953125 18.453125 7.265625 
Q 20.359375 6.59375 22.359375 6.59375 
Q 27.4375 6.59375 30.359375 10.078125 
Q 33.296875 13.578125 33.296875 20.3125 
L 33.296875 61.1875 
L 20.0625 61.1875 
L 20.0625 68.796875 
L 42.578125 68.796875 
L 42.578125 20.515625 
Q 42.578125 15.578125 41.203125 11.625 
Q 39.84375 7.671875 37.234375 4.859375 
Q 34.625 2.046875 30.859375 0.53125 
Q 27.09375 -0.984375 22.3125 -0.984375 
" id="LiberationSans-4a"/>
      <path d="M 51.421875 26.46875 
Q 51.421875 12.59375 45.3125 5.796875 
Q 39.203125 -0.984375 27.59375 -0.984375 
Q 22.078125 -0.984375 17.71875 0.671875 
Q 13.375 2.34375 10.375 5.765625 
Q 7.375 9.1875 5.78125 14.328125 
Q 4.203125 19.484375 4.203125 26.46875 
Q 4.203125 53.8125 27.875 53.8125 
Q 34.03125 53.8125 38.5 52.09375 
Q 42.96875 50.390625 45.828125 46.96875 
Q 48.6875 43.5625 50.046875 38.421875 
Q 51.421875 33.296875 51.421875 26.46875 
M 42.1875 26.46875 
Q 42.1875 32.625 41.234375 36.625 
Q 40.28125 40.625 38.453125 43.015625 
Q 36.625 45.40625 33.984375 46.359375 
Q 31.34375 47.3125 28.03125 47.3125 
Q 24.65625 47.3125 21.9375 46.3125 
Q 19.234375 45.3125 17.328125 42.890625 
Q 15.4375 40.484375 14.421875 36.46875 
Q 13.421875 32.46875 13.421875 26.46875 
Q 13.421875 20.3125 14.5 16.28125 
Q 15.578125 12.25 17.453125 9.859375 
Q 19.34375 7.46875 21.90625 6.484375 
Q 24.46875 5.515625 27.484375 5.515625 
Q 30.859375 5.515625 33.59375 6.46875 
Q 36.328125 7.421875 38.234375 9.8125 
Q 40.140625 12.203125 41.15625 16.25 
Q 42.1875 20.3125 42.1875 26.46875 
" id="LiberationSans-6f"/>
      <path d="M 15.328125 52.828125 
L 15.328125 19.34375 
Q 15.328125 15.484375 15.890625 12.890625 
Q 16.453125 10.296875 17.71875 8.703125 
Q 19 7.125 21.0625 6.46875 
Q 23.140625 5.8125 26.21875 5.8125 
Q 29.34375 5.8125 31.859375 6.90625 
Q 34.375 8.015625 36.15625 10.078125 
Q 37.9375 12.15625 38.90625 15.203125 
Q 39.890625 18.265625 39.890625 22.21875 
L 39.890625 52.828125 
L 48.6875 52.828125 
L 48.6875 11.28125 
Q 48.6875 9.625 48.703125 7.78125 
Q 48.734375 5.953125 48.78125 4.3125 
Q 48.828125 2.6875 48.875 1.515625 
Q 48.921875 0.34375 48.96875 0 
L 40.671875 0 
Q 40.625 0.25 40.578125 1.3125 
Q 40.53125 2.390625 40.453125 3.78125 
Q 40.375 5.171875 40.328125 6.609375 
Q 40.28125 8.0625 40.28125 9.03125 
L 40.140625 9.03125 
Q 38.875 6.734375 37.359375 4.875 
Q 35.84375 3.03125 33.84375 1.734375 
Q 31.84375 0.4375 29.25 -0.265625 
Q 26.65625 -0.984375 23.25 -0.984375 
Q 18.84375 -0.984375 15.671875 0.09375 
Q 12.5 1.171875 10.453125 3.421875 
Q 8.40625 5.671875 7.453125 9.1875 
Q 6.5 12.703125 6.5 17.625 
L 6.5 52.828125 
z
" id="LiberationSans-75"/>
      <path d="M 6.9375 0 
L 6.9375 40.53125 
Q 6.9375 42.1875 6.90625 43.921875 
Q 6.890625 45.65625 6.828125 47.265625 
Q 6.78125 48.875 6.734375 50.28125 
Q 6.6875 51.703125 6.640625 52.828125 
L 14.9375 52.828125 
Q 14.984375 51.703125 15.0625 50.265625 
Q 15.140625 48.828125 15.203125 47.3125 
Q 15.28125 45.796875 15.296875 44.40625 
Q 15.328125 43.015625 15.328125 42.046875 
L 15.53125 42.046875 
Q 16.453125 45.0625 17.5 47.28125 
Q 18.5625 49.515625 19.96875 50.953125 
Q 21.390625 52.390625 23.34375 53.09375 
Q 25.296875 53.8125 28.078125 53.8125 
Q 29.15625 53.8125 30.125 53.640625 
Q 31.109375 53.46875 31.640625 53.328125 
L 31.640625 45.265625 
Q 30.765625 45.515625 29.59375 45.625 
Q 28.421875 45.75 26.953125 45.75 
Q 23.921875 45.75 21.796875 44.375 
Q 19.671875 43.015625 18.328125 40.59375 
Q 17 38.1875 16.359375 34.84375 
Q 15.71875 31.5 15.71875 27.546875 
L 15.71875 0 
z
" id="LiberationSans-72"/>
     </defs>
     <g style="fill:#262626;" transform="translate(369.852133 486.031469)scale(0.143 -0.143)">
      <use xlink:href="#LiberationSans-4a"/>
      <use x="50" xlink:href="#LiberationSans-6f"/>
      <use x="105.615234" xlink:href="#LiberationSans-75"/>
      <use x="161.230469" xlink:href="#LiberationSans-72"/>
     </g>
    </g>
   </g>
   <g id="matplotlib.axis_2">
    <g id="ytick_1">
     <g id="line2d_9">
      <path clip-path="url(#p019fc4e793)" d="M 93.6 417.911389 
L 673.92 417.911389 
" style="fill:none;stroke:#ffffff;stroke-linecap:round;stroke-width:1.3;"/>
     </g>
     <g id="line2d_10"/>
     <g id="text_6">
      <!-- −20 -->
      <defs>
       <path d="M 4.9375 29.6875 
L 4.9375 36.8125 
L 53.515625 36.8125 
L 53.515625 29.6875 
z
" id="LiberationSans-2212"/>
      </defs>
      <g style="fill:#262626;" transform="translate(62.44875 422.621858)scale(0.13 -0.13)">
       <use xlink:href="#LiberationSans-2212"/>
       <use x="58.398438" xlink:href="#LiberationSans-32"/>
       <use x="114.013672" xlink:href="#LiberationSans-30"/>
      </g>
     </g>
    </g>
    <g id="ytick_2">
     <g id="line2d_11">
      <path clip-path="url(#p019fc4e793)" d="M 93.6 338.837842 
L 673.92 338.837842 
" style="fill:none;stroke:#ffffff;stroke-linecap:round;stroke-width:1.3;"/>
     </g>
     <g id="line2d_12"/>
     <g id="text_7">
      <!-- 0 -->
      <g style="fill:#262626;" transform="translate(77.270781 343.54831)scale(0.13 -0.13)">
       <use xlink:href="#LiberationSans-30"/>
      </g>
     </g>
    </g>
    <g id="ytick_3">
     <g id="line2d_13">
      <path clip-path="url(#p019fc4e793)" d="M 93.6 259.764294 
L 673.92 259.764294 
" style="fill:none;stroke:#ffffff;stroke-linecap:round;stroke-width:1.3;"/>
     </g>
     <g id="line2d_14"/>
     <g id="text_8">
      <!-- 20 -->
      <g style="fill:#262626;" transform="translate(70.041563 264.474763)scale(0.13 -0.13)">
       <use xlink:href="#LiberationSans-32"/>
       <use x="55.615234" xlink:href="#LiberationSans-30"/>
      </g>
     </g>
    </g>
    <g id="ytick_4">
     <g id="line2d_15">
      <path clip-path="url(#p019fc4e793)" d="M 93.6 180.690746 
L 673.92 180.690746 
" style="fill:none;stroke:#ffffff;stroke-linecap:round;stroke-width:1.3;"/>
     </g>
     <g id="line2d_16"/>
     <g id="text_9">
      <!-- 40 -->
      <g style="fill:#262626;" transform="translate(70.041563 185.401215)scale(0.13 -0.13)">
       <use xlink:href="#LiberationSans-34"/>
       <use x="55.615234" xlink:href="#LiberationSans-30"/>
      </g>
     </g>
    </g>
    <g id="ytick_5">
     <g id="line2d_17">
      <path clip-path="url(#p019fc4e793)" d="M 93.6 101.617199 
L 673.92 101.617199 
" style="fill:none;stroke:#ffffff;stroke-linecap:round;stroke-width:1.3;"/>
     </g>
     <g id="line2d_18"/>
     <g id="text_10">
      <!-- 60 -->
      <defs>
       <path d="M 51.21875 22.515625 
Q 51.21875 17.328125 49.78125 13 
Q 48.34375 8.6875 45.53125 5.578125 
Q 42.71875 2.484375 38.5625 0.75 
Q 34.421875 -0.984375 29 -0.984375 
Q 23 -0.984375 18.5 1.3125 
Q 14.015625 3.609375 11.03125 7.921875 
Q 8.0625 12.25 6.5625 18.53125 
Q 5.078125 24.8125 5.078125 32.8125 
Q 5.078125 42 6.765625 48.921875 
Q 8.453125 55.859375 11.625 60.5 
Q 14.796875 65.140625 19.359375 67.484375 
Q 23.921875 69.828125 29.6875 69.828125 
Q 33.203125 69.828125 36.28125 69.09375 
Q 39.359375 68.359375 41.875 66.71875 
Q 44.390625 65.09375 46.28125 62.40625 
Q 48.1875 59.71875 49.3125 55.8125 
L 40.921875 54.296875 
Q 39.546875 58.734375 36.546875 60.71875 
Q 33.546875 62.703125 29.59375 62.703125 
Q 25.984375 62.703125 23.046875 60.984375 
Q 20.125 59.28125 18.0625 55.875 
Q 16.015625 52.484375 14.90625 47.359375 
Q 13.8125 42.234375 13.8125 35.40625 
Q 16.21875 39.84375 20.5625 42.15625 
Q 24.90625 44.484375 30.515625 44.484375 
Q 35.203125 44.484375 39.015625 42.96875 
Q 42.828125 41.453125 45.53125 38.59375 
Q 48.25 35.75 49.734375 31.671875 
Q 51.21875 27.59375 51.21875 22.515625 
M 42.28125 22.125 
Q 42.28125 25.6875 41.40625 28.5625 
Q 40.53125 31.453125 38.765625 33.46875 
Q 37.015625 35.5 34.421875 36.59375 
Q 31.84375 37.703125 28.421875 37.703125 
Q 26.03125 37.703125 23.578125 36.984375 
Q 21.140625 36.28125 19.15625 34.6875 
Q 17.1875 33.109375 15.9375 30.515625 
Q 14.703125 27.9375 14.703125 24.21875 
Q 14.703125 20.40625 15.671875 17.109375 
Q 16.65625 13.8125 18.484375 11.375 
Q 20.3125 8.9375 22.890625 7.515625 
Q 25.484375 6.109375 28.71875 6.109375 
Q 31.890625 6.109375 34.40625 7.203125 
Q 36.921875 8.296875 38.671875 10.375 
Q 40.4375 12.453125 41.359375 15.421875 
Q 42.28125 18.40625 42.28125 22.125 
" id="LiberationSans-36"/>
      </defs>
      <g style="fill:#262626;" transform="translate(70.041563 106.327668)scale(0.13 -0.13)">
       <use xlink:href="#LiberationSans-36"/>
       <use x="55.615234" xlink:href="#LiberationSans-30"/>
      </g>
     </g>
    </g>
    <g id="text_11">
     <!-- Pourcentage de changement -->
     <defs>
      <path d="M 61.421875 48.09375 
Q 61.421875 43.609375 59.9375 39.71875 
Q 58.453125 35.84375 55.5 32.984375 
Q 52.546875 30.125 48.09375 28.46875 
Q 43.65625 26.8125 37.75 26.8125 
L 17.53125 26.8125 
L 17.53125 0 
L 8.203125 0 
L 8.203125 68.796875 
L 37.15625 68.796875 
Q 43.265625 68.796875 47.796875 67.3125 
Q 52.34375 65.828125 55.375 63.109375 
Q 58.40625 60.40625 59.90625 56.5625 
Q 61.421875 52.734375 61.421875 48.09375 
M 52.046875 48 
Q 52.046875 54.546875 48.046875 57.9375 
Q 44.046875 61.328125 36.03125 61.328125 
L 17.53125 61.328125 
L 17.53125 34.1875 
L 36.421875 34.1875 
Q 44.484375 34.1875 48.265625 37.75 
Q 52.046875 41.3125 52.046875 48 
" id="LiberationSans-50"/>
      <path d="M 13.421875 26.65625 
Q 13.421875 22.125 14.078125 18.3125 
Q 14.75 14.5 16.3125 11.734375 
Q 17.875 8.984375 20.4375 7.46875 
Q 23 5.953125 26.765625 5.953125 
Q 31.453125 5.953125 34.59375 8.484375 
Q 37.75 11.03125 38.484375 16.3125 
L 47.359375 15.71875 
Q 46.921875 12.453125 45.453125 9.421875 
Q 44 6.390625 41.484375 4.09375 
Q 38.96875 1.8125 35.34375 0.40625 
Q 31.734375 -0.984375 27 -0.984375 
Q 20.796875 -0.984375 16.453125 1.109375 
Q 12.109375 3.21875 9.390625 6.90625 
Q 6.6875 10.59375 5.46875 15.59375 
Q 4.25 20.609375 4.25 26.46875 
Q 4.25 31.78125 5.125 35.859375 
Q 6 39.9375 7.59375 42.984375 
Q 9.1875 46.046875 11.328125 48.125 
Q 13.484375 50.203125 15.984375 51.4375 
Q 18.5 52.6875 21.28125 53.25 
Q 24.078125 53.8125 26.90625 53.8125 
Q 31.34375 53.8125 34.8125 52.59375 
Q 38.28125 51.375 40.796875 49.25 
Q 43.3125 47.125 44.875 44.234375 
Q 46.4375 41.359375 47.078125 38.03125 
L 38.03125 37.359375 
Q 37.359375 41.75 34.5625 44.328125 
Q 31.78125 46.921875 26.65625 46.921875 
Q 22.90625 46.921875 20.390625 45.671875 
Q 17.875 44.4375 16.3125 41.921875 
Q 14.75 39.40625 14.078125 35.59375 
Q 13.421875 31.78125 13.421875 26.65625 
" id="LiberationSans-63"/>
      <path d="M 13.484375 24.5625 
Q 13.484375 20.40625 14.328125 16.90625 
Q 15.1875 13.421875 16.96875 10.90625 
Q 18.75 8.40625 21.53125 7 
Q 24.3125 5.609375 28.21875 5.609375 
Q 33.9375 5.609375 37.375 7.90625 
Q 40.828125 10.203125 42.046875 13.71875 
L 49.75 11.53125 
Q 48.921875 9.328125 47.4375 7.109375 
Q 45.953125 4.890625 43.453125 3.09375 
Q 40.96875 1.3125 37.234375 0.15625 
Q 33.5 -0.984375 28.21875 -0.984375 
Q 16.5 -0.984375 10.375 6 
Q 4.25 12.984375 4.25 26.765625 
Q 4.25 34.1875 6.09375 39.328125 
Q 7.953125 44.484375 11.171875 47.703125 
Q 14.40625 50.921875 18.703125 52.359375 
Q 23 53.8125 27.875 53.8125 
Q 34.515625 53.8125 38.984375 51.65625 
Q 43.453125 49.515625 46.15625 45.71875 
Q 48.875 41.9375 50.015625 36.8125 
Q 51.171875 31.6875 51.171875 25.734375 
L 51.171875 24.5625 
z
M 42.09375 31.296875 
Q 41.359375 39.65625 37.84375 43.484375 
Q 34.328125 47.3125 27.734375 47.3125 
Q 25.53125 47.3125 23.109375 46.609375 
Q 20.703125 45.90625 18.65625 44.09375 
Q 16.609375 42.28125 15.1875 39.171875 
Q 13.765625 36.078125 13.578125 31.296875 
z
" id="LiberationSans-65"/>
      <path d="M 40.28125 0 
L 40.28125 33.5 
Q 40.28125 37.359375 39.71875 39.9375 
Q 39.15625 42.53125 37.890625 44.109375 
Q 36.625 45.703125 34.546875 46.359375 
Q 32.46875 47.015625 29.390625 47.015625 
Q 26.265625 47.015625 23.75 45.921875 
Q 21.234375 44.828125 19.453125 42.75 
Q 17.671875 40.671875 16.6875 37.625 
Q 15.71875 34.578125 15.71875 30.609375 
L 15.71875 0 
L 6.9375 0 
L 6.9375 41.546875 
Q 6.9375 43.21875 6.90625 45.046875 
Q 6.890625 46.875 6.828125 48.5 
Q 6.78125 50.140625 6.734375 51.3125 
Q 6.6875 52.484375 6.640625 52.828125 
L 14.9375 52.828125 
Q 14.984375 52.59375 15.03125 51.515625 
Q 15.09375 50.4375 15.15625 49.046875 
Q 15.234375 47.65625 15.28125 46.21875 
Q 15.328125 44.78125 15.328125 43.796875 
L 15.484375 43.796875 
Q 16.75 46.09375 18.265625 47.953125 
Q 19.78125 49.8125 21.78125 51.09375 
Q 23.78125 52.390625 26.359375 53.09375 
Q 28.953125 53.8125 32.375 53.8125 
Q 36.765625 53.8125 39.9375 52.734375 
Q 43.109375 51.65625 45.15625 49.40625 
Q 47.21875 47.171875 48.171875 43.625 
Q 49.125 40.09375 49.125 35.203125 
L 49.125 0 
z
" id="LiberationSans-6e"/>
      <path d="M 27.046875 0.390625 
Q 25.046875 -0.140625 22.96875 -0.453125 
Q 20.90625 -0.78125 18.171875 -0.78125 
Q 7.625 -0.78125 7.625 11.1875 
L 7.625 46.4375 
L 1.515625 46.4375 
L 1.515625 52.828125 
L 7.953125 52.828125 
L 10.546875 64.65625 
L 16.40625 64.65625 
L 16.40625 52.828125 
L 26.171875 52.828125 
L 26.171875 46.4375 
L 16.40625 46.4375 
L 16.40625 13.09375 
Q 16.40625 9.28125 17.640625 7.734375 
Q 18.890625 6.203125 21.96875 6.203125 
Q 23.25 6.203125 24.4375 6.390625 
Q 25.640625 6.59375 27.046875 6.890625 
z
" id="LiberationSans-74"/>
      <path d="M 20.21875 -0.984375 
Q 12.25 -0.984375 8.25 3.21875 
Q 4.25 7.421875 4.25 14.75 
Q 4.25 19.96875 6.21875 23.3125 
Q 8.203125 26.65625 11.390625 28.5625 
Q 14.59375 30.46875 18.6875 31.203125 
Q 22.796875 31.9375 27.046875 32.03125 
L 38.921875 32.234375 
L 38.921875 35.109375 
Q 38.921875 38.375 38.234375 40.671875 
Q 37.546875 42.96875 36.125 44.375 
Q 34.71875 45.796875 32.59375 46.453125 
Q 30.46875 47.125 27.59375 47.125 
Q 25.046875 47.125 23 46.75 
Q 20.953125 46.390625 19.4375 45.4375 
Q 17.921875 44.484375 16.984375 42.84375 
Q 16.0625 41.21875 15.765625 38.71875 
L 6.59375 39.546875 
Q 7.078125 42.671875 8.4375 45.28125 
Q 9.8125 47.90625 12.328125 49.796875 
Q 14.84375 51.703125 18.625 52.75 
Q 22.40625 53.8125 27.78125 53.8125 
Q 37.75 53.8125 42.765625 49.234375 
Q 47.796875 44.671875 47.796875 36.03125 
L 47.796875 13.28125 
Q 47.796875 9.375 48.828125 7.390625 
Q 49.859375 5.421875 52.734375 5.421875 
Q 53.46875 5.421875 54.203125 5.515625 
Q 54.9375 5.609375 55.609375 5.765625 
L 55.609375 0.296875 
Q 53.953125 -0.09375 52.3125 -0.28125 
Q 50.6875 -0.484375 48.828125 -0.484375 
Q 46.34375 -0.484375 44.5625 0.171875 
Q 42.78125 0.828125 41.65625 2.171875 
Q 40.53125 3.515625 39.9375 5.484375 
Q 39.359375 7.46875 39.203125 10.109375 
L 38.921875 10.109375 
Q 37.5 7.5625 35.8125 5.515625 
Q 34.125 3.46875 31.875 2.03125 
Q 29.640625 0.59375 26.78125 -0.1875 
Q 23.921875 -0.984375 20.21875 -0.984375 
M 22.21875 5.609375 
Q 26.421875 5.609375 29.5625 7.140625 
Q 32.71875 8.6875 34.78125 11.078125 
Q 36.859375 13.484375 37.890625 16.3125 
Q 38.921875 19.140625 38.921875 21.734375 
L 38.921875 26.078125 
L 29.296875 25.875 
Q 26.078125 25.828125 23.171875 25.40625 
Q 20.265625 25 18.0625 23.78125 
Q 15.875 22.5625 14.578125 20.359375 
Q 13.28125 18.171875 13.28125 14.59375 
Q 13.28125 10.296875 15.59375 7.953125 
Q 17.921875 5.609375 22.21875 5.609375 
" id="LiberationSans-61"/>
      <path d="M 26.765625 -20.75 
Q 22.21875 -20.75 18.703125 -19.8125 
Q 15.1875 -18.890625 12.6875 -17.15625 
Q 10.203125 -15.4375 8.640625 -13.03125 
Q 7.078125 -10.640625 6.390625 -7.71875 
L 15.234375 -6.453125 
Q 16.109375 -10.109375 19.109375 -12.078125 
Q 22.125 -14.0625 27 -14.0625 
Q 29.984375 -14.0625 32.421875 -13.234375 
Q 34.859375 -12.40625 36.5625 -10.5625 
Q 38.28125 -8.734375 39.203125 -5.796875 
Q 40.140625 -2.875 40.140625 1.3125 
L 40.140625 9.8125 
L 40.046875 9.8125 
Q 39.0625 7.8125 37.625 5.984375 
Q 36.1875 4.15625 34.109375 2.734375 
Q 32.03125 1.3125 29.296875 0.453125 
Q 26.5625 -0.390625 23.046875 -0.390625 
Q 18.015625 -0.390625 14.421875 1.296875 
Q 10.84375 2.984375 8.5625 6.34375 
Q 6.296875 9.71875 5.25 14.71875 
Q 4.203125 19.734375 4.203125 26.3125 
Q 4.203125 32.671875 5.25 37.75 
Q 6.296875 42.828125 8.65625 46.359375 
Q 11.03125 49.90625 14.8125 51.78125 
Q 18.609375 53.65625 24.03125 53.65625 
Q 29.640625 53.65625 33.765625 51.09375 
Q 37.890625 48.53125 40.140625 43.796875 
L 40.234375 43.796875 
Q 40.234375 45.015625 40.296875 46.53125 
Q 40.375 48.046875 40.453125 49.390625 
Q 40.53125 50.734375 40.625 51.703125 
Q 40.71875 52.6875 40.828125 52.828125 
L 49.171875 52.828125 
Q 49.125 52.390625 49.078125 51.34375 
Q 49.03125 50.296875 48.96875 48.828125 
Q 48.921875 47.359375 48.890625 45.578125 
Q 48.875 43.796875 48.875 41.890625 
L 48.875 1.515625 
Q 48.875 -9.578125 43.421875 -15.15625 
Q 37.984375 -20.75 26.765625 -20.75 
M 40.140625 26.421875 
Q 40.140625 31.9375 38.9375 35.859375 
Q 37.75 39.796875 35.796875 42.28125 
Q 33.84375 44.78125 31.328125 45.953125 
Q 28.8125 47.125 26.171875 47.125 
Q 22.796875 47.125 20.375 45.953125 
Q 17.96875 44.78125 16.375 42.265625 
Q 14.796875 39.75 14.03125 35.8125 
Q 13.28125 31.890625 13.28125 26.421875 
Q 13.28125 20.703125 14.03125 16.8125 
Q 14.796875 12.9375 16.359375 10.546875 
Q 17.921875 8.15625 20.3125 7.125 
Q 22.703125 6.109375 26.03125 6.109375 
Q 28.65625 6.109375 31.171875 7.21875 
Q 33.6875 8.34375 35.6875 10.78125 
Q 37.703125 13.234375 38.921875 17.09375 
Q 40.140625 20.953125 40.140625 26.421875 
" id="LiberationSans-67"/>
      <path id="LiberationSans-20"/>
      <path d="M 40.09375 8.5 
Q 37.640625 3.421875 33.609375 1.21875 
Q 29.59375 -0.984375 23.640625 -0.984375 
Q 13.625 -0.984375 8.90625 5.75 
Q 4.203125 12.5 4.203125 26.171875 
Q 4.203125 53.8125 23.640625 53.8125 
Q 29.640625 53.8125 33.640625 51.609375 
Q 37.640625 49.421875 40.09375 44.625 
L 40.1875 44.625 
Q 40.1875 45.125 40.15625 46.171875 
Q 40.140625 47.21875 40.109375 48.359375 
Q 40.09375 49.515625 40.09375 50.53125 
Q 40.09375 51.5625 40.09375 52 
L 40.09375 72.46875 
L 48.875 72.46875 
L 48.875 10.890625 
Q 48.875 8.984375 48.890625 7.21875 
Q 48.921875 5.46875 48.96875 4 
Q 49.03125 2.546875 49.078125 1.484375 
Q 49.125 0.4375 49.171875 0 
L 40.765625 0 
Q 40.671875 0.484375 40.59375 1.390625 
Q 40.53125 2.296875 40.453125 3.46875 
Q 40.375 4.640625 40.328125 5.9375 
Q 40.28125 7.234375 40.28125 8.5 
z
M 13.421875 26.46875 
Q 13.421875 21 14.109375 17.09375 
Q 14.796875 13.1875 16.3125 10.671875 
Q 17.828125 8.15625 20.171875 6.984375 
Q 22.515625 5.8125 25.875 5.8125 
Q 29.34375 5.8125 32 6.9375 
Q 34.671875 8.0625 36.453125 10.578125 
Q 38.234375 13.09375 39.15625 17.140625 
Q 40.09375 21.1875 40.09375 27.046875 
Q 40.09375 32.671875 39.15625 36.546875 
Q 38.234375 40.4375 36.421875 42.828125 
Q 34.625 45.21875 32 46.265625 
Q 29.390625 47.3125 25.984375 47.3125 
Q 22.75 47.3125 20.40625 46.1875 
Q 18.0625 45.0625 16.5 42.578125 
Q 14.9375 40.09375 14.171875 36.109375 
Q 13.421875 32.125 13.421875 26.46875 
" id="LiberationSans-64"/>
      <path d="M 15.484375 43.796875 
Q 16.9375 46.484375 18.640625 48.359375 
Q 20.359375 50.25 22.40625 51.46875 
Q 24.46875 52.6875 26.90625 53.25 
Q 29.34375 53.8125 32.375 53.8125 
Q 37.453125 53.8125 40.703125 52.4375 
Q 43.953125 51.078125 45.828125 48.609375 
Q 47.703125 46.140625 48.40625 42.71875 
Q 49.125 39.3125 49.125 35.203125 
L 49.125 0 
L 40.28125 0 
L 40.28125 33.5 
Q 40.28125 36.859375 39.859375 39.390625 
Q 39.453125 41.9375 38.28125 43.625 
Q 37.109375 45.3125 34.953125 46.15625 
Q 32.8125 47.015625 29.390625 47.015625 
Q 26.265625 47.015625 23.75 45.890625 
Q 21.234375 44.78125 19.453125 42.71875 
Q 17.671875 40.671875 16.6875 37.734375 
Q 15.71875 34.8125 15.71875 31.15625 
L 15.71875 0 
L 6.9375 0 
L 6.9375 72.46875 
L 15.71875 72.46875 
L 15.71875 53.609375 
Q 15.71875 52 15.671875 50.390625 
Q 15.625 48.78125 15.546875 47.40625 
Q 15.484375 46.046875 15.421875 45.09375 
Q 15.375 44.140625 15.328125 43.796875 
z
" id="LiberationSans-68"/>
      <path d="M 37.5 0 
L 37.5 33.5 
Q 37.5 37.359375 37.015625 39.9375 
Q 36.53125 42.53125 35.375 44.109375 
Q 34.234375 45.703125 32.375 46.359375 
Q 30.515625 47.015625 27.828125 47.015625 
Q 25.046875 47.015625 22.796875 45.921875 
Q 20.5625 44.828125 18.96875 42.75 
Q 17.390625 40.671875 16.53125 37.625 
Q 15.671875 34.578125 15.671875 30.609375 
L 15.671875 0 
L 6.9375 0 
L 6.9375 41.546875 
Q 6.9375 43.21875 6.90625 45.046875 
Q 6.890625 46.875 6.828125 48.5 
Q 6.78125 50.140625 6.734375 51.3125 
Q 6.6875 52.484375 6.640625 52.828125 
L 14.9375 52.828125 
Q 14.984375 52.59375 15.03125 51.515625 
Q 15.09375 50.4375 15.15625 49.046875 
Q 15.234375 47.65625 15.28125 46.21875 
Q 15.328125 44.78125 15.328125 43.796875 
L 15.484375 43.796875 
Q 16.65625 46.09375 18.015625 47.953125 
Q 19.390625 49.8125 21.21875 51.09375 
Q 23.046875 52.390625 25.40625 53.09375 
Q 27.78125 53.8125 30.90625 53.8125 
Q 36.921875 53.8125 40.40625 51.421875 
Q 43.890625 49.03125 45.265625 43.796875 
L 45.40625 43.796875 
Q 46.578125 46.09375 48.046875 47.953125 
Q 49.515625 49.8125 51.46875 51.09375 
Q 53.421875 52.390625 55.859375 53.09375 
Q 58.296875 53.8125 61.421875 53.8125 
Q 65.4375 53.8125 68.328125 52.734375 
Q 71.234375 51.65625 73.09375 49.40625 
Q 74.953125 47.171875 75.828125 43.625 
Q 76.703125 40.09375 76.703125 35.203125 
L 76.703125 0 
L 68.015625 0 
L 68.015625 33.5 
Q 68.015625 37.359375 67.53125 39.9375 
Q 67.046875 42.53125 65.890625 44.109375 
Q 64.75 45.703125 62.890625 46.359375 
Q 61.03125 47.015625 58.34375 47.015625 
Q 55.5625 47.015625 53.3125 45.96875 
Q 51.078125 44.921875 49.484375 42.875 
Q 47.90625 40.828125 47.046875 37.75 
Q 46.1875 34.671875 46.1875 30.609375 
L 46.1875 0 
z
" id="LiberationSans-6d"/>
     </defs>
     <g style="fill:#262626;" transform="translate(55.4815 347.931289)rotate(-90)scale(0.143 -0.143)">
      <use xlink:href="#LiberationSans-50"/>
      <use x="66.699219" xlink:href="#LiberationSans-6f"/>
      <use x="122.314453" xlink:href="#LiberationSans-75"/>
      <use x="177.929688" xlink:href="#LiberationSans-72"/>
      <use x="211.230469" xlink:href="#LiberationSans-63"/>
      <use x="261.230469" xlink:href="#LiberationSans-65"/>
      <use x="316.845703" xlink:href="#LiberationSans-6e"/>
      <use x="372.460938" xlink:href="#LiberationSans-74"/>
      <use x="400.244141" xlink:href="#LiberationSans-61"/>
      <use x="455.859375" xlink:href="#LiberationSans-67"/>
      <use x="511.474609" xlink:href="#LiberationSans-65"/>
      <use x="567.089844" xlink:href="#LiberationSans-20"/>
      <use x="594.873047" xlink:href="#LiberationSans-64"/>
      <use x="650.488281" xlink:href="#LiberationSans-65"/>
      <use x="706.103516" xlink:href="#LiberationSans-20"/>
      <use x="733.886719" xlink:href="#LiberationSans-63"/>
      <use x="783.886719" xlink:href="#LiberationSans-68"/>
      <use x="839.501953" xlink:href="#LiberationSans-61"/>
      <use x="895.117188" xlink:href="#LiberationSans-6e"/>
      <use x="950.732422" xlink:href="#LiberationSans-67"/>
      <use x="1006.347656" xlink:href="#LiberationSans-65"/>
      <use x="1061.962891" xlink:href="#LiberationSans-6d"/>
      <use x="1145.263672" xlink:href="#LiberationSans-65"/>
      <use x="1200.878906" xlink:href="#LiberationSans-6e"/>
      <use x="1256.494141" xlink:href="#LiberationSans-74"/>
     </g>
    </g>
   </g>
   <g id="line2d_19">
    <path clip-path="url(#p019fc4e793)" d="M 105.947234 290.255914 
L 105.947234 167.076848 
" style="fill:none;stroke:#0072b2;stroke-linecap:round;stroke-width:2.275;"/>
   </g>
   <g id="line2d_20">
    <path clip-path="url(#p019fc4e793)" d="M 118.294468 338.956135 
L 118.294468 180.140075 
" style="fill:none;stroke:#0072b2;stroke-linecap:round;stroke-width:2.275;"/>
   </g>
   <g id="line2d_21">
    <path clip-path="url(#p019fc4e793)" d="M 130.641702 319.619783 
L 130.641702 132.59941 
" style="fill:none;stroke:#0072b2;stroke-linecap:round;stroke-width:2.275;"/>
   </g>
   <g id="line2d_22">
    <path clip-path="url(#p019fc4e793)" d="M 142.988936 306.397167 
L 142.988936 79.443 
" style="fill:none;stroke:#0072b2;stroke-linecap:round;stroke-width:2.275;"/>
   </g>
   <g id="line2d_23">
    <path clip-path="url(#p019fc4e793)" d="M 155.33617 309.217599 
L 155.33617 139.693098 
" style="fill:none;stroke:#0072b2;stroke-linecap:round;stroke-width:2.275;"/>
   </g>
   <g id="line2d_24">
    <path clip-path="url(#p019fc4e793)" d="M 167.683404 342.564891 
L 167.683404 239.441731 
" style="fill:none;stroke:#0072b2;stroke-linecap:round;stroke-width:2.275;"/>
   </g>
   <g id="line2d_25">
    <path clip-path="url(#p019fc4e793)" d="M 180.030638 368.891049 
L 180.030638 224.985679 
" style="fill:none;stroke:#0072b2;stroke-linecap:round;stroke-width:2.275;"/>
   </g>
   <g id="line2d_26">
    <path clip-path="url(#p019fc4e793)" d="M 192.377872 334.748495 
L 192.377872 253.738579 
" style="fill:none;stroke:#0072b2;stroke-linecap:round;stroke-width:2.275;"/>
   </g>
   <g id="line2d_27">
    <path clip-path="url(#p019fc4e793)" d="M 204.725106 432.783 
L 204.725106 265.25961 
" style="fill:none;stroke:#0072b2;stroke-linecap:round;stroke-width:2.275;"/>
   </g>
   <g id="line2d_28">
    <path clip-path="url(#p019fc4e793)" d="M 217.07234 374.972612 
L 217.07234 282.797901 
" style="fill:none;stroke:#0072b2;stroke-linecap:round;stroke-width:2.275;"/>
   </g>
   <g id="line2d_29">
    <path clip-path="url(#p019fc4e793)" d="M 229.419574 342.232108 
L 229.419574 227.558842 
" style="fill:none;stroke:#0072b2;stroke-linecap:round;stroke-width:2.275;"/>
   </g>
   <g id="line2d_30">
    <path clip-path="url(#p019fc4e793)" d="M 241.766809 351.25961 
L 241.766809 223.380008 
" style="fill:none;stroke:#0072b2;stroke-linecap:round;stroke-width:2.275;"/>
   </g>
   <g id="line2d_31">
    <path clip-path="url(#p019fc4e793)" d="M 254.114043 411.735144 
L 254.114043 293.203326 
" style="fill:none;stroke:#0072b2;stroke-linecap:round;stroke-width:2.275;"/>
   </g>
   <g id="line2d_32">
    <path clip-path="url(#p019fc4e793)" d="M 266.461277 332.471209 
L 266.461277 190.443425 
" style="fill:none;stroke:#0072b2;stroke-linecap:round;stroke-width:2.275;"/>
   </g>
   <g id="line2d_33">
    <path clip-path="url(#p019fc4e793)" d="M 278.808511 378.424975 
L 278.808511 278.897503 
" style="fill:none;stroke:#0072b2;stroke-linecap:round;stroke-width:2.275;"/>
   </g>
   <g id="line2d_34">
    <path clip-path="url(#p019fc4e793)" d="M 291.155745 362.351335 
L 291.155745 220.811941 
" style="fill:none;stroke:#0072b2;stroke-linecap:round;stroke-width:2.275;"/>
   </g>
   <g id="line2d_35">
    <path clip-path="url(#p019fc4e793)" d="M 303.502979 307.428557 
L 303.502979 215.337306 
" style="fill:none;stroke:#0072b2;stroke-linecap:round;stroke-width:2.275;"/>
   </g>
   <g id="line2d_36">
    <path clip-path="url(#p019fc4e793)" d="M 315.850213 339.418476 
L 315.850213 230.225048 
" style="fill:none;stroke:#0072b2;stroke-linecap:round;stroke-width:2.275;"/>
   </g>
   <g id="line2d_37">
    <path clip-path="url(#p019fc4e793)" d="M 328.197447 394.997113 
L 328.197447 209.528765 
" style="fill:none;stroke:#0072b2;stroke-linecap:round;stroke-width:2.275;"/>
   </g>
   <g id="line2d_38">
    <path clip-path="url(#p019fc4e793)" d="M 340.544681 356.013196 
L 340.544681 194.57961 
" style="fill:none;stroke:#0072b2;stroke-linecap:round;stroke-width:2.275;"/>
   </g>
   <g id="line2d_39">
    <path clip-path="url(#p019fc4e793)" d="M 352.891915 377.670032 
L 352.891915 270.246688 
" style="fill:none;stroke:#0072b2;stroke-linecap:round;stroke-width:2.275;"/>
   </g>
   <g id="line2d_40">
    <path clip-path="url(#p019fc4e793)" d="M 365.239149 351.627763 
L 365.239149 237.925863 
" style="fill:none;stroke:#0072b2;stroke-linecap:round;stroke-width:2.275;"/>
   </g>
   <g id="line2d_41">
    <path clip-path="url(#p019fc4e793)" d="M 377.586383 367.261774 
L 377.586383 277.397611 
" style="fill:none;stroke:#0072b2;stroke-linecap:round;stroke-width:2.275;"/>
   </g>
   <g id="line2d_42">
    <path clip-path="url(#p019fc4e793)" d="M 389.933617 358.3363 
L 389.933617 217.953267 
" style="fill:none;stroke:#0072b2;stroke-linecap:round;stroke-width:2.275;"/>
   </g>
   <g id="line2d_43">
    <path clip-path="url(#p019fc4e793)" d="M 402.280851 350.260259 
L 402.280851 257.382328 
" style="fill:none;stroke:#0072b2;stroke-linecap:round;stroke-width:2.275;"/>
   </g>
   <g id="line2d_44">
    <path clip-path="url(#p019fc4e793)" d="M 414.628085 291.904828 
L 414.628085 122.056572 
" style="fill:none;stroke:#0072b2;stroke-linecap:round;stroke-width:2.275;"/>
   </g>
   <g id="line2d_45">
    <path clip-path="url(#p019fc4e793)" d="M 426.975319 361.481244 
L 426.975319 282.961194 
" style="fill:none;stroke:#0072b2;stroke-linecap:round;stroke-width:2.275;"/>
   </g>
   <g id="line2d_46">
    <path clip-path="url(#p019fc4e793)" d="M 439.322553 346.772077 
L 439.322553 239.539558 
" style="fill:none;stroke:#0072b2;stroke-linecap:round;stroke-width:2.275;"/>
   </g>
   <g id="line2d_47">
    <path clip-path="url(#p019fc4e793)" d="M 451.669787 349.195686 
L 451.669787 190.369176 
" style="fill:none;stroke:#0072b2;stroke-linecap:round;stroke-width:2.275;"/>
   </g>
   <g id="line2d_48">
    <path clip-path="url(#p019fc4e793)" d="M 464.017021 403.401935 
L 464.017021 283.389904 
" style="fill:none;stroke:#0072b2;stroke-linecap:round;stroke-width:2.275;"/>
   </g>
   <g id="line2d_49">
    <path clip-path="url(#p019fc4e793)" d="M 476.364255 348.018778 
L 476.364255 276.805398 
" style="fill:none;stroke:#0072b2;stroke-linecap:round;stroke-width:2.275;"/>
   </g>
   <g id="line2d_50">
    <path clip-path="url(#p019fc4e793)" d="M 488.711489 373.415006 
L 488.711489 267.362545 
" style="fill:none;stroke:#0072b2;stroke-linecap:round;stroke-width:2.275;"/>
   </g>
   <g id="line2d_51">
    <path clip-path="url(#p019fc4e793)" d="M 501.058723 348.728386 
L 501.058723 199.840728 
" style="fill:none;stroke:#0072b2;stroke-linecap:round;stroke-width:2.275;"/>
   </g>
   <g id="line2d_52">
    <path clip-path="url(#p019fc4e793)" d="M 513.405957 391.428088 
L 513.405957 250.396185 
" style="fill:none;stroke:#0072b2;stroke-linecap:round;stroke-width:2.275;"/>
   </g>
   <g id="line2d_53">
    <path clip-path="url(#p019fc4e793)" d="M 525.753191 366.610183 
L 525.753191 277.63251 
" style="fill:none;stroke:#0072b2;stroke-linecap:round;stroke-width:2.275;"/>
   </g>
   <g id="line2d_54">
    <path clip-path="url(#p019fc4e793)" d="M 538.100426 369.934808 
L 538.100426 257.738368 
" style="fill:none;stroke:#0072b2;stroke-linecap:round;stroke-width:2.275;"/>
   </g>
   <g id="line2d_55">
    <path clip-path="url(#p019fc4e793)" d="M 550.44766 350.493782 
L 550.44766 207.408175 
" style="fill:none;stroke:#0072b2;stroke-linecap:round;stroke-width:2.275;"/>
   </g>
   <g id="line2d_56">
    <path clip-path="url(#p019fc4e793)" d="M 562.794894 389.934914 
L 562.794894 262.370149 
" style="fill:none;stroke:#0072b2;stroke-linecap:round;stroke-width:2.275;"/>
   </g>
   <g id="line2d_57">
    <path clip-path="url(#p019fc4e793)" d="M 575.142128 343.795887 
L 575.142128 204.140608 
" style="fill:none;stroke:#0072b2;stroke-linecap:round;stroke-width:2.275;"/>
   </g>
   <g id="line2d_58">
    <path clip-path="url(#p019fc4e793)" d="M 587.489362 402.938248 
L 587.489362 253.586584 
" style="fill:none;stroke:#0072b2;stroke-linecap:round;stroke-width:2.275;"/>
   </g>
   <g id="line2d_59">
    <path clip-path="url(#p019fc4e793)" d="M 599.836596 361.306475 
L 599.836596 227.91213 
" style="fill:none;stroke:#0072b2;stroke-linecap:round;stroke-width:2.275;"/>
   </g>
   <g id="line2d_60">
    <path clip-path="url(#p019fc4e793)" d="M 612.18383 312.775849 
L 612.18383 182.857999 
" style="fill:none;stroke:#0072b2;stroke-linecap:round;stroke-width:2.275;"/>
   </g>
   <g id="line2d_61">
    <path clip-path="url(#p019fc4e793)" d="M 624.531064 372.418135 
L 624.531064 248.000842 
" style="fill:none;stroke:#0072b2;stroke-linecap:round;stroke-width:2.275;"/>
   </g>
   <g id="line2d_62">
    <path clip-path="url(#p019fc4e793)" d="M 636.878298 289.30153 
L 636.878298 100.125941 
" style="fill:none;stroke:#0072b2;stroke-linecap:round;stroke-width:2.275;"/>
   </g>
   <g id="line2d_63">
    <path clip-path="url(#p019fc4e793)" d="M 649.225532 315.24806 
L 649.225532 251.308716 
" style="fill:none;stroke:#0072b2;stroke-linecap:round;stroke-width:2.275;"/>
   </g>
   <g id="line2d_64">
    <path clip-path="url(#p019fc4e793)" d="M 661.572766 338.837842 
L 661.572766 338.837842 
" style="fill:none;stroke:#0072b2;stroke-linecap:round;stroke-width:2.275;"/>
   </g>
   <g id="line2d_65">
    <defs>
     <path d="M 0 4.55 
C 1.206674 4.55 2.364088 4.070583 3.217336 3.217336 
C 4.070583 2.364088 4.55 1.206674 4.55 0 
C 4.55 -1.206674 4.070583 -2.364088 3.217336 -3.217336 
C 2.364088 -4.070583 1.206674 -4.55 0 -4.55 
C -1.206674 -4.55 -2.364088 -4.070583 -3.217336 -3.217336 
C -4.070583 -2.364088 -4.55 -1.206674 -4.55 0 
C -4.55 1.206674 -4.070583 2.364088 -3.217336 3.217336 
C -2.364088 4.070583 -1.206674 4.55 0 4.55 
z
" id="m4f0a9e53cd"/>
    </defs>
    <g clip-path="url(#p019fc4e793)">
     <use style="fill:#0072b2;" x="105.947234" xlink:href="#m4f0a9e53cd" y="230.355193"/>
     <use style="fill:#0072b2;" x="118.294468" xlink:href="#m4f0a9e53cd" y="262.379007"/>
     <use style="fill:#0072b2;" x="130.641702" xlink:href="#m4f0a9e53cd" y="279.934235"/>
     <use style="fill:#0072b2;" x="142.988936" xlink:href="#m4f0a9e53cd" y="225.612973"/>
     <use style="fill:#0072b2;" x="155.33617" xlink:href="#m4f0a9e53cd" y="249.472329"/>
     <use style="fill:#0072b2;" x="167.683404" xlink:href="#m4f0a9e53cd" y="291.084623"/>
     <use style="fill:#0072b2;" x="180.030638" xlink:href="#m4f0a9e53cd" y="293.049746"/>
     <use style="fill:#0072b2;" x="192.377872" xlink:href="#m4f0a9e53cd" y="301.498524"/>
     <use style="fill:#0072b2;" x="204.725106" xlink:href="#m4f0a9e53cd" y="332.377232"/>
     <use style="fill:#0072b2;" x="217.07234" xlink:href="#m4f0a9e53cd" y="309.20249"/>
     <use style="fill:#0072b2;" x="229.419574" xlink:href="#m4f0a9e53cd" y="278.404859"/>
     <use style="fill:#0072b2;" x="241.766809" xlink:href="#m4f0a9e53cd" y="302.888496"/>
     <use style="fill:#0072b2;" x="254.114043" xlink:href="#m4f0a9e53cd" y="354.288623"/>
     <use style="fill:#0072b2;" x="266.461277" xlink:href="#m4f0a9e53cd" y="258.282178"/>
     <use style="fill:#0072b2;" x="278.808511" xlink:href="#m4f0a9e53cd" y="340.572887"/>
     <use style="fill:#0072b2;" x="291.155745" xlink:href="#m4f0a9e53cd" y="251.872299"/>
     <use style="fill:#0072b2;" x="303.502979" xlink:href="#m4f0a9e53cd" y="262.081678"/>
     <use style="fill:#0072b2;" x="315.850213" xlink:href="#m4f0a9e53cd" y="301.150201"/>
     <use style="fill:#0072b2;" x="328.197447" xlink:href="#m4f0a9e53cd" y="320.152433"/>
     <use style="fill:#0072b2;" x="340.544681" xlink:href="#m4f0a9e53cd" y="278.615121"/>
     <use style="fill:#0072b2;" x="352.891915" xlink:href="#m4f0a9e53cd" y="327.634706"/>
     <use style="fill:#0072b2;" x="365.239149" xlink:href="#m4f0a9e53cd" y="265.37189"/>
     <use style="fill:#0072b2;" x="377.586383" xlink:href="#m4f0a9e53cd" y="312.706735"/>
     <use style="fill:#0072b2;" x="389.933617" xlink:href="#m4f0a9e53cd" y="290.301583"/>
     <use style="fill:#0072b2;" x="402.280851" xlink:href="#m4f0a9e53cd" y="322.257763"/>
     <use style="fill:#0072b2;" x="414.628085" xlink:href="#m4f0a9e53cd" y="250.492827"/>
     <use style="fill:#0072b2;" x="426.975319" xlink:href="#m4f0a9e53cd" y="304.257561"/>
     <use style="fill:#0072b2;" x="439.322553" xlink:href="#m4f0a9e53cd" y="295.95061"/>
     <use style="fill:#0072b2;" x="451.669787" xlink:href="#m4f0a9e53cd" y="277.162068"/>
     <use style="fill:#0072b2;" x="464.017021" xlink:href="#m4f0a9e53cd" y="339.496907"/>
     <use style="fill:#0072b2;" x="476.364255" xlink:href="#m4f0a9e53cd" y="322.275523"/>
     <use style="fill:#0072b2;" x="488.711489" xlink:href="#m4f0a9e53cd" y="319.794122"/>
     <use style="fill:#0072b2;" x="501.058723" xlink:href="#m4f0a9e53cd" y="288.246149"/>
     <use style="fill:#0072b2;" x="513.405957" xlink:href="#m4f0a9e53cd" y="351.88249"/>
     <use style="fill:#0072b2;" x="525.753191" xlink:href="#m4f0a9e53cd" y="323.326308"/>
     <use style="fill:#0072b2;" x="538.100426" xlink:href="#m4f0a9e53cd" y="315.790083"/>
     <use style="fill:#0072b2;" x="550.44766" xlink:href="#m4f0a9e53cd" y="262.135598"/>
     <use style="fill:#0072b2;" x="562.794894" xlink:href="#m4f0a9e53cd" y="333.384806"/>
     <use style="fill:#0072b2;" x="575.142128" xlink:href="#m4f0a9e53cd" y="314.870293"/>
     <use style="fill:#0072b2;" x="587.489362" xlink:href="#m4f0a9e53cd" y="343.553486"/>
     <use style="fill:#0072b2;" x="599.836596" xlink:href="#m4f0a9e53cd" y="296.647759"/>
     <use style="fill:#0072b2;" x="612.18383" xlink:href="#m4f0a9e53cd" y="262.9358"/>
     <use style="fill:#0072b2;" x="624.531064" xlink:href="#m4f0a9e53cd" y="297.002388"/>
     <use style="fill:#0072b2;" x="636.878298" xlink:href="#m4f0a9e53cd" y="250.516564"/>
     <use style="fill:#0072b2;" x="649.225532" xlink:href="#m4f0a9e53cd" y="296.764295"/>
     <use style="fill:#0072b2;" x="661.572766" xlink:href="#m4f0a9e53cd" y="338.837842"/>
    </g>
   </g>
   <g id="line2d_66">
    <path clip-path="url(#p019fc4e793)" d="M 93.6 338.837842 
L 673.92 338.837842 
" style="fill:none;opacity:0.5;stroke:#8b0000;stroke-linecap:round;stroke-width:2.275;"/>
   </g>
   <g id="patch_3">
    <path d="M 93.6 450.45 
L 93.6 61.776 
" style="fill:none;"/>
   </g>
   <g id="patch_4">
    <path d="M 673.92 450.45 
L 673.92 61.776 
" style="fill:none;"/>
   </g>
   <g id="patch_5">
    <path d="M 93.6 450.45 
L 673.92 450.45 
" style="fill:none;"/>
   </g>
   <g id="patch_6">
    <path d="M 93.6 61.776 
L 673.92 61.776 
" style="fill:none;"/>
   </g>
   <g id="text_12">
    <!-- Pourcentage de changement durant la nuit (N=33) -->
    <defs>
     <path d="M 6.734375 0 
L 6.734375 72.46875 
L 15.53125 72.46875 
L 15.53125 0 
z
" id="LiberationSans-6c"/>
     <path d="M 6.6875 64.0625 
L 6.6875 72.46875 
L 15.484375 72.46875 
L 15.484375 64.0625 
z
M 6.6875 0 
L 6.6875 52.828125 
L 15.484375 52.828125 
L 15.484375 0 
z
" id="LiberationSans-69"/>
     <path d="M 6.203125 25.984375 
Q 6.203125 32.765625 7.21875 38.96875 
Q 8.25 45.171875 10.4375 50.875 
Q 12.640625 56.59375 16.0625 61.953125 
Q 19.484375 67.328125 24.21875 72.46875 
L 32.71875 72.46875 
Q 28.125 67.328125 24.78125 61.9375 
Q 21.4375 56.546875 19.28125 50.796875 
Q 17.140625 45.0625 16.09375 38.859375 
Q 15.046875 32.671875 15.046875 25.875 
Q 15.046875 19.09375 16.09375 12.890625 
Q 17.140625 6.6875 19.28125 0.921875 
Q 21.4375 -4.828125 24.78125 -10.203125 
Q 28.125 -15.578125 32.71875 -20.703125 
L 24.21875 -20.703125 
Q 19.484375 -15.578125 16.0625 -10.203125 
Q 12.640625 -4.828125 10.4375 0.875 
Q 8.25 6.59375 7.21875 12.765625 
Q 6.203125 18.953125 6.203125 25.78125 
z
" id="LiberationSans-28"/>
     <path d="M 52.828125 0 
L 16.015625 58.59375 
Q 16.109375 56.203125 16.265625 53.859375 
Q 16.359375 51.859375 16.421875 49.625 
Q 16.5 47.40625 16.5 45.703125 
L 16.5 0 
L 8.203125 0 
L 8.203125 68.796875 
L 19.046875 68.796875 
L 56.25 9.8125 
Q 56.109375 12.203125 55.953125 14.59375 
Q 55.859375 16.65625 55.765625 19.0625 
Q 55.671875 21.484375 55.671875 23.6875 
L 55.671875 68.796875 
L 64.0625 68.796875 
L 64.0625 0 
z
" id="LiberationSans-4e"/>
     <path d="M 4.890625 41.796875 
L 4.890625 49.03125 
L 53.46875 49.03125 
L 53.46875 41.796875 
z
M 4.890625 16.796875 
L 4.890625 24.03125 
L 53.46875 24.03125 
L 53.46875 16.796875 
z
" id="LiberationSans-3d"/>
     <path d="M 27.09375 25.78125 
Q 27.09375 18.953125 26.0625 12.765625 
Q 25.046875 6.59375 22.84375 0.875 
Q 20.65625 -4.828125 17.234375 -10.203125 
Q 13.8125 -15.578125 9.078125 -20.703125 
L 0.59375 -20.703125 
Q 5.171875 -15.578125 8.515625 -10.203125 
Q 11.859375 -4.828125 14 0.921875 
Q 16.15625 6.6875 17.203125 12.890625 
Q 18.265625 19.09375 18.265625 25.875 
Q 18.265625 32.671875 17.203125 38.859375 
Q 16.15625 45.0625 14 50.796875 
Q 11.859375 56.546875 8.515625 61.9375 
Q 5.171875 67.328125 0.59375 72.46875 
L 9.078125 72.46875 
Q 13.8125 67.328125 17.234375 61.953125 
Q 20.65625 56.59375 22.84375 50.875 
Q 25.046875 45.171875 26.0625 38.96875 
Q 27.09375 32.765625 27.09375 25.984375 
z
" id="LiberationSans-29"/>
    </defs>
    <g style="fill:#262626;" transform="translate(210.108844 55.776)scale(0.156 -0.156)">
     <use xlink:href="#LiberationSans-50"/>
     <use x="66.699219" xlink:href="#LiberationSans-6f"/>
     <use x="122.314453" xlink:href="#LiberationSans-75"/>
     <use x="177.929688" xlink:href="#LiberationSans-72"/>
     <use x="211.230469" xlink:href="#LiberationSans-63"/>
     <use x="261.230469" xlink:href="#LiberationSans-65"/>
     <use x="316.845703" xlink:href="#LiberationSans-6e"/>
     <use x="372.460938" xlink:href="#LiberationSans-74"/>
     <use x="400.244141" xlink:href="#LiberationSans-61"/>
     <use x="455.859375" xlink:href="#LiberationSans-67"/>
     <use x="511.474609" xlink:href="#LiberationSans-65"/>
     <use x="567.089844" xlink:href="#LiberationSans-20"/>
     <use x="594.873047" xlink:href="#LiberationSans-64"/>
     <use x="650.488281" xlink:href="#LiberationSans-65"/>
     <use x="706.103516" xlink:href="#LiberationSans-20"/>
     <use x="733.886719" xlink:href="#LiberationSans-63"/>
     <use x="783.886719" xlink:href="#LiberationSans-68"/>
     <use x="839.501953" xlink:href="#LiberationSans-61"/>
     <use x="895.117188" xlink:href="#LiberationSans-6e"/>
     <use x="950.732422" xlink:href="#LiberationSans-67"/>
     <use x="1006.347656" xlink:href="#LiberationSans-65"/>
     <use x="1061.962891" xlink:href="#LiberationSans-6d"/>
     <use x="1145.263672" xlink:href="#LiberationSans-65"/>
     <use x="1200.878906" xlink:href="#LiberationSans-6e"/>
     <use x="1256.494141" xlink:href="#LiberationSans-74"/>
     <use x="1284.277344" xlink:href="#LiberationSans-20"/>
     <use x="1312.060547" xlink:href="#LiberationSans-64"/>
     <use x="1367.675781" xlink:href="#LiberationSans-75"/>
     <use x="1423.291016" xlink:href="#LiberationSans-72"/>
     <use x="1456.591797" xlink:href="#LiberationSans-61"/>
     <use x="1512.207031" xlink:href="#LiberationSans-6e"/>
     <use x="1567.822266" xlink:href="#LiberationSans-74"/>
     <use x="1595.605469" xlink:href="#LiberationSans-20"/>
     <use x="1623.388672" xlink:href="#LiberationSans-6c"/>
     <use x="1645.605469" xlink:href="#LiberationSans-61"/>
     <use x="1701.220703" xlink:href="#LiberationSans-20"/>
     <use x="1729.003906" xlink:href="#LiberationSans-6e"/>
     <use x="1784.619141" xlink:href="#LiberationSans-75"/>
     <use x="1840.234375" xlink:href="#LiberationSans-69"/>
     <use x="1862.451172" xlink:href="#LiberationSans-74"/>
     <use x="1890.234375" xlink:href="#LiberationSans-20"/>
     <use x="1918.017578" xlink:href="#LiberationSans-28"/>
     <use x="1951.318359" xlink:href="#LiberationSans-4e"/>
     <use x="2023.535156" xlink:href="#LiberationSans-3d"/>
     <use x="2081.933594" xlink:href="#LiberationSans-33"/>
     <use x="2137.548828" xlink:href="#LiberationSans-33"/>
     <use x="2193.164062" xlink:href="#LiberationSans-29"/>
    </g>
   </g>
   <g id="legend_1"/>
  </g>
 </g>
 <defs>
  <clipPath id="p019fc4e793">
   <rect height="388.674" width="580.32" x="93.6" y="61.776"/>
  </clipPath>
 </defs>
</svg>
