<?xml version="1.0" encoding="utf-8" standalone="no"?>
<!DOCTYPE svg PUBLIC "-//W3C//DTD SVG 1.1//EN"
  "http://www.w3.org/Graphics/SVG/1.1/DTD/svg11.dtd">
<!-- Created with matplotlib (http://matplotlib.org/) -->
<svg height="576pt" version="1.1" viewBox="0 0 864 576" width="864pt" xmlns="http://www.w3.org/2000/svg" xmlns:xlink="http://www.w3.org/1999/xlink">
 <defs>
  <style type="text/css">
*{stroke-linecap:butt;stroke-linejoin:round;}
  </style>
 </defs>
 <g id="figure_1">
  <g id="patch_1">
   <path d="M 0 576 
L 864 576 
L 864 0 
L 0 0 
z
" style="fill:#ffffff;"/>
  </g>
  <g id="axes_1">
   <g id="patch_2">
    <path d="M 108 504 
L 777.6 504 
L 777.6 69.12 
L 108 69.12 
z
" style="fill:#eaeaf2;"/>
   </g>
   <g id="matplotlib.axis_1">
    <g id="xtick_1">
     <g id="line2d_1">
      <path clip-path="url(#pec4bc08247)" d="M 121.392 504 
L 121.392 69.12 
" style="fill:none;stroke:#ffffff;stroke-linecap:round;"/>
     </g>
     <g id="line2d_2"/>
     <g id="text_1">
      <!-- 0 -->
      <defs>
       <path d="M 51.703125 34.421875 
Q 51.703125 24.515625 49.828125 17.75 
Q 47.953125 10.984375 44.703125 6.8125 
Q 41.453125 2.640625 37.0625 0.828125 
Q 32.671875 -0.984375 27.6875 -0.984375 
Q 22.65625 -0.984375 18.3125 0.828125 
Q 13.96875 2.640625 10.765625 6.78125 
Q 7.5625 10.9375 5.734375 17.703125 
Q 3.90625 24.46875 3.90625 34.421875 
Q 3.90625 44.828125 5.734375 51.640625 
Q 7.5625 58.453125 10.78125 62.5 
Q 14.015625 66.546875 18.40625 68.1875 
Q 22.796875 69.828125 27.984375 69.828125 
Q 32.90625 69.828125 37.21875 68.1875 
Q 41.546875 66.546875 44.765625 62.5 
Q 48 58.453125 49.84375 51.640625 
Q 51.703125 44.828125 51.703125 34.421875 
M 42.78125 34.421875 
Q 42.78125 42.625 41.796875 48.0625 
Q 40.828125 53.515625 38.921875 56.765625 
Q 37.015625 60.015625 34.25 61.359375 
Q 31.5 62.703125 27.984375 62.703125 
Q 24.265625 62.703125 21.4375 61.328125 
Q 18.609375 59.96875 16.671875 56.71875 
Q 14.75 53.46875 13.765625 48.015625 
Q 12.796875 42.578125 12.796875 34.421875 
Q 12.796875 26.515625 13.796875 21.09375 
Q 14.796875 15.671875 16.71875 12.375 
Q 18.65625 9.078125 21.4375 7.640625 
Q 24.21875 6.203125 27.78125 6.203125 
Q 31.25 6.203125 34.03125 7.640625 
Q 36.8125 9.078125 38.734375 12.375 
Q 40.671875 15.671875 41.71875 21.09375 
Q 42.78125 26.515625 42.78125 34.421875 
" id="LiberationSans-30"/>
      </defs>
      <g style="fill:#262626;" transform="translate(118.611531 518.246875)scale(0.1 -0.1)">
       <use xlink:href="#LiberationSans-30"/>
      </g>
     </g>
    </g>
    <g id="xtick_2">
     <g id="line2d_3">
      <path clip-path="url(#pec4bc08247)" d="M 255.312 504 
L 255.312 69.12 
" style="fill:none;stroke:#ffffff;stroke-linecap:round;"/>
     </g>
     <g id="line2d_4"/>
     <g id="text_2">
      <!-- 10 -->
      <defs>
       <path d="M 7.625 0 
L 7.625 7.46875 
L 25.140625 7.46875 
L 25.140625 60.40625 
L 9.625 49.3125 
L 9.625 57.625 
L 25.875 68.796875 
L 33.984375 68.796875 
L 33.984375 7.46875 
L 50.734375 7.46875 
L 50.734375 0 
z
" id="LiberationSans-31"/>
      </defs>
      <g style="fill:#262626;" transform="translate(249.751063 518.246875)scale(0.1 -0.1)">
       <use xlink:href="#LiberationSans-31"/>
       <use x="55.615234" xlink:href="#LiberationSans-30"/>
      </g>
     </g>
    </g>
    <g id="xtick_3">
     <g id="line2d_5">
      <path clip-path="url(#pec4bc08247)" d="M 389.232 504 
L 389.232 69.12 
" style="fill:none;stroke:#ffffff;stroke-linecap:round;"/>
     </g>
     <g id="line2d_6"/>
     <g id="text_3">
      <!-- 20 -->
      <defs>
       <path d="M 5.03125 0 
L 5.03125 6.203125 
Q 7.515625 11.921875 11.109375 16.28125 
Q 14.703125 20.65625 18.65625 24.1875 
Q 22.609375 27.734375 26.484375 30.765625 
Q 30.375 33.796875 33.5 36.8125 
Q 36.625 39.84375 38.546875 43.15625 
Q 40.484375 46.484375 40.484375 50.6875 
Q 40.484375 53.609375 39.59375 55.828125 
Q 38.71875 58.0625 37.0625 59.5625 
Q 35.40625 61.078125 33.078125 61.828125 
Q 30.765625 62.59375 27.9375 62.59375 
Q 25.296875 62.59375 22.96875 61.859375 
Q 20.65625 61.140625 18.84375 59.671875 
Q 17.046875 58.203125 15.890625 56.03125 
Q 14.75 53.859375 14.40625 50.984375 
L 5.421875 51.8125 
Q 5.859375 55.515625 7.46875 58.78125 
Q 9.078125 62.0625 11.90625 64.53125 
Q 14.75 67 18.71875 68.40625 
Q 22.703125 69.828125 27.9375 69.828125 
Q 33.0625 69.828125 37.0625 68.609375 
Q 41.0625 67.390625 43.8125 64.984375 
Q 46.578125 62.59375 48.046875 59.078125 
Q 49.515625 55.5625 49.515625 50.984375 
Q 49.515625 47.515625 48.265625 44.390625 
Q 47.015625 41.265625 44.9375 38.421875 
Q 42.875 35.59375 40.140625 32.953125 
Q 37.40625 30.328125 34.421875 27.8125 
Q 31.453125 25.296875 28.421875 22.828125 
Q 25.390625 20.359375 22.71875 17.859375 
Q 20.0625 15.375 17.96875 12.8125 
Q 15.875 10.25 14.703125 7.46875 
L 50.59375 7.46875 
L 50.59375 0 
z
" id="LiberationSans-32"/>
      </defs>
      <g style="fill:#262626;" transform="translate(383.671063 518.246875)scale(0.1 -0.1)">
       <use xlink:href="#LiberationSans-32"/>
       <use x="55.615234" xlink:href="#LiberationSans-30"/>
      </g>
     </g>
    </g>
    <g id="xtick_4">
     <g id="line2d_7">
      <path clip-path="url(#pec4bc08247)" d="M 523.152 504 
L 523.152 69.12 
" style="fill:none;stroke:#ffffff;stroke-linecap:round;"/>
     </g>
     <g id="line2d_8"/>
     <g id="text_4">
      <!-- 30 -->
      <defs>
       <path d="M 51.21875 19 
Q 51.21875 14.265625 49.671875 10.546875 
Q 48.140625 6.84375 45.1875 4.265625 
Q 42.234375 1.703125 37.859375 0.359375 
Q 33.5 -0.984375 27.875 -0.984375 
Q 21.484375 -0.984375 17.109375 0.609375 
Q 12.75 2.203125 9.90625 4.8125 
Q 7.078125 7.421875 5.65625 10.765625 
Q 4.25 14.109375 3.8125 17.671875 
L 12.890625 18.5 
Q 13.28125 15.765625 14.328125 13.515625 
Q 15.375 11.28125 17.1875 9.671875 
Q 19 8.0625 21.625 7.171875 
Q 24.265625 6.296875 27.875 6.296875 
Q 34.515625 6.296875 38.296875 9.5625 
Q 42.09375 12.84375 42.09375 19.28125 
Q 42.09375 23.09375 40.40625 25.40625 
Q 38.71875 27.734375 36.203125 29.03125 
Q 33.6875 30.328125 30.734375 30.765625 
Q 27.78125 31.203125 25.296875 31.203125 
L 20.3125 31.203125 
L 20.3125 38.8125 
L 25.09375 38.8125 
Q 27.59375 38.8125 30.265625 39.328125 
Q 32.953125 39.84375 35.171875 41.1875 
Q 37.40625 42.53125 38.84375 44.828125 
Q 40.28125 47.125 40.28125 50.6875 
Q 40.28125 56.203125 37.03125 59.390625 
Q 33.796875 62.59375 27.390625 62.59375 
Q 21.578125 62.59375 17.984375 59.609375 
Q 14.40625 56.640625 13.8125 51.21875 
L 4.984375 51.90625 
Q 5.515625 56.453125 7.46875 59.8125 
Q 9.421875 63.1875 12.421875 65.40625 
Q 15.4375 67.625 19.28125 68.71875 
Q 23.140625 69.828125 27.484375 69.828125 
Q 33.25 69.828125 37.390625 68.375 
Q 41.546875 66.9375 44.1875 64.46875 
Q 46.828125 62.015625 48.0625 58.6875 
Q 49.3125 55.375 49.3125 51.609375 
Q 49.3125 48.578125 48.484375 45.9375 
Q 47.65625 43.3125 45.890625 41.203125 
Q 44.140625 39.109375 41.421875 37.59375 
Q 38.71875 36.078125 34.90625 35.296875 
L 34.90625 35.109375 
Q 39.0625 34.671875 42.140625 33.21875 
Q 45.21875 31.78125 47.21875 29.625 
Q 49.21875 27.484375 50.21875 24.75 
Q 51.21875 22.015625 51.21875 19 
" id="LiberationSans-33"/>
      </defs>
      <g style="fill:#262626;" transform="translate(517.591063 518.246875)scale(0.1 -0.1)">
       <use xlink:href="#LiberationSans-33"/>
       <use x="55.615234" xlink:href="#LiberationSans-30"/>
      </g>
     </g>
    </g>
    <g id="xtick_5">
     <g id="line2d_9">
      <path clip-path="url(#pec4bc08247)" d="M 657.072 504 
L 657.072 69.12 
" style="fill:none;stroke:#ffffff;stroke-linecap:round;"/>
     </g>
     <g id="line2d_10"/>
     <g id="text_5">
      <!-- 40 -->
      <defs>
       <path d="M 43.015625 15.578125 
L 43.015625 0 
L 34.71875 0 
L 34.71875 15.578125 
L 2.296875 15.578125 
L 2.296875 22.40625 
L 33.796875 68.796875 
L 43.015625 68.796875 
L 43.015625 22.515625 
L 52.6875 22.515625 
L 52.6875 15.578125 
z
M 34.71875 58.890625 
Q 34.625 58.640625 34.234375 57.9375 
Q 33.84375 57.234375 33.34375 56.34375 
Q 32.859375 55.46875 32.34375 54.5625 
Q 31.84375 53.65625 31.453125 53.078125 
L 13.8125 27.09375 
Q 13.578125 26.703125 13.109375 26.0625 
Q 12.640625 25.4375 12.15625 24.78125 
Q 11.671875 24.125 11.171875 23.484375 
Q 10.6875 22.859375 10.40625 22.515625 
L 34.71875 22.515625 
z
" id="LiberationSans-34"/>
      </defs>
      <g style="fill:#262626;" transform="translate(651.511063 518.246875)scale(0.1 -0.1)">
       <use xlink:href="#LiberationSans-34"/>
       <use x="55.615234" xlink:href="#LiberationSans-30"/>
      </g>
     </g>
    </g>
    <g id="text_6">
     <!-- Day -->
     <defs>
      <path d="M 67.4375 35.109375 
Q 67.4375 26.515625 64.84375 19.9375 
Q 62.25 13.375 57.75 8.953125 
Q 53.265625 4.546875 47.140625 2.265625 
Q 41.015625 0 33.9375 0 
L 8.203125 0 
L 8.203125 68.796875 
L 30.953125 68.796875 
Q 38.921875 68.796875 45.625 66.8125 
Q 52.34375 64.84375 57.171875 60.71875 
Q 62.015625 56.59375 64.71875 50.234375 
Q 67.4375 43.890625 67.4375 35.109375 
M 58.0625 35.109375 
Q 58.0625 42.09375 56.046875 47.046875 
Q 54.046875 52 50.4375 55.171875 
Q 46.828125 58.34375 41.796875 59.828125 
Q 36.765625 61.328125 30.765625 61.328125 
L 17.53125 61.328125 
L 17.53125 7.46875 
L 32.859375 7.46875 
Q 38.28125 7.46875 42.890625 9.21875 
Q 47.515625 10.984375 50.875 14.453125 
Q 54.25 17.921875 56.15625 23.09375 
Q 58.0625 28.265625 58.0625 35.109375 
" id="LiberationSans-44"/>
      <path d="M 20.21875 -0.984375 
Q 12.25 -0.984375 8.25 3.21875 
Q 4.25 7.421875 4.25 14.75 
Q 4.25 19.96875 6.21875 23.3125 
Q 8.203125 26.65625 11.390625 28.5625 
Q 14.59375 30.46875 18.6875 31.203125 
Q 22.796875 31.9375 27.046875 32.03125 
L 38.921875 32.234375 
L 38.921875 35.109375 
Q 38.921875 38.375 38.234375 40.671875 
Q 37.546875 42.96875 36.125 44.375 
Q 34.71875 45.796875 32.59375 46.453125 
Q 30.46875 47.125 27.59375 47.125 
Q 25.046875 47.125 23 46.75 
Q 20.953125 46.390625 19.4375 45.4375 
Q 17.921875 44.484375 16.984375 42.84375 
Q 16.0625 41.21875 15.765625 38.71875 
L 6.59375 39.546875 
Q 7.078125 42.671875 8.4375 45.28125 
Q 9.8125 47.90625 12.328125 49.796875 
Q 14.84375 51.703125 18.625 52.75 
Q 22.40625 53.8125 27.78125 53.8125 
Q 37.75 53.8125 42.765625 49.234375 
Q 47.796875 44.671875 47.796875 36.03125 
L 47.796875 13.28125 
Q 47.796875 9.375 48.828125 7.390625 
Q 49.859375 5.421875 52.734375 5.421875 
Q 53.46875 5.421875 54.203125 5.515625 
Q 54.9375 5.609375 55.609375 5.765625 
L 55.609375 0.296875 
Q 53.953125 -0.09375 52.3125 -0.28125 
Q 50.6875 -0.484375 48.828125 -0.484375 
Q 46.34375 -0.484375 44.5625 0.171875 
Q 42.78125 0.828125 41.65625 2.171875 
Q 40.53125 3.515625 39.9375 5.484375 
Q 39.359375 7.46875 39.203125 10.109375 
L 38.921875 10.109375 
Q 37.5 7.5625 35.8125 5.515625 
Q 34.125 3.46875 31.875 2.03125 
Q 29.640625 0.59375 26.78125 -0.1875 
Q 23.921875 -0.984375 20.21875 -0.984375 
M 22.21875 5.609375 
Q 26.421875 5.609375 29.5625 7.140625 
Q 32.71875 8.6875 34.78125 11.078125 
Q 36.859375 13.484375 37.890625 16.3125 
Q 38.921875 19.140625 38.921875 21.734375 
L 38.921875 26.078125 
L 29.296875 25.875 
Q 26.078125 25.828125 23.171875 25.40625 
Q 20.265625 25 18.0625 23.78125 
Q 15.875 22.5625 14.578125 20.359375 
Q 13.28125 18.171875 13.28125 14.59375 
Q 13.28125 10.296875 15.59375 7.953125 
Q 17.921875 5.609375 22.21875 5.609375 
" id="LiberationSans-61"/>
      <path d="M 29.5 0 
Q 27.640625 -4.78125 25.703125 -8.609375 
Q 23.78125 -12.453125 21.390625 -15.15625 
Q 19 -17.875 16.0625 -19.3125 
Q 13.140625 -20.75 9.328125 -20.75 
Q 7.671875 -20.75 6.25 -20.65625 
Q 4.828125 -20.5625 3.265625 -20.21875 
L 3.265625 -13.625 
Q 4.203125 -13.765625 5.375 -13.84375 
Q 6.546875 -13.921875 7.375 -13.921875 
Q 11.234375 -13.921875 14.546875 -11.03125 
Q 17.875 -8.15625 20.359375 -1.859375 
L 21.1875 0.25 
L 0.25 52.828125 
L 9.625 52.828125 
L 20.75 23.640625 
Q 21.234375 22.3125 21.984375 20.109375 
Q 22.75 17.921875 23.5 15.71875 
Q 24.265625 13.53125 24.84375 11.765625 
Q 25.4375 10.015625 25.53125 9.578125 
Q 25.6875 10.109375 26.25 11.6875 
Q 26.8125 13.28125 27.515625 15.234375 
Q 28.21875 17.1875 28.953125 19.1875 
Q 29.6875 21.1875 30.171875 22.65625 
L 40.53125 52.828125 
L 49.8125 52.828125 
z
" id="LiberationSans-79"/>
     </defs>
     <g style="fill:#262626;" transform="translate(433.019453 532.293437)scale(0.11 -0.11)">
      <use xlink:href="#LiberationSans-44"/>
      <use x="72.216797" xlink:href="#LiberationSans-61"/>
      <use x="127.832031" xlink:href="#LiberationSans-79"/>
     </g>
    </g>
   </g>
   <g id="matplotlib.axis_2">
    <g id="ytick_1">
     <g id="line2d_11">
      <path clip-path="url(#pec4bc08247)" d="M 108 482.795706 
L 777.6 482.795706 
" style="fill:none;stroke:#ffffff;stroke-linecap:round;"/>
     </g>
     <g id="line2d_12"/>
     <g id="text_7">
      <!-- 0 -->
      <g style="fill:#262626;" transform="translate(95.439063 486.419143)scale(0.1 -0.1)">
       <use xlink:href="#LiberationSans-30"/>
      </g>
     </g>
    </g>
    <g id="ytick_2">
     <g id="line2d_13">
      <path clip-path="url(#pec4bc08247)" d="M 108 418.652278 
L 777.6 418.652278 
" style="fill:none;stroke:#ffffff;stroke-linecap:round;"/>
     </g>
     <g id="line2d_14"/>
     <g id="text_8">
      <!-- 2000 -->
      <g style="fill:#262626;" transform="translate(78.75625 422.275716)scale(0.1 -0.1)">
       <use xlink:href="#LiberationSans-32"/>
       <use x="55.615234" xlink:href="#LiberationSans-30"/>
       <use x="111.230469" xlink:href="#LiberationSans-30"/>
       <use x="166.845703" xlink:href="#LiberationSans-30"/>
      </g>
     </g>
    </g>
    <g id="ytick_3">
     <g id="line2d_15">
      <path clip-path="url(#pec4bc08247)" d="M 108 354.50885 
L 777.6 354.50885 
" style="fill:none;stroke:#ffffff;stroke-linecap:round;"/>
     </g>
     <g id="line2d_16"/>
     <g id="text_9">
      <!-- 4000 -->
      <g style="fill:#262626;" transform="translate(78.75625 358.132288)scale(0.1 -0.1)">
       <use xlink:href="#LiberationSans-34"/>
       <use x="55.615234" xlink:href="#LiberationSans-30"/>
       <use x="111.230469" xlink:href="#LiberationSans-30"/>
       <use x="166.845703" xlink:href="#LiberationSans-30"/>
      </g>
     </g>
    </g>
    <g id="ytick_4">
     <g id="line2d_17">
      <path clip-path="url(#pec4bc08247)" d="M 108 290.365422 
L 777.6 290.365422 
" style="fill:none;stroke:#ffffff;stroke-linecap:round;"/>
     </g>
     <g id="line2d_18"/>
     <g id="text_10">
      <!-- 6000 -->
      <defs>
       <path d="M 51.21875 22.515625 
Q 51.21875 17.328125 49.78125 13 
Q 48.34375 8.6875 45.53125 5.578125 
Q 42.71875 2.484375 38.5625 0.75 
Q 34.421875 -0.984375 29 -0.984375 
Q 23 -0.984375 18.5 1.3125 
Q 14.015625 3.609375 11.03125 7.921875 
Q 8.0625 12.25 6.5625 18.53125 
Q 5.078125 24.8125 5.078125 32.8125 
Q 5.078125 42 6.765625 48.921875 
Q 8.453125 55.859375 11.625 60.5 
Q 14.796875 65.140625 19.359375 67.484375 
Q 23.921875 69.828125 29.6875 69.828125 
Q 33.203125 69.828125 36.28125 69.09375 
Q 39.359375 68.359375 41.875 66.71875 
Q 44.390625 65.09375 46.28125 62.40625 
Q 48.1875 59.71875 49.3125 55.8125 
L 40.921875 54.296875 
Q 39.546875 58.734375 36.546875 60.71875 
Q 33.546875 62.703125 29.59375 62.703125 
Q 25.984375 62.703125 23.046875 60.984375 
Q 20.125 59.28125 18.0625 55.875 
Q 16.015625 52.484375 14.90625 47.359375 
Q 13.8125 42.234375 13.8125 35.40625 
Q 16.21875 39.84375 20.5625 42.15625 
Q 24.90625 44.484375 30.515625 44.484375 
Q 35.203125 44.484375 39.015625 42.96875 
Q 42.828125 41.453125 45.53125 38.59375 
Q 48.25 35.75 49.734375 31.671875 
Q 51.21875 27.59375 51.21875 22.515625 
M 42.28125 22.125 
Q 42.28125 25.6875 41.40625 28.5625 
Q 40.53125 31.453125 38.765625 33.46875 
Q 37.015625 35.5 34.421875 36.59375 
Q 31.84375 37.703125 28.421875 37.703125 
Q 26.03125 37.703125 23.578125 36.984375 
Q 21.140625 36.28125 19.15625 34.6875 
Q 17.1875 33.109375 15.9375 30.515625 
Q 14.703125 27.9375 14.703125 24.21875 
Q 14.703125 20.40625 15.671875 17.109375 
Q 16.65625 13.8125 18.484375 11.375 
Q 20.3125 8.9375 22.890625 7.515625 
Q 25.484375 6.109375 28.71875 6.109375 
Q 31.890625 6.109375 34.40625 7.203125 
Q 36.921875 8.296875 38.671875 10.375 
Q 40.4375 12.453125 41.359375 15.421875 
Q 42.28125 18.40625 42.28125 22.125 
" id="LiberationSans-36"/>
      </defs>
      <g style="fill:#262626;" transform="translate(78.75625 293.98886)scale(0.1 -0.1)">
       <use xlink:href="#LiberationSans-36"/>
       <use x="55.615234" xlink:href="#LiberationSans-30"/>
       <use x="111.230469" xlink:href="#LiberationSans-30"/>
       <use x="166.845703" xlink:href="#LiberationSans-30"/>
      </g>
     </g>
    </g>
    <g id="ytick_5">
     <g id="line2d_19">
      <path clip-path="url(#pec4bc08247)" d="M 108 226.221994 
L 777.6 226.221994 
" style="fill:none;stroke:#ffffff;stroke-linecap:round;"/>
     </g>
     <g id="line2d_20"/>
     <g id="text_11">
      <!-- 8000 -->
      <defs>
       <path d="M 51.265625 19.1875 
Q 51.265625 14.796875 49.875 11.109375 
Q 48.484375 7.421875 45.625 4.734375 
Q 42.78125 2.046875 38.328125 0.53125 
Q 33.890625 -0.984375 27.828125 -0.984375 
Q 21.78125 -0.984375 17.359375 0.53125 
Q 12.9375 2.046875 10.03125 4.703125 
Q 7.125 7.375 5.734375 11.0625 
Q 4.34375 14.75 4.34375 19.09375 
Q 4.34375 22.859375 5.484375 25.78125 
Q 6.640625 28.71875 8.5625 30.828125 
Q 10.5 32.953125 12.96875 34.25 
Q 15.4375 35.546875 18.0625 35.984375 
L 18.0625 36.1875 
Q 15.1875 36.859375 12.90625 38.375 
Q 10.640625 39.890625 9.09375 42.015625 
Q 7.5625 44.140625 6.75 46.71875 
Q 5.953125 49.3125 5.953125 52.203125 
Q 5.953125 55.8125 7.34375 59 
Q 8.734375 62.203125 11.46875 64.625 
Q 14.203125 67.046875 18.25 68.4375 
Q 22.3125 69.828125 27.640625 69.828125 
Q 33.25 69.828125 37.375 68.40625 
Q 41.5 67 44.203125 64.578125 
Q 46.921875 62.15625 48.234375 58.9375 
Q 49.5625 55.71875 49.5625 52.09375 
Q 49.5625 49.265625 48.75 46.671875 
Q 47.953125 44.09375 46.40625 41.96875 
Q 44.875 39.84375 42.59375 38.34375 
Q 40.328125 36.859375 37.359375 36.28125 
L 37.359375 36.078125 
Q 40.328125 35.59375 42.859375 34.296875 
Q 45.40625 33.015625 47.265625 30.890625 
Q 49.125 28.765625 50.1875 25.828125 
Q 51.265625 22.90625 51.265625 19.1875 
M 40.4375 51.609375 
Q 40.4375 54.203125 39.765625 56.34375 
Q 39.109375 58.5 37.59375 60.03125 
Q 36.078125 61.578125 33.640625 62.421875 
Q 31.203125 63.28125 27.640625 63.28125 
Q 24.171875 63.28125 21.78125 62.421875 
Q 19.390625 61.578125 17.84375 60.03125 
Q 16.3125 58.5 15.625 56.34375 
Q 14.9375 54.203125 14.9375 51.609375 
Q 14.9375 49.5625 15.46875 47.40625 
Q 16.015625 45.265625 17.421875 43.5 
Q 18.84375 41.75 21.328125 40.625 
Q 23.828125 39.5 27.734375 39.5 
Q 31.890625 39.5 34.40625 40.625 
Q 36.921875 41.75 38.25 43.5 
Q 39.59375 45.265625 40.015625 47.40625 
Q 40.4375 49.5625 40.4375 51.609375 
M 42.140625 20.015625 
Q 42.140625 22.515625 41.453125 24.828125 
Q 40.765625 27.15625 39.109375 28.9375 
Q 37.453125 30.71875 34.640625 31.8125 
Q 31.84375 32.90625 27.640625 32.90625 
Q 23.78125 32.90625 21.0625 31.8125 
Q 18.359375 30.71875 16.671875 28.90625 
Q 14.984375 27.09375 14.203125 24.71875 
Q 13.421875 22.359375 13.421875 19.828125 
Q 13.421875 16.65625 14.203125 14.03125 
Q 14.984375 11.421875 16.6875 9.546875 
Q 18.40625 7.671875 21.1875 6.640625 
Q 23.96875 5.609375 27.9375 5.609375 
Q 31.9375 5.609375 34.671875 6.640625 
Q 37.40625 7.671875 39.0625 9.546875 
Q 40.71875 11.421875 41.421875 14.078125 
Q 42.140625 16.75 42.140625 20.015625 
" id="LiberationSans-38"/>
      </defs>
      <g style="fill:#262626;" transform="translate(78.75625 229.845432)scale(0.1 -0.1)">
       <use xlink:href="#LiberationSans-38"/>
       <use x="55.615234" xlink:href="#LiberationSans-30"/>
       <use x="111.230469" xlink:href="#LiberationSans-30"/>
       <use x="166.845703" xlink:href="#LiberationSans-30"/>
      </g>
     </g>
    </g>
    <g id="ytick_6">
     <g id="line2d_21">
      <path clip-path="url(#pec4bc08247)" d="M 108 162.078566 
L 777.6 162.078566 
" style="fill:none;stroke:#ffffff;stroke-linecap:round;"/>
     </g>
     <g id="line2d_22"/>
     <g id="text_12">
      <!-- 10000 -->
      <g style="fill:#262626;" transform="translate(73.195312 165.702004)scale(0.1 -0.1)">
       <use xlink:href="#LiberationSans-31"/>
       <use x="55.615234" xlink:href="#LiberationSans-30"/>
       <use x="111.230469" xlink:href="#LiberationSans-30"/>
       <use x="166.845703" xlink:href="#LiberationSans-30"/>
       <use x="222.460938" xlink:href="#LiberationSans-30"/>
      </g>
     </g>
    </g>
    <g id="ytick_7">
     <g id="line2d_23">
      <path clip-path="url(#pec4bc08247)" d="M 108 97.935139 
L 777.6 97.935139 
" style="fill:none;stroke:#ffffff;stroke-linecap:round;"/>
     </g>
     <g id="line2d_24"/>
     <g id="text_13">
      <!-- 12000 -->
      <g style="fill:#262626;" transform="translate(73.195312 101.558576)scale(0.1 -0.1)">
       <use xlink:href="#LiberationSans-31"/>
       <use x="55.615234" xlink:href="#LiberationSans-32"/>
       <use x="111.230469" xlink:href="#LiberationSans-30"/>
       <use x="166.845703" xlink:href="#LiberationSans-30"/>
       <use x="222.460938" xlink:href="#LiberationSans-30"/>
      </g>
     </g>
    </g>
    <g id="text_14">
     <!-- Percent Change -->
     <defs>
      <path d="M 61.421875 48.09375 
Q 61.421875 43.609375 59.9375 39.71875 
Q 58.453125 35.84375 55.5 32.984375 
Q 52.546875 30.125 48.09375 28.46875 
Q 43.65625 26.8125 37.75 26.8125 
L 17.53125 26.8125 
L 17.53125 0 
L 8.203125 0 
L 8.203125 68.796875 
L 37.15625 68.796875 
Q 43.265625 68.796875 47.796875 67.3125 
Q 52.34375 65.828125 55.375 63.109375 
Q 58.40625 60.40625 59.90625 56.5625 
Q 61.421875 52.734375 61.421875 48.09375 
M 52.046875 48 
Q 52.046875 54.546875 48.046875 57.9375 
Q 44.046875 61.328125 36.03125 61.328125 
L 17.53125 61.328125 
L 17.53125 34.1875 
L 36.421875 34.1875 
Q 44.484375 34.1875 48.265625 37.75 
Q 52.046875 41.3125 52.046875 48 
" id="LiberationSans-50"/>
      <path d="M 13.484375 24.5625 
Q 13.484375 20.40625 14.328125 16.90625 
Q 15.1875 13.421875 16.96875 10.90625 
Q 18.75 8.40625 21.53125 7 
Q 24.3125 5.609375 28.21875 5.609375 
Q 33.9375 5.609375 37.375 7.90625 
Q 40.828125 10.203125 42.046875 13.71875 
L 49.75 11.53125 
Q 48.921875 9.328125 47.4375 7.109375 
Q 45.953125 4.890625 43.453125 3.09375 
Q 40.96875 1.3125 37.234375 0.15625 
Q 33.5 -0.984375 28.21875 -0.984375 
Q 16.5 -0.984375 10.375 6 
Q 4.25 12.984375 4.25 26.765625 
Q 4.25 34.1875 6.09375 39.328125 
Q 7.953125 44.484375 11.171875 47.703125 
Q 14.40625 50.921875 18.703125 52.359375 
Q 23 53.8125 27.875 53.8125 
Q 34.515625 53.8125 38.984375 51.65625 
Q 43.453125 49.515625 46.15625 45.71875 
Q 48.875 41.9375 50.015625 36.8125 
Q 51.171875 31.6875 51.171875 25.734375 
L 51.171875 24.5625 
z
M 42.09375 31.296875 
Q 41.359375 39.65625 37.84375 43.484375 
Q 34.328125 47.3125 27.734375 47.3125 
Q 25.53125 47.3125 23.109375 46.609375 
Q 20.703125 45.90625 18.65625 44.09375 
Q 16.609375 42.28125 15.1875 39.171875 
Q 13.765625 36.078125 13.578125 31.296875 
z
" id="LiberationSans-65"/>
      <path d="M 6.9375 0 
L 6.9375 40.53125 
Q 6.9375 42.1875 6.90625 43.921875 
Q 6.890625 45.65625 6.828125 47.265625 
Q 6.78125 48.875 6.734375 50.28125 
Q 6.6875 51.703125 6.640625 52.828125 
L 14.9375 52.828125 
Q 14.984375 51.703125 15.0625 50.265625 
Q 15.140625 48.828125 15.203125 47.3125 
Q 15.28125 45.796875 15.296875 44.40625 
Q 15.328125 43.015625 15.328125 42.046875 
L 15.53125 42.046875 
Q 16.453125 45.0625 17.5 47.28125 
Q 18.5625 49.515625 19.96875 50.953125 
Q 21.390625 52.390625 23.34375 53.09375 
Q 25.296875 53.8125 28.078125 53.8125 
Q 29.15625 53.8125 30.125 53.640625 
Q 31.109375 53.46875 31.640625 53.328125 
L 31.640625 45.265625 
Q 30.765625 45.515625 29.59375 45.625 
Q 28.421875 45.75 26.953125 45.75 
Q 23.921875 45.75 21.796875 44.375 
Q 19.671875 43.015625 18.328125 40.59375 
Q 17 38.1875 16.359375 34.84375 
Q 15.71875 31.5 15.71875 27.546875 
L 15.71875 0 
z
" id="LiberationSans-72"/>
      <path d="M 13.421875 26.65625 
Q 13.421875 22.125 14.078125 18.3125 
Q 14.75 14.5 16.3125 11.734375 
Q 17.875 8.984375 20.4375 7.46875 
Q 23 5.953125 26.765625 5.953125 
Q 31.453125 5.953125 34.59375 8.484375 
Q 37.75 11.03125 38.484375 16.3125 
L 47.359375 15.71875 
Q 46.921875 12.453125 45.453125 9.421875 
Q 44 6.390625 41.484375 4.09375 
Q 38.96875 1.8125 35.34375 0.40625 
Q 31.734375 -0.984375 27 -0.984375 
Q 20.796875 -0.984375 16.453125 1.109375 
Q 12.109375 3.21875 9.390625 6.90625 
Q 6.6875 10.59375 5.46875 15.59375 
Q 4.25 20.609375 4.25 26.46875 
Q 4.25 31.78125 5.125 35.859375 
Q 6 39.9375 7.59375 42.984375 
Q 9.1875 46.046875 11.328125 48.125 
Q 13.484375 50.203125 15.984375 51.4375 
Q 18.5 52.6875 21.28125 53.25 
Q 24.078125 53.8125 26.90625 53.8125 
Q 31.34375 53.8125 34.8125 52.59375 
Q 38.28125 51.375 40.796875 49.25 
Q 43.3125 47.125 44.875 44.234375 
Q 46.4375 41.359375 47.078125 38.03125 
L 38.03125 37.359375 
Q 37.359375 41.75 34.5625 44.328125 
Q 31.78125 46.921875 26.65625 46.921875 
Q 22.90625 46.921875 20.390625 45.671875 
Q 17.875 44.4375 16.3125 41.921875 
Q 14.75 39.40625 14.078125 35.59375 
Q 13.421875 31.78125 13.421875 26.65625 
" id="LiberationSans-63"/>
      <path d="M 40.28125 0 
L 40.28125 33.5 
Q 40.28125 37.359375 39.71875 39.9375 
Q 39.15625 42.53125 37.890625 44.109375 
Q 36.625 45.703125 34.546875 46.359375 
Q 32.46875 47.015625 29.390625 47.015625 
Q 26.265625 47.015625 23.75 45.921875 
Q 21.234375 44.828125 19.453125 42.75 
Q 17.671875 40.671875 16.6875 37.625 
Q 15.71875 34.578125 15.71875 30.609375 
L 15.71875 0 
L 6.9375 0 
L 6.9375 41.546875 
Q 6.9375 43.21875 6.90625 45.046875 
Q 6.890625 46.875 6.828125 48.5 
Q 6.78125 50.140625 6.734375 51.3125 
Q 6.6875 52.484375 6.640625 52.828125 
L 14.9375 52.828125 
Q 14.984375 52.59375 15.03125 51.515625 
Q 15.09375 50.4375 15.15625 49.046875 
Q 15.234375 47.65625 15.28125 46.21875 
Q 15.328125 44.78125 15.328125 43.796875 
L 15.484375 43.796875 
Q 16.75 46.09375 18.265625 47.953125 
Q 19.78125 49.8125 21.78125 51.09375 
Q 23.78125 52.390625 26.359375 53.09375 
Q 28.953125 53.8125 32.375 53.8125 
Q 36.765625 53.8125 39.9375 52.734375 
Q 43.109375 51.65625 45.15625 49.40625 
Q 47.21875 47.171875 48.171875 43.625 
Q 49.125 40.09375 49.125 35.203125 
L 49.125 0 
z
" id="LiberationSans-6e"/>
      <path d="M 27.046875 0.390625 
Q 25.046875 -0.140625 22.96875 -0.453125 
Q 20.90625 -0.78125 18.171875 -0.78125 
Q 7.625 -0.78125 7.625 11.1875 
L 7.625 46.4375 
L 1.515625 46.4375 
L 1.515625 52.828125 
L 7.953125 52.828125 
L 10.546875 64.65625 
L 16.40625 64.65625 
L 16.40625 52.828125 
L 26.171875 52.828125 
L 26.171875 46.4375 
L 16.40625 46.4375 
L 16.40625 13.09375 
Q 16.40625 9.28125 17.640625 7.734375 
Q 18.890625 6.203125 21.96875 6.203125 
Q 23.25 6.203125 24.4375 6.390625 
Q 25.640625 6.59375 27.046875 6.890625 
z
" id="LiberationSans-74"/>
      <path id="LiberationSans-20"/>
      <path d="M 38.671875 62.203125 
Q 32.8125 62.203125 28.296875 60.25 
Q 23.78125 58.296875 20.71875 54.6875 
Q 17.671875 51.078125 16.109375 46 
Q 14.546875 40.921875 14.546875 34.71875 
Q 14.546875 28.515625 16.234375 23.359375 
Q 17.921875 18.21875 21.0625 14.5 
Q 24.21875 10.796875 28.78125 8.734375 
Q 33.34375 6.6875 39.0625 6.6875 
Q 43.0625 6.6875 46.359375 7.734375 
Q 49.65625 8.796875 52.3125 10.6875 
Q 54.984375 12.59375 57.078125 15.203125 
Q 59.1875 17.828125 60.796875 21 
L 68.40625 17.1875 
Q 66.546875 13.328125 63.8125 10 
Q 61.078125 6.6875 57.390625 4.25 
Q 53.71875 1.8125 49.046875 0.40625 
Q 44.390625 -0.984375 38.625 -0.984375 
Q 30.28125 -0.984375 24 1.671875 
Q 17.71875 4.34375 13.5 9.109375 
Q 9.28125 13.875 7.171875 20.40625 
Q 5.078125 26.953125 5.078125 34.71875 
Q 5.078125 42.78125 7.296875 49.265625 
Q 9.515625 55.765625 13.78125 60.328125 
Q 18.0625 64.890625 24.3125 67.359375 
Q 30.5625 69.828125 38.578125 69.828125 
Q 49.5625 69.828125 56.9375 65.53125 
Q 64.3125 61.234375 67.78125 52.78125 
L 58.9375 49.859375 
Q 57.953125 52.296875 56.296875 54.515625 
Q 54.640625 56.734375 52.140625 58.4375 
Q 49.65625 60.15625 46.3125 61.171875 
Q 42.96875 62.203125 38.671875 62.203125 
" id="LiberationSans-43"/>
      <path d="M 15.484375 43.796875 
Q 16.9375 46.484375 18.640625 48.359375 
Q 20.359375 50.25 22.40625 51.46875 
Q 24.46875 52.6875 26.90625 53.25 
Q 29.34375 53.8125 32.375 53.8125 
Q 37.453125 53.8125 40.703125 52.4375 
Q 43.953125 51.078125 45.828125 48.609375 
Q 47.703125 46.140625 48.40625 42.71875 
Q 49.125 39.3125 49.125 35.203125 
L 49.125 0 
L 40.28125 0 
L 40.28125 33.5 
Q 40.28125 36.859375 39.859375 39.390625 
Q 39.453125 41.9375 38.28125 43.625 
Q 37.109375 45.3125 34.953125 46.15625 
Q 32.8125 47.015625 29.390625 47.015625 
Q 26.265625 47.015625 23.75 45.890625 
Q 21.234375 44.78125 19.453125 42.71875 
Q 17.671875 40.671875 16.6875 37.734375 
Q 15.71875 34.8125 15.71875 31.15625 
L 15.71875 0 
L 6.9375 0 
L 6.9375 72.46875 
L 15.71875 72.46875 
L 15.71875 53.609375 
Q 15.71875 52 15.671875 50.390625 
Q 15.625 48.78125 15.546875 47.40625 
Q 15.484375 46.046875 15.421875 45.09375 
Q 15.375 44.140625 15.328125 43.796875 
z
" id="LiberationSans-68"/>
      <path d="M 26.765625 -20.75 
Q 22.21875 -20.75 18.703125 -19.8125 
Q 15.1875 -18.890625 12.6875 -17.15625 
Q 10.203125 -15.4375 8.640625 -13.03125 
Q 7.078125 -10.640625 6.390625 -7.71875 
L 15.234375 -6.453125 
Q 16.109375 -10.109375 19.109375 -12.078125 
Q 22.125 -14.0625 27 -14.0625 
Q 29.984375 -14.0625 32.421875 -13.234375 
Q 34.859375 -12.40625 36.5625 -10.5625 
Q 38.28125 -8.734375 39.203125 -5.796875 
Q 40.140625 -2.875 40.140625 1.3125 
L 40.140625 9.8125 
L 40.046875 9.8125 
Q 39.0625 7.8125 37.625 5.984375 
Q 36.1875 4.15625 34.109375 2.734375 
Q 32.03125 1.3125 29.296875 0.453125 
Q 26.5625 -0.390625 23.046875 -0.390625 
Q 18.015625 -0.390625 14.421875 1.296875 
Q 10.84375 2.984375 8.5625 6.34375 
Q 6.296875 9.71875 5.25 14.71875 
Q 4.203125 19.734375 4.203125 26.3125 
Q 4.203125 32.671875 5.25 37.75 
Q 6.296875 42.828125 8.65625 46.359375 
Q 11.03125 49.90625 14.8125 51.78125 
Q 18.609375 53.65625 24.03125 53.65625 
Q 29.640625 53.65625 33.765625 51.09375 
Q 37.890625 48.53125 40.140625 43.796875 
L 40.234375 43.796875 
Q 40.234375 45.015625 40.296875 46.53125 
Q 40.375 48.046875 40.453125 49.390625 
Q 40.53125 50.734375 40.625 51.703125 
Q 40.71875 52.6875 40.828125 52.828125 
L 49.171875 52.828125 
Q 49.125 52.390625 49.078125 51.34375 
Q 49.03125 50.296875 48.96875 48.828125 
Q 48.921875 47.359375 48.890625 45.578125 
Q 48.875 43.796875 48.875 41.890625 
L 48.875 1.515625 
Q 48.875 -9.578125 43.421875 -15.15625 
Q 37.984375 -20.75 26.765625 -20.75 
M 40.140625 26.421875 
Q 40.140625 31.9375 38.9375 35.859375 
Q 37.75 39.796875 35.796875 42.28125 
Q 33.84375 44.78125 31.328125 45.953125 
Q 28.8125 47.125 26.171875 47.125 
Q 22.796875 47.125 20.375 45.953125 
Q 17.96875 44.78125 16.375 42.265625 
Q 14.796875 39.75 14.03125 35.8125 
Q 13.28125 31.890625 13.28125 26.421875 
Q 13.28125 20.703125 14.03125 16.8125 
Q 14.796875 12.9375 16.359375 10.546875 
Q 17.921875 8.15625 20.3125 7.125 
Q 22.703125 6.109375 26.03125 6.109375 
Q 28.65625 6.109375 31.171875 7.21875 
Q 33.6875 8.34375 35.6875 10.78125 
Q 37.703125 13.234375 38.921875 17.09375 
Q 40.140625 20.953125 40.140625 26.421875 
" id="LiberationSans-67"/>
     </defs>
     <g style="fill:#262626;" transform="translate(66.912813 326.306094)rotate(-90)scale(0.11 -0.11)">
      <use xlink:href="#LiberationSans-50"/>
      <use x="66.699219" xlink:href="#LiberationSans-65"/>
      <use x="122.314453" xlink:href="#LiberationSans-72"/>
      <use x="155.615234" xlink:href="#LiberationSans-63"/>
      <use x="205.615234" xlink:href="#LiberationSans-65"/>
      <use x="261.230469" xlink:href="#LiberationSans-6e"/>
      <use x="316.845703" xlink:href="#LiberationSans-74"/>
      <use x="344.628906" xlink:href="#LiberationSans-20"/>
      <use x="372.412109" xlink:href="#LiberationSans-43"/>
      <use x="444.628906" xlink:href="#LiberationSans-68"/>
      <use x="500.244141" xlink:href="#LiberationSans-61"/>
      <use x="555.859375" xlink:href="#LiberationSans-6e"/>
      <use x="611.474609" xlink:href="#LiberationSans-67"/>
      <use x="667.089844" xlink:href="#LiberationSans-65"/>
     </g>
    </g>
   </g>
   <g id="line2d_25">
    <path clip-path="url(#pec4bc08247)" d="M 108 482.795706 
L 777.6 482.795706 
" style="fill:none;opacity:0.5;stroke:#8b0000;stroke-linecap:round;stroke-width:1.75;"/>
   </g>
   <g id="line2d_26">
    <path clip-path="url(#pec4bc08247)" d="M 121.392 182.537907 
L 121.392 88.887273 
" style="fill:none;stroke:#0072b2;stroke-linecap:round;stroke-width:1.75;"/>
   </g>
   <g id="line2d_27">
    <path clip-path="url(#pec4bc08247)" d="M 134.784 483.654418 
L 134.784 481.874507 
" style="fill:none;stroke:#0072b2;stroke-linecap:round;stroke-width:1.75;"/>
   </g>
   <g id="line2d_28">
    <path clip-path="url(#pec4bc08247)" d="M 148.176 482.064279 
L 148.176 479.410685 
" style="fill:none;stroke:#0072b2;stroke-linecap:round;stroke-width:1.75;"/>
   </g>
   <g id="line2d_29">
    <path clip-path="url(#pec4bc08247)" d="M 161.568 482.599803 
L 161.568 480.476907 
" style="fill:none;stroke:#0072b2;stroke-linecap:round;stroke-width:1.75;"/>
   </g>
   <g id="line2d_30">
    <path clip-path="url(#pec4bc08247)" d="M 174.96 482.776275 
L 174.96 482.321949 
" style="fill:none;stroke:#0072b2;stroke-linecap:round;stroke-width:1.75;"/>
   </g>
   <g id="line2d_31">
    <path clip-path="url(#pec4bc08247)" d="M 188.352 482.823609 
L 188.352 482.11916 
" style="fill:none;stroke:#0072b2;stroke-linecap:round;stroke-width:1.75;"/>
   </g>
   <g id="line2d_32">
    <path clip-path="url(#pec4bc08247)" d="M 201.744 482.610256 
L 201.744 480.900262 
" style="fill:none;stroke:#0072b2;stroke-linecap:round;stroke-width:1.75;"/>
   </g>
   <g id="line2d_33">
    <path clip-path="url(#pec4bc08247)" d="M 215.136 482.721304 
L 215.136 481.923317 
" style="fill:none;stroke:#0072b2;stroke-linecap:round;stroke-width:1.75;"/>
   </g>
   <g id="line2d_34">
    <path clip-path="url(#pec4bc08247)" d="M 228.528 482.829563 
L 228.528 481.995309 
" style="fill:none;stroke:#0072b2;stroke-linecap:round;stroke-width:1.75;"/>
   </g>
   <g id="line2d_35">
    <path clip-path="url(#pec4bc08247)" d="M 241.92 483.045749 
L 241.92 481.646095 
" style="fill:none;stroke:#0072b2;stroke-linecap:round;stroke-width:1.75;"/>
   </g>
   <g id="line2d_36">
    <path clip-path="url(#pec4bc08247)" d="M 255.312 482.849725 
L 255.312 481.576671 
" style="fill:none;stroke:#0072b2;stroke-linecap:round;stroke-width:1.75;"/>
   </g>
   <g id="line2d_37">
    <path clip-path="url(#pec4bc08247)" d="M 268.704 482.936308 
L 268.704 482.193838 
" style="fill:none;stroke:#0072b2;stroke-linecap:round;stroke-width:1.75;"/>
   </g>
   <g id="line2d_38">
    <path clip-path="url(#pec4bc08247)" d="M 282.096 482.855719 
L 282.096 481.724366 
" style="fill:none;stroke:#0072b2;stroke-linecap:round;stroke-width:1.75;"/>
   </g>
   <g id="line2d_39">
    <path clip-path="url(#pec4bc08247)" d="M 295.488 482.57209 
L 295.488 479.298507 
" style="fill:none;stroke:#0072b2;stroke-linecap:round;stroke-width:1.75;"/>
   </g>
   <g id="line2d_40">
    <path clip-path="url(#pec4bc08247)" d="M 308.88 482.70892 
L 308.88 481.905027 
" style="fill:none;stroke:#0072b2;stroke-linecap:round;stroke-width:1.75;"/>
   </g>
   <g id="line2d_41">
    <path clip-path="url(#pec4bc08247)" d="M 322.272 483.099187 
L 322.272 481.650259 
" style="fill:none;stroke:#0072b2;stroke-linecap:round;stroke-width:1.75;"/>
   </g>
   <g id="line2d_42">
    <path clip-path="url(#pec4bc08247)" d="M 335.664 482.759842 
L 335.664 480.891991 
" style="fill:none;stroke:#0072b2;stroke-linecap:round;stroke-width:1.75;"/>
   </g>
   <g id="line2d_43">
    <path clip-path="url(#pec4bc08247)" d="M 349.056 482.825281 
L 349.056 481.32843 
" style="fill:none;stroke:#0072b2;stroke-linecap:round;stroke-width:1.75;"/>
   </g>
   <g id="line2d_44">
    <path clip-path="url(#pec4bc08247)" d="M 362.448 482.791939 
L 362.448 481.62237 
" style="fill:none;stroke:#0072b2;stroke-linecap:round;stroke-width:1.75;"/>
   </g>
   <g id="line2d_45">
    <path clip-path="url(#pec4bc08247)" d="M 375.84 482.914022 
L 375.84 481.956469 
" style="fill:none;stroke:#0072b2;stroke-linecap:round;stroke-width:1.75;"/>
   </g>
   <g id="line2d_46">
    <path clip-path="url(#pec4bc08247)" d="M 389.232 482.829667 
L 389.232 481.504218 
" style="fill:none;stroke:#0072b2;stroke-linecap:round;stroke-width:1.75;"/>
   </g>
   <g id="line2d_47">
    <path clip-path="url(#pec4bc08247)" d="M 402.624 483.31392 
L 402.624 481.642003 
" style="fill:none;stroke:#0072b2;stroke-linecap:round;stroke-width:1.75;"/>
   </g>
   <g id="line2d_48">
    <path clip-path="url(#pec4bc08247)" d="M 416.016 482.791587 
L 416.016 481.630692 
" style="fill:none;stroke:#0072b2;stroke-linecap:round;stroke-width:1.75;"/>
   </g>
   <g id="line2d_49">
    <path clip-path="url(#pec4bc08247)" d="M 429.408 482.89168 
L 429.408 480.720918 
" style="fill:none;stroke:#0072b2;stroke-linecap:round;stroke-width:1.75;"/>
   </g>
   <g id="line2d_50">
    <path clip-path="url(#pec4bc08247)" d="M 442.8 482.930339 
L 442.8 482.207357 
" style="fill:none;stroke:#0072b2;stroke-linecap:round;stroke-width:1.75;"/>
   </g>
   <g id="line2d_51">
    <path clip-path="url(#pec4bc08247)" d="M 456.192 483.107459 
L 456.192 481.218318 
" style="fill:none;stroke:#0072b2;stroke-linecap:round;stroke-width:1.75;"/>
   </g>
   <g id="line2d_52">
    <path clip-path="url(#pec4bc08247)" d="M 469.584 482.874286 
L 469.584 481.897884 
" style="fill:none;stroke:#0072b2;stroke-linecap:round;stroke-width:1.75;"/>
   </g>
   <g id="line2d_53">
    <path clip-path="url(#pec4bc08247)" d="M 482.976 482.926406 
L 482.976 481.063525 
" style="fill:none;stroke:#0072b2;stroke-linecap:round;stroke-width:1.75;"/>
   </g>
   <g id="line2d_54">
    <path clip-path="url(#pec4bc08247)" d="M 496.368 482.826638 
L 496.368 481.00508 
" style="fill:none;stroke:#0072b2;stroke-linecap:round;stroke-width:1.75;"/>
   </g>
   <g id="line2d_55">
    <path clip-path="url(#pec4bc08247)" d="M 509.76 482.864031 
L 509.76 481.52898 
" style="fill:none;stroke:#0072b2;stroke-linecap:round;stroke-width:1.75;"/>
   </g>
   <g id="line2d_56">
    <path clip-path="url(#pec4bc08247)" d="M 523.152 482.771897 
L 523.152 481.126732 
" style="fill:none;stroke:#0072b2;stroke-linecap:round;stroke-width:1.75;"/>
   </g>
   <g id="line2d_57">
    <path clip-path="url(#pec4bc08247)" d="M 536.544 482.243984 
L 536.544 480.924152 
" style="fill:none;stroke:#0072b2;stroke-linecap:round;stroke-width:1.75;"/>
   </g>
   <g id="line2d_58">
    <path clip-path="url(#pec4bc08247)" d="M 549.936 482.269002 
L 549.936 481.663145 
" style="fill:none;stroke:#0072b2;stroke-linecap:round;stroke-width:1.75;"/>
   </g>
   <g id="line2d_59">
    <path clip-path="url(#pec4bc08247)" d="M 563.328 482.802282 
L 563.328 481.582011 
" style="fill:none;stroke:#0072b2;stroke-linecap:round;stroke-width:1.75;"/>
   </g>
   <g id="line2d_60">
    <path clip-path="url(#pec4bc08247)" d="M 576.72 482.440985 
L 576.72 481.802233 
" style="fill:none;stroke:#0072b2;stroke-linecap:round;stroke-width:1.75;"/>
   </g>
   <g id="line2d_61">
    <path clip-path="url(#pec4bc08247)" d="M 590.112 482.660878 
L 590.112 480.989225 
" style="fill:none;stroke:#0072b2;stroke-linecap:round;stroke-width:1.75;"/>
   </g>
   <g id="line2d_62">
    <path clip-path="url(#pec4bc08247)" d="M 603.504 482.75957 
L 603.504 481.685694 
" style="fill:none;stroke:#0072b2;stroke-linecap:round;stroke-width:1.75;"/>
   </g>
   <g id="line2d_63">
    <path clip-path="url(#pec4bc08247)" d="M 616.896 482.670811 
L 616.896 481.055609 
" style="fill:none;stroke:#0072b2;stroke-linecap:round;stroke-width:1.75;"/>
   </g>
   <g id="line2d_64">
    <path clip-path="url(#pec4bc08247)" d="M 630.288 482.86686 
L 630.288 480.55348 
" style="fill:none;stroke:#0072b2;stroke-linecap:round;stroke-width:1.75;"/>
   </g>
   <g id="line2d_65">
    <path clip-path="url(#pec4bc08247)" d="M 643.68 483.07676 
L 643.68 481.455351 
" style="fill:none;stroke:#0072b2;stroke-linecap:round;stroke-width:1.75;"/>
   </g>
   <g id="line2d_66">
    <path clip-path="url(#pec4bc08247)" d="M 657.072 482.600773 
L 657.072 481.697568 
" style="fill:none;stroke:#0072b2;stroke-linecap:round;stroke-width:1.75;"/>
   </g>
   <g id="line2d_67">
    <path clip-path="url(#pec4bc08247)" d="M 670.464 482.128652 
L 670.464 479.014272 
" style="fill:none;stroke:#0072b2;stroke-linecap:round;stroke-width:1.75;"/>
   </g>
   <g id="line2d_68">
    <path clip-path="url(#pec4bc08247)" d="M 683.856 482.915411 
L 683.856 482.131377 
" style="fill:none;stroke:#0072b2;stroke-linecap:round;stroke-width:1.75;"/>
   </g>
   <g id="line2d_69">
    <path clip-path="url(#pec4bc08247)" d="M 697.248 482.847941 
L 697.248 480.414998 
" style="fill:none;stroke:#0072b2;stroke-linecap:round;stroke-width:1.75;"/>
   </g>
   <g id="line2d_70">
    <path clip-path="url(#pec4bc08247)" d="M 710.64 483.024107 
L 710.64 481.785721 
" style="fill:none;stroke:#0072b2;stroke-linecap:round;stroke-width:1.75;"/>
   </g>
   <g id="line2d_71">
    <path clip-path="url(#pec4bc08247)" d="M 724.032 482.393118 
L 724.032 479.7383 
" style="fill:none;stroke:#0072b2;stroke-linecap:round;stroke-width:1.75;"/>
   </g>
   <g id="line2d_72">
    <path clip-path="url(#pec4bc08247)" d="M 737.424 482.860412 
L 737.424 481.961631 
" style="fill:none;stroke:#0072b2;stroke-linecap:round;stroke-width:1.75;"/>
   </g>
   <g id="line2d_73">
    <path clip-path="url(#pec4bc08247)" d="M 750.816 482.57521 
L 750.816 481.022783 
" style="fill:none;stroke:#0072b2;stroke-linecap:round;stroke-width:1.75;"/>
   </g>
   <g id="line2d_74">
    <path clip-path="url(#pec4bc08247)" d="M 764.208 482.172889 
L 764.208 481.172325 
" style="fill:none;stroke:#0072b2;stroke-linecap:round;stroke-width:1.75;"/>
   </g>
   <g id="line2d_75">
    <defs>
     <path d="M 0 3.5 
C 0.928211 3.5 1.81853 3.131218 2.474874 2.474874 
C 3.131218 1.81853 3.5 0.928211 3.5 0 
C 3.5 -0.928211 3.131218 -1.81853 2.474874 -2.474874 
C 1.81853 -3.131218 0.928211 -3.5 0 -3.5 
C -0.928211 -3.5 -1.81853 -3.131218 -2.474874 -2.474874 
C -3.131218 -1.81853 -3.5 -0.928211 -3.5 0 
C -3.5 0.928211 -3.131218 1.81853 -2.474874 2.474874 
C -1.81853 3.131218 -0.928211 3.5 0 3.5 
z
" id="mdc808dc652"/>
    </defs>
    <g clip-path="url(#pec4bc08247)">
     <use style="fill:#0072b2;" x="121.392" xlink:href="#mdc808dc652" y="151.039662"/>
     <use style="fill:#0072b2;" x="134.784" xlink:href="#mdc808dc652" y="482.199894"/>
     <use style="fill:#0072b2;" x="148.176" xlink:href="#mdc808dc652" y="480.455254"/>
     <use style="fill:#0072b2;" x="161.568" xlink:href="#mdc808dc652" y="481.521117"/>
     <use style="fill:#0072b2;" x="174.96" xlink:href="#mdc808dc652" y="482.523382"/>
     <use style="fill:#0072b2;" x="188.352" xlink:href="#mdc808dc652" y="482.637414"/>
     <use style="fill:#0072b2;" x="201.744" xlink:href="#mdc808dc652" y="481.844021"/>
     <use style="fill:#0072b2;" x="215.136" xlink:href="#mdc808dc652" y="482.387957"/>
     <use style="fill:#0072b2;" x="228.528" xlink:href="#mdc808dc652" y="482.297424"/>
     <use style="fill:#0072b2;" x="241.92" xlink:href="#mdc808dc652" y="482.594717"/>
     <use style="fill:#0072b2;" x="255.312" xlink:href="#mdc808dc652" y="482.129474"/>
     <use style="fill:#0072b2;" x="268.704" xlink:href="#mdc808dc652" y="482.479439"/>
     <use style="fill:#0072b2;" x="282.096" xlink:href="#mdc808dc652" y="482.275037"/>
     <use style="fill:#0072b2;" x="295.488" xlink:href="#mdc808dc652" y="482.188688"/>
     <use style="fill:#0072b2;" x="308.88" xlink:href="#mdc808dc652" y="482.503921"/>
     <use style="fill:#0072b2;" x="322.272" xlink:href="#mdc808dc652" y="482.586483"/>
     <use style="fill:#0072b2;" x="335.664" xlink:href="#mdc808dc652" y="482.235261"/>
     <use style="fill:#0072b2;" x="349.056" xlink:href="#mdc808dc652" y="482.285832"/>
     <use style="fill:#0072b2;" x="362.448" xlink:href="#mdc808dc652" y="482.21766"/>
     <use style="fill:#0072b2;" x="375.84" xlink:href="#mdc808dc652" y="482.229125"/>
     <use style="fill:#0072b2;" x="389.232" xlink:href="#mdc808dc652" y="482.185097"/>
     <use style="fill:#0072b2;" x="402.624" xlink:href="#mdc808dc652" y="482.627301"/>
     <use style="fill:#0072b2;" x="416.016" xlink:href="#mdc808dc652" y="482.246603"/>
     <use style="fill:#0072b2;" x="429.408" xlink:href="#mdc808dc652" y="481.50901"/>
     <use style="fill:#0072b2;" x="442.8" xlink:href="#mdc808dc652" y="482.484827"/>
     <use style="fill:#0072b2;" x="456.192" xlink:href="#mdc808dc652" y="482.534454"/>
     <use style="fill:#0072b2;" x="469.584" xlink:href="#mdc808dc652" y="482.52259"/>
     <use style="fill:#0072b2;" x="482.976" xlink:href="#mdc808dc652" y="482.428799"/>
     <use style="fill:#0072b2;" x="496.368" xlink:href="#mdc808dc652" y="482.349699"/>
     <use style="fill:#0072b2;" x="509.76" xlink:href="#mdc808dc652" y="482.569755"/>
     <use style="fill:#0072b2;" x="523.152" xlink:href="#mdc808dc652" y="482.168362"/>
     <use style="fill:#0072b2;" x="536.544" xlink:href="#mdc808dc652" y="481.597132"/>
     <use style="fill:#0072b2;" x="549.936" xlink:href="#mdc808dc652" y="481.966413"/>
     <use style="fill:#0072b2;" x="563.328" xlink:href="#mdc808dc652" y="482.120747"/>
     <use style="fill:#0072b2;" x="576.72" xlink:href="#mdc808dc652" y="482.182789"/>
     <use style="fill:#0072b2;" x="590.112" xlink:href="#mdc808dc652" y="482.033088"/>
     <use style="fill:#0072b2;" x="603.504" xlink:href="#mdc808dc652" y="482.209977"/>
     <use style="fill:#0072b2;" x="616.896" xlink:href="#mdc808dc652" y="482.242276"/>
     <use style="fill:#0072b2;" x="630.288" xlink:href="#mdc808dc652" y="482.052786"/>
     <use style="fill:#0072b2;" x="643.68" xlink:href="#mdc808dc652" y="482.096524"/>
     <use style="fill:#0072b2;" x="657.072" xlink:href="#mdc808dc652" y="482.29349"/>
     <use style="fill:#0072b2;" x="670.464" xlink:href="#mdc808dc652" y="482.029073"/>
     <use style="fill:#0072b2;" x="683.856" xlink:href="#mdc808dc652" y="482.546022"/>
     <use style="fill:#0072b2;" x="697.248" xlink:href="#mdc808dc652" y="482.438359"/>
     <use style="fill:#0072b2;" x="710.64" xlink:href="#mdc808dc652" y="482.194613"/>
     <use style="fill:#0072b2;" x="724.032" xlink:href="#mdc808dc652" y="481.714977"/>
     <use style="fill:#0072b2;" x="737.424" xlink:href="#mdc808dc652" y="482.381197"/>
     <use style="fill:#0072b2;" x="750.816" xlink:href="#mdc808dc652" y="481.979511"/>
     <use style="fill:#0072b2;" x="764.208" xlink:href="#mdc808dc652" y="481.724255"/>
    </g>
   </g>
   <g id="line2d_76">
    <path clip-path="url(#pec4bc08247)" d="M 121.392 483.673518 
L 121.392 482.514108 
" style="fill:none;stroke:#009e73;stroke-linecap:round;stroke-width:1.75;"/>
   </g>
   <g id="line2d_77">
    <path clip-path="url(#pec4bc08247)" d="M 134.784 483.793081 
L 134.784 482.626163 
" style="fill:none;stroke:#009e73;stroke-linecap:round;stroke-width:1.75;"/>
   </g>
   <g id="line2d_78">
    <path clip-path="url(#pec4bc08247)" d="M 148.176 482.549644 
L 148.176 478.77844 
" style="fill:none;stroke:#009e73;stroke-linecap:round;stroke-width:1.75;"/>
   </g>
   <g id="line2d_79">
    <path clip-path="url(#pec4bc08247)" d="M 161.568 483.883264 
L 161.568 481.153992 
" style="fill:none;stroke:#009e73;stroke-linecap:round;stroke-width:1.75;"/>
   </g>
   <g id="line2d_80">
    <path clip-path="url(#pec4bc08247)" d="M 174.96 482.849295 
L 174.96 481.629401 
" style="fill:none;stroke:#009e73;stroke-linecap:round;stroke-width:1.75;"/>
   </g>
   <g id="line2d_81">
    <path clip-path="url(#pec4bc08247)" d="M 188.352 483.941051 
L 188.352 480.772 
" style="fill:none;stroke:#009e73;stroke-linecap:round;stroke-width:1.75;"/>
   </g>
   <g id="line2d_82">
    <path clip-path="url(#pec4bc08247)" d="M 201.744 483.143907 
L 201.744 482.187282 
" style="fill:none;stroke:#009e73;stroke-linecap:round;stroke-width:1.75;"/>
   </g>
   <g id="line2d_83">
    <path clip-path="url(#pec4bc08247)" d="M 215.136 483.455215 
L 215.136 481.63724 
" style="fill:none;stroke:#009e73;stroke-linecap:round;stroke-width:1.75;"/>
   </g>
   <g id="line2d_84">
    <path clip-path="url(#pec4bc08247)" d="M 228.528 483.072396 
L 228.528 481.515075 
" style="fill:none;stroke:#009e73;stroke-linecap:round;stroke-width:1.75;"/>
   </g>
   <g id="line2d_85">
    <path clip-path="url(#pec4bc08247)" d="M 241.92 483.427069 
L 241.92 481.328822 
" style="fill:none;stroke:#009e73;stroke-linecap:round;stroke-width:1.75;"/>
   </g>
   <g id="line2d_86">
    <path clip-path="url(#pec4bc08247)" d="M 255.312 482.877323 
L 255.312 481.599101 
" style="fill:none;stroke:#009e73;stroke-linecap:round;stroke-width:1.75;"/>
   </g>
   <g id="line2d_87">
    <path clip-path="url(#pec4bc08247)" d="M 268.704 483.501454 
L 268.704 481.483804 
" style="fill:none;stroke:#009e73;stroke-linecap:round;stroke-width:1.75;"/>
   </g>
   <g id="line2d_88">
    <path clip-path="url(#pec4bc08247)" d="M 282.096 483.374841 
L 282.096 481.856964 
" style="fill:none;stroke:#009e73;stroke-linecap:round;stroke-width:1.75;"/>
   </g>
   <g id="line2d_89">
    <path clip-path="url(#pec4bc08247)" d="M 295.488 482.92107 
L 295.488 480.863169 
" style="fill:none;stroke:#009e73;stroke-linecap:round;stroke-width:1.75;"/>
   </g>
   <g id="line2d_90">
    <path clip-path="url(#pec4bc08247)" d="M 308.88 483.051147 
L 308.88 480.97667 
" style="fill:none;stroke:#009e73;stroke-linecap:round;stroke-width:1.75;"/>
   </g>
   <g id="line2d_91">
    <path clip-path="url(#pec4bc08247)" d="M 322.272 483.412397 
L 322.272 481.933702 
" style="fill:none;stroke:#009e73;stroke-linecap:round;stroke-width:1.75;"/>
   </g>
   <g id="line2d_92">
    <path clip-path="url(#pec4bc08247)" d="M 335.664 483.180543 
L 335.664 481.729007 
" style="fill:none;stroke:#009e73;stroke-linecap:round;stroke-width:1.75;"/>
   </g>
   <g id="line2d_93">
    <path clip-path="url(#pec4bc08247)" d="M 349.056 482.970146 
L 349.056 481.499087 
" style="fill:none;stroke:#009e73;stroke-linecap:round;stroke-width:1.75;"/>
   </g>
   <g id="line2d_94">
    <path clip-path="url(#pec4bc08247)" d="M 362.448 483.617958 
L 362.448 481.624534 
" style="fill:none;stroke:#009e73;stroke-linecap:round;stroke-width:1.75;"/>
   </g>
   <g id="line2d_95">
    <path clip-path="url(#pec4bc08247)" d="M 375.84 482.82506 
L 375.84 482.433005 
" style="fill:none;stroke:#009e73;stroke-linecap:round;stroke-width:1.75;"/>
   </g>
   <g id="line2d_96">
    <path clip-path="url(#pec4bc08247)" d="M 389.232 483.920133 
L 389.232 481.916647 
" style="fill:none;stroke:#009e73;stroke-linecap:round;stroke-width:1.75;"/>
   </g>
   <g id="line2d_97">
    <path clip-path="url(#pec4bc08247)" d="M 402.624 483.504492 
L 402.624 481.27277 
" style="fill:none;stroke:#009e73;stroke-linecap:round;stroke-width:1.75;"/>
   </g>
   <g id="line2d_98">
    <path clip-path="url(#pec4bc08247)" d="M 416.016 483.260068 
L 416.016 482.01105 
" style="fill:none;stroke:#009e73;stroke-linecap:round;stroke-width:1.75;"/>
   </g>
   <g id="line2d_99">
    <path clip-path="url(#pec4bc08247)" d="M 429.408 482.984934 
L 429.408 480.668155 
" style="fill:none;stroke:#009e73;stroke-linecap:round;stroke-width:1.75;"/>
   </g>
   <g id="line2d_100">
    <path clip-path="url(#pec4bc08247)" d="M 442.8 483.405319 
L 442.8 482.37651 
" style="fill:none;stroke:#009e73;stroke-linecap:round;stroke-width:1.75;"/>
   </g>
   <g id="line2d_101">
    <path clip-path="url(#pec4bc08247)" d="M 456.192 482.921737 
L 456.192 481.109331 
" style="fill:none;stroke:#009e73;stroke-linecap:round;stroke-width:1.75;"/>
   </g>
   <g id="line2d_102">
    <path clip-path="url(#pec4bc08247)" d="M 469.584 483.981243 
L 469.584 481.858385 
" style="fill:none;stroke:#009e73;stroke-linecap:round;stroke-width:1.75;"/>
   </g>
   <g id="line2d_103">
    <path clip-path="url(#pec4bc08247)" d="M 482.976 483.436679 
L 482.976 481.656765 
" style="fill:none;stroke:#009e73;stroke-linecap:round;stroke-width:1.75;"/>
   </g>
   <g id="line2d_104">
    <path clip-path="url(#pec4bc08247)" d="M 496.368 483.407021 
L 496.368 480.683729 
" style="fill:none;stroke:#009e73;stroke-linecap:round;stroke-width:1.75;"/>
   </g>
   <g id="line2d_105">
    <path clip-path="url(#pec4bc08247)" d="M 509.76 482.692626 
L 509.76 481.677643 
" style="fill:none;stroke:#009e73;stroke-linecap:round;stroke-width:1.75;"/>
   </g>
   <g id="line2d_106">
    <path clip-path="url(#pec4bc08247)" d="M 523.152 483.180333 
L 523.152 481.628341 
" style="fill:none;stroke:#009e73;stroke-linecap:round;stroke-width:1.75;"/>
   </g>
   <g id="line2d_107">
    <path clip-path="url(#pec4bc08247)" d="M 536.544 483.267042 
L 536.544 481.78118 
" style="fill:none;stroke:#009e73;stroke-linecap:round;stroke-width:1.75;"/>
   </g>
   <g id="line2d_108">
    <path clip-path="url(#pec4bc08247)" d="M 549.936 482.941917 
L 549.936 481.265539 
" style="fill:none;stroke:#009e73;stroke-linecap:round;stroke-width:1.75;"/>
   </g>
   <g id="line2d_109">
    <path clip-path="url(#pec4bc08247)" d="M 563.328 482.905387 
L 563.328 481.608486 
" style="fill:none;stroke:#009e73;stroke-linecap:round;stroke-width:1.75;"/>
   </g>
   <g id="line2d_110">
    <path clip-path="url(#pec4bc08247)" d="M 576.72 484.232727 
L 576.72 482.036395 
" style="fill:none;stroke:#009e73;stroke-linecap:round;stroke-width:1.75;"/>
   </g>
   <g id="line2d_111">
    <path clip-path="url(#pec4bc08247)" d="M 590.112 482.999758 
L 590.112 481.647522 
" style="fill:none;stroke:#009e73;stroke-linecap:round;stroke-width:1.75;"/>
   </g>
   <g id="line2d_112">
    <path clip-path="url(#pec4bc08247)" d="M 603.504 482.750397 
L 603.504 480.1493 
" style="fill:none;stroke:#009e73;stroke-linecap:round;stroke-width:1.75;"/>
   </g>
   <g id="line2d_113">
    <path clip-path="url(#pec4bc08247)" d="M 616.896 483.386635 
L 616.896 481.635116 
" style="fill:none;stroke:#009e73;stroke-linecap:round;stroke-width:1.75;"/>
   </g>
   <g id="line2d_114">
    <path clip-path="url(#pec4bc08247)" d="M 630.288 482.999515 
L 630.288 480.716625 
" style="fill:none;stroke:#009e73;stroke-linecap:round;stroke-width:1.75;"/>
   </g>
   <g id="line2d_115">
    <path clip-path="url(#pec4bc08247)" d="M 643.68 482.601201 
L 643.68 480.777258 
" style="fill:none;stroke:#009e73;stroke-linecap:round;stroke-width:1.75;"/>
   </g>
   <g id="line2d_116">
    <path clip-path="url(#pec4bc08247)" d="M 657.072 482.969284 
L 657.072 481.281342 
" style="fill:none;stroke:#009e73;stroke-linecap:round;stroke-width:1.75;"/>
   </g>
   <g id="line2d_117">
    <path clip-path="url(#pec4bc08247)" d="M 670.464 482.822946 
L 670.464 481.415413 
" style="fill:none;stroke:#009e73;stroke-linecap:round;stroke-width:1.75;"/>
   </g>
   <g id="line2d_118">
    <path clip-path="url(#pec4bc08247)" d="M 683.856 483.657985 
L 683.856 481.302995 
" style="fill:none;stroke:#009e73;stroke-linecap:round;stroke-width:1.75;"/>
   </g>
   <g id="line2d_119">
    <path clip-path="url(#pec4bc08247)" d="M 697.248 483.376437 
L 697.248 481.59931 
" style="fill:none;stroke:#009e73;stroke-linecap:round;stroke-width:1.75;"/>
   </g>
   <g id="line2d_120">
    <path clip-path="url(#pec4bc08247)" d="M 710.64 482.868877 
L 710.64 479.970451 
" style="fill:none;stroke:#009e73;stroke-linecap:round;stroke-width:1.75;"/>
   </g>
   <g id="line2d_121">
    <path clip-path="url(#pec4bc08247)" d="M 724.032 483.961595 
L 724.032 481.705985 
" style="fill:none;stroke:#009e73;stroke-linecap:round;stroke-width:1.75;"/>
   </g>
   <g id="line2d_122">
    <path clip-path="url(#pec4bc08247)" d="M 737.424 482.54416 
L 737.424 480.622074 
" style="fill:none;stroke:#009e73;stroke-linecap:round;stroke-width:1.75;"/>
   </g>
   <g id="line2d_123">
    <path clip-path="url(#pec4bc08247)" d="M 750.816 482.254899 
L 750.816 480.656814 
" style="fill:none;stroke:#009e73;stroke-linecap:round;stroke-width:1.75;"/>
   </g>
   <g id="line2d_124">
    <path clip-path="url(#pec4bc08247)" d="M 764.208 482.795706 
L 764.208 482.795706 
" style="fill:none;stroke:#009e73;stroke-linecap:round;stroke-width:1.75;"/>
   </g>
   <g id="line2d_125">
    <defs>
     <path d="M 0 3.5 
C 0.928211 3.5 1.81853 3.131218 2.474874 2.474874 
C 3.131218 1.81853 3.5 0.928211 3.5 0 
C 3.5 -0.928211 3.131218 -1.81853 2.474874 -2.474874 
C 1.81853 -3.131218 0.928211 -3.5 0 -3.5 
C -0.928211 -3.5 -1.81853 -3.131218 -2.474874 -2.474874 
C -3.131218 -1.81853 -3.5 -0.928211 -3.5 0 
C -3.5 0.928211 -3.131218 1.81853 -2.474874 2.474874 
C -1.81853 3.131218 -0.928211 3.5 0 3.5 
z
" id="m39a1883520"/>
    </defs>
    <g clip-path="url(#pec4bc08247)">
     <use style="fill:#009e73;" x="121.392" xlink:href="#m39a1883520" y="483.407968"/>
     <use style="fill:#009e73;" x="134.784" xlink:href="#m39a1883520" y="483.192863"/>
     <use style="fill:#009e73;" x="148.176" xlink:href="#m39a1883520" y="481.550932"/>
     <use style="fill:#009e73;" x="161.568" xlink:href="#m39a1883520" y="482.406247"/>
     <use style="fill:#009e73;" x="174.96" xlink:href="#m39a1883520" y="482.005711"/>
     <use style="fill:#009e73;" x="188.352" xlink:href="#m39a1883520" y="483.11407"/>
     <use style="fill:#009e73;" x="201.744" xlink:href="#m39a1883520" y="482.838371"/>
     <use style="fill:#009e73;" x="215.136" xlink:href="#m39a1883520" y="482.956907"/>
     <use style="fill:#009e73;" x="228.528" xlink:href="#m39a1883520" y="482.182294"/>
     <use style="fill:#009e73;" x="241.92" xlink:href="#m39a1883520" y="482.186129"/>
     <use style="fill:#009e73;" x="255.312" xlink:href="#m39a1883520" y="482.526637"/>
     <use style="fill:#009e73;" x="268.704" xlink:href="#m39a1883520" y="482.965171"/>
     <use style="fill:#009e73;" x="282.096" xlink:href="#m39a1883520" y="482.693013"/>
     <use style="fill:#009e73;" x="295.488" xlink:href="#m39a1883520" y="482.202974"/>
     <use style="fill:#009e73;" x="308.88" xlink:href="#m39a1883520" y="482.754816"/>
     <use style="fill:#009e73;" x="322.272" xlink:href="#m39a1883520" y="482.952493"/>
     <use style="fill:#009e73;" x="335.664" xlink:href="#m39a1883520" y="482.500083"/>
     <use style="fill:#009e73;" x="349.056" xlink:href="#m39a1883520" y="482.255232"/>
     <use style="fill:#009e73;" x="362.448" xlink:href="#m39a1883520" y="482.343308"/>
     <use style="fill:#009e73;" x="375.84" xlink:href="#m39a1883520" y="482.594623"/>
     <use style="fill:#009e73;" x="389.232" xlink:href="#m39a1883520" y="482.592071"/>
     <use style="fill:#009e73;" x="402.624" xlink:href="#m39a1883520" y="482.746272"/>
     <use style="fill:#009e73;" x="416.016" xlink:href="#m39a1883520" y="482.641619"/>
     <use style="fill:#009e73;" x="429.408" xlink:href="#m39a1883520" y="482.019199"/>
     <use style="fill:#009e73;" x="442.8" xlink:href="#m39a1883520" y="482.793882"/>
     <use style="fill:#009e73;" x="456.192" xlink:href="#m39a1883520" y="481.896853"/>
     <use style="fill:#009e73;" x="469.584" xlink:href="#m39a1883520" y="482.638695"/>
     <use style="fill:#009e73;" x="482.976" xlink:href="#m39a1883520" y="482.835773"/>
     <use style="fill:#009e73;" x="496.368" xlink:href="#m39a1883520" y="482.913292"/>
     <use style="fill:#009e73;" x="509.76" xlink:href="#m39a1883520" y="482.218356"/>
     <use style="fill:#009e73;" x="523.152" xlink:href="#m39a1883520" y="482.683434"/>
     <use style="fill:#009e73;" x="536.544" xlink:href="#m39a1883520" y="482.874193"/>
     <use style="fill:#009e73;" x="549.936" xlink:href="#m39a1883520" y="481.881515"/>
     <use style="fill:#009e73;" x="563.328" xlink:href="#m39a1883520" y="481.958954"/>
     <use style="fill:#009e73;" x="576.72" xlink:href="#m39a1883520" y="483.505594"/>
     <use style="fill:#009e73;" x="590.112" xlink:href="#m39a1883520" y="482.273543"/>
     <use style="fill:#009e73;" x="603.504" xlink:href="#m39a1883520" y="481.68788"/>
     <use style="fill:#009e73;" x="616.896" xlink:href="#m39a1883520" y="482.478123"/>
     <use style="fill:#009e73;" x="630.288" xlink:href="#m39a1883520" y="481.537961"/>
     <use style="fill:#009e73;" x="643.68" xlink:href="#m39a1883520" y="482.119121"/>
     <use style="fill:#009e73;" x="657.072" xlink:href="#m39a1883520" y="481.938785"/>
     <use style="fill:#009e73;" x="670.464" xlink:href="#m39a1883520" y="481.737948"/>
     <use style="fill:#009e73;" x="683.856" xlink:href="#m39a1883520" y="482.377696"/>
     <use style="fill:#009e73;" x="697.248" xlink:href="#m39a1883520" y="482.218792"/>
     <use style="fill:#009e73;" x="710.64" xlink:href="#m39a1883520" y="482.085385"/>
     <use style="fill:#009e73;" x="724.032" xlink:href="#m39a1883520" y="482.408135"/>
     <use style="fill:#009e73;" x="737.424" xlink:href="#m39a1883520" y="481.622682"/>
     <use style="fill:#009e73;" x="750.816" xlink:href="#m39a1883520" y="481.69768"/>
     <use style="fill:#009e73;" x="764.208" xlink:href="#m39a1883520" y="482.795706"/>
    </g>
   </g>
   <g id="patch_3">
    <path d="M 108 504 
L 108 69.12 
" style="fill:none;"/>
   </g>
   <g id="patch_4">
    <path d="M 108 504 
L 777.6 504 
" style="fill:none;"/>
   </g>
   <g id="legend_1">
    <g id="text_15">
     <!-- cond -->
     <defs>
      <path d="M 51.421875 26.46875 
Q 51.421875 12.59375 45.3125 5.796875 
Q 39.203125 -0.984375 27.59375 -0.984375 
Q 22.078125 -0.984375 17.71875 0.671875 
Q 13.375 2.34375 10.375 5.765625 
Q 7.375 9.1875 5.78125 14.328125 
Q 4.203125 19.484375 4.203125 26.46875 
Q 4.203125 53.8125 27.875 53.8125 
Q 34.03125 53.8125 38.5 52.09375 
Q 42.96875 50.390625 45.828125 46.96875 
Q 48.6875 43.5625 50.046875 38.421875 
Q 51.421875 33.296875 51.421875 26.46875 
M 42.1875 26.46875 
Q 42.1875 32.625 41.234375 36.625 
Q 40.28125 40.625 38.453125 43.015625 
Q 36.625 45.40625 33.984375 46.359375 
Q 31.34375 47.3125 28.03125 47.3125 
Q 24.65625 47.3125 21.9375 46.3125 
Q 19.234375 45.3125 17.328125 42.890625 
Q 15.4375 40.484375 14.421875 36.46875 
Q 13.421875 32.46875 13.421875 26.46875 
Q 13.421875 20.3125 14.5 16.28125 
Q 15.578125 12.25 17.453125 9.859375 
Q 19.34375 7.46875 21.90625 6.484375 
Q 24.46875 5.515625 27.484375 5.515625 
Q 30.859375 5.515625 33.59375 6.46875 
Q 36.328125 7.421875 38.234375 9.8125 
Q 40.140625 12.203125 41.15625 16.25 
Q 42.1875 20.3125 42.1875 26.46875 
" id="LiberationSans-6f"/>
      <path d="M 40.09375 8.5 
Q 37.640625 3.421875 33.609375 1.21875 
Q 29.59375 -0.984375 23.640625 -0.984375 
Q 13.625 -0.984375 8.90625 5.75 
Q 4.203125 12.5 4.203125 26.171875 
Q 4.203125 53.8125 23.640625 53.8125 
Q 29.640625 53.8125 33.640625 51.609375 
Q 37.640625 49.421875 40.09375 44.625 
L 40.1875 44.625 
Q 40.1875 45.125 40.15625 46.171875 
Q 40.140625 47.21875 40.109375 48.359375 
Q 40.09375 49.515625 40.09375 50.53125 
Q 40.09375 51.5625 40.09375 52 
L 40.09375 72.46875 
L 48.875 72.46875 
L 48.875 10.890625 
Q 48.875 8.984375 48.890625 7.21875 
Q 48.921875 5.46875 48.96875 4 
Q 49.03125 2.546875 49.078125 1.484375 
Q 49.125 0.4375 49.171875 0 
L 40.765625 0 
Q 40.671875 0.484375 40.59375 1.390625 
Q 40.53125 2.296875 40.453125 3.46875 
Q 40.375 4.640625 40.328125 5.9375 
Q 40.28125 7.234375 40.28125 8.5 
z
M 13.421875 26.46875 
Q 13.421875 21 14.109375 17.09375 
Q 14.796875 13.1875 16.3125 10.671875 
Q 17.828125 8.15625 20.171875 6.984375 
Q 22.515625 5.8125 25.875 5.8125 
Q 29.34375 5.8125 32 6.9375 
Q 34.671875 8.0625 36.453125 10.578125 
Q 38.234375 13.09375 39.15625 17.140625 
Q 40.09375 21.1875 40.09375 27.046875 
Q 40.09375 32.671875 39.15625 36.546875 
Q 38.234375 40.4375 36.421875 42.828125 
Q 34.625 45.21875 32 46.265625 
Q 29.390625 47.3125 25.984375 47.3125 
Q 22.75 47.3125 20.40625 46.1875 
Q 18.0625 45.0625 16.5 42.578125 
Q 14.9375 40.09375 14.171875 36.109375 
Q 13.421875 32.125 13.421875 26.46875 
" id="LiberationSans-64"/>
     </defs>
     <g style="fill:#262626;" transform="translate(732.917188 85.366875)scale(0.1 -0.1)">
      <use xlink:href="#LiberationSans-63"/>
      <use x="50" xlink:href="#LiberationSans-6f"/>
      <use x="105.615234" xlink:href="#LiberationSans-6e"/>
      <use x="161.230469" xlink:href="#LiberationSans-64"/>
     </g>
    </g>
    <g id="line2d_126"/>
    <g id="line2d_127">
     <g>
      <use style="fill:#0072b2;" x="728.917188" xlink:href="#mdc808dc652" y="96.18875"/>
     </g>
    </g>
    <g id="text_16">
     <!-- day -->
     <g style="fill:#262626;" transform="translate(746.917188 99.68875)scale(0.1 -0.1)">
      <use xlink:href="#LiberationSans-64"/>
      <use x="55.615234" xlink:href="#LiberationSans-61"/>
      <use x="111.230469" xlink:href="#LiberationSans-79"/>
     </g>
    </g>
    <g id="line2d_128"/>
    <g id="line2d_129">
     <g>
      <use style="fill:#009e73;" x="728.917188" xlink:href="#m39a1883520" y="110.510625"/>
     </g>
    </g>
    <g id="text_17">
     <!-- night -->
     <defs>
      <path d="M 6.6875 64.0625 
L 6.6875 72.46875 
L 15.484375 72.46875 
L 15.484375 64.0625 
z
M 6.6875 0 
L 6.6875 52.828125 
L 15.484375 52.828125 
L 15.484375 0 
z
" id="LiberationSans-69"/>
     </defs>
     <g style="fill:#262626;" transform="translate(746.917188 114.010625)scale(0.1 -0.1)">
      <use xlink:href="#LiberationSans-6e"/>
      <use x="55.615234" xlink:href="#LiberationSans-69"/>
      <use x="77.832031" xlink:href="#LiberationSans-67"/>
      <use x="133.447266" xlink:href="#LiberationSans-68"/>
      <use x="189.0625" xlink:href="#LiberationSans-74"/>
     </g>
    </g>
   </g>
  </g>
 </g>
 <defs>
  <clipPath id="pec4bc08247">
   <rect height="434.88" width="669.6" x="108" y="69.12"/>
  </clipPath>
 </defs>
</svg>
