<?xml version="1.0" encoding="utf-8" standalone="no"?>
<!DOCTYPE svg PUBLIC "-//W3C//DTD SVG 1.1//EN"
  "http://www.w3.org/Graphics/SVG/1.1/DTD/svg11.dtd">
<!-- Created with matplotlib (http://matplotlib.org/) -->
<svg height="360pt" version="1.1" viewBox="0 0 1152 360" width="1152pt" xmlns="http://www.w3.org/2000/svg" xmlns:xlink="http://www.w3.org/1999/xlink">
 <defs>
  <style type="text/css">
*{stroke-linecap:butt;stroke-linejoin:round;}
  </style>
 </defs>
 <g id="figure_1">
  <g id="patch_1">
   <path d="M 0 360 
L 1152 360 
L 1152 0 
L 0 0 
z
" style="fill:#ffffff;"/>
  </g>
  <g id="axes_1">
   <g id="patch_2">
    <path d="M 144 320.4 
L 1036.8 320.4 
L 1036.8 43.2 
L 144 43.2 
z
" style="fill:#eaeaf2;"/>
   </g>
   <g id="matplotlib.axis_1">
    <g id="xtick_1">
     <g id="line2d_1">
      <path clip-path="url(#p05b6b7a523)" d="M 184.581818 320.4 
L 184.581818 43.2 
" style="fill:none;stroke:#ffffff;stroke-linecap:round;stroke-width:0.8;"/>
     </g>
     <g id="line2d_2"/>
     <g id="text_1">
      <!-- 0.000 -->
      <defs>
       <path d="M 51.703125 34.421875 
Q 51.703125 24.515625 49.828125 17.75 
Q 47.953125 10.984375 44.703125 6.8125 
Q 41.453125 2.640625 37.0625 0.828125 
Q 32.671875 -0.984375 27.6875 -0.984375 
Q 22.65625 -0.984375 18.3125 0.828125 
Q 13.96875 2.640625 10.765625 6.78125 
Q 7.5625 10.9375 5.734375 17.703125 
Q 3.90625 24.46875 3.90625 34.421875 
Q 3.90625 44.828125 5.734375 51.640625 
Q 7.5625 58.453125 10.78125 62.5 
Q 14.015625 66.546875 18.40625 68.1875 
Q 22.796875 69.828125 27.984375 69.828125 
Q 32.90625 69.828125 37.21875 68.1875 
Q 41.546875 66.546875 44.765625 62.5 
Q 48 58.453125 49.84375 51.640625 
Q 51.703125 44.828125 51.703125 34.421875 
M 42.78125 34.421875 
Q 42.78125 42.625 41.796875 48.0625 
Q 40.828125 53.515625 38.921875 56.765625 
Q 37.015625 60.015625 34.25 61.359375 
Q 31.5 62.703125 27.984375 62.703125 
Q 24.265625 62.703125 21.4375 61.328125 
Q 18.609375 59.96875 16.671875 56.71875 
Q 14.75 53.46875 13.765625 48.015625 
Q 12.796875 42.578125 12.796875 34.421875 
Q 12.796875 26.515625 13.796875 21.09375 
Q 14.796875 15.671875 16.71875 12.375 
Q 18.65625 9.078125 21.4375 7.640625 
Q 24.21875 6.203125 27.78125 6.203125 
Q 31.25 6.203125 34.03125 7.640625 
Q 36.8125 9.078125 38.734375 12.375 
Q 40.671875 15.671875 41.71875 21.09375 
Q 42.78125 26.515625 42.78125 34.421875 
" id="LiberationSans-30"/>
       <path d="M 9.125 0 
L 9.125 10.6875 
L 18.65625 10.6875 
L 18.65625 0 
z
" id="LiberationSans-2e"/>
      </defs>
      <g style="fill:#262626;" transform="translate(174.573068 331.7975)scale(0.08 -0.08)">
       <use xlink:href="#LiberationSans-30"/>
       <use x="55.615234" xlink:href="#LiberationSans-2e"/>
       <use x="83.398438" xlink:href="#LiberationSans-30"/>
       <use x="139.013672" xlink:href="#LiberationSans-30"/>
       <use x="194.628906" xlink:href="#LiberationSans-30"/>
      </g>
     </g>
    </g>
    <g id="xtick_2">
     <g id="line2d_3">
      <path clip-path="url(#p05b6b7a523)" d="M 311.238448 320.4 
L 311.238448 43.2 
" style="fill:none;stroke:#ffffff;stroke-linecap:round;stroke-width:0.8;"/>
     </g>
     <g id="line2d_4"/>
     <g id="text_2">
      <!-- 0.005 -->
      <defs>
       <path d="M 51.421875 22.40625 
Q 51.421875 17.234375 49.859375 12.9375 
Q 48.296875 8.640625 45.21875 5.53125 
Q 42.140625 2.4375 37.578125 0.71875 
Q 33.015625 -0.984375 27 -0.984375 
Q 21.578125 -0.984375 17.546875 0.28125 
Q 13.53125 1.5625 10.734375 3.78125 
Q 7.953125 6 6.3125 8.984375 
Q 4.6875 11.96875 4 15.375 
L 12.890625 16.40625 
Q 13.421875 14.453125 14.390625 12.625 
Q 15.375 10.796875 17.0625 9.34375 
Q 18.75 7.90625 21.21875 7.046875 
Q 23.6875 6.203125 27.203125 6.203125 
Q 30.609375 6.203125 33.390625 7.25 
Q 36.1875 8.296875 38.15625 10.34375 
Q 40.140625 12.40625 41.203125 15.375 
Q 42.28125 18.359375 42.28125 22.21875 
Q 42.28125 25.390625 41.25 28.046875 
Q 40.234375 30.71875 38.328125 32.640625 
Q 36.421875 34.578125 33.65625 35.640625 
Q 30.90625 36.71875 27.390625 36.71875 
Q 25.203125 36.71875 23.34375 36.328125 
Q 21.484375 35.9375 19.890625 35.25 
Q 18.3125 34.578125 17.015625 33.671875 
Q 15.71875 32.765625 14.59375 31.78125 
L 6 31.78125 
L 8.296875 68.796875 
L 47.40625 68.796875 
L 47.40625 61.328125 
L 16.3125 61.328125 
L 14.984375 39.5 
Q 17.328125 41.3125 20.84375 42.59375 
Q 24.359375 43.890625 29.203125 43.890625 
Q 34.328125 43.890625 38.421875 42.328125 
Q 42.53125 40.765625 45.40625 37.90625 
Q 48.296875 35.0625 49.859375 31.109375 
Q 51.421875 27.15625 51.421875 22.40625 
" id="LiberationSans-35"/>
      </defs>
      <g style="fill:#262626;" transform="translate(301.229698 331.7975)scale(0.08 -0.08)">
       <use xlink:href="#LiberationSans-30"/>
       <use x="55.615234" xlink:href="#LiberationSans-2e"/>
       <use x="83.398438" xlink:href="#LiberationSans-30"/>
       <use x="139.013672" xlink:href="#LiberationSans-30"/>
       <use x="194.628906" xlink:href="#LiberationSans-35"/>
      </g>
     </g>
    </g>
    <g id="xtick_3">
     <g id="line2d_5">
      <path clip-path="url(#p05b6b7a523)" d="M 437.895078 320.4 
L 437.895078 43.2 
" style="fill:none;stroke:#ffffff;stroke-linecap:round;stroke-width:0.8;"/>
     </g>
     <g id="line2d_6"/>
     <g id="text_3">
      <!-- 0.010 -->
      <defs>
       <path d="M 7.625 0 
L 7.625 7.46875 
L 25.140625 7.46875 
L 25.140625 60.40625 
L 9.625 49.3125 
L 9.625 57.625 
L 25.875 68.796875 
L 33.984375 68.796875 
L 33.984375 7.46875 
L 50.734375 7.46875 
L 50.734375 0 
z
" id="LiberationSans-31"/>
      </defs>
      <g style="fill:#262626;" transform="translate(427.886328 331.7975)scale(0.08 -0.08)">
       <use xlink:href="#LiberationSans-30"/>
       <use x="55.615234" xlink:href="#LiberationSans-2e"/>
       <use x="83.398438" xlink:href="#LiberationSans-30"/>
       <use x="139.013672" xlink:href="#LiberationSans-31"/>
       <use x="194.628906" xlink:href="#LiberationSans-30"/>
      </g>
     </g>
    </g>
    <g id="xtick_4">
     <g id="line2d_7">
      <path clip-path="url(#p05b6b7a523)" d="M 564.551708 320.4 
L 564.551708 43.2 
" style="fill:none;stroke:#ffffff;stroke-linecap:round;stroke-width:0.8;"/>
     </g>
     <g id="line2d_8"/>
     <g id="text_4">
      <!-- 0.015 -->
      <g style="fill:#262626;" transform="translate(554.542958 331.7975)scale(0.08 -0.08)">
       <use xlink:href="#LiberationSans-30"/>
       <use x="55.615234" xlink:href="#LiberationSans-2e"/>
       <use x="83.398438" xlink:href="#LiberationSans-30"/>
       <use x="139.013672" xlink:href="#LiberationSans-31"/>
       <use x="194.628906" xlink:href="#LiberationSans-35"/>
      </g>
     </g>
    </g>
    <g id="xtick_5">
     <g id="line2d_9">
      <path clip-path="url(#p05b6b7a523)" d="M 691.208338 320.4 
L 691.208338 43.2 
" style="fill:none;stroke:#ffffff;stroke-linecap:round;stroke-width:0.8;"/>
     </g>
     <g id="line2d_10"/>
     <g id="text_5">
      <!-- 0.020 -->
      <defs>
       <path d="M 5.03125 0 
L 5.03125 6.203125 
Q 7.515625 11.921875 11.109375 16.28125 
Q 14.703125 20.65625 18.65625 24.1875 
Q 22.609375 27.734375 26.484375 30.765625 
Q 30.375 33.796875 33.5 36.8125 
Q 36.625 39.84375 38.546875 43.15625 
Q 40.484375 46.484375 40.484375 50.6875 
Q 40.484375 53.609375 39.59375 55.828125 
Q 38.71875 58.0625 37.0625 59.5625 
Q 35.40625 61.078125 33.078125 61.828125 
Q 30.765625 62.59375 27.9375 62.59375 
Q 25.296875 62.59375 22.96875 61.859375 
Q 20.65625 61.140625 18.84375 59.671875 
Q 17.046875 58.203125 15.890625 56.03125 
Q 14.75 53.859375 14.40625 50.984375 
L 5.421875 51.8125 
Q 5.859375 55.515625 7.46875 58.78125 
Q 9.078125 62.0625 11.90625 64.53125 
Q 14.75 67 18.71875 68.40625 
Q 22.703125 69.828125 27.9375 69.828125 
Q 33.0625 69.828125 37.0625 68.609375 
Q 41.0625 67.390625 43.8125 64.984375 
Q 46.578125 62.59375 48.046875 59.078125 
Q 49.515625 55.5625 49.515625 50.984375 
Q 49.515625 47.515625 48.265625 44.390625 
Q 47.015625 41.265625 44.9375 38.421875 
Q 42.875 35.59375 40.140625 32.953125 
Q 37.40625 30.328125 34.421875 27.8125 
Q 31.453125 25.296875 28.421875 22.828125 
Q 25.390625 20.359375 22.71875 17.859375 
Q 20.0625 15.375 17.96875 12.8125 
Q 15.875 10.25 14.703125 7.46875 
L 50.59375 7.46875 
L 50.59375 0 
z
" id="LiberationSans-32"/>
      </defs>
      <g style="fill:#262626;" transform="translate(681.199588 331.7975)scale(0.08 -0.08)">
       <use xlink:href="#LiberationSans-30"/>
       <use x="55.615234" xlink:href="#LiberationSans-2e"/>
       <use x="83.398438" xlink:href="#LiberationSans-30"/>
       <use x="139.013672" xlink:href="#LiberationSans-32"/>
       <use x="194.628906" xlink:href="#LiberationSans-30"/>
      </g>
     </g>
    </g>
    <g id="xtick_6">
     <g id="line2d_11">
      <path clip-path="url(#p05b6b7a523)" d="M 817.864968 320.4 
L 817.864968 43.2 
" style="fill:none;stroke:#ffffff;stroke-linecap:round;stroke-width:0.8;"/>
     </g>
     <g id="line2d_12"/>
     <g id="text_6">
      <!-- 0.025 -->
      <g style="fill:#262626;" transform="translate(807.856218 331.7975)scale(0.08 -0.08)">
       <use xlink:href="#LiberationSans-30"/>
       <use x="55.615234" xlink:href="#LiberationSans-2e"/>
       <use x="83.398438" xlink:href="#LiberationSans-30"/>
       <use x="139.013672" xlink:href="#LiberationSans-32"/>
       <use x="194.628906" xlink:href="#LiberationSans-35"/>
      </g>
     </g>
    </g>
    <g id="xtick_7">
     <g id="line2d_13">
      <path clip-path="url(#p05b6b7a523)" d="M 944.521598 320.4 
L 944.521598 43.2 
" style="fill:none;stroke:#ffffff;stroke-linecap:round;stroke-width:0.8;"/>
     </g>
     <g id="line2d_14"/>
     <g id="text_7">
      <!-- 0.030 -->
      <defs>
       <path d="M 51.21875 19 
Q 51.21875 14.265625 49.671875 10.546875 
Q 48.140625 6.84375 45.1875 4.265625 
Q 42.234375 1.703125 37.859375 0.359375 
Q 33.5 -0.984375 27.875 -0.984375 
Q 21.484375 -0.984375 17.109375 0.609375 
Q 12.75 2.203125 9.90625 4.8125 
Q 7.078125 7.421875 5.65625 10.765625 
Q 4.25 14.109375 3.8125 17.671875 
L 12.890625 18.5 
Q 13.28125 15.765625 14.328125 13.515625 
Q 15.375 11.28125 17.1875 9.671875 
Q 19 8.0625 21.625 7.171875 
Q 24.265625 6.296875 27.875 6.296875 
Q 34.515625 6.296875 38.296875 9.5625 
Q 42.09375 12.84375 42.09375 19.28125 
Q 42.09375 23.09375 40.40625 25.40625 
Q 38.71875 27.734375 36.203125 29.03125 
Q 33.6875 30.328125 30.734375 30.765625 
Q 27.78125 31.203125 25.296875 31.203125 
L 20.3125 31.203125 
L 20.3125 38.8125 
L 25.09375 38.8125 
Q 27.59375 38.8125 30.265625 39.328125 
Q 32.953125 39.84375 35.171875 41.1875 
Q 37.40625 42.53125 38.84375 44.828125 
Q 40.28125 47.125 40.28125 50.6875 
Q 40.28125 56.203125 37.03125 59.390625 
Q 33.796875 62.59375 27.390625 62.59375 
Q 21.578125 62.59375 17.984375 59.609375 
Q 14.40625 56.640625 13.8125 51.21875 
L 4.984375 51.90625 
Q 5.515625 56.453125 7.46875 59.8125 
Q 9.421875 63.1875 12.421875 65.40625 
Q 15.4375 67.625 19.28125 68.71875 
Q 23.140625 69.828125 27.484375 69.828125 
Q 33.25 69.828125 37.390625 68.375 
Q 41.546875 66.9375 44.1875 64.46875 
Q 46.828125 62.015625 48.0625 58.6875 
Q 49.3125 55.375 49.3125 51.609375 
Q 49.3125 48.578125 48.484375 45.9375 
Q 47.65625 43.3125 45.890625 41.203125 
Q 44.140625 39.109375 41.421875 37.59375 
Q 38.71875 36.078125 34.90625 35.296875 
L 34.90625 35.109375 
Q 39.0625 34.671875 42.140625 33.21875 
Q 45.21875 31.78125 47.21875 29.625 
Q 49.21875 27.484375 50.21875 24.75 
Q 51.21875 22.015625 51.21875 19 
" id="LiberationSans-33"/>
      </defs>
      <g style="fill:#262626;" transform="translate(934.512848 331.7975)scale(0.08 -0.08)">
       <use xlink:href="#LiberationSans-30"/>
       <use x="55.615234" xlink:href="#LiberationSans-2e"/>
       <use x="83.398438" xlink:href="#LiberationSans-30"/>
       <use x="139.013672" xlink:href="#LiberationSans-33"/>
       <use x="194.628906" xlink:href="#LiberationSans-30"/>
      </g>
     </g>
    </g>
   </g>
   <g id="matplotlib.axis_2">
    <g id="ytick_1">
     <g id="line2d_15">
      <path clip-path="url(#p05b6b7a523)" d="M 144 315.780884 
L 1036.8 315.780884 
" style="fill:none;stroke:#ffffff;stroke-linecap:round;stroke-width:0.8;"/>
     </g>
     <g id="line2d_16"/>
     <g id="text_8">
      <!-- −8 -->
      <defs>
       <path d="M 4.9375 29.6875 
L 4.9375 36.8125 
L 53.515625 36.8125 
L 53.515625 29.6875 
z
" id="LiberationSans-2212"/>
       <path d="M 51.265625 19.1875 
Q 51.265625 14.796875 49.875 11.109375 
Q 48.484375 7.421875 45.625 4.734375 
Q 42.78125 2.046875 38.328125 0.53125 
Q 33.890625 -0.984375 27.828125 -0.984375 
Q 21.78125 -0.984375 17.359375 0.53125 
Q 12.9375 2.046875 10.03125 4.703125 
Q 7.125 7.375 5.734375 11.0625 
Q 4.34375 14.75 4.34375 19.09375 
Q 4.34375 22.859375 5.484375 25.78125 
Q 6.640625 28.71875 8.5625 30.828125 
Q 10.5 32.953125 12.96875 34.25 
Q 15.4375 35.546875 18.0625 35.984375 
L 18.0625 36.1875 
Q 15.1875 36.859375 12.90625 38.375 
Q 10.640625 39.890625 9.09375 42.015625 
Q 7.5625 44.140625 6.75 46.71875 
Q 5.953125 49.3125 5.953125 52.203125 
Q 5.953125 55.8125 7.34375 59 
Q 8.734375 62.203125 11.46875 64.625 
Q 14.203125 67.046875 18.25 68.4375 
Q 22.3125 69.828125 27.640625 69.828125 
Q 33.25 69.828125 37.375 68.40625 
Q 41.5 67 44.203125 64.578125 
Q 46.921875 62.15625 48.234375 58.9375 
Q 49.5625 55.71875 49.5625 52.09375 
Q 49.5625 49.265625 48.75 46.671875 
Q 47.953125 44.09375 46.40625 41.96875 
Q 44.875 39.84375 42.59375 38.34375 
Q 40.328125 36.859375 37.359375 36.28125 
L 37.359375 36.078125 
Q 40.328125 35.59375 42.859375 34.296875 
Q 45.40625 33.015625 47.265625 30.890625 
Q 49.125 28.765625 50.1875 25.828125 
Q 51.265625 22.90625 51.265625 19.1875 
M 40.4375 51.609375 
Q 40.4375 54.203125 39.765625 56.34375 
Q 39.109375 58.5 37.59375 60.03125 
Q 36.078125 61.578125 33.640625 62.421875 
Q 31.203125 63.28125 27.640625 63.28125 
Q 24.171875 63.28125 21.78125 62.421875 
Q 19.390625 61.578125 17.84375 60.03125 
Q 16.3125 58.5 15.625 56.34375 
Q 14.9375 54.203125 14.9375 51.609375 
Q 14.9375 49.5625 15.46875 47.40625 
Q 16.015625 45.265625 17.421875 43.5 
Q 18.84375 41.75 21.328125 40.625 
Q 23.828125 39.5 27.734375 39.5 
Q 31.890625 39.5 34.40625 40.625 
Q 36.921875 41.75 38.25 43.5 
Q 39.59375 45.265625 40.015625 47.40625 
Q 40.4375 49.5625 40.4375 51.609375 
M 42.140625 20.015625 
Q 42.140625 22.515625 41.453125 24.828125 
Q 40.765625 27.15625 39.109375 28.9375 
Q 37.453125 30.71875 34.640625 31.8125 
Q 31.84375 32.90625 27.640625 32.90625 
Q 23.78125 32.90625 21.0625 31.8125 
Q 18.359375 30.71875 16.671875 28.90625 
Q 14.984375 27.09375 14.203125 24.71875 
Q 13.421875 22.359375 13.421875 19.828125 
Q 13.421875 16.65625 14.203125 14.03125 
Q 14.984375 11.421875 16.6875 9.546875 
Q 18.40625 7.671875 21.1875 6.640625 
Q 23.96875 5.609375 27.9375 5.609375 
Q 31.9375 5.609375 34.671875 6.640625 
Q 37.40625 7.671875 39.0625 9.546875 
Q 40.71875 11.421875 41.421875 14.078125 
Q 42.140625 16.75 42.140625 20.015625 
" id="LiberationSans-38"/>
      </defs>
      <g style="fill:#262626;" transform="translate(129.27875 318.679634)scale(0.08 -0.08)">
       <use xlink:href="#LiberationSans-2212"/>
       <use x="58.398438" xlink:href="#LiberationSans-38"/>
      </g>
     </g>
    </g>
    <g id="ytick_2">
     <g id="line2d_17">
      <path clip-path="url(#p05b6b7a523)" d="M 144 281.971852 
L 1036.8 281.971852 
" style="fill:none;stroke:#ffffff;stroke-linecap:round;stroke-width:0.8;"/>
     </g>
     <g id="line2d_18"/>
     <g id="text_9">
      <!-- −6 -->
      <defs>
       <path d="M 51.21875 22.515625 
Q 51.21875 17.328125 49.78125 13 
Q 48.34375 8.6875 45.53125 5.578125 
Q 42.71875 2.484375 38.5625 0.75 
Q 34.421875 -0.984375 29 -0.984375 
Q 23 -0.984375 18.5 1.3125 
Q 14.015625 3.609375 11.03125 7.921875 
Q 8.0625 12.25 6.5625 18.53125 
Q 5.078125 24.8125 5.078125 32.8125 
Q 5.078125 42 6.765625 48.921875 
Q 8.453125 55.859375 11.625 60.5 
Q 14.796875 65.140625 19.359375 67.484375 
Q 23.921875 69.828125 29.6875 69.828125 
Q 33.203125 69.828125 36.28125 69.09375 
Q 39.359375 68.359375 41.875 66.71875 
Q 44.390625 65.09375 46.28125 62.40625 
Q 48.1875 59.71875 49.3125 55.8125 
L 40.921875 54.296875 
Q 39.546875 58.734375 36.546875 60.71875 
Q 33.546875 62.703125 29.59375 62.703125 
Q 25.984375 62.703125 23.046875 60.984375 
Q 20.125 59.28125 18.0625 55.875 
Q 16.015625 52.484375 14.90625 47.359375 
Q 13.8125 42.234375 13.8125 35.40625 
Q 16.21875 39.84375 20.5625 42.15625 
Q 24.90625 44.484375 30.515625 44.484375 
Q 35.203125 44.484375 39.015625 42.96875 
Q 42.828125 41.453125 45.53125 38.59375 
Q 48.25 35.75 49.734375 31.671875 
Q 51.21875 27.59375 51.21875 22.515625 
M 42.28125 22.125 
Q 42.28125 25.6875 41.40625 28.5625 
Q 40.53125 31.453125 38.765625 33.46875 
Q 37.015625 35.5 34.421875 36.59375 
Q 31.84375 37.703125 28.421875 37.703125 
Q 26.03125 37.703125 23.578125 36.984375 
Q 21.140625 36.28125 19.15625 34.6875 
Q 17.1875 33.109375 15.9375 30.515625 
Q 14.703125 27.9375 14.703125 24.21875 
Q 14.703125 20.40625 15.671875 17.109375 
Q 16.65625 13.8125 18.484375 11.375 
Q 20.3125 8.9375 22.890625 7.515625 
Q 25.484375 6.109375 28.71875 6.109375 
Q 31.890625 6.109375 34.40625 7.203125 
Q 36.921875 8.296875 38.671875 10.375 
Q 40.4375 12.453125 41.359375 15.421875 
Q 42.28125 18.40625 42.28125 22.125 
" id="LiberationSans-36"/>
      </defs>
      <g style="fill:#262626;" transform="translate(129.27875 284.870602)scale(0.08 -0.08)">
       <use xlink:href="#LiberationSans-2212"/>
       <use x="58.398438" xlink:href="#LiberationSans-36"/>
      </g>
     </g>
    </g>
    <g id="ytick_3">
     <g id="line2d_19">
      <path clip-path="url(#p05b6b7a523)" d="M 144 248.162819 
L 1036.8 248.162819 
" style="fill:none;stroke:#ffffff;stroke-linecap:round;stroke-width:0.8;"/>
     </g>
     <g id="line2d_20"/>
     <g id="text_10">
      <!-- −4 -->
      <defs>
       <path d="M 43.015625 15.578125 
L 43.015625 0 
L 34.71875 0 
L 34.71875 15.578125 
L 2.296875 15.578125 
L 2.296875 22.40625 
L 33.796875 68.796875 
L 43.015625 68.796875 
L 43.015625 22.515625 
L 52.6875 22.515625 
L 52.6875 15.578125 
z
M 34.71875 58.890625 
Q 34.625 58.640625 34.234375 57.9375 
Q 33.84375 57.234375 33.34375 56.34375 
Q 32.859375 55.46875 32.34375 54.5625 
Q 31.84375 53.65625 31.453125 53.078125 
L 13.8125 27.09375 
Q 13.578125 26.703125 13.109375 26.0625 
Q 12.640625 25.4375 12.15625 24.78125 
Q 11.671875 24.125 11.171875 23.484375 
Q 10.6875 22.859375 10.40625 22.515625 
L 34.71875 22.515625 
z
" id="LiberationSans-34"/>
      </defs>
      <g style="fill:#262626;" transform="translate(129.27875 251.061569)scale(0.08 -0.08)">
       <use xlink:href="#LiberationSans-2212"/>
       <use x="58.398438" xlink:href="#LiberationSans-34"/>
      </g>
     </g>
    </g>
    <g id="ytick_4">
     <g id="line2d_21">
      <path clip-path="url(#p05b6b7a523)" d="M 144 214.353787 
L 1036.8 214.353787 
" style="fill:none;stroke:#ffffff;stroke-linecap:round;stroke-width:0.8;"/>
     </g>
     <g id="line2d_22"/>
     <g id="text_11">
      <!-- −2 -->
      <g style="fill:#262626;" transform="translate(129.27875 217.252537)scale(0.08 -0.08)">
       <use xlink:href="#LiberationSans-2212"/>
       <use x="58.398438" xlink:href="#LiberationSans-32"/>
      </g>
     </g>
    </g>
    <g id="ytick_5">
     <g id="line2d_23">
      <path clip-path="url(#p05b6b7a523)" d="M 144 180.544755 
L 1036.8 180.544755 
" style="fill:none;stroke:#ffffff;stroke-linecap:round;stroke-width:0.8;"/>
     </g>
     <g id="line2d_24"/>
     <g id="text_12">
      <!-- 0 -->
      <g style="fill:#262626;" transform="translate(133.95125 183.443505)scale(0.08 -0.08)">
       <use xlink:href="#LiberationSans-30"/>
      </g>
     </g>
    </g>
    <g id="ytick_6">
     <g id="line2d_25">
      <path clip-path="url(#p05b6b7a523)" d="M 144 146.735722 
L 1036.8 146.735722 
" style="fill:none;stroke:#ffffff;stroke-linecap:round;stroke-width:0.8;"/>
     </g>
     <g id="line2d_26"/>
     <g id="text_13">
      <!-- 2 -->
      <g style="fill:#262626;" transform="translate(133.95125 149.634472)scale(0.08 -0.08)">
       <use xlink:href="#LiberationSans-32"/>
      </g>
     </g>
    </g>
    <g id="ytick_7">
     <g id="line2d_27">
      <path clip-path="url(#p05b6b7a523)" d="M 144 112.92669 
L 1036.8 112.92669 
" style="fill:none;stroke:#ffffff;stroke-linecap:round;stroke-width:0.8;"/>
     </g>
     <g id="line2d_28"/>
     <g id="text_14">
      <!-- 4 -->
      <g style="fill:#262626;" transform="translate(133.95125 115.82544)scale(0.08 -0.08)">
       <use xlink:href="#LiberationSans-34"/>
      </g>
     </g>
    </g>
    <g id="ytick_8">
     <g id="line2d_29">
      <path clip-path="url(#p05b6b7a523)" d="M 144 79.117658 
L 1036.8 79.117658 
" style="fill:none;stroke:#ffffff;stroke-linecap:round;stroke-width:0.8;"/>
     </g>
     <g id="line2d_30"/>
     <g id="text_15">
      <!-- 6 -->
      <g style="fill:#262626;" transform="translate(133.95125 82.016408)scale(0.08 -0.08)">
       <use xlink:href="#LiberationSans-36"/>
      </g>
     </g>
    </g>
    <g id="ytick_9">
     <g id="line2d_31">
      <path clip-path="url(#p05b6b7a523)" d="M 144 45.308625 
L 1036.8 45.308625 
" style="fill:none;stroke:#ffffff;stroke-linecap:round;stroke-width:0.8;"/>
     </g>
     <g id="line2d_32"/>
     <g id="text_16">
      <!-- 8 -->
      <g style="fill:#262626;" transform="translate(133.95125 48.207375)scale(0.08 -0.08)">
       <use xlink:href="#LiberationSans-38"/>
      </g>
     </g>
    </g>
   </g>
   <g id="line2d_33">
    <path clip-path="url(#p05b6b7a523)" d="M 184.581818 307.8 
L 185.156225 293.114597 
L 185.730631 272.550944 
L 188.028257 173.66662 
L 188.602664 158.286737 
L 189.17707 150.375072 
L 189.751477 149.879522 
L 190.325883 155.487573 
L 192.049102 183.279923 
L 192.623509 186.915501 
L 193.197915 184.548169 
L 193.772322 175.937995 
L 194.346728 162.12345 
L 196.069948 113.517786 
L 196.644354 104.211138 
L 197.218761 101.779317 
L 197.793167 106.681447 
L 198.367574 118.082263 
L 200.6652 180.454513 
L 201.239606 186.854818 
L 201.814013 186.476859 
L 202.388419 179.811873 
L 203.537232 155.232654 
L 204.111639 142.817483 
L 204.686045 134.070849 
L 205.260452 131.067891 
L 205.834858 134.792864 
L 206.409265 144.948741 
L 207.558078 177.486204 
L 208.132484 194.413661 
L 208.706891 207.873452 
L 209.281297 215.548893 
L 209.855704 216.151716 
L 210.43011 209.659926 
L 211.004517 197.319586 
L 212.727736 150.493864 
L 213.302142 140.906263 
L 213.876549 137.576387 
L 214.450955 140.797512 
L 215.025362 149.581815 
L 216.748581 185.514749 
L 217.322988 191.375103 
L 217.897394 190.680103 
L 218.471801 182.909084 
L 219.046207 168.836615 
L 221.343833 97.082833 
L 221.91824 88.693362 
L 222.492646 87.303029 
L 223.067053 92.471095 
L 223.641459 102.55263 
L 224.790272 126.902396 
L 225.364679 135.422488 
L 225.939085 138.444805 
L 226.513492 134.918338 
L 227.087898 125.069255 
L 228.236711 93.231104 
L 228.811118 76.624533 
L 229.385524 63.459233 
L 229.959931 56.075289 
L 230.534337 55.8 
L 231.108743 62.700191 
L 231.68315 75.569517 
L 233.406369 124.838567 
L 233.980776 135.45268 
L 234.555182 139.825693 
L 235.129589 137.594152 
L 235.703995 129.679312 
L 237.427215 95.223823 
L 238.001621 89.464065 
L 238.576028 90.114892 
L 239.150434 97.749578 
L 239.724841 111.646696 
L 242.022467 182.863717 
L 242.596873 191.108302 
L 243.17128 192.263336 
L 243.745686 186.715153 
L 244.320093 176.064459 
L 245.468906 149.934543 
L 246.043312 140.229769 
L 246.617719 135.883962 
L 247.192125 138.011942 
L 247.766532 146.455984 
L 248.915345 175.696105 
L 249.489751 191.178248 
L 250.064157 203.340662 
L 250.638564 209.817945 
L 251.21297 209.241325 
L 251.787377 201.496063 
L 252.361783 187.745054 
L 254.085003 135.433464 
L 254.659409 123.729849 
L 255.233816 118.311086 
L 255.808222 119.606414 
L 256.382629 126.757116 
L 258.105848 160.326372 
L 258.680255 166.262361 
L 259.254661 165.965863 
L 259.829068 158.806445 
L 260.403474 145.447362 
L 262.7011 76.344509 
L 263.275507 68.643468 
L 263.849913 68.114547 
L 264.42432 74.422172 
L 264.998726 86.006932 
L 266.147539 114.594771 
L 266.721946 125.793649 
L 267.296352 131.750675 
L 267.870759 131.285627 
L 268.445165 124.486057 
L 269.019572 112.691036 
L 270.168384 84.035999 
L 270.742791 72.99805 
L 271.317197 67.516457 
L 271.891604 69.001454 
L 272.46601 77.61651 
L 273.040417 92.243836 
L 274.763636 147.427756 
L 275.338043 160.123439 
L 275.912449 166.475643 
L 276.486856 165.992336 
L 277.061262 159.472364 
L 278.784482 126.357008 
L 279.358888 120.097538 
L 279.933295 119.89519 
L 280.507701 126.440732 
L 281.082108 139.132707 
L 283.379734 205.782378 
L 283.95414 212.919371 
L 284.528547 212.833875 
L 285.102953 205.812768 
L 285.67736 193.375482 
L 287.400579 150.099345 
L 287.974986 142.757845 
L 288.549392 141.82276 
L 289.123798 147.276756 
L 289.698205 157.844791 
L 290.847018 184.569824 
L 291.421424 194.928089 
L 291.995831 199.894502 
L 292.570237 198.015983 
L 293.144644 189.078174 
L 293.71905 174.150853 
L 295.44227 117.961483 
L 296.016676 104.927984 
L 296.591083 98.30566 
L 297.165489 98.645651 
L 297.739896 105.205725 
L 300.037522 147.101237 
L 300.611928 148.44458 
L 301.186335 143.141212 
L 301.760741 131.727442 
L 304.058367 69.730491 
L 304.632774 63.629308 
L 305.20718 64.764707 
L 305.781587 72.897297 
L 306.355993 86.547214 
L 308.079213 134.171117 
L 308.653619 143.11281 
L 309.228025 145.630554 
L 309.802432 141.672501 
L 310.376838 132.450533 
L 311.525651 107.803029 
L 312.100058 98.154866 
L 312.674464 93.707094 
L 313.248871 95.95782 
L 313.823277 105.175149 
L 314.397684 120.340858 
L 316.120903 177.283452 
L 316.69531 190.563504 
L 317.269716 197.3684 
L 317.844123 197.091666 
L 318.418529 190.422162 
L 319.567342 166.113257 
L 320.141749 154.100071 
L 320.716155 145.885175 
L 321.290562 143.420301 
L 321.864968 147.525238 
L 322.439375 157.73142 
L 324.737001 215.682204 
L 325.311407 220.992295 
L 325.885814 219.09189 
L 326.46022 210.173007 
L 327.034627 195.675232 
L 328.757846 145.018704 
L 329.332252 134.981451 
L 329.906659 131.414965 
L 330.481065 134.438195 
L 331.055472 142.900555 
L 332.778691 176.302722 
L 333.353098 180.901704 
L 333.927504 178.963686 
L 334.501911 170.163482 
L 335.076317 155.463848 
L 336.799537 99.883222 
L 337.373943 87.046751 
L 337.94835 80.734766 
L 338.522756 81.605518 
L 339.097163 89.020619 
L 340.245976 115.408986 
L 340.820382 128.766635 
L 341.394789 138.493655 
L 341.969195 142.584086 
L 342.543602 140.151022 
L 343.118008 131.593656 
L 344.266821 103.462304 
L 344.841228 89.371818 
L 345.415634 79.097245 
L 345.990041 74.834473 
L 346.564447 77.717036 
L 347.138854 87.601264 
L 347.71326 103.089639 
L 349.436479 157.016326 
L 350.010886 168.175427 
L 350.585292 172.795876 
L 351.159699 170.694533 
L 351.734105 162.963301 
L 353.457325 130.299207 
L 354.031731 125.481807 
L 354.606138 127.036854 
L 355.180544 135.350065 
L 355.754951 149.518069 
L 357.47817 203.609603 
L 358.052577 215.997869 
L 358.626983 221.837662 
L 359.20139 220.421941 
L 359.775796 212.340871 
L 360.924609 184.129587 
L 361.499016 169.605844 
L 362.073422 158.578928 
L 362.647829 153.109278 
L 363.222235 154.151275 
L 363.796642 161.375606 
L 364.945455 187.241975 
L 365.519861 200.46274 
L 366.094268 210.042335 
L 366.668674 213.755383 
L 367.24308 210.423414 
L 367.817487 200.139756 
L 368.391893 184.257098 
L 370.115113 128.995567 
L 370.689519 117.395181 
L 371.263926 112.41254 
L 371.838332 114.291514 
L 372.412739 121.99582 
L 374.135958 156.036337 
L 374.710365 161.769304 
L 375.284771 161.285992 
L 375.859178 154.136931 
L 376.433584 141.162515 
L 378.156804 90.415856 
L 378.73121 79.038462 
L 379.305617 74.200293 
L 379.880023 76.655023 
L 380.45443 85.859353 
L 381.603243 116.696225 
L 382.177649 132.732063 
L 382.752056 145.368982 
L 383.326462 152.492936 
L 383.900869 153.082865 
L 384.475275 147.39883 
L 385.049682 136.930124 
L 386.198494 111.871495 
L 386.772901 103.065155 
L 387.347307 99.950375 
L 387.921714 103.752646 
L 388.49612 114.431793 
L 389.070527 130.683451 
L 390.793746 187.118227 
L 391.368153 199.092426 
L 391.942559 204.370102 
L 392.516966 202.650329 
L 393.091372 194.916929 
L 394.814592 159.400279 
L 395.388998 152.748782 
L 395.963405 152.176387 
L 396.537811 158.198963 
L 397.112218 170.042018 
L 398.835437 217.808992 
L 399.409844 228.36638 
L 399.98425 232.432038 
L 400.558657 229.206788 
L 401.133063 219.187359 
L 402.281876 186.457517 
L 402.856283 169.331168 
L 403.430689 155.540173 
L 404.005096 147.250172 
L 404.579502 145.547005 
L 405.153909 150.238153 
L 405.728315 159.893566 
L 406.877128 184.005326 
L 407.451534 192.685631 
L 408.025941 195.869759 
L 408.600347 192.282472 
L 409.174754 181.907435 
L 409.74916 165.996735 
L 411.47238 110.535317 
L 412.046786 98.892873 
L 412.621193 94.013595 
L 413.195599 96.251932 
L 413.770006 104.673604 
L 415.493225 143.511001 
L 416.067632 151.64599 
L 416.642038 153.811437 
L 417.216445 149.42326 
L 417.790851 139.188035 
L 419.514071 95.620266 
L 420.088477 86.213271 
L 420.662884 83.210575 
L 421.23729 87.456822 
L 421.811697 98.502661 
L 422.96051 133.437694 
L 424.109323 166.781966 
L 424.683729 176.287885 
L 425.258135 179.130487 
L 425.832542 175.437355 
L 426.406948 166.581624 
L 427.555761 143.34188 
L 428.130168 134.730738 
L 428.704574 131.410762 
L 429.278981 134.70998 
L 429.853387 144.704801 
L 430.427794 160.199478 
L 432.151013 214.513504 
L 432.72542 225.798128 
L 433.299826 230.275497 
L 433.874233 227.54069 
L 434.448639 218.480785 
L 436.746265 167.210185 
L 437.320672 163.6585 
L 437.895078 166.65261 
L 438.469485 175.554779 
L 440.192704 215.964326 
L 440.767111 224.642534 
L 441.341517 227.041198 
L 441.915924 222.269168 
L 442.49033 210.726559 
L 443.639143 174.737774 
L 444.787956 140.217368 
L 445.362362 130.148658 
L 445.936769 126.833387 
L 446.511175 130.205678 
L 447.085582 138.946429 
L 448.234395 162.695966 
L 448.808801 171.930149 
L 449.383208 176.075551 
L 449.957614 173.748332 
L 450.532021 164.808582 
L 451.106427 150.391891 
L 452.829647 99.09271 
L 453.404053 88.735754 
L 453.97846 85.198313 
L 454.552866 88.933497 
L 455.127273 99.099928 
L 457.424899 156.178428 
L 457.999305 161.404318 
L 458.573712 160.057294 
L 459.148118 152.706472 
L 461.445744 108.034976 
L 462.020151 106.289564 
L 462.594557 111.606347 
L 463.168964 123.637173 
L 464.317776 160.594304 
L 465.466589 196.142451 
L 466.040996 206.687055 
L 466.615402 210.385047 
L 467.189809 207.244134 
L 467.764215 198.532448 
L 469.487435 164.204907 
L 470.061841 159.187207 
L 470.636248 160.511498 
L 471.210654 168.384137 
L 471.785061 181.732923 
L 473.50828 230.214258 
L 474.082687 239.775246 
L 474.657093 242.541475 
L 475.2315 238.012952 
L 475.805906 226.985824 
L 478.103532 165.456136 
L 478.677939 158.981496 
L 479.252345 159.138285 
L 479.826752 165.424678 
L 480.975565 188.739176 
L 481.549971 200.251659 
L 482.124378 207.904399 
L 482.698784 209.614431 
L 483.273191 204.390933 
L 483.847597 192.526735 
L 484.99641 155.945032 
L 486.145223 120.727754 
L 486.719629 110.380602 
L 487.294036 106.963734 
L 487.868442 110.52412 
L 488.442849 119.841684 
L 490.166068 157.300187 
L 490.740475 163.740419 
L 491.314881 163.943396 
L 491.889288 157.634147 
L 492.463694 145.8191 
L 494.186914 101.345817 
L 494.76132 92.901335 
L 495.335727 91.186511 
L 495.910133 96.748005 
L 496.48454 108.835529 
L 498.782166 175.252445 
L 499.356572 183.006644 
L 499.930979 184.044797 
L 500.505385 178.80371 
L 501.079792 168.922937 
L 502.228605 145.772985 
L 502.803011 138.241121 
L 503.377417 136.458988 
L 503.951824 141.471688 
L 504.52623 153.045368 
L 505.675043 189.001772 
L 506.823856 223.666275 
L 507.398263 233.726716 
L 507.972669 236.792831 
L 508.547076 232.766068 
L 509.121482 222.820857 
L 510.844702 182.332686 
L 511.419108 174.562851 
L 511.993515 172.956758 
L 512.567921 177.859151 
L 513.142328 188.33071 
L 514.865547 229.582622 
L 515.439954 237.248174 
L 516.01436 238.28723 
L 516.588767 232.105582 
L 517.163173 219.405956 
L 519.460799 150.192731 
L 520.035206 141.738924 
L 520.609612 140.101806 
L 521.184019 144.9066 
L 521.758425 154.565632 
L 522.907238 178.020649 
L 523.481644 186.067603 
L 524.056051 188.558128 
L 524.630457 184.38968 
L 525.204864 173.733517 
L 526.353677 139.620721 
L 527.50249 106.651074 
L 528.076896 97.409736 
L 528.651303 95.196614 
L 529.225709 100.159448 
L 529.800116 111.167813 
L 531.523335 155.780193 
L 532.097742 165.173485 
L 532.672148 168.441195 
L 533.246555 165.168766 
L 533.820961 156.228222 
L 535.544181 118.544455 
L 536.118587 111.701787 
L 536.692994 111.347997 
L 537.2674 118.126703 
L 537.841807 131.385374 
L 540.139433 202.956495 
L 540.713839 211.96447 
L 541.288246 214.048753 
L 541.862652 209.525467 
L 542.437058 199.933356 
L 543.585871 175.873782 
L 544.160278 167.171898 
L 544.734684 163.843122 
L 545.309091 167.050314 
L 545.883497 176.688022 
L 547.03231 208.817801 
L 548.181123 240.060784 
L 548.75553 248.515633 
L 549.329936 249.943953 
L 549.904343 244.150283 
L 550.478749 232.221686 
L 552.201969 184.136258 
L 552.776375 173.407308 
L 553.350782 168.799103 
L 553.925188 170.794902 
L 554.499595 178.589041 
L 556.222814 214.037703 
L 556.797221 220.557961 
L 557.371627 220.752171 
L 557.946034 213.924662 
L 558.52044 200.674434 
L 560.818066 129.123185 
L 561.392472 120.159736 
L 561.966879 118.220246 
L 562.541285 123.043822 
L 563.115692 133.137758 
L 564.264505 158.890814 
L 564.838911 168.763672 
L 565.413318 173.425061 
L 565.987724 171.649554 
L 566.562131 163.474282 
L 567.136537 150.194792 
L 568.28535 118.166736 
L 568.859757 105.267478 
L 569.434163 97.870663 
L 570.00857 97.458287 
L 570.582976 104.27314 
L 571.157383 117.271966 
L 572.880602 169.053182 
L 573.455009 181.123381 
L 574.029415 187.047218 
L 574.603822 186.27489 
L 575.178228 179.547637 
L 576.901448 145.954728 
L 577.475854 139.589684 
L 578.050261 139.371395 
L 578.624667 146.050716 
L 579.199074 159.0859 
L 581.496699 229.783679 
L 582.071106 238.515331 
L 582.645512 240.139391 
L 583.219919 234.864634 
L 583.794325 224.1402 
L 585.517545 185.414427 
L 586.091951 179.396637 
L 586.666358 179.746228 
L 587.240764 186.49594 
L 587.815171 198.414925 
L 589.53839 240.02981 
L 590.112797 246.585407 
L 590.687203 246.237251 
L 591.26161 238.694517 
L 591.836016 224.955112 
L 593.559236 170.659652 
L 594.133642 157.695763 
L 594.708049 150.925254 
L 595.282455 150.961459 
L 595.856862 157.124843 
L 598.154488 197.193109 
L 598.728894 197.980843 
L 599.303301 191.995133 
L 599.877707 179.716701 
L 602.175333 111.915785 
L 602.749739 103.874479 
L 603.324146 102.996228 
L 603.898552 109.121875 
L 604.472959 120.844086 
L 606.196178 163.568032 
L 606.770585 171.172495 
L 607.344991 172.444028 
L 607.919398 167.279563 
L 608.493804 156.844652 
L 610.217024 118.690339 
L 610.79143 112.95055 
L 611.365837 113.997477 
L 611.940243 122.171718 
L 612.51465 136.523225 
L 614.237869 192.789393 
L 614.812276 206.42627 
L 615.386682 213.809609 
L 615.961089 214.266141 
L 616.535495 208.416882 
L 617.684308 185.802274 
L 618.258715 174.61657 
L 618.833121 167.229031 
L 619.407528 165.629647 
L 619.981934 170.68931 
L 620.55634 181.991791 
L 621.705153 215.889877 
L 622.27956 232.954947 
L 622.853966 246.228204 
L 623.428373 253.482855 
L 624.002779 253.552966 
L 624.577186 246.549687 
L 625.151592 233.839367 
L 626.874812 187.363351 
L 627.449218 178.324295 
L 628.023625 175.617325 
L 628.598031 179.415139 
L 629.172438 188.616939 
L 630.895657 224.252627 
L 631.470064 229.55078 
L 632.04447 228.206729 
L 632.618877 219.82753 
L 633.193283 205.312082 
L 634.916503 148.508348 
L 635.490909 134.690803 
L 636.065316 127.186971 
L 636.639722 126.726224 
L 637.214129 132.742726 
L 637.788535 143.487228 
L 638.937348 168.401461 
L 639.511754 176.852068 
L 640.086161 179.671306 
L 640.660567 175.924167 
L 641.234974 165.95955 
L 642.383787 134.592333 
L 642.958193 118.659036 
L 643.5326 106.428213 
L 644.107006 100.154675 
L 644.681413 101.04709 
L 645.255819 109.041749 
L 645.830226 122.813544 
L 647.553445 173.03188 
L 648.127852 183.431747 
L 648.702258 187.468381 
L 649.276665 184.901239 
L 649.851071 176.767948 
L 651.574291 142.99999 
L 652.148697 137.879761 
L 652.723104 139.23765 
L 653.29751 147.522093 
L 653.871917 161.889106 
L 655.595136 218.261684 
L 656.169543 231.942045 
L 656.743949 239.258401 
L 657.318356 239.429003 
L 657.892762 232.967627 
L 658.467169 221.582525 
L 659.615981 194.740806 
L 660.190388 185.037463 
L 660.764794 180.834768 
L 661.339201 183.133576 
L 661.913607 191.654256 
L 663.06242 220.376138 
L 663.636827 235.173419 
L 664.211233 246.395193 
L 664.78564 251.759672 
L 665.360046 250.015751 
L 665.934453 241.179167 
L 666.508859 226.53242 
L 668.232079 173.330395 
L 668.806485 161.879354 
L 669.380892 156.846133 
L 669.955298 158.536417 
L 670.529705 165.973323 
L 672.252924 199.078006 
L 672.827331 204.443652 
L 673.401737 203.501713 
L 673.976144 195.744866 
L 674.55055 181.958278 
L 676.27377 127.263441 
L 676.848176 114.104277 
L 677.422583 107.336806 
L 677.996989 107.791873 
L 678.571395 115.005192 
L 679.145802 127.307628 
L 680.294615 156.53456 
L 680.869021 167.670127 
L 681.443428 173.402032 
L 682.017834 172.662875 
L 682.592241 165.662149 
L 683.166647 153.846429 
L 684.31546 125.930604 
L 684.889867 115.643341 
L 685.464273 111.074728 
L 686.03868 113.519091 
L 686.613086 123.010263 
L 687.187493 138.310728 
L 688.910712 193.662256 
L 689.485119 205.84209 
L 690.059525 211.533597 
L 690.633932 210.369302 
L 691.208338 203.268335 
L 692.931558 169.713979 
L 693.505964 163.729685 
L 694.080371 163.885904 
L 694.654777 170.752129 
L 695.229184 183.605707 
L 696.952403 235.668322 
L 697.526809 248.035946 
L 698.101216 254.013902 
L 698.675622 252.724783 
L 699.250029 244.585135 
L 699.824435 231.225968 
L 700.973248 199.440823 
L 701.547655 186.838849 
L 702.122061 179.577773 
L 702.696468 178.791112 
L 703.270874 184.33922 
L 703.845281 194.838022 
L 704.994094 220.684793 
L 705.5685 230.237011 
L 706.142907 234.240627 
L 706.717313 231.356346 
L 707.29172 221.498282 
L 707.866126 205.855748 
L 709.589346 149.393224 
L 710.163752 136.850738 
L 710.738159 130.870038 
L 711.312565 131.876693 
L 711.886972 139.006102 
L 713.610191 174.053059 
L 714.184598 180.979 
L 714.759004 181.915076 
L 715.333411 176.226786 
L 715.907817 164.571133 
L 718.205443 104.333076 
L 718.779849 99.248829 
L 719.354256 101.436861 
L 719.928662 110.527622 
L 720.503069 124.928298 
L 721.651882 159.124729 
L 722.226288 173.064244 
L 722.800695 181.690861 
L 723.375101 183.806519 
L 723.949508 179.482409 
L 724.523914 170.041332 
L 725.672727 145.658102 
L 726.247134 136.497258 
L 726.82154 132.69007 
L 727.395947 135.62328 
L 727.970353 145.43797 
L 728.54476 160.996807 
L 730.267979 217.244453 
L 730.842386 229.706945 
L 731.416792 235.541122 
L 731.991199 234.266999 
L 732.565605 226.697744 
L 734.863231 180.827629 
L 735.437638 178.488638 
L 736.012044 182.71435 
L 736.58645 192.915725 
L 738.884076 248.267532 
L 739.458483 252.377416 
L 740.032889 249.249 
L 740.607296 239.204476 
L 741.756109 205.524718 
L 742.904922 172.222416 
L 743.479328 162.393231 
L 744.053735 159.136997 
L 744.628141 162.448612 
L 745.202548 171.064423 
L 746.351361 194.504092 
L 746.925767 203.557054 
L 747.500174 207.46384 
L 748.07458 204.787344 
L 748.648987 195.327813 
L 749.223393 180.166589 
L 750.946613 125.043103 
L 751.521019 112.937597 
L 752.095426 107.506969 
L 752.669832 109.282305 
L 753.244239 117.499235 
L 754.393052 144.818167 
L 754.967458 158.238918 
L 755.541865 167.805908 
L 756.116271 171.604175 
L 756.690677 168.863948 
L 757.265084 160.105031 
L 759.56271 109.218327 
L 760.137116 105.879589 
L 760.711523 109.706178 
L 761.285929 120.424699 
L 762.434742 155.529695 
L 763.583555 190.410918 
L 764.157962 201.018706 
L 764.732368 204.973067 
L 765.306775 202.216115 
L 765.881181 193.955122 
L 767.604401 161.051463 
L 768.178807 156.548791 
L 768.753214 158.472635 
L 769.32762 167.084881 
L 769.902027 181.364066 
L 771.625246 233.998891 
L 772.199653 245.336088 
L 772.774059 249.979608 
L 773.348466 247.349907 
L 773.922872 238.164439 
L 775.071685 208.447105 
L 775.646091 193.592909 
L 776.220498 182.475737 
L 776.794904 177.06679 
L 777.369311 178.204001 
L 777.943717 185.436936 
L 779.09253 210.689595 
L 779.666937 223.211569 
L 780.241343 231.86845 
L 780.81575 234.5235 
L 781.390156 230.117946 
L 781.964563 218.874002 
L 783.113376 182.71593 
L 784.262189 146.701392 
L 784.836595 135.55478 
L 785.411002 131.148065 
L 785.985408 133.598597 
L 786.559815 141.752396 
L 788.283034 175.780195 
L 788.857441 181.09838 
L 789.431847 180.133367 
L 790.006254 172.558042 
L 790.58066 159.33056 
L 792.30388 109.537004 
L 792.878286 99.021999 
L 793.452693 95.183004 
L 794.027099 98.646292 
L 794.601506 108.74042 
L 795.750318 140.619236 
L 796.324725 156.731339 
L 796.899131 169.186655 
L 797.473538 175.959018 
L 798.047944 176.143502 
L 798.622351 170.122175 
L 799.196757 159.488761 
L 800.34557 134.834657 
L 800.919977 126.575358 
L 801.494383 124.139034 
L 802.06879 128.633616 
L 802.643196 139.891185 
L 803.792009 176.028716 
L 804.940822 212.066124 
L 805.515229 223.193984 
L 806.089635 227.499519 
L 806.664042 224.809516 
L 807.238448 216.227726 
L 808.961668 179.558498 
L 809.536074 172.955383 
L 810.110481 172.513844 
L 810.684887 178.628646 
L 811.259294 190.407601 
L 812.982513 236.358007 
L 813.55692 245.788094 
L 814.131326 248.598409 
L 814.705732 244.116616 
L 815.280139 232.967968 
L 816.428952 198.748569 
L 817.003358 181.341579 
L 817.577765 167.543146 
L 818.152171 159.432041 
L 818.726578 157.977947 
L 819.300984 162.86515 
L 819.875391 172.556872 
L 821.024204 196.032689 
L 821.59861 204.055672 
L 822.173017 206.450301 
L 822.747423 202.056552 
L 823.32183 190.984517 
L 824.470643 155.276974 
L 825.619456 119.610118 
L 826.193862 108.680248 
L 826.768269 104.638074 
L 827.342675 107.709339 
L 827.917082 116.837845 
L 829.640301 156.347615 
L 830.214708 164.245042 
L 830.789114 166.071865 
L 831.363521 161.364187 
L 831.937927 150.946558 
L 833.661146 108.357535 
L 834.235553 99.773662 
L 834.809959 97.71316 
L 835.384366 102.894869 
L 835.958772 114.741002 
L 837.107585 150.48046 
L 837.681992 168.724674 
L 838.256398 183.381334 
L 838.830805 192.322372 
L 839.405211 194.516454 
L 839.979618 190.215766 
L 840.554024 180.902668 
L 841.702837 157.441875 
L 842.277244 149.059676 
L 842.85165 146.105439 
L 843.426057 149.794412 
L 844.000463 160.077947 
L 845.149276 194.169063 
L 846.298089 228.334469 
L 846.872496 238.53234 
L 847.446902 241.802876 
L 848.021309 237.870539 
L 848.595715 227.745968 
L 850.318935 184.240967 
L 850.893341 174.730334 
L 851.467748 171.232793 
L 852.042154 174.28176 
L 852.616561 183.120876 
L 854.33978 221.909389 
L 854.914186 229.572481 
L 855.488593 230.843805 
L 856.062999 224.956546 
L 856.637406 212.438755 
L 857.786219 175.312694 
L 858.935032 140.933354 
L 859.509438 131.292118 
L 860.083845 128.4969 
L 860.658251 132.355715 
L 861.232658 141.437682 
L 862.381471 165.176691 
L 862.955877 174.058946 
L 863.530284 177.706315 
L 864.10469 174.845364 
L 864.679097 165.459962 
L 865.253503 150.799258 
L 866.976723 100.547887 
L 867.551129 91.066982 
L 868.125536 88.518255 
L 868.699942 93.225167 
L 869.274349 104.221568 
L 870.997568 151.122238 
L 871.571975 161.97266 
L 872.146381 166.83216 
L 872.720787 165.098558 
L 873.295194 157.460625 
L 875.018413 121.141806 
L 875.59282 113.892111 
L 876.167226 112.872996 
L 876.741633 118.901597 
L 877.316039 131.502656 
L 878.464852 168.781393 
L 879.613665 203.358477 
L 880.188072 213.053201 
L 880.762478 215.804067 
L 881.336885 211.746363 
L 881.911291 202.262492 
L 883.634511 167.034651 
L 884.208917 162.115747 
L 884.783324 163.589736 
L 885.35773 171.540268 
L 885.932137 184.781503 
L 887.655356 231.243941 
L 888.229763 239.62703 
L 888.804169 241.111371 
L 889.378576 235.326426 
L 889.952982 223.19386 
L 892.250608 160.017751 
L 892.825014 153.706748 
L 893.399421 154.064746 
L 893.973827 160.468905 
L 896.271453 201.270531 
L 896.84586 202.11924 
L 897.420266 196.047147 
L 897.994673 183.473148 
L 899.143486 146.282897 
L 900.292299 111.745559 
L 900.866705 102.103268 
L 901.441112 99.488752 
L 902.015518 103.820096 
L 902.589925 113.760672 
L 904.313144 151.619923 
L 904.887551 157.766732 
L 905.461957 157.607435 
L 906.036364 150.988998 
L 906.61077 139.031903 
L 908.33399 95.736249 
L 908.908396 88.165863 
L 909.482803 87.420459 
L 910.057209 93.91792 
L 910.631616 106.782172 
L 912.929241 173.420994 
L 913.503648 180.621178 
L 914.078054 181.053558 
L 914.652461 175.277559 
L 915.801274 152.91653 
L 916.37568 141.874436 
L 916.950087 134.660919 
L 917.524493 133.308914 
L 918.0989 138.74529 
L 918.673306 150.611256 
L 919.822119 186.362909 
L 920.396526 204.742215 
L 920.970932 219.556514 
L 921.545339 228.522499 
L 922.119745 230.400397 
L 922.694152 225.221554 
L 923.268558 214.278924 
L 924.991778 172.335708 
L 925.566184 164.54046 
L 926.140591 162.997421 
L 926.714997 167.92981 
L 927.289404 178.283464 
L 929.012623 217.672002 
L 929.58703 224.257378 
L 930.161436 224.128418 
L 930.735843 216.818568 
L 931.310249 203.156182 
L 933.607875 133.058768 
L 934.182281 125.019282 
L 934.756688 123.858683 
L 935.331094 129.077842 
L 935.905501 138.984423 
L 937.054314 162.223965 
L 937.62872 169.833897 
L 938.203127 171.767399 
L 938.777533 167.037979 
L 939.35194 155.940767 
L 940.500753 121.701726 
L 941.075159 104.00866 
L 941.649566 89.835326 
L 942.223972 81.494062 
L 942.798379 80.268405 
L 943.372785 86.175571 
L 943.947192 97.965053 
L 945.670411 143.307805 
L 946.244818 152.451437 
L 946.819224 155.361607 
L 947.393631 151.745257 
L 947.968037 142.590423 
L 949.691257 105.689114 
L 950.265663 99.548422 
L 950.840069 99.979939 
L 951.414476 107.50114 
L 951.988882 121.334381 
L 954.286508 192.197847 
L 954.860915 200.379271 
L 955.435321 201.569184 
L 956.009728 196.209801 
L 956.584134 185.947261 
L 957.732947 161.268093 
L 958.307354 152.598423 
L 958.88176 149.434552 
L 959.456167 152.825323 
L 960.030573 162.542309 
L 961.179386 194.119818 
L 961.753793 210.596009 
L 962.328199 223.631152 
L 962.902606 230.886414 
L 963.477012 231.036326 
L 964.051419 224.016125 
L 964.625825 211.034054 
L 966.349045 161.480241 
L 966.923451 150.788166 
L 967.497858 146.343345 
L 968.072264 148.507207 
L 968.646671 156.356564 
L 970.36989 190.617691 
L 970.944296 196.313702 
L 971.518703 195.601755 
L 972.093109 187.910542 
L 972.667516 173.963419 
L 974.965142 102.630607 
L 975.539548 94.375693 
L 976.113955 93.214291 
L 976.688361 98.757815 
L 977.262768 109.403606 
L 978.411581 135.518473 
L 978.985987 145.212964 
L 979.560394 149.547903 
L 980.1348 147.410097 
L 980.709207 138.959044 
L 981.85802 109.718894 
L 982.432426 94.244828 
L 983.006833 82.095188 
L 983.581239 75.633824 
L 984.155646 76.227393 
L 984.730052 83.988298 
L 985.304459 97.751476 
L 987.027678 150.066358 
L 987.602085 161.760123 
L 988.176491 167.165588 
L 988.750898 165.855404 
L 989.325304 158.690126 
L 991.048523 125.089326 
L 991.62293 119.146434 
L 992.197336 119.435686 
L 992.771743 126.58552 
L 993.346149 139.930708 
L 995.643775 208.914766 
L 996.218182 216.572477 
L 996.218182 216.572477 
" style="fill:none;stroke:#4c72b0;stroke-linecap:round;stroke-width:1.4;"/>
   </g>
   <g id="line2d_34">
    <path clip-path="url(#p05b6b7a523)" d="M 184.581818 180.646182 
L 996.218182 180.646182 
L 996.218182 180.646182 
" style="fill:none;stroke:#55a868;stroke-linecap:round;stroke-width:1.4;"/>
   </g>
   <g id="patch_3">
    <path d="M 144 320.4 
L 144 43.2 
" style="fill:none;"/>
   </g>
   <g id="patch_4">
    <path d="M 1036.8 320.4 
L 1036.8 43.2 
" style="fill:none;"/>
   </g>
   <g id="patch_5">
    <path d="M 144 320.4 
L 1036.8 320.4 
" style="fill:none;"/>
   </g>
   <g id="patch_6">
    <path d="M 144 43.2 
L 1036.8 43.2 
" style="fill:none;"/>
   </g>
   <g id="legend_1">
    <g id="line2d_35">
     <path d="M 1002.75125 53.3975 
L 1018.75125 53.3975 
" style="fill:none;stroke:#4c72b0;stroke-linecap:round;stroke-width:1.4;"/>
    </g>
    <g id="line2d_36"/>
    <g id="text_17">
     <!-- a -->
     <defs>
      <path d="M 20.21875 -0.984375 
Q 12.25 -0.984375 8.25 3.21875 
Q 4.25 7.421875 4.25 14.75 
Q 4.25 19.96875 6.21875 23.3125 
Q 8.203125 26.65625 11.390625 28.5625 
Q 14.59375 30.46875 18.6875 31.203125 
Q 22.796875 31.9375 27.046875 32.03125 
L 38.921875 32.234375 
L 38.921875 35.109375 
Q 38.921875 38.375 38.234375 40.671875 
Q 37.546875 42.96875 36.125 44.375 
Q 34.71875 45.796875 32.59375 46.453125 
Q 30.46875 47.125 27.59375 47.125 
Q 25.046875 47.125 23 46.75 
Q 20.953125 46.390625 19.4375 45.4375 
Q 17.921875 44.484375 16.984375 42.84375 
Q 16.0625 41.21875 15.765625 38.71875 
L 6.59375 39.546875 
Q 7.078125 42.671875 8.4375 45.28125 
Q 9.8125 47.90625 12.328125 49.796875 
Q 14.84375 51.703125 18.625 52.75 
Q 22.40625 53.8125 27.78125 53.8125 
Q 37.75 53.8125 42.765625 49.234375 
Q 47.796875 44.671875 47.796875 36.03125 
L 47.796875 13.28125 
Q 47.796875 9.375 48.828125 7.390625 
Q 49.859375 5.421875 52.734375 5.421875 
Q 53.46875 5.421875 54.203125 5.515625 
Q 54.9375 5.609375 55.609375 5.765625 
L 55.609375 0.296875 
Q 53.953125 -0.09375 52.3125 -0.28125 
Q 50.6875 -0.484375 48.828125 -0.484375 
Q 46.34375 -0.484375 44.5625 0.171875 
Q 42.78125 0.828125 41.65625 2.171875 
Q 40.53125 3.515625 39.9375 5.484375 
Q 39.359375 7.46875 39.203125 10.109375 
L 38.921875 10.109375 
Q 37.5 7.5625 35.8125 5.515625 
Q 34.125 3.46875 31.875 2.03125 
Q 29.640625 0.59375 26.78125 -0.1875 
Q 23.921875 -0.984375 20.21875 -0.984375 
M 22.21875 5.609375 
Q 26.421875 5.609375 29.5625 7.140625 
Q 32.71875 8.6875 34.78125 11.078125 
Q 36.859375 13.484375 37.890625 16.3125 
Q 38.921875 19.140625 38.921875 21.734375 
L 38.921875 26.078125 
L 29.296875 25.875 
Q 26.078125 25.828125 23.171875 25.40625 
Q 20.265625 25 18.0625 23.78125 
Q 15.875 22.5625 14.578125 20.359375 
Q 13.28125 18.171875 13.28125 14.59375 
Q 13.28125 10.296875 15.59375 7.953125 
Q 17.921875 5.609375 22.21875 5.609375 
" id="LiberationSans-61"/>
     </defs>
     <g style="fill:#262626;" transform="translate(1025.15125 56.1975)scale(0.08 -0.08)">
      <use xlink:href="#LiberationSans-61"/>
     </g>
    </g>
    <g id="line2d_37">
     <path d="M 1002.75125 64.855 
L 1018.75125 64.855 
" style="fill:none;stroke:#55a868;stroke-linecap:round;stroke-width:1.4;"/>
    </g>
    <g id="line2d_38"/>
    <g id="text_18">
     <!-- b -->
     <defs>
      <path d="M 51.421875 26.65625 
Q 51.421875 -0.984375 31.984375 -0.984375 
Q 25.984375 -0.984375 22 1.1875 
Q 18.015625 3.375 15.53125 8.203125 
L 15.4375 8.203125 
Q 15.4375 6.9375 15.359375 5.5625 
Q 15.28125 4.203125 15.203125 3.03125 
Q 15.140625 1.859375 15.0625 1.03125 
Q 14.984375 0.203125 14.9375 0 
L 6.453125 0 
Q 6.5 0.4375 6.546875 1.484375 
Q 6.59375 2.546875 6.640625 4 
Q 6.6875 5.46875 6.703125 7.21875 
Q 6.734375 8.984375 6.734375 10.890625 
L 6.734375 72.46875 
L 15.53125 72.46875 
L 15.53125 51.8125 
Q 15.53125 50.34375 15.5 49 
Q 15.484375 47.65625 15.4375 46.625 
Q 15.375 45.40625 15.328125 44.34375 
L 15.53125 44.34375 
Q 17.96875 49.421875 22 51.609375 
Q 26.03125 53.8125 31.984375 53.8125 
Q 42 53.8125 46.703125 47.0625 
Q 51.421875 40.328125 51.421875 26.65625 
M 42.1875 26.375 
Q 42.1875 31.84375 41.5 35.75 
Q 40.828125 39.65625 39.3125 42.15625 
Q 37.796875 44.671875 35.453125 45.84375 
Q 33.109375 47.015625 29.734375 47.015625 
Q 26.265625 47.015625 23.609375 45.890625 
Q 20.953125 44.78125 19.171875 42.28125 
Q 17.390625 39.796875 16.453125 35.734375 
Q 15.53125 31.6875 15.53125 25.828125 
Q 15.53125 20.171875 16.453125 16.3125 
Q 17.390625 12.453125 19.171875 10.03125 
Q 20.953125 7.625 23.578125 6.5625 
Q 26.21875 5.515625 29.640625 5.515625 
Q 32.859375 5.515625 35.203125 6.640625 
Q 37.546875 7.765625 39.109375 10.25 
Q 40.671875 12.75 41.421875 16.71875 
Q 42.1875 20.703125 42.1875 26.375 
" id="LiberationSans-62"/>
     </defs>
     <g style="fill:#262626;" transform="translate(1025.15125 67.655)scale(0.08 -0.08)">
      <use xlink:href="#LiberationSans-62"/>
     </g>
    </g>
   </g>
  </g>
 </g>
 <defs>
  <clipPath id="p05b6b7a523">
   <rect height="277.2" width="892.8" x="144" y="43.2"/>
  </clipPath>
 </defs>
</svg>
