<?xml version="1.0" encoding="utf-8" standalone="no"?>
<!DOCTYPE svg PUBLIC "-//W3C//DTD SVG 1.1//EN"
  "http://www.w3.org/Graphics/SVG/1.1/DTD/svg11.dtd">
<!-- Created with matplotlib (http://matplotlib.org/) -->
<svg height="360pt" version="1.1" viewBox="0 0 1152 360" width="1152pt" xmlns="http://www.w3.org/2000/svg" xmlns:xlink="http://www.w3.org/1999/xlink">
 <defs>
  <style type="text/css">
*{stroke-linecap:butt;stroke-linejoin:round;}
  </style>
 </defs>
 <g id="figure_1">
  <g id="patch_1">
   <path d="M 0 360 
L 1152 360 
L 1152 0 
L 0 0 
z
" style="fill:#ffffff;"/>
  </g>
  <g id="axes_1">
   <g id="patch_2">
    <path d="M 144 320.4 
L 1036.8 320.4 
L 1036.8 43.2 
L 144 43.2 
z
" style="fill:#eaeaf2;"/>
   </g>
   <g id="matplotlib.axis_1">
    <g id="xtick_1">
     <g id="line2d_1">
      <path clip-path="url(#p5950859f7f)" d="M 184.581818 320.4 
L 184.581818 43.2 
" style="fill:none;stroke:#ffffff;stroke-linecap:round;stroke-width:0.8;"/>
     </g>
     <g id="line2d_2"/>
     <g id="text_1">
      <!-- 0 -->
      <defs>
       <path d="M 51.703125 34.421875 
Q 51.703125 24.515625 49.828125 17.75 
Q 47.953125 10.984375 44.703125 6.8125 
Q 41.453125 2.640625 37.0625 0.828125 
Q 32.671875 -0.984375 27.6875 -0.984375 
Q 22.65625 -0.984375 18.3125 0.828125 
Q 13.96875 2.640625 10.765625 6.78125 
Q 7.5625 10.9375 5.734375 17.703125 
Q 3.90625 24.46875 3.90625 34.421875 
Q 3.90625 44.828125 5.734375 51.640625 
Q 7.5625 58.453125 10.78125 62.5 
Q 14.015625 66.546875 18.40625 68.1875 
Q 22.796875 69.828125 27.984375 69.828125 
Q 32.90625 69.828125 37.21875 68.1875 
Q 41.546875 66.546875 44.765625 62.5 
Q 48 58.453125 49.84375 51.640625 
Q 51.703125 44.828125 51.703125 34.421875 
M 42.78125 34.421875 
Q 42.78125 42.625 41.796875 48.0625 
Q 40.828125 53.515625 38.921875 56.765625 
Q 37.015625 60.015625 34.25 61.359375 
Q 31.5 62.703125 27.984375 62.703125 
Q 24.265625 62.703125 21.4375 61.328125 
Q 18.609375 59.96875 16.671875 56.71875 
Q 14.75 53.46875 13.765625 48.015625 
Q 12.796875 42.578125 12.796875 34.421875 
Q 12.796875 26.515625 13.796875 21.09375 
Q 14.796875 15.671875 16.71875 12.375 
Q 18.65625 9.078125 21.4375 7.640625 
Q 24.21875 6.203125 27.78125 6.203125 
Q 31.25 6.203125 34.03125 7.640625 
Q 36.8125 9.078125 38.734375 12.375 
Q 40.671875 15.671875 41.71875 21.09375 
Q 42.78125 26.515625 42.78125 34.421875 
" id="LiberationSans-30"/>
      </defs>
      <g style="fill:#262626;" transform="translate(182.357443 331.7975)scale(0.08 -0.08)">
       <use xlink:href="#LiberationSans-30"/>
      </g>
     </g>
    </g>
    <g id="xtick_2">
     <g id="line2d_3">
      <path clip-path="url(#p5950859f7f)" d="M 299.625952 320.4 
L 299.625952 43.2 
" style="fill:none;stroke:#ffffff;stroke-linecap:round;stroke-width:0.8;"/>
     </g>
     <g id="line2d_4"/>
     <g id="text_2">
      <!-- 200 -->
      <defs>
       <path d="M 5.03125 0 
L 5.03125 6.203125 
Q 7.515625 11.921875 11.109375 16.28125 
Q 14.703125 20.65625 18.65625 24.1875 
Q 22.609375 27.734375 26.484375 30.765625 
Q 30.375 33.796875 33.5 36.8125 
Q 36.625 39.84375 38.546875 43.15625 
Q 40.484375 46.484375 40.484375 50.6875 
Q 40.484375 53.609375 39.59375 55.828125 
Q 38.71875 58.0625 37.0625 59.5625 
Q 35.40625 61.078125 33.078125 61.828125 
Q 30.765625 62.59375 27.9375 62.59375 
Q 25.296875 62.59375 22.96875 61.859375 
Q 20.65625 61.140625 18.84375 59.671875 
Q 17.046875 58.203125 15.890625 56.03125 
Q 14.75 53.859375 14.40625 50.984375 
L 5.421875 51.8125 
Q 5.859375 55.515625 7.46875 58.78125 
Q 9.078125 62.0625 11.90625 64.53125 
Q 14.75 67 18.71875 68.40625 
Q 22.703125 69.828125 27.9375 69.828125 
Q 33.0625 69.828125 37.0625 68.609375 
Q 41.0625 67.390625 43.8125 64.984375 
Q 46.578125 62.59375 48.046875 59.078125 
Q 49.515625 55.5625 49.515625 50.984375 
Q 49.515625 47.515625 48.265625 44.390625 
Q 47.015625 41.265625 44.9375 38.421875 
Q 42.875 35.59375 40.140625 32.953125 
Q 37.40625 30.328125 34.421875 27.8125 
Q 31.453125 25.296875 28.421875 22.828125 
Q 25.390625 20.359375 22.71875 17.859375 
Q 20.0625 15.375 17.96875 12.8125 
Q 15.875 10.25 14.703125 7.46875 
L 50.59375 7.46875 
L 50.59375 0 
z
" id="LiberationSans-32"/>
      </defs>
      <g style="fill:#262626;" transform="translate(292.952827 331.7975)scale(0.08 -0.08)">
       <use xlink:href="#LiberationSans-32"/>
       <use x="55.615234" xlink:href="#LiberationSans-30"/>
       <use x="111.230469" xlink:href="#LiberationSans-30"/>
      </g>
     </g>
    </g>
    <g id="xtick_3">
     <g id="line2d_5">
      <path clip-path="url(#p5950859f7f)" d="M 414.670086 320.4 
L 414.670086 43.2 
" style="fill:none;stroke:#ffffff;stroke-linecap:round;stroke-width:0.8;"/>
     </g>
     <g id="line2d_6"/>
     <g id="text_3">
      <!-- 400 -->
      <defs>
       <path d="M 43.015625 15.578125 
L 43.015625 0 
L 34.71875 0 
L 34.71875 15.578125 
L 2.296875 15.578125 
L 2.296875 22.40625 
L 33.796875 68.796875 
L 43.015625 68.796875 
L 43.015625 22.515625 
L 52.6875 22.515625 
L 52.6875 15.578125 
z
M 34.71875 58.890625 
Q 34.625 58.640625 34.234375 57.9375 
Q 33.84375 57.234375 33.34375 56.34375 
Q 32.859375 55.46875 32.34375 54.5625 
Q 31.84375 53.65625 31.453125 53.078125 
L 13.8125 27.09375 
Q 13.578125 26.703125 13.109375 26.0625 
Q 12.640625 25.4375 12.15625 24.78125 
Q 11.671875 24.125 11.171875 23.484375 
Q 10.6875 22.859375 10.40625 22.515625 
L 34.71875 22.515625 
z
" id="LiberationSans-34"/>
      </defs>
      <g style="fill:#262626;" transform="translate(407.996961 331.7975)scale(0.08 -0.08)">
       <use xlink:href="#LiberationSans-34"/>
       <use x="55.615234" xlink:href="#LiberationSans-30"/>
       <use x="111.230469" xlink:href="#LiberationSans-30"/>
      </g>
     </g>
    </g>
    <g id="xtick_4">
     <g id="line2d_7">
      <path clip-path="url(#p5950859f7f)" d="M 529.714219 320.4 
L 529.714219 43.2 
" style="fill:none;stroke:#ffffff;stroke-linecap:round;stroke-width:0.8;"/>
     </g>
     <g id="line2d_8"/>
     <g id="text_4">
      <!-- 600 -->
      <defs>
       <path d="M 51.21875 22.515625 
Q 51.21875 17.328125 49.78125 13 
Q 48.34375 8.6875 45.53125 5.578125 
Q 42.71875 2.484375 38.5625 0.75 
Q 34.421875 -0.984375 29 -0.984375 
Q 23 -0.984375 18.5 1.3125 
Q 14.015625 3.609375 11.03125 7.921875 
Q 8.0625 12.25 6.5625 18.53125 
Q 5.078125 24.8125 5.078125 32.8125 
Q 5.078125 42 6.765625 48.921875 
Q 8.453125 55.859375 11.625 60.5 
Q 14.796875 65.140625 19.359375 67.484375 
Q 23.921875 69.828125 29.6875 69.828125 
Q 33.203125 69.828125 36.28125 69.09375 
Q 39.359375 68.359375 41.875 66.71875 
Q 44.390625 65.09375 46.28125 62.40625 
Q 48.1875 59.71875 49.3125 55.8125 
L 40.921875 54.296875 
Q 39.546875 58.734375 36.546875 60.71875 
Q 33.546875 62.703125 29.59375 62.703125 
Q 25.984375 62.703125 23.046875 60.984375 
Q 20.125 59.28125 18.0625 55.875 
Q 16.015625 52.484375 14.90625 47.359375 
Q 13.8125 42.234375 13.8125 35.40625 
Q 16.21875 39.84375 20.5625 42.15625 
Q 24.90625 44.484375 30.515625 44.484375 
Q 35.203125 44.484375 39.015625 42.96875 
Q 42.828125 41.453125 45.53125 38.59375 
Q 48.25 35.75 49.734375 31.671875 
Q 51.21875 27.59375 51.21875 22.515625 
M 42.28125 22.125 
Q 42.28125 25.6875 41.40625 28.5625 
Q 40.53125 31.453125 38.765625 33.46875 
Q 37.015625 35.5 34.421875 36.59375 
Q 31.84375 37.703125 28.421875 37.703125 
Q 26.03125 37.703125 23.578125 36.984375 
Q 21.140625 36.28125 19.15625 34.6875 
Q 17.1875 33.109375 15.9375 30.515625 
Q 14.703125 27.9375 14.703125 24.21875 
Q 14.703125 20.40625 15.671875 17.109375 
Q 16.65625 13.8125 18.484375 11.375 
Q 20.3125 8.9375 22.890625 7.515625 
Q 25.484375 6.109375 28.71875 6.109375 
Q 31.890625 6.109375 34.40625 7.203125 
Q 36.921875 8.296875 38.671875 10.375 
Q 40.4375 12.453125 41.359375 15.421875 
Q 42.28125 18.40625 42.28125 22.125 
" id="LiberationSans-36"/>
      </defs>
      <g style="fill:#262626;" transform="translate(523.041094 331.7975)scale(0.08 -0.08)">
       <use xlink:href="#LiberationSans-36"/>
       <use x="55.615234" xlink:href="#LiberationSans-30"/>
       <use x="111.230469" xlink:href="#LiberationSans-30"/>
      </g>
     </g>
    </g>
    <g id="xtick_5">
     <g id="line2d_9">
      <path clip-path="url(#p5950859f7f)" d="M 644.758353 320.4 
L 644.758353 43.2 
" style="fill:none;stroke:#ffffff;stroke-linecap:round;stroke-width:0.8;"/>
     </g>
     <g id="line2d_10"/>
     <g id="text_5">
      <!-- 800 -->
      <defs>
       <path d="M 51.265625 19.1875 
Q 51.265625 14.796875 49.875 11.109375 
Q 48.484375 7.421875 45.625 4.734375 
Q 42.78125 2.046875 38.328125 0.53125 
Q 33.890625 -0.984375 27.828125 -0.984375 
Q 21.78125 -0.984375 17.359375 0.53125 
Q 12.9375 2.046875 10.03125 4.703125 
Q 7.125 7.375 5.734375 11.0625 
Q 4.34375 14.75 4.34375 19.09375 
Q 4.34375 22.859375 5.484375 25.78125 
Q 6.640625 28.71875 8.5625 30.828125 
Q 10.5 32.953125 12.96875 34.25 
Q 15.4375 35.546875 18.0625 35.984375 
L 18.0625 36.1875 
Q 15.1875 36.859375 12.90625 38.375 
Q 10.640625 39.890625 9.09375 42.015625 
Q 7.5625 44.140625 6.75 46.71875 
Q 5.953125 49.3125 5.953125 52.203125 
Q 5.953125 55.8125 7.34375 59 
Q 8.734375 62.203125 11.46875 64.625 
Q 14.203125 67.046875 18.25 68.4375 
Q 22.3125 69.828125 27.640625 69.828125 
Q 33.25 69.828125 37.375 68.40625 
Q 41.5 67 44.203125 64.578125 
Q 46.921875 62.15625 48.234375 58.9375 
Q 49.5625 55.71875 49.5625 52.09375 
Q 49.5625 49.265625 48.75 46.671875 
Q 47.953125 44.09375 46.40625 41.96875 
Q 44.875 39.84375 42.59375 38.34375 
Q 40.328125 36.859375 37.359375 36.28125 
L 37.359375 36.078125 
Q 40.328125 35.59375 42.859375 34.296875 
Q 45.40625 33.015625 47.265625 30.890625 
Q 49.125 28.765625 50.1875 25.828125 
Q 51.265625 22.90625 51.265625 19.1875 
M 40.4375 51.609375 
Q 40.4375 54.203125 39.765625 56.34375 
Q 39.109375 58.5 37.59375 60.03125 
Q 36.078125 61.578125 33.640625 62.421875 
Q 31.203125 63.28125 27.640625 63.28125 
Q 24.171875 63.28125 21.78125 62.421875 
Q 19.390625 61.578125 17.84375 60.03125 
Q 16.3125 58.5 15.625 56.34375 
Q 14.9375 54.203125 14.9375 51.609375 
Q 14.9375 49.5625 15.46875 47.40625 
Q 16.015625 45.265625 17.421875 43.5 
Q 18.84375 41.75 21.328125 40.625 
Q 23.828125 39.5 27.734375 39.5 
Q 31.890625 39.5 34.40625 40.625 
Q 36.921875 41.75 38.25 43.5 
Q 39.59375 45.265625 40.015625 47.40625 
Q 40.4375 49.5625 40.4375 51.609375 
M 42.140625 20.015625 
Q 42.140625 22.515625 41.453125 24.828125 
Q 40.765625 27.15625 39.109375 28.9375 
Q 37.453125 30.71875 34.640625 31.8125 
Q 31.84375 32.90625 27.640625 32.90625 
Q 23.78125 32.90625 21.0625 31.8125 
Q 18.359375 30.71875 16.671875 28.90625 
Q 14.984375 27.09375 14.203125 24.71875 
Q 13.421875 22.359375 13.421875 19.828125 
Q 13.421875 16.65625 14.203125 14.03125 
Q 14.984375 11.421875 16.6875 9.546875 
Q 18.40625 7.671875 21.1875 6.640625 
Q 23.96875 5.609375 27.9375 5.609375 
Q 31.9375 5.609375 34.671875 6.640625 
Q 37.40625 7.671875 39.0625 9.546875 
Q 40.71875 11.421875 41.421875 14.078125 
Q 42.140625 16.75 42.140625 20.015625 
" id="LiberationSans-38"/>
      </defs>
      <g style="fill:#262626;" transform="translate(638.085228 331.7975)scale(0.08 -0.08)">
       <use xlink:href="#LiberationSans-38"/>
       <use x="55.615234" xlink:href="#LiberationSans-30"/>
       <use x="111.230469" xlink:href="#LiberationSans-30"/>
      </g>
     </g>
    </g>
    <g id="xtick_6">
     <g id="line2d_11">
      <path clip-path="url(#p5950859f7f)" d="M 759.802487 320.4 
L 759.802487 43.2 
" style="fill:none;stroke:#ffffff;stroke-linecap:round;stroke-width:0.8;"/>
     </g>
     <g id="line2d_12"/>
     <g id="text_6">
      <!-- 1000 -->
      <defs>
       <path d="M 7.625 0 
L 7.625 7.46875 
L 25.140625 7.46875 
L 25.140625 60.40625 
L 9.625 49.3125 
L 9.625 57.625 
L 25.875 68.796875 
L 33.984375 68.796875 
L 33.984375 7.46875 
L 50.734375 7.46875 
L 50.734375 0 
z
" id="LiberationSans-31"/>
      </defs>
      <g style="fill:#262626;" transform="translate(750.904987 331.7975)scale(0.08 -0.08)">
       <use xlink:href="#LiberationSans-31"/>
       <use x="55.615234" xlink:href="#LiberationSans-30"/>
       <use x="111.230469" xlink:href="#LiberationSans-30"/>
       <use x="166.845703" xlink:href="#LiberationSans-30"/>
      </g>
     </g>
    </g>
    <g id="xtick_7">
     <g id="line2d_13">
      <path clip-path="url(#p5950859f7f)" d="M 874.846621 320.4 
L 874.846621 43.2 
" style="fill:none;stroke:#ffffff;stroke-linecap:round;stroke-width:0.8;"/>
     </g>
     <g id="line2d_14"/>
     <g id="text_7">
      <!-- 1200 -->
      <g style="fill:#262626;" transform="translate(865.949121 331.7975)scale(0.08 -0.08)">
       <use xlink:href="#LiberationSans-31"/>
       <use x="55.615234" xlink:href="#LiberationSans-32"/>
       <use x="111.230469" xlink:href="#LiberationSans-30"/>
       <use x="166.845703" xlink:href="#LiberationSans-30"/>
      </g>
     </g>
    </g>
    <g id="xtick_8">
     <g id="line2d_15">
      <path clip-path="url(#p5950859f7f)" d="M 989.890754 320.4 
L 989.890754 43.2 
" style="fill:none;stroke:#ffffff;stroke-linecap:round;stroke-width:0.8;"/>
     </g>
     <g id="line2d_16"/>
     <g id="text_8">
      <!-- 1400 -->
      <g style="fill:#262626;" transform="translate(980.993254 331.7975)scale(0.08 -0.08)">
       <use xlink:href="#LiberationSans-31"/>
       <use x="55.615234" xlink:href="#LiberationSans-34"/>
       <use x="111.230469" xlink:href="#LiberationSans-30"/>
       <use x="166.845703" xlink:href="#LiberationSans-30"/>
      </g>
     </g>
    </g>
   </g>
   <g id="matplotlib.axis_2">
    <g id="ytick_1">
     <g id="line2d_17">
      <path clip-path="url(#p5950859f7f)" d="M 144 307.8 
L 1036.8 307.8 
" style="fill:none;stroke:#ffffff;stroke-linecap:round;stroke-width:0.8;"/>
     </g>
     <g id="line2d_18"/>
     <g id="text_9">
      <!-- −1.00 -->
      <defs>
       <path d="M 4.9375 29.6875 
L 4.9375 36.8125 
L 53.515625 36.8125 
L 53.515625 29.6875 
z
" id="LiberationSans-2212"/>
       <path d="M 9.125 0 
L 9.125 10.6875 
L 18.65625 10.6875 
L 18.65625 0 
z
" id="LiberationSans-2e"/>
      </defs>
      <g style="fill:#262626;" transform="translate(118.15875 310.69875)scale(0.08 -0.08)">
       <use xlink:href="#LiberationSans-2212"/>
       <use x="58.398438" xlink:href="#LiberationSans-31"/>
       <use x="114.013672" xlink:href="#LiberationSans-2e"/>
       <use x="141.796875" xlink:href="#LiberationSans-30"/>
       <use x="197.412109" xlink:href="#LiberationSans-30"/>
      </g>
     </g>
    </g>
    <g id="ytick_2">
     <g id="line2d_19">
      <path clip-path="url(#p5950859f7f)" d="M 144 276.3 
L 1036.8 276.3 
" style="fill:none;stroke:#ffffff;stroke-linecap:round;stroke-width:0.8;"/>
     </g>
     <g id="line2d_20"/>
     <g id="text_10">
      <!-- −0.75 -->
      <defs>
       <path d="M 50.59375 61.671875 
Q 45.40625 53.765625 41.0625 46.453125 
Q 36.71875 39.15625 33.59375 31.75 
Q 30.46875 24.359375 28.734375 16.578125 
Q 27 8.796875 27 0 
L 17.828125 0 
Q 17.828125 8.25 19.78125 16.1875 
Q 21.734375 24.125 25.046875 31.765625 
Q 28.375 39.40625 32.765625 46.78125 
Q 37.15625 54.15625 42.09375 61.328125 
L 5.125 61.328125 
L 5.125 68.796875 
L 50.59375 68.796875 
z
" id="LiberationSans-37"/>
       <path d="M 51.421875 22.40625 
Q 51.421875 17.234375 49.859375 12.9375 
Q 48.296875 8.640625 45.21875 5.53125 
Q 42.140625 2.4375 37.578125 0.71875 
Q 33.015625 -0.984375 27 -0.984375 
Q 21.578125 -0.984375 17.546875 0.28125 
Q 13.53125 1.5625 10.734375 3.78125 
Q 7.953125 6 6.3125 8.984375 
Q 4.6875 11.96875 4 15.375 
L 12.890625 16.40625 
Q 13.421875 14.453125 14.390625 12.625 
Q 15.375 10.796875 17.0625 9.34375 
Q 18.75 7.90625 21.21875 7.046875 
Q 23.6875 6.203125 27.203125 6.203125 
Q 30.609375 6.203125 33.390625 7.25 
Q 36.1875 8.296875 38.15625 10.34375 
Q 40.140625 12.40625 41.203125 15.375 
Q 42.28125 18.359375 42.28125 22.21875 
Q 42.28125 25.390625 41.25 28.046875 
Q 40.234375 30.71875 38.328125 32.640625 
Q 36.421875 34.578125 33.65625 35.640625 
Q 30.90625 36.71875 27.390625 36.71875 
Q 25.203125 36.71875 23.34375 36.328125 
Q 21.484375 35.9375 19.890625 35.25 
Q 18.3125 34.578125 17.015625 33.671875 
Q 15.71875 32.765625 14.59375 31.78125 
L 6 31.78125 
L 8.296875 68.796875 
L 47.40625 68.796875 
L 47.40625 61.328125 
L 16.3125 61.328125 
L 14.984375 39.5 
Q 17.328125 41.3125 20.84375 42.59375 
Q 24.359375 43.890625 29.203125 43.890625 
Q 34.328125 43.890625 38.421875 42.328125 
Q 42.53125 40.765625 45.40625 37.90625 
Q 48.296875 35.0625 49.859375 31.109375 
Q 51.421875 27.15625 51.421875 22.40625 
" id="LiberationSans-35"/>
      </defs>
      <g style="fill:#262626;" transform="translate(118.15875 279.19875)scale(0.08 -0.08)">
       <use xlink:href="#LiberationSans-2212"/>
       <use x="58.398438" xlink:href="#LiberationSans-30"/>
       <use x="114.013672" xlink:href="#LiberationSans-2e"/>
       <use x="141.796875" xlink:href="#LiberationSans-37"/>
       <use x="197.412109" xlink:href="#LiberationSans-35"/>
      </g>
     </g>
    </g>
    <g id="ytick_3">
     <g id="line2d_21">
      <path clip-path="url(#p5950859f7f)" d="M 144 244.8 
L 1036.8 244.8 
" style="fill:none;stroke:#ffffff;stroke-linecap:round;stroke-width:0.8;"/>
     </g>
     <g id="line2d_22"/>
     <g id="text_11">
      <!-- −0.50 -->
      <g style="fill:#262626;" transform="translate(118.15875 247.69875)scale(0.08 -0.08)">
       <use xlink:href="#LiberationSans-2212"/>
       <use x="58.398438" xlink:href="#LiberationSans-30"/>
       <use x="114.013672" xlink:href="#LiberationSans-2e"/>
       <use x="141.796875" xlink:href="#LiberationSans-35"/>
       <use x="197.412109" xlink:href="#LiberationSans-30"/>
      </g>
     </g>
    </g>
    <g id="ytick_4">
     <g id="line2d_23">
      <path clip-path="url(#p5950859f7f)" d="M 144 213.3 
L 1036.8 213.3 
" style="fill:none;stroke:#ffffff;stroke-linecap:round;stroke-width:0.8;"/>
     </g>
     <g id="line2d_24"/>
     <g id="text_12">
      <!-- −0.25 -->
      <g style="fill:#262626;" transform="translate(118.15875 216.19875)scale(0.08 -0.08)">
       <use xlink:href="#LiberationSans-2212"/>
       <use x="58.398438" xlink:href="#LiberationSans-30"/>
       <use x="114.013672" xlink:href="#LiberationSans-2e"/>
       <use x="141.796875" xlink:href="#LiberationSans-32"/>
       <use x="197.412109" xlink:href="#LiberationSans-35"/>
      </g>
     </g>
    </g>
    <g id="ytick_5">
     <g id="line2d_25">
      <path clip-path="url(#p5950859f7f)" d="M 144 181.8 
L 1036.8 181.8 
" style="fill:none;stroke:#ffffff;stroke-linecap:round;stroke-width:0.8;"/>
     </g>
     <g id="line2d_26"/>
     <g id="text_13">
      <!-- 0.00 -->
      <g style="fill:#262626;" transform="translate(122.83125 184.69875)scale(0.08 -0.08)">
       <use xlink:href="#LiberationSans-30"/>
       <use x="55.615234" xlink:href="#LiberationSans-2e"/>
       <use x="83.398438" xlink:href="#LiberationSans-30"/>
       <use x="139.013672" xlink:href="#LiberationSans-30"/>
      </g>
     </g>
    </g>
    <g id="ytick_6">
     <g id="line2d_27">
      <path clip-path="url(#p5950859f7f)" d="M 144 150.3 
L 1036.8 150.3 
" style="fill:none;stroke:#ffffff;stroke-linecap:round;stroke-width:0.8;"/>
     </g>
     <g id="line2d_28"/>
     <g id="text_14">
      <!-- 0.25 -->
      <g style="fill:#262626;" transform="translate(122.83125 153.19875)scale(0.08 -0.08)">
       <use xlink:href="#LiberationSans-30"/>
       <use x="55.615234" xlink:href="#LiberationSans-2e"/>
       <use x="83.398438" xlink:href="#LiberationSans-32"/>
       <use x="139.013672" xlink:href="#LiberationSans-35"/>
      </g>
     </g>
    </g>
    <g id="ytick_7">
     <g id="line2d_29">
      <path clip-path="url(#p5950859f7f)" d="M 144 118.8 
L 1036.8 118.8 
" style="fill:none;stroke:#ffffff;stroke-linecap:round;stroke-width:0.8;"/>
     </g>
     <g id="line2d_30"/>
     <g id="text_15">
      <!-- 0.50 -->
      <g style="fill:#262626;" transform="translate(122.83125 121.69875)scale(0.08 -0.08)">
       <use xlink:href="#LiberationSans-30"/>
       <use x="55.615234" xlink:href="#LiberationSans-2e"/>
       <use x="83.398438" xlink:href="#LiberationSans-35"/>
       <use x="139.013672" xlink:href="#LiberationSans-30"/>
      </g>
     </g>
    </g>
    <g id="ytick_8">
     <g id="line2d_31">
      <path clip-path="url(#p5950859f7f)" d="M 144 87.3 
L 1036.8 87.3 
" style="fill:none;stroke:#ffffff;stroke-linecap:round;stroke-width:0.8;"/>
     </g>
     <g id="line2d_32"/>
     <g id="text_16">
      <!-- 0.75 -->
      <g style="fill:#262626;" transform="translate(122.83125 90.19875)scale(0.08 -0.08)">
       <use xlink:href="#LiberationSans-30"/>
       <use x="55.615234" xlink:href="#LiberationSans-2e"/>
       <use x="83.398438" xlink:href="#LiberationSans-37"/>
       <use x="139.013672" xlink:href="#LiberationSans-35"/>
      </g>
     </g>
    </g>
    <g id="ytick_9">
     <g id="line2d_33">
      <path clip-path="url(#p5950859f7f)" d="M 144 55.8 
L 1036.8 55.8 
" style="fill:none;stroke:#ffffff;stroke-linecap:round;stroke-width:0.8;"/>
     </g>
     <g id="line2d_34"/>
     <g id="text_17">
      <!-- 1.00 -->
      <g style="fill:#262626;" transform="translate(122.83125 58.69875)scale(0.08 -0.08)">
       <use xlink:href="#LiberationSans-31"/>
       <use x="55.615234" xlink:href="#LiberationSans-2e"/>
       <use x="83.398438" xlink:href="#LiberationSans-30"/>
       <use x="139.013672" xlink:href="#LiberationSans-30"/>
      </g>
     </g>
    </g>
   </g>
   <g id="line2d_35">
    <path clip-path="url(#p5950859f7f)" d="M 184.581818 210.062374 
L 187.457922 210.062783 
L 188.033142 207.484849 
L 188.608363 197.488697 
L 189.758804 164.71157 
L 190.334025 155.962478 
L 190.909246 161.494785 
L 191.484466 179.616318 
L 192.059687 201.498345 
L 192.634908 218.384175 
L 193.210128 226.439957 
L 193.785349 226.766509 
L 194.36057 223.013165 
L 194.93579 218.375134 
L 195.511011 214.736251 
L 196.086232 212.598181 
L 196.661452 211.672447 
L 197.236673 211.768518 
L 197.811894 213.076255 
L 198.387114 215.764353 
L 198.962335 219.709748 
L 200.112776 230.089099 
L 201.263218 242.963165 
L 201.838438 249.979303 
L 202.413659 255.568359 
L 202.98888 256.079749 
L 203.5641 247.551565 
L 205.289762 195.623199 
L 205.864983 186.365379 
L 206.440204 182.915663 
L 207.015424 183.870824 
L 207.590645 188.029463 
L 208.165866 194.412023 
L 209.891528 216.47488 
L 210.466748 220.546632 
L 211.041969 221.338404 
L 211.61719 219.184348 
L 213.342852 207.273836 
L 213.918072 205.239313 
L 214.493293 204.974352 
L 215.068514 206.21791 
L 216.794176 212.887955 
L 217.369396 214.135697 
L 217.944617 214.363081 
L 218.519838 213.62761 
L 220.82072 208.204555 
L 221.395941 207.934224 
L 221.971162 208.303976 
L 222.546382 209.143887 
L 223.696824 211.227227 
L 224.272044 211.999971 
L 224.847265 212.40241 
L 225.422486 212.410371 
L 225.997706 212.110472 
L 228.298589 210.329272 
L 228.87381 210.14659 
L 229.44903 210.122061 
L 230.599472 210.464686 
L 234.050796 212.240846 
L 235.201237 212.369418 
L 235.776458 212.299885 
L 236.351678 212.092332 
L 237.50212 211.22564 
L 238.652561 210.396265 
L 239.227782 210.334315 
L 239.803002 210.689534 
L 240.378223 211.564998 
L 240.953444 212.959209 
L 242.103885 216.936221 
L 243.254326 220.970973 
L 243.829547 222.012637 
L 244.404768 221.732126 
L 244.979988 219.647227 
L 245.555209 215.355626 
L 246.13043 208.834427 
L 247.280871 194.288071 
L 247.856092 191.614 
L 248.431312 192.285284 
L 249.006533 191.686813 
L 249.581754 186.423476 
L 250.156974 177.920492 
L 250.732195 171.191951 
L 251.307416 171.109872 
L 251.882636 179.539081 
L 253.608298 227.37479 
L 254.183519 236.483329 
L 254.75874 238.481917 
L 255.33396 234.308625 
L 256.484402 216.397066 
L 257.059622 207.648917 
L 257.634843 201.697258 
L 258.210064 199.487285 
L 258.785284 200.953034 
L 259.360505 205.140722 
L 260.510946 215.470921 
L 261.086167 218.708483 
L 261.661388 219.612248 
L 262.236608 218.299948 
L 263.38705 212.085426 
L 263.96227 209.152546 
L 264.537491 207.380939 
L 265.112712 207.080386 
L 265.687932 208.137424 
L 267.413594 214.367987 
L 267.988815 215.577303 
L 268.564036 215.793401 
L 269.139256 215.059052 
L 270.289698 212.00923 
L 270.864918 210.524305 
L 271.440139 209.542366 
L 272.01536 209.242105 
L 272.590581 209.613349 
L 273.165801 210.495138 
L 274.316243 212.75643 
L 274.891463 213.582851 
L 275.466684 213.988212 
L 276.041905 213.90764 
L 276.617125 213.411416 
L 278.918008 210.336316 
L 279.493229 209.964112 
L 280.068449 209.882069 
L 280.64367 210.090242 
L 281.218891 210.549772 
L 282.369332 212.017819 
L 283.519773 213.631073 
L 284.094994 214.208574 
L 284.670215 214.43769 
L 285.245435 214.168208 
L 285.820656 213.258569 
L 286.395877 211.623254 
L 286.971097 209.247322 
L 288.696759 199.940514 
L 289.27198 198.176204 
L 289.847201 199.116744 
L 290.422421 204.526189 
L 291.572863 226.614887 
L 292.148083 230.936467 
L 292.723304 222.648427 
L 293.873745 188.196924 
L 294.448966 179.073572 
L 295.024187 180.962892 
L 295.599407 191.851484 
L 296.749849 220.648108 
L 297.325069 229.608136 
L 297.90029 232.594652 
L 298.475511 230.390097 
L 299.050731 224.549322 
L 300.201173 209.345284 
L 300.776393 203.576447 
L 301.351614 200.737865 
L 301.926835 201.134409 
L 302.502055 204.214545 
L 303.652497 213.34213 
L 304.227717 216.656319 
L 304.802938 218.030082 
L 305.378159 217.438697 
L 305.953379 215.412472 
L 307.103821 210.272705 
L 307.679041 208.559928 
L 308.254262 207.928427 
L 308.829483 208.369851 
L 309.404703 209.63064 
L 310.555145 212.723698 
L 311.130365 213.617382 
L 311.705586 213.752941 
L 312.280807 213.170184 
L 314.006469 209.913342 
L 314.581689 209.385997 
L 315.15691 209.405699 
L 315.732131 209.913255 
L 317.457793 212.234572 
L 318.033013 212.548729 
L 318.608234 212.440356 
L 319.183455 211.93793 
L 321.484337 208.979565 
L 322.059558 208.816722 
L 322.634779 209.037937 
L 323.209999 209.586891 
L 324.935661 211.829323 
L 325.510882 212.259882 
L 326.086103 212.338494 
L 326.661323 212.026127 
L 327.236544 211.330746 
L 328.386985 209.095928 
L 329.537427 206.728082 
L 330.112647 206.026757 
L 330.687868 205.995464 
L 331.263089 206.898472 
L 331.838309 208.980473 
L 332.41353 212.446595 
L 332.988751 217.396568 
L 334.139192 231.110211 
L 334.714413 238.292623 
L 335.289633 242.891667 
L 335.864854 241.491838 
L 336.440075 232.428314 
L 338.165737 190.3942 
L 338.740957 180.078172 
L 339.316178 173.058283 
L 339.891399 170.496846 
L 340.466619 173.476372 
L 341.04184 181.981151 
L 342.767502 220.785366 
L 343.342723 228.651661 
L 343.917943 230.982059 
L 344.493164 228.241331 
L 345.068385 222.048386 
L 346.218826 207.659032 
L 346.794047 202.9614 
L 347.369267 201.159609 
L 347.944488 202.180305 
L 348.519709 205.301321 
L 349.67015 213.264937 
L 350.245371 215.881315 
L 350.820591 216.707586 
L 351.395812 215.774164 
L 351.971033 213.5522 
L 353.121474 208.266262 
L 353.696695 206.553183 
L 354.271915 205.952212 
L 354.847136 206.442473 
L 355.422357 207.743727 
L 356.572798 211.043403 
L 357.148019 212.215232 
L 357.723239 212.724865 
L 358.29846 212.550585 
L 358.873681 211.836249 
L 360.599343 208.900209 
L 361.174563 208.372387 
L 361.749784 208.218948 
L 362.325005 208.395295 
L 363.475446 209.273029 
L 364.625888 210.111269 
L 365.776329 210.527511 
L 366.92677 210.574989 
L 368.077212 210.336797 
L 369.227653 209.797274 
L 370.953315 208.75473 
L 371.528536 208.598697 
L 372.103756 208.694906 
L 372.678977 209.137711 
L 373.254198 209.983591 
L 373.829418 211.223601 
L 376.130301 217.318368 
L 376.705522 218.039252 
L 377.280742 218.021329 
L 377.855963 217.22401 
L 379.006404 214.563758 
L 379.581625 214.595499 
L 380.156846 218.076476 
L 380.732066 227.050803 
L 381.307287 239.283661 
L 381.882508 243.097826 
L 382.457728 223.515 
L 383.032949 177.804428 
L 384.18339 73.469715 
L 384.758611 55.8 
L 385.333832 74.153278 
L 385.909052 122.339329 
L 387.059494 245.158133 
L 387.634714 288.296336 
L 388.209935 307.8 
L 388.785156 303.595383 
L 389.360376 280.691859 
L 391.086038 185.666202 
L 391.661259 171.00535 
L 392.23648 170.481456 
L 392.8117 181.881085 
L 394.537362 234.646911 
L 395.112583 242.053405 
L 395.687804 241.138322 
L 396.263024 233.474402 
L 397.413466 210.624384 
L 397.988686 201.972959 
L 398.563907 197.972097 
L 399.139128 198.951047 
L 399.714348 203.914092 
L 400.86479 217.988209 
L 401.44001 223.106594 
L 402.015231 225.260651 
L 402.590452 224.295647 
L 403.165672 220.885079 
L 404.316114 211.732156 
L 404.891334 208.500453 
L 405.466555 207.189871 
L 406.041776 207.862293 
L 406.616996 210.067479 
L 407.767438 215.915397 
L 408.342658 218.001739 
L 408.917879 218.868793 
L 409.4931 218.455449 
L 410.06832 217.021185 
L 411.218762 213.036113 
L 411.793982 211.501867 
L 412.369203 210.736396 
L 412.944424 210.826631 
L 413.519644 211.658449 
L 415.820527 216.899253 
L 416.395748 217.452773 
L 416.970968 217.498397 
L 417.546189 217.105444 
L 418.69663 215.575636 
L 419.847072 213.99238 
L 420.422292 213.512443 
L 420.997513 213.43107 
L 421.572734 213.972085 
L 422.147954 215.432928 
L 422.723175 218.156567 
L 423.298396 222.544995 
L 423.873616 229.037945 
L 424.448837 237.964564 
L 426.174499 272.870964 
L 426.74972 274.870033 
L 427.32494 261.302015 
L 429.050602 172.129766 
L 429.625823 156.171523 
L 430.201044 153.362567 
L 430.776264 161.625918 
L 431.926706 195.115689 
L 432.501926 211.790984 
L 433.077147 224.222706 
L 433.652368 230.689749 
L 434.227588 230.594974 
L 434.802809 224.842754 
L 436.528471 198.583328 
L 437.103692 194.764385 
L 437.678912 195.001548 
L 438.254133 198.558961 
L 439.979795 213.693658 
L 440.555016 215.824309 
L 441.130236 215.661434 
L 441.705457 213.600902 
L 443.431119 204.550908 
L 444.00634 203.185771 
L 444.58156 203.203821 
L 445.156781 204.384474 
L 446.882443 209.916517 
L 447.457664 210.885035 
L 448.032884 211.074073 
L 448.608105 210.598641 
L 450.333767 207.970117 
L 450.908988 207.535045 
L 451.484208 207.4818 
L 452.059429 207.7376 
L 453.785091 208.947558 
L 454.360312 209.130821 
L 455.510753 209.127362 
L 456.661195 209.17372 
L 457.811636 209.628815 
L 458.962077 210.178445 
L 459.537298 210.31433 
L 460.112519 210.254303 
L 460.687739 209.958716 
L 462.988622 208.145077 
L 463.563843 208.256852 
L 464.139063 208.820172 
L 464.714284 209.841317 
L 467.015167 215.290059 
L 467.590387 215.66666 
L 468.165608 215.017275 
L 468.740829 213.062741 
L 469.316049 209.612592 
L 469.89127 204.613301 
L 471.616932 185.882974 
L 472.192153 184.535085 
L 472.767373 189.23086 
L 473.342594 197.320243 
L 473.917815 203.398117 
L 474.493035 204.829528 
L 475.068256 203.460735 
L 475.643477 203.000388 
L 476.218697 205.804086 
L 477.944359 223.400026 
L 478.51958 224.871385 
L 479.094801 222.591229 
L 481.395683 204.062507 
L 481.970904 202.742449 
L 482.546125 203.359226 
L 483.121345 205.470031 
L 484.271787 211.230719 
L 484.847007 213.350434 
L 485.422228 214.254423 
L 485.997449 213.857335 
L 486.572669 212.456726 
L 487.723111 208.862792 
L 488.298331 207.736869 
L 488.873552 207.455986 
L 489.448773 207.998592 
L 490.599214 210.482589 
L 491.174435 211.728415 
L 491.749655 212.562566 
L 492.324876 212.805581 
L 492.900097 212.45327 
L 493.475317 211.648644 
L 494.625759 209.673728 
L 495.200979 208.987905 
L 495.7762 208.711834 
L 496.351421 208.880728 
L 496.926641 209.418235 
L 498.652303 211.595751 
L 499.227524 212.0057 
L 499.802745 212.119754 
L 500.377965 211.95687 
L 500.953186 211.556071 
L 503.254069 209.180989 
L 503.829289 208.880157 
L 504.40451 208.838669 
L 504.979731 209.06672 
L 505.554951 209.537137 
L 507.855834 212.093059 
L 508.431055 212.310732 
L 509.006275 212.083547 
L 509.581496 211.310351 
L 510.156717 209.942118 
L 510.731937 208.00394 
L 513.03282 198.227439 
L 513.608041 197.131045 
L 514.183261 197.683378 
L 514.758482 200.479702 
L 515.333703 205.839674 
L 516.484144 219.486116 
L 517.059365 223.147249 
L 517.634585 225.622695 
L 518.209806 231.019988 
L 519.935468 259.007655 
L 520.510689 256.82936 
L 521.085909 244.601536 
L 522.811571 186.519052 
L 523.386792 176.526434 
L 523.962013 175.054145 
L 524.537233 180.859332 
L 526.262895 213.705938 
L 526.838116 220.529447 
L 527.413337 222.689307 
L 527.988557 220.425053 
L 528.563778 215.027118 
L 529.714219 202.527793 
L 530.28944 198.875573 
L 530.864661 198.100922 
L 531.439881 199.985241 
L 533.165543 211.349339 
L 533.740764 213.406895 
L 534.315985 213.653035 
L 534.891205 212.287272 
L 536.616867 204.888458 
L 537.192088 203.547591 
L 537.767309 203.367113 
L 538.342529 204.246543 
L 540.643412 210.315563 
L 541.218633 210.611992 
L 541.793853 210.193818 
L 542.369074 209.242096 
L 543.519515 206.857029 
L 544.094736 205.969814 
L 544.669957 205.517419 
L 545.245178 205.531783 
L 545.820398 205.9458 
L 548.121281 208.581666 
L 548.696502 208.852645 
L 549.271722 208.869548 
L 549.846943 208.651195 
L 550.422164 208.236845 
L 551.572605 206.999497 
L 553.298267 204.872715 
L 553.873488 204.397075 
L 554.448708 204.21663 
L 555.023929 204.441769 
L 555.59915 205.143287 
L 556.17437 206.337277 
L 558.475253 212.445896 
L 559.050474 212.116856 
L 559.625694 209.5907 
L 560.200915 203.963051 
L 560.776136 194.742807 
L 561.351356 183.28691 
L 561.926577 174.607841 
L 562.501798 175.473196 
L 563.077018 186.656887 
L 563.652239 200.61324 
L 564.22746 208.531873 
L 564.80268 207.035178 
L 565.953122 190.107918 
L 566.528342 185.901794 
L 567.103563 188.716361 
L 567.678784 197.64407 
L 568.829225 220.395075 
L 569.404446 228.196829 
L 569.979666 231.791305 
L 570.554887 231.175874 
L 571.130108 227.11015 
L 572.85577 208.768831 
L 573.43099 205.508506 
L 574.006211 204.972973 
L 574.581432 206.853412 
L 576.307094 216.819932 
L 576.882314 218.245891 
L 577.457535 218.045023 
L 578.032756 216.512777 
L 579.183197 211.954978 
L 579.758418 210.236603 
L 580.333638 209.462173 
L 580.908859 209.706434 
L 581.48408 210.773588 
L 582.634521 213.742937 
L 583.209742 214.781395 
L 583.784962 215.14655 
L 584.360183 214.794444 
L 584.935404 213.868043 
L 586.085845 211.426182 
L 586.661066 210.507816 
L 587.236286 210.065885 
L 587.811507 210.159022 
L 588.386728 210.712448 
L 590.11239 213.175006 
L 590.68761 213.608245 
L 591.262831 213.658678 
L 591.838052 213.333858 
L 592.413272 212.712216 
L 594.138934 210.42735 
L 594.714155 209.965708 
L 595.289376 209.806743 
L 595.864596 209.969161 
L 596.439817 210.429292 
L 597.015038 211.14881 
L 599.31592 214.768762 
L 599.891141 215.181818 
L 600.466362 215.112211 
L 601.041582 214.461095 
L 601.616803 213.189049 
L 603.342465 207.41051 
L 603.917686 206.588644 
L 604.492906 208.151499 
L 605.068127 213.9759 
L 605.643348 225.984836 
L 606.793789 257.946401 
L 607.36901 254.688577 
L 607.94423 226.262397 
L 609.094672 138.14143 
L 609.669892 113.410049 
L 610.245113 114.8833 
L 610.820334 140.125109 
L 612.545996 252.504831 
L 613.121216 270.160438 
L 613.696437 272.284549 
L 614.271658 261.168958 
L 615.99732 198.907251 
L 616.57254 186.35653 
L 617.147761 183.006046 
L 617.722982 188.227511 
L 619.448644 223.351516 
L 620.023864 229.983775 
L 620.599085 231.153238 
L 621.174306 227.476587 
L 622.899968 206.778227 
L 623.475188 203.14207 
L 624.050409 202.712855 
L 624.62563 205.091635 
L 626.351292 217.261747 
L 626.926512 219.112849 
L 627.501733 218.997971 
L 628.076954 217.240714 
L 629.802616 209.635725 
L 630.377836 208.651526 
L 630.953057 208.916153 
L 631.528278 210.198032 
L 632.678719 213.845375 
L 633.25394 215.167871 
L 633.82916 215.688815 
L 634.404381 215.345527 
L 634.979602 214.314764 
L 636.130043 211.558701 
L 636.705264 210.554389 
L 637.280485 210.140056 
L 637.855705 210.390122 
L 638.430926 211.220295 
L 640.156588 214.828141 
L 640.731809 215.573199 
L 641.307029 215.8195 
L 641.88225 215.539502 
L 642.457471 214.803582 
L 644.183133 211.57712 
L 644.758353 210.904465 
L 645.333574 210.824377 
L 645.908795 211.561256 
L 646.484015 213.328599 
L 647.059236 216.320341 
L 647.634457 220.691488 
L 648.209677 226.503023 
L 649.360119 241.872639 
L 649.935339 249.84849 
L 650.51056 255.06242 
L 651.085781 253.435913 
L 651.661001 241.996078 
L 652.811443 204.212686 
L 653.386663 189.978772 
L 653.961884 182.097888 
L 654.537105 179.755083 
L 655.112325 181.678773 
L 655.687546 186.811587 
L 656.837987 202.454275 
L 657.413208 210.47265 
L 657.988429 216.660199 
L 658.563649 219.714109 
L 659.13887 219.260142 
L 659.714091 216.028512 
L 660.864532 206.882339 
L 661.439753 203.570034 
L 662.014973 202.079886 
L 662.590194 202.455461 
L 663.165415 204.27043 
L 664.315856 209.436562 
L 664.891077 211.42766 
L 665.466297 212.401666 
L 666.041518 212.241933 
L 666.616739 211.126652 
L 668.342401 206.357252 
L 668.917621 205.643743 
L 669.492842 205.687636 
L 670.068063 206.370718 
L 671.793725 209.645199 
L 672.368945 210.322618 
L 672.944166 210.583107 
L 673.519387 210.454686 
L 674.094607 210.038848 
L 675.820269 208.464222 
L 676.39549 208.191416 
L 676.970711 208.115134 
L 677.545931 208.209034 
L 678.696373 208.743752 
L 681.572476 210.508915 
L 682.722917 210.847901 
L 683.298138 210.826355 
L 683.873359 210.620899 
L 685.0238 209.712327 
L 686.174241 208.68353 
L 686.749462 208.447563 
L 687.324683 208.583371 
L 687.899903 209.195423 
L 688.475124 210.337598 
L 689.050345 211.983962 
L 690.776007 218.082151 
L 691.351227 219.319746 
L 691.926448 219.319104 
L 692.501669 217.43267 
L 693.076889 212.982752 
L 693.65211 205.390485 
L 694.802551 183.643472 
L 695.377772 177.163187 
L 695.952993 180.047072 
L 697.678655 212.154465 
L 698.253875 215.650533 
L 698.829096 215.355883 
L 699.979537 212.277214 
L 700.554758 211.847208 
L 701.129979 211.940418 
L 701.705199 211.801417 
L 702.28042 211.173263 
L 702.855641 210.360546 
L 703.430861 209.757023 
L 704.006082 209.506274 
L 704.581303 209.526973 
L 708.032627 210.331335 
L 708.607847 210.390074 
L 709.183068 210.330311 
L 710.333509 209.905518 
L 711.483951 209.530625 
L 712.059171 209.552129 
L 712.634392 209.743875 
L 713.784833 210.480085 
L 714.935275 211.243848 
L 715.510495 211.459257 
L 716.085716 211.475124 
L 716.660937 211.288139 
L 717.811378 210.52418 
L 718.961819 209.800344 
L 719.53704 209.649143 
L 720.112261 209.691291 
L 720.687481 209.922092 
L 723.563585 211.708408 
L 724.138805 211.741865 
L 724.714026 211.599512 
L 725.289247 211.304622 
L 726.439688 210.374624 
L 727.59013 209.466261 
L 728.16535 209.24486 
L 728.740571 209.27596 
L 729.315792 209.587606 
L 729.891012 210.160222 
L 731.616674 212.460641 
L 732.191895 212.90523 
L 732.767116 212.905861 
L 733.342336 212.306362 
L 733.917557 210.990946 
L 734.492778 208.917868 
L 735.643219 202.818179 
L 736.79366 195.888481 
L 737.368881 193.35311 
L 737.944102 192.492372 
L 738.519322 194.250687 
L 739.094543 199.249802 
L 741.395426 229.594221 
L 743.121088 262.380583 
L 743.696308 264.114819 
L 744.271529 255.607154 
L 744.84675 238.171653 
L 745.997191 195.420214 
L 746.572412 180.643458 
L 747.147632 174.404889 
L 747.722853 176.61204 
L 748.298074 185.208997 
L 749.448515 209.019271 
L 750.023736 218.193791 
L 750.598956 222.92865 
L 751.174177 222.824224 
L 751.749398 218.716594 
L 753.47506 200.605385 
L 754.05028 198.233531 
L 754.625501 198.79218 
L 755.200722 201.710756 
L 756.351163 210.08518 
L 756.926384 213.184647 
L 757.501604 214.575011 
L 758.076825 214.143168 
L 758.652046 212.25311 
L 759.802487 206.870883 
L 760.377708 204.82443 
L 760.952928 203.854585 
L 761.528149 204.061738 
L 762.10337 205.245757 
L 763.829032 210.332643 
L 764.404252 211.151843 
L 764.979473 211.206483 
L 765.554694 210.603713 
L 767.855576 206.581943 
L 768.430797 206.233589 
L 769.006018 206.287774 
L 769.581238 206.668094 
L 771.882121 208.970434 
L 772.457342 209.271115 
L 773.032562 209.378158 
L 773.607783 209.286566 
L 774.183004 208.99062 
L 774.758224 208.474351 
L 775.333445 207.732307 
L 776.483886 205.674715 
L 777.634328 203.374167 
L 778.209548 202.540618 
L 778.784769 202.20868 
L 779.35999 202.574892 
L 779.93521 203.769396 
L 780.510431 205.799661 
L 781.660872 211.148496 
L 782.236093 212.881949 
L 782.811314 212.001025 
L 783.386534 206.598134 
L 784.536976 188.722485 
L 785.112196 192.440977 
L 785.687417 211.612914 
L 786.837858 261.260976 
L 787.413079 268.945928 
L 787.9883 259.079795 
L 788.56352 236.015512 
L 789.713962 184.16682 
L 790.289182 169.865544 
L 790.864403 166.898522 
L 791.439624 173.701768 
L 792.590065 202.806733 
L 793.165286 217.187363 
L 793.740506 227.013355 
L 794.315727 230.599751 
L 794.890948 227.991792 
L 795.466168 220.781006 
L 796.61661 203.035464 
L 797.19183 197.432364 
L 797.767051 195.739424 
L 798.342272 197.753754 
L 798.917492 202.319133 
L 800.067934 212.590214 
L 800.643154 215.536168 
L 801.218375 216.134189 
L 801.793596 214.57126 
L 803.519258 205.190129 
L 804.094478 203.490232 
L 804.669699 203.299366 
L 805.24492 204.472228 
L 806.970582 210.731458 
L 807.545802 211.780294 
L 808.121023 211.793145 
L 808.696244 210.877206 
L 810.421906 206.280784 
L 810.997126 205.448293 
L 811.572347 205.335435 
L 812.147568 205.895302 
L 813.298009 208.165545 
L 813.87323 209.294126 
L 814.44845 210.075316 
L 815.023671 210.362988 
L 815.598892 210.127801 
L 816.174112 209.445683 
L 818.474995 205.646821 
L 819.050216 205.227674 
L 819.625437 205.213663 
L 820.200657 205.632554 
L 820.775878 206.471297 
L 821.351099 207.674146 
L 823.651981 213.222343 
L 824.227202 213.56884 
L 824.802423 212.830236 
L 825.377643 210.653631 
L 825.952864 206.773706 
L 827.678526 190.330396 
L 828.253747 190.629407 
L 828.828967 195.871712 
L 829.404188 199.166761 
L 829.979409 192.531135 
L 830.554629 175.112498 
L 831.12985 154.133659 
L 831.705071 140.145949 
L 832.280291 140.858048 
L 832.855512 157.738716 
L 834.581174 244.057764 
L 835.156395 259.87333 
L 835.731615 263.450814 
L 836.306836 256.240059 
L 836.882057 241.711655 
L 838.032498 208.423273 
L 838.607719 197.485106 
L 839.182939 193.301426 
L 839.75816 195.779502 
L 840.333381 203.177306 
L 841.483822 221.448377 
L 842.059043 227.15042 
L 842.634263 228.764295 
L 843.209484 226.496418 
L 843.784705 221.542607 
L 844.935146 210.398208 
L 845.510367 207.14822 
L 846.085587 206.413745 
L 846.660808 208.019772 
L 848.38647 218.092827 
L 848.961691 219.950919 
L 849.536911 220.161887 
L 850.112132 218.865939 
L 851.837794 211.728142 
L 852.413015 210.374415 
L 852.988235 210.107595 
L 853.563456 210.844897 
L 854.713897 213.937137 
L 855.289118 215.417923 
L 855.864339 216.37552 
L 856.439559 216.640577 
L 857.01478 216.225854 
L 857.590001 215.294901 
L 858.740442 212.915178 
L 859.315663 211.977457 
L 859.890883 211.445804 
L 860.466104 211.36663 
L 861.041325 211.708382 
L 861.616545 212.383506 
L 863.917428 215.978624 
L 864.492649 216.556606 
L 865.067869 216.854623 
L 865.64309 216.830609 
L 866.218311 216.458689 
L 866.793531 215.729694 
L 868.519193 212.574824 
L 869.094414 212.235707 
L 869.669635 213.27015 
L 870.244855 216.72397 
L 870.820076 223.95284 
L 871.395297 236.502983 
L 872.545738 275.888965 
L 873.120959 287.258808 
L 873.696179 273.926447 
L 874.2714 232.829699 
L 875.421841 130.282061 
L 875.997062 105.22044 
L 876.572283 108.32084 
L 877.147503 135.225066 
L 878.873165 248.125796 
L 879.448386 265.871819 
L 880.023607 268.385804 
L 880.598827 257.639247 
L 882.324489 195.854815 
L 882.89971 183.542701 
L 883.474931 180.499018 
L 884.050151 186.023085 
L 885.775813 221.390826 
L 886.351034 227.954119 
L 886.926255 229.083056 
L 887.501475 225.410637 
L 889.227137 204.804872 
L 889.802358 201.135723 
L 890.377579 200.628726 
L 890.952799 202.907376 
L 892.678461 215.011953 
L 893.253682 216.997331 
L 893.828903 217.0662 
L 894.404123 215.511384 
L 896.129785 208.409945 
L 896.705006 207.476089 
L 897.280227 207.708873 
L 897.855447 208.872517 
L 899.005889 212.119873 
L 899.581109 213.253754 
L 900.15633 213.656145 
L 900.731551 213.29891 
L 901.306771 212.366251 
L 902.457213 210.110823 
L 903.032433 209.466761 
L 903.607654 209.425869 
L 904.182875 209.992267 
L 905.333316 212.221766 
L 905.908537 213.369607 
L 906.483757 214.207709 
L 907.058978 214.575204 
L 907.634199 214.397484 
L 908.209419 213.712126 
L 909.935082 210.620075 
L 910.510302 210.157203 
L 911.085523 210.407096 
L 911.660744 211.554379 
L 912.235964 213.704655 
L 912.811185 216.866262 
L 913.961626 225.860147 
L 915.687288 241.227486 
L 916.262509 243.567214 
L 916.83773 241.595334 
L 917.41295 233.469016 
L 919.713833 180.977993 
L 920.289054 173.569352 
L 920.864274 169.868109 
L 921.439495 171.137125 
L 922.014716 177.966662 
L 922.589936 189.433429 
L 923.740378 216.044447 
L 924.315598 225.122239 
L 924.890819 228.711232 
L 925.46604 226.879656 
L 926.04126 221.095727 
L 927.191702 206.27264 
L 927.766922 201.06384 
L 928.342143 198.795995 
L 928.917364 199.520309 
L 929.492584 202.561009 
L 930.643026 210.955254 
L 931.218246 213.981158 
L 931.793467 215.23985 
L 932.368688 214.643785 
L 932.943908 212.601669 
L 934.09435 207.196242 
L 934.66957 205.294075 
L 935.244791 204.527118 
L 935.820012 204.95489 
L 936.395232 206.335258 
L 937.545674 210.094981 
L 938.120894 211.522272 
L 938.696115 212.231709 
L 939.271336 212.178085 
L 939.846556 211.494615 
L 941.572218 208.360954 
L 942.147439 207.810727 
L 942.72266 207.709196 
L 943.29788 208.014001 
L 944.448322 209.332495 
L 945.598763 210.634878 
L 946.173984 211.019494 
L 946.749204 211.175165 
L 947.324425 211.13839 
L 948.474866 210.684125 
L 950.775749 209.424388 
L 951.35097 209.21147 
L 951.92619 209.123678 
L 952.501411 209.220396 
L 953.076632 209.550966 
L 953.651852 210.146492 
L 954.802294 212.03169 
L 955.952735 214.093536 
L 956.527956 214.731955 
L 957.103176 214.802652 
L 957.678397 214.083853 
L 958.253618 212.413241 
L 958.828838 209.750263 
L 960.5545 198.618852 
L 961.129721 196.575474 
L 961.704942 197.974053 
L 962.280162 204.092646 
L 962.855383 212.863033 
L 963.430604 217.809559 
L 964.005824 213.995169 
L 965.156266 193.4845 
L 965.731486 189.931031 
L 966.306707 194.819468 
L 968.032369 227.007327 
L 968.60759 230.357394 
L 969.18281 227.998076 
L 969.758031 221.742771 
L 970.908472 206.363632 
L 971.483693 200.778969 
L 972.058914 198.051002 
L 972.634134 198.414489 
L 973.209355 201.378401 
L 974.935017 214.128195 
L 975.510238 215.849863 
L 976.085458 215.532705 
L 976.660679 213.60895 
L 977.81112 208.232295 
L 978.386341 206.388032 
L 978.961562 205.741661 
L 979.536782 206.310025 
L 980.112003 207.776136 
L 981.262444 211.338383 
L 981.837665 212.473142 
L 982.412886 212.785106 
L 982.988106 212.270722 
L 984.138548 209.813632 
L 984.713768 208.589986 
L 985.288989 207.795453 
L 985.86421 207.599592 
L 986.43943 207.999438 
L 987.589872 209.83751 
L 988.165092 210.800491 
L 988.740313 211.498363 
L 989.315534 211.811507 
L 989.890754 211.699629 
L 990.465975 211.209776 
L 992.766858 208.35929 
L 993.342078 208.164907 
L 993.917299 208.30935 
L 994.49252 208.750216 
L 996.218182 210.85759 
L 996.218182 210.85759 
" style="fill:none;stroke:#4c72b0;stroke-linecap:round;stroke-width:1.4;"/>
   </g>
   <g id="patch_3">
    <path d="M 144 320.4 
L 144 43.2 
" style="fill:none;"/>
   </g>
   <g id="patch_4">
    <path d="M 1036.8 320.4 
L 1036.8 43.2 
" style="fill:none;"/>
   </g>
   <g id="patch_5">
    <path d="M 144 320.4 
L 1036.8 320.4 
" style="fill:none;"/>
   </g>
   <g id="patch_6">
    <path d="M 144 43.2 
L 1036.8 43.2 
" style="fill:none;"/>
   </g>
  </g>
 </g>
 <defs>
  <clipPath id="p5950859f7f">
   <rect height="277.2" width="892.8" x="144" y="43.2"/>
  </clipPath>
 </defs>
</svg>
